<svg version="1.1" xmlns="http://www.w3.org/2000/svg" xmlns:xlink="http://www.w3.org/1999/xlink" width="260.04729" height="142.28617" viewBox="0,0,260.04729,142.28617"><defs><linearGradient x1="240" y1="180.00001" x2="240" y2="180.00001" gradientUnits="userSpaceOnUse" id="color-1"><stop offset="0" stop-color="#e7bc52"/><stop offset="1" stop-color="#efd85e"/></linearGradient><linearGradient x1="240" y1="180.00001" x2="240" y2="180.00001" gradientUnits="userSpaceOnUse" id="color-2"><stop offset="0" stop-color="#efd85e" stop-opacity="0"/><stop offset="1" stop-color="#efd85e" stop-opacity="0"/></linearGradient></defs><g transform="translate(-118.16446,125.67073)"><g data-paper-data="{&quot;isPaintingLayer&quot;:true}" fill-rule="nonzero" stroke-linejoin="miter" stroke-miterlimit="10" stroke-dasharray="" stroke-dashoffset="0" style="mix-blend-mode: normal"><path d="" fill="url(#color-1)" stroke="#000000" stroke-width="15" stroke-linecap="butt"/><path d="" fill="#e7bc52" stroke="none" stroke-width="0" stroke-linecap="butt"/><path d="" fill="url(#color-2)" stroke="#000000" stroke-width="15" stroke-linecap="butt"/><g fill="none" stroke="#392f0e" stroke-width="5" stroke-linecap="round"><path d=""/><path d=""/><path d=""/></g><g stroke-width="14"><path d="M125.16448,-106.71252c0,0 27.31517,9.85911 45.98825,20.91716c9.27005,5.48965 18.08268,10.54788 24.41188,14.25029c9.20743,5.38609 15.27982,8.91227 19.12082,11.13179c4.26455,2.46427 4.71236,4.05019 3.05896,5.30515c-5.57355,4.23042 -12.10493,5.33574 -16.15827,24.60561c-2.90154,13.79412 -0.49802,24.34291 2.91257,31.68854c1.82928,3.93983 4.3106,7.41815 6.44442,10.01445c0.39783,0.48406 -10.19025,-8.5716 -30.83758,-5.96886c-12.32892,1.55415 -15.89024,6.2296 -20.72979,6.16655c-2.02683,-0.02641 -2.9758,-3.17987 -3.42039,-7.79603c-0.66291,-6.88296 -2.84668,-17.05615 -9.61287,-25.02886c-6.05765,-7.3201 -13.59127,-12.66583 -18.69677,-15.79372c-3.47072,-2.12634 -3.98477,-4.23963 -1.55198,-6.31766c5.02768,-4.29453 12.61034,-13.14263 11.83509,-27.02346c1.13816,-15.1098 -12.76434,-35.61731 -12.76434,-35.61731" fill="#5f5c53" stroke="none" stroke-linecap="round"/><path d="M160.1961,2.14482c0,0 2.61106,-10.89733 -7.35036,-25.72144c-7.73736,-11.51436 -23.18136,-17.12464 -22.29129,-17.97498c3.51626,-3.35931 9.35858,-9.30899 10.59924,-14.27272c6.56206,-26.25387 1.10622,-33.81254 1.10622,-33.81254" fill="none" stroke="#76695d" stroke-linecap="round"/><path d="M138.33637,-86.96878l-1.68152,-20.81096l76.2288,42.15554l-11.21012,18.14289c0,0 -7.45104,-3.95635 -15.87836,-8.62047c-6.70144,-3.70893 -14.02023,-7.86542 -18.70055,-10.83592c-10.15655,-6.44617 -28.75826,-20.03106 -28.75826,-20.03106z" fill="#342d2a" stroke="none" stroke-linecap="butt"/><path d="M125.16451,-106.7125c0,0 27.31518,9.8591 45.98825,20.91715c9.27005,5.48966 18.08267,10.54788 24.41187,14.25029c9.20743,5.38607 15.27982,8.91226 19.12082,11.13178c4.26455,2.46428 4.71236,4.0502 3.05896,5.30515c-5.57355,4.23041 -12.10494,5.33574 -16.15828,24.60561c-2.90155,13.79412 1.21716,31.59918 3.35098,34.19548c0.39784,0.48406 -5.68574,-2.56559 -26.33308,0.03715c-12.32892,1.55414 -14.38874,7.7311 -19.2283,7.66805c-2.02683,-0.0264 -2.97579,-3.17987 -3.42039,-7.79603c-0.66292,-6.88296 -2.84669,-17.05616 -9.61288,-25.02886c-6.05766,-7.3201 -13.59128,-12.66583 -18.69677,-15.79372c-3.47073,-2.12633 -3.98477,-4.23962 -1.55198,-6.31765c5.02769,-4.29453 12.61034,-13.14263 11.83509,-27.02346c1.13815,-15.10979 -12.76435,-35.61731 -12.76435,-35.61731" fill="none" stroke="#000000" stroke-linecap="round"/><path d="M129.36827,-42.67877c0,0 20.35636,-7.2322 29.53981,-8.93913c24.69305,-4.58971 47.81001,-1.73316 47.81001,-1.73316" fill="none" stroke="#000000" stroke-linecap="round"/><path d="M161.31711,9.61544c0,0 8.6231,-15.62362 14.42024,-24.11866c11.4421,-16.76709 30.98074,-32.97809 30.98074,-32.97809" fill="none" stroke="#000000" stroke-linecap="round"/></g><g data-paper-data="{&quot;index&quot;:null}" stroke-width="14"><path d="M371.21175,-118.11023c0,0 -13.9025,21.541 -12.76434,37.41225c-0.77524,14.58036 6.8074,23.87436 11.83509,28.38532c2.43279,2.18275 1.91874,4.40254 -1.55199,6.63604c-5.1055,3.28552 -12.63912,8.90064 -18.69677,16.58964c-6.76619,8.37449 -8.94996,19.06036 -9.61287,26.29019c-0.44459,4.84879 -1.39356,8.16117 -3.42039,8.18891c-4.83955,0.06623 -8.40087,-4.84484 -20.72979,-6.47731c-20.64733,-2.7339 -31.23541,6.77811 -30.83758,6.26966c2.13382,-2.72714 4.61514,-6.38075 6.44441,-10.51913c3.41059,-7.7158 5.81411,-18.7962 2.91258,-33.28548c-4.05334,-20.24098 -10.58472,-21.40201 -16.15827,-25.84561c-1.65339,-1.3182 -1.20559,-2.98404 3.05896,-5.5725c3.841,-2.33138 9.91339,-6.03526 19.12082,-11.69277c6.3292,-3.88899 15.14182,-9.20213 24.41188,-14.96843c18.67308,-11.61532 45.98826,-21.97128 45.98826,-21.97128" fill="#5f5c53" stroke="none" stroke-linecap="round"/><path d="M354.11632,-100.73455c0,0 -5.45584,7.93959 1.10622,35.51653c1.24066,5.21387 7.08298,11.46339 10.59924,14.99199c0.89006,0.89319 -14.55393,6.78621 -22.29129,18.88084c-9.96142,15.57118 -7.35037,27.01767 -7.35037,27.01767" fill="none" stroke="#76695d" stroke-linecap="round"/><path d="M329.28159,-76.89148c-4.68032,3.12021 -11.99911,7.48616 -18.70055,11.382c-8.42732,4.89917 -15.87836,9.0549 -15.87836,9.0549l-11.21011,-19.0572l76.2288,-44.27996l-1.68152,21.85973c0,0 -18.60172,14.2695 -28.75826,21.04053z" fill="#342d2a" stroke="none" stroke-linecap="butt"/><path d="M371.21175,-118.11023c0,0 -13.9025,21.54099 -12.76435,37.41225c-0.77524,14.58036 6.8074,23.87436 11.8351,28.38531c2.43279,2.18276 1.91875,4.40254 -1.55199,6.63603c-5.10549,3.28552 -12.63912,8.90064 -18.69678,16.58964c-6.76619,8.37449 -8.94996,19.06036 -9.61288,26.29019c-0.44459,4.84879 -1.39355,8.16118 -3.42038,8.18892c-4.83956,0.06623 -8.40088,-4.84485 -20.7298,-6.47731c-20.64733,-2.7339 -26.22244,-0.1111 -24.39316,-4.24947c3.41059,-7.7158 5.81412,-18.79619 2.91257,-33.28547c-4.05333,-20.24098 -10.58472,-21.40201 -16.15828,-25.84561c-1.65341,-1.3182 -1.20559,-2.98404 3.05896,-5.57251c3.841,-2.33138 9.91339,-6.03527 19.12082,-11.69277c6.3292,-3.88899 15.14182,-9.20213 24.41187,-14.96843c18.67307,-11.61532 45.98825,-21.97127 45.98825,-21.97127" fill="none" stroke="#000000" stroke-linecap="round"/><path d="M289.65814,-62.62014c0,0 23.11696,-3.00051 47.81001,1.8205c9.18344,1.79295 29.53981,9.38961 29.53981,9.38961" fill="none" stroke="#000000" stroke-linecap="round"/><path d="M289.65814,-56.45457c0,0 19.53864,17.02795 30.98074,34.64002c5.79714,8.92314 14.42024,25.33412 14.42024,25.33412" fill="none" stroke="#000000" stroke-linecap="round"/></g></g></g></svg>