<svg version="1.1" xmlns="http://www.w3.org/2000/svg" xmlns:xlink="http://www.w3.org/1999/xlink" width="48.45701" height="34.29685" viewBox="0,0,48.45701,34.29685"><g transform="translate(-215.77149,-162.85157)"><g data-paper-data="{&quot;isPaintingLayer&quot;:true}" fill="#ffffff" fill-rule="nonzero" stroke-linecap="square" stroke-linejoin="miter" stroke-miterlimit="10" stroke-dasharray="" stroke-dashoffset="0" style="mix-blend-mode: normal"><path d="M232.36523,168.85155v21.875c0,2.61458 -0.88021,3.92188 -2.64062,3.92188c-0.60417,0 -1.20312,-0.19792 -1.79687,-0.59375c-0.58333,-0.39583 -0.875,-1.42708 -0.875,-3.09375v-17.25c-3.35417,2.54167 -5.56771,3.8125 -6.64062,3.8125c-0.61458,0 -1.125,-0.20312 -1.53125,-0.60937c-0.40625,-0.41667 -0.60937,-0.94792 -0.60937,-1.59375c0,-0.46875 0.15104,-0.86979 0.45313,-1.20312c0.30208,-0.33333 0.94271,-0.72917 1.92188,-1.1875c3.26042,-1.60417 5.55208,-3.43229 6.875,-5.48437c0.54167,-0.84375 0.96354,-1.40104 1.26563,-1.67187c0.30208,-0.28125 0.71875,-0.42187 1.25,-0.42187c1.55208,0 2.32813,1.16667 2.32813,3.5zM248.72851,170.39842l-1.07812,6.28125c1.67708,-0.98958 3.38542,-1.48437 5.125,-1.48437c2.41667,0 4.51042,0.875 6.28125,2.625c1.78125,1.73958 2.67187,3.95833 2.67187,6.65625c0,2.80208 -0.94271,5.19792 -2.82812,7.1875c-1.88542,1.98958 -4.35937,2.98438 -7.42187,2.98438c-3.34375,0 -5.81771,-0.88021 -7.42187,-2.64062c-1.60417,-1.77083 -2.40625,-3.29167 -2.40625,-4.5625c0,-0.45833 0.20313,-0.92187 0.60938,-1.39062c0.41667,-0.46875 0.95833,-0.70312 1.625,-0.70312c0.92708,0 1.73958,0.63021 2.4375,1.89063c0.84375,1.5 1.65104,2.49479 2.42188,2.98438c0.78125,0.48958 1.65625,0.73438 2.625,0.73438c1.57292,0 2.79167,-0.59896 3.65625,-1.79687c0.86458,-1.19792 1.29688,-2.65104 1.29688,-4.35937c0,-1.83333 -0.46875,-3.25 -1.40625,-4.25c-0.9375,-1.01042 -2.13542,-1.51562 -3.59375,-1.51562c-0.6875,0 -1.38542,0.125 -2.09375,0.375c-0.69792,0.25 -1.59896,0.875 -2.70312,1.875c-0.51042,0.41667 -1.09896,0.625 -1.76562,0.625c-0.61458,0 -1.17708,-0.22396 -1.6875,-0.67187c-0.5,-0.45833 -0.75,-0.97396 -0.75,-1.54687c0,-0.15625 0.07292,-0.61458 0.21875,-1.375l1.64063,-9.35937c0.22917,-1.36458 0.63542,-2.22917 1.21875,-2.59375c0.59375,-0.375 1.51563,-0.5625 2.76563,-0.5625h9.32813c0.89583,0 1.53646,0.05208 1.92188,0.15625c0.38542,0.09375 0.73438,0.34375 1.04687,0.75c0.3125,0.40625 0.46875,0.86458 0.46875,1.375c0,1.54167 -1.09375,2.3125 -3.28125,2.3125z" stroke="#000000" stroke-width="5"/><path d="M232.36523,168.85155v21.875c0,2.61458 -0.88021,3.92188 -2.64062,3.92188c-0.60417,0 -1.20312,-0.19792 -1.79687,-0.59375c-0.58333,-0.39583 -0.875,-1.42708 -0.875,-3.09375v-17.25c-3.35417,2.54167 -5.56771,3.8125 -6.64062,3.8125c-0.61458,0 -1.125,-0.20312 -1.53125,-0.60937c-0.40625,-0.41667 -0.60937,-0.94792 -0.60937,-1.59375c0,-0.46875 0.15104,-0.86979 0.45313,-1.20312c0.30208,-0.33333 0.94271,-0.72917 1.92188,-1.1875c3.26042,-1.60417 5.55208,-3.43229 6.875,-5.48437c0.54167,-0.84375 0.96354,-1.40104 1.26563,-1.67187c0.30208,-0.28125 0.71875,-0.42187 1.25,-0.42187c1.55208,0 2.32813,1.16667 2.32813,3.5zM248.72851,170.39842l-1.07812,6.28125c1.67708,-0.98958 3.38542,-1.48437 5.125,-1.48437c2.41667,0 4.51042,0.875 6.28125,2.625c1.78125,1.73958 2.67187,3.95833 2.67187,6.65625c0,2.80208 -0.94271,5.19792 -2.82812,7.1875c-1.88542,1.98958 -4.35937,2.98438 -7.42187,2.98438c-3.34375,0 -5.81771,-0.88021 -7.42187,-2.64062c-1.60417,-1.77083 -2.40625,-3.29167 -2.40625,-4.5625c0,-0.45833 0.20313,-0.92187 0.60938,-1.39062c0.41667,-0.46875 0.95833,-0.70312 1.625,-0.70312c0.92708,0 1.73958,0.63021 2.4375,1.89063c0.84375,1.5 1.65104,2.49479 2.42188,2.98438c0.78125,0.48958 1.65625,0.73438 2.625,0.73438c1.57292,0 2.79167,-0.59896 3.65625,-1.79687c0.86458,-1.19792 1.29688,-2.65104 1.29688,-4.35937c0,-1.83333 -0.46875,-3.25 -1.40625,-4.25c-0.9375,-1.01042 -2.13542,-1.51562 -3.59375,-1.51562c-0.6875,0 -1.38542,0.125 -2.09375,0.375c-0.69792,0.25 -1.59896,0.875 -2.70312,1.875c-0.51042,0.41667 -1.09896,0.625 -1.76562,0.625c-0.61458,0 -1.17708,-0.22396 -1.6875,-0.67187c-0.5,-0.45833 -0.75,-0.97396 -0.75,-1.54687c0,-0.15625 0.07292,-0.61458 0.21875,-1.375l1.64063,-9.35937c0.22917,-1.36458 0.63542,-2.22917 1.21875,-2.59375c0.59375,-0.375 1.51563,-0.5625 2.76563,-0.5625h9.32813c0.89583,0 1.53646,0.05208 1.92188,0.15625c0.38542,0.09375 0.73438,0.34375 1.04687,0.75c0.3125,0.40625 0.46875,0.86458 0.46875,1.375c0,1.54167 -1.09375,2.3125 -3.28125,2.3125z" stroke="none" stroke-width="0"/></g></g></svg>