<svg version="1.1" xmlns="http://www.w3.org/2000/svg" xmlns:xlink="http://www.w3.org/1999/xlink" width="173.4347" height="9.45395" viewBox="0,0,173.4347,9.45395"><g transform="translate(-153.28265,-175.27302)"><g data-paper-data="{&quot;isPaintingLayer&quot;:true}" fill="#ff0000" fill-rule="nonzero" stroke="none" stroke-width="1" stroke-linecap="square" stroke-linejoin="miter" stroke-miterlimit="10" stroke-dasharray="" stroke-dashoffset="0" style="mix-blend-mode: normal"><path d="M155.47886,179.55525l-1.76326,-2.73149c-0.28863,-0.44081 -0.43295,-0.75044 -0.43295,-0.92887c0,-0.17318 0.0656,-0.32011 0.1968,-0.44081c0.13644,-0.1207 0.29913,-0.18105 0.48805,-0.18105c0.17843,0 0.3175,0.05248 0.4172,0.15743c0.10495,0.09971 0.26764,0.33061 0.48804,0.69271l1.35393,2.18834l1.36181,-2.18834c0.23615,-0.38834 0.4067,-0.62711 0.51166,-0.71632c0.10495,-0.08921 0.2414,-0.13382 0.40933,-0.13382c0.17843,0 0.33061,0.06035 0.45656,0.18106c0.12595,0.1207 0.18892,0.26501 0.18892,0.43294c0,0.16269 -0.14169,0.46181 -0.42507,0.89738l-1.80263,2.77085v1.96793c0,0.31487 -0.01312,0.54577 -0.03936,0.69271c-0.02624,0.14169 -0.10495,0.26501 -0.23615,0.36997c-0.12595,0.09971 -0.27551,0.14957 -0.44869,0.14957c-0.16793,0 -0.3175,-0.04986 -0.44869,-0.14956c-0.12595,-0.09971 -0.20467,-0.22041 -0.23615,-0.3621c-0.02624,-0.14169 -0.03936,-0.37521 -0.03936,-0.70058zM161.77132,177.27245c0.83441,0 1.49038,0.25714 1.96793,0.77142c0.47755,0.50904 0.71633,1.1624 0.71633,1.96007c0,0.79766 -0.2414,1.45364 -0.7242,1.96793c-0.4828,0.50904 -1.12304,0.76356 -1.9207,0.76356c-0.86589,0 -1.53498,-0.25977 -2.00729,-0.7793c-0.47231,-0.51953 -0.70846,-1.17026 -0.70846,-1.95218c0,-0.79766 0.23878,-1.45102 0.71633,-1.96006c0.47755,-0.51429 1.1309,-0.77142 1.96006,-0.77142zM161.77132,181.73571c0.40933,0 0.73207,-0.15219 0.96822,-0.45656c0.23615,-0.30962 0.35423,-0.73469 0.35423,-1.27522c0,-0.54577 -0.11807,-0.97084 -0.35422,-1.27522c-0.23615,-0.30962 -0.55889,-0.46443 -0.96822,-0.46443c-0.39883,0 -0.71895,0.15481 -0.96035,0.46443c-0.23615,0.30962 -0.35423,0.7347 -0.35423,1.27522c0,0.54053 0.11808,0.96559 0.35423,1.27521c0.23615,0.30437 0.55627,0.45656 0.96035,0.45656zM165.47201,180.736v-2.36151c0,-0.28863 0.01049,-0.49855 0.03149,-0.62974c0.02624,-0.13119 0.09708,-0.2414 0.21254,-0.33061c0.11545,-0.09446 0.25714,-0.14169 0.42507,-0.14169c0.15743,0 0.29388,0.0446 0.40933,0.13382c0.1207,0.08921 0.19417,0.20729 0.22041,0.35423c0.03149,0.14169 0.04723,0.35685 0.04723,0.64548v1.84986c0,0.6035 0.09446,0.99184 0.28338,1.16502c0.18892,0.16793 0.39621,0.25189 0.62187,0.25189c0.25715,0 0.48279,-0.07084 0.67696,-0.21254c0.19941,-0.14694 0.33324,-0.32274 0.40147,-0.5274c0.06823,-0.20991 0.10233,-0.61662 0.10233,-1.22011v-1.33819c0,-0.28338 0.01313,-0.4933 0.03937,-0.62974c0.03149,-0.13644 0.10495,-0.24927 0.2204,-0.33848c0.1207,-0.08921 0.26239,-0.13381 0.42507,-0.13381c0.15219,0 0.28863,0.0446 0.40933,0.13382c0.1207,0.08921 0.19154,0.19942 0.21254,0.33061c0.02624,0.13119 0.03936,0.34373 0.03936,0.63761v3.32187c0,0.27289 -0.01312,0.46968 -0.03936,0.59038c-0.02624,0.1207 -0.09184,0.22566 -0.19679,0.31487c-0.09971,0.08921 -0.22828,0.13382 -0.38571,0.13382c-0.43556,0 -0.64548,-0.31224 -0.62974,-0.93673c-0.44607,0.62449 -1.03644,0.93674 -1.77113,0.93674c-0.48804,0 -0.90263,-0.14432 -1.24374,-0.43294c-0.3411,-0.29388 -0.51166,-0.81603 -0.51166,-1.56647zM172.51032,176.76078c-0.22041,0.01049 -0.40933,-0.05773 -0.56677,-0.20467c-0.15219,-0.14694 -0.22828,-0.32537 -0.22828,-0.53528c0,-0.21516 0.0761,-0.39359 0.22828,-0.53528c0.15743,-0.14169 0.33848,-0.21254 0.54315,-0.21254c0.24665,0 0.44869,0.09708 0.60612,0.29126c0.16269,0.19417 0.24403,0.46182 0.24403,0.80292c0,0.50379 -0.14956,0.93936 -0.44869,1.3067c-0.29388,0.36735 -0.56677,0.55102 -0.81866,0.55102c-0.10495,0 -0.18892,-0.03411 -0.2519,-0.10233c-0.05773,-0.06823 -0.08658,-0.14432 -0.08658,-0.22828c0,-0.13119 0.08134,-0.24665 0.24402,-0.34636c0.3411,-0.20991 0.51953,-0.4723 0.53528,-0.78717zM174.49202,181.61764v-3.43994c0,-0.6035 0.22041,-0.90525 0.66123,-0.90525c0.42507,0 0.64285,0.27813 0.65336,0.8344c0.27813,-0.55627 0.66386,-0.8344 1.15715,-0.8344c0.25715,0 0.52478,0.06823 0.80291,0.20467c0.27813,0.13644 0.4172,0.32274 0.4172,0.5589c0,0.16269 -0.05772,0.29912 -0.17318,0.40933c-0.11021,0.10495 -0.22827,0.15743 -0.35422,0.15743c-0.07347,0 -0.20467,-0.02886 -0.39359,-0.08658c-0.18892,-0.05773 -0.34636,-0.08659 -0.47231,-0.08659c-0.32012,0 -0.55889,0.16268 -0.71633,0.48804c-0.15743,0.32012 -0.23615,0.9446 -0.23615,1.87347v0.77931c0,0.3411 -0.01575,0.57201 -0.04723,0.69271c-0.02624,0.1207 -0.09971,0.23091 -0.22041,0.33062c-0.11545,0.09446 -0.24927,0.14169 -0.40145,0.14169c-0.15219,0 -0.28863,-0.04461 -0.40933,-0.13382c-0.11545,-0.08921 -0.18892,-0.19154 -0.2204,-0.307c-0.03149,-0.1207 -0.04724,-0.34635 -0.04724,-0.67696zM182.40901,180.33454h-2.63702c0.01575,0.49854 0.15218,0.87376 0.40933,1.12566c0.26239,0.25189 0.57726,0.37784 0.9446,0.37784c0.44607,0 0.86852,-0.19679 1.26735,-0.59037c0.16269,-0.16269 0.28075,-0.26239 0.35423,-0.29913c0.07871,-0.04198 0.16531,-0.06297 0.25977,-0.06297c0.1207,0 0.22304,0.03937 0.307,0.11808c0.08921,0.07347 0.13382,0.1653 0.13382,0.27551c0,0.30437 -0.20728,0.62449 -0.62186,0.96035c-0.40933,0.33061 -0.96822,0.49592 -1.67667,0.49592c-0.89738,0 -1.5796,-0.25452 -2.04665,-0.76355c-0.46181,-0.50904 -0.69271,-1.16502 -0.69271,-1.96793c0,-0.81341 0.2309,-1.47201 0.69271,-1.9758c0.46705,-0.50379 1.11516,-0.75568 1.94432,-0.75568c0.78717,0 1.39592,0.23878 1.82624,0.71633c0.43032,0.47231 0.64548,0.98658 0.64548,1.54286c0,0.24665 -0.07084,0.44344 -0.21253,0.59038c-0.14169,0.14169 -0.44082,0.21254 -0.89738,0.21254zM179.77198,179.57099h2.44811c-0.01575,-0.44607 -0.13907,-0.78717 -0.36997,-1.02332c-0.2309,-0.23615 -0.51429,-0.35423 -0.85014,-0.35423c-0.71371,0 -1.12303,0.45918 -1.22799,1.37756zM191.30897,181.96399v-0.13381c-0.46181,0.6035 -1.04694,0.90525 -1.75539,0.90525c-0.68222,0 -1.22798,-0.25977 -1.63732,-0.7793c-0.40408,-0.52479 -0.60612,-1.20175 -0.60612,-2.0309c0,-0.77668 0.1968,-1.41166 0.59038,-1.90496c0.39883,-0.49854 0.94723,-0.74781 1.64519,-0.74781c0.67697,0 1.26472,0.27289 1.76326,0.81866v-1.73965c0,-0.4828 0.06035,-0.78192 0.18105,-0.89737c0.12595,-0.1207 0.29126,-0.18105 0.49592,-0.18105c0.14694,0 0.28075,0.04198 0.40146,0.12595c0.1207,0.08397 0.19418,0.19417 0.22041,0.33061c0.02624,0.13119 0.03936,0.35161 0.03936,0.66123v5.2898c0,0.29913 -0.01574,0.51429 -0.04723,0.64548c-0.02624,0.12595 -0.10233,0.22565 -0.22828,0.29912c-0.1207,0.07347 -0.25189,0.11021 -0.39359,0.11021c-0.44607,0 -0.66909,-0.25715 -0.66909,-0.77143zM188.67195,179.96457c0,0.6035 0.12595,1.04432 0.37784,1.32245c0.25715,0.27813 0.54839,0.4172 0.87376,0.4172c0.37785,0 0.69009,-0.14432 0.93673,-0.43294c0.25189,-0.28863 0.37785,-0.69271 0.37785,-1.21224c0,-0.54053 -0.1207,-0.97084 -0.3621,-1.29096c-0.2414,-0.32012 -0.56414,-0.48017 -0.96822,-0.48017c-0.3621,0 -0.6586,0.14956 -0.8895,0.44869c-0.2309,0.29388 -0.34636,0.7032 -0.34636,1.22799zM197.68506,180.33454h-2.63702c0.01575,0.49854 0.15218,0.87376 0.40933,1.12566c0.26239,0.25189 0.57726,0.37784 0.94461,0.37784c0.44607,0 0.86852,-0.19679 1.26735,-0.59037c0.16269,-0.16269 0.28075,-0.26239 0.35423,-0.29913c0.07871,-0.04198 0.16531,-0.06297 0.25977,-0.06297c0.1207,0 0.22304,0.03937 0.307,0.11808c0.08921,0.07347 0.13382,0.1653 0.13382,0.27551c0,0.30437 -0.20729,0.62449 -0.62186,0.96035c-0.40933,0.33061 -0.96822,0.49592 -1.67668,0.49592c-0.89738,0 -1.57959,-0.25452 -2.04664,-0.76355c-0.46181,-0.50904 -0.69271,-1.16502 -0.69271,-1.96793c0,-0.81341 0.2309,-1.47201 0.69271,-1.9758c0.46705,-0.50379 1.11515,-0.75568 1.94431,-0.75568c0.78717,0 1.39592,0.23878 1.82624,0.71633c0.43032,0.47231 0.64548,0.98658 0.64548,1.54286c0,0.24665 -0.07084,0.44344 -0.21253,0.59038c-0.14169,0.14169 -0.44082,0.21254 -0.89738,0.21254zM195.04804,179.57099h2.44811c-0.01575,-0.44607 -0.13907,-0.78717 -0.36997,-1.02332c-0.2309,-0.23615 -0.51429,-0.35423 -0.85014,-0.35423c-0.71371,0 -1.12303,0.45918 -1.22798,1.37756zM203.31827,181.97186c-0.63499,0.50904 -1.25948,0.76356 -1.87347,0.76356c-0.5825,0 -1.03119,-0.14694 -1.34607,-0.44082c-0.30962,-0.29913 -0.46443,-0.66122 -0.46443,-1.0863c0,-0.36735 0.10496,-0.66123 0.31487,-0.88163c0.21516,-0.22566 0.44606,-0.38309 0.69271,-0.4723c0.25189,-0.08921 0.6586,-0.19154 1.22012,-0.307c0.56152,-0.11545 1.01546,-0.22303 1.36181,-0.32274c-0.00525,-0.40933 -0.08658,-0.68484 -0.24402,-0.82653c-0.15743,-0.14169 -0.39621,-0.21253 -0.71633,-0.21253c-0.60874,0 -1.00758,0.17056 -1.1965,0.51166c-0.10495,0.19417 -0.19942,0.33324 -0.28338,0.4172c-0.07871,0.07871 -0.19417,0.11808 -0.34635,0.11808c-0.14169,0 -0.27026,-0.0446 -0.38572,-0.13381c-0.11545,-0.09446 -0.17317,-0.21778 -0.17317,-0.36997c0,-0.34635 0.18891,-0.67435 0.56676,-0.98397c0.37785,-0.31487 0.97084,-0.4723 1.77901,-0.4723c0.81866,0 1.41691,0.14169 1.79476,0.42507c0.38309,0.28338 0.56414,0.8554 0.54315,1.71604l-0.03149,1.25948c-0.01049,0.39359 0.02886,0.71371 0.11808,0.96035c0.09446,0.2414 0.14169,0.42769 0.14169,0.55889c0,0.14169 -0.06297,0.26764 -0.18892,0.37785c-0.1207,0.11021 -0.25976,0.16531 -0.4172,0.16531c-0.27289,0 -0.56151,-0.25452 -0.86589,-0.76355zM203.23168,180.02755c-0.19941,0.07871 -0.53002,0.16531 -0.99184,0.25977c-0.46181,0.08921 -0.7898,0.19417 -0.98396,0.31487c-0.18892,0.11545 -0.28338,0.28864 -0.28338,0.51954c0,0.18892 0.07609,0.35947 0.22828,0.51166c0.15219,0.14694 0.36998,0.22041 0.65336,0.22041c0.29388,0 0.56677,-0.08134 0.81866,-0.24402c0.25715,-0.16269 0.41458,-0.35423 0.47231,-0.57464c0.05773,-0.22566 0.08659,-0.56151 0.08659,-1.00758zM209.5812,181.96399v-0.13381c-0.46181,0.6035 -1.04694,0.90525 -1.75539,0.90525c-0.68222,0 -1.22799,-0.25977 -1.63732,-0.7793c-0.40408,-0.52479 -0.60612,-1.20175 -0.60612,-2.0309c0,-0.77668 0.1968,-1.41166 0.59038,-1.90496c0.39883,-0.49854 0.94723,-0.74781 1.64519,-0.74781c0.67697,0 1.26472,0.27289 1.76326,0.81866v-1.73965c0,-0.4828 0.06035,-0.78192 0.18106,-0.89737c0.12595,-0.1207 0.29125,-0.18105 0.49592,-0.18105c0.14694,0 0.28076,0.04198 0.40146,0.12595c0.1207,0.08397 0.19417,0.19417 0.22041,0.33061c0.02624,0.13119 0.03936,0.35161 0.03936,0.66123v5.2898c0,0.29913 -0.01574,0.51429 -0.04723,0.64548c-0.02624,0.12595 -0.10233,0.22565 -0.22828,0.29912c-0.1207,0.07347 -0.25189,0.11021 -0.39359,0.11021c-0.44607,0 -0.6691,-0.25715 -0.6691,-0.77143zM206.94418,179.96457c0,0.6035 0.12595,1.04432 0.37785,1.32245c0.25715,0.27813 0.54839,0.4172 0.87376,0.4172c0.37785,0 0.69009,-0.14432 0.93673,-0.43294c0.25189,-0.28863 0.37785,-0.69271 0.37785,-1.21224c0,-0.54053 -0.1207,-0.97084 -0.3621,-1.29096c-0.2414,-0.32012 -0.56414,-0.48017 -0.96822,-0.48017c-0.3621,0 -0.6586,0.14956 -0.8895,0.44869c-0.2309,0.29388 -0.34636,0.7032 -0.34636,1.22799zM213.09987,181.24766c0.19941,0 0.36997,0.07347 0.51166,0.22041c0.14694,0.14169 0.2204,0.31486 0.2204,0.51953c0,0.19941 -0.07346,0.37522 -0.2204,0.52741c-0.14169,0.14694 -0.31225,0.22041 -0.51166,0.22041c-0.20467,0 -0.38047,-0.07347 -0.5274,-0.22041c-0.14694,-0.14694 -0.22041,-0.32274 -0.22041,-0.5274c0,-0.20467 0.07347,-0.37784 0.22041,-0.51953c0.14694,-0.14694 0.32274,-0.22041 0.52741,-0.22041zM220.07126,179.55525l-1.76326,-2.73149c-0.28863,-0.44081 -0.43294,-0.75044 -0.43294,-0.92887c0,-0.17318 0.0656,-0.32011 0.1968,-0.44081c0.13644,-0.1207 0.29913,-0.18105 0.48804,-0.18105c0.17843,0 0.3175,0.05248 0.4172,0.15743c0.10495,0.09971 0.26764,0.33061 0.48804,0.69271l1.35394,2.18834l1.36181,-2.18834c0.23615,-0.38834 0.4067,-0.62711 0.51166,-0.71632c0.10495,-0.08921 0.2414,-0.13382 0.40933,-0.13382c0.17843,0 0.33061,0.06035 0.45656,0.18106c0.12595,0.1207 0.18892,0.26501 0.18892,0.43294c0,0.16269 -0.14169,0.46181 -0.42507,0.89738l-1.80262,2.77085v1.96793c0,0.31487 -0.01313,0.54577 -0.03936,0.69271c-0.02624,0.14169 -0.10495,0.26501 -0.23615,0.36997c-0.12595,0.09971 -0.27551,0.14957 -0.44869,0.14957c-0.16793,0 -0.3175,-0.04986 -0.44869,-0.14956c-0.12595,-0.09971 -0.20466,-0.22041 -0.23615,-0.3621c-0.02624,-0.14169 -0.03936,-0.37521 -0.03936,-0.70058zM226.36372,177.27245c0.83441,0 1.49038,0.25714 1.96793,0.77142c0.47755,0.50904 0.71633,1.1624 0.71633,1.96007c0,0.79766 -0.2414,1.45364 -0.7242,1.96793c-0.4828,0.50904 -1.12304,0.76356 -1.9207,0.76356c-0.86589,0 -1.53498,-0.25977 -2.00729,-0.7793c-0.47231,-0.51953 -0.70846,-1.17026 -0.70846,-1.95218c0,-0.79766 0.23878,-1.45102 0.71633,-1.96006c0.47755,-0.51429 1.1309,-0.77142 1.96006,-0.77142zM226.36372,181.73571c0.40933,0 0.73207,-0.15219 0.96822,-0.45656c0.23615,-0.30962 0.35423,-0.73469 0.35423,-1.27522c0,-0.54577 -0.11808,-0.97084 -0.35423,-1.27522c-0.23615,-0.30962 -0.55889,-0.46443 -0.96822,-0.46443c-0.39883,0 -0.71895,0.15481 -0.96035,0.46443c-0.23615,0.30962 -0.35423,0.7347 -0.35423,1.27522c0,0.54053 0.11808,0.96559 0.35423,1.27521c0.23615,0.30437 0.55627,0.45656 0.96035,0.45656zM230.06442,180.736v-2.36151c0,-0.28863 0.01049,-0.49855 0.03149,-0.62974c0.02624,-0.13119 0.09708,-0.2414 0.21254,-0.33061c0.11545,-0.09446 0.25714,-0.14169 0.42507,-0.14169c0.15743,0 0.29388,0.0446 0.40933,0.13382c0.1207,0.08921 0.19417,0.20729 0.22041,0.35423c0.03149,0.14169 0.04723,0.35685 0.04723,0.64548v1.84986c0,0.6035 0.09446,0.99184 0.28338,1.16502c0.18892,0.16793 0.39621,0.25189 0.62187,0.25189c0.25715,0 0.4828,-0.07084 0.67697,-0.21254c0.19941,-0.14694 0.33323,-0.32274 0.40146,-0.5274c0.06823,-0.20991 0.10234,-0.61662 0.10234,-1.22011v-1.33819c0,-0.28338 0.01312,-0.4933 0.03936,-0.62974c0.03149,-0.13644 0.10496,-0.24927 0.22041,-0.33848c0.1207,-0.08921 0.26238,-0.13381 0.42507,-0.13381c0.15219,0 0.28863,0.0446 0.40933,0.13382c0.1207,0.08921 0.19154,0.19942 0.21254,0.33061c0.02624,0.13119 0.03936,0.34373 0.03936,0.63761v3.32187c0,0.27289 -0.01312,0.46968 -0.03936,0.59038c-0.02624,0.1207 -0.09184,0.22566 -0.19679,0.31487c-0.09971,0.08921 -0.22828,0.13382 -0.38571,0.13382c-0.43556,0 -0.64549,-0.31224 -0.62974,-0.93673c-0.44607,0.62449 -1.03644,0.93674 -1.77113,0.93674c-0.48804,0 -0.90263,-0.14432 -1.24373,-0.43294c-0.3411,-0.29388 -0.51166,-0.81603 -0.51166,-1.56647zM243.43158,180.48411c0.16269,0 0.2965,0.0656 0.40146,0.1968c0.11021,0.12595 0.16531,0.25453 0.16531,0.38572c0,0.36735 -0.21778,0.73731 -0.65335,1.10992c-0.43556,0.37259 -1.0207,0.5589 -1.75539,0.5589c-0.88163,0 -1.5481,-0.24928 -1.99941,-0.74782c-0.44607,-0.50379 -0.66909,-1.15714 -0.66909,-1.96006c0,-0.80817 0.23352,-1.46939 0.70058,-1.98368c0.46705,-0.51429 1.1309,-0.77142 1.99155,-0.77142c0.66647,0 1.2175,0.1758 1.65306,0.52741c0.44081,0.34635 0.66123,0.69009 0.66123,1.0312c0,0.16269 -0.06035,0.29913 -0.18105,0.40933c-0.11545,0.11021 -0.25189,0.16531 -0.40933,0.16531c-0.19941,0 -0.35422,-0.08397 -0.46443,-0.2519c-0.24665,-0.37259 -0.46443,-0.60874 -0.65335,-0.70845c-0.18892,-0.09971 -0.39359,-0.14956 -0.61399,-0.14956c-0.43032,0 -0.76355,0.16531 -0.99971,0.49592c-0.2309,0.32537 -0.34635,0.73469 -0.34635,1.22798c0,0.50379 0.1207,0.91574 0.3621,1.23586c0.24665,0.32012 0.57463,0.48018 0.98396,0.48018c0.2309,0 0.44344,-0.0551 0.63761,-0.16531c0.19941,-0.11021 0.36998,-0.27551 0.51167,-0.49591c0.14169,-0.22566 0.25452,-0.38047 0.33849,-0.46443c0.08397,-0.08397 0.1968,-0.12595 0.33849,-0.12595zM248.56099,181.97186c-0.63499,0.50904 -1.25948,0.76356 -1.87347,0.76356c-0.5825,0 -1.03119,-0.14694 -1.34606,-0.44082c-0.30962,-0.29913 -0.46443,-0.66122 -0.46443,-1.0863c0,-0.36735 0.10496,-0.66123 0.31487,-0.88163c0.21516,-0.22566 0.44607,-0.38309 0.69271,-0.4723c0.25189,-0.08921 0.6586,-0.19154 1.22012,-0.307c0.56152,-0.11545 1.01546,-0.22303 1.36181,-0.32274c-0.00525,-0.40933 -0.08659,-0.68484 -0.24402,-0.82653c-0.15743,-0.14169 -0.39621,-0.21253 -0.71633,-0.21253c-0.60874,0 -1.00758,0.17056 -1.1965,0.51166c-0.10495,0.19417 -0.19942,0.33324 -0.28339,0.4172c-0.07871,0.07871 -0.19417,0.11808 -0.34635,0.11808c-0.14169,0 -0.27026,-0.0446 -0.38571,-0.13381c-0.11545,-0.09446 -0.17318,-0.21778 -0.17318,-0.36997c0,-0.34635 0.18892,-0.67435 0.56677,-0.98397c0.37785,-0.31487 0.97084,-0.4723 1.77901,-0.4723c0.81866,0 1.41691,0.14169 1.79475,0.42507c0.38309,0.28338 0.56414,0.8554 0.54315,1.71604l-0.03149,1.25948c-0.01049,0.39359 0.02886,0.71371 0.11808,0.96035c0.09446,0.2414 0.14169,0.42769 0.14169,0.55889c0,0.14169 -0.06297,0.26764 -0.18892,0.37785c-0.1207,0.11021 -0.25977,0.16531 -0.4172,0.16531c-0.27289,0 -0.56152,-0.25452 -0.86589,-0.76355zM248.4744,180.02755c-0.19941,0.07871 -0.53003,0.16531 -0.99184,0.25977c-0.46181,0.08921 -0.78979,0.19417 -0.98396,0.31487c-0.18892,0.11545 -0.28339,0.28864 -0.28339,0.51954c0,0.18892 0.0761,0.35947 0.22828,0.51166c0.15219,0.14694 0.36998,0.22041 0.65336,0.22041c0.29388,0 0.56677,-0.08134 0.81866,-0.24402c0.25715,-0.16269 0.41457,-0.35423 0.4723,-0.57464c0.05773,-0.22566 0.0866,-0.56151 0.0866,-1.00758zM255.89449,179.41355v2.20409c0,0.28863 -0.01313,0.49854 -0.03936,0.62973c-0.02099,0.12595 -0.09183,0.23878 -0.21253,0.33849c-0.11545,0.09971 -0.25189,0.14956 -0.40933,0.14956c-0.14694,0 -0.28338,-0.04461 -0.40933,-0.13382c-0.1207,-0.08921 -0.1968,-0.20204 -0.22828,-0.33848c-0.03149,-0.14169 -0.04723,-0.35685 -0.04723,-0.64548v-1.92857c0,-0.54053 -0.08134,-0.90263 -0.24402,-1.0863c-0.15743,-0.18892 -0.37785,-0.28338 -0.66123,-0.28338c-0.25189,0 -0.47493,0.07347 -0.66909,0.22041c-0.19417,0.14694 -0.33062,0.33324 -0.40933,0.5589c-0.07871,0.22041 -0.11808,0.59825 -0.11808,1.13352v1.38542c0,0.28338 -0.01049,0.49068 -0.03149,0.62187c-0.02099,0.12595 -0.09183,0.2414 -0.21253,0.34635c-0.1207,0.09971 -0.25977,0.14957 -0.4172,0.14957c-0.15219,0 -0.29125,-0.04461 -0.4172,-0.13382c-0.1207,-0.09446 -0.19417,-0.20729 -0.22041,-0.33848c-0.02624,-0.13644 -0.03936,-0.3516 -0.03936,-0.64548v-3.30613c0,-0.29913 0.01312,-0.50641 0.03936,-0.62186c0.03149,-0.1207 0.10234,-0.22041 0.21254,-0.29913c0.11545,-0.07871 0.24403,-0.11807 0.38572,-0.11807c0.13119,0 0.26763,0.05248 0.40932,0.15744c0.14169,0.09971 0.21254,0.34898 0.21254,0.74782c0.45131,-0.6035 1.02858,-0.90525 1.73178,-0.90525c0.26764,0 0.53265,0.05248 0.79504,0.15743c0.26239,0.09971 0.47493,0.26238 0.63762,0.48804c0.16793,0.22566 0.27026,0.46181 0.307,0.70846c0.03673,0.24665 0.0551,0.50904 0.0551,0.78717zM261.25611,178.66574c0,0.17318 0.08922,0.30962 0.26764,0.40933c0.17843,0.09971 0.5825,0.22566 1.21224,0.37785c1.21749,0.29913 1.82624,0.80554 1.82624,1.51924c0,0.57201 -0.20729,1.01021 -0.62187,1.31458c-0.40933,0.29913 -0.98134,0.44869 -1.71603,0.44869c-0.75043,0 -1.31457,-0.15481 -1.69242,-0.46443c-0.37784,-0.30962 -0.56676,-0.63761 -0.56676,-0.98397c0,-0.14694 0.05248,-0.27289 0.15743,-0.37784c0.10496,-0.10495 0.23353,-0.15743 0.38572,-0.15743c0.20992,0 0.39358,0.13119 0.55102,0.39359c0.17843,0.28863 0.37259,0.48018 0.58251,0.57464c0.21516,0.09446 0.44344,0.14169 0.68484,0.14169c0.27289,0 0.49329,-0.06035 0.66123,-0.18105c0.16793,-0.1207 0.25189,-0.27289 0.25189,-0.45656c0,-0.16793 -0.07085,-0.31224 -0.21254,-0.43294c-0.14169,-0.1207 -0.53266,-0.25452 -1.17289,-0.40145c-0.63498,-0.14694 -1.09941,-0.35161 -1.39329,-0.614c-0.29388,-0.26764 -0.44082,-0.5825 -0.44082,-0.9446c0,-0.40933 0.17843,-0.77143 0.53528,-1.0863c0.35685,-0.31487 0.89213,-0.4723 1.60583,-0.4723c0.65073,0 1.16764,0.13382 1.55073,0.40146c0.38833,0.26239 0.58251,0.53528 0.58251,0.81866c0,0.15219 -0.04986,0.28075 -0.14956,0.38572c-0.09446,0.10495 -0.22827,0.15743 -0.40145,0.15743c-0.26239,0 -0.49854,-0.14956 -0.70846,-0.44868c-0.20466,-0.29913 -0.51691,-0.44869 -0.93673,-0.44869c-0.22566,0 -0.42244,0.04723 -0.59037,0.14169c-0.16793,0.08921 -0.25189,0.21778 -0.25189,0.38572zM265.9142,177.39052v-0.81078c0,-0.33061 0.01312,-0.55364 0.03936,-0.66909c0.03148,-0.1207 0.10496,-0.22828 0.22041,-0.32274c0.11545,-0.09446 0.25189,-0.14169 0.40933,-0.14169c0.14694,0 0.27813,0.04198 0.39358,0.12595c0.11545,0.08397 0.19155,0.18892 0.22828,0.31487c0.03674,0.1207 0.0551,0.31749 0.0551,0.59038v0.91312h0.25977c0.33061,0 0.5484,0.03937 0.65336,0.11808c0.11021,0.07871 0.16531,0.1968 0.16531,0.35423c0,0.33061 -0.27551,0.49592 -0.82653,0.49592h-0.25189v2.47959c0,0.33586 0.02362,0.56414 0.07085,0.68484c0.04723,0.1207 0.17318,0.18105 0.37784,0.18105c0.09971,0 0.20991,-0.01312 0.33061,-0.03935c0.12595,-0.03149 0.21778,-0.04723 0.27551,-0.04723c0.13644,0 0.24665,0.0446 0.33062,0.13382c0.08396,0.08921 0.12595,0.1968 0.12595,0.32275c0,0.44081 -0.46443,0.66122 -1.39329,0.66122c-0.45131,0 -0.78192,-0.08396 -0.99183,-0.25189c-0.20992,-0.16793 -0.34111,-0.36997 -0.39359,-0.60612c-0.05248,-0.2414 -0.07871,-0.55627 -0.07871,-0.94461v-2.57405h-0.17318c-0.39884,0 -0.59825,-0.16268 -0.59825,-0.48804c0,-0.32012 0.20992,-0.48018 0.62974,-0.48018zM269.93764,175.336c0.17843,0 0.33061,0.0656 0.45656,0.19679c0.12595,0.13119 0.18892,0.28338 0.18892,0.45656c0,0.17843 -0.06297,0.33324 -0.18892,0.46444c-0.12595,0.12595 -0.27814,0.18892 -0.45656,0.18892c-0.17843,0 -0.33324,-0.06297 -0.46443,-0.18892c-0.12595,-0.13119 -0.18892,-0.28601 -0.18892,-0.46443c0,-0.17843 0.06297,-0.33061 0.18892,-0.45656c0.13119,-0.13119 0.28601,-0.19679 0.46443,-0.19679zM270.60674,178.36661v3.25102c0,0.32537 -0.01575,0.54839 -0.04723,0.6691c-0.02623,0.11545 -0.10233,0.2204 -0.22828,0.31486c-0.1207,0.08921 -0.2519,0.13383 -0.39359,0.13383c-0.14169,0 -0.27551,-0.04461 -0.40145,-0.13382c-0.12595,-0.09446 -0.20467,-0.20203 -0.23615,-0.32273c-0.02623,-0.1207 -0.03936,-0.3411 -0.03936,-0.66123v-3.24315c0,-0.29388 0.01049,-0.50116 0.03149,-0.62186c0.02623,-0.12595 0.0997,-0.23615 0.2204,-0.33061c0.1207,-0.09971 0.25977,-0.14956 0.41721,-0.14956c0.15744,0 0.29388,0.04461 0.40933,0.13382c0.11545,0.08397 0.18892,0.19418 0.22041,0.33061c0.03148,0.13119 0.04723,0.3411 0.04723,0.62973zM273.33724,176.38294v5.2347c0,0.32537 -0.01575,0.54839 -0.04723,0.6691c-0.02623,0.11545 -0.10233,0.2204 -0.22827,0.31486c-0.1207,0.08921 -0.2519,0.13383 -0.39359,0.13383c-0.14169,0 -0.27551,-0.04461 -0.40145,-0.13382c-0.12595,-0.09446 -0.20467,-0.20203 -0.23615,-0.32273c-0.02623,-0.1207 -0.03936,-0.3411 -0.03936,-0.66123v-5.2347c0,-0.33061 0.01575,-0.55364 0.04723,-0.66909c0.03148,-0.1207 0.10757,-0.22304 0.22828,-0.307c0.1207,-0.08921 0.2519,-0.13382 0.39359,-0.13382c0.16269,0 0.30174,0.04723 0.4172,0.14169c0.1207,0.09446 0.19418,0.20467 0.22041,0.33061c0.02623,0.12595 0.03936,0.33848 0.03936,0.63761zM276.06774,176.38294v5.2347c0,0.32537 -0.01575,0.54839 -0.04723,0.6691c-0.02623,0.11545 -0.10233,0.2204 -0.22828,0.31486c-0.1207,0.08921 -0.2519,0.13383 -0.39359,0.13383c-0.14169,0 -0.27551,-0.04461 -0.40145,-0.13382c-0.12595,-0.09446 -0.20467,-0.20203 -0.23615,-0.32273c-0.02623,-0.1207 -0.03936,-0.3411 -0.03936,-0.66123v-5.2347c0,-0.33061 0.01575,-0.55364 0.04723,-0.66909c0.03148,-0.1207 0.10758,-0.22304 0.22828,-0.307c0.1207,-0.08921 0.2519,-0.13382 0.39359,-0.13382c0.16269,0 0.30175,0.04723 0.4172,0.14169c0.1207,0.09446 0.19417,0.20467 0.22041,0.33061c0.02623,0.12595 0.03936,0.33848 0.03936,0.63761zM281.46675,178.66574c0,0.17318 0.08922,0.30962 0.26764,0.40933c0.17843,0.09971 0.5825,0.22566 1.21224,0.37785c1.21749,0.29913 1.82624,0.80554 1.82624,1.51924c0,0.57201 -0.20729,1.01021 -0.62187,1.31458c-0.40933,0.29913 -0.98134,0.44869 -1.71603,0.44869c-0.75043,0 -1.31457,-0.15481 -1.69241,-0.46443c-0.37784,-0.30962 -0.56677,-0.63761 -0.56677,-0.98397c0,-0.14694 0.05248,-0.27289 0.15744,-0.37784c0.10496,-0.10495 0.23352,-0.15743 0.38572,-0.15743c0.20992,0 0.39358,0.13119 0.55102,0.39359c0.17843,0.28863 0.37259,0.48018 0.58251,0.57464c0.21516,0.09446 0.44344,0.14169 0.68484,0.14169c0.27289,0 0.49329,-0.06035 0.66123,-0.18105c0.16793,-0.1207 0.25189,-0.27289 0.25189,-0.45656c0,-0.16793 -0.07085,-0.31224 -0.21254,-0.43294c-0.14169,-0.1207 -0.53265,-0.25452 -1.17288,-0.40145c-0.63498,-0.14694 -1.09942,-0.35161 -1.39329,-0.614c-0.29388,-0.26764 -0.44082,-0.5825 -0.44082,-0.9446c0,-0.40933 0.17843,-0.77143 0.53528,-1.0863c0.35685,-0.31487 0.89213,-0.4723 1.60584,-0.4723c0.65073,0 1.16764,0.13382 1.55073,0.40146c0.38833,0.26239 0.58251,0.53528 0.58251,0.81866c0,0.15219 -0.04986,0.28075 -0.14956,0.38572c-0.09446,0.10495 -0.22827,0.15743 -0.40145,0.15743c-0.26239,0 -0.49854,-0.14956 -0.70846,-0.44868c-0.20466,-0.29913 -0.51691,-0.44869 -0.93673,-0.44869c-0.22566,0 -0.42245,0.04723 -0.59038,0.14169c-0.16793,0.08921 -0.25189,0.21778 -0.25189,0.38572zM289.29715,181.97186c-0.63498,0.50904 -1.25948,0.76356 -1.87347,0.76356c-0.58251,0 -1.03119,-0.14694 -1.34606,-0.44082c-0.30962,-0.29913 -0.46443,-0.66122 -0.46443,-1.0863c0,-0.36735 0.10496,-0.66123 0.31487,-0.88163c0.21516,-0.22566 0.44606,-0.38309 0.69271,-0.4723c0.25189,-0.08921 0.6586,-0.19154 1.22012,-0.307c0.56151,-0.11545 1.01545,-0.22303 1.36181,-0.32274c-0.00525,-0.40933 -0.08658,-0.68484 -0.24402,-0.82653c-0.15744,-0.14169 -0.39621,-0.21253 -0.71633,-0.21253c-0.60874,0 -1.00758,0.17056 -1.1965,0.51166c-0.10496,0.19417 -0.19942,0.33324 -0.28338,0.4172c-0.07871,0.07871 -0.19417,0.11808 -0.34636,0.11808c-0.14169,0 -0.27026,-0.0446 -0.38572,-0.13381c-0.11545,-0.09446 -0.17317,-0.21778 -0.17317,-0.36997c0,-0.34635 0.18892,-0.67435 0.56676,-0.98397c0.37784,-0.31487 0.97084,-0.4723 1.77901,-0.4723c0.81866,0 1.41691,0.14169 1.79476,0.42507c0.38309,0.28338 0.56414,0.8554 0.54315,1.71604l-0.03149,1.25948c-0.01049,0.39359 0.02886,0.71371 0.11808,0.96035c0.09446,0.2414 0.14169,0.42769 0.14169,0.55889c0,0.14169 -0.06297,0.26764 -0.18892,0.37785c-0.1207,0.11021 -0.25976,0.16531 -0.4172,0.16531c-0.27289,0 -0.56151,-0.25452 -0.86588,-0.76355zM289.21056,180.02755c-0.19941,0.07871 -0.53002,0.16531 -0.99183,0.25977c-0.46181,0.08921 -0.7898,0.19417 -0.98397,0.31487c-0.18892,0.11545 -0.28338,0.28864 -0.28338,0.51954c0,0.18892 0.07609,0.35947 0.22828,0.51166c0.15218,0.14694 0.36998,0.22041 0.65336,0.22041c0.29388,0 0.56676,-0.08134 0.81866,-0.24402c0.25714,-0.16269 0.41458,-0.35423 0.47231,-0.57464c0.05773,-0.22566 0.08659,-0.56151 0.08659,-1.00758zM292.97915,181.83017v0.13382c0,0.51429 -0.22041,0.77143 -0.66123,0.77143c-0.17318,0 -0.3175,-0.04461 -0.43295,-0.13382c-0.11545,-0.08921 -0.18629,-0.19679 -0.21253,-0.32273c-0.021,-0.12595 -0.03149,-0.32536 -0.03149,-0.59825v-5.2898c0,-0.30437 0.01312,-0.52479 0.03936,-0.66123c0.03148,-0.14169 0.10758,-0.2519 0.22829,-0.33061c0.12595,-0.08397 0.25977,-0.12595 0.40146,-0.12595c0.19941,0 0.35948,0.06035 0.48018,0.18105c0.12595,0.11545 0.18892,0.41458 0.18892,0.89738v1.73965c0.50379,-0.54577 1.09417,-0.81866 1.77114,-0.81866c0.69796,0 1.24373,0.24927 1.63732,0.74782c0.39358,0.49329 0.59038,1.12828 0.59038,1.90496c0,0.82915 -0.20204,1.50612 -0.60612,2.0309c-0.40408,0.51953 -0.94986,0.7793 -1.63732,0.7793c-0.70321,0 -1.28833,-0.30175 -1.75539,-0.90525zM293.04999,180.05904c0,0.51953 0.12595,0.92361 0.37785,1.21224c0.25189,0.28863 0.56676,0.43295 0.9446,0.43295c0.32536,0 0.614,-0.13907 0.86589,-0.4172c0.25714,-0.27813 0.38572,-0.71895 0.38572,-1.32245c0,-0.51953 -0.11545,-0.92623 -0.34636,-1.22011c-0.2309,-0.29913 -0.53003,-0.44869 -0.89738,-0.44869c-0.40408,0 -0.72682,0.16006 -0.96822,0.48018c-0.2414,0.32012 -0.3621,0.74782 -0.3621,1.2831zM300.40218,177.27245c0.83441,0 1.49038,0.25714 1.96793,0.77142c0.47755,0.50904 0.71633,1.1624 0.71633,1.96007c0,0.79766 -0.2414,1.45364 -0.7242,1.96793c-0.4828,0.50904 -1.12304,0.76356 -1.9207,0.76356c-0.86589,0 -1.53498,-0.25977 -2.00728,-0.7793c-0.47231,-0.51953 -0.70846,-1.17026 -0.70846,-1.95218c0,-0.79766 0.23878,-1.45102 0.71633,-1.96006c0.47755,-0.51429 1.1309,-0.77142 1.96006,-0.77142zM300.40218,181.73571c0.40933,0 0.73208,-0.15219 0.96823,-0.45656c0.23615,-0.30962 0.35423,-0.73469 0.35423,-1.27522c0,-0.54577 -0.11807,-0.97084 -0.35422,-1.27522c-0.23615,-0.30962 -0.55889,-0.46443 -0.96822,-0.46443c-0.39884,0 -0.71895,0.15481 -0.96035,0.46443c-0.23615,0.30962 -0.35422,0.7347 -0.35422,1.27522c0,0.54053 0.11808,0.96559 0.35423,1.27521c0.23615,0.30437 0.55627,0.45656 0.96035,0.45656zM304.36264,177.39052v-0.81078c0,-0.33061 0.01312,-0.55364 0.03936,-0.66909c0.03148,-0.1207 0.10496,-0.22828 0.22041,-0.32274c0.11545,-0.09446 0.25189,-0.14169 0.40933,-0.14169c0.14694,0 0.27813,0.04198 0.39358,0.12595c0.11545,0.08397 0.19155,0.18892 0.22829,0.31487c0.03674,0.1207 0.0551,0.31749 0.0551,0.59038v0.91312h0.25977c0.33061,0 0.5484,0.03937 0.65336,0.11808c0.11021,0.07871 0.1653,0.1968 0.1653,0.35423c0,0.33061 -0.27551,0.49592 -0.82653,0.49592h-0.25189v2.47959c0,0.33586 0.02361,0.56414 0.07084,0.68484c0.04723,0.1207 0.17318,0.18105 0.37785,0.18105c0.09971,0 0.20991,-0.01312 0.33061,-0.03935c0.12595,-0.03149 0.21778,-0.04723 0.27551,-0.04723c0.13644,0 0.24665,0.0446 0.33061,0.13382c0.08396,0.08921 0.12595,0.1968 0.12595,0.32275c0,0.44081 -0.46443,0.66122 -1.3933,0.66122c-0.45131,0 -0.78192,-0.08396 -0.99183,-0.25189c-0.20992,-0.16793 -0.3411,-0.36997 -0.39358,-0.60612c-0.05248,-0.2414 -0.07872,-0.55627 -0.07872,-0.94461v-2.57405h-0.17318c-0.39884,0 -0.59825,-0.16268 -0.59825,-0.48804c0,-0.32012 0.20992,-0.48018 0.62974,-0.48018zM311.10182,181.97186c-0.63498,0.50904 -1.25948,0.76356 -1.87347,0.76356c-0.58251,0 -1.0312,-0.14694 -1.34607,-0.44082c-0.30962,-0.29913 -0.46443,-0.66122 -0.46443,-1.0863c0,-0.36735 0.10495,-0.66123 0.31487,-0.88163c0.21516,-0.22566 0.44607,-0.38309 0.69271,-0.4723c0.25189,-0.08921 0.6586,-0.19154 1.22012,-0.307c0.56151,-0.11545 1.01545,-0.22303 1.36181,-0.32274c-0.00525,-0.40933 -0.08658,-0.68484 -0.24402,-0.82653c-0.15744,-0.14169 -0.39621,-0.21253 -0.71633,-0.21253c-0.60874,0 -1.00758,0.17056 -1.1965,0.51166c-0.10496,0.19417 -0.19941,0.33324 -0.28338,0.4172c-0.07871,0.07871 -0.19418,0.11808 -0.34636,0.11808c-0.14169,0 -0.27026,-0.0446 -0.38571,-0.13381c-0.11545,-0.09446 -0.17318,-0.21778 -0.17318,-0.36997c0,-0.34635 0.18892,-0.67435 0.56677,-0.98397c0.37784,-0.31487 0.97084,-0.4723 1.77901,-0.4723c0.81866,0 1.41691,0.14169 1.79476,0.42507c0.38309,0.28338 0.56414,0.8554 0.54315,1.71604l-0.03149,1.25948c-0.01049,0.39359 0.02886,0.71371 0.11808,0.96035c0.09446,0.2414 0.14169,0.42769 0.14169,0.55889c0,0.14169 -0.06297,0.26764 -0.18892,0.37785c-0.1207,0.11021 -0.25977,0.16531 -0.4172,0.16531c-0.27289,0 -0.56151,-0.25452 -0.86589,-0.76355zM311.01523,180.02755c-0.19941,0.07871 -0.53002,0.16531 -0.99183,0.25977c-0.46181,0.08921 -0.7898,0.19417 -0.98397,0.31487c-0.18892,0.11545 -0.28338,0.28864 -0.28338,0.51954c0,0.18892 0.07609,0.35947 0.22828,0.51166c0.15218,0.14694 0.36997,0.22041 0.65335,0.22041c0.29388,0 0.56677,-0.08134 0.81866,-0.24402c0.25714,-0.16269 0.41458,-0.35423 0.47231,-0.57464c0.05773,-0.22566 0.08659,-0.56151 0.08659,-1.00758zM317.24767,178.18557v-0.18105c0,-0.2414 0.05773,-0.42245 0.17318,-0.54315c0.1207,-0.12595 0.27289,-0.18892 0.45656,-0.18892c0.20466,0 0.3621,0.07085 0.4723,0.21254c0.11021,0.14169 0.16531,0.44868 0.16531,0.92099v3.60525c0,1.07056 -0.22566,1.7895 -0.67697,2.15685c-0.45131,0.37259 -1.10204,0.5589 -1.95219,0.5589c-0.76618,0 -1.36443,-0.14169 -1.79475,-0.42507c-0.43032,-0.28338 -0.64548,-0.58251 -0.64548,-0.89738c0,-0.16793 0.0551,-0.30437 0.16531,-0.40932c0.11545,-0.10495 0.25189,-0.15744 0.40933,-0.15744c0.14169,0 0.25189,0.03411 0.33061,0.10234c0.08396,0.06823 0.22566,0.22828 0.42508,0.48018c0.20466,0.25189 0.54315,0.37785 1.01545,0.37785c0.26239,0 0.50641,-0.04199 0.73207,-0.12595c0.22566,-0.07871 0.39096,-0.22303 0.49592,-0.43294c0.11021,-0.20467 0.16007,-0.71108 0.14957,-1.51924c-0.40933,0.593 -0.96822,0.88951 -1.67667,0.88951c-0.68746,0 -1.23062,-0.25715 -1.62945,-0.77143c-0.39884,-0.51429 -0.59825,-1.17027 -0.59825,-1.96793c0,-0.79766 0.20466,-1.43003 0.61399,-1.89708c0.40933,-0.46705 0.94198,-0.70058 1.59796,-0.70058c0.71895,0 1.30933,0.30438 1.77114,0.91312zM314.62639,179.98032c0,0.51953 0.11282,0.91575 0.33848,1.18864c0.22566,0.27289 0.5379,0.40933 0.93674,0.40933c0.34636,0 0.64285,-0.1312 0.8895,-0.39359c0.25189,-0.26764 0.37785,-0.66647 0.37785,-1.1965c0,-0.51953 -0.11546,-0.93149 -0.34636,-1.23586c-0.2309,-0.30437 -0.54315,-0.45656 -0.93673,-0.45656c-0.38309,0 -0.69009,0.14432 -0.92099,0.43295c-0.22566,0.28338 -0.33848,0.70058 -0.33848,1.2516zM323.35711,180.33454h-2.63702c0.01574,0.49854 0.15219,0.87376 0.40933,1.12566c0.26239,0.25189 0.57726,0.37784 0.94461,0.37784c0.44606,0 0.86851,-0.19679 1.26735,-0.59037c0.16269,-0.16269 0.28076,-0.26239 0.35423,-0.29913c0.07871,-0.04198 0.16531,-0.06297 0.25977,-0.06297c0.1207,0 0.22303,0.03937 0.307,0.11808c0.08921,0.07347 0.13382,0.1653 0.13382,0.27551c0,0.30437 -0.20729,0.62449 -0.62187,0.96035c-0.40933,0.33061 -0.96821,0.49592 -1.67667,0.49592c-0.89738,0 -1.57959,-0.25452 -2.04665,-0.76355c-0.46181,-0.50904 -0.69271,-1.16502 -0.69271,-1.96793c0,-0.81341 0.2309,-1.47201 0.69271,-1.9758c0.46706,-0.50379 1.11516,-0.75568 1.94432,-0.75568c0.78717,0 1.39592,0.23878 1.82623,0.71633c0.43032,0.47231 0.64549,0.98658 0.64549,1.54286c0,0.24665 -0.07085,0.44344 -0.21254,0.59038c-0.14169,0.14169 -0.44081,0.21254 -0.89737,0.21254zM320.72008,179.57099h2.4481c-0.01574,-0.44607 -0.13906,-0.78717 -0.36996,-1.02332c-0.2309,-0.23615 -0.51428,-0.35423 -0.85014,-0.35423c-0.71371,0 -1.12304,0.45918 -1.22799,1.37756zM325.98528,181.24766c0.19941,0 0.36998,0.07347 0.51166,0.22041c0.14694,0.14169 0.22041,0.31486 0.22041,0.51953c0,0.19941 -0.07347,0.37522 -0.22041,0.52741c-0.14169,0.14694 -0.31225,0.22041 -0.51166,0.22041c-0.20466,0 -0.38047,-0.07347 -0.5274,-0.22041c-0.14694,-0.14694 -0.22041,-0.32274 -0.22041,-0.5274c0,-0.20467 0.07347,-0.37784 0.22041,-0.51953c0.14694,-0.14694 0.32274,-0.22041 0.5274,-0.22041z"/></g></g></svg>