<svg version="1.1" xmlns="http://www.w3.org/2000/svg" xmlns:xlink="http://www.w3.org/1999/xlink" width="304.3003" height="304.30025" viewBox="0,0,304.3003,304.30025"><defs><linearGradient x1="235.74607" y1="214.81283" x2="235.74607" y2="270.57482" gradientUnits="userSpaceOnUse" id="color-1"><stop offset="0" stop-color="#3b3b3b" stop-opacity="0"/><stop offset="1" stop-color="#3b3b3b"/></linearGradient><linearGradient x1="235.74603" y1="270.57485" x2="235.74603" y2="214.81285" gradientUnits="userSpaceOnUse" id="color-2"><stop offset="0" stop-color="#3b3b3b" stop-opacity="0"/><stop offset="1" stop-color="#3b3b3b"/></linearGradient></defs><g transform="translate(-87.84985,-27.84987)"><g data-paper-data="{&quot;isPaintingLayer&quot;:true}" fill-rule="nonzero" stroke-linecap="butt" stroke-linejoin="miter" stroke-miterlimit="10" stroke-dasharray="" stroke-dashoffset="0" style="mix-blend-mode: normal"><path d="M89.84985,270.23517c0,-59.99896 0,-148.11906 0,-181.81815c0,-26.16557 22.73163,-58.56714 54.69562,-58.56714c60.91162,0 155.35022,0 189.899,0c25.1397,0 55.70568,31.10369 55.70568,56.54696c0,34.37139 0,127.20919 0,187.87876c0,32.57375 -30.56593,55.87453 -55.70568,55.87453c-33.79375,0 -124.88841,0 -185.85858,0c-34.07175,0 -58.73599,-25.26921 -58.73599,-59.91496z" fill="#83a08b" stroke="#83a08b" stroke-width="4"/><g stroke-width="12.5"><path d="M324.4231,245.79171c0,15.39826 -34.99704,24.78312 -88.67704,24.78312c-53.68,0 -97.19624,-12.48274 -97.19624,-27.881c0,-15.39826 43.51624,-27.881 97.19624,-27.881c53.68,0 88.67704,15.58062 88.67704,30.97888z" fill="url(#color-1)" stroke="none"/><path d="M235.74603,270.57485c-53.68,0 -97.19624,-12.48274 -97.19624,-27.881c0,-15.39826 43.51624,-27.881 97.19624,-27.881c53.68,0 87.90258,14.80616 87.90258,30.20441c0,15.39826 -34.22258,25.55758 -87.90258,25.55758z" data-paper-data="{&quot;index&quot;:null}" fill="url(#color-2)" stroke="none"/><path d="M253.78702,84.40883c16.70982,-0.01752 26.00079,13.16794 34.87992,32.35311c3.37137,7.28454 10.17828,12.54436 12.7655,21.16456c5.7212,19.06238 -14.95235,24.44148 -12.93104,44.33657c0.84073,8.27501 14.40541,14.29412 16.96459,23.04773c2.55162,8.72775 -1.14384,17.37709 3.71319,26.08957c3.50088,6.27985 17.74414,12.1379 18.70645,16.76831c3.32741,16.01038 -12.45182,13.47463 -12.45182,13.47463c0,0 -35.53751,-8.65294 -71.59398,-10.70484c-32.47446,-1.84807 -31.26728,20.0371 -52.78728,11.91545c-6.74311,-2.54486 -5.46574,-7.16595 -22.38056,-22.60152c-8.03447,-7.33184 -19.2624,-9.41885 -21.23658,-14.00174c-2.77667,-6.4459 1.63311,-12.16178 4.16681,-15.57005c13.81301,-18.58066 30.9806,-8.96992 32.29677,-33.68924c4.05794,-76.21263 39.39522,-92.55055 69.88799,-92.58252z" fill="#2f7c52" stroke="none"/><path d="M257.71619,84.40883c14.78782,-0.01596 23.01012,11.98992 30.86793,29.45874c2.98359,6.63284 9.00756,11.42212 11.29717,19.27114c5.06314,17.35701 -13.23248,22.25489 -11.44369,40.37013c0.74403,7.53472 11.97401,17.66217 14.2388,25.63267c2.25813,7.94694 -0.2378,11.17566 4.06057,19.10873c3.09821,5.71804 7.95844,14.14991 8.81007,18.36607c2.94467,14.57807 -3.27486,9.17127 -3.27486,9.17127c0,0 -31.4499,-7.87882 -63.35908,-9.74717c-28.73917,-1.68273 -31.54321,18.24453 -50.58791,10.84947c-5.96751,-2.31719 -0.96471,-6.52487 -15.93394,-20.57954c-7.11033,-6.67592 -17.04679,-8.57622 -18.79391,-12.74912c-2.45729,-5.86923 1.44526,-11.07377 3.68754,-14.17711c12.22421,-16.9184 16.57453,-12.0398 17.73931,-34.54769c3.59119,-69.3945 45.7065,-80.39845 72.69191,-80.42754z" fill="#50a35b" stroke="none"/><path d="M253.78702,84.40881c16.7098,-0.01752 26.00079,13.16794 34.87994,32.35311c3.37137,7.28456 10.17828,12.54436 12.7655,21.16456c5.7212,19.06238 -14.95235,24.44148 -12.93107,44.33657c0.84073,8.27501 14.40541,14.29412 16.96461,23.04773c2.55162,8.72775 -1.14384,17.37709 3.71317,26.08957c3.50088,6.27985 17.74414,12.1379 18.70648,16.76831c3.32741,16.01038 -12.45182,13.47463 -12.45182,13.47463c0,0 -35.53751,-8.65291 -71.59396,-10.70484c-32.47446,-1.84807 -31.26728,20.0371 -52.78728,11.91548c-6.74311,-2.54484 -5.46574,-7.16597 -22.38056,-22.60152c-8.03447,-7.33184 -19.2624,-9.41885 -21.23656,-14.00174c-2.77667,-6.4459 1.63311,-12.16181 4.16681,-15.57005c13.81301,-18.58066 30.98062,-8.9699 32.29679,-33.68924c4.05794,-76.21261 39.3952,-92.55055 69.88799,-92.58254z" fill="none" stroke="#000000"/><path d="M303.08824,144.20723c0,19.03394 -17.85727,34.464 -39.88532,34.464c-12.15853,0 -25.14562,-1.98002 -32.46136,-9.39308c-5.93847,-6.01746 -7.42394,-16.54289 -7.42394,-25.07092c0,-19.03394 17.85727,-34.464 39.88532,-34.464c22.02805,0 39.88532,15.43006 39.88532,34.464z" fill="#ddecef" stroke="#000000"/><path d="M259.18536,137.23698c0,-8.12685 6.79399,-14.71496 15.17481,-14.71496c8.38082,0 15.17481,6.58812 15.17481,14.71496c0,8.12685 -6.79399,14.71496 -15.17481,14.71496c-8.38082,0 -15.17481,-6.58812 -15.17481,-14.71496z" fill="#000000" stroke="none"/></g></g></g></svg>