<svg version="1.1" xmlns="http://www.w3.org/2000/svg" xmlns:xlink="http://www.w3.org/1999/xlink" width="164.55469" height="143" viewBox="0,0,164.55469,143"><g transform="translate(-144,-114.4)"><g data-paper-data="{&quot;isPaintingLayer&quot;:true}" fill-rule="nonzero" stroke-linejoin="miter" stroke-miterlimit="10" stroke-dasharray="" stroke-dashoffset="0" style="mix-blend-mode: normal"><path d="M219.88438,179.37582l0.4,-17.90467c0,0 2.98888,0.25049 4.22116,0.39261c2.06729,0.23841 3.37884,1.14587 3.37884,3.07871c0,2.20516 -0.2,8.75372 -0.2,12.24095c0,1.72411 0.01543,3.24594 -2.4,3.28861c-3.49649,0.06177 -5.4,-1.0962 -5.4,-1.0962z" fill="#313b36" stroke="#f3e005" stroke-width="7.5" stroke-linecap="butt"/><path d="M197.25941,215.22973c0,-5.34301 0,-41.10348 0,-51.76392c0,-1.91945 1.56931,-2.61963 2.875,-2.61963c4.04889,0 12.02478,0 15.5,0c2.75964,0 6.6238,1.94611 6.622,4.82006c-0.00372,5.93818 -0.00999,16.68692 -0.01347,27.00335c-0.00402,11.88359 -0.00434,23.19354 0.00718,25.91628c0.00518,1.22439 -0.45876,1.94419 -1.59533,1.31269c-0.91335,-0.50747 -2.09696,-2.25876 -3.39538,-2.25876c-5.73916,0 -14.691,0 -17.25,0c-1.35646,0 -2.75,-1.08276 -2.75,-2.41007z" fill="#3d514b" stroke="#f3e005" stroke-width="7.5" stroke-linecap="butt"/><path d="M197.2594,162.98789c0,-1.93564 1.56931,-2.64172 2.875,-2.64172c4.04889,0 12.02477,0 15.5,0c2.75963,0 6.6238,1.96252 6.622,4.86071c-0.00372,5.98826 -0.00999,16.82765 -0.01347,27.23109c-0.00402,11.98381 -0.00434,23.38914 0.00718,26.13484c0.00518,1.23471 -0.45876,1.96058 -1.59533,1.32375c-0.91335,-0.51175 -2.09696,-2.27781 -3.39537,-2.27781c-5.73916,0 -14.691,0 -17.25,0c-1.35646,0 -2.75,-1.0919 -2.75,-2.43039c0,0 -0.00001,-41.45012 -0.00001,-52.20048z" fill="none" stroke="#f3e005" stroke-width="7.5" stroke-linecap="butt"/><path d="M202.1344,213.34617v-34.75h7.75v34.75z" fill="#215b4a" stroke="#f3e005" stroke-width="7.5" stroke-linecap="butt"/><path d="M202.6344,206.27117c0,0 0.63226,0.37819 1.70536,0.62409c0.82423,0.18887 3.68595,0.72591 3.68595,0.72591c0,0 -2.3259,1.4876 -3.07376,2.30034c-0.69797,0.75853 0.89984,3.54966 0.89984,3.54966" fill="none" stroke="#f3e005" stroke-width="7.5" stroke-linecap="round"/><path d="M208.29744,205.59615c0,0 -1.9075,-0.57178 -2.76386,-0.9295c-0.74361,-0.31062 -2.08397,-1.0955 -2.08397,-1.0955" fill="none" stroke="#f3e005" stroke-width="7.5" stroke-linecap="round"/><path d="M209.3844,201.54616c0,0 -2.38521,-0.84641 -3.4099,-1.21003c-0.84094,-0.29842 -3.20569,-2.09407 -3.16034,-2.61989c0.04522,-0.52418 0.63545,-2.92009 0.63545,-2.92009l5.11956,0.225" fill="none" stroke="#f3e005" stroke-width="7.5" stroke-linecap="round"/><path d="M208.23222,192.09615c0,0 -0.61947,-0.23581 -0.47791,-1.38783c0.15632,-1.27216 0.32607,-2.83846 0.34834,-3.79718c0.04756,-2.04783 -0.34868,-5.83999 -0.34868,-5.83999" fill="none" stroke="#f3e005" stroke-width="7.5" stroke-linecap="round"/><path d="M204.22135,179.72115c0,0 0.18666,3.24789 -0.04138,7.18231c-0.09448,1.63013 -1.20862,4.51769 -1.20862,4.51769" fill="none" stroke="#f3e005" stroke-width="7.5" stroke-linecap="round"/><path d="M204.76483,185.57116l1.90217,0.9" fill="none" stroke="#f3e005" stroke-width="7.5" stroke-linecap="round"/><path d="M206.12353,188.94616l-2.98913,-0.225" fill="none" stroke="#f3e005" stroke-width="7.5" stroke-linecap="round"/><path d="M207.48222,183.54616l-2.17391,-0.675" fill="none" stroke="#f3e005" stroke-width="7.5" stroke-linecap="round"/><path d="M202.1344,214.09615v-35h7.75v35z" fill="none" stroke="#f3e005" stroke-width="7.5" stroke-linecap="butt"/><path d="M201.60225,169.44751v-2.58034h2.77883v2.58034z" fill="#3f4d47" stroke="#f3e005" stroke-width="7.5" stroke-linecap="butt"/><path d="M205.77049,169.4475v-2.58034h2.77883v2.58034z" fill="#3f4d47" stroke="#f3e005" stroke-width="7.5" stroke-linecap="butt"/><path d="M209.82294,169.4475v-2.58034h2.77883v2.58034z" fill="#3f4d47" stroke="#f3e005" stroke-width="7.5" stroke-linecap="butt"/><path d="M201.60225,172.80526v-2.58034h2.77883v2.58034z" fill="#3f4d47" stroke="#f3e005" stroke-width="7.5" stroke-linecap="butt"/><path d="M205.77049,172.80526v-2.58034h2.77883v2.58034z" fill="#3f4d47" stroke="#f3e005" stroke-width="7.5" stroke-linecap="butt"/><path d="M209.82294,172.80526v-2.58034h2.77883v2.58034z" fill="#3f4d47" stroke="#f3e005" stroke-width="7.5" stroke-linecap="butt"/><path d="M201.60225,165.85819v-2.58034h2.77883v2.58034z" fill="#3f4d47" stroke="#f3e005" stroke-width="7.5" stroke-linecap="butt"/><path d="M205.77049,165.85817v-2.58034h2.77883v2.58034z" fill="#3f4d47" stroke="#f3e005" stroke-width="7.5" stroke-linecap="butt"/><path d="M209.82294,165.85817v-2.58034h2.77883v2.58034z" fill="#3f4d47" stroke="#f3e005" stroke-width="7.5" stroke-linecap="butt"/><path d="M201.60225,169.44751v-2.58034h2.77883v2.58034z" fill="#3f4d47" stroke="#f3e005" stroke-width="7.5" stroke-linecap="butt"/><path d="M205.77049,169.4475v-2.58034h2.77883v2.58034z" fill="#3f4d47" stroke="#f3e005" stroke-width="7.5" stroke-linecap="butt"/><path d="M209.82294,169.4475v-2.58034h2.77883v2.58034z" fill="#3f4d47" stroke="#f3e005" stroke-width="7.5" stroke-linecap="butt"/><path d="M201.60225,172.80526v-2.58034h2.77883v2.58034z" fill="#3f4d47" stroke="#f3e005" stroke-width="7.5" stroke-linecap="butt"/><path d="M205.77049,172.80526v-2.58034h2.77883v2.58034z" fill="#3f4d47" stroke="#f3e005" stroke-width="7.5" stroke-linecap="butt"/><path d="M209.82294,172.80526v-2.58034h2.77883v2.58034z" fill="#3f4d47" stroke="#f3e005" stroke-width="7.5" stroke-linecap="butt"/><path d="M218.13438,175.22115v-13c0,0 1.54706,0 2.25,0c0.61994,0 1.71509,1.07023 1.68627,2.49365c-0.04483,2.21346 -0.07495,5.28099 0.06373,6.50635c0.5,4.4177 -4,4 -4,4z" fill="#5a6c64" stroke="#f3e005" stroke-width="7.5" stroke-linecap="butt"/><path d="M214.88438,171.22115c0,-1.82506 0,-8 0,-8h4.14398c0,0 0,7.50655 0,9.25742c0,0.69345 -1.5414,1.23513 -2.25943,1.33675c-1.15665,0.16371 -1.88455,-1.64474 -1.88455,-2.59417z" fill="#0c221a" stroke="#f3e005" stroke-width="7.5" stroke-linecap="butt"/><path d="M198.55469,216.92195v-101h110v101z" fill="none" stroke="none" stroke-width="NaN" stroke-linecap="butt"/><path d="M215.55469,192.92195v-70h70v70z" fill="none" stroke="none" stroke-width="0" stroke-linecap="butt"/><path d="M219.88439,179.37584l0.4,-17.90467c0,0 2.98888,0.25049 4.22116,0.39261c2.06729,0.23842 3.37885,1.14587 3.37885,3.07871c0,2.20515 -0.2,8.75372 -0.2,12.24095c0,1.72412 0.01543,3.24595 -2.4,3.28861c-3.49649,0.06177 -5.4,-1.0962 -5.4,-1.0962z" fill="#313b36" stroke="#000000" stroke-width="2.5" stroke-linecap="butt"/><path d="M197.25941,215.22972c0,-5.34301 0,-41.10348 0,-51.76392c0,-1.91945 1.56931,-2.61963 2.875,-2.61963c4.04889,0 12.02478,0 15.5,0c2.75964,0 6.6238,1.94611 6.622,4.82006c-0.00372,5.93818 -0.00999,16.68692 -0.01347,27.00335c-0.00402,11.88359 -0.00434,23.19354 0.00718,25.91628c0.00518,1.22439 -0.45876,1.94419 -1.59533,1.31269c-0.91335,-0.50747 -2.09696,-2.25876 -3.39538,-2.25876c-5.73916,0 -14.691,0 -17.25,0c-1.35646,0 -2.75,-1.08276 -2.75,-2.41007z" fill="#3d514b" stroke="none" stroke-width="0" stroke-linecap="butt"/><path d="M197.6344,216.84617v-55.75h18.75v55.75z" fill="#5a6c64" stroke="none" stroke-width="0" stroke-linecap="butt"/><path d="M197.2594,162.98789c0,-1.93564 1.56931,-2.64172 2.875,-2.64172c4.04889,0 12.02477,0 15.5,0c2.75963,0 6.6238,1.96252 6.622,4.86071c-0.00372,5.98826 -0.00999,16.82765 -0.01347,27.23109c-0.00402,11.98381 -0.00434,23.38914 0.00718,26.13484c0.00518,1.23471 -0.45876,1.96058 -1.59533,1.32375c-0.91335,-0.51175 -2.09696,-2.27781 -3.39537,-2.27781c-5.73916,0 -14.691,0 -17.25,0c-1.35646,0 -2.75,-1.0919 -2.75,-2.43039c0,0 -0.00001,-41.45012 -0.00001,-52.20048z" fill="none" stroke="#000000" stroke-width="3.5" stroke-linecap="butt"/><path d="M202.1344,213.34617v-34.75h7.75v34.75z" fill="#215b4a" stroke="none" stroke-width="0" stroke-linecap="butt"/><g fill="none" stroke="#092b22" stroke-linecap="round"><path d="M202.6344,206.27117c0,0 0.63226,0.37819 1.70536,0.62409c0.82423,0.18887 3.68595,0.72591 3.68595,0.72591c0,0 -2.3259,1.4876 -3.07376,2.30034c-0.69797,0.75853 0.89984,3.54966 0.89984,3.54966" stroke-width="2.5"/><path d="M208.29744,205.59617c0,0 -1.9075,-0.57178 -2.76386,-0.9295c-0.74361,-0.31062 -2.08397,-1.0955 -2.08397,-1.0955" stroke-width="2.5"/><path d="M209.3844,201.54616c0,0 -2.38521,-0.84641 -3.4099,-1.21003c-0.84094,-0.29842 -3.20569,-2.09407 -3.16034,-2.61989c0.04522,-0.52418 0.63545,-2.92009 0.63545,-2.92009l5.11956,0.225" stroke-width="3"/><path d="M208.23222,192.09617c0,0 -0.61947,-0.23581 -0.47791,-1.38783c0.15632,-1.27216 0.32607,-2.83846 0.34834,-3.79718c0.04756,-2.04783 -0.34868,-5.83999 -0.34868,-5.83999" stroke-width="2.5"/><path d="M204.22135,179.72117c0,0 0.18666,3.24789 -0.04138,7.18231c-0.09448,1.63013 -1.20862,4.51769 -1.20862,4.51769" stroke-width="2.5"/><path d="M204.76483,185.57115l1.90217,0.9" stroke-width="2"/><path d="M206.12353,188.94616l-2.98913,-0.225" stroke-width="2.5"/><path d="M207.48222,183.54616l-2.17391,-0.675" stroke-width="2.5"/></g><path d="M202.1344,214.09617v-35h7.75v35z" fill="none" stroke="#000000" stroke-width="2" stroke-linecap="butt"/><path d="M198.3844,175.47117v-14.5c0,0 17.7242,0 21.5,0c1.35038,0 1.5,13.5 1.5,13.5c0,0 -1.41926,2 -3.5,2c-1.79642,0 -2.89956,-1 -4.5,-1c-4.39864,0 -15,0 -15,0z" fill="#5a6c64" stroke="#000000" stroke-width="2.5" stroke-linecap="butt"/><path d="M201.60225,169.4475v-2.58034h2.77883v2.58034z" fill="#3f4d47" stroke="none" stroke-width="6" stroke-linecap="butt"/><path d="M205.77049,169.4475v-2.58034h2.77883v2.58034z" fill="#3f4d47" stroke="none" stroke-width="6" stroke-linecap="butt"/><path d="M209.82294,169.4475v-2.58034h2.77883v2.58034z" fill="#3f4d47" stroke="none" stroke-width="6" stroke-linecap="butt"/><path d="M201.60225,172.80526v-2.58034h2.77883v2.58034z" fill="#3f4d47" stroke="none" stroke-width="6" stroke-linecap="butt"/><path d="M205.77049,172.80526v-2.58034h2.77883v2.58034z" fill="#3f4d47" stroke="none" stroke-width="6" stroke-linecap="butt"/><path d="M209.82294,172.80526v-2.58034h2.77883v2.58034z" fill="#3f4d47" stroke="none" stroke-width="6" stroke-linecap="butt"/><path d="M201.60225,165.85819v-2.58034h2.77883v2.58034z" fill="#3f4d47" stroke="none" stroke-width="0" stroke-linecap="butt"/><path d="M205.77049,165.85819v-2.58034h2.77883v2.58034z" fill="#3f4d47" stroke="none" stroke-width="0" stroke-linecap="butt"/><path d="M209.82294,165.85819v-2.58034h2.77883v2.58034z" fill="#3f4d47" stroke="none" stroke-width="0" stroke-linecap="butt"/><path d="M201.60225,169.4475v-2.58034h2.77883v2.58034z" fill="#3f4d47" stroke="none" stroke-width="0" stroke-linecap="butt"/><path d="M205.77049,169.4475v-2.58034h2.77883v2.58034z" fill="#3f4d47" stroke="none" stroke-width="0" stroke-linecap="butt"/><path d="M209.82294,169.4475v-2.58034h2.77883v2.58034z" fill="#3f4d47" stroke="none" stroke-width="0" stroke-linecap="butt"/><path d="M201.60225,172.80526v-2.58034h2.77883v2.58034z" fill="#3f4d47" stroke="none" stroke-width="0" stroke-linecap="butt"/><path d="M205.77049,172.80526v-2.58034h2.77883v2.58034z" fill="#3f4d47" stroke="none" stroke-width="0" stroke-linecap="butt"/><path d="M209.82294,172.80526v-2.58034h2.77883v2.58034z" fill="#3f4d47" stroke="none" stroke-width="0" stroke-linecap="butt"/><path d="M218.13439,175.22114v-13c0,0 1.54706,0 2.25,0c0.61993,0 1.71509,1.07023 1.68626,2.49365c-0.04483,2.21346 -0.07495,5.28099 0.06374,6.50635c0.5,4.4177 -4,4 -4,4z" fill="#5a6c64" stroke="none" stroke-width="0" stroke-linecap="butt"/><path d="M214.88439,171.22114c0,-1.82506 0,-8 0,-8h4.14397c0,0 0,7.50654 0,9.25742c0,0.69345 -1.5414,1.23513 -2.25943,1.33676c-1.15666,0.16371 -1.88455,-1.64475 -1.88455,-2.59418z" fill="#0c221a" stroke="#000000" stroke-width="1" stroke-linecap="butt"/><path d="M144,257.4v-143h140v143z" fill="none" stroke="none" stroke-width="0" stroke-linecap="butt"/></g></g></svg>