<svg version="1.1" xmlns="http://www.w3.org/2000/svg" xmlns:xlink="http://www.w3.org/1999/xlink" width="139.30282" height="38.63049" viewBox="0,0,139.30282,38.63049"><g transform="translate(-170.3486,-160.68476)"><g data-paper-data="{&quot;isPaintingLayer&quot;:true}" fill-rule="nonzero" stroke-linejoin="miter" stroke-miterlimit="10" stroke-dasharray="" stroke-dashoffset="0" style="mix-blend-mode: normal"><path d="M175.59861,191.29184c0,-6.09093 0,-20.31716 0,-23.11191c0,-0.91205 0.83323,-2.24516 2.04028,-2.24516c3.81375,0 24.93773,0 48.88177,0c30.84112,0 66.36093,0 75.59434,0c1.48164,0 2.28643,1.30927 2.28643,2.64136c0,3.14265 0,16.21313 0,22.3195c0,1.93416 -0.92569,3.16963 -2.61925,3.16963c-17.3663,0 -115.47439,0 -124.14329,0c-1.20705,0 -2.04028,-1.06771 -2.04028,-2.77343z" fill="#000000" stroke="#000000" stroke-width="10.5" stroke-linecap="butt"/><path d="M175.59861,191.29184c0,-6.09093 0,-20.31716 0,-23.11191c0,-0.91205 0.83323,-2.24516 2.04028,-2.24516c8.72604,0 108.07418,0 124.4761,0c1.48164,0 2.28643,1.30927 2.28643,2.64136c0,3.14265 0,16.21313 0,22.3195c0,1.93416 -0.92569,3.16963 -2.61925,3.16963c-17.3663,0 -115.47439,0 -124.14329,0c-1.20705,0 -2.04028,-1.06771 -2.04028,-2.77343z" fill="#000000" stroke="#00f000" stroke-width="5.5" stroke-linecap="butt"/><path d="M175.59861,191.29184c0,-6.09093 0,-20.31716 0,-23.11191c0,-0.91205 0.83323,-2.24516 2.04028,-2.24516c8.72604,0 108.07418,0 124.4761,0c1.48164,0 2.28643,1.30927 2.28643,2.64136c0,3.14265 0,16.21313 0,22.3195c0,1.93416 -0.92569,3.16963 -2.61925,3.16963c-17.3663,0 -115.47439,0 -124.14329,0c-1.20705,0 -2.04028,-1.06771 -2.04028,-2.77343z" fill="#000000" stroke="none" stroke-width="0" stroke-linecap="butt"/><path d="M232.63435,186.86203h-3.54429c-0.82079,0 -1.37294,-0.06217 -1.65649,-0.18654c-0.28355,-0.12437 -0.46759,-0.32085 -0.55217,-0.58947c-0.08456,-0.27359 -0.12685,-0.78596 -0.12685,-1.5371v-9.03605c0,-0.81083 0.0597,-1.35305 0.17909,-1.62664c0.11938,-0.27857 0.31587,-0.4651 0.58946,-0.55962c0.27857,-0.09451 0.80088,-0.14177 1.56695,-0.14177h3.79051c1.09438,0 1.93257,0.11938 2.51458,0.35816c0.58201,0.2338 1.07696,0.62429 1.48487,1.17148c0.4079,0.54719 0.61185,1.18142 0.61185,1.90272c0,1.37791 -0.68399,2.38026 -2.05195,3.00705c1.78582,0.50739 2.67873,1.61918 2.67873,3.33535c0,0.83073 -0.23132,1.56943 -0.69394,2.21611c-0.45765,0.64667 -1.04711,1.0894 -1.76841,1.32818c-0.72129,0.23878 -1.72862,0.35815 -3.02196,0.35815zM229.50792,175.32634v3.41743h2.57426c1.09438,0 1.81567,-0.16167 2.16388,-0.48501c0.35318,-0.32831 0.52978,-0.75362 0.52978,-1.27594c0,-0.51734 -0.18655,-0.92275 -0.55963,-1.21625c-0.37308,-0.29349 -1.18142,-0.44023 -2.42503,-0.44023zM232.42541,180.88526h-2.9175v3.84275h3.01451c1.0496,0 1.77587,-0.17411 2.1788,-0.52232c0.40293,-0.34821 0.6044,-0.82575 0.6044,-1.43264c0,-0.58201 -0.20892,-1.04214 -0.62677,-1.3804c-0.41288,-0.33827 -1.16403,-0.5074 -2.25342,-0.5074zM246.79095,185.6607c-1.21375,0.9551 -2.40265,1.43264 -3.56666,1.43264c-1.09934,0 -1.945,-0.27857 -2.53696,-0.8357c-0.58698,-0.56211 -0.88047,-1.2461 -0.88047,-2.05196c0,-0.69144 0.19897,-1.24858 0.59693,-1.67141c0.40293,-0.4278 0.84067,-0.72626 1.31324,-0.8954c0.47258,-0.16913 1.24113,-0.36313 2.30564,-0.58201c1.0695,-0.22385 1.93008,-0.4278 2.58174,-0.61185c-0.00498,-0.77104 -0.1567,-1.29086 -0.45516,-1.55948c-0.29846,-0.27359 -0.75362,-0.41038 -1.36548,-0.41038c-1.15407,0 -1.91017,0.32334 -2.26834,0.97001c-0.19897,0.36811 -0.37557,0.62927 -0.52978,0.78347c-0.15421,0.15421 -0.37805,0.23131 -0.67154,0.23131c-0.26862,0 -0.51237,-0.08705 -0.73124,-0.26116c-0.2139,-0.17908 -0.32085,-0.40789 -0.32085,-0.68647c0,-0.6616 0.35567,-1.28838 1.06701,-1.88033c0.71632,-0.59196 1.84303,-0.88793 3.38012,-0.88793c1.557,0 2.69615,0.26862 3.41744,0.80586c0.72129,0.53724 1.05955,1.62416 1.01478,3.26074l-0.05969,2.38772c-0.02488,0.73621 0.05224,1.33812 0.23132,1.80572c0.17908,0.46759 0.26862,0.82575 0.26862,1.07447c0,0.26862 -0.11938,0.50491 -0.35816,0.70886c-0.2338,0.20396 -0.49994,0.30593 -0.7984,0.30593c-0.51734,0 -1.06204,-0.47755 -1.63409,-1.43264zM246.61933,181.97466c-0.37805,0.14924 -1.00484,0.3109 -1.88033,0.48501c-0.87052,0.17411 -1.48735,0.37308 -1.85048,0.59692c-0.36313,0.22385 -0.54469,0.54967 -0.54469,0.97748c0,0.36811 0.14425,0.69144 0.43277,0.97001c0.28852,0.27857 0.69642,0.41786 1.22371,0.41786c0.56211,0 1.08193,-0.15172 1.55948,-0.45516c0.48252,-0.30842 0.7785,-0.67403 0.88793,-1.09686c0.11441,-0.42283 0.17162,-1.05458 0.17162,-1.89525zM259.75369,182.83275c0.31339,0 0.57205,0.12188 0.77601,0.36563c0.20396,0.23878 0.30592,0.48749 0.30592,0.74616c0,0.68648 -0.41289,1.38289 -1.23863,2.08926c-0.82576,0.70637 -1.93256,1.05956 -3.32042,1.05956c-1.67141,0 -2.93491,-0.47257 -3.79051,-1.41771c-0.85063,-0.95012 -1.27595,-2.18377 -1.27595,-3.70096c0,-1.5371 0.44023,-2.79315 1.32071,-3.76813c0.88545,-0.97499 2.14647,-1.46248 3.78306,-1.46248c1.26848,0 2.31808,0.33079 3.14882,0.99239c0.83073,0.6616 1.24609,1.31574 1.24609,1.96241c0,0.30842 -0.11192,0.56708 -0.33578,0.77601c-0.22384,0.20893 -0.48998,0.31339 -0.7984,0.31339c-0.37308,0 -0.66408,-0.15918 -0.87302,-0.47755c-0.46759,-0.70637 -0.88296,-1.15406 -1.2461,-1.34309c-0.35816,-0.18903 -0.74617,-0.28355 -1.16402,-0.28355c-0.81083,0 -1.43761,0.31339 -1.88034,0.94016c-0.44273,0.6218 -0.66408,1.39781 -0.66408,2.32803c0,0.96006 0.23132,1.74105 0.69394,2.34296c0.46262,0.6019 1.07944,0.90286 1.85048,0.90286c0.44273,0 0.85063,-0.10198 1.22371,-0.30592c0.37308,-0.20893 0.69393,-0.52232 0.96255,-0.94016c0.27359,-0.42283 0.48998,-0.71384 0.64916,-0.87302c0.15918,-0.16415 0.36811,-0.24623 0.62678,-0.24623zM267.15004,182.23581l-1.39533,1.30579v1.23863c0,0.6218 -0.02238,1.06453 -0.06716,1.32817c-0.0398,0.26364 -0.1741,0.49496 -0.40292,0.69394c-0.22882,0.194 -0.49993,0.29101 -0.81331,0.29101c-0.27857,0 -0.53227,-0.08456 -0.76109,-0.25369c-0.22882,-0.17411 -0.36811,-0.37806 -0.41785,-0.61186c-0.04974,-0.23878 -0.07462,-0.67651 -0.07462,-1.31324v-9.73744c0,-0.93022 0.11192,-1.53212 0.33578,-1.80572c0.22882,-0.27857 0.55962,-0.41786 0.99239,-0.41786c0.31836,0 0.57455,0.09203 0.76855,0.27607c0.19898,0.17908 0.32084,0.39547 0.36562,0.64916c0.04974,0.25369 0.07462,0.66409 0.07462,1.23117v5.6037l2.88019,-2.98466c0.44273,-0.45765 0.74617,-0.73621 0.91032,-0.8357c0.16415,-0.09949 0.35069,-0.14924 0.55962,-0.14924c0.33328,0 0.6044,0.10695 0.81332,0.32085c0.2139,0.20893 0.32085,0.43775 0.32085,0.68648c0,0.37805 -0.35318,0.8929 -1.05956,1.54456l-1.32817,1.23863l2.58919,4.10391c0.37308,0.59196 0.55962,1.02224 0.55962,1.29086c0,0.29349 -0.10695,0.56211 -0.32085,0.80586c-0.2139,0.23878 -0.50739,0.35816 -0.88047,0.35816c-0.31339,0 -0.56709,-0.09204 -0.76109,-0.27608c-0.18903,-0.18406 -0.4079,-0.48003 -0.65663,-0.88793z" fill="#00f000" stroke="none" stroke-width="1" stroke-linecap="square"/><g fill="#00f000" stroke="none" stroke-width="0" stroke-linecap="butt"><path d="M192.56947,190.33148l-9.9232,-9.4845l1.70005,-1.77868l9.9232,9.4845z"/><path d="M182.42444,180.65339l9.9232,-9.4845l1.70006,1.77869l-9.92321,9.4845z" data-paper-data="{&quot;index&quot;:null}"/></g></g></g></svg>