<svg version="1.1" xmlns="http://www.w3.org/2000/svg" xmlns:xlink="http://www.w3.org/1999/xlink" width="51.5" height="51.5" viewBox="0,0,51.5,51.5"><g transform="translate(-211.75,-150.95001)"><g data-paper-data="{&quot;isPaintingLayer&quot;:true}" fill-rule="nonzero" stroke-linecap="butt" stroke-linejoin="miter" stroke-miterlimit="10" stroke-dasharray="" stroke-dashoffset="0" style="mix-blend-mode: normal"><path d="M224.375,180.00003c0,-8.62945 6.99555,-15.625 15.625,-15.625c8.62945,0 15.625,6.99555 15.625,15.625c0,8.62945 -6.99555,15.625 -15.625,15.625c-8.62945,0 -15.625,-6.99555 -15.625,-15.625z" fill="#ffffff" stroke="#000000" stroke-width="7.5"/><path d="M224.375,180.00003c0,-8.62945 6.99555,-15.625 15.625,-15.625c8.62945,0 15.625,6.99555 15.625,15.625c0,8.62945 -6.99555,15.625 -15.625,15.625c-8.62945,0 -15.625,-6.99555 -15.625,-15.625z" fill="#f07173" stroke="#f0f0f0" stroke-width="3.5"/><path d="M211.75,202.45001v-51.5h51.5v51.5z" fill="none" stroke="none" stroke-width="0"/><path d="M223.3125,180c0,-9.21625 7.47125,-16.6875 16.6875,-16.6875c9.21625,0 16.6875,7.47125 16.6875,16.6875c0,9.21625 -7.47125,16.6875 -16.6875,16.6875c-9.21625,0 -16.6875,-7.47125 -16.6875,-16.6875z" fill="#ffffff" stroke="#cd3400" stroke-width="2"/><g fill="none" stroke="#cd3200" stroke-width="3.5"><path d="M230.37663,175.98163c2.20729,-1.57426 5.64017,-2.58582 9.49568,-2.58582c4.00756,0 7.5585,1.09292 9.75106,2.77467"/><path d="M233.92152,181.11281c1.40653,-1.00315 3.59402,-1.64774 6.05082,-1.64774c2.55369,0 4.81642,0.69643 6.21356,1.76808"/><path d="M236.98301,186.546c0.68016,-0.4851 1.73798,-0.7968 2.92603,-0.7968c1.23491,0 2.3291,0.33678 3.00473,0.855"/></g></g></g></svg>