<svg version="1.1" xmlns="http://www.w3.org/2000/svg" xmlns:xlink="http://www.w3.org/1999/xlink" width="144.14414" height="60.93899" viewBox="0,0,144.14414,60.93899"><g transform="translate(-167.92793,-149.5305)"><g data-paper-data="{&quot;isPaintingLayer&quot;:true}" fill-rule="nonzero" stroke-linejoin="miter" stroke-miterlimit="10" stroke-dasharray="" stroke-dashoffset="0" style="mix-blend-mode: normal"><path d="M207.26631,176.74885c0,1.58761 0,6.2015 0,6.2015c0,0.55886 -0.02903,0.95442 -0.0871,1.18667c-0.0508,0.225 -0.18508,0.43185 -0.40281,0.62055c-0.21774,0.1887 -0.47539,0.28305 -0.77296,0.28305c-0.30483,0 -0.56975,-0.08709 -0.79475,-0.26128c-0.21774,-0.17419 -0.34838,-0.37741 -0.39193,-0.60967c-0.04354,-0.23951 -0.06532,-0.64596 -0.06532,-1.21933v-9.63488c0,-0.60241 0.10524,-1.0524 0.31572,-1.34998c0.21048,-0.29757 0.67136,-0.44636 1.38263,-0.44636h0.81651c0.71854,0 1.17578,0.09798 1.37175,0.29395c0.19597,0.19597 0.39919,0.6895 0.60967,1.48062c0,0 0.86445,3.26731 1.2157,4.59493c0.26868,1.0155 0.94874,1.78575 1.13202,1.08908c0.34552,-1.31336 1.49535,-5.68402 1.49535,-5.68402c0.20322,-0.78385 0.40281,-1.27377 0.59877,-1.46973c0.20322,-0.20322 0.66773,-0.30483 1.39352,-0.30483h0.81652c0.63144,0 1.07054,0.12338 1.31731,0.37015c0.24677,0.23951 0.37016,0.71491 0.37016,1.42618v9.63488c0,0.57337 -0.02178,0.97257 -0.06533,1.19756c-0.03629,0.225 -0.16693,0.43185 -0.39192,0.62055c-0.21774,0.18145 -0.48265,0.27217 -0.79474,0.27217c-0.26128,0 -0.50805,-0.07621 -0.74031,-0.22862c-0.225,-0.15967 -0.36652,-0.35927 -0.42459,-0.59878c-0.05806,-0.24677 -0.0871,-0.66773 -0.0871,-1.26288c0,0 0,-3.40195 0,-4.92494c0,-1.31768 -0.17638,-2.97559 -0.33007,-2.35602c-0.35603,1.43517 -1.77109,7.13943 -1.77109,7.13943c-0.25403,1.01611 -0.51168,1.64391 -0.77297,1.88342c-0.25403,0.23226 -0.59878,0.34838 -1.03425,0.34838c-0.50806,0 -0.88184,-0.14516 -1.12135,-0.43547c-0.23226,-0.29031 -0.46451,-0.88909 -0.69676,-1.79633c0,0 -0.73343,-2.97193 -1.08878,-4.41182c-0.34081,-1.38098 -1.0015,-2.63786 -1.0015,-1.64816zM227.09253,180.60968h-4.85555c0.02177,0.92175 0.27218,1.61851 0.7512,2.09028c0.47902,0.46451 1.05603,0.69676 1.73101,0.69676c0.8274,0 1.60763,-0.3629 2.34068,-1.08869c0.29757,-0.30483 0.51531,-0.49354 0.65321,-0.56611c0.14516,-0.07258 0.30483,-0.10887 0.47902,-0.10887c0.225,0 0.41733,0.07258 0.577,0.21774c0.15967,0.1379 0.23951,0.30846 0.23951,0.51168c0,0.55886 -0.38104,1.14675 -1.14312,1.76368c-0.76208,0.60967 -1.79271,0.91449 -3.09188,0.91449c-1.65481,0 -2.91042,-0.46813 -3.76685,-1.4044c-0.85644,-0.93627 -1.28466,-2.14471 -1.28466,-3.62533c0,-1.50239 0.42822,-2.71809 1.28466,-3.6471c0.85644,-0.92901 2.04674,-1.39352 3.5709,-1.39352c1.45158,0 2.57292,0.4391 3.36404,1.31731c0.79837,0.87821 1.19756,1.82899 1.19756,2.85236c0,0.45725 -0.13427,0.81652 -0.40282,1.0778c-0.26128,0.26128 -0.80926,0.39193 -1.64392,0.39193zM222.23698,179.20527h4.50717c-0.02903,-0.82014 -0.25765,-1.44433 -0.68587,-1.87255c-0.42096,-0.43547 -0.94353,-0.65321 -1.56771,-0.65321c-1.31368,0 -2.06488,0.84192 -2.25359,2.52576zM237.98778,183.62534v-0.2504c-0.85643,1.11046 -1.93785,1.66569 -3.24428,1.66569c-1.26288,0 -2.2681,-0.47902 -3.01567,-1.43706c-0.74031,-0.96531 -1.11046,-2.21004 -1.11046,-3.7342c0,-1.43706 0.3629,-2.61285 1.08868,-3.52734c0.72579,-0.91449 1.73465,-1.37175 3.02656,-1.37175c1.24836,0 2.33341,0.50443 3.25516,1.51328v-3.21163c0,-0.88547 0.1125,-1.43707 0.3375,-1.6548c0.225,-0.21774 0.5262,-0.32661 0.90361,-0.32661c0.26854,0 0.51168,0.07621 0.72942,0.22862c0.225,0.15241 0.36289,0.35564 0.4137,0.60967c0.0508,0.24677 0.07621,0.65321 0.07621,1.21933v9.75464c0,0.5516 -0.02903,0.94716 -0.0871,1.18667c-0.0508,0.23226 -0.1887,0.4137 -0.4137,0.54434c-0.225,0.1379 -0.47177,0.20685 -0.74031,0.20685c-0.81288,0 -1.21934,-0.47176 -1.21934,-1.41529zM233.12136,179.94558c0,1.11046 0.23226,1.92335 0.69676,2.43866c0.47177,0.50806 1.00522,0.76208 1.60037,0.76208c0.70402,0 1.28465,-0.26491 1.7419,-0.79474c0.45725,-0.53708 0.68587,-1.28102 0.68587,-2.23181c0,-1.00159 -0.22499,-1.79634 -0.67498,-2.38423c-0.44273,-0.59515 -1.03426,-0.89272 -1.77456,-0.89272c-0.66773,0 -1.2157,0.2758 -1.64392,0.8274c-0.42096,0.54434 -0.63144,1.3028 -0.63144,2.27535zM248.68142,184.81201h-3.45113c-0.79837,0 -1.33546,-0.05806 -1.61126,-0.17419c-0.2758,-0.12339 -0.45363,-0.31572 -0.53346,-0.57701c-0.07984,-0.26854 -0.11975,-0.76934 -0.11975,-1.50239v-8.78571c0,-0.78385 0.05806,-1.31006 0.17419,-1.5786c0.11613,-0.26854 0.30846,-0.44636 0.577,-0.53346c0.26854,-0.09436 0.77297,-0.14153 1.51328,-0.14153h3.69065c1.06691,0 1.88343,0.11612 2.44955,0.34838c0.56611,0.225 1.04514,0.60604 1.43706,1.14312c0.39918,0.52983 0.59878,1.14312 0.59878,1.83988c0,1.33545 -0.66773,2.31164 -2.00319,2.92857c1.7419,0.49354 2.61285,1.57497 2.61285,3.24429c0,0.80563 -0.22499,1.52416 -0.67498,2.1556c-0.44999,0.62418 -1.02699,1.0524 -1.73102,1.28465c-0.69676,0.23226 -1.67295,0.34838 -2.92857,0.34838zM245.64398,173.59853v3.32049h2.50398c1.05965,0 1.76004,-0.15605 2.10116,-0.46814c0.34112,-0.31935 0.51168,-0.73305 0.51168,-1.2411c0,-0.5008 -0.18145,-0.89272 -0.54435,-1.17578c-0.3629,-0.29031 -1.14675,-0.43547 -2.35156,-0.43547zM248.47457,178.99842h-2.83059v3.7342h2.92857c1.02337,0 1.73102,-0.16693 2.12294,-0.5008c0.39192,-0.34112 0.58789,-0.80563 0.58789,-1.39352c0,-0.56611 -0.20322,-1.01248 -0.60966,-1.33909c-0.40644,-0.33387 -1.13949,-0.5008 -2.19915,-0.5008zM262.44265,183.64711c-1.17578,0.92901 -2.32979,1.39352 -3.46203,1.39352c-1.06691,0 -1.89069,-0.27217 -2.47132,-0.81651c-0.57337,-0.54434 -0.86006,-1.20844 -0.86006,-1.9923c0,-0.67498 0.19597,-1.21933 0.58789,-1.63303c0.39193,-0.4137 0.81652,-0.70039 1.27377,-0.86007c0.45725,-0.16693 1.20481,-0.35564 2.24269,-0.56612c1.03788,-0.21774 1.87618,-0.41733 2.51487,-0.59878c-0.00726,-0.74757 -0.15605,-1.25199 -0.44637,-1.51327c-0.29032,-0.26854 -0.73305,-0.40282 -1.32819,-0.40282c-1.12498,0 -1.85803,0.31572 -2.19915,0.94716c-0.19597,0.35564 -0.37016,0.60967 -0.52257,0.76209c-0.15242,0.15241 -0.37016,0.22862 -0.65321,0.22862c-0.26128,0 -0.49716,-0.0871 -0.70765,-0.26129c-0.21048,-0.17419 -0.31572,-0.39556 -0.31572,-0.6641c0,-0.64595 0.34838,-1.25562 1.04514,-1.82899c0.69676,-0.58064 1.78908,-0.87095 3.27695,-0.87095c1.51691,0 2.62374,0.26129 3.32049,0.78386c0.70402,0.52257 1.03425,1.5786 0.9907,3.16808l-0.05444,2.32979c-0.02177,0.71854 0.05082,1.30642 0.21775,1.76367c0.17419,0.44999 0.26128,0.79474 0.26128,1.03425c0,0.26128 -0.11613,0.49354 -0.34838,0.69676c-0.22499,0.19597 -0.48265,0.29394 -0.77297,0.29394c-0.50079,0 -1.03062,-0.46451 -1.58948,-1.39352zM262.27934,180.06533c-0.37016,0.1379 -0.97982,0.29395 -1.829,0.46814c-0.84918,0.16693 -1.45158,0.35927 -1.80722,0.577c-0.34838,0.21774 -0.52257,0.53708 -0.52257,0.95804c0,0.35564 0.1379,0.67136 0.4137,0.94716c0.28306,0.26854 0.68224,0.40282 1.19755,0.40282c0.54435,0 1.04877,-0.14879 1.51328,-0.44636c0.47177,-0.30483 0.76208,-0.66047 0.87095,-1.06691c0.10887,-0.4137 0.1633,-1.027 0.1633,-1.83988zM269.4894,184.79024l-3.02655,-7.66436c-0.18871,-0.5008 -0.28306,-0.84555 -0.28306,-1.03426c0,-0.28306 0.11612,-0.54071 0.34838,-0.77296c0.23951,-0.23226 0.51893,-0.34838 0.83828,-0.34838c0.28306,0 0.52258,0.0871 0.71854,0.26129c0.19597,0.17419 0.3883,0.5262 0.577,1.05603l2.09028,6.09665l1.98141,-5.65029c0.26128,-0.74031 0.46813,-1.21933 0.62055,-1.43707c0.15967,-0.21774 0.42459,-0.32661 0.79474,-0.32661c0.34112,0 0.60966,0.11613 0.80563,0.34838c0.19597,0.225 0.29395,0.45361 0.29395,0.68587c0,0.2758 -0.09798,0.67136 -0.29395,1.18667l-3.2334,8.4591c-0.42822,1.12498 -0.87459,1.91609 -1.33909,2.37334c-0.45725,0.45725 -1.23747,0.68587 -2.34068,0.68587c-1.43707,0 -2.1556,-0.36652 -2.1556,-1.09957c0,-0.23951 0.07984,-0.44273 0.23951,-0.60967c0.16693,-0.15967 0.38467,-0.23951 0.65321,-0.23951c0.04354,0 0.18144,0.00726 0.4137,0.02177c0.23951,0.02177 0.38104,0.03266 0.42458,0.03266c0.45725,0 0.79111,-0.11249 1.0016,-0.33749c0.21774,-0.21774 0.43184,-0.59515 0.64232,-1.13224z" fill="#ffffff" stroke="#000000" stroke-width="3.5" stroke-linecap="square"/><path d="M207.26631,174.33884v8.61152c0,0.55886 -0.02903,0.95442 -0.08709,1.18667c-0.05081,0.225 -0.18508,0.43185 -0.40281,0.62055c-0.21774,0.18871 -0.47539,0.28306 -0.77297,0.28306c-0.30483,0 -0.56975,-0.08709 -0.79474,-0.26128c-0.21774,-0.17419 -0.34838,-0.37741 -0.39193,-0.60966c-0.04355,-0.23951 -0.06532,-0.64595 -0.06532,-1.21933v-9.63488c0,-0.60241 0.10524,-1.0524 0.31572,-1.34997c0.21048,-0.29757 0.67136,-0.44636 1.38263,-0.44636h0.81652c0.71853,0 1.17578,0.09798 1.37175,0.29395c0.19596,0.19596 0.39919,0.6895 0.60966,1.48061l1.92698,7.28332l1.91609,-7.28332c0.20322,-0.78385 0.40281,-1.27376 0.59878,-1.46973c0.20322,-0.20322 0.66773,-0.30483 1.39352,-0.30483h0.81652c0.63144,0 1.07054,0.12338 1.31731,0.37015c0.24677,0.23951 0.37015,0.7149 0.37015,1.42618v9.63488c0,0.57338 -0.02177,0.97256 -0.06532,1.19756c-0.03629,0.225 -0.16693,0.43185 -0.39193,0.62055c-0.21774,0.18145 -0.48265,0.27217 -0.79474,0.27217c-0.26128,0 -0.50805,-0.07621 -0.74031,-0.22862c-0.225,-0.15967 -0.36653,-0.35927 -0.42459,-0.59878c-0.05806,-0.24677 -0.08709,-0.66773 -0.08709,-1.26288v-8.61152l-2.10117,8.46999c-0.25403,1.01611 -0.51168,1.64392 -0.77297,1.88343c-0.25403,0.23225 -0.59878,0.34838 -1.03425,0.34838c-0.50805,0 -0.88184,-0.14516 -1.12135,-0.43547c-0.23225,-0.29032 -0.46451,-0.88909 -0.69676,-1.79633zM227.09252,180.60968h-4.85555c0.02177,0.92176 0.27217,1.61852 0.75119,2.09028c0.47902,0.46451 1.05603,0.69676 1.73101,0.69676c0.8274,0 1.60763,-0.3629 2.34068,-1.08869c0.29757,-0.30483 0.51531,-0.49354 0.65321,-0.56612c0.14516,-0.07258 0.30483,-0.10887 0.47902,-0.10887c0.225,0 0.41732,0.07258 0.57699,0.21774c0.15967,0.1379 0.23952,0.30846 0.23952,0.51168c0,0.55886 -0.38104,1.14675 -1.14312,1.76367c-0.76208,0.60966 -1.79271,0.9145 -3.09187,0.9145c-1.6548,0 -2.91042,-0.46814 -3.76686,-1.40441c-0.85643,-0.93627 -1.28465,-2.14471 -1.28465,-3.62533c0,-1.50239 0.42822,-2.71809 1.28465,-3.6471c0.85643,-0.92901 2.04673,-1.39352 3.57089,-1.39352c1.45158,0 2.57293,0.4391 3.36404,1.31731c0.79837,0.87821 1.19756,1.82899 1.19756,2.85236c0,0.45725 -0.13427,0.81652 -0.40281,1.0778c-0.26128,0.26128 -0.80926,0.39193 -1.64392,0.39193zM222.23698,179.20527h4.50717c-0.02903,-0.82014 -0.25766,-1.44433 -0.68587,-1.87254c-0.42096,-0.43547 -0.94353,-0.65321 -1.56771,-0.65321c-1.31368,0 -2.06488,0.84192 -2.25358,2.52575zM237.98778,183.62534v-0.2504c-0.85643,1.11046 -1.93786,1.66569 -3.24429,1.66569c-1.26288,0 -2.2681,-0.47902 -3.01566,-1.43707c-0.74031,-0.9653 -1.11046,-2.21004 -1.11046,-3.7342c0,-1.43707 0.3629,-2.61285 1.08869,-3.52735c0.72579,-0.9145 1.73464,-1.37175 3.02655,-1.37175c1.24836,0 2.33342,0.50443 3.25517,1.51328v-3.21163c0,-0.88547 0.1125,-1.43707 0.33749,-1.6548c0.225,-0.21774 0.5262,-0.32661 0.90361,-0.32661c0.26854,0 0.51168,0.07621 0.72942,0.22862c0.225,0.15242 0.3629,0.35564 0.4137,0.60966c0.05081,0.24677 0.07621,0.65321 0.07621,1.21933v9.75464c0,0.5516 -0.02903,0.94716 -0.08709,1.18667c-0.05081,0.23225 -0.18871,0.4137 -0.4137,0.54434c-0.225,0.1379 -0.47176,0.20685 -0.74031,0.20685c-0.81289,0 -1.21933,-0.47176 -1.21933,-1.41529zM233.12135,179.94558c0,1.11046 0.23225,1.92335 0.69676,2.43866c0.47176,0.50805 1.00522,0.76208 1.60037,0.76208c0.70402,0 1.28465,-0.26491 1.7419,-0.79474c0.45725,-0.53709 0.68587,-1.28102 0.68587,-2.23181c0,-1.00159 -0.22499,-1.79633 -0.67498,-2.38423c-0.44273,-0.59515 -1.03425,-0.89272 -1.77456,-0.89272c-0.66773,0 -1.2157,0.2758 -1.64392,0.8274c-0.42096,0.54434 -0.63144,1.3028 -0.63144,2.27536zM248.68141,184.81201h-3.45114c-0.79837,0 -1.33546,-0.05806 -1.61126,-0.17419c-0.2758,-0.12338 -0.45362,-0.31572 -0.53346,-0.577c-0.07984,-0.26854 -0.11976,-0.76934 -0.11976,-1.50239v-8.78571c0,-0.78385 0.05806,-1.31005 0.17419,-1.5786c0.11613,-0.26854 0.30846,-0.44636 0.577,-0.53346c0.26854,-0.09435 0.77297,-0.14153 1.51328,-0.14153h3.69065c1.06691,0 1.88343,0.11613 2.44955,0.34838c0.56612,0.225 1.04514,0.60604 1.43707,1.14312c0.39919,0.52983 0.59877,1.14312 0.59877,1.83988c0,1.33546 -0.66772,2.31165 -2.00317,2.92857c1.7419,0.49354 2.61285,1.57497 2.61285,3.24429c0,0.80563 -0.225,1.52416 -0.67499,2.1556c-0.44999,0.62418 -1.027,1.0524 -1.73101,1.28465c-0.69676,0.23225 -1.67295,0.34838 -2.92857,0.34838zM245.64397,173.59853v3.3205h2.50399c1.05966,0 1.76004,-0.15605 2.10117,-0.46814c0.34112,-0.31935 0.51168,-0.73305 0.51168,-1.2411c0,-0.5008 -0.18145,-0.89272 -0.54434,-1.17578c-0.3629,-0.29032 -1.14675,-0.43547 -2.35156,-0.43547zM248.47456,178.99842h-2.83059v3.7342h2.92857c1.02337,0 1.731,-0.16693 2.12293,-0.5008c0.39193,-0.34112 0.5879,-0.80563 0.5879,-1.39352c0,-0.56612 -0.20322,-1.01248 -0.60966,-1.33909c-0.40644,-0.33386 -1.13949,-0.5008 -2.19915,-0.5008zM262.44264,183.64712c-1.17578,0.92901 -2.32979,1.39352 -3.46203,1.39352c-1.06691,0 -1.89069,-0.27217 -2.47132,-0.81652c-0.57338,-0.54434 -0.86005,-1.20844 -0.86005,-1.9923c0,-0.67499 0.19596,-1.21933 0.58789,-1.63303c0.39193,-0.4137 0.81652,-0.70039 1.27376,-0.86006c0.45725,-0.16693 1.20481,-0.35564 2.2427,-0.56612c1.03788,-0.21774 1.87617,-0.41733 2.51487,-0.59878c-0.00726,-0.74757 -0.15605,-1.25199 -0.44636,-1.51328c-0.29032,-0.26854 -0.73306,-0.40281 -1.32821,-0.40281c-1.12498,0 -1.85802,0.31572 -2.19914,0.94716c-0.19596,0.35564 -0.37016,0.60966 -0.52258,0.76208c-0.15242,0.15242 -0.37014,0.22862 -0.6532,0.22862c-0.26128,0 -0.49717,-0.08709 -0.70765,-0.26128c-0.21048,-0.17419 -0.31572,-0.39556 -0.31572,-0.6641c0,-0.64595 0.34837,-1.25562 1.04513,-1.82899c0.69676,-0.58063 1.78909,-0.87095 3.27696,-0.87095c1.5169,0 2.62374,0.26128 3.3205,0.78385c0.70402,0.52257 1.03425,1.5786 0.99071,3.16808l-0.05443,2.32979c-0.02177,0.71853 0.05082,1.30642 0.21774,1.76367c0.17419,0.44999 0.26128,0.79474 0.26128,1.03425c0,0.26128 -0.11613,0.49354 -0.34838,0.69676c-0.225,0.19596 -0.48265,0.29395 -0.77297,0.29395c-0.5008,0 -1.03062,-0.46451 -1.58948,-1.39352zM262.27934,180.06534c-0.37015,0.1379 -0.97982,0.29395 -1.82899,0.46814c-0.84918,0.16693 -1.45158,0.35927 -1.80722,0.577c-0.34838,0.21774 -0.52257,0.53709 -0.52257,0.95804c0,0.35564 0.1379,0.67136 0.4137,0.94716c0.28306,0.26854 0.68223,0.40281 1.19755,0.40281c0.54434,0 1.04877,-0.14879 1.51328,-0.44636c0.47176,-0.30483 0.76207,-0.66047 0.87095,-1.06691c0.10887,-0.4137 0.16331,-1.027 0.16331,-1.83988zM269.4894,184.79024l-3.02655,-7.66436c-0.18871,-0.5008 -0.28306,-0.84555 -0.28306,-1.03425c0,-0.28306 0.11613,-0.54071 0.34838,-0.77297c0.23951,-0.23225 0.51893,-0.34838 0.83828,-0.34838c0.28306,0 0.52258,0.08709 0.71854,0.26128c0.19596,0.17419 0.3883,0.5262 0.577,1.05603l2.09028,6.09665l1.98141,-5.65029c0.26128,-0.74031 0.46814,-1.21933 0.62055,-1.43707c0.15967,-0.21774 0.42458,-0.32661 0.79474,-0.32661c0.34112,0 0.60967,0.11613 0.80564,0.34838c0.19596,0.225 0.29395,0.45362 0.29395,0.68587c0,0.2758 -0.09798,0.67136 -0.29395,1.18667l-3.23341,8.4591c-0.42822,1.12498 -0.87457,1.91609 -1.33909,2.37334c-0.45725,0.45725 -1.23747,0.68587 -2.34068,0.68587c-1.43707,0 -2.1556,-0.36652 -2.1556,-1.09957c0,-0.23951 0.07984,-0.44273 0.23951,-0.60966c0.16693,-0.15967 0.38467,-0.23951 0.65321,-0.23951c0.04355,0 0.18145,0.00726 0.4137,0.02177c0.23951,0.02177 0.38104,0.03266 0.42459,0.03266c0.45725,0 0.79111,-0.1125 1.00159,-0.33749c0.21774,-0.21774 0.43185,-0.59515 0.64233,-1.13223z" fill="#ffffff" stroke="none" stroke-width="1" stroke-linecap="square"/><path d="M167.92793,210.4695v-60.93899h144.14414v60.93899z" fill="none" stroke="none" stroke-width="none" stroke-linecap="butt"/></g></g></svg>