<svg version="1.1" xmlns="http://www.w3.org/2000/svg" xmlns:xlink="http://www.w3.org/1999/xlink" width="304.3003" height="304.30025" viewBox="0,0,304.3003,304.30025"><defs><linearGradient x1="235.6234" y1="240.45064" x2="235.6234" y2="293.85983" gradientUnits="userSpaceOnUse" id="color-1"><stop offset="0" stop-color="#3b3b3b" stop-opacity="0"/><stop offset="1" stop-color="#3b3b3b"/></linearGradient><linearGradient x1="235.62335" y1="293.85986" x2="235.62335" y2="240.45067" gradientUnits="userSpaceOnUse" id="color-2"><stop offset="0" stop-color="#3b3b3b" stop-opacity="0"/><stop offset="1" stop-color="#3b3b3b"/></linearGradient></defs><g transform="translate(-87.84985,-27.84987)"><g data-paper-data="{&quot;isPaintingLayer&quot;:true}" fill-rule="nonzero" stroke-linecap="butt" stroke-linejoin="miter" stroke-miterlimit="10" stroke-dasharray="" stroke-dashoffset="0" style="mix-blend-mode: normal"><path d="M89.84985,270.23517c0,-59.99896 0,-148.11906 0,-181.81815c0,-26.16557 22.73163,-58.56714 54.69562,-58.56714c60.91162,0 155.35022,0 189.899,0c25.1397,0 55.70568,31.10369 55.70568,56.54696c0,34.37139 0,127.20919 0,187.87876c0,32.57375 -30.56593,55.87453 -55.70568,55.87453c-33.79375,0 -124.88841,0 -185.85858,0c-34.07175,0 -58.73599,-25.26921 -58.73599,-59.91496z" fill="#83a08b" stroke="#83a08b" stroke-width="4"/><path d="M328.71855,267.15524c0,14.74854 -41.68013,26.70459 -93.09517,26.70459c-51.41504,0 -93.09518,-11.95605 -93.09518,-26.70459c0,-14.74855 41.68014,-26.7046 93.09518,-26.7046c51.41505,0 93.09517,11.95605 93.09517,26.7046z" fill="url(#color-1)" stroke="none" stroke-width="0"/><path d="M235.62335,293.85986c-51.41504,0 -93.09518,-11.95605 -93.09518,-26.70459c0,-14.74855 41.68014,-26.7046 93.09518,-26.7046c51.41504,0 93.09518,11.95605 93.09518,26.7046c0,14.74854 -41.68014,26.70459 -93.09518,26.70459z" data-paper-data="{&quot;index&quot;:null}" fill="url(#color-2)" stroke="none" stroke-width="0"/><path d="M242.94012,244.26681c-53.42691,0 -98.96614,-12.19093 -116.43539,-29.28731c-4.93481,-4.82948 -7.62971,-10.05039 -7.62971,-15.49852c0,-24.73453 55.54585,-44.78583 124.0651,-44.78583c33.33021,0 63.36967,-1.79998 88.81664,10.95856c23.29962,11.68191 41.36827,16.53893 41.36827,23.81304c0,24.73453 -61.66565,54.80005 -130.1849,54.80005z" fill="#758594" stroke="#000000" stroke-width="9.5"/><path d="M365.47556,184.61871c-5.49585,16.97244 -57.84881,39.06335 -123.09178,39.06335c-68.51925,0 -111.82549,-21.436 -111.82549,-38.95691c0,-17.5209 43.86259,-30.0554 112.38184,-30.0554c33.33021,0 63.36967,-1.27504 88.81664,7.76258c23.29962,8.27498 30.7977,15.05358 30.7977,20.20625c0,0.83777 3.19707,1.12783 2.9211,1.98013z" fill="#acbdcb" stroke="none" stroke-width="0"/><path d="M144.03204,182.66277c0,-4.71133 3.8193,-8.53062 8.53063,-8.53062c4.71133,0 8.53063,3.81929 8.53063,8.53062c0,4.71133 -3.81929,8.53063 -8.53063,8.53063c-4.71133,0 -8.53063,-3.8193 -8.53063,-8.53063z" fill="#566b80" stroke="none" stroke-width="0.5"/><path d="M175.18743,201.94943c0,-4.71133 3.81931,-8.53065 8.53064,-8.53065c4.71133,0 8.53063,3.81932 8.53063,8.53065c0,4.71133 -3.8193,8.53065 -8.53063,8.53065c-4.71133,0 -8.53064,-3.81932 -8.53064,-8.53065z" fill="#566b80" stroke="none" stroke-width="0.5"/><path d="M218.21147,211.59277c0,-4.71133 3.81929,-8.53065 8.53062,-8.53065c4.71133,0 8.53065,3.81932 8.53065,8.53065c0,4.71133 -3.81932,8.53065 -8.53065,8.53065c-4.71133,0 -8.53062,-3.81932 -8.53062,-8.53065z" fill="#566b80" stroke="none" stroke-width="0.5"/><path d="M259.01016,211.59277c0,-4.71133 3.8193,-8.53065 8.53063,-8.53065c4.71134,0 8.53065,3.81932 8.53065,8.53065c0,4.71133 -3.81931,8.53065 -8.53065,8.53065c-4.71134,0 -8.53063,-3.81932 -8.53063,-8.53065z" fill="#566b80" stroke="none" stroke-width="0.5"/><path d="M299.06708,199.72405c0,-4.71133 3.81931,-8.53064 8.53065,-8.53064c4.71134,0 8.53062,3.81931 8.53062,8.53064c0,4.71133 -3.81931,8.53065 -8.53062,8.53065c-4.71134,0 -8.53065,-3.81932 -8.53065,-8.53065z" fill="#566b80" stroke="none" stroke-width="0.5"/><path d="M328.73882,178.21203c0,-4.71133 3.81931,-8.53065 8.53064,-8.53065c4.71134,0 8.53063,3.81931 8.53063,8.53065c0,4.71133 -3.81931,8.53065 -8.53063,8.53065c-4.71134,0 -8.53064,-3.81931 -8.53064,-8.53065z" fill="#566b80" stroke="none" stroke-width="0.5"/><path d="M242.94012,244.26681c-53.42693,0 -98.96614,-12.19096 -116.43539,-29.28731c-4.93481,-4.82948 -7.62971,-10.05039 -7.62971,-15.49852c0,-24.73453 55.54585,-44.78583 124.0651,-44.78583c33.33021,0 63.36967,-1.79998 88.81664,10.95856c23.29962,11.68191 41.36827,16.53893 41.36827,23.81304c0,24.73453 -61.66565,54.80005 -130.1849,54.80005z" fill="none" stroke="#000000" stroke-width="15"/><g stroke-width="15"><path d="M170.65746,164.85709c3.38744,-32.86347 33.21097,-58.56402 69.50093,-58.56402c32.76407,0 60.25723,20.94906 67.78323,49.20493c0.40019,1.50244 0.82922,3.82343 1.15535,5.74912c0.31805,1.87806 0.51195,5.5889 -0.95796,8.77647c-3.78747,8.21338 -17.15966,22.92527 -64.36401,23.09385c-45.40409,-0.65791 -64.3659,-14.24447 -70.73346,-20.53417c-1.93195,-1.90833 -2.59609,-5.66928 -2.38408,-7.72615z" fill="#7091ae" stroke="none"/><path d="M170.65746,152.47346c3.38744,-25.91434 33.21097,-46.18039 69.50093,-46.18039c32.76407,0 60.25723,16.51928 67.78323,38.80033c0.40019,1.18475 0.82922,3.01495 1.15535,4.53344c0.31805,1.48093 0.51195,4.4071 -0.95796,6.92065c-3.78747,6.47662 -17.15966,18.07761 -64.36401,18.21053c-62.09446,-0.5188 -51.01361,-36.26798 -57.38116,-41.22767c-1.93195,-1.50481 -15.94838,20.56508 -15.73637,18.94313z" fill="#ace6fb" stroke="none"/><path d="M287.16956,132.99768c0,8.60331 -5.43805,16.13402 -15.57768,16.13402c-10.13963,0 -28.37363,-32.00992 -28.37363,-40.61323c0,-8.60331 15.45228,8.90153 25.5919,8.90153c10.13963,0 18.3594,6.97437 18.3594,15.57768z" fill="#f2ffff" stroke="none"/><path d="M170.65746,164.85709c3.38744,-32.86347 33.21097,-58.56402 69.50094,-58.56402c32.76407,0 60.25723,20.94906 67.78323,49.20493c0.40017,1.50244 0.82922,3.82343 1.15535,5.74912c0.31805,1.87806 0.51193,5.5889 -0.95796,8.77647c-3.78747,8.21336 -17.15966,22.92527 -64.36399,23.09385c-45.40409,-0.65791 -64.3659,-14.24449 -70.73346,-20.53419c-1.93195,-1.90833 -2.59609,-5.66928 -2.38408,-7.72615z" fill="none" stroke="#000000"/></g></g></g></svg>