<svg version="1.1" xmlns="http://www.w3.org/2000/svg" xmlns:xlink="http://www.w3.org/1999/xlink" width="261.71448" height="221.99054" viewBox="0,0,261.71448,221.99054"><g transform="translate(-119.17291,-66.71667)"><g data-paper-data="{&quot;isPaintingLayer&quot;:true}" fill="#ffffff" fill-rule="nonzero" stroke="#ffffff" stroke-linecap="butt" stroke-linejoin="miter" stroke-miterlimit="10" stroke-dasharray="" stroke-dashoffset="0" style="mix-blend-mode: normal"><path d="M136.5,230.06667v-113.66667h19v113.66667z" stroke-width="3.5"/><path d="M150.16667,140.46667l47,-72h76l49.04265,72.12006l-49.66667,-18.12006h-67.04265z" stroke-width="3.5"/><path d="M323.33183,248.73334v-113.66666h24.69388v113.66667z" stroke-width="7"/><path d="M136.67568,285.20721v-43.54354h240.71171v43.54354z" stroke-width="7"/><path d="M122.67291,278.91772v-58h25.9619l30.38095,44.74286z" stroke-width="7"/><path d="M293.51577,269.07486l27.25714,-41.65714h24.17143v54z" data-paper-data="{&quot;index&quot;:null}" stroke-width="7"/><path d="M180.44649,204.26391l17.5899,-7.70733l9.90899,9.29303l-16.80014,6.93944z" stroke-width="0"/><path d="M295.76273,193.63588l-16.80014,-6.93944l9.90899,-9.29303l17.5899,7.70733z" data-paper-data="{&quot;index&quot;:null}" stroke-width="0"/><path d="M199.07135,156.95347l9.86501,-4.32253l5.5573,5.21185l-9.42209,3.89187z" stroke-width="0"/></g></g></svg>