<svg version="1.1" xmlns="http://www.w3.org/2000/svg" xmlns:xlink="http://www.w3.org/1999/xlink" width="104.86975" height="10.6162" viewBox="0,0,104.86975,10.6162"><g transform="translate(-187.56513,-174.6919)"><g data-paper-data="{&quot;isPaintingLayer&quot;:true}" fill="#12ff00" fill-rule="nonzero" stroke="none" stroke-width="1" stroke-linecap="square" stroke-linejoin="miter" stroke-miterlimit="10" stroke-dasharray="" stroke-dashoffset="0" style="mix-blend-mode: normal"><path d="M192.9301,181.01423h-3.27965l-0.37915,1.02371c-0.15798,0.41075 -0.29068,0.68563 -0.39811,0.82465c-0.10743,0.13902 -0.2812,0.20853 -0.52133,0.20853c-0.22117,0 -0.40759,-0.07583 -0.55925,-0.22749c-0.15166,-0.15798 -0.22749,-0.32544 -0.22749,-0.50237c0,-0.18958 0.07583,-0.47394 0.22749,-0.85309l2.08533,-5.26071c0.18326,-0.47394 0.31596,-0.79305 0.39811,-0.95735c0.08847,-0.1643 0.22117,-0.30016 0.39811,-0.40759c0.18326,-0.11375 0.38547,-0.17062 0.60664,-0.17062c0.25909,0 0.48658,0.06951 0.68247,0.20853c0.20221,0.1327 0.36019,0.34124 0.47394,0.6256l2.39812,5.92422c0.15798,0.39811 0.23697,0.68563 0.23697,0.86257c0,0.18326 -0.07583,0.35703 -0.22749,0.52133c-0.15166,0.15798 -0.3444,0.23697 -0.5782,0.23697c-0.24013,0 -0.4139,-0.06951 -0.52133,-0.20853c-0.10743,-0.13902 -0.24645,-0.42338 -0.41707,-0.85309zM190.06752,179.75355h2.43604l-1.23224,-3.33652zM200.29293,182.20855v-0.15166c-0.51817,0.67615 -1.17537,1.01423 -1.97158,1.01423c-0.77094,0 -1.3839,-0.29384 -1.83888,-0.88152c-0.45498,-0.58768 -0.68247,-1.34598 -0.68247,-2.2749c0,-0.87205 0.22117,-1.58611 0.66351,-2.1422c0.44866,-0.56241 1.06478,-0.84361 1.84836,-0.84361c0.76462,0 1.42497,0.30964 1.98106,0.92892v-1.9621c0,-0.53713 0.06635,-0.87205 0.19905,-1.00475c0.13902,-0.1327 0.32544,-0.19905 0.55925,-0.19905c0.1643,0 0.3128,0.04739 0.4455,0.14218c0.13902,0.08847 0.22433,0.20853 0.25593,0.36019c0.0316,0.15166 0.04739,0.40127 0.04739,0.74882v5.94318c0,0.33492 -0.01896,0.57504 -0.05687,0.72039c-0.0316,0.14534 -0.11691,0.25909 -0.25593,0.34124c-0.13902,0.08215 -0.28752,0.12322 -0.4455,0.12322c-0.49921,0 -0.74882,-0.28752 -0.74882,-0.86257zM197.32608,179.96208c0,0.67615 0.14218,1.1722 0.42654,1.48816c0.28436,0.30964 0.6098,0.46446 0.97631,0.46446c0.4297,0 0.78358,-0.16114 1.06162,-0.48342c0.27804,-0.3286 0.41707,-0.78358 0.41707,-1.36494c0,-0.60664 -0.13586,-1.09006 -0.40759,-1.45025c-0.27172,-0.36019 -0.63192,-0.54029 -1.08058,-0.54029c-0.41075,0 -0.74566,0.16746 -1.00475,0.50237c-0.25909,0.33492 -0.38863,0.79622 -0.38863,1.3839zM211.79302,179.17535v2.59718c0,0.36019 -0.0158,0.61296 -0.04739,0.7583c-0.02528,0.14534 -0.10427,0.27172 -0.23697,0.37915c-0.1327,0.10743 -0.28752,0.16114 -0.46446,0.16114c-0.17694,0 -0.33176,-0.05371 -0.46446,-0.16114c-0.1327,-0.10743 -0.21485,-0.23697 -0.24645,-0.38863c-0.0316,-0.15798 -0.04739,-0.40759 -0.04739,-0.74882v-2.19907c0,-0.64456 -0.07583,-1.04898 -0.22749,-1.21328c-0.15166,-0.1643 -0.36019,-0.24645 -0.6256,-0.24645c-0.27804,0 -0.51185,0.07583 -0.70143,0.22749c-0.18958,0.15166 -0.31912,0.35071 -0.38863,0.59716c-0.06951,0.24645 -0.10427,0.63192 -0.10427,1.15641v1.67774c0,0.36019 -0.0158,0.61612 -0.04739,0.76778c-0.02528,0.14534 -0.10743,0.27172 -0.24645,0.37915c-0.1327,0.10111 -0.28752,0.15166 -0.46446,0.15166c-0.23381,0 -0.41707,-0.07899 -0.54977,-0.23697c-0.1327,-0.15798 -0.19905,-0.51185 -0.19905,-1.06162v-2.06637c0,-0.594 -0.04423,-1.00791 -0.1327,-1.24172c-0.08847,-0.23381 -0.31912,-0.35071 -0.69195,-0.35071c-0.38547,0 -0.69195,0.12322 -0.91944,0.36967c-0.22117,0.24645 -0.33176,0.7741 -0.33176,1.58295v1.70618c0,0.35387 -0.01264,0.60032 -0.03792,0.73934c-0.01896,0.13902 -0.09479,0.26857 -0.22749,0.38863c-0.1327,0.11375 -0.28752,0.17062 -0.46446,0.17062c-0.17062,0 -0.32544,-0.05055 -0.46446,-0.15166c-0.13902,-0.10743 -0.22433,-0.23381 -0.25593,-0.37915c-0.0316,-0.14534 -0.04739,-0.40127 -0.04739,-0.76778v-3.64932c0,-0.35387 0.0158,-0.59084 0.04739,-0.71091c0.0316,-0.12638 0.11058,-0.23697 0.23697,-0.33176c0.1327,-0.10111 0.27488,-0.15166 0.42654,-0.15166c0.48026,0 0.72039,0.30964 0.72039,0.92892c0.50553,-0.61928 1.11533,-0.92892 1.8294,-0.92892c0.76462,0 1.31755,0.30964 1.65878,0.92892c0.51185,-0.61928 1.11217,-0.92892 1.80096,-0.92892c0.52449,0 0.97315,0.1485 1.34598,0.4455c0.37915,0.29068 0.56873,0.891 0.56873,1.80096zM214.02442,174.75825c0.19589,0 0.36335,0.07267 0.50237,0.21801c0.14534,0.14534 0.21801,0.31596 0.21801,0.51185c0,0.20221 -0.07267,0.37599 -0.21801,0.52133c-0.13902,0.14534 -0.30648,0.21801 -0.50237,0.21801c-0.20221,0 -0.37599,-0.07267 -0.52133,-0.21801c-0.14534,-0.14534 -0.21801,-0.31912 -0.21801,-0.52133c0,-0.19589 0.07267,-0.36651 0.21801,-0.51185c0.14534,-0.14534 0.31912,-0.21801 0.52133,-0.21801zM214.76376,178.16112v3.6588c0,0.36019 -0.0158,0.60664 -0.04739,0.73934c-0.0316,0.1327 -0.11691,0.25277 -0.25593,0.36019c-0.1327,0.10111 -0.27804,0.15166 -0.43602,0.15166c-0.1643,0 -0.31596,-0.05055 -0.45498,-0.15166c-0.13902,-0.10111 -0.22749,-0.22117 -0.26541,-0.36019c-0.0316,-0.13902 -0.04739,-0.38547 -0.04739,-0.73934v-3.63984c0,-0.33492 0.01264,-0.57189 0.03792,-0.71091c0.02528,-0.13902 0.10427,-0.26224 0.23697,-0.36967c0.13902,-0.11375 0.297,-0.17062 0.47394,-0.17062c0.17694,0 0.3286,0.05055 0.45498,0.15166c0.1327,0.09479 0.21485,0.21801 0.24645,0.36967c0.03792,0.15166 0.05687,0.38863 0.05687,0.71091zM221.65072,179.34597v2.47395c0,0.32228 -0.0158,0.55609 -0.04739,0.70143c-0.02528,0.14534 -0.10427,0.27488 -0.23697,0.38863c-0.12638,0.10743 -0.2812,0.16114 -0.46446,0.16114c-0.1643,0 -0.31596,-0.04739 -0.45498,-0.14218c-0.13902,-0.10111 -0.22749,-0.23065 -0.26541,-0.38863c-0.0316,-0.15798 -0.04739,-0.39811 -0.04739,-0.72039v-2.17063c0,-0.60664 -0.09163,-1.01423 -0.27488,-1.22276c-0.17694,-0.20853 -0.42338,-0.3128 -0.73934,-0.3128c-0.28436,0 -0.53713,0.08215 -0.7583,0.24645c-0.21485,0.1643 -0.36651,0.37283 -0.45498,0.6256c-0.08847,0.24645 -0.1327,0.66983 -0.1327,1.27015v1.56399c0,0.31596 -0.01264,0.54661 -0.03792,0.69195c-0.02528,0.13902 -0.10743,0.26857 -0.24645,0.38863c-0.1327,0.11375 -0.28752,0.17062 -0.46446,0.17062c-0.1643,0 -0.31596,-0.05055 -0.45498,-0.15166c-0.13902,-0.10111 -0.22433,-0.22749 -0.25593,-0.37915c-0.0316,-0.15166 -0.04739,-0.39179 -0.04739,-0.72039v-3.72515c0,-0.33492 0.0158,-0.56873 0.04739,-0.70143c0.0316,-0.1327 0.11058,-0.24329 0.23697,-0.33176c0.1327,-0.08847 0.27804,-0.1327 0.43602,-0.1327c0.14534,0 0.297,0.06003 0.45498,0.1801c0.1643,0.11375 0.24645,0.39495 0.24645,0.84361c0.49921,-0.68247 1.14693,-1.02371 1.94314,-1.02371c0.30332,0 0.60032,0.06003 0.891,0.1801c0.297,0.11375 0.53713,0.30016 0.72039,0.55925c0.18958,0.25277 0.30332,0.51501 0.34124,0.78674c0.04423,0.27172 0.06635,0.56873 0.06635,0.891zM224.16432,176.92888c0.22117,0 0.4139,0.08215 0.5782,0.24645c0.1643,0.1643 0.24645,0.35703 0.24645,0.5782c0,0.23381 -0.08215,0.43286 -0.24645,0.59716c-0.1643,0.1643 -0.35703,0.24645 -0.5782,0.24645c-0.23381,0 -0.43286,-0.08215 -0.59716,-0.24645c-0.1643,-0.1643 -0.24645,-0.36335 -0.24645,-0.59716c0,-0.22117 0.08215,-0.4139 0.24645,-0.5782c0.1643,-0.1643 0.36335,-0.24645 0.59716,-0.24645zM224.16432,181.40286c0.22117,0 0.4139,0.08215 0.5782,0.24645c0.1643,0.15798 0.24645,0.35071 0.24645,0.5782c0,0.22749 -0.08215,0.42654 -0.24645,0.59716c-0.1643,0.1643 -0.35703,0.24645 -0.5782,0.24645c-0.23381,0 -0.43286,-0.08215 -0.59716,-0.24645c-0.1643,-0.1643 -0.24645,-0.36335 -0.24645,-0.59716c0,-0.22749 0.08215,-0.42023 0.24645,-0.5782c0.1643,-0.1643 0.36335,-0.24645 0.59716,-0.24645zM231.56889,176.80566c0,0.22749 0.09795,0.42654 0.29384,0.59716c0.20221,0.17062 0.71091,0.35387 1.52608,0.54977c0.82149,0.19589 1.42813,0.40127 1.81992,0.61612c0.3918,0.21485 0.67617,0.49606 0.85311,0.84361c0.17694,0.34124 0.26541,0.70143 0.26541,1.08058c0,0.7583 -0.28752,1.37758 -0.86257,1.85784c-0.57506,0.48026 -1.35548,0.72039 -2.34127,0.72039c-1.0869,0 -1.89891,-0.25909 -2.43604,-0.77726c-0.53081,-0.52449 -0.79622,-1.06478 -0.79622,-1.62087c0,-0.18326 0.06635,-0.34755 0.19905,-0.4929c0.13902,-0.14534 0.31912,-0.21801 0.54029,-0.21801c0.20221,0 0.35387,0.06003 0.45498,0.1801c0.10111,0.12006 0.22117,0.3444 0.36019,0.67299c0.30332,0.69511 0.84361,1.04266 1.62087,1.04266c0.4613,0 0.84993,-0.10427 1.16589,-0.3128c0.32228,-0.21485 0.48342,-0.50553 0.48342,-0.87205c0,-0.28436 -0.11058,-0.52765 -0.33176,-0.72986c-0.21485,-0.20221 -0.71722,-0.39495 -1.50712,-0.5782c-0.78358,-0.18326 -1.3365,-0.35703 -1.65878,-0.52133c-0.31596,-0.1643 -0.59084,-0.40127 -0.82465,-0.71091c-0.23381,-0.31596 -0.35071,-0.70775 -0.35071,-1.17537c0,-0.68879 0.27172,-1.23856 0.81517,-1.6493c0.54345,-0.41075 1.28595,-0.61612 2.22751,-0.61612c0.96051,0 1.68406,0.21801 2.17065,0.65403c0.48658,0.43602 0.72986,0.87521 0.72986,1.31755c0,0.18958 -0.07267,0.36651 -0.21801,0.53081c-0.13902,0.15798 -0.31596,0.23697 -0.53081,0.23697c-0.20223,0 -0.35389,-0.05687 -0.455,-0.17062c-0.10111,-0.11375 -0.21801,-0.30332 -0.35071,-0.56873c-0.27804,-0.55609 -0.7583,-0.83413 -1.44077,-0.83413c-0.39811,0 -0.73618,0.08847 -1.01423,0.26541c-0.27172,0.17062 -0.40759,0.39811 -0.40759,0.68247zM239.53473,181.24172l0.90048,-3.11851c0.11375,-0.38547 0.19905,-0.63824 0.25593,-0.7583c0.05687,-0.12006 0.15166,-0.22117 0.28436,-0.30332c0.1327,-0.08847 0.2812,-0.1327 0.4455,-0.1327c0.26541,0 0.4613,0.07267 0.58768,0.21801c0.12638,0.13902 0.26541,0.46446 0.41707,0.97631l0.90996,3.11851l0.97631,-3.36496c0.10743,-0.35387 0.20853,-0.60032 0.30332,-0.73934c0.09479,-0.13902 0.25909,-0.20853 0.4929,-0.20853c0.17694,0 0.33176,0.06635 0.46446,0.19905c0.1327,0.12638 0.19905,0.27172 0.19905,0.43602c0,0.1327 -0.05687,0.36651 -0.17062,0.70143l-1.23224,3.61141c-0.1327,0.38547 -0.23381,0.64139 -0.30332,0.76778c-0.06951,0.12006 -0.17062,0.22117 -0.30332,0.30332c-0.12638,0.08215 -0.26857,0.12322 -0.42654,0.12322c-0.31596,0 -0.54029,-0.09479 -0.67299,-0.28436c-0.12638,-0.18958 -0.25593,-0.50869 -0.38863,-0.95735l-0.85309,-2.93841l-0.83413,2.93841c-0.10111,0.37915 -0.18641,0.63824 -0.25593,0.77726c-0.06319,0.1327 -0.16746,0.24329 -0.3128,0.33176c-0.13902,0.08847 -0.29384,0.1327 -0.46446,0.1327c-0.1643,0 -0.31596,-0.04108 -0.45498,-0.12322c-0.13902,-0.07583 -0.24329,-0.17694 -0.3128,-0.30332c-0.06319,-0.12638 -0.16114,-0.38231 -0.29384,-0.76778l-1.23224,-3.61141c-0.11375,-0.32228 -0.17062,-0.55609 -0.17062,-0.70143c0,-0.1643 0.06319,-0.30964 0.18958,-0.43602c0.1327,-0.1327 0.29384,-0.19905 0.48342,-0.19905c0.23381,0 0.39495,0.06951 0.48342,0.20853c0.09479,0.1327 0.19274,0.37915 0.29384,0.73934zM247.57943,174.75825c0.19589,0 0.36335,0.07267 0.50237,0.21801c0.14534,0.14534 0.21801,0.31596 0.21801,0.51185c0,0.20221 -0.07267,0.37599 -0.21801,0.52133c-0.13902,0.14534 -0.30648,0.21801 -0.50237,0.21801c-0.20221,0 -0.37599,-0.07267 -0.52133,-0.21801c-0.14534,-0.14534 -0.21801,-0.31912 -0.21801,-0.52133c0,-0.19589 0.07267,-0.36651 0.21801,-0.51185c0.14534,-0.14534 0.31912,-0.21801 0.52133,-0.21801zM248.31877,178.16112v3.6588c0,0.36019 -0.0158,0.60664 -0.04739,0.73934c-0.0316,0.1327 -0.11691,0.25277 -0.25593,0.36019c-0.1327,0.10111 -0.27804,0.15166 -0.43602,0.15166c-0.1643,0 -0.31596,-0.05055 -0.45498,-0.15166c-0.13902,-0.10111 -0.22749,-0.22117 -0.26541,-0.36019c-0.0316,-0.13902 -0.04739,-0.38547 -0.04739,-0.73934v-3.63984c0,-0.33492 0.01264,-0.57189 0.03792,-0.71091c0.02528,-0.13902 0.10427,-0.26224 0.23697,-0.36967c0.13902,-0.11375 0.297,-0.17062 0.47394,-0.17062c0.17694,0 0.3286,0.05055 0.45498,0.15166c0.1327,0.09479 0.21485,0.21801 0.24645,0.36967c0.03792,0.15166 0.05687,0.38863 0.05687,0.71091zM251.22466,177.94311c0.53713,-0.67615 1.19432,-1.01423 1.97158,-1.01423c0.77094,0 1.3839,0.29384 1.83888,0.88152c0.45498,0.58136 0.68247,1.33334 0.68247,2.25594c0,0.87836 -0.22433,1.59875 -0.67299,2.16116c-0.44234,0.56241 -1.0553,0.84361 -1.83888,0.84361c-0.75198,0 -1.41233,-0.31596 -1.98106,-0.94788v1.97158c0,0.54345 -0.06635,0.88152 -0.19905,1.01423c-0.1327,0.1327 -0.3128,0.19905 -0.54029,0.19905c-0.27804,0 -0.47394,-0.09163 -0.58768,-0.27488c-0.11375,-0.18326 -0.17062,-0.51185 -0.17062,-0.98579v-5.95266c0,-0.30964 0.01264,-0.53713 0.03792,-0.68247c0.0316,-0.14534 0.11375,-0.26224 0.24645,-0.35071c0.1327,-0.08847 0.29068,-0.1327 0.47394,-0.1327c0.4929,0 0.73934,0.28436 0.73934,0.85309zM254.20099,180.03792c0,-0.66351 -0.14218,-1.15325 -0.42654,-1.46921c-0.27804,-0.32228 -0.60032,-0.48342 -0.96683,-0.48342c-0.43602,0 -0.79305,0.16114 -1.0711,0.48342c-0.27804,0.32228 -0.41707,0.7741 -0.41707,1.35546c0,0.61296 0.1327,1.09954 0.39811,1.45973c0.27172,0.35387 0.63824,0.53081 1.09954,0.53081c0.40443,0 0.73618,-0.16746 0.99527,-0.50237c0.25909,-0.33492 0.38863,-0.79305 0.38863,-1.37442zM261.16076,180.36967h-2.95737c0.01264,0.56241 0.1643,0.98579 0.45498,1.27015c0.297,0.28436 0.65087,0.42654 1.06162,0.42654c0.50553,0 0.97947,-0.22117 1.42181,-0.66351c0.18326,-0.18326 0.31596,-0.297 0.39811,-0.34124c0.08847,-0.04423 0.18641,-0.06635 0.29384,-0.06635c0.13902,0 0.25593,0.04423 0.35071,0.1327c0.09479,0.08215 0.14218,0.18641 0.14218,0.3128c0,0.33492 -0.23065,0.69195 -0.69195,1.0711c-0.4613,0.37283 -1.09006,0.55925 -1.88627,0.55925c-1.01107,0 -1.77885,-0.28436 -2.30334,-0.85309c-0.51817,-0.57504 -0.77726,-1.31439 -0.77726,-2.21803c0,-0.91628 0.25909,-1.65562 0.77726,-2.21803c0.52449,-0.56873 1.2512,-0.85309 2.18011,-0.85309c0.891,0 1.57663,0.26857 2.05689,0.80569c0.48658,0.53713 0.72986,1.11849 0.72986,1.74409c0,0.27172 -0.08215,0.48973 -0.24645,0.65403c-0.15798,0.15798 -0.4929,0.23697 -1.00475,0.23697zM258.20339,179.51658h2.74884c-0.01896,-0.50553 -0.15798,-0.88784 -0.41707,-1.14693c-0.25909,-0.26541 -0.5782,-0.39811 -0.95735,-0.39811c-0.79622,0 -1.25436,0.51501 -1.37442,1.54504zM273.33139,179.65876c0.19589,0 0.36651,0.06635 0.51185,0.19905c0.14534,0.1327 0.21801,0.30332 0.21801,0.51185c0,0.58136 -0.29384,1.17853 -0.88152,1.79148c-0.58136,0.60664 -1.40286,0.90996 -2.46448,0.90996c-1.30175,0 -2.27806,-0.40443 -2.92894,-1.21328c-0.64456,-0.80885 -0.96683,-1.7978 -0.96683,-2.96685c0,-1.26383 0.36019,-2.27806 1.08058,-3.04268c0.72039,-0.77094 1.65878,-1.15641 2.81519,-1.15641c0.99843,0 1.7978,0.27804 2.39812,0.83413c0.60664,0.54977 0.90996,1.09322 0.90996,1.63035c0,0.17062 -0.06635,0.33176 -0.19905,0.48342c-0.12638,0.14534 -0.30016,0.21801 -0.52133,0.21801c-0.19589,0 -0.34755,-0.05371 -0.45498,-0.16114c-0.10111,-0.11375 -0.24013,-0.33492 -0.41707,-0.66351c-0.17694,-0.33492 -0.42023,-0.59084 -0.72986,-0.76778c-0.30332,-0.18326 -0.63508,-0.27488 -0.99527,-0.27488c-0.68247,0 -1.22276,0.25593 -1.62087,0.76778c-0.39811,0.51185 -0.59716,1.24488 -0.59716,2.19907c0,0.94788 0.19589,1.65246 0.58768,2.11376c0.39179,0.4613 0.9226,0.69195 1.59243,0.69195c0.94156,0 1.57663,-0.4613 1.90523,-1.3839c0.11375,-0.30332 0.23065,-0.49921 0.35071,-0.58768c0.12006,-0.08847 0.25593,-0.1327 0.40759,-0.1327zM279.22566,182.21803c-0.71407,0.56873 -1.41549,0.85309 -2.10428,0.85309c-0.65087,0 -1.15325,-0.1643 -1.50712,-0.4929c-0.34755,-0.33492 -0.52133,-0.7425 -0.52133,-1.22276c0,-0.41075 0.11691,-0.7425 0.35071,-0.99527c0.24013,-0.25277 0.49921,-0.42654 0.77726,-0.52133c0.28436,-0.10111 0.7425,-0.21801 1.37442,-0.35071c0.63192,-0.1327 1.14061,-0.25277 1.52608,-0.36019c-0.00632,-0.45498 -0.09795,-0.76146 -0.27488,-0.91944c-0.17694,-0.1643 -0.4455,-0.24645 -0.80569,-0.24645c-0.68247,0 -1.13113,0.19274 -1.34598,0.5782c-0.11375,0.21485 -0.21801,0.36967 -0.3128,0.46446c-0.08847,0.08847 -0.22117,0.1327 -0.39811,0.1327c-0.15798,0 -0.30332,-0.05055 -0.43602,-0.15166c-0.12638,-0.10743 -0.18958,-0.24329 -0.18958,-0.40759c0,-0.39179 0.21169,-0.76462 0.63508,-1.11849c0.42338,-0.35387 1.09006,-0.53081 2.00002,-0.53081c0.9226,0 1.59559,0.16114 2.01897,0.48342c0.4297,0.31596 0.63192,0.96051 0.60664,1.93367l-0.02844,1.41233c-0.01264,0.43602 0.0316,0.79305 0.1327,1.0711c0.10743,0.27804 0.16114,0.48973 0.16114,0.63508c0,0.15798 -0.07267,0.30016 -0.21801,0.42654c-0.13902,0.12006 -0.29384,0.1801 -0.46446,0.1801c-0.30964,0 -0.63508,-0.28436 -0.97631,-0.85309zM279.13087,180.03792c-0.22749,0.08215 -0.60032,0.17694 -1.11849,0.28436c-0.51185,0.10111 -0.87836,0.21801 -1.09954,0.35071c-0.21485,0.1327 -0.32228,0.32544 -0.32228,0.5782c0,0.22117 0.08531,0.4139 0.25593,0.5782c0.17694,0.1643 0.42023,0.24645 0.72986,0.24645c0.33492,0 0.64456,-0.09163 0.92892,-0.27488c0.28436,-0.18326 0.45814,-0.39811 0.52133,-0.64456c0.06951,-0.25277 0.10427,-0.6256 0.10427,-1.11849zM282.1311,181.81992v-3.86733c0,-0.68247 0.24961,-1.02371 0.74882,-1.02371c0.47394,0 0.71722,0.31596 0.72986,0.94788c0.30964,-0.63192 0.7425,-0.94788 1.29859,-0.94788c0.29068,0 0.59084,0.07899 0.90048,0.23697c0.30964,0.15166 0.46446,0.36019 0.46446,0.6256c0,0.18326 -0.06319,0.33492 -0.18958,0.45498c-0.12006,0.12006 -0.25277,0.1801 -0.39811,0.1801c-0.08215,0 -0.23065,-0.0316 -0.4455,-0.09479c-0.20853,-0.06951 -0.38547,-0.10427 -0.53081,-0.10427c-0.36019,0 -0.62876,0.18326 -0.80569,0.54977c-0.17694,0.36651 -0.26541,1.0711 -0.26541,2.11376v0.87205c0,0.38547 -0.0158,0.64456 -0.04739,0.77726c-0.0316,0.1327 -0.11375,0.25593 -0.24645,0.36967c-0.1327,0.10743 -0.28436,0.16114 -0.45498,0.16114c-0.1643,0 -0.3128,-0.04739 -0.4455,-0.14218c-0.1327,-0.10111 -0.21801,-0.21801 -0.25593,-0.35071c-0.03792,-0.13902 -0.05687,-0.39179 -0.05687,-0.7583zM290.92775,182.20855v-0.15166c-0.51817,0.67615 -1.17537,1.01423 -1.97158,1.01423c-0.77094,0 -1.3839,-0.29384 -1.83888,-0.88152c-0.45498,-0.58768 -0.68247,-1.34598 -0.68247,-2.2749c0,-0.87205 0.22117,-1.58611 0.66351,-2.1422c0.44866,-0.56241 1.06478,-0.84361 1.84836,-0.84361c0.76462,0 1.42497,0.30964 1.98106,0.92892v-1.9621c0,-0.53713 0.06635,-0.87205 0.19905,-1.00475c0.13902,-0.1327 0.32544,-0.19905 0.55925,-0.19905c0.1643,0 0.3128,0.04739 0.4455,0.14218c0.13902,0.08847 0.22433,0.20853 0.25593,0.36019c0.0316,0.15166 0.04739,0.40127 0.04739,0.74882v5.94318c0,0.33492 -0.01896,0.57504 -0.05687,0.72039c-0.0316,0.14534 -0.11691,0.25909 -0.25593,0.34124c-0.13902,0.08215 -0.28752,0.12322 -0.4455,0.12322c-0.49921,0 -0.74882,-0.28752 -0.74882,-0.86257zM287.9609,179.96208c0,0.67615 0.14218,1.1722 0.42654,1.48816c0.28436,0.30964 0.6098,0.46446 0.97631,0.46446c0.4297,0 0.78358,-0.16114 1.06162,-0.48342c0.27804,-0.3286 0.41707,-0.78358 0.41707,-1.36494c0,-0.60664 -0.13586,-1.09006 -0.40759,-1.45025c-0.27172,-0.36019 -0.63192,-0.54029 -1.08058,-0.54029c-0.41075,0 -0.74566,0.16746 -1.00475,0.50237c-0.25909,0.33492 -0.38863,0.79622 -0.38863,1.3839z"/></g></g></svg>