<svg version="1.1" xmlns="http://www.w3.org/2000/svg" xmlns:xlink="http://www.w3.org/1999/xlink" width="246.56953" height="222.27976" viewBox="0,0,246.56953,222.27976"><defs><linearGradient x1="229.1084" y1="154.17662" x2="229.1084" y2="160.57391" gradientUnits="userSpaceOnUse" id="color-1"><stop offset="0" stop-color="#4a646d"/><stop offset="1" stop-color="#4d6871"/></linearGradient></defs><g transform="translate(-116.71523,-68.86012)"><g data-paper-data="{&quot;isPaintingLayer&quot;:true}" fill-rule="nonzero" stroke-linecap="butt" stroke-linejoin="miter" stroke-miterlimit="10" stroke-dasharray="" stroke-dashoffset="0" style="mix-blend-mode: normal"><path d="M247.50585,189.63426v-18.2h19.6v18.2z" fill="#000000" stroke="none" stroke-width="0"/><path d="M217.70582,170.63426v-21h11.2l11.4,17z" fill="#000000" stroke="none" stroke-width="0"/><path d="M201.50585,199.63426v-40.6h16v40.6z" fill="#000000" stroke="none" stroke-width="NaN"/><path d="M267.6448,168.9568c3.78401,1.03822 9.99432,3.0658 9.91376,5.36259c-0.04692,1.33758 -3.34428,4.9555 -4.49227,6.33853c-2.09896,2.52871 -4.78834,3.54073 -6.21514,3.80317c-0.04762,0.00877 -0.80753,0.07167 -1.66644,-0.46592c-1.00527,-0.62918 -2.12176,-2.22348 -3.52984,-3.31765c-3.09822,-2.82428 -8.06739,-6.80973 -8.67726,-7.57744c-0.54188,-0.68213 -0.98612,-2.48223 -0.62503,-3.85636c0.33389,-1.27062 1.0682,-2.09408 1.59576,-2.40035c1.34733,-0.78218 4.95125,-0.28599 13.69648,2.11343z" fill="#24a9bf" stroke="#000000" stroke-width="1"/><path d="M273.33865,172.49601c0.88482,0.32729 1.09278,0.97942 0.52936,1.62928c-1.74416,2.01176 -5.85119,5.95292 -10.23572,4.48984c-2.33728,-0.77993 -8.54511,-6.81402 -10.25377,-8.50467c-0.28135,-0.27839 -0.37123,-0.66056 -0.19465,-0.95349c0.34703,-0.57574 1.10768,-1.42722 2.56728,-1.41443c4.416,0.03869 13.98524,3.42102 17.5875,4.75346z" fill="#38ffdd" stroke="none" stroke-width="0"/><path d="M237.39009,160.83691c-0.0151,0.44092 -0.34131,0.9174 -0.75627,1.14199c-0.62335,0.33739 -1.53813,0.7874 -2.21315,0.92713c-1.76994,0.36635 -6.91654,0.9987 -9.83898,1.47351c-1.20488,0.19576 -2.09172,-1.10277 -2.06147,-2.26236c0.0385,-1.47609 -0.80888,-3.23728 -1.45758,-4.36142c-0.39673,-0.68752 -0.39655,-2.17136 0.18533,-2.39528c1.22735,-0.47234 5.82628,-2.1701 9.03796,-3.40608c1.78388,-0.68651 3.35619,-0.32724 3.86368,0.73013c0.95883,1.99775 2.64371,4.85843 3.02097,6.06569c0.21562,0.68999 0.23933,1.50812 0.21951,2.0867z" fill="#1b1c22" stroke="none" stroke-width="0"/><path d="M226.74057,188.81923c0,0 -1.37101,-2.28053 -0.19796,-4.12274c3.30657,-5.19279 12.63235,-14.51118 20.02916,-13.34531c5.91004,0.93153 27.30175,23.10501 26.51224,23.52167c-4.97406,2.62498 -16.87188,6.34667 -20.94121,5.34076c-2.11175,-0.522 -6.04333,-4.46062 -8.63825,-7.78479c-1.66972,-2.13897 -2.66628,-4.263 -2.66628,-4.263c0,0 -0.46355,0.63281 0.99361,3.09181c1.45716,2.459 4.62971,5.22231 4.30294,5.84627c-3.0314,5.78831 -22.86571,13.80677 -32.66372,5.01875c-9.79801,-8.78802 -11.64093,-38.80367 -9.5034,-42.83926c0.9472,-1.78828 1.89081,-7.60202 11.6067,-11.65113c6.92376,-1.71885 13.14523,1.88434 13.14523,1.88434c0,0 0.90864,1.29756 -0.0215,1.7326c-1.99277,0.93203 -6.4742,2.69732 -8.58648,3.58149c-1.21612,0.50906 2.43997,9.24409 2.91667,10.22149c0.39448,0.80882 10.16604,-1.17679 13.52507,-1.82793c0.70012,-0.13571 1.774,0.27341 2.07054,0.73598c0.46528,0.72579 2.16362,3.00332 3.1924,4.73119c0.17428,0.2927 1.68699,1.50301 0.00099,2.17671c-6.93151,2.76976 -14.82444,10.6087 -15.47739,12.5681c-0.98519,2.95641 0.40066,5.38301 0.40066,5.38301z" fill="#24a9bf" stroke="#1b1c22" stroke-width="1"/><path d="M207.01159,196.55976c0.26041,0.62424 0.54845,1.84099 -0.15814,2.319c-0.3335,0.22561 -0.81576,0.42337 -1.51291,0.51669c-4.00569,0.53618 -11.36482,-0.13086 -11.95526,-2.92561c-0.04183,-0.19798 -0.18818,-2.37429 -0.79134,-13.26261c-0.35684,-6.44153 1.03955,-17.74945 1.66773,-22.38968c0.17596,-1.29974 1.5266,-1.94811 2.36833,-1.8607c1.30548,0.13557 4.99529,0.51875 4.99529,0.51875c0,0 -0.16293,0.49643 -0.3289,1.5963c-0.266,1.76276 -0.53985,5.0756 -0.16334,10.3792c0.27487,3.87177 1.10297,9.29421 2.36249,14.22223c1.18369,4.63129 2.65649,8.82591 3.51605,10.8864z" fill="#24a9bf" stroke="#000000" stroke-width="1"/><path d="M226.39439,189.02894c0,0 -1.35059,-2.24655 -0.19502,-4.06131c3.25731,-5.11541 12.44412,-14.29496 19.73071,-13.14646c5.82198,0.91764 24.88193,20.94905 24.10419,21.35949c-4.89996,2.58586 -14.00358,4.84299 -18.01229,3.85208c-3.41886,-0.8451 -5.30184,-1.52394 -7.45012,-5.7134c-1.2375,-2.41329 -3.68598,-5.55099 -3.68598,-5.55099c0,0 -1.49554,2.03606 -1.43678,4.45484c0.05876,2.41878 2.34643,5.14449 2.02453,5.75915c-2.98623,5.70205 -22.93719,12.5774 -31.17051,-0.89372c-6.34617,-10.38342 -8.04539,-30.97869 -5.93971,-34.95416c0.93307,-1.76164 4.27822,-8.69655 11.03114,-11.07493c4.8076,-1.69324 12.94936,1.25237 12.94936,1.25237c0,0 -0.09652,0.45187 -1.0128,0.88043c-1.96308,0.91815 -5.88191,1.99604 -7.96272,2.86703c-1.19801,0.50147 -1.0938,1.69527 -0.56546,3.12086c0.78184,2.10961 2.30797,8.96039 2.77757,9.92324c0.4696,0.96285 1.43348,1.01842 2.52883,0.95677c3.74287,-0.21064 10.1052,-1.72189 11.54789,-1.52538c1.44269,0.19653 2.35546,3.08373 2.35546,3.08373c0,0 -12.47948,10.05222 -13.33519,12.62008c-0.97051,2.91236 1.71688,6.79026 1.71688,6.79026z" fill="#38ffdd" stroke="none" stroke-width="0"/><path d="M202.92154,196.11519c0.88758,1.33979 0.59689,2.13136 -0.75917,2.20352c-2.60967,0.13888 -6.56188,-0.30321 -7.35908,-4.07658c-1.33976,-6.34149 0.55956,-32.86839 0.58921,-33.41061c0.02965,-0.54223 1.86576,-0.40247 2.12672,-0.36815c0.41349,0.05437 0.63806,0.18067 0.53382,0.731c-0.03203,0.16911 -0.06602,0.3662 -0.10017,0.59247c-0.23279,1.54269 -0.47246,4.44192 -0.14295,9.08338c0.53511,7.53748 0.96166,13.06808 2.5363,19.17771c0.73155,2.83843 1.73604,4.80035 2.57534,6.06726z" fill="#38ffdd" stroke="none" stroke-width="0"/><path d="M142.1555,179.63865c0,-48.24308 43.38237,-87.35181 96.89723,-87.35181c53.51488,0 96.89723,39.10874 96.89723,87.35181c0,48.24308 -43.38237,87.35181 -96.89725,87.35181c-53.51488,0 -96.89723,-39.10872 -96.89723,-87.35181z" data-paper-data="{&quot;index&quot;:null}" fill="none" stroke="none" stroke-width="0"/><g stroke="none" stroke-width="0"><path d="M237.63003,161.40109c-0.01611,0.47034 -0.36409,0.97862 -0.80674,1.2182c-0.66495,0.3599 -1.64077,0.83995 -2.36084,0.989c-1.88805,0.3908 -7.3781,1.06535 -10.49557,1.57184c-1.28529,0.20882 -2.23131,-1.17636 -2.19904,-2.41334c0.04107,-1.57459 -0.86286,-3.45331 -1.55485,-4.65247c-0.42321,-0.7334 -0.42301,-2.31626 0.1977,-2.55513c1.30926,-0.50386 6.21509,-2.31492 9.64109,-3.63338c1.90292,-0.73232 3.58016,-0.34908 4.12152,0.77885c1.02282,2.13107 2.82013,5.18265 3.22257,6.47047c0.23001,0.73604 0.2553,1.60876 0.23416,2.22595z" data-paper-data="{&quot;index&quot;:null}" fill="#1b1c22"/><path d="M236.83319,161.01797c-0.01448,0.42271 -0.32722,0.87952 -0.72505,1.09484c-0.59762,0.32345 -1.47463,0.75489 -2.12178,0.88885c-1.69686,0.35122 -6.63098,0.95747 -9.43277,1.41267c-1.15514,0.18768 -2.00536,-1.05724 -1.97636,-2.16896c0.03691,-1.41514 -0.77548,-3.10362 -1.3974,-4.18135c-0.38036,-0.65913 -0.38018,-2.08171 0.17768,-2.29639c1.17668,-0.45284 5.58573,-2.08051 8.66481,-3.26546c1.71023,-0.65817 3.21763,-0.31373 3.70417,0.69998c0.91925,1.91528 2.53456,4.65785 2.89625,5.81526c0.20672,0.66151 0.22945,1.44586 0.21045,2.00055z" data-paper-data="{&quot;index&quot;:null}" fill="#94c9da"/><path d="M234.56227,158.79017c0.13918,0.44539 -0.32102,1.42154 -1.04854,1.42536c-1.16555,0.00613 -3.01599,-0.01679 -4.7627,0.06687c-1.2153,0.05821 -2.38038,0.20311 -3.22961,0.28599c-0.81716,0.07975 -1.33389,-0.72891 -1.36326,-1.038c-0.05306,-0.55841 -0.18483,-1.06862 -0.45437,-1.53571c-0.2561,-0.4438 0.20478,-1.24804 0.58038,-1.39258c0.38033,-0.14637 2.18374,-0.7822 3.22736,-1.17268c1.13029,-0.4229 1.52877,-0.61113 2.60667,-1.02595c1.15149,-0.44314 2.16643,-0.21124 2.49402,0.4713c0.61893,1.28956 1.70652,3.13613 1.95005,3.91542z" data-paper-data="{&quot;index&quot;:null}" fill="url(#color-1)"/></g><path d="M116.71526,180c0,-61.38087 55.19647,-111.13988 123.28475,-111.13988c68.08831,0 123.28475,49.75903 123.28475,111.13988c0,61.38087 -55.19647,111.13988 -123.28478,111.13988c-68.08831,0 -123.28475,-49.759 -123.28475,-111.13988z" data-paper-data="{&quot;index&quot;:null}" fill="none" stroke="none" stroke-width="0"/></g></g></svg>