<svg version="1.1" xmlns="http://www.w3.org/2000/svg" xmlns:xlink="http://www.w3.org/1999/xlink" width="354.74999" height="91.4027" viewBox="0,0,354.74999,91.4027"><g transform="translate(77.24999,-123.8585)"><g data-paper-data="{&quot;isPaintingLayer&quot;:true}" fill-rule="nonzero" stroke-linejoin="miter" stroke-miterlimit="10" stroke-dasharray="" stroke-dashoffset="0" style="mix-blend-mode: normal"><text transform="translate(-76.99999,145.44444) scale(0.5,0.5)" font-size="40" xml:space="preserve" fill="#ffffff" fill-rule="nonzero" stroke="none" stroke-width="1" stroke-linecap="butt" stroke-linejoin="miter" stroke-miterlimit="10" stroke-dasharray="" stroke-dashoffset="0" font-family="Sans Serif" font-weight="normal" text-anchor="start" style="mix-blend-mode: normal"><tspan x="0" dy="0"> </tspan></text><path d="M210.81744,204.82784c0,-12.01784 0,-46.0465 0,-50.94544c0,-1.57362 1.66178,-2.90196 3.54684,-2.90196c6.17489,0 40.11775,0 51.26788,0c2.23182,0 3.55046,1.18889 3.55046,3.2244c0,6.34387 0,40.15015 0,51.26788c0,2.22971 -2.03698,3.54683 -4.51777,3.54683c-6.71661,0 -38.19001,0 -49.65568,0c-2.61703,0 -4.19171,-1.57351 -4.19171,-4.19171z" fill="#a3b4e0" stroke="#293b6b" stroke-width="3" stroke-linecap="butt"/><path d="M246.70061,194.75977h-12.953c-1.37448,0 -2.27088,-0.2988 -2.68921,-0.89641c-0.41832,-0.5976 -0.62748,-1.13545 -0.62748,-1.61352c0,-0.95616 0.49302,-2.10654 1.47906,-3.45115c0.98604,-1.34461 2.83861,-3.13741 5.55769,-5.37841c2.71908,-2.27088 4.48201,-3.89935 5.28877,-4.88539c0.83664,-1.01592 1.25496,-2.13642 1.25496,-3.36151c0,-1.25496 -0.41833,-2.24101 -1.25496,-2.95813c-0.83664,-0.71712 -1.85256,-1.07568 -3.04776,-1.07568c-1.01592,0 -1.91233,0.26892 -2.68921,0.80676c-0.747,0.53784 -1.29978,1.32966 -1.65834,2.37546c-0.35856,1.04581 -0.71713,1.80775 -1.07569,2.28583c-0.32869,0.4482 -0.86652,0.6723 -1.61352,0.6723c-0.62748,0 -1.15038,-0.19422 -1.5687,-0.58266c-0.41832,-0.41832 -0.62748,-0.9711 -0.62748,-1.65834c0,-1.91232 0.80676,-3.69019 2.42028,-5.33359c1.61352,-1.6434 3.91429,-2.4651 6.90229,-2.4651c3.19717,0 5.54275,0.77688 7.03676,2.33065c1.49401,1.55376 2.241,3.37645 2.241,5.46805c0,1.6434 -0.49302,3.2121 -1.47906,4.70611c-0.98604,1.46412 -2.52487,3.04776 -4.61647,4.75093c-2.0916,1.70316 -3.45115,2.83861 -4.07863,3.40633c-0.5976,0.56772 -1.28484,1.38943 -2.06173,2.46511h9.1433c1.40437,0 2.34559,0.19422 2.82367,0.58266c0.50797,0.38843 0.76194,0.91135 0.76194,1.5687c0,0.74699 -0.22411,1.31472 -0.6723,1.70316c-0.4482,0.35856 -1.18027,0.53785 -2.19619,0.53785z" fill="#3e4f7b" stroke="none" stroke-width="1" stroke-linecap="square"/><path d="M201.19842,215.2612v-71.74627h76.30158v71.74628z" fill="none" stroke="none" stroke-width="none" stroke-linecap="butt"/></g></g></svg>