<svg version="1.1" xmlns="http://www.w3.org/2000/svg" xmlns:xlink="http://www.w3.org/1999/xlink" width="304.3003" height="304.30025" viewBox="0,0,304.3003,304.30025"><g transform="translate(-92.84985,-32.84988)"><g data-paper-data="{&quot;isPaintingLayer&quot;:true}" stroke-miterlimit="10" stroke-dasharray="" stroke-dashoffset="0" style="mix-blend-mode: normal"><path d="M251.19056,249.82757c-33.59046,-13.63109 -25.1395,-41.37538 -25.1395,-41.37538c0,0 26.03837,-26.43427 45.49052,-26.43427c19.25264,0 70.63001,26.43427 70.63001,26.43427c0,0 11.48962,21.89619 -2.4865,31.23943c-22.7729,15.22402 -68.85434,18.10599 -88.49454,10.13595z" fill="#94c9db" fill-rule="nonzero" stroke="none" stroke-width="0" stroke-linecap="butt" stroke-linejoin="miter"/><path d="M259.57038,220.91705c-2.72057,-12.92273 19.27172,-16.66737 37.91234,-12.19322c26.17019,6.28142 29.49666,20.07232 25.53497,21.77018c-8.33775,3.57332 -58.26378,15.04475 -63.4473,-9.57695z" fill="#fefefe" fill-rule="nonzero" stroke="none" stroke-width="0" stroke-linecap="butt" stroke-linejoin="miter"/><path d="M339.43799,193.78274c0,0 21.47336,5.60174 25.20785,23.3406c3.73449,17.73886 -11.20348,49.79327 -69.08817,60.99676c-75.31234,15.5604 -111.10125,-29.25355 -90.25032,-62.2416c20.85093,-33.29925 56.63985,-4.97932 82.78133,-6.84658c22.40697,-1.55604 24.89664,-21.16214 51.34932,-15.24919z" fill="#ffffff" fill-rule="evenodd" stroke="none" stroke-width="15" stroke-linecap="butt" stroke-linejoin="miter"/><path d="M251.91798,227.082c0,-1.24483 1.24484,-2.17846 2.48967,-1.86725c5.91295,2.17846 22.71818,7.15779 41.39066,8.40262c16.80523,0.93363 26.76389,0 31.43201,-0.93363c1.55604,-0.31121 2.80087,1.24483 2.17845,2.80087c-2.80087,8.40261 -14.62678,31.74322 -47.30362,29.87597c-28.31993,-3.11208 -31.1208,-23.02939 -30.18717,-38.27858z" fill="#ffffff" fill-rule="evenodd" stroke="#001026" stroke-width="15" stroke-linecap="round" stroke-linejoin="round"/><path d="M297.35434,200.94053c6.53537,0 13.38194,0.62241 13.69315,2.80087c0.31121,4.35691 -4.35691,13.07073 -9.33624,13.38194c-5.60174,0.62241 -18.67248,-7.15779 -18.67248,-12.13712c-0.31121,-3.73449 8.09141,-4.0457 14.31557,-4.0457z" fill="#001026" fill-rule="evenodd" stroke="#001026" stroke-width="15" stroke-linecap="round" stroke-linejoin="round"/><g fill-rule="evenodd" stroke-width="15"><path d="M334.07689,164.52919c9.02503,14.00436 9.33624,29.87597 0.62241,35.47771c-8.71382,5.60174 -23.02939,-0.93362 -32.36563,-14.93798c-9.02503,-14.00436 -9.33624,-29.87597 -0.62242,-35.47771c8.71382,-5.91295 23.3406,0.93362 32.36563,14.93798z" fill="#ffffff" stroke="#001026" stroke-linecap="round" stroke-linejoin="round"/><path d="M332.83206,182.26805c0,3.42329 -2.48966,6.22416 -5.60174,6.22416c-3.11208,0 -5.60175,-2.80087 -5.60175,-6.22416c0,-3.42329 2.48967,-6.22416 5.60175,-6.22416c3.11208,0 5.60174,2.80087 5.60174,6.22416" fill="#001026" stroke="none" stroke-linecap="butt" stroke-linejoin="miter"/></g><g fill-rule="evenodd" stroke-width="15"><path d="M256.89731,173.24301c9.33624,13.69315 8.71382,30.49838 0.3112,36.41133c-10.26986,5.91295 -23.96301,1.55604 -33.29925,-12.13711c-9.64745,-13.69315 -10.26987,-31.43201 -0.62242,-38.27858c9.64745,-7.15778 24.27423,0.31121 33.61047,14.00436z" fill="#ffffff" stroke="#001026" stroke-linecap="round" stroke-linejoin="round"/><path d="M255.03006,191.29308c0,3.42329 -2.48967,6.22416 -5.60174,6.22416c-3.11208,0 -5.60174,-2.80087 -5.60174,-6.22416c0,-3.42329 2.48966,-6.22416 5.60174,-6.22416c3.11208,0.31121 5.60174,2.80087 5.60174,6.22416" fill="#001026" stroke="none" stroke-linecap="butt" stroke-linejoin="miter"/></g><path d="M297.35435,200.94053c6.53537,0 13.38194,0.62242 13.69315,2.80087c0.31121,4.35691 -4.35691,13.07074 -9.33624,13.38194c-5.60174,0.62242 -18.67248,-7.15778 -18.67248,-12.13711c-0.31121,-3.7345 8.09141,-4.0457 14.31557,-4.0457z" fill="#001026" fill-rule="evenodd" stroke="#001026" stroke-width="7.5" stroke-linecap="round" stroke-linejoin="round"/><g fill-rule="evenodd" stroke-width="7.5"><path d="M334.07689,164.52919c9.02503,14.00436 9.33624,29.87597 0.62242,35.47771c-8.71382,5.60174 -23.02939,-0.93362 -32.36563,-14.93798c-9.02503,-14.00436 -9.33624,-29.87597 -0.62242,-35.47771c8.71382,-5.91295 23.3406,0.93362 32.36563,14.93798z" fill="#ffffff" stroke="#001026" stroke-linecap="round" stroke-linejoin="round"/><path d="M332.83206,182.26805c0,3.42329 -2.48966,6.22416 -5.60174,6.22416c-3.11208,0 -5.60174,-2.80087 -5.60174,-6.22416c0,-3.42329 2.48966,-6.22416 5.60174,-6.22416c3.11208,0 5.60174,2.80087 5.60174,6.22416" fill="#001026" stroke="none" stroke-linecap="butt" stroke-linejoin="miter"/></g><g fill-rule="evenodd" stroke-width="7.5"><path d="M256.89731,173.24302c9.33624,13.69315 8.71382,30.49838 0.31121,36.41134c-10.26986,5.91295 -23.96302,1.55604 -33.29926,-12.13711c-9.64745,-13.69315 -10.26986,-31.43201 -0.62242,-38.27858c9.64745,-7.15778 24.27422,0.31121 33.61046,14.00436z" fill="#ffffff" stroke="#001026" stroke-linecap="round" stroke-linejoin="round"/><path d="M255.03006,191.29308c0,3.42329 -2.48966,6.22416 -5.60174,6.22416c-3.11208,0 -5.60174,-2.80087 -5.60174,-6.22416c0,-3.42329 2.48966,-6.22416 5.60174,-6.22416c3.11208,0.31121 5.60174,2.80087 5.60174,6.22416" fill="#001026" stroke="none" stroke-linecap="butt" stroke-linejoin="miter"/></g><path d="M94.84986,275.23518c0,-59.99896 0,-148.11906 0,-181.81815c0,-26.16557 22.73163,-58.56714 54.69562,-58.56714c60.91162,0 155.35022,0 189.899,0c25.1397,0 55.70568,31.10369 55.70568,56.54696c0,34.37139 0,127.20919 0,187.87876c0,32.57375 -30.56593,55.87453 -55.70568,55.87453c-33.79375,0 -124.88841,0 -185.85858,0c-34.07175,0 -58.73599,-25.26921 -58.73599,-59.91496z" fill="#83a08b" fill-rule="nonzero" stroke="#83a08b" stroke-width="4" stroke-linecap="butt" stroke-linejoin="miter"/><g fill-rule="nonzero" stroke-linejoin="miter"><path d="M147.58637,190.49973c0,0 10.76634,-27.32567 71.41971,-30.98138c89.09054,-5.3697 110.04919,13.07662 114.55762,19.51323c0.98838,1.41109 0.79366,1.26379 0.79366,1.26379" fill="none" stroke="#000000" stroke-width="39" stroke-linecap="round"/><path d="M142.02035,188.33518c0,0 14.2197,-30.24817 76.45362,-34.03759c91.41214,-5.56605 112.49388,13.12747 117.11981,19.79947c1.01414,1.46271 1.2374,1.73738 1.2374,1.73738" fill="none" stroke="#000000" stroke-width="25" stroke-linecap="round"/><path d="M333.748,181.16676c0,0 18.42331,18.43888 -93.77416,24.9635c-69.9908,4.07019 -92.56597,-14.1351 -92.56597,-14.1351" fill="none" stroke="#000000" stroke-width="34.5" stroke-linecap="round"/><path d="M333.748,181.16676c0,0 18.4233,18.43886 -93.77416,24.9635c-69.99081,4.07019 -92.56597,-14.1351 -92.56597,-14.1351" fill="none" stroke="#000000" stroke-width="39" stroke-linecap="round"/><path d="M333.748,181.16675c0,0 18.42331,18.43888 -93.77416,24.9635c-69.9908,4.07019 -92.56597,-14.13511 -92.56597,-14.13511" fill="none" stroke="#de9e1f" stroke-width="21.5" stroke-linecap="round"/><path d="M145.27333,188.18669c0,0 3.0424,-6.17363 13.25254,-12.97755c10.809,-7.203 29.65122,-15.1124 61.42132,-17.15112c90.7454,-5.82324 110.16583,10.71158 114.758,17.69185c1.00675,1.53029 0.8084,1.37053 0.8084,1.37053" fill="none" stroke="#de9e1f" stroke-width="17.5" stroke-linecap="round"/><path d="M337.35151,178.77333c0,0 13.05589,18.71112 -79.87781,26.15608c-5.45462,0.43697 -11.27968,0.83911 -17.49985,1.20084c-69.99081,4.07019 -94.87901,-15.67713 -94.87901,-15.67713" fill="none" stroke="#fedf08" stroke-width="15" stroke-linecap="round"/><path d="M145.27333,188.18669c0,0 10.96633,-29.63375 72.74633,-33.59823c90.74539,-5.82324 112.09336,14.18113 116.68554,21.16141c1.00675,1.53028 0.8084,1.37053 0.8084,1.37053" fill="none" stroke="#fedf08" stroke-width="17" stroke-linecap="round"/><path d="M159.06534,185.13805c0,0 -1.37405,-0.19016 -0.4938,-1.47978c4.63391,-6.789 25.97831,-27.15479 82.57246,-26.76538c87.47054,0.60185 86.19495,21.88431 86.19495,21.88431c0,0 -0.3155,1.46366 -3.42136,-0.09599c-5.0952,-2.55863 -16.70066,-9.14196 -27.19508,-10.80013c-20.3051,-3.20831 -46.37413,-1.24734 -53.8095,-1.24734c-2.94503,0 -20.67728,-2.37914 -28.76641,-0.72769c-10.18971,2.08029 -23.15573,3.59266 -32.58098,7.06981c-13.91526,5.13359 -22.50029,12.1622 -22.50029,12.1622z" fill="#de9e1f" stroke="none" stroke-width="0" stroke-linecap="butt"/><path d="M325.80012,179.16153c0,0 -6.91404,3.27778 -15.58088,6.56604c-11.22709,4.25964 -35.10604,8.02104 -71.68779,8.72196c-45.51691,0.87213 -78.84986,-8.0955 -78.84986,-8.0955" fill="none" stroke="#000000" stroke-width="5.5" stroke-linecap="round"/></g></g></g></svg>