<svg version="1.1" xmlns="http://www.w3.org/2000/svg" xmlns:xlink="http://www.w3.org/1999/xlink" width="233.17158" height="54.6367" viewBox="0,0,233.17158,54.6367"><g transform="translate(-124.91571,-156.39737)"><g data-paper-data="{&quot;isPaintingLayer&quot;:true}" fill-rule="nonzero" stroke-miterlimit="10" stroke-dasharray="" stroke-dashoffset="0" style="mix-blend-mode: normal"><g fill="#000000" stroke-linecap="butt" stroke-linejoin="miter"><path d="M132.41571,192.92747c0,-6.97322 0,-23.26015 0,-26.45973c0,-1.04417 1.41136,-2.57037 3.45591,-2.57037c6.45988,0 42.24056,0 82.79797,0c52.23998,0 112.40491,0 128.04485,0c2.50966,0 3.87285,1.49892 3.87285,3.02397c0,3.59787 0,18.56163 0,25.55253c0,2.21433 -1.56798,3.62876 -4.4366,3.62876c-29.41576,0 -195.59532,0 -210.27906,0c-2.04456,0 -3.45591,-1.22238 -3.45591,-3.17517z" stroke="#000000" stroke-width="15"/><path d="M132.41571,192.92747c0,-6.97322 0,-23.26015 0,-26.45973c0,-1.04417 1.41136,-2.57037 3.45591,-2.57037c14.78053,0 183.06054,0 210.84281,0c2.50966,0 3.87285,1.49892 3.87285,3.02397c0,3.59787 0,18.56163 0,25.55253c0,2.21433 -1.56798,3.62876 -4.4366,3.62876c-29.41576,0 -195.59532,0 -210.27906,0c-2.04456,0 -3.45591,-1.22238 -3.45591,-3.17517z" stroke="#ffffff" stroke-width="7"/><path d="M132.41571,192.92747c0,-6.97322 0,-23.26015 0,-26.45973c0,-1.04417 1.41136,-2.57037 3.45591,-2.57037c14.78053,0 183.06054,0 210.84281,0c2.50966,0 3.87285,1.49892 3.87285,3.02397c0,3.59787 0,18.56163 0,25.55253c0,2.21433 -1.56798,3.62876 -4.4366,3.62876c-29.41576,0 -195.59532,0 -210.27906,0c-2.04456,0 -3.45591,-1.22238 -3.45591,-3.17517z" stroke="none" stroke-width="0"/></g><path d="M196.10452,184.02027h5.05553c0.54377,0 0.90137,0.0196 1.07283,0.05879c0.17146,0.03429 0.34536,0.14206 0.52172,0.32331c0.18125,0.17636 0.27188,0.39191 0.27188,0.64664c0,0.25474 -0.08328,0.48008 -0.24984,0.67603c-0.16656,0.19105 -0.35271,0.30617 -0.55846,0.34536c-0.20575,0.03429 -0.55846,0.05143 -1.05813,0.05143h-5.47438c-0.97976,0 -1.54312,-0.07103 -1.69008,-0.21309c-0.14207,-0.14696 -0.27678,-0.30617 -0.40415,-0.47763c-0.12737,-0.17146 -0.19105,-0.70052 -0.19105,-1.58721v-9.15581c0,-0.62214 0.02204,-1.05324 0.06614,-1.29327c0.04409,-0.24004 0.18615,-0.46049 0.42619,-0.66134c0.24004,-0.20575 0.52418,-0.30862 0.85239,-0.30862c0.34292,0 0.63439,0.09798 0.87443,0.29393c0.24004,0.19595 0.37966,0.42129 0.41885,0.67603c0.04409,0.25474 0.06614,0.68583 0.06614,1.29327zM211.64036,181.86726h-4.92327c0.0245,0.93077 0.27923,1.63375 0.76421,2.10892c0.48988,0.47518 1.07283,0.71277 1.74886,0.71277c0.84259,0 1.63375,-0.36741 2.37346,-1.10223c0.29882,-0.30863 0.51927,-0.49967 0.66133,-0.57315c0.14696,-0.07348 0.30862,-0.11023 0.48498,-0.11023c0.22535,0 0.41884,0.07103 0.5805,0.2131c0.16656,0.14207 0.24984,0.31597 0.24984,0.52172c0,0.56336 -0.38701,1.15611 -1.16101,1.77826c-0.7691,0.62214 -1.81254,0.93321 -3.13031,0.93321c-1.68028,0 -2.95396,-0.47273 -3.82104,-1.41819c-0.86219,-0.94547 -1.29327,-2.17261 -1.29327,-3.68143c0,-1.51862 0.43109,-2.74577 1.29327,-3.68143c0.86709,-0.94056 2.07218,-1.41084 3.6153,-1.41084c1.47943,0 2.61839,0.44333 3.41689,1.33002c0.8034,0.88668 1.2051,1.85173 1.2051,2.89517c0,0.45559 -0.13472,0.8181 -0.40415,1.08753c-0.26453,0.26453 -0.81809,0.3968 -1.66069,0.3968zM206.71709,180.44171h4.56321c-0.02939,-0.8328 -0.25964,-1.46718 -0.69073,-1.90317c-0.4262,-0.43599 -0.95526,-0.65399 -1.5872,-0.65399c-1.32756,0 -2.08933,0.85238 -2.28528,2.55716zM222.15743,184.93879c-1.1953,0.94056 -2.36611,1.41084 -3.51243,1.41084c-1.08263,0 -1.91542,-0.27433 -2.49838,-0.82299c-0.57806,-0.55356 -0.86708,-1.22715 -0.86708,-2.02075c0,-0.68093 0.19595,-1.22959 0.58785,-1.64598c0.3968,-0.42129 0.82789,-0.71522 1.29327,-0.88178c0.46538,-0.16656 1.22225,-0.35762 2.27059,-0.57316c1.05324,-0.22045 1.90072,-0.42129 2.54246,-0.60255c-0.0049,-0.75931 -0.15431,-1.27123 -0.44824,-1.53576c-0.29393,-0.26943 -0.74216,-0.40415 -1.34472,-0.40415c-1.13652,0 -1.88113,0.31842 -2.23384,0.95526c-0.19595,0.36251 -0.36986,0.6197 -0.52172,0.77156c-0.15186,0.15186 -0.3723,0.2278 -0.66133,0.2278c-0.26453,0 -0.50458,-0.08573 -0.72012,-0.25719c-0.21064,-0.17636 -0.31597,-0.4017 -0.31597,-0.67603c0,-0.65153 0.35026,-1.26878 1.05078,-1.85174c0.70542,-0.58295 1.815,-0.87443 3.32872,-0.87443c1.53331,0 2.65514,0.26453 3.36546,0.7936c0.71032,0.52907 1.04344,1.59945 0.99935,3.21115l-0.05879,2.35141c-0.0245,0.72502 0.05143,1.31777 0.22779,1.77826c0.17636,0.46049 0.26453,0.8132 0.26453,1.05814c0,0.26453 -0.11757,0.49722 -0.35271,0.69807c-0.23024,0.20085 -0.49233,0.30128 -0.78626,0.30128c-0.50948,0 -1.04588,-0.47028 -1.60924,-1.41084zM221.98841,181.3088c-0.37231,0.14696 -0.98955,0.30617 -1.85173,0.47763c-0.85728,0.17146 -1.46474,0.36741 -1.82235,0.58785c-0.35761,0.22045 -0.53642,0.54132 -0.53642,0.96261c0,0.36251 0.14207,0.68093 0.4262,0.95526c0.28413,0.27433 0.68583,0.4115 1.2051,0.4115c0.55356,0 1.06548,-0.14941 1.53576,-0.44823c0.47518,-0.30372 0.76666,-0.66379 0.87443,-1.08018c0.11267,-0.41639 0.16901,-1.03854 0.16901,-1.86643zM230.80071,183.43242l2.18241,-5.96671c0.21554,-0.59275 0.41639,-0.95771 0.60255,-1.09488c0.18616,-0.14207 0.39925,-0.2131 0.63929,-0.2131c0.33312,0 0.6099,0.11267 0.83034,0.33802c0.22535,0.22535 0.33802,0.46048 0.33802,0.70542c0,0.22535 -0.12492,0.64419 -0.37476,1.25654l-2.42489,5.97406c-0.33312,0.85238 -0.6197,1.38636 -0.85974,1.6019c-0.23514,0.21064 -0.54622,0.31597 -0.93322,0.31597c-0.48498,0 -0.83769,-0.13472 -1.05813,-0.40415c-0.21554,-0.26943 -0.47273,-0.774 -0.77156,-1.51372l-2.38815,-5.90793c-0.24984,-0.59765 -0.37476,-1.02629 -0.37476,-1.28592c0,-0.26453 0.11512,-0.50948 0.34537,-0.73482c0.23024,-0.23024 0.51682,-0.34536 0.85974,-0.34536c0.37721,0 0.64174,0.10777 0.7936,0.32332c0.15676,0.21064 0.34536,0.62214 0.56581,1.23449zM244.19273,181.86726h-4.92327c0.0245,0.93077 0.27922,1.63375 0.76421,2.10892c0.48988,0.47518 1.07283,0.71277 1.74886,0.71277c0.84259,0 1.63374,-0.36741 2.37346,-1.10223c0.29882,-0.30863 0.51927,-0.49967 0.66134,-0.57315c0.14696,-0.07348 0.30862,-0.11023 0.48498,-0.11023c0.22535,0 0.41885,0.07103 0.58051,0.2131c0.16656,0.14207 0.24984,0.31597 0.24984,0.52172c0,0.56336 -0.38701,1.15611 -1.16101,1.77826c-0.7691,0.62214 -1.81254,0.93321 -3.13031,0.93321c-1.68028,0 -2.95396,-0.47273 -3.82104,-1.41819c-0.86219,-0.94547 -1.29327,-2.17261 -1.29327,-3.68143c0,-1.51862 0.43109,-2.74577 1.29327,-3.68143c0.86709,-0.94056 2.07218,-1.41084 3.6153,-1.41084c1.47943,0 2.6184,0.44333 3.4169,1.33002c0.8034,0.88668 1.2051,1.85173 1.2051,2.89517c0,0.45559 -0.13472,0.8181 -0.40415,1.08753c-0.26454,0.26453 -0.81809,0.3968 -1.66068,0.3968zM239.26947,180.44171h4.56321c-0.02939,-0.8328 -0.25964,-1.46718 -0.69073,-1.90317c-0.4262,-0.43599 -0.95526,-0.65399 -1.5872,-0.65399c-1.32756,0 -2.08933,0.85238 -2.28528,2.55716zM260.82345,177.86251v-0.33801c0,-0.45559 0.11267,-0.79605 0.33801,-1.0214c0.22535,-0.23024 0.50948,-0.34536 0.85239,-0.34536c0.37721,0 0.66868,0.13227 0.87443,0.3968c0.20575,0.26453 0.30862,0.83769 0.30862,1.71947v6.73826c0,1.9938 -0.42129,3.33607 -1.26388,4.02679c-0.84259,0.69072 -2.05994,1.03609 -3.65204,1.03609c-1.42554,0 -2.54001,-0.26453 -3.34341,-0.7936c-0.8034,-0.52417 -1.2051,-1.08018 -1.2051,-1.66803c0,-0.31842 0.10532,-0.57561 0.31597,-0.77156c0.21555,-0.19105 0.46539,-0.28657 0.74952,-0.28657c0.26454,0 0.47518,0.06124 0.63194,0.18371c0.15676,0.12737 0.42129,0.4262 0.7936,0.89648c0.3723,0.47518 1.00425,0.71277 1.89583,0.71277c0.48987,0 0.94301,-0.07838 1.35941,-0.23514c0.42129,-0.15186 0.72992,-0.42374 0.92586,-0.81564c0.20085,-0.387 0.29638,-1.33002 0.28658,-2.82905c-0.76911,1.10223 -1.81745,1.65333 -3.14502,1.65333c-1.27858,0 -2.29017,-0.47763 -3.03479,-1.43289c-0.74462,-0.96016 -1.11692,-2.18731 -1.11692,-3.68143c0,-1.48923 0.3821,-2.66983 1.14631,-3.54181c0.76911,-0.87198 1.76601,-1.30797 2.9907,-1.30797c1.33736,0 2.43469,0.56825 3.29198,1.70477zM255.92958,181.20592c0,0.97485 0.2131,1.71947 0.63929,2.23385c0.4262,0.50948 1.00915,0.76421 1.74887,0.76421c0.64174,0 1.19775,-0.24739 1.66803,-0.74216c0.47028,-0.49967 0.70542,-1.24183 0.70542,-2.22649c0,-0.97485 -0.21799,-1.74642 -0.65398,-2.31468c-0.43109,-0.56826 -1.0165,-0.85238 -1.75621,-0.85238c-0.71032,0 -1.28103,0.26699 -1.71212,0.80095c-0.4262,0.52907 -0.63929,1.30797 -0.63929,2.33671zM272.05145,184.93879c-1.1953,0.94056 -2.3661,1.41084 -3.51242,1.41084c-1.08263,0 -1.91542,-0.27433 -2.49838,-0.82299c-0.57806,-0.55356 -0.86708,-1.22715 -0.86708,-2.02075c0,-0.68093 0.19594,-1.22959 0.58785,-1.64598c0.3968,-0.42129 0.8279,-0.71522 1.29328,-0.88178c0.46539,-0.16656 1.22224,-0.35762 2.27058,-0.57316c1.05323,-0.22045 1.90072,-0.42129 2.54246,-0.60255c-0.0049,-0.75931 -0.15431,-1.27123 -0.44824,-1.53576c-0.29393,-0.26943 -0.74216,-0.40415 -1.34472,-0.40415c-1.13651,0 -1.88113,0.31842 -2.23384,0.95526c-0.19595,0.36251 -0.36986,0.6197 -0.52172,0.77156c-0.15186,0.15186 -0.3723,0.2278 -0.66133,0.2278c-0.26454,0 -0.50457,-0.08573 -0.72012,-0.25719c-0.21064,-0.17636 -0.31598,-0.4017 -0.31598,-0.67603c0,-0.65153 0.35026,-1.26878 1.05079,-1.85174c0.70542,-0.58295 1.815,-0.87443 3.32871,-0.87443c1.53332,0 2.65514,0.26453 3.36546,0.7936c0.71032,0.52907 1.04344,1.59945 0.99935,3.21115l-0.05879,2.35141c-0.0245,0.72502 0.05144,1.31777 0.2278,1.77826c0.17636,0.46049 0.26453,0.8132 0.26453,1.05814c0,0.26453 -0.11757,0.49722 -0.35271,0.69807c-0.23025,0.20085 -0.49233,0.30128 -0.78625,0.30128c-0.50948,0 -1.04589,-0.47028 -1.60925,-1.41084zM271.88244,181.3088c-0.3723,0.14696 -0.98955,0.30617 -1.85174,0.47763c-0.85728,0.17146 -1.46473,0.36741 -1.82234,0.58785c-0.35761,0.22045 -0.53642,0.54132 -0.53642,0.96261c0,0.36251 0.14207,0.68093 0.4262,0.95526c0.28413,0.27433 0.68583,0.4115 1.2051,0.4115c0.55356,0 1.06549,-0.14941 1.53577,-0.44823c0.47518,-0.30372 0.76666,-0.66379 0.87443,-1.08018c0.11268,-0.41639 0.16901,-1.03854 0.16901,-1.86643zM291.09972,179.87591v4.32806c0,0.59275 -0.0245,1.01159 -0.07348,1.25654c-0.04899,0.24004 -0.18371,0.44824 -0.40415,0.62459c-0.21555,0.17636 -0.47273,0.26453 -0.77156,0.26453c-0.29393,0 -0.55111,-0.08572 -0.77156,-0.25718c-0.21555,-0.17636 -0.35027,-0.39435 -0.40415,-0.65399c-0.05388,-0.25964 -0.08083,-0.67114 -0.08083,-1.2345v-3.66673c0,-1.07283 -0.12737,-1.74397 -0.3821,-2.0134c-0.25473,-0.27433 -0.60254,-0.4115 -1.04343,-0.4115c-0.46049,0 -0.84749,0.12737 -1.16101,0.3821c-0.31352,0.25474 -0.52907,0.58785 -0.64664,0.99935c-0.11757,0.4066 -0.17636,1.04834 -0.17636,1.92522v2.78495c0,0.59275 -0.0245,1.01405 -0.07349,1.26389c-0.04409,0.24494 -0.1788,0.45314 -0.40414,0.62459c-0.22044,0.17146 -0.48008,0.25718 -0.77891,0.25718c-0.387,0 -0.69073,-0.12982 -0.91118,-0.38945c-0.22044,-0.25964 -0.33067,-0.84504 -0.33067,-1.75621v-3.44628c0,-0.97976 -0.07348,-1.66558 -0.22044,-2.05749c-0.14697,-0.39191 -0.52907,-0.58785 -1.14632,-0.58785c-0.64174,0 -1.14877,0.20575 -1.52107,0.61724c-0.3723,0.4066 -0.55846,1.28348 -0.55846,2.63064v2.84374c0,0.57806 -0.01959,0.98466 -0.05879,1.2198c-0.03919,0.23024 -0.16901,0.44334 -0.38945,0.63929c-0.22044,0.19105 -0.47763,0.28658 -0.77156,0.28658c-0.27923,0 -0.53396,-0.08572 -0.76421,-0.25718c-0.23025,-0.17146 -0.37475,-0.37721 -0.43354,-0.61724c-0.05388,-0.24494 -0.08083,-0.66869 -0.08083,-1.27124v-6.07693c0,-0.57806 0.02695,-0.96995 0.08083,-1.1757c0.05388,-0.21064 0.1886,-0.39436 0.40415,-0.55112c0.21555,-0.16166 0.45069,-0.24248 0.70542,-0.24248c0.7985,0 1.19775,0.50947 1.19775,1.52841c0.84259,-1.01895 1.85419,-1.52841 3.03479,-1.52841c1.26878,0 2.18976,0.50947 2.76291,1.52841c0.85239,-1.01895 1.84683,-1.52841 2.98335,-1.52841c0.87688,0 1.6264,0.24248 2.24854,0.72746c0.62705,0.48008 0.94057,1.47699 0.94057,2.99071zM300.53477,181.86726h-4.92327c0.0245,0.93077 0.27923,1.63375 0.76421,2.10892c0.48987,0.47518 1.07283,0.71277 1.74886,0.71277c0.84259,0 1.63374,-0.36741 2.37346,-1.10223c0.29883,-0.30863 0.51927,-0.49967 0.66133,-0.57315c0.14697,-0.07348 0.30863,-0.11023 0.48498,-0.11023c0.22535,0 0.41885,0.07103 0.58051,0.2131c0.16656,0.14207 0.24984,0.31597 0.24984,0.52172c0,0.56336 -0.38701,1.15611 -1.16101,1.77826c-0.76911,0.62214 -1.81254,0.93321 -3.13031,0.93321c-1.68028,0 -2.95396,-0.47273 -3.82104,-1.41819c-0.86219,-0.94547 -1.29328,-2.17261 -1.29328,-3.68143c0,-1.51862 0.43109,-2.74577 1.29328,-3.68143c0.86708,-0.94056 2.07218,-1.41084 3.6153,-1.41084c1.47943,0 2.61839,0.44333 3.41689,1.33002c0.8034,0.88668 1.2051,1.85173 1.2051,2.89517c0,0.45559 -0.13472,0.8181 -0.40415,1.08753c-0.26454,0.26453 -0.8181,0.3968 -1.66069,0.3968zM295.6115,180.44171h4.56321c-0.0294,-0.8328 -0.25964,-1.46718 -0.69072,-1.90317c-0.4262,-0.43599 -0.95527,-0.65399 -1.58721,-0.65399c-1.32756,0 -2.08933,0.85238 -2.28528,2.55716z" fill="#ffffff" stroke="none" stroke-width="1" stroke-linecap="square" stroke-linejoin="miter"/><g fill="none" stroke="#ffffff" stroke-width="2" stroke-linecap="round" stroke-linejoin="round"><path d="M147.25,187.5h-3.33333c-0.92048,0 -1.66667,-0.74619 -1.66667,-1.66667v-11.66667c0,-0.92047 0.74619,-1.66667 1.66667,-1.66667h3.33333"/><path d="M153.08333,175.83333l4.16667,4.16667l-4.16667,4.16667"/><path d="M157.25,180h-10"/></g></g></g></svg>