<svg version="1.1" xmlns="http://www.w3.org/2000/svg" xmlns:xlink="http://www.w3.org/1999/xlink" width="412.4649" height="21.79658" viewBox="0,0,412.4649,21.79658"><g transform="translate(-6.54855,-277.58852)"><g data-paper-data="{&quot;isPaintingLayer&quot;:true}" fill-rule="nonzero" stroke="none" stroke-width="1" stroke-linejoin="miter" stroke-miterlimit="10" stroke-dasharray="" stroke-dashoffset="0" style="mix-blend-mode: normal"><path d="M9.52529,282.38249v10.19126c0,0.65769 -0.03145,1.12378 -0.09436,1.3983c-0.06291,0.2688 -0.22304,0.51471 -0.4804,0.73775c-0.25735,0.21732 -0.56332,0.32599 -0.9179,0.32599c-0.3603,0 -0.67198,-0.10008 -0.93506,-0.30025c-0.25735,-0.20588 -0.41462,-0.44895 -0.47181,-0.72917c-0.05147,-0.28595 -0.07721,-0.76349 -0.07721,-1.43261v-11.40083c0,-0.70915 0.12582,-1.24102 0.37746,-1.5956c0.25164,-0.35458 0.79494,-0.53187 1.62992,-0.53187h0.96937c0.84641,0 1.38686,0.11724 1.62134,0.35172c0.23448,0.23448 0.47468,0.81782 0.7206,1.75001l2.29046,8.61282l2.25614,-8.61282c0.24592,-0.92648 0.48612,-1.50696 0.7206,-1.74144c0.23448,-0.2402 0.77778,-0.36029 1.62992,-0.36029h0.96937c0.74919,0 1.26962,0.14583 1.56129,0.4375c0.29167,0.29167 0.4375,0.85499 0.4375,1.68996v11.40083c0,0.66912 -0.02573,1.13808 -0.0772,1.40688c-0.04575,0.2688 -0.20016,0.51185 -0.46324,0.72917c-0.25735,0.21732 -0.56904,0.32599 -0.93506,0.32599c-0.31454,0 -0.60621,-0.0915 -0.87501,-0.27451c-0.2688,-0.18301 -0.44037,-0.41749 -0.51471,-0.70344c-0.06863,-0.29167 -0.10294,-0.78636 -0.10294,-1.48408v-10.19126l-2.47919,10.0197c-0.29739,1.20099 -0.59764,1.9416 -0.90075,2.22183c-0.30311,0.27451 -0.71202,0.41177 -1.22672,0.41177c-0.60049,0 -1.04372,-0.17157 -1.32967,-0.51471c-0.28023,-0.34314 -0.55761,-1.04943 -0.83212,-2.11889zM32.20255,293.38871c-1.39544,1.09805 -2.76228,1.64707 -4.10052,1.64707c-1.2639,0 -2.23613,-0.32027 -2.91669,-0.96079c-0.67484,-0.64625 -1.01226,-1.43261 -1.01226,-2.35909c0,-0.79494 0.22876,-1.43547 0.68628,-1.92159c0.46324,-0.49183 0.96651,-0.83497 1.50982,-1.02942c0.54331,-0.19445 1.42689,-0.41748 2.65075,-0.66912c1.22959,-0.25735 2.21897,-0.49184 2.96816,-0.70344c-0.00572,-0.88645 -0.18015,-1.48408 -0.52329,-1.79291c-0.34314,-0.31454 -0.86643,-0.47182 -1.56987,-0.47182c-1.32681,0 -2.19609,0.37174 -2.60786,1.11521c-0.22876,0.42321 -0.43179,0.72345 -0.60908,0.90074c-0.17729,0.17729 -0.43464,0.26594 -0.77207,0.26594c-0.30882,0 -0.58905,-0.10008 -0.84069,-0.30025c-0.24592,-0.20588 -0.36888,-0.46896 -0.36888,-0.78922c0,-0.76062 0.40891,-1.48122 1.22673,-2.16178c0.82354,-0.68056 2.11889,-1.02084 3.88606,-1.02084c1.79005,0 3.0997,0.30883 3.92895,0.92648c0.82925,0.61765 1.21815,1.86725 1.16668,3.7488l-0.06863,2.74512c-0.0286,0.84641 0.06005,1.53841 0.26594,2.076c0.20588,0.53759 0.30882,0.94936 0.30882,1.2353c0,0.30882 -0.13726,0.58048 -0.41177,0.81496c-0.2688,0.23448 -0.57476,0.35172 -0.9179,0.35172c-0.59478,0 -1.22101,-0.54902 -1.87869,-1.64707zM32.00526,289.15093c-0.43464,0.17157 -1.15524,0.35743 -2.16179,0.5576c-1.00083,0.20017 -1.70999,0.42893 -2.12747,0.68628c-0.41748,0.25735 -0.62623,0.63195 -0.62623,1.12378c0,0.42321 0.16585,0.79494 0.49755,1.11521c0.3317,0.32027 0.80066,0.4804 1.40687,0.4804c0.64625,0 1.24388,-0.17443 1.79291,-0.52329c0.55474,-0.35458 0.89503,-0.77493 1.02084,-1.26104c0.13154,-0.48611 0.19731,-1.21243 0.19731,-2.17894zM42.04425,290.72938l-2.14463,3.09684c-0.38317,0.54331 -0.68914,0.88072 -0.9179,1.01226c-0.22876,0.13154 -0.47182,0.19731 -0.72917,0.19731c-0.37174,0 -0.68628,-0.11438 -0.94363,-0.34314c-0.25164,-0.22876 -0.37745,-0.48897 -0.37745,-0.78064c0,-0.3317 0.20016,-0.77779 0.60049,-1.33825l2.65076,-3.80028l-2.35051,-3.16547c-0.40605,-0.54331 -0.60908,-0.98081 -0.60908,-1.31251c0,-0.33742 0.12296,-0.6148 0.36888,-0.83212c0.24592,-0.21732 0.56904,-0.32598 0.96937,-0.32598c0.33742,0 0.61479,0.09437 0.83211,0.28309c0.21732,0.18301 0.4804,0.48897 0.78922,0.9179l1.86153,2.59071l1.87869,-2.59071c0.38317,-0.54331 0.692,-0.87787 0.92648,-1.00369c0.23448,-0.13154 0.4804,-0.19731 0.73775,-0.19731c0.37745,0 0.68914,0.10866 0.93506,0.32598c0.25164,0.21732 0.37746,0.47182 0.37746,0.76349c0,0.34886 -0.20875,0.80924 -0.62623,1.38114l-2.35051,3.16547l2.62502,3.80028c0.42893,0.60049 0.64339,1.038 0.64339,1.31251c0,0.3317 -0.13154,0.60621 -0.39461,0.82353c-0.25735,0.21732 -0.5433,0.32599 -0.85785,0.32599c-0.60049,0 -1.18097,-0.40319 -1.74144,-1.20957zM51.23826,291.81027c0.43464,0 0.80924,0.15727 1.12378,0.47181c0.31454,0.31454 0.47182,0.68915 0.47182,1.12379c0,0.44608 -0.15727,0.82925 -0.47182,1.14952c-0.31454,0.32027 -0.68914,0.4804 -1.12378,0.4804c-0.4518,0 -0.83783,-0.15727 -1.1581,-0.47182c-0.31454,-0.32027 -0.47182,-0.70629 -0.47182,-1.1581c0,-0.43464 0.15727,-0.80924 0.47182,-1.12379c0.32027,-0.31454 0.70629,-0.47181 1.1581,-0.47181zM66.07264,288.6448v3.75738c0,1.16096 -0.15155,1.89013 -0.45466,2.18752c-0.29739,0.29739 -0.68056,0.44608 -1.14952,0.44608c-0.34886,0 -0.66341,-0.10008 -0.94363,-0.30025c-0.27451,-0.20017 -0.44608,-0.44608 -0.51471,-0.73776c-0.06291,-0.29167 -0.09436,-0.82353 -0.09436,-1.5956v-10.68024c0,-0.89788 0.06005,-1.50982 0.18015,-1.8358c0.1201,-0.3317 0.33742,-0.55474 0.65196,-0.66912c0.32027,-0.11438 0.79495,-0.17157 1.42404,-0.17157h3.84317c2.2876,0 3.83745,0.44322 4.64955,1.32967c0.8121,0.88645 1.21815,1.98735 1.21815,3.30272c0,3.3113 -1.9559,4.96695 -5.8677,4.96695zM68.243,281.50748h-2.17036v4.67528h2.17036c1.31537,0 2.21039,-0.21161 2.68507,-0.63481c0.4804,-0.42321 0.72059,-0.9951 0.72059,-1.7157c0,-0.51471 -0.13439,-0.97223 -0.40319,-1.37256c-0.26307,-0.40033 -0.62051,-0.65769 -1.07231,-0.77207c-0.4518,-0.1201 -1.09519,-0.18015 -1.93016,-0.18015zM80.26578,281.19008v11.42657c0,0.70344 -0.03432,1.18384 -0.10294,1.44119c-0.06291,0.25164 -0.2259,0.47754 -0.48897,0.6777c-0.26307,0.20017 -0.54902,0.30025 -0.85785,0.30025c-0.31454,0 -0.60908,-0.09722 -0.88359,-0.29167c-0.2688,-0.20017 -0.4375,-0.43178 -0.50613,-0.69486c-0.06291,-0.26307 -0.09436,-0.74062 -0.09436,-1.43261v-11.42657c0,-0.72059 0.03431,-1.20671 0.10294,-1.45835c0.06863,-0.25735 0.23162,-0.4804 0.48898,-0.66912c0.26307,-0.18873 0.54902,-0.28309 0.85785,-0.28309c0.3603,0 0.66913,0.10294 0.92648,0.30882c0.26307,0.20017 0.42035,0.44037 0.47181,0.7206c0.05719,0.27451 0.08579,0.73489 0.08579,1.38114zM90.68652,293.38871c-1.39544,1.09805 -2.76228,1.64707 -4.10052,1.64707c-1.2639,0 -2.23613,-0.32027 -2.91669,-0.96079c-0.67484,-0.64625 -1.01226,-1.43261 -1.01226,-2.35909c0,-0.79494 0.22875,-1.43547 0.68628,-1.92159c0.46324,-0.49183 0.96651,-0.83497 1.50982,-1.02942c0.54331,-0.19445 1.42689,-0.41748 2.65076,-0.66912c1.22959,-0.25735 2.21897,-0.49184 2.96816,-0.70344c-0.00572,-0.88645 -0.18015,-1.48408 -0.52329,-1.79291c-0.34314,-0.31454 -0.86643,-0.47182 -1.56987,-0.47182c-1.32681,0 -2.1961,0.37174 -2.60787,1.11521c-0.22876,0.42321 -0.43178,0.72345 -0.60907,0.90074c-0.17729,0.17729 -0.43464,0.26594 -0.77207,0.26594c-0.30882,0 -0.58906,-0.10008 -0.84069,-0.30025c-0.24592,-0.20588 -0.36888,-0.46896 -0.36888,-0.78922c0,-0.76062 0.40891,-1.48122 1.22673,-2.16178c0.82354,-0.68056 2.11889,-1.02084 3.88606,-1.02084c1.79005,0 3.0997,0.30883 3.92895,0.92648c0.82925,0.61765 1.21815,1.86725 1.16668,3.7488l-0.06863,2.74512c-0.0286,0.84641 0.06005,1.53841 0.26594,2.076c0.20588,0.53759 0.30882,0.94936 0.30882,1.2353c0,0.30882 -0.13726,0.58048 -0.41177,0.81496c-0.2688,0.23448 -0.57476,0.35172 -0.9179,0.35172c-0.59478,0 -1.22101,-0.54902 -1.87869,-1.64707zM90.48922,289.15093c-0.43464,0.17157 -1.15524,0.35743 -2.16179,0.5576c-1.00083,0.20017 -1.70999,0.42893 -2.12747,0.68628c-0.41748,0.25735 -0.62623,0.63195 -0.62623,1.12378c0,0.42321 0.16585,0.79494 0.49755,1.11521c0.3317,0.32027 0.80066,0.4804 1.40687,0.4804c0.64625,0 1.24388,-0.17443 1.79291,-0.52329c0.55474,-0.35458 0.89503,-0.77493 1.02084,-1.26104c0.13154,-0.48611 0.19731,-1.21243 0.19731,-2.17894zM99.31006,294.74412l-3.58582,-9.06748c-0.22304,-0.58906 -0.33456,-0.99225 -0.33456,-1.20957c0,-0.33742 0.14012,-0.64339 0.42035,-0.9179c0.28023,-0.27451 0.60908,-0.41177 0.98653,-0.41177c0.3317,0 0.61193,0.10294 0.84069,0.30883c0.23448,0.20017 0.46324,0.61479 0.68628,1.24388l2.47061,7.20595l2.35051,-6.68266c0.30882,-0.86929 0.55474,-1.43261 0.73775,-1.68997c0.18301,-0.25735 0.49469,-0.38603 0.93506,-0.38603c0.40033,0 0.71488,0.1344 0.94363,0.40319c0.23448,0.26307 0.35172,0.53473 0.35172,0.81496c0,0.3317 -0.11724,0.80066 -0.35172,1.40688l-3.81744,9.99396c-0.50899,1.33253 -1.03513,2.27044 -1.57844,2.81375c-0.54331,0.54331 -1.46692,0.81496 -2.77086,0.81496c-1.70426,0 -2.5564,-0.43464 -2.5564,-1.30393c0,-0.28595 0.09722,-0.52615 0.29167,-0.7206c0.19445,-0.18873 0.4518,-0.28309 0.77206,-0.28309c0.05147,0 0.21447,0.00858 0.48898,0.02573c0.28023,0.02287 0.44608,0.03431 0.49755,0.03431c0.54331,0 0.94078,-0.13154 1.19242,-0.39461c0.25735,-0.25735 0.50899,-0.70343 0.75491,-1.33824zM116.41131,289.8029h-5.74759c0.0286,1.08661 0.32598,1.90729 0.89216,2.46203c0.5719,0.55474 1.25247,0.83211 2.04169,0.83211c0.98367,0 1.90729,-0.42893 2.77086,-1.28677c0.34886,-0.3603 0.60621,-0.58334 0.77206,-0.66912c0.17157,-0.08579 0.3603,-0.12868 0.56618,-0.12868c0.26307,0 0.48898,0.08293 0.6777,0.24878c0.19445,0.16585 0.29167,0.36888 0.29167,0.60907c0,0.65769 -0.4518,1.34969 -1.3554,2.076c-0.89788,0.72631 -2.11603,1.08947 -3.65444,1.08947c-1.96162,0 -3.44856,-0.55189 -4.46082,-1.65565c-1.00655,-1.10377 -1.50982,-2.53637 -1.50982,-4.29783c0,-1.77289 0.50327,-3.2055 1.50982,-4.29783c1.01226,-1.09805 2.41914,-1.64707 4.22062,-1.64707c1.72714,0 3.05681,0.51757 3.989,1.55271c0.93792,1.03514 1.40688,2.16179 1.40688,3.37993c0,0.53187 -0.15727,0.95507 -0.47182,1.26962c-0.30882,0.30882 -0.95508,0.46324 -1.93874,0.46324zM110.66371,288.13867h5.32725c-0.03431,-0.97223 -0.30311,-1.71284 -0.80638,-2.22183c-0.49755,-0.50899 -1.11521,-0.76349 -1.85296,-0.76349c-1.54985,0 -2.43915,0.99511 -2.66791,2.98532zM121.26888,292.61665v-7.50619c0,-1.31537 0.48326,-1.97306 1.44977,-1.97306c0.92076,0 1.39258,0.60622 1.41545,1.81865c0.60622,-1.21243 1.44404,-1.81865 2.5135,-1.81865c0.56618,0 1.14952,0.1487 1.75002,0.44608c0.60622,0.29167 0.90932,0.69486 0.90932,1.20957c0,0.3603 -0.12296,0.65769 -0.36888,0.89216c-0.2402,0.22876 -0.49755,0.34314 -0.77206,0.34314c-0.16013,0 -0.44608,-0.06291 -0.85785,-0.18873c-0.41177,-0.12582 -0.75491,-0.18873 -1.02942,-0.18873c-0.70344,0 -1.22672,0.35458 -1.56986,1.06373c-0.34314,0.70915 -0.51471,2.076 -0.51471,4.10052v1.68997c0,0.74347 -0.03145,1.24674 -0.09436,1.50982c-0.05719,0.25735 -0.21447,0.49184 -0.47182,0.70344c-0.25735,0.2116 -0.55474,0.31741 -0.89216,0.31741c-0.32027,0 -0.60907,-0.09437 -0.86643,-0.28309c-0.25735,-0.18873 -0.42321,-0.41177 -0.49755,-0.66912c-0.06863,-0.26307 -0.10294,-0.75205 -0.10294,-1.46692zM133.12652,286.18277c0,0.37745 0.19731,0.67484 0.59192,0.89216c0.39461,0.2116 1.27248,0.48611 2.6336,0.82354c2.65362,0.64053 3.98043,1.7443 3.98043,3.3113c0,1.2353 -0.44608,2.1818 -1.33825,2.83949c-0.89216,0.65769 -2.14463,0.98653 -3.75738,0.98653c-1.62992,0 -2.85664,-0.33456 -3.68018,-1.00369c-0.82354,-0.67484 -1.2353,-1.38685 -1.2353,-2.13605c0,-0.32027 0.11438,-0.59478 0.34314,-0.82354c0.22876,-0.22876 0.50899,-0.34314 0.84069,-0.34314c0.45752,0 0.85785,0.28595 1.20099,0.85785c0.38889,0.62909 0.81496,1.04658 1.27819,1.25246c0.46324,0.20017 0.9608,0.30025 1.49266,0.30025c0.58334,0 1.05802,-0.12868 1.42403,-0.38603c0.37174,-0.26307 0.5576,-0.59477 0.5576,-0.9951c0,-0.36601 -0.15727,-0.68342 -0.47181,-0.95222c-0.30882,-0.2688 -1.1581,-0.56046 -2.54782,-0.87501c-1.38972,-0.32027 -2.40198,-0.76635 -3.03679,-1.33825c-0.63481,-0.57762 -0.95222,-1.2639 -0.95222,-2.05884c0,-0.89216 0.38603,-1.68139 1.1581,-2.36767c0.77778,-0.68628 1.9416,-1.02942 3.49145,-1.02942c1.42403,0 2.5564,0.28881 3.39709,0.86643c0.84641,0.57762 1.26962,1.17812 1.26962,1.80149c0,0.32598 -0.10866,0.60335 -0.32598,0.83211c-0.2116,0.22304 -0.50614,0.33456 -0.88359,0.33456c-0.56618,0 -1.07803,-0.32313 -1.53555,-0.96937c-0.4518,-0.65196 -1.13522,-0.97795 -2.05026,-0.97795c-0.49183,0 -0.92362,0.10008 -1.29536,0.30025c-0.36601,0.20017 -0.54902,0.48611 -0.54902,0.85785zM144.75471,283.1374c0.43464,0 0.80924,0.15727 1.12378,0.47182c0.31454,0.31454 0.47182,0.68914 0.47182,1.12378c0,0.4518 -0.15727,0.83783 -0.47182,1.1581c-0.31454,0.31454 -0.68914,0.47182 -1.12378,0.47182c-0.4518,0 -0.83783,-0.15727 -1.1581,-0.47182c-0.31454,-0.32027 -0.47181,-0.70629 -0.47181,-1.1581c0,-0.43464 0.15727,-0.80924 0.47181,-1.12378c0.32027,-0.31454 0.7063,-0.47182 1.1581,-0.47182zM144.75471,291.81027c0.43464,0 0.80924,0.15727 1.12378,0.47181c0.31454,0.31454 0.47182,0.68915 0.47182,1.12379c0,0.44608 -0.15727,0.82925 -0.47182,1.14952c-0.31454,0.32027 -0.68914,0.4804 -1.12378,0.4804c-0.4518,0 -0.83783,-0.15727 -1.1581,-0.47182c-0.31454,-0.32027 -0.47181,-0.70629 -0.47181,-1.1581c0,-0.43464 0.15727,-0.80924 0.47181,-1.12379c0.32027,-0.31454 0.7063,-0.47181 1.1581,-0.47181z" fill="#ffffff" stroke-linecap="square"/><path d="M324.68602,290.98096c-0.46162,-0.3314 -0.83188,-0.7359 -1.11077,-1.2135c-0.26928,-0.48735 -0.40392,-1.00394 -0.40392,-1.54978c0,-0.55558 0.06732,-1.02344 0.20196,-1.40357c0.13464,-0.38988 0.31256,-0.7359 0.53375,-1.03806c0.3943,-0.54584 0.94728,-1.0137 1.65894,-1.40358c0.02885,-0.0195 0.0529,-0.03411 0.07213,-0.04386c0.02885,-0.00975 0.04328,-0.02924 0.04328,-0.05848c0,-0.02924 -0.06732,-0.07797 -0.20196,-0.14621c-0.12502,-0.06823 -0.31256,-0.18519 -0.5626,-0.35089c-0.25004,-0.1657 -0.47604,-0.36552 -0.678,-0.59945c-0.46162,-0.53609 -0.69243,-1.17452 -0.69243,-1.9153c0,-1.26711 0.5049,-2.22233 1.51469,-2.86563c0.83669,-0.53609 1.83205,-0.80413 2.98611,-0.80413c1.25983,0 2.29367,0.29729 3.10151,0.89186c0.89439,0.6433 1.34158,1.52053 1.34158,2.6317c0,1.23787 -0.452,2.22233 -1.35601,2.95335c-0.25966,0.20469 -0.47124,0.34602 -0.63473,0.424c-0.16349,0.07798 -0.24524,0.12671 -0.24524,0.1462c0,0.0195 0.10578,0.06822 0.31736,0.14621c0.21157,0.07798 0.46644,0.21444 0.76456,0.40938c0.29813,0.19494 0.55779,0.42887 0.77898,0.70179c0.50008,0.60432 0.75013,1.24275 0.75013,1.91529c0,0.67255 -0.13945,1.26224 -0.41834,1.76909c-0.26928,0.50684 -0.63473,0.93572 -1.09635,1.28661c-0.93285,0.74077 -2.0292,1.11117 -3.28904,1.11117c-1.33677,0 -2.46197,-0.3314 -3.37559,-0.9942zM325.42175,287.83754c0,0.35089 0.07213,0.6628 0.21639,0.93572c0.15387,0.26317 0.35583,0.48248 0.60587,0.65792c0.48085,0.3314 1.10596,0.4971 1.87534,0.4971c1.10596,0 1.8561,-0.38988 2.2504,-1.16964c0.13464,-0.25342 0.20195,-0.5507 0.20195,-0.89186c0,-0.34115 -0.09617,-0.64818 -0.28851,-0.92109c-0.18272,-0.27292 -0.42796,-0.50685 -0.73571,-0.70179c-0.50008,-0.3314 -1.22136,-0.62869 -2.16384,-0.89186c-0.47123,0.10722 -0.8992,0.37526 -1.28388,0.80413c-0.45201,0.4971 -0.678,1.05755 -0.678,1.68136zM330.23992,281.44835c0,-0.57508 -0.21639,-1.03318 -0.64916,-1.37433c-0.40392,-0.31191 -0.91362,-0.46786 -1.52912,-0.46786c-0.98094,0 -1.65894,0.3509 -2.034,1.05268c-0.12502,0.22418 -0.18754,0.4776 -0.18754,0.76027c0,0.28267 0.06252,0.53609 0.18754,0.76027c0.13464,0.22418 0.32218,0.43375 0.5626,0.62869c0.44238,0.37039 1.05787,0.68716 1.84647,0.95033c1.20213,-0.51659 1.80321,-1.28661 1.80321,-2.31005z" fill="#ffffff" stroke-linecap="butt"/><path d="M364.75527,291.65351c0.15387,-0.23393 0.29813,-0.35089 0.43277,-0.35089c0.14426,0 0.31256,0.06336 0.5049,0.19007c0.19234,0.12671 0.38468,0.23393 0.57702,0.32166c0.20196,0.08772 0.40391,0.16082 0.60587,0.2193c0.44238,0.11696 0.89438,0.17545 1.35601,0.17545c0.46162,0 0.89921,-0.10722 1.31274,-0.32166c0.42315,-0.21443 0.76936,-0.50684 1.03864,-0.87723c0.50008,-0.69204 0.78379,-1.657 0.85111,-2.89487c-0.56741,0.42887 -1.35601,0.71641 -2.3658,0.86262c-0.28851,0.03899 -0.64915,0.05848 -1.08192,0.05848c-0.43277,0 -0.91362,-0.10722 -1.44257,-0.32165c-0.52894,-0.21443 -0.98575,-0.52146 -1.37043,-0.92109c-0.8463,-0.86749 -1.26945,-2.0079 -1.26945,-3.42122c0,-1.34509 0.48085,-2.44651 1.44256,-3.30424c0.92324,-0.848 2.07248,-1.27199 3.44773,-1.27199c2.56776,0 4.12091,1.37921 4.65947,4.13762c0.17311,0.85774 0.25966,1.68624 0.25966,2.4855c0,0.78951 -0.03847,1.47667 -0.11541,2.0615c-0.06732,0.57508 -0.18753,1.1404 -0.36064,1.69599c-0.16349,0.55558 -0.38468,1.08192 -0.66358,1.57902c-0.2789,0.50684 -0.62992,0.95033 -1.05307,1.33047c-0.92324,0.81875 -2.09653,1.22813 -3.51985,1.22813c-0.904,0 -1.78878,-0.21931 -2.65431,-0.65793c-0.76936,-0.38013 -1.15405,-0.72615 -1.15405,-1.03806c0,-0.10722 0.03846,-0.20957 0.1154,-0.30704zM371.37663,286.22928c0,-2.91436 -0.904,-4.37155 -2.71202,-4.37155c-0.73089,0 -1.32716,0.22905 -1.78878,0.68716c-0.47123,0.48735 -0.70686,1.10629 -0.70686,1.85681c0,1.23787 0.48566,2.05176 1.45699,2.44164c0.32698,0.12671 0.70686,0.19007 1.13963,0.19007c1.08672,0 1.95707,-0.26804 2.61104,-0.80413z" fill="#ffffff" stroke-linecap="butt"/><path d="M247.73053,291.97516c-0.79822,0 -1.51469,-0.15108 -2.14941,-0.45324c-0.62511,-0.30216 -1.15405,-0.74077 -1.58683,-1.31585c-0.85592,-1.1404 -1.28388,-2.76328 -1.28388,-4.86865c0,-1.38408 0.10099,-2.46113 0.30295,-3.23114c0.20196,-0.77002 0.43276,-1.40845 0.69243,-1.9153c0.26928,-0.51659 0.6203,-0.96983 1.05307,-1.35971c0.92323,-0.82849 2.17827,-1.24275 3.76509,-1.24275c0.77898,0 1.55797,0.16083 2.33695,0.48248c0.48086,0.18519 0.79822,0.37526 0.95209,0.5702c0.16349,0.18519 0.24524,0.35089 0.24524,0.4971c0,0.14621 -0.06252,0.31678 -0.18754,0.51172l-0.21639,0.32165c-0.23081,0.35089 -0.43758,0.53121 -0.6203,0.54096c-0.18272,0.00975 -0.3895,-0.07798 -0.6203,-0.26317c-0.48086,-0.38013 -1.21657,-0.5702 -2.20712,-0.5702c-1.12519,0 -1.96669,0.48735 -2.52447,1.46206c-0.46162,0.80901 -0.70686,1.90068 -0.73571,3.27501c0.5674,-0.75052 1.42813,-1.21839 2.58218,-1.40357c0.29812,-0.04874 0.65396,-0.07311 1.06749,-0.07311c0.42315,0 0.89439,0.0926 1.41372,0.27779c0.51932,0.18519 0.9617,0.45324 1.32716,0.80413c0.79822,0.75052 1.19732,1.77396 1.19732,3.07032c0,1.33535 -0.40873,2.466 -1.22617,3.39197c-0.88477,0.9942 -2.07729,1.4913 -3.57755,1.4913zM250.28382,287.32582c0,-1.54003 -0.85112,-2.31005 -2.55333,-2.31005c-0.51932,0 -0.99056,0.10722 -1.41372,0.32166c-0.69243,0.35089 -1.12519,0.67255 -1.29831,0.96496v0.02924c0,1.18914 0.27409,2.09562 0.82226,2.71943c0.49047,0.57508 1.15405,0.86262 1.99074,0.86262c0.69243,0 1.26464,-0.22419 1.71664,-0.67255c0.49047,-0.4776 0.73571,-1.11604 0.73571,-1.91529z" fill="#ffffff" stroke-linecap="butt"/><path d="M205.23778,285.92224c0.63472,-0.44836 1.43775,-0.67254 2.40907,-0.67254c1.15405,0 2.11576,0.37039 2.88513,1.11116c0.82707,0.79926 1.2406,1.87631 1.2406,3.23114c0,1.42307 -0.48086,2.56348 -1.44257,3.42122c-0.94247,0.848 -2.20231,1.27199 -3.7795,1.27199c-1.20213,0 -2.26482,-0.25342 -3.18806,-0.76027c-0.38468,-0.20469 -0.76936,-0.51172 -1.15405,-0.9211c-0.19234,-0.20469 -0.17793,-0.46786 0.04328,-0.78951l0.40392,-0.57021c0.15387,-0.24367 0.30775,-0.36551 0.46162,-0.36551c0.15387,0 0.26447,0.03411 0.33179,0.10234c0.06732,0.05848 0.14907,0.12184 0.24524,0.19007c0.78859,0.67255 1.7984,1.00882 3.02938,1.00882c0.7309,0 1.34158,-0.21443 1.83205,-0.6433c0.52894,-0.45812 0.79342,-1.10142 0.79342,-1.92991c0,-0.74077 -0.24524,-1.34509 -0.73571,-1.81295c-0.452,-0.43862 -0.96652,-0.65792 -1.54354,-0.65792c-0.80783,0 -1.47622,0.22418 -2.00516,0.67254c-0.24042,0.20469 -0.5097,0.30703 -0.80783,0.30703c-0.07694,0 -0.15387,-0.00487 -0.23081,-0.01462c-0.06732,-0.0195 -0.16349,-0.03411 -0.28851,-0.04386c-0.12502,-0.0195 -0.23563,-0.03899 -0.3318,-0.05849c-0.09617,-0.02924 -0.17311,-0.06823 -0.23081,-0.11696c-0.09617,-0.07798 -0.14426,-0.2388 -0.14426,-0.48247v-6.28685c0,-0.38988 0.04809,-0.6433 0.14426,-0.76027c0.15387,-0.19494 0.40873,-0.29241 0.76456,-0.29241h6.31842c0.2212,0 0.38468,0.02925 0.49047,0.08773c0.1154,0.05848 0.1731,0.19494 0.1731,0.40938v0.95033c0,0.23393 -0.02405,0.38501 -0.07213,0.45324c-0.07694,0.12671 -0.25485,0.19007 -0.53375,0.19007h-5.07782z" fill="#ffffff" stroke-linecap="butt"/><path d="M175.38553,288.84636c0.38468,0 0.57702,0.17545 0.57702,0.52634v0.52634c0,0.18519 -0.04809,0.32165 -0.14426,0.40938c-0.08656,0.08772 -0.24042,0.15595 -0.46161,0.20469l-1.39928,0.27779v2.64632c0,0.18519 -0.0529,0.3314 -0.15869,0.43862c-0.10579,0.11696 -0.24043,0.17545 -0.40392,0.17545h-1.13962c-0.18272,0 -0.32218,-0.06336 -0.41834,-0.19007c-0.09617,-0.12671 -0.14426,-0.28754 -0.14426,-0.48248v-2.57322h-4.77487c-0.42315,0 -0.76456,-0.11697 -1.02422,-0.3509c-0.25004,-0.23393 -0.37506,-0.53609 -0.37506,-0.90648c0,-0.26317 0.08656,-0.6238 0.25966,-1.08192l0.63472,-1.76909c0.87515,-2.4855 1.50026,-4.63959 1.87533,-6.46229c0.10579,-0.46786 0.36064,-0.70179 0.76456,-0.70179c0.25004,0 0.62511,0.07798 1.1252,0.23393c0.3943,0.13646 0.54818,0.43862 0.46162,0.90648c-0.13464,0.77002 -0.3943,1.72035 -0.77898,2.85101c-0.89439,2.57322 -1.55316,4.34718 -1.97631,5.32189h3.80836v-3.65514c0,-0.22418 0.07694,-0.39475 0.23081,-0.51172c0.15387,-0.11696 0.33179,-0.17545 0.53375,-0.17545h0.80783c0.25004,0 0.42796,0.0731 0.53375,0.21931c0.10579,0.13646 0.15869,0.28753 0.15869,0.45324v3.66976z" fill="#ffffff" stroke-linecap="butt"/><path d="M284.29427,282.23787c-0.63472,0 -0.95209,-0.27779 -0.95209,-0.83337v-0.71641c0,-0.20469 0.03366,-0.36552 0.10099,-0.48248c0.07694,-0.11696 0.24042,-0.17544 0.49047,-0.17544h7.25609c0.24042,0 0.42796,0.0926 0.5626,0.27779c0.14426,0.17545 0.21639,0.38501 0.21639,0.62869c0,0.23393 -0.07694,0.60431 -0.23081,1.11116c-0.79822,2.38803 -1.26464,3.76723 -1.39928,4.13762l-0.30294,0.87724c-0.9617,2.59271 -1.83687,4.44465 -2.62547,5.55581c-0.79822,1.11117 -1.47622,1.66674 -2.03401,1.66674c-0.25004,0 -0.46162,-0.10722 -0.63472,-0.32166l-0.43277,-0.4971c-0.12502,-0.13646 -0.18754,-0.28266 -0.18754,-0.43861c0,-0.24367 0.13464,-0.46785 0.40392,-0.67255c0.2789,-0.19494 0.55779,-0.45811 0.83668,-0.78951c0.28851,-0.3314 0.57703,-0.72615 0.86554,-1.18426c0.56741,-0.92597 1.11077,-2.12973 1.63009,-3.61128l0.76456,-2.16384c0.2789,-0.79926 0.50971,-1.58877 0.69243,-2.36853z" fill="#ffffff" stroke-linecap="butt"/><path d="" fill="#ffffff" stroke-linecap="butt"/><path d="M408.23752,285.86377c0,-0.89673 0.11541,-1.72035 0.34622,-2.47087c0.24042,-0.75052 0.58664,-1.38896 1.03865,-1.9153c0.9617,-1.12091 2.29367,-1.68137 3.99589,-1.68137c1.70222,0 3.02938,0.56046 3.98147,1.68137c0.94248,1.08192 1.41371,2.55372 1.41371,4.41541c0,1.81295 -0.50008,3.27988 -1.50026,4.40079c-0.99055,1.12091 -2.3081,1.68137 -3.95262,1.68137c-1.61566,0 -2.91397,-0.57508 -3.89491,-1.72523c-0.95209,-1.11117 -1.42814,-2.57322 -1.42814,-4.38617zM412.21899,289.60663c0.37506,0.25342 0.83668,0.38013 1.38486,0.38013c0.55778,0 1.02422,-0.11209 1.39929,-0.33628c0.37506,-0.23393 0.678,-0.54096 0.90881,-0.92109c0.43277,-0.71154 0.64916,-1.65213 0.64916,-2.82177c0,-1.89093 -0.52894,-3.16291 -1.58682,-3.81597c-0.37506,-0.22418 -0.83668,-0.33628 -1.38485,-0.33628c-0.53856,0 -0.99537,0.11697 -1.37044,0.3509c-0.36545,0.22418 -0.65877,0.52634 -0.87996,0.90648c-0.43277,0.71154 -0.64916,1.67162 -0.64916,2.88025c0,1.79345 0.5097,3.03133 1.52911,3.71362z" fill="#ffffff" stroke-linecap="butt"/><path d="M402.38269,282.55951c-0.40392,0.25342 -0.81745,0.424 -1.2406,0.51172c-0.42315,0.07798 -0.70686,0.11696 -0.85112,0.11696c-0.13464,0 -0.24042,-0.01462 -0.31736,-0.04386c-0.06732,-0.03899 -0.12983,-0.08285 -0.18753,-0.13158c-0.0577,-0.08772 -0.1202,-0.24368 -0.18754,-0.46786c-0.0577,-0.22418 -0.08655,-0.41425 -0.08655,-0.5702c0,-0.1657 0.0529,-0.29728 0.15868,-0.39475c0.10579,-0.10722 0.29813,-0.19007 0.57703,-0.24855c0.8367,-0.17545 1.40891,-0.34602 1.71666,-0.51172c0.30775,-0.17545 0.53375,-0.31678 0.678,-0.42399c0.14426,-0.10722 0.2789,-0.19981 0.40392,-0.27779c0.25966,-0.15595 0.52413,-0.23392 0.79341,-0.23392c0.26928,0 0.48566,0.08284 0.64915,0.24854c0.16349,0.1657 0.24523,0.4045 0.24523,0.71641v10.26364c0,0.1657 -0.0529,0.31191 -0.15868,0.43862c-0.09617,0.11696 -0.21639,0.17544 -0.36065,0.17544h-1.34158c-0.14426,0 -0.26447,-0.05848 -0.36064,-0.17544c-0.08655,-0.12671 -0.12984,-0.27292 -0.12984,-0.43862z" fill="#ffffff" stroke-linecap="butt"/><path d="M324.68602,290.98096c-0.46162,-0.3314 -0.83188,-0.7359 -1.11077,-1.2135c-0.26928,-0.48735 -0.40392,-1.00394 -0.40392,-1.54978c0,-0.55558 0.06732,-1.02344 0.20196,-1.40357c0.13464,-0.38988 0.31256,-0.7359 0.53375,-1.03806c0.3943,-0.54584 0.94728,-1.0137 1.65894,-1.40358c0.02885,-0.0195 0.0529,-0.03411 0.07213,-0.04386c0.02885,-0.00975 0.04328,-0.02924 0.04328,-0.05848c0,-0.02924 -0.06732,-0.07797 -0.20196,-0.14621c-0.12502,-0.06823 -0.31256,-0.18519 -0.5626,-0.35089c-0.25004,-0.1657 -0.47604,-0.36552 -0.678,-0.59945c-0.46162,-0.53609 -0.69243,-1.17452 -0.69243,-1.9153c0,-1.26711 0.5049,-2.22233 1.51469,-2.86563c0.83669,-0.53609 1.83205,-0.80413 2.98611,-0.80413c1.25983,0 2.29367,0.29729 3.10151,0.89186c0.89439,0.6433 1.34158,1.52053 1.34158,2.6317c0,1.23787 -0.452,2.22233 -1.35601,2.95335c-0.25966,0.20469 -0.47124,0.34602 -0.63473,0.424c-0.16349,0.07798 -0.24524,0.12671 -0.24524,0.1462c0,0.0195 0.10578,0.06822 0.31736,0.14621c0.21157,0.07798 0.46644,0.21444 0.76456,0.40938c0.29813,0.19494 0.55779,0.42887 0.77898,0.70179c0.50008,0.60432 0.75013,1.24275 0.75013,1.91529c0,0.67255 -0.13945,1.26224 -0.41834,1.76909c-0.26928,0.50684 -0.63473,0.93572 -1.09635,1.28661c-0.93285,0.74077 -2.0292,1.11117 -3.28904,1.11117c-1.33677,0 -2.46197,-0.3314 -3.37559,-0.9942zM325.42175,287.83754c0,0.35089 0.07213,0.6628 0.21639,0.93572c0.15387,0.26317 0.35583,0.48248 0.60587,0.65792c0.48085,0.3314 1.10596,0.4971 1.87534,0.4971c1.10596,0 1.8561,-0.38988 2.2504,-1.16964c0.13464,-0.25342 0.20195,-0.5507 0.20195,-0.89186c0,-0.34115 -0.09617,-0.64818 -0.28851,-0.92109c-0.18272,-0.27292 -0.42796,-0.50685 -0.73571,-0.70179c-0.50008,-0.3314 -1.22136,-0.62869 -2.16384,-0.89186c-0.47123,0.10722 -0.8992,0.37526 -1.28388,0.80413c-0.45201,0.4971 -0.678,1.05755 -0.678,1.68136zM330.23992,281.44835c0,-0.57508 -0.21639,-1.03318 -0.64916,-1.37433c-0.40392,-0.31191 -0.91362,-0.46786 -1.52912,-0.46786c-0.98094,0 -1.65894,0.3509 -2.034,1.05268c-0.12502,0.22418 -0.18754,0.4776 -0.18754,0.76027c0,0.28267 0.06252,0.53609 0.18754,0.76027c0.13464,0.22418 0.32218,0.43375 0.5626,0.62869c0.44238,0.37039 1.05787,0.68716 1.84647,0.95033c1.20213,-0.51659 1.80321,-1.28661 1.80321,-2.31005z" fill="#737373" stroke-linecap="butt"/><path d="M364.75527,291.65351c0.15387,-0.23393 0.29813,-0.35089 0.43277,-0.35089c0.14426,0 0.31256,0.06336 0.5049,0.19007c0.19234,0.12671 0.38468,0.23393 0.57702,0.32166c0.20196,0.08772 0.40391,0.16082 0.60587,0.2193c0.44238,0.11696 0.89438,0.17545 1.35601,0.17545c0.46162,0 0.89921,-0.10722 1.31274,-0.32166c0.42315,-0.21443 0.76936,-0.50684 1.03864,-0.87723c0.50008,-0.69204 0.78379,-1.657 0.85111,-2.89487c-0.56741,0.42887 -1.35601,0.71641 -2.3658,0.86262c-0.28851,0.03899 -0.64915,0.05848 -1.08192,0.05848c-0.43277,0 -0.91362,-0.10722 -1.44257,-0.32165c-0.52894,-0.21443 -0.98575,-0.52146 -1.37043,-0.92109c-0.8463,-0.86749 -1.26945,-2.0079 -1.26945,-3.42122c0,-1.34509 0.48085,-2.44651 1.44256,-3.30424c0.92324,-0.848 2.07248,-1.27199 3.44773,-1.27199c2.56776,0 4.12091,1.37921 4.65947,4.13762c0.17311,0.85774 0.25966,1.68624 0.25966,2.4855c0,0.78951 -0.03847,1.47667 -0.11541,2.0615c-0.06732,0.57508 -0.18753,1.1404 -0.36064,1.69599c-0.16349,0.55558 -0.38468,1.08192 -0.66358,1.57902c-0.2789,0.50684 -0.62992,0.95033 -1.05307,1.33047c-0.92324,0.81875 -2.09653,1.22813 -3.51985,1.22813c-0.904,0 -1.78878,-0.21931 -2.65431,-0.65793c-0.76936,-0.38013 -1.15405,-0.72615 -1.15405,-1.03806c0,-0.10722 0.03846,-0.20957 0.1154,-0.30704zM371.37663,286.22928c0,-2.91436 -0.904,-4.37155 -2.71202,-4.37155c-0.73089,0 -1.32716,0.22905 -1.78878,0.68716c-0.47123,0.48735 -0.70686,1.10629 -0.70686,1.85681c0,1.23787 0.48566,2.05176 1.45699,2.44164c0.32698,0.12671 0.70686,0.19007 1.13963,0.19007c1.08672,0 1.95707,-0.26804 2.61104,-0.80413z" fill="#ffffff" stroke-linecap="butt"/><path d="M247.73053,291.97516c-0.79822,0 -1.51469,-0.15108 -2.14941,-0.45324c-0.62511,-0.30216 -1.15405,-0.74077 -1.58683,-1.31585c-0.85592,-1.1404 -1.28388,-2.76328 -1.28388,-4.86865c0,-1.38408 0.10099,-2.46113 0.30295,-3.23114c0.20196,-0.77002 0.43276,-1.40845 0.69243,-1.9153c0.26928,-0.51659 0.6203,-0.96983 1.05307,-1.35971c0.92323,-0.82849 2.17827,-1.24275 3.76509,-1.24275c0.77898,0 1.55797,0.16083 2.33695,0.48248c0.48086,0.18519 0.79822,0.37526 0.95209,0.5702c0.16349,0.18519 0.24524,0.35089 0.24524,0.4971c0,0.14621 -0.06252,0.31678 -0.18754,0.51172l-0.21639,0.32165c-0.23081,0.35089 -0.43758,0.53121 -0.6203,0.54096c-0.18272,0.00975 -0.3895,-0.07798 -0.6203,-0.26317c-0.48086,-0.38013 -1.21657,-0.5702 -2.20712,-0.5702c-1.12519,0 -1.96669,0.48735 -2.52447,1.46206c-0.46162,0.80901 -0.70686,1.90068 -0.73571,3.27501c0.5674,-0.75052 1.42813,-1.21839 2.58218,-1.40357c0.29812,-0.04874 0.65396,-0.07311 1.06749,-0.07311c0.42315,0 0.89439,0.0926 1.41372,0.27779c0.51932,0.18519 0.9617,0.45324 1.32716,0.80413c0.79822,0.75052 1.19732,1.77396 1.19732,3.07032c0,1.33535 -0.40873,2.466 -1.22617,3.39197c-0.88477,0.9942 -2.07729,1.4913 -3.57755,1.4913zM250.28385,287.32582c0,-1.54003 -0.85112,-2.31005 -2.55333,-2.31005c-0.51932,0 -0.99056,0.10722 -1.41372,0.32166c-0.69243,0.35089 -1.12519,0.67255 -1.29831,0.96496v0.02924c0,1.18914 0.27409,2.09562 0.82226,2.71943c0.49047,0.57508 1.15405,0.86262 1.99074,0.86262c0.69243,0 1.26464,-0.22419 1.71664,-0.67255c0.49047,-0.4776 0.73571,-1.11604 0.73571,-1.91529z" fill="#737373" stroke-linecap="butt"/><path d="M205.23779,285.92224c0.63472,-0.44836 1.43775,-0.67254 2.40907,-0.67254c1.15405,0 2.11576,0.37039 2.88513,1.11116c0.82707,0.79926 1.2406,1.87631 1.2406,3.23114c0,1.42307 -0.48086,2.56348 -1.44257,3.42122c-0.94247,0.848 -2.20231,1.27199 -3.7795,1.27199c-1.20213,0 -2.26482,-0.25342 -3.18806,-0.76027c-0.38468,-0.20469 -0.76936,-0.51172 -1.15405,-0.9211c-0.19234,-0.20469 -0.17793,-0.46786 0.04328,-0.78951l0.40392,-0.57021c0.15387,-0.24367 0.30775,-0.36551 0.46162,-0.36551c0.15387,0 0.26447,0.03411 0.33179,0.10234c0.06732,0.05848 0.14907,0.12184 0.24524,0.19007c0.78859,0.67255 1.7984,1.00882 3.02938,1.00882c0.7309,0 1.34158,-0.21443 1.83205,-0.6433c0.52894,-0.45812 0.79342,-1.10142 0.79342,-1.92991c0,-0.74077 -0.24524,-1.34509 -0.73571,-1.81295c-0.452,-0.43862 -0.96652,-0.65792 -1.54354,-0.65792c-0.80783,0 -1.47622,0.22418 -2.00516,0.67254c-0.24042,0.20469 -0.5097,0.30703 -0.80783,0.30703c-0.07694,0 -0.15387,-0.00487 -0.23081,-0.01462c-0.06732,-0.0195 -0.16349,-0.03411 -0.28851,-0.04386c-0.12502,-0.0195 -0.23563,-0.03899 -0.3318,-0.05849c-0.09617,-0.02924 -0.17311,-0.06823 -0.23081,-0.11696c-0.09617,-0.07798 -0.14426,-0.2388 -0.14426,-0.48247v-6.28685c0,-0.38988 0.04809,-0.6433 0.14426,-0.76027c0.15387,-0.19494 0.40873,-0.29241 0.76456,-0.29241h6.31842c0.2212,0 0.38468,0.02925 0.49047,0.08773c0.1154,0.05848 0.1731,0.19494 0.1731,0.40938v0.95033c0,0.23393 -0.02405,0.38501 -0.07213,0.45324c-0.07694,0.12671 -0.25485,0.19007 -0.53375,0.19007h-5.07782z" fill="#737373" stroke-linecap="butt"/><path d="M175.38553,288.84636c0.38468,0 0.57702,0.17545 0.57702,0.52634v0.52634c0,0.18519 -0.04809,0.32165 -0.14426,0.40938c-0.08656,0.08772 -0.24042,0.15595 -0.46161,0.20469l-1.39928,0.27779v2.64632c0,0.18519 -0.0529,0.3314 -0.15869,0.43862c-0.10579,0.11696 -0.24043,0.17545 -0.40392,0.17545h-1.13962c-0.18272,0 -0.32218,-0.06336 -0.41834,-0.19007c-0.09617,-0.12671 -0.14426,-0.28754 -0.14426,-0.48248v-2.57322h-4.77487c-0.42315,0 -0.76456,-0.11697 -1.02422,-0.3509c-0.25004,-0.23393 -0.37506,-0.53609 -0.37506,-0.90648c0,-0.26317 0.08656,-0.6238 0.25966,-1.08192l0.63472,-1.76909c0.87515,-2.4855 1.50026,-4.63959 1.87533,-6.46229c0.10579,-0.46786 0.36064,-0.70179 0.76456,-0.70179c0.25004,0 0.62511,0.07798 1.1252,0.23393c0.3943,0.13646 0.54818,0.43862 0.46162,0.90648c-0.13464,0.77002 -0.3943,1.72035 -0.77898,2.85101c-0.89439,2.57322 -1.55316,4.34718 -1.97631,5.32189h3.80836v-3.65514c0,-0.22418 0.07694,-0.39475 0.23081,-0.51172c0.15387,-0.11696 0.33179,-0.17545 0.53375,-0.17545h0.80783c0.25004,0 0.42796,0.0731 0.53375,0.21931c0.10579,0.13646 0.15869,0.28753 0.15869,0.45324v3.66976z" fill="#737373" stroke-linecap="butt"/><path d="M284.2943,282.23787c-0.63472,0 -0.95209,-0.27779 -0.95209,-0.83337v-0.71641c0,-0.20469 0.03366,-0.36552 0.10099,-0.48248c0.07694,-0.11696 0.24042,-0.17544 0.49047,-0.17544h7.25609c0.24042,0 0.42796,0.0926 0.5626,0.27779c0.14426,0.17545 0.21639,0.38501 0.21639,0.62869c0,0.23393 -0.07694,0.60431 -0.23081,1.11116c-0.79822,2.38803 -1.26464,3.76723 -1.39928,4.13762l-0.30294,0.87724c-0.9617,2.59271 -1.83687,4.44465 -2.62547,5.55581c-0.79822,1.11117 -1.47622,1.66674 -2.03401,1.66674c-0.25004,0 -0.46162,-0.10722 -0.63472,-0.32166l-0.43277,-0.4971c-0.12502,-0.13646 -0.18754,-0.28266 -0.18754,-0.43861c0,-0.24367 0.13464,-0.46785 0.40392,-0.67255c0.2789,-0.19494 0.55779,-0.45811 0.83668,-0.78951c0.28851,-0.3314 0.57703,-0.72615 0.86554,-1.18426c0.56741,-0.92597 1.11077,-2.12973 1.63009,-3.61128l0.76456,-2.16384c0.2789,-0.79926 0.50971,-1.58877 0.69243,-2.36853z" fill="#737373" stroke-linecap="butt"/></g></g></svg>