<svg version="1.1" xmlns="http://www.w3.org/2000/svg" xmlns:xlink="http://www.w3.org/1999/xlink" width="110" height="101" viewBox="0,0,110,101"><g transform="translate(-198.55469,-119.42187)"><g data-paper-data="{&quot;isPaintingLayer&quot;:true}" fill-rule="nonzero" stroke-linejoin="miter" stroke-miterlimit="10" stroke-dasharray="" stroke-dashoffset="0" style="mix-blend-mode: normal"><path d="M198.55469,220.42188v-101h110v101z" fill="none" stroke="none" stroke-width="none" stroke-linecap="butt"/><path d="M215.55469,196.42188v-70h70v70z" fill="none" stroke="none" stroke-width="0" stroke-linecap="butt"/><g><path d="M225.11729,167.40864c0,0 0,-25.70169 0,-28.875c0,-0.62636 0.49025,-1.125 1.125,-1.125c3.07168,0 27.0906,0 32.875,0c0.79892,0 1.29411,0.34999 1.37134,0.96928c0.43696,3.50379 1.93427,15.62779 2.50361,21.75696c0.47765,5.14213 0.65879,9.65116 0.72093,11.66126c0.02206,0.71382 -0.46203,1.1125 -1.09588,1.1125c-3.45883,0 -33.5,0 -33.5,0z" fill="#8495a4" stroke="none" stroke-width="0" stroke-linecap="butt"/><path d="M225.11729,167.40864c0,0 0,-25.70169 0,-28.875c0,-0.62636 0.49025,-1.125 1.125,-1.125c2.07168,0 5,35.5 5,35.5h-2.125z" fill="#5a686b" stroke="#2e3e3e" stroke-width="2" stroke-linecap="butt"/><path d="M225.11729,167.40864c0,0 0,-25.70169 0,-28.875c0,-0.62636 0.49025,-1.125 1.125,-1.125c3.07168,0 27.0906,0 32.875,0c0.31499,0 0.45776,0.05441 0.67132,0.15827c0.3281,0.15957 0.65324,0.43588 0.70002,0.81101c0.01969,0.15787 0.04909,0.3663 0.08685,0.62049c0.38136,2.56723 1.61462,9.80291 2.2915,16.7792c0.74355,7.66341 0.81512,15.01373 0.84618,16.01854c0.02206,0.71382 -0.46203,1.1125 -1.09588,1.1125c-3.45883,0 -33.5,0 -33.5,0z" fill="none" stroke="#000000" stroke-width="2.5" stroke-linecap="butt"/><path d="M257.86729,167.90864c0,0 -2.08887,-0.6269 -3.22413,-12.37679c-0.95567,-9.89112 1.47413,-12.87321 1.47413,-12.87321" fill="none" stroke="#2e3e3e" stroke-width="2" stroke-linecap="round"/><path d="M233.83899,167.89429c-0.09873,-2.27401 -0.35667,-7.8419 -0.65006,-11.18655c-0.32936,-3.75468 -1.19751,-10.96715 -1.5478,-13.83236c-0.09318,-0.76219 0.31955,-1.21675 0.85675,-1.21675c1.74113,0 11.24441,0 14.84535,0c0.86045,0 1.44758,0.41733 1.55193,1.1188c0.3928,2.64029 1.3618,9.30611 1.67958,12.89565c0.29699,3.3546 0.45444,9.01992 0.5141,11.61406c0.01957,0.851 -0.50493,1.37923 -1.09974,1.38786c-1.87942,0.02726 -11.88062,0.17233 -15.10477,0.21909c-0.63113,0.00915 -1.01774,-0.3638 -1.04535,-0.9998z" fill="#0c160c" stroke="#2e3e3e" stroke-width="1.5" stroke-linecap="butt"/><path d="M251.61729,156.34989c0,-0.37073 0,-1.16085 0,-1.84615c0,-1.04304 0.45008,-1.2201 0.74256,-1.2201c0.62629,0 2.95247,0 4.15385,0c0.4396,0 0.72859,0.46755 0.72859,0.83549c0,0.45381 0,1.60341 0,2.38462c0,0.45147 -0.39326,0.7799 -0.95936,0.7799c-1.2096,0 -3.20834,0 -3.84615,0c-0.38665,0 -0.81949,-0.53261 -0.81949,-0.93374z" fill="#2e3e3e" stroke="none" stroke-width="0" stroke-linecap="butt"/><path d="M250.36729,156.65864v-2.75h2.5v2.75z" fill="#2e3e3e" stroke="none" stroke-width="0" stroke-linecap="butt"/><path d="M253.15896,155.74034c0,-0.16806 0,-0.52625 0,-0.83692c0,-0.47285 0.20404,-0.55311 0.33663,-0.55311c0.28392,0 1.33846,0 1.88308,0c0.19928,0 0.33029,0.21196 0.33029,0.37876c0,0.20573 0,0.72688 0,1.08103c0,0.20466 -0.17828,0.35355 -0.43491,0.35355c-0.54835,0 -1.45445,0 -1.74359,0c-0.17528,0 -0.3715,-0.24145 -0.3715,-0.4233z" fill="#9a9aa5" stroke="none" stroke-width="0" stroke-linecap="butt"/><path d="M248.88268,155.57936c0,1.50958 -1.01276,3.2 -3.16667,3.2c-2.15391,0 -3.9,-1.22376 -3.9,-2.73333c0,-1.50958 1.47942,-2.8 3.63333,-2.8c2.15391,0 3.43333,0.82376 3.43333,2.33333z" fill="#2c352c" stroke="#8e8f8e" stroke-width="1" stroke-linecap="butt"/></g></g></g></svg>