<svg version="1.1" xmlns="http://www.w3.org/2000/svg" xmlns:xlink="http://www.w3.org/1999/xlink" width="189.18919" height="153.15315" viewBox="0,0,189.18919,153.15315"><defs><linearGradient x1="240" y1="180.00001" x2="240" y2="180.00001" gradientUnits="userSpaceOnUse" id="color-1"><stop offset="0" stop-color="#e7bc52"/><stop offset="1" stop-color="#efd85e"/></linearGradient><linearGradient x1="240" y1="180.00001" x2="240" y2="180.00001" gradientUnits="userSpaceOnUse" id="color-2"><stop offset="0" stop-color="#efd85e" stop-opacity="0"/><stop offset="1" stop-color="#efd85e" stop-opacity="0"/></linearGradient></defs><g transform="translate(-147.56739,157.49012)"><g data-paper-data="{&quot;isPaintingLayer&quot;:true}" fill-rule="nonzero" stroke-linejoin="miter" stroke-miterlimit="10" stroke-dasharray="" stroke-dashoffset="0" style="mix-blend-mode: normal"><path d="" fill="url(#color-1)" stroke="#000000" stroke-width="15" stroke-linecap="butt"/><path d="" fill="#e7bc52" stroke="none" stroke-width="0" stroke-linecap="butt"/><path d="" fill="url(#color-2)" stroke="#000000" stroke-width="15" stroke-linecap="butt"/><g fill="none" stroke="#392f0e" stroke-width="5" stroke-linecap="round"><path d=""/><path d=""/><path d=""/></g><path d="M147.56739,-4.33697v-153.15315h189.18919v153.15315z" fill="none" stroke="none" stroke-width="0" stroke-linecap="butt"/><g stroke-linecap="butt"><path d="M238.0949,-29.10969c-15.39142,-9.69876 -63.15259,-43.20669 -47.03875,-76.52152c14.50512,-31.53217 39.68354,-15.4762 47.7502,-9.17629c1.63297,1.27532 3.61374,1.26144 5.43702,-0.01019c8.05299,-5.6165 31.21,-18.68954 45.7967,4.47889c19.09342,42.63385 -28.05975,73.29211 -42.98356,81.69863c-2.70577,1.52415 -6.09572,1.33641 -8.96161,-0.4695z" fill="#ad5085" stroke="none" stroke-width="0"/><path d="M240.35282,-58.04687c-12.3207,-7.1299 -50.55311,-31.76276 -37.65411,-56.25366c11.61122,-23.18041 31.76633,-11.3771 38.22363,-6.74582c1.30718,0.93753 2.89277,0.92733 4.35229,-0.00749c6.44635,-4.12889 24.98334,-13.73934 36.65986,3.29259c15.28412,31.34164 -22.46159,53.8796 -34.40797,60.05953c-2.16595,1.12046 -4.87957,0.98245 -7.1737,-0.34515z" fill="#e78cb9" stroke="none" stroke-width="0"/><path d="M282.2997,-102.98204c-3.47199,5.20799 -10.88104,6.36695 -16.54856,2.5886c-5.66752,-3.77835 -7.44735,-11.06321 -3.97535,-16.27121c3.47199,-5.20799 10.88104,-6.36695 16.54856,-2.5886c5.66752,3.77835 7.44735,11.06321 3.97535,16.27121z" fill="#f5ddea" stroke="none" stroke-width="0"/><path d="M238.0949,-29.10969c-15.39142,-9.69876 -63.15259,-43.20669 -47.03875,-76.52152c14.50512,-31.53217 39.68354,-15.4762 47.7502,-9.17629c1.63297,1.27532 3.61374,1.26144 5.43702,-0.01019c8.05299,-5.6165 31.21,-18.68954 45.7967,4.47889c19.09342,42.63385 -28.05975,73.29211 -42.98356,81.69863c-2.70577,1.52415 -6.09572,1.33641 -8.96161,-0.4695z" fill="none" stroke="#400b2b" stroke-width="16.5"/></g></g></g></svg>