<svg version="1.1" xmlns="http://www.w3.org/2000/svg" xmlns:xlink="http://www.w3.org/1999/xlink" width="112" height="87" viewBox="0,0,112,87"><g transform="translate(-183.5,-137.17229)"><g data-paper-data="{&quot;isPaintingLayer&quot;:true}" fill-rule="nonzero" stroke-linejoin="miter" stroke-miterlimit="10" stroke-dasharray="" stroke-dashoffset="0" style="mix-blend-mode: normal"><path d="M183.5,224.17229v-87h112v87z" fill="none" stroke="none" stroke-width="NaN" stroke-linecap="butt"/><path d="M229.5,188.45001c0,-4.57601 0,-14.96929 0,-17.3c0,-0.90893 0.8813,-1.775 1.8,-1.775c2.34726,0 12.77216,0 17.2,0c1.23222,0 2,0.92159 2,1.875c0,2.38672 0,12.80631 0,17.3c0,1.27665 -1.16479,2.075 -2.3,2.075c-2.57565,0 -12.69226,0 -16.8,0c-1.05464,0 -1.9,-0.8399 -1.9,-2.175z" fill="none" stroke="#eaf1f9" stroke-width="5" stroke-linecap="butt"/><path d="M229.5,188.45c0,-4.57601 0,-14.96929 0,-17.3c0,-0.90893 0.8813,-1.775 1.8,-1.775c2.34726,0 12.77216,0 17.2,0c1.23222,0 2,0.92159 2,1.875c0,2.38672 0,12.80631 0,17.3c0,1.27665 -1.16479,2.075 -2.3,2.075c-2.57565,0 -12.69226,0 -16.8,0c-1.05464,0 -1.9,-0.8399 -1.9,-2.175z" fill="#eabcbf" stroke="#6f363f" stroke-width="1.5" stroke-linecap="butt"/><path d="M234.2,185.85l11.7,-11.8" fill="none" stroke="#b14b53" stroke-width="2.5" stroke-linecap="round"/><path d="M245.9,185.85l-11.7,-11.8" data-paper-data="{&quot;index&quot;:null}" fill="none" stroke="#b14b53" stroke-width="2.5" stroke-linecap="round"/></g></g></svg>