<svg version="1.1" xmlns="http://www.w3.org/2000/svg" xmlns:xlink="http://www.w3.org/1999/xlink" width="593" height="411.0196" viewBox="0,0,593,411.0196"><g transform="translate(101.69453,-22.42187)"><g data-paper-data="{&quot;isPaintingLayer&quot;:true}" fill-rule="nonzero" stroke-linecap="butt" stroke-linejoin="miter" stroke-miterlimit="10" stroke-dasharray="" stroke-dashoffset="0" style="mix-blend-mode: normal"><path d="M293.125,245.90437v-49.80874h134.75v49.80874z" fill="#000000" stroke="#000000" stroke-width="2"/><path d="M341.11215,326.56961c25.57602,2.79944 -10.63467,17.58528 11.08607,20.6826c-1.34994,5.16939 -0.66189,10.77208 -1.58537,20.21332c-0.29965,3.06349 -0.53425,6.1254 -0.71684,9.18661c-2.86173,-0.49171 -5.72379,-0.98151 -8.58679,-1.46577c-5.51702,-0.93317 -10.96502,-2.60616 -16.5584,-2.75573c-7.08931,-0.18957 -14.13695,1.15082 -21.20378,1.74595c-12.82487,1.08003 -25.70145,1.68899 -38.46744,3.32402c-5.59992,0.71722 -11.17835,1.71064 -16.75229,2.76904c-5.17065,-1.11284 -10.33397,-2.27886 -15.58607,-2.8394c-2.82537,-0.30154 -5.65915,0.52031 -8.48472,0.81992c-4.05033,0.42947 -8.0996,0.86874 -12.1483,1.31334c-0.87997,-0.04945 -1.75982,-0.09639 -2.63952,-0.1407c-9.33184,-0.46994 -18.64536,1.25177 -27.96688,1.89464c-12.13248,0.83672 -24.31119,1.49192 -36.47077,2.29783c-2.96833,-0.21771 -5.93696,-0.43133 -8.90567,-0.64351c-2.75431,-0.19686 -5.51912,-0.81617 -8.26647,-0.53869c-16.04428,1.62043 -31.75427,6.35888 -47.78226,8.06791c-4.55035,0.48519 -9.11497,0.81988 -13.67883,1.1624c-6.31153,-2.03623 -12.4331,-4.98592 -19.00324,-5.8807l-18.88309,-5.84477c-0.99882,-0.33471 -2.06797,-0.51605 -3.17947,-0.51605c-0.34742,0 -0.6907,0.01772 -1.02899,0.0523l-1.1366,-0.87697l-2.13112,-2.01272l-0.08823,-0.06945l-0.01564,-0.02866l-15.765,-14.88917l-0.38384,-0.44271l-0.44668,-0.37923l-10.8969,-11.30049c-23.8717,-15.79032 -47.96634,-31.26158 -70.98553,-48.25583c-3.51397,-2.34965 -6.3991,-5.56623 -8.34951,-9.34388c-2.02209,-3.52634 -3.27874,-7.46586 -3.34217,-11.51121c-0.03145,-2.00523 0.42948,-3.87184 1.22316,-5.64294c1.6226,-6.95687 6.15,-12.79752 12.23394,-16.17371l-2.10562,-2.00034l-0.20999,-0.24364l-0.24894,-0.20368l-1.71297,-1.71297l-1.10887,-0.70034l-0.14561,-0.14168l-3.20452,-1.81341l-1.25611,-2.52666l-1.85739,-1.80719l-4.36732,-10.48157l1.35683,-6.70436l0.45501,-6.82513l6.97132,-8.96312l2.26745,-1.2548l1.87666,-2.10713l3.56874,-0.90635l0.17776,-0.09837l3.75379,-1.14912l1.87492,-0.37498l0.97044,-0.68752l3.59604,-0.07881l2.4656,-0.24173l1.41095,0.15677l3.87971,-0.08502l1.77306,0.71311l1.8994,0.21104l3.37737,1.91122l1.3171,0.52973l2.05752,1.37994l3.13043,1.77148l0.52944,1.06496l19.98678,16.51082l10.76482,7.8942c0.74117,-3.49941 2.29359,-6.63637 5.65551,-10.05778c2.64107,-2.68781 -15.22283,-38.03945 -11.18725,-39.11751c0.84193,-0.22491 -13.08783,-20.54113 2.1962,-11.46294c11.03727,6.55576 40.24286,20.77147 68.79691,40.7781c12.25103,8.58378 26.63811,16.89226 38.33493,25.8977c6.45165,4.96716 17.56553,11.77824 23.26757,16.29308c9.47616,7.50317 12.23476,9.18816 17.71238,14.41164c4.26634,4.0684 11.75559,8.2502 15.14651,10.24144c6.29804,3.69838 14.55667,8.6333 21.01062,12.54054c11.08913,6.71339 23.83976,11.28798 33.1918,20.26448c2.45624,2.3576 5.96874,-1.89555 7.24625,1.22924c0.25846,0.6322 1.34428,0.87044 2.67369,2.3151c21.15211,3.22879 108.33462,1.32587 129.60433,3.65395zM149.79488,349.96584l0.55132,0.60645c0.00355,-0.10621 0.00776,-0.21225 0.01262,-0.31813c-0.18793,-0.09617 -0.37592,-0.19227 -0.56394,-0.28832z" fill="#000000" stroke="none" stroke-width="0.5"/><path d="M206.23773,431.13896l-2.19011,0.49454l-2.18005,0.53711l-7,1l-1.77138,0.07485l-1.76416,0.17642h-5.97506l-0.06095,0.0196l-0.20974,-0.0196h-2.75425l-3.90625,-0.39062l-1.03133,-0.32815l-1.07758,-0.1007l-3.74858,-1.16598l-2.53552,-1.07567l-0.17319,-0.05511c0.74329,-0.00813 1.48659,-0.01627 2.22988,-0.0244c5.10412,0.12938 10.20846,0.20931 15.31304,0.14039c7.4157,-0.10012 14.83268,-0.24369 22.25048,-0.42109z" fill="#000000" stroke="none" stroke-width="0.5"/><path d="M412.30547,120.42188v-20h15v20z" fill="#000000" stroke="none" stroke-width="0"/><path d="M-101.69453,396.42187v-374h593v374z" fill="none" stroke="none" stroke-width="0"/></g></g></svg>