<svg version="1.1" xmlns="http://www.w3.org/2000/svg" xmlns:xlink="http://www.w3.org/1999/xlink" width="93.71875" height="88.83708" viewBox="0,0,93.71875,88.83708"><defs><linearGradient x1="238.16548" y1="175.22582" x2="251.04458" y2="175.52919" gradientUnits="userSpaceOnUse" id="color-1"><stop offset="0" stop-color="#8a1c11"/><stop offset="1" stop-color="#d82200"/></linearGradient></defs><g transform="translate(-193.14062,-136.20644)"><g data-paper-data="{&quot;isPaintingLayer&quot;:true}" fill-rule="nonzero" stroke-linejoin="miter" stroke-miterlimit="10" stroke-dasharray="" stroke-dashoffset="0" style="mix-blend-mode: normal"><path d="" fill="#5d626d" stroke="none" stroke-width="0" stroke-linecap="butt"/><path d="" fill="none" stroke="#6a7477" stroke-width="6" stroke-linecap="round"/><path d="" fill="none" stroke="#303044" stroke-width="6" stroke-linecap="round"/><path d="" fill="none" stroke="#4a5757" stroke-width="6" stroke-linecap="round"/><g><path d="M200.52767,189.99922c0,0 6.09457,-7.01906 5.46819,-10.74537c-0.31094,-1.84978 -4.14174,-6.0839 -6.6725,-8.71221c-1.27414,-1.32325 -1.15452,-2.47575 0.33569,-2.89649c3.48823,-0.98486 9.31043,-2.98043 9.28051,-5.32212c-0.04801,-3.75684 -9.07855,-19.33359 -9.07855,-20.65714c0,-1.59078 2.26743,-1.82617 4.04591,-0.74197c3.29665,2.0097 8.01593,6.19005 10.00709,6.07332c3.30716,-0.19388 5.26432,-5.01047 6.21846,-8.29537c0.49895,-1.71777 0.85949,-0.99 1.69594,0.50245c0.67425,1.20304 1.88757,4.25005 3.35882,6.46631c1.71971,2.59053 5.36567,1.97951 6.45211,0.49924c0.91758,-1.2502 2.72355,-3.71081 4.02897,-5.48944c0.87974,-1.19864 1.46182,-0.66951 1.71634,1.22819c0.40065,2.98717 1.60627,7.16285 5.15829,8.86718c5.04399,2.42021 15.39131,-5.89644 19.70059,-9.67348c1.21567,-1.06552 1.63139,-0.58052 1.24886,1.19739c-0.87973,4.08876 -2.09328,11.29095 -0.5231,14.3019c1.92532,3.69197 6.44137,3.69134 9.57533,3.1652c1.89915,-0.31883 2.22125,0.18881 0.93392,1.86127c-2.09177,2.71758 -4.75864,7.15928 -4.34668,11.75306c0.49202,5.48651 4.00844,10.54516 6.23188,13.24374c1.0631,1.29028 0.86709,2.07075 -0.4651,2.28028c-2.4593,0.3868 -6.17504,1.3863 -7.40491,3.94252c-1.33827,2.78153 -1.60903,11.37457 -1.65325,16.14209c-0.01816,1.95793 -1.43802,2.77989 -3.15608,2.19432c-1.02715,-0.35009 -8.90623,-10.99053 -11.38898,-11.83673c-4.82367,-1.64406 -12.27632,7.35844 -15.47361,11.62246c-0.96538,1.28746 -1.91889,0.8075 -2.68377,-0.88205c-1.36651,-3.01853 -3.97404,-7.16734 -7.89523,-6.85035c-3.21434,0.25985 -9.74984,5.18744 -13.36973,8.11007c-0.68289,0.55136 -1.02066,0.03863 -0.33839,-1.05116c2.83141,-4.5226 6.8895,-12.95583 2.69324,-19.1849c-2.47824,-3.6788 -13.70025,-1.11221 -13.70025,-1.11221z" fill="#dd2200" stroke="#fdfdfd" stroke-width="3" stroke-linecap="butt"/><g><path d="M246.66087,203.23333v-20.5h9.5v20.5z" fill="#313738" stroke="none" stroke-width="NaN" stroke-linecap="butt"/><path d="M211.16089,186.67588c0,0 -2.19023,-8.6405 4.69899,-23.14144c6.41749,-13.50801 13.80101,-19.35856 13.80101,-19.35856c0,0 1.9888,11.29912 7.4172,16.91617c5.11827,5.29614 19.87597,11.21507 24.99038,13.16262c1.11375,0.42411 2.70306,1.01586 3.20743,1.55526c1.33158,1.42407 3.25858,4.12657 4.01178,4.93208c0.41572,0.4446 0.50639,1.63084 0.17432,2.26179c-0.58997,1.12095 -2.5409,4.82773 -3.60086,6.84165c-0.42009,0.79817 -1.61933,1.33409 -2.32774,1.33692c-0.76108,0.00303 -2.53135,0.01008 -3.90975,0.01557c-1.035,0.00412 -2.57711,-0.29445 -3.68766,-0.754c-2.59398,-1.07339 -17.78629,-9.9622 -25.90922,-10.02411c-1.55322,-0.01183 -2.72834,0.04694 -3.64154,0.14692c-2.64088,0.28911 -5.5778,1.58114 -6.28556,1.82442c-4.59022,1.57781 -8.93876,4.28472 -8.93876,4.28472z" fill="#d6d7dd" stroke="#313738" stroke-width="2" stroke-linecap="butt"/><path d="M267.60394,184.39452l-4.99667,-5.75106c0,0 -10.07613,-4.45466 -13.56533,-5.95869c-4.9077,-2.2907 -8.58712,-4.07954 -11.23627,-5.75595c-3.94005,-2.49331 -7.60173,-8.4843 -7.60173,-8.4843" fill="none" stroke="#e3e7ea" stroke-width="2.5" stroke-linecap="round"/><path d="M256.87479,190.75354c0,0 0.74229,-2.43222 3.05869,-7.25859c2.54464,-5.30191 4.94131,-7.94141 4.94131,-7.94141" fill="none" stroke="#2c3232" stroke-width="1.5" stroke-linecap="round"/><path d="M224.04146,179.75354c0,0 -0.54591,-2.339 2.95156,-9.62618c3.84207,-8.00518 7.46072,-10.32382 7.46072,-10.32382" fill="none" stroke="#dd2000" stroke-width="3.5" stroke-linecap="round"/><path d="M230.70023,179.32597c0,0 -0.40651,-1.74173 2.19788,-7.16813c2.861,-5.96106 5.55563,-7.68763 5.55563,-7.68763" fill="none" stroke="#dd2000" stroke-width="3.5" stroke-linecap="round"/><path d="M211.16089,186.67587c0,0 -2.19023,-8.6405 4.69899,-23.14144c6.41749,-13.50801 13.80101,-19.35856 13.80101,-19.35856c0,0 1.9888,11.29912 7.4172,16.91617c5.11827,5.29614 19.87597,11.21507 24.99038,13.16262c1.11375,0.42411 2.70306,1.01586 3.20743,1.55526c1.33158,1.42407 3.25858,4.12657 4.01178,4.93208c0.41572,0.4446 0.50639,1.63084 0.17432,2.26179c-0.58997,1.12095 -2.5409,4.82773 -3.60086,6.84165c-0.42009,0.79817 -1.61933,1.33409 -2.32774,1.33692c-0.76108,0.00303 -2.53135,0.01008 -3.90975,0.01557c-1.035,0.00412 -2.57711,-0.29445 -3.68766,-0.754c-2.59398,-1.07339 -17.78629,-9.9622 -25.90922,-10.02411c-1.55322,-0.01183 -2.72834,0.04694 -3.64154,0.14692c-2.64088,0.28911 -5.5778,1.58114 -6.28556,1.82442c-4.59022,1.57781 -8.93876,4.28472 -8.93876,4.28472z" fill="none" stroke="#313738" stroke-width="2" stroke-linecap="butt"/><g stroke-linecap="butt"><path d="M238.15836,182.2029c1.84703,-4.01879 6.34697,-13.80983 7.37574,-16.04827c0.40945,-0.89087 1.66981,-1.35985 2.28039,-1.07924c0.51163,0.23514 1.53593,0.70592 2.41706,1.11088c0.37355,0.17168 0.65491,0.47615 0.8215,0.83083c0.21107,0.44942 0.23785,0.97951 0.03433,1.42231c-0.96335,2.09608 -5.37768,11.70084 -7.33439,15.95828c-0.57549,1.25216 -1.84087,1.627 -2.81076,1.18125c-0.75855,-0.34863 -1.55833,-0.71622 -1.99989,-0.91915c-0.64261,-0.29533 -1.27581,-1.38679 -0.784,-2.4569z" fill="none" stroke="none" stroke-width="0"/><path d="M238.15835,182.2029c1.84703,-4.01879 6.34698,-13.80983 7.37575,-16.04826c0.40945,-0.89087 1.6698,-1.35986 2.28038,-1.07924c0.51165,0.23516 1.53593,0.70592 2.41706,1.11088c0.37356,0.17168 0.65491,0.47615 0.8215,0.83083c0.21107,0.44943 0.23785,0.97951 0.03433,1.42231c-0.96335,2.09608 -5.37768,11.70083 -7.3344,15.95828c-0.57548,1.25215 -1.84086,1.627 -2.81075,1.18124c-0.75855,-0.34863 -1.55833,-0.71621 -1.9999,-0.91915c-0.64261,-0.29533 -1.27581,-1.38679 -0.784,-2.4569z" fill="none" stroke="#3c302e" stroke-width="1.5"/><path d="M238.15836,182.2029c1.84703,-4.01879 6.34698,-13.80983 7.37575,-16.04826c0.40945,-0.89087 1.6698,-1.35986 2.28038,-1.07924c0.51165,0.23516 1.53594,0.70592 2.41706,1.11088c0.37356,0.17168 0.65491,0.47615 0.8215,0.83083c0.21107,0.44943 0.23785,0.97951 0.03433,1.42231c-0.96335,2.09608 -5.37768,11.70083 -7.3344,15.95828c-0.57548,1.25215 -1.84086,1.627 -2.81075,1.18124c-0.75855,-0.34863 -1.55833,-0.71621 -1.9999,-0.91915c-0.64261,-0.29533 -1.27581,-1.38679 -0.784,-2.4569z" fill="url(#color-1)" stroke="#3c302e" stroke-width="1.5"/></g></g><g fill="#ffffff" stroke-linecap="square"><path d="M195.89062,213.24691v-10.03268c0,-1.75811 0.64591,-2.63716 1.93774,-2.63716c1.23068,0 1.8613,0.81026 1.89188,2.43077c0.81026,-1.62052 1.9301,-2.43077 3.35951,-2.43077c0.75675,0 1.53643,0.19874 2.33905,0.59623c0.81026,0.38984 1.21539,0.92874 1.21539,1.61669c0,0.48157 -0.16435,0.87905 -0.49303,1.19246c-0.32105,0.30576 -0.66502,0.45864 -1.03193,0.45864c-0.21403,0 -0.59623,-0.08408 -1.14659,-0.25225c-0.55036,-0.16817 -1.009,-0.25225 -1.37591,-0.25225c-0.94021,0 -1.63963,0.47393 -2.09826,1.42177c-0.45864,0.94785 -0.68795,2.77475 -0.68795,5.48071v2.25879c0,0.99371 -0.04204,1.66638 -0.12613,2.018c-0.07644,0.34398 -0.28665,0.65738 -0.63063,0.94021c-0.34398,0.28282 -0.74146,0.42424 -1.19246,0.42424c-0.42806,0 -0.81408,-0.12613 -1.15806,-0.37838c-0.34398,-0.25225 -0.56565,-0.55036 -0.66502,-0.89434c-0.09173,-0.35162 -0.13759,-1.00518 -0.13759,-1.96067zM219.69672,209.48609h-7.68216c0.03822,1.45235 0.4357,2.54926 1.19246,3.29072c0.76439,0.74146 1.67402,1.11219 2.72888,1.11219c1.31476,0 2.54926,-0.5733 3.70349,-1.71989c0.46628,-0.48157 0.81026,-0.77968 1.03193,-0.89434c0.22932,-0.11466 0.48157,-0.17199 0.75675,-0.17199c0.35162,0 0.65356,0.11084 0.90581,0.33251c0.25989,0.22168 0.38984,0.49303 0.38984,0.81408c0,0.87905 -0.60387,1.80397 -1.81161,2.77475c-1.2001,0.97078 -2.82826,1.45617 -4.88448,1.45617c-2.62187,0 -4.60929,-0.73764 -5.96227,-2.21292c-1.34534,-1.47528 -2.018,-3.39009 -2.018,-5.74442c0,-2.36962 0.67267,-4.28443 2.018,-5.74442c1.35298,-1.46764 3.23339,-2.20146 5.64123,-2.20146c2.30847,0 4.08569,0.69178 5.33165,2.07533c1.25361,1.38355 1.88041,2.88941 1.88041,4.51757c0,0.71089 -0.21021,1.27654 -0.63063,1.69696c-0.41277,0.41277 -1.27654,0.61916 -2.5913,0.61916zM212.01456,207.2617h7.12033c-0.04586,-1.29947 -0.40513,-2.28936 -1.0778,-2.96967c-0.66502,-0.68031 -1.49057,-1.02047 -2.47664,-1.02047c-2.07151,0 -3.26014,1.33005 -3.5659,3.99014zM229.70933,203.17984c1.3912,-1.73518 3.09197,-2.60276 5.10233,-2.60276c2.01036,0 3.60412,0.75675 4.78129,2.27025c1.18481,1.50586 1.77722,3.45506 1.77722,5.84762c0,2.2779 -0.58094,4.14684 -1.74282,5.60683c-1.15423,1.45235 -2.748,2.17852 -4.78129,2.17852c-1.94921,0 -3.66145,-0.81026 -5.13673,-2.43077v5.10233c0,1.40648 -0.17581,2.28172 -0.52743,2.62569c-0.34398,0.34398 -0.81026,0.51597 -1.39884,0.51597c-0.71853,0 -1.22685,-0.23696 -1.52497,-0.71089c-0.29811,-0.47393 -0.44717,-1.3224 -0.44717,-2.54543v-15.44459c0,-0.80261 0.0344,-1.3912 0.10319,-1.76575c0.07644,-0.37455 0.28665,-0.67649 0.63063,-0.90581c0.34398,-0.22932 0.75675,-0.34398 1.23832,-0.34398c1.28418,0 1.92627,0.73 1.92627,2.18999zM237.41443,208.61468c0,-1.71989 -0.36309,-2.9926 -1.08926,-3.81815c-0.71853,-0.82555 -1.55936,-1.23832 -2.5225,-1.23832c-1.12366,0 -2.04858,0.42042 -2.77475,1.26125c-0.72618,0.84084 -1.08926,2.01418 -1.08926,3.52004c0,1.57465 0.35162,2.82826 1.05486,3.76082c0.70324,0.92492 1.64727,1.38738 2.83208,1.38738c1.05486,0 1.91481,-0.43188 2.57983,-1.29565c0.67267,-0.86377 1.009,-2.05622 1.009,-3.57737zM251.40285,200.57707c2.42313,0 4.33029,0.74911 5.72149,2.24732c1.3912,1.49057 2.0868,3.39009 2.0868,5.69856c0,2.32376 -0.70706,4.23092 -2.12119,5.72149c-1.40648,1.49057 -3.27161,2.23585 -5.59537,2.23585c-2.5225,0 -4.46788,-0.75293 -5.83615,-2.25879c-1.36827,-1.5135 -2.0524,-3.41302 -2.0524,-5.69856c0,-2.31611 0.69178,-4.21946 2.07533,-5.71003c1.3912,-1.49057 3.29836,-2.23585 5.72149,-2.23585zM251.40285,213.56796c1.18481,0 2.12119,-0.44335 2.80915,-1.33005c0.6956,-0.89434 1.0434,-2.13266 1.0434,-3.71496c0,-1.5823 -0.3478,-2.82062 -1.0434,-3.71496c-0.68795,-0.89434 -1.62434,-1.34151 -2.80915,-1.34151c-1.16952,0 -2.10209,0.45099 -2.79768,1.35298c-0.6956,0.89434 -1.0434,2.12884 -1.0434,3.70349c0,1.58994 0.34398,2.82826 1.03193,3.71496c0.6956,0.8867 1.63198,1.33005 2.80915,1.33005zM262.26394,213.24691v-10.03268c0,-1.75811 0.64591,-2.63716 1.93774,-2.63716c1.23068,0 1.8613,0.81026 1.89188,2.43077c0.81026,-1.62052 1.9301,-2.43077 3.35951,-2.43077c0.75675,0 1.53643,0.19874 2.33905,0.59623c0.81026,0.38984 1.21539,0.92874 1.21539,1.61669c0,0.48157 -0.16435,0.87905 -0.49303,1.19246c-0.32105,0.30576 -0.66502,0.45864 -1.03193,0.45864c-0.21403,0 -0.59623,-0.08408 -1.14659,-0.25225c-0.55036,-0.16817 -1.009,-0.25225 -1.37591,-0.25225c-0.94021,0 -1.63963,0.47393 -2.09826,1.42177c-0.45864,0.94785 -0.68795,2.77475 -0.68795,5.48071v2.25879c0,0.99371 -0.04204,1.66638 -0.12613,2.018c-0.07644,0.34398 -0.28665,0.65738 -0.63063,0.94021c-0.34398,0.28282 -0.74146,0.42424 -1.19246,0.42424c-0.42806,0 -0.81408,-0.12613 -1.15806,-0.37838c-0.34398,-0.25225 -0.56565,-0.55036 -0.66502,-0.89434c-0.09173,-0.35162 -0.13759,-1.00518 -0.13759,-1.96067zM275.79658,200.92105v-2.35051c0,-0.97078 0.03822,-1.62816 0.11466,-1.97214c0.08408,-0.35162 0.29429,-0.6612 0.63063,-0.92874c0.34398,-0.27518 0.74528,-0.41277 1.20392,-0.41277c0.42042,0 0.79879,0.12613 1.13513,0.37838c0.33633,0.24461 0.55801,0.54272 0.66502,0.89434c0.10702,0.35162 0.16052,0.92492 0.16052,1.71989v2.67156h0.75675c0.95549,0 1.58994,0.11848 1.90334,0.35544c0.32105,0.22932 0.48157,0.56947 0.48157,1.02047c0,0.96314 -0.80261,1.44471 -2.40784,1.44471h-0.73382v7.22353c0,0.97078 0.0688,1.6358 0.20639,1.99507c0.13759,0.35162 0.50832,0.52743 1.11219,0.52743c0.28282,0 0.60387,-0.03822 0.96314,-0.11466c0.35927,-0.08408 0.6268,-0.12613 0.80261,-0.12613c0.38984,0 0.70706,0.12995 0.95167,0.38984c0.24461,0.25225 0.36691,0.56183 0.36691,0.92874c0,1.27654 -1.35298,1.91481 -4.05893,1.91481c-1.30711,0 -2.27025,-0.24078 -2.88941,-0.72235c-0.61916,-0.48921 -1.00136,-1.08162 -1.14659,-1.77722c-0.14523,-0.70324 -0.21785,-1.61287 -0.21785,-2.72889v-7.51017h-0.51597c-1.16188,0 -1.74282,-0.47393 -1.74282,-1.42177c0,-0.93256 0.60769,-1.39884 1.82308,-1.39884z" stroke="#000000" stroke-width="5.5"/><path d="M195.89062,213.24692v-10.03267c0,-1.75811 0.64591,-2.63716 1.93774,-2.63716c1.23067,0 1.8613,0.81025 1.89188,2.43077c0.81025,-1.62052 1.9301,-2.43077 3.35952,-2.43077c0.75675,0 1.53643,0.19874 2.33905,0.59623c0.81025,0.38984 1.21539,0.92874 1.21539,1.6167c0,0.48157 -0.16435,0.87905 -0.49303,1.19246c-0.32105,0.30575 -0.66502,0.45864 -1.03193,0.45864c-0.21403,0 -0.59623,-0.08409 -1.14659,-0.25225c-0.55036,-0.16817 -1.009,-0.25225 -1.37591,-0.25225c-0.94021,0 -1.63962,0.47392 -2.09826,1.42177c-0.45864,0.94784 -0.68795,2.77474 -0.68795,5.48071v2.25879c0,0.99372 -0.04204,1.66638 -0.12612,2.018c-0.07644,0.34398 -0.28664,0.65738 -0.63062,0.94021c-0.34398,0.28282 -0.74146,0.42424 -1.19246,0.42424c-0.42807,0 -0.81408,-0.12612 -1.15805,-0.37837c-0.34398,-0.25225 -0.56566,-0.55036 -0.66502,-0.89434c-0.09173,-0.35162 -0.13759,-1.00518 -0.13759,-1.96067zM219.69672,209.4861h-7.68216c0.03822,1.45235 0.4357,2.54926 1.19246,3.29072c0.7644,0.74146 1.67402,1.1122 2.72889,1.1122c1.31476,0 2.54926,-0.5733 3.70349,-1.71989c0.46628,-0.48157 0.81026,-0.77968 1.03193,-0.89434c0.22932,-0.11466 0.48157,-0.17199 0.75675,-0.17199c0.35162,0 0.65356,0.11084 0.90581,0.33252c0.2599,0.22167 0.38984,0.49304 0.38984,0.81408c0,0.87906 -0.60387,1.80397 -1.81161,2.77475c-1.20009,0.97078 -2.82825,1.45617 -4.88448,1.45617c-2.62187,0 -4.6093,-0.73764 -5.96228,-2.21292c-1.34533,-1.47528 -2.018,-3.39009 -2.018,-5.74442c0,-2.36963 0.67267,-4.28443 2.018,-5.74442c1.35298,-1.46764 3.23339,-2.20146 5.64123,-2.20146c2.30848,0 4.08569,0.69178 5.33165,2.07533c1.25361,1.38355 1.88041,2.88941 1.88041,4.51757c0,0.71089 -0.21021,1.27654 -0.63062,1.69696c-0.41277,0.41277 -1.27654,0.61916 -2.5913,0.61916zM212.01456,207.26171h7.12033c-0.04586,-1.29948 -0.40513,-2.28936 -1.0778,-2.96967c-0.66502,-0.68032 -1.49057,-1.02046 -2.47664,-1.02046c-2.0715,0 -3.26014,1.33005 -3.5659,3.99014zM229.70933,203.17984c1.3912,-1.73518 3.09197,-2.60276 5.10234,-2.60276c2.01036,0 3.60412,0.75675 4.78129,2.27025c1.18482,1.50585 1.77722,3.45506 1.77722,5.84762c0,2.2779 -0.58093,4.14684 -1.74282,5.60684c-1.15423,1.45235 -2.748,2.17852 -4.78128,2.17852c-1.94921,0 -3.66145,-0.81026 -5.13673,-2.43077v5.10234c0,1.40649 -0.17582,2.28172 -0.52743,2.6257c-0.34398,0.34398 -0.81025,0.51597 -1.39884,0.51597c-0.71853,0 -1.22685,-0.23696 -1.52496,-0.71089c-0.29811,-0.47392 -0.44717,-1.3224 -0.44717,-2.54543v-15.44458c0,-0.80261 0.0344,-1.3912 0.1032,-1.76575c0.07643,-0.37456 0.28665,-0.67649 0.63063,-0.9058c0.34398,-0.22932 0.75675,-0.34398 1.23832,-0.34398c1.28418,0 1.92627,0.73 1.92627,2.18999zM237.41443,208.61469c0,-1.71989 -0.36309,-2.9926 -1.08926,-3.81815c-0.71853,-0.82555 -1.55936,-1.23832 -2.5225,-1.23832c-1.12366,0 -2.04857,0.42041 -2.77475,1.26125c-0.72618,0.84083 -1.08926,2.01418 -1.08926,3.52004c0,1.57465 0.35162,2.82826 1.05486,3.76082c0.70325,0.92492 1.64727,1.38738 2.83208,1.38738c1.05486,0 1.91481,-0.43188 2.57983,-1.29564c0.67266,-0.86376 1.009,-2.05622 1.009,-3.57737zM251.40284,200.57708c2.42314,0 4.33029,0.7491 5.7215,2.24732c1.3912,1.49057 2.0868,3.39009 2.0868,5.69856c0,2.32376 -0.70706,4.23093 -2.12119,5.7215c-1.40648,1.49057 -3.27161,2.23586 -5.59537,2.23586c-2.5225,0 -4.46788,-0.75293 -5.83615,-2.25878c-1.36827,-1.5135 -2.0524,-3.41302 -2.0524,-5.69856c0,-2.31611 0.69178,-4.21946 2.07533,-5.71003c1.3912,-1.49057 3.29836,-2.23585 5.7215,-2.23585zM251.40284,213.56796c1.18482,0 2.1212,-0.44335 2.80915,-1.33005c0.6956,-0.89434 1.0434,-2.13266 1.0434,-3.71496c0,-1.5823 -0.3478,-2.82062 -1.04339,-3.71496c-0.68795,-0.89434 -1.62434,-1.34151 -2.80915,-1.34151c-1.16952,0 -2.10209,0.45099 -2.79768,1.35298c-0.69559,0.89434 -1.04339,2.12884 -1.04339,3.70349c0,1.58994 0.34398,2.82826 1.03193,3.71496c0.6956,0.8867 1.63198,1.33005 2.80915,1.33005zM262.26393,213.24692v-10.03267c0,-1.75811 0.64591,-2.63716 1.93774,-2.63716c1.23068,0 1.8613,0.81025 1.89188,2.43077c0.81025,-1.62052 1.9301,-2.43077 3.35952,-2.43077c0.75675,0 1.53643,0.19874 2.33905,0.59623c0.81025,0.38984 1.21539,0.92874 1.21539,1.6167c0,0.48157 -0.16435,0.87905 -0.49303,1.19246c-0.32105,0.30575 -0.66502,0.45864 -1.03193,0.45864c-0.21403,0 -0.59623,-0.08409 -1.14659,-0.25225c-0.55036,-0.16817 -1.009,-0.25225 -1.37591,-0.25225c-0.94021,0 -1.63962,0.47392 -2.09826,1.42177c-0.45864,0.94784 -0.68795,2.77474 -0.68795,5.48071v2.25879c0,0.99372 -0.04204,1.66638 -0.12612,2.018c-0.07643,0.34398 -0.28664,0.65738 -0.63062,0.94021c-0.34398,0.28282 -0.74146,0.42424 -1.19246,0.42424c-0.42807,0 -0.81408,-0.12612 -1.15805,-0.37837c-0.34398,-0.25225 -0.56566,-0.55036 -0.66502,-0.89434c-0.09173,-0.35162 -0.13759,-1.00518 -0.13759,-1.96067zM275.79658,200.92106v-2.35051c0,-0.97078 0.03822,-1.62816 0.11466,-1.97214c0.08409,-0.35162 0.29429,-0.6612 0.63063,-0.92874c0.34398,-0.27518 0.74529,-0.41277 1.20392,-0.41277c0.42042,0 0.79879,0.12613 1.13513,0.37838c0.33634,0.2446 0.55801,0.54272 0.66502,0.89434c0.10702,0.35162 0.16052,0.92491 0.16052,1.71989v2.67156h0.75675c0.9555,0 1.58994,0.11848 1.90334,0.35545c0.32105,0.22932 0.48157,0.56947 0.48157,1.02047c0,0.96314 -0.80261,1.44471 -2.40784,1.44471h-0.73382v7.22353c0,0.97078 0.0688,1.6358 0.20639,1.99507c0.13759,0.35162 0.50832,0.52743 1.1122,0.52743c0.28283,0 0.60387,-0.03822 0.96314,-0.11466c0.35927,-0.08409 0.62681,-0.12612 0.80261,-0.12612c0.38984,0 0.70706,0.12994 0.95167,0.38984c0.24461,0.25225 0.36691,0.56183 0.36691,0.92874c0,1.27654 -1.35298,1.91481 -4.05893,1.91481c-1.30711,0 -2.27025,-0.24078 -2.88941,-0.72235c-0.61916,-0.48921 -1.00135,-1.08162 -1.14659,-1.77721c-0.14523,-0.70325 -0.21785,-1.61287 -0.21785,-2.72889v-7.51017h-0.51596c-1.16188,0 -1.74282,-0.47393 -1.74282,-1.42177c0,-0.93257 0.6077,-1.39884 1.82308,-1.39884z" stroke="none" stroke-width="1"/></g></g></g></g></svg>