<svg version="1.1" xmlns="http://www.w3.org/2000/svg" xmlns:xlink="http://www.w3.org/1999/xlink" width="91.69158" height="20.16757" viewBox="0,0,91.69158,20.16757"><g transform="translate(-248.98129,-134.99908)"><g data-paper-data="{&quot;isPaintingLayer&quot;:true}" fill-rule="nonzero" stroke="none" stroke-linejoin="miter" stroke-miterlimit="10" stroke-dasharray="" stroke-dashoffset="0" style="mix-blend-mode: normal"><path d="M248.9813,150.61296c0,-3.73373 0,-9.02076 0,-11.09433c0,-1.95979 1.51797,-4.51954 5.39091,-4.51954c7.95145,0 61.35891,0 80.83924,0c4.97891,0 5.46143,2.78829 5.46143,4.86091c0,2.06351 0,6.11776 0,9.72888c0,2.82519 -0.64161,5.57778 -5.0297,5.57778c-17.33182,0 -81.60812,0 -82.27545,0c-3.41622,0 -4.38642,-1.7212 -4.38642,-4.55369z" fill="#5e7060" stroke-width="0" stroke-linecap="butt"/><path d="M278.72155,141.9277v6.52815c0,0.41122 -0.01628,0.7085 -0.04883,0.89184c-0.03084,0.18162 -0.13193,0.34268 -0.30327,0.48319c-0.17134,0.13879 -0.36839,0.20818 -0.59114,0.20818c-0.22274,0 -0.41978,-0.06425 -0.59113,-0.19275c-0.17134,-0.13022 -0.27329,-0.28957 -0.30585,-0.47805c-0.03255,-0.18848 -0.04883,-0.49261 -0.04883,-0.9124v-6.52816h-1.73998c-0.38209,0 -0.64424,-0.01456 -0.78646,-0.04369c-0.1405,-0.03084 -0.26472,-0.11137 -0.37267,-0.24159c-0.10623,-0.13022 -0.15935,-0.281 -0.15935,-0.45235c0,-0.12851 0.03512,-0.25616 0.10538,-0.38295c0.07196,-0.12679 0.16963,-0.21675 0.293,-0.26987c0.12508,-0.05311 0.43178,-0.07967 0.92011,-0.07967h5.35874c0.44035,0 0.72135,0.01714 0.843,0.0514c0.12337,0.03427 0.23303,0.11651 0.32898,0.24673c0.09595,0.13022 0.14393,0.275 0.14393,0.43435c0,0.12851 -0.03684,0.25701 -0.11052,0.38552c-0.07196,0.12851 -0.17049,0.21932 -0.29557,0.27244c-0.12337,0.05311 -0.42664,0.07968 -0.90983,0.07968zM285.02481,142.90435c1.08802,0 1.94388,0.33582 2.56757,1.00749c0.62368,0.66995 0.93553,1.52323 0.93553,2.55986c0,1.04005 -0.31613,1.89505 -0.94838,2.565c-0.63226,0.66824 -1.4684,1.00235 -2.50845,1.00235c-1.13086,0 -2.00385,-0.3384 -2.61897,-1.0152c-0.61512,-0.67851 -0.92268,-1.52923 -0.92268,-2.55215c0,-1.04176 0.31184,-1.89676 0.93553,-2.565c0.62369,-0.66824 1.47697,-1.00235 2.55986,-1.00235zM285.02481,148.73343c0.53116,0 0.95181,-0.20047 1.26194,-0.60141c0.31185,-0.40094 0.46777,-0.95439 0.46777,-1.66031c0,-0.71107 -0.15592,-1.26707 -0.46777,-1.66801c-0.31013,-0.40094 -0.73077,-0.60142 -1.26194,-0.60142c-0.5226,0 -0.94067,0.20133 -1.25423,0.60398c-0.31184,0.40266 -0.46777,0.95781 -0.46777,1.66545c0,0.71107 0.15506,1.26622 0.4652,1.66545c0.31184,0.39751 0.73077,0.59627 1.2568,0.59627zM289.85796,147.4278v-3.07646c0,-0.38209 0.01456,-0.6571 0.04369,-0.82501c0.03084,-0.16963 0.12166,-0.31527 0.27244,-0.43692c0.1525,-0.12337 0.33582,-0.18505 0.55,-0.18505c0.20561,0 0.38638,0.05826 0.5423,0.17477c0.15764,0.1148 0.25444,0.26643 0.29043,0.45491c0.03598,0.18848 0.05397,0.47376 0.05397,0.85586v2.40822c0,0.79331 0.12337,1.30134 0.3701,1.52409c0.24673,0.22274 0.51745,0.33412 0.81216,0.33412c0.33926,0 0.63568,-0.09509 0.88927,-0.28528c0.2553,-0.1919 0.42921,-0.42151 0.52174,-0.6888c0.09253,-0.26729 0.13879,-0.79503 0.13879,-1.58321v-1.74769c0,-0.37353 0.01799,-0.64854 0.05397,-0.82501c0.03598,-0.1782 0.13108,-0.32641 0.28529,-0.44463c0.15421,-0.11823 0.33669,-0.17734 0.54744,-0.17734c0.20047,0 0.37867,0.05825 0.53459,0.17477c0.15764,0.1148 0.25187,0.25958 0.28271,0.43435c0.03255,0.17306 0.04884,0.45235 0.04884,0.83787v4.33068c0,0.35468 -0.01714,0.61169 -0.0514,0.77104c-0.03427,0.15764 -0.11908,0.29471 -0.25444,0.41122c-0.13365,0.11651 -0.30328,0.17477 -0.50889,0.17477c-0.56543,0 -0.83786,-0.40523 -0.8173,-1.21568c-0.58599,0.81045 -1.35874,1.21568 -2.31826,1.21568c-0.63396,0 -1.1737,-0.18933 -1.61919,-0.568c-0.44549,-0.38038 -0.66823,-1.06147 -0.66823,-2.04326zM303.4013,147.10139c0.21418,0 0.39151,0.08395 0.53201,0.25187c0.14222,0.1662 0.21332,0.33669 0.21332,0.51146c0,0.47634 -0.28528,0.9578 -0.85585,1.44441c-0.56885,0.48661 -1.33047,0.72992 -2.28485,0.72992c-1.15314,0 -2.02356,-0.32641 -2.61126,-0.97922c-0.58599,-0.65453 -0.87899,-1.50439 -0.87899,-2.54958c0,-1.0589 0.30414,-1.92417 0.9124,-2.59584c0.60826,-0.67338 1.47612,-1.01006 2.60355,-1.01006c0.87385,0 1.59605,0.22874 2.16662,0.68623c0.57229,0.45577 0.85842,0.9064 0.85842,1.35189c0,0.21418 -0.07711,0.39324 -0.23131,0.53716c-0.15421,0.14222 -0.33583,0.21332 -0.54487,0.21332c-0.25702,0 -0.45834,-0.1088 -0.60398,-0.32641c-0.32212,-0.48833 -0.60741,-0.7976 -0.85585,-0.92782c-0.24845,-0.13193 -0.51574,-0.19789 -0.80188,-0.19789c-0.562,0 -0.9955,0.21589 -1.30049,0.64767c-0.30328,0.43007 -0.45492,0.96638 -0.45492,1.60891c0,0.65967 0.15935,1.19768 0.47805,1.61405c0.32041,0.41465 0.7462,0.62197 1.27736,0.62197c0.30328,0 0.58342,-0.07197 0.84044,-0.21589c0.25702,-0.14393 0.4789,-0.35981 0.66566,-0.64767c0.18676,-0.28957 0.33412,-0.49004 0.44206,-0.60141c0.10966,-0.11137 0.25444,-0.16706 0.43435,-0.16706zM311.56149,145.61071v3.19982c0,0.81902 -0.29728,1.22852 -0.89184,1.22852c-0.27072,0 -0.48148,-0.08653 -0.63226,-0.25958c-0.14907,-0.17477 -0.2236,-0.49774 -0.2236,-0.96894v-2.80145c0,-0.66481 -0.10623,-1.11972 -0.3187,-1.36474c-0.21075,-0.24673 -0.50461,-0.3701 -0.88156,-0.3701c-0.33412,0 -0.62455,0.09252 -0.87128,0.27757c-0.24673,0.18334 -0.4215,0.41037 -0.5243,0.68109c-0.1028,0.26901 -0.15421,0.74191 -0.15421,1.41871v2.03041c0,0.5483 -0.07796,0.91155 -0.23388,1.08974c-0.15592,0.17819 -0.37353,0.26729 -0.65282,0.26729c-0.26901,0 -0.48062,-0.08653 -0.63483,-0.25958c-0.15421,-0.17477 -0.23131,-0.53202 -0.23131,-1.07175v-6.96507c0,-0.42493 0.0197,-0.71964 0.05911,-0.88413c0.04112,-0.16449 0.1345,-0.29899 0.28015,-0.40351c0.14564,-0.10623 0.31699,-0.15935 0.51403,-0.15935c0.22274,0 0.40779,0.05997 0.55515,0.17991c0.14907,0.11994 0.2433,0.27586 0.28271,0.46777c0.04112,0.19019 0.06169,0.50546 0.06169,0.94581v2.07667c0.5877,-0.70765 1.30134,-1.06146 2.14092,-1.06146c0.70593,0 1.27479,0.2176 1.70657,0.65281c0.4335,0.43521 0.65025,1.11972 0.65025,2.05354z" fill="#ffffff" stroke-width="1" stroke-linecap="square"/></g></g></svg>