<svg version="1.1" xmlns="http://www.w3.org/2000/svg" xmlns:xlink="http://www.w3.org/1999/xlink" width="504.50451" height="438.7598" viewBox="0,0,504.50451,438.7598"><g transform="translate(12.25226,47.47748)"><g data-paper-data="{&quot;isPaintingLayer&quot;:true}" fill-rule="nonzero" stroke-linecap="butt" stroke-linejoin="miter" stroke-miterlimit="10" stroke-dasharray="" stroke-dashoffset="0" style="mix-blend-mode: normal"><path d="M-12.25226,183.32435c0,-114.85201 112.93718,-207.95796 252.25225,-207.95796c139.31507,0 252.25225,93.10595 252.25225,207.95796c0,114.85201 -112.93718,207.95796 -252.25225,207.95796c-139.31507,0 -252.25225,-93.10595 -252.25225,-207.95796z" fill="none" stroke="none" stroke-width="0"/><path d="M-12.25226,179.99999c0,-116.688 112.93718,-211.28231 252.25225,-211.28231c139.31507,0 252.25226,94.59431 252.25226,211.28231c0,116.688 -112.93719,211.28232 -252.25226,211.28232c-139.31507,0 -252.25225,-94.59431 -252.25225,-211.28231z" fill="none" stroke="none" stroke-width="0"/><path d="M-12.25226,183.74614c0,-114.61906 112.93718,-207.53617 252.25225,-207.53617c139.31507,0 252.25225,92.91711 252.25225,207.53618c0,114.61907 -112.93718,207.53617 -252.25225,207.53617c-139.31507,0 -252.25225,-92.91711 -252.25225,-207.53617z" fill="none" stroke="none" stroke-width="0"/><path d="M18.52852,369.93994v-417.41742h442.94295v417.41742z" fill="none" stroke="none" stroke-width="0"/><g><path d="M317.67628,143.014c0,0 28.31708,-42.97971 53.67963,-9.94229c32.11227,41.55257 -21.67963,100.94229 -21.67963,100.94229c0,0 6.41352,-20.52663 -6.97303,-56.95454c-10.06546,-27.39046 -25.02697,-34.04546 -25.02697,-34.04546z" fill="#23a6bb" stroke="#000000" stroke-width="30"/><path d="M317.67628,143.014c0,0 28.31707,-42.97971 53.67964,-9.94229c32.11227,41.55257 -21.67964,100.94229 -21.67964,100.94229c0,0 6.41352,-20.52663 -6.97303,-56.95454c-10.06546,-27.39045 -25.02697,-34.04546 -25.02697,-34.04546z" fill="#c38822" stroke="none" stroke-width="0"/></g><path d="M216.41992,312.61533c-62.96046,0 -111.0725,-31.20231 -109,-86.5c2.63601,-70.33286 48.03954,-87.5 111,-87.5c62.96046,0 112,22.65224 112,76.5c0,53.84776 -51.03954,97.5 -114,97.5z" fill="#23a6bb" stroke="#000000" stroke-width="40"/><path d="M216.41992,312.61533c-40.84573,0 -95.93569,-24.27499 -109.67401,-67.78718c-7.43821,-23.55841 7.14134,-61.2383 20.11842,-84.43108c18.61491,-24.45683 53.86336,-21.78173 91.55559,-21.78173c62.96046,0 112,22.65224 112,76.5c0,22.79363 -9.14532,43.76043 -24.46892,60.36279c-20.87693,22.61911 -53.22164,37.13721 -89.53108,37.13721z" fill="#23a6bb" stroke="#000000" stroke-width="40"/><path d="M123.4214,134.3653c-0.09074,-18.07994 7.91212,-56.04784 72.37306,-74.61056c85.16051,-24.52354 110.20825,5.76111 117.5683,25.01469c2.93361,7.67419 4.81597,14.22237 -3.75479,26.72801c-5.66967,8.27263 -14.6465,16.81104 -20.80643,18.28686c-12.1642,2.91434 -30.15945,-9.86136 -73.48512,-8.6935c-39.7754,1.07215 -66.8125,17.08803 -83.63692,21.30916c-8.06811,1.77335 -8.22723,-1.88372 -8.2581,-8.03466z" fill="#23a6bb" stroke="#000000" stroke-width="40"/><path d="M123.4214,134.3653c-0.09074,-18.07994 7.91212,-56.04784 72.37306,-74.61056c85.16051,-24.52354 110.20825,5.76111 117.5683,25.01469c2.93361,7.67419 4.81597,14.22237 -3.75479,26.72801c-5.66967,8.27263 -14.6465,16.81104 -20.80643,18.28686c-12.1642,2.91434 -30.15945,-9.86136 -73.48512,-8.6935c-39.7754,1.07215 -66.8125,17.08803 -83.63692,21.30916c-8.06811,1.77335 -8.22723,-1.88372 -8.2581,-8.03466z" fill="#c38822" stroke="none" stroke-width="0"/><path d="M134.40278,98.67788c9.82818,-14.54123 28.064,-29.32578 61.39168,-38.9231c64.92393,-18.69605 94.90972,-5.53701 108.75582,10.30385c0.58531,0.66964 -10.22816,7.70252 -16.1558,15.30644c-2.81263,3.60801 -4.80149,7.01866 -6.13893,9.68061c-1.63849,3.26113 -5.68975,4.89773 -10.9873,4.19705c-14.15477,-1.87217 -41.92486,-5.17105 -55.01379,-4.15477c-47.95551,3.72348 -97.68114,36.98533 -81.85168,3.58993z" fill="#f6f657" stroke="none" stroke-width="0"/><path d="M216.41992,312.61533c-62.96046,0 -113.24792,-26.90858 -108,-80.5c4,-40.84776 47.03954,-93.5 110,-93.5c62.96046,0 112,22.65224 112,76.5c0,21.28735 -6.64794,52.38109 -23.0128,65.51491c-23.7046,19.02442 -52.91656,31.98509 -90.9872,31.98509z" fill="#c38822" stroke="none" stroke-width="0"/><path d="M98.41992,203.61536l12.71044,9.56065c0,0 0.37744,4.68381 2.29213,8.41045c2.91125,5.66625 8.06454,10.43151 10.5066,3.49745c11.13451,-31.61567 46.70593,-63.01422 86.49083,-63.46855c52.39437,-1.66427 74.13693,13.64633 84.83063,31.1237c11.58637,18.93632 12.80394,54.76897 -4.52961,77.14926c-6.11227,7.89189 6.49941,22.53262 -3.7184,30.09784c-24.63118,18.2368 -77.58262,25.6292 -77.58262,25.6292c0,0 -39.7983,-2.14151 -62.22736,-13.25714c-19.31706,-9.57335 -20.84374,-27.86925 -30.33511,-33.03122c-16.69815,-9.08145 -18.43752,-75.71164 -18.43752,-75.71164z" fill="#000000" stroke="none" stroke-width="0"/><path d="M263.41992,275.61535c-5.36865,-0.8191 -20.48992,-6.9167 -21.34418,-17.30075c-1.58543,-15.11628 19.9298,-18.54148 9.75928,-43.42083c-5.24045,-10.78161 -9.73619,-28.40231 -50.82362,-22.73219c-20.97286,2.89428 -38.94922,28.31776 -44.08196,28.98134c-5.80149,0.75004 -11.00628,-3.21278 -12.67902,-9.42414c-1.25582,-14.20004 44.80962,-58.57882 113.13429,-34.02685c16.9064,5.95734 29.26649,20.68863 33.52959,32.85293c10.45972,29.84569 -12.76393,67.31791 -27.49436,65.07049z" fill="#121212" stroke="none" stroke-width="0"/><path d="M237.00376,219.63917c6.20884,9.75218 2.39319,24.75354 -24.17858,21.42996c-2.62281,-0.32806 -4.13398,7.82753 1.32052,8.84098c22.51827,4.18392 20.09286,13.66243 21.36861,17.40334c2.64673,7.76106 -2.33637,33.83096 -25.68957,35.39627c-22.57816,1.51335 -50.12349,-5.61462 -37.42411,-37.31811c3.07346,-7.67278 7.23051,-13.14585 2.93143,-17.24762c-2.07867,-2.26332 -12.20301,5.92645 -16.80276,16.63409c-3.99323,9.29574 -4.54098,19.13908 -16.37439,17.57004c-0.47647,-0.10377 -20.31519,1.19461 -13.40321,-33.16604c1.49448,-10.96961 6.07146,-15.39972 14.04568,-16.10789c13.53378,-2.26111 29.65245,5.2808 40.04039,-0.71722c7.70965,-4.72339 10.11455,-12.01966 15.01193,-15.99046c21.46462,-16.6541 35.28762,-2.80034 39.15407,3.27266z" fill="#ffffff" stroke="none" stroke-width="0"/><path d="M305.03138,245.86241l2,35.33333c0,0 -24.80554,23.32605 -53.26067,23.1872c-1.79038,-0.00874 -24.75996,-3.44972 -13.22402,-16.25096c6.63052,-7.35778 18.10397,-5.29525 30.5319,-7.80201c27.60526,-5.5681 33.95279,-34.46756 33.95279,-34.46756z" fill="#c38822" stroke="none" stroke-width="0"/></g></g></svg>