<svg version="1.1" xmlns="http://www.w3.org/2000/svg" xmlns:xlink="http://www.w3.org/1999/xlink" width="144.14414" height="60.93899" viewBox="0,0,144.14414,60.93899"><g transform="translate(-167.92793,-149.5305)"><g data-paper-data="{&quot;isPaintingLayer&quot;:true}" fill-rule="nonzero" stroke-linejoin="miter" stroke-miterlimit="10" stroke-dasharray="" stroke-dashoffset="0" style="mix-blend-mode: normal"><path d="M220.8391,183.51102h-5.37812l-0.63144,1.66569c-0.26128,0.68225 -0.47902,1.13587 -0.65321,1.36086c-0.17419,0.225 -0.45725,0.33749 -0.84918,0.33749c-0.36289,0 -0.67136,-0.12338 -0.92539,-0.37016c-0.24677,-0.25402 -0.37015,-0.5262 -0.37015,-0.81651c0,-0.31209 0.12702,-0.78023 0.38104,-1.4044l3.41848,-8.63329c0.29757,-0.7766 0.51531,-1.29917 0.65321,-1.56771c0.14516,-0.2758 0.3629,-0.50442 0.65321,-0.68587c0.29757,-0.18145 0.62781,-0.27217 0.9907,-0.27217c0.42822,0 0.80563,0.1125 1.13224,0.33749c0.32661,0.225 0.58063,0.57337 0.76208,1.04514l3.94105,9.71109c0.26128,0.66047 0.39192,1.13586 0.39192,1.42618c0,0.29757 -0.12702,0.577 -0.38104,0.83829c-0.24677,0.26129 -0.55885,0.39193 -0.93627,0.39193c-0.39918,0 -0.68588,-0.11249 -0.86007,-0.33749c-0.17419,-0.23225 -0.40281,-0.69676 -0.68587,-1.39352l-0.65322,-1.63303zM216.14686,181.43163h3.9846l-2.01408,-5.46521zM232.92376,185.45978v-0.2504c-0.85644,1.11046 -1.93786,1.66569 -3.24429,1.66569c-1.26287,0 -2.2681,-0.47902 -3.01567,-1.43706c-0.7403,-0.96531 -1.11046,-2.21004 -1.11046,-3.7342c0,-1.43706 0.3629,-2.61285 1.08869,-3.52734c0.72579,-0.9145 1.73464,-1.37175 3.02655,-1.37175c1.24836,0 2.33342,0.50443 3.25517,1.51328v-3.21163c0,-0.88547 0.1125,-1.43707 0.3375,-1.65481c0.22499,-0.21774 0.5262,-0.3266 0.90361,-0.3266c0.26854,0 0.51168,0.07621 0.72942,0.22862c0.225,0.15242 0.3629,0.35564 0.4137,0.60967c0.0508,0.24677 0.07621,0.65322 0.07621,1.21933v9.75464c0,0.5516 -0.02903,0.94716 -0.08709,1.18667c-0.0508,0.23226 -0.18871,0.4137 -0.41371,0.54435c-0.225,0.1379 -0.47176,0.20685 -0.7403,0.20685c-0.81288,0 -1.21933,-0.47176 -1.21933,-1.41529zM228.05732,181.78001c0,1.11046 0.23226,1.92335 0.69676,2.43866c0.47177,0.50805 1.00522,0.76208 1.60037,0.76208c0.70402,0 1.28465,-0.26491 1.7419,-0.79474c0.45725,-0.53708 0.68587,-1.28102 0.68587,-2.23181c0,-1.00159 -0.22499,-1.79633 -0.67498,-2.38423c-0.44273,-0.59515 -1.03425,-0.89272 -1.77456,-0.89272c-0.66773,0 -1.2157,0.2758 -1.64392,0.8274c-0.42096,0.54435 -0.63144,1.3028 -0.63144,2.27535zM251.79343,180.48447v4.26765c0,0.58789 -0.0254,1.0016 -0.07621,1.24111c-0.04354,0.23951 -0.17419,0.44636 -0.39193,0.62055c-0.21048,0.17419 -0.46451,0.26128 -0.76208,0.26128c-0.29031,0 -0.54434,-0.0871 -0.76208,-0.26128c-0.21048,-0.17419 -0.34475,-0.3883 -0.40282,-0.64233c-0.0508,-0.25402 -0.07621,-0.66047 -0.07621,-1.21933v-3.61444c0,-1.05965 -0.12701,-1.72375 -0.38104,-1.9923c-0.24677,-0.26855 -0.58789,-0.40282 -1.02337,-0.40282c-0.45725,0 -0.84192,0.12702 -1.15401,0.38104c-0.31209,0.24677 -0.5262,0.57337 -0.64232,0.97982c-0.10887,0.39919 -0.16331,1.03062 -0.16331,1.89432v2.75438c0,0.58789 -0.0254,1.00522 -0.0762,1.25199c-0.04354,0.23951 -0.17782,0.44637 -0.40282,0.62055c-0.21774,0.16693 -0.47177,0.25039 -0.76208,0.25039c-0.38467,0 -0.68587,-0.12702 -0.90361,-0.38104c-0.21774,-0.26129 -0.32661,-0.84192 -0.32661,-1.7419v-3.3967c0,-0.97256 -0.07258,-1.65117 -0.21774,-2.03584c-0.14516,-0.38467 -0.52257,-0.57701 -1.13223,-0.57701c-0.6387,0 -1.13949,0.20322 -1.50239,0.60967c-0.3629,0.39918 -0.54435,1.26651 -0.54435,2.60197v2.79792c0,0.57337 -0.02177,0.97619 -0.06532,1.20845c-0.03629,0.225 -0.16331,0.43547 -0.38105,0.63144c-0.21774,0.1887 -0.47177,0.28306 -0.76208,0.28306c-0.2758,0 -0.52982,-0.08346 -0.76208,-0.25039c-0.225,-0.17419 -0.36652,-0.38105 -0.42459,-0.62055c-0.0508,-0.23951 -0.07621,-0.65684 -0.07621,-1.25199v-5.99866c0,-0.57337 0.0254,-0.96168 0.07621,-1.1649c0.0508,-0.20322 0.18145,-0.38467 0.39193,-0.54435c0.21774,-0.15967 0.45362,-0.23951 0.70764,-0.23951c0.79111,0 1.18667,0.50443 1.18667,1.51328c0.8274,-1.00885 1.82537,-1.51328 2.99389,-1.51328c1.24836,0 2.1556,0.50443 2.72172,1.51328c0.84192,-1.00885 1.82537,-1.51328 2.95034,-1.51328c0.86369,0 1.60399,0.23951 2.22092,0.71853c0.61693,0.47902 0.92539,1.4661 0.92539,2.96123zM255.445,173.23382c0.3266,0 0.60604,0.12338 0.83829,0.37015c0.23951,0.23951 0.35926,0.51894 0.35926,0.83829c0,0.33387 -0.11975,0.62055 -0.35926,0.86006c-0.23226,0.23226 -0.51169,0.34838 -0.83829,0.34838c-0.3266,0 -0.60967,-0.11613 -0.84918,-0.34838c-0.23951,-0.23951 -0.35926,-0.5262 -0.35926,-0.86006c0,-0.32661 0.11975,-0.60967 0.35926,-0.84918c0.23951,-0.23951 0.52258,-0.35927 0.84918,-0.35927zM256.67521,178.82967v5.99867c0,0.58789 -0.02903,0.9907 -0.0871,1.20844c-0.0508,0.21774 -0.1887,0.41371 -0.4137,0.5879c-0.225,0.16693 -0.46814,0.25039 -0.72942,0.25039c-0.26128,0 -0.50806,-0.08346 -0.74031,-0.25039c-0.23226,-0.16693 -0.37741,-0.3629 -0.43547,-0.5879c-0.0508,-0.225 -0.0762,-0.6278 -0.0762,-1.20844v-5.97689c0,-0.5516 0.02177,-0.9399 0.06532,-1.1649c0.04354,-0.23226 0.17419,-0.43547 0.39192,-0.60967c0.225,-0.18145 0.48266,-0.27217 0.77297,-0.27217c0.29757,0 0.5516,0.07984 0.76208,0.23951c0.21048,0.15968 0.34475,0.3629 0.40281,0.60967c0.05807,0.24677 0.0871,0.63869 0.0871,1.17578zM267.96837,180.75665v4.07169c0,0.52257 -0.02177,0.90361 -0.06532,1.14312c-0.04354,0.23951 -0.17419,0.44999 -0.39193,0.63144c-0.21774,0.18145 -0.47539,0.27217 -0.77296,0.27217c-0.26128,0 -0.50805,-0.07984 -0.74031,-0.23951c-0.23226,-0.15967 -0.37741,-0.36652 -0.43547,-0.62055c-0.05081,-0.26129 -0.07621,-0.65684 -0.07621,-1.18667v-3.57089c0,-0.98708 -0.14879,-1.65118 -0.44636,-1.9923c-0.29032,-0.34838 -0.69676,-0.52257 -1.21933,-0.52257c-0.47177,0 -0.88546,0.1379 -1.2411,0.4137c-0.35564,0.26855 -0.60603,0.60603 -0.75119,1.01248c-0.14516,0.40644 -0.21774,1.10683 -0.21774,2.10117v2.55841c0,0.51531 -0.02177,0.89273 -0.06532,1.13224c-0.03629,0.23226 -0.16694,0.44273 -0.39193,0.63144c-0.22499,0.1887 -0.48265,0.28306 -0.77296,0.28306c-0.26854,0 -0.51894,-0.08346 -0.75119,-0.25039c-0.23226,-0.16693 -0.37378,-0.37378 -0.42459,-0.62055c-0.04354,-0.24677 -0.06532,-0.63869 -0.06532,-1.17578v-6.10754c0,-0.5516 0.0254,-0.93627 0.07621,-1.15401c0.05081,-0.21774 0.18144,-0.39919 0.39193,-0.54435c0.21048,-0.14516 0.44637,-0.21774 0.70765,-0.21774c0.23951,0 0.48991,0.09798 0.75119,0.29395c0.26129,0.1887 0.39193,0.64596 0.39193,1.37175c0.8274,-1.11046 1.89432,-1.66569 3.20074,-1.66569c0.49354,0 0.97982,0.09435 1.45884,0.28306c0.48628,0.1887 0.88184,0.49354 1.18667,0.9145c0.30483,0.42096 0.48991,0.85643 0.55523,1.30642c0.07258,0.44999 0.10887,0.93264 0.10887,1.44795z" fill="#ffffff" stroke="#000000" stroke-width="3.5" stroke-linecap="square"/><path d="M220.8391,183.51102h-5.37812l-0.63144,1.66569c-0.26128,0.68224 -0.47902,1.13586 -0.65321,1.36086c-0.17419,0.225 -0.45725,0.33749 -0.84918,0.33749c-0.3629,0 -0.67136,-0.12338 -0.92538,-0.37015c-0.24677,-0.25403 -0.37015,-0.5262 -0.37015,-0.81652c0,-0.31209 0.12701,-0.78023 0.38104,-1.40441l3.41848,-8.63329c0.29757,-0.7766 0.51531,-1.29917 0.65321,-1.56771c0.14516,-0.2758 0.3629,-0.50443 0.65321,-0.68587c0.29757,-0.18145 0.62781,-0.27217 0.99071,-0.27217c0.42822,0 0.80563,0.1125 1.13223,0.33749c0.32661,0.225 0.58063,0.57338 0.76208,1.04514l3.94105,9.71109c0.26128,0.66047 0.39193,1.13586 0.39193,1.42618c0,0.29757 -0.12701,0.577 -0.38104,0.83829c-0.24677,0.26128 -0.55886,0.39193 -0.93627,0.39193c-0.39919,0 -0.68587,-0.1125 -0.86006,-0.33749c-0.17419,-0.23225 -0.40281,-0.69676 -0.68587,-1.39352l-0.65321,-1.63303zM216.14685,181.43163h3.9846l-2.01407,-5.46521zM232.92375,185.45977v-0.2504c-0.85643,1.11046 -1.93786,1.66569 -3.24429,1.66569c-1.26288,0 -2.2681,-0.47902 -3.01566,-1.43707c-0.74031,-0.9653 -1.11046,-2.21004 -1.11046,-3.7342c0,-1.43707 0.3629,-2.61285 1.08869,-3.52735c0.72579,-0.9145 1.73464,-1.37175 3.02655,-1.37175c1.24836,0 2.33342,0.50443 3.25518,1.51328v-3.21163c0,-0.88547 0.1125,-1.43707 0.33749,-1.6548c0.225,-0.21774 0.5262,-0.32661 0.90361,-0.32661c0.26854,0 0.51168,0.07621 0.72942,0.22862c0.225,0.15242 0.3629,0.35564 0.4137,0.60966c0.05081,0.24677 0.07621,0.65321 0.07621,1.21933v9.75464c0,0.5516 -0.02903,0.94716 -0.08709,1.18667c-0.05081,0.23225 -0.18871,0.4137 -0.4137,0.54434c-0.225,0.1379 -0.47176,0.20685 -0.74031,0.20685c-0.81289,0 -1.21933,-0.47176 -1.21933,-1.41529zM228.05732,181.78001c0,1.11046 0.23225,1.92335 0.69676,2.43866c0.47176,0.50805 1.00522,0.76208 1.60037,0.76208c0.70402,0 1.28465,-0.26491 1.7419,-0.79474c0.45725,-0.53709 0.68587,-1.28102 0.68587,-2.23181c0,-1.00159 -0.225,-1.79633 -0.67499,-2.38423c-0.44273,-0.59515 -1.03425,-0.89272 -1.77456,-0.89272c-0.66773,0 -1.2157,0.2758 -1.64392,0.8274c-0.42096,0.54434 -0.63144,1.3028 -0.63144,2.27536zM251.79342,180.48447v4.26765c0,0.58789 -0.0254,1.00159 -0.07621,1.2411c-0.04355,0.23951 -0.17419,0.44636 -0.39193,0.62055c-0.21048,0.17419 -0.46451,0.26128 -0.76208,0.26128c-0.29032,0 -0.54434,-0.08709 -0.76208,-0.26128c-0.21048,-0.17419 -0.34475,-0.3883 -0.40281,-0.64233c-0.05081,-0.25403 -0.07621,-0.66047 -0.07621,-1.21933v-3.61444c0,-1.05966 -0.12701,-1.72376 -0.38104,-1.9923c-0.24677,-0.26854 -0.58789,-0.40281 -1.02337,-0.40281c-0.45725,0 -0.84192,0.12701 -1.15401,0.38104c-0.31209,0.24677 -0.5262,0.57338 -0.64233,0.97982c-0.10887,0.39919 -0.1633,1.03062 -0.1633,1.89432v2.75438c0,0.58789 -0.0254,1.00522 -0.07621,1.25199c-0.04355,0.23951 -0.17782,0.44636 -0.40281,0.62055c-0.21774,0.16693 -0.47176,0.2504 -0.76208,0.2504c-0.38467,0 -0.68587,-0.12701 -0.90361,-0.38104c-0.21774,-0.26128 -0.32661,-0.84192 -0.32661,-1.7419v-3.3967c0,-0.97256 -0.07258,-1.65118 -0.21774,-2.03585c-0.14516,-0.38467 -0.52257,-0.577 -1.13223,-0.577c-0.6387,0 -1.13949,0.20322 -1.50239,0.60966c-0.3629,0.39919 -0.54434,1.26651 -0.54434,2.60196v2.79793c0,0.57338 -0.02177,0.97619 -0.06532,1.20844c-0.03629,0.225 -0.1633,0.43547 -0.38104,0.63144c-0.21774,0.18871 -0.47176,0.28306 -0.76208,0.28306c-0.2758,0 -0.52983,-0.08347 -0.76208,-0.2504c-0.225,-0.17419 -0.36652,-0.38104 -0.42459,-0.62055c-0.05081,-0.23951 -0.07621,-0.65684 -0.07621,-1.25199v-5.99867c0,-0.57338 0.0254,-0.96167 0.07621,-1.1649c0.05081,-0.20322 0.18145,-0.38467 0.39193,-0.54434c0.21774,-0.15967 0.45362,-0.23951 0.70765,-0.23951c0.79111,0 1.18667,0.50443 1.18667,1.51328c0.8274,-1.00885 1.82537,-1.51328 2.99389,-1.51328c1.24836,0 2.1556,0.50443 2.72172,1.51328c0.84192,-1.00885 1.82536,-1.51328 2.95034,-1.51328c0.86369,0 1.604,0.23951 2.22092,0.71853c0.61692,0.47902 0.92538,1.4661 0.92538,2.96123zM255.44499,173.23381c0.32661,0 0.60604,0.12338 0.83829,0.37015c0.23951,0.23951 0.35927,0.51894 0.35927,0.83829c0,0.33386 -0.11976,0.62055 -0.35927,0.86006c-0.23225,0.23225 -0.51168,0.34838 -0.83829,0.34838c-0.32661,0 -0.60966,-0.11613 -0.84918,-0.34838c-0.23951,-0.23951 -0.35927,-0.5262 -0.35927,-0.86006c0,-0.32661 0.11976,-0.60966 0.35927,-0.84918c0.23951,-0.23951 0.52257,-0.35927 0.84918,-0.35927zM256.67521,178.82967v5.99867c0,0.58789 -0.02903,0.99071 -0.08709,1.20844c-0.05081,0.21774 -0.18871,0.4137 -0.4137,0.58789c-0.225,0.16693 -0.46814,0.2504 -0.72942,0.2504c-0.26128,0 -0.50805,-0.08347 -0.74031,-0.2504c-0.23225,-0.16693 -0.37741,-0.3629 -0.43547,-0.58789c-0.05081,-0.225 -0.07621,-0.62781 -0.07621,-1.20844v-5.97689c0,-0.5516 0.02177,-0.9399 0.06532,-1.1649c0.04355,-0.23225 0.17419,-0.43547 0.39193,-0.60966c0.225,-0.18145 0.48265,-0.27217 0.77297,-0.27217c0.29757,0 0.5516,0.07984 0.76208,0.23951c0.21048,0.15967 0.34475,0.3629 0.40281,0.60966c0.05806,0.24677 0.08709,0.6387 0.08709,1.17578zM267.96837,180.75664v4.07169c0,0.52257 -0.02177,0.90361 -0.06532,1.14312c-0.04355,0.23951 -0.17419,0.44999 -0.39193,0.63144c-0.21774,0.18145 -0.47539,0.27217 -0.77297,0.27217c-0.26128,0 -0.50805,-0.07984 -0.74031,-0.23951c-0.23225,-0.15967 -0.37741,-0.36652 -0.43547,-0.62055c-0.05081,-0.26128 -0.07621,-0.65684 -0.07621,-1.18667v-3.57089c0,-0.98708 -0.14879,-1.65118 -0.44636,-1.9923c-0.29032,-0.34838 -0.69676,-0.52257 -1.21933,-0.52257c-0.47176,0 -0.88547,0.1379 -1.2411,0.4137c-0.35564,0.26854 -0.60604,0.60604 -0.75119,1.01248c-0.14516,0.40644 -0.21774,1.10683 -0.21774,2.10117v2.55842c0,0.51531 -0.02177,0.89272 -0.06532,1.13223c-0.03629,0.23225 -0.16693,0.44273 -0.39193,0.63144c-0.225,0.18871 -0.48265,0.28306 -0.77297,0.28306c-0.26854,0 -0.51894,-0.08347 -0.75119,-0.2504c-0.23225,-0.16693 -0.37378,-0.37378 -0.42459,-0.62055c-0.04355,-0.24677 -0.06532,-0.6387 -0.06532,-1.17578v-6.10754c0,-0.5516 0.0254,-0.93627 0.07621,-1.15401c0.05081,-0.21774 0.18145,-0.39919 0.39193,-0.54434c0.21048,-0.14516 0.44636,-0.21774 0.70765,-0.21774c0.23951,0 0.48991,0.09798 0.75119,0.29395c0.26128,0.18871 0.39193,0.64595 0.39193,1.37175c0.8274,-1.11046 1.89432,-1.66569 3.20074,-1.66569c0.49354,0 0.97982,0.09435 1.45884,0.28306c0.48628,0.18871 0.88184,0.49354 1.18667,0.9145c0.30483,0.42096 0.48991,0.85643 0.55523,1.30642c0.07258,0.44999 0.10887,0.93264 0.10887,1.44795z" fill="#ffffff" stroke="none" stroke-width="1" stroke-linecap="square"/><path d="M167.92793,210.4695v-60.93899h144.14414v60.93899z" fill="none" stroke="none" stroke-width="none" stroke-linecap="butt"/></g></g></svg>