<svg version="1.1" xmlns="http://www.w3.org/2000/svg" xmlns:xlink="http://www.w3.org/1999/xlink" width="195" height="158" viewBox="0,0,195,158"><defs><linearGradient x1="190.70524" y1="116.11147" x2="190.70524" y2="144.8146" gradientUnits="userSpaceOnUse" id="color-1"><stop offset="0" stop-color="#000000"/><stop offset="1" stop-color="#000000" stop-opacity="0"/></linearGradient></defs><g transform="translate(-124.55469,-92.42188)"><g data-paper-data="{&quot;isPaintingLayer&quot;:true}" fill-rule="nonzero" stroke-linejoin="miter" stroke-miterlimit="10" stroke-dasharray="" stroke-dashoffset="0" style="mix-blend-mode: normal"><path d="M154.41096,217.09105v-73.8c0,0 9.75244,0 14.35542,0c0.45515,0 0.85995,0 1.2,0c3.48231,0 5.24459,2.5134 5.24459,6.44617c0,12.72898 0,40.32717 0,45.7c0,1.78357 1.63803,3.34823 3.75658,3.34099c9.50087,-0.03248 81.43327,-0.27016 106.59981,-0.35619c5.64704,-0.01931 6.65714,3.6664 6.65507,6.1149c-0.00308,3.63617 -0.01146,13.55413 -0.01146,13.55413z" fill="#769495" stroke="#000000" stroke-width="3" stroke-linecap="butt"/><path d="M191.13492,137.9396c0,0 0,13.7798 0,16.67187c0,1.01722 -0.55774,2.0625 -2.57812,2.0625c-2.41685,0 -5.5,0 -5.5,0" fill="none" stroke="#f3e005" stroke-width="10" stroke-linecap="round"/><path d="M182.88492,131.7521c0,-5.79187 0,-15.27474 0,-18.04688c0,-1.50627 0.59015,-3.78125 3.09375,-3.78125c2.85263,0 14.08497,0 20.45313,0c2.65811,0 3.95312,2.49219 3.95312,3.78125c0,2.8339 0,13.3285 0,18.73438c0,1.97108 -2.29413,3.26562 -4.29687,3.26562c-2.14543,0 -13.20728,0 -19.25,0c-2.35904,0 -3.95312,-1.22266 -3.95312,-3.95312z" fill="none" stroke="#f3e005" stroke-width="1.5" stroke-linecap="butt"/><path d="M189.58806,125.22085c0,-3.79696 3.07804,-6.875 6.875,-6.875c3.79696,0 6.875,3.07804 6.875,6.875c0,3.79696 -3.07804,6.875 -6.875,6.875c-3.79696,0 -6.875,-3.07804 -6.875,-6.875z" fill="#cbbec1" stroke="#f3e005" stroke-width="10" stroke-linecap="butt"/><path d="M195.174,125.04897c0,-0.71193 0.57713,-1.28906 1.28906,-1.28906c0.71193,0 1.28906,0.57713 1.28906,1.28906c0,0.71193 -0.57713,1.28906 -1.28906,1.28906c-0.71193,0 -1.28906,-0.57713 -1.28906,-1.28906z" fill="#4a66a2" stroke="#f3e005" stroke-width="10" stroke-linecap="butt"/><path d="M191.13492,137.93959c0,0 0,13.7798 0,16.67188c0,1.01721 -0.55773,2.0625 -2.57812,2.0625c-2.41685,0 -7.90625,0 -7.90625,0" fill="none" stroke="#000000" stroke-width="11" stroke-linecap="round"/><path d="M191.13492,137.9396c0,0 0,13.7798 0,16.67187c0,1.01722 -0.55774,2.0625 -2.57812,2.0625c-2.41685,0 -11.17188,0 -11.17188,0" fill="none" stroke="#5a6a6a" stroke-width="4.5" stroke-linecap="round"/><path d="M186.66616,144.8146v-28.70313h8.07813v28.70313z" fill="url(#color-1)" stroke="none" stroke-width="0" stroke-linecap="butt"/><path d="M182.88491,131.7521c0,-5.79187 0,-15.27474 0,-18.04688c0,-1.50627 0.59015,-3.78125 3.09375,-3.78125c2.85263,0 14.08497,0 20.45313,0c2.65811,0 3.95313,2.49219 3.95313,3.78125c0,2.8339 0,13.3285 0,18.73437c0,1.97107 -2.29413,3.26562 -4.29687,3.26562c-2.14543,0 -13.20728,0 -19.25,0c-2.35904,0 -3.95313,-1.22266 -3.95313,-3.95313z" fill="#7d9d9d" stroke="none" stroke-width="0" stroke-linecap="butt"/><path d="M182.88491,115.59928c0,-1.50588 0,-3.97143 0,-4.69219c0,-0.39163 0.59015,-0.98313 3.09375,-0.98313c2.85263,0 14.08497,0 20.45313,0c2.65811,0 3.95313,0.64797 3.95313,0.98313c0,0.73681 0,3.46541 0,4.87093c0,0.51248 -2.29413,0.84906 -4.29687,0.84906c-2.14543,0 -13.20728,0 -19.25,0c-2.35904,0 -3.95313,-0.31789 -3.95313,-1.02782z" fill="#495960" stroke="none" stroke-width="0" stroke-linecap="butt"/><path d="M182.88492,131.7521c0,-5.79187 0,-15.27474 0,-18.04688c0,-1.50627 0.59015,-3.78125 3.09375,-3.78125c2.85263,0 14.08497,0 20.45313,0c2.65811,0 3.95312,2.49219 3.95312,3.78125c0,2.8339 0,13.3285 0,18.73438c0,1.97108 -2.29413,3.26562 -4.29687,3.26562c-2.14543,0 -13.20728,0 -19.25,0c-2.35904,0 -3.95312,-1.22266 -3.95312,-3.95312z" fill="none" stroke="#000000" stroke-width="3.5" stroke-linecap="butt"/><path d="M189.58806,125.22085c0,-3.79696 3.07804,-6.875 6.875,-6.875c3.79696,0 6.875,3.07804 6.875,6.875c0,3.79696 -3.07804,6.875 -6.875,6.875c-3.79696,0 -6.875,-3.07804 -6.875,-6.875z" fill="#cbbec1" stroke="#000000" stroke-width="1.5" stroke-linecap="butt"/><path d="M195.174,125.04897c0,-0.71193 0.57713,-1.28906 1.28906,-1.28906c0.71193,0 1.28906,0.57713 1.28906,1.28906c0,0.71193 -0.57713,1.28906 -1.28906,1.28906c-0.71193,0 -1.28906,-0.57713 -1.28906,-1.28906z" fill="#4a66a2" stroke="#4a66a2" stroke-width="1.5" stroke-linecap="butt"/><path d="M154.41096,217.37447v-52.88342c0,0 -1.74646,-21.6 0.63873,-21.6c0.23585,0 10.13947,-0.99895 10.13947,1.81918c0,9.1213 0,53.29755 0,57.14759c0,1.27806 0.8488,2.39927 1.94659,2.39408c4.92318,-0.02327 124.03814,-0.05523 124.03814,-0.05523l0.6426,12.89438z" fill="#47565f" stroke="none" stroke-width="0" stroke-linecap="butt"/><path d="M154.41096,217.09105v-73.8c0,0 9.75244,0 14.35542,0c0.45515,0 0.85995,0 1.2,0c3.48231,0 5.24459,2.5134 5.24459,6.44617c0,12.72898 0,40.32717 0,45.7c0,1.78357 1.63803,3.34823 3.75658,3.34099c9.50087,-0.03248 81.43327,-0.27016 106.59981,-0.35619c5.64704,-0.01931 6.65714,3.6664 6.65507,6.1149c-0.00308,3.63617 -0.01146,13.55413 -0.01146,13.55413z" fill="none" stroke="#000000" stroke-width="3" stroke-linecap="butt"/><path d="M124.55469,250.42188v-158h195v158z" fill="none" stroke="none" stroke-width="NaN" stroke-linecap="butt"/></g></g></svg>