<svg version="1.1" xmlns="http://www.w3.org/2000/svg" xmlns:xlink="http://www.w3.org/1999/xlink" width="77.88225" height="24.07996" viewBox="0,0,77.88225,24.07996"><g transform="translate(-201.03543,-169.66668)"><g data-paper-data="{&quot;isPaintingLayer&quot;:true}" fill-rule="nonzero" stroke-linecap="butt" stroke-linejoin="miter" stroke-miterlimit="10" stroke-dasharray="" stroke-dashoffset="0" style="mix-blend-mode: normal"><g fill="#6f6f6f" stroke="#6f6f6f"><path d="M204.83543,189.3504c0,-3.98475 0,-10.27335 0,-12.04121c0,-0.91725 0.93727,-1.85249 2.16124,-1.85249c5.8397,0 51.004,0 64.83729,0c2.53149,0 3.19983,2.09711 3.28717,3.72737c0.1146,2.1393 -0.02297,7.75366 -0.12,11.04949c-0.04402,1.49511 -1.62864,2.51309 -3.47593,2.51309c-7.05021,0 -52.35161,0 -64.52855,0c-1.96147,0 -2.16124,-1.41268 -2.16124,-3.39624z" stroke-width="2"/><path d="M204.83543,189.3504c0,-3.98475 0,-10.27336 0,-12.04121c0,-0.91725 0.93727,-1.85249 2.16124,-1.85249c5.83971,0 51.004,0 64.83729,0c2.53149,0 3.19983,2.09711 3.28717,3.72738c0.1146,2.1393 -0.02297,7.75366 -0.12,11.04948c-0.04402,1.49511 -1.62864,2.51309 -3.47593,2.51309c-7.05021,0 -52.35161,0 -64.52855,0c-1.96147,0 -2.16124,-1.41268 -2.16124,-3.39624z" stroke-width="2"/><path d="M210.23854,186.40876c0,-1.82124 0,-3.9236 0,-4.73161c0,-0.41924 0.78914,-1.46418 1.81968,-1.46418c1.84532,0 8.13982,-0.30875 16.31345,-0.30875c5.39578,0 10.19528,0.56576 16.07128,0.41592c8.61115,-0.21959 18.6434,-0.10718 23.03353,-0.10718c2.13141,0 1.86613,0.95849 1.93966,1.70361c0.0965,0.97777 -0.01934,3.54384 -0.10104,5.0502c-0.03706,0.68335 -0.54324,1.14862 -2.09858,1.14862c-2.32599,0 -9.72409,0.04644 -18.47905,-0.04179c-6.05251,-0.061 -12.7535,-0.26695 -18.87541,-0.26695c-7.62183,0 -14.34608,0.30875 -17.80385,0.30875c-1.65147,0 -1.81968,-0.80005 -1.81968,-1.70664z" stroke-width="3"/></g><path d="M202.03544,185.66669c0,-4.30204 0,-11.09137 0,-13c0,-0.99029 1.0119,-2 2.33333,-2c6.30469,0 55.06522,0 70,0c2.73306,0 3.45462,2.26409 3.54891,4.02416c0.12373,2.30964 -0.0248,8.37105 -0.12955,11.92931c-0.04752,1.61416 -1.75832,2.7132 -3.7527,2.7132c-7.61159,0 -56.52014,0 -69.66667,0c-2.11765,0 -2.33333,-1.52517 -2.33333,-3.66667z" fill="#3d3d3d" stroke="#000000" stroke-width="2"/><path d="M202.03544,185.66669c0,-4.30204 0,-11.09138 0,-13c0,-0.99029 1.0119,-2 2.33333,-2c6.3047,0 55.06522,0 70,0c2.73306,0 3.45462,2.26409 3.54891,4.02417c0.12373,2.30964 -0.0248,8.37105 -0.12955,11.9293c-0.04752,1.61416 -1.75832,2.7132 -3.7527,2.7132c-7.61159,0 -56.52014,0 -69.66667,0c-2.11765,0 -2.33333,-1.52517 -2.33333,-3.66667z" fill="none" stroke="#000000" stroke-width="2"/><path d="M207.86877,182.49082c0,-1.96626 0,-4.23602 0,-5.10837c0,-0.45262 0.85198,-1.58077 1.96457,-1.58077c1.99226,0 8.78796,-0.33333 17.61242,-0.33333c5.82542,0 11.00709,0.61081 17.35097,0.44904c9.29682,-0.23707 20.12789,-0.11571 24.86759,-0.11571c2.30112,0 2.01472,1.03481 2.09411,1.83926c0.10418,1.05563 -0.02088,3.82602 -0.10908,5.45233c-0.04001,0.73776 -0.5865,1.24008 -2.26568,1.24008c-2.5112,0 -10.49838,0.05014 -19.95045,-0.04512c-6.53444,-0.06586 -13.769,-0.28821 -20.37838,-0.28821c-8.22872,0 -15.4884,0.33333 -19.22149,0.33333c-1.78297,0 -1.96457,-0.86375 -1.96457,-1.84253z" fill="#adadad" stroke="#adadad" stroke-width="3"/></g></g></svg>