<svg version="1.1" xmlns="http://www.w3.org/2000/svg" xmlns:xlink="http://www.w3.org/1999/xlink" width="486" height="446.28144" viewBox="0,0,486,446.28144"><defs><linearGradient x1="171.99613" y1="13.57834" x2="158.49607" y2="13.57834" gradientUnits="userSpaceOnUse" id="color-1"><stop offset="0" stop-color="#5f6265"/><stop offset="1" stop-color="#4b4f51"/></linearGradient><linearGradient x1="300.49604" y1="14.91167" x2="313.99604" y2="14.91167" gradientUnits="userSpaceOnUse" id="color-2"><stop offset="0" stop-color="#5f6265"/><stop offset="1" stop-color="#4b4f51"/></linearGradient><linearGradient x1="236.43665" y1="-50.58833" x2="236.43665" y2="73.41164" gradientUnits="userSpaceOnUse" id="color-3"><stop offset="0" stop-color="#56595b"/><stop offset="1" stop-color="#73787a"/></linearGradient><linearGradient x1="93.24612" y1="-50.58834" x2="93.24612" y2="73.41164" gradientUnits="userSpaceOnUse" id="color-4"><stop offset="0" stop-color="#56595b"/><stop offset="1" stop-color="#73787a"/></linearGradient><linearGradient x1="379.24613" y1="-48.58834" x2="379.24613" y2="75.41164" gradientUnits="userSpaceOnUse" id="color-5"><stop offset="0" stop-color="#56595b"/><stop offset="1" stop-color="#73787a"/></linearGradient><linearGradient x1="237.40092" y1="13.53418" x2="237.40092" y2="69.48359" gradientUnits="userSpaceOnUse" id="color-6"><stop offset="0" stop-color="#545960"/><stop offset="1" stop-color="#5f6369"/></linearGradient></defs><g transform="translate(3,62.78141)"><g data-paper-data="{&quot;isPaintingLayer&quot;:true}" fill-rule="nonzero" stroke-linejoin="miter" stroke-miterlimit="10" stroke-dasharray="" stroke-dashoffset="0" style="mix-blend-mode: normal"><path d="M-3,383.50003v-435.33333h486v435.33333z" fill="#151a19" stroke="none" stroke-width="0" stroke-linecap="butt"/><path d="M23.5,383.50003v-435.33333h433v435.33333z" fill="#1d2424" stroke="none" stroke-width="0" stroke-linecap="butt"/><path d="M405.64774,342.31992c-0.57099,0.85454 -0.5864,-1.53848 -0.3764,-3.50457c0.92554,-8.66544 7.50725,-70.28673 7.50725,-70.28673v-325.98225h23.5v352.90365c0,0 -27.50368,42.18981 -30.63085,46.8699z" data-paper-data="{&quot;index&quot;:null}" fill="#1e2020" stroke="#000000" stroke-width="5" stroke-linecap="butt"/><g fill="#1e2020" stroke="#000000" stroke-width="5" stroke-linecap="butt"><path d="M91.05556,342.20002l32,-122.75699h291c0,0 -5.04311,79.97828 -7.02907,101.17741c-0.90319,9.64116 -4.47093,21.57958 -4.47093,21.57958z" data-paper-data="{&quot;index&quot;:null}"/><path d="M403.08584,338.28312c0.9569,-8.63817 7.47122,-67.44468 7.47122,-67.44468v-314.30993h23.5v340.26736c0,0 -25.8874,39.06763 -29.92138,44.88869c-1.04447,1.50716 -1.27739,-1.34724 -1.04984,-3.40143z" data-paper-data="{&quot;index&quot;:null}"/></g><path d="M158.49607,74.07828v-121h13.5v121z" data-paper-data="{&quot;index&quot;:null}" fill="url(#color-1)" stroke="none" stroke-width="0" stroke-linecap="butt"/><path d="M300.49604,75.41164v-121h13.5v121z" fill="url(#color-2)" stroke="none" stroke-width="0" stroke-linecap="butt"/><path d="M168.68664,73.41164v-124h135.5v124z" fill="url(#color-3)" stroke="#121513" stroke-width="3" stroke-linecap="butt"/><path d="M70.27102,342.20002c0,0 -3.80694,-11.03815 -4.77069,-19.95228c-2.11911,-19.60053 -7.50033,-93.54772 -7.50033,-93.54772h310.5102l34.14545,113.5z" fill="#1e2020" stroke="#000000" stroke-width="5" stroke-linecap="butt"/><path d="M37.9985,295.11431v-352.90365h23.5v325.98225c0,0 6.58171,61.62129 7.50725,70.28673c0.21,1.96609 0.19459,4.35911 -0.3764,3.50457c-3.12717,-4.68009 -30.63085,-46.8699 -30.63085,-46.8699z" fill="#1e2020" stroke="#000000" stroke-width="5" stroke-linecap="butt"/><path d="M70.36592,342.20002c0,0 -3.83638,-11.03815 -4.80759,-19.95228c-2.13549,-19.60053 -7.55833,-93.54772 -7.55833,-93.54772h312.91145c0,0 35.95997,72.78678 41.27495,90.3183c1.87153,6.17324 -6.86544,23.1817 -6.86544,23.1817z" fill="#1e2020" stroke="none" stroke-width="0" stroke-linecap="butt"/><path d="M37.9985,296.22445v-344.61769h23.5v318.3284l7.89372,72.16974z" fill="#1e2020" stroke="none" stroke-width="0" stroke-linecap="butt"/><path d="M397.7461,327.56113l-325.7773,-3.02598l-25.23093,-32.74975c0,0 0.13775,-71.48124 0.19673,-102.08981c0.04821,-25.01609 0.13141,-68.19224 0.13141,-68.19224l229.1801,-51.44221l26.8082,0.6431c0,0 1.69204,4.7989 4.5514,6.891c2.85935,2.09212 6.43494,-1.02338 6.43494,-1.02338c0,0 15.50804,12.4761 31.49079,25.08244c9.28247,7.32152 18.72508,14.68698 25.38277,19.67782c14.20196,10.64626 49.81108,37.34006 49.81108,37.34006c0,0 0.71459,6.00016 1.39838,8.25218c0.80369,2.64688 3.12243,6.63676 3.12243,6.63676v118.5z" fill="none" stroke="#1a1a1a" stroke-width="4" stroke-linecap="butt"/><path d="M405.64774,342.31992c-0.57099,0.85454 -0.5864,-1.53848 -0.3764,-3.50457c0.92554,-8.66544 7.50725,-70.28673 7.50725,-70.28673v-325.98225h23.5v352.90365c0,0 -27.50368,42.18981 -30.63085,46.8699z" data-paper-data="{&quot;index&quot;:null}" fill="#1e2020" stroke="none" stroke-width="0" stroke-linecap="butt"/><path d="M70.18618,324.53776l-23.96642,-32.61016l-0.09468,-108.38984h378.96238l0.75191,108l-28.71385,34.37614z" fill="#525a61" stroke="none" stroke-width="0" stroke-linecap="butt"/><path d="M63.37511,313.28781l-4.5,-6.75h356.25l-5.25,6.75z" fill="#7c7556" stroke="none" stroke-width="5" stroke-linecap="butt"/><path d="M63.37509,313.28781l-4.5,-6.75h356.25l-5.25,6.75z" fill="#7c7556" stroke="none" stroke-width="5" stroke-linecap="butt"/><path d="M46.87509,224.78781v-6.75h379.5v6.75z" fill="#7c7556" stroke="none" stroke-width="4.5" stroke-linecap="butt"/><path d="M46.87509,269.78781v-6.75h379.5v6.75z" fill="#7c7556" stroke="none" stroke-width="4.5" stroke-linecap="butt"/><path d="M45.96976,126.69649v-175.13569h57.5v175.1357z" data-paper-data="{&quot;index&quot;:null}" fill="#303536" stroke="#121513" stroke-width="2" stroke-linecap="butt"/><path d="M368.80009,123.19499v-172.00366h57.5v172.00367z" fill="#303536" stroke="#121513" stroke-width="2" stroke-linecap="butt"/><path d="M50.99613,113.91166l-0.5,-164l108.5,-0.5c0,0 0,10.66922 0,19.89999c0,21.11237 0,104.10001 0,104.10001z" data-paper-data="{&quot;index&quot;:null}" fill="url(#color-4)" stroke="#121513" stroke-width="3" stroke-linecap="butt"/><path d="M313.49604,75.41164c0,0 0,-82.98763 0,-104.1c0,-9.23078 0,-19.89999 0,-19.89999l108.5,0.5l-0.5,163.5z" fill="url(#color-5)" stroke="#121513" stroke-width="3" stroke-linecap="butt"/><g fill="#495259" stroke-linecap="butt"><path d="M47.2461,181.06117v-59.25c0,0 2.31874,-1.99494 3.12243,-3.31838c0.68379,-1.12601 1.39838,-4.12609 1.39838,-4.12609c0,0 35.60912,-13.3469 49.81108,-18.67003c6.65769,-2.49542 16.1003,-6.17815 25.38277,-9.83891c15.98275,-6.30317 31.49079,-12.54122 31.49079,-12.54122c0,0 3.57559,1.55775 6.43494,0.51169c2.85936,-1.04605 4.5514,-3.4455 4.5514,-3.4455l26.8082,-0.32155v111z" data-paper-data="{&quot;index&quot;:null}" stroke="#1a1a1a" stroke-width="4"/><path d="M47.2461,181.06117v-59.25c0,0 2.31874,-1.99494 3.12243,-3.31838c0.68379,-1.12601 1.39838,-4.12609 1.39838,-4.12609c0,0 35.60912,-13.3469 49.81108,-18.67003c6.65769,-2.49542 16.1003,-6.17815 25.38277,-9.83891c15.98275,-6.30317 31.49079,-12.54122 31.49079,-12.54122c0,0 3.57559,1.55775 6.43494,0.51169c2.85936,-1.04605 4.5514,-3.4455 4.5514,-3.4455l26.8082,-0.32155v111z" data-paper-data="{&quot;index&quot;:null}" stroke="none" stroke-width="0"/></g><path d="M276.24604,181.06118v-111l26.8082,0.32155c0,0 1.69204,2.39945 4.5514,3.4455c2.85935,1.04606 6.43494,-0.51169 6.43494,-0.51169c0,0 15.50804,6.23805 31.49079,12.54122c9.28247,3.66076 18.72508,7.34349 25.38277,9.83891c14.20196,5.32313 49.81108,18.67003 49.81108,18.67003c0,0 0.71459,3.00008 1.39838,4.12609c0.80369,1.32344 3.12243,3.31838 3.12243,3.31838v59.25z" fill="#495259" stroke="#1a1a1a" stroke-width="4" stroke-linecap="butt"/><path d="M276.24604,181.06118v-111l26.8082,0.32155c0,0 1.69204,2.39945 4.5514,3.4455c2.85935,1.04606 6.43494,-0.51169 6.43494,-0.51169c0,0 15.50804,6.23805 31.49079,12.54122c9.28247,3.66076 18.72508,7.34349 25.38277,9.83891c14.20196,5.32313 49.81108,18.67003 49.81108,18.67003c0,0 0.71459,3.00008 1.39838,4.12609c0.80369,1.32344 3.12243,3.31838 3.12243,3.31838v59.25z" fill="#495259" stroke="none" stroke-width="0" stroke-linecap="butt"/><path d="M195.57949,177.6132v-108.6h83v108.6z" fill="#727d81" stroke="#3d4548" stroke-width="1" stroke-linecap="butt"/><path d="M203.24616,177.6132v-108h68v108z" fill="#4a5156" stroke="#2a3032" stroke-width="2.5" stroke-linecap="butt"/><path d="M207.24616,177.6132v-108h61v108z" fill="#576368" stroke="none" stroke-width="0" stroke-linecap="butt"/><path d="M46.40187,191.21321v-17.33334h380.01093v17.33334z" fill="#667375" stroke="#3b474c" stroke-width="1" stroke-linecap="butt"/><path d="M46.23886,176.21321v-4h380.10925v4z" fill="#495259" stroke="#3b474c" stroke-width="1" stroke-linecap="butt"/><path d="M45.91281,182.87986v-4h380.10925v4z" fill="#495259" stroke="#3b474c" stroke-width="1" stroke-linecap="butt"/><path d="M194.64483,69.79855v-1.6875h7.15v1.6875z" fill="#151a1a" stroke="none" stroke-width="NaN" stroke-linecap="butt"/><path d="M273.29477,70.29855v-1.6875h6.35v1.6875z" fill="#151a1a" stroke="none" stroke-width="NaN" stroke-linecap="butt"/><path d="M47.87509,269.78781v-6.75h376.58367v6.75z" fill="#7c7556" stroke="#404a4f" stroke-width="4.5" stroke-linecap="butt"/><path d="M48.1608,224.78781v-6.75h376.71429v6.75z" fill="#7c7556" stroke="#404a4f" stroke-width="4.5" stroke-linecap="butt"/><path d="M65.56822,313.28781l-4.44316,-6.75h351.75l-5.18368,6.75z" fill="#7c7556" stroke="#404a4f" stroke-width="5" stroke-linecap="butt"/><g fill="#7d7655" stroke="#404a4f" stroke-linecap="butt"><path d="M114.37505,323.40003v-131.85h6v131.85z" stroke-width="4.5"/><path d="M114.37505,323.40003v-131.85h6v131.85z" stroke-width="0"/></g><path d="M46.87509,224.78781v-6.75h379.5v6.75z" fill="#7c7556" stroke="none" stroke-width="4.5" stroke-linecap="butt"/><path d="M46.87509,269.78781v-6.75h379.5v6.75z" fill="#7c7556" stroke="none" stroke-width="4.5" stroke-linecap="butt"/><g fill="#7d7655" stroke="#404a4f" stroke-linecap="butt"><path d="M195.93454,323.40002v-131.85h6v131.85z" stroke-width="4.5"/><path d="M195.93454,323.40002v-131.85h6v131.85z" stroke-width="0"/></g><g fill="#7d7655" stroke="#404a4f" stroke-linecap="butt"><path d="M271.34596,323.40002v-131.85h6v131.85z" stroke-width="4.5"/><path d="M271.34596,323.40002v-131.85h6v131.85z" stroke-width="0"/></g><g fill="#7d7655" stroke="#404a4f" stroke-linecap="butt"><path d="M354.42704,323.40002v-131.85h6v131.85z" stroke-width="4.5"/><path d="M354.42704,323.40002v-131.85h6v131.85z" stroke-width="0"/></g><path d="M63.37509,313.28781l-4.5,-6.75h356.25l-5.25,6.75c0,0 -2.46658,0 -5.99513,0c-26.59247,0 -340.50487,0 -340.50487,0z" fill="#7c7556" stroke="none" stroke-width="0" stroke-linecap="butt"/><path d="M46.87511,269.78781v-6.75h378.50051v6.75z" fill="#7d7655" stroke="none" stroke-width="4.5" stroke-linecap="butt"/><path d="M46.87511,224.78781v-6.75h379.5v6.75z" fill="#7d7655" stroke="none" stroke-width="4.5" stroke-linecap="butt"/><path d="M46.49615,191.21321v-5.33333h379.66667v5.33333z" fill="#495259" stroke="#3b474c" stroke-width="1" stroke-linecap="butt"/><path d="M425.19975,194.35004v-30.75h2.1007v30.75z" fill="#1a1a1a" stroke="none" stroke-width="0" stroke-linecap="butt"/><path d="M44.97925,195.85004v-30.75h2.29167v30.75z" fill="#1a1a1a" stroke="none" stroke-width="0" stroke-linecap="butt"/><path d="M202.75001,159.20002v-1.5h67.5v1.5z" fill="#3d4548" stroke="none" stroke-width="0" stroke-linecap="butt"/><path d="M202.75001,127.20002v-1.5h67.5v1.5z" fill="#3d4548" stroke="none" stroke-width="0" stroke-linecap="butt"/><path d="M202.75001,95.70002v-1.5h67.5v1.5z" fill="#3d4548" stroke="none" stroke-width="0" stroke-linecap="butt"/><g><g><path d="M55.7512,100.88966c-2.15296,-1.729 -0.88521,-3.47445 -0.88521,-3.47445l16.74907,-4.443c0,0 4.92512,2.81683 6.8315,3.90714c1.37247,0.78496 3.11919,1.74482 -0.87392,3.66198c-2.86414,1.37512 -6.66055,2.47382 -8.33577,3.105c-1.7284,0.65122 -3.33038,0.90513 -4.76205,0.89512c-2.09336,-0.01463 -3.82257,-0.59347 -5.0504,-1.31951c0,0 -3.01358,-1.80253 -3.67323,-2.33228z" fill="#1c3845" stroke="#0c1b1e" stroke-width="5.3" stroke-linecap="butt"/><path d="M55.7512,100.88966c-2.15296,-1.729 -0.88521,-3.47445 -0.88521,-3.47445l16.74907,-4.443c0,0 4.92512,2.81683 6.8315,3.90714c1.37247,0.78496 3.11919,1.74482 -0.87392,3.66198c-2.86414,1.37512 -6.66055,2.47382 -8.33577,3.105c-1.7284,0.65122 -3.33038,0.90513 -4.76205,0.89512c-2.09336,-0.01463 -3.82257,-0.59347 -5.0504,-1.31951c0,0 -3.01358,-1.80253 -3.67323,-2.33228z" fill="#1c3845" stroke="none" stroke-width="0" stroke-linecap="butt"/><path d="M60.68158,103.21373c-1.1964,-0.75364 -2.83077,-1.80373 -3.45045,-2.33374c-2.02253,-1.72985 -0.83268,-3.4748 -0.83268,-3.4748l15.72723,-4.43631c0,0 4.62629,2.81878 6.417,3.90985c1.2892,0.7855 2.92993,1.74606 -0.81924,3.66161c-2.68916,1.37397 -6.25392,2.47116 -7.82685,3.10167c-1.62288,0.65053 -3.12719,0.90379 -4.47167,0.89322c-1.96587,-0.01545 -3.59001,-0.595 -4.74335,-1.32151z" fill="#2d5368" stroke="none" stroke-width="0" stroke-linecap="butt"/><path d="M54.39527,96.37175c0,0 -0.06696,-10.23534 -0.08341,-12.74973c-0.00691,-1.05625 0.52914,-2.86771 1.10693,-3.56695c0.40031,-0.48445 0.8169,-1.00802 1.08017,-1.39234c0.50315,-0.73446 1.34174,-2.46338 1.34174,-2.46338c0,0 5.33046,-1.85473 6.75254,-2.34954c0.65667,-0.22849 2.14006,0.24037 2.88183,0.96216c0.41333,0.40219 0.83957,0.79829 1.16478,1.05664c0.83047,0.65975 2.14243,3.17801 2.15039,4.39552c0.01575,2.40718 0.07033,10.74977 0.07033,10.74977z" fill="#2d5368" stroke="#0c1b1e" stroke-width="5" stroke-linecap="butt"/><path d="M54.39527,96.37175c0,0 -0.07196,-10.99872 -0.08717,-13.32409c-0.00539,-0.82462 0.50919,-2.26641 1.07254,-2.94647c0.4118,-0.49711 0.84667,-1.0419 1.11832,-1.43845c0.18814,-0.27464 0.42319,-0.68831 0.64375,-1.09865c0.36929,-0.68704 1.63414,-1.69045 2.37629,-1.94869c0.97457,-0.3391 3.54404,-1.23314 5.1493,-1.79169c0.80308,-0.27943 1.78019,-0.0351 2.30999,0.4968c0.54138,0.54352 1.20226,1.18321 1.66157,1.54811c0.34059,0.27057 0.76047,0.59598 1.13731,0.88575c0.54205,0.41679 1.00041,1.57481 1.0055,2.35208c0.01391,2.12557 0.0779,11.90746 0.0779,11.90746z" fill="#1c3845" stroke="none" stroke-width="0" stroke-linecap="butt"/><path d="M55.7919,95.85149c0,0 0.13457,-10.0021 0.12003,-12.22455c-0.00516,-0.78812 0.45904,-2.16592 0.96753,-2.81568c0.3717,-0.47496 0.7642,-0.99549 1.00938,-1.37438c0.1698,-0.26241 0.38191,-0.6577 0.58094,-1.0498c0.33325,-0.6565 1.4751,-1.61506 2.1452,-1.8616c0.87996,-0.32375 3.19996,-1.17734 4.64936,-1.7106c0.72511,-0.26678 1.60756,-0.03293 2.08618,0.47561c0.48907,0.51964 1.08609,1.13125 1.501,1.48015c0.30765,0.25871 0.68693,0.56986 1.02733,0.84693c0.48964,0.39853 0.90395,1.50545 0.90881,2.24832c0.01329,2.0315 0.07445,11.3804 0.07445,11.3804z" fill="#2d5368" stroke="none" stroke-width="0" stroke-linecap="butt"/><path d="M57.19711,97.06662l2.6608,-0.90632c0,0 2.52516,1.77886 3.52684,2.48449c0.74347,0.52374 0.48976,0.842 -0.49167,0.4863c-1.50117,-0.54409 -5.69596,-2.06447 -5.69596,-2.06447z" fill="#0c1b1e" stroke="none" stroke-width="0" stroke-linecap="butt"/><g fill="none" stroke-linecap="round"><path d="M71.0722,77.50703c0,0 0.58508,1.98942 -0.50176,5.62677c-1.22457,4.09837 -1.13121,9.0828 -0.59434,10.305c0.65032,1.48046 2.30704,3.46862 3.10899,4.56554c0.84458,1.15521 0.80507,2.91759 0.63106,4.1674c-0.12071,0.86693 -0.52316,0.89766 -1.02352,0.0313c-0.58591,-1.0145 -1.56034,-2.40852 -3.02976,-3.67984c-1.8695,-1.61745 -4.84235,-1.81477 -6.69547,-3.74204c-1.7829,-1.85423 -0.50742,-2.40651 -2.8034,-4.88064c-1.17577,-1.26702 -3.23078,-0.86769 -4.02233,-1.80889c-2.31248,-2.74968 -2.87298,-5.96802 -2.87298,-5.96802" stroke="#333c3e" stroke-width="2.5"/><path d="M71.0722,77.50703c0,0 0.58507,1.98942 -0.50176,5.62676c-1.22458,4.09837 -1.13121,9.08281 -0.59434,10.30501c0.65032,1.48046 2.30704,3.46862 3.10899,4.56554c0.93486,1.2787 0.78653,3.30131 0.57155,4.54926c-0.11395,0.66152 -0.40555,0.67367 -0.76492,0.00624c-0.55238,-1.02588 -1.57837,-2.60867 -3.22886,-4.03664c-1.8695,-1.61745 -4.84235,-1.81477 -6.69547,-3.74204c-1.7829,-1.85423 -0.50742,-2.40651 -2.8034,-4.88064c-1.17577,-1.26702 -3.23078,-0.86769 -4.02233,-1.80889c-2.31248,-2.74968 -2.87298,-5.96802 -2.87298,-5.96802" stroke="#6b7a7b" stroke-width="1"/></g></g><g><path d="M76.94841,92.75081c-2.15296,-1.729 -0.88521,-3.47445 -0.88521,-3.47445l16.74907,-4.443c0,0 4.92512,2.81683 6.8315,3.90714c1.37247,0.78496 3.11919,1.74482 -0.87392,3.66198c-2.86414,1.37512 -6.66055,2.47382 -8.33577,3.105c-1.7284,0.65122 -3.33038,0.90513 -4.76205,0.89512c-2.09336,-0.01463 -3.82257,-0.59347 -5.0504,-1.31951c0,0 -3.01358,-1.80253 -3.67323,-2.33228z" fill="#1c3845" stroke="#0c1b1e" stroke-width="5.3" stroke-linecap="butt"/><path d="M76.94841,92.75081c-2.15296,-1.729 -0.88521,-3.47445 -0.88521,-3.47445l16.74907,-4.443c0,0 4.92512,2.81683 6.8315,3.90714c1.37247,0.78496 3.11919,1.74482 -0.87392,3.66198c-2.86414,1.37512 -6.66055,2.47382 -8.33577,3.105c-1.7284,0.65122 -3.33038,0.90513 -4.76205,0.89512c-2.09336,-0.01463 -3.82257,-0.59347 -5.0504,-1.31951c0,0 -3.01358,-1.80253 -3.67323,-2.33228z" fill="#1c3845" stroke="none" stroke-width="0" stroke-linecap="butt"/><path d="M81.87879,95.07488c-1.1964,-0.75364 -2.83077,-1.80373 -3.45045,-2.33374c-2.02253,-1.72985 -0.83268,-3.4748 -0.83268,-3.4748l15.72723,-4.43631c0,0 4.62629,2.81878 6.417,3.90985c1.2892,0.7855 2.92993,1.74606 -0.81924,3.66161c-2.68916,1.37397 -6.25392,2.47116 -7.82685,3.10167c-1.62288,0.65053 -3.12719,0.90379 -4.47167,0.89322c-1.96587,-0.01545 -3.59001,-0.595 -4.74335,-1.32151z" fill="#2d5368" stroke="none" stroke-width="0" stroke-linecap="butt"/><path d="M75.59248,88.2329c0,0 -0.06696,-10.23534 -0.08341,-12.74973c-0.00691,-1.05625 0.52914,-2.86771 1.10693,-3.56695c0.40031,-0.48445 0.8169,-1.00802 1.08017,-1.39234c0.50315,-0.73446 1.34174,-2.46338 1.34174,-2.46338c0,0 5.33046,-1.85473 6.75254,-2.34954c0.65667,-0.22849 2.14006,0.24037 2.88183,0.96216c0.41333,0.40219 0.83957,0.79829 1.16478,1.05664c0.83047,0.65975 2.14243,3.17801 2.15039,4.39552c0.01575,2.40718 0.07033,10.74977 0.07033,10.74977z" fill="#2d5368" stroke="#0c1b1e" stroke-width="5" stroke-linecap="butt"/><path d="M75.59248,88.2329c0,0 -0.07196,-10.99872 -0.08717,-13.32409c-0.00539,-0.82462 0.50919,-2.26641 1.07254,-2.94647c0.4118,-0.49711 0.84667,-1.0419 1.11832,-1.43845c0.18814,-0.27464 0.42319,-0.68831 0.64375,-1.09865c0.36929,-0.68704 1.63414,-1.69045 2.37629,-1.94869c0.97457,-0.3391 3.54404,-1.23314 5.1493,-1.79169c0.80308,-0.27943 1.78019,-0.0351 2.30999,0.4968c0.54138,0.54352 1.20226,1.18321 1.66157,1.54811c0.34059,0.27057 0.76047,0.59598 1.13731,0.88575c0.54205,0.41679 1.00041,1.57481 1.0055,2.35208c0.01391,2.12557 0.0779,11.90746 0.0779,11.90746z" fill="#1c3845" stroke="none" stroke-width="0" stroke-linecap="butt"/><path d="M76.98911,87.71264c0,0 0.13457,-10.0021 0.12003,-12.22455c-0.00516,-0.78812 0.45904,-2.16592 0.96753,-2.81568c0.3717,-0.47496 0.7642,-0.99549 1.00938,-1.37438c0.1698,-0.26241 0.38191,-0.6577 0.58094,-1.0498c0.33325,-0.6565 1.4751,-1.61506 2.1452,-1.8616c0.87996,-0.32375 3.19996,-1.17734 4.64936,-1.7106c0.72511,-0.26678 1.60756,-0.03293 2.08618,0.47561c0.48907,0.51964 1.08609,1.13125 1.501,1.48015c0.30765,0.25871 0.68693,0.56986 1.02733,0.84693c0.48964,0.39853 0.90395,1.50545 0.90881,2.24832c0.01329,2.0315 0.07445,11.3804 0.07445,11.3804z" fill="#2d5368" stroke="none" stroke-width="0" stroke-linecap="butt"/><path d="M78.39432,88.92777l2.6608,-0.90632c0,0 2.52516,1.77886 3.52684,2.48449c0.74347,0.52374 0.48976,0.842 -0.49167,0.4863c-1.50117,-0.54409 -5.69596,-2.06447 -5.69596,-2.06447z" fill="#0c1b1e" stroke="none" stroke-width="0" stroke-linecap="butt"/><g fill="none" stroke-linecap="round"><path d="M92.26941,69.36817c0,0 0.58508,1.98942 -0.50176,5.62677c-1.22457,4.09837 -1.13121,9.0828 -0.59434,10.305c0.65032,1.48046 2.30704,3.46862 3.10899,4.56554c0.84458,1.15521 0.80507,2.91759 0.63106,4.1674c-0.12071,0.86693 -0.52316,0.89766 -1.02352,0.0313c-0.58591,-1.0145 -1.56034,-2.40852 -3.02976,-3.67984c-1.8695,-1.61745 -4.84235,-1.81477 -6.69547,-3.74204c-1.7829,-1.85423 -0.50742,-2.40651 -2.8034,-4.88064c-1.17577,-1.26702 -3.23078,-0.86769 -4.02233,-1.80889c-2.31248,-2.74968 -2.87298,-5.96802 -2.87298,-5.96802" stroke="#333c3e" stroke-width="2.5"/><path d="M92.26941,69.36817c0,0 0.58507,1.98942 -0.50176,5.62676c-1.22458,4.09837 -1.13121,9.08281 -0.59434,10.30501c0.65032,1.48046 2.30704,3.46862 3.10899,4.56554c0.93486,1.2787 0.78653,3.30131 0.57155,4.54926c-0.11395,0.66152 -0.40555,0.67367 -0.76492,0.00624c-0.55238,-1.02588 -1.57837,-2.60867 -3.22886,-4.03664c-1.8695,-1.61745 -4.84235,-1.81477 -6.69547,-3.74204c-1.7829,-1.85423 -0.50742,-2.40651 -2.8034,-4.88064c-1.17577,-1.26702 -3.23078,-0.86769 -4.02233,-1.80889c-2.31248,-2.74968 -2.87298,-5.96802 -2.87298,-5.96802" stroke="#6b7a7b" stroke-width="1"/></g></g><g><g><path d="M98.39888,85.11032c-2.15296,-1.729 -0.88521,-3.47445 -0.88521,-3.47445l16.74907,-4.443c0,0 4.92512,2.81683 6.8315,3.90714c1.37247,0.78496 3.11919,1.74482 -0.87392,3.66198c-2.86414,1.37512 -6.66055,2.47382 -8.33577,3.105c-1.7284,0.65122 -3.33038,0.90513 -4.76205,0.89512c-2.09336,-0.01463 -3.82257,-0.59347 -5.0504,-1.31951c0,0 -3.01358,-1.80253 -3.67323,-2.33228z" fill="#1c3845" stroke="#0c1b1e" stroke-width="5.3" stroke-linecap="butt"/><path d="M98.39888,85.11032c-2.15296,-1.729 -0.88521,-3.47445 -0.88521,-3.47445l16.74907,-4.443c0,0 4.92512,2.81683 6.8315,3.90714c1.37247,0.78496 3.11919,1.74482 -0.87392,3.66198c-2.86414,1.37512 -6.66055,2.47382 -8.33577,3.105c-1.7284,0.65122 -3.33038,0.90513 -4.76205,0.89512c-2.09336,-0.01463 -3.82257,-0.59347 -5.0504,-1.31951c0,0 -3.01358,-1.80253 -3.67323,-2.33228z" fill="#1c3845" stroke="none" stroke-width="0" stroke-linecap="butt"/><path d="M103.32926,87.43438c-1.1964,-0.75364 -2.83077,-1.80373 -3.45045,-2.33374c-2.02253,-1.72985 -0.83268,-3.4748 -0.83268,-3.4748l15.72723,-4.43631c0,0 4.62629,2.81878 6.417,3.90985c1.2892,0.7855 2.92993,1.74606 -0.81924,3.66161c-2.68916,1.37397 -6.25392,2.47116 -7.82685,3.10167c-1.62288,0.65053 -3.12719,0.90379 -4.47167,0.89322c-1.96587,-0.01545 -3.59001,-0.595 -4.74335,-1.32151z" fill="#2d5368" stroke="none" stroke-width="0" stroke-linecap="butt"/><path d="M97.04295,80.59238c0,0 -0.06696,-10.23534 -0.08341,-12.74973c-0.00691,-1.05625 0.52914,-2.86771 1.10693,-3.56695c0.40031,-0.48445 0.8169,-1.00802 1.08017,-1.39234c0.50315,-0.73446 1.34174,-2.46338 1.34174,-2.46338c0,0 5.33046,-1.85473 6.75254,-2.34954c0.65667,-0.22849 2.14006,0.24037 2.88183,0.96216c0.41333,0.40219 0.83957,0.79829 1.16478,1.05664c0.83047,0.65975 2.14243,3.17801 2.15039,4.39552c0.01575,2.40718 0.07033,10.74977 0.07033,10.74977z" fill="#2d5368" stroke="#0c1b1e" stroke-width="5" stroke-linecap="butt"/><path d="M97.04295,80.59238c0,0 -0.07196,-10.99872 -0.08717,-13.32409c-0.00539,-0.82462 0.50919,-2.26641 1.07254,-2.94647c0.4118,-0.49711 0.84667,-1.0419 1.11832,-1.43845c0.18814,-0.27464 0.42319,-0.68831 0.64375,-1.09865c0.36929,-0.68704 1.63414,-1.69045 2.37629,-1.94869c0.97457,-0.3391 3.54404,-1.23314 5.1493,-1.79169c0.80308,-0.27943 1.78019,-0.0351 2.30999,0.4968c0.54138,0.54352 1.20226,1.18321 1.66157,1.54811c0.34059,0.27057 0.76047,0.59598 1.13731,0.88575c0.54205,0.41679 1.00041,1.57481 1.0055,2.35208c0.01391,2.12557 0.0779,11.90746 0.0779,11.90746z" fill="#1c3845" stroke="none" stroke-width="0" stroke-linecap="butt"/><path d="M98.43958,80.07214c0,0 0.13457,-10.0021 0.12003,-12.22455c-0.00516,-0.78812 0.45904,-2.16592 0.96753,-2.81568c0.3717,-0.47496 0.7642,-0.99549 1.00938,-1.37438c0.1698,-0.26241 0.38191,-0.6577 0.58094,-1.0498c0.33325,-0.6565 1.4751,-1.61506 2.1452,-1.8616c0.87996,-0.32375 3.19996,-1.17734 4.64936,-1.7106c0.72511,-0.26678 1.60756,-0.03293 2.08618,0.47561c0.48907,0.51964 1.08609,1.13125 1.501,1.48015c0.30765,0.25871 0.68693,0.56986 1.02733,0.84693c0.48964,0.39853 0.90395,1.50545 0.90881,2.24832c0.01329,2.0315 0.07445,11.3804 0.07445,11.3804z" fill="#2d5368" stroke="none" stroke-width="0" stroke-linecap="butt"/><path d="M99.84479,81.28727l2.6608,-0.90632c0,0 2.52516,1.77886 3.52684,2.48449c0.74347,0.52374 0.48976,0.842 -0.49167,0.4863c-1.50117,-0.54409 -5.69596,-2.06447 -5.69596,-2.06447z" fill="#0c1b1e" stroke="none" stroke-width="0" stroke-linecap="butt"/><g fill="none" stroke-linecap="round"><path d="M113.71989,61.72768c0,0 0.58508,1.98942 -0.50176,5.62677c-1.22457,4.09837 -1.13121,9.0828 -0.59434,10.305c0.65032,1.48046 2.30704,3.46862 3.10899,4.56554c0.84458,1.15521 0.80507,2.91759 0.63106,4.1674c-0.12071,0.86693 -0.52316,0.89766 -1.02352,0.0313c-0.58591,-1.0145 -1.56034,-2.40852 -3.02976,-3.67984c-1.8695,-1.61745 -4.84235,-1.81477 -6.69547,-3.74204c-1.7829,-1.85423 -0.50742,-2.40651 -2.8034,-4.88064c-1.17577,-1.26702 -3.23078,-0.86769 -4.02233,-1.80889c-2.31248,-2.74968 -2.87298,-5.96802 -2.87298,-5.96802" stroke="#333c3e" stroke-width="2.5"/><path d="M113.71989,61.72768c0,0 0.58507,1.98942 -0.50176,5.62676c-1.22458,4.09837 -1.13121,9.08281 -0.59434,10.30501c0.65032,1.48046 2.30704,3.46862 3.10899,4.56554c0.93486,1.2787 0.78653,3.30131 0.57155,4.54926c-0.11395,0.66152 -0.40555,0.67367 -0.76492,0.00624c-0.55238,-1.02588 -1.57837,-2.60867 -3.22886,-4.03664c-1.8695,-1.61745 -4.84235,-1.81477 -6.69547,-3.74204c-1.7829,-1.85423 -0.50742,-2.40651 -2.8034,-4.88064c-1.17577,-1.26702 -3.23078,-0.86769 -4.02233,-1.80889c-2.31248,-2.74968 -2.87298,-5.96802 -2.87298,-5.96802" stroke="#6b7a7b" stroke-width="1"/></g></g><g><path d="M119.59609,76.97146c-2.15296,-1.729 -0.88521,-3.47445 -0.88521,-3.47445l16.74907,-4.443c0,0 4.92512,2.81683 6.8315,3.90714c1.37247,0.78496 3.11919,1.74482 -0.87392,3.66198c-2.86414,1.37512 -6.66055,2.47382 -8.33577,3.105c-1.7284,0.65122 -3.33038,0.90513 -4.76205,0.89512c-2.09336,-0.01463 -3.82257,-0.59347 -5.0504,-1.31951c0,0 -3.01358,-1.80253 -3.67323,-2.33228z" fill="#1c3845" stroke="#0c1b1e" stroke-width="5.3" stroke-linecap="butt"/><path d="M119.59609,76.97146c-2.15296,-1.729 -0.88521,-3.47445 -0.88521,-3.47445l16.74907,-4.443c0,0 4.92512,2.81683 6.8315,3.90714c1.37247,0.78496 3.11919,1.74482 -0.87392,3.66198c-2.86414,1.37512 -6.66055,2.47382 -8.33577,3.105c-1.7284,0.65122 -3.33038,0.90513 -4.76205,0.89512c-2.09336,-0.01463 -3.82257,-0.59347 -5.0504,-1.31951c0,0 -3.01358,-1.80253 -3.67323,-2.33228z" fill="#1c3845" stroke="none" stroke-width="0" stroke-linecap="butt"/><path d="M124.52647,79.29551c-1.1964,-0.75364 -2.83077,-1.80373 -3.45045,-2.33374c-2.02253,-1.72985 -0.83268,-3.4748 -0.83268,-3.4748l15.72723,-4.43631c0,0 4.62629,2.81878 6.417,3.90985c1.2892,0.7855 2.92993,1.74606 -0.81924,3.66161c-2.68916,1.37397 -6.25392,2.47116 -7.82685,3.10167c-1.62288,0.65053 -3.12719,0.90379 -4.47167,0.89322c-1.96587,-0.01545 -3.59001,-0.595 -4.74335,-1.32151z" fill="#2d5368" stroke="none" stroke-width="0" stroke-linecap="butt"/><path d="M118.24016,72.45355c0,0 -0.06696,-10.23534 -0.08341,-12.74973c-0.00691,-1.05625 0.52914,-2.86771 1.10693,-3.56695c0.40031,-0.48445 0.8169,-1.00802 1.08017,-1.39234c0.50315,-0.73446 1.34174,-2.46338 1.34174,-2.46338c0,0 5.33046,-1.85473 6.75254,-2.34954c0.65667,-0.22849 2.14006,0.24037 2.88183,0.96216c0.41333,0.40219 0.83957,0.79829 1.16478,1.05664c0.83047,0.65975 2.14243,3.17801 2.15039,4.39552c0.01575,2.40718 0.07033,10.74977 0.07033,10.74977z" fill="#2d5368" stroke="#0c1b1e" stroke-width="5" stroke-linecap="butt"/><path d="M118.24016,72.45355c0,0 -0.07196,-10.99872 -0.08717,-13.32409c-0.00539,-0.82462 0.50919,-2.26641 1.07254,-2.94647c0.4118,-0.49711 0.84667,-1.0419 1.11832,-1.43845c0.18814,-0.27464 0.42319,-0.68831 0.64375,-1.09865c0.36929,-0.68704 1.63414,-1.69045 2.37629,-1.94869c0.97457,-0.3391 3.54404,-1.23314 5.1493,-1.79169c0.80308,-0.27943 1.78019,-0.0351 2.30999,0.4968c0.54138,0.54352 1.20226,1.18321 1.66157,1.54811c0.34059,0.27057 0.76047,0.59598 1.13731,0.88575c0.54205,0.41679 1.00041,1.57481 1.0055,2.35208c0.01391,2.12557 0.0779,11.90746 0.0779,11.90746z" fill="#1c3845" stroke="none" stroke-width="0" stroke-linecap="butt"/><path d="M119.63679,71.93327c0,0 0.13457,-10.0021 0.12003,-12.22455c-0.00516,-0.78812 0.45904,-2.16592 0.96753,-2.81568c0.3717,-0.47496 0.7642,-0.99549 1.00938,-1.37438c0.1698,-0.26241 0.38191,-0.6577 0.58094,-1.0498c0.33325,-0.6565 1.4751,-1.61506 2.1452,-1.8616c0.87996,-0.32375 3.19996,-1.17734 4.64936,-1.7106c0.72511,-0.26678 1.60756,-0.03293 2.08618,0.47561c0.48907,0.51964 1.08609,1.13125 1.501,1.48015c0.30765,0.25871 0.68693,0.56986 1.02733,0.84693c0.48964,0.39853 0.90395,1.50545 0.90881,2.24832c0.01329,2.0315 0.07445,11.3804 0.07445,11.3804z" fill="#2d5368" stroke="none" stroke-width="0" stroke-linecap="butt"/><path d="M121.042,73.14843l2.6608,-0.90632c0,0 2.52516,1.77886 3.52684,2.48449c0.74347,0.52374 0.48976,0.842 -0.49167,0.4863c-1.50117,-0.54409 -5.69596,-2.06447 -5.69596,-2.06447z" fill="#0c1b1e" stroke="none" stroke-width="0" stroke-linecap="butt"/><g fill="none" stroke-linecap="round"><path d="M134.91709,53.58884c0,0 0.58508,1.98942 -0.50176,5.62677c-1.22457,4.09837 -1.13121,9.0828 -0.59434,10.305c0.65032,1.48046 2.30704,3.46862 3.10899,4.56554c0.84458,1.15521 0.80507,2.91759 0.63106,4.1674c-0.12071,0.86693 -0.52316,0.89766 -1.02352,0.0313c-0.58591,-1.0145 -1.56034,-2.40852 -3.02976,-3.67984c-1.8695,-1.61745 -4.84235,-1.81477 -6.69547,-3.74204c-1.7829,-1.85423 -0.50742,-2.40651 -2.8034,-4.88064c-1.17577,-1.26702 -3.23078,-0.86769 -4.02233,-1.80889c-2.31248,-2.74968 -2.87298,-5.96802 -2.87298,-5.96802" stroke="#333c3e" stroke-width="2.5"/><path d="M134.91709,53.58884c0,0 0.58507,1.98942 -0.50176,5.62676c-1.22458,4.09837 -1.13121,9.08281 -0.59434,10.30501c0.65032,1.48046 2.30704,3.46862 3.10899,4.56554c0.93486,1.2787 0.78653,3.30131 0.57155,4.54926c-0.11395,0.66152 -0.40555,0.67367 -0.76492,0.00624c-0.55238,-1.02588 -1.57837,-2.60867 -3.22886,-4.03664c-1.8695,-1.61745 -4.84235,-1.81477 -6.69547,-3.74204c-1.7829,-1.85423 -0.50742,-2.40651 -2.8034,-4.88064c-1.17577,-1.26702 -3.23078,-0.86769 -4.02233,-1.80889c-2.31248,-2.74968 -2.87298,-5.96802 -2.87298,-5.96802" stroke="#6b7a7b" stroke-width="1"/></g></g></g><g><path d="M140.79984,69.83258c-2.15296,-1.729 -0.88521,-3.47445 -0.88521,-3.47445l16.74907,-4.443c0,0 4.92512,2.81683 6.8315,3.90714c1.37247,0.78496 3.11919,1.74482 -0.87392,3.66198c-2.86414,1.37512 -6.66055,2.47382 -8.33577,3.105c-1.7284,0.65122 -3.33038,0.90513 -4.76205,0.89512c-2.09336,-0.01463 -3.82257,-0.59347 -5.0504,-1.31951c0,0 -3.01358,-1.80253 -3.67323,-2.33228z" fill="#1c3845" stroke="#0c1b1e" stroke-width="5.3" stroke-linecap="butt"/><path d="M140.79984,69.83258c-2.15296,-1.729 -0.88521,-3.47445 -0.88521,-3.47445l16.74907,-4.443c0,0 4.92512,2.81683 6.8315,3.90714c1.37247,0.78496 3.11919,1.74482 -0.87392,3.66198c-2.86414,1.37512 -6.66055,2.47382 -8.33577,3.105c-1.7284,0.65122 -3.33038,0.90513 -4.76205,0.89512c-2.09336,-0.01463 -3.82257,-0.59347 -5.0504,-1.31951c0,0 -3.01358,-1.80253 -3.67323,-2.33228z" fill="#1c3845" stroke="none" stroke-width="0" stroke-linecap="butt"/><path d="M145.73022,72.15666c-1.1964,-0.75364 -2.83077,-1.80373 -3.45045,-2.33374c-2.02253,-1.72985 -0.83268,-3.4748 -0.83268,-3.4748l15.72723,-4.43631c0,0 4.62629,2.81878 6.417,3.90985c1.2892,0.7855 2.92993,1.74606 -0.81924,3.66161c-2.68916,1.37397 -6.25392,2.47116 -7.82685,3.10167c-1.62288,0.65053 -3.12719,0.90379 -4.47167,0.89322c-1.96587,-0.01545 -3.59001,-0.595 -4.74335,-1.32151z" fill="#2d5368" stroke="none" stroke-width="0" stroke-linecap="butt"/><path d="M139.44391,65.31467c0,0 -0.06696,-10.23534 -0.08341,-12.74973c-0.00691,-1.05625 0.52914,-2.86771 1.10693,-3.56695c0.40031,-0.48445 0.8169,-1.00802 1.08017,-1.39234c0.50315,-0.73446 1.34174,-2.46338 1.34174,-2.46338c0,0 5.33046,-1.85473 6.75254,-2.34954c0.65667,-0.22849 2.14006,0.24037 2.88183,0.96216c0.41333,0.40219 0.83957,0.79829 1.16478,1.05664c0.83047,0.65975 2.14243,3.17801 2.15039,4.39552c0.01575,2.40718 0.07033,10.74977 0.07033,10.74977z" fill="#2d5368" stroke="#0c1b1e" stroke-width="5" stroke-linecap="butt"/><path d="M139.44391,65.31467c0,0 -0.07196,-10.99872 -0.08717,-13.32409c-0.00539,-0.82462 0.50919,-2.26641 1.07254,-2.94647c0.4118,-0.49711 0.84667,-1.0419 1.11832,-1.43845c0.18814,-0.27464 0.42319,-0.68831 0.64375,-1.09865c0.36929,-0.68704 1.63414,-1.69045 2.37629,-1.94869c0.97457,-0.3391 3.54404,-1.23314 5.1493,-1.79169c0.80308,-0.27943 1.78019,-0.0351 2.30999,0.4968c0.54138,0.54352 1.20226,1.18321 1.66157,1.54811c0.34059,0.27057 0.76047,0.59598 1.13731,0.88575c0.54205,0.41679 1.00041,1.57481 1.0055,2.35208c0.01391,2.12557 0.0779,11.90746 0.0779,11.90746z" fill="#1c3845" stroke="none" stroke-width="0" stroke-linecap="butt"/><path d="M140.84054,64.79442c0,0 0.13457,-10.0021 0.12003,-12.22455c-0.00516,-0.78812 0.45904,-2.16592 0.96753,-2.81568c0.3717,-0.47496 0.7642,-0.99549 1.00938,-1.37438c0.1698,-0.26241 0.38191,-0.6577 0.58094,-1.0498c0.33325,-0.6565 1.4751,-1.61506 2.1452,-1.8616c0.87996,-0.32375 3.19996,-1.17734 4.64936,-1.7106c0.72511,-0.26678 1.60756,-0.03293 2.08618,0.47561c0.48907,0.51964 1.08609,1.13125 1.501,1.48015c0.30765,0.25871 0.68693,0.56986 1.02733,0.84693c0.48964,0.39853 0.90395,1.50545 0.90881,2.24832c0.01329,2.0315 0.07445,11.3804 0.07445,11.3804z" fill="#2d5368" stroke="none" stroke-width="0" stroke-linecap="butt"/><path d="M142.24575,66.00956l2.6608,-0.90632c0,0 2.52516,1.77886 3.52684,2.48449c0.74347,0.52374 0.48976,0.842 -0.49167,0.4863c-1.50117,-0.54409 -5.69596,-2.06447 -5.69596,-2.06447z" fill="#0c1b1e" stroke="none" stroke-width="0" stroke-linecap="butt"/><g fill="none" stroke-linecap="round"><path d="M156.12084,46.44996c0,0 0.58508,1.98942 -0.50176,5.62677c-1.22457,4.09837 -1.13121,9.0828 -0.59434,10.305c0.65032,1.48046 2.30704,3.46862 3.10899,4.56554c0.84458,1.15521 0.80507,2.91759 0.63106,4.1674c-0.12071,0.86693 -0.52316,0.89766 -1.02352,0.0313c-0.58591,-1.0145 -1.56034,-2.40852 -3.02976,-3.67984c-1.8695,-1.61745 -4.84235,-1.81477 -6.69547,-3.74204c-1.7829,-1.85423 -0.50742,-2.40651 -2.8034,-4.88064c-1.17577,-1.26702 -3.23078,-0.86769 -4.02233,-1.80889c-2.31248,-2.74968 -2.87298,-5.96802 -2.87298,-5.96802" stroke="#333c3e" stroke-width="2.5"/><path d="M156.12084,46.44996c0,0 0.58507,1.98942 -0.50176,5.62676c-1.22458,4.09837 -1.13121,9.08281 -0.59434,10.30501c0.65032,1.48046 2.30704,3.46862 3.10899,4.56554c0.93486,1.2787 0.78653,3.30131 0.57155,4.54926c-0.11395,0.66152 -0.40555,0.67367 -0.76492,0.00624c-0.55238,-1.02588 -1.57837,-2.60867 -3.22886,-4.03664c-1.8695,-1.61745 -4.84235,-1.81477 -6.69547,-3.74204c-1.7829,-1.85423 -0.50742,-2.40651 -2.8034,-4.88064c-1.17577,-1.26702 -3.23078,-0.86769 -4.02233,-1.80889c-2.31248,-2.74968 -2.87298,-5.96802 -2.87298,-5.96802" stroke="#6b7a7b" stroke-width="1"/></g></g></g><g data-paper-data="{&quot;index&quot;:null}"><g><path d="M414.49689,104.60015c-1.23813,0.70832 -2.97548,1.26228 -5.06883,1.24683c-1.43166,-0.01056 -3.02983,-0.28745 -4.7487,-0.96343c-1.66598,-0.65518 -5.44622,-1.8083 -8.29031,-3.22441c-3.96517,-1.97431 -2.20484,-2.90898 -0.82124,-3.67415c1.92184,-1.06282 6.88691,-3.80861 6.88691,-3.80861l16.68353,4.68311c0,0 1.24254,1.76348 -0.93502,3.46138c-0.66719,0.52022 -3.70635,2.27928 -3.70635,2.27928z" fill="#1c3845" stroke="#0c1b1e" stroke-width="5.3" stroke-linecap="butt"/><path d="M414.49689,104.60015c-1.23813,0.70832 -2.97548,1.26228 -5.06883,1.24683c-1.43166,-0.01056 -3.02983,-0.28745 -4.7487,-0.96343c-1.66598,-0.65518 -5.44622,-1.8083 -8.29031,-3.22441c-3.96517,-1.97431 -2.20484,-2.90898 -0.82124,-3.67415c1.92184,-1.06282 6.88691,-3.80861 6.88691,-3.80861l16.68353,4.68311c0,0 1.24254,1.76348 -0.93502,3.46138c-0.66719,0.52022 -3.70635,2.27928 -3.70635,2.27928z" fill="#1c3845" stroke="none" stroke-width="0" stroke-linecap="butt"/><path d="M413.24,104.57388c-1.16366,0.70987 -2.79594,1.26603 -4.76184,1.25324c-1.34449,-0.00875 -2.84501,-0.28359 -4.45838,-0.95736c-1.56371,-0.65304 -5.11234,-1.80132 -7.78149,-3.21377c-3.72127,-1.9692 -2.06691,-2.90609 -0.76656,-3.673c1.80619,-1.06524 6.47249,-3.81728 6.47249,-3.81728l15.66189,4.66175c0,0 1.16466,1.76186 -0.8825,3.46248c-0.62723,0.52105 -2.27652,1.54756 -3.48362,2.28393z" fill="#2d5368" stroke="none" stroke-width="0" stroke-linecap="butt"/><path d="M403.23727,92.22911c0,0 0.1744,-8.34095 0.22472,-10.74765c0.02545,-1.21727 1.37344,-3.71643 2.2133,-4.36418c0.32888,-0.25365 0.76077,-0.64358 1.17984,-1.0398c0.75206,-0.71106 2.24203,-1.15856 2.89535,-0.92066c1.41483,0.51518 6.7181,2.44628 6.7181,2.44628c0,0 0.81368,1.74079 1.30622,2.4824c0.25772,0.38806 0.66675,0.91756 1.06006,1.40771c0.56769,0.70746 1.07766,2.52644 1.05558,3.58248c-0.05256,2.51389 -0.26653,12.74721 -0.26653,12.74721z" fill="#2d5368" stroke="#0c1b1e" stroke-width="5" stroke-linecap="butt"/><path d="M403.23727,92.22911c0,0 0.20449,-9.77995 0.24893,-11.90511c0.01625,-0.77712 0.4912,-1.92843 1.03918,-2.3374c0.38097,-0.28433 0.80547,-0.60367 1.14991,-0.86932c0.46451,-0.35827 1.13451,-0.9884 1.68364,-1.52408c0.53739,-0.52423 1.5179,-0.75451 2.31689,-0.46357c1.59707,0.58154 4.15344,1.51239 5.12303,1.86546c0.73837,0.26887 1.98867,1.29035 2.34806,1.98262c0.21464,0.41347 0.44373,0.83048 0.6279,1.10779c0.26593,0.40041 0.69293,0.95138 1.09754,1.45436c0.55352,0.68808 1.04735,2.13711 1.03011,2.96157c-0.04861,2.32491 -0.27854,13.32147 -0.27854,13.32147z" fill="#1c3845" stroke="none" stroke-width="0" stroke-linecap="butt"/><path d="M403.2324,92.46144c0,0 0.19544,-9.34706 0.23791,-11.37816c0.01553,-0.74273 0.4457,-1.84358 0.94101,-2.23503c0.34434,-0.27215 0.72805,-0.57782 1.03939,-0.83209c0.41987,-0.34291 1.02562,-0.94588 1.5221,-1.45844c0.48587,-0.50161 1.37159,-0.72276 2.0928,-0.4456c1.44159,0.55403 3.74909,1.44084 4.62431,1.7772c0.66649,0.25614 1.79445,1.231 2.11824,1.89223c0.19339,0.39492 0.3998,0.79322 0.56581,1.05804c0.23971,0.38237 0.6247,0.90849 0.98954,1.38874c0.4991,0.657 0.94346,2.04132 0.92699,2.82929c-0.04646,2.222 -0.05557,12.22501 -0.05557,12.22501z" fill="#2d5368" stroke="none" stroke-width="0" stroke-linecap="butt"/><path d="M416.81238,98.47745c0,0 -4.21619,1.45997 -5.72502,1.98244c-0.98644,0.34157 -1.23555,0.0197 -0.48463,-0.49331c1.01171,-0.69117 3.56216,-2.43358 3.56216,-2.43358l2.6475,0.94444z" fill="#0c1b1e" stroke="none" stroke-width="0" stroke-linecap="butt"/><g fill="none" stroke-linecap="round"><path d="M420.95502,83.59238c0,0 -0.60666,3.20996 -2.9584,5.92614c-0.80499,0.92973 -2.85404,0.50094 -4.0479,1.75093c-2.33127,2.4409 -1.06386,3.01145 -2.87321,4.83987c-1.88062,1.90045 -4.85599,2.05505 -6.74853,3.64548c-1.48753,1.25008 -2.48188,2.62996 -3.0823,3.63594c-0.51275,0.85909 -0.91471,0.82258 -1.02296,-0.04599c-0.15605,-1.25219 -0.17023,-3.01495 0.69085,-4.15791c0.81763,-1.08528 2.50273,-3.04945 3.17425,-4.52041c0.55437,-1.21436 0.71932,-6.19693 -0.44626,-10.31247c-1.03448,-3.65259 -0.42089,-5.6334 -0.42089,-5.6334" stroke="#333c3e" stroke-width="2.5"/><path d="M420.95502,83.59238c0,0 -0.60666,3.20996 -2.9584,5.92614c-0.80499,0.92973 -2.85404,0.50094 -4.0479,1.75093c-2.33127,2.4409 -1.06386,3.01145 -2.87321,4.83987c-1.88062,1.90045 -4.85599,2.05505 -6.74853,3.64548c-1.67083,1.40412 -2.71944,2.97201 -3.2865,3.98985c-0.36891,0.66219 -0.6603,0.64586 -0.76475,-0.01723c-0.19703,-1.25091 -0.31629,-3.27544 0.63683,-4.54058c0.81763,-1.08528 2.50273,-3.04945 3.17425,-4.52041c0.55437,-1.21436 0.71933,-6.19694 -0.44626,-10.31248c-1.03447,-3.65258 -0.42089,-5.63339 -0.42089,-5.63339" stroke="#6b7a7b" stroke-width="1"/></g></g><g><path d="M393.41877,96.15767c-1.23813,0.70832 -2.97548,1.26228 -5.06883,1.24683c-1.43166,-0.01056 -3.02983,-0.28745 -4.7487,-0.96343c-1.66598,-0.65518 -5.44622,-1.8083 -8.29031,-3.22441c-3.96517,-1.97431 -2.20484,-2.90898 -0.82123,-3.67415c1.92184,-1.06282 6.88691,-3.80861 6.88691,-3.80861l16.68353,4.68311c0,0 1.24254,1.76348 -0.93502,3.46138c-0.66719,0.52022 -3.70635,2.27927 -3.70635,2.27927z" fill="#1c3845" stroke="#0c1b1e" stroke-width="5.3" stroke-linecap="butt"/><path d="M393.41877,96.15767c-1.23813,0.70832 -2.97548,1.26228 -5.06883,1.24683c-1.43166,-0.01056 -3.02983,-0.28745 -4.7487,-0.96343c-1.66598,-0.65518 -5.44622,-1.8083 -8.29031,-3.22441c-3.96517,-1.97431 -2.20484,-2.90898 -0.82123,-3.67415c1.92184,-1.06282 6.88691,-3.80861 6.88691,-3.80861l16.68353,4.68311c0,0 1.24254,1.76348 -0.93502,3.46138c-0.66719,0.52022 -3.70635,2.27927 -3.70635,2.27927z" fill="#1c3845" stroke="none" stroke-width="0" stroke-linecap="butt"/><path d="M392.16188,96.1314c-1.16366,0.70987 -2.79595,1.26603 -4.76184,1.25324c-1.34449,-0.00875 -2.84501,-0.28359 -4.45838,-0.95736c-1.56371,-0.65304 -5.11234,-1.80132 -7.78149,-3.21377c-3.72127,-1.9692 -2.06691,-2.90609 -0.76657,-3.673c1.80619,-1.06524 6.47249,-3.81728 6.47249,-3.81728l15.66189,4.66175c0,0 1.16466,1.76186 -0.8825,3.46248c-0.62723,0.52105 -2.27652,1.54756 -3.48361,2.28393z" fill="#2d5368" stroke="none" stroke-width="0" stroke-linecap="butt"/><path d="M382.15915,83.78664c0,0 0.1744,-8.34095 0.22472,-10.74765c0.02545,-1.21727 1.37344,-3.71642 2.21331,-4.36417c0.32888,-0.25365 0.76077,-0.64359 1.17983,-1.03981c0.75206,-0.71106 2.24203,-1.15856 2.89535,-0.92066c1.41483,0.51518 6.7181,2.44628 6.7181,2.44628c0,0 0.81368,1.74079 1.30622,2.4824c0.25772,0.38806 0.66675,0.91756 1.06007,1.40771c0.56769,0.70746 1.07766,2.52644 1.05558,3.58248c-0.05256,2.51389 -0.26653,12.74721 -0.26653,12.74721z" fill="#2d5368" stroke="#0c1b1e" stroke-width="5" stroke-linecap="butt"/><path d="M382.15915,83.78664c0,0 0.20449,-9.77995 0.24892,-11.90511c0.01625,-0.77712 0.4912,-1.92843 1.03918,-2.3374c0.38097,-0.28433 0.80548,-0.60367 1.14991,-0.86932c0.46451,-0.35827 1.13451,-0.9884 1.68364,-1.52409c0.53739,-0.52423 1.5179,-0.75451 2.31688,-0.46357c1.59707,0.58154 4.15344,1.5124 5.12303,1.86547c0.73837,0.26887 1.98867,1.29034 2.34806,1.98262c0.21464,0.41347 0.44373,0.83048 0.6279,1.10779c0.26593,0.40041 0.69294,0.95138 1.09755,1.45436c0.55352,0.68808 1.04734,2.13711 1.0301,2.96157c-0.04861,2.32491 -0.27854,13.32147 -0.27854,13.32147z" fill="#1c3845" stroke="none" stroke-width="0" stroke-linecap="butt"/><path d="M382.15429,84.01897c0,0 0.19544,-9.34706 0.23791,-11.37816c0.01553,-0.74273 0.44569,-1.84358 0.941,-2.23503c0.34434,-0.27215 0.72806,-0.57781 1.03939,-0.83208c0.41987,-0.34291 1.02562,-0.94588 1.5221,-1.45844c0.48587,-0.50161 1.37159,-0.72276 2.09279,-0.4456c1.44159,0.55403 3.74909,1.44084 4.62431,1.7772c0.66649,0.25614 1.79445,1.231 2.11823,1.89223c0.19339,0.39492 0.3998,0.79322 0.56581,1.05804c0.23971,0.38237 0.6247,0.90849 0.98954,1.38874c0.4991,0.657 0.94346,2.04132 0.92699,2.82929c-0.04646,2.222 -0.05557,12.22501 -0.05557,12.22501z" fill="#2d5368" stroke="none" stroke-width="0" stroke-linecap="butt"/><path d="M395.73426,90.03498c0,0 -4.21619,1.45997 -5.72503,1.98244c-0.98644,0.34157 -1.23555,0.0197 -0.48463,-0.49331c1.01171,-0.69117 3.56216,-2.43358 3.56216,-2.43358l2.64751,0.94444z" fill="#0c1b1e" stroke="none" stroke-width="0" stroke-linecap="butt"/><g fill="none" stroke-linecap="round"><path d="M399.8769,75.14991c0,0 -0.60666,3.20996 -2.9584,5.92614c-0.80499,0.92973 -2.85404,0.50094 -4.0479,1.75093c-2.33127,2.4409 -1.06386,3.01145 -2.87321,4.83988c-1.88062,1.90045 -4.85599,2.05504 -6.74853,3.64548c-1.48753,1.25008 -2.48188,2.62996 -3.0823,3.63594c-0.51275,0.85909 -0.91472,0.82258 -1.02296,-0.046c-0.15605,-1.25219 -0.17023,-3.01495 0.69085,-4.15791c0.81763,-1.08528 2.50273,-3.04945 3.17425,-4.52041c0.55437,-1.21436 0.71932,-6.19693 -0.44626,-10.31247c-1.03448,-3.65259 -0.42089,-5.6334 -0.42089,-5.6334" stroke="#333c3e" stroke-width="2.5"/><path d="M399.8769,75.14991c0,0 -0.60666,3.20996 -2.9584,5.92614c-0.80499,0.92973 -2.85404,0.50094 -4.0479,1.75093c-2.33127,2.4409 -1.06386,3.01145 -2.87321,4.83988c-1.88062,1.90045 -4.85599,2.05504 -6.74853,3.64548c-1.67083,1.40412 -2.71944,2.97201 -3.28651,3.98985c-0.36891,0.66219 -0.6603,0.64586 -0.76475,-0.01723c-0.19703,-1.25091 -0.31629,-3.27544 0.63684,-4.54058c0.81763,-1.08528 2.50273,-3.04945 3.17425,-4.52041c0.55437,-1.21436 0.71933,-6.19694 -0.44626,-10.31248c-1.03447,-3.65258 -0.42089,-5.63339 -0.42089,-5.63339" stroke="#6b7a7b" stroke-width="1"/></g></g><g><g><path d="M372.08026,88.20987c-1.23813,0.70832 -2.97548,1.26228 -5.06883,1.24683c-1.43166,-0.01056 -3.02984,-0.28745 -4.7487,-0.96343c-1.66598,-0.65518 -5.44622,-1.8083 -8.29031,-3.22441c-3.96517,-1.97431 -2.20484,-2.90898 -0.82123,-3.67415c1.92184,-1.06282 6.88691,-3.80861 6.88691,-3.80861l16.68353,4.68311c0,0 1.24254,1.76348 -0.93502,3.46138c-0.66719,0.52022 -3.70635,2.27928 -3.70635,2.27928z" fill="#1c3845" stroke="#0c1b1e" stroke-width="5.3" stroke-linecap="butt"/><path d="M372.08026,88.20987c-1.23813,0.70832 -2.97548,1.26228 -5.06883,1.24683c-1.43166,-0.01056 -3.02984,-0.28745 -4.7487,-0.96343c-1.66598,-0.65518 -5.44622,-1.8083 -8.29031,-3.22441c-3.96517,-1.97431 -2.20484,-2.90898 -0.82123,-3.67415c1.92184,-1.06282 6.88691,-3.80861 6.88691,-3.80861l16.68353,4.68311c0,0 1.24254,1.76348 -0.93502,3.46138c-0.66719,0.52022 -3.70635,2.27928 -3.70635,2.27928z" fill="#1c3845" stroke="none" stroke-width="0" stroke-linecap="butt"/><path d="M370.82336,88.1836c-1.16366,0.70987 -2.79594,1.26603 -4.76184,1.25324c-1.34449,-0.00875 -2.84502,-0.28359 -4.45838,-0.95736c-1.56371,-0.65304 -5.11234,-1.80132 -7.78149,-3.21377c-3.72127,-1.9692 -2.06691,-2.90609 -0.76657,-3.673c1.80619,-1.06524 6.4725,-3.81728 6.4725,-3.81728l15.66189,4.66175c0,0 1.16466,1.76186 -0.8825,3.46248c-0.62723,0.52105 -2.27652,1.54756 -3.48361,2.28393z" fill="#2d5368" stroke="none" stroke-width="0" stroke-linecap="butt"/><path d="M360.82063,75.83883c0,0 0.1744,-8.34095 0.22472,-10.74765c0.02545,-1.21727 1.37344,-3.71642 2.2133,-4.36417c0.32888,-0.25365 0.76077,-0.64359 1.17984,-1.03981c0.75206,-0.71106 2.24203,-1.15856 2.89535,-0.92066c1.41483,0.51518 6.7181,2.44628 6.7181,2.44628c0,0 0.81368,1.74079 1.30622,2.4824c0.25772,0.38806 0.66675,0.91756 1.06007,1.40771c0.56769,0.70746 1.07766,2.52644 1.05558,3.58248c-0.05256,2.51389 -0.26653,12.74721 -0.26653,12.74721z" fill="#2d5368" stroke="#0c1b1e" stroke-width="5" stroke-linecap="butt"/><path d="M360.82063,75.83883c0,0 0.20449,-9.77995 0.24892,-11.90511c0.01625,-0.77712 0.4912,-1.92843 1.03918,-2.3374c0.38097,-0.28433 0.80548,-0.60367 1.14991,-0.86932c0.46451,-0.35827 1.13451,-0.9884 1.68364,-1.52409c0.53739,-0.52423 1.5179,-0.75451 2.31689,-0.46357c1.59707,0.58154 4.15343,1.51239 5.12303,1.86546c0.73837,0.26887 1.98867,1.29035 2.34806,1.98262c0.21464,0.41347 0.44373,0.83048 0.6279,1.10779c0.26593,0.40041 0.69294,0.95138 1.09755,1.45436c0.55352,0.68808 1.04734,2.13711 1.0301,2.96157c-0.04861,2.32491 -0.27854,13.32147 -0.27854,13.32147z" fill="#1c3845" stroke="none" stroke-width="0" stroke-linecap="butt"/><path d="M360.81577,76.07116c0,0 0.19544,-9.34706 0.23791,-11.37816c0.01553,-0.74273 0.44569,-1.84358 0.941,-2.23503c0.34434,-0.27215 0.72806,-0.57782 1.03939,-0.83209c0.41987,-0.34291 1.02562,-0.94588 1.5221,-1.45844c0.48587,-0.50161 1.37159,-0.72276 2.09279,-0.4456c1.44159,0.55403 3.74909,1.44084 4.62431,1.7772c0.66649,0.25614 1.79445,1.231 2.11823,1.89223c0.19339,0.39492 0.3998,0.79322 0.56581,1.05804c0.23971,0.38237 0.6247,0.90849 0.98954,1.38874c0.4991,0.657 0.94346,2.04132 0.92699,2.82929c-0.04646,2.222 -0.05557,12.22501 -0.05557,12.22501z" fill="#2d5368" stroke="none" stroke-width="0" stroke-linecap="butt"/><path d="M374.39574,82.08717c0,0 -4.21619,1.45997 -5.72503,1.98244c-0.98644,0.34157 -1.23555,0.0197 -0.48463,-0.49331c1.01171,-0.69117 3.56216,-2.43358 3.56216,-2.43358l2.64751,0.94444z" fill="#0c1b1e" stroke="none" stroke-width="0" stroke-linecap="butt"/><g fill="none" stroke-linecap="round"><path d="M378.53838,67.20212c0,0 -0.60666,3.20996 -2.9584,5.92614c-0.80499,0.92973 -2.85404,0.50094 -4.0479,1.75093c-2.33127,2.4409 -1.06386,3.01145 -2.87321,4.83987c-1.88062,1.90045 -4.85599,2.05505 -6.74853,3.64548c-1.48753,1.25008 -2.48188,2.62996 -3.0823,3.63594c-0.51275,0.85909 -0.91471,0.82258 -1.02296,-0.04599c-0.15605,-1.25219 -0.17023,-3.01495 0.69085,-4.15791c0.81763,-1.08528 2.50273,-3.04945 3.17425,-4.52041c0.55437,-1.21436 0.71932,-6.19693 -0.44626,-10.31247c-1.03448,-3.65259 -0.42089,-5.6334 -0.42089,-5.6334" stroke="#333c3e" stroke-width="2.5"/><path d="M378.53838,67.20212c0,0 -0.60666,3.20996 -2.9584,5.92614c-0.80499,0.92973 -2.85404,0.50094 -4.0479,1.75093c-2.33127,2.4409 -1.06386,3.01145 -2.87321,4.83987c-1.88062,1.90045 -4.85599,2.05505 -6.74853,3.64548c-1.67083,1.40412 -2.71944,2.97201 -3.28651,3.98985c-0.36891,0.66219 -0.6603,0.64586 -0.76475,-0.01723c-0.19703,-1.25091 -0.31629,-3.27544 0.63684,-4.54058c0.81763,-1.08528 2.50273,-3.04945 3.17425,-4.52041c0.55437,-1.21436 0.71933,-6.19694 -0.44626,-10.31248c-1.03447,-3.65258 -0.42089,-5.63339 -0.42089,-5.63339" stroke="#6b7a7b" stroke-width="1"/></g></g><g><path d="M351.00213,79.76739c-1.23813,0.70832 -2.97548,1.26228 -5.06883,1.24683c-1.43166,-0.01056 -3.02983,-0.28745 -4.7487,-0.96343c-1.66598,-0.65518 -5.44622,-1.8083 -8.29031,-3.22441c-3.96517,-1.97431 -2.20484,-2.90898 -0.82124,-3.67415c1.92184,-1.06282 6.88691,-3.80861 6.88691,-3.80861l16.68353,4.68311c0,0 1.24254,1.76348 -0.93502,3.46138c-0.66719,0.52022 -3.70635,2.27927 -3.70635,2.27927z" fill="#1c3845" stroke="#0c1b1e" stroke-width="5.3" stroke-linecap="butt"/><path d="M351.00213,79.76739c-1.23813,0.70832 -2.97548,1.26228 -5.06883,1.24683c-1.43166,-0.01056 -3.02983,-0.28745 -4.7487,-0.96343c-1.66598,-0.65518 -5.44622,-1.8083 -8.29031,-3.22441c-3.96517,-1.97431 -2.20484,-2.90898 -0.82124,-3.67415c1.92184,-1.06282 6.88691,-3.80861 6.88691,-3.80861l16.68353,4.68311c0,0 1.24254,1.76348 -0.93502,3.46138c-0.66719,0.52022 -3.70635,2.27927 -3.70635,2.27927z" fill="#1c3845" stroke="none" stroke-width="0" stroke-linecap="butt"/><path d="M349.74524,79.74111c-1.16366,0.70987 -2.79594,1.26603 -4.76184,1.25324c-1.34449,-0.00875 -2.84501,-0.28359 -4.45838,-0.95736c-1.56371,-0.65304 -5.11234,-1.80132 -7.78149,-3.21377c-3.72127,-1.9692 -2.06691,-2.90609 -0.76656,-3.673c1.80619,-1.06524 6.47249,-3.81728 6.47249,-3.81728l15.66189,4.66175c0,0 1.16466,1.76186 -0.8825,3.46248c-0.62723,0.52105 -2.27652,1.54756 -3.48362,2.28394z" fill="#2d5368" stroke="none" stroke-width="0" stroke-linecap="butt"/><path d="M339.74251,67.39636c0,0 0.1744,-8.34095 0.22472,-10.74765c0.02545,-1.21727 1.37344,-3.71642 2.2133,-4.36417c0.32888,-0.25365 0.76077,-0.64359 1.17984,-1.03981c0.75206,-0.71106 2.24203,-1.15856 2.89535,-0.92066c1.41483,0.51518 6.7181,2.44628 6.7181,2.44628c0,0 0.81368,1.74079 1.30622,2.4824c0.25772,0.38806 0.66675,0.91756 1.06007,1.40771c0.56769,0.70746 1.07766,2.52644 1.05558,3.58248c-0.05256,2.51389 -0.26653,12.74721 -0.26653,12.74721z" fill="#2d5368" stroke="#0c1b1e" stroke-width="5" stroke-linecap="butt"/><path d="M339.74251,67.39636c0,0 0.20449,-9.77995 0.24893,-11.90511c0.01625,-0.77712 0.4912,-1.92843 1.03918,-2.3374c0.38097,-0.28433 0.80547,-0.60367 1.14991,-0.86932c0.46451,-0.35827 1.13451,-0.9884 1.68364,-1.52409c0.53739,-0.52423 1.5179,-0.75451 2.31689,-0.46357c1.59707,0.58154 4.15344,1.5124 5.12303,1.86547c0.73837,0.26887 1.98867,1.29034 2.34806,1.98262c0.21464,0.41347 0.44373,0.83048 0.6279,1.10779c0.26593,0.40041 0.69294,0.95139 1.09755,1.45436c0.55352,0.68808 1.04735,2.13711 1.03011,2.96157c-0.04861,2.32491 -0.27854,13.32147 -0.27854,13.32147z" fill="#1c3845" stroke="none" stroke-width="0" stroke-linecap="butt"/><path d="M339.73764,67.62869c0,0 0.19544,-9.34706 0.23791,-11.37815c0.01553,-0.74273 0.4457,-1.84359 0.94101,-2.23504c0.34434,-0.27215 0.72805,-0.57781 1.03939,-0.83208c0.41987,-0.34291 1.02562,-0.94588 1.5221,-1.45844c0.48587,-0.50161 1.37159,-0.72276 2.0928,-0.4456c1.44159,0.55403 3.74909,1.44084 4.62431,1.7772c0.66649,0.25614 1.79445,1.231 2.11824,1.89223c0.19339,0.39492 0.3998,0.79322 0.56581,1.05804c0.23971,0.38237 0.6247,0.90849 0.98954,1.38874c0.4991,0.657 0.94346,2.04132 0.92699,2.82929c-0.04646,2.222 -0.05557,12.22501 -0.05557,12.22501z" fill="#2d5368" stroke="none" stroke-width="0" stroke-linecap="butt"/><path d="M353.31762,73.6447c0,0 -4.21619,1.45997 -5.72502,1.98244c-0.98644,0.34157 -1.23555,0.0197 -0.48463,-0.49331c1.01171,-0.69117 3.56216,-2.43358 3.56216,-2.43358l2.6475,0.94444z" fill="#0c1b1e" stroke="none" stroke-width="0" stroke-linecap="butt"/><g fill="none" stroke-linecap="round"><path d="M357.46026,58.75965c0,0 -0.60666,3.20996 -2.9584,5.92614c-0.80499,0.92973 -2.85404,0.50094 -4.0479,1.75093c-2.33127,2.4409 -1.06386,3.01145 -2.87321,4.83988c-1.88062,1.90045 -4.85599,2.05504 -6.74853,3.64548c-1.48753,1.25008 -2.48188,2.62996 -3.0823,3.63594c-0.51275,0.85909 -0.91471,0.82258 -1.02296,-0.046c-0.15605,-1.25219 -0.17023,-3.01495 0.69085,-4.15791c0.81763,-1.08528 2.50273,-3.04945 3.17425,-4.52041c0.55437,-1.21436 0.71932,-6.19693 -0.44626,-10.31247c-1.03448,-3.65259 -0.42089,-5.6334 -0.42089,-5.6334" stroke="#333c3e" stroke-width="2.5"/><path d="M357.46026,58.75965c0,0 -0.60666,3.20996 -2.9584,5.92614c-0.80499,0.92973 -2.85404,0.50094 -4.0479,1.75093c-2.33127,2.4409 -1.06386,3.01145 -2.87321,4.83988c-1.88062,1.90045 -4.85599,2.05504 -6.74853,3.64548c-1.67083,1.40412 -2.71944,2.97201 -3.2865,3.98985c-0.36891,0.66219 -0.6603,0.64586 -0.76475,-0.01723c-0.19703,-1.25091 -0.31629,-3.27544 0.63683,-4.54058c0.81763,-1.08528 2.50273,-3.04945 3.17425,-4.52041c0.55437,-1.21436 0.71933,-6.19694 -0.44626,-10.31248c-1.03447,-3.65258 -0.42089,-5.63339 -0.42089,-5.63339" stroke="#6b7a7b" stroke-width="1"/></g></g></g><g><path d="M329.90311,72.3247c-1.23813,0.70832 -2.97548,1.26228 -5.06883,1.24683c-1.43166,-0.01056 -3.02983,-0.28745 -4.7487,-0.96343c-1.66598,-0.65518 -5.44622,-1.8083 -8.29031,-3.22441c-3.96517,-1.97431 -2.20484,-2.90898 -0.82124,-3.67415c1.92184,-1.06282 6.88691,-3.80861 6.88691,-3.80861l16.68353,4.68311c0,0 1.24254,1.76348 -0.93502,3.46138c-0.66719,0.52022 -3.70635,2.27928 -3.70635,2.27928z" fill="#1c3845" stroke="#0c1b1e" stroke-width="5.3" stroke-linecap="butt"/><path d="M329.90311,72.3247c-1.23813,0.70832 -2.97548,1.26228 -5.06883,1.24683c-1.43166,-0.01056 -3.02983,-0.28745 -4.7487,-0.96343c-1.66598,-0.65518 -5.44622,-1.8083 -8.29031,-3.22441c-3.96517,-1.97431 -2.20484,-2.90898 -0.82124,-3.67415c1.92184,-1.06282 6.88691,-3.80861 6.88691,-3.80861l16.68353,4.68311c0,0 1.24254,1.76348 -0.93502,3.46138c-0.66719,0.52022 -3.70635,2.27928 -3.70635,2.27928z" fill="#1c3845" stroke="none" stroke-width="0" stroke-linecap="butt"/><path d="M328.64621,72.29842c-1.16366,0.70987 -2.79594,1.26603 -4.76184,1.25324c-1.34449,-0.00875 -2.84501,-0.28359 -4.45838,-0.95736c-1.56371,-0.65304 -5.11234,-1.80132 -7.78149,-3.21377c-3.72127,-1.9692 -2.06691,-2.90609 -0.76656,-3.673c1.80619,-1.06524 6.47249,-3.81728 6.47249,-3.81728l15.66189,4.66175c0,0 1.16466,1.76186 -0.8825,3.46248c-0.62723,0.52105 -2.27652,1.54756 -3.48362,2.28393z" fill="#2d5368" stroke="none" stroke-width="0" stroke-linecap="butt"/><path d="M318.64349,59.95367c0,0 0.1744,-8.34095 0.22472,-10.74765c0.02545,-1.21727 1.37344,-3.71642 2.2133,-4.36417c0.32888,-0.25365 0.76077,-0.64359 1.17984,-1.03981c0.75206,-0.71106 2.24203,-1.15856 2.89535,-0.92066c1.41483,0.51518 6.7181,2.44628 6.7181,2.44628c0,0 0.81368,1.74079 1.30622,2.4824c0.25772,0.38806 0.66675,0.91756 1.06007,1.40771c0.56769,0.70746 1.07766,2.52644 1.05558,3.58248c-0.05256,2.51389 -0.26653,12.74721 -0.26653,12.74721z" fill="#2d5368" stroke="#0c1b1e" stroke-width="5" stroke-linecap="butt"/><path d="M318.64349,59.95367c0,0 0.20449,-9.77995 0.24893,-11.90511c0.01625,-0.77712 0.4912,-1.92843 1.03918,-2.3374c0.38097,-0.28433 0.80547,-0.60367 1.14991,-0.86932c0.46451,-0.35827 1.13451,-0.9884 1.68364,-1.52409c0.53739,-0.52423 1.5179,-0.75451 2.31689,-0.46357c1.59707,0.58154 4.15344,1.51239 5.12303,1.86546c0.73837,0.26887 1.98867,1.29035 2.34806,1.98262c0.21464,0.41347 0.44373,0.83048 0.6279,1.10779c0.26593,0.40041 0.69294,0.95138 1.09755,1.45436c0.55352,0.68808 1.04734,2.13711 1.0301,2.96157c-0.04861,2.32491 -0.27854,13.32147 -0.27854,13.32147z" fill="#1c3845" stroke="none" stroke-width="0" stroke-linecap="butt"/><path d="M318.63862,60.186c0,0 0.19544,-9.34706 0.23791,-11.37816c0.01553,-0.74273 0.4457,-1.84358 0.94101,-2.23503c0.34434,-0.27215 0.72805,-0.57782 1.03939,-0.83209c0.41987,-0.34291 1.02562,-0.94588 1.5221,-1.45844c0.48587,-0.50161 1.37159,-0.72276 2.0928,-0.4456c1.44159,0.55403 3.74909,1.44084 4.62431,1.7772c0.66649,0.25614 1.79445,1.231 2.11824,1.89223c0.19339,0.39492 0.3998,0.79322 0.56581,1.05804c0.23971,0.38237 0.6247,0.90849 0.98954,1.38874c0.4991,0.657 0.94346,2.04132 0.92699,2.82929c-0.04646,2.222 -0.05557,12.22501 -0.05557,12.22501z" fill="#2d5368" stroke="none" stroke-width="0" stroke-linecap="butt"/><path d="M332.21859,66.20201c0,0 -4.21619,1.45997 -5.72502,1.98244c-0.98644,0.34157 -1.23555,0.0197 -0.48463,-0.49331c1.01171,-0.69117 3.56216,-2.43358 3.56216,-2.43358l2.6475,0.94444z" fill="#0c1b1e" stroke="none" stroke-width="0" stroke-linecap="butt"/><g fill="none" stroke-linecap="round"><path d="M336.36124,51.31696c0,0 -0.60666,3.20996 -2.9584,5.92614c-0.80499,0.92973 -2.85404,0.50094 -4.0479,1.75093c-2.33127,2.4409 -1.06386,3.01145 -2.87321,4.83987c-1.88062,1.90045 -4.85599,2.05505 -6.74853,3.64548c-1.48753,1.25008 -2.48188,2.62996 -3.0823,3.63594c-0.51275,0.85909 -0.91471,0.82258 -1.02296,-0.04599c-0.15605,-1.25219 -0.17023,-3.01495 0.69085,-4.15791c0.81763,-1.08528 2.50273,-3.04945 3.17425,-4.52041c0.55437,-1.21436 0.71932,-6.19693 -0.44626,-10.31247c-1.03448,-3.65259 -0.42089,-5.6334 -0.42089,-5.6334" stroke="#333c3e" stroke-width="2.5"/><path d="M336.36124,51.31696c0,0 -0.60666,3.20996 -2.9584,5.92614c-0.80499,0.92973 -2.85404,0.50094 -4.0479,1.75093c-2.33127,2.4409 -1.06386,3.01145 -2.87321,4.83987c-1.88062,1.90045 -4.85599,2.05505 -6.74853,3.64548c-1.67083,1.40412 -2.71944,2.97201 -3.2865,3.98985c-0.36891,0.66219 -0.6603,0.64586 -0.76475,-0.01723c-0.19703,-1.25091 -0.31629,-3.27544 0.63683,-4.54058c0.81763,-1.08528 2.50273,-3.04945 3.17425,-4.52041c0.55437,-1.21436 0.71933,-6.19694 -0.44626,-10.31248c-1.03447,-3.65258 -0.42089,-5.63339 -0.42089,-5.63339" stroke="#6b7a7b" stroke-width="1"/></g></g></g><path d="M199.64483,63.03368c0,-7.22673 0,-33.34607 0,-42.91863c0,-4.77783 2.45265,-7.51301 3.3047,-8.44908c0.62463,-0.68623 1.32489,-1.44529 2.08943,-2.25854c0.91996,-0.97856 1.79045,-1.78624 2.55175,-2.43385c0.33631,-0.28608 3.94213,-2.0562 5.30875,-2.04575c4.84746,0.03708 33.57914,0.05913 45.6128,0.10742c1.49729,0.00601 6.06302,0.72436 7.26714,1.55283c1.06246,0.731 2.46576,1.76262 3.98425,3.05623c1.0002,0.85209 1.92545,1.70695 2.73192,2.48765c0.68583,0.66392 3.14925,4.70728 3.14925,7.64976c0,8.90152 0,33.77216 0,42.25195c0,4.81151 -4.68355,6.94186 -4.68355,6.94186c0,0 -0.55603,-0.00056 -1.56588,-0.00156c-9.40944,-0.00938 -58.21895,-0.05803 -63.75044,-0.06355c-1.00263,-0.001 -6.00012,-0.18034 -6.00012,-5.87674z" fill="#35393c" stroke="#000000" stroke-width="5" stroke-linecap="butt"/><path d="M199.64483,63.21922c0,-7.00106 0,-32.30478 0,-41.57842c0,-4.62863 2.45265,-7.2784 3.3047,-8.18524c0.62463,-0.6648 1.32489,-1.40016 2.08943,-2.18801c0.91997,-0.94801 1.79044,-1.73047 2.55174,-2.35786c0.33631,-0.27714 3.94213,-1.99198 5.30876,-1.98186c4.84746,0.03592 33.57914,0.05728 45.6128,0.10406c1.49729,0.00582 6.06302,0.70174 7.26714,1.50434c1.06246,0.70818 2.46576,1.70758 3.98425,2.96079c1.0002,0.82548 1.92545,1.65364 2.73192,2.40996c0.68583,0.64319 3.14925,4.56029 3.14925,7.41089c0,8.62356 0,32.71756 0,40.93256c0,4.75494 -4.68355,6.72509 -4.68355,6.72509c0,0 -0.55603,-0.00054 -1.56588,-0.00151c-9.40944,-0.00908 -58.21895,-0.05621 -63.75044,-0.06157c-1.00263,-0.00097 -6.00012,-0.36753 -6.00012,-5.69323z" fill="#35393c" stroke="none" stroke-width="0" stroke-linecap="butt"/><path d="M262.25856,15.6036c0.97194,0.74958 2.00023,1.60874 2.75538,2.40845c0.64949,0.6878 1.3298,1.57819 1.94658,2.45685c1.21549,1.73159 2.18425,5.65704 2.18425,8.97502c0,8.31863 0,23.41675 0,27c0,1.50517 -1.8554,5.55653 -3.20125,7.05402c-1.61485,1.7968 -5.82869,5.9291 -5.82869,5.9291l-45.75637,0.05658c0,0 -5.0128,-5.52746 -6.60001,-7.27762c-0.89562,-0.98758 -2.10151,-3.64399 -2.10151,-5.76207c0,-7.19772 0,-23.53401 0,-28c0,-2.20053 0.24671,-5.45619 1.58757,-7.32143c0.57792,-0.80393 1.3591,-1.78741 2.41139,-2.95584c0.99613,-1.10607 1.8123,-1.95216 2.47333,-2.59814c1.80112,-1.7601 4.09767,-2.03447 5.86685,-2.03434c4.81131,0.00036 27.36933,0.00208 37,0.00282c2.69357,0.00021 5.75105,0.90098 7.26246,2.06661z" fill="url(#color-6)" stroke="none" stroke-width="0" stroke-linecap="butt"/><g fill="none" stroke-width="3" stroke-linecap="round"><path d="M237.20834,13.35001c0,0 0.16666,11.2393 0.16666,13.35c0,0.59752 0.17421,1.32421 0.45,1.6c0.8881,0.8881 2.82964,2.82964 3.4,3.4c0.30713,0.30714 0.6423,1.08451 0.63315,1.60058c-0.03291,1.8563 -0.22989,12.96711 -0.29971,16.90533c-0.01532,0.86407 -0.52576,1.90996 -0.90872,2.31268c-0.49196,0.51734 -1.76149,1.85237 -2.49533,2.62407c-0.32558,0.34238 -0.55707,1.21216 -0.5685,1.85486c-0.03478,1.95498 -0.21088,11.85247 -0.21088,11.85247" stroke="#2a3038"/><path d="M237.23333,68.85001c0,0 -0.13682,-9.89749 -0.16385,-11.85247c-0.00888,-0.6427 -0.18874,-1.51248 -0.4417,-1.85486c-0.57016,-0.7717 -1.55652,-2.10673 -1.93875,-2.62407c-0.29755,-0.40272 -0.69412,-1.44861 -0.70603,-2.31268c-0.05425,-3.93822 -0.20729,-15.04903 -0.23286,-16.90533c-0.00711,-0.51607 0.25329,-1.29345 0.49192,-1.60058c0.44314,-0.57036 1.95163,-2.5119 2.64164,-3.4c0.21428,-0.27579 0.34963,-1.00248 0.34963,-1.6c0,-2.1107 -0.16667,-13.18334 -0.16667,-13.18334" data-paper-data="{&quot;index&quot;:null}" stroke="#61666f"/><path d="M237.23333,68.85001c0,0 -0.1761,-9.89749 -0.21088,-11.85247c-0.01144,-0.6427 -0.24292,-1.51248 -0.5685,-1.85486c-0.73384,-0.7717 -2.00337,-2.10673 -2.49533,-2.62407c-0.38297,-0.40272 -0.8934,-1.44861 -0.90872,-2.31268c-0.06982,-3.93822 -0.2668,-15.04903 -0.29971,-16.90533c-0.00915,-0.51607 0.32601,-1.29345 0.63315,-1.60058c0.57036,-0.57036 2.5119,-2.5119 3.4,-3.4c0.27579,-0.27579 0.45,-1.00248 0.45,-1.6c0,-1.60579 0,-9.07392 0,-12.55503" data-paper-data="{&quot;index&quot;:null}" stroke="#2a3038"/><path d="M234.57826,69.47513c-0.05186,-3.23322 -0.15506,-9.66605 -0.18081,-11.27124c-0.01144,-0.71285 -0.24292,-1.67755 -0.5685,-2.0573c-0.73384,-0.85592 -2.00337,-2.33667 -2.49533,-2.91048c-0.38297,-0.44667 -0.8934,-1.60672 -0.90872,-2.56509c-0.06982,-4.36805 -0.2668,-16.69155 -0.29971,-18.75045c-0.00915,-0.5724 0.32601,-1.43463 0.63315,-1.77528c0.57036,-0.63261 2.5119,-2.78607 3.4,-3.7711c0.27579,-0.30589 0.45,-1.11189 0.45,-1.77463c0,-1.345 0,-6.39812 0,-10.4546" data-paper-data="{&quot;index&quot;:null}" stroke="#474d55"/><path d="M240.29167,14.14498c0,4.05648 0,9.1096 0,10.4546c0,0.66274 0.17421,1.46874 0.45,1.77463c0.8881,0.98503 2.82964,3.13849 3.4,3.7711c0.30714,0.34065 0.6423,1.20288 0.63315,1.77528c-0.03291,2.05891 -0.22989,14.3824 -0.29971,18.75045c-0.01532,0.95838 -0.52575,2.11842 -0.90872,2.56509c-0.49196,0.57381 -1.76149,2.05455 -2.49533,2.91048c-0.32558,0.37975 -0.55706,1.34446 -0.5685,2.0573c-0.02575,1.60518 -0.12894,8.03802 -0.1808,11.27124" data-paper-data="{&quot;index&quot;:null}" stroke="#474d55"/><path d="M234.54722,31.97831l2.33333,-2.16666" stroke="#61666f"/><path d="M239.71389,51.97831l-2.33334,2.5" stroke="#383c44"/></g><path d="M262.25856,15.60359c0.97194,0.74958 2.00023,1.60874 2.75538,2.40845c0.64949,0.6878 1.3298,1.57819 1.94658,2.45685c0.61795,0.88032 1.17212,2.32768 1.56765,3.97397c0.38247,1.59194 0.6166,3.36991 0.6166,5.00105c0,8.31863 0.18342,23.42145 0,27c-0.5,9.75517 -9.02994,12.98312 -9.02994,12.98312l-45.75637,0.05658c0,0 -8.70152,-3.87229 -8.70152,-13.03969c0,-7.19772 0,-23.53401 0,-28c0,-2.20053 0.24671,-5.45619 1.58757,-7.32143c0.57792,-2.30393 4.22369,-4.908 4.88472,-5.55398c1.80112,-1.7601 4.09767,-2.03447 5.86685,-2.03434c4.81131,0.00036 27.36933,0.00208 37,0.00282c2.69357,0.00021 5.75105,0.90098 7.26246,2.06661z" fill="none" stroke="#000000" stroke-width="2.5" stroke-linecap="butt"/><path d="M425.99608,-62.78141v354.84257c0,0 -15.55066,19.99525 -20.60956,26.50006c-2.94817,3.7908 -6.99942,8.99995 -6.99942,8.99995l-327.06833,-3.02598l-25.33092,-32.74975c0,0 0.13829,-322.734 0.19751,-353.34257" fill="none" stroke="#000000" stroke-width="3.5" stroke-linecap="butt"/></g></g></svg>