<svg version="1.1" viewBox="0.0 0.0 960.0 720.0" fill="none" stroke="none" stroke-linecap="square" stroke-miterlimit="10" xmlns:xlink="http://www.w3.org/1999/xlink" xmlns="http://www.w3.org/2000/svg"><clipPath id="p.0"><path d="m0 0l960.0 0l0 720.0l-960.0 0l0 -720.0z" clip-rule="nonzero"/></clipPath><g clip-path="url(#p.0)"><path fill="#000000" fill-opacity="0.0" d="m0 0l960.0 0l0 720.0l-960.0 0z" fill-rule="evenodd"/><path fill="#000000" fill-opacity="0.0" d="m34.923885 266.06036l948.1575 0l0 92.09448l-948.1575 0z" fill-rule="evenodd"/><path fill="#000000" d="m473.99188 283.901l0 -0.78125q0 -2.046875 0.84375 -2.734375q0.859375 -0.6875 2.4375 -0.6875q2.53125 0 2.53125 1.140625q0 0.359375 -0.234375 0.640625q-0.234375 0.265625 -0.640625 0.265625q-0.078125 0 -0.515625 -0.0625q-0.4375 -0.0625 -0.5 -0.0625q-0.5625 0 -0.921875 0.296875q-0.34375 0.296875 -0.34375 1.34375l0 0.640625l0.6875 0q1.5 0 1.5 0.9375q0 0.453125 -0.296875 0.71875q-0.28125 0.265625 -1.203125 0.265625l-0.6875 0l0 6.46875q0 0.75 -0.0625 1.140625q-0.0625 0.390625 -0.359375 0.734375q-0.28125 0.34375 -0.90625 0.34375q-0.625 0 -0.984375 -0.421875q-0.34375 -0.421875 -0.34375 -1.796875l0 -6.46875l-0.75 0q-1.203125 0 -1.203125 -0.984375q0 -0.9375 1.328125 -0.9375l0.625 0zm12.724609 9.09375q-1.890625 1.515625 -3.71875 1.515625q-1.734375 0 -2.671875 -0.875q-0.921875 -0.890625 -0.921875 -2.15625q0 -1.09375 0.625 -1.75q0.640625 -0.671875 1.375 -0.9375q0.75 -0.265625 2.421875 -0.609375q1.671875 -0.34375 2.703125 -0.640625q-0.015625 -1.21875 -0.484375 -1.640625q-0.46875 -0.421875 -1.421875 -0.421875q-1.8125 0 -2.375 1.015625q-0.3125 0.578125 -0.5625 0.828125q-0.234375 0.234375 -0.6875 0.234375q-0.421875 0 -0.765625 -0.265625q-0.34375 -0.28125 -0.34375 -0.734375q0 -1.03125 1.125 -1.953125q1.125 -0.9375 3.53125 -0.9375q2.4375 0 3.5625 0.84375q1.140625 0.84375 1.078125 3.40625l-0.0625 2.5q-0.03125 1.171875 0.234375 1.90625q0.28125 0.71875 0.28125 1.109375q0 0.421875 -0.375 0.75q-0.359375 0.328125 -0.828125 0.328125q-0.8125 0 -1.71875 -1.515625zm-0.171875 -3.859375q-0.59375 0.234375 -1.96875 0.515625q-1.375 0.265625 -1.953125 0.625q-0.5625 0.34375 -0.5625 1.03125q0 0.5625 0.453125 1.015625q0.453125 0.4375 1.296875 0.4375q0.875 0 1.625 -0.484375q0.765625 -0.484375 0.9375 -1.140625q0.171875 -0.671875 0.171875 -2.0zm8.871094 2.265625l2.328125 -6.34375q0.34375 -0.9375 0.640625 -1.15625q0.296875 -0.234375 0.671875 -0.234375q0.53125 0 0.875 0.359375q0.359375 0.359375 0.359375 0.75q0 0.359375 -0.390625 1.34375l-2.578125 6.34375q-0.53125 1.359375 -0.921875 1.703125q-0.375 0.34375 -0.984375 0.34375q-0.765625 0 -1.125 -0.421875q-0.34375 -0.4375 -0.8125 -1.625l-2.546875 -6.28125q-0.40625 -0.953125 -0.40625 -1.359375q0 -0.421875 0.359375 -0.78125q0.375 -0.375 0.921875 -0.375q0.609375 0 0.84375 0.34375q0.25 0.34375 0.609375 1.3125l2.15625 6.078125zm11.185547 -7.734375q2.484375 0 3.90625 1.53125q1.421875 1.515625 1.421875 3.890625q0 2.375 -1.4375 3.90625q-1.4375 1.515625 -3.8125 1.515625q-2.578125 0 -3.984375 -1.546875q-1.40625 -1.546875 -1.40625 -3.875q0 -2.375 1.421875 -3.890625q1.421875 -1.53125 3.890625 -1.53125zm0 8.859375q1.21875 0 1.921875 -0.90625q0.703125 -0.921875 0.703125 -2.53125q0 -1.625 -0.703125 -2.53125q-0.703125 -0.921875 -1.921875 -0.921875q-1.1875 0 -1.90625 0.921875q-0.703125 0.921875 -0.703125 2.53125q0 1.609375 0.703125 2.53125q0.703125 0.90625 1.90625 0.90625zm7.408203 -0.234375l0 -6.828125q0 -1.796875 1.3125 -1.796875q1.265625 0 1.296875 1.65625q0.828125 -1.65625 2.296875 -1.65625q0.765625 0 1.59375 0.40625q0.828125 0.40625 0.828125 1.109375q0 0.484375 -0.34375 0.8125q-0.328125 0.3125 -0.703125 0.3125q-0.21875 0 -0.78125 -0.171875q-0.5625 -0.171875 -0.9375 -0.171875q-0.953125 0 -1.421875 0.96875q-0.46875 0.953125 -0.46875 3.71875l0 1.546875q0 1.015625 -0.09375 1.375q-0.078125 0.359375 -0.4375 0.65625q-0.34375 0.28125 -0.796875 0.28125q-0.453125 0 -0.8125 -0.265625q-0.34375 -0.265625 -0.4375 -0.609375q-0.09375 -0.359375 -0.09375 -1.34375zm10.119141 -12.46875q0.53125 0 0.90625 0.390625q0.375 0.390625 0.375 0.90625q0 0.53125 -0.375 0.921875q-0.375 0.375 -0.90625 0.375q-0.53125 0 -0.921875 -0.375q-0.375 -0.390625 -0.375 -0.921875q0 -0.53125 0.375 -0.90625q0.390625 -0.390625 0.921875 -0.390625zm1.328125 6.015625l0 6.453125q0 0.96875 -0.09375 1.328125q-0.078125 0.34375 -0.453125 0.625q-0.359375 0.265625 -0.78125 0.265625q-0.421875 0 -0.796875 -0.265625q-0.375 -0.28125 -0.46875 -0.640625q-0.078125 -0.359375 -0.078125 -1.3125l0 -6.4375q0 -0.875 0.0625 -1.234375q0.078125 -0.375 0.4375 -0.65625q0.359375 -0.296875 0.828125 -0.296875q0.46875 0 0.8125 0.265625q0.34375 0.25 0.4375 0.65625q0.09375 0.390625 0.09375 1.25zm3.1855469 -1.9375l0 -1.609375q0 -0.984375 0.078125 -1.328125q0.09375 -0.359375 0.4375 -0.640625q0.34375 -0.28125 0.8125 -0.28125q0.4375 0 0.78125 0.25q0.34375 0.25 0.453125 0.625q0.109375 0.359375 0.109375 1.171875l0 1.8125l0.515625 0q0.984375 0 1.296875 0.234375q0.328125 0.234375 0.328125 0.703125q0 0.984375 -1.640625 0.984375l-0.5 0l0 4.921875q0 1.0 0.140625 1.359375q0.140625 0.359375 0.75 0.359375q0.296875 0 0.65625 -0.078125q0.375 -0.09375 0.546875 -0.09375q0.40625 0 0.65625 0.265625q0.25 0.265625 0.25 0.640625q0 1.3125 -2.765625 1.3125q-1.34375 0 -1.96875 -0.5q-0.625 -0.5 -0.78125 -1.203125q-0.15625 -0.71875 -0.15625 -1.875l0 -5.109375l-0.34375 0q-1.1875 0 -1.1875 -0.96875q0 -0.953125 1.25 -0.953125l0.28125 0zm14.080078 5.84375l-5.234375 0q0.046875 1.484375 0.8125 2.234375q0.78125 0.75 1.875 0.75q1.328125 0 2.515625 -1.171875q0.484375 -0.484375 0.703125 -0.59375q0.234375 -0.125 0.515625 -0.125q0.359375 0 0.609375 0.234375q0.265625 0.21875 0.265625 0.546875q0 0.90625 -1.234375 1.90625q-1.21875 0.984375 -3.328125 0.984375q-2.671875 0 -4.0625 -1.515625q-1.375 -1.515625 -1.375 -3.90625q0 -2.421875 1.375 -3.921875q1.390625 -1.5 3.859375 -1.5q2.34375 0 3.625 1.421875q1.28125 1.40625 1.28125 3.0625q0 0.734375 -0.421875 1.171875q-0.421875 0.421875 -1.78125 0.421875zm-5.234375 -1.515625l4.859375 0q-0.046875 -1.328125 -0.734375 -2.03125q-0.6875 -0.703125 -1.6875 -0.703125q-2.125 0 -2.4375 2.734375z" fill-rule="nonzero"/><path fill="#000000" d="m457.9001 307.901l0 -1.609375q0 -0.984375 0.078125 -1.328125q0.09375 -0.359375 0.4375 -0.640625q0.34375 -0.28125 0.8125 -0.28125q0.4375 0 0.78125 0.25q0.34375 0.25 0.453125 0.625q0.109375 0.359375 0.109375 1.171875l0 1.8125l0.515625 0q0.984375 0 1.296875 0.234375q0.328125 0.234375 0.328125 0.703125q0 0.984375 -1.640625 0.984375l-0.5 0l0 4.921875q0 1.0 0.140625 1.359375q0.140625 0.359375 0.75 0.359375q0.296875 0 0.65625 -0.078125q0.375 -0.09375 0.546875 -0.09375q0.40625 0 0.65625 0.265625q0.25 0.265625 0.25 0.640625q0 1.3125 -2.765625 1.3125q-1.34375 0 -1.96875 -0.5q-0.625 -0.5 -0.78125 -1.203125q-0.15625 -0.71875 -0.15625 -1.875l0 -5.109375l-0.34375 0q-1.1875 0 -1.1875 -0.96875q0 -0.953125 1.25 -0.953125l0.28125 0zm16.095703 3.875l0 4.859375q0 1.875 -1.359375 1.875q-0.625 0 -0.96875 -0.390625q-0.328125 -0.40625 -0.328125 -1.484375l0 -4.25q0 -1.515625 -0.484375 -2.078125q-0.484375 -0.5625 -1.34375 -0.5625q-0.765625 0 -1.328125 0.421875q-0.5625 0.421875 -0.796875 1.03125q-0.234375 0.609375 -0.234375 2.15625l0 3.09375q0 1.25 -0.359375 1.65625q-0.359375 0.40625 -0.984375 0.40625q-0.625 0 -0.984375 -0.390625q-0.34375 -0.40625 -0.34375 -1.640625l0 -10.578125q0 -0.96875 0.09375 -1.34375q0.09375 -0.375 0.421875 -0.609375q0.34375 -0.25 0.796875 -0.25q0.5 0 0.828125 0.28125q0.34375 0.265625 0.4375 0.703125q0.09375 0.4375 0.09375 1.4375l0 3.15625q1.34375 -1.609375 3.25 -1.609375q1.609375 0 2.59375 1.0q1.0 0.984375 1.0 3.109375zm10.064453 1.96875l-5.234375 0q0.046875 1.484375 0.8125 2.234375q0.78125 0.75 1.875 0.75q1.328125 0 2.515625 -1.171875q0.484375 -0.484375 0.703125 -0.59375q0.234375 -0.125 0.515625 -0.125q0.359375 0 0.609375 0.234375q0.265625 0.21875 0.265625 0.546875q0 0.90625 -1.234375 1.90625q-1.21875 0.984375 -3.328125 0.984375q-2.671875 0 -4.0625 -1.515625q-1.375 -1.515625 -1.375 -3.90625q0 -2.421875 1.375 -3.921875q1.390625 -1.5 3.859375 -1.5q2.34375 0 3.625 1.421875q1.28125 1.40625 1.28125 3.0625q0 0.734375 -0.421875 1.171875q-0.421875 0.421875 -1.78125 0.421875zm-5.234375 -1.515625l4.859375 0q-0.046875 -1.328125 -0.734375 -2.03125q-0.6875 -0.703125 -1.6875 -0.703125q-2.125 0 -2.4375 2.734375zm18.009766 -2.78125q1.40625 -1.78125 3.46875 -1.78125q2.046875 0 3.25 1.546875q1.21875 1.53125 1.21875 3.984375q0 2.328125 -1.1875 3.828125q-1.171875 1.484375 -3.265625 1.484375q-1.984375 0 -3.484375 -1.671875l0 3.484375q0 1.4375 -0.359375 1.78125q-0.359375 0.359375 -0.96875 0.359375q-0.734375 0 -1.03125 -0.484375q-0.296875 -0.484375 -0.296875 -1.734375l0 -10.515625q0 -0.828125 0.0625 -1.203125q0.078125 -0.390625 0.421875 -0.625q0.359375 -0.234375 0.84375 -0.234375q1.328125 0 1.328125 1.484375l0 0.296875zm5.234375 3.6875q0 -1.75 -0.734375 -2.59375q-0.734375 -0.84375 -1.71875 -0.84375q-1.140625 0 -1.890625 0.859375q-0.734375 0.859375 -0.734375 2.40625q0 1.609375 0.71875 2.5625q0.71875 0.9375 1.921875 0.9375q1.078125 0 1.75 -0.875q0.6875 -0.890625 0.6875 -2.453125zm4.859375 3.15625l0 -6.828125q0 -1.796875 1.3125 -1.796875q1.265625 0 1.296875 1.65625q0.828125 -1.65625 2.296875 -1.65625q0.765625 0 1.59375 0.40625q0.828125 0.40625 0.828125 1.109375q0 0.484375 -0.34375 0.8125q-0.328125 0.3125 -0.703125 0.3125q-0.21875 0 -0.78125 -0.171875q-0.5625 -0.171875 -0.9375 -0.171875q-0.953125 0 -1.421875 0.96875q-0.46875 0.953125 -0.46875 3.71875l0 1.546875q0 1.015625 -0.09375 1.375q-0.078125 0.359375 -0.4375 0.65625q-0.34375 0.28125 -0.796875 0.28125q-0.453125 0 -0.8125 -0.265625q-0.34375 -0.265625 -0.4375 -0.609375q-0.09375 -0.359375 -0.09375 -1.34375zm12.669922 -8.625q2.484375 0 3.90625 1.53125q1.421875 1.515625 1.421875 3.890625q0 2.375 -1.4375 3.90625q-1.4375 1.515625 -3.8125 1.515625q-2.578125 0 -3.984375 -1.546875q-1.40625 -1.546875 -1.40625 -3.875q0 -2.375 1.421875 -3.890625q1.421875 -1.53125 3.890625 -1.53125zm0 8.859375q1.21875 0 1.921875 -0.90625q0.703125 -0.921875 0.703125 -2.53125q0 -1.625 -0.703125 -2.53125q-0.703125 -0.921875 -1.921875 -0.921875q-1.1875 0 -1.90625 0.921875q-0.703125 0.921875 -0.703125 2.53125q0 1.609375 0.703125 2.53125q0.703125 0.90625 1.90625 0.90625zm8.767578 -12.703125q0.53125 0 0.90625 0.390625q0.375 0.390625 0.375 0.90625q0 0.53125 -0.375 0.921875q-0.375 0.375 -0.90625 0.375q-0.53125 0 -0.921875 -0.375q-0.375 -0.390625 -0.375 -0.921875q0 -0.53125 0.375 -0.90625q0.390625 -0.390625 0.921875 -0.390625zm-1.296875 14.390625l0 -8.359375q0 -0.984375 0.078125 -1.3125q0.078125 -0.34375 0.421875 -0.609375q0.34375 -0.265625 0.796875 -0.265625q0.4375 0 0.796875 0.25q0.359375 0.234375 0.4375 0.609375q0.09375 0.359375 0.09375 1.328125l0 8.359375q0 1.5 -0.15625 2.265625q-0.15625 0.765625 -0.828125 1.375q-0.65625 0.609375 -2.0625 0.609375q-2.46875 0 -2.46875 -1.296875q0 -0.46875 0.28125 -0.78125q0.28125 -0.3125 0.734375 -0.3125l0.96875 0.078125q0.484375 0 0.6875 -0.375q0.21875 -0.359375 0.21875 -1.5625zm12.810547 -4.46875l-5.234375 0q0.046875 1.484375 0.8125 2.234375q0.78125 0.75 1.875 0.75q1.328125 0 2.515625 -1.171875q0.484375 -0.484375 0.703125 -0.59375q0.234375 -0.125 0.515625 -0.125q0.359375 0 0.609375 0.234375q0.265625 0.21875 0.265625 0.546875q0 0.90625 -1.234375 1.90625q-1.21875 0.984375 -3.328125 0.984375q-2.671875 0 -4.0625 -1.515625q-1.375 -1.515625 -1.375 -3.90625q0 -2.421875 1.375 -3.921875q1.390625 -1.5 3.859375 -1.5q2.34375 0 3.625 1.421875q1.28125 1.40625 1.28125 3.0625q0 0.734375 -0.421875 1.171875q-0.421875 0.421875 -1.78125 0.421875zm-5.234375 -1.515625l4.859375 0q-0.046875 -1.328125 -0.734375 -2.03125q-0.6875 -0.703125 -1.6875 -0.703125q-2.125 0 -2.4375 2.734375zm18.11914 1.8125q0.484375 0 0.796875 0.390625q0.328125 0.375 0.328125 0.765625q0 1.09375 -1.296875 2.203125q-1.296875 1.109375 -3.484375 1.109375q-2.625 0 -3.96875 -1.484375q-1.328125 -1.5 -1.328125 -3.890625q0 -2.40625 1.390625 -3.9375q1.390625 -1.53125 3.953125 -1.53125q1.984375 0 3.28125 1.046875q1.3125 1.03125 1.3125 2.046875q0 0.484375 -0.359375 0.8125q-0.34375 0.328125 -0.8125 0.328125q-0.59375 0 -0.921875 -0.5q-0.734375 -1.109375 -1.296875 -1.40625q-0.5625 -0.296875 -1.21875 -0.296875q-1.28125 0 -1.984375 0.984375q-0.6875 0.96875 -0.6875 2.4375q0 1.5 0.71875 2.453125q0.734375 0.953125 1.953125 0.953125q0.6875 0 1.265625 -0.328125q0.59375 -0.328125 1.015625 -0.984375q0.421875 -0.671875 0.671875 -0.921875q0.25 -0.25 0.671875 -0.25zm3.8847656 -6.140625l0 -1.609375q0 -0.984375 0.078125 -1.328125q0.09375 -0.359375 0.4375 -0.640625q0.34375 -0.28125 0.8125 -0.28125q0.4375 0 0.78125 0.25q0.34375 0.25 0.453125 0.625q0.109375 0.359375 0.109375 1.171875l0 1.8125l0.515625 0q0.984375 0 1.296875 0.234375q0.328125 0.234375 0.328125 0.703125q0 0.984375 -1.640625 0.984375l-0.5 0l0 4.921875q0 1.0 0.140625 1.359375q0.140625 0.359375 0.75 0.359375q0.296875 0 0.65625 -0.078125q0.375 -0.09375 0.546875 -0.09375q0.40625 0 0.65625 0.265625q0.25 0.265625 0.25 0.640625q0 1.3125 -2.765625 1.3125q-1.34375 0 -1.96875 -0.5q-0.625 -0.5 -0.78125 -1.203125q-0.15625 -0.71875 -0.15625 -1.875l0 -5.109375l-0.34375 0q-1.1875 0 -1.1875 -0.96875q0 -0.953125 1.25 -0.953125l0.28125 0z" fill-rule="nonzero"/><path fill="#000000" d="m466.14227 331.901l0 -1.609375q0 -0.984375 0.078125 -1.328125q0.09375 -0.359375 0.4375 -0.640625q0.34375 -0.28125 0.8125 -0.28125q0.4375 0 0.78125 0.25q0.34375 0.25 0.453125 0.625q0.109375 0.359375 0.109375 1.171875l0 1.8125l0.515625 0q0.984375 0 1.296875 0.234375q0.328125 0.234375 0.328125 0.703125q0 0.984375 -1.640625 0.984375l-0.5 0l0 4.921875q0 1.0 0.140625 1.359375q0.140625 0.359375 0.75 0.359375q0.296875 0 0.65625 -0.078125q0.375 -0.09375 0.546875 -0.09375q0.40625 0 0.65625 0.265625q0.25 0.265625 0.25 0.640625q0 1.3125 -2.765625 1.3125q-1.34375 0 -1.96875 -0.5q-0.625 -0.5 -0.78125 -1.203125q-0.15625 -0.71875 -0.15625 -1.875l0 -5.109375l-0.34375 0q-1.1875 0 -1.1875 -0.96875q0 -0.953125 1.25 -0.953125l0.28125 0zm11.298828 -0.234375q2.484375 0 3.90625 1.53125q1.421875 1.515625 1.421875 3.890625q0 2.375 -1.4375 3.90625q-1.4375 1.515625 -3.8125 1.515625q-2.578125 0 -3.984375 -1.546875q-1.40625 -1.546875 -1.40625 -3.875q0 -2.375 1.421875 -3.890625q1.421875 -1.53125 3.890625 -1.53125zm0 8.859375q1.21875 0 1.921875 -0.90625q0.703125 -0.921875 0.703125 -2.53125q0 -1.625 -0.703125 -2.53125q-0.703125 -0.921875 -1.921875 -0.921875q-1.1875 0 -1.90625 0.921875q-0.703125 0.921875 -0.703125 2.53125q0 1.609375 0.703125 2.53125q0.703125 0.90625 1.90625 0.90625zm13.283203 -1.984375l0 -4.6875q0 -0.859375 0.0625 -1.25q0.078125 -0.390625 0.421875 -0.65625q0.34375 -0.28125 0.84375 -0.28125q0.46875 0 0.8125 0.265625q0.359375 0.265625 0.4375 0.703125q0.09375 0.421875 0.09375 1.28125l0 3.671875q0 1.796875 0.5625 2.3125q0.5625 0.5 1.234375 0.5q0.765625 0 1.34375 -0.421875q0.59375 -0.4375 0.796875 -1.046875q0.203125 -0.625 0.203125 -2.421875l0 -2.65625q0 -0.84375 0.078125 -1.25q0.09375 -0.40625 0.4375 -0.671875q0.359375 -0.265625 0.84375 -0.265625q0.453125 0 0.8125 0.265625q0.359375 0.265625 0.421875 0.65625q0.078125 0.390625 0.078125 1.265625l0 6.59375q0 0.8125 -0.078125 1.171875q-0.078125 0.359375 -0.390625 0.625q-0.296875 0.265625 -0.765625 0.265625q-1.296875 0 -1.25 -1.859375q-1.328125 1.859375 -3.515625 1.859375q-1.453125 0 -2.46875 -0.859375q-1.015625 -0.875 -1.015625 -3.109375zm21.564453 -2.625l0 4.375q0 0.859375 -0.078125 1.25q-0.0625 0.375 -0.421875 0.671875q-0.34375 0.296875 -0.8125 0.296875q-0.4375 0 -0.8125 -0.265625q-0.359375 -0.265625 -0.453125 -0.671875q-0.09375 -0.421875 -0.09375 -1.28125l0 -3.828125q0 -1.609375 -0.484375 -2.15625q-0.46875 -0.5625 -1.3125 -0.5625q-0.75 0 -1.328125 0.4375q-0.578125 0.4375 -0.8125 1.109375q-0.234375 0.65625 -0.234375 2.25l0 2.75q0 0.84375 -0.0625 1.234375q-0.0625 0.375 -0.421875 0.6875q-0.359375 0.296875 -0.828125 0.296875q-0.453125 0 -0.828125 -0.265625q-0.359375 -0.28125 -0.4375 -0.671875q-0.078125 -0.40625 -0.078125 -1.28125l0 -6.5625q0 -0.890625 0.078125 -1.234375q0.09375 -0.359375 0.421875 -0.59375q0.34375 -0.234375 0.765625 -0.234375q0.390625 0 0.8125 0.3125q0.421875 0.296875 0.421875 1.484375q1.34375 -1.796875 3.4375 -1.796875q0.796875 0 1.578125 0.3125q0.78125 0.296875 1.265625 0.96875q0.5 0.671875 0.609375 1.40625q0.109375 0.734375 0.109375 1.5625zm5.345703 -6.015625l0 10.390625q0 0.96875 -0.09375 1.328125q-0.078125 0.34375 -0.453125 0.625q-0.359375 0.265625 -0.78125 0.265625q-0.421875 0 -0.796875 -0.265625q-0.375 -0.28125 -0.46875 -0.640625q-0.078125 -0.359375 -0.078125 -1.3125l0 -10.390625q0 -0.984375 0.09375 -1.328125q0.09375 -0.359375 0.453125 -0.609375q0.359375 -0.265625 0.78125 -0.265625q0.484375 0 0.828125 0.28125q0.359375 0.28125 0.4375 0.65625q0.078125 0.375 0.078125 1.265625zm7.404297 1.765625q2.484375 0 3.90625 1.53125q1.421875 1.515625 1.421875 3.890625q0 2.375 -1.4375 3.90625q-1.4375 1.515625 -3.8125 1.515625q-2.578125 0 -3.984375 -1.546875q-1.40625 -1.546875 -1.40625 -3.875q0 -2.375 1.421875 -3.890625q1.421875 -1.53125 3.890625 -1.53125zm0 8.859375q1.21875 0 1.921875 -0.90625q0.703125 -0.921875 0.703125 -2.53125q0 -1.625 -0.703125 -2.53125q-0.703125 -0.921875 -1.921875 -0.921875q-1.1875 0 -1.90625 0.921875q-0.703125 0.921875 -0.703125 2.53125q0 1.609375 0.703125 2.53125q0.703125 0.90625 1.90625 0.90625zm15.861328 -2.484375q0.484375 0 0.796875 0.390625q0.328125 0.375 0.328125 0.765625q0 1.09375 -1.296875 2.203125q-1.296875 1.109375 -3.484375 1.109375q-2.625 0 -3.96875 -1.484375q-1.328125 -1.5 -1.328125 -3.890625q0 -2.40625 1.390625 -3.9375q1.390625 -1.53125 3.953125 -1.53125q1.984375 0 3.28125 1.046875q1.3125 1.03125 1.3125 2.046875q0 0.484375 -0.359375 0.8125q-0.34375 0.328125 -0.8125 0.328125q-0.59375 0 -0.921875 -0.5q-0.734375 -1.109375 -1.296875 -1.40625q-0.5625 -0.296875 -1.21875 -0.296875q-1.28125 0 -1.984375 0.984375q-0.6875 0.96875 -0.6875 2.4375q0 1.5 0.71875 2.453125q0.734375 0.953125 1.953125 0.953125q0.6875 0 1.265625 -0.328125q0.59375 -0.328125 1.015625 -0.984375q0.421875 -0.671875 0.671875 -0.921875q0.25 -0.25 0.671875 -0.25zm6.982422 -0.625l-1.46875 1.359375l0 1.3125q0 0.96875 -0.0625 1.390625q-0.0625 0.40625 -0.4375 0.71875q-0.359375 0.3125 -0.84375 0.3125q-0.4375 0 -0.796875 -0.265625q-0.359375 -0.28125 -0.4375 -0.640625q-0.078125 -0.375 -0.078125 -1.390625l0 -10.1875q0 -1.453125 0.34375 -1.890625q0.359375 -0.4375 1.046875 -0.4375q0.5 0 0.796875 0.28125q0.3125 0.28125 0.390625 0.6875q0.078125 0.40625 0.078125 1.28125l0 5.875l3.015625 -3.125q0.6875 -0.71875 0.9375 -0.875q0.265625 -0.15625 0.609375 -0.15625q0.515625 0 0.84375 0.328125q0.328125 0.328125 0.328125 0.71875q0 0.59375 -1.09375 1.625l-1.40625 1.296875l2.71875 4.296875q0.59375 0.9375 0.59375 1.34375q0 0.46875 -0.34375 0.859375q-0.34375 0.375 -0.921875 0.375q-0.484375 0 -0.796875 -0.28125q-0.296875 -0.296875 -0.6875 -0.953125l-2.328125 -3.859375z" fill-rule="nonzero"/></g></svg>