<svg version="1.1" xmlns="http://www.w3.org/2000/svg" xmlns:xlink="http://www.w3.org/1999/xlink" width="411.29155" height="286.5015" viewBox="0,0,411.29155,286.5015"><g transform="translate(-14.6051,-10.06366)"><g data-paper-data="{&quot;isPaintingLayer&quot;:true}" fill="#9ca1b1" fill-rule="nonzero" stroke="#000000" stroke-width="2" stroke-linecap="butt" stroke-linejoin="miter" stroke-miterlimit="10" stroke-dasharray="" stroke-dashoffset="0" style="mix-blend-mode: normal"><path d="M15.6051,289.9869c0,-37.77868 0,-255.21891 0,-273.83619c0,-2.98818 1.92278,-5.08705 4.7913,-5.08705c23.48529,0 324.47521,0 366.77964,0c3.20717,0 4.92756,3.21734 4.92756,4.08705c0,1.80862 0,6 0,6h30l-30,17c0,0 0,228.78592 0,251.33619c0,3.50682 -2.99136,6.07826 -7.20721,6.07826c-27.84252,0 -318.65964,0 -363.5,0c-1.49218,0 -2.71197,-0.31004 -3.64061,-0.90952c-1.41182,-0.9114 -2.15068,-2.49178 -2.15068,-4.66874z"/></g></g></svg>