<svg version="1.1" xmlns="http://www.w3.org/2000/svg" xmlns:xlink="http://www.w3.org/1999/xlink" width="246.56953" height="222.27976" viewBox="0,0,246.56953,222.27976"><g transform="translate(-116.71523,-68.86012)"><g data-paper-data="{&quot;isPaintingLayer&quot;:true}" fill-rule="nonzero" stroke-linecap="butt" stroke-linejoin="miter" stroke-miterlimit="10" stroke-dasharray="" stroke-dashoffset="0" style="mix-blend-mode: normal"><path d="M137.15553,174.63867c0,-48.24308 43.38237,-87.35181 96.89723,-87.35181c53.51488,0 96.89723,39.10874 96.89723,87.35181c0,48.24308 -43.38237,87.35181 -96.89725,87.35181c-53.51488,0 -96.89723,-39.10872 -96.89723,-87.35181z" data-paper-data="{&quot;index&quot;:null}" fill="none" stroke="none" stroke-width="0"/><path d="M225.22702,154.27657l2.55531,-5.84072l16.2445,-6.75334l10.22125,6.57082z" fill="#000000" stroke="none" stroke-width="0"/><path d="M262.27908,184.21027l6.93585,-21.9027l6.38829,3.10288l-4.9281,18.25225z" fill="#000000" stroke="none" stroke-width="0"/><path d="M270.23417,183.08196c-0.61007,0.73825 -0.65156,-0.07195 -0.26566,-1.25934c0.79536,-2.44726 2.09772,-6.53318 2.61862,-8.61706c0.53523,-2.14118 0.55659,-5.58357 0.85197,-7.37788c0.13675,-0.83066 1.11963,-0.72472 1.66003,-0.18862c1.12241,1.1135 3.04117,3.13289 3.82003,3.789c0.63666,0.53633 0.98025,1.57675 0.51931,2.13454c-1.22361,1.48067 -6.90468,8.73661 -9.20429,11.51937z" data-paper-data="{&quot;index&quot;:null}" fill="#09158c" stroke="#000000" stroke-width="2"/><path d="M270.23417,183.08192c-0.61007,0.73825 -0.65156,-0.07195 -0.26566,-1.25934c0.79536,-2.44726 2.09772,-6.53318 2.61862,-8.61706c0.53523,-2.14118 0.55659,-5.58357 0.85197,-7.37788c0.13675,-0.83066 1.11963,-0.72472 1.66003,-0.18862c1.12241,1.1135 3.04117,3.13289 3.82003,3.789c0.63666,0.53633 0.98025,1.57675 0.51931,2.13454c-1.22361,1.48067 -6.90468,8.73661 -9.20429,11.51937z" data-paper-data="{&quot;index&quot;:null}" fill="#bf8521" stroke="none" stroke-width="0"/><path d="M259.89683,148.17175c16.39831,9.0747 9.25809,29.21152 6.75399,32.8844c-13.093,22.3735 -20.84319,26.24106 -28.69281,32.08591c-7.80418,5.05412 -18.80341,9.11201 -20.31246,8.9975c-1.40032,-0.10626 -3.79306,-4.76335 -2.30357,-7.4904c2.02747,-3.71204 6.42041,-9.54946 8.23223,-11.38776c0.6208,-0.62987 -1.63756,-10.13072 -0.77014,-10.02818c3.17341,0.37515 17.29411,12.37796 17.0201,11.61417c-0.84511,-2.35584 -16.29307,-1.19814 -20.87508,-8.72542c-2.12586,-3.49234 -5.2366,-8.82515 -5.78055,-13.10328c-0.16932,-1.33163 11.75388,11.88353 15.81301,20.9687c0.26877,0.55153 -4.03957,1.68519 -5.71646,-1.2466c-1.73688,-3.03667 -4.9068,-3.60051 -5.80705,-2.49041c-2.4043,2.96477 -5.17195,7.27815 -7.82186,8.95613c-2.20724,1.39769 -5.40619,1.32579 -7.44298,0.98798c-1.17342,-0.19462 -1.88145,-1.56668 -1.84223,-2.03519c1.12276,-13.41344 4.31532,-33.38914 16.20942,-46.4308c13.09936,-14.36321 33.412,-19.04887 43.33643,-13.55676z" fill="#09158c" stroke="#000000" stroke-width="2"/><path d="M259.89683,148.17173c16.39831,9.0747 9.25809,29.21152 6.75399,32.8844c-13.093,22.37348 -20.84319,26.24106 -28.69281,32.08591c-7.80418,5.05412 -18.80341,9.11201 -20.31246,8.9975c-1.40032,-0.10626 -3.79306,-4.76335 -2.30357,-7.4904c2.02747,-3.71204 6.42041,-9.54946 8.23223,-11.38776c0.6208,-0.62987 -1.63756,-10.13072 -0.77014,-10.02818c3.17341,0.37515 15.39262,12.14028 15.11862,11.37649c-0.84511,-2.35584 -14.39159,-0.96045 -18.97359,-8.48774c-2.12586,-3.49234 -5.2366,-8.82515 -5.78055,-13.10328c-0.16932,-1.33163 11.75388,11.88353 15.81301,20.9687c0.26879,0.55153 -4.03957,1.68519 -5.71646,-1.2466c-1.73688,-3.03667 -4.9068,-3.60051 -5.80705,-2.49041c-2.40431,2.96478 -5.17195,7.27815 -7.82186,8.95613c-2.20724,1.39769 -5.40621,1.3258 -7.44298,0.98798c-1.17342,-0.19462 -1.88144,-1.56668 -1.84223,-2.03521c1.12276,-13.41343 4.31532,-33.38914 16.20942,-46.43079c13.09936,-14.36321 33.41199,-19.04888 43.33643,-13.55676z" fill="#c48b23" stroke="none" stroke-width="0"/><path d="M218.02016,162.43215c1.46281,-1.53333 23.58532,-24.07468 41.81295,-13.98764c16.39831,9.0747 8.38128,27.42443 5.87717,31.09732c-7.9251,13.80075 -19.19281,26.19529 -27.04242,32.04014c-7.80418,5.05412 -18.22528,9.59232 -19.73433,9.47782c-1.40032,-0.10626 -2.8387,-3.6773 -1.34921,-6.40435c2.02747,-3.71204 5.836,-7.78746 7.64782,-9.62578c0.6208,-0.62987 1.56162,-0.92569 2.42904,-0.82315c3.17341,0.37515 10.06017,1.16699 9.78618,0.40319c-0.84511,-2.35584 -13.91622,-0.96045 -18.49822,-8.48774c-2.12586,-3.49234 -5.2366,-8.82515 -5.78055,-13.10328c-0.16932,-1.33163 -1.35918,4.849 2.69993,13.93418c1.06613,2.1876 -2.46861,6.82581 -7.33851,9.90956c-3.47886,2.20292 -7.42777,1.1492 -7.40071,0.76349c2.13257,-30.3892 15.42776,-43.66013 16.89087,-45.19376z" fill="#f6f657" stroke="none" stroke-width="0"/><path d="M275.19177,173.93641c-0.41777,-0.21237 -0.9066,-0.46086 -1.15507,-0.58718c-0.30462,-0.15485 -0.63766,-0.69527 -0.57184,-0.98517c0.14429,-0.63536 0.32406,-1.63294 0.38694,-2.35615c0.08096,-0.93141 0.11642,-2.51279 0.13085,-3.4337c0.00683,-0.43666 0.20048,-0.53303 0.5057,-0.22731c1.05299,1.05471 3.45947,3.4651 4.02543,4.03198c0.23325,0.23362 0.23735,0.71712 -0.08003,1.07758c-0.61898,0.70298 -1.59202,1.80807 -1.94586,2.20993c-0.2551,0.28973 -0.89834,0.47225 -1.29612,0.27005z" data-paper-data="{&quot;index&quot;:null}" fill="#f6f657" stroke="none" stroke-width="0"/><path d="M228.02098,148.29957c2.57284,-2.53227 9.30878,-8.82119 10.67776,-10.16858c0.51571,-0.50759 1.58201,-0.25552 2.17153,0.33224c0.72117,0.71902 2.89936,2.45543 4.10599,3.47705c0.58095,0.49188 0.77174,1.46187 -0.04395,1.67013c-1.76193,0.44988 -5.1895,0.76967 -7.2762,1.48858c-2.03086,0.69965 -5.98845,2.35145 -8.35751,3.35604c-1.14946,0.48742 -1.96019,0.51635 -1.27763,-0.15545z" fill="#09158c" stroke="#000000" stroke-width="1.5"/><path d="M228.02098,148.29957c2.57284,-2.53227 9.30878,-8.82119 10.67776,-10.16858c0.51571,-0.50759 1.58201,-0.25552 2.17153,0.33224c0.72117,0.71902 2.89936,2.45543 4.10599,3.47705c0.58095,0.49188 0.77174,1.46187 -0.04395,1.67013c-1.76193,0.44988 -5.1895,0.76967 -7.2762,1.48858c-2.03086,0.69965 -5.98845,2.35145 -8.35751,3.35604c-1.14946,0.48742 -1.96019,0.51635 -1.27763,-0.15545z" fill="#bf8521" stroke="none" stroke-width="0"/><path d="M243.54134,148.15184c0.3305,-0.37041 1.2394,-1.38901 1.81757,-2.03699c0.29645,-0.33225 0.74195,-0.38227 0.98295,-0.19357c0.58477,0.45784 3.07119,2.40464 4.15919,3.25649c0.31536,0.24692 0.24822,0.43587 -0.15295,0.49075c-0.84607,0.11576 -2.29767,0.32438 -3.14597,0.50255c-0.6587,0.13834 -1.5569,0.41486 -2.12566,0.61837c-0.25953,0.09285 -0.79401,-0.15356 -0.97045,-0.4167c-0.14391,-0.21464 -0.42704,-0.63694 -0.669,-0.99784c-0.23039,-0.34362 -0.13396,-0.95602 0.10432,-1.22306z" fill="#f6f657" stroke="none" stroke-width="0"/><g><path d="M227.94426,166.18031c1.31494,-1.73324 5.46526,-7.20381 7.15626,-9.43275c0.45157,-0.59521 1.03567,-0.50128 1.54479,0.18399c1.01668,1.3684 2.83572,3.64314 4.60769,4.98746c2.97737,2.25881 8.45301,6.87152 13.48722,10.0988c1.8988,1.21726 4.24713,2.28387 5.68045,2.88978c0.79436,0.33579 0.93062,1.02709 0.33734,1.80911c-1.81599,2.39367 -5.65787,7.4577 -6.91367,9.11299c-0.77321,1.01918 -2.61191,2.00042 -4.1777,1.38445c-2.80167,-1.10216 -7.69058,-3.41485 -13.16637,-7.74151c-4.42144,-3.49357 -7.28211,-6.86965 -8.82993,-8.9522c-0.96977,-1.30481 -0.49931,-3.32094 0.27391,-4.34011z" fill="#c48b23" stroke="none" stroke-width="0"/><g><path d="M230.45918,164.05282c1.25006,-1.64772 5.19563,-6.84842 6.8032,-8.96739c0.42928,-0.56585 0.98456,-0.47655 1.46859,0.17491c0.96651,1.30089 2.69583,3.4634 4.38038,4.7414c2.83048,2.14738 8.03598,6.53253 12.82183,9.60058c1.80513,1.15721 4.0376,2.1712 5.4002,2.74722c0.75516,0.31924 0.88471,0.97641 0.3207,1.71986c-1.72639,2.27558 -5.37874,7.08979 -6.57259,8.66341c-0.73507,0.9689 -2.48307,1.90173 -3.97159,1.31615c-2.66346,-1.04778 -7.31117,-3.24639 -12.51682,-7.35959c-4.20331,-3.32122 -6.92285,-6.53073 -8.3943,-8.51054c-0.92193,-1.24043 -0.47467,-3.15709 0.2604,-4.126z" fill="#95cadc" stroke="#000000" stroke-width="1.5"/><path d="M247.42189,166.74683c4.45791,3.37092 7.7352,5.06916 9.47255,5.99797c1.04734,0.55993 0.91677,1.65519 0.51954,2.17877c-1.26185,1.66325 -3.38494,4.46173 -4.10047,5.40487c-0.30735,0.40512 -0.78869,0.34451 -1.25354,-0.1464c-0.42262,-0.4463 -3.05043,-3.91369 -9.05532,-8.55011c-5.48035,-4.23142 -9.29033,-5.55329 -9.88064,-5.84767c-0.59583,-0.29713 -0.84069,-0.6638 -0.60676,-0.97215c0.69313,-0.91362 3.05008,-4.02034 4.34145,-5.72252c0.34075,-0.44914 1.21146,-0.44725 2.19425,0.52736c1.50234,1.48984 4.22182,3.99362 8.36892,7.12985z" data-paper-data="{&quot;index&quot;:null}" fill="#49646d" stroke="none" stroke-width="0"/></g></g><path d="M116.71526,180c0,-61.38087 55.19647,-111.13988 123.28475,-111.13988c68.08831,0 123.28475,49.75903 123.28475,111.13988c0,61.38087 -55.19647,111.13988 -123.28478,111.13988c-68.08831,0 -123.28475,-49.759 -123.28475,-111.13988z" data-paper-data="{&quot;index&quot;:null}" fill="none" stroke="none" stroke-width="0"/></g></g></svg>