<svg version="1.1" xmlns="http://www.w3.org/2000/svg" xmlns:xlink="http://www.w3.org/1999/xlink" width="305.5015" height="305.5015" viewBox="0,0,305.5015,305.5015"><g transform="translate(-87.24923,-27.24925)"><g data-paper-data="{&quot;isPaintingLayer&quot;:true}" fill-rule="nonzero" stroke-linecap="butt" stroke-linejoin="miter" stroke-miterlimit="10" stroke-dasharray="" stroke-dashoffset="0" style="mix-blend-mode: normal"><g><path d="M89.24923,180.00001c0,-83.25734 67.4934,-150.75075 150.75074,-150.75075c83.25734,0 150.75075,67.49342 150.75075,150.75075c0,83.25734 -67.49342,150.75074 -150.75075,150.75074c-83.25734,0 -150.75074,-67.4934 -150.75074,-150.75074z" fill="#ffd54d" stroke="none" stroke-width="0"/><path d="M239.27086,179.7653l151.46748,-1.72106c0,0 0.01243,1.30287 0.01243,1.95577c0,25.44029 -6.30174,49.40872 -17.42938,70.42948c-0.50007,0.94467 -1.52934,2.81602 -1.52934,2.81602z" fill="#ff8133" stroke="none" stroke-width="0"/><path d="M240.72917,180.2347l-151.46748,1.72106c0,0 -0.01243,-1.30287 -0.01243,-1.95577c0,-25.44029 6.30174,-49.40872 17.42938,-70.42948c0.50007,-0.94467 1.52934,-2.81602 1.52934,-2.81602z" data-paper-data="{&quot;index&quot;:null}" fill="#ff8133" stroke="none" stroke-width="0"/><path d="M239.84053,179.25078l76.90296,130.504c0,0 -1.12373,0.65943 -1.68996,0.98449c-22.06321,12.66583 -45.98734,19.13366 -69.75775,19.94867c-1.06824,0.03662 -3.20362,0.07567 -3.20362,0.07567z" fill="#ff8133" stroke="none" stroke-width="0"/><path d="M240.15947,180.74922l-76.90296,-130.504c0,0 1.12373,-0.65943 1.68996,-0.98449c22.06321,-12.66583 45.98734,-19.13366 69.75775,-19.94867c1.06824,-0.03662 3.20362,-0.07567 3.20362,-0.07567z" data-paper-data="{&quot;index&quot;:null}" fill="#ff8133" stroke="none" stroke-width="0"/><path d="M240.57794,179.49727l-76.85339,130.53319c0,0 -1.12157,-0.66309 -1.6804,-1.00072c-21.77471,-13.15562 -39.0309,-30.94386 -51.26858,-51.33836c-0.54995,-0.91653 -1.61943,-2.76521 -1.61943,-2.76521z" fill="#ff8133" stroke="none" stroke-width="0"/><path d="M239.42205,180.50272l76.85339,-130.53319c0,0 1.12157,0.66309 1.6804,1.00072c21.77471,13.15562 39.0309,30.94386 51.26858,51.33836c0.54995,0.91653 1.61943,2.76521 1.61943,2.76521z" data-paper-data="{&quot;index&quot;:null}" fill="#ff8133" stroke="none" stroke-width="0"/><path d="M89.24923,180c0,-83.25734 67.4934,-150.75075 150.75075,-150.75075c83.25734,0 150.75075,67.4934 150.75075,150.75075c0,83.25734 -67.4934,150.75075 -150.75075,150.75075c-83.25734,0 -150.75075,-67.4934 -150.75075,-150.75075z" fill="none" stroke="#700012" stroke-width="4"/></g></g></g></svg>