<svg version="1.1" xmlns="http://www.w3.org/2000/svg" xmlns:xlink="http://www.w3.org/1999/xlink" width="78.29498" height="79.69568" viewBox="0,0,78.29498,79.69568"><defs><linearGradient x1="239.10205" y1="144.75489" x2="239.10205" y2="203.7357" gradientUnits="userSpaceOnUse" id="color-1"><stop offset="0" stop-color="#cddede"/><stop offset="1" stop-color="#d9ecec"/></linearGradient></defs><g transform="translate(-200.85251,-139.90069)"><g data-paper-data="{&quot;isPaintingLayer&quot;:true}" fill-rule="nonzero" stroke-linejoin="miter" stroke-miterlimit="10" stroke-dasharray="" stroke-dashoffset="0" style="mix-blend-mode: normal"><path d="M257.98142,202.41761l3.44445,-3.88889c0,0 -0.75675,7.07739 -2.74531,11.01119c0.4924,0.99896 0.39013,1.96582 -1.02334,3.44957c-1.87628,1.96956 -5.47351,-0.55609 -3.37957,-3.08693c2.89606,-3.50032 3.70378,-7.48494 3.70378,-7.48494z" fill="#de1c00" stroke="#000000" stroke-width="7.5" stroke-linecap="butt"/><path d="M208.85753,197.29575c0,0 -4.47068,-9.47909 -4.24689,-20.06798c0.17306,-8.18869 2.90753,-17.04109 7.61102,-22.68658c7.38328,-8.86198 20.50827,-10.8905 26.43868,-10.8905c6.07016,0 15.30071,-0.53738 26.72895,9.34608c11.11021,9.60841 9.97556,20.28874 9.97556,24.84873c0,11.00307 -6.9017,15.37197 -6.9017,15.37197c0,0 -1.83216,11.12251 -7.01141,6.01703c-1.23093,-1.21339 -7.27297,10.20715 -9.26509,11.7021c-2.82181,2.11758 -3.35233,-2.5861 -4.45034,-1.97108c-0.94782,0.53089 -3.52323,5.79769 -6.04894,6.88085c-2.00391,0.85939 -5.92151,-2.14518 -6.06663,-2.10349c-1.11686,0.32085 -1.30572,1.68963 -2.129,2.46043c-0.40368,0.37795 -2.55208,0.06956 -3.5815,-1.17868c-0.84337,-1.02264 -1.77998,-2.40064 -2.5545,-4.00758c-1.61167,-3.34381 -2.43007,-7.83128 -2.88898,-7.76615c-1.91927,0.27237 0.8411,5.81467 -0.45924,6.86542c-4.6799,3.78161 -7.9472,-12.61166 -9.32257,-12.57806c-1.42434,0.0348 -2.00238,1.37437 -3.45831,1.31378c-1.45594,-0.06059 -2.3691,-1.5563 -2.3691,-1.5563z" fill="#de1c00" stroke="#000000" stroke-width="7.5" stroke-linecap="butt"/><path d="M266.06442,204.39418c2.25137,-0.79756 3.64377,1.02508 4.00392,2.46569c0.27713,1.10851 0.24981,4.14761 -0.12246,6.07593c-0.23504,1.21748 -1.4795,1.82138 -2.36269,1.17455c-0.88318,-0.64683 -3.35751,-2.80443 -3.62269,-5.33185c-0.31058,-1.2423 0.38933,-3.77692 2.10392,-4.38432z" fill="#de1c00" stroke="#000000" stroke-width="7.5" stroke-linecap="butt"/><path d="M266.06442,204.39418c2.25137,-0.79756 3.64377,1.02508 4.00392,2.46569c0.27713,1.10851 0.24981,4.14761 -0.12246,6.07593c-0.23504,1.21748 -1.4795,1.82138 -2.36269,1.17455c-0.88318,-0.64683 -3.35751,-2.80443 -3.62269,-5.33185c-0.31058,-1.2423 0.38933,-3.77692 2.10392,-4.38432z" fill="#de1c00" stroke="#ffffff" stroke-width="5" stroke-linecap="butt"/><path d="M266.06442,204.39418c2.25137,-0.79756 3.64377,1.02508 4.00392,2.46569c0.27713,1.10851 0.24981,4.14761 -0.12246,6.07593c-0.23504,1.21748 -1.4795,1.82138 -2.36269,1.17455c-0.88318,-0.64683 -3.35751,-2.80443 -3.62269,-5.33185c-0.31058,-1.2423 0.38933,-3.77692 2.10392,-4.38432z" fill="#de1c00" stroke="none" stroke-width="0" stroke-linecap="butt"/><path d="M271.75778,198.03236c-1.56525,-0.78262 -0.78262,-2.34787 -0.78262,-2.34787c0,0 0.31525,-1.55071 0.31525,-2.21738c0,0 0,-1.75 1.75,-1.75c1.75,0 1.75,1.75 1.75,1.75c0,0.66666 0,1.33334 0,2c0,0.66666 -0.68475,1.78262 -0.68475,1.78262c0,0 -0.78262,1.56525 -2.34787,0.78262z" fill="#de1c00" stroke="#000000" stroke-width="7.5" stroke-linecap="butt"/><path d="M271.75778,198.03236c-1.56525,-0.78262 -0.78262,-2.34787 -0.78262,-2.34787c0,0 0.31525,-1.55071 0.31525,-2.21738c0,0 0,-1.75 1.75,-1.75c1.75,0 1.75,1.75 1.75,1.75c0,0.66666 0,1.33334 0,2c0,0.66666 -0.68475,1.78262 -0.68475,1.78262c0,0 -0.78262,1.56525 -2.34787,0.78262z" fill="#de1c00" stroke="#ffffff" stroke-width="5" stroke-linecap="butt"/><path d="M210.73108,202.06084c2.25137,-0.79756 3.64377,1.02508 4.00392,2.46569c0.27713,1.10851 0.24981,4.14761 -0.12246,6.07593c-0.23504,1.21748 -1.4795,1.82138 -2.36269,1.17455c-0.88318,-0.64683 -3.35751,-2.80443 -3.62269,-5.33185c-0.31058,-1.2423 0.38933,-3.77692 2.10392,-4.38432z" fill="#de1c00" stroke="#000000" stroke-width="7.5" stroke-linecap="butt"/><path d="M208.85753,197.29575c0,0 -4.47068,-9.47909 -4.24689,-20.06798c0.17306,-8.18869 2.90753,-17.04109 7.61102,-22.68658c7.38328,-8.86198 20.50827,-10.8905 26.43868,-10.8905c6.07016,0 15.30071,-0.53738 26.72895,9.34608c11.11021,9.60841 9.97556,20.28874 9.97556,24.84873c0,11.00307 -6.9017,15.37197 -6.9017,15.37197c0,0 -1.83216,11.12251 -7.01141,6.01703c-1.23093,-1.21339 -7.27297,10.20715 -9.26509,11.7021c-2.82181,2.11758 -3.35233,-2.5861 -4.45034,-1.97108c-0.94782,0.53089 -3.52323,5.79769 -6.04894,6.88085c-2.00391,0.85939 -5.92151,-2.14518 -6.06663,-2.10349c-1.11686,0.32085 -1.30572,1.68963 -2.129,2.46043c-0.40368,0.37795 -2.55208,0.06956 -3.5815,-1.17868c-0.84337,-1.02264 -1.77998,-2.40064 -2.5545,-4.00758c-1.61167,-3.34381 -2.43007,-7.83128 -2.88898,-7.76615c-1.91927,0.27237 0.8411,5.81467 -0.45924,6.86542c-4.6799,3.78161 -7.9472,-12.61166 -9.32257,-12.57806c-1.42434,0.0348 -2.00238,1.37437 -3.45831,1.31378c-1.45594,-0.06059 -2.3691,-1.5563 -2.3691,-1.5563z" fill="#de1c00" stroke="#ffffff" stroke-width="5" stroke-linecap="butt"/><path d="M210.73108,202.06084c2.25137,-0.79756 3.64377,1.02508 4.00392,2.46569c0.27713,1.10851 0.24981,4.14761 -0.12246,6.07593c-0.23504,1.21748 -1.4795,1.82138 -2.36269,1.17455c-0.88318,-0.64683 -3.35751,-2.80443 -3.62269,-5.33185c-0.31058,-1.2423 0.38933,-3.77692 2.10392,-4.38432z" fill="#de1c00" stroke="#ffffff" stroke-width="5" stroke-linecap="butt"/><path d="M257.98142,202.41761l3.44445,-3.88889c0,0 -0.75675,7.07739 -2.74531,11.01119c0.4924,0.99896 0.39013,1.96582 -1.02334,3.44957c-1.87628,1.96956 -5.47351,-0.55609 -3.37957,-3.08693c2.89606,-3.50032 3.70378,-7.48494 3.70378,-7.48494z" fill="#de1c00" stroke="#ffffff" stroke-width="5" stroke-linecap="butt"/><path d="M208.85753,197.29575c0,0 -4.47068,-9.47909 -4.24689,-20.06798c0.17306,-8.18869 2.90753,-17.04109 7.61102,-22.68658c7.38328,-8.86198 20.50827,-10.8905 26.43868,-10.8905c6.07016,0 15.30071,-0.53738 26.72895,9.34608c11.11021,9.60841 9.97556,20.28874 9.97556,24.84873c0,11.00307 -6.9017,15.37197 -6.9017,15.37197c0,0 -1.83216,11.12251 -7.01141,6.01703c-1.23093,-1.21339 -7.27297,10.20715 -9.26509,11.7021c-2.82181,2.11758 -3.35233,-2.5861 -4.45034,-1.97108c-0.94782,0.53089 -3.52323,5.79769 -6.04894,6.88085c-2.00391,0.85939 -5.92151,-2.14518 -6.06663,-2.10349c-1.11686,0.32085 -1.30572,1.68963 -2.129,2.46043c-0.40368,0.37795 -2.55208,0.06956 -3.5815,-1.17868c-0.84337,-1.02264 -1.77998,-2.40064 -2.5545,-4.00758c-1.61167,-3.34381 -2.43007,-7.83128 -2.88898,-7.76615c-1.91927,0.27237 0.8411,5.81467 -0.45924,6.86542c-4.6799,3.78161 -7.9472,-12.61166 -9.32257,-12.57806c-1.42434,0.0348 -2.00238,1.37437 -3.45831,1.31378c-1.45594,-0.06059 -2.3691,-1.5563 -2.3691,-1.5563z" fill="#de1c00" stroke="none" stroke-width="0" stroke-linecap="butt"/><path d="M231.04489,203.73569l-2.82342,-11.2937c0,0 -23.72666,-3.35015 -20.04905,-28.22913c2.54246,-17.19973 28.55845,-19.45536 30.4016,-19.45536c2.02899,0 30.06501,-0.26637 32.15228,23.99185c1.54879,17.99995 -20.23115,23.69264 -20.23115,23.69264l-3.13714,11.2937z" fill="#afbec0" stroke="#443532" stroke-width="1.5" stroke-linecap="butt"/><path d="M232.92718,199.65742l-4.7057,-8.0898c0,0 -16.96251,-3.31234 -19.98002,-25.13399c-0.55129,-3.98674 9.44797,-17.98439 32.21486,-18.22523c24.33354,-0.25741 30.10612,18.24911 29.48379,20.94514c-3.87468,16.78584 -19.44495,22.41408 -19.44495,22.41408l-7.52913,8.71722z" fill="#79898a" stroke="none" stroke-width="0" stroke-linecap="butt"/><path d="M231.61632,203.87856c0,0 -2.98588,-11.91886 -3.40584,-14.24207c-0.13788,-0.76273 -0.33259,-1.58681 -0.93068,-1.76481c-3.60418,-1.07268 -16.4503,-6.17297 -19.03835,-24.8889c-0.55129,-3.98674 9.44797,-17.98439 32.21486,-18.22523c24.33354,-0.25741 30.10612,18.24911 29.48379,20.94514c-3.24095,14.04039 -14.66455,20.27453 -18.31468,21.93821c-0.71374,0.32531 -0.98137,1.15706 -1.12273,1.86084c-0.45317,2.25621 -3.71611,14.23397 -3.71611,14.23397z" fill="url(#color-1)" stroke="none" stroke-width="0" stroke-linecap="butt"/><path d="M231.26785,202.76897v-0.28571h16.14286v0.28571z" fill="none" stroke="#ffffff" stroke-width="1.5" stroke-linecap="butt"/><path d="M210.73108,202.06084c2.25137,-0.79756 3.64377,1.02508 4.00392,2.46569c0.27713,1.10851 0.24981,4.14761 -0.12246,6.07593c-0.23504,1.21748 -1.4795,1.82138 -2.36269,1.17455c-0.88318,-0.64683 -3.35751,-2.80443 -3.62269,-5.33185c-0.31058,-1.2423 0.38933,-3.77692 2.10392,-4.38432z" fill="#de1c00" stroke="none" stroke-width="0" stroke-linecap="butt"/><path d="M257.98142,202.41761l3.44445,-3.88889c0,0 -0.75675,7.07739 -2.74531,11.01119c0.4924,0.99896 0.39013,1.96582 -1.02334,3.44957c-1.87628,1.96956 -5.47351,-0.55609 -3.37957,-3.08693c2.89606,-3.50032 3.70378,-7.48494 3.70378,-7.48494z" fill="#de1c00" stroke="none" stroke-width="0" stroke-linecap="butt"/><path d="M271.75778,198.03236c-1.56525,-0.78262 -0.78262,-2.34787 -0.78262,-2.34787c0,0 0.31525,-1.55071 0.31525,-2.21738c0,0 0,-1.75 1.75,-1.75c1.75,0 1.75,1.75 1.75,1.75c0,0.66666 0,1.33334 0,2c0,0.66666 -0.68475,1.78262 -0.68475,1.78262c0,0 -0.78262,1.56525 -2.34787,0.78262z" fill="#de1c00" stroke="none" stroke-width="0.5" stroke-linecap="butt"/><path d="M231.04489,203.7357c0,0 -2.07093,-8.28375 -2.50847,-10.03387c-0.15503,-0.62014 -0.6797,-1.31132 -1.31173,-1.44897c-4.46554,-0.97256 -22.2739,-6.24568 -19.05227,-28.03998c2.54246,-17.19973 28.55845,-19.45536 30.4016,-19.45536c2.02899,0 30.06501,-0.26637 32.15228,23.99186c1.3673,15.89077 -15.44723,22.18956 -19.40657,23.44752c-0.52552,0.16697 -1.0132,0.92418 -1.19329,1.57249c-0.49346,1.77646 -2.76843,9.96634 -2.76843,9.96634z" fill="none" stroke="#443532" stroke-width="1.5" stroke-linecap="butt"/><path d="M223.42967,171.29946l-2.92187,2.73438v2.59375c0,1.30209 -0.04687,2.22916 -0.14062,2.78125c-0.08334,0.55209 -0.36459,1.03646 -0.84375,1.45313c-0.47916,0.40625 -1.04687,0.60938 -1.70312,0.60938c-0.58334,0 -1.11459,-0.17709 -1.59375,-0.53125c-0.47916,-0.36459 -0.77084,-0.79166 -0.875,-1.28125c-0.10416,-0.5 -0.15625,-1.41666 -0.15625,-2.75v-20.39063c0,-1.94791 0.23438,-3.20834 0.70313,-3.78125c0.47916,-0.58334 1.17188,-0.875 2.07813,-0.875c0.66666,0 1.20313,0.19271 1.60938,0.57813c0.41666,0.375 0.67188,0.82813 0.76563,1.35938c0.10416,0.53125 0.15625,1.39063 0.15625,2.57813v11.73438l6.03125,-6.25c0.92709,-0.95834 1.5625,-1.54167 1.90625,-1.75c0.34375,-0.20834 0.73438,-0.3125 1.17188,-0.3125c0.69791,0 1.26563,0.22396 1.70313,0.67188c0.44791,0.4375 0.67188,0.91666 0.67188,1.4375c0,0.79166 -0.73959,1.86979 -2.21875,3.23438l-2.78125,2.59375l5.42188,8.59375c0.78125,1.23959 1.17188,2.14063 1.17188,2.70313c0,0.61459 -0.22396,1.17709 -0.67187,1.6875c-0.44791,0.5 -1.0625,0.75 -1.84375,0.75c-0.65625,0 -1.1875,-0.19271 -1.59375,-0.57812c-0.39584,-0.38541 -0.85416,-1.00521 -1.375,-1.85937zM242.28124,152.87758c0.51041,0.52084 0.76563,1.125 0.76563,1.8125c0,0.71875 -0.25521,1.33854 -0.76562,1.85938c-0.51041,0.51041 -1.10937,0.76563 -1.79687,0.76563c-0.71875,0 -1.33854,-0.25521 -1.85937,-0.76562c-0.51041,-0.52084 -0.76562,-1.14062 -0.76562,-1.85937c0,-0.69791 0.25521,-1.30209 0.76563,-1.8125c0.52084,-0.52084 1.14063,-0.78125 1.85938,-0.78125c0,0 1.28642,0.26039 1.79684,0.78123zM243.12499,164.14321v12.92188c0,1.27084 -0.0625,2.14063 -0.1875,2.60938c-0.11459,0.46875 -0.41146,0.88541 -0.89062,1.25c-0.47916,0.36459 -1,0.54688 -1.5625,0.54688c-0.57291,0 -1.10937,-0.17709 -1.60937,-0.53125c-0.48959,-0.36459 -0.79687,-0.78646 -0.92187,-1.26562c-0.11459,-0.47916 -0.17187,-1.34896 -0.17187,-2.60937v-12.875c0,-1.1875 0.04688,-2.02604 0.14063,-2.51562c0.09375,-0.48959 0.375,-0.92187 0.84375,-1.29687c0.47916,-0.38541 1.03125,-0.57813 1.65625,-0.57813c0.63541,0 1.18229,0.17188 1.64063,0.51563c0.45834,0.34375 0.75,0.78125 0.875,1.3125c0.125,0.52084 0.1875,1.35938 0.1875,2.51563zM253.96483,156.25258v20.8125c0,1.28125 -0.0625,2.15625 -0.1875,2.625c-0.11459,0.45834 -0.41146,0.86979 -0.89062,1.23438c-0.47916,0.36459 -1,0.54688 -1.5625,0.54688c-0.57291,0 -1.10937,-0.17709 -1.60937,-0.53125c-0.48959,-0.36459 -0.79687,-0.78646 -0.92187,-1.26562c-0.11459,-0.47916 -0.17187,-1.34896 -0.17187,-2.60937v-20.8125c0,-1.3125 0.0625,-2.19791 0.1875,-2.65625c0.125,-0.46875 0.42188,-0.875 0.89063,-1.21875c0.47916,-0.34375 1,-0.51562 1.5625,-0.51562c0.65625,0 1.21875,0.1875 1.6875,0.5625c0.47916,0.36459 0.76563,0.80209 0.85938,1.3125c0.10416,0.5 0.15625,1.33854 0.15625,2.51563zM264.80467,156.25258v20.8125c0,1.28125 -0.0625,2.15625 -0.1875,2.625c-0.11458,0.45834 -0.41146,0.86979 -0.89062,1.23438c-0.47917,0.36459 -1,0.54688 -1.5625,0.54688c-0.57292,0 -1.10937,-0.17709 -1.60937,-0.53125c-0.48958,-0.36459 -0.79688,-0.78646 -0.92188,-1.26562c-0.11458,-0.47916 -0.17187,-1.34896 -0.17187,-2.60937v-20.8125c0,-1.3125 0.0625,-2.19791 0.1875,-2.65625c0.125,-0.46875 0.42188,-0.875 0.89063,-1.21875c0.47917,-0.34375 1,-0.51562 1.5625,-0.51562c0.65625,0 1.21875,0.1875 1.6875,0.5625c0.47917,0.36459 0.76563,0.80209 0.85938,1.3125c0.10417,0.5 0.15625,1.33854 0.15625,2.51563z" fill="#ffffff" stroke="#000000" stroke-width="4.5" stroke-linecap="square"/><path d="M223.42967,171.29945l-2.92187,2.73438v2.59375c0,1.30208 -0.04687,2.22917 -0.14062,2.78125c-0.08334,0.55208 -0.36459,1.03646 -0.84375,1.45313c-0.47916,0.40625 -1.04687,0.60938 -1.70312,0.60938c-0.58334,0 -1.11459,-0.17709 -1.59375,-0.53125c-0.47916,-0.36459 -0.77084,-0.79167 -0.875,-1.28125c-0.10416,-0.5 -0.15625,-1.41667 -0.15625,-2.75v-20.39063c0,-1.94791 0.23438,-3.20834 0.70313,-3.78125c0.47916,-0.58334 1.17188,-0.875 2.07813,-0.875c0.66666,0 1.20313,0.19271 1.60938,0.57813c0.41666,0.375 0.67188,0.82813 0.76563,1.35938c0.10416,0.53125 0.15625,1.39063 0.15625,2.57813v11.73438l6.03125,-6.25c0.92709,-0.95833 1.5625,-1.54167 1.90625,-1.75c0.34375,-0.20834 0.73438,-0.3125 1.17188,-0.3125c0.69791,0 1.26562,0.22396 1.70312,0.67188c0.44792,0.4375 0.67188,0.91667 0.67188,1.4375c0,0.79167 -0.73958,1.86979 -2.21875,3.23438l-2.78125,2.59375l5.42187,8.59375c0.78125,1.23958 1.17188,2.14063 1.17188,2.70313c0,0.61458 -0.22396,1.17708 -0.67187,1.6875c-0.44791,0.5 -1.0625,0.75 -1.84375,0.75c-0.65625,0 -1.1875,-0.19271 -1.59375,-0.57812c-0.39584,-0.38542 -0.85416,-1.00521 -1.375,-1.85938zM240.48436,152.09633c0.6875,0 1.28646,0.26041 1.79688,0.78125c0.51041,0.52084 0.76563,1.125 0.76563,1.8125c0,0.71875 -0.25521,1.33854 -0.76562,1.85938c-0.51041,0.51041 -1.10937,0.76563 -1.79687,0.76563c-0.71875,0 -1.33854,-0.25521 -1.85937,-0.76562c-0.51041,-0.52084 -0.76562,-1.14062 -0.76562,-1.85937c0,-0.69791 0.25521,-1.30209 0.76563,-1.8125c0.52084,-0.52084 1.14063,-0.78125 1.85938,-0.78125zM243.12498,164.1432v12.92188c0,1.27083 -0.0625,2.14063 -0.1875,2.60938c-0.11459,0.46875 -0.41146,0.88541 -0.89062,1.25c-0.47916,0.36458 -1,0.54688 -1.5625,0.54688c-0.57291,0 -1.10937,-0.17709 -1.60937,-0.53125c-0.48959,-0.36459 -0.79687,-0.78646 -0.92187,-1.26563c-0.11459,-0.47917 -0.17187,-1.34896 -0.17187,-2.60937v-12.875c0,-1.1875 0.04688,-2.02604 0.14063,-2.51562c0.09375,-0.48958 0.375,-0.92187 0.84375,-1.29687c0.47916,-0.38541 1.03125,-0.57813 1.65625,-0.57813c0.63541,0 1.18229,0.17188 1.64063,0.51563c0.45834,0.34375 0.75,0.78125 0.875,1.3125c0.125,0.52083 0.1875,1.35938 0.1875,2.51563zM253.96482,156.25258v20.8125c0,1.28125 -0.0625,2.15625 -0.1875,2.625c-0.11459,0.45833 -0.41146,0.86979 -0.89062,1.23438c-0.47916,0.36458 -1,0.54688 -1.5625,0.54688c-0.57291,0 -1.10937,-0.17709 -1.60937,-0.53125c-0.48959,-0.36459 -0.79687,-0.78646 -0.92187,-1.26563c-0.11459,-0.47917 -0.17187,-1.34896 -0.17187,-2.60937v-20.8125c0,-1.3125 0.0625,-2.19791 0.1875,-2.65625c0.125,-0.46875 0.42188,-0.875 0.89063,-1.21875c0.47916,-0.34375 1,-0.51562 1.5625,-0.51562c0.65625,0 1.21875,0.1875 1.6875,0.5625c0.47916,0.36459 0.76563,0.80209 0.85938,1.3125c0.10416,0.5 0.15625,1.33854 0.15625,2.51563zM264.80467,156.25258v20.8125c0,1.28125 -0.0625,2.15625 -0.1875,2.625c-0.11459,0.45833 -0.41146,0.86979 -0.89062,1.23438c-0.47917,0.36458 -1,0.54688 -1.5625,0.54688c-0.57292,0 -1.10937,-0.17709 -1.60937,-0.53125c-0.48959,-0.36459 -0.79688,-0.78646 -0.92188,-1.26563c-0.11458,-0.47917 -0.17187,-1.34896 -0.17187,-2.60937v-20.8125c0,-1.3125 0.0625,-2.19791 0.1875,-2.65625c0.125,-0.46875 0.42188,-0.875 0.89063,-1.21875c0.47916,-0.34375 1,-0.51562 1.5625,-0.51562c0.65625,0 1.21875,0.1875 1.6875,0.5625c0.47916,0.36459 0.76563,0.80209 0.85938,1.3125c0.10416,0.5 0.15625,1.33854 0.15625,2.51563z" fill="#ffffff" stroke="none" stroke-width="1" stroke-linecap="square"/><path d="M235.12317,193.38314l0.94114,9.72512" fill="none" stroke="#443532" stroke-width="2" stroke-linecap="round"/><path d="M243.30773,196.09457l-1.28286,7.0137" fill="none" stroke="#443532" stroke-width="2" stroke-linecap="round"/></g></g></svg>