<svg version="1.1" xmlns="http://www.w3.org/2000/svg" xmlns:xlink="http://www.w3.org/1999/xlink" width="278" height="43" viewBox="0,0,278,43"><g transform="translate(-89.36977,-253.29667)"><g data-paper-data="{&quot;isPaintingLayer&quot;:true}" fill-rule="nonzero" stroke-linejoin="miter" stroke-miterlimit="10" stroke-dasharray="" stroke-dashoffset="0" style="mix-blend-mode: normal"><path d="M89.36977,296.29668v-43h278v43z" fill="none" stroke="none" stroke-width="0" stroke-linecap="butt"/><path d="M121.1522,271.57918h8.08444l-0.19752,1.59431h-3.24506l-1.29803,10.58173h-1.67897l1.29802,-10.58173h-3.17452zM131.01275,283.89631c-0.50793,0 -0.99703,-0.13638 -1.46733,-0.40916c-0.4703,-0.28218 -0.84654,-0.67253 -1.12872,-1.17104c-0.28218,-0.50793 -0.42327,-1.1099 -0.42327,-1.80595c0,-0.47971 0.08465,-0.95 0.25396,-1.41089c0.17871,-0.4703 0.43268,-0.89827 0.76189,-1.28392c0.32921,-0.39505 0.72896,-0.71485 1.19926,-0.95941c0.4797,-0.24455 1.03466,-0.36683 1.66486,-0.36683c0.50793,0 0.9359,0.07525 1.28392,0.22574c0.34802,0.14109 0.6396,0.32921 0.87475,0.56436c0.23515,0.22575 0.42327,0.4844 0.56436,0.77599l-0.1552,0.3104l0.35272,-1.5802h1.425l-0.83243,6.96983h-1.5661l0.21164,-1.76362l0.12698,0.39505c-0.07525,0.10347 -0.19752,0.24456 -0.36683,0.42327c-0.15991,0.16931 -0.37624,0.33861 -0.64901,0.50792c-0.26336,0.16931 -0.57376,0.3104 -0.93119,0.42327c-0.34802,0.10347 -0.74778,0.1552 -1.19926,0.1552zM131.87339,282.6265c0.33862,0 0.65842,-0.07054 0.95941,-0.21164c0.31039,-0.14109 0.57846,-0.33862 0.80421,-0.59258c0.23515,-0.25396 0.41387,-0.55965 0.53614,-0.91708l0.14109,-1.36857c-0.03762,-0.34802 -0.1552,-0.64901 -0.35272,-0.90297c-0.19753,-0.25396 -0.45619,-0.45619 -0.77599,-0.60669c-0.31039,-0.1599 -0.65842,-0.23985 -1.04406,-0.23985c-0.45148,0 -0.84184,0.08465 -1.17105,0.25396c-0.3198,0.16931 -0.58317,0.38564 -0.7901,0.64901c-0.19753,0.26337 -0.34331,0.54084 -0.43738,0.83243c-0.08465,0.28218 -0.12698,0.54555 -0.12698,0.7901c0,0.45148 0.09406,0.85124 0.28218,1.19926c0.19753,0.34802 0.46559,0.6208 0.80421,0.81832c0.34802,0.19752 0.73837,0.29629 1.17104,0.29629zM142.02152,283.92453c-0.53614,0 -1.05346,-0.13169 -1.55199,-0.39506c-0.49852,-0.27278 -0.84654,-0.61139 -1.04406,-1.01585l0.36684,-0.40916l-0.55025,5.00869h-1.55199l1.29802,-10.42653h1.34035l-0.05643,1.77773l-0.33862,-0.49381c0.45148,-0.43268 0.9547,-0.7854 1.50966,-1.05818c0.55496,-0.28218 1.1052,-0.42327 1.65075,-0.42327c0.60198,0 1.14283,0.13638 1.62253,0.40916c0.48911,0.27278 0.87475,0.64431 1.15694,1.11461c0.29158,0.4703 0.43738,1.02055 0.43738,1.65075c0,0.76189 -0.17871,1.46733 -0.53614,2.11635c-0.35743,0.63961 -0.86065,1.15693 -1.50966,1.55199c-0.63961,0.39505 -1.38739,0.59258 -2.24333,0.59258zM141.97919,282.59828c0.54555,0 1.02055,-0.12228 1.425,-0.36683c0.41386,-0.25396 0.73367,-0.58787 0.95941,-1.00173c0.23515,-0.41386 0.35272,-0.85125 0.35272,-1.31214c0,-0.43268 -0.09876,-0.80892 -0.29629,-1.12871c-0.19753,-0.32921 -0.46089,-0.58317 -0.7901,-0.76189c-0.3198,-0.17871 -0.67723,-0.26807 -1.07228,-0.26807c-0.36684,0 -0.71016,0.07524 -1.02996,0.22574c-0.3198,0.15049 -0.60199,0.35743 -0.84654,0.62079c-0.24455,0.26337 -0.43738,0.57376 -0.57847,0.9312l-0.1552,1.26981c0.03762,0.18812 0.09876,0.39034 0.18341,0.60668c0.09406,0.20693 0.21634,0.39976 0.36684,0.57847c0.15991,0.17871 0.36213,0.3245 0.60668,0.43737c0.25396,0.11287 0.54555,0.16931 0.87475,0.16931zM155.18081,278.11163c0.301,-0.4703 0.71486,-0.85124 1.24159,-1.14283c0.52674,-0.301 1.12872,-0.45148 1.80595,-0.45148c0.65841,0 1.17104,0.19282 1.53788,0.57846c0.37624,0.38565 0.53614,0.88887 0.4797,1.50966l-0.6349,5.14978h-1.5661l0.55025,-4.65596c0.01881,-0.35743 -0.06115,-0.64901 -0.23986,-0.87476c-0.16931,-0.23515 -0.46089,-0.35743 -0.87475,-0.36683c-0.41386,0 -0.79951,0.11758 -1.15694,0.35273c-0.35743,0.22575 -0.65372,0.53614 -0.88887,0.93119c-0.22574,0.39505 -0.37154,0.84184 -0.43738,1.34036l-0.40916,3.27328h-1.5661l1.58021,-13.03669h1.55199l-0.9453,7.73172zM165.97816,282.57006c0.28218,0 0.55025,-0.04703 0.80421,-0.14109c0.26336,-0.09406 0.51262,-0.21163 0.74777,-0.35272l0.56436,1.18515c-0.33862,0.20693 -0.70545,0.36684 -1.1005,0.47971c-0.39505,0.11287 -0.7854,0.16931 -1.17104,0.16931c-0.73367,0 -1.37797,-0.13638 -1.93293,-0.40916c-0.54555,-0.28218 -0.97352,-0.68664 -1.28392,-1.21337c-0.301,-0.52673 -0.45148,-1.16165 -0.45148,-1.90472c0,-0.46089 0.08465,-0.91237 0.25396,-1.35446c0.16931,-0.45148 0.41857,-0.86535 0.74778,-1.24159c0.33862,-0.37624 0.75718,-0.67723 1.2557,-0.90298c0.49852,-0.23515 1.08168,-0.35272 1.74951,-0.35272c0.41386,0 0.80892,0.05173 1.18516,0.15519c0.37624,0.10347 0.71956,0.28218 1.02996,0.53614c0.3198,0.24455 0.58787,0.57377 0.80421,0.98763c0.22574,0.41386 0.38094,0.92649 0.46559,1.53788l-5.96809,1.67897l-0.25396,-0.95941l5.09334,-1.46733l-0.55025,0.25396c-0.11287,-0.43268 -0.33862,-0.79011 -0.67723,-1.07229c-0.32921,-0.28218 -0.72427,-0.42326 -1.18516,-0.42326c-0.48911,0 -0.91708,0.11757 -1.28391,0.35272c-0.35743,0.22575 -0.6302,0.52673 -0.81832,0.90297c-0.18812,0.36683 -0.28218,0.76189 -0.28218,1.18516c0,0.53614 0.10346,0.97823 0.31039,1.32625c0.21634,0.34802 0.49852,0.61139 0.84654,0.7901c0.34802,0.16931 0.71485,0.25396 1.1005,0.25396zM173.35821,276.78539l-0.12698,1.69307c0.23515,-0.42327 0.53144,-0.78069 0.88887,-1.07228c0.35743,-0.29158 0.72896,-0.51263 1.1146,-0.66312c0.38565,-0.15049 0.74308,-0.22574 1.07229,-0.22574l-0.25397,1.53787c-0.52674,-0.02822 -1.00644,0.07525 -1.43911,0.3104c-0.43267,0.23515 -0.78539,0.55025 -1.05817,0.9453c-0.27277,0.39505 -0.43738,0.81362 -0.49382,1.2557l-0.39505,3.18863h-1.55199l0.84654,-6.96983zM180.81942,282.57006c0.28218,0 0.55025,-0.04703 0.80421,-0.14109c0.26336,-0.09406 0.51263,-0.21163 0.74778,-0.35272l0.56436,1.18515c-0.33862,0.20693 -0.70545,0.36684 -1.1005,0.47971c-0.39505,0.11287 -0.7854,0.16931 -1.17104,0.16931c-0.73367,0 -1.37797,-0.13638 -1.93293,-0.40916c-0.54555,-0.28218 -0.97352,-0.68664 -1.28392,-1.21337c-0.301,-0.52673 -0.45148,-1.16165 -0.45148,-1.90472c0,-0.46089 0.08465,-0.91237 0.25396,-1.35446c0.16931,-0.45148 0.41857,-0.86535 0.74777,-1.24159c0.33862,-0.37624 0.75718,-0.67723 1.2557,-0.90298c0.49852,-0.23515 1.08169,-0.35272 1.74951,-0.35272c0.41386,0 0.80892,0.05173 1.18516,0.15519c0.37624,0.10347 0.71956,0.28218 1.02995,0.53614c0.3198,0.24455 0.58787,0.57377 0.80421,0.98763c0.22574,0.41386 0.38094,0.92649 0.4656,1.53788l-5.9681,1.67897l-0.25396,-0.95941l5.09334,-1.46733l-0.55025,0.25396c-0.11287,-0.43268 -0.33862,-0.79011 -0.67723,-1.07229c-0.32921,-0.28218 -0.72426,-0.42326 -1.18515,-0.42326c-0.48911,0 -0.91708,0.11757 -1.28392,0.35272c-0.35743,0.22575 -0.6302,0.52673 -0.81832,0.90297c-0.18812,0.36683 -0.28218,0.76189 -0.28218,1.18516c0,0.53614 0.10346,0.97823 0.31039,1.32625c0.21634,0.34802 0.49852,0.61139 0.84654,0.7901c0.34802,0.16931 0.71486,0.25396 1.1005,0.25396zM192.85823,273.70963h1.5661l-0.36683,3.10397h1.91882l-0.1552,1.22749h-1.91882l-0.69134,5.71413h-1.5661l0.69134,-5.71413h-1.28391l0.14108,-1.22749h1.29803zM200.54266,283.92453c-0.44208,0 -0.88416,-0.07054 -1.32624,-0.21164c-0.43269,-0.15049 -0.82775,-0.36684 -1.18518,-0.64902c-0.35743,-0.29158 -0.64431,-0.64901 -0.86065,-1.07228c-0.20693,-0.43268 -0.31039,-0.92649 -0.31039,-1.48145c0,-0.44209 0.07525,-0.89357 0.22575,-1.35446c0.1505,-0.4703 0.38094,-0.90297 0.69133,-1.29802c0.3198,-0.39505 0.73368,-0.71485 1.24162,-0.95941c0.50793,-0.24455 1.12872,-0.36683 1.86238,-0.36683c0.63961,0 1.23688,0.13638 1.79184,0.40916c0.55496,0.26337 1.00645,0.65371 1.35447,1.17104c0.35743,0.50793 0.53614,1.11931 0.53614,1.83417c0,0.29158 -0.04233,0.62079 -0.12698,0.98763c-0.08465,0.36683 -0.22104,0.72426 -0.40916,1.07228c-0.17871,0.34802 -0.42328,0.66783 -0.73367,0.95941c-0.31039,0.29158 -0.69134,0.52673 -1.14282,0.70544c-0.45148,0.16931 -0.98763,0.25396 -1.60842,0.25396zM200.5991,282.6265c0.56436,0 1.02055,-0.13639 1.36857,-0.40916c0.35743,-0.28218 0.61139,-0.6208 0.76188,-1.01585c0.15991,-0.40445 0.23985,-0.7995 0.23985,-1.18515c0,-0.39505 -0.06584,-0.72897 -0.19753,-1.00174c-0.13169,-0.27278 -0.30569,-0.49852 -0.52203,-0.67723c-0.21634,-0.18812 -0.45149,-0.3198 -0.70545,-0.39505c-0.25396,-0.08465 -0.49382,-0.12698 -0.71956,-0.12698c-0.55496,0 -1.01114,0.13638 -1.36857,0.40916c-0.35743,0.26337 -0.61608,0.60198 -0.77599,1.01585c-0.15992,0.40445 -0.23988,0.79951 -0.23988,1.18516c0,0.49852 0.10818,0.91238 0.32453,1.24159c0.21634,0.32921 0.49381,0.57376 0.83243,0.73367c0.33862,0.15049 0.67253,0.22575 1.00174,0.22575zM215.21773,283.92453c-0.53614,0 -1.05346,-0.13169 -1.55199,-0.39506c-0.49852,-0.27278 -0.84654,-0.61139 -1.04406,-1.01585l0.36683,-0.40916l-0.55024,5.00869h-1.55199l1.29802,-10.42653h1.34036l-0.05644,1.77773l-0.33862,-0.49381c0.45148,-0.43268 0.9547,-0.7854 1.50966,-1.05818c0.55496,-0.28218 1.10521,-0.42327 1.65075,-0.42327c0.60198,0 1.14283,0.13638 1.62253,0.40916c0.48911,0.27278 0.87475,0.64431 1.15694,1.11461c0.29158,0.4703 0.43737,1.02055 0.43737,1.65075c0,0.76189 -0.17871,1.46733 -0.53614,2.11635c-0.35743,0.63961 -0.86065,1.15693 -1.50966,1.55199c-0.63961,0.39505 -1.38738,0.59258 -2.24332,0.59258zM215.1754,282.59828c0.54555,0 1.02055,-0.12228 1.425,-0.36683c0.41386,-0.25396 0.73367,-0.58787 0.95941,-1.00173c0.23515,-0.41386 0.35273,-0.85125 0.35273,-1.31214c0,-0.43268 -0.09876,-0.80892 -0.29629,-1.12871c-0.19753,-0.32921 -0.4609,-0.58317 -0.79011,-0.76189c-0.3198,-0.17871 -0.67723,-0.26807 -1.07228,-0.26807c-0.36684,0 -0.71016,0.07524 -1.02996,0.22574c-0.3198,0.15049 -0.60198,0.35743 -0.84654,0.62079c-0.24455,0.26337 -0.43738,0.57376 -0.57847,0.9312l-0.1552,1.26981c0.03762,0.18812 0.09876,0.39034 0.18342,0.60668c0.09406,0.20693 0.21633,0.39976 0.36683,0.57847c0.15991,0.17871 0.36213,0.3245 0.60668,0.43737c0.25396,0.11287 0.54555,0.16931 0.87476,0.16931zM224.64944,283.92453c-0.44208,0 -0.88416,-0.07054 -1.32624,-0.21164c-0.43267,-0.15049 -0.82773,-0.36684 -1.18516,-0.64902c-0.35743,-0.29158 -0.64431,-0.64901 -0.86065,-1.07228c-0.20693,-0.43268 -0.3104,-0.92649 -0.3104,-1.48145c0,-0.44209 0.07525,-0.89357 0.22574,-1.35446c0.1505,-0.4703 0.38094,-0.90297 0.69134,-1.29802c0.3198,-0.39505 0.73367,-0.71485 1.24159,-0.95941c0.50793,-0.24455 1.12872,-0.36683 1.86238,-0.36683c0.63961,0 1.23689,0.13638 1.79184,0.40916c0.55496,0.26337 1.00644,0.65371 1.35446,1.17104c0.35743,0.50793 0.53614,1.11931 0.53614,1.83417c0,0.29158 -0.04233,0.62079 -0.12698,0.98763c-0.08465,0.36683 -0.22104,0.72426 -0.40916,1.07228c-0.17871,0.34802 -0.42328,0.66783 -0.73367,0.95941c-0.31039,0.29158 -0.69134,0.52673 -1.14282,0.70544c-0.45148,0.16931 -0.98763,0.25396 -1.60842,0.25396zM224.70587,282.6265c0.56436,0 1.02055,-0.13639 1.36857,-0.40916c0.35743,-0.28218 0.61139,-0.6208 0.76188,-1.01585c0.15991,-0.40445 0.23985,-0.7995 0.23985,-1.18515c0,-0.39505 -0.06584,-0.72897 -0.19753,-1.00174c-0.13169,-0.27278 -0.30569,-0.49852 -0.52203,-0.67723c-0.21634,-0.18812 -0.45149,-0.3198 -0.70545,-0.39505c-0.25396,-0.08465 -0.49381,-0.12698 -0.71956,-0.12698c-0.55496,0 -1.01114,0.13638 -1.36857,0.40916c-0.35743,0.26337 -0.61609,0.60198 -0.77599,1.01585c-0.15991,0.40445 -0.23986,0.79951 -0.23986,1.18516c0,0.49852 0.10817,0.91238 0.32451,1.24159c0.21634,0.32921 0.49381,0.57376 0.83243,0.73367c0.33862,0.15049 0.67253,0.22575 1.00174,0.22575zM232.52117,283.89631c-0.22574,0 -0.50793,-0.03292 -0.84654,-0.09876c-0.32921,-0.06584 -0.65841,-0.18341 -0.98762,-0.35272c-0.32921,-0.17871 -0.6255,-0.43268 -0.88887,-0.76189l0.77599,-0.86065c0.22574,0.26337 0.45148,0.46559 0.67723,0.60668c0.23515,0.14109 0.46089,0.23515 0.67723,0.28218c0.21634,0.03762 0.41387,0.05644 0.59258,0.05644c0.40446,0 0.69604,-0.10347 0.87475,-0.3104c0.17871,-0.21634 0.26807,-0.41857 0.26807,-0.60669c0,-0.23515 -0.07525,-0.42327 -0.22575,-0.56436c-0.14109,-0.14109 -0.32921,-0.25866 -0.56436,-0.35272c-0.22574,-0.09406 -0.46089,-0.18812 -0.70545,-0.28218c-0.50793,-0.19752 -0.89357,-0.45148 -1.15694,-0.76188c-0.26336,-0.3104 -0.39505,-0.68194 -0.39505,-1.11461c0,-0.22575 0.04233,-0.4656 0.12698,-0.71956c0.09406,-0.25396 0.23515,-0.49381 0.42327,-0.71955c0.18812,-0.22575 0.43738,-0.40916 0.74777,-0.55025c0.3198,-0.15049 0.71485,-0.22575 1.18515,-0.22575c0.21634,0 0.4656,0.02351 0.74778,0.07054c0.29158,0.03762 0.59258,0.12228 0.90297,0.25396c0.31039,0.12228 0.59258,0.3198 0.84654,0.59258l-0.71956,0.91708c-0.22574,-0.26337 -0.4797,-0.44678 -0.76188,-0.55025c-0.28218,-0.11287 -0.55496,-0.16931 -0.81832,-0.16931c-0.25396,0 -0.46088,0.04233 -0.62079,0.12698c-0.1505,0.08465 -0.26337,0.19752 -0.33862,0.33862c-0.07525,0.13169 -0.11287,0.26337 -0.11287,0.39505c0,0.21634 0.07055,0.39035 0.21164,0.52204c0.1505,0.13169 0.33862,0.24455 0.56436,0.33862c0.22574,0.08465 0.45149,0.17871 0.67723,0.28218c0.3198,0.12228 0.60199,0.27277 0.84654,0.45148c0.24455,0.16931 0.43267,0.38094 0.56436,0.63491c0.14109,0.25396 0.19753,0.57376 0.16931,0.95941c-0.01881,0.23515 -0.08466,0.48441 -0.19753,0.74777c-0.11287,0.25396 -0.27747,0.48911 -0.49381,0.70545c-0.20693,0.21634 -0.4797,0.39034 -0.81832,0.52203c-0.33862,0.13169 -0.74778,0.19752 -1.22748,0.19752zM239.08399,273.70963h1.56609l-0.36684,3.10397h1.91882l-0.15519,1.22749h-1.91882l-0.69134,5.71413h-1.5661l0.69134,-5.71413h-1.28392l0.14109,-1.22749h1.29802zM250.49597,283.89631c-0.22574,0 -0.50793,-0.03292 -0.84654,-0.09876c-0.32921,-0.06584 -0.65842,-0.18341 -0.98763,-0.35272c-0.32921,-0.17871 -0.6255,-0.43268 -0.88887,-0.76189l0.77599,-0.86065c0.22574,0.26337 0.45149,0.46559 0.67723,0.60668c0.23515,0.14109 0.46089,0.23515 0.67723,0.28218c0.21634,0.03762 0.41387,0.05644 0.59258,0.05644c0.40446,0 0.69604,-0.10347 0.87475,-0.3104c0.17871,-0.21634 0.26807,-0.41857 0.26807,-0.60669c0,-0.23515 -0.07524,-0.42327 -0.22574,-0.56436c-0.14109,-0.14109 -0.32921,-0.25866 -0.56436,-0.35272c-0.22574,-0.09406 -0.4609,-0.18812 -0.70545,-0.28218c-0.50793,-0.19752 -0.89357,-0.45148 -1.15694,-0.76188c-0.26336,-0.3104 -0.39505,-0.68194 -0.39505,-1.11461c0,-0.22575 0.04233,-0.4656 0.12698,-0.71956c0.09406,-0.25396 0.23515,-0.49381 0.42327,-0.71955c0.18812,-0.22575 0.43738,-0.40916 0.74778,-0.55025c0.3198,-0.15049 0.71485,-0.22575 1.18515,-0.22575c0.21634,0 0.4656,0.02351 0.74778,0.07054c0.29158,0.03762 0.59257,0.12228 0.90297,0.25396c0.31039,0.12228 0.59258,0.3198 0.84654,0.59258l-0.71955,0.91708c-0.22574,-0.26337 -0.4797,-0.44678 -0.76189,-0.55025c-0.28218,-0.11287 -0.55496,-0.16931 -0.81832,-0.16931c-0.25396,0 -0.46089,0.04233 -0.6208,0.12698c-0.1505,0.08465 -0.26336,0.19752 -0.33862,0.33862c-0.07525,0.13169 -0.11287,0.26337 -0.11287,0.39505c0,0.21634 0.07054,0.39035 0.21163,0.52204c0.1505,0.13169 0.33862,0.24455 0.56436,0.33862c0.22574,0.08465 0.45148,0.17871 0.67723,0.28218c0.3198,0.12228 0.60199,0.27277 0.84654,0.45148c0.24455,0.16931 0.43267,0.38094 0.56436,0.63491c0.14109,0.25396 0.19753,0.57376 0.16931,0.95941c-0.01881,0.23515 -0.08465,0.48441 -0.19752,0.74777c-0.11287,0.25396 -0.27748,0.48911 -0.49382,0.70545c-0.20693,0.21634 -0.4797,0.39034 -0.81832,0.52203c-0.33862,0.13169 -0.74777,0.19752 -1.22748,0.19752zM258.69543,283.92453c-0.44209,0 -0.88416,-0.07054 -1.32625,-0.21164c-0.43268,-0.15049 -0.82772,-0.36684 -1.18515,-0.64902c-0.35743,-0.29158 -0.64431,-0.64901 -0.86065,-1.07228c-0.20693,-0.43268 -0.31039,-0.92649 -0.31039,-1.48145c0,-0.44209 0.07525,-0.89357 0.22575,-1.35446c0.1505,-0.4703 0.38094,-0.90297 0.69134,-1.29802c0.3198,-0.39505 0.73366,-0.71485 1.24159,-0.95941c0.50793,-0.24455 1.12872,-0.36683 1.86239,-0.36683c0.63961,0 1.23688,0.13638 1.79184,0.40916c0.55496,0.26337 1.00644,0.65371 1.35446,1.17104c0.35743,0.50793 0.53614,1.11931 0.53614,1.83417c0,0.29158 -0.04233,0.62079 -0.12698,0.98763c-0.08465,0.36683 -0.22104,0.72426 -0.40916,1.07228c-0.17871,0.34802 -0.42327,0.66783 -0.73366,0.95941c-0.3104,0.29158 -0.69134,0.52673 -1.14283,0.70544c-0.45148,0.16931 -0.98763,0.25396 -1.60843,0.25396zM258.75186,282.6265c0.56436,0 1.02055,-0.13639 1.36857,-0.40916c0.35743,-0.28218 0.61139,-0.6208 0.76189,-1.01585c0.1599,-0.40445 0.23985,-0.7995 0.23985,-1.18515c0,-0.39505 -0.06584,-0.72897 -0.19752,-1.00174c-0.13169,-0.27278 -0.3057,-0.49852 -0.52204,-0.67723c-0.21634,-0.18812 -0.45149,-0.3198 -0.70545,-0.39505c-0.25396,-0.08465 -0.49381,-0.12698 -0.71956,-0.12698c-0.55496,0 -1.01114,0.13638 -1.36857,0.40916c-0.35743,0.26337 -0.61609,0.60198 -0.776,1.01585c-0.1599,0.40445 -0.23985,0.79951 -0.23985,1.18516c0,0.49852 0.10816,0.91238 0.3245,1.24159c0.21634,0.32921 0.49382,0.57376 0.83243,0.73367c0.33862,0.15049 0.67253,0.22575 1.00173,0.22575zM266.66595,276.78539l-0.05644,1.59431l-0.04233,-0.25396c0.33862,-0.50793 0.75718,-0.90297 1.2557,-1.18515c0.49852,-0.28218 1.06288,-0.42327 1.69308,-0.42327c0.57376,0 1.02525,0.12228 1.35446,0.36683c0.33862,0.24455 0.53614,0.61609 0.59257,1.11461l-0.04233,0.04233c0.32921,-0.46089 0.74307,-0.82772 1.24159,-1.1005c0.50793,-0.28218 1.02996,-0.42327 1.5661,-0.42327c0.68664,0 1.20396,0.19282 1.55199,0.57846c0.34802,0.38565 0.49381,0.88887 0.43738,1.50966l-0.62079,5.14978h-1.5661l0.55025,-4.59953c0.03762,-0.35743 -0.01411,-0.65372 -0.1552,-0.88887c-0.13169,-0.23515 -0.39035,-0.36683 -0.776,-0.39505c-0.42327,0 -0.80891,0.12228 -1.15693,0.36683c-0.34802,0.24455 -0.6349,0.55966 -0.86065,0.9453c-0.22575,0.38565 -0.37154,0.80421 -0.43738,1.25569l-0.40916,3.31561h-1.58021l0.57847,-4.59953c0.01882,-0.35743 -0.04233,-0.65372 -0.18342,-0.88887c-0.14109,-0.23515 -0.40916,-0.36683 -0.80421,-0.39505c-0.41386,0 -0.7948,0.12228 -1.14283,0.36683c-0.34802,0.24455 -0.6349,0.56436 -0.86065,0.95941c-0.21634,0.38565 -0.35273,0.80421 -0.40916,1.2557l-0.40916,3.3015h-1.5661l0.84654,-6.96983zM281.96349,282.57006c0.28218,0 0.55025,-0.04703 0.80421,-0.14109c0.26337,-0.09406 0.51263,-0.21163 0.74777,-0.35272l0.56436,1.18515c-0.33862,0.20693 -0.70545,0.36684 -1.1005,0.47971c-0.39505,0.11287 -0.7854,0.16931 -1.17104,0.16931c-0.73366,0 -1.37797,-0.13638 -1.93293,-0.40916c-0.54555,-0.28218 -0.97352,-0.68664 -1.28392,-1.21337c-0.301,-0.52673 -0.45149,-1.16165 -0.45149,-1.90472c0,-0.46089 0.08465,-0.91237 0.25396,-1.35446c0.16931,-0.45148 0.41857,-0.86535 0.74777,-1.24159c0.33862,-0.37624 0.75718,-0.67723 1.2557,-0.90298c0.49852,-0.23515 1.08169,-0.35272 1.74952,-0.35272c0.41386,0 0.80892,0.05173 1.18516,0.15519c0.37624,0.10347 0.71955,0.28218 1.02995,0.53614c0.3198,0.24455 0.58787,0.57377 0.80421,0.98763c0.22575,0.41386 0.38094,0.92649 0.4656,1.53788l-5.9681,1.67897l-0.25396,-0.95941l5.09333,-1.46733l-0.55025,0.25396c-0.11287,-0.43268 -0.33862,-0.79011 -0.67723,-1.07229c-0.32921,-0.28218 -0.72426,-0.42326 -1.18515,-0.42326c-0.48911,0 -0.91708,0.11757 -1.28392,0.35272c-0.35743,0.22575 -0.6302,0.52673 -0.81832,0.90297c-0.18812,0.36683 -0.28218,0.76189 -0.28218,1.18516c0,0.53614 0.10347,0.97823 0.3104,1.32625c0.21634,0.34802 0.49852,0.61139 0.84654,0.7901c0.34802,0.16931 0.71486,0.25396 1.1005,0.25396zM288.94847,273.70963h1.56607l-0.36684,3.10397h1.91882l-0.1552,1.22749h-1.91882l-0.69131,5.71413h-1.5661l0.69134,-5.71413h-1.28392l0.14109,-1.22749h1.29802zM295.30663,278.11163c0.301,-0.4703 0.71486,-0.85124 1.24159,-1.14283c0.52673,-0.301 1.12872,-0.45148 1.80595,-0.45148c0.65841,0 1.17104,0.19282 1.53787,0.57846c0.37624,0.38565 0.53614,0.88887 0.47971,1.50966l-0.6349,5.14978h-1.5661l0.55025,-4.65596c0.01882,-0.35743 -0.06114,-0.64901 -0.23985,-0.87476c-0.16931,-0.23515 -0.46089,-0.35743 -0.87475,-0.36683c-0.41386,0 -0.79951,0.11758 -1.15694,0.35273c-0.35743,0.22575 -0.65372,0.53614 -0.88887,0.93119c-0.22575,0.39505 -0.37154,0.84184 -0.43738,1.34036l-0.40916,3.27328h-1.56609l1.5802,-13.03669h1.55199l-0.9453,7.73172zM303.31039,276.78539h1.5661l-0.86065,6.96983h-1.56609zM303.42326,274.44329c0,-0.26337 0.09406,-0.48441 0.28218,-0.66312c0.19752,-0.17871 0.43738,-0.26807 0.71956,-0.26807c0.20693,0 0.40916,0.07054 0.60668,0.21164c0.19752,0.13169 0.29158,0.33861 0.28218,0.62079c-0.00941,0.25396 -0.11287,0.4703 -0.3104,0.64901c-0.18812,0.17871 -0.42327,0.26807 -0.70544,0.26807c-0.21634,0 -0.41857,-0.07054 -0.60669,-0.21164c-0.18812,-0.14109 -0.27748,-0.34332 -0.26808,-0.60669zM309.00021,276.78539l-0.01411,1.5802l-0.12698,-0.22575c0.3104,-0.47971 0.72426,-0.87005 1.24159,-1.17104c0.52673,-0.301 1.12872,-0.45148 1.80595,-0.45148c0.67723,0 1.20397,0.19282 1.58021,0.57846c0.37624,0.38565 0.53614,0.88887 0.4797,1.50966l-0.63491,5.14978h-1.56609l0.55025,-4.61364c0.04703,-0.38565 -0.02822,-0.69604 -0.22574,-0.93119c-0.19752,-0.23515 -0.51732,-0.35273 -0.95941,-0.35273c-0.41386,0 -0.7948,0.11758 -1.14283,0.35273c-0.34802,0.22575 -0.63491,0.53614 -0.86065,0.93119c-0.21634,0.39505 -0.35272,0.84184 -0.40916,1.34036l-0.40916,3.27328h-1.5661l0.84654,-6.96983zM319.36017,287.21191c-0.56436,0 -1.05347,-0.06114 -1.46733,-0.18342c-0.41386,-0.11287 -0.7901,-0.28217 -1.12872,-0.50792c-0.32921,-0.22575 -0.64431,-0.48441 -0.9453,-0.776l1.05818,-1.05818c0.25396,0.25396 0.50793,0.4656 0.76189,0.63491c0.26337,0.17871 0.54554,0.3057 0.84654,0.38094c0.3104,0.08465 0.64431,0.12698 1.00174,0.12698c0.46089,0 0.86064,-0.08465 1.19926,-0.25396c0.33862,-0.1599 0.60669,-0.39034 0.80421,-0.69134c0.19752,-0.29158 0.3198,-0.63491 0.36683,-1.02996l0.22575,-1.8906l0.12698,0.29629c-0.23515,0.47971 -0.61139,0.87476 -1.12872,1.18516c-0.50793,0.3104 -1.1099,0.4656 -1.80595,0.4656c-0.64902,0 -1.23219,-0.14109 -1.74951,-0.42327c-0.50793,-0.29158 -0.91237,-0.70545 -1.21337,-1.24159c-0.29158,-0.53614 -0.43738,-1.16634 -0.43738,-1.8906c0,-0.37624 0.07525,-0.78539 0.22575,-1.22748c0.15049,-0.44209 0.38565,-0.86065 0.70545,-1.2557c0.3198,-0.40445 0.72896,-0.72897 1.22748,-0.97352c0.49852,-0.25396 1.09579,-0.38094 1.79184,-0.38094c0.69605,0 1.28862,0.13169 1.77773,0.39505c0.49852,0.26337 0.84654,0.60198 1.04406,1.01584l-0.18342,0.32451l0.39506,-1.46733h1.43911l-0.91708,7.32255c-0.06584,0.6302 -0.27747,1.17575 -0.63491,1.63664c-0.34802,0.46089 -0.81361,0.81832 -1.39678,1.07228c-0.57376,0.26337 -1.23689,0.39505 -1.98937,0.39505zM320.12205,277.78712c-0.49852,0 -0.91708,0.08936 -1.2557,0.26807c-0.33862,0.16931 -0.61139,0.39035 -0.81832,0.66313c-0.20693,0.27278 -0.35743,0.55495 -0.45149,0.84653c-0.08465,0.28218 -0.12698,0.54555 -0.12698,0.79011c0,0.45148 0.09406,0.84653 0.28218,1.18515c0.19752,0.33862 0.4703,0.60669 0.81832,0.80421c0.34802,0.18812 0.75718,0.28218 1.22748,0.28218c0.34802,0 0.68194,-0.07054 1.00174,-0.21164c0.32921,-0.15049 0.61609,-0.35273 0.86064,-0.60669c0.24455,-0.25396 0.43268,-0.54085 0.56436,-0.86065l0.16931,-1.41089c-0.05644,-0.32921 -0.19282,-0.6255 -0.40916,-0.88887c-0.21634,-0.26337 -0.4797,-0.4703 -0.7901,-0.62079c-0.3104,-0.1599 -0.66783,-0.23985 -1.07228,-0.23985zM330.95212,282.96512c0,-0.28218 0.10816,-0.51733 0.3245,-0.70545c0.21634,-0.19752 0.44208,-0.29629 0.67723,-0.29629c0.19752,0 0.37154,0.07995 0.52204,0.23986c0.1599,0.1599 0.23985,0.35272 0.23985,0.57846c0,0.18812 -0.05173,0.35743 -0.15519,0.50793c-0.09406,0.14109 -0.22104,0.25396 -0.38094,0.33862c-0.15049,0.08465 -0.30099,0.12698 -0.45148,0.12698c-0.20693,0 -0.39035,-0.07054 -0.55025,-0.21164c-0.15049,-0.15049 -0.22575,-0.34332 -0.22575,-0.57846zM333.73158,282.96512c0,-0.28218 0.10817,-0.51733 0.32451,-0.70545c0.21634,-0.19752 0.44208,-0.29629 0.67723,-0.29629c0.19752,0 0.37154,0.07995 0.52203,0.23986c0.1599,0.1599 0.23985,0.35272 0.23985,0.57846c0,0.18812 -0.05173,0.35743 -0.1552,0.50793c-0.09406,0.14109 -0.22104,0.25396 -0.38094,0.33862c-0.15049,0.08465 -0.29629,0.12698 -0.43738,0.12698c-0.20693,0 -0.39035,-0.07054 -0.55025,-0.21164c-0.1599,-0.15049 -0.23985,-0.34332 -0.23985,-0.57846zM336.52516,282.96512c0,-0.28218 0.10346,-0.51733 0.31039,-0.70545c0.21634,-0.19752 0.45149,-0.29629 0.70545,-0.29629c0.18812,0 0.35743,0.07995 0.50792,0.23986c0.1599,0.1599 0.23985,0.35272 0.23985,0.57846c0,0.18812 -0.05173,0.35743 -0.1552,0.50793c-0.09406,0.14109 -0.21634,0.25396 -0.36683,0.33862c-0.15049,0.08465 -0.3057,0.12698 -0.4656,0.12698c-0.20693,0 -0.39035,-0.07054 -0.55025,-0.21164c-0.15049,-0.15049 -0.22574,-0.34332 -0.22574,-0.57846zM339.30777,282.96512c0,-0.28218 0.10816,-0.51733 0.3245,-0.70545c0.21634,-0.19752 0.44208,-0.29629 0.67723,-0.29629c0.19752,0 0.37153,0.07995 0.52203,0.23986c0.1599,0.1599 0.23986,0.35272 0.23986,0.57846c0,0.18812 -0.05174,0.35743 -0.1552,0.50793c-0.09406,0.14109 -0.22103,0.25396 -0.38094,0.33862c-0.15049,0.08465 -0.301,0.12698 -0.45149,0.12698c-0.20693,0 -0.39035,-0.07054 -0.55025,-0.21164c-0.15049,-0.15049 -0.22574,-0.34332 -0.22574,-0.57846z" fill="#000000" stroke="none" stroke-width="1" stroke-linecap="square"/><g><path d="M90.75,277.79668c0,-5.2467 4.2533,-9.5 9.5,-9.5c5.2467,0 9.5,4.2533 9.5,9.5c0,5.2467 -4.2533,9.5 -9.5,9.5c-5.2467,0 -9.5,-4.2533 -9.5,-9.5z" fill="#e6e6e6" stroke="#e6e6e6" stroke-width="1" stroke-linecap="butt"/><path d="M100.25312,282.75428v-9.64074" fill="#414141" stroke="#000000" stroke-width="2" stroke-linecap="round"/><path d="M95.43276,277.93391h9.64074" fill="#414141" stroke="#000000" stroke-width="2" stroke-linecap="round"/></g></g></g></svg>