<svg version="1.1" xmlns="http://www.w3.org/2000/svg" xmlns:xlink="http://www.w3.org/1999/xlink" width="145.64565" height="66.06607" viewBox="0,0,145.64565,66.06607"><defs><linearGradient x1="229.10085" y1="197.14063" x2="229.10085" y2="221.14063" gradientUnits="userSpaceOnUse" id="color-1"><stop offset="0" stop-color="#3b3b3b" stop-opacity="0"/><stop offset="1" stop-color="#3b3b3b"/></linearGradient><linearGradient x1="229.10084" y1="221.14064" x2="229.10084" y2="197.14064" gradientUnits="userSpaceOnUse" id="color-2"><stop offset="0" stop-color="#3b3b3b" stop-opacity="0"/><stop offset="1" stop-color="#3b3b3b"/></linearGradient></defs><g transform="translate(-158.24808,-170.95275)"><g data-paper-data="{&quot;isPaintingLayer&quot;:true}" fill-rule="nonzero" stroke="none" stroke-width="0" stroke-linecap="butt" stroke-linejoin="miter" stroke-miterlimit="10" stroke-dasharray="" stroke-dashoffset="0" style="mix-blend-mode: normal"><path d="M270.93418,209.14063c0,6.62742 -18.72942,12 -41.83333,12c-23.10391,0 -41.83333,-5.37258 -41.83333,-12c0,-6.62742 18.72942,-12 41.83333,-12c23.10391,0 41.83333,5.37258 41.83333,12z" fill="url(#color-1)"/><path d="M229.10084,221.14064c-23.10391,0 -41.83333,-5.37258 -41.83333,-12c0,-6.62742 18.72942,-12 41.83333,-12c23.10391,0 41.83333,5.37258 41.83333,12c0,6.62742 -18.72942,12 -41.83333,12z" data-paper-data="{&quot;index&quot;:null}" fill="url(#color-2)"/><path d="M158.24808,237.01882v-66.06607h145.64565v66.06607z" fill="none"/></g></g></svg>