<svg version="1.1" xmlns="http://www.w3.org/2000/svg" xmlns:xlink="http://www.w3.org/1999/xlink" width="25.04693" height="33.81252" viewBox="0,0,25.04693,33.81252"><g transform="translate(-227.47653,-163.09374)"><g data-paper-data="{&quot;isPaintingLayer&quot;:true}" fill="#ffffff" fill-rule="nonzero" stroke-linecap="square" stroke-linejoin="miter" stroke-miterlimit="10" stroke-dasharray="" stroke-dashoffset="0" style="mix-blend-mode: normal"><path d="M247.00777,194.40621h-13.54687c-1.44792,0 -2.39062,-0.3125 -2.82812,-0.9375c-0.4375,-0.625 -0.65625,-1.19271 -0.65625,-1.70312c0,-0.98958 0.51563,-2.1875 1.54688,-3.59375c1.04167,-1.40625 2.97917,-3.29167 5.8125,-5.65625c2.84375,-2.375 4.69271,-4.08333 5.54688,-5.125c0.86458,-1.04167 1.29688,-2.19792 1.29688,-3.46875c0,-1.30208 -0.44271,-2.33333 -1.32812,-3.09375c-0.875,-0.77083 -1.92708,-1.15625 -3.15625,-1.15625c-1.0625,0 -2,0.28646 -2.8125,0.85938c-0.80208,0.57292 -1.39062,1.40625 -1.76562,2.5c-0.36458,1.08333 -0.72396,1.86979 -1.07812,2.35938c-0.34375,0.48958 -0.91667,0.73438 -1.71875,0.73438c-0.64583,0 -1.19271,-0.20833 -1.64062,-0.625c-0.4375,-0.42708 -0.65625,-1.00521 -0.65625,-1.73437c0,-2 0.84375,-3.85937 2.53125,-5.57812c1.69792,-1.72917 4.10417,-2.59375 7.21875,-2.59375c3.34375,0 5.79688,0.81771 7.35938,2.45313c1.57292,1.63542 2.35938,3.54167 2.35938,5.71875c0,1.72917 -0.52083,3.36979 -1.5625,4.92188c-1.03125,1.54167 -2.64583,3.19792 -4.84375,4.96875c-2.1875,1.77083 -3.59896,2.96354 -4.23437,3.57813c-0.625,0.60417 -1.34375,1.45833 -2.15625,2.5625h9.5625c1.46875,0 2.46354,0.20833 2.98438,0.625c0.52083,0.40625 0.78125,0.95833 0.78125,1.65625c0,0.77083 -0.23437,1.35417 -0.70312,1.75c-0.46875,0.38542 -1.23958,0.57813 -2.3125,0.57813z" stroke="#000000" stroke-width="5"/><path d="M247.00777,194.40621h-13.54687c-1.44792,0 -2.39062,-0.3125 -2.82812,-0.9375c-0.4375,-0.625 -0.65625,-1.19271 -0.65625,-1.70312c0,-0.98958 0.51563,-2.1875 1.54688,-3.59375c1.04167,-1.40625 2.97917,-3.29167 5.8125,-5.65625c2.84375,-2.375 4.69271,-4.08333 5.54688,-5.125c0.86458,-1.04167 1.29688,-2.19792 1.29688,-3.46875c0,-1.30208 -0.44271,-2.33333 -1.32812,-3.09375c-0.875,-0.77083 -1.92708,-1.15625 -3.15625,-1.15625c-1.0625,0 -2,0.28646 -2.8125,0.85938c-0.80208,0.57292 -1.39062,1.40625 -1.76562,2.5c-0.36458,1.08333 -0.72396,1.86979 -1.07812,2.35938c-0.34375,0.48958 -0.91667,0.73438 -1.71875,0.73438c-0.64583,0 -1.19271,-0.20833 -1.64062,-0.625c-0.4375,-0.42708 -0.65625,-1.00521 -0.65625,-1.73437c0,-2 0.84375,-3.85937 2.53125,-5.57812c1.69792,-1.72917 4.10417,-2.59375 7.21875,-2.59375c3.34375,0 5.79688,0.81771 7.35938,2.45313c1.57292,1.63542 2.35938,3.54167 2.35938,5.71875c0,1.72917 -0.52083,3.36979 -1.5625,4.92188c-1.03125,1.54167 -2.64583,3.19792 -4.84375,4.96875c-2.1875,1.77083 -3.59896,2.96354 -4.23437,3.57813c-0.625,0.60417 -1.34375,1.45833 -2.15625,2.5625h9.5625c1.46875,0 2.46354,0.20833 2.98438,0.625c0.52083,0.40625 0.78125,0.95833 0.78125,1.65625c0,0.77083 -0.23437,1.35417 -0.70312,1.75c-0.46875,0.38542 -1.23958,0.57813 -2.3125,0.57813z" stroke="none" stroke-width="0"/></g></g></svg>