<svg version="1.1" xmlns="http://www.w3.org/2000/svg" xmlns:xlink="http://www.w3.org/1999/xlink" width="185.93763" height="115.51602" viewBox="0,0,185.93763,115.51602"><defs><radialGradient cx="240.00001" cy="180" r="19.04585" gradientUnits="userSpaceOnUse" id="color-1"><stop offset="0" stop-color="#a3a3a3"/><stop offset="1" stop-color="#a3a3a3" stop-opacity="0"/></radialGradient></defs><g transform="translate(-215.83334,-153.13332)"><g data-paper-data="{&quot;isPaintingLayer&quot;:true}" fill-rule="nonzero" stroke-linejoin="miter" stroke-miterlimit="10" stroke-dasharray="" stroke-dashoffset="0" style="mix-blend-mode: normal"><path d="M220.95416,180c0,-10.51873 8.52712,-19.04585 19.04585,-19.04585c10.51873,0 19.04585,8.52712 19.04585,19.04585c0,10.51873 -8.52712,19.04585 -19.04585,19.04585c-10.51873,0 -19.04585,-8.52712 -19.04585,-19.04585z" fill="#a3a3a3" stroke="#000000" stroke-width="2.5" stroke-linecap="butt"/><g data-paper-data="{&quot;index&quot;:null}" fill="none" stroke-width="2" stroke-linecap="round"><path d="M232.64486,190.75454c0,0 -5.68707,-1.90973 -5.63178,-9.92957c0.05337,-7.74263 5.63178,-9.65375 5.63178,-9.65375" stroke="#6a6a6a"/><path d="M234.56481,190.62654c0,0 -5.68708,-1.90973 -5.63179,-9.92957c0.05338,-7.74263 5.63179,-9.65375 5.63179,-9.65375" stroke="#5b5b5b"/><path d="M242.71168,190.37519c0,0 -5.37175,2.67098 -11.00355,-3.039c-5.43713,-5.5126 -2.84396,-10.80851 -2.84396,-10.80851" stroke="#707070"/><path d="M227.2064,180.88661c0,0 -1.57997,-5.78736 5.11267,-10.20657c6.4613,-4.26645 11.15467,-0.69665 11.15467,-0.69665" stroke="#6a6a6a"/><path d="M228.38166,182.41019c0,0 -1.57997,-5.78736 5.11267,-10.20657c6.46132,-4.26645 11.15468,-0.69665 11.15468,-0.69665" stroke="#4b4b4b"/><path d="M233.12632,189.03764c0,0 -5.20949,-2.97507 -3.60193,-10.83235c1.552,-7.58568 7.39493,-8.38015 7.39493,-8.38015" stroke="#707070"/><path d="M230.15279,172.87572c0,0 1.90973,-5.68707 9.92957,-5.63178c7.74263,0.05337 9.65375,5.63178 9.65375,5.63178" stroke="#6a6a6a"/><path d="M230.28079,174.79567c0,0 1.90973,-5.68708 9.92957,-5.63179c7.74263,0.05338 9.65375,5.63179 9.65375,5.63179" stroke="#5b5b5b"/><path d="M230.53213,182.94254c0,0 -2.67098,-5.37175 3.039,-11.00355c5.5126,-5.43713 10.80851,-2.84396 10.80851,-2.84396" stroke="#707070"/><path d="M240.02072,167.43726c0,0 5.78736,-1.57997 10.20657,5.11267c4.26645,6.4613 0.69665,11.15467 0.69665,11.15467" stroke="#6a6a6a"/><path d="M238.49714,168.61252c0,0 5.78736,-1.57997 10.20657,5.11267c4.26645,6.46132 0.69665,11.15468 0.69665,11.15468" stroke="#4b4b4b"/><path d="M231.86969,173.35717c0,0 2.97507,-5.20949 10.83235,-3.60193c7.58568,1.552 8.38015,7.39493 8.38015,7.39493" stroke="#707070"/><path d="M252.36333,178.02332c0,0 2.67098,5.37175 -3.039,11.00354c-5.5126,5.43713 -10.8085,2.84396 -10.8085,2.84396" stroke="#6a6a6a"/><path d="M250.91522,176.75623c0,0 2.67099,5.37176 -3.03899,11.00355c-5.51261,5.43713 -10.80852,2.84396 -10.80852,2.84396" stroke="#5b5b5b"/><path d="M244.97678,170.24068c0,0 5.68708,1.90974 5.63179,9.92958c-0.05337,7.74263 -5.63179,9.65375 -5.63179,9.65375" stroke="#707070"/><path d="M249.23123,188.84658c0,0 -2.97508,5.20949 -10.83235,3.60192c-7.58567,-1.552 -8.38014,-7.39493 -8.38014,-7.39493" stroke="#6a6a6a"/><path d="M249.47752,186.9382c0,0 -2.97507,5.2095 -10.83234,3.60194c-7.58567,-1.552 -8.38015,-7.39494 -8.38015,-7.39494" stroke="#4b4b4b"/><path d="M250.80886,178.89692c0,0 1.57998,5.78736 -5.11267,10.20657c-6.4613,4.26647 -11.15467,0.69666 -11.15467,0.69666" stroke="#707070"/></g><g fill="none" stroke-width="2" stroke-linecap="round"><path d="M249.74589,168.30148c0,0 7.39164,2.53231 7.46235,12.79163c0.07326,10.62664 -7.46235,13.15711 -7.46235,13.15711" stroke="#6a6a6a"/><path d="M247.20189,168.13188c0,0 7.39164,2.53231 7.46236,12.79163c0.07326,10.62664 -7.46236,13.15711 -7.46236,13.15711" stroke="#5b5b5b"/><path d="M254.75547,175.39904c0,0 3.43606,7.0173 -3.76836,14.32173c-7.46238,7.56596 -14.58017,4.0268 -14.58017,4.0268" stroke="#707070"/><path d="M235.39718,166.72757c0,0 6.2189,-4.73014 14.78041,0.92309c8.86804,5.85564 6.77451,13.52414 6.77451,13.52414" stroke="#6a6a6a"/><path d="M233.83988,168.74638c0,0 6.2189,-4.73014 14.78043,0.92309c8.86804,5.85564 6.77451,13.52414 6.77451,13.52414" stroke="#4b4b4b"/><path d="M244.08205,166.51788c0,0 7.74214,1.0527 9.7986,11.10405c2.13009,10.41122 -4.77271,14.35332 -4.77271,14.35332" stroke="#707070"/><path d="M227.09926,170.56003c0,0 2.53231,-7.39164 12.79163,-7.46235c10.62664,-0.07326 13.15711,7.46235 13.15711,7.46235" stroke="#6a6a6a"/><path d="M226.92965,173.10404c0,0 2.53231,-7.39164 12.79163,-7.46236c10.62664,-0.07326 13.15711,7.46236 13.15711,7.46236" stroke="#5b5b5b"/><path d="M234.19682,165.55045c0,0 7.0173,-3.43606 14.32173,3.76836c7.56596,7.46238 4.0268,14.58017 4.0268,14.58017" stroke="#707070"/><path d="M225.52534,184.90875c0,0 -4.73014,-6.2189 0.92309,-14.78041c5.85564,-8.86804 13.52414,-6.77451 13.52414,-6.77451" stroke="#6a6a6a"/><path d="M227.54415,186.46604c0,0 -4.73014,-6.2189 0.92309,-14.78043c5.85564,-8.86804 13.52414,-6.77451 13.52414,-6.77451" stroke="#4b4b4b"/><path d="M225.31566,176.22386c0,0 1.0527,-7.74214 11.10405,-9.7986c10.41122,-2.13009 14.35332,4.77271 14.35332,4.77271" stroke="#707070"/><path d="M241.96661,195.72934c0,0 -7.01729,3.43606 -14.32172,-3.76836c-7.56596,-7.46236 -4.0268,-14.58016 -4.0268,-14.58016" stroke="#6a6a6a"/><path d="M243.88542,194.0504c0,0 -7.0173,3.43606 -14.32174,-3.76836c-7.56596,-7.46236 -4.02679,-14.58017 -4.02679,-14.58017" stroke="#5b5b5b"/><path d="M233.40558,193.01723c0,0 -7.39165,-2.53231 -7.46236,-12.79163c-0.07326,-10.62664 7.46236,-13.15712 7.46236,-13.15712" stroke="#707070"/><path d="M253.22562,186.69619c0,0 -1.05271,7.74214 -11.10404,9.7986c-10.41121,2.13009 -14.35332,-4.7727 -14.35332,-4.7727" stroke="#6a6a6a"/><path d="M252.89927,184.16751c0,0 -1.05271,7.74214 -11.10405,9.79861c-10.41121,2.13009 -14.35331,-4.77272 -14.35331,-4.77272" stroke="#4b4b4b"/><path d="M247.23274,192.98561c0,0 -6.2189,4.73015 -14.78041,-0.9231c-8.86805,-5.85564 -6.77451,-13.52414 -6.77451,-13.52414" stroke="#707070"/></g><path d="M220.95416,180c0,-10.51873 8.52712,-19.04585 19.04585,-19.04585c10.51873,0 19.04585,8.52712 19.04585,19.04585c0,10.51873 -8.52712,19.04585 -19.04585,19.04585c-10.51873,0 -19.04585,-8.52712 -19.04585,-19.04585z" fill="url(#color-1)" stroke="#000000" stroke-width="2.5" stroke-linecap="butt"/><path d="M233.78898,180c0,-3.43026 2.78077,-6.21103 6.21103,-6.21103c3.43026,0 6.21104,2.78078 6.21104,6.21103c0,3.43026 -2.78078,6.21104 -6.21104,6.21104c-3.43026,0 -6.21103,-2.78078 -6.21103,-6.21104z" fill="#a3a3a3" stroke="#000000" stroke-width="2" stroke-linecap="butt"/><path d="M215.83334,206.79999v-53.66667h51.66667v53.66667z" fill="none" stroke="none" stroke-width="0" stroke-linecap="butt"/><path d="M299.20928,268.64934v-96.43863h102.56169v96.43863z" fill="none" stroke="none" stroke-width="NaN" stroke-linecap="butt"/></g></g></svg>