<svg version="1.1" xmlns="http://www.w3.org/2000/svg" xmlns:xlink="http://www.w3.org/1999/xlink" width="134.49608" height="10.2646" viewBox="0,0,134.49608,10.2646"><g transform="translate(-172.75196,-174.8677)"><g data-paper-data="{&quot;isPaintingLayer&quot;:true}" fill="#f1ff00" fill-rule="nonzero" stroke="none" stroke-width="1" stroke-linecap="square" stroke-linejoin="miter" stroke-miterlimit="10" stroke-dasharray="" stroke-dashoffset="0" style="mix-blend-mode: normal"><path d="M177.69194,176.90182l-1.282,4.70923c-0.13105,0.48431 -0.26779,0.83188 -0.41024,1.0427c-0.13674,0.21081 -0.37605,0.31623 -0.71792,0.31623c-0.34757,0 -0.58687,-0.10256 -0.71793,-0.30768c-0.13105,-0.21081 -0.26209,-0.57833 -0.39314,-1.10252l-1.2991,-5.27331c-0.07977,-0.23931 -0.11965,-0.47862 -0.11965,-0.71792c0,-0.17663 0.07122,-0.33617 0.21366,-0.47862c0.14245,-0.14814 0.31623,-0.22222 0.52135,-0.22222c0.27349,0 0.45867,0.08262 0.55553,0.24786c0.09687,0.15954 0.19372,0.43873 0.29059,0.83758l1.03415,4.57248l1.14526,-4.28189c0.15384,-0.58687 0.31623,-0.96293 0.48716,-1.12817c0.17094,-0.16523 0.40169,-0.24786 0.69228,-0.24786c0.28489,0 0.50995,0.07977 0.67519,0.23931c0.16524,0.15954 0.33047,0.53844 0.49571,1.13671l1.14525,4.28189l1.03415,-4.57248c0.09117,-0.44443 0.19372,-0.73501 0.30768,-0.87176c0.11396,-0.14244 0.29059,-0.21367 0.5299,-0.21367c0.21082,0 0.38745,0.07407 0.52989,0.22222c0.14244,0.14244 0.21366,0.30483 0.21366,0.48716c0,0.14814 -0.03988,0.3846 -0.11965,0.70938l-1.30764,5.27331c-0.12535,0.5185 -0.25355,0.88316 -0.3846,1.09398c-0.13105,0.21081 -0.37036,0.31623 -0.71793,0.31623c-0.245,0 -0.45582,-0.07122 -0.63246,-0.21366c-0.17094,-0.14814 -0.33902,-0.5299 -0.50426,-1.14526l-1.26491,-4.70923zM187.36466,180.36323h-2.86314c0.01709,0.54129 0.16524,0.94868 0.44443,1.22218c0.28489,0.27349 0.62676,0.41025 1.0256,0.41025c0.48431,0 0.94298,-0.21367 1.37601,-0.64101c0.17663,-0.17663 0.30484,-0.28489 0.38461,-0.32478c0.08546,-0.04559 0.17948,-0.06837 0.28204,-0.06837c0.13105,0 0.24215,0.04274 0.33332,0.1282c0.09686,0.07977 0.1453,0.17948 0.1453,0.29913c0,0.33047 -0.22507,0.67804 -0.67519,1.0427c-0.44443,0.35896 -1.05125,0.53844 -1.82045,0.53844c-0.97432,0 -1.71504,-0.27635 -2.22214,-0.82903c-0.50141,-0.55268 -0.75211,-1.2649 -0.75211,-2.13667c0,-0.88316 0.2507,-1.59823 0.75211,-2.14522c0.5071,-0.54699 1.21079,-0.82049 2.11104,-0.82049c0.85467,0 1.51561,0.25925 1.98283,0.77775c0.46722,0.5128 0.70083,1.07118 0.70083,1.67515c0,0.2678 -0.07692,0.48147 -0.23076,0.64101c-0.15384,0.15384 -0.47862,0.23076 -0.97433,0.23076zM184.50151,179.53421h2.65802c-0.01709,-0.48431 -0.15099,-0.85467 -0.4017,-1.11107c-0.2507,-0.2564 -0.55839,-0.3846 -0.92305,-0.3846c-0.7749,0 -1.21932,0.49856 -1.33328,1.49567zM193.48088,182.14094c-0.68943,0.55268 -1.36747,0.82903 -2.03411,0.82903c-0.63245,0 -1.11961,-0.15954 -1.46148,-0.47861c-0.33617,-0.32478 -0.50426,-0.71792 -0.50426,-1.17944c0,-0.39884 0.11396,-0.71793 0.34186,-0.95723c0.23361,-0.24501 0.48431,-0.41594 0.75211,-0.51281c0.27349,-0.09686 0.71507,-0.20797 1.32474,-0.33332c0.60967,-0.12535 1.10252,-0.24216 1.47858,-0.35041c-0.0057,-0.44443 -0.09401,-0.74356 -0.26494,-0.8974c-0.17094,-0.15384 -0.43018,-0.23076 -0.77775,-0.23076c-0.66094,0 -1.09398,0.18517 -1.2991,0.55553c-0.11396,0.21081 -0.21651,0.36181 -0.30768,0.45298c-0.08546,0.08546 -0.21082,0.1282 -0.37606,0.1282c-0.15384,0 -0.29344,-0.04843 -0.41878,-0.14529c-0.12535,-0.10256 -0.18803,-0.23646 -0.18803,-0.4017c0,-0.37605 0.20512,-0.73217 0.61536,-1.06834c0.41024,-0.34187 1.05409,-0.51281 1.93155,-0.51281c0.88886,0 1.5384,0.15385 1.94864,0.46153c0.41594,0.30768 0.61252,0.92874 0.58973,1.86317l-0.03419,1.36747c-0.01139,0.42733 0.03133,0.7749 0.1282,1.04269c0.10256,0.2621 0.15385,0.46437 0.15385,0.60681c0,0.15384 -0.06838,0.29059 -0.20512,0.41024c-0.13105,0.11965 -0.28204,0.17948 -0.45298,0.17948c-0.29628,0 -0.60966,-0.27635 -0.94013,-0.82903zM193.38687,180.02991c-0.21652,0.08546 -0.57548,0.17948 -1.07689,0.28204c-0.50141,0.09686 -0.85752,0.21081 -1.06833,0.34186c-0.20512,0.12535 -0.30769,0.31338 -0.30769,0.56409c0,0.20512 0.08262,0.3903 0.24786,0.55553c0.16523,0.15954 0.40169,0.23931 0.70937,0.23931c0.31907,0 0.61537,-0.08831 0.88886,-0.26494c0.27919,-0.17663 0.45012,-0.38461 0.5128,-0.62391c0.06267,-0.24501 0.09401,-0.60967 0.09401,-1.09398zM197.46151,178.0129c0.5128,-0.64955 1.14525,-0.97433 1.89736,-0.97433c0.74641,0 1.33898,0.28204 1.77771,0.84613c0.44443,0.55839 0.66664,1.28485 0.66664,2.17941c0,0.84897 -0.21652,1.54695 -0.64955,2.09394c-0.42733,0.54129 -1.02275,0.81193 -1.78625,0.81193c-0.72362,0 -1.35892,-0.30483 -1.90591,-0.9145v1.90591c0,0.5242 -0.06552,0.84897 -0.19657,0.97432c-0.13105,0.13105 -0.30768,0.19658 -0.5299,0.19658c-0.2678,0 -0.45582,-0.08832 -0.56408,-0.26495c-0.10825,-0.17663 -0.16239,-0.49286 -0.16239,-0.94868v-5.75192c0,-0.30199 0.0114,-0.52135 0.03419,-0.65809c0.02849,-0.14244 0.10541,-0.25641 0.23076,-0.34187c0.13105,-0.08546 0.28489,-0.1282 0.46152,-0.1282c0.48431,0 0.72647,0.27065 0.72647,0.81194zM200.32465,180.02991c0,-0.63815 -0.1339,-1.11107 -0.4017,-1.41875c-0.2678,-0.30768 -0.58118,-0.46153 -0.94013,-0.46153c-0.41594,0 -0.76065,0.15669 -1.03415,0.47007c-0.2678,0.31338 -0.4017,0.75211 -0.4017,1.31619c0,0.58687 0.13105,1.0541 0.39315,1.40166c0.2621,0.34187 0.61251,0.5128 1.05124,0.5128c0.39315,0 0.71222,-0.15954 0.95723,-0.47862c0.2507,-0.32478 0.37606,-0.77205 0.37606,-1.34183zM205.53813,177.03857c0.90595,0 1.61817,0.2792 2.13667,0.83758c0.5185,0.55268 0.77774,1.26206 0.77774,2.12812c0,0.86607 -0.2621,1.57828 -0.78629,2.13667c-0.5242,0.55268 -1.21932,0.82903 -2.08539,0.82903c-0.94013,0 -1.66661,-0.28204 -2.17941,-0.84612c-0.5128,-0.56408 -0.7692,-1.27061 -0.7692,-2.11958c0,-0.86607 0.25925,-1.57544 0.77775,-2.12812c0.5185,-0.55839 1.22788,-0.83758 2.12813,-0.83758zM205.53813,181.88454c0.44443,0 0.79484,-0.16523 1.05124,-0.49571c0.2564,-0.33617 0.3846,-0.79769 0.3846,-1.38456c0,-0.59257 -0.1282,-1.05409 -0.3846,-1.38456c-0.2564,-0.33617 -0.60681,-0.50426 -1.05124,-0.50426c-0.43303,0 -0.7806,0.16809 -1.0427,0.50426c-0.2564,0.33617 -0.3846,0.79769 -0.3846,1.38456c0,0.58687 0.1282,1.04839 0.3846,1.38456c0.2564,0.33047 0.60397,0.49571 1.0427,0.49571zM214.74398,179.36327v2.39307c0,0.31338 -0.01424,0.54129 -0.04273,0.68373c-0.02279,0.13675 -0.09972,0.25925 -0.23077,0.36751c-0.12535,0.10825 -0.27349,0.16239 -0.44442,0.16239c-0.15954,0 -0.30768,-0.04843 -0.44443,-0.14529c-0.13105,-0.09686 -0.21367,-0.21936 -0.24786,-0.36751c-0.03418,-0.15384 -0.05128,-0.38745 -0.05128,-0.70083v-2.09394c0,-0.58687 -0.08831,-0.98001 -0.26494,-1.17944c-0.17094,-0.20512 -0.41024,-0.30768 -0.71792,-0.30768c-0.27349,0 -0.51565,0.07977 -0.72647,0.23931c-0.21081,0.15954 -0.35896,0.36181 -0.44443,0.60682c-0.08546,0.23931 -0.1282,0.64955 -0.1282,1.23072v1.50422c0,0.30768 -0.01139,0.53275 -0.03418,0.67519c-0.02279,0.13675 -0.09971,0.2621 -0.23076,0.37605c-0.13105,0.10825 -0.28204,0.16239 -0.45297,0.16239c-0.16523,0 -0.31623,-0.04843 -0.45298,-0.14529c-0.13105,-0.10256 -0.21082,-0.22506 -0.23931,-0.36751c-0.02849,-0.14814 -0.04274,-0.38175 -0.04274,-0.70083v-3.58961c0,-0.32478 0.01425,-0.54984 0.04274,-0.67519c0.03418,-0.13105 0.1111,-0.23931 0.23076,-0.32477c0.12535,-0.08546 0.26495,-0.1282 0.41879,-0.1282c0.14244,0 0.29059,0.05698 0.44443,0.17094c0.15384,0.10825 0.23076,0.37891 0.23076,0.81194c0.49001,-0.65524 1.11677,-0.98287 1.88027,-0.98287c0.29059,0 0.57832,0.05698 0.86321,0.17094c0.28489,0.10825 0.51565,0.28489 0.69228,0.52989c0.18233,0.24501 0.29344,0.50141 0.33332,0.7692c0.03988,0.2678 0.05983,0.55268 0.05983,0.85467zM217.3176,178.55134c0,0.18802 0.09687,0.33617 0.29059,0.44443c0.19373,0.10825 0.63245,0.24501 1.31619,0.41024c1.32188,0.32478 1.98283,0.87461 1.98283,1.64951c0,0.62106 -0.22506,1.09683 -0.67518,1.4273c-0.44443,0.32478 -1.06549,0.48716 -1.86318,0.48716c-0.81479,0 -1.4273,-0.16809 -1.83754,-0.50426c-0.41024,-0.33617 -0.61536,-0.69228 -0.61536,-1.06833c0,-0.15954 0.05698,-0.29628 0.17094,-0.41024c0.11396,-0.11396 0.25355,-0.17094 0.41878,-0.17094c0.22791,0 0.42733,0.14244 0.59827,0.42733c0.19373,0.31338 0.40454,0.52135 0.63245,0.62391c0.23361,0.10256 0.48146,0.15384 0.74356,0.15384c0.29628,0 0.5356,-0.06552 0.71792,-0.19657c0.18233,-0.13105 0.2735,-0.29628 0.2735,-0.49571c0,-0.18233 -0.07692,-0.33902 -0.23076,-0.47007c-0.15384,-0.13105 -0.57833,-0.27635 -1.27346,-0.43588c-0.68943,-0.15954 -1.19369,-0.38175 -1.51277,-0.66664c-0.31907,-0.29059 -0.47862,-0.63245 -0.47862,-1.0256c0,-0.44443 0.19373,-0.83757 0.58118,-1.17944c0.38745,-0.34187 0.96863,-0.51281 1.74353,-0.51281c0.70652,0 1.26776,0.1453 1.6837,0.43588c0.42164,0.28489 0.63245,0.58118 0.63245,0.88886c0,0.16523 -0.05413,0.30483 -0.16239,0.41878c-0.10256,0.11396 -0.24786,0.17094 -0.43588,0.17094c-0.28489,0 -0.54129,-0.16239 -0.7692,-0.48716c-0.22222,-0.32478 -0.56123,-0.48716 -1.01705,-0.48716c-0.24501,0 -0.45868,0.05128 -0.64101,0.15384c-0.18233,0.09686 -0.27349,0.23646 -0.27349,0.41878zM223.10158,177.03857c0.21652,0 0.4017,0.07977 0.55554,0.23931c0.15954,0.15384 0.23931,0.33902 0.23931,0.55553c0,0.22222 -0.07977,0.41309 -0.23931,0.57263c-0.15384,0.15954 -0.33902,0.23931 -0.55554,0.23931c-0.22222,0 -0.41309,-0.07977 -0.57262,-0.23931c-0.15954,-0.15954 -0.23931,-0.35041 -0.23931,-0.57263c0,-0.21652 0.07977,-0.40169 0.23931,-0.55553c0.15954,-0.15954 0.35041,-0.23931 0.57262,-0.23931zM223.10158,181.35465c0.21652,0 0.4017,0.07977 0.55554,0.23931c0.15954,0.15384 0.23931,0.34186 0.23931,0.56408c0,0.21652 -0.07977,0.40739 -0.23931,0.57263c-0.15384,0.15954 -0.33902,0.23931 -0.55554,0.23931c-0.22222,0 -0.41309,-0.07977 -0.57262,-0.23931c-0.15954,-0.15954 -0.23931,-0.35041 -0.23931,-0.57263c0,-0.22222 0.07977,-0.41024 0.23931,-0.56408c0.15954,-0.15954 0.35041,-0.23931 0.57262,-0.23931zM230.45707,176.22664v1.99992h2.35889c0.27919,0 0.47007,0.01425 0.57263,0.04274c0.10825,0.02849 0.20227,0.09686 0.28204,0.20512c0.08546,0.10825 0.1282,0.22507 0.1282,0.35041c0,0.16523 -0.06268,0.31053 -0.18803,0.43588c-0.11965,0.12535 -0.3846,0.18803 -0.79484,0.18803h-2.35889v2.20504c0,0.31907 -0.01424,0.55553 -0.04273,0.70937c-0.02279,0.15384 -0.09401,0.29344 -0.21367,0.41879c-0.11396,0.12535 -0.29343,0.18802 -0.53844,0.18802c-0.23931,0 -0.41879,-0.06267 -0.53844,-0.18802c-0.11396,-0.12535 -0.18518,-0.2678 -0.21367,-0.42733c-0.02279,-0.16523 -0.03419,-0.39884 -0.03419,-0.70083v-5.32459c0,-0.56978 0.03989,-0.89455 0.11966,-0.97432c0.08546,-0.07977 0.17663,-0.15669 0.27349,-0.23076c0.10256,-0.07977 0.41309,-0.11965 0.93159,-0.11965h3.11955c0.27349,0 0.46722,0.01139 0.58118,0.03418c0.11396,0.01709 0.21367,0.07978 0.29913,0.18803c0.09117,0.10825 0.13675,0.23645 0.13675,0.3846c0,0.14814 -0.04558,0.27635 -0.13675,0.3846c-0.08546,0.10825 -0.18518,0.17378 -0.29913,0.19657c-0.11396,0.02279 -0.30768,0.03419 -0.58118,0.03419zM236.00602,174.93609c0.19373,0 0.35896,0.07123 0.49571,0.21367c0.13675,0.14244 0.20512,0.30768 0.20512,0.49571c0,0.19373 -0.06837,0.36181 -0.20512,0.50426c-0.13675,0.13675 -0.30199,0.20512 -0.49571,0.20512c-0.19373,0 -0.36181,-0.06837 -0.50426,-0.20512c-0.13675,-0.14244 -0.20512,-0.31053 -0.20512,-0.50426c0,-0.19373 0.06838,-0.35896 0.20512,-0.49571c0.14244,-0.14244 0.31053,-0.21367 0.50426,-0.21367zM236.73249,178.22656v3.52979c0,0.35326 -0.01709,0.59542 -0.05128,0.72647c-0.02849,0.12535 -0.11111,0.23931 -0.24786,0.34187c-0.13105,0.09686 -0.27349,0.14529 -0.42733,0.14529c-0.15384,0 -0.29913,-0.04843 -0.43588,-0.14529c-0.13675,-0.10256 -0.22222,-0.21936 -0.2564,-0.35041c-0.02849,-0.13105 -0.04274,-0.37036 -0.04274,-0.71792v-3.52124c0,-0.31907 0.0114,-0.54414 0.03419,-0.67519c0.02849,-0.13675 0.10825,-0.2564 0.23931,-0.35896c0.13105,-0.10825 0.28204,-0.16239 0.45298,-0.16239c0.17094,0 0.31908,0.04843 0.44443,0.1453c0.12535,0.09117 0.20512,0.21081 0.23931,0.35896c0.03418,0.14244 0.05128,0.37036 0.05128,0.68373zM240.32958,180.81621l-1.06834,1.54695c-0.19373,0.2678 -0.34756,0.43588 -0.46152,0.50426c-0.11396,0.06838 -0.23646,0.10256 -0.36751,0.10256c-0.18233,0 -0.33901,-0.05698 -0.47006,-0.17094c-0.12535,-0.11396 -0.18803,-0.245 -0.18803,-0.39314c0,-0.16523 0.09971,-0.38746 0.29913,-0.66665l1.32474,-1.88882l-1.1709,-1.58114c-0.20512,-0.2678 -0.30768,-0.48716 -0.30768,-0.6581c0,-0.16523 0.05983,-0.30199 0.17948,-0.41024c0.12535,-0.10825 0.28773,-0.16239 0.48716,-0.16239c0.17094,0 0.31054,0.04559 0.41879,0.13675c0.10825,0.09117 0.23931,0.245 0.39315,0.46152l0.93159,1.29055l0.93159,-1.29055c0.19373,-0.27349 0.34756,-0.44158 0.46152,-0.50426c0.11396,-0.06267 0.23646,-0.09401 0.36751,-0.09401c0.18802,0 0.34472,0.05414 0.47007,0.16239c0.12535,0.10825 0.18802,0.23646 0.18802,0.3846c0,0.17094 -0.10541,0.39884 -0.31622,0.68373l-1.1709,1.58114l1.30764,1.88882c0.21652,0.29628 0.32478,0.51565 0.32478,0.6581c0,0.15954 -0.06552,0.29628 -0.19657,0.41024c-0.13105,0.10825 -0.27634,0.16239 -0.43588,0.16239c-0.29628,0 -0.58403,-0.20227 -0.86322,-0.60681zM251.56741,176.90182l-1.282,4.70923c-0.13105,0.48431 -0.2678,0.83188 -0.41025,1.0427c-0.13674,0.21081 -0.37605,0.31623 -0.71792,0.31623c-0.34757,0 -0.58688,-0.10256 -0.71793,-0.30768c-0.13105,-0.21081 -0.2621,-0.57833 -0.39315,-1.10252l-1.2991,-5.27331c-0.07977,-0.23931 -0.11965,-0.47862 -0.11965,-0.71792c0,-0.17663 0.07122,-0.33617 0.21366,-0.47862c0.14245,-0.14814 0.31623,-0.22222 0.52135,-0.22222c0.27349,0 0.45867,0.08262 0.55553,0.24786c0.09687,0.15954 0.19372,0.43873 0.29058,0.83758l1.03415,4.57248l1.14526,-4.28189c0.15384,-0.58687 0.31623,-0.96293 0.48716,-1.12817c0.17093,-0.16523 0.40169,-0.24786 0.69228,-0.24786c0.28489,0 0.50995,0.07977 0.67519,0.23931c0.16523,0.15954 0.33048,0.53844 0.49571,1.13671l1.14525,4.28189l1.03415,-4.57248c0.09116,-0.44443 0.19373,-0.73501 0.30768,-0.87176c0.11396,-0.14244 0.29059,-0.21367 0.5299,-0.21367c0.21081,0 0.38745,0.07407 0.52989,0.22222c0.14245,0.14244 0.21367,0.30483 0.21367,0.48716c0,0.14814 -0.03988,0.3846 -0.11965,0.70938l-1.30765,5.27331c-0.12535,0.5185 -0.25355,0.88316 -0.3846,1.09398c-0.13105,0.21081 -0.37036,0.31623 -0.71792,0.31623c-0.245,0 -0.45583,-0.07122 -0.63246,-0.21366c-0.17093,-0.14814 -0.33902,-0.5299 -0.50426,-1.14526zM258.17934,174.93609c0.19373,0 0.35897,0.07123 0.49571,0.21367c0.13674,0.14244 0.20512,0.30768 0.20512,0.49571c0,0.19373 -0.06838,0.36181 -0.20512,0.50426c-0.13674,0.13675 -0.30199,0.20512 -0.49571,0.20512c-0.19373,0 -0.36181,-0.06837 -0.50426,-0.20512c-0.13674,-0.14244 -0.20512,-0.31053 -0.20512,-0.50426c0,-0.19373 0.06838,-0.35896 0.20512,-0.49571c0.14245,-0.14244 0.31053,-0.21367 0.50426,-0.21367zM258.90581,178.22656v3.52979c0,0.35326 -0.01709,0.59542 -0.05128,0.72647c-0.02849,0.12535 -0.11111,0.23931 -0.24786,0.34187c-0.13105,0.09686 -0.27349,0.14529 -0.42733,0.14529c-0.15384,0 -0.29914,-0.04843 -0.43588,-0.14529c-0.13674,-0.10256 -0.22221,-0.21936 -0.2564,-0.35041c-0.02849,-0.13105 -0.04274,-0.37036 -0.04274,-0.71792v-3.52124c0,-0.31907 0.0114,-0.54414 0.03419,-0.67519c0.02849,-0.13675 0.10826,-0.2564 0.23931,-0.35896c0.13105,-0.10825 0.28204,-0.16239 0.45298,-0.16239c0.17093,0 0.31907,0.04843 0.44442,0.1453c0.12535,0.09117 0.20513,0.21081 0.23931,0.35896c0.03419,0.14244 0.05128,0.37036 0.05128,0.68373zM260.40042,181.75635v-3.7349c0,-0.65524 0.23931,-0.98287 0.71792,-0.98287c0.46152,0 0.69798,0.30199 0.70937,0.90595c0.30199,-0.60397 0.72078,-0.90595 1.25637,-0.90595c0.27919,0 0.56978,0.07407 0.87176,0.22222c0.30199,0.14814 0.45297,0.35041 0.45297,0.60681c0,0.17663 -0.06268,0.32478 -0.18803,0.44443c-0.11965,0.11396 -0.24786,0.17094 -0.3846,0.17094c-0.07977,0 -0.22222,-0.03134 -0.42733,-0.09401c-0.20512,-0.06267 -0.37606,-0.09401 -0.5128,-0.09401c-0.34757,0 -0.60682,0.17663 -0.77775,0.52989c-0.17093,0.34757 -0.2564,1.0256 -0.2564,2.03412v0.84612c0,0.37036 -0.01709,0.62106 -0.05128,0.75211c-0.02849,0.13105 -0.10826,0.2507 -0.23931,0.35896c-0.12535,0.10256 -0.27065,0.15384 -0.43588,0.15384c-0.16523,0 -0.31338,-0.04843 -0.44443,-0.14529c-0.12535,-0.09686 -0.20512,-0.20797 -0.23931,-0.33332c-0.03419,-0.13105 -0.05128,-0.37606 -0.05128,-0.73502zM265.93547,174.93609c0.19373,0 0.35897,0.07123 0.49571,0.21367c0.13674,0.14244 0.20512,0.30768 0.20512,0.49571c0,0.19373 -0.06838,0.36181 -0.20512,0.50426c-0.13674,0.13675 -0.30199,0.20512 -0.49571,0.20512c-0.19373,0 -0.36181,-0.06837 -0.50426,-0.20512c-0.13674,-0.14244 -0.20512,-0.31053 -0.20512,-0.50426c0,-0.19373 0.06838,-0.35896 0.20512,-0.49571c0.14245,-0.14244 0.31053,-0.21367 0.50426,-0.21367zM266.66194,178.22656v3.52979c0,0.35326 -0.01709,0.59542 -0.05128,0.72647c-0.02849,0.12535 -0.11111,0.23931 -0.24786,0.34187c-0.13105,0.09686 -0.27349,0.14529 -0.42733,0.14529c-0.15384,0 -0.29914,-0.04843 -0.43588,-0.14529c-0.13674,-0.10256 -0.22221,-0.21936 -0.2564,-0.35041c-0.02849,-0.13105 -0.04274,-0.37036 -0.04274,-0.71792v-3.52124c0,-0.31907 0.0114,-0.54414 0.03419,-0.67519c0.02849,-0.13675 0.10826,-0.2564 0.23931,-0.35896c0.13105,-0.10825 0.28204,-0.16239 0.45297,-0.16239c0.17093,0 0.31907,0.04843 0.44442,0.1453c0.12535,0.09117 0.20513,0.21081 0.23931,0.35896c0.03419,0.14244 0.05128,0.37036 0.05128,0.68373zM273.31019,179.36327v2.39307c0,0.31338 -0.01424,0.54129 -0.04273,0.68373c-0.02279,0.13675 -0.09971,0.25925 -0.23076,0.36751c-0.12535,0.10825 -0.27349,0.16239 -0.44442,0.16239c-0.15954,0 -0.30769,-0.04843 -0.44443,-0.14529c-0.13105,-0.09686 -0.21367,-0.21936 -0.24785,-0.36751c-0.03419,-0.15384 -0.05128,-0.38745 -0.05128,-0.70083v-2.09394c0,-0.58687 -0.08831,-0.98001 -0.26494,-1.17944c-0.17093,-0.20512 -0.41025,-0.30768 -0.71793,-0.30768c-0.27349,0 -0.51565,0.07977 -0.72646,0.23931c-0.21081,0.15954 -0.35897,0.36181 -0.44443,0.60682c-0.08546,0.23931 -0.1282,0.64955 -0.1282,1.23072v1.50422c0,0.30768 -0.0114,0.53275 -0.03419,0.67519c-0.02279,0.13675 -0.09972,0.2621 -0.23076,0.37605c-0.13105,0.10825 -0.28204,0.16239 -0.45298,0.16239c-0.16523,0 -0.31623,-0.04843 -0.45297,-0.14529c-0.13105,-0.10256 -0.21082,-0.22506 -0.23931,-0.36751c-0.02849,-0.14814 -0.04273,-0.38175 -0.04273,-0.70083v-3.58961c0,-0.32478 0.01424,-0.54984 0.04273,-0.67519c0.03419,-0.13105 0.11111,-0.23931 0.23076,-0.32477c0.12535,-0.08546 0.26495,-0.1282 0.41879,-0.1282c0.14245,0 0.29058,0.05698 0.44442,0.17094c0.15384,0.10825 0.23077,0.37891 0.23077,0.81194c0.49001,-0.65524 1.11676,-0.98287 1.88027,-0.98287c0.29059,0 0.57833,0.05698 0.86321,0.17094c0.28489,0.10825 0.51566,0.28489 0.69228,0.52989c0.18233,0.24501 0.29344,0.50141 0.33332,0.7692c0.03988,0.2678 0.05982,0.55268 0.05982,0.85467zM278.7726,178.02999v-0.19658c0,-0.2621 0.06268,-0.45867 0.18803,-0.58972c0.13105,-0.13675 0.29628,-0.20512 0.49571,-0.20512c0.22222,0 0.39315,0.07692 0.5128,0.23076c0.11965,0.15384 0.17948,0.48717 0.17948,0.99997v3.91438c0,1.16235 -0.245,1.94295 -0.73502,2.3418c-0.49001,0.40454 -1.19654,0.60681 -2.11958,0.60681c-0.83188,0 -1.48143,-0.15384 -1.94864,-0.46152c-0.46722,-0.30768 -0.70083,-0.63245 -0.70083,-0.97432c0,-0.18233 0.05983,-0.33047 0.17948,-0.44443c0.12535,-0.11396 0.27349,-0.17093 0.44442,-0.17093c0.15384,0 0.2735,0.03703 0.35897,0.1111c0.09116,0.07407 0.245,0.24786 0.46152,0.52135c0.22222,0.27349 0.58973,0.41024 1.10253,0.41024c0.28489,0 0.54984,-0.04559 0.79484,-0.13675c0.245,-0.08546 0.42449,-0.24215 0.53844,-0.47006c0.11965,-0.22222 0.17378,-0.77205 0.16239,-1.64951c-0.44443,0.64385 -1.05124,0.96578 -1.82045,0.96578c-0.74641,0 -1.33613,-0.27919 -1.76916,-0.83758c-0.43303,-0.55839 -0.64955,-1.27061 -0.64955,-2.13668c0,-0.86607 0.22221,-1.55265 0.66664,-2.05975c0.44443,-0.5071 1.02276,-0.76065 1.73498,-0.76065c0.7806,0 1.4216,0.33048 1.923,0.99142zM275.92655,179.97864c0,0.56408 0.1225,0.99426 0.36751,1.29055c0.245,0.29628 0.58402,0.44442 1.01705,0.44442c0.37606,0 0.69798,-0.14244 0.96578,-0.42733c0.27349,-0.29059 0.41024,-0.72362 0.41024,-1.2991c0,-0.56408 -0.12535,-1.01136 -0.37605,-1.34183c-0.25071,-0.33047 -0.58972,-0.49571 -1.01706,-0.49571c-0.41594,0 -0.74926,0.15669 -0.99996,0.47007c-0.245,0.30768 -0.36751,0.76065 -0.36751,1.35892zM287.20818,185.13229c-0.2621,0 -0.46152,-0.05128 -0.59827,-0.15384c-0.13674,-0.09686 -0.37036,-0.41309 -0.70083,-0.94868c-0.33047,-0.53559 -0.60112,-1.1595 -0.81194,-1.87172c-0.21081,-0.71223 -0.31623,-1.43015 -0.31623,-2.15377c0,-0.78629 0.11965,-1.5555 0.35896,-2.30761c0.23931,-0.75781 0.5185,-1.38171 0.83757,-1.87172c0.32477,-0.49001 0.54699,-0.77205 0.66665,-0.84612c0.12535,-0.07407 0.31337,-0.11111 0.56408,-0.11111c0.15954,0 0.23931,0.04559 0.23931,0.13675c0,0.03418 -0.11681,0.29913 -0.35042,0.79484c-0.23361,0.49571 -0.44728,1.14526 -0.641,1.94865c-0.19373,0.80339 -0.29059,1.5555 -0.29059,2.25633c0,0.70652 0.09686,1.46718 0.29059,2.28196c0.19373,0.80908 0.40739,1.44724 0.641,1.91446c0.23361,0.46722 0.35042,0.73501 0.35042,0.80339c0,0.08546 -0.07978,0.1282 -0.23931,0.1282zM292.51675,175.91041v5.98268c0,0.71792 -0.23931,1.07688 -0.71793,1.07688c-0.16523,0 -0.33047,-0.05413 -0.49571,-0.16239c-0.15954,-0.11396 -0.23931,-0.39884 -0.23931,-0.85467v-4.70923c-0.91164,0.68943 -1.51561,1.03415 -1.8119,1.03415c-0.17093,0 -0.31053,-0.05413 -0.41878,-0.16239c-0.10826,-0.11396 -0.16239,-0.25925 -0.16239,-0.43588c0,-0.13105 0.03989,-0.24215 0.11966,-0.33332c0.07977,-0.09117 0.25355,-0.19658 0.52135,-0.31623c0.89455,-0.43873 1.52131,-0.94014 1.88027,-1.50422c0.15384,-0.23361 0.27065,-0.38745 0.35041,-0.46152c0.07977,-0.07407 0.19373,-0.11111 0.34187,-0.11111c0.42164,0 0.63246,0.31908 0.63246,0.95723zM294.72713,181.88454l1.50422,-6.16216c0.07407,-0.34187 0.14529,-0.56978 0.21367,-0.68374c0.07407,-0.11396 0.21081,-0.17094 0.41024,-0.17094c0.37036,0 0.55553,0.15385 0.55553,0.46153c0,0.11396 -0.03703,0.32192 -0.1111,0.6239l-1.49567,6.16217c-0.06838,0.33047 -0.14244,0.55554 -0.22221,0.67519c-0.07407,0.11965 -0.20797,0.17948 -0.4017,0.17948c-0.37036,0 -0.55553,-0.15384 -0.55553,-0.46152c0,-0.11965 0.03419,-0.32763 0.10256,-0.62391zM302.27707,178.55134c0.83757,0.44443 1.25637,1.08543 1.25637,1.92301c0,0.66094 -0.25925,1.24212 -0.77775,1.74352c-0.5128,0.50141 -1.18514,0.75211 -2.01702,0.75211c-0.83757,0 -1.48997,-0.25925 -1.95719,-0.77775c-0.46152,-0.5185 -0.69228,-0.98287 -0.69228,-1.39311c0,-0.17663 0.06268,-0.32763 0.18803,-0.45298c0.13105,-0.12535 0.29343,-0.18802 0.48716,-0.18802c0.12535,0 0.23646,0.03703 0.33332,0.1111c0.10256,0.06838 0.19942,0.23077 0.29059,0.48717c0.2621,0.7692 0.71223,1.1538 1.35038,1.1538c0.33617,0 0.64386,-0.1225 0.92305,-0.36751c0.27919,-0.2507 0.41878,-0.59257 0.41878,-1.0256c0,-0.40454 -0.11395,-0.72647 -0.34186,-0.96577c-0.22222,-0.23931 -0.5242,-0.35896 -0.90595,-0.35896l-0.68373,0.04273c-0.38745,0 -0.58118,-0.18232 -0.58118,-0.54698c0,-0.38745 0.23931,-0.58118 0.71792,-0.58118c0.59257,0 0.98287,-0.11396 1.1709,-0.34187c0.19373,-0.22791 0.29059,-0.47292 0.29059,-0.73502c0,-0.29628 -0.09686,-0.54129 -0.29059,-0.73502c-0.18803,-0.19373 -0.44158,-0.29059 -0.76066,-0.29059c-0.57548,0 -0.96578,0.28774 -1.1709,0.86322c-0.13105,0.34187 -0.33332,0.5128 -0.60682,0.5128c-0.18233,0 -0.33048,-0.05698 -0.44443,-0.17094c-0.10826,-0.11965 -0.16239,-0.26494 -0.16239,-0.43588c0,-0.41024 0.23076,-0.81479 0.69228,-1.21363c0.46152,-0.40454 1.06265,-0.60682 1.80336,-0.60682c0.72362,0 1.29909,0.18518 1.72643,0.55554c0.42733,0.37036 0.64101,0.83188 0.64101,1.38456c0,0.63815 -0.29914,1.19084 -0.89741,1.65806zM304.82932,174.86771c0.2564,0 0.45298,0.04843 0.58972,0.1453c0.13674,0.09686 0.37036,0.41594 0.70083,0.95723c0.33047,0.54129 0.60112,1.16805 0.81194,1.88028c0.21081,0.70652 0.31623,1.42444 0.31623,2.15376c0,0.7806 -0.11966,1.5498 -0.35896,2.3076c-0.23931,0.75211 -0.52135,1.37317 -0.84613,1.86318c-0.31907,0.49001 -0.54129,0.77205 -0.66664,0.84612c-0.11965,0.07407 -0.30199,0.11111 -0.54699,0.11111c-0.15954,0 -0.23931,-0.04274 -0.23931,-0.1282c0,-0.03988 0.11396,-0.30768 0.34187,-0.80339c0.23361,-0.49571 0.44728,-1.14526 0.64101,-1.94864c0.19942,-0.80339 0.29913,-1.55265 0.29913,-2.24778c0,-0.71223 -0.09971,-1.47289 -0.29913,-2.28197c-0.19373,-0.81479 -0.4074,-1.45579 -0.64101,-1.92301c-0.22791,-0.46722 -0.34187,-0.73216 -0.34187,-0.79484c0,-0.09117 0.07977,-0.13675 0.23931,-0.13675z"/></g></g></svg>