<svg version="1.1" xmlns="http://www.w3.org/2000/svg" xmlns:xlink="http://www.w3.org/1999/xlink" width="103.70875" height="39.38621" viewBox="0,0,103.70875,39.38621"><g transform="translate(-188.14563,-160.3069)"><g data-paper-data="{&quot;isPaintingLayer&quot;:true}" fill-rule="nonzero" stroke-linejoin="miter" stroke-miterlimit="10" stroke-dasharray="" stroke-dashoffset="0" style="mix-blend-mode: normal"><path d="M188.14563,190.80001c0,-7.29179 0,-17.61708 0,-21.66667c0,-3.82737 5.65846,-8.82644 10.03899,-8.82644c8.99358,0 61.02926,0 83.0627,0c5.63146,0 10.60706,5.44539 10.60706,9.4931c0,4.02993 0,11.94766 0,19c0,5.51744 -5.64386,10.89311 -10.60706,10.89311c-21.01001,0 -72.92533,0 -84.19884,0c-3.86395,0 -8.90285,-3.36141 -8.90285,-8.89311z" fill="#5e7060" stroke="none" stroke-width="0" stroke-linecap="butt"/><path d="M214.81935,183.57503c0.39881,0 0.72798,0.15509 0.98752,0.46528c0.25954,0.30385 0.38932,0.62037 0.38932,0.94955c0,0.87358 -0.52542,1.75982 -1.57624,2.65872c-1.05083,0.8989 -2.45931,1.34835 -4.22545,1.34835c-2.12697,0 -3.73486,-0.60138 -4.82367,-1.80412c-1.08248,-1.20908 -1.62372,-2.77899 -1.62372,-4.70973c0,-1.95606 0.56023,-3.55445 1.68069,-4.79519c1.12679,-1.24074 2.73151,-1.8611 4.81418,-1.8611c1.61422,0 2.94991,0.42096 4.00707,1.2629c1.05715,0.84193 1.58573,1.67436 1.58573,2.49729c0,0.39248 -0.14242,0.72165 -0.42728,0.98752c-0.28486,0.26587 -0.62354,0.39881 -1.01601,0.39881c-0.47477,0 -0.84508,-0.20257 -1.11096,-0.6077c-0.59504,-0.8989 -1.12363,-1.46863 -1.58573,-1.70918c-0.45578,-0.24054 -0.94954,-0.36082 -1.48129,-0.36082c-1.03184,0 -1.82945,0.39881 -2.39285,1.19642c-0.56339,0.79129 -0.84509,1.7788 -0.84509,2.96256c0,1.22174 0.29437,2.2156 0.88308,2.98157c0.58872,0.76596 1.37367,1.14894 2.35486,1.14894c0.56339,0 1.08248,-0.12977 1.55725,-0.38931c0.47477,-0.26587 0.88308,-0.66468 1.22491,-1.19642c0.34817,-0.53808 0.62353,-0.90839 0.8261,-1.11096c0.20257,-0.2089 0.46844,-0.31335 0.79762,-0.31335zM224.68746,175.82676c2.00669,0 3.5861,0.62037 4.73821,1.86111c1.15211,1.2344 1.72817,2.80747 1.72817,4.71922c0,1.9244 -0.58555,3.50381 -1.75664,4.73821c-1.16478,1.2344 -2.70936,1.85161 -4.63377,1.85161c-2.08899,0 -3.70004,-0.62353 -4.83316,-1.87059c-1.13312,-1.25339 -1.69967,-2.82646 -1.69967,-4.71922c0,-1.91807 0.57289,-3.49431 1.71867,-4.72872c1.15211,-1.2344 2.73152,-1.8516 4.73822,-1.8516zM224.68746,186.58507c0.98119,0 1.75665,-0.36716 2.32638,-1.10146c0.57606,-0.74065 0.86409,-1.76615 0.86409,-3.07652c0,-1.31037 -0.28803,-2.33587 -0.86407,-3.07652c-0.56972,-0.74065 -1.34519,-1.11097 -2.32637,-1.11097c-0.96854,0 -1.74083,0.37349 -2.31688,1.12046c-0.57606,0.74065 -0.86408,1.76299 -0.86408,3.06702c0,1.31669 0.28486,2.3422 0.85459,3.07652c0.57606,0.73431 1.35152,1.10146 2.32638,1.10146zM236.94839,173.67131v12.64789c0,0.77862 -0.03799,1.31037 -0.11395,1.59522c-0.06963,0.27853 -0.25005,0.52858 -0.54124,0.75014c-0.29119,0.22156 -0.60771,0.33234 -0.94954,0.33234c-0.34817,0 -0.67417,-0.10761 -0.97802,-0.32285c-0.29752,-0.22156 -0.48427,-0.47794 -0.56023,-0.76913c-0.06963,-0.29119 -0.10444,-0.81977 -0.10444,-1.58573v-12.64789c0,-0.79762 0.03799,-1.33568 0.11395,-1.61421c0.07596,-0.28486 0.25638,-0.53175 0.54124,-0.74065c0.29119,-0.2089 0.60771,-0.31335 0.94954,-0.31335c0.3988,0 0.74065,0.11394 1.02551,0.34183c0.29119,0.22156 0.46527,0.48743 0.52224,0.79762c0.0633,0.30385 0.09495,0.81344 0.09495,1.52876zM245.95717,175.82676c2.00669,0 3.58611,0.62037 4.73822,1.86111c1.15211,1.2344 1.72816,2.80747 1.72816,4.71922c0,1.9244 -0.58555,3.50381 -1.75665,4.73821c-1.16478,1.2344 -2.70936,1.85161 -4.63376,1.85161c-2.08899,0 -3.70005,-0.62353 -4.83316,-1.87059c-1.13312,-1.25339 -1.69967,-2.82646 -1.69967,-4.71922c0,-1.91807 0.5729,-3.49431 1.71868,-4.72872c1.15211,-1.2344 2.73152,-1.8516 4.73821,-1.8516zM245.95717,186.58507c0.98119,0 1.75665,-0.36716 2.32639,-1.10146c0.57606,-0.74065 0.86409,-1.76615 0.86409,-3.07652c0,-1.31037 -0.28803,-2.33587 -0.86408,-3.07652c-0.56972,-0.74065 -1.34519,-1.11097 -2.32637,-1.11097c-0.96854,0 -1.74083,0.37349 -2.31687,1.12046c-0.57606,0.74065 -0.86408,1.76299 -0.86408,3.06702c0,1.31669 0.28486,2.3422 0.85459,3.07652c0.57606,0.73431 1.35152,1.10146 2.32638,1.10146zM254.95171,186.31919v-8.30849c0,-1.45596 0.53491,-2.18395 1.60473,-2.18395c1.01918,0 1.54142,0.67101 1.56674,2.01302c0.67101,-1.34202 1.5984,-2.01302 2.78216,-2.01302c0.6267,0 1.27239,0.16459 1.93707,0.49376c0.67101,0.32285 1.00651,0.76913 1.00651,1.33885c0,0.3988 -0.1361,0.72798 -0.4083,0.98752c-0.26587,0.25321 -0.55074,0.37981 -0.85459,0.37981c-0.17726,0 -0.49376,-0.06963 -0.94955,-0.2089c-0.45579,-0.13927 -0.83559,-0.2089 -1.13945,-0.2089c-0.77862,0 -1.35784,0.39248 -1.73766,1.17743c-0.37981,0.78496 -0.56973,2.29789 -0.56973,4.53881v1.8706c0,0.82294 -0.03482,1.38 -0.10445,1.6712c-0.0633,0.28486 -0.23738,0.5444 -0.52224,0.77862c-0.28486,0.23422 -0.61404,0.35134 -0.98752,0.35134c-0.35449,0 -0.67417,-0.10445 -0.95903,-0.31335c-0.28486,-0.2089 -0.46844,-0.45579 -0.55074,-0.74065c-0.07596,-0.29119 -0.11395,-0.83243 -0.11395,-1.62372zM268.07674,179.19764c0,0.4178 0.2184,0.74698 0.65519,0.98752c0.43679,0.23422 1.40849,0.53807 2.9151,0.91156c2.93725,0.70899 4.40587,1.93074 4.40587,3.66523c0,1.36734 -0.49375,2.415 -1.48128,3.14298c-0.98752,0.72799 -2.37385,1.09198 -4.15899,1.09198c-1.80412,0 -3.16198,-0.37032 -4.07354,-1.11097c-0.91156,-0.74698 -1.36734,-1.53509 -1.36734,-2.36435c0,-0.35449 0.1266,-0.65834 0.37981,-0.91156c0.25321,-0.25321 0.56339,-0.37982 0.93055,-0.37982c0.50642,0 0.94955,0.31651 1.32936,0.94955c0.43046,0.69633 0.90207,1.15845 1.41482,1.38633c0.51275,0.22156 1.06349,0.33234 1.6522,0.33234c0.64569,0 1.17109,-0.14243 1.57624,-0.42729c0.41147,-0.29119 0.6172,-0.65835 0.6172,-1.10147c0,-0.40514 -0.17408,-0.75646 -0.52224,-1.05398c-0.34184,-0.29752 -1.28188,-0.62037 -2.82014,-0.96854c-1.53826,-0.35449 -2.65872,-0.84825 -3.36138,-1.48129c-0.70266,-0.63935 -1.05398,-1.39899 -1.05398,-2.2789c0,-0.98752 0.4273,-1.8611 1.28189,-2.62073c0.86092,-0.75964 2.14913,-1.13945 3.86464,-1.13945c1.57624,0 2.82964,0.31968 3.76019,0.95904c0.93688,0.63935 1.40532,1.30404 1.40532,1.99404c0,0.36082 -0.12028,0.66785 -0.36083,0.92105c-0.23422,0.24689 -0.56023,0.37032 -0.97803,0.37032c-0.6267,0 -1.19325,-0.35765 -1.69967,-1.07297c-0.50009,-0.72165 -1.25657,-1.08247 -2.2694,-1.08247c-0.5444,0 -1.02233,0.11078 -1.4338,0.33234c-0.40514,0.22156 -0.6077,0.53808 -0.6077,0.94955z" fill="#ffffff" stroke="#000000" stroke-width="5" stroke-linecap="square"/><path d="M214.81935,183.57503c0.39881,0 0.72798,0.15509 0.98752,0.46528c0.25954,0.30385 0.38932,0.62037 0.38932,0.94955c0,0.87358 -0.52542,1.75982 -1.57624,2.65872c-1.05083,0.8989 -2.45931,1.34835 -4.22545,1.34835c-2.12697,0 -3.73486,-0.60138 -4.82367,-1.80412c-1.08248,-1.20908 -1.62372,-2.77899 -1.62372,-4.70973c0,-1.95606 0.56023,-3.55445 1.68069,-4.79519c1.12679,-1.24074 2.73151,-1.8611 4.81418,-1.8611c1.61422,0 2.94991,0.42096 4.00707,1.2629c1.05715,0.84193 1.58573,1.67436 1.58573,2.49729c0,0.39248 -0.14242,0.72165 -0.42728,0.98752c-0.28486,0.26587 -0.62354,0.39881 -1.01601,0.39881c-0.47477,0 -0.84508,-0.20257 -1.11096,-0.6077c-0.59504,-0.8989 -1.12363,-1.46863 -1.58573,-1.70918c-0.45578,-0.24054 -0.94954,-0.36082 -1.48129,-0.36082c-1.03184,0 -1.82945,0.39881 -2.39285,1.19642c-0.56339,0.79129 -0.84509,1.7788 -0.84509,2.96256c0,1.22174 0.29437,2.2156 0.88308,2.98157c0.58872,0.76596 1.37367,1.14894 2.35486,1.14894c0.56339,0 1.08248,-0.12977 1.55725,-0.38931c0.47477,-0.26587 0.88308,-0.66468 1.22491,-1.19642c0.34817,-0.53808 0.62353,-0.90839 0.8261,-1.11096c0.20257,-0.2089 0.46844,-0.31335 0.79762,-0.31335zM224.68746,175.82676c2.00669,0 3.5861,0.62037 4.73821,1.86111c1.15211,1.2344 1.72817,2.80747 1.72817,4.71922c0,1.9244 -0.58555,3.50381 -1.75664,4.73821c-1.16478,1.2344 -2.70936,1.85161 -4.63377,1.85161c-2.08899,0 -3.70004,-0.62353 -4.83316,-1.87059c-1.13312,-1.25339 -1.69967,-2.82646 -1.69967,-4.71922c0,-1.91807 0.57289,-3.49431 1.71867,-4.72872c1.15211,-1.2344 2.73152,-1.8516 4.73822,-1.8516zM224.68746,186.58507c0.98119,0 1.75665,-0.36716 2.32638,-1.10146c0.57606,-0.74065 0.86409,-1.76615 0.86409,-3.07652c0,-1.31037 -0.28803,-2.33587 -0.86407,-3.07652c-0.56972,-0.74065 -1.34519,-1.11097 -2.32637,-1.11097c-0.96854,0 -1.74083,0.37349 -2.31688,1.12046c-0.57606,0.74065 -0.86408,1.76299 -0.86408,3.06702c0,1.31669 0.28486,2.3422 0.85459,3.07652c0.57606,0.73431 1.35152,1.10146 2.32638,1.10146zM236.94839,173.67131v12.64789c0,0.77862 -0.03799,1.31037 -0.11395,1.59522c-0.06963,0.27853 -0.25005,0.52858 -0.54124,0.75014c-0.29119,0.22156 -0.60771,0.33234 -0.94954,0.33234c-0.34817,0 -0.67417,-0.10761 -0.97802,-0.32285c-0.29752,-0.22156 -0.48427,-0.47794 -0.56023,-0.76913c-0.06963,-0.29119 -0.10444,-0.81977 -0.10444,-1.58573v-12.64789c0,-0.79762 0.03799,-1.33568 0.11395,-1.61421c0.07596,-0.28486 0.25638,-0.53175 0.54124,-0.74065c0.29119,-0.2089 0.60771,-0.31335 0.94954,-0.31335c0.3988,0 0.74065,0.11394 1.02551,0.34183c0.29119,0.22156 0.46527,0.48743 0.52224,0.79762c0.0633,0.30385 0.09495,0.81344 0.09495,1.52876zM245.95717,175.82676c2.00669,0 3.58611,0.62037 4.73822,1.86111c1.15211,1.2344 1.72816,2.80747 1.72816,4.71922c0,1.9244 -0.58555,3.50381 -1.75665,4.73821c-1.16478,1.2344 -2.70936,1.85161 -4.63376,1.85161c-2.08899,0 -3.70005,-0.62353 -4.83316,-1.87059c-1.13312,-1.25339 -1.69967,-2.82646 -1.69967,-4.71922c0,-1.91807 0.5729,-3.49431 1.71868,-4.72872c1.15211,-1.2344 2.73152,-1.8516 4.73821,-1.8516zM245.95717,186.58507c0.98119,0 1.75665,-0.36716 2.32639,-1.10146c0.57606,-0.74065 0.86409,-1.76615 0.86409,-3.07652c0,-1.31037 -0.28803,-2.33587 -0.86408,-3.07652c-0.56972,-0.74065 -1.34519,-1.11097 -2.32637,-1.11097c-0.96854,0 -1.74083,0.37349 -2.31687,1.12046c-0.57606,0.74065 -0.86408,1.76299 -0.86408,3.06702c0,1.31669 0.28486,2.3422 0.85459,3.07652c0.57606,0.73431 1.35152,1.10146 2.32638,1.10146zM254.95171,186.31919v-8.30849c0,-1.45596 0.53491,-2.18395 1.60473,-2.18395c1.01918,0 1.54142,0.67101 1.56674,2.01302c0.67101,-1.34202 1.5984,-2.01302 2.78216,-2.01302c0.6267,0 1.27239,0.16459 1.93707,0.49376c0.67101,0.32285 1.00651,0.76913 1.00651,1.33885c0,0.3988 -0.1361,0.72798 -0.4083,0.98752c-0.26587,0.25321 -0.55074,0.37981 -0.85459,0.37981c-0.17726,0 -0.49376,-0.06963 -0.94955,-0.2089c-0.45579,-0.13927 -0.83559,-0.2089 -1.13945,-0.2089c-0.77862,0 -1.35784,0.39248 -1.73766,1.17743c-0.37981,0.78496 -0.56973,2.29789 -0.56973,4.53881v1.8706c0,0.82294 -0.03482,1.38 -0.10445,1.6712c-0.0633,0.28486 -0.23738,0.5444 -0.52224,0.77862c-0.28486,0.23422 -0.61404,0.35134 -0.98752,0.35134c-0.35449,0 -0.67417,-0.10445 -0.95903,-0.31335c-0.28486,-0.2089 -0.46844,-0.45579 -0.55074,-0.74065c-0.07596,-0.29119 -0.11395,-0.83243 -0.11395,-1.62372zM268.07674,179.19764c0,0.4178 0.2184,0.74698 0.65519,0.98752c0.43679,0.23422 1.40849,0.53807 2.9151,0.91156c2.93725,0.70899 4.40587,1.93074 4.40587,3.66523c0,1.36734 -0.49375,2.415 -1.48128,3.14298c-0.98752,0.72799 -2.37385,1.09198 -4.15899,1.09198c-1.80412,0 -3.16198,-0.37032 -4.07354,-1.11097c-0.91156,-0.74698 -1.36734,-1.53509 -1.36734,-2.36435c0,-0.35449 0.1266,-0.65834 0.37981,-0.91156c0.25321,-0.25321 0.56339,-0.37982 0.93055,-0.37982c0.50642,0 0.94955,0.31651 1.32936,0.94955c0.43046,0.69633 0.90207,1.15845 1.41482,1.38633c0.51275,0.22156 1.06349,0.33234 1.6522,0.33234c0.64569,0 1.17109,-0.14243 1.57624,-0.42729c0.41147,-0.29119 0.6172,-0.65835 0.6172,-1.10147c0,-0.40514 -0.17408,-0.75646 -0.52224,-1.05398c-0.34184,-0.29752 -1.28188,-0.62037 -2.82014,-0.96854c-1.53826,-0.35449 -2.65872,-0.84825 -3.36138,-1.48129c-0.70266,-0.63935 -1.05398,-1.39899 -1.05398,-2.2789c0,-0.98752 0.4273,-1.8611 1.28189,-2.62073c0.86092,-0.75964 2.14913,-1.13945 3.86464,-1.13945c1.57624,0 2.82964,0.31968 3.76019,0.95904c0.93688,0.63935 1.40532,1.30404 1.40532,1.99404c0,0.36082 -0.12028,0.66785 -0.36083,0.92105c-0.23422,0.24689 -0.56023,0.37032 -0.97803,0.37032c-0.6267,0 -1.19325,-0.35765 -1.69967,-1.07297c-0.50009,-0.72165 -1.25657,-1.08247 -2.2694,-1.08247c-0.5444,0 -1.02233,0.11078 -1.4338,0.33234c-0.40514,0.22156 -0.6077,0.53808 -0.6077,0.94955z" fill="#ffffff" stroke="none" stroke-width="0" stroke-linecap="square"/></g></g></svg>