<svg version="1.1" xmlns="http://www.w3.org/2000/svg" xmlns:xlink="http://www.w3.org/1999/xlink" width="373.43037" height="286.78679" viewBox="0,0,373.43037,286.78679"><defs><linearGradient x1="240.00001" y1="180.00002" x2="240.00001" y2="180.00002" gradientUnits="userSpaceOnUse" id="color-1"><stop offset="0" stop-color="#e7bc52"/><stop offset="1" stop-color="#efd85e"/></linearGradient><linearGradient x1="240.00001" y1="180.00002" x2="240.00001" y2="180.00002" gradientUnits="userSpaceOnUse" id="color-2"><stop offset="0" stop-color="#efd85e" stop-opacity="0"/><stop offset="1" stop-color="#efd85e" stop-opacity="0"/></linearGradient></defs><g transform="translate(-42.63201,101.59109)"><g data-paper-data="{&quot;isPaintingLayer&quot;:true}" fill-rule="nonzero" stroke-linejoin="miter" stroke-miterlimit="10" stroke-dasharray="" stroke-dashoffset="0" style="mix-blend-mode: normal"><path d="" fill="url(#color-1)" stroke="#000000" stroke-width="15" stroke-linecap="butt"/><path d="" fill="#e7bc52" stroke="none" stroke-width="0" stroke-linecap="butt"/><path d="" fill="url(#color-2)" stroke="#000000" stroke-width="15" stroke-linecap="butt"/><g fill="none" stroke="#392f0e" stroke-width="5" stroke-linecap="round"><path d=""/><path d=""/><path d=""/></g><path d="M42.63202,185.1957v-286.78678h369.36937v286.78679z" fill="none" stroke="none" stroke-width="none" stroke-linecap="butt"/><path d="M182.23716,50.65888c0,0 31.80623,100.53794 97.56681,95.97137c125.4122,-6.31077 82.61338,-110.67924 82.61338,-110.67924" fill="none" stroke="#000000" stroke-width="8" stroke-linecap="round"/><path d="M74.91781,41.62809c5.41737,-13.41209 18.4001,-37.56305 44.41105,-48.14916c63.30949,-25.76611 179.59614,-27.4158 241.52071,-11.04871c35.00061,9.2509 44.92153,32.03459 47.71282,43.21927c0.97605,3.91101 -1.44987,6.42209 -6.01936,6.49481c-15.71688,0.2501 -55.5591,1.1437 -99.55033,4.14869c-59.15263,4.04065 -97.3791,15.50535 -156.72545,17.23711c-36.99751,1.23528 -50.53398,-5.03336 -65.10928,-5.03432c-5.86526,-0.00039 -8.5289,-1.20127 -6.24014,-6.86767z" fill="#85754d" stroke="#000000" stroke-width="15" stroke-linecap="butt"/><path d="M139.22341,24.76796c0,0 -5.39575,-0.88832 -12.35224,-4.85862c-2.23301,-1.27445 -5.66275,-5.14145 -5.66275,-5.14145" fill="none" stroke="#70563e" stroke-width="7" stroke-linecap="round"/><path d="M114.57262,32.17872c0,0 -3.89554,0.09805 -5.67803,-0.05666c-1.58662,-0.13772 -4.49787,-0.82662 -4.49787,-0.82662" fill="none" stroke="#70563e" stroke-width="7" stroke-linecap="round"/><g stroke-linecap="butt"><path d="M139.06693,-2.75305c4.10401,-12.75685 14.36987,-42.33293 24.26817,-52.26921c1.99844,-2.00611 10.51848,-17.25637 32.77725,-19.38558c27.12566,-5.69692 69.32365,-5.92196 94.71351,-5.42514c12.93095,0.25302 21.80624,7.89044 22.66195,16.94105c0.99905,10.56691 2.75001,23.66034 5.64683,30.77566c2.41003,5.91965 7.29133,13.14935 10.99591,18.21409c2.72481,3.72525 2.67482,7.86331 -1.54183,10.27508c-13.01636,7.44488 -45.83808,22.77705 -96.70733,23.74894c-44.44577,0.84916 -75.24599,-8.96926 -88.03878,-14.01889c-4.36382,-1.7225 -5.96098,-5.17154 -4.77565,-8.85598z" fill="#85754d" stroke="#000000" stroke-width="15"/><path d="M139.06694,-2.75306c4.10401,-12.75685 14.36987,-42.33294 24.26817,-52.26921c1.99844,-2.00611 32.77725,-19.38557 32.77725,-19.38557c0,0 12.13759,21.57083 15.51375,34.79064c0.86568,3.38967 -9.07205,7.96101 -9.67869,11.52295c-0.62553,3.67289 10.99055,5.18553 12.08854,9.28994c0.7968,2.97851 -11.00476,6.49388 -11.99873,9.95039c-1.15114,4.00306 8.42289,7.92311 8.65505,10.77391c0.19754,2.42566 -7.69221,8.09311 -7.41216,10.03394c1.04382,7.23379 10.57433,7.56691 10.57433,7.56691c0,0 -57.21908,-8.36827 -70.01187,-13.4179c-4.36382,-1.7225 -5.96098,-5.17154 -4.77565,-8.85598z" fill="#6d4e3b" stroke="none" stroke-width="0"/><path d="M157.8959,-61.27737c2.03607,-1.4132 16.14682,-14.74167 38.43828,-15.70147c27.2248,-3.43784 69.4119,-2.47061 94.78312,-1.42639c12.92145,0.53182 21.64756,6.35404 22.32995,12.99445c0.7967,7.75292 -165.63601,11.13297 -155.55134,4.13341z" fill="#8a7b53" stroke="none" stroke-width="0"/><path d="M139.06693,-2.75305c4.10401,-12.75685 14.36987,-42.33293 24.26817,-52.26922c1.99844,-2.00611 10.51848,-17.25637 32.77725,-19.38557c27.12566,-5.69692 69.32364,-5.92196 94.7135,-5.42514c12.93095,0.25302 21.80624,7.89043 22.66194,16.94104c0.99905,10.56691 2.75001,23.66035 5.64683,30.77568c2.41003,5.91965 7.29133,13.14935 10.99591,18.21409c2.72481,3.72525 2.67483,7.86331 -1.54181,10.27508c-13.01636,7.4449 -45.83809,22.77705 -96.70733,23.74893c-44.44577,0.84915 -75.246,-8.96926 -88.03879,-14.01888c-4.36382,-1.7225 -5.96098,-5.17154 -4.77566,-8.85598z" fill="none" stroke="#000000" stroke-width="15"/></g></g></g></svg>