<svg version="1.1" xmlns="http://www.w3.org/2000/svg" xmlns:xlink="http://www.w3.org/1999/xlink" width="304.3003" height="304.30025" viewBox="0,0,304.3003,304.30025"><g transform="translate(-87.84985,-27.8499)"><g data-paper-data="{&quot;isPaintingLayer&quot;:true}" fill-rule="nonzero" stroke-linejoin="miter" stroke-miterlimit="10" stroke-dasharray="" stroke-dashoffset="0" style="mix-blend-mode: normal"><path d="M89.84985,270.23519c0,-59.99896 0,-148.11906 0,-181.81815c0,-26.16557 22.73163,-58.56714 54.69562,-58.56714c60.91162,0 155.35022,0 189.899,0c25.1397,0 55.70568,31.10369 55.70568,56.54696c0,34.37139 0,127.20919 0,187.87876c0,32.57375 -30.56593,55.87453 -55.70568,55.87453c-33.79375,0 -124.88841,0 -185.85858,0c-34.07175,0 -58.73599,-25.26921 -58.73599,-59.91496z" fill="#83a08b" stroke="#83a08b" stroke-width="4" stroke-linecap="butt"/><g><path d="M163.86731,242.87366c0,0 -3.4208,-2.54077 -6.18865,-7.68979c-3.65794,-6.80482 -7.16455,-17.31922 -7.9485,-24.4376c-1.22369,-11.11131 1.69293,-13.70679 3.40964,-19.11502c0.90897,-2.86361 0.48057,-5.69007 -1.21449,-7.31397c-6.39991,-6.13113 -20.48326,-22.86025 -9.038,-42.81476c1.35215,-2.35745 8.35445,-9.01421 9.93709,-9.86443c20.17649,-10.83914 40.49134,-11.93543 58.62164,-13.82351c46.41075,-4.8332 69.86131,16.92544 84.73408,29.79009c13.69104,11.84248 31.99658,18.36999 31.99658,18.36999c0,0 7.25739,12.80518 9.70219,19.01125c2.34575,5.95462 3.57532,17.50195 3.57532,17.50195c0,0 -36.1918,-4.1152 -100.42927,12.20186c-54.77363,13.91314 -77.15762,28.18393 -77.15762,28.18393z" fill="#b41d1d" stroke="none" stroke-width="15" stroke-linecap="butt"/><path d="M163.86731,242.87366c0,0 -3.4208,-2.54077 -6.18865,-7.68979c-3.65794,-6.80482 -7.16455,-17.31922 -7.9485,-24.4376c-1.22369,-11.11131 1.69293,-13.70679 3.40964,-19.11502c0.90897,-2.86361 0.48057,-5.69007 -1.21449,-7.31397c-6.39991,-6.13113 -20.48326,-22.86025 -9.038,-42.81476c1.35215,-2.35745 8.35445,-9.01421 9.93709,-9.86443c12.87747,-6.91798 -4.22499,14.53343 15.4934,21.27501c7.51397,2.56898 -0.497,18.6946 6.0618,18.01157c13.03671,-1.35763 -0.52015,7.76369 3.47595,13.62747c10.23005,15.01132 18.74311,39.39829 18.74311,39.39829z" fill="#760d2a" stroke="none" stroke-width="15" stroke-linecap="butt"/><path d="M242.50977,217.3102c0,0 -22.0755,-14.15523 -23.75567,-21.72091c-1.19885,-5.39836 14.62196,-19.4077 14.62196,-19.4077l28.67785,-4.7154l9.13369,40.02214z" fill="#c43131" stroke="#690b2c" stroke-width="7.5" stroke-linecap="butt"/><path d="M269.64178,212.44782l-9.096,-39.9809l29.42066,-3.6868l7.346,39.23091z" fill="#c43131" stroke="#690b2c" stroke-width="7.5" stroke-linecap="butt"/><path d="M296.1902,203.31281l-5.29567,-33.84168l29.41588,-3.37059l3.79566,35.09167z" fill="#c43131" stroke="#690b2c" stroke-width="7.5" stroke-linecap="butt"/><path d="M216.41812,222.12357c0,0 -28.65205,-11.36014 -30.61706,-18.11562c-1.0454,-3.59398 19.72686,-19.32362 19.72686,-19.32362l25.63494,-5.86044l9.6157,34.25481l4.04065,2.6312z" fill="#c43131" stroke="#690b2c" stroke-width="7.5" stroke-linecap="butt"/><path d="M186.98854,223.30817c-0.01005,0.18056 -0.02339,0.361 -0.03999,0.54108c0.48555,0.49438 0.78275,1.15849 0.78275,1.88868c0,1.04734 -0.61148,1.95874 -1.51312,2.42834l-0.48476,0.26369c-1.6232,3.41649 -4.73257,5.52092 -8.98176,3.50866c-1.35689,0.62861 -2.67041,1.28684 -3.82626,1.9704c-0.23786,0.14066 -0.46668,0.31004 -0.6896,0.49731c-0.44584,2.38877 -1.78735,4.41786 -5.54417,3.68613c-3.41394,-0.66495 -4.54233,-5.03162 -6.81349,-7.54743l2.38275,-0.54826l-0.16996,-0.49802c-2.50316,-2.48029 -3.98121,-6.06728 -5.52331,-8.97523c-0.99374,-1.87391 -2.70696,-3.58855 -2.8495,-5.68331c-0.19725,-2.89869 -0.51248,-6.728 1.88244,-8.52805c1.26338,-0.94957 2.98967,-0.02471 4.56386,1.02723c0.20648,-0.15552 0.43568,-0.28491 0.68207,-0.38292l0.66115,-0.27972c0.17645,-0.74149 0.66579,-1.36993 1.32895,-1.75293l4.87712,-2.92058l0.28393,0.42965c3.8278,-2.78139 8.38051,-4.47525 11.98951,-0.33104c2.01331,2.31189 1.01271,6.1033 2.71896,8.62913c2.39678,3.54802 6.75498,5.40198 9.23592,9.11971l-2.85466,4.22756c0,0 -1.2389,0 -2.09882,-0.77006z" fill="#c43131" stroke="none" stroke-width="15" stroke-linecap="butt"/><path d="M191.1678,232.97139l-15.0155,-36.2645l27.04432,-11.22421l13.31873,37.56772z" fill="#c43131" stroke="#690b2c" stroke-width="7.5" stroke-linecap="butt"/><path d="M154.46238,206.08384c0,0 37.2159,-17.33566 60.41178,-23.90191c53.59642,-15.17202 106.11052,-15.93066 106.11052,-15.93066" fill="none" stroke="#690b2c" stroke-width="10" stroke-linecap="round"/><path d="M163.86731,242.87366c0,0 -3.4208,-2.54077 -6.18865,-7.68979c-3.65794,-6.80482 -7.16455,-17.31922 -7.9485,-24.4376c-1.22369,-11.1113 1.69293,-13.70679 3.40964,-19.11501c0.90897,-2.86361 0.48057,-5.69007 -1.21449,-7.31396c-6.3999,-6.13112 -20.48326,-22.86025 -9.038,-42.81477c1.35216,-2.35745 8.35445,-9.01421 9.9371,-9.86444c20.17648,-10.83914 40.49135,-11.93543 58.62165,-13.82351c46.41075,-4.8332 69.86131,16.92544 84.73408,29.79009c7.45209,6.44592 16.27134,11.31718 22.76162,14.41828c1.78521,0.85298 10.0761,5.43585 11.28213,7.63846c2.3365,4.26725 6.04255,11.23125 7.65504,15.32451c2.34575,5.95462 3.57533,17.50195 3.57533,17.50195c0,0 -36.19181,-4.1152 -100.42928,12.20187c-54.77363,13.91314 -77.15762,28.18394 -77.15762,28.18394z" fill="none" stroke="#2e0000" stroke-width="15" stroke-linecap="butt"/></g></g></g></svg>