<svg version="1.1" xmlns="http://www.w3.org/2000/svg" xmlns:xlink="http://www.w3.org/1999/xlink" width="36.83333" height="23.75" viewBox="0,0,36.83333,23.75"><g transform="translate(-198.28649,-273.75276)"><g data-paper-data="{&quot;isPaintingLayer&quot;:true}" fill-rule="nonzero" stroke-linejoin="miter" stroke-miterlimit="10" stroke-dasharray="" stroke-dashoffset="0" style="mix-blend-mode: normal"><g fill="#6c6c6c" stroke="#666666"><path d="M199.0365,297.00276v-20c0,0 27.30046,0 32.33333,0c1.53303,0 3,1.36301 3,3.33334c0,4.26438 0,11.37358 0,13.66666c0,1.40837 -1.28395,3 -2.66666,3c-4.83951,0 -32.66666,0 -32.66666,0z" stroke-width="1" stroke-linecap="butt"/><path d="M199.0365,294.1018v-17.09906c0,0 27.38015,0 32.12814,0c1.44625,0 1.20519,1.1653 1.20519,2.84984c0,3.64584 0,9.72388 0,11.68435c0,1.20409 -1.21127,2.56486 -2.51572,2.56486c-4.56557,0 -30.81761,0 -30.81761,0z" stroke-width="0" stroke-linecap="butt"/><path d="M199.0365,297.00276v-20c0,0 27.30046,0 32.33333,0c1.53303,0 3,1.36301 3,3.33334c0,4.26438 0,11.37358 0,13.66666c0,1.40837 -1.28395,3 -2.66666,3c-4.83951,0 -32.66666,0 -32.66666,0z" stroke-width="1" stroke-linecap="butt"/><path d="M233.57815,282.62776c0,0 -10.98551,0 -12.75,0c-0.46224,0 -0.875,0.42421 -0.875,1c0,0.95665 0,2.33174 0,2.875c0,0.44209 -0.33627,1 -0.75,1c-1.98418,0 -17.25,0 -17.25,0" stroke-width="1" stroke-linecap="round"/><path d="M216.07815,276.25276c0,0 0,6.06312 0,7.625c0,0.69274 -0.10196,1.5 -2.5,1.5c-2.54129,0 -12.25,0 -12.25,0" stroke-width="1" stroke-linecap="round"/><path d="M213.20315,276.37776c0,0 0,3.88889 0,5c0,0.55556 -0.48129,1.25 -1.125,1.25c-1.01131,0 -2.4235,0 -3,0c-0.4927,0 -1.25,0.11512 -1.125,1.125c0.04984,0.40262 0,1.25 0,1.25" stroke-width="1" stroke-linecap="round"/><path d="M233.45315,290.75276c0,0 -17.79051,0 -20.375,0c-0.6073,0 -1.14777,-0.45537 -1.16303,-0.7606c-0.02308,-0.46158 -0.08697,-1.7394 -0.08697,-1.7394" stroke-width="1" stroke-linecap="round"/><path d="M234.07815,286.37776l-14,0.125" stroke-width="1" stroke-linecap="round"/></g><path d="M199.0365,294.50276v-20c0,0 27.30046,0 32.33333,0c1.53303,0 3,1.36301 3,3.33334c0,4.26438 0,11.37358 0,13.66666c0,1.40837 -1.28395,3 -2.66666,3c-4.83951,0 -32.66666,0 -32.66666,0z" fill="#313131" stroke="#000000" stroke-width="1.5" stroke-linecap="butt"/><path d="M199.0365,291.6018v-17.09906c0,0 27.38015,0 32.12814,0c1.44625,0 1.20519,1.1653 1.20519,2.84984c0,3.64584 0,9.72388 0,11.68435c0,1.20409 -1.21127,2.56486 -2.51572,2.56486c-1.46911,0 -5.1837,0 -9.54654,0c-9.19561,0 -21.27107,0 -21.27107,0z" fill="#666666" stroke="none" stroke-width="1.5" stroke-linecap="butt"/><path d="M199.0365,294.50276v-20c0,0 27.30046,0 32.33333,0c1.53303,0 3,1.36301 3,3.33334c0,4.26438 0,11.37358 0,13.66666c0,1.40837 -1.28395,3 -2.66666,3c-4.83951,0 -32.66666,0 -32.66666,0z" fill="none" stroke="#000000" stroke-width="1.5" stroke-linecap="butt"/><path d="M233.85089,289.09368c0,0 -10.98551,0 -12.75,0c-0.46224,0 -0.875,-0.42421 -0.875,-1c0,-0.95665 0,-2.33174 0,-2.875c0,-0.44209 -0.33627,-1 -0.75,-1c-1.98418,0 -7.25,0.09091 -7.25,0.09091" data-paper-data="{&quot;index&quot;:null}" fill="none" stroke="#f8cd39" stroke-width="1.5" stroke-linecap="round"/><path d="M201.32814,280.37776c0,0 10.50924,0.0032 12.61574,0.00384c0.70389,0.00022 1.67408,-0.52296 1.87263,-0.91447c0.1754,-0.34585 0.53998,-1.06476 0.86466,-1.705c0.33411,-0.65884 1.18997,-1.2324 1.8077,-1.23025c2.24366,0.0078 15.58926,0.05421 15.58926,0.05421" fill="none" stroke="#f8cd39" stroke-width="1.5" stroke-linecap="round"/><path d="M208.65772,282.60502c0,0 0,3.88889 0,5c0,0.55556 -0.48129,1.25 -1.125,1.25c-1.01131,0 -2.4235,0 -3,0c-0.4927,0 -1.25,0.11512 -1.125,1.125c0.04984,0.40262 0,1.25 0,1.25" fill="none" stroke="#f8cd39" stroke-width="1.5" stroke-linecap="round"/><path d="M233.80544,280.24139l-14,0.125" fill="none" stroke="#f8cd39" stroke-width="1.5" stroke-linecap="round"/><path d="M222.89636,283.8725l11,-0.09821" fill="none" stroke="#f8cd39" stroke-width="1.5" stroke-linecap="round"/></g></g></svg>