<svg version="1.1" xmlns="http://www.w3.org/2000/svg" xmlns:xlink="http://www.w3.org/1999/xlink" width="706.21021" height="368" viewBox="0,0,706.21021,368"><g transform="translate(23.10511,4)"><g data-paper-data="{&quot;isPaintingLayer&quot;:true}" fill-rule="nonzero" stroke-linejoin="miter" stroke-miterlimit="10" stroke-dasharray="" stroke-dashoffset="0" style="mix-blend-mode: normal"><path d="M-22.1051,363v-366h704.21021v366z" fill="#000000" stroke="#000000" stroke-width="2" stroke-linecap="butt"/><path d="M114.44931,157.50004v11.80013c0,0.74415 -0.02658,1.28234 -0.07973,1.61454c-0.05315,0.33221 -0.23919,0.62456 -0.55811,0.87704c-0.30564,0.25248 -0.65778,0.37872 -1.05643,0.37872c-0.41194,0 -0.77073,-0.11295 -1.07636,-0.33885c-0.30564,-0.23919 -0.49167,-0.53154 -0.55811,-0.87704c-0.05315,-0.3455 -0.07973,-0.89697 -0.07973,-1.65441v-11.80013h-3.14936c-0.691,0 -1.16274,-0.02658 -1.41522,-0.07973c-0.25248,-0.05315 -0.47838,-0.19933 -0.67771,-0.43852c-0.19933,-0.23919 -0.29899,-0.5116 -0.29899,-0.81724c0,-0.23919 0.06644,-0.47174 0.19933,-0.69764c0.13288,-0.22591 0.31228,-0.38537 0.53818,-0.47838c0.22591,-0.10631 0.77737,-0.15946 1.65441,-0.15946h9.68727c0.79731,0 1.30891,0.03322 1.53481,0.09966c0.22591,0.06644 0.42523,0.21926 0.59798,0.45845c0.17275,0.22591 0.25912,0.48503 0.25912,0.77737c0,0.22591 -0.06644,0.45845 -0.19933,0.69764c-0.13288,0.22591 -0.31228,0.39201 -0.53818,0.49832c-0.22591,0.09302 -0.77737,0.13953 -1.65441,0.13953zM123.11004,154.68953c0.41194,0 0.76409,0.15281 1.05643,0.45845c0.30564,0.30564 0.45845,0.66442 0.45845,1.07636c0,0.42523 -0.15281,0.79066 -0.45845,1.0963c-0.29234,0.30564 -0.64449,0.45845 -1.05643,0.45845c-0.42523,0 -0.79066,-0.15281 -1.0963,-0.45845c-0.30564,-0.30564 -0.45845,-0.67106 -0.45845,-1.0963c0,-0.41194 0.15281,-0.77073 0.45845,-1.07636c0.30564,-0.30564 0.67106,-0.45845 1.0963,-0.45845zM124.66478,161.84535v7.694c0,0.75744 -0.03322,1.27569 -0.09966,1.55475c-0.06644,0.27906 -0.24584,0.53154 -0.53818,0.75744c-0.27906,0.21261 -0.58469,0.31892 -0.9169,0.31892c-0.3455,0 -0.66442,-0.10631 -0.95677,-0.31892c-0.29234,-0.21261 -0.47838,-0.4651 -0.55811,-0.75744c-0.06644,-0.29234 -0.09966,-0.81059 -0.09966,-1.55475v-7.65414c0,-0.70429 0.02658,-1.20261 0.07973,-1.49495c0.05315,-0.29234 0.21926,-0.55147 0.49832,-0.77737c0.29234,-0.23919 0.62456,-0.35879 0.99663,-0.35879c0.37207,0 0.691,0.10631 0.95677,0.31892c0.27906,0.19933 0.4518,0.45845 0.51825,0.77737c0.07973,0.31892 0.1196,0.81724 0.1196,1.49495zM145.92436,163.97815v5.46154c0,0.75744 -0.03322,1.28898 -0.09966,1.59461c-0.05315,0.30564 -0.21926,0.5714 -0.49832,0.79731c-0.27906,0.22591 -0.60463,0.33885 -0.9767,0.33885c-0.37207,0 -0.69764,-0.11295 -0.9767,-0.33885c-0.27906,-0.22591 -0.4518,-0.49832 -0.51825,-0.81724c-0.06644,-0.33221 -0.09966,-0.8571 -0.09966,-1.57468v-4.62437c0,-1.35542 -0.15946,-2.20588 -0.47838,-2.55138c-0.31892,-0.3455 -0.75744,-0.51825 -1.31555,-0.51825c-0.58469,0 -1.07636,0.15946 -1.47502,0.47838c-0.39865,0.31892 -0.67106,0.73751 -0.81724,1.25576c-0.14617,0.51825 -0.21926,1.32884 -0.21926,2.43178v3.52808c0,0.75744 -0.03322,1.29562 -0.09966,1.61454c-0.05315,0.30564 -0.22591,0.5714 -0.51825,0.79731c-0.27906,0.21261 -0.60463,0.31892 -0.9767,0.31892c-0.49167,0 -0.87704,-0.16611 -1.15609,-0.49832c-0.27906,-0.33221 -0.41859,-1.07636 -0.41859,-2.23246v-4.34532c0,-1.24911 -0.09302,-2.11951 -0.27906,-2.61118c-0.18604,-0.49167 -0.67106,-0.73751 -1.45508,-0.73751c-0.81059,0 -1.45508,0.25912 -1.93347,0.77737c-0.4651,0.51825 -0.69764,1.62783 -0.69764,3.32875v3.58788c0,0.74415 -0.02658,1.2624 -0.07973,1.55475c-0.03987,0.29234 -0.19933,0.56476 -0.47838,0.81724c-0.27906,0.23919 -0.60463,0.35879 -0.9767,0.35879c-0.35879,0 -0.68436,-0.10631 -0.9767,-0.31892c-0.29234,-0.22591 -0.47174,-0.49167 -0.53818,-0.79731c-0.06644,-0.30564 -0.09966,-0.84382 -0.09966,-1.61454v-7.67407c0,-0.74415 0.03322,-1.24247 0.09966,-1.49495c0.06644,-0.26577 0.23255,-0.49832 0.49832,-0.69764c0.27906,-0.21261 0.57805,-0.31892 0.89697,-0.31892c1.00992,0 1.51488,0.65113 1.51488,1.9534c1.06308,-1.30227 2.34541,-1.9534 3.847,-1.9534c1.6079,0 2.77064,0.65113 3.48821,1.9534c1.07636,-1.30227 2.33877,-1.9534 3.7872,-1.9534c1.10294,0 2.04642,0.31228 2.83044,0.93683c0.79731,0.61127 1.19596,1.87367 1.19596,3.7872zM152.27111,158.4568v11.02275c0,0.71758 -0.03322,1.22254 -0.09966,1.51488c-0.06644,0.29234 -0.23919,0.56476 -0.51825,0.81724c-0.27906,0.23919 -0.61127,0.35879 -0.99663,0.35879c-0.38537,0 -0.72422,-0.11295 -1.01656,-0.33885c-0.27906,-0.22591 -0.44516,-0.49167 -0.49832,-0.79731c-0.05315,-0.30564 -0.07973,-0.82388 -0.07973,-1.55475v-12.33831c0,-0.77073 0.13288,-1.34877 0.39865,-1.73414c0.26577,-0.38537 0.8571,-0.57805 1.77401,-0.57805h1.0365c0.9169,0 1.50159,0.12624 1.75407,0.37872c0.25248,0.25248 0.51825,0.89032 0.79731,1.91353l2.47165,9.32848l2.45172,-9.32848c0.26577,-1.00992 0.5249,-1.64112 0.77737,-1.8936c0.25248,-0.26577 0.84382,-0.39865 1.77401,-0.39865h1.0365c0.81059,0 1.37535,0.15946 1.69427,0.47838c0.31892,0.31892 0.47838,0.93019 0.47838,1.8338v12.33831c0,0.73086 -0.02658,1.24247 -0.07973,1.53481c-0.05315,0.29234 -0.22591,0.55811 -0.51825,0.79731c-0.27906,0.23919 -0.61127,0.35879 -0.99663,0.35879c-0.3455,0 -0.66442,-0.09966 -0.95677,-0.29899c-0.29234,-0.19933 -0.47838,-0.4518 -0.55811,-0.75744c-0.06644,-0.31892 -0.09966,-0.86375 -0.09966,-1.63448v-11.02275l-2.69091,10.84336c-0.33221,1.30227 -0.66442,2.10621 -0.99663,2.41185c-0.31892,0.30564 -0.75744,0.45845 -1.31555,0.45845c-0.65113,0 -1.12951,-0.18604 -1.43515,-0.55811c-0.30564,-0.37207 -0.60463,-1.14281 -0.89697,-2.31219zM178.85351,166.84845c0.38537,0 0.70429,0.15281 0.95677,0.45845c0.26577,0.30564 0.39865,0.61791 0.39865,0.93683c0,0.85046 -0.51825,1.72085 -1.55475,2.61118c-1.02321,0.87704 -2.39856,1.31555 -4.12606,1.31555c-2.08628,0 -3.66096,-0.59133 -4.72404,-1.77401c-1.06308,-1.18267 -1.59461,-2.71749 -1.59461,-4.60444c0,-1.91353 0.55147,-3.48157 1.65441,-4.7041c1.10294,-1.22254 2.67097,-1.8338 4.7041,-1.8338c1.58133,0 2.89023,0.41859 3.92673,1.25576c1.0365,0.82388 1.55475,1.63448 1.55475,2.43178c0,0.38537 -0.13953,0.71093 -0.41859,0.9767c-0.27906,0.25248 -0.61127,0.37872 -0.99663,0.37872c-0.4651,0 -0.83052,-0.19268 -1.0963,-0.57805c-0.5714,-0.89032 -1.08301,-1.44844 -1.53481,-1.67434c-0.4518,-0.23919 -0.93683,-0.35879 -1.45508,-0.35879c-1.00992,0 -1.79394,0.39201 -2.35205,1.17603c-0.54483,0.77073 -0.81724,1.73414 -0.81724,2.89023c0,1.19596 0.2857,2.17266 0.8571,2.9301c0.58469,0.74415 1.35542,1.11623 2.31219,1.11623c0.54483,0 1.04978,-0.12624 1.51488,-0.37872c0.4651,-0.26577 0.86375,-0.65778 1.19596,-1.17603c0.3455,-0.53154 0.61791,-0.89697 0.81724,-1.0963c0.19933,-0.19933 0.45845,-0.29899 0.77737,-0.29899zM196.20527,164.99471c0.41194,0 0.77073,0.13953 1.07636,0.41859c0.30564,0.27906 0.45845,0.63784 0.45845,1.07636c0,1.22254 -0.61791,2.47829 -1.85374,3.76727c-1.22254,1.27569 -2.95003,1.91353 -5.18249,1.91353c-2.73742,0 -4.79048,-0.85046 -6.15919,-2.55138c-1.35542,-1.70092 -2.03313,-3.78056 -2.03313,-6.23892c0,-2.65769 0.75744,-4.79048 2.27232,-6.39838c1.51488,-1.62119 3.48821,-2.43178 5.92,-2.43178c2.09957,0 3.78056,0.58469 5.04296,1.75407c1.27569,1.15609 1.91353,2.2989 1.91353,3.42841c0,0.35879 -0.13953,0.69764 -0.41859,1.01656c-0.26577,0.30564 -0.6312,0.45845 -1.0963,0.45845c-0.41194,0 -0.73086,-0.11295 -0.95677,-0.33885c-0.21261,-0.23919 -0.50496,-0.70429 -0.87704,-1.39529c-0.37207,-0.70429 -0.88368,-1.24247 -1.53481,-1.61454c-0.63784,-0.38537 -1.33549,-0.57805 -2.09293,-0.57805c-1.43515,0 -2.57131,0.53818 -3.40848,1.61454c-0.83717,1.07636 -1.25576,2.61782 -1.25576,4.62437c0,1.99326 0.41194,3.47493 1.23582,4.44498c0.82388,0.97005 1.94011,1.45508 3.34868,1.45508c1.97998,0 3.31547,-0.97005 4.00646,-2.91017c0.23919,-0.63784 0.48503,-1.04978 0.73751,-1.23582c0.25248,-0.18604 0.53818,-0.27906 0.8571,-0.27906zM206.12854,159.25411c1.96669,0 3.51479,0.61127 4.64431,1.8338c1.12951,1.20925 1.69427,2.75071 1.69427,4.62437c0,1.88695 -0.5714,3.43506 -1.71421,4.64431c-1.14281,1.20925 -2.65769,1.81387 -4.54464,1.81387c-2.04642,0 -3.62774,-0.61127 -4.74397,-1.8338c-1.10294,-1.23582 -1.65441,-2.77728 -1.65441,-4.62437c0,-1.88695 0.56476,-3.43506 1.69427,-4.64431c1.12951,-1.20925 2.67097,-1.81387 4.62437,-1.81387zM206.12854,169.79848c0.97005,0 1.73414,-0.35879 2.29225,-1.07636c0.55811,-0.73086 0.83717,-1.73414 0.83717,-3.00983c0,-1.28898 -0.27906,-2.29225 -0.83717,-3.00983c-0.55811,-0.73086 -1.3222,-1.0963 -2.29225,-1.0963c-0.94348,0 -1.70092,0.36543 -2.27232,1.0963c-0.55811,0.73086 -0.83717,1.73414 -0.83717,3.00983c0,1.28898 0.27906,2.29225 0.83717,3.00983c0.5714,0.71758 1.32884,1.07636 2.27232,1.07636zM220.5036,159.25411c1.96669,0 3.51479,0.61127 4.64431,1.8338c1.12951,1.20925 1.69427,2.75071 1.69427,4.62437c0,1.88695 -0.5714,3.43506 -1.71421,4.64431c-1.14281,1.20925 -2.65769,1.81387 -4.54464,1.81387c-2.04642,0 -3.62774,-0.61127 -4.74397,-1.8338c-1.10294,-1.23582 -1.65441,-2.77728 -1.65441,-4.62437c0,-1.88695 0.56476,-3.43506 1.69427,-4.64431c1.12951,-1.20925 2.67097,-1.81387 4.62437,-1.81387zM220.5036,169.79848c0.97005,0 1.73414,-0.35879 2.29225,-1.07636c0.55811,-0.73086 0.83717,-1.73414 0.83717,-3.00983c0,-1.28898 -0.27906,-2.29225 -0.83717,-3.00983c-0.55811,-0.73086 -1.3222,-1.0963 -2.29225,-1.0963c-0.94348,0 -1.70092,0.36543 -2.27232,1.0963c-0.55811,0.73086 -0.83717,1.73414 -0.83717,3.00983c0,1.28898 0.27906,2.29225 0.83717,3.00983c0.5714,0.71758 1.32884,1.07636 2.27232,1.07636zM232.50663,157.16118v12.37817c0,0.77073 -0.03322,1.29562 -0.09966,1.57468c-0.06644,0.26577 -0.24584,0.5116 -0.53818,0.73751c-0.27906,0.21261 -0.58469,0.31892 -0.9169,0.31892c-0.3455,0 -0.66442,-0.10631 -0.95677,-0.31892c-0.29234,-0.21261 -0.47838,-0.4651 -0.55811,-0.75744c-0.06644,-0.29234 -0.09966,-0.81059 -0.09966,-1.55475v-12.37817c0,-0.78402 0.03322,-1.30891 0.09966,-1.57468c0.07973,-0.27906 0.25912,-0.51825 0.53818,-0.71758c0.29234,-0.21261 0.60463,-0.31892 0.93683,-0.31892c0.38537,0 0.71758,0.11295 0.99663,0.33885c0.29234,0.21261 0.4651,0.47174 0.51825,0.77737c0.05315,0.29234 0.07973,0.79066 0.07973,1.49495zM260.83169,163.97815v5.46154c0,0.75744 -0.03322,1.28898 -0.09966,1.59461c-0.05315,0.30564 -0.21926,0.5714 -0.49832,0.79731c-0.27906,0.22591 -0.60463,0.33885 -0.9767,0.33885c-0.37207,0 -0.69764,-0.11295 -0.9767,-0.33885c-0.27906,-0.22591 -0.4518,-0.49832 -0.51825,-0.81724c-0.06644,-0.33221 -0.09966,-0.8571 -0.09966,-1.57468v-4.62437c0,-1.35542 -0.15946,-2.20588 -0.47838,-2.55138c-0.31892,-0.3455 -0.75744,-0.51825 -1.31555,-0.51825c-0.58469,0 -1.07636,0.15946 -1.47502,0.47838c-0.39865,0.31892 -0.67106,0.73751 -0.81724,1.25576c-0.14617,0.51825 -0.21926,1.32884 -0.21926,2.43178v3.52808c0,0.75744 -0.03322,1.29562 -0.09966,1.61454c-0.05315,0.30564 -0.22591,0.5714 -0.51825,0.79731c-0.27906,0.21261 -0.60463,0.31892 -0.9767,0.31892c-0.49167,0 -0.87704,-0.16611 -1.15609,-0.49832c-0.27906,-0.33221 -0.41859,-1.07636 -0.41859,-2.23246v-4.34532c0,-1.24911 -0.09302,-2.11951 -0.27906,-2.61118c-0.18604,-0.49167 -0.67106,-0.73751 -1.45508,-0.73751c-0.81059,0 -1.45508,0.25912 -1.93347,0.77737c-0.4651,0.51825 -0.69764,1.62783 -0.69764,3.32875v3.58788c0,0.74415 -0.02658,1.2624 -0.07973,1.55475c-0.03987,0.29234 -0.19933,0.56476 -0.47838,0.81724c-0.27906,0.23919 -0.60463,0.35879 -0.9767,0.35879c-0.35879,0 -0.68436,-0.10631 -0.9767,-0.31892c-0.29234,-0.22591 -0.47174,-0.49167 -0.53818,-0.79731c-0.06644,-0.30564 -0.09966,-0.84382 -0.09966,-1.61454v-7.67407c0,-0.74415 0.03322,-1.24247 0.09966,-1.49495c0.06644,-0.26577 0.23255,-0.49832 0.49832,-0.69764c0.27906,-0.21261 0.57805,-0.31892 0.89697,-0.31892c1.00992,0 1.51488,0.65113 1.51488,1.9534c1.06308,-1.30227 2.34541,-1.9534 3.847,-1.9534c1.6079,0 2.77064,0.65113 3.48821,1.9534c1.07636,-1.30227 2.33877,-1.9534 3.7872,-1.9534c1.10294,0 2.04642,0.31228 2.83044,0.93683c0.79731,0.61127 1.19596,1.87367 1.19596,3.7872zM271.92242,170.37653c-1.50159,1.19596 -2.97661,1.79394 -4.42505,1.79394c-1.36871,0 -2.42514,-0.3455 -3.16929,-1.0365c-0.73086,-0.70429 -1.0963,-1.56139 -1.0963,-2.57131c0,-0.86375 0.24584,-1.56139 0.73751,-2.09293c0.50496,-0.53154 1.04978,-0.89697 1.63448,-1.0963c0.59798,-0.21261 1.56139,-0.45845 2.89023,-0.73751c1.32884,-0.27906 2.39856,-0.53154 3.20916,-0.75744c-0.01329,-0.95677 -0.20597,-1.60126 -0.57805,-1.93347c-0.37207,-0.3455 -0.93683,-0.51825 -1.69427,-0.51825c-1.43515,0 -2.37863,0.4053 -2.83044,1.21589c-0.23919,0.4518 -0.45845,0.77737 -0.65778,0.9767c-0.18604,0.18604 -0.4651,0.27906 -0.83717,0.27906c-0.33221,0 -0.63784,-0.10631 -0.9169,-0.31892c-0.26577,-0.22591 -0.39865,-0.5116 -0.39865,-0.8571c0,-0.82388 0.44516,-1.6079 1.33549,-2.35205c0.89032,-0.74415 2.29225,-1.11623 4.20579,-1.11623c1.94011,0 3.35533,0.33885 4.24565,1.01656c0.90362,0.66442 1.32884,2.01984 1.27569,4.06626l-0.0598,2.96996c-0.02658,0.9169 0.06644,1.6677 0.27906,2.25239c0.22591,0.58469 0.33885,1.02985 0.33885,1.33549c0,0.33221 -0.15281,0.6312 -0.45845,0.89697c-0.29234,0.25248 -0.61791,0.37872 -0.9767,0.37872c-0.65113,0 -1.33549,-0.59798 -2.05306,-1.79394zM271.72309,165.79202c-0.47838,0.17275 -1.2624,0.37207 -2.35205,0.59798c-1.07636,0.21261 -1.84709,0.45845 -2.31219,0.73751c-0.4518,0.27906 -0.67771,0.68436 -0.67771,1.21589c0,0.4651 0.17939,0.87039 0.53818,1.21589c0.37207,0.3455 0.88368,0.51825 1.53481,0.51825c0.70429,0 1.35542,-0.19268 1.9534,-0.57805c0.59798,-0.38537 0.96341,-0.83717 1.0963,-1.35542c0.14617,-0.53154 0.21926,-1.31555 0.21926,-2.35205zM286.7228,170.35659v-0.31892c-1.08965,1.42186 -2.47165,2.13279 -4.14599,2.13279c-1.62119,0 -2.91017,-0.61791 -3.86693,-1.85374c-0.95677,-1.23582 -1.43515,-2.83044 -1.43515,-4.78383c0,-1.8338 0.4651,-3.3354 1.39529,-4.50478c0.94348,-1.18267 2.2391,-1.77401 3.88687,-1.77401c1.6079,0 2.99654,0.65113 4.16592,1.9534v-4.12606c0,-1.12951 0.13953,-1.8338 0.41859,-2.11286c0.29234,-0.27906 0.68436,-0.41859 1.17603,-0.41859c0.3455,0 0.65778,0.09966 0.93683,0.29899c0.29234,0.18604 0.47174,0.43852 0.53818,0.75744c0.06644,0.31892 0.09966,0.84382 0.09966,1.57468v12.49777c0,0.70429 -0.03987,1.20925 -0.1196,1.51488c-0.06644,0.30564 -0.24584,0.54483 -0.53818,0.71758c-0.29234,0.17275 -0.60463,0.25912 -0.93683,0.25912c-1.04978,0 -1.57468,-0.60463 -1.57468,-1.81387zM280.48388,165.63256c0,1.42186 0.29899,2.465 0.89697,3.12943c0.59798,0.65113 1.28234,0.9767 2.05306,0.9767c0.90362,0 1.64776,-0.33885 2.23246,-1.01656c0.58469,-0.691 0.87704,-1.64776 0.87704,-2.8703c0,-1.27569 -0.2857,-2.29225 -0.8571,-3.04969c-0.5714,-0.75744 -1.32884,-1.13616 -2.27232,-1.13616c-0.86375,0 -1.56803,0.35214 -2.11286,1.05643c-0.54483,0.70429 -0.81724,1.67434 -0.81724,2.91017zM301.77693,166.48966h-6.21899c0.02658,1.18267 0.3455,2.073 0.95677,2.67097c0.62456,0.59798 1.36871,0.89697 2.23246,0.89697c1.06308,0 2.05971,-0.4651 2.9899,-1.39529c0.38537,-0.38537 0.66442,-0.62456 0.83717,-0.71758c0.18604,-0.09302 0.39201,-0.13953 0.61791,-0.13953c0.29234,0 0.53818,0.09302 0.73751,0.27906c0.19933,0.17275 0.29899,0.39201 0.29899,0.65778c0,0.70429 -0.48503,1.45508 -1.45508,2.25239c-0.97005,0.78402 -2.29225,1.17603 -3.9666,1.17603c-2.12615,0 -3.74069,-0.59798 -4.84363,-1.79394c-1.08965,-1.20925 -1.63448,-2.76399 -1.63448,-4.66424c0,-1.92682 0.54483,-3.48157 1.63448,-4.66424c1.10294,-1.19596 2.63111,-1.79394 4.58451,-1.79394c1.87367,0 3.31547,0.56476 4.32538,1.69427c1.02321,1.12951 1.53481,2.35205 1.53481,3.66761c0,0.5714 -0.17275,1.02985 -0.51825,1.37535c-0.33221,0.33221 -1.0365,0.49832 -2.11286,0.49832zM295.55795,164.69572h5.78047c-0.03987,-1.06308 -0.33221,-1.86702 -0.87704,-2.41185c-0.54483,-0.55811 -1.21589,-0.83717 -2.0132,-0.83717c-1.67434,0 -2.63776,1.08301 -2.89023,3.24902zM314.05524,167.44643v-5.56121c0,-0.691 0.02658,-1.18931 0.07973,-1.49495c0.05315,-0.30564 0.21261,-0.5714 0.47838,-0.79731c0.27906,-0.22591 0.61127,-0.33885 0.99663,-0.33885c0.37207,0 0.69764,0.10631 0.9767,0.31892c0.29234,0.21261 0.47174,0.49167 0.53818,0.83717c0.06644,0.33221 0.09966,0.84382 0.09966,1.53481v4.36525c0,1.43515 0.21926,2.35205 0.65778,2.75071c0.4518,0.39865 0.94348,0.59798 1.47502,0.59798c0.61127,0 1.14281,-0.17275 1.59461,-0.51825c0.4651,-0.3455 0.77737,-0.75744 0.93683,-1.23582c0.17275,-0.49167 0.25912,-1.44844 0.25912,-2.8703v-3.14936c0,-0.67771 0.03322,-1.17603 0.09966,-1.49495c0.06644,-0.31892 0.23919,-0.58469 0.51825,-0.79731c0.27906,-0.22591 0.61127,-0.33885 0.99663,-0.33885c0.35879,0 0.67771,0.10631 0.95677,0.31892c0.29234,0.21261 0.4651,0.47838 0.51825,0.79731c0.06644,0.30564 0.09966,0.81059 0.09966,1.51488v7.83353c0,0.63784 -0.03322,1.10294 -0.09966,1.39529c-0.06644,0.27906 -0.21926,0.5249 -0.45845,0.73751c-0.23919,0.21261 -0.54483,0.31892 -0.9169,0.31892c-1.02321,0 -1.51488,-0.73751 -1.47502,-2.21252c-1.06308,1.47502 -2.465,2.21252 -4.20579,2.21252c-1.14281,0 -2.11951,-0.3455 -2.9301,-1.0365c-0.79731,-0.691 -1.19596,-1.92018 -1.19596,-3.68754zM331.34043,161.3869c1.12951,-1.42186 2.51151,-2.13279 4.14599,-2.13279c1.62119,0 2.91017,0.61791 3.86693,1.85374c0.95677,1.22254 1.43515,2.80386 1.43515,4.74397c0,1.84709 -0.47174,3.36197 -1.41522,4.54464c-0.93019,1.18267 -2.21917,1.77401 -3.86693,1.77401c-1.58133,0 -2.96996,-0.66442 -4.16592,-1.99326v4.14599c0,1.14281 -0.13953,1.85374 -0.41859,2.13279c-0.27906,0.27906 -0.65778,0.41859 -1.13616,0.41859c-0.58469,0 -0.99663,-0.19268 -1.23582,-0.57805c-0.23919,-0.38537 -0.35879,-1.07636 -0.35879,-2.073v-12.5177c0,-0.65113 0.02658,-1.12951 0.07973,-1.43515c0.06644,-0.30564 0.23919,-0.55147 0.51825,-0.73751c0.27906,-0.18604 0.61127,-0.27906 0.99663,-0.27906c1.0365,0 1.55475,0.59798 1.55475,1.79394zM337.59928,165.79202c0,-1.39529 -0.29899,-2.42514 -0.89697,-3.08956c-0.58469,-0.67771 -1.2624,-1.01656 -2.03313,-1.01656c-0.9169,0 -1.6677,0.33885 -2.25239,1.01656c-0.58469,0.67771 -0.87704,1.62783 -0.87704,2.85037c0,1.28898 0.27906,2.31219 0.83717,3.06963c0.5714,0.74415 1.34213,1.11623 2.31219,1.11623c0.85046,0 1.5481,-0.35214 2.09293,-1.05643c0.54483,-0.70429 0.81724,-1.6677 0.81724,-2.89023zM352.05543,170.35659v-0.31892c-1.08965,1.42186 -2.47165,2.13279 -4.14599,2.13279c-1.62119,0 -2.91017,-0.61791 -3.86693,-1.85374c-0.95677,-1.23582 -1.43515,-2.83044 -1.43515,-4.78383c0,-1.8338 0.4651,-3.3354 1.39529,-4.50478c0.94348,-1.18267 2.2391,-1.77401 3.88687,-1.77401c1.6079,0 2.99654,0.65113 4.16592,1.9534v-4.12606c0,-1.12951 0.13953,-1.8338 0.41859,-2.11286c0.29234,-0.27906 0.68436,-0.41859 1.17603,-0.41859c0.3455,0 0.65778,0.09966 0.93683,0.29899c0.29234,0.18604 0.47174,0.43852 0.53818,0.75744c0.06644,0.31892 0.09966,0.84382 0.09966,1.57468v12.49777c0,0.70429 -0.03987,1.20925 -0.1196,1.51488c-0.06644,0.30564 -0.24584,0.54483 -0.53818,0.71758c-0.29234,0.17275 -0.60463,0.25912 -0.93683,0.25912c-1.04978,0 -1.57468,-0.60463 -1.57468,-1.81387zM345.81651,165.63256c0,1.42186 0.29899,2.465 0.89697,3.12943c0.59798,0.65113 1.28234,0.9767 2.05306,0.9767c0.90362,0 1.64776,-0.33885 2.23246,-1.01656c0.58469,-0.691 0.87704,-1.64776 0.87704,-2.8703c0,-1.27569 -0.2857,-2.29225 -0.8571,-3.04969c-0.5714,-0.75744 -1.32884,-1.13616 -2.27232,-1.13616c-0.86375,0 -1.56803,0.35214 -2.11286,1.05643c-0.54483,0.70429 -0.81724,1.67434 -0.81724,2.91017zM366.27239,170.37653c-1.50159,1.19596 -2.97661,1.79394 -4.42505,1.79394c-1.36871,0 -2.42514,-0.3455 -3.16929,-1.0365c-0.73086,-0.70429 -1.0963,-1.56139 -1.0963,-2.57131c0,-0.86375 0.24584,-1.56139 0.73751,-2.09293c0.50496,-0.53154 1.04978,-0.89697 1.63448,-1.0963c0.59798,-0.21261 1.56139,-0.45845 2.89023,-0.73751c1.32884,-0.27906 2.39856,-0.53154 3.20916,-0.75744c-0.01329,-0.95677 -0.20597,-1.60126 -0.57805,-1.93347c-0.37207,-0.3455 -0.93683,-0.51825 -1.69427,-0.51825c-1.43515,0 -2.37863,0.4053 -2.83044,1.21589c-0.23919,0.4518 -0.45845,0.77737 -0.65778,0.9767c-0.18604,0.18604 -0.4651,0.27906 -0.83717,0.27906c-0.33221,0 -0.63784,-0.10631 -0.9169,-0.31892c-0.26577,-0.22591 -0.39865,-0.5116 -0.39865,-0.8571c0,-0.82388 0.44516,-1.6079 1.33549,-2.35205c0.89032,-0.74415 2.29225,-1.11623 4.20579,-1.11623c1.94011,0 3.35533,0.33885 4.24565,1.01656c0.90362,0.66442 1.32884,2.01984 1.27569,4.06626l-0.0598,2.96996c-0.02658,0.9169 0.06644,1.6677 0.27906,2.25239c0.22591,0.58469 0.33885,1.02985 0.33885,1.33549c0,0.33221 -0.15281,0.6312 -0.45845,0.89697c-0.29234,0.25248 -0.61791,0.37872 -0.9767,0.37872c-0.65113,0 -1.33549,-0.59798 -2.05306,-1.79394zM366.07306,165.79202c-0.47838,0.17275 -1.2624,0.37207 -2.35205,0.59798c-1.07636,0.21261 -1.84709,0.45845 -2.31219,0.73751c-0.4518,0.27906 -0.67771,0.68436 -0.67771,1.21589c0,0.4651 0.17939,0.87039 0.53818,1.21589c0.37207,0.3455 0.88368,0.51825 1.53481,0.51825c0.70429,0 1.35542,-0.19268 1.9534,-0.57805c0.59798,-0.38537 0.96341,-0.83717 1.0963,-1.35542c0.14617,-0.53154 0.21926,-1.31555 0.21926,-2.35205zM372.32736,159.53317v-1.8936c0,-0.78402 0.03322,-1.31555 0.09966,-1.59461c0.06644,-0.29234 0.23919,-0.54483 0.51825,-0.75744c0.27906,-0.22591 0.60463,-0.33885 0.9767,-0.33885c0.33221,0 0.63784,0.09966 0.9169,0.29899c0.27906,0.19933 0.45845,0.44516 0.53818,0.73751c0.09302,0.29234 0.13953,0.75744 0.13953,1.39529v2.15273h0.61791c0.77073,0 1.28234,0.09966 1.53481,0.29899c0.25248,0.18604 0.37872,0.45845 0.37872,0.81724c0,0.78402 -0.65113,1.17603 -1.9534,1.17603h-0.57805v5.8602c0,0.79731 0.05315,1.34213 0.15946,1.63448c0.1196,0.27906 0.41859,0.41859 0.89697,0.41859c0.23919,0 0.49832,-0.03322 0.77737,-0.09966c0.29234,-0.06644 0.5116,-0.09966 0.65778,-0.09966c0.31892,0 0.57805,0.10631 0.77737,0.31892c0.19933,0.19933 0.29899,0.44516 0.29899,0.73751c0,1.04978 -1.0963,1.57468 -3.28889,1.57468c-1.06308,0 -1.84709,-0.19933 -2.35205,-0.59798c-0.49167,-0.39865 -0.80395,-0.87704 -0.93683,-1.43515c-0.1196,-0.5714 -0.17939,-1.30891 -0.17939,-2.21252v-6.09939h-0.41859c-0.93019,0 -1.39529,-0.37872 -1.39529,-1.13616c0,-0.77073 0.49167,-1.15609 1.47502,-1.15609zM389.08437,166.48966h-6.21899c0.02658,1.18267 0.3455,2.073 0.95677,2.67097c0.62456,0.59798 1.36871,0.89697 2.23246,0.89697c1.06308,0 2.05971,-0.4651 2.9899,-1.39529c0.38537,-0.38537 0.66442,-0.62456 0.83717,-0.71758c0.18604,-0.09302 0.39201,-0.13953 0.61791,-0.13953c0.29234,0 0.53818,0.09302 0.73751,0.27906c0.19933,0.17275 0.29899,0.39201 0.29899,0.65778c0,0.70429 -0.48503,1.45508 -1.45508,2.25239c-0.97005,0.78402 -2.29225,1.17603 -3.9666,1.17603c-2.12615,0 -3.74069,-0.59798 -4.84363,-1.79394c-1.08965,-1.20925 -1.63448,-2.76399 -1.63448,-4.66424c0,-1.92682 0.54483,-3.48157 1.63448,-4.66424c1.10294,-1.19596 2.63111,-1.79394 4.58451,-1.79394c1.87367,0 3.31547,0.56476 4.32538,1.69427c1.02321,1.12951 1.53481,2.35205 1.53481,3.66761c0,0.5714 -0.17275,1.02985 -0.51825,1.37535c-0.33221,0.33221 -1.0365,0.49832 -2.11286,0.49832zM382.86538,164.69572h5.78047c-0.03987,-1.06308 -0.33221,-1.86702 -0.87704,-2.41185c-0.54483,-0.55811 -1.21589,-0.83717 -2.0132,-0.83717c-1.67434,0 -2.63776,1.08301 -2.89023,3.24902zM396.78873,162.56293c0,0.41194 0.21261,0.73751 0.63784,0.9767c0.42523,0.22591 1.37535,0.51825 2.85037,0.87704c2.88359,0.70429 4.32538,1.90025 4.32538,3.58788c0,1.34213 -0.48503,2.37198 -1.45508,3.08956c-0.97005,0.71758 -2.32547,1.07636 -4.06626,1.07636c-1.76736,0 -3.10285,-0.36543 -4.00646,-1.0963c-0.89032,-0.73086 -1.33549,-1.50159 -1.33549,-2.31219c0,-0.3455 0.1196,-0.64449 0.35879,-0.89697c0.25248,-0.25248 0.56476,-0.37872 0.93683,-0.37872c0.49167,0 0.92355,0.31228 1.29562,0.93683c0.42523,0.67771 0.88368,1.12951 1.37535,1.35542c0.50496,0.21261 1.04978,0.31892 1.63448,0.31892c0.62456,0 1.13616,-0.13953 1.53481,-0.41859c0.39865,-0.27906 0.59798,-0.63784 0.59798,-1.07636c0,-0.39865 -0.16611,-0.73751 -0.49832,-1.01656c-0.33221,-0.29234 -1.25576,-0.61127 -2.77064,-0.95677c-1.50159,-0.3455 -2.59789,-0.83052 -3.28889,-1.45508c-0.691,-0.62456 -1.0365,-1.36871 -1.0365,-2.23246c0,-0.97005 0.41859,-1.82716 1.25576,-2.57131c0.85046,-0.74415 2.11286,-1.11623 3.7872,-1.11623c1.54146,0 2.77064,0.31892 3.68754,0.95677c0.9169,0.62456 1.37535,1.27569 1.37535,1.9534c0,0.3455 -0.1196,0.64449 -0.35879,0.89697c-0.22591,0.23919 -0.54483,0.35879 -0.95677,0.35879c-0.61127,0 -1.16274,-0.35214 -1.65441,-1.05643c-0.49167,-0.70429 -1.23582,-1.05643 -2.23246,-1.05643c-0.53154,0 -0.99663,0.11295 -1.39529,0.33885c-0.39865,0.21261 -0.59798,0.51825 -0.59798,0.9169zM414.85981,159.53317v-1.8936c0,-0.78402 0.03322,-1.31555 0.09966,-1.59461c0.06644,-0.29234 0.23919,-0.54483 0.51825,-0.75744c0.27906,-0.22591 0.60463,-0.33885 0.9767,-0.33885c0.33221,0 0.63784,0.09966 0.9169,0.29899c0.27906,0.19933 0.45845,0.44516 0.53818,0.73751c0.09302,0.29234 0.13953,0.75744 0.13953,1.39529v2.15273h0.61791c0.77073,0 1.28234,0.09966 1.53481,0.29899c0.25248,0.18604 0.37872,0.45845 0.37872,0.81724c0,0.78402 -0.65113,1.17603 -1.9534,1.17603h-0.57805v5.8602c0,0.79731 0.05315,1.34213 0.15946,1.63448c0.1196,0.27906 0.41859,0.41859 0.89697,0.41859c0.23919,0 0.49832,-0.03322 0.77737,-0.09966c0.29234,-0.06644 0.5116,-0.09966 0.65778,-0.09966c0.31892,0 0.57805,0.10631 0.77737,0.31892c0.19933,0.19933 0.29899,0.44516 0.29899,0.73751c0,1.04978 -1.0963,1.57468 -3.28889,1.57468c-1.06308,0 -1.84709,-0.19933 -2.35205,-0.59798c-0.49167,-0.39865 -0.80395,-0.87704 -0.93683,-1.43515c-0.1196,-0.5714 -0.17939,-1.30891 -0.17939,-2.21252v-6.09939h-0.41859c-0.93019,0 -1.39529,-0.37872 -1.39529,-1.13616c0,-0.77073 0.49167,-1.15609 1.47502,-1.15609zM428.308,159.25411c1.96669,0 3.51479,0.61127 4.64431,1.8338c1.12951,1.20925 1.69427,2.75071 1.69427,4.62437c0,1.88695 -0.5714,3.43506 -1.71421,4.64431c-1.14281,1.20925 -2.65769,1.81387 -4.54464,1.81387c-2.04642,0 -3.62774,-0.61127 -4.74397,-1.8338c-1.10294,-1.23582 -1.65441,-2.77728 -1.65441,-4.62437c0,-1.88695 0.56476,-3.43506 1.69427,-4.64431c1.12951,-1.20925 2.67097,-1.81387 4.62437,-1.81387zM428.308,169.79848c0.97005,0 1.73414,-0.35879 2.29225,-1.07636c0.55811,-0.73086 0.83717,-1.73414 0.83717,-3.00983c0,-1.28898 -0.27906,-2.29225 -0.83717,-3.00983c-0.55811,-0.73086 -1.3222,-1.0963 -2.29225,-1.0963c-0.94348,0 -1.70092,0.36543 -2.27232,1.0963c-0.55811,0.73086 -0.83717,1.73414 -0.83717,3.00983c0,1.28898 0.27906,2.29225 0.83717,3.00983c0.5714,0.71758 1.32884,1.07636 2.27232,1.07636zM444.72549,159.53317v-1.8936c0,-0.78402 0.03322,-1.31555 0.09966,-1.59461c0.06644,-0.29234 0.23919,-0.54483 0.51825,-0.75744c0.27906,-0.22591 0.60463,-0.33885 0.9767,-0.33885c0.33221,0 0.63784,0.09966 0.9169,0.29899c0.27906,0.19933 0.45845,0.44516 0.53818,0.73751c0.09302,0.29234 0.13953,0.75744 0.13953,1.39529v2.15273h0.61791c0.7707,0 1.2823,0.09966 1.53478,0.29899c0.25248,0.18604 0.37872,0.45845 0.37872,0.81724c0,0.78402 -0.65112,1.17603 -1.95336,1.17603h-0.57805v5.8602c0,0.79731 0.05315,1.34213 0.15946,1.63448c0.1196,0.27906 0.41857,0.41859 0.89693,0.41859c0.23919,0 0.49832,-0.03322 0.77737,-0.09966c0.29234,-0.06644 0.5116,-0.09966 0.65778,-0.09966c0.31892,0 0.57805,0.10631 0.77737,0.31892c0.19933,0.19933 0.29899,0.44516 0.29899,0.73751c0,1.04978 -1.09628,1.57468 -3.28885,1.57468c-1.06308,0 -1.84709,-0.19933 -2.35205,-0.59798c-0.49167,-0.39865 -0.80395,-0.87704 -0.93683,-1.43515c-0.1196,-0.5714 -0.17939,-1.30891 -0.17939,-2.21252v-6.09939h-0.41859c-0.93019,0 -1.39529,-0.37872 -1.39529,-1.13616c0,-0.77073 0.49167,-1.15609 1.47502,-1.15609zM463.87434,164.15754v5.78047c0,1.4883 -0.53818,2.23246 -1.61454,2.23246c-0.49167,0 -0.87704,-0.15946 -1.15609,-0.47838c-0.26577,-0.31892 -0.39865,-0.90362 -0.39865,-1.75407v-5.06289c0,-1.19596 -0.19268,-2.0132 -0.57805,-2.45172c-0.37207,-0.4518 -0.90362,-0.67771 -1.59461,-0.67771c-0.59798,0 -1.12287,0.16611 -1.57468,0.49832c-0.43852,0.33221 -0.75079,0.74415 -0.93683,1.23582c-0.18604,0.47838 -0.27906,1.32884 -0.27906,2.55138v3.68754c0,0.98335 -0.14617,1.64112 -0.43852,1.97333c-0.27906,0.31892 -0.67106,0.47838 -1.17603,0.47838c-0.47838,0 -0.8571,-0.15946 -1.13616,-0.47838c-0.27906,-0.31892 -0.41859,-0.96341 -0.41859,-1.93347v-12.59743c0,-0.77073 0.03322,-1.30227 0.09966,-1.59461c0.07973,-0.30564 0.24584,-0.55147 0.49832,-0.73751c0.26577,-0.18604 0.57805,-0.27906 0.93683,-0.27906c0.41194,0 0.75079,0.10631 1.01656,0.31892c0.26577,0.21261 0.43187,0.49167 0.49832,0.83717c0.07973,0.3455 0.1196,0.9169 0.1196,1.71421v3.76727c1.06308,-1.28898 2.35205,-1.93347 3.86693,-1.93347c1.27569,0 2.30554,0.39865 3.08956,1.19596c0.78402,0.78402 1.17603,2.01984 1.17603,3.70747zM475.85744,166.48966h-6.21899c0.02658,1.18267 0.3455,2.073 0.95677,2.67097c0.62456,0.59798 1.36871,0.89697 2.23246,0.89697c1.06308,0 2.05971,-0.4651 2.9899,-1.39529c0.38537,-0.38537 0.66442,-0.62456 0.83717,-0.71758c0.18604,-0.09302 0.39201,-0.13953 0.61791,-0.13953c0.29234,0 0.53818,0.09302 0.73751,0.27906c0.19933,0.17275 0.29899,0.39201 0.29899,0.65778c0,0.70429 -0.48503,1.45508 -1.45508,2.25239c-0.97005,0.78402 -2.29225,1.17603 -3.9666,1.17603c-2.12615,0 -3.74069,-0.59798 -4.84363,-1.79394c-1.08965,-1.20925 -1.63448,-2.76399 -1.63448,-4.66424c0,-1.92682 0.54483,-3.48157 1.63448,-4.66424c1.10294,-1.19596 2.63111,-1.79394 4.58451,-1.79394c1.87367,0 3.31547,0.56476 4.32538,1.69427c1.02321,1.12951 1.53481,2.35205 1.53481,3.66761c0,0.5714 -0.17275,1.02985 -0.51825,1.37535c-0.33221,0.33221 -1.0365,0.49832 -2.11286,0.49832zM469.63846,164.69572h5.78047c-0.03987,-1.06308 -0.33221,-1.86702 -0.87704,-2.41185c-0.54483,-0.55811 -1.21589,-0.83717 -2.0132,-0.83717c-1.67434,0 -2.63776,1.08301 -2.89023,3.24902zM496.90608,161.42677v-0.43852c0,-0.5714 0.13953,-1.00328 0.41859,-1.29562c0.29234,-0.29234 0.65778,-0.43852 1.0963,-0.43852c0.47838,0 0.84382,0.17275 1.0963,0.51825c0.26577,0.33221 0.39865,1.05643 0.39865,2.17266v8.51124c0,2.53809 -0.53818,4.23901 -1.61454,5.10276c-1.06308,0.87704 -2.59789,1.31555 -4.60444,1.31555c-1.80722,0 -3.22244,-0.33885 -4.24565,-1.01656c-1.00992,-0.66442 -1.51488,-1.36871 -1.51488,-2.11286c0,-0.39865 0.13288,-0.72422 0.39865,-0.9767c0.26577,-0.23919 0.58469,-0.35879 0.95677,-0.35879c0.33221,0 0.59798,0.07973 0.79731,0.23919c0.19933,0.15946 0.53154,0.53818 0.99663,1.13616c0.47838,0.59798 1.27569,0.89697 2.39192,0.89697c0.62456,0 1.20261,-0.09966 1.73414,-0.29899c0.53154,-0.18604 0.92355,-0.5249 1.17603,-1.01656c0.25248,-0.49167 0.37207,-1.68763 0.35879,-3.58788c-0.97005,1.39529 -2.2989,2.09293 -3.98653,2.09293c-1.62119,0 -2.90352,-0.60463 -3.847,-1.81387c-0.93019,-1.20925 -1.39529,-2.76399 -1.39529,-4.66424c0,-1.87367 0.47838,-3.36197 1.43515,-4.46491c0.97005,-1.11623 2.23246,-1.67434 3.7872,-1.67434c1.70092,0 3.08956,0.72422 4.16592,2.17266zM490.72696,165.65249c0,1.23582 0.26577,2.1793 0.79731,2.83044c0.54483,0.63784 1.28234,0.95677 2.21252,0.95677c0.81059,0 1.51488,-0.31228 2.11286,-0.93683c0.59798,-0.62456 0.89697,-1.56139 0.89697,-2.8105c0,-1.23582 -0.27906,-2.21252 -0.83717,-2.9301c-0.54483,-0.71758 -1.28234,-1.07636 -2.21252,-1.07636c-0.90362,0 -1.62783,0.33885 -2.17266,1.01656c-0.53154,0.66442 -0.79731,1.64776 -0.79731,2.95003zM510.51011,170.37653c-1.50159,1.19596 -2.97661,1.79394 -4.42505,1.79394c-1.36871,0 -2.42514,-0.3455 -3.16929,-1.0365c-0.73086,-0.70429 -1.0963,-1.56139 -1.0963,-2.57131c0,-0.86375 0.24584,-1.56139 0.73751,-2.09293c0.50496,-0.53154 1.04978,-0.89697 1.63448,-1.0963c0.59798,-0.21261 1.56139,-0.45845 2.89023,-0.73751c1.32884,-0.27906 2.39856,-0.53154 3.20916,-0.75744c-0.01329,-0.95677 -0.20597,-1.60126 -0.57805,-1.93347c-0.37207,-0.3455 -0.93683,-0.51825 -1.69427,-0.51825c-1.43515,0 -2.37863,0.4053 -2.83044,1.21589c-0.23919,0.4518 -0.45845,0.77737 -0.65778,0.9767c-0.18604,0.18604 -0.4651,0.27906 -0.83717,0.27906c-0.33221,0 -0.63784,-0.10631 -0.9169,-0.31892c-0.26577,-0.22591 -0.39865,-0.5116 -0.39865,-0.8571c0,-0.82388 0.44516,-1.6079 1.33549,-2.35205c0.89032,-0.74415 2.29225,-1.11623 4.20579,-1.11623c1.94011,0 3.35533,0.33885 4.24565,1.01656c0.90362,0.66442 1.32884,2.01984 1.27569,4.06626l-0.0598,2.96996c-0.02658,0.9169 0.06644,1.6677 0.27906,2.25239c0.22591,0.58469 0.33885,1.02985 0.33885,1.33549c0,0.33221 -0.15281,0.6312 -0.45845,0.89697c-0.29234,0.25248 -0.61791,0.37872 -0.9767,0.37872c-0.65113,0 -1.33549,-0.59798 -2.05306,-1.79394zM510.31078,165.79202c-0.47838,0.17275 -1.2624,0.37207 -2.35205,0.59798c-1.07636,0.21261 -1.84709,0.45845 -2.31219,0.73751c-0.4518,0.27906 -0.67771,0.68436 -0.67771,1.21589c0,0.4651 0.17939,0.87039 0.53818,1.21589c0.37207,0.3455 0.88368,0.51825 1.53481,0.51825c0.70429,0 1.35542,-0.19268 1.9534,-0.57805c0.59798,-0.38537 0.96341,-0.83717 1.0963,-1.35542c0.14617,-0.53154 0.21926,-1.31555 0.21926,-2.35205zM534.61904,163.97815v5.46154c0,0.75744 -0.03322,1.28898 -0.09966,1.59461c-0.05315,0.30564 -0.21926,0.5714 -0.49832,0.79731c-0.27906,0.22591 -0.60463,0.33885 -0.9767,0.33885c-0.37207,0 -0.69764,-0.11295 -0.9767,-0.33885c-0.27906,-0.22591 -0.4518,-0.49832 -0.51825,-0.81724c-0.06644,-0.33221 -0.09966,-0.8571 -0.09966,-1.57468v-4.62437c0,-1.35542 -0.15946,-2.20588 -0.47838,-2.55138c-0.31892,-0.3455 -0.75744,-0.51825 -1.31555,-0.51825c-0.58469,0 -1.07636,0.15946 -1.47502,0.47838c-0.39865,0.31892 -0.67106,0.73751 -0.81724,1.25576c-0.14617,0.51825 -0.21926,1.32884 -0.21926,2.43178v3.52808c0,0.75744 -0.03322,1.29562 -0.09966,1.61454c-0.05315,0.30564 -0.22591,0.5714 -0.51825,0.79731c-0.27906,0.21261 -0.60463,0.31892 -0.9767,0.31892c-0.49167,0 -0.87704,-0.16611 -1.15609,-0.49832c-0.27906,-0.33221 -0.41859,-1.07636 -0.41859,-2.23246v-4.34532c0,-1.24911 -0.09302,-2.11951 -0.27906,-2.61118c-0.18604,-0.49167 -0.67106,-0.73751 -1.45508,-0.73751c-0.81059,0 -1.45508,0.25912 -1.93347,0.77737c-0.4651,0.51825 -0.69764,1.62783 -0.69764,3.32875v3.58788c0,0.74415 -0.02658,1.2624 -0.07973,1.55475c-0.03987,0.29234 -0.19933,0.56476 -0.47838,0.81724c-0.27906,0.23919 -0.60463,0.35879 -0.9767,0.35879c-0.35879,0 -0.68436,-0.10631 -0.9767,-0.31892c-0.29234,-0.22591 -0.47174,-0.49167 -0.53818,-0.79731c-0.06644,-0.30564 -0.09966,-0.84382 -0.09966,-1.61454v-7.67407c0,-0.74415 0.03322,-1.24247 0.09966,-1.49495c0.06644,-0.26577 0.23255,-0.49832 0.49832,-0.69764c0.27906,-0.21261 0.57805,-0.31892 0.89697,-0.31892c1.00992,0 1.51488,0.65113 1.51488,1.9534c1.06308,-1.30227 2.34541,-1.9534 3.847,-1.9534c1.6079,0 2.77064,0.65113 3.48821,1.9534c1.07636,-1.30227 2.33877,-1.9534 3.7872,-1.9534c1.10294,0 2.04642,0.31228 2.83044,0.93683c0.79731,0.61127 1.19596,1.87367 1.19596,3.7872zM546.54694,166.48966h-6.21899c0.02658,1.18267 0.3455,2.073 0.95677,2.67097c0.62456,0.59798 1.36871,0.89697 2.23246,0.89697c1.06308,0 2.05971,-0.4651 2.9899,-1.39529c0.38537,-0.38537 0.66442,-0.62456 0.83717,-0.71758c0.18604,-0.09302 0.39201,-0.13953 0.61791,-0.13953c0.29234,0 0.53818,0.09302 0.73751,0.27906c0.19933,0.17275 0.29899,0.39201 0.29899,0.65778c0,0.70429 -0.48503,1.45508 -1.45508,2.25239c-0.97005,0.78402 -2.29225,1.17603 -3.9666,1.17603c-2.12615,0 -3.74069,-0.59798 -4.84363,-1.79394c-1.08965,-1.20925 -1.63448,-2.76399 -1.63448,-4.66424c0,-1.92682 0.54483,-3.48157 1.63448,-4.66424c1.10294,-1.19596 2.63111,-1.79394 4.58451,-1.79394c1.87367,0 3.31547,0.56476 4.32538,1.69427c1.02321,1.12951 1.53481,2.35205 1.53481,3.66761c0,0.5714 -0.17275,1.02985 -0.51825,1.37535c-0.33221,0.33221 -1.0365,0.49832 -2.11286,0.49832zM540.32795,164.69572h5.78047c-0.03987,-1.06308 -0.33221,-1.86702 -0.87704,-2.41185c-0.54483,-0.55811 -1.21589,-0.83717 -2.0132,-0.83717c-1.67434,0 -2.63776,1.08301 -2.89023,3.24902zM552.76631,168.66232c0.4651,0 0.87039,0.17275 1.21589,0.51825c0.3455,0.33221 0.51825,0.73751 0.51825,1.21589c0,0.47838 -0.17275,0.89697 -0.51825,1.25576c-0.3455,0.3455 -0.75079,0.51825 -1.21589,0.51825c-0.49167,0 -0.91026,-0.17275 -1.25576,-0.51825c-0.3455,-0.3455 -0.51825,-0.76409 -0.51825,-1.25576c0,-0.47838 0.17275,-0.88368 0.51825,-1.21589c0.3455,-0.3455 0.76409,-0.51825 1.25576,-0.51825z" fill="#c1c1c1" stroke="none" stroke-width="1" stroke-linecap="square"/><path d="M199.68801,193.80933v4.06626c0,1.2624 -0.16611,2.05971 -0.49832,2.39192c-0.31892,0.31892 -0.73086,0.47838 -1.23582,0.47838c-0.38537,0 -0.72422,-0.10631 -1.01656,-0.31892c-0.29234,-0.22591 -0.47838,-0.49832 -0.55811,-0.81724c-0.07973,-0.31892 -0.1196,-0.89697 -0.1196,-1.73414v-11.58087c0,-0.95677 0.06644,-1.61454 0.19933,-1.97333c0.13288,-0.35879 0.37207,-0.59798 0.71758,-0.71758c0.3455,-0.13288 0.8571,-0.19933 1.53481,-0.19933h4.16592c2.48493,0 4.16592,0.48503 5.04296,1.45508c0.87704,0.95677 1.31555,2.14608 1.31555,3.56794c0,3.58788 -2.11951,5.38181 -6.35851,5.38181zM202.04006,186.07546h-2.35205v5.06289h2.35205c1.42186,0 2.39192,-0.22591 2.91017,-0.67771c0.53154,-0.4651 0.79731,-1.08965 0.79731,-1.87367c0,-0.55811 -0.14617,-1.04978 -0.43852,-1.47502c-0.29234,-0.43852 -0.68436,-0.71758 -1.17603,-0.83717c-0.49167,-0.13288 -1.18931,-0.19933 -2.09293,-0.19933zM215.06383,185.73661v12.37817c0,0.77073 -0.03322,1.29562 -0.09966,1.57468c-0.06644,0.26577 -0.24584,0.5116 -0.53818,0.73751c-0.27906,0.21261 -0.58469,0.31892 -0.9169,0.31892c-0.3455,0 -0.66442,-0.10631 -0.95677,-0.31892c-0.29234,-0.21261 -0.47838,-0.4651 -0.55811,-0.75744c-0.06644,-0.29234 -0.09966,-0.81059 -0.09966,-1.55475v-12.37817c0,-0.78402 0.03322,-1.30891 0.09966,-1.57468c0.07973,-0.27906 0.25912,-0.51825 0.53818,-0.71758c0.29234,-0.21261 0.60463,-0.31892 0.93683,-0.31892c0.38537,0 0.71758,0.11295 0.99663,0.33885c0.29234,0.21261 0.4651,0.47174 0.51825,0.77737c0.05315,0.29234 0.07973,0.79066 0.07973,1.49495zM227.1942,195.06509h-6.21899c0.02658,1.18267 0.3455,2.073 0.95677,2.67097c0.62456,0.59798 1.36871,0.89697 2.23246,0.89697c1.06308,0 2.05971,-0.4651 2.9899,-1.39529c0.38537,-0.38537 0.66442,-0.62456 0.83717,-0.71758c0.18604,-0.09302 0.39201,-0.13953 0.61791,-0.13953c0.29234,0 0.53818,0.09302 0.73751,0.27906c0.19933,0.17275 0.29899,0.39201 0.29899,0.65778c0,0.70429 -0.48503,1.45508 -1.45508,2.25239c-0.97005,0.78402 -2.29225,1.17603 -3.9666,1.17603c-2.12615,0 -3.74069,-0.59798 -4.84363,-1.79394c-1.08965,-1.20925 -1.63448,-2.76399 -1.63448,-4.66424c0,-1.92682 0.54483,-3.48157 1.63448,-4.66424c1.10294,-1.19596 2.63111,-1.79394 4.58451,-1.79394c1.87367,0 3.31547,0.56476 4.32538,1.69427c1.02321,1.12951 1.53481,2.35205 1.53481,3.66761c0,0.5714 -0.17275,1.02985 -0.51825,1.37535c-0.33221,0.33221 -1.0365,0.49832 -2.11286,0.49832zM220.97522,193.27115h5.78047c-0.03987,-1.06308 -0.33221,-1.86702 -0.87704,-2.41185c-0.54483,-0.55811 -1.21589,-0.83717 -2.0132,-0.83717c-1.67434,0 -2.63776,1.08301 -2.89023,3.24902zM240.49967,198.95195c-1.50159,1.19596 -2.97661,1.79394 -4.42505,1.79394c-1.36871,0 -2.42514,-0.3455 -3.16929,-1.0365c-0.73086,-0.70429 -1.0963,-1.56139 -1.0963,-2.57131c0,-0.86375 0.24584,-1.56139 0.73751,-2.09293c0.50496,-0.53154 1.04978,-0.89697 1.63448,-1.0963c0.59798,-0.21261 1.56139,-0.45845 2.89023,-0.73751c1.32884,-0.27906 2.39856,-0.53154 3.20916,-0.75744c-0.01329,-0.95677 -0.20597,-1.60126 -0.57805,-1.93347c-0.37207,-0.3455 -0.93683,-0.51825 -1.69427,-0.51825c-1.43515,0 -2.37863,0.4053 -2.83044,1.21589c-0.23919,0.4518 -0.45845,0.77737 -0.65778,0.9767c-0.18604,0.18604 -0.4651,0.27906 -0.83717,0.27906c-0.33221,0 -0.63784,-0.10631 -0.9169,-0.31892c-0.26577,-0.22591 -0.39865,-0.5116 -0.39865,-0.8571c0,-0.82388 0.44516,-1.6079 1.33549,-2.35205c0.89032,-0.74415 2.29225,-1.11623 4.20579,-1.11623c1.94011,0 3.35533,0.33885 4.24565,1.01656c0.90362,0.66442 1.32884,2.01984 1.27569,4.06626l-0.0598,2.96996c-0.02658,0.9169 0.06644,1.6677 0.27906,2.25239c0.22591,0.58469 0.33885,1.02985 0.33885,1.33549c0,0.33221 -0.15281,0.6312 -0.45845,0.89697c-0.29234,0.25248 -0.61791,0.37872 -0.9767,0.37872c-0.65113,0 -1.33549,-0.59798 -2.05306,-1.79394zM240.30034,194.36744c-0.47838,0.17275 -1.2624,0.37207 -2.35205,0.59798c-1.07636,0.21261 -1.84709,0.45845 -2.31219,0.73751c-0.4518,0.27906 -0.67771,0.68436 -0.67771,1.21589c0,0.4651 0.17939,0.87039 0.53818,1.21589c0.37207,0.3455 0.88368,0.51825 1.53481,0.51825c0.70429,0 1.35542,-0.19268 1.9534,-0.57805c0.59798,-0.38537 0.96341,-0.83717 1.0963,-1.35542c0.14617,-0.53154 0.21926,-1.31555 0.21926,-2.35205zM249.0412,191.13836c0,0.41194 0.21261,0.73751 0.63784,0.9767c0.42523,0.22591 1.37535,0.51825 2.85037,0.87704c2.88359,0.70429 4.32538,1.90025 4.32538,3.58788c0,1.34213 -0.48503,2.37198 -1.45508,3.08956c-0.97005,0.71758 -2.32547,1.07636 -4.06626,1.07636c-1.76736,0 -3.10285,-0.36543 -4.00646,-1.0963c-0.89032,-0.73086 -1.33549,-1.50159 -1.33549,-2.31219c0,-0.3455 0.1196,-0.64449 0.35879,-0.89697c0.25248,-0.25248 0.56476,-0.37872 0.93683,-0.37872c0.49167,0 0.92355,0.31228 1.29562,0.93683c0.42523,0.67771 0.88368,1.12951 1.37535,1.35542c0.50496,0.21261 1.04978,0.31892 1.63448,0.31892c0.62456,0 1.13616,-0.13953 1.53481,-0.41859c0.39865,-0.27906 0.59798,-0.63784 0.59798,-1.07636c0,-0.39865 -0.16611,-0.73751 -0.49832,-1.01656c-0.33221,-0.29234 -1.25576,-0.61127 -2.77064,-0.95677c-1.50159,-0.3455 -2.59789,-0.83052 -3.28889,-1.45508c-0.691,-0.62456 -1.0365,-1.36871 -1.0365,-2.23246c0,-0.97005 0.41859,-1.82716 1.25576,-2.57131c0.85046,-0.74415 2.11286,-1.11623 3.7872,-1.11623c1.54146,0 2.77064,0.31892 3.68754,0.95677c0.9169,0.62456 1.37535,1.27569 1.37535,1.9534c0,0.3455 -0.1196,0.64449 -0.35879,0.89697c-0.22591,0.23919 -0.54483,0.35879 -0.95677,0.35879c-0.61127,0 -1.16274,-0.35214 -1.65441,-1.05643c-0.49167,-0.70429 -1.23582,-1.05643 -2.23246,-1.05643c-0.53154,0 -0.99663,0.11295 -1.39529,0.33885c-0.39865,0.21261 -0.59798,0.51825 -0.59798,0.9169zM268.37863,195.06509h-6.21899c0.02658,1.18267 0.3455,2.073 0.95677,2.67097c0.62456,0.59798 1.36871,0.89697 2.23246,0.89697c1.06308,0 2.05971,-0.4651 2.9899,-1.39529c0.38537,-0.38537 0.66442,-0.62456 0.83717,-0.71758c0.18604,-0.09302 0.39201,-0.13953 0.61791,-0.13953c0.29234,0 0.53818,0.09302 0.73751,0.27906c0.19933,0.17275 0.29899,0.39201 0.29899,0.65778c0,0.70429 -0.48503,1.45508 -1.45508,2.25239c-0.97005,0.78402 -2.29225,1.17603 -3.9666,1.17603c-2.12615,0 -3.74069,-0.59798 -4.84363,-1.79394c-1.08965,-1.20925 -1.63448,-2.76399 -1.63448,-4.66424c0,-1.92682 0.54483,-3.48157 1.63448,-4.66424c1.10294,-1.19596 2.63111,-1.79394 4.58451,-1.79394c1.87367,0 3.31547,0.56476 4.32538,1.69427c1.02321,1.12951 1.53481,2.35205 1.53481,3.66761c0,0.5714 -0.17275,1.02985 -0.51825,1.37535c-0.33221,0.33221 -1.0365,0.49832 -2.11286,0.49832zM262.15964,193.27115h5.78047c-0.03987,-1.06308 -0.33221,-1.86702 -0.87704,-2.41185c-0.54483,-0.55811 -1.21589,-0.83717 -2.0132,-0.83717c-1.67434,0 -2.63776,1.08301 -2.89023,3.24902zM280.71674,198.11478v-8.13252c0,-1.43515 0.5249,-2.15273 1.57468,-2.15273c0.99663,0 1.50823,0.66442 1.53481,1.99326c0.65113,-1.32884 1.56139,-1.99326 2.73077,-1.99326c0.61127,0 1.24247,0.16611 1.8936,0.49832c0.65113,0.31892 0.9767,0.75744 0.9767,1.31555c0,0.38537 -0.13288,0.70429 -0.39865,0.95677c-0.25248,0.25248 -0.53154,0.37872 -0.83717,0.37872c-0.17275,0 -0.48503,-0.06644 -0.93683,-0.19933c-0.43852,-0.14617 -0.81059,-0.21926 -1.11623,-0.21926c-0.75744,0 -1.3222,0.38537 -1.69427,1.15609c-0.37207,0.77073 -0.55811,2.25239 -0.55811,4.44498v1.8338c0,0.81059 -0.03322,1.35542 -0.09966,1.63448c-0.06644,0.27906 -0.23919,0.53818 -0.51825,0.77737c-0.27906,0.22591 -0.59798,0.33885 -0.95677,0.33885c-0.3455,0 -0.65778,-0.09966 -0.93683,-0.29899c-0.27906,-0.21261 -0.45845,-0.45845 -0.53818,-0.73751c-0.07973,-0.29234 -0.1196,-0.82388 -0.1196,-1.59461zM299.41769,195.06509h-6.21899c0.02658,1.18267 0.3455,2.073 0.95677,2.67097c0.62456,0.59798 1.36871,0.89697 2.23246,0.89697c1.06308,0 2.05971,-0.4651 2.9899,-1.39529c0.38537,-0.38537 0.66442,-0.62456 0.83717,-0.71758c0.18604,-0.09302 0.39201,-0.13953 0.61791,-0.13953c0.29234,0 0.53818,0.09302 0.73751,0.27906c0.19933,0.17275 0.29899,0.39201 0.29899,0.65778c0,0.70429 -0.48503,1.45508 -1.45508,2.25239c-0.97005,0.78402 -2.29225,1.17603 -3.9666,1.17603c-2.12615,0 -3.74069,-0.59798 -4.84363,-1.79394c-1.08965,-1.20925 -1.63448,-2.76399 -1.63448,-4.66424c0,-1.92682 0.54483,-3.48157 1.63448,-4.66424c1.10294,-1.19596 2.63111,-1.79394 4.58451,-1.79394c1.87367,0 3.31547,0.56476 4.32538,1.69427c1.02321,1.12951 1.53481,2.35205 1.53481,3.66761c0,0.5714 -0.17275,1.02985 -0.51825,1.37535c-0.33221,0.33221 -1.0365,0.49832 -2.11286,0.49832zM293.1987,193.27115h5.78047c-0.03987,-1.06308 -0.33221,-1.86702 -0.87704,-2.41185c-0.54483,-0.55811 -1.21589,-0.83717 -2.0132,-0.83717c-1.67434,0 -2.63776,1.08301 -2.89023,3.24902zM307.87952,185.73661v12.37817c0,0.77073 -0.03322,1.29562 -0.09966,1.57468c-0.06644,0.26577 -0.24584,0.5116 -0.53818,0.73751c-0.27906,0.21261 -0.58469,0.31892 -0.9169,0.31892c-0.3455,0 -0.66442,-0.10631 -0.95677,-0.31892c-0.29234,-0.21261 -0.47838,-0.4651 -0.55811,-0.75744c-0.06644,-0.29234 -0.09966,-0.81059 -0.09966,-1.55475v-12.37817c0,-0.78402 0.03322,-1.30891 0.09966,-1.57468c0.07973,-0.27906 0.25912,-0.51825 0.53818,-0.71758c0.29234,-0.21261 0.60463,-0.31892 0.93683,-0.31892c0.38537,0 0.71758,0.11295 0.99663,0.33885c0.29234,0.21261 0.4651,0.47174 0.51825,0.77737c0.05315,0.29234 0.07973,0.79066 0.07973,1.49495zM316.70108,187.82954c1.96669,0 3.51479,0.61127 4.64431,1.8338c1.12951,1.20925 1.69427,2.75071 1.69427,4.62437c0,1.88695 -0.5714,3.43506 -1.71421,4.64431c-1.14281,1.20925 -2.65769,1.81387 -4.54464,1.81387c-2.04642,0 -3.62774,-0.61127 -4.74397,-1.8338c-1.10294,-1.23582 -1.65441,-2.77728 -1.65441,-4.62437c0,-1.88695 0.56476,-3.43506 1.69427,-4.64431c1.12951,-1.20925 2.67097,-1.81387 4.62437,-1.81387zM316.70108,198.37391c0.97005,0 1.73414,-0.35879 2.29225,-1.07636c0.55811,-0.73086 0.83717,-1.73414 0.83717,-3.00983c0,-1.28898 -0.27906,-2.29225 -0.83717,-3.00983c-0.55811,-0.73086 -1.3222,-1.0963 -2.29225,-1.0963c-0.94348,0 -1.70092,0.36543 -2.27232,1.0963c-0.55811,0.73086 -0.83717,1.73414 -0.83717,3.00983c0,1.28898 0.27906,2.29225 0.83717,3.00983c0.5714,0.71758 1.32884,1.07636 2.27232,1.07636zM333.54779,198.95195c-1.50159,1.19596 -2.97661,1.79394 -4.42505,1.79394c-1.36871,0 -2.42514,-0.3455 -3.16929,-1.0365c-0.73086,-0.70429 -1.0963,-1.56139 -1.0963,-2.57131c0,-0.86375 0.24584,-1.56139 0.73751,-2.09293c0.50496,-0.53154 1.04978,-0.89697 1.63448,-1.0963c0.59798,-0.21261 1.56139,-0.45845 2.89023,-0.73751c1.32884,-0.27906 2.39856,-0.53154 3.20916,-0.75744c-0.01329,-0.95677 -0.20597,-1.60126 -0.57805,-1.93347c-0.37207,-0.3455 -0.93683,-0.51825 -1.69427,-0.51825c-1.43515,0 -2.37863,0.4053 -2.83044,1.21589c-0.23919,0.4518 -0.45845,0.77737 -0.65778,0.9767c-0.18604,0.18604 -0.4651,0.27906 -0.83717,0.27906c-0.33221,0 -0.63784,-0.10631 -0.9169,-0.31892c-0.26577,-0.22591 -0.39865,-0.5116 -0.39865,-0.8571c0,-0.82388 0.44516,-1.6079 1.33549,-2.35205c0.89032,-0.74415 2.29225,-1.11623 4.20579,-1.11623c1.94011,0 3.35533,0.33885 4.24565,1.01656c0.90362,0.66442 1.32884,2.01984 1.27569,4.06626l-0.0598,2.96996c-0.02658,0.9169 0.06644,1.6677 0.27906,2.25239c0.22591,0.58469 0.33885,1.02985 0.33885,1.33549c0,0.33221 -0.15281,0.6312 -0.45845,0.89697c-0.29234,0.25248 -0.61791,0.37872 -0.9767,0.37872c-0.65113,0 -1.33549,-0.59798 -2.05306,-1.79394zM333.34846,194.36744c-0.47838,0.17275 -1.2624,0.37207 -2.35205,0.59798c-1.07636,0.21261 -1.84709,0.45845 -2.31219,0.73751c-0.4518,0.27906 -0.67771,0.68436 -0.67771,1.21589c0,0.4651 0.17939,0.87039 0.53818,1.21589c0.37207,0.3455 0.88368,0.51825 1.53481,0.51825c0.70429,0 1.35542,-0.19268 1.9534,-0.57805c0.59798,-0.38537 0.96341,-0.83717 1.0963,-1.35542c0.14617,-0.53154 0.21926,-1.31555 0.21926,-2.35205zM348.34821,198.93202v-0.31892c-1.08965,1.42186 -2.47165,2.13279 -4.14599,2.13279c-1.62119,0 -2.91017,-0.61791 -3.86693,-1.85374c-0.95677,-1.23582 -1.43515,-2.83044 -1.43515,-4.78383c0,-1.8338 0.4651,-3.3354 1.39529,-4.50478c0.94348,-1.18267 2.2391,-1.77401 3.88687,-1.77401c1.6079,0 2.99654,0.65113 4.16592,1.9534v-4.12606c0,-1.12951 0.13953,-1.8338 0.41859,-2.11286c0.29234,-0.27906 0.68436,-0.41859 1.17603,-0.41859c0.3455,0 0.65778,0.09966 0.93683,0.29899c0.29234,0.18604 0.47174,0.43852 0.53818,0.75744c0.06644,0.31892 0.09966,0.84382 0.09966,1.57468v12.49777c0,0.70429 -0.03987,1.20925 -0.1196,1.51488c-0.06644,0.30564 -0.24584,0.54483 -0.53818,0.71758c-0.29234,0.17275 -0.60463,0.25912 -0.93683,0.25912c-1.04978,0 -1.57468,-0.60463 -1.57468,-1.81387zM342.10929,194.20798c0,1.42186 0.29899,2.465 0.89697,3.12943c0.59798,0.65113 1.28234,0.9767 2.05306,0.9767c0.90362,0 1.64776,-0.33885 2.23246,-1.01656c0.58469,-0.691 0.87704,-1.64776 0.87704,-2.8703c0,-1.27569 -0.2857,-2.29225 -0.8571,-3.04969c-0.5714,-0.75744 -1.32884,-1.13616 -2.27232,-1.13616c-0.86375,0 -1.56803,0.35214 -2.11286,1.05643c-0.54483,0.70429 -0.81724,1.67434 -0.81724,2.91017zM362.13599,188.10859v-1.8936c0,-0.78402 0.03322,-1.31555 0.09966,-1.59461c0.06644,-0.29234 0.23919,-0.54483 0.51825,-0.75744c0.27906,-0.22591 0.60463,-0.33885 0.9767,-0.33885c0.33221,0 0.63784,0.09966 0.9169,0.29899c0.27906,0.19933 0.45845,0.44516 0.53818,0.73751c0.09302,0.29234 0.13953,0.75744 0.13953,1.39529v2.15273h0.61791c0.77073,0 1.28234,0.09966 1.53481,0.29899c0.25248,0.18604 0.37872,0.45845 0.37872,0.81724c0,0.78402 -0.65113,1.17603 -1.9534,1.17603h-0.57805v5.8602c0,0.79731 0.05315,1.34213 0.15946,1.63448c0.1196,0.27906 0.41859,0.41859 0.89697,0.41859c0.23919,0 0.49832,-0.03322 0.77737,-0.09966c0.29234,-0.06644 0.5116,-0.09966 0.65778,-0.09966c0.31892,0 0.57805,0.10631 0.77737,0.31892c0.19933,0.19933 0.29899,0.44516 0.29899,0.73751c0,1.04978 -1.0963,1.57468 -3.28889,1.57468c-1.06308,0 -1.84709,-0.19933 -2.35205,-0.59798c-0.49167,-0.39865 -0.80395,-0.87704 -0.93683,-1.43515c-0.1196,-0.5714 -0.17939,-1.30891 -0.17939,-2.21252v-6.09939h-0.41859c-0.93019,0 -1.39529,-0.37872 -1.39529,-1.13616c0,-0.77073 0.49167,-1.15609 1.47502,-1.15609zM381.28488,192.73297v5.78047c0,1.4883 -0.53818,2.23246 -1.61454,2.23246c-0.49167,0 -0.87704,-0.15946 -1.15609,-0.47838c-0.26577,-0.31892 -0.39865,-0.90362 -0.39865,-1.75407v-5.06289c0,-1.19596 -0.19268,-2.0132 -0.57805,-2.45172c-0.37207,-0.4518 -0.90362,-0.67771 -1.59461,-0.67771c-0.59798,0 -1.12287,0.16611 -1.57468,0.49832c-0.43852,0.33221 -0.75079,0.74415 -0.93683,1.23582c-0.18604,0.47838 -0.27906,1.32884 -0.27906,2.55138v3.68754c0,0.98335 -0.14617,1.64112 -0.43852,1.97333c-0.27906,0.31892 -0.67106,0.47838 -1.17603,0.47838c-0.47838,0 -0.8571,-0.15946 -1.13616,-0.47838c-0.27906,-0.31892 -0.41859,-0.96341 -0.41859,-1.93347v-12.59743c0,-0.77073 0.03322,-1.30227 0.09966,-1.59461c0.07973,-0.30564 0.24584,-0.55147 0.49832,-0.73751c0.26577,-0.18604 0.57805,-0.27906 0.93683,-0.27906c0.41194,0 0.75079,0.10631 1.01656,0.31892c0.26577,0.21261 0.43187,0.49167 0.49832,0.83717c0.07973,0.3455 0.1196,0.9169 0.1196,1.71421v3.76727c1.06308,-1.28898 2.35205,-1.93347 3.86693,-1.93347c1.27569,0 2.30554,0.39865 3.08956,1.19596c0.78402,0.78402 1.17603,2.01984 1.17603,3.70747zM393.26798,195.06509h-6.21899c0.02658,1.18267 0.3455,2.073 0.95677,2.67097c0.62456,0.59798 1.36871,0.89697 2.23246,0.89697c1.06308,0 2.05971,-0.4651 2.9899,-1.39529c0.38537,-0.38537 0.66442,-0.62456 0.83717,-0.71758c0.18604,-0.09302 0.39201,-0.13953 0.61791,-0.13953c0.29234,0 0.53818,0.09302 0.73751,0.27906c0.19933,0.17275 0.29899,0.39201 0.29899,0.65778c0,0.70429 -0.48503,1.45508 -1.45508,2.25239c-0.97005,0.78402 -2.29225,1.17603 -3.9666,1.17603c-2.12615,0 -3.74069,-0.59798 -4.84363,-1.79394c-1.08965,-1.20925 -1.63448,-2.76399 -1.63448,-4.66424c0,-1.92682 0.54483,-3.48157 1.63448,-4.66424c1.10294,-1.19596 2.63111,-1.79394 4.58451,-1.79394c1.87367,0 3.31547,0.56476 4.32538,1.69427c1.02321,1.12951 1.53481,2.35205 1.53481,3.66761c0,0.5714 -0.17275,1.02985 -0.51825,1.37535c-0.33221,0.33221 -1.0365,0.49832 -2.11286,0.49832zM387.04899,193.27115h5.78047c-0.03987,-1.06308 -0.33221,-1.86702 -0.87704,-2.41185c-0.54483,-0.55811 -1.21589,-0.83717 -2.0132,-0.83717c-1.67434,0 -2.63776,1.08301 -2.89023,3.24902zM408.45646,189.96233c1.12951,-1.42186 2.51151,-2.13279 4.14599,-2.13279c1.62119,0 2.91017,0.61791 3.86693,1.85374c0.95677,1.22254 1.43515,2.80386 1.43515,4.74397c0,1.84709 -0.47174,3.36197 -1.41522,4.54464c-0.93019,1.18267 -2.21917,1.77401 -3.86693,1.77401c-1.58133,0 -2.96996,-0.66442 -4.16592,-1.99326v4.14599c0,1.14281 -0.13953,1.85374 -0.41859,2.13279c-0.27906,0.27906 -0.65778,0.41859 -1.13616,0.41859c-0.58469,0 -0.99663,-0.19268 -1.23582,-0.57805c-0.23919,-0.38537 -0.35879,-1.07636 -0.35879,-2.073v-12.5177c0,-0.65113 0.02658,-1.12951 0.07973,-1.43515c0.06644,-0.30564 0.23919,-0.55147 0.51825,-0.73751c0.27906,-0.18604 0.61127,-0.27906 0.99663,-0.27906c1.0365,0 1.55475,0.59798 1.55475,1.79394zM414.71531,194.36744c0,-1.39529 -0.29899,-2.42514 -0.89697,-3.08956c-0.58469,-0.67771 -1.2624,-1.01656 -2.03313,-1.01656c-0.9169,0 -1.6677,0.33885 -2.25239,1.01656c-0.58469,0.67771 -0.87704,1.62783 -0.87704,2.85037c0,1.28898 0.27906,2.31219 0.83717,3.06963c0.5714,0.74415 1.34213,1.11623 2.31219,1.11623c0.85046,0 1.5481,-0.35214 2.09293,-1.05643c0.54483,-0.70429 0.81724,-1.6677 0.81724,-2.89023zM428.51368,198.95195c-1.50159,1.19596 -2.97661,1.79394 -4.42505,1.79394c-1.36871,0 -2.42514,-0.3455 -3.16929,-1.0365c-0.73086,-0.70429 -1.0963,-1.56139 -1.0963,-2.57131c0,-0.86375 0.24584,-1.56139 0.73751,-2.09293c0.50496,-0.53154 1.04978,-0.89697 1.63448,-1.0963c0.59798,-0.21261 1.56139,-0.45845 2.89023,-0.73751c1.32884,-0.27906 2.39856,-0.53154 3.20916,-0.75744c-0.01329,-0.95677 -0.20597,-1.60126 -0.57805,-1.93347c-0.37207,-0.3455 -0.93683,-0.51825 -1.69427,-0.51825c-1.43515,0 -2.37863,0.4053 -2.83044,1.21589c-0.23919,0.4518 -0.45845,0.77737 -0.65778,0.9767c-0.18604,0.18604 -0.4651,0.27906 -0.83717,0.27906c-0.33221,0 -0.63784,-0.10631 -0.9169,-0.31892c-0.26577,-0.22591 -0.39865,-0.5116 -0.39865,-0.8571c0,-0.82388 0.44516,-1.6079 1.33549,-2.35205c0.89032,-0.74415 2.29225,-1.11623 4.20579,-1.11623c1.94011,0 3.35533,0.33885 4.24565,1.01656c0.90362,0.66442 1.32884,2.01984 1.27569,4.06626l-0.0598,2.96996c-0.02658,0.9169 0.06644,1.6677 0.27906,2.25239c0.22591,0.58469 0.33885,1.02985 0.33885,1.33549c0,0.33221 -0.15281,0.6312 -0.45845,0.89697c-0.29234,0.25248 -0.61791,0.37872 -0.9767,0.37872c-0.65113,0 -1.33549,-0.59798 -2.05306,-1.79394zM428.31436,194.36744c-0.47838,0.17275 -1.2624,0.37207 -2.35205,0.59798c-1.07636,0.21261 -1.84709,0.45845 -2.31219,0.73751c-0.4518,0.27906 -0.67771,0.68436 -0.67771,1.21589c0,0.4651 0.17939,0.87039 0.53818,1.21589c0.37207,0.3455 0.88368,0.51825 1.53481,0.51825c0.70429,0 1.35542,-0.19268 1.9534,-0.57805c0.59798,-0.38537 0.96341,-0.83717 1.0963,-1.35542c0.14617,-0.53154 0.21926,-1.31555 0.21926,-2.35205zM443.02009,190.00219v-0.43852c0,-0.5714 0.13953,-1.00328 0.41859,-1.29562c0.29234,-0.29234 0.65778,-0.43852 1.0963,-0.43852c0.47838,0 0.84382,0.17275 1.0963,0.51825c0.26577,0.33221 0.39865,1.05643 0.39865,2.17266v8.51124c0,2.53809 -0.53818,4.23901 -1.61454,5.10276c-1.06308,0.87704 -2.59789,1.31555 -4.60444,1.31555c-1.80722,0 -3.22244,-0.33885 -4.24565,-1.01656c-1.00992,-0.66442 -1.51488,-1.36871 -1.51488,-2.11286c0,-0.39865 0.13288,-0.72422 0.39865,-0.9767c0.26577,-0.23919 0.58469,-0.35879 0.95677,-0.35879c0.33221,0 0.59798,0.07973 0.79731,0.23919c0.19933,0.15946 0.53154,0.53818 0.99663,1.13616c0.47838,0.59798 1.27569,0.89697 2.39192,0.89697c0.62456,0 1.20261,-0.09966 1.73414,-0.29899c0.53154,-0.18604 0.92355,-0.5249 1.17603,-1.01656c0.25248,-0.49167 0.37207,-1.68763 0.35879,-3.58788c-0.97005,1.39529 -2.2989,2.09293 -3.98653,2.09293c-1.62119,0 -2.90352,-0.60463 -3.847,-1.81387c-0.93019,-1.20925 -1.39529,-2.76399 -1.39529,-4.66424c0,-1.87367 0.47838,-3.36197 1.43515,-4.46491c0.97005,-1.11623 2.23246,-1.67434 3.7872,-1.67434c1.70092,0 3.08956,0.72422 4.16592,2.17266zM436.84097,194.22792c0,1.23582 0.26577,2.1793 0.79731,2.83044c0.54483,0.63784 1.28234,0.95677 2.21252,0.95677c0.81059,0 1.51488,-0.31228 2.11286,-0.93683c0.59798,-0.62456 0.89697,-1.56139 0.89697,-2.8105c0,-1.23582 -0.27906,-2.21252 -0.83717,-2.9301c-0.54483,-0.71758 -1.28234,-1.07636 -2.21252,-1.07636c-0.90362,0 -1.62783,0.33885 -2.17266,1.01656c-0.53154,0.66442 -0.79731,1.64776 -0.79731,2.95003zM457.46125,195.06509h-6.21899c0.02658,1.18267 0.3455,2.073 0.95677,2.67097c0.62456,0.59798 1.36871,0.89697 2.23246,0.89697c1.06308,0 2.05971,-0.4651 2.9899,-1.39529c0.38537,-0.38537 0.66442,-0.62456 0.83717,-0.71758c0.18604,-0.09302 0.39201,-0.13953 0.61791,-0.13953c0.29234,0 0.53818,0.09302 0.73751,0.27906c0.19933,0.17275 0.29899,0.39201 0.29899,0.65778c0,0.70429 -0.48503,1.45508 -1.45508,2.25239c-0.97005,0.78402 -2.29225,1.17603 -3.9666,1.17603c-2.12615,0 -3.74069,-0.59798 -4.84363,-1.79394c-1.08962,-1.20925 -1.63444,-2.76399 -1.63444,-4.66424c0,-1.92682 0.54482,-3.48157 1.63444,-4.66424c1.10294,-1.19596 2.63111,-1.79394 4.58451,-1.79394c1.87367,0 3.31547,0.56476 4.32538,1.69427c1.02321,1.12951 1.53481,2.35205 1.53481,3.66761c0,0.5714 -0.17275,1.02985 -0.51825,1.37535c-0.33221,0.33221 -1.0365,0.49832 -2.11286,0.49832zM451.24227,193.27115h5.78047c-0.03987,-1.06308 -0.33221,-1.86702 -0.87704,-2.41185c-0.54483,-0.55811 -1.21589,-0.83717 -2.0132,-0.83717c-1.67434,0 -2.63776,1.08301 -2.89023,3.24902zM463.68063,197.23775c0.4651,0 0.87039,0.17275 1.21589,0.51825c0.3455,0.33221 0.51825,0.73751 0.51825,1.21589c0,0.47838 -0.17275,0.89697 -0.51825,1.25576c-0.3455,0.3455 -0.75079,0.51825 -1.21589,0.51825c-0.49167,0 -0.91026,-0.17275 -1.25576,-0.51825c-0.3455,-0.3455 -0.51825,-0.76409 -0.51825,-1.25576c0,-0.47838 0.17275,-0.88368 0.51825,-1.21589c0.3455,-0.3455 0.76409,-0.51825 1.25576,-0.51825z" fill="#c1c1c1" stroke="none" stroke-width="1" stroke-linecap="square"/></g></g></svg>