<svg version="1.1" xmlns="http://www.w3.org/2000/svg" xmlns:xlink="http://www.w3.org/1999/xlink" width="454.70207" height="246.25802" viewBox="0,0,454.70207,246.25802"><g transform="translate(-198.61862,-1.91013)"><g data-paper-data="{&quot;isPaintingLayer&quot;:true}" fill-rule="nonzero" stroke="none" stroke-linejoin="miter" stroke-miterlimit="10" stroke-dasharray="" stroke-dashoffset="0" style="mix-blend-mode: normal"><path d="M249.85374,181.98801v4.3c0,1.32861 -0.17344,2.16309 -0.52032,2.50342c-0.34033,0.34033 -0.77884,0.5105 -1.31552,0.5105c-0.39924,0 -0.75921,-0.11453 -1.07991,-0.34361c-0.31415,-0.22907 -0.5105,-0.5105 -0.58904,-0.84429c-0.07199,-0.33379 -0.10799,-0.94246 -0.10799,-1.82602v-12.22259c0,-1.02755 0.06872,-1.72785 0.20616,-2.10091c0.13744,-0.3796 0.38615,-0.63485 0.74612,-0.76575c0.36651,-0.1309 0.90974,-0.19635 1.62968,-0.19635h4.39817c2.61795,0 4.39162,0.50723 5.321,1.52169c0.92937,1.01446 1.39406,2.27435 1.39406,3.77967c0,3.78949 -2.23835,5.68424 -6.71506,5.68424zM252.33752,173.81998h-2.48379v5.35045h2.48379c1.50533,0 2.5296,-0.24216 3.07283,-0.72648c0.54977,-0.48432 0.82466,-1.13881 0.82466,-1.96347c0,-0.58904 -0.1538,-1.11263 -0.46141,-1.57077c-0.30106,-0.45814 -0.71012,-0.75266 -1.22717,-0.88356c-0.51705,-0.13744 -1.25335,-0.20616 -2.2089,-0.20616zM266.09652,173.45674v13.0767c0,0.80502 -0.03927,1.35479 -0.11781,1.64931c-0.07199,0.28798 -0.25852,0.5465 -0.55959,0.77557c-0.30106,0.22907 -0.62831,0.34361 -0.98173,0.34361c-0.35997,0 -0.69703,-0.11126 -1.01119,-0.33379c-0.30761,-0.22907 -0.50068,-0.49414 -0.57922,-0.7952c-0.07199,-0.30106 -0.10799,-0.84756 -0.10799,-1.63949v-13.0767c0,-0.82466 0.03927,-1.38097 0.11781,-1.66895c0.07854,-0.29452 0.26507,-0.54977 0.55959,-0.76575c0.30106,-0.21598 0.62831,-0.32397 0.98173,-0.32397c0.41233,0 0.76575,0.11781 1.06027,0.35342c0.30106,0.22907 0.48105,0.50396 0.53995,0.82466c0.06545,0.31415 0.09817,0.84102 0.09817,1.58059zM278.90568,183.31335h-6.57761c0.03273,1.24353 0.37306,2.18273 1.021,2.81758c0.65449,0.63485 1.43333,0.95228 2.33653,0.95228c1.12572,0 2.18272,-0.49087 3.171,-1.4726c0.39924,-0.41233 0.69376,-0.66758 0.88356,-0.76575c0.19635,-0.09817 0.41233,-0.14726 0.64794,-0.14726c0.30106,0 0.55959,0.0949 0.77557,0.2847c0.22253,0.1898 0.33379,0.42215 0.33379,0.69703c0,0.75266 -0.51705,1.54459 -1.55114,2.37579c-1.02755,0.8312 -2.42161,1.2468 -4.18218,1.2468c-2.2449,0 -3.94657,-0.63158 -5.10501,-1.89475c-1.1519,-1.26316 -1.72785,-2.90266 -1.72785,-4.91849c0,-2.02891 0.57595,-3.66841 1.72785,-4.91848c1.15845,-1.25662 2.76849,-1.88493 4.83013,-1.88493c1.97656,0 3.49824,0.59231 4.56506,1.77694c1.07336,1.18462 1.61004,2.47397 1.61004,3.86803c0,0.60867 -0.17999,1.093 -0.53995,1.45297c-0.35342,0.35342 -1.093,0.53014 -2.21872,0.53014zM272.32807,181.40878h6.09656c-0.03927,-1.11263 -0.34688,-1.96019 -0.92283,-2.54269c-0.56941,-0.5825 -1.27625,-0.87374 -2.12054,-0.87374c-1.77366,0 -2.7914,1.13881 -3.05319,3.41643zM292.95674,187.417c-1.59695,1.25662 -3.16118,1.88493 -4.69269,1.88493c-1.44642,0 -2.55905,-0.36651 -3.33789,-1.09954c-0.7723,-0.73957 -1.15845,-1.63949 -1.15845,-2.69977c0,-0.90974 0.26179,-1.64277 0.78539,-2.19909c0.53014,-0.56286 1.10609,-0.95555 1.72785,-1.17808c0.62177,-0.22253 1.63295,-0.47778 3.03356,-0.76575c1.40715,-0.29452 2.53942,-0.56286 3.3968,-0.80502c-0.00654,-1.01446 -0.20616,-1.6984 -0.59886,-2.05182c-0.39269,-0.35997 -0.99155,-0.53995 -1.79657,-0.53995c-1.51841,0 -2.51324,0.42542 -2.98447,1.27625c-0.26179,0.48432 -0.49414,0.82793 -0.69703,1.03082c-0.20289,0.20289 -0.49741,0.30434 -0.88356,0.30434c-0.35342,0 -0.67412,-0.11453 -0.9621,-0.34361c-0.28143,-0.23562 -0.42215,-0.53668 -0.42215,-0.90319c0,-0.87047 0.46796,-1.69513 1.40388,-2.47397c0.94246,-0.77884 2.42488,-1.16826 4.44725,-1.16826c2.04855,0 3.54733,0.35342 4.49634,1.06027c0.94901,0.70685 1.39406,2.13691 1.33516,4.29018l-0.07854,3.14156c-0.03273,0.96864 0.06872,1.76058 0.30434,2.37579c0.23562,0.61522 0.35342,1.08645 0.35342,1.4137c0,0.35342 -0.15708,0.66431 -0.47123,0.93265c-0.30761,0.26834 -0.65776,0.40251 -1.05045,0.40251c-0.68067,0 -1.39733,-0.62831 -2.15,-1.88493zM292.73095,182.56723c-0.49741,0.19635 -1.32207,0.40905 -2.47397,0.63813c-1.14535,0.22907 -1.95692,0.49087 -2.4347,0.7854c-0.47778,0.29452 -0.71667,0.72321 -0.71667,1.28607c0,0.48432 0.1898,0.90974 0.56941,1.27625c0.3796,0.36651 0.91629,0.54977 1.61004,0.54977c0.73957,0 1.42351,-0.19962 2.05182,-0.59886c0.63485,-0.40578 1.02428,-0.88683 1.16826,-1.44315c0.15053,-0.55631 0.2258,-1.38752 0.2258,-2.49361zM301.96169,179.17043c0,0.43196 0.2258,0.7723 0.6774,1.021c0.4516,0.24216 1.45624,0.55631 3.01392,0.94246c3.03683,0.73303 4.55524,1.9962 4.55524,3.7895c0,1.4137 -0.5105,2.49688 -1.5315,3.24954c-1.021,0.75266 -2.45433,1.12899 -4.29999,1.12899c-1.86529,0 -3.26917,-0.38288 -4.21164,-1.14863c-0.94246,-0.7723 -1.4137,-1.58713 -1.4137,-2.44452c0,-0.36651 0.1309,-0.68067 0.39269,-0.94246c0.26179,-0.26179 0.5825,-0.39269 0.9621,-0.39269c0.52359,0 0.98173,0.32725 1.37443,0.98173c0.44505,0.71994 0.93265,1.19771 1.46278,1.43333c0.53014,0.22907 1.09954,0.34361 1.70822,0.34361c0.66758,0 1.21081,-0.14726 1.62968,-0.44178c0.42542,-0.30106 0.63813,-0.68067 0.63813,-1.13881c0,-0.41887 -0.17999,-0.78211 -0.53995,-1.08972c-0.35342,-0.30761 -1.32534,-0.6414 -2.91575,-1.00138c-1.59041,-0.36651 -2.74885,-0.87702 -3.47534,-1.5315c-0.72648,-0.66103 -1.08972,-1.44642 -1.08972,-2.35616c0,-1.021 0.44178,-1.9242 1.32534,-2.70958c0.8901,-0.78539 2.22199,-1.17808 3.99566,-1.17808c1.62968,0 2.92557,0.33052 3.88766,0.99155c0.96864,0.66103 1.45297,1.34825 1.45297,2.06164c0,0.37306 -0.12435,0.69049 -0.37306,0.95228c-0.24216,0.25525 -0.57922,0.38288 -1.01119,0.38288c-0.64794,0 -1.23371,-0.36979 -1.7573,-1.10936c-0.51705,-0.74612 -1.29916,-1.11918 -2.34634,-1.11918c-0.56286,0 -1.057,0.11453 -1.48242,0.34361c-0.41887,0.22907 -0.62831,0.55631 -0.62831,0.98173zM322.39647,183.31335h-6.57761c0.03273,1.24353 0.37306,2.18273 1.021,2.81758c0.65449,0.63485 1.43333,0.95228 2.33653,0.95228c1.12572,0 2.18272,-0.49087 3.171,-1.4726c0.39924,-0.41233 0.69376,-0.66758 0.88356,-0.76575c0.19635,-0.09817 0.41233,-0.14726 0.64794,-0.14726c0.30106,0 0.55959,0.0949 0.77557,0.2847c0.22253,0.1898 0.33379,0.42215 0.33379,0.69703c0,0.75266 -0.51705,1.54459 -1.55114,2.37579c-1.02755,0.8312 -2.42161,1.2468 -4.18218,1.2468c-2.2449,0 -3.94657,-0.63158 -5.10501,-1.89475c-1.1519,-1.26316 -1.72785,-2.90266 -1.72785,-4.91849c0,-2.02891 0.57595,-3.66841 1.72785,-4.91848c1.15845,-1.25662 2.76849,-1.88493 4.83013,-1.88493c1.97656,0 3.49824,0.59231 4.56506,1.77694c1.07336,1.18462 1.61004,2.47397 1.61004,3.86803c0,0.60867 -0.17999,1.093 -0.53995,1.45297c-0.35342,0.35342 -1.093,0.53014 -2.21872,0.53014zM315.81886,181.40878h6.09656c-0.03927,-1.11263 -0.34688,-1.96019 -0.92283,-2.54269c-0.56941,-0.5825 -1.27625,-0.87374 -2.12054,-0.87374c-1.77366,0 -2.7914,1.13881 -3.05319,3.41643zM339.70689,185.25719l1.99292,-6.94086c0.25525,-0.85738 0.44505,-1.41697 0.56941,-1.67876c0.12435,-0.26834 0.33706,-0.49414 0.63813,-0.6774c0.30106,-0.18326 0.63485,-0.27489 1.00137,-0.27489c0.58904,0 1.021,0.15708 1.29589,0.47123c0.28143,0.30761 0.58904,1.02755 0.92283,2.15981l2.01255,6.94086l2.18927,-7.49064c0.22907,-0.78539 0.44832,-1.32861 0.65776,-1.62968c0.21598,-0.30106 0.57922,-0.4516 1.08972,-0.4516c0.39269,0 0.73957,0.14072 1.04064,0.42215c0.30106,0.28143 0.4516,0.6054 0.4516,0.97192c0,0.30106 -0.12763,0.82138 -0.38288,1.56096l-2.73904,8.02077c-0.29452,0.85083 -0.52032,1.4137 -0.6774,1.68858c-0.15053,0.27489 -0.37306,0.50068 -0.66758,0.6774c-0.28798,0.18326 -0.60867,0.27489 -0.9621,0.27489c-0.69376,0 -1.1879,-0.20616 -1.48242,-0.61849c-0.28798,-0.41887 -0.57595,-1.12899 -0.86393,-2.13036l-1.88493,-6.52854l-1.85548,6.52854c-0.23562,0.84429 -0.42869,1.41697 -0.57922,1.71803c-0.14399,0.29452 -0.37306,0.53995 -0.68721,0.7363c-0.30761,0.19635 -0.65449,0.29452 -1.04064,0.29452c-0.35997,0 -0.69376,-0.08836 -1.00137,-0.26507c-0.30761,-0.17671 -0.53668,-0.40251 -0.68721,-0.6774c-0.14399,-0.28143 -0.36324,-0.84756 -0.65776,-1.6984l-2.72922,-8.02077c-0.25525,-0.71339 -0.38288,-1.23371 -0.38288,-1.56096c0,-0.35997 0.14072,-0.68067 0.42215,-0.9621c0.28798,-0.28798 0.6414,-0.43196 1.06027,-0.43196c0.51705,0 0.87702,0.15053 1.07991,0.4516c0.20289,0.29452 0.41887,0.83775 0.64794,1.62968zM364.34103,187.417c-1.59695,1.25662 -3.16118,1.88493 -4.69269,1.88493c-1.44642,0 -2.55905,-0.36651 -3.33789,-1.09954c-0.7723,-0.73957 -1.15845,-1.63949 -1.15845,-2.69977c0,-0.90974 0.26179,-1.64277 0.78539,-2.19909c0.53014,-0.56286 1.10609,-0.95555 1.72785,-1.17808c0.62177,-0.22253 1.63295,-0.47778 3.03356,-0.76575c1.40715,-0.29452 2.53942,-0.56286 3.3968,-0.80502c-0.00654,-1.01446 -0.20616,-1.6984 -0.59886,-2.05182c-0.39269,-0.35997 -0.99155,-0.53995 -1.79657,-0.53995c-1.51841,0 -2.51324,0.42542 -2.98447,1.27625c-0.26179,0.48432 -0.49414,0.82793 -0.69703,1.03082c-0.20289,0.20289 -0.49741,0.30434 -0.88356,0.30434c-0.35342,0 -0.67412,-0.11453 -0.9621,-0.34361c-0.28143,-0.23562 -0.42215,-0.53668 -0.42215,-0.90319c0,-0.87047 0.46796,-1.69513 1.40388,-2.47397c0.94246,-0.77884 2.42488,-1.16826 4.44725,-1.16826c2.04855,0 3.54733,0.35342 4.49634,1.06027c0.94901,0.70685 1.39406,2.13691 1.33516,4.29018l-0.07854,3.14156c-0.03273,0.96864 0.06872,1.76058 0.30434,2.37579c0.23562,0.61522 0.35342,1.08645 0.35342,1.4137c0,0.35342 -0.15708,0.66431 -0.47123,0.93265c-0.30761,0.26834 -0.65776,0.40251 -1.05045,0.40251c-0.68067,0 -1.39733,-0.62831 -2.15,-1.88493zM364.11523,182.56723c-0.49741,0.19635 -1.32207,0.40905 -2.47397,0.63813c-1.14535,0.22907 -1.95692,0.49087 -2.4347,0.7854c-0.47778,0.29452 -0.71667,0.72321 -0.71667,1.28607c0,0.48432 0.1898,0.90974 0.56941,1.27625c0.3796,0.36651 0.91629,0.54977 1.61004,0.54977c0.73957,0 1.42351,-0.19962 2.05182,-0.59886c0.63485,-0.40578 1.02428,-0.88683 1.16826,-1.44315c0.15053,-0.55631 0.2258,-1.38752 0.2258,-2.49361zM372.50169,170.84533c0.43196,0 0.80829,0.16362 1.12899,0.49087c0.3207,0.32725 0.48105,0.70685 0.48105,1.13881c0,0.4516 -0.16035,0.84102 -0.48105,1.16826c-0.3207,0.3207 -0.69703,0.48105 -1.12899,0.48105c-0.4516,0 -0.84102,-0.16035 -1.16826,-0.48105c-0.3207,-0.32725 -0.48105,-0.71667 -0.48105,-1.16826c0,-0.43851 0.16035,-0.81811 0.48105,-1.13881c0.32725,-0.32725 0.71667,-0.49087 1.16826,-0.49087zM374.16082,178.4145v8.11894c0,0.79848 -0.03927,1.34497 -0.11781,1.63949c-0.07199,0.29452 -0.25852,0.55631 -0.55959,0.78539c-0.30106,0.22907 -0.62831,0.34361 -0.98173,0.34361c-0.35997,0 -0.69703,-0.11126 -1.01119,-0.33379c-0.30761,-0.22907 -0.50068,-0.49414 -0.57922,-0.7952c-0.07199,-0.30106 -0.10799,-0.84756 -0.10799,-1.63949v-8.08949c0,-0.74612 0.02945,-1.27298 0.08836,-1.58059c0.0589,-0.30761 0.23562,-0.57922 0.53014,-0.81484c0.30106,-0.24216 0.64794,-0.36324 1.04064,-0.36324c0.39924,0 0.74284,0.10799 1.03082,0.32397c0.28798,0.21598 0.47123,0.49087 0.54977,0.82466c0.07854,0.32725 0.11781,0.85411 0.11781,1.58059zM378.17366,175.9798v-2.01255c0,-0.8312 0.03273,-1.39406 0.09817,-1.68858c0.07199,-0.30106 0.25198,-0.56613 0.53995,-0.7952c0.29452,-0.23562 0.63813,-0.35342 1.03082,-0.35342c0.35997,0 0.68394,0.10799 0.97192,0.32397c0.28798,0.20944 0.47778,0.46469 0.56941,0.76575c0.09163,0.30106 0.13744,0.79193 0.13744,1.4726v2.28744h0.64794c0.81811,0 1.36134,0.10145 1.62968,0.30434c0.27489,0.19635 0.41233,0.48759 0.41233,0.87374c0,0.82466 -0.68721,1.23698 -2.06164,1.23698h-0.62831v6.18493c0,0.8312 0.0589,1.40061 0.17671,1.70822c0.11781,0.30106 0.43524,0.4516 0.95228,0.4516c0.24216,0 0.51705,-0.03273 0.82466,-0.09817c0.30761,-0.07199 0.53668,-0.10799 0.68721,-0.10799c0.33379,0 0.6054,0.11126 0.81484,0.33379c0.20944,0.21598 0.31415,0.48105 0.31415,0.7952c0,1.093 -1.15845,1.63949 -3.47534,1.63949c-1.11918,0 -1.94383,-0.20616 -2.47397,-0.61849c-0.53014,-0.41887 -0.85738,-0.9261 -0.98173,-1.52169c-0.12435,-0.60213 -0.18653,-1.38097 -0.18653,-2.33653v-6.43036h-0.44178c-0.99482,0 -1.49223,-0.40578 -1.49223,-1.21735c0,-0.79848 0.52032,-1.19771 1.56096,-1.19771zM396.20074,185.61061c0.49741,0 0.9261,0.17999 1.28607,0.53995c0.35997,0.35997 0.53995,0.78866 0.53995,1.28607c0,0.5105 -0.17999,0.94901 -0.53995,1.31552c-0.35997,0.36651 -0.78866,0.54977 -1.28607,0.54977c-0.51705,0 -0.95883,-0.17999 -1.32534,-0.53995c-0.35997,-0.36651 -0.53995,-0.80829 -0.53995,-1.32534c0,-0.49741 0.17999,-0.9261 0.53995,-1.28607c0.36651,-0.35997 0.80829,-0.53995 1.32534,-0.53995zM404.06688,185.61061c0.49741,0 0.9261,0.17999 1.28607,0.53995c0.35997,0.35997 0.53995,0.78866 0.53995,1.28607c0,0.5105 -0.17999,0.94901 -0.53995,1.31552c-0.35997,0.36651 -0.78866,0.54977 -1.28607,0.54977c-0.51705,0 -0.95883,-0.17999 -1.32534,-0.53995c-0.35997,-0.36651 -0.53995,-0.80829 -0.53995,-1.32534c0,-0.49741 0.17999,-0.9261 0.53995,-1.28607c0.36651,-0.35997 0.80829,-0.53995 1.32534,-0.53995zM411.93302,185.61061c0.49741,0 0.9261,0.17999 1.28607,0.53995c0.35997,0.35997 0.53995,0.78866 0.53995,1.28607c0,0.5105 -0.17999,0.94901 -0.53995,1.31552c-0.35997,0.36651 -0.78866,0.54977 -1.28607,0.54977c-0.51705,0 -0.95883,-0.17999 -1.32534,-0.53995c-0.35997,-0.36651 -0.53995,-0.80829 -0.53995,-1.32534c0,-0.49741 0.17999,-0.9261 0.53995,-1.28607c0.36651,-0.35997 0.80829,-0.53995 1.32534,-0.53995z" fill="#ffffff" stroke-width="1" stroke-linecap="square"/><path d="M198.61862,248.16816v-133.63363h309.30931v133.63363z" fill="none" stroke-width="0" stroke-linecap="butt"/><text transform="translate(467.38734,23.49347) scale(0.5,0.5)" font-size="40" xml:space="preserve" fill="#ffffff" fill-rule="nonzero" stroke="none" stroke-width="1" stroke-linecap="butt" stroke-linejoin="miter" stroke-miterlimit="10" stroke-dasharray="" stroke-dashoffset="0" font-family="Sans Serif" font-weight="normal" text-anchor="start" style="mix-blend-mode: normal"><tspan x="0" dy="0">Don't forget to like!</tspan></text></g></g></svg>