<svg version="1.1" xmlns="http://www.w3.org/2000/svg" xmlns:xlink="http://www.w3.org/1999/xlink" width="304.3003" height="304.30025" viewBox="0,0,304.3003,304.30025"><g transform="translate(-92.84986,-32.84989)"><g data-paper-data="{&quot;isPaintingLayer&quot;:true}" fill-rule="nonzero" stroke-linejoin="miter" stroke-miterlimit="10" stroke-dasharray="" stroke-dashoffset="0" style="mix-blend-mode: normal"><path d="M94.84987,275.23519c0,-59.99896 0,-148.11906 0,-181.81815c0,-26.16557 22.73163,-58.56714 54.69562,-58.56714c60.91162,0 155.35022,0 189.899,0c25.1397,0 55.70568,31.10369 55.70568,56.54696c0,34.37139 0,127.20919 0,187.87876c0,32.57375 -30.56593,55.87453 -55.70568,55.87453c-33.79375,0 -124.88841,0 -185.85858,0c-34.07175,0 -58.73599,-25.26921 -58.73599,-59.91496z" fill="#83a08b" stroke="#83a08b" stroke-width="4" stroke-linecap="butt"/><g stroke-width="14"><path d="M122.23163,106.59615c0,0 27.31517,10.35596 45.98825,21.97128c9.27005,5.7663 18.08268,11.07944 24.41188,14.96843c9.20743,5.65752 15.27982,9.3614 19.12082,11.69278c4.26455,2.58846 4.71236,4.2543 3.05896,5.5725c-5.57355,4.44361 -12.10493,5.60463 -16.15827,25.84561c-2.90154,14.48928 -0.49802,25.56967 2.91257,33.28548c1.82928,4.13838 4.3106,7.79199 6.44442,10.51913c0.39783,0.50845 -10.19025,-9.00357 -30.83758,-6.26966c-12.32892,1.63247 -15.89024,6.54354 -20.72979,6.47731c-2.02683,-0.02774 -2.9758,-3.34012 -3.42039,-8.18891c-0.66291,-7.22983 -2.84668,-17.9157 -9.61287,-26.29019c-6.05765,-7.689 -13.59127,-13.30412 -18.69677,-16.58964c-3.47072,-2.2335 -3.98477,-4.45329 -1.55198,-6.63604c5.02768,-4.51095 12.61034,-13.80495 11.83509,-28.38531c1.13816,-15.87126 -12.76434,-37.41225 -12.76434,-37.41225" fill="#5f5c53" stroke="none" stroke-linecap="round"/><path d="M157.26324,220.93936c0,0 2.61106,-11.4465 -7.35036,-27.01767c-7.73736,-12.09463 -23.18136,-17.98764 -22.29129,-18.88083c3.51626,-3.5286 9.35858,-9.77812 10.59924,-14.99199c6.56206,-27.57693 1.10622,-35.51652 1.10622,-35.51652" fill="none" stroke="#76695d" stroke-linecap="round"/><path d="M135.40352,127.33488l-1.68152,-21.85973l76.2288,44.27997l-11.21012,19.0572c0,0 -7.45104,-4.15573 -15.87836,-9.0549c-6.70144,-3.89584 -14.02023,-8.2618 -18.70055,-11.382c-10.15655,-6.77103 -28.75826,-21.04053 -28.75826,-21.04053z" fill="#342d2a" stroke="none" stroke-linecap="butt"/><path d="M122.23166,106.59617c0,0 27.31518,10.35595 45.98825,21.97127c9.27005,5.76631 18.08267,11.07944 24.41187,14.96843c9.20743,5.6575 15.27982,9.36139 19.12082,11.69277c4.26455,2.58847 4.71236,4.25431 3.05896,5.5725c-5.57355,4.4436 -12.10494,5.60463 -16.15828,25.84561c-2.90155,14.48928 -0.49802,25.56967 2.91257,33.28548c1.82928,4.13837 4.3106,7.79199 6.44442,10.51913c0.39784,0.50845 -10.19024,-9.00356 -30.83758,-6.26966c-12.32892,1.63246 -15.89024,6.54354 -20.7298,6.47731c-2.02683,-0.02773 -2.97579,-3.34012 -3.42039,-8.18891c-0.66292,-7.22983 -2.84669,-17.91571 -9.61288,-26.29019c-6.05766,-7.689 -13.59128,-13.30412 -18.69677,-16.58964c-3.47073,-2.23349 -3.98477,-4.45328 -1.55198,-6.63603c5.02769,-4.51095 12.61034,-13.80495 11.83509,-28.38531c1.13815,-15.87125 -12.76435,-37.41225 -12.76435,-37.41225" fill="none" stroke="#000000" stroke-linecap="round"/><path d="M126.43542,173.85688c0,0 20.35636,-7.59667 29.53981,-9.38962c24.69305,-4.82101 47.81001,-1.8205 47.81001,-1.8205" fill="none" stroke="#000000" stroke-linecap="round"/><path d="M158.38426,228.78646c0,0 8.6231,-16.41097 14.42024,-25.33412c11.4421,-17.61207 30.98074,-34.64002 30.98074,-34.64002" fill="none" stroke="#000000" stroke-linecap="round"/></g><g data-paper-data="{&quot;index&quot;:null}" stroke-width="14"><path d="M357.76837,101.15066c0,0 -13.9025,21.54099 -12.76434,37.41225c-0.77524,14.58035 6.80741,23.87436 11.8351,28.38532c2.43279,2.18275 1.91874,4.40254 -1.55199,6.63604c-5.1055,3.28552 -12.63912,8.90063 -18.69677,16.58964c-6.76619,8.37449 -8.94996,19.06037 -9.61287,26.2902c-0.44459,4.84879 -1.39356,8.16117 -3.42039,8.18891c-4.83955,0.06623 -8.40088,-4.84483 -20.72979,-6.4773c-20.64733,-2.7339 -31.23541,6.77811 -30.83758,6.26966c2.13382,-2.72714 4.61514,-6.38075 6.44442,-10.51913c3.41059,-7.7158 5.81411,-18.7962 2.91258,-33.28548c-4.05334,-20.24099 -10.58472,-21.40201 -16.15827,-25.84561c-1.65339,-1.3182 -1.20559,-2.98404 3.05896,-5.5725c3.841,-2.33138 9.91339,-6.03527 19.12082,-11.69278c6.3292,-3.88899 15.14182,-9.20212 24.41188,-14.96842c18.67308,-11.61532 45.98825,-21.97128 45.98825,-21.97128" fill="#5f5c53" stroke="none" stroke-linecap="round"/><path d="M340.67294,118.52634c0,0 -5.45584,7.93959 1.10622,35.51653c1.24066,5.21386 7.08298,11.46339 10.59924,14.99199c0.89006,0.89319 -14.55393,6.7862 -22.29129,18.88083c-9.96142,15.57118 -7.35036,27.01767 -7.35036,27.01767" fill="none" stroke="#76695d" stroke-linecap="round"/><path d="M315.83821,142.36941c-4.68032,3.12021 -11.9991,7.48616 -18.70054,11.382c-8.42732,4.89917 -15.87836,9.0549 -15.87836,9.0549l-11.21012,-19.0572l76.22881,-44.27996l-1.68152,21.85973c0,0 -18.60172,14.2695 -28.75826,21.04053z" fill="#342d2a" stroke="none" stroke-linecap="butt"/><path d="M357.76837,101.15066c0,0 -13.90249,21.54099 -12.76434,37.41225c-0.77524,14.58036 6.8074,23.87436 11.8351,28.38531c2.43279,2.18276 1.91875,4.40254 -1.55199,6.63603c-5.10549,3.28552 -12.63912,8.90065 -18.69678,16.58965c-6.76619,8.37449 -8.94996,19.06036 -9.61288,26.29019c-0.44459,4.84879 -1.39355,8.16118 -3.42039,8.18892c-4.83956,0.06623 -8.40087,-4.84484 -20.72979,-6.4773c-20.64733,-2.7339 -31.23541,6.77811 -30.83758,6.26966c2.13381,-2.72714 4.61514,-6.38075 6.44442,-10.51912c3.41059,-7.7158 5.81411,-18.79619 2.91256,-33.28547c-4.05333,-20.24098 -10.58472,-21.40201 -16.15828,-25.84561c-1.65341,-1.3182 -1.20559,-2.98403 3.05896,-5.5725c3.841,-2.33138 9.91339,-6.03527 19.12082,-11.69277c6.3292,-3.88899 15.14182,-9.20212 24.41187,-14.96843c18.67307,-11.61532 45.98826,-21.97127 45.98826,-21.97127" fill="none" stroke="#000000" stroke-linecap="round"/><path d="M276.21476,156.64075c0,0 23.11695,-3.00051 47.81001,1.8205c9.18344,1.79295 29.53981,9.38961 29.53981,9.38961" fill="none" stroke="#000000" stroke-linecap="round"/><path d="M276.21476,162.80632c0,0 19.53864,17.02794 30.98074,34.64002c5.79714,8.92314 14.42024,25.33412 14.42024,25.33412" fill="none" stroke="#000000" stroke-linecap="round"/></g><path d="M159.13057,260.53085c11.57355,-13.24089 39.5754,-38.2727 87.06398,-40.17566c25.14512,-0.03716 58.03148,7.67525 72.3937,31.04706" fill="none" stroke="#000000" stroke-width="20" stroke-linecap="round"/></g></g></svg>