<svg version="1.1" xmlns="http://www.w3.org/2000/svg" xmlns:xlink="http://www.w3.org/1999/xlink" width="453.44745" height="73.57358" viewBox="0,0,453.44745,73.57358"><defs><radialGradient cx="92.48953" cy="95.16852" r="0.00125" gradientUnits="userSpaceOnUse" id="color-1"><stop offset="0" stop-color="#f90301"/><stop offset="1" stop-color="#f90301" stop-opacity="0"/></radialGradient></defs><g transform="translate(-16.27631,-139.21321)"><g data-paper-data="{&quot;isPaintingLayer&quot;:true}" fill-rule="nonzero" stroke-linejoin="miter" stroke-miterlimit="10" stroke-dasharray="" stroke-dashoffset="0" style="mix-blend-mode: normal"><path d="M22.27632,212.78679v-73.57358h447.44745v73.57358z" fill="none" stroke="none" stroke-width="0" stroke-linecap="butt"/><path d="M140.33783,186.94467c0,-9.04475 0,-30.17005 0,-34.32011c0,-1.35436 0.18104,-3.33395 3.03392,-3.33395c0.63602,0 260.20749,0 297.77829,0c3.50188,0 3.61571,1.94421 3.61571,3.9223c0,4.6667 0,24.07572 0,33.14343c0,2.87213 0.04748,4.70676 -3.95526,4.70676c-41.04559,0 -276.94963,0 -297.43874,0c-2.8529,0 -3.03392,-1.5855 -3.03392,-4.11842z" fill="#000000" stroke="#dcdcdc" stroke-width="5.5" stroke-linecap="butt"/><path d="M39.23424,186.94467c0,-9.04475 0,-30.17005 0,-34.32011c0,-1.35436 0.18104,-3.33395 3.03392,-3.33395c0.63602,0 260.20749,0 297.77829,0c3.50188,0 3.61571,1.94421 3.61571,3.9223c0,4.6667 0,24.07572 0,33.14343c0,2.87213 0.04748,4.70676 -3.95526,4.70676c-41.04559,0 -276.94963,0 -297.43874,0c-2.8529,0 -3.03392,-1.5855 -3.03392,-4.11842z" fill="#000000" stroke="#dcdcdc" stroke-width="5.5" stroke-linecap="butt"/><path d="M39.23424,186.94469c0,-9.04475 0,-30.17005 0,-34.32011c0,-1.35436 0.18104,-3.33395 3.03392,-3.33395c0.63602,0 260.20749,0 297.77829,0c3.50188,0 3.61571,1.9442 3.61571,3.92229c0,4.6667 0,24.07572 0,33.14343c0,2.87213 0.04748,4.70676 -3.95526,4.70676c-41.04559,0 -276.94963,0 -297.43874,0c-2.8529,0 -3.03392,-1.58551 -3.03392,-4.11843z" fill="#000000" stroke="none" stroke-width="0" stroke-linecap="butt"/><path d="M140.33783,186.94469c0,-9.04475 0,-30.17005 0,-34.32011c0,-1.35436 0.18104,-3.33395 3.03392,-3.33395c0.63602,0 260.20749,0 297.77829,0c3.50188,0 3.61571,1.9442 3.61571,3.92229c0,4.6667 0,24.07572 0,33.14343c0,2.87213 0.04748,4.70676 -3.95526,4.70676c-41.04559,0 -276.94963,0 -297.43874,0c-2.8529,0 -3.03392,-1.58551 -3.03392,-4.11843z" fill="#000000" stroke="none" stroke-width="0" stroke-linecap="butt"/><path d="M16.27632,212.78679v-73.57358h447.44745v73.57358z" fill="none" stroke="none" stroke-width="0" stroke-linecap="butt"/><path d="M16.27633,212.78679v-73.57358h447.44745v73.57358z" fill="none" stroke="none" stroke-width="0" stroke-linecap="butt"/><g stroke="#c2c2c2"><path d="M306.24118,187.61329c0,0 -5.68403,-9.70758 -2.94385,-15.65576c1.29948,-2.82082 0.57363,-4.63599 6.82764,-4.78428c13.29827,-0.20152 10.38456,24.99261 10.38456,24.99261l-10.52713,-0.18791z" data-paper-data="{&quot;index&quot;:null}" fill="none" stroke-width="2" stroke-linecap="butt"/><path d="M319.41141,176.81257c0,0 -3.63917,1.275 -5.16569,-1.59646c-1.79833,-3.38276 1.54661,-5.18082 1.54661,-5.18082" fill="none" stroke-width="1.5" stroke-linecap="round"/><path d="M270.47299,171.54406c0.19694,-0.99446 1.35099,-2.97455 1.35099,-2.97455c0,0 9.31599,-1.52855 9.08067,2.81446c-0.30477,5.625 -11.02777,3.17016 -11.02777,3.17016c0,0 0.39801,-2.00969 0.59611,-3.01007z" fill="#000000" stroke-width="1.5" stroke-linecap="butt"/><path d="M268.76958,191.86492c0,0 -2.56793,-27.64162 8.81105,-27.61543c4.9158,0.06683 7.61182,2.42083 9.08059,5.6091c3.09715,6.72305 1.26609,22.00634 1.26609,22.00634z" fill="none" stroke-width="2" stroke-linecap="butt"/><path d="M283.58842,191.86671c0,0 -0.30701,-32.22187 12.28874,-32.49034c13.99569,-0.2983 13.96834,32.60923 13.96834,32.60923z" fill="#000000" stroke-width="2" stroke-linecap="butt"/><path d="M289.76948,169.39785c-0.03807,-2.0164 0.4769,-6.74969 6.15631,-6.71775c6.08471,0.03421 6.82741,4.83517 6.87719,6.79281c0.01276,0.50179 -0.36221,0.81678 -0.75635,0.81678c-1.28158,0 -8.30255,0 -11.08233,0c-0.70223,0 -1.18454,-0.34659 -1.19484,-0.89182z" fill="#000000" stroke-width="1.5" stroke-linecap="butt"/></g><g stroke-linecap="butt"><path d="M173.82553,200.70941z" fill="url(#color-1)" stroke="none" stroke-width="0"/><path d="M218.68978,192.14079v-25c0,0 6.80734,-1.19057 9.71672,0.96129c6.23021,4.60804 9.6166,24.03871 9.6166,24.03871z" fill="none" stroke="#c2c2c2" stroke-width="2"/><path d="M198.0231,192.14079c0,0 -0.43404,-5.58236 -0.54885,-12.00441c-0.18081,-10.11414 1.74196,-16.35681 12.21552,-18.66226c13.87688,-2.98121 22,30.66667 22,30.66667z" fill="#000000" stroke="#c2c2c2" stroke-width="2"/><path d="M208.22864,170.07253c2.84119,-1.24175 5.15234,-3.12837 6.9818,-1.83084c1.19565,0.84801 2.20619,2.11224 2.74052,3.60934c0.36404,1.01997 0.50703,2.14803 0.33693,3.32621c-0.07188,0.49781 -7.08133,8.89046 -15.07417,6.15013c-3.64529,-1.24978 -3.2693,-9.23559 -2.68918,-9.56709c0,0 4.91931,-0.47065 7.70411,-1.68775z" fill="none" stroke="#c2c2c2" stroke-width="1.5"/><g fill="#f90301" stroke="none" stroke-width="0"><path d="M215.14827,171.15897c1.24237,3.76332 1.41748,7.08878 0.39112,7.4276c-1.02636,0.33883 -2.86553,-2.43728 -4.1079,-6.2006c-1.24237,-3.76332 -1.41747,-7.08878 -0.39112,-7.4276c1.02636,-0.33883 2.86552,2.43728 4.10789,6.2006z"/><path d="M212.66166,169.91901c3.75334,-1.2722 7.0773,-1.47371 7.42427,-0.45007c0.34697,1.02364 -2.41446,2.88479 -6.1678,4.157c-3.75334,1.2722 -7.0773,1.47371 -7.42426,0.45007c-0.34697,-1.02364 2.41445,-2.88479 6.1678,-4.157z"/></g></g><path d="M166.70291,193.47412v-2.33333h155.16667v2.33333z" fill="#dcdcdc" stroke="none" stroke-width="0" stroke-linecap="butt"/><path d="M16.27633,212.78679v-73.57358h447.44745v73.57358z" fill="none" stroke="none" stroke-width="0" stroke-linecap="butt"/></g></g></svg>