<svg version="1.1" xmlns="http://www.w3.org/2000/svg" xmlns:xlink="http://www.w3.org/1999/xlink" width="287.64027" height="21.74367" viewBox="0,0,287.64027,21.74367"><g transform="translate(-96.17987,-169.18408)"><g data-paper-data="{&quot;isPaintingLayer&quot;:true}" fill-rule="nonzero" stroke-linejoin="miter" stroke-miterlimit="10" stroke-dasharray="" stroke-dashoffset="0" style="mix-blend-mode: normal"><path d="M96.17988,170.30625h10.60009v2.05441h-4.28147v13.92341h-2.14937v-13.92341h-4.16925zM109.67478,186.28407v-17.09999h2.01125v10.07354l-0.04316,-0.37981c0.31075,-0.60423 0.78552,-1.10489 1.42428,-1.50196c0.64453,-0.39707 1.40126,-0.59561 2.27022,-0.59561c0.86895,0 1.57966,0.25608 2.13211,0.76825c0.55245,0.50642 0.83442,1.16532 0.84593,1.97673v6.75886h-2.07168v-6.03376c-0.01726,-0.50065 -0.164,-0.90924 -0.44022,-1.22575c-0.27047,-0.31651 -0.69055,-0.47475 -1.26027,-0.47475c-0.53518,0 -1.0157,0.15249 -1.44154,0.45749c-0.42584,0.29925 -0.7625,0.70782 -1.00995,1.22574c-0.24169,0.51217 -0.36254,1.09914 -0.36254,1.76093v4.29011zM126.14185,186.50849c-1.04735,0 -1.94795,-0.21004 -2.70181,-0.63013c-0.74811,-0.4201 -1.32645,-0.99555 -1.73503,-1.7264c-0.40283,-0.73084 -0.60424,-1.56814 -0.60424,-2.51191c0,-0.89773 0.22731,-1.71489 0.68193,-2.45148c0.46037,-0.73659 1.07324,-1.32358 1.83862,-1.76093c0.76538,-0.44311 1.61995,-0.66466 2.56371,-0.66466c1.20848,0 2.20979,0.35392 3.00393,1.06174c0.79414,0.70207 1.3322,1.67173 1.61418,2.90898l-7.53573,2.65866l-0.48338,-1.21711l6.18914,-2.25294l-0.44886,0.28486c-0.17264,-0.48339 -0.46613,-0.90636 -0.88046,-1.2689c-0.41433,-0.36254 -0.9524,-0.5438 -1.61418,-0.5438c-0.55821,0 -1.05885,0.1381 -1.50196,0.41433c-0.44311,0.27047 -0.79127,0.64165 -1.04448,1.11354c-0.24745,0.47188 -0.37117,1.00995 -0.37117,1.61418c0,0.63301 0.13236,1.18834 0.39707,1.66598c0.26471,0.47763 0.63013,0.85457 1.09627,1.1308c0.46613,0.27047 0.99268,0.4057 1.57966,0.4057c0.39707,0 0.78263,-0.07193 1.15669,-0.21579c0.37981,-0.14962 0.73084,-0.3424 1.0531,-0.57834l0.94952,1.51923c-0.45462,0.31075 -0.96678,0.56395 -1.5365,0.75961c-0.56396,0.18991 -1.11928,0.28486 -1.66597,0.28486zM135.22443,177.13415l0.19854,2.65003l-0.11222,-0.35391c0.23594,-0.5582 0.57835,-1.03297 1.02721,-1.42428c0.44886,-0.39131 0.92075,-0.69344 1.41565,-0.90635c0.4949,-0.21292 0.9265,-0.31938 1.2948,-0.31938l-0.11222,2.03715c-0.69056,-0.04603 -1.29768,0.08632 -1.82135,0.39707c-0.52367,0.31075 -0.938,0.72509 -1.243,1.24301c-0.29925,0.51217 -0.44887,1.06175 -0.44887,1.64872v4.17789h-2.03715v-9.14992zM145.54379,186.50849c-1.04735,0 -1.94795,-0.21004 -2.70181,-0.63013c-0.74811,-0.4201 -1.32645,-0.99555 -1.73503,-1.7264c-0.40283,-0.73084 -0.60423,-1.56814 -0.60423,-2.51191c0,-0.89773 0.22729,-1.71489 0.68192,-2.45148c0.46037,-0.73659 1.07325,-1.32358 1.83863,-1.76093c0.76538,-0.44311 1.61993,-0.66466 2.5637,-0.66466c1.20848,0 2.20979,0.35392 3.00393,1.06174c0.79414,0.70207 1.33221,1.67173 1.61419,2.90898l-7.53573,2.65866l-0.48339,-1.21711l6.18914,-2.25294l-0.44887,0.28486c-0.17264,-0.48339 -0.46613,-0.90636 -0.88046,-1.2689c-0.41433,-0.36254 -0.9524,-0.5438 -1.61418,-0.5438c-0.5582,0 -1.05886,0.1381 -1.50196,0.41433c-0.44311,0.27047 -0.79127,0.64165 -1.04447,1.11354c-0.24745,0.47188 -0.37117,1.00995 -0.37117,1.61418c0,0.63301 0.13235,1.18834 0.39707,1.66598c0.26471,0.47763 0.63014,0.85457 1.09627,1.1308c0.46613,0.27047 0.99268,0.4057 1.57966,0.4057c0.39707,0 0.78262,-0.07193 1.15668,-0.21579c0.37981,-0.14962 0.73085,-0.3424 1.05311,-0.57834l0.94952,1.51923c-0.45462,0.31075 -0.96679,0.56395 -1.5365,0.75961c-0.56395,0.18991 -1.11928,0.28486 -1.66597,0.28486zM159.77069,177.13415h2.05442v9.14992h-2.05442zM159.68437,173.66409c0,-0.32226 0.12948,-0.59273 0.38844,-0.81141c0.25896,-0.22443 0.54094,-0.33664 0.84594,-0.33664c0.31075,0 0.58697,0.11221 0.82867,0.33665c0.24745,0.21868 0.37118,0.48915 0.37118,0.81141c0,0.33953 -0.12373,0.61575 -0.37117,0.82867c-0.24169,0.21292 -0.51792,0.31939 -0.82867,0.31939c-0.305,0 -0.58698,-0.10933 -0.84594,-0.32801c-0.25896,-0.21868 -0.38844,-0.49203 -0.38844,-0.82004zM167.94726,186.4567c-0.64453,0 -1.27465,-0.11221 -1.8904,-0.33665c-0.61,-0.23019 -1.11352,-0.57259 -1.51059,-1.02721l0.8632,-1.19121c0.37981,0.3683 0.77112,0.64453 1.17395,0.82868c0.40858,0.18415 0.81141,0.27622 1.20848,0.27622c0.29925,0 0.57259,-0.03741 0.82004,-0.11221c0.2532,-0.07481 0.45462,-0.19565 0.60424,-0.36254c0.15537,-0.17264 0.23307,-0.40571 0.23307,-0.6992c0,-0.32226 -0.10646,-0.57834 -0.31938,-0.76825c-0.21292,-0.19566 -0.48627,-0.35103 -0.82004,-0.46613c-0.32801,-0.12085 -0.67618,-0.23306 -1.04447,-0.33664c-0.75386,-0.24745 -1.32933,-0.59274 -1.7264,-1.03584c-0.39707,-0.44311 -0.5956,-0.98117 -0.5956,-1.61418c0,-0.48915 0.12085,-0.94376 0.36254,-1.36386c0.24745,-0.4201 0.61,-0.7625 1.08764,-1.02721c0.47763,-0.26471 1.07037,-0.39707 1.77819,-0.39707c0.63301,0 1.19986,0.0777 1.70051,0.23307c0.50065,0.15537 0.97254,0.41146 1.41564,0.76825l-0.82004,1.27754c-0.26471,-0.28198 -0.58121,-0.48915 -0.94951,-0.6215c-0.3683,-0.13235 -0.69918,-0.20429 -0.99267,-0.2158c-0.2532,-0.01726 -0.4949,0.02014 -0.72509,0.11221c-0.22443,0.08632 -0.41146,0.21006 -0.56108,0.37118c-0.14387,0.16113 -0.21579,0.35391 -0.21579,0.57835c0,0.305 0.10071,0.55532 0.30212,0.75098c0.20717,0.18991 0.47763,0.33952 0.8114,0.44886c0.33378,0.10934 0.66179,0.22444 0.98405,0.34529c0.45462,0.13235 0.85744,0.31074 1.20848,0.53518c0.35679,0.21868 0.64165,0.48915 0.85457,0.81141c0.21292,0.32226 0.31939,0.72797 0.31939,1.21712c0,0.54094 -0.12948,1.04447 -0.38844,1.5106c-0.2532,0.46613 -0.64164,0.83443 -1.16531,1.10489c-0.52367,0.27047 -1.19121,0.40571 -2.00262,0.40571zM180.74745,171.74779h3.79808v14.53628h-2.14074v-12.48186h-1.65734zM196.12275,170.30625h2.14937v15.97782h-2.14936zM204.19192,177.13415l0.17265,2.05442l-0.08633,-0.17265c0.33953,-0.69632 0.82292,-1.24301 1.45018,-1.64008c0.62726,-0.39707 1.34371,-0.5956 2.14937,-0.5956c0.51792,0 0.97542,0.08344 1.37249,0.25033c0.39707,0.16113 0.72508,0.39131 0.98404,0.69056c0.25896,0.29925 0.42584,0.67042 0.50065,1.11353l-0.11221,0.06905c0.35104,-0.66179 0.84018,-1.17971 1.46744,-1.55376c0.62726,-0.37981 1.28617,-0.56971 1.97673,-0.56971c0.89773,0 1.60843,0.25608 2.1321,0.76825c0.52367,0.50642 0.79415,1.16532 0.81141,1.97673v6.75886h-2.05442v-6.03376c-0.01726,-0.47188 -0.13236,-0.86608 -0.34528,-1.18258c-0.21292,-0.31651 -0.58409,-0.48915 -1.11352,-0.51792c-0.53519,0 -1.01282,0.16401 -1.43291,0.49202c-0.41433,0.32226 -0.73947,0.73659 -0.97541,1.24301c-0.23594,0.50642 -0.36255,1.05598 -0.37981,1.64872v4.35053h-2.05441v-6.03377c-0.01726,-0.47188 -0.141,-0.86607 -0.37118,-1.18257c-0.22443,-0.31651 -0.60136,-0.48915 -1.13079,-0.51792c-0.54669,0 -1.02721,0.16401 -1.44154,0.49202c-0.40858,0.32226 -0.72796,0.74236 -0.95815,1.26028c-0.23019,0.51217 -0.34528,1.06173 -0.34528,1.64871v4.33327h-2.05442v-9.14992zM225.97907,186.50849c-0.69056,0 -1.35809,-0.16113 -2.00262,-0.48339c-0.63877,-0.32801 -1.13367,-0.76537 -1.48471,-1.31206l0.12948,-0.63877v6.60348h-2.03715v-13.67308h1.76957l0.28486,2.33928l-0.2158,-0.63877c0.44311,-0.5582 1.00131,-1.02145 1.67461,-1.38974c0.67905,-0.3683 1.43867,-0.55245 2.27885,-0.55245c0.85745,0 1.62857,0.20717 2.31337,0.6215c0.68481,0.40858 1.22575,0.98118 1.62282,1.71778c0.39707,0.73659 0.59561,1.59979 0.59561,2.5896c0,0.98405 -0.2158,1.83862 -0.6474,2.56371c-0.42585,0.71933 -1.00994,1.27465 -1.75229,1.66597c-0.74235,0.39131 -1.5854,0.58697 -2.52917,0.58697zM225.58198,184.86842c0.58697,0 1.12792,-0.13523 1.62282,-0.4057c0.4949,-0.27623 0.88909,-0.65315 1.18258,-1.13079c0.29349,-0.47763 0.44024,-1.01858 0.44024,-1.62282c0,-0.61575 -0.14099,-1.16245 -0.42297,-1.64008c-0.27623,-0.48339 -0.64739,-0.8632 -1.11352,-1.13942c-0.46037,-0.28198 -0.97829,-0.42296 -1.55376,-0.42296c-0.52943,0 -1.00993,0.10358 -1.44153,0.31075c-0.42585,0.20717 -0.77976,0.49203 -1.06173,0.85457c-0.27623,0.35679 -0.47476,0.77113 -0.59561,1.24301v1.52787c0.07481,0.46613 0.2532,0.88334 0.53518,1.25164c0.28198,0.3683 0.63014,0.65604 1.04448,0.8632c0.4201,0.20717 0.8747,0.31075 1.36384,0.31075zM232.89396,181.62279c0,-0.91499 0.2158,-1.74079 0.6474,-2.47738c0.43735,-0.73659 1.03871,-1.31781 1.80409,-1.74366c0.76538,-0.42585 1.63432,-0.63877 2.60686,-0.63877c1.00707,0 1.88465,0.21292 2.63276,0.63877c0.75386,0.42585 1.33508,1.00707 1.74366,1.74366c0.41433,0.73659 0.6215,1.5624 0.6215,2.47738c0,0.91499 -0.20717,1.74367 -0.6215,2.48602c-0.40858,0.74235 -0.99268,1.32933 -1.7523,1.76093c-0.75961,0.42585 -1.64008,0.63876 -2.64139,0.63876c-0.97254,0 -1.83861,-0.20141 -2.59822,-0.60424c-0.75961,-0.40858 -1.3581,-0.97829 -1.79546,-1.70914c-0.4316,-0.73084 -0.6474,-1.58829 -0.6474,-2.57234zM234.94838,181.64005c0,0.59274 0.13235,1.12793 0.39707,1.60556c0.26471,0.47763 0.62151,0.85744 1.07037,1.13942c0.45462,0.27623 0.9524,0.41433 1.49334,0.41433c0.57547,0 1.08763,-0.1381 1.53649,-0.41433c0.44886,-0.28198 0.79703,-0.66179 1.04448,-1.13942c0.2532,-0.47763 0.37981,-1.01282 0.37981,-1.60556c0,-0.58697 -0.12661,-1.11928 -0.37981,-1.59691c-0.24745,-0.47763 -0.59561,-0.86032 -1.04447,-1.14805c-0.44886,-0.28773 -0.96102,-0.4316 -1.53649,-0.4316c-0.5582,0 -1.06174,0.14675 -1.5106,0.44024c-0.44886,0.29349 -0.80277,0.68193 -1.06173,1.16532c-0.25896,0.47763 -0.38844,1.00131 -0.38844,1.57102zM248.29515,186.4567c-0.64453,0 -1.27465,-0.11221 -1.8904,-0.33665c-0.61,-0.23019 -1.11352,-0.57259 -1.51059,-1.02721l0.86319,-1.19121c0.37981,0.3683 0.77112,0.64453 1.17395,0.82868c0.40858,0.18415 0.81141,0.27622 1.20848,0.27622c0.29925,0 0.57259,-0.03741 0.82004,-0.11221c0.2532,-0.07481 0.45462,-0.19565 0.60424,-0.36254c0.15537,-0.17264 0.23306,-0.40571 0.23306,-0.6992c0,-0.32226 -0.10646,-0.57834 -0.31938,-0.76825c-0.21292,-0.19566 -0.48627,-0.35103 -0.82003,-0.46613c-0.32801,-0.12085 -0.67619,-0.23306 -1.04448,-0.33664c-0.75386,-0.24745 -1.32932,-0.59274 -1.72639,-1.03584c-0.39707,-0.44311 -0.5956,-0.98117 -0.5956,-1.61418c0,-0.48915 0.12085,-0.94376 0.36254,-1.36386c0.24745,-0.4201 0.60999,-0.7625 1.08763,-1.02721c0.47763,-0.26471 1.07038,-0.39707 1.7782,-0.39707c0.63301,0 1.19985,0.0777 1.7005,0.23307c0.50065,0.15537 0.97255,0.41146 1.41565,0.76825l-0.82004,1.27754c-0.26471,-0.28198 -0.58122,-0.48915 -0.94952,-0.6215c-0.3683,-0.13235 -0.69918,-0.20429 -0.99267,-0.2158c-0.2532,-0.01726 -0.4949,0.02014 -0.72509,0.11221c-0.22443,0.08632 -0.41145,0.21006 -0.56107,0.37118c-0.14387,0.16113 -0.2158,0.35391 -0.2158,0.57835c0,0.305 0.10071,0.55532 0.30212,0.75098c0.20717,0.18991 0.47763,0.33952 0.81141,0.44886c0.33378,0.10934 0.66178,0.22444 0.98404,0.34529c0.45462,0.13235 0.85745,0.31074 1.20849,0.53518c0.35679,0.21868 0.64165,0.48915 0.85457,0.81141c0.21292,0.32226 0.31938,0.72797 0.31938,1.21712c0,0.54094 -0.12948,1.04447 -0.38844,1.5106c-0.2532,0.46613 -0.64164,0.83443 -1.16531,1.10489c-0.52367,0.27047 -1.19122,0.40571 -2.00263,0.40571zM255.61437,173.11164h2.05441v4.06567h2.52054v1.61419h-2.52054v7.49257h-2.05441v-7.49257h-1.68323v-1.61418h1.68324zM261.86427,181.62279c0,-0.91499 0.2158,-1.74079 0.6474,-2.47738c0.43735,-0.73659 1.03871,-1.31781 1.80409,-1.74366c0.76538,-0.42585 1.63432,-0.63877 2.60686,-0.63877c1.00707,0 1.88465,0.21292 2.63276,0.63877c0.75386,0.42585 1.33508,1.00707 1.74366,1.74366c0.41433,0.73659 0.62151,1.5624 0.62151,2.47738c0,0.91499 -0.20717,1.74367 -0.62151,2.48602c-0.40858,0.74235 -0.99268,1.32933 -1.75229,1.76093c-0.75961,0.42585 -1.64008,0.63876 -2.64139,0.63876c-0.97254,0 -1.83862,-0.20141 -2.59823,-0.60424c-0.75961,-0.40858 -1.3581,-0.97829 -1.79546,-1.70914c-0.4316,-0.73084 -0.6474,-1.58829 -0.6474,-2.57234zM263.91866,181.64005c0,0.59274 0.13235,1.12793 0.39707,1.60556c0.26471,0.47763 0.62151,0.85744 1.07037,1.13942c0.45462,0.27623 0.9524,0.41433 1.49335,0.41433c0.57547,0 1.08763,-0.1381 1.53649,-0.41433c0.44886,-0.28198 0.79702,-0.66179 1.04447,-1.13942c0.2532,-0.47763 0.3798,-1.01282 0.3798,-1.60556c0,-0.58697 -0.1266,-1.11928 -0.3798,-1.59691c-0.24745,-0.47763 -0.59561,-0.86032 -1.04447,-1.14805c-0.44886,-0.28773 -0.96103,-0.4316 -1.5365,-0.4316c-0.5582,0 -1.06173,0.14675 -1.51059,0.44024c-0.44886,0.29349 -0.80277,0.68193 -1.06173,1.16532c-0.25896,0.47763 -0.38843,1.00131 -0.38843,1.57102zM276.54038,177.13415l0.19854,2.65003l-0.11221,-0.35391c0.23594,-0.5582 0.57835,-1.03297 1.02721,-1.42428c0.44886,-0.39131 0.92075,-0.69344 1.41564,-0.90635c0.4949,-0.21292 0.9265,-0.31938 1.2948,-0.31938l-0.11222,2.03715c-0.69056,-0.04603 -1.29767,0.08632 -1.82134,0.39707c-0.52368,0.31075 -0.93801,0.72509 -1.24301,1.24301c-0.29925,0.51217 -0.44886,1.06175 -0.44886,1.64872v4.17789h-2.03715v-9.14992zM293.80019,186.50849c-0.85744,0 -1.6372,-0.18414 -2.33927,-0.55244c-0.69632,-0.3683 -1.24877,-0.90923 -1.65735,-1.62281c-0.40283,-0.71933 -0.60424,-1.59405 -0.60424,-2.62413c0,-1.01857 0.21292,-1.89903 0.63877,-2.64138c0.4316,-0.74235 1.00419,-1.31207 1.71777,-1.70914c0.71358,-0.39707 1.49621,-0.59561 2.3479,-0.59561c0.85744,0 1.57966,0.19566 2.16663,0.58697c0.59274,0.38557 1.04448,0.84305 1.35523,1.37249l-0.13812,0.35392l0.19853,-1.94219h1.89904v9.14991h-2.05442v-2.38243l0.22443,0.52655c-0.05755,0.14962 -0.18702,0.33953 -0.38843,0.56972c-0.19566,0.22443 -0.46037,0.45462 -0.79414,0.69056c-0.33378,0.23594 -0.71358,0.4316 -1.13942,0.58698c-0.42584,0.15537 -0.90348,0.23306 -1.43291,0.23306zM294.35265,184.79936c0.51216,0 0.97541,-0.09494 1.38975,-0.28485c0.41433,-0.18991 0.75674,-0.45749 1.02722,-0.80277c0.27047,-0.34528 0.45749,-0.76249 0.56108,-1.25163v-1.78682c-0.11509,-0.44311 -0.32226,-0.82868 -0.62151,-1.15669c-0.29349,-0.33378 -0.6474,-0.59274 -1.06173,-0.77688c-0.40858,-0.18415 -0.8632,-0.27622 -1.36386,-0.27622c-0.54669,0 -1.04734,0.13235 -1.50196,0.39707c-0.45463,0.26471 -0.82003,0.63302 -1.09626,1.1049c-0.27047,0.47188 -0.40571,1.02433 -0.40571,1.65734c0,0.58697 0.13811,1.12504 0.41434,1.61419c0.28198,0.48339 0.65891,0.86607 1.1308,1.14805c0.47188,0.27623 0.98117,0.41433 1.52786,0.41433zM304.78146,177.13415l0.17264,2.05442l-0.08632,-0.17265c0.33952,-0.69632 0.82292,-1.24301 1.45018,-1.64008c0.62726,-0.39707 1.34371,-0.5956 2.14937,-0.5956c0.51792,0 0.97542,0.08344 1.37249,0.25033c0.39707,0.16113 0.72509,0.39131 0.98405,0.69056c0.25896,0.29925 0.42584,0.67042 0.50065,1.11353l-0.11221,0.06905c0.35104,-0.66179 0.84017,-1.17971 1.46743,-1.55376c0.62726,-0.37981 1.28617,-0.56971 1.97673,-0.56971c0.89772,0 1.60843,0.25608 2.1321,0.76825c0.52368,0.50642 0.79415,1.16532 0.81141,1.97673v6.75886h-2.05441v-6.03376c-0.01726,-0.47188 -0.13236,-0.86608 -0.34528,-1.18258c-0.21292,-0.31651 -0.58409,-0.48915 -1.11352,-0.51792c-0.53519,0 -1.01281,0.16401 -1.43291,0.49202c-0.41433,0.32226 -0.73947,0.73659 -0.97541,1.24301c-0.23594,0.50642 -0.36255,1.05598 -0.37981,1.64872v4.35053h-2.05442v-6.03377c-0.01726,-0.47188 -0.14099,-0.86607 -0.37117,-1.18257c-0.22444,-0.31651 -0.60136,-0.48915 -1.13079,-0.51792c-0.54669,0 -1.0272,0.16401 -1.44154,0.49202c-0.40858,0.32226 -0.72797,0.74236 -0.95815,1.26028c-0.23019,0.51217 -0.34527,1.06173 -0.34527,1.64871v4.33327h-2.05442v-9.14992zM320.37944,181.62279c0,-0.91499 0.2158,-1.74079 0.6474,-2.47738c0.43736,-0.73659 1.03872,-1.31781 1.80409,-1.74366c0.76538,-0.42585 1.63432,-0.63877 2.60686,-0.63877c1.00707,0 1.88466,0.21292 2.63277,0.63877c0.75386,0.42585 1.33508,1.00707 1.74366,1.74366c0.41433,0.73659 0.62151,1.5624 0.62151,2.47738c0,0.91499 -0.20717,1.74367 -0.62151,2.48602c-0.40858,0.74235 -0.99268,1.32933 -1.7523,1.76093c-0.75961,0.42585 -1.64008,0.63876 -2.64139,0.63876c-0.97254,0 -1.83862,-0.20141 -2.59823,-0.60424c-0.75961,-0.40858 -1.3581,-0.97829 -1.79545,-1.70914c-0.4316,-0.73084 -0.64739,-1.58829 -0.64739,-2.57234zM322.43388,181.64005c0,0.59274 0.13235,1.12793 0.39707,1.60556c0.26472,0.47763 0.62151,0.85744 1.07037,1.13942c0.45463,0.27623 0.95239,0.41433 1.49334,0.41433c0.57547,0 1.08763,-0.1381 1.5365,-0.41433c0.44886,-0.28198 0.79702,-0.66179 1.04447,-1.13942c0.2532,-0.47763 0.37981,-1.01282 0.37981,-1.60556c0,-0.58697 -0.12661,-1.11928 -0.37981,-1.59691c-0.24745,-0.47763 -0.59561,-0.86032 -1.04447,-1.14805c-0.44886,-0.28773 -0.96102,-0.4316 -1.53649,-0.4316c-0.5582,0 -1.06174,0.14675 -1.5106,0.44024c-0.44886,0.29349 -0.80277,0.68193 -1.06173,1.16532c-0.25896,0.47763 -0.38843,1.00131 -0.38843,1.57102zM335.05555,177.13415l0.17264,2.23569l-0.08632,-0.35391c0.29349,-0.67905 0.77112,-1.21998 1.43291,-1.62281c0.66754,-0.40858 1.43579,-0.61287 2.30475,-0.61287c0.86896,0 1.57966,0.25608 2.1321,0.76825c0.55244,0.50642 0.83443,1.16532 0.84593,1.97673v6.75886h-2.07168v-6.03376c-0.01726,-0.50065 -0.164,-0.90924 -0.44023,-1.22575c-0.27047,-0.31651 -0.69056,-0.47475 -1.26027,-0.47475c-0.53519,0 -1.0157,0.14675 -1.44155,0.44024c-0.42584,0.29349 -0.76249,0.69919 -1.00994,1.21711c-0.24169,0.51792 -0.36254,1.11354 -0.36254,1.78683v4.2901h-2.05442v-9.14991zM349.8394,190.81587c-0.67905,0 -1.27754,-0.07769 -1.79546,-0.23306c-0.51216,-0.15537 -0.97828,-0.37405 -1.39838,-0.65604c-0.4201,-0.27623 -0.82292,-0.59273 -1.20848,-0.94952l1.19984,-1.38974c0.48339,0.45462 0.97542,0.80565 1.47608,1.0531c0.50065,0.2532 1.06173,0.37981 1.68324,0.37981c0.69056,0 1.27466,-0.11509 1.7523,-0.34528c0.47764,-0.22443 0.84018,-0.54094 1.08763,-0.94952c0.2532,-0.40283 0.37981,-0.86895 0.37981,-1.39838l0.02589,-2.47738l0.17264,0.39708c-0.26472,0.63877 -0.74235,1.17683 -1.43291,1.61419c-0.69056,0.4316 -1.53074,0.6474 -2.52054,0.6474c-0.84018,0 -1.6113,-0.21292 -2.31337,-0.63877c-0.69632,-0.4316 -1.25451,-1.00993 -1.67461,-1.73502c-0.4201,-0.73084 -0.63014,-1.55377 -0.63014,-2.46876c0,-0.95528 0.22156,-1.79833 0.66467,-2.52917c0.44311,-0.73084 1.02433,-1.30918 1.74366,-1.73503c0.72509,-0.42585 1.51348,-0.63877 2.36517,-0.63877c0.81141,0 1.55088,0.16688 2.21842,0.50066c0.67329,0.32801 1.16533,0.74811 1.47608,1.26027l-0.11221,0.37981l0.2158,-1.76956h1.88178v9.21898c0,0.82291 -0.21293,1.5739 -0.63877,2.25295c-0.42584,0.67905 -1.03008,1.21712 -1.81272,1.61419c-0.78264,0.39707 -1.71776,0.59561 -2.80539,0.59561zM346.69735,181.62279c0,0.58697 0.14099,1.12503 0.42297,1.61418c0.28198,0.48339 0.66179,0.86608 1.13943,1.14807c0.47764,0.27623 1.00995,0.41433 1.59692,0.41433c0.54669,0 1.03583,-0.09783 1.46743,-0.29349c0.43736,-0.20141 0.80278,-0.47475 1.09627,-0.82003c0.29925,-0.34528 0.50641,-0.74523 0.6215,-1.19985v-1.81271c-0.13236,-0.44311 -0.35391,-0.82868 -0.66466,-1.15669c-0.31075,-0.33378 -0.67906,-0.59274 -1.1049,-0.77688c-0.42584,-0.18415 -0.89772,-0.27622 -1.41564,-0.27622c-0.58697,0 -1.11928,0.13235 -1.59692,0.39707c-0.47764,0.26471 -0.85745,0.63589 -1.13943,1.11353c-0.28198,0.47763 -0.42296,1.02721 -0.42296,1.64872zM368.53492,186.63798c-0.82867,0 -1.51347,-0.2532 -2.05442,-0.75962c-0.53519,-0.51217 -0.81716,-1.17106 -0.84593,-1.97672v-6.76748h2.05442v6.03377c0.03453,0.50065 0.1784,0.90636 0.4316,1.21711c0.25896,0.31075 0.66753,0.47188 1.22574,0.48339c0.51792,0 0.97829,-0.14961 1.38112,-0.44886c0.40858,-0.305 0.73659,-0.71934 0.98404,-1.24301c0.2532,-0.52367 0.37981,-1.11641 0.37981,-1.7782v-4.2642h2.05438v9.14991h-1.88174l-0.17264,-2.25295l0.11222,0.39707c-0.1784,0.42585 -0.44886,0.80565 -0.8114,1.13942c-0.35679,0.32801 -0.77976,0.58697 -1.26891,0.77688c-0.48339,0.19566 -1.01281,0.29349 -1.58828,0.29349zM380.2637,186.4567c-0.64453,0 -1.27466,-0.11221 -1.89041,-0.33665c-0.61,-0.23019 -1.11352,-0.57259 -1.51059,-1.02721l0.8632,-1.19121c0.37981,0.3683 0.77112,0.64453 1.17395,0.82868c0.40858,0.18415 0.81141,0.27622 1.20848,0.27622c0.29925,0 0.57259,-0.03741 0.82004,-0.11221c0.2532,-0.07481 0.45462,-0.19565 0.60424,-0.36254c0.15537,-0.17264 0.23307,-0.40571 0.23307,-0.6992c0,-0.32226 -0.10646,-0.57834 -0.31937,-0.76825c-0.21292,-0.19566 -0.48627,-0.35103 -0.82004,-0.46613c-0.32801,-0.12085 -0.67618,-0.23306 -1.04447,-0.33664c-0.75386,-0.24745 -1.32933,-0.59274 -1.7264,-1.03584c-0.39707,-0.44311 -0.5956,-0.98117 -0.5956,-1.61418c0,-0.48915 0.12084,-0.94376 0.36254,-1.36386c0.24745,-0.4201 0.61,-0.7625 1.08764,-1.02721c0.47764,-0.26471 1.07037,-0.39707 1.77819,-0.39707c0.63301,0 1.19984,0.0777 1.7005,0.23307c0.50065,0.15537 0.97255,0.41146 1.41566,0.76825l-0.82004,1.27754c-0.26472,-0.28198 -0.58122,-0.48915 -0.94952,-0.6215c-0.3683,-0.13235 -0.69918,-0.20429 -0.99267,-0.2158c-0.2532,-0.01726 -0.49491,0.02014 -0.72509,0.11221c-0.22444,0.08632 -0.41145,0.21006 -0.56108,0.37118c-0.14387,0.16113 -0.2158,0.35391 -0.2158,0.57835c0,0.305 0.10071,0.55532 0.30213,0.75098c0.20716,0.18991 0.47763,0.33952 0.8114,0.44886c0.33378,0.10934 0.66179,0.22444 0.98404,0.34529c0.45463,0.13235 0.85744,0.31074 1.20848,0.53518c0.35679,0.21868 0.64165,0.48915 0.85457,0.81141c0.21292,0.32226 0.31939,0.72797 0.31939,1.21712c0,0.54094 -0.12948,1.04447 -0.38844,1.5106c-0.2532,0.46613 -0.64165,0.83443 -1.16532,1.10489c-0.52368,0.27047 -1.19121,0.40571 -2.00262,0.40571z" fill="#ffffff" stroke="none" stroke-width="1" stroke-linecap="square"/><g fill="#e82027" stroke="#e82027" stroke-width="0.5" stroke-linecap="butt"><path d="M225.97907,186.50849c-0.69056,0 -1.35809,-0.16113 -2.00262,-0.48339c-0.56384,-0.28953 -1.01558,-0.66426 -1.35523,-1.12418v5.77683h-2.03715v-13.67308h1.76957l0.18931,1.55465c0.42248,-0.49353 0.9406,-0.90816 1.55436,-1.24388c0.67905,-0.3683 1.43867,-0.55245 2.27885,-0.55245c0.85745,0 1.62857,0.20717 2.31337,0.6215c0.68481,0.40858 1.22575,0.98118 1.62282,1.71778c0.39707,0.73659 0.59561,1.59979 0.59561,2.5896c0,0.98405 -0.2158,1.83862 -0.6474,2.56371c-0.42585,0.71933 -1.00994,1.27465 -1.75229,1.66597c-0.74235,0.39131 -1.5854,0.58697 -2.52917,0.58697zM225.58199,184.86842c0.58697,0 1.12792,-0.13523 1.62282,-0.4057c0.4949,-0.27623 0.88909,-0.65315 1.18258,-1.13079c0.29349,-0.47763 0.44024,-1.01858 0.44024,-1.62282c0,-0.61575 -0.14099,-1.16245 -0.42297,-1.64008c-0.27623,-0.48339 -0.64739,-0.8632 -1.11352,-1.13942c-0.46037,-0.28198 -0.97829,-0.42296 -1.55376,-0.42296c-0.52943,0 -1.00993,0.10358 -1.44153,0.31075c-0.42585,0.20717 -0.77976,0.49203 -1.06173,0.85457c-0.27623,0.35679 -0.47476,0.77113 -0.59561,1.24301v1.52787c0.07481,0.46613 0.2532,0.88334 0.53518,1.25164c0.28198,0.3683 0.63014,0.65604 1.04448,0.8632c0.4201,0.20717 0.8747,0.31075 1.36384,0.31075z"/><path d="M261.86427,181.62278c0,-0.91499 0.2158,-1.74078 0.6474,-2.47737c0.43735,-0.73659 1.03871,-1.31781 1.80409,-1.74366c0.76538,-0.42585 1.63432,-0.63877 2.60686,-0.63877c1.00707,0 1.88465,0.21292 2.63276,0.63877c0.75386,0.42585 1.33508,1.00707 1.74366,1.74366c0.41433,0.73659 0.62151,1.5624 0.62151,2.47738c0,0.91499 -0.20717,1.74367 -0.62151,2.48602c-0.40858,0.74235 -0.99268,1.32933 -1.75229,1.76093c-0.75961,0.42585 -1.64008,0.63876 -2.64139,0.63876c-0.97254,0 -1.83862,-0.20141 -2.59823,-0.60424c-0.75961,-0.40858 -1.3581,-0.97829 -1.79546,-1.70914c-0.4316,-0.73084 -0.6474,-1.58828 -0.6474,-2.57233zM263.91866,181.64005c0,0.59274 0.13235,1.12793 0.39707,1.60556c0.26471,0.47763 0.62151,0.85744 1.07037,1.13942c0.45462,0.27623 0.9524,0.41433 1.49335,0.41433c0.57547,0 1.08763,-0.1381 1.53649,-0.41433c0.44886,-0.28198 0.79702,-0.66179 1.04447,-1.13942c0.2532,-0.47763 0.3798,-1.01282 0.3798,-1.60556c0,-0.58697 -0.1266,-1.11928 -0.3798,-1.59691c-0.24745,-0.47763 -0.59561,-0.86032 -1.04447,-1.14805c-0.44886,-0.28773 -0.96103,-0.4316 -1.5365,-0.4316c-0.5582,0 -1.06173,0.14675 -1.51059,0.44024c-0.44886,0.29349 -0.80277,0.68193 -1.06173,1.16532c-0.25896,0.47763 -0.38843,1.00131 -0.38843,1.57102z"/><path d="M232.89396,181.62278c0,-0.91499 0.2158,-1.74078 0.6474,-2.47737c0.43735,-0.73659 1.03871,-1.31781 1.80409,-1.74366c0.76538,-0.42585 1.63432,-0.63877 2.60686,-0.63877c1.00707,0 1.88465,0.21292 2.63276,0.63877c0.75386,0.42585 1.33508,1.00707 1.74366,1.74366c0.41433,0.73659 0.6215,1.5624 0.6215,2.47738c0,0.91499 -0.20717,1.74367 -0.6215,2.48602c-0.40858,0.74235 -0.99268,1.32933 -1.7523,1.76093c-0.75961,0.42585 -1.64008,0.63876 -2.64139,0.63876c-0.97254,0 -1.83861,-0.20141 -2.59822,-0.60424c-0.75961,-0.40858 -1.3581,-0.97829 -1.79546,-1.70914c-0.4316,-0.73084 -0.6474,-1.58828 -0.6474,-2.57233zM234.94838,181.64005c0,0.59274 0.13235,1.12793 0.39707,1.60556c0.26471,0.47763 0.62151,0.85744 1.07037,1.13942c0.45462,0.27623 0.9524,0.41433 1.49334,0.41433c0.57547,0 1.08763,-0.1381 1.53649,-0.41433c0.44886,-0.28198 0.79703,-0.66179 1.04448,-1.13942c0.2532,-0.47763 0.37981,-1.01282 0.37981,-1.60556c0,-0.58697 -0.12661,-1.11928 -0.37981,-1.59691c-0.24745,-0.47763 -0.59561,-0.86032 -1.04447,-1.14805c-0.44886,-0.28773 -0.96102,-0.4316 -1.53649,-0.4316c-0.5582,0 -1.06174,0.14675 -1.5106,0.44024c-0.44886,0.29349 -0.80277,0.68193 -1.06173,1.16532c-0.25896,0.47763 -0.38844,1.00131 -0.38844,1.57102z"/><path d="M204.19192,177.13415l0.14792,1.76009c0.33547,-0.63863 0.79833,-1.14476 1.38858,-1.5184c0.62726,-0.39707 1.34371,-0.5956 2.14937,-0.5956c0.51792,0 0.97542,0.08344 1.37249,0.25033c0.39707,0.16113 0.72508,0.39131 0.98404,0.69056c0.23949,0.27675 0.40022,0.61501 0.48221,1.01479c0.34255,-0.58215 0.80043,-1.04414 1.37367,-1.38597c0.62726,-0.37981 1.28617,-0.56971 1.97673,-0.56971c0.89773,0 1.60843,0.25608 2.1321,0.76825c0.52367,0.50642 0.79415,1.16532 0.81141,1.97673v6.75886h-2.05442v-6.03376c-0.01726,-0.47188 -0.13236,-0.86608 -0.34528,-1.18258c-0.21292,-0.31651 -0.58409,-0.48915 -1.11352,-0.51792c-0.53519,0 -1.01282,0.16401 -1.43291,0.49202c-0.41433,0.32226 -0.73947,0.73659 -0.97541,1.24301c-0.23594,0.50642 -0.36255,1.05598 -0.37981,1.64872v4.35053h-2.05441v-6.03377c-0.01726,-0.47188 -0.141,-0.86607 -0.37118,-1.18257c-0.22443,-0.31651 -0.60136,-0.48915 -1.13079,-0.51792c-0.54669,0 -1.02721,0.16401 -1.44154,0.49202c-0.40858,0.32226 -0.72796,0.74236 -0.95815,1.26028c-0.23019,0.51217 -0.34528,1.06173 -0.34528,1.64871v4.33327h-2.05442v-9.14992z"/><path d="M248.29515,186.4567c-0.64453,0 -1.27465,-0.11221 -1.8904,-0.33665c-0.61,-0.23019 -1.11352,-0.57259 -1.51059,-1.02721l0.86319,-1.19121c0.37981,0.3683 0.77112,0.64453 1.17395,0.82868c0.40858,0.18415 0.81141,0.27622 1.20848,0.27622c0.29925,0 0.57259,-0.03741 0.82004,-0.11221c0.2532,-0.07481 0.45462,-0.19565 0.60424,-0.36254c0.15537,-0.17264 0.23306,-0.40571 0.23306,-0.6992c0,-0.32226 -0.10646,-0.57834 -0.31938,-0.76825c-0.21292,-0.19566 -0.48627,-0.35103 -0.82003,-0.46613c-0.32801,-0.12085 -0.67619,-0.23306 -1.04448,-0.33664c-0.75386,-0.24745 -1.32932,-0.59274 -1.72639,-1.03584c-0.39707,-0.44311 -0.5956,-0.98117 -0.5956,-1.61418c0,-0.48915 0.12085,-0.94376 0.36254,-1.36386c0.24745,-0.4201 0.60999,-0.7625 1.08763,-1.02721c0.47763,-0.26471 1.07038,-0.39707 1.7782,-0.39707c0.63301,0 1.19985,0.0777 1.7005,0.23307c0.50065,0.15537 0.97255,0.41146 1.41565,0.76825l-0.82004,1.27754c-0.26471,-0.28198 -0.58122,-0.48915 -0.94952,-0.6215c-0.3683,-0.13235 -0.69918,-0.20429 -0.99267,-0.2158c-0.2532,-0.01726 -0.4949,0.02014 -0.72509,0.11221c-0.22443,0.08632 -0.41145,0.21006 -0.56107,0.37118c-0.14387,0.16113 -0.2158,0.35391 -0.2158,0.57835c0,0.305 0.10071,0.55532 0.30212,0.75098c0.20717,0.18991 0.47763,0.33952 0.81141,0.44886c0.33378,0.10934 0.66178,0.22444 0.98404,0.34529c0.45462,0.13235 0.85745,0.31074 1.20849,0.53518c0.35679,0.21868 0.64165,0.48915 0.85457,0.81141c0.21292,0.32226 0.31938,0.72797 0.31938,1.21712c0,0.54094 -0.12948,1.04447 -0.38844,1.5106c-0.2532,0.46613 -0.64164,0.83443 -1.16531,1.10489c-0.52367,0.27047 -1.19122,0.40571 -2.00263,0.40571z"/><path d="M180.74745,171.74779h3.79808v14.53628h-2.14074v-12.48186h-1.65734z"/><path d="M196.12275,170.30625h2.14937v15.97782h-2.14936z"/><path d="M255.61437,173.11164h2.05441v4.06567h2.52054v1.61419h-2.52054v7.49257h-2.05441v-7.49257h-1.68323v-1.61418h1.68324z"/><path d="M276.54038,177.13415l0.15975,2.13233c0.23156,-0.48786 0.54949,-0.90803 0.95379,-1.26049c0.44886,-0.39131 0.92075,-0.69344 1.41564,-0.90635c0.4949,-0.21292 0.9265,-0.31938 1.2948,-0.31938l-0.11222,2.03715c-0.69056,-0.04603 -1.29767,0.08632 -1.82134,0.39707c-0.52368,0.31075 -0.93801,0.72509 -1.24301,1.24301c-0.29925,0.51217 -0.44886,1.06175 -0.44886,1.64872v4.17789h-2.03715v-9.14992z"/></g></g></g></svg>