<svg version="1.1" xmlns="http://www.w3.org/2000/svg" xmlns:xlink="http://www.w3.org/1999/xlink" width="307" height="307" viewBox="0,0,307,307"><defs><linearGradient x1="192.03038" y1="201.00621" x2="192.03038" y2="246.19071" gradientUnits="userSpaceOnUse" id="color-1"><stop offset="0" stop-color="#8ec4d0"/><stop offset="1" stop-color="#406077"/></linearGradient><linearGradient x1="192.03039" y1="201.00621" x2="192.03039" y2="246.19071" gradientUnits="userSpaceOnUse" id="color-2"><stop offset="0" stop-color="#8ec4d0"/><stop offset="1" stop-color="#406077"/></linearGradient><linearGradient x1="268.06416" y1="203.54908" x2="267.75704" y2="248.73255" gradientUnits="userSpaceOnUse" id="color-3"><stop offset="0" stop-color="#8ec4d0"/><stop offset="1" stop-color="#406077"/></linearGradient></defs><g transform="translate(-86.5,-47.19449)"><g data-paper-data="{&quot;isPaintingLayer&quot;:true}" fill-rule="nonzero" stroke-linecap="butt" stroke-linejoin="miter" stroke-miterlimit="10" stroke-dasharray="" stroke-dashoffset="0" style="mix-blend-mode: normal"><path d="M89,200.69449c0,-83.39499 67.60501,-151 151,-151c83.39499,0 151,67.60501 151,151c0,83.39499 -67.60501,151 -151,151c-83.39499,0 -151,-67.60501 -151,-151z" fill="#c1ffb2" stroke="none" stroke-width="0"/><path d="M92,174.69447c0,0 12.39294,60.43765 55.98474,110.83318c42.25722,48.85264 69.10277,62.95198 69.10277,62.95198c0,0 -18.64049,-2.35942 -26.09179,-4.91461c-24.90904,-8.54177 -46.87791,-23.41437 -63.98602,-42.69722c-14.83039,-16.7156 -26.00815,-36.74528 -32.28219,-58.83796c-1.63816,-5.76842 -4.36357,-19.45418 -4.66195,-32.99194c-0.38115,-17.29247 1.93445,-34.34344 1.93445,-34.34344z" fill="#a9ef51" stroke="none" stroke-width="0"/><path d="M112.3922,119.92886c0,0 2.9874,-4.57182 4.5701,-6.79188c13.23093,-18.559 30.55615,-33.99744 50.65712,-44.99678c2.3231,-1.27121 7.07849,-3.63372 7.07849,-3.63372c0,0 1.41646,83.64612 14.97423,159.73551c11.85622,66.5399 36.29102,126.83034 33.75137,126.55303c-75.59605,-8.25439 -111.0313,-230.86617 -111.0313,-230.86617z" fill="#abee53" stroke="none" stroke-width="0"/><path d="M238.48285,50.28824c0,0 21.1116,0.63494 24.12507,1.08736c16.14936,2.42458 31.46169,7.40663 45.51148,14.52063c2.27146,1.15014 6.71357,3.61578 6.71357,3.61578c0,0 -23.12187,74.19765 -34.5305,138.53809c-8.04369,45.36344 -16.83565,141.83179 -16.83565,141.83179c0,0 -6.49388,0.9056 -9.78826,1.2014c-4.50542,0.40454 -6.06786,0.61119 -10.67857,0.61119c-3.46676,0 -6.31471,0.65324 -6.31471,0.65324c0,0 -8.80023,-107.69193 -5.65681,-186.3893c1.70155,-42.59948 7.45437,-115.6702 7.45437,-115.6702z" fill="#abee53" stroke="none" stroke-width="0"/><path d="M355.7369,104.68173c0,0 8.27066,9.75729 10.25283,12.75062c10.85586,16.39376 18.59764,35.0296 22.38197,55.06412c1.09108,5.77628 -0.3717,0.19801 -0.3717,0.19801c0,0 -22.85239,37.94419 -36.39089,64.02344c-16.5176,31.81789 -32.99932,92.0441 -34.83156,93.40104c-8.77132,6.49599 -5.27122,4.06418 -15.35463,8.55953c-1.94452,0.86689 -8.8976,2.47996 -8.8976,2.47996c0,0 -2.21784,-41.30569 21.44111,-125.21136c14.53188,-51.53681 41.77049,-111.26534 41.77049,-111.26534z" fill="#abee53" stroke="none" stroke-width="0"/><path d="M389.99999,212.69449c0,0 0.85107,-4.20631 0.55856,-0.36701c-3.96206,52.00368 -34.26586,96.64238 -77.59701,120.60173c-12.60939,6.97218 11.67262,-36.05746 37.44993,-72.31919c18.43477,-25.93276 39.58852,-47.91553 39.58852,-47.91553z" fill="#abee53" stroke="none" stroke-width="0"/><g><path d="M94.74072,240.27964c0,0 12.20883,-24.29424 16.27059,-30.01764c2.69634,-3.7994 7.72941,-3.14902 7.72941,-3.14902l-8.33333,57.5c0,0 -4.74492,-7.1173 -6.90324,-11.22839c-0.73418,-1.39844 -2.47421,0.54146 -3.61983,-1.19435c-2.70385,-4.09678 -5.1436,-11.9106 -5.1436,-11.9106z" fill="#fb7c00" stroke="none" stroke-width="0"/><path d="M118.74072,207.11298l-8.7977,57.5c0,0 -9.98197,-4.28397 -11.92723,-10.72839c-2.60444,-4.69899 20.72493,-46.77161 20.72493,-46.77161z" fill="#b43f15" stroke="none" stroke-width="0"/><path d="M93.74071,239.61298c0,0 13.20883,-23.62758 17.27059,-29.35098c2.69634,-3.7994 7.72941,-3.14902 7.72941,-3.14902l-8.33333,57.5c0,0 -8.41159,-4.1173 -10.56991,-8.22839c-2.46697,-4.69899 -6.09676,-16.77161 -6.09676,-16.77161z" fill="none" stroke="#390400" stroke-width="4"/><path d="M223.82869,230.28833c4.55511,29.83142 5.8412,64.94873 6.1806,86.09714c-0.45147,13.66989 -1.30376,17.8487 -16.58181,22.49608c-6.7056,2.03975 -14.04712,3.49515 -23.30456,4.53807c-13.05168,1.47037 -36.17868,-20.79594 -55.41768,-35.61229c-11.83885,-9.11734 -16.20547,-17.64227 -21.84621,-26.00746c-3.74644,-5.55595 -11.40816,-9.9237 -10.03188,-18.40198c4.73232,-29.15252 13.97997,-58.81135 29.8359,-75.60658c9.45545,-10.01559 18.94565,-14.0962 26.63617,-16.81875c46.5164,-16.46745 63.59964,53.22636 64.52946,59.31576z" fill="#b43f15" stroke="none" stroke-width="0"/><path d="M223.82869,230.28833c2.89747,18.97553 4.47225,40.0898 5.32205,58.38719c0.28104,6.05126 -14.15344,64.42128 -89.91324,17.87998c-40.37859,-25.64864 -20.87755,-97.19295 -18.81144,-101.12172c3.55169,-6.75362 7.61339,-12.74494 12.237,-17.64246c9.45545,-10.01559 18.94565,-14.0962 26.63617,-16.81875c46.5164,-16.46745 63.59964,53.22636 64.52946,59.31576z" fill="#fb7c00" stroke="none" stroke-width="0"/><path d="M180.16668,205.72896c3.47699,0.14002 18.6285,0.12358 30.06883,2.69361c2.17819,0.48932 7.14979,1.72421 8.73516,7.53459c1.89755,6.9545 4.67065,18.31873 3.54939,26.17956c-0.82669,5.7957 -8.09852,8.12431 -9.83456,8.17989c-6.79676,0.2176 -14.98417,0.41235 -22.51882,0.41235c-8.10129,0 -12.0602,0.65678 -19.5,-1c-3.41209,-0.75985 -7.84728,-1.68722 -11.37921,-4.68233c-6.50923,-5.5199 -2.55284,-22.23411 -1.7192,-25.84042c0.16357,-0.70758 0.97934,-7.03108 5.63486,-10.42727c4.1787,-3.04834 11.93676,-3.25241 16.96354,-3.04998z" fill="#8ec4d0" stroke="#b33f18" stroke-width="6"/><path d="M183.00001,201.0623c3.47699,0.14002 18.6285,0.12358 30.06883,2.69361c2.17819,0.48932 7.14979,1.72421 8.73516,7.53459c1.89755,6.9545 4.67065,18.31873 3.54939,26.17956c-0.82669,5.7957 -8.09852,8.12431 -9.83456,8.17989c-6.79676,0.2176 -14.98417,0.41235 -22.51882,0.41235c-8.10129,0 -12.0602,0.65678 -19.5,-1c-3.41209,-0.75985 -7.84728,-1.68722 -11.37921,-4.68233c-6.50923,-5.5199 -2.55284,-22.23411 -1.7192,-25.84042c0.16357,-0.70758 0.97934,-7.03108 5.63486,-10.42727c4.1787,-3.04834 11.93676,-3.25241 16.96354,-3.04998z" fill="#8ec4d0" stroke="#061b0f" stroke-width="6"/><path d="M223.82869,230.28833c4.55511,29.83142 5.8412,64.94873 6.1806,86.09714c-0.45147,13.66989 -1.30376,17.8487 -16.58181,22.49608c-6.09313,1.85345 -13.537,3.22442 -21.79141,4.24185c-1.48737,0.18333 -6.0419,-2.37124 -6.0419,-2.37124c0,0 -15.82208,-7.93069 -23.71538,-12.78899c-8.21562,-5.05669 -24.65008,-16.97979 -24.65008,-16.97979c0,0 -12.4222,-14.75335 -18.06382,-22.13491c-4.97239,-6.50593 -14.03239,-19.86016 -14.03239,-19.86016c0,0 -2.24646,-4.80902 -2.03988,-6.12263c4.6582,-29.62083 13.44831,-57.99717 29.57044,-75.07437c9.45545,-10.01559 18.94565,-14.0962 26.63617,-16.81875c46.5164,-16.46745 63.59964,53.22636 64.52946,59.31576z" fill="none" stroke="#390400" stroke-width="4"/><path d="M183.00001,201.06227c3.47699,0.14002 18.6285,0.12358 30.06883,2.69361c2.17819,0.48932 7.14979,1.72421 8.73516,7.53459c1.89755,6.9545 4.67065,18.31873 3.54939,26.17956c-0.82669,5.7957 -8.09852,8.12431 -9.83456,8.17989c-6.79676,0.2176 -14.98417,0.41235 -22.51882,0.41235c-8.10129,0 -12.0602,0.65678 -19.5,-1c-3.41209,-0.75985 -7.84728,-1.68722 -11.37921,-4.68233c-6.50923,-5.5199 -2.55284,-22.23411 -1.7192,-25.84042c0.16357,-0.70758 0.97934,-7.03108 5.63486,-10.42727c4.1787,-3.04834 11.93676,-3.25241 16.96354,-3.04998z" fill="url(#color-1)" stroke="none" stroke-width="0"/><path d="M183.17228,201.05857c3.21815,0.13072 17.24169,0.11537 27.83034,2.51476c2.01603,0.45684 6.61752,1.60973 8.08487,7.03434c1.75629,6.49276 4.32294,17.10247 3.28515,24.44139c-0.76515,5.4109 -7.49562,7.5849 -9.10243,7.63679c-6.29077,0.20316 -13.86866,0.38497 -20.84239,0.38497c-7.49818,0 -11.16237,0.61317 -18.04831,-0.93361c-3.15808,-0.7094 -7.26309,-1.57519 -10.53208,-4.37144c-6.02465,-5.15341 -2.3628,-20.75789 -1.59121,-24.12476c0.15139,-0.6606 0.90643,-6.56426 5.21537,-9.73496c3.86761,-2.84595 11.04812,-3.03647 15.70068,-2.84748z" fill="#8ec4d0" stroke="none" stroke-width="0"/><path d="M223.3534,227.97002c-0.2553,1.78985 -1.3979,6.51952 -9.30009,9.15478c-4.63378,1.54529 -11.59188,2.04233 -22.05835,1.67768c-4.30543,-0.15 -8.07093,0.54316 -11.36029,0.11876c-18.79021,-2.42435 -22.04345,-9.68483 -21.65402,-12.45898c0.13957,-0.99427 3.06682,-6.51013 13.51835,-9.50081c4.48467,-1.28328 10.35472,-1.69368 17.98435,-1.75348c10.505,-0.08235 17.80899,0.1085 22.81581,1.83835c8.55284,2.95498 10.40241,8.48281 10.05424,10.92371z" fill="url(#color-2)" stroke="none" stroke-width="0"/><path d="M193.17536,340.15406c-0.60634,2.42536 -3.0317,1.81902 -3.0317,1.81902l-2.32214,-0.60416c-2.84658,-1.48747 -3.72709,1.08202 -7.23886,0.0881c-2.37173,-0.67126 -6.04903,-3.85822 -7.68916,-5.73494c-0.57016,-0.6524 -0.62474,-1.68665 -1.26443,-2.27103c-0.49282,-0.45021 -1.29117,-0.35634 -1.90321,-0.62271c-2.67552,-1.16442 -5.65734,-2.68441 -8.20067,-4.10119c-4.90719,-2.73358 -8.67067,-6.91723 -13.15141,-10.09231c-1.80284,-1.2775 -4.02511,-1.83368 -5.96348,-2.89433c-2.05816,-4.55962 -4.96744,-6.67622 -9.07848,-9.63395c-2.40914,-1.73328 -5.76577,-2.05493 -7.60992,-4.59704c-0.66917,-0.92244 -0.59236,-2.22432 -1.1429,-3.22212c-0.40465,-0.73338 -1.23211,-1.16341 -1.67059,-1.87708c-0.85748,-1.39564 -1.28076,-3.03599 -2.18651,-4.4008c-1.44312,-2.17454 -2.50437,-1.95001 -4.23966,-3.69401c-1.49144,-1.49892 -2.82078,-3.18612 -3.89225,-5.00906c-0.92624,-1.57586 -0.89738,-3.56024 -1.62225,-5.23828c-0.58788,-1.36092 -1.82825,-2.33445 -2.71773,-3.52042c0,0 -1.5,-2 0.5,-3.5c2,-1.5 3.5,0.5 3.5,0.5c0.3766,0.50213 3.13179,4.14756 3.28227,4.47958c0.68207,1.505 0.51009,3.35552 1.37775,4.76172c2.10742,3.41546 5.64107,5.08258 7.86809,8.29693c0.9655,1.39354 1.39614,3.10023 2.28563,4.54347c0.50068,0.81239 1.3989,1.34165 1.85727,2.17865c0.46545,0.84993 0.37289,1.9385 0.8571,2.77788c0.78274,1.35687 5.16652,2.53626 6.39008,3.40296c3.95246,2.79969 8.37346,5.60195 9.92152,10.36605c0.40315,0.16835 5.02502,2.0977 5.03652,2.10567c4.41854,3.06327 8.0449,7.24716 12.84859,9.90769c2.47148,1.36884 5.22485,2.68585 7.79933,3.89881c1.022,0.48151 2.23588,0.64574 3.09679,1.37729c0.8215,0.69806 1.02519,1.91809 1.73557,2.72897c1.11252,1.26992 3.6721,3.70818 5.31084,4.26506c1.30361,0.44299 3.49354,-1.10824 4.33267,-1.09071c1.20823,0.02524 2.28565,0.78587 3.42848,1.17881l1.67786,0.39584c0,0 2.42536,0.60634 1.81902,3.0317z" fill="#b43f15" stroke="none" stroke-width="0.5"/><path d="M139.2375,306.55548c-17.53784,-11.1401 -23.77957,-30.93827 -25.06003,-50.09388c1.77969,1.01762 3.58192,2.00099 5.31476,3.09334c16.5076,10.40604 32.89239,21.00593 49.38901,31.42937c8.8695,5.60422 19.21219,8.43775 28.79978,12.69844c0.70719,0.31428 10.70181,4.65994 20.18001,9.09098c-11.90085,12.6603 -35.1788,20.47103 -78.62354,-6.21825z" fill="#fb7c00" stroke="none" stroke-width="0"/></g><g><path d="M254.44755,326.52131c-0.09059,-17.88995 -0.0864,-56.02944 7.27988,-86.55194c13.8876,-60.49557 46.23947,-57.45487 55.85941,-54.3479c15.7833,5.09757 28.9922,22.22033 34.14087,41.00027c6.38491,23.28919 5.45947,51.74471 3.0357,73.97118c-0.23218,2.12913 -4.51402,3.26685 -6.92044,5.4231c-5.70573,5.11257 -13.16136,11.24563 -19.61582,16.01286c-17.90912,13.22758 -34.78307,23.59345 -41.2512,22.50988c-8.40115,-1.4074 -17.72837,-3.31923 -24.28122,-5.57004c-9.50444,-3.26465 -8.21782,-6.65095 -8.24717,-12.44739z" fill="#053a20" stroke="none" stroke-width="0"/><path d="M254.44755,326.52131c-0.09059,-17.88995 -0.0864,-56.02944 7.27988,-86.55194c13.8876,-60.49557 46.23947,-57.45487 55.85941,-54.3479c15.7833,5.09757 28.9922,22.22033 34.14087,41.00027c6.18153,22.54733 5.51101,49.9371 3.26257,71.82858c-0.72675,7.07585 -13.28036,13.08681 -21.77574,19.8161c-18.24501,14.45206 -40.61699,27.2454 -47.70104,26.02378c-8.00559,-1.38054 -16.64394,-3.2005 -22.81878,-5.32147c-9.50444,-3.26465 -8.21782,-6.65095 -8.24717,-12.44739z" fill="#053a20" stroke="none" stroke-width="0"/><path d="M254.49564,310.77586c0.27613,-19.78026 1.60986,-47.51172 7.23178,-70.80647c13.8876,-60.49557 46.23947,-57.45487 55.85941,-54.3479c15.7833,5.09757 28.9922,22.22033 34.14087,41.00027c2.73749,9.9851 -2.80747,11.8725 -2.29953,22.85887c0.13593,2.93994 -2.64629,29.61183 -9.50421,49.84773c-5.39015,15.90492 -15.20146,26.67429 -15.20146,26.67429c0,0 -30.54471,9.32356 -46.95928,6.22603c-18.5783,-3.50583 -23.29373,-19.57979 -23.26759,-21.45282z" fill="#177902" stroke="none" stroke-width="0"/><path d="M270.77205,223.50741c6.56591,0.15219 22.38049,1.34536 27.06606,5.02061c4.2375,3.32381 3.58571,15.34252 3.38244,20.15938c-0.10626,2.51828 -2.78002,2.49519 -6.25499,3.03518c-4.38685,0.6817 -10.17903,1.08607 -13.94463,1.07004c-4.5999,-0.01956 -12.61867,-1.16241 -16.84316,-1.8169c-1.70085,-0.26351 -2.78378,-0.96612 -2.76821,-1.82065c0.0517,-2.83705 0.24339,-9.38048 0.93461,-12.96939c0.5302,-2.75287 1.96728,-8.00775 4.3133,-10.84327c1.11496,-1.34758 2.82486,-1.86489 4.11457,-1.835z" fill="#03391f" stroke="#033a21" stroke-width="6"/><path d="M356.04599,298.47631c0,0 -23.81557,-68.9442 -6.38632,-83.40809c9.05271,-7.51251 25.53415,20.46607 31.99623,32.42505c1.69621,3.13908 -25.60992,50.98305 -25.60992,50.98305z" fill="#03391e" stroke="none" stroke-width="0"/><path d="M254.44755,326.52131c-0.09059,-17.88995 -0.0864,-56.02944 7.27988,-86.55194c13.8876,-60.49557 46.23947,-57.45487 55.85941,-54.3479c15.7833,5.09757 28.9922,22.22033 34.14087,41.00027c5.76108,21.01375 6.47365,46.54151 4.68868,67.62641c-0.09114,1.07656 -0.2926,3.19373 -0.2926,3.19373c0,0 -5.75287,6.40661 -13.23168,13.26443c-6.54952,6.0057 -14.49989,12.27924 -20.03966,15.94276c-5.38489,3.5611 -13.57835,8.87892 -20.99604,12.06326c-8.07911,3.46828 -15.17752,4.65441 -15.17752,4.65441c0,0 -0.50512,1.03804 -1.43425,0.87695c-7.92966,-1.37479 -16.44415,-3.17774 -22.54992,-5.27499c-9.50444,-3.26465 -8.21782,-6.65095 -8.24717,-12.44739z" fill="none" stroke="#000000" stroke-width="4"/><path d="M356.39064,296.81194c0,0 -24.16023,-67.27983 -6.73098,-81.74373c11.42894,-9.48446 34.05207,34.59501 34.05207,34.59501c0,0 -5.4284,14.59706 -13.87626,28.0289c-4.36686,6.94319 -13.44483,19.11982 -13.44483,19.11982z" fill="#053a20" stroke="#000000" stroke-width="4"/><path d="M359.70077,288.90211c-3.41516,-6.22214 -10.57246,-21.27746 -14.24064,-34.8908c-4.67612,-17.354 -4.24394,-31.93615 4.19955,-38.9431c9.16126,-7.60258 25.93043,21.1421 32.22432,32.84822c1.55792,2.89762 -20.92474,43.27853 -22.18322,40.98569z" fill="#177902" stroke="none" stroke-width="0"/><path d="M356.39064,296.81196c0,0 -24.16023,-67.27983 -6.73098,-81.74373c11.42894,-9.48446 34.05207,34.59501 34.05207,34.59501c0,0 -5.4284,14.59706 -13.87626,28.0289c-4.36686,6.94319 -13.44483,19.11982 -13.44483,19.11982z" fill="none" stroke="#000000" stroke-width="4"/><path d="M267.35469,205.48399c6.89454,0.19493 23.49885,1.80223 28.41102,6.8508c4.44244,4.56581 3.73132,21.11096 3.50719,27.7418c-0.11718,3.46663 -2.92484,3.4408 -6.57512,4.19181c-4.60816,0.94808 -10.69144,1.51754 -14.64567,1.50385c-4.83033,-0.01672 -13.24833,-1.57206 -17.68303,-2.46359c-1.78548,-0.35894 -2.92111,-1.32369 -2.90286,-2.49998c0.06059,-3.90531 0.27639,-12.91274 1.01021,-17.85439c0.56288,-3.79048 2.08362,-11.027 4.55347,-14.9353c1.1738,-1.85742 2.97053,-2.57328 4.32479,-2.53499z" fill="#9966ff" stroke="#000000" stroke-width="6"/><path d="M267.35469,205.48399c6.89453,0.19494 23.49886,1.80223 28.41102,6.85081c4.44244,4.5658 3.73131,21.11095 3.50719,27.74179c-0.11718,3.46663 -2.92484,3.44079 -6.57512,4.19181c-4.60816,0.94808 -10.69144,1.51754 -14.64567,1.50385c-4.83034,-0.01673 -13.24833,-1.57207 -17.68303,-2.46359c-1.78548,-0.35894 -2.92111,-1.32369 -2.90285,-2.49998c0.06059,-3.9053 0.27639,-12.91274 1.01021,-17.8544c0.56288,-3.79048 2.08362,-11.027 4.55347,-14.9353c1.1738,-1.85742 2.97054,-2.57328 4.3248,-2.53498z" fill="#8ec4ce" stroke="none" stroke-width="NaN"/><path d="M299.20319,230.72518c-0.26746,1.78807 -1.44218,6.50987 -9.3621,9.09136c-2.62527,0.85571 -11.50157,1.75084 -19.74776,1.06147c-6.34153,-0.53015 -12.61053,-2.59977 -12.61053,-2.59977c0,0 0.17953,-6.34563 0.65215,-11.94869c0.39674,-4.70343 1.29211,-7.59191 1.26882,-8.24354c0.04986,-0.0007 6.5016,-0.34546 7.01687,-0.34599c10.50532,-0.01094 17.80784,0.22955 22.80279,1.99339c8.53256,3.01305 10.34451,8.55332 9.97976,10.9918z" fill="url(#color-3)" stroke="none" stroke-width="0"/></g><path d="M89,200.69449c0,-83.39499 67.60501,-151 151,-151c71.35052,0 131.14268,49.48724 146.92556,116.01077c2.66426,11.22965 4.07444,22.94475 4.07444,34.98923c0,83.39499 -67.60501,151 -151,151c-83.39499,0 -151,-67.60501 -151,-151z" fill="none" stroke="#417705" stroke-width="5"/></g></g></svg>