<svg version="1.1" xmlns="http://www.w3.org/2000/svg" xmlns:xlink="http://www.w3.org/1999/xlink" width="103.5169" height="83.0628" viewBox="0,0,103.5169,83.0628"><g transform="translate(-188.24155,-141.30503)"><g data-paper-data="{&quot;isPaintingLayer&quot;:true}" fill-rule="nonzero" stroke-linejoin="miter" stroke-miterlimit="10" stroke-dasharray="" stroke-dashoffset="0" style="mix-blend-mode: normal"><path d="M202.98666,186.33837c0,-7.57725 0,-30.71945 0,-34.6c0,-1.08182 0.85945,-2 2,-2c6.01197,0 56.8805,0 67.9,0c1.34828,0 2.1,0.91818 2.1,2c0,3.95155 0,27.8759 0,35c0,1.26475 -1.09904,2 -2.5,2c-6.61508,0 -57.12091,0 -67.6,0c-1.22228,0 -1.9,-0.89158 -1.9,-2.4z" fill="#5d6465" stroke="#000000" stroke-width="13" stroke-linecap="butt"/><path d="M217.28665,170.13837v-20h9v20z" fill="#e7efef" stroke="#000000" stroke-width="13" stroke-linecap="butt"/><path d="M224.28665,164.53837v-7.4h22.6v7.4z" fill="#e7efef" stroke="#000000" stroke-width="13" stroke-linecap="butt"/><path d="M203.68665,171.13837v-2.6h70.8v2.6z" fill="#a5aeb5" stroke="#000000" stroke-width="13" stroke-linecap="butt"/><path d="M273.88665,175.93837v5.6h-40.8v-5.6z" fill="#e7efef" stroke="#000000" stroke-width="13" stroke-linecap="butt"/><path d="M250.78665,188.73837v-9.8h9.4v9.8z" fill="#e7efef" stroke="#000000" stroke-width="13" stroke-linecap="butt"/><path d="M203.68666,176.73837v-6.6h70.8v6.6z" fill="#5c6365" stroke="#000000" stroke-width="13" stroke-linecap="butt"/><path d="M202.98666,186.33837c0,-7.57725 0,-30.71945 0,-34.6c0,-1.08182 0.85945,-2 2,-2c6.01197,0 56.88051,0 67.9,0c1.34828,0 2.1,0.91818 2.1,2c0,3.95155 0,27.8759 0,35c0,1.26475 -1.09904,2 -2.5,2c-6.61508,0 -57.12091,0 -67.6,0c-1.22227,0 -1.9,-0.89158 -1.9,-2.4z" fill="none" stroke="#000000" stroke-width="13" stroke-linecap="butt"/><path d="M260.71999,160.90503c0,7.23493 -5.73076,13.1 -12.8,13.1c-7.06924,0 -12.8,-5.86507 -12.8,-13.1c0,-7.23493 5.73076,-13.1 12.8,-13.1c7.06924,0 12.8,5.86507 12.8,13.1z" fill="#a5b2b5" stroke="#000000" stroke-width="13" stroke-linecap="butt"/><path d="M255.32,160.83003c0,4.22412 -3.3459,7.64844 -7.47328,7.64844c-4.12738,0 -7.47328,-3.42432 -7.47328,-7.64844c0,-4.22412 3.3459,-7.64844 7.47328,-7.64844c4.12738,0 7.47328,3.42432 7.47328,7.64844z" fill="#5a6163" stroke="#000000" stroke-width="13" stroke-linecap="butt"/><path d="M214.04582,186.69259c9.26151,-9.00663 34.11602,-32.28924 42.13693,-30.85405c9.29388,1.66297 10.01156,7.40518 9.60301,10.87017c-0.1583,1.34262 -1.28662,2.90631 -2.48149,3.92816c-2.34772,2.00777 -22.01129,17.26013 -28.12783,22.22748c-1.16787,0.94845 -1.36136,0.47084 -2.30205,-0.78343c-0.60107,-0.80143 -1.62501,-1.52846 -3.36685,-1.75879c-1.73633,-0.22959 -7.98397,-0.03842 -12.88851,-0.00839c-3.2985,0.0202 -4.77795,-1.47708 -2.57321,-3.62114z" fill="#acb2b6" stroke="#000000" stroke-width="13" stroke-linecap="butt"/><path d="M214.04581,186.69258c9.26152,-9.00663 34.11601,-32.28924 42.13692,-30.85405c9.29388,1.66297 10.01156,7.40518 9.60302,10.87017c-0.1583,1.34262 -1.28663,2.90631 -2.48149,3.92816c-2.34772,2.00777 -22.01129,17.26013 -28.12782,22.22748c-1.16788,0.94845 -1.36136,0.47084 -2.30205,-0.78343c-0.60107,-0.80143 -1.62501,-1.52846 -3.36685,-1.75878c-1.73633,-0.22959 -7.98397,-0.03842 -12.88851,-0.00839c-3.2985,0.0202 -4.77795,-1.47708 -2.57321,-3.62114z" fill="none" stroke="#000000" stroke-width="13" stroke-linecap="butt"/><path d="M228.7878,176.02685c0.08962,-1.0634 0.02643,-2.7382 -0.61534,-5.12336c-1.10587,-3.61472 -3.38593,-9.37355 -4.45079,-12.01237c-0.3521,-0.87253 0.08845,-0.33109 1.04351,1.12472c1.65346,2.52037 4.19192,6.18853 5.72397,7.42461c1.75948,1.41958 4.72918,1.77074 6.29314,1.85527c0.6322,0.03417 0.91351,0.57021 0.77457,1.39835c-0.26823,1.5988 -0.6026,4.25129 -0.25874,6.06686c0.49371,2.60676 2.28526,7.86887 3.50437,11.30148c0.67949,1.91321 0.23368,1.2793 -1.02202,-1.05561c-1.36292,-2.53431 -2.92229,-5.32151 -4.19398,-6.62001c-1.58711,-1.62058 -4.64356,-2.31427 -6.2605,-2.48502c-0.71085,-0.07506 -0.62257,-0.87386 -0.53821,-1.87493z" fill="#0dcd73" stroke="#000000" stroke-width="13" stroke-linecap="butt"/><path d="M202.98666,186.33837c0,-7.57725 0,-30.71945 0,-34.6c0,-1.08182 0.85945,-2 2,-2c6.01197,0 56.8805,0 67.9,0c1.34828,0 2.1,0.91818 2.1,2c0,3.95155 0,27.8759 0,35c0,1.26475 -1.09904,2 -2.5,2c-6.61508,0 -57.12091,0 -67.6,0c-1.22228,0 -1.9,-0.89158 -1.9,-2.4z" fill="#5d6465" stroke="#ffffff" stroke-width="8.5" stroke-linecap="butt"/><path d="M217.28665,170.13837v-20h9v20z" fill="#e7efef" stroke="#ffffff" stroke-width="8.5" stroke-linecap="butt"/><path d="M224.28665,164.53837v-7.4h22.6v7.4z" fill="#e7efef" stroke="#ffffff" stroke-width="8.5" stroke-linecap="butt"/><path d="M203.68665,171.13837v-2.6h70.8v2.6z" fill="#a5aeb5" stroke="#ffffff" stroke-width="8.5" stroke-linecap="butt"/><path d="M233.68666,176.73836v8h-30v-8z" fill="#e7efef" stroke="#ffffff" stroke-width="8.5" stroke-linecap="butt"/><path d="M273.88665,175.93837v5.6h-40.8v-5.6z" fill="#e7efef" stroke="#ffffff" stroke-width="8.5" stroke-linecap="butt"/><path d="M250.78665,188.73837v-9.8h9.4v9.8z" fill="#e7efef" stroke="#ffffff" stroke-width="8.5" stroke-linecap="butt"/><path d="M203.68666,176.73837v-6.6h70.8v6.6z" fill="#5c6365" stroke="#ffffff" stroke-width="8.5" stroke-linecap="butt"/><path d="M202.98666,186.33837c0,-7.57725 0,-30.71945 0,-34.6c0,-1.08182 0.85945,-2 2,-2c6.01197,0 56.88051,0 67.9,0c1.34828,0 2.1,0.91818 2.1,2c0,3.95155 0,27.8759 0,35c0,1.26475 -1.09904,2 -2.5,2c-6.61508,0 -57.12091,0 -67.6,0c-1.22227,0 -1.9,-0.89158 -1.9,-2.4z" fill="none" stroke="#ffffff" stroke-width="8.5" stroke-linecap="butt"/><path d="M260.71999,160.90503c0,7.23493 -5.73076,13.1 -12.8,13.1c-7.06924,0 -12.8,-5.86507 -12.8,-13.1c0,-7.23493 5.73076,-13.1 12.8,-13.1c7.06924,0 12.8,5.86507 12.8,13.1z" fill="#a5b2b5" stroke="#ffffff" stroke-width="8.5" stroke-linecap="butt"/><path d="M255.32,160.83003c0,4.22412 -3.3459,7.64844 -7.47328,7.64844c-4.12738,0 -7.47328,-3.42432 -7.47328,-7.64844c0,-4.22412 3.3459,-7.64844 7.47328,-7.64844c4.12738,0 7.47328,3.42432 7.47328,7.64844z" fill="#5a6163" stroke="#ffffff" stroke-width="8.5" stroke-linecap="butt"/><path d="M214.04582,186.69259c9.26151,-9.00663 34.11602,-32.28924 42.13693,-30.85405c9.29388,1.66297 10.01156,7.40518 9.60301,10.87017c-0.1583,1.34262 -1.28662,2.90631 -2.48149,3.92816c-2.34772,2.00777 -22.01129,17.26013 -28.12783,22.22748c-1.16787,0.94845 -1.36136,0.47084 -2.30205,-0.78343c-0.60107,-0.80143 -1.62501,-1.52846 -3.36685,-1.75879c-1.73633,-0.22959 -7.98397,-0.03842 -12.88851,-0.00839c-3.2985,0.0202 -4.77795,-1.47708 -2.57321,-3.62114z" fill="#acb2b6" stroke="#ffffff" stroke-width="8.5" stroke-linecap="butt"/><path d="M214.04581,186.69258c9.26152,-9.00663 34.11601,-32.28924 42.13692,-30.85405c9.29388,1.66297 10.01156,7.40518 9.60302,10.87017c-0.1583,1.34262 -1.28663,2.90631 -2.48149,3.92816c-2.34772,2.00777 -22.01129,17.26013 -28.12782,22.22748c-1.16788,0.94845 -1.36136,0.47084 -2.30205,-0.78343c-0.60107,-0.80143 -1.62501,-1.52846 -3.36685,-1.75878c-1.73633,-0.22959 -7.98397,-0.03842 -12.88851,-0.00839c-3.2985,0.0202 -4.77795,-1.47708 -2.57321,-3.62114z" fill="none" stroke="#ffffff" stroke-width="8.5" stroke-linecap="butt"/><path d="M228.7878,176.02685c0.08962,-1.0634 0.02643,-2.7382 -0.61534,-5.12336c-1.10587,-3.61472 -3.38593,-9.37355 -4.45079,-12.01237c-0.3521,-0.87253 0.08845,-0.33109 1.04351,1.12472c1.65346,2.52037 4.19192,6.18853 5.72397,7.42461c1.75948,1.41958 4.72918,1.77074 6.29314,1.85527c0.6322,0.03417 0.91351,0.57021 0.77457,1.39835c-0.26823,1.5988 -0.6026,4.25129 -0.25874,6.06686c0.49371,2.60676 2.28526,7.86887 3.50437,11.30148c0.67949,1.91321 0.23368,1.2793 -1.02202,-1.05561c-1.36292,-2.53431 -2.92229,-5.32151 -4.19398,-6.62001c-1.58711,-1.62058 -4.64356,-2.31427 -6.2605,-2.48502c-0.71085,-0.07506 -0.62257,-0.87386 -0.53821,-1.87493z" fill="#0dcd73" stroke="#ffffff" stroke-width="8.5" stroke-linecap="butt"/><path d="M202.98666,186.33837c0,-7.57725 0,-30.71945 0,-34.6c0,-1.08182 0.85945,-2 2,-2c6.01197,0 56.8805,0 67.9,0c1.34828,0 2.1,0.91818 2.1,2c0,3.95155 0,27.8759 0,35c0,1.26475 -1.09904,2 -2.5,2c-6.61508,0 -57.12091,0 -67.6,0c-1.22228,0 -1.9,-0.89158 -1.9,-2.4z" fill="#5d6465" stroke="#373a3e" stroke-width="2.5" stroke-linecap="butt"/><path d="M217.28665,170.13837v-20h9v20z" fill="#e7efef" stroke="none" stroke-width="0" stroke-linecap="butt"/><path d="M193.18663,207.16208c0,0.44848 0.23146,0.80291 0.69441,1.06331c0.46294,0.24595 1.49732,0.5642 3.10312,0.9548c3.13927,0.76674 4.70894,2.06875 4.70894,3.90602c0,1.46115 -0.52804,2.58232 -1.58411,3.36353c-1.05606,0.78121 -2.53167,1.17181 -4.42682,1.17181c-1.92407,0 -3.37799,-0.39783 -4.36172,-1.1935c-0.96926,-0.79567 -1.4539,-1.63474 -1.4539,-2.51722c0,-0.37614 0.1302,-0.70164 0.3906,-0.9765c0.27486,-0.27486 0.61485,-0.4123 1.01991,-0.4123c0.53526,0 1.00545,0.33997 1.41052,1.01991c0.46294,0.73781 0.96205,1.22967 1.49732,1.47561c0.54975,0.23147 1.14286,0.3472 1.77941,0.3472c0.67995,0 1.23691,-0.15188 1.67092,-0.45569c0.43401,-0.30381 0.651,-0.69441 0.651,-1.17181c0,-0.43401 -0.18084,-0.80289 -0.5425,-1.1067c-0.36166,-0.31825 -1.3671,-0.66545 -3.01631,-1.0416c-1.63475,-0.37614 -2.82825,-0.90418 -3.58051,-1.58411c-0.75226,-0.67993 -1.1284,-1.49006 -1.1284,-2.43041c0,-1.05606 0.45571,-1.98917 1.36711,-2.79931c0.92586,-0.81014 2.30022,-1.21521 4.12303,-1.21521c1.67815,0 3.01632,0.3472 4.01453,1.04161c0.99821,0.67995 1.49732,1.3888 1.49732,2.12661c0,0.37615 -0.1302,0.70164 -0.3906,0.97651c-0.24595,0.2604 -0.59315,0.3906 -1.04161,0.3906c-0.66547,0 -1.26584,-0.38337 -1.8011,-1.1501c-0.53526,-0.76673 -1.3454,-1.1501 -2.43041,-1.1501c-0.57866,0 -1.085,0.12296 -1.519,0.36891c-0.43401,0.23147 -0.65101,0.5642 -0.65101,0.99821zM214.23875,211.43701h-6.77044c0.02894,1.28755 0.37615,2.25681 1.04161,2.90781c0.67995,0.651 1.49006,0.97652 2.43041,0.97652c1.15735,0 2.24236,-0.50633 3.25502,-1.51901c0.41954,-0.41953 0.72335,-0.67993 0.91141,-0.7812c0.20254,-0.10126 0.42676,-0.15189 0.67271,-0.15189c0.31825,0 0.58591,0.10128 0.80291,0.30381c0.217,0.18807 0.32551,0.42676 0.32551,0.71611c0,0.76674 -0.52804,1.58411 -1.5841,2.45212c-1.05606,0.85353 -2.49551,1.28032 -4.31832,1.28032c-2.31467,0 -4.07239,-0.651 -5.27312,-1.95301c-1.18626,-1.31646 -1.77941,-3.00907 -1.77941,-5.07783c0,-2.09767 0.59315,-3.79028 1.77941,-5.07783c1.20075,-1.30201 2.86442,-1.953 4.99103,-1.953c2.03981,0 3.60946,0.61483 4.70894,1.84452c1.11395,1.22968 1.67091,2.56061 1.67091,3.99282c0,0.62207 -0.18805,1.12117 -0.5642,1.49732c-0.36166,0.36167 -1.12841,0.54251 -2.30022,0.54251zM207.46831,209.484h6.29304c-0.0434,-1.15733 -0.36167,-2.03257 -0.95481,-2.6257c-0.59314,-0.6076 -1.3237,-0.91141 -2.1917,-0.91141c-1.82281,0 -2.87165,1.17904 -3.14651,3.53713zM230.91576,211.82761c0.41954,0 0.76675,0.16637 1.04161,0.49911c0.28934,0.33274 0.434,0.67271 0.434,1.01991c0,0.92587 -0.5642,1.87344 -1.69261,2.84272c-1.11395,0.95481 -2.61125,1.43221 -4.49192,1.43221c-2.27127,0 -3.98559,-0.64377 -5.14292,-1.9313c-1.15735,-1.28753 -1.73602,-2.95845 -1.73602,-5.01272c0,-2.08321 0.60037,-3.79028 1.80112,-5.12123c1.20075,-1.33094 2.90781,-1.99641 5.12123,-1.99641c1.72155,0 3.14652,0.4557 4.27493,1.36711c1.1284,0.89694 1.69261,1.77941 1.69261,2.64741c0,0.41954 -0.15189,0.77397 -0.4557,1.06332c-0.30381,0.27487 -0.66546,0.41231 -1.085,0.41231c-0.50635,0 -0.90417,-0.20977 -1.1935,-0.6293c-0.62206,-0.96926 -1.17904,-1.57686 -1.6709,-1.82281c-0.49186,-0.2604 -1.0199,-0.3906 -1.5841,-0.3906c-1.09946,0 -1.95302,0.42677 -2.56062,1.28032c-0.59314,0.83908 -0.88969,1.88792 -0.88969,3.14652c0,1.30201 0.31104,2.36532 0.93311,3.18993c0.63655,0.81015 1.47561,1.21521 2.51721,1.21521c0.59314,0 1.14287,-0.13744 1.64921,-0.4123c0.50635,-0.28933 0.94035,-0.7161 1.30201,-1.2803c0.37615,-0.57866 0.67271,-0.9765 0.88971,-1.1935c0.217,-0.217 0.49912,-0.3255 0.84632,-0.3255zM235.31051,212.47862v-6.05433c0,-0.75226 0.02894,-1.29477 0.0868,-1.6275c0.05785,-0.33273 0.23146,-0.62206 0.5208,-0.86801c0.30381,-0.24594 0.66546,-0.3689 1.085,-0.3689c0.40506,0 0.75951,0.11575 1.06332,0.34721c0.31825,0.23147 0.51356,0.53527 0.58591,0.91141c0.07235,0.36167 0.10851,0.91864 0.10851,1.67092v4.75233c0,1.56241 0.23871,2.56061 0.71611,2.99462c0.49186,0.43401 1.02715,0.651 1.60582,0.651c0.66547,0 1.24415,-0.18805 1.73601,-0.5642c0.50635,-0.37614 0.84631,-0.8246 1.01991,-1.34541c0.18805,-0.53526 0.28211,-1.57687 0.28211,-3.12482v-3.42863c0,-0.73781 0.03616,-1.2803 0.10851,-1.6275c0.07235,-0.3472 0.26039,-0.63653 0.5642,-0.868c0.30381,-0.24594 0.66547,-0.3689 1.08501,-0.3689c0.3906,0 0.7378,0.11575 1.04161,0.34721c0.31825,0.23147 0.50635,0.52081 0.5642,0.86801c0.07235,0.33274 0.10851,0.88247 0.10851,1.6492v8.52815c0,0.6944 -0.03616,1.20074 -0.10849,1.51901c-0.07235,0.30381 -0.23869,0.57144 -0.49909,0.80291c-0.2604,0.23147 -0.59315,0.3472 -0.99821,0.3472c-1.11395,0 -1.64921,-0.8029 -1.60581,-2.40871c-1.15735,1.60581 -2.68358,2.40872 -4.57872,2.40872c-1.24415,0 -2.30745,-0.37613 -3.18991,-1.12841c-0.86801,-0.75226 -1.30201,-2.09045 -1.30201,-4.01452zM251.0253,214.75712v-8.85365c0,-1.56241 0.57144,-2.34361 1.71432,-2.34361c1.08501,0 1.64197,0.72334 1.67091,2.17002c0.70886,-1.44667 1.69984,-2.17002 2.97292,-2.17002c0.66546,0 1.35265,0.18084 2.06152,0.54251c0.70886,0.3472 1.06331,0.82461 1.06331,1.43221c0,0.41954 -0.14466,0.76675 -0.434,1.04161c-0.27486,0.27487 -0.57866,0.41231 -0.91141,0.41231c-0.18806,0 -0.52803,-0.07234 -1.01989,-0.21701c-0.4774,-0.15913 -0.88247,-0.23869 -1.21521,-0.23869c-0.82461,0 -1.43945,0.41955 -1.8445,1.25861c-0.40506,0.83908 -0.60761,2.45212 -0.60761,4.83913v1.99641c0,0.88248 -0.03616,1.4756 -0.10849,1.77941c-0.07235,0.30381 -0.2604,0.58592 -0.5642,0.84632c-0.30381,0.24594 -0.651,0.36891 -1.04161,0.36891c-0.37615,0 -0.71609,-0.1085 -1.0199,-0.3255c-0.30381,-0.23147 -0.4991,-0.49909 -0.5859,-0.8029c-0.0868,-0.31827 -0.1302,-0.89693 -0.1302,-1.73601zM264.15293,198.59053c0.44846,0 0.83184,0.16637 1.15011,0.49911c0.33274,0.33274 0.49911,0.72335 0.49911,1.17181c0,0.46294 -0.16636,0.86077 -0.4991,1.19352c-0.31826,0.33274 -0.70164,0.49911 -1.1501,0.49911c-0.46294,0 -0.86077,-0.16637 -1.1935,-0.4991c-0.33274,-0.33273 -0.49909,-0.73057 -0.49909,-1.1935c0,-0.44846 0.16636,-0.83906 0.4991,-1.1718c0.33274,-0.33273 0.73057,-0.4991 1.19351,-0.4991zM265.84554,206.38087v8.37624c0,0.8246 -0.03616,1.38881 -0.10849,1.69262c-0.07234,0.30381 -0.26765,0.57867 -0.5859,0.8246c-0.30381,0.23147 -0.63655,0.3472 -0.9982,0.3472c-0.37615,0 -0.72335,-0.11572 -1.04161,-0.3472c-0.31826,-0.23147 -0.5208,-0.50633 -0.6076,-0.8246c-0.07234,-0.31827 -0.10849,-0.88247 -0.10849,-1.69262v-8.33284c0,-0.76673 0.02895,-1.30925 0.0868,-1.6275c0.05786,-0.31825 0.2387,-0.60037 0.5425,-0.8463c0.31826,-0.2604 0.67995,-0.3906 1.08501,-0.3906c0.40506,0 0.75226,0.11575 1.04161,0.34721c0.30381,0.217 0.49186,0.49912 0.5642,0.84632c0.0868,0.3472 0.1302,0.88971 0.1302,1.62751zM269.98094,203.86366v-2.0615c0,-0.85353 0.03617,-1.4322 0.10851,-1.73601c0.07234,-0.31825 0.2604,-0.59314 0.56421,-0.82461c0.30381,-0.24594 0.65824,-0.3689 1.06331,-0.3689c0.36166,0 0.69441,0.10851 0.99821,0.32551c0.30381,0.217 0.4991,0.48464 0.58589,0.80292c0.10125,0.31827 0.1519,0.8246 0.1519,1.519v2.34361h0.67271c0.83906,0 1.39605,0.10851 1.67092,0.32551c0.27486,0.20254 0.41231,0.49911 0.41231,0.88971c0,0.85354 -0.70887,1.28032 -2.12662,1.28032h-0.6293v6.37984c0,0.86801 0.05786,1.46115 0.1736,1.77941c0.1302,0.30381 0.45571,0.45571 0.97652,0.45571c0.2604,0 0.54251,-0.03617 0.84631,-0.1085c0.31826,-0.07233 0.55696,-0.10849 0.71611,-0.10849c0.3472,0 0.62932,0.11574 0.84632,0.3472c0.217,0.217 0.32551,0.48463 0.32551,0.80291c0,1.14288 -1.1935,1.71432 -3.58051,1.71432c-1.15735,0 -2.01087,-0.217 -2.56061,-0.651c-0.53526,-0.43401 -0.87524,-0.95481 -1.0199,-1.56241c-0.1302,-0.62206 -0.19529,-1.42497 -0.19529,-2.4087v-6.64024h-0.45569c-1.01267,0 -1.51901,-0.4123 -1.51901,-1.2369c0,-0.83906 0.53526,-1.25861 1.60581,-1.25861zM282.10436,217.27434l-4.23152,-10.69816c-0.2604,-0.6944 -0.3906,-1.17181 -0.3906,-1.43221c0,-0.40506 0.15913,-0.76673 0.4774,-1.085c0.33273,-0.33273 0.72333,-0.4991 1.17181,-0.4991c0.3906,0 0.72334,0.12296 0.99821,0.36891c0.27486,0.24595 0.54251,0.7378 0.80291,1.47561l2.92952,8.50645l2.75592,-7.87713c0.36166,-1.04161 0.65101,-1.7143 0.86801,-2.01811c0.217,-0.30381 0.58591,-0.45569 1.10672,-0.45569c0.4774,0 0.85353,0.15915 1.1284,0.4774c0.27486,0.31827 0.41231,0.64377 0.41231,0.97651c0,0.3906 -0.13743,0.94035 -0.41229,1.64921l-4.51363,11.80487c-0.59314,1.56241 -1.2152,2.66189 -1.8662,3.29842c-0.63655,0.651 -1.72878,0.97651 -3.27672,0.97651c-1.99641,0 -2.99462,-0.51357 -2.99462,-1.5407c0,-0.33273 0.10852,-0.61483 0.32551,-0.84629c0.23146,-0.23147 0.53526,-0.3472 0.91141,-0.3472c0.05786,0 0.25317,0.01447 0.58591,0.0434c0.33273,0.02893 0.52804,0.0434 0.58591,0.0434c0.63653,0 1.10671,-0.15913 1.41052,-0.4774c0.30381,-0.30381 0.60037,-0.83184 0.88971,-1.5841z" fill="#ffffff" stroke="#000000" stroke-width="3.25" stroke-linecap="square"/><path d="M193.18663,207.16208c0,0.44848 0.23147,0.80292 0.6944,1.06332c0.46295,0.24595 1.49731,0.5642 3.10312,0.9548c3.13928,0.76674 4.70894,2.06876 4.70894,3.90602c0,1.46114 -0.52804,2.58232 -1.5841,3.36353c-1.05606,0.78121 -2.53168,1.17181 -4.42683,1.17181c-1.92407,0 -3.37798,-0.39784 -4.36173,-1.1935c-0.96926,-0.79567 -1.45389,-1.63473 -1.45389,-2.51721c0,-0.37614 0.1302,-0.70165 0.3906,-0.97651c0.27486,-0.27486 0.61484,-0.41229 1.01991,-0.41229c0.53526,0 1.00544,0.33997 1.41051,1.01991c0.46295,0.73781 0.96204,1.22967 1.49731,1.4756c0.54974,0.23147 1.14286,0.34721 1.77942,0.34721c0.67994,0 1.23692,-0.15188 1.67092,-0.45569c0.434,-0.3038 0.651,-0.6944 0.651,-1.17181c0,-0.434 -0.18084,-0.80289 -0.54249,-1.1067c-0.36166,-0.31825 -1.3671,-0.66546 -3.0163,-1.0416c-1.63476,-0.37614 -2.82826,-0.90417 -3.58052,-1.5841c-0.75226,-0.67993 -1.12841,-1.49006 -1.12841,-2.43042c0,-1.05606 0.45571,-1.98918 1.36712,-2.79931c0.92586,-0.81014 2.30022,-1.2152 4.12302,-1.2152c1.67815,0 3.01632,0.34721 4.01452,1.04161c0.99821,0.67994 1.49732,1.38881 1.49732,2.12661c0,0.37615 -0.1302,0.70164 -0.3906,0.97651c-0.24595,0.2604 -0.59315,0.3906 -1.04161,0.3906c-0.66547,0 -1.26584,-0.38336 -1.8011,-1.1501c-0.53526,-0.76674 -1.3454,-1.1501 -2.43042,-1.1501c-0.57866,0 -1.085,0.12296 -1.51901,0.36891c-0.434,0.23147 -0.651,0.5642 -0.651,0.99821zM214.23875,211.43701h-6.77045c0.02894,1.28755 0.37615,2.25681 1.04161,2.90781c0.67994,0.651 1.49006,0.97652 2.43042,0.97652c1.15735,0 2.24235,-0.50634 3.25502,-1.51901c0.41954,-0.41953 0.72335,-0.67993 0.91141,-0.7812c0.20254,-0.10127 0.42676,-0.15189 0.67271,-0.15189c0.31825,0 0.58591,0.10127 0.80291,0.3038c0.21701,0.18807 0.32551,0.42677 0.32551,0.71611c0,0.76674 -0.52805,1.58411 -1.5841,2.45211c-1.05606,0.85353 -2.4955,1.28031 -4.31831,1.28031c-2.31466,0 -4.07238,-0.651 -5.27312,-1.95301c-1.18626,-1.31646 -1.77942,-3.00908 -1.77942,-5.07783c0,-2.09767 0.59315,-3.79028 1.77942,-5.07783c1.20075,-1.30201 2.86442,-1.95302 4.99103,-1.95302c2.03982,0 3.60946,0.61484 4.70894,1.84452c1.11395,1.22967 1.67091,2.56061 1.67091,3.99282c0,0.62207 -0.18805,1.12117 -0.5642,1.49732c-0.36166,0.36167 -1.12841,0.54251 -2.30022,0.54251zM207.46831,209.484h6.29304c-0.0434,-1.15734 -0.36166,-2.03257 -0.9548,-2.6257c-0.59315,-0.60761 -1.3237,-0.91141 -2.19171,-0.91141c-1.82281,0 -2.87165,1.17905 -3.1465,3.53713zM230.91576,211.82761c0.41954,0 0.76675,0.16637 1.04161,0.49911c0.28934,0.33274 0.434,0.67271 0.434,1.0199c0,0.92587 -0.5642,1.87345 -1.69261,2.84272c-1.11395,0.9548 -2.61125,1.43221 -4.49192,1.43221c-2.27127,0 -3.98559,-0.64377 -5.14292,-1.93131c-1.15735,-1.28754 -1.73601,-2.95845 -1.73601,-5.01272c0,-2.08321 0.60037,-3.79029 1.80112,-5.12123c1.20075,-1.33094 2.90781,-1.99641 5.12123,-1.99641c1.72155,0 3.14652,0.45571 4.27492,1.36712c1.12841,0.89694 1.69261,1.77942 1.69261,2.64741c0,0.41954 -0.15189,0.77396 -0.4557,1.06331c-0.3038,0.27487 -0.66547,0.41231 -1.08501,0.41231c-0.50635,0 -0.90416,-0.20977 -1.19349,-0.6293c-0.62206,-0.96926 -1.17905,-1.57686 -1.6709,-1.82281c-0.49186,-0.2604 -1.0199,-0.3906 -1.5841,-0.3906c-1.09946,0 -1.95301,0.42677 -2.56061,1.28031c-0.59315,0.83907 -0.8897,1.88792 -0.8897,3.14653c0,1.30201 0.31104,2.36533 0.93312,3.18993c0.63655,0.81015 1.47561,1.2152 2.51721,1.2152c0.59315,0 1.14285,-0.13744 1.64921,-0.41229c0.50635,-0.28933 0.94035,-0.7161 1.30201,-1.2803c0.37615,-0.57866 0.67271,-0.9765 0.8897,-1.1935c0.21701,-0.21701 0.49911,-0.32549 0.84632,-0.32549zM235.31051,212.47862v-6.05432c0,-0.75226 0.02894,-1.29477 0.0868,-1.62751c0.05785,-0.33273 0.23146,-0.62206 0.5208,-0.86801c0.3038,-0.24594 0.66546,-0.3689 1.085,-0.3689c0.40506,0 0.7595,0.11575 1.06331,0.34721c0.31825,0.23147 0.51356,0.53527 0.58591,0.91141c0.07235,0.36167 0.1085,0.91864 0.1085,1.67091v4.75233c0,1.56241 0.2387,2.56061 0.71611,2.99462c0.49186,0.434 1.02715,0.65101 1.60581,0.65101c0.66547,0 1.24415,-0.18805 1.73601,-0.5642c0.50635,-0.37614 0.84631,-0.8246 1.01991,-1.34541c0.18805,-0.53526 0.28211,-1.57687 0.28211,-3.12482v-3.42862c0,-0.73781 0.03616,-1.2803 0.1085,-1.6275c0.07235,-0.34721 0.2604,-0.63654 0.5642,-0.86801c0.3038,-0.24594 0.66546,-0.36889 1.085,-0.36889c0.3906,0 0.73781,0.11574 1.04161,0.34721c0.31825,0.23147 0.50635,0.5208 0.5642,0.86801c0.07235,0.33274 0.10851,0.88247 0.10851,1.64921v8.52816c0,0.6944 -0.03617,1.20074 -0.1085,1.51901c-0.07235,0.3038 -0.23869,0.57144 -0.49909,0.80291c-0.2604,0.23147 -0.59315,0.34721 -0.99821,0.34721c-1.11395,0 -1.64922,-0.80289 -1.60581,-2.40871c-1.15735,1.60581 -2.68358,2.40872 -4.57871,2.40872c-1.24416,0 -2.30745,-0.37614 -3.18992,-1.12841c-0.86801,-0.75226 -1.30201,-2.09045 -1.30201,-4.01452zM251.0253,214.75712v-8.85364c0,-1.56241 0.57144,-2.34361 1.71432,-2.34361c1.085,0 1.64197,0.72335 1.67091,2.17002c0.70886,-1.44667 1.69984,-2.17002 2.97292,-2.17002c0.66546,0 1.35265,0.18084 2.06152,0.54251c0.70886,0.34721 1.06331,0.8246 1.06331,1.43221c0,0.41954 -0.14466,0.76675 -0.434,1.04161c-0.27486,0.27487 -0.57866,0.41231 -0.91141,0.41231c-0.18806,0 -0.52804,-0.07233 -1.01989,-0.21701c-0.4774,-0.15913 -0.88246,-0.23869 -1.21521,-0.23869c-0.8246,0 -1.43945,0.41954 -1.8445,1.25861c-0.40506,0.83907 -0.60761,2.45212 -0.60761,4.83914v1.99641c0,0.88248 -0.03616,1.47561 -0.10849,1.77942c-0.07235,0.3038 -0.2604,0.58591 -0.5642,0.84631c-0.3038,0.24594 -0.651,0.36891 -1.04161,0.36891c-0.37615,0 -0.7161,-0.1085 -1.0199,-0.3255c-0.3038,-0.23147 -0.49909,-0.49909 -0.5859,-0.80289c-0.0868,-0.31828 -0.1302,-0.89694 -0.1302,-1.73601zM264.15294,198.59053c0.44846,0 0.83184,0.16637 1.15011,0.49911c0.33274,0.33274 0.4991,0.72335 0.4991,1.17181c0,0.46295 -0.16637,0.86077 -0.4991,1.19351c-0.31826,0.33274 -0.70164,0.49911 -1.1501,0.49911c-0.46295,0 -0.86077,-0.16637 -1.1935,-0.4991c-0.33274,-0.33273 -0.49909,-0.73057 -0.49909,-1.1935c0,-0.44846 0.16637,-0.83906 0.4991,-1.1718c0.33274,-0.33273 0.73057,-0.4991 1.19351,-0.4991zM265.84555,206.38087v8.37625c0,0.8246 -0.03617,1.38881 -0.10849,1.69261c-0.07234,0.3038 -0.26764,0.57868 -0.5859,0.8246c-0.3038,0.23147 -0.63655,0.34721 -0.99821,0.34721c-0.37615,0 -0.72335,-0.11573 -1.04161,-0.34721c-0.31826,-0.23147 -0.5208,-0.50633 -0.60761,-0.8246c-0.07234,-0.31828 -0.10849,-0.88246 -0.10849,-1.69261v-8.33284c0,-0.76674 0.02894,-1.30925 0.08681,-1.62751c0.05786,-0.31825 0.2387,-0.60036 0.54251,-0.8463c0.31826,-0.2604 0.67994,-0.39061 1.085,-0.39061c0.40506,0 0.75227,0.11575 1.04161,0.34721c0.3038,0.21701 0.49187,0.4991 0.5642,0.84631c0.08681,0.34721 0.1302,0.88971 0.1302,1.62752zM269.98094,203.86366v-2.06151c0,-0.85353 0.03617,-1.43221 0.10851,-1.73601c0.07234,-0.31825 0.2604,-0.59313 0.5642,-0.8246c0.3038,-0.24594 0.65824,-0.36889 1.06331,-0.36889c0.36167,0 0.6944,0.1085 0.99821,0.3255c0.3038,0.21701 0.49909,0.48464 0.5859,0.80292c0.10127,0.31828 0.1519,0.8246 0.1519,1.51901v2.34361h0.67271c0.83906,0 1.39605,0.10851 1.67092,0.32551c0.27486,0.20254 0.41231,0.4991 0.41231,0.8897c0,0.85355 -0.70886,1.28031 -2.12661,1.28031h-0.62929v6.37984c0,0.86801 0.05785,1.46114 0.17359,1.77942c0.1302,0.3038 0.45571,0.45571 0.97652,0.45571c0.2604,0 0.54251,-0.03616 0.84631,-0.10849c0.31826,-0.07233 0.55697,-0.1085 0.71611,-0.1085c0.3472,0 0.62931,0.11574 0.84631,0.34721c0.217,0.21701 0.32551,0.48464 0.32551,0.80292c0,1.14288 -1.19349,1.71432 -3.58051,1.71432c-1.15735,0 -2.01087,-0.21701 -2.56061,-0.651c-0.53526,-0.434 -0.87524,-0.9548 -1.0199,-1.56241c-0.1302,-0.62206 -0.1953,-1.42497 -0.1953,-2.40871v-6.64024h-0.45569c-1.01266,0 -1.51901,-0.4123 -1.51901,-1.23691c0,-0.83906 0.53526,-1.25861 1.6058,-1.25861zM282.10436,217.27434l-4.23152,-10.69816c-0.2604,-0.6944 -0.3906,-1.17181 -0.3906,-1.43221c0,-0.40506 0.15912,-0.76673 0.4774,-1.085c0.33272,-0.33273 0.72333,-0.4991 1.17181,-0.4991c0.3906,0 0.72333,0.12296 0.99821,0.36891c0.27486,0.24595 0.54251,0.73781 0.80291,1.47561l2.92953,8.50645l2.75592,-7.87713c0.36167,-1.04161 0.651,-1.7143 0.86801,-2.01811c0.217,-0.3038 0.58591,-0.45569 1.10672,-0.45569c0.4774,0 0.85353,0.15913 1.12841,0.47741c0.27486,0.31828 0.41231,0.64377 0.41231,0.97651c0,0.3906 -0.13744,0.94035 -0.41229,1.64921l-4.51362,11.80487c-0.59315,1.56241 -1.21521,2.66188 -1.86621,3.29842c-0.63655,0.651 -1.72878,0.97651 -3.27671,0.97651c-1.99641,0 -2.99462,-0.51356 -2.99462,-1.5407c0,-0.33273 0.1085,-0.61484 0.32551,-0.8463c0.23147,-0.23147 0.53526,-0.34721 0.91141,-0.34721c0.05786,0 0.25317,0.01447 0.58591,0.0434c0.33272,0.02893 0.52805,0.0434 0.58591,0.0434c0.63653,0 1.10671,-0.15913 1.41051,-0.47741c0.3038,-0.3038 0.60037,-0.83184 0.8897,-1.58409z" fill="#ffffff" stroke="none" stroke-width="1" stroke-linecap="square"/><path d="M224.28665,164.53837v-7.4h22.6v7.4z" fill="#e7efef" stroke="none" stroke-width="0" stroke-linecap="butt"/><path d="M203.68665,171.13837v-2.6h70.8v2.6z" fill="#a5aeb5" stroke="none" stroke-width="0" stroke-linecap="butt"/><path d="M233.68666,176.73836v8h-30v-8z" fill="#e7efef" stroke="none" stroke-width="0" stroke-linecap="butt"/><path d="M273.88665,175.93837v5.6h-40.8v-5.6z" fill="#e7efef" stroke="none" stroke-width="0" stroke-linecap="butt"/><path d="M250.78665,188.73837v-9.8h9.4v9.8z" fill="#e7efef" stroke="none" stroke-width="0" stroke-linecap="butt"/><path d="M203.68666,176.73837v-6.6h70.8v6.6z" fill="#5c6365" stroke="none" stroke-width="0" stroke-linecap="butt"/><path d="M202.98666,186.33837c0,-7.57725 0,-30.71945 0,-34.6c0,-1.08182 0.85945,-2 2,-2c6.01197,0 56.88051,0 67.9,0c1.34828,0 2.1,0.91818 2.1,2c0,3.95155 0,27.8759 0,35c0,1.26475 -1.09904,2 -2.5,2c-6.61508,0 -57.12091,0 -67.6,0c-1.22227,0 -1.9,-0.89158 -1.9,-2.4z" fill="none" stroke="#282b2d" stroke-width="4" stroke-linecap="butt"/><g stroke-linecap="butt"><path d="M260.71998,160.90503c0,7.23493 -5.73076,13.1 -12.8,13.1c-7.06924,0 -12.8,-5.86507 -12.8,-13.1c0,-7.23493 5.73076,-13.1 12.8,-13.1c7.06924,0 12.8,5.86507 12.8,13.1z" fill="#a5b2b5" stroke="#393c39" stroke-width="2.5"/><path d="M255.31999,160.83003c0,4.22412 -3.3459,7.64844 -7.47328,7.64844c-4.12738,0 -7.47328,-3.42432 -7.47328,-7.64844c0,-4.22412 3.3459,-7.64844 7.47328,-7.64844c4.12738,0 7.47328,3.42432 7.47328,7.64844z" fill="#5a6163" stroke="none" stroke-width="0"/><path d="M214.04581,186.69259c9.26151,-9.00663 34.11602,-32.28924 42.13693,-30.85405c9.29388,1.66297 10.01156,7.40518 9.60301,10.87017c-0.1583,1.34262 -1.28662,2.90631 -2.48149,3.92816c-2.34772,2.00777 -22.01129,17.26013 -28.12783,22.22748c-1.16787,0.94845 -1.36136,0.47084 -2.30205,-0.78343c-0.60107,-0.80143 -1.62501,-1.52846 -3.36685,-1.75879c-1.73633,-0.22959 -7.98397,-0.03842 -12.88851,-0.00839c-3.2985,0.0202 -4.77795,-1.47708 -2.57321,-3.62114z" fill="#acb2b6" stroke="#393839" stroke-width="2.5"/><path d="M220.67698,189.99791c0,0 24.19185,-19.5763 30.87171,-24.98171c3.20981,-2.59741 2.58562,-1.59852 -0.8141,1.52211c-6.09855,5.59793 -25.55761,23.4596 -25.55761,23.4596z" fill="#5a6163" stroke="none" stroke-width="0"/><path d="M214.04581,186.69258c9.26151,-9.00663 34.11601,-32.28924 42.13692,-30.85405c9.29388,1.66297 10.01156,7.40518 9.60302,10.87017c-0.1583,1.34262 -1.28662,2.90631 -2.48149,3.92816c-2.34772,2.00777 -22.01129,17.26013 -28.12783,22.22748c-1.16787,0.94845 -1.36136,0.47084 -2.30205,-0.78343c-0.60107,-0.80143 -1.62501,-1.52846 -3.36685,-1.75879c-1.73633,-0.22959 -7.98397,-0.03842 -12.88851,-0.00839c-3.2985,0.0202 -4.77795,-1.47708 -2.57321,-3.62114z" fill="none" stroke="#393839" stroke-width="2.5"/><path d="M228.78779,176.02685c0.08961,-1.0634 0.02643,-2.7382 -0.61534,-5.12336c-1.10588,-3.61472 -3.38593,-9.37355 -4.45079,-12.01237c-0.3521,-0.87253 0.08845,-0.3311 1.04352,1.12472c1.65346,2.52037 4.19192,6.18853 5.72397,7.42462c1.75948,1.41958 4.72919,1.77074 6.29315,1.85527c0.6322,0.03417 0.91351,0.57021 0.77457,1.39835c-0.26823,1.5988 -0.6026,4.25129 -0.25874,6.06687c0.4937,2.60676 2.28526,7.86887 3.50437,11.30148c0.67949,1.91321 0.23368,1.27929 -1.02202,-1.05562c-1.36293,-2.53431 -2.92229,-5.3215 -4.19397,-6.62001c-1.58711,-1.62058 -4.64357,-2.31427 -6.2605,-2.48502c-0.71085,-0.07506 -0.62257,-0.87386 -0.53821,-1.87493z" fill="#0dcd73" stroke="#1e5940" stroke-width="1.5"/></g></g></g></svg>