<svg version="1.1" xmlns="http://www.w3.org/2000/svg" xmlns:xlink="http://www.w3.org/1999/xlink" width="81" height="71.83929" viewBox="0,0,81,71.83929"><defs><radialGradient cx="219.25387" cy="176.19736" r="2.5" gradientUnits="userSpaceOnUse" id="color-1"><stop offset="0" stop-color="#257393"/><stop offset="1" stop-color="#257393" stop-opacity="0"/></radialGradient><radialGradient cx="224.37151" cy="173.315" r="2.5" gradientUnits="userSpaceOnUse" id="color-2"><stop offset="0" stop-color="#257393"/><stop offset="1" stop-color="#257393" stop-opacity="0"/></radialGradient><radialGradient cx="228.8421" cy="170.60912" r="2.5" gradientUnits="userSpaceOnUse" id="color-3"><stop offset="0" stop-color="#257393"/><stop offset="1" stop-color="#257393" stop-opacity="0"/></radialGradient><radialGradient cx="233.60681" cy="168.37382" r="2.5" gradientUnits="userSpaceOnUse" id="color-4"><stop offset="0" stop-color="#257393"/><stop offset="1" stop-color="#257393" stop-opacity="0"/></radialGradient></defs><g transform="translate(-194.55469,-148.68973)"><g data-paper-data="{&quot;isPaintingLayer&quot;:true}" fill-rule="nonzero" stroke-linecap="butt" stroke-linejoin="miter" stroke-miterlimit="10" stroke-dasharray="" stroke-dashoffset="0" style="mix-blend-mode: normal"><g><path d="M220.6114,191.79007c0,-1.91032 0,-10.41667 0,-10.41667l-3.41496,-10.45828c0,0 0.09807,-5.30793 3.70445,-6.9686c5.5228,-1.27919 3.9605,7.01022 3.9605,7.01022c0,0 0.96476,18.04898 -0.15715,20.20913c-0.65627,1.26357 -1.9081,1.77643 -2.8553,1.98408c-0.70258,0.15402 -1.23755,-0.63495 -1.23755,-1.35987z" fill="#757c8d" stroke="#000000" stroke-width="2"/><path d="M215.39662,172.69032c5.33459,-3.2945 16.01686,-9.56403 20.29223,-9.71918c0.55471,-0.02013 1.74493,0.1337 1.97139,0.51508c0.72142,1.21495 0.67257,4.88875 0.58968,6.83722c-0.03191,0.7501 -0.44968,1.56972 -0.68761,1.6879c-5.46101,2.71252 -14.97449,7.84113 -20.35017,10.76137c-1.5846,0.8608 -3.98086,0.44112 -4.15674,-5.57796c-0.04363,-1.4934 0.43168,-3.32516 2.34122,-4.50444z" fill="#566773" stroke="#1d2131" stroke-width="3.5"/><path d="M216.75387,176.19736c0,-1.38071 1.11929,-2.5 2.5,-2.5c1.38071,0 2.5,1.11929 2.5,2.5c0,1.38071 -1.11929,2.5 -2.5,2.5c-1.38071,0 -2.5,-1.11929 -2.5,-2.5z" fill="url(#color-1)" stroke="none" stroke-width="0.5"/><path d="M221.87151,173.315c0,-1.38071 1.11929,-2.5 2.5,-2.5c1.38071,0 2.5,1.11929 2.5,2.5c0,1.38071 -1.11929,2.5 -2.5,2.5c-1.38071,0 -2.5,-1.11929 -2.5,-2.5z" fill="url(#color-2)" stroke="none" stroke-width="0.5"/><path d="M226.3421,170.60912c0,-1.38071 1.11929,-2.5 2.5,-2.5c1.38071,0 2.5,1.11929 2.5,2.5c0,1.38071 -1.11929,2.5 -2.5,2.5c-1.38071,0 -2.5,-1.11929 -2.5,-2.5z" fill="url(#color-3)" stroke="none" stroke-width="0.5"/><path d="M231.10681,168.37382c0,-1.38071 1.11929,-2.5 2.5,-2.5c1.38071,0 2.5,1.11929 2.5,2.5c0,1.38071 -1.11929,2.5 -2.5,2.5c-1.38071,0 -2.5,-1.11929 -2.5,-2.5z" fill="url(#color-4)" stroke="none" stroke-width="0.5"/></g><path d="M194.55469,220.52902v-71.83929h81v71.83929z" fill="none" stroke="none" stroke-width="0"/></g></g></svg>