<svg version="1.1" xmlns="http://www.w3.org/2000/svg" xmlns:xlink="http://www.w3.org/1999/xlink" width="304.3003" height="304.30025" viewBox="0,0,304.3003,304.30025"><g transform="translate(-92.84985,-32.84988)"><g data-paper-data="{&quot;isPaintingLayer&quot;:true}" stroke-miterlimit="10" stroke-dasharray="" stroke-dashoffset="0" style="mix-blend-mode: normal"><path d="M251.19056,249.82758c-33.59046,-13.63109 -25.1395,-41.37538 -25.1395,-41.37538c0,0 26.03837,-26.43427 45.49052,-26.43427c19.25264,0 70.63001,26.43427 70.63001,26.43427c0,0 11.48962,21.89619 -2.4865,31.23943c-22.7729,15.22402 -68.85434,18.10599 -88.49454,10.13595z" fill="#94c9db" fill-rule="nonzero" stroke="none" stroke-width="0" stroke-linecap="butt" stroke-linejoin="miter"/><path d="M259.57038,220.91705c-2.72057,-12.92273 19.27172,-16.66737 37.91234,-12.19322c26.17019,6.28142 29.49666,20.07232 25.53497,21.77018c-8.33775,3.57332 -58.26378,15.04475 -63.4473,-9.57695z" fill="#fefefe" fill-rule="nonzero" stroke="none" stroke-width="0" stroke-linecap="butt" stroke-linejoin="miter"/><path d="M339.43799,193.78274c0,0 21.47336,5.60174 25.20785,23.3406c3.73449,17.73886 -11.20348,49.79327 -69.08817,60.99676c-75.31234,15.5604 -111.10125,-29.25355 -90.25032,-62.2416c20.85093,-33.29925 56.63985,-4.97932 82.78133,-6.84658c22.40697,-1.55604 24.89664,-21.16214 51.34932,-15.24919z" fill="#ffffff" fill-rule="evenodd" stroke="none" stroke-width="15" stroke-linecap="butt" stroke-linejoin="miter"/><path d="M251.91798,227.082c0,-1.24483 1.24484,-2.17846 2.48967,-1.86725c5.91295,2.17846 22.71818,7.15779 41.39066,8.40262c16.80523,0.93363 26.76389,0 31.43201,-0.93363c1.55604,-0.31121 2.80087,1.24483 2.17845,2.80087c-2.80087,8.40261 -14.62678,31.74322 -47.30362,29.87597c-28.31993,-3.11208 -31.1208,-23.02939 -30.18717,-38.27858z" fill="#ffffff" fill-rule="evenodd" stroke="#001026" stroke-width="15" stroke-linecap="round" stroke-linejoin="round"/><path d="M297.35434,200.94053c6.53537,0 13.38194,0.62241 13.69315,2.80087c0.31121,4.35691 -4.35691,13.07073 -9.33624,13.38194c-5.60174,0.62241 -18.67248,-7.15779 -18.67248,-12.13712c-0.31121,-3.73449 8.09141,-4.0457 14.31557,-4.0457z" fill="#001026" fill-rule="evenodd" stroke="#001026" stroke-width="15" stroke-linecap="round" stroke-linejoin="round"/><g fill-rule="evenodd" stroke-width="15"><path d="M334.07689,164.52919c9.02503,14.00436 9.33624,29.87597 0.62241,35.47771c-8.71382,5.60174 -23.02939,-0.93362 -32.36563,-14.93798c-9.02503,-14.00436 -9.33624,-29.87597 -0.62242,-35.47771c8.71382,-5.91295 23.3406,0.93362 32.36563,14.93798z" fill="#ffffff" stroke="#001026" stroke-linecap="round" stroke-linejoin="round"/><path d="M332.83205,182.26806c0,3.42329 -2.48966,6.22416 -5.60174,6.22416c-3.11208,0 -5.60175,-2.80087 -5.60175,-6.22416c0,-3.42329 2.48967,-6.22416 5.60175,-6.22416c3.11208,0 5.60174,2.80087 5.60174,6.22416" fill="#001026" stroke="none" stroke-linecap="butt" stroke-linejoin="miter"/></g><g fill-rule="evenodd" stroke-width="15"><path d="M256.8973,173.24302c9.33624,13.69315 8.71382,30.49838 0.3112,36.41133c-10.26986,5.91295 -23.96301,1.55604 -33.29925,-12.13711c-9.64745,-13.69315 -10.26987,-31.43201 -0.62242,-38.27858c9.64745,-7.15778 24.27423,0.31121 33.61047,14.00436z" fill="#ffffff" stroke="#001026" stroke-linecap="round" stroke-linejoin="round"/><path d="M255.03006,191.29309c0,3.42329 -2.48967,6.22416 -5.60174,6.22416c-3.11208,0 -5.60174,-2.80087 -5.60174,-6.22416c0,-3.42329 2.48966,-6.22416 5.60174,-6.22416c3.11208,0.31121 5.60174,2.80087 5.60174,6.22416" fill="#001026" stroke="none" stroke-linecap="butt" stroke-linejoin="miter"/></g><path d="M289.35951,92.97067c1.02296,-0.68197 2.72789,-0.34099 3.06887,1.02296l8.86565,36.48554c0,0 21.82313,16.02636 28.30187,27.27891c10.91156,18.75425 11.25256,34.09864 11.25256,34.09864c0,0 24.21003,7.16071 28.30187,26.59694c4.09184,19.43623 -10.91156,56.26276 -75.01701,68.87926c-64.10544,12.6165 -115.59439,-4.77381 -139.80442,-43.64626c-24.21004,-38.87245 13.98045,-85.2466 11.93453,-82.51871l-7.16072,-61.03656c-0.34099,-1.36394 1.36395,-2.3869 2.72789,-1.70493l41.25936,26.93792c0,0 15.34438,-5.79677 31.37075,-6.47874c9.54762,-0.68197 17.73129,0 25.57398,1.36394z" fill="#ffab19" fill-rule="evenodd" stroke="#001026" stroke-width="15" stroke-linecap="butt" stroke-linejoin="miter"/><path d="M289.35951,92.97067c1.02296,-0.68198 2.72789,-0.34099 3.06887,1.02295l8.86565,36.48555c0,0 21.82312,16.02637 28.30186,27.27891c10.91157,18.75425 11.25255,34.09864 11.25255,34.09864c0,0 24.21003,7.16071 28.30186,26.59693c4.09184,19.43623 -10.91157,56.26276 -75.01701,68.87926c-64.10544,12.6165 -115.59439,-4.77381 -139.80442,-43.64626c-24.21004,-38.87245 13.98044,-85.2466 11.93452,-82.51871l-7.16072,-61.03656c-0.34099,-1.36394 1.36395,-2.38691 2.72789,-1.70493l41.25936,26.93792c0,0 15.34439,-5.79677 31.37076,-6.47874c9.54762,-0.68197 17.7313,0 25.57398,1.36394z" fill="#ffab19" fill-rule="evenodd" stroke="#001026" stroke-width="7.5" stroke-linecap="butt" stroke-linejoin="miter"/><path d="M339.43799,193.78274c0,0 21.47335,5.60174 25.20785,23.3406c3.7345,17.73886 -11.20349,49.79328 -69.08818,60.99677c-75.31234,15.5604 -111.10126,-29.25355 -90.25032,-62.2416c20.85094,-33.29926 56.63986,-4.97933 82.78133,-6.84658c22.40698,-1.55604 24.89664,-21.16214 51.34932,-15.24919z" fill="#ffffff" fill-rule="evenodd" stroke="none" stroke-width="7.5" stroke-linecap="butt" stroke-linejoin="miter"/><path d="M251.91798,227.082c0,-1.24483 1.24483,-2.17846 2.48966,-1.86725c5.91295,2.17846 22.71818,7.15778 41.39066,8.40262c16.80523,0.93362 26.76389,0 31.43201,-0.93362c1.55604,-0.31121 2.80087,1.24483 2.17846,2.80087c-2.80087,8.40262 -14.62678,31.74322 -47.30362,29.87597c-28.31993,-3.11208 -31.1208,-23.02939 -30.18718,-38.27858z" fill="#ffffff" fill-rule="evenodd" stroke="#001026" stroke-width="7.5" stroke-linecap="round" stroke-linejoin="round"/><path d="M297.35434,200.94053c6.53537,0 13.38194,0.62242 13.69315,2.80087c0.31121,4.35691 -4.35691,13.07074 -9.33624,13.38194c-5.60174,0.62242 -18.67248,-7.15778 -18.67248,-12.13711c-0.31121,-3.7345 8.09141,-4.0457 14.31557,-4.0457z" fill="#001026" fill-rule="evenodd" stroke="#001026" stroke-width="7.5" stroke-linecap="round" stroke-linejoin="round"/><g fill-rule="evenodd" stroke-width="7.5"><path d="M334.07689,164.52919c9.02503,14.00436 9.33624,29.87597 0.62242,35.47771c-8.71382,5.60174 -23.02939,-0.93362 -32.36563,-14.93798c-9.02503,-14.00436 -9.33624,-29.87597 -0.62242,-35.47771c8.71382,-5.91295 23.3406,0.93362 32.36563,14.93798z" fill="#ffffff" stroke="#001026" stroke-linecap="round" stroke-linejoin="round"/><path d="M332.83205,182.26806c0,3.42329 -2.48966,6.22416 -5.60174,6.22416c-3.11208,0 -5.60174,-2.80087 -5.60174,-6.22416c0,-3.42329 2.48966,-6.22416 5.60174,-6.22416c3.11208,0 5.60174,2.80087 5.60174,6.22416" fill="#001026" stroke="none" stroke-linecap="butt" stroke-linejoin="miter"/></g><g fill-rule="evenodd" stroke-width="7.5"><path d="M256.8973,173.24304c9.33624,13.69315 8.71382,30.49838 0.31121,36.41134c-10.26986,5.91295 -23.96302,1.55604 -33.29926,-12.13711c-9.64745,-13.69315 -10.26986,-31.43201 -0.62242,-38.27858c9.64745,-7.15778 24.27422,0.31121 33.61046,14.00436z" fill="#ffffff" stroke="#001026" stroke-linecap="round" stroke-linejoin="round"/><path d="M255.03006,191.29309c0,3.42329 -2.48966,6.22416 -5.60174,6.22416c-3.11208,0 -5.60174,-2.80087 -5.60174,-6.22416c0,-3.42329 2.48966,-6.22416 5.60174,-6.22416c3.11208,0.31121 5.60174,2.80087 5.60174,6.22416" fill="#001026" stroke="none" stroke-linecap="butt" stroke-linejoin="miter"/></g><path d="M94.84986,275.23518c0,-59.99896 0,-148.11906 0,-181.81815c0,-26.16557 22.73163,-58.56714 54.69562,-58.56714c60.91162,0 155.35022,0 189.899,0c25.1397,0 55.70568,31.10369 55.70568,56.54696c0,34.37139 0,127.20919 0,187.87876c0,32.57375 -30.56593,55.87453 -55.70568,55.87453c-33.79375,0 -124.88841,0 -185.85858,0c-34.07175,0 -58.73599,-25.26921 -58.73599,-59.91496z" fill="#83a08b" fill-rule="nonzero" stroke="#83a08b" stroke-width="4" stroke-linecap="butt" stroke-linejoin="miter"/><g fill-rule="nonzero" stroke="#000000" stroke-width="15" stroke-linecap="butt" stroke-linejoin="miter"><path d="M349.934,184.88062c-16.00392,42.0781 -57.52081,72.13749 -106.36495,72.13749c-62.6852,0 -113.50305,-49.40535 -113.50305,-110.35016c0,-15.5247 3.32943,-30.28009 9.28202,-43.68606z" fill="#5c913b"/><path d="M338.23687,180.32788c-14.14373,37.5695 -51.1331,64.43191 -94.66783,64.43191c-55.71738,0 -100.8916,-43.91938 -100.8916,-98.09186c0,-13.91672 3.02044,-27.13355 8.39923,-39.12703z" fill="#ffe8b6"/><path d="M326.52714,175.77516c-12.27094,33.05462 -44.73279,56.72 -82.95809,56.72c-48.75586,0 -88.28016,-38.42078 -88.28016,-85.82722c0,-12.30877 2.71147,-23.98069 7.51013,-34.56169z" fill="#dd2e44"/><path d="M186.28783,151.56748c-1.93586,2.90062 -4.67256,4.46446 -6.12287,3.49969c-1.45031,-0.96477 -1.05936,-4.09243 0.8765,-6.99305c1.93586,-2.90062 4.67255,-4.46446 6.12286,-3.49967c1.45031,0.96477 1.05936,4.09243 -0.8765,6.99305zM224.12219,157.87319c-1.93586,2.90062 -4.67255,4.46446 -6.12286,3.49969c-1.45031,-0.96477 -1.05938,-4.09243 0.87649,-6.99305c1.93586,-2.90062 4.67256,-4.46445 6.12287,-3.49967c1.45031,0.96477 1.05936,4.09242 -0.8765,6.99304zM256.16788,187.37139c0.31529,3.47446 -0.83235,6.40662 -2.56013,6.56426c-1.73408,0.15765 -3.39248,-2.52227 -3.70776,-5.99673c-0.3216,-3.47446 0.83234,-6.40664 2.56012,-6.55798c1.73408,-0.16395 3.3925,2.50967 3.70779,5.99045zM199.41637,174.75992c0.31528,3.47446 -0.83237,6.40662 -2.56014,6.56426c-1.73408,0.15765 -3.39247,-2.52227 -3.70775,-5.99675c-0.31528,-3.47446 0.83234,-6.40662 2.5601,-6.55796c1.74038,-0.16395 3.3925,2.50966 3.70779,5.99043zM224.01498,208.47034c-2.0998,2.78083 -4.91846,4.18069 -6.30571,3.13395c-1.39358,-1.04674 -0.81345,-4.14917 1.29267,-6.93c2.0998,-2.78083 4.92477,-4.18069 6.30572,-3.13394c1.39358,1.04674 0.81975,4.14286 -1.29268,6.93zM274.6878,211.33315c1.72146,3.03307 1.88541,6.1733 0.37834,7.03088c-1.51967,0.86387 -4.13657,-0.90173 -5.85802,-3.93478c-1.72146,-3.02675 -1.8854,-6.17329 -0.37204,-7.03088c1.51967,-0.87019 4.13026,0.88913 5.85173,3.9348zM230.44052,179.62796c1.91065,2.91956 2.28267,6.04089 0.82605,6.99304c-1.45662,0.95847 -4.18069,-0.63055 -6.09134,-3.5438c-1.91065,-2.91325 -2.27636,-6.04088 -0.82605,-6.98675c1.45662,-0.97109 4.18069,0.61165 6.09134,3.53751zM287.07224,189.55316c-2.0998,2.78083 -4.91846,4.18069 -6.31203,3.13394c-1.39358,-1.04674 -0.81343,-4.14915 1.29268,-6.92998c2.0998,-2.78714 4.91846,-4.18067 6.30572,-3.13394c1.39986,1.04674 0.82607,4.14285 -1.28636,6.92997z" fill="#000000"/></g><g fill-rule="nonzero" stroke="#000000" stroke-width="0.5" stroke-linecap="butt" stroke-linejoin="miter"><path d="M349.934,184.88063c-16.00392,42.0781 -57.52081,72.13749 -106.36495,72.13749c-62.6852,0 -113.50305,-49.40535 -113.50305,-110.35016c0,-15.5247 3.32943,-30.28009 9.28202,-43.68606z" fill="#5c913b"/><path d="M338.23687,180.32789c-14.14373,37.5695 -51.1331,64.43191 -94.66783,64.43191c-55.71738,0 -100.8916,-43.91938 -100.8916,-98.09186c0,-13.91672 3.02044,-27.13355 8.39923,-39.12703z" fill="#ffe8b6"/><path d="M326.52714,175.77517c-12.27094,33.05462 -44.73279,56.72 -82.95809,56.72c-48.75586,0 -88.28016,-38.42078 -88.28016,-85.82722c0,-12.30877 2.71147,-23.98069 7.51013,-34.56169z" fill="#dd2e44"/><path d="M186.28783,151.56749c-1.93586,2.90062 -4.67256,4.46446 -6.12287,3.49969c-1.45031,-0.96477 -1.05936,-4.09243 0.8765,-6.99305c1.93586,-2.90062 4.67255,-4.46446 6.12286,-3.49967c1.45031,0.96477 1.05936,4.09243 -0.8765,6.99305zM224.12219,157.8732c-1.93586,2.90062 -4.67255,4.46446 -6.12286,3.49969c-1.45031,-0.96477 -1.05938,-4.09243 0.87649,-6.99305c1.93586,-2.90062 4.67256,-4.46445 6.12287,-3.49967c1.45031,0.96477 1.05936,4.09242 -0.8765,6.99304zM256.16787,187.3714c0.31529,3.47446 -0.83235,6.40662 -2.56013,6.56426c-1.73408,0.15765 -3.39248,-2.52227 -3.70776,-5.99673c-0.3216,-3.47446 0.83234,-6.40664 2.56012,-6.55798c1.73408,-0.16395 3.3925,2.50967 3.70779,5.99045zM199.41637,174.75993c0.31528,3.47446 -0.83237,6.40662 -2.56014,6.56426c-1.73408,0.15765 -3.39247,-2.52227 -3.70775,-5.99675c-0.31528,-3.47446 0.83234,-6.40662 2.5601,-6.55796c1.74038,-0.16395 3.3925,2.50966 3.70779,5.99043zM224.01498,208.47035c-2.0998,2.78083 -4.91846,4.18069 -6.30571,3.13395c-1.39358,-1.04674 -0.81345,-4.14917 1.29267,-6.93c2.0998,-2.78083 4.92477,-4.18069 6.30572,-3.13394c1.39358,1.04674 0.81975,4.14286 -1.29268,6.93zM274.6878,211.33316c1.72146,3.03307 1.88541,6.1733 0.37834,7.03088c-1.51967,0.86387 -4.13657,-0.90173 -5.85802,-3.93478c-1.72146,-3.02675 -1.8854,-6.17329 -0.37204,-7.03088c1.51967,-0.87019 4.13026,0.88913 5.85173,3.9348zM230.44052,179.62797c1.91065,2.91956 2.28267,6.04089 0.82605,6.99304c-1.45662,0.95847 -4.18069,-0.63055 -6.09134,-3.5438c-1.91065,-2.91325 -2.27636,-6.04088 -0.82605,-6.98675c1.45662,-0.97109 4.18069,0.61165 6.09134,3.53751zM287.07223,189.55317c-2.0998,2.78083 -4.91846,4.18069 -6.31203,3.13394c-1.39358,-1.04674 -0.81343,-4.14915 1.29268,-6.92998c2.0998,-2.78714 4.91846,-4.18067 6.30572,-3.13394c1.39986,1.04674 0.82607,4.14285 -1.28636,6.92997z" fill="#000000"/></g></g></g></svg>