<svg version="1.1" xmlns="http://www.w3.org/2000/svg" xmlns:xlink="http://www.w3.org/1999/xlink" width="42.00001" height="44.75" viewBox="0,0,42.00001,44.75"><g transform="translate(-218.99999,-157.375)"><g data-paper-data="{&quot;isPaintingLayer&quot;:true}" fill-rule="nonzero" stroke-linejoin="miter" stroke-miterlimit="10" stroke-dasharray="" stroke-dashoffset="0" style="mix-blend-mode: normal"><path d="M220.75,198.625c0,-4.52692 0,-13.87508 0,-21.71429c0,-5.71431 0,-10.62682 0,-12.28571c0,-1.20083 0.92773,-2.25 2.10715,-2.25c0.29955,0 24.80203,0 33.42857,0c1.84541,0 2.96429,0.88986 2.96429,2.39286c0,7.55799 0,30.62036 0,34c0,1.1323 -0.88963,2.10714 -2.39285,2.10714c-7.38781,0 -29.59614,0 -33.85715,0c-1.40226,0 -2.25,-0.48893 -2.25,-2.25z" fill="#5b5b5b" stroke="#5b5b5b" stroke-width="2.5" stroke-linecap="butt"/><path d="M220.74999,195.375c0,-4.52692 0,-13.87508 0,-21.71429c0,-5.71431 0,-10.62682 0,-12.28571c0,-1.20083 0.92773,-2.25 2.10715,-2.25c0.29955,0 24.80203,0 33.42857,0c1.84541,0 2.96429,0.88986 2.96429,2.39286c0,7.55799 0,30.62036 0,34c0,1.1323 -0.88963,2.10714 -2.39285,2.10714c-7.38781,0 -29.59614,0 -33.85715,0c-1.40226,0 -2.25,-0.48893 -2.25,-2.25z" fill="#969696" stroke="#404040" stroke-width="3.5" stroke-linecap="butt"/><path d="M225.42856,191.08929c0,-5.74743 0,-22.10314 0,-25.28571c0,-1.04926 0.87738,-2 1.85714,-2c2.94835,0 18.03553,0 24.14286,0c1.59006,0 2.57143,1.12021 2.57143,2.42857c0,3.42127 0,18.96827 0,24.71429c0,0.77956 -0.31373,1.37872 -0.87409,1.74272c-0.4004,0.2601 -0.92672,0.40013 -1.55448,0.40013c-6.09762,0 -21.76599,0 -24.57143,0c-0.844,0 -1.57143,-0.74851 -1.57143,-2z" fill="#bdbdbd" stroke="#404040" stroke-width="0" stroke-linecap="butt"/><path d="M243.19903,179.36965c-1.13881,1.36658 -2.55716,2.04987 -4.25503,2.04987c-1.65646,0 -3.02304,-0.60047 -4.09974,-1.8014c-1.0767,-1.20093 -1.61504,-2.65034 -1.61504,-4.34821c0,-1.8221 0.60047,-3.35433 1.8014,-4.59668c1.22164,-1.24235 2.81598,-1.86352 4.78303,-1.86352c2.19481,0 3.90303,0.80752 5.12468,2.42257c1.22164,1.59435 1.83246,3.83057 1.83246,6.70866c0,3.47857 -0.66259,6.05643 -1.98775,7.7336c-1.32516,1.67717 -3.0748,2.51575 -5.24891,2.51575c-1.7807,0 -3.14728,-0.45552 -4.09974,-1.36657c-0.95246,-0.91106 -1.4287,-1.8221 -1.4287,-2.73316c0,-0.352 0.1346,-0.6626 0.40376,-0.93176c0.26917,-0.28988 0.60047,-0.43482 0.99388,-0.43482c0.72471,0 1.30446,0.42447 1.73929,1.2734c0.53835,1.09741 1.34588,1.6461 2.42258,1.6461c2.25692,0 3.46821,-2.09128 3.63386,-6.27384zM242.9195,175.39413c0,-1.0767 -0.30023,-2.01881 -0.9007,-2.82633c-0.60047,-0.80752 -1.37694,-1.21129 -2.3294,-1.21129c-0.91106,0 -1.62541,0.3727 -2.14305,1.11811c-0.51764,0.72471 -0.77647,1.63575 -0.77647,2.73316c0,1.15953 0.27953,2.08093 0.83858,2.76422c0.55906,0.66259 1.26305,0.99388 2.11199,0.99388c0.80752,0 1.54258,-0.31059 2.20517,-0.93176c0.66259,-0.62117 0.99387,-1.50117 0.99387,-2.63999z" fill="#2d2d2d" stroke="none" stroke-width="1" stroke-linecap="square"/></g></g></svg>