<svg version="1.1" xmlns="http://www.w3.org/2000/svg" xmlns:xlink="http://www.w3.org/1999/xlink" width="144.14414" height="60.93899" viewBox="0,0,144.14414,60.93899"><g transform="translate(-167.92793,-149.5305)"><g data-paper-data="{&quot;isPaintingLayer&quot;:true}" fill-rule="nonzero" stroke-linejoin="miter" stroke-miterlimit="10" stroke-dasharray="" stroke-dashoffset="0" style="mix-blend-mode: normal"><path d="M210.47493,176.59786c0,0.37741 0.1633,0.70765 0.48991,0.9907c0.3266,0.2758 1.15764,0.57337 2.49309,0.89273c1.34271,0.31935 2.33705,0.65684 2.983,1.01248c0.64596,0.34838 1.11046,0.80925 1.39352,1.38263c0.29032,0.56611 0.43547,1.15763 0.43547,1.77456c0,1.24111 -0.47177,2.25721 -1.4153,3.04833c-0.93627,0.78385 -2.21729,1.17579 -3.84306,1.17579c-1.77819,0 -3.10639,-0.42459 -3.9846,-1.27377c-0.87821,-0.85644 -1.31732,-1.7419 -1.31732,-2.6564c0,-0.30483 0.1125,-0.57337 0.33749,-0.80563c0.225,-0.23951 0.51894,-0.35927 0.88184,-0.35927c0.33386,0 0.58063,0.10162 0.74031,0.30484c0.16693,0.19597 0.36652,0.56249 0.59877,1.09958c0.49354,1.1395 1.37901,1.70924 2.6564,1.70924c0.76208,0 1.4044,-0.17419 1.92698,-0.52257c0.52257,-0.34838 0.78385,-0.82378 0.78385,-1.42618c0,-0.46451 -0.18145,-0.86369 -0.54434,-1.19756c-0.35564,-0.33387 -1.17941,-0.64958 -2.47132,-0.94716c-1.29191,-0.29757 -2.19915,-0.58063 -2.72172,-0.84918c-0.51531,-0.2758 -0.96893,-0.67136 -1.36086,-1.18667c-0.38467,-0.51531 -0.577,-1.15401 -0.577,-1.91609c0,-1.13224 0.44636,-2.03585 1.33908,-2.71084c0.89998,-0.67498 2.11931,-1.01247 3.65799,-1.01247c1.57497,0 2.76164,0.35926 3.56001,1.0778c0.79837,0.71853 1.19756,1.44069 1.19756,2.16648c0,0.30483 -0.11613,0.59152 -0.34838,0.86007c-0.23226,0.26128 -0.5262,0.39193 -0.88184,0.39193c-0.3266,0 -0.57337,-0.09072 -0.7403,-0.27217c-0.16693,-0.1887 -0.35927,-0.50079 -0.57701,-0.93627c-0.45725,-0.9145 -1.24836,-1.37175 -2.37334,-1.37175c-0.65321,0 -1.20481,0.14153 -1.65481,0.42459c-0.44273,0.28306 -0.66409,0.66047 -0.66409,1.13223zM229.15559,180.62601v4.51805c0,1.15401 -0.42095,1.73102 -1.26288,1.73102c-0.37741,0 -0.67499,-0.12339 -0.89272,-0.37016c-0.21048,-0.24677 -0.31572,-0.70039 -0.31572,-1.36086v-3.95193c0,-0.94353 -0.14878,-1.58586 -0.44636,-1.92698c-0.29757,-0.34838 -0.71127,-0.52257 -1.2411,-0.52257c-0.47177,0 -0.88184,0.13064 -1.23022,0.39192c-0.34838,0.25402 -0.59515,0.57337 -0.74031,0.95804c-0.14516,0.37741 -0.21774,1.04514 -0.21774,2.00319v2.86325c0,0.77659 -0.1125,1.29191 -0.33749,1.54593c-0.21774,0.24677 -0.52257,0.37016 -0.91449,0.37016c-0.38467,0 -0.68588,-0.12339 -0.90361,-0.37016c-0.21774,-0.24677 -0.32661,-0.75119 -0.32661,-1.51328v-9.83085c0,-0.59515 0.02903,-1.00885 0.0871,-1.2411c0.05806,-0.23225 0.1887,-0.42096 0.39192,-0.56612c0.21048,-0.15241 0.45362,-0.22862 0.72942,-0.22862c0.31935,0 0.58064,0.0871 0.78386,0.26129c0.21048,0.16693 0.34475,0.38467 0.40282,0.65321c0.05806,0.26854 0.08709,0.71491 0.08709,1.33908v2.92857c0.8274,-1.00159 1.83263,-1.50239 3.01567,-1.50239c1.00159,0 1.80722,0.30846 2.41688,0.92538c0.60967,0.60967 0.91449,1.57497 0.91449,2.89591zM232.85093,173.23382c0.32661,0 0.60604,0.12339 0.83829,0.37015c0.23951,0.23951 0.35926,0.51894 0.35926,0.83829c0,0.33387 -0.11975,0.62055 -0.35926,0.86006c-0.23226,0.23225 -0.51168,0.34838 -0.83829,0.34838c-0.3266,0 -0.60966,-0.11613 -0.84917,-0.34838c-0.23951,-0.23951 -0.35927,-0.5262 -0.35927,-0.86006c0,-0.32661 0.11976,-0.60967 0.35927,-0.84918c0.23951,-0.23951 0.52257,-0.35927 0.84917,-0.35927zM234.08115,178.82967v5.99867c0,0.58789 -0.02903,0.99071 -0.08709,1.20844c-0.05081,0.21774 -0.18871,0.4137 -0.41371,0.58789c-0.22499,0.16693 -0.46813,0.2504 -0.72942,0.2504c-0.26128,0 -0.50805,-0.08347 -0.7403,-0.2504c-0.23226,-0.16693 -0.37741,-0.36289 -0.43547,-0.58789c-0.05081,-0.22499 -0.07621,-0.62781 -0.07621,-1.20844v-5.97689c0,-0.5516 0.02177,-0.9399 0.06532,-1.1649c0.04354,-0.23225 0.17419,-0.43547 0.39193,-0.60967c0.225,-0.18145 0.48265,-0.27217 0.77296,-0.27217c0.29757,0 0.5516,0.07983 0.76209,0.23951c0.21048,0.15968 0.34475,0.3629 0.40282,0.60967c0.05806,0.24677 0.08709,0.6387 0.08709,1.17578zM243.54531,182.44411h-4.85555c0.02178,0.92176 0.27218,1.61852 0.7512,2.09028c0.47902,0.46451 1.05602,0.69676 1.73101,0.69676c0.8274,0 1.60763,-0.36289 2.34068,-1.08868c0.29757,-0.30483 0.51531,-0.49354 0.65321,-0.56612c0.14516,-0.07258 0.30483,-0.10886 0.47902,-0.10886c0.22499,0 0.41733,0.07258 0.577,0.21774c0.15967,0.1379 0.23951,0.30847 0.23951,0.51168c0,0.55886 -0.38104,1.14675 -1.14312,1.76367c-0.76208,0.60967 -1.79271,0.9145 -3.09187,0.9145c-1.65481,0 -2.91042,-0.46814 -3.76686,-1.40441c-0.85643,-0.93627 -1.28465,-2.14471 -1.28465,-3.62533c0,-1.50239 0.42822,-2.71809 1.28465,-3.64711c0.85644,-0.92901 2.04673,-1.39352 3.57089,-1.39352c1.45158,0 2.57293,0.43911 3.36404,1.31731c0.79837,0.87821 1.19756,1.829 1.19756,2.85236c0,0.45725 -0.13427,0.81651 -0.40281,1.0778c-0.26128,0.26129 -0.80926,0.39193 -1.64392,0.39193zM238.68977,181.03971h4.50717c-0.02903,-0.82014 -0.25766,-1.44432 -0.68588,-1.87254c-0.42096,-0.43547 -0.94353,-0.65321 -1.56771,-0.65321c-1.31368,0 -2.06488,0.84192 -2.25358,2.52576zM250.15115,175.1608v9.66754c0,0.59515 -0.02903,1.0016 -0.08709,1.21933c-0.05081,0.21048 -0.18871,0.40281 -0.41371,0.577c-0.22499,0.16693 -0.46813,0.2504 -0.72942,0.2504c-0.26129,0 -0.50805,-0.08347 -0.74031,-0.2504c-0.23226,-0.16693 -0.37741,-0.36289 -0.43547,-0.58789c-0.0508,-0.22499 -0.07621,-0.62781 -0.07621,-1.20844v-9.66754c0,-0.60967 0.02903,-1.01974 0.0871,-1.23022c0.05806,-0.21774 0.19597,-0.40644 0.4137,-0.56612c0.22499,-0.15967 0.46814,-0.23951 0.72942,-0.23951c0.30483,0 0.56612,0.0871 0.78385,0.26129c0.21774,0.16693 0.34838,0.37015 0.39193,0.60966c0.0508,0.23226 0.07621,0.62055 0.07621,1.1649zM259.47379,185.45978v-0.2504c-0.85643,1.11046 -1.93786,1.66569 -3.24429,1.66569c-1.26288,0 -2.2681,-0.47903 -3.01567,-1.43707c-0.7403,-0.96531 -1.11046,-2.21004 -1.11046,-3.73419c0,-1.43707 0.3629,-2.61286 1.08869,-3.52735c0.72579,-0.9145 1.73464,-1.37175 3.02655,-1.37175c1.24836,0 2.33342,0.50442 3.25517,1.51327v-3.21162c0,-0.88546 0.1125,-1.43707 0.33749,-1.6548c0.225,-0.21774 0.52621,-0.32661 0.90362,-0.32661c0.26855,0 0.51168,0.07621 0.72942,0.22862c0.225,0.15241 0.3629,0.35564 0.4137,0.60967c0.05081,0.24677 0.07621,0.65322 0.07621,1.21933v9.75464c0,0.5516 -0.02903,0.94716 -0.08709,1.18667c-0.05081,0.23226 -0.18871,0.41371 -0.4137,0.54435c-0.225,0.1379 -0.47176,0.20685 -0.74031,0.20685c-0.81288,0 -1.21933,-0.47177 -1.21933,-1.4153zM254.60736,181.78001c0,1.11046 0.23226,1.92335 0.69676,2.43866c0.47177,0.50806 1.00522,0.76209 1.60037,0.76209c0.70402,0 1.28465,-0.26492 1.7419,-0.79475c0.45725,-0.53708 0.68588,-1.28102 0.68588,-2.23181c0,-1.00159 -0.22499,-1.79633 -0.67498,-2.38422c-0.44273,-0.59515 -1.03425,-0.89272 -1.77456,-0.89272c-0.66773,0 -1.21571,0.2758 -1.64392,0.8274c-0.42096,0.54435 -0.63144,1.3028 -0.63144,2.27535zM266.19371,179.3849c0,0.31935 0.16694,0.56975 0.5008,0.75119c0.33387,0.18145 1.07779,0.4137 2.23181,0.69676c2.24269,0.54434 3.36404,1.47699 3.36404,2.79792c0,1.0524 -0.38104,1.85802 -1.14312,2.41689c-0.75482,0.5516 -1.81085,0.8274 -3.16808,0.8274c-1.37901,0 -2.41688,-0.28306 -3.11365,-0.84918c-0.69676,-0.57337 -1.04514,-1.17579 -1.04514,-1.80723c0,-0.2758 0.09435,-0.50806 0.28306,-0.69676c0.19597,-0.19597 0.43547,-0.29394 0.71853,-0.29394c0.38467,0 0.72217,0.24314 1.01248,0.72942c0.32661,0.52983 0.68588,0.88184 1.0778,1.05603c0.39918,0.16693 0.82014,0.2504 1.26288,0.2504c0.50079,0 0.90361,-0.10887 1.20844,-0.32661c0.31209,-0.21774 0.46814,-0.49717 0.46814,-0.83829c0,-0.31209 -0.13064,-0.58063 -0.39193,-0.80563c-0.26128,-0.22499 -0.97982,-0.47177 -2.1556,-0.74031c-1.17578,-0.26854 -2.03222,-0.64595 -2.5693,-1.13224c-0.53708,-0.48628 -0.80563,-1.06691 -0.80563,-1.7419c0,-0.75482 0.32661,-1.42255 0.97982,-2.00319c0.65321,-0.58064 1.63666,-0.87095 2.95035,-0.87095c1.20481,0 2.16286,0.24677 2.87414,0.74031c0.71853,0.48628 1.0778,0.99433 1.0778,1.52416c0,0.2758 -0.09072,0.50806 -0.27218,0.69676c-0.18145,0.1887 -0.43547,0.28306 -0.76208,0.28306c-0.47177,0 -0.89998,-0.27217 -1.28465,-0.81652c-0.38467,-0.5516 -0.96531,-0.8274 -1.7419,-0.8274c-0.4137,0 -0.77659,0.08347 -1.08868,0.2504c-0.31209,0.16693 -0.46814,0.41007 -0.46814,0.72942z" fill="#ffffff" stroke="#000000" stroke-width="3.5" stroke-linecap="square"/><path d="M210.47492,176.59787c0,0.37741 0.1633,0.70765 0.48991,0.99071c0.32661,0.2758 1.15764,0.57338 2.49309,0.89272c1.34271,0.31935 2.33705,0.65684 2.983,1.01248c0.64595,0.34838 1.11046,0.80926 1.39352,1.38263c0.29032,0.56612 0.43547,1.15764 0.43547,1.77456c0,1.2411 -0.47176,2.25721 -1.41529,3.04832c-0.93627,0.78385 -2.21729,1.17578 -3.84307,1.17578c-1.77819,0 -3.10639,-0.42459 -3.9846,-1.27376c-0.87821,-0.85643 -1.31731,-1.7419 -1.31731,-2.6564c0,-0.30483 0.1125,-0.57338 0.33749,-0.80563c0.225,-0.23951 0.51894,-0.35927 0.88184,-0.35927c0.33386,0 0.58063,0.10161 0.74031,0.30483c0.16693,0.19596 0.36652,0.56249 0.59878,1.09957c0.49354,1.13949 1.379,1.70924 2.6564,1.70924c0.76208,0 1.40441,-0.17419 1.92698,-0.52257c0.52257,-0.34838 0.78385,-0.82377 0.78385,-1.42618c0,-0.46451 -0.18145,-0.86369 -0.54434,-1.19756c-0.35564,-0.33386 -1.17941,-0.64958 -2.47132,-0.94716c-1.29191,-0.29757 -2.19915,-0.58063 -2.72172,-0.84918c-0.51531,-0.2758 -0.96893,-0.67136 -1.36086,-1.18667c-0.38467,-0.51531 -0.577,-1.15401 -0.577,-1.91609c0,-1.13223 0.44636,-2.03585 1.33909,-2.71083c0.89998,-0.67499 2.11931,-1.01248 3.65799,-1.01248c1.57497,0 2.76164,0.35927 3.56001,1.0778c0.79837,0.71853 1.19756,1.4407 1.19756,2.16649c0,0.30483 -0.11613,0.59152 -0.34838,0.86006c-0.23225,0.26128 -0.5262,0.39193 -0.88184,0.39193c-0.32661,0 -0.57338,-0.09072 -0.74031,-0.27217c-0.16693,-0.18871 -0.35927,-0.5008 -0.577,-0.93627c-0.45725,-0.9145 -1.24836,-1.37175 -2.37334,-1.37175c-0.65321,0 -1.20481,0.14153 -1.6548,0.42459c-0.44273,0.28306 -0.6641,0.66047 -0.6641,1.13223zM229.15559,180.62601v4.51805c0,1.15401 -0.42096,1.73101 -1.26288,1.73101c-0.37741,0 -0.67499,-0.12338 -0.89272,-0.37015c-0.21048,-0.24677 -0.31572,-0.70039 -0.31572,-1.36086v-3.95194c0,-0.94353 -0.14879,-1.58585 -0.44636,-1.92698c-0.29757,-0.34838 -0.71128,-0.52257 -1.2411,-0.52257c-0.47176,0 -0.88184,0.13064 -1.23022,0.39193c-0.34838,0.25403 -0.59515,0.57338 -0.74031,0.95804c-0.14516,0.37741 -0.21774,1.04514 -0.21774,2.00318v2.86325c0,0.7766 -0.1125,1.29191 -0.33749,1.54594c-0.21774,0.24677 -0.52257,0.37015 -0.9145,0.37015c-0.38467,0 -0.68587,-0.12338 -0.90361,-0.37015c-0.21774,-0.24677 -0.32661,-0.75119 -0.32661,-1.51328v-9.83085c0,-0.59515 0.02903,-1.00885 0.08709,-1.2411c0.05806,-0.23225 0.18871,-0.42096 0.39193,-0.56612c0.21048,-0.15242 0.45362,-0.22862 0.72942,-0.22862c0.31935,0 0.58063,0.08709 0.78385,0.26128c0.21048,0.16693 0.34475,0.38467 0.40281,0.65321c0.05806,0.26854 0.08709,0.7149 0.08709,1.33909v2.92857c0.8274,-1.00159 1.83262,-1.50239 3.01566,-1.50239c1.00159,0 1.80722,0.30846 2.41689,0.92538c0.60966,0.60966 0.9145,1.57497 0.9145,2.89591zM232.85093,173.23382c0.32661,0 0.60604,0.12338 0.83829,0.37015c0.23951,0.23951 0.35927,0.51894 0.35927,0.83829c0,0.33386 -0.11976,0.62055 -0.35927,0.86006c-0.23225,0.23225 -0.51168,0.34838 -0.83829,0.34838c-0.32661,0 -0.60966,-0.11613 -0.84918,-0.34838c-0.23951,-0.23951 -0.35927,-0.5262 -0.35927,-0.86006c0,-0.32661 0.11976,-0.60966 0.35927,-0.84918c0.23951,-0.23951 0.52257,-0.35927 0.84918,-0.35927zM234.08114,178.82967v5.99867c0,0.58789 -0.02903,0.99071 -0.08709,1.20844c-0.05081,0.21774 -0.18871,0.4137 -0.4137,0.58789c-0.225,0.16693 -0.46814,0.2504 -0.72942,0.2504c-0.26128,0 -0.50805,-0.08347 -0.74031,-0.2504c-0.23225,-0.16693 -0.37741,-0.3629 -0.43547,-0.58789c-0.05081,-0.225 -0.07621,-0.62781 -0.07621,-1.20844v-5.97689c0,-0.5516 0.02177,-0.9399 0.06532,-1.1649c0.04355,-0.23225 0.17419,-0.43547 0.39193,-0.60966c0.225,-0.18145 0.48265,-0.27217 0.77297,-0.27217c0.29757,0 0.5516,0.07984 0.76208,0.23951c0.21048,0.15967 0.34475,0.3629 0.40281,0.60966c0.05806,0.24677 0.08709,0.6387 0.08709,1.17578zM243.54531,182.44412h-4.85554c0.02177,0.92176 0.27217,1.61852 0.75119,2.09028c0.47902,0.46451 1.05603,0.69676 1.73101,0.69676c0.8274,0 1.60763,-0.3629 2.34068,-1.08869c0.29757,-0.30483 0.51531,-0.49354 0.65321,-0.56612c0.14516,-0.07258 0.30483,-0.10887 0.47902,-0.10887c0.225,0 0.41733,0.07258 0.577,0.21774c0.15967,0.1379 0.23951,0.30846 0.23951,0.51168c0,0.55886 -0.38104,1.14675 -1.14312,1.76367c-0.76208,0.60966 -1.79271,0.9145 -3.09187,0.9145c-1.6548,0 -2.91042,-0.46814 -3.76686,-1.40441c-0.85643,-0.93627 -1.28465,-2.14471 -1.28465,-3.62533c0,-1.50239 0.42822,-2.71809 1.28465,-3.6471c0.85643,-0.92901 2.04673,-1.39352 3.57089,-1.39352c1.45158,0 2.57293,0.4391 3.36404,1.31731c0.79837,0.87821 1.19756,1.82899 1.19756,2.85236c0,0.45725 -0.13427,0.81652 -0.40281,1.0778c-0.26128,0.26128 -0.80926,0.39193 -1.64392,0.39193zM238.68977,181.03971h4.50716c-0.02903,-0.82014 -0.25766,-1.44433 -0.68587,-1.87254c-0.42096,-0.43547 -0.94353,-0.65321 -1.56771,-0.65321c-1.31368,0 -2.06487,0.84192 -2.25358,2.52575zM250.15114,175.1608v9.66754c0,0.59515 -0.02903,1.00159 -0.08709,1.21933c-0.05081,0.21048 -0.18871,0.40281 -0.4137,0.577c-0.225,0.16693 -0.46814,0.2504 -0.72942,0.2504c-0.26128,0 -0.50805,-0.08347 -0.74031,-0.2504c-0.23225,-0.16693 -0.37741,-0.3629 -0.43547,-0.58789c-0.05081,-0.225 -0.07621,-0.62781 -0.07621,-1.20844v-9.66754c0,-0.60966 0.02903,-1.01974 0.08709,-1.23022c0.05806,-0.21774 0.19596,-0.40644 0.4137,-0.56612c0.225,-0.15967 0.46814,-0.23951 0.72942,-0.23951c0.30483,0 0.56612,0.08709 0.78385,0.26128c0.21774,0.16693 0.34838,0.37015 0.39193,0.60966c0.05081,0.23225 0.07621,0.62055 0.07621,1.1649zM259.47378,185.45978v-0.2504c-0.85643,1.11046 -1.93786,1.66569 -3.24429,1.66569c-1.26288,0 -2.2681,-0.47902 -3.01566,-1.43707c-0.74031,-0.9653 -1.11046,-2.21004 -1.11046,-3.7342c0,-1.43707 0.3629,-2.61285 1.08869,-3.52735c0.72579,-0.9145 1.73464,-1.37175 3.02655,-1.37175c1.24836,0 2.33342,0.50443 3.25518,1.51328v-3.21163c0,-0.88547 0.1125,-1.43707 0.33749,-1.6548c0.225,-0.21774 0.5262,-0.32661 0.90361,-0.32661c0.26854,0 0.51168,0.07621 0.72942,0.22862c0.225,0.15242 0.3629,0.35564 0.4137,0.60966c0.05081,0.24677 0.07621,0.65321 0.07621,1.21933v9.75464c0,0.5516 -0.02903,0.94716 -0.08709,1.18667c-0.05081,0.23225 -0.18871,0.4137 -0.4137,0.54434c-0.225,0.1379 -0.47176,0.20685 -0.74031,0.20685c-0.81289,0 -1.21933,-0.47176 -1.21933,-1.41529zM254.60735,181.78002c0,1.11046 0.23225,1.92335 0.69676,2.43866c0.47176,0.50805 1.00522,0.76208 1.60037,0.76208c0.70402,0 1.28465,-0.26491 1.7419,-0.79474c0.45725,-0.53709 0.68587,-1.28102 0.68587,-2.23181c0,-1.00159 -0.225,-1.79633 -0.67499,-2.38423c-0.44273,-0.59515 -1.03425,-0.89272 -1.77456,-0.89272c-0.66773,0 -1.2157,0.2758 -1.64392,0.8274c-0.42096,0.54434 -0.63144,1.3028 -0.63144,2.27536zM266.19371,179.38491c0,0.31935 0.16693,0.56975 0.5008,0.75119c0.33386,0.18145 1.0778,0.4137 2.23181,0.69676c2.2427,0.54434 3.36404,1.47699 3.36404,2.79793c0,1.0524 -0.38104,1.85803 -1.14312,2.41689c-0.75482,0.5516 -1.81085,0.8274 -3.16808,0.8274c-1.379,0 -2.41689,-0.28306 -3.11365,-0.84918c-0.69676,-0.57338 -1.04514,-1.17578 -1.04514,-1.80722c0,-0.2758 0.09435,-0.50805 0.28306,-0.69676c0.19596,-0.19596 0.43547,-0.29395 0.71853,-0.29395c0.38467,0 0.72216,0.24314 1.01248,0.72942c0.32661,0.52983 0.68587,0.88184 1.0778,1.05603c0.39919,0.16693 0.82014,0.2504 1.26288,0.2504c0.5008,0 0.90361,-0.10887 1.20844,-0.32661c0.31209,-0.21774 0.46814,-0.49717 0.46814,-0.83829c0,-0.31209 -0.13064,-0.58063 -0.39193,-0.80563c-0.26128,-0.225 -0.97982,-0.47176 -2.1556,-0.74031c-1.17578,-0.26854 -2.03222,-0.64595 -2.5693,-1.13223c-0.53709,-0.48628 -0.80563,-1.06691 -0.80563,-1.7419c0,-0.75482 0.32661,-1.42255 0.97982,-2.00318c0.65321,-0.58063 1.63666,-0.87095 2.95034,-0.87095c1.20481,0 2.16286,0.24677 2.87413,0.74031c0.71853,0.48628 1.0778,0.99433 1.0778,1.52416c0,0.2758 -0.09072,0.50805 -0.27217,0.69676c-0.18145,0.18871 -0.43547,0.28306 -0.76208,0.28306c-0.47176,0 -0.89998,-0.27217 -1.28465,-0.81652c-0.38467,-0.5516 -0.9653,-0.8274 -1.7419,-0.8274c-0.4137,0 -0.7766,0.08347 -1.08869,0.2504c-0.31209,0.16693 -0.46814,0.41007 -0.46814,0.72942z" fill="#ffffff" stroke="none" stroke-width="1" stroke-linecap="square"/><path d="M167.92793,210.4695v-60.93899h144.14414v60.93899z" fill="none" stroke="none" stroke-width="none" stroke-linecap="butt"/></g></g></svg>