<svg version="1.1" xmlns="http://www.w3.org/2000/svg" xmlns:xlink="http://www.w3.org/1999/xlink" width="266.04705" height="82.84956" viewBox="0,0,266.04705,82.84956"><g transform="translate(-106.97647,-138.57522)"><g data-paper-data="{&quot;isPaintingLayer&quot;:true}" fill-rule="nonzero" stroke-linejoin="miter" stroke-miterlimit="10" stroke-dasharray="" stroke-dashoffset="0" style="mix-blend-mode: normal"><path d="M115.88264,170.18292c0,0.69914 0.30102,1.31088 0.90305,1.83524c0.62146,0.52436 2.18481,1.08755 4.69006,1.68958c2.52466,0.60204 4.38904,1.23321 5.59311,1.89351c1.20407,0.66029 2.078,1.52452 2.62177,2.59264c0.54377,1.04871 0.81566,2.15568 0.81566,3.32091c0,2.33047 -0.88364,4.23368 -2.6509,5.70964c-1.76726,1.47596 -4.1657,2.21394 -7.19531,2.21394c-3.34033,0 -5.83588,-0.79624 -7.48662,-2.38872c-1.63133,-1.61191 -2.44698,-3.27237 -2.44698,-4.98137c0,-0.5632 0.20391,-1.06813 0.61174,-1.5148c0.42725,-0.44667 0.98073,-0.67001 1.66045,-0.67001c0.62146,0 1.08756,0.1845 1.39828,0.55348c0.31073,0.36899 0.67972,1.05842 1.10697,2.06829c0.93219,2.13626 2.59265,3.20439 4.98137,3.20439c1.41769,0 2.61206,-0.32044 3.58309,-0.96132c0.99044,-0.66029 1.48568,-1.55365 1.48568,-2.68004c0,-0.87393 -0.33986,-1.62161 -1.01958,-2.24307c-0.6603,-0.62146 -2.20423,-1.21378 -4.6318,-1.77698c-2.40815,-0.5632 -4.10745,-1.09726 -5.09789,-1.60219c-0.97103,-0.50493 -1.81583,-1.2332 -2.53438,-2.18481c-0.71855,-0.97103 -1.07784,-2.17509 -1.07784,-3.61222c0,-2.11684 0.83508,-3.80642 2.50525,-5.06876c1.67017,-1.26234 3.95208,-1.8935 6.84574,-1.8935c2.95193,0 5.17557,0.67001 6.67096,2.01003c1.49538,1.34001 2.24307,2.68975 2.24307,4.04918c0,0.58262 -0.22333,1.12639 -0.67001,1.63133c-0.42725,0.48551 -0.97103,0.72827 -1.63132,0.72827c-0.62146,0 -1.08755,-0.17478 -1.39828,-0.52435c-0.31073,-0.34957 -0.67001,-0.93218 -1.07784,-1.74785c-0.85451,-1.709 -2.33047,-2.56351 -4.42789,-2.56351c-1.22349,0 -2.26249,0.27189 -3.117,0.81566c-0.83508,0.52436 -1.25262,1.22349 -1.25262,2.09742zM146.16087,186.81661c-2.19452,1.74785 -4.3502,2.62177 -6.46704,2.62177c-2.00031,0 -3.54424,-0.50494 -4.6318,-1.5148c-1.06813,-1.02929 -1.60219,-2.28191 -1.60219,-3.75787c0,-1.26234 0.35928,-2.28192 1.07783,-3.05874c0.73799,-0.77682 1.53423,-1.31088 2.38873,-1.60219c0.87393,-0.31072 2.28191,-0.67001 4.22396,-1.07784c1.94205,-0.40783 3.50541,-0.77682 4.69006,-1.10697c-0.01942,-1.39828 -0.30103,-2.34017 -0.8448,-2.82568c-0.54377,-0.50493 -1.36915,-0.75741 -2.47611,-0.75741c-2.09742,0 -3.47628,0.59233 -4.13658,1.77698c-0.34957,0.66029 -0.67001,1.1361 -0.96132,1.42741c-0.27189,0.27189 -0.67972,0.40783 -1.22349,0.40783c-0.48551,0 -0.93219,-0.15537 -1.34002,-0.46609c-0.38842,-0.33015 -0.58262,-0.74769 -0.58262,-1.25262c0,-1.20407 0.65059,-2.34988 1.95176,-3.43743c1.30118,-1.08756 3.35004,-1.63133 6.1466,-1.63133c2.8354,0 4.90368,0.49523 6.20486,1.48567c1.3206,0.97103 1.94205,2.95192 1.86437,5.94268l-0.08739,4.34049c-0.03885,1.34001 0.0971,2.43727 0.40783,3.29178c0.33015,0.8545 0.49523,1.50509 0.49523,1.95176c0,0.48551 -0.22334,0.92247 -0.67001,1.31089c-0.42725,0.36899 -0.90305,0.55348 -1.42741,0.55348c-0.95161,0 -1.95176,-0.87392 -3.00047,-2.62177zM145.86957,180.11653c-0.69914,0.25247 -1.84495,0.54377 -3.43743,0.87392c-1.57307,0.31072 -2.69946,0.67001 -3.37918,1.07784c-0.66029,0.40783 -0.99044,1.00016 -0.99044,1.77698c0,0.67972 0.26217,1.27204 0.78653,1.77698c0.54377,0.50493 1.29147,0.7574 2.24308,0.7574c1.02929,0 1.98089,-0.28159 2.85482,-0.84479c0.87393,-0.5632 1.40799,-1.2235 1.60219,-1.9809c0.21363,-0.77682 0.32044,-1.92263 0.32044,-3.43743zM158.88431,186.32139v0.46609c0,1.76727 -0.76712,2.6509 -2.30134,2.6509c-0.58262,0 -1.07784,-0.14565 -1.48567,-0.43696c-0.40783,-0.31072 -0.65059,-0.67972 -0.72827,-1.10697c-0.07768,-0.44667 -0.11652,-1.14581 -0.11652,-2.09742v-18.26502c0,-1.04871 0.04855,-1.81582 0.14565,-2.30133c0.11652,-0.48551 0.3787,-0.86421 0.78653,-1.1361c0.42725,-0.27189 0.88364,-0.40783 1.36915,-0.40783c0.69914,0 1.26234,0.20392 1.68958,0.61175c0.42725,0.40783 0.64088,1.43712 0.64088,3.08786v6.03008c1.72843,-1.90321 3.75787,-2.85482 6.08834,-2.85482c2.40814,0 4.29194,0.86421 5.65138,2.59264c1.37886,1.709 2.06829,3.90353 2.06829,6.58356c0,2.85482 -0.69914,5.18528 -2.09742,6.99139c-1.39828,1.80611 -3.29179,2.70916 -5.68051,2.70916c-2.40814,0 -4.41816,-1.03899 -6.03007,-3.117zM159.11735,180.20392c0,1.78669 0.42725,3.18497 1.28176,4.19484c0.87393,0.99044 1.97118,1.48567 3.29178,1.48567c1.10697,0 2.09742,-0.4758 2.97134,-1.42741c0.89334,-0.97103 1.34001,-2.49554 1.34001,-4.57354c0,-1.80611 -0.39811,-3.2141 -1.19436,-4.22396c-0.79624,-1.02929 -1.82552,-1.54394 -3.08786,-1.54394c-1.39828,0 -2.51496,0.55349 -3.35004,1.66046c-0.83508,1.08756 -1.25263,2.56351 -1.25263,4.42788zM184.49758,170.56162c2.87423,0 5.13674,0.89335 6.78748,2.68004c1.65075,1.76727 2.47611,4.02005 2.47611,6.75834c0,2.75771 -0.83507,5.02021 -2.50525,6.78748c-1.67017,1.76727 -3.88411,2.6509 -6.64183,2.6509c-2.99076,0 -5.30181,-0.89335 -6.93313,-2.68004c-1.61191,-1.80611 -2.41786,-4.05889 -2.41786,-6.75834c0,-2.75771 0.82538,-5.02021 2.47612,-6.78748c1.65075,-1.76727 3.90353,-2.6509 6.75834,-2.6509zM184.49758,185.97182c1.4177,0 2.53438,-0.52435 3.35004,-1.57306c0.81566,-1.06813 1.2235,-2.53438 1.2235,-4.39875c0,-1.88379 -0.40783,-3.35004 -1.2235,-4.39875c-0.81566,-1.06813 -1.93235,-1.60219 -3.35004,-1.60219c-1.37886,0 -2.48583,0.53407 -3.32091,1.60219c-0.81566,1.06813 -1.22349,2.53438 -1.22349,4.39875c0,1.88379 0.40783,3.35004 1.22349,4.39875c0.83508,1.04871 1.94205,1.57306 3.32091,1.57306zM198.16522,170.96945v-2.76743c0,-1.14581 0.04855,-1.92264 0.14566,-2.33047c0.0971,-0.42725 0.34957,-0.79624 0.7574,-1.10697c0.40783,-0.33015 0.88364,-0.49523 1.42741,-0.49523c0.48551,0 0.93219,0.14565 1.34002,0.43696c0.40783,0.29131 0.67001,0.65059 0.78653,1.07784c0.13594,0.42725 0.20391,1.10698 0.20391,2.03916v3.14612h0.90305c1.12639,0 1.87409,0.14566 2.24307,0.43697c0.36899,0.27189 0.55348,0.67 0.55348,1.19436c0,1.14581 -0.95161,1.71872 -2.85482,1.71872h-0.84479v8.56446c0,1.16523 0.07768,1.96148 0.23305,2.38872c0.17479,0.40783 0.61175,0.61175 1.31089,0.61175c0.34957,0 0.72827,-0.04855 1.1361,-0.14566c0.42725,-0.0971 0.74769,-0.14565 0.96132,-0.14565c0.46609,0 0.84479,0.15536 1.1361,0.46609c0.29131,0.29131 0.43696,0.65059 0.43696,1.07784c0,1.53422 -1.60219,2.30133 -4.80658,2.30133c-1.55364,0 -2.69945,-0.29131 -3.43744,-0.87392c-0.71856,-0.58262 -1.17495,-1.28175 -1.36915,-2.09742c-0.17479,-0.83508 -0.26218,-1.91292 -0.26218,-3.23352v-8.91403h-0.61174c-1.35943,0 -2.03916,-0.55349 -2.03916,-1.66046c0,-1.12639 0.71856,-1.68958 2.15568,-1.68958zM221.43139,186.81661c-2.19452,1.74785 -4.3502,2.62177 -6.46704,2.62177c-2.00031,0 -3.54424,-0.50494 -4.6318,-1.5148c-1.06813,-1.02929 -1.60219,-2.28191 -1.60219,-3.75787c0,-1.26234 0.35928,-2.28192 1.07784,-3.05874c0.73799,-0.77682 1.53422,-1.31088 2.38872,-1.60219c0.87393,-0.31072 2.28192,-0.67001 4.22397,-1.07784c1.94205,-0.40783 3.50541,-0.77682 4.69006,-1.10697c-0.01942,-1.39828 -0.30103,-2.34017 -0.8448,-2.82568c-0.54377,-0.50493 -1.36915,-0.75741 -2.47612,-0.75741c-2.09742,0 -3.47628,0.59233 -4.13657,1.77698c-0.34957,0.66029 -0.67,1.1361 -0.96131,1.42741c-0.27189,0.27189 -0.67973,0.40783 -1.2235,0.40783c-0.48551,0 -0.93219,-0.15537 -1.34001,-0.46609c-0.38842,-0.33015 -0.58262,-0.74769 -0.58262,-1.25262c0,-1.20407 0.65059,-2.34988 1.95176,-3.43743c1.30118,-1.08756 3.35004,-1.63133 6.1466,-1.63133c2.8354,0 4.90369,0.49523 6.20486,1.48567c1.3206,0.97103 1.94205,2.95192 1.86437,5.94268l-0.0874,4.34049c-0.03885,1.34001 0.09711,2.43727 0.40784,3.29178c0.33015,0.8545 0.49522,1.50509 0.49522,1.95176c0,0.48551 -0.22333,0.92247 -0.67001,1.31089c-0.42725,0.36899 -0.90305,0.55348 -1.42741,0.55348c-0.95161,0 -1.95176,-0.87392 -3.00047,-2.62177zM221.14009,180.11653c-0.69914,0.25247 -1.84496,0.54377 -3.43744,0.87392c-1.57307,0.31072 -2.69946,0.67001 -3.37918,1.07784c-0.66029,0.40783 -0.99044,1.00016 -0.99044,1.77698c0,0.67972 0.26217,1.27204 0.78653,1.77698c0.54377,0.50493 1.29147,0.7574 2.24307,0.7574c1.02929,0 1.98089,-0.28159 2.85482,-0.84479c0.87393,-0.5632 1.40799,-1.2235 1.60219,-1.9809c0.21363,-0.77682 0.32044,-1.92263 0.32044,-3.43743zM242.63196,173.73688v-0.64087c0,-0.83508 0.20392,-1.46626 0.61175,-1.89351c0.42725,-0.42725 0.96131,-0.64087 1.60219,-0.64087c0.69914,0 1.2332,0.25247 1.60219,0.7574c0.38842,0.48551 0.58262,1.54394 0.58262,3.17526v12.43885c0,3.70933 -0.78653,6.19515 -2.3596,7.45749c-1.55364,1.28176 -3.79672,1.92263 -6.72922,1.92263c-2.64119,0 -4.70947,-0.49523 -6.20486,-1.48567c-1.47596,-0.97103 -2.21394,-2.00031 -2.21394,-3.08787c0,-0.58262 0.1942,-1.05842 0.58261,-1.42741c0.38842,-0.34957 0.85451,-0.52436 1.39828,-0.52436c0.48551,0 0.87392,0.11652 1.16523,0.34957c0.29131,0.23305 0.77682,0.78653 1.45654,1.66046c0.69914,0.87393 1.86437,1.31088 3.4957,1.31088c0.91277,0 1.75756,-0.14565 2.53438,-0.43696c0.77682,-0.27189 1.34973,-0.76711 1.71871,-1.48567c0.36899,-0.71856 0.54377,-2.4664 0.52436,-5.24354c-1.4177,2.03915 -3.35975,3.05873 -5.82616,3.05873c-2.36931,0 -4.24339,-0.88364 -5.62225,-2.6509c-1.35943,-1.76727 -2.03916,-4.03947 -2.03916,-6.81661c0,-2.73829 0.69914,-4.91339 2.09742,-6.5253c1.4177,-1.63133 3.26265,-2.44698 5.53485,-2.44698c2.48583,0 4.51527,1.05842 6.08834,3.17525zM233.60141,179.91261c0,1.80611 0.38842,3.18497 1.16523,4.13657c0.79624,0.93219 1.87409,1.39828 3.23352,1.39828c1.18465,0 2.21394,-0.45638 3.08786,-1.36915c0.87393,-0.91277 1.31089,-2.28192 1.31089,-4.10745c0,-1.80611 -0.40783,-3.23352 -1.2235,-4.28223c-0.79624,-1.04871 -1.87409,-1.57306 -3.23352,-1.57306c-1.3206,0 -2.37901,0.49523 -3.17525,1.48567c-0.77682,0.97103 -1.16523,2.40815 -1.16523,4.31136zM263.73722,181.1361h-9.08881c0.03885,1.72843 0.50494,3.0296 1.39828,3.90353c0.91277,0.87393 2.00031,1.31089 3.26265,1.31089c1.55365,0 3.01018,-0.67972 4.36962,-2.03915c0.5632,-0.5632 0.97102,-0.91277 1.22349,-1.04871c0.27189,-0.13594 0.5729,-0.20391 0.90305,-0.20391c0.42725,0 0.78653,0.13594 1.07784,0.40783c0.29131,0.25247 0.43696,0.5729 0.43696,0.96131c0,1.02929 -0.70886,2.12655 -2.12655,3.29179c-1.41769,1.14581 -3.35004,1.71872 -5.79703,1.71872c-3.10728,0 -5.46687,-0.87392 -7.07878,-2.62177c-1.59248,-1.76727 -2.38873,-4.03947 -2.38873,-6.81661c0,-2.81598 0.79625,-5.08818 2.38873,-6.81661c1.61191,-1.74785 3.84526,-2.62177 6.70009,-2.62177c2.73829,0 4.84542,0.82538 6.32138,2.47612c1.49538,1.65075 2.24307,3.43743 2.24307,5.36006c0,0.83508 -0.25247,1.50509 -0.7574,2.01002c-0.48551,0.48551 -1.5148,0.72827 -3.08787,0.72827zM254.64842,178.51433h8.44793c-0.05826,-1.55364 -0.48551,-2.72859 -1.28175,-3.52483c-0.79624,-0.81566 -1.77698,-1.22349 -2.94221,-1.22349c-2.44699,0 -3.85498,1.58277 -4.22396,4.74832zM282.49719,170.96945v-1.34001c0,-2.36931 0.49522,-3.95208 1.48567,-4.74832c0.99045,-0.79624 2.39844,-1.19436 4.22397,-1.19436c2.95193,0 4.42789,0.66029 4.42789,1.9809c0,0.40783 -0.14565,0.77682 -0.43696,1.10697c-0.27189,0.31072 -0.64088,0.46609 -1.10697,0.46609c-0.0971,0 -0.39812,-0.02913 -0.90305,-0.08739c-0.48551,-0.07768 -0.77682,-0.11652 -0.87392,-0.11652c-0.64088,0 -1.16523,0.17479 -1.57306,0.52436c-0.40783,0.33015 -0.61175,1.10697 -0.61175,2.33046v1.07784h1.16523c1.74785,0 2.62177,0.54377 2.62177,1.63133c0,0.54377 -0.16507,0.97103 -0.49522,1.28176c-0.33015,0.29131 -1.03899,0.43696 -2.12655,0.43696h-1.16523v11.27362c0,0.87393 -0.03884,1.53422 -0.11652,1.98089c-0.05826,0.44667 -0.26218,0.87393 -0.61175,1.28176c-0.33015,0.38842 -0.85451,0.58262 -1.57306,0.58262c-0.73798,0 -1.31089,-0.24276 -1.71872,-0.72827c-0.40783,-0.48551 -0.61174,-1.52451 -0.61174,-3.11699v-11.27362h-1.28176c-1.39828,0 -2.09742,-0.5729 -2.09742,-1.71872c0,-1.08756 0.76711,-1.63133 2.30133,-1.63133zM296.16517,163.89067c0.60204,0 1.11668,0.22333 1.54393,0.67001c0.44668,0.44667 0.67001,0.97102 0.67001,1.57306c0,0.62146 -0.22333,1.15552 -0.67001,1.60219c-0.42725,0.44667 -0.9419,0.67001 -1.54393,0.67001c-0.62146,0 -1.15552,-0.22333 -1.6022,-0.67001c-0.44668,-0.44667 -0.67001,-0.98073 -0.67001,-1.60219c0,-0.60204 0.22333,-1.12638 0.67001,-1.57306c0.44668,-0.44667 0.98074,-0.67001 1.6022,-0.67001zM298.43737,174.34863v11.24449c0,1.10697 -0.04855,1.86437 -0.14566,2.2722c-0.0971,0.40783 -0.35928,0.77682 -0.78653,1.10697c-0.40783,0.31072 -0.85451,0.46609 -1.34002,0.46609c-0.50493,0 -0.97102,-0.15537 -1.39828,-0.46609c-0.42725,-0.31072 -0.69914,-0.67972 -0.81567,-1.10697c-0.0971,-0.42725 -0.14565,-1.18464 -0.14565,-2.2722v-11.18623c0,-1.02929 0.03884,-1.75756 0.11652,-2.18481c0.07768,-0.42725 0.32044,-0.80595 0.72827,-1.1361c0.42725,-0.34957 0.91277,-0.52435 1.45654,-0.52435c0.54377,0 1.00986,0.15537 1.39828,0.46609c0.40783,0.29131 0.6603,0.67001 0.7574,1.1361c0.11653,0.46609 0.17478,1.19437 0.17478,2.18481zM309.8732,182.59264l-3.37918,4.92311c-0.62146,0.8545 -1.11668,1.38856 -1.48567,1.60219c-0.34957,0.21363 -0.72827,0.32044 -1.1361,0.32044c-0.60204,0 -1.10697,-0.1845 -1.5148,-0.55348c-0.38842,-0.36899 -0.58262,-0.78653 -0.58262,-1.25262c0,-0.50493 0.32044,-1.21378 0.96132,-2.12655l4.19483,-6.00095l-3.72875,-5.01049c-0.64088,-0.8545 -0.96131,-1.55365 -0.96131,-2.09742c0,-0.52436 0.1942,-0.96132 0.58261,-1.31089c0.38842,-0.34957 0.90306,-0.52435 1.54394,-0.52435c0.52436,0 0.96131,0.15537 1.31088,0.46609c0.34957,0.29131 0.76711,0.77682 1.25262,1.45654l2.94221,4.10744l2.97134,-4.10744c0.62146,-0.87393 1.11668,-1.40799 1.48567,-1.60219c0.36899,-0.21363 0.7574,-0.32044 1.16523,-0.32044c0.58261,0 1.06813,0.17478 1.45654,0.52435c0.40783,0.34957 0.61175,0.7574 0.61175,1.2235c0,0.54377 -0.33015,1.27204 -0.99045,2.18481l-3.72874,5.01049l4.16571,6.00095c0.67972,0.95161 1.01957,1.65075 1.01957,2.09742c0,0.52436 -0.21362,0.96132 -0.64087,1.31089c-0.40783,0.34957 -0.85451,0.52435 -1.34002,0.52435c-0.9516,0 -1.87408,-0.64087 -2.76743,-1.92263zM333.82804,181.1361h-9.08881c0.03884,1.72843 0.50494,3.0296 1.39828,3.90353c0.91277,0.87393 2.00031,1.31089 3.26265,1.31089c1.55365,0 3.01018,-0.67972 4.36962,-2.03915c0.5632,-0.5632 0.97103,-0.91277 1.22349,-1.04871c0.27189,-0.13594 0.5729,-0.20391 0.90305,-0.20391c0.42725,0 0.78653,0.13594 1.07784,0.40783c0.29131,0.25247 0.43696,0.5729 0.43696,0.96131c0,1.02929 -0.70885,2.12655 -2.12655,3.29179c-1.41769,1.14581 -3.35004,1.71872 -5.79703,1.71872c-3.10728,0 -5.46687,-0.87392 -7.07878,-2.62177c-1.59248,-1.76727 -2.38873,-4.03947 -2.38873,-6.81661c0,-2.81598 0.79625,-5.08818 2.38873,-6.81661c1.61191,-1.74785 3.84526,-2.62177 6.70009,-2.62177c2.73829,0 4.84543,0.82538 6.32139,2.47612c1.49538,1.65075 2.24307,3.43743 2.24307,5.36006c0,0.83508 -0.25247,1.50509 -0.7574,2.01002c-0.48551,0.48551 -1.5148,0.72827 -3.08787,0.72827zM324.73924,178.51433h8.44793c-0.05826,-1.55364 -0.48551,-2.72859 -1.28175,-3.52483c-0.79624,-0.81566 -1.77698,-1.22349 -2.94221,-1.22349c-2.44699,0 -3.85498,1.58277 -4.22397,4.74832zM354.23476,186.78748v-0.46609c-1.59248,2.078 -3.61221,3.117 -6.0592,3.117c-2.36931,0 -4.2531,-0.90305 -5.65138,-2.70916c-1.39828,-1.80611 -2.09742,-4.13657 -2.09742,-6.99139c0,-2.68004 0.67972,-4.87456 2.03915,-6.58356c1.37886,-1.72843 3.27236,-2.59264 5.68051,-2.59264c2.34988,0 4.37933,0.95161 6.08834,2.85482v-6.03008c0,-1.65075 0.20392,-2.68004 0.61175,-3.08786c0.42725,-0.40783 1.00016,-0.61175 1.71872,-0.61175c0.50493,0 0.96132,0.14565 1.36915,0.43696c0.42725,0.27189 0.68942,0.64088 0.78653,1.10697c0.0971,0.46609 0.14565,1.23321 0.14565,2.30133v18.26502c0,1.02929 -0.05826,1.76726 -0.17478,2.21394c-0.0971,0.44667 -0.35928,0.79624 -0.78654,1.04871c-0.42725,0.25247 -0.88363,0.3787 -1.36914,0.3787c-1.53422,0 -2.30134,-0.88363 -2.30134,-2.6509zM345.11682,179.88348c0,2.078 0.43696,3.60251 1.31088,4.57354c0.87392,0.95161 1.87408,1.42741 3.00047,1.42741c1.3206,0 2.40814,-0.49523 3.26265,-1.48567c0.85451,-1.00986 1.28176,-2.40815 1.28176,-4.19484c0,-1.86437 -0.41755,-3.35004 -1.25263,-4.45701c-0.83508,-1.10697 -1.94206,-1.66046 -3.32092,-1.66046c-1.26234,0 -2.29162,0.51465 -3.08786,1.54394c-0.79624,1.02929 -1.19436,2.44699 -1.19436,4.2531zM369.15701,169.89161l-0.72827,8.36054c-0.11653,1.2235 -0.33015,2.04887 -0.64088,2.47612c-0.31072,0.40783 -0.69914,0.61174 -1.16523,0.61174c-0.48551,0 -0.87392,-0.21363 -1.16523,-0.64087c-0.29131,-0.42725 -0.48551,-1.24292 -0.58261,-2.44699l-0.58262,-8.15662c-0.05826,-0.71856 -0.08739,-1.71872 -0.08739,-3.00047c0,-2.27221 0.86422,-3.40831 2.59265,-3.40831c0.7574,0 1.34972,0.26217 1.77697,0.78653c0.42725,0.50493 0.64088,1.46625 0.64088,2.88395c0,1.14581 -0.01942,1.99061 -0.05826,2.53438zM366.71002,184.31136c0.69914,0 1.30118,0.25247 1.80611,0.7574c0.50493,0.48551 0.7574,1.07784 0.7574,1.77698c0,0.69914 -0.25247,1.31088 -0.7574,1.83524c-0.50493,0.50493 -1.10697,0.7574 -1.80611,0.7574c-0.69914,0 -1.30118,-0.25247 -1.80611,-0.7574c-0.50493,-0.50493 -0.7574,-1.11668 -0.7574,-1.83524c0,-0.69914 0.25247,-1.29147 0.7574,-1.77698c0.50493,-0.50493 1.10697,-0.7574 1.80611,-0.7574z" fill="#ffffff" stroke="#000000" stroke-width="7.5" stroke-linecap="square"/><path d="M115.88264,170.18292c0,0.69914 0.30102,1.31088 0.90305,1.83524c0.62146,0.52436 2.18481,1.08755 4.69006,1.68958c2.52466,0.60204 4.38904,1.23321 5.59311,1.89351c1.20407,0.66029 2.078,1.52452 2.62177,2.59264c0.54377,1.04871 0.81566,2.15568 0.81566,3.32091c0,2.33047 -0.88364,4.23368 -2.6509,5.70964c-1.76726,1.47596 -4.1657,2.21394 -7.19531,2.21394c-3.34033,0 -5.83588,-0.79624 -7.48662,-2.38872c-1.63133,-1.61191 -2.44698,-3.27237 -2.44698,-4.98137c0,-0.5632 0.20391,-1.06813 0.61174,-1.5148c0.42725,-0.44667 0.98073,-0.67001 1.66045,-0.67001c0.62146,0 1.08756,0.1845 1.39828,0.55348c0.31073,0.36899 0.67972,1.05842 1.10697,2.06829c0.93219,2.13626 2.59265,3.20439 4.98137,3.20439c1.41769,0 2.61206,-0.32044 3.58309,-0.96132c0.99044,-0.66029 1.48568,-1.55365 1.48568,-2.68004c0,-0.87393 -0.33986,-1.62161 -1.01958,-2.24307c-0.6603,-0.62146 -2.20423,-1.21378 -4.6318,-1.77698c-2.40815,-0.5632 -4.10745,-1.09726 -5.09789,-1.60219c-0.97103,-0.50493 -1.81583,-1.2332 -2.53438,-2.18481c-0.71855,-0.97103 -1.07784,-2.17509 -1.07784,-3.61222c0,-2.11684 0.83508,-3.80642 2.50525,-5.06876c1.67017,-1.26234 3.95208,-1.8935 6.84574,-1.8935c2.95193,0 5.17557,0.67001 6.67096,2.01003c1.49538,1.34001 2.24307,2.68975 2.24307,4.04918c0,0.58262 -0.22333,1.12639 -0.67001,1.63133c-0.42725,0.48551 -0.97103,0.72827 -1.63132,0.72827c-0.62146,0 -1.08755,-0.17478 -1.39828,-0.52435c-0.31073,-0.34957 -0.67001,-0.93218 -1.07784,-1.74785c-0.85451,-1.709 -2.33047,-2.56351 -4.42789,-2.56351c-1.22349,0 -2.26249,0.27189 -3.117,0.81566c-0.83508,0.52436 -1.25262,1.22349 -1.25262,2.09742zM146.16087,186.81661c-2.19452,1.74785 -4.3502,2.62177 -6.46704,2.62177c-2.00031,0 -3.54424,-0.50494 -4.6318,-1.5148c-1.06813,-1.02929 -1.60219,-2.28191 -1.60219,-3.75787c0,-1.26234 0.35928,-2.28192 1.07783,-3.05874c0.73799,-0.77682 1.53423,-1.31088 2.38873,-1.60219c0.87393,-0.31072 2.28191,-0.67001 4.22396,-1.07784c1.94205,-0.40783 3.50541,-0.77682 4.69006,-1.10697c-0.01942,-1.39828 -0.30103,-2.34017 -0.8448,-2.82568c-0.54377,-0.50493 -1.36915,-0.75741 -2.47611,-0.75741c-2.09742,0 -3.47628,0.59233 -4.13658,1.77698c-0.34957,0.66029 -0.67001,1.1361 -0.96132,1.42741c-0.27189,0.27189 -0.67972,0.40783 -1.22349,0.40783c-0.48551,0 -0.93219,-0.15537 -1.34002,-0.46609c-0.38842,-0.33015 -0.58262,-0.74769 -0.58262,-1.25262c0,-1.20407 0.65059,-2.34988 1.95176,-3.43743c1.30118,-1.08756 3.35004,-1.63133 6.1466,-1.63133c2.8354,0 4.90368,0.49523 6.20486,1.48567c1.3206,0.97103 1.94205,2.95192 1.86437,5.94268l-0.08739,4.34049c-0.03885,1.34001 0.0971,2.43727 0.40783,3.29178c0.33015,0.8545 0.49523,1.50509 0.49523,1.95176c0,0.48551 -0.22334,0.92247 -0.67001,1.31089c-0.42725,0.36899 -0.90305,0.55348 -1.42741,0.55348c-0.95161,0 -1.95176,-0.87392 -3.00047,-2.62177zM145.86957,180.11653c-0.69914,0.25247 -1.84495,0.54377 -3.43743,0.87392c-1.57307,0.31072 -2.69946,0.67001 -3.37918,1.07784c-0.66029,0.40783 -0.99044,1.00016 -0.99044,1.77698c0,0.67972 0.26217,1.27204 0.78653,1.77698c0.54377,0.50493 1.29147,0.7574 2.24308,0.7574c1.02929,0 1.98089,-0.28159 2.85482,-0.84479c0.87393,-0.5632 1.40799,-1.2235 1.60219,-1.9809c0.21363,-0.77682 0.32044,-1.92263 0.32044,-3.43743zM158.88431,186.32139v0.46609c0,1.76727 -0.76712,2.6509 -2.30134,2.6509c-0.58262,0 -1.07784,-0.14565 -1.48567,-0.43696c-0.40783,-0.31072 -0.65059,-0.67972 -0.72827,-1.10697c-0.07768,-0.44667 -0.11652,-1.14581 -0.11652,-2.09742v-18.26502c0,-1.04871 0.04855,-1.81582 0.14565,-2.30133c0.11652,-0.48551 0.3787,-0.86421 0.78653,-1.1361c0.42725,-0.27189 0.88364,-0.40783 1.36915,-0.40783c0.69914,0 1.26234,0.20392 1.68958,0.61175c0.42725,0.40783 0.64088,1.43712 0.64088,3.08786v6.03008c1.72843,-1.90321 3.75787,-2.85482 6.08834,-2.85482c2.40814,0 4.29194,0.86421 5.65138,2.59264c1.37886,1.709 2.06829,3.90353 2.06829,6.58356c0,2.85482 -0.69914,5.18528 -2.09742,6.99139c-1.39828,1.80611 -3.29179,2.70916 -5.68051,2.70916c-2.40814,0 -4.41816,-1.03899 -6.03007,-3.117zM159.11735,180.20392c0,1.78669 0.42725,3.18497 1.28176,4.19484c0.87393,0.99044 1.97118,1.48567 3.29178,1.48567c1.10697,0 2.09742,-0.4758 2.97134,-1.42741c0.89334,-0.97103 1.34001,-2.49554 1.34001,-4.57354c0,-1.80611 -0.39811,-3.2141 -1.19436,-4.22396c-0.79624,-1.02929 -1.82552,-1.54394 -3.08786,-1.54394c-1.39828,0 -2.51496,0.55349 -3.35004,1.66046c-0.83508,1.08756 -1.25263,2.56351 -1.25263,4.42788zM184.49758,170.56162c2.87423,0 5.13674,0.89335 6.78748,2.68004c1.65075,1.76727 2.47611,4.02005 2.47611,6.75834c0,2.75771 -0.83507,5.02021 -2.50525,6.78748c-1.67017,1.76727 -3.88411,2.6509 -6.64183,2.6509c-2.99076,0 -5.30181,-0.89335 -6.93313,-2.68004c-1.61191,-1.80611 -2.41786,-4.05889 -2.41786,-6.75834c0,-2.75771 0.82538,-5.02021 2.47612,-6.78748c1.65075,-1.76727 3.90353,-2.6509 6.75834,-2.6509zM184.49758,185.97182c1.4177,0 2.53438,-0.52435 3.35004,-1.57306c0.81566,-1.06813 1.2235,-2.53438 1.2235,-4.39875c0,-1.88379 -0.40783,-3.35004 -1.2235,-4.39875c-0.81566,-1.06813 -1.93235,-1.60219 -3.35004,-1.60219c-1.37886,0 -2.48583,0.53407 -3.32091,1.60219c-0.81566,1.06813 -1.22349,2.53438 -1.22349,4.39875c0,1.88379 0.40783,3.35004 1.22349,4.39875c0.83508,1.04871 1.94205,1.57306 3.32091,1.57306zM198.16522,170.96945v-2.76743c0,-1.14581 0.04855,-1.92264 0.14566,-2.33047c0.0971,-0.42725 0.34957,-0.79624 0.7574,-1.10697c0.40783,-0.33015 0.88364,-0.49523 1.42741,-0.49523c0.48551,0 0.93219,0.14565 1.34002,0.43696c0.40783,0.29131 0.67001,0.65059 0.78653,1.07784c0.13594,0.42725 0.20391,1.10698 0.20391,2.03916v3.14612h0.90305c1.12639,0 1.87409,0.14566 2.24307,0.43697c0.36899,0.27189 0.55348,0.67 0.55348,1.19436c0,1.14581 -0.95161,1.71872 -2.85482,1.71872h-0.84479v8.56446c0,1.16523 0.07768,1.96148 0.23305,2.38872c0.17479,0.40783 0.61175,0.61175 1.31089,0.61175c0.34957,0 0.72827,-0.04855 1.1361,-0.14566c0.42725,-0.0971 0.74769,-0.14565 0.96132,-0.14565c0.46609,0 0.84479,0.15536 1.1361,0.46609c0.29131,0.29131 0.43696,0.65059 0.43696,1.07784c0,1.53422 -1.60219,2.30133 -4.80658,2.30133c-1.55364,0 -2.69945,-0.29131 -3.43744,-0.87392c-0.71856,-0.58262 -1.17495,-1.28175 -1.36915,-2.09742c-0.17479,-0.83508 -0.26218,-1.91292 -0.26218,-3.23352v-8.91403h-0.61174c-1.35943,0 -2.03916,-0.55349 -2.03916,-1.66046c0,-1.12639 0.71856,-1.68958 2.15568,-1.68958zM221.43139,186.81661c-2.19452,1.74785 -4.3502,2.62177 -6.46704,2.62177c-2.00031,0 -3.54424,-0.50494 -4.6318,-1.5148c-1.06813,-1.02929 -1.60219,-2.28191 -1.60219,-3.75787c0,-1.26234 0.35928,-2.28192 1.07784,-3.05874c0.73799,-0.77682 1.53422,-1.31088 2.38872,-1.60219c0.87393,-0.31072 2.28192,-0.67001 4.22397,-1.07784c1.94205,-0.40783 3.50541,-0.77682 4.69006,-1.10697c-0.01942,-1.39828 -0.30103,-2.34017 -0.8448,-2.82568c-0.54377,-0.50493 -1.36915,-0.75741 -2.47612,-0.75741c-2.09742,0 -3.47628,0.59233 -4.13657,1.77698c-0.34957,0.66029 -0.67,1.1361 -0.96131,1.42741c-0.27189,0.27189 -0.67973,0.40783 -1.2235,0.40783c-0.48551,0 -0.93219,-0.15537 -1.34001,-0.46609c-0.38842,-0.33015 -0.58262,-0.74769 -0.58262,-1.25262c0,-1.20407 0.65059,-2.34988 1.95176,-3.43743c1.30118,-1.08756 3.35004,-1.63133 6.1466,-1.63133c2.8354,0 4.90369,0.49523 6.20486,1.48567c1.3206,0.97103 1.94205,2.95192 1.86437,5.94268l-0.0874,4.34049c-0.03885,1.34001 0.09711,2.43727 0.40784,3.29178c0.33015,0.8545 0.49522,1.50509 0.49522,1.95176c0,0.48551 -0.22333,0.92247 -0.67001,1.31089c-0.42725,0.36899 -0.90305,0.55348 -1.42741,0.55348c-0.95161,0 -1.95176,-0.87392 -3.00047,-2.62177zM221.14009,180.11653c-0.69914,0.25247 -1.84496,0.54377 -3.43744,0.87392c-1.57307,0.31072 -2.69946,0.67001 -3.37918,1.07784c-0.66029,0.40783 -0.99044,1.00016 -0.99044,1.77698c0,0.67972 0.26217,1.27204 0.78653,1.77698c0.54377,0.50493 1.29147,0.7574 2.24307,0.7574c1.02929,0 1.98089,-0.28159 2.85482,-0.84479c0.87393,-0.5632 1.40799,-1.2235 1.60219,-1.9809c0.21363,-0.77682 0.32044,-1.92263 0.32044,-3.43743zM242.63196,173.73688v-0.64087c0,-0.83508 0.20392,-1.46626 0.61175,-1.89351c0.42725,-0.42725 0.96131,-0.64087 1.60219,-0.64087c0.69914,0 1.2332,0.25247 1.60219,0.7574c0.38842,0.48551 0.58262,1.54394 0.58262,3.17526v12.43885c0,3.70933 -0.78653,6.19515 -2.3596,7.45749c-1.55364,1.28176 -3.79672,1.92263 -6.72922,1.92263c-2.64119,0 -4.70947,-0.49523 -6.20486,-1.48567c-1.47596,-0.97103 -2.21394,-2.00031 -2.21394,-3.08787c0,-0.58262 0.1942,-1.05842 0.58261,-1.42741c0.38842,-0.34957 0.85451,-0.52436 1.39828,-0.52436c0.48551,0 0.87392,0.11652 1.16523,0.34957c0.29131,0.23305 0.77682,0.78653 1.45654,1.66046c0.69914,0.87393 1.86437,1.31088 3.4957,1.31088c0.91277,0 1.75756,-0.14565 2.53438,-0.43696c0.77682,-0.27189 1.34973,-0.76711 1.71871,-1.48567c0.36899,-0.71856 0.54377,-2.4664 0.52436,-5.24354c-1.4177,2.03915 -3.35975,3.05873 -5.82616,3.05873c-2.36931,0 -4.24339,-0.88364 -5.62225,-2.6509c-1.35943,-1.76727 -2.03916,-4.03947 -2.03916,-6.81661c0,-2.73829 0.69914,-4.91339 2.09742,-6.5253c1.4177,-1.63133 3.26265,-2.44698 5.53485,-2.44698c2.48583,0 4.51527,1.05842 6.08834,3.17525zM233.60141,179.91261c0,1.80611 0.38842,3.18497 1.16523,4.13657c0.79624,0.93219 1.87409,1.39828 3.23352,1.39828c1.18465,0 2.21394,-0.45638 3.08786,-1.36915c0.87393,-0.91277 1.31089,-2.28192 1.31089,-4.10745c0,-1.80611 -0.40783,-3.23352 -1.2235,-4.28223c-0.79624,-1.04871 -1.87409,-1.57306 -3.23352,-1.57306c-1.3206,0 -2.37901,0.49523 -3.17525,1.48567c-0.77682,0.97103 -1.16523,2.40815 -1.16523,4.31136zM263.73722,181.1361h-9.08881c0.03885,1.72843 0.50494,3.0296 1.39828,3.90353c0.91277,0.87393 2.00031,1.31089 3.26265,1.31089c1.55365,0 3.01018,-0.67972 4.36962,-2.03915c0.5632,-0.5632 0.97102,-0.91277 1.22349,-1.04871c0.27189,-0.13594 0.5729,-0.20391 0.90305,-0.20391c0.42725,0 0.78653,0.13594 1.07784,0.40783c0.29131,0.25247 0.43696,0.5729 0.43696,0.96131c0,1.02929 -0.70886,2.12655 -2.12655,3.29179c-1.41769,1.14581 -3.35004,1.71872 -5.79703,1.71872c-3.10728,0 -5.46687,-0.87392 -7.07878,-2.62177c-1.59248,-1.76727 -2.38873,-4.03947 -2.38873,-6.81661c0,-2.81598 0.79625,-5.08818 2.38873,-6.81661c1.61191,-1.74785 3.84526,-2.62177 6.70009,-2.62177c2.73829,0 4.84542,0.82538 6.32138,2.47612c1.49538,1.65075 2.24307,3.43743 2.24307,5.36006c0,0.83508 -0.25247,1.50509 -0.7574,2.01002c-0.48551,0.48551 -1.5148,0.72827 -3.08787,0.72827zM254.64842,178.51433h8.44793c-0.05826,-1.55364 -0.48551,-2.72859 -1.28175,-3.52483c-0.79624,-0.81566 -1.77698,-1.22349 -2.94221,-1.22349c-2.44699,0 -3.85498,1.58277 -4.22396,4.74832zM282.49719,170.96945v-1.34001c0,-2.36931 0.49522,-3.95208 1.48567,-4.74832c0.99045,-0.79624 2.39844,-1.19436 4.22397,-1.19436c2.95193,0 4.42789,0.66029 4.42789,1.9809c0,0.40783 -0.14565,0.77682 -0.43696,1.10697c-0.27189,0.31072 -0.64088,0.46609 -1.10697,0.46609c-0.0971,0 -0.39812,-0.02913 -0.90305,-0.08739c-0.48551,-0.07768 -0.77682,-0.11652 -0.87392,-0.11652c-0.64088,0 -1.16523,0.17479 -1.57306,0.52436c-0.40783,0.33015 -0.61175,1.10697 -0.61175,2.33046v1.07784h1.16523c1.74785,0 2.62177,0.54377 2.62177,1.63133c0,0.54377 -0.16507,0.97103 -0.49522,1.28176c-0.33015,0.29131 -1.03899,0.43696 -2.12655,0.43696h-1.16523v11.27362c0,0.87393 -0.03884,1.53422 -0.11652,1.98089c-0.05826,0.44667 -0.26218,0.87393 -0.61175,1.28176c-0.33015,0.38842 -0.85451,0.58262 -1.57306,0.58262c-0.73798,0 -1.31089,-0.24276 -1.71872,-0.72827c-0.40783,-0.48551 -0.61174,-1.52451 -0.61174,-3.11699v-11.27362h-1.28176c-1.39828,0 -2.09742,-0.5729 -2.09742,-1.71872c0,-1.08756 0.76711,-1.63133 2.30133,-1.63133zM296.16517,163.89067c0.60204,0 1.11668,0.22333 1.54393,0.67001c0.44668,0.44667 0.67001,0.97102 0.67001,1.57306c0,0.62146 -0.22333,1.15552 -0.67001,1.60219c-0.42725,0.44667 -0.9419,0.67001 -1.54393,0.67001c-0.62146,0 -1.15552,-0.22333 -1.6022,-0.67001c-0.44668,-0.44667 -0.67001,-0.98073 -0.67001,-1.60219c0,-0.60204 0.22333,-1.12638 0.67001,-1.57306c0.44668,-0.44667 0.98074,-0.67001 1.6022,-0.67001zM298.43737,174.34863v11.24449c0,1.10697 -0.04855,1.86437 -0.14566,2.2722c-0.0971,0.40783 -0.35928,0.77682 -0.78653,1.10697c-0.40783,0.31072 -0.85451,0.46609 -1.34002,0.46609c-0.50493,0 -0.97102,-0.15537 -1.39828,-0.46609c-0.42725,-0.31072 -0.69914,-0.67972 -0.81567,-1.10697c-0.0971,-0.42725 -0.14565,-1.18464 -0.14565,-2.2722v-11.18623c0,-1.02929 0.03884,-1.75756 0.11652,-2.18481c0.07768,-0.42725 0.32044,-0.80595 0.72827,-1.1361c0.42725,-0.34957 0.91277,-0.52435 1.45654,-0.52435c0.54377,0 1.00986,0.15537 1.39828,0.46609c0.40783,0.29131 0.6603,0.67001 0.7574,1.1361c0.11653,0.46609 0.17478,1.19437 0.17478,2.18481zM309.8732,182.59264l-3.37918,4.92311c-0.62146,0.8545 -1.11668,1.38856 -1.48567,1.60219c-0.34957,0.21363 -0.72827,0.32044 -1.1361,0.32044c-0.60204,0 -1.10697,-0.1845 -1.5148,-0.55348c-0.38842,-0.36899 -0.58262,-0.78653 -0.58262,-1.25262c0,-0.50493 0.32044,-1.21378 0.96132,-2.12655l4.19483,-6.00095l-3.72875,-5.01049c-0.64088,-0.8545 -0.96131,-1.55365 -0.96131,-2.09742c0,-0.52436 0.1942,-0.96132 0.58261,-1.31089c0.38842,-0.34957 0.90306,-0.52435 1.54394,-0.52435c0.52436,0 0.96131,0.15537 1.31088,0.46609c0.34957,0.29131 0.76711,0.77682 1.25262,1.45654l2.94221,4.10744l2.97134,-4.10744c0.62146,-0.87393 1.11668,-1.40799 1.48567,-1.60219c0.36899,-0.21363 0.7574,-0.32044 1.16523,-0.32044c0.58261,0 1.06813,0.17478 1.45654,0.52435c0.40783,0.34957 0.61175,0.7574 0.61175,1.2235c0,0.54377 -0.33015,1.27204 -0.99045,2.18481l-3.72874,5.01049l4.16571,6.00095c0.67972,0.95161 1.01957,1.65075 1.01957,2.09742c0,0.52436 -0.21362,0.96132 -0.64087,1.31089c-0.40783,0.34957 -0.85451,0.52435 -1.34002,0.52435c-0.9516,0 -1.87408,-0.64087 -2.76743,-1.92263zM333.82804,181.1361h-9.08881c0.03884,1.72843 0.50494,3.0296 1.39828,3.90353c0.91277,0.87393 2.00031,1.31089 3.26265,1.31089c1.55365,0 3.01018,-0.67972 4.36962,-2.03915c0.5632,-0.5632 0.97103,-0.91277 1.22349,-1.04871c0.27189,-0.13594 0.5729,-0.20391 0.90305,-0.20391c0.42725,0 0.78653,0.13594 1.07784,0.40783c0.29131,0.25247 0.43696,0.5729 0.43696,0.96131c0,1.02929 -0.70885,2.12655 -2.12655,3.29179c-1.41769,1.14581 -3.35004,1.71872 -5.79703,1.71872c-3.10728,0 -5.46687,-0.87392 -7.07878,-2.62177c-1.59248,-1.76727 -2.38873,-4.03947 -2.38873,-6.81661c0,-2.81598 0.79625,-5.08818 2.38873,-6.81661c1.61191,-1.74785 3.84526,-2.62177 6.70009,-2.62177c2.73829,0 4.84543,0.82538 6.32139,2.47612c1.49538,1.65075 2.24307,3.43743 2.24307,5.36006c0,0.83508 -0.25247,1.50509 -0.7574,2.01002c-0.48551,0.48551 -1.5148,0.72827 -3.08787,0.72827zM324.73924,178.51433h8.44793c-0.05826,-1.55364 -0.48551,-2.72859 -1.28175,-3.52483c-0.79624,-0.81566 -1.77698,-1.22349 -2.94221,-1.22349c-2.44699,0 -3.85498,1.58277 -4.22397,4.74832zM354.23476,186.78748v-0.46609c-1.59248,2.078 -3.61221,3.117 -6.0592,3.117c-2.36931,0 -4.2531,-0.90305 -5.65138,-2.70916c-1.39828,-1.80611 -2.09742,-4.13657 -2.09742,-6.99139c0,-2.68004 0.67972,-4.87456 2.03915,-6.58356c1.37886,-1.72843 3.27236,-2.59264 5.68051,-2.59264c2.34988,0 4.37933,0.95161 6.08834,2.85482v-6.03008c0,-1.65075 0.20392,-2.68004 0.61175,-3.08786c0.42725,-0.40783 1.00016,-0.61175 1.71872,-0.61175c0.50493,0 0.96132,0.14565 1.36915,0.43696c0.42725,0.27189 0.68942,0.64088 0.78653,1.10697c0.0971,0.46609 0.14565,1.23321 0.14565,2.30133v18.26502c0,1.02929 -0.05826,1.76726 -0.17478,2.21394c-0.0971,0.44667 -0.35928,0.79624 -0.78654,1.04871c-0.42725,0.25247 -0.88363,0.3787 -1.36914,0.3787c-1.53422,0 -2.30134,-0.88363 -2.30134,-2.6509zM345.11682,179.88348c0,2.078 0.43696,3.60251 1.31088,4.57354c0.87392,0.95161 1.87408,1.42741 3.00047,1.42741c1.3206,0 2.40814,-0.49523 3.26265,-1.48567c0.85451,-1.00986 1.28176,-2.40815 1.28176,-4.19484c0,-1.86437 -0.41755,-3.35004 -1.25263,-4.45701c-0.83508,-1.10697 -1.94206,-1.66046 -3.32092,-1.66046c-1.26234,0 -2.29162,0.51465 -3.08786,1.54394c-0.79624,1.02929 -1.19436,2.44699 -1.19436,4.2531zM369.15701,169.89161l-0.72827,8.36054c-0.11653,1.2235 -0.33015,2.04887 -0.64088,2.47612c-0.31072,0.40783 -0.69914,0.61174 -1.16523,0.61174c-0.48551,0 -0.87392,-0.21363 -1.16523,-0.64087c-0.29131,-0.42725 -0.48551,-1.24292 -0.58261,-2.44699l-0.58262,-8.15662c-0.05826,-0.71856 -0.08739,-1.71872 -0.08739,-3.00047c0,-2.27221 0.86422,-3.40831 2.59265,-3.40831c0.7574,0 1.34972,0.26217 1.77697,0.78653c0.42725,0.50493 0.64088,1.46625 0.64088,2.88395c0,1.14581 -0.01942,1.99061 -0.05826,2.53438zM366.71002,184.31136c0.69914,0 1.30118,0.25247 1.80611,0.7574c0.50493,0.48551 0.7574,1.07784 0.7574,1.77698c0,0.69914 -0.25247,1.31088 -0.7574,1.83524c-0.50493,0.50493 -1.10697,0.7574 -1.80611,0.7574c-0.69914,0 -1.30118,-0.25247 -1.80611,-0.7574c-0.50493,-0.50493 -0.7574,-1.11668 -0.7574,-1.83524c0,-0.69914 0.25247,-1.29147 0.7574,-1.77698c0.50493,-0.50493 1.10697,-0.7574 1.80611,-0.7574z" fill="#ffffff" stroke="none" stroke-width="1" stroke-linecap="square"/><path d="M217.5,212.57522v-74h33.66667v74z" fill="none" stroke="none" stroke-width="0" stroke-linecap="butt"/><path d="M232.42932,221.42478v-68.85441h15.4789v68.85441z" fill="none" stroke="none" stroke-width="0" stroke-linecap="butt"/></g></g></svg>