<svg version="1.1" xmlns="http://www.w3.org/2000/svg" xmlns:xlink="http://www.w3.org/1999/xlink" width="108.25" height="53.75" viewBox="0,0,108.25,53.75"><g transform="translate(-157.8365,-145.95233)"><g data-paper-data="{&quot;isPaintingLayer&quot;:true}" fill-rule="nonzero" stroke-linecap="butt" stroke-linejoin="miter" stroke-miterlimit="10" stroke-dasharray="" stroke-dashoffset="0" style="mix-blend-mode: normal"><path d="M157.8365,199.70233v-53.75h108.25v53.75z" data-paper-data="{&quot;index&quot;:null}" fill="none" stroke="none" stroke-width="NaN"/><g data-paper-data="{&quot;index&quot;:null}"><path d="M209.82135,187.37581c-1.94588,-0.58003 -18.14416,-5.40836 -23.05776,-6.87299c-0.30986,-0.09236 -0.57484,-0.17134 -0.78854,-0.23504c-0.39881,-0.11888 -0.42273,-0.24303 -0.0651,-0.34963c3.46347,-1.03238 22.05769,-6.57489 24.00739,-7.15605c0.32531,-0.09697 0.56175,0.08248 0.56175,0.39621c0,2.38019 -2.33333,7.15651 -2.33333,7.15651c0,0 2.33333,5.34385 2.33333,6.45182c0,0.51262 -0.28101,0.72147 -0.65774,0.60917z" fill="none" stroke="#ffffff" stroke-width="5"/><path d="M204.28898,180.32483l5.63658,-6.92495c0,0 0.06708,1.42165 -0.34213,3.12457c-0.3097,1.28881 -1.12955,2.7862 -1.10232,3.67926c0.02618,0.85876 0.85257,1.66645 1.0569,2.66762c0.42884,2.10116 0.38755,4.29793 0.38755,4.29793z" fill="#b7c5c5" stroke="none" stroke-width="0"/><path d="M204.45001,180.2443l-18.03708,0.24157l23.59315,-7.16651z" data-paper-data="{&quot;index&quot;:null}" fill="#a8aebb" stroke="none" stroke-width="0"/><path d="M209.92556,187.16925l-23.59315,-7.16652l18.03708,0.24157z" fill="#abbbbb" stroke="none" stroke-width="0"/><path d="M209.28138,187.24976l-23.19054,-7.06904l3.32706,-1.12492z" fill="#7d1d10" stroke="none" stroke-width="0"/><path d="M190.34908,180.95102l-3.69458,-1.28732l23.19054,-7.06905z" data-paper-data="{&quot;index&quot;:null}" fill="#7d1d10" stroke="none" stroke-width="0"/><path d="M209.82135,187.37581c-2.06859,-0.6166 -20.24379,-6.03421 -23.8463,-7.10803c-0.39881,-0.11888 -0.42273,-0.24303 -0.0651,-0.34963c3.46347,-1.03238 22.05769,-6.57489 24.00739,-7.15605c0.32531,-0.09697 0.56175,0.08248 0.56175,0.39621c0,2.38019 -2.33333,7.15651 -2.33333,7.15651c0,0 2.33333,5.34385 2.33333,6.45182c0,0.51262 -0.28101,0.72147 -0.65774,0.60917z" fill="none" stroke="#000000" stroke-width="2.5"/></g></g></g></svg>