<svg version="1.1" xmlns="http://www.w3.org/2000/svg" xmlns:xlink="http://www.w3.org/1999/xlink" width="307" height="307" viewBox="0,0,307,307"><defs><linearGradient x1="192.03038" y1="201.00623" x2="192.03038" y2="246.19075" gradientUnits="userSpaceOnUse" id="color-1"><stop offset="0" stop-color="#8ec4d0"/><stop offset="1" stop-color="#406077"/></linearGradient><linearGradient x1="192.03039" y1="201.00623" x2="192.03039" y2="246.19075" gradientUnits="userSpaceOnUse" id="color-2"><stop offset="0" stop-color="#8ec4d0"/><stop offset="1" stop-color="#406077"/></linearGradient><linearGradient x1="267.65052" y1="203.89808" x2="267.65052" y2="249.08261" gradientUnits="userSpaceOnUse" id="color-3"><stop offset="0" stop-color="#8ec4d0"/><stop offset="1" stop-color="#406077"/></linearGradient></defs><g transform="translate(-86.5,-47.19453)"><g data-paper-data="{&quot;isPaintingLayer&quot;:true}" fill-rule="nonzero" stroke-linecap="butt" stroke-linejoin="miter" stroke-miterlimit="10" stroke-dasharray="" stroke-dashoffset="0" style="mix-blend-mode: normal"><path d="M89,200.69453c0,-83.39499 67.60501,-151 151,-151c83.39499,0 151,67.60501 151,151c0,83.39499 -67.60501,151 -151,151c-83.39499,0 -151,-67.60501 -151,-151z" fill="#c1ffb2" stroke="none" stroke-width="0"/><path d="M92,174.69451c0,0 12.39294,60.43765 55.98474,110.83318c42.25722,48.85264 69.10277,62.95198 69.10277,62.95198c0,0 -18.64049,-2.35942 -26.09179,-4.91461c-24.90904,-8.54177 -46.87791,-23.41437 -63.98602,-42.69722c-14.83039,-16.7156 -26.00815,-36.74528 -32.28219,-58.83796c-1.63816,-5.76842 -4.36357,-19.45418 -4.66195,-32.99194c-0.38115,-17.29247 1.93445,-34.34344 1.93445,-34.34344z" fill="#a9ef51" stroke="none" stroke-width="0"/><path d="M112.3922,119.92888c0,0 2.9874,-4.57182 4.5701,-6.79188c13.23093,-18.559 30.55615,-33.99744 50.65712,-44.99678c2.3231,-1.27121 7.07849,-3.63372 7.07849,-3.63372c0,0 1.41646,83.64612 14.97423,159.73551c11.85622,66.5399 36.29102,126.83034 33.75137,126.55303c-75.59605,-8.25439 -111.0313,-230.86617 -111.0313,-230.86617z" fill="#abee53" stroke="none" stroke-width="0"/><path d="M238.48285,50.28825c0,0 21.1116,0.63494 24.12507,1.08736c16.14936,2.42458 31.46169,7.40663 45.51148,14.52063c2.27146,1.15014 6.71357,3.61578 6.71357,3.61578c0,0 -23.12187,74.19765 -34.5305,138.53809c-8.04369,45.36344 -16.83565,141.83179 -16.83565,141.83179c0,0 -6.49388,0.9056 -9.78826,1.2014c-4.50542,0.40454 -6.06786,0.61119 -10.67857,0.61119c-3.46676,0 -6.31471,0.65324 -6.31471,0.65324c0,0 -8.80023,-107.69193 -5.65681,-186.3893c1.70155,-42.59948 7.45437,-115.6702 7.45437,-115.6702z" fill="#abee53" stroke="none" stroke-width="0"/><path d="M355.7369,104.68175c0,0 8.27066,9.75729 10.25283,12.75062c10.85586,16.39376 18.59764,35.0296 22.38197,55.06412c1.09108,5.77628 -0.3717,0.19801 -0.3717,0.19801c0,0 -22.85239,37.94419 -36.39089,64.02344c-16.5176,31.81789 -32.99932,92.0441 -34.83156,93.40104c-8.77132,6.49599 -5.27122,4.06418 -15.35463,8.55953c-1.94452,0.86689 -8.8976,2.47996 -8.8976,2.47996c0,0 -2.21784,-41.30569 21.44111,-125.21136c14.53188,-51.53681 41.77049,-111.26534 41.77049,-111.26534z" fill="#abee53" stroke="none" stroke-width="0"/><path d="M389.99999,212.69453c0,0 0.85107,-4.20631 0.55856,-0.36701c-3.96206,52.00368 -34.26586,96.64238 -77.59701,120.60173c-12.60939,6.97218 11.67262,-36.05746 37.44993,-72.31919c18.43477,-25.93276 39.58852,-47.91553 39.58852,-47.91553z" fill="#abee53" stroke="none" stroke-width="0"/><g><path d="M94.74072,240.27968c0,0 12.20883,-24.29424 16.27059,-30.01764c2.69634,-3.7994 7.72941,-3.14902 7.72941,-3.14902l-8.33333,57.5c0,0 -4.74492,-7.1173 -6.90324,-11.22839c-0.73418,-1.39844 -2.47421,0.54146 -3.61983,-1.19435c-2.70385,-4.09678 -5.1436,-11.9106 -5.1436,-11.9106z" fill="#fb7c00" stroke="none" stroke-width="0"/><path d="M118.74072,207.11298l-8.7977,57.5c0,0 -9.98197,-4.28397 -11.92723,-10.72839c-2.60444,-4.69899 20.72493,-46.77161 20.72493,-46.77161z" fill="#b43f15" stroke="none" stroke-width="0"/><path d="M93.74071,239.61298c0,0 13.20883,-23.62758 17.27059,-29.35098c2.69634,-3.7994 7.72941,-3.14902 7.72941,-3.14902l-8.33333,57.5c0,0 -8.41159,-4.1173 -10.56991,-8.22839c-2.46697,-4.69899 -6.09676,-16.77161 -6.09676,-16.77161z" fill="none" stroke="#390400" stroke-width="4"/><path d="M223.82869,230.28837c4.55511,29.83142 5.8412,64.94873 6.1806,86.09714c-0.45147,13.66989 -1.30376,17.8487 -16.58181,22.49608c-6.7056,2.03975 -14.04712,3.49515 -23.30456,4.53807c-13.05168,1.47037 -36.17868,-20.79594 -55.41768,-35.61229c-11.83885,-9.11734 -16.20547,-17.64227 -21.84621,-26.00746c-3.74644,-5.55595 -11.40816,-9.9237 -10.03188,-18.40198c4.73232,-29.15252 13.97997,-58.81135 29.8359,-75.60658c9.45545,-10.01559 18.94565,-14.0962 26.63617,-16.81875c46.5164,-16.46745 63.59964,53.22636 64.52946,59.31576z" fill="#b43f15" stroke="none" stroke-width="0"/><path d="M223.82869,230.28837c2.89747,18.97553 4.47225,40.0898 5.32205,58.38719c0.28104,6.05126 -14.15344,64.42128 -89.91324,17.87998c-40.37859,-25.64864 -20.87755,-97.19295 -18.81144,-101.12172c3.55169,-6.75362 7.61339,-12.74494 12.237,-17.64246c9.45545,-10.01559 18.94565,-14.0962 26.63617,-16.81875c46.5164,-16.46745 63.59964,53.22636 64.52946,59.31576z" fill="#fb7c00" stroke="none" stroke-width="0"/><path d="M180.16668,205.729c3.47699,0.14002 18.6285,0.12358 30.06883,2.69361c2.17819,0.48932 7.14979,1.72421 8.73516,7.53459c1.89755,6.9545 4.67065,18.31873 3.54939,26.17956c-0.82669,5.7957 -8.09852,8.12431 -9.83456,8.17989c-6.79676,0.2176 -14.98417,0.41235 -22.51882,0.41235c-8.10129,0 -12.0602,0.65678 -19.5,-1c-3.41209,-0.75985 -7.84728,-1.68722 -11.37921,-4.68233c-6.50923,-5.5199 -2.55284,-22.23411 -1.7192,-25.84042c0.16357,-0.70758 0.97934,-7.03108 5.63486,-10.42727c4.1787,-3.04834 11.93676,-3.25241 16.96354,-3.04998z" fill="#8ec4d0" stroke="#b33f18" stroke-width="6"/><path d="M183.00001,201.0623c3.47699,0.14002 18.6285,0.12358 30.06883,2.69361c2.17819,0.48932 7.14979,1.72421 8.73516,7.53459c1.89755,6.9545 4.67065,18.31873 3.54939,26.17956c-0.82669,5.7957 -8.09852,8.12431 -9.83456,8.17989c-6.79676,0.2176 -14.98417,0.41235 -22.51882,0.41235c-8.10129,0 -12.0602,0.65678 -19.5,-1c-3.41209,-0.75985 -7.84728,-1.68722 -11.37921,-4.68233c-6.50923,-5.5199 -2.55284,-22.23411 -1.7192,-25.84042c0.16357,-0.70758 0.97934,-7.03108 5.63486,-10.42727c4.1787,-3.04834 11.93676,-3.25241 16.96354,-3.04998z" fill="#8ec4d0" stroke="#061b0f" stroke-width="6"/><path d="M223.82869,230.28837c4.55511,29.83142 5.8412,64.94873 6.1806,86.09714c-0.45147,13.66989 -1.30376,17.8487 -16.58181,22.49608c-6.09313,1.85345 -13.537,3.22442 -21.79141,4.24185c-1.48737,0.18333 -6.0419,-2.37124 -6.0419,-2.37124c0,0 -15.82208,-7.93069 -23.71538,-12.78899c-8.21562,-5.05669 -24.65008,-16.97979 -24.65008,-16.97979c0,0 -12.4222,-14.75335 -18.06382,-22.13491c-4.97239,-6.50593 -14.03239,-19.86016 -14.03239,-19.86016c0,0 -2.24646,-4.80902 -2.03988,-6.12263c4.6582,-29.62083 13.44831,-57.99717 29.57044,-75.07437c9.45545,-10.01559 18.94565,-14.0962 26.63617,-16.81875c46.5164,-16.46745 63.59964,53.22636 64.52946,59.31576z" fill="none" stroke="#390400" stroke-width="4"/><path d="M183.00001,201.06228c3.47699,0.14002 18.6285,0.12358 30.06883,2.69361c2.17819,0.48932 7.14979,1.72421 8.73516,7.53459c1.89755,6.9545 4.67065,18.31873 3.54939,26.17956c-0.82669,5.7957 -8.09852,8.12431 -9.83456,8.17989c-6.79676,0.2176 -14.98417,0.41235 -22.51882,0.41235c-8.10129,0 -12.0602,0.65678 -19.5,-1c-3.41209,-0.75985 -7.84728,-1.68722 -11.37921,-4.68233c-6.50923,-5.5199 -2.55284,-22.23411 -1.7192,-25.84042c0.16357,-0.70758 0.97934,-7.03108 5.63486,-10.42727c4.1787,-3.04834 11.93676,-3.25241 16.96354,-3.04998z" fill="url(#color-1)" stroke="none" stroke-width="0"/><path d="M183.17228,201.05861c3.21815,0.13072 17.24169,0.11537 27.83034,2.51476c2.01603,0.45684 6.61752,1.60973 8.08487,7.03434c1.75629,6.49276 4.32294,17.10247 3.28515,24.44139c-0.76515,5.4109 -7.49562,7.5849 -9.10243,7.63679c-6.29077,0.20316 -13.86866,0.38497 -20.84239,0.38497c-7.49818,0 -11.16237,0.61317 -18.04831,-0.93361c-3.15808,-0.7094 -7.26309,-1.57519 -10.53208,-4.37144c-6.02465,-5.15341 -2.3628,-20.75789 -1.59121,-24.12476c0.15139,-0.6606 0.90643,-6.56426 5.21537,-9.73496c3.86761,-2.84595 11.04812,-3.03647 15.70068,-2.84748z" fill="#8ec4d0" stroke="none" stroke-width="0"/><path d="M223.3534,227.97005c-0.2553,1.78985 -1.3979,6.51952 -9.30009,9.15478c-4.63378,1.54529 -11.59188,2.04233 -22.05835,1.67768c-4.30543,-0.15 -8.07093,0.54316 -11.36029,0.11876c-18.79021,-2.42435 -22.04345,-9.68483 -21.65402,-12.45898c0.13957,-0.99427 3.06682,-6.51013 13.51835,-9.50081c4.48467,-1.28328 10.35472,-1.69368 17.98435,-1.75348c10.505,-0.08235 17.80899,0.1085 22.81581,1.83835c8.55284,2.95498 10.40241,8.48281 10.05424,10.92371z" fill="url(#color-2)" stroke="none" stroke-width="0"/><path d="M193.17536,340.15409c-0.60634,2.42536 -3.0317,1.81902 -3.0317,1.81902l-2.32214,-0.60416c-2.84658,-1.48747 -3.72709,1.08202 -7.23886,0.0881c-2.37173,-0.67126 -6.04903,-3.85822 -7.68916,-5.73494c-0.57016,-0.6524 -0.62474,-1.68665 -1.26443,-2.27103c-0.49282,-0.45021 -1.29117,-0.35634 -1.90321,-0.62271c-2.67552,-1.16442 -5.65734,-2.68441 -8.20067,-4.10119c-4.90719,-2.73358 -8.67067,-6.91723 -13.15141,-10.09231c-1.80284,-1.2775 -4.02511,-1.83368 -5.96348,-2.89433c-2.05816,-4.55962 -4.96744,-6.67622 -9.07848,-9.63395c-2.40914,-1.73328 -5.76577,-2.05493 -7.60992,-4.59704c-0.66917,-0.92244 -0.59236,-2.22432 -1.1429,-3.22212c-0.40465,-0.73338 -1.23211,-1.16341 -1.67059,-1.87708c-0.85748,-1.39564 -1.28076,-3.03599 -2.18651,-4.4008c-1.44312,-2.17454 -2.50437,-1.95001 -4.23966,-3.69401c-1.49144,-1.49892 -2.82078,-3.18612 -3.89225,-5.00906c-0.92624,-1.57586 -0.89738,-3.56024 -1.62225,-5.23828c-0.58788,-1.36092 -1.82825,-2.33445 -2.71773,-3.52042c0,0 -1.5,-2 0.5,-3.5c2,-1.5 3.5,0.5 3.5,0.5c0.3766,0.50213 3.13179,4.14756 3.28227,4.47958c0.68207,1.505 0.51009,3.35552 1.37775,4.76172c2.10742,3.41546 5.64107,5.08258 7.86809,8.29693c0.9655,1.39354 1.39614,3.10023 2.28563,4.54347c0.50068,0.81239 1.3989,1.34165 1.85727,2.17865c0.46545,0.84993 0.37289,1.9385 0.8571,2.77788c0.78274,1.35687 5.16652,2.53626 6.39008,3.40296c3.95246,2.79969 8.37346,5.60195 9.92152,10.36605c0.40315,0.16835 5.02502,2.0977 5.03652,2.10567c4.41854,3.06327 8.0449,7.24716 12.84859,9.90769c2.47148,1.36884 5.22485,2.68585 7.79933,3.89881c1.022,0.48151 2.23588,0.64574 3.09679,1.37729c0.8215,0.69806 1.02519,1.91809 1.73557,2.72897c1.11252,1.26992 3.6721,3.70818 5.31084,4.26506c1.30361,0.44299 3.49354,-1.10824 4.33267,-1.09071c1.20823,0.02524 2.28565,0.78587 3.42848,1.17881l1.67786,0.39584c0,0 2.42536,0.60634 1.81902,3.0317z" fill="#b43f15" stroke="none" stroke-width="0.5"/><path d="M139.2375,306.55548c-17.53784,-11.1401 -23.77957,-30.93827 -25.06003,-50.09388c1.77969,1.01762 3.58192,2.00099 5.31476,3.09334c16.5076,10.40604 32.89239,21.00593 49.38901,31.42937c8.8695,5.60422 19.21219,8.43775 28.79978,12.69844c0.70719,0.31428 10.70181,4.65994 20.18001,9.09098c-11.90085,12.6603 -35.1788,20.47103 -78.62354,-6.21825z" fill="#fb7c00" stroke="none" stroke-width="0"/></g><g><path d="M254.87007,326.96002c-0.21219,-17.88892 -0.46723,-56.02756 6.69141,-86.59942c13.47609,-60.58857 45.84788,-57.76784 55.48871,-54.72632c15.81758,4.99017 29.14256,22.02275 34.41876,40.76727c6.54306,23.24525 5.81106,51.70641 3.53842,73.94884c-0.2177,2.13066 -4.49171,3.29746 -6.88342,5.47001c-5.67085,5.15123 -13.08462,11.33483 -19.50653,16.14582c-17.8188,13.349 -34.6219,23.82933 -41.09725,22.78975c-8.41052,-1.35026 -17.75052,-3.19865 -24.31852,-5.40487c-9.52641,-3.19997 -8.26284,-6.59494 -8.33159,-12.39105z" fill="#053a20" stroke="none" stroke-width="0"/><path d="M254.87007,326.96002c-0.21219,-17.88892 -0.46723,-56.02756 6.69141,-86.59942c13.47609,-60.58857 45.84788,-57.76784 55.48871,-54.72632c15.81758,4.99017 29.14256,22.02275 34.41876,40.76727c6.33464,22.50479 5.85031,49.89849 3.75072,71.80474c-0.67864,7.08063 -13.1911,13.17678 -21.64055,19.96365c-18.14636,14.57574 -40.43086,27.52085 -47.52305,26.34741c-8.01479,-1.32609 -16.66531,-3.0873 -22.85442,-5.16625c-9.52641,-3.19997 -8.26284,-6.59494 -8.33159,-12.39105z" fill="#053a20" stroke="none" stroke-width="0"/><path d="M254.81114,311.21461c0.14168,-19.78168 1.28688,-47.52156 6.75034,-70.85399c13.47609,-60.58857 45.84788,-57.76784 55.48871,-54.72632c15.81758,4.99017 29.14256,22.02275 34.41876,40.76727c2.8053,9.96626 -2.72671,11.89131 -2.1441,22.87397c0.15591,2.93895 -2.44496,29.62913 -9.16517,49.91118c-5.28192,15.94119 -15.0198,26.777 -15.0198,26.777c0,0 -30.48063,9.53096 -46.91588,6.54507c-18.6017,-3.37947 -23.42628,-19.42101 -23.41287,-21.29417z" fill="#177902" stroke="none" stroke-width="0"/><path d="M270.494,223.83754c6.56679,0.10756 22.38912,1.19321 27.09956,4.83652c4.25999,3.29493 3.68991,15.31779 3.51939,20.13592c-0.08914,2.51894 -2.763,2.51403 -6.23422,3.07763c-4.38212,0.7115 -10.17141,1.15523 -13.93703,1.1648c-4.59993,0.01171 -12.62628,-1.07661 -16.85512,-1.70237c-1.7026,-0.25194 -2.79028,-0.94718 -2.78052,-1.80179c0.03242,-2.83734 0.17962,-9.38192 0.84643,-12.97544c0.51148,-2.75641 1.91281,-8.02094 4.2395,-10.87234c1.10577,-1.35513 2.81212,-1.88405 4.102,-1.86292z" fill="#03391f" stroke="#033a21" stroke-width="6"/><path d="M356.27554,298.22511c0,0 -24.28364,-68.78073 -6.9531,-83.36276c9.00144,-7.57387 25.67267,20.29204 32.21589,32.20682c1.71751,3.12748 -25.26279,51.15594 -25.26279,51.15594z" fill="#03391e" stroke="none" stroke-width="0"/><path d="M254.87007,326.96002c-0.21219,-17.88892 -0.46723,-56.02756 6.69141,-86.59942c13.47609,-60.58857 45.84788,-57.76784 55.48871,-54.72632c15.81758,4.99017 29.14256,22.02275 34.41876,40.76727c5.90378,20.97411 6.78985,46.49643 5.14823,67.59298c-0.08382,1.07715 -0.27089,3.19565 -0.27089,3.19565c0,0 -5.70919,6.44556 -13.14122,13.35406c-6.50855,6.05008 -14.41609,12.37751 -19.93083,16.0786c-5.36056,3.59762 -13.51769,8.97101 -20.91356,12.20569c-8.05535,3.52311 -15.14553,4.75747 -15.14553,4.75747c0,0 -0.49805,1.04145 -1.42826,0.88668c-7.93882,-1.32086 -16.46537,-3.06589 -22.58525,-5.12159c-9.52641,-3.19997 -8.26284,-6.59494 -8.33159,-12.39105z" fill="none" stroke="#000000" stroke-width="4"/><path d="M356.60887,296.55843c0,0 -24.61698,-67.11406 -7.28644,-81.69609c11.36421,-9.56192 34.28643,34.36276 34.28643,34.36276c0,0 -5.32906,14.63362 -13.68543,28.12257c-4.31957,6.97271 -13.31456,19.21076 -13.31456,19.21076z" fill="#053a20" stroke="#000000" stroke-width="4"/><path d="M359.86516,288.62629c-3.45737,-6.19878 -10.71684,-21.20511 -14.47747,-34.7932c-4.79397,-17.32182 -4.46091,-31.90657 3.93475,-38.97074c9.10937,-7.66467 26.07354,20.96536 32.44685,32.62843c1.57758,2.88696 -20.63009,43.41976 -21.90413,41.13552z" fill="#177902" stroke="none" stroke-width="0"/><path d="M356.60887,296.55845c0,0 -24.61698,-67.11406 -7.28644,-81.69609c11.36421,-9.56192 34.28643,34.36276 34.28643,34.36276c0,0 -5.32906,14.63362 -13.68543,28.12257c-4.31957,6.97271 -13.31456,19.21076 -13.31456,19.21076z" fill="none" stroke="#000000" stroke-width="4"/><path d="M266.95421,205.8378c6.89571,0.14806 23.51056,1.64247 28.45693,6.65753c4.47337,4.53551 3.87473,21.08511 3.69567,27.71732c-0.09361,3.46735 -2.90139,3.4606 -6.54648,4.2364c-4.60161,0.97938 -10.68088,1.59018 -14.63511,1.60336c-4.83033,0.01611 -13.25871,-1.48197 -17.69937,-2.34334c-1.78788,-0.3468 -2.93004,-1.3038 -2.91979,-2.48019c0.03404,-3.90563 0.18861,-12.91432 0.88883,-17.86084c0.5371,-3.79422 2.00862,-11.04091 4.45185,-14.96591c1.16115,-1.86536 2.95297,-2.59341 4.30746,-2.56433z" fill="#9966ff" stroke="#000000" stroke-width="6"/><path d="M266.95421,205.8378c6.8957,0.14807 23.51057,1.64247 28.45693,6.65754c4.47337,4.5355 3.87472,21.0851 3.69567,27.71731c-0.09361,3.46735 -2.90139,3.46059 -6.54648,4.2364c-4.60161,0.97938 -10.68088,1.59018 -14.63511,1.60336c-4.83034,0.0161 -13.25871,-1.48198 -17.69937,-2.34334c-1.78788,-0.3468 -2.93004,-1.3038 -2.91978,-2.48019c0.03404,-3.90562 0.18861,-12.91432 0.88883,-17.86085c0.5371,-3.79422 2.00862,-11.04091 4.45185,-14.96591c1.16115,-1.86536 2.95298,-2.59341 4.30747,-2.56432z" fill="#8ec4ce" stroke="none" stroke-width="NaN"/><path d="M298.97354,230.8619c-0.2553,1.78985 -1.3979,6.51952 -9.30009,9.15478c-2.61939,0.87353 -11.4894,1.82898 -19.74009,1.19567c-6.34499,-0.48703 -12.62791,-2.514 -12.62791,-2.514c0,0 0.13639,-6.3467 0.57092,-11.95285c0.36476,-4.70602 1.24048,-7.60052 1.21276,-8.25197c0.04985,-0.00104 6.4991,-0.38964 7.01436,-0.39368c10.505,-0.08235 17.80899,0.1085 22.81581,1.83835c8.55284,2.95498 10.40241,8.48281 10.05424,10.92371z" fill="url(#color-3)" stroke="none" stroke-width="0"/></g><path d="M89,200.69453c0,-83.39499 67.60501,-151 151,-151c71.35052,0 131.14268,49.48724 146.92556,116.01077c2.66426,11.22965 4.07444,22.94475 4.07444,34.98923c0,83.39499 -67.60501,151 -151,151c-83.39499,0 -151,-67.60501 -151,-151z" fill="none" stroke="#417705" stroke-width="5"/></g></g></svg>