<svg version="1.1" xmlns="http://www.w3.org/2000/svg" xmlns:xlink="http://www.w3.org/1999/xlink" width="232.10142" height="317.56136" viewBox="0,0,232.10142,317.56136"><g transform="translate(-135.60292,-4.12733)"><g data-paper-data="{&quot;isPaintingLayer&quot;:true}" fill-rule="nonzero" stroke-linecap="butt" stroke-linejoin="miter" stroke-miterlimit="10" stroke-dasharray="" stroke-dashoffset="0" style="mix-blend-mode: normal"><path d="M234.60225,166.25154v-2.58034h2.77883v2.58034z" fill="#516967" stroke="none" stroke-width="6"/><path d="M238.77049,166.25153v-2.58034h2.77883v2.58034z" fill="#516967" stroke="none" stroke-width="6"/><path d="M242.82294,166.25153v-2.58034h2.77883v2.58034z" fill="#516967" stroke="none" stroke-width="6"/><path d="M234.60225,169.60928v-2.58034h2.77883v2.58034z" fill="#516967" stroke="none" stroke-width="6"/><path d="M238.77049,169.60928v-2.58034h2.77883v2.58034z" fill="#516967" stroke="none" stroke-width="6"/><path d="M242.82294,169.60928v-2.58034h2.77883v2.58034z" fill="#516967" stroke="none" stroke-width="6"/><path d="M231.82342,169.46042c0,-3.29865 0,-9.78123 0,-11.81001c0,-1.18755 1.50207,-2.54726 2.77883,-2.54726c1.8279,0 6.99111,0 10.4206,0c1.88205,0 3.24197,1.65021 3.24197,3.01039c0,2.00648 0,7.74911 0,10.99953c0,1.38365 -1.38323,2.18881 -2.54726,2.43147c-1.9246,0.40122 -7.5077,0.76962 -11.31447,0.25522c-1.52017,-0.20541 -2.57966,-1.14727 -2.57966,-2.33934z" fill="#99acad" stroke="#000000" stroke-width="2.25"/><path d="M232.51813,158.22932v-2.89461h14.82041v2.89461z" fill="#566f6e" stroke="none" stroke-width="0"/><path d="M231.82342,169.46043c0,-3.29865 0,-9.78123 0,-11.81002c0,-1.18756 1.50207,-2.54725 2.77883,-2.54725c1.82789,0 6.9911,0 10.4206,0c1.88205,0 3.24197,1.65021 3.24197,3.01039c0,2.00649 0,7.74911 0,10.99953c0,1.38365 -1.03588,2.53616 -2.54726,2.43147c-1.69304,0.28544 -7.97083,0.42226 -11.31447,0.25522c-1.52017,-0.20542 -2.57966,-1.14727 -2.57966,-2.33934z" fill="none" stroke="#000000" stroke-width="2.25"/><path d="M234.60225,162.66222v-2.58034h2.77883v2.58034z" fill="#516967" stroke="none" stroke-width="0"/><path d="M238.77049,162.66221v-2.58034h2.77883v2.58034z" fill="#516967" stroke="none" stroke-width="0"/><path d="M242.82294,162.66221v-2.58034h2.77883v2.58034z" fill="#516967" stroke="none" stroke-width="0"/><path d="M234.60225,166.25154v-2.58034h2.77883v2.58034z" fill="#516967" stroke="none" stroke-width="0"/><path d="M238.77049,166.25153v-2.58034h2.77883v2.58034z" fill="#516967" stroke="none" stroke-width="0"/><path d="M242.82294,166.25153v-2.58034h2.77883v2.58034z" fill="#516967" stroke="none" stroke-width="0"/><path d="M234.60225,169.60928v-2.58034h2.77883v2.58034z" fill="#516967" stroke="none" stroke-width="0"/><path d="M238.77049,169.60928v-2.58034h2.77883v2.58034z" fill="#516967" stroke="none" stroke-width="0"/><path d="M242.82294,169.60928v-2.58034h2.77883v2.58034z" fill="#516967" stroke="none" stroke-width="0"/><path d="M135.60292,321.68869v-317.56136h232.10142v317.56136z" fill="none" stroke="none" stroke-width="0"/></g></g></svg>