<svg version="1.1" xmlns="http://www.w3.org/2000/svg" xmlns:xlink="http://www.w3.org/1999/xlink" width="61.62753" height="41.45477" viewBox="0,0,61.62753,41.45477"><g transform="translate(-248.73856,-161.6521)"><g data-paper-data="{&quot;isPaintingLayer&quot;:true}" fill-rule="nonzero" stroke-linecap="butt" stroke-linejoin="miter" stroke-miterlimit="10" stroke-dasharray="" stroke-dashoffset="0" style="mix-blend-mode: normal"><path d="M302.52391,196.64922c-7.06566,-2.10611 -42.12029,-12.5551 -48.92812,-14.58434c-0.83906,-0.25011 -0.88938,-0.51131 -0.13696,-0.73559c6.64042,-1.97936 43.12402,-12.85427 49.54403,-14.76793c0.22985,-0.06851 1.70778,-0.66065 2.06544,-0.47808c0.61472,0.3138 0.10207,1.55245 0.00942,1.82548c-0.61807,1.82147 -4.83712,14.25509 -4.83712,14.25509c0,0 0.19509,0.53943 0.40101,1.10882c0.56304,1.55683 3.20568,8.86393 4.16175,11.50754c0.10211,0.28236 0.75539,1.74481 0.30083,2.15357c-0.50843,0.4572 -2.15754,-0.15854 -2.58028,-0.28455z" fill="none" stroke="#ffffff" stroke-width="8.5"/><path d="M303.76586,197.01942c-4.09392,-1.22032 -38.17338,-11.37861 -48.51107,-14.46004c-0.65191,-0.19431 -1.2094,-0.36048 -1.659,-0.4945c-0.83906,-0.25011 -0.88938,-0.51131 -0.13696,-0.73559c7.28677,-2.17202 46.40703,-13.83286 50.50899,-15.05556c0.68442,-0.20401 1.18186,0.17353 1.18186,0.83358c0,5.00767 -4.90908,15.05654 -4.90908,15.05654c0,0 4.90908,11.24289 4.90908,13.57394c0,1.0785 -0.59122,1.5179 -1.38381,1.28163z" fill="none" stroke="#ffffff" stroke-width="4"/><path d="M292.12634,182.18491l10.09979,-13.25012c0,0 1.9001,1.67176 1.03917,5.25453c-0.65158,2.71152 -2.37645,5.86186 -2.31917,7.74077c0.05508,1.80674 1.79372,3.50604 2.22361,5.61239c0.90223,4.42062 -0.65045,7.42999 -0.65045,7.42999z" fill="#d10404" stroke="none" stroke-width="4"/><path d="M292.46513,182.01548l-37.94809,0.50824l47.87849,-13.61175z" data-paper-data="{&quot;index&quot;:null}" fill="#f20505" stroke="none" stroke-width="4"/><path d="M303.25219,195.70535l-48.90456,-14.19811l37.94809,0.50824z" fill="#e30505" stroke="none" stroke-width="4"/><path d="M302.6298,196.75422l-48.79042,-14.87251l7.99978,-2.86671l39.35028,15.03221z" fill="#7d1d10" stroke="none" stroke-width="4"/><path d="M265.79827,183.66902l-10.77301,-2.87506l48.79043,-14.87253l-1.52725,2.6814z" data-paper-data="{&quot;index&quot;:null}" fill="#7d1d10" stroke="none" stroke-width="4"/><path d="M302.52391,196.64922c-7.06566,-2.10611 -42.12029,-12.5551 -48.92812,-14.58434c-0.83906,-0.25011 -0.88938,-0.51131 -0.13696,-0.73559c6.64042,-1.97936 43.12402,-12.85427 49.54403,-14.76793c0.22985,-0.06851 1.70778,-0.66065 2.06544,-0.47808c0.61472,0.3138 0.10207,1.55245 0.00942,1.82548c-0.61807,1.82147 -4.83712,14.25509 -4.83712,14.25509c0,0 0.19509,0.53943 0.40101,1.10882c0.56304,1.55683 3.20568,8.86393 4.16175,11.50754c0.10211,0.28236 0.75539,1.74481 0.30083,2.15357c-0.50843,0.4572 -2.15754,-0.15854 -2.58028,-0.28455z" fill="none" stroke="#000000" stroke-width="5"/><path d="M248.73856,203.10687v-41.45477h60.75163v41.45477z" fill="none" stroke="none" stroke-width="0"/><path d="M307.52391,201.64922c-7.06566,-2.10611 -42.12029,-12.5551 -48.92812,-14.58434c-0.83906,-0.25011 -0.88938,-0.51131 -0.13696,-0.73559c6.64042,-1.97936 43.12402,-12.85427 49.54403,-14.76793c0.22985,-0.06851 1.70778,-0.66065 2.06544,-0.47808c0.61472,0.3138 0.10207,1.55245 0.00942,1.82548c-0.61807,1.82147 -4.83712,14.25509 -4.83712,14.25509c0,0 0.19509,0.53943 0.40101,1.10882c0.56304,1.55683 3.20568,8.86393 4.16175,11.50754c0.10211,0.28236 0.75539,1.74481 0.30083,2.15357c-0.50843,0.4572 -2.15754,-0.15854 -2.58028,-0.28455z" fill="none" stroke="#000000" stroke-width="0"/></g></g></svg>