<svg version="1.1" xmlns="http://www.w3.org/2000/svg" xmlns:xlink="http://www.w3.org/1999/xlink" width="304.3003" height="304.30025" viewBox="0,0,304.3003,304.30025"><g transform="translate(-92.84986,-32.84988)"><g data-paper-data="{&quot;isPaintingLayer&quot;:true}" stroke-miterlimit="10" stroke-dasharray="" stroke-dashoffset="0" style="mix-blend-mode: normal"><path d="M251.19056,249.82757c-33.59046,-13.63109 -25.1395,-41.37538 -25.1395,-41.37538c0,0 26.03837,-26.43427 45.49052,-26.43427c19.25264,0 70.63001,26.43427 70.63001,26.43427c0,0 11.48962,21.89619 -2.4865,31.23943c-22.7729,15.22402 -68.85434,18.10599 -88.49454,10.13595z" fill="#94c9db" fill-rule="nonzero" stroke="none" stroke-width="0" stroke-linecap="butt" stroke-linejoin="miter"/><path d="M259.57038,220.91704c-2.72057,-12.92273 19.27172,-16.66737 37.91234,-12.19322c26.17019,6.28142 29.49666,20.07232 25.53497,21.77018c-8.33775,3.57332 -58.26378,15.04475 -63.4473,-9.57695z" fill="#fefefe" fill-rule="nonzero" stroke="none" stroke-width="0" stroke-linecap="butt" stroke-linejoin="miter"/><path d="M339.43799,193.78273c0,0 21.47336,5.60174 25.20785,23.3406c3.73449,17.73886 -11.20348,49.79327 -69.08817,60.99676c-75.31234,15.5604 -111.10125,-29.25355 -90.25032,-62.2416c20.85093,-33.29925 56.63985,-4.97932 82.78133,-6.84658c22.40697,-1.55604 24.89664,-21.16214 51.34932,-15.24919z" fill="#ffffff" fill-rule="evenodd" stroke="none" stroke-width="15" stroke-linecap="butt" stroke-linejoin="miter"/><path d="M251.91798,227.08199c0,-1.24483 1.24484,-2.17846 2.48967,-1.86725c5.91295,2.17846 22.71818,7.15779 41.39066,8.40262c16.80523,0.93363 26.76389,0 31.43201,-0.93363c1.55604,-0.31121 2.80087,1.24483 2.17845,2.80087c-2.80087,8.40261 -14.62678,31.74322 -47.30362,29.87597c-28.31993,-3.11208 -31.1208,-23.02939 -30.18717,-38.27858z" fill="#ffffff" fill-rule="evenodd" stroke="#001026" stroke-width="15" stroke-linecap="round" stroke-linejoin="round"/><path d="M297.35434,200.94052c6.53537,0 13.38194,0.62241 13.69315,2.80087c0.31121,4.35691 -4.35691,13.07073 -9.33624,13.38194c-5.60174,0.62241 -18.67248,-7.15779 -18.67248,-12.13712c-0.31121,-3.73449 8.09141,-4.0457 14.31557,-4.0457z" fill="#001026" fill-rule="evenodd" stroke="#001026" stroke-width="15" stroke-linecap="round" stroke-linejoin="round"/><g fill-rule="evenodd" stroke-width="15"><path d="M334.07689,164.52918c9.02503,14.00436 9.33624,29.87597 0.62241,35.47771c-8.71382,5.60174 -23.02939,-0.93362 -32.36563,-14.93798c-9.02503,-14.00436 -9.33624,-29.87597 -0.62242,-35.47771c8.71382,-5.91295 23.3406,0.93362 32.36563,14.93798z" fill="#ffffff" stroke="#001026" stroke-linecap="round" stroke-linejoin="round"/><path d="M332.83205,182.26805c0,3.42329 -2.48966,6.22416 -5.60174,6.22416c-3.11208,0 -5.60175,-2.80087 -5.60175,-6.22416c0,-3.42329 2.48967,-6.22416 5.60175,-6.22416c3.11208,0 5.60174,2.80087 5.60174,6.22416" fill="#001026" stroke="none" stroke-linecap="butt" stroke-linejoin="miter"/></g><g fill-rule="evenodd" stroke-width="15"><path d="M256.8973,173.24301c9.33624,13.69315 8.71382,30.49838 0.3112,36.41133c-10.26986,5.91295 -23.96301,1.55604 -33.29925,-12.13711c-9.64745,-13.69315 -10.26987,-31.43201 -0.62242,-38.27858c9.64745,-7.15778 24.27423,0.31121 33.61047,14.00436z" fill="#ffffff" stroke="#001026" stroke-linecap="round" stroke-linejoin="round"/><path d="M255.03006,191.29308c0,3.42329 -2.48967,6.22416 -5.60174,6.22416c-3.11208,0 -5.60174,-2.80087 -5.60174,-6.22416c0,-3.42329 2.48966,-6.22416 5.60174,-6.22416c3.11208,0.31121 5.60174,2.80087 5.60174,6.22416" fill="#001026" stroke="none" stroke-linecap="butt" stroke-linejoin="miter"/></g><path d="M289.35951,92.97066c1.02296,-0.68197 2.72789,-0.34099 3.06887,1.02296l8.86565,36.48554c0,0 21.82313,16.02636 28.30187,27.27891c10.91156,18.75425 11.25256,34.09864 11.25256,34.09864c0,0 24.21003,7.16071 28.30187,26.59694c4.09184,19.43623 -10.91156,56.26276 -75.01701,68.87926c-64.10544,12.6165 -115.59439,-4.77381 -139.80442,-43.64626c-24.21004,-38.87245 13.98045,-85.2466 11.93453,-82.51871l-7.16072,-61.03656c-0.34099,-1.36394 1.36395,-2.3869 2.72789,-1.70493l41.25936,26.93792c0,0 15.34438,-5.79677 31.37075,-6.47874c9.54762,-0.68197 17.73129,0 25.57398,1.36394z" fill="#ffab19" fill-rule="evenodd" stroke="#001026" stroke-width="15" stroke-linecap="butt" stroke-linejoin="miter"/><path d="M289.35951,92.97066c1.02296,-0.68198 2.72789,-0.34099 3.06887,1.02295l8.86565,36.48555c0,0 21.82312,16.02637 28.30186,27.27891c10.91157,18.75425 11.25255,34.09864 11.25255,34.09864c0,0 24.21003,7.16071 28.30186,26.59693c4.09184,19.43623 -10.91157,56.26276 -75.01701,68.87926c-64.10544,12.6165 -115.59439,-4.77381 -139.80442,-43.64626c-24.21004,-38.87245 13.98044,-85.2466 11.93452,-82.51871l-7.16072,-61.03656c-0.34099,-1.36394 1.36395,-2.38691 2.72789,-1.70493l41.25936,26.93792c0,0 15.34439,-5.79677 31.37076,-6.47874c9.54762,-0.68197 17.7313,0 25.57398,1.36394z" fill="#ffab19" fill-rule="evenodd" stroke="#001026" stroke-width="7.5" stroke-linecap="butt" stroke-linejoin="miter"/><path d="M339.43799,193.78273c0,0 21.47335,5.60174 25.20785,23.3406c3.7345,17.73886 -11.20349,49.79328 -69.08818,60.99677c-75.31234,15.5604 -111.10126,-29.25355 -90.25032,-62.2416c20.85094,-33.29926 56.63986,-4.97933 82.78133,-6.84658c22.40698,-1.55604 24.89664,-21.16214 51.34932,-15.24919z" fill="#ffffff" fill-rule="evenodd" stroke="none" stroke-width="7.5" stroke-linecap="butt" stroke-linejoin="miter"/><path d="M251.91798,227.08199c0,-1.24483 1.24483,-2.17846 2.48966,-1.86725c5.91295,2.17846 22.71818,7.15778 41.39066,8.40262c16.80523,0.93362 26.76389,0 31.43201,-0.93362c1.55604,-0.31121 2.80087,1.24483 2.17846,2.80087c-2.80087,8.40262 -14.62678,31.74322 -47.30362,29.87597c-28.31993,-3.11208 -31.1208,-23.02939 -30.18718,-38.27858z" fill="#ffffff" fill-rule="evenodd" stroke="#001026" stroke-width="7.5" stroke-linecap="round" stroke-linejoin="round"/><path d="M297.35434,200.94052c6.53537,0 13.38194,0.62242 13.69315,2.80087c0.31121,4.35691 -4.35691,13.07074 -9.33624,13.38194c-5.60174,0.62242 -18.67248,-7.15778 -18.67248,-12.13711c-0.31121,-3.7345 8.09141,-4.0457 14.31557,-4.0457z" fill="#001026" fill-rule="evenodd" stroke="#001026" stroke-width="7.5" stroke-linecap="round" stroke-linejoin="round"/><g fill-rule="evenodd" stroke-width="7.5"><path d="M334.07689,164.52918c9.02503,14.00436 9.33624,29.87597 0.62242,35.47771c-8.71382,5.60174 -23.02939,-0.93362 -32.36563,-14.93798c-9.02503,-14.00436 -9.33624,-29.87597 -0.62242,-35.47771c8.71382,-5.91295 23.3406,0.93362 32.36563,14.93798z" fill="#ffffff" stroke="#001026" stroke-linecap="round" stroke-linejoin="round"/><path d="M332.83205,182.26805c0,3.42329 -2.48966,6.22416 -5.60174,6.22416c-3.11208,0 -5.60174,-2.80087 -5.60174,-6.22416c0,-3.42329 2.48966,-6.22416 5.60174,-6.22416c3.11208,0 5.60174,2.80087 5.60174,6.22416" fill="#001026" stroke="none" stroke-linecap="butt" stroke-linejoin="miter"/></g><g fill-rule="evenodd" stroke-width="7.5"><path d="M256.8973,173.24303c9.33624,13.69315 8.71382,30.49838 0.31121,36.41134c-10.26986,5.91295 -23.96302,1.55604 -33.29926,-12.13711c-9.64745,-13.69315 -10.26986,-31.43201 -0.62242,-38.27858c9.64745,-7.15778 24.27422,0.31121 33.61046,14.00436z" fill="#ffffff" stroke="#001026" stroke-linecap="round" stroke-linejoin="round"/><path d="M255.03006,191.29308c0,3.42329 -2.48966,6.22416 -5.60174,6.22416c-3.11208,0 -5.60174,-2.80087 -5.60174,-6.22416c0,-3.42329 2.48966,-6.22416 5.60174,-6.22416c3.11208,0.31121 5.60174,2.80087 5.60174,6.22416" fill="#001026" stroke="none" stroke-linecap="butt" stroke-linejoin="miter"/></g><path d="M94.84986,275.23517c0,-59.99896 0,-148.11906 0,-181.81815c0,-26.16557 22.73163,-58.56714 54.69562,-58.56714c60.91162,0 155.35022,0 189.899,0c25.1397,0 55.70568,31.10369 55.70568,56.54696c0,34.37139 0,127.20919 0,187.87876c0,32.57375 -30.56593,55.87453 -55.70568,55.87453c-33.79375,0 -124.88841,0 -185.85858,0c-34.07175,0 -58.73599,-25.26921 -58.73599,-59.91496z" fill="#83a08b" fill-rule="nonzero" stroke="#83a08b" stroke-width="4" stroke-linecap="butt" stroke-linejoin="miter"/><g fill-rule="nonzero" stroke-linecap="butt" stroke-linejoin="miter"><path d="M223.09158,232.546l-0.00225,-111.45646c0,0 23.79508,-27.67092 88.23229,-8.05143c4.69593,1.42979 15.57429,6.64754 19.40649,26.15016c2.18777,11.13386 3.07435,61.2451 3.3597,82.89176c0.08116,6.15655 -16.34187,16.55025 -59.533,17.08559c-25.58764,0.31715 -51.46325,-6.61961 -51.46325,-6.61961z" fill="#dee9f5" stroke="#000000" stroke-width="10.5"/><path d="M149.48838,232.39917c4.1374,-5.44484 9.70245,-14.09867 7.69879,-19.06923c-1.38925,-3.44637 -20.64758,3.15562 -21.05039,-1.11421c-0.22724,-2.40877 22.24824,-15.82598 21.87696,-18.37763c-0.29194,-2.00634 -23.73023,1.44905 -23.85194,-9.20053c-0.04683,-4.09779 23.49444,-12.10155 22.92281,-15.67348c-0.70908,-4.43081 -21.23437,-4.78846 -21.40679,-8.07989c-0.14761,-2.81784 20.17696,-8.75168 19.98802,-10.33877c-0.24673,-2.07248 -12.48523,-7.42849 -14.87823,-8.18638c-2.99723,-0.94925 2.41494,-1.65406 5.99291,-2.47273c9.04221,-2.06892 26.21442,-5.91998 34.85912,-7.34729c18.77424,-3.09977 38.03667,-12.24138 38.03667,-12.24138v111.10993c0,0 -24.6192,-2.73546 -36.57163,-1.7822c-8.70669,0.6944 -23.10071,4.03737 -31.34083,6.08414c-3.81631,0.94794 -4.5005,-0.38221 -2.27548,-3.31036z" fill="#dee9f5" stroke="#000000" stroke-width="10.5"/><path d="M223.09002,232.81805c0,0 -6.71023,-0.53877 -11.22942,-6.81723c-3.23771,-4.49811 -4.31649,-13.71539 -5.7761,-19.59922c-4.56412,-18.3985 -11.22802,-74.54672 -11.22802,-74.54672c0,0 35.5304,-32.45527 55.29224,-13.64084c1.44017,1.37112 7.50859,6.37477 8.68386,25.07712c0.67096,10.677 -1.78937,58.73197 -1.70185,79.49039c0.02489,5.90392 -5.01178,15.87113 -18.25779,16.38451c-7.84731,0.30413 -15.78293,-6.34798 -15.78293,-6.34798z" fill="#9ab1cf" stroke="none" stroke-width="10.5"/><path d="M219.67631,231.40759c0,0 -24.6192,-2.73546 -36.57163,-1.7822c-8.70669,0.6944 -23.10071,4.03737 -31.34082,6.08414c-3.81631,0.94794 -4.5005,-0.38221 -2.27548,-3.31036h-0.00001c4.1374,-5.44484 9.70245,-14.09867 7.69879,-19.06923c-1.38925,-3.44637 -20.64758,3.15562 -21.05039,-1.11421c-0.22724,-2.40877 22.24824,-15.82598 21.87696,-18.37763c-0.29194,-2.00634 -23.73023,1.44906 -23.85194,-9.20053c-0.04683,-4.09779 23.49444,-12.10155 22.92281,-15.67348c-0.70908,-4.43081 -21.23437,-4.78846 -21.40679,-8.07989c-0.14761,-2.81784 20.17696,-8.75168 19.98802,-10.33877c-0.24673,-2.07248 -12.48523,-7.42849 -14.87823,-8.18638c-2.99723,-0.94925 2.41494,-1.65406 5.99291,-2.47273c9.04221,-2.06892 26.21442,-5.91998 34.85912,-7.34729c18.77424,-3.09977 38.03667,-12.24138 38.03667,-12.24138" fill="none" stroke="#000000" stroke-width="12.5"/><path d="M229.01136,122.3468c0,9.93398 18.24685,15.71022 40.75549,15.71022c22.50864,0 53.05044,-4.41013 53.05044,-14.34411c0,-9.93398 -30.5418,-19.35317 -53.05044,-19.35317c-22.50864,0 -40.75549,8.05308 -40.75549,17.98706z" fill="#feffff" stroke="#9ab1cf" stroke-width="10.5"/><path d="M227.0417,230.49079c-0.80127,-7.59148 -2.49641,-24.82443 -1.5224,-44.29567c1.70384,-34.0611 -2.42997,-65.10558 -2.42997,-65.10558c0,0 23.79508,-27.67092 88.2323,-8.05143c4.69593,1.42979 15.57429,6.64754 19.4065,26.15016c2.18777,11.13387 3.07434,61.2451 3.3597,82.89176c0.08116,6.15655 -16.34187,16.55025 -59.533,17.08559c-25.58764,0.31715 -47.31666,-6.81349 -47.51312,-8.67483z" fill="none" stroke="#000000" stroke-width="12.5"/><path d="M287.74429,123.83834c-0.03742,0.87943 -6.17849,1.33231 -13.71647,1.01155c-7.53797,-0.32076 -13.61837,-1.29371 -13.58095,-2.17314c0.03742,-0.87943 6.17849,-1.33231 13.71647,-1.01155c7.53797,0.32076 13.61837,1.29371 13.58095,2.17314z" fill="#feffff" stroke="#000000" stroke-width="10.5"/><path d="M103.36336,265.19696v-170.39392h273.27327v170.39392z" fill="none" stroke="none" stroke-width="none"/></g></g></g></svg>