<svg version="1.1" xmlns="http://www.w3.org/2000/svg" xmlns:xlink="http://www.w3.org/1999/xlink" width="101" height="102" viewBox="0,0,101,102"><g transform="translate(-191.55469,-106.42188)"><g data-paper-data="{&quot;isPaintingLayer&quot;:true}" fill-rule="nonzero" stroke-linejoin="miter" stroke-miterlimit="10" stroke-dasharray="" stroke-dashoffset="0" style="mix-blend-mode: normal"><path d="M229.31823,161.22406c0,-8.66985 0,-29.47187 0,-33.2356c0,-1.20043 1.34316,-2.24782 2.7295,-2.24782c3.33437,0 18.08716,0 24.88656,0c2.24491,0 3.05061,1.21687 3.05061,2.56894c0,4.12123 0,25.41031 0,33.2356c0,1.80202 -1.91493,2.89005 -3.37173,2.89005c-3.46036,0 -17.64153,0 -24.08377,0c-1.96592,0 -3.21117,-0.74634 -3.21117,-3.21117z" fill="#8e918a" stroke="#000000" stroke-width="2.5" stroke-linecap="butt"/><path d="M231.80549,156.58691c0,-1.7821 0,-5.44879 0,-6.47806c0,-0.52577 0.47011,-1.09003 1.08313,-1.09003c0.8864,0 2.0302,0 2.52499,0c0.71401,0 1.08313,0.22484 1.08313,1.2142c0,1.02894 0,4.60913 0,6.39527c0,0.66989 -0.56177,0.94515 -1.00034,0.94515c-0.54011,0 -1.90481,0 -2.81475,0c-0.50932,0 -0.87616,-0.38641 -0.87616,-0.98654z" fill="#000000" stroke="none" stroke-width="0" stroke-linecap="butt"/><path d="M236.05769,143.75185c1.30118,-2.24533 7.57041,-13.06356 8.30177,-14.32561c0.1368,-0.23605 0.34918,-0.22538 0.49375,0.02259c0.74447,1.27689 6.90951,11.85085 8.29905,14.23413c0.17786,0.30505 -0.00634,0.47591 -0.36476,0.47591c-1.6241,0 -13.5711,0 -16.37696,0c-0.37677,0 -0.50454,-0.14525 -0.35285,-0.40702z" fill="#cfaf20" stroke="#413f28" stroke-width="2.5" stroke-linecap="butt"/><path d="M243.03377,143.14198l1.38545,-3.31596l-3.30052,0.08035l4.46674,-5.69521l-1.23581,4.02023l3.51408,-0.05603z" fill="#413f28" stroke="none" stroke-width="0" stroke-linecap="butt"/><path d="M256.67119,159.45322h1.68586" fill="none" stroke="#080808" stroke-width="2" stroke-linecap="round"/><path d="M256.67118,130.72263h1.68586" data-paper-data="{&quot;index&quot;:null}" fill="none" stroke="#080808" stroke-width="2" stroke-linecap="round"/><path d="M191.55469,208.42188v-102h101v102z" fill="none" stroke="none" stroke-width="0" stroke-linecap="butt"/></g></g></svg>