<svg version="1.1" xmlns="http://www.w3.org/2000/svg" xmlns:xlink="http://www.w3.org/1999/xlink" width="138.13814" height="135.13514" viewBox="0,0,138.13814,135.13514"><g transform="translate(-185.2773,-110.54367)"><g data-paper-data="{&quot;isPaintingLayer&quot;:true}" fill="none" fill-rule="nonzero" stroke-linecap="butt" stroke-linejoin="miter" stroke-miterlimit="10" stroke-dasharray="" stroke-dashoffset="0" style="mix-blend-mode: normal"><path d="M204.58939,183.23846c1.65306,-22.30636 21.07601,-39.04918 43.38237,-37.39612c22.30636,1.65306 39.04918,21.07601 37.39612,43.38237c-1.65306,22.30636 -21.07601,39.04918 -43.38237,37.39612c-22.30636,-1.65306 -39.04918,-21.07601 -37.39612,-43.38237z" stroke="#464037" stroke-width="14.5"/><path d="M204.78647,180.57908c1.65306,-22.30636 21.07601,-39.04918 43.38237,-37.39612c22.30636,1.65306 39.04918,21.07601 37.39612,43.38237c-1.65306,22.30636 -21.07601,39.04918 -43.38237,37.39612c-22.30636,-1.65306 -39.04918,-21.07601 -37.39612,-43.38237z" stroke="#766744" stroke-width="14.5"/><path d="M204.98355,177.91971c1.65306,-22.30636 21.07601,-39.04918 43.38237,-37.39612c22.30636,1.65306 39.04918,21.07601 37.39612,43.38237c-1.65306,22.30636 -21.07601,39.04918 -43.38237,37.39612c-22.30636,-1.65306 -39.04918,-21.07601 -37.39612,-43.38237z" stroke="#464037" stroke-width="14.5"/><path d="M204.98355,177.91971c1.65306,-22.30636 21.07601,-39.04918 43.38237,-37.39612c22.30636,1.65306 39.04918,21.07601 37.39612,43.38237c-1.65306,22.30636 -21.07601,39.04918 -43.38237,37.39612c-22.30636,-1.65306 -39.04918,-21.07601 -37.39612,-43.38237z" stroke="#a8881c" stroke-width="9"/><path d="M204.98354,177.91971c1.65306,-22.30636 21.07601,-39.04918 43.38237,-37.39612c22.30636,1.65306 39.04918,21.07601 37.39612,43.38237c-1.65306,22.30636 -21.07601,39.04918 -43.38237,37.39612c-22.30636,-1.65306 -39.04918,-21.07601 -37.39612,-43.38237z" stroke="#f8cd39" stroke-width="5"/><path d="M185.27731,245.67881v-135.13514h138.13814v135.13514z" stroke="none" stroke-width="0"/></g></g></svg>