<svg version="1.1" xmlns="http://www.w3.org/2000/svg" xmlns:xlink="http://www.w3.org/1999/xlink" width="232.59393" height="81.77836" viewBox="0,0,232.59393,81.77836"><g transform="translate(160.5894,-260.57181)"><g data-paper-data="{&quot;isPaintingLayer&quot;:true}" fill-rule="nonzero" stroke-linejoin="miter" stroke-miterlimit="10" stroke-dasharray="" stroke-dashoffset="0" style="mix-blend-mode: normal"><path d="M-50.54031,338.14353c0,-2.23136 0,-16.7205 0,-19.95984c0.67339,0.1234 1.3408,10.7549 2.00927,10.89727c0.95963,0.20439 1.92147,0.39715 2.9064,0.48886c4.38682,0.40843 8.84791,-0.28068 13.2161,-0.47385c2.83398,-0.12532 5.70492,0.0025 8.54485,0.0025c0.51636,0 3.60493,0.01276 3.99873,-0.04399c0.54768,-0.07894 0.99767,-0.43849 1.55096,-0.4876c2.27165,-0.20167 4.57196,0.04669 6.85804,0.04399c1.57686,-0.00187 3.08977,-0.25729 4.6529,-0.2438c3.35004,0 6.73774,0.10129 10.0807,-0.00302c1.85373,-0.05785 3.52229,-0.29647 5.35852,-0.24141c6.21684,0.18642 12.44601,0.67045 18.6731,0.47671c0.54543,-0.01697 1.06211,-0.21992 1.60676,-0.24849c5.50619,-0.28872 11.25303,-0.43797 16.7656,-0.47188c3.23142,-0.01988 6.46645,0.11469 9.69456,-0.00202c2.91276,-0.10531 7.21839,-0.64292 9.82417,-0.92104c0.92985,-0.09925 1.85191,-0.8043 2.78991,-0.78323c0.50596,0.01137 1.01052,-7.76286 1.51425,-7.7256c0,3.26211 0,16.67385 0,19.45265c0,1.19018 -0.86275,1.95042 -2.44116,1.95042c-16.18547,0 -107.62267,0 -115.70212,0c-1.12498,0 -1.90155,-0.65701 -1.90155,-1.70662z" fill="#000000" stroke="#000000" stroke-width="5" stroke-linecap="butt"/><path d="M69.50453,265.02225c0,2.77881 0,7.90127 0,11.16338c-0.50372,0.03725 -1.0083,0.0647 -1.51425,0.07606c-0.938,0.02107 -1.86006,-0.19637 -2.78991,-0.29563c-2.60577,-0.27812 -6.91141,-0.81575 -9.82417,-0.92105c-3.2281,-0.11671 -6.46313,0.01786 -9.69455,-0.00202c-5.51256,-0.03391 -11.25941,-0.18317 -16.76559,-0.47189c-0.54464,-0.02856 -1.06133,-0.23151 -1.60676,-0.24848c-6.22709,-0.19374 -12.45627,0.29029 -18.6731,0.47671c-1.83623,0.05506 -3.50478,-0.18356 -5.35851,-0.24141c-3.34296,-0.10432 -6.73067,-0.00303 -10.08071,-0.00303c-1.56314,0.0135 -3.07604,-0.24193 -4.65289,-0.2438c-2.28609,-0.0027 -4.5864,0.24567 -6.85804,0.04399c-0.55329,-0.04912 -1.00329,-0.40867 -1.55097,-0.48761c-0.39379,-0.05676 -3.48236,-0.04399 -3.99873,-0.04399c-2.83993,0 -5.71088,0.12783 -8.54485,0.00251c-4.36819,-0.19317 -8.82929,-0.88228 -13.21611,-0.47386c-1.67104,0.15558 -3.27559,0.60209 -4.91567,0.90265c0,-3.23934 0,-7.245 0,-9.47636c0,-1.04961 0.77657,-1.70661 1.90155,-1.70661c0,0 99.51663,0 115.70211,0c0,0 2.44115,0.76026 2.44115,1.95044z" data-paper-data="{&quot;index&quot;:null}" fill="#000000" stroke="#000000" stroke-width="5" stroke-linecap="butt"/><path d="M-147.96999,338.14353c0,-2.23136 0,-16.7205 0,-19.95984c0.67339,0.12341 1.34079,10.7549 2.00927,10.89728c0.95963,0.20439 1.92147,0.39715 2.90639,0.48885c4.38682,0.40842 8.84792,-0.28069 13.2161,-0.47385c2.83397,-0.12532 5.70492,0.0025 8.54485,0.0025c0.51637,0 3.60493,0.01276 3.99873,-0.04399c0.54768,-0.07893 0.99767,-0.43849 1.55097,-0.4876c2.27165,-0.20167 4.57196,0.04669 6.85804,0.04399c1.57686,-0.00186 3.08977,-0.2573 4.6529,-0.2438c3.35004,0 6.73774,0.1013 10.08071,-0.00302c1.85374,-0.05785 3.52228,-0.29647 5.35851,-0.2414c6.21685,0.18642 12.44601,0.67045 18.67309,0.47671c0.54543,-0.01697 1.06212,-0.21992 1.60676,-0.24848c5.50618,-0.28872 11.25303,-0.43798 16.7656,-0.47188c3.23142,-0.01988 6.46645,0.11469 9.69456,-0.00202c2.91277,-0.10531 7.21839,-0.64292 9.82417,-0.92105c0.92985,-0.09925 1.85191,-0.8043 2.78991,-0.78323c0.50596,0.01137 1.01052,-7.76285 1.51426,-7.7256c0,3.2621 0,16.67384 0,19.45265c0,1.19017 -0.86276,1.95042 -2.44116,1.95042c-16.18547,0 -107.62267,0 -115.70212,0c-1.12498,0 -1.90155,-0.65701 -1.90155,-1.70661z" fill="#000000" stroke="#000000" stroke-width="5" stroke-linecap="butt"/><path d="M-146.06842,272.00219c8.07945,0 99.51665,0 115.70212,0c1.5784,0 2.44116,1.74484 2.44116,4.47643c0,6.37767 0,18.13432 0,25.62121c-0.50372,0.08551 -1.0083,0.14848 -1.51426,0.17457c-0.938,0.04837 -1.86006,-0.45071 -2.78991,-0.6785c-2.60578,-0.63833 -6.9114,-1.87221 -9.82417,-2.11391c-3.22811,-0.26786 -6.46314,0.04099 -9.69456,-0.00463c-5.51257,-0.07782 -11.25941,-0.42039 -16.7656,-1.08304c-0.54464,-0.06555 -1.06133,-0.53135 -1.60676,-0.57029c-6.22709,-0.44464 -12.45626,0.66624 -18.67311,1.09411c-1.83623,0.12638 -3.50479,-0.42128 -5.35851,-0.55406c-3.34296,-0.23944 -6.73067,-0.00694 -10.08071,-0.00694c-1.56314,0.03096 -3.07604,-0.55527 -4.6529,-0.55955c-2.28609,-0.00621 -4.5864,0.56381 -6.85804,0.10096c-0.55329,-0.11274 -1.00329,-0.93795 -1.55097,-1.11911c-0.39379,-0.13025 -3.48236,-0.10096 -3.99873,-0.10096c-2.83993,0 -5.71087,0.29338 -8.54485,0.00575c-4.36819,-0.44333 -8.82929,-2.02492 -13.2161,-1.08755c-1.67104,0.35707 -3.27559,1.38185 -4.91567,2.07167c0,-7.43464 0,-16.62806 0,-21.74928c0,-2.40896 0.77657,-3.91687 1.90155,-3.91687z" data-paper-data="{&quot;index&quot;:null}" fill="#000000" stroke="#000000" stroke-width="5" stroke-linecap="butt"/><path d="M-147.96999,338.14353c0,-2.23136 0,-6.23701 0,-9.47635c1.64008,0.30056 3.24464,0.74706 4.91567,0.90264c4.38682,0.40842 8.84792,-0.28069 13.2161,-0.47385c2.83397,-0.12532 5.70492,0.0025 8.54485,0.0025c0.51637,0 3.60493,0.01276 3.99873,-0.04399c0.54768,-0.07893 0.99767,-0.43849 1.55097,-0.4876c2.27165,-0.20167 4.57196,0.04669 6.85804,0.04399c1.57686,-0.00186 3.08977,-0.2573 4.6529,-0.2438c3.35004,0 6.73774,0.1013 10.08071,-0.00302c1.85374,-0.05785 3.52228,-0.29647 5.35851,-0.2414c6.21685,0.18642 12.44601,0.67045 18.67309,0.47671c0.54543,-0.01697 1.06212,-0.21992 1.60676,-0.24848c5.50618,-0.28872 11.25303,-0.43798 16.7656,-0.47188c3.23142,-0.01988 6.46645,0.11469 9.69456,-0.00202c2.91277,-0.10531 7.21839,-0.64292 9.82417,-0.92105c0.92985,-0.09925 1.85191,-0.3167 2.78991,-0.29563c0.50596,0.01137 1.01052,0.03881 1.51426,0.07606c0,3.2621 0,8.38457 0,11.16338c0,1.19017 -0.86276,1.95042 -2.44116,1.95042c-16.18547,0 -107.62267,0 -115.70212,0c-1.12498,0 -1.90155,-0.65701 -1.90155,-1.70661z" fill="#000000" stroke="#d9d9d9" stroke-width="5" stroke-linecap="butt"/><path d="M-30.36631,263.07184c1.5784,0 2.44116,0.76024 2.44116,1.95042c0,2.77881 0,7.90128 0,11.16338c-0.50372,0.03726 -1.0083,0.06469 -1.51426,0.07606c-0.938,0.02108 -1.86006,-0.19638 -2.78991,-0.29563c-2.60578,-0.27813 -6.9114,-0.81574 -9.82417,-0.92105c-3.22811,-0.11671 -6.46314,0.01786 -9.69456,-0.00202c-5.51257,-0.03391 -11.25941,-0.18317 -16.7656,-0.47189c-0.54464,-0.02856 -1.06133,-0.23151 -1.60676,-0.24848c-6.22709,-0.19374 -12.45626,0.29029 -18.67309,0.47671c-1.83623,0.05506 -3.50479,-0.18355 -5.35851,-0.2414c-3.34296,-0.10432 -6.73067,-0.00303 -10.08071,-0.00303c-1.56314,0.01349 -3.07604,-0.24194 -4.6529,-0.2438c-2.28609,-0.00271 -4.5864,0.24566 -6.85804,0.04399c-0.55329,-0.04912 -1.00329,-0.40867 -1.55097,-0.4876c-0.39379,-0.05675 -3.48236,-0.04399 -3.99873,-0.04399c-2.83993,0 -5.71088,0.12782 -8.54485,0.0025c-4.36819,-0.19317 -8.82929,-0.88227 -13.2161,-0.47385c-1.67104,0.15558 -3.27559,0.60208 -4.91567,0.90264c0,-3.23933 0,-7.24499 0,-9.47635c0,-1.0496 0.77657,-1.70661 1.90155,-1.70661c0,0 99.51662,0.00001 115.70211,0.00001z" data-paper-data="{&quot;index&quot;:null}" fill="#000000" stroke="#000000" stroke-width="5" stroke-linecap="butt"/><path d="M-30.36631,263.07184c1.5784,0 2.44116,0.76024 2.44116,1.95042c0,2.77881 0,21.79799 0,25.06009c-0.50372,0.03726 -1.0083,-13.83202 -1.51426,-13.82065c-0.938,0.02108 -1.86006,-0.19638 -2.78991,-0.29563c-2.60578,-0.27813 -6.9114,-0.81574 -9.82417,-0.92105c-3.22811,-0.11671 -6.46314,0.01786 -9.69456,-0.00202c-5.51257,-0.03391 -11.25941,-0.18317 -16.7656,-0.47189c-0.54464,-0.02856 -1.06133,-0.23151 -1.60676,-0.24848c-6.22709,-0.19374 -12.45626,0.29029 -18.67309,0.47671c-1.83623,0.05506 -3.50479,-0.18355 -5.35851,-0.2414c-3.34296,-0.10432 -6.73067,-0.00303 -10.08071,-0.00303c-1.56314,0.01349 -3.07604,-0.24194 -4.6529,-0.2438c-2.28609,-0.00271 -4.5864,0.24566 -6.85804,0.04399c-0.55329,-0.04912 -1.00329,-0.40867 -1.55097,-0.4876c-0.39379,-0.05675 -3.48236,-0.04399 -3.99873,-0.04399c-2.83993,0 -5.71088,0.12782 -8.54485,0.0025c-4.36819,-0.19317 -8.82929,-0.88227 -13.2161,-0.47385c-1.67104,0.15558 -3.27559,14.9864 -4.91567,15.28696c0,-3.23933 0,-21.62931 0,-23.86067c0,-1.0496 0.77657,-1.70661 1.90155,-1.70661c0,0 99.51662,0.00001 115.70211,0.00001z" data-paper-data="{&quot;index&quot;:null}" fill="#000000" stroke="#d9d9d9" stroke-width="5" stroke-linecap="butt"/><path d="M-48.63875,272.00219c8.07945,0 99.51665,0 115.70212,0c1.5784,0 2.44115,1.74485 2.44115,4.47643c0,6.37768 0,18.13432 0,25.6212c-0.50372,0.08551 -1.0083,0.14848 -1.51425,0.17458c-0.938,0.04837 -1.86006,-0.45071 -2.78991,-0.67849c-2.60577,-0.63833 -6.91141,-1.87221 -9.82417,-2.11391c-3.2281,-0.26785 -6.46314,0.04099 -9.69455,-0.00463c-5.51256,-0.07782 -11.25941,-0.42039 -16.76559,-1.08304c-0.54464,-0.06554 -1.06133,-0.53135 -1.60676,-0.5703c-6.22709,-0.44464 -12.45626,0.66625 -18.6731,1.09411c-1.83623,0.12638 -3.50479,-0.42128 -5.35852,-0.55405c-3.34296,-0.23944 -6.73066,-0.00695 -10.08071,-0.00695c-1.56314,0.03096 -3.07604,-0.55527 -4.6529,-0.55955c-2.28609,-0.00621 -4.5864,0.56381 -6.85804,0.10095c-0.55329,-0.11273 -1.00328,-0.93795 -1.55096,-1.11911c-0.39379,-0.13025 -3.48236,-0.10096 -3.99873,-0.10096c-2.83993,0 -5.71087,0.29339 -8.54485,0.00575c-4.36819,-0.44333 -8.82929,-2.02492 -13.21611,-1.08754c-1.67104,0.35707 -3.27559,1.38185 -4.91567,2.07167c0,-7.43464 0,-16.62806 0,-21.74928c0,-2.40895 0.77658,-3.91687 1.90155,-3.91687z" data-paper-data="{&quot;index&quot;:null}" fill="#000000" stroke="#000000" stroke-width="5" stroke-linecap="butt"/><path d="M-50.54031,338.14353c0,-2.23136 0,-6.23701 0,-9.47635c1.64008,0.30056 3.24463,0.74707 4.91567,0.90265c4.38682,0.40843 8.84792,-0.28068 13.21611,-0.47385c2.83398,-0.12532 5.70492,0.0025 8.54485,0.0025c0.51636,0 3.60494,0.01276 3.99873,-0.04399c0.54768,-0.07894 0.99767,-0.43849 1.55096,-0.4876c2.27165,-0.20167 4.57196,0.04669 6.85804,0.04399c1.57686,-0.00187 3.08977,-0.25729 4.6529,-0.2438c3.35004,0 6.73774,0.10129 10.0807,-0.00302c1.85373,-0.05785 3.52229,-0.29647 5.35852,-0.24141c6.21684,0.18642 12.44601,0.67045 18.67309,0.47671c0.54543,-0.01697 1.06212,-0.21992 1.60676,-0.24849c5.50619,-0.28872 11.25303,-0.43797 16.7656,-0.47188c3.23142,-0.01988 6.46645,0.11469 9.69456,-0.00202c2.91276,-0.10531 7.21839,-0.64292 9.82417,-0.92104c0.92985,-0.09925 1.85191,-0.3167 2.78991,-0.29563c0.50596,0.01137 1.01052,0.03881 1.51425,0.07606c0,3.26211 0,8.38458 0,11.16338c0,1.19018 -0.86275,1.95042 -2.44116,1.95042c-16.18547,0 -107.62267,0 -115.70212,0c-1.12498,0 -1.90155,-0.65701 -1.90155,-1.70661z" fill="#000000" stroke="#d9d9d9" stroke-width="5" stroke-linecap="butt"/><path d="M69.50453,265.02225c0,2.77881 0,21.79799 0,25.06009c-0.50372,0.03725 -1.0083,-13.83202 -1.51425,-13.82065c-0.938,0.02107 -1.86006,-0.19637 -2.78991,-0.29563c-2.60577,-0.27812 -6.91141,-0.81575 -9.82417,-0.92105c-3.2281,-0.11671 -6.46313,0.01786 -9.69455,-0.00202c-5.51256,-0.03391 -11.25941,-0.18317 -16.76559,-0.47189c-0.54464,-0.02856 -1.06133,-0.23151 -1.60676,-0.24848c-6.22709,-0.19374 -12.45627,0.29029 -18.6731,0.47671c-1.83623,0.05506 -3.50478,-0.18356 -5.35851,-0.24141c-3.34296,-0.10432 -6.73067,-0.00303 -10.08071,-0.00303c-1.56314,0.0135 -3.07604,-0.24193 -4.65289,-0.2438c-2.28609,-0.0027 -4.5864,0.24567 -6.85804,0.04399c-0.55329,-0.04912 -1.00329,-0.40867 -1.55097,-0.48761c-0.39379,-0.05676 -3.48236,-0.04399 -3.99873,-0.04399c-2.83993,0 -5.71088,0.12783 -8.54485,0.00251c-4.36819,-0.19317 -8.82929,-0.88228 -13.21611,-0.47386c-1.67104,0.15558 -3.27559,14.9864 -4.91567,15.28696c0,-3.23934 0,-21.62931 0,-23.86067c0,-1.04961 0.77657,-1.70661 1.90155,-1.70661c0,0 99.51663,0 115.70211,0c0,0 2.44115,0.76026 2.44115,1.95044z" data-paper-data="{&quot;index&quot;:null}" fill="#000000" stroke="#d9d9d9" stroke-width="5" stroke-linecap="butt"/><path d="M-48.63875,263.07183c8.07945,0 99.51665,0 115.70212,0c1.5784,0 2.44116,0.76024 2.44116,1.95042c0,2.77881 0,19.11616 0,22.37827c-0.50372,0.03725 -1.0083,0.30849 -1.51425,0.31987c-0.938,0.02107 -24.68758,3.83655 -27.94135,3.79341c-1.16054,-0.01539 -88.94914,-4.15045 -90.58922,-3.84989c0,-3.23934 0,-20.6541 0,-22.88546c0,-1.04961 0.77658,-1.70661 1.90155,-1.70661z" data-paper-data="{&quot;index&quot;:null}" fill="#000000" stroke="none" stroke-width="5" stroke-linecap="butt"/><path d="M-146.06842,263.07184c8.07945,0 99.51665,0 115.70212,0c1.5784,0 2.44116,0.76024 2.44116,1.95042c0,2.77881 0,19.11617 0,22.37827c-0.50372,0.03726 -1.0083,0.3085 -1.51426,0.31987c-0.938,0.02108 -24.68758,3.83656 -27.94135,3.79341c-1.16054,-0.01539 -88.94914,-4.15045 -90.58922,-3.84989c0,-3.23933 0,-20.6541 0,-22.88546c0,-1.0496 0.77657,-1.70661 1.90155,-1.70661z" data-paper-data="{&quot;index&quot;:null}" fill="#000000" stroke="none" stroke-width="5" stroke-linecap="butt"/><path d="M-146.06842,287.28587c8.07945,0 99.51665,0 115.70212,0c1.5784,0 2.44116,1.17366 2.44116,3.01107c0,4.28995 0,33.65192 0,38.68798c-0.50372,0.05752 -1.0083,-21.35399 -1.51426,-21.33643c-0.938,0.03254 -1.86006,-0.30317 -2.78991,-0.4564c-2.60578,-0.42938 -6.9114,-1.25935 -9.82417,-1.42192c-3.22811,-0.18018 -6.46314,0.02757 -9.69456,-0.00312c-5.51257,-0.05235 -11.25941,-0.28278 -16.7656,-0.72851c-0.54464,-0.04409 -1.06133,-0.35741 -1.60676,-0.38361c-6.22709,-0.29908 -12.45626,0.44815 -18.67311,0.73595c-1.83623,0.08502 -3.50479,-0.28338 -5.35851,-0.37269c-3.34296,-0.16107 -6.73067,-0.00466 -10.08071,-0.00466c-1.56314,0.02083 -3.07604,-0.37351 -4.6529,-0.37638c-2.28609,-0.00418 -4.5864,0.37925 -6.85804,0.06791c-0.55329,-0.07583 -1.00329,-0.63091 -1.55097,-0.75278c-0.39379,-0.08761 -3.48236,-0.06791 -3.99873,-0.06791c-2.83993,0 -5.71087,0.19735 -8.54485,0.00386c-4.36819,-0.2982 -8.82929,-1.36206 -13.2161,-0.73153c-1.67104,0.24019 -3.27559,23.13613 -4.91567,23.60014c0,-5.0009 0,-33.39151 0,-36.8363c0,-1.62038 0.77657,-2.63468 1.90155,-2.63468z" data-paper-data="{&quot;index&quot;:null}" fill="#000000" stroke="#d9d9d9" stroke-width="5" stroke-linecap="butt"/><path d="M-146.06842,287.28587c8.07945,0 99.51665,0 115.70212,0c1.5784,0 2.44116,1.17366 2.44116,3.01107c0,4.28995 0,29.5117 0,34.54776c-0.50372,0.05752 -1.0083,0.47626 -1.51426,0.49382c-0.938,0.03254 -24.68758,5.92291 -27.94135,5.8563c-1.16054,-0.02376 -88.94914,-6.4075 -90.58922,-5.94349c0,-5.0009 0,-31.88597 0,-35.33076c0,-1.62038 0.77657,-2.63468 1.90155,-2.63468z" data-paper-data="{&quot;index&quot;:null}" fill="#000000" stroke="none" stroke-width="5" stroke-linecap="butt"/><path d="M-48.63875,287.28587c8.07945,0 99.51665,0 115.70212,0c1.5784,0 2.44115,1.17366 2.44115,3.01107c0,4.28993 0,33.65193 0,38.68798c-0.50372,0.05752 -1.0083,-21.35399 -1.51425,-21.33643c-0.938,0.03253 -1.86006,-0.30317 -2.78991,-0.4564c-2.60577,-0.42936 -6.91141,-1.25935 -9.82417,-1.42192c-3.2281,-0.18018 -6.46314,0.02757 -9.69455,-0.00312c-5.51256,-0.05235 -11.25941,-0.28278 -16.76559,-0.72851c-0.54464,-0.04409 -1.06133,-0.35741 -1.60676,-0.38361c-6.22709,-0.2991 -12.45626,0.44814 -18.6731,0.73595c-1.83623,0.08502 -3.50479,-0.28338 -5.35852,-0.37268c-3.34296,-0.16107 -6.73066,-0.00466 -10.08071,-0.00466c-1.56314,0.02083 -3.07604,-0.37351 -4.6529,-0.37638c-2.28609,-0.00417 -4.5864,0.37924 -6.85804,0.06791c-0.55329,-0.07583 -1.00328,-0.63091 -1.55096,-0.75278c-0.39379,-0.08761 -3.48236,-0.06791 -3.99873,-0.06791c-2.83993,0 -5.71087,0.19735 -8.54485,0.00387c-4.36819,-0.29822 -8.82929,-1.36206 -13.21611,-0.73153c-1.67104,0.24019 -3.27559,23.13613 -4.91567,23.60014c0,-5.0009 0,-33.39151 0,-36.8363c0,-1.6204 0.77658,-2.63469 1.90155,-2.63469z" data-paper-data="{&quot;index&quot;:null}" fill="#000000" stroke="#d9d9d9" stroke-width="5" stroke-linecap="butt"/><path d="M-48.63875,287.28587c8.07945,0 99.51665,0 115.70212,0c1.5784,0 2.44115,1.17366 2.44115,3.01107c0,4.28993 0,29.5117 0,34.54776c-0.50372,0.05752 -1.0083,0.47625 -1.51425,0.4938c-0.938,0.03253 -24.68757,5.92291 -27.94134,5.85631c-1.16054,-0.02376 -88.94915,-6.4075 -90.58923,-5.94349c0,-5.0009 0,-31.88597 0,-35.33076c0,-1.6204 0.77658,-2.63469 1.90155,-2.63469z" data-paper-data="{&quot;index&quot;:null}" fill="#000000" stroke="none" stroke-width="5" stroke-linecap="butt"/><path d="M-66.35362,274.69795c9.29092,0 114.43857,0 133.05096,0c1.81507,0 2.8072,1.50378 2.8072,3.85798c0,5.49659 0,37.81247 0,44.26504c-0.57925,0.0737 -1.15949,0.61022 -1.7413,0.63271c-1.07865,0.04168 -28.38933,7.58884 -32.13099,7.50351c-1.33456,-0.03043 -102.28653,-8.20976 -104.17253,-7.61524c0,-6.40751 0,-40.85457 0,-45.26827c0,-2.07616 0.89302,-3.37574 2.18668,-3.37574z" data-paper-data="{&quot;index&quot;:null}" fill="#000000" stroke="none" stroke-width="5" stroke-linecap="butt"/><path d="M-146.06842,272.93259c8.07945,0 99.51665,0 115.70212,0c1.5784,0 2.44116,0.6569 2.44116,1.6853c0,2.40109 0,16.51772 0,19.3364c-0.50372,0.0322 -1.0083,0.26657 -1.51426,0.27639c-0.938,0.01821 -24.68758,3.31506 -27.94135,3.27777c-1.16054,-0.0133 -88.94914,-3.58628 -90.58922,-3.32658c0,-2.79901 0,-17.8466 0,-19.77465c0,-0.90693 0.77657,-1.47463 1.90155,-1.47463z" data-paper-data="{&quot;index&quot;:null}" fill="#000000" stroke="none" stroke-width="5" stroke-linecap="butt"/><path d="M55.65994,299.18062v-6.94714h4.45311v6.94714z" fill="#000000" stroke="#000000" stroke-width="5" stroke-linecap="butt"/><path d="M-67.75478,303.04014v-10.80666h21.62938v10.80666z" fill="#000000" stroke="#000000" stroke-width="5" stroke-linecap="butt"/><path d="M-147.96999,338.14353c0,-2.23136 0,-9.65024 0,-12.88958c1.64008,0.30056 9.0886,-1.39649 10.24915,-1.41187c3.25377,-0.04314 107.34342,0.35911 108.28142,0.38019c0.50596,0.01137 1.01052,-2.64301 1.51426,-2.60576c0,3.2621 0,13.50442 0,16.28322c0,1.19017 -0.86276,1.95042 -2.44116,1.95042c-16.18547,0 -107.62267,0 -115.70212,0c-1.12498,0 -1.90155,-0.65701 -1.90155,-1.70661z" fill="#000000" stroke="none" stroke-width="5" stroke-linecap="butt"/><path d="M-50.54031,338.14353c0,-2.23136 0,-9.65024 0,-12.88958c1.64008,0.30056 9.0886,-1.39649 10.24915,-1.41188c3.25377,-0.04314 107.34342,0.35911 108.28142,0.38018c0.50596,0.01137 1.01052,-2.64301 1.51425,-2.60576c0,3.26211 0,13.50441 0,16.28322c0,1.19017 -0.86275,1.95042 -2.44116,1.95042c-16.18547,0 -107.62267,0 -115.70212,0c-1.12498,0 -1.90155,-0.65701 -1.90155,-1.70662z" fill="#000000" stroke="none" stroke-width="5" stroke-linecap="butt"/><path d="" fill="#000000" stroke="none" stroke-width="1" stroke-linecap="butt"/><path d="" fill="#000000" stroke="none" stroke-width="1" stroke-linecap="butt"/><path d="" fill="#000000" stroke="none" stroke-width="1" stroke-linecap="butt"/><path d="" fill="#000000" stroke="none" stroke-width="1" stroke-linecap="butt"/><path d="" fill="#000000" stroke="none" stroke-width="1" stroke-linecap="butt"/><path d="" fill="#000000" stroke="none" stroke-width="1" stroke-linecap="butt"/><path d="" fill="#000000" stroke="none" stroke-width="1" stroke-linecap="butt"/><path d="" fill="#000000" stroke="none" stroke-width="1" stroke-linecap="butt"/><path d="" fill="#000000" stroke="none" stroke-width="1" stroke-linecap="butt"/><g fill="#d9d9d9" stroke="none" stroke-width="1" stroke-linecap="butt"><path d="M-44.5732,278.97697v4.20342c0,0.57904 -0.02502,0.98651 -0.07506,1.22242c-0.04289,0.2359 -0.17157,0.43964 -0.38603,0.61121c-0.20731,0.17157 -0.45752,0.25735 -0.75061,0.25735c-0.28594,0 -0.53615,-0.08578 -0.75061,-0.25735c-0.20731,-0.17157 -0.33956,-0.38245 -0.39675,-0.63265c-0.05004,-0.2502 -0.07506,-0.65053 -0.07506,-1.20098v-3.56004c0,-1.04371 -0.1251,-1.69781 -0.3753,-1.96231c-0.24305,-0.2645 -0.57904,-0.39675 -1.00796,-0.39675c-0.45037,0 -0.82924,0.1251 -1.13664,0.3753c-0.30739,0.24305 -0.51828,0.56475 -0.63265,0.96507c-0.10723,0.39317 -0.16085,1.01511 -0.16085,1.8658v2.71292c0,0.57904 -0.02502,0.99009 -0.07506,1.23314c-0.04289,0.2359 -0.17514,0.43964 -0.39675,0.61121c-0.21446,0.16442 -0.46467,0.24663 -0.75061,0.24663c-0.37888,0 -0.67555,-0.1251 -0.89001,-0.3753c-0.21446,-0.25735 -0.32169,-0.82924 -0.32169,-1.71568v-3.34558c0,-0.95792 -0.07149,-1.62632 -0.21446,-2.0052c-0.14297,-0.37888 -0.51471,-0.56832 -1.1152,-0.56832c-0.62908,0 -1.12234,0.20016 -1.47977,0.60049c-0.35744,0.39317 -0.53615,1.24744 -0.53615,2.5628v2.75581c0,0.56475 -0.02145,0.9615 -0.06434,1.19025c-0.03574,0.22161 -0.16085,0.42892 -0.3753,0.62193c-0.21446,0.18586 -0.46467,0.27879 -0.75061,0.27879c-0.27165,0 -0.52185,-0.0822 -0.75061,-0.24663c-0.22161,-0.17157 -0.36101,-0.3753 -0.4182,-0.61121c-0.05004,-0.2359 -0.07506,-0.64696 -0.07506,-1.23314v-5.90837c0,-0.56475 0.02502,-0.9472 0.07506,-1.14736c0.05004,-0.20016 0.17871,-0.37888 0.38603,-0.53615c0.21446,-0.15727 0.44679,-0.2359 0.69699,-0.2359c0.7792,0 1.16881,0.49683 1.16881,1.4905c0.81495,-0.99366 1.79789,-1.4905 2.94883,-1.4905c1.22957,0 2.12315,0.49683 2.68075,1.4905c0.82924,-0.99366 1.79789,-1.4905 2.90594,-1.4905c0.85069,0 1.57985,0.2359 2.18749,0.70772c0.60764,0.47181 0.91146,1.44403 0.91146,2.91665z"/><path d="M-63.10008,283.89883c-1.15809,0.91503 -2.29472,1.37254 -3.40992,1.37254c-1.05085,0 -1.86223,-0.26808 -2.43412,-0.80423c-0.56475,-0.53615 -0.84712,-1.19025 -0.84712,-1.96231c0,-0.66483 0.19301,-1.20098 0.57904,-1.60845c0.38603,-0.40748 0.80423,-0.68985 1.25459,-0.84712c0.45037,-0.16442 1.18668,-0.35028 2.20894,-0.5576c1.02226,-0.21446 1.84793,-0.41105 2.47701,-0.58976c-0.00715,-0.73631 -0.1537,-1.23314 -0.43964,-1.4905c-0.28594,-0.2645 -0.72202,-0.39675 -1.30821,-0.39675c-1.10805,0 -1.83005,0.31097 -2.16605,0.9329c-0.19301,0.35028 -0.36459,0.60049 -0.51471,0.75061c-0.15012,0.15012 -0.36459,0.22518 -0.64338,0.22518c-0.25735,0 -0.48968,-0.08578 -0.69699,-0.25735c-0.20731,-0.17157 -0.31097,-0.3896 -0.31097,-0.6541c0,-0.63623 0.34313,-1.23672 1.0294,-1.80147c0.68627,-0.57189 1.76215,-0.85784 3.22762,-0.85784c1.49407,0 2.58424,0.25735 3.27051,0.77206c0.69342,0.51471 1.01869,1.55484 0.97579,3.12039l-0.05362,2.29472c-0.02145,0.70772 0.05004,1.28676 0.21446,1.73712c0.17157,0.44322 0.25735,0.78278 0.25735,1.01869c0,0.25735 -0.11438,0.48611 -0.34313,0.68627c-0.22161,0.19301 -0.47538,0.28952 -0.76134,0.28952c-0.49326,0 -1.01511,-0.45752 -1.56556,-1.37254zM-63.26093,280.37095c-0.36459,0.13582 -0.96507,0.28952 -1.80147,0.46109c-0.83639,0.16442 -1.42973,0.35386 -1.78002,0.56832c-0.34313,0.21446 -0.51471,0.529 -0.51471,0.94362c0,0.35028 0.13582,0.66125 0.40748,0.9329c0.27879,0.2645 0.67198,0.39675 1.17953,0.39675c0.53615,0 1.03298,-0.14655 1.4905,-0.43964c0.46467,-0.30024 0.75061,-0.65053 0.85784,-1.05085c0.10723,-0.40748 0.16085,-1.01154 0.16085,-1.81219z"/><path d="M-35.40064,280.90709h-4.78246c0.02145,0.90788 0.26808,1.59415 0.73989,2.05882c0.47181,0.45752 1.04013,0.68627 1.70496,0.68627c0.81495,0 1.58343,-0.35744 2.30545,-1.0723c0.2931,-0.30024 0.50756,-0.48611 0.64338,-0.5576c0.14297,-0.07149 0.30024,-0.10723 0.47181,-0.10723c0.22161,0 0.41105,0.07149 0.56832,0.21446c0.15727,0.13582 0.2359,0.30382 0.2359,0.50398c0,0.55045 -0.3753,1.12949 -1.12591,1.73712c-0.75061,0.60049 -1.76572,0.90073 -3.04533,0.90073c-1.62989,0 -2.86661,-0.46109 -3.71016,-1.38326c-0.84354,-0.92218 -1.26532,-2.11243 -1.26532,-3.57076c0,-1.47977 0.42177,-2.67717 1.26532,-3.59221c0.84354,-0.91503 2.01593,-1.37254 3.51714,-1.37254c1.42973,0 2.5342,0.43249 3.31341,1.29748c0.78635,0.86499 1.17953,1.80147 1.17953,2.80943c0,0.45037 -0.13225,0.80423 -0.39675,1.06158c-0.25735,0.25735 -0.79708,0.38603 -1.61917,0.38603zM-40.1831,279.52385h4.43932c-0.02859,-0.8078 -0.25378,-1.42258 -0.67555,-1.84436c-0.41462,-0.42892 -0.92932,-0.64338 -1.54411,-0.64338c-1.29391,0 -2.03379,0.82924 -2.21966,2.48774z"/><path d="M-71.70455,279.24504v4.0104c0,0.51471 -0.02145,0.89001 -0.06434,1.12591c-0.04289,0.2359 -0.17157,0.44322 -0.38603,0.62193c-0.21446,0.17871 -0.46824,0.26808 -0.76134,0.26808c-0.25735,0 -0.50041,-0.07863 -0.72916,-0.2359c-0.22875,-0.15727 -0.37173,-0.36101 -0.42892,-0.61121c-0.05004,-0.25735 -0.07506,-0.64696 -0.07506,-1.16881v-3.51714c0,-0.97222 -0.14655,-1.62632 -0.43964,-1.96231c-0.28594,-0.34313 -0.68627,-0.51471 -1.20098,-0.51471c-0.46467,0 -0.87214,0.13582 -1.22242,0.40748c-0.35028,0.2645 -0.59691,0.59691 -0.73989,0.99724c-0.14297,0.40033 -0.21446,1.09017 -0.21446,2.06954v2.5199c0,0.50756 -0.02145,0.87928 -0.06434,1.1152c-0.03574,0.22875 -0.16442,0.43606 -0.38603,0.62193c-0.22161,0.18586 -0.47538,0.27879 -0.76134,0.27879c-0.2645,0 -0.51113,-0.0822 -0.73989,-0.24663c-0.22875,-0.16442 -0.36816,-0.36816 -0.4182,-0.61121c-0.04289,-0.24305 -0.06434,-0.62908 -0.06434,-1.15809v-6.0156c0,-0.5433 0.02502,-0.92218 0.07506,-1.13664c0.05004,-0.21446 0.17871,-0.39317 0.38603,-0.53615c0.20731,-0.14297 0.43964,-0.21446 0.69699,-0.21446c0.2359,0 0.48253,0.09651 0.73989,0.28952c0.25735,0.18586 0.38603,0.63623 0.38603,1.3511c0.81495,-1.09375 1.8658,-1.64062 3.15256,-1.64062c0.48611,0 0.96507,0.09293 1.43688,0.27879c0.47896,0.18586 0.86857,0.48611 1.16881,0.90073c0.30024,0.41462 0.48253,0.84354 0.54687,1.28676c0.07149,0.44322 0.10723,0.91861 0.10723,1.42616z"/></g><path d="M-159.3394,332.40878h218.33333" fill="none" stroke="#919191" stroke-width="2.5" stroke-linecap="round"/></g></g></svg>