<svg version="1.1" xmlns="http://www.w3.org/2000/svg" xmlns:xlink="http://www.w3.org/1999/xlink" width="706.21021" height="368" viewBox="0,0,706.21021,368"><g transform="translate(23.10511,4)"><g data-paper-data="{&quot;isPaintingLayer&quot;:true}" fill-rule="nonzero" stroke-linejoin="miter" stroke-miterlimit="10" stroke-dasharray="" stroke-dashoffset="0" style="mix-blend-mode: normal"><path d="M-22.1051,363v-366h704.21021v366z" fill="#000000" stroke="#000000" stroke-width="2" stroke-linecap="butt"/><path d="M213.27915,159.55831h-8.205l-0.96205,2.54333c-0.39072,1.04682 -0.72245,1.73978 -0.99522,2.07889c-0.26539,0.33911 -0.69665,0.50867 -1.29378,0.50867c-0.5529,0 -1.02102,-0.19168 -1.40436,-0.57502c-0.37597,-0.38334 -0.56395,-0.79617 -0.56395,-1.23849c0,-0.46444 0.19167,-1.17215 0.57501,-2.12313l5.2083,-13.15896c0.45707,-1.18689 0.79248,-1.98674 1.00627,-2.39957c0.22116,-0.4202 0.5529,-0.76669 0.99522,-1.03945c0.44969,-0.28014 0.95098,-0.4202 1.50388,-0.4202c0.6561,0 1.23112,0.17324 1.72504,0.51972c0.49392,0.34649 0.88464,0.87358 1.17214,1.58129l5.99341,14.8066c0.39809,1.00259 0.59713,1.72504 0.59713,2.16736c0,0.46444 -0.19167,0.8957 -0.57501,1.29378c-0.38334,0.39072 -0.85883,0.58607 -1.42648,0.58607c-0.61187,0 -1.05051,-0.17324 -1.3159,-0.51972c-0.26539,-0.34649 -0.61187,-1.05419 -1.03945,-2.12313zM206.12465,156.39573h6.08187l-3.08517,-8.33769zM234.69011,155.3784v6.19245c0,0.79618 -0.03317,1.37856 -0.09952,1.74716c-0.05898,0.36122 -0.25433,0.68191 -0.58607,0.96204c-0.33174,0.27276 -0.72613,0.40914 -1.1832,0.40914c-0.40545,0 -0.78511,-0.12164 -1.13897,-0.36491c-0.34649,-0.24328 -0.56026,-0.56027 -0.64136,-0.95099c-0.0811,-0.39072 -0.12164,-0.99152 -0.12164,-1.80245v-5.44052c0,-1.51126 -0.22852,-2.52858 -0.68559,-3.05199c-0.44969,-0.52341 -1.06894,-0.78512 -1.85774,-0.78512c-0.72245,0 -1.35644,0.20641 -1.90196,0.61925c-0.53815,0.41283 -0.91781,0.93256 -1.13897,1.55918c-0.22116,0.61925 -0.33174,1.68449 -0.33174,3.19574v3.90346c0,0.7888 -0.02949,1.36382 -0.08847,1.72504c-0.05898,0.36122 -0.2617,0.68559 -0.60818,0.9731c-0.33911,0.28014 -0.72983,0.42021 -1.17215,0.42021c-0.41283,0 -0.79617,-0.12533 -1.15002,-0.37597c-0.34649,-0.25802 -0.55658,-0.57502 -0.6303,-0.95099c-0.07372,-0.37597 -0.11058,-0.9731 -0.11058,-1.79139v-9.3108c0,-0.83303 0.03686,-1.41541 0.11058,-1.74715c0.0811,-0.33174 0.28014,-0.60818 0.59713,-0.82934c0.31699,-0.22116 0.67453,-0.33174 1.07262,-0.33174c0.3686,0 0.75194,0.14375 1.15003,0.43126c0.40545,0.28751 0.60819,0.99153 0.60819,2.11207c1.2606,-1.69556 2.88244,-2.54333 4.8655,-2.54333c0.75194,0 1.49651,0.14375 2.23371,0.43126c0.7372,0.28014 1.33801,0.74089 1.80244,1.38225c0.4718,0.64136 0.75563,1.30483 0.85147,1.99043c0.10321,0.6856 0.15481,1.42647 0.15481,2.22265zM257.41697,157.94385h-7.40883c0.03686,1.40068 0.42021,2.45855 1.15003,3.17363c0.7372,0.71508 1.61446,1.07262 2.63179,1.07262c1.26798,0 2.45855,-0.5529 3.57172,-1.65869c0.44969,-0.46444 0.78143,-0.75195 0.99522,-0.86253c0.22116,-0.11058 0.46444,-0.16586 0.72983,-0.16586c0.33911,0 0.6303,0.10689 0.87357,0.32068c0.25064,0.21379 0.37598,0.47549 0.37598,0.78511c0,0.84778 -0.58239,1.73979 -1.74716,2.67603c-1.1574,0.93624 -2.72763,1.40436 -4.71069,1.40436c-2.52858,0 -4.44529,-0.7114 -5.75013,-2.13419c-1.29747,-1.42279 -1.9462,-3.26946 -1.9462,-5.54003c0,-2.28531 0.64873,-4.13199 1.9462,-5.54004c1.30484,-1.41542 3.11835,-2.12313 5.44052,-2.12313c2.22634,0 3.94032,0.66717 5.14195,2.00149c1.209,1.33433 1.8135,2.7866 1.8135,4.35683c0,0.6856 -0.20274,1.23112 -0.60819,1.63657c-0.39809,0.39809 -1.23112,0.59713 -2.4991,0.59713zM250.00814,155.79861h6.867c-0.04423,-1.25323 -0.39072,-2.20791 -1.03945,-2.86402c-0.64136,-0.6561 -1.43753,-0.98415 -2.38852,-0.98415c-1.9978,0 -3.14415,1.28272 -3.43903,3.84817zM263.67854,161.57086v-9.67571c0,-1.69556 0.62294,-2.54333 1.8688,-2.54333c1.18689,0 1.79507,0.78143 1.82456,2.34429c0.78143,-1.56286 1.86143,-2.34429 3.23999,-2.34429c0.72983,0 1.48176,0.19168 2.25582,0.57502c0.78143,0.37597 1.17215,0.89569 1.17215,1.55917c0,0.46444 -0.1585,0.84778 -0.4755,1.15002c-0.30963,0.29488 -0.64136,0.44232 -0.99522,0.44232c-0.20641,0 -0.57502,-0.0811 -1.1058,-0.24328c-0.53078,-0.16218 -0.9731,-0.24328 -1.32695,-0.24328c-0.90675,0 -1.58129,0.45706 -2.02361,1.37118c-0.44232,0.91413 -0.66348,2.67603 -0.66348,5.28571v2.17842c0,0.95836 -0.04054,1.60709 -0.12163,1.9462c-0.07372,0.33174 -0.27645,0.63399 -0.60819,0.90676c-0.33174,0.27276 -0.71508,0.40914 -1.15002,0.40914c-0.41283,0 -0.78511,-0.12164 -1.11685,-0.36491c-0.33174,-0.24328 -0.54552,-0.53078 -0.64136,-0.86252c-0.08847,-0.33911 -0.1327,-0.96941 -0.1327,-1.89091zM276.07727,161.57086v-9.67571c0,-1.69556 0.62294,-2.54333 1.8688,-2.54333c1.18689,0 1.79508,0.78143 1.82457,2.34429c0.78143,-1.56286 1.86142,-2.34429 3.23998,-2.34429c0.72983,0 1.48177,0.19168 2.25582,0.57502c0.78143,0.37597 1.17214,0.89569 1.17214,1.55917c0,0.46444 -0.15849,0.84778 -0.47549,1.15002c-0.30963,0.29488 -0.64136,0.44232 -0.99522,0.44232c-0.20641,0 -0.57502,-0.0811 -1.1058,-0.24328c-0.53078,-0.16218 -0.9731,-0.24328 -1.32695,-0.24328c-0.90675,0 -1.58129,0.45706 -2.02361,1.37118c-0.44232,0.91413 -0.66347,2.67603 -0.66347,5.28571v2.17842c0,0.95836 -0.04055,1.60709 -0.12164,1.9462c-0.07372,0.33174 -0.27644,0.63399 -0.60818,0.90676c-0.33174,0.27276 -0.71509,0.40914 -1.15003,0.40914c-0.41283,0 -0.78511,-0.12164 -1.11685,-0.36491c-0.33174,-0.24328 -0.54553,-0.53078 -0.64136,-0.86252c-0.08847,-0.33911 -0.1327,-0.96941 -0.1327,-1.89091zM295.09973,149.35181c2.33692,0 4.17622,0.72245 5.51792,2.16736c1.3417,1.43753 2.01254,3.26947 2.01254,5.49581c0,2.24108 -0.68191,4.08039 -2.04572,5.51792c-1.35644,1.43753 -3.1552,2.1563 -5.39629,2.1563c-2.43275,0 -4.30892,-0.72614 -5.6285,-2.17842c-1.31958,-1.45965 -1.97937,-3.29158 -1.97937,-5.4958c0,-2.2337 0.66716,-4.06933 2.00149,-5.50687c1.3417,-1.43753 3.181,-2.1563 5.51792,-2.1563zM295.09973,161.88048c1.14265,0 2.04572,-0.42757 2.70919,-1.28272c0.67085,-0.86252 1.00627,-2.05677 1.00627,-3.58277c0,-1.526 -0.33542,-2.72026 -1.00627,-3.58278c-0.66348,-0.86252 -1.56654,-1.29378 -2.70919,-1.29378c-1.12791,0 -2.0273,0.43495 -2.69815,1.30484c-0.67085,0.86252 -1.00627,2.0531 -1.00627,3.57172c0,1.53337 0.33174,2.72762 0.99522,3.58277c0.67085,0.85515 1.57392,1.28272 2.7092,1.28272zM305.57437,161.57086v-9.67571c0,-1.69556 0.62294,-2.54333 1.8688,-2.54333c1.18689,0 1.79508,0.78143 1.82457,2.34429c0.78143,-1.56286 1.86142,-2.34429 3.23998,-2.34429c0.72983,0 1.48177,0.19168 2.25582,0.57502c0.78143,0.37597 1.17214,0.89569 1.17214,1.55917c0,0.46444 -0.1585,0.84778 -0.47549,1.15002c-0.30963,0.29488 -0.64136,0.44232 -0.99522,0.44232c-0.20641,0 -0.57502,-0.0811 -1.1058,-0.24328c-0.53078,-0.16218 -0.9731,-0.24328 -1.32695,-0.24328c-0.90675,0 -1.58129,0.45706 -2.02361,1.37118c-0.44232,0.91413 -0.66348,2.67603 -0.66348,5.28571v2.17842c0,0.95836 -0.04054,1.60709 -0.12164,1.9462c-0.07372,0.33174 -0.27645,0.63399 -0.60819,0.90676c-0.33174,0.27276 -0.71508,0.40914 -1.15003,0.40914c-0.41283,0 -0.78511,-0.12164 -1.11685,-0.36491c-0.33174,-0.24328 -0.54553,-0.53078 -0.64137,-0.86252c-0.08847,-0.33911 -0.1327,-0.96941 -0.1327,-1.89091zM333.00087,149.35181c2.33692,0 4.17622,0.72245 5.51792,2.16736c1.3417,1.43753 2.01255,3.26947 2.01255,5.49581c0,2.24108 -0.68191,4.08039 -2.04573,5.51792c-1.35644,1.43753 -3.1552,2.1563 -5.39628,2.1563c-2.43275,0 -4.30892,-0.72614 -5.6285,-2.17842c-1.31958,-1.45965 -1.97937,-3.29158 -1.97937,-5.4958c0,-2.2337 0.66716,-4.06933 2.00149,-5.50687c1.3417,-1.43753 3.181,-2.1563 5.51792,-2.1563zM333.00087,161.88048c1.14265,0 2.04572,-0.42757 2.7092,-1.28272c0.67085,-0.86252 1.00628,-2.05677 1.00628,-3.58277c0,-1.526 -0.33543,-2.72026 -1.00628,-3.58278c-0.66348,-0.86252 -1.56654,-1.29378 -2.7092,-1.29378c-1.12791,0 -2.02729,0.43495 -2.69814,1.30484c-0.67085,0.86252 -1.00628,2.0531 -1.00628,3.57172c0,1.53337 0.33174,2.72762 0.99522,3.58277c0.67085,0.85515 1.57392,1.28272 2.7092,1.28272zM355.42919,158.37511c0.46443,0 0.84778,0.18062 1.15003,0.54184c0.30225,0.35386 0.45338,0.72245 0.45338,1.1058c0,1.01733 -0.61187,2.04941 -1.83562,3.09623c-1.22376,1.04682 -2.86404,1.57023 -4.92082,1.57023c-2.47698,0 -4.34946,-0.70033 -5.61744,-2.10101c-1.2606,-1.40805 -1.89091,-3.2363 -1.89091,-5.48475c0,-2.27794 0.65242,-4.13936 1.95726,-5.58427c1.31221,-1.44491 3.181,-2.16736 5.60638,-2.16736c1.87986,0 3.43535,0.49024 4.66648,1.47071c1.23112,0.98047 1.84668,1.94989 1.84668,2.90824c0,0.45707 -0.16587,0.8404 -0.49761,1.15002c-0.33174,0.30963 -0.72613,0.46444 -1.1832,0.46444c-0.55291,0 -0.98418,-0.23591 -1.29381,-0.70771c-0.69297,-1.04682 -1.30852,-1.7103 -1.84667,-1.99043c-0.53078,-0.28014 -1.1058,-0.4202 -1.72504,-0.4202c-1.20163,0 -2.1305,0.46443 -2.78661,1.3933c-0.65611,0.9215 -0.98416,2.07153 -0.98416,3.45009c0,1.42279 0.3428,2.58019 1.02839,3.47219c0.68559,0.89201 1.59972,1.33802 2.74237,1.33802c0.65611,0 1.2606,-0.15113 1.8135,-0.45338c0.5529,-0.30963 1.02839,-0.77405 1.42648,-1.3933c0.40546,-0.62661 0.72614,-1.05788 0.96206,-1.29378c0.23591,-0.24328 0.54553,-0.36491 0.92887,-0.36491zM372.25111,158.37511c0.46443,0 0.84778,0.18062 1.15003,0.54184c0.30223,0.35386 0.45333,0.72245 0.45333,1.1058c0,1.01733 -0.61185,2.04941 -1.83558,3.09623c-1.22375,1.04682 -2.86401,1.57023 -4.92079,1.57023c-2.47698,0 -4.34946,-0.70033 -5.61744,-2.10101c-1.2606,-1.40805 -1.89091,-3.2363 -1.89091,-5.48475c0,-2.27794 0.65242,-4.13936 1.95726,-5.58427c1.31221,-1.44491 3.181,-2.16736 5.60638,-2.16736c1.87986,0 3.43534,0.49024 4.66646,1.47071c1.23109,0.98047 1.84663,1.94989 1.84663,2.90824c0,0.45707 -0.16585,0.8404 -0.49756,1.15002c-0.33174,0.30963 -0.72613,0.46444 -1.1832,0.46444c-0.5529,0 -0.98416,-0.23591 -1.29379,-0.70771c-0.69297,-1.04682 -1.30852,-1.7103 -1.84668,-1.99043c-0.53078,-0.28014 -1.1058,-0.4202 -1.72505,-0.4202c-1.20163,0 -2.1305,0.46443 -2.78661,1.3933c-0.65611,0.9215 -0.98415,2.07153 -0.98415,3.45009c0,1.42279 0.3428,2.58019 1.02839,3.47219c0.68559,0.89201 1.59972,1.33802 2.74237,1.33802c0.65611,0 1.2606,-0.15113 1.81351,-0.45338c0.5529,-0.30963 1.02839,-0.77405 1.42648,-1.3933c0.40546,-0.62661 0.72613,-1.05788 0.96204,-1.29378c0.23591,-0.24328 0.54553,-0.36491 0.92887,-0.36491zM377.03086,159.08282v-6.62372c0,-0.81829 0.03317,-1.40805 0.09952,-1.76927c0.06635,-0.3686 0.2617,-0.68191 0.58607,-0.93993c0.33174,-0.26539 0.72613,-0.39809 1.1832,-0.39809c0.44232,0 0.82934,0.12533 1.16109,0.37597c0.33911,0.24328 0.54921,0.56764 0.6303,0.9731c0.0811,0.40545 0.12164,1.01733 0.12164,1.83562v5.18618c0,1.70292 0.26171,2.79397 0.78512,3.27315c0.53078,0.47918 1.11685,0.71877 1.75822,0.71877c0.72246,0 1.35644,-0.20273 1.90196,-0.60819c0.5529,-0.41283 0.92887,-0.90675 1.12792,-1.48177c0.19905,-0.57502 0.29856,-1.71029 0.29856,-3.40585v-3.7597c0,-0.80355 0.03686,-1.39699 0.11058,-1.78033c0.0811,-0.38334 0.28751,-0.70034 0.61925,-0.95098c0.33174,-0.25064 0.72245,-0.37597 1.17214,-0.37597c0.43495,0 0.81829,0.12533 1.15003,0.37597c0.33911,0.24328 0.54184,0.5529 0.60819,0.92887c0.07372,0.3686 0.11058,0.96941 0.11058,1.80245v9.3108c0,0.76668 -0.03686,1.32326 -0.11058,1.66975c-0.07372,0.33911 -0.25802,0.63399 -0.5529,0.88464c-0.28751,0.24328 -0.65242,0.36491 -1.09474,0.36491c-1.21638,0 -1.79876,-0.86989 -1.74715,-2.60968c-1.26798,1.73979 -2.93405,2.60968 -4.9982,2.60968c-1.36381,0 -2.5249,-0.40545 -3.48325,-1.21637c-0.95835,-0.81829 -1.43753,-2.28163 -1.43753,-4.39001zM394.21769,161.57086v-9.67571c0,-1.69556 0.62293,-2.54333 1.86879,-2.54333c1.18689,0 1.79507,0.78143 1.82456,2.34429c0.78143,-1.56286 1.86143,-2.34429 3.23998,-2.34429c0.72983,0 1.48177,0.19168 2.25582,0.57502c0.78143,0.37597 1.17215,0.89569 1.17215,1.55917c0,0.46444 -0.1585,0.84778 -0.4755,1.15002c-0.30962,0.29488 -0.64136,0.44232 -0.99521,0.44232c-0.20641,0 -0.57502,-0.0811 -1.1058,-0.24328c-0.53078,-0.16218 -0.9731,-0.24328 -1.32695,-0.24328c-0.90675,0 -1.58129,0.45706 -2.02361,1.37118c-0.44232,0.91413 -0.66348,2.67603 -0.66348,5.28571v2.17842c0,0.95836 -0.04054,1.60709 -0.12164,1.9462c-0.07372,0.33174 -0.27645,0.63399 -0.60819,0.90676c-0.33174,0.27276 -0.71508,0.40914 -1.15002,0.40914c-0.41283,0 -0.78512,-0.12164 -1.11686,-0.36491c-0.33174,-0.24328 -0.54552,-0.53078 -0.64136,-0.86252c-0.08846,-0.33911 -0.1327,-0.96941 -0.1327,-1.89091zM406.61642,161.57086v-9.67571c0,-1.69556 0.62293,-2.54333 1.86879,-2.54333c1.18689,0 1.79508,0.78143 1.82457,2.34429c0.78143,-1.56286 1.86142,-2.34429 3.23998,-2.34429c0.72983,0 1.48177,0.19168 2.25583,0.57502c0.78143,0.37597 1.17214,0.89569 1.17214,1.55917c0,0.46444 -0.1585,0.84778 -0.47549,1.15002c-0.30962,0.29488 -0.64136,0.44232 -0.99521,0.44232c-0.20641,0 -0.57502,-0.0811 -1.1058,-0.24328c-0.53078,-0.16218 -0.9731,-0.24328 -1.32695,-0.24328c-0.90675,0 -1.58129,0.45706 -2.02361,1.37118c-0.44232,0.91413 -0.66348,2.67603 -0.66348,5.28571v2.17842c0,0.95836 -0.04055,1.60709 -0.12164,1.9462c-0.07372,0.33174 -0.27644,0.63399 -0.60818,0.90676c-0.33174,0.27276 -0.71508,0.40914 -1.15003,0.40914c-0.41283,0 -0.78511,-0.12164 -1.11685,-0.36491c-0.33174,-0.24328 -0.54553,-0.53078 -0.64137,-0.86252c-0.08846,-0.33911 -0.1327,-0.96941 -0.1327,-1.89091zM429.5755,157.94385h-7.40883c0.03686,1.40068 0.42021,2.45855 1.15003,3.17363c0.73719,0.71508 1.61446,1.07262 2.63179,1.07262c1.26798,0 2.45856,-0.5529 3.57172,-1.65869c0.44969,-0.46444 0.78143,-0.75195 0.99522,-0.86253c0.22116,-0.11058 0.46443,-0.16586 0.72983,-0.16586c0.33911,0 0.6303,0.10689 0.87358,0.32068c0.25065,0.21379 0.37597,0.47549 0.37597,0.78511c0,0.84778 -0.58238,1.73979 -1.74716,2.67603c-1.1574,0.93624 -2.72763,1.40436 -4.71069,1.40436c-2.52859,0 -4.44529,-0.7114 -5.75013,-2.13419c-1.29747,-1.42279 -1.9462,-3.26946 -1.9462,-5.54003c0,-2.28531 0.64873,-4.13199 1.9462,-5.54004c1.30484,-1.41542 3.11835,-2.12313 5.44052,-2.12313c2.22634,0 3.94032,0.66717 5.14195,2.00149c1.209,1.33433 1.81351,2.7866 1.81351,4.35683c0,0.6856 -0.20274,1.23112 -0.60819,1.63657c-0.39808,0.39809 -1.23112,0.59713 -2.4991,0.59713zM422.16667,155.79861h6.86699c-0.04423,-1.25323 -0.39072,-2.20791 -1.03945,-2.86402c-0.64136,-0.6561 -1.43753,-0.98415 -2.38852,-0.98415c-1.99781,0 -3.14415,1.28272 -3.43903,3.84817zM446.17626,162.5329v-0.37598c-1.29747,1.68818 -2.94142,2.53227 -4.93185,2.53227c-1.93146,0 -3.46483,-0.72982 -4.60011,-2.18947c-1.13528,-1.46702 -1.70292,-3.36162 -1.70292,-5.68379c0,-2.19684 0.5529,-3.98824 1.6587,-5.37417c1.11316,-1.3933 2.65022,-2.08996 4.61116,-2.08996c1.90934,0 3.56435,0.76669 4.96503,2.30006v-4.88762c0,-1.35644 0.16956,-2.20053 0.50867,-2.53227c0.33911,-0.33174 0.79986,-0.4976 1.38224,-0.4976c0.40546,0 0.77774,0.11794 1.11685,0.35385c0.34648,0.23591 0.55659,0.54184 0.63031,0.91781c0.0811,0.37597 0.12164,0.99891 0.12164,1.8688v14.87295c0,0.84041 -0.04424,1.44122 -0.1327,1.80245c-0.08846,0.35386 -0.30225,0.6303 -0.64136,0.82934c-0.33911,0.20641 -0.7114,0.30963 -1.11685,0.30963c-1.24586,0 -1.86879,-0.71876 -1.86879,-2.1563zM438.75637,156.92652c0,1.69556 0.35385,2.93404 1.06156,3.71547c0.71508,0.77406 1.52968,1.16109 2.4438,1.16109c1.06894,0 1.95357,-0.40545 2.65391,-1.21637c0.70034,-0.81092 1.0505,-1.9462 1.0505,-3.40586c0,-1.51862 -0.3428,-2.72763 -1.02839,-3.62701c-0.67822,-0.90675 -1.5776,-1.36012 -2.69814,-1.36012c-1.0247,0 -1.86142,0.4202 -2.51015,1.2606c-0.64873,0.84041 -0.9731,1.9978 -0.9731,3.4722zM458.30684,148.7768l-0.58607,6.82276c-0.09584,0.99522 -0.26908,1.66238 -0.51972,2.00149c-0.24327,0.33911 -0.56027,0.50867 -0.95099,0.50867c-0.38334,0 -0.70034,-0.17324 -0.95099,-0.51972c-0.24327,-0.34649 -0.40177,-1.00996 -0.47549,-1.99043l-0.46443,-6.65689c-0.05897,-0.56764 -0.08846,-1.37856 -0.08846,-2.43275c0,-1.85037 0.70771,-2.77554 2.12313,-2.77554c0.62662,0 1.10948,0.21379 1.44859,0.64136c0.34648,0.4202 0.51972,1.20532 0.51972,2.35534c0,0.93624 -0.01843,1.61815 -0.05529,2.04572zM456.33852,160.53141c0.56027,0 1.04313,0.20273 1.44859,0.60819c0.41283,0.40545 0.61925,0.88832 0.61925,1.44859c0,0.57502 -0.20642,1.06893 -0.61925,1.48176c-0.40546,0.41283 -0.88832,0.61925 -1.44859,0.61925c-0.58238,0 -1.08,-0.20274 -1.49283,-0.60819c-0.40546,-0.41283 -0.60819,-0.91044 -0.60819,-1.49282c0,-0.56027 0.20642,-1.04314 0.61925,-1.44859c0.41283,-0.40545 0.90675,-0.60819 1.48176,-0.60819z" fill="#ff7777" stroke="none" stroke-width="1" stroke-linecap="square"/><path d="M166.30778,209.46281v4.61348c0,1.42548 -0.18609,2.32079 -0.55825,2.68593c-0.36514,0.36515 -0.83562,0.54772 -1.41142,0.54772c-0.42834,0 -0.81456,-0.12289 -1.15864,-0.36866c-0.33706,-0.24577 -0.54772,-0.54771 -0.63199,-0.90583c-0.07724,-0.35813 -0.11585,-1.01118 -0.11585,-1.95915v-13.11366c0,-1.10246 0.07373,-1.85381 0.22119,-2.25407c0.14746,-0.40727 0.4143,-0.68114 0.80052,-0.82158c0.39324,-0.14044 0.97606,-0.21066 1.74849,-0.21066h4.71881c2.80881,0 4.71179,0.54421 5.70891,1.63262c0.99713,1.08841 1.4957,2.44016 1.4957,4.05523c0,4.06576 -2.40155,6.09865 -7.20462,6.09865zM168.97264,200.69931h-2.66486v5.74052h2.66486c1.61507,0 2.71402,-0.25981 3.29685,-0.77945c0.58986,-0.51962 0.88478,-1.22183 0.88478,-2.10661c0,-0.63198 -0.16501,-1.19375 -0.49505,-1.68529c-0.32301,-0.49153 -0.7619,-0.80754 -1.31664,-0.94798c-0.55474,-0.14746 -1.34471,-0.22119 -2.36993,-0.22119zM183.73473,200.30959v14.03003c0,0.86371 -0.04213,1.45357 -0.12639,1.76956c-0.07725,0.30898 -0.27737,0.58634 -0.60039,0.83211c-0.32301,0.24577 -0.67412,0.36866 -1.05331,0.36866c-0.38622,0 -0.74784,-0.11938 -1.0849,-0.35812c-0.33004,-0.24577 -0.53718,-0.53016 -0.62145,-0.85317c-0.07725,-0.32301 -0.11586,-0.90937 -0.11586,-1.75903v-14.03003c0,-0.88478 0.04213,-1.48165 0.12639,-1.79062c0.08426,-0.31599 0.28439,-0.58985 0.60038,-0.82158c0.32301,-0.23173 0.67412,-0.34759 1.05331,-0.34759c0.44239,0 0.82158,0.12641 1.13757,0.3792c0.32301,0.24577 0.51612,0.54069 0.57932,0.88478c0.07022,0.33706 0.10533,0.90233 0.10533,1.69582zM197.47774,210.88477h-7.05715c0.03511,1.33419 0.40026,2.34185 1.09544,3.02299c0.7022,0.68114 1.53782,1.0217 2.50687,1.0217c1.20779,0 2.34186,-0.52666 3.40218,-1.57996c0.42834,-0.4424 0.74433,-0.71625 0.94797,-0.82158c0.21066,-0.10533 0.4424,-0.15799 0.69519,-0.15799c0.32301,0 0.60038,0.10182 0.8321,0.30545c0.23875,0.20364 0.35814,0.45292 0.35814,0.74784c0,0.80754 -0.55474,1.65721 -1.66423,2.54901c-1.10246,0.8918 -2.59816,1.33769 -4.48709,1.33769c-2.40856,0 -4.23429,-0.67763 -5.47718,-2.03289c-1.23588,-1.35525 -1.85382,-3.11427 -1.85382,-5.27706c0,-2.17683 0.61794,-3.93584 1.85382,-5.27705c1.2429,-1.34823 2.97033,-2.02235 5.18227,-2.02235c2.12066,0 3.75329,0.6355 4.89787,1.90649c1.15162,1.27099 1.72742,2.65433 1.72742,4.15002c0,0.65305 -0.19311,1.17268 -0.57932,1.55889c-0.37919,0.3792 -1.17269,0.56878 -2.38047,0.56878zM190.42058,208.84136h6.54104c-0.04213,-1.19374 -0.37217,-2.10309 -0.99011,-2.72806c-0.61092,-0.62495 -1.36929,-0.93744 -2.27514,-0.93744c-1.90297,0 -2.99489,1.22183 -3.27578,3.66549zM212.55317,215.28759c-1.71337,1.34823 -3.39165,2.02235 -5.0348,2.02235c-1.55187,0 -2.74562,-0.39323 -3.58124,-1.1797c-0.8286,-0.79349 -1.2429,-1.75902 -1.2429,-2.89659c0,-0.97607 0.28088,-1.76253 0.84264,-2.3594c0.56879,-0.60389 1.18672,-1.02522 1.85382,-1.26397c0.6671,-0.23874 1.752,-0.51261 3.25472,-0.82158c1.50974,-0.31599 2.72455,-0.60389 3.64444,-0.86371c-0.00702,-1.08841 -0.2212,-1.82222 -0.64252,-2.20141c-0.42132,-0.3862 -1.06383,-0.57931 -1.92754,-0.57931c-1.62911,0 -2.69647,0.45643 -3.20205,1.36929c-0.28088,0.51962 -0.53016,0.88829 -0.74784,1.10598c-0.21768,0.21768 -0.53369,0.32652 -0.94798,0.32652c-0.37919,0 -0.72326,-0.12289 -1.03224,-0.36866c-0.30196,-0.25279 -0.45292,-0.5758 -0.45292,-0.96903c0,-0.93393 0.50207,-1.81871 1.50622,-2.65434c1.01118,-0.83562 2.60166,-1.25344 4.77147,-1.25344c2.19789,0 3.80595,0.3792 4.82415,1.13757c1.01819,0.75839 1.49569,2.29269 1.4325,4.60294l-0.08426,3.37058c-0.03511,1.03926 0.07373,1.88893 0.32652,2.54901c0.25279,0.66007 0.37919,1.16566 0.37919,1.51675c0,0.3792 -0.16853,0.71274 -0.50558,1.00064c-0.33004,0.2879 -0.70571,0.43185 -1.12703,0.43185c-0.73028,0 -1.49921,-0.67411 -2.30674,-2.02235zM212.31091,210.08426c-0.53368,0.21066 -1.41846,0.43888 -2.65434,0.68465c-1.22885,0.24577 -2.09959,0.52665 -2.61219,0.84264c-0.51261,0.31599 -0.76891,0.77594 -0.76891,1.37983c0,0.51962 0.20364,0.97606 0.61092,1.36929c0.40729,0.39324 0.98309,0.58986 1.72742,0.58986c0.79349,0 1.52729,-0.21418 2.2014,-0.64252c0.68113,-0.43537 1.09896,-0.95149 1.25344,-1.54836c0.16151,-0.59687 0.24226,-1.48868 0.24226,-2.6754zM222.21462,206.43983c0,0.46346 0.24227,0.8286 0.72679,1.09543c0.48451,0.25982 1.5624,0.59687 3.23364,1.01118c3.25822,0.78647 4.88734,2.14172 4.88734,4.06576c0,1.51675 -0.54773,2.67891 -1.64316,3.48645c-1.09543,0.80754 -2.63326,1.2113 -4.61347,1.2113c-2.00128,0 -3.5075,-0.41079 -4.51868,-1.23237c-1.01118,-0.8286 -1.51676,-1.70284 -1.51676,-2.62273c0,-0.39324 0.14043,-0.73028 0.42132,-1.01117c0.28088,-0.28089 0.62495,-0.42133 1.03224,-0.42133c0.56176,0 1.05331,0.35111 1.47462,1.05331c0.4775,0.77242 1.00065,1.28503 1.56943,1.53782c0.56878,0.24577 1.1797,0.36866 1.83276,0.36866c0.71624,0 1.29908,-0.158 1.74849,-0.47399c0.45643,-0.32301 0.68464,-0.7303 0.68464,-1.22183c0,-0.44941 -0.19311,-0.83913 -0.57931,-1.16916c-0.3792,-0.33005 -1.42196,-0.68816 -3.12833,-1.07437c-1.70636,-0.39324 -2.94925,-0.94095 -3.72869,-1.64316c-0.77945,-0.70923 -1.16917,-1.55187 -1.16917,-2.52794c0,-1.09543 0.47399,-2.06448 1.42196,-2.90712c0.95499,-0.84265 2.38399,-1.26397 4.28696,-1.26397c1.74848,0 3.13885,0.35461 4.17109,1.06384c1.03926,0.70923 1.55889,1.44655 1.55889,2.21195c0,0.40025 -0.13341,0.74082 -0.40025,1.0217c-0.25982,0.27387 -0.62145,0.41079 -1.08491,0.41079c-0.69519,0 -1.32365,-0.39675 -1.88542,-1.19024c-0.55473,-0.80051 -1.39387,-1.20076 -2.51739,-1.20076c-0.60389,0 -1.13406,0.12289 -1.5905,0.36866c-0.44941,0.24577 -0.67412,0.59686 -0.67412,1.05331zM244.13918,210.88477h-7.05715c0.03511,1.33419 0.40026,2.34185 1.09544,3.02299c0.7022,0.68114 1.53784,1.0217 2.50688,1.0217c1.20779,0 2.34185,-0.52666 3.40218,-1.57996c0.42835,-0.4424 0.74434,-0.71625 0.94798,-0.82158c0.21066,-0.10533 0.44239,-0.15799 0.69518,-0.15799c0.32301,0 0.60038,0.10182 0.83211,0.30545c0.23874,0.20364 0.35813,0.45292 0.35813,0.74784c0,0.80754 -0.55474,1.65721 -1.66423,2.54901c-1.10246,0.8918 -2.59815,1.33769 -4.48708,1.33769c-2.40856,0 -4.23428,-0.67763 -5.47718,-2.03289c-1.23588,-1.35525 -1.85382,-3.11427 -1.85382,-5.27706c0,-2.17683 0.61794,-3.93584 1.85382,-5.27705c1.2429,-1.34823 2.97032,-2.02235 5.18226,-2.02235c2.12066,0 3.75329,0.6355 4.89787,1.90649c1.15161,1.27099 1.72742,2.65433 1.72742,4.15002c0,0.65305 -0.19311,1.17268 -0.57932,1.55889c-0.3792,0.3792 -1.17269,0.56878 -2.38048,0.56878zM237.08202,208.84136h6.54103c-0.04213,-1.19374 -0.37217,-2.10309 -0.99011,-2.72806c-0.61092,-0.62495 -1.36929,-0.93744 -2.27514,-0.93744c-1.90297,0 -2.9949,1.22183 -3.27579,3.66549zM258.10864,214.33961v-9.21642c0,-1.61507 0.59336,-2.42261 1.78008,-2.42261c1.13055,0 1.70987,0.74434 1.73796,2.23301c0.74434,-1.48868 1.77306,-2.23301 3.08619,-2.23301c0.69519,0 1.41144,0.18257 2.14874,0.54772c0.74434,0.35813 1.1165,0.85318 1.1165,1.48516c0,0.4424 -0.15097,0.80754 -0.45292,1.09543c-0.29494,0.28089 -0.61091,0.42132 -0.94798,0.42132c-0.19661,0 -0.54772,-0.07725 -1.05331,-0.23173c-0.50558,-0.15448 -0.92691,-0.23173 -1.26397,-0.23173c-0.86371,0 -1.50623,0.43536 -1.92756,1.30609c-0.42132,0.87074 -0.63198,2.549 -0.63198,5.0348v2.07502c0,0.91287 -0.03862,1.53081 -0.11587,1.85382c-0.07022,0.31599 -0.26333,0.6039 -0.57932,0.86372c-0.31599,0.25982 -0.68113,0.38971 -1.09544,0.38971c-0.39324,0 -0.74784,-0.11587 -1.06383,-0.34759c-0.31599,-0.23173 -0.51964,-0.50558 -0.61093,-0.82158c-0.08427,-0.32301 -0.1264,-0.92339 -0.1264,-1.80115zM279.97791,210.88477h-7.05715c0.03511,1.33419 0.40026,2.34185 1.09544,3.02299c0.7022,0.68114 1.53782,1.0217 2.50686,1.0217c1.20779,0 2.34185,-0.52666 3.40218,-1.57996c0.42835,-0.4424 0.74434,-0.71625 0.94798,-0.82158c0.21066,-0.10533 0.4424,-0.15799 0.69519,-0.15799c0.32301,0 0.60039,0.10182 0.83212,0.30545c0.23874,0.20364 0.35812,0.45292 0.35812,0.74784c0,0.80754 -0.55473,1.65721 -1.66421,2.54901c-1.10246,0.8918 -2.59815,1.33769 -4.48708,1.33769c-2.40856,0 -4.2343,-0.67763 -5.47719,-2.03289c-1.23588,-1.35525 -1.85382,-3.11427 -1.85382,-5.27706c0,-2.17683 0.61794,-3.93584 1.85382,-5.27705c1.2429,-1.34823 2.97032,-2.02235 5.18226,-2.02235c2.12066,0 3.75328,0.6355 4.89787,1.90649c1.15161,1.27099 1.72742,2.65433 1.72742,4.15002c0,0.65305 -0.19311,1.17268 -0.57931,1.55889c-0.3792,0.3792 -1.17269,0.56878 -2.38047,0.56878zM272.92076,208.84136h6.54103c-0.04213,-1.19374 -0.37218,-2.10309 -0.99011,-2.72806c-0.61092,-0.62495 -1.36929,-0.93744 -2.27514,-0.93744c-1.90297,0 -2.99489,1.22183 -3.27578,3.66549zM288.69138,206.43983c0,0.46346 0.24226,0.8286 0.72677,1.09543c0.48452,0.25982 1.56241,0.59687 3.23365,1.01118c3.25822,0.78647 4.88734,2.14172 4.88734,4.06576c0,1.51675 -0.54772,2.67891 -1.64315,3.48645c-1.09543,0.80754 -2.63327,1.2113 -4.61348,1.2113c-2.00128,0 -3.50751,-0.41079 -4.51868,-1.23237c-1.01118,-0.8286 -1.51675,-1.70284 -1.51675,-2.62273c0,-0.39324 0.14044,-0.73028 0.42132,-1.01117c0.28089,-0.28089 0.62495,-0.42133 1.03224,-0.42133c0.56177,0 1.05331,0.35111 1.47463,1.05331c0.4775,0.77242 1.00064,1.28503 1.56943,1.53782c0.56878,0.24577 1.1797,0.36866 1.83275,0.36866c0.71624,0 1.29908,-0.158 1.74849,-0.47399c0.45643,-0.32301 0.68464,-0.7303 0.68464,-1.22183c0,-0.44941 -0.19311,-0.83913 -0.57931,-1.16916c-0.3792,-0.33005 -1.42196,-0.68816 -3.12831,-1.07437c-1.70636,-0.39324 -2.94926,-0.94095 -3.7287,-1.64316c-0.77945,-0.70923 -1.16917,-1.55187 -1.16917,-2.52794c0,-1.09543 0.47399,-2.06448 1.42197,-2.90712c0.955,-0.84265 2.38397,-1.26397 4.28696,-1.26397c1.74848,0 3.13885,0.35461 4.17109,1.06384c1.03926,0.70923 1.55889,1.44655 1.55889,2.21195c0,0.40025 -0.13341,0.74082 -0.40025,1.0217c-0.25982,0.27387 -0.62145,0.41079 -1.0849,0.41079c-0.69519,0 -1.32365,-0.39675 -1.88542,-1.19024c-0.55473,-0.80051 -1.39387,-1.20076 -2.5174,-1.20076c-0.60389,0 -1.13405,0.12289 -1.59049,0.36866c-0.44941,0.24577 -0.67412,0.59686 -0.67412,1.05331zM301.17832,203.01658v-2.15928c0,-0.8918 0.03511,-1.49569 0.10533,-1.81169c0.07725,-0.32301 0.27034,-0.60741 0.57931,-0.85317c0.31599,-0.25279 0.68465,-0.3792 1.10598,-0.3792c0.3862,0 0.7338,0.11587 1.04278,0.34759c0.30898,0.22471 0.5126,0.49857 0.61091,0.82158c0.09831,0.32301 0.14746,0.84967 0.14746,1.57996v2.4542h0.69519c0.87776,0 1.46058,0.10885 1.74848,0.32653c0.29494,0.21066 0.44239,0.52314 0.44239,0.93743c0,0.88478 -0.73731,1.32717 -2.21194,1.32717h-0.67412v6.63582c0,0.8918 0.06321,1.50271 0.18961,1.83276c0.1264,0.32301 0.46697,0.48451 1.0217,0.48451c0.25982,0 0.55473,-0.0351 0.88477,-0.10532c0.33005,-0.07725 0.57581,-0.11587 0.73732,-0.11587c0.35813,0 0.64954,0.11938 0.87424,0.35813c0.22471,0.23173 0.33705,0.51612 0.33705,0.85318c0,1.17268 -1.24289,1.75902 -3.72869,1.75902c-1.20076,0 -2.08554,-0.22119 -2.65432,-0.66358c-0.56878,-0.44941 -0.91989,-0.99361 -1.05331,-1.63262c-0.13341,-0.64603 -0.20013,-1.48166 -0.20013,-2.50688v-6.89915h-0.47399c-1.06735,0 -1.60102,-0.43536 -1.60102,-1.30609c0,-0.85669 0.55826,-1.28504 1.67476,-1.28504zM319.21355,215.28759c-1.71338,1.34823 -3.39165,2.02235 -5.0348,2.02235c-1.55187,0 -2.74561,-0.39323 -3.58123,-1.1797c-0.8286,-0.79349 -1.2429,-1.75902 -1.2429,-2.89659c0,-0.97607 0.28087,-1.76253 0.84265,-2.3594c0.56878,-0.60389 1.18672,-1.02522 1.85381,-1.26397c0.66709,-0.23874 1.752,-0.51261 3.25472,-0.82158c1.50975,-0.31599 2.72455,-0.60389 3.64444,-0.86371c-0.00702,-1.08841 -0.22119,-1.82222 -0.64252,-2.20141c-0.42132,-0.3862 -1.06384,-0.57931 -1.92755,-0.57931c-1.62912,0 -2.69647,0.45643 -3.20206,1.36929c-0.28089,0.51962 -0.53016,0.88829 -0.74784,1.10598c-0.21768,0.21768 -0.53368,0.32652 -0.94798,0.32652c-0.3792,0 -0.72326,-0.12289 -1.03224,-0.36866c-0.30194,-0.25279 -0.45292,-0.5758 -0.45292,-0.96903c0,-0.93393 0.50208,-1.81871 1.50623,-2.65434c1.01118,-0.83562 2.60166,-1.25344 4.77147,-1.25344c2.19789,0 3.80595,0.3792 4.82415,1.13757c1.0182,0.75839 1.49569,2.29269 1.43249,4.60294l-0.08427,3.37058c-0.03511,1.03926 0.07373,1.88893 0.32652,2.54901c0.25279,0.66007 0.3792,1.16566 0.3792,1.51675c0,0.3792 -0.16852,0.71274 -0.50558,1.00064c-0.33005,0.2879 -0.70571,0.43185 -1.12704,0.43185c-0.73029,0 -1.49921,-0.67411 -2.30674,-2.02235zM318.97129,210.08426c-0.53367,0.21066 -1.41845,0.43888 -2.65434,0.68465c-1.22886,0.24577 -2.09959,0.52665 -2.6122,0.84264c-0.51261,0.31599 -0.76891,0.77594 -0.76891,1.37983c0,0.51962 0.20364,0.97606 0.61092,1.36929c0.40727,0.39324 0.98308,0.58986 1.72742,0.58986c0.79349,0 1.5273,-0.21418 2.20141,-0.64252c0.68114,-0.43537 1.09895,-0.95149 1.25343,-1.54836c0.16151,-0.59687 0.24226,-1.48868 0.24226,-2.6754zM326.12587,214.33961v-9.21642c0,-1.61507 0.59338,-2.42261 1.7801,-2.42261c1.13055,0 1.70987,0.74434 1.73795,2.23301c0.74434,-1.48868 1.77307,-2.23301 3.08619,-2.23301c0.69519,0 1.41143,0.18257 2.14874,0.54772c0.74434,0.35813 1.11651,0.85318 1.11651,1.48516c0,0.4424 -0.15098,0.80754 -0.45292,1.09543c-0.29494,0.28089 -0.61091,0.42132 -0.94797,0.42132c-0.19661,0 -0.54773,-0.07725 -1.05331,-0.23173c-0.50558,-0.15448 -0.92691,-0.23173 -1.26397,-0.23173c-0.86371,0 -1.50623,0.43536 -1.92755,1.30609c-0.42132,0.87074 -0.63199,2.549 -0.63199,5.0348v2.07502c0,0.91287 -0.03861,1.53081 -0.11585,1.85382c-0.07022,0.31599 -0.26333,0.6039 -0.57932,0.86372c-0.31599,0.25982 -0.68114,0.38971 -1.09543,0.38971c-0.39324,0 -0.74785,-0.11587 -1.06384,-0.34759c-0.31599,-0.23173 -0.51963,-0.50558 -0.61092,-0.82158c-0.08427,-0.32301 -0.1264,-0.92339 -0.1264,-1.80115zM338.55751,203.01658v-2.15928c0,-0.8918 0.03511,-1.49569 0.10533,-1.81169c0.07725,-0.32301 0.27035,-0.60741 0.57932,-0.85317c0.31599,-0.25279 0.68464,-0.3792 1.10597,-0.3792c0.3862,0 0.7338,0.11587 1.04278,0.34759c0.30898,0.22471 0.51262,0.49857 0.61093,0.82158c0.09831,0.32301 0.14746,0.84967 0.14746,1.57996v2.4542h0.69518c0.87776,0 1.46059,0.10885 1.74849,0.32653c0.29494,0.21066 0.44239,0.52314 0.44239,0.93743c0,0.88478 -0.73731,1.32717 -2.21194,1.32717h-0.67412v6.63582c0,0.8918 0.06319,1.50271 0.18959,1.83276c0.1264,0.32301 0.46697,0.48451 1.0217,0.48451c0.25982,0 0.55473,-0.0351 0.88478,-0.10532c0.33005,-0.07725 0.57582,-0.11587 0.73732,-0.11587c0.35813,0 0.64954,0.11938 0.87425,0.35813c0.22471,0.23173 0.33706,0.51612 0.33706,0.85318c0,1.17268 -1.24289,1.75902 -3.7287,1.75902c-1.20076,0 -2.08555,-0.22119 -2.65434,-0.66358c-0.56878,-0.44941 -0.91989,-0.99361 -1.05331,-1.63262c-0.13341,-0.64603 -0.20012,-1.48166 -0.20012,-2.50688v-6.89915h-0.47398c-1.06735,0 -1.60102,-0.43536 -1.60102,-1.30609c0,-0.85669 0.55825,-1.28504 1.67476,-1.28504zM356.10822,203.01658v-2.15928c0,-0.8918 0.03511,-1.49569 0.10533,-1.81169c0.07725,-0.32301 0.27037,-0.60741 0.57934,-0.85317c0.31599,-0.25279 0.68465,-0.3792 1.10598,-0.3792c0.38621,0 0.7338,0.11587 1.04278,0.34759c0.30897,0.22471 0.5126,0.49857 0.61091,0.82158c0.09831,0.32301 0.14747,0.84967 0.14747,1.57996v2.4542h0.69518c0.87776,0 1.46058,0.10885 1.74849,0.32653c0.29492,0.21066 0.44239,0.52314 0.44239,0.93743c0,0.88478 -0.73731,1.32717 -2.21194,1.32717h-0.67412v6.63582c0,0.8918 0.06319,1.50271 0.18959,1.83276c0.1264,0.32301 0.46697,0.48451 1.02171,0.48451c0.25982,0 0.55474,-0.0351 0.88478,-0.10532c0.33004,-0.07725 0.5758,-0.11587 0.73731,-0.11587c0.35812,0 0.64955,0.11938 0.87425,0.35813c0.22471,0.23173 0.33705,0.51612 0.33705,0.85318c0,1.17268 -1.2429,1.75902 -3.7287,1.75902c-1.20076,0 -2.08555,-0.22119 -2.65434,-0.66358c-0.56878,-0.44941 -0.91989,-0.99361 -1.05333,-1.63262c-0.13341,-0.64603 -0.20012,-1.48166 -0.20012,-2.50688v-6.89915h-0.47399c-1.06735,0 -1.60102,-0.43536 -1.60102,-1.30609c0,-0.85669 0.55825,-1.28504 1.67476,-1.28504zM377.78786,208.24098v6.55156c0,1.67827 -0.61092,2.5174 -1.83275,2.5174c-0.54773,0 -0.97606,-0.17555 -1.28503,-0.52666c-0.30894,-0.35813 -0.46342,-1.02172 -0.46342,-1.99076v-5.74052c0,-1.35525 -0.21767,-2.28566 -0.65305,-2.79125c-0.43538,-0.50558 -1.03926,-0.75839 -1.81168,-0.75839c-0.68113,0 -1.2745,0.18959 -1.78009,0.56879c-0.50558,0.37217 -0.86371,0.83563 -1.07437,1.39036c-0.21066,0.55473 -0.31599,1.52379 -0.31599,2.90713v4.16056c0,1.12353 -0.16151,1.86785 -0.48452,2.233c-0.31599,0.36515 -0.75839,0.54773 -1.32716,0.54773c-0.55473,0 -0.9901,-0.17555 -1.30609,-0.52666c-0.31599,-0.35813 -0.47399,-1.09193 -0.47399,-2.2014v-14.2723c0,-0.86371 0.04213,-1.4641 0.1264,-1.80115c0.08426,-0.34408 0.27386,-0.62145 0.56878,-0.83211c0.30196,-0.21768 0.65305,-0.32653 1.05331,-0.32653c0.45643,0 0.83561,0.12288 1.13757,0.36865c0.30196,0.24577 0.49505,0.56528 0.57932,0.95852c0.08426,0.3862 0.1264,1.03224 0.1264,1.93808v4.25535c1.20076,-1.44654 2.66136,-2.16981 4.38175,-2.16981c1.45353,0 2.62268,0.4459 3.50746,1.3377c0.88478,0.88478 1.32716,2.28566 1.32716,4.20269zM391.37814,210.88477h-7.05715c0.03511,1.33419 0.40026,2.34185 1.09544,3.02299c0.7022,0.68114 1.53782,1.0217 2.50687,1.0217c1.20779,0 2.34185,-0.52666 3.40218,-1.57996c0.42834,-0.4424 0.74434,-0.71625 0.94798,-0.82158c0.21066,-0.10533 0.44239,-0.15799 0.69518,-0.15799c0.32301,0 0.60039,0.10182 0.83211,0.30545c0.23875,0.20364 0.35813,0.45292 0.35813,0.74784c0,0.80754 -0.55474,1.65721 -1.66423,2.54901c-1.10246,0.8918 -2.59815,1.33769 -4.48708,1.33769c-2.40857,0 -4.23428,-0.67763 -5.47718,-2.03289c-1.23588,-1.35525 -1.85383,-3.11427 -1.85383,-5.27706c0,-2.17683 0.61795,-3.93584 1.85383,-5.27705c1.2429,-1.34823 2.97032,-2.02235 5.18226,-2.02235c2.12066,0 3.75328,0.6355 4.89787,1.90649c1.15161,1.27099 1.72742,2.65433 1.72742,4.15002c0,0.65305 -0.19311,1.17268 -0.57932,1.55889c-0.37919,0.3792 -1.17268,0.56878 -2.38047,0.56878zM384.32099,208.84136h6.54103c-0.04213,-1.19374 -0.37217,-2.10309 -0.99011,-2.72806c-0.61091,-0.62495 -1.3693,-0.93744 -2.27514,-0.93744c-1.90298,0 -2.9949,1.22183 -3.27579,3.66549zM408.58126,205.0916c1.27801,-1.59401 2.84041,-2.39101 4.68721,-2.39101c1.8468,0 3.3109,0.69519 4.39229,2.08555c1.08841,1.38334 1.63262,3.17396 1.63262,5.37186c0,2.09256 -0.53368,3.80945 -1.60102,5.15067c-1.06032,1.33419 -2.52443,2.00128 -4.39229,2.00128c-1.79062,0 -3.36355,-0.74434 -4.71881,-2.23301v4.68721c0,1.29206 -0.16151,2.09608 -0.48452,2.41207c-0.31599,0.31599 -0.74433,0.47399 -1.28503,0.47399c-0.66008,0 -1.12704,-0.21769 -1.4009,-0.65305c-0.27387,-0.43537 -0.41079,-1.21481 -0.41079,-2.33834v-14.18803c0,-0.73731 0.03159,-1.27801 0.09479,-1.62208c0.07022,-0.34408 0.26333,-0.62145 0.57932,-0.83211c0.31599,-0.21066 0.69519,-0.316 1.13758,-0.316c1.1797,0 1.76954,0.6706 1.76954,2.01182zM415.65948,210.08426c0,-1.57996 -0.33355,-2.74912 -1.00064,-3.50751c-0.66008,-0.75839 -1.4325,-1.13757 -2.31727,-1.13757c-1.03224,0 -1.88191,0.38621 -2.54901,1.15864c-0.6671,0.77242 -1.00063,1.85031 -1.00063,3.23365c0,1.44654 0.32301,2.59815 0.96905,3.45484c0.64603,0.84967 1.51325,1.2745 2.60166,1.2745c0.96904,0 1.75903,-0.39674 2.36994,-1.19023c0.61793,-0.79349 0.92691,-1.88893 0.92691,-3.28632zM422.20051,214.33961v-9.21642c0,-1.61507 0.59337,-2.42261 1.78009,-2.42261c1.13055,0 1.70986,0.74434 1.73795,2.23301c0.74433,-1.48868 1.77306,-2.23301 3.08619,-2.23301c0.69518,0 1.41143,0.18257 2.14875,0.54772c0.74433,0.35813 1.11651,0.85318 1.11651,1.48516c0,0.4424 -0.15097,0.80754 -0.45293,1.09543c-0.29492,0.28089 -0.61091,0.42132 -0.94797,0.42132c-0.19661,0 -0.54773,-0.07725 -1.05331,-0.23173c-0.50558,-0.15448 -0.92691,-0.23173 -1.26396,-0.23173c-0.86371,0 -1.50622,0.43536 -1.92755,1.30609c-0.42133,0.87074 -0.63198,2.549 -0.63198,5.0348v2.07502c0,0.91287 -0.03861,1.53081 -0.11586,1.85382c-0.07022,0.31599 -0.26333,0.6039 -0.57932,0.86372c-0.31599,0.25982 -0.68114,0.38971 -1.09544,0.38971c-0.39324,0 -0.74784,-0.11587 -1.06383,-0.34759c-0.31599,-0.23173 -0.51963,-0.50558 -0.61092,-0.82158c-0.08426,-0.32301 -0.1264,-0.92339 -0.1264,-1.80115zM440.31999,202.70059c2.22598,0 3.97798,0.68815 5.25599,2.06448c1.27801,1.36929 1.91702,3.11427 1.91702,5.23493c0,2.1347 -0.64954,3.8867 -1.94861,5.256c-1.29206,1.36929 -3.00544,2.05396 -5.14014,2.05396c-2.31727,0 -4.10437,-0.69167 -5.36132,-2.07502c-1.25695,-1.39037 -1.88542,-3.13535 -1.88542,-5.23494c0,-2.12767 0.6355,-3.87616 1.90648,-5.24546c1.27801,-1.36929 3.03001,-2.05394 5.25599,-2.05394zM440.31999,214.63455c1.08841,0 1.94862,-0.40727 2.5806,-1.22183c0.639,-0.82158 0.95851,-1.95915 0.95851,-3.41271c0,-1.45356 -0.31951,-2.59113 -0.95851,-3.4127c-0.63198,-0.82158 -1.49219,-1.23237 -2.5806,-1.23237c-1.07437,0 -1.93106,0.41429 -2.57006,1.24289c-0.639,0.82158 -0.95852,1.95564 -0.95852,3.40218c0,1.46059 0.31601,2.59815 0.94798,3.41271c0.639,0.81456 1.4992,1.22183 2.58059,1.22183zM452.14072,197.50779c0.46346,0 0.86722,0.17555 1.2113,0.52666c0.34407,0.3511 0.51612,0.75837 0.51612,1.22183c0,0.48452 -0.17203,0.90234 -0.51612,1.25344c-0.34407,0.34408 -0.74785,0.51612 -1.2113,0.51612c-0.48453,0 -0.90232,-0.17204 -1.25343,-0.51612c-0.34407,-0.3511 -0.51612,-0.76892 -0.51612,-1.25344c0,-0.47047 0.17205,-0.87775 0.51612,-1.22183c0.35111,-0.3511 0.76891,-0.52666 1.25343,-0.52666zM450.37117,216.93075v-11.27036c0,-0.88478 0.03863,-1.48165 0.11587,-1.79062c0.07725,-0.30898 0.26683,-0.57931 0.56878,-0.81104c0.30897,-0.23874 0.6706,-0.35813 1.0849,-0.35813c0.38621,0 0.73732,0.10885 1.05331,0.32653c0.32301,0.21768 0.52313,0.49153 0.60038,0.82158c0.08426,0.33005 0.1264,0.93393 0.1264,1.81169v11.27036c0,1.33419 -0.07021,2.34887 -0.21066,3.04405c-0.13341,0.69519 -0.50208,1.31313 -1.10598,1.85382c-0.59688,0.54773 -1.5273,0.82157 -2.79127,0.82157c-2.21896,0 -3.32844,-0.58634 -3.32844,-1.75902c0,-0.40727 0.12991,-0.75135 0.38972,-1.03224c0.25279,-0.28089 0.57581,-0.42132 0.96904,-0.42132l1.31663,0.08426c0.43538,0 0.74434,-0.16502 0.92691,-0.49505c0.1896,-0.32301 0.28438,-1.0217 0.28438,-2.09608zM467.66382,210.88477h-7.05715c0.03511,1.33419 0.40026,2.34185 1.09544,3.02299c0.7022,0.68114 1.53782,1.0217 2.50686,1.0217c1.20779,0 2.34185,-0.52666 3.40218,-1.57996c0.42834,-0.4424 0.74434,-0.71625 0.94798,-0.82158c0.21066,-0.10533 0.44239,-0.15799 0.69519,-0.15799c0.32301,0 0.60039,0.10182 0.83211,0.30545c0.23875,0.20364 0.35812,0.45292 0.35812,0.74784c0,0.80754 -0.55473,1.65721 -1.66422,2.54901c-1.10246,0.8918 -2.59815,1.33769 -4.48708,1.33769c-2.40857,0 -4.23428,-0.67763 -5.47719,-2.03289c-1.23588,-1.35525 -1.85383,-3.11427 -1.85383,-5.27706c0,-2.17683 0.61795,-3.93584 1.85383,-5.27705c1.2429,-1.34823 2.97032,-2.02235 5.18226,-2.02235c2.12066,0 3.75328,0.6355 4.89787,1.90649c1.15161,1.27099 1.72742,2.65433 1.72742,4.15002c0,0.65305 -0.1931,1.17268 -0.57931,1.55889c-0.37919,0.3792 -1.17269,0.56878 -2.38048,0.56878zM460.60667,208.84136h6.54103c-0.04213,-1.19374 -0.37218,-2.10309 -0.99011,-2.72806c-0.61091,-0.62495 -1.3693,-0.93744 -2.27514,-0.93744c-1.90298,0 -2.99489,1.22183 -3.27578,3.66549zM485.0144,211.29556c0.44239,0 0.80754,0.17204 1.09545,0.51612c0.28791,0.33706 0.43184,0.68816 0.43184,1.05331c0,0.96904 -0.58282,1.95212 -1.74848,2.94925c-1.16566,0.99713 -2.72806,1.4957 -4.68721,1.4957c-2.3594,0 -4.143,-0.6671 -5.35079,-2.00128c-1.20076,-1.34122 -1.80115,-3.08268 -1.80115,-5.2244c0,-2.16981 0.62145,-3.94287 1.86435,-5.3192c1.24992,-1.37633 3.03001,-2.06448 5.34026,-2.06448c1.79062,0 3.27227,0.46697 4.44495,1.4009c1.17268,0.93393 1.75902,1.85733 1.75902,2.77019c0,0.43537 -0.15799,0.8005 -0.47398,1.09543c-0.31599,0.29494 -0.69167,0.4424 -1.12703,0.4424c-0.52666,0 -0.93745,-0.22471 -1.23237,-0.67412c-0.66008,-0.99713 -1.24641,-1.62912 -1.75902,-1.89595c-0.50558,-0.26684 -1.05331,-0.40027 -1.64315,-0.40027c-1.14459,0 -2.02937,0.4424 -2.65434,1.32717c-0.62496,0.87776 -0.93745,1.9732 -0.93745,3.28631c0,1.35525 0.32653,2.45771 0.97958,3.30738c0.65305,0.84967 1.52378,1.27451 2.61219,1.27451c0.62496,0 1.20076,-0.14396 1.72742,-0.43186c0.52666,-0.29494 0.97958,-0.7373 1.35877,-1.32716c0.38621,-0.59687 0.69167,-1.00767 0.91638,-1.23237c0.22471,-0.23173 0.51963,-0.34759 0.88477,-0.34759zM490.27302,203.01658v-2.15928c0,-0.8918 0.03512,-1.49569 0.10534,-1.81169c0.07725,-0.32301 0.27035,-0.60741 0.57932,-0.85317c0.31599,-0.25279 0.68464,-0.3792 1.10597,-0.3792c0.38621,0 0.7338,0.11587 1.04278,0.34759c0.30897,0.22471 0.51261,0.49857 0.61092,0.82158c0.09831,0.32301 0.14746,0.84967 0.14746,1.57996v2.4542h0.69519c0.87776,0 1.46058,0.10885 1.74848,0.32653c0.29492,0.21066 0.44239,0.52314 0.44239,0.93743c0,0.88478 -0.7373,1.32717 -2.21194,1.32717h-0.67412v6.63582c0,0.8918 0.0632,1.50271 0.1896,1.83276c0.1264,0.32301 0.46696,0.48451 1.02171,0.48451c0.25982,0 0.55474,-0.0351 0.88477,-0.10532c0.33004,-0.07725 0.57581,-0.11587 0.73732,-0.11587c0.35812,0 0.64953,0.11938 0.87424,0.35813c0.22471,0.23173 0.33706,0.51612 0.33706,0.85318c0,1.17268 -1.24289,1.75902 -3.7287,1.75902c-1.20076,0 -2.08555,-0.22119 -2.65434,-0.66358c-0.56878,-0.44941 -0.91989,-0.99361 -1.05331,-1.63262c-0.13341,-0.64603 -0.20013,-1.48166 -0.20013,-2.50688v-6.89915h-0.47399c-1.06735,0 -1.60103,-0.43536 -1.60103,-1.30609c0,-0.85669 0.55825,-1.28504 1.67476,-1.28504zM501.60922,213.34951c0.53368,0 0.99363,0.19312 1.37984,0.57932c0.38621,0.3862 0.57931,0.84615 0.57931,1.37983c0,0.54773 -0.19311,1.0182 -0.57931,1.41144c-0.38621,0.39324 -0.84616,0.58986 -1.37984,0.58986c-0.55473,0 -1.02873,-0.19312 -1.42196,-0.57932c-0.38621,-0.39324 -0.57931,-0.86722 -0.57931,-1.42196c0,-0.53367 0.1931,-0.99362 0.57931,-1.37983c0.39324,-0.3862 0.86723,-0.57932 1.42196,-0.57932z" fill="#cdcdcd" stroke="none" stroke-width="1" stroke-linecap="square"/></g></g></svg>