<svg version="1.1" xmlns="http://www.w3.org/2000/svg" xmlns:xlink="http://www.w3.org/1999/xlink" width="47.9414" height="34.29689" viewBox="0,0,47.9414,34.29689"><g transform="translate(-216.0293,-162.85156)"><g data-paper-data="{&quot;isPaintingLayer&quot;:true}" fill="#ffffff" fill-rule="nonzero" stroke-linecap="square" stroke-linejoin="miter" stroke-miterlimit="10" stroke-dasharray="" stroke-dashoffset="0" style="mix-blend-mode: normal"><path d="M232.62303,168.85158v21.875c0,2.61458 -0.88021,3.92188 -2.64062,3.92188c-0.60417,0 -1.20312,-0.19792 -1.79687,-0.59375c-0.58333,-0.39583 -0.875,-1.42708 -0.875,-3.09375v-17.25c-3.35417,2.54167 -5.56771,3.8125 -6.64062,3.8125c-0.61458,0 -1.125,-0.20312 -1.53125,-0.60937c-0.40625,-0.41667 -0.60937,-0.94792 -0.60937,-1.59375c0,-0.46875 0.15104,-0.86979 0.45313,-1.20312c0.30208,-0.33333 0.94271,-0.72917 1.92188,-1.1875c3.26042,-1.60417 5.55208,-3.43229 6.875,-5.48437c0.54167,-0.84375 0.96354,-1.40104 1.26563,-1.67187c0.30208,-0.28125 0.71875,-0.42187 1.25,-0.42187c1.55208,0 2.32813,1.16667 2.32813,3.5zM256.08006,181.33594c-1.71875,2.04167 -3.86979,3.0625 -6.45312,3.0625c-2.51042,0 -4.57292,-0.90625 -6.1875,-2.71875c-1.61458,-1.82292 -2.42187,-4.01042 -2.42187,-6.5625c0,-2.72917 0.91146,-5.03646 2.73438,-6.92187c1.82292,-1.89583 4.21875,-2.84375 7.1875,-2.84375c3.30208,0 5.88021,1.21354 7.73438,3.64063c1.86458,2.41667 2.79687,5.80729 2.79687,10.17188c0,5.25 -1.00521,9.14583 -3.01562,11.6875c-2,2.53125 -4.63542,3.79688 -7.90625,3.79688c-2.69792,0 -4.76562,-0.6875 -6.20312,-2.0625c-1.4375,-1.38542 -2.15625,-2.76562 -2.15625,-4.14062c0,-0.52083 0.19792,-0.99479 0.59375,-1.42187c0.40625,-0.4375 0.91146,-0.65625 1.51563,-0.65625c1.08333,0 1.95313,0.65104 2.60938,1.95313c0.82292,1.65625 2.04688,2.48438 3.67188,2.48438c3.40625,0 5.23958,-3.15625 5.5,-9.46875zM255.62693,175.32033c0,-1.61458 -0.45312,-3.03646 -1.35937,-4.26562c-0.90625,-1.23958 -2.06771,-1.85937 -3.48437,-1.85937c-1.38542,0 -2.47396,0.55729 -3.26562,1.67188c-0.78125,1.10417 -1.17187,2.49479 -1.17187,4.17188c0,1.75 0.41667,3.13542 1.25,4.15625c0.84375,1.02083 1.91667,1.53125 3.21875,1.53125c1.21875,0 2.32292,-0.46875 3.3125,-1.40625c1,-0.94792 1.5,-2.28125 1.5,-4z" stroke="#000000" stroke-width="5"/><path d="M232.62303,168.85158v21.875c0,2.61458 -0.88021,3.92188 -2.64062,3.92188c-0.60417,0 -1.20312,-0.19792 -1.79687,-0.59375c-0.58333,-0.39583 -0.875,-1.42708 -0.875,-3.09375v-17.25c-3.35417,2.54167 -5.56771,3.8125 -6.64062,3.8125c-0.61458,0 -1.125,-0.20312 -1.53125,-0.60937c-0.40625,-0.41667 -0.60937,-0.94792 -0.60937,-1.59375c0,-0.46875 0.15104,-0.86979 0.45313,-1.20312c0.30208,-0.33333 0.94271,-0.72917 1.92188,-1.1875c3.26042,-1.60417 5.55208,-3.43229 6.875,-5.48437c0.54167,-0.84375 0.96354,-1.40104 1.26563,-1.67187c0.30208,-0.28125 0.71875,-0.42187 1.25,-0.42187c1.55208,0 2.32813,1.16667 2.32813,3.5zM256.08006,181.33594c-1.71875,2.04167 -3.86979,3.0625 -6.45312,3.0625c-2.51042,0 -4.57292,-0.90625 -6.1875,-2.71875c-1.61458,-1.82292 -2.42187,-4.01042 -2.42187,-6.5625c0,-2.72917 0.91146,-5.03646 2.73438,-6.92187c1.82292,-1.89583 4.21875,-2.84375 7.1875,-2.84375c3.30208,0 5.88021,1.21354 7.73438,3.64063c1.86458,2.41667 2.79687,5.80729 2.79687,10.17188c0,5.25 -1.00521,9.14583 -3.01562,11.6875c-2,2.53125 -4.63542,3.79688 -7.90625,3.79688c-2.69792,0 -4.76562,-0.6875 -6.20312,-2.0625c-1.4375,-1.38542 -2.15625,-2.76562 -2.15625,-4.14062c0,-0.52083 0.19792,-0.99479 0.59375,-1.42187c0.40625,-0.4375 0.91146,-0.65625 1.51563,-0.65625c1.08333,0 1.95313,0.65104 2.60938,1.95313c0.82292,1.65625 2.04688,2.48438 3.67188,2.48438c3.40625,0 5.23958,-3.15625 5.5,-9.46875zM255.62693,175.32033c0,-1.61458 -0.45312,-3.03646 -1.35937,-4.26562c-0.90625,-1.23958 -2.06771,-1.85937 -3.48437,-1.85937c-1.38542,0 -2.47396,0.55729 -3.26562,1.67188c-0.78125,1.10417 -1.17187,2.49479 -1.17187,4.17188c0,1.75 0.41667,3.13542 1.25,4.15625c0.84375,1.02083 1.91667,1.53125 3.21875,1.53125c1.21875,0 2.32292,-0.46875 3.3125,-1.40625c1,-0.94792 1.5,-2.28125 1.5,-4z" stroke="none" stroke-width="0"/></g></g></svg>