<svg version="1.1" xmlns="http://www.w3.org/2000/svg" xmlns:xlink="http://www.w3.org/1999/xlink" width="493.50453" height="422.56463" viewBox="0,0,493.50453,422.56463"><g transform="translate(6.75195,44.18445)"><g data-paper-data="{&quot;isPaintingLayer&quot;:true}" fill-rule="nonzero" stroke-linecap="butt" stroke-linejoin="miter" stroke-miterlimit="10" stroke-dasharray="" stroke-dashoffset="0" style="mix-blend-mode: normal"><path d="M486.75236,170.14452c0.00014,0.09256 0.00022,0.18512 0.00022,0.2777c0,114.85201 -110.47474,207.95796 -246.75225,207.95796c-136.2775,0 -246.75225,-93.10595 -246.75225,-207.95796c0,-114.85201 110.47475,-207.95796 246.75225,-207.95796c125.2106,0 228.63907,78.59795 244.6119,180.44548" fill="none" stroke="none" stroke-width="0"/><path d="M486.72591,170.23484c-1.9588,115.24167 -111.67141,208.14534 -246.72561,208.14534c-136.2775,0 -246.75225,-94.59431 -246.75225,-211.28231v-0.00001c0,-116.688 110.47475,-211.28231 246.75225,-211.28231c126.91774,0 231.45535,82.04672 245.21631,187.57545" fill="none" stroke="none" stroke-width="0"/><path d="M477.49321,201.12004c-19.06565,98.43364 -119.48121,173.51403 -240.49285,173.51403c-134.62065,0 -243.75225,-92.91711 -243.75225,-207.53617v-0.00001c0,-114.61906 109.1316,-207.53617 243.75225,-207.53617c124.22791,0 226.75038,79.12445 241.83951,181.41113" fill="none" stroke="none" stroke-width="0"/><path d="M105.16011,101.02951c0.80452,-7.26322 13.91586,-26.53232 20.47311,-27.80591c8.22505,-1.59752 33.79876,-0.98431 33.79876,-0.98431v160.14257c0,0 -37.29848,12.16856 -49.13736,-23.25473c-11.83888,-35.42328 -6.84644,-92.64217 -5.13451,-108.09762z" fill="#55606c" stroke="none" stroke-width="0"/><path d="M153.6824,194.92138c-1.29557,-37.45593 -2.18976,-59.6376 3.82278,-97.20593c6.01254,-37.56833 25.26336,-64.05153 25.26336,-64.05153c0,0 15.50689,-12.69432 33.92797,-12.69432c13.89376,0 29.0474,-1.18284 55.15115,1.39809c24.08114,2.38094 49.78668,33.38487 49.78668,33.38487c0,0 47.80199,39.60328 40.64743,60.01308c-3.58511,10.22724 -19.76397,27.01955 -19.76397,27.01955c0,0 -2.40671,33.52835 -3.79635,68.92758c-0.46841,11.93205 -9.05866,35.65369 -26.40867,45.20703c-1.87191,1.03072 -16.54257,0.32011 -18.37807,7.21312c-2.49253,9.36046 12.18882,32.01675 3.69384,36.30414c-25.01713,12.62606 -19.29061,22.04395 -32.00729,31.36381c-19.90625,14.58898 -52.61001,-3.91526 -52.61001,-3.91526l-23.31565,-26.1047c0,0 13.52651,-29.90918 -6.10504,-47.50634c-12.7949,-11.46899 -29.3943,-44.49706 -29.90816,-59.35318z" fill="#55606c" stroke="none" stroke-width="0"/><path d="M286.38874,264.75122c18.87986,9.28349 21.3812,43.15882 -11.78657,45.14993" data-paper-data="{&quot;index&quot;:null}" fill="none" stroke="#1d2024" stroke-width="16"/><path d="M211.3349,317.33448c-31.03293,-3.53375 -25.98543,-41.47435 -19.33593,-55.01889" data-paper-data="{&quot;index&quot;:null}" fill="none" stroke="#1d2024" stroke-width="16"/><path d="M185.35997,28.51867c0,0 63.1772,-8.75585 84.8093,-7.45024c21.0492,1.27043 53.70547,20.52156 53.70547,20.52156l8.89916,96.05896c0,0 11.99996,55.06442 -15.04336,81.63296c-27.04332,26.56854 -72.3897,21.75596 -98.63852,14.14021c-55.94872,-16.23279 -43.50613,-116.33585 -43.50613,-135.70126c0,-19.36541 9.77408,-69.20219 9.77408,-69.20219z" fill="#758594" stroke="none" stroke-width="0"/><path d="M108.87617,115.49401l5.21828,-37.73252h41.7462l-0.30457,29.45328c0,0 -16.2689,-5.78942 -25.59801,-4.09782c-9.32912,1.69159 -21.0619,12.37706 -21.0619,12.37706z" fill="#758594" stroke="none" stroke-width="0"/><path d="M159.43186,232.38191c0,0 -37.31476,6.38494 -44.13735,-14.02899c-6.82259,-20.41394 -12.84645,-46.51343 -12.13452,-65.65918c0.57736,-15.5268 -5.08414,-74.5062 22.47311,-79.47008c6.56679,-1.23107 33.79876,-0.98431 33.79876,-0.98431" fill="none" stroke="#1d2024" stroke-width="16"/><path d="M153.6824,194.92138c-1.29557,-37.45593 -2.18976,-59.6376 3.82278,-97.20593c8.15677,-50.96618 21.34897,-80.46421 77.19133,-80.43615c80.02951,0.04022 88.6357,22.22529 96.93783,43.08613c10.82684,27.20469 10.88346,82.41976 10.88346,82.41976c0,0 -1.40671,27.9929 -2.79635,63.39214c-1.38964,35.39923 -13.3326,46.33026 -37.7102,53.7857c-32.62561,9.97792 -21.32296,4.96297 -33.31565,4.05015c-4.93074,-3.64766 21.55129,68.73875 -6.63367,71.74892c-20.83046,2.22471 -23.79959,3.40536 -42.46441,0.12953c-14.13087,-2.48009 -11.24261,-26.60494 -10.03695,-46.36341c0.84681,-13.87757 -0.65649,-25.60116 -2.91083,-26.15836c-11.46274,-2.83326 -16.20958,-2.24846 -28.63267,-13.76637c-9.1722,-8.50389 -23.76966,-38.34716 -24.33467,-54.68211z" fill="none" stroke="#1d2024" stroke-width="16"/><path d="M309.66301,61.27466c34.9912,12.3573 59.77318,34.08112 52.61863,54.49092c-3.58511,10.22724 -19.76397,27.01955 -19.76397,27.01955c0,0 -63.93902,21.36863 -95.57769,3.24822c-17.66536,-10.11748 -42.14706,-45.93745 -26.37385,-66.6423c17.06702,-22.4032 70.91203,-24.53846 89.0969,-18.11638z" fill="#4a646d" stroke="none" stroke-width="0"/><path d="M241.83606,82.92113c5.97118,-18.35553 26.03837,-23.46501 45.49052,-23.46501c19.25264,0 38.63001,8.70382 38.63001,8.70382c0,0 33.59001,19.36466 21.5135,44.50447c-8.64009,17.9862 -60.85434,16.70413 -80.49454,9.35117c-19.6402,-7.35296 -31.11067,-20.73891 -25.13949,-39.09445z" fill="#94c9db" stroke="none" stroke-width="0"/><path d="M323.26752,72.10084c26.17019,5.79508 18.38326,31.17942 2.53497,25.62006c-18.94713,-6.64639 -34.0349,-4.95172 -36.4473,-16.21605c-3.38666,-15.81345 15.27171,-13.53175 33.91233,-9.40401z" fill="#fefefe" stroke="none" stroke-width="0"/><path d="M343.51794,143.70772c-25.09967,9.70495 -74.87795,17.71172 -107.57769,-0.44208c-18.96117,-10.52661 -26.14706,-44.0923 -10.37385,-64.79715c15.77321,-20.70485 51.80846,-19.66767 85.0969,-17.19381c52.9583,3.93564 68.36079,68.70436 32.85464,82.43304z" fill="none" stroke="#1d2433" stroke-width="16"/></g></g></svg>