<svg version="1.1" xmlns="http://www.w3.org/2000/svg" xmlns:xlink="http://www.w3.org/1999/xlink" width="144.14414" height="60.93899" viewBox="0,0,144.14414,60.93899"><g transform="translate(-167.92793,-149.5305)"><g data-paper-data="{&quot;isPaintingLayer&quot;:true}" fill-rule="nonzero" stroke-linejoin="miter" stroke-miterlimit="10" stroke-dasharray="" stroke-dashoffset="0" style="mix-blend-mode: normal"><path d="M207.50888,174.74164l-2.17737,7.99096c-0.21774,0.8274 -0.44636,1.41892 -0.68587,1.77456c-0.23226,0.35564 -0.64233,0.53346 -1.23022,0.53346c-0.58789,0 -0.99434,-0.17419 -1.21933,-0.52257c-0.225,-0.35564 -0.44637,-0.97619 -0.6641,-1.86166l-2.21004,-8.94901c-0.13064,-0.40644 -0.19597,-0.81652 -0.19597,-1.23022c0,-0.30483 0.11975,-0.577 0.35926,-0.81651c0.23951,-0.24677 0.53346,-0.37016 0.88184,-0.37016c0.46451,0 0.78023,0.1379 0.94716,0.4137c0.16693,0.2758 0.33023,0.75119 0.48991,1.42618l1.75278,7.76234l1.94875,-7.26154c0.26129,-1.00159 0.53708,-1.64029 0.8274,-1.91609c0.29032,-0.28306 0.68224,-0.42459 1.17578,-0.42459c0.47902,0 0.86006,0.1379 1.14312,0.4137c0.28306,0.26854 0.56249,0.91087 0.83829,1.92698l1.94875,7.26154l1.76367,-7.76234c0.14516,-0.74757 0.31572,-1.24111 0.51168,-1.48062c0.20322,-0.23951 0.50442,-0.35926 0.90361,-0.35926c0.36289,0 0.66047,0.12339 0.89272,0.37016c0.23951,0.23951 0.35927,0.51894 0.35927,0.83829c0,0.25403 -0.06532,0.65684 -0.19597,1.20844l-2.21003,8.94901c-0.21774,0.87821 -0.43911,1.49513 -0.6641,1.85077c-0.225,0.35564 -0.63144,0.53346 -1.21933,0.53346c-0.4137,0 -0.76934,-0.12338 -1.06691,-0.37015c-0.29032,-0.24677 -0.577,-0.89273 -0.86007,-1.93787l-2.14471,-7.99096zM223.934,180.60967h-4.85555c0.02178,0.92175 0.27218,1.61852 0.7512,2.09028c0.47902,0.46451 1.05603,0.69676 1.73101,0.69676c0.8274,0 1.60762,-0.3629 2.34068,-1.08869c0.29757,-0.30483 0.51531,-0.49354 0.65321,-0.56611c0.14516,-0.07258 0.30483,-0.10887 0.47902,-0.10887c0.225,0 0.41733,0.07258 0.57701,0.21774c0.15967,0.1379 0.23951,0.30847 0.23951,0.51168c0,0.55886 -0.38104,1.14675 -1.14312,1.76367c-0.76208,0.60967 -1.79271,0.9145 -3.09187,0.9145c-1.6548,0 -2.91042,-0.46813 -3.76686,-1.4044c-0.85643,-0.93627 -1.28465,-2.14472 -1.28465,-3.62533c0,-1.50239 0.42822,-2.71809 1.28465,-3.6471c0.85644,-0.92901 2.04674,-1.39352 3.5709,-1.39352c1.45159,0 2.57293,0.4391 3.36405,1.31731c0.79837,0.87821 1.19755,1.82899 1.19755,2.85236c0,0.45725 -0.13427,0.81652 -0.40281,1.0778c-0.26129,0.26128 -0.80926,0.39193 -1.64391,0.39193zM219.07845,179.20526h4.50717c-0.02903,-0.82014 -0.25766,-1.44433 -0.68588,-1.87254c-0.42096,-0.43547 -0.94353,-0.65321 -1.56771,-0.65321c-1.31369,0 -2.06488,0.84192 -2.25359,2.52576zM234.31757,183.6471c-1.17578,0.92901 -2.32979,1.39352 -3.46203,1.39352c-1.06691,0 -1.89068,-0.27217 -2.47132,-0.81652c-0.57337,-0.54434 -0.86006,-1.20844 -0.86006,-1.99229c0,-0.67498 0.19597,-1.21934 0.5879,-1.63304c0.39192,-0.4137 0.81652,-0.70039 1.27376,-0.86006c0.45725,-0.16693 1.20481,-0.35564 2.24269,-0.56612c1.03788,-0.21774 1.87617,-0.41732 2.51487,-0.59877c-0.00726,-0.74757 -0.15605,-1.25199 -0.44637,-1.51327c-0.29032,-0.26854 -0.73305,-0.40282 -1.32819,-0.40282c-1.12498,0 -1.85802,0.31572 -2.19914,0.94716c-0.19597,0.35564 -0.37016,0.60967 -0.52257,0.76208c-0.15241,0.15241 -0.37015,0.22862 -0.65321,0.22862c-0.26128,0 -0.49716,-0.0871 -0.70765,-0.26129c-0.21048,-0.17419 -0.31572,-0.39555 -0.31572,-0.66409c0,-0.64595 0.34838,-1.25562 1.04514,-1.829c0.69676,-0.58064 1.78908,-0.87095 3.27695,-0.87095c1.51691,0 2.62373,0.26128 3.32049,0.78385c0.70402,0.52257 1.03425,1.5786 0.9907,3.16808l-0.05443,2.32979c-0.02178,0.71854 0.0508,1.30643 0.21773,1.76368c0.17419,0.44999 0.26129,0.79474 0.26129,1.03425c0,0.26128 -0.11613,0.49354 -0.34838,0.69676c-0.22499,0.19597 -0.48265,0.29395 -0.77297,0.29395c-0.50079,0 -1.03062,-0.46451 -1.58948,-1.39352zM234.15427,180.06532c-0.37015,0.1379 -0.97981,0.29394 -1.82899,0.46813c-0.84918,0.16693 -1.45159,0.35927 -1.80723,0.57701c-0.34838,0.21774 -0.52257,0.53708 -0.52257,0.95804c0,0.35564 0.13791,0.67136 0.41371,0.94716c0.28306,0.26854 0.68224,0.40281 1.19755,0.40281c0.54435,0 1.04877,-0.14879 1.51328,-0.44636c0.47177,-0.30483 0.76207,-0.66047 0.87095,-1.06691c0.10887,-0.4137 0.1633,-1.02699 0.1633,-1.83988zM241.07038,176.62507c0.87095,-1.10321 1.94512,-1.65481 3.22251,-1.65481c1.27014,0 2.27899,0.47902 3.02655,1.43706c0.74757,0.95078 1.12135,2.18827 1.12135,3.71243c0,1.43706 -0.36652,2.61648 -1.09957,3.53823c-0.73305,0.92175 -1.7419,1.38263 -3.02655,1.38263c-1.23385,0 -2.31527,-0.51531 -3.24429,-1.54594v3.2334c0,0.88547 -0.1125,1.43707 -0.33749,1.6548c-0.21774,0.21774 -0.51531,0.32661 -0.89272,0.32661c-0.44999,0 -0.76934,-0.14879 -0.95804,-0.44637c-0.1887,-0.29757 -0.28306,-0.83466 -0.28306,-1.61125v-9.76552c0,-0.50806 0.02177,-0.88184 0.06532,-1.12135c0.05081,-0.23951 0.18508,-0.43184 0.40282,-0.577c0.21774,-0.14516 0.47539,-0.21774 0.77297,-0.21774c0.82014,0 1.23021,0.46451 1.23021,1.39352zM245.93681,180.06532c0,-1.08868 -0.22862,-1.89432 -0.68587,-2.41689c-0.45725,-0.52983 -0.9907,-0.79475 -1.60037,-0.79475c-0.70402,0 -1.28828,0.26855 -1.75279,0.80563c-0.45725,0.52983 -0.68588,1.27376 -0.68588,2.23181c0,0.99434 0.22137,1.78545 0.6641,2.37334c0.44273,0.58789 1.04151,0.88183 1.79633,0.88183c0.66047,0 1.20119,-0.27217 1.62214,-0.81652c0.42822,-0.5516 0.64232,-1.30642 0.64232,-2.26447zM254.79057,174.97027c1.53142,0 2.73623,0.47539 3.61444,1.42618c0.88547,0.94353 1.3282,2.14834 1.3282,3.61444c0,1.4661 -0.44636,2.67092 -1.33909,3.61445c-0.89272,0.94353 -2.07214,1.41529 -3.53824,1.41529c-1.59674,0 -2.83059,-0.4754 -3.70154,-1.42618c-0.86369,-0.95804 -1.29554,-2.15923 -1.29554,-3.60355c0,-1.47335 0.4391,-2.6818 1.31731,-3.62533c0.87821,-0.94353 2.08303,-1.41529 3.61445,-1.41529zM254.79057,183.20074c0.74757,0 1.33908,-0.28306 1.77456,-0.84918c0.44273,-0.56611 0.6641,-1.34635 0.6641,-2.34068c0,-1.00885 -0.22137,-1.79633 -0.6641,-2.36245c-0.43547,-0.56611 -1.02699,-0.84918 -1.77456,-0.84918c-0.74031,0 -1.33183,0.28669 -1.77456,0.86006c-0.43547,0.56611 -0.65321,1.34998 -0.65321,2.35156c0,1.00159 0.21774,1.78545 0.65321,2.35157c0.43547,0.55886 1.02699,0.83829 1.77456,0.83829zM270.41792,178.9222v4.07169c0,0.52257 -0.02178,0.90361 -0.06532,1.14312c-0.04354,0.23951 -0.17419,0.44999 -0.39193,0.63144c-0.21773,0.18145 -0.47539,0.27217 -0.77296,0.27217c-0.26128,0 -0.50805,-0.07984 -0.74031,-0.23951c-0.23226,-0.15967 -0.37741,-0.36652 -0.43547,-0.62055c-0.05081,-0.26128 -0.07621,-0.65684 -0.07621,-1.18667v-3.5709c0,-0.98708 -0.14879,-1.65118 -0.44637,-1.9923c-0.29031,-0.34838 -0.69676,-0.52257 -1.21933,-0.52257c-0.47177,0 -0.88546,0.1379 -1.2411,0.4137c-0.35564,0.26854 -0.60603,0.60603 -0.75119,1.01247c-0.14516,0.40644 -0.21774,1.10684 -0.21774,2.10117v2.55841c0,0.51531 -0.02177,0.89272 -0.06532,1.13223c-0.03629,0.23226 -0.16694,0.44273 -0.39193,0.63144c-0.225,0.1887 -0.48265,0.28306 -0.77296,0.28306c-0.26855,0 -0.51894,-0.08346 -0.75119,-0.25039c-0.23226,-0.16693 -0.37378,-0.37378 -0.42459,-0.62055c-0.04354,-0.24677 -0.06532,-0.6387 -0.06532,-1.17578v-6.10754c0,-0.5516 0.0254,-0.93627 0.07621,-1.15401c0.05081,-0.21774 0.18145,-0.39918 0.39193,-0.54434c0.21048,-0.14516 0.44637,-0.21774 0.70765,-0.21774c0.23951,0 0.48991,0.09798 0.75119,0.29395c0.26128,0.1887 0.39193,0.64596 0.39193,1.37175c0.8274,-1.11046 1.89432,-1.66569 3.20074,-1.66569c0.49354,0 0.97982,0.09435 1.45884,0.28305c0.48628,0.1887 0.88184,0.49354 1.18667,0.9145c0.30483,0.42096 0.48991,0.85644 0.55523,1.30643c0.07258,0.44999 0.10887,0.93264 0.10887,1.44795zM274.77735,177.55045c0,0.31935 0.16693,0.56974 0.5008,0.75119c0.33387,0.18145 1.0778,0.4137 2.23181,0.69676c2.2427,0.54434 3.36405,1.47699 3.36405,2.79793c0,1.0524 -0.38104,1.85802 -1.14313,2.41689c-0.75482,0.5516 -1.81085,0.8274 -3.16808,0.8274c-1.37901,0 -2.41688,-0.28306 -3.11365,-0.84918c-0.69676,-0.57337 -1.04514,-1.17578 -1.04514,-1.80722c0,-0.2758 0.09436,-0.50806 0.28306,-0.69676c0.19597,-0.19597 0.43547,-0.29394 0.71853,-0.29394c0.38467,0 0.72217,0.24314 1.01248,0.72942c0.3266,0.52983 0.68588,0.88183 1.0778,1.05603c0.39918,0.16693 0.82014,0.2504 1.26288,0.2504c0.50079,0 0.90361,-0.10887 1.20844,-0.32661c0.31209,-0.21774 0.46814,-0.49717 0.46814,-0.83829c0,-0.31209 -0.13064,-0.58064 -0.39193,-0.80563c-0.26128,-0.225 -0.97982,-0.47177 -2.1556,-0.74031c-1.17578,-0.26854 -2.03222,-0.64596 -2.56931,-1.13224c-0.53708,-0.48628 -0.80562,-1.06691 -0.80562,-1.74189c0,-0.75483 0.3266,-1.42255 0.97982,-2.00319c0.65321,-0.58064 1.63666,-0.87095 2.95034,-0.87095c1.20482,0 2.16287,0.24677 2.87414,0.74031c0.71853,0.48628 1.0778,0.99433 1.0778,1.52416c0,0.2758 -0.09072,0.50806 -0.27217,0.69676c-0.18145,0.1887 -0.43548,0.28305 -0.76208,0.28305c-0.47177,0 -0.89998,-0.27217 -1.28465,-0.81651c-0.38468,-0.5516 -0.96531,-0.8274 -1.74191,-0.8274c-0.4137,0 -0.77659,0.08346 -1.08868,0.25039c-0.31209,0.16693 -0.46814,0.41007 -0.46814,0.72942z" fill="#ffffff" stroke="#000000" stroke-width="3.5" stroke-linecap="square"/><path d="M207.50888,174.74164l-2.17737,7.99097c-0.21774,0.8274 -0.44636,1.41892 -0.68587,1.77456c-0.23225,0.35564 -0.64233,0.53346 -1.23022,0.53346c-0.58789,0 -0.99433,-0.17419 -1.21933,-0.52257c-0.225,-0.35564 -0.44636,-0.97619 -0.6641,-1.86166l-2.21003,-8.94901c-0.13064,-0.40644 -0.19596,-0.81652 -0.19596,-1.23022c0,-0.30483 0.11976,-0.577 0.35927,-0.81652c0.23951,-0.24677 0.53346,-0.37015 0.88184,-0.37015c0.46451,0 0.78023,0.1379 0.94716,0.4137c0.16693,0.2758 0.33024,0.75119 0.48991,1.42618l1.75279,7.76234l1.94875,-7.26154c0.26128,-1.00159 0.53709,-1.64029 0.8274,-1.91609c0.29032,-0.28306 0.68224,-0.42459 1.17578,-0.42459c0.47902,0 0.86006,0.1379 1.14312,0.4137c0.28306,0.26854 0.56249,0.91087 0.83829,1.92698l1.94875,7.26154l1.76367,-7.76234c0.14516,-0.74757 0.31572,-1.2411 0.51168,-1.48061c0.20322,-0.23951 0.50443,-0.35927 0.90361,-0.35927c0.3629,0 0.66047,0.12338 0.89272,0.37015c0.23951,0.23951 0.35927,0.51894 0.35927,0.83829c0,0.25403 -0.06532,0.65684 -0.19596,1.20844l-2.21004,8.94901c-0.21774,0.87821 -0.4391,1.49513 -0.6641,1.85077c-0.225,0.35564 -0.63144,0.53346 -1.21933,0.53346c-0.4137,0 -0.76934,-0.12338 -1.06691,-0.37015c-0.29032,-0.24677 -0.577,-0.89272 -0.86006,-1.93786l-2.14471,-7.99097zM223.93399,180.60967h-4.85555c0.02177,0.92176 0.27217,1.61852 0.75119,2.09028c0.47902,0.46451 1.05603,0.69676 1.73101,0.69676c0.8274,0 1.60763,-0.3629 2.34068,-1.08869c0.29757,-0.30483 0.51531,-0.49354 0.65321,-0.56612c0.14516,-0.07258 0.30483,-0.10887 0.47902,-0.10887c0.225,0 0.41733,0.07258 0.577,0.21774c0.15967,0.1379 0.23951,0.30846 0.23951,0.51168c0,0.55886 -0.38104,1.14675 -1.14312,1.76367c-0.76208,0.60966 -1.79271,0.9145 -3.09187,0.9145c-1.6548,0 -2.91042,-0.46814 -3.76686,-1.40441c-0.85643,-0.93627 -1.28465,-2.14471 -1.28465,-3.62533c0,-1.50239 0.42822,-2.71809 1.28465,-3.6471c0.85643,-0.92901 2.04673,-1.39352 3.57089,-1.39352c1.45158,0 2.57293,0.4391 3.36404,1.31731c0.79837,0.87821 1.19756,1.82899 1.19756,2.85236c0,0.45725 -0.13427,0.81652 -0.40281,1.0778c-0.26128,0.26128 -0.80926,0.39193 -1.64392,0.39193zM219.07845,179.20526h4.50717c-0.02903,-0.82014 -0.25766,-1.44433 -0.68587,-1.87254c-0.42096,-0.43547 -0.94353,-0.65321 -1.56771,-0.65321c-1.31368,0 -2.06488,0.84192 -2.25358,2.52575zM234.31757,183.64711c-1.17578,0.92901 -2.32979,1.39352 -3.46202,1.39352c-1.06691,0 -1.89069,-0.27217 -2.47132,-0.81652c-0.57338,-0.54434 -0.86006,-1.20844 -0.86006,-1.9923c0,-0.67499 0.19596,-1.21933 0.58789,-1.63303c0.39193,-0.4137 0.81652,-0.70039 1.27376,-0.86006c0.45725,-0.16693 1.20481,-0.35564 2.2427,-0.56612c1.03788,-0.21774 1.87617,-0.41733 2.51487,-0.59878c-0.00726,-0.74757 -0.15605,-1.25199 -0.44636,-1.51328c-0.29032,-0.26854 -0.73305,-0.40281 -1.3282,-0.40281c-1.12498,0 -1.85803,0.31572 -2.19915,0.94716c-0.19596,0.35564 -0.37015,0.60966 -0.52257,0.76208c-0.15242,0.15242 -0.37015,0.22862 -0.65321,0.22862c-0.26128,0 -0.49717,-0.08709 -0.70765,-0.26128c-0.21048,-0.17419 -0.31572,-0.39556 -0.31572,-0.6641c0,-0.64595 0.34838,-1.25562 1.04514,-1.82899c0.69676,-0.58063 1.78908,-0.87095 3.27695,-0.87095c1.5169,0 2.62373,0.26128 3.32049,0.78385c0.70402,0.52257 1.03425,1.5786 0.99071,3.16808l-0.05443,2.32979c-0.02177,0.71853 0.05081,1.30642 0.21774,1.76367c0.17419,0.44999 0.26128,0.79474 0.26128,1.03425c0,0.26128 -0.11613,0.49354 -0.34838,0.69676c-0.225,0.19596 -0.48265,0.29395 -0.77297,0.29395c-0.5008,0 -1.03062,-0.46451 -1.58948,-1.39352zM234.15427,180.06532c-0.37015,0.1379 -0.97982,0.29395 -1.82899,0.46814c-0.84918,0.16693 -1.45158,0.35927 -1.80722,0.577c-0.34838,0.21774 -0.52257,0.53709 -0.52257,0.95804c0,0.35564 0.1379,0.67136 0.4137,0.94716c0.28306,0.26854 0.68224,0.40281 1.19756,0.40281c0.54434,0 1.04877,-0.14879 1.51327,-0.44636c0.47176,-0.30483 0.76208,-0.66047 0.87095,-1.06691c0.10887,-0.4137 0.1633,-1.027 0.1633,-1.83988zM241.07038,176.62507c0.87095,-1.1032 1.94512,-1.6548 3.22251,-1.6548c1.27014,0 2.27899,0.47902 3.02655,1.43707c0.74757,0.95079 1.12135,2.18826 1.12135,3.71242c0,1.43707 -0.36652,2.61648 -1.09957,3.53823c-0.73305,0.92176 -1.7419,1.38263 -3.02655,1.38263c-1.23385,0 -2.31528,-0.51531 -3.24429,-1.54594v3.2334c0,0.88547 -0.1125,1.43707 -0.33749,1.6548c-0.21774,0.21774 -0.51531,0.32661 -0.89272,0.32661c-0.44999,0 -0.76934,-0.14879 -0.95804,-0.44636c-0.18871,-0.29757 -0.28306,-0.83466 -0.28306,-1.61126v-9.76553c0,-0.50805 0.02177,-0.88184 0.06532,-1.12135c0.05081,-0.23951 0.18508,-0.43185 0.40281,-0.577c0.21774,-0.14516 0.47539,-0.21774 0.77297,-0.21774c0.82014,0 1.23022,0.46451 1.23022,1.39352zM245.93681,180.06532c0,-1.08869 -0.22862,-1.89432 -0.68587,-2.41689c-0.45725,-0.52983 -0.99071,-0.79474 -1.60037,-0.79474c-0.70402,0 -1.28828,0.26854 -1.75279,0.80563c-0.45725,0.52983 -0.68587,1.27376 -0.68587,2.23181c0,0.99433 0.22137,1.78545 0.6641,2.37334c0.44273,0.58789 1.04151,0.88184 1.79633,0.88184c0.66047,0 1.20119,-0.27217 1.62214,-0.81652c0.42822,-0.5516 0.64233,-1.30642 0.64233,-2.26447zM254.79056,174.97027c1.53142,0 2.73623,0.47539 3.61444,1.42618c0.88547,0.94353 1.3282,2.14834 1.3282,3.61444c0,1.4661 -0.44636,2.67091 -1.33909,3.61444c-0.89272,0.94353 -2.07213,1.41529 -3.53823,1.41529c-1.59674,0 -2.83059,-0.47539 -3.70154,-1.42618c-0.86369,-0.95804 -1.29554,-2.15923 -1.29554,-3.60356c0,-1.47336 0.4391,-2.6818 1.31731,-3.62533c0.87821,-0.94353 2.08302,-1.41529 3.61444,-1.41529zM254.79056,183.20074c0.74757,0 1.33909,-0.28306 1.77456,-0.84918c0.44273,-0.56612 0.6641,-1.34634 0.6641,-2.34068c0,-1.00885 -0.22137,-1.79633 -0.6641,-2.36245c-0.43547,-0.56612 -1.027,-0.84918 -1.77456,-0.84918c-0.74031,0 -1.33183,0.28669 -1.77456,0.86006c-0.43547,0.56612 -0.65321,1.34997 -0.65321,2.35156c0,1.00159 0.21774,1.78545 0.65321,2.35156c0.43547,0.55886 1.027,0.83829 1.77456,0.83829zM270.41791,178.9222v4.07169c0,0.52257 -0.02177,0.90361 -0.06532,1.14312c-0.04355,0.23951 -0.17419,0.44999 -0.39193,0.63144c-0.21774,0.18145 -0.47539,0.27217 -0.77297,0.27217c-0.26128,0 -0.50805,-0.07984 -0.74031,-0.23951c-0.23225,-0.15967 -0.37741,-0.36652 -0.43547,-0.62055c-0.05081,-0.26128 -0.07621,-0.65684 -0.07621,-1.18667v-3.57089c0,-0.98708 -0.14879,-1.65118 -0.44636,-1.9923c-0.29032,-0.34838 -0.69676,-0.52257 -1.21933,-0.52257c-0.47176,0 -0.88547,0.1379 -1.2411,0.4137c-0.35564,0.26854 -0.60604,0.60604 -0.75119,1.01248c-0.14516,0.40644 -0.21774,1.10683 -0.21774,2.10117v2.55842c0,0.51531 -0.02177,0.89272 -0.06532,1.13223c-0.03629,0.23225 -0.16693,0.44273 -0.39193,0.63144c-0.225,0.18871 -0.48265,0.28306 -0.77297,0.28306c-0.26854,0 -0.51894,-0.08347 -0.75119,-0.2504c-0.23225,-0.16693 -0.37378,-0.37378 -0.42459,-0.62055c-0.04355,-0.24677 -0.06532,-0.6387 -0.06532,-1.17578v-6.10754c0,-0.5516 0.0254,-0.93627 0.07621,-1.15401c0.05081,-0.21774 0.18145,-0.39919 0.39193,-0.54434c0.21048,-0.14516 0.44636,-0.21774 0.70765,-0.21774c0.23951,0 0.48991,0.09798 0.75119,0.29395c0.26128,0.18871 0.39193,0.64595 0.39193,1.37175c0.8274,-1.11046 1.89432,-1.66569 3.20074,-1.66569c0.49354,0 0.97982,0.09435 1.45884,0.28306c0.48628,0.18871 0.88184,0.49354 1.18667,0.9145c0.30483,0.42096 0.48991,0.85643 0.55523,1.30642c0.07258,0.44999 0.10887,0.93264 0.10887,1.44795zM274.77735,177.55046c0,0.31935 0.16693,0.56975 0.5008,0.75119c0.33386,0.18145 1.0778,0.4137 2.23181,0.69676c2.2427,0.54434 3.36405,1.47699 3.36405,2.79793c0,1.0524 -0.38104,1.85803 -1.14312,2.41689c-0.75482,0.5516 -1.81085,0.8274 -3.16809,0.8274c-1.379,0 -2.41689,-0.28306 -3.11365,-0.84918c-0.69676,-0.57338 -1.04514,-1.17578 -1.04514,-1.80722c0,-0.2758 0.09435,-0.50805 0.28306,-0.69676c0.19596,-0.19596 0.43547,-0.29395 0.71853,-0.29395c0.38467,0 0.72216,0.24314 1.01248,0.72942c0.32661,0.52983 0.68587,0.88184 1.0778,1.05603c0.39919,0.16693 0.82014,0.2504 1.26288,0.2504c0.5008,0 0.90361,-0.10887 1.20845,-0.32661c0.31209,-0.21774 0.46814,-0.49717 0.46814,-0.83829c0,-0.31209 -0.13064,-0.58063 -0.39193,-0.80563c-0.26128,-0.225 -0.97982,-0.47176 -2.15561,-0.74031c-1.17578,-0.26854 -2.03222,-0.64595 -2.5693,-1.13223c-0.53709,-0.48628 -0.80563,-1.06691 -0.80563,-1.7419c0,-0.75482 0.32661,-1.42255 0.97982,-2.00318c0.65321,-0.58063 1.63666,-0.87095 2.95034,-0.87095c1.20482,0 2.16286,0.24677 2.87414,0.74031c0.71853,0.48628 1.0778,0.99433 1.0778,1.52416c0,0.2758 -0.09072,0.50805 -0.27217,0.69676c-0.18145,0.18871 -0.43547,0.28306 -0.76208,0.28306c-0.47176,0 -0.89998,-0.27217 -1.28465,-0.81652c-0.38467,-0.5516 -0.96531,-0.8274 -1.74191,-0.8274c-0.4137,0 -0.7766,0.08347 -1.08869,0.2504c-0.31209,0.16693 -0.46814,0.41007 -0.46814,0.72942z" fill="#ffffff" stroke="none" stroke-width="1" stroke-linecap="square"/><path d="M167.92793,210.4695v-60.93899h144.14414v60.93899z" fill="none" stroke="none" stroke-width="none" stroke-linecap="butt"/></g></g></svg>