<svg version="1.1" xmlns="http://www.w3.org/2000/svg" xmlns:xlink="http://www.w3.org/1999/xlink" width="285" height="212" viewBox="0,0,285,212"><defs><linearGradient x1="240" y1="180" x2="240" y2="180" gradientUnits="userSpaceOnUse" id="color-1"><stop offset="0" stop-color="#e7bc52"/><stop offset="1" stop-color="#efd85e"/></linearGradient><linearGradient x1="240" y1="180" x2="240" y2="180" gradientUnits="userSpaceOnUse" id="color-2"><stop offset="0" stop-color="#efd85e" stop-opacity="0"/><stop offset="1" stop-color="#efd85e" stop-opacity="0"/></linearGradient></defs><g transform="translate(-124.55469,183.07813)"><g data-paper-data="{&quot;isPaintingLayer&quot;:true}" fill-rule="nonzero" stroke-linejoin="miter" stroke-miterlimit="10" stroke-dasharray="" stroke-dashoffset="0" style="mix-blend-mode: normal"><g stroke="#000000" stroke-width="17.5" stroke-linecap="butt"><path d="M341.868,-54.13278c-12.51006,32.89191 -44.96328,56.38895 -83.14412,56.38895c-49.00022,0 -88.72388,-38.61953 -88.72388,-86.25931c0,-12.13546 2.60257,-23.66956 7.25564,-34.14883z" fill="#5c913b"/><path d="M332.72451,-57.6916c-11.05597,29.3676 -39.97009,50.3656 -74.00063,50.3656c-43.55356,0 -78.86567,-34.33122 -78.86567,-76.67715c0,-10.87852 2.36104,-21.20995 6.56557,-30.5851z" fill="#ffe8b6"/><path d="M323.57116,-61.2504c-9.59204,25.83837 -34.96704,44.3373 -64.84728,44.3373c-38.11183,0 -69.00747,-30.03303 -69.00747,-67.09004c0,-9.62161 2.11952,-18.7454 5.87057,-27.01643z" fill="#dd2e44"/><path d="M213.94789,-80.17324c-1.51324,2.26738 -3.65248,3.48981 -4.78617,2.73566c-1.13369,-0.75415 -0.82809,-3.199 0.68515,-5.46638c1.51324,-2.26738 3.65247,-3.48981 4.78616,-2.73565c1.13369,0.75415 0.82809,3.199 -0.68515,5.46638zM243.52251,-75.24414c-1.51324,2.26738 -3.65247,3.48981 -4.78616,2.73565c-1.13369,-0.75415 -0.8281,-3.199 0.68514,-5.46638c1.51324,-2.26738 3.65248,-3.4898 4.78617,-2.73565c1.13369,0.75415 0.82809,3.19899 -0.68515,5.46637zM268.57223,-52.18578c0.24645,2.71594 -0.65065,5.00797 -2.00122,5.1312c-1.35551,0.12323 -2.65186,-1.97163 -2.89831,-4.68757c-0.25139,-2.71594 0.65063,-5.00799 2.00121,-5.12629c1.35551,-0.12816 2.65187,1.96178 2.89833,4.68266zM224.21029,-62.044c0.24645,2.71594 -0.65065,5.00797 -2.00123,5.1312c-1.35551,0.12323 -2.65185,-1.97163 -2.8983,-4.68758c-0.24645,-2.71594 0.65063,-5.00797 2.0012,-5.12627c1.36043,-0.12816 2.65187,1.96177 2.89833,4.68264zM243.43872,-35.693c-1.64139,2.17374 -3.8447,3.26799 -4.92909,2.44976c-1.08934,-0.81822 -0.63586,-3.24335 1.01046,-5.41709c1.64139,-2.17374 3.84963,-3.26799 4.9291,-2.44976c1.08934,0.81822 0.64079,3.23842 -1.01047,5.41709zM283.049,-33.45518c1.34564,2.37091 1.4738,4.82559 0.29575,5.49595c-1.18791,0.67528 -3.2335,-0.70487 -4.57915,-3.07577c-1.34564,-2.36597 -1.47379,-4.82559 -0.29081,-5.49595c1.18791,-0.68021 3.22857,0.69502 4.57421,3.07578zM248.46148,-58.23872c1.49353,2.28218 1.78433,4.72209 0.64571,5.46637c-1.13862,0.74922 -3.26799,-0.49289 -4.76152,-2.77014c-1.49353,-2.27725 -1.7794,-4.72208 -0.64571,-5.46145c1.13862,-0.75909 3.26799,0.47812 4.76152,2.76523zM292.72977,-50.48032c-1.64139,2.17374 -3.8447,3.26799 -4.93403,2.44976c-1.08934,-0.81822 -0.63585,-3.24334 1.01047,-5.41708c1.64139,-2.17867 3.8447,-3.26798 4.92909,-2.44976c1.09425,0.81822 0.64573,3.23841 -1.00553,5.41707z" fill="#000000"/></g><path d="" fill="url(#color-1)" stroke="#000000" stroke-width="15" stroke-linecap="butt"/><path d="" fill="#e7bc52" stroke="none" stroke-width="0" stroke-linecap="butt"/><path d="" fill="url(#color-2)" stroke="#000000" stroke-width="15" stroke-linecap="butt"/><g fill="none" stroke="#392f0e" stroke-width="5" stroke-linecap="round"><path d=""/><path d=""/><path d=""/></g><g stroke="#000000" stroke-width="0.5" stroke-linecap="butt"><path d="M341.86799,-54.13278c-12.51006,32.89191 -44.96328,56.38895 -83.14412,56.38895c-49.00022,0 -88.72388,-38.61953 -88.72388,-86.25931c0,-12.13546 2.60257,-23.66956 7.25564,-34.14883z" fill="#5c913b"/><path d="M332.72451,-57.6916c-11.05597,29.3676 -39.97009,50.3656 -74.00063,50.3656c-43.55356,0 -78.86567,-34.33122 -78.86567,-76.67715c0,-10.87852 2.36104,-21.20995 6.56557,-30.5851z" fill="#ffe8b6"/><path d="M323.57115,-61.2504c-9.59204,25.83837 -34.96705,44.3373 -64.84728,44.3373c-38.11183,0 -69.00747,-30.03303 -69.00747,-67.09004c0,-9.62161 2.11952,-18.7454 5.87057,-27.01643z" fill="#dd2e44"/><path d="M213.94788,-80.17324c-1.51324,2.26738 -3.65248,3.48981 -4.78617,2.73566c-1.13369,-0.75415 -0.82809,-3.199 0.68515,-5.46638c1.51324,-2.26738 3.65247,-3.48981 4.78616,-2.73565c1.13369,0.75415 0.82809,3.199 -0.68515,5.46638zM243.52251,-75.24414c-1.51324,2.26738 -3.65247,3.48981 -4.78616,2.73566c-1.13369,-0.75415 -0.8281,-3.199 0.68514,-5.46638c1.51324,-2.26738 3.65248,-3.4898 4.78617,-2.73565c1.13369,0.75415 0.82809,3.19899 -0.68515,5.46637zM268.57223,-52.18578c0.24646,2.71594 -0.65064,5.00797 -2.00122,5.1312c-1.35551,0.12323 -2.65186,-1.97163 -2.89831,-4.68757c-0.25139,-2.71594 0.65063,-5.00799 2.00121,-5.12629c1.35551,-0.12816 2.65187,1.96178 2.89833,4.68266zM224.21029,-62.044c0.24645,2.71594 -0.65065,5.00797 -2.00123,5.1312c-1.35551,0.12323 -2.65185,-1.97163 -2.8983,-4.68758c-0.24645,-2.71594 0.65063,-5.00797 2.0012,-5.12627c1.36043,-0.12816 2.65187,1.96177 2.89833,4.68264zM243.43871,-35.693c-1.64139,2.17374 -3.8447,3.26799 -4.92909,2.44977c-1.08934,-0.81822 -0.63586,-3.24335 1.01046,-5.41709c1.64139,-2.17374 3.84963,-3.26799 4.9291,-2.44976c1.08934,0.81822 0.64079,3.23842 -1.01047,5.41709zM283.049,-33.45518c1.34564,2.37091 1.4738,4.82559 0.29574,5.49595c-1.18791,0.67528 -3.2335,-0.70487 -4.57914,-3.07577c-1.34564,-2.36597 -1.47379,-4.82558 -0.29082,-5.49595c1.18791,-0.68022 3.22857,0.69502 4.57422,3.07578zM248.46147,-58.23872c1.49353,2.28218 1.78433,4.72209 0.64571,5.46637c-1.13862,0.74922 -3.26799,-0.49289 -4.76152,-2.77014c-1.49353,-2.27725 -1.7794,-4.72208 -0.64571,-5.46145c1.13862,-0.75909 3.26799,0.47812 4.76152,2.76523zM292.72976,-50.48032c-1.64139,2.17374 -3.8447,3.26799 -4.93403,2.44976c-1.08934,-0.81822 -0.63585,-3.24334 1.01047,-5.41708c1.64139,-2.17867 3.8447,-3.26798 4.9291,-2.44976c1.09425,0.81822 0.64573,3.23841 -1.00553,5.41707z" fill="#000000"/></g><path d="M124.55469,28.92188v-212h285v212z" fill="none" stroke="none" stroke-width="0" stroke-linecap="butt"/></g></g></svg>