<svg version="1.1" xmlns="http://www.w3.org/2000/svg" xmlns:xlink="http://www.w3.org/1999/xlink" width="22.83147" height="19.60741" viewBox="0,0,22.83147,19.60741"><g transform="translate(-233.8153,-168.74841)"><g data-paper-data="{&quot;isPaintingLayer&quot;:true}" fill-rule="nonzero" stroke-linecap="butt" stroke-linejoin="miter" stroke-miterlimit="10" stroke-dasharray="" stroke-dashoffset="0" style="mix-blend-mode: normal"><path d="M234.88229,183.388c0.62173,-2.89187 -0.01956,-7.25377 0.18301,-8.14501c0.16369,-0.72022 0.21414,-3.78202 1.10689,-4.05583c1.70215,-0.52206 5.23798,0.6295 7.08343,0.19177c1.67248,-0.3967 4.39696,-0.94661 6.73741,-1.4037c2.42688,-0.47396 4.86848,1.08771 5.40373,3.62369c0.57771,2.73709 0.81651,7.27951 0.30787,10.28364c-0.28748,1.69784 -0.18528,2.63242 -3.58587,2.97506c-3.94825,0.39782 -12.15812,-0.06514 -14.84406,-0.25126c-1.51893,-0.10525 -2.79845,-1.32971 -2.39238,-3.21838z" fill="#353535" stroke="none" stroke-width="0"/><path d="M246.06314,171.24103c1.67248,-0.3967 1.58945,-0.80871 3.92989,-1.26579c2.42688,-0.47396 4.86848,1.08771 5.40373,3.62369c0.57771,2.73709 0.81651,7.27951 0.30787,10.28364c-0.28748,1.69784 0.57189,1.57505 -2.8287,1.91769c-2.11165,0.21277 -12.50803,-1.69666 -14.48167,-5.82611c-1.71657,-3.5916 6.81043,-8.52949 7.66887,-8.73312z" fill="#484848" stroke="none" stroke-width="0"/><path d="M235.0653,172.76101c0.16369,-0.72022 0.95874,-1.30003 1.85149,-1.57384c1.70215,-0.52206 10.73579,-0.75484 13.07624,-1.21193c2.42688,-0.47396 4.86847,1.0877 5.40374,3.62368c0.57771,2.7371 0.81651,7.27952 0.30785,10.28366c-0.28746,1.69784 -0.18528,2.88062 -3.58587,3.22325c-3.94824,0.39781 -12.65453,-0.80974 -15.34046,-0.99584c-1.51895,-0.10525 -2.30205,-1.32971 -1.89599,-3.21838c0,0 -0.01956,-9.23935 0.183,-10.13059z" fill="none" stroke="#000000" stroke-width="2.5"/></g></g></svg>