<svg version="1.1" xmlns="http://www.w3.org/2000/svg" xmlns:xlink="http://www.w3.org/1999/xlink" width="63.75375" height="63.75375" viewBox="0,0,63.75375,63.75375"><defs><radialGradient cx="240" cy="180.00002" r="31.87688" gradientUnits="userSpaceOnUse" id="color-1"><stop offset="0" stop-color="#000000"/><stop offset="1" stop-color="#000000" stop-opacity="0"/></radialGradient><linearGradient x1="239.79278" y1="182.23557" x2="239.79278" y2="201.97413" gradientUnits="userSpaceOnUse" id="color-2"><stop offset="0" stop-color="#c500e4"/><stop offset="1" stop-color="#0022ff"/></linearGradient><linearGradient x1="250.60519" y1="160.60105" x2="250.60519" y2="168.01108" gradientUnits="userSpaceOnUse" id="color-3"><stop offset="0" stop-color="#ffb773"/><stop offset="1" stop-color="#ffab94"/></linearGradient><linearGradient x1="224.90992" y1="180.32118" x2="243.40791" y2="180.32118" gradientUnits="userSpaceOnUse" id="color-4"><stop offset="0" stop-color="#6b66ff"/><stop offset="1" stop-color="#fc5eff"/></linearGradient><linearGradient x1="225.10306" y1="171.07066" x2="255.16527" y2="171.07066" gradientUnits="userSpaceOnUse" id="color-5"><stop offset="0" stop-color="#c2bfff"/><stop offset="1" stop-color="#ffbfc8"/></linearGradient><linearGradient x1="225.40532" y1="180.32116" x2="243.40792" y2="180.32116" gradientUnits="userSpaceOnUse" id="color-6"><stop offset="0" stop-color="#c7bffb"/><stop offset="1" stop-color="#d9b2cc"/></linearGradient></defs><g transform="translate(-208.12313,-148.12313)"><g data-paper-data="{&quot;isPaintingLayer&quot;:true}" fill-rule="nonzero" stroke="none" stroke-width="0" stroke-linecap="butt" stroke-linejoin="miter" stroke-miterlimit="10" stroke-dasharray="" stroke-dashoffset="0" style="mix-blend-mode: normal"><path d="M208.12314,180.00002c0,-17.6051 14.27178,-31.87688 31.87688,-31.87688c17.60512,0 31.87687,14.27178 31.87687,31.87688c0,17.6051 -14.27177,31.87687 -31.87687,31.87687c-17.6051,0 -31.87688,-14.27175 -31.87688,-31.87687z" fill="url(#color-1)"/><path d="M214.49851,180.00002c0,-14.08409 11.4174,-25.50151 25.50149,-25.50151c14.0841,0 25.50149,11.41742 25.50149,25.50151c0,14.0841 -11.41741,25.50149 -25.50149,25.50149c-14.08409,0 -25.50149,-11.4174 -25.50149,-25.50149z" fill="#ffffff"/><g><path d="M236.18507,182.23557l7.18175,3.68621c0,0 0.08665,6.25518 0.10799,8.45182c0.00898,0.92481 -0.13272,2.17392 -1.63435,3.25907c-0.30788,0.20968 -1.71584,1.27621 -3.05894,2.2996c-0.41596,0.31696 -0.82572,0.62977 -1.19463,0.91172c-0.84547,0.64616 -1.47351,0.34286 -1.46993,-0.60345c0.00138,-0.36432 0.00285,-0.75221 0.00427,-1.12783c0.01242,-3.28162 0.06385,-16.87714 0.06385,-16.87714z" fill="url(#color-2)"/><path d="M254.94544,166.67308c-0.2265,0.29192 -0.72368,0.87592 -1.2927,1.18776c-0.30313,0.16612 -0.69321,0.02193 -0.974,0.06394c-1.62704,0.24346 -6.46736,-0.10562 -6.46736,-0.10562c0,0 3.17022,-4.97606 3.99099,-6.17514c0.33731,-0.4928 1.18572,-0.68845 1.54022,-0.15563c0.98248,1.47656 2.87582,4.32211 3.18308,4.78387c0.08335,0.12525 0.10324,0.29325 0.01975,0.40082z" fill="url(#color-3)"/><path d="M232.67085,173.32395l8.93601,4.60209c0,0 1.68546,0.73701 1.73566,2.62419c-0.03006,1.43881 0.0654,7.75343 0.0654,7.75343c0,0 -0.23213,-1.78257 -2.16144,-2.86785c-3.1064,-1.77439 -9.95215,-5.5928 -13.7577,-7.81308c-1.67051,-0.97464 -2.26912,-1.52674 -2.03459,-2.41359c0.05117,-0.19348 0.14198,-0.39263 0.26997,-0.60081c0.04279,-0.06959 0.20782,-0.07028 0.24363,-0.12844c0.61865,-1.00484 1.01719,-0.06283 1.18114,-0.33225c0.16624,-0.2732 0.89342,-0.27364 0.89342,-0.27364c0,0 -0.00657,-1.36533 0.56877,-1.46547c2.18437,-0.38025 4.05971,0.91543 4.05971,0.91543z" fill="url(#color-4)"/><path d="M226.84569,172.82104c0.90951,-1.44624 1.81827,-2.80414 1.83612,-2.82762c1.41422,-2.23886 2.06026,-2.39154 3.73247,-2.44908c2.11563,0.02165 16.17003,-0.02929 20.72472,-0.02472c0.62777,-0.0131 0.97286,-0.18996 1.21197,-0.33292c0.16405,-0.0981 0.38585,-0.33628 0.54474,-0.50687c0.10129,-0.10877 0.11771,-0.08422 -0.00135,0.10115c-0.74735,1.16368 -3.51633,5.46193 -4.24048,6.39684c-0.54137,0.69894 -1.33653,1.73584 -3.27313,1.71349c-3.58252,-0.04134 -16.59636,-0.24725 -20.5352,-0.30778c-0.69048,-0.0106 -1.08805,-0.01675 -1.08805,-0.01675c0,0 0.44056,-0.71591 1.08821,-1.74576z" fill="url(#color-5)"/><path d="M225.41094,175.44965c0,0 0.01372,-0.11126 0.02578,-0.16754c0.0152,-0.07098 0.03584,-0.14268 0.06183,-0.21527c0.0532,-0.14864 0.12877,-0.30098 0.22562,-0.45849c0.04279,-0.06959 0.08193,-0.13323 0.11774,-0.19138c0.61865,-1.00484 0.24088,-0.37756 0.40483,-0.64697c0.16624,-0.2732 0.28496,-0.46246 0.28496,-0.46246c0,0 1.12847,-0.59934 1.80439,-0.82483c0.10442,-0.03483 0.19803,-0.06076 0.27503,-0.07415c0.87354,-0.15206 1.69766,-0.03609 2.37217,0.15783c-0.0404,0.51901 -3.25481,2.01999 -3.25481,2.01999c0,0 -0.9402,-0.10698 -1.60443,0.20986c-0.60689,0.32653 -0.71313,0.65343 -0.71313,0.65343z" fill="url(#color-6)"/></g></g></g></svg>