<svg version="1.1" xmlns="http://www.w3.org/2000/svg" xmlns:xlink="http://www.w3.org/1999/xlink" width="36.61912" height="36.61912" viewBox="0,0,36.61912,36.61912"><g transform="translate(-221.69045,-161.64163)"><g data-paper-data="{&quot;isPaintingLayer&quot;:true}" fill-rule="nonzero" stroke-linecap="butt" stroke-linejoin="miter" stroke-miterlimit="10" stroke-dasharray="" stroke-dashoffset="0" style="mix-blend-mode: normal"><path d="M232.5331,169.88486c-0.59384,-1.60191 -1.69785,-4.58001 -2.02367,-5.4589c-0.17784,-0.47972 0.10891,-1.18024 0.4969,-1.32407c0.47557,-0.1763 1.68207,-0.62356 2.56461,-0.95072c0.58048,-0.21519 1.25707,0.2589 1.46223,0.81233c0.33628,0.90714 1.37967,3.7217 1.95272,5.26753c0.23177,0.62521 -0.2668,1.28511 -0.74233,1.46139c-0.49718,0.18431 -1.62263,0.60152 -2.42629,0.89945c-0.51549,0.1911 -1.05258,-0.0823 -1.28416,-0.707z" fill="#ffffff" stroke="none" stroke-width="0"/><path d="M245.0331,197.13486c-0.59384,-1.60191 -1.69785,-4.58001 -2.02367,-5.4589c-0.17784,-0.47972 0.10891,-1.18024 0.4969,-1.32407c0.47557,-0.1763 1.68207,-0.62356 2.56461,-0.95072c0.58048,-0.21519 1.25707,0.2589 1.46223,0.81233c0.33628,0.90714 1.37967,3.7217 1.95272,5.26753c0.23177,0.62521 -0.2668,1.28511 -0.74233,1.46139c-0.49718,0.18431 -1.62263,0.60152 -2.42629,0.89945c-0.51549,0.1911 -1.05258,-0.0823 -1.28416,-0.707z" fill="#ffffff" stroke="none" stroke-width="0"/><path d="M241.87261,167.56761c0.71281,-1.55263 2.03799,-4.43912 2.42907,-5.29098c0.21346,-0.46497 0.91157,-0.75754 1.28762,-0.5849c0.46094,0.21162 1.63033,0.74848 2.48571,1.14119c0.56262,0.2583 0.70581,1.07195 0.45955,1.60836c-0.40366,0.87923 -1.65607,3.60721 -2.34392,5.10549c-0.2782,0.60598 -1.09737,0.72005 -1.55827,0.50845c-0.48189,-0.22123 -1.57271,-0.72203 -2.35165,-1.07964c-0.49963,-0.22938 -0.68609,-0.80248 -0.40811,-1.40796z" fill="#ffffff" stroke="none" stroke-width="0"/><path d="M231.44278,195.67512c0.71281,-1.55263 2.03799,-4.43912 2.42907,-5.29098c0.21346,-0.46497 0.91157,-0.75754 1.28762,-0.5849c0.46094,0.21162 1.63033,0.74848 2.48571,1.14119c0.56262,0.2583 0.70581,1.07195 0.45955,1.60836c-0.40366,0.87923 -1.65607,3.60721 -2.34392,5.10549c-0.2782,0.60598 -1.09737,0.72005 -1.55827,0.50845c-0.48189,-0.22123 -1.57271,-0.72203 -2.35165,-1.07964c-0.49963,-0.22938 -0.68609,-0.80248 -0.40811,-1.40796z" fill="#ffffff" stroke="none" stroke-width="0"/><path d="M250.06634,172.48429c1.60191,-0.59384 4.58001,-1.69785 5.4589,-2.02367c0.47972,-0.17784 1.18024,0.10891 1.32407,0.4969c0.1763,0.47557 0.62356,1.68207 0.95072,2.56461c0.21519,0.58048 -0.2589,1.25707 -0.81233,1.46223c-0.90714,0.33628 -3.7217,1.37967 -5.26753,1.95272c-0.62521,0.23177 -1.28511,-0.2668 -1.46139,-0.74233c-0.18431,-0.49718 -0.60152,-1.62263 -0.89945,-2.42629c-0.1911,-0.51549 0.0823,-1.05258 0.707,-1.28416z" fill="#ffffff" stroke="none" stroke-width="0"/><path d="M222.81634,184.98429c1.60191,-0.59384 4.58001,-1.69785 5.4589,-2.02367c0.47972,-0.17784 1.18024,0.10891 1.32407,0.4969c0.1763,0.47557 0.62356,1.68207 0.95072,2.56461c0.21519,0.58048 -0.2589,1.25707 -0.81233,1.46223c-0.90714,0.33628 -3.7217,1.37967 -5.26753,1.95272c-0.62521,0.23177 -1.28511,-0.2668 -1.46139,-0.74233c-0.18431,-0.49718 -0.60152,-1.62263 -0.89945,-2.42629c-0.1911,-0.51549 0.0823,-1.05258 0.707,-1.28416z" fill="#ffffff" stroke="none" stroke-width="0"/><path d="M252.38358,181.8238c1.55263,0.71282 4.43912,2.038 5.29098,2.42908c0.46497,0.21346 0.75754,0.91156 0.5849,1.28762c-0.21161,0.46094 -0.74848,1.63033 -1.1412,2.48571c-0.2583,0.56262 -1.07195,0.70581 -1.60835,0.45955c-0.87923,-0.40366 -3.60721,-1.65607 -5.10549,-2.34393c-0.60598,-0.27821 -0.72005,-1.09736 -0.50845,-1.55827c0.22123,-0.48189 0.72203,-1.57271 1.07963,-2.35165c0.22938,-0.49964 0.80248,-0.6861 1.40796,-0.40812z" fill="#ffffff" stroke="none" stroke-width="0"/><path d="M224.27608,171.39397c1.55263,0.71282 4.43912,2.03799 5.29098,2.42907c0.46497,0.21346 0.75754,0.91156 0.5849,1.28762c-0.21161,0.46094 -0.74848,1.63033 -1.14119,2.48571c-0.2583,0.56262 -1.07195,0.70582 -1.60836,0.45955c-0.87923,-0.40366 -3.60721,-1.65607 -5.10549,-2.34393c-0.60598,-0.27821 -0.72005,-1.09736 -0.50845,-1.55826c0.22123,-0.48189 0.72204,-1.57272 1.07964,-2.35166c0.22938,-0.49964 0.80248,-0.68609 1.40796,-0.40811z" fill="#ffffff" stroke="none" stroke-width="0"/><path d="M234.35,180c0,-3.12042 2.52958,-5.65 5.65,-5.65c3.12042,0 5.65,2.52958 5.65,5.65c0,3.12042 -2.52958,5.65 -5.65,5.65c-3.12042,0 -5.65,-2.52958 -5.65,-5.65z" fill="#57a6db" stroke="#246fa0" stroke-width="2"/></g></g></svg>