<svg version="1.1" xmlns="http://www.w3.org/2000/svg" xmlns:xlink="http://www.w3.org/1999/xlink" width="93.09309" height="112.61261" viewBox="0,0,93.09309,112.61261"><g transform="translate(-179.00525,-114.43348)"><g data-paper-data="{&quot;isPaintingLayer&quot;:true}" fill-rule="nonzero" stroke-linejoin="miter" stroke-miterlimit="10" stroke-dasharray="" stroke-dashoffset="0" style="mix-blend-mode: normal"><path d="M209.33898,162.46491c2.55735,-1.47821 9.77845,-9.19855 14.69975,-14.27321c1.78495,-1.84058 5.02395,-5.24335 5.79088,-6.00998c2.49485,-2.49391 4.20837,-2.37159 5.57255,-2.33887c1.9582,0.04696 4.58619,0.10998 5.77205,0.13842c1.17738,0.02823 2.79614,1.19976 2.79061,3.04148c-0.02169,7.22691 -0.07617,25.37231 -0.0866,28.84586c-0.00339,1.12719 -0.66612,2.76556 -1.39973,3.47449c-2.3521,2.27294 -15.01247,14.50717 -18.67278,18.04429c-0.62855,0.60739 -1.48538,0.95793 -2.23677,0.95731c-1.94475,-0.00159 -5.61591,-0.00459 -6.92296,-0.00565c-0.90374,-0.00074 -1.44885,-0.75798 -0.71174,-2.03844c1.47458,-2.5616 3.56649,-7.22088 2.84421,-12.1191c-1.55242,-10.52805 -8.1306,-14.36188 -8.29636,-15.00944c-0.21378,-0.83518 -0.07813,-2.16667 0.8569,-2.70714z" fill="#749696" stroke="none" stroke-width="0" stroke-linecap="butt"/><path d="M209.74752,163.72227l21.55819,-22.67553h10.56437v3.12766c0,0 -12.83543,15.09463 -18.71265,18.70007c-1.73461,1.06411 2.04698,29.81255 -0.65234,29.78035c-0.75643,-0.00903 -3.5377,2.46605 -4.83877,-0.2095c-0.1036,-0.21306 -1.23772,0.60784 -1.34094,0.37819c-1.6955,-3.77236 0.82251,-9.99436 -0.24802,-15.66118c-1.34782,-7.13463 -6.32984,-13.44006 -6.32984,-13.44006z" fill="#4b6363" stroke="none" stroke-width="0" stroke-linecap="butt"/><path d="M223.94344,192.97107l-0.38736,-29.83526l20.38459,-22.05126" fill="none" stroke="#162b2b" stroke-width="2.5" stroke-linecap="round"/><path d="M223.14625,163.80615l-12.36804,-0.17178" fill="none" stroke="#162b2b" stroke-width="2.5" stroke-linecap="round"/><path d="M209.33898,162.46491c2.55735,-1.47821 9.77845,-9.19855 14.69975,-14.27321c1.78495,-1.84058 5.02395,-5.24335 5.79088,-6.00998c2.49485,-2.49391 4.20837,-2.37159 5.57255,-2.33887c1.9582,0.04696 4.58619,0.10998 5.77205,0.13842c1.17738,0.02823 2.79614,1.19976 2.79061,3.04148c-0.02169,7.22691 -0.07617,25.37231 -0.0866,28.84586c-0.00339,1.12719 -0.66612,2.76556 -1.39973,3.47449c-2.35211,2.27294 -15.01247,14.50717 -18.67278,18.04429c-0.62855,0.60739 -1.48538,0.95792 -2.23678,0.95731c-1.94475,-0.00159 -5.61591,-0.00458 -6.92296,-0.00565c-0.90374,-0.00073 -1.44885,-0.75798 -0.71174,-2.03844c1.47458,-2.5616 3.56649,-7.22088 2.84422,-12.1191c-1.55242,-10.52805 -8.1306,-14.36188 -8.29635,-15.00944c-0.21378,-0.83518 -0.07813,-2.16667 0.85689,-2.70714z" fill="none" stroke="#000000" stroke-width="3" stroke-linecap="butt"/><path d="M228.67943,180.38049c0,-2.12051 0,-11.13094 0,-14.75529c0,-0.941 0.34951,-1.88222 0.91651,-2.47204c2.10611,-2.19091 7.21293,-7.50748 8.55367,-8.94099c1.64489,-1.7587 1.32205,-0.6561 1.31381,0.12189c-0.022,2.07646 -0.12341,11.64858 -0.16555,15.62617c-0.01138,1.07445 -0.08493,1.76506 -0.56587,2.23763c-1.19862,1.17776 -6.65405,6.56319 -8.98809,8.86754c-0.65524,0.64691 -1.06448,0.18744 -1.06448,-0.68492z" fill="#223333" stroke="#162b2b" stroke-width="1.5" stroke-linecap="butt"/><g fill="none" stroke="#445555" stroke-width="1.5" stroke-linecap="round"><path d="M230.27942,165.42747v12.23044"/><path d="M232.67943,162.89704v12.23044"/><path d="M235.27942,172.59705v-12.23043"/><path d="M237.87941,158.25792v12.23044"/></g><path d="M179.00526,227.04609v-112.61261h93.09309v112.61261z" fill="none" stroke="none" stroke-width="none" stroke-linecap="butt"/></g></g></svg>