<svg version="1.1" xmlns="http://www.w3.org/2000/svg" xmlns:xlink="http://www.w3.org/1999/xlink" width="720" height="540" viewBox="0,0,720,540"><defs><clipPath id="clip-1"><rect x="-240" y="-180" transform="scale(0.5,0.5)" width="1440" height="1080" fill="none" fill-rule="nonzero" stroke-width="0.5" stroke-linecap="butt"/></clipPath></defs><g transform="translate(120,90)"><g clip-path="url(#clip-1)" data-paper-data="{&quot;isPaintingLayer&quot;:true}" stroke="none" stroke-linejoin="miter" stroke-miterlimit="10" stroke-dasharray="" stroke-dashoffset="0" style="mix-blend-mode: normal"><path d="M-196.45646,-85.40541h960v720h-960z" fill-opacity="0" fill="#000000" fill-rule="evenodd" stroke-width="1" stroke-linecap="square"/><path d="M-190.5352,-85.40541h948.1575v51.71653h-948.1575z" fill-opacity="0" fill="#000000" fill-rule="evenodd" stroke-width="1" stroke-linecap="square"/><path d="M-170.7227,-52.47728c-1.6875,1.33333 -3.34375,2 -4.96875,2c-1.53125,0 -2.71354,-0.39062 -3.54687,-1.17187c-0.82292,-0.78125 -1.23437,-1.73437 -1.23437,-2.85937c0,-0.96875 0.28125,-1.75 0.84375,-2.34375c0.5625,-0.59375 1.17188,-1.00521 1.82813,-1.23437c0.65625,-0.23958 1.72917,-0.51042 3.21875,-0.8125c1.48958,-0.3125 2.69271,-0.59896 3.60938,-0.85937c-0.01042,-1.07292 -0.22396,-1.79687 -0.64062,-2.17187c-0.41667,-0.38542 -1.05208,-0.57812 -1.90625,-0.57812c-1.61458,0 -2.66667,0.45312 -3.15625,1.35937c-0.28125,0.51042 -0.53125,0.875 -0.75,1.09375c-0.21875,0.21875 -0.53125,0.32813 -0.9375,0.32813c-0.375,0 -0.71354,-0.125 -1.01562,-0.375c-0.30208,-0.25 -0.45312,-0.56771 -0.45312,-0.95312c0,-0.92708 0.5,-1.80208 1.5,-2.625c1,-0.83333 2.56771,-1.25 4.70313,-1.25c2.17708,0 3.76563,0.375 4.76563,1.125c1.01042,0.75 1.48438,2.26562 1.42188,4.54687l-0.07812,3.34375c-0.03125,1.03125 0.07292,1.875 0.3125,2.53125c0.25,0.64583 0.375,1.14063 0.375,1.48437c0,0.375 -0.16667,0.70833 -0.5,1c-0.32292,0.28125 -0.69271,0.42187 -1.10937,0.42187c-0.71875,0 -1.47917,-0.66667 -2.28125,-2zM-170.95707,-57.61791c-0.53125,0.19792 -1.40625,0.42188 -2.625,0.67188c-1.21875,0.23958 -2.08333,0.51562 -2.59375,0.82812c-0.5,0.3125 -0.75,0.77083 -0.75,1.375c0,0.51042 0.19792,0.96354 0.59375,1.35937c0.40625,0.38542 0.97917,0.57813 1.71875,0.57813c0.78125,0 1.50521,-0.21354 2.17188,-0.64062c0.67708,-0.4375 1.09375,-0.94792 1.25,-1.53125c0.15625,-0.59375 0.23438,-1.47396 0.23438,-2.64062zM-154.14816,-52.50853v-0.35937c-1.22917,1.59375 -2.78125,2.39062 -4.65625,2.39062c-1.8125,0 -3.25521,-0.6875 -4.32812,-2.0625c-1.0625,-1.38542 -1.59375,-3.17187 -1.59375,-5.35937c0,-2.0625 0.52083,-3.75 1.5625,-5.0625c1.04167,-1.3125 2.48958,-1.96875 4.34375,-1.96875c1.79167,0 3.34896,0.72396 4.67188,2.17187v-4.60937c0,-1.27083 0.16146,-2.0625 0.48438,-2.375c0.32292,-0.3125 0.75521,-0.46875 1.29688,-0.46875c0.38542,0 0.73438,0.10938 1.04688,0.32813c0.32292,0.21875 0.52083,0.51042 0.59375,0.875c0.07292,0.35417 0.10938,0.9375 0.10938,1.75v14c0,0.79167 -0.04167,1.35937 -0.125,1.70312c-0.07292,0.33333 -0.27083,0.59375 -0.59375,0.78125c-0.32292,0.19792 -0.67708,0.29687 -1.0625,0.29687c-1.16667,0 -1.75,-0.67708 -1.75,-2.03125zM-161.13253,-57.78978c0,1.59375 0.33333,2.76042 1,3.5c0.67708,0.72917 1.44271,1.09375 2.29688,1.09375c1.01042,0 1.84375,-0.38021 2.5,-1.14062c0.65625,-0.77083 0.98438,-1.83854 0.98438,-3.20312c0,-1.4375 -0.32292,-2.57812 -0.96875,-3.42187c-0.63542,-0.85417 -1.48437,-1.28125 -2.54687,-1.28125c-0.95833,0 -1.74479,0.39583 -2.35937,1.1875c-0.60417,0.78125 -0.90625,1.86979 -0.90625,3.26562zM-127.06613,-59.64916v6.125c0,0.84375 -0.03646,1.4375 -0.10937,1.78125c-0.0625,0.34375 -0.25,0.64063 -0.5625,0.89063c-0.30208,0.25 -0.66667,0.375 -1.09375,0.375c-0.41667,0 -0.78125,-0.125 -1.09375,-0.375c-0.30208,-0.25 -0.49479,-0.55729 -0.57812,-0.92187c-0.07292,-0.36458 -0.10937,-0.94792 -0.10937,-1.75v-5.1875c0,-1.52083 -0.18229,-2.47396 -0.54687,-2.85937c-0.35417,-0.38542 -0.84375,-0.57812 -1.46875,-0.57812c-0.65625,0 -1.20833,0.18229 -1.65625,0.54688c-0.44792,0.35417 -0.75521,0.82292 -0.92187,1.40625c-0.15625,0.57292 -0.23437,1.47917 -0.23437,2.71875v3.95312c0,0.84375 -0.03646,1.44271 -0.10937,1.79687c-0.0625,0.34375 -0.25521,0.64063 -0.57812,0.89063c-0.3125,0.23958 -0.67708,0.35937 -1.09375,0.35937c-0.55208,0 -0.98437,-0.18229 -1.29687,-0.54687c-0.3125,-0.375 -0.46875,-1.20833 -0.46875,-2.5v-4.875c0,-1.39583 -0.10417,-2.36979 -0.3125,-2.92187c-0.20833,-0.55208 -0.75,-0.82812 -1.625,-0.82812c-0.91667,0 -1.63542,0.29167 -2.15625,0.875c-0.52083,0.57292 -0.78125,1.81771 -0.78125,3.73437v4.01562c0,0.82292 -0.03125,1.40104 -0.09375,1.73437c-0.05208,0.32292 -0.23437,0.625 -0.54687,0.90625c-0.3125,0.27083 -0.67708,0.40625 -1.09375,0.40625c-0.39583,0 -0.76042,-0.11979 -1.09375,-0.35937c-0.32292,-0.25 -0.52604,-0.54687 -0.60937,-0.89062c-0.07292,-0.34375 -0.10937,-0.94271 -0.10937,-1.79687v-8.60937c0,-0.82292 0.03646,-1.38021 0.10938,-1.67187c0.07292,-0.29167 0.26042,-0.55208 0.5625,-0.78125c0.3125,-0.22917 0.65104,-0.34375 1.01563,-0.34375c1.13542,0 1.70313,0.72396 1.70313,2.17187c1.1875,-1.44792 2.61979,-2.17187 4.29688,-2.17187c1.79167,0 3.09375,0.72396 3.90625,2.17187c1.20833,-1.44792 2.61979,-2.17187 4.23437,-2.17187c1.23958,0 2.30208,0.34375 3.1875,1.03125c0.88542,0.6875 1.32813,2.10417 1.32813,4.25zM-121.82535,-70.05541c0.46875,0 0.86979,0.17708 1.20313,0.53125c0.34375,0.34375 0.51563,0.74479 0.51563,1.20313c0,0.47917 -0.17187,0.89063 -0.51562,1.23438c-0.33333,0.33333 -0.73437,0.5 -1.20312,0.5c-0.46875,0 -0.875,-0.16667 -1.21875,-0.5c-0.34375,-0.34375 -0.51562,-0.75521 -0.51562,-1.23437c0,-0.46875 0.17188,-0.875 0.51563,-1.21875c0.34375,-0.34375 0.75,-0.51562 1.21875,-0.51562zM-120.05972,-62.02416v8.60937c0,0.84375 -0.04167,1.42188 -0.125,1.73437c-0.07292,0.3125 -0.27083,0.59375 -0.59375,0.84375c-0.32292,0.23958 -0.67187,0.35937 -1.04687,0.35937c-0.375,0 -0.72917,-0.11979 -1.0625,-0.35937c-0.33333,-0.23958 -0.54167,-0.52083 -0.625,-0.84375c-0.07292,-0.32292 -0.10937,-0.90104 -0.10937,-1.73437v-8.57812c0,-0.79167 0.03125,-1.34896 0.09375,-1.67187c0.0625,-0.33333 0.25,-0.625 0.5625,-0.875c0.32292,-0.26042 0.69271,-0.39062 1.10938,-0.39062c0.42708,0 0.79167,0.11458 1.09375,0.34375c0.30208,0.22917 0.49479,0.52083 0.57813,0.875c0.08333,0.35417 0.125,0.91667 0.125,1.6875zM-103.85161,-59.25853v5.84375c0,0.75 -0.03125,1.29688 -0.09375,1.64062c-0.0625,0.34375 -0.25,0.64583 -0.5625,0.90625c-0.3125,0.26042 -0.68229,0.39062 -1.10937,0.39062c-0.375,0 -0.72917,-0.11458 -1.0625,-0.34375c-0.33333,-0.22917 -0.54167,-0.52604 -0.625,-0.89062c-0.07292,-0.375 -0.10937,-0.94271 -0.10937,-1.70312v-5.125c0,-1.41667 -0.21354,-2.36979 -0.64062,-2.85937c-0.41667,-0.5 -1,-0.75 -1.75,-0.75c-0.67708,0 -1.27083,0.19792 -1.78125,0.59375c-0.51042,0.38542 -0.86979,0.86979 -1.07812,1.45312c-0.20833,0.58333 -0.3125,1.58854 -0.3125,3.01562v3.67187c0,0.73958 -0.03125,1.28125 -0.09375,1.625c-0.05208,0.33333 -0.23958,0.63542 -0.5625,0.90625c-0.32292,0.27083 -0.69271,0.40625 -1.10937,0.40625c-0.38542,0 -0.74479,-0.11979 -1.07812,-0.35937c-0.33333,-0.23958 -0.53646,-0.53646 -0.60937,-0.89062c-0.0625,-0.35417 -0.09375,-0.91667 -0.09375,-1.6875v-8.76562c0,-0.79167 0.03646,-1.34375 0.10938,-1.65625c0.07292,-0.3125 0.26042,-0.57292 0.5625,-0.78125c0.30208,-0.20833 0.64063,-0.3125 1.01563,-0.3125c0.34375,0 0.70313,0.14063 1.07813,0.42188c0.375,0.27083 0.5625,0.92708 0.5625,1.96875c1.1875,-1.59375 2.71875,-2.39062 4.59375,-2.39062c0.70833,0 1.40625,0.13542 2.09375,0.40625c0.69792,0.27083 1.26563,0.70833 1.70313,1.3125c0.4375,0.60417 0.70313,1.22917 0.79688,1.875c0.10417,0.64583 0.15625,1.33854 0.15625,2.07812z" fill="#000000" fill-rule="nonzero" stroke-width="1" stroke-linecap="square"/></g></g></svg>