<svg version="1.1" xmlns="http://www.w3.org/2000/svg" xmlns:xlink="http://www.w3.org/1999/xlink" width="34" height="20.59915" viewBox="0,0,34,20.59915"><g transform="translate(-223,-179.96709)"><g data-paper-data="{&quot;isPaintingLayer&quot;:true}" fill-rule="nonzero" stroke-linejoin="miter" stroke-miterlimit="10" stroke-dasharray="" stroke-dashoffset="0" style="mix-blend-mode: normal"><path d="M223,193.2329c0,-2.67245 0,-13.26581 0,-13.26581l34,0.02427c0,0 0,10.60783 0,13.24155c0,3.17867 -4.12625,7.33333 -7.33333,7.33333c-3.66164,0 -12.49803,0 -19,0c-4.35761,0 -7.66667,-4.15466 -7.66667,-7.33333z" fill="#000000" stroke="none" stroke-width="0" stroke-linecap="butt"/><path d="M223,193.2329c0,-2.67245 0,-13.26581 0,-13.26581l34,0.22427c0,0 0,10.40783 0,13.04155c0,3.17867 -4.12625,7.33333 -7.33333,7.33333c-3.66164,0 -12.49803,0 -19,0c-4.35761,0 -7.66667,-4.15466 -7.66667,-7.33333z" fill="#000000" stroke="none" stroke-width="0" stroke-linecap="butt"/><g fill="none" stroke="#ababab" stroke-width="2.5" stroke-linecap="round"><path d="M232.33333,192.56624l8,-6.33333"/><path d="M248.33332,192.56623l-8,-6.33333" data-paper-data="{&quot;index&quot;:null}"/></g></g></g></svg>