<svg version="1.1" xmlns="http://www.w3.org/2000/svg" xmlns:xlink="http://www.w3.org/1999/xlink" width="354.75" height="91.4027" viewBox="0,0,354.75,91.4027"><g transform="translate(77.25,-123.8585)"><g data-paper-data="{&quot;isPaintingLayer&quot;:true}" fill-rule="nonzero" stroke-linejoin="miter" stroke-miterlimit="10" stroke-dasharray="" stroke-dashoffset="0" style="mix-blend-mode: normal"><text transform="translate(-77,145.44444) scale(0.5,0.5)" font-size="40" xml:space="preserve" fill="#ffffff" fill-rule="nonzero" stroke="none" stroke-width="1" stroke-linecap="butt" stroke-linejoin="miter" stroke-miterlimit="10" stroke-dasharray="" stroke-dashoffset="0" font-family="Sans Serif" font-weight="normal" text-anchor="start" style="mix-blend-mode: normal"><tspan x="0" dy="0"> </tspan></text><path d="M210.81742,204.82784c0,-12.01784 0,-46.0465 0,-50.94544c0,-1.57362 1.66178,-2.90196 3.54684,-2.90196c6.17489,0 40.11775,0 51.26788,0c2.23182,0 3.55046,1.18889 3.55046,3.2244c0,6.34387 0,40.15015 0,51.26788c0,2.22971 -2.03698,3.54683 -4.51777,3.54683c-6.71661,0 -38.19001,0 -49.65568,0c-2.61703,0 -4.19171,-1.57351 -4.19171,-4.19171z" fill="#a3b4e0" stroke="#293b6b" stroke-width="3" stroke-linecap="butt"/><path d="M243.65284,170.61019h-10.0397c-2.06172,0 -3.09259,-0.76194 -3.09259,-2.28582c0,-0.62748 0.19423,-1.13545 0.58266,-1.52388c0.38844,-0.38844 1.22509,-0.58266 2.50993,-0.58266h11.29466c2.0916,0 3.37645,0.20916 3.85453,0.62748c0.47808,0.41833 0.71712,0.98604 0.71712,1.70316c0,0.50797 -0.13446,0.9711 -0.40338,1.38942c-0.23905,0.38844 -1.10556,1.53883 -2.59957,3.45115c-1.49401,1.91232 -2.7639,4.16827 -3.80971,6.76783c-1.04581,2.59957 -2.04678,6.25987 -3.00295,10.98092c-0.32869,1.76293 -1.18027,2.64439 -2.55475,2.64439c-0.71712,0 -1.31473,-0.23905 -1.7928,-0.71712c-0.47808,-0.50797 -0.71712,-1.26991 -0.71712,-2.28582c0,-1.94221 0.77689,-4.87045 2.33064,-8.78474c1.58365,-3.94417 3.82465,-7.73893 6.72301,-11.3843z" fill="#3e4f7b" stroke="none" stroke-width="1" stroke-linecap="square"/><path d="M201.19842,215.2612v-71.74627h76.30158v71.74628z" fill="none" stroke="none" stroke-width="none" stroke-linecap="butt"/></g></g></svg>