<svg version="1.1" xmlns="http://www.w3.org/2000/svg" xmlns:xlink="http://www.w3.org/1999/xlink" width="36.83333" height="24.50002" viewBox="0,0,36.83333,24.50002"><g transform="translate(-198.28649,-49.27904)"><g data-paper-data="{&quot;isPaintingLayer&quot;:true}" fill-rule="nonzero" stroke-linejoin="miter" stroke-miterlimit="10" stroke-dasharray="" stroke-dashoffset="0" style="mix-blend-mode: normal"><g fill="#6c6c6c" stroke="#666666"><path d="M199.03649,73.27906v-20c0,0 27.30046,0 32.33333,0c1.53303,0 3,1.36301 3,3.33334c0,4.26438 0,11.37358 0,13.66666c0,1.40837 -1.28395,3 -2.66666,3c-4.83951,0 -32.66666,0 -32.66666,0z" stroke-width="1" stroke-linecap="butt"/><path d="M199.03649,70.37808v-17.09906c0,0 27.38015,0 32.12814,0c1.44625,0 1.20519,1.1653 1.20519,2.84984c0,3.64584 0,9.72388 0,11.68435c0,1.20409 -1.21127,2.56486 -2.51572,2.56486c-4.56557,0 -30.81761,0 -30.81761,0z" stroke-width="0" stroke-linecap="butt"/><path d="M199.03649,73.27906v-20c0,0 27.30046,0 32.33333,0c1.53303,0 3,1.36301 3,3.33334c0,4.26438 0,11.37358 0,13.66666c0,1.40837 -1.28395,3 -2.66666,3c-4.83951,0 -32.66666,0 -32.66666,0z" stroke-width="1" stroke-linecap="butt"/><path d="M233.57814,58.90406c0,0 -10.98551,0 -12.75,0c-0.46224,0 -0.875,0.42421 -0.875,1c0,0.95665 0,2.33174 0,2.875c0,0.44209 -0.33627,1 -0.75,1c-1.98418,0 -17.25,0 -17.25,0" stroke-width="1" stroke-linecap="round"/><path d="M216.07814,52.52906c0,0 0,6.06312 0,7.625c0,0.69274 -0.10196,1.5 -2.5,1.5c-2.54129,0 -12.25,0 -12.25,0" stroke-width="1" stroke-linecap="round"/><path d="M213.20314,52.65406c0,0 0,3.88889 0,5c0,0.55556 -0.48129,1.25 -1.125,1.25c-1.01131,0 -2.4235,0 -3,0c-0.4927,0 -1.25,0.11512 -1.125,1.125c0.04984,0.40262 0,1.25 0,1.25" stroke-width="1" stroke-linecap="round"/><path d="M233.45314,67.02906c0,0 -17.79051,0 -20.375,0c-0.6073,0 -1.14777,-0.45537 -1.16303,-0.7606c-0.02308,-0.46158 -0.08697,-1.7394 -0.08697,-1.7394" stroke-width="1" stroke-linecap="round"/><path d="M234.07814,62.65406l-14,0.125" stroke-width="1" stroke-linecap="round"/></g><g stroke-width="1.5"><path d="M199.03649,70.77905v-20c0,0 27.30046,0 32.33333,0c1.53303,0 3,1.36301 3,3.33334c0,4.26438 0,11.37358 0,13.66666c0,1.40837 -1.28395,3 -2.66666,3c-4.83951,0 -32.66666,0 -32.66666,0z" fill="#313131" stroke="#000000" stroke-linecap="butt"/><path d="M199.03649,67.87808v-17.09906c0,0 27.38015,0 32.12814,0c1.44625,0 1.20519,1.1653 1.20519,2.84984c0,3.64584 0,9.72388 0,11.68435c0,1.20409 -1.21127,2.56486 -2.51572,2.56486c-4.56557,0 -30.81761,0 -30.81761,0z" fill="#666666" stroke="none" stroke-linecap="butt"/><path d="M199.03649,70.77905v-20c0,0 27.30046,0 32.33333,0c1.53303,0 3,1.36301 3,3.33334c0,4.26438 0,11.37358 0,13.66666c0,1.40837 -1.28395,3 -2.66666,3c-4.83951,0 -32.66666,0 -32.66666,0z" fill="none" stroke="#000000" stroke-linecap="butt"/><path d="M233.57814,56.40404c0,0 -10.98551,0 -12.75,0c-0.46224,0 -0.875,0.42421 -0.875,1c0,0.95665 0,2.33174 0,2.875c0,0.44209 -0.33627,1 -0.75,1c-1.98418,0 -17.25,0 -17.25,0" fill="none" stroke="#f8cd39" stroke-linecap="round"/><path d="M216.07814,50.02904c0,0 0,6.06312 0,7.625c0,0.69274 -0.10196,1.5 -2.5,1.5c-2.54129,0 -12.25,0 -12.25,0" fill="none" stroke="#f8cd39" stroke-linecap="round"/><path d="M213.20314,50.15404c0,0 0,3.88889 0,5c0,0.55556 -0.48129,1.25 -1.125,1.25c-1.01131,0 -2.4235,0 -3,0c-0.4927,0 -1.25,0.11512 -1.125,1.125c0.04984,0.40262 0,1.25 0,1.25" fill="none" stroke="#f8cd39" stroke-linecap="round"/><path d="M233.45314,64.52905c0,0 -17.79051,0 -20.375,0c-0.6073,0 -1.14777,-0.45537 -1.16303,-0.7606c-0.02308,-0.46158 -0.08697,-1.7394 -0.08697,-1.7394" fill="none" stroke="#f8cd39" stroke-linecap="round"/><path d="M220.07814,60.27905l14,-0.125" fill="none" stroke="#f8cd39" stroke-linecap="round"/></g></g></g></svg>