<svg version="1.1" xmlns="http://www.w3.org/2000/svg" xmlns:xlink="http://www.w3.org/1999/xlink" width="706.21021" height="368" viewBox="0,0,706.21021,368"><g transform="translate(23.10511,4)"><g data-paper-data="{&quot;isPaintingLayer&quot;:true}" fill-rule="nonzero" stroke-linejoin="miter" stroke-miterlimit="10" stroke-dasharray="" stroke-dashoffset="0" style="mix-blend-mode: normal"><path d="M-22.1051,363v-366h704.21021v366z" fill="#000000" stroke="#000000" stroke-width="2" stroke-linecap="butt"/><path d="M253.36116,101.04312v12.35053c0,0.77859 -0.0292,1.34309 -0.0876,1.69346c-0.05839,0.33091 -0.25304,0.6326 -0.58395,0.90512c-0.31143,0.25304 -0.68127,0.37956 -1.1095,0.37956c-0.42822,0 -0.80779,-0.11679 -1.1387,-0.35037c-0.31143,-0.25304 -0.49636,-0.55475 -0.55476,-0.90512c-0.05839,-0.35037 -0.08759,-0.92459 -0.08759,-1.72265v-12.35053h-3.29932c-0.7202,0 -1.21655,-0.0292 -1.48907,-0.08759c-0.27251,-0.0584 -0.51581,-0.20438 -0.72993,-0.43796c-0.19465,-0.25304 -0.29198,-0.54501 -0.29198,-0.87592c0,-0.25304 0.06813,-0.49636 0.20438,-0.72993c0.13625,-0.23358 0.32118,-0.39902 0.55476,-0.49635c0.23358,-0.11679 0.81752,-0.17518 1.75185,-0.17518h10.13152c0.83699,0 1.37228,0.03893 1.60586,0.11679c0.23358,0.0584 0.43796,0.21412 0.61315,0.46716c0.19465,0.23357 0.29198,0.50608 0.29198,0.81752c0,0.23358 -0.07786,0.4769 -0.23358,0.72994c-0.13625,0.23358 -0.32117,0.40877 -0.55475,0.52555c-0.23358,0.09733 -0.8078,0.14598 -1.72265,0.14598zM265.28467,102.88256c2.06329,0 3.67888,0.63261 4.84678,1.89784c1.18736,1.26523 1.78105,2.88082 1.78105,4.84678c0,1.96596 -0.59368,3.58155 -1.78105,4.84677c-1.18736,1.26523 -2.77376,1.89784 -4.75919,1.89784c-2.14115,0 -3.79567,-0.63261 -4.96357,-1.89784c-1.14844,-1.28469 -1.72265,-2.90028 -1.72265,-4.84677c0,-1.96596 0.58395,-3.58156 1.75185,-4.84678c1.18736,-1.26523 2.80295,-1.89784 4.84678,-1.89784zM265.28467,113.9192c1.01218,0 1.81024,-0.37956 2.39419,-1.1387c0.58395,-0.75914 0.87593,-1.81024 0.87593,-3.15332c0,-1.34309 -0.29198,-2.39419 -0.87593,-3.15333c-0.58395,-0.75914 -1.38201,-1.1387 -2.39419,-1.1387c-0.97325,0 -1.76158,0.3893 -2.36499,1.1679c-0.58395,0.75914 -0.87592,1.80051 -0.87592,3.12413c0,1.34309 0.29197,2.39419 0.87592,3.15332c0.58395,0.75914 1.37228,1.1387 2.36499,1.1387zM280.32766,102.88256c2.06329,0 3.67888,0.63261 4.84678,1.89784c1.18736,1.26523 1.78105,2.88082 1.78105,4.84678c0,1.96596 -0.59368,3.58155 -1.78105,4.84677c-1.18736,1.26523 -2.77376,1.89784 -4.75919,1.89784c-2.14115,0 -3.79567,-0.63261 -4.96357,-1.89784c-1.14844,-1.28469 -1.72265,-2.90028 -1.72265,-4.84677c0,-1.96596 0.58395,-3.58156 1.75185,-4.84678c1.18736,-1.26523 2.80295,-1.89784 4.84677,-1.89784zM280.32766,113.9192c1.01218,0 1.81025,-0.37956 2.39419,-1.1387c0.58395,-0.75914 0.87592,-1.81024 0.87592,-3.15332c0,-1.34309 -0.29197,-2.39419 -0.87592,-3.15333c-0.58395,-0.75914 -1.38202,-1.1387 -2.39419,-1.1387c-0.97325,0 -1.76158,0.3893 -2.36499,1.1679c-0.58395,0.75914 -0.87592,1.80051 -0.87592,3.12413c0,1.34309 0.29198,2.39419 0.87592,3.15332c0.58395,0.75914 1.37228,1.1387 2.36499,1.1387zM315.78652,107.81693v5.72271c0,0.77859 -0.03894,1.33334 -0.11679,1.66425c-0.05839,0.31144 -0.23358,0.58394 -0.52555,0.81753c-0.27251,0.23358 -0.61315,0.35037 -1.02191,0.35037c-0.38931,0 -0.72994,-0.10705 -1.02191,-0.32117c-0.27251,-0.23358 -0.4477,-0.52556 -0.52555,-0.87593c-0.07785,-0.35037 -0.11679,-0.89538 -0.11679,-1.63505v-4.84678c0,-1.42094 -0.16545,-2.3066 -0.49636,-2.65697c-0.33091,-0.36983 -0.78834,-0.55475 -1.37229,-0.55475c-0.60341,0 -1.11924,0.16545 -1.54746,0.49636c-0.40876,0.33091 -0.691,0.76887 -0.84672,1.31388c-0.15572,0.54502 -0.23358,1.40148 -0.23358,2.56938v3.67888c0,0.77859 -0.02919,1.33334 -0.08759,1.66425c-0.05839,0.33091 -0.24332,0.61315 -0.55476,0.84673c-0.29198,0.21412 -0.63261,0.32117 -1.02191,0.32117c-0.50609,0 -0.90512,-0.16544 -1.19709,-0.49635c-0.29198,-0.35037 -0.43796,-1.12897 -0.43796,-2.3358v-4.55481c0,-1.30415 -0.09733,-2.20928 -0.29198,-2.71537c-0.19465,-0.52555 -0.71048,-0.78833 -1.54746,-0.78833c-0.83699,0 -1.50853,0.27251 -2.01462,0.81753c-0.48662,0.54502 -0.72994,1.70319 -0.72994,3.4745v3.76648c0,0.77859 -0.0292,1.32362 -0.08759,1.63505c-0.03894,0.29197 -0.20438,0.56449 -0.49635,0.81753c-0.29198,0.25304 -0.63261,0.37956 -1.02191,0.37956c-0.36983,0 -0.71048,-0.10705 -1.02191,-0.32117c-0.29198,-0.23358 -0.4769,-0.5061 -0.55475,-0.81753c-0.07785,-0.33091 -0.11679,-0.89539 -0.11679,-1.69345v-8.02931c0,-0.77859 0.0292,-1.30414 0.0876,-1.57666c0.07785,-0.27251 0.26277,-0.51582 0.55475,-0.72994c0.29198,-0.21412 0.60341,-0.32117 0.93432,-0.32117c1.05111,0 1.57666,0.68128 1.57666,2.04382c1.10951,-1.36254 2.45258,-2.04382 4.02925,-2.04382c1.67399,0 2.89055,0.68128 3.64968,2.04382c1.12896,-1.36254 2.45258,-2.04382 3.97086,-2.04382c1.14844,0 2.13142,0.32117 2.94895,0.96352c0.83699,0.64235 1.25549,1.96596 1.25549,3.97086zM318.57356,111.43741v-5.81029c0,-0.7202 0.0292,-1.23603 0.08759,-1.54747c0.05839,-0.33091 0.23358,-0.61315 0.52555,-0.84673c0.29198,-0.23358 0.64235,-0.35037 1.05111,-0.35037c0.38931,0 0.72993,0.11679 1.02191,0.35037c0.29198,0.21412 0.46716,0.49636 0.52555,0.84673c0.07785,0.35037 0.11679,0.88566 0.11679,1.60586v4.55481c0,1.51827 0.23358,2.49152 0.70074,2.91975c0.46716,0.40877 0.98298,0.61315 1.54746,0.61315c0.64235,0 1.19709,-0.17518 1.66425,-0.52555c0.48662,-0.36983 0.81753,-0.80779 0.99271,-1.31388c0.17518,-0.50609 0.26278,-1.50853 0.26278,-3.00734v-3.29931c0,-0.70074 0.0292,-1.21655 0.08759,-1.54747c0.07785,-0.35037 0.26277,-0.63261 0.55475,-0.84673c0.29198,-0.23358 0.64235,-0.35037 1.05111,-0.35037c0.36983,0 0.70074,0.11679 0.99271,0.35037c0.31143,0.21412 0.49636,0.48662 0.55475,0.81753c0.05839,0.31144 0.08759,0.83699 0.08759,1.57666v8.20448c0,0.66181 -0.03893,1.14844 -0.11679,1.45988c-0.05839,0.29197 -0.21412,0.54502 -0.46716,0.75914c-0.25304,0.21412 -0.57421,0.32117 -0.96352,0.32117c-1.07057,0 -1.5864,-0.75913 -1.54747,-2.2774c-1.10951,1.51827 -2.56938,2.2774 -4.37962,2.2774c-1.20683,0 -2.23847,-0.35037 -3.09493,-1.05111c-0.83699,-0.7202 -1.25549,-2.01463 -1.25549,-3.88326zM344.21523,110.82427c0.40876,0 0.73968,0.16545 0.99272,0.49636c0.27251,0.31144 0.40877,0.6326 0.40877,0.96352c0,0.89539 -0.53529,1.80051 -1.60586,2.71536c-1.07057,0.91486 -2.51099,1.37228 -4.32122,1.37228c-2.18007,0 -3.82486,-0.61315 -4.93437,-1.83944c-1.10951,-1.24576 -1.66425,-2.85162 -1.66425,-4.81758c0,-2.00489 0.57421,-3.63994 1.72265,-4.90517c1.14844,-1.28469 2.7835,-1.92704 4.90518,-1.92704c1.65452,0 3.0268,0.43796 4.11684,1.31388c1.09004,0.85646 1.63505,1.70319 1.63505,2.54018c0,0.40877 -0.14598,0.74939 -0.43796,1.02191c-0.29198,0.27251 -0.64235,0.40877 -1.05111,0.40877c-0.48662,0 -0.86619,-0.20438 -1.1387,-0.61314c-0.60341,-0.93432 -1.1387,-1.51827 -1.60586,-1.75185c-0.46716,-0.25304 -0.97325,-0.37956 -1.51826,-0.37956c-1.07057,0 -1.89784,0.40876 -2.48179,1.22629c-0.56448,0.79806 -0.84673,1.81024 -0.84673,3.03654c0,1.24576 0.30171,2.26767 0.90512,3.06573c0.60341,0.77859 1.41121,1.1679 2.42339,1.1679c0.56448,0 1.09004,-0.13625 1.57666,-0.40877c0.48662,-0.27251 0.90512,-0.68128 1.25549,-1.22629c0.35037,-0.54502 0.63261,-0.92458 0.84673,-1.1387c0.21412,-0.21412 0.48662,-0.32117 0.81752,-0.32117zM359.65004,107.99211v6.07307c0,1.53773 -0.55475,2.3066 -1.66425,2.3066c-0.52555,0 -0.93432,-0.15573 -1.22629,-0.46716c-0.27251,-0.33091 -0.40877,-0.94405 -0.40877,-1.83944v-5.31394c0,-1.24576 -0.20438,-2.10221 -0.61314,-2.56937c-0.3893,-0.46716 -0.94406,-0.70074 -1.66426,-0.70074c-0.62288,0 -1.1679,0.17519 -1.63506,0.52556c-0.46716,0.35037 -0.79807,0.77859 -0.99271,1.28468c-0.19464,0.50609 -0.29197,1.40148 -0.29197,2.68617v3.85406c0,1.03164 -0.14599,1.71292 -0.43797,2.04383c-0.29197,0.33091 -0.71048,0.49635 -1.25549,0.49635c-0.50609,0 -0.90512,-0.15573 -1.19709,-0.46716c-0.29197,-0.33091 -0.43796,-1.01217 -0.43796,-2.04382v-13.16805c0,-0.81753 0.03893,-1.38201 0.11679,-1.69345c0.07785,-0.31144 0.25304,-0.56448 0.52555,-0.75912c0.27251,-0.19464 0.60341,-0.29198 0.99271,-0.29198c0.40877,0 0.7494,0.11679 1.02192,0.35037c0.29197,0.21412 0.47689,0.50609 0.55475,0.87592c0.07785,0.35037 0.11679,0.94405 0.11679,1.78104v3.94166c1.10951,-1.34309 2.46232,-2.01463 4.05845,-2.01463c1.32362,0 2.39419,0.4185 3.21172,1.25549c0.81753,0.81753 1.22629,2.10222 1.22629,3.85406zM373.64877,100.69275v12.93447c0,0.81753 -0.03894,1.37228 -0.11679,1.66426c-0.0584,0.27251 -0.24331,0.52555 -0.55475,0.75914c-0.29197,0.21412 -0.61315,0.32117 -0.96352,0.32117c-0.35037,0 -0.68128,-0.10705 -0.99271,-0.32117c-0.31144,-0.21412 -0.5061,-0.46716 -0.58395,-0.75914c-0.0584,-0.31144 -0.08759,-0.86619 -0.08759,-1.66426v-12.93447c0,-0.81753 0.03893,-1.37228 0.11679,-1.66425c0.07785,-0.29197 0.26278,-0.545 0.55475,-0.75912c0.29197,-0.21412 0.61314,-0.32117 0.96351,-0.32117c0.40877,0 0.75914,0.11679 1.05111,0.35037c0.29197,0.23358 0.46716,0.50608 0.52555,0.81752c0.0584,0.31144 0.08759,0.83699 0.08759,1.57666zM385.47842,114.50315c-1.57666,1.24576 -3.12413,1.86863 -4.6424,1.86863c-1.44041,0 -2.54991,-0.3601 -3.32851,-1.0803c-0.75914,-0.73967 -1.1387,-1.63506 -1.1387,-2.68617c0,-0.89539 0.26278,-1.6156 0.78833,-2.16062c0.52555,-0.56449 1.09004,-0.95378 1.69345,-1.1679c0.62288,-0.21412 1.62532,-0.46716 3.00734,-0.75914c1.40148,-0.29197 2.53044,-0.56449 3.38691,-0.81753c-0.01946,-0.99272 -0.22384,-1.66426 -0.61315,-2.01463c-0.3893,-0.35037 -0.97325,-0.52555 -1.75185,-0.52555c-1.51827,0 -2.51099,0.4185 -2.97814,1.25549c-0.25304,0.46716 -0.48662,0.80779 -0.70074,1.02191c-0.19464,0.19464 -0.4769,0.29198 -0.84673,0.29198c-0.35037,0 -0.67154,-0.10706 -0.96352,-0.32118c-0.27251,-0.23358 -0.40876,-0.53529 -0.40876,-0.90512c0,-0.85646 0.45743,-1.67399 1.37228,-2.45258c0.93432,-0.77859 2.40393,-1.1679 4.40882,-1.1679c2.02436,0 3.50369,0.35037 4.43801,1.05111c0.95378,0.70074 1.40148,2.12168 1.34308,4.26283l-0.05839,3.09493c-0.03893,0.97325 0.05839,1.76158 0.29197,2.36499c0.23358,0.60341 0.35037,1.07057 0.35037,1.40148c0,0.35037 -0.15572,0.66181 -0.46716,0.93432c-0.31144,0.25304 -0.66181,0.37956 -1.05111,0.37956c-0.68128,0 -1.39174,-0.62288 -2.13141,-1.86863zM385.27404,109.71476c-0.50609,0.19464 -1.33335,0.40877 -2.48179,0.64235c-1.12896,0.21412 -1.93677,0.46716 -2.42339,0.75914c-0.46716,0.29197 -0.70074,0.7202 -0.70074,1.28468c0,0.46716 0.18493,0.88566 0.55476,1.25549c0.3893,0.36983 0.93432,0.55476 1.63506,0.55476c0.7202,0 1.39175,-0.19465 2.01463,-0.58395c0.64234,-0.40877 1.03165,-0.88566 1.1679,-1.43067c0.15573,-0.56449 0.23358,-1.39175 0.23358,-2.48179zM400.65046,105.15996v-0.46716c0,-0.60341 0.14599,-1.05111 0.43796,-1.34309c0.31144,-0.31144 0.69101,-0.46716 1.1387,-0.46716c0.50609,0 0.89538,0.17518 1.16789,0.52555c0.27251,0.35037 0.40877,1.1095 0.40877,2.2774v8.93443c0,2.62777 -0.56449,4.39908 -1.69345,5.31394c-1.10951,0.91486 -2.71536,1.37228 -4.81758,1.37228c-1.8881,0 -3.36745,-0.35037 -4.43802,-1.05111c-1.05111,-0.70074 -1.57666,-1.44041 -1.57666,-2.219c0,-0.40877 0.13624,-0.73968 0.40876,-0.99272c0.27251,-0.25304 0.60341,-0.37956 0.99272,-0.37956c0.35037,0 0.62288,0.07785 0.81753,0.23358c0.21412,0.17518 0.56449,0.57422 1.05111,1.1971c0.50609,0.62288 1.34308,0.93432 2.51098,0.93432c0.66181,0 1.26523,-0.10706 1.81024,-0.32117c0.56448,-0.19464 0.97325,-0.55475 1.22629,-1.08031c0.27251,-0.50609 0.39902,-1.75185 0.37957,-3.73727c-1.01218,1.45987 -2.39419,2.18981 -4.14604,2.18981c-1.69345,0 -3.03654,-0.63261 -4.02925,-1.89783c-0.99271,-1.26523 -1.48907,-2.89055 -1.48907,-4.87598c0,-1.96596 0.50609,-3.52315 1.51826,-4.67159c1.01218,-1.1679 2.33579,-1.75185 3.97085,-1.75185c1.77131,0 3.22146,0.75914 4.35042,2.27741zM394.16862,109.56878c0,1.28469 0.28224,2.26766 0.84673,2.94894c0.56448,0.68127 1.34308,1.02192 2.3358,1.02192c0.83699,0 1.56693,-0.33091 2.18981,-0.99272c0.62288,-0.66181 0.93432,-1.6448 0.93432,-2.94894c0,-1.28469 -0.29197,-2.29686 -0.87592,-3.03654c-0.56448,-0.75914 -1.33335,-1.1387 -2.3066,-1.1387c-0.93432,0 -1.69345,0.35037 -2.2774,1.05111c-0.56448,0.70074 -0.84673,1.73239 -0.84673,3.09493z" fill="#cdcdcd" stroke="none" stroke-width="1" stroke-linecap="square"/><path d="M165.24783,168.92721v4.26283c0,1.32362 -0.17519,2.15088 -0.52556,2.48179c-0.33091,0.33091 -0.75913,0.49635 -1.28468,0.49635c-0.40877,0 -0.76887,-0.10706 -1.08031,-0.32118c-0.31144,-0.23358 -0.50609,-0.51582 -0.58394,-0.84672c-0.07785,-0.33091 -0.11679,-0.93431 -0.11679,-1.81024v-12.11695c0,-1.01218 0.06813,-1.70319 0.20438,-2.07302c0.15573,-0.36983 0.40877,-0.62289 0.75914,-0.75914c0.36983,-0.13625 0.90512,-0.20438 1.60586,-0.20438h4.35042c2.60831,0 4.36988,0.50609 5.28474,1.51826c0.91486,1.01218 1.37228,2.25794 1.37228,3.73728c0,3.75673 -2.219,5.63511 -6.65702,5.63511zM167.70041,160.83952h-2.45258v5.28474h2.45258c1.49881,0 2.52072,-0.23358 3.06573,-0.70074c0.54502,-0.48662 0.81753,-1.1387 0.81753,-1.95623c0,-0.58395 -0.15572,-1.09977 -0.46716,-1.54747c-0.29197,-0.4477 -0.70074,-0.73968 -1.2263,-0.87592c-0.50609,-0.13625 -1.23603,-0.20438 -2.18981,-0.20438zM181.334,160.48915v12.93447c0,0.81753 -0.03894,1.37228 -0.11679,1.66425c-0.0584,0.27251 -0.24332,0.52555 -0.55476,0.75913c-0.29197,0.21412 -0.61315,0.32118 -0.96352,0.32118c-0.35037,0 -0.68128,-0.10706 -0.99271,-0.32118c-0.31144,-0.21412 -0.50609,-0.46715 -0.58394,-0.75913c-0.0584,-0.31143 -0.0876,-0.86619 -0.0876,-1.66425v-12.93447c0,-0.81753 0.03894,-1.37228 0.11679,-1.66425c0.07785,-0.29198 0.26278,-0.54502 0.55475,-0.75914c0.29197,-0.21412 0.61315,-0.32117 0.96352,-0.32117c0.40877,0 0.75913,0.11679 1.0511,0.35037c0.29197,0.23358 0.46716,0.5061 0.52555,0.81753c0.0584,0.31143 0.0876,0.83699 0.0876,1.57666zM194.03957,170.2411h-6.51103c0.03893,1.22629 0.37956,2.16061 1.02191,2.80295c0.64235,0.62288 1.41121,0.93432 2.3066,0.93432c1.1095,0 2.15087,-0.48663 3.12412,-1.45988c0.40877,-0.40876 0.70074,-0.6618 0.87593,-0.75913c0.19464,-0.09733 0.4185,-0.14599 0.67154,-0.14599c0.29197,0 0.54502,0.09733 0.75914,0.29198c0.21412,0.17518 0.32117,0.40876 0.32117,0.70074c0,0.73967 -0.51582,1.51827 -1.54746,2.3358c-1.01217,0.81753 -2.39419,1.22629 -4.14604,1.22629c-2.219,0 -3.90273,-0.62288 -5.05116,-1.86864c-1.14844,-1.24576 -1.72265,-2.87109 -1.72265,-4.87598c0,-2.00489 0.57421,-3.63022 1.72265,-4.87597c1.14844,-1.24576 2.74456,-1.86864 4.78838,-1.86864c1.96596,0 3.4745,0.59368 4.52561,1.78105c1.07057,1.1679 1.60586,2.44285 1.60586,3.82486c0,0.60341 -0.17519,1.08031 -0.52556,1.43068c-0.35037,0.35037 -1.09005,0.52555 -2.21901,0.52555zM187.52854,168.37246h6.04388c-0.03893,-1.10951 -0.35037,-1.95623 -0.93432,-2.54018c-0.56449,-0.58395 -1.25549,-0.87592 -2.07302,-0.87592c-1.77131,0 -2.78349,1.1387 -3.03653,3.4161zM207.96343,174.29954c-1.57667,1.24576 -3.12413,1.86864 -4.6424,1.86864c-1.44041,0 -2.54992,-0.36011 -3.32851,-1.08031c-0.75914,-0.73967 -1.1387,-1.63505 -1.1387,-2.68616c0,-0.89539 0.26278,-1.6156 0.78834,-2.16062c0.52555,-0.56448 1.09004,-0.95377 1.69345,-1.16789c0.62288,-0.21412 1.62533,-0.46716 3.00734,-0.75914c1.40148,-0.29198 2.53045,-0.56449 3.3869,-0.81753c-0.01946,-0.99272 -0.22384,-1.66425 -0.61315,-2.01462c-0.3893,-0.35037 -0.97325,-0.52555 -1.75185,-0.52555c-1.51827,0 -2.51098,0.4185 -2.97814,1.25549c-0.25304,0.46716 -0.48662,0.80779 -0.70074,1.02191c-0.19464,0.19465 -0.47689,0.29197 -0.84672,0.29197c-0.35037,0 -0.67154,-0.10705 -0.96352,-0.32117c-0.27251,-0.23358 -0.40877,-0.53529 -0.40877,-0.90512c0,-0.85646 0.45743,-1.67399 1.37228,-2.45258c0.93432,-0.77859 2.40392,-1.1679 4.40881,-1.1679c2.02436,0 3.5037,0.35037 4.43802,1.05111c0.95378,0.70074 1.40148,2.12167 1.34308,4.26282l-0.0584,3.09493c-0.03893,0.97325 0.0584,1.76158 0.29198,2.36499c0.23358,0.60341 0.35037,1.07057 0.35037,1.40148c0,0.35037 -0.15573,0.6618 -0.46716,0.93431c-0.31144,0.25304 -0.66181,0.37957 -1.05111,0.37957c-0.68127,0 -1.39174,-0.62288 -2.13141,-1.86864zM207.75904,169.51116c-0.50609,0.19465 -1.33335,0.40877 -2.48179,0.64235c-1.12896,0.21412 -1.93676,0.46715 -2.42338,0.75913c-0.46716,0.29198 -0.70074,0.72021 -0.70074,1.28469c0,0.46716 0.18492,0.88566 0.55475,1.25549c0.3893,0.36983 0.93432,0.55476 1.63506,0.55476c0.7202,0 1.39175,-0.19464 2.01462,-0.58395c0.64235,-0.40876 1.03164,-0.88566 1.1679,-1.43068c0.15573,-0.56448 0.23358,-1.39175 0.23358,-2.48179zM216.8945,166.12426c0,0.42822 0.22385,0.76887 0.67154,1.02191c0.44769,0.23358 1.44041,0.54502 2.97814,0.93432c3.01708,0.73967 4.5256,1.99516 4.5256,3.76647c0,1.40148 -0.50609,2.47205 -1.51826,3.21172c-1.01218,0.73967 -2.43313,1.10951 -4.26283,1.10951c-1.84918,0 -3.24092,-0.37957 -4.17524,-1.1387c-0.93432,-0.75913 -1.40148,-1.56693 -1.40148,-2.42339c0,-0.35037 0.12653,-0.65208 0.37957,-0.90512c0.25304,-0.27251 0.57421,-0.40877 0.96352,-0.40877c0.52555,0 0.98298,0.32117 1.37228,0.96352c0.42822,0.7202 0.90512,1.1971 1.43067,1.43068c0.52555,0.23358 1.09005,0.35037 1.69346,0.35037c0.6618,0 1.1971,-0.14598 1.60586,-0.43796c0.42822,-0.31143 0.64234,-0.69101 0.64234,-1.1387c0,-0.40876 -0.17518,-0.76887 -0.52555,-1.08031c-0.35037,-0.31143 -1.31389,-0.64234 -2.89055,-0.99271c-1.57667,-0.36983 -2.7251,-0.87592 -3.4453,-1.51827c-0.7202,-0.6618 -1.08031,-1.44041 -1.08031,-2.3358c0,-1.01218 0.43796,-1.90757 1.31389,-2.68616c0.87592,-0.77859 2.19955,-1.1679 3.97086,-1.1679c1.59613,0 2.87108,0.33091 3.82486,0.99272c0.97325,0.6618 1.45988,1.34308 1.45988,2.04382c0,0.36983 -0.12653,0.68128 -0.37957,0.93432c-0.23358,0.25304 -0.56449,0.37956 -0.99272,0.37956c-0.64235,0 -1.22629,-0.36983 -1.75185,-1.1095c-0.50609,-0.73967 -1.27496,-1.1095 -2.3066,-1.1095c-0.56448,0 -1.06085,0.11679 -1.48907,0.35037c-0.40877,0.23358 -0.61315,0.55475 -0.61315,0.96352zM237.13766,170.2411h-6.51103c0.03894,1.22629 0.37956,2.16061 1.02191,2.80295c0.64235,0.62288 1.41121,0.93432 2.3066,0.93432c1.10951,0 2.15087,-0.48663 3.12412,-1.45988c0.40876,-0.40876 0.70074,-0.6618 0.87592,-0.75913c0.19465,-0.09733 0.4185,-0.14599 0.67154,-0.14599c0.29198,0 0.54501,0.09733 0.75913,0.29198c0.21412,0.17518 0.32117,0.40876 0.32117,0.70074c0,0.73967 -0.51582,1.51827 -1.54746,2.3358c-1.01218,0.81753 -2.39419,1.22629 -4.14604,1.22629c-2.21901,0 -3.90272,-0.62288 -5.05116,-1.86864c-1.14844,-1.24576 -1.72265,-2.87109 -1.72265,-4.87598c0,-2.00489 0.57422,-3.63022 1.72265,-4.87597c1.14844,-1.24576 2.74456,-1.86864 4.78838,-1.86864c1.96597,0 3.4745,0.59368 4.52561,1.78105c1.07057,1.1679 1.60586,2.44285 1.60586,3.82486c0,0.60341 -0.17518,1.08031 -0.52555,1.43068c-0.35037,0.35037 -1.09004,0.52555 -2.219,0.52555zM230.62663,168.37246h6.04387c-0.03894,-1.10951 -0.35037,-1.95623 -0.93431,-2.54018c-0.56448,-0.58395 -1.25549,-0.87592 -2.07302,-0.87592c-1.77131,0 -2.78349,1.1387 -3.03653,3.4161zM253.02459,164.89796c1.18736,-1.47933 2.63751,-2.21901 4.35042,-2.21901c1.69345,0 3.03653,0.64234 4.02925,1.92703c1.01218,1.28469 1.51827,2.93921 1.51827,4.96357c0,1.92703 -0.49635,3.51343 -1.48907,4.75919c-0.97325,1.22629 -2.32606,1.83944 -4.05845,1.83944c-1.65452,0 -3.10467,-0.68128 -4.35042,-2.04382v4.32122c0,1.18736 -0.14598,1.92703 -0.43796,2.21901c-0.29198,0.29198 -0.69101,0.43796 -1.1971,0.43796c-0.60341,0 -1.03164,-0.20438 -1.28468,-0.61315c-0.25304,-0.38931 -0.37957,-1.09977 -0.37957,-2.13142v-13.10966c0,-0.68127 0.0292,-1.17764 0.08759,-1.48907c0.05839,-0.33091 0.23358,-0.59368 0.52555,-0.78833c0.29198,-0.19465 0.64234,-0.29198 1.05111,-0.29198c1.09004,0 1.63506,0.62288 1.63506,1.86864zM259.56482,169.51116c0,-1.45988 -0.31144,-2.54018 -0.93432,-3.24092c-0.60341,-0.70074 -1.31388,-1.05111 -2.13142,-1.05111c-0.95378,0 -1.74211,0.36011 -2.36499,1.08031c-0.60341,0.70074 -0.90512,1.69345 -0.90512,2.97814c0,1.34309 0.29198,2.40393 0.87592,3.18252c0.60341,0.77859 1.41121,1.1679 2.42339,1.1679c0.89539,0 1.62533,-0.3601 2.18981,-1.0803c0.56448,-0.73967 0.84672,-1.75185 0.84672,-3.03654zM268.94085,160.48915v12.93447c0,0.81753 -0.03894,1.37228 -0.11679,1.66425c-0.05839,0.27251 -0.24331,0.52555 -0.55475,0.75913c-0.29198,0.21412 -0.61315,0.32118 -0.96352,0.32118c-0.35037,0 -0.68128,-0.10706 -0.99272,-0.32118c-0.31143,-0.21412 -0.50609,-0.46715 -0.58395,-0.75913c-0.05839,-0.31143 -0.08759,-0.86619 -0.08759,-1.66425v-12.93447c0,-0.81753 0.03894,-1.37228 0.11679,-1.66425c0.07785,-0.29198 0.26277,-0.54502 0.55475,-0.75914c0.29198,-0.21412 0.61315,-0.32117 0.96352,-0.32117c0.40876,0 0.75913,0.11679 1.05111,0.35037c0.29198,0.23358 0.46716,0.5061 0.52555,0.81753c0.05839,0.31143 0.08759,0.83699 0.08759,1.57666zM280.7705,174.29954c-1.57666,1.24576 -3.12413,1.86864 -4.6424,1.86864c-1.44041,0 -2.54991,-0.36011 -3.32851,-1.08031c-0.75913,-0.73967 -1.1387,-1.63505 -1.1387,-2.68616c0,-0.89539 0.26278,-1.6156 0.78833,-2.16062c0.52555,-0.56448 1.09005,-0.95377 1.69346,-1.16789c0.62288,-0.21412 1.62533,-0.46716 3.00734,-0.75914c1.40148,-0.29198 2.53044,-0.56449 3.3869,-0.81753c-0.01946,-0.99272 -0.22384,-1.66425 -0.61315,-2.01462c-0.38931,-0.35037 -0.97325,-0.52555 -1.75185,-0.52555c-1.51827,0 -2.51098,0.4185 -2.97814,1.25549c-0.25304,0.46716 -0.48662,0.80779 -0.70074,1.02191c-0.19465,0.19465 -0.47689,0.29197 -0.84672,0.29197c-0.35037,0 -0.67155,-0.10705 -0.96352,-0.32117c-0.27251,-0.23358 -0.40876,-0.53529 -0.40876,-0.90512c0,-0.85646 0.45743,-1.67399 1.37229,-2.45258c0.93432,-0.77859 2.40393,-1.1679 4.40882,-1.1679c2.02436,0 3.50369,0.35037 4.43801,1.05111c0.95378,0.70074 1.40148,2.12167 1.34309,4.26282l-0.05839,3.09493c-0.03894,0.97325 0.05839,1.76158 0.29197,2.36499c0.23358,0.60341 0.35037,1.07057 0.35037,1.40148c0,0.35037 -0.15572,0.6618 -0.46716,0.93431c-0.31143,0.25304 -0.66181,0.37957 -1.05111,0.37957c-0.68127,0 -1.39174,-0.62288 -2.13141,-1.86864zM280.56612,169.51116c-0.50609,0.19465 -1.33335,0.40877 -2.48179,0.64235c-1.12896,0.21412 -1.93677,0.46715 -2.42339,0.75913c-0.46716,0.29198 -0.70074,0.72021 -0.70074,1.28469c0,0.46716 0.18492,0.88566 0.55475,1.25549c0.38931,0.36983 0.93432,0.55476 1.63506,0.55476c0.7202,0 1.39174,-0.19464 2.01462,-0.58395c0.64235,-0.40876 1.03165,-0.88566 1.1679,-1.43068c0.15572,-0.56448 0.23358,-1.39175 0.23358,-2.48179zM290.21984,175.84701l-4.05845,-10.2775c-0.25304,-0.6618 -0.37957,-1.11924 -0.37957,-1.37228c0,-0.38931 0.15573,-0.73968 0.46716,-1.05111c0.33091,-0.31143 0.71048,-0.46716 1.1387,-0.46716c0.36983,0 0.68128,0.11679 0.93432,0.35037c0.27251,0.23358 0.53529,0.70074 0.78833,1.40148l2.80296,8.17529l2.65696,-7.56214c0.35037,-0.99272 0.62288,-1.63506 0.81753,-1.92703c0.21412,-0.29198 0.57422,-0.43796 1.08031,-0.43796c0.46716,0 0.82726,0.15573 1.0803,0.46716c0.27251,0.29198 0.40877,0.60341 0.40877,0.93432c0,0.36983 -0.13625,0.89539 -0.40877,1.57666l-4.32122,11.32862c-0.58395,1.51827 -1.18736,2.57911 -1.81025,3.18252c-0.60341,0.62288 -1.65452,0.93432 -3.15332,0.93432c-1.92703,0 -2.89055,-0.48663 -2.89055,-1.45988c0,-0.33091 0.10705,-0.6034 0.32117,-0.81752c0.23358,-0.21412 0.53529,-0.32118 0.90512,-0.32118c0.03894,0 0.21412,0.00974 0.52555,0.0292c0.33091,0.01946 0.52555,0.02919 0.58395,0.02919c0.62288,0 1.07057,-0.14598 1.34308,-0.43796c0.29198,-0.29198 0.58395,-0.79807 0.87592,-1.51827zM313.53558,162.67896c2.06329,0 3.67888,0.63261 4.84678,1.89783c1.18736,1.26522 1.78105,2.88081 1.78105,4.84678c0,1.96597 -0.59368,3.58156 -1.78105,4.84678c-1.18736,1.26522 -2.77376,1.89784 -4.75919,1.89784c-2.14115,0 -3.79566,-0.63261 -4.96356,-1.89784c-1.14844,-1.28469 -1.72265,-2.90028 -1.72265,-4.84678c0,-1.96597 0.58394,-3.58155 1.75185,-4.84678c1.18736,-1.26522 2.80296,-1.89783 4.84678,-1.89783zM313.53558,173.7156c1.01218,0 1.81024,-0.37957 2.39419,-1.13871c0.58395,-0.75913 0.87592,-1.81024 0.87592,-3.15332c0,-1.34309 -0.29198,-2.39419 -0.87592,-3.15332c-0.58395,-0.75913 -1.38201,-1.1387 -2.39419,-1.1387c-0.97325,0 -1.76158,0.38931 -2.36499,1.1679c-0.58395,0.75913 -0.87592,1.8005 -0.87592,3.12412c0,1.34309 0.29198,2.39419 0.87592,3.15332c0.58395,0.75913 1.37228,1.13871 2.36499,1.13871zM334.50565,167.99289v5.43073c0,0.7202 -0.0292,1.23603 -0.08759,1.54746c-0.05839,0.31143 -0.23358,0.59369 -0.52555,0.84673c-0.29198,0.23358 -0.6326,0.35037 -1.02191,0.35037c-0.36983,0 -0.71048,-0.10706 -1.02191,-0.32118c-0.29198,-0.21412 -0.47689,-0.48662 -0.55475,-0.81752c-0.07785,-0.35037 -0.11679,-0.88566 -0.11679,-1.60586v-4.75919c0,-1.34309 -0.20439,-2.23847 -0.61315,-2.68617c-0.38931,-0.46716 -0.93431,-0.70073 -1.63505,-0.70073c-0.62288,0 -1.17764,0.18492 -1.66425,0.55475c-0.46716,0.35037 -0.79807,0.80779 -0.99272,1.37228c-0.19465,0.54502 -0.29198,1.47934 -0.29198,2.80296v3.4161c0,0.70074 -0.0292,1.21655 -0.08759,1.54746c-0.05839,0.31143 -0.23358,0.59369 -0.52555,0.84673c-0.29198,0.23358 -0.6326,0.35037 -1.02191,0.35037c-0.36983,0 -0.71048,-0.10706 -1.02191,-0.32118c-0.31143,-0.21412 -0.49636,-0.48662 -0.55476,-0.81752c-0.05839,-0.35037 -0.08759,-0.88566 -0.08759,-1.60586v-8.17529c0,-0.73967 0.0292,-1.25549 0.08759,-1.54747c0.07785,-0.29198 0.25304,-0.53529 0.52555,-0.72993c0.27251,-0.19465 0.58395,-0.29198 0.93432,-0.29198c0.33091,0 0.67154,0.12652 1.02191,0.37956c0.35037,0.25304 0.52556,0.87592 0.52556,1.86864c1.10951,-1.49881 2.54018,-2.2482 4.29202,-2.2482c0.6618,0 1.31388,0.12652 1.95623,0.37956c0.6618,0.25304 1.19709,0.66181 1.60586,1.2263c0.40876,0.56448 0.65208,1.14844 0.72994,1.75185c0.09733,0.60341 0.14599,1.25549 0.14599,1.95623zM345.75981,162.97093v-1.98543c0,-0.81753 0.03894,-1.37228 0.11679,-1.66425c0.07785,-0.31143 0.25304,-0.57421 0.52555,-0.78833c0.29197,-0.23358 0.63261,-0.35037 1.02191,-0.35037c0.35037,0 0.67154,0.10705 0.96352,0.32117c0.29197,0.19465 0.4769,0.4477 0.55476,0.75914c0.09733,0.29198 0.14598,0.77859 0.14598,1.45987v2.24821h0.64234c0.81753,0 1.35282,0.09733 1.60586,0.29197c0.27251,0.19465 0.40877,0.48662 0.40877,0.87593c0,0.81753 -0.68128,1.22629 -2.04383,1.22629h-0.61314v6.13147c0,0.83699 0.0584,1.40148 0.17518,1.69346c0.11679,0.29198 0.42823,0.43796 0.93432,0.43796c0.25304,0 0.52555,-0.02919 0.81752,-0.08759c0.31144,-0.07785 0.54501,-0.11679 0.70074,-0.11679c0.33091,0 0.59368,0.11679 0.78833,0.35037c0.21412,0.21412 0.32118,0.4769 0.32118,0.78833c0,1.07057 -1.14844,1.60586 -3.4453,1.60586c-1.10951,0 -1.92703,-0.20438 -2.45258,-0.61315c-0.52555,-0.40876 -0.85647,-0.90512 -0.99272,-1.48907c-0.11679,-0.60341 -0.17518,-1.38202 -0.17518,-2.3358v-6.36505h-0.43796c-0.97325,0 -1.45988,-0.39903 -1.45988,-1.19709c0,-0.79807 0.51582,-1.19709 1.54746,-1.19709zM353.9341,171.23381v-5.81029c0,-0.7202 0.02919,-1.23603 0.08759,-1.54747c0.0584,-0.33091 0.23358,-0.61315 0.52555,-0.84672c0.29197,-0.23358 0.64235,-0.35037 1.05111,-0.35037c0.3893,0 0.72994,0.11679 1.02191,0.35037c0.29197,0.21412 0.46716,0.49635 0.52555,0.84672c0.07785,0.35037 0.11679,0.88566 0.11679,1.60586v4.5548c0,1.51827 0.23358,2.49152 0.70074,2.91975c0.46716,0.40876 0.98298,0.61315 1.54746,0.61315c0.64234,0 1.1971,-0.17518 1.66426,-0.52555c0.48662,-0.36983 0.81753,-0.80779 0.99271,-1.31388c0.17518,-0.50609 0.26278,-1.50853 0.26278,-3.00734v-3.29931c0,-0.70074 0.02919,-1.21656 0.08759,-1.54747c0.07785,-0.35037 0.26278,-0.6326 0.55475,-0.84672c0.29197,-0.23358 0.64234,-0.35037 1.05111,-0.35037c0.36983,0 0.70074,0.11679 0.99271,0.35037c0.31144,0.21412 0.49635,0.48662 0.55475,0.81753c0.0584,0.31143 0.0876,0.83699 0.0876,1.57666v8.20448c0,0.6618 -0.03893,1.14844 -0.11679,1.45988c-0.0584,0.29198 -0.21412,0.54501 -0.46716,0.75913c-0.25304,0.21412 -0.57422,0.32118 -0.96352,0.32118c-1.07057,0 -1.5864,-0.75913 -1.54746,-2.2774c-1.10951,1.51827 -2.56937,2.2774 -4.37962,2.2774c-1.20683,0 -2.23847,-0.35037 -3.09493,-1.05111c-0.83699,-0.7202 -1.25549,-2.01462 -1.25549,-3.88326zM369.06469,173.42362v-8.49646c0,-1.49881 0.54502,-2.2482 1.63506,-2.2482c1.05111,0 1.5864,0.691 1.60586,2.07302c0.70074,-1.38201 1.65452,-2.07302 2.86135,-2.07302c0.64234,0 1.30415,0.17518 1.98543,0.52555c0.68128,0.33091 1.02191,0.78833 1.02191,1.37228c0,0.38931 -0.13625,0.7202 -0.40876,0.99272c-0.27251,0.27251 -0.56449,0.40876 -0.87592,0.40876c-0.17518,0 -0.49636,-0.06813 -0.96352,-0.20438c-0.46716,-0.15572 -0.86618,-0.23358 -1.19709,-0.23358c-0.77859,0 -1.36255,0.39903 -1.75185,1.1971c-0.3893,0.79807 -0.58395,2.34553 -0.58395,4.64239v1.92703c0,0.83699 -0.03893,1.41122 -0.11679,1.72265c-0.0584,0.29198 -0.23358,0.55475 -0.52555,0.78833c-0.29197,0.23358 -0.63261,0.35037 -1.02191,0.35037c-0.36983,0 -0.70074,-0.10706 -0.99271,-0.32118c-0.29197,-0.21412 -0.4769,-0.46715 -0.55476,-0.75913c-0.07785,-0.29198 -0.11679,-0.84672 -0.11679,-1.66425zM383.00952,173.94918v0.32117c0,1.26522 -0.54502,1.89784 -1.63506,1.89784c-0.42822,0 -0.78833,-0.10706 -1.08031,-0.32118c-0.27251,-0.21412 -0.43796,-0.4769 -0.49636,-0.78833c-0.0584,-0.31143 -0.08759,-0.79807 -0.08759,-1.45987v-13.08046c0,-0.75913 0.02919,-1.31388 0.08759,-1.66425c0.07785,-0.35037 0.26278,-0.62288 0.55476,-0.81753c0.31144,-0.19465 0.64234,-0.29198 0.99271,-0.29198c0.50609,0 0.90513,0.14598 1.1971,0.43796c0.31144,0.29198 0.46715,1.03165 0.46715,2.21901v4.32122c1.24575,-1.36255 2.70563,-2.04382 4.37962,-2.04382c1.71292,0 3.056,0.61315 4.02925,1.83944c0.99271,1.22629 1.48907,2.80295 1.48907,4.72998c0,2.04382 -0.5061,3.70807 -1.51827,4.99276c-0.99271,1.28469 -2.34553,1.92704 -4.05845,1.92704c-1.73239,0 -3.17279,-0.73967 -4.32122,-2.21901zM383.18471,169.56956c0,1.28469 0.31144,2.28713 0.93432,3.00733c0.62288,0.70074 1.40147,1.05111 2.33579,1.05111c0.79807,0 1.50853,-0.34063 2.13142,-1.02191c0.64234,-0.68127 0.96352,-1.77131 0.96352,-3.27012c0,-1.28469 -0.29197,-2.28714 -0.87592,-3.00734c-0.56448,-0.73967 -1.29443,-1.1095 -2.18981,-1.1095c-1.01218,0 -1.81998,0.39903 -2.42339,1.1971c-0.58395,0.77859 -0.87592,1.8297 -0.87592,3.15332zM401.34918,162.67896c2.06329,0 3.67888,0.63261 4.84678,1.89783c1.18736,1.26522 1.78104,2.88081 1.78104,4.84678c0,1.96597 -0.59368,3.58156 -1.78104,4.84678c-1.18736,1.26522 -2.77376,1.89784 -4.75919,1.89784c-2.14115,0 -3.79567,-0.63261 -4.96357,-1.89784c-1.14844,-1.28469 -1.72265,-2.90028 -1.72265,-4.84678c0,-1.96597 0.58395,-3.58155 1.75185,-4.84678c1.18736,-1.26522 2.80296,-1.89783 4.84678,-1.89783zM401.34918,173.7156c1.01218,0 1.81024,-0.37957 2.39419,-1.13871c0.58395,-0.75913 0.87592,-1.81024 0.87592,-3.15332c0,-1.34309 -0.29197,-2.39419 -0.87592,-3.15332c-0.58395,-0.75913 -1.38202,-1.1387 -2.39419,-1.1387c-0.97325,0 -1.76158,0.38931 -2.36499,1.1679c-0.58395,0.75913 -0.87593,1.8005 -0.87593,3.12412c0,1.34309 0.29198,2.39419 0.87593,3.15332c0.58395,0.75913 1.37228,1.13871 2.36499,1.13871zM414.8447,172.16813l1.95623,-6.8614c0.25304,-0.85646 0.43796,-1.41121 0.55475,-1.66425c0.13625,-0.27251 0.35037,-0.49635 0.64234,-0.67154c0.29197,-0.19465 0.62289,-0.29198 0.99272,-0.29198c0.58395,0 1.01217,0.15573 1.28468,0.46716c0.27251,0.31143 0.58395,1.03164 0.93432,2.16061l1.98543,6.8614l2.16062,-7.41616c0.23358,-0.77859 0.4477,-1.31388 0.64234,-1.60586c0.21412,-0.31143 0.58394,-0.46716 1.1095,-0.46716c0.36983,0 0.70074,0.14598 0.99272,0.43796c0.31144,0.27251 0.46716,0.59369 0.46716,0.96352c0,0.29198 -0.12653,0.79807 -0.37957,1.51827l-2.71536,7.9709c-0.29197,0.83699 -0.51582,1.39174 -0.67154,1.66425c-0.15573,0.27251 -0.37957,0.49635 -0.67154,0.67154c-0.27251,0.17518 -0.58395,0.26278 -0.93432,0.26278c-0.70074,0 -1.1971,-0.20438 -1.48907,-0.61315c-0.27251,-0.40876 -0.55475,-1.10951 -0.84672,-2.10222l-1.86863,-6.45263l-1.83944,6.45263c-0.23358,0.83699 -0.42822,1.40148 -0.58395,1.69346c-0.13625,0.29198 -0.3601,0.53529 -0.67154,0.72994c-0.31144,0.19465 -0.65208,0.29198 -1.02191,0.29198c-0.35037,0 -0.68127,-0.0876 -0.99271,-0.26278c-0.31144,-0.15572 -0.54501,-0.36982 -0.70074,-0.64234c-0.13625,-0.29198 -0.35037,-0.85647 -0.64235,-1.69346l-2.71536,-7.9709c-0.23358,-0.70074 -0.35037,-1.20683 -0.35037,-1.51827c0,-0.36983 0.13624,-0.691 0.40876,-0.96352c0.29197,-0.29198 0.64234,-0.43796 1.05111,-0.43796c0.50609,0 0.85647,0.14598 1.05111,0.43796c0.21412,0.29198 0.43796,0.83699 0.67154,1.63506zM438.9101,174.29954c-1.57666,1.24576 -3.12413,1.86864 -4.6424,1.86864c-1.44041,0 -2.54991,-0.36011 -3.32851,-1.08031c-0.75914,-0.73967 -1.1387,-1.63505 -1.1387,-2.68616c0,-0.89539 0.26277,-1.6156 0.78833,-2.16062c0.52555,-0.56448 1.09005,-0.95377 1.69346,-1.16789c0.62288,-0.21412 1.62532,-0.46716 3.00734,-0.75914c1.40148,-0.29198 2.53044,-0.56449 3.3869,-0.81753c-0.01946,-0.99272 -0.22384,-1.66425 -0.61314,-2.01462c-0.3893,-0.35037 -0.97325,-0.52555 -1.75185,-0.52555c-1.51827,0 -2.51098,0.4185 -2.97814,1.25549c-0.25304,0.46716 -0.48662,0.80779 -0.70074,1.02191c-0.19464,0.19465 -0.4769,0.29197 -0.84672,0.29197c-0.35037,0 -0.67155,-0.10705 -0.96352,-0.32117c-0.27251,-0.23358 -0.40877,-0.53529 -0.40877,-0.90512c0,-0.85646 0.45743,-1.67399 1.37229,-2.45258c0.93432,-0.77859 2.40393,-1.1679 4.40882,-1.1679c2.02436,0 3.50369,0.35037 4.43801,1.05111c0.95378,0.70074 1.40148,2.12167 1.34309,4.26282l-0.0584,3.09493c-0.03893,0.97325 0.05839,1.76158 0.29197,2.36499c0.23358,0.60341 0.35037,1.07057 0.35037,1.40148c0,0.35037 -0.15572,0.6618 -0.46716,0.93431c-0.31144,0.25304 -0.66181,0.37957 -1.05111,0.37957c-0.68128,0 -1.39175,-0.62288 -2.13142,-1.86864zM438.70572,169.51116c-0.50609,0.19465 -1.33335,0.40877 -2.48179,0.64235c-1.12896,0.21412 -1.93677,0.46715 -2.42339,0.75913c-0.46716,0.29198 -0.70074,0.72021 -0.70074,1.28469c0,0.46716 0.18492,0.88566 0.55475,1.25549c0.3893,0.36983 0.93432,0.55476 1.63506,0.55476c0.7202,0 1.39174,-0.19464 2.01462,-0.58395c0.64234,-0.40876 1.03165,-0.88566 1.1679,-1.43068c0.15573,-0.56448 0.23358,-1.39175 0.23358,-2.48179zM445.30101,173.42362v-8.49646c0,-1.49881 0.54501,-2.2482 1.63505,-2.2482c1.05111,0 1.5864,0.691 1.60586,2.07302c0.70074,-1.38201 1.65452,-2.07302 2.86135,-2.07302c0.64234,0 1.30415,0.17518 1.98543,0.52555c0.68128,0.33091 1.02191,0.78833 1.02191,1.37228c0,0.38931 -0.13625,0.7202 -0.40877,0.99272c-0.27251,0.27251 -0.56449,0.40876 -0.87592,0.40876c-0.17518,0 -0.49635,-0.06813 -0.96351,-0.20438c-0.46716,-0.15572 -0.86619,-0.23358 -1.1971,-0.23358c-0.77859,0 -1.36254,0.39903 -1.75185,1.1971c-0.3893,0.79807 -0.58395,2.34553 -0.58395,4.64239v1.92703c0,0.83699 -0.03894,1.41122 -0.11679,1.72265c-0.0584,0.29198 -0.23358,0.55475 -0.52555,0.78833c-0.29197,0.23358 -0.63261,0.35037 -1.02191,0.35037c-0.36983,0 -0.70074,-0.10706 -0.99271,-0.32118c-0.29197,-0.21412 -0.4769,-0.46715 -0.55475,-0.75913c-0.07785,-0.29198 -0.11679,-0.84672 -0.11679,-1.66425zM458.85898,164.89796c1.18736,-1.47933 2.63751,-2.21901 4.35042,-2.21901c1.69345,0 3.03654,0.64234 4.02925,1.92703c1.01218,1.28469 1.51827,2.93921 1.51827,4.96357c0,1.92703 -0.49635,3.51343 -1.48907,4.75919c-0.97325,1.22629 -2.32606,1.83944 -4.05845,1.83944c-1.65452,0 -3.10467,-0.68128 -4.35042,-2.04382v4.32122c0,1.18736 -0.14598,1.92703 -0.43796,2.21901c-0.29197,0.29198 -0.69101,0.43796 -1.19709,0.43796c-0.60341,0 -1.03165,-0.20438 -1.28469,-0.61315c-0.25304,-0.38931 -0.37957,-1.09977 -0.37957,-2.13142v-13.10966c0,-0.68127 0.0292,-1.17764 0.08759,-1.48907c0.0584,-0.33091 0.23358,-0.59368 0.52555,-0.78833c0.29197,-0.19465 0.64234,-0.29198 1.05111,-0.29198c1.09004,0 1.63505,0.62288 1.63505,1.86864zM465.39921,169.51116c0,-1.45988 -0.31144,-2.54018 -0.93432,-3.24092c-0.60341,-0.70074 -1.31388,-1.05111 -2.13141,-1.05111c-0.95378,0 -1.74212,0.36011 -2.365,1.08031c-0.60341,0.70074 -0.90512,1.69345 -0.90512,2.97814c0,1.34309 0.29197,2.40393 0.87592,3.18252c0.60341,0.77859 1.41122,1.1679 2.42339,1.1679c0.89538,0 1.62532,-0.3601 2.18981,-1.0803c0.56448,-0.73967 0.84672,-1.75185 0.84672,-3.03654zM479.39529,162.97093v-1.98543c0,-0.81753 0.03893,-1.37228 0.11679,-1.66425c0.07785,-0.31143 0.25304,-0.57421 0.52555,-0.78833c0.29197,-0.23358 0.63261,-0.35037 1.02191,-0.35037c0.35037,0 0.67154,0.10705 0.96351,0.32117c0.29197,0.19465 0.4769,0.4477 0.55475,0.75914c0.09733,0.29198 0.14599,0.77859 0.14599,1.45987v2.24821h0.64234c0.81753,0 1.35282,0.09733 1.60586,0.29197c0.27251,0.19465 0.40877,0.48662 0.40877,0.87593c0,0.81753 -0.68128,1.22629 -2.04382,1.22629h-0.61315v6.13147c0,0.83699 0.0584,1.40148 0.17518,1.69346c0.11679,0.29198 0.42823,0.43796 0.93432,0.43796c0.25304,0 0.52555,-0.02919 0.81752,-0.08759c0.31144,-0.07785 0.54501,-0.11679 0.70074,-0.11679c0.33091,0 0.59369,0.11679 0.78833,0.35037c0.21412,0.21412 0.32117,0.4769 0.32117,0.78833c0,1.07057 -1.14844,1.60586 -3.4453,1.60586c-1.10951,0 -1.92703,-0.20438 -2.45258,-0.61315c-0.52555,-0.40876 -0.85646,-0.90512 -0.99271,-1.48907c-0.11679,-0.60341 -0.17518,-1.38202 -0.17518,-2.3358v-6.36505h-0.43796c-0.97325,0 -1.45988,-0.39903 -1.45988,-1.19709c0,-0.79807 0.51582,-1.19709 1.54746,-1.19709zM493.46749,162.67896c2.06329,0 3.67888,0.63261 4.84678,1.89783c1.18736,1.26522 1.78105,2.88081 1.78105,4.84678c0,1.96597 -0.59368,3.58156 -1.78105,4.84678c-1.18736,1.26522 -2.77376,1.89784 -4.75919,1.89784c-2.14115,0 -3.79567,-0.63261 -4.96357,-1.89784c-1.14844,-1.28469 -1.72265,-2.90028 -1.72265,-4.84678c0,-1.96597 0.58395,-3.58155 1.75185,-4.84678c1.18736,-1.26522 2.80296,-1.89783 4.84678,-1.89783zM493.46749,173.7156c1.01218,0 1.81024,-0.37957 2.39419,-1.13871c0.58395,-0.75913 0.87592,-1.81024 0.87592,-3.15332c0,-1.34309 -0.29197,-2.39419 -0.87592,-3.15332c-0.58395,-0.75913 -1.38202,-1.1387 -2.39419,-1.1387c-0.97325,0 -1.76158,0.38931 -2.36499,1.1679c-0.58395,0.75913 -0.87592,1.8005 -0.87592,3.12412c0,1.34309 0.29197,2.39419 0.87592,3.15332c0.58395,0.75913 1.37228,1.13871 2.36499,1.13871z" fill="#cdcdcd" stroke="none" stroke-width="1" stroke-linecap="square"/><path d="M183.91629,203.32182v-8.49645c0,-1.49881 0.54501,-2.24821 1.63505,-2.24821c1.05111,0 1.5864,0.69101 1.60586,2.07302c0.70074,-1.38201 1.65452,-2.07302 2.86135,-2.07302c0.64235,0 1.30415,0.17518 1.98543,0.52555c0.68127,0.33091 1.02191,0.78833 1.02191,1.37228c0,0.38931 -0.13625,0.72019 -0.40877,0.99271c-0.27251,0.27251 -0.56449,0.40877 -0.87592,0.40877c-0.17518,0 -0.49635,-0.06813 -0.96352,-0.20438c-0.46716,-0.15572 -0.86619,-0.23358 -1.1971,-0.23358c-0.77859,0 -1.36254,0.39903 -1.75185,1.19709c-0.3893,0.79807 -0.58395,2.34553 -0.58395,4.64239v1.92704c0,0.83699 -0.03893,1.41121 -0.11679,1.72265c-0.0584,0.29198 -0.23358,0.55476 -0.52555,0.78833c-0.29197,0.23358 -0.63261,0.35037 -1.02191,0.35037c-0.36983,0 -0.70074,-0.10706 -0.99272,-0.32118c-0.29197,-0.21412 -0.47689,-0.46716 -0.55475,-0.75913c-0.07785,-0.29198 -0.11679,-0.84672 -0.11679,-1.66425zM203.48893,200.1393h-6.51103c0.03893,1.22629 0.37956,2.16061 1.02191,2.80295c0.64235,0.62288 1.41121,0.93432 2.3066,0.93432c1.1095,0 2.15088,-0.48663 3.12413,-1.45988c0.40877,-0.40876 0.70074,-0.6618 0.87592,-0.75913c0.19464,-0.09733 0.4185,-0.14598 0.67154,-0.14598c0.29197,0 0.54502,0.09733 0.75914,0.29197c0.21412,0.17518 0.32117,0.40877 0.32117,0.70074c0,0.73967 -0.51582,1.51826 -1.54747,2.33579c-1.01217,0.81753 -2.39419,1.22629 -4.14603,1.22629c-2.219,0 -3.90273,-0.62288 -5.05116,-1.86864c-1.14844,-1.24576 -1.72265,-2.87109 -1.72265,-4.87598c0,-2.00489 0.57421,-3.63022 1.72265,-4.87597c1.14844,-1.24576 2.74456,-1.86864 4.78838,-1.86864c1.96596,0 3.4745,0.59368 4.5256,1.78105c1.07057,1.1679 1.60586,2.44285 1.60586,3.82486c0,0.60341 -0.17518,1.08031 -0.52555,1.43068c-0.35037,0.35037 -1.09005,0.52555 -2.21901,0.52555zM196.9779,198.27067h6.04387c-0.03893,-1.10951 -0.35036,-1.95623 -0.93431,-2.54018c-0.56449,-0.58395 -1.25549,-0.87592 -2.07302,-0.87592c-1.77131,0 -2.7835,1.13871 -3.03654,3.41611zM218.08433,204.16855v-0.32118c-1.12896,1.47933 -2.56938,2.21901 -4.32123,2.21901c-1.69345,0 -3.04627,-0.64234 -4.05844,-1.92703c-0.99272,-1.28469 -1.48907,-2.94895 -1.48907,-4.99277c0,-1.92703 0.48662,-3.50369 1.45987,-4.72998c0.97325,-1.22629 2.32606,-1.83944 4.05845,-1.83944c1.67399,0 3.12413,0.68127 4.35042,2.04382v-4.32122c0,-1.18736 0.14598,-1.92703 0.43796,-2.21901c0.31143,-0.29198 0.72993,-0.43796 1.25549,-0.43796c0.35037,0 0.67154,0.10705 0.96352,0.32117c0.31143,0.19465 0.49636,0.45742 0.55476,0.78833c0.07785,0.33091 0.11679,0.88566 0.11679,1.66426v13.08046c0,0.73967 -0.03894,1.26523 -0.11679,1.57666c-0.07785,0.31143 -0.27251,0.55475 -0.58395,0.72994c-0.29198,0.17518 -0.61315,0.26278 -0.96352,0.26278c-1.10951,0 -1.66425,-0.63261 -1.66425,-1.89783zM211.57329,199.23418c0,1.49881 0.31144,2.58884 0.93432,3.27012c0.62288,0.68127 1.34308,1.02191 2.16061,1.02191c0.93432,0 1.70319,-0.35037 2.3066,-1.05111c0.62288,-0.7202 0.93432,-1.72264 0.93432,-3.00734c0,-1.32362 -0.30171,-2.38446 -0.90512,-3.18252c-0.58395,-0.79807 -1.37228,-1.19709 -2.36499,-1.19709c-0.89539,0 -1.63506,0.36983 -2.21901,1.1095c-0.56449,0.73967 -0.84673,1.75185 -0.84673,3.03654zM224.48221,201.13202v-5.81029c0,-0.7202 0.0292,-1.23603 0.08759,-1.54746c0.05839,-0.33091 0.23358,-0.61315 0.52555,-0.84673c0.29198,-0.23358 0.64235,-0.35037 1.05111,-0.35037c0.38931,0 0.72993,0.11679 1.02191,0.35037c0.29198,0.21412 0.46716,0.49636 0.52555,0.84673c0.07785,0.35037 0.11679,0.88566 0.11679,1.60586v4.55481c0,1.51827 0.23358,2.49152 0.70074,2.91975c0.46716,0.40876 0.98298,0.61314 1.54746,0.61314c0.64235,0 1.1971,-0.17518 1.66426,-0.52555c0.48662,-0.36983 0.81753,-0.80779 0.99271,-1.31388c0.17518,-0.50609 0.26278,-1.50853 0.26278,-3.00734v-3.29931c0,-0.70074 0.0292,-1.21655 0.08759,-1.54746c0.07785,-0.35037 0.26278,-0.63261 0.55476,-0.84673c0.29198,-0.23358 0.64234,-0.35037 1.05111,-0.35037c0.36983,0 0.70074,0.11679 0.99272,0.35037c0.31143,0.21412 0.49635,0.48662 0.55475,0.81753c0.05839,0.31143 0.08759,0.837 0.08759,1.57666v8.20449c0,0.6618 -0.03893,1.14844 -0.11679,1.45987c-0.05839,0.29198 -0.21412,0.54501 -0.46716,0.75913c-0.25304,0.21412 -0.57421,0.32118 -0.96352,0.32118c-1.07057,0 -1.5864,-0.75913 -1.54746,-2.2774c-1.10951,1.51827 -2.56938,2.2774 -4.37962,2.2774c-1.20683,0 -2.23847,-0.35037 -3.09493,-1.05111c-0.83699,-0.7202 -1.25549,-2.01462 -1.25549,-3.88326zM250.12389,200.51887c0.40876,0 0.73967,0.16545 0.99271,0.49636c0.27251,0.31143 0.40877,0.63261 0.40877,0.96352c0,0.89539 -0.53529,1.80051 -1.60586,2.71537c-1.07057,0.91485 -2.51099,1.37228 -4.32122,1.37228c-2.18007,0 -3.82486,-0.61315 -4.93437,-1.83944c-1.10951,-1.24576 -1.66425,-2.85161 -1.66425,-4.81758c0,-2.00489 0.57421,-3.63995 1.72265,-4.90518c1.14844,-1.28469 2.7835,-1.92703 4.90518,-1.92703c1.65452,0 3.0268,0.43796 4.11684,1.31388c1.09004,0.85646 1.63506,1.70319 1.63506,2.54018c0,0.40876 -0.14599,0.74939 -0.43797,1.02191c-0.29198,0.27251 -0.64234,0.40876 -1.0511,0.40876c-0.48662,0 -0.86619,-0.20439 -1.1387,-0.61315c-0.60341,-0.93432 -1.13871,-1.51827 -1.60587,-1.75185c-0.46716,-0.25304 -0.97325,-0.37957 -1.51826,-0.37957c-1.07057,0 -1.89784,0.40876 -2.48179,1.22629c-0.56448,0.79807 -0.84672,1.81024 -0.84672,3.03654c0,1.24576 0.30171,2.26767 0.90512,3.06573c0.60341,0.77859 1.41121,1.1679 2.42339,1.1679c0.56448,0 1.09004,-0.13625 1.57666,-0.40876c0.48662,-0.27251 0.90512,-0.68128 1.25549,-1.2263c0.35037,-0.54502 0.6326,-0.92458 0.84672,-1.1387c0.21412,-0.21412 0.48662,-0.32117 0.81753,-0.32117zM263.69737,200.1393h-6.51103c0.03894,1.22629 0.37957,2.16061 1.02192,2.80295c0.64235,0.62288 1.41121,0.93432 2.30659,0.93432c1.10951,0 2.15088,-0.48663 3.12413,-1.45988c0.40876,-0.40876 0.70074,-0.6618 0.87592,-0.75913c0.19465,-0.09733 0.4185,-0.14598 0.67154,-0.14598c0.29198,0 0.54502,0.09733 0.75914,0.29197c0.21412,0.17518 0.32117,0.40877 0.32117,0.70074c0,0.73967 -0.51582,1.51826 -1.54746,2.33579c-1.01218,0.81753 -2.39419,1.22629 -4.14604,1.22629c-2.21901,0 -3.90273,-0.62288 -5.05116,-1.86864c-1.14844,-1.24576 -1.72265,-2.87109 -1.72265,-4.87598c0,-2.00489 0.57421,-3.63022 1.72265,-4.87597c1.14844,-1.24576 2.74456,-1.86864 4.78839,-1.86864c1.96597,0 3.47449,0.59368 4.5256,1.78105c1.07057,1.1679 1.60586,2.44285 1.60586,3.82486c0,0.60341 -0.17518,1.08031 -0.52555,1.43068c-0.35037,0.35037 -1.09004,0.52555 -2.21901,0.52555zM257.18633,198.27067h6.04388c-0.03894,-1.10951 -0.35037,-1.95623 -0.93432,-2.54018c-0.56448,-0.58395 -1.25549,-0.87592 -2.07302,-0.87592c-1.77131,0 -2.7835,1.13871 -3.03654,3.41611zM279.93466,190.38735v12.93447c0,0.81753 -0.03893,1.37228 -0.11679,1.66425c-0.05839,0.27251 -0.24332,0.52555 -0.55476,0.75913c-0.29198,0.21412 -0.61315,0.32118 -0.96352,0.32118c-0.35037,0 -0.68128,-0.10706 -0.99272,-0.32118c-0.31143,-0.21412 -0.50609,-0.46716 -0.58394,-0.75913c-0.05839,-0.31143 -0.08759,-0.86619 -0.08759,-1.66425v-12.93447c0,-0.81753 0.03893,-1.37228 0.11679,-1.66425c0.07785,-0.29198 0.26278,-0.54502 0.55475,-0.75914c0.29198,-0.21412 0.61315,-0.32117 0.96352,-0.32117c0.40876,0 0.75913,0.11679 1.05111,0.35037c0.29198,0.23358 0.46716,0.50609 0.52555,0.81753c0.05839,0.31143 0.08759,0.837 0.08759,1.57666zM291.76431,204.19775c-1.57666,1.24576 -3.12412,1.86864 -4.64239,1.86864c-1.44041,0 -2.54992,-0.36011 -3.32851,-1.08031c-0.75913,-0.73967 -1.1387,-1.63505 -1.1387,-2.68616c0,-0.89539 0.26278,-1.6156 0.78833,-2.16061c0.52555,-0.56448 1.09004,-0.95378 1.69345,-1.1679c0.62288,-0.21412 1.62533,-0.46715 3.00734,-0.75913c1.40148,-0.29198 2.53044,-0.56449 3.3869,-0.81753c-0.01946,-0.99272 -0.22384,-1.66426 -0.61315,-2.01463c-0.38931,-0.35037 -0.97325,-0.52555 -1.75185,-0.52555c-1.51827,0 -2.51098,0.4185 -2.97814,1.25549c-0.25304,0.46716 -0.48662,0.80779 -0.70074,1.02191c-0.19465,0.19465 -0.47689,0.29198 -0.84672,0.29198c-0.35037,0 -0.67154,-0.10705 -0.96352,-0.32117c-0.27251,-0.23358 -0.40877,-0.53529 -0.40877,-0.90512c0,-0.85646 0.45743,-1.67399 1.37228,-2.45259c0.93432,-0.77859 2.40392,-1.1679 4.40881,-1.1679c2.02436,0 3.50369,0.35037 4.43802,1.05111c0.95378,0.70074 1.40148,2.12168 1.34308,4.26283l-0.0584,3.09493c-0.03894,0.97325 0.0584,1.76158 0.29198,2.36499c0.23358,0.60341 0.35037,1.07057 0.35037,1.40148c0,0.35037 -0.15573,0.6618 -0.46716,0.93431c-0.31143,0.25304 -0.6618,0.37957 -1.0511,0.37957c-0.68127,0 -1.39175,-0.62288 -2.13142,-1.86864zM291.55992,199.40937c-0.50609,0.19465 -1.33335,0.40876 -2.48178,0.64234c-1.12896,0.21412 -1.93677,0.46716 -2.42339,0.75914c-0.46716,0.29198 -0.70074,0.7202 -0.70074,1.28469c0,0.46716 0.18492,0.88566 0.55475,1.25549c0.38931,0.36983 0.93432,0.55475 1.63506,0.55475c0.7202,0 1.39174,-0.19464 2.01462,-0.58395c0.64235,-0.40876 1.03164,-0.88566 1.16789,-1.43068c0.15572,-0.56448 0.23358,-1.39174 0.23358,-2.48178zM306.93634,194.85456v-0.46716c0,-0.60341 0.14598,-1.05111 0.43796,-1.34308c0.31143,-0.31143 0.691,-0.46716 1.1387,-0.46716c0.50609,0 0.89539,0.17518 1.1679,0.52555c0.27251,0.35037 0.40876,1.1095 0.40876,2.2774v8.93442c0,2.62777 -0.56449,4.39909 -1.69346,5.31394c-1.10951,0.91485 -2.71536,1.37228 -4.81758,1.37228c-1.8881,0 -3.36744,-0.35037 -4.43801,-1.05111c-1.05111,-0.70074 -1.57667,-1.44041 -1.57667,-2.21901c0,-0.40876 0.13625,-0.73968 0.40877,-0.99272c0.27251,-0.25304 0.60341,-0.37956 0.99272,-0.37956c0.35037,0 0.62288,0.07785 0.81752,0.23358c0.21412,0.17518 0.56449,0.57422 1.05111,1.1971c0.50609,0.62288 1.34308,0.93431 2.51098,0.93431c0.6618,0 1.26523,-0.10705 1.81025,-0.32117c0.56448,-0.19465 0.97325,-0.55475 1.22629,-1.0803c0.27251,-0.50609 0.39903,-1.75185 0.37957,-3.73728c-1.01218,1.45988 -2.39419,2.18981 -4.14604,2.18981c-1.69345,0 -3.03653,-0.63261 -4.02925,-1.89783c-0.99272,-1.26522 -1.48907,-2.89055 -1.48907,-4.87598c0,-1.96597 0.50609,-3.52316 1.51827,-4.67159c1.01218,-1.1679 2.33579,-1.75185 3.97086,-1.75185c1.77131,0 3.22146,0.75913 4.35042,2.2774zM300.45451,199.26338c0,1.28469 0.28224,2.26767 0.84672,2.94895c0.56448,0.68127 1.34308,1.02191 2.33579,1.02191c0.83699,0 1.56693,-0.33091 2.18981,-0.99272c0.62288,-0.6618 0.93432,-1.64479 0.93432,-2.94894c0,-1.28469 -0.29198,-2.29686 -0.87592,-3.03653c-0.56448,-0.75913 -1.33335,-1.13871 -2.3066,-1.13871c-0.93432,0 -1.69345,0.35037 -2.2774,1.05111c-0.56448,0.70074 -0.84672,1.73238 -0.84672,3.09493zM326.15876,211.00076c-0.60341,0 -1.06085,-0.11679 -1.37228,-0.35037c-0.31143,-0.21412 -0.84673,-0.93432 -1.60586,-2.16062c-0.73967,-1.22629 -1.35282,-2.64723 -1.83944,-4.26282c-0.46716,-1.6156 -0.70073,-3.25066 -0.70073,-4.90518c0,-1.77131 0.27251,-3.51343 0.81752,-5.22634c0.54502,-1.73238 1.17763,-3.15332 1.89783,-4.26282c0.73967,-1.12896 1.24576,-1.77131 1.51827,-1.92704c0.27251,-0.17518 0.70074,-0.26278 1.28469,-0.26278c0.35037,0 0.52555,0.09733 0.52555,0.29198c0,0.09733 -0.26278,0.71048 -0.78833,1.83944c-0.52555,1.10951 -1.01218,2.58883 -1.45988,4.43801c-0.4477,1.8297 -0.67154,3.53289 -0.67154,5.10956c0,1.6156 0.22384,3.34798 0.67154,5.19715c0.4477,1.84918 0.93432,3.29931 1.45988,4.35042c0.52555,1.07057 0.78833,1.68372 0.78833,1.83944c0,0.19465 -0.17518,0.29198 -0.52555,0.29198zM332.93157,190.38735v12.93447c0,0.81753 -0.03894,1.37228 -0.11679,1.66425c-0.05839,0.27251 -0.24331,0.52555 -0.55475,0.75913c-0.29198,0.21412 -0.61315,0.32118 -0.96352,0.32118c-0.35037,0 -0.68128,-0.10706 -0.99272,-0.32118c-0.31143,-0.21412 -0.5061,-0.46716 -0.58395,-0.75913c-0.05839,-0.31143 -0.08759,-0.86619 -0.08759,-1.66425v-12.93447c0,-0.81753 0.03894,-1.37228 0.11679,-1.66425c0.07785,-0.29198 0.26278,-0.54502 0.55475,-0.75914c0.29198,-0.21412 0.61315,-0.32117 0.96352,-0.32117c0.40876,0 0.75913,0.11679 1.05111,0.35037c0.29198,0.23358 0.46716,0.50609 0.52555,0.81753c0.05839,0.31143 0.08759,0.837 0.08759,1.57666zM338.04581,187.78878c0.42822,0 0.79807,0.16545 1.1095,0.49636c0.33091,0.31143 0.49636,0.68127 0.49636,1.1095c0,0.4477 -0.16545,0.83699 -0.49636,1.1679c-0.31143,0.31143 -0.68127,0.46716 -1.1095,0.46716c-0.4477,0 -0.83699,-0.15573 -1.1679,-0.46716c-0.31143,-0.33091 -0.46716,-0.7202 -0.46716,-1.1679c0,-0.42822 0.15573,-0.79807 0.46716,-1.1095c0.33091,-0.33091 0.7202,-0.49636 1.1679,-0.49636zM339.68086,195.29252v8.0293c0,0.79807 -0.03894,1.34309 -0.11679,1.63506c-0.05839,0.29198 -0.24331,0.55475 -0.55475,0.78833c-0.29198,0.21412 -0.61315,0.32118 -0.96352,0.32118c-0.35037,0 -0.68128,-0.10706 -0.99272,-0.32118c-0.31143,-0.21412 -0.50609,-0.46716 -0.58395,-0.75913c-0.05839,-0.31143 -0.08759,-0.86619 -0.08759,-1.66425v-8.0001c0,-0.73967 0.0292,-1.25549 0.08759,-1.54746c0.05839,-0.31143 0.23358,-0.58395 0.52555,-0.81753c0.29198,-0.25304 0.6326,-0.37957 1.02191,-0.37957c0.38931,0 0.72993,0.10705 1.02191,0.32117c0.29198,0.21412 0.46716,0.48662 0.52555,0.81753c0.07785,0.33091 0.11679,0.85646 0.11679,1.57666zM354.83901,197.8911v5.43072c0,0.7202 -0.02919,1.23604 -0.08759,1.54747c-0.0584,0.31143 -0.23358,0.59368 -0.52555,0.84672c-0.29197,0.23358 -0.63261,0.35037 -1.02191,0.35037c-0.36983,0 -0.71047,-0.10706 -1.02191,-0.32118c-0.29197,-0.21412 -0.4769,-0.48662 -0.55476,-0.81753c-0.07785,-0.35037 -0.11679,-0.88566 -0.11679,-1.60586v-4.75919c0,-1.34309 -0.20438,-2.23847 -0.61314,-2.68616c-0.3893,-0.46716 -0.93432,-0.70074 -1.63506,-0.70074c-0.62288,0 -1.17763,0.18492 -1.66425,0.55476c-0.46716,0.35037 -0.79807,0.8078 -0.99271,1.37228c-0.19464,0.54502 -0.29197,1.47933 -0.29197,2.80295v3.4161c0,0.70074 -0.0292,1.21656 -0.0876,1.54747c-0.0584,0.31143 -0.23357,0.59368 -0.52555,0.84672c-0.29198,0.23358 -0.63261,0.35037 -1.02192,0.35037c-0.36983,0 -0.71048,-0.10706 -1.02191,-0.32118c-0.31143,-0.21412 -0.49636,-0.48662 -0.55475,-0.81753c-0.05839,-0.35037 -0.08759,-0.88566 -0.08759,-1.60586v-8.17529c0,-0.73967 0.0292,-1.25549 0.08759,-1.54746c0.07785,-0.29198 0.25304,-0.53529 0.52556,-0.72994c0.27251,-0.19465 0.58394,-0.29198 0.93431,-0.29198c0.33091,0 0.67154,0.12653 1.02191,0.37957c0.35037,0.25304 0.52555,0.87592 0.52555,1.86864c1.10951,-1.49881 2.54019,-2.24821 4.29203,-2.24821c0.66181,0 1.31389,0.12653 1.95623,0.37957c0.66181,0.25304 1.19709,0.66181 1.60586,1.22629c0.40877,0.56448 0.65208,1.14844 0.72993,1.75185c0.09733,0.60341 0.14598,1.25549 0.14598,1.95623zM363.51696,199.73054l-1.83943,1.72265v1.60586c0,0.81753 -0.0292,1.40148 -0.0876,1.75185c-0.03893,0.33091 -0.21412,0.62288 -0.52555,0.87592c-0.29197,0.25304 -0.64234,0.37957 -1.05111,0.37957c-0.36983,0 -0.71048,-0.10706 -1.02191,-0.32118c-0.29197,-0.21412 -0.46716,-0.47689 -0.52555,-0.78833c-0.0584,-0.31143 -0.08759,-0.88566 -0.08759,-1.72265v-12.7009c0,-1.20683 0.14598,-1.98542 0.43796,-2.33579c0.29197,-0.36983 0.72021,-0.55475 1.28469,-0.55475c0.42822,0 0.76887,0.11679 1.02191,0.35037c0.25304,0.23358 0.40876,0.51582 0.46716,0.84673c0.0584,0.33091 0.0876,0.86619 0.0876,1.60586v7.32856l3.76647,-3.91246c0.56448,-0.60341 0.95378,-0.96351 1.1679,-1.0803c0.21412,-0.13625 0.46715,-0.20438 0.75913,-0.20438c0.42822,0 0.7786,0.13625 1.05111,0.40877c0.27251,0.27251 0.40876,0.57421 0.40876,0.90512c0,0.48662 -0.45743,1.15816 -1.37228,2.01462l-1.75185,1.63506l3.38691,5.34313c0.48662,0.75913 0.72994,1.31388 0.72994,1.66425c0,0.38931 -0.14599,0.73968 -0.43797,1.05111c-0.27251,0.31143 -0.65208,0.46716 -1.1387,0.46716c-0.3893,0 -0.71048,-0.11679 -0.96352,-0.35037c-0.25304,-0.23358 -0.54501,-0.62288 -0.87592,-1.1679zM382.85181,203.84738v0.32118c0,1.26522 -0.54502,1.89783 -1.63506,1.89783c-0.42822,0 -0.78833,-0.10706 -1.08031,-0.32118c-0.27251,-0.21412 -0.43796,-0.47689 -0.49636,-0.78833c-0.0584,-0.31143 -0.08759,-0.79807 -0.08759,-1.45988v-13.08046c0,-0.75913 0.02919,-1.31389 0.08759,-1.66426c0.07785,-0.35037 0.26278,-0.62288 0.55476,-0.81752c0.31144,-0.19465 0.64234,-0.29198 0.99271,-0.29198c0.50609,0 0.90513,0.14598 1.1971,0.43796c0.31144,0.29198 0.46715,1.03164 0.46715,2.21901v4.32122c1.24575,-1.36255 2.70563,-2.04382 4.37962,-2.04382c1.71292,0 3.056,0.61315 4.02925,1.83944c0.99271,1.22629 1.48907,2.80295 1.48907,4.72998c0,2.04382 -0.5061,3.70808 -1.51827,4.99277c-0.99271,1.28469 -2.34553,1.92703 -4.05845,1.92703c-1.73239,0 -3.17279,-0.73968 -4.32122,-2.21901zM383.02699,199.46776c0,1.28469 0.31144,2.28714 0.93432,3.00734c0.62288,0.70074 1.40147,1.05111 2.33579,1.05111c0.79807,0 1.50853,-0.34063 2.13142,-1.02191c0.64234,-0.68127 0.96352,-1.77131 0.96352,-3.27012c0,-1.28469 -0.29197,-2.28714 -0.87592,-3.00734c-0.56448,-0.73967 -1.29443,-1.10951 -2.18981,-1.10951c-1.01218,0 -1.81998,0.39903 -2.42339,1.1971c-0.58395,0.77859 -0.87592,1.8297 -0.87592,3.15332zM404.66596,200.1393h-6.51103c0.03893,1.22629 0.37957,2.16061 1.02192,2.80295c0.64234,0.62288 1.41121,0.93432 2.30659,0.93432c1.10951,0 2.15088,-0.48663 3.12413,-1.45988c0.40877,-0.40876 0.70074,-0.6618 0.87592,-0.75913c0.19464,-0.09733 0.4185,-0.14598 0.67154,-0.14598c0.29197,0 0.54502,0.09733 0.75914,0.29197c0.21412,0.17518 0.32117,0.40877 0.32117,0.70074c0,0.73967 -0.51582,1.51826 -1.54747,2.33579c-1.01218,0.81753 -2.39419,1.22629 -4.14604,1.22629c-2.219,0 -3.90272,-0.62288 -5.05116,-1.86864c-1.14844,-1.24576 -1.72265,-2.87109 -1.72265,-4.87598c0,-2.00489 0.57422,-3.63022 1.72265,-4.87597c1.14844,-1.24576 2.74457,-1.86864 4.78839,-1.86864c1.96596,0 3.47449,0.59368 4.5256,1.78105c1.07057,1.1679 1.60586,2.44285 1.60586,3.82486c0,0.60341 -0.17518,1.08031 -0.52555,1.43068c-0.35037,0.35037 -1.09004,0.52555 -2.21901,0.52555zM398.15493,198.27067h6.04388c-0.03893,-1.10951 -0.35037,-1.95623 -0.93432,-2.54018c-0.56448,-0.58395 -1.25549,-0.87592 -2.07302,-0.87592c-1.77131,0 -2.7835,1.13871 -3.03654,3.41611zM413.50946,190.38735v12.93447c0,0.81753 -0.03893,1.37228 -0.11679,1.66425c-0.0584,0.27251 -0.24332,0.52555 -0.55476,0.75913c-0.29197,0.21412 -0.61315,0.32118 -0.96352,0.32118c-0.35037,0 -0.68128,-0.10706 -0.99271,-0.32118c-0.31144,-0.21412 -0.50609,-0.46716 -0.58395,-0.75913c-0.0584,-0.31143 -0.08759,-0.86619 -0.08759,-1.66425v-12.93447c0,-0.81753 0.03893,-1.37228 0.11679,-1.66425c0.07785,-0.29198 0.26278,-0.54502 0.55475,-0.75914c0.29197,-0.21412 0.61315,-0.32117 0.96352,-0.32117c0.40877,0 0.75913,0.11679 1.05111,0.35037c0.29197,0.23358 0.46716,0.50609 0.52555,0.81753c0.0584,0.31143 0.0876,0.837 0.0876,1.57666zM422.74052,192.57716c2.06329,0 3.67888,0.63261 4.84678,1.89784c1.18736,1.26522 1.78104,2.88081 1.78104,4.84677c0,1.96597 -0.59368,3.58156 -1.78104,4.84678c-1.18736,1.26522 -2.77376,1.89783 -4.75919,1.89783c-2.14115,0 -3.79567,-0.63261 -4.96357,-1.89783c-1.14844,-1.28469 -1.72265,-2.90029 -1.72265,-4.84678c0,-1.96597 0.58395,-3.58155 1.75185,-4.84677c1.18736,-1.26522 2.80295,-1.89784 4.84677,-1.89784zM422.74052,203.6138c1.01218,0 1.81024,-0.37957 2.39419,-1.1387c0.58395,-0.75913 0.87592,-1.81024 0.87592,-3.15333c0,-1.34309 -0.29197,-2.39419 -0.87592,-3.15332c-0.58395,-0.75913 -1.38201,-1.1387 -2.39419,-1.1387c-0.97325,0 -1.76159,0.38931 -2.365,1.1679c-0.58395,0.75913 -0.87592,1.8005 -0.87592,3.12412c0,1.34309 0.29197,2.39419 0.87592,3.15333c0.58395,0.75913 1.37228,1.1387 2.365,1.1387zM436.23604,202.06633l1.95623,-6.8614c0.25304,-0.85646 0.43797,-1.41121 0.55476,-1.66425c0.13625,-0.27251 0.35037,-0.49635 0.64234,-0.67154c0.29197,-0.19465 0.62288,-0.29198 0.99271,-0.29198c0.58395,0 1.01218,0.15573 1.28469,0.46716c0.27251,0.31143 0.58395,1.03164 0.93432,2.16061l1.98543,6.8614l2.16061,-7.41615c0.23358,-0.77859 0.4477,-1.31388 0.64235,-1.60586c0.21412,-0.31143 0.58395,-0.46716 1.1095,-0.46716c0.36983,0 0.70074,0.14598 0.99271,0.43796c0.31144,0.27251 0.46716,0.59368 0.46716,0.96352c0,0.29198 -0.12653,0.79807 -0.37957,1.51827l-2.71536,7.9709c-0.29197,0.83699 -0.51581,1.39174 -0.67154,1.66426c-0.15573,0.27251 -0.37957,0.49635 -0.67154,0.67154c-0.27251,0.17518 -0.58395,0.26278 -0.93432,0.26278c-0.70074,0 -1.1971,-0.20439 -1.48907,-0.61315c-0.27251,-0.40876 -0.55475,-1.1095 -0.84672,-2.10222l-1.86864,-6.45264l-1.83944,6.45264c-0.23358,0.83699 -0.42822,1.40147 -0.58395,1.69345c-0.13625,0.29198 -0.3601,0.53529 -0.67154,0.72994c-0.31144,0.19465 -0.65208,0.29198 -1.02191,0.29198c-0.35037,0 -0.68128,-0.08759 -0.99272,-0.26278c-0.31144,-0.15572 -0.54501,-0.36983 -0.70073,-0.64235c-0.13625,-0.29198 -0.35037,-0.85646 -0.64235,-1.69345l-2.71536,-7.9709c-0.23358,-0.70074 -0.35037,-1.20684 -0.35037,-1.51827c0,-0.36983 0.13625,-0.691 0.40876,-0.96352c0.29197,-0.29198 0.64234,-0.43796 1.05111,-0.43796c0.50609,0 0.85646,0.14598 1.05111,0.43796c0.21412,0.29198 0.43797,0.837 0.67155,1.63506zM456.42549,192.0808l-0.52555,5.98548c-0.07785,0.87592 -0.23358,1.46961 -0.46716,1.78105c-0.21412,0.29198 -0.48661,0.43796 -0.81752,0.43796c-0.35037,0 -0.63261,-0.14598 -0.84673,-0.43796c-0.21412,-0.31143 -0.35037,-0.90512 -0.40877,-1.78105l-0.40876,-5.83949c-0.0584,-0.50609 -0.08759,-1.21656 -0.08759,-2.13142c0,-1.63506 0.62288,-2.45258 1.86863,-2.45258c0.54501,0 0.97325,0.18492 1.28469,0.55475c0.31144,0.36983 0.46716,1.06084 0.46716,2.07302c0,0.81753 -0.01946,1.42094 -0.05839,1.81024zM454.67364,202.4167c0.50609,0 0.93432,0.18492 1.28469,0.55476c0.36983,0.35037 0.55475,0.76887 0.55475,1.25549c0,0.50609 -0.18492,0.94405 -0.55475,1.31388c-0.35037,0.35037 -0.7786,0.52555 -1.28469,0.52555c-0.50609,0 -0.94405,-0.17518 -1.31388,-0.52555c-0.35037,-0.36983 -0.52555,-0.80779 -0.52555,-1.31388c0,-0.48662 0.18492,-0.90512 0.55475,-1.25549c0.36983,-0.36983 0.79806,-0.55476 1.28468,-0.55476zM460.57316,187.64279c0.60341,0 1.06084,0.11679 1.37228,0.35037c0.31144,0.21412 0.83699,0.93432 1.57666,2.16061c0.75914,1.22629 1.37228,2.64723 1.83944,4.26283c0.48662,1.6156 0.72994,3.25065 0.72994,4.90517c0,1.77131 -0.27251,3.52316 -0.81753,5.25555c-0.54501,1.71292 -1.18737,3.12412 -1.92704,4.23363c-0.7202,1.12896 -1.21655,1.77131 -1.48907,1.92703c-0.27251,0.17518 -0.70074,0.26278 -1.28469,0.26278c-0.35037,0 -0.52555,-0.09733 -0.52555,-0.29198c0,-0.07785 0.26278,-0.68128 0.78833,-1.81024c0.52555,-1.12896 1.01218,-2.60831 1.45987,-4.43801c0.4477,-1.84918 0.67154,-3.56209 0.67154,-5.13876c0,-1.6156 -0.22385,-3.34797 -0.67154,-5.19714c-0.4477,-1.84918 -0.93432,-3.29931 -1.45987,-4.35042c-0.52555,-1.07057 -0.78833,-1.68372 -0.78833,-1.83944c0,-0.19465 0.17518,-0.29198 0.52555,-0.29198z" fill="#cdcdcd" stroke="none" stroke-width="1" stroke-linecap="square"/></g></g></svg>