<svg version="1.1" xmlns="http://www.w3.org/2000/svg" xmlns:xlink="http://www.w3.org/1999/xlink" width="42.00001" height="44.75" viewBox="0,0,42.00001,44.75"><g transform="translate(-218.99999,-157.375)"><g data-paper-data="{&quot;isPaintingLayer&quot;:true}" fill-rule="nonzero" stroke-linejoin="miter" stroke-miterlimit="10" stroke-dasharray="" stroke-dashoffset="0" style="mix-blend-mode: normal"><path d="M220.75,198.625c0,-4.52692 0,-13.87508 0,-21.71429c0,-5.71431 0,-10.62682 0,-12.28571c0,-1.20083 0.92773,-2.25 2.10715,-2.25c0.29955,0 24.80203,0 33.42857,0c1.84541,0 2.96429,0.88986 2.96429,2.39286c0,7.55799 0,30.62036 0,34c0,1.1323 -0.88963,2.10714 -2.39285,2.10714c-7.38781,0 -29.59614,0 -33.85715,0c-1.40226,0 -2.25,-0.48893 -2.25,-2.25z" fill="#5b5b5b" stroke="#5b5b5b" stroke-width="2.5" stroke-linecap="butt"/><path d="M220.74999,195.375c0,-4.52692 0,-13.87508 0,-21.71429c0,-5.71431 0,-10.62682 0,-12.28571c0,-1.20083 0.92773,-2.25 2.10715,-2.25c0.29955,0 24.80203,0 33.42857,0c1.84541,0 2.96429,0.88986 2.96429,2.39286c0,7.55799 0,30.62036 0,34c0,1.1323 -0.88963,2.10714 -2.39285,2.10714c-7.38781,0 -29.59614,0 -33.85715,0c-1.40226,0 -2.25,-0.48893 -2.25,-2.25z" fill="#969696" stroke="#404040" stroke-width="3.5" stroke-linecap="butt"/><path d="M225.42856,191.08929c0,-5.74743 0,-22.10314 0,-25.28571c0,-1.04926 0.87738,-2 1.85714,-2c2.94835,0 18.03553,0 24.14286,0c1.59006,0 2.57143,1.12021 2.57143,2.42857c0,3.42127 0,18.96827 0,24.71429c0,0.77956 -0.31373,1.37872 -0.87409,1.74272c-0.4004,0.2601 -0.92672,0.40013 -1.55448,0.40013c-6.09762,0 -21.76599,0 -24.57143,0c-0.844,0 -1.57143,-0.74851 -1.57143,-2z" fill="#bdbdbd" stroke="#404040" stroke-width="0" stroke-linecap="butt"/><path d="M243.72301,171.83948v14.70431c0,1.74227 -0.58775,2.6134 -1.76326,2.6134c-0.39883,0 -0.79767,-0.12595 -1.19649,-0.37784c-0.39883,-0.27288 -0.59825,-0.96559 -0.59825,-2.07813v-11.58712c-2.24606,1.70029 -3.73643,2.55043 -4.47112,2.55043c-0.39883,0 -0.7347,-0.13645 -1.00757,-0.40933c-0.27288,-0.27288 -0.40933,-0.62973 -0.40933,-1.07055c0,-0.31487 0.09446,-0.57726 0.28338,-0.78717c0.20991,-0.23091 0.64024,-0.50379 1.29095,-0.81865c2.20408,-1.07055 3.74692,-2.29854 4.62855,-3.68395c0.35686,-0.56675 0.62973,-0.93409 0.81865,-1.10203c0.20991,-0.18892 0.49329,-0.28338 0.85014,-0.28338c1.04956,0 1.57433,0.77667 1.57433,2.33001z" fill="#2d2d2d" stroke="none" stroke-width="1" stroke-linecap="square"/></g></g></svg>