<svg version="1.1" xmlns="http://www.w3.org/2000/svg" xmlns:xlink="http://www.w3.org/1999/xlink" width="706.21021" height="368" viewBox="0,0,706.21021,368"><g transform="translate(23.10511,4)"><g data-paper-data="{&quot;isPaintingLayer&quot;:true}" fill-rule="nonzero" stroke-linejoin="miter" stroke-miterlimit="10" stroke-dasharray="" stroke-dashoffset="0" style="mix-blend-mode: normal"><path d="M-22.1051,363v-366h704.21021v366z" fill="#000000" stroke="#000000" stroke-width="2" stroke-linecap="butt"/><path d="M246.62329,131.536v11.75053c0,0.74019 -0.03084,1.27683 -0.09252,1.60991c-0.06168,0.32075 -0.24673,0.61066 -0.55514,0.86972c-0.30841,0.24673 -0.66,0.3701 -1.05477,0.3701c-0.4071,0 -0.76487,-0.1172 -1.07328,-0.35159c-0.30841,-0.23439 -0.49346,-0.51813 -0.55514,-0.85122c-0.04934,-0.34542 -0.07402,-0.8944 -0.07402,-1.64692v-11.75053h-3.14581c-0.67851,0 -1.1473,-0.02467 -1.40636,-0.07402c-0.24673,-0.06168 -0.46879,-0.20972 -0.66617,-0.44411c-0.19738,-0.23439 -0.29608,-0.5058 -0.29608,-0.81421c0,-0.23439 0.06168,-0.46262 0.18505,-0.68468c0.1357,-0.23439 0.31458,-0.39477 0.53664,-0.48112c0.22206,-0.09869 0.77103,-0.14804 1.64692,-0.14804h9.65949c0.78953,0 1.29533,0.03084 1.51739,0.09252c0.22206,0.06168 0.41944,0.20972 0.59215,0.44411c0.17271,0.23439 0.25907,0.49346 0.25907,0.7772c0,0.23439 -0.06785,0.46879 -0.20355,0.70318c-0.12336,0.22206 -0.30225,0.38243 -0.53664,0.48112c-0.22206,0.09869 -0.76487,0.14804 -1.62842,0.14804zM253.01206,143.50859v-8.08658c0,-1.4187 0.51813,-2.12805 1.5544,-2.12805c0.99926,0 1.51122,0.65384 1.5359,1.96151c0.65384,-1.30767 1.56057,-1.96151 2.7202,-1.96151c0.60449,0 1.23365,0.16037 1.88749,0.48112c0.65384,0.32075 0.98075,0.7587 0.98075,1.31384c0,0.38243 -0.1357,0.70318 -0.4071,0.96225c-0.25907,0.24673 -0.53664,0.3701 -0.83271,0.3701c-0.17271,0 -0.48112,-0.06785 -0.92524,-0.20355c-0.44411,-0.1357 -0.81421,-0.20355 -1.11029,-0.20355c-0.75253,0 -1.31384,0.38243 -1.68393,1.1473c-0.3701,0.75253 -0.55514,2.22057 -0.55514,4.40414v1.83197c0,0.80188 -0.03701,1.34468 -0.11103,1.62842c-0.06168,0.28374 -0.23439,0.54281 -0.51813,0.7772c-0.2714,0.22206 -0.58598,0.33309 -0.94374,0.33309c-0.35776,0 -0.67851,-0.10486 -0.96225,-0.31458c-0.2714,-0.20972 -0.44411,-0.45028 -0.51813,-0.72169c-0.07402,-0.28374 -0.11103,-0.81421 -0.11103,-1.59141zM270.79051,144.3413c-1.49272,1.19664 -2.96076,1.79496 -4.40414,1.79496c-1.36935,0 -2.42412,-0.34542 -3.16432,-1.03627c-0.72786,-0.70318 -1.09178,-1.5544 -1.09178,-2.55366c0,-0.86355 0.24673,-1.5544 0.74019,-2.07253c0.5058,-0.53047 1.0486,-0.90056 1.62842,-1.11029c0.59215,-0.20972 1.54823,-0.45028 2.86824,-0.72169c1.32001,-0.2714 2.38712,-0.5243 3.20133,-0.7587c-0.01233,-0.96225 -0.20355,-1.60991 -0.57365,-1.943c-0.3701,-0.33309 -0.93141,-0.49963 -1.68393,-0.49963c-1.43104,0 -2.36861,0.40093 -2.81272,1.20281c-0.24673,0.45645 -0.46879,0.78337 -0.66617,0.98075c-0.18505,0.18505 -0.45645,0.27757 -0.81421,0.27757c-0.33309,0 -0.63533,-0.10486 -0.90673,-0.31458c-0.2714,-0.22206 -0.4071,-0.51196 -0.4071,-0.86972c0,-0.81421 0.44411,-1.58524 1.33234,-2.3131c0.88823,-0.74019 2.28226,-1.11029 4.18208,-1.11029c1.9245,0 3.33086,0.33309 4.21909,0.99926c0.90056,0.66617 1.32617,2.01085 1.27683,4.03404l-0.07402,2.96076c-0.02467,0.92524 0.06785,1.67776 0.27757,2.25758c0.22206,0.56748 0.33309,1.00543 0.33309,1.31384c0,0.33309 -0.14804,0.62916 -0.44411,0.88823c-0.28374,0.25907 -0.61066,0.3886 -0.98075,0.3886c-0.6415,0 -1.32001,-0.59832 -2.03552,-1.79496zM270.58696,139.77063c-0.46879,0.18505 -1.24599,0.3886 -2.3316,0.61066c-1.08561,0.20972 -1.85665,0.45645 -2.3131,0.74019c-0.44411,0.2714 -0.66617,0.67851 -0.66617,1.22131c0,0.44411 0.17888,0.84505 0.53664,1.20281c0.35776,0.34542 0.86972,0.51813 1.5359,0.51813c0.69085,0 1.33234,-0.19122 1.9245,-0.57365c0.60449,-0.38243 0.97458,-0.83271 1.11029,-1.35085c0.1357,-0.53047 0.20355,-1.32001 0.20355,-2.36861zM277.37127,133.57153v-0.92524c0,-1.61609 0.33309,-2.69553 0.99926,-3.23833c0.67851,-0.54281 1.64075,-0.81421 2.88674,-0.81421c1.99852,0 2.99777,0.45028 2.99777,1.35085c0,0.28374 -0.09252,0.53664 -0.27757,0.7587c-0.18505,0.20972 -0.43794,0.31458 -0.7587,0.31458c-0.06168,0 -0.26524,-0.02467 -0.61066,-0.07402c-0.34542,-0.04934 -0.54281,-0.07402 -0.59215,-0.07402c-0.44411,0 -0.80804,0.1172 -1.09178,0.35159c-0.2714,0.23439 -0.4071,0.76487 -0.4071,1.59141v0.7587h0.81421c1.18431,0 1.77646,0.3701 1.77646,1.11029c0,0.35776 -0.1172,0.6415 -0.35159,0.85122c-0.22206,0.20972 -0.69701,0.31458 -1.42487,0.31458h-0.81421v7.66097c0,0.59215 -0.02467,1.04244 -0.07402,1.35085c-0.04934,0.30841 -0.19122,0.59832 -0.42561,0.86972c-0.22206,0.2714 -0.57982,0.4071 -1.07328,0.4071c-0.49346,0 -0.88206,-0.16654 -1.1658,-0.49963c-0.2714,-0.33309 -0.4071,-1.04244 -0.4071,-2.12805v-7.66097h-0.88823c-0.94991,0 -1.42487,-0.3886 -1.42487,-1.1658c0,-0.74019 0.5243,-1.11029 1.57291,-1.11029zM286.13791,133.57153v-0.92524c0,-1.61609 0.33309,-2.69553 0.99926,-3.23833c0.67851,-0.54281 1.64075,-0.81421 2.88674,-0.81421c1.99852,0 2.99777,0.45028 2.99777,1.35085c0,0.28374 -0.09252,0.53664 -0.27757,0.7587c-0.18505,0.20972 -0.43794,0.31458 -0.7587,0.31458c-0.06168,0 -0.26524,-0.02467 -0.61066,-0.07402c-0.34542,-0.04934 -0.54281,-0.07402 -0.59215,-0.07402c-0.44411,0 -0.80804,0.1172 -1.09178,0.35159c-0.2714,0.23439 -0.4071,0.76487 -0.4071,1.59141v0.7587h0.81421c1.18431,0 1.77646,0.3701 1.77646,1.11029c0,0.35776 -0.1172,0.6415 -0.35159,0.85122c-0.22206,0.20972 -0.69701,0.31458 -1.42487,0.31458h-0.81421v7.66097c0,0.59215 -0.02467,1.04244 -0.07402,1.35085c-0.04934,0.30841 -0.19122,0.59832 -0.42561,0.86972c-0.22206,0.2714 -0.57982,0.4071 -1.07328,0.4071c-0.49346,0 -0.88206,-0.16654 -1.1658,-0.49963c-0.2714,-0.33309 -0.4071,-1.04244 -0.4071,-2.12805v-7.66097h-0.88823c-0.94991,0 -1.42487,-0.3886 -1.42487,-1.1658c0,-0.74019 0.5243,-1.11029 1.57291,-1.11029zM295.42499,128.74178c0.41944,0 0.7772,0.15421 1.07328,0.46262c0.29608,0.30841 0.44411,0.66617 0.44411,1.07328c0,0.41944 -0.14804,0.78337 -0.44411,1.09178c-0.29608,0.29608 -0.65384,0.44411 -1.07328,0.44411c-0.41944,0 -0.78337,-0.14804 -1.09178,-0.44411c-0.29608,-0.30841 -0.44411,-0.67234 -0.44411,-1.09178c0,-0.41944 0.14804,-0.7772 0.44411,-1.07328c0.30841,-0.30841 0.67234,-0.46262 1.09178,-0.46262zM296.99789,135.86612v7.64247c0,0.76487 -0.03701,1.28916 -0.11103,1.57291c-0.06168,0.2714 -0.24056,0.51813 -0.53664,0.74019c-0.28374,0.20972 -0.59215,0.31458 -0.92524,0.31458c-0.33309,0 -0.64767,-0.10486 -0.94374,-0.31458c-0.29608,-0.22206 -0.48112,-0.47495 -0.55514,-0.7587c-0.06168,-0.28374 -0.09252,-0.80188 -0.09252,-1.5544v-7.62396c0,-0.69085 0.02467,-1.17814 0.07402,-1.46188c0.06168,-0.29608 0.23439,-0.55514 0.51813,-0.7772c0.28374,-0.23439 0.61066,-0.35159 0.98075,-0.35159c0.3701,0 0.69085,0.10486 0.96225,0.31458c0.2714,0.19738 0.44411,0.45645 0.51813,0.7772c0.07402,0.30841 0.11103,0.80188 0.11103,1.48038zM310.245,140.8439c0.38243,0 0.69701,0.15421 0.94374,0.46262c0.25907,0.29608 0.3886,0.59832 0.3886,0.90673c0,0.86355 -0.51196,1.73328 -1.5359,2.60917c-1.02393,0.87589 -2.39945,1.31384 -4.12656,1.31384c-2.07253,0 -3.63927,-0.58598 -4.70021,-1.75795c-1.0486,-1.18431 -1.57291,-2.7202 -1.57291,-4.60769c0,-1.89982 0.54897,-3.45422 1.64692,-4.6632c1.09795,-1.20898 2.65852,-1.81347 4.68171,-1.81347c1.56674,0 2.86207,0.41328 3.886,1.23982c1.03627,0.81421 1.5544,1.62225 1.5544,2.42412c0,0.38243 -0.14187,0.70318 -0.42561,0.96225c-0.2714,0.25907 -0.59215,0.3886 -0.96225,0.3886c-0.46879,0 -0.83271,-0.19738 -1.09178,-0.59215c-0.57982,-0.87589 -1.09178,-1.43104 -1.5359,-1.66543c-0.44411,-0.23439 -0.92524,-0.35159 -1.44337,-0.35159c-1.01159,0 -1.79496,0.3886 -2.35011,1.1658c-0.54281,0.76487 -0.81421,1.72711 -0.81421,2.88674c0,1.18431 0.28374,2.15272 0.85122,2.90525c0.57982,0.75253 1.35085,1.12879 2.3131,1.12879c0.54281,0 1.04244,-0.12953 1.49889,-0.3886c0.46879,-0.25907 0.86972,-0.64767 1.20281,-1.1658c0.33309,-0.53047 0.59832,-0.8944 0.79571,-1.09178c0.19738,-0.19738 0.46262,-0.29608 0.79571,-0.29608zM321.87756,133.57153v-1.90599c0,-0.7772 0.03084,-1.3015 0.09252,-1.57291c0.07402,-0.28374 0.24673,-0.53664 0.51813,-0.7587c0.2714,-0.22206 0.59215,-0.33309 0.96225,-0.33309c0.34542,0 0.65384,0.09869 0.92524,0.29608c0.2714,0.19738 0.45028,0.44411 0.53664,0.74019c0.08635,0.28374 0.12953,0.74636 0.12953,1.38786v2.14655h0.61066c0.7772,0 1.28916,0.09252 1.5359,0.27757c0.25907,0.18505 0.3886,0.46262 0.3886,0.83271c0,0.7772 -0.64767,1.1658 -1.943,1.1658h-0.59215v5.829c0,0.78953 0.05551,1.32617 0.16654,1.60991c0.11103,0.28374 0.4071,0.42561 0.88823,0.42561c0.23439,0 0.49346,-0.03084 0.7772,-0.09252c0.29608,-0.07402 0.51196,-0.11103 0.64767,-0.11103c0.32075,0 0.57982,0.10486 0.7772,0.31458c0.19738,0.20972 0.29608,0.46262 0.29608,0.7587c0,1.03627 -1.09178,1.5544 -3.27534,1.5544c-1.06094,0 -1.83814,-0.19738 -2.3316,-0.59215c-0.49346,-0.39477 -0.80188,-0.86972 -0.92524,-1.42487c-0.12336,-0.56748 -0.18505,-1.30767 -0.18505,-2.22057v-6.05106h-0.4071c-0.93757,0 -1.40636,-0.38243 -1.40636,-1.1473c0,-0.75253 0.49346,-1.12879 1.48038,-1.12879zM335.25882,133.29396c1.96151,0 3.50357,0.60449 4.62619,1.81347c1.12262,1.19664 1.68393,2.73254 1.68393,4.60769c0,1.87515 -0.56748,3.41721 -1.70244,4.62619c-1.13496,1.19664 -2.64001,1.79496 -4.51516,1.79496c-2.03552,0 -3.60843,-0.61066 -4.71872,-1.83197c-1.11029,-1.22131 -1.66543,-2.75104 -1.66543,-4.58918c0,-1.87515 0.56131,-3.41105 1.68393,-4.60769c1.12262,-1.20898 2.65852,-1.81347 4.60769,-1.81347zM335.25882,143.78616c0.96225,0 1.72094,-0.35776 2.27609,-1.07328c0.55514,-0.72786 0.83271,-1.72711 0.83271,-2.99777c0,-1.283 -0.27757,-2.28226 -0.83271,-2.99777c-0.55514,-0.72786 -1.31384,-1.09178 -2.27609,-1.09178c-0.93757,0 -1.6901,0.36393 -2.25758,1.09178c-0.55514,0.72786 -0.83271,1.72711 -0.83271,2.99777c0,1.27066 0.27757,2.26992 0.83271,2.99777c0.55514,0.71552 1.30767,1.07328 2.25758,1.07328zM349.56532,133.29396c1.96151,0 3.50357,0.60449 4.62619,1.81347c1.12262,1.19664 1.68393,2.73254 1.68393,4.60769c0,1.87515 -0.56748,3.41721 -1.70244,4.62619c-1.13496,1.19664 -2.64001,1.79496 -4.51516,1.79496c-2.03552,0 -3.60843,-0.61066 -4.71872,-1.83197c-1.11029,-1.22131 -1.66543,-2.75104 -1.66543,-4.58918c0,-1.87515 0.56131,-3.41105 1.68393,-4.60769c1.12262,-1.20898 2.65852,-1.81347 4.60769,-1.81347zM349.56532,143.78616c0.96225,0 1.72094,-0.35776 2.27609,-1.07328c0.55514,-0.72786 0.83271,-1.72711 0.83271,-2.99777c0,-1.283 -0.27757,-2.28226 -0.83271,-2.99777c-0.55514,-0.72786 -1.31384,-1.09178 -2.27609,-1.09178c-0.93757,0 -1.6901,0.36393 -2.25758,1.09178c-0.55514,0.72786 -0.83271,1.72711 -0.83271,2.99777c0,1.27066 0.27757,2.26992 0.83271,2.99777c0.55514,0.71552 1.30767,1.07328 2.25758,1.07328zM376.5846,138.16071v5.75498c0,1.48038 -0.53664,2.22057 -1.60991,2.22057c-0.49346,0 -0.87589,-0.15421 -1.1473,-0.46262c-0.25907,-0.32075 -0.3886,-0.90673 -0.3886,-1.75795v-5.0333c0,-1.19664 -0.19122,-2.01702 -0.57365,-2.46113c-0.38243,-0.44411 -0.9129,-0.66617 -1.59141,-0.66617c-0.60449,0 -1.12879,0.16654 -1.57291,0.49963c-0.44411,0.33309 -0.7587,0.74019 -0.94374,1.22131c-0.18505,0.48112 -0.27757,1.33234 -0.27757,2.55366v3.66394c0,0.98692 -0.14187,1.64075 -0.42561,1.96151c-0.28374,0.32075 -0.67234,0.48112 -1.1658,0.48112c-0.49346,0 -0.88206,-0.15421 -1.1658,-0.46262c-0.2714,-0.32075 -0.4071,-0.96842 -0.4071,-1.943v-12.52773c0,-0.76487 0.03701,-1.29533 0.11103,-1.59141c0.07402,-0.29608 0.24056,-0.53664 0.49963,-0.72169c0.2714,-0.19738 0.58598,-0.29608 0.94374,-0.29608c0.39477,0 0.72169,0.11103 0.98075,0.33309c0.2714,0.20972 0.44411,0.48729 0.51813,0.83271c0.07402,0.34542 0.11103,0.9129 0.11103,1.70244v3.73796c1.06094,-1.27066 2.34394,-1.90599 3.84899,-1.90599c1.27066,0 2.29459,0.39477 3.07179,1.18431c0.78953,0.7772 1.18431,2.00469 1.18431,3.68245zM381.28712,128.74178c0.41944,0 0.7772,0.15421 1.07328,0.46262c0.29608,0.30841 0.44411,0.66617 0.44411,1.07328c0,0.41944 -0.14804,0.78337 -0.44411,1.09178c-0.29608,0.29608 -0.65384,0.44411 -1.07328,0.44411c-0.41944,0 -0.78337,-0.14804 -1.09178,-0.44411c-0.29608,-0.30841 -0.44411,-0.67234 -0.44411,-1.09178c0,-0.41944 0.14804,-0.7772 0.44411,-1.07328c0.30841,-0.30841 0.67234,-0.46262 1.09178,-0.46262zM382.86002,135.86612v7.64247c0,0.76487 -0.03701,1.28916 -0.11103,1.57291c-0.06168,0.2714 -0.24056,0.51813 -0.53664,0.74019c-0.28374,0.20972 -0.59215,0.31458 -0.92524,0.31458c-0.33309,0 -0.64767,-0.10486 -0.94374,-0.31458c-0.29608,-0.22206 -0.48112,-0.47495 -0.55514,-0.7587c-0.06168,-0.28374 -0.09252,-0.80188 -0.09252,-1.5544v-7.62396c0,-0.69085 0.02467,-1.17814 0.07402,-1.46188c0.06168,-0.29608 0.23439,-0.55514 0.51813,-0.7772c0.28374,-0.23439 0.61066,-0.35159 0.98075,-0.35159c0.3701,0 0.69085,0.10486 0.96225,0.31458c0.2714,0.19738 0.44411,0.45645 0.51813,0.7772c0.07402,0.30841 0.11103,0.80188 0.11103,1.48038zM394.77478,135.44051v-0.42561c0,-0.56748 0.1357,-0.99309 0.4071,-1.27683c0.28374,-0.29608 0.6415,-0.44411 1.07328,-0.44411c0.48112,0 0.85122,0.16654 1.11029,0.49963c0.25907,0.33309 0.3886,1.05477 0.3886,2.16506v8.47518c0,2.51665 -0.53047,4.20675 -1.59141,5.07031c-1.06094,0.87589 -2.59067,1.31384 -4.58918,1.31384c-1.80113,0 -3.2075,-0.33309 -4.21909,-0.99926c-1.01159,-0.66617 -1.51739,-1.36935 -1.51739,-2.10954c0,-0.39477 0.12953,-0.71552 0.3886,-0.96225c0.2714,-0.24673 0.59215,-0.3701 0.96225,-0.3701c0.33309,0 0.59215,0.08019 0.7772,0.24056c0.19738,0.16037 0.53047,0.53664 0.99926,1.12879c0.48112,0.59215 1.27683,0.88823 2.38712,0.88823c0.61683,0 1.19048,-0.09869 1.72094,-0.29608c0.53047,-0.18505 0.91907,-0.5243 1.1658,-1.01776c0.25907,-0.48112 0.37627,-1.6716 0.35159,-3.57142c-0.96225,1.39403 -2.27609,2.09104 -3.94152,2.09104c-1.61609,0 -2.89291,-0.60449 -3.83049,-1.81347c-0.93757,-1.20898 -1.40636,-2.75104 -1.40636,-4.62619c0,-1.87515 0.48112,-3.3617 1.44337,-4.45965c0.96225,-1.09795 2.2144,-1.64692 3.75647,-1.64692c1.6901,0 3.07796,0.71552 4.16357,2.14655zM388.6127,139.6596c0,1.22131 0.26524,2.15272 0.79571,2.79422c0.53047,0.6415 1.26449,0.96225 2.20207,0.96225c0.81421,0 1.51122,-0.30841 2.09104,-0.92524c0.59215,-0.62916 0.88823,-1.56674 0.88823,-2.81272c0,-1.22131 -0.2714,-2.18973 -0.81421,-2.90525c-0.54281,-0.71552 -1.27683,-1.07328 -2.20207,-1.07328c-0.90056,0 -1.62225,0.33926 -2.16506,1.01776c-0.53047,0.66617 -0.79571,1.64692 -0.79571,2.94226zM412.11375,138.16071v5.75498c0,1.48038 -0.53664,2.22057 -1.60991,2.22057c-0.49346,0 -0.87589,-0.15421 -1.1473,-0.46262c-0.25907,-0.32075 -0.3886,-0.90673 -0.3886,-1.75795v-5.0333c0,-1.19664 -0.19122,-2.01702 -0.57365,-2.46113c-0.38243,-0.44411 -0.9129,-0.66617 -1.59141,-0.66617c-0.60449,0 -1.12879,0.16654 -1.57291,0.49963c-0.44411,0.33309 -0.7587,0.74019 -0.94374,1.22131c-0.18505,0.48112 -0.27757,1.33234 -0.27757,2.55366v3.66394c0,0.98692 -0.14187,1.64075 -0.42561,1.96151c-0.28374,0.32075 -0.67234,0.48112 -1.1658,0.48112c-0.49346,0 -0.88206,-0.15421 -1.1658,-0.46262c-0.2714,-0.32075 -0.4071,-0.96842 -0.4071,-1.943v-12.52773c0,-0.76487 0.03701,-1.29533 0.11103,-1.59141c0.07402,-0.29608 0.24056,-0.53664 0.49963,-0.72169c0.2714,-0.19738 0.58598,-0.29608 0.94374,-0.29608c0.39477,0 0.72169,0.11103 0.98075,0.33309c0.2714,0.20972 0.44411,0.48729 0.51813,0.83271c0.07402,0.34542 0.11103,0.9129 0.11103,1.70244v3.73796c1.06094,-1.27066 2.34394,-1.90599 3.84899,-1.90599c1.27066,0 2.29459,0.39477 3.07179,1.18431c0.78953,0.7772 1.18431,2.00469 1.18431,3.68245zM419.20339,132.81283l-0.49963,5.69947c-0.07402,0.83888 -0.21589,1.40019 -0.42561,1.68393c-0.20972,0.28374 -0.47495,0.42561 -0.79571,0.42561c-0.32075,0 -0.58598,-0.14187 -0.79571,-0.42561c-0.19738,-0.29608 -0.32692,-0.85739 -0.3886,-1.68393l-0.4071,-5.55143c-0.03701,-0.48112 -0.05551,-1.15963 -0.05551,-2.03552c0,-1.5544 0.58598,-2.3316 1.75795,-2.3316c0.53047,0 0.93757,0.17888 1.22131,0.53664c0.29608,0.35776 0.44411,1.01776 0.44411,1.98001c0,0.7772 -0.0185,1.34468 -0.05551,1.70244zM417.55646,142.63886c0.46879,0 0.87589,0.17271 1.22131,0.51813c0.34542,0.33309 0.51813,0.74019 0.51813,1.22131c0,0.46879 -0.17271,0.88206 -0.51813,1.23982c-0.34542,0.34542 -0.75253,0.51813 -1.22131,0.51813c-0.49346,0 -0.9129,-0.17271 -1.25832,-0.51813c-0.33309,-0.34542 -0.49963,-0.7587 -0.49963,-1.23982c0,-0.48112 0.17271,-0.88823 0.51813,-1.22131c0.34542,-0.34542 0.7587,-0.51813 1.23982,-0.51813z" fill="#ff7777" stroke="none" stroke-width="1" stroke-linecap="square"/><path d="M154.66384,196.08064v4.05254c0,1.25832 -0.16654,2.04786 -0.49963,2.36861c-0.32075,0.32075 -0.73402,0.48112 -1.23982,0.48112c-0.38243,0 -0.72169,-0.10486 -1.01776,-0.31458c-0.29608,-0.22206 -0.48112,-0.49346 -0.55514,-0.81421c-0.07402,-0.32075 -0.11103,-0.8944 -0.11103,-1.72094v-11.52847c0,-0.96225 0.06785,-1.61609 0.20355,-1.96151c0.1357,-0.35776 0.3701,-0.59832 0.70318,-0.72169c0.34542,-0.12336 0.85739,-0.18505 1.5359,-0.18505h4.14507c2.4673,0 4.1389,0.48112 5.01479,1.44337c0.87589,0.94991 1.31384,2.13422 1.31384,3.55292c0,3.56525 -2.10954,5.34788 -6.32863,5.34788zM156.99544,188.38265h-2.3316v5.0333h2.3316c1.4187,0 2.38712,-0.22206 2.90525,-0.66617c0.51813,-0.45645 0.7772,-1.07945 0.7772,-1.86898c0,-0.55514 -0.14804,-1.0486 -0.44411,-1.48038c-0.28374,-0.43178 -0.67234,-0.70935 -1.1658,-0.83271c-0.48112,-0.12336 -1.17197,-0.18505 -2.07253,-0.18505zM169.96266,188.04957v12.30567c0,0.76487 -0.03701,1.28916 -0.11103,1.57291c-0.06168,0.2714 -0.24056,0.51813 -0.53664,0.74019c-0.28374,0.20972 -0.59215,0.31458 -0.92524,0.31458c-0.33309,0 -0.64767,-0.10486 -0.94374,-0.31458c-0.29608,-0.22206 -0.48112,-0.47495 -0.55514,-0.7587c-0.06168,-0.28374 -0.09252,-0.80188 -0.09252,-1.5544v-12.30567c0,-0.7772 0.03701,-1.3015 0.11103,-1.57291c0.07402,-0.28374 0.2529,-0.5243 0.53664,-0.72169c0.28374,-0.20972 0.59215,-0.31458 0.92524,-0.31458c0.38243,0 0.70935,0.11103 0.98075,0.33309c0.28374,0.22206 0.45645,0.48112 0.51813,0.7772c0.06168,0.29608 0.09252,0.79571 0.09252,1.49889zM182.02546,197.33896h-6.1991c0.03701,1.17197 0.35776,2.05403 0.96225,2.64618c0.61683,0.59215 1.35702,0.88823 2.22057,0.88823c1.0486,0 2.04169,-0.46262 2.97927,-1.38786c0.38243,-0.38243 0.66,-0.61683 0.83271,-0.70318c0.18505,-0.09869 0.3886,-0.14804 0.61066,-0.14804c0.28374,0 0.5243,0.09252 0.72169,0.27757c0.20972,0.17271 0.31458,0.3886 0.31458,0.64767c0,0.71552 -0.48729,1.46805 -1.46188,2.25758c-0.96225,0.7772 -2.27609,1.1658 -3.94152,1.1658c-2.10954,0 -3.71329,-0.59832 -4.81124,-1.79496c-1.08561,-1.19664 -1.62842,-2.73871 -1.62842,-4.62619c0,-1.91216 0.54281,-3.46039 1.62842,-4.6447c1.09795,-1.18431 2.62151,-1.77646 4.57068,-1.77646c1.85048,0 3.28151,0.56131 4.29311,1.68393c1.01159,1.11029 1.51739,2.31927 1.51739,3.62693c0,0.57982 -0.16654,1.04244 -0.49963,1.38786c-0.33309,0.33309 -1.03627,0.49963 -2.10954,0.49963zM175.82636,195.544h5.75498c-0.03701,-1.0486 -0.32692,-1.85048 -0.86972,-2.40562c-0.54281,-0.55514 -1.20898,-0.83271 -1.99852,-0.83271c-1.67776,0 -2.64001,1.07945 -2.88674,3.23833zM195.26793,201.18795c-1.49272,1.19664 -2.96076,1.79496 -4.40414,1.79496c-1.36935,0 -2.42412,-0.34542 -3.16432,-1.03627c-0.72786,-0.70318 -1.09178,-1.5544 -1.09178,-2.55366c0,-0.86355 0.24673,-1.5544 0.74019,-2.07253c0.5058,-0.53047 1.0486,-0.90056 1.62842,-1.11029c0.59215,-0.20972 1.54823,-0.45028 2.86824,-0.72169c1.32001,-0.2714 2.38712,-0.5243 3.20133,-0.7587c-0.01233,-0.96225 -0.20355,-1.60991 -0.57365,-1.943c-0.3701,-0.33309 -0.93141,-0.49963 -1.68393,-0.49963c-1.43104,0 -2.36861,0.40093 -2.81272,1.20281c-0.24673,0.45645 -0.46879,0.78337 -0.66617,0.98075c-0.18505,0.18505 -0.45645,0.27757 -0.81421,0.27757c-0.33309,0 -0.63533,-0.10486 -0.90673,-0.31458c-0.2714,-0.22206 -0.4071,-0.51196 -0.4071,-0.86972c0,-0.81421 0.44411,-1.58524 1.33234,-2.3131c0.88823,-0.74019 2.28226,-1.11029 4.18208,-1.11029c1.9245,0 3.33086,0.33309 4.21909,0.99926c0.90056,0.66617 1.32617,2.01085 1.27683,4.03404l-0.07402,2.96076c-0.02467,0.92524 0.06785,1.67776 0.27757,2.25758c0.22206,0.56748 0.33309,1.00543 0.33309,1.31384c0,0.33309 -0.14804,0.62916 -0.44411,0.88823c-0.28374,0.25907 -0.61066,0.3886 -0.98075,0.3886c-0.6415,0 -1.32001,-0.59832 -2.03552,-1.79496zM195.06438,196.61728c-0.46879,0.18505 -1.24599,0.3886 -2.3316,0.61066c-1.08561,0.20972 -1.85665,0.45645 -2.3131,0.74019c-0.44411,0.2714 -0.66617,0.67851 -0.66617,1.22131c0,0.44411 0.17888,0.84505 0.53664,1.20281c0.35776,0.34542 0.86972,0.51813 1.5359,0.51813c0.69085,0 1.33234,-0.19122 1.9245,-0.57365c0.60449,-0.38243 0.97458,-0.83271 1.11029,-1.35085c0.1357,-0.53047 0.20355,-1.32001 0.20355,-2.36861zM203.77319,193.41595c0,0.4071 0.20972,0.72786 0.62916,0.96225c0.41944,0.23439 1.36935,0.53047 2.84973,0.88823c2.86207,0.70318 4.29311,1.89366 4.29311,3.57142c0,1.34468 -0.48729,2.37478 -1.46188,3.0903c-0.96225,0.70318 -2.30693,1.05477 -4.03404,1.05477c-1.76412,0 -3.0903,-0.36393 -3.97853,-1.09178c-0.88823,-0.72786 -1.33234,-1.49889 -1.33234,-2.3131c0,-0.34542 0.12336,-0.6415 0.3701,-0.88823c0.24673,-0.24673 0.54897,-0.3701 0.90673,-0.3701c0.49346,0 0.92524,0.30841 1.29533,0.92524c0.41944,0.67851 0.87589,1.12879 1.36935,1.35085c0.5058,0.22206 1.04244,0.33309 1.60991,0.33309c0.6415,0 1.15963,-0.14187 1.5544,-0.42561c0.39477,-0.28374 0.59215,-0.6415 0.59215,-1.07328c0,-0.39477 -0.16654,-0.73402 -0.49963,-1.01776c-0.33309,-0.28374 -1.25215,-0.59832 -2.75721,-0.94374c-1.49272,-0.34542 -2.5845,-0.82654 -3.27534,-1.44337c-0.69085,-0.62916 -1.03627,-1.36935 -1.03627,-2.22057c0,-0.96225 0.41944,-1.81347 1.25832,-2.55366c0.83888,-0.74019 2.09721,-1.11029 3.77497,-1.11029c1.52973,0 2.74488,0.31458 3.64544,0.94374c0.9129,0.61683 1.36935,1.25832 1.36935,1.9245c0,0.35776 -0.1172,0.66 -0.35159,0.90673c-0.22206,0.24673 -0.53664,0.3701 -0.94374,0.3701c-0.61683,0 -1.17197,-0.35159 -1.66543,-1.05477c-0.48112,-0.70318 -1.21514,-1.05477 -2.20207,-1.05477c-0.53047,0 -0.99309,0.11103 -1.38786,0.33309c-0.39477,0.20972 -0.59215,0.51196 -0.59215,0.90673zM223.01352,197.33896h-6.1991c0.03701,1.17197 0.35776,2.05403 0.96225,2.64618c0.61683,0.59215 1.35702,0.88823 2.22057,0.88823c1.0486,0 2.04169,-0.46262 2.97927,-1.38786c0.38243,-0.38243 0.66,-0.61683 0.83271,-0.70318c0.18505,-0.09869 0.3886,-0.14804 0.61066,-0.14804c0.28374,0 0.5243,0.09252 0.72169,0.27757c0.20972,0.17271 0.31458,0.3886 0.31458,0.64767c0,0.71552 -0.48729,1.46805 -1.46188,2.25758c-0.96225,0.7772 -2.27609,1.1658 -3.94152,1.1658c-2.10954,0 -3.71329,-0.59832 -4.81124,-1.79496c-1.08561,-1.19664 -1.62842,-2.73871 -1.62842,-4.62619c0,-1.91216 0.54281,-3.46039 1.62842,-4.6447c1.09795,-1.18431 2.62151,-1.77646 4.57068,-1.77646c1.85048,0 3.28151,0.56131 4.29311,1.68393c1.01159,1.11029 1.51739,2.31927 1.51739,3.62693c0,0.57982 -0.16654,1.04244 -0.49963,1.38786c-0.33309,0.33309 -1.03627,0.49963 -2.10954,0.49963zM216.81442,195.544h5.75498c-0.03701,-1.0486 -0.32692,-1.85048 -0.86972,-2.40562c-0.54281,-0.55514 -1.20898,-0.83271 -1.99852,-0.83271c-1.67776,0 -2.64001,1.07945 -2.88674,3.23833zM236.90366,185.58843c0.41944,0 0.7772,0.15421 1.07328,0.46262c0.29608,0.30841 0.44411,0.66617 0.44411,1.07328c0,0.41944 -0.14804,0.78337 -0.44411,1.09178c-0.29608,0.29608 -0.65384,0.44411 -1.07328,0.44411c-0.41944,0 -0.78337,-0.14804 -1.09178,-0.44411c-0.29608,-0.30841 -0.44411,-0.67234 -0.44411,-1.09178c0,-0.41944 0.14804,-0.7772 0.44411,-1.07328c0.30841,-0.30841 0.67234,-0.46262 1.09178,-0.46262zM235.36777,202.63133v-9.90005c0,-0.7772 0.03084,-1.29533 0.09252,-1.5544c0.06168,-0.2714 0.22823,-0.51196 0.49963,-0.72169c0.2714,-0.20972 0.58598,-0.31458 0.94374,-0.31458c0.34542,0 0.66,0.09869 0.94374,0.29608c0.28374,0.18505 0.45645,0.42561 0.51813,0.72169c0.07402,0.28374 0.11103,0.80804 0.11103,1.57291v9.90005c0,1.18431 -0.06168,2.0787 -0.18505,2.68319c-0.12336,0.60449 -0.45028,1.1473 -0.98075,1.62842c-0.51813,0.48112 -1.33234,0.72169 -2.44263,0.72169c-1.94917,0 -2.92375,-0.51196 -2.92375,-1.5359c0,-0.3701 0.11103,-0.67851 0.33309,-0.92524c0.22206,-0.24673 0.51196,-0.3701 0.86972,-0.3701l1.1473,0.09252c0.38243,0 0.65384,-0.14804 0.81421,-0.44411c0.17271,-0.28374 0.25907,-0.90056 0.25907,-1.85048zM247.24552,190.14061c1.96151,0 3.50357,0.60449 4.62619,1.81347c1.12262,1.19664 1.68393,2.73254 1.68393,4.60769c0,1.87515 -0.56748,3.41721 -1.70244,4.62619c-1.13496,1.19664 -2.64001,1.79496 -4.51516,1.79496c-2.03552,0 -3.60843,-0.61066 -4.71872,-1.83197c-1.11029,-1.22131 -1.66543,-2.75104 -1.66543,-4.58918c0,-1.87515 0.56131,-3.41105 1.68393,-4.60769c1.12262,-1.20898 2.65852,-1.81347 4.60769,-1.81347zM247.24552,200.63281c0.96225,0 1.72094,-0.35776 2.27609,-1.07328c0.55514,-0.72786 0.83271,-1.72711 0.83271,-2.99777c0,-1.283 -0.27757,-2.28226 -0.83271,-2.99777c-0.55514,-0.72786 -1.31384,-1.09178 -2.27609,-1.09178c-0.93757,0 -1.6901,0.36393 -2.25758,1.09178c-0.55514,0.72786 -0.83271,1.72711 -0.83271,2.99777c0,1.27066 0.27757,2.26992 0.83271,2.99777c0.55514,0.71552 1.30767,1.07328 2.25758,1.07328zM257.629,185.58843c0.41944,0 0.7772,0.15421 1.07328,0.46262c0.29608,0.30841 0.44411,0.66617 0.44411,1.07328c0,0.41944 -0.14804,0.78337 -0.44411,1.09178c-0.29608,0.29608 -0.65384,0.44411 -1.07328,0.44411c-0.41944,0 -0.78337,-0.14804 -1.09178,-0.44411c-0.29608,-0.30841 -0.44411,-0.67234 -0.44411,-1.09178c0,-0.41944 0.14804,-0.7772 0.44411,-1.07328c0.30841,-0.30841 0.67234,-0.46262 1.09178,-0.46262zM259.20191,192.71277v7.64247c0,0.76487 -0.03701,1.28916 -0.11103,1.57291c-0.06168,0.2714 -0.24056,0.51813 -0.53664,0.74019c-0.28374,0.20972 -0.59215,0.31458 -0.92524,0.31458c-0.33309,0 -0.64767,-0.10486 -0.94374,-0.31458c-0.29608,-0.22206 -0.48112,-0.47495 -0.55514,-0.7587c-0.06168,-0.28374 -0.09252,-0.80188 -0.09252,-1.5544v-7.62396c0,-0.69085 0.02467,-1.17814 0.07402,-1.46188c0.06168,-0.29608 0.23439,-0.55514 0.51813,-0.7772c0.28374,-0.23439 0.61066,-0.35159 0.98075,-0.35159c0.3701,0 0.69085,0.10486 0.96225,0.31458c0.2714,0.19738 0.44411,0.45645 0.51813,0.7772c0.07402,0.30841 0.11103,0.80188 0.11103,1.48038zM273.59631,195.1739v5.18134c0,0.67851 -0.03084,1.17197 -0.09252,1.48038c-0.04934,0.29608 -0.21589,0.56131 -0.49963,0.79571c-0.2714,0.23439 -0.59215,0.35159 -0.96225,0.35159c-0.34542,0 -0.66617,-0.10486 -0.96225,-0.31458c-0.28374,-0.20972 -0.46262,-0.47495 -0.53664,-0.79571c-0.07402,-0.33309 -0.11103,-0.83888 -0.11103,-1.51739v-4.53367c0,-1.27066 -0.19122,-2.12188 -0.57365,-2.55366c-0.3701,-0.44411 -0.88823,-0.66617 -1.5544,-0.66617c-0.59215,0 -1.11646,0.17271 -1.57291,0.51813c-0.45645,0.34542 -0.7772,0.78337 -0.96225,1.31384c-0.18505,0.51813 -0.27757,1.40636 -0.27757,2.66469v3.25684c0,0.66617 -0.02467,1.15347 -0.07402,1.46188c-0.04934,0.29608 -0.21589,0.56748 -0.49963,0.81421c-0.28374,0.23439 -0.61066,0.35159 -0.98075,0.35159c-0.35776,0 -0.68468,-0.10486 -0.98075,-0.31458c-0.28374,-0.22206 -0.45645,-0.48729 -0.51813,-0.79571c-0.06168,-0.32075 -0.09252,-0.82654 -0.09252,-1.51739v-7.772c0,-0.70318 0.03084,-1.19048 0.09252,-1.46188c0.07402,-0.28374 0.24056,-0.51813 0.49963,-0.70318c0.2714,-0.18505 0.57365,-0.27757 0.90673,-0.27757c0.30841,0 0.62916,0.12336 0.96225,0.3701c0.33309,0.23439 0.49963,0.82038 0.49963,1.75795c1.06094,-1.4187 2.41795,-2.12805 4.07105,-2.12805c0.62916,0 1.25215,0.12336 1.86898,0.3701c0.61683,0.23439 1.11646,0.61683 1.49889,1.1473c0.39477,0.53047 0.63533,1.08561 0.72169,1.66543c0.08635,0.57982 0.12953,1.19664 0.12953,1.85048zM291.7703,201.18795c-1.49272,1.19664 -2.96076,1.79496 -4.40414,1.79496c-1.36935,0 -2.42412,-0.34542 -3.16432,-1.03627c-0.72786,-0.70318 -1.09178,-1.5544 -1.09178,-2.55366c0,-0.86355 0.24673,-1.5544 0.74019,-2.07253c0.5058,-0.53047 1.0486,-0.90056 1.62842,-1.11029c0.59215,-0.20972 1.54823,-0.45028 2.86824,-0.72169c1.32001,-0.2714 2.38712,-0.5243 3.20133,-0.7587c-0.01233,-0.96225 -0.20355,-1.60991 -0.57365,-1.943c-0.3701,-0.33309 -0.93141,-0.49963 -1.68393,-0.49963c-1.43104,0 -2.36861,0.40093 -2.81272,1.20281c-0.24673,0.45645 -0.46879,0.78337 -0.66617,0.98075c-0.18505,0.18505 -0.45645,0.27757 -0.81421,0.27757c-0.33309,0 -0.63533,-0.10486 -0.90673,-0.31458c-0.2714,-0.22206 -0.4071,-0.51196 -0.4071,-0.86972c0,-0.81421 0.44411,-1.58524 1.33234,-2.3131c0.88823,-0.74019 2.28226,-1.11029 4.18208,-1.11029c1.9245,0 3.33086,0.33309 4.21909,0.99926c0.90056,0.66617 1.32617,2.01085 1.27683,4.03404l-0.07402,2.96076c-0.02467,0.92524 0.06785,1.67776 0.27757,2.25758c0.22206,0.56748 0.33309,1.00543 0.33309,1.31384c0,0.33309 -0.14804,0.62916 -0.44411,0.88823c-0.28374,0.25907 -0.61066,0.3886 -0.98075,0.3886c-0.6415,0 -1.32001,-0.59832 -2.03552,-1.79496zM291.56675,196.61728c-0.46879,0.18505 -1.24599,0.3886 -2.3316,0.61066c-1.08561,0.20972 -1.85665,0.45645 -2.3131,0.74019c-0.44411,0.2714 -0.66617,0.67851 -0.66617,1.22131c0,0.44411 0.17888,0.84505 0.53664,1.20281c0.35776,0.34542 0.86972,0.51813 1.5359,0.51813c0.69085,0 1.33234,-0.19122 1.9245,-0.57365c0.60449,-0.38243 0.97458,-0.83271 1.11029,-1.35085c0.1357,-0.53047 0.20355,-1.32001 0.20355,-2.36861zM309.00982,195.1739v5.18134c0,0.67851 -0.03084,1.17197 -0.09252,1.48038c-0.04934,0.29608 -0.21589,0.56131 -0.49963,0.79571c-0.2714,0.23439 -0.59215,0.35159 -0.96225,0.35159c-0.34542,0 -0.66617,-0.10486 -0.96225,-0.31458c-0.28374,-0.20972 -0.46262,-0.47495 -0.53664,-0.79571c-0.07402,-0.33309 -0.11103,-0.83888 -0.11103,-1.51739v-4.53367c0,-1.27066 -0.19122,-2.12188 -0.57365,-2.55366c-0.3701,-0.44411 -0.88823,-0.66617 -1.5544,-0.66617c-0.59215,0 -1.11646,0.17271 -1.57291,0.51813c-0.45645,0.34542 -0.7772,0.78337 -0.96225,1.31384c-0.18505,0.51813 -0.27757,1.40636 -0.27757,2.66469v3.25684c0,0.66617 -0.02467,1.15347 -0.07402,1.46188c-0.04934,0.29608 -0.21589,0.56748 -0.49963,0.81421c-0.28374,0.23439 -0.61066,0.35159 -0.98075,0.35159c-0.35776,0 -0.68468,-0.10486 -0.98075,-0.31458c-0.28374,-0.22206 -0.45645,-0.48729 -0.51813,-0.79571c-0.06168,-0.32075 -0.09252,-0.82654 -0.09252,-1.51739v-7.772c0,-0.70318 0.03084,-1.19048 0.09252,-1.46188c0.07402,-0.28374 0.24056,-0.51813 0.49963,-0.70318c0.2714,-0.18505 0.57365,-0.27757 0.90673,-0.27757c0.30841,0 0.62916,0.12336 0.96225,0.3701c0.33309,0.23439 0.49963,0.82038 0.49963,1.75795c1.06094,-1.4187 2.41795,-2.12805 4.07105,-2.12805c0.62916,0 1.25215,0.12336 1.86898,0.3701c0.61683,0.23439 1.11646,0.61683 1.49889,1.1473c0.39477,0.53047 0.63533,1.08561 0.72169,1.66543c0.08635,0.57982 0.12953,1.19664 0.12953,1.85048zM317.69086,190.14061c1.96151,0 3.50357,0.60449 4.62619,1.81347c1.12262,1.19664 1.68393,2.73254 1.68393,4.60769c0,1.87515 -0.56748,3.41721 -1.70244,4.62619c-1.13496,1.19664 -2.64001,1.79496 -4.51516,1.79496c-2.03552,0 -3.60843,-0.61066 -4.71872,-1.83197c-1.11029,-1.22131 -1.66543,-2.75104 -1.66543,-4.58918c0,-1.87515 0.56131,-3.41105 1.68393,-4.60769c1.12262,-1.20898 2.65852,-1.81347 4.60769,-1.81347zM317.69086,200.63281c0.96225,0 1.72094,-0.35776 2.27609,-1.07328c0.55514,-0.72786 0.83271,-1.72711 0.83271,-2.99777c0,-1.283 -0.27757,-2.28226 -0.83271,-2.99777c-0.55514,-0.72786 -1.31384,-1.09178 -2.27609,-1.09178c-0.93757,0 -1.6901,0.36393 -2.25758,1.09178c-0.55514,0.72786 -0.83271,1.72711 -0.83271,2.99777c0,1.27066 0.27757,2.26992 0.83271,2.99777c0.55514,0.71552 1.30767,1.07328 2.25758,1.07328zM327.00108,190.41818v-1.90599c0,-0.7772 0.03084,-1.3015 0.09252,-1.57291c0.07402,-0.28374 0.24673,-0.53664 0.51813,-0.7587c0.2714,-0.22206 0.59215,-0.33309 0.96225,-0.33309c0.34542,0 0.65384,0.09869 0.92524,0.29608c0.2714,0.19738 0.45028,0.44411 0.53664,0.74019c0.08635,0.28374 0.12953,0.74636 0.12953,1.38786v2.14655h0.61066c0.7772,0 1.28916,0.09252 1.5359,0.27757c0.25907,0.18505 0.3886,0.46262 0.3886,0.83271c0,0.7772 -0.64767,1.1658 -1.943,1.1658h-0.59215v5.829c0,0.78953 0.05551,1.32617 0.16654,1.60991c0.11103,0.28374 0.4071,0.42561 0.88823,0.42561c0.23439,0 0.49346,-0.03084 0.7772,-0.09252c0.29608,-0.07402 0.51196,-0.11103 0.64767,-0.11103c0.32075,0 0.57982,0.10486 0.7772,0.31458c0.19738,0.20972 0.29608,0.46262 0.29608,0.7587c0,1.03627 -1.09178,1.5544 -3.27534,1.5544c-1.06094,0 -1.83814,-0.19738 -2.3316,-0.59215c-0.49346,-0.39477 -0.80188,-0.86972 -0.92524,-1.42487c-0.12336,-0.56748 -0.18505,-1.30767 -0.18505,-2.22057v-6.05106h-0.4071c-0.93757,0 -1.40636,-0.38243 -1.40636,-1.1473c0,-0.75253 0.49346,-1.12879 1.48038,-1.12879zM346.0633,195.00736v5.75498c0,1.48038 -0.53664,2.22057 -1.60991,2.22057c-0.49346,0 -0.87589,-0.15421 -1.1473,-0.46262c-0.25907,-0.32075 -0.3886,-0.90673 -0.3886,-1.75795v-5.0333c0,-1.19664 -0.19122,-2.01702 -0.57365,-2.46113c-0.38243,-0.44411 -0.9129,-0.66617 -1.59141,-0.66617c-0.60449,0 -1.12879,0.16654 -1.57291,0.49963c-0.44411,0.33309 -0.7587,0.74019 -0.94374,1.22131c-0.18505,0.48112 -0.27757,1.33234 -0.27757,2.55366v3.66394c0,0.98692 -0.14187,1.64075 -0.42561,1.96151c-0.28374,0.32075 -0.67234,0.48112 -1.1658,0.48112c-0.49346,0 -0.88206,-0.15421 -1.1658,-0.46262c-0.2714,-0.32075 -0.4071,-0.96842 -0.4071,-1.943v-12.52773c0,-0.76487 0.03701,-1.29533 0.11103,-1.59141c0.07402,-0.29608 0.24056,-0.53664 0.49963,-0.72169c0.2714,-0.19738 0.58598,-0.29608 0.94374,-0.29608c0.39477,0 0.72169,0.11103 0.98075,0.33309c0.2714,0.20972 0.44411,0.48729 0.51813,0.83271c0.07402,0.34542 0.11103,0.9129 0.11103,1.70244v3.73796c1.06094,-1.27066 2.34394,-1.90599 3.84899,-1.90599c1.27066,0 2.29459,0.39477 3.07179,1.18431c0.78953,0.7772 1.18431,2.00469 1.18431,3.68245zM357.98268,197.33896h-6.1991c0.03701,1.17197 0.35776,2.05403 0.96225,2.64618c0.61683,0.59215 1.35702,0.88823 2.22057,0.88823c1.0486,0 2.04169,-0.46262 2.97927,-1.38786c0.38243,-0.38243 0.66,-0.61683 0.83271,-0.70318c0.18505,-0.09869 0.3886,-0.14804 0.61066,-0.14804c0.28374,0 0.5243,0.09252 0.72169,0.27757c0.20972,0.17271 0.31458,0.3886 0.31458,0.64767c0,0.71552 -0.48729,1.46805 -1.46188,2.25758c-0.96225,0.7772 -2.27609,1.1658 -3.94152,1.1658c-2.10954,0 -3.71329,-0.59832 -4.81124,-1.79496c-1.08561,-1.19664 -1.62842,-2.73871 -1.62842,-4.62619c0,-1.91216 0.54281,-3.46039 1.62842,-4.6447c1.09795,-1.18431 2.62151,-1.77646 4.57068,-1.77646c1.85048,0 3.28151,0.56131 4.29311,1.68393c1.01159,1.11029 1.51739,2.31927 1.51739,3.62693c0,0.57982 -0.16654,1.04244 -0.49963,1.38786c-0.33309,0.33309 -1.03627,0.49963 -2.10954,0.49963zM351.78359,195.544h5.75498c-0.03701,-1.0486 -0.32692,-1.85048 -0.86972,-2.40562c-0.54281,-0.55514 -1.20898,-0.83271 -1.99852,-0.83271c-1.67776,0 -2.64001,1.07945 -2.88674,3.23833zM363.2311,200.35524v-8.08658c0,-1.4187 0.51813,-2.12805 1.5544,-2.12805c0.99926,0 1.51122,0.65384 1.5359,1.96151c0.65384,-1.30767 1.56057,-1.96151 2.7202,-1.96151c0.60449,0 1.23365,0.16037 1.88749,0.48112c0.65384,0.32075 0.98075,0.7587 0.98075,1.31384c0,0.38243 -0.1357,0.70318 -0.4071,0.96225c-0.25907,0.24673 -0.53664,0.3701 -0.83271,0.3701c-0.17271,0 -0.48112,-0.06785 -0.92524,-0.20355c-0.44411,-0.1357 -0.81421,-0.20355 -1.11029,-0.20355c-0.75253,0 -1.31384,0.38243 -1.68393,1.1473c-0.3701,0.75253 -0.55514,2.22057 -0.55514,4.40414v1.83197c0,0.80188 -0.03701,1.34468 -0.11103,1.62842c-0.06168,0.28374 -0.23439,0.54281 -0.51813,0.7772c-0.2714,0.22206 -0.58598,0.33309 -0.94374,0.33309c-0.35776,0 -0.67851,-0.10486 -0.96225,-0.31458c-0.2714,-0.20972 -0.44411,-0.45028 -0.51813,-0.72169c-0.07402,-0.28374 -0.11103,-0.81421 -0.11103,-1.59141zM389.31588,192.28716v-0.42561c0,-0.56748 0.1357,-0.99309 0.4071,-1.27683c0.28374,-0.29608 0.6415,-0.44411 1.07328,-0.44411c0.48112,0 0.85122,0.16654 1.11029,0.49963c0.25907,0.33309 0.3886,1.05477 0.3886,2.16506v8.47518c0,2.51665 -0.53047,4.20675 -1.59141,5.07031c-1.06094,0.87589 -2.59067,1.31384 -4.58918,1.31384c-1.80113,0 -3.2075,-0.33309 -4.21909,-0.99926c-1.01159,-0.66617 -1.51739,-1.36935 -1.51739,-2.10954c0,-0.39477 0.12953,-0.71552 0.3886,-0.96225c0.2714,-0.24673 0.59215,-0.3701 0.96225,-0.3701c0.33309,0 0.59215,0.08019 0.7772,0.24056c0.19738,0.16037 0.53047,0.53664 0.99926,1.12879c0.48112,0.59215 1.27683,0.88823 2.38712,0.88823c0.61683,0 1.19048,-0.09869 1.72094,-0.29608c0.53047,-0.18505 0.91907,-0.5243 1.1658,-1.01776c0.25907,-0.48112 0.37627,-1.6716 0.35159,-3.57142c-0.96225,1.39403 -2.27609,2.09104 -3.94152,2.09104c-1.61609,0 -2.89291,-0.60449 -3.83049,-1.81347c-0.93757,-1.20898 -1.40636,-2.75104 -1.40636,-4.62619c0,-1.87515 0.48112,-3.3617 1.44337,-4.45965c0.96225,-1.09795 2.2144,-1.64692 3.75647,-1.64692c1.6901,0 3.07796,0.71552 4.16357,2.14655zM383.1538,196.50625c0,1.22131 0.26524,2.15272 0.79571,2.79422c0.53047,0.6415 1.26449,0.96225 2.20207,0.96225c0.81421,0 1.51122,-0.30841 2.09104,-0.92524c0.59215,-0.62916 0.88823,-1.56674 0.88823,-2.81272c0,-1.22131 -0.2714,-2.18973 -0.81421,-2.90525c-0.54281,-0.71552 -1.27683,-1.07328 -2.20207,-1.07328c-0.90056,0 -1.62225,0.33926 -2.16506,1.01776c-0.53047,0.66617 -0.79571,1.64692 -0.79571,2.94226zM402.84518,201.18795c-1.49272,1.19664 -2.96076,1.79496 -4.40414,1.79496c-1.36935,0 -2.42412,-0.34542 -3.16432,-1.03627c-0.72786,-0.70318 -1.09178,-1.5544 -1.09178,-2.55366c0,-0.86355 0.24673,-1.5544 0.74019,-2.07253c0.5058,-0.53047 1.0486,-0.90056 1.62842,-1.11029c0.59215,-0.20972 1.54823,-0.45028 2.86824,-0.72169c1.32001,-0.2714 2.38712,-0.5243 3.20133,-0.7587c-0.01233,-0.96225 -0.20355,-1.60991 -0.57365,-1.943c-0.3701,-0.33309 -0.93141,-0.49963 -1.68393,-0.49963c-1.43104,0 -2.36861,0.40093 -2.81272,1.20281c-0.24673,0.45645 -0.46879,0.78337 -0.66617,0.98075c-0.18505,0.18505 -0.45645,0.27757 -0.81421,0.27757c-0.33309,0 -0.63533,-0.10486 -0.90673,-0.31458c-0.2714,-0.22206 -0.4071,-0.51196 -0.4071,-0.86972c0,-0.81421 0.44411,-1.58524 1.33234,-2.3131c0.88823,-0.74019 2.28226,-1.11029 4.18208,-1.11029c1.9245,0 3.33086,0.33309 4.21909,0.99926c0.90056,0.66617 1.32617,2.01085 1.27683,4.03404l-0.07402,2.96076c-0.02467,0.92524 0.06785,1.67776 0.27757,2.25758c0.22206,0.56748 0.33309,1.00543 0.33309,1.31384c0,0.33309 -0.14804,0.62916 -0.44411,0.88823c-0.28374,0.25907 -0.61066,0.3886 -0.98075,0.3886c-0.6415,0 -1.32001,-0.59832 -2.03552,-1.79496zM402.64163,196.61728c-0.46879,0.18505 -1.24599,0.3886 -2.3316,0.61066c-1.08561,0.20972 -1.85665,0.45645 -2.3131,0.74019c-0.44411,0.2714 -0.66617,0.67851 -0.66617,1.22131c0,0.44411 0.17888,0.84505 0.53664,1.20281c0.35776,0.34542 0.86972,0.51813 1.5359,0.51813c0.69085,0 1.33234,-0.19122 1.9245,-0.57365c0.60449,-0.38243 0.97458,-0.83271 1.11029,-1.35085c0.1357,-0.53047 0.20355,-1.32001 0.20355,-2.36861zM426.83893,194.82231v5.4404c0,0.75253 -0.03084,1.283 -0.09252,1.59141c-0.06168,0.29608 -0.22823,0.56131 -0.49963,0.79571c-0.2714,0.22206 -0.59832,0.33309 -0.98075,0.33309c-0.3701,0 -0.69085,-0.11103 -0.96225,-0.33309c-0.2714,-0.22206 -0.44411,-0.49346 -0.51813,-0.81421c-0.07402,-0.33309 -0.11103,-0.85739 -0.11103,-1.57291v-4.60769c0,-1.34468 -0.16037,-2.18973 -0.48112,-2.53515c-0.30841,-0.34542 -0.74019,-0.51813 -1.29533,-0.51813c-0.57982,0 -1.07328,0.16037 -1.48038,0.48112c-0.39477,0.32075 -0.66617,0.74019 -0.81421,1.25832c-0.1357,0.51813 -0.20355,1.32617 -0.20355,2.42412v3.4974c0,0.75253 -0.03084,1.28916 -0.09252,1.60991c-0.06168,0.30841 -0.23439,0.57365 -0.51813,0.79571c-0.2714,0.20972 -0.59832,0.31458 -0.98075,0.31458c-0.48112,0 -0.86355,-0.16654 -1.1473,-0.49963c-0.2714,-0.33309 -0.4071,-1.07328 -0.4071,-2.22057v-4.33012c0,-1.23365 -0.09252,-2.09721 -0.27757,-2.59067c-0.18505,-0.49346 -0.67234,-0.74019 -1.46188,-0.74019c-0.80188,0 -1.4372,0.25907 -1.90599,0.7772c-0.46879,0.51813 -0.70318,1.62225 -0.70318,3.31235v3.57142c0,0.74019 -0.02467,1.25832 -0.07402,1.5544c-0.04934,0.28374 -0.21589,0.54897 -0.49963,0.79571c-0.2714,0.24673 -0.59215,0.3701 -0.96225,0.3701c-0.35776,0 -0.68468,-0.10486 -0.98075,-0.31458c-0.28374,-0.22206 -0.46262,-0.48729 -0.53664,-0.79571c-0.06168,-0.30841 -0.09252,-0.84505 -0.09252,-1.60991v-7.64247c0,-0.72786 0.03084,-1.22131 0.09252,-1.48038c0.07402,-0.2714 0.24673,-0.5058 0.51813,-0.70318c0.2714,-0.19738 0.56748,-0.29608 0.88823,-0.29608c1.01159,0 1.51739,0.6415 1.51739,1.9245c1.0486,-1.283 2.31927,-1.9245 3.81198,-1.9245c1.59141,0 2.75104,0.6415 3.4789,1.9245c1.07328,-1.283 2.32543,-1.9245 3.75647,-1.9245c1.11029,0 2.05403,0.30841 2.83123,0.92524c0.78953,0.60449 1.18431,1.85665 1.18431,3.75647zM438.70974,197.33896h-6.1991c0.03701,1.17197 0.35776,2.05403 0.96225,2.64618c0.61683,0.59215 1.35702,0.88823 2.22057,0.88823c1.0486,0 2.04169,-0.46262 2.97927,-1.38786c0.38243,-0.38243 0.66,-0.61683 0.83271,-0.70318c0.18505,-0.09869 0.3886,-0.14804 0.61066,-0.14804c0.28374,0 0.5243,0.09252 0.72169,0.27757c0.20972,0.17271 0.31458,0.3886 0.31458,0.64767c0,0.71552 -0.48729,1.46805 -1.46188,2.25758c-0.96225,0.7772 -2.27609,1.1658 -3.94152,1.1658c-2.10954,0 -3.71329,-0.59832 -4.81124,-1.79496c-1.08561,-1.19664 -1.62842,-2.73871 -1.62842,-4.62619c0,-1.91216 0.54281,-3.46039 1.62842,-4.6447c1.09795,-1.18431 2.62151,-1.77646 4.57068,-1.77646c1.85048,0 3.28151,0.56131 4.29311,1.68393c1.01159,1.11029 1.51739,2.31927 1.51739,3.62693c0,0.57982 -0.16654,1.04244 -0.49963,1.38786c-0.33309,0.33309 -1.03627,0.49963 -2.10954,0.49963zM432.51064,195.544h5.75498c-0.03701,-1.0486 -0.32692,-1.85048 -0.86972,-2.40562c-0.54281,-0.55514 -1.20898,-0.83271 -1.99852,-0.83271c-1.67776,0 -2.64001,1.07945 -2.88674,3.23833zM456.52289,190.14061c1.96151,0 3.50357,0.60449 4.62619,1.81347c1.12262,1.19664 1.68393,2.73254 1.68393,4.60769c0,1.87515 -0.56748,3.41721 -1.70244,4.62619c-1.13496,1.19664 -2.64001,1.79496 -4.51516,1.79496c-2.03552,0 -3.60843,-0.61066 -4.71872,-1.83197c-1.11029,-1.22131 -1.66543,-2.75104 -1.66543,-4.58918c0,-1.87515 0.56131,-3.41105 1.68393,-4.60769c1.12262,-1.20898 2.65852,-1.81347 4.60769,-1.81347zM456.52289,200.63281c0.96225,0 1.72094,-0.35776 2.27609,-1.07328c0.55514,-0.72786 0.83271,-1.72711 0.83271,-2.99777c0,-1.283 -0.27757,-2.28226 -0.83271,-2.99777c-0.55514,-0.72786 -1.31384,-1.09178 -2.27609,-1.09178c-0.93757,0 -1.6901,0.36393 -2.25758,1.09178c-0.55514,0.72786 -0.83271,1.72711 -0.83271,2.99777c0,1.27066 0.27757,2.26992 0.83271,2.99777c0.55514,0.71552 1.30767,1.07328 2.25758,1.07328zM465.29647,200.35524v-8.08658c0,-1.4187 0.51813,-2.12805 1.5544,-2.12805c0.99926,0 1.51122,0.65384 1.5359,1.96151c0.65384,-1.30767 1.56057,-1.96151 2.7202,-1.96151c0.60449,0 1.23365,0.16037 1.88749,0.48112c0.65384,0.32075 0.98075,0.7587 0.98075,1.31384c0,0.38243 -0.1357,0.70318 -0.4071,0.96225c-0.25907,0.24673 -0.53664,0.3701 -0.83271,0.3701c-0.17271,0 -0.48112,-0.06785 -0.92524,-0.20355c-0.44411,-0.1357 -0.81421,-0.20355 -1.11029,-0.20355c-0.75253,0 -1.31384,0.38243 -1.68393,1.1473c-0.3701,0.75253 -0.55514,2.22057 -0.55514,4.40414v1.83197c0,0.80188 -0.03701,1.34468 -0.11103,1.62842c-0.06168,0.28374 -0.23439,0.54281 -0.51813,0.7772c-0.2714,0.22206 -0.58598,0.33309 -0.94374,0.33309c-0.35776,0 -0.67851,-0.10486 -0.96225,-0.31458c-0.2714,-0.20972 -0.44411,-0.45028 -0.51813,-0.72169c-0.07402,-0.28374 -0.11103,-0.81421 -0.11103,-1.59141zM491.38125,192.28716v-0.42561c0,-0.56748 0.1357,-0.99309 0.4071,-1.27683c0.28374,-0.29608 0.6415,-0.44411 1.07328,-0.44411c0.48112,0 0.85122,0.16654 1.11029,0.49963c0.25907,0.33309 0.3886,1.05477 0.3886,2.16506v8.47518c0,2.51665 -0.53047,4.20675 -1.59141,5.07031c-1.06094,0.87589 -2.59067,1.31384 -4.58918,1.31384c-1.80113,0 -3.2075,-0.33309 -4.21909,-0.99926c-1.01159,-0.66617 -1.51739,-1.36935 -1.51739,-2.10954c0,-0.39477 0.12953,-0.71552 0.3886,-0.96225c0.2714,-0.24673 0.59215,-0.3701 0.96225,-0.3701c0.33309,0 0.59215,0.08019 0.7772,0.24056c0.19738,0.16037 0.53047,0.53664 0.99926,1.12879c0.48112,0.59215 1.27683,0.88823 2.38712,0.88823c0.61683,0 1.19048,-0.09869 1.72094,-0.29608c0.53047,-0.18505 0.91907,-0.5243 1.1658,-1.01776c0.25907,-0.48112 0.37627,-1.6716 0.35159,-3.57142c-0.96225,1.39403 -2.27609,2.09104 -3.94152,2.09104c-1.61609,0 -2.89291,-0.60449 -3.83049,-1.81347c-0.93757,-1.20898 -1.40636,-2.75104 -1.40636,-4.62619c0,-1.87515 0.48112,-3.3617 1.44337,-4.45965c0.96225,-1.09795 2.2144,-1.64692 3.75647,-1.64692c1.6901,0 3.07796,0.71552 4.16357,2.14655zM485.21916,196.50625c0,1.22131 0.26524,2.15272 0.79571,2.79422c0.53047,0.6415 1.26449,0.96225 2.20207,0.96225c0.81421,0 1.51122,-0.30841 2.09104,-0.92524c0.59215,-0.62916 0.88823,-1.56674 0.88823,-2.81272c0,-1.22131 -0.2714,-2.18973 -0.81421,-2.90525c-0.54281,-0.71552 -1.27683,-1.07328 -2.20207,-1.07328c-0.90056,0 -1.62225,0.33926 -2.16506,1.01776c-0.53047,0.66617 -0.79571,1.64692 -0.79571,2.94226zM502.44941,190.14061c1.96151,0 3.50357,0.60449 4.62619,1.81347c1.12262,1.19664 1.68393,2.73254 1.68393,4.60769c0,1.87515 -0.56748,3.41721 -1.70244,4.62619c-1.13496,1.19664 -2.64001,1.79496 -4.51516,1.79496c-2.03552,0 -3.60843,-0.61066 -4.71872,-1.83197c-1.11029,-1.22131 -1.66543,-2.75104 -1.66543,-4.58918c0,-1.87515 0.56131,-3.41105 1.68393,-4.60769c1.12262,-1.20898 2.65852,-1.81347 4.60769,-1.81347zM502.44941,200.63281c0.96225,0 1.72094,-0.35776 2.27609,-1.07328c0.55514,-0.72786 0.83271,-1.72711 0.83271,-2.99777c0,-1.283 -0.27757,-2.28226 -0.83271,-2.99777c-0.55514,-0.72786 -1.31384,-1.09178 -2.27609,-1.09178c-0.93757,0 -1.6901,0.36393 -2.25758,1.09178c-0.55514,0.72786 -0.83271,1.72711 -0.83271,2.99777c0,1.27066 0.27757,2.26992 0.83271,2.99777c0.55514,0.71552 1.30767,1.07328 2.25758,1.07328z" fill="#e6e6e6" stroke="none" stroke-width="1" stroke-linecap="square"/><path d="M229.14553,218.84152v-1.90599c0,-0.7772 0.03084,-1.3015 0.09252,-1.57291c0.07402,-0.28374 0.24673,-0.53664 0.51813,-0.7587c0.2714,-0.22206 0.59215,-0.33309 0.96225,-0.33309c0.34542,0 0.65384,0.09869 0.92524,0.29608c0.2714,0.19738 0.45028,0.44411 0.53664,0.74019c0.08635,0.28374 0.12953,0.74636 0.12953,1.38786v2.14655h0.61066c0.7772,0 1.28916,0.09252 1.5359,0.27757c0.25907,0.18505 0.3886,0.46262 0.3886,0.83271c0,0.7772 -0.64767,1.1658 -1.943,1.1658h-0.59215v5.829c0,0.78953 0.05551,1.32617 0.16654,1.60991c0.11103,0.28374 0.4071,0.42561 0.88823,0.42561c0.23439,0 0.49346,-0.03084 0.7772,-0.09252c0.29608,-0.07402 0.51196,-0.11103 0.64767,-0.11103c0.32075,0 0.57982,0.10486 0.7772,0.31458c0.19738,0.20972 0.29608,0.46262 0.29608,0.7587c0,1.03627 -1.09178,1.5544 -3.27534,1.5544c-1.06094,0 -1.83814,-0.19738 -2.3316,-0.59215c-0.49346,-0.39477 -0.80188,-0.86972 -0.92524,-1.42487c-0.12336,-0.56748 -0.18505,-1.30767 -0.18505,-2.22057v-6.05106h-0.4071c-0.93757,0 -1.40636,-0.38243 -1.40636,-1.1473c0,-0.75253 0.49346,-1.12879 1.48038,-1.12879zM242.5268,218.56395c1.96151,0 3.50357,0.60449 4.62619,1.81347c1.12262,1.19664 1.68393,2.73254 1.68393,4.60769c0,1.87515 -0.56748,3.41721 -1.70244,4.62619c-1.13496,1.19664 -2.64001,1.79496 -4.51516,1.79496c-2.03552,0 -3.60843,-0.61066 -4.71872,-1.83197c-1.11029,-1.22131 -1.66543,-2.75104 -1.66543,-4.58918c0,-1.87515 0.56131,-3.41105 1.68393,-4.60769c1.12262,-1.20898 2.65852,-1.81347 4.60769,-1.81347zM242.5268,229.05615c0.96225,0 1.72094,-0.35776 2.27609,-1.07328c0.55514,-0.72786 0.83271,-1.72711 0.83271,-2.99777c0,-1.283 -0.27757,-2.28226 -0.83271,-2.99777c-0.55514,-0.72786 -1.31384,-1.09178 -2.27609,-1.09178c-0.93757,0 -1.6901,0.36393 -2.25758,1.09178c-0.55514,0.72786 -0.83271,1.72711 -0.83271,2.99777c0,1.27066 0.27757,2.26992 0.83271,2.99777c0.55514,0.71552 1.30767,1.07328 2.25758,1.07328zM266.32624,229.61129c-1.49272,1.19664 -2.96076,1.79496 -4.40414,1.79496c-1.36935,0 -2.42412,-0.34542 -3.16432,-1.03627c-0.72786,-0.70318 -1.09178,-1.5544 -1.09178,-2.55366c0,-0.86355 0.24673,-1.5544 0.74019,-2.07253c0.5058,-0.53047 1.0486,-0.90056 1.62842,-1.11029c0.59215,-0.20972 1.54823,-0.45028 2.86824,-0.72169c1.32001,-0.2714 2.38712,-0.5243 3.20133,-0.7587c-0.01233,-0.96225 -0.20355,-1.60991 -0.57365,-1.943c-0.3701,-0.33309 -0.93141,-0.49963 -1.68393,-0.49963c-1.43104,0 -2.36861,0.40093 -2.81272,1.20281c-0.24673,0.45645 -0.46879,0.78337 -0.66617,0.98075c-0.18505,0.18505 -0.45645,0.27757 -0.81421,0.27757c-0.33309,0 -0.63533,-0.10486 -0.90673,-0.31458c-0.2714,-0.22206 -0.4071,-0.51196 -0.4071,-0.86972c0,-0.81421 0.44411,-1.58524 1.33234,-2.3131c0.88823,-0.74019 2.28226,-1.11029 4.18208,-1.11029c1.9245,0 3.33086,0.33309 4.21909,0.99926c0.90056,0.66617 1.32617,2.01085 1.27683,4.03404l-0.07402,2.96076c-0.02467,0.92524 0.06785,1.67776 0.27757,2.25758c0.22206,0.56748 0.33309,1.00543 0.33309,1.31384c0,0.33309 -0.14804,0.62916 -0.44411,0.88823c-0.28374,0.25907 -0.61066,0.3886 -0.98075,0.3886c-0.6415,0 -1.32001,-0.59832 -2.03552,-1.79496zM266.12269,225.04061c-0.46879,0.18505 -1.24599,0.3886 -2.3316,0.61066c-1.08561,0.20972 -1.85665,0.45645 -2.3131,0.74019c-0.44411,0.2714 -0.66617,0.67851 -0.66617,1.22131c0,0.44411 0.17888,0.84505 0.53664,1.20281c0.35776,0.34542 0.86972,0.51813 1.5359,0.51813c0.69085,0 1.33234,-0.19122 1.9245,-0.57365c0.60449,-0.38243 0.97458,-0.83271 1.11029,-1.35085c0.1357,-0.53047 0.20355,-1.32001 0.20355,-2.36861zM283.56575,223.59724v5.18134c0,0.67851 -0.03084,1.17197 -0.09252,1.48038c-0.04934,0.29608 -0.21589,0.56131 -0.49963,0.79571c-0.2714,0.23439 -0.59215,0.35159 -0.96225,0.35159c-0.34542,0 -0.66617,-0.10486 -0.96225,-0.31458c-0.28374,-0.20972 -0.46262,-0.47495 -0.53664,-0.79571c-0.07402,-0.33309 -0.11103,-0.83888 -0.11103,-1.51739v-4.53367c0,-1.27066 -0.19122,-2.12188 -0.57365,-2.55366c-0.3701,-0.44411 -0.88823,-0.66617 -1.5544,-0.66617c-0.59215,0 -1.11646,0.17271 -1.57291,0.51813c-0.45645,0.34542 -0.7772,0.78337 -0.96225,1.31384c-0.18505,0.51813 -0.27757,1.40636 -0.27757,2.66469v3.25684c0,0.66617 -0.02467,1.15347 -0.07402,1.46188c-0.04934,0.29608 -0.21589,0.56748 -0.49963,0.81421c-0.28374,0.23439 -0.61066,0.35159 -0.98075,0.35159c-0.35776,0 -0.68468,-0.10486 -0.98075,-0.31458c-0.28374,-0.22206 -0.45645,-0.48729 -0.51813,-0.79571c-0.06168,-0.32075 -0.09252,-0.82654 -0.09252,-1.51739v-7.772c0,-0.70318 0.03084,-1.19048 0.09252,-1.46188c0.07402,-0.28374 0.24056,-0.51813 0.49963,-0.70318c0.2714,-0.18505 0.57365,-0.27757 0.90673,-0.27757c0.30841,0 0.62916,0.12336 0.96225,0.3701c0.33309,0.23439 0.49963,0.82038 0.49963,1.75795c1.06094,-1.4187 2.41795,-2.12805 4.07105,-2.12805c0.62916,0 1.25215,0.12336 1.86898,0.3701c0.61683,0.23439 1.11646,0.61683 1.49889,1.1473c0.39477,0.53047 0.63533,1.08561 0.72169,1.66543c0.08635,0.57982 0.12953,1.19664 0.12953,1.85048zM292.2468,218.56395c1.96151,0 3.50357,0.60449 4.62619,1.81347c1.12262,1.19664 1.68393,2.73254 1.68393,4.60769c0,1.87515 -0.56748,3.41721 -1.70244,4.62619c-1.13496,1.19664 -2.64001,1.79496 -4.51516,1.79496c-2.03552,0 -3.60843,-0.61066 -4.71872,-1.83197c-1.11029,-1.22131 -1.66543,-2.75104 -1.66543,-4.58918c0,-1.87515 0.56131,-3.41105 1.68393,-4.60769c1.12262,-1.20898 2.65852,-1.81347 4.60769,-1.81347zM292.2468,229.05615c0.96225,0 1.72094,-0.35776 2.27609,-1.07328c0.55514,-0.72786 0.83271,-1.72711 0.83271,-2.99777c0,-1.283 -0.27757,-2.28226 -0.83271,-2.99777c-0.55514,-0.72786 -1.31384,-1.09178 -2.27609,-1.09178c-0.93757,0 -1.6901,0.36393 -2.25758,1.09178c-0.55514,0.72786 -0.83271,1.72711 -0.83271,2.99777c0,1.27066 0.27757,2.26992 0.83271,2.99777c0.55514,0.71552 1.30767,1.07328 2.25758,1.07328zM301.55701,218.84152v-1.90599c0,-0.7772 0.03084,-1.3015 0.09252,-1.57291c0.07402,-0.28374 0.24673,-0.53664 0.51813,-0.7587c0.2714,-0.22206 0.59215,-0.33309 0.96225,-0.33309c0.34542,0 0.65384,0.09869 0.92524,0.29608c0.2714,0.19738 0.45028,0.44411 0.53664,0.74019c0.08635,0.28374 0.12953,0.74636 0.12953,1.38786v2.14655h0.61066c0.7772,0 1.28916,0.09252 1.5359,0.27757c0.25907,0.18505 0.3886,0.46262 0.3886,0.83271c0,0.7772 -0.64767,1.1658 -1.943,1.1658h-0.59215v5.829c0,0.78953 0.05551,1.32617 0.16654,1.60991c0.11103,0.28374 0.4071,0.42561 0.88823,0.42561c0.23439,0 0.49346,-0.03084 0.7772,-0.09252c0.29608,-0.07402 0.51196,-0.11103 0.64767,-0.11103c0.32075,0 0.57982,0.10486 0.7772,0.31458c0.19738,0.20972 0.29608,0.46262 0.29608,0.7587c0,1.03627 -1.09178,1.5544 -3.27534,1.5544c-1.06094,0 -1.83814,-0.19738 -2.3316,-0.59215c-0.49346,-0.39477 -0.80188,-0.86972 -0.92524,-1.42487c-0.12336,-0.56748 -0.18505,-1.30767 -0.18505,-2.22057v-6.05106h-0.4071c-0.93757,0 -1.40636,-0.38243 -1.40636,-1.1473c0,-0.75253 0.49346,-1.12879 1.48038,-1.12879zM320.61923,223.4307v5.75498c0,1.48038 -0.53664,2.22057 -1.60991,2.22057c-0.49346,0 -0.87589,-0.15421 -1.1473,-0.46262c-0.25907,-0.32075 -0.3886,-0.90673 -0.3886,-1.75795v-5.0333c0,-1.19664 -0.19122,-2.01702 -0.57365,-2.46113c-0.38243,-0.44411 -0.9129,-0.66617 -1.59141,-0.66617c-0.60449,0 -1.12879,0.16654 -1.57291,0.49963c-0.44411,0.33309 -0.7587,0.74019 -0.94374,1.22131c-0.18505,0.48112 -0.27757,1.33234 -0.27757,2.55366v3.66394c0,0.98692 -0.14187,1.64075 -0.42561,1.96151c-0.28374,0.32075 -0.67234,0.48112 -1.1658,0.48112c-0.49346,0 -0.88206,-0.15421 -1.1658,-0.46262c-0.2714,-0.32075 -0.4071,-0.96842 -0.4071,-1.943v-12.52773c0,-0.76487 0.03701,-1.29533 0.11103,-1.59141c0.07402,-0.29608 0.24056,-0.53664 0.49963,-0.72169c0.2714,-0.19738 0.58598,-0.29608 0.94374,-0.29608c0.39477,0 0.72169,0.11103 0.98075,0.33309c0.2714,0.20972 0.44411,0.48729 0.51813,0.83271c0.07402,0.34542 0.11103,0.9129 0.11103,1.70244v3.73796c1.06094,-1.27066 2.34394,-1.90599 3.84899,-1.90599c1.27066,0 2.29459,0.39477 3.07179,1.18431c0.78953,0.7772 1.18431,2.00469 1.18431,3.68245zM332.53862,225.7623h-6.1991c0.03701,1.17197 0.35776,2.05403 0.96225,2.64618c0.61683,0.59215 1.35702,0.88823 2.22057,0.88823c1.0486,0 2.04169,-0.46262 2.97927,-1.38786c0.38243,-0.38243 0.66,-0.61683 0.83271,-0.70318c0.18505,-0.09869 0.3886,-0.14804 0.61066,-0.14804c0.28374,0 0.5243,0.09252 0.72169,0.27757c0.20972,0.17271 0.31458,0.3886 0.31458,0.64767c0,0.71552 -0.48729,1.46805 -1.46188,2.25758c-0.96225,0.7772 -2.27609,1.1658 -3.94152,1.1658c-2.10954,0 -3.71329,-0.59832 -4.81124,-1.79496c-1.08561,-1.19664 -1.62842,-2.73871 -1.62842,-4.62619c0,-1.91216 0.54281,-3.46039 1.62842,-4.6447c1.09795,-1.18431 2.62151,-1.77646 4.57068,-1.77646c1.85048,0 3.28151,0.56131 4.29311,1.68393c1.01159,1.11029 1.51739,2.31927 1.51739,3.62693c0,0.57982 -0.16654,1.04244 -0.49963,1.38786c-0.33309,0.33309 -1.03627,0.49963 -2.10954,0.49963zM326.33952,223.96734h5.75498c-0.03701,-1.0486 -0.32692,-1.85048 -0.86972,-2.40562c-0.54281,-0.55514 -1.20898,-0.83271 -1.99852,-0.83271c-1.67776,0 -2.64001,1.07945 -2.88674,3.23833zM337.78703,228.77858v-8.08658c0,-1.4187 0.51813,-2.12805 1.5544,-2.12805c0.99926,0 1.51122,0.65384 1.5359,1.96151c0.65384,-1.30767 1.56057,-1.96151 2.7202,-1.96151c0.60449,0 1.23365,0.16037 1.88749,0.48112c0.65384,0.32075 0.98075,0.7587 0.98075,1.31384c0,0.38243 -0.1357,0.70318 -0.4071,0.96225c-0.25907,0.24673 -0.53664,0.3701 -0.83271,0.3701c-0.17271,0 -0.48112,-0.06785 -0.92524,-0.20355c-0.44411,-0.1357 -0.81421,-0.20355 -1.11029,-0.20355c-0.75253,0 -1.31384,0.38243 -1.68393,1.1473c-0.3701,0.75253 -0.55514,2.22057 -0.55514,4.40414v1.83197c0,0.80188 -0.03701,1.34468 -0.11103,1.62842c-0.06168,0.28374 -0.23439,0.54281 -0.51813,0.7772c-0.2714,0.22206 -0.58598,0.33309 -0.94374,0.33309c-0.35776,0 -0.67851,-0.10486 -0.96225,-0.31458c-0.2714,-0.20972 -0.44411,-0.45028 -0.51813,-0.72169c-0.07402,-0.28374 -0.11103,-0.81421 -0.11103,-1.59141zM357.61721,221.83929c0,0.4071 0.20972,0.72786 0.62916,0.96225c0.41944,0.23439 1.36935,0.53047 2.84973,0.88823c2.86207,0.70318 4.29311,1.89366 4.29311,3.57142c0,1.34468 -0.48729,2.37478 -1.46188,3.0903c-0.96225,0.70318 -2.30693,1.05477 -4.03404,1.05477c-1.76412,0 -3.0903,-0.36393 -3.97853,-1.09178c-0.88823,-0.72786 -1.33234,-1.49889 -1.33234,-2.3131c0,-0.34542 0.12336,-0.6415 0.3701,-0.88823c0.24673,-0.24673 0.54897,-0.3701 0.90673,-0.3701c0.49346,0 0.92524,0.30841 1.29533,0.92524c0.41944,0.67851 0.87589,1.12879 1.36935,1.35085c0.5058,0.22206 1.04244,0.33309 1.60991,0.33309c0.6415,0 1.15963,-0.14187 1.5544,-0.42561c0.39477,-0.28374 0.59215,-0.6415 0.59215,-1.07328c0,-0.39477 -0.16654,-0.73402 -0.49963,-1.01776c-0.33309,-0.28374 -1.25215,-0.59832 -2.75721,-0.94374c-1.49272,-0.34542 -2.5845,-0.82654 -3.27534,-1.44337c-0.69085,-0.62916 -1.03627,-1.36935 -1.03627,-2.22057c0,-0.96225 0.41944,-1.81347 1.25832,-2.55366c0.83888,-0.74019 2.09721,-1.11029 3.77497,-1.11029c1.52973,0 2.74488,0.31458 3.64544,0.94374c0.9129,0.61683 1.36935,1.25832 1.36935,1.9245c0,0.35776 -0.1172,0.66 -0.35159,0.90673c-0.22206,0.24673 -0.53664,0.3701 -0.94374,0.3701c-0.61683,0 -1.17197,-0.35159 -1.66543,-1.05477c-0.48112,-0.70318 -1.21514,-1.05477 -2.20207,-1.05477c-0.53047,0 -0.99309,0.11103 -1.38786,0.33309c-0.39477,0.20972 -0.59215,0.51196 -0.59215,0.90673zM376.85754,225.7623h-6.1991c0.03701,1.17197 0.35776,2.05403 0.96225,2.64618c0.61683,0.59215 1.35702,0.88823 2.22057,0.88823c1.0486,0 2.04169,-0.46262 2.97927,-1.38786c0.38243,-0.38243 0.66,-0.61683 0.83271,-0.70318c0.18505,-0.09869 0.3886,-0.14804 0.61066,-0.14804c0.28374,0 0.5243,0.09252 0.72169,0.27757c0.20972,0.17271 0.31458,0.3886 0.31458,0.64767c0,0.71552 -0.48729,1.46805 -1.46188,2.25758c-0.96225,0.7772 -2.27609,1.1658 -3.94152,1.1658c-2.10954,0 -3.71329,-0.59832 -4.81124,-1.79496c-1.08561,-1.19664 -1.62842,-2.73871 -1.62842,-4.62619c0,-1.91216 0.54281,-3.46039 1.62842,-4.6447c1.09795,-1.18431 2.62151,-1.77646 4.57068,-1.77646c1.85048,0 3.28151,0.56131 4.29311,1.68393c1.01159,1.11029 1.51739,2.31927 1.51739,3.62693c0,0.57982 -0.16654,1.04244 -0.49963,1.38786c-0.33309,0.33309 -1.03627,0.49963 -2.10954,0.49963zM370.65845,223.96734h5.75498c-0.03701,-1.0486 -0.32692,-1.85048 -0.86972,-2.40562c-0.54281,-0.55514 -1.20898,-0.83271 -1.99852,-0.83271c-1.67776,0 -2.64001,1.07945 -2.88674,3.23833zM382.10596,228.77858v-8.08658c0,-1.4187 0.51813,-2.12805 1.5544,-2.12805c0.99926,0 1.51122,0.65384 1.5359,1.96151c0.65384,-1.30767 1.56057,-1.96151 2.7202,-1.96151c0.60449,0 1.23365,0.16037 1.88749,0.48112c0.65384,0.32075 0.98075,0.7587 0.98075,1.31384c0,0.38243 -0.1357,0.70318 -0.4071,0.96225c-0.25907,0.24673 -0.53664,0.3701 -0.83271,0.3701c-0.17271,0 -0.48112,-0.06785 -0.92524,-0.20355c-0.44411,-0.1357 -0.81421,-0.20355 -1.11029,-0.20355c-0.75253,0 -1.31384,0.38243 -1.68393,1.1473c-0.3701,0.75253 -0.55514,2.22057 -0.55514,4.40414v1.83197c0,0.80188 -0.03701,1.34468 -0.11103,1.62842c-0.06168,0.28374 -0.23439,0.54281 -0.51813,0.7772c-0.2714,0.22206 -0.58598,0.33309 -0.94374,0.33309c-0.35776,0 -0.67851,-0.10486 -0.96225,-0.31458c-0.2714,-0.20972 -0.44411,-0.45028 -0.51813,-0.72169c-0.07402,-0.28374 -0.11103,-0.81421 -0.11103,-1.59141zM396.97917,227.72381l2.75721,-7.51294c0.2714,-0.74019 0.5243,-1.19664 0.7587,-1.36935c0.23439,-0.18505 0.49963,-0.27757 0.79571,-0.27757c0.41944,0 0.76487,0.14187 1.03627,0.42561c0.28374,0.28374 0.42561,0.57982 0.42561,0.88823c0,0.28374 -0.15421,0.81421 -0.46262,1.59141l-3.05329,7.51294c-0.41944,1.07328 -0.78337,1.74562 -1.09178,2.01702c-0.29608,0.2714 -0.68468,0.4071 -1.1658,0.4071c-0.60449,0 -1.0486,-0.16654 -1.33234,-0.49963c-0.2714,-0.34542 -0.59215,-0.98692 -0.96225,-1.9245l-3.01628,-7.43892c-0.32075,-0.75253 -0.48112,-1.28916 -0.48112,-1.60991c0,-0.33309 0.14187,-0.6415 0.42561,-0.92524c0.29608,-0.29608 0.66,-0.44411 1.09178,-0.44411c0.48112,0 0.81421,0.1357 0.99926,0.4071c0.19738,0.2714 0.43794,0.78953 0.72169,1.5544zM413.52012,225.7623h-6.1991c0.03701,1.17197 0.35776,2.05403 0.96225,2.64618c0.61683,0.59215 1.35702,0.88823 2.22057,0.88823c1.0486,0 2.04169,-0.46262 2.97927,-1.38786c0.38243,-0.38243 0.66,-0.61683 0.83271,-0.70318c0.18505,-0.09869 0.3886,-0.14804 0.61066,-0.14804c0.28374,0 0.5243,0.09252 0.72169,0.27757c0.20972,0.17271 0.31458,0.3886 0.31458,0.64767c0,0.71552 -0.48729,1.46805 -1.46188,2.25758c-0.96225,0.7772 -2.27609,1.1658 -3.94152,1.1658c-2.10954,0 -3.71329,-0.59832 -4.81124,-1.79496c-1.08561,-1.19664 -1.62842,-2.73871 -1.62842,-4.62619c0,-1.91216 0.54281,-3.46039 1.62842,-4.6447c1.09795,-1.18431 2.62151,-1.77646 4.57068,-1.77646c1.85048,0 3.28151,0.56131 4.29311,1.68393c1.01159,1.11029 1.51739,2.31927 1.51739,3.62693c0,0.57982 -0.16654,1.04244 -0.49963,1.38786c-0.33309,0.33309 -1.03627,0.49963 -2.10954,0.49963zM407.32102,223.96734h5.75498c-0.03701,-1.0486 -0.32692,-1.85048 -0.86972,-2.40562c-0.54281,-0.55514 -1.20898,-0.83271 -1.99852,-0.83271c-1.67776,0 -2.64001,1.07945 -2.88674,3.23833zM418.76853,228.77858v-8.08658c0,-1.4187 0.51813,-2.12805 1.5544,-2.12805c0.99926,0 1.51122,0.65384 1.5359,1.96151c0.65384,-1.30767 1.56057,-1.96151 2.7202,-1.96151c0.60449,0 1.23365,0.16037 1.88749,0.48112c0.65384,0.32075 0.98075,0.7587 0.98075,1.31384c0,0.38243 -0.1357,0.70318 -0.4071,0.96225c-0.25907,0.24673 -0.53664,0.3701 -0.83271,0.3701c-0.17271,0 -0.48112,-0.06785 -0.92524,-0.20355c-0.44411,-0.1357 -0.81421,-0.20355 -1.11029,-0.20355c-0.75253,0 -1.31384,0.38243 -1.68393,1.1473c-0.3701,0.75253 -0.55514,2.22057 -0.55514,4.40414v1.83197c0,0.80188 -0.03701,1.34468 -0.11103,1.62842c-0.06168,0.28374 -0.23439,0.54281 -0.51813,0.7772c-0.2714,0.22206 -0.58598,0.33309 -0.94374,0.33309c-0.35776,0 -0.67851,-0.10486 -0.96225,-0.31458c-0.2714,-0.20972 -0.44411,-0.45028 -0.51813,-0.72169c-0.07402,-0.28374 -0.11103,-0.81421 -0.11103,-1.59141zM428.29155,227.90885c0.46879,0 0.86972,0.17271 1.20281,0.51813c0.34542,0.33309 0.51813,0.74019 0.51813,1.22131c0,0.46879 -0.17271,0.88206 -0.51813,1.23982c-0.33309,0.34542 -0.73402,0.51813 -1.20281,0.51813c-0.48112,0 -0.8944,-0.17271 -1.23982,-0.51813c-0.34542,-0.34542 -0.51813,-0.7587 -0.51813,-1.23982c0,-0.48112 0.17271,-0.88823 0.51813,-1.22131c0.34542,-0.34542 0.7587,-0.51813 1.23982,-0.51813z" fill="#e6e6e6" stroke="none" stroke-width="1" stroke-linecap="square"/></g></g></svg>