<svg version="1.1" xmlns="http://www.w3.org/2000/svg" xmlns:xlink="http://www.w3.org/1999/xlink" width="231.23123" height="334.83485" viewBox="0,0,231.23123,334.83485"><g transform="translate(-83.0931,-66.48647)"><g data-paper-data="{&quot;isPaintingLayer&quot;:true}" fill-rule="nonzero" stroke-linejoin="miter" stroke-miterlimit="10" stroke-dasharray="" stroke-dashoffset="0" style="mix-blend-mode: normal"><path d="M225.49058,178.18219c-0.43047,-0.46032 -2.16563,-2.11581 -2.57675,-2.55589c-2.05849,-2.20349 -4.32705,-4.33472 -4.94129,-5.01195c-0.47205,-0.52047 -0.01388,-0.73932 1.5942,-1.48893c5.05521,-2.3565 21.50322,-9.52285 24.06023,-10.65524c0.65717,-0.29103 1.63072,-0.11836 2.13506,0.36406c0.84706,0.81023 3.33172,3.39113 6.41041,6.33598c1.40103,1.34011 2.91164,2.64185 4.32732,3.95578c2.0579,1.90998 3.91521,3.72411 4.94378,4.70796c0.61464,0.58791 0.36206,1.17064 -0.37669,1.45847c-1.98961,0.77517 -11.42935,4.23446 -18.82506,7.11591c-3.08309,1.2012 -5.55019,2.35816 -7.1588,3.04209c-0.27527,0.11704 -1.31798,0.2829 -1.92031,-0.16792c-2.18995,-1.6391 -6.65658,-6.01439 -7.6721,-7.10032z" data-paper-data="{&quot;index&quot;:null}" fill="#4c685a" stroke="#15221c" stroke-width="3" stroke-linecap="butt"/><path d="M233.60194,182.61493c-0.69349,-0.73923 -1.96379,-1.87329 -3.13619,-3.1823c-0.91721,-1.0241 -1.22341,-1.52941 -2.28294,-2.66239c-0.35224,-0.37666 -1.77209,-1.73132 -2.10849,-2.09142c-1.68441,-1.80306 -2.92615,-3.23971 -3.42877,-3.79387c-0.38627,-0.42589 -0.62592,-0.91224 0.68994,-1.52564c4.13655,-1.92826 17.59554,-7.79231 19.68787,-8.71891c0.53774,-0.23814 1.33438,-0.09685 1.74707,0.29791c0.69313,0.66299 2.72625,2.77488 5.24548,5.18457c1.14642,1.09658 2.38252,2.16175 3.54094,3.23691c1.68392,1.56289 3.20371,3.04735 4.04537,3.85241c0.50294,0.48107 0.29627,0.95791 -0.30823,1.19343c-1.62805,0.6343 -9.35235,3.46496 -15.40407,5.82277c-2.95452,1.15111 -5.51038,2.32572 -6.76355,2.81397c-0.52613,0.20498 -1.08217,0.044 -1.52442,-0.42742z" data-paper-data="{&quot;index&quot;:null}" fill="#4c685a" stroke="#294436" stroke-width="2.5" stroke-linecap="butt"/><path d="M234.05039,185.79777l27.71692,-10.81853v27.09105c0,0 -24.03776,9.2274 -26.81196,10.29233c-0.50967,0.19565 -0.90495,-0.00807 -0.90495,-0.4722z" data-paper-data="{&quot;index&quot;:null}" fill="#39574f" stroke="#15221c" stroke-width="3" stroke-linecap="butt"/><path d="M233.79001,211.92594c-1.35228,-1.34168 -11.34059,-11.1124 -14.82056,-14.51597c-0.74486,-0.72851 -1.19155,-1.75572 -1.19155,-2.75476c0,-5.00634 0,-20.27426 0,-22.93143c0,-0.77202 -0.10677,-2.05864 0.23115,-1.7366c1.71672,1.63599 16.03242,15.7968 16.03242,15.7968c0,0 -0.12087,22.85642 -0.12044,25.68925c0.00007,0.45301 0.17684,0.75816 -0.13102,0.45271z" data-paper-data="{&quot;index&quot;:null}" fill="#26423b" stroke="#15221c" stroke-width="3" stroke-linecap="butt"/><path d="M260.0882,187.57371c0,0 -4.79235,1.96609 -5.63326,2.31108c-0.24262,0.09954 -0.47556,0.37811 -0.48684,0.69405c-0.05793,1.62199 -0.70783,6.98897 -0.74269,7.96506c-0.01138,0.31854 -0.40187,0.85629 -0.64867,0.95726c-0.70643,0.289 -3.89024,1.46671 -5.3563,2.05194c-0.42513,0.16971 -0.67652,-0.12821 -0.83222,-0.40359c-0.48603,-0.85961 -2.26261,-5.54181 -3.09382,-7.01192c-0.16426,-0.29051 -0.49885,-0.38441 -0.75243,-0.30199c-0.86872,0.28233 -6.23668,2.34376 -6.23668,2.34376" data-paper-data="{&quot;index&quot;:null}" fill="none" stroke="#2c453e" stroke-width="2.5" stroke-linecap="round"/><path d="M236.01864,209.61644c0,-1.90683 0,-16.57649 0,-21.20824c0,-0.87911 0.48983,-1.5878 1.08285,-1.81927c2.33652,-0.912 17.48151,-6.82343 21.78833,-8.50447c0.72322,-0.28229 1.14082,0.03837 1.14082,0.62282c0,2.23669 0,16.37844 0,20.9665c0,0.90237 -0.53241,1.63955 -1.43678,1.98671c-4.75172,1.82405 -19.77215,7.58996 -21.79123,8.36502c-0.44154,0.16949 -0.78398,-0.00699 -0.78398,-0.40908z" data-paper-data="{&quot;index&quot;:null}" fill="none" stroke="#2c453e" stroke-width="2.5" stroke-linecap="butt"/><path d="M230.87189,206.43988c-2.37646,-2.31058 -9.15014,-8.89294 -10.54143,-10.20609c-0.32241,-0.3043 -0.51222,-0.95049 -0.51222,-1.74146c0,-4.02167 0,-16.41766 0,-18.37823c0,-0.51231 0.14888,-0.79338 0.40671,-0.54594c1.25301,1.20251 8.1349,8.01206 10.624,10.47626c0.56098,0.55537 0.89757,1.40206 0.89547,2.2587c-0.00964,3.92139 -0.03703,15.06386 -0.04269,17.36691c-0.002,0.81312 -0.31277,1.2726 -0.82984,0.76986z" data-paper-data="{&quot;index&quot;:null}" fill="none" stroke="#1c302b" stroke-width="2.5" stroke-linecap="butt"/><path d="M231.54993,193.45807c0,0 -0.77254,-0.85499 -1.32645,-1.2935c-0.34601,-0.27392 -1.12902,-0.49616 -1.35189,0.12551c-0.29427,0.82085 -0.71378,3.63791 -0.94644,5.31217c-0.10516,0.75672 -0.61939,0.88537 -0.98358,0.56402c-0.50057,-0.44169 -1.86624,-1.64668 -2.71996,-2.39996c-0.42598,-0.37586 -0.7601,-1.06638 -0.79615,-1.49907c-0.081,-0.97198 -0.40537,-4.86451 -0.57493,-6.8992c-0.06287,-0.75444 -0.45181,-1.5404 -0.72231,-1.76385c-0.51747,-0.42748 -2.26113,-1.8679 -2.26113,-1.8679" data-paper-data="{&quot;index&quot;:null}" fill="none" stroke="#1c302b" stroke-width="2" stroke-linecap="round"/><path d="M314.32433,315.73573c0,47.26761 -29.24266,85.58559 -65.31532,85.58559c-36.07265,0 -65.31532,-38.31797 -65.31532,-85.58559c0,-47.26761 29.24266,-85.58559 65.31532,-85.58559c36.07265,0 65.31532,38.31797 65.31532,85.58559z" fill="none" stroke="none" stroke-width="NaN" stroke-linecap="butt"/><path d="M83.0931,66.48647z" fill="none" stroke="none" stroke-width="0" stroke-linecap="butt"/><path d="M244.65575,222.47992c-33.80166,0 -61.20333,-22.30368 -61.20333,-49.81667c0,-27.51299 27.40166,-49.81667 61.20333,-49.81667c33.80166,0 61.20333,22.30368 61.20333,49.81667c0,27.51299 -27.40166,49.81667 -61.20333,49.81667z" fill="none" stroke="none" stroke-width="0" stroke-linecap="butt"/><path d="M128.37001,187.48267z" fill="none" stroke="none" stroke-width="0" stroke-linecap="butt"/></g></g></svg>