<svg version="1.1" xmlns="http://www.w3.org/2000/svg" xmlns:xlink="http://www.w3.org/1999/xlink" width="224.95356" height="13.97364" viewBox="0,0,224.95356,13.97364"><g transform="translate(-104.96163,-33.44648)"><g data-paper-data="{&quot;isPaintingLayer&quot;:true}" fill="#000000" fill-rule="nonzero" stroke="none" stroke-width="1" stroke-linecap="square" stroke-linejoin="miter" stroke-miterlimit="10" stroke-dasharray="" stroke-dashoffset="0" style="mix-blend-mode: normal"><path d="M113.8128,33.75419v13.3763h-2.66078v-5.90078h-3.52961v5.90078h-2.66078v-13.3763h2.66078v5.26726h3.52961v-5.26726zM118.06643,40.43329c0,0.65162 0.02414,1.261 0.0724,1.82816c0.06034,0.56715 0.1629,1.0619 0.30771,1.48424c0.15687,0.41028 0.36805,0.74212 0.63352,0.99553c0.27754,0.24134 0.65162,0.36201 1.12223,0.36201c0.44648,0 0.80849,-0.12067 1.08603,-0.36201c0.27754,-0.25341 0.48871,-0.59128 0.63352,-1.01363c0.15687,-0.42235 0.25944,-0.91106 0.30771,-1.46614c0.06034,-0.56715 0.0905,-1.17654 0.0905,-1.82816c0,-0.65162 -0.03017,-1.261 -0.0905,-1.82816c-0.04827,-0.56715 -0.15084,-1.05587 -0.30771,-1.46614c-0.1448,-0.42235 -0.35598,-0.75419 -0.63352,-0.99553c-0.26547,-0.25341 -0.62748,-0.38011 -1.08603,-0.38011c-0.47061,0 -0.84469,0.1267 -1.12223,0.38011c-0.26547,0.24134 -0.47665,0.57318 -0.63352,0.99553c-0.1448,0.42235 -0.24737,0.91709 -0.30771,1.48424c-0.04827,0.55508 -0.0724,1.15843 -0.0724,1.81005zM115.36945,40.43329c0,-2.3048 0.42235,-4.04246 1.26704,-5.21296c0.85676,-1.18257 2.04536,-1.77385 3.56581,-1.77385c1.56871,0 2.76335,0.59128 3.58391,1.77385c0.82056,1.1705 1.23084,2.90815 1.23084,5.21296c0,2.3048 -0.42235,4.04849 -1.26704,5.23106c-0.83263,1.1705 -2.00916,1.75575 -3.52961,1.75575c-1.56871,0 -2.76938,-0.58525 -3.60201,-1.75575c-0.83263,-1.18257 -1.24894,-2.92625 -1.24894,-5.23106zM135.53346,47.13049h-8.39865v-13.3763h2.67888v11.16804h5.71977zM140.2215,44.97653c0.0724,0.01207 0.15084,0.0181 0.23531,0.0181c0.09654,0 0.18101,0 0.25341,0c0.60335,0 1.11017,-0.11464 1.52045,-0.34391c0.41028,-0.22927 0.74212,-0.54302 0.99553,-0.94123c0.25341,-0.41028 0.43441,-0.89296 0.54302,-1.44804c0.1086,-0.55508 0.1629,-1.16447 0.1629,-1.82816c0,-0.57922 -0.04827,-1.14033 -0.1448,-1.68335c-0.08447,-0.55508 -0.23531,-1.03777 -0.45251,-1.44804c-0.21721,-0.42235 -0.51285,-0.76022 -0.88693,-1.01363c-0.37408,-0.25341 -0.85676,-0.38011 -1.44804,-0.38011c-0.1086,0 -0.23531,0.00604 -0.38011,0.0181c-0.1448,0.01207 -0.27754,0.03017 -0.39821,0.0543zM146.6291,40.43329c0,1.2429 -0.15687,2.29877 -0.47061,3.1676c-0.31374,0.86883 -0.74212,1.58078 -1.28514,2.13586c-0.54302,0.54302 -1.19464,0.94123 -1.95486,1.19464c-0.76022,0.25341 -1.59285,0.38011 -2.49788,0.38011c-0.47061,0 -0.93519,-0.03017 -1.39374,-0.0905c-0.45855,-0.04827 -0.94726,-0.1267 -1.46614,-0.23531v-13.06859c0.61542,-0.12067 1.1886,-0.19911 1.71955,-0.23531c0.53095,-0.04827 1.0257,-0.0724 1.48424,-0.0724c0.88089,0 1.68335,0.13274 2.40737,0.39821c0.73609,0.25341 1.35151,0.65766 1.84626,1.21274c0.50682,0.54302 0.89899,1.24894 1.17654,2.11776c0.28961,0.85676 0.43441,1.88849 0.43441,3.09519zM168.27735,33.75419v2.20827h-3.51151v11.16804h-2.69698v-11.16804h-3.51151v-2.20827zM172.09656,40.43329c0,0.65162 0.02414,1.261 0.0724,1.82816c0.06034,0.56715 0.1629,1.0619 0.30771,1.48424c0.15687,0.41028 0.36805,0.74212 0.63352,0.99553c0.27754,0.24134 0.65162,0.36201 1.12223,0.36201c0.44648,0 0.80849,-0.12067 1.08603,-0.36201c0.27754,-0.25341 0.48871,-0.59128 0.63352,-1.01363c0.15687,-0.42235 0.25944,-0.91106 0.30771,-1.46614c0.06034,-0.56715 0.0905,-1.17654 0.0905,-1.82816c0,-0.65162 -0.03017,-1.261 -0.0905,-1.82816c-0.04827,-0.56715 -0.15084,-1.05587 -0.30771,-1.46614c-0.1448,-0.42235 -0.35598,-0.75419 -0.63352,-0.99553c-0.26547,-0.25341 -0.62748,-0.38011 -1.08603,-0.38011c-0.47061,0 -0.84469,0.1267 -1.12223,0.38011c-0.26547,0.24134 -0.47665,0.57318 -0.63352,0.99553c-0.1448,0.42235 -0.24737,0.91709 -0.30771,1.48424c-0.04827,0.55508 -0.0724,1.15843 -0.0724,1.81005zM169.39958,40.43329c0,-2.3048 0.42235,-4.04246 1.26704,-5.21296c0.85676,-1.18257 2.04536,-1.77385 3.56581,-1.77385c1.56871,0 2.76335,0.59128 3.58391,1.77385c0.82056,1.1705 1.23084,2.90815 1.23084,5.21296c0,2.3048 -0.42235,4.04849 -1.26704,5.23106c-0.83263,1.1705 -2.00916,1.75575 -3.52961,1.75575c-1.56871,0 -2.76938,-0.58525 -3.60201,-1.75575c-0.83263,-1.18257 -1.24894,-2.92625 -1.24894,-5.23106zM195.44627,45.19373c0.44648,0 0.81452,-0.04827 1.10413,-0.1448c0.30167,-0.09654 0.53698,-0.22324 0.70592,-0.38011c0.18101,-0.16894 0.30167,-0.35598 0.36201,-0.56112c0.06034,-0.21721 0.0905,-0.43441 0.0905,-0.65162c0,-0.27754 -0.07844,-0.51888 -0.23531,-0.72402c-0.15687,-0.21721 -0.35598,-0.41028 -0.59732,-0.57922c-0.24134,-0.16894 -0.51888,-0.31977 -0.83263,-0.45251c-0.30167,-0.1448 -0.60335,-0.27151 -0.90503,-0.38011c-0.39821,-0.1448 -0.81452,-0.30771 -1.24894,-0.48871c-0.43441,-0.19307 -0.82659,-0.43441 -1.17654,-0.72402c-0.34995,-0.28961 -0.63955,-0.64558 -0.86883,-1.06793c-0.22927,-0.42235 -0.34391,-0.95329 -0.34391,-1.59285c0,-1.25497 0.40425,-2.2324 1.21274,-2.93229c0.80849,-0.71196 1.93072,-1.06793 3.3667,-1.06793c0.82056,0 1.53251,0.09654 2.13586,0.28961c0.61542,0.18101 1.1343,0.38615 1.55665,0.61542l-0.77832,2.06346c-0.36201,-0.20514 -0.76626,-0.38011 -1.21274,-0.52492c-0.43441,-0.1448 -0.94123,-0.21721 -1.52045,-0.21721c-1.41184,0 -2.11776,0.51285 -2.11776,1.53855c0,0.25341 0.0724,0.48268 0.21721,0.68782c0.1448,0.19307 0.32581,0.36805 0.54302,0.52492c0.22927,0.1448 0.48268,0.27754 0.76022,0.39821c0.28961,0.1086 0.57318,0.21117 0.85073,0.30771c0.41028,0.15687 0.83866,0.33787 1.28514,0.54302c0.45855,0.19307 0.88089,0.45251 1.26704,0.77832c0.38615,0.31374 0.69989,0.71196 0.94123,1.19464c0.24134,0.48268 0.36201,1.09207 0.36201,1.82816c0,1.25497 -0.41028,2.22637 -1.23084,2.91419c-0.80849,0.68782 -2.03933,1.03173 -3.69251,1.03173c-1.11017,0 -1.9971,-0.12067 -2.66078,-0.36201c-0.66368,-0.24134 -1.15843,-0.46458 -1.48424,-0.66972l0.77832,-2.15397c0.38615,0.22927 0.85073,0.44648 1.39374,0.65162c0.54302,0.20514 1.20067,0.30771 1.97296,0.30771zM211.50145,33.75419v2.20827h-3.51151v11.16804h-2.69698v-11.16804h-3.51151v-2.20827zM215.32067,40.43329c0,0.65162 0.02414,1.261 0.0724,1.82816c0.06034,0.56715 0.1629,1.0619 0.30771,1.48424c0.15687,0.41028 0.36805,0.74212 0.63352,0.99553c0.27754,0.24134 0.65162,0.36201 1.12223,0.36201c0.44648,0 0.80849,-0.12067 1.08603,-0.36201c0.27754,-0.25341 0.48871,-0.59128 0.63352,-1.01363c0.15687,-0.42235 0.25944,-0.91106 0.30771,-1.46614c0.06034,-0.56715 0.0905,-1.17654 0.0905,-1.82816c0,-0.65162 -0.03017,-1.261 -0.0905,-1.82816c-0.04827,-0.56715 -0.15084,-1.05587 -0.30771,-1.46614c-0.1448,-0.42235 -0.35598,-0.75419 -0.63352,-0.99553c-0.26547,-0.25341 -0.62748,-0.38011 -1.08603,-0.38011c-0.47061,0 -0.84469,0.1267 -1.12223,0.38011c-0.26547,0.24134 -0.47665,0.57318 -0.63352,0.99553c-0.1448,0.42235 -0.24737,0.91709 -0.30771,1.48424c-0.04827,0.55508 -0.0724,1.15843 -0.0724,1.81005zM212.62369,40.43329c0,-2.3048 0.42235,-4.04246 1.26704,-5.21296c0.85676,-1.18257 2.04536,-1.77385 3.56581,-1.77385c1.56871,0 2.76335,0.59128 3.58391,1.77385c0.82056,1.1705 1.23084,2.90815 1.23084,5.21296c0,2.3048 -0.42235,4.04849 -1.26704,5.23106c-0.83263,1.1705 -2.00916,1.75575 -3.52961,1.75575c-1.56871,0 -2.76938,-0.58525 -3.60201,-1.75575c-0.83263,-1.18257 -1.24894,-2.92625 -1.24894,-5.23106zM227.68334,33.60938c1.70145,0 3.02279,0.34995 3.96402,1.04983c0.94123,0.68782 1.41184,1.82816 1.41184,3.421c0,1.59285 -0.47665,2.74525 -1.42994,3.4572c-0.94123,0.71196 -2.27463,1.06793 -4.00022,1.06793h-0.95933v4.52514h-2.66078v-13.2134c0.26547,-0.04827 0.56112,-0.0905 0.88693,-0.1267c0.32581,-0.04827 0.65162,-0.08447 0.97743,-0.1086c0.33787,-0.02414 0.66368,-0.04224 0.97743,-0.0543c0.31374,-0.01207 0.59128,-0.0181 0.83263,-0.0181zM227.99105,35.90815c-0.15687,0 -0.38011,0.00604 -0.66972,0.0181c-0.27754,0.01207 -0.49475,0.03017 -0.65162,0.0543v4.32603h1.08603c0.84469,0 1.48424,-0.16894 1.91866,-0.50682c0.43441,-0.33787 0.65162,-0.91709 0.65162,-1.73765c0,-0.78436 -0.21117,-1.33944 -0.63352,-1.66525c-0.42235,-0.32581 -0.98949,-0.48871 -1.70145,-0.48871zM247.93785,33.75419c0.1086,0.30167 0.23531,0.69386 0.38011,1.17654c0.15687,0.47061 0.31977,0.98346 0.48871,1.53855c0.16894,0.54302 0.33787,1.0981 0.50682,1.66525c0.18101,0.55508 0.34995,1.06793 0.50682,1.53855c0.16894,-0.53095 0.34391,-1.08 0.52492,-1.64715c0.19307,-0.56715 0.37408,-1.1162 0.54302,-1.64715c0.18101,-0.53095 0.34391,-1.0257 0.48871,-1.48424c0.1448,-0.45855 0.27754,-0.83866 0.39821,-1.14033h2.19017c0.1086,1.1705 0.20514,2.31083 0.28961,3.421c0.09654,1.11017 0.17497,2.20827 0.23531,3.2943c0.0724,1.08603 0.1267,2.1781 0.1629,3.2762c0.04827,1.0981 0.0905,2.22637 0.1267,3.3848h-2.44357l0.1267,-10.38971l-1.64715,5.66547h-1.93676l-1.59285,-5.66547l0.1086,10.38971h-2.44357c0.04827,-1.0981 0.09654,-2.23843 0.1448,-3.421c0.04827,-1.18257 0.10257,-2.35307 0.1629,-3.51151c0.06034,-1.1705 0.1267,-2.29877 0.19911,-3.3848c0.08447,-1.0981 0.17497,-2.11776 0.27151,-3.05899zM256.62612,47.13049v-13.3763h8.10904v2.20827h-5.44826v3.00469h4.74234v2.19017h-4.74234v3.76491h5.91888v2.20827zM276.0118,47.13049h-8.39865v-13.3763h2.67888v11.16804h5.71977zM287.14364,33.75419v2.20827h-3.51151v11.16804h-2.69698v-11.16804h-3.51151v-2.20827zM291.50587,44.97653c0.0724,0.01207 0.15084,0.0181 0.23531,0.0181c0.09654,0 0.18101,0 0.25341,0c0.60335,0 1.11017,-0.11464 1.52045,-0.34391c0.41028,-0.22927 0.74212,-0.54302 0.99553,-0.94123c0.25341,-0.41028 0.43441,-0.89296 0.54302,-1.44804c0.1086,-0.55508 0.1629,-1.16447 0.1629,-1.82816c0,-0.57922 -0.04827,-1.14033 -0.1448,-1.68335c-0.08447,-0.55508 -0.23531,-1.03777 -0.45251,-1.44804c-0.21721,-0.42235 -0.51285,-0.76022 -0.88693,-1.01363c-0.37408,-0.25341 -0.85676,-0.38011 -1.44804,-0.38011c-0.1086,0 -0.23531,0.00604 -0.38011,0.0181c-0.1448,0.01207 -0.27754,0.03017 -0.39821,0.0543zM297.91346,40.43329c0,1.2429 -0.15687,2.29877 -0.47061,3.1676c-0.31374,0.86883 -0.74212,1.58078 -1.28514,2.13586c-0.54302,0.54302 -1.19464,0.94123 -1.95486,1.19464c-0.76022,0.25341 -1.59285,0.38011 -2.49788,0.38011c-0.47061,0 -0.93519,-0.03017 -1.39374,-0.0905c-0.45855,-0.04827 -0.94726,-0.1267 -1.46614,-0.23531v-13.06859c0.61542,-0.12067 1.1886,-0.19911 1.71955,-0.23531c0.53095,-0.04827 1.0257,-0.0724 1.48424,-0.0724c0.88089,0 1.68335,0.13274 2.40737,0.39821c0.73609,0.25341 1.35151,0.65766 1.84626,1.21274c0.50682,0.54302 0.89899,1.24894 1.17654,2.11776c0.28961,0.85676 0.43441,1.88849 0.43441,3.09519zM301.76888,40.43329c0,0.65162 0.02414,1.261 0.0724,1.82816c0.06034,0.56715 0.1629,1.0619 0.30771,1.48424c0.15687,0.41028 0.36805,0.74212 0.63352,0.99553c0.27754,0.24134 0.65162,0.36201 1.12223,0.36201c0.44648,0 0.80849,-0.12067 1.08603,-0.36201c0.27754,-0.25341 0.48871,-0.59128 0.63352,-1.01363c0.15687,-0.42235 0.25944,-0.91106 0.30771,-1.46614c0.06034,-0.56715 0.0905,-1.17654 0.0905,-1.82816c0,-0.65162 -0.03017,-1.261 -0.0905,-1.82816c-0.04827,-0.56715 -0.15084,-1.05587 -0.30771,-1.46614c-0.1448,-0.42235 -0.35598,-0.75419 -0.63352,-0.99553c-0.26547,-0.25341 -0.62748,-0.38011 -1.08603,-0.38011c-0.47061,0 -0.84469,0.1267 -1.12223,0.38011c-0.26547,0.24134 -0.47665,0.57318 -0.63352,0.99553c-0.1448,0.42235 -0.24737,0.91709 -0.30771,1.48424c-0.04827,0.55508 -0.0724,1.15843 -0.0724,1.81005zM299.0719,40.43329c0,-2.3048 0.42235,-4.04246 1.26704,-5.21296c0.85676,-1.18257 2.04536,-1.77385 3.56581,-1.77385c1.56871,0 2.76335,0.59128 3.58391,1.77385c0.82056,1.1705 1.23084,2.90815 1.23084,5.21296c0,2.3048 -0.42235,4.04849 -1.26704,5.23106c-0.83263,1.1705 -2.00916,1.75575 -3.52961,1.75575c-1.56871,0 -2.76938,-0.58525 -3.60201,-1.75575c-0.83263,-1.18257 -1.24894,-2.92625 -1.24894,-5.23106zM315.6882,38.47843c0.06034,0.27754 0.1448,0.62145 0.25341,1.03173c0.12067,0.39821 0.24737,0.84469 0.38011,1.33944c0.1448,0.48268 0.29564,1.0076 0.45251,1.57475c0.16894,0.55508 0.33787,1.12827 0.50682,1.71955c0,-0.74816 -0.01207,-1.55061 -0.0362,-2.40737c-0.01207,-0.85676 -0.02414,-1.73162 -0.0362,-2.62458c-0.01207,-0.89296 -0.03017,-1.79799 -0.0543,-2.71508c-0.01207,-0.91709 -0.0181,-1.79799 -0.0181,-2.64268h2.47977c-0.04827,1.0981 -0.09654,2.22637 -0.1448,3.3848c-0.0362,1.15843 -0.08447,2.31083 -0.1448,3.4572c-0.06034,1.14637 -0.13274,2.27463 -0.21721,3.3848c-0.0724,1.11017 -0.15687,2.16 -0.25341,3.1495h-2.20827c-0.31374,-0.90503 -0.63352,-1.87642 -0.95933,-2.91419c-0.31374,-1.04983 -0.62748,-2.0514 -0.94123,-3.00469c-0.31374,0.90503 -0.64558,1.89452 -0.99553,2.96849c-0.34995,1.0619 -0.66972,2.04536 -0.95933,2.95039h-2.19017c-0.12067,-0.98949 -0.22324,-2.03933 -0.30771,-3.1495c-0.08447,-1.12223 -0.1629,-2.25653 -0.23531,-3.4029c-0.06034,-1.14637 -0.11464,-2.29877 -0.1629,-3.4572c-0.0362,-1.1705 -0.0724,-2.29273 -0.1086,-3.3667h2.47977c-0.02414,0.84469 -0.04224,1.72559 -0.0543,2.64268c-0.01207,0.90503 -0.02414,1.81005 -0.0362,2.71508c-0.01207,0.89296 -0.03017,1.76782 -0.0543,2.62458c-0.01207,0.85676 -0.0181,1.65921 -0.0181,2.40737c0.13274,-0.45855 0.27754,-0.95933 0.43441,-1.50235c0.16894,-0.55508 0.33185,-1.0981 0.48871,-1.62905c0.15687,-0.53095 0.29564,-1.01967 0.41631,-1.46614c0.13274,-0.44648 0.23531,-0.80246 0.30771,-1.06793zM327.77933,47.13049c-0.60335,-1.48424 -1.261,-2.96245 -1.97296,-4.43463c-0.71196,-1.48424 -1.48423,-2.96849 -2.31684,-4.45273v8.88737h-2.38927v-13.3763h2.13586c0.41028,0.62748 0.81452,1.3153 1.21274,2.06346c0.39819,0.73609 0.79035,1.47218 1.1765,2.20827c0.38615,0.73609 0.73609,1.45408 1.04983,2.15397c0.32581,0.68782 0.60938,1.29117 0.85073,1.81005v-8.23575h2.38927v13.3763z"/></g></g></svg>