<svg version="1.1" xmlns="http://www.w3.org/2000/svg" xmlns:xlink="http://www.w3.org/1999/xlink" width="144.14414" height="207.20721" viewBox="0,0,144.14414,207.20721"><g transform="translate(-239.24925,-102.52251)"><g data-paper-data="{&quot;isPaintingLayer&quot;:true}" fill-rule="nonzero" stroke-linejoin="miter" stroke-miterlimit="10" stroke-dasharray="" stroke-dashoffset="0" style="mix-blend-mode: normal"><g><g><path d="M280.08081,243.51667l61.61361,-59.41416" fill="none" stroke="#685f46" stroke-width="17.5" stroke-linecap="round"/><path d="M280.08081,243.51667l61.61361,-59.41416" fill="none" stroke="#a7a79e" stroke-width="15" stroke-linecap="round"/><path d="M307.45948,202.47318c2.49213,-2.78433 5.15913,-6.29827 7.36959,-8.6319c0.85183,-0.8993 4.15844,-1.95508 6.1782,-0.74876c0.887,0.52976 6.73808,5.445 6.27634,15.26852c-0.02261,0.48102 -0.17031,1.31012 -0.34317,1.98354c-0.12097,0.47125 -0.65938,1.37547 -0.80915,1.54006c-0.25097,0.27582 -0.49128,0.51066 -0.64005,0.65812c-3.22546,3.19702 -11.96902,11.82223 -13.80815,13.20644c-2.4404,1.83675 -4.32794,3.99738 -5.7862,4.06849c-2.79877,0.13648 -4.14583,-3.57115 -5.69378,-5.01431c-0.93131,-0.86825 -1.33924,-5.98782 -2.07341,-9.25465c-0.56562,-2.5168 0.38021,-3.68238 1.14995,-4.49888c0,0 4.51609,-4.48335 8.17983,-8.57667z" fill="#969685" stroke="none" stroke-width="0" stroke-linecap="butt"/><g fill="none" stroke="#7b7b6a" stroke-width="0.7" stroke-linecap="round"><path d="M321.20318,193.87017l-2.3881,2.85345c0,0 1.03087,1.21725 1.35723,1.60261c0.18412,0.21741 0.14419,0.72165 -0.30926,1.07916c-0.64101,0.50539 -1.61304,1.30246 -2.57097,2.20591c-1.75265,1.65299 -3.5137,3.6621 -4.84223,4.89241c-2.23494,2.06972 -6.39471,5.80621 -6.39471,5.80621"/><path d="M309.66109,216.3797l2.19359,-2.76472l-1.46779,-3.10808l11.85528,-11.87855l-1.44861,-1.89866l2.03916,-1.70242"/><path d="M325.53369,202.31236l-4.45275,3.75871l0.54599,2.69984l-4.21881,3.65865l-1.00724,-2.41953c0,0 -1.91689,2.06203 -2.78794,3.15631c-1.02868,1.2923 -2.99029,4.10272 -2.99029,4.10272"/><path d="M326.32824,203.13478l-3.92458,3.3114l0.74681,2.19885l-6.06448,5.74874l-1.00724,-2.41953l-5.26993,6.57118"/><path d="M327.05449,206.06193l-6.26529,6.24974l0.35913,2.39235c0,0 -2.30629,1.93596 -3.59343,3.14777c-0.98919,0.93131 -2.51154,2.67437 -3.87343,4.02171c-1.05994,1.04862 -2.12125,1.85754 -2.12125,1.85754"/></g><path d="M299.38678,216.02231l-0.534,-4.21804c0,0 6.05591,-7.02902 10.88434,-12.3561c2.21756,-2.44657 4.03931,-4.68436 5.14029,-5.44997c3.19288,-2.22029 5.45202,-0.62538 5.45202,-0.62538c0,0 -4.64491,4.97218 -12.70518,14.01483c-5.11061,5.73349 -8.23748,8.63466 -8.23748,8.63466z" fill="#bdbdac" stroke="none" stroke-width="0" stroke-linecap="butt"/><path d="M307.45948,202.47318c2.49213,-2.78433 5.15913,-6.29827 7.36959,-8.6319c0.85183,-0.8993 4.15844,-1.95508 6.1782,-0.74876c0.887,0.52976 6.73808,5.445 6.27634,15.26852c-0.02261,0.48102 -0.17031,1.31012 -0.34317,1.98354c-0.12097,0.47125 -0.65938,1.37548 -0.80914,1.54007c-0.25097,0.27582 -0.49128,0.51065 -0.64005,0.6581c-3.22546,3.19702 -11.96902,11.82223 -13.80815,13.20644c-2.4404,1.83675 -3.86548,3.83678 -5.48854,3.53624c-1.1339,0.0553 -3.4903,-2.18131 -3.81665,-2.90802c-0.47917,-1.067 1.19795,-0.60205 0.27713,-1.46052c-0.86187,-0.8035 -2.53173,-3.66806 -3.17051,-6.91559c-0.05147,-0.26165 -0.83761,-2.3696 -0.89235,-2.61318c-0.56562,-2.5168 -0.66917,-2.63888 0.10056,-3.45538c0,0 5.103,-5.36624 8.76674,-9.45956z" fill="none" stroke="#313131" stroke-width="1.5" stroke-linecap="butt"/><path d="M329.98487,198.97784c0,0 2.39727,-2.50964 3.42879,-4.27266c1.62888,-2.784 1.88858,-4.46876 3.5049,-6.96876c2.79226,-4.31884 6.60408,-8.17081 7.73093,-6.12289c0.95031,1.7271 -2.31072,7.46643 -7.69245,9.02544c-5.41386,1.56832 -9.54793,4.32372 -9.54793,4.32372" fill="none" stroke="#999990" stroke-width="2" stroke-linecap="round"/></g><path d="M299.86006,212.29046c1.2136,0.34327 3.93476,0.19359 6.13197,3.95711c3.17418,5.43695 1.77619,9.34371 1.57523,11.53131c-0.05563,0.60565 -0.65488,1.01604 -1.26361,0.94038c-0.45509,-0.05656 -0.94487,-0.18327 -1.26688,-0.45335c-1.25851,-1.05559 -2.11147,-3.58436 -4.10587,-7.42741c-0.80998,-1.56077 -1.77048,-5.1995 -2.00439,-7.19918c-0.15782,-1.34911 0.53011,-1.46297 0.93355,-1.34886z" fill="#6c685c" stroke="none" stroke-width="0" stroke-linecap="butt"/><path d="M292.06543,220.74863c0,0 3.43027,-3.4446 4.67429,-4.69382c0.82662,-0.83008 2.85582,-1.15788 3.8693,0.09454c1.76731,2.18398 3.25092,3.52193 4.2045,6.1121c0.67235,1.82631 0.75072,2.76502 0.96094,4.24818c0.21438,1.51251 -0.25948,3.79549 -1.87832,5.29457c-0.98536,0.91245 -3.3048,3.11184 -3.3048,3.11184" fill="#a7a79e" stroke="#685f46" stroke-width="1.25" stroke-linecap="round"/><path d="M296.57104,224.21456c0,0 -2.39727,2.50964 -3.42879,4.27266c-1.62888,2.78401 -1.88858,4.46877 -3.5049,6.96877c-2.79226,4.31885 -6.60408,8.17081 -7.73093,6.12289c-0.95031,-1.7271 2.31072,-7.46643 7.69245,-9.02544c5.41387,-1.56832 9.54793,-4.32372 9.54793,-4.32372" data-paper-data="{&quot;index&quot;:null}" fill="none" stroke="#999990" stroke-width="2" stroke-linecap="round"/></g><g><g><path d="M287.08081,272.01666l61.61361,-59.41416" fill="none" stroke="#685f46" stroke-width="17.5" stroke-linecap="round"/><path d="M287.08081,272.01666l61.61361,-59.41416" fill="none" stroke="#a7a79e" stroke-width="15" stroke-linecap="round"/><path d="M314.45946,230.97317c2.49213,-2.78433 5.15913,-6.29827 7.36959,-8.6319c0.85183,-0.8993 4.15844,-1.95508 6.1782,-0.74876c0.887,0.52976 6.73808,5.445 6.27634,15.26852c-0.02261,0.48102 -0.17031,1.31012 -0.34317,1.98354c-0.12097,0.47125 -0.65938,1.37547 -0.80915,1.54006c-0.25097,0.27582 -0.49128,0.51066 -0.64005,0.65812c-3.22546,3.19702 -11.96902,11.82223 -13.80815,13.20644c-2.4404,1.83674 -4.32794,3.99738 -5.7862,4.0685c-2.79877,0.13648 -4.14583,-3.57116 -5.69378,-5.01432c-0.93131,-0.86825 -1.33924,-5.98782 -2.07341,-9.25465c-0.56562,-2.5168 0.38021,-3.68238 1.14995,-4.49888c0,0 4.51609,-4.48335 8.17983,-8.57667z" fill="#969685" stroke="none" stroke-width="0" stroke-linecap="butt"/><g fill="none" stroke="#7b7b6a" stroke-width="0.7" stroke-linecap="round"><path d="M328.20317,222.37015l-2.3881,2.85345c0,0 1.03088,1.21725 1.35723,1.60261c0.18412,0.21741 0.14419,0.72165 -0.30926,1.07916c-0.64102,0.5054 -1.61306,1.30246 -2.57098,2.20592c-1.75266,1.65299 -3.5137,3.6621 -4.84223,4.89241c-2.23494,2.06972 -6.39471,5.80621 -6.39471,5.80621"/><path d="M316.66108,244.87969l2.19359,-2.76472l-1.46779,-3.10808l11.85528,-11.87855l-1.44861,-1.89866l2.03916,-1.70242"/><path d="M332.53369,230.81235l-4.45275,3.75871l0.54599,2.69984l-4.21881,3.65865l-1.00724,-2.41953c0,0 -1.91689,2.06203 -2.78794,3.15631c-1.02869,1.2923 -2.9903,4.10272 -2.9903,4.10272"/><path d="M333.32824,231.63477l-3.92458,3.3114l0.74681,2.19885l-6.06448,5.74874l-1.00724,-2.41953l-5.26993,6.57118"/><path d="M334.05449,234.56192l-6.26529,6.24974l0.35913,2.39235c0,0 -2.30629,1.93595 -3.59343,3.14777c-0.9892,0.93131 -2.51155,2.67437 -3.87344,4.02171c-1.05994,1.04862 -2.12125,1.85754 -2.12125,1.85754"/></g><path d="M306.38678,244.5223l-0.534,-4.21804c0,0 6.05591,-7.02902 10.88434,-12.3561c2.21756,-2.44657 4.03931,-4.68436 5.14029,-5.44997c3.19288,-2.22029 5.45202,-0.62538 5.45202,-0.62538c0,0 -4.64491,4.97218 -12.70518,14.01483c-5.11061,5.73349 -8.23748,8.63466 -8.23748,8.63466z" fill="#bdbdac" stroke="none" stroke-width="0" stroke-linecap="butt"/><path d="M314.45948,230.97317c2.49213,-2.78433 5.15913,-6.29827 7.36959,-8.6319c0.85183,-0.8993 4.15844,-1.95508 6.1782,-0.74876c0.887,0.52976 6.73808,5.445 6.27634,15.26852c-0.02261,0.48102 -0.17031,1.31012 -0.34317,1.98354c-0.12097,0.47125 -0.65938,1.37548 -0.80914,1.54007c-0.25097,0.27582 -0.49128,0.51065 -0.64005,0.6581c-3.22546,3.19702 -11.96902,11.82223 -13.80815,13.20644c-2.4404,1.83675 -3.86548,3.83678 -5.48854,3.53624c-1.1339,0.0553 -3.4903,-2.18132 -3.81665,-2.90802c-0.47917,-1.067 1.19795,-0.60205 0.27713,-1.46052c-0.86187,-0.8035 -2.53173,-3.66806 -3.17051,-6.91559c-0.05147,-0.26165 -0.83761,-2.3696 -0.89235,-2.61318c-0.56562,-2.5168 -0.66917,-2.63888 0.10056,-3.45538c0,0 5.103,-5.36624 8.76674,-9.45956z" fill="none" stroke="#313131" stroke-width="1.5" stroke-linecap="butt"/><path d="M336.98486,227.47783c0,0 2.39727,-2.50964 3.42879,-4.27266c1.62888,-2.784 1.88858,-4.46876 3.5049,-6.96876c2.79226,-4.31884 6.60408,-8.17081 7.73093,-6.12289c0.95031,1.7271 -2.31072,7.46643 -7.69245,9.02544c-5.41386,1.56832 -9.54793,4.32372 -9.54793,4.32372" fill="none" stroke="#999990" stroke-width="2" stroke-linecap="round"/></g><path d="M306.86006,240.79045c1.2136,0.34327 3.93476,0.19359 6.13197,3.95711c3.17418,5.43695 1.77619,9.34371 1.57523,11.53131c-0.05563,0.60565 -0.65488,1.01603 -1.26361,0.94038c-0.45509,-0.05656 -0.94487,-0.18327 -1.26688,-0.45335c-1.25851,-1.05559 -2.11147,-3.58436 -4.10587,-7.42741c-0.80998,-1.56077 -1.77048,-5.1995 -2.00439,-7.19918c-0.15782,-1.34911 0.53011,-1.46297 0.93355,-1.34886z" fill="#6c685c" stroke="none" stroke-width="0" stroke-linecap="butt"/><path d="M299.06543,249.24862c0,0 3.43027,-3.4446 4.67429,-4.69382c0.82662,-0.83008 2.85582,-1.15788 3.8693,0.09454c1.76731,2.18398 3.25092,3.52193 4.2045,6.1121c0.67235,1.82631 0.75072,2.76502 0.96094,4.24818c0.21438,1.51251 -0.25948,3.79549 -1.87832,5.29457c-0.98536,0.91245 -3.3048,3.11184 -3.3048,3.11184" fill="#a7a79e" stroke="#685f46" stroke-width="1.25" stroke-linecap="round"/><path d="M303.57102,252.71455c0,0 -2.39727,2.50965 -3.42879,4.27267c-1.62888,2.784 -1.88858,4.46876 -3.5049,6.96876c-2.79226,4.31885 -6.60408,8.17081 -7.73093,6.12289c-0.95031,-1.7271 2.31072,-7.46644 7.69245,-9.02545c5.41387,-1.56832 9.54793,-4.32372 9.54793,-4.32372" data-paper-data="{&quot;index&quot;:null}" fill="none" stroke="#999990" stroke-width="2" stroke-linecap="round"/></g><path d="M239.24925,309.72972v-207.20721h144.14414v207.20721z" fill="none" stroke="none" stroke-width="0" stroke-linecap="butt"/></g></g></svg>