<svg version="1.1" xmlns="http://www.w3.org/2000/svg" xmlns:xlink="http://www.w3.org/1999/xlink" width="347.76824" height="359.5" viewBox="0,0,347.76824,359.5"><defs><linearGradient x1="372.68778" y1="305.68968" x2="372.68778" y2="315.97539" gradientUnits="userSpaceOnUse" id="color-1"><stop offset="0" stop-color="#801a00"/><stop offset="1" stop-color="#701800"/></linearGradient><linearGradient x1="372.68778" y1="283.43968" x2="372.68778" y2="293.72539" gradientUnits="userSpaceOnUse" id="color-2"><stop offset="0" stop-color="#801a00"/><stop offset="1" stop-color="#701800"/></linearGradient></defs><g transform="translate(-117.75,-0.25)"><g data-paper-data="{&quot;isPaintingLayer&quot;:true}" fill-rule="nonzero" stroke-linejoin="miter" stroke-miterlimit="10" stroke-dasharray="" stroke-dashoffset="0" style="mix-blend-mode: normal"><path d="M293.7514,29.02973l-0.12821,-3.51454l10.51954,-7.28638l2.9529,1.55802z" fill="none" stroke="#e02503" stroke-width="3" stroke-linecap="butt"/><path d="M293.7514,29.02973l-0.12821,-3.51454l10.51954,-7.28638l2.9529,1.55802z" fill="#000000" stroke="#ffffff" stroke-width="1.5" stroke-linecap="butt"/><path d="M265.75046,292.70619c1.76777,-1.76777 3.53553,0 3.53553,0l1.15279,1.16731c1.21325,1.46604 2.30045,3.04435 3.25005,4.69345c0,0 1.24035,2.17061 -0.93026,3.41096c-1.05611,0.60349 -1.89199,0.3995 -2.47194,0.03093c-0.18016,0.01044 -0.29348,0.00173 -0.29348,0.00173c-0.21526,-0.01665 -0.43084,-0.02982 -0.64664,-0.04028c0.36858,0.19376 0.68287,0.47684 0.91408,0.82048c0.94264,0.36249 1.85501,0.77744 2.29849,1.61657c2.36755,4.47984 0.21281,7.85973 -4.93165,7.21432c-2.78289,-0.34913 -3.71359,-2.70198 -4.38032,-5.07192c-4.0841,-1.19602 -9.14418,-3.77998 -4.72951,-9.22795c0.9193,-1.13447 2.87909,-0.51277 4.33397,-0.63718c0.95146,-0.08136 2.1526,-0.05309 3.36647,0.0167l-0.46757,-0.45956c0,0 -1.76777,-1.76777 0,-3.53553z" fill="#3e3e3e" stroke="none" stroke-width="0.5" stroke-linecap="butt"/><path d="M207.85157,288.30729c0.25526,0 0.50158,0.03826 0.73355,0.10935l0.71781,-0.17875c1.22509,0.75169 2.82717,1.09463 3.67526,2.25507c0.47991,0.65666 0.05361,1.61249 0.07237,2.44665c0.55957,0.48826 1.0924,1.03531 1.58853,1.60076c1.67691,0.97417 3.25274,2.14994 4.78822,3.32604c1.21782,0.93279 1.94348,1.78249 2.41507,2.68864l0.00919,-0.00459l2.21358,4.42715c0.18291,0.34741 0.28642,0.74312 0.28642,1.16302c0,0.77033 -0.34841,1.45928 -0.89624,1.91788c0.19978,0.64013 0.29842,1.29179 0.22076,1.95853c-0.77028,6.6134 -4.83502,5.1612 -8.49267,3.23742c-1.27345,-0.66978 -2.19934,-1.85582 -3.29543,-2.78794c-2.94512,-2.50456 -8.99246,-5.851 -10.22902,-9.7915c-0.03562,-0.11351 -0.06793,-0.22765 -0.09724,-0.34237l-0.05099,0.01912l-0.97977,-2.61272c-0.11572,-0.28795 -0.17941,-0.60242 -0.17941,-0.93176c0,-1.38071 1.11929,-2.5 2.5,-2.5c0.46716,0 0.90439,0.12813 1.27847,0.35117l1.41964,0.81122c-0.05796,-0.30399 -0.0867,-0.62667 -0.12566,-0.94281l-1.92693,-1.28462c-0.68925,-0.44514 -1.14551,-1.2201 -1.14551,-2.10163c0,-1.38071 1.11929,-2.5 2.5,-2.5c0.36939,0 0.72006,0.08011 1.0356,0.22391l0.26175,0.11218c0.44636,-0.41536 1.04484,-0.66942 1.70264,-0.66942zM216.36838,305.10945c-0.37214,-0.39735 -0.7403,-0.79851 -1.10591,-1.20212c-0.08635,0.22811 -0.21465,0.46591 -0.3949,0.7117c-0.51212,0.69835 -1.08875,0.97739 -1.62374,1.04382c1.84749,1.64116 3.74619,3.20078 5.5428,4.42055c0.13642,0.09262 -0.02397,-0.33608 -0.09292,-0.48585c-0.51124,-1.1105 -1.04208,-2.2142 -1.6408,-3.28008c-0.22647,-0.40318 -0.45337,-0.80681 -0.68453,-1.20801z" fill="#3e3e3e" stroke="none" stroke-width="0.5" stroke-linecap="butt"/><path d="M120,357.5v-355h240v355zM145.32346,17.7491c-9.92278,1.24035 -8.68243,11.16313 -8.68243,11.16313c0.9963,7.80213 3.38411,15.36286 5.00755,23.05898c0.80503,3.81634 -0.08477,7.80035 -0.08477,11.70067c0,10.33334 0,20.66666 0,31c0,1.15895 -0.02133,8.77208 0.08477,9.29933c1.02083,5.07304 3.08121,9.90749 4,15c0.86367,4.787 -0.10937,10.77184 -0.08477,15.70067c0.01644,3.29298 0.83777,6.53763 1.03407,9.8248c0.3214,5.38216 -0.03407,10.78345 -0.03407,16.1752c0,1.44976 -0.03073,8.85589 0.12912,9.60182c0.66262,3.09207 2.59796,5.86338 3,9c1.0911,8.5126 -0.91499,17.38302 -0.11382,25.95119c0.56203,6.01071 1.49082,11.98459 2,18c0.2133,2.51996 0.16486,5.06186 0.07259,7.6077c-0.64239,-0.10432 -1.33694,-0.16071 -2.08789,-0.16071c-10,0 -10,10 -10,10c0,2.33334 0,5.66666 0,8c0,4.46957 0.57719,9.562 0.04866,14.01463c-1.02769,8.65795 -2.01346,18.39137 -0.97375,27.20721c1.10395,9.36054 2.97301,18.2352 5.26008,27.34485c1.61461,6.4312 3.54675,12.0774 7.16028,17.69614c0.4255,0.68615 0.93172,1.317 1.50539,1.87928c0.09428,9.85791 9.99932,9.85791 9.99932,9.85791c6.66805,-0.02666 12.58808,1.42178 19.17519,1.96593c12.25946,1.01272 24.73539,-0.85755 37,0c3.27668,0.22911 6.5929,0.57803 9.73237,1.5439c3.32766,1.02377 0.08475,-11.36694 3.53728,-10.91808c5.07497,0.65979 13.43597,0.07493 18.55517,0.07493c20.33333,0 40.33333,3 60.66667,3c6.79251,0 14.88079,5.74025 20.33722,0.12783c1.38463,-1.42421 9.57625,-3.53779 9.92119,-6.57266c0.23423,-2.06083 0.42338,-4.17722 0.07493,-6.22183c-0.06811,-0.39965 -1.47251,0.00264 -1.18325,-0.28142c0.52961,-0.52011 1.65723,-0.07664 2.13032,-0.64864c0.8751,-1.05808 0.84238,-2.64166 1.55944,-3.81262c0.49236,-0.80403 1.57551,-1.15816 2,-2c1.06,-2.10221 1.57625,-4.437 2.36437,-6.65549c0,-2.02759 0.7632,-3.98629 1,-6c0.53983,-4.59059 0.12913,-9.94681 0.12913,-14.60182c0,-3.57506 0.61064,-8.66364 -0.07493,-12.22183c-0.50574,-2.62487 -1.13614,-5.26297 -2.22308,-7.70515c-0.47312,-1.06304 -1.77399,-1.56898 -2.35359,-2.57792c-0.69351,-1.20724 -0.77213,-2.69104 -1.38995,-3.93872c-0.98064,-1.98041 -2.2557,-3.80089 -3.38354,-5.70133l-4.72861,-4.76395c-0.11502,-4.66511 -1.18016,-8.01973 -1.17964,-12.75776c0.00203,-18.68627 1.03114,-42.88158 0.33097,-61.55057c-0.50267,-13.40295 0.24312,-22.04727 0.66267,-35.42631c0.31644,-10.09112 -3.04587,-20.02136 -1.74818,-30.03369c1.41637,-10.92807 2.08547,-21.41833 2.08787,-32.32277c-0.0462,-6.79638 1.20784,-13.53566 2.05343,-20.28556c1.45266,-0.53 2.83706,-1.1591 4.07219,-1.94509c5.89676,-3.75249 5.58236,-10.82882 2.72141,-16.74707c0.01439,-3.52563 -0.11877,-7.05559 -0.13943,-10.58135c-0.05142,-8.77231 -1.15677,-17.81519 -7.99103,-23.20663c-1.04493,-0.82433 -4.32652,-1.31103 -7.22395,-1.2634c-9.89092,-3.43394 -21.57654,-0.57646 -31.55643,-2.54988c-6.11643,-1.20947 -16.75758,-3.87085 -22.98179,-1.36477c-4.94823,1.99233 -13.32775,3.45624 -13.72562,9.94376c-0.08788,0 -0.16435,0 -0.22879,0c-15,0 -30,0 -45,0c-5,0 -10,0 -15,0c-1.46669,0 -2.95513,0.39138 -4.39818,0.12912c-5.73459,-1.04215 -11.159,-3.37307 -16.76747,-4.95944c-6.95609,-0.65138 -12.16277,-1.52051 -18.83435,-1.16968c-2.61764,0.13765 -5.37416,-0.16366 -7.82683,0.76121c-2.08927,0.78784 -3.49616,2.77848 -5.24424,4.16773l-0.01653,0.05119c-0.66781,-0.02806 -1.38424,0.00104 -2.15276,0.0971z" fill="#3e3e3e" stroke="#000000" stroke-width="4.5" stroke-linecap="butt"/><path d="M269.55469,308.42188v-262h8.46841c1.96611,1.03299 3.9619,2.03412 6.00402,3.0266c1.01914,0.49531 1.9752,1.25639 2.9222,2.0525c0.97627,1.27311 2.25183,2.30466 3.72151,2.98948c0.57173,0.2664 1.17284,0.48034 1.79713,0.63561c4.78307,2.22322 5.52076,9.71454 9.9371,12.7522c2.12815,1.46379 5.10462,3.70864 8.02802,5.66442c2.22737,1.49013 4.42394,2.81246 6.19101,3.49366c0.06385,0.02461 1.95519,-1.77775 2.01831,-1.75137c0.76846,0.32114 -1.29282,-3.69242 -0.4893,-3.91156c0.98523,-0.2687 1.93452,-0.60961 2.83016,-1.0184c0.21796,0.01419 0.43783,0.02139 0.65937,0.02139c0.42523,0 0.84426,-0.02654 1.25552,-0.07806c0.32681,-0.04094 0.64872,-0.09764 0.96493,-0.16934c2.56993,-0.49864 4.99232,-1.32481 5.80557,-1.52847c3.21758,-0.80577 6.81481,-1.59262 9.88603,-3.00672v242.82807z" fill="#3e3e3e" stroke="none" stroke-width="0" stroke-linecap="butt"/><path d="" fill="#3e3e3e" stroke="none" stroke-width="0" stroke-linecap="butt"/><g fill="none" stroke="#ffffff" stroke-width="3" stroke-linecap="round"><path d="M242.27849,276h-28.11182"/><g><path d="M214.72151,200h28.11182"/><path d="M228.03763,239.66667h-13.68602"/></g><path d="M242.83333,124h-28.11182"/><path d="M214.35161,163.66666h13.68602"/><path d="M214.35162,85.66666h13.68602"/></g><g><path d="M358.75921,315.97539v-10.28571h27.85714v10.28571z" fill="url(#color-1)" stroke="#420806" stroke-width="3" stroke-linecap="butt"/><path d="M379.47349,307.00714l-19.42857,-0.03175" fill="none" stroke="#aa3300" stroke-width="4.5" stroke-linecap="round"/><path d="M359.31476,315.43571v-2.44444h27v2.44444z" fill="#aa3300" stroke="none" stroke-width="0" stroke-linecap="butt"/><path d="M358.75921,315.97539v-10.28571h27.85715v10.28571z" fill="none" stroke="#420806" stroke-width="3" stroke-linecap="butt"/></g><path d="M250.855,23.32897v-18.61084h41.54204v18.61084z" fill="#3e3e3e" stroke="none" stroke-width="0" stroke-linecap="butt"/><g><path d="M358.75921,293.72539v-10.28571h27.85714v10.28571z" fill="url(#color-2)" stroke="#420806" stroke-width="3" stroke-linecap="butt"/><path d="M379.47349,284.75714l-19.42857,-0.03175" fill="none" stroke="#aa3300" stroke-width="4.5" stroke-linecap="round"/><path d="M359.31476,293.18571v-2.44444h27v2.44444z" fill="#aa3300" stroke="none" stroke-width="0" stroke-linecap="butt"/><path d="M358.75921,293.72539v-10.28571h27.85715v10.28571z" fill="none" stroke="#420806" stroke-width="3" stroke-linecap="butt"/></g><path d="M164.28708,322.26975v-19h185.5v19z" fill="#3e3e3e" stroke="none" stroke-width="0" stroke-linecap="butt"/><path d="M168.22707,324.67376c0.0306,-0.00342 0.06123,-0.00698 0.0919,-0.01072c12.30501,-0.12176 24.27133,-1.45464 36.69183,-1.00647c3.0165,0.10884 5.98886,0.78992 9,1c10.13779,0.70727 20.74515,0.42891 30.90947,0.00895c9.81238,-0.40542 20.13944,-1.94196 30.02217,-1.01297c12.4001,1.16563 24.57104,3.9316 37,5c3.15134,0.27089 6.5272,0.16118 9.83297,0.07889c0.01793,1.58513 0.02851,3.17025 -0.13667,4.71859c-0.00738,0.06916 -0.01889,0.13798 -0.03381,0.20649c-2.01363,-0.00554 -4.02744,0.01535 -6.04111,0.01535c-3.33333,0 -6.66667,0 -10,0c-17,0 -34,0 -51,0c-4.48471,0 -9.29216,0.38223 -13.77817,0.07493c-2.07917,-0.14243 -4.55573,-2.12097 -6.12939,-2.58475c-0.68706,-0.20249 -13.19367,-2.37811 -14.26764,-2.4561c-12.26056,-0.89035 -24.76009,1.03147 -37,0c-4.85092,-0.40879 -9.44811,-1.20037 -14.17489,-1.66644c-0.2279,-0.83741 -0.56189,-1.6311 -0.98665,-2.36575z" fill="#3e3e3e" stroke="#000000" stroke-width="4.5" stroke-linecap="butt"/><path d="M138.80469,353.58855v-44.66667h214.5v44.66667z" fill="#3e3e3e" stroke="none" stroke-width="0" stroke-linecap="butt"/><path d="M174.13803,54.90686v-46.48498h101.24247c-0.29576,0.09212 -0.58346,0.19402 -0.86229,0.30629c-5.48711,2.2093 -15.19357,3.76882 -13.55687,12.24921c0.28103,1.45612 0.59235,2.56203 1.00496,3.45613c-1.05489,1.58473 -1.66963,3.48763 -1.66963,5.53411c0,0.1863 0.00509,0.3714 0.01515,0.55519c-1.01437,2.02873 0.74935,4.47352 2.86214,6.46385c0.30117,0.30559 0.62186,0.59189 0.96005,0.85689c1.34528,1.14165 2.68552,2.0573 3.43627,2.53748c5.36589,3.43205 10.72916,6.28376 16.45685,9.06744c1.01914,0.49531 1.9752,1.25639 2.9222,2.0525c0.97627,1.27311 2.25183,2.30466 3.72151,2.98948c0.33821,0.15759 0.6867,0.29682 1.04419,0.41641z" fill="#3e3e3e" stroke="none" stroke-width="0" stroke-linecap="butt"/><path d="" fill="#3e3e3e" stroke="none" stroke-width="0" stroke-linecap="butt"/><path d="M345.8047,8.42188v42.97119c-0.34003,-1.25562 -0.81478,-2.50097 -1.39386,-3.69886c0.01439,-3.52563 -0.11877,-7.05559 -0.13943,-10.58135c-0.05142,-8.77231 -1.15677,-17.81519 -7.99103,-23.20663c-1.04493,-0.82433 -4.32652,-1.31103 -7.22395,-1.2634c-9.89092,-3.43394 -21.57654,-0.57646 -31.55643,-2.54988c-2.36428,-0.46751 -5.40464,-1.15197 -8.60463,-1.67106z" fill="#3e3e3e" stroke="none" stroke-width="0" stroke-linecap="butt"/><path d="M135.80469,335.40686v-300h73v300z" fill="#3e3e3e" stroke="none" stroke-width="0" stroke-linecap="butt"/><path d="M174.60157,272.14063c8.28427,0 15,6.71573 15,15c0,5.6674 -3.14307,10.60071 -7.78118,13.1519c-2.74283,3.55681 -7.04658,5.8481 -11.88549,5.8481c-8.28427,0 -15,-6.71573 -15,-15c0,-5.6674 3.14306,-10.60071 7.78118,-13.1519c2.74283,-3.55681 7.04658,-5.8481 11.88549,-5.8481z" fill="#3e3e3e" stroke="none" stroke-width="0.5" stroke-linecap="butt"/><path d="M316.60157,305.47396c0,-8.28427 6.71573,-15 15,-15c8.28427,0 15,6.71573 15,15c0,8.28427 -6.71573,15 -15,15c-8.28427,0 -15,-6.71573 -15,-15z" fill="#3e3e3e" stroke="none" stroke-width="0.5" stroke-linecap="butt"/><path d="M345.89323,282.97396c6.12867,10.51006 4.17442,36.83333 -13.125,36.83333c-4.7389,0 -8.07046,-1.51334 -10.38892,-3.94311c-4.5447,-2.57739 -7.61108,-7.45904 -7.61108,-13.05689c0,-3.22324 1.01664,-6.20902 2.74676,-8.65419c0.06665,-1.27443 0.15662,-2.50922 0.25324,-3.67914c0,-2.70136 0.71408,-5.23593 1.96378,-7.42525c1.2082,-2.6053 2.99843,-4.86183 5.47108,-5.53012c2.22096,-1.2997 4.80605,-2.04463 7.56514,-2.04463c2.99972,0 5.79378,0.88053 8.13781,2.39723c1.844,0.92501 3.38748,2.35943 4.98719,5.10277z" fill="#3e3e3e" stroke="none" stroke-width="0.5" stroke-linecap="butt"/><path d="M334.26823,308.47396v-55.66667h20v55.66667z" fill="#3e3e3e" stroke="none" stroke-width="0" stroke-linecap="butt"/><path d="" fill="#3e3e3e" stroke="none" stroke-width="0.5" stroke-linecap="butt"/><path d="M145.19593,8.948c2.04536,-2.31978 3.99767,0.00639 6.11762,-0.47404c1.72973,-0.392 2.6962,-0.81109 4.62564,-0.93842c1.88128,-0.12416 4.69626,-1.53466 5.63079,0.62935l0.39396,0.91225c7.85706,-1.14799 22.31293,-2.93855 22.31293,2.38183c0,2.99434 -4.73369,-1.12085 -5.55001,1.67188c-0.18216,0.62317 -1.25935,0.65891 -1.14649,1.31016c1.14983,1.31548 2.0977,2.93169 2.77379,4.75625c0.87233,1.40585 1.5141,3.10865 1.12853,5.62953c0.01533,0.31923 0.0231,0.64117 0.0231,0.96552c0,3.01125 -0.67058,5.81525 -1.82493,8.16481c0.90668,1.46359 1.81445,2.90263 2.89372,3.85718c2.6974,2.38569 4.12932,3.4553 5.37406,6.30094c3.65396,2.49009 6.1529,7.53077 6.1529,13.34374c0,8.28427 -5.07538,15 -11.33619,15c-3.68637,0 -6.96177,-2.32826 -9.03214,-5.93408c-2.23739,-1.50675 -5.78396,-4.97003 -7.34628,-6.40967c-1.19842,-1.10431 -2.14947,-4.87704 -3.39408,-5.30792c-3.06091,-1.05967 -7.10275,-5.00401 -9.65824,-5.34833c-2.19243,-0.29541 -7.04635,-1.10248 -9.04953,-3.26989c-0.63693,0.9879 -1.36906,1.86506 -2.17762,2.60663c0.06565,0.65318 0.09955,1.31964 0.09955,1.99658c0,1.94706 -0.28036,3.80748 -0.79059,5.51443c0.35271,0.57107 0.67425,1.17719 0.96116,1.8138c0.81876,0.83679 1.41903,0.00688 2.26641,0.25605c1.12606,0.33111 3.78169,2.75878 4.425,3.48345c4.21798,4.75131 4.77287,13.0904 5.89456,20.04498c2.98926,2.59286 4.99641,7.00462 5.12307,12.04654c2.75706,2.73623 4.54084,7.09619 4.54084,12.00742l0.00001,-0.00002c0,8.28427 -5.07538,15 -11.33619,15c-5.71765,0 -10.44664,-5.60103 -11.22413,-12.88268c-0.59903,-0.04132 -1.22387,-0.13477 -1.87547,-0.28399c-2.22981,-0.51066 -4.84107,-0.38659 -6.55373,-2.34375c-3.2147,-3.67364 -6.55684,-9.67384 -7.6163,-15.28138c-0.57242,-3.02967 -0.62374,-6.8451 -1.40788,-9.71981c-1.00751,-3.69362 2.33525,0.55035 1.73671,-3.40959l2.00118,-7.5788c0.22431,-2.01972 -4.26699,-5.77339 -3.86235,-7.30234c-1.67633,-2.61495 0.08362,-5.33339 0.08362,-9.03099c0,-4.8785 -3.27822,-11.54638 -0.55247,-14.28582c-0.61664,-1.84989 -0.95903,-3.89579 -0.95903,-6.04751c0,-4.52945 1.51723,-8.59001 3.9159,-11.34038c0.1367,-1.15453 0.37293,-2.26539 0.69671,-3.31671c-0.27276,-0.31398 -0.54795,-0.64826 -0.826,-1.00436c-3.11698,-3.99208 6.09251,2.71798 6.98297,-1.88008c1.58107,-8.16411 5.53038,-6.31443 10.02484,-4.14922c0.31171,-0.77397 0.76599,-1.50244 1.34006,-2.15353z" fill="#3e3e3e" stroke="none" stroke-width="0.5" stroke-linecap="butt"/><path d="M180.37218,67.79227c2.08693,0 3.77873,2.23858 3.77873,5c0,1.9628 -0.85474,3.66145 -2.09858,4.4798c0.07493,0.52668 0.14886,1.07236 0.22235,1.64086c0.43966,3.40123 0.99144,8.87934 -3.41399,8.87934c-5.57943,0 -2.41576,-4.46737 -4.04048,-7.10322c-3.14649,-5.10469 -5.58241,-9.81077 -7.92064,-15.78995c-0.70724,-1.80851 -0.59503,-6.34082 1.04803,-6.93375c1.16629,-0.42088 2.69364,-0.24581 3.7051,-0.33811c0.69297,-1.12011 1.74611,-1.83497 2.92544,-1.83497c0.8279,0 1.59361,0.3523 2.21619,0.94977c0.14695,0.11007 0.28414,0.24034 0.40785,0.39851c1.38412,1.76959 1.24137,4.47213 1.85369,6.61984c0.41707,1.46284 0.78248,2.78082 1.10888,4.03928c0.06867,-0.00492 0.13783,-0.00741 0.20744,-0.00741z" fill="#3e3e3e" stroke="none" stroke-width="0.5" stroke-linecap="butt"/><path d="M153.68981,324.63311c0,1.5 -0.34896,2.84896 -1.04687,4.04688c-0.6875,1.1875 -1.60937,2.23958 -2.76562,3.15625c0.35416,0.52083 0.71354,1.13021 1.07813,1.82813c0.36459,0.6875 0.69271,1.41667 0.98438,2.1875c0.30209,0.77083 0.54166,1.54167 0.71875,2.3125c0.1875,0.77083 0.28125,1.47917 0.28125,2.125c0,0.69792 -0.16666,1.32292 -0.5,1.875c-0.33334,0.55208 -0.90625,0.82813 -1.71875,0.82813c-0.66666,0 -1.24479,-0.32812 -1.73437,-0.98437c-0.48959,-0.64583 -0.92709,-1.41667 -1.3125,-2.3125c-0.375,-0.90625 -0.71875,-1.82292 -1.03125,-2.75c-0.3125,-0.9375 -0.60937,-1.6875 -0.89062,-2.25c-0.39584,0.125 -0.78125,0.27083 -1.15625,0.4375c-0.36459,0.16667 -0.73959,0.32292 -1.125,0.46875c-0.02084,0.47917 -0.0625,1.14063 -0.125,1.98438c-0.05209,0.83333 -0.17187,1.66146 -0.35937,2.48438c-0.17709,0.82292 -0.45312,1.53646 -0.82812,2.14063c-0.36459,0.60417 -0.86979,0.90625 -1.51562,0.90625c-0.71875,0 -1.27604,-0.29167 -1.67187,-0.875c-0.38541,-0.58333 -0.66146,-1.27604 -0.82812,-2.07812c-0.15625,-0.80208 -0.24479,-1.61979 -0.26562,-2.45312c-0.02084,-0.84375 -0.03125,-1.5 -0.03125,-1.96875c0,-1.02083 0.02084,-2.02604 0.0625,-3.01562c0.04166,-0.98958 0.0625,-1.9948 0.0625,-3.01562c0,-0.92708 -0.01562,-1.85417 -0.04687,-2.78125c-0.03125,-0.9375 -0.04687,-1.88542 -0.04687,-2.84375c0,-0.21875 0,-0.49479 0,-0.82812c0,-0.33333 0.01563,-0.67708 0.04688,-1.03125c0.03125,-0.36458 0.06771,-0.70833 0.10938,-1.03125c0.04166,-0.33333 0.11979,-0.59375 0.23438,-0.78125c0.20834,-0.45833 0.69791,-0.89062 1.46875,-1.29687c0.77084,-0.41667 1.61459,-0.78125 2.53125,-1.09375c0.92709,-0.32292 1.82813,-0.57292 2.70313,-0.75c0.88541,-0.1875 1.54688,-0.28125 1.98438,-0.28125c1.10416,0 2.07813,0.20833 2.92188,0.625c0.85416,0.40625 1.5625,0.96354 2.125,1.67188c0.5625,0.69792 0.98438,1.51042 1.26563,2.4375c0.28125,0.91667 0.42188,1.88542 0.42188,2.90625zM147.67419,325.08623c0,-0.5625 -0.13021,-0.98958 -0.39062,-1.28125c-0.26041,-0.29167 -0.6875,-0.4375 -1.28125,-0.4375c-0.42709,0 -0.86459,0.07813 -1.3125,0.23438c-0.44791,0.14583 -0.85416,0.31771 -1.21875,0.51563c0.08334,1.71875 0.11459,3.42188 0.09375,5.10938c0.45834,-0.15625 0.92709,-0.34896 1.40625,-0.57812c0.47916,-0.23958 0.91666,-0.53125 1.3125,-0.875c0.40625,-0.35417 0.73959,-0.74479 1,-1.17187c0.26041,-0.4375 0.39063,-0.94271 0.39063,-1.51562zM169.02441,336.64873c0,0.41667 -0.10937,0.81771 -0.32812,1.20313c-0.21875,0.36458 -0.72916,0.79688 -1.53125,1.29688c-0.80209,0.5 -1.69271,0.97396 -2.67187,1.42188c-0.97916,0.44792 -1.92709,0.82813 -2.84375,1.14063c-0.90625,0.3125 -1.57291,0.46875 -2,0.46875c-0.30209,0 -0.66146,-0.07292 -1.07812,-0.21875c-0.41666,-0.13542 -0.83334,-0.3125 -1.25,-0.53125c-0.40625,-0.21875 -0.77604,-0.46875 -1.10937,-0.75c-0.33334,-0.28125 -0.57812,-0.55208 -0.73437,-0.8125c-0.08334,-0.14583 -0.16666,-0.44792 -0.25,-0.90625c-0.07291,-0.45833 -0.13541,-0.98958 -0.1875,-1.59375c-0.05209,-0.61458 -0.10416,-1.26042 -0.15625,-1.9375c-0.04166,-0.6875 -0.07812,-1.33854 -0.10937,-1.95312c-0.03125,-0.61458 -0.05209,-1.16146 -0.0625,-1.64062c-0.01041,-0.47917 -0.01562,-0.82812 -0.01562,-1.04687c0,-0.80208 0.02604,-1.72396 0.07813,-2.76562c0.0625,-1.04167 0.16666,-2.08854 0.3125,-3.14062c0.15625,-1.05208 0.38021,-2.05729 0.67188,-3.01562c0.29166,-0.96875 0.6875,-1.79167 1.1875,-2.46875c0.14584,-0.19792 0.44791,-0.40104 0.90625,-0.60937c0.45834,-0.21875 0.99479,-0.42708 1.60938,-0.625c0.625,-0.19792 1.29166,-0.38021 2,-0.54687c0.71875,-0.17708 1.40625,-0.32292 2.0625,-0.4375c0.66666,-0.125 1.27084,-0.22396 1.8125,-0.29687c0.54166,-0.08333 0.95313,-0.125 1.23438,-0.125c0.33334,0 0.64584,0.07292 0.9375,0.21875c0.29166,0.13542 0.54166,0.32292 0.75,0.5625c0.20834,0.23958 0.36979,0.50521 0.48438,0.79688c0.11459,0.29167 0.17188,0.60417 0.17188,0.9375c0,0.28125 -0.03646,0.52083 -0.10937,0.71875c-0.07291,0.1875 -0.1875,0.40104 -0.34375,0.64063c-0.21875,0.28125 -0.67709,0.61979 -1.375,1.01563c-0.6875,0.38542 -1.4375,0.77083 -2.25,1.15625c-0.8125,0.375 -1.59375,0.71354 -2.34375,1.01563c-0.75,0.30208 -1.27604,0.52083 -1.57812,0.65625c-0.08334,0.5 -0.17709,1.00521 -0.28125,1.51563c-0.09375,0.51042 -0.16146,1.02604 -0.20312,1.54688c0.66666,-0.35417 1.42188,-0.68229 2.26563,-0.98437c0.85416,-0.30208 1.66146,-0.45312 2.42188,-0.45312c1.54166,0 2.3125,0.76042 2.3125,2.28125c0,0.36458 -0.07291,0.6875 -0.21875,0.96875c-0.13541,0.28125 -0.31771,0.53125 -0.54687,0.75c-0.22916,0.21875 -0.48959,0.41146 -0.78125,0.57813c-0.29166,0.15625 -0.58334,0.3125 -0.875,0.46875c-0.6875,0.36458 -1.41146,0.68229 -2.17187,0.95313c-0.76041,0.27083 -1.52084,0.53646 -2.28125,0.79688c-0.04166,0.17708 -0.08334,0.36979 -0.125,0.57813c-0.04166,0.20833 -0.0625,0.40625 -0.0625,0.59375c0,0.3125 0.02084,0.61979 0.0625,0.92188c0.04166,0.30208 0.08334,0.60417 0.125,0.90625c0.26041,-0.08333 0.67709,-0.22396 1.25,-0.42187c0.57291,-0.19792 1.17188,-0.39062 1.79688,-0.57812c0.63541,-0.19792 1.24479,-0.36458 1.82813,-0.5c0.59375,-0.14583 1.03125,-0.21875 1.3125,-0.21875c0.32291,0 0.625,0.07292 0.90625,0.21875c0.28125,0.13542 0.52084,0.31771 0.71875,0.54688c0.19791,0.21875 0.35416,0.48438 0.46875,0.79688c0.125,0.30208 0.1875,0.60417 0.1875,0.90625zM183.75762,318.25811c0,0.82292 -0.28125,1.57292 -0.84375,2.25c-0.5625,0.66667 -1.25,1.26563 -2.0625,1.79688c-0.8125,0.53125 -1.66666,0.99479 -2.5625,1.39063c-0.88541,0.38542 -1.65104,0.70833 -2.29687,0.96875c0,0.45833 -0.01562,0.92708 -0.04687,1.40625c-0.02084,0.47917 -0.05209,0.95833 -0.09375,1.4375c0.69791,-0.35417 1.47916,-0.68229 2.34375,-0.98437c0.86459,-0.30208 1.6875,-0.45312 2.46875,-0.45312c0.63541,0 1.15104,0.13021 1.54688,0.39063c0.40625,0.26042 0.60938,0.71354 0.60938,1.35938c0,0.71875 -0.25521,1.36458 -0.76562,1.9375c-0.51041,0.5625 -1.125,1.0625 -1.84375,1.5c-0.70834,0.42708 -1.45312,0.79167 -2.23437,1.09375c-0.78125,0.30208 -1.44271,0.54167 -1.98437,0.71875c0,0.71875 -0.01562,1.43229 -0.04687,2.14063c-0.02084,0.69792 -0.05209,1.39583 -0.09375,2.09375c-0.02084,0.34375 -0.05729,0.77604 -0.10937,1.29688c-0.05209,0.52083 -0.16146,1.02604 -0.32812,1.51563c-0.16666,0.48958 -0.40104,0.91146 -0.70312,1.26563c-0.30209,0.35417 -0.69271,0.53125 -1.17187,0.53125c-0.44791,0 -0.83854,-0.21875 -1.17187,-0.65625c-0.32291,-0.44792 -0.59896,-1.01562 -0.82812,-1.70312c-0.22916,-0.69792 -0.41666,-1.47396 -0.5625,-2.32812c-0.13541,-0.86458 -0.23959,-1.70833 -0.3125,-2.53125c-0.07291,-0.82292 -0.11459,-1.57812 -0.125,-2.26562c-0.01041,-0.69792 -0.01562,-1.23438 -0.01562,-1.60937c0,-0.28125 0.00521,-0.69792 0.01563,-1.25c0.01041,-0.55208 0.02084,-1.16146 0.03125,-1.82812c0.01041,-0.67708 0.03125,-1.38542 0.0625,-2.125c0.03125,-0.73958 0.06771,-1.4375 0.10938,-2.09375c0.04166,-0.66667 0.09896,-1.25521 0.17188,-1.76562c0.08334,-0.51042 0.17709,-0.88542 0.28125,-1.125c0.23959,-0.47917 0.80729,-0.94792 1.70313,-1.40625c0.90625,-0.46875 1.91146,-0.88021 3.01563,-1.23437c1.11459,-0.36458 2.19791,-0.66146 3.25,-0.89062c1.05209,-0.22917 1.85938,-0.34375 2.42188,-0.34375c0.26041,0 0.51563,0.01563 0.76563,0.04688c0.25,0.03125 0.47916,0.10417 0.6875,0.21875c0.21875,0.10417 0.39063,0.25521 0.51563,0.45313c0.13541,0.19792 0.20313,0.45833 0.20313,0.78125zM201.37139,330.33623c0,0.88542 -0.04687,1.80208 -0.14062,2.75c-0.08334,0.9375 -0.23437,1.85417 -0.45312,2.75c-0.20834,0.88542 -0.50521,1.72396 -0.89062,2.51563c-0.375,0.79167 -0.85937,1.48958 -1.45312,2.09375c-0.58334,0.59375 -1.28646,1.0625 -2.10937,1.40625c-0.82291,0.35417 -1.78646,0.53125 -2.89062,0.53125c-1.625,0 -3.04166,-0.38021 -4.25,-1.14062c-1.20834,-0.76042 -2.21354,-1.72917 -3.01562,-2.90625c-0.80209,-1.1875 -1.40104,-2.51042 -1.79687,-3.96875c-0.38541,-1.46875 -0.57812,-2.92188 -0.57812,-4.35937c0,-0.15625 0,-0.29687 0,-0.42187c0,-0.13542 0.01041,-0.25521 0.03125,-0.35937c0.02084,-0.45833 0.05729,-1.07812 0.10938,-1.85937c0.0625,-0.78125 0.15625,-1.61458 0.28125,-2.5c0.13541,-0.88542 0.30209,-1.79687 0.5,-2.73437c0.20834,-0.9375 0.47916,-1.77083 0.8125,-2.5c0.34375,-0.73958 0.75521,-1.34896 1.23438,-1.82812c0.47916,-0.47917 1.04166,-0.71875 1.6875,-0.71875c0.47916,0 0.88021,0.14063 1.20313,0.42188c0.32291,0.28125 0.58854,0.63542 0.79688,1.0625c0.20834,0.41667 0.35416,0.85938 0.4375,1.32813c0.09375,0.46875 0.14063,0.90104 0.14063,1.29688c0,0.58333 -0.0625,1.17188 -0.1875,1.76563c-0.11459,0.59375 -0.22916,1.1875 -0.34375,1.78125c-0.16666,0.92708 -0.30729,1.85938 -0.42187,2.79688c-0.10416,0.92708 -0.15625,1.88021 -0.15625,2.85938c0,0.5 0.02604,1.10938 0.07813,1.82813c0.05209,0.70833 0.1875,1.39583 0.40625,2.0625c0.21875,0.65625 0.52604,1.21875 0.92188,1.6875c0.40625,0.46875 0.95834,0.70313 1.65625,0.70313c0.66666,0 1.19791,-0.22396 1.59375,-0.67187c0.40625,-0.45833 0.70834,-1 0.90625,-1.625c0.19791,-0.63542 0.32291,-1.30208 0.375,-2c0.05209,-0.69792 0.07813,-1.29167 0.07813,-1.78125c0,-1.4375 -0.11979,-2.85417 -0.35937,-4.25c-0.23959,-1.40625 -0.55209,-2.80208 -0.9375,-4.1875c-0.11459,-0.36458 -0.20834,-0.72917 -0.28125,-1.09375c-0.07291,-0.375 -0.10937,-0.75 -0.10937,-1.125c0,-0.60417 0.17709,-1.13021 0.53125,-1.57812c0.36459,-0.45833 0.86979,-0.6875 1.51563,-0.6875c0.54166,0 1.04688,0.21354 1.51563,0.64063c0.46875,0.41667 0.88541,0.96875 1.25,1.65625c0.375,0.67708 0.69791,1.44271 0.96875,2.29688c0.27084,0.84375 0.5,1.68229 0.6875,2.51563c0.19791,0.83333 0.34375,1.63021 0.4375,2.39063c0.10416,0.76042 0.16666,1.38021 0.1875,1.85938c0.02084,0.20833 0.03125,0.41667 0.03125,0.625c0,0.20833 0,0.43229 0,0.67188zM217.71471,336.64873c0,0.41667 -0.10937,0.81771 -0.32812,1.20313c-0.21875,0.36458 -0.72916,0.79688 -1.53125,1.29688c-0.80209,0.5 -1.69271,0.97396 -2.67187,1.42188c-0.97916,0.44792 -1.92709,0.82813 -2.84375,1.14063c-0.90625,0.3125 -1.57291,0.46875 -2,0.46875c-0.30209,0 -0.66146,-0.07292 -1.07812,-0.21875c-0.41666,-0.13542 -0.83334,-0.3125 -1.25,-0.53125c-0.40625,-0.21875 -0.77604,-0.46875 -1.10937,-0.75c-0.33334,-0.28125 -0.57812,-0.55208 -0.73437,-0.8125c-0.08334,-0.14583 -0.16666,-0.44792 -0.25,-0.90625c-0.07291,-0.45833 -0.13541,-0.98958 -0.1875,-1.59375c-0.05209,-0.61458 -0.10416,-1.26042 -0.15625,-1.9375c-0.04166,-0.6875 -0.07812,-1.33854 -0.10937,-1.95312c-0.03125,-0.61458 -0.05209,-1.16146 -0.0625,-1.64062c-0.01041,-0.47917 -0.01562,-0.82812 -0.01562,-1.04687c0,-0.80208 0.02604,-1.72396 0.07813,-2.76562c0.0625,-1.04167 0.16666,-2.08854 0.3125,-3.14062c0.15625,-1.05208 0.38021,-2.05729 0.67188,-3.01562c0.29166,-0.96875 0.6875,-1.79167 1.1875,-2.46875c0.14584,-0.19792 0.44791,-0.40104 0.90625,-0.60937c0.45834,-0.21875 0.99479,-0.42708 1.60938,-0.625c0.625,-0.19792 1.29166,-0.38021 2,-0.54687c0.71875,-0.17708 1.40625,-0.32292 2.0625,-0.4375c0.66666,-0.125 1.27084,-0.22396 1.8125,-0.29687c0.54166,-0.08333 0.95313,-0.125 1.23438,-0.125c0.33334,0 0.64584,0.07292 0.9375,0.21875c0.29166,0.13542 0.54166,0.32292 0.75,0.5625c0.20834,0.23958 0.36979,0.50521 0.48438,0.79688c0.11459,0.29167 0.17188,0.60417 0.17188,0.9375c0,0.28125 -0.03646,0.52083 -0.10937,0.71875c-0.07291,0.1875 -0.1875,0.40104 -0.34375,0.64063c-0.21875,0.28125 -0.67709,0.61979 -1.375,1.01563c-0.6875,0.38542 -1.4375,0.77083 -2.25,1.15625c-0.8125,0.375 -1.59375,0.71354 -2.34375,1.01563c-0.75,0.30208 -1.27604,0.52083 -1.57812,0.65625c-0.08334,0.5 -0.17709,1.00521 -0.28125,1.51563c-0.09375,0.51042 -0.16146,1.02604 -0.20312,1.54688c0.66666,-0.35417 1.42188,-0.68229 2.26563,-0.98437c0.85416,-0.30208 1.66146,-0.45312 2.42188,-0.45312c1.54166,0 2.3125,0.76042 2.3125,2.28125c0,0.36458 -0.07291,0.6875 -0.21875,0.96875c-0.13541,0.28125 -0.31771,0.53125 -0.54687,0.75c-0.22916,0.21875 -0.48959,0.41146 -0.78125,0.57813c-0.29166,0.15625 -0.58334,0.3125 -0.875,0.46875c-0.6875,0.36458 -1.41146,0.68229 -2.17187,0.95313c-0.76041,0.27083 -1.52084,0.53646 -2.28125,0.79688c-0.04166,0.17708 -0.08334,0.36979 -0.125,0.57813c-0.04166,0.20833 -0.0625,0.40625 -0.0625,0.59375c0,0.3125 0.02084,0.61979 0.0625,0.92188c0.04166,0.30208 0.08334,0.60417 0.125,0.90625c0.26041,-0.08333 0.67709,-0.22396 1.25,-0.42187c0.57291,-0.19792 1.17188,-0.39062 1.79688,-0.57812c0.63541,-0.19792 1.24479,-0.36458 1.82813,-0.5c0.59375,-0.14583 1.03125,-0.21875 1.3125,-0.21875c0.32291,0 0.625,0.07292 0.90625,0.21875c0.28125,0.13542 0.52084,0.31771 0.71875,0.54688c0.19791,0.21875 0.35416,0.48438 0.46875,0.79688c0.125,0.30208 0.1875,0.60417 0.1875,0.90625zM234.69793,337.27373c0,0.54167 -0.22396,1.05208 -0.67187,1.53125c-0.4375,0.46875 -1.01041,0.90104 -1.71875,1.29688c-0.70834,0.38542 -1.49479,0.72917 -2.35937,1.03125c-0.86459,0.29167 -1.72396,0.53646 -2.57812,0.73438c-0.84375,0.20833 -1.64062,0.36458 -2.39062,0.46875c-0.75,0.11458 -1.33854,0.17188 -1.76562,0.17188c-0.41666,0 -0.85937,-0.04167 -1.32812,-0.125c-0.45834,-0.07292 -0.84375,-0.23958 -1.15625,-0.5c-0.16666,-0.125 -0.31771,-0.41667 -0.45312,-0.875c-0.125,-0.45833 -0.25,-1 -0.375,-1.625c-0.11459,-0.625 -0.21875,-1.30208 -0.3125,-2.03125c-0.08334,-0.72917 -0.15104,-1.4375 -0.20312,-2.125c-0.05209,-0.69792 -0.09375,-1.33854 -0.125,-1.92187c-0.03125,-0.59375 -0.04687,-1.05208 -0.04687,-1.375c0,-0.54167 0.01563,-1.19792 0.04688,-1.96875c0.03125,-0.77083 0.07813,-1.59375 0.14063,-2.46875c0.0625,-0.88542 0.14584,-1.78125 0.25,-2.6875c0.11459,-0.91667 0.23959,-1.78125 0.375,-2.59375c0.14584,-0.8125 0.32291,-1.54167 0.53125,-2.1875c0.20834,-0.65625 0.43229,-1.16667 0.67188,-1.53125c0.40625,-0.59375 0.92709,-0.89062 1.5625,-0.89062c0.42709,0 0.79166,0.15104 1.09375,0.45313c0.3125,0.29167 0.55729,0.67188 0.73438,1.14063c0.1875,0.45833 0.32813,0.97917 0.42188,1.5625c0.10416,0.57292 0.17709,1.14063 0.21875,1.70313c0.04166,0.5625 0.0625,1.08333 0.0625,1.5625c0,0.47917 0,0.85938 0,1.14063c0,1.6875 -0.03646,3.36458 -0.10937,5.03125c-0.07291,1.65625 -0.10937,3.32812 -0.10937,5.01562v1.28125c0.96875,-0.3125 2.02604,-0.60417 3.17188,-0.875c1.15625,-0.27083 2.25521,-0.40625 3.29688,-0.40625c0.375,0 0.75,0.02604 1.125,0.07813c0.375,0.04167 0.70834,0.13542 1,0.28125c0.30209,0.13542 0.54166,0.33854 0.71875,0.60938c0.1875,0.27083 0.28125,0.63542 0.28125,1.09375zM254.00536,318.91436c0,0.5 -0.16146,0.93229 -0.48437,1.29688c-0.3125,0.36458 -0.68229,0.66667 -1.10937,0.90625c-0.39583,0.23958 -0.80209,0.49479 -1.21875,0.76563c-0.40625,0.27083 -0.78646,0.57813 -1.14062,0.92188c-0.34375,0.33333 -0.625,0.70833 -0.84375,1.125c-0.20834,0.40625 -0.3125,0.86979 -0.3125,1.39063c0,0.45833 0.10416,0.875 0.3125,1.25c0.21875,0.36458 0.48438,0.72396 0.79688,1.07813c0.32291,0.35417 0.67188,0.72396 1.04688,1.10938c0.38541,0.375 0.73438,0.79688 1.04688,1.26563c0.3125,0.46875 0.57813,0.9948 0.79688,1.57813c0.21875,0.58333 0.32813,1.26563 0.32813,2.04688c0,0.54167 -0.11458,1.15625 -0.34375,1.84375c-0.22917,0.6875 -0.54167,1.38021 -0.9375,2.07813c-0.38541,0.6875 -0.84375,1.35938 -1.375,2.01563c-0.53125,0.64583 -1.09896,1.22396 -1.70312,1.73438c-0.59375,0.51042 -1.21875,0.92188 -1.875,1.23438c-0.64584,0.3125 -1.27084,0.46875 -1.875,0.46875c-0.67709,0 -1.27604,-0.1875 -1.79687,-0.5625c-0.52084,-0.36458 -0.78125,-0.91146 -0.78125,-1.64062c0,-0.5 0.11979,-0.96354 0.35938,-1.39062c0.23959,-0.42708 0.53125,-0.83333 0.875,-1.21875c0.35416,-0.39583 0.73959,-0.77604 1.15625,-1.14062c0.42709,-0.36458 0.8125,-0.72917 1.15625,-1.09375c0.35416,-0.375 0.65104,-0.76042 0.89063,-1.15625c0.23959,-0.40625 0.35938,-0.83854 0.35938,-1.29687c0,-0.625 -0.22396,-1.26562 -0.67187,-1.92187c-0.44791,-0.66667 -0.94271,-1.35417 -1.48437,-2.0625c-0.54166,-0.70833 -1.03646,-1.43229 -1.48437,-2.17187c-0.4375,-0.73958 -0.65625,-1.48437 -0.65625,-2.23437c0,-0.9375 0.24479,-1.92187 0.73438,-2.95312c0.5,-1.03125 1.14063,-1.97396 1.92188,-2.82812c0.78125,-0.85417 1.66146,-1.5625 2.64063,-2.125c0.97916,-0.57292 1.94791,-0.85937 2.90625,-0.85937c0.75,0 1.39583,0.22917 1.9375,0.6875c0.55208,0.45833 0.82813,1.07813 0.82813,1.85938zM269.22484,319.52373c0,0.54167 -0.21354,1.03646 -0.64062,1.48438c-0.41667,0.44792 -0.92187,0.83854 -1.51562,1.17188c-0.59375,0.33333 -1.20833,0.60938 -1.84375,0.82813c-0.625,0.21875 -1.14583,0.36979 -1.5625,0.45313c-0.16667,1.67708 -0.30208,3.34375 -0.40625,5c-0.09375,1.65625 -0.14062,3.32292 -0.14062,5c0,0.88542 0.02083,1.76563 0.0625,2.64063c0.04167,0.86458 0.0625,1.72917 0.0625,2.59375c0,0.39583 -0.03646,0.82813 -0.10937,1.29688c-0.07292,0.45833 -0.20312,0.89583 -0.39062,1.3125c-0.1875,0.40625 -0.44271,0.75 -0.76562,1.03125c-0.32292,0.29167 -0.72396,0.4375 -1.20312,0.4375c-0.5625,0 -1.01562,-0.16146 -1.35937,-0.48437c-0.33333,-0.3125 -0.59375,-0.69271 -0.78125,-1.14062c-0.17708,-0.45833 -0.30208,-0.94271 -0.375,-1.45312c-0.0625,-0.51042 -0.09375,-0.97396 -0.09375,-1.39062c-0.04167,-1.30208 -0.07292,-2.60937 -0.09375,-3.92187c-0.02083,-1.3125 -0.03125,-2.6302 -0.03125,-3.95312c0,-1.10417 0.00521,-2.1875 0.01563,-3.25c0.01042,-1.0625 0.01563,-2.14583 0.01563,-3.25c-0.30208,0.04167 -0.61458,0.07292 -0.9375,0.09375c-0.3125,0.02083 -0.63021,0.03125 -0.95312,0.03125c-0.26042,0 -0.60417,-0.02604 -1.03125,-0.07812c-0.41667,-0.0625 -0.81771,-0.16146 -1.20312,-0.29687c-0.39583,-0.14583 -0.73437,-0.34375 -1.01562,-0.59375c-0.28125,-0.25 -0.42187,-0.56771 -0.42187,-0.95312c0,-0.65625 0.25521,-1.22396 0.76563,-1.70312c0.51042,-0.48958 1.16146,-0.91146 1.95313,-1.26562c0.79167,-0.36458 1.66667,-0.67187 2.625,-0.92187c0.96875,-0.25 1.92188,-0.44271 2.85938,-0.57812c0.94792,-0.14583 1.81771,-0.25 2.60938,-0.3125c0.79167,-0.07292 1.40625,-0.10937 1.84375,-0.10937c0.41667,0 0.85417,0.02083 1.3125,0.0625c0.46875,0.03125 0.90625,0.125 1.3125,0.28125c0.41667,0.14583 0.76042,0.36979 1.03125,0.67188c0.27083,0.30208 0.40625,0.72396 0.40625,1.26563zM283.64351,336.9456c0,0.42708 -0.03646,0.94792 -0.10937,1.5625c-0.07292,0.60417 -0.21875,1.18229 -0.4375,1.73438c-0.21875,0.55208 -0.51562,1.02083 -0.89062,1.40625c-0.36458,0.375 -0.84896,0.5625 -1.45312,0.5625c-0.80208,0 -1.40625,-0.29167 -1.8125,-0.875c-0.39583,-0.58333 -0.68229,-1.28125 -0.85937,-2.09375c-0.16667,-0.82292 -0.27083,-1.65625 -0.3125,-2.5c-0.03125,-0.84375 -0.05729,-1.51562 -0.07812,-2.01562c-1.5625,0.26042 -3.10418,0.48958 -4.62503,0.6875c-0.04167,0.5 -0.13542,1.11979 -0.28125,1.85938c-0.13542,0.72917 -0.34896,1.4375 -0.64062,2.125c-0.29167,0.6875 -0.67187,1.28125 -1.14062,1.78125c-0.46875,0.48958 -1.03646,0.73438 -1.70312,0.73438c-0.52083,0 -0.92708,-0.1875 -1.21875,-0.5625c-0.29167,-0.375 -0.51562,-0.82292 -0.67187,-1.34375c-0.15625,-0.52083 -0.25,-1.05729 -0.28125,-1.60937c-0.03125,-0.5625 -0.04687,-1.02604 -0.04687,-1.39062c0,-1.23958 0.09896,-2.45833 0.29688,-3.65625c0.19792,-1.20833 0.42708,-2.41145 0.6875,-3.60937c0.125,-0.625 0.29688,-1.35937 0.51563,-2.20312c0.21875,-0.85417 0.48438,-1.72917 0.79688,-2.625c0.3125,-0.89583 0.67708,-1.78125 1.09375,-2.65625c0.42708,-0.88542 0.91146,-1.67187 1.45313,-2.35937c0.55208,-0.69792 1.17188,-1.26562 1.85938,-1.70312c0.69793,-0.4375 1.46878,-0.65625 2.31253,-0.65625c0.82292,0 1.53646,0.1875 2.14063,0.5625c0.61458,0.36458 1.14583,0.85417 1.59375,1.46875c0.45833,0.60417 0.83854,1.29167 1.14063,2.0625c0.3125,0.77083 0.56771,1.55208 0.76563,2.34375c0.20833,0.79167 0.38021,1.56771 0.51563,2.32813c0.14583,0.75 0.27604,1.42188 0.39063,2.01563c0.28125,1.40625 0.51563,2.83333 0.70313,4.28125c0.19792,1.4375 0.29688,2.88542 0.29688,4.34375zM277.36226,329.03936c0,-0.26042 -0.01562,-0.6875 -0.04687,-1.28125c-0.03125,-0.60417 -0.10417,-1.20312 -0.21875,-1.79687c-0.10417,-0.60417 -0.27083,-1.13542 -0.5,-1.59375c-0.21875,-0.46875 -0.52604,-0.70312 -0.92187,-0.70312c-0.21875,0 -0.42708,0.14583 -0.625,0.4375c-0.1875,0.29167 -0.35937,0.66146 -0.51562,1.10938c-0.14583,0.4375 -0.28125,0.93229 -0.40625,1.48438c-0.1146,0.54167 -0.21878,1.0625 -0.31253,1.5625c-0.08333,0.48958 -0.14583,0.9375 -0.1875,1.34375c-0.04167,0.40625 -0.07292,0.69271 -0.09375,0.85938c1.3021,-0.10417 2.57816,-0.26562 3.82816,-0.48437v-0.9375zM299.52602,319.52373c0,0.54167 -0.21354,1.03646 -0.64062,1.48438c-0.41667,0.44792 -0.92187,0.83854 -1.51562,1.17188c-0.59375,0.33333 -1.20833,0.60938 -1.84375,0.82813c-0.625,0.21875 -1.14583,0.36979 -1.5625,0.45313c-0.16667,1.67708 -0.30208,3.34375 -0.40625,5c-0.09375,1.65625 -0.14062,3.32292 -0.14062,5c0,0.88542 0.02083,1.76563 0.0625,2.64063c0.04167,0.86458 0.0625,1.72917 0.0625,2.59375c0,0.39583 -0.03646,0.82813 -0.10937,1.29688c-0.07292,0.45833 -0.20312,0.89583 -0.39062,1.3125c-0.1875,0.40625 -0.44271,0.75 -0.76562,1.03125c-0.32292,0.29167 -0.72396,0.4375 -1.20312,0.4375c-0.5625,0 -1.01562,-0.16146 -1.35937,-0.48437c-0.33333,-0.3125 -0.59375,-0.69271 -0.78125,-1.14062c-0.17708,-0.45833 -0.30208,-0.94271 -0.375,-1.45312c-0.0625,-0.51042 -0.09375,-0.97396 -0.09375,-1.39062c-0.04167,-1.30208 -0.07292,-2.60937 -0.09375,-3.92187c-0.02083,-1.3125 -0.03125,-2.6302 -0.03125,-3.95312c0,-1.10417 0.00521,-2.1875 0.01563,-3.25c0.01042,-1.0625 0.01563,-2.14583 0.01563,-3.25c-0.30208,0.04167 -0.61458,0.07292 -0.9375,0.09375c-0.3125,0.02083 -0.63021,0.03125 -0.95312,0.03125c-0.26042,0 -0.60417,-0.02604 -1.03125,-0.07812c-0.41667,-0.0625 -0.81771,-0.16146 -1.20312,-0.29687c-0.39583,-0.14583 -0.73437,-0.34375 -1.01562,-0.59375c-0.28125,-0.25 -0.42187,-0.56771 -0.42187,-0.95312c0,-0.65625 0.25521,-1.22396 0.76563,-1.70312c0.51042,-0.48958 1.16146,-0.91146 1.95313,-1.26562c0.79167,-0.36458 1.66667,-0.67187 2.625,-0.92187c0.96875,-0.25 1.92188,-0.44271 2.85938,-0.57812c0.94792,-0.14583 1.81771,-0.25 2.60938,-0.3125c0.79167,-0.07292 1.40625,-0.10937 1.84375,-0.10937c0.41667,0 0.85417,0.02083 1.3125,0.0625c0.46875,0.03125 0.90625,0.125 1.3125,0.28125c0.41667,0.14583 0.76042,0.36979 1.03125,0.67188c0.27083,0.30208 0.40625,0.72396 0.40625,1.26563zM309.09835,319.66436c0,0.40625 -0.09375,0.77604 -0.28125,1.10938c-0.17708,0.32292 -0.42187,0.59896 -0.73437,0.82813c-0.30208,0.21875 -0.63542,0.40625 -1,0.5625c-0.36458,0.15625 -0.72396,0.26563 -1.07812,0.32813c-0.04167,2.44792 -0.13542,4.8125 -0.28125,7.09375c-0.13542,2.28125 -0.35417,4.63541 -0.65625,7.0625h0.1875c0.35417,0 0.69792,0.04167 1.03125,0.125c0.33333,0.07292 0.63542,0.20313 0.90625,0.39063c0.27083,0.17708 0.48958,0.40104 0.65625,0.67188c0.16667,0.27083 0.25,0.60417 0.25,1c0,0.48958 -0.16146,0.92188 -0.48437,1.29688c-0.3125,0.36458 -0.72396,0.67708 -1.23437,0.9375c-0.51042,0.26042 -1.07812,0.47917 -1.70312,0.65625c-0.625,0.17708 -1.25521,0.3125 -1.89062,0.40625c-0.625,0.09375 -1.22396,0.16146 -1.79687,0.20313c-0.5625,0.05208 -1.01562,0.07813 -1.35937,0.07813c-0.26042,0 -0.58333,-0.01562 -0.96875,-0.04687c-0.375,-0.02083 -0.72917,-0.08333 -1.0625,-0.1875c-0.33333,-0.10417 -0.61979,-0.26562 -0.85937,-0.48437c-0.23958,-0.21875 -0.35937,-0.51042 -0.35937,-0.875c0,-0.45833 0.09375,-0.86458 0.28125,-1.21875c0.17708,-0.36458 0.41667,-0.6875 0.71875,-0.96875c0.30208,-0.28125 0.64063,-0.50521 1.01563,-0.67187c0.38542,-0.17708 0.77604,-0.3125 1.17188,-0.40625c0.14583,-1.1875 0.28125,-2.36979 0.40625,-3.54687c0.13542,-1.1875 0.22917,-2.39062 0.28125,-3.60937c0.04167,-1.23958 0.08333,-2.45833 0.125,-3.65625c0.04167,-1.20833 0.08333,-2.42187 0.125,-3.64062c-0.14583,0.03125 -0.28646,0.05208 -0.42187,0.0625c-0.125,0.01042 -0.24479,0.01563 -0.35937,0.01563c-0.30208,0 -0.63021,-0.03125 -0.98437,-0.09375c-0.34375,-0.07292 -0.66667,-0.1875 -0.96875,-0.34375c-0.30208,-0.16667 -0.55729,-0.36979 -0.76562,-0.60937c-0.19792,-0.23958 -0.29687,-0.54167 -0.29687,-0.90625c0,-0.73958 0.30729,-1.34896 0.92188,-1.82812c0.61458,-0.47917 1.34896,-0.84896 2.20313,-1.10937c0.86458,-0.26042 1.73958,-0.4375 2.625,-0.53125c0.89583,-0.10417 1.61458,-0.15625 2.15625,-0.15625c0.30208,0 0.70313,0.02604 1.20313,0.07813c0.5,0.04167 0.98958,0.14063 1.46875,0.29688c0.48958,0.14583 0.91146,0.34896 1.26563,0.60938c0.36458,0.26042 0.54688,0.61979 0.54688,1.07813zM317.00277,342.83623c-1.32292,0 -2.47396,-0.33333 -3.45312,-1c-0.96875,-0.65625 -1.77604,-1.54167 -2.42187,-2.65625c-0.63542,-1.125 -1.10937,-2.42187 -1.42187,-3.89062c-0.3125,-1.47917 -0.46875,-3.03125 -0.46875,-4.65625c0,-1.52083 0.16667,-3.0625 0.5,-4.625c0.33333,-1.5625 0.84896,-2.97396 1.54688,-4.23437c0.69792,-1.26042 1.57813,-2.29167 2.64063,-3.09375c1.0625,-0.80208 2.32813,-1.20312 3.79688,-1.20312c1.4375,0 2.63542,0.38542 3.59375,1.15625c0.96875,0.77083 1.73958,1.77083 2.3125,3c0.58333,1.21875 1,2.58854 1.25,4.10938c0.25,1.52083 0.375,3.04167 0.375,4.5625c0,1.6875 -0.17187,3.28645 -0.51562,4.79687c-0.33333,1.51042 -0.84375,2.84375 -1.53125,4c-0.67708,1.14583 -1.53125,2.05208 -2.5625,2.71875c-1.03125,0.67708 -2.24479,1.01563 -3.64062,1.01563zM317.39339,324.66436c-0.40625,0 -0.75521,0.16667 -1.04687,0.5c-0.29167,0.32292 -0.53646,0.75 -0.73437,1.28125c-0.19792,0.53125 -0.33854,1.13021 -0.42187,1.79688c-0.08333,0.65625 -0.125,1.32292 -0.125,2c0,0.76042 0.04688,1.52083 0.14063,2.28125c0.09375,0.75 0.23958,1.43229 0.4375,2.04688c0.19792,0.60417 0.44271,1.09375 0.73438,1.46875c0.29167,0.36458 0.64583,0.54688 1.0625,0.54688c0.46875,0 0.84375,-0.23958 1.125,-0.71875c0.29167,-0.47917 0.51563,-1.05208 0.67188,-1.71875c0.16667,-0.67708 0.27604,-1.36979 0.32813,-2.07812c0.05208,-0.71875 0.07813,-1.31771 0.07813,-1.79687c0,-0.59375 -0.03646,-1.21354 -0.10937,-1.85937c-0.07292,-0.65625 -0.19792,-1.26042 -0.375,-1.8125c-0.17708,-0.55208 -0.40625,-1.01042 -0.6875,-1.375c-0.28125,-0.375 -0.64062,-0.5625 -1.07812,-0.5625zM346.01302,327.78936c0,0.47917 -0.02604,1.16146 -0.07812,2.04688c-0.04167,0.875 -0.11979,1.83854 -0.23437,2.89063c-0.11458,1.05208 -0.28125,2.125 -0.5,3.21875c-0.21875,1.09375 -0.50521,2.08854 -0.85937,2.98438c-0.34375,0.88542 -0.76562,1.61979 -1.26562,2.20313c-0.5,0.57292 -1.09375,0.85938 -1.78125,0.85938c-0.65625,0 -1.25521,-0.1875 -1.79687,-0.5625c-0.54167,-0.38542 -1.03125,-0.85417 -1.46875,-1.40625c-0.42708,-0.5625 -0.80729,-1.15625 -1.14062,-1.78125c-0.32292,-0.625 -0.59375,-1.19792 -0.8125,-1.71875c-0.44792,-1.11458 -0.90104,-2.20833 -1.35937,-3.28125c-0.45833,-1.07292 -0.89062,-2.16146 -1.29687,-3.26562v0.90625c0,0.9375 -0.00521,1.86979 -0.01562,2.79688c-0.01042,0.91667 -0.08333,1.82813 -0.21875,2.73438c-0.04167,0.375 -0.08854,0.80729 -0.14062,1.29688c-0.05208,0.48958 -0.13542,0.97396 -0.25,1.45313c-0.10417,0.46875 -0.26042,0.91146 -0.46875,1.32813c-0.20833,0.40625 -0.48437,0.70833 -0.82812,0.90625c-0.19792,0.11458 -0.38021,0.18229 -0.54687,0.20313c-0.15625,0.02083 -0.33333,0.05208 -0.53125,0.09375h-0.09375c-0.5,0 -0.92708,-0.16667 -1.28125,-0.5c-0.34375,-0.34375 -0.63542,-0.78125 -0.875,-1.3125c-0.23958,-0.53125 -0.43229,-1.125 -0.57812,-1.78125c-0.13542,-0.66667 -0.23958,-1.31771 -0.3125,-1.95312c-0.07292,-0.64583 -0.11979,-1.23958 -0.14062,-1.78125c-0.02083,-0.54167 -0.03125,-0.97396 -0.03125,-1.29687c0,-0.5 0.02083,-1.22917 0.0625,-2.1875c0.04167,-0.96875 0.13021,-2.03646 0.26563,-3.20312c0.14583,-1.17708 0.33333,-2.38542 0.5625,-3.625c0.22917,-1.23958 0.52604,-2.36458 0.89063,-3.375c0.375,-1.01042 0.82292,-1.83333 1.34375,-2.46875c0.52083,-0.64583 1.125,-0.96875 1.8125,-0.96875c0.67708,0 1.28125,0.26042 1.8125,0.78125c0.53125,0.52083 1,1.14063 1.40625,1.85938c0.41667,0.71875 0.76563,1.46875 1.04688,2.25c0.28125,0.78125 0.52083,1.43229 0.71875,1.95313c0.36458,1.02083 0.71875,2.03646 1.0625,3.04688c0.35417,1.01042 0.69271,2.03646 1.01563,3.07813c0.02083,0.04167 0.0625,0.16146 0.125,0.35938c0.07292,0.1875 0.15104,0.40105 0.23438,0.64063c0.08333,0.26042 0.19271,0.55208 0.32813,0.875c0,-0.28125 -0.00521,-0.47917 -0.01562,-0.59375c-0.01042,-0.125 -0.01562,-0.23437 -0.01562,-0.32812c0,-0.09375 0,-0.21875 0,-0.375c0,-0.15625 0,-0.39583 0,-0.71875c-0.02083,-0.71875 -0.03646,-1.43229 -0.04687,-2.14062c-0.01042,-0.71875 -0.01562,-1.42708 -0.01562,-2.125c0,-0.30208 0.00521,-0.72396 0.01563,-1.26562c0.01042,-0.54167 0.04167,-1.11979 0.09375,-1.73437c0.05208,-0.625 0.13021,-1.25 0.23438,-1.875c0.11458,-0.63542 0.27604,-1.20312 0.48438,-1.70312c0.20833,-0.51042 0.46875,-0.92708 0.78125,-1.25c0.3125,-0.33333 0.69792,-0.5 1.15625,-0.5c0.54167,0 1.00521,0.20833 1.39063,0.625c0.39583,0.40625 0.72396,0.93229 0.98438,1.57813c0.26042,0.63542 0.46354,1.34896 0.60938,2.14063c0.15625,0.79167 0.27604,1.56771 0.35938,2.32813c0.09375,0.76042 0.15104,1.46875 0.17188,2.125c0.02083,0.64583 0.03125,1.15104 0.03125,1.51563z" fill="#000000" stroke="none" stroke-width="1" stroke-linecap="square"/><g stroke-linecap="butt"><path d="M384.10157,337.17396c0,-11.71315 0,-67.93786 0,-75c0,-1.42978 1.20011,-2.53334 2.73333,-2.53334c6.98845,0 58.75511,0 73.2,0c2.36828,0 3.73334,1.39598 3.73334,3.13333c0,7.63416 0,62.19284 0,74.2c0,1.49768 -1.2976,2.33333 -2.93333,2.33333c-7.36188,0 -61.18448,0 -74,0c-1.74821,0 -2.73333,-0.7613 -2.73333,-2.13333z" fill="#596064" stroke="#000000" stroke-width="3.5"/><g stroke="none" stroke-width="0"><path d="M391.92524,304.45044c0,6.88671 -0.18704,16.7579 -0.2057,22.03665c-0.00977,2.76403 -1.01628,4.54238 -1.7944,5.25824c-1.58988,1.46269 -7.25758,6.67696 -7.25758,6.67696v-41.14378c2.995,-0.31468 5.81747,-8.86561 8.93356,-9.149c0.04426,3.0303 0.32412,14.03909 0.32412,16.32092z" fill="#272727"/><path d="M382.66756,261.82345c0,0 5.33583,5.54925 6.96409,7.24265c0.87953,0.91469 1.9903,3.40424 1.94754,5.46261c-0.05543,2.66818 -0.11283,6.62563 -0.08421,10.73138c0.01555,2.23035 0.04307,4.5783 0.07693,6.9694c-2.9564,-0.08474 -5.98699,-0.13179 -8.90435,0.04499z" fill="#272727"/><path d="M455.35502,328.06914c0,-3.03161 -0.21644,-18.09273 -0.3279,-33.46102c3.14493,0.24818 6.2704,0.57445 9.32387,0.99234v42.66082c0,0 -6.09833,-5.61045 -7.61464,-7.00546c-0.64583,-0.59416 -1.38134,-2.0907 -1.38134,-3.18668z" data-paper-data="{&quot;index&quot;:null}" fill="#272727"/><path d="M455.20475,275.38644c0.08062,-2.75563 0.80682,-5.05101 1.40203,-5.67001c1.48046,-1.53967 7.74422,-8.054 7.74422,-8.054v30.73923c-3.14538,-0.26277 -6.27228,-0.47376 -9.38847,-0.6386c0.00299,-6.78328 0.13272,-12.63417 0.24222,-16.37664z" data-paper-data="{&quot;index&quot;:null}" fill="#272727"/><path d="M462.45459,340.18458l-78.33695,-0.14808c0,0 5.76349,-5.31178 7.52868,-6.93863c0.95756,-0.88251 2.86494,-2.04059 4.02602,-2.03826c3.05367,0.00609 8.73055,0.01926 16.3569,0.03449c4.45917,0.00891 10.00664,-0.24319 14.78512,-0.23387c11.31677,0.02206 21.3356,0.30417 24.07476,0.30964c1.39856,0.0028 3.4717,0.93457 4.23426,1.69584c1.58656,1.58388 7.33125,7.31887 7.33125,7.31887z" fill="#787880"/><path d="M451.14101,269.08914c-1.83999,0.06101 -4.82292,0.13118 -8.36165,0.10708c-7.02321,-0.04784 -16.33725,-0.36549 -24.73156,-0.38226c-10.89398,-0.02176 -18.53701,0.08887 -21.45981,0.08303c-1.64092,-0.00329 -4.11634,-1.12661 -4.95282,-1.9905c-1.57407,-1.62561 -6.80406,-7.02696 -6.80406,-7.02696l76.94531,0.14808c0,0 -5.70622,5.92413 -7.19483,7.46958c-0.66989,0.69548 -2.18102,1.55016 -3.44059,1.59193z" data-paper-data="{&quot;index&quot;:null}" fill="#79797f"/><path d="M382.66756,270.63061c0,0 5.33583,5.54924 6.96409,7.24265c0.87953,0.91469 1.9903,3.40424 1.94754,5.46262c-0.05543,2.66818 -0.11283,6.62563 -0.08421,10.73137c0.01555,2.23035 0.04306,4.57829 0.07692,6.96939c-2.9564,-0.08475 -5.98697,-0.1318 -8.90434,0.045z" fill="#272727"/><path d="M455.20475,284.19359c0.08062,-2.75563 0.80682,-5.05101 1.40203,-5.67001c1.48046,-1.53967 7.74422,-8.054 7.74422,-8.054v30.73923c-3.14538,-0.26277 -6.27228,-0.47376 -9.38847,-0.6386c0.00299,-6.78328 0.13272,-12.63417 0.24222,-16.37664z" data-paper-data="{&quot;index&quot;:null}" fill="#272727"/></g><path d="M384.10156,337.17396c0,-11.71315 0,-67.93786 0,-75c0,-1.42977 1.20011,-2.53333 2.73333,-2.53333c6.98846,0 58.7551,0 73.2,0c2.36828,0 3.73333,1.39598 3.73333,3.13333c0,7.63417 0,62.19285 0,74.2c0,1.49768 -1.2976,2.33333 -2.93333,2.33333c-7.36188,0 -61.18449,0 -74,0c-1.74821,0 -2.73333,-0.7613 -2.73333,-2.13333z" fill="none" stroke="#000000" stroke-width="3.5"/><path d="M398.8751,321.07025c0,-11.43484 0,-36.26805 0,-41.46844c0,-2.01671 2.22228,-3.90291 4.5,-3.90291c5.5107,0 29.40633,0 40,0c3.21428,0 4.75,2.36122 4.75,5.12257c0,6.09016 0,30.24548 0,40.49272c0,2.85847 -3.08553,4.63471 -6,4.63471c-6.09771,0 -28.95614,0 -38.75,0c-2.77408,0 -4.5,-1.03238 -4.5,-4.87865z" fill="#9c9c9c" stroke="#000000" stroke-width="2.5"/><path d="M406.58377,315.53215c0.07933,-2.08857 0.675,-3.94401 1.36441,-7.79206c0.36967,-2.0634 0.92139,-12.69417 0.36237,-14.79373c-1.04764,-3.93466 -2.56907,-7.32846 -1.20748,-8.73938c2.28956,-2.37251 8.06265,0.567 14.5055,0.78273c5.48974,0.18381 11.53423,-2.56883 15.58352,-1.8987c3.68162,0.60928 4.63087,3.26949 4.5742,6.41178c-0.06739,3.73721 -1.64118,7.67786 -1.64118,12.49295c0,4.82265 1.75,10.51853 1.75,12.75c0,3.12478 -1.9765,4.97182 -4.92956,4.7089c-2.64592,-0.23557 -7.07583,-1.7089 -10.57044,-1.7089c-5.45974,0 -10.19113,2.25 -12.75,2.25c-2.83377,0 -7.13615,-1.96733 -7.04133,-4.46359z" fill="#cbcbcb" stroke="none" stroke-width="0"/></g><path d="M210,275.10282c0,-19.16811 0,-218.74023 0,-218.74023h60c0,0 0,203.78265 0,220.24023c0,2.07758 -0.02118,5.30881 -0.66752,7.91185c-1.6477,6.63594 -7.35825,18.49707 -27.13815,19.09792c-21.60031,0.65615 -28.78975,-11.8592 -31.11946,-18.8873c-0.90036,-2.71613 -1.07488,-6.72163 -1.07488,-9.62247z" fill="none" stroke="#e02503" stroke-width="7" stroke-linecap="butt"/><path d="M210,275.10282c0,-19.16812 0,-218.74023 0,-218.74023h60c0,0 0,203.78266 0,220.24023c0,2.07757 -0.02118,5.30881 -0.66752,7.91185c-1.6477,6.63594 -7.35825,18.49706 -27.13815,19.09791c-21.60031,0.65615 -28.78974,-11.8592 -31.11945,-18.8873c-0.90036,-2.71613 -1.07488,-6.72163 -1.07488,-9.62247z" fill="none" stroke="#ffffff" stroke-width="3" stroke-linecap="butt"/><g stroke="#ffffff" stroke-width="1.5"><path d="" fill="#e02503" stroke-linecap="round"/><path d="" fill="#000000" stroke-linecap="butt"/></g><path d="M263.80591,42.70796c-1.15834,-0.88034 -2.26987,-2.84325 -3.37582,-3.53456c-2.93288,-1.83329 -5.91896,-2.9704 -6.34977,-6.78827c-0.21033,-1.86393 0.32418,-3.7829 1.26169,-5.34541c0.13537,-0.22562 2.39282,-1.93326 2.37559,-2.09386c-0.67059,-6.24999 -7.60478,-14.86286 2.91107,-17.19972c5.50535,-1.22341 5.72262,8.44312 7.60319,9.57284c0.99886,0.60005 3.92334,-0.5064 5.13893,-0.23627c1.73128,0.38473 6.34871,3.27259 6.9376,3.32337c1.7298,0.14916 5.14508,-0.45096 7.028,0.625c4.47697,2.55827 2.94039,10.08895 -2.5,10.87051c-0.99456,0.14288 -1.62114,-1.36312 -2.61715,-1.49551c-2.85312,-0.37922 -5.758,-0.09528 -8.63463,0c-0.72094,0.02388 1.41143,0.39758 2.01162,0.7977c1.57193,1.04795 3.17656,1.91854 4.21504,3.48743c1.68743,0.73944 3.20615,1.5527 4.36793,2.29201c8.20041,5.21845 12.7221,15.80951 17.73107,24.14361c0.65004,1.08157 2.8143,1.63034 3.79665,2.7937c1.56752,1.85637 2.44812,4.58622 3.54912,6.78824c0.5567,0.45217 1.01427,1.02165 1.33507,1.6708c0.52695,-0.07241 1.03429,-0.12661 1.48975,-0.12902c1.28211,-0.0068 5.78848,-4.64517 7.12043,-5.18798c3.5602,-1.45089 7.89025,-2.87819 11.56778,-3.99969c2.30444,-0.70276 4.05877,-4.35772 5.5429,-6.18434c1.29267,-1.59098 3.19913,-3.39726 5.26626,-4.83136c-0.11922,-1.01025 -0.25569,-2.00993 -0.51657,-2.90581c-1.5299,-5.25375 -6.32143,-6.54671 -7.04138,-11.23909c-0.2822,-0.30338 -0.53443,-0.58365 -0.75191,-0.83269c-3.33795,-3.82223 -6.93791,-7.21861 -10.63086,-10.94395c-2.06722,-2.08535 -3.53402,-3.93752 -4.98753,-6.07869c-0.32223,-0.47468 -2.69522,-0.72316 -3.32621,-0.9837c-1.14364,-0.47221 -2.00347,-2.19851 -3.22332,-2.82976c-1.22397,-0.63339 -5.5353,-0.87557 -5.77672,-2.88669c-1.62408,0.75848 -3.54685,1.28056 -4.19168,1.60108c-3.28992,1.63529 -5.584,6.24282 -9.56583,6.56075c-3.88442,0.31016 -7.39833,-4.39668 -2.53168,-5.61334l0.31313,-0.26839c0.33396,-0.38962 2.76745,-1.23502 2.76332,-1.42619c-0.02352,-1.08763 -0.70276,-2.3245 -0.93759,-3.58121c-1.13768,-0.44425 -1.941,-1.27144 -1.941,-2.4118c0,-2.53333 6.23516,-3.17748 7.46067,-1.98704c2.05214,-0.03996 4.17069,0.30032 5.29661,0.58181c0.67937,0.16984 0.70418,1.58261 1.40417,1.56264c0.64605,-0.01843 1.17658,-0.06006 1.63639,-0.04949c0.69016,-1.39175 2.00946,-2.4162 3.58601,-2.70148c0.19378,-0.06262 0.39871,-0.10103 0.61663,-0.11124c4.52899,-0.21205 7.13677,3.06628 10.40497,4.72431c1.64923,0.8367 3.69785,0.09456 5.54718,0.09456c1.01148,0 2.24991,0.57729 3.24271,0.70116c0.67838,0.08464 2.04709,-0.60991 2.79985,-0.70116c3.41663,-0.41413 6.90988,1.40582 9.03195,3.91934c1.76132,2.08622 5.95493,7.85567 6.15713,10.25107c0.10175,1.20537 0.03393,2.33365 -0.10734,3.42492c2.50944,2.13661 3.22272,7.29708 2.22631,9.26356c1.10105,1.52095 1.94149,3.29406 1.69402,5.00174c0.15544,0.19774 0.30672,0.38781 0.45367,0.56867l0.00947,0.00861c1.09368,0.91719 1.78903,2.29382 1.78903,3.83286c0,0.61451 -0.11086,1.20314 -0.31367,1.74696c0.15287,1.79572 0.17095,3.73532 0.04235,5.3856c0.53532,1.69114 0.32543,3.52924 -1.09956,4.75066c0.248,0.36195 0.44963,0.75817 0.59632,1.1801c2.35901,2.05463 -2.05365,8.22604 -3.61534,8.97624c-3.76511,1.80864 -7.13706,3.59298 -11.20635,2.70253c-0.19737,-0.04319 -0.58371,0.72062 -0.65718,0.81072c-1.40393,1.72168 -3.93646,2.6662 -5.95217,3.42912c-2.02952,0.76815 -5.28241,-0.2332 -6.82418,0.58611c-2.48325,1.31963 -3.78172,4.04188 -5.87301,5.46498c-2.55099,1.73592 -5.53605,0.20828 -7.9737,0.83679c-5.13029,1.32276 -11.9285,-1.00927 -12.68111,-7.20933c-0.17835,-1.46927 0.38068,-3.01375 1.36622,-4.20069c-0.62512,-1.05317 -3.03588,-2.1525 -3.91576,-3.07063c-2.90135,-3.0275 -3.35424,-8.04369 -6.41741,-11.05235c-0.68496,-0.67278 -1.04967,-1.84036 -1.97494,-2.09661c-0.18781,-0.05201 -3.46416,1.31531 -5.63991,0.53826c-1.93763,-0.69201 -4.14074,-2.9454 -5.88085,-4.11159c-4.86273,-3.25889 -9.09585,-2.61053 -10.4977,-8.43469c-0.05311,-0.0382 -0.10575,-0.0771 -0.15789,-0.11673z" fill="#3e3e3e" stroke="none" stroke-width="0.5" stroke-linecap="butt"/><path d="M309.18199,70.97938l-20.69574,-30.08711l-0.24036,-2.42792l-10.09544,-5.83528l-3.33458,0.70396l-0.53019,-2.70762l5.95468,-1.53011l8.8535,3.7648l0.1329,-8.5479l15.49961,-10.63974l8.18046,4.42316l6.9695,1.32228l21.07555,30.96074l-2.16941,5.07056l-23.20142,16.0705z" fill="none" stroke="#e02503" stroke-width="3" stroke-linecap="round"/><path d="M309.18199,70.97938c0,0 -1.83644,-2.66979 -3.41097,-4.95881c-3.5444,-5.15279 -17.28477,-25.1283 -17.28477,-25.1283l-0.24036,-2.42792l-10.09544,-5.83528l-3.33458,0.70396l-0.53019,-2.70762l5.95468,-1.53011l8.8535,3.7648l0.1329,-8.5479l15.49961,-10.63974l8.18046,4.42316l6.9695,1.32228l21.07555,30.96074l-2.16941,5.07056l-23.20142,16.0705z" fill="none" stroke="#ffffff" stroke-width="1.5" stroke-linecap="round"/></g></g></svg>