<svg version="1.1" xmlns="http://www.w3.org/2000/svg" xmlns:xlink="http://www.w3.org/1999/xlink" width="42.00001" height="44.75" viewBox="0,0,42.00001,44.75"><g transform="translate(-218.99999,-157.375)"><g data-paper-data="{&quot;isPaintingLayer&quot;:true}" fill-rule="nonzero" stroke-linejoin="miter" stroke-miterlimit="10" stroke-dasharray="" stroke-dashoffset="0" style="mix-blend-mode: normal"><path d="M220.75,198.625c0,-4.52692 0,-13.87508 0,-21.71429c0,-5.71431 0,-10.62682 0,-12.28571c0,-1.20083 0.92773,-2.25 2.10715,-2.25c0.29955,0 24.80203,0 33.42857,0c1.84541,0 2.96429,0.88986 2.96429,2.39286c0,7.55799 0,30.62036 0,34c0,1.1323 -0.88963,2.10714 -2.39285,2.10714c-7.38781,0 -29.59614,0 -33.85715,0c-1.40226,0 -2.25,-0.48893 -2.25,-2.25z" fill="#5b5b5b" stroke="#5b5b5b" stroke-width="2.5" stroke-linecap="butt"/><path d="M220.74999,195.375c0,-4.52692 0,-13.87508 0,-21.71429c0,-5.71431 0,-10.62682 0,-12.28571c0,-1.20083 0.92773,-2.25 2.10715,-2.25c0.29955,0 24.80203,0 33.42857,0c1.84541,0 2.96429,0.88986 2.96429,2.39286c0,7.55799 0,30.62036 0,34c0,1.1323 -0.88963,2.10714 -2.39285,2.10714c-7.38781,0 -29.59614,0 -33.85715,0c-1.40226,0 -2.25,-0.48893 -2.25,-2.25z" fill="#969696" stroke="#404040" stroke-width="3.5" stroke-linecap="butt"/><path d="M225.42856,191.08929c0,-5.74743 0,-22.10314 0,-25.28571c0,-1.04926 0.87738,-2 1.85714,-2c2.94835,0 18.03553,0 24.14286,0c1.59006,0 2.57143,1.12021 2.57143,2.42857c0,3.42127 0,18.96827 0,24.71429c0,0.77956 -0.31373,1.37872 -0.87409,1.74272c-0.4004,0.2601 -0.92672,0.40013 -1.55448,0.40013c-6.09762,0 -21.76599,0 -24.57143,0c-0.844,0 -1.57143,-0.74851 -1.57143,-2z" fill="#bdbdbd" stroke="#404040" stroke-width="0" stroke-linecap="butt"/><path d="M243.43654,179.04374c1.93243,1.03594 2.89865,2.53009 2.89865,4.48245c0,1.534 -0.59766,2.88868 -1.79298,4.06408c-1.19532,1.15547 -2.76915,1.73322 -4.72151,1.73322c-1.93243,0 -3.44651,-0.59766 -4.54221,-1.79298c-1.07579,-1.19532 -1.61368,-2.28107 -1.61368,-3.25725c0,-0.39845 0.14941,-0.73711 0.44824,-1.01602c0.29883,-0.29883 0.67735,-0.44824 1.13555,-0.44824c0.29883,0 0.55781,0.07969 0.77696,0.23906c0.23906,0.15938 0.45821,0.53789 0.65742,1.13555c0.61758,1.79298 1.66348,2.68947 3.13771,2.68947c0.79688,0 1.51407,-0.28887 2.15158,-0.8666c0.65742,-0.57774 0.98614,-1.37461 0.98614,-2.39064c0,-0.93634 -0.26895,-1.68341 -0.80684,-2.24123c-0.51798,-0.55781 -1.21524,-0.83672 -2.09181,-0.83672l-1.58379,0.08965c-0.91641,0 -1.37461,-0.41836 -1.37461,-1.25508c0,-0.91641 0.55781,-1.37461 1.67345,-1.37461c1.39454,0 2.31095,-0.25899 2.74924,-0.77696c0.43828,-0.53789 0.65742,-1.11564 0.65742,-1.73322c0,-0.67735 -0.2291,-1.23517 -0.68731,-1.67345c-0.43828,-0.45821 -1.02599,-0.68731 -1.7631,-0.68731c-1.33477,0 -2.24123,0.66739 -2.71935,2.00216c-0.29883,0.79688 -0.767,1.19532 -1.4045,1.19532c-0.43828,0 -0.78692,-0.13945 -1.0459,-0.41836c-0.23906,-0.27891 -0.3586,-0.61758 -0.3586,-1.01602c0,-0.95625 0.52793,-1.89259 1.58379,-2.809c1.07579,-0.93634 2.48029,-1.4045 4.2135,-1.4045c1.69337,0 3.0381,0.42833 4.0342,1.28497c0.9961,0.85664 1.49415,1.93243 1.49415,3.22736c0,1.47423 -0.69727,2.7592 -2.09181,3.8549z" fill="#2d2d2d" stroke="none" stroke-width="1" stroke-linecap="square"/></g></g></svg>