<svg version="1.1" xmlns="http://www.w3.org/2000/svg" xmlns:xlink="http://www.w3.org/1999/xlink" width="304.3003" height="304.30025" viewBox="0,0,304.3003,304.30025"><g transform="translate(-92.84988,-32.8499)"><g data-paper-data="{&quot;isPaintingLayer&quot;:true}" fill-rule="nonzero" stroke-linecap="butt" stroke-linejoin="miter" stroke-miterlimit="10" stroke-dasharray="" stroke-dashoffset="0" style="mix-blend-mode: normal"><path d="M94.84989,275.23519c0,-59.99896 0,-148.11906 0,-181.81815c0,-26.16557 22.73163,-58.56714 54.69562,-58.56714c60.91162,0 155.35022,0 189.899,0c25.1397,0 55.70568,31.10369 55.70568,56.54696c0,34.37139 0,127.20919 0,187.87876c0,32.57375 -30.56593,55.87453 -55.70568,55.87453c-33.79375,0 -124.88841,0 -185.85858,0c-34.07175,0 -58.73599,-25.26921 -58.73599,-59.91496z" fill="#83a08b" stroke="#83a08b" stroke-width="4"/><g stroke-width="12.5"><path d="M226.60668,150.14592c3.23049,12.95138 -42.58049,51.49623 -55.20293,20.11933c-7.32014,-18.18006 -13.71237,-56.29286 -6.44625,-58.1045c7.26612,-1.80671 58.42362,25.02886 61.64917,37.98518z" fill="#f4900c" stroke="#000000"/><path d="M216.81704,152.86088c4.71319,7.55088 -8.98935,22.39245 -16.53534,27.1105c-7.55088,4.71805 -14.23276,-2.71006 -21.67074,-21.67074c-3.25011,-8.29221 -8.17931,-30.78287 -5.41523,-32.51103c2.75915,-1.72326 38.90326,19.52039 43.62131,27.07127z" fill="#a0041e" stroke="#000000"/><path d="M333.06037,112.16075c7.26612,1.81164 0.8739,39.92444 -6.44131,58.1045c-12.62734,31.37694 -58.43345,-7.16302 -55.20786,-20.11933c3.23049,-12.95628 54.38308,-39.79188 61.64917,-37.98517z" fill="#f4900c" stroke="#000000"/><path d="M324.82711,125.79454c2.75915,1.72816 -2.17001,24.21882 -5.42012,32.50614c-7.43798,18.96068 -14.11986,26.38879 -21.66584,21.67074c-7.54598,-4.71805 -21.24852,-19.55962 -16.53538,-27.1105c4.71805,-7.55088 40.85727,-28.79451 43.62135,-27.06634z" fill="#a0041e" stroke="#000000"/><path d="M319.43641,234.12373c0.3535,1.57108 0.50079,3.3336 0.17675,5.36615c-13.29506,-6.33821 -24.34155,-8.17931 -31.49967,-2.04238c-5.95035,17.7824 -20.44824,31.49964 -39.07018,31.49964c-18.63173,0 -33.32601,-13.30485 -39.28129,-31.09218c-8.5917,-4.29586 -15.95603,-5.31703 -31.70095,1.83616c-0.27496,-2.60699 0.05892,-4.77206 0.66279,-6.5935c0.21111,-2.11599 0.96717,-4.72298 1.89508,-7.2416c-2.92607,0.12763 -7.60976,0.91319 -13.81054,4.01601c-0.12274,-2.60206 0.39766,-4.83592 1.38449,-6.76047c-0.14236,0.07364 -0.2651,0.12274 -0.41239,0.19638c5.42016,-16.25552 16.25552,-27.086 16.25552,-27.086h-10.83535c11.42453,-22.85886 24.33661,-39.30092 39.57587,-46.89598c6.81938,-4.3106 18.11621,-6.60824 36.25701,-6.60824h0.01473c18.09168,0.00493 29.37382,2.28785 36.19809,6.57388c15.26872,7.58034 28.20047,24.03714 39.64463,46.93035h-10.83049c0,0 10.83049,10.83539 16.24572,27.08601c-0.20128,-0.1031 -0.36823,-0.17185 -0.56951,-0.27003c0.76099,2.00802 1.30101,4.20748 1.3403,6.839c-6.14186,-3.07336 -10.72735,-3.87365 -13.59943,-4.01111c1.07521,2.92607 1.99815,6.05349 1.99815,8.28242z" fill="#f18f26" stroke="#000000"/><path d="M319.46587,234.14825l-0.00494,-0.0049v0.0049c-11.778,-7.72763 -25.1123,-11.14467 -36.47302,-2.21913c-7.56071,37.04253 -59.73446,38.88853 -67.91377,0c-11.35578,-8.93048 -24.69992,-5.5036 -36.47302,2.21913v-0.0049l-0.00493,0.0049c0,-5.41523 5.41522,-16.25058 5.41522,-16.25552c-0.02453,0 -5.43978,0.00984 -16.24571,5.41523c6.13693,-13.92838 36.93942,-19.99167 48.75671,-16.15731c4.04057,3.97182 5.09122,23.06506 16.60413,32.51103c8.67024,7.15812 23.26141,7.02555 31.80895,0c10.31986,-7.94854 10.85992,-22.91777 16.60902,-32.51103c11.81236,-3.82452 42.62468,2.21913 48.75671,16.15731c-10.80593,-5.4005 -16.21622,-5.41523 -16.24568,-5.41523c0.0049,0 5.42012,10.84028 5.41033,16.25552z" fill="#ffd983" stroke="#000000"/><path d="M214.67159,185.48481c0,0 0.00004,-7.36429 7.36434,-7.36429c7.36429,0 7.36429,7.36429 7.36429,7.36429v7.36434c0,0 0,7.36429 -7.36429,7.36429c-7.36429,0 -7.36434,-7.36429 -7.36434,-7.36429zM268.67661,185.48481c0,0 0.00004,-7.36429 7.36433,-7.36429c7.36429,0 7.36429,7.36429 7.36429,7.36429v7.36434c0,0 0,7.36429 -7.36429,7.36429c-7.3643,0 -7.36433,-7.36429 -7.36433,-7.36429zM234.0103,238.54723c-5.01267,1.02119 10.02038,19.48107 15.03305,19.48107c5.00774,0 20.04078,-18.45988 15.03304,-19.48107c-5.01267,-1.02119 -25.05342,-1.02119 -30.06606,0z" fill="#272b2b" stroke="#000000"/><path d="M226.60671,150.14589c3.23049,12.95138 -42.58049,51.49623 -55.20296,20.11933c-7.32014,-18.18006 -13.71237,-56.29286 -6.44625,-58.1045c7.26612,-1.80671 58.42362,25.02886 61.64917,37.98518z" fill="#f4900c" stroke="none"/><path d="M216.81707,152.86088c4.71315,7.55088 -8.98939,22.39245 -16.53537,27.11053c-7.55088,4.71809 -14.23276,-2.71006 -21.67074,-21.67074c-3.25011,-8.29221 -8.17931,-30.78287 -5.41523,-32.51103c2.75915,-1.72326 38.90326,19.52036 43.62134,27.07124z" fill="#a0041e" stroke="none"/><path d="M333.06037,112.16071c7.26612,1.81161 0.8739,39.92444 -6.44131,58.1045c-12.62737,31.3769 -58.43345,-7.16302 -55.20786,-20.11933c3.23049,-12.95631 54.38305,-39.79188 61.64917,-37.98517z" fill="#f4900c" stroke="none"/><path d="M324.82715,125.79454c2.75915,1.72816 -2.17001,24.21878 -5.42012,32.50614c-7.43798,18.96068 -14.11986,26.38882 -21.66584,21.67074c-7.54598,-4.71809 -21.24852,-19.55965 -16.53538,-27.11053c4.71808,-7.55088 40.85727,-28.79451 43.62135,-27.06634z" fill="#a0041e" stroke="none"/><path d="M319.43645,234.12373c0.35351,1.57104 0.50076,3.3336 0.17675,5.36615c-13.29506,-6.33821 -24.34155,-8.17931 -31.49967,-2.04238c-5.95038,17.78236 -20.44827,31.49967 -39.07018,31.49967c-18.63173,0 -33.32601,-13.30488 -39.28129,-31.09218c-8.5917,-4.29586 -15.95603,-5.31706 -31.70095,1.83616c-0.27492,-2.60695 0.05892,-4.77206 0.66279,-6.5935c0.21111,-2.11603 0.96717,-4.72298 1.89508,-7.2416c-2.92611,0.12763 -7.6098,0.91319 -13.81054,4.01601c-0.12274,-2.60206 0.39766,-4.83592 1.38449,-6.76047c-0.14236,0.07364 -0.26513,0.12274 -0.41239,0.19638c5.42013,-16.25552 16.25552,-27.08597 16.25552,-27.08597h-10.83539c11.42453,-22.85886 24.33661,-39.30092 39.57587,-46.89598c6.81934,-4.3106 18.11624,-6.60824 36.25701,-6.60824h0.01473c18.09168,0.0049 29.37382,2.28785 36.19809,6.57388c15.26869,7.58034 28.20043,24.03713 39.64459,46.93038h-10.83046c0,0 10.83046,10.83539 16.24569,27.08597c-0.20128,-0.1031 -0.3682,-0.17182 -0.56951,-0.27003c0.76099,2.00802 1.30104,4.20749 1.3403,6.83901c-6.14183,-3.07336 -10.72735,-3.87365 -13.59943,-4.01111c1.07518,2.92611 1.99819,6.05349 1.99819,8.28241z" fill="#f18f26" stroke="none"/><path d="M319.46591,234.14825l-0.0049,-0.0049v0.0049c-11.778,-7.72763 -25.11234,-11.14467 -36.47302,-2.21913c-7.56071,37.04253 -59.73447,38.88853 -67.91378,0c-11.35578,-8.93048 -24.69992,-5.5036 -36.47302,2.21913v-0.0049l-0.0049,0.0049c0,-5.41523 5.41523,-16.25062 5.41523,-16.25552c-0.02456,0 -5.43979,0.00984 -16.24568,5.41523c6.13693,-13.92838 36.93942,-19.99167 48.75671,-16.15731c4.04057,3.97182 5.09122,23.06506 16.60409,32.51103c8.67028,7.15812 23.26144,7.02555 31.80895,0c10.31986,-7.94858 10.85992,-22.91777 16.60899,-32.51103c11.81236,-3.82452 42.62468,2.21913 48.75671,16.15731c-10.80593,-5.4005 -16.21622,-5.41523 -16.24568,-5.41523c0.0049,0 5.42012,10.84028 5.41033,16.25552z" fill="#ffd983" stroke="none"/><path d="M214.67162,185.48481c0,0 0,-7.36433 7.36433,-7.36433c7.36433,0 7.36433,7.36433 7.36433,7.36433v7.36434c0,0 0,7.36433 -7.36433,7.36433c-7.36433,0 -7.36433,-7.36433 -7.36433,-7.36433zM268.67664,185.48481c0,0 0,-7.36433 7.36433,-7.36433c7.36433,0 7.36433,7.36433 7.36433,7.36433v7.36434c0,0 0,7.36433 -7.36433,7.36433c-7.36433,0 -7.36433,-7.36433 -7.36433,-7.36433zM234.01033,238.54723c-5.01263,1.02119 10.02038,19.48107 15.03305,19.48107c5.00774,0 20.04079,-18.45992 15.03304,-19.48107c-5.01263,-1.02119 -25.05343,-1.02119 -30.06606,0z" fill="#272b2b" stroke="none"/></g></g></g></svg>