<svg version="1.1" xmlns="http://www.w3.org/2000/svg" xmlns:xlink="http://www.w3.org/1999/xlink" width="493.50453" height="431.10088" viewBox="0,0,493.50453,431.10088"><g transform="translate(6.7522,52.72093)"><g data-paper-data="{&quot;isPaintingLayer&quot;:true}" fill-rule="nonzero" stroke-linecap="butt" stroke-linejoin="miter" stroke-miterlimit="10" stroke-dasharray="" stroke-dashoffset="0" style="mix-blend-mode: normal"><path d="M486.75212,170.1443c0.00014,0.09256 0.00022,0.18512 0.00022,0.2777c0,114.85201 -110.47474,207.95796 -246.75225,207.95796c-136.2775,0 -246.75225,-93.10595 -246.75225,-207.95796c0,-114.85201 110.47475,-207.95796 246.75225,-207.95796c125.2106,0 228.63907,78.59795 244.6119,180.44548" fill="none" stroke="none" stroke-width="0"/><path d="M486.72567,170.23462c-1.9588,115.24167 -111.67141,208.14534 -246.72561,208.14534c-136.2775,0 -246.75225,-94.59431 -246.75225,-211.28231v-0.00001c0,-116.688 110.47475,-211.28231 246.75225,-211.28231c126.91774,0 231.45535,82.04672 245.21631,187.57545" fill="none" stroke="none" stroke-width="0"/><path d="M477.49294,201.11978c-19.06565,98.43364 -119.48121,173.51403 -240.49285,173.51403c-134.62065,0 -243.75225,-92.91711 -243.75225,-207.53617v-0.00001c0,-114.61906 109.1316,-207.53617 243.75225,-207.53617c124.22791,0 226.75038,79.12445 241.83951,181.41113" fill="none" stroke="none" stroke-width="0"/><path d="M109.1599,44.05791c0.80452,-7.87277 13.91586,-28.759 20.47311,-30.13947c8.22505,-1.73159 33.79876,-1.06692 33.79876,-1.06692v173.58225c0,0 -37.29848,13.18978 -49.13736,-25.20634c-11.83888,-38.39612 -6.84644,-100.417 -5.13451,-117.16952z" fill="#ff0000" stroke="#ff0000" stroke-width="50"/><path d="M153.68229,164.82948c-1.29557,-40.59935 -2.18976,-64.64258 3.82278,-105.36377c6.01254,-40.72119 25.26336,-69.42694 25.26336,-69.42694c0,0 15.50689,-13.75967 33.92797,-13.75967c13.89376,0 29.0474,-1.28211 55.15115,1.51542c24.08114,2.58076 49.78668,36.18664 49.78668,36.18664c0,0 47.80199,42.92692 40.64743,65.04957c-3.58511,11.08554 -19.76397,29.28712 -19.76397,29.28712c0,0 -6.40671,37.34216 -7.79635,75.71221c-1.19081,32.88011 62.42985,46.61196 51.88861,77.77928c-4.39619,12.99822 -15.54227,34.30589 -39.8792,27.52143c-30.89292,-8.61209 -53.71961,-46.00114 -53.71961,-46.00114l-53.31565,-4.11349c0,0 -24.16002,20.78362 -25.05223,33.04352c-0.98152,13.48688 -21.05627,15.8876 -47.58143,10.6358c-34.83434,-6.89696 -38.84849,-25.68171 -48.46441,-38.60783c-6.46334,-0.40954 -3.40181,-28.29629 14.67289,-36.40634c18.0747,-8.11005 32.92997,-1.23862 28.32014,-5.71752c-6.7949,-14.43151 -7.3943,-21.2314 -7.90816,-37.33429z" fill="#ff0000" stroke="#ff0000" stroke-width="50"/><path d="M238.28251,244.58268c-8.05025,13.53184 -28.29866,50.5666 -62.5085,42.6234c-30.84386,-7.16165 -61.54568,-33.24978 -62.7325,-47.65908c-1.53255,-18.60684 29.92307,-48.29204 57.59593,-27.09581" data-paper-data="{&quot;index&quot;:null}" fill="#ff0000" stroke="#ff0000" stroke-width="50"/><path d="M163.43175,186.43379c0,0 -37.31476,6.92079 -44.13735,-15.20635c-6.82259,-22.12714 -12.84645,-50.41699 -12.13452,-71.16951c0.57736,-16.82986 -5.08414,-80.759 22.47311,-86.13947c6.56679,-1.33438 33.79876,-1.06692 33.79876,-1.06692" fill="#ff0000" stroke="#ff0000" stroke-width="50"/><path d="M153.68229,164.82948c-0.56892,-17.7057 -2.18976,-64.64258 3.82278,-105.36377c8.15677,-55.24343 21.34897,-87.21703 77.19133,-87.18661c80.02951,0.0436 88.6357,24.09051 96.93783,46.70206c10.82684,29.4878 10.88346,89.33669 10.88346,89.33669c0,0 -1.40671,30.34216 -2.79635,68.71221c-0.32031,8.84416 -2.05933,16.52267 -4.28474,23.39332c-0.91905,2.83745 47.99867,27.05857 50.32014,46.7359c2.0767,17.60265 -12.54052,41.99151 -38.25495,38.36172c-23.07527,-3.25725 -52.38395,-45.88424 -57.49066,-44.19138c-5.10671,1.69286 -45.09486,7.9287 -73.31565,-0.11349c-27.30251,-7.7805 -61.44819,-27.68083 -63.0132,-76.38666z" fill="#ff0000" stroke="#ff0000" stroke-width="50"/><path d="M309.66301,19.96676c34.9912,13.39437 59.77318,36.94132 52.61863,59.06398c-3.58511,11.08554 -19.76397,29.28712 -19.76397,29.28712c0,0 -63.93902,23.16195 -95.57769,3.52082c-17.66536,-10.96657 -42.14706,-49.79267 -26.37385,-72.23514c17.06702,-24.28335 70.91203,-26.59781 89.0969,-19.63677z" fill="#ff0000" stroke="#ff0000" stroke-width="50"/><path d="M241.83588,43.42987c5.97118,-19.89599 26.03837,-25.43427 45.49052,-25.43427c19.25264,0 38.63001,9.43427 38.63001,9.43427c0,0 33.59001,20.9898 21.5135,48.23943c-8.64009,19.49566 -60.85434,18.10599 -80.49454,10.13595c-19.6402,-7.97004 -31.11067,-22.47939 -25.13949,-42.37538z" fill="#ff0000" stroke="#ff0000" stroke-width="50"/><path d="M323.26752,31.70149c26.17019,6.28142 18.38326,33.7961 2.53497,27.77018c-18.94713,-7.20418 -34.0349,-5.36728 -36.4473,-17.57695c-3.38666,-17.14057 15.27171,-14.66738 33.91233,-10.19323z" fill="#ff0000" stroke="#ff0000" stroke-width="50"/><path d="M343.5177,109.31786c-25.09967,10.51942 -74.87795,19.19815 -107.57769,-0.47918c-18.96117,-11.41004 -26.14706,-47.79267 -10.37385,-70.23514c15.77321,-22.44247 51.80846,-21.31824 85.0969,-18.63677c52.9583,4.26593 68.36079,74.47025 32.85464,89.35109z" fill="#ff0000" stroke="#ff0000" stroke-width="50"/></g></g></svg>