<svg version="1.1" xmlns="http://www.w3.org/2000/svg" xmlns:xlink="http://www.w3.org/1999/xlink" width="706.21021" height="368" viewBox="0,0,706.21021,368"><g transform="translate(23.10511,4)"><g data-paper-data="{&quot;isPaintingLayer&quot;:true}" fill-rule="nonzero" stroke-linecap="butt" stroke-linejoin="miter" stroke-miterlimit="10" stroke-dasharray="" stroke-dashoffset="0" style="mix-blend-mode: normal"><path d="M-22.1051,363v-366h704.21021v366z" fill="#000000" stroke="#000000" stroke-width="2"/><path d="M431.4011,187.38615v-0.33394c-1.15245,1.50604 -2.61265,2.25906 -4.38061,2.25906c-1.70248,0 -3.06447,-0.64825 -4.08596,-1.94476c-1.0084,-1.3096 -1.51259,-2.99898 -1.51259,-5.06815c0,-1.93821 0.4911,-3.52283 1.4733,-4.75385c0.99529,-1.24412 2.36383,-1.86618 4.10559,-1.86618c1.68938,0 3.15614,0.68099 4.40026,2.04297v-4.34132c0,-1.20484 0.1506,-1.95131 0.45181,-2.23942c0.3143,-0.30121 0.72683,-0.45182 1.23757,-0.45182c0.36669,0 0.70063,0.10477 1.00185,0.31431c0.30121,0.20953 0.48455,0.48455 0.55003,0.82505c0.06548,0.3274 0.09822,0.87743 0.09822,1.65009v13.20076c0,0.74647 -0.03929,1.28341 -0.11787,1.61081c-0.06548,0.3143 -0.25537,0.56313 -0.56967,0.74647c-0.30121,0.18334 -0.62861,0.27502 -0.9822,0.27502c-1.11316,0 -1.66974,-0.64171 -1.66974,-1.92512zM424.82036,182.39659c0,1.50603 0.3143,2.60609 0.94291,3.30018c0.6417,0.69409 1.36852,1.04114 2.18048,1.04114c0.94291,0 1.72212,-0.36014 2.33764,-1.08042c0.62861,-0.72028 0.94291,-1.72867 0.94291,-3.02518c0,-1.34888 -0.30121,-2.42276 -0.90363,-3.22161c-0.60242,-0.79886 -1.40781,-1.19828 -2.41621,-1.19828c-0.90363,0 -1.64355,0.37323 -2.21977,1.1197c-0.57622,0.73338 -0.86433,1.75486 -0.86433,3.06446z" fill="#c1c1c1" stroke="none" stroke-width="1"/><path d="M349.31865,187.38615c0,1.28341 -0.55003,1.92512 -1.65009,1.92512c-0.43217,0 -0.79231,-0.11131 -1.08042,-0.33395c-0.28811,-0.22264 -0.46491,-0.4911 -0.53039,-0.80541c-0.05238,-0.3143 -0.07858,-0.81196 -0.07858,-1.49295v-13.20076c0,-0.75957 0.03274,-1.3096 0.09822,-1.65009c0.07858,-0.35359 0.26846,-0.62861 0.56967,-0.82505c0.3143,-0.20953 0.64826,-0.31431 1.00185,-0.31431c0.49765,0 0.89708,0.15061 1.19828,0.45182c0.3143,0.28811 0.47145,1.03458 0.47145,2.23942v4.34132c1.25722,-1.36199 2.73052,-2.04297 4.4199,-2.04297c1.74176,0 3.10375,0.62206 4.08595,1.86618c0.9822,1.23102 1.4733,2.81564 1.4733,4.75385c0,2.06917 -0.50419,3.75855 -1.51259,5.06815c-1.0084,1.29651 -2.37037,1.94476 -4.08595,1.94476c-1.75485,0 -3.21505,-0.75302 -4.3806,-2.25905zM349.49545,182.63231c0,1.29649 0.3143,2.30489 0.94291,3.02517c0.62861,0.72028 1.41437,1.08042 2.35728,1.08042c0.81196,0 1.53223,-0.34705 2.16084,-1.04114c0.6417,-0.69409 0.96256,-1.79415 0.96256,-3.30019c0,-1.2965 -0.28812,-2.31144 -0.86434,-3.04482c-0.57622,-0.74647 -1.32269,-1.1197 -2.23941,-1.1197c-1.0084,0 -1.81379,0.39942 -2.41621,1.19828c-0.60242,0.79886 -0.90363,1.86619 -0.90363,3.20197z" fill="#c1c1c1" stroke="none" stroke-width="1"/><path d="M246.44303,175.67833c2.08227,0 3.71927,0.6417 4.911,1.92511c1.19173,1.27031 1.7876,2.90076 1.7876,4.89136c0,1.9906 -0.60241,3.62759 -1.80725,4.911c-1.20484,1.27031 -2.80254,1.90547 -4.79314,1.90547c-2.16084,0 -3.83058,-0.64825 -5.00922,-1.94476c-1.17864,-1.2965 -1.76796,-2.92041 -1.76796,-4.87171c0,-1.9906 0.59587,-3.62105 1.78761,-4.89136c1.19173,-1.28341 2.82218,-1.92511 4.89135,-1.92511zM246.44303,186.81648c1.02149,0 1.8269,-0.37979 2.41622,-1.13935c0.58932,-0.77266 0.88398,-1.83345 0.88398,-3.18233c0,-1.36199 -0.29466,-2.42276 -0.88398,-3.18232c-0.58932,-0.77266 -1.39473,-1.159 -2.41622,-1.159c-0.99529,0 -1.79415,0.38634 -2.39656,1.159c-0.58932,0.77266 -0.88398,1.83344 -0.88398,3.18232c0,1.34888 0.29466,2.40967 0.88398,3.18233c0.58932,0.75956 1.38817,1.13935 2.39656,1.13935z" fill="#c1c1c1" stroke="none" stroke-width="1"/><path d="M282.71076,185.24495l1.98404,-6.93433c0.24882,-0.85124 0.43872,-1.40782 0.56968,-1.66974c0.13096,-0.27501 0.3405,-0.50419 0.62861,-0.68754c0.30121,-0.18335 0.63516,-0.27501 1.00184,-0.27501c0.58932,0 1.02149,0.15715 1.29651,0.47145c0.28811,0.30121 0.60241,1.02149 0.94291,2.16084l2.00369,6.93433l2.18048,-7.48436c0.23573,-0.78576 0.45837,-1.32924 0.6679,-1.63045c0.20954,-0.30121 0.57622,-0.45181 1.10006,-0.45181c0.39288,0 0.73338,0.14406 1.02149,0.43216c0.30121,0.27501 0.45181,0.59587 0.45181,0.96255c0,0.30121 -0.12442,0.8185 -0.37324,1.55188l-2.73051,8.0344c-0.30121,0.85124 -0.53039,1.41436 -0.68754,1.68938c-0.15715,0.27501 -0.37978,0.5042 -0.6679,0.68754c-0.28811,0.18334 -0.60897,0.27502 -0.96256,0.27502c-0.69409,0 -1.18519,-0.20953 -1.4733,-0.62861c-0.28811,-0.41908 -0.57622,-1.12626 -0.86433,-2.12155l-1.90547,-6.54145l-1.84653,6.54145c-0.23573,0.83814 -0.43217,1.40781 -0.58932,1.70902c-0.14406,0.30121 -0.37323,0.55004 -0.68754,0.74648c-0.30121,0.19644 -0.64171,0.29466 -1.02149,0.29466c-0.36669,0 -0.70718,-0.09168 -1.02148,-0.27502c-0.30121,-0.17025 -0.52384,-0.39288 -0.6679,-0.66789c-0.14406,-0.28811 -0.36669,-0.85778 -0.6679,-1.70902l-2.73051,-8.0344c-0.26192,-0.70719 -0.39288,-1.22448 -0.39288,-1.55188c0,-0.35359 0.14406,-0.67444 0.43217,-0.96255c0.28811,-0.28811 0.6417,-0.43216 1.06078,-0.43216c0.51075,0 0.87088,0.1506 1.08042,0.45181c0.20954,0.28811 0.42562,0.83159 0.64825,1.63045z" fill="#c1c1c1" stroke="none" stroke-width="1"/><path d="M370.45559,187.40578c-1.58462,1.27031 -3.14304,1.90547 -4.67527,1.90547c-1.45365,0 -2.57336,-0.36668 -3.35913,-1.10006c-0.77266,-0.74647 -1.15899,-1.6501 -1.15899,-2.71088c0,-0.91672 0.26192,-1.65009 0.78576,-2.20012c0.53694,-0.56313 1.11316,-0.95601 1.72867,-1.17864c0.62861,-0.22263 1.64355,-0.47801 3.04482,-0.76612c1.40127,-0.28811 2.53408,-0.55659 3.39842,-0.80541c-0.01309,-1.02149 -0.21609,-1.70903 -0.60897,-2.06262c-0.39288,-0.35359 -0.98875,-0.53039 -1.7876,-0.53039c-1.51914,0 -2.51443,0.42562 -2.98588,1.27686c-0.26192,0.48455 -0.49765,0.8316 -0.70719,1.04113c-0.19644,0.19644 -0.48455,0.29466 -0.86434,0.29466c-0.35359,0 -0.67445,-0.11132 -0.96256,-0.33395c-0.28811,-0.23573 -0.43216,-0.54348 -0.43216,-0.92326c0,-0.86434 0.47145,-1.68284 1.41437,-2.4555c0.94291,-0.78576 2.42276,-1.17864 4.43955,-1.17864c2.04298,0 3.53592,0.35359 4.47884,1.06077c0.95601,0.70719 1.40781,2.13465 1.35544,4.28239l-0.07858,3.14304c-0.0262,0.9822 0.07202,1.78106 0.29466,2.39657c0.23573,0.60242 0.35359,1.06732 0.35359,1.39472c0,0.35359 -0.15715,0.6679 -0.47145,0.94292c-0.30121,0.27501 -0.64826,0.41252 -1.04113,0.41252c-0.68099,0 -1.40127,-0.63516 -2.16084,-1.90547zM370.23951,182.55374c-0.49765,0.19644 -1.3227,0.41252 -2.47514,0.64825c-1.15245,0.22263 -1.97095,0.48455 -2.4555,0.78576c-0.47145,0.28811 -0.70719,0.72028 -0.70719,1.2965c0,0.47145 0.18989,0.89708 0.56968,1.27686c0.37978,0.36669 0.92327,0.55003 1.63045,0.55003c0.73338,0 1.41437,-0.20299 2.04298,-0.60896c0.6417,-0.40598 1.03458,-0.88398 1.17864,-1.43401c0.14406,-0.56313 0.21608,-1.40127 0.21608,-2.51443z" fill="#c1c1c1" stroke="none" stroke-width="1"/><path d="M333.21794,183.31985h-6.58074c0.03929,1.24412 0.37979,2.18048 1.02149,2.80909c0.6548,0.62861 1.44056,0.94291 2.35728,0.94291c1.11316,0 2.16739,-0.4911 3.16269,-1.4733c0.40598,-0.40598 0.70063,-0.6548 0.88398,-0.74647c0.19644,-0.10477 0.41252,-0.15715 0.64825,-0.15715c0.30121,0 0.55658,0.09822 0.76611,0.29466c0.22263,0.18335 0.33395,0.41253 0.33395,0.68754c0,0.75956 -0.51729,1.55842 -1.55187,2.39656c-1.02149,0.82505 -2.41622,1.23757 -4.18418,1.23757c-2.23942,0 -3.94189,-0.63516 -5.10744,-1.90547c-1.15245,-1.27031 -1.72867,-2.90731 -1.72867,-4.911c0,-2.02988 0.57623,-3.67343 1.72867,-4.93064c1.16555,-1.25722 2.78289,-1.88582 4.85207,-1.88582c1.9644,0 3.48354,0.59587 4.55741,1.7876c1.07387,1.17864 1.6108,2.46205 1.6108,3.85022c0,0.61551 -0.17679,1.10662 -0.53038,1.4733c-0.35359,0.35359 -1.10007,0.53039 -2.23942,0.53039zM326.6372,181.41436h6.10929c-0.03929,-1.11316 -0.34704,-1.9644 -0.92326,-2.55372c-0.57622,-0.58932 -1.28341,-0.88398 -2.12156,-0.88398c-1.78106,0 -2.80255,1.1459 -3.06447,3.4377z" fill="#c1c1c1" stroke="none" stroke-width="1"/><path d="M416.65582,183.31985h-6.58074c0.03929,1.24412 0.37979,2.18048 1.02149,2.80909c0.6548,0.62861 1.44056,0.94291 2.35728,0.94291c1.11316,0 2.16738,-0.4911 3.16268,-1.4733c0.40598,-0.40598 0.70064,-0.6548 0.88398,-0.74647c0.19644,-0.10477 0.41253,-0.15715 0.64826,-0.15715c0.30121,0 0.55658,0.09822 0.76611,0.29466c0.22263,0.18335 0.33394,0.41253 0.33394,0.68754c0,0.75956 -0.51729,1.55842 -1.55187,2.39656c-1.02149,0.82505 -2.41621,1.23757 -4.18417,1.23757c-2.23942,0 -3.94189,-0.63516 -5.10744,-1.90547c-1.15245,-1.27031 -1.72867,-2.90731 -1.72867,-4.911c0,-2.02988 0.57622,-3.67343 1.72867,-4.93064c1.16555,-1.25722 2.7829,-1.88582 4.85207,-1.88582c1.9644,0 3.48353,0.59587 4.5574,1.7876c1.07387,1.17864 1.61081,2.46205 1.61081,3.85022c0,0.61551 -0.1768,1.10662 -0.53039,1.4733c-0.35359,0.35359 -1.10006,0.53039 -2.23941,0.53039zM410.07508,181.41436h6.10929c-0.03929,-1.11316 -0.34705,-1.9644 -0.92327,-2.55372c-0.57622,-0.58932 -1.28341,-0.88398 -2.12155,-0.88398c-1.78106,0 -2.80255,1.1459 -3.06447,3.4377z" fill="#c1c1c1" stroke="none" stroke-width="1"/><path d="M307.88946,183.31985h-6.58074c0.03929,1.24412 0.37979,2.18048 1.02149,2.80909c0.6548,0.62861 1.44056,0.94291 2.35728,0.94291c1.11316,0 2.16738,-0.4911 3.16268,-1.4733c0.40598,-0.40598 0.70064,-0.6548 0.88398,-0.74647c0.19644,-0.10477 0.41253,-0.15715 0.64826,-0.15715c0.30121,0 0.55658,0.09822 0.76612,0.29466c0.22263,0.18335 0.33395,0.41253 0.33395,0.68754c0,0.75956 -0.5173,1.55842 -1.55188,2.39656c-1.02149,0.82505 -2.41621,1.23757 -4.18417,1.23757c-2.23941,0 -3.94189,-0.63516 -5.10744,-1.90547c-1.15245,-1.27031 -1.72867,-2.90731 -1.72867,-4.911c0,-2.02988 0.57623,-3.67343 1.72867,-4.93064c1.16554,-1.25722 2.7829,-1.88582 4.85207,-1.88582c1.9644,0 3.48353,0.59587 4.5574,1.7876c1.07387,1.17864 1.61081,2.46205 1.61081,3.85022c0,0.61551 -0.1768,1.10662 -0.53039,1.4733c-0.35359,0.35359 -1.10006,0.53039 -2.23941,0.53039zM301.30872,181.41436h6.10928c-0.03929,-1.11316 -0.34704,-1.9644 -0.92327,-2.55372c-0.57622,-0.58932 -1.28341,-0.88398 -2.12155,-0.88398c-1.78105,0 -2.80254,1.1459 -3.06446,3.4377z" fill="#c1c1c1" stroke="none" stroke-width="1"/><path d="M230.74011,181.3751l-4.40025,-6.81647c-0.72028,-1.10007 -1.08042,-1.87273 -1.08042,-2.31799c0,-0.43217 0.1637,-0.79886 0.4911,-1.10007c0.3405,-0.30121 0.74647,-0.45182 1.21792,-0.45182c0.44526,0 0.79232,0.13096 1.04114,0.39288c0.26192,0.24882 0.6679,0.82505 1.21793,1.72867l3.37877,5.46103l3.39841,-5.46103c0.58932,-0.96911 1.01494,-1.56497 1.27686,-1.7876c0.26192,-0.22263 0.60242,-0.33395 1.02149,-0.33395c0.44526,0 0.82505,0.15061 1.13935,0.45182c0.3143,0.30121 0.47145,0.66135 0.47145,1.08042c0,0.40598 -0.35359,1.15245 -1.06077,2.23942l-4.49847,6.91469v4.911c0,0.78576 -0.03274,1.36199 -0.09822,1.72868c-0.06548,0.35359 -0.26192,0.66134 -0.58932,0.92326c-0.3143,0.24882 -0.68754,0.37324 -1.11971,0.37324c-0.41907,0 -0.7923,-0.12442 -1.1197,-0.37324c-0.3143,-0.24882 -0.51074,-0.55003 -0.58932,-0.90362c-0.06548,-0.35359 -0.09822,-0.93636 -0.09822,-1.74832z" fill="#c1c1c1" stroke="none" stroke-width="1"/><path d="M255.67816,184.32169v-5.8932c0,-0.72028 0.0262,-1.24412 0.07858,-1.57152c0.06548,-0.3274 0.24228,-0.60242 0.53039,-0.82505c0.28811,-0.23573 0.6417,-0.35359 1.06078,-0.35359c0.39288,0 0.73337,0.11131 1.02148,0.33394c0.30121,0.22263 0.48456,0.51729 0.55003,0.88398c0.07858,0.35359 0.11786,0.89053 0.11786,1.61081v4.61634c0,1.50604 0.23573,2.47514 0.70718,2.90731c0.47146,0.41907 0.98875,0.62861 1.55188,0.62861c0.6417,0 1.20483,-0.1768 1.68938,-0.53039c0.49765,-0.36668 0.8316,-0.8054 1.00185,-1.31615c0.17024,-0.52384 0.25537,-1.53878 0.25537,-3.04482v-3.33948c0,-0.70719 0.03274,-1.23102 0.09822,-1.57152c0.07858,-0.3405 0.26193,-0.62206 0.55004,-0.8447c0.30121,-0.22263 0.6548,-0.33394 1.06077,-0.33394c0.37978,0 0.72028,0.11131 1.02149,0.33394c0.30121,0.22263 0.47801,0.49765 0.53039,0.82505c0.06548,0.3274 0.09822,0.85778 0.09822,1.59116v8.28976c0,0.68099 -0.03274,1.17209 -0.09822,1.4733c-0.06548,0.30121 -0.22918,0.56313 -0.4911,0.78576c-0.24882,0.22264 -0.56967,0.33395 -0.96255,0.33395c-1.08697,0 -1.61081,-0.77921 -1.57152,-2.33764c-1.11316,1.55842 -2.58646,2.33764 -4.4199,2.33764c-1.21793,0 -2.25251,-0.36014 -3.10375,-1.08042c-0.85124,-0.73338 -1.27686,-2.03642 -1.27686,-3.90915z" fill="#c1c1c1" stroke="none" stroke-width="1"/><path d="M388.75643,181.0215v5.50032c0,0.72028 -0.03274,1.24412 -0.09822,1.57152c-0.05238,0.3143 -0.22917,0.59587 -0.53038,0.84469c-0.28811,0.24882 -0.62861,0.37324 -1.02149,0.37324c-0.36668,0 -0.70718,-0.11131 -1.02149,-0.33395c-0.30121,-0.22264 -0.49111,-0.50419 -0.56968,-0.84469c-0.07858,-0.35359 -0.11786,-0.89053 -0.11786,-1.61081v-4.81278c0,-1.34888 -0.20299,-2.25251 -0.60897,-2.71087c-0.39288,-0.47145 -0.94291,-0.70718 -1.65009,-0.70718c-0.62861,0 -1.18519,0.18335 -1.66974,0.55003c-0.48455,0.36668 -0.82505,0.8316 -1.02149,1.39472c-0.19644,0.55003 -0.29466,1.49294 -0.29466,2.82873v3.45735c0,0.70718 -0.0262,1.22447 -0.07858,1.55187c-0.05238,0.3143 -0.22918,0.60242 -0.53039,0.86433c-0.30121,0.24882 -0.64825,0.37324 -1.04113,0.37324c-0.37978,0 -0.72683,-0.11131 -1.04113,-0.33395c-0.30121,-0.23573 -0.48455,-0.51729 -0.55003,-0.84469c-0.06548,-0.3405 -0.09822,-0.87743 -0.09822,-1.61081v-8.25048c0,-0.74647 0.03274,-1.26377 0.09822,-1.55188c0.07858,-0.30121 0.25537,-0.55003 0.53039,-0.74647c0.28811,-0.19644 0.60897,-0.29466 0.96256,-0.29466c0.3274,0 0.6679,0.13096 1.02149,0.39288c0.35359,0.24882 0.53039,0.87089 0.53039,1.86618c1.12626,-1.50604 2.56682,-2.25906 4.32168,-2.25906c0.66789,0 1.32924,0.13096 1.98404,0.39288c0.6548,0.24882 1.18519,0.6548 1.59117,1.21793c0.41907,0.56313 0.67444,1.15245 0.76611,1.76796c0.09167,0.61551 0.13751,1.27031 0.13751,1.9644z" fill="#c1c1c1" stroke="none" stroke-width="1"/><path d="M403.9437,181.0215v5.50032c0,0.72028 -0.03274,1.24412 -0.09822,1.57152c-0.05238,0.3143 -0.22918,0.59587 -0.53039,0.84469c-0.28811,0.24882 -0.62861,0.37324 -1.02149,0.37324c-0.36668,0 -0.70719,-0.11131 -1.02149,-0.33395c-0.30121,-0.22264 -0.4911,-0.50419 -0.56967,-0.84469c-0.07858,-0.35359 -0.11786,-0.89053 -0.11786,-1.61081v-4.81278c0,-1.34888 -0.20298,-2.25251 -0.60896,-2.71087c-0.39288,-0.47145 -0.94291,-0.70718 -1.6501,-0.70718c-0.62861,0 -1.18519,0.18335 -1.66974,0.55003c-0.48455,0.36668 -0.82505,0.8316 -1.02149,1.39472c-0.19644,0.55003 -0.29466,1.49294 -0.29466,2.82873v3.45735c0,0.70718 -0.0262,1.22447 -0.07858,1.55187c-0.05238,0.3143 -0.22918,0.60242 -0.53039,0.86433c-0.30121,0.24882 -0.64825,0.37324 -1.04113,0.37324c-0.37978,0 -0.72683,-0.11131 -1.04114,-0.33395c-0.30121,-0.23573 -0.48455,-0.51729 -0.55003,-0.84469c-0.06548,-0.3405 -0.09822,-0.87743 -0.09822,-1.61081v-8.25048c0,-0.74647 0.03274,-1.26377 0.09822,-1.55188c0.07858,-0.30121 0.25537,-0.55003 0.53038,-0.74647c0.28811,-0.19644 0.60897,-0.29466 0.96256,-0.29466c0.3274,0 0.66789,0.13096 1.02148,0.39288c0.35359,0.24882 0.53039,0.87089 0.53039,1.86618c1.12626,-1.50604 2.56681,-2.25906 4.32168,-2.25906c0.66789,0 1.32925,0.13096 1.98405,0.39288c0.6548,0.24882 1.18518,0.6548 1.59116,1.21793c0.41907,0.56313 0.67444,1.15245 0.76611,1.76796c0.09167,0.61551 0.13751,1.27031 0.13751,1.9644z" fill="#c1c1c1" stroke="none" stroke-width="1"/><path d="M313.46099,186.52181v-8.58442c0,-1.50604 0.55003,-2.25906 1.65009,-2.25906c1.06078,0 1.60425,0.69409 1.63045,2.08226c0.69409,-1.38817 1.65665,-2.08226 2.88767,-2.08226c0.6417,0 1.3096,0.17024 2.00368,0.51074c0.69409,0.3405 1.04113,0.80541 1.04113,1.39472c0,0.40598 -0.14406,0.74648 -0.43217,1.02149c-0.27501,0.26192 -0.56968,0.39288 -0.88398,0.39288c-0.18335,0 -0.51075,-0.07202 -0.9822,-0.21608c-0.47145,-0.14406 -0.86434,-0.21608 -1.17864,-0.21608c-0.79886,0 -1.39472,0.40597 -1.7876,1.21793c-0.39288,0.79886 -0.58932,2.35728 -0.58932,4.67527v1.94476c0,0.85124 -0.03928,1.42746 -0.11786,1.72868c-0.06548,0.30121 -0.24883,0.57622 -0.55004,0.82504c-0.28811,0.23573 -0.62206,0.35359 -1.00184,0.35359c-0.37978,0 -0.72028,-0.11131 -1.02149,-0.33395c-0.28811,-0.22264 -0.47145,-0.478 -0.55003,-0.76612c-0.07858,-0.30121 -0.11786,-0.86434 -0.11786,-1.68939z" fill="#c1c1c1" stroke="none" stroke-width="1"/></g></g></svg>