<svg version="1.1" xmlns="http://www.w3.org/2000/svg" xmlns:xlink="http://www.w3.org/1999/xlink" width="144.14414" height="60.93899" viewBox="0,0,144.14414,60.93899"><g transform="translate(-167.92793,-149.5305)"><g data-paper-data="{&quot;isPaintingLayer&quot;:true}" fill-rule="nonzero" stroke-linejoin="miter" stroke-miterlimit="10" stroke-dasharray="" stroke-dashoffset="0" style="mix-blend-mode: normal"><path d="M217.59977,181.27921c0.31935,0 0.59515,0.10887 0.8274,0.32661c0.23951,0.21774 0.35927,0.49717 0.35927,0.83829c0,0.95078 -0.47903,1.92698 -1.43707,2.92857c-0.95078,1.00159 -2.29713,1.50239 -4.03903,1.50239c-2.14109,0 -3.74145,-0.66047 -4.80111,-1.98141c-1.05966,-1.3282 -1.58949,-2.95397 -1.58949,-4.87732c0,-2.07576 0.59152,-3.74145 1.77456,-4.99707c1.18304,-1.26287 2.72172,-1.89432 4.61604,-1.89432c1.64029,0 2.95398,0.45725 3.94105,1.37175c0.98708,0.90724 1.48062,1.79996 1.48062,2.67817c0,0.28306 -0.10887,0.54434 -0.32661,0.78385c-0.21048,0.23951 -0.49717,0.35927 -0.86006,0.35927c-0.31935,0 -0.56612,-0.0871 -0.74031,-0.26129c-0.16693,-0.18145 -0.39556,-0.54434 -0.68587,-1.08869c-0.29031,-0.54435 -0.6895,-0.96168 -1.19755,-1.25199c-0.5008,-0.29757 -1.04151,-0.44636 -1.62215,-0.44636c-1.12498,0 -2.01407,0.42095 -2.66728,1.26288c-0.65321,0.83466 -0.97982,2.03222 -0.97982,3.59267c0,1.56045 0.31935,2.71809 0.95804,3.47292c0.64596,0.75482 1.51691,1.13223 2.61285,1.13223c1.55319,0 2.59833,-0.75482 3.13542,-2.26447c0.18145,-0.5008 0.37015,-0.82377 0.56612,-0.96894c0.20322,-0.14516 0.42822,-0.21773 0.67498,-0.21773zM225.34948,176.80471c1.53142,0 2.73623,0.47539 3.61444,1.42618c0.88547,0.94353 1.3282,2.14834 1.3282,3.61444c0,1.4661 -0.44636,2.67092 -1.33909,3.61444c-0.89272,0.94353 -2.07214,1.41529 -3.53823,1.41529c-1.59674,0 -2.83059,-0.4754 -3.70154,-1.42618c-0.86369,-0.95804 -1.29554,-2.15923 -1.29554,-3.60355c0,-1.47335 0.43911,-2.6818 1.31732,-3.62533c0.87821,-0.94353 2.08302,-1.41529 3.61444,-1.41529zM225.34948,185.03518c0.74756,0 1.33908,-0.28306 1.77456,-0.84917c0.44274,-0.56612 0.6641,-1.34635 0.6641,-2.34068c0,-1.00885 -0.22136,-1.79633 -0.6641,-2.36245c-0.43547,-0.56611 -1.02699,-0.84918 -1.77456,-0.84918c-0.74031,0 -1.33183,0.28669 -1.77456,0.86006c-0.43547,0.56611 -0.65321,1.34998 -0.65321,2.35156c0,1.00159 0.21774,1.78545 0.65321,2.35156c0.43547,0.55886 1.027,0.83829 1.77456,0.83829zM246.26785,180.48447v4.26765c0,0.58789 -0.02541,1.0016 -0.07621,1.24111c-0.04354,0.23951 -0.17419,0.44636 -0.39193,0.62055c-0.21048,0.17419 -0.46451,0.26129 -0.76208,0.26129c-0.29031,0 -0.54434,-0.0871 -0.76208,-0.26129c-0.21048,-0.17419 -0.34475,-0.3883 -0.40282,-0.64232c-0.0508,-0.25403 -0.07621,-0.66047 -0.07621,-1.21933v-3.61444c0,-1.05965 -0.12701,-1.72375 -0.38104,-1.9923c-0.24677,-0.26854 -0.58789,-0.40281 -1.02337,-0.40281c-0.45725,0 -0.84192,0.12702 -1.15401,0.38104c-0.31209,0.24677 -0.5262,0.57337 -0.64232,0.97982c-0.10887,0.39918 -0.16331,1.03063 -0.16331,1.89432v2.75437c0,0.58789 -0.0254,1.00522 -0.0762,1.25199c-0.04354,0.23951 -0.17782,0.44636 -0.40282,0.62055c-0.21774,0.16693 -0.47177,0.2504 -0.76208,0.2504c-0.38467,0 -0.68587,-0.12702 -0.90361,-0.38104c-0.21774,-0.26128 -0.32661,-0.84192 -0.32661,-1.7419v-3.3967c0,-0.97256 -0.07258,-1.65117 -0.21774,-2.03584c-0.14516,-0.38467 -0.52257,-0.577 -1.13223,-0.577c-0.6387,0 -1.13949,0.20322 -1.50239,0.60967c-0.3629,0.39918 -0.54435,1.26651 -0.54435,2.60196v2.79792c0,0.57337 -0.02177,0.97619 -0.06532,1.20845c-0.03629,0.225 -0.16331,0.43547 -0.38105,0.63144c-0.21774,0.18871 -0.47177,0.28306 -0.76208,0.28306c-0.2758,0 -0.52982,-0.08347 -0.76208,-0.2504c-0.225,-0.17419 -0.36652,-0.38105 -0.42459,-0.62055c-0.0508,-0.23951 -0.07621,-0.65684 -0.07621,-1.25199v-5.99866c0,-0.57337 0.0254,-0.96167 0.07621,-1.1649c0.0508,-0.20322 0.18145,-0.38467 0.39193,-0.54434c0.21774,-0.15967 0.45362,-0.23951 0.70764,-0.23951c0.79111,0 1.18667,0.50442 1.18667,1.51327c0.8274,-1.00885 1.82537,-1.51327 2.99389,-1.51327c1.24836,0 2.1556,0.50442 2.72172,1.51327c0.84192,-1.00885 1.82537,-1.51327 2.95034,-1.51327c0.86369,0 1.60399,0.23951 2.22092,0.71853c0.61693,0.47902 0.92539,1.4661 0.92539,2.96123zM262.70061,180.48447v4.26765c0,0.58789 -0.0254,1.0016 -0.07621,1.24111c-0.04354,0.23951 -0.17419,0.44636 -0.39193,0.62055c-0.21048,0.17419 -0.46451,0.26129 -0.76208,0.26129c-0.29031,0 -0.54435,-0.0871 -0.76208,-0.26129c-0.21048,-0.17419 -0.34475,-0.3883 -0.40281,-0.64232c-0.05081,-0.25403 -0.07621,-0.66047 -0.07621,-1.21933v-3.61444c0,-1.05965 -0.12702,-1.72375 -0.38104,-1.9923c-0.24677,-0.26854 -0.58789,-0.40281 -1.02337,-0.40281c-0.45725,0 -0.84191,0.12702 -1.154,0.38104c-0.31209,0.24677 -0.52621,0.57337 -0.64233,0.97982c-0.10887,0.39918 -0.1633,1.03063 -0.1633,1.89432v2.75437c0,0.58789 -0.0254,1.00522 -0.07621,1.25199c-0.04354,0.23951 -0.17782,0.44636 -0.40282,0.62055c-0.21773,0.16693 -0.47176,0.2504 -0.76208,0.2504c-0.38467,0 -0.68588,-0.12702 -0.90361,-0.38104c-0.21774,-0.26128 -0.32661,-0.84192 -0.32661,-1.7419v-3.3967c0,-0.97256 -0.07258,-1.65117 -0.21774,-2.03584c-0.14516,-0.38467 -0.52257,-0.577 -1.13224,-0.577c-0.6387,0 -1.13949,0.20322 -1.50239,0.60967c-0.3629,0.39918 -0.54434,1.26651 -0.54434,2.60196v2.79792c0,0.57337 -0.02178,0.97619 -0.06532,1.20845c-0.03629,0.225 -0.16331,0.43547 -0.38105,0.63144c-0.21774,0.18871 -0.47177,0.28306 -0.76208,0.28306c-0.2758,0 -0.52982,-0.08347 -0.76208,-0.2504c-0.225,-0.17419 -0.36652,-0.38105 -0.42459,-0.62055c-0.0508,-0.23951 -0.0762,-0.65684 -0.0762,-1.25199v-5.99866c0,-0.57337 0.0254,-0.96167 0.0762,-1.1649c0.0508,-0.20322 0.18145,-0.38467 0.39193,-0.54434c0.21774,-0.15967 0.45362,-0.23951 0.70765,-0.23951c0.79111,0 1.18667,0.50442 1.18667,1.51327c0.8274,-1.00885 1.82537,-1.51327 2.99389,-1.51327c1.24836,0 2.15561,0.50442 2.72172,1.51327c0.84192,-1.00885 1.82536,-1.51327 2.95034,-1.51327c0.86369,0 1.604,0.23951 2.22093,0.71853c0.61692,0.47902 0.92538,1.4661 0.92538,2.96123zM266.98361,179.3849c0,0.31935 0.16693,0.56974 0.50079,0.75119c0.33387,0.18145 1.0778,0.4137 2.23181,0.69676c2.2427,0.54434 3.36405,1.47699 3.36405,2.79793c0,1.0524 -0.38104,1.85803 -1.14312,2.41689c-0.75483,0.5516 -1.81086,0.8274 -3.16808,0.8274c-1.37901,0 -2.41688,-0.28306 -3.11365,-0.84918c-0.69676,-0.57337 -1.04514,-1.17578 -1.04514,-1.80722c0,-0.2758 0.09436,-0.50805 0.28306,-0.69676c0.19597,-0.19597 0.43547,-0.29395 0.71853,-0.29395c0.38467,0 0.72217,0.24314 1.01248,0.72942c0.3266,0.52983 0.68588,0.88184 1.0778,1.05603c0.39918,0.16693 0.82014,0.2504 1.26288,0.2504c0.50079,0 0.90361,-0.10887 1.20844,-0.3266c0.31209,-0.21774 0.46813,-0.49717 0.46813,-0.83829c0,-0.31209 -0.13064,-0.58063 -0.39193,-0.80563c-0.26128,-0.22499 -0.97982,-0.47176 -2.1556,-0.7403c-1.17578,-0.26855 -2.03222,-0.64596 -2.5693,-1.13224c-0.53709,-0.48628 -0.80563,-1.06691 -0.80563,-1.7419c0,-0.75483 0.32661,-1.42255 0.97982,-2.00319c0.65321,-0.58064 1.63666,-0.87095 2.95034,-0.87095c1.20482,0 2.16286,0.24676 2.87414,0.7403c0.71853,0.48628 1.0778,0.99434 1.0778,1.52417c0,0.2758 -0.09072,0.50805 -0.27217,0.69676c-0.18145,0.1887 -0.43547,0.28305 -0.76208,0.28305c-0.47177,0 -0.89998,-0.27217 -1.28465,-0.81651c-0.38467,-0.5516 -0.96531,-0.8274 -1.7419,-0.8274c-0.4137,0 -0.7766,0.08346 -1.08869,0.25039c-0.31209,0.16693 -0.46814,0.41007 -0.46814,0.72942z" fill="#ffffff" stroke="#000000" stroke-width="3.5" stroke-linecap="square"/><path d="M217.59976,181.27921c0.31935,0 0.59515,0.10887 0.8274,0.32661c0.23951,0.21774 0.35927,0.49717 0.35927,0.83829c0,0.95079 -0.47902,1.92698 -1.43707,2.92857c-0.95079,1.00159 -2.29713,1.50239 -4.03903,1.50239c-2.14109,0 -3.74146,-0.66047 -4.80111,-1.98141c-1.05966,-1.3282 -1.58948,-2.95397 -1.58948,-4.87732c0,-2.07576 0.59152,-3.74146 1.77456,-4.99708c1.18304,-1.26288 2.72172,-1.89432 4.61603,-1.89432c1.64029,0 2.95397,0.45725 3.94105,1.37175c0.98708,0.90724 1.48062,1.79996 1.48062,2.67817c0,0.28306 -0.10887,0.54434 -0.32661,0.78385c-0.21048,0.23951 -0.49717,0.35927 -0.86006,0.35927c-0.31935,0 -0.56612,-0.08709 -0.74031,-0.26128c-0.16693,-0.18145 -0.39556,-0.54434 -0.68587,-1.08869c-0.29032,-0.54434 -0.6895,-0.96167 -1.19756,-1.25199c-0.5008,-0.29757 -1.04151,-0.44636 -1.62214,-0.44636c-1.12498,0 -2.01407,0.42096 -2.66728,1.26288c-0.65321,0.83466 -0.97982,2.03222 -0.97982,3.59267c0,1.56045 0.31935,2.71809 0.95804,3.47291c0.64595,0.75482 1.5169,1.13223 2.61285,1.13223c1.55319,0 2.59833,-0.75482 3.13542,-2.26447c0.18145,-0.5008 0.37015,-0.82377 0.56612,-0.96893c0.20322,-0.14516 0.42822,-0.21774 0.67499,-0.21774zM225.34947,176.80471c1.53142,0 2.73623,0.47539 3.61444,1.42618c0.88547,0.94353 1.3282,2.14834 1.3282,3.61444c0,1.4661 -0.44636,2.67091 -1.33909,3.61444c-0.89272,0.94353 -2.07213,1.41529 -3.53823,1.41529c-1.59674,0 -2.83059,-0.47539 -3.70154,-1.42618c-0.86369,-0.95804 -1.29554,-2.15923 -1.29554,-3.60356c0,-1.47336 0.4391,-2.6818 1.31731,-3.62533c0.87821,-0.94353 2.08302,-1.41529 3.61444,-1.41529zM225.34947,185.03519c0.74757,0 1.33909,-0.28306 1.77456,-0.84918c0.44273,-0.56612 0.6641,-1.34634 0.6641,-2.34068c0,-1.00885 -0.22137,-1.79633 -0.6641,-2.36245c-0.43547,-0.56612 -1.027,-0.84918 -1.77456,-0.84918c-0.74031,0 -1.33183,0.28669 -1.77456,0.86006c-0.43547,0.56612 -0.65321,1.34997 -0.65321,2.35156c0,1.00159 0.21774,1.78545 0.65321,2.35156c0.43547,0.55886 1.027,0.83829 1.77456,0.83829zM246.26784,180.48447v4.26765c0,0.58789 -0.0254,1.00159 -0.07621,1.2411c-0.04355,0.23951 -0.17419,0.44636 -0.39193,0.62055c-0.21048,0.17419 -0.46451,0.26128 -0.76208,0.26128c-0.29032,0 -0.54434,-0.08709 -0.76208,-0.26128c-0.21048,-0.17419 -0.34475,-0.3883 -0.40281,-0.64233c-0.05081,-0.25403 -0.07621,-0.66047 -0.07621,-1.21933v-3.61444c0,-1.05966 -0.12701,-1.72376 -0.38104,-1.9923c-0.24677,-0.26854 -0.58789,-0.40281 -1.02337,-0.40281c-0.45725,0 -0.84192,0.12701 -1.15401,0.38104c-0.31209,0.24677 -0.5262,0.57338 -0.64233,0.97982c-0.10887,0.39919 -0.1633,1.03062 -0.1633,1.89432v2.75438c0,0.58789 -0.0254,1.00522 -0.07621,1.25199c-0.04355,0.23951 -0.17782,0.44636 -0.40281,0.62055c-0.21774,0.16693 -0.47176,0.2504 -0.76208,0.2504c-0.38467,0 -0.68587,-0.12701 -0.90361,-0.38104c-0.21774,-0.26128 -0.32661,-0.84192 -0.32661,-1.7419v-3.3967c0,-0.97256 -0.07258,-1.65118 -0.21774,-2.03585c-0.14516,-0.38467 -0.52257,-0.577 -1.13223,-0.577c-0.6387,0 -1.13949,0.20322 -1.50239,0.60966c-0.3629,0.39919 -0.54434,1.26651 -0.54434,2.60196v2.79793c0,0.57338 -0.02177,0.97619 -0.06532,1.20844c-0.03629,0.225 -0.1633,0.43547 -0.38104,0.63144c-0.21774,0.18871 -0.47176,0.28306 -0.76208,0.28306c-0.2758,0 -0.52983,-0.08347 -0.76208,-0.2504c-0.225,-0.17419 -0.36652,-0.38104 -0.42459,-0.62055c-0.05081,-0.23951 -0.07621,-0.65684 -0.07621,-1.25199v-5.99867c0,-0.57338 0.0254,-0.96167 0.07621,-1.1649c0.05081,-0.20322 0.18145,-0.38467 0.39193,-0.54434c0.21774,-0.15967 0.45362,-0.23951 0.70765,-0.23951c0.79111,0 1.18667,0.50443 1.18667,1.51328c0.8274,-1.00885 1.82537,-1.51328 2.99389,-1.51328c1.24836,0 2.1556,0.50443 2.72172,1.51328c0.84192,-1.00885 1.82536,-1.51328 2.95034,-1.51328c0.86369,0 1.604,0.23951 2.22092,0.71853c0.61692,0.47902 0.92538,1.4661 0.92538,2.96123zM262.7006,180.48447v4.26765c0,0.58789 -0.0254,1.00159 -0.07621,1.2411c-0.04355,0.23951 -0.17419,0.44636 -0.39193,0.62055c-0.21048,0.17419 -0.46451,0.26128 -0.76208,0.26128c-0.29032,0 -0.54434,-0.08709 -0.76208,-0.26128c-0.21048,-0.17419 -0.34475,-0.3883 -0.40281,-0.64233c-0.05081,-0.25403 -0.07621,-0.66047 -0.07621,-1.21933v-3.61444c0,-1.05966 -0.12701,-1.72376 -0.38104,-1.9923c-0.24677,-0.26854 -0.58789,-0.40281 -1.02337,-0.40281c-0.45725,0 -0.84192,0.12701 -1.15401,0.38104c-0.31209,0.24677 -0.5262,0.57338 -0.64233,0.97982c-0.10887,0.39919 -0.1633,1.03062 -0.1633,1.89432v2.75438c0,0.58789 -0.0254,1.00522 -0.07621,1.25199c-0.04355,0.23951 -0.17782,0.44636 -0.40281,0.62055c-0.21774,0.16693 -0.47176,0.2504 -0.76208,0.2504c-0.38467,0 -0.68587,-0.12701 -0.90361,-0.38104c-0.21774,-0.26128 -0.32661,-0.84192 -0.32661,-1.7419v-3.3967c0,-0.97256 -0.07258,-1.65118 -0.21774,-2.03585c-0.14516,-0.38467 -0.52257,-0.577 -1.13223,-0.577c-0.6387,0 -1.13949,0.20322 -1.50239,0.60966c-0.3629,0.39919 -0.54434,1.26651 -0.54434,2.60196v2.79793c0,0.57338 -0.02177,0.97619 -0.06532,1.20844c-0.03629,0.225 -0.1633,0.43547 -0.38104,0.63144c-0.21774,0.18871 -0.47176,0.28306 -0.76208,0.28306c-0.2758,0 -0.52983,-0.08347 -0.76208,-0.2504c-0.225,-0.17419 -0.36652,-0.38104 -0.42459,-0.62055c-0.05081,-0.23951 -0.07621,-0.65684 -0.07621,-1.25199v-5.99867c0,-0.57338 0.0254,-0.96167 0.07621,-1.1649c0.05081,-0.20322 0.18145,-0.38467 0.39193,-0.54434c0.21774,-0.15967 0.45362,-0.23951 0.70765,-0.23951c0.79111,0 1.18667,0.50443 1.18667,1.51328c0.8274,-1.00885 1.82537,-1.51328 2.99389,-1.51328c1.24836,0 2.1556,0.50443 2.72172,1.51328c0.84192,-1.00885 1.82537,-1.51328 2.95034,-1.51328c0.86369,0 1.604,0.23951 2.22092,0.71853c0.61692,0.47902 0.92538,1.4661 0.92538,2.96123zM266.98361,179.38489c0,0.31935 0.16693,0.56975 0.5008,0.75119c0.33386,0.18145 1.0778,0.4137 2.23181,0.69676c2.2427,0.54434 3.36404,1.47699 3.36404,2.79793c0,1.0524 -0.38104,1.85803 -1.14312,2.41689c-0.75482,0.5516 -1.81085,0.8274 -3.16808,0.8274c-1.379,0 -2.41689,-0.28306 -3.11365,-0.84918c-0.69676,-0.57338 -1.04514,-1.17578 -1.04514,-1.80722c0,-0.2758 0.09435,-0.50805 0.28306,-0.69676c0.19596,-0.19596 0.43547,-0.29395 0.71853,-0.29395c0.38467,0 0.72216,0.24314 1.01248,0.72942c0.32661,0.52983 0.68587,0.88184 1.0778,1.05603c0.39919,0.16693 0.82014,0.2504 1.26288,0.2504c0.5008,0 0.90361,-0.10887 1.20844,-0.32661c0.31209,-0.21774 0.46814,-0.49717 0.46814,-0.83829c0,-0.31209 -0.13064,-0.58063 -0.39193,-0.80563c-0.26128,-0.225 -0.97982,-0.47176 -2.1556,-0.74031c-1.17578,-0.26854 -2.03222,-0.64595 -2.5693,-1.13223c-0.53709,-0.48628 -0.80563,-1.06691 -0.80563,-1.7419c0,-0.75482 0.32661,-1.42255 0.97982,-2.00318c0.65321,-0.58063 1.63666,-0.87095 2.95034,-0.87095c1.20481,0 2.16286,0.24677 2.87413,0.74031c0.71853,0.48628 1.0778,0.99433 1.0778,1.52416c0,0.2758 -0.09072,0.50805 -0.27217,0.69676c-0.18145,0.18871 -0.43547,0.28306 -0.76208,0.28306c-0.47176,0 -0.89998,-0.27217 -1.28465,-0.81652c-0.38467,-0.5516 -0.9653,-0.8274 -1.7419,-0.8274c-0.4137,0 -0.7766,0.08347 -1.08869,0.2504c-0.31209,0.16693 -0.46814,0.41007 -0.46814,0.72942z" fill="#ffffff" stroke="none" stroke-width="1" stroke-linecap="square"/><path d="M167.92793,210.4695v-60.93899h144.14414v60.93899z" fill="none" stroke="none" stroke-width="none" stroke-linecap="butt"/></g></g></svg>