<svg version="1.1" xmlns="http://www.w3.org/2000/svg" xmlns:xlink="http://www.w3.org/1999/xlink" width="189.09883" height="15.36037" viewBox="0,0,189.09883,15.36037"><g transform="translate(-97.93613,-18.58019)"><g data-paper-data="{&quot;isPaintingLayer&quot;:true}" fill="#ffffff" fill-rule="nonzero" stroke="none" stroke-width="1" stroke-linecap="square" stroke-linejoin="miter" stroke-miterlimit="10" stroke-dasharray="" stroke-dashoffset="0" style="mix-blend-mode: normal"><path d="M103.83967,20.62268v10.00242h-2.29426v-10.00242h-3.60927v-1.87458h9.56874v1.87458zM116.95495,27.01583c-0.09327,0.45699 -0.22849,0.88133 -0.40569,1.27304c-0.18652,0.39171 -0.41501,0.75076 -0.68548,1.07719c-0.27047,0.32642 -0.57823,0.60155 -0.9233,0.82537c-0.31709,0.18652 -0.66683,0.33108 -1.0492,0.43367c-0.37305,0.11192 -0.77875,0.16787 -1.21708,0.16787c-0.45699,0 -0.88133,-0.06063 -1.27304,-0.18187c-0.39171,-0.12124 -0.75076,-0.28912 -1.07719,-0.50361c-0.30776,-0.23316 -0.58756,-0.50828 -0.83936,-0.82537c-0.25181,-0.32642 -0.46165,-0.6948 -0.62952,-1.10516c-0.14922,-0.37305 -0.2658,-0.77875 -0.34973,-1.21708c-0.07461,-0.44766 -0.11192,-0.91397 -0.11192,-1.39894v-1.73468c0,-0.52227 0.04197,-1.01656 0.12591,-1.48288c0.09327,-0.46631 0.22849,-0.89532 0.40569,-1.28703c0.16787,-0.38237 0.36839,-0.72279 0.60155,-1.02123c0.24248,-0.30776 0.52227,-0.56891 0.83936,-0.7834c0.31709,-0.21451 0.66683,-0.37771 1.0492,-0.48963c0.38237,-0.12124 0.80206,-0.18187 1.25904,-0.18187c0.45699,0 0.88133,0.06063 1.27304,0.18187c0.40103,0.12124 0.76475,0.28912 1.09117,0.50361c0.31709,0.20517 0.59688,0.45699 0.83936,0.75543c0.24248,0.28912 0.45232,0.61087 0.62952,0.96527c0.18652,0.40103 0.33108,0.84403 0.43367,1.32899c0.10259,0.47564 0.15388,0.97926 0.15388,1.51085v1.73468c0,0.51295 -0.04663,0.99791 -0.13989,1.4549zM114.71665,22.9589c-0.02797,-0.27979 -0.07461,-0.53626 -0.13989,-0.76941c-0.08393,-0.29844 -0.19585,-0.55957 -0.33575,-0.7834c-0.13057,-0.23316 -0.28912,-0.42435 -0.47564,-0.57356c-0.13989,-0.11192 -0.30311,-0.19585 -0.48963,-0.25181c-0.1772,-0.06528 -0.37771,-0.09792 -0.60155,-0.09792c-0.21451,0 -0.41036,0.02797 -0.58756,0.08393c-0.16787,0.05596 -0.31709,0.13523 -0.44766,0.23782c-0.18652,0.14922 -0.34507,0.34041 -0.47564,0.57356c-0.13057,0.22383 -0.22849,0.48963 -0.29377,0.7974c-0.05596,0.23316 -0.09792,0.48963 -0.12591,0.76941c-0.01865,0.27979 -0.02797,0.56891 -0.02797,0.86735v1.74867c0,0.28912 0.00932,0.56891 0.02797,0.83936c0.01865,0.26113 0.05596,0.50361 0.11192,0.72745c0.06528,0.28912 0.15388,0.55491 0.2658,0.7974c0.12124,0.23316 0.26113,0.42435 0.41968,0.57356c0.13989,0.13057 0.30311,0.23316 0.48963,0.30776c0.19585,0.06528 0.41036,0.09792 0.64351,0.09792c0.23316,0 0.443,-0.03264 0.62952,-0.09792c0.19585,-0.06528 0.36372,-0.15855 0.50361,-0.27979c0.18652,-0.15855 0.34507,-0.34973 0.47564,-0.57356c0.13057,-0.23316 0.23316,-0.49896 0.30776,-0.7974c0.05596,-0.22383 0.09792,-0.47097 0.12591,-0.74144c0.03731,-0.27979 0.05596,-0.56424 0.05596,-0.85335v-1.74867c0,-0.29844 -0.01865,-0.58289 -0.05596,-0.85335zM126.97859,27.01583c-0.09327,0.45699 -0.22849,0.88133 -0.40569,1.27304c-0.18652,0.39171 -0.41501,0.75076 -0.68548,1.07719c-0.27047,0.32642 -0.57823,0.60155 -0.9233,0.82537c-0.31709,0.18652 -0.66683,0.33108 -1.0492,0.43367c-0.37305,0.11192 -0.77875,0.16787 -1.21708,0.16787c-0.45699,0 -0.88133,-0.06063 -1.27304,-0.18187c-0.39171,-0.12124 -0.75076,-0.28912 -1.07719,-0.50361c-0.30776,-0.23316 -0.58756,-0.50828 -0.83936,-0.82537c-0.25181,-0.32642 -0.46165,-0.6948 -0.62952,-1.10516c-0.14922,-0.37305 -0.2658,-0.77875 -0.34973,-1.21708c-0.07461,-0.44766 -0.11192,-0.91397 -0.11192,-1.39894v-1.73468c0,-0.52227 0.04197,-1.01656 0.12591,-1.48288c0.09327,-0.46631 0.22849,-0.89532 0.40569,-1.28703c0.16787,-0.38237 0.36839,-0.72279 0.60155,-1.02123c0.24248,-0.30776 0.52227,-0.56891 0.83936,-0.7834c0.31709,-0.21451 0.66683,-0.37771 1.0492,-0.48963c0.38237,-0.12124 0.80206,-0.18187 1.25904,-0.18187c0.45699,0 0.88133,0.06063 1.27304,0.18187c0.40103,0.12124 0.76475,0.28912 1.09117,0.50361c0.31709,0.20517 0.59688,0.45699 0.83936,0.75543c0.24248,0.28912 0.45232,0.61087 0.62952,0.96527c0.18652,0.40103 0.33108,0.84403 0.43367,1.32899c0.10259,0.47564 0.15388,0.97926 0.15388,1.51085v1.73468c0,0.51295 -0.04663,0.99791 -0.13989,1.4549zM124.7403,22.9589c-0.02797,-0.27979 -0.07461,-0.53626 -0.13989,-0.76941c-0.08393,-0.29844 -0.19585,-0.55957 -0.33575,-0.7834c-0.13057,-0.23316 -0.28912,-0.42435 -0.47564,-0.57356c-0.13989,-0.11192 -0.30311,-0.19585 -0.48963,-0.25181c-0.1772,-0.06528 -0.37771,-0.09792 -0.60155,-0.09792c-0.21451,0 -0.41036,0.02797 -0.58756,0.08393c-0.16787,0.05596 -0.31709,0.13523 -0.44766,0.23782c-0.18652,0.14922 -0.34507,0.34041 -0.47564,0.57356c-0.13057,0.22383 -0.22849,0.48963 -0.29377,0.7974c-0.05596,0.23316 -0.09792,0.48963 -0.12591,0.76941c-0.01865,0.27979 -0.02797,0.56891 -0.02797,0.86735v1.74867c0,0.28912 0.00932,0.56891 0.02797,0.83936c0.01865,0.26113 0.05596,0.50361 0.11192,0.72745c0.06528,0.28912 0.15388,0.55491 0.2658,0.7974c0.12124,0.23316 0.26113,0.42435 0.41968,0.57356c0.13989,0.13057 0.30311,0.23316 0.48963,0.30776c0.19585,0.06528 0.41036,0.09792 0.64351,0.09792c0.23316,0 0.443,-0.03264 0.62952,-0.09792c0.19585,-0.06528 0.36372,-0.15855 0.50361,-0.27979c0.18652,-0.15855 0.34507,-0.34973 0.47564,-0.57356c0.13057,-0.23316 0.23316,-0.49896 0.30776,-0.7974c0.05596,-0.22383 0.09792,-0.47097 0.12591,-0.74144c0.03731,-0.27979 0.05596,-0.56424 0.05596,-0.85335v-1.74867c0,-0.29844 -0.01865,-0.58289 -0.05596,-0.85335zM141.31819,25.70083v4.92427h-2.29426v-11.877h8.02991v1.87458h-5.73565v3.23155h5.09214v1.8466zM151.17394,28.14897l-0.69947,2.47612h-2.42016l3.88906,-11.877h2.08442l3.81911,11.877h-2.42016l-0.68548,-2.47612zM154.19565,26.19045l-1.21708,-4.3647l-1.24505,4.3647zM164.97472,26.93189c-0.07461,-0.18652 -0.19585,-0.35907 -0.36372,-0.51761c-0.18652,-0.15855 -0.42435,-0.30311 -0.71346,-0.43367c-0.27979,-0.13989 -0.62952,-0.2658 -1.0492,-0.37771c-0.66216,-0.1772 -1.24039,-0.39171 -1.73468,-0.64351c-0.49429,-0.26113 -0.89999,-0.54559 -1.21708,-0.85335c-0.31709,-0.29844 -0.55491,-0.63419 -0.71346,-1.00724c-0.15855,-0.37305 -0.23782,-0.77408 -0.23782,-1.20309c0,-0.50361 0.10259,-0.95595 0.30776,-1.35697c0.21451,-0.41036 0.50828,-0.76009 0.88133,-1.0492c0.37305,-0.28912 0.81605,-0.51295 1.32899,-0.67149c0.51295,-0.15855 1.06785,-0.23782 1.66474,-0.23782c0.62486,0 1.19376,0.09327 1.70671,0.27979c0.51295,0.1772 0.95595,0.42435 1.32899,0.74144c0.36372,0.32642 0.64817,0.71346 0.85335,1.16112c0.20517,0.44766 0.30776,0.93729 0.30776,1.46888h-2.22431c-0.00932,-0.26113 -0.06063,-0.50361 -0.15388,-0.72745c-0.08393,-0.22383 -0.20517,-0.41968 -0.36372,-0.58756c-0.16787,-0.15855 -0.37771,-0.27979 -0.62952,-0.36372c-0.24248,-0.09327 -0.5316,-0.13989 -0.86735,-0.13989c-0.29844,0 -0.56891,0.03731 -0.81139,0.11192c-0.23316,0.07461 -0.43367,0.1772 -0.60155,0.30776c-0.15855,0.13057 -0.27979,0.28912 -0.36372,0.47564c-0.08393,0.1772 -0.12591,0.37305 -0.12591,0.58756c0,0.22383 0.05596,0.42901 0.16787,0.61553c0.11192,0.1772 0.27512,0.33575 0.48963,0.47564c0.20517,0.13989 0.45699,0.27047 0.75543,0.39171c0.30776,0.12124 0.65284,0.23316 1.03521,0.33575c0.40103,0.11192 0.78807,0.25181 1.16112,0.41968c0.37305,0.15855 0.71346,0.34507 1.02123,0.55957c0.46631,0.34507 0.83936,0.75076 1.11915,1.21708c0.27979,0.46631 0.41968,0.99791 0.41968,1.59479c0,0.52227 -0.10725,0.98859 -0.32176,1.39894c-0.20517,0.40103 -0.49429,0.74144 -0.86735,1.02123c-0.37305,0.27979 -0.81605,0.49429 -1.32899,0.64351c-0.50361,0.13989 -1.05853,0.20984 -1.66474,0.20984c-0.58756,0 -1.17511,-0.0886 -1.76267,-0.2658c-0.57823,-0.1772 -1.08184,-0.43833 -1.51085,-0.7834c-0.40103,-0.33575 -0.72279,-0.73211 -0.96527,-1.1891c-0.23316,-0.45699 -0.34973,-0.99324 -0.34973,-1.60878h2.25229c0.00932,0.36372 0.06995,0.67616 0.18187,0.93729c0.11192,0.25181 0.27512,0.45699 0.48963,0.61553c0.19585,0.16787 0.43367,0.28912 0.71346,0.36372c0.28912,0.07461 0.60621,0.11192 0.95128,0.11192c0.30776,0 0.57823,-0.03264 0.81139,-0.09792c0.23316,-0.07461 0.43367,-0.1772 0.60155,-0.30776c0.15855,-0.12124 0.27979,-0.27047 0.36372,-0.44766c0.09327,-0.1772 0.13989,-0.37305 0.13989,-0.58756c0,-0.20517 -0.03731,-0.40103 -0.11192,-0.58756zM174.00509,20.62268v10.00242h-2.29426v-10.00242h-3.60927v-1.87458h9.56874v1.87458zM183.23134,32.33179c-0.30776,0.63419 -0.70413,1.17044 -1.1891,1.60878l-1.20309,-0.62952c0.20517,-0.39171 0.37771,-0.80206 0.51761,-1.23107c0.13989,-0.41968 0.20984,-0.92796 0.20984,-1.52484v-1.91655h2.14038l-0.01399,1.80463c0,0.62486 -0.15388,1.25439 -0.46165,1.88857zM204.07599,20.62268v10.00242h-2.29426v-10.00242h-3.60927v-1.87458h9.56874v1.87458zM211.32975,26.19045v4.43464h-2.29426v-11.877h3.98698c0.65284,0 1.24505,0.07927 1.77665,0.23782c0.54092,0.14922 1.00257,0.37305 1.38495,0.67149c0.37305,0.30776 0.65751,0.68548 0.85335,1.13314c0.20517,0.43833 0.30776,0.95128 0.30776,1.53883c0,0.42901 -0.05129,0.81139 -0.15388,1.14713c-0.09327,0.33575 -0.23316,0.63885 -0.41968,0.90931c-0.18652,0.27047 -0.41501,0.50828 -0.68548,0.71346c-0.26113,0.19585 -0.55491,0.36839 -0.88133,0.51761l2.56006,4.89629v0.11192h-2.46213l-2.23831,-4.43464zM213.02247,24.32987c0.3544,0 0.66683,-0.05129 0.93729,-0.15388c0.27047,-0.10259 0.48963,-0.24715 0.65751,-0.43367c0.13989,-0.14922 0.24715,-0.33108 0.32176,-0.54559c0.07461,-0.21451 0.11192,-0.45232 0.11192,-0.71346c0,-0.31709 -0.04663,-0.59688 -0.13989,-0.83936c-0.09327,-0.24248 -0.23782,-0.43833 -0.43367,-0.58756c-0.16787,-0.14922 -0.37305,-0.26113 -0.61553,-0.33575c-0.24248,-0.07461 -0.52227,-0.11192 -0.83936,-0.11192h-1.69272v3.72118zM225.45225,18.7481h2.53208l-3.73516,7.76411l-0.01399,4.11288h-2.28027l-0.01399,-4.2108l-3.67922,-7.66619h2.51809l2.33623,5.46986zM241.38665,28.14897l-0.69947,2.47612h-2.42016l3.88906,-11.877h2.08442l3.81911,11.877h-2.42016l-0.68548,-2.47612zM244.40835,26.19045l-1.21708,-4.3647l-1.24505,4.3647zM256.68429,29.78573c-0.25181,0.18652 -0.55025,0.3544 -0.89532,0.50361c-0.3544,0.14922 -0.75076,0.27047 -1.1891,0.36372c-0.42901,0.09327 -0.89532,0.13989 -1.39894,0.13989c-0.42901,0 -0.83936,-0.05129 -1.23107,-0.15388c-0.38237,-0.10259 -0.73211,-0.24715 -1.0492,-0.43367c-0.31709,-0.19585 -0.60621,-0.43367 -0.86735,-0.71346c-0.25181,-0.28912 -0.46631,-0.61553 -0.64351,-0.97926c-0.21451,-0.40103 -0.37305,-0.85335 -0.47564,-1.35697c-0.10259,-0.51295 -0.15388,-1.06319 -0.15388,-1.65075v-1.62277c0,-0.55957 0.05129,-1.08184 0.15388,-1.56681c0.10259,-0.49429 0.24715,-0.93729 0.43367,-1.32899c0.18652,-0.3544 0.39636,-0.67149 0.62952,-0.95128c0.23316,-0.28912 0.49429,-0.53626 0.7834,-0.74144c0.32642,-0.23316 0.68548,-0.41036 1.07719,-0.5316c0.39171,-0.12124 0.80672,-0.18187 1.24505,-0.18187c0.66216,0 1.24039,0.0886 1.73468,0.2658c0.50361,0.16787 0.92796,0.40569 1.27304,0.71346c0.34507,0.32642 0.61087,0.71812 0.7974,1.17511c0.19585,0.45699 0.32176,0.96993 0.37771,1.53883h-2.22431c-0.03731,-0.28912 -0.09792,-0.54559 -0.18187,-0.76941c-0.07461,-0.22383 -0.18187,-0.41036 -0.32176,-0.55957c-0.14922,-0.16787 -0.34041,-0.29377 -0.57356,-0.37771c-0.23316,-0.08393 -0.50828,-0.12591 -0.82537,-0.12591c-0.1772,0 -0.34973,0.02797 -0.51761,0.08393c-0.15855,0.04663 -0.30776,0.12591 -0.44766,0.23782c-0.18652,0.13989 -0.3544,0.32642 -0.50361,0.55957c-0.14922,0.22383 -0.27047,0.48963 -0.36372,0.7974c-0.08393,0.24248 -0.14456,0.51295 -0.18187,0.81139c-0.03731,0.28912 -0.05596,0.60155 -0.05596,0.93729v1.63676c0,0.42901 0.02797,0.82071 0.08393,1.17511c0.05596,0.3544 0.13523,0.66683 0.23782,0.93729c0.06528,0.15855 0.13989,0.30311 0.22383,0.43367c0.08393,0.13057 0.1772,0.24715 0.27979,0.34973c0.1772,0.1772 0.37771,0.31243 0.60155,0.40569c0.23316,0.08393 0.49896,0.13057 0.7974,0.13989c0.1772,0 0.34973,-0.01399 0.51761,-0.04197c0.1772,-0.02797 0.34507,-0.06528 0.50361,-0.11192c0.14922,-0.04663 0.27979,-0.10259 0.39171,-0.16787c0.12124,-0.06528 0.21451,-0.13057 0.27979,-0.19585v-2.15436h-1.95852v-1.7207h4.23879l0.01399,4.68644c-0.14922,0.1772 -0.3544,0.35907 -0.61553,0.54559zM261.43392,28.14897l-0.69947,2.47612h-2.42016l3.88906,-11.877h2.08442l3.81911,11.877h-2.42016l-0.68548,-2.47612zM264.45563,26.19045l-1.21708,-4.3647l-1.24505,4.3647zM276.54965,18.7481v1.8466h-2.30823v8.18379h2.30823v1.8466h-6.85478v-1.8466h2.25229v-8.18379h-2.25229v-1.8466zM284.75469,30.6251l-3.3015,-7.65219v7.65219h-2.30825v-11.877h2.30825l3.27352,7.62422l0.01399,-7.62422h2.29426v11.877z"/></g></g></svg>