<svg version="1.1" xmlns="http://www.w3.org/2000/svg" xmlns:xlink="http://www.w3.org/1999/xlink" width="144.14414" height="60.93899" viewBox="0,0,144.14414,60.93899"><g transform="translate(-167.92793,-149.53051)"><g data-paper-data="{&quot;isPaintingLayer&quot;:true}" fill-rule="nonzero" stroke-linejoin="miter" stroke-miterlimit="10" stroke-dasharray="" stroke-dashoffset="0" style="mix-blend-mode: normal"><path d="M200.87939,175.43295v3.24429h5.1386c0.43547,0 0.74757,0.02177 0.93627,0.06532c0.1887,0.03629 0.35927,0.14516 0.51168,0.32661c0.15968,0.17419 0.23951,0.38467 0.23951,0.63144c0,0.21048 -0.09072,0.4391 -0.27217,0.68587c-0.18145,0.24677 -0.65322,0.37016 -1.4153,0.37016h-5.1386v3.81041h5.81359c0.51531,0 0.86369,0.01815 1.04514,0.05444c0.18871,0.02903 0.35201,0.13427 0.48991,0.31572c0.14516,0.18145 0.21774,0.39918 0.21774,0.65321c0,0.24677 -0.07621,0.46451 -0.22862,0.65321c-0.14516,0.18145 -0.31935,0.29395 -0.52257,0.33749c-0.20322,0.04354 -0.53709,0.06532 -1.0016,0.06532h-6.23818c-0.96531,0 -1.52416,-0.06895 -1.67657,-0.20685c-0.15241,-0.1379 -0.28669,-0.29032 -0.40282,-0.45725c-0.11613,-0.17419 -0.17419,-0.70402 -0.17419,-1.58949v-8.78571c0,-0.96531 0.06895,-1.5169 0.20685,-1.6548c0.1379,-0.1379 0.29032,-0.27218 0.45725,-0.40282c0.17419,-0.13064 0.70401,-0.19597 1.58948,-0.19597h6.02044c0.47902,0 0.81289,0.01815 1.00159,0.05444c0.1887,0.03629 0.35927,0.14515 0.51168,0.3266c0.15242,0.17419 0.22862,0.39193 0.22862,0.65322c0,0.25403 -0.07621,0.47539 -0.22862,0.6641c-0.14516,0.18145 -0.31572,0.29032 -0.51168,0.32661c-0.19597,0.03629 -0.52983,0.05444 -1.00159,0.05444zM212.87551,175.16078v9.66754c0,0.59515 -0.02903,1.0016 -0.0871,1.21933c-0.0508,0.21048 -0.1887,0.40281 -0.4137,0.577c-0.225,0.16693 -0.46813,0.2504 -0.72942,0.2504c-0.26129,0 -0.50806,-0.08347 -0.74031,-0.2504c-0.23226,-0.16693 -0.37741,-0.36289 -0.43547,-0.58789c-0.05081,-0.22499 -0.07621,-0.62781 -0.07621,-1.20845v-9.66754c0,-0.60967 0.02903,-1.01974 0.08709,-1.23022c0.05806,-0.21774 0.19597,-0.40644 0.41371,-0.56611c0.225,-0.15967 0.46813,-0.23952 0.72942,-0.23952c0.30483,0 0.56612,0.0871 0.78386,0.26129c0.21774,0.16693 0.34838,0.37016 0.39193,0.60967c0.0508,0.23226 0.07621,0.62055 0.07621,1.1649zM222.33968,182.4441h-4.85555c0.02178,0.92176 0.27218,1.61851 0.7512,2.09028c0.47902,0.4645 1.05602,0.69676 1.73101,0.69676c0.8274,0 1.60763,-0.36289 2.34068,-1.08868c0.29757,-0.30483 0.51531,-0.49354 0.65321,-0.56612c0.14516,-0.07258 0.30483,-0.10887 0.47902,-0.10887c0.22499,0 0.41733,0.07258 0.577,0.21774c0.15967,0.1379 0.23951,0.30847 0.23951,0.51168c0,0.55886 -0.38104,1.14675 -1.14312,1.76367c-0.76208,0.60967 -1.7927,0.9145 -3.09187,0.9145c-1.65481,0 -2.91043,-0.46814 -3.76686,-1.40441c-0.85643,-0.93627 -1.28465,-2.14471 -1.28465,-3.62533c0,-1.50239 0.42822,-2.71809 1.28465,-3.6471c0.85643,-0.92901 2.04674,-1.39352 3.5709,-1.39352c1.45158,0 2.57293,0.4391 3.36404,1.31731c0.79837,0.87821 1.19756,1.829 1.19756,2.85236c0,0.45725 -0.13427,0.81652 -0.40282,1.0778c-0.26128,0.26128 -0.80926,0.39193 -1.64391,0.39193zM217.48414,181.03969h4.50717c-0.02903,-0.82015 -0.25766,-1.44433 -0.68588,-1.87254c-0.42096,-0.43547 -0.94353,-0.65321 -1.56771,-0.65321c-1.31369,0 -2.06488,0.84192 -2.25358,2.52575zM234.29097,182.72716c0.30483,0 0.55523,0.11975 0.7512,0.35926c0.20322,0.23226 0.30483,0.47176 0.30483,0.71853c0,0.67498 -0.40281,1.35723 -1.20844,2.04673c-0.80563,0.68225 -1.8798,1.02337 -3.22251,1.02337c-1.62578,0 -2.85599,-0.46088 -3.69065,-1.38263c-0.8274,-0.92176 -1.2411,-2.11931 -1.2411,-3.59267c0,-1.49513 0.42821,-2.71809 1.28465,-3.66888c0.86369,-0.95078 2.09028,-1.42618 3.67976,-1.42618c1.23385,0 2.25358,0.32297 3.05921,0.96893c0.80563,0.64596 1.20844,1.28102 1.20844,1.90521c0,0.30483 -0.10887,0.55886 -0.3266,0.76208c-0.21774,0.20322 -0.47177,0.30484 -0.76209,0.30484c-0.36289,0 -0.64958,-0.15605 -0.86006,-0.46814c-0.44999,-0.6895 -0.85281,-1.12498 -1.20845,-1.30642c-0.34838,-0.18871 -0.72579,-0.28306 -1.13223,-0.28306c-0.79111,0 -1.40078,0.30483 -1.82899,0.9145c-0.42822,0.60967 -0.64233,1.36812 -0.64233,2.27536c0,0.92901 0.22499,1.68746 0.67498,2.27535c0.44999,0.58789 1.04877,0.88184 1.79633,0.88184c0.42822,0 0.82377,-0.10161 1.18667,-0.30483c0.36289,-0.20322 0.67498,-0.50805 0.93627,-0.9145c0.26855,-0.4137 0.47902,-0.69676 0.63144,-0.84918c0.15242,-0.15967 0.35564,-0.23951 0.60966,-0.23951zM237.9138,177.02244v-1.48062c0,-0.61692 0.0254,-1.03425 0.07621,-1.25199c0.05081,-0.21774 0.18144,-0.4137 0.39193,-0.5879c0.21774,-0.17419 0.47177,-0.26128 0.76208,-0.26128c0.26854,0 0.50805,0.07984 0.71853,0.23951c0.21774,0.15242 0.35927,0.34112 0.42459,0.56611c0.06532,0.22499 0.09798,0.58789 0.09798,1.08868v1.68747h0.48991c0.60241,0 1.00159,0.0762 1.19756,0.22862c0.20322,0.14516 0.30483,0.35927 0.30483,0.64233c0,0.60967 -0.50805,0.91449 -1.52416,0.91449h-0.46814v4.57249c0,0.61692 0.04355,1.03789 0.13065,1.26288c0.09436,0.22499 0.33024,0.33749 0.70765,0.33749c0.18145,0 0.38467,-0.0254 0.60967,-0.07621c0.22499,-0.05081 0.39193,-0.07621 0.50079,-0.07621c0.25403,0 0.45725,0.08347 0.60967,0.2504c0.15242,0.15967 0.22862,0.35201 0.22862,0.577c0,0.81288 -0.85643,1.21933 -2.5693,1.21933c-0.8274,0 -1.43707,-0.15242 -1.82899,-0.45725c-0.38467,-0.31209 -0.62418,-0.6895 -0.71854,-1.13224c-0.09435,-0.44274 -0.14153,-1.0161 -0.14153,-1.72012v-4.75756h-0.3266c-0.73305,0 -1.09958,-0.29757 -1.09958,-0.89272c0,-0.59515 0.38467,-0.89272 1.15401,-0.89272zM244.06413,184.82832v-6.35793c0,-1.11046 0.40645,-1.66569 1.21933,-1.66569c0.78385,0 1.18304,0.51531 1.19756,1.54593c0.51531,-1.03062 1.22659,-1.54593 2.13383,-1.54593c0.47902,0 0.97256,0.12701 1.48062,0.38104c0.51531,0.24677 0.77296,0.58789 0.77296,1.02337c0,0.30483 -0.10524,0.55523 -0.31572,0.75119c-0.20322,0.19597 -0.42459,0.29395 -0.6641,0.29395c-0.13064,0 -0.37015,-0.05081 -0.71853,-0.15242c-0.34838,-0.10887 -0.63869,-0.1633 -0.87095,-0.1633c-0.59515,0 -1.03789,0.30121 -1.3282,0.90361c-0.29031,0.59515 -0.43547,1.74915 -0.43547,3.46202v1.42618c0,0.63144 -0.0254,1.05966 -0.07621,1.28465c-0.0508,0.21774 -0.18507,0.41733 -0.40281,0.59878c-0.21774,0.17419 -0.46813,0.26128 -0.75119,0.26128c-0.2758,0 -0.52257,-0.07984 -0.74031,-0.23951c-0.21774,-0.15967 -0.35564,-0.34838 -0.4137,-0.56612c-0.05806,-0.22499 -0.0871,-0.6387 -0.0871,-1.24111zM253.46176,173.2338c0.3266,0 0.60603,0.12338 0.83829,0.37016c0.23951,0.23951 0.35926,0.51894 0.35926,0.83829c0,0.33387 -0.11975,0.62055 -0.35926,0.86006c-0.23226,0.23226 -0.51168,0.34838 -0.83829,0.34838c-0.32661,0 -0.60967,-0.11612 -0.84918,-0.34838c-0.23951,-0.23951 -0.35926,-0.5262 -0.35926,-0.86006c0,-0.3266 0.11975,-0.60967 0.35926,-0.84918c0.23951,-0.23951 0.52257,-0.35927 0.84918,-0.35927zM254.69198,178.82966v5.99866c0,0.58789 -0.02903,0.99071 -0.08709,1.20845c-0.05081,0.21774 -0.18871,0.4137 -0.4137,0.58789c-0.225,0.16693 -0.46814,0.2504 -0.72942,0.2504c-0.26128,0 -0.50805,-0.08347 -0.74031,-0.2504c-0.23226,-0.16693 -0.37741,-0.36289 -0.43547,-0.58789c-0.0508,-0.22499 -0.07621,-0.62781 -0.07621,-1.20845v-5.97689c0,-0.5516 0.02177,-0.93991 0.06532,-1.1649c0.04354,-0.23226 0.17419,-0.43547 0.39193,-0.60967c0.225,-0.18145 0.48265,-0.27217 0.77296,-0.27217c0.29757,0 0.55161,0.07984 0.76209,0.23951c0.21048,0.15967 0.34475,0.36289 0.40282,0.60967c0.05806,0.24677 0.08709,0.6387 0.08709,1.17579zM265.07065,182.72716c0.30483,0 0.55523,0.11975 0.75119,0.35926c0.20322,0.23226 0.30483,0.47176 0.30483,0.71853c0,0.67498 -0.40281,1.35723 -1.20844,2.04673c-0.80563,0.68225 -1.8798,1.02337 -3.22251,1.02337c-1.62578,0 -2.85599,-0.46088 -3.69065,-1.38263c-0.8274,-0.92176 -1.24111,-2.11931 -1.24111,-3.59267c0,-1.49513 0.42822,-2.71809 1.28465,-3.66888c0.86369,-0.95078 2.09028,-1.42618 3.67977,-1.42618c1.23384,0 2.25358,0.32297 3.05921,0.96893c0.80563,0.64596 1.20845,1.28102 1.20845,1.90521c0,0.30483 -0.10887,0.55886 -0.32661,0.76208c-0.21774,0.20322 -0.47177,0.30484 -0.76209,0.30484c-0.36289,0 -0.64958,-0.15605 -0.86006,-0.46814c-0.44999,-0.6895 -0.8528,-1.12498 -1.20844,-1.30642c-0.34838,-0.18871 -0.72579,-0.28306 -1.13224,-0.28306c-0.79111,0 -1.40078,0.30483 -1.82899,0.9145c-0.42822,0.60967 -0.64233,1.36812 -0.64233,2.27536c0,0.92901 0.22499,1.68746 0.67498,2.27535c0.44999,0.58789 1.04877,0.88184 1.79633,0.88184c0.42822,0 0.82378,-0.10161 1.18667,-0.30483c0.36289,-0.20322 0.67498,-0.50805 0.93627,-0.9145c0.26854,-0.4137 0.47902,-0.69676 0.63144,-0.84918c0.15241,-0.15967 0.35564,-0.23951 0.60967,-0.23951zM274.53973,185.48154c-1.17578,0.92901 -2.32979,1.39352 -3.46202,1.39352c-1.06691,0 -1.89068,-0.27217 -2.47132,-0.81651c-0.57337,-0.54435 -0.86006,-1.20844 -0.86006,-1.9923c0,-0.67498 0.19597,-1.21933 0.58789,-1.63303c0.39193,-0.4137 0.81652,-0.70039 1.27377,-0.86007c0.45725,-0.16693 1.20481,-0.35563 2.24269,-0.56611c1.03788,-0.21774 1.87617,-0.41733 2.51487,-0.59878c-0.00726,-0.74757 -0.15605,-1.25199 -0.44636,-1.51327c-0.29031,-0.26855 -0.73305,-0.40282 -1.3282,-0.40282c-1.12498,0 -1.85802,0.31572 -2.19914,0.94716c-0.19597,0.35564 -0.37016,0.60967 -0.52257,0.76208c-0.15241,0.15242 -0.37016,0.22863 -0.65321,0.22863c-0.26128,0 -0.49716,-0.0871 -0.70765,-0.26129c-0.21048,-0.17419 -0.31572,-0.39555 -0.31572,-0.6641c0,-0.64596 0.34838,-1.25562 1.04514,-1.829c0.69676,-0.58063 1.78908,-0.87095 3.27695,-0.87095c1.51691,0 2.62374,0.26129 3.3205,0.78386c0.70402,0.52257 1.03425,1.57859 0.99071,3.16808l-0.05444,2.32979c-0.02177,0.71853 0.05081,1.30642 0.21774,1.76367c0.17419,0.44999 0.26128,0.79475 0.26128,1.03426c0,0.26128 -0.11612,0.49354 -0.34838,0.69676c-0.225,0.19597 -0.48266,0.29395 -0.77297,0.29395c-0.5008,0 -1.03063,-0.46451 -1.58949,-1.39352zM274.37643,181.89975c-0.37016,0.1379 -0.97982,0.29395 -1.82899,0.46814c-0.84918,0.16693 -1.45158,0.35926 -1.80722,0.577c-0.34838,0.21774 -0.52257,0.53708 -0.52257,0.95804c0,0.35564 0.1379,0.67136 0.4137,0.94716c0.28306,0.26855 0.68224,0.40282 1.19755,0.40282c0.54435,0 1.04877,-0.14879 1.51328,-0.44636c0.47177,-0.30483 0.76208,-0.66047 0.87095,-1.06691c0.10887,-0.4137 0.1633,-1.027 0.1633,-1.83988zM281.79878,175.16078v9.66754c0,0.59515 -0.02903,1.0016 -0.0871,1.21933c-0.0508,0.21048 -0.18871,0.40281 -0.4137,0.577c-0.22499,0.16693 -0.46814,0.2504 -0.72942,0.2504c-0.26128,0 -0.50805,-0.08347 -0.7403,-0.2504c-0.23226,-0.16693 -0.37741,-0.36289 -0.43547,-0.58789c-0.05081,-0.22499 -0.07621,-0.62781 -0.07621,-1.20845v-9.66754c0,-0.60967 0.02903,-1.01974 0.08709,-1.23022c0.05806,-0.21774 0.19597,-0.40644 0.4137,-0.56611c0.225,-0.15967 0.46814,-0.23952 0.72942,-0.23952c0.30483,0 0.56612,0.0871 0.78386,0.26129c0.21774,0.16693 0.34838,0.37016 0.39193,0.60967c0.0508,0.23226 0.07621,0.62055 0.07621,1.1649z" fill="#ffffff" stroke="#000000" stroke-width="3.5" stroke-linecap="square"/><path d="M200.87938,175.43295v3.24429h5.1386c0.43547,0 0.74757,0.02177 0.93627,0.06532c0.18871,0.03629 0.35927,0.14516 0.51168,0.32661c0.15967,0.17419 0.23951,0.38467 0.23951,0.63144c0,0.21048 -0.09072,0.4391 -0.27217,0.68587c-0.18145,0.24677 -0.65321,0.37015 -1.41529,0.37015h-5.1386v3.81041h5.81359c0.51531,0 0.86369,0.01814 1.04514,0.05443c0.18871,0.02903 0.35201,0.13427 0.48991,0.31572c0.14516,0.18145 0.21774,0.39919 0.21774,0.65321c0,0.24677 -0.07621,0.46451 -0.22862,0.65321c-0.14516,0.18145 -0.31935,0.29395 -0.52257,0.33749c-0.20322,0.04355 -0.53709,0.06532 -1.00159,0.06532h-6.23818c-0.9653,0 -1.52416,-0.06895 -1.67658,-0.20685c-0.15242,-0.1379 -0.28669,-0.29032 -0.40281,-0.45725c-0.11613,-0.17419 -0.17419,-0.70402 -0.17419,-1.58948v-8.78571c0,-0.9653 0.06895,-1.5169 0.20685,-1.6548c0.1379,-0.1379 0.29032,-0.27217 0.45725,-0.40281c0.17419,-0.13064 0.70402,-0.19596 1.58948,-0.19596h6.02044c0.47902,0 0.81289,0.01814 1.00159,0.05443c0.18871,0.03629 0.35927,0.14516 0.51168,0.32661c0.15242,0.17419 0.22862,0.39193 0.22862,0.65321c0,0.25403 -0.07621,0.47539 -0.22862,0.6641c-0.14516,0.18145 -0.31572,0.29032 -0.51168,0.32661c-0.19596,0.03629 -0.52983,0.05443 -1.00159,0.05443zM212.8755,175.16078v9.66754c0,0.59515 -0.02903,1.00159 -0.08709,1.21933c-0.05081,0.21048 -0.18871,0.40281 -0.4137,0.577c-0.225,0.16693 -0.46814,0.2504 -0.72942,0.2504c-0.26128,0 -0.50805,-0.08347 -0.74031,-0.2504c-0.23225,-0.16693 -0.37741,-0.3629 -0.43547,-0.58789c-0.05081,-0.225 -0.07621,-0.62781 -0.07621,-1.20844v-9.66754c0,-0.60966 0.02903,-1.01974 0.08709,-1.23022c0.05806,-0.21774 0.19596,-0.40644 0.4137,-0.56612c0.225,-0.15967 0.46814,-0.23951 0.72942,-0.23951c0.30483,0 0.56612,0.08709 0.78385,0.26128c0.21774,0.16693 0.34838,0.37015 0.39193,0.60966c0.05081,0.23225 0.07621,0.62055 0.07621,1.1649zM222.33967,182.4441h-4.85555c0.02177,0.92176 0.27217,1.61852 0.75119,2.09028c0.47902,0.46451 1.05603,0.69676 1.73101,0.69676c0.8274,0 1.60763,-0.3629 2.34068,-1.08869c0.29757,-0.30483 0.51531,-0.49354 0.65321,-0.56612c0.14516,-0.07258 0.30483,-0.10887 0.47902,-0.10887c0.225,0 0.41733,0.07258 0.577,0.21774c0.15967,0.1379 0.23951,0.30846 0.23951,0.51168c0,0.55886 -0.38104,1.14675 -1.14312,1.76367c-0.76208,0.60966 -1.79271,0.9145 -3.09187,0.9145c-1.6548,0 -2.91042,-0.46814 -3.76686,-1.40441c-0.85643,-0.93627 -1.28465,-2.14471 -1.28465,-3.62533c0,-1.50239 0.42822,-2.71809 1.28465,-3.6471c0.85643,-0.92901 2.04673,-1.39352 3.57089,-1.39352c1.45158,0 2.57293,0.4391 3.36404,1.31731c0.79837,0.87821 1.19756,1.82899 1.19756,2.85236c0,0.45725 -0.13427,0.81652 -0.40281,1.0778c-0.26128,0.26128 -0.80926,0.39193 -1.64392,0.39193zM217.48413,181.03969h4.50717c-0.02903,-0.82014 -0.25766,-1.44433 -0.68587,-1.87254c-0.42096,-0.43547 -0.94353,-0.65321 -1.56771,-0.65321c-1.31368,0 -2.06488,0.84192 -2.25358,2.52575zM234.29096,182.72715c0.30483,0 0.55523,0.11976 0.75119,0.35927c0.20322,0.23225 0.30483,0.47176 0.30483,0.71853c0,0.67499 -0.40281,1.35723 -1.20844,2.04673c-0.80563,0.68224 -1.8798,1.02337 -3.22251,1.02337c-1.62577,0 -2.85599,-0.46088 -3.69065,-1.38263c-0.8274,-0.92176 -1.2411,-2.11931 -1.2411,-3.59267c0,-1.49513 0.42822,-2.71809 1.28465,-3.66888c0.86369,-0.95079 2.09028,-1.42618 3.67976,-1.42618c1.23385,0 2.25358,0.32298 3.05921,0.96893c0.80563,0.64595 1.20844,1.28102 1.20844,1.9052c0,0.30483 -0.10887,0.55886 -0.32661,0.76208c-0.21774,0.20322 -0.47176,0.30483 -0.76208,0.30483c-0.3629,0 -0.64958,-0.15605 -0.86006,-0.46814c-0.44999,-0.6895 -0.85281,-1.12498 -1.20844,-1.30642c-0.34838,-0.18871 -0.72579,-0.28306 -1.13223,-0.28306c-0.79111,0 -1.40078,0.30483 -1.82899,0.9145c-0.42822,0.60966 -0.64233,1.36812 -0.64233,2.27536c0,0.92901 0.225,1.68747 0.67499,2.27536c0.44999,0.58789 1.04877,0.88184 1.79633,0.88184c0.42822,0 0.82377,-0.10161 1.18667,-0.30483c0.3629,-0.20322 0.67499,-0.50805 0.93627,-0.9145c0.26854,-0.4137 0.47902,-0.69676 0.63144,-0.84918c0.15242,-0.15967 0.35564,-0.23951 0.60966,-0.23951zM237.91379,177.02243v-1.48061c0,-0.61692 0.0254,-1.03425 0.07621,-1.25199c0.05081,-0.21774 0.18145,-0.4137 0.39193,-0.58789c0.21774,-0.17419 0.47176,-0.26128 0.76208,-0.26128c0.26854,0 0.50805,0.07984 0.71853,0.23951c0.21774,0.15242 0.35927,0.34112 0.42459,0.56612c0.06532,0.225 0.09798,0.58789 0.09798,1.08869v1.68747h0.48991c0.60241,0 1.00159,0.07621 1.19756,0.22862c0.20322,0.14516 0.30483,0.35927 0.30483,0.64233c0,0.60966 -0.50805,0.9145 -1.52416,0.9145h-0.46814v4.57249c0,0.61692 0.04355,1.03788 0.13064,1.26288c0.09435,0.225 0.33024,0.33749 0.70765,0.33749c0.18145,0 0.38467,-0.0254 0.60966,-0.07621c0.225,-0.05081 0.39193,-0.07621 0.5008,-0.07621c0.25403,0 0.45725,0.08347 0.60966,0.2504c0.15242,0.15967 0.22862,0.35201 0.22862,0.577c0,0.81289 -0.85643,1.21933 -2.5693,1.21933c-0.8274,0 -1.43707,-0.15242 -1.82899,-0.45725c-0.38467,-0.31209 -0.62418,-0.6895 -0.71853,-1.13223c-0.09435,-0.44273 -0.14153,-1.01611 -0.14153,-1.72013v-4.75756h-0.32661c-0.73305,0 -1.09957,-0.29757 -1.09957,-0.89272c0,-0.59515 0.38467,-0.89272 1.15401,-0.89272zM244.06412,184.82832v-6.35793c0,-1.11046 0.40644,-1.66569 1.21933,-1.66569c0.78385,0 1.18304,0.51531 1.19756,1.54594c0.51531,-1.03062 1.22659,-1.54594 2.13383,-1.54594c0.47902,0 0.97256,0.12701 1.48061,0.38104c0.51531,0.24677 0.77297,0.58789 0.77297,1.02337c0,0.30483 -0.10524,0.55523 -0.31572,0.75119c-0.20322,0.19596 -0.42459,0.29395 -0.6641,0.29395c-0.13064,0 -0.37015,-0.05081 -0.71853,-0.15242c-0.34838,-0.10887 -0.6387,-0.1633 -0.87095,-0.1633c-0.59515,0 -1.03788,0.3012 -1.3282,0.90361c-0.29032,0.59515 -0.43547,1.74916 -0.43547,3.46203v1.42618c0,0.63144 -0.0254,1.05966 -0.07621,1.28465c-0.05081,0.21774 -0.18508,0.41733 -0.40281,0.59878c-0.21774,0.17419 -0.46814,0.26128 -0.75119,0.26128c-0.2758,0 -0.52257,-0.07984 -0.74031,-0.23951c-0.21774,-0.15967 -0.35564,-0.34838 -0.4137,-0.56612c-0.05806,-0.225 -0.08709,-0.6387 -0.08709,-1.2411zM253.46176,173.2338c0.32661,0 0.60604,0.12338 0.83829,0.37015c0.23951,0.23951 0.35927,0.51894 0.35927,0.83829c0,0.33386 -0.11976,0.62055 -0.35927,0.86006c-0.23225,0.23225 -0.51168,0.34838 -0.83829,0.34838c-0.32661,0 -0.60966,-0.11613 -0.84918,-0.34838c-0.23951,-0.23951 -0.35927,-0.5262 -0.35927,-0.86006c0,-0.32661 0.11976,-0.60966 0.35927,-0.84918c0.23951,-0.23951 0.52257,-0.35927 0.84918,-0.35927zM254.69197,178.82965v5.99867c0,0.58789 -0.02903,0.99071 -0.08709,1.20844c-0.05081,0.21774 -0.18871,0.4137 -0.4137,0.58789c-0.225,0.16693 -0.46814,0.2504 -0.72942,0.2504c-0.26128,0 -0.50805,-0.08347 -0.74031,-0.2504c-0.23225,-0.16693 -0.37741,-0.3629 -0.43547,-0.58789c-0.05081,-0.225 -0.07621,-0.62781 -0.07621,-1.20844v-5.97689c0,-0.5516 0.02177,-0.9399 0.06532,-1.1649c0.04355,-0.23225 0.17419,-0.43547 0.39193,-0.60966c0.225,-0.18145 0.48265,-0.27217 0.77297,-0.27217c0.29757,0 0.5516,0.07984 0.76208,0.23951c0.21048,0.15967 0.34475,0.3629 0.40281,0.60966c0.05806,0.24677 0.08709,0.6387 0.08709,1.17578zM265.07064,182.72715c0.30483,0 0.55523,0.11976 0.75119,0.35927c0.20322,0.23225 0.30483,0.47176 0.30483,0.71853c0,0.67499 -0.40281,1.35723 -1.20844,2.04673c-0.80563,0.68224 -1.8798,1.02337 -3.22251,1.02337c-1.62577,0 -2.85599,-0.46088 -3.69065,-1.38263c-0.8274,-0.92176 -1.2411,-2.11931 -1.2411,-3.59267c0,-1.49513 0.42822,-2.71809 1.28465,-3.66888c0.86369,-0.95079 2.09028,-1.42618 3.67976,-1.42618c1.23385,0 2.25358,0.32298 3.05921,0.96893c0.80563,0.64595 1.20844,1.28102 1.20844,1.9052c0,0.30483 -0.10887,0.55886 -0.32661,0.76208c-0.21774,0.20322 -0.47176,0.30483 -0.76208,0.30483c-0.3629,0 -0.64958,-0.15605 -0.86006,-0.46814c-0.44999,-0.6895 -0.85281,-1.12498 -1.20844,-1.30642c-0.34838,-0.18871 -0.72579,-0.28306 -1.13223,-0.28306c-0.79111,0 -1.40078,0.30483 -1.82899,0.9145c-0.42822,0.60966 -0.64233,1.36812 -0.64233,2.27536c0,0.92901 0.225,1.68747 0.67499,2.27536c0.44999,0.58789 1.04877,0.88184 1.79633,0.88184c0.42822,0 0.82377,-0.10161 1.18667,-0.30483c0.3629,-0.20322 0.67499,-0.50805 0.93627,-0.9145c0.26854,-0.4137 0.47902,-0.69676 0.63144,-0.84918c0.15242,-0.15967 0.35564,-0.23951 0.60966,-0.23951zM274.53972,185.48153c-1.17578,0.92901 -2.32979,1.39352 -3.46203,1.39352c-1.06691,0 -1.89069,-0.27217 -2.47132,-0.81652c-0.57338,-0.54434 -0.86006,-1.20844 -0.86006,-1.9923c0,-0.67499 0.19596,-1.21933 0.58789,-1.63303c0.39193,-0.4137 0.81652,-0.70039 1.27376,-0.86006c0.45725,-0.16693 1.20481,-0.35564 2.2427,-0.56612c1.03788,-0.21774 1.87617,-0.41733 2.51487,-0.59878c-0.00726,-0.74757 -0.15605,-1.25199 -0.44636,-1.51328c-0.29032,-0.26854 -0.73305,-0.40281 -1.3282,-0.40281c-1.12498,0 -1.85803,0.31572 -2.19915,0.94716c-0.19596,0.35564 -0.37015,0.60966 -0.52257,0.76208c-0.15242,0.15242 -0.37015,0.22862 -0.65321,0.22862c-0.26128,0 -0.49717,-0.08709 -0.70765,-0.26128c-0.21048,-0.17419 -0.31572,-0.39556 -0.31572,-0.6641c0,-0.64595 0.34838,-1.25562 1.04514,-1.82899c0.69676,-0.58063 1.78908,-0.87095 3.27695,-0.87095c1.5169,0 2.62374,0.26128 3.3205,0.78385c0.70402,0.52257 1.03425,1.5786 0.99071,3.16808l-0.05443,2.32979c-0.02177,0.71853 0.05081,1.30642 0.21774,1.76367c0.17419,0.44999 0.26128,0.79474 0.26128,1.03425c0,0.26128 -0.11613,0.49354 -0.34838,0.69676c-0.225,0.19596 -0.48265,0.29395 -0.77297,0.29395c-0.5008,0 -1.03063,-0.46451 -1.58949,-1.39352zM274.37642,181.89975c-0.37015,0.1379 -0.97982,0.29395 -1.82899,0.46814c-0.84918,0.16693 -1.45158,0.35927 -1.80722,0.577c-0.34838,0.21774 -0.52257,0.53709 -0.52257,0.95804c0,0.35564 0.1379,0.67136 0.4137,0.94716c0.28306,0.26854 0.68224,0.40281 1.19756,0.40281c0.54434,0 1.04877,-0.14879 1.51328,-0.44636c0.47176,-0.30483 0.76208,-0.66047 0.87095,-1.06691c0.10887,-0.4137 0.1633,-1.027 0.1633,-1.83988zM281.79877,175.16078v9.66754c0,0.59515 -0.02903,1.00159 -0.08709,1.21933c-0.05081,0.21048 -0.18871,0.40281 -0.4137,0.577c-0.225,0.16693 -0.46814,0.2504 -0.72942,0.2504c-0.26128,0 -0.50805,-0.08347 -0.74031,-0.2504c-0.23225,-0.16693 -0.37741,-0.3629 -0.43547,-0.58789c-0.05081,-0.225 -0.07621,-0.62781 -0.07621,-1.20844v-9.66754c0,-0.60966 0.02903,-1.01974 0.08709,-1.23022c0.05806,-0.21774 0.19596,-0.40644 0.4137,-0.56612c0.225,-0.15967 0.46814,-0.23951 0.72942,-0.23951c0.30483,0 0.56612,0.08709 0.78385,0.26128c0.21774,0.16693 0.34838,0.37015 0.39193,0.60966c0.05081,0.23225 0.07621,0.62055 0.07621,1.1649z" fill="#ffffff" stroke="none" stroke-width="1" stroke-linecap="square"/><path d="M167.92793,210.46949v-60.93899h144.14414v60.93899z" fill="none" stroke="none" stroke-width="none" stroke-linecap="butt"/></g></g></svg>