<svg version="1.1" xmlns="http://www.w3.org/2000/svg" xmlns:xlink="http://www.w3.org/1999/xlink" width="20.51251" height="29.1763" viewBox="0,0,20.51251,29.1763"><g transform="translate(-427.9349,-240.38099)"><g data-paper-data="{&quot;isPaintingLayer&quot;:true}" fill-rule="nonzero" stroke-linecap="butt" stroke-linejoin="miter" stroke-miterlimit="10" stroke-dasharray="" stroke-dashoffset="0" style="mix-blend-mode: normal"><g><path d="M429.6849,258.43465c0,-11.97353 0.75089,-16.15287 8.58501,-16.30365c7.42682,-0.14295 8.42749,4.64517 8.42749,15.67356c0,7.09031 -4.03411,10.00273 -8.42749,10.00273c-4.39338,0 -8.58501,-2.28232 -8.58501,-9.37263z" fill="#003500" stroke="#000000" stroke-width="3.5"/><path d="M435.95447,242.28641c4.46985,-0.04569 5.0721,1.48496 5.0721,5.01049c0,2.26662 -2.42794,3.19764 -5.0721,3.19764c-2.64416,0 -5.16691,-0.7296 -5.16691,-2.99621c0,-3.82766 0.45193,-5.16371 5.16691,-5.21191z" fill="#005a00" stroke="none" stroke-width="0"/><path d="M429.6849,258.43465c0,-11.97353 0.75089,-16.15287 8.58501,-16.30365c7.42682,-0.14295 8.42749,4.64517 8.42749,15.67356c0,7.09031 -4.03411,10.00273 -8.42749,10.00273c-4.39338,0 -8.58501,-2.28232 -8.58501,-9.37263z" fill="none" stroke="#000000" stroke-width="3.5"/></g></g></g></svg>