<svg version="1.1" viewBox="0.0 0.0 960.0 720.0" fill="none" stroke="none" stroke-linecap="square" stroke-miterlimit="10" xmlns:xlink="http://www.w3.org/1999/xlink" xmlns="http://www.w3.org/2000/svg"><clipPath id="p.0"><path d="m0 0l960.0 0l0 720.0l-960.0 0l0 -720.0z" clip-rule="nonzero"/></clipPath><g clip-path="url(#p.0)"><path fill="#000000" fill-opacity="0.0" d="m0 0l960.0 0l0 720.0l-960.0 0z" fill-rule="evenodd"/><path fill="#000000" fill-opacity="0.0" d="m34.923885 266.06036l948.1575 0l0 43.62204l-948.1575 0z" fill-rule="evenodd"/><path fill="#000000" d="m493.61395 291.401l2.328125 -6.34375q0.34375 -0.9375 0.640625 -1.15625q0.296875 -0.234375 0.671875 -0.234375q0.53125 0 0.875 0.359375q0.359375 0.359375 0.359375 0.75q0 0.359375 -0.390625 1.34375l-2.578125 6.34375q-0.53125 1.359375 -0.921875 1.703125q-0.375 0.34375 -0.984375 0.34375q-0.765625 0 -1.125 -0.421875q-0.34375 -0.4375 -0.8125 -1.625l-2.546875 -6.28125q-0.40625 -0.953125 -0.40625 -1.359375q0 -0.421875 0.359375 -0.78125q0.375 -0.375 0.921875 -0.375q0.609375 0 0.84375 0.34375q0.25 0.34375 0.609375 1.3125l2.15625 6.078125zm13.966797 -1.65625l-5.234375 0q0.046875 1.484375 0.8125 2.234375q0.78125 0.75 1.875 0.75q1.328125 0 2.515625 -1.171875q0.484375 -0.484375 0.703125 -0.59375q0.234375 -0.125 0.515625 -0.125q0.359375 0 0.609375 0.234375q0.265625 0.21875 0.265625 0.546875q0 0.90625 -1.234375 1.90625q-1.21875 0.984375 -3.328125 0.984375q-2.671875 0 -4.0625 -1.515625q-1.375 -1.515625 -1.375 -3.90625q0 -2.421875 1.375 -3.921875q1.390625 -1.5 3.859375 -1.5q2.34375 0 3.625 1.421875q1.28125 1.40625 1.28125 3.0625q0 0.734375 -0.421875 1.171875q-0.421875 0.421875 -1.78125 0.421875zm-5.234375 -1.515625l4.859375 0q-0.046875 -1.328125 -0.734375 -2.03125q-0.6875 -0.703125 -1.6875 -0.703125q-2.125 0 -2.4375 2.734375zm19.08789 -0.3125l0 4.375q0 0.859375 -0.078125 1.25q-0.0625 0.375 -0.421875 0.671875q-0.34375 0.296875 -0.8125 0.296875q-0.4375 0 -0.8125 -0.265625q-0.359375 -0.265625 -0.453125 -0.671875q-0.09375 -0.421875 -0.09375 -1.28125l0 -3.828125q0 -1.609375 -0.484375 -2.15625q-0.46875 -0.5625 -1.3125 -0.5625q-0.75 0 -1.328125 0.4375q-0.578125 0.4375 -0.8125 1.109375q-0.234375 0.65625 -0.234375 2.25l0 2.75q0 0.84375 -0.0625 1.234375q-0.0625 0.375 -0.421875 0.6875q-0.359375 0.296875 -0.828125 0.296875q-0.453125 0 -0.828125 -0.265625q-0.359375 -0.28125 -0.4375 -0.671875q-0.078125 -0.40625 -0.078125 -1.28125l0 -6.5625q0 -0.890625 0.078125 -1.234375q0.09375 -0.359375 0.421875 -0.59375q0.34375 -0.234375 0.765625 -0.234375q0.390625 0 0.8125 0.3125q0.421875 0.296875 0.421875 1.484375q1.34375 -1.796875 3.4375 -1.796875q0.796875 0 1.578125 0.3125q0.78125 0.296875 1.265625 0.96875q0.5 0.671875 0.609375 1.40625q0.109375 0.734375 0.109375 1.5625zm3.1113281 -4.015625l0 -1.609375q0 -0.984375 0.078125 -1.328125q0.09375 -0.359375 0.4375 -0.640625q0.34375 -0.28125 0.8125 -0.28125q0.4375 0 0.78125 0.25q0.34375 0.25 0.453125 0.625q0.109375 0.359375 0.109375 1.171875l0 1.8125l0.515625 0q0.984375 0 1.296875 0.234375q0.328125 0.234375 0.328125 0.703125q0 0.984375 -1.640625 0.984375l-0.5 0l0 4.921875q0 1.0 0.140625 1.359375q0.140625 0.359375 0.75 0.359375q0.296875 0 0.65625 -0.078125q0.375 -0.09375 0.546875 -0.09375q0.40625 0 0.65625 0.265625q0.25 0.265625 0.25 0.640625q0 1.3125 -2.765625 1.3125q-1.34375 0 -1.96875 -0.5q-0.625 -0.5 -0.78125 -1.203125q-0.15625 -0.71875 -0.15625 -1.875l0 -5.109375l-0.34375 0q-1.1875 0 -1.1875 -0.96875q0 -0.953125 1.25 -0.953125l0.28125 0z" fill-rule="nonzero"/></g></svg>