<svg version="1.1" xmlns="http://www.w3.org/2000/svg" xmlns:xlink="http://www.w3.org/1999/xlink" width="285" height="212" viewBox="0,0,285,212"><defs><linearGradient x1="240" y1="180.00005" x2="240" y2="180.00005" gradientUnits="userSpaceOnUse" id="color-1"><stop offset="0" stop-color="#e7bc52"/><stop offset="1" stop-color="#efd85e"/></linearGradient><linearGradient x1="240" y1="180.00005" x2="240" y2="180.00005" gradientUnits="userSpaceOnUse" id="color-2"><stop offset="0" stop-color="#efd85e" stop-opacity="0"/><stop offset="1" stop-color="#efd85e" stop-opacity="0"/></linearGradient></defs><g transform="translate(-124.55469,183.0781)"><g data-paper-data="{&quot;isPaintingLayer&quot;:true}" fill-rule="nonzero" stroke-linejoin="miter" stroke-miterlimit="10" stroke-dasharray="" stroke-dashoffset="0" style="mix-blend-mode: normal"><path d="" fill="url(#color-1)" stroke="#000000" stroke-width="15" stroke-linecap="butt"/><path d="" fill="#e7bc52" stroke="none" stroke-width="0" stroke-linecap="butt"/><path d="" fill="url(#color-2)" stroke="#000000" stroke-width="15" stroke-linecap="butt"/><g fill="none" stroke="#392f0e" stroke-width="5" stroke-linecap="round"><path d=""/><path d=""/><path d=""/></g><path d="M124.55469,28.92191v-212h285v212z" fill="none" stroke="none" stroke-width="0" stroke-linecap="butt"/><path d="M165.62221,-55.51394c0,0 9.30926,-23.6275 61.75399,-26.78846c77.03331,-4.64298 95.15548,11.30687 99.05376,16.87237c0.85462,1.22012 0.68625,1.09275 0.68625,1.09275" fill="none" stroke="#000000" stroke-width="39" stroke-linecap="round"/><path d="M160.80948,-57.38555c0,0 12.29525,-26.15448 66.10663,-29.43105c79.04071,-4.81276 97.26932,11.35084 101.26919,17.11987c0.87689,1.26475 1.06993,1.50225 1.06993,1.50225" fill="none" stroke="#000000" stroke-width="25" stroke-linecap="round"/><path d="M326.58932,-63.58382c0,0 15.92996,15.94342 -81.08306,21.58502c-60.51847,3.51934 -80.03839,-12.2221 -80.03839,-12.2221" fill="none" stroke="#000000" stroke-width="34.5" stroke-linecap="round"/><path d="M326.58932,-63.58382c0,0 15.92995,15.9434 -81.08306,21.58502c-60.51848,3.51934 -80.03839,-12.2221 -80.03839,-12.2221" fill="none" stroke="#000000" stroke-width="39" stroke-linecap="round"/><path d="M326.58932,-63.58383c0,0 15.92996,15.94342 -81.08306,21.58502c-60.51847,3.51934 -80.03839,-12.22211 -80.03839,-12.22211" fill="none" stroke="#de9e1f" stroke-width="21.5" stroke-linecap="round"/><path d="M163.62221,-57.51395c0,0 2.63065,-5.33811 11.45898,-11.22121c9.34614,-6.22817 25.63832,-13.06714 53.10876,-14.82994c78.4642,-5.03514 95.25633,9.2619 99.22702,15.29749c0.8705,1.32318 0.69899,1.18505 0.69899,1.18505" fill="none" stroke="#de9e1f" stroke-width="17.5" stroke-linecap="round"/><path d="M329.70514,-65.65333c0,0 11.28895,16.17882 -69.0674,22.6162c-4.71641,0.37783 -9.75312,0.72555 -15.13148,1.03832c-60.51848,3.51934 -82.03839,-13.55544 -82.03839,-13.55544" fill="none" stroke="#fedf08" stroke-width="15" stroke-linecap="round"/><path d="M163.62221,-57.51394c0,0 9.48218,-25.62321 62.90107,-29.05115c78.4642,-5.03514 96.923,12.2619 100.89369,18.29749c0.8705,1.32318 0.69899,1.18505 0.69899,1.18505" fill="none" stroke="#fedf08" stroke-width="17" stroke-linecap="round"/><path d="M175.54766,-60.15c0,0 -1.18809,-0.16442 -0.42697,-1.27951c4.00677,-5.8702 22.46249,-23.47974 71.39737,-23.14304c75.63256,0.5204 74.5296,18.92255 74.5296,18.92255c0,0 -0.27281,1.26557 -2.95832,-0.083c-4.40563,-2.21235 -14.44045,-7.90472 -23.51459,-9.33847c-17.55707,-2.77411 -40.098,-1.07853 -46.52709,-1.07853c-2.54645,0 -17.87888,-2.05715 -24.87326,-0.62921c-8.81067,1.79875 -20.02191,3.10644 -28.17157,6.113c-12.03201,4.43883 -19.45517,10.5162 -19.45517,10.5162z" fill="#de9e1f" stroke="none" stroke-width="0" stroke-linecap="butt"/><path d="M319.71708,-65.31767c0,0 -5.97832,2.83418 -13.47221,5.67741c-9.70765,3.68315 -30.3549,6.9355 -61.98579,7.54156c-39.3568,0.7541 -68.17857,-6.99988 -68.17857,-6.99988" fill="none" stroke="#000000" stroke-width="5.5" stroke-linecap="round"/></g></g></svg>