<svg version="1.1" xmlns="http://www.w3.org/2000/svg" xmlns:xlink="http://www.w3.org/1999/xlink" width="314.684" height="317.56136" viewBox="0,0,314.684,317.56136"><g transform="translate(-53.02034,-4.12733)"><g data-paper-data="{&quot;isPaintingLayer&quot;:true}" fill-rule="nonzero" stroke-linejoin="miter" stroke-miterlimit="10" stroke-dasharray="" stroke-dashoffset="0" style="mix-blend-mode: normal"><path d="M187.25,177.01281c0,-5.96395 0,-50.37347 0,-63.22397c0,-2.22229 0.89284,-3.12217 3.12217,-3.12217c13.66078,0 63.24165,0 70.44399,0c1.72589,0 3.12217,0.54243 3.12217,3.12217c0,13.46283 0,56.81434 0,63.22397c0,1.61139 -0.83984,2.34163 -2.34163,2.34163c-11.97563,0 -66.04376,0 -72.00508,0c-1.32579,0 -2.34163,-1.02744 -2.34163,-2.34163z" fill="#799191" stroke="none" stroke-width="0" stroke-linecap="butt"/><path d="M53.02034,321.68869v-317.56136h314.684v317.56136z" fill="none" stroke="none" stroke-width="0" stroke-linecap="butt"/><path d="M188.33216,121.96374h3.31731" fill="none" stroke="#192727" stroke-width="5" stroke-linecap="round"/><path d="M191.84758,171.88678h-3.31731" fill="none" stroke="#1d2d2d" stroke-width="5" stroke-linecap="round"/><g stroke-width="2"><path d="M252.54837,151.87057c0,-3.16978 0,-10.93883 0,-12.8224c0,-0.85696 0.58897,-1.07595 1.30688,-1.07595c0.68859,0 1.49581,0 2.01575,0c2.82595,0 2.8187,2.07325 2.8187,3.62363c0,1.87776 0,6.08427 0,8.9029c0,2.69451 -1.32098,2.72774 -2.14678,2.72774c-0.66218,0 -1.92618,0 -2.85564,0c-0.65168,0 -1.13891,0.15511 -1.13891,-1.35591z" fill="#3a3a3a" stroke="#202020" stroke-linecap="butt"/><path d="M253.40731,138.93618c0,0 1.61385,0.01012 1.90196,0.01678c0.4236,0.00979 1.5696,-0.0076 1.5696,1.94655c0,1.62632 0,7.16353 0,7.16353" fill="none" stroke="#202020" stroke-linecap="round"/><path d="M254.79874,138.81579c0,0 0.438,0.01069 0.72611,0.01771c0.4236,0.01033 1.5696,-0.00802 1.5696,2.05403c0,0.71816 0,2.15902 0,3.59195c0,1.99122 0,3.96711 0,3.96711" fill="none" stroke="#2b2b2b" stroke-linecap="round"/></g><path d="M210.38013,141.52729c2.16676,-3.73898 12.60645,-21.75378 13.82433,-23.85538c0.2278,-0.39308 0.58147,-0.37531 0.82221,0.03762c1.23971,2.12631 11.5059,19.73435 13.8198,23.70305c0.29618,0.50798 -0.01056,0.7925 -0.60741,0.7925c-2.70449,0 -22.59895,0 -27.27134,0c-0.62741,0 -0.84017,-0.24187 -0.58758,-0.67778z" fill="#cfaf20" stroke="#2a1c00" stroke-width="2" stroke-linecap="butt"/><path d="M221.99688,140.51175l2.30709,-5.52182l-5.49611,0.1338l7.43813,-9.48381l-2.0579,6.69459l5.85174,-0.0933z" fill="#242000" stroke="none" stroke-width="0" stroke-linecap="butt"/><path d="M187.25,177.01281c0,-5.96395 0,-50.37347 0,-63.22397c0,-2.22229 0.89284,-3.12217 3.12217,-3.12217c13.66078,0 63.24165,0 70.44399,0c1.72589,0 3.12217,0.54243 3.12217,3.12217c0,13.46283 0,56.81434 0,63.22397c0,1.61139 -0.83984,2.34163 -2.34163,2.34163c-11.97563,0 -66.04376,0 -72.00508,0c-1.32579,0 -2.34163,-1.02744 -2.34163,-2.34163z" fill="none" stroke="#000000" stroke-width="3" stroke-linecap="butt"/></g></g></svg>