<svg version="1.1" xmlns="http://www.w3.org/2000/svg" xmlns:xlink="http://www.w3.org/1999/xlink" width="706.21021" height="368" viewBox="0,0,706.21021,368"><g transform="translate(23.10511,4)"><g data-paper-data="{&quot;isPaintingLayer&quot;:true}" fill-rule="nonzero" stroke-linejoin="miter" stroke-miterlimit="10" stroke-dasharray="" stroke-dashoffset="0" style="mix-blend-mode: normal"><path d="M-22.1051,363v-366h704.21021v366z" fill="#000000" stroke="#000000" stroke-width="2" stroke-linecap="butt"/><path d="M211.51684,149.42051v4.68907h5.54072c0.64792,0 1.09546,0.0334 1.34261,0.1002c0.25383,0.06678 0.47759,0.23045 0.6713,0.49095c0.19371,0.25383 0.29056,0.52435 0.29056,0.81158c0,0.38741 -0.14361,0.73141 -0.43083,1.032c-0.28054,0.2939 -0.90508,0.44085 -1.87362,0.44085h-5.54072v5.15998c0,0.74811 -0.03006,1.30252 -0.09018,1.66321c-0.05344,0.36071 -0.21708,0.688 -0.49095,0.9819c-0.26717,0.28722 -0.69134,0.43084 -1.27246,0.43084c-0.56776,0 -0.98857,-0.14361 -1.26244,-0.43083c-0.26717,-0.28722 -0.43083,-0.6212 -0.49095,-1.00194c-0.05344,-0.38741 -0.08015,-0.93515 -0.08015,-1.64318v-12.47413c0,-1.33592 0.09351,-2.10073 0.28054,-2.29444c0.19371,-0.19371 0.40746,-0.38074 0.64124,-0.56109c0.23379,-0.18034 0.95519,-0.27052 2.16419,-0.27052h7.31416c0.65461,0 1.11215,0.02671 1.37266,0.08015c0.26717,0.04675 0.50432,0.19705 0.71138,0.45087c0.20707,0.24714 0.31061,0.54772 0.31061,0.90174c0,0.34734 -0.10354,0.65126 -0.3106,0.91177c-0.20039,0.25383 -0.43418,0.40746 -0.70136,0.46089c-0.26717,0.04675 -0.72808,0.07014 -1.38267,0.07014zM231.7986,163.29736c-1.62982,1.28248 -3.22624,1.92372 -4.78927,1.92372c-1.47619,0 -2.61172,-0.37407 -3.40659,-1.12218c-0.78819,-0.75481 -1.18229,-1.67324 -1.18229,-2.75532c0,-0.92846 0.26717,-1.67658 0.80156,-2.24434c0.54104,-0.57444 1.12885,-0.97523 1.76341,-1.20232c0.63455,-0.2271 1.66656,-0.4876 3.096,-0.78151c1.43611,-0.30059 2.59169,-0.57444 3.4667,-0.82159c-0.00667,-1.03534 -0.2104,-1.73335 -0.61118,-2.09405c-0.40077,-0.36737 -1.01195,-0.55106 -1.83355,-0.55106c-1.54967,0 -2.56497,0.43418 -3.0459,1.30252c-0.26718,0.4943 -0.50432,0.84497 -0.71137,1.05204c-0.20707,0.20707 -0.50765,0.31061 -0.90174,0.31061c-0.36071,0 -0.688,-0.11689 -0.9819,-0.35067c-0.28722,-0.24046 -0.43083,-0.54772 -0.43083,-0.92178c0,-0.88839 0.47759,-1.73001 1.43277,-2.52489c0.96186,-0.79487 2.47479,-1.1923 4.53879,-1.1923c2.09072,0 3.62034,0.36071 4.58888,1.0821c0.96854,0.72139 1.42275,2.18089 1.36264,4.37847l-0.08015,3.20621c-0.0334,0.98857 0.07014,1.79682 0.31061,2.42469c0.24046,0.62788 0.36071,1.10881 0.36071,1.44279c0,0.36071 -0.16031,0.67798 -0.48093,0.95184c-0.31393,0.27387 -0.67129,0.4108 -1.07208,0.4108c-0.69467,0 -1.4261,-0.64124 -2.19424,-1.92372zM231.56814,158.34779c-0.50765,0.20039 -1.34928,0.41748 -2.52489,0.65126c-1.16894,0.23379 -1.9972,0.50097 -2.4848,0.80156c-0.48761,0.30059 -0.73141,0.73809 -0.73141,1.31255c0,0.4943 0.1937,0.92846 0.58113,1.30252c0.38742,0.37407 0.93514,0.56109 1.64318,0.56109c0.75479,0 1.45282,-0.20373 2.09406,-0.61118c0.64792,-0.41414 1.04536,-0.90508 1.19231,-1.47285c0.15362,-0.56776 0.23045,-1.41608 0.23045,-2.54493zM240.12722,146.38463c0.44085,0 0.82493,0.16698 1.15223,0.50097c0.3273,0.33398 0.49095,0.72139 0.49095,1.16224c0,0.46089 -0.16365,0.85833 -0.49095,1.19231c-0.3273,0.32729 -0.71137,0.49095 -1.15222,0.49095c-0.46089,0 -0.85833,-0.16365 -1.1923,-0.49095c-0.3273,-0.33398 -0.49095,-0.73141 -0.49095,-1.1923c0,-0.44754 0.16365,-0.83495 0.49095,-1.16224c0.33398,-0.33398 0.73141,-0.50097 1.19231,-0.50097zM241.82048,154.10958v8.28604c0,0.81492 -0.04008,1.37266 -0.12023,1.67324c-0.07347,0.30059 -0.26385,0.56776 -0.5711,0.80156c-0.30726,0.23379 -0.64124,0.35068 -1.00194,0.35068c-0.36738,0 -0.71137,-0.11356 -1.032,-0.34066c-0.31393,-0.23379 -0.51098,-0.50432 -0.59115,-0.81157c-0.07347,-0.30726 -0.11021,-0.865 -0.11021,-1.67324v-8.25598c0,-0.76147 0.03007,-1.29918 0.09019,-1.61313c0.06012,-0.31394 0.24046,-0.59115 0.54105,-0.83161c0.30726,-0.24714 0.66128,-0.37072 1.06205,-0.37072c0.40746,0 0.75813,0.11022 1.05204,0.33065c0.2939,0.22043 0.48093,0.50097 0.56109,0.84163c0.08015,0.33398 0.12023,0.87169 0.12023,1.61313zM248.77144,149.04979v13.34583c0,0.82159 -0.04008,1.38267 -0.12023,1.68326c-0.07348,0.2939 -0.26385,0.55775 -0.5711,0.79154c-0.30726,0.23379 -0.64124,0.35068 -1.00194,0.35068c-0.36737,0 -0.71137,-0.11356 -1.032,-0.34066c-0.31394,-0.23379 -0.51098,-0.50432 -0.59115,-0.81157c-0.07348,-0.30726 -0.11021,-0.865 -0.11021,-1.67324v-13.34583c0,-0.84163 0.04008,-1.40939 0.12023,-1.70329c0.08015,-0.30059 0.27053,-0.56109 0.57112,-0.78151c0.30726,-0.22043 0.64124,-0.33064 1.00194,-0.33064c0.42081,0 0.78151,0.12023 1.0821,0.36071c0.30726,0.23379 0.49095,0.51433 0.55107,0.84163c0.06678,0.32062 0.1002,0.85833 0.1002,1.61313zM261.84423,159.10925h-6.71299c0.0334,1.26911 0.38074,2.22764 1.04202,2.87557c0.66797,0.64792 1.46283,0.97189 2.38462,0.97189c1.14889,0 2.22764,-0.50097 3.23626,-1.5029c0.40746,-0.42081 0.70803,-0.68131 0.90174,-0.78151c0.20039,-0.1002 0.42081,-0.15029 0.66128,-0.15029c0.30726,0 0.57112,0.09685 0.79154,0.29056c0.2271,0.19371 0.34066,0.43084 0.34066,0.71138c0,0.76814 -0.52769,1.57639 -1.58307,2.42469c-1.04868,0.84831 -2.47145,1.27246 -4.26826,1.27246c-2.29109,0 -4.0278,-0.64458 -5.21008,-1.93373c-1.17561,-1.28916 -1.76341,-2.96241 -1.76341,-5.01971c0,-2.07067 0.5878,-3.74391 1.76341,-5.01971c1.18229,-1.28248 2.82547,-1.92372 4.92954,-1.92372c2.01725,0 3.57024,0.6045 4.65901,1.81351c1.09546,1.209 1.64318,2.52489 1.64318,3.94764c0,0.6212 -0.18369,1.11549 -0.55107,1.48287c-0.36071,0.36071 -1.11549,0.54105 -2.26438,0.54105zM255.13124,157.16549h6.22205c-0.04008,-1.13553 -0.35401,-2.00053 -0.94182,-2.59503c-0.58113,-0.59449 -1.30252,-0.89172 -2.16419,-0.89172c-1.81016,0 -2.84885,1.16224 -3.11603,3.48675zM276.88585,163.26731v-0.34066c-1.17561,1.52962 -2.66516,2.29445 -4.46865,2.29445c-1.75004,0 -3.1394,-0.66128 -4.16806,-1.98384c-1.02865,-1.32924 -1.54299,-3.0459 -1.54299,-5.14996c0,-1.99052 0.50097,-3.61365 1.5029,-4.86943c1.00862,-1.26244 2.40131,-1.89367 4.17808,-1.89367c1.73001,0 3.22959,0.69468 4.49871,2.08404v-4.42857c0,-1.22904 0.15364,-1.99385 0.46089,-2.29444c0.30726,-0.30059 0.72474,-0.45086 1.25243,-0.45086c0.36737,0 0.7047,0.10687 1.01197,0.32062c0.31394,0.21376 0.50432,0.49095 0.57112,0.83161c0.07348,0.34066 0.11022,0.90508 0.11022,1.69328v13.47609c0,0.76147 -0.04008,1.30586 -0.12023,1.63316c-0.08015,0.32062 -0.27387,0.57112 -0.58113,0.75146c-0.30726,0.18703 -0.64458,0.28054 -1.01195,0.28054c-1.12885,0 -1.69327,-0.65126 -1.69327,-1.95378zM270.16284,158.18748c0,1.53631 0.32062,2.65848 0.96186,3.36652c0.64792,0.70136 1.38602,1.05204 2.21429,1.05204c0.96854,0 1.77009,-0.36737 2.40465,-1.10214c0.63456,-0.73476 0.95184,-1.76341 0.95184,-3.08597c0,-1.376 -0.3106,-2.47145 -0.9318,-3.28636c-0.61452,-0.82159 -1.42944,-1.23239 -2.44473,-1.23239c-0.92846,0 -1.6866,0.38074 -2.2744,1.14221c-0.5878,0.76147 -0.8817,1.81016 -0.8817,3.14609zM291.75462,151.62478v-2.05398c0,-0.84831 0.0334,-1.42275 0.1002,-1.72334c0.07347,-0.30726 0.25716,-0.57778 0.55107,-0.81157c0.30059,-0.24046 0.65126,-0.36071 1.05204,-0.36071c0.36738,0 0.69802,0.11022 0.99192,0.33065c0.2939,0.21376 0.48761,0.47425 0.58113,0.78151c0.09351,0.30726 0.14027,0.80822 0.14027,1.5029v2.33453h0.66128c0.83494,0 1.38936,0.10354 1.66321,0.31061c0.28054,0.20039 0.42081,0.49762 0.42081,0.89172c0,0.84163 -0.70136,1.26244 -2.10408,1.26244h-0.64124v6.31221c0,0.84831 0.06012,1.42944 0.18034,1.74337c0.12023,0.30726 0.4442,0.46089 0.97189,0.46089c0.24715,0 0.52769,-0.0334 0.84163,-0.1002c0.31393,-0.07348 0.54772,-0.11021 0.70136,-0.11021c0.34066,0 0.61787,0.11356 0.83161,0.34066c0.21375,0.22043 0.32062,0.49095 0.32062,0.81158c0,1.11549 -1.18229,1.67324 -3.54687,1.67324c-1.14221,0 -1.98384,-0.2104 -2.52489,-0.63123c-0.54105,-0.42749 -0.87503,-0.94517 -1.00194,-1.553c-0.12692,-0.61453 -0.19036,-1.40939 -0.19036,-2.38462v-6.5627h-0.45086c-1.0153,0 -1.52295,-0.41414 -1.52295,-1.24241c0,-0.81492 0.53104,-1.22236 1.59309,-1.22236zM306.24516,151.32419c2.11743,0 3.78399,0.65461 4.99967,1.9638c1.21569,1.30252 1.82353,2.96241 1.82353,4.97964c0,2.03058 -0.61787,3.69716 -1.85359,4.99967c-1.22904,1.30252 -2.85887,1.95379 -4.88946,1.95379c-2.20426,0 -3.90423,-0.65794 -5.09987,-1.97381c-1.19565,-1.32256 -1.79347,-2.98244 -1.79347,-4.97963c0,-2.02392 0.6045,-3.68713 1.81351,-4.98965c1.21569,-1.30252 2.88224,-1.95378 4.99967,-1.95378zM306.24516,162.67616c1.03534,0 1.85359,-0.38741 2.45475,-1.16224c0.60783,-0.78151 0.91177,-1.86361 0.91177,-3.24628c0,-1.38267 -0.30392,-2.46477 -0.91176,-3.24628c-0.60117,-0.78151 -1.41941,-1.17226 -2.45475,-1.17226c-1.02198,0 -1.83688,0.3941 -2.44473,1.18229c-0.60784,0.78151 -0.91176,1.86026 -0.91176,3.23626c0,1.38936 0.30059,2.47145 0.90174,3.24628c0.60784,0.77484 1.4261,1.16224 2.45475,1.16224zM325.10417,146.38463c0.44085,0 0.82493,0.16698 1.15223,0.50097c0.32729,0.33398 0.49095,0.72139 0.49095,1.16224c0,0.46089 -0.16365,0.85833 -0.49095,1.19231c-0.32729,0.32729 -0.71137,0.49095 -1.15222,0.49095c-0.46089,0 -0.85833,-0.16365 -1.1923,-0.49095c-0.32729,-0.33398 -0.49095,-0.73141 -0.49095,-1.1923c0,-0.44754 0.16365,-0.83495 0.49095,-1.16224c0.33398,-0.33398 0.73141,-0.50097 1.19231,-0.50097zM323.42091,164.86039v-10.72074c0,-0.84163 0.03673,-1.40939 0.11022,-1.70329c0.07348,-0.2939 0.25383,-0.55106 0.54105,-0.77149c0.2939,-0.2271 0.6379,-0.34066 1.032,-0.34066c0.36737,0 0.70136,0.10354 1.00194,0.31061c0.30726,0.20707 0.49762,0.46757 0.57112,0.78151c0.08015,0.31394 0.12023,0.88839 0.12023,1.72334v10.72074c0,1.26911 -0.06678,2.23433 -0.20039,2.8956c-0.12691,0.66128 -0.47759,1.24907 -1.05203,1.76341c-0.56776,0.52101 -1.45281,0.78151 -2.65514,0.78151c-2.11075,0 -3.16612,-0.55775 -3.16612,-1.67324c0,-0.38741 0.12357,-0.71473 0.37072,-0.9819c0.24046,-0.26717 0.54772,-0.40077 0.92178,-0.40077l1.25243,0.08015c0.41414,0 0.70803,-0.15697 0.8817,-0.47091c0.18034,-0.30726 0.27053,-0.97188 0.27053,-1.99385zM336.30334,151.32419c2.11743,0 3.78399,0.65461 4.99967,1.9638c1.21569,1.30252 1.82353,2.96241 1.82353,4.97964c0,2.03058 -0.61787,3.69716 -1.85359,4.99967c-1.22904,1.30252 -2.85887,1.95379 -4.88946,1.95379c-2.20426,0 -3.90423,-0.65794 -5.09987,-1.97381c-1.19566,-1.32256 -1.79347,-2.98244 -1.79347,-4.97963c0,-2.02392 0.6045,-3.68713 1.81351,-4.98965c1.21569,-1.30252 2.88224,-1.95378 4.99967,-1.95378zM336.30334,162.67616c1.03534,0 1.85359,-0.38741 2.45475,-1.16224c0.60783,-0.78151 0.91177,-1.86361 0.91177,-3.24628c0,-1.38267 -0.30392,-2.46477 -0.91176,-3.24628c-0.60117,-0.78151 -1.41941,-1.17226 -2.45475,-1.17226c-1.02198,0 -1.83689,0.3941 -2.44473,1.18229c-0.60783,0.78151 -0.91176,1.86026 -0.91176,3.23626c0,1.38936 0.30059,2.47145 0.90174,3.24628c0.60783,0.77484 1.4261,1.16224 2.45475,1.16224zM347.54761,146.38463c0.44085,0 0.82493,0.16698 1.15223,0.50097c0.32729,0.33398 0.49095,0.72139 0.49095,1.16224c0,0.46089 -0.16365,0.85833 -0.49095,1.19231c-0.32729,0.32729 -0.71137,0.49095 -1.15222,0.49095c-0.46089,0 -0.85833,-0.16365 -1.1923,-0.49095c-0.32729,-0.33398 -0.49095,-0.73141 -0.49095,-1.1923c0,-0.44754 0.16365,-0.83495 0.49095,-1.16224c0.33398,-0.33398 0.73141,-0.50097 1.1923,-0.50097zM349.24087,154.10958v8.28604c0,0.81492 -0.04008,1.37266 -0.12023,1.67324c-0.07348,0.30059 -0.26385,0.56776 -0.5711,0.80156c-0.30726,0.23379 -0.64124,0.35068 -1.00194,0.35068c-0.36737,0 -0.71137,-0.11356 -1.032,-0.34066c-0.31394,-0.23379 -0.51098,-0.50432 -0.59115,-0.81157c-0.07348,-0.30726 -0.11021,-0.865 -0.11021,-1.67324v-8.25598c0,-0.76147 0.03007,-1.29918 0.09019,-1.61313c0.06012,-0.31394 0.24046,-0.59115 0.54105,-0.83161c0.30726,-0.24714 0.66128,-0.37072 1.06205,-0.37072c0.40746,0 0.75813,0.11022 1.05203,0.33065c0.2939,0.22043 0.48093,0.50097 0.56109,0.84163c0.08015,0.33398 0.12023,0.87169 0.12023,1.61313zM364.82854,156.78476v5.61087c0,0.72139 -0.03006,1.24907 -0.09018,1.58307c-0.05344,0.32729 -0.23044,0.61787 -0.53103,0.87169c-0.30059,0.24714 -0.65794,0.37072 -1.07208,0.37072c-0.36737,0 -0.71137,-0.11021 -1.032,-0.33064c-0.31394,-0.22043 -0.50765,-0.50765 -0.58113,-0.86167c-0.07348,-0.35402 -0.11021,-0.89841 -0.11021,-1.63316v-4.92954c0,-1.36931 -0.20707,-2.29109 -0.6212,-2.76536c-0.40746,-0.47425 -0.96854,-0.71137 -1.68326,-0.71137c-0.65461,0 -1.22904,0.18703 -1.72334,0.56109c-0.4876,0.37407 -0.83161,0.84497 -1.032,1.41274c-0.20039,0.56109 -0.30059,1.5263 -0.30059,2.8956v3.53685c0,0.71473 -0.02671,1.23573 -0.08015,1.56303c-0.05344,0.32729 -0.23712,0.6212 -0.55106,0.8817c-0.30726,0.25383 -0.66128,0.38074 -1.06205,0.38074c-0.37407,0 -0.72139,-0.11356 -1.04202,-0.34066c-0.31394,-0.23379 -0.50432,-0.52101 -0.5711,-0.86167c-0.06678,-0.34066 -0.1002,-0.8817 -0.1002,-1.62315v-8.43632c0,-0.75481 0.0334,-1.28248 0.1002,-1.58307c0.07348,-0.30059 0.25383,-0.55106 0.54105,-0.75145c0.28722,-0.20039 0.61118,-0.30059 0.97189,-0.30059c0.33398,0 0.68131,0.13025 1.04202,0.39075c0.36737,0.26051 0.55107,0.89841 0.55107,1.9137c1.14221,-1.53631 2.61172,-2.30446 4.40853,-2.30446c0.68131,0 1.35595,0.13025 2.02392,0.39075c0.66796,0.25383 1.21235,0.6713 1.63316,1.25243c0.42749,0.58113 0.68466,1.18229 0.7715,1.80349c0.09351,0.6212 0.14027,1.29251 0.14027,2.0139zM385.24055,153.64868v-0.46089c0,-0.6212 0.15364,-1.08544 0.46089,-1.39269c0.30726,-0.31394 0.69468,-0.47091 1.16224,-0.47091c0.51433,0 0.91177,0.18034 1.19231,0.54105c0.28054,0.36071 0.42081,1.14221 0.42081,2.34454v9.18778c0,2.7186 -0.57444,4.5488 -1.72334,5.49062c-1.14888,0.94182 -2.80877,1.41274 -4.97963,1.41274c-1.94376,0 -3.46337,-0.36071 -4.55882,-1.0821c-1.09546,-0.71473 -1.64318,-1.47285 -1.64318,-2.2744c0,-0.43418 0.14361,-0.78485 0.43084,-1.05203c0.2939,-0.26051 0.63456,-0.39075 1.02198,-0.39075c0.36071,0 0.64792,0.08349 0.86167,0.25049c0.21376,0.17368 0.57444,0.58113 1.0821,1.22236c0.50765,0.64792 1.36931,0.97189 2.585,0.97189c0.66796,0 1.28582,-0.10687 1.85359,-0.32062c0.57444,-0.20707 0.99527,-0.57778 1.26244,-1.11215c0.27387,-0.52768 0.40412,-1.81351 0.39075,-3.85747c-1.04868,1.5029 -2.47814,2.25436 -4.28831,2.25436c-1.74337,0 -3.12272,-0.65126 -4.13801,-1.95378c-1.0153,-1.30919 -1.52295,-2.98244 -1.52295,-5.01971c0,-2.03058 0.52101,-3.64038 1.56303,-4.82935c1.04868,-1.18897 2.408,-1.78346 4.0779,-1.78346c1.82353,0 3.31975,0.77484 4.48868,2.32451zM378.56764,158.20751c0,1.32924 0.29056,2.34454 0.87169,3.0459c0.58113,0.69468 1.376,1.04202 2.38462,1.04202c0.87503,0 1.63316,-0.33731 2.27441,-1.01195c0.64124,-0.68131 0.96186,-1.69327 0.96186,-3.03588c0,-1.32924 -0.29724,-2.38128 -0.89172,-3.15611c-0.5878,-0.77484 -1.38602,-1.16224 -2.39463,-1.16224c-0.96854,0 -1.74672,0.36403 -2.33452,1.09212c-0.58113,0.72139 -0.87169,1.78346 -0.87169,3.18616zM400.55018,163.29736c-1.62982,1.28248 -3.22624,1.92372 -4.78927,1.92372c-1.4762,0 -2.61172,-0.37407 -3.40659,-1.12218c-0.78819,-0.75481 -1.18229,-1.67324 -1.18229,-2.75532c0,-0.92846 0.26717,-1.67658 0.80156,-2.24434c0.54105,-0.57444 1.12885,-0.97523 1.76341,-1.20232c0.63456,-0.2271 1.66656,-0.4876 3.096,-0.78151c1.43612,-0.30059 2.59168,-0.57444 3.4667,-0.82159c-0.00667,-1.03534 -0.2104,-1.73335 -0.61118,-2.09405c-0.40077,-0.36737 -1.01195,-0.55106 -1.83355,-0.55106c-1.54966,0 -2.56497,0.43418 -3.0459,1.30252c-0.26717,0.4943 -0.50432,0.84497 -0.71137,1.05204c-0.20707,0.20707 -0.50765,0.31061 -0.90174,0.31061c-0.36071,0 -0.688,-0.11689 -0.9819,-0.35067c-0.28722,-0.24046 -0.43083,-0.54772 -0.43083,-0.92178c0,-0.88839 0.47759,-1.73001 1.43277,-2.52489c0.96186,-0.79487 2.47479,-1.1923 4.53879,-1.1923c2.09071,0 3.62034,0.36071 4.58888,1.0821c0.96854,0.72139 1.42275,2.18089 1.36264,4.37847l-0.08015,3.20621c-0.0334,0.98857 0.07014,1.79682 0.31061,2.42469c0.24046,0.62788 0.36071,1.10881 0.36071,1.44279c0,0.36071 -0.16031,0.67798 -0.48093,0.95184c-0.31394,0.27387 -0.67129,0.4108 -1.07208,0.4108c-0.69468,0 -1.4261,-0.64124 -2.19424,-1.92372zM400.31973,158.34779c-0.50765,0.20039 -1.34927,0.41748 -2.52489,0.65126c-1.16893,0.23379 -1.9972,0.50097 -2.4848,0.80156c-0.4876,0.30059 -0.73141,0.73809 -0.73141,1.31255c0,0.4943 0.19371,0.92846 0.58113,1.30252c0.38741,0.37407 0.93515,0.56109 1.64318,0.56109c0.75481,0 1.45282,-0.20373 2.09406,-0.61118c0.64792,-0.41414 1.04536,-0.90508 1.19231,-1.47285c0.15364,-0.56776 0.23045,-1.41608 0.23045,-2.54493zM426.52294,156.394v5.90142c0,0.80822 -0.0334,1.37934 -0.1002,1.71331c-0.06678,0.32729 -0.25049,0.61118 -0.55106,0.85166c-0.2939,0.24046 -0.64458,0.36071 -1.05203,0.36071c-0.40077,0 -0.75145,-0.11689 -1.05203,-0.35067c-0.2939,-0.24046 -0.47759,-0.5377 -0.55106,-0.89172c-0.07348,-0.35402 -0.11021,-0.9151 -0.11021,-1.68326v-4.99967c0,-1.46283 -0.17368,-2.37794 -0.52101,-2.74531c-0.34734,-0.37407 -0.82159,-0.56109 -1.42275,-0.56109c-0.62788,0 -1.15558,0.17368 -1.58307,0.52101c-0.42749,0.34734 -0.72139,0.80156 -0.8817,1.36264c-0.16031,0.55441 -0.24046,1.42944 -0.24046,2.62508v3.79736c0,0.80822 -0.0334,1.38267 -0.1002,1.72334c-0.06012,0.33398 -0.24381,0.61787 -0.55106,0.85166c-0.30059,0.23379 -0.65461,0.35068 -1.06205,0.35068c-0.52768,0 -0.94182,-0.17702 -1.24241,-0.53103c-0.30059,-0.35402 -0.45086,-1.15222 -0.45086,-2.39463v-4.69909c0,-1.33592 -0.1002,-2.27106 -0.30059,-2.80543c-0.20039,-0.53436 -0.72139,-0.80156 -1.56303,-0.80156c-0.87503,0 -1.56636,0.28054 -2.07401,0.84163c-0.50765,0.55441 -0.76147,1.75004 -0.76147,3.58695v3.87751c0,0.78819 -0.02671,1.34261 -0.08015,1.66321c-0.05344,0.31394 -0.23044,0.6045 -0.53103,0.87169c-0.30059,0.26051 -0.65126,0.39075 -1.05203,0.39075c-0.38074,0 -0.72808,-0.11689 -1.04202,-0.35067c-0.31394,-0.23379 -0.51098,-0.51433 -0.59115,-0.84163c-0.07348,-0.33398 -0.11021,-0.91176 -0.11021,-1.73335v-8.28604c0,-0.78819 0.03673,-1.32256 0.11022,-1.6031c0.07348,-0.28722 0.25716,-0.5377 0.55107,-0.75145c0.2939,-0.22043 0.61453,-0.33064 0.96186,-0.33064c1.08877,0 1.63316,0.69468 1.63316,2.08404c1.14888,-1.38936 2.52823,-2.08404 4.13801,-2.08404c1.73001,0 2.98578,0.69468 3.76729,2.08404c1.16224,-1.38936 2.51822,-2.08404 4.06787,-2.08404c1.19566,0 2.21763,0.33065 3.06593,0.99192c0.85499,0.65461 1.28248,2.0139 1.28248,4.0779zM439.38785,159.10925h-6.71299c0.0334,1.26911 0.38074,2.22764 1.04202,2.87557c0.66797,0.64792 1.46283,0.97189 2.38462,0.97189c1.14889,0 2.22764,-0.50097 3.23626,-1.5029c0.40746,-0.42081 0.70803,-0.68131 0.90174,-0.78151c0.20039,-0.1002 0.42081,-0.15029 0.66128,-0.15029c0.30726,0 0.57112,0.09685 0.79154,0.29056c0.2271,0.19371 0.34066,0.43084 0.34066,0.71138c0,0.76814 -0.52769,1.57639 -1.58307,2.42469c-1.0487,0.84831 -2.47145,1.27246 -4.26826,1.27246c-2.2911,0 -4.0278,-0.64458 -5.21008,-1.93373c-1.1756,-1.28916 -1.76341,-2.96241 -1.76341,-5.01971c0,-2.07067 0.58781,-3.74391 1.76341,-5.01971c1.18229,-1.28248 2.82547,-1.92372 4.92954,-1.92372c2.01724,0 3.57024,0.6045 4.65901,1.81351c1.09545,1.209 1.64318,2.52489 1.64318,3.94764c0,0.6212 -0.18369,1.11549 -0.55106,1.48287c-0.36071,0.36071 -1.11549,0.54105 -2.26438,0.54105zM432.67486,157.16549h6.22205c-0.04008,-1.13553 -0.35401,-2.00053 -0.94182,-2.59503c-0.58113,-0.59449 -1.30252,-0.89172 -2.16419,-0.89172c-1.81017,0 -2.84885,1.16224 -3.11603,3.48675zM449.3897,150.80318l-0.53103,6.18196c-0.08684,0.90174 -0.24381,1.50625 -0.47091,1.81351c-0.22043,0.30726 -0.50765,0.46089 -0.86167,0.46089c-0.34734,0 -0.63455,-0.15697 -0.86167,-0.47091c-0.22043,-0.31394 -0.36403,-0.9151 -0.43083,-1.80349l-0.42081,-6.03167c-0.05344,-0.51433 -0.08015,-1.24907 -0.08015,-2.20426c0,-1.67658 0.64124,-2.51486 1.92372,-2.51486c0.56777,0 1.00528,0.19371 1.31255,0.58113c0.31393,0.38074 0.47092,1.09212 0.47092,2.13413c0,0.84831 -0.0167,1.46618 -0.0501,1.85359zM447.60625,161.45379c0.50765,0 0.94517,0.18369 1.31255,0.55107c0.37405,0.36737 0.56109,0.80488 0.56109,1.31255c0,0.52101 -0.18704,0.96854 -0.56109,1.34261c-0.36738,0.37407 -0.80488,0.56109 -1.31254,0.56109c-0.52769,0 -0.97855,-0.18369 -1.35262,-0.55106c-0.36738,-0.37407 -0.55106,-0.82493 -0.55106,-1.35262c0,-0.50765 0.18704,-0.94517 0.56109,-1.31254c0.37405,-0.36737 0.82159,-0.55106 1.34261,-0.55106z" fill="#ff7777" stroke="none" stroke-width="1" stroke-linecap="square"/><g fill="#cdcdcd" stroke="none" stroke-width="1" stroke-linecap="butt"><path d="M382.55485,194.38104v-0.46089c0,-0.6212 0.15364,-1.08544 0.46089,-1.39269c0.30726,-0.31394 0.69468,-0.47091 1.16224,-0.47091c0.51433,0 0.91177,0.18034 1.19231,0.54105c0.28054,0.36071 0.42081,1.14221 0.42081,2.34454v9.18778c0,2.7186 -0.57444,4.5488 -1.72334,5.49062c-1.14888,0.94182 -2.80877,1.41274 -4.97963,1.41274c-1.94376,0 -3.46337,-0.36071 -4.55882,-1.0821c-1.09546,-0.71473 -1.64318,-1.47285 -1.64318,-2.2744c0,-0.43418 0.14361,-0.78485 0.43084,-1.05203c0.2939,-0.26051 0.63456,-0.39075 1.02198,-0.39075c0.36071,0 0.64792,0.08349 0.86167,0.25049c0.21376,0.17368 0.57444,0.58113 1.0821,1.22236c0.50765,0.64792 1.36931,0.97189 2.585,0.97189c0.66796,0 1.28582,-0.10687 1.85359,-0.32062c0.57444,-0.20707 0.99527,-0.57778 1.26244,-1.11215c0.27387,-0.52768 0.40412,-1.81351 0.39075,-3.85747c-1.04868,1.5029 -2.47814,2.25436 -4.28831,2.25436c-1.74337,0 -3.12272,-0.65126 -4.13801,-1.95378c-1.0153,-1.30919 -1.52295,-2.98244 -1.52295,-5.01971c0,-2.03058 0.52101,-3.64038 1.56303,-4.82935c1.04868,-1.18897 2.408,-1.78346 4.0779,-1.78346c1.82353,0 3.31975,0.77484 4.48868,2.32451zM375.88193,198.93985c0,1.32924 0.29056,2.34454 0.87169,3.0459c0.58113,0.69468 1.376,1.04202 2.38462,1.04202c0.87503,0 1.63316,-0.33731 2.27441,-1.01195c0.64124,-0.68131 0.96186,-1.69327 0.96186,-3.03588c0,-1.32924 -0.29724,-2.38128 -0.89172,-3.15611c-0.5878,-0.77484 -1.38602,-1.16224 -2.39463,-1.16224c-0.96854,0 -1.74672,0.36403 -2.33452,1.09212c-0.58113,0.72139 -0.87169,1.78346 -0.87169,3.18616z"/><path d="M228.76973,198.48898v4.38849c0,1.35595 -0.17702,2.20761 -0.53103,2.55495c-0.34734,0.34734 -0.79487,0.52101 -1.34261,0.52101c-0.40746,0 -0.77484,-0.11689 -1.10214,-0.35067c-0.32062,-0.23379 -0.52101,-0.52101 -0.60117,-0.86167c-0.07348,-0.34066 -0.11021,-0.96186 -0.11021,-1.86361v-12.47413c0,-1.04868 0.07014,-1.76341 0.21041,-2.14414c0.14027,-0.38741 0.3941,-0.64792 0.76147,-0.78151c0.37407,-0.13359 0.92846,-0.20039 1.66321,-0.20039h4.48868c2.67183,0 4.48202,0.51767 5.4305,1.55301c0.94851,1.03534 1.42275,2.32116 1.42275,3.85748c0,3.86749 -2.28442,5.80123 -6.85326,5.80123zM231.30463,190.15286h-2.5349v5.46057h2.53491c1.53631,0 2.58167,-0.24714 3.13606,-0.74144c0.56109,-0.4943 0.84163,-1.16224 0.84163,-2.00388c0,-0.60117 -0.15697,-1.13553 -0.47091,-1.6031c-0.30726,-0.46757 -0.72474,-0.76814 -1.25242,-0.90174c-0.52768,-0.14027 -1.27914,-0.2104 -2.25436,-0.2104z"/><path d="M366.59145,204.02971c-1.62982,1.28248 -3.22624,1.92372 -4.78927,1.92372c-1.4762,0 -2.61172,-0.37407 -3.40659,-1.12218c-0.78819,-0.75481 -1.18229,-1.67324 -1.18229,-2.75532c0,-0.92846 0.26717,-1.67658 0.80156,-2.24434c0.54105,-0.57444 1.12885,-0.97523 1.76341,-1.20232c0.63456,-0.2271 1.66656,-0.4876 3.096,-0.78151c1.43612,-0.30059 2.59168,-0.57444 3.4667,-0.82159c-0.00667,-1.03534 -0.2104,-1.73335 -0.61118,-2.09405c-0.40077,-0.36737 -1.01195,-0.55106 -1.83355,-0.55106c-1.54966,0 -2.56497,0.43418 -3.0459,1.30252c-0.26717,0.4943 -0.50432,0.84497 -0.71137,1.05204c-0.20707,0.20707 -0.50765,0.31061 -0.90174,0.31061c-0.36071,0 -0.688,-0.11689 -0.9819,-0.35067c-0.28722,-0.24046 -0.43083,-0.54772 -0.43083,-0.92178c0,-0.88839 0.47759,-1.73001 1.43277,-2.52489c0.96186,-0.79487 2.47479,-1.1923 4.53879,-1.1923c2.09072,0 3.62034,0.36071 4.58888,1.0821c0.96854,0.72139 1.42275,2.18089 1.36264,4.37847l-0.08015,3.20621c-0.0334,0.98857 0.07014,1.79682 0.31061,2.42469c0.24046,0.62788 0.36071,1.10881 0.36071,1.44279c0,0.36071 -0.16031,0.67798 -0.48093,0.95184c-0.31394,0.27387 -0.67129,0.4108 -1.07208,0.4108c-0.69468,0 -1.4261,-0.64124 -2.19424,-1.92372zM366.36102,199.08013c-0.50765,0.20039 -1.34927,0.41748 -2.52489,0.65126c-1.16893,0.23379 -1.9972,0.50097 -2.4848,0.80156c-0.4876,0.30059 -0.73141,0.73809 -0.73141,1.31255c0,0.4943 0.19371,0.92846 0.58113,1.30252c0.38741,0.37407 0.93515,0.56109 1.64318,0.56109c0.75481,0 1.45281,-0.20373 2.09405,-0.61118c0.64792,-0.41414 1.04536,-0.90508 1.19231,-1.47285c0.15364,-0.56776 0.23045,-1.41608 0.23045,-2.54493z"/><path d="M397.86449,204.02971c-1.62982,1.28248 -3.22624,1.92372 -4.78927,1.92372c-1.4762,0 -2.61172,-0.37407 -3.40659,-1.12218c-0.78819,-0.75481 -1.18229,-1.67324 -1.18229,-2.75532c0,-0.92846 0.26717,-1.67658 0.80156,-2.24434c0.54105,-0.57444 1.12885,-0.97523 1.76341,-1.20232c0.63456,-0.2271 1.66656,-0.4876 3.096,-0.78151c1.43612,-0.30059 2.59168,-0.57444 3.4667,-0.82159c-0.00667,-1.03534 -0.2104,-1.73335 -0.61118,-2.09405c-0.40077,-0.36737 -1.01195,-0.55106 -1.83355,-0.55106c-1.54966,0 -2.56497,0.43418 -3.0459,1.30252c-0.26717,0.4943 -0.50432,0.84497 -0.71137,1.05204c-0.20707,0.20707 -0.50765,0.31061 -0.90174,0.31061c-0.36071,0 -0.688,-0.11689 -0.9819,-0.35067c-0.28722,-0.24046 -0.43083,-0.54772 -0.43083,-0.92178c0,-0.88839 0.47759,-1.73001 1.43277,-2.52489c0.96186,-0.79487 2.47479,-1.1923 4.53879,-1.1923c2.09071,0 3.62034,0.36071 4.58888,1.0821c0.96854,0.72139 1.42275,2.18089 1.36264,4.37847l-0.08015,3.20621c-0.0334,0.98857 0.07014,1.79682 0.31061,2.42469c0.24046,0.62788 0.36071,1.10881 0.36071,1.44279c0,0.36071 -0.16031,0.67798 -0.48093,0.95184c-0.31394,0.27387 -0.67129,0.4108 -1.07208,0.4108c-0.69468,0 -1.4261,-0.64124 -2.19424,-1.92372zM397.63403,199.08013c-0.50765,0.20039 -1.34927,0.41748 -2.52489,0.65126c-1.16893,0.23379 -1.9972,0.50097 -2.4848,0.80156c-0.4876,0.30059 -0.73141,0.73809 -0.73141,1.31255c0,0.4943 0.19371,0.92846 0.58113,1.30252c0.38741,0.37407 0.93515,0.56109 1.64318,0.56109c0.75481,0 1.45282,-0.20373 2.09406,-0.61118c0.64792,-0.41414 1.04536,-0.90508 1.19231,-1.47285c0.15364,-0.56776 0.23045,-1.41608 0.23045,-2.54493z"/><path d="M272.75986,204.02971c-1.62982,1.28248 -3.22624,1.92372 -4.78927,1.92372c-1.4762,0 -2.61172,-0.37407 -3.40659,-1.12218c-0.78819,-0.75481 -1.18229,-1.67324 -1.18229,-2.75532c0,-0.92846 0.26717,-1.67658 0.80156,-2.24434c0.54105,-0.57444 1.12885,-0.97523 1.76341,-1.20232c0.63456,-0.2271 1.66656,-0.4876 3.096,-0.78151c1.43612,-0.30059 2.59168,-0.57444 3.4667,-0.82159c-0.00667,-1.03534 -0.2104,-1.73335 -0.61118,-2.09405c-0.40077,-0.36737 -1.01195,-0.55106 -1.83355,-0.55106c-1.54966,0 -2.56497,0.43418 -3.0459,1.30252c-0.26717,0.4943 -0.50432,0.84497 -0.71137,1.05204c-0.20707,0.20707 -0.50765,0.31061 -0.90174,0.31061c-0.36071,0 -0.688,-0.11689 -0.9819,-0.35067c-0.28722,-0.24046 -0.43083,-0.54772 -0.43083,-0.92178c0,-0.88839 0.47759,-1.73001 1.43277,-2.52489c0.96186,-0.79487 2.47479,-1.1923 4.53879,-1.1923c2.09071,0 3.62034,0.36071 4.58888,1.0821c0.96854,0.72139 1.42275,2.18089 1.36264,4.37847l-0.08015,3.20621c-0.0334,0.98857 0.07014,1.79682 0.31061,2.42469c0.24046,0.62788 0.36071,1.10881 0.36071,1.44279c0,0.36071 -0.16031,0.67798 -0.48093,0.95184c-0.31393,0.27387 -0.67129,0.4108 -1.07208,0.4108c-0.69467,0 -1.4261,-0.64124 -2.19424,-1.92372zM272.52942,199.08013c-0.50765,0.20039 -1.34927,0.41748 -2.52489,0.65126c-1.16893,0.23379 -1.9972,0.50097 -2.4848,0.80156c-0.4876,0.30059 -0.73141,0.73809 -0.73141,1.31255c0,0.4943 0.19371,0.92846 0.58113,1.30252c0.38741,0.37407 0.93515,0.56109 1.64318,0.56109c0.75481,0 1.45282,-0.20373 2.09406,-0.61118c0.64792,-0.41414 1.04536,-0.90508 1.19231,-1.47285c0.15362,-0.56776 0.23045,-1.41608 0.23045,-2.54493z"/><path d="M302.80551,199.8416h-6.71299c0.0334,1.26911 0.38074,2.22764 1.04202,2.87557c0.66797,0.64792 1.46283,0.97189 2.38462,0.97189c1.14889,0 2.22764,-0.50097 3.23626,-1.5029c0.40746,-0.42081 0.70803,-0.68131 0.90174,-0.78151c0.20039,-0.1002 0.42081,-0.15029 0.66128,-0.15029c0.30726,0 0.57112,0.09685 0.79154,0.29056c0.2271,0.19371 0.34066,0.43084 0.34066,0.71138c0,0.76814 -0.52769,1.57639 -1.58307,2.42469c-1.0487,0.84831 -2.47145,1.27246 -4.26826,1.27246c-2.2911,0 -4.0278,-0.64458 -5.21008,-1.93373c-1.1756,-1.28916 -1.76341,-2.96241 -1.76341,-5.01971c0,-2.07067 0.58781,-3.74391 1.76341,-5.01971c1.18229,-1.28248 2.82547,-1.92372 4.92954,-1.92372c2.01724,0 3.57024,0.6045 4.65901,1.81351c1.09545,1.209 1.64318,2.52489 1.64318,3.94764c0,0.6212 -0.18369,1.11549 -0.55106,1.48287c-0.36071,0.36071 -1.11549,0.54105 -2.26438,0.54105zM302.31457,197.89784c-0.04008,-1.13553 -0.35402,-2.00053 -0.94182,-2.59503c-0.58113,-0.59449 -1.30252,-0.89172 -2.16419,-0.89172c-1.81017,0 -2.84885,1.16224 -3.11603,3.48675z"/><path d="M258.41961,199.8416h-6.71299c0.0334,1.26911 0.38074,2.22764 1.04202,2.87557c0.66797,0.64792 1.46283,0.97189 2.38462,0.97189c1.14889,0 2.22764,-0.50097 3.23626,-1.5029c0.40746,-0.42081 0.70803,-0.68131 0.90174,-0.78151c0.20039,-0.1002 0.42081,-0.15029 0.66128,-0.15029c0.30726,0 0.57112,0.09685 0.79154,0.29056c0.2271,0.19371 0.34066,0.43084 0.34066,0.71138c0,0.76814 -0.52769,1.57639 -1.58307,2.42469c-1.0487,0.84831 -2.47145,1.27246 -4.26826,1.27246c-2.2911,0 -4.0278,-0.64458 -5.21008,-1.93373c-1.1756,-1.28916 -1.76341,-2.96241 -1.76341,-5.01971c0,-2.07067 0.58781,-3.74391 1.76341,-5.01971c1.18229,-1.28248 2.82547,-1.92372 4.92954,-1.92372c2.01724,0 3.57024,0.6045 4.65901,1.81351c1.09545,1.209 1.64318,2.52489 1.64318,3.94764c0,0.6212 -0.18369,1.11549 -0.55106,1.48287c-0.36071,0.36071 -1.11549,0.54105 -2.26438,0.54105zM257.92867,197.89784c-0.04008,-1.13553 -0.35401,-2.00053 -0.94182,-2.59503c-0.58113,-0.59449 -1.30252,-0.89172 -2.16419,-0.89172c-1.81017,0 -2.84885,1.16224 -3.11603,3.48675z"/><path d="M339.9048,205.61278l-4.18811,-10.5905c-0.26051,-0.688 -0.39075,-1.15892 -0.39075,-1.41273c0,-0.3941 0.16365,-0.75145 0.49095,-1.07208c0.32729,-0.32062 0.71138,-0.48093 1.15223,-0.48093c0.38741,0 0.71473,0.12023 0.9819,0.36071c0.27387,0.23379 0.54105,0.71805 0.80156,1.45282l2.88559,8.41628l2.74531,-7.80511c0.36071,-1.0153 0.64792,-1.67324 0.86167,-1.97381c0.21376,-0.30059 0.57778,-0.45086 1.09212,-0.45086c0.46757,0 0.83495,0.15697 1.10214,0.47092c0.27387,0.30726 0.4108,0.62454 0.4108,0.95184c0,0.38741 -0.13693,0.93515 -0.41078,1.64318l-4.45863,11.67259c-0.59449,1.55634 -1.209,2.6518 -1.84357,3.28636c-0.63456,0.63456 -1.71331,0.95184 -3.23626,0.95184c-1.99052,0 -2.98578,-0.50765 -2.98578,-1.52295c0,-0.33398 0.11356,-0.61453 0.34066,-0.84163c0.2271,-0.22043 0.52768,-0.33064 0.90174,-0.33064c0.06012,0 0.25049,0.01002 0.57112,0.03007c0.32729,0.02671 0.52101,0.04008 0.58113,0.04008c0.63456,0 1.09879,-0.15364 1.39269,-0.46089c0.30059,-0.30059 0.59449,-0.82159 0.8817,-1.56303z"/><path d="M423.47405,197.5171v5.61087c0,0.72139 -0.03006,1.24907 -0.09018,1.58307c-0.05344,0.32729 -0.23044,0.61787 -0.53103,0.87169c-0.30059,0.24714 -0.65794,0.37072 -1.07208,0.37072c-0.36737,0 -0.71137,-0.11021 -1.032,-0.33064c-0.31394,-0.22043 -0.50765,-0.50765 -0.58113,-0.86167c-0.07348,-0.35402 -0.11021,-0.89841 -0.11021,-1.63316v-4.92954c0,-1.36931 -0.20707,-2.29109 -0.6212,-2.76536c-0.40746,-0.47425 -0.96854,-0.71137 -1.68326,-0.71137c-0.65461,0 -1.22904,0.18703 -1.72334,0.56109c-0.4876,0.37407 -0.83161,0.84497 -1.032,1.41274c-0.20039,0.56109 -0.30059,1.5263 -0.30059,2.8956v3.53685c0,0.71473 -0.02671,1.23573 -0.08015,1.56303c-0.05344,0.32729 -0.23712,0.6212 -0.55106,0.8817c-0.30726,0.25383 -0.66128,0.38074 -1.06205,0.38074c-0.37407,0 -0.72139,-0.11356 -1.04202,-0.34066c-0.31394,-0.23379 -0.50432,-0.52101 -0.5711,-0.86167c-0.06678,-0.34066 -0.1002,-0.8817 -0.1002,-1.62315v-8.43632c0,-0.75481 0.0334,-1.28248 0.1002,-1.58307c0.07348,-0.30059 0.25383,-0.55106 0.54105,-0.75145c0.28722,-0.20039 0.61118,-0.30059 0.97189,-0.30059c0.33398,0 0.68131,0.13025 1.04202,0.39075c0.36737,0.26051 0.55107,0.89841 0.55107,1.9137c1.14221,-1.53631 2.61172,-2.30446 4.40853,-2.30446c0.68131,0 1.35595,0.13025 2.02392,0.39075c0.66796,0.25383 1.21235,0.6713 1.63316,1.25243c0.42749,0.58113 0.68466,1.18229 0.7715,1.80349c0.09351,0.6212 0.14027,1.29251 0.14027,2.0139z"/><path d="M282.64148,196.65544c0.46089,0.24714 1.48621,0.56776 3.07596,0.96186c3.09933,0.74811 4.64899,2.03728 4.64899,3.86749c0,1.44279 -0.52101,2.54826 -1.56303,3.31643c-1.04202,0.76814 -2.50485,1.15223 -4.38849,1.15223c-1.90368,0 -3.33646,-0.39075 -4.29832,-1.17226c-0.96186,-0.78819 -1.44279,-1.6198 -1.44279,-2.49483c0,-0.37407 0.13359,-0.69468 0.40077,-0.96186c0.26718,-0.26717 0.59449,-0.40077 0.9819,-0.40077c0.53436,0 1.00194,0.33398 1.40271,1.00194c0.45422,0.73476 0.95184,1.22236 1.49289,1.46283c0.54105,0.23379 1.12218,0.35068 1.74337,0.35068c0.68131,0 1.23572,-0.15029 1.66321,-0.45086c0.43418,-0.30726 0.65126,-0.69468 0.65126,-1.16224c0,-0.42749 -0.18369,-0.79821 -0.55106,-1.11215c-0.36071,-0.31394 -1.35262,-0.65461 -2.97575,-1.02198c-1.62315,-0.37407 -2.80543,-0.89507 -3.54687,-1.56303c-0.74144,-0.67464 -1.11215,-1.4762 -1.11215,-2.40465c0,-1.04202 0.45087,-1.9638 1.35263,-2.76536c0.90843,-0.80156 2.26773,-1.20232 4.0779,-1.20232c1.66321,0 2.98578,0.33731 3.96768,1.01197c0.98857,0.67464 1.48287,1.376 1.48287,2.10408c0,0.38074 -0.12692,0.7047 -0.38074,0.97189c-0.24715,0.26051 -0.59115,0.39075 -1.032,0.39075c-0.66128,0 -1.2591,-0.3774 -1.79348,-1.13219c-0.52768,-0.76147 -1.3259,-1.14221 -2.39463,-1.14221c-0.57444,0 -1.07875,0.11689 -1.51293,0.35068c-0.42746,0.23378 -0.64121,0.56772 -0.64124,1.00186v0.00008c0.00003,0.44081 0.23048,0.78813 0.69134,1.04194z"/><path d="M316.68487,192.35712v-2.05398c0,-0.84831 0.0334,-1.42275 0.1002,-1.72334c0.07347,-0.30726 0.25716,-0.57778 0.55107,-0.81157c0.30059,-0.24046 0.65126,-0.36071 1.05204,-0.36071c0.36738,0 0.69802,0.11022 0.99192,0.33065c0.2939,0.21376 0.48761,0.47425 0.58113,0.78151c0.09351,0.30726 0.14027,0.80822 0.14027,1.5029v2.33453h0.66128c0.83494,0 1.38936,0.10354 1.66321,0.31061c0.28054,0.20039 0.42081,0.49762 0.42081,0.89172c0,0.84163 -0.70136,1.26244 -2.10408,1.26244h-0.64124v6.31221c0,0.84831 0.06012,1.42944 0.18034,1.74337c0.12023,0.30726 0.4442,0.46089 0.97189,0.46089c0.24715,0 0.52769,-0.0334 0.84163,-0.1002c0.31393,-0.07348 0.54772,-0.11021 0.70136,-0.11021c0.34066,0 0.61787,0.11356 0.83161,0.34066c0.21376,0.22043 0.32062,0.49095 0.32062,0.81158c0,1.11549 -1.18229,1.67324 -3.54687,1.67324c-1.14221,0 -1.98384,-0.2104 -2.52489,-0.63123c-0.54105,-0.42749 -0.87503,-0.94517 -1.00194,-1.553c-0.12692,-0.61453 -0.19036,-1.40939 -0.19036,-2.38462v-6.5627h-0.45086c-1.0153,0 -1.52295,-0.41414 -1.52295,-1.24241c0,-0.81492 0.53104,-1.22236 1.59309,-1.22236z"/><path d="M245.34681,189.78213v13.34583c0,0.82159 -0.04008,1.38267 -0.12023,1.68326c-0.07347,0.2939 -0.26385,0.55775 -0.5711,0.79154c-0.30726,0.23379 -0.64124,0.35068 -1.00194,0.35068c-0.36738,0 -0.71137,-0.11356 -1.032,-0.34066c-0.31393,-0.23379 -0.51098,-0.50432 -0.59115,-0.81157c-0.07347,-0.30726 -0.11021,-0.865 -0.11021,-1.67324v-13.34583c0,-0.84163 0.04008,-1.40939 0.12023,-1.70329c0.08015,-0.30059 0.27053,-0.56109 0.57112,-0.78151c0.30726,-0.22043 0.64124,-0.33064 1.00194,-0.33064c0.42081,0 0.78151,0.12023 1.0821,0.36071c0.30726,0.23379 0.49095,0.51433 0.55107,0.84163c0.0668,0.32062 0.1002,0.85833 0.1002,1.61313z"/><path d="M325.1738,203.12796v-8.76696c0,-1.53631 0.56442,-2.30446 1.69328,-2.30446c1.07541,0 1.62648,0.70803 1.6532,2.12411c0.70803,-1.41608 1.6866,-2.12411 2.93569,-2.12411c0.66128,0 1.34261,0.17368 2.04395,0.52101c0.70803,0.34066 1.06205,0.81158 1.06205,1.41274c0,0.42081 -0.14361,0.76814 -0.43083,1.04202c-0.28054,0.26717 -0.58113,0.40077 -0.90174,0.40077c-0.18703,0 -0.52101,-0.07348 -1.00194,-0.22043c-0.48093,-0.14695 -0.8817,-0.22043 -1.20232,-0.22043c-0.82159,0 -1.43276,0.41414 -1.83355,1.24241c-0.40077,0.82826 -0.60117,2.42469 -0.60117,4.78927v1.97382c0,0.86834 -0.03673,1.45615 -0.11021,1.76341c-0.06678,0.30059 -0.25049,0.57444 -0.55106,0.82159c-0.30059,0.24714 -0.64792,0.37072 -1.04202,0.37072c-0.37407,0 -0.71137,-0.11021 -1.01195,-0.33064c-0.30059,-0.22043 -0.4943,-0.48093 -0.58113,-0.78151c-0.08015,-0.30726 -0.12023,-0.87836 -0.12023,-1.71331z"/><path d="M407.88637,194.84194v8.28604c0,0.81492 -0.04008,1.37266 -0.12023,1.67324c-0.07348,0.30059 -0.26385,0.56776 -0.5711,0.80156c-0.30726,0.23379 -0.64124,0.35068 -1.00194,0.35068c-0.36737,0 -0.71137,-0.11356 -1.032,-0.34066c-0.31394,-0.23379 -0.51098,-0.50432 -0.59115,-0.81157c-0.07348,-0.30726 -0.11021,-0.865 -0.11021,-1.67324v-8.25598c0,-0.76147 0.03007,-1.29918 0.09019,-1.61313c0.06012,-0.31394 0.24046,-0.59115 0.54105,-0.83161c0.30726,-0.24714 0.66128,-0.37072 1.06205,-0.37072c0.40746,0 0.75813,0.11022 1.05204,0.33065c0.2939,0.22043 0.48093,0.50097 0.56109,0.84163c0.08015,0.33398 0.12023,0.87169 0.12023,1.61313z"/><path d="M406.1931,187.11698c0.44085,0 0.82493,0.16698 1.15223,0.50097c0.32729,0.33398 0.49095,0.72139 0.49095,1.16224c0,0.46089 -0.16365,0.85833 -0.49095,1.19231c-0.32729,0.32729 -0.71137,0.49095 -1.15222,0.49095c-0.46089,0 -0.85833,-0.16365 -1.1923,-0.49095c-0.32729,-0.33398 -0.49095,-0.73141 -0.49095,-1.1923c0,-0.44754 0.16365,-0.83495 0.49095,-1.16224c0.33398,-0.33398 0.73141,-0.50097 1.19231,-0.50097z"/><path d="M434.62812,204.80121c-0.07348,-0.30726 -0.11021,-0.865 -0.11021,-1.67324v-0.90678c0.05983,0.1108 0.11222,0.22523 0.15506,0.3443c0.30209,0.8397 0.22833,1.83138 0.24446,2.77111c-0.14253,-0.16398 -0.23896,-0.34245 -0.28931,-0.53539z"/></g></g></g></svg>