<svg version="1.1" xmlns="http://www.w3.org/2000/svg" xmlns:xlink="http://www.w3.org/1999/xlink" width="304.3003" height="304.30025" viewBox="0,0,304.3003,304.30025"><g transform="translate(-92.84986,-32.8499)"><g data-paper-data="{&quot;isPaintingLayer&quot;:true}" stroke-miterlimit="10" stroke-dasharray="" stroke-dashoffset="0" style="mix-blend-mode: normal"><path d="M251.19057,249.82758c-33.59046,-13.63109 -25.1395,-41.37538 -25.1395,-41.37538c0,0 26.03837,-26.43427 45.49052,-26.43427c19.25264,0 70.63001,26.43427 70.63001,26.43427c0,0 11.48962,21.89619 -2.4865,31.23943c-22.7729,15.22402 -68.85434,18.10599 -88.49454,10.13595z" fill="#94c9db" fill-rule="nonzero" stroke="none" stroke-width="0" stroke-linecap="butt" stroke-linejoin="miter"/><path d="M259.57039,220.91705c-2.72057,-12.92273 19.27172,-16.66737 37.91234,-12.19322c26.17019,6.28142 29.49666,20.07232 25.53497,21.77018c-8.33775,3.57332 -58.26378,15.04475 -63.4473,-9.57695z" fill="#fefefe" fill-rule="nonzero" stroke="none" stroke-width="0" stroke-linecap="butt" stroke-linejoin="miter"/><path d="M339.438,193.78275c0,0 21.47336,5.60174 25.20785,23.3406c3.73449,17.73886 -11.20348,49.79327 -69.08817,60.99676c-75.31234,15.5604 -111.10125,-29.25355 -90.25032,-62.2416c20.85093,-33.29925 56.63985,-4.97932 82.78133,-6.84658c22.40697,-1.55604 24.89664,-21.16214 51.34932,-15.24919z" fill="#ffffff" fill-rule="evenodd" stroke="none" stroke-width="15" stroke-linecap="butt" stroke-linejoin="miter"/><path d="M251.91799,227.08201c0,-1.24483 1.24484,-2.17846 2.48967,-1.86725c5.91295,2.17846 22.71818,7.15779 41.39066,8.40262c16.80523,0.93363 26.76389,0 31.43201,-0.93363c1.55604,-0.31121 2.80087,1.24483 2.17845,2.80087c-2.80087,8.40261 -14.62678,31.74322 -47.30362,29.87597c-28.31993,-3.11208 -31.1208,-23.02939 -30.18717,-38.27858z" fill="#ffffff" fill-rule="evenodd" stroke="#001026" stroke-width="15" stroke-linecap="round" stroke-linejoin="round"/><path d="M297.35434,200.94054c6.53537,0 13.38194,0.62241 13.69315,2.80087c0.31121,4.35691 -4.35691,13.07073 -9.33624,13.38194c-5.60174,0.62241 -18.67248,-7.15779 -18.67248,-12.13712c-0.31121,-3.73449 8.09141,-4.0457 14.31557,-4.0457z" fill="#001026" fill-rule="evenodd" stroke="#001026" stroke-width="15" stroke-linecap="round" stroke-linejoin="round"/><g fill-rule="evenodd" stroke-width="15"><path d="M334.07689,164.52919c9.02503,14.00436 9.33624,29.87597 0.62241,35.47771c-8.71382,5.60174 -23.02939,-0.93362 -32.36563,-14.93798c-9.02503,-14.00436 -9.33624,-29.87597 -0.62242,-35.47771c8.71382,-5.91295 23.3406,0.93362 32.36563,14.93798z" fill="#ffffff" stroke="#001026" stroke-linecap="round" stroke-linejoin="round"/><path d="M332.83207,182.26805c0,3.42329 -2.48966,6.22416 -5.60174,6.22416c-3.11208,0 -5.60175,-2.80087 -5.60175,-6.22416c0,-3.42329 2.48967,-6.22416 5.60175,-6.22416c3.11208,0 5.60174,2.80087 5.60174,6.22416" fill="#001026" stroke="none" stroke-linecap="butt" stroke-linejoin="miter"/></g><g fill-rule="evenodd" stroke-width="15"><path d="M256.89732,173.24302c9.33624,13.69315 8.71382,30.49838 0.3112,36.41133c-10.26986,5.91295 -23.96301,1.55604 -33.29925,-12.13711c-9.64745,-13.69315 -10.26987,-31.43201 -0.62242,-38.27858c9.64745,-7.15778 24.27423,0.31121 33.61047,14.00436z" fill="#ffffff" stroke="#001026" stroke-linecap="round" stroke-linejoin="round"/><path d="M255.03006,191.29309c0,3.42329 -2.48967,6.22416 -5.60174,6.22416c-3.11208,0 -5.60174,-2.80087 -5.60174,-6.22416c0,-3.42329 2.48966,-6.22416 5.60174,-6.22416c3.11208,0.31121 5.60174,2.80087 5.60174,6.22416" fill="#001026" stroke="none" stroke-linecap="butt" stroke-linejoin="miter"/></g><path d="M251.91799,227.08201c0,-1.24483 1.24483,-2.17846 2.48966,-1.86725c5.91295,2.17846 22.71818,7.15778 41.39066,8.40262c16.80523,0.93362 26.76389,0 31.43201,-0.93362c1.55604,-0.31121 2.80087,1.24483 2.17846,2.80087c-2.80087,8.40262 -14.62678,31.74322 -47.30362,29.87597c-28.31993,-3.11208 -31.1208,-23.02939 -30.18718,-38.27858z" fill="#ffffff" fill-rule="evenodd" stroke="#001026" stroke-width="7.5" stroke-linecap="round" stroke-linejoin="round"/><path d="M297.35436,200.94054c6.53537,0 13.38194,0.62242 13.69315,2.80087c0.31121,4.35691 -4.35691,13.07074 -9.33624,13.38194c-5.60174,0.62242 -18.67248,-7.15778 -18.67248,-12.13711c-0.31121,-3.7345 8.09141,-4.0457 14.31557,-4.0457z" fill="#001026" fill-rule="evenodd" stroke="#001026" stroke-width="7.5" stroke-linecap="round" stroke-linejoin="round"/><g fill-rule="evenodd" stroke-width="7.5"><path d="M334.07689,164.52919c9.02503,14.00436 9.33624,29.87597 0.62242,35.47771c-8.71382,5.60174 -23.02939,-0.93362 -32.36563,-14.93798c-9.02503,-14.00436 -9.33624,-29.87597 -0.62242,-35.47771c8.71382,-5.91295 23.3406,0.93362 32.36563,14.93798z" fill="#ffffff" stroke="#001026" stroke-linecap="round" stroke-linejoin="round"/><path d="M332.83207,182.26805c0,3.42329 -2.48966,6.22416 -5.60174,6.22416c-3.11208,0 -5.60174,-2.80087 -5.60174,-6.22416c0,-3.42329 2.48966,-6.22416 5.60174,-6.22416c3.11208,0 5.60174,2.80087 5.60174,6.22416" fill="#001026" stroke="none" stroke-linecap="butt" stroke-linejoin="miter"/></g><g fill-rule="evenodd" stroke-width="7.5"><path d="M256.89732,173.24303c9.33624,13.69315 8.71382,30.49838 0.31121,36.41134c-10.26986,5.91295 -23.96302,1.55604 -33.29926,-12.13711c-9.64745,-13.69315 -10.26986,-31.43201 -0.62242,-38.27858c9.64745,-7.15778 24.27422,0.31121 33.61046,14.00436z" fill="#ffffff" stroke="#001026" stroke-linecap="round" stroke-linejoin="round"/><path d="M255.03006,191.29309c0,3.42329 -2.48966,6.22416 -5.60174,6.22416c-3.11208,0 -5.60174,-2.80087 -5.60174,-6.22416c0,-3.42329 2.48966,-6.22416 5.60174,-6.22416c3.11208,0.31121 5.60174,2.80087 5.60174,6.22416" fill="#001026" stroke="none" stroke-linecap="butt" stroke-linejoin="miter"/></g><path d="M94.84987,275.23519c0,-59.99896 0,-148.11906 0,-181.81815c0,-26.16557 22.73163,-58.56714 54.69562,-58.56714c60.91162,0 155.35022,0 189.899,0c25.1397,0 55.70568,31.10369 55.70568,56.54696c0,34.37139 0,127.20919 0,187.87876c0,32.57375 -30.56593,55.87453 -55.70568,55.87453c-33.79375,0 -124.88841,0 -185.85858,0c-34.07175,0 -58.73599,-25.26921 -58.73599,-59.91496z" fill="#83a08b" fill-rule="nonzero" stroke="#83a08b" stroke-width="4" stroke-linecap="butt" stroke-linejoin="miter"/><path d="M281.21275,219.47385c0.41311,-10.70118 2.17047,-23.42848 2.04001,-38.83483c-0.2711,-32.01257 -2.1689,-69.18188 -2.31694,-78.83169c-0.07729,-5.03835 13.31959,23.74598 17.3626,32.2376c6.78923,14.25963 27.11776,49.27004 34.10454,71.14078c3.13847,9.82435 -0.79318,18.9633 -0.79318,18.9633c0,0 -1.54131,3.01232 -2.6941,4.7584c-3.24912,4.92131 -17.71679,12.10209 -17.71679,12.10209c0,0 -29.98578,-20.42741 -29.98613,-21.53565z" fill="#b61400" fill-rule="nonzero" stroke="none" stroke-width="20" stroke-linecap="butt" stroke-linejoin="miter"/><path d="M301.50347,165.53045c-6.77936,-16.3408 -14.50182,-38.22237 -14.50182,-38.22237c0,0 13.24048,14.74387 19.3855,25.84524c7.13326,12.88671 20.89312,46.92068 20.89312,46.92068c0,0 -12.7098,-3.04715 -25.7768,-34.54355z" data-paper-data="{&quot;index&quot;:null}" fill="#dda9a2" fill-rule="nonzero" stroke="none" stroke-width="20" stroke-linecap="butt" stroke-linejoin="miter"/><path d="M282.20864,153.32619c0.0533,3.47447 1.69225,4.82277 5.79305,20.9964c2.52393,9.95444 7.34193,45.50219 9.54326,59.57405c2.51079,16.05007 -16.83288,-16.52808 -16.83288,-16.52808c0,0 1.41928,-69.08072 1.49658,-64.04237z" fill="#480100" fill-rule="nonzero" stroke="none" stroke-width="20" stroke-linecap="butt" stroke-linejoin="miter"/><path d="M281.21275,219.47385c0.41311,-10.70118 2.17047,-23.42848 2.04001,-38.83483c-0.2711,-32.01257 -2.1689,-69.18188 -2.31694,-78.83169c-0.07729,-5.03835 13.31959,23.74598 17.3626,32.2376c6.78923,14.25963 27.11776,49.27004 34.10454,71.14078c1.88488,5.90026 2.16396,8.45324 2.34038,10.70096c0.11734,1.49489 -0.30259,3.61541 -1.73698,5.78321c-1.38416,2.09189 -23.0803,18.76399 -23.0803,18.76399c0,0 -28.71295,-19.85178 -28.7133,-20.96003z" fill="none" fill-rule="nonzero" stroke="#000000" stroke-width="20" stroke-linecap="butt" stroke-linejoin="miter"/><path d="M201.16999,219.90169c-0.00035,1.10825 -32.53179,25.56506 -32.53179,25.56506c0,0 -11.92201,-11.21018 -15.17113,-16.13149c-1.15278,-1.74607 -2.6941,-4.7584 -2.6941,-4.7584c0,0 -3.93166,-9.13895 -0.79319,-18.9633c6.98678,-21.87074 27.31532,-56.88116 34.10455,-71.14078c4.043,-8.49162 17.43989,-37.27595 17.3626,-32.2376c-0.14804,9.64981 -2.04584,46.81912 -2.31694,78.83169c-0.13046,15.40634 1.6269,28.13366 2.04001,38.83483z" data-paper-data="{&quot;index&quot;:null}" fill="#b61400" fill-rule="nonzero" stroke="none" stroke-width="20" stroke-linecap="butt" stroke-linejoin="miter"/><path d="M145.23805,222.08797l40.27862,-72.76592c0,0 -20.0823,41.88939 -21.7552,54.21647c-0.73566,5.42084 -0.80241,9.11646 1.28212,13.85942c3.3228,7.56042 -2.96192,13.53684 -2.96192,13.53684z" data-paper-data="{&quot;index&quot;:null}" fill="#dda9a2" fill-rule="nonzero" stroke="none" stroke-width="20" stroke-linecap="butt" stroke-linejoin="miter"/><path d="M196.89757,220.67456c0,0 -11.30872,-14.34041 -14.89233,-17.87215c-1.78387,-1.75805 -2.56511,-5.07421 -1.56687,-9.53074c2.85983,-12.76734 6.94897,-39.80955 12.35165,-61.11783c4.1008,-16.17364 8.60361,-26.4442 8.65691,-29.91867c0.07729,-5.03835 -4.54936,118.4394 -4.54936,118.4394z" data-paper-data="{&quot;index&quot;:null}" fill="#480100" fill-rule="nonzero" stroke="none" stroke-width="20" stroke-linecap="butt" stroke-linejoin="miter"/><path d="M201.16999,219.90169c-0.00035,1.10825 -32.53179,25.56506 -32.53179,25.56506c0,0 -14.39097,-13.72384 -17.43673,-16.6284c-1.08136,-1.03123 -2.42056,-4.02537 -2.70276,-6.47068c-0.34621,-2.99993 -0.78203,-6.77643 -1.0063,-8.71971c-0.276,-2.39158 0.14989,-7.65075 1.58924,-10.43569c7.20989,-13.95008 29.34328,-56.85288 35.00268,-68.7395c4.043,-8.49162 17.43989,-37.27595 17.3626,-32.2376c-0.14804,9.64981 -2.04584,46.81912 -2.31694,78.83169c-0.13046,15.40634 1.6269,28.13366 2.04001,38.83483z" data-paper-data="{&quot;index&quot;:null}" fill="none" fill-rule="nonzero" stroke="#000000" stroke-width="20" stroke-linecap="butt" stroke-linejoin="miter"/><path d="M149.37082,264.95594c12.33641,-15.71517 42.18398,-45.42458 92.80272,-47.68314c26.80254,-0.0441 61.85657,9.1095 77.16547,36.84871" fill="none" fill-rule="nonzero" stroke="#000000" stroke-width="20" stroke-linecap="round" stroke-linejoin="miter"/></g></g></svg>