<svg version="1.1" xmlns="http://www.w3.org/2000/svg" xmlns:xlink="http://www.w3.org/1999/xlink" width="43.30158" height="40.71642" viewBox="0,0,43.30158,40.71642"><g transform="translate(-218.19841,-159.5)"><g data-paper-data="{&quot;isPaintingLayer&quot;:true}" fill-rule="nonzero" stroke-linejoin="miter" stroke-miterlimit="10" stroke-dasharray="" stroke-dashoffset="0" style="mix-blend-mode: normal"><path d="M249.33586,181.411c0,2.36549 0.03855,5.54382 -1.29647,7.27837c-1.85986,2.41646 -4.76823,3.97163 -8.03687,3.97163c-5.61489,0 -9.49999,-2.75575 -9.33333,-11.08333c0.11327,-5.65978 3.71843,-9.41667 9.33333,-9.41667c5.6149,0 9.33334,3.58908 9.33334,9.25z" fill="#7e7e7e" stroke="none" stroke-width="0" stroke-linecap="butt"/><path d="M230.75252,176.339c0,-4.97056 4.02944,-9 9,-9c4.97056,0 9,4.02944 9,9c0,4.97056 -4.02944,9 -9,9c-4.97056,0 -9,-4.02944 -9,-9z" fill="#00bf00" stroke="#003c00" stroke-width="4.5" stroke-linecap="butt"/><path d="M243.91919,178.339c0,0 -1.15824,3.02186 -5.19363,2.44981c-2.57042,-0.36438 -3.30637,-3.11648 -3.30637,-3.11648" fill="none" stroke="#003c00" stroke-width="2" stroke-linecap="round"/><path d="M235.60313,174.46663c0,0 0.42282,-1.84358 2.42694,-2.55053c1.12913,-0.39829 2.04441,-0.38869 2.7539,-0.21266" data-paper-data="{&quot;index&quot;:null}" fill="none" stroke="#ffffff" stroke-width="2" stroke-linecap="round"/><path d="M218.19842,200.21642v-40.71642h43.30158v40.71642z" fill="none" stroke="none" stroke-width="none" stroke-linecap="butt"/></g></g></svg>