<svg version="1.1" xmlns="http://www.w3.org/2000/svg" xmlns:xlink="http://www.w3.org/1999/xlink" width="354.75" height="91.4027" viewBox="0,0,354.75,91.4027"><g transform="translate(77.25,-123.8585)"><g data-paper-data="{&quot;isPaintingLayer&quot;:true}" fill-rule="nonzero" stroke-linejoin="miter" stroke-miterlimit="10" stroke-dasharray="" stroke-dashoffset="0" style="mix-blend-mode: normal"><text transform="translate(-77,145.44444) scale(0.5,0.5)" font-size="40" xml:space="preserve" fill="#ffffff" fill-rule="nonzero" stroke="none" stroke-width="1" stroke-linecap="butt" stroke-linejoin="miter" stroke-miterlimit="10" stroke-dasharray="" stroke-dashoffset="0" font-family="Sans Serif" font-weight="normal" text-anchor="start" style="mix-blend-mode: normal"><tspan x="0" dy="0"> </tspan></text><path d="M210.81742,204.82784c0,-12.01784 0,-46.0465 0,-50.94544c0,-1.57362 1.66178,-2.90196 3.54684,-2.90196c6.17489,0 40.11775,0 51.26788,0c2.23182,0 3.55046,1.18889 3.55046,3.2244c0,6.34387 0,40.15015 0,51.26788c0,2.22971 -2.03698,3.54683 -4.51777,3.54683c-6.71661,0 -38.19001,0 -49.65568,0c-2.61703,0 -4.19171,-1.57351 -4.19171,-4.19171z" fill="#a3b4e0" stroke="#293b6b" stroke-width="3" stroke-linecap="butt"/><path d="M244.15432,179.56576c2.89836,1.55376 4.34755,3.79476 4.34755,6.72301c0,2.30077 -0.8964,4.3326 -2.68921,6.09553c-1.7928,1.73304 -4.15332,2.59957 -7.08157,2.59957c-2.89836,0 -5.16926,-0.8964 -6.81265,-2.68921c-1.61352,-1.7928 -2.42029,-3.42127 -2.42029,-4.88539c0,-0.59761 0.2241,-1.10556 0.6723,-1.52388c0.4482,-0.4482 1.01592,-0.6723 1.70316,-0.6723c0.4482,0 0.83664,0.11952 1.16532,0.35856c0.35856,0.23905 0.68725,0.80676 0.98604,1.70316c0.92628,2.68921 2.49498,4.03381 4.70611,4.03381c1.1952,0 2.27088,-0.43326 3.22705,-1.29978c0.98604,-0.86653 1.47906,-2.06172 1.47906,-3.58561c0,-1.40437 -0.40338,-2.52487 -1.21014,-3.36151c-0.77689,-0.83664 -1.82268,-1.25496 -3.13741,-1.25496l-2.37546,0.13446c-1.37448,0 -2.06172,-0.62748 -2.06172,-1.88244c0,-1.37448 0.83664,-2.06172 2.50993,-2.06172c2.0916,0 3.46609,-0.38844 4.12345,-1.16532c0.65736,-0.80676 0.98604,-1.67329 0.98604,-2.59957c0,-1.01592 -0.34362,-1.85257 -1.03086,-2.50993c-0.65736,-0.68725 -1.53883,-1.03086 -2.64439,-1.03086c-2.00196,0 -3.36151,1.00099 -4.07863,3.00295c-0.4482,1.1952 -1.15038,1.7928 -2.10654,1.7928c-0.65736,0 -1.18027,-0.20916 -1.5687,-0.62748c-0.35856,-0.41833 -0.53784,-0.92628 -0.53784,-1.52388c0,-1.43424 0.79182,-2.83861 2.37546,-4.21309c1.61352,-1.40437 3.72007,-2.10654 6.31963,-2.10654c2.5398,0 4.5567,0.64243 6.05071,1.92726c1.49401,1.28484 2.241,2.89836 2.241,4.84057c0,2.21113 -1.04581,4.13839 -3.13741,5.78179z" fill="#3e4f7b" stroke="none" stroke-width="1" stroke-linecap="square"/><path d="M201.19842,215.2612v-71.74627h76.30158v71.74628z" fill="none" stroke="none" stroke-width="none" stroke-linecap="butt"/></g></g></svg>