<svg version="1.1" xmlns="http://www.w3.org/2000/svg" xmlns:xlink="http://www.w3.org/1999/xlink" width="493.5045" height="422.56464" viewBox="0,0,493.5045,422.56464"><g transform="translate(6.75222,44.18468)"><g data-paper-data="{&quot;isPaintingLayer&quot;:true}" fill-rule="nonzero" stroke-linecap="butt" stroke-linejoin="miter" stroke-miterlimit="10" stroke-dasharray="" stroke-dashoffset="0" style="mix-blend-mode: normal"><path d="M486.75206,170.1443c0.00014,0.09256 0.00022,0.18512 0.00022,0.2777c0,114.85201 -110.47474,207.95796 -246.75225,207.95796c-136.2775,0 -246.75225,-93.10595 -246.75225,-207.95796c0,-114.85201 110.47475,-207.95796 246.75225,-207.95796c125.2106,0 228.63907,78.59795 244.6119,180.44548" fill="none" stroke="none" stroke-width="0"/><path d="M486.72565,170.23461c-1.9588,115.24167 -111.67141,208.14534 -246.72561,208.14534c-136.2775,0 -246.75225,-94.59431 -246.75225,-211.28231v-0.00001c0,-116.688 110.47475,-211.28231 246.75225,-211.28231c126.91774,0 231.45535,82.04672 245.21631,187.57545" fill="none" stroke="none" stroke-width="0"/><path d="M477.49291,201.11977c-19.06565,98.43364 -119.48121,173.51403 -240.49285,173.51403c-134.62065,0 -243.75225,-92.91711 -243.75225,-207.53617v-0.00001c0,-114.61906 109.1316,-207.53617 243.75225,-207.53617c124.22791,0 226.75038,79.12445 241.83951,181.41113" fill="none" stroke="none" stroke-width="0"/><path d="M102.15986,111.05792c0.80452,-7.87277 13.91586,-28.759 20.47311,-30.13947c8.22505,-1.73159 33.79876,-1.06692 33.79876,-1.06692v173.58225c0,0 -37.29848,13.18978 -49.13736,-25.20634c-11.83888,-38.39612 -6.84644,-100.417 -5.13451,-117.16952z" fill="#7c0235" stroke="none" stroke-width="0"/><path d="M153.68227,183.82947c-1.29557,-40.59935 -2.18976,-64.64258 3.82278,-105.36377c6.01254,-40.72119 25.26336,-69.42694 25.26336,-69.42694c0,0 15.50689,-13.75967 33.92797,-13.75967c13.89376,0 29.0474,-1.28211 55.15115,1.51542c24.08114,2.58076 49.78668,36.18664 49.78668,36.18664c0,0 47.80199,42.92692 40.64743,65.04957c-3.58511,11.08554 -19.76397,29.28712 -19.76397,29.28712c0,0 0.59329,36.34216 -0.79635,74.71221c-0.90198,24.90517 -3.32381,49.05103 -4.9577,70.156c-1.42066,18.35064 0.03095,29.12346 -3.15369,34.62328c-4.80191,8.29283 -49.54227,17.30589 -59.8792,1.52143c-2.93256,-4.478 -5.78002,-27.2419 -0.48339,-37.24829c5.72828,-10.82186 19.76378,-8.75285 19.76378,-8.75285l-53.31565,-4.11349c0,0 -5.16002,7.78362 -6.05223,20.04352c-0.98152,13.48688 1.94373,31.8876 -6.58143,39.6358c-11.28457,10.25613 -36.84849,10.31829 -51.46441,9.39217c-6.46334,-0.40954 -11.39168,-5.90929 -12.32711,-14.40634c0,0 -7.92048,-76.79596 -9.58802,-129.05181z" fill="#7c0235" stroke="none" stroke-width="0"/><path d="M185.35974,3.46181c0,0 63.1772,-9.49067 84.8093,-8.07549c21.0492,1.37705 53.70547,22.2438 53.70547,22.2438l8.89916,104.12054c0,0 11.99996,59.6856 -15.04336,88.48386c-27.04332,28.79826 -72.3897,23.58179 -98.63852,15.3269c-55.94872,-17.5951 -43.50613,-126.09913 -43.50613,-147.08975c0,-20.99062 9.77408,-75.00986 9.77408,-75.00986z" fill="#c60909" stroke="none" stroke-width="0"/><path d="M105.87593,126.73628l5.21828,-40.89916h41.7462l-0.30457,31.9251c0,0 -16.2689,-6.27528 -25.59801,-4.44172c-9.32912,1.83355 -21.0619,13.41578 -21.0619,13.41578z" fill="#c60909" stroke="none" stroke-width="0"/><path d="M156.43173,253.43378c0,0 -37.31476,6.92079 -44.13735,-15.20635c-6.82259,-22.12714 -12.84645,-50.41699 -12.13452,-71.16951c0.57736,-16.82987 -5.08414,-80.759 22.47311,-86.13947c6.56678,-1.33438 33.79876,-1.06692 33.79876,-1.06692" fill="none" stroke="#240101" stroke-width="16"/><path d="M153.6824,183.82968c-1.29557,-40.59935 -2.18976,-64.64258 3.82278,-105.36377c5.99333,-40.59109 13.20371,-70.12069 39.55549,-82.12102c9.51231,-4.33181 71.94161,-6.97046 85.36033,-1.64881c26.33969,10.44591 43.84607,34.67306 49.21334,49.29128c10.82684,29.4878 10.88346,83.33068 10.88346,83.33068c0,0 2.09479,38.34216 0.70515,76.71221c-0.90198,24.90517 -6.32982,43.05103 -7.96371,64.156c-1.63389,21.10497 1.69592,25.34306 -6.65219,37.62328c-8.34812,12.28022 -42.12612,15.67952 -51.3747,3.02293c-7.44206,-10.18438 -6.81086,-31.67606 -6.21023,-39.90978c0.33781,-4.63084 -1.68128,12.76198 0.22534,9.15999c5.29663,-10.00639 10.76378,-15.75285 10.76378,-15.75285l-48.31565,-1.11349c0,0 0.83999,4.78362 -0.05224,17.04352c-0.98152,13.48687 1.94373,36.3891 -6.58143,44.13731c-8.52516,7.74821 -30.84849,5.81679 -45.46441,4.89067c-5.27628,-0.33433 -5.60856,-1.61163 -7.80996,-3.4987c-3.89673,-3.34034 -7.24362,-8.59127 -8.51115,-13.90463c-3.93543,-16.49705 -9.92648,-73.79897 -11.59402,-126.05482z" fill="none" stroke="#240101" stroke-width="16"/><path d="M309.66299,38.96675c34.9912,13.39437 59.77318,36.94132 52.61863,59.06398c-3.58511,11.08554 -19.76397,29.28712 -19.76397,29.28712c0,0 -63.93902,23.16195 -95.57769,3.52082c-17.66536,-10.96657 -42.14706,-49.79267 -26.37385,-72.23514c17.06702,-24.28335 70.91203,-26.59781 89.0969,-19.63677z" fill="#4a646d" stroke="none" stroke-width="0"/><path d="M241.83584,62.42986c5.97118,-19.89599 26.03837,-25.43427 45.49052,-25.43427c19.25264,0 38.63001,9.43427 38.63001,9.43427c0,0 33.59001,20.9898 21.5135,48.23943c-8.64009,19.49566 -60.85434,18.10599 -80.49454,10.13595c-19.6402,-7.97004 -31.11067,-22.47939 -25.13949,-42.37538z" fill="#94c9db" stroke="none" stroke-width="0"/><path d="M323.2675,50.70148c26.17019,6.28142 18.38326,33.7961 2.53497,27.77018c-18.94713,-7.20418 -34.0349,-5.36728 -36.4473,-17.57695c-3.38666,-17.14057 15.27171,-14.66738 33.91233,-10.19323z" fill="#fefefe" stroke="none" stroke-width="0"/><path d="M343.51764,128.31783c-25.09967,10.51942 -74.87795,19.19815 -107.57769,-0.47918c-18.96117,-11.41004 -26.14706,-47.79267 -10.37385,-70.23514c15.77321,-22.44247 51.80846,-21.31824 85.0969,-18.63677c52.9583,4.26593 68.36079,74.47025 32.85464,89.35109z" fill="none" stroke="#240101" stroke-width="16"/></g></g></svg>