<svg version="1.1" xmlns="http://www.w3.org/2000/svg" xmlns:xlink="http://www.w3.org/1999/xlink" width="706.21021" height="368" viewBox="0,0,706.21021,368"><g transform="translate(23.10511,4)"><g data-paper-data="{&quot;isPaintingLayer&quot;:true}" fill-rule="nonzero" stroke-linejoin="miter" stroke-miterlimit="10" stroke-dasharray="" stroke-dashoffset="0" style="mix-blend-mode: normal"><path d="M-22.1051,363v-366h704.21021v366z" fill="#000000" stroke="#000000" stroke-width="2" stroke-linecap="butt"/><g fill="#cdcdcd" stroke="none" stroke-width="1" stroke-linecap="square"><path d="M155.90068,159.35734v10.83761c0,0.68268 -0.02845,1.17478 -0.08534,1.4763c-0.0512,0.30152 -0.21903,0.5689 -0.50348,0.80215c-0.28445,0.22756 -0.61157,0.34134 -0.98136,0.34134c-0.36979,0 -0.69691,-0.10525 -0.98136,-0.31574c-0.28445,-0.21618 -0.45228,-0.48072 -0.50348,-0.79362c-0.0512,-0.3129 -0.0768,-0.81638 -0.0768,-1.51044v-10.83761h-2.89287c-0.63148,0 -1.06669,-0.0256 -1.30563,-0.0768c-0.23325,-0.0512 -0.43806,-0.18489 -0.61442,-0.40108c-0.17636,-0.21618 -0.26454,-0.4665 -0.26454,-0.75095c0,-0.21618 0.05689,-0.42668 0.17067,-0.63148c0.11947,-0.21049 0.28161,-0.36125 0.48641,-0.45228c0.20481,-0.09102 0.71397,-0.13654 1.52751,-0.13654h8.89196c0.73389,0 1.20038,0.02845 1.3995,0.08534c0.20481,0.05689 0.38686,0.19627 0.54615,0.41814c0.16498,0.21618 0.24747,0.45512 0.24747,0.71682c0,0.21049 -0.06258,0.42383 -0.18774,0.64002c-0.11947,0.21049 -0.28161,0.36125 -0.48641,0.45228c-0.20481,0.09102 -0.71113,0.13654 -1.51897,0.13654zM172.96778,165.46736v5.30787c0,1.35968 -0.49495,2.03952 -1.48484,2.03952c-0.44374,0 -0.79077,-0.14222 -1.04109,-0.42668c-0.25032,-0.29014 -0.37548,-0.82775 -0.37548,-1.61284v-4.65078c0,-1.09798 -0.17636,-1.85178 -0.52908,-2.26139c-0.35272,-0.40961 -0.84198,-0.61442 -1.46777,-0.61442c-0.55184,0 -1.03256,0.1536 -1.44217,0.46081c-0.40961,0.30152 -0.69975,0.677 -0.87042,1.12643c-0.17067,0.44943 -0.25601,1.23452 -0.25601,2.35526v3.37075c0,0.91024 -0.13085,1.51328 -0.39254,1.80911c-0.25601,0.29583 -0.61442,0.44374 -1.07523,0.44374c-0.44943,0 -0.80215,-0.14222 -1.05816,-0.42668c-0.25601,-0.29014 -0.38401,-0.88464 -0.38401,-1.78351v-11.56296c0,-0.69975 0.03413,-1.18616 0.1024,-1.45924c0.06827,-0.27876 0.22187,-0.50348 0.46081,-0.67415c0.24463,-0.17636 0.52908,-0.26454 0.85335,-0.26454c0.36979,0 0.677,0.09956 0.92162,0.29867c0.24463,0.19912 0.40108,0.45797 0.46935,0.77655c0.06827,0.3129 0.1024,0.83629 0.1024,1.57017v3.44755c0.97282,-1.17194 2.15614,-1.75791 3.54996,-1.75791c1.17763,0 2.12485,0.36125 2.84167,1.08376c0.71682,0.71682 1.07523,1.85178 1.07523,3.40489zM183.97819,167.60928h-5.71748c0.02845,1.08092 0.32427,1.89729 0.88749,2.44913c0.5689,0.55184 1.2459,0.82775 2.03098,0.82775c0.97851,0 1.89729,-0.42668 2.75634,-1.28003c0.34703,-0.35841 0.60304,-0.58028 0.76802,-0.66562c0.17067,-0.08534 0.35841,-0.128 0.56321,-0.128c0.26169,0 0.48641,0.08249 0.67415,0.24747c0.19343,0.16498 0.29014,0.36694 0.29014,0.60588c0,0.65424 -0.44943,1.34261 -1.3483,2.06512c-0.89318,0.72251 -2.10494,1.08376 -3.63529,1.08376c-1.95134,0 -3.43049,-0.54899 -4.43745,-1.64697c-1.00127,-1.09798 -1.5019,-2.52308 -1.5019,-4.27531c0,-1.7636 0.50063,-3.1887 1.5019,-4.27531c1.00696,-1.09229 2.40646,-1.63844 4.19851,-1.63844c1.71809,0 3.04079,0.51486 3.9681,1.54457c0.933,1.02971 1.3995,2.15045 1.3995,3.36222c0,0.52908 -0.15645,0.95007 -0.46935,1.26297c-0.30721,0.30721 -0.95007,0.46081 -1.92858,0.46081zM178.26071,165.95378h5.29933c-0.03413,-0.96714 -0.30152,-1.70386 -0.80215,-2.21019c-0.49495,-0.50632 -1.10936,-0.75949 -1.84325,-0.75949c-1.54173,0 -2.42637,0.98989 -2.65393,2.96967zM203.29174,162.9585v-0.39254c0,-0.52908 0.13085,-0.92447 0.39254,-1.18616c0.26169,-0.26739 0.59166,-0.40108 0.98989,-0.40108c0.43806,0 0.77655,0.1536 1.01549,0.46081c0.23894,0.30721 0.35841,0.97282 0.35841,1.99685v7.82526c0,2.31544 -0.48926,3.87423 -1.46777,4.67638c-0.97851,0.80216 -2.39224,1.20324 -4.24117,1.20324c-1.65551,0 -2.94976,-0.30721 -3.88276,-0.92163c-0.933,-0.60873 -1.3995,-1.25443 -1.3995,-1.93712c0,-0.36979 0.12232,-0.66846 0.36694,-0.89602c0.25032,-0.22187 0.54046,-0.33281 0.87042,-0.33281c0.30721,0 0.55184,0.07111 0.73389,0.21334c0.18205,0.14792 0.48926,0.49495 0.92162,1.04109c0.43237,0.55184 1.16625,0.82775 2.20166,0.82775c0.5689,0 1.09514,-0.09102 1.57871,-0.27307c0.48926,-0.17636 0.84767,-0.4921 1.07523,-0.94722c0.23325,-0.44943 0.34419,-1.54457 0.33281,-3.28542c-0.89318,1.28003 -2.11063,1.92005 -3.65236,1.92005c-1.48484,0 -2.65962,-0.55468 -3.52436,-1.66404c-0.86473,-1.11505 -1.2971,-2.54015 -1.2971,-4.27531c0,-1.72946 0.44374,-3.10052 1.33123,-4.11317c0.89318,-1.01265 2.0509,-1.51897 3.47315,-1.51897c1.55311,0 2.82745,0.65993 3.82303,1.97978zM197.6084,166.84126c0,1.13212 0.24747,1.99685 0.74242,2.5942c0.49495,0.59166 1.17194,0.88749 2.03098,0.88749c0.74526,0 1.39097,-0.2873 1.93712,-0.86189c0.54615,-0.58028 0.81922,-1.44217 0.81922,-2.58567c0,-1.13212 -0.25316,-2.02814 -0.75949,-2.68807c-0.50063,-0.65993 -1.18048,-0.98989 -2.03952,-0.98989c-0.82491,0 -1.48768,0.31005 -1.98832,0.93016c-0.49495,0.61442 -0.74242,1.51897 -0.74242,2.71367zM216.331,171.17631c-1.38812,1.09229 -2.7478,1.63844 -4.07904,1.63844c-1.25728,0 -2.22441,-0.31859 -2.90141,-0.95576c-0.6713,-0.64286 -1.00696,-1.4251 -1.00696,-2.34673c0,-0.79077 0.22756,-1.42795 0.68268,-1.91151c0.46081,-0.48926 0.96145,-0.8306 1.5019,-1.02403c0.54046,-0.19343 1.41941,-0.4153 2.63687,-0.66562c1.22314,-0.25601 2.20734,-0.48926 2.95261,-0.69975c-0.00569,-0.8818 -0.1792,-1.4763 -0.52055,-1.78351c-0.34134,-0.3129 -0.86189,-0.46935 -1.56164,-0.46935c-1.31985,0 -2.18459,0.36979 -2.5942,1.10936c-0.22756,0.42099 -0.42952,0.71966 -0.60588,0.89602c-0.17636,0.17636 -0.43237,0.26454 -0.76802,0.26454c-0.30721,0 -0.58597,-0.09956 -0.83629,-0.29867c-0.24463,-0.20481 -0.36694,-0.4665 -0.36694,-0.78509c0,-0.75664 0.40676,-1.47346 1.2203,-2.15045c0.81922,-0.677 2.10779,-1.01549 3.8657,-1.01549c1.78067,0 3.08346,0.30721 3.90837,0.92162c0.82491,0.61442 1.21176,1.85747 1.16056,3.72916l-0.06827,2.73074c-0.02845,0.84198 0.05973,1.53035 0.26454,2.06512c0.20481,0.53477 0.30721,0.94438 0.30721,1.22883c0,0.30721 -0.13654,0.57744 -0.40961,0.81069c-0.26739,0.23325 -0.57175,0.34988 -0.91309,0.34988c-0.59166,0 -1.21461,-0.54615 -1.86885,-1.63844zM216.13473,166.96073c-0.43237,0.17067 -1.14918,0.35556 -2.15045,0.55468c-0.99558,0.19912 -1.70102,0.42668 -2.11632,0.68268c-0.4153,0.25601 -0.62295,0.62864 -0.62295,1.11789c0,0.42099 0.16498,0.79077 0.49495,1.10936c0.32996,0.31859 0.79647,0.47788 1.3995,0.47788c0.64286,0 1.23736,-0.17352 1.78351,-0.52055c0.55184,-0.35272 0.89033,-0.77086 1.01549,-1.25443c0.13085,-0.48357 0.19627,-1.20608 0.19627,-2.16752zM238.45209,165.29669v5.02626c0,0.68837 -0.02845,1.17478 -0.08534,1.45924c-0.05689,0.27876 -0.21334,0.52055 -0.46935,0.72535c-0.25032,0.20481 -0.54899,0.30721 -0.89602,0.30721c-0.34134,0 -0.64002,-0.09956 -0.89602,-0.29867c-0.25032,-0.20481 -0.40676,-0.45797 -0.46935,-0.75949c-0.06258,-0.30152 -0.09387,-0.7794 -0.09387,-1.43364v-4.25824c0,-1.2459 -0.14792,-2.0253 -0.44374,-2.33819c-0.29583,-0.31859 -0.69975,-0.47788 -1.21176,-0.47788c-0.53477,0 -0.9842,0.14792 -1.3483,0.44374c-0.3641,0.29583 -0.61442,0.68268 -0.75095,1.16056c-0.13654,0.47219 -0.20481,1.21745 -0.20481,2.23579v3.23421c0,0.68837 -0.02845,1.17763 -0.08534,1.46777c-0.0512,0.28445 -0.20765,0.52623 -0.46935,0.72535c-0.25601,0.19912 -0.55753,0.29867 -0.90456,0.29867c-0.44943,0 -0.80215,-0.15076 -1.05816,-0.45228c-0.25601,-0.30152 -0.38401,-0.98136 -0.38401,-2.03952v-4.00223c0,-1.13781 -0.08534,-1.93427 -0.25601,-2.38939c-0.17067,-0.45512 -0.61442,-0.68268 -1.33123,-0.68268c-0.74526,0 -1.33408,0.23894 -1.76644,0.71682c-0.43237,0.47219 -0.64855,1.49053 -0.64855,3.05501v3.30248c0,0.6713 -0.02276,1.1435 -0.06827,1.41657c-0.04551,0.26739 -0.19627,0.51486 -0.45228,0.74242c-0.25601,0.22187 -0.55468,0.33281 -0.89602,0.33281c-0.32427,0 -0.6201,-0.09956 -0.88749,-0.29867c-0.26739,-0.19912 -0.43521,-0.43806 -0.50348,-0.71682c-0.06258,-0.28445 -0.09387,-0.77655 -0.09387,-1.4763v-7.05724c0,-0.6713 0.03129,-1.12643 0.09387,-1.36537c0.06258,-0.24463 0.21903,-0.45797 0.46935,-0.64002c0.25032,-0.18774 0.52339,-0.28161 0.81922,-0.28161c0.92731,0 1.39097,0.59166 1.39097,1.77498c0.97851,-1.18332 2.1533,-1.77498 3.52436,-1.77498c1.47346,0 2.543,0.59166 3.20861,1.77498c0.98989,-1.18332 2.14477,-1.77498 3.46462,-1.77498c1.01834,0 1.88876,0.28161 2.61127,0.84482c0.7282,0.55753 1.09229,1.71524 1.09229,3.47315zM249.40917,167.60928h-5.71748c0.02845,1.08092 0.32427,1.89729 0.88749,2.44913c0.5689,0.55184 1.2459,0.82775 2.03098,0.82775c0.97851,0 1.89729,-0.42668 2.75634,-1.28003c0.34703,-0.35841 0.60304,-0.58028 0.76802,-0.66562c0.17067,-0.08534 0.35841,-0.128 0.56321,-0.128c0.26169,0 0.48641,0.08249 0.67415,0.24747c0.19343,0.16498 0.29014,0.36694 0.29014,0.60588c0,0.65424 -0.44943,1.34261 -1.3483,2.06512c-0.89318,0.72251 -2.10494,1.08376 -3.63529,1.08376c-1.95134,0 -3.43049,-0.54899 -4.43745,-1.64697c-1.00127,-1.09798 -1.5019,-2.52308 -1.5019,-4.27531c0,-1.7636 0.50063,-3.1887 1.5019,-4.27531c1.00696,-1.09229 2.40646,-1.63844 4.19851,-1.63844c1.71809,0 3.04079,0.51486 3.9681,1.54457c0.933,1.02971 1.3995,2.15045 1.3995,3.36222c0,0.52908 -0.15645,0.95007 -0.46935,1.26297c-0.30721,0.30721 -0.95007,0.46081 -1.92858,0.46081zM243.69169,165.95378h5.29933c-0.03413,-0.96714 -0.30152,-1.70386 -0.80215,-2.21019c-0.49495,-0.50632 -1.10936,-0.75949 -1.84325,-0.75949c-1.54173,0 -2.42637,0.98989 -2.65393,2.96967zM263.705,172.52461l-3.56702,-9.01996c-0.22187,-0.58597 -0.33281,-0.98705 -0.33281,-1.20323c0,-0.33565 0.13938,-0.64002 0.41814,-0.91309c0.27876,-0.27307 0.60588,-0.40961 0.98136,-0.40961c0.32996,0 0.60873,0.1024 0.83629,0.30721c0.23325,0.19912 0.46081,0.61157 0.68268,1.23736l2.45766,7.16818l2.33819,-6.64763c0.30721,-0.86473 0.55184,-1.4251 0.73389,-1.68111c0.18205,-0.25601 0.4921,-0.38401 0.93016,-0.38401c0.39823,0 0.71113,0.13369 0.93869,0.40108c0.23325,0.26169 0.34988,0.53193 0.34988,0.81069c0,0.32996 -0.11662,0.79647 -0.34988,1.3995l-3.79743,9.94158c-0.50632,1.32555 -1.02971,2.25854 -1.57017,2.799c-0.54046,0.54046 -1.45924,0.8107 -2.75634,0.8107c-1.69533,0 -2.543,-0.43237 -2.543,-1.29711c0,-0.28445 0.09671,-0.52339 0.29014,-0.71682c0.19343,-0.18774 0.44943,-0.28161 0.76802,-0.28161c0.0512,0 0.21334,0.00853 0.48641,0.0256c0.27876,0.02276 0.44374,0.03413 0.49495,0.03413c0.54046,0 0.93584,-0.13085 1.18616,-0.39254c0.25601,-0.25601 0.50632,-0.69975 0.75095,-1.33123zM277.67868,160.97872c1.80342,0 3.22284,0.55753 4.25824,1.67258c1.0354,1.10936 1.55311,2.52308 1.55311,4.24117c0,1.72946 -0.52623,3.14888 -1.57871,4.25824c-1.04678,1.10936 -2.43491,1.66404 -4.16437,1.66404c-1.87738,0 -3.32524,-0.56037 -4.34358,-1.68111c-1.01834,-1.12643 -1.52751,-2.54015 -1.52751,-4.24117c0,-1.72378 0.51486,-3.14035 1.54457,-4.24971c1.0354,-1.10936 2.45482,-1.66404 4.25824,-1.66404zM277.67868,170.64723c0.8818,0 1.57871,-0.32996 2.09072,-0.98989c0.5177,-0.66562 0.77655,-1.58724 0.77655,-2.76487c0,-1.17763 -0.25885,-2.09925 -0.77655,-2.76487c-0.51201,-0.66562 -1.20892,-0.99843 -2.09072,-0.99843c-0.87042,0 -1.56448,0.33565 -2.08219,1.00696c-0.5177,0.66562 -0.77655,1.58439 -0.77655,2.75634c0,1.18332 0.25601,2.10494 0.76802,2.76487c0.5177,0.65993 1.21461,0.98989 2.09072,0.98989zM285.69382,168.48824v-5.1116c0,-0.63148 0.0256,-1.08661 0.0768,-1.36537c0.0512,-0.28445 0.20196,-0.52623 0.45228,-0.72535c0.25601,-0.20481 0.56037,-0.30721 0.91309,-0.30721c0.34134,0 0.64002,0.09671 0.89602,0.29014c0.26169,0.18774 0.42383,0.43806 0.48641,0.75095c0.06258,0.3129 0.09387,0.78509 0.09387,1.41657v4.00223c0,1.31417 0.20196,2.15614 0.60588,2.52593c0.40961,0.36979 0.86189,0.55468 1.35683,0.55468c0.55753,0 1.04678,-0.15645 1.46777,-0.46935c0.42668,-0.31859 0.71682,-0.69975 0.87042,-1.1435c0.1536,-0.44374 0.23041,-1.31985 0.23041,-2.62833v-2.90141c0,-0.6201 0.02845,-1.07807 0.08534,-1.3739c0.06258,-0.29583 0.22187,-0.54046 0.47788,-0.73389c0.25601,-0.19343 0.55753,-0.29014 0.90456,-0.29014c0.33565,0 0.63148,0.09671 0.88749,0.29014c0.26169,0.18774 0.41814,0.42668 0.46935,0.71682c0.05689,0.28445 0.08534,0.74811 0.08534,1.39097v7.18525c0,0.59166 -0.02845,1.02118 -0.08534,1.28857c-0.05689,0.26169 -0.19912,0.48926 -0.42668,0.68268c-0.22187,0.18774 -0.50348,0.28161 -0.84482,0.28161c-0.93869,0 -1.38812,-0.6713 -1.3483,-2.01392c-0.97851,1.34261 -2.26424,2.01392 -3.85716,2.01392c-1.05247,0 -1.94849,-0.3129 -2.68807,-0.93869c-0.73957,-0.63148 -1.10936,-1.76076 -1.10936,-3.38782zM305.94606,161.23472v-1.74938c0,-0.72251 0.02845,-1.21176 0.08534,-1.46777c0.06258,-0.26169 0.21903,-0.4921 0.46935,-0.69122c0.25601,-0.20481 0.55468,-0.30721 0.89602,-0.30721c0.3129,0 0.5945,0.09387 0.84482,0.28161c0.25032,0.18205 0.4153,0.40392 0.49495,0.66562c0.07965,0.26169 0.11947,0.68837 0.11947,1.28003v1.98832h0.56321c0.71113,0 1.18332,0.08818 1.41657,0.26454c0.23894,0.17067 0.35841,0.42383 0.35841,0.75949c0,0.71682 -0.59735,1.07523 -1.79205,1.07523h-0.54615v5.37614c0,0.72251 0.0512,1.21745 0.1536,1.48484c0.1024,0.26169 0.37832,0.39254 0.82775,0.39254c0.21049,0 0.44943,-0.02845 0.71682,-0.08534c0.26739,-0.06258 0.4665,-0.09387 0.59735,-0.09387c0.29014,0 0.52623,0.09671 0.70828,0.29014c0.18205,0.18774 0.27307,0.41814 0.27307,0.69122c0,0.95007 -1.00696,1.4251 -3.02088,1.4251c-0.97282,0 -1.68964,-0.1792 -2.15045,-0.53761c-0.46081,-0.3641 -0.74526,-0.805 -0.85335,-1.3227c-0.10809,-0.52339 -0.16214,-1.20038 -0.16214,-2.03098v-5.58947h-0.38401c-0.86473,0 -1.2971,-0.35272 -1.2971,-1.05816c0,-0.69406 0.45228,-1.04109 1.35683,-1.04109zM313.17611,170.40829v-7.46685c0,-1.30848 0.48072,-1.96272 1.44217,-1.96272c0.91594,0 1.38528,0.60304 1.40804,1.80911c0.60304,-1.20608 1.43648,-1.80911 2.50033,-1.80911c0.56321,0 1.1435,0.14792 1.74084,0.44374c0.60304,0.29014 0.90456,0.69122 0.90456,1.20323c0,0.35841 -0.12232,0.65424 -0.36694,0.88749c-0.23894,0.22756 -0.49495,0.34134 -0.76802,0.34134c-0.15929,0 -0.44374,-0.06258 -0.85335,-0.18774c-0.40961,-0.12516 -0.75095,-0.18774 -1.02403,-0.18774c-0.69975,0 -1.2203,0.35272 -1.56164,1.05816c-0.34134,0.70544 -0.51201,2.06512 -0.51201,4.07904v1.68111c0,0.73957 -0.03129,1.24021 -0.09387,1.5019c-0.05689,0.25601 -0.21334,0.48926 -0.46935,0.69975c-0.25601,0.21049 -0.55184,0.31574 -0.88749,0.31574c-0.31859,0 -0.60588,-0.09387 -0.86189,-0.28161c-0.25601,-0.18774 -0.42099,-0.40961 -0.49495,-0.66562c-0.06827,-0.26169 -0.1024,-0.74811 -0.1024,-1.45924zM324.23772,156.77168c0.37548,0 0.7026,0.14222 0.98136,0.42668c0.27876,0.28445 0.41814,0.61442 0.41814,0.98989c0,0.39254 -0.13938,0.73104 -0.41814,1.01549c-0.27876,0.27876 -0.60588,0.41814 -0.98136,0.41814c-0.39254,0 -0.73104,-0.13938 -1.01549,-0.41814c-0.27876,-0.28445 -0.41814,-0.62295 -0.41814,-1.01549c0,-0.38116 0.13938,-0.71113 0.41814,-0.98989c0.28445,-0.28445 0.62295,-0.42668 1.01549,-0.42668zM325.67989,163.35104v7.05724c0,0.69406 -0.03413,1.1691 -0.1024,1.4251c-0.06258,0.25601 -0.22472,0.48357 -0.48641,0.68268c-0.26169,0.19912 -0.54615,0.29867 -0.85335,0.29867c-0.3129,0 -0.60588,-0.09671 -0.87896,-0.29014c-0.26739,-0.19912 -0.43521,-0.42952 -0.50348,-0.69122c-0.06258,-0.26169 -0.09387,-0.73673 -0.09387,-1.4251v-7.03164c0,-0.64855 0.0256,-1.10652 0.0768,-1.3739c0.0512,-0.26739 0.20481,-0.50348 0.46081,-0.70828c0.26169,-0.21049 0.56321,-0.31574 0.90456,-0.31574c0.34703,0 0.6457,0.09387 0.89602,0.28161c0.25032,0.18774 0.40961,0.42668 0.47788,0.71682c0.06827,0.28445 0.1024,0.74242 0.1024,1.3739zM336.81404,167.60928h-5.71748c0.02845,1.08092 0.32427,1.89729 0.88749,2.44913c0.5689,0.55184 1.2459,0.82775 2.03098,0.82775c0.97851,0 1.89729,-0.42668 2.75634,-1.28003c0.34703,-0.35841 0.60304,-0.58028 0.76802,-0.66562c0.17067,-0.08534 0.35841,-0.128 0.56321,-0.128c0.26169,0 0.48641,0.08249 0.67415,0.24747c0.19343,0.16498 0.29014,0.36694 0.29014,0.60588c0,0.65424 -0.44943,1.34261 -1.3483,2.06512c-0.89318,0.72251 -2.10494,1.08376 -3.63529,1.08376c-1.95134,0 -3.43049,-0.54899 -4.43745,-1.64697c-1.00127,-1.09798 -1.5019,-2.52308 -1.5019,-4.27531c0,-1.7636 0.50063,-3.1887 1.5019,-4.27531c1.00696,-1.09229 2.40646,-1.63844 4.19851,-1.63844c1.71809,0 3.04079,0.51486 3.9681,1.54457c0.933,1.02971 1.3995,2.15045 1.3995,3.36222c0,0.52908 -0.15645,0.95007 -0.46935,1.26297c-0.30721,0.30721 -0.95007,0.46081 -1.92858,0.46081zM331.09656,165.95378h5.29933c-0.03413,-0.96714 -0.30152,-1.70386 -0.80215,-2.21019c-0.49495,-0.50632 -1.10936,-0.75949 -1.84325,-0.75949c-1.54173,0 -2.42637,0.98989 -2.65393,2.96967zM349.62503,171.15071v-0.29014c-1.00127,1.30279 -2.26992,1.95418 -3.80596,1.95418c-1.49053,0 -2.67385,-0.56321 -3.54996,-1.68964c-0.87611,-1.13212 -1.31417,-2.5942 -1.31417,-4.38624c0,-1.69533 0.42668,-3.07777 1.28003,-4.1473c0.85904,-1.07523 2.04521,-1.61284 3.55849,-1.61284c1.47346,0 2.75065,0.59166 3.83156,1.77498v-3.77183c0,-1.04678 0.13085,-1.69818 0.39254,-1.95418c0.26169,-0.25601 0.61726,-0.38401 1.06669,-0.38401c0.3129,0 0.60019,0.09102 0.86189,0.27307c0.26739,0.18205 0.42952,0.41814 0.48641,0.70828c0.06258,0.29014 0.09387,0.77086 0.09387,1.44217v11.47762c0,0.64855 -0.03413,1.11221 -0.1024,1.39097c-0.06827,0.27307 -0.23325,0.48641 -0.49495,0.64002c-0.26169,0.15929 -0.54899,0.23894 -0.86189,0.23894c-0.96145,0 -1.44217,-0.55468 -1.44217,-1.66404zM343.89901,166.8242c0,1.30848 0.27307,2.26424 0.81922,2.86727c0.55184,0.59735 1.18048,0.89602 1.88591,0.89602c0.82491,0 1.50759,-0.3129 2.04805,-0.93869c0.54046,-0.62579 0.81069,-1.5019 0.81069,-2.62833c0,-1.17194 -0.26454,-2.10494 -0.79362,-2.799c-0.52339,-0.69975 -1.21745,-1.04963 -2.08219,-1.04963c-0.79077,0 -1.43648,0.32427 -1.93712,0.97282c-0.50063,0.64855 -0.75095,1.54173 -0.75095,2.67953zM362.28881,161.23472v-1.74938c0,-0.72251 0.02845,-1.21176 0.08534,-1.46777c0.06258,-0.26169 0.21903,-0.4921 0.46935,-0.69122c0.25601,-0.20481 0.55468,-0.30721 0.89602,-0.30721c0.3129,0 0.5945,0.09387 0.84482,0.28161c0.25032,0.18205 0.4153,0.40392 0.49495,0.66562c0.07965,0.26169 0.11947,0.68837 0.11947,1.28003v1.98832h0.56321c0.71113,0 1.18332,0.08818 1.41657,0.26454c0.23894,0.17067 0.35841,0.42383 0.35841,0.75949c0,0.71682 -0.59735,1.07523 -1.79205,1.07523h-0.54615v5.37614c0,0.72251 0.0512,1.21745 0.1536,1.48484c0.1024,0.26169 0.37832,0.39254 0.82775,0.39254c0.21049,0 0.44943,-0.02845 0.71682,-0.08534c0.26739,-0.06258 0.4665,-0.09387 0.59735,-0.09387c0.29014,0 0.52623,0.09671 0.70828,0.29014c0.18205,0.18774 0.27307,0.41814 0.27307,0.69122c0,0.95007 -1.00696,1.4251 -3.02088,1.4251c-0.97282,0 -1.68964,-0.1792 -2.15045,-0.53761c-0.46081,-0.3641 -0.74526,-0.805 -0.85335,-1.3227c-0.10809,-0.52339 -0.16214,-1.20038 -0.16214,-2.03098v-5.58947h-0.38401c-0.86473,0 -1.2971,-0.35272 -1.2971,-1.05816c0,-0.69406 0.45228,-1.04109 1.35683,-1.04109zM374.63045,160.97872c1.80342,0 3.22284,0.55753 4.25824,1.67258c1.0354,1.10936 1.55311,2.52308 1.55311,4.24117c0,1.72946 -0.52623,3.14888 -1.57871,4.25824c-1.04678,1.10936 -2.43491,1.66404 -4.16437,1.66404c-1.87738,0 -3.32524,-0.56037 -4.34358,-1.68111c-1.01834,-1.12643 -1.52751,-2.54015 -1.52751,-4.24117c0,-1.72378 0.51486,-3.14035 1.54457,-4.24971c1.0354,-1.10936 2.45482,-1.66404 4.25824,-1.66404zM374.63045,170.64723c0.8818,0 1.57871,-0.32996 2.09072,-0.98989c0.5177,-0.66562 0.77655,-1.58724 0.77655,-2.76487c0,-1.17763 -0.25885,-2.09925 -0.77655,-2.76487c-0.51201,-0.66562 -1.20892,-0.99843 -2.09072,-0.99843c-0.87042,0 -1.56448,0.33565 -2.08219,1.00696c-0.5177,0.66562 -0.77655,1.58439 -0.77655,2.75634c0,1.18332 0.25601,2.10494 0.76802,2.76487c0.5177,0.65993 1.21461,0.98989 2.09072,0.98989zM390.69273,156.77168c0.37548,0 0.7026,0.14222 0.98136,0.42668c0.27876,0.28445 0.41814,0.61442 0.41814,0.98989c0,0.39254 -0.13938,0.73104 -0.41814,1.01549c-0.27876,0.27876 -0.60588,0.41814 -0.98136,0.41814c-0.39254,0 -0.73104,-0.13938 -1.01549,-0.41814c-0.27876,-0.28445 -0.41814,-0.62295 -0.41814,-1.01549c0,-0.38116 0.13938,-0.71113 0.41814,-0.98989c0.28445,-0.28445 0.62295,-0.42668 1.01549,-0.42668zM389.25909,172.50754v-9.1309c0,-0.71682 0.03129,-1.20038 0.09387,-1.4507c0.06258,-0.25032 0.21618,-0.46935 0.46081,-0.65708c0.25032,-0.19343 0.5433,-0.29014 0.87896,-0.29014c0.3129,0 0.59735,0.08818 0.85335,0.26454c0.26169,0.17636 0.42383,0.39823 0.48641,0.66562c0.06827,0.26739 0.1024,0.75664 0.1024,1.46777v9.1309c0,1.08092 -0.05689,1.90298 -0.17067,2.4662c-0.10809,0.56321 -0.40676,1.06385 -0.89602,1.5019c-0.48357,0.44375 -1.23736,0.66562 -2.26139,0.66562c-1.79773,0 -2.6966,-0.47504 -2.6966,-1.42511c0,-0.32996 0.10525,-0.60873 0.31574,-0.83629c0.20481,-0.22756 0.4665,-0.34134 0.78509,-0.34134l1.06669,0.06827c0.35272,0 0.60304,-0.13369 0.75095,-0.40108c0.1536,-0.26169 0.23041,-0.82775 0.23041,-1.69818zM400.2311,160.97872c1.80342,0 3.22284,0.55753 4.25824,1.67258c1.0354,1.10936 1.55311,2.52308 1.55311,4.24117c0,1.72946 -0.52623,3.14888 -1.57871,4.25824c-1.04678,1.10936 -2.43491,1.66404 -4.16437,1.66404c-1.87738,0 -3.32524,-0.56037 -4.34358,-1.68111c-1.01834,-1.12643 -1.52751,-2.54015 -1.52751,-4.24117c0,-1.72378 0.51486,-3.14035 1.54457,-4.24971c1.0354,-1.10936 2.45482,-1.66404 4.25824,-1.66404zM400.2311,170.64723c0.8818,0 1.57871,-0.32996 2.09072,-0.98989c0.5177,-0.66562 0.77655,-1.58724 0.77655,-2.76487c0,-1.17763 -0.25885,-2.09925 -0.77655,-2.76487c-0.51201,-0.66562 -1.20892,-0.99843 -2.09072,-0.99843c-0.87042,0 -1.56448,0.33565 -2.08219,1.00696c-0.5177,0.66562 -0.77655,1.58439 -0.77655,2.75634c0,1.18332 0.25601,2.10494 0.76802,2.76487c0.5177,0.65993 1.21461,0.98989 2.09072,0.98989zM409.80788,156.77168c0.37548,0 0.7026,0.14222 0.98136,0.42668c0.27876,0.28445 0.41814,0.61442 0.41814,0.98989c0,0.39254 -0.13938,0.73104 -0.41814,1.01549c-0.27876,0.27876 -0.60588,0.41814 -0.98136,0.41814c-0.39254,0 -0.73104,-0.13938 -1.01549,-0.41814c-0.27876,-0.28445 -0.41814,-0.62295 -0.41814,-1.01549c0,-0.38116 0.13938,-0.71113 0.41814,-0.98989c0.28445,-0.28445 0.62295,-0.42668 1.01549,-0.42668zM411.25005,163.35104v7.05724c0,0.69406 -0.03413,1.1691 -0.1024,1.4251c-0.06258,0.25601 -0.22472,0.48357 -0.48641,0.68268c-0.26169,0.19912 -0.54615,0.29867 -0.85335,0.29867c-0.3129,0 -0.60588,-0.09671 -0.87896,-0.29014c-0.26739,-0.19912 -0.43521,-0.42952 -0.50348,-0.69122c-0.06258,-0.26169 -0.09387,-0.73673 -0.09387,-1.4251v-7.03164c0,-0.64855 0.0256,-1.10652 0.0768,-1.3739c0.0512,-0.26739 0.20481,-0.50348 0.46081,-0.70828c0.26169,-0.21049 0.56321,-0.31574 0.90456,-0.31574c0.34703,0 0.6457,0.09387 0.89602,0.28161c0.25032,0.18774 0.40961,0.42668 0.47788,0.71682c0.06827,0.28445 0.1024,0.74242 0.1024,1.3739zM424.52611,165.6295v4.77879c0,0.61442 -0.0256,1.06385 -0.0768,1.3483c-0.04551,0.27876 -0.19627,0.52623 -0.45228,0.74242c-0.25601,0.21049 -0.56037,0.31574 -0.91309,0.31574c-0.3129,0 -0.60588,-0.09387 -0.87896,-0.28161c-0.26739,-0.18774 -0.43237,-0.43237 -0.49495,-0.73389c-0.06258,-0.30152 -0.09387,-0.76517 -0.09387,-1.39097v-4.19851c0,-1.16625 -0.17636,-1.95134 -0.52908,-2.35526c-0.34703,-0.40392 -0.82491,-0.60588 -1.43364,-0.60588c-0.55753,0 -1.04678,0.15929 -1.46777,0.47788c-0.4153,0.31859 -0.70828,0.71966 -0.87896,1.20323c-0.17067,0.47788 -0.25601,1.29994 -0.25601,2.4662v3.01234c0,0.60873 -0.02276,1.05247 -0.06827,1.33123c-0.04551,0.27876 -0.20196,0.52908 -0.46935,0.75095c-0.26169,0.21618 -0.56321,0.32427 -0.90456,0.32427c-0.31859,0 -0.61442,-0.09671 -0.88749,-0.29014c-0.26739,-0.19912 -0.42952,-0.44374 -0.48641,-0.73389c-0.05689,-0.29014 -0.08534,-0.75095 -0.08534,-1.38243v-7.18525c0,-0.64286 0.02845,-1.09229 0.08534,-1.3483c0.06258,-0.25601 0.21618,-0.46935 0.46081,-0.64002c0.24463,-0.17067 0.52055,-0.25601 0.82775,-0.25601c0.28445,0 0.58028,0.11094 0.88749,0.33281c0.3129,0.22187 0.46935,0.76517 0.46935,1.62991c0.97282,-1.30848 2.22441,-1.96272 3.75476,-1.96272c0.58028,0 1.15487,0.11094 1.72378,0.33281c0.5689,0.21618 1.03256,0.57175 1.39097,1.06669c0.3641,0.49495 0.58313,1.00696 0.65708,1.53604c0.07965,0.52908 0.11947,1.10083 0.11947,1.71524zM441.89402,171.15071v-0.29014c-1.00127,1.30279 -2.26992,1.95418 -3.80596,1.95418c-1.49053,0 -2.67385,-0.56321 -3.54996,-1.68964c-0.87611,-1.13212 -1.31417,-2.5942 -1.31417,-4.38624c0,-1.69533 0.42668,-3.07777 1.28003,-4.1473c0.85904,-1.07523 2.04521,-1.61284 3.55849,-1.61284c1.47346,0 2.75065,0.59166 3.83156,1.77498v-3.77183c0,-1.04678 0.13085,-1.69818 0.39254,-1.95418c0.26169,-0.25601 0.61726,-0.38401 1.06669,-0.38401c0.3129,0 0.60019,0.09102 0.86189,0.27307c0.26739,0.18205 0.42952,0.41814 0.48641,0.70828c0.06258,0.29014 0.09387,0.77086 0.09387,1.44217v11.47762c0,0.64855 -0.03413,1.11221 -0.1024,1.39097c-0.06827,0.27307 -0.23325,0.48641 -0.49495,0.64002c-0.26169,0.15929 -0.54899,0.23894 -0.86189,0.23894c-0.96145,0 -1.44217,-0.55468 -1.44217,-1.66404zM436.16801,166.8242c0,1.30848 0.27307,2.26424 0.81922,2.86727c0.55184,0.59735 1.18048,0.89602 1.88591,0.89602c0.82491,0 1.50759,-0.3129 2.04805,-0.93869c0.54046,-0.62579 0.81069,-1.5019 0.81069,-2.62833c0,-1.17194 -0.26454,-2.10494 -0.79362,-2.799c-0.52339,-0.69975 -1.21745,-1.04963 -2.08219,-1.04963c-0.79077,0 -1.43648,0.32427 -1.93712,0.97282c-0.50063,0.64855 -0.75095,1.54173 -0.75095,2.67953zM452.68042,160.97872c1.80342,0 3.22284,0.55753 4.25824,1.67258c1.0354,1.10936 1.55311,2.52308 1.55311,4.24117c0,1.72946 -0.52623,3.14888 -1.57871,4.25824c-1.04678,1.10936 -2.43491,1.66404 -4.16437,1.66404c-1.87738,0 -3.32524,-0.56037 -4.34358,-1.68111c-1.01834,-1.12643 -1.52751,-2.54015 -1.52751,-4.24117c0,-1.72378 0.51486,-3.14035 1.54457,-4.24971c1.0354,-1.10936 2.45482,-1.66404 4.25824,-1.66404zM452.68042,170.64723c0.8818,0 1.57871,-0.32996 2.09072,-0.98989c0.5177,-0.66562 0.77655,-1.58724 0.77655,-2.76487c0,-1.17763 -0.25885,-2.09925 -0.77655,-2.76487c-0.51201,-0.66562 -1.20892,-0.99843 -2.09072,-0.99843c-0.87042,0 -1.56448,0.33565 -2.08219,1.00696c-0.5177,0.66562 -0.77655,1.58439 -0.77655,2.75634c0,1.18332 0.25601,2.10494 0.76802,2.76487c0.5177,0.65993 1.21461,0.98989 2.09072,0.98989zM468.91336,167.60928h-5.71748c0.02845,1.08092 0.32427,1.89729 0.88749,2.44913c0.5689,0.55184 1.2459,0.82775 2.03098,0.82775c0.97851,0 1.89729,-0.42668 2.75634,-1.28003c0.34703,-0.35841 0.60304,-0.58028 0.76802,-0.66562c0.17067,-0.08534 0.35841,-0.128 0.56321,-0.128c0.26169,0 0.48641,0.08249 0.67415,0.24747c0.19343,0.16498 0.29014,0.36694 0.29014,0.60588c0,0.65424 -0.44943,1.34261 -1.3483,2.06512c-0.89318,0.72251 -2.10494,1.08376 -3.63529,1.08376c-1.95134,0 -3.43049,-0.54899 -4.43745,-1.64697c-1.00127,-1.09798 -1.5019,-2.52308 -1.5019,-4.27531c0,-1.7636 0.50063,-3.1887 1.5019,-4.27531c1.00696,-1.09229 2.40646,-1.63844 4.19851,-1.63844c1.71809,0 3.04079,0.51486 3.9681,1.54457c0.933,1.02971 1.3995,2.15045 1.3995,3.36222c0,0.52908 -0.15645,0.95007 -0.46935,1.26297c-0.30721,0.30721 -0.95007,0.46081 -1.92858,0.46081zM463.19589,165.95378h5.29933c-0.03413,-0.96714 -0.30152,-1.70386 -0.80215,-2.21019c-0.49495,-0.50632 -1.10936,-0.75949 -1.84325,-0.75949c-1.54173,0 -2.42637,0.98989 -2.65393,2.96967zM475.97274,164.00813c0,0.37548 0.19627,0.6713 0.58881,0.88749c0.39254,0.21049 1.26581,0.48357 2.6198,0.81922c2.63971,0.63717 3.95957,1.73516 3.95957,3.29395c0,1.22883 -0.44374,2.17037 -1.33123,2.8246c-0.88749,0.65424 -2.13339,0.98136 -3.73769,0.98136c-1.62137,0 -2.84167,-0.33281 -3.66089,-0.99843c-0.81922,-0.6713 -1.22883,-1.37959 -1.22883,-2.12485c0,-0.31859 0.11378,-0.59166 0.34134,-0.81922c0.22756,-0.22756 0.50632,-0.34134 0.83629,-0.34134c0.45512,0 0.85335,0.28445 1.1947,0.85335c0.38686,0.62579 0.81069,1.04109 1.2715,1.2459c0.46081,0.19912 0.95576,0.29867 1.48484,0.29867c0.58028,0 1.05247,-0.128 1.41657,-0.38401c0.36979,-0.26169 0.55468,-0.59166 0.55468,-0.98989c0,-0.3641 -0.15645,-0.67984 -0.46935,-0.94722c-0.30721,-0.26739 -1.15203,-0.55753 -2.53446,-0.87042c-1.38243,-0.31859 -2.38939,-0.76233 -3.02088,-1.33123c-0.63148,-0.57459 -0.94722,-1.25728 -0.94722,-2.04805c0,-0.88749 0.38401,-1.67258 1.15203,-2.35526c0.77371,-0.68268 1.93143,-1.02403 3.47315,-1.02403c1.41657,0 2.543,0.2873 3.37929,0.86189c0.84198,0.57459 1.26297,1.17194 1.26297,1.79205c0,0.32427 -0.10809,0.60019 -0.32427,0.82775c-0.21049,0.22187 -0.50348,0.33281 -0.87896,0.33281c-0.56321,0 -1.07238,-0.32143 -1.52751,-0.96429c-0.44943,-0.64855 -1.12927,-0.97282 -2.03952,-0.97282c-0.48926,0 -0.91878,0.09956 -1.28857,0.29867c-0.3641,0.19912 -0.54615,0.48357 -0.54615,0.85335zM495.87724,165.6295v4.77879c0,0.61442 -0.0256,1.06385 -0.0768,1.3483c-0.04551,0.27876 -0.19627,0.52623 -0.45228,0.74242c-0.25601,0.21049 -0.56037,0.31574 -0.91309,0.31574c-0.3129,0 -0.60588,-0.09387 -0.87896,-0.28161c-0.26739,-0.18774 -0.43237,-0.43237 -0.49495,-0.73389c-0.06258,-0.30152 -0.09387,-0.76517 -0.09387,-1.39097v-4.19851c0,-1.16625 -0.17636,-1.95134 -0.52908,-2.35526c-0.34703,-0.40392 -0.82491,-0.60588 -1.43364,-0.60588c-0.55753,0 -1.04678,0.15929 -1.46777,0.47788c-0.4153,0.31859 -0.70828,0.71966 -0.87896,1.20323c-0.17067,0.47788 -0.25601,1.29994 -0.25601,2.4662v3.01234c0,0.60873 -0.02276,1.05247 -0.06827,1.33123c-0.04551,0.27876 -0.20196,0.52908 -0.46935,0.75095c-0.26169,0.21618 -0.56321,0.32427 -0.90456,0.32427c-0.31859,0 -0.61442,-0.09671 -0.88749,-0.29014c-0.26739,-0.19912 -0.42952,-0.44374 -0.48641,-0.73389c-0.05689,-0.29014 -0.08534,-0.75095 -0.08534,-1.38243v-7.18525c0,-0.64286 0.02845,-1.09229 0.08534,-1.3483c0.06258,-0.25601 0.21618,-0.46935 0.46081,-0.64002c0.24463,-0.17067 0.52055,-0.25601 0.82775,-0.25601c0.28445,0 0.58028,0.11094 0.88749,0.33281c0.3129,0.22187 0.46935,0.76517 0.46935,1.62991c0.97282,-1.30848 2.22441,-1.96272 3.75476,-1.96272c0.58028,0 1.15487,0.11094 1.72378,0.33281c0.5689,0.21618 1.03256,0.57175 1.39097,1.06669c0.3641,0.49495 0.58313,1.00696 0.65708,1.53604c0.07965,0.52908 0.11947,1.10083 0.11947,1.71524zM500.77763,159.87789c-0.47788,0.02276 -0.88749,-0.12516 -1.22883,-0.44374c-0.33565,-0.32427 -0.50348,-0.71397 -0.50348,-1.1691c0,-0.46081 0.16783,-0.84482 0.50348,-1.15203c0.34134,-0.3129 0.73673,-0.46935 1.18616,-0.46935c0.52339,0 0.9586,0.21049 1.30563,0.63148c0.35272,0.42099 0.52908,1.00411 0.52908,1.74938c0,1.08661 -0.32143,2.02814 -0.96429,2.8246c-0.63717,0.79647 -1.23452,1.1947 -1.79205,1.1947c-0.22187,0 -0.39823,-0.07111 -0.52908,-0.21334c-0.13085,-0.14792 -0.19627,-0.31574 -0.19627,-0.50348c0,-0.29014 0.17352,-0.54046 0.52055,-0.75095c0.73957,-0.45512 1.12927,-1.02118 1.1691,-1.69818zM506.12177,161.23472v-1.74938c0,-0.72251 0.02845,-1.21176 0.08534,-1.46777c0.06258,-0.26169 0.21903,-0.4921 0.46935,-0.69122c0.25601,-0.20481 0.55468,-0.30721 0.89602,-0.30721c0.3129,0 0.5945,0.09387 0.84482,0.28161c0.25032,0.18205 0.4153,0.40392 0.49495,0.66562c0.07965,0.26169 0.11947,0.68837 0.11947,1.28003v1.98832h0.56321c0.71113,0 1.18332,0.08818 1.41657,0.26454c0.23894,0.17067 0.35841,0.42383 0.35841,0.75949c0,0.71682 -0.59735,1.07523 -1.79205,1.07523h-0.54615v5.37614c0,0.72251 0.0512,1.21745 0.1536,1.48484c0.1024,0.26169 0.37832,0.39254 0.82775,0.39254c0.21049,0 0.44943,-0.02845 0.71682,-0.08534c0.26739,-0.06258 0.4665,-0.09387 0.59735,-0.09387c0.29014,0 0.52623,0.09671 0.70828,0.29014c0.18205,0.18774 0.27307,0.41814 0.27307,0.69122c0,0.95007 -1.00696,1.4251 -3.02088,1.4251c-0.97282,0 -1.68964,-0.1792 -2.15045,-0.53761c-0.46081,-0.3641 -0.74526,-0.805 -0.85335,-1.3227c-0.10809,-0.52339 -0.16214,-1.20038 -0.16214,-2.03098v-5.58947h-0.38401c-0.86473,0 -1.2971,-0.35272 -1.2971,-1.05816c0,-0.69406 0.45228,-1.04109 1.35683,-1.04109z"/><path d="M253.22793,193.82435h-5.71748c0.02845,1.08092 0.32427,1.89729 0.88749,2.44913c0.5689,0.55184 1.2459,0.82775 2.03098,0.82775c0.97851,0 1.89729,-0.42668 2.75634,-1.28003c0.34703,-0.35841 0.60304,-0.58028 0.76802,-0.66562c0.17067,-0.08534 0.35841,-0.128 0.56321,-0.128c0.26169,0 0.48641,0.08249 0.67415,0.24747c0.19343,0.16498 0.29014,0.36694 0.29014,0.60588c0,0.65424 -0.44943,1.34261 -1.3483,2.06512c-0.89318,0.72251 -2.10494,1.08376 -3.63529,1.08376c-1.95134,0 -3.43049,-0.54899 -4.43745,-1.64697c-1.00127,-1.09798 -1.5019,-2.52308 -1.5019,-4.27531c0,-1.7636 0.50063,-3.1887 1.5019,-4.27531c1.00696,-1.09229 2.40646,-1.63844 4.19851,-1.63844c1.71809,0 3.04079,0.51486 3.9681,1.54457c0.933,1.02971 1.3995,2.15045 1.3995,3.36222c0,0.52908 -0.15645,0.95007 -0.46935,1.26297c-0.30721,0.30721 -0.95007,0.46081 -1.92858,0.46081zM247.51045,192.16884h5.29933c-0.03413,-0.96714 -0.30152,-1.70386 -0.80215,-2.21019c-0.49495,-0.50632 -1.10936,-0.75949 -1.84325,-0.75949c-1.54173,0 -2.42637,0.98989 -2.65393,2.96967zM262.25002,194.74598l-2.13339,3.08061c-0.38116,0.54046 -0.68553,0.87611 -0.91309,1.00696c-0.22756,0.13085 -0.46935,0.19627 -0.72535,0.19627c-0.36979,0 -0.68268,-0.11378 -0.93869,-0.34134c-0.25032,-0.22756 -0.37548,-0.48641 -0.37548,-0.77655c0,-0.32996 0.19912,-0.77371 0.59735,-1.33123l2.63687,-3.78036l-2.33819,-3.14888c-0.40392,-0.54046 -0.60588,-0.97567 -0.60588,-1.30563c0,-0.33565 0.12232,-0.61157 0.36694,-0.82775c0.24463,-0.21618 0.56606,-0.32427 0.96429,-0.32427c0.33565,0 0.61157,0.09387 0.82775,0.28161c0.21618,0.18205 0.47788,0.48641 0.78509,0.91309l1.85178,2.57713l1.86885,-2.57713c0.38116,-0.54046 0.68837,-0.87327 0.92162,-0.99843c0.23325,-0.13085 0.47788,-0.19627 0.73389,-0.19627c0.37548,0 0.68553,0.10809 0.93016,0.32427c0.25032,0.21618 0.37548,0.46935 0.37548,0.75949c0,0.34703 -0.20765,0.805 -0.62295,1.3739l-2.33819,3.14888l2.61127,3.78036c0.42668,0.59735 0.64002,1.03256 0.64002,1.30563c0,0.32996 -0.13085,0.60304 -0.39254,0.81922c-0.25601,0.21618 -0.54046,0.32427 -0.85335,0.32427c-0.59735,0 -1.17478,-0.40108 -1.73231,-1.20323zM270.93504,182.98675c0.37548,0 0.7026,0.14222 0.98136,0.42668c0.27876,0.28445 0.41814,0.61442 0.41814,0.98989c0,0.39254 -0.13938,0.73104 -0.41814,1.01549c-0.27876,0.27876 -0.60588,0.41814 -0.98136,0.41814c-0.39254,0 -0.73104,-0.13938 -1.01549,-0.41814c-0.27876,-0.28445 -0.41814,-0.62295 -0.41814,-1.01549c0,-0.38116 0.13938,-0.71113 0.41814,-0.98989c0.28445,-0.28445 0.62295,-0.42668 1.01549,-0.42668zM272.37721,189.56611v7.05724c0,0.69406 -0.03413,1.1691 -0.1024,1.4251c-0.06258,0.25601 -0.22472,0.48357 -0.48641,0.68268c-0.26169,0.19912 -0.54615,0.29867 -0.85335,0.29867c-0.3129,0 -0.60588,-0.09671 -0.87896,-0.29014c-0.26739,-0.19912 -0.43521,-0.42952 -0.50348,-0.69122c-0.06258,-0.26169 -0.09387,-0.73673 -0.09387,-1.4251v-7.03164c0,-0.64855 0.0256,-1.10652 0.0768,-1.3739c0.0512,-0.26739 0.20481,-0.50348 0.46081,-0.70828c0.26169,-0.21049 0.56321,-0.31574 0.90456,-0.31574c0.34703,0 0.6457,0.09387 0.89602,0.28161c0.25032,0.18774 0.40961,0.42668 0.47788,0.71682c0.06827,0.28445 0.1024,0.74242 0.1024,1.3739zM277.58908,190.22319c0,0.37548 0.19627,0.6713 0.58881,0.88749c0.39254,0.21049 1.26581,0.48357 2.6198,0.81922c2.63971,0.63717 3.95957,1.73516 3.95957,3.29395c0,1.22883 -0.44374,2.17037 -1.33123,2.8246c-0.88749,0.65424 -2.13339,0.98136 -3.73769,0.98136c-1.62137,0 -2.84167,-0.33281 -3.66089,-0.99843c-0.81922,-0.6713 -1.22883,-1.37959 -1.22883,-2.12485c0,-0.31859 0.11378,-0.59166 0.34134,-0.81922c0.22756,-0.22756 0.50632,-0.34134 0.83629,-0.34134c0.45512,0 0.85335,0.28445 1.1947,0.85335c0.38686,0.62579 0.81069,1.04109 1.2715,1.2459c0.46081,0.19912 0.95576,0.29867 1.48484,0.29867c0.58028,0 1.05247,-0.128 1.41657,-0.38401c0.36979,-0.26169 0.55468,-0.59166 0.55468,-0.98989c0,-0.3641 -0.15645,-0.67984 -0.46935,-0.94722c-0.30721,-0.26739 -1.15203,-0.55753 -2.53446,-0.87042c-1.38243,-0.31859 -2.38939,-0.76233 -3.02088,-1.33123c-0.63148,-0.57459 -0.94722,-1.25728 -0.94722,-2.04805c0,-0.88749 0.38401,-1.67258 1.15203,-2.35526c0.77371,-0.68268 1.93143,-1.02403 3.47315,-1.02403c1.41657,0 2.543,0.2873 3.37929,0.86189c0.84198,0.57459 1.26297,1.17194 1.26297,1.79205c0,0.32427 -0.10809,0.60019 -0.32427,0.82775c-0.21049,0.22187 -0.50348,0.33281 -0.87896,0.33281c-0.56321,0 -1.07238,-0.32143 -1.52751,-0.96429c-0.44943,-0.64855 -1.12927,-0.97282 -2.03952,-0.97282c-0.48926,0 -0.91878,0.09956 -1.28857,0.29867c-0.3641,0.19912 -0.54615,0.48357 -0.54615,0.85335zM287.7056,187.44979v-1.74938c0,-0.72251 0.02845,-1.21176 0.08534,-1.46777c0.06258,-0.26169 0.21903,-0.4921 0.46935,-0.69122c0.25601,-0.20481 0.55468,-0.30721 0.89602,-0.30721c0.3129,0 0.5945,0.09387 0.84482,0.28161c0.25032,0.18205 0.4153,0.40392 0.49495,0.66562c0.07965,0.26169 0.11947,0.68837 0.11947,1.28003v1.98832h0.56321c0.71113,0 1.18332,0.08818 1.41657,0.26454c0.23894,0.17067 0.35841,0.42383 0.35841,0.75949c0,0.71682 -0.59735,1.07523 -1.79205,1.07523h-0.54615v5.37614c0,0.72251 0.0512,1.21745 0.1536,1.48484c0.1024,0.26169 0.37832,0.39254 0.82775,0.39254c0.21049,0 0.44943,-0.02845 0.71682,-0.08534c0.26739,-0.06258 0.4665,-0.09387 0.59735,-0.09387c0.29014,0 0.52623,0.09671 0.70828,0.29014c0.18205,0.18774 0.27307,0.41814 0.27307,0.69122c0,0.95007 -1.00696,1.4251 -3.02088,1.4251c-0.97282,0 -1.68964,-0.1792 -2.15045,-0.53761c-0.46081,-0.3641 -0.74526,-0.805 -0.85335,-1.3227c-0.10809,-0.52339 -0.16214,-1.20038 -0.16214,-2.03098v-5.58947h-0.38401c-0.86473,0 -1.2971,-0.35272 -1.2971,-1.05816c0,-0.69406 0.45228,-1.04109 1.35683,-1.04109zM306.12313,203.35633c-0.5177,0 -0.91309,-0.09956 -1.18616,-0.29867c-0.27307,-0.19343 -0.73957,-0.82775 -1.3995,-1.90298c-0.65993,-1.07523 -1.20038,-2.32113 -1.62137,-3.73769c-0.4153,-1.42226 -0.62295,-2.85874 -0.62295,-4.30944c0,-1.56448 0.23609,-3.10052 0.70828,-4.60812c0.47788,-1.50759 1.03825,-2.7478 1.68111,-3.72063c0.64855,-0.97851 1.09229,-1.54173 1.33123,-1.68964c0.24463,-0.1536 0.61442,-0.23041 1.10936,-0.23041c0.31859,0 0.47788,0.08818 0.47788,0.26454c0,0.07396 -0.23325,0.60588 -0.69975,1.59577c-0.46081,0.9842 -0.88749,2.2813 -1.28003,3.8913c-0.38686,1.60431 -0.58028,3.10337 -0.58028,4.49718c0,1.41657 0.19627,2.93554 0.58881,4.55691c0.39254,1.62137 0.81922,2.89856 1.28003,3.83156c0.46081,0.933 0.69122,1.46777 0.69122,1.60431c0,0.17067 -0.15929,0.25601 -0.47788,0.25601zM316.53619,197.39138c-1.38812,1.09229 -2.7478,1.63844 -4.07904,1.63844c-1.25728,0 -2.22441,-0.31859 -2.90141,-0.95576c-0.6713,-0.64286 -1.00696,-1.4251 -1.00696,-2.34673c0,-0.79077 0.22756,-1.42795 0.68268,-1.91151c0.46081,-0.48926 0.96145,-0.8306 1.5019,-1.02403c0.54046,-0.19343 1.41941,-0.4153 2.63687,-0.66562c1.22314,-0.25601 2.20734,-0.48926 2.95261,-0.69975c-0.00569,-0.8818 -0.1792,-1.4763 -0.52055,-1.78351c-0.34134,-0.3129 -0.86189,-0.46935 -1.56164,-0.46935c-1.31985,0 -2.18459,0.36979 -2.5942,1.10936c-0.22756,0.42099 -0.42952,0.71966 -0.60588,0.89602c-0.17636,0.17636 -0.43237,0.26454 -0.76802,0.26454c-0.30721,0 -0.58597,-0.09956 -0.83629,-0.29867c-0.24463,-0.20481 -0.36694,-0.4665 -0.36694,-0.78509c0,-0.75664 0.40676,-1.47346 1.2203,-2.15045c0.81922,-0.677 2.10779,-1.01549 3.8657,-1.01549c1.78067,0 3.08346,0.30721 3.90837,0.92162c0.82491,0.61442 1.21176,1.85747 1.16056,3.72916l-0.06827,2.73074c-0.02845,0.84198 0.05973,1.53035 0.26454,2.06512c0.20481,0.53477 0.30721,0.94438 0.30721,1.22883c0,0.30721 -0.13654,0.57744 -0.40961,0.81069c-0.26739,0.23325 -0.57175,0.34988 -0.91309,0.34988c-0.59166,0 -1.21461,-0.54615 -1.86885,-1.63844zM316.33992,193.1758c-0.43237,0.17067 -1.14918,0.35556 -2.15045,0.55468c-0.99558,0.19912 -1.70102,0.42668 -2.11632,0.68268c-0.4153,0.25601 -0.62295,0.62864 -0.62295,1.11789c0,0.42099 0.16498,0.79077 0.49495,1.10936c0.32996,0.31859 0.79647,0.47788 1.3995,0.47788c0.64286,0 1.23736,-0.17352 1.78351,-0.52055c0.55184,-0.35272 0.89033,-0.77086 1.01549,-1.25443c0.13085,-0.48357 0.19627,-1.20608 0.19627,-2.16752zM332.42779,191.84457v4.77879c0,0.61442 -0.0256,1.06385 -0.0768,1.3483c-0.04551,0.27876 -0.19627,0.52623 -0.45228,0.74242c-0.25601,0.21049 -0.56037,0.31574 -0.91309,0.31574c-0.3129,0 -0.60588,-0.09387 -0.87896,-0.28161c-0.26739,-0.18774 -0.43237,-0.43237 -0.49495,-0.73389c-0.06258,-0.30152 -0.09387,-0.76517 -0.09387,-1.39097v-4.19851c0,-1.16625 -0.17636,-1.95134 -0.52908,-2.35526c-0.34703,-0.40392 -0.82491,-0.60588 -1.43364,-0.60588c-0.55753,0 -1.04678,0.15929 -1.46777,0.47788c-0.4153,0.31859 -0.70828,0.71966 -0.87896,1.20323c-0.17067,0.47788 -0.25601,1.29994 -0.25601,2.4662v3.01234c0,0.60873 -0.02276,1.05247 -0.06827,1.33123c-0.04551,0.27876 -0.20196,0.52908 -0.46935,0.75095c-0.26169,0.21618 -0.56321,0.32427 -0.90456,0.32427c-0.31859,0 -0.61442,-0.09671 -0.88749,-0.29014c-0.26739,-0.19912 -0.42952,-0.44374 -0.48641,-0.73389c-0.05689,-0.29014 -0.08534,-0.75095 -0.08534,-1.38243v-7.18525c0,-0.64286 0.02845,-1.09229 0.08534,-1.3483c0.06258,-0.25601 0.21618,-0.46935 0.46081,-0.64002c0.24463,-0.17067 0.52055,-0.25601 0.82775,-0.25601c0.28445,0 0.58028,0.11094 0.88749,0.33281c0.3129,0.22187 0.46935,0.76517 0.46935,1.62991c0.97282,-1.30848 2.22441,-1.96272 3.75476,-1.96272c0.58028,0 1.15487,0.11094 1.72378,0.33281c0.5689,0.21618 1.03256,0.57175 1.39097,1.06669c0.3641,0.49495 0.58313,1.00696 0.65708,1.53604c0.07965,0.52908 0.11947,1.10083 0.11947,1.71524zM338.30954,198.73968l-3.56702,-9.01996c-0.22187,-0.58597 -0.33281,-0.98705 -0.33281,-1.20323c0,-0.33565 0.13938,-0.64002 0.41814,-0.91309c0.27876,-0.27307 0.60588,-0.40961 0.98136,-0.40961c0.32996,0 0.60873,0.1024 0.83629,0.30721c0.23325,0.19912 0.46081,0.61157 0.68268,1.23736l2.45766,7.16818l2.33819,-6.64763c0.30721,-0.86473 0.55184,-1.4251 0.73389,-1.68111c0.18205,-0.25601 0.4921,-0.38401 0.93016,-0.38401c0.39823,0 0.71113,0.13369 0.93869,0.40108c0.23325,0.26169 0.34988,0.53193 0.34988,0.81069c0,0.32996 -0.11662,0.79647 -0.34988,1.3995l-3.79743,9.94158c-0.50632,1.32555 -1.02971,2.25854 -1.57017,2.799c-0.54046,0.54046 -1.45924,0.81069 -2.75634,0.81069c-1.69533,0 -2.543,-0.43237 -2.543,-1.2971c0,-0.28445 0.09671,-0.52339 0.29014,-0.71682c0.19343,-0.18774 0.44943,-0.28161 0.76802,-0.28161c0.0512,0 0.21334,0.00853 0.48641,0.0256c0.27876,0.02276 0.44374,0.03413 0.49495,0.03413c0.54046,0 0.93584,-0.13085 1.18616,-0.39254c0.25601,-0.25601 0.50632,-0.69975 0.75095,-1.33123zM363.69258,191.51176v5.02626c0,0.68837 -0.02845,1.17478 -0.08534,1.45924c-0.05689,0.27876 -0.21334,0.52055 -0.46935,0.72535c-0.25032,0.20481 -0.54899,0.30721 -0.89602,0.30721c-0.34134,0 -0.64002,-0.09956 -0.89602,-0.29867c-0.25032,-0.20481 -0.40676,-0.45797 -0.46935,-0.75949c-0.06258,-0.30152 -0.09387,-0.7794 -0.09387,-1.43364v-4.25824c0,-1.2459 -0.14792,-2.0253 -0.44374,-2.33819c-0.29583,-0.31859 -0.69975,-0.47788 -1.21176,-0.47788c-0.53477,0 -0.9842,0.14792 -1.3483,0.44374c-0.3641,0.29583 -0.61442,0.68268 -0.75095,1.16056c-0.13654,0.47219 -0.20481,1.21745 -0.20481,2.23579v3.23421c0,0.68837 -0.02845,1.17763 -0.08534,1.46777c-0.0512,0.28445 -0.20765,0.52623 -0.46935,0.72535c-0.25601,0.19912 -0.55753,0.29867 -0.90456,0.29867c-0.44943,0 -0.80215,-0.15076 -1.05816,-0.45228c-0.25601,-0.30152 -0.38401,-0.98136 -0.38401,-2.03952v-4.00223c0,-1.13781 -0.08534,-1.93427 -0.25601,-2.38939c-0.17067,-0.45512 -0.61442,-0.68268 -1.33123,-0.68268c-0.74526,0 -1.33408,0.23894 -1.76644,0.71682c-0.43237,0.47219 -0.64855,1.49053 -0.64855,3.05501v3.30248c0,0.6713 -0.02276,1.1435 -0.06827,1.41657c-0.04551,0.26739 -0.19627,0.51486 -0.45228,0.74242c-0.25601,0.22187 -0.55468,0.33281 -0.89602,0.33281c-0.32427,0 -0.6201,-0.09956 -0.88749,-0.29867c-0.26739,-0.19912 -0.43521,-0.43806 -0.50348,-0.71682c-0.06258,-0.28445 -0.09387,-0.77655 -0.09387,-1.4763v-7.05724c0,-0.6713 0.03129,-1.12643 0.09387,-1.36537c0.06258,-0.24463 0.21903,-0.45797 0.46935,-0.64002c0.25032,-0.18774 0.52339,-0.28161 0.81922,-0.28161c0.92731,0 1.39097,0.59166 1.39097,1.77498c0.97851,-1.18332 2.1533,-1.77498 3.52436,-1.77498c1.47346,0 2.543,0.59166 3.20861,1.77498c0.98989,-1.18332 2.14477,-1.77498 3.46462,-1.77498c1.01834,0 1.88876,0.28161 2.61127,0.84482c0.7282,0.55753 1.09229,1.71524 1.09229,3.47315zM371.61171,187.19379c1.80342,0 3.22284,0.55753 4.25824,1.67258c1.0354,1.10936 1.55311,2.52308 1.55311,4.24117c0,1.72946 -0.52623,3.14888 -1.57871,4.25824c-1.04678,1.10936 -2.43491,1.66404 -4.16437,1.66404c-1.87738,0 -3.32524,-0.56037 -4.34358,-1.68111c-1.01834,-1.12643 -1.52751,-2.54015 -1.52751,-4.24117c0,-1.72378 0.51486,-3.14035 1.54457,-4.24971c1.0354,-1.10936 2.45482,-1.66404 4.25824,-1.66404zM371.61171,196.8623c0.8818,0 1.57871,-0.32996 2.09072,-0.98989c0.5177,-0.66562 0.77655,-1.58724 0.77655,-2.76487c0,-1.17763 -0.25885,-2.09925 -0.77655,-2.76487c-0.51201,-0.66562 -1.20892,-0.99843 -2.09072,-0.99843c-0.87042,0 -1.56448,0.33565 -2.08219,1.00696c-0.5177,0.66562 -0.77655,1.58439 -0.77655,2.75634c0,1.18332 0.25601,2.10494 0.76802,2.76487c0.5177,0.65993 1.21461,0.98989 2.09072,0.98989zM379.69511,196.62336v-7.46685c0,-1.30848 0.48072,-1.96272 1.44217,-1.96272c0.91594,0 1.38528,0.60304 1.40804,1.80911c0.60304,-1.20608 1.43648,-1.80911 2.50033,-1.80911c0.56321,0 1.1435,0.14792 1.74084,0.44374c0.60304,0.29014 0.90456,0.69122 0.90456,1.20323c0,0.35841 -0.12232,0.65424 -0.36694,0.88749c-0.23894,0.22756 -0.49495,0.34134 -0.76802,0.34134c-0.15929,0 -0.44374,-0.06258 -0.85335,-0.18774c-0.40961,-0.12516 -0.75095,-0.18774 -1.02403,-0.18774c-0.69975,0 -1.2203,0.35272 -1.56164,1.05816c-0.34134,0.70544 -0.51201,2.06512 -0.51201,4.07904v1.68111c0,0.73957 -0.03129,1.24021 -0.09387,1.5019c-0.05689,0.25601 -0.21334,0.48926 -0.46935,0.69975c-0.25601,0.21049 -0.55184,0.31574 -0.88749,0.31574c-0.31859,0 -0.60588,-0.09387 -0.86189,-0.28161c-0.25601,-0.18774 -0.42099,-0.40961 -0.49495,-0.66562c-0.06827,-0.26169 -0.1024,-0.74811 -0.1024,-1.45924zM397.41289,193.82435h-5.71748c0.02845,1.08092 0.32427,1.89729 0.88749,2.44913c0.5689,0.55184 1.2459,0.82775 2.03098,0.82775c0.97851,0 1.89729,-0.42668 2.75634,-1.28003c0.34703,-0.35841 0.60304,-0.58028 0.76802,-0.66562c0.17067,-0.08534 0.35841,-0.128 0.56321,-0.128c0.26169,0 0.48641,0.08249 0.67415,0.24747c0.19343,0.16498 0.29014,0.36694 0.29014,0.60588c0,0.65424 -0.44943,1.34261 -1.3483,2.06512c-0.89318,0.72251 -2.10494,1.08376 -3.63529,1.08376c-1.95134,0 -3.43049,-0.54899 -4.43745,-1.64697c-1.00127,-1.09798 -1.5019,-2.52308 -1.5019,-4.27531c0,-1.7636 0.50063,-3.1887 1.5019,-4.27531c1.00696,-1.09229 2.40646,-1.63844 4.19851,-1.63844c1.71809,0 3.04079,0.51486 3.9681,1.54457c0.933,1.02971 1.3995,2.15045 1.3995,3.36222c0,0.52908 -0.15645,0.95007 -0.46935,1.26297c-0.30721,0.30721 -0.95007,0.46081 -1.92858,0.46081zM391.69542,192.16884h5.29933c-0.03413,-0.96714 -0.30152,-1.70386 -0.80215,-2.21019c-0.49495,-0.50632 -1.10936,-0.75949 -1.84325,-0.75949c-1.54173,0 -2.42637,0.98989 -2.65393,2.96967zM402.30475,182.85874c0.52339,0 0.92162,0.09956 1.1947,0.29867c0.27307,0.19343 0.73673,0.8306 1.39097,1.91151c0.65993,1.07523 1.20038,2.32113 1.62137,3.73769c0.42099,1.41088 0.63148,2.84452 0.63148,4.30091c0,1.55879 -0.23894,3.09199 -0.71682,4.59958c-0.47788,1.50759 -1.03825,2.75065 -1.68111,3.72916c-0.64286,0.97851 -1.08661,1.54173 -1.33123,1.68964c-0.23894,0.1536 -0.60873,0.23041 -1.10936,0.23041c-0.31859,0 -0.47788,-0.08534 -0.47788,-0.25601c0,-0.07965 0.23325,-0.61442 0.69975,-1.60431c0.4665,-0.98989 0.89318,-2.28699 1.28003,-3.8913c0.38686,-1.61 0.58028,-3.10906 0.58028,-4.49718c0,-1.42226 -0.19627,-2.94407 -0.58881,-4.56545c-0.38686,-1.62137 -0.81353,-2.89572 -1.28003,-3.82303c-0.46081,-0.933 -0.69122,-1.46492 -0.69122,-1.59577c0,-0.17636 0.15929,-0.26454 0.47788,-0.26454zM413.66503,186.75004l-0.45228,5.2652c-0.07396,0.76802 -0.20765,1.28288 -0.40108,1.54457c-0.18774,0.26169 -0.43237,0.39254 -0.73389,0.39254c-0.29583,0 -0.54046,-0.13369 -0.73389,-0.40108c-0.18774,-0.26739 -0.31005,-0.7794 -0.36694,-1.53604l-0.35841,-5.1372c-0.04551,-0.43806 -0.06827,-1.06385 -0.06827,-1.87738c0,-1.42795 0.54615,-2.14192 1.63844,-2.14192c0.48357,0 0.8562,0.16498 1.11789,0.49495c0.26739,0.32427 0.40108,0.93016 0.40108,1.81765c0,0.72251 -0.01422,1.24874 -0.04267,1.57871zM412.14606,195.8212c0.43237,0 0.805,0.15645 1.11789,0.46935c0.31859,0.3129 0.47788,0.68553 0.47788,1.11789c0,0.44374 -0.15929,0.82491 -0.47788,1.1435c-0.3129,0.31859 -0.68553,0.47788 -1.11789,0.47788c-0.44943,0 -0.83344,-0.15645 -1.15203,-0.46935c-0.3129,-0.31859 -0.46935,-0.7026 -0.46935,-1.15203c0,-0.43237 0.15929,-0.805 0.47788,-1.11789c0.31859,-0.3129 0.69975,-0.46935 1.1435,-0.46935z"/></g></g></g></svg>