<svg version="1.1" xmlns="http://www.w3.org/2000/svg" xmlns:xlink="http://www.w3.org/1999/xlink" width="94.03066" height="29" viewBox="0,0,94.03066,29"><g transform="translate(-192.98467,-167.95313)"><g data-paper-data="{&quot;isPaintingLayer&quot;:true}" fill-rule="nonzero" stroke="none" stroke-linejoin="miter" stroke-miterlimit="10" stroke-dasharray="" stroke-dashoffset="0" style="mix-blend-mode: normal"><path d="M199.02917,179.68326c0.18183,0 0.3402,0.06159 0.47511,0.18477c0.13491,0.12318 0.20236,0.28155 0.20236,0.47511c0,0.53964 -0.27275,1.09393 -0.81825,1.66289c-0.53964,0.5631 -1.30216,0.84465 -2.28758,0.84465c-1.20831,0 -2.11455,-0.3754 -2.7187,-1.12619c-0.59829,-0.7508 -0.89744,-1.66876 -0.89744,-2.75389c0,-1.17312 0.33434,-2.11455 1.00302,-2.82428c0.66868,-0.7156 1.53972,-1.0734 2.61312,-1.0734c0.92676,0 1.66876,0.25809 2.22599,0.77426c0.5631,0.51031 0.84465,1.01475 0.84465,1.51332c0,0.15837 -0.06159,0.30794 -0.18477,0.44872c-0.11731,0.13491 -0.27861,0.20236 -0.48391,0.20236c-0.18183,0 -0.32261,-0.04986 -0.42232,-0.14957c-0.09385,-0.10558 -0.22289,-0.31088 -0.38713,-0.61589c-0.16424,-0.31088 -0.39006,-0.54843 -0.67748,-0.71267c-0.28155,-0.1701 -0.58949,-0.25515 -0.92383,-0.25515c-0.63348,0 -1.13499,0.23756 -1.50452,0.71267c-0.36953,0.47511 -0.5543,1.15552 -0.5543,2.04123c0,0.87984 0.18183,1.53385 0.5455,1.96204c0.36367,0.42819 0.85638,0.64228 1.47813,0.64228c0.87397,0 1.46347,-0.42819 1.76848,-1.28456c0.10558,-0.28155 0.2141,-0.46338 0.32554,-0.5455c0.11145,-0.08212 0.23756,-0.12318 0.37833,-0.12318zM203.40936,177.14932c0.86811,0 1.55145,0.26982 2.05002,0.80945c0.49857,0.53377 0.74786,1.21418 0.74786,2.04123c0,0.83291 -0.25222,1.51626 -0.75666,2.05002c-0.50444,0.53377 -1.17312,0.80065 -2.00603,0.80065c-0.9033,0 -1.60131,-0.26982 -2.09402,-0.80945c-0.48684,-0.5455 -0.73027,-1.22591 -0.73027,-2.04123c0,-0.83291 0.24929,-1.51626 0.74786,-2.05002c0.49857,-0.53377 1.17898,-0.80065 2.04123,-0.80065zM203.40936,181.80367c0.42819,0 0.76546,-0.15837 1.01181,-0.47511c0.24635,-0.32261 0.36953,-0.76546 0.36953,-1.32856c0,-0.56896 -0.12318,-1.01181 -0.36953,-1.32856c-0.24635,-0.32261 -0.58363,-0.48391 -1.01181,-0.48391c-0.41646,0 -0.7508,0.1613 -1.00302,0.48391c-0.24635,0.32261 -0.36953,0.76546 -0.36953,1.32856c0,0.56896 0.12318,1.01181 0.36953,1.32856c0.25222,0.31674 0.58656,0.47511 1.00302,0.47511zM215.24477,179.23454v2.41076c0,0.33434 -0.01466,0.56896 -0.04399,0.70387c-0.02346,0.13491 -0.09678,0.25222 -0.21996,0.35194c-0.12318,0.09972 -0.26689,0.14957 -0.43112,0.14957c-0.16424,0 -0.30794,-0.04986 -0.43112,-0.14957c-0.12318,-0.09972 -0.19943,-0.21996 -0.22876,-0.36073c-0.02933,-0.14664 -0.04399,-0.37833 -0.04399,-0.69507v-2.04123c0,-0.59829 -0.07039,-0.97369 -0.21116,-1.12619c-0.14077,-0.15251 -0.33434,-0.22876 -0.58069,-0.22876c-0.25809,0 -0.47511,0.07039 -0.65108,0.21116c-0.17597,0.14077 -0.29621,0.32554 -0.36073,0.5543c-0.06452,0.22876 -0.09678,0.58656 -0.09678,1.0734v1.55731c0,0.33434 -0.01466,0.5719 -0.04399,0.71267c-0.02346,0.13491 -0.09972,0.25222 -0.22876,0.35194c-0.12318,0.09385 -0.26689,0.14077 -0.43112,0.14077c-0.21703,0 -0.38713,-0.07332 -0.51031,-0.21996c-0.12318,-0.14664 -0.18477,-0.47511 -0.18477,-0.98542v-1.91805c0,-0.55136 -0.04106,-0.93556 -0.12318,-1.15259c-0.08212,-0.21703 -0.29621,-0.32554 -0.64228,-0.32554c-0.3578,0 -0.64228,0.11438 -0.85344,0.34314c-0.2053,0.22876 -0.30794,0.71853 -0.30794,1.46933v1.58371c0,0.32847 -0.01173,0.55723 -0.03519,0.68627c-0.0176,0.12904 -0.08798,0.24929 -0.21116,0.36073c-0.12318,0.10558 -0.26689,0.15837 -0.43112,0.15837c-0.15837,0 -0.30208,-0.04693 -0.43112,-0.14077c-0.12904,-0.09972 -0.20823,-0.21703 -0.23756,-0.35194c-0.02933,-0.13491 -0.04399,-0.37247 -0.04399,-0.71267v-3.38738c0,-0.32847 0.01466,-0.54843 0.04399,-0.65988c0.02933,-0.11731 0.10265,-0.21996 0.21996,-0.30794c0.12318,-0.09385 0.25515,-0.14077 0.39593,-0.14077c0.44578,0 0.66868,0.28741 0.66868,0.86224c0.46925,-0.57483 1.03528,-0.86224 1.69809,-0.86224c0.70974,0 1.22298,0.28741 1.53972,0.86224c0.47511,-0.57483 1.03234,-0.86224 1.67169,-0.86224c0.48684,0 0.9033,0.13784 1.24937,0.41352c0.35194,0.26982 0.5279,0.82705 0.5279,1.67169zM224.53948,179.23454v2.41076c0,0.33434 -0.01466,0.56896 -0.04399,0.70387c-0.02346,0.13491 -0.09678,0.25222 -0.21996,0.35194c-0.12318,0.09972 -0.26689,0.14957 -0.43112,0.14957c-0.16424,0 -0.30794,-0.04986 -0.43112,-0.14957c-0.12318,-0.09972 -0.19943,-0.21996 -0.22876,-0.36073c-0.02933,-0.14664 -0.04399,-0.37833 -0.04399,-0.69507v-2.04123c0,-0.59829 -0.07039,-0.97369 -0.21116,-1.12619c-0.14077,-0.15251 -0.33434,-0.22876 -0.58069,-0.22876c-0.25809,0 -0.47511,0.07039 -0.65108,0.21116c-0.17597,0.14077 -0.29621,0.32554 -0.36073,0.5543c-0.06452,0.22876 -0.09678,0.58656 -0.09678,1.0734v1.55731c0,0.33434 -0.01466,0.5719 -0.04399,0.71267c-0.02346,0.13491 -0.09972,0.25222 -0.22876,0.35194c-0.12318,0.09385 -0.26689,0.14077 -0.43112,0.14077c-0.21703,0 -0.38713,-0.07332 -0.51031,-0.21996c-0.12318,-0.14664 -0.18477,-0.47511 -0.18477,-0.98542v-1.91805c0,-0.55136 -0.04106,-0.93556 -0.12318,-1.15259c-0.08212,-0.21703 -0.29621,-0.32554 -0.64228,-0.32554c-0.3578,0 -0.64228,0.11438 -0.85344,0.34314c-0.2053,0.22876 -0.30794,0.71853 -0.30794,1.46933v1.58371c0,0.32847 -0.01173,0.55723 -0.03519,0.68627c-0.0176,0.12904 -0.08798,0.24929 -0.21116,0.36073c-0.12318,0.10558 -0.26689,0.15837 -0.43112,0.15837c-0.15837,0 -0.30208,-0.04693 -0.43112,-0.14077c-0.12904,-0.09972 -0.20823,-0.21703 -0.23756,-0.35194c-0.02933,-0.13491 -0.04399,-0.37247 -0.04399,-0.71267v-3.38738c0,-0.32847 0.01466,-0.54843 0.04399,-0.65988c0.02933,-0.11731 0.10265,-0.21996 0.21996,-0.30794c0.12318,-0.09385 0.25515,-0.14077 0.39593,-0.14077c0.44578,0 0.66868,0.28741 0.66868,0.86224c0.46925,-0.57483 1.03528,-0.86224 1.69809,-0.86224c0.70974,0 1.22298,0.28741 1.53972,0.86224c0.47511,-0.57483 1.03234,-0.86224 1.67169,-0.86224c0.48684,0 0.9033,0.13784 1.24937,0.41352c0.35194,0.26982 0.5279,0.82705 0.5279,1.67169zM226.96264,178.60985c0,0.18183 0.09385,0.32554 0.28155,0.43112c0.1877,0.09972 0.60709,0.22876 1.25817,0.38713c1.27283,0.31088 1.90925,0.83878 1.90925,1.58371c0,0.59243 -0.2141,1.04701 -0.64228,1.36375c-0.42819,0.31674 -1.02648,0.47511 -1.79487,0.47511c-0.78012,0 -1.36961,-0.1613 -1.76848,-0.48391c-0.39299,-0.32261 -0.58949,-0.66281 -0.58949,-1.02061c0,-0.15251 0.05279,-0.28448 0.15837,-0.39593c0.11145,-0.11145 0.24929,-0.16717 0.41352,-0.16717c0.21703,0 0.40766,0.13784 0.5719,0.41352c0.1877,0.29915 0.39006,0.49857 0.60709,0.59829c0.22289,0.09385 0.46338,0.14077 0.72147,0.14077c0.27568,0 0.50151,-0.06159 0.67748,-0.18477c0.17597,-0.12318 0.26395,-0.28155 0.26395,-0.47511c0,-0.17597 -0.07332,-0.32554 -0.21996,-0.44872c-0.14664,-0.12904 -0.5543,-0.26982 -1.22298,-0.42232c-0.66281,-0.15251 -1.14672,-0.3666 -1.45173,-0.64228c-0.30501,-0.27568 -0.45752,-0.60415 -0.45752,-0.98542c0,-0.42819 0.18477,-0.80652 0.5543,-1.13499c0.3754,-0.32847 0.93263,-0.49271 1.67169,-0.49271c0.68041,0 1.22298,0.14077 1.6277,0.42232c0.40473,0.27568 0.60709,0.5631 0.60709,0.86224c0,0.15251 -0.05279,0.28448 -0.15837,0.39593c-0.09972,0.10558 -0.24049,0.15837 -0.42232,0.15837c-0.26982,0 -0.51324,-0.15544 -0.73027,-0.46631c-0.21703,-0.31088 -0.5455,-0.46631 -0.98542,-0.46631c-0.23462,0 -0.43992,0.04986 -0.61589,0.14957c-0.17597,0.09385 -0.26395,0.22876 -0.26395,0.40473zM235.77517,178.60985c0,0.18183 0.09385,0.32554 0.28155,0.43112c0.1877,0.09972 0.60709,0.22876 1.25817,0.38713c1.27283,0.31088 1.90925,0.83878 1.90925,1.58371c0,0.59243 -0.2141,1.04701 -0.64228,1.36375c-0.42819,0.31674 -1.02648,0.47511 -1.79487,0.47511c-0.78012,0 -1.36961,-0.1613 -1.76848,-0.48391c-0.39299,-0.32261 -0.58949,-0.66281 -0.58949,-1.02061c0,-0.15251 0.05279,-0.28448 0.15837,-0.39593c0.11145,-0.11145 0.24929,-0.16717 0.41352,-0.16717c0.21703,0 0.40766,0.13784 0.5719,0.41352c0.1877,0.29915 0.39006,0.49857 0.60709,0.59829c0.22289,0.09385 0.46338,0.14077 0.72147,0.14077c0.27568,0 0.50151,-0.06159 0.67748,-0.18477c0.17597,-0.12318 0.26395,-0.28155 0.26395,-0.47511c0,-0.17597 -0.07332,-0.32554 -0.21996,-0.44872c-0.14664,-0.12904 -0.5543,-0.26982 -1.22298,-0.42232c-0.66281,-0.15251 -1.14672,-0.3666 -1.45173,-0.64228c-0.30501,-0.27568 -0.45752,-0.60415 -0.45752,-0.98542c0,-0.42819 0.18477,-0.80652 0.5543,-1.13499c0.3754,-0.32847 0.93263,-0.49271 1.67169,-0.49271c0.68041,0 1.22298,0.14077 1.6277,0.42232c0.40473,0.27568 0.60709,0.5631 0.60709,0.86224c0,0.15251 -0.05279,0.28448 -0.15837,0.39593c-0.09972,0.10558 -0.24049,0.15837 -0.42232,0.15837c-0.26982,0 -0.51324,-0.15544 -0.73027,-0.46631c-0.21703,-0.31088 -0.5455,-0.46631 -0.98542,-0.46631c-0.23462,0 -0.43992,0.04986 -0.61589,0.14957c-0.17597,0.09385 -0.26395,0.22876 -0.26395,0.40473zM243.94129,182.05882c-0.66281,0.5279 -1.31389,0.79185 -1.95324,0.79185c-0.60415,0 -1.07047,-0.15251 -1.39894,-0.45752c-0.32261,-0.31088 -0.48391,-0.68921 -0.48391,-1.13499c0,-0.38126 0.10851,-0.68921 0.32554,-0.92383c0.22289,-0.23462 0.46338,-0.39593 0.72147,-0.48391c0.26395,-0.09385 0.68921,-0.20236 1.27577,-0.32554c0.58656,-0.12318 1.05874,-0.23462 1.41654,-0.33434c-0.00586,-0.42232 -0.09092,-0.7068 -0.25515,-0.85344c-0.16424,-0.15251 -0.41352,-0.22876 -0.74786,-0.22876c-0.63348,0 -1.04994,0.1789 -1.24937,0.5367c-0.10558,0.19943 -0.20236,0.34314 -0.29035,0.43112c-0.08212,0.08212 -0.2053,0.12318 -0.36953,0.12318c-0.14664,0 -0.28155,-0.04693 -0.40473,-0.14077c-0.11731,-0.09972 -0.17597,-0.22582 -0.17597,-0.37833c0,-0.36367 0.1965,-0.70974 0.58949,-1.03821c0.39299,-0.32847 1.01181,-0.49271 1.85646,-0.49271c0.85638,0 1.48106,0.14957 1.87406,0.44872c0.39886,0.29328 0.58656,0.89157 0.5631,1.79487l-0.0264,1.31096c-0.01173,0.40473 0.02933,0.73613 0.12318,0.99422c0.09972,0.25809 0.14957,0.45458 0.14957,0.58949c0,0.14664 -0.06745,0.27861 -0.20236,0.39593c-0.12904,0.11145 -0.27275,0.16717 -0.43112,0.16717c-0.28741,0 -0.58949,-0.26395 -0.90623,-0.79185zM243.85331,180.03519c-0.21116,0.07625 -0.55723,0.16424 -1.03821,0.26395c-0.47511,0.09385 -0.81532,0.20236 -1.02061,0.32554c-0.19943,0.12318 -0.29915,0.30208 -0.29915,0.5367c0,0.2053 0.07919,0.3842 0.23756,0.5367c0.16424,0.15251 0.39006,0.22876 0.67748,0.22876c0.31088,0 0.59829,-0.08505 0.86224,-0.25515c0.26395,-0.1701 0.42526,-0.36953 0.48391,-0.59829c0.06452,-0.23462 0.09678,-0.58069 0.09678,-1.03821zM247.78418,181.90925v0.14077c0,0.53377 -0.23169,0.80065 -0.69507,0.80065c-0.17597,0 -0.32554,-0.04399 -0.44872,-0.13198c-0.12318,-0.09385 -0.1965,-0.2053 -0.21996,-0.33434c-0.02346,-0.13491 -0.03519,-0.34607 -0.03519,-0.63348v-5.51659c0,-0.31674 0.01466,-0.54843 0.04399,-0.69507c0.03519,-0.14664 0.11438,-0.26102 0.23756,-0.34314c0.12904,-0.08212 0.26689,-0.12318 0.41352,-0.12318c0.21116,0 0.38126,0.06159 0.51031,0.18477c0.12904,0.12318 0.19356,0.43405 0.19356,0.93263v1.82127c0.52204,-0.57483 1.13499,-0.86224 1.83886,-0.86224c0.72733,0 1.2963,0.26102 1.70689,0.78306c0.41646,0.51617 0.62469,1.17898 0.62469,1.98844c0,0.86224 -0.21116,1.56611 -0.63348,2.11161c-0.42232,0.5455 -0.99422,0.81825 -1.71569,0.81825c-0.72733,0 -1.33442,-0.31381 -1.82127,-0.94143zM247.85457,180.06159c0,0.53964 0.12904,0.96196 0.38713,1.26697c0.26395,0.29915 0.59536,0.44872 0.99422,0.44872c0.33434,0 0.63348,-0.14371 0.89744,-0.43112c0.26982,-0.29328 0.40473,-0.75373 0.40473,-1.38135c0,-0.5455 -0.12024,-0.97076 -0.36073,-1.27577c-0.24049,-0.31088 -0.55136,-0.46631 -0.93263,-0.46631c-0.42232,0 -0.75959,0.16717 -1.01181,0.50151c-0.25222,0.32847 -0.37833,0.77426 -0.37833,1.33735zM255.52016,177.14932c0.86811,0 1.55145,0.26982 2.05002,0.80945c0.49857,0.53377 0.74786,1.21418 0.74786,2.04123c0,0.83291 -0.25222,1.51626 -0.75666,2.05002c-0.50444,0.53377 -1.17312,0.80065 -2.00603,0.80065c-0.9033,0 -1.60131,-0.26982 -2.09402,-0.80945c-0.48684,-0.5455 -0.73027,-1.22591 -0.73027,-2.04123c0,-0.83291 0.24929,-1.51626 0.74786,-2.05002c0.49857,-0.53377 1.17898,-0.80065 2.04123,-0.80065zM255.52016,181.80367c0.42819,0 0.76546,-0.15837 1.01181,-0.47511c0.24635,-0.32261 0.36953,-0.76546 0.36953,-1.32856c0,-0.56896 -0.12318,-1.01181 -0.36953,-1.32856c-0.24635,-0.32261 -0.58363,-0.48391 -1.01181,-0.48391c-0.41646,0 -0.7508,0.1613 -1.00302,0.48391c-0.24635,0.32261 -0.36953,0.76546 -0.36953,1.32856c0,0.56896 0.12318,1.01181 0.36953,1.32856c0.25222,0.31674 0.58656,0.47511 1.00302,0.47511zM259.64818,177.2725v-0.83585c0,-0.34607 0.01466,-0.58069 0.04399,-0.70387c0.02933,-0.12904 0.10558,-0.24049 0.22876,-0.33434c0.12318,-0.09972 0.26689,-0.14957 0.43112,-0.14957c0.14664,0 0.28155,0.04399 0.40473,0.13198c0.12318,0.08798 0.20236,0.1965 0.23756,0.32554c0.04106,0.12904 0.06159,0.33434 0.06159,0.61589v0.95023h0.27275c0.3402,0 0.56603,0.04399 0.67748,0.13198c0.11145,0.08212 0.16717,0.20236 0.16717,0.36073c0,0.34607 -0.28741,0.5191 -0.86224,0.5191h-0.25515v2.58673c0,0.35194 0.02346,0.59243 0.07039,0.72147c0.05279,0.12318 0.18477,0.18477 0.39593,0.18477c0.10558,0 0.21996,-0.01466 0.34314,-0.04399c0.12904,-0.02933 0.22582,-0.04399 0.29035,-0.04399c0.14077,0 0.25515,0.04693 0.34314,0.14077c0.08798,0.08798 0.13198,0.1965 0.13198,0.32554c0,0.46338 -0.48391,0.69507 -1.45173,0.69507c-0.46925,0 -0.81532,-0.08798 -1.03821,-0.26395c-0.21703,-0.17597 -0.35487,-0.38713 -0.41352,-0.63348c-0.05279,-0.25222 -0.07919,-0.57776 -0.07919,-0.97662v-2.69231h-0.18477c-0.41059,0 -0.61589,-0.16717 -0.61589,-0.50151c0,-0.3402 0.21703,-0.51031 0.65108,-0.51031zM266.67529,182.05882c-0.66281,0.5279 -1.31389,0.79185 -1.95324,0.79185c-0.60415,0 -1.07047,-0.15251 -1.39894,-0.45752c-0.32261,-0.31088 -0.48391,-0.68921 -0.48391,-1.13499c0,-0.38126 0.10851,-0.68921 0.32554,-0.92383c0.22289,-0.23462 0.46338,-0.39593 0.72147,-0.48391c0.26395,-0.09385 0.68921,-0.20236 1.27577,-0.32554c0.58656,-0.12318 1.05874,-0.23462 1.41654,-0.33434c-0.00586,-0.42232 -0.09092,-0.7068 -0.25515,-0.85344c-0.16424,-0.15251 -0.41352,-0.22876 -0.74786,-0.22876c-0.63348,0 -1.04994,0.1789 -1.24937,0.5367c-0.10558,0.19943 -0.20236,0.34314 -0.29035,0.43112c-0.08212,0.08212 -0.2053,0.12318 -0.36953,0.12318c-0.14664,0 -0.28155,-0.04693 -0.40473,-0.14077c-0.11731,-0.09972 -0.17597,-0.22582 -0.17597,-0.37833c0,-0.36367 0.1965,-0.70974 0.58949,-1.03821c0.39299,-0.32847 1.01181,-0.49271 1.85646,-0.49271c0.85638,0 1.48106,0.14957 1.87406,0.44872c0.39886,0.29328 0.58656,0.89157 0.5631,1.79487l-0.0264,1.31096c-0.01173,0.40473 0.02933,0.73613 0.12318,0.99422c0.09972,0.25809 0.14957,0.45458 0.14957,0.58949c0,0.14664 -0.06745,0.27861 -0.20236,0.39593c-0.12904,0.11145 -0.27275,0.16717 -0.43112,0.16717c-0.28741,0 -0.58949,-0.26395 -0.90623,-0.79185zM266.58731,180.03519c-0.21116,0.07625 -0.55723,0.16424 -1.03821,0.26395c-0.47511,0.09385 -0.81532,0.20236 -1.02061,0.32554c-0.19943,0.12318 -0.29915,0.30208 -0.29915,0.5367c0,0.2053 0.07919,0.3842 0.23756,0.5367c0.16424,0.15251 0.39006,0.22876 0.67748,0.22876c0.31088,0 0.59829,-0.08505 0.86224,-0.25515c0.26395,-0.1701 0.42526,-0.36953 0.48391,-0.59829c0.06452,-0.23462 0.09678,-0.58069 0.09678,-1.03821zM273.07849,178.10835v-0.19356c0,-0.25222 0.06159,-0.44285 0.18477,-0.5719c0.12904,-0.12904 0.29035,-0.19356 0.48391,-0.19356c0.21116,0 0.37247,0.07625 0.48391,0.22876c0.11731,0.14664 0.17597,0.46631 0.17597,0.95902v3.75691c0,1.12033 -0.23756,1.87112 -0.71267,2.25239c-0.46925,0.38713 -1.14672,0.58069 -2.03243,0.58069c-0.79772,0 -1.4224,-0.14957 -1.87406,-0.44872c-0.44578,-0.29328 -0.66868,-0.60415 -0.66868,-0.93263c0,-0.17597 0.05865,-0.31968 0.17597,-0.43112c0.11731,-0.10558 0.25809,-0.15837 0.42232,-0.15837c0.14664,0 0.26395,0.03519 0.35194,0.10558c0.08798,0.07039 0.23462,0.23756 0.43992,0.50151c0.21116,0.26395 0.5631,0.39593 1.05581,0.39593c0.27568,0 0.53084,-0.04399 0.76546,-0.13198c0.23462,-0.08212 0.40766,-0.23169 0.5191,-0.44872c0.11145,-0.21703 0.16424,-0.74493 0.15837,-1.58371c-0.42819,0.61589 -1.01475,0.92383 -1.75968,0.92383c-0.7156,0 -1.28163,-0.26689 -1.69809,-0.80065c-0.41059,-0.53377 -0.61589,-1.22004 -0.61589,-2.05882c0,-0.82705 0.21116,-1.48399 0.63348,-1.97084c0.42819,-0.49271 0.98542,-0.73906 1.67169,-0.73906c0.7508,0 1.36375,0.31968 1.83886,0.95902zM270.35099,179.9736c0,0.5455 0.11731,0.96196 0.35194,1.24937c0.24049,0.28155 0.56603,0.42232 0.97662,0.42232c0.3578,0 0.66868,-0.13784 0.93263,-0.41352c0.26395,-0.27568 0.39593,-0.68921 0.39593,-1.24057c0,-0.5455 -0.12318,-0.97662 -0.36953,-1.29336c-0.24049,-0.31674 -0.56603,-0.47511 -0.97662,-0.47511c-0.39886,0 -0.71853,0.14957 -0.95902,0.44872c-0.23462,0.29328 -0.35194,0.72733 -0.35194,1.30216zM279.45292,180.34314h-2.7451c0.01173,0.52204 0.15251,0.91503 0.42232,1.17898c0.27568,0.26395 0.60415,0.39593 0.98542,0.39593c0.46925,0 0.90917,-0.2053 1.31976,-0.61589c0.1701,-0.1701 0.29328,-0.27568 0.36953,-0.31674c0.08212,-0.04106 0.17303,-0.06159 0.27275,-0.06159c0.12904,0 0.23756,0.04106 0.32554,0.12318c0.08798,0.07625 0.13198,0.17303 0.13198,0.29035c0,0.31088 -0.2141,0.64228 -0.64228,0.99422c-0.42819,0.34607 -1.01181,0.5191 -1.75088,0.5191c-0.93849,0 -1.65116,-0.26395 -2.13801,-0.79185c-0.48098,-0.53377 -0.72147,-1.22004 -0.72147,-2.05882c0,-0.85051 0.24049,-1.53678 0.72147,-2.05882c0.48684,-0.5279 1.16139,-0.79185 2.02363,-0.79185c0.82705,0 1.46347,0.24929 1.90925,0.74786c0.45165,0.49857 0.67748,1.03821 0.67748,1.6189c0,0.25222 -0.07625,0.45458 -0.22876,0.60709c-0.14664,0.14664 -0.45752,0.21996 -0.93263,0.21996zM276.70782,179.55128h2.55153c-0.0176,-0.46925 -0.14664,-0.82411 -0.38713,-1.0646c-0.24049,-0.24635 -0.5367,-0.36953 -0.88864,-0.36953c-0.73906,0 -1.16432,0.47805 -1.27577,1.43414zM285.61638,182.05002v-0.14077c-0.48098,0.62762 -1.091,0.94143 -1.83006,0.94143c-0.7156,0 -1.28456,-0.27275 -1.70689,-0.81825c-0.42232,-0.5455 -0.63348,-1.24937 -0.63348,-2.11161c0,-0.80945 0.2053,-1.47226 0.61589,-1.98844c0.41646,-0.52204 0.98835,-0.78306 1.71569,-0.78306c0.70974,0 1.32269,0.28741 1.83886,0.86224v-1.82127c0,-0.49857 0.06159,-0.80945 0.18477,-0.93263c0.12904,-0.12318 0.30208,-0.18477 0.5191,-0.18477c0.15251,0 0.29035,0.04399 0.41352,0.13198c0.12904,0.08212 0.20823,0.19356 0.23756,0.33434c0.02933,0.14077 0.04399,0.37247 0.04399,0.69507v5.51659c0,0.31088 -0.0176,0.53377 -0.05279,0.66868c-0.02933,0.13491 -0.10851,0.24049 -0.23756,0.31674c-0.12904,0.07625 -0.26689,0.11438 -0.41352,0.11438c-0.46338,0 -0.69507,-0.26689 -0.69507,-0.80065zM282.86249,179.96481c0,0.62762 0.13198,1.08807 0.39593,1.38135c0.26395,0.28741 0.56603,0.43112 0.90623,0.43112c0.39886,0 0.72733,-0.14957 0.98542,-0.44872c0.25809,-0.30501 0.38713,-0.72733 0.38713,-1.26697c0,-0.5631 -0.12611,-1.01181 -0.37833,-1.34615c-0.25222,-0.33434 -0.58656,-0.50151 -1.00302,-0.50151c-0.38126,0 -0.69214,0.15544 -0.93263,0.46631c-0.24049,0.31088 -0.36073,0.73906 -0.36073,1.28456z" fill="#f1ff00" stroke-width="1" stroke-linecap="square"/><path d="M233.87032,196.95313v-29h3.25v29z" fill="none" stroke-width="0" stroke-linecap="butt"/></g></g></svg>