<svg version="1.1" xmlns="http://www.w3.org/2000/svg" xmlns:xlink="http://www.w3.org/1999/xlink" width="144.14414" height="60.93899" viewBox="0,0,144.14414,60.93899"><g transform="translate(-167.92793,-149.5305)"><g data-paper-data="{&quot;isPaintingLayer&quot;:true}" fill-rule="nonzero" stroke-linejoin="miter" stroke-miterlimit="10" stroke-dasharray="" stroke-dashoffset="0" style="mix-blend-mode: normal"><path d="M227.90395,180.049c0,-2.10479 0.56612,-3.78501 1.69835,-5.04063c1.13223,-1.25562 2.71809,-1.88343 4.75756,-1.88343c2.14109,0 3.76686,0.63507 4.87732,1.9052c1.11772,1.26288 1.67658,2.91405 1.67658,4.95353c0,2.03948 -0.55523,3.69791 -1.66569,4.9753c-1.11046,1.2774 -2.71809,1.91609 -4.82289,1.91609c-2.10479,0 -3.71968,-0.63506 -4.84466,-1.9052c-1.11772,-1.27014 -1.67658,-2.91042 -1.67658,-4.92086zM238.18115,179.99456c0,-1.45158 -0.33024,-2.60197 -0.99071,-3.45114c-0.66047,-0.84918 -1.58585,-1.27376 -2.77615,-1.27376c-1.10321,0 -2.01045,0.39556 -2.72172,1.18667c-0.70402,0.78385 -1.05603,1.96327 -1.05603,3.53824c0,1.56771 0.35564,2.75075 1.06691,3.54912c0.71854,0.79111 1.61489,1.18667 2.68906,1.18667c1.04514,0 1.93786,-0.39193 2.67817,-1.17579c0.74031,-0.78385 1.11046,-1.97052 1.11046,-3.56zM250.70257,186.64644h-6.3035c-0.66773,0 -1.1032,-0.14516 -1.30642,-0.43547c-0.20322,-0.29031 -0.30483,-0.5516 -0.30483,-0.78386c0,-0.46451 0.23951,-1.02337 0.71853,-1.67658c0.48628,-0.65321 1.38626,-1.52779 2.69995,-2.62373c1.32094,-1.10321 2.18101,-1.89432 2.58019,-2.37334c0.39918,-0.48628 0.59877,-1.02699 0.59877,-1.62214c0,-0.60241 -0.20685,-1.08143 -0.62055,-1.43707c-0.40645,-0.35564 -0.89636,-0.53346 -1.46973,-0.53346c-0.48628,0 -0.91812,0.13427 -1.29553,0.40282c-0.37741,0.26854 -0.65322,0.65684 -0.82741,1.1649c-0.16693,0.5008 -0.33386,0.86369 -0.50079,1.08869c-0.15967,0.225 -0.42458,0.33749 -0.79474,0.33749c-0.30483,0 -0.55886,-0.09798 -0.76209,-0.29394c-0.20322,-0.19597 -0.30483,-0.46088 -0.30483,-0.79474c0,-0.92901 0.39193,-1.7927 1.17578,-2.59107c0.78385,-0.80563 1.89794,-1.20845 3.34227,-1.20845c1.56045,0 2.70358,0.38104 3.42936,1.14312c0.72579,0.75483 1.08869,1.64029 1.08869,2.6564c0,0.79837 -0.23951,1.56046 -0.71854,2.28625c-0.47902,0.71854 -1.23021,1.48787 -2.25358,2.30802c-1.01611,0.82014 -1.67295,1.37174 -1.97053,1.6548c-0.29032,0.28306 -0.62055,0.67861 -0.9907,1.18667h4.43096c0.68224,0 1.14312,0.09798 1.38263,0.29395c0.24677,0.1887 0.37015,0.44637 0.37015,0.77297c0,0.35564 -0.10887,0.62417 -0.3266,0.80562c-0.21774,0.18145 -0.57337,0.27218 -1.06691,0.27218z" fill="#ffffff" stroke="#000000" stroke-width="3.5" stroke-linecap="square"/><path d="M227.90394,180.04899c0,-2.1048 0.56612,-3.785 1.69835,-5.04062c1.13223,-1.25562 2.71809,-1.88343 4.75756,-1.88343c2.14109,0 3.76686,0.63507 4.87732,1.9052c1.11772,1.26288 1.67658,2.91405 1.67658,4.95353c0,2.03947 -0.55523,3.69791 -1.66569,4.9753c-1.11046,1.27739 -2.71809,1.91609 -4.82289,1.91609c-2.1048,0 -3.71968,-0.63507 -4.84466,-1.9052c-1.11772,-1.27014 -1.67658,-2.91042 -1.67658,-4.92087zM238.18115,179.99456c0,-1.45158 -0.33024,-2.60196 -0.99071,-3.45114c-0.66047,-0.84918 -1.58585,-1.27376 -2.77615,-1.27376c-1.1032,0 -2.01044,0.39556 -2.72172,1.18667c-0.70402,0.78385 -1.05603,1.96327 -1.05603,3.53823c0,1.56771 0.35564,2.75075 1.06691,3.54912c0.71853,0.79111 1.61489,1.18667 2.68906,1.18667c1.04514,0 1.93786,-0.39193 2.67817,-1.17578c0.74031,-0.78385 1.11046,-1.97052 1.11046,-3.56001zM250.70256,186.64644h-6.3035c-0.66773,0 -1.1032,-0.14516 -1.30642,-0.43547c-0.20322,-0.29032 -0.30483,-0.5516 -0.30483,-0.78385c0,-0.46451 0.23951,-1.02337 0.71853,-1.67658c0.48628,-0.65321 1.38626,-1.52779 2.69994,-2.62374c1.32094,-1.1032 2.181,-1.89432 2.58019,-2.37334c0.39919,-0.48628 0.59878,-1.027 0.59878,-1.62214c0,-0.60241 -0.20685,-1.08143 -0.62055,-1.43707c-0.40644,-0.35564 -0.89635,-0.53346 -1.46973,-0.53346c-0.48628,0 -0.91813,0.13427 -1.29554,0.40281c-0.37741,0.26854 -0.65321,0.65684 -0.8274,1.1649c-0.16693,0.5008 -0.33386,0.86369 -0.5008,1.08869c-0.15967,0.225 -0.42459,0.33749 -0.79474,0.33749c-0.30483,0 -0.55886,-0.09798 -0.76208,-0.29395c-0.20322,-0.19596 -0.30483,-0.46088 -0.30483,-0.79474c0,-0.92901 0.39193,-1.79271 1.17578,-2.59108c0.78385,-0.80563 1.89794,-1.20844 3.34227,-1.20844c1.56045,0 2.70357,0.38104 3.42937,1.14312c0.72579,0.75482 1.08869,1.64029 1.08869,2.6564c0,0.79837 -0.23951,1.56045 -0.71853,2.28624c-0.47902,0.71853 -1.23022,1.48787 -2.25358,2.30802c-1.01611,0.82014 -1.67295,1.37175 -1.97052,1.6548c-0.29032,0.28306 -0.62055,0.67862 -0.99071,1.18667h4.43096c0.68224,0 1.14312,0.09798 1.38263,0.29395c0.24677,0.18871 0.37015,0.44636 0.37015,0.77297c0,0.35564 -0.10887,0.62418 -0.32661,0.80563c-0.21774,0.18145 -0.57338,0.27217 -1.06691,0.27217z" fill="#ffffff" stroke="none" stroke-width="1" stroke-linecap="square"/><path d="M167.92793,210.4695v-60.93899h144.14414v60.93899z" fill="none" stroke="none" stroke-width="none" stroke-linecap="butt"/></g></g></svg>