<svg version="1.1" xmlns="http://www.w3.org/2000/svg" xmlns:xlink="http://www.w3.org/1999/xlink" width="493.47786" height="433.6547" viewBox="0,0,493.47786,433.6547"><g transform="translate(6.75221,42.37238)"><g data-paper-data="{&quot;isPaintingLayer&quot;:true}" fill-rule="nonzero" stroke-linejoin="miter" stroke-miterlimit="10" stroke-dasharray="" stroke-dashoffset="0" style="mix-blend-mode: normal"><path d="M486.72565,183.13698c-1.9588,115.24167 -111.67141,208.14534 -246.72561,208.14534c-136.2775,0 -246.75225,-94.59431 -246.75225,-211.28231v-0.00001c0,-116.688 110.47475,-211.28231 246.75225,-211.28231c126.91774,0 231.45535,82.04672 245.21631,187.57545" fill="none" stroke="none" stroke-width="0" stroke-linecap="butt"/><path d="M102.15983,123.96029c0.80452,-7.87277 13.91586,-28.759 20.47311,-30.13947c8.22505,-1.73159 33.79876,-1.06692 33.79876,-1.06692v173.58225c0,0 -37.29848,13.18978 -49.13736,-25.20634c-11.83888,-38.39612 -6.84644,-100.417 -5.13451,-117.16952z" fill="#9deeba" stroke="none" stroke-width="0" stroke-linecap="butt"/><path d="M156.43167,266.33615c0,0 -37.31476,6.92079 -44.13735,-15.20635c-6.82259,-22.12714 -12.84645,-50.41699 -12.13452,-71.16951c0.57736,-16.82987 -5.08414,-80.759 22.47311,-86.13947c6.56678,-1.33438 33.79876,-1.06692 33.79876,-1.06692" fill="none" stroke="#41d775" stroke-width="20" stroke-linecap="butt"/><path d="M153.68221,196.73184c-1.29557,-40.59935 -2.18976,-64.64258 3.82278,-105.36377c6.01254,-40.72119 25.26336,-69.42694 25.26336,-69.42694c0,0 15.50689,-13.75967 33.92797,-13.75967c13.89376,0 29.0474,-1.28211 55.15115,1.51542c24.08114,2.58076 49.78668,36.18664 49.78668,36.18664c0,0 47.80199,42.92692 40.64743,65.04957c-3.58511,11.08554 -19.76397,29.28712 -19.76397,29.28712c0,0 0.59329,36.34216 -0.79635,74.71221c-0.90198,24.90517 -3.32381,49.05103 -4.9577,70.156c-1.42066,18.35064 0.03095,29.12346 -3.15369,34.62328c-4.80191,8.29283 -49.54227,17.30589 -59.8792,1.52143c-2.93256,-4.478 -5.78002,-27.2419 -0.48339,-37.24829c5.72828,-10.82186 19.76378,-8.75285 19.76378,-8.75285l-53.31565,-4.11349c0,0 -5.16002,7.78362 -6.05223,20.04352c-0.98152,13.48688 1.94373,31.8876 -6.58143,39.6358c-11.28457,10.25613 -36.84849,10.31829 -51.46441,9.39217c-6.46334,-0.40954 -11.39168,-5.90929 -12.32711,-14.40634c0,0 -7.92048,-76.79596 -9.58802,-129.05181z" fill="#9deeba" stroke="none" stroke-width="0" stroke-linecap="butt"/><path d="M153.6823,196.732c-1.29557,-40.59935 -2.18976,-64.64258 3.82278,-105.36377c5.99333,-40.59109 13.20371,-70.12069 39.55549,-82.12102c9.51231,-4.33181 71.94161,-6.97046 85.36033,-1.64881c26.33969,10.44591 43.84607,34.67306 49.21334,49.29128c10.82684,29.4878 10.88346,83.33068 10.88346,83.33068c0,0 2.09479,38.34216 0.70515,76.71221c-0.90198,24.90517 -6.32982,43.05103 -7.96371,64.156c-1.63389,21.10497 1.69592,25.34306 -6.65219,37.62328c-8.34812,12.28022 -42.12612,15.67952 -51.3747,3.02293c-7.44206,-10.18438 -6.81086,-31.67606 -6.21023,-39.90978c0.33781,-4.63084 -1.68128,12.76198 0.22534,9.15999c5.29663,-10.00639 10.76378,-15.75285 10.76378,-15.75285l-48.31565,-1.11349c0,0 0.83999,4.78362 -0.05224,17.04352c-0.98152,13.48687 1.94373,36.3891 -6.58143,44.13731c-8.52516,7.74821 -30.84849,5.81679 -45.46441,4.89067c-5.27628,-0.33433 -5.60856,-1.61163 -7.80996,-3.4987c-3.89673,-3.34034 -7.24362,-8.59127 -8.51115,-13.90463c-3.93543,-16.49705 -9.92648,-73.79897 -11.59402,-126.05482z" fill="none" stroke="#42d576" stroke-width="23" stroke-linecap="butt"/><path d="M309.66292,51.86911c34.9912,13.39437 59.77318,36.94132 52.61863,59.06398c-3.58511,11.08554 -19.76397,29.28712 -19.76397,29.28712c0,0 -63.93902,23.16195 -95.57769,3.52082c-17.66536,-10.96657 -42.14706,-49.79267 -26.37385,-72.23514c17.06702,-24.28335 70.91203,-26.59781 89.0969,-19.63677z" fill="#9deeba" stroke="none" stroke-width="0" stroke-linecap="butt"/><path d="M343.51765,141.22019c-25.09967,10.51942 -74.87795,19.19815 -107.57769,-0.47918c-18.96117,-11.41004 -26.14706,-47.79267 -10.37385,-70.23514c15.77321,-22.44247 51.80846,-21.31824 85.0969,-18.63677c52.9583,4.26593 68.36079,74.47025 32.85464,89.35109z" fill="none" stroke="#41d375" stroke-width="20" stroke-linecap="butt"/><path d="M232.19523,278.11723c0,0 -6.62306,-18.39613 -12.80183,-61.00816c-1.82171,-12.56346 -3.57816,-45.45051 -3.69914,-68.02131c-0.34584,-64.52024 5.50098,-137.97053 5.50098,-137.97053" fill="none" stroke="#41d375" stroke-width="8.5" stroke-linecap="round"/><path d="M265.19524,149.11721c0,0 -0.35583,51.24964 -8.09981,76.43056c-5.30161,17.2391 -23.90019,41.56944 -23.90019,41.56944" fill="none" stroke="#41d375" stroke-width="8.5" stroke-linecap="round"/><path d="M299.19524,155.11721c0,0 -0.95798,46.44059 -5.89622,66.01717c-4.30909,17.08246 -22.10378,44.98283 -22.10378,44.98283" fill="none" stroke="#41d375" stroke-width="8.5" stroke-linecap="round"/><path d="M326.19524,143.11721c0,0 1.56966,65.84798 -7.30317,88.88322c-8.43871,21.90821 -44.69683,40.11678 -44.69683,40.11678" fill="none" stroke="#41d375" stroke-width="8.5" stroke-linecap="round"/><path d="M290.19524,269.11723c0,0 0.5715,18.39237 -0.71007,27.04295c-1.37808,9.30207 -7.28993,26.95705 -7.28993,26.95705" fill="none" stroke="#41d375" stroke-width="8.5" stroke-linecap="round"/><path d="M157.19521,254.11723c0,0 48.75266,15.42914 92.01969,13.5342c18.05905,-0.79092 32.82701,-1.87739 46.55571,-4.12622c21.40713,-3.5066 37.4246,-8.40798 37.4246,-8.40798l-33,77" fill="none" stroke="#41d375" stroke-width="8.5" stroke-linecap="round"/><path d="M201.19524,332.11723c0,0 -16.12064,-14.71005 -13.65536,-148.93295c2.04901,-111.55889 18.65536,-175.06705 18.65536,-175.06705" fill="none" stroke="#41d375" stroke-width="8.5" stroke-linecap="round"/><path d="M161.19521,259.11723c0,0 12.78512,29.91125 16.17961,42.95325c2.83907,10.908 2.82039,30.04675 2.82039,30.04675" fill="none" stroke="#41d375" stroke-width="8.5" stroke-linecap="round"/><path d="M217.19524,336.11723c0,0 -0.65714,-25.43807 -0.11051,-37.8284c0.41907,-9.49888 3.11051,-30.1716 3.11051,-30.1716" fill="none" stroke="#41d375" stroke-width="8.5" stroke-linecap="round"/><path d="M235.19524,300.11723c0,0 -21.27578,4 -32,4c-13.35897,0 -44,-7 -44,-7" fill="none" stroke="#41d375" stroke-width="8.5" stroke-linecap="round"/><path d="M331.19524,294.11723c0,0 -22.3118,4.66704 -31.97415,4.50045c-9.67097,-0.16675 -26.02585,-3.50045 -26.02585,-3.50045" fill="none" stroke="#41d375" stroke-width="8.5" stroke-linecap="round"/><path d="M335.19524,233.84662c0,0 -35.86239,10.37665 -89.02245,8.13924c-52.82099,-2.22314 -84.97755,-12.80591 -84.97755,-12.80591" fill="none" stroke="#41d375" stroke-width="8.5" stroke-linecap="round"/><path d="M335.19524,186.84661c0,0 -35.86239,10.37665 -89.02245,8.13924c-52.82099,-2.22314 -84.97755,-12.80591 -84.97755,-12.80591" fill="none" stroke="#41d375" stroke-width="8.5" stroke-linecap="round"/><path d="M335.19524,149.84661c0,0 -35.86239,10.37665 -89.02245,8.13924c-52.82099,-2.22314 -84.97755,-12.80591 -84.97755,-12.80591" fill="none" stroke="#41d375" stroke-width="8.5" stroke-linecap="round"/><path d="M358.19521,109.6248c0,0 -40.80893,14.33058 -101.30141,11.24063c-12.73058,-0.65028 -24.40632,-1.81846 -34.90295,-3.25598c-2.64025,-0.36158 1.81713,-8.32756 -0.69496,-8.13192c-33.3368,2.59632 -61.10067,-6.2976 -61.10067,-6.2976" fill="none" stroke="#41d375" stroke-width="8.5" stroke-linecap="round"/><path d="M353.19523,84.11721c0,0 -40.78321,7.13236 -62.03641,7.75289c-24.06355,0.70259 -74.96359,-3.75289 -74.96359,-3.75289" fill="none" stroke="#41d375" stroke-width="8.5" stroke-linecap="round"/><path d="M219.19523,71.11721c0,0 -17.70339,-0.29008 -25.64301,-1.44794c-8.05861,-1.17521 -22.35699,-5.55206 -22.35699,-5.55206" fill="none" stroke="#41d375" stroke-width="8.5" stroke-linecap="round"/><path d="M310.19523,33.11721c0,0 -55.18766,8.25762 -76.88747,7.02267c-18.9171,-1.07659 -53.11253,-5.02267 -53.11253,-5.02267" fill="none" stroke="#41d375" stroke-width="8.5" stroke-linecap="round"/><path d="M242.19523,65.11721c0,0 12.02237,14.67097 15.77968,34.19379c7.91648,41.13378 -4.77968,47.80621 -4.77968,47.80621" fill="none" stroke="#41d375" stroke-width="8.5" stroke-linecap="round"/><path d="M277.19523,59.11721c0,0 13.8224,19.1837 18.20175,36.17636c8.02678,31.14534 0.79825,49.82364 0.79825,49.82364" fill="none" stroke="#41d375" stroke-width="8.5" stroke-linecap="round"/><path d="M306.19523,58.11721c0,0 18.64262,29.41967 21.8869,42.75724c4.62238,25.78088 -2.8869,43.24276 -2.8869,43.24276" fill="none" stroke="#41d375" stroke-width="8.5" stroke-linecap="round"/><path d="M139.1952,265.11721c0,0 -14.24444,-42.37291 -9.79719,-82.90069c2.04958,-18.67784 18.79719,-26.09931 18.79719,-26.09931" fill="none" stroke="#41d375" stroke-width="7" stroke-linecap="round"/><path d="M121.19523,259.11721c0,0 -15.54664,-85.66951 -4.0554,-123.44643c7.64319,-25.12663 37.0554,-28.55357 37.0554,-28.55357" fill="none" stroke="#41d375" stroke-width="7" stroke-linecap="round"/><path d="M153.1952,131.11721c0,0 -18.95164,0.83137 -26.90769,-1.33846c-6.34103,-1.72937 -17.09231,-4.66154 -17.09231,-4.66154" fill="none" stroke="#41d375" stroke-width="7" stroke-linecap="round"/><path d="M146.1952,160.11721c0,0 -18.95164,0.83137 -26.90769,-1.33846c-6.34103,-1.72937 -17.09231,-4.66154 -17.09231,-4.66154" fill="none" stroke="#41d375" stroke-width="7" stroke-linecap="round"/><path d="M150.1952,198.11721c0,0 -18.95164,0.83137 -26.90769,-1.33846c-6.34103,-1.72937 -17.09231,-4.66154 -17.09231,-4.66154" fill="none" stroke="#41d375" stroke-width="7" stroke-linecap="round"/><path d="M157.1952,242.11721c0,0 -18.95164,0.83137 -26.90769,-1.33846c-2.64551,-0.7215 -6.05867,-1.65236 -9.13847,-2.49231c-4.30218,-1.17332 -7.95385,-2.16923 -7.95385,-2.16923" fill="none" stroke="#41d375" stroke-width="7" stroke-linecap="round"/><path d="M261.19521,50.11721l-7,-42" fill="none" stroke="#41d375" stroke-width="8.5" stroke-linecap="round"/><path d="M303.19521,47.11721l-10,-25" fill="none" stroke="#41d375" stroke-width="8.5" stroke-linecap="round"/><path d="M225.34903,130.30029v-172.67267h64.56456v172.67267z" fill="none" stroke="none" stroke-width="0" stroke-linecap="butt"/></g></g></svg>