<svg version="1.1" xmlns="http://www.w3.org/2000/svg" xmlns:xlink="http://www.w3.org/1999/xlink" width="504.50451" height="438.75975" viewBox="0,0,504.50451,438.75975"><g transform="translate(12.25226,47.47707)"><g data-paper-data="{&quot;isPaintingLayer&quot;:true}" fill-rule="nonzero" stroke-linecap="butt" stroke-linejoin="miter" stroke-miterlimit="10" stroke-dasharray="" stroke-dashoffset="0" style="mix-blend-mode: normal"><path d="M-12.25226,183.32467c0,-114.85201 112.93718,-207.95796 252.25225,-207.95796c139.31507,0 252.25225,93.10595 252.25225,207.95796c0,114.85201 -112.93718,207.95796 -252.25225,207.95796c-139.31507,0 -252.25225,-93.10595 -252.25225,-207.95796z" fill="none" stroke="none" stroke-width="0"/><path d="M-12.25226,180.00035c0,-116.688 112.93718,-211.28231 252.25225,-211.28231c139.31507,0 252.25226,94.59431 252.25226,211.28231c0,116.688 -112.93719,211.28232 -252.25226,211.28232c-139.31507,0 -252.25225,-94.59431 -252.25225,-211.28231z" fill="none" stroke="none" stroke-width="0"/><path d="M-12.25226,183.7465c0,-114.61906 112.93718,-207.53617 252.25225,-207.53617c139.31507,0 252.25225,92.91711 252.25225,207.53618c0,114.61907 -112.93718,207.53617 -252.25225,207.53617c-139.31507,0 -252.25225,-92.91711 -252.25225,-207.53617z" fill="none" stroke="none" stroke-width="0"/><path d="M-12.25226,183.32467c0,-114.85201 112.93718,-207.95796 252.25225,-207.95796c139.31507,0 252.25225,93.10595 252.25225,207.95796c0,114.85201 -112.93718,207.95796 -252.25225,207.95796c-139.31507,0 -252.25225,-93.10595 -252.25225,-207.95796z" fill="none" stroke="none" stroke-width="0"/><path d="M-12.25226,180.00035c0,-116.688 112.93718,-211.28231 252.25225,-211.28231c139.31507,0 252.25226,94.59431 252.25226,211.28231c0,116.688 -112.93719,211.28232 -252.25226,211.28232c-139.31507,0 -252.25225,-94.59431 -252.25225,-211.28231z" fill="none" stroke="none" stroke-width="0"/><path d="M-12.25226,183.7465c0,-114.61906 112.93718,-207.53617 252.25225,-207.53617c139.31507,0 252.25225,92.91711 252.25225,207.53618c0,114.61907 -112.93718,207.53617 -252.25225,207.53617c-139.31507,0 -252.25225,-92.91711 -252.25225,-207.53617z" fill="none" stroke="none" stroke-width="0"/><path d="M18.52852,369.94035v-417.41742h442.94295v417.41742z" fill="none" stroke="none" stroke-width="0"/><path d="M138.15987,109.05821c0.80452,-7.87277 13.91586,-28.759 20.47311,-30.13947c8.22505,-1.73159 33.79876,-1.06692 33.79876,-1.06692v173.58225c0,0 -37.29848,13.18978 -49.13736,-25.20634c-11.83888,-38.39612 -6.84644,-100.417 -5.13451,-117.16952z" fill="#ad4962" stroke="none" stroke-width="0"/><path d="M141.87594,124.73658l5.21828,-40.89916h41.7462l-0.30457,31.9251c0,0 -16.2689,-6.27528 -25.59801,-4.44172c-9.32912,1.83355 -21.0619,13.41578 -21.0619,13.41578z" fill="#d76363" stroke="none" stroke-width="0"/><path d="M192.43174,251.43417c0,0 -37.31476,6.92079 -44.13735,-15.20635c-6.82259,-22.12714 -12.84645,-50.41699 -12.13452,-71.16951c0.57736,-16.82987 -5.08414,-80.759 22.47311,-86.13947c6.56678,-1.33438 33.79876,-1.06692 33.79876,-1.06692" fill="none" stroke="#240f14" stroke-width="16"/><path d="M189.68228,181.82978c-1.29557,-40.59935 -2.18976,-64.64258 3.82278,-105.36377c6.01254,-40.72119 25.26336,-69.42694 25.26336,-69.42694c0,0 15.50689,-13.75967 33.92797,-13.75967c13.89376,0 29.0474,-1.28211 55.15115,1.51542c24.08114,2.58076 49.78668,36.18664 49.78668,36.18664c0,0 47.80199,42.92692 40.64743,65.04957c-3.58511,11.08554 -19.76397,29.28712 -19.76397,29.28712c0,0 -3.40671,38.34216 -4.79635,76.71221c-0.90198,24.90517 -24.32381,59.05103 -25.9577,80.156c-2.25182,29.08663 -60.33165,0.58842 -75.03289,26.14471c-9.40821,16.35503 -27.94856,16.87443 -50.03526,22.88537c-22.0867,6.01094 -36.16002,-22.21638 -60.05223,-28.95648c-11.83058,-3.33746 -28.05627,-1.1124 -46.58143,-7.3642c-18.52516,-6.2518 -0.84849,-10.68171 -24.46441,-42.60783c12.71965,-7.25902 64.60832,16.09071 92.67289,3.59366c7.80914,-3.47738 7.07952,-21.79596 5.41198,-74.05181z" fill="#ad4962" stroke="none" stroke-width="0"/><path d="M221.35975,1.46204c0,0 63.1772,-9.49067 84.8093,-8.07549c21.0492,1.37705 53.70547,22.2438 53.70547,22.2438l8.89916,104.12054c0,0 7.99996,51.6856 -19.04336,80.48386c-2.57158,2.73846 -1.85996,24.34324 -10.64597,31.90234c-7.38907,6.35723 -22.13011,13.38944 -27.11861,19.36449c-7.6762,9.19427 -0.24675,14.85013 -8.82039,22.82448c-15.83349,14.72675 -36.77195,10.62424 -36.77195,10.62424c0,0 33.7444,-46.45152 -11.2816,-61.38865c-51.8217,-17.19157 -43.50613,-126.09913 -43.50613,-147.08975c0,-20.99062 9.77408,-75.00986 9.77408,-75.00986z" fill="#d76363" stroke="none" stroke-width="0"/><path d="M189.68228,181.82978c-1.29557,-40.59935 -2.18976,-64.64258 3.82278,-105.36377c8.15677,-55.24343 21.34897,-87.21703 77.19133,-87.18661c80.02951,0.04359 88.6357,24.09051 96.93783,46.70206c10.82684,29.4878 10.88346,89.33669 10.88346,89.33669c0,0 1.59329,7.34216 0.20365,45.71221c-0.22093,6.10024 3.17253,27.24325 -2.74188,42.1489c-5.45097,13.7377 -20.16346,21.12321 -22.16224,30.45715c-4.68662,21.88563 7.2803,32.08562 -15.05358,52.54995c-18.85388,17.27564 -34.92038,-4.56618 -63.74162,11.73643c-21.9591,12.42107 -23.17298,23.85438 -61.77466,23.15999c-42.81178,-0.77012 -30.69917,-24.2727 -59.60411,-30.82282c-31.43085,-7.12251 -9.12522,5.75891 -46.04584,-10.97202c-7.53944,-3.41657 -3.05278,-17.81545 -7.43136,-24.58324c-7.3163,-11.30849 -19.6723,-15.64695 -9.89575,-16.8231c27.57555,-3.31745 24.99233,13.18258 56.35796,14.29955c25.12254,0.89464 47.38912,-6.74262 48.25304,-25.82774c1.21786,-26.90428 -4.69855,-38.84075 -5.19901,-54.52363z" fill="none" stroke="#240f14" stroke-width="16"/><path d="M345.663,36.96691c34.9912,13.39437 59.77318,36.94132 52.61863,59.06398c-3.58511,11.08554 -19.76397,29.28712 -19.76397,29.28712c0,0 -63.93902,23.16195 -95.57769,3.52082c-17.66536,-10.96657 -42.14706,-49.79267 -26.37385,-72.23514c17.06702,-24.28335 70.91203,-26.59781 89.0969,-19.63677z" fill="#4a646d" stroke="none" stroke-width="0"/><path d="M277.83585,60.43019c5.97118,-19.89599 26.03837,-25.43427 45.49052,-25.43427c19.25264,0 38.63001,9.43427 38.63001,9.43427c0,0 33.59001,20.9898 21.5135,48.23943c-8.64009,19.49566 -60.85434,18.10599 -80.49454,10.13595c-19.6402,-7.97004 -31.11067,-22.47939 -25.13949,-42.37538z" fill="#94c9db" stroke="none" stroke-width="0"/><path d="M359.26751,48.70178c26.17019,6.28142 18.38326,33.7961 2.53497,27.77018c-18.94713,-7.20418 -34.0349,-5.36728 -36.4473,-17.57695c-3.38666,-17.14057 15.27171,-14.66738 33.91233,-10.19323z" fill="#fefefe" stroke="none" stroke-width="0"/><path d="M379.51765,126.31815c-25.09967,10.51942 -74.87795,19.19815 -107.57769,-0.47918c-18.96117,-11.41004 -26.14706,-47.79267 -10.37385,-70.23514c15.77321,-22.44247 51.80846,-21.31824 85.0969,-18.63677c52.9583,4.26593 68.36079,74.47025 32.85464,89.35109z" fill="none" stroke="#1d2433" stroke-width="16"/></g></g></svg>