<svg version="1.1" xmlns="http://www.w3.org/2000/svg" xmlns:xlink="http://www.w3.org/1999/xlink" width="170.45504" height="69.12706" viewBox="0,0,170.45504,69.12706"><g transform="translate(-166.1408,-145.7403)"><g data-paper-data="{&quot;isPaintingLayer&quot;:true}" fill-rule="nonzero" stroke-linecap="butt" stroke-linejoin="miter" stroke-miterlimit="10" stroke-dasharray="" stroke-dashoffset="0" style="mix-blend-mode: normal"><path d="M175.88867,178.60547l79.67279,-29.36142l60.07722,0.36142c0,0 -35.72382,12.04761 -34.71884,31.73136c0.2446,15.99881 34.46884,29.12057 34.46884,29.12057l-57.8207,0.89943z" fill="#cacad8" stroke="none" stroke-width="0"/><path d="M175.88867,178.60547l105.03116,2.73136c0,0 4.67735,10.50337 9.86769,14.88837c6.13921,5.18664 24.60115,14.2322 24.60115,14.2322l-57.8207,0.89943z" fill="#a3a3b2" stroke="none" stroke-width="0"/><path d="M253.38178,180.6207l49.28805,-29.53387c0,0 -22.71981,19.43943 -21.29537,28.8788c2.46738,16.35056 34.01421,30.49177 34.01421,30.49177l-57.8207,0.89943l-22.73371,-9.11565z" fill="#858591" stroke="none" stroke-width="0"/><path d="M253.38178,180.6207l62.00689,29.83669l-60.5707,0.89943z" fill="#57575e" stroke="none" stroke-width="0"/><path d="M175.88867,178.60547l79.67279,-29.36142l60.07721,0.36142c0,0 -35.72382,12.04761 -34.71884,31.73136c0.2446,15.99881 34.46884,29.12057 34.46884,29.12057l-57.8207,0.89943z" fill="none" stroke="#41414b" stroke-width="7"/></g></g></svg>