<svg version="1.1" xmlns="http://www.w3.org/2000/svg" xmlns:xlink="http://www.w3.org/1999/xlink" width="246.56953" height="222.27976" viewBox="0,0,246.56953,222.27976"><defs><linearGradient x1="251.30582" y1="152.33361" x2="251.30582" y2="158.7309" gradientUnits="userSpaceOnUse" id="color-1"><stop offset="0" stop-color="#4a646d"/><stop offset="1" stop-color="#4d6871"/></linearGradient></defs><g transform="translate(-116.71523,-68.86012)"><g data-paper-data="{&quot;isPaintingLayer&quot;:true}" fill-rule="nonzero" stroke-linecap="butt" stroke-linejoin="miter" stroke-miterlimit="10" stroke-dasharray="" stroke-dashoffset="0" style="mix-blend-mode: normal"><path d="M240.60016,167.7326c0,0 3.53436,-8.45213 5.4977,-11.88798c1.3923,-2.43652 7.16968,-7.57991 7.16968,-7.57991l11.73411,3.33348v16.66775z" fill="#000000" stroke="#000000" stroke-width="2"/><path d="M215.90585,198.03425v-29.6c0,0 11.32803,-2 15.23286,3.75c1.96227,2.88952 3.83127,-3.98232 9.95336,-4.70111c11.19725,-1.31467 28.41378,0.95111 28.41378,0.95111v29.6z" fill="#000000" stroke="none" stroke-width="NaN"/><path d="M267.30582,199.23422v-40.6h16v40.6z" fill="#000000" stroke="none" stroke-width="NaN"/><path d="M212.01044,168.21985c9.32883,-2.55955 13.17325,-3.08885 14.61049,-2.25447c0.56277,0.32671 1.34608,1.20512 1.70225,2.56053c0.38519,1.46583 -0.0887,3.38606 -0.66674,4.11371c-0.65056,0.81894 -5.95135,5.07036 -9.25632,8.08311c-1.50205,1.16719 -2.69304,2.86788 -3.7654,3.53905c-0.91623,0.57346 -1.72685,0.50636 -1.77765,0.49701c-1.52202,-0.27996 -4.39087,-1.35951 -6.6299,-4.05697c-1.2246,-1.47532 -4.74201,-5.33468 -4.79206,-6.76152c-0.08594,-2.45006 6.53881,-4.61295 10.57534,-5.72045z" fill="#1e1f26" stroke="none" stroke-width="0"/><path d="M205.93656,171.99521c3.84266,-1.42136 14.05049,-5.02941 18.76118,-5.07068c1.557,-0.01364 2.36841,0.89466 2.7386,1.50882c0.18836,0.31248 0.09249,0.72015 -0.20764,1.01712c-1.82268,1.80348 -8.44479,8.24024 -10.93804,9.07222c-4.67713,1.56072 -9.05824,-2.64345 -10.91879,-4.78946c-0.60101,-0.69323 -0.37918,-1.38888 0.56469,-1.73801z" fill="#3f474e" stroke="none" stroke-width="0"/><path d="M242.78417,159.55807c-0.02114,-0.61719 0.00415,-1.48991 0.23416,-2.22595c0.40244,-1.28782 2.19975,-4.3394 3.22257,-6.47047c0.54136,-1.12793 2.2186,-1.51117 4.12152,-0.77885c3.426,1.31846 8.33183,3.12952 9.64109,3.63338c0.62071,0.23887 0.62091,1.82173 0.1977,2.55513c-0.69199,1.19916 -1.59592,3.07788 -1.55485,4.65247c0.03227,1.23698 -0.91375,2.62216 -2.19904,2.41334c-3.11747,-0.50649 -8.60752,-1.18104 -10.49557,-1.57184c-0.72007,-0.14905 -1.69589,-0.6291 -2.36084,-0.989c-0.44265,-0.23958 -0.79063,-0.74786 -0.80674,-1.2182z" fill="#1b1c22" stroke="none" stroke-width="0"/><path d="M254.1443,189.40779c0,0 1.47834,-2.58854 0.4274,-5.74224c-0.69652,-2.09015 -9.11618,-10.45221 -16.51025,-13.40681c-1.79851,-0.71866 -0.18485,-2.00974 0.00106,-2.32197c1.09743,-1.84318 2.90911,-4.2727 3.40544,-5.04692c0.31633,-0.49343 1.46187,-0.92986 2.20871,-0.78509c3.58319,0.69459 14.00684,2.81271 14.42765,1.94991c0.50851,-1.04263 4.40859,-10.36058 3.11131,-10.90361c-2.25324,-0.94318 -7.03374,-2.82627 -9.15949,-3.8205c-0.99221,-0.46407 -0.02293,-1.84822 -0.02293,-1.84822c0,0 6.63665,-3.84365 14.02246,-2.01009c10.36426,4.31932 11.37084,10.52103 12.38125,12.42865c2.28017,4.3049 3.52435,33.44441 -10.1376,45.69807c-13.66195,12.25366 -31.60978,0.82091 -34.84348,-5.35367c-0.34858,-0.6656 3.03569,-3.61331 4.59009,-6.23641c1.5544,-2.6231 1.05992,-3.29814 1.05992,-3.29814c0,0 -1.06306,2.26578 -2.84421,4.54749c-2.76809,3.54601 -6.96204,7.74747 -9.21471,8.3043c-4.34089,1.07303 -17.03269,-2.89702 -22.33869,-5.69717c-0.8422,-0.44446 21.97705,-24.09766 28.28149,-25.09135c7.89042,-1.24367 17.83854,8.69657 21.36577,14.23589c1.25133,1.96514 -0.21117,4.39786 -0.21117,4.39786z" fill="#1b1c22" stroke="#1b1c22" stroke-width="0"/><path d="M273.68989,197.66481c0.91692,-2.198 2.48801,-6.67254 3.75069,-11.61289c1.34358,-5.25689 2.22694,-11.04118 2.52015,-15.17133c0.40164,-5.65753 0.10951,-9.19144 -0.17424,-11.07184c-0.17705,-1.17327 -0.35085,-1.70283 -0.35085,-1.70283c0,0 3.93604,-0.40875 5.32864,-0.55337c0.89791,-0.09324 2.33868,0.59839 2.52638,1.98487c0.6701,4.94989 2.15967,17.01242 1.77902,23.88382c-0.64341,11.61494 -0.79953,13.93648 -0.84415,14.14767c-0.62985,2.98126 -8.48008,3.69281 -12.75308,3.12085c-0.74367,-0.09955 -1.25811,-0.3105 -1.61387,-0.55117c-0.75374,-0.50991 -0.44648,-1.80786 -0.16869,-2.47376z" fill="#030303" stroke="none" stroke-width="0"/><path d="M254.51358,189.63142c0,0 2.86673,-4.13669 1.83145,-7.2434c-0.91281,-2.73922 -14.22509,-13.46226 -14.22509,-13.46226c0,0 0.97368,-3.07988 2.51265,-3.28952c1.53896,-0.20963 8.32587,1.40247 12.31852,1.62717c1.16845,0.06576 2.19665,0.00648 2.69759,-1.02062c0.50094,-1.0271 2.12891,-8.33506 2.96293,-10.58545c0.5636,-1.52073 0.67477,-2.79419 -0.60319,-3.32913c-2.21967,-0.92912 -6.40002,-2.07894 -8.4941,-3.05836c-0.97743,-0.45715 -1.08039,-0.93918 -1.08039,-0.93918c0,0 8.68509,-3.14218 13.81352,-1.33594c7.20357,2.5371 10.77195,9.9348 11.76729,11.814c2.2462,4.24076 0.43358,26.21043 -6.33609,37.28677c-8.78276,14.37009 -30.06512,7.03593 -33.25063,0.95336c-0.34339,-0.65568 2.09695,-3.56329 2.15963,-6.14348c0.06268,-2.5802 -1.53266,-4.75213 -1.53266,-4.75213c0,0 -2.61188,3.34709 -3.93196,5.92143c-2.29164,4.46903 -4.30028,5.19317 -7.94729,6.09467c-4.27622,1.05704 -13.98736,-1.35072 -19.21431,-4.10914c-0.82964,-0.43783 19.50225,-21.806 25.71275,-22.78488c7.77285,-1.22514 17.57273,8.56699 21.04741,14.02377c1.23269,1.93586 -0.20803,4.33233 -0.20803,4.33233z" fill="#3f474e" stroke="none" stroke-width="0"/><path d="M278.05285,197.19059c0.89531,-1.35146 1.96683,-3.4443 2.7472,-6.47215c1.67973,-6.51734 2.13474,-12.41702 2.70556,-20.4575c0.3515,-4.9512 0.09584,-8.04391 -0.15249,-9.68955c-0.03643,-0.24137 -0.07269,-0.45161 -0.10686,-0.63201c-0.1112,-0.58705 0.12836,-0.72178 0.56944,-0.77978c0.27837,-0.03661 2.23701,-0.18569 2.26864,0.39272c0.03163,0.57841 2.0577,28.87554 0.62853,35.64022c-0.8504,4.02518 -5.06636,4.49677 -7.85018,4.34862c-1.44655,-0.07698 -1.75664,-0.92137 -0.80983,-2.35057z" fill="#3f474e" stroke="none" stroke-width="0"/><path d="M116.71526,180c0,-61.38087 55.19647,-111.13988 123.28475,-111.13988c68.08831,0 123.28475,49.75902 123.28475,111.13988c0,61.38087 -55.19647,111.13988 -123.28478,111.13988c-68.08831,0 -123.28475,-49.759 -123.28475,-111.13988z" data-paper-data="{&quot;index&quot;:null}" fill="none" stroke="none" stroke-width="0"/><path d="M243.58101,159.17496c-0.019,-0.55469 0.00373,-1.33904 0.21045,-2.00055c0.36169,-1.15741 1.977,-3.89998 2.89625,-5.81526c0.48654,-1.01371 1.99394,-1.35815 3.70417,-0.69998c3.07908,1.18495 7.48813,2.81262 8.66481,3.26546c0.55786,0.21468 0.55804,1.63726 0.17768,2.29639c-0.62192,1.07773 -1.43431,2.76621 -1.3974,4.18135c0.029,1.11172 -0.82122,2.35664 -1.97636,2.16896c-2.80179,-0.4552 -7.73591,-1.06145 -9.43277,-1.41267c-0.64715,-0.13396 -1.52416,-0.5654 -2.12178,-0.88885c-0.39783,-0.21532 -0.71057,-0.67213 -0.72505,-1.09484z" fill="#94c9da" stroke="none" stroke-width="0"/><path d="M245.85195,156.94718c0.24353,-0.77929 1.33112,-2.62586 1.95005,-3.91542c0.32759,-0.68254 1.34253,-0.91444 2.49402,-0.4713c1.0779,0.41482 1.47638,0.60305 2.60667,1.02595c1.04362,0.39048 2.84703,1.02631 3.22736,1.17268c0.3756,0.14454 0.83648,0.94878 0.58038,1.39258c-0.26954,0.46709 -0.40131,0.9773 -0.45437,1.53571c-0.02937,0.30909 -0.5461,1.11775 -1.36326,1.038c-0.84923,-0.08288 -2.01431,-0.22778 -3.22961,-0.28599c-1.74671,-0.08366 -3.59715,-0.06074 -4.7627,-0.06687c-0.72752,-0.00382 -1.18772,-0.97997 -1.04854,-1.42536z" fill="url(#color-1)" stroke="none" stroke-width="0"/></g></g></svg>