<svg version="1.1" xmlns="http://www.w3.org/2000/svg" xmlns:xlink="http://www.w3.org/1999/xlink" width="493.5045" height="422.56468" viewBox="0,0,493.5045,422.56468"><g transform="translate(6.75201,44.18454)"><g data-paper-data="{&quot;isPaintingLayer&quot;:true}" fill-rule="nonzero" stroke-linecap="butt" stroke-linejoin="miter" stroke-miterlimit="10" stroke-dasharray="" stroke-dashoffset="0" style="mix-blend-mode: normal"><path d="M486.75227,170.14448c0.00014,0.09256 0.00022,0.18512 0.00022,0.2777c0,114.85201 -110.47474,207.95796 -246.75225,207.95796c-136.2775,0 -246.75225,-93.10595 -246.75225,-207.95796c0,-114.85201 110.47475,-207.95796 246.75225,-207.95796c125.2106,0 228.63907,78.59795 244.6119,180.44548" fill="none" stroke="none" stroke-width="0"/><path d="M486.72585,170.23475c-1.9588,115.24167 -111.67141,208.14534 -246.72561,208.14534c-136.2775,0 -246.75225,-94.59431 -246.75225,-211.28231v-0.00001c0,-116.688 110.47475,-211.28231 246.75225,-211.28231c126.91774,0 231.45535,82.04672 245.21631,187.57545" fill="none" stroke="none" stroke-width="0"/><path d="M477.49318,201.11995c-19.06565,98.43364 -119.48121,173.51403 -240.49285,173.51403c-134.62065,0 -243.75225,-92.91711 -243.75225,-207.53617v-0.00001c0,-114.61906 109.1316,-207.53617 243.75225,-207.53617c124.22791,0 226.75038,79.12445 241.83951,181.41113" fill="none" stroke="none" stroke-width="0"/><path d="M109.16002,44.05804c0.80452,-7.87277 13.91586,-28.759 20.47311,-30.13947c8.22505,-1.73159 33.79876,-1.06692 33.79876,-1.06692v173.58225c0,0 -37.29848,13.18978 -49.13736,-25.20634c-11.83888,-38.39612 -6.84644,-100.417 -5.13451,-117.16952z" fill="#441420" stroke="none" stroke-width="0"/><path d="M153.68236,164.82951c-1.29557,-40.59935 -2.18976,-64.64258 3.82278,-105.36377c6.01254,-40.72119 25.26336,-69.42694 25.26336,-69.42694c0,0 15.50689,-13.75967 33.92797,-13.75967c13.89376,0 29.0474,-1.28211 55.15115,1.51542c24.08114,2.58076 49.78668,36.18664 49.78668,36.18664c0,0 47.80199,42.92692 40.64743,65.04957c-3.58511,11.08554 -19.76397,29.28712 -19.76397,29.28712c0,0 -2.40671,36.34216 -3.79635,74.71221c-1.19081,32.88011 63.42985,40.61196 52.88861,71.77928c-4.39619,12.99822 -20.54227,36.30589 -44.8792,29.52143c-30.89292,-8.61209 -53.71961,-41.00114 -53.71961,-41.00114l-53.31565,-4.11349c0,0 -24.16002,20.78362 -25.05223,33.04352c-0.98152,13.48688 -38.05627,17.8876 -64.58143,12.6358c-34.83434,-6.89696 -29.84849,-18.68171 -39.46441,-31.60783c-6.46334,-0.40954 4.59819,-37.29629 22.67289,-45.40634c18.0747,-8.11005 41.92997,20.76138 37.32014,16.28248c-12.7949,-12.43151 -16.3943,-43.2314 -16.90816,-59.33429z" fill="#441420" stroke="none" stroke-width="0"/><path d="M339.69467,201.53633c18.34967,11.39493 59.00443,28.44841 49,51.5c-7,16.12896 -14.10086,30.89848 -35,30.5c-12.85637,-0.24512 -30.90989,-13.47445 -55.59916,-43.5826" fill="none" stroke="#240a11" stroke-width="16"/><path d="M185.35991,-15.53806c0,0 63.1772,-9.49067 84.8093,-8.07549c21.0492,1.37705 53.70547,22.2438 53.70547,22.2438l8.89916,104.12054c0,0 11.99996,59.6856 -15.04336,88.48386c-27.04332,28.79826 -72.3897,23.58179 -98.63852,15.3269c-55.94872,-17.5951 -43.50613,-126.09913 -43.50613,-147.08975c0,-20.99062 9.77408,-75.00986 9.77408,-75.00986z" fill="#5f1c2d" stroke="none" stroke-width="0"/><path d="M112.8761,59.73641l5.21828,-40.89916h41.7462l-0.30457,31.9251c0,0 -16.2689,-6.27529 -25.59801,-4.44172c-9.32912,1.83355 -21.0619,13.41578 -21.0619,13.41578z" fill="#5f1c2d" stroke="none" stroke-width="0"/><path d="M163.43182,186.43397c0,0 -37.31476,6.92079 -44.13735,-15.20635c-6.82259,-22.12714 -12.84645,-50.41699 -12.13452,-71.16951c0.57736,-16.82986 -5.08414,-80.759 22.47311,-86.13947c6.56679,-1.33438 33.79876,-1.06692 33.79876,-1.06692" fill="none" stroke="#240a11" stroke-width="16"/><path d="M153.68236,164.82951c-1.29557,-40.59935 -2.18976,-64.64258 3.82278,-105.36377c8.15677,-55.24343 21.34897,-87.21703 77.19133,-87.18661c80.02951,0.0436 88.6357,24.09051 96.93783,46.70206c10.82684,29.4878 10.88346,89.33669 10.88346,89.33669c0,0 -1.40671,30.34216 -2.79635,68.71221c-1.38964,38.37005 -13.3326,50.21845 -37.7102,58.29957c-32.62561,10.8153 -68.31565,6.88651 -68.31565,6.88651c0,0 -10.07508,28.67489 -29.05224,37.04352c-19.64808,8.6645 -34.05627,8.8876 -50.58143,7.63581c-16.52516,-1.25179 -45.79959,-24.3857 -44.46441,-43.60783c1.33518,-19.22213 14.63607,-31.97791 26.67289,-40.40634c8.52446,-5.96901 55.52291,29.66033 46.74666,27.21939c-16.0216,-4.4561 -28.76966,-47.56538 -29.33467,-65.27121z" fill="none" stroke="#240a11" stroke-width="16"/><path d="M309.66301,19.96676c34.9912,13.39437 59.77318,36.94132 52.61863,59.06398c-3.58511,11.08554 -19.76397,29.28712 -19.76397,29.28712c0,0 -63.93902,23.16195 -95.57769,3.52082c-17.66536,-10.96657 -42.14706,-49.79267 -26.37385,-72.23514c17.06702,-24.28335 70.91203,-26.59781 89.0969,-19.63677z" fill="#4a646d" stroke="none" stroke-width="0"/><path d="M241.836,43.43c5.97118,-19.89599 26.03837,-25.43427 45.49052,-25.43427c19.25264,0 38.63001,9.43427 38.63001,9.43427c0,0 33.59001,20.9898 21.5135,48.23943c-8.64009,19.49566 -60.85434,18.10599 -80.49454,10.13595c-19.6402,-7.97004 -31.11067,-22.47939 -25.13949,-42.37538z" fill="#94c9db" stroke="none" stroke-width="0"/><path d="M323.26752,31.70158c26.17019,6.28142 18.38326,33.7961 2.53497,27.77018c-18.94713,-7.20418 -34.0349,-5.36728 -36.4473,-17.57695c-3.38666,-17.14057 15.27171,-14.66738 33.91233,-10.19323z" fill="#fefefe" stroke="none" stroke-width="0"/><path d="M343.51785,109.31801c-25.09967,10.51942 -74.87795,19.19815 -107.57769,-0.47918c-18.96117,-11.41004 -26.14706,-47.79267 -10.37385,-70.23514c15.77321,-22.44247 51.80846,-21.31824 85.0969,-18.63677c52.9583,4.26593 68.36079,74.47025 32.85464,89.35109z" fill="none" stroke="#1d2433" stroke-width="16"/></g></g></svg>