<svg version="1.1" xmlns="http://www.w3.org/2000/svg" xmlns:xlink="http://www.w3.org/1999/xlink" width="706.21021" height="368" viewBox="0,0,706.21021,368"><g transform="translate(23.10511,4)"><g data-paper-data="{&quot;isPaintingLayer&quot;:true}" fill-rule="nonzero" stroke-linejoin="miter" stroke-miterlimit="10" stroke-dasharray="" stroke-dashoffset="0" style="mix-blend-mode: normal"><path d="M-22.1051,363v-366h704.21021v366z" fill="#000000" stroke="#000000" stroke-width="2" stroke-linecap="butt"/><path d="M235.11245,180.40122v-9.82993c0,-0.83764 0.03167,-1.44651 0.09502,-1.82662c0.07039,-0.38714 0.27452,-0.72149 0.61239,-1.00305c0.33787,-0.28156 0.74965,-0.42234 1.23534,-0.42234c0.45754,0 0.86227,0.13726 1.21422,0.41178c0.35195,0.27452 0.56312,0.60183 0.63351,0.98193c0.07039,0.3801 0.10558,0.99954 0.10558,1.85829v9.25977c0,2.82263 -0.58775,4.77946 -1.76326,5.8705c-1.16847,1.084 -2.73816,1.626 -4.70907,1.626c-2.11169,0 -3.69898,-0.58775 -4.76186,-1.76326c-1.05585,-1.18255 -1.58377,-2.65017 -1.58377,-4.40287c0,-0.63351 0.17597,-1.10863 0.52792,-1.42539c0.35899,-0.31676 0.7954,-0.47514 1.30925,-0.47514c0.56312,0 0.95026,0.15838 1.16143,0.47514c0.21821,0.30972 0.42938,0.83764 0.63351,1.58376c0.21117,0.73909 0.38715,1.27405 0.52793,1.60489c0.14078,0.32379 0.38362,0.61943 0.72853,0.88691c0.34491,0.26748 0.813,0.40122 1.40427,0.40122c1.7527,0 2.62906,-1.27053 2.62906,-3.8116zM249.32941,172.68298c2.23136,0 3.98758,0.68982 5.26868,2.06946c1.28109,1.3726 1.92163,3.12179 1.92163,5.24756c0,2.13985 -0.6511,3.89607 -1.95331,5.26867c-1.29517,1.3726 -3.01268,2.0589 -5.15253,2.0589c-2.32286,0 -4.11428,-0.69333 -5.37425,-2.08002c-1.25997,-1.39371 -1.88997,-3.1429 -1.88997,-5.24755c0,-2.13281 0.63702,-3.88551 1.91108,-5.25812c1.28109,-1.3726 3.03732,-2.0589 5.26867,-2.0589zM249.32941,184.64572c1.09104,0 1.95332,-0.40826 2.58683,-1.22478c0.64055,-0.82356 0.96082,-1.96388 0.96082,-3.42094c0,-1.45706 -0.32027,-2.59738 -0.96082,-3.42094c-0.63351,-0.82356 -1.49579,-1.23534 -2.58683,-1.23534c-1.07697,0 -1.93572,0.41529 -2.57627,1.24589c-0.64055,0.82356 -0.96081,1.96036 -0.96081,3.41039c0,1.4641 0.31675,2.60442 0.95026,3.42094c0.64055,0.81652 1.50282,1.22478 2.58682,1.22478zM261.17865,167.47766c0.46457,0 0.86931,0.17597 1.21422,0.52792c0.34491,0.35195 0.51736,0.76021 0.51736,1.22478c0,0.48569 -0.17245,0.90451 -0.51736,1.25646c-0.34491,0.34491 -0.74965,0.51736 -1.21422,0.51736c-0.48569,0 -0.90451,-0.17245 -1.25645,-0.51736c-0.34491,-0.35195 -0.51737,-0.77077 -0.51737,-1.25646c0,-0.47161 0.17246,-0.87987 0.51737,-1.22478c0.35195,-0.35195 0.77076,-0.52792 1.25645,-0.52792zM262.96303,175.61824v8.73184c0,0.85876 -0.04223,1.44651 -0.1267,1.76326c-0.07743,0.31676 -0.27804,0.59832 -0.60183,0.84468c-0.32379,0.24636 -0.67574,0.36954 -1.05585,0.36954c-0.38714,0 -0.74965,-0.11966 -1.08752,-0.35899c-0.33084,-0.24636 -0.53848,-0.53145 -0.62295,-0.85524c-0.07743,-0.32379 -0.11615,-0.91154 -0.11615,-1.76326v-8.70017c0,-0.80245 0.03167,-1.36908 0.09502,-1.69992c0.06335,-0.33084 0.25341,-0.62295 0.57016,-0.87635c0.32379,-0.26044 0.69685,-0.39066 1.11919,-0.39066c0.42937,0 0.79892,0.11614 1.10864,0.34843c0.30972,0.23228 0.5068,0.52792 0.59127,0.88691c0.08447,0.35195 0.1267,0.91859 0.1267,1.69992zM279.38935,178.43734v5.91274c0,0.76021 -0.03167,1.31629 -0.09502,1.66824c-0.05632,0.34491 -0.24285,0.65111 -0.5596,0.91859c-0.31676,0.26044 -0.69334,0.39066 -1.12975,0.39066c-0.38714,0 -0.74965,-0.11614 -1.08752,-0.34843c-0.33084,-0.23228 -0.53496,-0.53496 -0.61239,-0.90803c-0.07743,-0.37306 -0.11614,-0.94674 -0.11614,-1.72103v-5.19476c0,-1.44299 -0.21821,-2.41436 -0.65463,-2.91413c-0.42937,-0.49977 -1.02065,-0.74965 -1.77382,-0.74965c-0.68982,0 -1.29517,0.19709 -1.81605,0.59127c-0.51385,0.39418 -0.87635,0.89043 -1.08752,1.48874c-0.21117,0.59127 -0.31676,1.60841 -0.31676,3.0514v3.72713c0,0.75317 -0.02815,1.30221 -0.08447,1.64712c-0.05632,0.34491 -0.24988,0.65463 -0.58071,0.92915c-0.32379,0.26748 -0.69685,0.40122 -1.11919,0.40122c-0.39418,0 -0.76021,-0.11966 -1.09808,-0.35899c-0.33084,-0.24636 -0.53144,-0.54904 -0.60183,-0.90803c-0.07039,-0.35899 -0.10559,-0.92915 -0.10559,-1.71047v-8.89022c0,-0.7954 0.0352,-1.35148 0.10559,-1.66824c0.07743,-0.31676 0.26748,-0.58071 0.57015,-0.79188c0.30267,-0.21117 0.64407,-0.31676 1.02417,-0.31676c0.35195,0 0.71797,0.13726 1.09808,0.41178c0.38714,0.27452 0.58071,0.94674 0.58071,2.01667c1.20367,-1.61897 2.75224,-2.42845 4.64572,-2.42845c0.71797,0 1.42892,0.13726 2.13281,0.41178c0.70389,0.26748 1.27757,0.70742 1.72103,1.31981c0.45049,0.61239 0.7215,1.24589 0.813,1.90052c0.09855,0.65463 0.14782,1.36204 0.14782,2.12225zM284.8296,167.47766c0.46457,0 0.86931,0.17597 1.21422,0.52792c0.34491,0.35195 0.51736,0.76021 0.51736,1.22478c0,0.48569 -0.17245,0.90451 -0.51736,1.25646c-0.34491,0.34491 -0.74965,0.51736 -1.21422,0.51736c-0.48569,0 -0.90451,-0.17245 -1.25646,-0.51736c-0.34491,-0.35195 -0.51736,-0.77077 -0.51736,-1.25646c0,-0.47161 0.17245,-0.87987 0.51736,-1.22478c0.35195,-0.35195 0.77077,-0.52792 1.25646,-0.52792zM286.61398,175.61824v8.73184c0,0.85876 -0.04223,1.44651 -0.1267,1.76326c-0.07743,0.31676 -0.27804,0.59832 -0.60183,0.84468c-0.32379,0.24636 -0.67574,0.36954 -1.05585,0.36954c-0.38714,0 -0.74965,-0.11966 -1.08752,-0.35899c-0.33084,-0.24636 -0.53847,-0.53145 -0.62294,-0.85524c-0.07743,-0.32379 -0.11615,-0.91154 -0.11615,-1.76326v-8.70017c0,-0.80245 0.03168,-1.36908 0.09503,-1.69992c0.06335,-0.33084 0.2534,-0.62295 0.57016,-0.87635c0.32379,-0.26044 0.69685,-0.39066 1.11919,-0.39066c0.42937,0 0.79892,0.11614 1.10864,0.34843c0.30972,0.23228 0.5068,0.52792 0.59127,0.88691c0.08447,0.35195 0.1267,0.91859 0.1267,1.69992zM303.0403,178.43734v5.91274c0,0.76021 -0.03168,1.31629 -0.09503,1.66824c-0.05632,0.34491 -0.24284,0.65111 -0.5596,0.91859c-0.31676,0.26044 -0.69334,0.39066 -1.12975,0.39066c-0.38714,0 -0.74965,-0.11614 -1.08752,-0.34843c-0.33084,-0.23228 -0.53496,-0.53496 -0.61239,-0.90803c-0.07743,-0.37306 -0.11614,-0.94674 -0.11614,-1.72103v-5.19476c0,-1.44299 -0.21821,-2.41436 -0.65462,-2.91413c-0.42937,-0.49977 -1.02065,-0.74965 -1.77382,-0.74965c-0.68982,0 -1.29517,0.19709 -1.81606,0.59127c-0.51385,0.39418 -0.87635,0.89043 -1.08752,1.48874c-0.21117,0.59127 -0.31675,1.60841 -0.31675,3.0514v3.72713c0,0.75317 -0.02815,1.30221 -0.08447,1.64712c-0.05632,0.34491 -0.24988,0.65463 -0.58071,0.92915c-0.32379,0.26748 -0.69686,0.40122 -1.1192,0.40122c-0.39418,0 -0.76021,-0.11966 -1.09808,-0.35899c-0.33084,-0.24636 -0.53145,-0.54904 -0.60184,-0.90803c-0.07039,-0.35899 -0.10558,-0.92915 -0.10558,-1.71047v-8.89022c0,-0.7954 0.03519,-1.35148 0.10558,-1.66824c0.07743,-0.31676 0.26749,-0.58071 0.57016,-0.79188c0.30267,-0.21117 0.64407,-0.31676 1.02417,-0.31676c0.35195,0 0.71798,0.13726 1.09808,0.41178c0.38714,0.27452 0.58071,0.94674 0.58071,2.01667c1.20367,-1.61897 2.75223,-2.42845 4.64572,-2.42845c0.71797,0 1.42892,0.13726 2.13281,0.41178c0.70389,0.26748 1.27758,0.70742 1.72103,1.31981c0.45049,0.61239 0.72149,1.24589 0.813,1.90052c0.09855,0.65463 0.14782,1.36204 0.14782,2.12225zM316.52609,175.13255v-0.48569c0,-0.65463 0.1619,-1.14383 0.48569,-1.46762c0.32379,-0.33084 0.73206,-0.49625 1.22478,-0.49625c0.542,0 0.96082,0.19006 1.25645,0.57016c0.29564,0.3801 0.44346,1.20367 0.44346,2.47068v9.68211c0,2.86487 -0.60536,4.79354 -1.81606,5.78603c-1.2107,0.9925 -2.95989,1.48875 -5.24755,1.48875c-2.04834,0 -3.64971,-0.38011 -4.8041,-1.14032c-1.15439,-0.75317 -1.73158,-1.5521 -1.73158,-2.39677c0,-0.45754 0.15134,-0.82708 0.45401,-1.10864c0.30972,-0.27452 0.6687,-0.41178 1.07696,-0.41178c0.3801,0 0.68278,0.08799 0.90803,0.26397c0.22525,0.18302 0.60535,0.61239 1.14031,1.28813c0.53496,0.68278 1.44299,1.02417 2.72409,1.02417c0.70389,0 1.35501,-0.11262 1.95332,-0.33787c0.60536,-0.21821 1.0488,-0.60887 1.33037,-1.17199c0.2886,-0.55608 0.42586,-1.91108 0.41178,-4.065c-1.10512,1.58377 -2.61146,2.37565 -4.51902,2.37565c-1.83717,0 -3.29072,-0.6863 -4.36065,-2.0589c-1.06993,-1.37964 -1.60488,-3.1429 -1.60488,-5.28979c0,-2.13985 0.54904,-3.83624 1.64712,-5.08918c1.10512,-1.25294 2.53755,-1.87941 4.29729,-1.87941c1.92164,0 3.49837,0.81652 4.73019,2.44956zM309.49416,179.93665c0,1.40076 0.3062,2.47068 0.91859,3.20977c0.61239,0.73206 1.45003,1.09808 2.51291,1.09808c0.9221,0 1.72103,-0.35547 2.39677,-1.06641c0.67574,-0.71797 1.01361,-1.78438 1.01361,-3.19922c0,-1.40076 -0.31323,-2.50939 -0.93971,-3.32591c-0.61943,-0.81652 -1.46058,-1.22478 -2.52347,-1.22478c-1.02065,0 -1.84069,0.38363 -2.46012,1.15088c-0.61239,0.76021 -0.91859,1.8794 -0.91859,3.35759zM341.44405,175.13255v-0.48569c0,-0.65463 0.1619,-1.14383 0.48569,-1.46762c0.32379,-0.33084 0.73205,-0.49625 1.22478,-0.49625c0.542,0 0.96082,0.19006 1.25646,0.57016c0.29564,0.3801 0.44346,1.20367 0.44346,2.47068v9.68211c0,2.86487 -0.60536,4.79354 -1.81606,5.78603c-1.2107,0.9925 -2.95989,1.48875 -5.24756,1.48875c-2.04834,0 -3.64971,-0.38011 -4.8041,-1.14032c-1.15439,-0.75317 -1.73158,-1.5521 -1.73158,-2.39677c0,-0.45754 0.15134,-0.82708 0.45401,-1.10864c0.30972,-0.27452 0.6687,-0.41178 1.07697,-0.41178c0.3801,0 0.68277,0.08799 0.90802,0.26397c0.22525,0.18302 0.60536,0.61239 1.14032,1.28813c0.53496,0.68278 1.44299,1.02417 2.72409,1.02417c0.70389,0 1.35501,-0.11262 1.95332,-0.33787c0.60536,-0.21821 1.0488,-0.60887 1.33037,-1.17199c0.2886,-0.55608 0.42586,-1.91108 0.41178,-4.065c-1.10512,1.58377 -2.61146,2.37565 -4.51902,2.37565c-1.83717,0 -3.29072,-0.6863 -4.36064,-2.0589c-1.06993,-1.37964 -1.60489,-3.1429 -1.60489,-5.28979c0,-2.13985 0.54904,-3.83624 1.64712,-5.08918c1.10512,-1.25294 2.53755,-1.87941 4.29729,-1.87941c1.92164,0 3.49837,0.81652 4.73019,2.44956zM334.41212,179.93665c0,1.40076 0.3062,2.47068 0.91859,3.20977c0.61239,0.73206 1.45003,1.09808 2.51291,1.09808c0.9221,0 1.72103,-0.35547 2.39677,-1.06641c0.67574,-0.71797 1.01361,-1.78438 1.01361,-3.19922c0,-1.40076 -0.31323,-2.50939 -0.93971,-3.32591c-0.61943,-0.81652 -1.46059,-1.22478 -2.52347,-1.22478c-1.02065,0 -1.84069,0.38363 -2.46012,1.15088c-0.61239,0.76021 -0.91859,1.8794 -0.91859,3.35759zM357.57737,185.30034c-1.71751,1.35148 -3.39982,2.02722 -5.04694,2.02722c-1.55561,0 -2.75224,-0.39418 -3.58988,-1.18255c-0.8306,-0.7954 -1.2459,-1.76326 -1.2459,-2.90358c0,-0.97842 0.28155,-1.76678 0.84467,-2.36509c0.57015,-0.60536 1.18959,-1.02769 1.85829,-1.26702c0.66871,-0.23933 1.75622,-0.51384 3.26256,-0.82356c1.51338,-0.31676 2.73112,-0.60535 3.65323,-0.86579c-0.00704,-1.09104 -0.22172,-1.82662 -0.64406,-2.20672c-0.42234,-0.38714 -1.06641,-0.58071 -1.9322,-0.58071c-1.63304,0 -2.70297,0.45754 -3.20977,1.3726c-0.28156,0.52088 -0.53144,0.89043 -0.74965,1.10864c-0.21821,0.21821 -0.53497,0.32731 -0.95027,0.32731c-0.3801,0 -0.72501,-0.12318 -1.03472,-0.36954c-0.30268,-0.2534 -0.45402,-0.5772 -0.45402,-0.97138c0,-0.93618 0.50329,-1.82309 1.50986,-2.66073c1.01361,-0.83764 2.60793,-1.25646 4.78298,-1.25646c2.20319,0 3.81512,0.3801 4.83578,1.14031c1.02065,0.76021 1.4993,2.29822 1.43595,4.61405l-0.08447,3.37871c-0.03519,1.04176 0.07391,1.89348 0.32731,2.55515c0.25341,0.66166 0.38011,1.16847 0.38011,1.52042c0,0.3801 -0.16894,0.71445 -0.5068,1.00305c-0.33083,0.2886 -0.70742,0.4329 -1.12976,0.4329c-0.73206,0 -1.50283,-0.67574 -2.31231,-2.02722zM357.33453,180.08446c-0.53496,0.21117 -1.42187,0.43993 -2.66073,0.6863c-1.23182,0.24636 -2.10465,0.52793 -2.6185,0.84468c-0.51384,0.31676 -0.77076,0.7778 -0.77076,1.38315c0,0.52088 0.20413,0.97842 0.61239,1.3726c0.40826,0.39418 0.98546,0.59127 1.73159,0.59127c0.7954,0 1.53098,-0.21469 2.20672,-0.64406c0.68278,-0.43642 1.1016,-0.95379 1.25645,-1.5521c0.1619,-0.59831 0.24284,-1.49227 0.24284,-2.68185zM384.94754,178.02557v6.21893c0,0.85172 -0.0352,1.45355 -0.10559,1.8055c-0.07039,0.34491 -0.26396,0.64407 -0.58071,0.89747c-0.30971,0.2534 -0.67926,0.3801 -1.10864,0.3801c-0.42234,0 -0.79188,-0.12318 -1.10864,-0.36954c-0.30971,-0.2534 -0.50329,-0.56664 -0.58071,-0.93971c-0.07743,-0.37306 -0.11615,-0.96434 -0.11615,-1.77382v-5.26867c0,-1.54154 -0.18301,-2.50588 -0.54904,-2.89302c-0.36602,-0.39418 -0.86579,-0.59127 -1.4993,-0.59127c-0.66166,0 -1.21774,0.18301 -1.66823,0.54904c-0.4505,0.36603 -0.76021,0.84468 -0.92915,1.43596c-0.16893,0.58424 -0.2534,1.50634 -0.2534,2.76631v4.00165c0,0.85172 -0.0352,1.45707 -0.10559,1.81606c-0.06335,0.35195 -0.25693,0.65111 -0.58072,0.89747c-0.31675,0.24636 -0.68982,0.36954 -1.11919,0.36954c-0.55608,0 -0.99249,-0.18653 -1.30925,-0.5596c-0.31675,-0.37306 -0.47513,-1.21422 -0.47513,-2.52347v-4.95191c0,-1.40779 -0.10559,-2.39325 -0.31676,-2.95637c-0.21117,-0.56312 -0.76021,-0.84468 -1.64712,-0.84468c-0.9221,0 -1.65064,0.29564 -2.1856,0.88691c-0.53496,0.58424 -0.80244,1.8442 -0.80244,3.77992v4.08613c0,0.8306 -0.02816,1.41483 -0.08447,1.7527c-0.05632,0.33084 -0.24284,0.63702 -0.5596,0.91859c-0.31675,0.27452 -0.68629,0.41178 -1.10863,0.41178c-0.40122,0 -0.76725,-0.12318 -1.09808,-0.36954c-0.33083,-0.24636 -0.53848,-0.542 -0.62295,-0.88691c-0.07743,-0.35195 -0.11614,-0.96082 -0.11614,-1.82662v-8.73184c0,-0.8306 0.03871,-1.39372 0.11614,-1.68936c0.07743,-0.30267 0.271,-0.56664 0.58071,-0.79189c0.30971,-0.23228 0.64759,-0.34843 1.01361,-0.34843c1.14735,0 1.72103,0.73206 1.72103,2.19616c1.2107,-1.4641 2.66426,-2.19616 4.36064,-2.19616c1.8231,0 3.14642,0.73206 3.96998,2.19616c1.22478,-1.4641 2.65369,-2.19616 4.28674,-2.19616c1.25997,0 2.33694,0.34843 3.23089,1.04529c0.90099,0.68982 1.35148,2.12225 1.35148,4.29729zM398.5046,180.88691h-7.07416c0.0352,1.3374 0.40122,2.3475 1.09808,3.03028c0.70389,0.68278 1.54153,1.02417 2.51292,1.02417c1.2107,0 2.34749,-0.52793 3.41038,-1.58377c0.42937,-0.44346 0.74613,-0.71797 0.95026,-0.82356c0.21117,-0.10558 0.44345,-0.15838 0.69686,-0.15838c0.32379,0 0.60184,0.10207 0.83412,0.3062c0.23933,0.20413 0.35898,0.45401 0.35898,0.74965c0,0.80948 -0.55607,1.66119 -1.66823,2.55514c-1.10512,0.89395 -2.60442,1.34092 -4.4979,1.34092c-2.41436,0 -4.2445,-0.67926 -5.4904,-2.03778c-1.23886,-1.35852 -1.85829,-3.12178 -1.85829,-5.28978c0,-2.18208 0.61942,-3.94535 1.85829,-5.28979c1.2459,-1.35148 2.97749,-2.02722 5.19476,-2.02722c2.12577,0 3.76233,0.63703 4.90968,1.91108c1.1544,1.27406 1.73159,2.66073 1.73159,4.16003c0,0.65463 -0.19358,1.17552 -0.58072,1.56266c-0.3801,0.3801 -1.17552,0.57015 -2.38621,0.57015zM391.43044,178.83857h6.55681c-0.04224,-1.19663 -0.37306,-2.10817 -0.9925,-2.73464c-0.61239,-0.62647 -1.37261,-0.93971 -2.28063,-0.93971c-1.90756,0 -3.00212,1.22478 -3.28368,3.67434zM414.92565,183.35759c0.53496,0 0.99602,0.19358 1.38316,0.58071c0.38714,0.38714 0.58071,0.8482 0.58071,1.38316c0,0.54904 -0.19358,1.02065 -0.58071,1.41483c-0.38714,0.39418 -0.8482,0.59127 -1.38316,0.59127c-0.55608,0 -1.0312,-0.19358 -1.42539,-0.58071c-0.38714,-0.39418 -0.58072,-0.86931 -0.58072,-1.42539c0,-0.53496 0.19358,-0.99602 0.58072,-1.38316c0.39418,-0.38714 0.86931,-0.58071 1.42539,-0.58071zM423.38561,183.35759c0.53496,0 0.99602,0.19358 1.38316,0.58071c0.38714,0.38714 0.58071,0.8482 0.58071,1.38316c0,0.54904 -0.19358,1.02065 -0.58071,1.41483c-0.38714,0.39418 -0.8482,0.59127 -1.38316,0.59127c-0.55608,0 -1.03121,-0.19358 -1.42539,-0.58071c-0.38714,-0.39418 -0.58072,-0.86931 -0.58072,-1.42539c0,-0.53496 0.19358,-0.99602 0.58072,-1.38316c0.39418,-0.38714 0.86931,-0.58071 1.42539,-0.58071zM431.84557,183.35759c0.53496,0 0.99602,0.19358 1.38316,0.58071c0.38714,0.38714 0.58072,0.8482 0.58072,1.38316c0,0.54904 -0.19358,1.02065 -0.58072,1.41483c-0.38714,0.39418 -0.8482,0.59127 -1.38316,0.59127c-0.55608,0 -1.03121,-0.19358 -1.42539,-0.58071c-0.38714,-0.39418 -0.58071,-0.86931 -0.58071,-1.42539c0,-0.53496 0.19358,-0.99602 0.58071,-1.38316c0.39418,-0.38714 0.86932,-0.58071 1.42539,-0.58071z" fill="#cdcdcd" stroke="none" stroke-width="1" stroke-linecap="square"/></g></g></svg>