<svg version="1.1" xmlns="http://www.w3.org/2000/svg" xmlns:xlink="http://www.w3.org/1999/xlink" width="372.37237" height="256.13738" viewBox="0,0,372.37237,256.13738"><defs><linearGradient x1="240" y1="180" x2="240" y2="180" gradientUnits="userSpaceOnUse" id="color-1"><stop offset="0" stop-color="#e7bc52"/><stop offset="1" stop-color="#efd85e"/></linearGradient><linearGradient x1="240" y1="180" x2="240" y2="180" gradientUnits="userSpaceOnUse" id="color-2"><stop offset="0" stop-color="#efd85e" stop-opacity="0"/><stop offset="1" stop-color="#efd85e" stop-opacity="0"/></linearGradient></defs><g transform="translate(-83.0931,71.03228)"><g data-paper-data="{&quot;isPaintingLayer&quot;:true}" stroke-miterlimit="10" stroke-dasharray="" stroke-dashoffset="0" style="mix-blend-mode: normal"><path d="" fill="url(#color-1)" fill-rule="nonzero" stroke="#000000" stroke-width="15" stroke-linecap="butt" stroke-linejoin="miter"/><path d="" fill="#e7bc52" fill-rule="nonzero" stroke="none" stroke-width="0" stroke-linecap="butt" stroke-linejoin="miter"/><path d="" fill="url(#color-2)" fill-rule="nonzero" stroke="#000000" stroke-width="15" stroke-linecap="butt" stroke-linejoin="miter"/><g fill="none" fill-rule="nonzero" stroke="#392f0e" stroke-width="5" stroke-linecap="round" stroke-linejoin="miter"><path d=""/><path d=""/><path d=""/></g><path d="M266.47381,105.62207c-33.59046,-13.63109 -25.1395,-41.37538 -25.1395,-41.37538c0,0 26.03837,-26.43427 45.49052,-26.43427c19.25264,0 70.63001,26.43427 70.63001,26.43427c0,0 11.48962,21.89619 -2.4865,31.23943c-22.7729,15.22402 -68.85434,18.10599 -88.49454,10.13595z" fill="#94c9db" fill-rule="nonzero" stroke="none" stroke-width="0" stroke-linecap="butt" stroke-linejoin="miter"/><path d="M274.85363,76.71155c-2.72057,-12.92273 19.27172,-16.66737 37.91234,-12.19322c26.17019,6.28142 29.49666,20.07232 25.53497,21.77018c-8.33775,3.57332 -58.26378,15.04475 -63.4473,-9.57695z" fill="#fefefe" fill-rule="nonzero" stroke="none" stroke-width="0" stroke-linecap="butt" stroke-linejoin="miter"/><path d="M354.72124,49.57724c0,0 21.47336,5.60174 25.20785,23.3406c3.73449,17.73886 -11.20348,49.79327 -69.08817,60.99676c-75.31234,15.5604 -111.10125,-29.25355 -90.25032,-62.2416c20.85093,-33.29925 56.63985,-4.97932 82.78133,-6.84658c22.40697,-1.55604 24.89664,-21.16214 51.34932,-15.24919z" fill="#ffffff" fill-rule="evenodd" stroke="none" stroke-width="15" stroke-linecap="butt" stroke-linejoin="miter"/><path d="M267.20123,82.8765c0,-1.24483 1.24484,-2.17846 2.48967,-1.86725c5.91295,2.17846 22.71818,7.15779 41.39066,8.40262c16.80523,0.93363 26.76389,0 31.43201,-0.93363c1.55604,-0.31121 2.80087,1.24483 2.17845,2.80087c-2.80087,8.40261 -14.62678,31.74322 -47.30362,29.87597c-28.31993,-3.11208 -31.1208,-23.02939 -30.18717,-38.27858z" fill="#ffffff" fill-rule="evenodd" stroke="#001026" stroke-width="15" stroke-linecap="round" stroke-linejoin="round"/><path d="M411.98351,53.00053c-14.62678,11.8259 -37.03376,12.13711 -37.03376,12.13711" fill="none" fill-rule="evenodd" stroke="#001026" stroke-width="15" stroke-linecap="round" stroke-linejoin="round"/><path d="M407.93781,87.85583c-19.60611,1.55604 -31.74322,-4.35692 -31.74322,-4.35692" fill="none" fill-rule="evenodd" stroke="#001026" stroke-width="15" stroke-linecap="round" stroke-linejoin="round"/><path d="M312.63759,56.73503c6.53537,0 13.38194,0.62241 13.69315,2.80087c0.31121,4.35691 -4.35691,13.07073 -9.33624,13.38194c-5.60174,0.62241 -18.67248,-7.15779 -18.67248,-12.13712c-0.31121,-3.73449 8.09141,-4.0457 14.31557,-4.0457z" fill="#001026" fill-rule="evenodd" stroke="#001026" stroke-width="15" stroke-linecap="round" stroke-linejoin="round"/><g fill-rule="evenodd" stroke-width="15"><path d="M349.36014,20.32369c9.02503,14.00436 9.33624,29.87597 0.62241,35.47771c-8.71382,5.60174 -23.02939,-0.93362 -32.36563,-14.93798c-9.02503,-14.00436 -9.33624,-29.87597 -0.62242,-35.47771c8.71382,-5.91295 23.3406,0.93362 32.36563,14.93798z" fill="#ffffff" stroke="#001026" stroke-linecap="round" stroke-linejoin="round"/><path d="M348.11531,38.06255c0,3.42329 -2.48966,6.22416 -5.60174,6.22416c-3.11208,0 -5.60175,-2.80087 -5.60175,-6.22416c0,-3.42329 2.48967,-6.22416 5.60175,-6.22416c3.11208,0 5.60174,2.80087 5.60174,6.22416" fill="#001026" stroke="none" stroke-linecap="butt" stroke-linejoin="miter"/></g><g fill-rule="evenodd" stroke-width="15"><path d="M272.18056,29.03751c9.33624,13.69315 8.71382,30.49838 0.3112,36.41133c-10.26986,5.91295 -23.96301,1.55604 -33.29925,-12.13711c-9.64745,-13.69315 -10.26987,-31.43201 -0.62242,-38.27858c9.64745,-7.15778 24.27423,0.31121 33.61047,14.00436z" fill="#ffffff" stroke="#001026" stroke-linecap="round" stroke-linejoin="round"/><path d="M270.31331,47.08758c0,3.42329 -2.48967,6.22416 -5.60174,6.22416c-3.11208,0 -5.60174,-2.80087 -5.60174,-6.22416c0,-3.42329 2.48966,-6.22416 5.60174,-6.22416c3.11208,0.31121 5.60174,2.80087 5.60174,6.22416" fill="#001026" stroke="none" stroke-linecap="butt" stroke-linejoin="miter"/></g><path d="M304.64276,-51.23484c1.02296,-0.68197 2.72789,-0.34099 3.06887,1.02296l8.86565,36.48554c0,0 21.82313,16.02636 28.30187,27.27891c10.91156,18.75425 11.25256,34.09864 11.25256,34.09864c0,0 24.21003,7.16071 28.30187,26.59694c4.09184,19.43623 -10.91156,56.26276 -75.01701,68.87926c-64.10544,12.6165 -115.59439,-4.77381 -139.80442,-43.64626c-24.21004,-38.87245 13.98045,-85.2466 11.93453,-82.51871l-7.16072,-61.03656c-0.34099,-1.36394 1.36395,-2.3869 2.72789,-1.70493l41.25936,26.93792c0,0 15.34438,-5.79677 31.37075,-6.47874c9.54762,-0.68197 17.73129,0 25.57398,1.36394z" fill="#ffab19" fill-rule="evenodd" stroke="#001026" stroke-width="15" stroke-linecap="butt" stroke-linejoin="miter"/><path d="M304.64276,-51.23484c1.02296,-0.68198 2.72789,-0.34099 3.06887,1.02295l8.86565,36.48555c0,0 21.82312,16.02637 28.30186,27.27891c10.91157,18.75425 11.25255,34.09864 11.25255,34.09864c0,0 24.21003,7.16071 28.30186,26.59693c4.09184,19.43623 -10.91157,56.26276 -75.01701,68.87926c-64.10544,12.6165 -115.59439,-4.77381 -139.80442,-43.64626c-24.21004,-38.87245 13.98044,-85.2466 11.93452,-82.51871l-7.16072,-61.03656c-0.34099,-1.36394 1.36395,-2.38691 2.72789,-1.70493l41.25936,26.93792c0,0 15.34439,-5.79677 31.37076,-6.47874c9.54762,-0.68197 17.7313,0 25.57398,1.36394z" fill="#ffab19" fill-rule="evenodd" stroke="#001026" stroke-width="7.5" stroke-linecap="butt" stroke-linejoin="miter"/><path d="M354.72124,49.57724c0,0 21.47335,5.60174 25.20785,23.3406c3.7345,17.73886 -11.20349,49.79328 -69.08818,60.99677c-75.31234,15.5604 -111.10126,-29.25355 -90.25032,-62.2416c20.85094,-33.29926 56.63986,-4.97933 82.78133,-6.84658c22.40698,-1.55604 24.89664,-21.16214 51.34932,-15.24919z" fill="#ffffff" fill-rule="evenodd" stroke="none" stroke-width="7.5" stroke-linecap="butt" stroke-linejoin="miter"/><path d="M267.20123,82.8765c0,-1.24483 1.24483,-2.17846 2.48966,-1.86725c5.91295,2.17846 22.71818,7.15778 41.39066,8.40262c16.80523,0.93362 26.76389,0 31.43201,-0.93362c1.55604,-0.31121 2.80087,1.24483 2.17846,2.80087c-2.80087,8.40262 -14.62678,31.74322 -47.30362,29.87597c-28.31993,-3.11208 -31.1208,-23.02939 -30.18718,-38.27858z" fill="#ffffff" fill-rule="evenodd" stroke="#001026" stroke-width="7.5" stroke-linecap="round" stroke-linejoin="round"/><path d="M411.98351,53.00053c-14.62678,11.8259 -37.03375,12.13711 -37.03375,12.13711" fill="none" fill-rule="evenodd" stroke="#001026" stroke-width="7.5" stroke-linecap="round" stroke-linejoin="round"/><path d="M407.93781,87.85583c-19.6061,1.55604 -31.74322,-4.35691 -31.74322,-4.35691" fill="none" fill-rule="evenodd" stroke="#001026" stroke-width="7.5" stroke-linecap="round" stroke-linejoin="round"/><path d="M312.6376,56.73503c6.53537,0 13.38194,0.62242 13.69315,2.80087c0.31121,4.35691 -4.35691,13.07074 -9.33624,13.38194c-5.60174,0.62242 -18.67248,-7.15778 -18.67248,-12.13711c-0.31121,-3.7345 8.09141,-4.0457 14.31557,-4.0457z" fill="#001026" fill-rule="evenodd" stroke="#001026" stroke-width="7.5" stroke-linecap="round" stroke-linejoin="round"/><g fill-rule="evenodd" stroke-width="7.5"><path d="M349.36014,20.32369c9.02503,14.00436 9.33624,29.87597 0.62242,35.47771c-8.71382,5.60174 -23.02939,-0.93362 -32.36563,-14.93798c-9.02503,-14.00436 -9.33624,-29.87597 -0.62242,-35.47771c8.71382,-5.91295 23.3406,0.93362 32.36563,14.93798z" fill="#ffffff" stroke="#001026" stroke-linecap="round" stroke-linejoin="round"/><path d="M348.11531,38.06255c0,3.42329 -2.48966,6.22416 -5.60174,6.22416c-3.11208,0 -5.60174,-2.80087 -5.60174,-6.22416c0,-3.42329 2.48966,-6.22416 5.60174,-6.22416c3.11208,0 5.60174,2.80087 5.60174,6.22416" fill="#001026" stroke="none" stroke-linecap="butt" stroke-linejoin="miter"/></g><g fill-rule="evenodd" stroke-width="7.5"><path d="M272.18056,29.03752c9.33624,13.69315 8.71382,30.49838 0.31121,36.41134c-10.26986,5.91295 -23.96302,1.55604 -33.29926,-12.13711c-9.64745,-13.69315 -10.26986,-31.43201 -0.62242,-38.27858c9.64745,-7.15778 24.27422,0.31121 33.61046,14.00436z" fill="#ffffff" stroke="#001026" stroke-linecap="round" stroke-linejoin="round"/><path d="M270.31331,47.08758c0,3.42329 -2.48966,6.22416 -5.60174,6.22416c-3.11208,0 -5.60174,-2.80087 -5.60174,-6.22416c0,-3.42329 2.48966,-6.22416 5.60174,-6.22416c3.11208,0.31121 5.60174,2.80087 5.60174,6.22416" fill="#001026" stroke="none" stroke-linecap="butt" stroke-linejoin="miter"/></g><path d="M83.0931,185.1051v-256.13738h372.37237v256.13738z" fill="none" fill-rule="nonzero" stroke="none" stroke-width="NaN" stroke-linecap="butt" stroke-linejoin="miter"/><g data-paper-data="{&quot;index&quot;:null}" fill="none" fill-rule="evenodd" stroke="#001026" stroke-width="7.5" stroke-linecap="round" stroke-linejoin="round"><path d="M230.98351,76.94584c0,0 -20.20673,-0.28065 -33.39724,-10.94531"/><path d="M229.8609,93.50413c0,0 -10.94531,5.33234 -28.62621,3.92909"/><path d="M230.9835,76.94584c0,0 -20.20673,-0.28065 -33.39723,-10.94531"/><path d="M229.8609,93.50414c0,0 -10.94532,5.33233 -28.62621,3.92908"/></g></g></g></svg>