<svg version="1.1" xmlns="http://www.w3.org/2000/svg" xmlns:xlink="http://www.w3.org/1999/xlink" width="355.49999" height="361.50001" viewBox="0,0,355.49999,361.50001"><defs><linearGradient x1="189.27738" y1="-0.02074" x2="189.27738" y2="357.97929" gradientUnits="userSpaceOnUse" id="color-1"><stop offset="0" stop-color="#ababab"/><stop offset="1" stop-color="#858585"/></linearGradient><linearGradient x1="369.27741" y1="-0.02074" x2="369.27741" y2="357.97929" gradientUnits="userSpaceOnUse" id="color-2"><stop offset="0" stop-color="#ababab"/><stop offset="1" stop-color="#858585"/></linearGradient></defs><g transform="translate(-80.52738,1.77071)"><g data-paper-data="{&quot;isPaintingLayer&quot;:true}" fill-rule="nonzero" stroke-linejoin="miter" stroke-miterlimit="10" stroke-dasharray="" stroke-dashoffset="0" style="mix-blend-mode: normal"><path d="M82.27738,357.97929v-358h214c0,0 0,116.13099 0,175.14063c0,60.29595 0,182.85938 0,182.85938z" fill="url(#color-1)" stroke="#000000" stroke-width="3.5" stroke-linecap="butt"/><path d="M289.27736,357.97929v-358h15v358z" fill="#373737" stroke="#000000" stroke-width="3.5" stroke-linecap="butt"/><path d="M304.27736,357.97929v-358h130v358z" fill="url(#color-2)" stroke="#000000" stroke-width="3.5" stroke-linecap="butt"/><g fill="none" stroke-linecap="round"><path d="M292.72535,62.82703h-63.5" stroke="#6b6b6b" stroke-width="5"/><path d="M229.2254,61.32703h63.5" stroke="#000000" stroke-width="5"/><path d="M229.2254,61.32703h63.5" stroke="#2d2d2d" stroke-width="2"/></g><g fill="none" stroke-linecap="round"><path d="M229.2254,70.32703h63.5" stroke="#6b6b6b" stroke-width="5"/><path d="M229.22535,68.82704h63.5" stroke="#000000" stroke-width="5"/><path d="M229.22535,68.82704h63.5" stroke="#2d2d2d" stroke-width="2"/></g><path d="M233.18495,62.41912c0,-0.56287 0,-1.82187 0,-2.125c0,-0.59508 0.7985,-1.04834 1.4,-1.04834c0.63583,0 2.09447,0 3.2,0c0.7902,0 1.4,0.29859 1.4,0.87833c0,0.69888 0,1.7293 0,2.125c0,0.41001 -0.76175,0.96333 -1.7,0.96333c-1.17102,0 -2.61696,0 -3.2,0c-0.49758,0 -1.1,-0.04231 -1.1,-0.79333z" fill="#af0202" stroke="#572222" stroke-width="1.5" stroke-linecap="butt"/><path d="M233.18495,70.01912c0,-0.56287 0,-1.82187 0,-2.125c0,-0.59508 0.7985,-1.04833 1.4,-1.04833c0.63583,0 2.09447,0 3.2,0c0.7902,0 1.4,0.29859 1.4,0.87833c0,0.69889 0,1.7293 0,2.125c0,0.41001 -0.76175,0.96334 -1.7,0.96334c-1.17102,0 -2.61696,0 -3.2,0c-0.49758,0 -1.1,-0.04231 -1.1,-0.79333z" fill="#af0202" stroke="#572222" stroke-width="1.5" stroke-linecap="butt"/><g fill="none" stroke-linecap="round"><path d="M292.72538,286.55074h-63.5" stroke="#6b6b6b" stroke-width="5"/><path d="M229.22535,285.05074h63.5" stroke="#000000" stroke-width="5"/><path d="M229.22535,285.05074h63.5" stroke="#2d2d2d" stroke-width="2"/></g><g fill="none" stroke-linecap="round"><path d="M229.2254,295.85075h63.5" stroke="#6b6b6b" stroke-width="5"/><path d="M292.72534,294.35075h-63.5" stroke="#000000" stroke-width="5"/><path d="M292.72534,294.35075h-63.5" stroke="#2d2d2d" stroke-width="2"/></g><path d="M233.18495,286.14285c0,-0.56287 0,-1.82187 0,-2.125c0,-0.59508 0.7985,-1.04834 1.4,-1.04834c0.63583,0 2.09447,0 3.2,0c0.7902,0 1.4,0.29859 1.4,0.87833c0,0.69888 0,1.7293 0,2.125c0,0.41001 -0.76175,0.96333 -1.7,0.96333c-1.17102,0 -2.61696,0 -3.2,0c-0.49758,0 -1.1,-0.04231 -1.1,-0.79333z" fill="#af0202" stroke="#572222" stroke-width="1.5" stroke-linecap="butt"/><path d="M233.18495,295.54284c0,-0.56287 0,-1.82187 0,-2.125c0,-0.59508 0.7985,-1.04833 1.4,-1.04833c0.63583,0 2.09447,0 3.2,0c0.7902,0 1.4,0.29859 1.4,0.87833c0,0.69889 0,1.7293 0,2.125c0,0.41001 -0.76175,0.96334 -1.7,0.96334c-1.17102,0 -2.61696,0 -3.2,0c-0.49758,0 -1.1,-0.04231 -1.1,-0.79333z" fill="#af0202" stroke="#572222" stroke-width="1.5" stroke-linecap="butt"/><path d="M158.18254,52.29555v29.45922h7.13875c0.49178,0 0.84872,0.09518 1.07081,0.28555c0.2221,0.1745 0.33314,0.42039 0.33314,0.73767c0,0.30141 -0.11105,0.55524 -0.33314,0.76146c-0.2221,0.19037 -0.57903,0.28555 -1.07081,0.28555h-16.34773c-0.49178,0 -0.84872,-0.09518 -1.07081,-0.28555c-0.2221,-0.20623 -0.33314,-0.46006 -0.33314,-0.76146c0,-0.31728 0.11105,-0.56316 0.33314,-0.73767c0.2221,-0.19037 0.57903,-0.28555 1.07081,-0.28555h7.13875v-26.57992l-6.8056,2.14162c-0.31728,0.09518 -0.55524,0.14277 -0.71387,0.14277c-0.23796,0 -0.46006,-0.10311 -0.66629,-0.30934c-0.20623,-0.20623 -0.30934,-0.45212 -0.30934,-0.73767c0,-0.25382 0.07932,-0.48385 0.23796,-0.69008c0.12691,-0.12691 0.39659,-0.26969 0.80906,-0.42833z" fill="#000000" stroke="#000000" stroke-width="0.5" stroke-linecap="square"/><path d="M147.92092,196.95046h16.12274v-0.84097c0,-0.49657 0.09611,-0.84899 0.28833,-1.05723c0.20824,-0.22426 0.47254,-0.33639 0.79292,-0.33639c0.30435,0 0.55264,0.11213 0.74487,0.33639c0.20824,0.20824 0.31236,0.56066 0.31236,1.05723v2.9314h-20.32762v-3.0996c4.27697,-3.84447 8.4338,-7.75301 12.47049,-11.72563c1.87418,-1.84214 3.16368,-3.19571 3.8685,-4.06072c0.70482,-0.865 1.18538,-1.62589 1.44168,-2.28265c0.25629,-0.67279 0.38445,-1.33755 0.38445,-1.99432c0,-1.81011 -0.72885,-3.40395 -2.18654,-4.78155c-1.44168,-1.39362 -3.18771,-2.09043 -5.23809,-2.09043c-1.84214,0 -3.47604,0.52861 -4.9017,1.58584c-1.40964,1.04122 -2.32269,2.33872 -2.73918,3.89252c-0.09611,0.40046 -0.21625,0.66477 -0.36041,0.79292c-0.20824,0.16018 -0.44852,0.24028 -0.72084,0.24028c-0.27232,0 -0.50459,-0.09611 -0.69681,-0.28833c-0.19223,-0.19223 -0.28833,-0.42449 -0.28833,-0.69681c0,-0.80094 0.43251,-1.88219 1.29751,-3.24377c0.88102,-1.36158 2.09043,-2.43483 3.62822,-3.21974c1.5538,-0.78491 3.13965,-1.17737 4.75753,-1.17737c2.61103,0 4.86165,0.91306 6.75185,2.73918c1.8902,1.81011 2.8353,3.86048 2.8353,6.15115c0,0.97713 -0.16018,1.87418 -0.48056,2.69112c-0.32038,0.80094 -0.865,1.68195 -1.6339,2.64307c-0.75288,0.96112 -2.10645,2.40279 -4.06072,4.32503c-4.94975,4.88568 -8.97043,8.66607 -12.06201,11.34118z" fill="#000000" stroke="#000000" stroke-width="0.5" stroke-linecap="square"/><path d="M159.49423,290.06774c1.93813,0.87216 3.42403,2.06734 4.45771,3.58555c1.03367,1.5182 1.55051,3.10101 1.55051,4.74842c0,2.55188 -1.03367,4.79688 -3.10101,6.73501c-2.06734,1.93813 -4.64344,2.9072 -7.7283,2.9072c-1.82508,0 -3.71476,-0.38762 -5.66904,-1.16288c-1.93813,-0.77525 -3.29482,-1.56665 -4.07008,-2.37422c-0.25841,-0.25841 -0.38762,-0.54106 -0.38762,-0.84793c0,-0.27457 0.09691,-0.50876 0.29072,-0.70257c0.19382,-0.20996 0.428,-0.31495 0.70257,-0.31495c0.25841,0 0.55721,0.12921 0.89639,0.38762c2.61648,1.93813 5.37831,2.9072 8.28551,2.9072c2.45497,0 4.50616,-0.76718 6.15357,-2.30153c1.66356,-1.55051 2.49534,-3.26252 2.49534,-5.13605c0,-1.27594 -0.41185,-2.51957 -1.23556,-3.73091c-0.80756,-1.21133 -1.97851,-2.16425 -3.51286,-2.85875c-1.53436,-0.6945 -3.07679,-1.04175 -4.62729,-1.04175c-0.51684,0 -0.88831,-0.09691 -1.11442,-0.29072c-0.20996,-0.19382 -0.31495,-0.45223 -0.31495,-0.77525c0,-0.30687 0.10498,-0.55721 0.31495,-0.75103c0.20996,-0.20996 0.52491,-0.31495 0.94484,-0.31495l1.817,0.04845c1.90583,0 3.47249,-0.58144 4.69997,-1.74432c1.24364,-1.16288 1.86545,-2.51149 1.86545,-4.04585c0,-1.58281 -0.64604,-2.97988 -1.93813,-4.19121c-1.29209,-1.21133 -2.97988,-1.817 -5.06337,-1.817c-1.46975,0 -2.81837,0.25841 -4.04585,0.77525c-1.22748,0.50068 -2.2127,1.1871 -2.95565,2.05926c-0.27457,0.33917 -0.48453,0.54914 -0.62989,0.62989c-0.12921,0.06461 -0.29072,0.09691 -0.48453,0.09691c-0.27457,0 -0.51684,-0.09691 -0.7268,-0.29072c-0.19382,-0.19382 -0.29072,-0.428 -0.29072,-0.70257c0,-0.66219 0.7268,-1.51013 2.1804,-2.54379c2.03504,-1.4213 4.35272,-2.13195 6.95305,-2.13195c2.66493,0 4.85341,0.80756 6.56543,2.42267c1.72817,1.59896 2.59225,3.50479 2.59225,5.71749c0,1.4213 -0.41185,2.76184 -1.23556,4.02162c-0.82371,1.25978 -2.03504,2.26923 -3.634,3.02833z" fill="#000000" stroke="#000000" stroke-width="0.5" stroke-linecap="square"/><path d="M292.94404,352.97929v-328h4.66667v328z" fill="#373737" stroke="none" stroke-width="0" stroke-linecap="butt"/><path d="M229.22539,190.66036h34.7173c0,0 0.07114,17.78003 0.08879,22.19055c0.0075,1.87348 1.66017,4.01199 3.24446,4.01975c3.48069,0.01705 25.28279,-0.21031 25.28279,-0.21031" fill="none" stroke="#6b6b6b" stroke-width="5" stroke-linecap="round"/><path d="M229.22539,189.16038h34.7173c0,0 0.07115,17.78003 0.08879,22.19055c0.0075,1.87348 1.66017,4.01199 3.24446,4.01975c3.48069,0.01705 25.44946,-0.21031 25.44946,-0.21031" fill="none" stroke="#000000" stroke-width="5" stroke-linecap="round"/><path d="M229.22539,188.82704h34.7173c0,0 0.07115,17.78003 0.08879,22.19055c0.0075,1.87348 1.66017,4.01199 3.24446,4.01975c3.48069,0.01705 25.61612,-0.21031 25.61612,-0.21031" fill="none" stroke="#2d2d2d" stroke-width="2" stroke-linecap="round"/><path d="M233.18495,190.01912c0,-0.56287 0,-1.82187 0,-2.125c0,-0.59508 0.7985,-1.04833 1.4,-1.04833c0.63583,0 2.09447,0 3.2,0c0.7902,0 1.4,0.29859 1.4,0.87833c0,0.69889 0,1.7293 0,2.125c0,0.41001 -0.76175,0.96334 -1.7,0.96334c-1.17102,0 -2.61696,0 -3.2,0c-0.49758,0 -1.1,-0.04231 -1.1,-0.79333z" fill="#af0202" stroke="#572222" stroke-width="1.5" stroke-linecap="butt"/><g fill="none" stroke-linecap="round"><path d="M292.72538,177.82703h-63.5" stroke="#6b6b6b" stroke-width="5"/><path d="M229.22539,176.32704h63.5" stroke="#000000" stroke-width="5"/><path d="M229.22539,176.32704h63.5" stroke="#2d2d2d" stroke-width="2"/></g><g fill="none" stroke-linecap="round"><path d="M292.72538,184.32703h-63.5" stroke="#6b6b6b" stroke-width="5"/><path d="M229.22535,182.82704h63.5" stroke="#000000" stroke-width="5"/><path d="M229.22535,182.82704h63.5" stroke="#2d2d2d" stroke-width="2"/></g><path d="M233.18495,177.41912c0,-0.56287 0,-1.82187 0,-2.125c0,-0.59508 0.7985,-1.04834 1.4,-1.04834c0.63583,0 2.09447,0 3.2,0c0.7902,0 1.4,0.29859 1.4,0.87833c0,0.69888 0,1.7293 0,2.125c0,0.41001 -0.76175,0.96333 -1.7,0.96333c-1.17102,0 -2.61696,0 -3.2,0c-0.49758,0 -1.1,-0.04231 -1.1,-0.79333z" fill="#af0202" stroke="#572222" stroke-width="1.5" stroke-linecap="butt"/><path d="M233.18495,184.01912c0,-0.56287 0,-1.82187 0,-2.125c0,-0.59508 0.7985,-1.04833 1.4,-1.04833c0.63583,0 2.09447,0 3.2,0c0.7902,0 1.4,0.29859 1.4,0.87833c0,0.69889 0,1.7293 0,2.125c0,0.41001 -0.76175,0.96334 -1.7,0.96334c-1.17102,0 -2.61696,0 -3.2,0c-0.49758,0 -1.1,-0.04231 -1.1,-0.79333z" fill="#af0202" stroke="#572222" stroke-width="1.5" stroke-linecap="butt"/></g></g></svg>