<svg version="1.1" xmlns="http://www.w3.org/2000/svg" xmlns:xlink="http://www.w3.org/1999/xlink" width="284.37237" height="195.60633" viewBox="0,0,284.37237,195.60633"><defs><linearGradient x1="240" y1="180.00003" x2="240" y2="180.00003" gradientUnits="userSpaceOnUse" id="color-1"><stop offset="0" stop-color="#e7bc52"/><stop offset="1" stop-color="#efd85e"/></linearGradient><linearGradient x1="240" y1="180.00003" x2="240" y2="180.00003" gradientUnits="userSpaceOnUse" id="color-2"><stop offset="0" stop-color="#efd85e" stop-opacity="0"/><stop offset="1" stop-color="#efd85e" stop-opacity="0"/></linearGradient></defs><g transform="translate(-72.0931,81.03225)"><g data-paper-data="{&quot;isPaintingLayer&quot;:true}" fill-rule="nonzero" stroke-linejoin="miter" stroke-miterlimit="10" stroke-dasharray="" stroke-dashoffset="0" style="mix-blend-mode: normal"><path d="" fill="url(#color-1)" stroke="#000000" stroke-width="15" stroke-linecap="butt"/><path d="" fill="#e7bc52" stroke="none" stroke-width="0" stroke-linecap="butt"/><path d="" fill="url(#color-2)" stroke="#000000" stroke-width="15" stroke-linecap="butt"/><g fill="none" stroke="#392f0e" stroke-width="5" stroke-linecap="round"><path d=""/><path d=""/><path d=""/></g><path d="M72.0931,114.57409v-195.60633h284.37237v195.60633z" fill="none" stroke="none" stroke-width="NaN" stroke-linecap="butt"/><path d="M149.21371,64.24534c0,0 -3.4208,-2.54077 -6.18865,-7.68979c-3.65794,-6.80482 -7.16455,-17.31921 -7.9485,-24.4376c-1.22369,-11.11131 1.69293,-13.7068 3.40964,-19.11502c0.90898,-2.86361 0.48058,-5.69007 -1.21449,-7.31397c-6.39991,-6.13114 -20.48326,-22.86025 -9.038,-42.81476c1.35215,-2.35744 8.35445,-9.01421 9.93709,-9.86442c20.1765,-10.83914 40.49135,-11.93543 58.62164,-13.82351c46.41074,-4.8332 69.86131,16.92544 84.73408,29.79008c13.69104,11.84248 31.99658,18.36998 31.99658,18.36998c0,0 7.25739,12.80519 9.70219,19.01125c2.34576,5.95462 3.57533,17.50194 3.57533,17.50194c0,0 -36.19181,-4.1152 -100.42927,12.20187c-54.77363,13.91315 -77.15763,28.18393 -77.15763,28.18393z" fill="#b41d1d" stroke="none" stroke-width="15" stroke-linecap="butt"/><path d="M149.21371,64.24534c0,0 -3.4208,-2.54077 -6.18865,-7.68979c-3.65794,-6.80482 -7.16455,-17.31921 -7.9485,-24.4376c-1.22369,-11.11131 1.69293,-13.7068 3.40964,-19.11502c0.90898,-2.86361 0.48058,-5.69007 -1.21449,-7.31397c-6.39991,-6.13114 -20.48326,-22.86025 -9.038,-42.81476c1.35215,-2.35744 8.35445,-9.01421 9.93709,-9.86442c12.87746,-6.91798 -4.22499,14.53342 15.49341,21.27502c7.51398,2.56898 -0.497,18.6946 6.0618,18.01157c13.03671,-1.35764 -0.52014,7.76368 3.47595,13.62747c10.23005,15.01132 18.74311,39.39829 18.74311,39.39829z" fill="#760d2a" stroke="none" stroke-width="15" stroke-linecap="butt"/><path d="M227.85617,38.68189c0,0 -22.0755,-14.15523 -23.75567,-21.72091c-1.19885,-5.39836 14.62197,-19.4077 14.62197,-19.4077l28.67785,-4.7154l9.13369,40.02214z" fill="#c43131" stroke="#690b2c" stroke-width="7.5" stroke-linecap="butt"/><path d="M254.98818,33.81951l-9.09601,-39.9809l29.42065,-3.68679l7.34601,39.2309z" fill="#c43131" stroke="#690b2c" stroke-width="7.5" stroke-linecap="butt"/><path d="M281.5366,24.68449l-5.29567,-33.84168l29.41588,-3.37059l3.79566,35.09167z" fill="#c43131" stroke="#690b2c" stroke-width="7.5" stroke-linecap="butt"/><path d="M201.76452,43.49526c0,0 -28.65205,-11.36014 -30.61706,-18.11562c-1.04541,-3.59398 19.72686,-19.32362 19.72686,-19.32362l25.63494,-5.86044l9.6157,34.25481l4.04065,2.63121z" fill="#c43131" stroke="#690b2c" stroke-width="7.5" stroke-linecap="butt"/><path d="M172.33494,44.67986c-0.01005,0.18056 -0.02339,0.361 -0.03999,0.54108c0.48554,0.49439 0.78275,1.15849 0.78275,1.88868c0,1.04734 -0.61148,1.95874 -1.51312,2.42833l-0.48476,0.26369c-1.62319,3.4165 -4.73258,5.52092 -8.98176,3.50867c-1.35689,0.62861 -2.67041,1.28683 -3.82626,1.97039c-0.23787,0.14067 -0.46668,0.31005 -0.6896,0.49732c-0.44585,2.38877 -1.78735,4.41786 -5.54417,3.68613c-3.41394,-0.66495 -4.54233,-5.03163 -6.81349,-7.54744l2.38275,-0.54826l-0.16997,-0.49801c-2.50316,-2.48028 -3.9812,-6.06728 -5.52331,-8.97523c-0.99375,-1.87391 -2.70696,-3.58856 -2.84951,-5.68331c-0.19725,-2.89869 -0.51249,-6.728 1.88244,-8.52805c1.26338,-0.94956 2.98967,-0.02472 4.56386,1.02723c0.20648,-0.15552 0.43568,-0.28491 0.68207,-0.38292l0.66115,-0.27971c0.17645,-0.7415 0.66579,-1.36993 1.32894,-1.75293l4.87712,-2.92058l0.28393,0.42965c3.82779,-2.78139 8.38051,-4.47525 11.98951,-0.33104c2.01331,2.31189 1.0127,6.1033 2.71896,8.62913c2.39678,3.54803 6.75498,5.40198 9.23592,9.11971l-2.85466,4.22757c0,0 -1.2389,0 -2.09882,-0.77006z" fill="#c43131" stroke="none" stroke-width="15" stroke-linecap="butt"/><path d="M176.5142,54.34308l-15.0155,-36.2645l27.04432,-11.22422l13.31873,37.56772z" fill="#c43131" stroke="#690b2c" stroke-width="7.5" stroke-linecap="butt"/><path d="M139.80878,27.45553c0,0 37.2159,-17.33566 60.41178,-23.90191c53.59642,-15.17202 106.11052,-15.93066 106.11052,-15.93066" fill="none" stroke="#690b2c" stroke-width="10" stroke-linecap="round"/><path d="M149.21371,64.24534c0,0 -3.4208,-2.54077 -6.18865,-7.68979c-3.65794,-6.80482 -7.16455,-17.31922 -7.9485,-24.4376c-1.22369,-11.1113 1.69293,-13.7068 3.40964,-19.11501c0.90898,-2.86361 0.48058,-5.69007 -1.21449,-7.31396c-6.3999,-6.13112 -20.48326,-22.86025 -9.038,-42.81478c1.35216,-2.35744 8.35445,-9.01421 9.9371,-9.86443c20.17649,-10.83914 40.49135,-11.93543 58.62165,-13.82351c46.41075,-4.8332 69.86131,16.92544 84.73408,29.79008c7.45209,6.44592 16.27134,11.31718 22.76162,14.41828c1.78521,0.85298 10.07611,5.43585 11.28213,7.63847c2.3365,4.26725 6.04255,11.23125 7.65504,15.32452c2.34576,5.95462 3.57533,17.50194 3.57533,17.50194c0,0 -36.19181,-4.1152 -100.42927,12.20187c-54.77363,13.91315 -77.15763,28.18393 -77.15763,28.18393z" fill="none" stroke="#2e0000" stroke-width="15" stroke-linecap="butt"/></g></g></svg>