<svg version="1.1" xmlns="http://www.w3.org/2000/svg" xmlns:xlink="http://www.w3.org/1999/xlink" width="355" height="355" viewBox="0,0,355,355"><defs><linearGradient x1="240.55469" y1="2.42189" x2="240.55469" y2="352.42191" gradientUnits="userSpaceOnUse" id="color-1"><stop offset="0" stop-color="#80899b"/><stop offset="1" stop-color="#c5d0db"/></linearGradient><radialGradient cx="240" cy="180" r="154.5" gradientUnits="userSpaceOnUse" id="color-2"><stop offset="0" stop-color="#3698da"/><stop offset="1" stop-color="#236794"/></radialGradient></defs><g transform="translate(-63.05469,0.07809)"><g data-paper-data="{&quot;isPaintingLayer&quot;:true}" fill-rule="nonzero" stroke-linecap="butt" stroke-linejoin="miter" stroke-miterlimit="10" stroke-dasharray="" stroke-dashoffset="0" style="mix-blend-mode: normal"><path d="M65.55469,352.42191v-350h350v350z" fill="url(#color-1)" stroke="#000000" stroke-width="5"/><path d="M78,180.00002c0,-89.47013 72.52987,-162 162,-162c89.47013,0 162,72.52987 162,162c0,89.47013 -72.52987,162 -162,162c-89.47013,0 -162,-72.52987 -162,-162z" fill="#626c80" stroke="#000000" stroke-width="3.5"/><path d="M85.5,180c0,-85.328 69.172,-154.5 154.5,-154.5c85.328,0 154.5,69.172 154.5,154.5c0,85.328 -69.172,154.5 -154.5,154.5c-85.328,0 -154.5,-69.172 -154.5,-154.5z" fill="url(#color-2)" stroke="#104263" stroke-width="3.5"/><path d="M85.5,180c0,-85.328 69.172,-154.5 154.5,-154.5c85.328,0 154.5,69.172 154.5,154.5c0,85.328 -69.172,154.5 -154.5,154.5c-85.328,0 -154.5,-69.172 -154.5,-154.5z" fill="none" stroke="#104263" stroke-width="3.5"/></g></g></svg>