<svg version="1.1" xmlns="http://www.w3.org/2000/svg" xmlns:xlink="http://www.w3.org/1999/xlink" width="133.69892" height="66.35733" viewBox="0,0,133.69892,66.35733"><g transform="translate(-179.90882,-118.80385)"><g data-paper-data="{&quot;isPaintingLayer&quot;:true}" fill-rule="nonzero" stroke-linejoin="miter" stroke-miterlimit="10" stroke-dasharray="" stroke-dashoffset="0" style="mix-blend-mode: normal"><path d="M210.39751,173.23182c0,0 -4.10444,4.89045 -8.83065,2.0651c-5.08026,-3.03701 -4.86945,-14.94729 -4.86945,-14.94729" data-paper-data="{&quot;index&quot;:null}" fill="none" stroke="#ffffff" stroke-width="5" stroke-linecap="round"/><path d="M211.17619,175.67996c-0.03187,-1.09254 0.01861,-2.25476 0.21226,-3.40401c0.65,-3.85755 2.6232,-6.94746 4.03021,-8.73994c0.86369,-1.10031 2.06435,-1.70522 2.82246,-1.69625c2.90705,0.03439 21.50969,0.08422 36.70931,0.11055c7.91929,0.01372 14.91478,0.02105 18.28528,0.0165c1.3619,-0.00184 2.50693,0.4826 3.07856,1.48126c1.81901,3.17789 5.62943,10.1382 5.68566,12.77392c0.0546,2.55926 -0.64323,3.86263 -1.31406,4.52283c-0.59954,0.59004 -1.92336,0.66636 -2.91407,0.66636c-4.94454,0 -48.08543,0 -61.65601,0c-2.5604,0 -4.84753,-2.5748 -4.9396,-5.7312z" fill="none" stroke="#ffffff" stroke-width="7.5" stroke-linecap="butt"/><path d="M214.51923,159.18052c0,0 -0.16971,-10.00492 -0.5397,-15.62891c-0.2989,-4.54325 -1.08881,-13.02708 -1.55151,-17.86753c-0.20906,-2.187 1.09457,-3.63024 2.82399,-3.63024c6.85265,0 51.39303,0 61.30787,0c1.25393,0 3.53392,1.83858 3.42292,4.67967c-0.12666,3.24182 -0.69324,11.76248 -1.90133,18.93914c-1.25462,7.45313 -3.14995,13.50787 -3.14995,13.50787z" fill="#000000" stroke="#ffffff" stroke-width="6.5" stroke-linecap="butt"/><path d="M295.09436,160.34964c0,0 0.21081,11.91028 -4.86945,14.94729c-4.72622,2.82535 -8.83066,-2.0651 -8.83066,-2.0651" fill="none" stroke="#ffffff" stroke-width="5" stroke-linecap="round"/><path d="M285.51955,145.6001c-0.23214,-2.54124 -0.85568,-9.67423 -1.1979,-13.59855c-0.13982,-1.60347 1.1623,-2.13914 2.71674,-1.0044c2.92068,2.13206 7.50305,6.11151 10.04322,8.30525c2.34361,2.02398 5.49398,5.33277 7.65348,7.67269c1.21821,1.31999 2.36877,4.17302 2.64518,5.78398c0.36627,2.13474 1.34698,7.85044 2.03868,11.88186c0.42317,2.46631 1.00817,6.7505 -2.80124,3.61253c-2.61015,-2.15008 -12.74379,-11.08743 -17.87076,-15.74299c-1.89931,-1.72468 -3.06234,-5.10323 -3.22742,-6.91035z" fill="#bceedb" stroke="#ffffff" stroke-width="8.5" stroke-linecap="butt"/><path d="M286.6372,145.807c-0.21271,-2.32845 -0.78404,-8.86413 -1.09759,-12.45985c-0.12812,-1.4692 1.06498,-1.96001 2.48926,-0.9203c2.67611,1.95354 6.63097,5.32477 8.95844,7.3348c2.14736,1.8545 5.27771,5.16121 7.25639,7.30519c1.1162,1.20945 2.17042,3.82359 2.42368,5.29965c0.33562,1.95598 1.23419,7.19308 1.86798,10.88691c0.38774,2.25978 0.92375,6.18524 -2.56667,3.31003c-2.39158,-1.97004 -11.67666,-10.159 -16.37431,-14.42471c-1.74027,-1.58026 -2.80592,-4.6759 -2.95718,-6.3317z" fill="none" stroke="#ffffff" stroke-width="5" stroke-linecap="butt"/><path d="M295.09436,160.34964c0,0 0.21081,11.91028 -4.86945,14.94729c-4.72622,2.82535 -8.83066,-2.0651 -8.83066,-2.0651" fill="none" stroke="#000000" stroke-width="2.5" stroke-linecap="round"/><path d="M285.51955,145.6001c-0.23214,-2.54124 -0.85568,-9.67423 -1.1979,-13.59855c-0.13982,-1.60347 1.1623,-2.13914 2.71674,-1.0044c2.92068,2.13206 7.50305,6.11151 10.04322,8.30525c2.34361,2.02398 5.49398,5.33277 7.65348,7.67269c1.21821,1.31999 2.36877,4.17302 2.64518,5.78398c0.36627,2.13474 1.34698,7.85044 2.03868,11.88186c0.42317,2.46631 1.00817,6.7505 -2.80124,3.61253c-2.61015,-2.15008 -12.74379,-11.08743 -17.87076,-15.74299c-1.89931,-1.72468 -3.06234,-5.10323 -3.22742,-6.91035z" fill="#bceedb" stroke="#000000" stroke-width="5" stroke-linecap="butt"/><path d="M286.6372,145.807c-0.21271,-2.32845 -0.78404,-8.86413 -1.09759,-12.45985c-0.12812,-1.4692 1.06498,-1.96001 2.48926,-0.9203c2.67611,1.95354 6.63097,5.32477 8.95844,7.3348c2.14736,1.8545 5.27771,5.16121 7.25639,7.30519c1.1162,1.20945 2.17042,3.82359 2.42368,5.29965c0.33562,1.95598 1.23419,7.19308 1.86798,10.88691c0.38774,2.25978 0.92375,6.18524 -2.56667,3.31003c-2.39158,-1.97004 -11.67666,-10.159 -16.37431,-14.42471c-1.74027,-1.58026 -2.80592,-4.6759 -2.95718,-6.3317z" fill="none" stroke="#2a3d3d" stroke-width="2.5" stroke-linecap="butt"/><path d="M211.17618,175.67997c-0.03187,-1.09254 0.01861,-2.25476 0.21226,-3.40401c0.65,-3.85755 2.6232,-6.94746 4.03021,-8.73994c0.86369,-1.10031 2.06435,-1.70522 2.82246,-1.69625c2.90705,0.03439 21.50969,0.08422 36.70931,0.11055c7.91929,0.01372 14.91478,0.02105 18.28528,0.0165c1.3619,-0.00184 2.50693,0.4826 3.07856,1.48126c1.81901,3.17789 5.62943,10.1382 5.68566,12.77392c0.0546,2.55926 -0.64323,3.86263 -1.31406,4.52283c-0.59954,0.59004 -1.92336,0.66636 -2.91407,0.66636c-4.94454,0 -48.08543,0 -61.65601,0c-2.5604,0 -4.84753,-2.5748 -4.9396,-5.7312z" fill="none" stroke="#000000" stroke-width="5" stroke-linecap="butt"/><path d="M216.47326,160.80888c0,0 -2.12374,-11.63328 -2.49374,-17.25728c-0.2989,-4.54325 -1.08881,-13.02708 -1.55151,-17.86753c-0.20906,-2.187 1.09457,-3.63024 2.82399,-3.63024c6.85265,0 51.39303,0 61.30787,0c1.25393,0 3.53392,1.83858 3.42292,4.67967c-0.12666,3.24182 -0.69324,11.76248 -1.90133,18.93914c-1.25462,7.45313 -3.14995,13.50787 -3.14995,13.50787z" fill="#000000" stroke="#000000" stroke-width="3" stroke-linecap="butt"/><path d="M214.27497,126.45043h62.52914c0,0 0.58877,14.21161 -3.57976,28.20563c-0.40909,1.37333 -0.86511,1.34438 -3.01423,1.33695c-10.54599,-0.03642 -52.13592,-0.92359 -53.14421,-3.17055z" fill="#baeedc" stroke="#000000" stroke-width="5" stroke-linecap="butt"/><path d="M213.00136,127.71704c0,0 0,-2.20101 0,-3.07062c0,-0.64225 0.91336,-1.67488 2.09361,-1.67488c5.61935,0 48.928,0 60.15638,0c1.68881,0 2.65191,1.24477 2.65191,1.95404c0,0.84774 0,2.79148 0,2.79148z" fill="#1f3435" stroke="none" stroke-width="0" stroke-linecap="butt"/><path d="M217.06592,152.82247c-1.84672,-4.11537 -2.79095,-26.37205 -2.79095,-26.37205h62.52914c0,0 0.58878,14.2116 -3.57976,28.20563c-0.40909,1.37333 -0.86511,1.34438 -3.01423,1.33696c-10.54599,-0.03642 -42.27151,-0.13666 -49.09061,-0.04997c-2.49935,0.03177 -3.04531,-0.87362 -4.0536,-3.12058z" fill="none" stroke="#3e4c4d" stroke-width="2.5" stroke-linecap="butt"/><path d="M211.17618,175.67997c-0.03187,-1.09254 0.01861,-2.25476 0.21226,-3.40401c0.65,-3.85755 2.6232,-6.94746 4.03021,-8.73994c0.86369,-1.10031 2.06435,-1.70522 2.82246,-1.69625c2.90705,0.03439 21.50969,0.08422 36.70931,0.11055c7.91929,0.01372 14.91478,0.02105 18.28528,0.0165c1.3619,-0.00184 2.50693,0.4826 3.07856,1.48126c1.81901,3.17789 5.62943,10.1382 5.68566,12.77392c0.0546,2.55926 -0.64323,3.86263 -1.31406,4.52283c-0.59954,0.59004 -1.92336,0.66636 -2.91407,0.66636c-4.94454,0 -48.08543,0 -61.65601,0c-2.5604,0 -4.84753,-2.5748 -4.9396,-5.7312z" fill="#403630" stroke="none" stroke-width="0" stroke-linecap="butt"/><path d="M213.13022,167.58685c-0.03187,-0.71076 -1.93542,1.78988 -1.74178,1.04222c0.65,-2.50956 2.6232,-4.51971 4.03021,-5.68583c0.86369,-0.71581 2.06435,-1.10935 2.82246,-1.1035c2.90705,0.02237 21.50969,0.05479 36.70931,0.07192c7.91929,0.00892 14.91478,0.0137 18.28528,0.01074c1.3619,-0.00119 2.50693,0.31395 3.07856,0.96364c1.81901,2.0674 3.41406,4.63525 2.74323,5.06474c-0.59954,0.38385 1.0077,6.29561 -2.91407,6.62128c-4.92758,0.40919 -46.45706,0 -60.02764,0c-2.5604,0 -2.24215,-5.25746 -2.33421,-7.31087z" fill="#77715d" stroke="none" stroke-width="0" stroke-linecap="butt"/><path d="M211.17618,175.67997c-0.03187,-1.09254 0.01861,-2.25476 0.21226,-3.40401c0.65,-3.85755 2.6232,-6.94746 4.03021,-8.73994c0.86369,-1.10031 2.06435,-1.70522 2.82246,-1.69625c2.90705,0.03439 21.50969,0.08422 36.70931,0.11055c7.91929,0.01372 14.91478,0.02105 18.28528,0.0165c1.3619,-0.00184 2.50693,0.4826 3.07856,1.48126c1.81901,3.17789 5.62943,10.1382 5.68566,12.77392c0.0546,2.55926 -0.64323,3.86263 -1.31406,4.52283c-0.59954,0.59004 -1.92336,0.66636 -2.91407,0.66636c-4.94454,0 -48.08543,0 -61.65601,0c-2.5604,0 -4.84753,-2.5748 -4.9396,-5.7312z" fill="none" stroke="#000000" stroke-width="2.5" stroke-linecap="butt"/><path d="M266.00882,168.99523c0,2.07223 -1.67681,3.75209 -3.74524,3.75209c-2.06843,0 -3.74523,-1.67986 -3.74523,-3.75209c0,-2.07223 1.6768,-3.75209 3.74523,-3.75209c2.06843,0 3.74524,1.67986 3.74524,3.75209z" fill="#cfefef" stroke="#2a2d2a" stroke-width="2" stroke-linecap="butt"/><path d="M223.92315,170.14979c-0.1167,-0.70427 -0.11867,-1.87541 -0.0905,-2.88422c0.02913,-1.04333 0.86147,-1.913 2.13503,-1.913c5.33224,0 19.47493,0 22.73037,0c3.1069,0 3.30732,2.45558 3.30732,3.64589c0,1.14236 0.26153,3.35805 -2.76613,3.35805c-2.88666,0 -15.12439,0 -21.46757,0c-2.31776,0 -3.53812,-0.33351 -3.84852,-2.20672z" fill="#cfefef" stroke="#2a2d2a" stroke-width="2" stroke-linecap="butt"/><path d="M206.27223,145.6001c-0.16508,1.80712 -1.32811,5.18568 -3.22742,6.91035c-5.12697,4.65556 -15.26061,13.59291 -17.87076,15.743c-3.80941,3.13797 -3.2244,-1.14623 -2.80124,-3.61253c0.69171,-4.03142 1.67241,-9.74712 2.03869,-11.88186c0.27641,-1.61096 1.42696,-4.46399 2.64518,-5.78398c2.1595,-2.33992 5.30987,-5.64871 7.65347,-7.67269c2.54017,-2.19374 7.12255,-6.17319 10.04322,-8.30525c1.55445,-1.13474 2.85657,-0.59906 2.71674,1.0044c-0.34222,3.92433 -0.96576,11.05732 -1.1979,13.59856z" data-paper-data="{&quot;index&quot;:null}" fill="#bceedb" stroke="#ffffff" stroke-width="5" stroke-linecap="butt"/><path d="M202.19739,152.13871c-4.69764,4.26571 -13.98272,12.45467 -16.37431,14.42472c-3.49043,2.8752 -2.95441,-1.05025 -2.56667,-3.31003c0.63379,-3.69383 1.53237,-8.93093 1.86798,-10.8869c0.25326,-1.47606 1.30747,-4.09019 2.42368,-5.29965c1.97868,-2.14398 5.10902,-5.45069 7.25638,-7.30519c2.32747,-2.01003 6.28234,-5.38126 8.95844,-7.3348c1.42428,-1.0397 2.61738,-0.54889 2.48926,0.92031c-0.31355,3.59572 -0.88489,10.1314 -1.09759,12.45985c-0.15126,1.65581 -1.2169,4.75144 -2.95718,6.33171z" data-paper-data="{&quot;index&quot;:null}" fill="none" stroke="#ffffff" stroke-width="8.5" stroke-linecap="butt"/><path d="M210.39751,173.23182c0,0 -4.10444,4.89045 -8.83065,2.0651c-5.08026,-3.03701 -4.86945,-14.94729 -4.86945,-14.94729" data-paper-data="{&quot;index&quot;:null}" fill="none" stroke="#000000" stroke-width="2.5" stroke-linecap="round"/><path d="M206.27223,145.6001c-0.16508,1.80712 -1.32811,5.18568 -3.22742,6.91035c-5.12697,4.65556 -15.26061,13.59291 -17.87076,15.743c-3.80941,3.13797 -3.2244,-1.14623 -2.80124,-3.61253c0.69171,-4.03142 1.67241,-9.74712 2.03869,-11.88186c0.27641,-1.61096 1.42696,-4.46399 2.64518,-5.78398c2.1595,-2.33992 5.30987,-5.64871 7.65347,-7.67269c2.54017,-2.19374 7.12255,-6.17319 10.04322,-8.30525c1.55445,-1.13474 2.85657,-0.59906 2.71674,1.0044c-0.34222,3.92433 -0.96576,11.05732 -1.1979,13.59856z" data-paper-data="{&quot;index&quot;:null}" fill="#bceedb" stroke="#000000" stroke-width="5" stroke-linecap="butt"/><path d="M202.19739,152.13871c-4.69764,4.26571 -13.98272,12.45467 -16.37431,14.42472c-3.49043,2.8752 -2.95441,-1.05025 -2.56667,-3.31003c0.63379,-3.69383 1.53237,-8.93093 1.86798,-10.8869c0.25326,-1.47606 1.30747,-4.09019 2.42368,-5.29965c1.97868,-2.14398 5.10902,-5.45069 7.25638,-7.30519c2.32747,-2.01003 6.28234,-5.38126 8.95844,-7.3348c1.42428,-1.0397 2.61738,-0.54889 2.48926,0.92031c-0.31355,3.59572 -0.88489,10.1314 -1.09759,12.45985c-0.15126,1.65581 -1.2169,4.75144 -2.95718,6.33171z" data-paper-data="{&quot;index&quot;:null}" fill="none" stroke="#2a3d3d" stroke-width="2.5" stroke-linecap="butt"/></g></g></svg>