<svg version="1.1" xmlns="http://www.w3.org/2000/svg" xmlns:xlink="http://www.w3.org/1999/xlink" width="246.56953" height="222.27976" viewBox="0,0,246.56953,222.27976"><g transform="translate(-116.71523,-68.86012)"><g data-paper-data="{&quot;isPaintingLayer&quot;:true}" fill-rule="nonzero" stroke-linecap="butt" stroke-linejoin="miter" stroke-miterlimit="10" stroke-dasharray="" stroke-dashoffset="0" style="mix-blend-mode: normal"><path d="M244.14736,145.56905c0.71016,-0.76081 1.12743,-2.16123 2.05193,-2.45996c0.09689,-0.03131 0.19936,-0.05052 0.30832,-0.05562c4.12928,-0.19334 7.42675,6.42137 9.78343,8.55327c1.01977,0.9225 2.44843,2.45941 1.89837,4.47631c-2.10972,7.73566 -6.5806,-3.63771 -8.17502,-4.56909c-0.33505,-0.19572 -5.4374,-4.08055 -5.46545,-4.58547z" fill="#000000" stroke="none" stroke-width="0.5"/><path d="M216.91888,157.70182c-0.40311,-0.60962 -0.67193,-1.53447 0.08085,-2.66365c1.38675,-2.08013 3.46688,-0.69338 3.46688,-0.69338l1.66499,5.11462c-3.31341,2.24238 -2.62072,6.26725 -2.62072,9.89666c0,0 0,2.5 -2.5,2.5c-2.5,0 -2.5,-2.5 -2.5,-2.5c0,-4.53711 -0.05728,-8.37249 2.40801,-11.65425z" fill="#000000" stroke="none" stroke-width="0.5"/><path d="M258.28583,155.04762c0.25684,0.76383 -0.3407,0.43378 -1.01811,-0.36922c-1.39617,-1.65502 -3.73854,-4.39996 -4.99682,-5.69747c-1.29287,-1.33319 -3.74398,-2.87677 -4.89539,-3.88453c-0.53304,-0.46654 -0.02094,-1.12205 0.60218,-1.27032c1.29423,-0.30793 3.58954,-0.7829 4.40432,-1.04833c0.66602,-0.21697 1.56225,-0.00065 1.7563,0.57647c0.51513,1.53199 3.17939,8.81419 4.14753,11.69338z" data-paper-data="{&quot;index&quot;:null}" fill="#09158c" stroke="#000000" stroke-width="2"/><path d="M258.28582,155.04762c0.25684,0.76383 -0.3407,0.43378 -1.01811,-0.36922c-1.39617,-1.65502 -3.73854,-4.39996 -4.99682,-5.69747c-1.29287,-1.33319 -3.74398,-2.87677 -4.89539,-3.88453c-0.53304,-0.46654 -0.02094,-1.12205 0.60218,-1.27032c1.29423,-0.30793 3.58954,-0.7829 4.40432,-1.04833c0.66602,-0.21697 1.56225,-0.00065 1.7563,0.57647c0.51513,1.53199 3.17939,8.81419 4.14753,11.69338z" data-paper-data="{&quot;index&quot;:null}" fill="#09158c" stroke="none" stroke-width="0"/><path d="M214.68239,169.779c-0.66778,-2.96329 -2.1725,-10.57016 -2.52782,-12.1469c-0.13386,-0.59398 0.51972,-1.24425 1.20157,-1.40469c0.83413,-0.19627 3.04235,-0.9823 4.3083,-1.39123c0.60951,-0.19688 1.38756,0.09739 1.17429,0.7729c-0.46067,1.45914 -1.75382,4.05112 -2.16638,5.86184c-0.40153,1.76226 -0.97789,5.32446 -1.31161,7.46385c-0.16192,1.03802 -0.50118,1.63037 -0.67834,0.84423z" fill="#09158c" stroke="#000000" stroke-width="1.5"/><path d="M214.68239,169.779c-0.66778,-2.96329 -2.1725,-10.57016 -2.52782,-12.1469c-0.13386,-0.59398 0.51972,-1.24425 1.20157,-1.40469c0.83413,-0.19627 3.04235,-0.9823 4.3083,-1.39123c0.60951,-0.19688 1.38756,0.09739 1.17429,0.7729c-0.46067,1.45914 -1.75382,4.05112 -2.16638,5.86184c-0.40153,1.76226 -0.97789,5.32446 -1.31161,7.46385c-0.16192,1.03802 -0.50118,1.63037 -0.67834,0.84423z" fill="#09158c" stroke="none" stroke-width="0"/><path d="M228.74288,146.93764c13.76685,-7.69248 24.99044,6.35139 26.50404,9.77195c10.1795,19.29189 9.50316,26.54873 10.19603,34.7545c0.14783,7.82223 -1.83494,17.48596 -2.58676,18.51378c-0.69765,0.95377 -5.0888,0.59647 -6.37678,-1.67893c-1.7532,-3.09725 -3.97541,-8.82891 -4.48503,-10.94013c-0.17461,-0.72338 -7.96837,-3.32721 -7.50997,-3.90171c1.67705,-2.10177 15.5116,-5.61261 14.844,-5.75586c-2.05914,-0.44184 -7.07593,9.86057 -14.49064,9.79387c-3.44011,-0.03094 -8.63302,-0.17501 -11.93249,-1.68556c-1.02701,-0.47018 13.71259,-3.12566 22.00872,-1.99355c0.51355,0.05274 -0.58888,3.63562 -3.42898,3.53262c-2.9417,-0.10668 -4.75208,1.90883 -4.35827,3.04517c1.05176,3.03484 2.90617,6.92813 2.92911,9.56724c0.01911,2.19825 -1.45252,4.45291 -2.59825,5.75881c-0.66007,0.75234 -1.95515,0.64929 -2.27263,0.41325c-9.08934,-6.75768 -21.9504,-17.90828 -25.99186,-32.20016c-4.45099,-15.74012 1.21791,-32.33971 9.54976,-36.99528z" fill="#09158c" stroke="#000000" stroke-width="2"/><path d="M228.74287,146.93763c13.76685,-7.69248 24.99044,6.35139 26.50404,9.77195c10.17949,19.29189 9.50316,26.54873 10.19603,34.7545c0.14783,7.82223 -1.83494,17.48596 -2.58676,18.51378c-0.69765,0.95377 -5.0888,0.59647 -6.37678,-1.67893c-1.7532,-3.09725 -3.97541,-8.82891 -4.48503,-10.94013c-0.17461,-0.72338 -7.96837,-3.32721 -7.50997,-3.90171c1.67705,-2.10177 15.5116,-5.61261 14.844,-5.75586c-2.05914,-0.44184 -7.07593,9.86057 -14.49064,9.79387c-3.44011,-0.03094 -8.63302,-0.17501 -11.93249,-1.68556c-1.02701,-0.47018 13.71259,-3.12566 22.00872,-1.99355c0.51356,0.05273 -0.58888,3.63562 -3.42898,3.53262c-2.9417,-0.10668 -4.75208,1.90883 -4.35827,3.04517c1.05176,3.03485 2.90617,6.92813 2.92911,9.56724c0.01911,2.19825 -1.45251,4.45292 -2.59825,5.75881c-0.66007,0.75234 -1.95515,0.64928 -2.27264,0.41324c-9.08933,-6.75767 -21.9504,-17.90828 -25.99185,-32.20016c-4.45099,-15.74012 1.2179,-32.3397 9.54976,-36.99528z" fill="#09158c" stroke="none" stroke-width="0"/><path d="M220.34415,183.20189c-0.44657,-1.72636 -6.73723,-27.54698 8.56539,-36.0976c13.76685,-7.69248 23.32377,6.18472 24.83737,9.60528c6.34616,11.79189 10.20316,25.34873 10.89603,33.5545c0.14783,7.82223 -1.23494,17.28596 -1.98676,18.31378c-0.69765,0.95377 -3.8888,0.39647 -5.17678,-1.87893c-1.7532,-3.09725 -2.97541,-7.62891 -3.48503,-9.74013c-0.17461,-0.72338 0.03163,-1.52721 0.49003,-2.10171c1.67705,-2.10177 5.5116,-7.01261 4.844,-7.15586c-2.05914,-0.44184 -7.07593,9.86057 -14.49064,9.79387c-3.44011,-0.03094 -8.63302,-0.17501 -11.93249,-1.68556c-1.02701,-0.47018 2.86259,3.12434 11.15872,4.25645c2.037,0.20917 3.78304,4.79499 3.8252,9.64503c0.03012,3.46468 -2.47626,5.81951 -2.73994,5.62893c-20.77514,-15.01619 -24.35844,-30.41135 -24.80509,-32.13805z" fill="#132ed2" stroke="none" stroke-width="0"/><path d="M213.9002,160.14677c-0.11803,-0.40069 -0.4426,-1.50259 -0.64908,-2.20354c-0.10587,-0.35941 0.05616,-0.70005 0.29803,-0.78854c0.58688,-0.21472 3.08233,-1.12768 4.17426,-1.52717c0.31651,-0.11579 0.42175,0.01609 0.28288,0.32721c-0.29288,0.65615 -0.78823,1.78637 -1.03749,2.47183c-0.19355,0.53225 -0.39468,1.29704 -0.50172,1.79394c-0.04885,0.22673 -0.46228,0.49938 -0.7287,0.50866c-0.21732,0.00757 -0.64487,0.02246 -1.01026,0.03519c-0.3479,0.01212 -0.74283,-0.32869 -0.82792,-0.61757z" fill="#132ed2" stroke="none" stroke-width="0"/><path d="M253.94973,147.44363c-0.33728,0.20432 -0.73193,0.44342 -0.93252,0.56494c-0.24593,0.14899 -0.78007,0.14712 -0.95807,-0.02864c-0.39009,-0.38521 -1.02334,-0.95661 -1.51237,-1.32265c-0.62982,-0.47138 -1.74443,-1.19881 -2.39629,-1.61798c-0.30909,-0.19875 -0.292,-0.37995 0.06204,-0.46239c1.2214,-0.28441 4.01272,-0.9344 4.66919,-1.08728c0.27055,-0.06301 0.61797,0.14872 0.73472,0.53561c0.22768,0.75455 0.58559,1.94069 0.71574,2.37202c0.09383,0.31097 -0.06128,0.85179 -0.38241,1.04635z" data-paper-data="{&quot;index&quot;:null}" fill="#132ed2" stroke="none" stroke-width="0"/><path d="M137.15551,174.63864c0,-48.24308 43.38237,-87.35181 96.89723,-87.35181c53.51488,0 96.89723,39.10874 96.89723,87.35181c0,48.24308 -43.38237,87.35181 -96.89725,87.35181c-53.51488,0 -96.89723,-39.10872 -96.89723,-87.35181z" data-paper-data="{&quot;index&quot;:null}" fill="none" stroke="none" stroke-width="0"/><path d="M227.9784,178.82118c-0.57445,-1.73817 -2.38756,-7.22435 -3.12631,-9.45964c-0.19727,-0.59691 0.14641,-0.95704 0.86428,-0.98317c1.43351,-0.0522 3.87797,-0.2284 5.655,-0.81568c2.98585,-0.98679 8.795,-2.5829 13.43316,-4.53372c1.74942,-0.73581 3.60879,-1.8551 4.7124,-2.55978c0.61163,-0.39054 1.15585,-0.15532 1.41503,0.62893c0.79334,2.4005 2.47172,7.47896 3.02034,9.13897c0.33779,1.02209 0.14113,2.76472 -1.03263,3.55643c-2.10022,1.41661 -6.03506,3.70288 -11.64597,5.43551c-4.53054,1.39902 -8.23528,1.77208 -10.41718,1.85191c-1.36705,0.05001 -2.54036,-1.23765 -2.87814,-2.25974z" fill="#09158c" stroke="none" stroke-width="0"/><g><path d="M227.70294,176.06309c-0.54611,-1.65241 -2.26978,-6.86794 -2.97208,-8.99294c-0.18754,-0.56746 0.13918,-0.90982 0.82164,-0.93467c1.36278,-0.04962 3.68666,-0.21714 5.37601,-0.77545c2.83855,-0.9381 8.3611,-2.45547 12.77044,-4.31005c1.66312,-0.69951 3.43075,-1.76358 4.47992,-2.43349c0.58145,-0.37126 1.09882,-0.14767 1.34523,0.59789c0.75419,2.28207 2.34978,7.10999 2.87133,8.6881c0.32113,0.97166 0.13417,2.62834 -0.98169,3.38098c-1.9966,1.34673 -5.73733,3.5202 -11.07142,5.16736c-4.30703,1.33 -7.82899,1.68466 -9.90324,1.76054c-1.29961,0.04755 -2.41502,-1.17659 -2.73614,-2.14825z" fill="#95cadc" stroke="#000000" stroke-width="1.5"/><path d="M237.66025,165.58858c4.4629,-1.4828 7.20318,-2.94486 8.67564,-3.7063c0.88765,-0.45903 1.58467,0.15383 1.7582,0.6789c0.55125,1.668 1.47876,4.47445 1.79135,5.42028c0.13427,0.40628 -0.1373,0.71106 -0.69932,0.79919c-0.51095,0.08013 -4.16794,0.24821 -10.24591,2.19992c-5.54706,1.78122 -8.28046,3.79206 -8.76607,4.06088c-0.49014,0.27135 -0.86111,0.26623 -0.96331,-0.04299c-0.3028,-0.91622 -1.33247,-4.0318 -1.89662,-5.73882c-0.14886,-0.45042 0.2677,-1.05314 1.41206,-1.26965c1.74931,-0.33097 4.78199,-1.02215 8.93398,-2.40141z" data-paper-data="{&quot;index&quot;:null}" fill="#49646d" stroke="none" stroke-width="0"/></g><path d="M116.71526,180c0,-61.38087 55.19647,-111.13988 123.28475,-111.13988c68.08831,0 123.28475,49.75903 123.28475,111.13988c0,61.38087 -55.19647,111.13988 -123.28478,111.13988c-68.08831,0 -123.28475,-49.759 -123.28475,-111.13988z" data-paper-data="{&quot;index&quot;:null}" fill="none" stroke="none" stroke-width="0"/></g></g></svg>