<svg version="1.1" xmlns="http://www.w3.org/2000/svg" xmlns:xlink="http://www.w3.org/1999/xlink" width="154" height="158" viewBox="0,0,154,158"><defs><linearGradient x1="240" y1="155.22524" x2="240" y2="204.77477" gradientUnits="userSpaceOnUse" id="color-1"><stop offset="0" stop-color="#132ed2"/><stop offset="1" stop-color="#09158e"/></linearGradient></defs><g transform="translate(-167.5,-100.4)"><g data-paper-data="{&quot;isPaintingLayer&quot;:true}" fill-rule="nonzero" stroke-linecap="butt" stroke-linejoin="miter" stroke-miterlimit="10" stroke-dasharray="" stroke-dashoffset="0" style="mix-blend-mode: normal"><path d="M215.22523,194.88882c0,-9.89983 0,-24.43965 0,-30c0,-4.31732 3.75071,-9.66358 9.02477,-9.66358c10.05042,0 25.63278,0 31.33333,0c4.14806,0 9.19144,5.13211 9.19144,9.33025c0,5.67127 0,20.98952 0,31c0,5.37468 -5.04338,9.2193 -9.19144,9.2193c-5.57597,0 -20.60658,0 -30.66667,0c-5.62183,0 -9.69144,-4.16941 -9.69144,-9.88597z" fill="url(#color-1)" stroke="#000000" stroke-width="10"/><path d="M215.22523,194.88881c0,-9.89983 0,-24.43965 0,-30c0,-4.31732 3.75072,-9.66358 9.02478,-9.66358c10.05042,0 25.63279,0 31.33334,0c4.14805,0 9.19144,5.13211 9.19144,9.33025c0,5.67128 0,20.98952 0,31c0,5.37467 -5.04338,9.2193 -9.19144,9.2193c-5.57597,0 -20.60659,0 -30.66667,0c-5.62184,0 -9.69144,-4.16942 -9.69144,-9.88597z" fill="#6b2fbc" stroke="#ffffff" stroke-width="4"/><path d="M167.5,258.4v-158h154v158z" fill="none" stroke="none" stroke-width="0"/><path d="M194.5,225.4v-88h103v88z" fill="none" stroke="none" stroke-width="0"/></g></g></svg>