<svg version="1.1" xmlns="http://www.w3.org/2000/svg" xmlns:xlink="http://www.w3.org/1999/xlink" width="720" height="540" viewBox="0,0,720,540"><defs><linearGradient x1="189.27736" y1="-0.02074" x2="189.27736" y2="357.97929" gradientUnits="userSpaceOnUse" id="color-1"><stop offset="0" stop-color="#ababab"/><stop offset="1" stop-color="#858585"/></linearGradient><clipPath id="clip-1"><path d="M-120,450v-540h720v540z" fill="none" fill-rule="nonzero" stroke="none" stroke-width="1" stroke-linecap="butt"/></clipPath></defs><g transform="translate(120,90)"><g clip-path="url(#clip-1)" data-paper-data="{&quot;isPaintingLayer&quot;:true}" stroke-linejoin="miter" stroke-miterlimit="10" stroke-dasharray="" stroke-dashoffset="0" style="mix-blend-mode: normal"><path d="M-232.49249,-5.82583h960l-7.50751,545.82583h-960z" fill-opacity="0" fill="#000000" fill-rule="evenodd" stroke="none" stroke-width="1" stroke-linecap="square"/><path d="M-224.91769,27.97732h944.85034v140.59843h-944.85034z" fill-opacity="0" fill="#000000" fill-rule="evenodd" stroke="none" stroke-width="1" stroke-linecap="square"/><path d="M248.17931,48.2742v19.34375h4.6875c0.32292,0 0.55729,0.0625 0.70313,0.1875c0.14583,0.11458 0.21875,0.27604 0.21875,0.48438c0,0.19792 -0.07292,0.36458 -0.21875,0.5c-0.14583,0.125 -0.38021,0.1875 -0.70312,0.1875h-10.73437c-0.32292,0 -0.55729,-0.0625 -0.70312,-0.1875c-0.14583,-0.13542 -0.21875,-0.30208 -0.21875,-0.5c0,-0.20833 0.07292,-0.36979 0.21875,-0.48437c0.14583,-0.125 0.38021,-0.1875 0.70313,-0.1875h4.6875v-17.45312l-4.46875,1.40625c-0.20833,0.0625 -0.36458,0.09375 -0.46875,0.09375c-0.15625,0 -0.30208,-0.06771 -0.4375,-0.20312c-0.13542,-0.13542 -0.20312,-0.29687 -0.20312,-0.48437c0,-0.16667 0.05208,-0.31771 0.15625,-0.45312c0.08333,-0.08333 0.26042,-0.17708 0.53125,-0.28125z" fill="#000000" fill-rule="nonzero" stroke="none" stroke-width="1" stroke-linecap="square"/><path d="M241.63245,107.61794h10.48438v-0.54687c0,-0.32292 0.0625,-0.55208 0.1875,-0.6875c0.13542,-0.14583 0.30729,-0.21875 0.51563,-0.21875c0.19792,0 0.35938,0.07292 0.48438,0.21875c0.13542,0.13542 0.20313,0.36458 0.20313,0.6875v1.90625h-13.21875v-2.01562c2.78125,-2.5 5.48438,-5.04167 8.10938,-7.625c1.21875,-1.19792 2.05729,-2.07812 2.51563,-2.64062c0.45833,-0.5625 0.77083,-1.05729 0.9375,-1.48437c0.16667,-0.4375 0.25,-0.86979 0.25,-1.29687c0,-1.17708 -0.47396,-2.21354 -1.42187,-3.10937c-0.9375,-0.90625 -2.07292,-1.35937 -3.40625,-1.35937c-1.19792,0 -2.26042,0.34375 -3.1875,1.03125c-0.91667,0.67708 -1.51042,1.52083 -1.78125,2.53125c-0.0625,0.26042 -0.14062,0.43229 -0.23437,0.51563c-0.13542,0.10417 -0.29167,0.15625 -0.46875,0.15625c-0.17708,0 -0.32812,-0.0625 -0.45312,-0.1875c-0.125,-0.125 -0.1875,-0.27604 -0.1875,-0.45312c0,-0.52083 0.28125,-1.22396 0.84375,-2.10937c0.57292,-0.88542 1.35938,-1.58333 2.35938,-2.09375c1.01042,-0.51042 2.04167,-0.76562 3.09375,-0.76562c1.69792,0 3.16146,0.59375 4.39063,1.78125c1.22917,1.17708 1.84375,2.51042 1.84375,4c0,0.63542 -0.10417,1.21875 -0.3125,1.75c-0.20833,0.52083 -0.5625,1.09375 -1.0625,1.71875c-0.48958,0.625 -1.36979,1.5625 -2.64062,2.8125c-3.21875,3.17708 -5.83333,5.63542 -7.84375,7.375z" fill="#000000" fill-rule="nonzero" stroke="none" stroke-width="1" stroke-linecap="square"/><path d="M250.31995,137.86794c1.25,0.5625 2.20833,1.33333 2.875,2.3125c0.66667,0.97917 1,2 1,3.0625c0,1.64583 -0.66667,3.09375 -2,4.34375c-1.33333,1.25 -2.99479,1.875 -4.98437,1.875c-1.17708,0 -2.39583,-0.25 -3.65625,-0.75c-1.25,-0.5 -2.125,-1.01042 -2.625,-1.53125c-0.16667,-0.16667 -0.25,-0.34896 -0.25,-0.54687c0,-0.17708 0.0625,-0.32812 0.1875,-0.45312c0.125,-0.13542 0.27604,-0.20312 0.45313,-0.20312c0.16667,0 0.35938,0.08333 0.57813,0.25c1.6875,1.25 3.46875,1.875 5.34375,1.875c1.58333,0 2.90625,-0.49479 3.96875,-1.48437c1.07292,-1 1.60938,-2.10417 1.60938,-3.3125c0,-0.82292 -0.26562,-1.625 -0.79687,-2.40625c-0.52083,-0.78125 -1.27604,-1.39583 -2.26562,-1.84375c-0.98958,-0.44792 -1.98437,-0.67187 -2.98437,-0.67187c-0.33333,0 -0.57292,-0.0625 -0.71875,-0.1875c-0.13542,-0.125 -0.20312,-0.29167 -0.20312,-0.5c0,-0.19792 0.06771,-0.35937 0.20313,-0.48437c0.13542,-0.13542 0.33854,-0.20312 0.60938,-0.20312l1.17188,0.03125c1.22917,0 2.23958,-0.375 3.03125,-1.125c0.80208,-0.75 1.20313,-1.61979 1.20313,-2.60937c0,-1.02083 -0.41667,-1.92187 -1.25,-2.70312c-0.83333,-0.78125 -1.92187,-1.17187 -3.26562,-1.17187c-0.94792,0 -1.81771,0.16667 -2.60937,0.5c-0.79167,0.32292 -1.42708,0.76563 -1.90625,1.32813c-0.17708,0.21875 -0.3125,0.35417 -0.40625,0.40625c-0.08333,0.04167 -0.1875,0.0625 -0.3125,0.0625c-0.17708,0 -0.33333,-0.0625 -0.46875,-0.1875c-0.125,-0.125 -0.1875,-0.27604 -0.1875,-0.45312c0,-0.42708 0.46875,-0.97396 1.40625,-1.64062c1.3125,-0.91667 2.80729,-1.375 4.48438,-1.375c1.71875,0 3.13021,0.52083 4.23438,1.5625c1.11458,1.03125 1.67188,2.26042 1.67188,3.6875c0,0.91667 -0.26562,1.78125 -0.79687,2.59375c-0.53125,0.8125 -1.3125,1.46354 -2.34375,1.95313z" fill="#000000" fill-rule="nonzero" stroke="none" stroke-width="1" stroke-linecap="square"/><path d="M82.27736,357.97929v-358h214c0,0 0,116.13099 0,175.14063c0,60.29595 0,182.85938 0,182.85938z" fill="url(#color-1)" fill-rule="nonzero" stroke="#000000" stroke-width="3.5" stroke-linecap="butt"/></g></g></svg>