<svg version="1.1" xmlns="http://www.w3.org/2000/svg" xmlns:xlink="http://www.w3.org/1999/xlink" width="354.74999" height="91.40269" viewBox="0,0,354.74999,91.40269"><g transform="translate(77.24999,-123.85851)"><g data-paper-data="{&quot;isPaintingLayer&quot;:true}" fill-rule="nonzero" stroke-linejoin="miter" stroke-miterlimit="10" stroke-dasharray="" stroke-dashoffset="0" style="mix-blend-mode: normal"><text transform="translate(-76.99999,145.44445) scale(0.5,0.5)" font-size="40" xml:space="preserve" fill="#ffffff" fill-rule="nonzero" stroke="none" stroke-width="1" stroke-linecap="butt" stroke-linejoin="miter" stroke-miterlimit="10" stroke-dasharray="" stroke-dashoffset="0" font-family="Sans Serif" font-weight="normal" text-anchor="start" style="mix-blend-mode: normal"><tspan x="0" dy="0"> </tspan></text><path d="M210.81742,204.82785c0,-12.01784 0,-46.0465 0,-50.94544c0,-1.57362 1.66178,-2.90196 3.54684,-2.90196c6.17489,0 40.11775,0 51.26788,0c2.23182,0 3.55046,1.18889 3.55046,3.2244c0,6.34387 0,40.15015 0,51.26788c0,2.22971 -2.03698,3.54683 -4.51777,3.54683c-6.71661,0 -38.19001,0 -49.65568,0c-2.61703,0 -4.19171,-1.57351 -4.19171,-4.19171z" fill="#a3b4e0" stroke="#293b6b" stroke-width="3" stroke-linecap="butt"/><text transform="translate(231.83167,193.94117) scale(1.20834,1.20834)" font-size="40" xml:space="preserve" fill="#a3b4e0" fill-rule="nonzero" stroke="none" stroke-width="1" stroke-linecap="butt" stroke-linejoin="miter" stroke-miterlimit="10" stroke-dasharray="" stroke-dashoffset="0" font-family="Handwriting" font-weight="normal" text-anchor="start" style="mix-blend-mode: normal"><tspan x="0" dy="0">1</tspan></text><path d="M233.82237,170.77868v18.09393c0,2.1439 -0.72324,3.21584 -2.16973,3.21584c-0.49077,0 -0.98155,-0.15498 -1.47231,-0.46494c-0.49077,-0.33579 -0.73615,-1.18818 -0.73615,-2.55718v-14.25817c-2.76382,2.09224 -4.59774,3.13835 -5.50179,3.13835c-0.49077,0 -0.90406,-0.1679 -1.23984,-0.50368c-0.33579,-0.33579 -0.50368,-0.7749 -0.50368,-1.31733c0,-0.38745 0.11623,-0.71033 0.3487,-0.96862c0.2583,-0.28414 0.78782,-0.61992 1.58854,-1.00737c2.71216,-1.31733 4.61066,-2.82839 5.69552,-4.53317c0.43912,-0.69741 0.7749,-1.14943 1.00737,-1.35607c0.2583,-0.23247 0.607,-0.3487 1.04611,-0.3487c1.29151,0 1.93725,0.95571 1.93725,2.86714zM249.50969,167.91155c2.45386,0 4.44276,0.92988 5.96673,2.78965c1.5498,1.83394 2.32471,4.97229 2.32471,9.41504c0,4.4686 -0.81364,7.58111 -2.44094,9.33755c-1.60147,1.75645 -3.5258,2.63467 -5.77301,2.63467c-2.32471,0 -4.3007,-0.92988 -5.92799,-2.78965c-1.60147,-1.88559 -2.4022,-4.92062 -2.4022,-9.10508c0,-4.36527 0.71033,-7.50362 2.13098,-9.41504c1.44649,-1.91143 3.48705,-2.86714 6.12171,-2.86714zM249.50969,188.83387c1.34316,0 2.32471,-0.64575 2.94463,-1.93725c0.61992,-1.29151 0.92988,-3.65495 0.92988,-7.09034c0,-3.12543 -0.30996,-5.34681 -0.92988,-6.66415c-0.61992,-1.31733 -1.60147,-1.97599 -2.94463,-1.97599c-1.26567,0 -2.20847,0.64575 -2.82839,1.93725c-0.61992,1.26567 -0.92988,3.53871 -0.92988,6.81913c0,3.3579 0.30996,5.6826 0.92988,6.97411c0.61992,1.29151 1.56272,1.93725 2.82839,1.93725z" fill="#3e4f7b" stroke="none" stroke-width="1" stroke-linecap="square"/><path d="M201.19842,215.2612v-71.74627h76.30158v71.74628z" fill="none" stroke="none" stroke-width="none" stroke-linecap="butt"/></g></g></svg>