<svg version="1.1" xmlns="http://www.w3.org/2000/svg" xmlns:xlink="http://www.w3.org/1999/xlink" width="144.14414" height="60.93899" viewBox="0,0,144.14414,60.93899"><g transform="translate(-167.92793,-149.5305)"><g data-paper-data="{&quot;isPaintingLayer&quot;:true}" fill-rule="nonzero" stroke-linejoin="miter" stroke-miterlimit="10" stroke-dasharray="" stroke-dashoffset="0" style="mix-blend-mode: normal"><path d="M181.55694,173.52233v5.94423c0,1.32094 0.26128,2.22456 0.78386,2.71084c0.52983,0.47902 1.24836,0.71853 2.1556,0.71853c0.90724,0 1.61489,-0.24314 2.12294,-0.72942c0.50805,-0.49354 0.76208,-1.37537 0.76208,-2.64551v-5.99867c0,-0.60967 0.02178,-1.03426 0.06532,-1.27376c0.04354,-0.23951 0.18144,-0.45725 0.4137,-0.65321c0.23226,-0.20322 0.51168,-0.30483 0.83829,-0.30483c0.31209,0 0.59152,0.09072 0.83829,0.27217c0.24677,0.18145 0.39556,0.40282 0.44636,0.6641c0.0508,0.25403 0.07621,0.68587 0.07621,1.29554v5.79182c0,1.50239 -0.20322,2.63463 -0.60967,3.3967c-0.40645,0.76208 -1.00885,1.34271 -1.80722,1.7419c-0.79112,0.39192 -1.77456,0.58789 -2.95034,0.58789c-2.02496,0 -3.50195,-0.43185 -4.43096,-1.29554c-0.92175,-0.86369 -1.38263,-2.34068 -1.38263,-4.43096v-5.79182c0,-0.60967 0.02178,-1.03062 0.06532,-1.26288c0.04354,-0.23951 0.18144,-0.46088 0.4137,-0.6641c0.23951,-0.20322 0.52257,-0.30483 0.84918,-0.30483c0.3266,0 0.60603,0.09072 0.83828,0.27217c0.23951,0.18145 0.38467,0.40282 0.43547,0.6641c0.05081,0.25403 0.07621,0.68587 0.07621,1.29554zM195.01486,176.62507c0.87095,-1.10321 1.94512,-1.6548 3.22251,-1.6548c1.27014,0 2.27899,0.47902 3.02655,1.43706c0.74756,0.95078 1.12135,2.18827 1.12135,3.71242c0,1.43706 -0.36652,2.61648 -1.09957,3.53824c-0.73305,0.92175 -1.7419,1.38263 -3.02655,1.38263c-1.23385,0 -2.31528,-0.51531 -3.24429,-1.54594v3.2334c0,0.88547 -0.11249,1.43707 -0.33749,1.6548c-0.21774,0.21774 -0.51531,0.32661 -0.89272,0.32661c-0.44999,0 -0.76934,-0.14879 -0.95805,-0.44636c-0.1887,-0.29757 -0.28306,-0.83466 -0.28306,-1.61125v-9.76553c0,-0.50806 0.02177,-0.88184 0.06532,-1.12135c0.05081,-0.23951 0.18508,-0.43184 0.40282,-0.577c0.21774,-0.14516 0.4754,-0.21774 0.77297,-0.21774c0.82014,0 1.23021,0.46451 1.23021,1.39352zM199.88129,180.06533c0,-1.08868 -0.22862,-1.89432 -0.68587,-2.41689c-0.45725,-0.52983 -0.9907,-0.79475 -1.60037,-0.79475c-0.70402,0 -1.28828,0.26855 -1.75279,0.80563c-0.45725,0.52983 -0.68588,1.27376 -0.68588,2.23181c0,0.99434 0.22137,1.78545 0.6641,2.37334c0.44273,0.58789 1.04151,0.88183 1.79633,0.88183c0.66047,0 1.20119,-0.27217 1.62214,-0.81652c0.42821,-0.5516 0.64232,-1.30642 0.64232,-2.26447zM206.62299,176.62507c0.87095,-1.10321 1.94512,-1.6548 3.22251,-1.6548c1.27013,0 2.27899,0.47902 3.02655,1.43706c0.74757,0.95078 1.12135,2.18827 1.12135,3.71242c0,1.43706 -0.36652,2.61648 -1.09958,3.53824c-0.73305,0.92175 -1.74189,1.38263 -3.02654,1.38263c-1.23384,0 -2.31527,-0.51531 -3.24429,-1.54594v3.2334c0,0.88547 -0.1125,1.43707 -0.3375,1.6548c-0.21774,0.21774 -0.51531,0.32661 -0.89272,0.32661c-0.44999,0 -0.76934,-0.14879 -0.95804,-0.44636c-0.1887,-0.29757 -0.28306,-0.83466 -0.28306,-1.61125v-9.76553c0,-0.50806 0.02178,-0.88184 0.06532,-1.12135c0.0508,-0.23951 0.18508,-0.43184 0.40281,-0.577c0.21774,-0.14516 0.4754,-0.21774 0.77297,-0.21774c0.82014,0 1.23022,0.46451 1.23022,1.39352zM211.48942,180.06533c0,-1.08868 -0.22862,-1.89432 -0.68587,-2.41689c-0.45725,-0.52983 -0.9907,-0.79475 -1.60037,-0.79475c-0.70402,0 -1.28829,0.26855 -1.75279,0.80563c-0.45725,0.52983 -0.68587,1.27376 -0.68587,2.23181c0,0.99434 0.22136,1.78545 0.6641,2.37334c0.44273,0.58789 1.04151,0.88183 1.79633,0.88183c0.66047,0 1.20118,-0.27217 1.62214,-0.81652c0.42821,-0.5516 0.64232,-1.30642 0.64232,-2.26447zM222.92336,180.60968h-4.85555c0.02177,0.92175 0.27217,1.61852 0.75119,2.09028c0.47902,0.46451 1.05603,0.69676 1.73102,0.69676c0.8274,0 1.60763,-0.3629 2.34068,-1.08869c0.29757,-0.30483 0.51531,-0.49354 0.65321,-0.56611c0.14516,-0.07258 0.30484,-0.10887 0.47903,-0.10887c0.225,0 0.41733,0.07258 0.577,0.21774c0.15967,0.1379 0.23952,0.30847 0.23952,0.51168c0,0.55886 -0.38105,1.14675 -1.14312,1.76367c-0.76208,0.60967 -1.79271,0.9145 -3.09187,0.9145c-1.6548,0 -2.91043,-0.46813 -3.76686,-1.4044c-0.85644,-0.93627 -1.28465,-2.14472 -1.28465,-3.62533c0,-1.50239 0.42821,-2.71809 1.28465,-3.6471c0.85643,-0.92901 2.04673,-1.39352 3.57089,-1.39352c1.45158,0 2.57293,0.4391 3.36405,1.31731c0.79837,0.87821 1.19755,1.82899 1.19755,2.85236c0,0.45725 -0.13427,0.81652 -0.40282,1.0778c-0.26128,0.26128 -0.80926,0.39193 -1.64391,0.39193zM218.06781,179.20527h4.50716c-0.02903,-0.82014 -0.25766,-1.44433 -0.68587,-1.87254c-0.42096,-0.43547 -0.94353,-0.65321 -1.56771,-0.65321c-1.31369,0 -2.06488,0.84192 -2.25358,2.52576zM227.0361,182.99391v-6.35793c0,-1.11046 0.40644,-1.66569 1.21933,-1.66569c0.78385,0 1.18304,0.51531 1.19756,1.54593c0.51531,-1.03062 1.22659,-1.54593 2.13383,-1.54593c0.47902,0 0.97256,0.12702 1.48062,0.38104c0.51531,0.24677 0.77297,0.58789 0.77297,1.02336c0,0.30483 -0.10524,0.55523 -0.31572,0.75119c-0.20322,0.19597 -0.42459,0.29395 -0.6641,0.29395c-0.13064,0 -0.37015,-0.0508 -0.71853,-0.15241c-0.34838,-0.10887 -0.63869,-0.16331 -0.87095,-0.16331c-0.59515,0 -1.03788,0.3012 -1.3282,0.90361c-0.29031,0.59515 -0.43547,1.74916 -0.43547,3.46203v1.42618c0,0.63144 -0.0254,1.05966 -0.07621,1.28466c-0.05081,0.21774 -0.18508,0.41732 -0.40282,0.59877c-0.21774,0.17419 -0.46813,0.26129 -0.75119,0.26129c-0.2758,0 -0.52257,-0.07984 -0.7403,-0.23951c-0.21774,-0.15967 -0.35564,-0.34839 -0.4137,-0.56612c-0.05806,-0.225 -0.0871,-0.63869 -0.0871,-1.2411zM243.56974,173.59853v3.24429h5.13861c0.43547,0 0.74756,0.02178 0.93627,0.06532c0.18871,0.03629 0.35927,0.14515 0.51168,0.32661c0.15967,0.17419 0.23951,0.38467 0.23951,0.63144c0,0.21048 -0.09072,0.43911 -0.27217,0.68588c-0.18145,0.24677 -0.65321,0.37015 -1.41529,0.37015h-5.13861v3.81041h5.81359c0.51531,0 0.86369,0.01815 1.04514,0.05444c0.18871,0.02903 0.35201,0.13426 0.48991,0.31571c0.14516,0.18145 0.21773,0.39919 0.21773,0.65322c0,0.24677 -0.0762,0.46451 -0.22862,0.65321c-0.14516,0.18145 -0.31935,0.29395 -0.52257,0.33749c-0.20322,0.04354 -0.53709,0.06532 -1.0016,0.06532h-6.23818c-0.96531,0 -1.52416,-0.06895 -1.67657,-0.20685c-0.15242,-0.1379 -0.28669,-0.29032 -0.40282,-0.45725c-0.11613,-0.17419 -0.17419,-0.70401 -0.17419,-1.58948v-8.78571c0,-0.96531 0.06895,-1.5169 0.20685,-1.6548c0.1379,-0.1379 0.29032,-0.27218 0.45725,-0.40282c0.17419,-0.13064 0.70401,-0.19596 1.58948,-0.19596h6.02044c0.47902,0 0.81288,0.01815 1.00159,0.05444c0.18871,0.03629 0.35927,0.14515 0.51169,0.32661c0.15241,0.17419 0.22862,0.39193 0.22862,0.65321c0,0.25403 -0.07621,0.47539 -0.22862,0.6641c-0.14516,0.18145 -0.31572,0.29031 -0.51169,0.32661c-0.19597,0.03629 -0.52982,0.05444 -1.00159,0.05444zM261.82582,178.92222v4.07169c0,0.52257 -0.02177,0.90361 -0.06532,1.14312c-0.04354,0.23951 -0.1742,0.44999 -0.39193,0.63144c-0.21774,0.18145 -0.47539,0.27217 -0.77296,0.27217c-0.26129,0 -0.50806,-0.07984 -0.74031,-0.23951c-0.23226,-0.15967 -0.37741,-0.36652 -0.43547,-0.62055c-0.05081,-0.26128 -0.07621,-0.65684 -0.07621,-1.18667v-3.5709c0,-0.98708 -0.14879,-1.65118 -0.44636,-1.9923c-0.29032,-0.34838 -0.69676,-0.52257 -1.21933,-0.52257c-0.47177,0 -0.88546,0.1379 -1.2411,0.4137c-0.35564,0.26854 -0.60604,0.60603 -0.7512,1.01248c-0.14516,0.40644 -0.21774,1.10684 -0.21774,2.10117v2.55841c0,0.51531 -0.02177,0.89272 -0.06532,1.13223c-0.03629,0.23226 -0.16694,0.44273 -0.39193,0.63144c-0.225,0.1887 -0.48265,0.28306 -0.77296,0.28306c-0.26855,0 -0.51894,-0.08346 -0.7512,-0.25039c-0.23226,-0.16693 -0.37378,-0.37378 -0.42459,-0.62055c-0.04354,-0.24677 -0.06532,-0.6387 -0.06532,-1.17578v-6.10754c0,-0.5516 0.0254,-0.93627 0.07621,-1.15401c0.0508,-0.21774 0.18144,-0.39918 0.39193,-0.54434c0.21048,-0.14516 0.44637,-0.21774 0.70765,-0.21774c0.23951,0 0.48991,0.09798 0.75119,0.29395c0.26128,0.1887 0.39193,0.64596 0.39193,1.37175c0.82741,-1.11046 1.89432,-1.66569 3.20075,-1.66569c0.49354,0 0.97982,0.09435 1.45884,0.28305c0.48628,0.1887 0.88184,0.49354 1.18667,0.9145c0.30483,0.42096 0.48991,0.85644 0.55523,1.30643c0.07258,0.44999 0.10887,0.93264 0.10887,1.44795zM271.09524,176.65774v-0.33749c0,-0.44273 0.10887,-0.7766 0.32661,-1.00159c0.21773,-0.23226 0.49717,-0.34838 0.83829,-0.34838c0.37741,0 0.6641,0.13426 0.86006,0.40281c0.20322,0.26128 0.30483,0.82741 0.30483,1.69836v6.64099c0,1.97415 -0.41733,3.29873 -1.25199,3.97371c-0.8274,0.68224 -2.02496,1.02336 -3.59267,1.02336c-1.40804,0 -2.51124,-0.26128 -3.30961,-0.78385c-0.79111,-0.51531 -1.18667,-1.06328 -1.18667,-1.64391c0,-0.31209 0.10524,-0.56612 0.31572,-0.76208c0.21048,-0.1887 0.45725,-0.28306 0.74031,-0.28306c0.26129,0 0.46814,0.06169 0.62055,0.18507c0.15242,0.12339 0.4137,0.41734 0.78386,0.88184c0.37016,0.47177 0.99433,0.70764 1.87254,0.70764c0.47902,0 0.92539,-0.07621 1.33909,-0.22862c0.42096,-0.15241 0.72942,-0.42096 0.92538,-0.80563c0.19597,-0.38467 0.28669,-1.31731 0.27217,-2.79792c-0.75482,1.08868 -1.78907,1.63303 -3.10276,1.63303c-1.26288,0 -2.26084,-0.47176 -2.99389,-1.41529c-0.73305,-0.95078 -1.09957,-2.16286 -1.09957,-3.63622c0,-1.4661 0.37741,-2.631 1.13223,-3.49469c0.75483,-0.86369 1.73464,-1.29554 2.93946,-1.29554c1.3282,0 2.41689,0.56249 3.26606,1.68747zM266.26147,179.95646c0,0.96531 0.20686,1.70198 0.62055,2.21004c0.42096,0.5008 0.99796,0.75119 1.73101,0.75119c0.63869,0 1.18667,-0.24314 1.64392,-0.72942c0.4645,-0.49354 0.69676,-1.22659 0.69676,-2.19915c0,-0.96531 -0.21411,-1.72738 -0.64232,-2.28624c-0.42096,-0.56611 -0.99797,-0.84918 -1.73102,-0.84918c-0.70402,0 -1.2665,0.26492 -1.68746,0.79475c-0.42096,0.52257 -0.63144,1.29191 -0.63144,2.30802zM277.16195,171.39939c0.3266,0 0.60604,0.12338 0.83829,0.37015c0.23951,0.23951 0.35926,0.51894 0.35926,0.83829c0,0.33387 -0.11975,0.62056 -0.35926,0.86007c-0.23226,0.23226 -0.51169,0.34838 -0.83829,0.34838c-0.3266,0 -0.60967,-0.11612 -0.84918,-0.34838c-0.23951,-0.23951 -0.35926,-0.5262 -0.35926,-0.86007c0,-0.32661 0.11975,-0.60967 0.35926,-0.84918c0.23951,-0.23951 0.52258,-0.35926 0.84918,-0.35926zM278.39217,176.99523v5.99867c0,0.58789 -0.02903,0.9907 -0.0871,1.20844c-0.0508,0.21774 -0.1887,0.4137 -0.4137,0.5879c-0.225,0.16693 -0.46814,0.25039 -0.72942,0.25039c-0.26129,0 -0.50806,-0.08346 -0.74031,-0.25039c-0.23226,-0.16693 -0.37741,-0.3629 -0.43547,-0.5879c-0.0508,-0.225 -0.0762,-0.6278 -0.0762,-1.20844v-5.9769c0,-0.5516 0.02177,-0.9399 0.06532,-1.1649c0.04354,-0.23226 0.17419,-0.43547 0.39193,-0.60967c0.225,-0.18145 0.48266,-0.27217 0.77297,-0.27217c0.29758,0 0.5516,0.07984 0.76208,0.23951c0.21048,0.15967 0.34475,0.3629 0.40281,0.60967c0.05807,0.24677 0.0871,0.6387 0.0871,1.17578zM289.68533,178.92222v4.07169c0,0.52257 -0.02177,0.90361 -0.06532,1.14312c-0.04354,0.23951 -0.1742,0.44999 -0.39193,0.63144c-0.21774,0.18145 -0.47539,0.27217 -0.77296,0.27217c-0.26129,0 -0.50806,-0.07984 -0.74031,-0.23951c-0.23226,-0.15967 -0.37741,-0.36652 -0.43547,-0.62055c-0.05081,-0.26128 -0.07621,-0.65684 -0.07621,-1.18667v-3.5709c0,-0.98708 -0.14879,-1.65118 -0.44636,-1.9923c-0.29032,-0.34838 -0.69676,-0.52257 -1.21933,-0.52257c-0.47177,0 -0.88546,0.1379 -1.2411,0.4137c-0.35564,0.26854 -0.60604,0.60603 -0.75119,1.01248c-0.14516,0.40644 -0.21774,1.10684 -0.21774,2.10117v2.55841c0,0.51531 -0.02177,0.89272 -0.06532,1.13223c-0.03629,0.23226 -0.16694,0.44273 -0.39193,0.63144c-0.225,0.1887 -0.48265,0.28306 -0.77296,0.28306c-0.26855,0 -0.51894,-0.08346 -0.7512,-0.25039c-0.23226,-0.16693 -0.37378,-0.37378 -0.42459,-0.62055c-0.04354,-0.24677 -0.06532,-0.6387 -0.06532,-1.17578v-6.10754c0,-0.5516 0.0254,-0.93627 0.07621,-1.15401c0.0508,-0.21774 0.18144,-0.39918 0.39192,-0.54434c0.21048,-0.14516 0.44637,-0.21774 0.70765,-0.21774c0.23951,0 0.48991,0.09798 0.75119,0.29395c0.26129,0.1887 0.39193,0.64596 0.39193,1.37175c0.8274,-1.11046 1.89432,-1.66569 3.20074,-1.66569c0.49354,0 0.97982,0.09435 1.45884,0.28305c0.48628,0.1887 0.88184,0.49354 1.18667,0.9145c0.30483,0.42096 0.48991,0.85644 0.55523,1.30643c0.07258,0.44999 0.10887,0.93264 0.10887,1.44795zM299.07451,180.60968h-4.85555c0.02178,0.92175 0.27217,1.61852 0.75119,2.09028c0.47902,0.46451 1.05603,0.69676 1.73102,0.69676c0.8274,0 1.60763,-0.3629 2.34068,-1.08869c0.29757,-0.30483 0.51531,-0.49354 0.65321,-0.56611c0.14516,-0.07258 0.30484,-0.10887 0.47902,-0.10887c0.225,0 0.41733,0.07258 0.577,0.21774c0.15967,0.1379 0.23952,0.30847 0.23952,0.51168c0,0.55886 -0.38105,1.14675 -1.14313,1.76367c-0.76208,0.60967 -1.7927,0.9145 -3.09187,0.9145c-1.65481,0 -2.91043,-0.46813 -3.76686,-1.4044c-0.85643,-0.93627 -1.28465,-2.14472 -1.28465,-3.62533c0,-1.50239 0.42822,-2.71809 1.28465,-3.6471c0.85644,-0.92901 2.04674,-1.39352 3.5709,-1.39352c1.45159,0 2.57293,0.4391 3.36404,1.31731c0.79837,0.87821 1.19756,1.82899 1.19756,2.85236c0,0.45725 -0.13427,0.81652 -0.40282,1.0778c-0.26128,0.26128 -0.80926,0.39193 -1.64391,0.39193zM294.21896,179.20527h4.50716c-0.02903,-0.82014 -0.25766,-1.44433 -0.68588,-1.87254c-0.42096,-0.43547 -0.94353,-0.65321 -1.56771,-0.65321c-1.31369,0 -2.06488,0.84192 -2.25358,2.52576z" fill="#ffffff" stroke="#000000" stroke-width="3.5" stroke-linecap="square"/><path d="M181.55693,173.52233v5.94423c0,1.32094 0.26128,2.22455 0.78385,2.71083c0.52983,0.47902 1.24836,0.71853 2.1556,0.71853c0.90724,0 1.61489,-0.24314 2.12294,-0.72942c0.50805,-0.49354 0.76208,-1.37538 0.76208,-2.64551v-5.99867c0,-0.60966 0.02177,-1.03425 0.06532,-1.27376c0.04355,-0.23951 0.18145,-0.45725 0.4137,-0.65321c0.23225,-0.20322 0.51168,-0.30483 0.83829,-0.30483c0.31209,0 0.59152,0.09072 0.83829,0.27217c0.24677,0.18145 0.39556,0.40281 0.44636,0.6641c0.05081,0.25403 0.07621,0.68587 0.07621,1.29554v5.79182c0,1.50239 -0.20322,2.63462 -0.60966,3.3967c-0.40644,0.76208 -1.00885,1.34271 -1.80722,1.7419c-0.79111,0.39193 -1.77456,0.58789 -2.95034,0.58789c-2.02496,0 -3.50194,-0.43185 -4.43096,-1.29554c-0.92176,-0.86369 -1.38263,-2.34068 -1.38263,-4.43096v-5.79182c0,-0.60966 0.02177,-1.03062 0.06532,-1.26288c0.04355,-0.23951 0.18145,-0.46088 0.4137,-0.6641c0.23951,-0.20322 0.52257,-0.30483 0.84918,-0.30483c0.32661,0 0.60604,0.09072 0.83829,0.27217c0.23951,0.18145 0.38467,0.40281 0.43547,0.6641c0.05081,0.25403 0.07621,0.68587 0.07621,1.29554zM195.01485,176.62509c0.87095,-1.1032 1.94512,-1.6548 3.22251,-1.6548c1.27014,0 2.27899,0.47902 3.02655,1.43707c0.74757,0.95079 1.12135,2.18826 1.12135,3.71242c0,1.43707 -0.36652,2.61648 -1.09957,3.53823c-0.73305,0.92176 -1.7419,1.38263 -3.02655,1.38263c-1.23385,0 -2.31528,-0.51531 -3.24429,-1.54594v3.2334c0,0.88547 -0.1125,1.43707 -0.33749,1.6548c-0.21774,0.21774 -0.51531,0.32661 -0.89272,0.32661c-0.44999,0 -0.76934,-0.14879 -0.95804,-0.44636c-0.18871,-0.29757 -0.28306,-0.83466 -0.28306,-1.61126v-9.76553c0,-0.50805 0.02177,-0.88184 0.06532,-1.12135c0.05081,-0.23951 0.18508,-0.43185 0.40281,-0.577c0.21774,-0.14516 0.47539,-0.21774 0.77297,-0.21774c0.82014,0 1.23022,0.46451 1.23022,1.39352zM199.88128,180.06533c0,-1.08869 -0.22862,-1.89432 -0.68587,-2.41689c-0.45725,-0.52983 -0.99071,-0.79474 -1.60037,-0.79474c-0.70402,0 -1.28828,0.26854 -1.75279,0.80563c-0.45725,0.52983 -0.68587,1.27376 -0.68587,2.23181c0,0.99433 0.22137,1.78545 0.6641,2.37334c0.44273,0.58789 1.04151,0.88184 1.79633,0.88184c0.66047,0 1.20119,-0.27217 1.62214,-0.81652c0.42822,-0.5516 0.64233,-1.30642 0.64233,-2.26447zM206.62298,176.62509c0.87095,-1.1032 1.94512,-1.6548 3.22251,-1.6548c1.27013,0 2.27898,0.47902 3.02655,1.43707c0.74757,0.95079 1.12135,2.18826 1.12135,3.71242c0,1.43707 -0.36652,2.61648 -1.09957,3.53823c-0.73305,0.92176 -1.7419,1.38263 -3.02655,1.38263c-1.23385,0 -2.31528,-0.51531 -3.24429,-1.54594v3.2334c0,0.88547 -0.1125,1.43707 -0.33749,1.6548c-0.21774,0.21774 -0.51531,0.32661 -0.89272,0.32661c-0.44999,0 -0.76934,-0.14879 -0.95804,-0.44636c-0.18871,-0.29757 -0.28306,-0.83466 -0.28306,-1.61126v-9.76553c0,-0.50805 0.02177,-0.88184 0.06532,-1.12135c0.05081,-0.23951 0.18508,-0.43185 0.40281,-0.577c0.21774,-0.14516 0.47539,-0.21774 0.77297,-0.21774c0.82014,0 1.23022,0.46451 1.23022,1.39352zM211.48941,180.06533c0,-1.08869 -0.22862,-1.89432 -0.68587,-2.41689c-0.45725,-0.52983 -0.99071,-0.79474 -1.60037,-0.79474c-0.70402,0 -1.28828,0.26854 -1.75279,0.80563c-0.45725,0.52983 -0.68587,1.27376 -0.68587,2.23181c0,0.99433 0.22137,1.78545 0.6641,2.37334c0.44273,0.58789 1.04151,0.88184 1.79633,0.88184c0.66047,0 1.20119,-0.27217 1.62214,-0.81652c0.42822,-0.5516 0.64233,-1.30642 0.64233,-2.26447zM222.92335,180.60968h-4.85555c0.02177,0.92176 0.27217,1.61852 0.75119,2.09028c0.47902,0.46451 1.05603,0.69676 1.73101,0.69676c0.8274,0 1.60763,-0.3629 2.34068,-1.08869c0.29757,-0.30483 0.51531,-0.49354 0.65321,-0.56612c0.14516,-0.07258 0.30483,-0.10887 0.47902,-0.10887c0.225,0 0.41733,0.07258 0.577,0.21774c0.15967,0.1379 0.23951,0.30846 0.23951,0.51168c0,0.55886 -0.38104,1.14675 -1.14312,1.76367c-0.76208,0.60966 -1.79271,0.9145 -3.09187,0.9145c-1.6548,0 -2.91042,-0.46814 -3.76686,-1.40441c-0.85643,-0.93627 -1.28465,-2.14471 -1.28465,-3.62533c0,-1.50239 0.42822,-2.71809 1.28465,-3.6471c0.85643,-0.92901 2.04673,-1.39352 3.57089,-1.39352c1.45158,0 2.57293,0.4391 3.36404,1.31731c0.79837,0.87821 1.19756,1.82899 1.19756,2.85236c0,0.45725 -0.13427,0.81652 -0.40281,1.0778c-0.26128,0.26128 -0.80926,0.39193 -1.64392,0.39193zM218.0678,179.20528h4.50717c-0.02903,-0.82014 -0.25766,-1.44433 -0.68587,-1.87254c-0.42096,-0.43547 -0.94353,-0.65321 -1.56771,-0.65321c-1.31368,0 -2.06488,0.84192 -2.25358,2.52575zM227.03609,182.99391v-6.35793c0,-1.11046 0.40644,-1.66569 1.21933,-1.66569c0.78385,0 1.18304,0.51531 1.19756,1.54594c0.51531,-1.03062 1.22659,-1.54594 2.13383,-1.54594c0.47902,0 0.97256,0.12701 1.48061,0.38104c0.51531,0.24677 0.77297,0.58789 0.77297,1.02337c0,0.30483 -0.10524,0.55523 -0.31572,0.75119c-0.20322,0.19596 -0.42459,0.29395 -0.6641,0.29395c-0.13064,0 -0.37015,-0.05081 -0.71853,-0.15242c-0.34838,-0.10887 -0.6387,-0.1633 -0.87095,-0.1633c-0.59515,0 -1.03788,0.3012 -1.3282,0.90361c-0.29032,0.59515 -0.43547,1.74916 -0.43547,3.46203v1.42618c0,0.63144 -0.0254,1.05966 -0.07621,1.28465c-0.05081,0.21774 -0.18508,0.41733 -0.40281,0.59878c-0.21774,0.17419 -0.46814,0.26128 -0.75119,0.26128c-0.2758,0 -0.52257,-0.07984 -0.74031,-0.23951c-0.21774,-0.15967 -0.35564,-0.34838 -0.4137,-0.56612c-0.05806,-0.225 -0.08709,-0.6387 -0.08709,-1.2411zM243.56973,173.59854v3.24429h5.1386c0.43547,0 0.74757,0.02177 0.93627,0.06532c0.18871,0.03629 0.35927,0.14516 0.51168,0.32661c0.15967,0.17419 0.23951,0.38467 0.23951,0.63144c0,0.21048 -0.09072,0.4391 -0.27217,0.68587c-0.18145,0.24677 -0.65321,0.37015 -1.41529,0.37015h-5.1386v3.81041h5.81359c0.51531,0 0.86369,0.01814 1.04514,0.05443c0.18871,0.02903 0.35201,0.13427 0.48991,0.31572c0.14516,0.18145 0.21774,0.39919 0.21774,0.65321c0,0.24677 -0.07621,0.46451 -0.22862,0.65321c-0.14516,0.18145 -0.31935,0.29395 -0.52257,0.33749c-0.20322,0.04355 -0.53709,0.06532 -1.00159,0.06532h-6.23818c-0.9653,0 -1.52416,-0.06895 -1.67658,-0.20685c-0.15242,-0.1379 -0.28669,-0.29032 -0.40281,-0.45725c-0.11613,-0.17419 -0.17419,-0.70402 -0.17419,-1.58948v-8.78571c0,-0.9653 0.06895,-1.5169 0.20685,-1.6548c0.1379,-0.1379 0.29032,-0.27217 0.45725,-0.40281c0.17419,-0.13064 0.70402,-0.19596 1.58948,-0.19596h6.02044c0.47902,0 0.81289,0.01814 1.00159,0.05443c0.18871,0.03629 0.35927,0.14516 0.51168,0.32661c0.15242,0.17419 0.22862,0.39193 0.22862,0.65321c0,0.25403 -0.07621,0.47539 -0.22862,0.6641c-0.14516,0.18145 -0.31572,0.29032 -0.51168,0.32661c-0.19596,0.03629 -0.52983,0.05443 -1.00159,0.05443zM261.82582,178.92222v4.07169c0,0.52257 -0.02177,0.90361 -0.06532,1.14312c-0.04355,0.23951 -0.17419,0.44999 -0.39193,0.63144c-0.21774,0.18145 -0.47539,0.27217 -0.77297,0.27217c-0.26128,0 -0.50805,-0.07984 -0.74031,-0.23951c-0.23225,-0.15967 -0.37741,-0.36652 -0.43547,-0.62055c-0.05081,-0.26128 -0.07621,-0.65684 -0.07621,-1.18667v-3.57089c0,-0.98708 -0.14879,-1.65118 -0.44636,-1.9923c-0.29032,-0.34838 -0.69676,-0.52257 -1.21933,-0.52257c-0.47176,0 -0.88547,0.1379 -1.2411,0.4137c-0.35564,0.26854 -0.60604,0.60604 -0.7512,1.01248c-0.14516,0.40644 -0.21774,1.10683 -0.21774,2.10117v2.55842c0,0.51531 -0.02177,0.89272 -0.06532,1.13223c-0.03629,0.23225 -0.16693,0.44273 -0.39193,0.63144c-0.225,0.18871 -0.48265,0.28306 -0.77297,0.28306c-0.26854,0 -0.51894,-0.08347 -0.75119,-0.2504c-0.23225,-0.16693 -0.37378,-0.37378 -0.42459,-0.62055c-0.04355,-0.24677 -0.06532,-0.6387 -0.06532,-1.17578v-6.10754c0,-0.5516 0.0254,-0.93627 0.07621,-1.15401c0.05081,-0.21774 0.18145,-0.39919 0.39193,-0.54434c0.21048,-0.14516 0.44636,-0.21774 0.70765,-0.21774c0.23951,0 0.48991,0.09798 0.75119,0.29395c0.26128,0.18871 0.39193,0.64595 0.39193,1.37175c0.82741,-1.11046 1.89432,-1.66569 3.20075,-1.66569c0.49354,0 0.97982,0.09435 1.45884,0.28306c0.48628,0.18871 0.88184,0.49354 1.18667,0.9145c0.30483,0.42096 0.48991,0.85643 0.55523,1.30642c0.07258,0.44999 0.10887,0.93264 0.10887,1.44795zM271.09524,176.65774v-0.33749c0,-0.44273 0.10887,-0.7766 0.32661,-1.00159c0.21774,-0.23225 0.49717,-0.34838 0.83829,-0.34838c0.37741,0 0.6641,0.13427 0.86006,0.40281c0.20322,0.26128 0.30483,0.8274 0.30483,1.69835v6.64099c0,1.97415 -0.41733,3.29872 -1.25199,3.97371c-0.8274,0.68224 -2.02496,1.02337 -3.59267,1.02337c-1.40804,0 -2.51124,-0.26128 -3.30961,-0.78385c-0.79111,-0.51531 -1.18667,-1.06328 -1.18667,-1.64392c0,-0.31209 0.10524,-0.56612 0.31572,-0.76208c0.21048,-0.18871 0.45725,-0.28306 0.74031,-0.28306c0.26128,0 0.46814,0.06169 0.62055,0.18508c0.15242,0.12338 0.4137,0.41733 0.78385,0.88184c0.37015,0.47176 0.99433,0.70765 1.87254,0.70765c0.47902,0 0.92538,-0.07621 1.33909,-0.22862c0.42096,-0.15242 0.72942,-0.42096 0.92538,-0.80563c0.19596,-0.38467 0.28669,-1.31731 0.27217,-2.79793c-0.75482,1.08869 -1.78908,1.63303 -3.10276,1.63303c-1.26288,0 -2.26084,-0.47176 -2.99389,-1.41529c-0.73305,-0.95079 -1.09957,-2.16286 -1.09957,-3.63622c0,-1.4661 0.37741,-2.63099 1.13223,-3.49469c0.75482,-0.86369 1.73464,-1.29554 2.93946,-1.29554c1.3282,0 2.41689,0.56249 3.26606,1.68747zM266.26147,179.95646c0,0.9653 0.20685,1.70198 0.62055,2.21004c0.42096,0.5008 0.99796,0.75119 1.73101,0.75119c0.6387,0 1.18667,-0.24314 1.64392,-0.72942c0.46451,-0.49354 0.69676,-1.22659 0.69676,-2.19915c0,-0.9653 -0.21411,-1.72738 -0.64233,-2.28624c-0.42096,-0.56612 -0.99796,-0.84918 -1.73101,-0.84918c-0.70402,0 -1.26651,0.26491 -1.68747,0.79474c-0.42096,0.52257 -0.63144,1.29191 -0.63144,2.30802zM277.16195,171.39939c0.32661,0 0.60604,0.12338 0.83829,0.37015c0.23951,0.23951 0.35927,0.51894 0.35927,0.83829c0,0.33386 -0.11976,0.62055 -0.35927,0.86006c-0.23225,0.23225 -0.51168,0.34838 -0.83829,0.34838c-0.32661,0 -0.60966,-0.11613 -0.84918,-0.34838c-0.23951,-0.23951 -0.35927,-0.5262 -0.35927,-0.86006c0,-0.32661 0.11976,-0.60966 0.35927,-0.84918c0.23951,-0.23951 0.52257,-0.35927 0.84918,-0.35927zM278.39216,176.99523v5.99867c0,0.58789 -0.02903,0.99071 -0.08709,1.20844c-0.05081,0.21774 -0.18871,0.4137 -0.4137,0.58789c-0.225,0.16693 -0.46814,0.2504 -0.72942,0.2504c-0.26128,0 -0.50805,-0.08347 -0.74031,-0.2504c-0.23225,-0.16693 -0.37741,-0.3629 -0.43547,-0.58789c-0.05081,-0.225 -0.07621,-0.62781 -0.07621,-1.20844v-5.97689c0,-0.5516 0.02177,-0.9399 0.06532,-1.1649c0.04355,-0.23225 0.17419,-0.43547 0.39193,-0.60966c0.225,-0.18145 0.48265,-0.27217 0.77297,-0.27217c0.29757,0 0.5516,0.07984 0.76208,0.23951c0.21048,0.15967 0.34475,0.3629 0.40281,0.60966c0.05806,0.24677 0.08709,0.6387 0.08709,1.17578zM289.68533,178.92222v4.07169c0,0.52257 -0.02177,0.90361 -0.06532,1.14312c-0.04355,0.23951 -0.17419,0.44999 -0.39193,0.63144c-0.21774,0.18145 -0.47539,0.27217 -0.77297,0.27217c-0.26128,0 -0.50805,-0.07984 -0.74031,-0.23951c-0.23225,-0.15967 -0.37741,-0.36652 -0.43547,-0.62055c-0.05081,-0.26128 -0.07621,-0.65684 -0.07621,-1.18667v-3.57089c0,-0.98708 -0.14879,-1.65118 -0.44636,-1.9923c-0.29032,-0.34838 -0.69676,-0.52257 -1.21933,-0.52257c-0.47176,0 -0.88547,0.1379 -1.2411,0.4137c-0.35564,0.26854 -0.60604,0.60604 -0.75119,1.01248c-0.14516,0.40644 -0.21774,1.10683 -0.21774,2.10117v2.55842c0,0.51531 -0.02177,0.89272 -0.06532,1.13223c-0.03629,0.23225 -0.16693,0.44273 -0.39193,0.63144c-0.225,0.18871 -0.48265,0.28306 -0.77297,0.28306c-0.26854,0 -0.51894,-0.08347 -0.75119,-0.2504c-0.23225,-0.16693 -0.37378,-0.37378 -0.42459,-0.62055c-0.04355,-0.24677 -0.06532,-0.6387 -0.06532,-1.17578v-6.10754c0,-0.5516 0.0254,-0.93627 0.07621,-1.15401c0.05081,-0.21774 0.18145,-0.39919 0.39193,-0.54434c0.21048,-0.14516 0.44636,-0.21774 0.70765,-0.21774c0.23951,0 0.48991,0.09798 0.75119,0.29395c0.26128,0.18871 0.39193,0.64595 0.39193,1.37175c0.8274,-1.11046 1.89432,-1.66569 3.20074,-1.66569c0.49354,0 0.97982,0.09435 1.45884,0.28306c0.48628,0.18871 0.88184,0.49354 1.18667,0.9145c0.30483,0.42096 0.48991,0.85643 0.55523,1.30642c0.07258,0.44999 0.10887,0.93264 0.10887,1.44795zM299.0745,180.60968h-4.85555c0.02177,0.92176 0.27217,1.61852 0.75119,2.09028c0.47902,0.46451 1.05603,0.69676 1.73101,0.69676c0.8274,0 1.60763,-0.3629 2.34068,-1.08869c0.29757,-0.30483 0.51531,-0.49354 0.65321,-0.56612c0.14516,-0.07258 0.30483,-0.10887 0.47902,-0.10887c0.225,0 0.41733,0.07258 0.577,0.21774c0.15967,0.1379 0.23951,0.30846 0.23951,0.51168c0,0.55886 -0.38104,1.14675 -1.14312,1.76367c-0.76208,0.60966 -1.79271,0.9145 -3.09187,0.9145c-1.6548,0 -2.91042,-0.46814 -3.76686,-1.40441c-0.85643,-0.93627 -1.28465,-2.14471 -1.28465,-3.62533c0,-1.50239 0.42822,-2.71809 1.28465,-3.6471c0.85643,-0.92901 2.04673,-1.39352 3.57089,-1.39352c1.45158,0 2.57293,0.4391 3.36404,1.31731c0.79837,0.87821 1.19756,1.82899 1.19756,2.85236c0,0.45725 -0.13427,0.81652 -0.40281,1.0778c-0.26128,0.26128 -0.80926,0.39193 -1.64392,0.39193zM294.21896,179.20528h4.50717c-0.02903,-0.82014 -0.25766,-1.44433 -0.68587,-1.87254c-0.42096,-0.43547 -0.94353,-0.65321 -1.56771,-0.65321c-1.31368,0 -2.06488,0.84192 -2.25358,2.52575z" fill="#ffffff" stroke="none" stroke-width="1" stroke-linecap="square"/><path d="M167.92793,210.4695v-60.93899h144.14414v60.93899z" fill="none" stroke="none" stroke-width="none" stroke-linecap="butt"/></g></g></svg>