<svg version="1.1" xmlns="http://www.w3.org/2000/svg" xmlns:xlink="http://www.w3.org/1999/xlink" width="304.3003" height="304.30025" viewBox="0,0,304.3003,304.30025"><defs><radialGradient cx="239.99999" cy="180.00003" r="119.37689" gradientUnits="userSpaceOnUse" id="color-1"><stop offset="0" stop-color="#000000"/><stop offset="1" stop-color="#000000" stop-opacity="0"/></radialGradient><linearGradient x1="240.55712" y1="188.35888" x2="240.55712" y2="261.62381" gradientUnits="userSpaceOnUse" id="color-2"><stop offset="0" stop-color="#c500e4"/><stop offset="1" stop-color="#0022ff"/></linearGradient><linearGradient x1="280.69026" y1="108.0566" x2="280.69026" y2="135.5609" gradientUnits="userSpaceOnUse" id="color-3"><stop offset="0" stop-color="#ffb773"/><stop offset="1" stop-color="#ffab94"/></linearGradient><linearGradient x1="185.3154" y1="181.25311" x2="253.97563" y2="181.25311" gradientUnits="userSpaceOnUse" id="color-4"><stop offset="0" stop-color="#6b66ff"/><stop offset="1" stop-color="#fc5eff"/></linearGradient><linearGradient x1="186.03231" y1="146.91734" x2="297.61619" y2="146.91734" gradientUnits="userSpaceOnUse" id="color-5"><stop offset="0" stop-color="#c2bfff"/><stop offset="1" stop-color="#ffbfc8"/></linearGradient><linearGradient x1="187.15422" y1="181.25304" x2="253.97567" y2="181.25304" gradientUnits="userSpaceOnUse" id="color-6"><stop offset="0" stop-color="#c7bffb"/><stop offset="1" stop-color="#d9b2cc"/></linearGradient></defs><g transform="translate(-92.84989,-32.8499)"><g data-paper-data="{&quot;isPaintingLayer&quot;:true}" fill-rule="nonzero" stroke-linecap="butt" stroke-linejoin="miter" stroke-miterlimit="10" stroke-dasharray="" stroke-dashoffset="0" style="mix-blend-mode: normal"><path d="M94.8499,275.23519c0,-59.99896 0,-148.11906 0,-181.81815c0,-26.16557 22.73163,-58.56714 54.69562,-58.56714c60.91162,0 155.35022,0 189.899,0c25.1397,0 55.70568,31.10369 55.70568,56.54696c0,34.37139 0,127.20919 0,187.87876c0,32.57375 -30.56593,55.87453 -55.70568,55.87453c-33.79375,0 -124.88841,0 -185.85858,0c-34.07175,0 -58.73599,-25.26921 -58.73599,-59.91496z" fill="#83a08b" stroke="#83a08b" stroke-width="4"/><path d="M120.62314,180.00003c0,-65.93 53.4469,-119.37689 119.37689,-119.37689c65.93007,0 119.37685,53.4469 119.37685,119.37689c0,65.93 -53.44686,119.37685 -119.37685,119.37685c-65.93,0 -119.37689,-53.44678 -119.37689,-119.37685z" fill="url(#color-1)" stroke="none" stroke-width="0"/><path d="M144.49852,180.00003c0,-52.74401 42.75746,-95.50154 95.50147,-95.50154c52.74405,0 95.50147,42.75749 95.50147,95.50154c0,52.74405 -42.75746,95.50147 -95.50147,95.50147c-52.74401,0 -95.50147,-42.75746 -95.50147,-95.50147z" fill="#ffffff" stroke="none" stroke-width="0"/><g stroke="none" stroke-width="0"><path d="M227.16614,188.35888l26.65698,13.68235c0,0 0.32161,23.21779 0.40082,31.3712c0.03333,3.4327 -0.49263,8.0691 -6.06633,12.09691c-1.1428,0.77828 -6.3688,4.73697 -11.35407,8.53558c-1.54396,1.17648 -3.06486,2.33758 -4.43417,3.38411c-3.13819,2.3984 -5.46934,1.2726 -5.45604,-2.23988c0.00514,-1.35225 0.01056,-2.79203 0.01583,-4.18624c0.0461,-12.18063 0.237,-62.64398 0.237,-62.64398z" fill="url(#color-2)"/><path d="M296.80023,130.59457c-0.84072,1.08356 -2.68613,3.25119 -4.79818,4.40867c-1.12515,0.6166 -2.57303,0.08138 -3.61526,0.23733c-6.03917,0.90369 -24.00533,-0.39202 -24.00533,-0.39202c0,0 11.7671,-18.46997 14.81362,-22.92066c1.25203,-1.82914 4.40112,-2.55535 5.71696,-0.57768c3.64674,5.48065 10.67437,16.04268 11.81483,17.75663c0.30936,0.46488 0.38318,1.08848 0.07329,1.48777z" fill="url(#color-3)"/><path d="M214.12217,155.28101l33.1684,17.0819c0,0 6.25603,2.73563 6.44235,9.7404c-0.11158,5.34051 0.24277,28.7789 0.24277,28.7789c0,0 -0.86163,-6.61648 -8.02274,-10.64479c-11.53025,-6.58614 -36.94008,-20.75915 -51.06539,-29.00033c-6.20056,-3.61764 -8.42244,-5.6669 -7.55194,-8.9587c0.18993,-0.71813 0.52702,-1.45735 1.00208,-2.23005c0.15883,-0.2583 0.77138,-0.26086 0.9043,-0.47674c2.29628,-3.72971 3.77557,-0.23319 4.3841,-1.23323c0.61703,-1.01407 3.31617,-1.01569 3.31617,-1.01569c0,0 -0.0244,-5.06779 2.11116,-5.4395c8.10789,-1.4114 15.06868,3.39786 15.06868,3.39786z" fill="url(#color-4)"/><path d="M192.50052,153.41435c3.37591,-5.36811 6.74899,-10.40829 6.81523,-10.49547c5.24927,-8.31013 7.6472,-8.87682 13.85406,-9.09043c7.85274,0.08036 60.01938,-0.10872 76.9253,-0.09177c2.33012,-0.04862 3.61103,-0.70509 4.49853,-1.23574c0.60893,-0.36411 1.43219,-1.24817 2.02195,-1.88138c0.37598,-0.40371 0.43693,-0.31262 -0.00499,0.37545c-2.77401,4.31931 -13.0518,20.27339 -15.73967,23.74358c-2.00946,2.5943 -4.96091,6.44303 -12.14911,6.36009c-13.29748,-0.15344 -61.60179,-0.91775 -76.22187,-1.14241c-2.56292,-0.03936 -4.03861,-0.06217 -4.03861,-0.06217c0,0 1.63524,-2.65731 4.03918,-6.47983z" fill="url(#color-5)"/><path d="M187.17507,163.17113c0,0 0.05093,-0.41297 0.09569,-0.62187c0.0564,-0.26344 0.13303,-0.52961 0.2295,-0.79903c0.19747,-0.5517 0.47796,-1.11717 0.83745,-1.70181c0.15883,-0.2583 0.30411,-0.4945 0.43702,-0.71036c2.29628,-3.72971 0.89411,-1.40141 1.50263,-2.40142c0.61703,-1.01407 1.0577,-1.71656 1.0577,-1.71656c0,0 4.1886,-2.22459 6.69749,-3.06158c0.3876,-0.1293 0.73506,-0.22551 1.02085,-0.27523c3.24238,-0.56441 6.30132,-0.13398 8.80496,0.58581c-0.14996,1.92646 -12.08109,7.49775 -12.08109,7.49775c0,0 -3.4898,-0.39708 -5.95529,0.77893c-2.25263,1.212 -2.64697,2.42538 -2.64697,2.42538z" fill="url(#color-6)"/></g></g></g></svg>