<svg version="1.1" xmlns="http://www.w3.org/2000/svg" xmlns:xlink="http://www.w3.org/1999/xlink" width="109.2552" height="99.41706" viewBox="0,0,109.2552,99.41706"><g transform="translate(-185.3724,-130.29147)"><g data-paper-data="{&quot;isPaintingLayer&quot;:true}" fill-rule="nonzero" stroke-linejoin="miter" stroke-miterlimit="10" stroke-dasharray="" stroke-dashoffset="0" style="mix-blend-mode: normal"><g stroke="#ffffff" stroke-width="7"><path d="M229.60002,211.34938c0,-4.21204 0,-49.93094 0,-59.27988c0,-1.07038 0.37277,-2.02758 1.16526,-2.48875c1.19513,-0.69548 3.34477,-1.61291 6.60992,-1.84001c2.84043,-0.19756 8.69175,-0.12498 11.56566,-0.07332c1.02173,0.01836 1.66713,0.70563 1.66713,1.90609c0,9.50565 0,52.1748 0,57.19988c0,0.94991 -0.98677,1.66878 -2.50049,1.71103c-2.99217,0.0835 -8.04327,0.31336 -11.60161,0.94185c-2.32049,0.40987 -4.42959,1.4588 -5.69031,2.19164c-0.76324,0.44367 -1.21555,0.3447 -1.21555,-0.26853z" fill="#94afa3" stroke-linecap="butt"/><path d="M229.80802,212.38938v-27.66395c0,0 2.86806,-0.54724 4.94738,-0.79318c3.54701,-0.41953 14.39659,-1.49482 14.39659,-1.49482c0,0 1.49095,24.95995 0.832,24.95995c-2.50921,0 -20.17596,4.99199 -20.17596,4.99199z" fill="#2c8d53" stroke-linecap="butt"/><path d="M229.39202,187.07287c0,0 4.15026,-2.37237 7.07198,-2.49599c4.91598,-0.208 13.51998,-0.416 13.51998,-0.416" fill="none" stroke-linecap="round"/><path d="M229.39202,185.14145c0,0 4.15026,-2.37237 7.07198,-2.496c4.91598,-0.208 13.51998,-0.416 13.51998,-0.416" fill="none" stroke-linecap="round"/><path d="M234.8,173.07747v-12.89597" fill="none" stroke-linecap="round"/><path d="M240.41274,192.05464v7.72569" fill="none" stroke-linecap="round"/><path d="M243.87445,195.81559l-6.81941,0.06329" fill="none" stroke-linecap="round"/><path d="M230.63557,209.40714c0,0 3.99065,-2.28113 6.8,-2.4c4.72691,-0.2 13,-0.68571 13,-0.68571" fill="none" stroke-linecap="round"/><path d="M238.90231,158.33c0,-0.55639 0,-2.1227 0,-3.18932c0,-0.61052 0.43912,-1.05733 1.04271,-1.05733c0.55714,0 0.95631,0 1.31733,0c0.39868,0 0.9842,0.17238 0.9842,0.91867c0,1.01795 0,2.60701 0,3.11999c0,0.41692 -0.4817,1.05733 -0.91487,1.05733c-0.52668,0 -1.04796,0 -1.38666,0c-0.41548,0 -1.04271,-0.45808 -1.04271,-0.84933z" fill="#628172" stroke-linecap="butt"/><path d="M244.1023,163.52999c0,-0.55639 0,-2.1227 0,-3.18932c0,-0.61052 0.43912,-1.05733 1.04271,-1.05733c0.55713,0 0.95631,0 1.31733,0c0.39868,0 0.9842,0.17238 0.9842,0.91866c0,1.01795 0,2.60701 0,3.11999c0,0.41692 -0.4817,1.05734 -0.91487,1.05734c-0.52668,0 -1.04796,0 -1.38666,0c-0.41548,0 -1.04271,-0.45809 -1.04271,-0.84934z" fill="#628172" stroke-linecap="butt"/><path d="M239.80364,167.20465c0,-0.55639 0,-2.1227 0,-3.18932c0,-0.61052 0.43912,-1.05733 1.04271,-1.05733c0.55713,0 0.95631,0 1.31733,0c0.39868,0 0.98421,0.17238 0.98421,0.91866c0,1.01795 0,2.60702 0,3.12c0,0.41692 -0.4817,1.05733 -0.91487,1.05733c-0.52668,0 -1.04796,0 -1.38666,0c-0.41548,0 -1.04271,-0.45809 -1.04271,-0.84933z" fill="#628172" stroke-linecap="butt"/><path d="M244.03297,176.98063c0,-0.55639 0,-2.1227 0,-3.18932c0,-0.61052 0.43911,-1.05733 1.0427,-1.05733c0.55713,0 0.95631,0 1.31733,0c0.39868,0 0.9842,0.17238 0.9842,0.91867c0,1.01795 0,2.60701 0,3.11999c0,0.41692 -0.4817,1.05733 -0.91487,1.05733c-0.52668,0 -1.04796,0 -1.38666,0c-0.41548,0 -1.0427,-0.45809 -1.0427,-0.84933z" fill="#628172" stroke-linecap="butt"/><path d="M239.17964,179.54596c0,-0.55639 0,-2.1227 0,-3.18932c0,-0.61052 0.43912,-1.05733 1.04271,-1.05733c0.55713,0 0.95631,0 1.31733,0c0.39868,0 0.9842,0.17238 0.9842,0.91866c0,1.01795 0,2.60701 0,3.11999c0,0.41692 -0.4817,1.05733 -0.91487,1.05733c-0.52668,0 -1.04796,0 -1.38666,0c-0.41548,0 -1.04271,-0.45809 -1.04271,-0.84933z" fill="#628172" stroke-linecap="butt"/><path d="M229.60002,211.34938c0,-4.21204 0,-49.93094 0,-59.27988c0,-1.07037 0.37277,-2.02758 1.16526,-2.48875c1.19513,-0.69548 3.34477,-1.61291 6.60992,-1.84001c2.84043,-0.19755 8.69175,-0.12498 11.56566,-0.07332c1.02173,0.01836 1.66713,0.70562 1.66713,1.90608c0,9.50565 0,52.17479 0,57.19989c0,0.94991 -0.98677,1.66878 -2.50049,1.71103c-2.99217,0.0835 -8.04329,0.31336 -11.60163,0.94185c-2.32047,0.40985 -4.42959,1.45879 -5.69031,2.19163c-0.76324,0.44367 -1.21555,0.3447 -1.21555,-0.26853z" fill="none" stroke-linecap="butt"/></g><path d="M185.3724,229.70853v-99.41706h109.2552v99.41706z" fill="none" stroke="none" stroke-width="NaN" stroke-linecap="butt"/><g><path d="M229.60002,211.34938c0,-4.21203 0,-49.93094 0,-59.27988c0,-1.07038 0.37278,-2.02758 1.16526,-2.48875c1.19512,-0.69548 3.34477,-1.61291 6.60991,-1.84001c2.84043,-0.19756 8.69175,-0.12498 11.56566,-0.07332c1.02173,0.01837 1.66713,0.70563 1.66713,1.90609c0,9.50565 0,52.1748 0,57.19989c0,0.9499 -0.98677,1.66878 -2.50049,1.71103c-2.99217,0.0835 -8.04327,-0.18665 -11.60161,0.44184c-2.32048,0.40986 -4.42959,1.95881 -5.69031,2.69164c-0.76324,0.44366 -1.21555,0.34471 -1.21555,-0.26853z" fill="#94afa3" stroke="#000000" stroke-width="3" stroke-linecap="butt"/><path d="M229.80802,212.38938v-27.66394c0,0 2.86805,-0.54724 4.94737,-0.79318c3.54702,-0.41954 14.39659,-1.49482 14.39659,-1.49482c0,0 1.49095,24.95995 0.832,24.95995c-2.5092,0 -20.17596,4.99199 -20.17596,4.99199z" fill="#2c8d53" stroke="none" stroke-width="0" stroke-linecap="butt"/><path d="M229.39202,187.07286c0,0 4.15027,-2.37237 7.07199,-2.496c4.91598,-0.208 13.51997,-0.416 13.51997,-0.416" fill="none" stroke="#6cc090" stroke-width="2.5" stroke-linecap="round"/><path d="M229.39202,185.14144c0,0 4.15027,-2.37237 7.07199,-2.496c4.91598,-0.208 13.51997,-0.416 13.51997,-0.416" fill="none" stroke="#000000" stroke-width="2.5" stroke-linecap="round"/><path d="M234.80001,160.18149v12.89597" fill="none" stroke="#628172" stroke-width="2.5" stroke-linecap="round"/><path d="M240.41274,192.05464v7.7257" fill="none" stroke="#6cc090" stroke-width="2.5" stroke-linecap="round"/><path d="M237.05503,195.87888l6.81941,-0.06329" fill="none" stroke="#6cc090" stroke-width="2.5" stroke-linecap="round"/><path d="M230.63557,209.40714c0,0 3.99065,-2.78113 6.8,-2.9c4.72691,-0.2 13,-0.18571 13,-0.18571" fill="none" stroke="#6cc090" stroke-width="2.5" stroke-linecap="round"/><path d="M238.90231,158.33c0,-0.55639 0,-2.1227 0,-3.18933c0,-0.61052 0.43912,-1.05733 1.04271,-1.05733c0.55713,0 0.95631,0 1.31733,0c0.39868,0 0.98421,0.17238 0.98421,0.91866c0,1.01795 0,2.60701 0,3.11999c0,0.41692 -0.48169,1.05733 -0.91487,1.05733c-0.52668,0 -1.04796,0 -1.38666,0c-0.41548,0 -1.04271,-0.45808 -1.04271,-0.84933z" fill="#628172" stroke="none" stroke-width="0" stroke-linecap="butt"/><path d="M244.1023,163.52998c0,-0.55639 0,-2.1227 0,-3.18933c0,-0.61052 0.43912,-1.05733 1.04271,-1.05733c0.55713,0 0.95631,0 1.31733,0c0.39868,0 0.98421,0.17238 0.98421,0.91866c0,1.01795 0,2.60701 0,3.11999c0,0.41692 -0.4817,1.05733 -0.91488,1.05733c-0.52668,0 -1.04796,0 -1.38666,0c-0.41548,0 -1.04271,-0.45809 -1.04271,-0.84934z" fill="#628172" stroke="none" stroke-width="0" stroke-linecap="butt"/><path d="M239.80364,167.20464c0,-0.55639 0,-2.1227 0,-3.18933c0,-0.61052 0.43912,-1.05733 1.04271,-1.05733c0.55713,0 0.95631,0 1.31733,0c0.39868,0 0.98421,0.17238 0.98421,0.91866c0,1.01795 0,2.60701 0,3.11999c0,0.41692 -0.4817,1.05733 -0.91488,1.05733c-0.52668,0 -1.04796,0 -1.38666,0c-0.41548,0 -1.04271,-0.45809 -1.04271,-0.84934z" fill="#628172" stroke="none" stroke-width="0" stroke-linecap="butt"/><path d="M244.03296,176.98063c0,-0.55639 0,-2.1227 0,-3.18933c0,-0.61052 0.43912,-1.05733 1.04271,-1.05733c0.55713,0 0.95631,0 1.31733,0c0.39868,0 0.98421,0.17238 0.98421,0.91866c0,1.01795 0,2.60701 0,3.11999c0,0.41692 -0.4817,1.05733 -0.91488,1.05733c-0.52668,0 -1.04796,0 -1.38666,0c-0.41548,0 -1.04271,-0.45809 -1.04271,-0.84934z" fill="#628172" stroke="none" stroke-width="0" stroke-linecap="butt"/><path d="M239.17964,179.54595c0,-0.55639 0,-2.1227 0,-3.18933c0,-0.61052 0.43912,-1.05733 1.04271,-1.05733c0.55713,0 0.95631,0 1.31733,0c0.39868,0 0.98421,0.17238 0.98421,0.91866c0,1.01795 0,2.60701 0,3.11999c0,0.41692 -0.4817,1.05733 -0.91488,1.05733c-0.52668,0 -1.04796,0 -1.38666,0c-0.41548,0 -1.04271,-0.45809 -1.04271,-0.84934z" fill="#628172" stroke="none" stroke-width="0" stroke-linecap="butt"/><path d="M229.60002,211.34938c0,-4.21203 0,-49.93094 0,-59.27988c0,-1.07037 0.37278,-2.02758 1.16526,-2.48875c1.19512,-0.69548 3.34477,-1.61291 6.60991,-1.84001c2.84043,-0.19755 8.69175,-0.12498 11.56566,-0.07332c1.02173,0.01837 1.66713,0.70562 1.66713,1.90608c0,9.50565 0,52.17479 0,57.19989c0,0.9499 -0.98677,1.66878 -2.50049,1.71103c-2.99217,0.0835 -8.04328,-0.18665 -11.60162,0.44184c-2.32047,0.40985 -4.42959,1.95879 -5.69031,2.69164c-0.76324,0.44366 -1.21555,0.3447 -1.21555,-0.26853z" fill="none" stroke="#000000" stroke-width="3" stroke-linecap="butt"/></g></g></g></svg>