<svg version="1.1" xmlns="http://www.w3.org/2000/svg" xmlns:xlink="http://www.w3.org/1999/xlink" width="706.21021" height="368" viewBox="0,0,706.21021,368"><g transform="translate(23.10511,4)"><g data-paper-data="{&quot;isPaintingLayer&quot;:true}" fill-rule="nonzero" stroke-linejoin="miter" stroke-miterlimit="10" stroke-dasharray="" stroke-dashoffset="0" style="mix-blend-mode: normal"><path d="M-22.1051,363v-366h704.21021v366z" fill="#000000" stroke="#000000" stroke-width="2" stroke-linecap="butt"/><path d="M239.3282,182.24908v4.86472c0,1.5031 -0.19622,2.44717 -0.58865,2.83219c-0.38503,0.38503 -0.88112,0.57754 -1.48829,0.57754c-0.45167,0 -0.85892,-0.12957 -1.22173,-0.38874c-0.35541,-0.25915 -0.57754,-0.57754 -0.6664,-0.95517c-0.08144,-0.37763 -0.12217,-1.06623 -0.12217,-2.06583v-13.82777c0,-1.1625 0.07774,-1.95477 0.23323,-2.37682c0.15549,-0.42945 0.43686,-0.71822 0.84411,-0.86632c0.41464,-0.14809 1.02922,-0.22214 1.8437,-0.22214h4.97578c2.96176,0 4.96837,0.57384 6.0198,1.72153c1.05142,1.14769 1.57714,2.57304 1.57714,4.27605c0,4.28716 -2.53231,6.43075 -7.59694,6.43075zM242.13818,173.00835h-2.80998v6.05312h2.80998c1.70302,0 2.86181,-0.27396 3.47638,-0.82189c0.62197,-0.54793 0.93296,-1.28837 0.93296,-2.22133c0,-0.6664 -0.174,-1.25875 -0.52201,-1.77706c-0.3406,-0.51831 -0.80338,-0.85151 -1.38833,-0.9996c-0.58495,-0.15549 -1.41795,-0.23323 -2.49899,-0.23323zM257.70413,172.5974v14.79405c0,0.91074 -0.04443,1.53271 -0.13328,1.86591c-0.08144,0.3258 -0.29247,0.61827 -0.63308,0.87742c-0.3406,0.25915 -0.71083,0.38874 -1.11066,0.38874c-0.40724,0 -0.78857,-0.12587 -1.14399,-0.37763c-0.34801,-0.25915 -0.56643,-0.55903 -0.65529,-0.89963c-0.08144,-0.3406 -0.12217,-0.95887 -0.12217,-1.8548v-14.79405c0,-0.93296 0.04443,-1.56233 0.13328,-1.88813c0.08885,-0.3332 0.29988,-0.62197 0.63308,-0.86632c0.3406,-0.24434 0.71083,-0.36652 1.11066,-0.36652c0.46648,0 0.86632,0.13328 1.19951,0.39983c0.3406,0.25915 0.54423,0.57014 0.61086,0.93296c0.07405,0.35541 0.11106,0.95147 0.11106,1.78817zM272.19551,183.74847h-7.44144c0.03703,1.40684 0.42205,2.46939 1.15509,3.18761c0.74044,0.71822 1.62157,1.07734 2.64338,1.07734c1.27356,0 2.46937,-0.55534 3.58744,-1.666c0.45167,-0.46648 0.78487,-0.75525 0.9996,-0.86632c0.22214,-0.11106 0.46648,-0.1666 0.73303,-0.1666c0.3406,0 0.63308,0.10736 0.87742,0.32209c0.25175,0.21473 0.37763,0.47759 0.37763,0.78857c0,0.85151 -0.58495,1.74744 -1.75485,2.6878c-1.1625,0.94036 -2.73964,1.41054 -4.73142,1.41054c-2.53972,0 -4.46487,-0.71452 -5.77545,-2.14359c-1.30318,-1.42905 -1.95477,-3.28386 -1.95477,-5.56443c0,-2.29536 0.65159,-4.15018 1.95477,-5.56442c1.31059,-1.42165 3.13207,-2.13248 5.46447,-2.13248c2.23614,0 3.95766,0.6701 5.16459,2.0103c1.21432,1.3402 1.82149,2.79887 1.82149,4.37601c0,0.68861 -0.20363,1.23654 -0.61086,1.64379c-0.39983,0.39983 -1.23654,0.59976 -2.5101,0.59976zM264.75407,181.59378h6.89722c-0.04443,-1.25875 -0.39244,-2.21762 -1.04402,-2.87662c-0.64419,-0.659 -1.44386,-0.98849 -2.39903,-0.98849c-2.00659,0 -3.15799,1.28837 -3.45416,3.86511zM288.09188,188.39105c-1.80668,1.42165 -3.57633,2.13248 -5.30898,2.13248c-1.63638,0 -2.89513,-0.41464 -3.77625,-1.24394c-0.87373,-0.8367 -1.31059,-1.8548 -1.31059,-3.05433c0,-1.02922 0.29617,-1.85851 0.88853,-2.48789c0.59976,-0.63678 1.25135,-1.08104 1.95477,-1.3328c0.70343,-0.25175 1.8474,-0.54053 3.43195,-0.86632c1.59195,-0.3332 2.87292,-0.63678 3.8429,-0.91074c-0.0074,-1.14769 -0.23323,-1.92145 -0.67751,-2.32128c-0.44426,-0.40724 -1.12177,-0.61086 -2.03251,-0.61086c-1.71782,0 -2.8433,0.48129 -3.37642,1.44386c-0.29617,0.54793 -0.55903,0.93666 -0.78857,1.1662c-0.22954,0.22954 -0.56273,0.34431 -0.9996,0.34431c-0.39983,0 -0.76265,-0.12957 -1.08845,-0.38874c-0.31839,-0.26656 -0.47759,-0.60716 -0.47759,-1.02181c0,-0.98479 0.52942,-1.91775 1.58825,-2.79887c1.06623,-0.88112 2.74334,-1.32169 5.0313,-1.32169c2.31758,0 4.0132,0.39983 5.08684,1.19951c1.07364,0.79968 1.57714,2.41755 1.51051,4.85361l-0.08885,3.55414c-0.03703,1.09585 0.07774,1.9918 0.34431,2.6878c0.26656,0.69602 0.39983,1.22913 0.39983,1.59936c0,0.39983 -0.17771,0.75155 -0.53312,1.05513c-0.34801,0.30358 -0.74414,0.45537 -1.1884,0.45537c-0.77006,0 -1.58084,-0.71083 -2.43236,-2.13248zM287.83644,182.90437c-0.56273,0.22214 -1.4957,0.46277 -2.79887,0.72194c-1.29577,0.25915 -2.21392,0.55534 -2.75445,0.88855c-0.54053,0.3332 -0.81079,0.81819 -0.81079,1.45497c0,0.54793 0.21473,1.02922 0.64419,1.44386c0.42945,0.41464 1.03663,0.62197 1.82149,0.62197c0.8367,0 1.61046,-0.22584 2.32128,-0.67751c0.71822,-0.45907 1.1588,-1.0033 1.32169,-1.63268c0.1703,-0.62937 0.25545,-1.56974 0.25545,-2.82109zM298.27944,179.06147c0,0.48869 0.25545,0.87373 0.76636,1.15509c0.51091,0.27396 1.64749,0.62937 3.40974,1.06623c3.43565,0.8293 5.15348,2.25836 5.15348,4.28717c0,1.59936 -0.57754,2.82479 -1.73263,3.6763c-1.15509,0.85151 -2.77665,1.27726 -4.8647,1.27726c-2.11026,0 -3.69851,-0.43316 -4.76475,-1.29948c-1.06623,-0.87373 -1.59936,-1.79557 -1.59936,-2.76556c0,-0.41464 0.14809,-0.77006 0.44426,-1.06623c0.29617,-0.29617 0.659,-0.44426 1.08845,-0.44426c0.59235,0 1.11066,0.37023 1.55493,1.11066c0.5035,0.81449 1.05513,1.355 1.65489,1.62157c0.59976,0.25915 1.24394,0.38874 1.93256,0.38874c0.75525,0 1.36982,-0.1666 1.8437,-0.4998c0.48129,-0.3406 0.72194,-0.77006 0.72194,-1.28837c0,-0.47388 -0.20363,-0.88482 -0.61086,-1.23283c-0.39983,-0.34801 -1.4994,-0.72563 -3.29867,-1.13289c-1.79928,-0.41464 -3.10985,-0.9922 -3.93175,-1.73263c-0.82189,-0.74784 -1.23283,-1.63638 -1.23283,-2.66559c0,-1.15509 0.4998,-2.1769 1.4994,-3.06543c1.007,-0.88853 2.5138,-1.3328 4.52041,-1.3328c1.8437,0 3.30978,0.37393 4.39822,1.12177c1.09585,0.74784 1.64379,1.52531 1.64379,2.33239c0,0.42205 -0.14068,0.78117 -0.42205,1.07734c-0.27396,0.28877 -0.65529,0.43316 -1.14399,0.43316c-0.73303,0 -1.39573,-0.41835 -1.98808,-1.25505c-0.58495,-0.84411 -1.46978,-1.26616 -2.65448,-1.26616c-0.63678,0 -1.19581,0.12957 -1.6771,0.38874c-0.47388,0.25915 -0.71083,0.62937 -0.71083,1.11066zM321.39791,183.74847h-7.44144c0.03703,1.40684 0.42205,2.46939 1.15509,3.18761c0.74044,0.71822 1.62157,1.07734 2.64338,1.07734c1.27356,0 2.46937,-0.55534 3.58744,-1.666c0.45167,-0.46648 0.78487,-0.75525 0.9996,-0.86632c0.22214,-0.11106 0.46648,-0.1666 0.73303,-0.1666c0.3406,0 0.63308,0.10736 0.87742,0.32209c0.25175,0.21473 0.37763,0.47759 0.37763,0.78857c0,0.85151 -0.58495,1.74744 -1.75485,2.6878c-1.1625,0.94036 -2.73964,1.41054 -4.73142,1.41054c-2.53972,0 -4.46487,-0.71452 -5.77545,-2.14359c-1.30318,-1.42905 -1.95477,-3.28386 -1.95477,-5.56443c0,-2.29536 0.65159,-4.15018 1.95477,-5.56442c1.31059,-1.42165 3.13207,-2.13248 5.46447,-2.13248c2.23614,0 3.95766,0.6701 5.16459,2.0103c1.21432,1.3402 1.82149,2.79887 1.82149,4.37601c0,0.68861 -0.20363,1.23654 -0.61086,1.64379c-0.39983,0.39983 -1.23654,0.59976 -2.5101,0.59976zM313.95646,181.59378h6.89722c-0.04443,-1.25875 -0.39244,-2.21762 -1.04402,-2.87662c-0.64419,-0.659 -1.44386,-0.98849 -2.39903,-0.98849c-2.00659,0 -3.15799,1.28837 -3.45416,3.86511zM340.98169,185.9476l2.25465,-7.8524c0.28877,-0.96998 0.5035,-1.60306 0.64419,-1.89923c0.14068,-0.30358 0.38133,-0.55903 0.72194,-0.76636c0.3406,-0.20733 0.71822,-0.31099 1.13288,-0.31099c0.6664,0 1.15509,0.17771 1.46608,0.53312c0.31839,0.34801 0.6664,1.1625 1.04402,2.44346l2.27686,7.8524l2.47678,-8.47438c0.25915,-0.88853 0.5072,-1.5031 0.74414,-1.8437c0.24434,-0.3406 0.65529,-0.51091 1.23283,-0.51091c0.44426,0 0.8367,0.1592 1.17731,0.47759c0.3406,0.31839 0.51091,0.68491 0.51091,1.09956c0,0.3406 -0.14439,0.92925 -0.43316,1.76596l-3.09876,9.07413c-0.3332,0.96257 -0.58865,1.59936 -0.76636,1.91034c-0.1703,0.31099 -0.42205,0.56643 -0.75525,0.76636c-0.3258,0.20733 -0.68861,0.31099 -1.08845,0.31099c-0.78487,0 -1.34391,-0.23323 -1.6771,-0.69972c-0.3258,-0.47388 -0.65159,-1.27726 -0.97739,-2.41014l-2.13248,-7.38593l-2.09916,7.38593c-0.26656,0.95517 -0.48499,1.60306 -0.65529,1.94366c-0.1629,0.3332 -0.42205,0.61086 -0.77746,0.833c-0.34801,0.22214 -0.74044,0.3332 -1.17731,0.3332c-0.40724,0 -0.78487,-0.09996 -1.13288,-0.29988c-0.34801,-0.19992 -0.60716,-0.45537 -0.77746,-0.76636c-0.1629,-0.31839 -0.41094,-0.95887 -0.74414,-1.92145l-3.08765,-9.07413c-0.28877,-0.80708 -0.43316,-1.39573 -0.43316,-1.76596c0,-0.40724 0.1592,-0.77006 0.47759,-1.08845c0.3258,-0.3258 0.72563,-0.48869 1.19951,-0.48869c0.58495,0 0.9922,0.1703 1.22173,0.51091c0.22954,0.3332 0.47388,0.94777 0.73303,1.8437zM368.85101,188.39105c-1.80668,1.42165 -3.57633,2.13248 -5.30898,2.13248c-1.63638,0 -2.89513,-0.41464 -3.77625,-1.24394c-0.87373,-0.8367 -1.31059,-1.8548 -1.31059,-3.05433c0,-1.02922 0.29617,-1.85851 0.88853,-2.48789c0.59976,-0.63678 1.25135,-1.08104 1.95477,-1.3328c0.70343,-0.25175 1.8474,-0.54053 3.43195,-0.86632c1.59195,-0.3332 2.87292,-0.63678 3.8429,-0.91074c-0.0074,-1.14769 -0.23323,-1.92145 -0.67751,-2.32128c-0.44426,-0.40724 -1.12177,-0.61086 -2.03251,-0.61086c-1.71782,0 -2.8433,0.48129 -3.37642,1.44386c-0.29617,0.54793 -0.55903,0.93666 -0.78857,1.1662c-0.22954,0.22954 -0.56273,0.34431 -0.9996,0.34431c-0.39983,0 -0.76265,-0.12957 -1.08845,-0.38874c-0.31839,-0.26656 -0.47759,-0.60716 -0.47759,-1.02181c0,-0.98479 0.52942,-1.91775 1.58825,-2.79887c1.06623,-0.88112 2.74334,-1.32169 5.0313,-1.32169c2.31758,0 4.0132,0.39983 5.08684,1.19951c1.07364,0.79968 1.57714,2.41755 1.51051,4.85361l-0.08885,3.55414c-0.03703,1.09585 0.07774,1.9918 0.34431,2.6878c0.26656,0.69602 0.39983,1.22913 0.39983,1.59936c0,0.39983 -0.17771,0.75155 -0.53312,1.05513c-0.34801,0.30358 -0.74414,0.45537 -1.1884,0.45537c-0.77006,0 -1.58084,-0.71083 -2.43236,-2.13248zM368.59555,182.90437c-0.56273,0.22214 -1.4957,0.46277 -2.79887,0.72194c-1.29577,0.25915 -2.21392,0.55534 -2.75445,0.88855c-0.54053,0.3332 -0.81079,0.81819 -0.81079,1.45497c0,0.54793 0.21473,1.02922 0.64419,1.44386c0.42945,0.41464 1.03663,0.62197 1.82149,0.62197c0.8367,0 1.61046,-0.22584 2.32128,-0.67751c0.71822,-0.45907 1.1588,-1.0033 1.32169,-1.63268c0.1703,-0.62937 0.25545,-1.56974 0.25545,-2.82109zM378.0834,169.64304c0.48869,0 0.91444,0.18511 1.27726,0.55534c0.36282,0.37023 0.54423,0.79968 0.54423,1.28837c0,0.51091 -0.18141,0.95147 -0.54423,1.32169c-0.36282,0.36282 -0.78857,0.54423 -1.27726,0.54423c-0.51091,0 -0.95147,-0.18141 -1.32169,-0.54423c-0.36282,-0.37023 -0.54423,-0.81079 -0.54423,-1.32169c0,-0.4961 0.18141,-0.92555 0.54423,-1.28837c0.37023,-0.37023 0.81079,-0.55534 1.32169,-0.55534zM379.96042,178.20626v9.18519c0,0.90334 -0.04443,1.5216 -0.13328,1.8548c-0.08144,0.3332 -0.29247,0.62937 -0.63308,0.88853c-0.3406,0.25915 -0.71083,0.38874 -1.11066,0.38874c-0.40724,0 -0.78857,-0.12587 -1.14399,-0.37763c-0.34801,-0.25915 -0.56643,-0.55903 -0.65529,-0.89963c-0.08144,-0.3406 -0.12217,-0.95887 -0.12217,-1.8548v-9.15188c0,-0.84411 0.03332,-1.44016 0.09996,-1.78817c0.06664,-0.34801 0.26656,-0.65529 0.59976,-0.92185c0.3406,-0.27396 0.73303,-0.41094 1.17731,-0.41094c0.45167,0 0.8404,0.12217 1.1662,0.36652c0.3258,0.24434 0.53312,0.55534 0.62197,0.93296c0.08885,0.37023 0.13328,0.96628 0.13328,1.78817zM384.50026,175.45181v-2.27686c0,-0.94036 0.03703,-1.57714 0.11106,-1.91034c0.08144,-0.3406 0.28507,-0.64048 0.61086,-0.89963c0.3332,-0.26656 0.72194,-0.39983 1.1662,-0.39983c0.40724,0 0.77376,0.12217 1.09956,0.36652c0.3258,0.23695 0.54053,0.52572 0.64419,0.86632c0.10366,0.3406 0.15549,0.89593 0.15549,1.666v2.58785h0.73303c0.92555,0 1.54012,0.11477 1.8437,0.34431c0.31099,0.22214 0.46648,0.55162 0.46648,0.98849c0,0.93296 -0.77746,1.39943 -2.33239,1.39943h-0.71083v6.99719c0,0.94036 0.06664,1.58455 0.19992,1.93256c0.13328,0.3406 0.4924,0.51091 1.07734,0.51091c0.27396,0 0.58495,-0.03703 0.93296,-0.11106c0.34801,-0.08144 0.60716,-0.12217 0.77746,-0.12217c0.37763,0 0.68491,0.12587 0.92185,0.37763c0.23695,0.24434 0.35541,0.54423 0.35541,0.89963c0,1.23654 -1.31059,1.8548 -3.93175,1.8548c-1.26616,0 -2.19911,-0.23323 -2.79887,-0.69972c-0.59976,-0.47388 -0.96998,-1.04772 -1.11066,-1.72153c-0.14068,-0.68121 -0.21103,-1.56233 -0.21103,-2.64338v-7.27485h-0.4998c-1.12547,0 -1.6882,-0.45907 -1.6882,-1.37722c0,-0.90334 0.58865,-1.355 1.76596,-1.355zM404.89482,186.34743c0.56273,0 1.04772,0.20363 1.45497,0.61086c0.40724,0.40724 0.61086,0.89223 0.61086,1.45497c0,0.57754 -0.20363,1.07364 -0.61086,1.48829c-0.40724,0.41464 -0.89223,0.62197 -1.45497,0.62197c-0.58495,0 -1.08475,-0.20363 -1.4994,-0.61086c-0.40724,-0.41464 -0.61086,-0.91444 -0.61086,-1.4994c0,-0.56273 0.20363,-1.04772 0.61086,-1.45497c0.41464,-0.40724 0.91444,-0.61086 1.4994,-0.61086zM413.79402,186.34743c0.56273,0 1.04772,0.20363 1.45497,0.61086c0.40724,0.40724 0.61086,0.89223 0.61086,1.45497c0,0.57754 -0.20363,1.07364 -0.61086,1.48829c-0.40724,0.41464 -0.89223,0.62197 -1.45497,0.62197c-0.58495,0 -1.08475,-0.20363 -1.4994,-0.61086c-0.40724,-0.41464 -0.61086,-0.91444 -0.61086,-1.4994c0,-0.56273 0.20363,-1.04772 0.61086,-1.45497c0.41464,-0.40724 0.91444,-0.61086 1.4994,-0.61086zM422.69321,186.34743c0.56273,0 1.04772,0.20363 1.45497,0.61086c0.40724,0.40724 0.61086,0.89223 0.61086,1.45497c0,0.57754 -0.20363,1.07364 -0.61086,1.48829c-0.40724,0.41464 -0.89223,0.62197 -1.45497,0.62197c-0.58495,0 -1.08475,-0.20363 -1.4994,-0.61086c-0.40724,-0.41464 -0.61086,-0.91444 -0.61086,-1.4994c0,-0.56273 0.20363,-1.04772 0.61086,-1.45497c0.41464,-0.40724 0.91444,-0.61086 1.4994,-0.61086z" fill="#cdcdcd" stroke="none" stroke-width="1" stroke-linecap="square"/></g></g></svg>