<svg version="1.1" xmlns="http://www.w3.org/2000/svg" xmlns:xlink="http://www.w3.org/1999/xlink" width="182.48504" height="9.46452" viewBox="0,0,182.48504,9.46452"><g transform="translate(-148.75748,-175.26774)"><g data-paper-data="{&quot;isPaintingLayer&quot;:true}" fill="#ff0000" fill-rule="nonzero" stroke="none" stroke-width="1" stroke-linecap="square" stroke-linejoin="miter" stroke-miterlimit="10" stroke-dasharray="" stroke-dashoffset="0" style="mix-blend-mode: normal"><path d="M150.95615,179.55476l-1.76524,-2.73455c-0.28895,-0.44131 -0.43343,-0.75128 -0.43343,-0.92991c0,-0.17337 0.06568,-0.32047 0.19702,-0.44131c0.13659,-0.12083 0.29946,-0.18125 0.4886,-0.18125c0.17863,0 0.31785,0.05254 0.41767,0.15761c0.10507,0.09982 0.26794,0.33098 0.4886,0.69349l1.35546,2.19079l1.36333,-2.19079c0.23641,-0.38878 0.40716,-0.62782 0.51224,-0.71713c0.10507,-0.08931 0.24167,-0.13397 0.40979,-0.13397c0.17863,0 0.33098,0.06042 0.45707,0.18125c0.12609,0.12083 0.18913,0.26531 0.18913,0.43343c0,0.16287 -0.14185,0.46233 -0.42555,0.89839l-1.80464,2.77396v1.97013c0,0.31522 -0.01314,0.54638 -0.03941,0.69349c-0.02627,0.14185 -0.10507,0.26531 -0.23641,0.37038c-0.12609,0.09982 -0.27582,0.14973 -0.4492,0.14973c-0.16812,0 -0.31785,-0.04991 -0.44919,-0.14973c-0.12609,-0.09982 -0.20489,-0.22065 -0.23641,-0.3625c-0.02627,-0.14185 -0.03941,-0.37564 -0.03941,-0.70137zM157.25567,177.2694c0.83534,0 1.49205,0.25743 1.97013,0.77229c0.47808,0.50961 0.71713,1.16369 0.71713,1.96226c0,0.79856 -0.24167,1.45528 -0.72501,1.97014c-0.48334,0.50961 -1.12429,0.76441 -1.92285,0.76441c-0.86686,0 -1.5367,-0.26006 -2.00954,-0.78018c-0.47284,-0.52012 -0.70925,-1.17157 -0.70925,-1.95437c0,-0.79856 0.23905,-1.45265 0.71713,-1.96226c0.47808,-0.51486 1.13217,-0.77229 1.96226,-0.77229zM157.25567,181.73767c0.40979,0 0.73289,-0.15236 0.9693,-0.45707c0.23641,-0.30997 0.35462,-0.73552 0.35462,-1.27665c0,-0.54638 -0.11821,-0.97194 -0.35462,-1.27665c-0.23641,-0.30997 -0.55952,-0.46495 -0.9693,-0.46495c-0.39928,0 -0.71976,0.15498 -0.96143,0.46495c-0.23641,0.30997 -0.35462,0.73552 -0.35462,1.27665c0,0.54113 0.11821,0.96668 0.35462,1.27665c0.23641,0.30471 0.55689,0.45707 0.96143,0.45707zM160.96052,180.73684v-2.36416c0,-0.28895 0.0105,-0.49911 0.03152,-0.63045c0.02627,-0.13134 0.09719,-0.24167 0.21277,-0.33098c0.11558,-0.09456 0.25743,-0.14185 0.42555,-0.14185c0.15761,0 0.29421,0.04465 0.40979,0.13397c0.12083,0.08931 0.19438,0.20752 0.22065,0.35462c0.03152,0.14185 0.04729,0.35726 0.04729,0.64621v1.85193c0,0.60417 0.09456,0.99295 0.2837,1.16632c0.18913,0.16812 0.39665,0.25218 0.62256,0.25218c0.25743,0 0.48334,-0.07093 0.67773,-0.21278c0.19964,-0.14711 0.33361,-0.3231 0.4019,-0.528c0.0683,-0.21015 0.10245,-0.61731 0.10245,-1.22148v-1.3397c0,-0.2837 0.01313,-0.49385 0.0394,-0.63045c0.03152,-0.13659 0.10508,-0.24955 0.22066,-0.33886c0.12083,-0.08931 0.26269,-0.13397 0.42555,-0.13397c0.15236,0 0.28895,0.04465 0.40978,0.13397c0.12083,0.08931 0.19176,0.19964 0.21277,0.33098c0.02627,0.13134 0.0394,0.34412 0.0394,0.63833v3.32559c0,0.27319 -0.01313,0.4702 -0.0394,0.59104c-0.02627,0.12083 -0.09194,0.22591 -0.19701,0.31522c-0.09982,0.08931 -0.22853,0.13397 -0.38614,0.13397c-0.43606,0 -0.64621,-0.3126 -0.63045,-0.93779c-0.44656,0.62519 -1.0376,0.93779 -1.77312,0.93779c-0.4886,0 -0.90364,-0.14448 -1.24513,-0.43343c-0.34149,-0.29421 -0.51224,-0.81695 -0.51224,-1.56823zM168.00672,176.75716c-0.22065,0.01051 -0.40979,-0.05778 -0.5674,-0.20489c-0.15236,-0.14711 -0.22854,-0.32574 -0.22854,-0.53588c0,-0.21541 0.07618,-0.39402 0.22854,-0.53588c0.15761,-0.14185 0.33886,-0.21277 0.54376,-0.21277c0.24693,0 0.44919,0.09719 0.6068,0.29158c0.16287,0.19439 0.24429,0.46232 0.24429,0.80381c0,0.50436 -0.14973,0.94041 -0.44919,1.30817c-0.29421,0.36776 -0.56739,0.55164 -0.81957,0.55164c-0.10507,0 -0.18914,-0.03415 -0.25218,-0.10244c-0.05779,-0.0683 -0.08669,-0.14448 -0.08669,-0.22854c0,-0.13134 0.08143,-0.24692 0.2443,-0.34674c0.34149,-0.21015 0.52012,-0.47284 0.53588,-0.78806zM169.99064,181.61947v-3.4438c0,-0.60417 0.22066,-0.90626 0.66197,-0.90626c0.42555,0 0.64358,0.27844 0.65409,0.83533c0.27845,-0.55689 0.66459,-0.83533 1.15844,-0.83533c0.25743,0 0.52537,0.0683 0.80382,0.20489c0.27845,0.13659 0.41767,0.3231 0.41767,0.55952c0,0.16287 -0.05779,0.29946 -0.17337,0.40979c-0.11033,0.10507 -0.22854,0.15761 -0.35462,0.15761c-0.07355,0 -0.20489,-0.02889 -0.39403,-0.08668c-0.18913,-0.05779 -0.34674,-0.08669 -0.47284,-0.08669c-0.32047,0 -0.55952,0.16287 -0.71713,0.4886c-0.15761,0.32047 -0.23641,0.94567 -0.23641,1.87557v0.78017c0,0.34149 -0.01577,0.57265 -0.04729,0.69349c-0.02627,0.12083 -0.09982,0.23116 -0.22065,0.33098c-0.11558,0.09456 -0.24955,0.14185 -0.4019,0.14185c-0.15236,0 -0.28895,-0.04466 -0.40979,-0.13397c-0.11558,-0.08931 -0.18914,-0.19176 -0.22066,-0.30734c-0.03152,-0.12083 -0.04728,-0.34674 -0.04728,-0.67772zM177.91651,180.33494h-2.63998c0.01576,0.4991 0.15236,0.87473 0.40979,1.12691c0.26269,0.25218 0.5779,0.37827 0.94566,0.37827c0.44656,0 0.86949,-0.19702 1.26877,-0.59105c0.16287,-0.16287 0.28107,-0.26269 0.35462,-0.29946c0.0788,-0.04203 0.16549,-0.06304 0.26006,-0.06304c0.12083,0 0.22329,0.03941 0.30734,0.11821c0.08931,0.07355 0.13397,0.16549 0.13397,0.27582c0,0.30471 -0.20753,0.62519 -0.62257,0.96142c-0.40979,0.33098 -0.96931,0.49648 -1.67856,0.49648c-0.89838,0 -1.58136,-0.2548 -2.04894,-0.76441c-0.46232,-0.50961 -0.69349,-1.16633 -0.69349,-1.97014c0,-0.81432 0.23117,-1.47366 0.69349,-1.97802c0.46758,-0.50436 1.11641,-0.75653 1.94649,-0.75653c0.78805,0 1.39748,0.23905 1.82828,0.71713c0.4308,0.47284 0.64621,0.98769 0.64621,1.54458c0,0.24693 -0.07092,0.44394 -0.21277,0.59105c-0.14185,0.14185 -0.44132,0.21277 -0.89839,0.21277zM175.27652,179.57052h2.45085c-0.01576,-0.44656 -0.13922,-0.78806 -0.37038,-1.02447c-0.23117,-0.23641 -0.51487,-0.35462 -0.8511,-0.35462c-0.71451,0 -1.12429,0.4597 -1.22937,1.3791zM186.82646,181.96621v-0.13397c-0.46232,0.60417 -1.04811,0.90626 -1.75736,0.90626c-0.68298,0 -1.22937,-0.26006 -1.63916,-0.78018c-0.40454,-0.52537 -0.6068,-1.20309 -0.6068,-2.03318c0,-0.77755 0.19701,-1.41325 0.59104,-1.90709c0.39928,-0.4991 0.9483,-0.74865 1.64704,-0.74865c0.67773,0 1.26614,0.27319 1.76524,0.81957v-1.7416c0,-0.48334 0.06042,-0.7828 0.18125,-0.89838c0.12609,-0.12083 0.29158,-0.18125 0.49648,-0.18125c0.14711,0 0.28107,0.04203 0.40191,0.12609c0.12083,0.08406 0.19438,0.19439 0.22065,0.33098c0.02627,0.13134 0.03941,0.35199 0.03941,0.66196v5.29574c0,0.29946 -0.01577,0.51487 -0.04729,0.64621c-0.02627,0.12609 -0.10244,0.2259 -0.22853,0.29946c-0.12083,0.07355 -0.25218,0.11033 -0.39403,0.11033c-0.44656,0 -0.66985,-0.25743 -0.66985,-0.77229zM184.18647,179.96455c0,0.60417 0.12608,1.04549 0.37826,1.32394c0.25743,0.27845 0.54901,0.41767 0.87474,0.41767c0.37826,0 0.69087,-0.14447 0.93779,-0.43343c0.25218,-0.28895 0.37826,-0.69349 0.37826,-1.21361c0,-0.54113 -0.12083,-0.97194 -0.3625,-1.29241c-0.24167,-0.32047 -0.56477,-0.48072 -0.96931,-0.48072c-0.3625,0 -0.65933,0.14973 -0.8905,0.44919c-0.23117,0.29421 -0.34674,0.70399 -0.34674,1.22937zM193.20971,180.33494h-2.63999c0.01576,0.4991 0.15236,0.87473 0.40979,1.12691c0.26269,0.25218 0.5779,0.37827 0.94566,0.37827c0.44656,0 0.86949,-0.19702 1.26877,-0.59105c0.16287,-0.16287 0.28107,-0.26269 0.35462,-0.29946c0.0788,-0.04203 0.16549,-0.06304 0.26006,-0.06304c0.12083,0 0.22328,0.03941 0.30734,0.11821c0.08931,0.07355 0.13397,0.16549 0.13397,0.27582c0,0.30471 -0.20753,0.62519 -0.62257,0.96142c-0.40979,0.33098 -0.9693,0.49648 -1.67855,0.49648c-0.89838,0 -1.58137,-0.2548 -2.04895,-0.76441c-0.46232,-0.50961 -0.69349,-1.16633 -0.69349,-1.97014c0,-0.81432 0.23117,-1.47366 0.69349,-1.97802c0.46758,-0.50436 1.11641,-0.75653 1.94649,-0.75653c0.78806,0 1.39748,0.23905 1.82829,0.71713c0.4308,0.47284 0.64621,0.98769 0.64621,1.54458c0,0.24693 -0.07092,0.44394 -0.21277,0.59105c-0.14185,0.14185 -0.44132,0.21277 -0.89838,0.21277zM190.56972,179.57052h2.45086c-0.01576,-0.44656 -0.13922,-0.78806 -0.37038,-1.02447c-0.23117,-0.23641 -0.51487,-0.35462 -0.8511,-0.35462c-0.71451,0 -1.1243,0.4597 -1.22937,1.3791zM198.84923,181.97409c-0.63569,0.50961 -1.26089,0.76441 -1.87557,0.76441c-0.58316,0 -1.03235,-0.1471 -1.34758,-0.44131c-0.30997,-0.29946 -0.46495,-0.66197 -0.46495,-1.08751c0,-0.36776 0.10508,-0.66197 0.31522,-0.88262c0.21541,-0.22591 0.44656,-0.38352 0.69348,-0.47284c0.25218,-0.08931 0.65934,-0.19176 1.22149,-0.30734c0.56214,-0.11558 1.01659,-0.22329 1.36334,-0.3231c-0.00526,-0.40979 -0.08669,-0.68561 -0.2443,-0.82746c-0.15761,-0.14185 -0.39666,-0.21277 -0.71713,-0.21277c-0.60943,0 -1.00871,0.17075 -1.19785,0.51224c-0.10507,0.19439 -0.19964,0.33361 -0.2837,0.41767c-0.0788,0.0788 -0.19439,0.11821 -0.34674,0.11821c-0.14185,0 -0.27057,-0.04466 -0.38614,-0.13397c-0.11558,-0.09456 -0.17337,-0.21803 -0.17337,-0.37038c0,-0.34674 0.18913,-0.6751 0.5674,-0.98507c0.37826,-0.31522 0.97194,-0.47283 1.78101,-0.47283c0.81957,0 1.4185,0.14185 1.79676,0.42555c0.38352,0.2837 0.56477,0.85635 0.54376,1.71796l-0.03152,1.26089c-0.01051,0.39403 0.0289,0.71451 0.11821,0.96143c0.09456,0.24167 0.14185,0.42818 0.14185,0.55952c0,0.14185 -0.06304,0.26793 -0.18913,0.37826c-0.12083,0.11033 -0.26006,0.16549 -0.41767,0.16549c-0.27319,0 -0.56215,-0.2548 -0.86686,-0.76441zM198.76254,180.02759c-0.19964,0.0788 -0.53062,0.1655 -0.99295,0.26006c-0.46232,0.08931 -0.79068,0.19438 -0.98507,0.31522c-0.18913,0.11558 -0.2837,0.28896 -0.2837,0.52012c0,0.18913 0.07618,0.35988 0.22854,0.51224c0.15236,0.14711 0.37038,0.22065 0.65408,0.22065c0.29421,0 0.5674,-0.08143 0.81958,-0.24429c0.25743,-0.16287 0.41504,-0.35463 0.47283,-0.57529c0.05779,-0.22591 0.08669,-0.56215 0.08669,-1.00871zM205.11919,181.96621v-0.13397c-0.46232,0.60417 -1.04811,0.90626 -1.75736,0.90626c-0.68298,0 -1.22937,-0.26006 -1.63915,-0.78018c-0.40454,-0.52537 -0.6068,-1.20309 -0.6068,-2.03318c0,-0.77755 0.19701,-1.41325 0.59104,-1.90709c0.39928,-0.4991 0.9483,-0.74865 1.64703,-0.74865c0.67773,0 1.26614,0.27319 1.76524,0.81957v-1.7416c0,-0.48334 0.06042,-0.7828 0.18125,-0.89838c0.12609,-0.12083 0.29158,-0.18125 0.49648,-0.18125c0.14711,0 0.28107,0.04203 0.4019,0.12609c0.12083,0.08406 0.19439,0.19439 0.22066,0.33098c0.02627,0.13134 0.0394,0.35199 0.0394,0.66196v5.29574c0,0.29946 -0.01576,0.51487 -0.04728,0.64621c-0.02627,0.12609 -0.10245,0.2259 -0.22854,0.29946c-0.12083,0.07355 -0.25217,0.11033 -0.39402,0.11033c-0.44656,0 -0.66985,-0.25743 -0.66985,-0.77229zM202.47921,179.96455c0,0.60417 0.12608,1.04549 0.37826,1.32394c0.25743,0.27845 0.54901,0.41767 0.87474,0.41767c0.37826,0 0.69086,-0.14447 0.93778,-0.43343c0.25218,-0.28895 0.37827,-0.69349 0.37827,-1.21361c0,-0.54113 -0.12083,-0.97194 -0.3625,-1.29241c-0.24167,-0.32047 -0.56477,-0.48072 -0.96931,-0.48072c-0.3625,0 -0.65933,0.14973 -0.8905,0.44919c-0.23117,0.29421 -0.34674,0.70399 -0.34674,1.22937zM208.6418,181.24908c0.19964,0 0.37038,0.07355 0.51224,0.22066c0.14711,0.14185 0.22065,0.31522 0.22065,0.52012c0,0.19964 -0.07355,0.37563 -0.22065,0.52799c-0.14185,0.14711 -0.3126,0.22066 -0.51224,0.22066c-0.20489,0 -0.38089,-0.07355 -0.528,-0.22066c-0.14711,-0.14711 -0.22066,-0.3231 -0.22066,-0.52799c0,-0.20489 0.07355,-0.37826 0.22066,-0.52012c0.14711,-0.14711 0.3231,-0.22066 0.528,-0.22066zM215.424,176.52075v1.84405h2.17504c0.25743,0 0.43343,0.01313 0.528,0.0394c0.09982,0.02627 0.1865,0.08931 0.26006,0.18913c0.0788,0.09982 0.11821,0.20753 0.11821,0.3231c0,0.15236 -0.05779,0.28633 -0.17337,0.4019c-0.11033,0.11558 -0.35462,0.17337 -0.73289,0.17337h-2.17504v2.03318c0,0.29421 -0.01313,0.51224 -0.0394,0.65409c-0.02102,0.14185 -0.08668,0.27057 -0.19701,0.38614c-0.10507,0.11558 -0.27057,0.17337 -0.49648,0.17337c-0.22065,0 -0.38614,-0.05779 -0.49648,-0.17337c-0.10507,-0.11558 -0.17074,-0.24693 -0.19701,-0.39403c-0.02102,-0.15236 -0.03152,-0.36776 -0.03152,-0.6462v-4.90958c0,-0.52537 0.03677,-0.82483 0.11032,-0.89838c0.0788,-0.07355 0.16287,-0.14448 0.25218,-0.21278c0.09456,-0.07355 0.3809,-0.11033 0.85898,-0.11033h2.8764c0.25218,0 0.43081,0.01051 0.53588,0.03152c0.10507,0.01576 0.19701,0.07355 0.27582,0.17337c0.08406,0.09982 0.12609,0.21803 0.12609,0.35462c0,0.13659 -0.04203,0.25481 -0.12609,0.35462c-0.0788,0.09982 -0.17074,0.16024 -0.27582,0.18125c-0.10507,0.02102 -0.2837,0.03152 -0.53588,0.03152zM220.54045,175.33078c0.17863,0 0.33098,0.06567 0.45707,0.19701c0.12609,0.13134 0.18913,0.2837 0.18913,0.45708c0,0.17863 -0.06304,0.33361 -0.18913,0.46495c-0.12609,0.12609 -0.27844,0.18913 -0.45707,0.18913c-0.17863,0 -0.33362,-0.06304 -0.46496,-0.18913c-0.12609,-0.13134 -0.18913,-0.28633 -0.18913,-0.46495c0,-0.17863 0.06304,-0.33098 0.18913,-0.45708c0.13134,-0.13134 0.28633,-0.19701 0.46496,-0.19701zM221.2103,178.3648v3.25467c0,0.32573 -0.01576,0.54901 -0.04728,0.66984c-0.02627,0.11558 -0.10245,0.22066 -0.22854,0.31522c-0.12083,0.08931 -0.25217,0.13397 -0.39402,0.13397c-0.14185,0 -0.27582,-0.04466 -0.40191,-0.13397c-0.12609,-0.09456 -0.20489,-0.20227 -0.23641,-0.3231c-0.02627,-0.12083 -0.0394,-0.34149 -0.0394,-0.66196v-3.24679c0,-0.29421 0.01051,-0.50173 0.03152,-0.62257c0.02627,-0.12609 0.09982,-0.23642 0.22065,-0.33098c0.12083,-0.09982 0.26006,-0.14973 0.41767,-0.14973c0.15761,0 0.29421,0.04465 0.40979,0.13397c0.11558,0.08406 0.18913,0.19439 0.22065,0.33098c0.03152,0.13134 0.04728,0.34149 0.04728,0.63045zM227.34038,179.41291v2.20656c0,0.28895 -0.01313,0.4991 -0.0394,0.63044c-0.02102,0.12609 -0.09194,0.23905 -0.21277,0.33886c-0.11558,0.09982 -0.25218,0.14973 -0.40979,0.14973c-0.14711,0 -0.2837,-0.04466 -0.40979,-0.13397c-0.12083,-0.08931 -0.19701,-0.20227 -0.22853,-0.33886c-0.03152,-0.14185 -0.04729,-0.35725 -0.04729,-0.6462v-1.93073c0,-0.54113 -0.08143,-0.90364 -0.24429,-1.08752c-0.15761,-0.18913 -0.37827,-0.2837 -0.66197,-0.2837c-0.25218,0 -0.47546,0.07355 -0.66985,0.22066c-0.19439,0.14711 -0.33098,0.33361 -0.40979,0.55952c-0.0788,0.22065 -0.11821,0.59892 -0.11821,1.1348v1.38698c0,0.2837 -0.01051,0.49122 -0.03152,0.62256c-0.02102,0.12609 -0.09194,0.24167 -0.21277,0.34674c-0.12083,0.09982 -0.26006,0.14973 -0.41767,0.14973c-0.15236,0 -0.29157,-0.04466 -0.41766,-0.13397c-0.12083,-0.09456 -0.19439,-0.20752 -0.22066,-0.33886c-0.02627,-0.13659 -0.0394,-0.35199 -0.0394,-0.6462v-3.30984c0,-0.29946 0.01313,-0.50698 0.0394,-0.62256c0.03152,-0.12083 0.10244,-0.22066 0.21277,-0.29946c0.11558,-0.0788 0.2443,-0.1182 0.38615,-0.1182c0.13134,0 0.26794,0.05253 0.40979,0.15761c0.14185,0.09982 0.21277,0.34937 0.21277,0.74865c0.45182,-0.60417 1.02973,-0.90626 1.73372,-0.90626c0.26794,0 0.53325,0.05253 0.79593,0.15761c0.26269,0.09982 0.47546,0.26269 0.63833,0.4886c0.16812,0.22591 0.27057,0.46232 0.30734,0.70925c0.03678,0.24693 0.05516,0.50961 0.05516,0.78806zM229.36667,175.33078c0.17863,0 0.33098,0.06567 0.45707,0.19701c0.12609,0.13134 0.18913,0.2837 0.18913,0.45708c0,0.17863 -0.06304,0.33361 -0.18913,0.46495c-0.12609,0.12609 -0.27845,0.18913 -0.45707,0.18913c-0.17863,0 -0.33361,-0.06304 -0.46495,-0.18913c-0.12609,-0.13134 -0.18914,-0.28633 -0.18914,-0.46495c0,-0.17863 0.06305,-0.33098 0.18914,-0.45708c0.13134,-0.13134 0.28633,-0.19701 0.46495,-0.19701zM230.03652,178.3648v3.25467c0,0.32573 -0.01576,0.54901 -0.04728,0.66984c-0.02627,0.11558 -0.10244,0.22066 -0.22853,0.31522c-0.12083,0.08931 -0.25218,0.13397 -0.39403,0.13397c-0.14185,0 -0.27582,-0.04466 -0.40191,-0.13397c-0.12609,-0.09456 -0.20489,-0.20227 -0.23641,-0.3231c-0.02627,-0.12083 -0.03941,-0.34149 -0.03941,-0.66196v-3.24679c0,-0.29421 0.01051,-0.50173 0.03153,-0.62257c0.02627,-0.12609 0.09982,-0.23642 0.22065,-0.33098c0.12083,-0.09982 0.26006,-0.14973 0.41767,-0.14973c0.15761,0 0.29421,0.04465 0.40978,0.13397c0.11558,0.08406 0.18914,0.19439 0.22066,0.33098c0.03152,0.13134 0.04728,0.34149 0.04728,0.63045zM232.44698,178.66426c0,0.17337 0.08931,0.30997 0.26794,0.40979c0.17863,0.09982 0.58316,0.22591 1.2136,0.37826c1.21886,0.29946 1.82829,0.80644 1.82829,1.52095c0,0.57265 -0.20753,1.01134 -0.62257,1.31605c-0.40979,0.29946 -0.98244,0.44919 -1.71796,0.44919c-0.75128,0 -1.31606,-0.15498 -1.69432,-0.46495c-0.37826,-0.30997 -0.5674,-0.63832 -0.5674,-0.98507c0,-0.14711 0.05254,-0.27319 0.15761,-0.37826c0.10507,-0.10507 0.23379,-0.15762 0.38614,-0.15762c0.21015,0 0.39403,0.13135 0.55164,0.39403c0.17863,0.28895 0.37301,0.48072 0.58316,0.57528c0.2154,0.09456 0.44394,0.14185 0.68561,0.14185c0.27319,0 0.49385,-0.06042 0.66197,-0.18125c0.16812,-0.12083 0.25218,-0.2732 0.25218,-0.45708c0,-0.16812 -0.07093,-0.31259 -0.21278,-0.43343c-0.14185,-0.12083 -0.53325,-0.25481 -1.1742,-0.40191c-0.63569,-0.14711 -1.10065,-0.35199 -1.39486,-0.61468c-0.29421,-0.26794 -0.44132,-0.58316 -0.44132,-0.94566c0,-0.40979 0.17862,-0.7723 0.53588,-1.08752c0.35726,-0.31522 0.89313,-0.47283 1.60763,-0.47283c0.65146,0 1.16895,0.13396 1.55247,0.4019c0.38878,0.26269 0.58316,0.53588 0.58316,0.81958c0,0.15236 -0.04991,0.28107 -0.14973,0.38614c-0.09456,0.10507 -0.22854,0.15761 -0.4019,0.15761c-0.26268,0 -0.4991,-0.14973 -0.70925,-0.44919c-0.2049,-0.29946 -0.51749,-0.44919 -0.93779,-0.44919c-0.22591,0 -0.42292,0.04728 -0.59104,0.14185c-0.16812,0.08931 -0.25218,0.21803 -0.25218,0.38614zM241.65738,179.34199v2.45085c0,0.63045 -0.22854,0.94567 -0.68561,0.94567c-0.21015,0 -0.37301,-0.06567 -0.48859,-0.19701c-0.11033,-0.13659 -0.16549,-0.38615 -0.16549,-0.74866v-2.14351c0,-0.50961 -0.08143,-0.85898 -0.24429,-1.04811c-0.16287,-0.18913 -0.38878,-0.2837 -0.67773,-0.2837c-0.25743,0 -0.48071,0.07093 -0.66985,0.21278c-0.18914,0.14185 -0.3231,0.31522 -0.40191,0.52012c-0.0788,0.20489 -0.11821,0.5674 -0.11821,1.08751v1.56035c0,0.4203 -0.06042,0.69874 -0.18125,0.83533c-0.12083,0.13659 -0.28633,0.2049 -0.49648,0.2049c-0.21015,0 -0.37564,-0.06567 -0.49647,-0.19701c-0.11558,-0.13659 -0.17337,-0.41242 -0.17337,-0.82746v-5.33514c0,-0.32573 0.01576,-0.55163 0.04728,-0.67772c0.03152,-0.12609 0.10245,-0.22854 0.21278,-0.30734c0.11558,-0.08406 0.24955,-0.12609 0.40191,-0.12609c0.16812,0 0.30734,0.04729 0.41767,0.14185c0.11558,0.08931 0.18913,0.20752 0.22065,0.35462c0.03152,0.14711 0.04728,0.38878 0.04728,0.72501v1.59187c0.45182,-0.54113 0.99821,-0.81169 1.63916,-0.81169c0.54113,0 0.97718,0.16812 1.30817,0.50435c0.33623,0.33098 0.50435,0.85373 0.50435,1.56823zM247.34024,182.60453l-1.63915,-4.16881c-0.10507,-0.26794 -0.15761,-0.45444 -0.15761,-0.55952c0,-0.15236 0.06304,-0.29158 0.18913,-0.41767c0.13134,-0.12609 0.28371,-0.18913 0.45708,-0.18913c0.15236,0 0.28107,0.04728 0.38614,0.14185c0.10508,0.08931 0.21015,0.27845 0.31523,0.5674l1.13479,3.30983l1.07964,-3.06554c0.14185,-0.39928 0.2548,-0.65672 0.33886,-0.7723c0.08406,-0.12083 0.22853,-0.18125 0.43343,-0.18125c0.18388,0 0.32836,0.06304 0.43344,0.18913c0.10507,0.12083 0.15761,0.24429 0.15761,0.37038c0,0.15236 -0.05254,0.36777 -0.15761,0.64621l-1.75737,4.59436c-0.23116,0.60943 -0.47283,1.0376 -0.72501,1.28453c-0.24692,0.25218 -0.67247,0.37826 -1.27665,0.37826c-0.77754,0 -1.16632,-0.19964 -1.16632,-0.59892c0,-0.13134 0.04203,-0.24167 0.12609,-0.33098c0.08931,-0.08931 0.20752,-0.13397 0.35462,-0.13397c0.02627,0 0.10245,0.00525 0.22854,0.01576c0.13134,0.01051 0.20752,0.01576 0.22854,0.01576c0.24692,0 0.42817,-0.06042 0.54376,-0.18125c0.12083,-0.11558 0.23904,-0.32047 0.35462,-0.61468zM253.65946,177.2694c0.83534,0 1.49205,0.25743 1.97014,0.77229c0.47809,0.50961 0.71713,1.16369 0.71713,1.96226c0,0.79856 -0.24167,1.45528 -0.72501,1.97014c-0.48334,0.50961 -1.12429,0.76441 -1.92285,0.76441c-0.86686,0 -1.53671,-0.26006 -2.00954,-0.78018c-0.47284,-0.52012 -0.70925,-1.17157 -0.70925,-1.95437c0,-0.79856 0.23904,-1.45265 0.71713,-1.96226c0.47808,-0.51486 1.13217,-0.77229 1.96225,-0.77229zM253.65946,181.73767c0.40979,0 0.73289,-0.15236 0.96931,-0.45707c0.23641,-0.30997 0.35462,-0.73552 0.35462,-1.27665c0,-0.54638 -0.11821,-0.97194 -0.35462,-1.27665c-0.23642,-0.30997 -0.55952,-0.46495 -0.96931,-0.46495c-0.39928,0 -0.71976,0.15498 -0.96143,0.46495c-0.23641,0.30997 -0.35462,0.73552 -0.35462,1.27665c0,0.54113 0.11821,0.96668 0.35462,1.27665c0.23642,0.30471 0.55689,0.45707 0.96143,0.45707zM257.36431,180.73684v-2.36416c0,-0.28895 0.01051,-0.49911 0.03152,-0.63045c0.02627,-0.13134 0.09719,-0.24167 0.21277,-0.33098c0.11558,-0.09456 0.25743,-0.14185 0.42555,-0.14185c0.15761,0 0.29421,0.04465 0.40979,0.13397c0.12084,0.08931 0.19439,0.20752 0.22066,0.35462c0.03152,0.14185 0.04728,0.35726 0.04728,0.64621v1.85193c0,0.60417 0.09456,0.99295 0.2837,1.16632c0.18914,0.16812 0.39666,0.25218 0.62257,0.25218c0.25743,0 0.48334,-0.07093 0.67773,-0.21278c0.19964,-0.14711 0.33361,-0.3231 0.40191,-0.528c0.06829,-0.21015 0.10245,-0.61731 0.10245,-1.22148v-1.3397c0,-0.2837 0.01313,-0.49385 0.0394,-0.63045c0.03152,-0.13659 0.10507,-0.24955 0.22065,-0.33886c0.12084,-0.08931 0.26269,-0.13397 0.42555,-0.13397c0.15236,0 0.28895,0.04465 0.40979,0.13397c0.12084,0.08931 0.19176,0.19964 0.21278,0.33098c0.02627,0.13134 0.0394,0.34412 0.0394,0.63833v3.32559c0,0.27319 -0.01314,0.4702 -0.0394,0.59104c-0.02627,0.12083 -0.09194,0.22591 -0.19702,0.31522c-0.09982,0.08931 -0.22853,0.13397 -0.38614,0.13397c-0.43606,0 -0.64621,-0.3126 -0.63045,-0.93779c-0.44657,0.62519 -1.0376,0.93779 -1.77313,0.93779c-0.48859,0 -0.90363,-0.14448 -1.24512,-0.43343c-0.34149,-0.29421 -0.51224,-0.81695 -0.51224,-1.56823zM263.48848,181.61947v-3.4438c0,-0.60417 0.22066,-0.90626 0.66197,-0.90626c0.42555,0 0.64358,0.27844 0.65409,0.83533c0.27845,-0.55689 0.6646,-0.83533 1.15845,-0.83533c0.25743,0 0.52537,0.0683 0.80381,0.20489c0.27845,0.13659 0.41767,0.3231 0.41767,0.55952c0,0.16287 -0.0578,0.29946 -0.17338,0.40979c-0.11033,0.10507 -0.22853,0.15761 -0.35462,0.15761c-0.07356,0 -0.20489,-0.02889 -0.39403,-0.08668c-0.18913,-0.05779 -0.34674,-0.08669 -0.47283,-0.08669c-0.32047,0 -0.55952,0.16287 -0.71713,0.4886c-0.15761,0.32047 -0.23642,0.94567 -0.23642,1.87557v0.78017c0,0.34149 -0.01576,0.57265 -0.04728,0.69349c-0.02627,0.12083 -0.09982,0.23116 -0.22065,0.33098c-0.11558,0.09456 -0.24955,0.14185 -0.40191,0.14185c-0.15236,0 -0.28895,-0.04466 -0.40979,-0.13397c-0.11558,-0.08931 -0.18913,-0.19176 -0.22065,-0.30734c-0.03152,-0.12083 -0.04729,-0.34674 -0.04729,-0.67772zM271.12966,177.38761v-0.81169c0,-0.33098 0.01313,-0.55427 0.0394,-0.66985c0.03152,-0.12083 0.10507,-0.22854 0.22065,-0.3231c0.11558,-0.09456 0.25218,-0.14185 0.40979,-0.14185c0.14711,0 0.27844,0.04203 0.39402,0.12609c0.11558,0.08406 0.19176,0.18913 0.22854,0.31522c0.03677,0.12083 0.05516,0.31785 0.05516,0.59104v0.91414h0.26006c0.33099,0 0.54901,0.03941 0.65409,0.11821c0.11033,0.0788 0.16549,0.19701 0.16549,0.35462c0,0.33098 -0.27581,0.49648 -0.82745,0.49648h-0.25218v2.48237c0,0.33623 0.02364,0.56477 0.07092,0.68561c0.04728,0.12083 0.17337,0.18125 0.37826,0.18125c0.09982,0 0.21015,-0.01313 0.33099,-0.0394c0.12609,-0.03152 0.21803,-0.04728 0.27582,-0.04728c0.1366,0 0.24692,0.04465 0.33098,0.13397c0.08406,0.08931 0.12609,0.19701 0.12609,0.3231c0,0.44131 -0.46495,0.66197 -1.39486,0.66197c-0.45182,0 -0.78281,-0.08406 -0.99295,-0.25217c-0.21015,-0.16812 -0.3415,-0.37039 -0.39403,-0.60681c-0.05254,-0.24167 -0.0788,-0.55689 -0.0788,-0.94567v-2.57694h-0.17337c-0.39928,0 -0.59893,-0.16287 -0.59893,-0.4886c0,-0.32047 0.21015,-0.48072 0.63045,-0.48072zM277.8764,181.97409c-0.63569,0.50961 -1.26088,0.76441 -1.87557,0.76441c-0.58316,0 -1.03236,-0.1471 -1.34758,-0.44131c-0.30997,-0.29946 -0.46496,-0.66197 -0.46496,-1.08751c0,-0.36776 0.10508,-0.66197 0.31523,-0.88262c0.2154,-0.22591 0.44656,-0.38352 0.69348,-0.47284c0.25218,-0.08931 0.65934,-0.19176 1.22149,-0.30734c0.56214,-0.11558 1.0166,-0.22329 1.36334,-0.3231c-0.00525,-0.40979 -0.08669,-0.68561 -0.2443,-0.82746c-0.15761,-0.14185 -0.39666,-0.21277 -0.71713,-0.21277c-0.60943,0 -1.00871,0.17075 -1.19785,0.51224c-0.10507,0.19439 -0.19964,0.33361 -0.2837,0.41767c-0.0788,0.0788 -0.19439,0.11821 -0.34675,0.11821c-0.14185,0 -0.27056,-0.04466 -0.38614,-0.13397c-0.11558,-0.09456 -0.17337,-0.21803 -0.17337,-0.37038c0,-0.34674 0.18914,-0.6751 0.5674,-0.98507c0.37827,-0.31522 0.97194,-0.47283 1.78101,-0.47283c0.81957,0 1.4185,0.14185 1.79676,0.42555c0.38352,0.2837 0.56477,0.85635 0.54376,1.71796l-0.03152,1.26089c-0.01051,0.39403 0.0289,0.71451 0.11821,0.96143c0.09456,0.24167 0.14185,0.42818 0.14185,0.55952c0,0.14185 -0.06304,0.26793 -0.18913,0.37826c-0.12083,0.11033 -0.26006,0.16549 -0.41767,0.16549c-0.27319,0 -0.56215,-0.2548 -0.86686,-0.76441zM277.78972,180.02759c-0.19964,0.0788 -0.53062,0.1655 -0.99295,0.26006c-0.46233,0.08931 -0.79069,0.19438 -0.98507,0.31522c-0.18913,0.11558 -0.2837,0.28896 -0.2837,0.52012c0,0.18913 0.07618,0.35988 0.22853,0.51224c0.15236,0.14711 0.37039,0.22065 0.65409,0.22065c0.29421,0 0.5674,-0.08143 0.81958,-0.24429c0.25743,-0.16287 0.41504,-0.35463 0.47283,-0.57529c0.05779,-0.22591 0.08669,-0.56215 0.08669,-1.00871zM281.4985,178.66426c0,0.17337 0.08931,0.30997 0.26793,0.40979c0.17863,0.09982 0.58316,0.22591 1.21361,0.37826c1.21886,0.29946 1.82829,0.80644 1.82829,1.52095c0,0.57265 -0.20753,1.01134 -0.62257,1.31605c-0.40979,0.29946 -0.98244,0.44919 -1.71796,0.44919c-0.75128,0 -1.31606,-0.15498 -1.69432,-0.46495c-0.37827,-0.30997 -0.5674,-0.63832 -0.5674,-0.98507c0,-0.14711 0.05254,-0.27319 0.15761,-0.37826c0.10508,-0.10507 0.23379,-0.15762 0.38615,-0.15762c0.21015,0 0.39403,0.13135 0.55164,0.39403c0.17863,0.28895 0.37301,0.48072 0.58316,0.57528c0.21541,0.09456 0.44394,0.14185 0.68561,0.14185c0.27319,0 0.49385,-0.06042 0.66197,-0.18125c0.16812,-0.12083 0.25218,-0.2732 0.25218,-0.45708c0,-0.16812 -0.07093,-0.31259 -0.21278,-0.43343c-0.14185,-0.12083 -0.53325,-0.25481 -1.1742,-0.40191c-0.6357,-0.14711 -1.10065,-0.35199 -1.39486,-0.61468c-0.29421,-0.26794 -0.44131,-0.58316 -0.44131,-0.94566c0,-0.40979 0.17863,-0.7723 0.53588,-1.08752c0.35726,-0.31522 0.89313,-0.47283 1.60763,-0.47283c0.65146,0 1.16895,0.13396 1.55247,0.4019c0.38878,0.26269 0.58316,0.53588 0.58316,0.81958c0,0.15236 -0.04991,0.28107 -0.14973,0.38614c-0.09456,0.10507 -0.22853,0.15761 -0.4019,0.15761c-0.26269,0 -0.49911,-0.14973 -0.70925,-0.44919c-0.20489,-0.29946 -0.51749,-0.44919 -0.93779,-0.44919c-0.22591,0 -0.42292,0.04728 -0.59104,0.14185c-0.16812,0.08931 -0.25217,0.21803 -0.25217,0.38614zM288.10831,180.16944l-0.74077,0.68561v0.66197c0,0.32573 -0.01051,0.55952 -0.03152,0.70137c-0.02102,0.13659 -0.09457,0.25743 -0.22066,0.3625c-0.12083,0.10507 -0.26268,0.15761 -0.42555,0.15761c-0.14711,0 -0.28107,-0.04466 -0.40191,-0.13397c-0.12083,-0.09456 -0.19439,-0.20227 -0.22065,-0.3231c-0.02627,-0.12609 -0.0394,-0.35988 -0.0394,-0.70137v-5.13812c0,-0.4886 0.05779,-0.80644 0.17337,-0.95355c0.12083,-0.14711 0.29683,-0.22065 0.528,-0.22065c0.16812,0 0.30209,0.04729 0.40191,0.14185c0.10508,0.09456 0.17075,0.21015 0.19702,0.34674c0.02627,0.13659 0.0394,0.35199 0.0394,0.6462v2.96309l1.52094,-1.57611c0.23116,-0.24167 0.38877,-0.38877 0.47283,-0.44131c0.08932,-0.05254 0.19176,-0.0788 0.30734,-0.0788c0.17337,0 0.31522,0.05516 0.42555,0.16549c0.11033,0.11033 0.1655,0.23117 0.1655,0.3625c0,0.19964 -0.18388,0.47284 -0.55164,0.81958l-0.70925,0.65409l1.37122,2.16715c0.19964,0.31522 0.29946,0.54113 0.29946,0.67773c0,0.15761 -0.05779,0.30209 -0.17337,0.43343c-0.11558,0.12609 -0.27057,0.18913 -0.46496,0.18913c-0.16287,0 -0.29683,-0.04729 -0.4019,-0.14185c-0.09982,-0.09982 -0.21541,-0.26006 -0.34675,-0.48071zM292.4968,178.66426c0,0.17337 0.08931,0.30997 0.26794,0.40979c0.17863,0.09982 0.58316,0.22591 1.21361,0.37826c1.21886,0.29946 1.82829,0.80644 1.82829,1.52095c0,0.57265 -0.20752,1.01134 -0.62256,1.31605c-0.40979,0.29946 -0.98244,0.44919 -1.71797,0.44919c-0.75128,0 -1.31605,-0.15498 -1.69431,-0.46495c-0.37826,-0.30997 -0.5674,-0.63832 -0.5674,-0.98507c0,-0.14711 0.05254,-0.27319 0.15761,-0.37826c0.10508,-0.10507 0.23379,-0.15762 0.38615,-0.15762c0.21015,0 0.39403,0.13135 0.55164,0.39403c0.17863,0.28895 0.37302,0.48072 0.58316,0.57528c0.2154,0.09456 0.44394,0.14185 0.68561,0.14185c0.27319,0 0.49384,-0.06042 0.66197,-0.18125c0.16812,-0.12083 0.25218,-0.2732 0.25218,-0.45708c0,-0.16812 -0.07092,-0.31259 -0.21277,-0.43343c-0.14185,-0.12083 -0.53326,-0.25481 -1.17421,-0.40191c-0.6357,-0.14711 -1.10064,-0.35199 -1.39486,-0.61468c-0.29421,-0.26794 -0.44132,-0.58316 -0.44132,-0.94566c0,-0.40979 0.17863,-0.7723 0.53588,-1.08752c0.35726,-0.31522 0.89313,-0.47283 1.60763,-0.47283c0.65146,0 1.16895,0.13396 1.55247,0.4019c0.38878,0.26269 0.58316,0.53588 0.58316,0.81958c0,0.15236 -0.04991,0.28107 -0.14973,0.38614c-0.09456,0.10507 -0.22853,0.15761 -0.4019,0.15761c-0.26269,0 -0.4991,-0.14973 -0.70925,-0.44919c-0.2049,-0.29946 -0.51749,-0.44919 -0.93779,-0.44919c-0.22591,0 -0.42292,0.04728 -0.59105,0.14185c-0.16812,0.08931 -0.25217,0.21803 -0.25217,0.38614zM300.15472,177.38761v-0.81169c0,-0.33098 0.01314,-0.55427 0.0394,-0.66985c0.03152,-0.12083 0.10508,-0.22854 0.22066,-0.3231c0.11558,-0.09456 0.25218,-0.14185 0.40979,-0.14185c0.14711,0 0.27845,0.04203 0.39403,0.12609c0.11558,0.08406 0.19176,0.18913 0.22853,0.31522c0.03678,0.12083 0.05516,0.31785 0.05516,0.59104v0.91414h0.26006c0.33098,0 0.54901,0.03941 0.65409,0.11821c0.11033,0.0788 0.16549,0.19701 0.16549,0.35462c0,0.33098 -0.27581,0.49648 -0.82745,0.49648h-0.25218v2.48237c0,0.33623 0.02364,0.56477 0.07092,0.68561c0.04728,0.12083 0.17337,0.18125 0.37827,0.18125c0.09982,0 0.21015,-0.01313 0.33098,-0.0394c0.12609,-0.03152 0.21803,-0.04728 0.27582,-0.04728c0.13659,0 0.24692,0.04465 0.33098,0.13397c0.08406,0.08931 0.12608,0.19701 0.12608,0.3231c0,0.44131 -0.46495,0.66197 -1.39486,0.66197c-0.45182,0 -0.7828,-0.08406 -0.99295,-0.25217c-0.21015,-0.16812 -0.3415,-0.37039 -0.39403,-0.60681c-0.05253,-0.24167 -0.0788,-0.55689 -0.0788,-0.94567v-2.57694h-0.17337c-0.39928,0 -0.59892,-0.16287 -0.59892,-0.4886c0,-0.32047 0.21015,-0.48072 0.63044,-0.48072zM305.85335,177.2694c0.83534,0 1.49206,0.25743 1.97014,0.77229c0.47809,0.50961 0.71713,1.16369 0.71713,1.96226c0,0.79856 -0.24167,1.45528 -0.72501,1.97014c-0.48334,0.50961 -1.12429,0.76441 -1.92286,0.76441c-0.86686,0 -1.5367,-0.26006 -2.00954,-0.78018c-0.47284,-0.52012 -0.70925,-1.17157 -0.70925,-1.95437c0,-0.79856 0.23904,-1.45265 0.71713,-1.96226c0.47808,-0.51486 1.13217,-0.77229 1.96225,-0.77229zM305.85335,181.73767c0.40979,0 0.73289,-0.15236 0.96931,-0.45707c0.23641,-0.30997 0.35462,-0.73552 0.35462,-1.27665c0,-0.54638 -0.11821,-0.97194 -0.35462,-1.27665c-0.23642,-0.30997 -0.55952,-0.46495 -0.96931,-0.46495c-0.39928,0 -0.71975,0.15498 -0.96142,0.46495c-0.23641,0.30997 -0.35463,0.73552 -0.35463,1.27665c0,0.54113 0.11821,0.96668 0.35463,1.27665c0.23642,0.30471 0.55689,0.45707 0.96142,0.45707zM314.31017,181.10723l0.79594,-2.78184c0.09982,-0.34149 0.176,-0.56477 0.22853,-0.66984c0.05253,-0.11033 0.1366,-0.20227 0.25218,-0.27582c0.12084,-0.07355 0.2548,-0.11032 0.40191,-0.11032c0.23641,0 0.40979,0.06304 0.52012,0.18913c0.11558,0.12083 0.24167,0.40979 0.37826,0.86686l0.80381,2.78184l0.87474,-3.00249c0.09456,-0.31522 0.18388,-0.53325 0.26794,-0.65409c0.08406,-0.12083 0.23116,-0.18125 0.44131,-0.18125c0.15761,0 0.29421,0.05779 0.40979,0.17337c0.12084,0.11033 0.18125,0.23904 0.18125,0.38614c0,0.12083 -0.04991,0.32836 -0.14973,0.62257l-1.0954,3.22315c-0.12084,0.34149 -0.21278,0.5674 -0.27582,0.67773c-0.06304,0.11033 -0.15235,0.20226 -0.26793,0.27582c-0.11558,0.07355 -0.2443,0.11033 -0.38615,0.11033c-0.27844,0 -0.47546,-0.08406 -0.59104,-0.25217c-0.11558,-0.16812 -0.23116,-0.45182 -0.34674,-0.8511l-0.76441,-2.62423l-0.74077,2.62423c-0.09456,0.33623 -0.17337,0.56477 -0.23642,0.6856c-0.05779,0.12083 -0.14973,0.22066 -0.27582,0.29946c-0.12083,0.0788 -0.25743,0.11821 -0.40979,0.11821c-0.14711,0 -0.2837,-0.03677 -0.40979,-0.11033c-0.12084,-0.0683 -0.21015,-0.15761 -0.26794,-0.26794c-0.05779,-0.11558 -0.1471,-0.34412 -0.26793,-0.68561l-1.0954,-3.22315c-0.10507,-0.2837 -0.15761,-0.49123 -0.15761,-0.62257c0,-0.14185 0.0578,-0.27057 0.17338,-0.38614c0.11558,-0.11558 0.25743,-0.17337 0.42555,-0.17337c0.2049,0 0.34937,0.06041 0.43343,0.18125c0.08406,0.11558 0.17074,0.33361 0.26005,0.65409zM321.47064,175.33078c0.17863,0 0.33098,0.06567 0.45707,0.19701c0.12609,0.13134 0.18913,0.2837 0.18913,0.45708c0,0.17863 -0.06304,0.33361 -0.18913,0.46495c-0.12609,0.12609 -0.27845,0.18913 -0.45707,0.18913c-0.17863,0 -0.33362,-0.06304 -0.46496,-0.18913c-0.12609,-0.13134 -0.18913,-0.28633 -0.18913,-0.46495c0,-0.17863 0.06304,-0.33098 0.18913,-0.45708c0.13134,-0.13134 0.28633,-0.19701 0.46496,-0.19701zM322.14048,178.3648v3.25467c0,0.32573 -0.01576,0.54901 -0.04728,0.66984c-0.02627,0.11558 -0.10244,0.22066 -0.22853,0.31522c-0.12084,0.08931 -0.25218,0.13397 -0.39403,0.13397c-0.14185,0 -0.27582,-0.04466 -0.40191,-0.13397c-0.12609,-0.09456 -0.20489,-0.20227 -0.23641,-0.3231c-0.02627,-0.12083 -0.0394,-0.34149 -0.0394,-0.66196v-3.24679c0,-0.29421 0.01051,-0.50173 0.03152,-0.62257c0.02627,-0.12609 0.09982,-0.23642 0.22065,-0.33098c0.12084,-0.09982 0.26006,-0.14973 0.41767,-0.14973c0.15761,0 0.29421,0.04465 0.40979,0.13397c0.11558,0.08406 0.18913,0.19439 0.22065,0.33098c0.03152,0.13134 0.04728,0.34149 0.04728,0.63045zM328.27057,179.41291v2.20656c0,0.28895 -0.01314,0.4991 -0.0394,0.63044c-0.02102,0.12609 -0.09194,0.23905 -0.21277,0.33886c-0.11558,0.09982 -0.25218,0.14973 -0.40979,0.14973c-0.14711,0 -0.2837,-0.04466 -0.40979,-0.13397c-0.12083,-0.08931 -0.19701,-0.20227 -0.22853,-0.33886c-0.03152,-0.14185 -0.04728,-0.35725 -0.04728,-0.6462v-1.93073c0,-0.54113 -0.08143,-0.90364 -0.2443,-1.08752c-0.15761,-0.18913 -0.37827,-0.2837 -0.66197,-0.2837c-0.25218,0 -0.47546,0.07355 -0.66985,0.22066c-0.19439,0.14711 -0.33099,0.33361 -0.40979,0.55952c-0.0788,0.22065 -0.11821,0.59892 -0.11821,1.1348v1.38698c0,0.2837 -0.01051,0.49122 -0.03152,0.62256c-0.02102,0.12609 -0.09194,0.24167 -0.21277,0.34674c-0.12084,0.09982 -0.26006,0.14973 -0.41767,0.14973c-0.15236,0 -0.29158,-0.04466 -0.41767,-0.13397c-0.12083,-0.09456 -0.19438,-0.20752 -0.22065,-0.33886c-0.02627,-0.13659 -0.0394,-0.35199 -0.0394,-0.6462v-3.30984c0,-0.29946 0.01313,-0.50698 0.0394,-0.62256c0.03152,-0.12083 0.10244,-0.22066 0.21277,-0.29946c0.11558,-0.0788 0.2443,-0.1182 0.38615,-0.1182c0.13134,0 0.26794,0.05253 0.40979,0.15761c0.14185,0.09982 0.21277,0.34937 0.21277,0.74865c0.45182,-0.60417 1.02973,-0.90626 1.73372,-0.90626c0.26794,0 0.53325,0.05253 0.79594,0.15761c0.26268,0.09982 0.47546,0.26269 0.63832,0.4886c0.16812,0.22591 0.27057,0.46232 0.30734,0.70925c0.03677,0.24693 0.05516,0.50961 0.05516,0.78806zM330.50963,181.24908c0.19964,0 0.37039,0.07355 0.51224,0.22066c0.14711,0.14185 0.22065,0.31522 0.22065,0.52012c0,0.19964 -0.07355,0.37563 -0.22065,0.52799c-0.14185,0.14711 -0.3126,0.22066 -0.51224,0.22066c-0.20489,0 -0.38089,-0.07355 -0.528,-0.22066c-0.14711,-0.14711 -0.22065,-0.3231 -0.22065,-0.52799c0,-0.20489 0.07355,-0.37826 0.22065,-0.52012c0.14711,-0.14711 0.3231,-0.22066 0.528,-0.22066z"/></g></g></svg>