<svg version="1.1" xmlns="http://www.w3.org/2000/svg" xmlns:xlink="http://www.w3.org/1999/xlink" width="99.5443" height="25.4" viewBox="0,0,99.5443,25.4"><g transform="translate(-190.22785,-166.41773)"><g data-paper-data="{&quot;isPaintingLayer&quot;:true}" fill-rule="nonzero" stroke="none" stroke-linejoin="miter" stroke-miterlimit="10" stroke-dasharray="" stroke-dashoffset="0" style="mix-blend-mode: normal"><path d="M190.22785,180.02704c0,-1.21995 0.32752,-2.1935 0.98257,-2.92066c0.65504,-0.72716 1.57151,-1.09074 2.74939,-1.09074c1.24398,0 2.18749,0.36658 2.83051,1.09975c0.64904,0.73317 0.97355,1.68869 0.97355,2.86657c0,1.1899 -0.32151,2.15444 -0.96454,2.89362c-0.64303,0.73918 -1.57451,1.10877 -2.79446,1.10877c-1.21995,0 -2.15444,-0.36658 -2.80347,-1.09975c-0.64904,-0.73918 -0.97355,-1.6917 -0.97355,-2.85756zM196.17734,180c0,-0.84134 -0.19231,-1.50841 -0.57692,-2.00119c-0.3786,-0.4988 -0.91346,-0.74819 -1.60456,-0.74819c-0.63702,0 -1.16285,0.22837 -1.57752,0.68509c-0.40865,0.45673 -0.61298,1.14483 -0.61298,2.06429c0,0.90745 0.20733,1.59254 0.62199,2.05528c0.41466,0.45673 0.93449,0.68509 1.55949,0.68509c0.60697,0 1.12379,-0.22837 1.55047,-0.68509c0.42668,-0.45673 0.64002,-1.14182 0.64002,-2.05528zM203.43066,183.84914h-3.64181c-0.39062,0 -0.64603,-0.08414 -0.76622,-0.2524c-0.11418,-0.16827 -0.17127,-0.32151 -0.17127,-0.45973c0,-0.26442 0.13822,-0.58593 0.41466,-0.96454c0.28245,-0.3786 0.80529,-0.88641 1.5685,-1.52343c0.76322,-0.63702 1.25901,-1.09375 1.48737,-1.37019c0.23437,-0.28245 0.35156,-0.59795 0.35156,-0.94651c0,-0.34856 -0.12019,-0.625 -0.36058,-0.82932c-0.23437,-0.20432 -0.51683,-0.30649 -0.84735,-0.30649c-0.28846,0 -0.54086,0.07812 -0.75721,0.23437c-0.21635,0.15024 -0.3756,0.3726 -0.47776,0.66706c-0.09615,0.29447 -0.19231,0.50781 -0.28846,0.64002c-0.09615,0.1262 -0.2494,0.1893 -0.45973,0.1893c-0.17428,0 -0.32151,-0.05709 -0.4417,-0.17127c-0.12019,-0.11418 -0.18029,-0.26743 -0.18029,-0.45973c0,-0.53485 0.22837,-1.03365 0.68509,-1.49639c0.45673,-0.46875 1.10276,-0.70312 1.93809,-0.70312c0.90144,0 1.56249,0.21935 1.98316,0.65805c0.42067,0.4387 0.63101,0.95252 0.63101,1.54146c0,0.46274 -0.13822,0.90444 -0.41466,1.32511c-0.27644,0.41466 -0.71214,0.86237 -1.30708,1.34314c-0.58894,0.47476 -0.96754,0.79327 -1.13581,0.95552c-0.16827,0.16226 -0.36358,0.39062 -0.58593,0.68509h2.57811c0.39062,0 0.65504,0.05709 0.79327,0.17127c0.14423,0.10817 0.21635,0.25841 0.21635,0.45072c0,0.20432 -0.0631,0.36058 -0.1893,0.46875c-0.1262,0.10216 -0.33353,0.15324 -0.62199,0.15324zM206.347,178.14304c0.21034,0 0.39363,0.07812 0.54988,0.23437c0.15625,0.15625 0.23437,0.33954 0.23437,0.54988c0,0.22235 -0.07812,0.41166 -0.23437,0.56791c-0.15625,0.15625 -0.33954,0.23437 -0.54988,0.23437c-0.22235,0 -0.41166,-0.07812 -0.56791,-0.23437c-0.15625,-0.15625 -0.23437,-0.34555 -0.23437,-0.56791c0,-0.21034 0.07812,-0.39363 0.23437,-0.54988c0.15625,-0.15625 0.34555,-0.23437 0.56791,-0.23437zM206.347,182.39782c0.21034,0 0.39363,0.07812 0.54988,0.23437c0.15625,0.15024 0.23437,0.33353 0.23437,0.54988c0,0.21635 -0.07812,0.40565 -0.23437,0.56791c-0.15625,0.15625 -0.33954,0.23437 -0.54988,0.23437c-0.22235,0 -0.41166,-0.07812 -0.56791,-0.23437c-0.15625,-0.15625 -0.23437,-0.34555 -0.23437,-0.56791c0,-0.21635 0.07812,-0.39964 0.23437,-0.54988c0.15625,-0.15625 0.34555,-0.23437 0.56791,-0.23437zM217.94108,180.73918c0.1863,0 0.34856,0.0631 0.48678,0.1893c0.13822,0.1262 0.20733,0.28846 0.20733,0.48678c0,0.55288 -0.27945,1.12079 -0.83834,1.70372c-0.55288,0.57692 -1.33413,0.86538 -2.34374,0.86538c-1.23798,0 -2.16646,-0.38461 -2.78544,-1.15384c-0.61298,-0.76923 -0.91947,-1.70973 -0.91947,-2.8215c0,-1.20192 0.34255,-2.16646 1.02764,-2.89362c0.68509,-0.73317 1.57752,-1.09975 2.67727,-1.09975c0.94952,0 1.70973,0.26442 2.28064,0.79327c0.57692,0.52283 0.86538,1.03966 0.86538,1.55047c0,0.16226 -0.0631,0.3155 -0.1893,0.45973c-0.12019,0.13822 -0.28545,0.20733 -0.49579,0.20733c-0.1863,0 -0.33053,-0.05108 -0.43269,-0.15324c-0.09615,-0.10817 -0.22837,-0.31851 -0.39663,-0.63101c-0.16827,-0.31851 -0.39964,-0.5619 -0.69411,-0.73016c-0.28846,-0.17428 -0.60396,-0.26142 -0.94651,-0.26142c-0.64904,0 -1.16285,0.24339 -1.54146,0.73016c-0.3786,0.48678 -0.56791,1.18389 -0.56791,2.09134c0,0.90144 0.1863,1.57151 0.55889,2.01021c0.3726,0.4387 0.8774,0.65805 1.51442,0.65805c0.89543,0 1.49939,-0.4387 1.81189,-1.3161c0.10817,-0.28846 0.21935,-0.47476 0.33353,-0.55889c0.11418,-0.08414 0.24339,-0.1262 0.38762,-0.1262zM221.35609,177.19653v5.59793c0,0.34856 -0.01502,0.58593 -0.04507,0.71214c-0.03005,0.12019 -0.11118,0.23137 -0.24339,0.33353c-0.1262,0.09615 -0.26442,0.14423 -0.41466,0.14423c-0.15625,0 -0.30048,-0.04808 -0.43269,-0.14423c-0.13221,-0.09615 -0.21635,-0.21034 -0.2524,-0.34255c-0.03005,-0.13221 -0.04507,-0.36658 -0.04507,-0.70312v-5.59793c0,-0.35457 0.01502,-0.59194 0.04507,-0.71214c0.03606,-0.1262 0.11719,-0.23437 0.24339,-0.32452c0.13221,-0.09615 0.27344,-0.14423 0.42368,-0.14423c0.17428,0 0.32452,0.05108 0.45072,0.15324c0.13221,0.09615 0.21034,0.21334 0.23437,0.35156c0.02404,0.13221 0.03606,0.35757 0.03606,0.67608zM226.84196,181.41526h-2.81249c0.01202,0.53485 0.15625,0.9375 0.43269,1.20793c0.28245,0.27043 0.61899,0.40565 1.00961,0.40565c0.48077,0 0.93149,-0.21034 1.35216,-0.63101c0.17428,-0.17428 0.30048,-0.28245 0.3786,-0.32452c0.08414,-0.04207 0.17728,-0.0631 0.27945,-0.0631c0.13221,0 0.24339,0.04207 0.33353,0.1262c0.09014,0.07812 0.13522,0.17728 0.13522,0.29747c0,0.31851 -0.21935,0.65805 -0.65805,1.01862c-0.4387,0.35457 -1.03665,0.53185 -1.79386,0.53185c-0.96153,0 -1.6917,-0.27043 -2.19049,-0.81129c-0.49279,-0.54687 -0.73918,-1.24999 -0.73918,-2.10936c0,-0.87139 0.24639,-1.57451 0.73918,-2.10936c0.4988,-0.54086 1.1899,-0.81129 2.07331,-0.81129c0.84735,0 1.49939,0.25541 1.95612,0.76622c0.46274,0.51081 0.69411,1.0637 0.69411,1.65865c0,0.25841 -0.07812,0.46574 -0.23437,0.62199c-0.15024,0.15024 -0.46875,0.22536 -0.95552,0.22536zM224.02948,180.60396h2.61417c-0.01803,-0.48077 -0.15024,-0.84435 -0.39663,-1.09074c-0.24639,-0.2524 -0.54988,-0.3786 -0.91045,-0.3786c-0.75721,0 -1.1929,0.48978 -1.30708,1.46934zM232.85924,183.17306c-0.67908,0.54086 -1.34615,0.81129 -2.00119,0.81129c-0.61899,0 -1.09675,-0.15625 -1.43329,-0.46875c-0.33053,-0.31851 -0.49579,-0.70613 -0.49579,-1.16285c0,-0.39062 0.11118,-0.70613 0.33353,-0.94651c0.22837,-0.24038 0.47476,-0.40565 0.73918,-0.49579c0.27043,-0.09615 0.70613,-0.20733 1.30708,-0.33353c0.60096,-0.1262 1.08473,-0.24038 1.45131,-0.34255c-0.00601,-0.43269 -0.09315,-0.72416 -0.26142,-0.87439c-0.16827,-0.15625 -0.42368,-0.23437 -0.76622,-0.23437c-0.64904,0 -1.07572,0.18329 -1.28004,0.54988c-0.10817,0.20432 -0.20733,0.35156 -0.29747,0.4417c-0.08414,0.08414 -0.21034,0.1262 -0.3786,0.1262c-0.15024,0 -0.28846,-0.04808 -0.41466,-0.14423c-0.12019,-0.10216 -0.18029,-0.23137 -0.18029,-0.38762c0,-0.3726 0.20132,-0.72716 0.60396,-1.0637c0.40264,-0.33654 1.03665,-0.50481 1.90203,-0.50481c0.8774,0 1.51742,0.15324 1.92006,0.45973c0.40865,0.30048 0.60096,0.91346 0.57692,1.83893l-0.02704,1.34314c-0.01202,0.41466 0.03005,0.7542 0.1262,1.01862c0.10216,0.26442 0.15324,0.46574 0.15324,0.60396c0,0.15024 -0.06911,0.28545 -0.20733,0.40565c-0.13221,0.11418 -0.27945,0.17127 -0.4417,0.17127c-0.29447,0 -0.60396,-0.27043 -0.92848,-0.81129zM232.7691,181.09975c-0.21635,0.07812 -0.57091,0.16827 -1.0637,0.27043c-0.48678,0.09615 -0.83533,0.20733 -1.04567,0.33353c-0.20432,0.1262 -0.30649,0.30949 -0.30649,0.54988c0,0.21034 0.08113,0.39363 0.24339,0.54988c0.16827,0.15625 0.39964,0.23437 0.69411,0.23437c0.31851,0 0.61298,-0.08714 0.88341,-0.26142c0.27043,-0.17428 0.4357,-0.3786 0.49579,-0.61298c0.06611,-0.24038 0.09916,-0.59495 0.09916,-1.0637zM240.69743,180.4417v2.35275c0,0.30649 -0.01502,0.52884 -0.04507,0.66706c-0.02404,0.13822 -0.09916,0.26142 -0.22536,0.36959c-0.12019,0.10216 -0.26743,0.15324 -0.4417,0.15324c-0.15625,0 -0.30048,-0.04507 -0.43269,-0.13522c-0.13221,-0.09615 -0.21635,-0.21935 -0.2524,-0.36959c-0.03005,-0.15024 -0.04507,-0.3786 -0.04507,-0.68509v-2.06429c0,-0.57692 -0.08714,-0.96454 -0.26142,-1.16285c-0.16827,-0.19832 -0.40264,-0.29747 -0.70312,-0.29747c-0.27043,0 -0.51081,0.07812 -0.72115,0.23437c-0.20432,0.15625 -0.34856,0.35457 -0.43269,0.59495c-0.08414,0.23437 -0.1262,0.63702 -0.1262,1.20793v1.48737c0,0.30048 -0.01202,0.51983 -0.03606,0.65805c-0.02404,0.13221 -0.10216,0.25541 -0.23437,0.36959c-0.1262,0.10817 -0.27344,0.16226 -0.4417,0.16226c-0.15625,0 -0.30048,-0.04808 -0.43269,-0.14423c-0.13221,-0.09615 -0.21334,-0.21635 -0.24339,-0.36058c-0.03005,-0.14423 -0.04507,-0.3726 -0.04507,-0.68509v-3.54265c0,-0.31851 0.01502,-0.54086 0.04507,-0.66706c0.03005,-0.1262 0.10517,-0.23137 0.22536,-0.3155c0.1262,-0.08414 0.26442,-0.1262 0.41466,-0.1262c0.13822,0 0.28245,0.05709 0.43269,0.17127c0.15625,0.10817 0.23437,0.3756 0.23437,0.80228c0.47476,-0.64904 1.09074,-0.97355 1.84795,-0.97355c0.28846,0 0.57091,0.05709 0.84735,0.17127c0.28245,0.10817 0.51081,0.28545 0.68509,0.53185c0.18029,0.24038 0.28846,0.48978 0.32452,0.74819c0.04207,0.25841 0.0631,0.54086 0.0631,0.84735zM245.08428,180.02704c0,-1.21995 0.32752,-2.1935 0.98257,-2.92066c0.65504,-0.72716 1.57151,-1.09074 2.74939,-1.09074c1.24398,0 2.18749,0.36658 2.83051,1.09975c0.64904,0.73317 0.97355,1.68869 0.97355,2.86657c0,1.1899 -0.32151,2.15444 -0.96454,2.89362c-0.64303,0.73918 -1.57451,1.10877 -2.79446,1.10877c-1.21995,0 -2.15444,-0.36658 -2.80347,-1.09975c-0.64904,-0.73918 -0.97355,-1.6917 -0.97355,-2.85756zM251.03377,180c0,-0.84134 -0.19231,-1.50841 -0.57692,-2.00119c-0.3786,-0.4988 -0.91346,-0.74819 -1.60456,-0.74819c-0.63702,0 -1.16285,0.22837 -1.57752,0.68509c-0.40865,0.45673 -0.61298,1.14483 -0.61298,2.06429c0,0.90745 0.20733,1.59254 0.62199,2.05528c0.41466,0.45673 0.93449,0.68509 1.55949,0.68509c0.60697,0 1.12379,-0.22837 1.55047,-0.68509c0.42668,-0.45673 0.64002,-1.14182 0.64002,-2.05528zM258.28709,183.84914h-3.64181c-0.39062,0 -0.64603,-0.08414 -0.76622,-0.2524c-0.11418,-0.16827 -0.17127,-0.32151 -0.17127,-0.45973c0,-0.26442 0.13822,-0.58593 0.41466,-0.96454c0.28245,-0.3786 0.80529,-0.88641 1.5685,-1.52343c0.76322,-0.63702 1.25901,-1.09375 1.48737,-1.37019c0.23437,-0.28245 0.35156,-0.59795 0.35156,-0.94651c0,-0.34856 -0.12019,-0.625 -0.36058,-0.82932c-0.23437,-0.20432 -0.51683,-0.30649 -0.84735,-0.30649c-0.28846,0 -0.54086,0.07812 -0.75721,0.23437c-0.21635,0.15024 -0.3756,0.3726 -0.47776,0.66706c-0.09615,0.29447 -0.19231,0.50781 -0.28846,0.64002c-0.09615,0.1262 -0.2494,0.1893 -0.45973,0.1893c-0.17428,0 -0.32151,-0.05709 -0.4417,-0.17127c-0.12019,-0.11418 -0.18029,-0.26743 -0.18029,-0.45973c0,-0.53485 0.22837,-1.03365 0.68509,-1.49639c0.45673,-0.46875 1.10276,-0.70312 1.93809,-0.70312c0.90144,0 1.56249,0.21935 1.98316,0.65805c0.42067,0.4387 0.63101,0.95252 0.63101,1.54146c0,0.46274 -0.13822,0.90444 -0.41466,1.32511c-0.27644,0.41466 -0.71214,0.86237 -1.30708,1.34314c-0.58894,0.47476 -0.96754,0.79327 -1.13581,0.95552c-0.16827,0.16226 -0.36358,0.39062 -0.58593,0.68509h2.57811c0.39062,0 0.65504,0.05709 0.79327,0.17127c0.14423,0.10817 0.21635,0.25841 0.21635,0.45072c0,0.20432 -0.0631,0.36058 -0.1893,0.46875c-0.1262,0.10216 -0.33353,0.15324 -0.62199,0.15324zM265.0658,177.34977v1.96513h2.3167c0.27644,0 0.46574,0.01502 0.56791,0.04507c0.10817,0.03005 0.20132,0.09916 0.27945,0.20733c0.08414,0.10216 0.1262,0.21635 0.1262,0.34255c0,0.16226 -0.06009,0.30649 -0.18029,0.43269c-0.12019,0.12019 -0.38461,0.18029 -0.79327,0.18029h-2.3167v2.16345c0,0.31851 -0.01202,0.55288 -0.03606,0.70312c-0.02404,0.15024 -0.09315,0.28846 -0.20733,0.41466c-0.11418,0.12019 -0.29447,0.18029 -0.54086,0.18029c-0.23437,0 -0.40865,-0.06009 -0.52283,-0.18029c-0.11418,-0.1262 -0.18329,-0.26743 -0.20733,-0.42368c-0.02404,-0.16226 -0.03606,-0.39363 -0.03606,-0.69411v-5.23735c0,-0.55889 0.03906,-0.8774 0.11719,-0.95552c0.08414,-0.08414 0.17428,-0.16226 0.27043,-0.23437c0.09615,-0.07812 0.39964,-0.11719 0.91045,-0.11719h3.06489c0.27644,0 0.46875,0.01202 0.57692,0.03606c0.10817,0.01803 0.20733,0.08113 0.29747,0.1893c0.09014,0.10216 0.13522,0.22837 0.13522,0.3786c0,0.14423 -0.04507,0.27043 -0.13522,0.3786c-0.08414,0.10817 -0.18329,0.17428 -0.29747,0.19832c-0.10817,0.01803 -0.30048,0.02704 -0.57692,0.02704zM270.5324,176.07875c0.1863,0 0.34555,0.06911 0.47776,0.20733c0.13822,0.13822 0.20733,0.30048 0.20733,0.48678c0,0.19231 -0.06911,0.35757 -0.20733,0.49579c-0.13221,0.13822 -0.29147,0.20733 -0.47776,0.20733c-0.19231,0 -0.35757,-0.06911 -0.49579,-0.20733c-0.13822,-0.13822 -0.20733,-0.30348 -0.20733,-0.49579c0,-0.1863 0.06911,-0.34856 0.20733,-0.48678c0.13822,-0.13822 0.30348,-0.20733 0.49579,-0.20733zM271.23552,179.31491v3.47955c0,0.34255 -0.01502,0.57692 -0.04507,0.70312c-0.03005,0.1262 -0.11118,0.24038 -0.24339,0.34255c-0.1262,0.09615 -0.26442,0.14423 -0.41466,0.14423c-0.15625,0 -0.30048,-0.04808 -0.43269,-0.14423c-0.13221,-0.09615 -0.21635,-0.21034 -0.2524,-0.34255c-0.03005,-0.13221 -0.04507,-0.36658 -0.04507,-0.70312v-3.46152c0,-0.31851 0.01202,-0.54387 0.03606,-0.67608c0.02404,-0.13221 0.09916,-0.2494 0.22536,-0.35156c0.13221,-0.10817 0.28245,-0.16226 0.45072,-0.16226c0.16827,0 0.3125,0.04808 0.43269,0.14423c0.1262,0.09014 0.20432,0.20733 0.23437,0.35156c0.03606,0.14423 0.05409,0.36959 0.05409,0.67608zM274.15229,177.19653v5.59793c0,0.34856 -0.01502,0.58593 -0.04507,0.71214c-0.03005,0.12019 -0.11118,0.23137 -0.24339,0.33353c-0.1262,0.09615 -0.26442,0.14423 -0.41466,0.14423c-0.15625,0 -0.30048,-0.04808 -0.43269,-0.14423c-0.13221,-0.09615 -0.21635,-0.21034 -0.2524,-0.34255c-0.03005,-0.13221 -0.04507,-0.36658 -0.04507,-0.70312v-5.59793c0,-0.35457 0.01502,-0.59194 0.04507,-0.71214c0.03606,-0.1262 0.11719,-0.23437 0.24339,-0.32452c0.13221,-0.09615 0.27344,-0.14423 0.42368,-0.14423c0.17428,0 0.32452,0.05108 0.45072,0.15324c0.13221,0.09615 0.21034,0.21334 0.23437,0.35156c0.02404,0.13221 0.03606,0.35757 0.03606,0.67608zM275.87016,178.26924v-0.85637c0,-0.35457 0.01502,-0.59495 0.04507,-0.72115c0.03005,-0.13221 0.10817,-0.24639 0.23437,-0.34255c0.1262,-0.10216 0.27344,-0.15324 0.4417,-0.15324c0.15024,0 0.28846,0.04507 0.41466,0.13522c0.1262,0.09014 0.20733,0.20132 0.24339,0.33353c0.04207,0.13221 0.0631,0.34255 0.0631,0.63101v0.97355h0.27945c0.34856,0 0.57993,0.04507 0.69411,0.13522c0.11418,0.08414 0.17127,0.20733 0.17127,0.36959c0,0.35457 -0.29447,0.53185 -0.88341,0.53185h-0.26142v2.65023c0,0.36058 0.02404,0.60697 0.07212,0.73918c0.05409,0.1262 0.1893,0.1893 0.40565,0.1893c0.10817,0 0.22536,-0.01502 0.35156,-0.04507c0.13221,-0.03005 0.23137,-0.04507 0.29747,-0.04507c0.14423,0 0.26142,0.04808 0.35156,0.14423c0.09014,0.09014 0.13522,0.20132 0.13522,0.33353c0,0.47476 -0.49579,0.71214 -1.48737,0.71214c-0.48077,0 -0.83533,-0.09014 -1.0637,-0.27043c-0.22235,-0.18029 -0.36358,-0.39663 -0.42368,-0.64904c-0.05409,-0.25841 -0.08113,-0.59194 -0.08113,-1.0006v-2.7584h-0.1893c-0.42067,0 -0.63101,-0.17127 -0.63101,-0.51382c0,-0.34856 0.22235,-0.52283 0.66706,-0.52283zM283.44837,181.41526h-2.81249c0.01202,0.53485 0.15625,0.9375 0.43269,1.20793c0.28245,0.27043 0.61899,0.40565 1.00961,0.40565c0.48077,0 0.93149,-0.21034 1.35216,-0.63101c0.17428,-0.17428 0.30048,-0.28245 0.3786,-0.32452c0.08414,-0.04207 0.17728,-0.0631 0.27945,-0.0631c0.13221,0 0.24339,0.04207 0.33353,0.1262c0.09014,0.07812 0.13522,0.17728 0.13522,0.29747c0,0.31851 -0.21935,0.65805 -0.65805,1.01862c-0.4387,0.35457 -1.03665,0.53185 -1.79386,0.53185c-0.96153,0 -1.6917,-0.27043 -2.19049,-0.81129c-0.49279,-0.54687 -0.73918,-1.24999 -0.73918,-2.10936c0,-0.87139 0.24639,-1.57451 0.73918,-2.10936c0.4988,-0.54086 1.1899,-0.81129 2.07331,-0.81129c0.84735,0 1.49939,0.25541 1.95612,0.76622c0.46274,0.51081 0.69411,1.0637 0.69411,1.65865c0,0.25841 -0.07812,0.46574 -0.23437,0.62199c-0.15024,0.15024 -0.46875,0.22536 -0.95552,0.22536zM280.63588,180.60396h2.61417c-0.01803,-0.48077 -0.15024,-0.84435 -0.39663,-1.09074c-0.24639,-0.2524 -0.54988,-0.3786 -0.91045,-0.3786c-0.75721,0 -1.1929,0.48978 -1.30708,1.46934zM285.83286,182.79446v-3.67787c0,-0.64904 0.23738,-0.97355 0.71214,-0.97355c0.45072,0 0.68209,0.30048 0.69411,0.90144c0.29447,-0.60096 0.70613,-0.90144 1.23497,-0.90144c0.27644,0 0.5619,0.07512 0.85637,0.22536c0.29447,0.14423 0.4417,0.34255 0.4417,0.59495c0,0.17428 -0.06009,0.31851 -0.18029,0.43269c-0.11418,0.11418 -0.24038,0.17127 -0.3786,0.17127c-0.07812,0 -0.21935,-0.03005 -0.42368,-0.09014c-0.19832,-0.06611 -0.36658,-0.09916 -0.50481,-0.09916c-0.34255,0 -0.59795,0.17428 -0.76622,0.52283c-0.16827,0.34856 -0.2524,1.01862 -0.2524,2.01021v0.82932c0,0.36658 -0.01502,0.61298 -0.04507,0.73918c-0.03005,0.1262 -0.10817,0.24339 -0.23437,0.35156c-0.1262,0.10216 -0.27043,0.15324 -0.43269,0.15324c-0.15625,0 -0.29747,-0.04507 -0.42368,-0.13522c-0.1262,-0.09615 -0.20733,-0.20733 -0.24339,-0.33353c-0.03606,-0.13221 -0.05409,-0.3726 -0.05409,-0.72115z" fill="#12ff00" stroke-width="1" stroke-linecap="square"/><path d="M208.6286,191.81773v-25.4h8.2v25.4z" fill="none" stroke-width="0" stroke-linecap="butt"/></g></g></svg>