<svg version="1.1" xmlns="http://www.w3.org/2000/svg" xmlns:xlink="http://www.w3.org/1999/xlink" width="274.25006" height="98.2271" viewBox="0,0,274.25006,98.2271"><g transform="translate(-7.57307,-255.60606)"><g data-paper-data="{&quot;isPaintingLayer&quot;:true}" fill-rule="nonzero" stroke-linejoin="miter" stroke-miterlimit="10" stroke-dasharray="" stroke-dashoffset="0" style="mix-blend-mode: normal"><path d="M48.22138,286.15921c0,-2.44691 1.17119,-3.97859 2.86783,-3.97859c12.18505,0 150.0863,0 174.49647,0c2.38047,0 3.68163,1.77234 3.68163,4.54696c0,8.75983 0,27.50991 0,32.01816c0,1.91094 -1.13122,3.78913 -3.21382,3.78913c-12.97854,0 -62.90537,0 -106.25582,0c-33.65587,0 -63.34785,0 -68.70847,0c-1.69664,0 -2.86783,-1.91238 -2.86783,-3.22076c0,-4.00916 0,-24.41724 0,-33.1549z" fill="#000000" stroke="#000000" stroke-width="15" stroke-linecap="butt"/><path d="M48.22138,286.15921c0,-2.44691 1.17119,-3.97859 2.86783,-3.97859c12.18505,0 150.0863,0 174.49647,0c2.38047,0 3.68163,1.77234 3.68163,4.54696c0,8.75983 0,27.50991 0,32.01816c0,1.91094 -1.13122,3.78913 -3.21382,3.78913c-23.05464,0 -162.69892,0 -174.96429,0c-1.69664,0 -2.86783,-1.91238 -2.86783,-3.22076c0,-4.00916 0,-24.41724 0,-33.1549z" fill="#000000" stroke="#ffffff" stroke-width="7" stroke-linecap="butt"/><path d="M48.22138,286.15921c0,-2.44691 1.17119,-3.97859 2.86783,-3.97859c12.18505,0 150.0863,0 174.49647,0c2.38047,0 3.68163,1.77234 3.68163,4.54696c0,8.75983 0,27.50991 0,32.01816c0,1.91094 -1.13122,3.78913 -3.21382,3.78913c-23.05464,0 -162.69892,0 -174.96429,0c-1.69664,0 -2.86783,-1.91238 -2.86783,-3.22076c0,-4.00916 0,-24.41724 0,-33.1549z" fill="#000000" stroke="none" stroke-width="0" stroke-linecap="butt"/><path d="M177.78082,285.17233v34.62176h-74.93602v-34.62176z" fill="#000000" stroke="#000000" stroke-width="2" stroke-linecap="butt"/><path d="M90.99439,316.78603c-0.28734,0 -0.50611,-0.10775 -0.65631,-0.32326c-0.14367,-0.20897 -0.2155,-0.46692 -0.2155,-0.77385c0,-4.66272 -0.08816,-8.5973 -0.26448,-11.80373c-0.53549,-0.09143 -0.91426,-0.13714 -1.13629,-0.13714c-0.91426,0 -1.57057,0.07837 -1.96892,0.2351c0,1.24731 0.09796,3.13133 0.29387,5.65208c0.18285,2.67094 0.27428,4.56476 0.27428,5.68146c0,0.22203 -0.06857,0.42774 -0.20571,0.61712c-0.13061,0.18938 -0.29714,0.28407 -0.49958,0.28407c-0.28734,0 -0.55508,-0.51264 -0.80324,-1.53791c-0.35917,-1.51506 -0.64978,-4.69211 -0.87181,-9.53115c-0.15673,-3.27174 -0.2351,-6.79164 -0.2351,-10.55969c-0.01959,-0.69222 -0.02939,-1.67179 -0.02939,-2.93869c0,-0.40489 0.18938,-0.60733 0.56815,-0.60733c0.22203,0 0.4506,0.05551 0.68569,0.16653c0.2351,0.11102 0.40815,0.2351 0.51917,0.37223c-0.09143,0.71181 -0.13714,1.54771 -0.13714,2.50768c0,0.93385 0.04571,2.07014 0.13714,3.40888c0.0653,1.53465 0.09796,2.6938 0.09796,3.47745v0.59753c-0.01959,0.18285 -0.02939,0.39509 -0.02939,0.63672c0,0.22203 0.02286,0.51264 0.06857,0.87181c0.13061,0 0.35264,-0.0098 0.6661,-0.02939c0.31346,-0.02612 0.62365,-0.06204 0.93058,-0.10775c0.73794,-0.0653 1.28649,-0.09796 1.64567,-0.09796c0,-1.93953 -0.02286,-3.7354 -0.06857,-5.3876l-0.06857,-5.57371v-0.91099c0.28734,0 0.54203,0.05224 0.76406,0.15673c0.22857,0.09796 0.39835,0.2253 0.50937,0.38203c0.19591,0.24816 0.31673,0.67263 0.36244,1.27343v0.76406c0,1.91994 0.11102,5.58677 0.33305,11.00049c0.20244,4.90434 0.30366,8.58097 0.30366,11.02988c0,0.31346 -0.09469,0.591 -0.28407,0.83263c-0.18938,0.24816 -0.41795,0.37223 -0.68569,0.37223zM100.55775,317.22684c-0.6008,0 -1.14609,-0.20244 -1.63587,-0.60733c-0.48978,-0.39835 -0.91426,-0.94365 -1.27343,-1.63587c-0.64651,-1.2016 -1.1265,-2.85053 -1.43996,-4.94679c-0.22203,-1.44975 -0.38856,-3.12154 -0.49958,-5.01536l-0.02939,-1.77301v-1.8024c-0.02612,-0.58121 -0.03918,-1.28323 -0.03918,-2.10606c0,-1.33873 0.05551,-2.52074 0.16653,-3.54602c0.09143,-1.07099 0.31346,-2.12892 0.6661,-3.17378c0.35917,-0.91426 0.87181,-1.56077 1.53791,-1.93953c0.40489,-0.18285 0.80651,-0.27428 1.20486,-0.27428c1.182,0 2.11912,0.47019 2.81135,1.41057c0.75753,1.04487 1.26037,2.21381 1.50853,3.50683c0.35264,1.56077 0.55182,3.05297 0.59753,4.4766c0.09143,1.58689 0.13714,3.08236 0.13714,4.4864v1.90035c0,0.37876 -0.05551,1.09384 -0.16653,2.14524c-0.09143,0.82283 -0.13714,1.52485 -0.13714,2.10606v0.12734c-0.13061,0.62692 -0.19591,1.36486 -0.19591,2.21381c0,0.62039 -0.13387,1.2669 -0.40162,1.93953c-0.26775,0.6661 -0.64651,1.23425 -1.13629,1.70444c-0.49631,0.53549 -1.05466,0.80324 -1.67505,0.80324zM100.62632,315.38525c0.44407,0 0.82283,-0.41142 1.13629,-1.23425c0.26775,-0.73794 0.46039,-1.63587 0.57794,-2.6938c0.12408,-1.05793 0.23183,-2.25626 0.32326,-3.595c0.04571,-0.58121 0.06857,-1.32894 0.06857,-2.2432l-0.03918,-3.07583c-0.04571,-1.2016 -0.17959,-2.70359 -0.40162,-4.50599c-0.17632,-1.54118 -0.50937,-2.90277 -0.99915,-4.08478c-0.22203,-0.55508 -0.50284,-0.98936 -0.84242,-1.30282c-0.33305,-0.31346 -0.68896,-0.47019 -1.06772,-0.47019c-0.55508,0 -0.9665,0.43427 -1.23425,1.30282c-0.33305,0.91426 -0.55508,1.91994 -0.6661,3.01705c-0.13714,1.17548 -0.2155,2.29871 -0.2351,3.3697l-0.02939,1.10691c-0.02612,0.31346 -0.03918,0.73794 -0.03918,1.27343v0.12734c0,1.49546 0.15673,3.33378 0.47019,5.51494c0.35917,2.96481 0.88161,5.07087 1.5673,6.31818c0.4506,0.78365 0.92079,1.17548 1.41057,1.17548zM111.38793,316.75665c-0.82283,0 -1.23425,-0.84895 -1.23425,-2.54686c0,-1.06446 -0.46366,-4.89128 -1.39098,-11.48048c-0.92079,-6.58919 -1.50526,-10.18419 -1.75342,-10.78499c0.28734,-0.53549 0.6759,-0.80324 1.16568,-0.80324c0.5159,0 0.99589,1.15915 1.43996,3.47745c0.42448,2.45544 0.78038,5.26352 1.06772,8.42424l0.2351,2.71339c0.13714,1.51506 0.2155,2.28238 0.2351,2.30197l0.33305,-2.80155l0.20571,-1.74362c0.28734,-2.54033 0.47672,-4.33293 0.56815,-5.3778c0.11102,-1.38445 0.16653,-2.33136 0.16653,-2.84073v-0.63672c0,-0.24816 0.08816,-0.48325 0.26448,-0.70529c0.17632,-0.22203 0.37876,-0.33305 0.60733,-0.33305c0.79671,0 1.19507,0.33305 1.19507,0.99915v0.50937c0,1.2669 0.12734,2.63176 0.38203,4.09457c0.26122,1.45628 0.63672,3.1999 1.1265,5.23087c0.31346,1.182 0.62692,2.6187 0.94038,4.31008c0.0653,-0.73794 0.27428,-2.52074 0.62692,-5.34841c0.35917,-2.58605 0.62039,-4.7868 0.78365,-6.60225c0.16979,-1.81546 0.25469,-3.51663 0.25469,-5.10352c0,-0.50937 0.08163,-0.86854 0.24489,-1.07752c0.16979,-0.2155 0.48978,-0.32326 0.95997,-0.32326c0.26775,0 0.50611,0.08489 0.71508,0.25469c0.2155,0.16326 0.32326,0.37876 0.32326,0.64651c0,0.24816 -0.11102,0.50611 -0.33305,0.77385c0,1.59995 -0.12408,3.47745 -0.37223,5.63249c-0.24162,2.14851 -0.54203,4.19253 -0.9012,6.13206c-0.35264,1.89382 -0.65304,3.92805 -0.9012,6.10268c-0.24816,2.17463 -0.37223,4.08478 -0.37223,5.73044c0,0.35917 -0.08489,0.64325 -0.25469,0.85222c-0.16326,0.2155 -0.41142,0.32326 -0.74447,0.32326c-0.24162,0 -0.53223,-0.45713 -0.87181,-1.37139c-0.42448,-1.27343 -0.94691,-3.80397 -1.5673,-7.59161l-0.60733,-3.90846l-0.29387,-2.17463c-0.29387,2.03096 -0.51264,3.66357 -0.65631,4.89781c-0.14367,1.23425 -0.28081,2.70033 -0.41142,4.39824c-0.15673,1.62607 -0.2351,3.22929 -0.2351,4.80965c0,0.22203 -0.09469,0.43427 -0.28407,0.63672c-0.18938,0.20244 -0.40815,0.30366 -0.65631,0.30366zM133.18906,316.52155c-0.33305,0 -0.59427,-0.16 -0.78365,-0.47999c-0.18938,-0.32652 -0.28407,-0.72488 -0.28407,-1.19507c0,-0.73141 0.04245,-1.6326 0.12734,-2.70359l0.06857,-0.87181l0.06857,-1.77301c0,-0.77712 -0.07837,-2.51421 -0.2351,-5.21127c-0.15673,-2.69706 -0.2351,-4.43742 -0.2351,-5.22107c0,-0.0653 0.00327,-0.19265 0.0098,-0.38203c0.01306,-0.18938 0.01959,-0.48325 0.01959,-0.88161c0.02612,-0.4506 0.03918,-0.99915 0.03918,-1.64567c0,-1.62607 -0.11102,-2.66114 -0.33305,-3.10521c-0.13714,0 -0.42774,0.03265 -0.87181,0.09796l-0.94038,0.06857c-0.28734,0 -0.54203,-0.08163 -0.76406,-0.24489c-0.22203,-0.16979 -0.33305,-0.38856 -0.33305,-0.65631c0,-0.26775 0.26775,-0.50284 0.80324,-0.70529c0.77712,-0.26775 2.10279,-0.45713 3.97703,-0.56815c0.75753,-0.04571 1.21466,-0.06857 1.37139,-0.06857c0.26775,0 0.51264,0.09143 0.73467,0.27428c0.22203,0.17632 0.33305,0.39835 0.33305,0.6661c0,0.26775 -0.09469,0.48652 -0.28407,0.65631c-0.18938,0.16326 -0.42774,0.24489 -0.71508,0.24489l-0.60733,-0.02939c-0.17632,-0.02612 -0.3755,-0.03918 -0.59753,-0.03918h-0.33305c0.15673,1.51506 0.2351,2.88644 0.2351,4.11416l-0.03918,2.13545c-0.01959,0.64651 -0.02939,1.37139 -0.02939,2.17463c0,1.07099 0.04245,2.35422 0.12734,3.84968c0.11102,1.84811 0.16653,3.12807 0.16653,3.83989c0,0.84895 0.04571,1.85137 0.13714,3.00726c0.09143,1.182 0.13714,2.18769 0.13714,3.01705c0,1.09058 -0.32326,1.63587 -0.96977,1.63587zM143.8193,317.22684c-0.6008,0 -1.14609,-0.20244 -1.63587,-0.60733c-0.48978,-0.39835 -0.91426,-0.94365 -1.27343,-1.63587c-0.64651,-1.2016 -1.1265,-2.85053 -1.43996,-4.94679c-0.22203,-1.44975 -0.38856,-3.12154 -0.49958,-5.01536l-0.02939,-1.77301v-1.8024c-0.02612,-0.58121 -0.03918,-1.28323 -0.03918,-2.10606c0,-1.33873 0.05551,-2.52074 0.16653,-3.54602c0.09143,-1.07099 0.31346,-2.12892 0.6661,-3.17378c0.35917,-0.91426 0.87181,-1.56077 1.53791,-1.93953c0.40489,-0.18285 0.80651,-0.27428 1.20486,-0.27428c1.182,0 2.11912,0.47019 2.81135,1.41057c0.75753,1.04487 1.26037,2.21381 1.50853,3.50683c0.35264,1.56077 0.55182,3.05297 0.59753,4.4766c0.09143,1.58689 0.13714,3.08236 0.13714,4.4864v1.90035c0,0.37876 -0.05551,1.09384 -0.16653,2.14524c-0.09143,0.82283 -0.13714,1.52485 -0.13714,2.10606v0.12734c-0.13061,0.62692 -0.19591,1.36486 -0.19591,2.21381c0,0.62039 -0.13387,1.2669 -0.40162,1.93953c-0.26775,0.6661 -0.64651,1.23425 -1.13629,1.70444c-0.49631,0.53549 -1.05466,0.80324 -1.67505,0.80324zM143.88787,315.38525c0.44407,0 0.82283,-0.41142 1.13629,-1.23425c0.26775,-0.73794 0.46039,-1.63587 0.57794,-2.6938c0.12408,-1.05793 0.23183,-2.25626 0.32326,-3.595c0.04571,-0.58121 0.06857,-1.32894 0.06857,-2.2432l-0.03918,-3.07583c-0.04571,-1.2016 -0.17959,-2.70359 -0.40162,-4.50599c-0.17632,-1.54118 -0.50937,-2.90277 -0.99915,-4.08478c-0.22203,-0.55508 -0.50284,-0.98936 -0.84242,-1.30282c-0.33305,-0.31346 -0.68896,-0.47019 -1.06772,-0.47019c-0.55508,0 -0.9665,0.43427 -1.23425,1.30282c-0.33305,0.91426 -0.55508,1.91994 -0.6661,3.01705c-0.13714,1.17548 -0.2155,2.29871 -0.2351,3.3697l-0.02939,1.10691c-0.02612,0.31346 -0.03918,0.73794 -0.03918,1.27343v0.12734c0,1.49546 0.15673,3.33378 0.47019,5.51494c0.35917,2.96481 0.88161,5.07087 1.5673,6.31818c0.4506,0.78365 0.92079,1.17548 1.41057,1.17548zM158.5636,316.453c-0.24816,0 -0.44407,-0.10449 -0.58774,-0.31346c-0.14367,-0.2155 -0.2155,-0.47999 -0.2155,-0.79345l0.06857,-5.6129c0.0653,-2.71666 0.09796,-4.82272 0.09796,-6.31818c0,-5.19168 -0.2906,-9.16871 -0.87181,-11.93108c0.33305,-0.5159 0.75753,-0.77385 1.27343,-0.77385c0.82283,0 1.57383,0.18612 2.25299,0.55835c0.67916,0.3657 1.24404,0.85875 1.69464,1.47914c0.86854,1.29302 1.30282,2.74278 1.30282,4.34926c0,1.67179 -0.35917,3.16725 -1.07752,4.4864c-0.71181,1.31261 -1.74689,2.33463 -3.10521,3.06603l0.06857,3.37949l0.06857,1.77301c0.01959,0.37876 0.02939,0.92406 0.02939,1.63587c0.0653,1.49546 0.09796,2.71012 0.09796,3.64397c0,0.42448 -0.08816,0.76079 -0.26448,1.00895c-0.17632,0.24162 -0.45387,0.36244 -0.83263,0.36244zM159.32766,303.04276c0.86854,-0.82283 1.50853,-1.68485 1.91994,-2.58605c0.41795,-0.9012 0.62692,-1.91994 0.62692,-3.05624v-0.03918c0,-0.50937 -0.05551,-1.15588 -0.16653,-1.93953c-0.07184,-0.26775 -0.19591,-0.53549 -0.37223,-0.80324c-0.17632,-0.26775 -0.27754,-0.42121 -0.30366,-0.46039c-0.15673,-0.22857 -0.56815,-0.57468 -1.23425,-1.03834l-0.87181,-0.63672c0,1.13629 0.06857,2.89624 0.20571,5.27984zM168.59376,316.65869c-0.29387,0 -0.55835,-0.10775 -0.79345,-0.32326c-0.22857,-0.20897 -0.34285,-0.46039 -0.34285,-0.75426c0,-0.19591 0.04245,-0.4408 0.12734,-0.73467c0.07184,-0.31346 0.10775,-0.54529 0.10775,-0.69549c0,-1.98525 -0.11428,-5.79901 -0.34285,-11.44129c-0.22203,-4.81292 -0.33305,-8.61362 -0.33305,-11.40211c0,-0.19591 0.07837,-0.35591 0.2351,-0.47999c0.15673,-0.12408 0.34611,-0.18612 0.56815,-0.18612c0.26775,0 0.50284,0.09469 0.70529,0.28407c0.20244,0.18938 0.30366,0.41795 0.30366,0.68569c0,1.33873 0.0653,3.34684 0.19591,6.02431c0.11102,2.95828 0.16653,4.96312 0.16653,6.01452l0.03918,0.40162v0.40162v0.2351v0.16653c0.0653,1.93953 0.09796,4.83577 0.09796,8.68872v0.87181h2.57625c0.46366,0.33305 0.69549,0.6661 0.69549,0.99915c0,0.24816 -0.08489,0.46692 -0.25469,0.65631c-0.16326,0.18938 -0.35591,0.28407 -0.57794,0.28407c-0.0653,0 -0.18938,-0.02286 -0.37223,-0.06857l-0.12734,-0.02939c-0.13714,0.01959 -0.34938,0.02939 -0.63672,0.02939h-0.56815c-0.15673,-0.01959 -0.33632,-0.02939 -0.53876,-0.02939c-0.22203,0.26775 -0.53223,0.40162 -0.93058,0.40162zM182.0358,316.28646c-0.35917,0 -0.62365,-0.0653 -0.79345,-0.19591c-0.16326,-0.13714 -0.24489,-0.36244 -0.24489,-0.6759v-4.37865c-0.29387,-0.20244 -0.84242,-0.37876 -1.64567,-0.52896c-0.79671,-0.15673 -1.55424,-0.25795 -2.27259,-0.30366c-0.24162,0.47019 -0.41795,1.03834 -0.52896,1.70444l-0.13714,0.6661c-0.01959,0.15673 -0.08489,0.50284 -0.19591,1.03834c-0.11102,0.53549 -0.2351,0.99915 -0.37223,1.39098c-0.13061,0.3853 -0.26448,0.68896 -0.40162,0.91099c-0.84895,0 -1.33873,-0.22203 -1.46934,-0.6661c0.24816,-0.35264 0.5257,-1.40077 0.83263,-3.1444l1.10691,-6.11247c0.48978,-2.89951 0.94038,-5.37453 1.3518,-7.42509c0.41142,-2.05055 0.85222,-3.76479 1.32241,-5.1427c0.5159,-1.54118 1.00568,-2.31177 1.46934,-2.31177c0.47019,0 0.8261,0.08816 1.06772,0.26448c0,0.89467 0.21224,3.04644 0.63672,6.45532c0.4506,3.34358 0.6759,5.62922 0.6759,6.85694c0,1.182 0.12081,2.87339 0.36244,5.07414c0.22203,2.25299 0.33305,4.04886 0.33305,5.3876c0,0.75753 -0.3657,1.13629 -1.09711,1.13629zM180.29218,309.09646c0.17632,0 0.39835,-0.03265 0.6661,-0.09796c-0.0653,-0.97956 -0.17632,-2.19422 -0.33305,-3.64397c-0.50937,-5.03495 -0.76406,-8.12058 -0.76406,-9.25687v-0.27428c-0.22203,0.22203 -0.52896,1.23098 -0.92079,3.02685c-0.39183,1.79587 -0.75426,3.71907 -1.08731,5.76963c-0.33305,2.05055 -0.51264,3.40888 -0.53876,4.07498c0.94038,0.26775 1.93301,0.40162 2.97787,0.40162zM189.48585,316.68807c-0.22203,0 -0.41795,-0.07837 -0.58774,-0.2351c-0.16326,-0.15673 -0.24489,-0.34611 -0.24489,-0.56815l0.06857,-3.24235c0.0653,-1.44975 0.09796,-2.53054 0.09796,-3.24235c0,-0.64651 -0.10122,-1.60648 -0.30366,-2.87991c-0.22203,-1.24731 -0.33305,-2.21708 -0.33305,-2.9093c0,-0.84242 -0.12408,-1.80893 -0.37223,-2.89951c-0.24162,-1.09711 -0.55182,-2.14524 -0.93058,-3.1444c-0.35917,-0.95997 -0.66284,-1.99178 -0.91099,-3.09542c-0.24162,-1.10364 -0.36244,-2.06688 -0.36244,-2.88971c0,-0.15673 0.08816,-0.2906 0.26448,-0.40162c0.18285,-0.11102 0.3755,-0.16653 0.57794,-0.16653c0.24162,0 0.47346,0.25469 0.69549,0.76406c0.26775,0.58121 0.52243,1.39751 0.76406,2.44891c0.24816,1.04487 0.39509,1.66852 0.4408,1.87097l0.43101,2.30197l0.34285,1.46934c0.0653,-0.35264 0.12081,-0.81957 0.16653,-1.40077c0.13061,-1.84811 0.29714,-3.38602 0.49958,-4.61374c0.15673,-0.84895 0.33305,-1.49546 0.52896,-1.93953c0.22857,-0.48978 0.49631,-0.73467 0.80324,-0.73467c0.6008,0 0.9012,0.11102 0.9012,0.33305c0,1.27343 -0.26448,3.1444 -0.79345,5.6129c-0.53549,2.47503 -0.80324,4.35905 -0.80324,5.65208l-0.06857,0.53876c-0.04571,0.33305 -0.05877,0.53223 -0.03918,0.59753v0.53876c0,0.95997 0.03592,2.42932 0.10775,4.40803l0.05877,4.44722l0.06857,0.77385l0.06857,0.80324v0.83263c0,0.26775 -0.11102,0.49631 -0.33305,0.68569c-0.22203,0.18938 -0.48978,0.28407 -0.80324,0.28407z" fill="#ffffff" stroke="#ffffff" stroke-width="1.5" stroke-linecap="square"/><path d="M281.82313,304.71961c0,27.12466 -61.39297,49.11355 -137.12503,49.11355c-75.73206,0 -137.12503,-21.98889 -137.12503,-49.11355c0,-27.12466 61.39297,-49.11355 137.12503,-49.11355c75.73206,0 137.12503,21.98889 137.12503,49.11355z" fill="none" stroke="none" stroke-width="NaN" stroke-linecap="butt"/></g></g></svg>