<svg version="1.1" xmlns="http://www.w3.org/2000/svg" xmlns:xlink="http://www.w3.org/1999/xlink" width="108.00312" height="78.7738" viewBox="0,0,108.00312,78.7738"><g transform="translate(-186.0307,-140.6131)"><g data-paper-data="{&quot;isPaintingLayer&quot;:true}" fill-rule="nonzero" stroke-linecap="butt" stroke-linejoin="miter" stroke-miterlimit="10" stroke-dasharray="" stroke-dashoffset="0" style="mix-blend-mode: normal"><path d="M200.48081,193.28401c-0.11147,-9.26202 0,-20.38706 0,-25.89965c0,-13.54938 7.61045,-15.70689 18.77252,-15.70689c8.17827,0 26.52282,0 40.84761,0c10.89697,0 19.46779,3.14791 19.46779,15.20561c0,6.11768 0,17.69178 0,27.57059c0,12.10628 -8.0053,13.86886 -14.60085,13.86886c-8.366,0 -30.12486,0 -46.06221,0c-10.46825,0 -18.25106,-0.5966 -18.42487,-15.03852z" fill="#92a3a3" stroke="#030303" stroke-width="5"/><path d="M207.33079,166.92365c0,0 -0.61103,-3.61435 8.54992,-5.3815c4.76169,-0.91853 47.09415,-1.33577 51.5577,-0.04715c5.78888,1.67123 5.2242,5.42865 5.2242,5.42865z" fill="#4f6070" stroke="none" stroke-width="0"/><path d="M207.33079,175.24848c0,0 -0.61103,-3.61435 8.54992,-5.3815c4.76169,-0.91854 47.09415,-1.33577 51.5577,-0.04715c5.78888,1.67123 5.2242,5.42865 5.2242,5.42865z" fill="#4f6070" stroke="none" stroke-width="0"/><path d="M207.33079,183.39234c0,0 -0.61103,-3.61435 8.54992,-5.3815c4.76169,-0.91854 47.09415,-1.33577 51.5577,-0.04715c5.78888,1.67123 5.2242,5.42865 5.2242,5.42865z" fill="#4f6070" stroke="none" stroke-width="0"/><path d="M207.33079,191.17424c0,0 -0.61103,-3.61435 8.54992,-5.3815c4.76169,-0.91854 47.09415,-1.33577 51.5577,-0.04715c5.78888,1.67123 5.2242,5.42865 5.2242,5.42865z" fill="#4f6070" stroke="none" stroke-width="0"/><path d="M269.50321,159.77737c0,-1.14288 0.92648,-2.06936 2.06936,-2.06936c1.14288,0 2.06936,0.92648 2.06936,2.06936c0,1.14288 -0.92649,2.06937 -2.06936,2.06937c-1.14288,0 -2.06936,-0.92649 -2.06936,-2.06937z" fill="#7d8a8a" stroke="none" stroke-width="0.5"/><path d="M270.38439,200.11099c0,-1.14288 0.92648,-2.06937 2.06936,-2.06937c1.14288,0 2.06936,0.92649 2.06936,2.06937c0,1.14288 -0.92649,2.06937 -2.06936,2.06937c-1.14288,0 -2.06936,-0.92649 -2.06936,-2.06937z" fill="#7d8a8a" stroke="none" stroke-width="0.5"/><path d="M206.11471,201.35412c0,-1.14288 0.92648,-2.06937 2.06936,-2.06937c1.14288,0 2.06936,0.92649 2.06936,2.06937c0,1.14288 -0.92648,2.06936 -2.06936,2.06936c-1.14288,0 -2.06936,-0.92648 -2.06936,-2.06936z" fill="#7d8a8a" stroke="none" stroke-width="0.5"/><path d="M207.17686,159.52528c0,-1.14288 0.92648,-2.06936 2.06936,-2.06936c1.14288,0 2.06937,0.92648 2.06937,2.06936c0,1.14288 -0.92649,2.06937 -2.06937,2.06937c-1.14288,0 -2.06936,-0.92649 -2.06936,-2.06937z" fill="#7d8a8a" stroke="none" stroke-width="0.5"/><path d="M207.33079,199.3181c0,0 -0.61103,-3.61435 8.54992,-5.3815c4.76169,-0.91854 47.09415,-1.33577 51.5577,-0.04715c5.78888,1.67123 5.2242,5.42865 5.2242,5.42865z" fill="#4f6070" stroke="none" stroke-width="0"/><path d="M198.13483,153.89446c0,-1.45718 1.18127,-2.63846 2.63846,-2.63846c1.45718,0 2.63847,1.18127 2.63847,2.63846c0,1.45718 -1.18128,2.63847 -2.63847,2.63847c-1.45718,0 -2.63846,-1.18128 -2.63846,-2.63847z" fill="#7d8a8a" stroke="none" stroke-width="0.5"/><path d="M201.95579,203.95819c0,-1.28225 1.03946,-2.32172 2.32171,-2.32172c1.28225,0 2.32171,1.03946 2.32171,2.32172c0,1.28225 -1.03946,2.32171 -2.32171,2.32171c-1.28225,0 -2.32171,-1.03946 -2.32171,-2.32171z" fill="#7d8a8a" stroke="none" stroke-width="0.5"/><path d="M191.17311,160.46698c0,0 -0.91274,-5.399 12.77158,-8.03871c7.11286,-1.37207 70.34766,-1.99531 77.01518,-0.07042c8.64724,2.49643 7.80374,8.10913 7.80374,8.10913z" fill="#4f6070" stroke="none" stroke-width="0"/><path d="M191.17311,172.90233c0,0 -0.91274,-5.399 12.77158,-8.03871c7.11286,-1.37208 70.34766,-1.99531 77.01518,-0.07042c8.64724,2.49643 7.80374,8.10913 7.80374,8.10913z" fill="#4f6070" stroke="none" stroke-width="0"/><path d="M191.17311,185.06737c0,0 -0.91274,-5.399 12.77158,-8.03871c7.11286,-1.37208 70.34766,-1.99531 77.01518,-0.07042c8.64724,2.49643 7.80374,8.10913 7.80374,8.10913z" fill="#4f6070" stroke="none" stroke-width="0"/><path d="M191.17311,196.69171c0,0 -0.91274,-5.399 12.77158,-8.03871c7.11286,-1.37208 70.34766,-1.99531 77.01518,-0.07042c8.64724,2.49643 7.80374,8.10913 7.80374,8.10913z" fill="#4f6070" stroke="none" stroke-width="0"/><path d="M284.0442,149.79208c0,-1.70718 1.38394,-3.09113 3.09113,-3.09113c1.70718,0 3.09113,1.38394 3.09113,3.09113c0,1.70718 -1.38395,3.09115 -3.09113,3.09115c-1.70718,0 -3.09113,-1.38395 -3.09113,-3.09115z" fill="#7d8a8a" stroke="none" stroke-width="0.5"/><path d="M191.17311,208.85674c0,0 -0.91274,-5.399 12.77158,-8.03871c7.11286,-1.37208 70.34766,-1.99531 77.01518,-0.07042c8.64724,2.49643 7.80374,8.10913 7.80374,8.10913z" fill="#4f6070" stroke="none" stroke-width="0"/><g fill="#000000"><path d="M206.85326,200.88872c0,-1.11798 0.90628,-2.02427 2.02425,-2.02427c1.11798,0 2.02425,0.90629 2.02425,2.02427c0,1.11798 -0.90628,2.02425 -2.02425,2.02425c-1.11798,0 -2.02425,-0.90628 -2.02425,-2.02425z" stroke="none" stroke-width="0.5"/><path d="M188.5307,197.30095c-0.14517,-12.06274 0,-26.55184 0,-33.73138c0,-17.64652 9.91174,-20.45646 24.4491,-20.45646c10.65127,0 34.54297,0 53.19941,0c14.19208,0 25.35461,4.09979 25.35461,19.80358c0,7.96759 0,23.04154 0,35.90759c0,15.76705 -10.42602,18.06262 -19.01597,18.06262c-10.89577,0 -39.23425,0 -59.99082,0c-13.63371,0 -23.76995,-0.77701 -23.99632,-19.58598z" stroke="#030303" stroke-width="5"/><path d="M197.45206,162.96954c0,0 -0.7958,-4.70729 11.13531,-7.0088c6.20157,-1.19629 61.33482,-1.73968 67.14809,-0.06141c7.53937,2.1766 6.80393,7.07019 6.80393,7.07019z" stroke="none" stroke-width="0"/><path d="M197.45206,173.8117c0,0 -0.7958,-4.70729 11.13531,-7.0088c6.20157,-1.1963 61.33482,-1.73968 67.14809,-0.06141c7.53937,2.1766 6.80393,7.07019 6.80393,7.07019z" stroke="none" stroke-width="0"/><path d="M197.45206,184.41816c0,0 -0.7958,-4.70729 11.13531,-7.0088c6.20157,-1.1963 61.33482,-1.73968 67.14809,-0.06141c7.53937,2.1766 6.80393,7.07019 6.80393,7.07019z" stroke="none" stroke-width="0"/><path d="M197.45206,194.55321c0,0 -0.7958,-4.70729 11.13531,-7.0088c6.20157,-1.1963 61.33482,-1.73968 67.14809,-0.06141c7.53937,2.1766 6.80393,7.07019 6.80393,7.07019z" stroke="none" stroke-width="0"/><path d="M197.25155,153.33402c0,-1.48845 1.20662,-2.6951 2.6951,-2.6951c1.48845,0 2.69512,1.20662 2.69512,2.6951c0,1.48845 -1.20664,2.69512 -2.69512,2.69512c-1.48845,0 -2.6951,-1.20664 -2.6951,-2.69512z" stroke="none" stroke-width="0.5"/><path d="M197.45206,205.15967c0,0 -0.7958,-4.70729 11.13531,-7.0088c6.20157,-1.1963 61.33482,-1.73968 67.14809,-0.06141c7.53937,2.1766 6.80393,7.07019 6.80393,7.07019z" stroke="none" stroke-width="0"/></g><g><path d="M206.85326,193.84039c0,-0.98159 0.90628,-1.77731 2.02426,-1.77731c1.11798,0 2.02426,0.79572 2.02426,1.77731c0,0.98159 -0.90628,1.77731 -2.02426,1.77731c-1.11798,0 -2.02426,-0.79572 -2.02426,-1.77731z" fill="#7d8a8a" stroke="none" stroke-width="0.5"/><path d="M188.53071,190.69032c-0.14517,-10.59116 0,-23.31265 0,-29.61634c0,-15.49375 9.91174,-17.96088 24.4491,-17.96088c10.65127,0 34.54297,0 53.19941,0c14.19208,0 25.3546,3.59965 25.3546,17.38765c0,6.9956 0,20.23059 0,31.52705c0,13.84357 -10.42602,15.85909 -19.01598,15.85909c-10.89578,0 -39.23424,0 -59.99081,0c-13.6337,0 -23.76995,-0.68221 -23.99632,-17.19659z" fill="#92a3a3" stroke="#030303" stroke-width="5"/><path d="M197.45206,160.54714c0,0 -0.7958,-4.13301 11.13531,-6.15377c6.20156,-1.05034 61.33482,-1.52745 67.14809,-0.05392c7.53937,1.91107 6.80394,6.20766 6.80394,6.20766z" fill="#4f6070" stroke="none" stroke-width="0"/><path d="M197.45206,170.06661c0,0 -0.7958,-4.13301 11.13531,-6.15377c6.20156,-1.05034 61.33482,-1.52745 67.14809,-0.05392c7.53937,1.91107 6.80394,6.20766 6.80394,6.20766z" fill="#4f6070" stroke="none" stroke-width="0"/><path d="M197.45206,179.37914c0,0 -0.7958,-4.13301 11.13531,-6.15377c6.20156,-1.05034 61.33482,-1.52745 67.14809,-0.05392c7.53937,1.91107 6.80394,6.20766 6.80394,6.20766z" fill="#4f6070" stroke="none" stroke-width="0"/><path d="M197.45206,188.27779c0,0 -0.7958,-4.13301 11.13531,-6.15377c6.20156,-1.05034 61.33482,-1.52745 67.14809,-0.05392c7.53937,1.91107 6.80394,6.20766 6.80394,6.20766z" fill="#4f6070" stroke="none" stroke-width="0"/><path d="M197.25155,152.08709c0,-1.30687 1.20663,-2.36631 2.69511,-2.36631c1.48845,0 2.69512,1.05943 2.69512,2.36631c0,1.30687 -1.20664,2.36633 -2.69512,2.36633c-1.48845,0 -2.69511,-1.05944 -2.69511,-2.36633z" fill="#7d8a8a" stroke="none" stroke-width="0.5"/><path d="M197.45206,197.59029c0,0 -0.7958,-4.13301 11.13531,-6.15377c6.20156,-1.05034 61.33482,-1.52745 67.14809,-0.05392c7.53937,1.91107 6.80394,6.20766 6.80394,6.20766z" fill="#4f6070" stroke="none" stroke-width="0"/></g></g></g></svg>