<svg version="1.1" xmlns="http://www.w3.org/2000/svg" xmlns:xlink="http://www.w3.org/1999/xlink" width="354.75" height="91.4027" viewBox="0,0,354.75,91.4027"><g transform="translate(77.25,-123.8585)"><g data-paper-data="{&quot;isPaintingLayer&quot;:true}" fill-rule="nonzero" stroke-linejoin="miter" stroke-miterlimit="10" stroke-dasharray="" stroke-dashoffset="0" style="mix-blend-mode: normal"><text transform="translate(-77,145.44444) scale(0.5,0.5)" font-size="40" xml:space="preserve" fill="#ffffff" fill-rule="nonzero" stroke="none" stroke-width="1" stroke-linecap="butt" stroke-linejoin="miter" stroke-miterlimit="10" stroke-dasharray="" stroke-dashoffset="0" font-family="Sans Serif" font-weight="normal" text-anchor="start" style="mix-blend-mode: normal"><tspan x="0" dy="0"> </tspan></text><path d="M210.81742,204.82784c0,-12.01784 0,-46.0465 0,-50.94544c0,-1.57362 1.66178,-2.90196 3.54684,-2.90196c6.17489,0 40.11775,0 51.26788,0c2.23182,0 3.55046,1.18889 3.55046,3.2244c0,6.34387 0,40.15015 0,51.26788c0,2.22971 -2.03698,3.54683 -4.51777,3.54683c-6.71661,0 -38.19001,0 -49.65568,0c-2.61703,0 -4.19171,-1.57351 -4.19171,-4.19171z" fill="#a3b4e0" stroke="#293b6b" stroke-width="3" stroke-linecap="butt"/><path d="M243.72301,170.33281v20.93098c0,2.48005 -0.83664,3.72007 -2.50993,3.72007c-0.56772,0 -1.13545,-0.17928 -1.70316,-0.53784c-0.56772,-0.38844 -0.85158,-1.37448 -0.85158,-2.95813v-16.49379c-3.19717,2.42029 -5.31865,3.63043 -6.36445,3.63043c-0.56772,0 -1.04581,-0.19423 -1.43424,-0.58266c-0.38844,-0.38844 -0.58266,-0.8964 -0.58266,-1.52388c0,-0.4482 0.13446,-0.82171 0.40338,-1.1205c0.2988,-0.32869 0.91135,-0.71712 1.83762,-1.16532c3.13741,-1.52388 5.33359,-3.27187 6.58855,-5.24395c0.50797,-0.80675 0.8964,-1.32964 1.16532,-1.56869c0.2988,-0.26892 0.70218,-0.40338 1.21014,-0.40338c1.49401,0 2.241,1.10556 2.241,3.31667z" fill="#3e4f7b" stroke="none" stroke-width="1" stroke-linecap="square"/><path d="M201.19842,215.2612v-71.74627h76.30158v71.74628z" fill="none" stroke="none" stroke-width="none" stroke-linecap="butt"/></g></g></svg>