<svg version="1.1" xmlns="http://www.w3.org/2000/svg" xmlns:xlink="http://www.w3.org/1999/xlink" width="397.65213" height="358" viewBox="0,0,397.65213,358"><defs><linearGradient x1="240" y1="2.5" x2="240" y2="357.5" gradientUnits="userSpaceOnUse" id="color-1"><stop offset="0" stop-color="#bdbcbd"/><stop offset="1" stop-color="#848684"/></linearGradient></defs><g transform="translate(-110.5,-1)"><g data-paper-data="{&quot;isPaintingLayer&quot;:true}" fill-rule="nonzero" stroke-linecap="butt" stroke-linejoin="miter" stroke-miterlimit="10" stroke-dasharray="" stroke-dashoffset="0" style="mix-blend-mode: normal"><path d="M369.18198,151.09527c-23.0953,-12.71051 -47.77507,-70.27786 -47.77507,-70.27786c0,0 44.43771,-17.26579 62.36359,-24.89578c12.86214,-5.47465 35.13641,-16.60421 35.13641,-16.60421c0,0 14.93595,38.97428 31.12556,53.66896c26.78701,24.31353 53.87444,34.83104 53.87444,34.83104c0,0 -29.59836,33.5554 -62.76688,33.06634c-15.62164,-0.23034 -44.22016,4.14805 -71.95804,-9.78848z" fill="#b5a544" stroke="#000000" stroke-width="5"/><path d="M410.40691,139.81741c0,0 -24.48705,16.21439 -40.72493,7.27786c-23.09531,-12.71052 -48.27507,-66.27786 -48.27507,-66.27786c0,0 44.43771,-17.2658 62.36359,-24.89578c12.86213,-5.47465 35.13641,-16.60422 35.13641,-16.60422c0,0 14.93595,38.97428 31.12555,53.66896c26.78701,24.31353 53.87445,34.83104 53.87445,34.83104c0,0 -29.59836,33.5554 -62.76689,33.06634c-15.62164,-0.23034 -30.73311,-21.06634 -30.73311,-21.06634z" fill="#fde75a" stroke="#000000" stroke-width="5"/><path d="M112,357.5v-355h256v355z" fill="url(#color-1)" stroke="#000000" stroke-width="3"/><path d="M320.24475,80.75161l46.5,-23.5v105c0,0 -19.05671,-23.78136 -27.41899,-36.7294c-12.82197,-18.56304 -19.08101,-44.7706 -19.08101,-44.7706z" fill="#696969" stroke="none" stroke-width="0"/><path d="M369.18198,151.09527c-23.0953,-12.71051 -47.77507,-70.27786 -47.77507,-70.27786c0,0 44.43771,-17.26579 62.36359,-24.89578c12.86214,-5.47465 35.13641,-16.60421 35.13641,-16.60421c0,0 14.93595,38.97428 31.12556,53.66896c26.78701,24.31353 53.87444,34.83104 53.87444,34.83104c0,0 -29.59836,33.5554 -62.76688,33.06634c-15.62164,-0.23034 -44.22016,4.14805 -71.95804,-9.78848z" fill="#b5a544" stroke="none" stroke-width="0"/><path d="M410.40691,139.81741c0,0 -24.48705,16.21439 -40.72493,7.27786c-23.09531,-12.71052 -48.27507,-66.27786 -48.27507,-66.27786c0,0 44.43771,-17.2658 62.36359,-24.89578c12.86213,-5.47465 35.13641,-16.60422 35.13641,-16.60422c0,0 14.93595,38.97428 31.12555,53.66896c26.78701,24.31353 53.87445,34.83104 53.87445,34.83104c0,0 -29.59836,33.5554 -62.76689,33.06634c-15.62164,-0.23034 -30.73311,-21.06634 -30.73311,-21.06634z" fill="#fde75a" stroke="none" stroke-width="0"/><g><path d="M140.16667,53.96667c0,-8.01546 0,-23.25537 0,-27.33333c0,-1.97279 1.12738,-4 2.78717,-4c12.77225,0 167.09878,0 191.86824,0c2.16905,0 3.3446,2.15352 3.3446,4.66667c0,4.04343 0,26.61852 0,27.33333c0,2.62763 -1.25626,4.33333 -3.56757,4.33333c-25.40314,0 -178.25408,0 -191.4223,0c-1.78497,0 -3.01014,-1.99092 -3.01014,-5z" fill="#ffffff" stroke="#2c2928" stroke-width="12.5"/><path d="M140.16667,53.96667c0,-8.01546 0,-23.25537 0,-27.33333c0,-1.97279 1.12738,-4 2.78717,-4c12.77225,0 167.09878,0 191.86824,0c2.16905,0 3.3446,2.15352 3.3446,4.66667c0,4.04343 0,26.61852 0,27.33333c0,2.62763 -1.25626,4.33333 -3.56757,4.33333c-25.40314,0 -178.25408,0 -191.4223,0c-1.78497,0 -3.01014,-1.99092 -3.01014,-5z" fill="#ffffff" stroke="#635d5a" stroke-width="7.5"/><path d="M140.16667,53.96667c0,-8.01546 0,-23.25537 0,-27.33333c0,-1.97279 1.12738,-4 2.78717,-4c12.77225,0 167.09878,0 191.86824,0c2.16905,0 3.3446,2.15352 3.3446,4.66667c0,4.04343 0,26.61852 0,27.33333c0,2.62763 -1.25626,4.33333 -3.56757,4.33333c-25.40314,0 -178.25408,0 -191.4223,0c-1.78497,0 -3.01014,-1.99092 -3.01014,-5z" fill="#000000" stroke="#000000" stroke-width="4"/></g></g></g></svg>