<svg version="1.1" xmlns="http://www.w3.org/2000/svg" xmlns:xlink="http://www.w3.org/1999/xlink" width="45.23899" height="44.37462" viewBox="0,0,45.23899,44.37462"><g transform="translate(-218.20824,-157.30559)"><g data-paper-data="{&quot;isPaintingLayer&quot;:true}" fill-rule="nonzero" stroke-linecap="butt" stroke-linejoin="miter" stroke-miterlimit="10" stroke-dasharray="" stroke-dashoffset="0" style="mix-blend-mode: normal"><path d="M252.2454,200.7816c-3.284,1.9833 -12.9326,-8.2681 -12.9326,-8.2681c0,0 -11.243,8.4819 -14.1459,5.9705c-2.9054,-2.5113 3.8662,-14.8593 3.8662,-14.8593c0,0 -11.5392,-8.0723 -10.0479,-11.6087c1.4913,-3.5391 15.3255,-0.9144 15.3255,-0.9144c0,0 4.1083,-13.4684 7.9332,-13.1464c3.8301,0.3245 5.6099,14.2952 5.6099,14.2952c0,0 14.0789,-0.255 14.9495,3.4849c0.8783,3.7374 -11.8586,9.7491 -11.8586,9.7491c0,0 4.5925,13.3139 1.3007,15.2972z" fill="#ffff00" stroke="#000000" stroke-width="1.28786"/><path d="M245.8499,191.0119c-1.6536,0.9968 -6.5037,-4.1572 -6.5037,-4.1572c0,0 -5.6485,4.2628 -7.1064,3.0007c-1.4578,-1.2621 1.9421,-7.4644 1.9421,-7.4644c0,0 -5.7953,-4.0594 -5.0484,-5.834c0.7496,-1.7773 7.6988,-0.4585 7.6988,-0.4585c0,0 2.0658,-6.769 3.9898,-6.6041c1.9215,0.1622 2.8127,7.1811 2.8127,7.1811c0,0 7.0781,-0.1263 7.5159,1.7514c0.4431,1.8803 -5.955,4.899 -5.955,4.899c0,0 2.3027,6.6892 0.6542,7.686z" fill="#ffffff" stroke="none" stroke-width="2.57572"/></g></g></svg>