<svg version="1.1" xmlns="http://www.w3.org/2000/svg" xmlns:xlink="http://www.w3.org/1999/xlink" width="247.90268" height="20.60557" viewBox="0,0,247.90268,20.60557"><g transform="translate(-6.84021,-226.90083)"><g data-paper-data="{&quot;isPaintingLayer&quot;:true}" fill-rule="nonzero" stroke="none" stroke-width="1" stroke-linecap="square" stroke-linejoin="miter" stroke-miterlimit="10" stroke-dasharray="" stroke-dashoffset="0" style="mix-blend-mode: normal"><path d="M10.00568,229.54301v10.98049c0,0.72631 -0.02859,1.23817 -0.08578,1.53555c-0.05147,0.29167 -0.21447,0.54902 -0.48898,0.77206c-0.2688,0.21732 -0.59477,0.32599 -0.97795,0.32599c-0.38889,0 -0.72917,-0.11152 -1.02084,-0.33456c-0.28595,-0.22876 -0.45752,-0.49183 -0.51471,-0.78922c-0.05147,-0.30311 -0.0772,-0.80638 -0.0772,-1.50982v-10.98049c0,-0.72631 0.02573,-1.22959 0.0772,-1.50982c0.05719,-0.28023 0.22591,-0.53758 0.50614,-0.77206c0.28595,-0.2402 0.61765,-0.3603 0.9951,-0.3603c0.37174,0 0.70058,0.10866 0.98653,0.32598c0.28595,0.21732 0.45752,0.47754 0.51471,0.78064c0.05719,0.29739 0.08578,0.80924 0.08578,1.53555zM29.97001,235.59943v5.05274c0,0.692 -0.0286,1.18097 -0.08579,1.46692c-0.05719,0.28023 -0.21446,0.52329 -0.47181,0.72917c-0.25164,0.20588 -0.55189,0.30883 -0.90075,0.30883c-0.34314,0 -0.64339,-0.10008 -0.90074,-0.30025c-0.25164,-0.20588 -0.40891,-0.46038 -0.47182,-0.76349c-0.06291,-0.30311 -0.09436,-0.7835 -0.09436,-1.44119v-4.28067c0,-1.25246 -0.14869,-2.03596 -0.44608,-2.35051c-0.29739,-0.32027 -0.70344,-0.4804 -1.21815,-0.4804c-0.53759,0 -0.98939,0.14869 -1.3554,0.44608c-0.36601,0.29739 -0.61765,0.68628 -0.75491,1.16668c-0.13726,0.47468 -0.20588,1.22386 -0.20588,2.24757v3.25125c0,0.692 -0.02859,1.18384 -0.08578,1.47551c-0.05147,0.28595 -0.20874,0.52901 -0.47182,0.72917c-0.25735,0.20017 -0.56047,0.30025 -0.90932,0.30025c-0.4518,0 -0.80638,-0.15155 -1.06373,-0.45466c-0.25735,-0.30311 -0.38603,-0.98653 -0.38603,-2.05026v-4.02332c0,-1.1438 -0.08579,-1.94446 -0.25736,-2.40198c-0.17157,-0.45752 -0.61765,-0.68628 -1.33824,-0.68628c-0.74919,0 -1.34111,0.2402 -1.77575,0.72059c-0.43464,0.47468 -0.65196,1.49838 -0.65196,3.0711v3.31988c0,0.67484 -0.02287,1.14952 -0.06863,1.42403c-0.04575,0.2688 -0.19731,0.51757 -0.45466,0.74633c-0.25735,0.22304 -0.5576,0.33456 -0.90074,0.33456c-0.32598,0 -0.62337,-0.10008 -0.89216,-0.30025c-0.2688,-0.20017 -0.4375,-0.44037 -0.50613,-0.7206c-0.06291,-0.28595 -0.09436,-0.78064 -0.09436,-1.48408v-7.09442c0,-0.67484 0.03145,-1.13236 0.09436,-1.37256c0.06291,-0.24592 0.22018,-0.46038 0.47181,-0.64339c0.25164,-0.18873 0.52615,-0.28309 0.82354,-0.28309c0.9322,0 1.3983,0.59478 1.3983,1.78433c0.98367,-1.18955 2.16465,-1.78433 3.54292,-1.78433c1.48122,0 2.55639,0.59478 3.22551,1.78433c0.9951,-1.18955 2.15607,-1.78433 3.48287,-1.78433c1.0237,0 1.89871,0.28309 2.62502,0.84927c0.73203,0.56046 1.09805,1.72428 1.09805,3.49145zM35.42593,233.20603c1.04086,-1.29822 2.31334,-1.94732 3.81744,-1.94732c1.5041,0 2.69651,0.56618 3.57724,1.69854c0.88645,1.12664 1.32967,2.58499 1.32967,4.37504c0,1.70426 -0.43464,3.10256 -1.30393,4.19489c-0.86357,1.08661 -2.05598,1.62992 -3.57724,1.62992c-1.45835,0 -2.73941,-0.60622 -3.84317,-1.81865v3.81744c0,1.0523 -0.13154,1.70712 -0.39461,1.96448c-0.25735,0.25735 -0.60622,0.38603 -1.04658,0.38603c-0.53759,0 -0.9179,-0.17729 -1.14094,-0.53187c-0.22304,-0.35458 -0.33456,-0.98939 -0.33456,-1.90443v-11.55524c0,-0.60049 0.02573,-1.04086 0.0772,-1.32109c0.05719,-0.28023 0.21447,-0.50614 0.47182,-0.6777c0.25735,-0.17157 0.56618,-0.25735 0.92648,-0.25735c0.96079,0 1.44119,0.54616 1.44119,1.6385zM41.19068,237.27224c0,-1.28677 -0.27165,-2.23899 -0.81496,-2.85664c-0.53759,-0.61765 -1.16668,-0.92648 -1.88727,-0.92648c-0.84069,0 -1.53269,0.31455 -2.076,0.94364c-0.54331,0.62909 -0.81496,1.50696 -0.81496,2.6336c0,1.17811 0.26307,2.11603 0.78922,2.81375c0.52615,0.692 1.23244,1.038 2.11889,1.038c0.78922,0 1.43261,-0.32312 1.93016,-0.96937c0.50327,-0.64625 0.75491,-1.53841 0.75491,-2.67649zM51.65647,231.25871c1.81292,0 3.23982,0.56047 4.28067,1.68139c1.04086,1.11521 1.56129,2.53638 1.56129,4.26352c0,1.73858 -0.52901,3.16547 -1.58702,4.28067c-1.0523,1.11521 -2.44774,1.67281 -4.18631,1.67281c-1.88727,0 -3.34276,-0.56332 -4.36646,-1.68997c-1.0237,-1.13236 -1.53555,-2.55353 -1.53555,-4.26352c0,-1.73286 0.51757,-3.15689 1.55271,-4.2721c1.04086,-1.11521 2.46775,-1.67281 4.28067,-1.67281zM51.65647,240.97815c0.88645,0 1.58703,-0.3317 2.10173,-0.9951c0.52043,-0.66912 0.78064,-1.5956 0.78064,-2.77943c0,-1.18384 -0.26021,-2.11032 -0.78064,-2.77944c-0.51471,-0.66912 -1.21529,-1.00369 -2.10173,-1.00369c-0.87501,0 -1.57273,0.33742 -2.09316,1.01227c-0.52043,0.66912 -0.78064,1.59274 -0.78064,2.77086c0,1.18956 0.25736,2.11603 0.77207,2.77943c0.52043,0.66341 1.22101,0.9951 2.10173,0.9951zM62.02144,234.30408c0,0.37745 0.19731,0.67484 0.59192,0.89216c0.39461,0.2116 1.27248,0.48611 2.6336,0.82354c2.65362,0.64053 3.98043,1.7443 3.98043,3.3113c0,1.2353 -0.44608,2.1818 -1.33825,2.83949c-0.89216,0.65769 -2.14463,0.98653 -3.75738,0.98653c-1.62992,0 -2.85664,-0.33456 -3.68018,-1.00369c-0.82354,-0.67484 -1.2353,-1.38685 -1.2353,-2.13605c0,-0.32027 0.11438,-0.59478 0.34314,-0.82354c0.22876,-0.22876 0.50899,-0.34314 0.84069,-0.34314c0.45752,0 0.85785,0.28595 1.20099,0.85785c0.38889,0.62909 0.81496,1.04658 1.2782,1.25246c0.46324,0.20017 0.96079,0.30025 1.49266,0.30025c0.58334,0 1.05802,-0.12868 1.42403,-0.38603c0.37174,-0.26307 0.5576,-0.59477 0.5576,-0.9951c0,-0.36601 -0.15727,-0.68342 -0.47181,-0.95222c-0.30882,-0.2688 -1.1581,-0.56046 -2.54781,-0.87501c-1.38972,-0.32027 -2.40198,-0.76635 -3.03679,-1.33825c-0.63481,-0.57762 -0.95222,-1.2639 -0.95222,-2.05884c0,-0.89216 0.38603,-1.68138 1.1581,-2.36767c0.77778,-0.68628 1.9416,-1.02942 3.49145,-1.02942c1.42403,0 2.5564,0.28881 3.39709,0.86643c0.84641,0.57762 1.26962,1.17812 1.26962,1.80149c0,0.32598 -0.10866,0.60335 -0.32598,0.83211c-0.2116,0.22304 -0.50614,0.33456 -0.88359,0.33456c-0.56618,0 -1.07803,-0.32313 -1.53555,-0.96937c-0.4518,-0.65196 -1.13522,-0.97795 -2.05026,-0.97795c-0.49183,0 -0.92362,0.10008 -1.29536,0.30025c-0.36601,0.20017 -0.54902,0.48611 -0.54902,0.85785zM72.19127,231.51606v-1.75859c0,-0.72631 0.02859,-1.21815 0.08578,-1.47551c0.06291,-0.26307 0.22018,-0.49469 0.47182,-0.69486c0.25735,-0.20588 0.5576,-0.30883 0.90074,-0.30883c0.31454,0 0.59763,0.09437 0.84927,0.28309c0.25164,0.18301 0.41749,0.40605 0.49755,0.66912c0.08007,0.26307 0.1201,0.692 0.1201,1.28677v1.99879h0.56618c0.71488,0 1.18955,0.08865 1.42403,0.26594c0.2402,0.17157 0.3603,0.42606 0.3603,0.76349c0,0.72059 -0.6005,1.08089 -1.80149,1.08089h-0.54902v5.40446c0,0.72631 0.05147,1.22387 0.15441,1.49266c0.10294,0.26307 0.38031,0.39461 0.83211,0.39461c0.2116,0 0.4518,-0.0286 0.7206,-0.08579c0.2688,-0.06291 0.46895,-0.09436 0.60049,-0.09436c0.29167,0 0.52901,0.09722 0.71202,0.29167c0.18301,0.18873 0.27451,0.42035 0.27451,0.69486c0,0.95508 -1.01226,1.43261 -3.03679,1.43261c-0.97795,0 -1.69855,-0.18015 -2.16179,-0.54045c-0.46324,-0.36601 -0.74919,-0.80924 -0.85785,-1.32967c-0.10866,-0.52615 -0.16299,-1.20671 -0.16299,-2.04168v-5.61892h-0.38603c-0.86929,0 -1.30393,-0.35458 -1.30393,-1.06373c0,-0.69772 0.45466,-1.04658 1.36398,-1.04658zM84.59792,231.25871c1.81292,0 3.23982,0.56047 4.28067,1.68139c1.04086,1.11521 1.56129,2.53638 1.56129,4.26352c0,1.73858 -0.52901,3.16547 -1.58702,4.28067c-1.0523,1.11521 -2.44774,1.67281 -4.18631,1.67281c-1.88727,0 -3.34276,-0.56332 -4.36646,-1.68997c-1.0237,-1.13236 -1.53555,-2.55353 -1.53555,-4.26352c0,-1.73286 0.51757,-3.15689 1.55271,-4.2721c1.04086,-1.11521 2.46775,-1.67281 4.28067,-1.67281zM84.59792,240.97815c0.88645,0 1.58703,-0.3317 2.10173,-0.9951c0.52043,-0.66912 0.78064,-1.5956 0.78064,-2.77943c0,-1.18384 -0.26021,-2.11032 -0.78064,-2.77944c-0.51471,-0.66912 -1.21529,-1.00369 -2.10173,-1.00369c-0.87501,0 -1.57272,0.33742 -2.09315,1.01227c-0.52043,0.66912 -0.78064,1.59274 -0.78064,2.77086c0,1.18956 0.25735,2.11603 0.77206,2.77943c0.52043,0.66341 1.22101,0.9951 2.10173,0.9951zM92.72391,240.73796v-7.50619c0,-1.31537 0.48326,-1.97306 1.44977,-1.97306c0.92076,0 1.39258,0.60622 1.41545,1.81865c0.60622,-1.21243 1.44405,-1.81865 2.5135,-1.81865c0.56618,0 1.14952,0.1487 1.75001,0.44608c0.60622,0.29167 0.90932,0.69486 0.90932,1.20957c0,0.3603 -0.12296,0.65769 -0.36888,0.89216c-0.2402,0.22876 -0.49755,0.34314 -0.77207,0.34314c-0.16013,0 -0.44608,-0.06291 -0.85785,-0.18873c-0.41177,-0.12582 -0.7549,-0.18873 -1.02942,-0.18873c-0.70344,0 -1.22673,0.35458 -1.56987,1.06373c-0.34314,0.70915 -0.51471,2.076 -0.51471,4.10052v1.68997c0,0.74347 -0.03146,1.24674 -0.09437,1.50982c-0.05719,0.25735 -0.21446,0.49184 -0.47181,0.70344c-0.25735,0.2116 -0.55474,0.31741 -0.89216,0.31741c-0.32027,0 -0.60908,-0.09437 -0.86643,-0.28309c-0.25735,-0.18873 -0.42321,-0.41177 -0.49755,-0.66912c-0.06863,-0.26307 -0.10294,-0.75205 -0.10294,-1.46692zM104.58156,234.30408c0,0.37745 0.19731,0.67484 0.59192,0.89216c0.39461,0.2116 1.27248,0.48611 2.6336,0.82354c2.65362,0.64053 3.98043,1.7443 3.98043,3.3113c0,1.2353 -0.44608,2.1818 -1.33824,2.83949c-0.89216,0.65769 -2.14463,0.98653 -3.75738,0.98653c-1.62992,0 -2.85664,-0.33456 -3.68018,-1.00369c-0.82354,-0.67484 -1.2353,-1.38685 -1.2353,-2.13605c0,-0.32027 0.11438,-0.59478 0.34314,-0.82354c0.22876,-0.22876 0.50899,-0.34314 0.84069,-0.34314c0.45752,0 0.85785,0.28595 1.20099,0.85785c0.38889,0.62909 0.81496,1.04658 1.2782,1.25246c0.46324,0.20017 0.96079,0.30025 1.49266,0.30025c0.58334,0 1.05802,-0.12868 1.42403,-0.38603c0.37174,-0.26307 0.55761,-0.59477 0.55761,-0.9951c0,-0.36601 -0.15727,-0.68342 -0.47182,-0.95222c-0.30882,-0.2688 -1.1581,-0.56046 -2.54781,-0.87501c-1.38972,-0.32027 -2.40198,-0.76635 -3.03679,-1.33825c-0.63481,-0.57762 -0.95221,-1.2639 -0.95221,-2.05884c0,-0.89216 0.38603,-1.68138 1.1581,-2.36767c0.77778,-0.68628 1.9416,-1.02942 3.49145,-1.02942c1.42403,0 2.55639,0.28881 3.39709,0.86643c0.84641,0.57762 1.26962,1.17812 1.26962,1.80149c0,0.32598 -0.10866,0.60335 -0.32598,0.83211c-0.2116,0.22304 -0.50614,0.33456 -0.88359,0.33456c-0.56618,0 -1.07803,-0.32313 -1.53555,-0.96937c-0.4518,-0.65196 -1.13522,-0.97795 -2.05026,-0.97795c-0.49183,0 -0.92362,0.10008 -1.29536,0.30025c-0.36601,0.20017 -0.54902,0.48611 -0.54902,0.85785zM116.20971,231.25871c0.43464,0 0.80924,0.15727 1.12378,0.47182c0.31454,0.31454 0.47182,0.68914 0.47182,1.12378c0,0.4518 -0.15727,0.83783 -0.47182,1.1581c-0.31454,0.31454 -0.68914,0.47182 -1.12378,0.47182c-0.4518,0 -0.83783,-0.15727 -1.1581,-0.47182c-0.31454,-0.32027 -0.47182,-0.70629 -0.47182,-1.1581c0,-0.43464 0.15727,-0.80924 0.47182,-1.12378c0.32027,-0.31454 0.70629,-0.47182 1.1581,-0.47182zM116.20971,239.93158c0.43464,0 0.80924,0.15727 1.12378,0.47181c0.31454,0.31454 0.47182,0.68914 0.47182,1.12378c0,0.44608 -0.15727,0.82926 -0.47182,1.14952c-0.31454,0.32027 -0.68914,0.4804 -1.12378,0.4804c-0.4518,0 -0.83783,-0.15727 -1.1581,-0.47182c-0.31454,-0.32027 -0.47182,-0.7063 -0.47182,-1.1581c0,-0.43464 0.15727,-0.80924 0.47182,-1.12378c0.32027,-0.31454 0.70629,-0.47181 1.1581,-0.47181z" fill="#ffffff"/><path d="M168.19396,233.07968c-0.40938,0.25342 -0.8285,0.42399 -1.25737,0.51172c-0.42887,0.07798 -0.71641,0.11696 -0.86261,0.11696c-0.13646,0 -0.24367,-0.01462 -0.32165,-0.04386c-0.06823,-0.03898 -0.13159,-0.08285 -0.19007,-0.13159c-0.05848,-0.08773 -0.12183,-0.24367 -0.19006,-0.46786c-0.05848,-0.22419 -0.08773,-0.41425 -0.08773,-0.5702c0,-0.1657 0.0536,-0.29729 0.16082,-0.39476c0.10722,-0.10722 0.30216,-0.19007 0.58482,-0.24855c0.84799,-0.17544 1.42794,-0.34602 1.73985,-0.51172c0.3119,-0.17544 0.54096,-0.31678 0.68717,-0.424c0.14621,-0.10722 0.28267,-0.19981 0.40938,-0.27779c0.26317,-0.15595 0.53121,-0.23393 0.80413,-0.23393c0.27292,0 0.49223,0.08285 0.65793,0.24855c0.1657,0.1657 0.24855,0.4045 0.24855,0.7164v10.26364c0,0.1657 -0.05361,0.3119 -0.16083,0.43861c-0.09747,0.11696 -0.2193,0.17544 -0.36551,0.17544h-1.35971c-0.14621,0 -0.26805,-0.05848 -0.36551,-0.17544c-0.08773,-0.12671 -0.13159,-0.27292 -0.13159,-0.43861zM204.3267,240.97478c0,-0.32165 0.02436,-0.52634 0.0731,-0.61406c0.05848,-0.13646 0.21444,-0.26804 0.46786,-0.39475c0.25342,-0.12671 0.57995,-0.30704 0.97958,-0.54096c0.39963,-0.23393 0.80901,-0.4971 1.22813,-0.78951c0.42887,-0.30215 0.84799,-0.62868 1.25737,-0.97958c0.40938,-0.3509 0.77489,-0.71641 1.09654,-1.09654c0.72128,-0.83825 1.08192,-1.63262 1.08192,-2.38315c0,-0.63356 -0.22906,-1.11604 -0.68717,-1.44744c-0.37039,-0.25342 -0.74077,-0.38013 -1.11116,-0.38013c-0.37039,0 -0.67255,0.02925 -0.90648,0.08773c-0.23393,0.05848 -0.45324,0.14621 -0.65793,0.26317c-0.46786,0.26317 -0.78951,0.62381 -0.96496,1.08192c-0.14621,0.40938 -0.38988,0.61407 -0.73103,0.61407c-0.06823,0 -0.14133,-0.00487 -0.21931,-0.01462c-0.07798,-0.0195 -0.21444,-0.04387 -0.40938,-0.0731c-0.42887,-0.07798 -0.6433,-0.3119 -0.6433,-0.70179c0,-0.39963 0.06336,-0.74565 0.19007,-1.03806c0.12671,-0.29241 0.30215,-0.55558 0.52634,-0.78951c0.22419,-0.24367 0.48248,-0.45324 0.77489,-0.62868c0.29241,-0.18519 0.59944,-0.34115 0.92109,-0.46786c0.65305,-0.24367 1.22813,-0.36551 1.72523,-0.36551c0.4971,0 0.91135,0.02437 1.24275,0.0731c0.3314,0.04873 0.65305,0.13159 0.96496,0.24855c0.32165,0.10722 0.62869,0.25342 0.9211,0.43861c0.29241,0.18519 0.5507,0.41425 0.77489,0.68716c0.47761,0.58482 0.7164,1.32073 0.7164,2.20771c0,1.35484 -0.60919,2.60734 -1.82757,3.75749c-0.6433,0.60432 -1.25737,1.09167 -1.84219,1.46206l-1.73985,1.0673l5.21954,-0.11696c0.24367,-0.00975 0.39963,0.04873 0.46786,0.17544c0.06823,0.12671 0.10234,0.29241 0.10234,0.4971v0.86262c0,0.22419 -0.05848,0.37526 -0.17544,0.45324c-0.10722,0.06823 -0.26804,0.10234 -0.48248,0.10234h-7.66118c-0.20469,0 -0.37039,-0.03898 -0.4971,-0.11696c-0.11696,-0.08773 -0.17544,-0.24367 -0.17544,-0.46785zM246.01443,241.9836c0.21444,-0.3314 0.44836,-0.43374 0.70179,-0.30703c0.07798,0.03898 0.20469,0.11697 0.38013,0.23393c0.17544,0.11696 0.38013,0.22905 0.61406,0.33627c0.23393,0.10722 0.46786,0.19007 0.70179,0.24855c0.41912,0.11696 0.83337,0.17545 1.24275,0.17545c0.40938,0 0.76515,-0.03898 1.0673,-0.11696c0.3119,-0.07798 0.5897,-0.20469 0.83337,-0.38014c0.55558,-0.38013 0.83337,-0.91622 0.83337,-1.60826c0,-0.63356 -0.28754,-1.12578 -0.86262,-1.47668c-0.54584,-0.32165 -1.25736,-0.48248 -2.1346,-0.48248c-0.39963,0 -0.68717,0.01463 -0.86261,0.04387c-0.23393,0.03898 -0.38501,0.05848 -0.45324,0.05848c-0.06823,0 -0.14133,-0.04386 -0.21931,-0.13159c-0.06823,-0.09747 -0.12184,-0.20469 -0.16082,-0.32165c-0.06823,-0.23393 -0.10235,-0.43861 -0.10235,-0.61406c0,-0.17544 0.02437,-0.32166 0.0731,-0.43862c0.05848,-0.11696 0.18032,-0.19494 0.36551,-0.23392c1.89093,-0.41912 3.08006,-1.03807 3.56742,-1.85682c0.19494,-0.30215 0.29241,-0.61893 0.29241,-0.95033c0,-0.3314 -0.05848,-0.59944 -0.17545,-0.80413c-0.11696,-0.20469 -0.27292,-0.37526 -0.46786,-0.51172c-0.38988,-0.28267 -0.86749,-0.424 -1.43282,-0.424c-0.44836,0 -0.82363,0.08285 -1.12579,0.24855c-0.56533,0.3119 -0.89673,0.68717 -0.99419,1.12579c-0.07798,0.30215 -0.27779,0.45324 -0.59945,0.45324c-0.32165,0 -0.57021,-0.02437 -0.74565,-0.0731c-0.17544,-0.05848 -0.3119,-0.13159 -0.40937,-0.21931c-0.15595,-0.13646 -0.23393,-0.35577 -0.23393,-0.65793c0,-0.30215 0.06336,-0.59457 0.19007,-0.87723c0.12671,-0.28267 0.29729,-0.53608 0.51172,-0.76027c0.22419,-0.22419 0.4776,-0.41913 0.76027,-0.58482c0.28267,-0.17544 0.58482,-0.31677 0.90648,-0.42399c0.63356,-0.22419 1.24762,-0.33628 1.84219,-0.33628c0.60432,0 1.1599,0.0731 1.66675,0.21931c0.51659,0.13646 0.96983,0.3509 1.35971,0.6433c0.88698,0.65305 1.33047,1.54978 1.33047,2.69019c0,0.95521 -0.37038,1.77397 -1.11116,2.45625c-0.51659,0.45811 -1.1599,0.81875 -1.92991,1.08192c1.03319,0 1.88605,0.3119 2.5586,0.93571c0.63356,0.60432 0.95034,1.29149 0.95034,2.0615c0,0.77002 -0.13646,1.41819 -0.40938,1.94454c-0.27292,0.52634 -0.62868,0.9747 -1.0673,1.34509c-0.91622,0.74078 -1.96891,1.11116 -3.15805,1.11116c-1.79345,0 -3.17754,-0.39963 -4.15224,-1.19889c-0.3119,-0.24367 -0.46785,-0.4435 -0.46785,-0.59945c0,-0.14621 0.03898,-0.27779 0.11696,-0.39475z" fill="#ffffff"/><path d="M246.01443,241.9836c0.21444,-0.3314 0.44836,-0.43374 0.70179,-0.30703c0.07798,0.03898 0.20469,0.11697 0.38013,0.23393c0.17544,0.11696 0.38013,0.22905 0.61406,0.33627c0.23393,0.10722 0.46786,0.19007 0.70179,0.24855c0.41912,0.11696 0.83337,0.17545 1.24275,0.17545c0.40938,0 0.76515,-0.03898 1.0673,-0.11696c0.3119,-0.07798 0.5897,-0.20469 0.83337,-0.38014c0.55558,-0.38013 0.83337,-0.91622 0.83337,-1.60826c0,-0.63356 -0.28754,-1.12578 -0.86262,-1.47668c-0.54584,-0.32165 -1.25736,-0.48248 -2.1346,-0.48248c-0.39963,0 -0.68717,0.01463 -0.86261,0.04387c-0.23393,0.03898 -0.38501,0.05848 -0.45324,0.05848c-0.06823,0 -0.14133,-0.04386 -0.21931,-0.13159c-0.06823,-0.09747 -0.12184,-0.20469 -0.16082,-0.32165c-0.06823,-0.23393 -0.10235,-0.43861 -0.10235,-0.61406c0,-0.17544 0.02437,-0.32166 0.0731,-0.43862c0.05848,-0.11696 0.18032,-0.19494 0.36551,-0.23392c1.89093,-0.41912 3.08006,-1.03807 3.56742,-1.85682c0.19494,-0.30215 0.29241,-0.61893 0.29241,-0.95033c0,-0.3314 -0.05848,-0.59944 -0.17545,-0.80413c-0.11696,-0.20469 -0.27292,-0.37526 -0.46786,-0.51172c-0.38988,-0.28267 -0.86749,-0.424 -1.43282,-0.424c-0.44836,0 -0.82363,0.08285 -1.12579,0.24855c-0.56533,0.3119 -0.89673,0.68717 -0.99419,1.12579c-0.07798,0.30215 -0.27779,0.45324 -0.59945,0.45324c-0.32165,0 -0.57021,-0.02437 -0.74565,-0.0731c-0.17544,-0.05848 -0.3119,-0.13159 -0.40937,-0.21931c-0.15595,-0.13646 -0.23393,-0.35577 -0.23393,-0.65793c0,-0.30215 0.06336,-0.59457 0.19007,-0.87723c0.12671,-0.28267 0.29729,-0.53608 0.51172,-0.76027c0.22419,-0.22419 0.4776,-0.41913 0.76027,-0.58482c0.28267,-0.17544 0.58482,-0.31677 0.90648,-0.42399c0.63356,-0.22419 1.24762,-0.33628 1.84219,-0.33628c0.60432,0 1.1599,0.0731 1.66675,0.21931c0.51659,0.13646 0.96983,0.3509 1.35971,0.6433c0.88698,0.65305 1.33047,1.54978 1.33047,2.69019c0,0.95521 -0.37038,1.77397 -1.11116,2.45625c-0.51659,0.45811 -1.1599,0.81875 -1.92991,1.08192c1.03319,0 1.88605,0.3119 2.5586,0.93571c0.63356,0.60432 0.95034,1.29149 0.95034,2.0615c0,0.77002 -0.13646,1.41819 -0.40938,1.94454c-0.27292,0.52634 -0.62868,0.9747 -1.0673,1.34509c-0.91622,0.74078 -1.96891,1.11116 -3.15805,1.11116c-1.79345,0 -3.17754,-0.39963 -4.15224,-1.19889c-0.3119,-0.24367 -0.46785,-0.4435 -0.46785,-0.59945c0,-0.14621 0.03898,-0.27779 0.11696,-0.39475z" fill="#737373"/><path d="M204.3267,240.97478c0,-0.32165 0.02436,-0.52634 0.0731,-0.61406c0.05848,-0.13646 0.21444,-0.26804 0.46786,-0.39475c0.25342,-0.12671 0.57995,-0.30704 0.97958,-0.54096c0.39963,-0.23393 0.80901,-0.4971 1.22813,-0.78951c0.42887,-0.30215 0.84799,-0.62868 1.25737,-0.97958c0.40938,-0.3509 0.77489,-0.71641 1.09654,-1.09654c0.72128,-0.83825 1.08192,-1.63262 1.08192,-2.38315c0,-0.63356 -0.22906,-1.11604 -0.68717,-1.44744c-0.37039,-0.25342 -0.74077,-0.38013 -1.11116,-0.38013c-0.37039,0 -0.67255,0.02925 -0.90648,0.08773c-0.23393,0.05848 -0.45324,0.14621 -0.65793,0.26317c-0.46786,0.26317 -0.78951,0.62381 -0.96496,1.08192c-0.14621,0.40938 -0.38988,0.61407 -0.73103,0.61407c-0.06823,0 -0.14133,-0.00487 -0.21931,-0.01462c-0.07798,-0.0195 -0.21444,-0.04387 -0.40938,-0.0731c-0.42887,-0.07798 -0.6433,-0.3119 -0.6433,-0.70179c0,-0.39963 0.06336,-0.74565 0.19007,-1.03806c0.12671,-0.29241 0.30215,-0.55558 0.52634,-0.78951c0.22419,-0.24367 0.48248,-0.45324 0.77489,-0.62868c0.29241,-0.18519 0.59944,-0.34115 0.92109,-0.46786c0.65305,-0.24367 1.22813,-0.36551 1.72523,-0.36551c0.4971,0 0.91135,0.02437 1.24275,0.0731c0.3314,0.04873 0.65305,0.13159 0.96496,0.24855c0.32165,0.10722 0.62869,0.25342 0.9211,0.43861c0.29241,0.18519 0.5507,0.41425 0.77489,0.68716c0.47761,0.58482 0.7164,1.32073 0.7164,2.20771c0,1.35484 -0.60919,2.60734 -1.82757,3.75749c-0.6433,0.60432 -1.25737,1.09167 -1.84219,1.46206l-1.73985,1.0673l5.21954,-0.11696c0.24367,-0.00975 0.39963,0.04873 0.46786,0.17544c0.06823,0.12671 0.10234,0.29241 0.10234,0.4971v0.86262c0,0.22419 -0.05848,0.37526 -0.17544,0.45324c-0.10722,0.06823 -0.26804,0.10234 -0.48248,0.10234h-7.66118c-0.20469,0 -0.37039,-0.03898 -0.4971,-0.11696c-0.11696,-0.08773 -0.17544,-0.24367 -0.17544,-0.46785z" fill="#737373"/></g></g></svg>