<svg version="1.1" xmlns="http://www.w3.org/2000/svg" xmlns:xlink="http://www.w3.org/1999/xlink" width="545.18924" height="97.35078" viewBox="0,0,545.18924,97.35078"><g transform="translate(31.95474,-128.87342)"><g data-paper-data="{&quot;isPaintingLayer&quot;:true}" fill-rule="nonzero" stroke-linecap="butt" stroke-linejoin="miter" stroke-miterlimit="10" stroke-dasharray="" stroke-dashoffset="0" style="mix-blend-mode: normal"><path d="M-26.70474,213.9273v-50.76674c0,0 15.34045,-1.65515 20.68107,0.06872c10.71836,3.45968 65.81893,3.61826 65.81893,3.61826c0,0 -12.49885,-5.66616 -20.20806,-8.48455c-7.65597,-2.79891 -25.88863,-8.36775 -25.88863,-8.36775c0,0 24.90753,4.35156 54.33607,5.16963c18.22214,0.50655 31.56109,-4.03308 49.65177,-3.5302c13.45869,0.37414 31.6352,8.58857 53.04491,8.64723c16.9158,0.04633 24.61867,1.75761 36.86017,2.01812c6.65312,0.14159 -10.06667,-3.53658 -19.94663,-5.03448c-9.87996,-1.4979 -17.93298,-0.67271 -29.75021,-2.50005c-11.20288,-1.73235 -19.09587,-7.15319 -19.09587,-7.15319c0,0 26.50864,4.0539 57.53691,5.42064c22.58703,0.99491 41.60793,7.28952 54.38124,7.8028c13.17232,0.52931 37.23386,-3.57089 61.81809,-3.23921c14.29634,0.19287 78.81874,4.0757 78.81874,4.0757c0,0 -27.50248,-6.22951 -38.40597,-10.67223c-8.12192,-3.30936 -15.65253,-7.69234 -15.65253,-7.69234c0,0 16.74203,5.84434 45.9979,8.22482c21.06721,1.71417 58.66991,12.03285 58.66991,12.03285c0,0 -9.37239,-7.33601 -11.15544,-12.24619c-0.88466,-2.43615 -0.42758,-5.72487 0.25761,-8.4205c0.69585,-2.73753 1.62696,-4.86337 1.62696,-4.86337c0,0 9.52702,9.55959 15.75068,13.6551c5.08977,3.34936 26.87838,10.83442 26.87838,10.83442c0,0 -7.30333,-5.30721 -10.37787,-10.79288c-3.44509,-6.14679 -6.60291,-12.51763 -4.50413,-11.89688c7.48858,2.21488 46.26549,26.18995 46.26549,26.18995l-19.40947,47.90233c0,0 -21.37131,0.74319 -29.8492,0.58038c-6.68298,-0.12835 -16.92658,-1.47874 -16.92658,-1.47874c0,0 -2.14146,1.23816 -3.434,2.64022c-1.26333,1.37036 -1.67099,2.89727 -2.29826,3.57769c-0.63095,0.68441 -1.41699,1.53704 -1.41699,1.53704c0,0 -5.72811,-0.46616 -13.85013,-4.18681c-5.19804,-2.38118 -8.31495,-6.51086 -8.31495,-6.51086c0,0 -57.19574,8.34063 -76.6994,7.58696c-12.2565,-0.47363 21.11779,-12.58308 11.20986,-12.33671c-24.39268,0.60656 -98.06367,10.68768 -129.48621,14.54969c-9.10534,1.11909 -10.03475,-0.23871 -4.7605,-1.21096c11.61129,-2.14039 30.79223,-5.81486 34.59661,-7.40424c4.06858,-1.69974 3.59093,-3.29014 3.59093,-3.29014c0,0 -38.07378,1.57427 -54.37043,2.98201c-19.99309,1.72706 -65.78155,7.18686 -65.78155,7.18686c0,0 4.06864,-2.69713 5.58263,-3.74798c1.48737,-1.03237 3.42286,-2.50263 3.42286,-2.50263l-23.90463,3.78553c0,0 14.18612,-4.06 19.36398,-5.7851c4.19033,-1.39608 9.37221,-3.78884 9.37221,-3.78884c0,0 -95.94398,13.50714 -111.65328,15.6558c-5.43659,0.7436 -9.61684,-0.78011 -5.78569,-1.67353c5.028,-1.17252 12.5895,-2.88519 20.67427,-4.5361c8.73904,-1.78453 27.33676,-3.88727 32.33077,-5.11188c10.5644,-2.59056 13.59243,-6.72769 13.59243,-6.72769c0,0 -26.00621,2.02579 -38.50428,3.5234c-13.1948,1.58111 -38.68776,5.72637 -38.68776,5.72637l4.54407,-9.35814z" fill="#cb2411" stroke="#000000" stroke-width="10.5"/><path d="M-26.70474,213.9273v-50.76674c0,0 15.34045,-1.65515 20.68107,0.06872c10.71836,3.45968 65.81893,3.61826 65.81893,3.61826c0,0 -12.49885,-5.66616 -20.20806,-8.48455c-7.65597,-2.79891 -25.88863,-8.36775 -25.88863,-8.36775c0,0 24.90753,4.35156 54.33607,5.16963c18.22214,0.50655 31.56109,-4.03308 49.65177,-3.5302c13.45869,0.37414 31.6352,8.58857 53.04491,8.64723c16.9158,0.04633 24.61867,1.75761 36.86017,2.01812c6.65312,0.14159 -10.06667,-3.53658 -19.94663,-5.03448c-9.87996,-1.4979 -17.93298,-0.67271 -29.75021,-2.50005c-11.20288,-1.73235 -19.09587,-7.15319 -19.09587,-7.15319c0,0 26.50864,4.0539 57.53691,5.42064c22.58703,0.99491 41.60793,7.28952 54.38124,7.8028c13.17232,0.52931 37.23386,-3.57089 61.81809,-3.23921c14.29634,0.19287 78.81874,4.0757 78.81874,4.0757c0,0 -27.50248,-6.22951 -38.40597,-10.67223c-8.12192,-3.30936 -15.65253,-7.69234 -15.65253,-7.69234c0,0 16.74203,5.84434 45.9979,8.22482c21.06721,1.71417 58.66991,12.03285 58.66991,12.03285c0,0 -9.37239,-7.33601 -11.15544,-12.24619c-0.88466,-2.43615 -0.42758,-5.72487 0.25761,-8.4205c0.69585,-2.73753 1.62696,-4.86337 1.62696,-4.86337c0,0 9.52702,9.55959 15.75068,13.6551c5.08977,3.34936 26.87838,10.83442 26.87838,10.83442c0,0 -7.30333,-5.30721 -10.37787,-10.79288c-3.44509,-6.14679 -6.60291,-12.51763 -4.50413,-11.89688c7.48858,2.21488 46.26549,26.18995 46.26549,26.18995l-19.40947,47.90233c0,0 -21.37131,0.74319 -29.8492,0.58038c-6.68298,-0.12835 -16.92658,-1.47874 -16.92658,-1.47874c0,0 -2.14146,1.23816 -3.434,2.64022c-1.26333,1.37036 -1.67099,2.89727 -2.29826,3.57769c-0.63095,0.68441 -1.41699,1.53704 -1.41699,1.53704c0,0 -5.72811,-0.46616 -13.85013,-4.18681c-5.19804,-2.38118 -8.31495,-6.51086 -8.31495,-6.51086c0,0 -57.19574,8.34063 -76.6994,7.58696c-12.2565,-0.47363 21.11779,-12.58308 11.20986,-12.33671c-24.39268,0.60656 -98.06367,10.68768 -129.48621,14.54969c-9.10534,1.11909 -10.03475,-0.23871 -4.7605,-1.21096c11.61129,-2.14039 30.79223,-5.81486 34.59661,-7.40424c4.06858,-1.69974 3.59093,-3.29014 3.59093,-3.29014c0,0 -38.07378,1.57427 -54.37043,2.98201c-19.99309,1.72706 -65.78155,7.18686 -65.78155,7.18686c0,0 4.06864,-2.69713 5.58263,-3.74798c1.48737,-1.03237 3.42286,-2.50263 3.42286,-2.50263l-23.90463,3.78553c0,0 14.18612,-4.06 19.36398,-5.7851c4.19033,-1.39608 9.37221,-3.78884 9.37221,-3.78884c0,0 -95.94398,13.50714 -111.65328,15.6558c-5.43659,0.7436 -9.61684,-0.78011 -5.78569,-1.67353c5.028,-1.17252 12.5895,-2.88519 20.67427,-4.5361c8.73904,-1.78453 27.33676,-3.88727 32.33077,-5.11188c10.5644,-2.59056 13.59243,-6.72769 13.59243,-6.72769c0,0 -26.00621,2.02579 -38.50428,3.5234c-13.1948,1.58111 -38.68776,5.72637 -38.68776,5.72637l4.54407,-9.35814z" fill="#cb2411" stroke="#95392c" stroke-width="4.5"/><path d="M-26.70475,213.9273v-50.76674c0,0 15.34045,-1.65515 20.68107,0.06872c10.71836,3.45968 65.81893,3.61826 65.81893,3.61826c0,0 -12.49885,-5.66616 -20.20806,-8.48455c-7.65597,-2.79891 -25.88863,-8.36775 -25.88863,-8.36775c0,0 24.90753,4.35156 54.33607,5.16963c18.22214,0.50655 31.56109,-4.03308 49.65177,-3.5302c13.45869,0.37414 31.6352,8.58857 53.04491,8.64723c16.9158,0.04633 24.61867,1.75761 36.86017,2.01812c6.65312,0.14159 -10.06667,-3.53658 -19.94663,-5.03448c-9.87996,-1.4979 -17.93298,-0.67271 -29.75021,-2.50005c-11.20288,-1.73235 -19.09587,-7.15319 -19.09587,-7.15319c0,0 26.50864,4.0539 57.53691,5.42064c22.58703,0.99491 41.60793,7.28952 54.38124,7.8028c13.17232,0.52931 37.23386,-3.57089 61.81809,-3.23921c14.29634,0.19287 78.81874,4.0757 78.81874,4.0757c0,0 -27.50248,-6.22951 -38.40597,-10.67223c-8.12192,-3.30936 -15.65253,-7.69234 -15.65253,-7.69234c0,0 16.74203,5.84434 45.9979,8.22482c21.06721,1.71417 58.66991,12.03285 58.66991,12.03285c0,0 -9.37239,-7.33601 -11.15544,-12.24619c-0.88466,-2.43615 -0.42758,-5.72487 0.25761,-8.4205c0.69585,-2.73753 1.62696,-4.86337 1.62696,-4.86337c0,0 9.52702,9.55959 15.75068,13.6551c5.08977,3.34936 26.87838,10.83442 26.87838,10.83442c0,0 -7.30333,-5.30721 -10.37787,-10.79288c-3.44509,-6.14679 -6.60291,-12.51763 -4.50413,-11.89688c7.48858,2.21488 46.26549,26.18995 46.26549,26.18995l-19.40947,47.90233c0,0 -21.37131,0.74319 -29.84921,0.58038c-6.68298,-0.12835 -16.92658,-1.47874 -16.92658,-1.47874c0,0 -2.14146,1.23816 -3.434,2.64022c-1.26333,1.37036 -1.67099,2.89727 -2.29826,3.57769c-0.63096,0.68441 -1.41699,1.53704 -1.41699,1.53704c0,0 -5.7281,-0.46616 -13.85013,-4.18681c-5.19803,-2.38118 -8.31495,-6.51086 -8.31495,-6.51086c0,0 -57.19574,8.34063 -76.6994,7.58696c-12.2565,-0.47363 21.11779,-12.58308 11.20986,-12.33671c-24.39268,0.60656 -98.06367,10.68768 -129.48621,14.54969c-9.10534,1.11909 -10.03475,-0.23871 -4.7605,-1.21096c11.61129,-2.14039 30.79223,-5.81486 34.59661,-7.40424c4.06858,-1.69974 3.59093,-3.29014 3.59093,-3.29014c0,0 -38.07378,1.57427 -54.37043,2.98201c-19.99309,1.72706 -65.78155,7.18686 -65.78155,7.18686c0,0 4.06864,-2.69713 5.58263,-3.74798c1.48737,-1.03237 3.42286,-2.50263 3.42286,-2.50263l-23.90463,3.78553c0,0 14.18612,-4.06 19.36398,-5.7851c4.19033,-1.39608 9.37221,-3.78884 9.37221,-3.78884c0,0 -95.94398,13.50714 -111.65328,15.6558c-5.43659,0.7436 -9.61684,-0.78011 -5.78569,-1.67353c5.028,-1.17252 12.5895,-2.88519 20.67427,-4.5361c8.73904,-1.78452 27.33676,-3.88727 32.33077,-5.11188c10.5644,-2.59056 13.59243,-6.72769 13.59243,-6.72769c0,0 -26.00621,2.02579 -38.50428,3.5234c-13.1948,1.58111 -38.68776,5.72637 -38.68776,5.72637l4.54407,-9.35814z" fill="#cb2411" stroke="none" stroke-width="0"/><path d="M-7.00301,201.66715l-0.40333,-23.95839c0,0 -1.86293,-2.32599 1.50403,-2.59805c7.77421,-0.62818 24.26201,-0.12196 39.50757,-0.59185c14.35276,-0.44237 27.55392,-1.87806 32.92945,-1.93185c6.77068,-0.06772 15.16608,0.23881 15.16608,0.23881c0,0 -0.82326,-1.31669 -1.77843,-2.00332c-1.04357,-0.75019 -4.24131,-2.32403 -4.24131,-2.32403c0,0 6.27875,-0.03871 9.09455,0.07253c2.38535,0.09423 8.82805,0.92806 8.82805,0.92806l-6.22257,-4.47838c0,0 53.80655,8.44081 76.35854,8.25391c1.22083,-0.01011 -8.91545,-1.15851 -17.14674,-2.84762c-3.28999,-0.67512 -8.87212,-1.79607 -10.97274,-2.55203c-2.59415,-0.93356 -1.2068,-1.4232 0.45019,-1.17958c0.82778,0.1217 28.65692,5.82471 55.7635,8.48805c11.30377,1.11065 22.46764,0.64812 31.02295,0.59465c13.06507,-0.08164 20.94255,1.86933 29.83742,1.53593c1.32849,-0.0498 -6.16488,-1.14691 -16.24772,-2.10993c-6.88492,-0.65758 -15.43126,-1.08077 -21.41167,-1.74244c-2.60374,-0.28808 -4.77755,-0.64771 -6.42755,-0.9692c-2.30926,-0.44996 -5.12051,-0.78501 -3.0871,-0.86187c3.11291,-0.11767 28.78016,-0.40327 43.10977,-0.945c14.34514,-0.54229 73.49555,3.63314 93.54084,4.00952c17.81517,0.33451 43.10948,0.26968 43.10948,0.26968c0,0 -42.35495,-3.63581 -37.53513,-4.44333c0.6174,-0.10344 4.05406,-0.21361 2.70103,-0.82654c-2.18335,-0.98906 -8.51674,-1.4391 -13.47172,-2.91366c-3.63552,-1.08189 -6.97543,-2.39965 -9.41764,-3.45267c-2.47852,-1.06867 -1.80347,-1.8576 1.01641,-1.84868c4.60881,0.01458 62.43065,12.71929 97.46675,11.07613c10.38517,-0.48706 -12.85804,-5.00025 -12.85804,-5.00025c0,0 28.54477,2.42216 41.68301,2.84666c11.57637,0.37404 33.05542,-0.43185 33.05542,-0.43185l-0.00877,26.03458c0,0 -36.36998,1.89308 -49.59457,3.1221c-19.06824,1.7721 -64.84345,7.0581 -64.84345,7.0581c0,0 8.74033,-3.97478 16.33316,-6.00558c7.59283,-2.03079 20.63112,-3.88098 20.63112,-3.88098c0,0 -29.71824,1.23427 -45.58323,2.04458c-17.32999,0.88515 -54.39038,3.06163 -54.39038,3.06163c0,0 2.46946,-1.75519 3.38084,-2.56742c0.82307,-0.73352 1.84958,-2.09396 1.84958,-2.09396c0,0 -40.76027,1.3346 -75.20017,3.52391c-33.78352,2.14759 -76.18328,4.86611 -83.86204,4.96197c-6.82569,0.0852 0.7142,-4.66806 0.7142,-4.66806l-30.89624,3.01223c0,0 3.34565,-2.01883 3.96167,-2.94302c0.54858,-0.82302 -0.44435,-2.33389 -0.44435,-2.33389c0,0 -44.09228,-0.12332 -72.15842,0.56728c-28.06613,0.6906 -64.81229,2.80306 -64.81229,2.80306z" data-paper-data="{&quot;index&quot;:null}" fill="#eec0b1" stroke="none" stroke-width="0"/></g></g></svg>