<svg version="1.1" xmlns="http://www.w3.org/2000/svg" xmlns:xlink="http://www.w3.org/1999/xlink" width="546.53859" height="180.35786" viewBox="0,0,546.53859,180.35786"><g transform="translate(34.13729,-85.11493)"><g data-paper-data="{&quot;isPaintingLayer&quot;:true}" fill-rule="nonzero" stroke-linecap="butt" stroke-linejoin="miter" stroke-miterlimit="10" stroke-dasharray="" stroke-dashoffset="0" style="mix-blend-mode: normal"><path d="M-26.70474,242.62805v-93.71278c0,0 15.34045,-3.05533 20.68107,0.12685c10.71836,6.38639 65.81893,6.67913 65.81893,6.67913c0,0 -12.49885,-10.45944 -20.20806,-15.66204c-7.65597,-5.16665 -25.88863,-15.44644 -25.88863,-15.44644c0,0 24.90753,8.03275 54.33607,9.54287c18.22214,0.93506 31.56109,-7.44486 49.65177,-6.51657c13.45869,0.69064 31.6352,15.85406 53.04491,15.96234c16.9158,0.08553 24.61867,3.24446 36.86017,3.72534c6.65312,0.26137 -10.06667,-6.52834 -19.94663,-9.29339c-9.87996,-2.76505 -17.93298,-1.24179 -29.75021,-4.61496c-11.20288,-3.19782 -19.09587,-13.20442 -19.09587,-13.20442c0,0 26.50864,7.48329 57.53691,10.00623c22.58703,1.83655 41.60793,13.45607 54.38124,14.40357c13.17232,0.97708 37.23386,-6.59168 61.81809,-5.97942c14.29634,0.35602 78.81874,7.52353 78.81874,7.52353c0,0 -27.50248,-11.49936 -38.40597,-19.70039c-8.12192,-6.10891 -15.65253,-14.19966 -15.65253,-14.19966c0,0 16.74203,10.78835 45.9979,15.18259c21.06721,3.16427 58.66991,22.21202 58.66991,22.21202c0,0 -9.37239,-13.54189 -11.15544,-22.60583c-0.88466,-4.49701 -0.42758,-10.56781 0.25761,-15.54381c0.69585,-5.05334 1.62696,-8.97753 1.62696,-8.97753c0,0 9.52702,17.64651 15.75068,25.20661c5.08977,6.18274 26.87838,19.99978 26.87838,19.99978c0,0 -7.30333,-9.79683 -10.37787,-19.9231c-3.44509,-11.34666 -6.60291,-23.1069 -4.50413,-21.96103c7.48858,4.08856 46.26549,48.3453 46.26549,48.3453l-19.40947,88.42523c0,0 -21.37131,1.37189 -29.8492,1.07135c-6.68298,-0.23692 -16.92658,-2.72968 -16.92658,-2.72968c0,0 -2.14146,2.28558 -3.434,4.87371c-1.26333,2.52961 -1.67099,5.34821 -2.29826,6.60423c-0.63095,1.26339 -1.41699,2.8373 -1.41699,2.8373c0,0 -5.72811,-0.8605 -13.85013,-7.72864c-5.19804,-4.39554 -8.31495,-12.01871 -8.31495,-12.01871c0,0 -57.19574,15.39637 -76.6994,14.00513c-12.2565,-0.8743 21.11779,-23.22772 11.20986,-22.77293c-24.39268,1.11968 -98.06367,19.72891 -129.48621,26.85798c-9.10534,2.06578 -10.03475,-0.44064 -4.7605,-2.23537c11.61129,-3.95105 30.79223,-10.73393 34.59661,-13.66785c4.06858,-3.13764 3.59093,-6.07343 3.59093,-6.07343c0,0 -38.07378,2.90602 -54.37043,5.50464c-19.99309,3.18806 -65.78155,13.26657 -65.78155,13.26657c0,0 4.06864,-4.97877 5.58263,-6.91858c1.48737,-1.9057 3.42286,-4.61973 3.42286,-4.61973l-23.90463,6.98789c0,0 14.18612,-7.49455 19.36398,-10.67899c4.19033,-2.57709 9.37221,-6.99401 9.37221,-6.99401c0,0 -95.94398,24.93349 -111.65328,28.8998c-5.43659,1.37265 -9.61684,-1.44004 -5.78569,-3.08925c5.028,-2.16441 12.5895,-5.32591 20.67427,-8.3734c8.73904,-3.29415 27.33676,-7.1757 32.33077,-9.43626c10.5644,-4.78204 13.59243,-12.41897 13.59243,-12.41897c0,0 -26.00621,3.7395 -38.50428,6.50401c-13.1948,2.91865 -38.68776,10.57059 -38.68776,10.57059l4.54407,-17.27464z" fill="#cb2411" stroke="#000000" stroke-width="10.5"/><path d="M-26.70474,242.62805v-93.71278c0,0 15.34045,-3.05533 20.68107,0.12685c10.71836,6.38639 65.81893,6.67913 65.81893,6.67913c0,0 -12.49885,-10.45944 -20.20806,-15.66204c-7.65597,-5.16665 -25.88863,-15.44644 -25.88863,-15.44644c0,0 24.90753,8.03275 54.33607,9.54287c18.22214,0.93506 31.56109,-7.44486 49.65177,-6.51657c13.45869,0.69064 31.6352,15.85406 53.04491,15.96234c16.9158,0.08553 24.61867,3.24446 36.86017,3.72534c6.65312,0.26137 -10.06667,-6.52834 -19.94663,-9.29339c-9.87996,-2.76505 -17.93298,-1.24179 -29.75021,-4.61496c-11.20288,-3.19782 -19.09587,-13.20442 -19.09587,-13.20442c0,0 26.50864,7.48329 57.53691,10.00623c22.58703,1.83655 41.60793,13.45607 54.38124,14.40357c13.17232,0.97708 37.23386,-6.59168 61.81809,-5.97942c14.29634,0.35602 78.81874,7.52353 78.81874,7.52353c0,0 -27.50248,-11.49936 -38.40597,-19.70039c-8.12192,-6.10891 -15.65253,-14.19966 -15.65253,-14.19966c0,0 16.74203,10.78835 45.9979,15.18259c21.06721,3.16427 58.66991,22.21202 58.66991,22.21202c0,0 -9.37239,-13.54189 -11.15544,-22.60583c-0.88466,-4.49701 -0.42758,-10.56781 0.25761,-15.54381c0.69585,-5.05334 1.62696,-8.97753 1.62696,-8.97753c0,0 9.52702,17.64651 15.75068,25.20661c5.08977,6.18274 26.87838,19.99978 26.87838,19.99978c0,0 -7.30333,-9.79683 -10.37787,-19.9231c-3.44509,-11.34666 -6.60291,-23.1069 -4.50413,-21.96103c7.48858,4.08856 46.26549,48.3453 46.26549,48.3453l-19.40947,88.42523c0,0 -21.37131,1.37189 -29.8492,1.07135c-6.68298,-0.23692 -16.92658,-2.72968 -16.92658,-2.72968c0,0 -2.14146,2.28558 -3.434,4.87371c-1.26333,2.52961 -1.67099,5.34821 -2.29826,6.60423c-0.63095,1.26339 -1.41699,2.8373 -1.41699,2.8373c0,0 -5.72811,-0.8605 -13.85013,-7.72864c-5.19804,-4.39554 -8.31495,-12.01871 -8.31495,-12.01871c0,0 -57.19574,15.39637 -76.6994,14.00513c-12.2565,-0.8743 21.11779,-23.22772 11.20986,-22.77293c-24.39268,1.11968 -98.06367,19.72891 -129.48621,26.85798c-9.10534,2.06578 -10.03475,-0.44064 -4.7605,-2.23537c11.61129,-3.95105 30.79223,-10.73393 34.59661,-13.66785c4.06858,-3.13764 3.59093,-6.07343 3.59093,-6.07343c0,0 -38.07378,2.90602 -54.37043,5.50464c-19.99309,3.18806 -65.78155,13.26657 -65.78155,13.26657c0,0 4.06864,-4.97877 5.58263,-6.91858c1.48737,-1.9057 3.42286,-4.61973 3.42286,-4.61973l-23.90463,6.98789c0,0 14.18612,-7.49455 19.36398,-10.67899c4.19033,-2.57709 9.37221,-6.99401 9.37221,-6.99401c0,0 -95.94398,24.93349 -111.65328,28.8998c-5.43659,1.37265 -9.61684,-1.44004 -5.78569,-3.08925c5.028,-2.16441 12.5895,-5.32591 20.67427,-8.3734c8.73904,-3.29415 27.33676,-7.1757 32.33077,-9.43626c10.5644,-4.78204 13.59243,-12.41897 13.59243,-12.41897c0,0 -26.00621,3.7395 -38.50428,6.50401c-13.1948,2.91865 -38.68776,10.57059 -38.68776,10.57059l4.54407,-17.27464z" fill="#cb2411" stroke="#95392c" stroke-width="4.5"/><path d="M-26.70475,242.62805v-93.71278c0,0 15.34045,-3.05533 20.68107,0.12685c10.71836,6.38639 65.81893,6.67913 65.81893,6.67913c0,0 -12.49885,-10.45944 -20.20806,-15.66204c-7.65597,-5.16665 -25.88863,-15.44644 -25.88863,-15.44644c0,0 24.90753,8.03275 54.33607,9.54287c18.22214,0.93506 31.56109,-7.44486 49.65177,-6.51657c13.45869,0.69064 31.6352,15.85406 53.04491,15.96234c16.9158,0.08553 24.61867,3.24446 36.86017,3.72534c6.65312,0.26137 -10.06667,-6.52834 -19.94663,-9.29339c-9.87996,-2.76505 -17.93298,-1.24179 -29.75021,-4.61496c-11.20288,-3.19782 -19.09587,-13.20442 -19.09587,-13.20442c0,0 26.50864,7.48329 57.53691,10.00623c22.58703,1.83655 41.60793,13.45607 54.38124,14.40357c13.17232,0.97708 37.23386,-6.59168 61.81809,-5.97942c14.29634,0.35602 78.81874,7.52353 78.81874,7.52353c0,0 -27.50248,-11.49936 -38.40597,-19.70039c-8.12192,-6.10891 -15.65253,-14.19966 -15.65253,-14.19966c0,0 16.74203,10.78835 45.9979,15.18259c21.06721,3.16427 58.66991,22.21202 58.66991,22.21202c0,0 -9.37239,-13.54189 -11.15544,-22.60583c-0.88466,-4.49701 -0.42758,-10.56781 0.25761,-15.54381c0.69585,-5.05334 1.62696,-8.97753 1.62696,-8.97753c0,0 9.52702,17.64651 15.75068,25.20661c5.08977,6.18274 26.87838,19.99978 26.87838,19.99978c0,0 -7.30333,-9.79683 -10.37787,-19.9231c-3.44509,-11.34666 -6.60291,-23.1069 -4.50413,-21.96103c7.48858,4.08856 46.26549,48.3453 46.26549,48.3453l-19.40947,88.42523c0,0 -21.37131,1.37189 -29.84921,1.07135c-6.68298,-0.23692 -16.92658,-2.72968 -16.92658,-2.72968c0,0 -2.14146,2.28558 -3.434,4.87371c-1.26333,2.52961 -1.67099,5.34821 -2.29826,6.60423c-0.63096,1.26339 -1.41699,2.8373 -1.41699,2.8373c0,0 -5.7281,-0.8605 -13.85013,-7.72864c-5.19803,-4.39554 -8.31495,-12.01871 -8.31495,-12.01871c0,0 -57.19574,15.39637 -76.6994,14.00513c-12.2565,-0.8743 21.11779,-23.22772 11.20986,-22.77293c-24.39268,1.11968 -98.06367,19.72891 -129.48621,26.85798c-9.10534,2.06578 -10.03475,-0.44064 -4.7605,-2.23537c11.61129,-3.95105 30.79223,-10.73393 34.59661,-13.66785c4.06858,-3.13764 3.59093,-6.07343 3.59093,-6.07343c0,0 -38.07378,2.90602 -54.37043,5.50464c-19.99309,3.18806 -65.78155,13.26657 -65.78155,13.26657c0,0 4.06864,-4.97877 5.58263,-6.91858c1.48737,-1.9057 3.42286,-4.61973 3.42286,-4.61973l-23.90463,6.98789c0,0 14.18612,-7.49455 19.36398,-10.67899c4.19033,-2.57709 9.37221,-6.99401 9.37221,-6.99401c0,0 -95.94398,24.93349 -111.65328,28.8998c-5.43659,1.37265 -9.61684,-1.44004 -5.78569,-3.08925c5.028,-2.16441 12.5895,-5.32591 20.67427,-8.3734c8.73904,-3.29413 27.33676,-7.1757 32.33077,-9.43626c10.5644,-4.78204 13.59243,-12.41897 13.59243,-12.41897c0,0 -26.00621,3.7395 -38.50428,6.50401c-13.1948,2.91865 -38.68776,10.57059 -38.68776,10.57059l4.54407,-17.27464z" fill="#cb2411" stroke="none" stroke-width="0"/><path d="M-7.00301,219.99644l-0.40333,-44.22595c0,0 -1.86293,-4.29366 1.50403,-4.79587c7.77421,-1.15959 24.26201,-0.22514 39.50757,-1.09252c14.35276,-0.8166 27.55392,-3.4668 32.92945,-3.5661c6.77068,-0.125 15.16608,0.44083 15.16608,0.44083c0,0 -0.82326,-2.43054 -1.77843,-3.69802c-1.04357,-1.38482 -4.24131,-4.29004 -4.24131,-4.29004c0,0 6.27875,-0.07146 9.09455,0.13388c2.38535,0.17394 8.82805,1.71315 8.82805,1.71315l-6.22257,-8.26686c0,0 53.80655,15.5813 76.35854,15.23629c1.22083,-0.01866 -8.91545,-2.13855 -17.14674,-5.25656c-3.28999,-1.24624 -8.87212,-3.31545 -10.97274,-4.71091c-2.59415,-1.72331 -1.2068,-2.62716 0.45019,-2.17745c0.82778,0.22465 28.65692,10.75211 55.7635,15.66851c11.30377,2.05021 22.46764,1.1964 31.02295,1.09769c13.06507,-0.1507 20.94255,3.45069 29.83742,2.83525c1.32849,-0.09193 -6.16488,-2.11714 -16.24772,-3.89482c-6.88492,-1.21386 -15.43126,-1.99505 -21.41167,-3.21646c-2.60374,-0.53178 -4.77755,-1.19564 -6.42755,-1.78909c-2.30926,-0.8306 -5.12051,-1.44909 -3.0871,-1.59097c3.11291,-0.21722 28.78016,-0.74442 43.10977,-1.74443c14.34514,-1.00104 73.49555,6.70658 93.54084,7.40137c17.81517,0.61748 43.10948,0.49782 43.10948,0.49782c0,0 -42.35495,-6.71152 -37.53513,-8.20216c0.6174,-0.19095 4.05406,-0.39431 2.70103,-1.52575c-2.18335,-1.82576 -8.51674,-2.6565 -13.47172,-5.37846c-3.63552,-1.99711 -6.97543,-4.42963 -9.41764,-6.37345c-2.47852,-1.97271 -1.80347,-3.42903 1.01641,-3.41257c4.60881,0.02691 62.43065,23.47915 97.46675,20.44597c10.38517,-0.89909 -12.85804,-9.2302 -12.85804,-9.2302c0,0 28.54477,4.47119 41.68301,5.25479c11.57637,0.69046 33.05542,-0.79717 33.05542,-0.79717l-0.00877,48.05849c0,0 -36.36998,3.49452 -49.59457,5.76323c-19.06824,3.2712 -64.84345,13.02888 -64.84345,13.02888c0,0 8.74033,-7.33724 16.33316,-11.08599c7.59283,-3.74873 20.63112,-7.16409 20.63112,-7.16409c0,0 -29.71824,2.2784 -45.58323,3.77419c-17.32999,1.63394 -54.39038,5.65161 -54.39038,5.65161c0,0 2.46946,-3.23999 3.38084,-4.73932c0.82307,-1.35404 1.84958,-3.86534 1.84958,-3.86534c0,0 -40.76027,2.4636 -75.20017,6.50495c-33.78352,3.96434 -76.18328,8.98259 -83.86204,9.15955c-6.82569,0.15727 0.7142,-8.617 0.7142,-8.617l-30.89624,5.56042c0,0 3.34565,-3.72665 3.96167,-5.43266c0.54858,-1.51925 -0.44435,-4.30824 -0.44435,-4.30824c0,0 -44.09228,-0.22764 -72.15842,1.04717c-28.06613,1.27482 -64.81229,5.1743 -64.81229,5.1743z" data-paper-data="{&quot;index&quot;:null}" fill="#eec0b1" stroke="none" stroke-width="0"/></g></g></svg>