<svg version="1.1" xmlns="http://www.w3.org/2000/svg" xmlns:xlink="http://www.w3.org/1999/xlink" width="115.12943" height="25.4" viewBox="0,0,115.12943,25.4"><g transform="translate(-182.43528,-166.41773)"><g data-paper-data="{&quot;isPaintingLayer&quot;:true}" fill-rule="nonzero" stroke="none" stroke-linejoin="miter" stroke-miterlimit="10" stroke-dasharray="" stroke-dashoffset="0" style="mix-blend-mode: normal"><path d="M183.90947,176.66706v5.06351c0,0.32963 -0.01526,0.5616 -0.04578,0.69589c-0.03052,0.13429 -0.10988,0.25943 -0.23807,0.37541c-0.12819,0.10988 -0.2808,0.16482 -0.45782,0.16482c-0.17703,0 -0.33268,-0.05189 -0.46698,-0.15566c-0.12819,-0.10377 -0.20449,-0.22586 -0.22891,-0.36626c-0.02442,-0.1404 -0.03663,-0.37847 -0.03663,-0.7142v-5.66783c0,-0.35405 0.06104,-0.61958 0.18313,-0.79661c0.12209,-0.17703 0.39373,-0.26554 0.81492,-0.26554h0.47613c0.4212,0 0.68979,0.05799 0.80577,0.17397c0.11598,0.11598 0.23807,0.40899 0.36626,0.87902l1.1354,4.28521l1.12624,-4.28521c0.12209,-0.46392 0.24112,-0.75388 0.3571,-0.86986c0.11598,-0.12209 0.38762,-0.18313 0.81492,-0.18313h0.47613c0.37236,0 0.63179,0.07325 0.7783,0.21975c0.1465,0.1465 0.21975,0.4273 0.21975,0.84239v5.66783c0,0.33573 -0.01221,0.57075 -0.03663,0.70505c-0.02442,0.13429 -0.10377,0.25638 -0.23807,0.36626c-0.12819,0.10988 -0.2808,0.16482 -0.45782,0.16482c-0.15871,0 -0.30522,-0.04578 -0.43951,-0.13735c-0.13429,-0.09156 -0.21975,-0.20754 -0.25638,-0.34794c-0.03052,-0.1465 -0.04578,-0.39678 -0.04578,-0.75083v-5.06351l-1.23612,4.9811c-0.15261,0.59822 -0.30522,0.96753 -0.45782,1.10793c-0.1465,0.1404 -0.34794,0.2106 -0.60432,0.2106c-0.29911,0 -0.51886,-0.08546 -0.65926,-0.25638c-0.1404,-0.17092 -0.27775,-0.52497 -0.41204,-1.06215zM195.58036,180.3571h-2.85681c0.01221,0.54328 0.15871,0.95227 0.43951,1.22696c0.2869,0.27469 0.62874,0.41204 1.02552,0.41204c0.48834,0 0.94617,-0.21365 1.37346,-0.64095c0.17703,-0.17703 0.30522,-0.2869 0.38457,-0.32963c0.08546,-0.04273 0.18008,-0.0641 0.28385,-0.0641c0.13429,0 0.24722,0.04273 0.33879,0.12819c0.09156,0.07935 0.13735,0.18008 0.13735,0.30216c0,0.32353 -0.22281,0.66842 -0.66842,1.03468c-0.44561,0.36015 -1.05299,0.54023 -1.82213,0.54023c-0.97668,0 -1.71836,-0.27469 -2.22501,-0.82408c-0.50055,-0.55549 -0.75083,-1.26969 -0.75083,-2.1426c0,-0.88512 0.25028,-1.59932 0.75083,-2.1426c0.50666,-0.54939 1.20865,-0.82408 2.10598,-0.82408c0.8607,0 1.52302,0.25943 1.98695,0.7783c0.47003,0.51886 0.70505,1.08046 0.70505,1.68478c0,0.26248 -0.07935,0.47308 -0.23807,0.63179c-0.15261,0.15261 -0.47613,0.22891 -0.97058,0.22891zM192.72356,179.53302h2.65536c-0.01831,-0.48834 -0.15261,-0.85765 -0.40288,-1.10793c-0.25028,-0.25638 -0.55854,-0.38457 -0.9248,-0.38457c-0.76914,0 -1.2117,0.4975 -1.32768,1.4925zM201.99463,182.13345v-0.1465c-0.50055,0.65316 -1.1354,0.97974 -1.90454,0.97974c-0.74472,0 -1.33684,-0.28385 -1.77635,-0.85155c-0.43951,-0.5677 -0.65926,-1.30021 -0.65926,-2.19754c0,-0.84239 0.21365,-1.53218 0.64095,-2.06935c0.43341,-0.54328 1.02857,-0.81492 1.7855,-0.81492c0.73862,0 1.37652,0.29911 1.91369,0.89733v-1.89538c0,-0.51886 0.0641,-0.84239 0.19229,-0.97058c0.13429,-0.12819 0.31437,-0.19229 0.54023,-0.19229c0.15871,0 0.30216,0.04578 0.43035,0.13735c0.13429,0.08546 0.2167,0.20144 0.24722,0.34794c0.03052,0.1465 0.04578,0.38762 0.04578,0.72336v5.74108c0,0.32353 -0.01831,0.55549 -0.05494,0.69589c-0.03052,0.1404 -0.11293,0.25028 -0.24722,0.32963c-0.13429,0.07935 -0.27775,0.11903 -0.43035,0.11903c-0.48224,0 -0.72336,-0.27775 -0.72336,-0.83324zM199.12867,179.96337c0,0.65316 0.13735,1.13234 0.41204,1.43756c0.27469,0.29911 0.58906,0.44867 0.94311,0.44867c0.41509,0 0.75693,-0.15566 1.02552,-0.46698c0.26859,-0.31742 0.40288,-0.75693 0.40288,-1.31853c0,-0.58601 -0.13124,-1.05299 -0.39373,-1.40093c-0.26248,-0.34794 -0.61043,-0.52192 -1.04383,-0.52192c-0.39678,0 -0.7203,0.16176 -0.97058,0.48529c-0.25028,0.32353 -0.37541,0.76914 -0.37541,1.33684zM208.28738,182.82934h-2.02357c-0.47003,0 -0.78745,-0.03357 -0.95227,-0.10072c-0.15871,-0.07325 -0.26248,-0.18618 -0.31132,-0.33879c-0.04884,-0.15871 -0.07325,-0.45477 -0.07325,-0.88817v-5.17338c0,-0.45782 0.03357,-0.76609 0.10072,-0.9248c0.06715,-0.15871 0.18008,-0.26554 0.33879,-0.32048c0.15871,-0.05494 0.45782,-0.08241 0.89733,-0.08241h2.17007c0.62874,0 1.10793,0.0702 1.43756,0.2106c0.33573,0.13429 0.61958,0.3571 0.85155,0.66842c0.23196,0.31132 0.34794,0.67452 0.34794,1.08962c0,0.78745 -0.39067,1.36125 -1.17202,1.72141c1.01942,0.2869 1.52912,0.92175 1.52912,1.90454c0,0.47613 -0.13124,0.90038 -0.39373,1.27274c-0.26248,0.36626 -0.60127,0.61958 -1.01636,0.75998c-0.40899,0.13429 -0.98584,0.20144 -1.73057,0.20144zM206.50188,176.22755v1.95948h1.47419c0.62264,0 1.03468,-0.09156 1.23612,-0.27469c0.20144,-0.18923 0.30216,-0.43341 0.30216,-0.73251c0,-0.29911 -0.10682,-0.53107 -0.32048,-0.69589c-0.21365,-0.17092 -0.67452,-0.25638 -1.38262,-0.25638zM208.16835,179.40483h-1.66647v2.19754h1.72141c0.60432,0 1.02247,-0.09767 1.25443,-0.29301c0.23196,-0.20144 0.34794,-0.47308 0.34794,-0.81492c0,-0.33573 -0.12209,-0.60127 -0.36626,-0.79661c-0.23807,-0.19534 -0.66842,-0.29301 -1.29106,-0.29301zM216.38872,182.1426c-0.68979,0.54939 -1.36736,0.82408 -2.03273,0.82408c-0.62874,0 -1.11403,-0.15871 -1.45587,-0.47613c-0.33573,-0.32353 -0.5036,-0.71725 -0.5036,-1.18118c0,-0.39678 0.11293,-0.71725 0.33879,-0.96143c0.23196,-0.24417 0.48224,-0.41204 0.75083,-0.5036c0.27469,-0.09767 0.71725,-0.2106 1.32768,-0.33879c0.61043,-0.12819 1.10182,-0.24417 1.47419,-0.34794c-0.0061,-0.43951 -0.09462,-0.73557 -0.26554,-0.88817c-0.17092,-0.15871 -0.43035,-0.23807 -0.7783,-0.23807c-0.65926,0 -1.09267,0.18618 -1.30021,0.55854c-0.10988,0.20754 -0.2106,0.3571 -0.30216,0.44867c-0.08546,0.08546 -0.21365,0.12819 -0.38457,0.12819c-0.15261,0 -0.29301,-0.04884 -0.4212,-0.1465c-0.12209,-0.10377 -0.18313,-0.23501 -0.18313,-0.39373c0,-0.37847 0.20449,-0.73862 0.61348,-1.08046c0.40899,-0.34184 1.05299,-0.51276 1.93201,-0.51276c0.89123,0 1.54133,0.15566 1.95032,0.46698c0.41509,0.30522 0.61043,0.92785 0.58601,1.86791l-0.02747,1.36431c-0.01221,0.4212 0.03052,0.76609 0.12819,1.03468c0.10377,0.26859 0.15566,0.47308 0.15566,0.61348c0,0.15261 -0.0702,0.28995 -0.2106,0.41204c-0.13429,0.11598 -0.28385,0.17397 -0.44867,0.17397c-0.29911,0 -0.61348,-0.27469 -0.94311,-0.82408zM216.29716,180.03663c-0.21975,0.07935 -0.57991,0.17092 -1.08046,0.27469c-0.49445,0.09767 -0.84849,0.2106 -1.06215,0.33879c-0.20754,0.12819 -0.31132,0.31437 -0.31132,0.55854c0,0.21365 0.08241,0.39983 0.24722,0.55854c0.17092,0.15871 0.40594,0.23807 0.70505,0.23807c0.32353,0 0.62264,-0.08851 0.89733,-0.26554c0.27469,-0.17703 0.44256,-0.38457 0.5036,-0.62264c0.06715,-0.24417 0.10072,-0.60432 0.10072,-1.08046zM220.54364,182.82018l-1.7855,-4.51412c-0.10988,-0.29301 -0.16482,-0.49445 -0.16482,-0.60432c0,-0.17092 0.06715,-0.32353 0.20144,-0.45782c0.1404,-0.1404 0.30522,-0.2106 0.49445,-0.2106c0.16482,0 0.30522,0.05189 0.4212,0.15566c0.11598,0.10377 0.22891,0.31132 0.33879,0.62264l1.23612,3.58932l1.16287,-3.32378c0.15261,-0.43951 0.27469,-0.72336 0.36626,-0.85155c0.09156,-0.12819 0.24722,-0.19229 0.46698,-0.19229c0.20144,0 0.36015,0.06715 0.47613,0.20144c0.11598,0.13429 0.17397,0.27164 0.17397,0.41204c0,0.16482 -0.05799,0.39678 -0.17397,0.69589l-1.90454,4.9811c-0.25028,0.65926 -0.51276,1.12319 -0.78745,1.39178c-0.26859,0.27469 -0.72946,0.41204 -1.38262,0.41204c-0.84239,0 -1.26359,-0.2167 -1.26359,-0.65011c0,-0.1404 0.04578,-0.25943 0.13735,-0.3571c0.09767,-0.09767 0.22586,-0.1465 0.38457,-0.1465c0.02442,0 0.10682,0.0061 0.24722,0.01831c0.1404,0.01221 0.22281,0.01831 0.24722,0.01831c0.26859,0 0.46698,-0.06715 0.59517,-0.20144c0.12819,-0.12819 0.25333,-0.351 0.37541,-0.66842zM225.95636,177.03332c0.21365,0 0.39983,0.07935 0.55854,0.23807c0.15871,0.15871 0.23807,0.34489 0.23807,0.55854c0,0.22586 -0.07935,0.41814 -0.23807,0.57686c-0.15871,0.15871 -0.34489,0.23807 -0.55854,0.23807c-0.22586,0 -0.41814,-0.07935 -0.57686,-0.23807c-0.15871,-0.15871 -0.23807,-0.351 -0.23807,-0.57686c0,-0.21365 0.07935,-0.39983 0.23807,-0.55854c0.15871,-0.15871 0.351,-0.23807 0.57686,-0.23807zM225.95636,181.35515c0.21365,0 0.39983,0.07935 0.55854,0.23807c0.15871,0.15261 0.23807,0.33879 0.23807,0.55854c0,0.21975 -0.07935,0.41204 -0.23807,0.57686c-0.15871,0.15871 -0.34489,0.23807 -0.55854,0.23807c-0.22586,0 -0.41814,-0.07935 -0.57686,-0.23807c-0.15871,-0.15871 -0.23807,-0.351 -0.23807,-0.57686c0,-0.21975 0.07935,-0.40594 0.23807,-0.55854c0.15871,-0.15871 0.351,-0.23807 0.57686,-0.23807zM233.10915,176.91428c0,0.21975 0.09462,0.41204 0.28385,0.57686c0.19534,0.16482 0.68673,0.34184 1.47419,0.53107c0.79356,0.18923 1.37958,0.38762 1.75804,0.59517c0.37847,0.20754 0.65316,0.47919 0.82408,0.81492c0.17092,0.32963 0.25638,0.67758 0.25638,1.04383c0,0.73251 -0.27775,1.33074 -0.83324,1.79466c-0.55549,0.46392 -1.30937,0.69589 -2.26165,0.69589c-1.04994,0 -1.83434,-0.25028 -2.3532,-0.75083c-0.51276,-0.50666 -0.76914,-1.02857 -0.76914,-1.56575c0,-0.17703 0.0641,-0.33573 0.19229,-0.47613c0.13429,-0.1404 0.30827,-0.2106 0.52192,-0.2106c0.19534,0 0.34184,0.05799 0.43951,0.17397c0.09767,0.11598 0.21365,0.33268 0.34794,0.65011c0.29301,0.67147 0.81492,1.00721 1.56575,1.00721c0.44561,0 0.82103,-0.10072 1.12625,-0.30216c0.31132,-0.20754 0.46698,-0.48834 0.46698,-0.84239c0,-0.27469 -0.10682,-0.50971 -0.32048,-0.70505c-0.20754,-0.19534 -0.69284,-0.38152 -1.45588,-0.55854c-0.75693,-0.17703 -1.29106,-0.34489 -1.60238,-0.5036c-0.30522,-0.15871 -0.57075,-0.38762 -0.79661,-0.68673c-0.22586,-0.30522 -0.33879,-0.68368 -0.33879,-1.1354c0,-0.66537 0.26248,-1.19644 0.78745,-1.59322c0.52497,-0.39678 1.24222,-0.59517 2.15176,-0.59517c0.92786,0 1.6268,0.2106 2.09683,0.63179c0.47003,0.4212 0.70505,0.84544 0.70505,1.27274c0,0.18313 -0.0702,0.35405 -0.2106,0.51276c-0.13429,0.15261 -0.30522,0.22891 -0.51276,0.22891c-0.19534,0 -0.34184,-0.05494 -0.43951,-0.16482c-0.09767,-0.10988 -0.2106,-0.29301 -0.33879,-0.54939c-0.26859,-0.53718 -0.73252,-0.80577 -1.39179,-0.80577c-0.38457,0 -0.71115,0.08546 -0.97974,0.25638c-0.26248,0.16482 -0.39373,0.38457 -0.39373,0.65926zM238.90873,180.79661v-2.55464c0,-0.31742 0.01221,-0.54633 0.03663,-0.68673c0.02442,-0.1404 0.09767,-0.26248 0.21975,-0.36626c0.12819,-0.10377 0.2808,-0.15566 0.45782,-0.15566c0.17092,0 0.32048,0.04884 0.44867,0.1465c0.13429,0.09767 0.2167,0.22586 0.24722,0.38457c0.03052,0.15261 0.04578,0.38762 0.04578,0.70505v2.00526c0,0.65926 0.10072,1.08046 0.30216,1.26359c0.20754,0.18313 0.43341,0.27469 0.67758,0.27469c0.2808,0 0.52497,-0.07935 0.73251,-0.23807c0.21365,-0.15871 0.3571,-0.34794 0.43035,-0.5677c0.07935,-0.22586 0.11903,-0.66537 0.11903,-1.31853v-1.44672c0,-0.31132 0.01526,-0.54023 0.04578,-0.68673c0.03052,-0.1465 0.10988,-0.26859 0.23807,-0.36626c0.12819,-0.10377 0.2808,-0.15566 0.45782,-0.15566c0.16482,0 0.31132,0.04884 0.43951,0.1465c0.13429,0.09767 0.21365,0.21975 0.23807,0.36626c0.03052,0.1404 0.04578,0.37236 0.04578,0.69589v3.59848c0,0.29301 -0.01526,0.50666 -0.04578,0.64095c-0.03052,0.12819 -0.10072,0.24112 -0.2106,0.33879c-0.10988,0.09767 -0.25028,0.1465 -0.4212,0.1465c-0.47003,0 -0.69589,-0.33879 -0.67758,-1.01636c-0.48834,0.67758 -1.13234,1.01636 -1.93201,1.01636c-0.52497,0 -0.97363,-0.15871 -1.346,-0.47613c-0.36626,-0.31742 -0.54939,-0.88207 -0.54939,-1.69394zM246.87647,181.98695v0.1465c0,0.55549 -0.24112,0.83324 -0.72336,0.83324c-0.18313,0 -0.33879,-0.04578 -0.46698,-0.13735c-0.12819,-0.09767 -0.20449,-0.21365 -0.22891,-0.34794c-0.02442,-0.1404 -0.03663,-0.36015 -0.03663,-0.65926v-5.74108c0,-0.32963 0.01526,-0.57075 0.04578,-0.72336c0.03663,-0.15261 0.11903,-0.27164 0.24722,-0.3571c0.13429,-0.08546 0.27775,-0.12819 0.43035,-0.12819c0.21975,0 0.39678,0.0641 0.53107,0.19229c0.13429,0.12819 0.20144,0.45172 0.20144,0.97058v1.89538c0.54328,-0.59822 1.18118,-0.89733 1.91369,-0.89733c0.75693,0 1.34905,0.27164 1.77635,0.81492c0.43341,0.53718 0.65011,1.22696 0.65011,2.06935c0,0.89733 -0.21975,1.62984 -0.65926,2.19754c-0.43951,0.5677 -1.03468,0.85155 -1.7855,0.85155c-0.75693,0 -1.38872,-0.32658 -1.89538,-0.97974zM246.94973,180.0641c0,0.5616 0.13429,1.0011 0.40288,1.31853c0.27469,0.31132 0.61958,0.46698 1.03468,0.46698c0.34794,0 0.65926,-0.14956 0.93396,-0.44867c0.2808,-0.30522 0.4212,-0.7844 0.4212,-1.43756c0,-0.5677 -0.12514,-1.01026 -0.37541,-1.32768c-0.25028,-0.32353 -0.5738,-0.48529 -0.97058,-0.48529c-0.43951,0 -0.79051,0.17397 -1.05299,0.52192c-0.26248,0.34184 -0.39373,0.80577 -0.39373,1.39178zM260.64087,179.20339v2.50886c0,0.34794 -0.01526,0.59211 -0.04578,0.73251c-0.02442,0.1404 -0.10072,0.26248 -0.22891,0.36626c-0.12819,0.10377 -0.27775,0.15566 -0.44867,0.15566c-0.17092,0 -0.32048,-0.05189 -0.44867,-0.15566c-0.12819,-0.10377 -0.20754,-0.22891 -0.23807,-0.37541c-0.03052,-0.15261 -0.04578,-0.39373 -0.04578,-0.72336v-2.12429c0,-0.62264 -0.07325,-1.01331 -0.21975,-1.17202c-0.1465,-0.15871 -0.34794,-0.23807 -0.60432,-0.23807c-0.26859,0 -0.49445,0.07325 -0.67758,0.21975c-0.18313,0.1465 -0.30827,0.33879 -0.37541,0.57686c-0.06715,0.23807 -0.10072,0.61043 -0.10072,1.11708v1.62069c0,0.34794 -0.01526,0.59517 -0.04578,0.74167c-0.02442,0.1404 -0.10377,0.26248 -0.23807,0.36626c-0.12819,0.09767 -0.27775,0.1465 -0.44867,0.1465c-0.22586,0 -0.40288,-0.0763 -0.53107,-0.22891c-0.12819,-0.15261 -0.19229,-0.49445 -0.19229,-1.02552v-1.9961c0,-0.5738 -0.04273,-0.97363 -0.12819,-1.19949c-0.08546,-0.22586 -0.30827,-0.33879 -0.66842,-0.33879c-0.37236,0 -0.66842,0.11903 -0.88817,0.3571c-0.21365,0.23807 -0.32048,0.74777 -0.32048,1.52912v1.64816c0,0.34184 -0.01221,0.57991 -0.03663,0.7142c-0.01831,0.13429 -0.09156,0.25943 -0.21975,0.37541c-0.12819,0.10988 -0.27775,0.16482 -0.44867,0.16482c-0.16482,0 -0.31437,-0.04884 -0.44867,-0.1465c-0.13429,-0.10377 -0.2167,-0.22586 -0.24722,-0.36626c-0.03052,-0.1404 -0.04578,-0.38762 -0.04578,-0.74167v-3.52523c0,-0.34184 0.01526,-0.57075 0.04578,-0.68673c0.03052,-0.12209 0.10682,-0.22891 0.22891,-0.32048c0.12819,-0.09767 0.26554,-0.1465 0.41204,-0.1465c0.46392,0 0.69589,0.29911 0.69589,0.89733c0.48834,-0.59822 1.07741,-0.89733 1.76719,-0.89733c0.73862,0 1.27274,0.29911 1.60238,0.89733c0.49445,-0.59822 1.07436,-0.89733 1.73972,-0.89733c0.50666,0 0.94006,0.14345 1.30021,0.43035c0.36626,0.2808 0.54939,0.8607 0.54939,1.73972zM262.79639,174.93649c0.18923,0 0.351,0.0702 0.48529,0.2106c0.1404,0.1404 0.2106,0.30522 0.2106,0.49445c0,0.19534 -0.0702,0.3632 -0.2106,0.5036c-0.13429,0.1404 -0.29606,0.2106 -0.48529,0.2106c-0.19534,0 -0.3632,-0.0702 -0.5036,-0.2106c-0.1404,-0.1404 -0.2106,-0.30827 -0.2106,-0.5036c0,-0.18923 0.0702,-0.35405 0.2106,-0.49445c0.1404,-0.1404 0.30827,-0.2106 0.5036,-0.2106zM263.51059,178.22365v3.53438c0,0.34794 -0.01526,0.58601 -0.04578,0.7142c-0.03052,0.12819 -0.11293,0.24417 -0.24722,0.34794c-0.12819,0.09767 -0.26859,0.1465 -0.4212,0.1465c-0.15871,0 -0.30522,-0.04884 -0.43951,-0.1465c-0.13429,-0.09767 -0.21975,-0.21365 -0.25638,-0.34794c-0.03052,-0.13429 -0.04578,-0.37236 -0.04578,-0.7142v-3.51607c0,-0.32353 0.01221,-0.55244 0.03663,-0.68673c0.02442,-0.13429 0.10072,-0.25333 0.22891,-0.3571c0.13429,-0.10988 0.2869,-0.16482 0.45782,-0.16482c0.17092,0 0.31742,0.04884 0.43951,0.1465c0.12819,0.09156 0.20754,0.2106 0.23807,0.3571c0.03663,0.1465 0.05494,0.37541 0.05494,0.68673zM265.25554,177.16151v-0.86986c0,-0.36015 0.01526,-0.60432 0.04578,-0.73251c0.03052,-0.13429 0.10988,-0.25028 0.23807,-0.34794c0.12819,-0.10377 0.27775,-0.15566 0.44867,-0.15566c0.15261,0 0.29301,0.04578 0.4212,0.13735c0.12819,0.09156 0.2106,0.20449 0.24722,0.33879c0.04273,0.13429 0.0641,0.34794 0.0641,0.64095v0.98889h0.28385c0.35405,0 0.58906,0.04578 0.70505,0.13735c0.11598,0.08546 0.17397,0.2106 0.17397,0.37541c0,0.36015 -0.29911,0.54023 -0.89733,0.54023h-0.26554v2.69199c0,0.36626 0.02442,0.61653 0.07325,0.75083c0.05494,0.12819 0.19229,0.19229 0.41204,0.19229c0.10988,0 0.22891,-0.01526 0.3571,-0.04578c0.13429,-0.03052 0.23501,-0.04578 0.30216,-0.04578c0.1465,0 0.26554,0.04884 0.3571,0.1465c0.09156,0.09156 0.13735,0.20449 0.13735,0.33879c0,0.48224 -0.5036,0.72336 -1.51081,0.72336c-0.48834,0 -0.84849,-0.09156 -1.08046,-0.27469c-0.22586,-0.18313 -0.36931,-0.40288 -0.43035,-0.65926c-0.05494,-0.26248 -0.08241,-0.60127 -0.08241,-1.01636v-2.80187h-0.19229c-0.4273,0 -0.64095,-0.17397 -0.64095,-0.52192c0,-0.35405 0.22586,-0.53107 0.67758,-0.53107zM273.58925,176.91428c0,0.21975 0.09462,0.41204 0.28385,0.57686c0.19534,0.16482 0.68673,0.34184 1.47419,0.53107c0.79356,0.18923 1.37957,0.38762 1.75803,0.59517c0.37847,0.20754 0.65316,0.47919 0.82408,0.81492c0.17092,0.32963 0.25638,0.67758 0.25638,1.04383c0,0.73251 -0.27775,1.33074 -0.83324,1.79466c-0.55549,0.46392 -1.30937,0.69589 -2.26164,0.69589c-1.04994,0 -1.83434,-0.25028 -2.3532,-0.75083c-0.51276,-0.50666 -0.76914,-1.02857 -0.76914,-1.56575c0,-0.17703 0.0641,-0.33573 0.19229,-0.47613c0.13429,-0.1404 0.30827,-0.2106 0.52192,-0.2106c0.19534,0 0.34184,0.05799 0.43951,0.17397c0.09767,0.11598 0.21365,0.33268 0.34794,0.65011c0.29301,0.67147 0.81492,1.00721 1.56575,1.00721c0.44561,0 0.82103,-0.10072 1.12624,-0.30216c0.31132,-0.20754 0.46698,-0.48834 0.46698,-0.84239c0,-0.27469 -0.10682,-0.50971 -0.32048,-0.70505c-0.20754,-0.19534 -0.69284,-0.38152 -1.45587,-0.55854c-0.75693,-0.17703 -1.29106,-0.34489 -1.60238,-0.5036c-0.30522,-0.15871 -0.57075,-0.38762 -0.79661,-0.68673c-0.22586,-0.30522 -0.33879,-0.68368 -0.33879,-1.1354c0,-0.66537 0.26248,-1.19644 0.78745,-1.59322c0.52497,-0.39678 1.24222,-0.59517 2.15176,-0.59517c0.92785,0 1.62679,0.2106 2.09682,0.63179c0.47003,0.4212 0.70505,0.84544 0.70505,1.27274c0,0.18313 -0.0702,0.35405 -0.2106,0.51276c-0.13429,0.15261 -0.30522,0.22891 -0.51276,0.22891c-0.19534,0 -0.34184,-0.05494 -0.43951,-0.16482c-0.09767,-0.10988 -0.2106,-0.29301 -0.33879,-0.54939c-0.26859,-0.53718 -0.73251,-0.80577 -1.39178,-0.80577c-0.38457,0 -0.71115,0.08546 -0.97974,0.25638c-0.26248,0.16482 -0.39373,0.38457 -0.39373,0.65926zM284.03113,180.52192c0.17703,0 0.32353,0.0702 0.43951,0.2106c0.12209,0.1404 0.18313,0.28385 0.18313,0.43035c0,0.39067 -0.23807,0.79051 -0.7142,1.19949c-0.47003,0.40288 -1.10182,0.60432 -1.89538,0.60432c-0.95837,0 -1.68173,-0.27164 -2.17007,-0.81492c-0.48834,-0.54328 -0.73251,-1.24833 -0.73251,-2.11514c0,-0.87902 0.25333,-1.59932 0.75998,-2.16092c0.50666,-0.5616 1.22696,-0.84239 2.16092,-0.84239c0.72641,0 1.32768,0.19229 1.80382,0.57686c0.47613,0.37847 0.7142,0.75083 0.7142,1.11708c0,0.17703 -0.0641,0.32658 -0.19229,0.44867c-0.12819,0.11598 -0.2808,0.17397 -0.45782,0.17397c-0.21365,0 -0.38152,-0.08851 -0.5036,-0.26554c-0.26248,-0.40899 -0.4975,-0.66537 -0.70505,-0.76914c-0.20754,-0.10988 -0.43035,-0.16482 -0.66842,-0.16482c-0.46392,0 -0.82408,0.18008 -1.08046,0.54023c-0.25028,0.35405 -0.37541,0.79661 -0.37541,1.32768c0,0.54939 0.13124,0.99805 0.39373,1.346c0.26859,0.34184 0.62264,0.51276 1.06215,0.51276c0.25028,0 0.48224,-0.05799 0.69589,-0.17397c0.21365,-0.12209 0.39678,-0.30216 0.54939,-0.54023c0.15871,-0.24417 0.28385,-0.41204 0.37541,-0.5036c0.09156,-0.09156 0.2106,-0.13735 0.3571,-0.13735zM289.60302,182.1426c-0.68979,0.54939 -1.36736,0.82408 -2.03273,0.82408c-0.62874,0 -1.11403,-0.15871 -1.45587,-0.47613c-0.33573,-0.32353 -0.5036,-0.71725 -0.5036,-1.18118c0,-0.39678 0.11293,-0.71725 0.33879,-0.96143c0.23196,-0.24417 0.48224,-0.41204 0.75083,-0.5036c0.27469,-0.09767 0.71725,-0.2106 1.32768,-0.33879c0.61043,-0.12819 1.10182,-0.24417 1.47419,-0.34794c-0.0061,-0.43951 -0.09462,-0.73557 -0.26554,-0.88817c-0.17092,-0.15871 -0.43035,-0.23807 -0.7783,-0.23807c-0.65926,0 -1.09267,0.18618 -1.30021,0.55854c-0.10988,0.20754 -0.2106,0.3571 -0.30216,0.44867c-0.08546,0.08546 -0.21365,0.12819 -0.38457,0.12819c-0.15261,0 -0.29301,-0.04884 -0.4212,-0.1465c-0.12209,-0.10377 -0.18313,-0.23501 -0.18313,-0.39373c0,-0.37847 0.20449,-0.73862 0.61348,-1.08046c0.40899,-0.34184 1.05299,-0.51276 1.93201,-0.51276c0.89123,0 1.54133,0.15566 1.95032,0.46698c0.41509,0.30522 0.61043,0.92785 0.58601,1.86791l-0.02747,1.36431c-0.01221,0.4212 0.03052,0.76609 0.12819,1.03468c0.10377,0.26859 0.15566,0.47308 0.15566,0.61348c0,0.15261 -0.0702,0.28995 -0.2106,0.41204c-0.13429,0.11598 -0.28385,0.17397 -0.44867,0.17397c-0.29911,0 -0.61348,-0.27469 -0.94311,-0.82408zM289.51145,180.03663c-0.21975,0.07935 -0.57991,0.17092 -1.08046,0.27469c-0.49445,0.09767 -0.84849,0.2106 -1.06215,0.33879c-0.20754,0.12819 -0.31132,0.31437 -0.31132,0.55854c0,0.21365 0.08241,0.39983 0.24722,0.55854c0.17092,0.15871 0.40594,0.23807 0.70505,0.23807c0.32353,0 0.62264,-0.08851 0.89733,-0.26554c0.27469,-0.17703 0.44256,-0.38457 0.5036,-0.62264c0.06715,-0.24417 0.10072,-0.60432 0.10072,-1.08046zM297.56471,179.36821v2.38983c0,0.31132 -0.01526,0.53718 -0.04578,0.67758c-0.02442,0.1404 -0.10072,0.26554 -0.22891,0.37541c-0.12209,0.10377 -0.27164,0.15566 -0.44867,0.15566c-0.15871,0 -0.30522,-0.04578 -0.43951,-0.13735c-0.13429,-0.09767 -0.21975,-0.22281 -0.25638,-0.37541c-0.03052,-0.15261 -0.04578,-0.38457 -0.04578,-0.69589v-2.09682c0,-0.58601 -0.08851,-0.97974 -0.26554,-1.18118c-0.17092,-0.20144 -0.40899,-0.30216 -0.7142,-0.30216c-0.27469,0 -0.51886,0.07935 -0.73251,0.23807c-0.20754,0.15871 -0.35405,0.36015 -0.43951,0.60432c-0.08546,0.23807 -0.12819,0.64705 -0.12819,1.22696v1.51081c0,0.30522 -0.01221,0.52802 -0.03663,0.66842c-0.02442,0.13429 -0.10377,0.25943 -0.23807,0.37541c-0.12819,0.10988 -0.27775,0.16482 -0.44867,0.16482c-0.15871,0 -0.30522,-0.04884 -0.43951,-0.1465c-0.13429,-0.09767 -0.2167,-0.21975 -0.24722,-0.36626c-0.03052,-0.1465 -0.04578,-0.37847 -0.04578,-0.69589v-3.59848c0,-0.32353 0.01526,-0.54939 0.04578,-0.67758c0.03052,-0.12819 0.10682,-0.23501 0.22891,-0.32048c0.12819,-0.08546 0.26859,-0.12819 0.4212,-0.12819c0.1404,0 0.2869,0.05799 0.43951,0.17397c0.15871,0.10988 0.23807,0.38152 0.23807,0.81492c0.48224,-0.65926 1.10793,-0.98889 1.87707,-0.98889c0.29301,0 0.57991,0.05799 0.8607,0.17397c0.2869,0.10988 0.51886,0.28995 0.69589,0.54023c0.18313,0.24417 0.29301,0.4975 0.32963,0.75998c0.04273,0.26248 0.0641,0.54939 0.0641,0.8607z" fill="#12ff00" stroke-width="1" stroke-linecap="square"/><path d="M208.62861,191.81773v-25.4h8.2v25.4z" fill="none" stroke-width="0" stroke-linecap="butt"/></g></g></svg>