<svg version="1.1" xmlns="http://www.w3.org/2000/svg" xmlns:xlink="http://www.w3.org/1999/xlink" width="79.71622" height="20.59915" viewBox="0,0,79.71622,20.59915"><g transform="translate(-177.28378,-179.96709)"><g data-paper-data="{&quot;isPaintingLayer&quot;:true}" fill-rule="nonzero" stroke-linejoin="miter" stroke-miterlimit="10" stroke-dasharray="" stroke-dashoffset="0" style="mix-blend-mode: normal"><path d="M182.45947,193.2329c0,-2.67245 0,-13.26581 0,-13.26581l67.2,0.02427c0,0 0,10.60783 0,13.24155c0,3.17867 -8.15541,7.33333 -14.49411,7.33333c-7.23712,0 -24.70199,0 -37.55294,0c-8.61269,0 -15.15295,-4.15466 -15.15295,-7.33333z" fill="#000000" stroke="none" stroke-width="0" stroke-linecap="butt"/><path d="M223.00001,193.2329c0,-2.67245 0,-13.26581 0,-13.26581l34,0.02427c0,0 0,10.60783 0,13.24155c0,3.17867 -4.12625,7.33333 -7.33333,7.33333c-3.66164,0 -12.49803,0 -19,0c-4.35761,0 -7.66667,-4.15466 -7.66667,-7.33333z" fill="#000000" stroke="none" stroke-width="0" stroke-linecap="butt"/><g data-paper-data="{&quot;index&quot;:null}" fill="none" stroke="#ababab" stroke-width="2.5" stroke-linecap="round"><path d="M232.00001,187.12179l8,6.33333"/><path d="M240,193.45513l8,-6.33333" data-paper-data="{&quot;index&quot;:null}"/></g><path d="M177.28379,193.2329c0,-2.67245 0,-13.26581 0,-13.26581l34,0.02427c0,0 0,10.60783 0,13.24155c0,3.17867 -4.12625,7.33333 -7.33333,7.33333c-3.66164,0 -12.49803,0 -19,0c-4.35761,0 -7.66667,-4.15466 -7.66667,-7.33333z" fill="#000000" stroke="none" stroke-width="0" stroke-linecap="butt"/><path d="M190.73,184.32786h-2.10237v-1.56029h6.16792v1.56029h-2.09503v11.47144h-1.97051zM197.45422,195.91651c-0.32232,0 -0.61045,-0.06349 -0.86439,-0.19046c-0.24907,-0.13185 -0.4615,-0.31011 -0.63731,-0.53474c-0.17093,-0.22464 -0.30277,-0.4908 -0.39556,-0.79846c-0.08791,-0.30766 -0.13186,-0.64218 -0.13186,-1.00357c0,-0.43463 0.05372,-0.81799 0.16116,-1.15008c0.10744,-0.33697 0.26372,-0.63974 0.46883,-0.90834c0.20511,-0.27348 0.45905,-0.5201 0.76182,-0.73986c0.30766,-0.21976 0.66417,-0.42975 1.0695,-0.62998c0.19046,-0.09767 0.40534,-0.19534 0.64463,-0.293c0.24418,-0.09767 0.46149,-0.18314 0.65195,-0.25639v-1.38448c0,-0.20511 -0.00977,-0.39557 -0.02931,-0.57138c-0.01466,-0.17581 -0.05127,-0.3272 -0.10988,-0.45416c-0.05861,-0.13185 -0.1465,-0.23442 -0.26371,-0.30766c-0.11232,-0.07324 -0.27104,-0.10989 -0.47615,-0.10989c-0.13674,0 -0.27105,0.02686 -0.4029,0.08058c-0.12697,0.04883 -0.24173,0.1343 -0.34429,0.25639c-0.09767,0.12209 -0.1758,0.28569 -0.2344,0.49079c-0.05861,0.20022 -0.08791,0.4493 -0.08791,0.74719v0.46149h-1.47239c-0.04395,-0.20022 -0.07814,-0.38092 -0.10255,-0.54207c-0.02441,-0.16604 -0.03663,-0.33208 -0.03663,-0.49813c0,-0.39068 0.06838,-0.73498 0.20511,-1.03287c0.13674,-0.30279 0.32476,-0.55428 0.56405,-0.7545c0.23929,-0.20511 0.52742,-0.35894 0.86438,-0.46149c0.33697,-0.10744 0.70568,-0.16116 1.10612,-0.16116c0.52254,0 0.95718,0.05861 1.3039,0.17581c0.34672,0.11232 0.62266,0.28323 0.82776,0.51276c0.20999,0.22953 0.3565,0.51767 0.43952,0.86439c0.08302,0.34185 0.12453,0.74473 0.12453,1.20868v7.86739h-1.43576l-0.13918,-0.90102c-0.20511,0.30279 -0.48347,0.5494 -0.83508,0.73986c-0.34672,0.18557 -0.74474,0.27837 -1.19403,0.27837zM198.31129,194.42948c0.16116,0 0.31987,-0.04152 0.47615,-0.12453c0.15627,-0.08791 0.28813,-0.19291 0.39557,-0.315v-3.28906c-0.10255,0.04395 -0.21732,0.09523 -0.34429,0.15384c-0.12697,0.05372 -0.26371,0.12453 -0.41021,0.21243c-0.14163,0.08791 -0.27837,0.1929 -0.41022,0.31498c-0.13185,0.12209 -0.24907,0.2686 -0.35162,0.43951c-0.10255,0.16604 -0.18558,0.35406 -0.24907,0.56405c-0.06348,0.20999 -0.09522,0.44441 -0.09522,0.70323c0,0.40534 0.07813,0.73009 0.2344,0.97427c0.15627,0.24418 0.40778,0.36626 0.7545,0.36626zM202.64312,193.60171c0,-0.22953 0.02197,-0.44929 0.06592,-0.65928c0.04395,-0.21488 0.08546,-0.3858 0.12453,-0.51277h1.36252c0,0.38092 0.0171,0.70079 0.05128,0.95961c0.03906,0.25394 0.10255,0.45661 0.19046,0.608c0.08791,0.15139 0.20266,0.26127 0.34429,0.32963c0.1465,0.06837 0.32476,0.10256 0.53474,0.10256c0.28814,0 0.49813,-0.08058 0.62998,-0.24174c0.13185,-0.16604 0.19779,-0.3565 0.19779,-0.57138c0,-0.11232 -0.01466,-0.21732 -0.04395,-0.31499c-0.0293,-0.10255 -0.07324,-0.20512 -0.13185,-0.30767c-0.05372,-0.10744 -0.12209,-0.21488 -0.20511,-0.32232c-0.08302,-0.10744 -0.17336,-0.22464 -0.27104,-0.35161l-1.41379,-1.66285c-0.18557,-0.22953 -0.36383,-0.4615 -0.53474,-0.6959c-0.16604,-0.23929 -0.31499,-0.48347 -0.44684,-0.73254c-0.12697,-0.25394 -0.23197,-0.51765 -0.31499,-0.79113c-0.07813,-0.27348 -0.1172,-0.56406 -0.1172,-0.87172c0,-0.40534 0.07081,-0.75694 0.21242,-1.05484c0.14163,-0.30279 0.32964,-0.55185 0.56405,-0.74719c0.23441,-0.20022 0.50545,-0.34918 0.81311,-0.44684c0.31255,-0.09767 0.64219,-0.1465 0.98891,-0.1465c0.38092,0 0.72276,0.0464 1.02554,0.13918c0.30766,0.09278 0.57137,0.23197 0.79113,0.41754c0.21976,0.18069 0.38824,0.40778 0.50545,0.68126c0.11721,0.2686 0.17581,0.58358 0.17581,0.94497c0,0.24418 -0.02197,0.48102 -0.06592,0.71055c-0.04395,0.22953 -0.08546,0.42487 -0.12453,0.58603h-1.33321c-0.00489,-0.34672 -0.02198,-0.64952 -0.05127,-0.90834c-0.02441,-0.25883 -0.07081,-0.4737 -0.13918,-0.64462c-0.06837,-0.17093 -0.1636,-0.29791 -0.28569,-0.38092c-0.11721,-0.08791 -0.27348,-0.13185 -0.46883,-0.13185c-0.16604,0 -0.30521,0.02686 -0.41754,0.08058c-0.11232,0.05372 -0.20267,0.12453 -0.27104,0.21243c-0.06837,0.08302 -0.1172,0.17825 -0.1465,0.28569c-0.02441,0.10744 -0.03663,0.21731 -0.03663,0.32963c0,0.24418 0.05861,0.47126 0.17581,0.68125c0.11721,0.20511 0.27104,0.42976 0.46149,0.67393l1.54564,1.80935c0.10744,0.13674 0.23441,0.30277 0.38091,0.49812c0.15139,0.19535 0.29301,0.41266 0.42487,0.65196c0.13185,0.23441 0.24419,0.49324 0.33697,0.77648c0.09278,0.27837 0.13918,0.56893 0.13918,0.87171c0,0.37115 -0.0586,0.70811 -0.17581,1.01089c-0.11721,0.30279 -0.29057,0.5616 -0.5201,0.77648c-0.22953,0.21488 -0.51276,0.38092 -0.84973,0.49812c-0.33209,0.11721 -0.71055,0.17581 -1.13542,0.17581c-0.35162,0 -0.6837,-0.03907 -0.99624,-0.11721c-0.30766,-0.08302 -0.57626,-0.21488 -0.80579,-0.39557c-0.22953,-0.18069 -0.41022,-0.41754 -0.54208,-0.71055c-0.13185,-0.29301 -0.19778,-0.65684 -0.19778,-1.09148zM209.41469,181.92516h1.92657v7.9846h0.05861l2.10969,-4.61495h1.8533l-2.33678,4.80541l2.55654,5.6991h-1.97051l-2.21225,-5.2083h-0.05861v5.2083h-1.92657zM216.1547,193.60171c0,-0.22953 0.02198,-0.44929 0.06593,-0.65928c0.04395,-0.21488 0.08546,-0.3858 0.12453,-0.51277h1.36252c0,0.38092 0.01709,0.70079 0.05127,0.95961c0.03906,0.25394 0.10256,0.45661 0.19047,0.608c0.08791,0.15139 0.20267,0.26127 0.34429,0.32963c0.1465,0.06837 0.32476,0.10256 0.53474,0.10256c0.28813,0 0.49813,-0.08058 0.62998,-0.24174c0.13185,-0.16604 0.19779,-0.3565 0.19779,-0.57138c0,-0.11232 -0.01466,-0.21732 -0.04395,-0.31499c-0.0293,-0.10255 -0.07325,-0.20512 -0.13185,-0.30767c-0.05372,-0.10744 -0.12208,-0.21488 -0.20511,-0.32232c-0.08302,-0.10744 -0.17336,-0.22464 -0.27104,-0.35161l-1.41379,-1.66285c-0.18557,-0.22953 -0.36382,-0.4615 -0.53475,-0.6959c-0.16604,-0.23929 -0.31499,-0.48347 -0.44684,-0.73254c-0.12697,-0.25394 -0.23197,-0.51765 -0.315,-0.79113c-0.07813,-0.27348 -0.1172,-0.56406 -0.1172,-0.87172c0,-0.40534 0.07081,-0.75694 0.21243,-1.05484c0.14163,-0.30279 0.32964,-0.55185 0.56405,-0.74719c0.23441,-0.20022 0.50546,-0.34918 0.81312,-0.44684c0.31255,-0.09767 0.64218,-0.1465 0.98891,-0.1465c0.38092,0 0.72277,0.0464 1.02555,0.13918c0.30766,0.09278 0.57137,0.23197 0.79113,0.41754c0.21976,0.18069 0.38824,0.40778 0.50545,0.68126c0.11721,0.2686 0.17581,0.58358 0.17581,0.94497c0,0.24418 -0.02199,0.48102 -0.06593,0.71055c-0.04395,0.22953 -0.08545,0.42487 -0.12453,0.58603h-1.33321c-0.00489,-0.34672 -0.02197,-0.64952 -0.05127,-0.90834c-0.02441,-0.25883 -0.07082,-0.4737 -0.13918,-0.64462c-0.06837,-0.17093 -0.1636,-0.29791 -0.28569,-0.38092c-0.11721,-0.08791 -0.27348,-0.13185 -0.46882,-0.13185c-0.16604,0 -0.30522,0.02686 -0.41755,0.08058c-0.11232,0.05372 -0.20267,0.12453 -0.27104,0.21243c-0.06837,0.08302 -0.1172,0.17825 -0.1465,0.28569c-0.02441,0.10744 -0.03663,0.21731 -0.03663,0.32963c0,0.24418 0.05861,0.47126 0.17581,0.68125c0.11721,0.20511 0.27104,0.42976 0.4615,0.67393l1.54564,1.80935c0.10744,0.13674 0.23441,0.30277 0.38092,0.49812c0.15139,0.19535 0.29302,0.41266 0.42487,0.65196c0.13185,0.23441 0.24419,0.49324 0.33697,0.77648c0.09278,0.27837 0.13918,0.56893 0.13918,0.87171c0,0.37115 -0.05859,0.70811 -0.1758,1.01089c-0.11721,0.30279 -0.29057,0.5616 -0.5201,0.77648c-0.22953,0.21488 -0.51278,0.38092 -0.84974,0.49812c-0.33209,0.11721 -0.71055,0.17581 -1.13542,0.17581c-0.35162,0 -0.6837,-0.03907 -0.99624,-0.11721c-0.30766,-0.08302 -0.57625,-0.21488 -0.80578,-0.39557c-0.22953,-0.18069 -0.41022,-0.41754 -0.54207,-0.71055c-0.13185,-0.29301 -0.19779,-0.65684 -0.19779,-1.09148z" fill="#ababab" stroke="#d4d4d4" stroke-width="0" stroke-linecap="square"/></g></g></svg>