<svg version="1.1" xmlns="http://www.w3.org/2000/svg" xmlns:xlink="http://www.w3.org/1999/xlink" width="359" height="359" viewBox="0,0,359,359"><defs><linearGradient x1="412.79622" y1="180" x2="294.15266" y2="180" gradientUnits="userSpaceOnUse" id="color-1"><stop offset="0" stop-color="#7a97d0"/><stop offset="1" stop-color="#d3e0f7"/></linearGradient><linearGradient x1="136.14076" y1="180" x2="295.13725" y2="180" gradientUnits="userSpaceOnUse" id="color-2"><stop offset="0" stop-color="#7a97d0"/><stop offset="1" stop-color="#d3e0f7"/></linearGradient><linearGradient x1="98.25" y1="4.25" x2="98.25" y2="355.75" gradientUnits="userSpaceOnUse" id="color-3"><stop offset="0" stop-color="#bebebe"/><stop offset="1" stop-color="#737373"/></linearGradient><linearGradient x1="98.25" y1="216.25" x2="98.25" y2="311.75" gradientUnits="userSpaceOnUse" id="color-4"><stop offset="0" stop-color="#909090"/><stop offset="1" stop-color="#393939"/></linearGradient></defs><g transform="translate(-60.5,-0.5)"><g data-paper-data="{&quot;isPaintingLayer&quot;:true}" fill-rule="nonzero" stroke-linecap="butt" stroke-linejoin="miter" stroke-miterlimit="10" stroke-dasharray="" stroke-dashoffset="0" style="mix-blend-mode: normal"><path d="M64.25,355.75v-351.5h351.5v351.5z" fill="#9966ff" stroke="#000000" stroke-width="7.5"/><path d="M135.14076,355.75v-351.5h280.60924v351.5z" fill="#9966ff" stroke="#000000" stroke-width="7.5"/><path d="M294.15266,355.75v-351.5h118.64356v351.5z" fill="url(#color-1)" stroke="none" stroke-width="0"/><path d="M136.14076,355.75v-351.5h158.9965v351.5z" fill="url(#color-2)" stroke="none" stroke-width="0"/><path d="M64.25,355.75v-351.5h68v351.5z" fill="url(#color-3)" stroke="none" stroke-width="0"/><path d="M117.5,179.90393l8.12143,-7.52301v14.36211z" data-paper-data="{&quot;index&quot;:null}" fill="#7d7d7d" stroke="none" stroke-width="0"/><path d="M132.25,309.75v45.5h-68v-45.5z" fill="#393939" stroke="none" stroke-width="0"/><path d="M64.25,311.75v-95.5h68v95.5z" fill="url(#color-4)" stroke="none" stroke-width="0"/><path d="M93.41221,266.68498v-177l21,14.5v147z" fill="#272727" stroke="#090909" stroke-width="2.5"/></g></g></svg>