<svg version="1.1" xmlns="http://www.w3.org/2000/svg" xmlns:xlink="http://www.w3.org/1999/xlink" width="354.75" height="91.4027" viewBox="0,0,354.75,91.4027"><g transform="translate(77.25,-123.8585)"><g data-paper-data="{&quot;isPaintingLayer&quot;:true}" fill-rule="nonzero" stroke-linejoin="miter" stroke-miterlimit="10" stroke-dasharray="" stroke-dashoffset="0" style="mix-blend-mode: normal"><text transform="translate(-77,145.44444) scale(0.5,0.5)" font-size="40" xml:space="preserve" fill="#ffffff" fill-rule="nonzero" stroke="none" stroke-width="1" stroke-linecap="butt" stroke-linejoin="miter" stroke-miterlimit="10" stroke-dasharray="" stroke-dashoffset="0" font-family="Sans Serif" font-weight="normal" text-anchor="start" style="mix-blend-mode: normal"><tspan x="0" dy="0"> </tspan></text><path d="M210.81742,204.82784c0,-12.01784 0,-46.0465 0,-50.94544c0,-1.57362 1.66178,-2.90196 3.54684,-2.90196c6.17489,0 40.11775,0 51.26788,0c2.23182,0 3.55046,1.18889 3.55046,3.2244c0,6.34387 0,40.15015 0,51.26788c0,2.22971 -2.03698,3.54683 -4.51777,3.54683c-6.71661,0 -38.19001,0 -49.65568,0c-2.61703,0 -4.19171,-1.57351 -4.19171,-4.19171z" fill="#a3b4e0" stroke="#293b6b" stroke-width="3" stroke-linecap="butt"/><path d="M241.1738,188.8211h-8.11244c-1.46412,0 -2.45016,-0.05976 -2.95813,-0.17928c-0.50797,-0.14941 -0.95617,-0.49302 -1.3446,-1.03086c-0.35856,-0.56772 -0.53784,-1.13545 -0.53784,-1.70316c0,-0.41833 0.11952,-0.82171 0.35856,-1.21014c0.23905,-0.41833 0.71712,-1.10556 1.43424,-2.06172l9.86042,-13.22193c0.71712,-0.95617 1.28484,-1.61352 1.70316,-1.97208c0.41833,-0.35856 0.94122,-0.53784 1.5687,-0.53784c0.65736,0 1.22509,0.20916 1.70316,0.62748c0.47808,0.38844 0.76194,0.82171 0.85158,1.29978c0.08964,0.47808 0.13446,1.32966 0.13446,2.55475v13.26675h0.80676c1.55376,0 2.46511,0.26892 2.73403,0.80676c0.26892,0.53784 0.40338,0.9711 0.40338,1.29978c0,1.37448 -0.94122,2.06172 -2.82367,2.06172h-1.1205v2.42029c0,1.01592 -0.04482,1.74798 -0.13446,2.19618c-0.08964,0.4482 -0.34362,0.83664 -0.76194,1.16532c-0.41833,0.32869 -0.8964,0.49302 -1.43424,0.49302c-0.53784,0 -1.03086,-0.14941 -1.47906,-0.4482c-0.41833,-0.2988 -0.6723,-0.68725 -0.76194,-1.16532c-0.05976,-0.47808 -0.08964,-1.22509 -0.08964,-2.241zM233.15099,184.65283h8.0228v-10.89128z" fill="#3e4f7b" stroke="none" stroke-width="1" stroke-linecap="square"/><path d="M201.19842,215.2612v-71.74627h76.30158v71.74628z" fill="none" stroke="none" stroke-width="none" stroke-linecap="butt"/></g></g></svg>