<svg version="1.1" xmlns="http://www.w3.org/2000/svg" xmlns:xlink="http://www.w3.org/1999/xlink" width="122.40666" height="147.61999" viewBox="0,0,122.40666,147.61999"><g transform="translate(-183.67667,-113.876)"><g data-paper-data="{&quot;isPaintingLayer&quot;:true}" fill-rule="nonzero" stroke-linejoin="miter" stroke-miterlimit="10" stroke-dasharray="" stroke-dashoffset="0" style="mix-blend-mode: normal"><path d="M217.1754,156.48368c-0.6878,-0.73549 -3.46022,-3.38062 -4.1171,-4.08376c-3.28903,-3.5207 -6.9137,-6.92595 -7.89513,-8.00803c-0.75424,-0.8316 -0.02218,-1.18127 2.54719,-2.379c8.07715,-3.76519 34.35756,-15.21548 38.44311,-17.0248c1.05002,-0.465 2.60554,-0.18911 3.41137,0.58169c1.35342,1.29458 5.32337,5.41831 10.24247,10.12355c2.23854,2.14121 4.65218,4.22111 6.91414,6.32049c3.28808,3.05174 6.25567,5.95033 7.89911,7.52232c0.98206,0.93936 0.57849,1.87044 -0.60187,2.33032c-3.17897,1.23855 -18.26167,6.76576 -30.07843,11.3697c-4.92612,1.91926 -8.86802,3.76783 -11.43824,4.86061c-0.43982,0.187 -2.10585,0.45202 -3.06825,-0.2683c-3.49908,-2.61893 -10.6358,-9.60971 -12.25838,-11.34479z" fill="#4c685a" stroke="#15221c" stroke-width="3" stroke-linecap="butt"/><path d="M230.13563,163.56626c-1.10805,-1.18113 -17.85504,-17.85057 -18.53078,-18.59561c-0.61718,-0.68048 -1.00008,-0.87197 1.10237,-1.85204c6.60932,-3.08095 29.28512,-13.03605 32.62822,-14.51656c0.8592,-0.3805 1.98565,-0.30114 2.64504,0.32959c1.10747,1.05932 4.35597,4.43366 8.38115,8.28384c1.83174,1.7521 3.80676,3.45402 5.65767,5.17189c2.69055,2.49716 5.11885,4.86901 6.46364,6.15533c0.80359,0.76865 0.47337,1.53054 -0.49249,1.90684c-2.60127,1.01348 -14.94306,5.53626 -24.61241,9.30354c-4.72069,1.83923 -8.80441,3.716 -10.80671,4.49612c-0.84064,0.32752 -1.72907,0.0703 -2.4357,-0.68293z" fill="#4c685a" stroke="#294436" stroke-width="2.5" stroke-linecap="butt"/><path d="M230.85218,168.65175l44.28572,-17.28571v43.28571c0,0 -38.40721,14.74341 -42.83979,16.44495c-0.81434,0.3126 -1.44592,-0.01289 -1.44592,-0.75448z" fill="#39574f" stroke="#15221c" stroke-width="3" stroke-linecap="butt"/><path d="M230.43612,210.399c-2.16066,-2.14372 -18.11985,-17.75524 -23.6801,-23.19342c-1.19013,-1.16401 -1.90384,-2.80526 -1.90384,-4.40152c0,-7.99907 0,-32.39394 0,-36.63953c0,-1.23353 -0.1706,-3.28926 0.36933,-2.77471c2.74296,2.61397 25.61639,25.23991 25.61639,25.23991c0,0 -0.19313,36.51968 -0.19244,41.04594c0.00011,0.72382 0.28256,1.21138 -0.20934,0.72334z" data-paper-data="{&quot;index&quot;:null}" fill="#26423b" stroke="#15221c" stroke-width="3" stroke-linecap="butt"/><path d="M272.45502,171.48933c0,0 -7.65715,3.14139 -9.00075,3.69261c-0.38765,0.15904 -0.75984,0.60414 -0.77787,1.10895c-0.09256,2.59159 -1.13096,11.16688 -1.18666,12.72646c-0.01818,0.50896 -0.6421,1.36817 -1.03644,1.5295c-1.12873,0.46176 -6.21577,2.34349 -8.55822,3.27857c-0.67927,0.27116 -1.08093,-0.20485 -1.32971,-0.64485c-0.77658,-1.37347 -3.61516,-8.85463 -4.94326,-11.20355c-0.26245,-0.46417 -0.79706,-0.6142 -1.20222,-0.48252c-1.38803,0.45111 -9.96488,3.74483 -9.96488,3.74483" fill="none" stroke="#2c453e" stroke-width="2.5" stroke-linecap="round"/><path d="M233.997,206.70891c0,-3.04671 0,-26.48569 0,-33.88624c0,-1.40463 0.78264,-2.53696 1.73017,-2.90681c3.73326,-1.45718 27.93173,-10.90238 34.8131,-13.58833c1.15555,-0.45104 1.82279,0.06131 1.82279,0.99514c0,3.57375 0,26.16926 0,33.5c0,1.44179 -0.85067,2.61965 -2.29567,3.17434c-7.59224,2.91444 -31.59167,12.12713 -34.81774,13.36552c-0.70549,0.27081 -1.25264,-0.01117 -1.25264,-0.65363z" fill="none" stroke="#2c453e" stroke-width="2.5" stroke-linecap="butt"/><path d="M225.7736,201.63344c-3.79708,-3.69181 -14.61997,-14.20902 -16.84296,-16.30716c-0.51515,-0.48621 -0.81842,-1.51868 -0.81842,-2.78248c0,-6.42577 0,-26.23191 0,-29.36449c0,-0.81856 0.23788,-1.26765 0.64984,-0.87229c2.00204,1.92136 12.99784,12.80157 16.97489,16.73882c0.89632,0.88736 1.43413,2.24019 1.43077,3.60892c-0.0154,6.26555 -0.05916,24.06884 -0.06821,27.74861c-0.0032,1.29919 -0.49974,2.03334 -1.32591,1.23007z" data-paper-data="{&quot;index&quot;:null}" fill="none" stroke="#1c302b" stroke-width="2.5" stroke-linecap="butt"/><path d="M226.85695,180.89129c0,0 -1.23436,-1.36609 -2.11938,-2.06673c-0.55285,-0.43766 -1.80394,-0.79276 -2.16003,0.20054c-0.47018,1.31155 -1.14047,5.8126 -1.51221,8.48771c-0.16802,1.20908 -0.98965,1.41463 -1.57155,0.90119c-0.79981,-0.70572 -2.98185,-2.63105 -4.34591,-3.83463c-0.68063,-0.60055 -1.21447,-1.70385 -1.27208,-2.3952c-0.12942,-1.55301 -0.6477,-7.77245 -0.91862,-11.02345c-0.10046,-1.20543 -0.72189,-2.46123 -1.15409,-2.81826c-0.82681,-0.68302 -3.61281,-2.9845 -3.61281,-2.9845" fill="none" stroke="#1c302b" stroke-width="2" stroke-linecap="round"/><path d="M244.88001,261.49599c-33.80167,0 -61.20333,-33.04585 -61.20333,-73.80999c0,-40.76414 27.40166,-73.81 61.20333,-73.81c33.80167,0 61.20333,33.04586 61.20333,73.81c0,40.76413 -27.40166,73.80999 -61.20333,73.80999z" fill="none" stroke="none" stroke-width="0" stroke-linecap="butt"/></g></g></svg>