<svg version="1.1" xmlns="http://www.w3.org/2000/svg" xmlns:xlink="http://www.w3.org/1999/xlink" width="129.74734" height="10.26459" viewBox="0,0,129.74734,10.26459"><g transform="translate(-175.12633,-174.8677)"><g data-paper-data="{&quot;isPaintingLayer&quot;:true}" fill="#12ff00" fill-rule="nonzero" stroke="none" stroke-width="1" stroke-linecap="square" stroke-linejoin="miter" stroke-miterlimit="10" stroke-dasharray="" stroke-dashoffset="0" style="mix-blend-mode: normal"><path d="M176.75875,176.91038c0,0.22222 0.09401,0.41594 0.28204,0.58117c0.19373,0.16523 0.68373,0.34472 1.47003,0.53844c0.792,0.18802 1.37887,0.3846 1.76062,0.58972c0.38175,0.20512 0.65525,0.47577 0.82048,0.81194c0.17094,0.33617 0.2564,0.68658 0.2564,1.05124c0,0.72932 -0.27635,1.32758 -0.82903,1.7948c-0.55268,0.46152 -1.30764,0.69228 -2.26487,0.69228c-1.04839,0 -1.83184,-0.25071 -2.35034,-0.75211c-0.5185,-0.50711 -0.77775,-1.02845 -0.77775,-1.56404c0,-0.17663 0.06553,-0.33617 0.19658,-0.47861c0.13674,-0.14245 0.31338,-0.21366 0.5299,-0.21366c0.19373,0 0.33901,0.05982 0.43588,0.17948c0.09687,0.11966 0.21081,0.33617 0.34186,0.64955c0.29628,0.67234 0.82048,1.00851 1.57259,1.00851c0.44443,0 0.82048,-0.10256 1.12816,-0.30768c0.30768,-0.20512 0.46153,-0.48431 0.46153,-0.83758c0,-0.2735 -0.10542,-0.50711 -0.31623,-0.70083c-0.21081,-0.19943 -0.69798,-0.38745 -1.46148,-0.56408c-0.7578,-0.17663 -1.29055,-0.34472 -1.59823,-0.50426c-0.30199,-0.15954 -0.56693,-0.3903 -0.79484,-0.69228c-0.22791,-0.30199 -0.34187,-0.68088 -0.34187,-1.13671c0,-0.66664 0.2621,-1.19653 0.7863,-1.58968c0.5299,-0.39884 1.24782,-0.59827 2.15377,-0.59827c0.92874,0 1.62672,0.21367 2.09394,0.64101c0.47292,0.42164 0.70938,0.84612 0.70938,1.27346c0,0.17663 -0.06838,0.34472 -0.20512,0.50426c-0.13674,0.15384 -0.31053,0.23076 -0.52134,0.23076c-0.19373,0 -0.34187,-0.05413 -0.44443,-0.16238c-0.09687,-0.10825 -0.20512,-0.29059 -0.32477,-0.54699c-0.27349,-0.54129 -0.74071,-0.81193 -1.40166,-0.81193c-0.38745,0 -0.71223,0.08546 -0.97433,0.2564c-0.2621,0.16523 -0.39314,0.3846 -0.39314,0.6581zM186.66222,180.36323h-2.86314c0.01709,0.54129 0.16523,0.94868 0.44443,1.22217c0.28489,0.2735 0.62676,0.41024 1.0256,0.41024c0.48431,0 0.94299,-0.21366 1.37602,-0.641c0.17663,-0.17663 0.30483,-0.28489 0.3846,-0.32477c0.08546,-0.04559 0.17948,-0.06838 0.28204,-0.06838c0.13105,0 0.24215,0.04273 0.33332,0.1282c0.09686,0.07977 0.1453,0.17948 0.1453,0.29913c0,0.33047 -0.22507,0.67804 -0.67519,1.0427c-0.44443,0.35896 -1.05125,0.53844 -1.82045,0.53844c-0.97432,0 -1.71504,-0.27634 -2.22214,-0.82903c-0.50141,-0.55268 -0.75211,-1.26491 -0.75211,-2.13668c0,-0.88316 0.2507,-1.59822 0.75211,-2.14521c0.5071,-0.54699 1.21079,-0.82049 2.11104,-0.82049c0.85467,0 1.51561,0.25925 1.98283,0.77775c0.46722,0.5128 0.70083,1.07119 0.70083,1.67515c0,0.26779 -0.07692,0.48147 -0.23076,0.64101c-0.15384,0.15384 -0.47862,0.23076 -0.97433,0.23076zM183.79909,179.53421h2.65802c-0.01709,-0.48431 -0.15099,-0.85467 -0.4017,-1.11107c-0.2507,-0.2564 -0.55838,-0.3846 -0.92304,-0.3846c-0.7749,0 -1.21933,0.49856 -1.33328,1.49567zM193.71004,180.52563c0.17663,0 0.32193,0.07122 0.43588,0.21367c0.11965,0.13675 0.17948,0.27634 0.17948,0.41879c0,0.39884 -0.23646,0.80054 -0.70938,1.20508c-0.47292,0.40454 -1.10822,0.60681 -1.90591,0.60681c-0.95723,0 -1.68085,-0.27065 -2.17086,-0.81194c-0.48431,-0.54699 -0.72647,-1.25637 -0.72647,-2.12813c0,-0.87746 0.25355,-1.59538 0.76065,-2.15376c0.5071,-0.55838 1.22787,-0.83758 2.16231,-0.83758c0.72362,0 1.32188,0.19088 1.7948,0.57263c0.47862,0.37606 0.71793,0.74926 0.71793,1.11962c0,0.17663 -0.06553,0.32477 -0.19658,0.44443c-0.12535,0.11966 -0.27349,0.17948 -0.44443,0.17948c-0.21652,0 -0.3846,-0.09116 -0.50425,-0.27349c-0.2678,-0.40454 -0.50426,-0.66095 -0.70938,-0.7692c-0.20512,-0.10825 -0.42733,-0.16239 -0.66664,-0.16239c-0.46722,0 -0.82903,0.17948 -1.08543,0.53844c-0.2507,0.35327 -0.37605,0.79769 -0.37605,1.33328c0,0.54699 0.13105,0.99426 0.39315,1.34183c0.2678,0.34756 0.62391,0.52135 1.06834,0.52135c0.2507,0 0.48147,-0.05982 0.69228,-0.17948c0.21652,-0.11966 0.4017,-0.29914 0.55554,-0.53845c0.15384,-0.245 0.27634,-0.41308 0.36751,-0.50425c0.09117,-0.09116 0.21367,-0.13675 0.36751,-0.13675zM195.55293,180.79912v-2.56401c0,-0.31338 0.01139,-0.54129 0.03418,-0.68374c0.02849,-0.14245 0.10541,-0.26209 0.23076,-0.35896c0.12535,-0.10256 0.27919,-0.15384 0.46152,-0.15384c0.17094,0 0.31908,0.04843 0.44443,0.14529c0.13105,0.09686 0.21081,0.22507 0.23931,0.3846c0.03418,0.15384 0.05128,0.38745 0.05128,0.70083v2.00847c0,0.65524 0.10257,1.07689 0.30769,1.26491c0.20512,0.18233 0.43018,0.2735 0.67518,0.2735c0.27919,0 0.5242,-0.07692 0.73501,-0.23076c0.21652,-0.15954 0.36182,-0.35041 0.43589,-0.57263c0.07407,-0.22791 0.1111,-0.66949 0.1111,-1.32473v-1.45294c0,-0.30768 0.01424,-0.53559 0.04273,-0.68374c0.03418,-0.14814 0.11396,-0.27064 0.23931,-0.3675c0.13105,-0.09686 0.2849,-0.14529 0.46153,-0.14529c0.16523,0 0.31337,0.04843 0.44442,0.14529c0.13105,0.09686 0.20797,0.21652 0.23076,0.35896c0.02849,0.14245 0.04273,0.3732 0.04273,0.69228v3.60671c0,0.29629 -0.01424,0.50995 -0.04273,0.64101c-0.02849,0.13105 -0.09971,0.245 -0.21367,0.34186c-0.10825,0.09686 -0.24786,0.14529 -0.41879,0.14529c-0.47292,0 -0.70083,-0.33901 -0.68373,-1.01705c-0.48431,0.67804 -1.12532,1.01705 -1.92301,1.01705c-0.52989,0 -0.98001,-0.15669 -1.35037,-0.47007c-0.37036,-0.31907 -0.55553,-0.88601 -0.55553,-1.70079zM202.19477,181.75635v-3.73491c0,-0.65524 0.2393,-0.98287 0.71792,-0.98287c0.46152,0 0.69798,0.30199 0.70937,0.90595c0.30199,-0.60397 0.72078,-0.90595 1.25637,-0.90595c0.27919,0 0.56978,0.07407 0.87177,0.22222c0.30199,0.14814 0.45297,0.35041 0.45297,0.60681c0,0.17663 -0.06267,0.32477 -0.18802,0.44443c-0.11965,0.11395 -0.24786,0.17093 -0.3846,0.17093c-0.07977,0 -0.22222,-0.03134 -0.42733,-0.09401c-0.20512,-0.06268 -0.37605,-0.09401 -0.5128,-0.09401c-0.34757,0 -0.60681,0.17663 -0.77775,0.52989c-0.17094,0.34756 -0.2564,1.0256 -0.2564,2.03411v0.84613c0,0.37036 -0.0171,0.62106 -0.05128,0.75211c-0.02849,0.13105 -0.10826,0.2507 -0.23931,0.35896c-0.12535,0.10256 -0.27065,0.15384 -0.43588,0.15384c-0.16523,0 -0.31338,-0.04843 -0.44443,-0.14529c-0.12535,-0.09686 -0.20512,-0.20797 -0.23931,-0.33332c-0.03418,-0.13105 -0.05128,-0.37605 -0.05128,-0.73501zM207.72982,174.93609c0.19373,0 0.35896,0.07122 0.49571,0.21366c0.13675,0.14245 0.20512,0.30769 0.20512,0.49571c0,0.19372 -0.06838,0.36181 -0.20512,0.50426c-0.13675,0.13675 -0.30198,0.20512 -0.49571,0.20512c-0.19373,0 -0.36181,-0.06837 -0.50426,-0.20512c-0.13675,-0.14245 -0.20512,-0.31053 -0.20512,-0.50426c0,-0.19372 0.06838,-0.35897 0.20512,-0.49571c0.14244,-0.14245 0.31053,-0.21366 0.50426,-0.21366zM208.45629,178.22657v3.52979c0,0.35327 -0.01709,0.59542 -0.05128,0.72647c-0.02849,0.12535 -0.11111,0.23931 -0.24786,0.34186c-0.13105,0.09686 -0.27349,0.14529 -0.42733,0.14529c-0.15384,0 -0.29914,-0.04843 -0.43588,-0.14529c-0.13675,-0.10256 -0.22222,-0.21936 -0.2564,-0.35041c-0.02849,-0.13105 -0.04273,-0.37036 -0.04273,-0.71792v-3.52124c0,-0.31907 0.01139,-0.54413 0.03418,-0.67518c0.02849,-0.13675 0.10826,-0.25641 0.23931,-0.35897c0.13105,-0.10825 0.28204,-0.16238 0.45298,-0.16238c0.17094,0 0.31907,0.04843 0.44442,0.14529c0.12535,0.09116 0.20513,0.21082 0.23931,0.35896c0.03418,0.14245 0.05128,0.37036 0.05128,0.68374zM210.19875,177.16678v-0.88031c0,-0.35896 0.01424,-0.60111 0.04273,-0.72646c0.03418,-0.13105 0.11396,-0.24786 0.23931,-0.35041c0.12535,-0.10256 0.27349,-0.15384 0.44442,-0.15384c0.15954,0 0.30199,0.04558 0.42733,0.13674c0.12535,0.09116 0.20797,0.20513 0.24786,0.34187c0.03988,0.13105 0.05983,0.34471 0.05983,0.641v0.99142h0.28204c0.35896,0 0.59543,0.04273 0.70938,0.1282c0.11965,0.08546 0.17948,0.21367 0.17948,0.3846c0,0.35896 -0.29914,0.53844 -0.89741,0.53844h-0.27349v2.69221c0,0.36466 0.02564,0.61251 0.07692,0.74356c0.05128,0.13105 0.18803,0.19657 0.41025,0.19657c0.10825,0 0.22791,-0.01425 0.35896,-0.04273c0.13675,-0.03418 0.23646,-0.05128 0.29913,-0.05128c0.14814,0 0.2678,0.04843 0.35896,0.14529c0.09117,0.09686 0.13674,0.21366 0.13674,0.35041c0,0.47861 -0.50425,0.71792 -1.51276,0.71792c-0.49001,0 -0.84897,-0.09116 -1.07688,-0.27349c-0.22791,-0.18233 -0.37036,-0.4017 -0.42733,-0.6581c-0.05697,-0.2621 -0.08547,-0.60397 -0.08547,-1.02561v-2.79476h-0.18803c-0.43303,0 -0.64955,-0.17663 -0.64955,-0.5299c0,-0.34756 0.22791,-0.52135 0.68373,-0.52135zM215.31074,182.82469l-1.77771,-4.5212c-0.11396,-0.29059 -0.17094,-0.49286 -0.17094,-0.60681c0,-0.16523 0.06838,-0.31623 0.20512,-0.45297c0.14244,-0.13675 0.30769,-0.20512 0.49571,-0.20512c0.16523,0 0.30483,0.05128 0.41878,0.15384c0.11396,0.09686 0.22791,0.30199 0.34187,0.61536l1.23072,3.58961l1.1709,-3.32466c0.15384,-0.43303 0.27634,-0.71222 0.3675,-0.83758c0.09117,-0.13105 0.24786,-0.19657 0.47007,-0.19657c0.19943,0 0.35611,0.06838 0.47007,0.20512c0.11396,0.13105 0.17093,0.26495 0.17093,0.40169c0,0.16523 -0.05698,0.39884 -0.17093,0.70083l-1.90591,4.98272c-0.2507,0.66095 -0.5128,1.12532 -0.78629,1.39311c-0.2678,0.2735 -0.72932,0.41024 -1.38457,0.41024c-0.84328,0 -1.26491,-0.21652 -1.26491,-0.64954c0,-0.14245 0.04559,-0.26209 0.13675,-0.35896c0.09686,-0.09686 0.22506,-0.1453 0.3846,-0.1453c0.02849,0 0.11111,0.0057 0.24786,0.01709c0.14244,0.01139 0.22506,0.0171 0.24785,0.0171c0.2678,0 0.46438,-0.06553 0.58973,-0.19658c0.13105,-0.12535 0.25925,-0.34756 0.3846,-0.66664zM220.7272,177.03857c0.21652,0 0.4017,0.07977 0.55554,0.23931c0.15954,0.15384 0.23931,0.33902 0.23931,0.55554c0,0.22222 -0.07977,0.41309 -0.23931,0.57262c-0.15384,0.15954 -0.33902,0.23931 -0.55554,0.23931c-0.22222,0 -0.41309,-0.07978 -0.57263,-0.23931c-0.15954,-0.15954 -0.23931,-0.35041 -0.23931,-0.57262c0,-0.21652 0.07977,-0.4017 0.23931,-0.55554c0.15954,-0.15954 0.35041,-0.23931 0.57263,-0.23931zM220.7272,181.35465c0.21652,0 0.4017,0.07977 0.55554,0.23931c0.15954,0.15384 0.23931,0.34187 0.23931,0.56408c0,0.21652 -0.07977,0.40739 -0.23931,0.57263c-0.15384,0.15954 -0.33902,0.23931 -0.55554,0.23931c-0.22222,0 -0.41309,-0.07977 -0.57263,-0.23931c-0.15954,-0.15954 -0.23931,-0.35041 -0.23931,-0.57263c0,-0.22222 0.07977,-0.41024 0.23931,-0.56408c0.15954,-0.15954 0.35041,-0.23931 0.57263,-0.23931zM228.0827,176.22664v1.99993h2.35889c0.27919,0 0.47007,0.01425 0.57263,0.04273c0.10825,0.02849 0.20227,0.09686 0.28204,0.20512c0.08546,0.10825 0.1282,0.22506 0.1282,0.35041c0,0.16523 -0.06267,0.31053 -0.18802,0.43588c-0.11965,0.12535 -0.3846,0.18803 -0.79484,0.18803h-2.35889v2.20505c0,0.31907 -0.01425,0.55554 -0.04274,0.70938c-0.02279,0.15384 -0.09401,0.29343 -0.21366,0.41879c-0.11396,0.12535 -0.29344,0.18803 -0.53845,0.18803c-0.23931,0 -0.41878,-0.06268 -0.53844,-0.18803c-0.11396,-0.12535 -0.18518,-0.2678 -0.21367,-0.42733c-0.02279,-0.16523 -0.03419,-0.39884 -0.03419,-0.70083v-5.32459c0,-0.56978 0.03988,-0.89455 0.11965,-0.97432c0.08546,-0.07977 0.17663,-0.15669 0.2735,-0.23076c0.10256,-0.07977 0.41309,-0.11965 0.93159,-0.11965h3.11954c0.27349,0 0.46722,0.01139 0.58118,0.03418c0.11396,0.01709 0.21367,0.07977 0.29913,0.18803c0.09117,0.10825 0.13675,0.23646 0.13675,0.3846c0,0.14814 -0.04558,0.27635 -0.13675,0.3846c-0.08546,0.10825 -0.18518,0.17379 -0.29913,0.19657c-0.11396,0.02279 -0.30768,0.03418 -0.58118,0.03418zM233.63164,174.93609c0.19373,0 0.35896,0.07122 0.49571,0.21366c0.13675,0.14245 0.20512,0.30769 0.20512,0.49571c0,0.19372 -0.06837,0.36181 -0.20512,0.50426c-0.13675,0.13675 -0.30199,0.20512 -0.49571,0.20512c-0.19373,0 -0.36181,-0.06837 -0.50426,-0.20512c-0.13675,-0.14245 -0.20512,-0.31053 -0.20512,-0.50426c0,-0.19372 0.06838,-0.35897 0.20512,-0.49571c0.14244,-0.14245 0.31053,-0.21366 0.50426,-0.21366zM234.35811,178.22657v3.52979c0,0.35327 -0.01709,0.59542 -0.05128,0.72647c-0.02849,0.12535 -0.11111,0.23931 -0.24786,0.34186c-0.13105,0.09686 -0.27349,0.14529 -0.42733,0.14529c-0.15384,0 -0.29913,-0.04843 -0.43588,-0.14529c-0.13675,-0.10256 -0.22222,-0.21936 -0.2564,-0.35041c-0.02849,-0.13105 -0.04273,-0.37036 -0.04273,-0.71792v-3.52124c0,-0.31907 0.0114,-0.54413 0.03419,-0.67518c0.02849,-0.13675 0.10825,-0.25641 0.23931,-0.35897c0.13105,-0.10825 0.28204,-0.16238 0.45298,-0.16238c0.17094,0 0.31908,0.04843 0.44443,0.14529c0.12535,0.09116 0.20512,0.21082 0.23931,0.35896c0.03418,0.14245 0.05128,0.37036 0.05128,0.68374zM237.9552,180.81622l-1.06834,1.54695c-0.19373,0.26779 -0.34757,0.43588 -0.46152,0.50426c-0.11396,0.06838 -0.23646,0.10256 -0.36751,0.10256c-0.18233,0 -0.33901,-0.05698 -0.47006,-0.17093c-0.12535,-0.11395 -0.18803,-0.245 -0.18803,-0.39315c0,-0.16523 0.09971,-0.38745 0.29914,-0.66665l1.32474,-1.88882l-1.1709,-1.58113c-0.20512,-0.26779 -0.30768,-0.48716 -0.30768,-0.6581c0,-0.16523 0.05983,-0.30199 0.17948,-0.41025c0.12535,-0.10825 0.28773,-0.16238 0.48716,-0.16238c0.17094,0 0.31054,0.04558 0.41879,0.13675c0.10825,0.09116 0.23931,0.24501 0.39315,0.46152l0.93159,1.29055l0.93159,-1.29055c0.19373,-0.2735 0.34756,-0.44158 0.46152,-0.50426c0.11396,-0.06268 0.23646,-0.09402 0.36751,-0.09402c0.18802,0 0.34472,0.05413 0.47007,0.16238c0.12535,0.10825 0.18803,0.23646 0.18803,0.38461c0,0.17093 -0.10542,0.39884 -0.31623,0.68374l-1.17089,1.58113l1.30764,1.88882c0.21652,0.29629 0.32477,0.51565 0.32477,0.6581c0,0.15954 -0.06552,0.29629 -0.19657,0.41024c-0.13105,0.10825 -0.27635,0.16239 -0.43589,0.16239c-0.29628,0 -0.58402,-0.20227 -0.86321,-0.60681zM249.19304,176.90183l-1.282,4.70923c-0.13105,0.48431 -0.2678,0.83188 -0.41024,1.0427c-0.13674,0.21082 -0.37606,0.31623 -0.71793,0.31623c-0.34757,0 -0.58687,-0.10256 -0.71792,-0.30768c-0.13105,-0.21082 -0.2621,-0.57832 -0.39315,-1.10252l-1.2991,-5.27331c-0.07977,-0.23931 -0.11965,-0.47861 -0.11965,-0.71792c0,-0.17663 0.07122,-0.33617 0.21366,-0.47861c0.14244,-0.14814 0.31623,-0.22222 0.52135,-0.22222c0.27349,0 0.45867,0.08262 0.55553,0.24786c0.09686,0.15954 0.19373,0.43873 0.29059,0.83757l1.03414,4.57248l1.14526,-4.28189c0.15384,-0.58687 0.31623,-0.96293 0.48716,-1.12816c0.17093,-0.16523 0.40169,-0.24786 0.69228,-0.24786c0.28489,0 0.50995,0.07977 0.67518,0.23931c0.16523,0.15954 0.33048,0.53844 0.49571,1.13671l1.14525,4.28189l1.03415,-4.57248c0.09116,-0.44443 0.19373,-0.73501 0.30768,-0.87176c0.11396,-0.14245 0.29059,-0.21367 0.5299,-0.21367c0.21081,0 0.38745,0.07407 0.5299,0.22222c0.14245,0.14245 0.21367,0.30483 0.21367,0.48716c0,0.14814 -0.03988,0.3846 -0.11965,0.70937l-1.30765,5.27331c-0.12535,0.5185 -0.25355,0.88316 -0.3846,1.09398c-0.13105,0.21082 -0.37036,0.31623 -0.71792,0.31623c-0.245,0 -0.45583,-0.07122 -0.63245,-0.21367c-0.17093,-0.14814 -0.33902,-0.5299 -0.50426,-1.14526zM255.80497,174.93609c0.19373,0 0.35897,0.07122 0.49571,0.21366c0.13674,0.14245 0.20512,0.30769 0.20512,0.49571c0,0.19372 -0.06838,0.36181 -0.20512,0.50426c-0.13674,0.13675 -0.30199,0.20512 -0.49571,0.20512c-0.19373,0 -0.36181,-0.06837 -0.50426,-0.20512c-0.13674,-0.14245 -0.20512,-0.31053 -0.20512,-0.50426c0,-0.19372 0.06838,-0.35897 0.20512,-0.49571c0.14245,-0.14245 0.31053,-0.21366 0.50426,-0.21366zM256.53143,178.22657v3.52979c0,0.35327 -0.01709,0.59542 -0.05128,0.72647c-0.02849,0.12535 -0.11111,0.23931 -0.24785,0.34186c-0.13105,0.09686 -0.27349,0.14529 -0.42733,0.14529c-0.15384,0 -0.29914,-0.04843 -0.43588,-0.14529c-0.13674,-0.10256 -0.22222,-0.21936 -0.2564,-0.35041c-0.02849,-0.13105 -0.04273,-0.37036 -0.04273,-0.71792v-3.52124c0,-0.31907 0.0114,-0.54413 0.03419,-0.67518c0.02849,-0.13675 0.10826,-0.25641 0.23931,-0.35897c0.13105,-0.10825 0.28204,-0.16238 0.45298,-0.16238c0.17093,0 0.31908,0.04843 0.44443,0.14529c0.12535,0.09116 0.20512,0.21082 0.23931,0.35896c0.03419,0.14245 0.05128,0.37036 0.05128,0.68374zM258.02604,181.75635v-3.73491c0,-0.65524 0.23931,-0.98287 0.71792,-0.98287c0.46152,0 0.69798,0.30199 0.70938,0.90595c0.30199,-0.60397 0.72077,-0.90595 1.25636,-0.90595c0.27919,0 0.56977,0.07407 0.87176,0.22222c0.30199,0.14814 0.45298,0.35041 0.45298,0.60681c0,0.17663 -0.06268,0.32477 -0.18803,0.44443c-0.11965,0.11395 -0.24786,0.17093 -0.3846,0.17093c-0.07977,0 -0.22221,-0.03134 -0.42733,-0.09401c-0.20512,-0.06268 -0.37606,-0.09401 -0.5128,-0.09401c-0.34757,0 -0.60682,0.17663 -0.77775,0.52989c-0.17093,0.34756 -0.2564,1.0256 -0.2564,2.03411v0.84613c0,0.37036 -0.01709,0.62106 -0.05128,0.75211c-0.02849,0.13105 -0.10826,0.2507 -0.23931,0.35896c-0.12535,0.10256 -0.27065,0.15384 -0.43588,0.15384c-0.16523,0 -0.31338,-0.04843 -0.44443,-0.14529c-0.12535,-0.09686 -0.20512,-0.20797 -0.23931,-0.33332c-0.03419,-0.13105 -0.05128,-0.37605 -0.05128,-0.73501zM263.56109,174.93609c0.19373,0 0.35896,0.07122 0.4957,0.21366c0.13674,0.14245 0.20512,0.30769 0.20512,0.49571c0,0.19372 -0.06838,0.36181 -0.20512,0.50426c-0.13674,0.13675 -0.30198,0.20512 -0.4957,0.20512c-0.19373,0 -0.36181,-0.06837 -0.50426,-0.20512c-0.13674,-0.14245 -0.20512,-0.31053 -0.20512,-0.50426c0,-0.19372 0.06838,-0.35897 0.20512,-0.49571c0.14245,-0.14245 0.31053,-0.21366 0.50426,-0.21366zM264.28756,178.22657v3.52979c0,0.35327 -0.01709,0.59542 -0.05128,0.72647c-0.02849,0.12535 -0.11111,0.23931 -0.24785,0.34186c-0.13105,0.09686 -0.27349,0.14529 -0.42733,0.14529c-0.15384,0 -0.29914,-0.04843 -0.43589,-0.14529c-0.13674,-0.10256 -0.22221,-0.21936 -0.2564,-0.35041c-0.02849,-0.13105 -0.04273,-0.37036 -0.04273,-0.71792v-3.52124c0,-0.31907 0.0114,-0.54413 0.03419,-0.67518c0.02849,-0.13675 0.10826,-0.25641 0.23931,-0.35897c0.13105,-0.10825 0.28204,-0.16238 0.45297,-0.16238c0.17093,0 0.31908,0.04843 0.44443,0.14529c0.12535,0.09116 0.20512,0.21082 0.23931,0.35896c0.03419,0.14245 0.05128,0.37036 0.05128,0.68374zM270.93582,179.36328v2.39308c0,0.31338 -0.01424,0.54129 -0.04273,0.68373c-0.02279,0.13675 -0.09972,0.25925 -0.23076,0.3675c-0.12535,0.10825 -0.27349,0.16239 -0.44442,0.16239c-0.15954,0 -0.30769,-0.04843 -0.44443,-0.14529c-0.13105,-0.09686 -0.21367,-0.21936 -0.24785,-0.3675c-0.03419,-0.15384 -0.05128,-0.38745 -0.05128,-0.70083v-2.09394c0,-0.58687 -0.08832,-0.98002 -0.26495,-1.17944c-0.17093,-0.20512 -0.41024,-0.30768 -0.71792,-0.30768c-0.27349,0 -0.51566,0.07977 -0.72647,0.23931c-0.21081,0.15954 -0.35897,0.36181 -0.44443,0.60682c-0.08546,0.23931 -0.1282,0.64954 -0.1282,1.23072v1.50422c0,0.30768 -0.0114,0.53274 -0.03419,0.67519c-0.02279,0.13675 -0.09971,0.26209 -0.23076,0.37605c-0.13105,0.10825 -0.28204,0.16239 -0.45298,0.16239c-0.16523,0 -0.31623,-0.04843 -0.45298,-0.14529c-0.13105,-0.10256 -0.21082,-0.22506 -0.23931,-0.3675c-0.02849,-0.14814 -0.04273,-0.38175 -0.04273,-0.70083v-3.58961c0,-0.32477 0.01424,-0.54984 0.04273,-0.67519c0.03419,-0.13105 0.11111,-0.23931 0.23076,-0.32477c0.12535,-0.08546 0.26495,-0.1282 0.41879,-0.1282c0.14245,0 0.29059,0.05698 0.44443,0.17093c0.15384,0.10825 0.23076,0.37891 0.23076,0.81194c0.49001,-0.65524 1.11676,-0.98287 1.88027,-0.98287c0.29059,0 0.57833,0.05698 0.86321,0.17093c0.28489,0.10825 0.51566,0.28489 0.69228,0.5299c0.18233,0.245 0.29344,0.50141 0.33332,0.7692c0.03988,0.26779 0.05982,0.55268 0.05982,0.85467zM276.39822,178.02999v-0.19657c0,-0.2621 0.06267,-0.45867 0.18802,-0.58972c0.13105,-0.13675 0.29629,-0.20512 0.49571,-0.20512c0.22222,0 0.39315,0.07692 0.5128,0.23076c0.11965,0.15384 0.17948,0.48717 0.17948,0.99997v3.91438c0,1.16235 -0.245,1.94295 -0.73502,2.34179c-0.49001,0.40454 -1.19654,0.60681 -2.11958,0.60681c-0.83188,0 -1.48143,-0.15384 -1.94864,-0.46152c-0.46722,-0.30768 -0.70083,-0.63245 -0.70083,-0.97432c0,-0.18233 0.05983,-0.33048 0.17948,-0.44443c0.12535,-0.11395 0.27349,-0.17093 0.44443,-0.17093c0.15384,0 0.2735,0.03704 0.35896,0.11111c0.09116,0.07407 0.24501,0.24785 0.46152,0.52134c0.22222,0.2735 0.58972,0.41025 1.10252,0.41025c0.28489,0 0.54984,-0.04559 0.79484,-0.13675c0.245,-0.08546 0.42449,-0.24216 0.53844,-0.47007c0.11965,-0.22222 0.17378,-0.77206 0.16239,-1.64952c-0.44443,0.64385 -1.05124,0.96578 -1.82045,0.96578c-0.74641,0 -1.33613,-0.27919 -1.76916,-0.83757c-0.43303,-0.55838 -0.64954,-1.27061 -0.64954,-2.13667c0,-0.86606 0.22221,-1.55265 0.66664,-2.05975c0.44443,-0.50711 1.02275,-0.76065 1.73498,-0.76065c0.7806,0 1.4216,0.33047 1.92301,0.99142zM273.55217,179.97864c0,0.56408 0.12251,0.99427 0.36751,1.29055c0.245,0.29629 0.58402,0.44442 1.01705,0.44442c0.37606,0 0.69798,-0.14244 0.96578,-0.42733c0.27349,-0.29059 0.41024,-0.72361 0.41024,-1.2991c0,-0.56408 -0.12534,-1.01136 -0.37605,-1.34183c-0.25071,-0.33047 -0.58973,-0.49571 -1.01706,-0.49571c-0.41594,0 -0.74925,0.15669 -0.99996,0.47007c-0.245,0.30768 -0.36751,0.76065 -0.36751,1.35892zM284.83381,185.13229c-0.2621,0 -0.46153,-0.05128 -0.59827,-0.15384c-0.13674,-0.09686 -0.37036,-0.41309 -0.70083,-0.94868c-0.33047,-0.53559 -0.60112,-1.1595 -0.81194,-1.87173c-0.21081,-0.71222 -0.31623,-1.43015 -0.31623,-2.15377c0,-0.78629 0.11965,-1.55549 0.35896,-2.3076c0.23931,-0.75781 0.5185,-1.38172 0.83758,-1.87173c0.32477,-0.49001 0.54699,-0.77205 0.66664,-0.84612c0.12535,-0.07407 0.31338,-0.11111 0.56409,-0.11111c0.15954,0 0.2393,0.04559 0.2393,0.13675c0,0.03418 -0.1168,0.29913 -0.35041,0.79484c-0.23361,0.49571 -0.44727,1.14526 -0.641,1.94864c-0.19373,0.80339 -0.29059,1.55549 -0.29059,2.25632c0,0.70652 0.09687,1.46719 0.29059,2.28197c0.19373,0.80908 0.40739,1.44724 0.641,1.91446c0.23361,0.46722 0.35041,0.73501 0.35041,0.80338c0,0.08546 -0.07977,0.1282 -0.2393,0.1282zM290.3304,178.55134c0.83757,0.44443 1.25636,1.08543 1.25636,1.923c0,0.66095 -0.25925,1.24212 -0.77775,1.74352c-0.5128,0.5014 -1.18514,0.75211 -2.01702,0.75211c-0.83757,0 -1.48997,-0.25925 -1.95719,-0.77775c-0.46152,-0.5185 -0.69228,-0.98287 -0.69228,-1.39311c0,-0.17663 0.06268,-0.32762 0.18803,-0.45297c0.13105,-0.12535 0.29343,-0.18802 0.48716,-0.18802c0.12535,0 0.23646,0.03703 0.33332,0.1111c0.10256,0.06838 0.19943,0.23076 0.29059,0.48716c0.2621,0.7692 0.71222,1.15381 1.35037,1.15381c0.33617,0 0.64386,-0.12251 0.92305,-0.36751c0.27919,-0.2507 0.41878,-0.59257 0.41878,-1.0256c0,-0.40454 -0.11395,-0.72647 -0.34186,-0.96578c-0.22222,-0.23931 -0.5242,-0.35896 -0.90595,-0.35896l-0.68374,0.04273c-0.38745,0 -0.58118,-0.18233 -0.58118,-0.54699c0,-0.38745 0.23931,-0.58118 0.71792,-0.58118c0.59257,0 0.98288,-0.11395 1.1709,-0.34186c0.19373,-0.22791 0.29058,-0.47292 0.29058,-0.73502c0,-0.29629 -0.09686,-0.54129 -0.29058,-0.73501c-0.18803,-0.19372 -0.44158,-0.29059 -0.76066,-0.29059c-0.57548,0 -0.96578,0.28773 -1.1709,0.86322c-0.13105,0.34187 -0.33332,0.5128 -0.60682,0.5128c-0.18233,0 -0.33047,-0.05698 -0.44442,-0.17093c-0.10826,-0.11966 -0.16239,-0.26495 -0.16239,-0.43588c0,-0.41024 0.23076,-0.81478 0.69228,-1.21363c0.46152,-0.40454 1.06264,-0.60682 1.80335,-0.60682c0.72362,0 1.29909,0.18518 1.72643,0.55554c0.42733,0.37036 0.64101,0.83187 0.64101,1.38456c0,0.63815 -0.29913,1.19084 -0.8974,1.65806zM292.35276,181.88454l1.50422,-6.16217c0.07407,-0.34187 0.14529,-0.56978 0.21366,-0.68374c0.07407,-0.11395 0.21082,-0.17093 0.41025,-0.17093c0.37036,0 0.55553,0.15384 0.55553,0.46152c0,0.11395 -0.03704,0.32192 -0.11111,0.62391l-1.49567,6.16217c-0.06838,0.33047 -0.14245,0.55553 -0.22222,0.67519c-0.07407,0.11966 -0.20797,0.17948 -0.40169,0.17948c-0.37036,0 -0.55554,-0.15384 -0.55554,-0.46152c0,-0.11966 0.03419,-0.32762 0.10256,-0.62391zM299.90269,178.55134c0.83757,0.44443 1.25636,1.08543 1.25636,1.923c0,0.66095 -0.25925,1.24212 -0.77775,1.74352c-0.5128,0.5014 -1.18514,0.75211 -2.01702,0.75211c-0.83757,0 -1.48997,-0.25925 -1.95719,-0.77775c-0.46152,-0.5185 -0.69228,-0.98287 -0.69228,-1.39311c0,-0.17663 0.06268,-0.32762 0.18803,-0.45297c0.13105,-0.12535 0.29343,-0.18802 0.48716,-0.18802c0.12535,0 0.23646,0.03703 0.33332,0.1111c0.10256,0.06838 0.19943,0.23076 0.29059,0.48716c0.2621,0.7692 0.71222,1.15381 1.35037,1.15381c0.33617,0 0.64386,-0.12251 0.92305,-0.36751c0.27919,-0.2507 0.41879,-0.59257 0.41879,-1.0256c0,-0.40454 -0.11396,-0.72647 -0.34187,-0.96578c-0.22222,-0.23931 -0.5242,-0.35896 -0.90595,-0.35896l-0.68374,0.04273c-0.38745,0 -0.58118,-0.18233 -0.58118,-0.54699c0,-0.38745 0.23931,-0.58118 0.71792,-0.58118c0.59257,0 0.98288,-0.11395 1.1709,-0.34186c0.19373,-0.22791 0.29058,-0.47292 0.29058,-0.73502c0,-0.29629 -0.09686,-0.54129 -0.29058,-0.73501c-0.18803,-0.19372 -0.44158,-0.29059 -0.76066,-0.29059c-0.57548,0 -0.96578,0.28773 -1.1709,0.86322c-0.13105,0.34187 -0.33332,0.5128 -0.60682,0.5128c-0.18233,0 -0.33047,-0.05698 -0.44442,-0.17093c-0.10826,-0.11966 -0.16239,-0.26495 -0.16239,-0.43588c0,-0.41024 0.23076,-0.81478 0.69228,-1.21363c0.46152,-0.40454 1.06264,-0.60682 1.80335,-0.60682c0.72362,0 1.29909,0.18518 1.72643,0.55554c0.42733,0.37036 0.64101,0.83187 0.64101,1.38456c0,0.63815 -0.29913,1.19084 -0.8974,1.65806zM302.45495,174.86771c0.2564,0 0.45298,0.04843 0.58972,0.14529c0.13674,0.09686 0.37036,0.41594 0.70083,0.95723c0.33047,0.54129 0.60112,1.16805 0.81194,1.88027c0.21081,0.70652 0.31623,1.42444 0.31623,2.15376c0,0.7806 -0.11965,1.5498 -0.35896,2.30761c-0.23931,0.75211 -0.52135,1.37317 -0.84613,1.86318c-0.31907,0.49001 -0.54129,0.77205 -0.66664,0.84612c-0.11965,0.07407 -0.30199,0.1111 -0.54699,0.1111c-0.15954,0 -0.23931,-0.04273 -0.23931,-0.1282c0,-0.03989 0.11395,-0.30768 0.34186,-0.80338c0.23361,-0.49571 0.44728,-1.14526 0.64101,-1.94865c0.19942,-0.80339 0.29914,-1.55265 0.29914,-2.24778c0,-0.71222 -0.09971,-1.47288 -0.29914,-2.28196c-0.19373,-0.81478 -0.4074,-1.45578 -0.64101,-1.923c-0.22791,-0.46722 -0.34186,-0.73217 -0.34186,-0.79484c0,-0.09116 0.07977,-0.13675 0.23931,-0.13675z"/></g></g></svg>