<svg version="1.1" xmlns="http://www.w3.org/2000/svg" xmlns:xlink="http://www.w3.org/1999/xlink" width="20.09352" height="15.33333" viewBox="0,0,20.09352,15.33333"><g transform="translate(-230.18568,-172.30361)"><g data-paper-data="{&quot;isPaintingLayer&quot;:true}" fill-rule="nonzero" stroke-linejoin="miter" stroke-miterlimit="10" stroke-dasharray="" stroke-dashoffset="0" style="mix-blend-mode: normal"><g fill="none" stroke-width="1.5" stroke-linecap="round"><path d="M236.67594,178.42907c0,0 4.8372,-0.24889 7.01717,0.29818c5.31006,1.33258 5.7946,2.71379 5.7946,2.71379" data-paper-data="{&quot;index&quot;:null}" stroke="#6c290d"/><path d="M236.42052,177.11534c0,0 4.95261,-0.34207 7.13257,0.205c5.31006,1.33258 5.97611,2.21104 5.97611,2.21104" data-paper-data="{&quot;index&quot;:null}" stroke="#843310"/><path d="M235.73154,179.84377c0,0 4.8372,-0.24888 7.01717,0.29819c5.31006,1.33258 5.7946,2.71379 5.7946,2.71379" data-paper-data="{&quot;index&quot;:null}" stroke="#a03d13"/><path d="M236.15947,175.77683c0,0 4.9526,-0.34207 7.13257,0.20499c5.31006,1.33258 5.97611,2.21104 5.97611,2.21104" data-paper-data="{&quot;index&quot;:null}" stroke="#843310"/><path d="M236.25407,174.59742c0,0 4.95469,-0.27577 7.11157,0.30154c5.25381,1.40622 5.88833,2.29497 5.88833,2.29497" data-paper-data="{&quot;index&quot;:null}" stroke="#a03d13"/><path d="M249.06221,180.49653c0,0 -0.42617,1.91233 -5.68669,4.1941c-2.15963,0.93675 -7.01424,1.03631 -7.01424,1.03631" stroke="#a03d13"/><path d="M249.51326,176.61179c0,0 -0.62943,1.24854 -5.88995,3.5303c-2.15963,0.93675 -7.13378,0.92066 -7.13378,0.92066" stroke="#a03d13"/><path d="M248.62856,174.82158c0,0 -0.42617,1.91232 -5.68669,4.1941c-2.15963,0.93675 -7.01424,1.03631 -7.01424,1.03631" stroke="#843310"/><path d="M249.26828,178.0098c0,0 -0.62943,1.24853 -5.88995,3.5303c-2.15963,0.93675 -7.13378,0.92065 -7.13378,0.92065" stroke="#843310"/><path d="M249.31037,179.508c0,0 -0.5974,1.25962 -5.79845,3.63594c-2.13521,0.97556 -7.10863,1.04937 -7.10863,1.04937" stroke="#843310"/></g><path d="M230.18568,187.63694v-15.33333h7.16667v15.33333z" data-paper-data="{&quot;index&quot;:null}" fill="#000000" stroke="none" stroke-width="0" stroke-linecap="butt"/><path d="M230.18568,186.63694v-13h7.16667v13z" data-paper-data="{&quot;index&quot;:null}" fill="#a600a6" stroke="none" stroke-width="0" stroke-linecap="butt"/><path d="M230.18568,183.30359v-7h7.16667v7z" data-paper-data="{&quot;index&quot;:null}" fill="#ff00ff" stroke="none" stroke-width="0" stroke-linecap="butt"/></g></g></svg>