<svg version="1.1" xmlns="http://www.w3.org/2000/svg" xmlns:xlink="http://www.w3.org/1999/xlink" width="144.14414" height="60.93899" viewBox="0,0,144.14414,60.93899"><g transform="translate(-167.92793,-149.5305)"><g data-paper-data="{&quot;isPaintingLayer&quot;:true}" fill-rule="nonzero" stroke-linejoin="miter" stroke-miterlimit="10" stroke-dasharray="" stroke-dashoffset="0" style="mix-blend-mode: normal"><path d="M208.24856,174.76343c0,0.37741 0.1633,0.70765 0.4899,0.9907c0.32661,0.2758 1.15764,0.57338 2.4931,0.89273c1.34271,0.31935 2.33705,0.65684 2.983,1.01248c0.64596,0.34838 1.11046,0.80926 1.39352,1.38263c0.29031,0.56611 0.43547,1.15763 0.43547,1.77456c0,1.24111 -0.47177,2.25721 -1.41529,3.04832c-0.93627,0.78386 -2.21729,1.17578 -3.84307,1.17578c-1.77819,0 -3.10638,-0.42459 -3.98459,-1.27377c-0.87821,-0.85643 -1.31732,-1.7419 -1.31732,-2.65639c0,-0.30483 0.1125,-0.57337 0.3375,-0.80563c0.22499,-0.23951 0.51894,-0.35926 0.88183,-0.35926c0.33387,0 0.58064,0.10161 0.74031,0.30483c0.16693,0.19597 0.36652,0.56249 0.59877,1.09958c0.49354,1.13949 1.37901,1.70924 2.6564,1.70924c0.76208,0 1.4044,-0.17419 1.92697,-0.52257c0.52257,-0.34838 0.78386,-0.82378 0.78386,-1.42618c0,-0.46451 -0.18145,-0.86369 -0.54434,-1.19756c-0.35564,-0.33387 -1.17941,-0.64959 -2.47132,-0.94716c-1.29191,-0.29757 -2.19914,-0.58063 -2.72171,-0.84918c-0.51531,-0.2758 -0.96894,-0.67136 -1.36086,-1.18667c-0.38467,-0.51531 -0.57701,-1.15401 -0.57701,-1.91609c0,-1.13224 0.44636,-2.03584 1.33909,-2.71083c0.89998,-0.67499 2.11931,-1.01248 3.65799,-1.01248c1.57497,0 2.76164,0.35926 3.56001,1.0778c0.79837,0.71854 1.19755,1.4407 1.19755,2.16648c0,0.30483 -0.11613,0.59152 -0.34838,0.86006c-0.23226,0.26129 -0.5262,0.39193 -0.88184,0.39193c-0.32661,0 -0.57337,-0.09072 -0.74031,-0.27218c-0.16693,-0.1887 -0.35927,-0.50079 -0.57701,-0.93627c-0.45725,-0.91449 -1.24836,-1.37175 -2.37334,-1.37175c-0.65321,0 -1.20481,0.14153 -1.65481,0.42459c-0.44273,0.28306 -0.66409,0.66047 -0.66409,1.13223zM218.56811,175.18802v-1.48062c0,-0.61693 0.0254,-1.03426 0.0762,-1.25199c0.0508,-0.21774 0.18145,-0.4137 0.39193,-0.58789c0.21774,-0.17419 0.47176,-0.26129 0.76208,-0.26129c0.26855,0 0.50806,0.07984 0.71854,0.23951c0.21774,0.15241 0.35926,0.34112 0.42459,0.56611c0.06532,0.225 0.09798,0.5879 0.09798,1.08869v1.68747h0.48991c0.6024,0 1.00159,0.07621 1.19755,0.22862c0.20322,0.14516 0.30483,0.35926 0.30483,0.64232c0,0.60967 -0.50805,0.91449 -1.52416,0.91449h-0.46813v4.57249c0,0.61692 0.04354,1.03788 0.13064,1.26287c0.09435,0.225 0.33024,0.3375 0.70765,0.3375c0.18145,0 0.38467,-0.02541 0.60966,-0.07621c0.225,-0.0508 0.39193,-0.07621 0.5008,-0.07621c0.25402,0 0.45725,0.08347 0.60967,0.2504c0.15241,0.15967 0.22862,0.35201 0.22862,0.577c0,0.81288 -0.85644,1.21933 -2.5693,1.21933c-0.8274,0 -1.43707,-0.15242 -1.829,-0.45725c-0.38467,-0.31209 -0.62417,-0.6895 -0.71853,-1.13224c-0.09436,-0.44273 -0.14153,-1.0161 -0.14153,-1.72012v-4.75756h-0.32661c-0.73305,0 -1.09957,-0.29757 -1.09957,-0.89272c0,-0.59515 0.38467,-0.89272 1.15401,-0.89272zM229.0623,174.97028c1.53142,0 2.73623,0.4754 3.61444,1.42618c0.88547,0.94353 1.3282,2.14835 1.3282,3.61444c0,1.4661 -0.44636,2.67091 -1.33909,3.61444c-0.89273,0.94353 -2.07213,1.4153 -3.53823,1.4153c-1.59674,0 -2.83059,-0.4754 -3.70154,-1.42618c-0.86369,-0.95804 -1.29554,-2.15923 -1.29554,-3.60355c0,-1.47335 0.4391,-2.6818 1.31732,-3.62533c0.87821,-0.94353 2.08302,-1.4153 3.61444,-1.4153zM229.0623,183.20076c0.74757,0 1.33909,-0.28306 1.77456,-0.84918c0.44273,-0.56611 0.6641,-1.34634 0.6641,-2.34068c0,-1.00885 -0.22136,-1.79633 -0.6641,-2.36245c-0.43547,-0.56611 -1.02699,-0.84918 -1.77456,-0.84918c-0.74031,0 -1.33182,0.28669 -1.77456,0.86007c-0.43547,0.56611 -0.65321,1.34998 -0.65321,2.35156c0,1.00159 0.21774,1.78545 0.65321,2.35156c0.43547,0.55886 1.02699,0.83829 1.77456,0.83829zM235.9366,182.99391v-6.35793c0,-1.11046 0.40644,-1.66569 1.21933,-1.66569c0.78385,0 1.18304,0.51532 1.19755,1.54594c0.51531,-1.03062 1.22659,-1.54594 2.13383,-1.54594c0.47902,0 0.97256,0.12702 1.48062,0.38105c0.51531,0.24677 0.77297,0.58789 0.77297,1.02337c0,0.30483 -0.10524,0.55523 -0.31572,0.75119c-0.20322,0.19597 -0.42459,0.29395 -0.6641,0.29395c-0.13064,0 -0.37016,-0.05081 -0.71854,-0.15242c-0.34838,-0.10887 -0.63869,-0.1633 -0.87095,-0.1633c-0.59515,0 -1.03788,0.3012 -1.32819,0.90361c-0.29031,0.59515 -0.43547,1.74916 -0.43547,3.46203v1.42618c0,0.63144 -0.0254,1.05966 -0.07621,1.28465c-0.0508,0.21774 -0.18508,0.41733 -0.40281,0.59878c-0.21774,0.17419 -0.46814,0.26129 -0.7512,0.26129c-0.2758,0 -0.52257,-0.07984 -0.74031,-0.23951c-0.21774,-0.15967 -0.35564,-0.34838 -0.4137,-0.56612c-0.05806,-0.225 -0.08709,-0.6387 -0.08709,-1.2411zM249.87951,183.64712c-1.17578,0.92901 -2.32979,1.39352 -3.46203,1.39352c-1.06691,0 -1.89068,-0.27217 -2.47132,-0.81652c-0.57337,-0.54434 -0.86006,-1.20845 -0.86006,-1.9923c0,-0.67499 0.19597,-1.21933 0.58789,-1.63303c0.39192,-0.4137 0.81652,-0.70039 1.27376,-0.86006c0.45725,-0.16693 1.20481,-0.35564 2.24269,-0.56612c1.03788,-0.21774 1.87617,-0.41733 2.51487,-0.59878c-0.00726,-0.74757 -0.15605,-1.25199 -0.44636,-1.51327c-0.29031,-0.26854 -0.73305,-0.40282 -1.3282,-0.40282c-1.12498,0 -1.85803,0.31572 -2.19915,0.94716c-0.19597,0.35564 -0.37016,0.60967 -0.52257,0.76208c-0.15241,0.15241 -0.37015,0.22862 -0.65321,0.22862c-0.26128,0 -0.49717,-0.08709 -0.70765,-0.26128c-0.21048,-0.17419 -0.31572,-0.39556 -0.31572,-0.6641c0,-0.64596 0.34838,-1.25562 1.04514,-1.82899c0.69676,-0.58064 1.78908,-0.87095 3.27695,-0.87095c1.51691,0 2.62373,0.26129 3.32049,0.78385c0.70402,0.52257 1.03426,1.5786 0.99071,3.16808l-0.05444,2.32979c-0.02177,0.71854 0.0508,1.30642 0.21774,1.76367c0.17419,0.44999 0.26128,0.79475 0.26128,1.03426c0,0.26129 -0.11613,0.49354 -0.34838,0.69676c-0.22499,0.19597 -0.48265,0.29395 -0.77296,0.29395c-0.50079,0 -1.03062,-0.46451 -1.58948,-1.39352zM249.7162,180.06534c-0.37016,0.1379 -0.97982,0.29394 -1.82899,0.46813c-0.84918,0.16693 -1.45158,0.35927 -1.80722,0.57701c-0.34838,0.21773 -0.52257,0.53708 -0.52257,0.95804c0,0.35564 0.1379,0.67136 0.4137,0.94716c0.28306,0.26855 0.68225,0.40282 1.19756,0.40282c0.54434,0 1.04877,-0.14879 1.51328,-0.44636c0.47177,-0.30483 0.76208,-0.66047 0.87095,-1.06691c0.10887,-0.4137 0.1633,-1.02699 0.1633,-1.83988zM261.2048,176.65774v-0.33749c0,-0.44273 0.10887,-0.7766 0.3266,-1.0016c0.21774,-0.23225 0.49717,-0.34838 0.83829,-0.34838c0.37741,0 0.66409,0.13427 0.86006,0.40282c0.20322,0.26128 0.30484,0.8274 0.30484,1.69835v6.64099c0,1.97415 -0.41733,3.29872 -1.25199,3.97371c-0.8274,0.68224 -2.02496,1.02336 -3.59267,1.02336c-1.40804,0 -2.51124,-0.26129 -3.30961,-0.78385c-0.79111,-0.51531 -1.18667,-1.06328 -1.18667,-1.64392c0,-0.31209 0.10524,-0.56611 0.31572,-0.76208c0.21048,-0.1887 0.45725,-0.28306 0.74031,-0.28306c0.26128,0 0.46813,0.06169 0.62055,0.18507c0.15242,0.12338 0.4137,0.41734 0.78386,0.88184c0.37015,0.47177 0.99433,0.70764 1.87254,0.70764c0.47902,0 0.92539,-0.07621 1.33909,-0.22862c0.42096,-0.15241 0.72941,-0.42096 0.92538,-0.80563c0.19597,-0.38467 0.28669,-1.31731 0.27218,-2.79792c-0.75482,1.08868 -1.78908,1.63303 -3.10276,1.63303c-1.26288,0 -2.26084,-0.47177 -2.99389,-1.41529c-0.73305,-0.95079 -1.09958,-2.16286 -1.09958,-3.63622c0,-1.4661 0.37741,-2.63099 1.13224,-3.49469c0.75482,-0.86369 1.73464,-1.29554 2.93945,-1.29554c1.3282,0 2.41689,0.56249 3.26607,1.68747zM256.37103,179.95647c0,0.96531 0.20686,1.70198 0.62056,2.21004c0.42096,0.5008 0.99796,0.75119 1.73101,0.75119c0.63869,0 1.18667,-0.24314 1.64392,-0.72942c0.46451,-0.49354 0.69676,-1.22659 0.69676,-2.19915c0,-0.96531 -0.21411,-1.72738 -0.64233,-2.28625c-0.42096,-0.56611 -0.99797,-0.84918 -1.73101,-0.84918c-0.70402,0 -1.26651,0.26492 -1.68746,0.79475c-0.42096,0.52257 -0.63144,1.29191 -0.63144,2.30801zM272.46999,180.60968h-4.85555c0.02178,0.92175 0.27218,1.61851 0.7512,2.09027c0.47902,0.46451 1.05603,0.69676 1.73101,0.69676c0.8274,0 1.60762,-0.3629 2.34068,-1.08868c0.29757,-0.30483 0.51531,-0.49354 0.65322,-0.56612c0.14516,-0.07258 0.30483,-0.10887 0.47902,-0.10887c0.22499,0 0.41733,0.07258 0.577,0.21774c0.15967,0.1379 0.23951,0.30847 0.23951,0.51168c0,0.55886 -0.38104,1.14675 -1.14312,1.76368c-0.76208,0.60967 -1.79271,0.9145 -3.09187,0.9145c-1.65481,0 -2.91042,-0.46814 -3.76685,-1.4044c-0.85644,-0.93627 -1.28465,-2.14472 -1.28465,-3.62533c0,-1.50239 0.42822,-2.71809 1.28465,-3.64711c0.85643,-0.92901 2.04674,-1.39352 3.57089,-1.39352c1.45159,0 2.57293,0.43911 3.36404,1.31732c0.79837,0.87821 1.19756,1.82899 1.19756,2.85236c0,0.45725 -0.13427,0.81651 -0.40282,1.0778c-0.26128,0.26129 -0.80926,0.39193 -1.64392,0.39193zM267.61445,179.20527h4.50716c-0.02903,-0.82014 -0.25765,-1.44432 -0.68587,-1.87254c-0.42096,-0.43547 -0.94353,-0.65322 -1.56771,-0.65322c-1.31368,0 -2.06488,0.84192 -2.25359,2.52576z" fill="#ffffff" stroke="#000000" stroke-width="3.5" stroke-linecap="square"/><path d="M208.24855,174.76343c0,0.37741 0.1633,0.70765 0.48991,0.99071c0.32661,0.2758 1.15764,0.57338 2.49309,0.89272c1.34271,0.31935 2.33705,0.65684 2.983,1.01248c0.64595,0.34838 1.11046,0.80926 1.39352,1.38263c0.29032,0.56612 0.43547,1.15764 0.43547,1.77456c0,1.2411 -0.47176,2.25721 -1.41529,3.04832c-0.93627,0.78385 -2.21729,1.17578 -3.84307,1.17578c-1.77819,0 -3.10639,-0.42459 -3.9846,-1.27376c-0.87821,-0.85643 -1.31731,-1.7419 -1.31731,-2.6564c0,-0.30483 0.1125,-0.57338 0.33749,-0.80563c0.225,-0.23951 0.51894,-0.35927 0.88184,-0.35927c0.33386,0 0.58063,0.10161 0.74031,0.30483c0.16693,0.19596 0.36652,0.56249 0.59878,1.09957c0.49354,1.13949 1.379,1.70924 2.6564,1.70924c0.76208,0 1.40441,-0.17419 1.92698,-0.52257c0.52257,-0.34838 0.78385,-0.82377 0.78385,-1.42618c0,-0.46451 -0.18145,-0.86369 -0.54434,-1.19756c-0.35564,-0.33386 -1.17941,-0.64958 -2.47132,-0.94716c-1.29191,-0.29757 -2.19915,-0.58063 -2.72172,-0.84918c-0.51531,-0.2758 -0.96893,-0.67136 -1.36086,-1.18667c-0.38467,-0.51531 -0.577,-1.15401 -0.577,-1.91609c0,-1.13223 0.44636,-2.03585 1.33909,-2.71083c0.89998,-0.67499 2.11931,-1.01248 3.65799,-1.01248c1.57497,0 2.76164,0.35927 3.56001,1.0778c0.79837,0.71853 1.19756,1.4407 1.19756,2.16649c0,0.30483 -0.11613,0.59152 -0.34838,0.86006c-0.23225,0.26128 -0.5262,0.39193 -0.88184,0.39193c-0.32661,0 -0.57338,-0.09072 -0.74031,-0.27217c-0.16693,-0.18871 -0.35927,-0.5008 -0.577,-0.93627c-0.45725,-0.9145 -1.24836,-1.37175 -2.37334,-1.37175c-0.65321,0 -1.20481,0.14153 -1.6548,0.42459c-0.44273,0.28306 -0.6641,0.66047 -0.6641,1.13223zM218.5681,175.18802v-1.48061c0,-0.61692 0.0254,-1.03425 0.07621,-1.25199c0.05081,-0.21774 0.18145,-0.4137 0.39193,-0.58789c0.21774,-0.17419 0.47176,-0.26128 0.76208,-0.26128c0.26854,0 0.50805,0.07984 0.71853,0.23951c0.21774,0.15242 0.35927,0.34112 0.42459,0.56612c0.06532,0.225 0.09798,0.58789 0.09798,1.08869v1.68747h0.48991c0.60241,0 1.00159,0.07621 1.19756,0.22862c0.20322,0.14516 0.30483,0.35927 0.30483,0.64233c0,0.60966 -0.50805,0.9145 -1.52416,0.9145h-0.46814v4.57249c0,0.61692 0.04355,1.03788 0.13064,1.26288c0.09435,0.225 0.33024,0.33749 0.70765,0.33749c0.18145,0 0.38467,-0.0254 0.60966,-0.07621c0.225,-0.05081 0.39193,-0.07621 0.5008,-0.07621c0.25403,0 0.45725,0.08347 0.60966,0.2504c0.15242,0.15967 0.22862,0.35201 0.22862,0.577c0,0.81289 -0.85643,1.21933 -2.5693,1.21933c-0.8274,0 -1.43707,-0.15242 -1.82899,-0.45725c-0.38467,-0.31209 -0.62418,-0.6895 -0.71853,-1.13223c-0.09435,-0.44273 -0.14153,-1.01611 -0.14153,-1.72013v-4.75756h-0.32661c-0.73305,0 -1.09957,-0.29757 -1.09957,-0.89272c0,-0.59515 0.38467,-0.89272 1.15401,-0.89272zM229.06229,174.97028c1.53142,0 2.73623,0.47539 3.61444,1.42618c0.88547,0.94353 1.3282,2.14834 1.3282,3.61444c0,1.4661 -0.44636,2.67091 -1.33909,3.61444c-0.89272,0.94353 -2.07213,1.41529 -3.53823,1.41529c-1.59674,0 -2.83059,-0.47539 -3.70154,-1.42618c-0.86369,-0.95804 -1.29554,-2.15923 -1.29554,-3.60356c0,-1.47336 0.4391,-2.6818 1.31731,-3.62533c0.87821,-0.94353 2.08302,-1.41529 3.61444,-1.41529zM229.06229,183.20076c0.74757,0 1.33909,-0.28306 1.77456,-0.84918c0.44273,-0.56612 0.6641,-1.34634 0.6641,-2.34068c0,-1.00885 -0.22137,-1.79633 -0.6641,-2.36245c-0.43547,-0.56612 -1.027,-0.84918 -1.77456,-0.84918c-0.74031,0 -1.33183,0.28669 -1.77456,0.86006c-0.43547,0.56612 -0.65321,1.34997 -0.65321,2.35156c0,1.00159 0.21774,1.78545 0.65321,2.35156c0.43547,0.55886 1.027,0.83829 1.77456,0.83829zM235.9366,182.99391v-6.35793c0,-1.11046 0.40644,-1.66569 1.21933,-1.66569c0.78385,0 1.18304,0.51531 1.19756,1.54594c0.51531,-1.03062 1.22659,-1.54594 2.13382,-1.54594c0.47902,0 0.97256,0.12701 1.48061,0.38104c0.51531,0.24677 0.77297,0.58789 0.77297,1.02337c0,0.30483 -0.10524,0.55523 -0.31572,0.75119c-0.20322,0.19596 -0.42459,0.29395 -0.6641,0.29395c-0.13064,0 -0.37015,-0.05081 -0.71853,-0.15242c-0.34838,-0.10887 -0.6387,-0.1633 -0.87095,-0.1633c-0.59515,0 -1.03788,0.3012 -1.3282,0.90361c-0.29031,0.59515 -0.43547,1.74916 -0.43547,3.46203v1.42618c0,0.63144 -0.0254,1.05966 -0.07621,1.28465c-0.05081,0.21774 -0.18508,0.41733 -0.40281,0.59878c-0.21774,0.17419 -0.46814,0.26128 -0.75119,0.26128c-0.2758,0 -0.52257,-0.07984 -0.74031,-0.23951c-0.21774,-0.15967 -0.35564,-0.34838 -0.4137,-0.56612c-0.05806,-0.225 -0.08709,-0.6387 -0.08709,-1.2411zM249.8795,183.64712c-1.17578,0.92901 -2.32979,1.39352 -3.46203,1.39352c-1.06691,0 -1.89069,-0.27217 -2.47132,-0.81652c-0.57338,-0.54434 -0.86006,-1.20844 -0.86006,-1.9923c0,-0.67499 0.19596,-1.21933 0.58789,-1.63303c0.39193,-0.4137 0.81652,-0.70039 1.27376,-0.86006c0.45725,-0.16693 1.20481,-0.35564 2.2427,-0.56612c1.03788,-0.21774 1.87617,-0.41733 2.51487,-0.59878c-0.00726,-0.74757 -0.15605,-1.25199 -0.44636,-1.51328c-0.29032,-0.26854 -0.73305,-0.40281 -1.3282,-0.40281c-1.12498,0 -1.85803,0.31572 -2.19915,0.94716c-0.19596,0.35564 -0.37015,0.60966 -0.52257,0.76208c-0.15242,0.15242 -0.37015,0.22862 -0.65321,0.22862c-0.26128,0 -0.49717,-0.08709 -0.70765,-0.26128c-0.21048,-0.17419 -0.31572,-0.39556 -0.31572,-0.6641c0,-0.64595 0.34838,-1.25562 1.04514,-1.82899c0.69676,-0.58063 1.78908,-0.87095 3.27695,-0.87095c1.5169,0 2.62374,0.26128 3.3205,0.78385c0.70402,0.52257 1.03425,1.5786 0.99071,3.16808l-0.05443,2.32979c-0.02177,0.71853 0.05081,1.30642 0.21774,1.76367c0.17419,0.44999 0.26128,0.79474 0.26128,1.03425c0,0.26128 -0.11613,0.49354 -0.34838,0.69676c-0.225,0.19596 -0.48265,0.29395 -0.77297,0.29395c-0.5008,0 -1.03062,-0.46451 -1.58948,-1.39352zM249.7162,180.06534c-0.37015,0.1379 -0.97982,0.29395 -1.82899,0.46814c-0.84918,0.16693 -1.45158,0.35927 -1.80722,0.577c-0.34838,0.21774 -0.52257,0.53709 -0.52257,0.95804c0,0.35564 0.1379,0.67136 0.4137,0.94716c0.28306,0.26854 0.68224,0.40281 1.19756,0.40281c0.54434,0 1.04877,-0.14879 1.51328,-0.44636c0.47176,-0.30483 0.76208,-0.66047 0.87095,-1.06691c0.10887,-0.4137 0.1633,-1.027 0.1633,-1.83988zM261.20479,176.65775v-0.33749c0,-0.44273 0.10887,-0.7766 0.32661,-1.00159c0.21774,-0.23225 0.49717,-0.34838 0.83829,-0.34838c0.37741,0 0.6641,0.13427 0.86006,0.40281c0.20322,0.26128 0.30483,0.8274 0.30483,1.69835v6.64099c0,1.97415 -0.41733,3.29872 -1.25199,3.97371c-0.8274,0.68224 -2.02496,1.02337 -3.59267,1.02337c-1.40804,0 -2.51124,-0.26128 -3.30961,-0.78385c-0.79111,-0.51531 -1.18667,-1.06328 -1.18667,-1.64392c0,-0.31209 0.10524,-0.56612 0.31572,-0.76208c0.21048,-0.18871 0.45725,-0.28306 0.74031,-0.28306c0.26128,0 0.46814,0.06169 0.62055,0.18508c0.15242,0.12338 0.4137,0.41733 0.78385,0.88184c0.37015,0.47176 0.99433,0.70765 1.87254,0.70765c0.47902,0 0.92538,-0.07621 1.33909,-0.22862c0.42096,-0.15242 0.72942,-0.42096 0.92538,-0.80563c0.19596,-0.38467 0.28669,-1.31731 0.27217,-2.79793c-0.75482,1.08869 -1.78908,1.63303 -3.10276,1.63303c-1.26288,0 -2.26084,-0.47176 -2.99389,-1.41529c-0.73305,-0.95079 -1.09957,-2.16286 -1.09957,-3.63622c0,-1.4661 0.37741,-2.63099 1.13223,-3.49469c0.75482,-0.86369 1.73464,-1.29554 2.93946,-1.29554c1.3282,0 2.41689,0.56249 3.26606,1.68747zM256.37102,179.95647c0,0.9653 0.20685,1.70198 0.62055,2.21004c0.42096,0.5008 0.99796,0.75119 1.73101,0.75119c0.6387,0 1.18667,-0.24314 1.64392,-0.72942c0.46451,-0.49354 0.69676,-1.22659 0.69676,-2.19915c0,-0.9653 -0.21411,-1.72738 -0.64233,-2.28624c-0.42096,-0.56612 -0.99796,-0.84918 -1.73101,-0.84918c-0.70402,0 -1.26651,0.26491 -1.68747,0.79474c-0.42096,0.52257 -0.63144,1.29191 -0.63144,2.30802zM272.46999,180.60968h-4.85555c0.02177,0.92176 0.27217,1.61852 0.75119,2.09028c0.47902,0.46451 1.05603,0.69676 1.73101,0.69676c0.8274,0 1.60763,-0.3629 2.34068,-1.08869c0.29757,-0.30483 0.51531,-0.49354 0.65321,-0.56612c0.14516,-0.07258 0.30483,-0.10887 0.47902,-0.10887c0.225,0 0.41733,0.07258 0.577,0.21774c0.15967,0.1379 0.23951,0.30846 0.23951,0.51168c0,0.55886 -0.38104,1.14675 -1.14312,1.76367c-0.76208,0.60966 -1.79271,0.9145 -3.09187,0.9145c-1.6548,0 -2.91042,-0.46814 -3.76686,-1.40441c-0.85643,-0.93627 -1.28465,-2.14471 -1.28465,-3.62533c0,-1.50239 0.42822,-2.71809 1.28465,-3.6471c0.85643,-0.92901 2.04673,-1.39352 3.57089,-1.39352c1.45158,0 2.57293,0.4391 3.36404,1.31731c0.79837,0.87821 1.19756,1.82899 1.19756,2.85236c0,0.45725 -0.13427,0.81652 -0.40281,1.0778c-0.26128,0.26128 -0.80926,0.39193 -1.64392,0.39193zM267.61444,179.20528h4.50717c-0.02903,-0.82014 -0.25766,-1.44433 -0.68587,-1.87254c-0.42096,-0.43547 -0.94353,-0.65321 -1.56771,-0.65321c-1.31368,0 -2.06488,0.84192 -2.25358,2.52575z" fill="#ffffff" stroke="none" stroke-width="1" stroke-linecap="square"/><path d="M167.92793,210.4695v-60.93899h144.14414v60.93899z" fill="none" stroke="none" stroke-width="none" stroke-linecap="butt"/></g></g></svg>