<svg version="1.1" xmlns="http://www.w3.org/2000/svg" xmlns:xlink="http://www.w3.org/1999/xlink" width="304.3003" height="304.30025" viewBox="0,0,304.3003,304.30025"><g transform="translate(-87.84985,-27.84987)"><g data-paper-data="{&quot;isPaintingLayer&quot;:true}" fill-rule="nonzero" stroke-linejoin="miter" stroke-miterlimit="10" stroke-dasharray="" stroke-dashoffset="0" style="mix-blend-mode: normal"><path d="M89.84985,270.23517c0,-59.99896 0,-148.11906 0,-181.81815c0,-26.16557 22.73163,-58.56714 54.69562,-58.56714c60.91162,0 155.35022,0 189.899,0c25.1397,0 55.70568,31.10369 55.70568,56.54696c0,34.37139 0,127.20919 0,187.87876c0,32.57375 -30.56593,55.87453 -55.70568,55.87453c-33.79375,0 -124.88841,0 -185.85858,0c-34.07175,0 -58.73599,-25.26921 -58.73599,-59.91496z" fill="#83a08b" stroke="#83a08b" stroke-width="4" stroke-linecap="butt"/><g><path d="M109.5868,222.90618c4.24268,-10.50386 14.41028,-29.418 34.78111,-37.70866c49.58167,-20.17907 140.65312,-21.47105 189.15018,-8.65295c27.41119,7.24496 35.1809,25.08832 37.36694,33.84775c0.7644,3.06296 -1.13548,5.02955 -4.71415,5.0865c-12.30888,0.19587 -43.51185,0.8957 -77.96417,3.2491c-46.32618,3.16449 -76.26374,12.14322 -122.74163,13.49947c-28.97509,0.96743 -39.57636,-3.94195 -50.9912,-3.9427c-4.59346,-0.00031 -6.67953,-0.94078 -4.88705,-5.37851z" fill="#85754d" stroke="#000000" stroke-width="15" stroke-linecap="butt"/><path d="M159.94859,209.70194c0,0 -4.22575,-0.6957 -9.67382,-3.80509c-1.74882,-0.99811 -4.43486,-4.0266 -4.43486,-4.0266" fill="none" stroke="#70563e" stroke-width="7" stroke-linecap="round"/><path d="M140.643,215.50578c0,0 -3.05084,0.07679 -4.44682,-0.04438c-1.24259,-0.10786 -3.52257,-0.64738 -3.52257,-0.64738" fill="none" stroke="#70563e" stroke-width="7" stroke-linecap="round"/><g stroke-linecap="butt"><path d="M159.82604,188.1485c3.21411,-9.9907 11.25396,-33.1536 19.00594,-40.93533c1.5651,-1.57111 8.23769,-13.51456 25.66995,-15.18207c21.24382,-4.46162 54.29175,-4.63786 74.17615,-4.24878c10.12705,0.19816 17.07785,6.1795 17.74801,13.26761c0.78241,8.27561 2.15371,18.52991 4.42239,24.10237c1.88744,4.63605 5.7103,10.2981 8.61159,14.26461c2.13397,2.91748 2.09482,6.15826 -1.2075,8.04707c-10.19394,5.83056 -35.89871,17.83815 -75.73764,18.5993c-34.8083,0.66503 -58.92991,-7.0244 -68.94875,-10.97908c-3.41759,-1.349 -4.66842,-4.05016 -3.74011,-6.93568z" fill="#85754d" stroke="#000000" stroke-width="15"/><path d="M159.82605,188.14849c3.21411,-9.9907 11.25396,-33.1536 19.00594,-40.93533c1.5651,-1.57111 25.66995,-15.18207 25.66995,-15.18207c0,0 9.50572,16.89348 12.1498,27.24675c0.67797,2.65467 -7.1049,6.23477 -7.57999,9.02435c-0.48989,2.87647 8.6074,4.06112 9.4673,7.27554c0.62402,2.33266 -8.61852,5.08577 -9.39697,7.79278c-0.90152,3.13505 6.5965,6.20509 6.77832,8.43773c0.15471,1.89969 -6.02426,6.33822 -5.80493,7.85821c0.81748,5.66524 8.28143,5.92613 8.28143,5.92613c0,0 -44.8119,-6.55372 -54.83074,-10.5084c-3.41759,-1.349 -4.66842,-4.05016 -3.74011,-6.93568z" fill="#6d4e3b" stroke="none" stroke-width="0"/><path d="M174.5722,142.31439c1.59458,-1.10676 12.6456,-11.54513 30.10346,-12.29681c21.32146,-2.69239 54.36085,-1.93489 74.23067,-1.1171c10.11961,0.4165 16.95358,4.97625 17.488,10.17678c0.62395,6.0718 -129.72006,8.71893 -121.82212,3.23713z" fill="#8a7b53" stroke="none" stroke-width="0"/><path d="M159.82604,188.1485c3.21411,-9.9907 11.25396,-33.1536 19.00594,-40.93534c1.5651,-1.57111 8.23769,-13.51456 25.66995,-15.18207c21.24382,-4.46162 54.29174,-4.63786 74.17614,-4.24877c10.12705,0.19816 17.07785,6.1795 17.748,13.2676c0.78241,8.27561 2.15371,18.52991 4.42238,24.10238c1.88744,4.63605 5.71031,10.2981 8.6116,14.26461c2.13397,2.91748 2.09483,6.15826 -1.20749,8.04707c-10.19394,5.83057 -35.89872,17.83815 -75.73764,18.59929c-34.8083,0.66503 -58.92992,-7.0244 -68.94876,-10.97908c-3.41759,-1.349 -4.66842,-4.05016 -3.74012,-6.93568z" fill="none" stroke="#000000" stroke-width="15"/></g></g></g></g></svg>