<svg version="1.1" xmlns="http://www.w3.org/2000/svg" xmlns:xlink="http://www.w3.org/1999/xlink" width="73.57357" height="81.08108" viewBox="0,0,73.57357,81.08108"><g transform="translate(-216.80884,-107.05987)"><g data-paper-data="{&quot;isPaintingLayer&quot;:true}" fill-rule="nonzero" stroke-linejoin="miter" stroke-miterlimit="10" stroke-dasharray="" stroke-dashoffset="0" style="mix-blend-mode: normal"><path d="M247.76271,132.87866c-1.86419,0.00834 -3.93828,-2.74959 -6.40618,-4.27091c-3.83994,-2.36709 -1.36483,-3.98332 0.49935,-3.99165c1.86419,-0.00834 4.73233,2.21326 6.40618,4.58035c1.67385,2.36709 1.36483,3.67387 -0.49935,3.68221z" fill="none" stroke="#000000" stroke-width="5" stroke-linecap="butt"/><path d="M244.27688,132.93681c11.46591,-13.94601 26.49159,1.92205 26.49159,1.92205v32.95558c0,0 -3.49089,5.5599 -6.04604,4.89867c-7.54013,-1.95125 -17.73674,-6.55542 -21.78665,-8.45181c-1.11455,-0.52189 -1.94561,-2.23263 -2.12921,-4.44548c-0.563,-6.78534 -1.14069,-21.27063 3.47031,-26.879z" fill="#7d1950" stroke="none" stroke-width="0" stroke-linecap="butt"/><path d="M243.47277,132.58622c2.23721,-3.23028 -0.00526,0.41079 2.33977,0.27019c5.47433,-0.32823 13.36678,2.82234 16.78005,4.32423c1.05124,0.46256 1.68147,1.59239 1.68597,2.55153c0.01883,4.01052 0.14635,31.16998 0.14635,31.16998c0,0 -2.76094,-0.34987 -4.7818,-0.97068c-5.96347,-1.83199 -14.02794,-6.15477 -17.231,-7.93525c-0.88149,-0.48999 -1.53878,-2.09617 -1.68399,-4.17379c-0.44528,-6.37064 -0.90217,-19.97061 2.74466,-25.23622z" fill="#a92b4b" stroke="none" stroke-width="0" stroke-linecap="butt"/><path d="M244.27688,132.93681c11.46591,-13.94601 26.49159,1.92205 26.49159,1.92205v32.95557c0,0 -3.49089,5.5599 -6.04604,4.89868c-7.54013,-1.95125 -17.73674,-6.55542 -21.78665,-8.45181c-1.11455,-0.52189 -1.9456,-2.23262 -2.12921,-4.44548c-0.563,-6.78534 -1.14069,-21.27063 3.47031,-26.879z" fill="none" stroke="#000000" stroke-width="3.5" stroke-linecap="butt"/><path d="M246.94143,138.4948l2.47554,8.20021" fill="none" stroke="#7d1952" stroke-width="1.5" stroke-linecap="round"/><path d="M261.79465,143.44587l-6.03412,3.86803" fill="none" stroke="#7d1952" stroke-width="1.5" stroke-linecap="round"/><path d="M259.62855,164.9521l-4.48691,-8.20021" fill="none" stroke="#7d1951" stroke-width="1.5" stroke-linecap="round"/><path d="M244.93006,160.61991l4.02275,-4.02275" fill="none" stroke="#7d1952" stroke-width="1.5" stroke-linecap="round"/><path d="M248.33392,154.89523c0,-1.26488 0,-4.32056 0,-6.49828c0,-1.25435 1.52154,-2.32081 2.63026,-2.32081c0.54799,0 1.46969,0.25198 2.34799,0.54156c1.18641,0.39116 2.29363,1.55178 2.29363,2.55286c0,1.96922 0,5.10018 0,6.34356c0,0.79642 -0.74785,1.70193 -1.70193,1.70193c-1.23042,0 -2.80384,0 -3.55858,0c-0.82857,0 -2.01138,-1.2982 -2.01138,-2.32081z" fill="none" stroke="#7d1952" stroke-width="1.5" stroke-linecap="butt"/><path d="M247.32824,130.44931c0,0 6.386,-0.20959 8.99293,0.59441c2.88351,0.88931 4.31307,4.20194 4.31307,4.20194" fill="none" stroke="#000000" stroke-width="2.5" stroke-linecap="round"/><path d="M258.47234,127.16078c2.88351,0.8893 4.31307,4.20194 4.31307,4.20194" fill="none" stroke="#000000" stroke-width="2.5" stroke-linecap="round"/><path d="M216.80884,188.14095v-81.08108h73.57357v81.08108z" fill="none" stroke="none" stroke-width="0" stroke-linecap="butt"/></g></g></svg>