<svg version="1.1" xmlns="http://www.w3.org/2000/svg" xmlns:xlink="http://www.w3.org/1999/xlink" width="111.2784" height="86.10386" viewBox="0,0,111.2784,86.10386"><g transform="translate(-187.95281,-133.76286)"><g data-paper-data="{&quot;isPaintingLayer&quot;:true}" fill-rule="nonzero" stroke-linecap="butt" stroke-linejoin="miter" stroke-miterlimit="10" stroke-dasharray="" stroke-dashoffset="0" style="mix-blend-mode: normal"><path d="" fill="#000000" stroke="none" stroke-width="1"/><path d="" fill="#000000" stroke="none" stroke-width="1"/><path d="" fill="#000000" stroke="none" stroke-width="1"/><path d="" fill="#000000" stroke="none" stroke-width="1"/><path d="" fill="#000000" stroke="none" stroke-width="1"/><path d="M256.4911,160.59168c0,0 -8.0265,1.06448 -12.02312,-0.23522c-5.17594,-1.68321 -17.06097,-8.37292 -17.06097,-8.37292c0,0 1.1016,-1.84767 6.1668,-4.81629c2.17868,-1.27688 5.67449,-2.43436 8.44139,-3.9107c4.57389,-2.4405 8.26727,-5.0855 8.91549,-5.6679c1.00044,-0.89887 1.55523,-0.28229 1.58502,0.36192c0.03333,0.721 0.25524,1.54902 0.25524,1.54902c0,0 6.71031,-1.31261 12.47664,-1.84964c2.22957,-0.20764 4.31802,-0.29933 5.82288,-0.15437c0.93302,0.08989 2.75764,0.20436 0.39776,1.86858c-1.8757,1.32277 -3.65863,0.42847 -9.7167,4.79292c-1.64197,1.18294 -1.35584,2.3229 -2.79838,3.678c-0.23935,0.22485 2.63902,-2.1433 5.32634,-4.13226c3.2392,-2.39742 -1.38284,2.95487 -4.83039,8.39803c-1.65901,2.61936 -2.958,8.49082 -2.958,8.49082z" fill="#c92200" stroke="#000000" stroke-width="7.5"/><path d="M255.94385,160.59758c0,0 -7.87209,1.04918 -11.7918,-0.23183c-5.07634,-1.65902 -15.33389,-8.24333 -15.33389,-8.24333c0,0 1.3671,-3.16214 10.31938,-7.04751c5.65532,-2.45447 9.43842,-5.42103 11.35289,-7.14966c0.98119,-0.88596 1.52532,-0.27825 1.55451,0.35672c0.03269,0.71063 0.25034,1.52676 0.25034,1.52676c0,0 12.65439,-2.48763 17.94744,-1.9752c0.91508,0.08859 -9.29593,8.07837 -6.66032,6.118c3.17687,-2.36294 -1.35623,2.9124 -4.73745,8.2773c-1.6271,2.58169 -2.9011,8.36875 -2.9011,8.36875z" fill="#c92200" stroke="#000000" stroke-width="7.5"/><path d="M265.41436,188.4742c-1.4177,-4.80797 -7.64272,-25.91933 -7.64272,-25.91933c0,0 1.52138,-7.12869 4.95676,-12.24941c2.72058,-4.05523 6.34501,-6.08283 8.45704,-6.98347c1.0543,-0.4496 1.48661,0.0299 1.12516,1.09246c-0.37538,1.10351 -2.45863,4.48253 -2.50323,11.42985c-0.03118,4.85847 0.60835,9.88633 1.21156,16.03465c0.16473,1.67907 0.41865,-2.97474 1.17782,-6.29069c0.23227,-1.01449 1.01228,-2.32061 1.35284,-2.86348c0.34921,-0.55666 0.20605,0.48874 0.149,1.4284c-0.09163,1.50917 0.64089,4.55188 0.58067,11.6939c0.03556,6.77439 -2.37341,11.11867 -4.51082,13.63607c-1.69443,1.99565 -3.80753,0.8446 -4.35409,-1.00893z" fill="#c92200" stroke="#000000" stroke-width="7.5"/><path d="M213.98679,188.74666c0,0 -7.32213,-7.30682 -5.88632,-27.48379c0.73443,-10.32072 9.88704,-15.10245 11.14349,-16.12115c0.94334,-0.76481 1.22776,0.06147 0.6261,1.29332c-1.00762,2.06299 -2.4511,5.01838 -2.96442,6.06936c-0.36231,0.74181 -0.053,0.60759 1.12099,-0.79113c2.3699,-2.82354 6.54643,-7.28459 10.16623,-8.48843c6.95422,-2.31281 17.07449,-3.61252 17.07449,-3.61252z" fill="#c92200" stroke="#000000" stroke-width="7.5"/><path d="M213.98678,188.74666c0,0 -3.35656,-11.54682 -4.15286,-14.28623c-0.32152,-1.10607 -0.76279,-3.09958 -0.83491,-4.3601c-0.19405,-3.39135 -0.28938,-10.32896 1.65002,-15.3465c1.07913,-2.79188 5.99591,-7.50491 8.59493,-9.6121c0.94334,-0.76481 1.22776,0.06147 0.6261,1.29332c-1.00762,2.06299 -2.4511,5.01838 -2.96443,6.06936c-0.36232,0.74181 -0.053,0.60759 1.121,-0.79114c2.3699,-2.82354 6.54643,-7.28458 10.16623,-8.48843c6.95422,-2.31281 17.07449,-3.61253 17.07449,-3.61253z" fill="#c92200" stroke="#000000" stroke-width="2.5"/><path d="M213.98679,188.74666c0,0 -7.32213,-7.30682 -5.88632,-27.48379c0.73443,-10.32072 9.88704,-15.10245 11.14349,-16.12115c0.94334,-0.76481 1.22776,0.06147 0.6261,1.29332c-1.00762,2.06299 -2.4511,5.01838 -2.96442,6.06936c-0.36231,0.74181 -0.053,0.60759 1.12099,-0.79113c2.3699,-2.82354 6.54643,-7.28459 10.16623,-8.48843c6.95422,-2.31281 17.07449,-3.61252 17.07449,-3.61252z" fill="#c92200" stroke="#ffffff" stroke-width="4"/><path d="M213.98679,188.74666c0,0 -7.32213,-7.30682 -5.88632,-27.48379c0.73443,-10.32072 9.88704,-15.10245 11.14349,-16.12115c0.94334,-0.76481 1.22776,0.06147 0.6261,1.29332c-1.00762,2.06299 -2.4511,5.01838 -2.96442,6.06936c-0.36231,0.74181 -0.053,0.60759 1.12099,-0.79113c2.3699,-2.82354 6.54643,-7.28459 10.16623,-8.48843c6.95422,-2.31281 17.07449,-3.61252 17.07449,-3.61252z" fill="#c92200" stroke="none" stroke-width="0"/><path d="M256.49111,160.59168c0,0 -8.0265,1.06448 -12.02312,-0.23522c-5.17594,-1.68321 -17.06096,-8.37292 -17.06096,-8.37292c0,0 1.1016,-1.84767 6.1668,-4.81629c2.17868,-1.27688 5.67449,-2.43436 8.44139,-3.9107c4.57389,-2.4405 8.26727,-5.0855 8.91549,-5.6679c1.00044,-0.89887 1.55521,-0.28229 1.58501,0.36192c0.03333,0.721 0.25525,1.54902 0.25525,1.54902c0,0 6.7103,-1.31261 12.47664,-1.84964c2.22957,-0.20764 4.31802,-0.29933 5.82288,-0.15437c0.93302,0.08989 2.75764,0.20436 0.39776,1.86858c-1.8757,1.32277 -3.65863,0.42847 -9.7167,4.79292c-1.64197,1.18294 -1.35584,2.3229 -2.79838,3.678c-0.23935,0.22485 2.63902,-2.1433 5.32634,-4.13226c3.2392,-2.39742 -1.38283,2.95487 -4.83038,8.39803c-1.65901,2.61936 -2.958,8.49082 -2.958,8.49082z" fill="#c92200" stroke="#ffffff" stroke-width="3.5"/><path d="M255.94388,160.59754c0,0 -7.87209,1.04918 -11.7918,-0.23183c-5.07634,-1.65902 -15.33389,-8.24333 -15.33389,-8.24333c0,0 1.3671,-3.16214 10.31937,-7.04752c5.65532,-2.45447 9.43842,-5.42103 11.35288,-7.14966c0.98119,-0.88596 1.52532,-0.27823 1.55451,0.35672c0.03269,0.71063 0.25034,1.52675 0.25034,1.52675c0,0 12.65439,-2.48763 17.94744,-1.9752c0.91508,0.08859 2.70458,0.20142 0.39011,1.84172c-1.83962,1.30375 -3.58825,0.42231 -9.52975,4.72401c-1.61038,1.16593 -1.32976,2.28951 -2.74454,3.62512c-0.23476,0.22162 2.58826,-2.11249 5.22387,-4.07285c3.17687,-2.36294 5.77127,-2.10231 5.77127,-2.10231c0,0 -7.12751,5.01471 -10.50872,10.37961c-1.6271,2.58169 -2.90109,8.36875 -2.90109,8.36875z" fill="#c92200" stroke="none" stroke-width="0"/><path d="M262.7284,150.30546c2.02221,-3.01426 4.13534,-5.72515 6.16401,-6.86876c0.70062,-0.39494 1.75088,0.11649 2.29303,-0.11471c1.0543,-0.4496 1.74318,-0.0984 1.38173,0.96417c-0.37538,1.10351 -2.58691,4.61083 -2.63151,11.55814c-0.03118,4.85847 0.48005,9.88631 1.08326,16.03464c0.16473,1.67907 0.41866,-2.97474 1.17783,-6.29069c0.23227,-1.01449 1.14055,-3.60348 1.48112,-4.14636c0.28198,-0.4495 1.0794,-0.0217 1.00821,1.53248c-0.01698,0.37055 -0.22012,2.47477 -0.17241,3.43113c0.10634,2.13237 0.32028,5.53724 0.27872,10.46786c0.03858,7.35044 -2.98872,11.79292 -5.38489,14.1549c-1.56289,1.5406 -3.42229,0.2221 -3.95222,-1.62925c-1.40377,-4.90433 -7.68364,-26.84414 -7.68364,-26.84414c0,0 1.52138,-7.12868 4.95676,-12.2494z" fill="#c92200" stroke="#ffffff" stroke-width="3.5"/><path d="M266.55022,192.32635l-8.77858,-29.77148c0,0 1.52138,-7.12869 4.95676,-12.24941c2.72058,-4.05523 6.34501,-6.08283 8.45704,-6.98347c1.0543,-0.4496 1.48661,0.0299 1.12516,1.09246c-0.37538,1.10351 -2.45863,4.48253 -2.50323,11.42985c-0.03118,4.85847 0.60835,9.88633 1.21156,16.03465c0.16473,1.67907 0.41865,-2.97474 1.17782,-6.29069c0.23227,-1.01449 1.01226,-2.32061 1.35283,-2.86348c0.34921,-0.55666 0.20605,0.48874 0.149,1.4284c-0.09163,1.50917 0.64089,4.55188 0.58067,11.6939c0.06375,12.14475 -7.72902,16.47929 -7.72902,16.47929z" fill="#c92200" stroke="none" stroke-width="0"/><g stroke="#000000" stroke-width="5"><path d="M243.50256,163.51835c0,0 4.42479,-4.00997 5.83543,-5.28836c0.8025,-0.72726 2.15574,-1.11072 2.99474,-0.4725c4.88171,3.71353 15.24779,21.58015 16.16319,28.65778c1.66161,12.84715 -6.64891,19.58495 -6.64891,19.58495z" fill="#373948"/><path d="M208.32736,211.45896c0,0 0.73153,-7.68634 -0.41402,-18.68152c-1.3623,-13.07547 -4.25075,-31.35492 9.19561,-36.4586c35.91333,-13.6312 50.03455,54.32323 50.03455,54.32323z" fill="#36394c"/><path d="M218.05964,211.45896c0,0 0.51906,-6.80428 -0.29376,-16.53766c-0.62813,-7.52192 -10.03698,-19.06274 -7.77462,-27.39877c1.66129,-6.12132 5.45638,-8.43611 8.50501,-10.08502c3.6969,-1.99955 9.9057,-1.98767 11.8568,-1.71685c22.42763,3.1129 29.43842,55.01518 29.43842,55.01518z" fill="#505b5f"/><path d="M213.25366,183.25627c-0.86773,-2.46811 -1.65875,-4.97295 -1.65875,-5.9025c0,-1.20307 1.65771,-2.8303 3.87711,-2.92909c2.67793,-0.11921 6.17359,-0.42422 8.56161,-1.18985c2.90488,-0.93133 7.94639,-3.66282 11.20513,-5.51199c1.83832,-1.04316 3.65801,-0.34945 4.35645,1.50412c0.8927,2.36906 2.03004,5.38741 2.5792,6.84483c0.60948,1.61747 0.52686,4.59234 -0.95238,5.51384c-3.22728,2.01049 -8.94227,5.28734 -12.6382,5.7864c-4.01879,0.54265 -6.80553,0.92428 -8.73792,1.1926c-4.36354,0.60589 -5.53813,-2.31006 -6.59226,-5.30836z" fill="#9a9ea9"/><path d="M213.25366,183.25627c-0.86774,-2.46811 -1.65874,-4.97295 -1.65874,-5.9025c0,-1.20307 1.65773,-2.8303 3.87712,-2.92909c2.67793,-0.11921 6.17358,-0.42422 8.56162,-1.18985c2.90488,-0.93133 7.94639,-3.66284 11.20513,-5.51199c1.83834,-1.04316 3.65798,-0.34944 4.35644,1.50414c0.8927,2.36906 2.03004,5.38741 2.5792,6.84483c0.60948,1.61747 0.52686,4.59234 -0.95238,5.51385c-3.22728,2.01049 -8.94227,5.28733 -12.63819,5.78639c-4.0188,0.54265 -6.80553,0.92428 -8.73793,1.19259c-4.36354,0.60589 -5.53813,-2.31006 -6.59226,-5.30836z" fill="#9a9ea9"/></g><g><path d="M243.50257,163.51835c0,0 4.42479,-4.00997 5.83543,-5.28836c0.8025,-0.72726 2.15574,-1.11072 2.99473,-0.4725c4.88171,3.71353 15.24779,21.58015 16.16319,28.65778c1.66161,12.84715 -6.64891,19.58495 -6.64891,19.58495z" fill="#373948" stroke="none" stroke-width="0"/><path d="M208.32737,211.45896c0,0 0.73154,-7.68634 -0.41402,-18.68152c-1.3623,-13.07547 -4.25075,-31.35492 9.19561,-36.4586c35.91333,-13.6312 50.03455,54.32323 50.03455,54.32323z" fill="#36394c" stroke="none" stroke-width="0"/><path d="M218.05965,211.45894c0,0 0.51906,-6.80428 -0.29376,-16.53766c-0.62813,-7.52192 -10.03698,-19.06274 -7.77462,-27.39877c1.66129,-6.12132 5.45638,-8.43612 8.50501,-10.08503c3.6969,-1.99955 9.9057,-1.98767 11.8568,-1.71685c22.42763,3.1129 29.43842,55.01518 29.43842,55.01518z" fill="#505b5f" stroke="none" stroke-width="0"/><path d="M213.25368,183.25626c-0.86773,-2.46811 -1.65875,-4.97295 -1.65875,-5.9025c0,-1.20307 1.65773,-2.8303 3.87712,-2.92909c2.67793,-0.11921 6.17359,-0.42422 8.56161,-1.18985c2.90488,-0.93133 7.94639,-3.66282 11.20513,-5.51199c1.83832,-1.04316 3.65801,-0.34945 4.35645,1.50412c0.8927,2.36906 2.03004,5.38741 2.5792,6.84483c0.60948,1.61747 0.52686,4.59234 -0.95238,5.51385c-3.22728,2.01049 -8.94227,5.28733 -12.6382,5.78639c-4.01879,0.54265 -6.80553,0.92428 -8.73792,1.1926c-4.36354,0.60589 -5.53813,-2.31006 -6.59226,-5.30836z" fill="#9a9ea9" stroke="#35394b" stroke-width="5"/><path d="M213.25368,183.25626c-0.86774,-2.46811 -1.65874,-4.97295 -1.65874,-5.9025c0,-1.20307 1.65773,-2.8303 3.87712,-2.92909c2.67793,-0.11921 6.17358,-0.42422 8.56161,-1.18985c2.90488,-0.93133 7.94638,-3.66284 11.20513,-5.51199c1.83834,-1.04316 3.65799,-0.34944 4.35644,1.50414c0.8927,2.36906 2.03004,5.38741 2.57922,6.84483c0.60948,1.61747 0.52686,4.59234 -0.95238,5.51384c-3.22728,2.01049 -8.94227,5.28734 -12.63819,5.7864c-4.0188,0.54265 -6.80553,0.92428 -8.73793,1.19259c-4.36354,0.60589 -5.53813,-2.31006 -6.59226,-5.30835z" fill="#9a9ea9" stroke="none" stroke-width="0"/></g><g stroke-width="7.5"><path d="M218.9972,209.84583v0.2877c0,1.09089 -0.47352,1.63634 -1.42054,1.63634c-0.35963,0 -0.66532,-0.08991 -0.91707,-0.26973c-0.25175,-0.1918 -0.40159,-0.41957 -0.44953,-0.6833c-0.04794,-0.27572 -0.07193,-0.70728 -0.07193,-1.29468v-11.27445c0,-0.64734 0.02997,-1.12086 0.08992,-1.42055c0.07193,-0.2997 0.23374,-0.53345 0.4855,-0.70128c0.26372,-0.16783 0.54543,-0.25175 0.84513,-0.25175c0.43156,0 0.77921,0.12586 1.04294,0.3776c0.26372,0.25175 0.39559,0.88709 0.39559,1.90605v3.72219c1.06691,-1.17479 2.31963,-1.7622 3.75815,-1.7622c1.48648,0 2.64929,0.53346 3.48842,1.60036c0.85114,1.05491 1.27671,2.40954 1.27671,4.06383c0,1.76218 -0.43156,3.20072 -1.29468,4.31558c-0.86311,1.11486 -2.03191,1.67229 -3.50641,1.67229c-1.48648,0 -2.72721,-0.64136 -3.72219,-1.92404zM219.14105,206.06969c0,1.10288 0.26372,1.96598 0.79119,2.58934c0.53945,0.61137 1.21676,0.91706 2.03193,0.91706c0.6833,0 1.29467,-0.2937 1.83413,-0.88109c0.55145,-0.59939 0.82715,-1.54042 0.82715,-2.8231c0,-1.11486 -0.24573,-1.98397 -0.73725,-2.60733c-0.4915,-0.63536 -1.12685,-0.95303 -1.90605,-0.95303c-0.86311,0 -1.55242,0.34165 -2.06789,1.02496c-0.51547,0.67132 -0.7732,1.58237 -0.7732,2.7332z" fill="#000000" stroke="#000000"/><path d="M234.8075,200.11778c1.77417,0 3.17074,0.55142 4.18971,1.65429c1.01897,1.09088 1.52844,2.48145 1.52844,4.17173c0,1.70227 -0.51547,3.09882 -1.54641,4.18971c-1.03095,1.09089 -2.39754,1.63633 -4.0998,1.63633c-1.84609,0 -3.27264,-0.55145 -4.2796,-1.65431c-0.99499,-1.11486 -1.49248,-2.50543 -1.49248,-4.17172c0,-1.70227 0.50947,-3.09883 1.52844,-4.18972c1.01897,-1.09089 2.40955,-1.63633 4.17173,-1.63633zM234.8075,209.63004c0.8751,0 1.56439,-0.32366 2.06788,-0.971c0.50348,-0.65932 0.75522,-1.56439 0.75522,-2.71521c0,-1.16281 -0.25175,-2.06788 -0.75522,-2.71521c-0.50348,-0.65932 -1.19277,-0.98898 -2.06788,-0.98898c-0.85114,0 -1.53443,0.32967 -2.04989,0.98898c-0.50348,0.65932 -0.75524,1.56439 -0.75524,2.71521c0,1.16281 0.25174,2.06788 0.75524,2.71521c0.51547,0.64734 1.19876,0.971 2.04989,0.971z" fill="#000000" stroke="#000000"/><path d="M211.14339,210.15151c-1.3546,1.07889 -2.68525,1.61835 -3.99192,1.61835c-1.23474,0 -2.18776,-0.31169 -2.85908,-0.93505c-0.65932,-0.63536 -0.98898,-1.40857 -0.98898,-2.31963c0,-0.7792 0.22177,-1.40856 0.66532,-1.88806c0.45554,-0.4795 0.94703,-0.80917 1.47449,-0.98899c0.53945,-0.1918 1.40856,-0.41357 2.60734,-0.66531c1.19877,-0.25175 2.16379,-0.47951 2.89504,-0.68331c-0.01198,-0.86311 -0.18581,-1.44453 -0.52146,-1.74422c-0.33566,-0.31169 -0.84513,-0.46752 -1.52844,-0.46752c-1.29467,0 -2.1458,0.36562 -2.55338,1.09687c-0.21578,0.40758 -0.41358,0.70128 -0.59339,0.88111c-0.16783,0.16783 -0.41957,0.25174 -0.75522,0.25174c-0.2997,0 -0.57541,-0.09591 -0.82715,-0.28771c-0.23977,-0.2038 -0.35963,-0.46153 -0.35963,-0.77321c0,-0.74323 0.4016,-1.45051 1.20477,-2.12183c0.80318,-0.67132 2.06788,-1.00696 3.79412,-1.00696c1.75021,0 3.0269,0.30567 3.83007,0.91705c0.81517,0.59939 1.19877,1.82214 1.15082,3.66825l-0.05393,2.67926c-0.02398,0.82715 0.05993,1.50445 0.25173,2.03191c0.2038,0.52747 0.30569,0.92904 0.30569,1.20475c0,0.2997 -0.13787,0.56941 -0.41359,0.80917c-0.26372,0.22776 -0.55743,0.34166 -0.8811,0.34166c-0.58739,0 -1.20476,-0.53945 -1.85211,-1.61835zM210.96357,206.01575c-0.43156,0.15584 -1.13882,0.33566 -2.12181,0.53945c-0.97099,0.1918 -1.6663,0.41358 -2.08587,0.66532c-0.40758,0.25175 -0.61137,0.61737 -0.61137,1.09688c0,0.41957 0.16184,0.7852 0.4855,1.09688c0.33566,0.31169 0.79719,0.46752 1.38458,0.46752c0.63536,0 1.22274,-0.17382 1.76219,-0.52146c0.53945,-0.34764 0.86912,-0.75523 0.98898,-1.22274c0.13186,-0.4795 0.19779,-1.18679 0.19779,-2.12183z" fill="#000000" stroke="#000000"/><path d="M194.45398,203.10273c0,0.37161 0.1918,0.66532 0.57541,0.8811c0.38361,0.2038 1.24071,0.46753 2.57135,0.79119c2.60133,0.63536 3.90202,1.71425 3.90202,3.23667c0,1.21076 -0.43755,2.1398 -1.31265,2.78714c-0.8751,0.64734 -2.09785,0.97101 -3.66824,0.97101c-1.59437,0 -2.79912,-0.32967 -3.61429,-0.98899c-0.80318,-0.65932 -1.20477,-1.3546 -1.20477,-2.08586c0,-0.31169 0.10789,-0.58141 0.32367,-0.80917c0.22776,-0.22776 0.50948,-0.34164 0.84513,-0.34164c0.44355,0 0.83315,0.28171 1.16881,0.84513c0.38361,0.61137 0.79719,1.01897 1.24073,1.22275c0.45554,0.1918 0.94702,0.2877 1.47449,0.2877c0.56342,0 1.02495,-0.12588 1.38459,-0.37761c0.35963,-0.25175 0.53945,-0.5754 0.53945,-0.97099c0,-0.35963 -0.14984,-0.66532 -0.44954,-0.91707c-0.2997,-0.26372 -1.13284,-0.55145 -2.49943,-0.86311c-1.3546,-0.31169 -2.3436,-0.74922 -2.96696,-1.31265c-0.62336,-0.56342 -0.93505,-1.23474 -0.93505,-2.01394c0,-0.8751 0.37761,-1.6483 1.13285,-2.31961c0.76722,-0.67132 1.90605,-1.00697 3.4165,-1.00697c1.39058,0 2.49944,0.2877 3.32661,0.86311c0.82715,0.56342 1.24073,1.15082 1.24073,1.76219c0,0.31169 -0.1079,0.58141 -0.32368,0.80917c-0.2038,0.21578 -0.4915,0.32367 -0.8631,0.32367c-0.55145,0 -1.04893,-0.31768 -1.49247,-0.95302c-0.44355,-0.63536 -1.11486,-0.95302 -2.01394,-0.95302c-0.4795,0 -0.89908,0.10191 -1.25871,0.30569c-0.35963,0.1918 -0.53945,0.46751 -0.53945,0.82714z" fill="#000000" stroke="#000000"/><path d="M270.31831,202.18099v-0.3956c0,-0.51547 0.12587,-0.90507 0.37761,-1.1688c0.26372,-0.26372 0.59339,-0.39558 0.98898,-0.39558c0.43156,0 0.76123,0.15583 0.98899,0.46752c0.23976,0.2997 0.35963,0.95303 0.35963,1.95999v7.67813c0,2.28965 -0.4855,3.82408 -1.4565,4.60328c-0.95902,0.79119 -2.34359,1.18679 -4.15375,1.18679c-1.63033,0 -2.90702,-0.30569 -3.83008,-0.91707c-0.91107,-0.59939 -1.3666,-1.23473 -1.3666,-1.90604c0,-0.35963 0.11987,-0.65335 0.35963,-0.88111c0.23976,-0.21578 0.52747,-0.32366 0.86311,-0.32366c0.29969,0 0.53945,0.07193 0.71927,0.21579c0.17981,0.14384 0.47951,0.4855 0.89908,1.02495c0.43156,0.53945 1.15082,0.80917 2.15778,0.80917c0.56342,0 1.08488,-0.08991 1.56439,-0.26972c0.47951,-0.16783 0.83315,-0.47351 1.06091,-0.91706c0.22776,-0.44355 0.33566,-1.52242 0.32368,-3.23668c-0.8751,1.25871 -2.07387,1.88806 -3.59631,1.88806c-1.46251,0 -2.61932,-0.54543 -3.47045,-1.63631c-0.83914,-1.09088 -1.25871,-2.49344 -1.25871,-4.20768c0,-1.69027 0.43155,-3.0329 1.29467,-4.02787c0.8751,-1.00697 2.01394,-1.51045 3.4165,-1.51045c1.53443,0 2.78715,0.65333 3.75814,1.95999zM264.74402,205.9931c0,1.11486 0.23976,1.96598 0.71927,2.55337c0.49149,0.57541 1.15681,0.86312 1.99595,0.86312c0.73125,0 1.36659,-0.2817 1.90604,-0.84513c0.53945,-0.56342 0.80917,-1.40856 0.80917,-2.53541c0,-1.11486 -0.25175,-1.99595 -0.75522,-2.64329c-0.49149,-0.64734 -1.15681,-0.971 -1.99595,-0.971c-0.81516,0 -1.46848,0.30568 -1.95999,0.91706c-0.47951,0.59939 -0.71927,1.48649 -0.71927,2.66128z" fill="#000000" stroke="#000000"/><path d="M257.23186,210.25473c-1.3546,1.07889 -2.68524,1.61835 -3.9919,1.61835c-1.23474,0 -2.18776,-0.31168 -2.85908,-0.93505c-0.65932,-0.63536 -0.98898,-1.40855 -0.98898,-2.31962c0,-0.7792 0.22177,-1.40855 0.66532,-1.88807c0.45554,-0.4795 0.94702,-0.80917 1.47449,-0.98899c0.53945,-0.1918 1.40856,-0.41357 2.60732,-0.66531c1.19878,-0.25175 2.16379,-0.47951 2.89504,-0.68331c-0.01198,-0.86311 -0.18581,-1.44453 -0.52147,-1.74422c-0.33565,-0.31169 -0.84513,-0.46752 -1.52844,-0.46752c-1.29467,0 -2.1458,0.36563 -2.55338,1.09688c-0.21578,0.40758 -0.41358,0.70127 -0.5934,0.88109c-0.16783,0.16783 -0.41957,0.25175 -0.75522,0.25175c-0.2997,0 -0.5754,-0.0959 -0.82714,-0.2877c-0.23977,-0.2038 -0.35963,-0.46153 -0.35963,-0.77322c0,-0.74323 0.40159,-1.4505 1.20476,-2.12181c0.80318,-0.67132 2.06788,-1.00697 3.79412,-1.00697c1.75021,0 3.02691,0.30569 3.83009,0.91707c0.81516,0.59939 1.19876,1.82214 1.15082,3.66825l-0.05394,2.67925c-0.02398,0.82715 0.05993,1.50446 0.25175,2.03191c0.2038,0.52747 0.30569,0.92904 0.30569,1.20476c0,0.2997 -0.13785,0.56942 -0.41358,0.80917c-0.26372,0.22776 -0.55744,0.34165 -0.8811,0.34165c-0.58739,0 -1.20476,-0.53945 -1.85212,-1.61835zM257.05205,206.11898c-0.43156,0.15584 -1.13884,0.33565 -2.12184,0.53945c-0.97099,0.1918 -1.66629,0.41358 -2.08585,0.66532c-0.40758,0.25175 -0.61138,0.61737 -0.61138,1.09687c0,0.41957 0.16184,0.78519 0.4855,1.09687c0.33566,0.31169 0.7972,0.46753 1.3846,0.46753c0.63536,0 1.22274,-0.17382 1.76219,-0.52147c0.53945,-0.34764 0.86911,-0.75523 0.98898,-1.22274c0.13186,-0.4795 0.1978,-1.18677 0.1978,-2.12183z" fill="#000000" stroke="#000000"/><path d="M283.34596,206.74832h-5.61024c0.02398,1.06691 0.31168,1.87008 0.8631,2.40955c0.56342,0.53945 1.23473,0.80917 2.01394,0.80917c0.95902,0 1.8581,-0.41958 2.69724,-1.25871c0.34765,-0.34764 0.59938,-0.56342 0.75522,-0.64733c0.16784,-0.08391 0.35364,-0.12587 0.55744,-0.12587c0.26373,0 0.4855,0.08391 0.66532,0.25173c0.17981,0.15584 0.26972,0.35363 0.26972,0.59339c0,0.63536 -0.43755,1.31266 -1.31264,2.03191c-0.8751,0.70728 -2.06789,1.06092 -3.57834,1.06092c-1.91803,0 -3.37454,-0.53945 -4.36953,-1.61835c-0.983,-1.09089 -1.47449,-2.49344 -1.47449,-4.20768c0,-1.73821 0.49149,-3.14079 1.47449,-4.20769c0.99499,-1.07889 2.37357,-1.61835 4.13575,-1.61835c1.69027,0 2.99095,0.50947 3.90201,1.52844c0.92306,1.01897 1.38457,2.12183 1.38457,3.30861c0,0.51547 -0.15584,0.92903 -0.46753,1.24072c-0.29969,0.2997 -0.93505,0.44955 -1.90605,0.44955zM277.73572,205.12998h5.21465c-0.03596,-0.95901 -0.29969,-1.68427 -0.79118,-2.17577c-0.49149,-0.50348 -1.09688,-0.75523 -1.81614,-0.75523c-1.51045,0 -2.37957,0.97699 -2.60733,2.93099z" fill="#000000" stroke="#000000"/><path d="M242.8703,200.47275v-1.70825c0,-0.70728 0.02997,-1.18679 0.08992,-1.43852c0.05993,-0.26372 0.21578,-0.4915 0.46752,-0.6833c0.25175,-0.2038 0.54543,-0.30569 0.8811,-0.30569c0.2997,0 0.57541,0.08992 0.82715,0.26973c0.25175,0.17981 0.41358,0.4016 0.4855,0.66532c0.08391,0.26372 0.12587,0.68331 0.12587,1.25871v1.94201h0.55743c0.69529,0 1.15682,0.08991 1.38458,0.26973c0.22776,0.16783 0.34165,0.41358 0.34165,0.73725c0,0.70728 -0.58739,1.06091 -1.76218,1.06091h-0.52146v5.28659c0,0.71926 0.04794,1.21075 0.14385,1.47448c0.10789,0.25175 0.37761,0.37761 0.80917,0.37761c0.21578,0 0.44954,-0.02996 0.70129,-0.08991c0.26372,-0.05993 0.46153,-0.08992 0.59339,-0.08992c0.2877,0 0.52147,0.09591 0.70128,0.28771c0.17981,0.17981 0.26972,0.40159 0.26972,0.66532c0,0.94703 -0.98899,1.42054 -2.96696,1.42054c-0.95901,0 -1.6663,-0.17981 -2.12183,-0.53945c-0.44355,-0.35963 -0.72526,-0.79118 -0.84513,-1.29467c-0.10789,-0.51547 -0.16184,-1.18078 -0.16184,-1.99595v-5.50237h-0.37761c-0.83913,0 -1.25871,-0.34165 -1.25871,-1.02495c0,-0.69529 0.44355,-1.04293 1.33063,-1.04293z" fill="#000000" stroke="#000000"/><path d="M218.9972,209.84583v0.2877c0,1.09089 -0.47351,1.63634 -1.42055,1.63634c-0.35963,0 -0.66532,-0.08991 -0.91706,-0.26973c-0.25175,-0.1918 -0.4016,-0.41957 -0.44955,-0.6833c-0.04794,-0.27572 -0.07193,-0.70728 -0.07193,-1.29468v-11.27445c0,-0.64734 0.02997,-1.12085 0.08991,-1.42055c0.07193,-0.2997 0.23376,-0.53345 0.4855,-0.70128c0.26373,-0.16783 0.54544,-0.25175 0.84513,-0.25175c0.43156,0 0.77919,0.12587 1.04292,0.37761c0.26373,0.25175 0.39559,0.8871 0.39559,1.90605v3.72218c1.0669,-1.17479 2.31962,-1.7622 3.75815,-1.7622c1.48648,0 2.64929,0.53346 3.48843,1.60036c0.85114,1.05492 1.27669,2.40953 1.27669,4.06383c0,1.76218 -0.43156,3.20073 -1.29468,4.31558c-0.86311,1.11486 -2.03192,1.67229 -3.5064,1.67229c-1.48648,0 -2.72721,-0.64135 -3.7222,-1.92404zM219.14105,206.06969c0,1.10288 0.26373,1.96598 0.79119,2.58934c0.53945,0.61137 1.21676,0.91706 2.03193,0.91706c0.6833,0 1.29467,-0.29369 1.83413,-0.88108c0.55145,-0.59939 0.82714,-1.54044 0.82714,-2.82312c0,-1.11486 -0.24572,-1.98397 -0.73723,-2.60732c-0.4915,-0.63536 -1.12685,-0.95303 -1.90605,-0.95303c-0.86311,0 -1.55243,0.34166 -2.06789,1.02496c-0.51547,0.67131 -0.7732,1.58239 -0.7732,2.7332z" fill="#ffffff" stroke="none"/><path d="M234.80749,200.11778c1.77418,0 3.17074,0.55142 4.18971,1.65429c1.01897,1.09088 1.52844,2.48146 1.52844,4.17173c0,1.70227 -0.51548,3.09882 -1.54642,4.18971c-1.03095,1.09089 -2.39754,1.63634 -4.0998,1.63634c-1.8461,0 -3.27266,-0.55145 -4.27962,-1.65431c-0.99499,-1.11486 -1.49248,-2.50544 -1.49248,-4.17172c0,-1.70226 0.50947,-3.09882 1.52844,-4.18971c1.01897,-1.09088 2.40953,-1.63631 4.17173,-1.63631zM234.80749,209.63005c0.8751,0 1.5644,-0.32367 2.06788,-0.971c0.50348,-0.65933 0.75522,-1.5644 0.75522,-2.71521c0,-1.1628 -0.25174,-2.06788 -0.75522,-2.71521c-0.50348,-0.65933 -1.19278,-0.98899 -2.06788,-0.98899c-0.85114,0 -1.53444,0.32966 -2.0499,0.98899c-0.50348,0.65933 -0.75522,1.56439 -0.75522,2.71521c0,1.1628 0.25173,2.06788 0.75522,2.71521c0.51547,0.64734 1.19876,0.971 2.0499,0.971z" fill="#ffffff" stroke="none"/><path d="M211.14339,210.15152c-1.3546,1.07889 -2.68525,1.61835 -3.99191,1.61835c-1.23474,0 -2.18775,-0.31169 -2.85907,-0.93505c-0.65933,-0.63536 -0.98899,-1.40857 -0.98899,-2.31964c0,-0.7792 0.22177,-1.40855 0.66532,-1.88806c0.45554,-0.4795 0.94703,-0.80916 1.47449,-0.98898c0.53945,-0.1918 1.40857,-0.41358 2.60734,-0.66532c1.19877,-0.25175 2.16379,-0.47951 2.89504,-0.68331c-0.01198,-0.86311 -0.18581,-1.44452 -0.52146,-1.74421c-0.33566,-0.31169 -0.84513,-0.46752 -1.52844,-0.46752c-1.29468,0 -2.1458,0.36562 -2.55338,1.09688c-0.21578,0.40758 -0.41358,0.70128 -0.59339,0.8811c-0.16783,0.16783 -0.41958,0.25175 -0.75522,0.25175c-0.2997,0 -0.57541,-0.0959 -0.82715,-0.2877c-0.23977,-0.2038 -0.35963,-0.46152 -0.35963,-0.77321c0,-0.74324 0.4016,-1.45051 1.20477,-2.12183c0.80318,-0.67131 2.06788,-1.00696 3.79411,-1.00696c1.75021,0 3.02692,0.30568 3.83008,0.91706c0.81517,0.59939 1.19876,1.82212 1.15082,3.66824l-0.05396,2.67927c-0.02398,0.82715 0.05995,1.50445 0.25174,2.03191c0.2038,0.52746 0.30568,0.92904 0.30568,1.20475c0,0.2997 -0.13786,0.56941 -0.41358,0.80917c-0.26373,0.22776 -0.55742,0.34166 -0.88109,0.34166c-0.5874,0 -1.20476,-0.53945 -1.8521,-1.61835zM210.96357,206.01575c-0.43156,0.15584 -1.13884,0.33566 -2.12181,0.53945c-0.971,0.1918 -1.6663,0.41358 -2.08587,0.66532c-0.40758,0.25175 -0.61137,0.61737 -0.61137,1.09688c0,0.41958 0.16184,0.7852 0.4855,1.09688c0.33566,0.31169 0.79718,0.46753 1.38458,0.46753c0.63536,0 1.22274,-0.17383 1.76221,-0.52147c0.53945,-0.34764 0.86911,-0.75521 0.98898,-1.22275c0.13186,-0.4795 0.19779,-1.18679 0.19779,-2.12183z" fill="#ffffff" stroke="none"/><path d="M194.45399,203.10273c0,0.37161 0.1918,0.66532 0.57541,0.8811c0.38361,0.2038 1.24071,0.46753 2.57135,0.79119c2.60133,0.63536 3.90201,1.71424 3.90201,3.23667c0,1.21076 -0.43756,2.1398 -1.31265,2.78714c-0.8751,0.64734 -2.09785,0.97101 -3.66824,0.97101c-1.59437,0 -2.79912,-0.32966 -3.61429,-0.98899c-0.80318,-0.65933 -1.20477,-1.3546 -1.20477,-2.08586c0,-0.31169 0.10789,-0.58141 0.32367,-0.80918c0.22776,-0.22776 0.50949,-0.34164 0.84513,-0.34164c0.44355,0 0.83316,0.28172 1.16881,0.84514c0.38361,0.61137 0.79718,1.01897 1.24073,1.22275c0.45554,0.1918 0.94703,0.28769 1.47449,0.28769c0.56342,0 1.02495,-0.12586 1.38459,-0.3776c0.35963,-0.25175 0.53945,-0.57542 0.53945,-0.97101c0,-0.35963 -0.14986,-0.66532 -0.44955,-0.91706c-0.2997,-0.26373 -1.13284,-0.55145 -2.49943,-0.86311c-1.3546,-0.31169 -2.3436,-0.74922 -2.96696,-1.31265c-0.62336,-0.56342 -0.93504,-1.23474 -0.93504,-2.01394c0,-0.8751 0.37761,-1.64831 1.13285,-2.31963c0.76721,-0.67131 1.90605,-1.00696 3.4165,-1.00696c1.39058,0 2.49944,0.2877 3.32658,0.8631c0.82715,0.56342 1.24073,1.15083 1.24073,1.76221c0,0.31169 -0.10789,0.58141 -0.32366,0.80917c-0.2038,0.21578 -0.4915,0.32367 -0.86311,0.32367c-0.55145,0 -1.04894,-0.31768 -1.49248,-0.95303c-0.44355,-0.63536 -1.11486,-0.95302 -2.01394,-0.95302c-0.4795,0 -0.89908,0.1019 -1.25871,0.30569c-0.35963,0.1918 -0.53945,0.46751 -0.53945,0.82715z" fill="#ffffff" stroke="none"/><path d="M270.31831,202.181v-0.39561c0,-0.51547 0.12587,-0.90507 0.37762,-1.16881c0.26373,-0.26373 0.59338,-0.39558 0.98898,-0.39558c0.43156,0 0.76122,0.15583 0.98898,0.46752c0.23976,0.2997 0.35963,0.95302 0.35963,1.95999v7.67814c0,2.28965 -0.4855,3.82409 -1.4565,4.60329c-0.95902,0.79119 -2.3436,1.18679 -4.15375,1.18679c-1.63033,0 -2.90701,-0.30569 -3.83007,-0.91707c-0.91105,-0.59939 -1.3666,-1.23473 -1.3666,-1.90604c0,-0.35963 0.11987,-0.65334 0.35962,-0.8811c0.23976,-0.21578 0.52747,-0.32367 0.86311,-0.32367c0.29969,0 0.53944,0.07194 0.71926,0.21579c0.17981,0.14384 0.47951,0.48549 0.89909,1.02495c0.43156,0.53945 1.15082,0.80917 2.15779,0.80917c0.56342,0 1.08487,-0.08991 1.56439,-0.26972c0.47951,-0.16783 0.83315,-0.47351 1.06091,-0.91706c0.22776,-0.44355 0.33566,-1.52244 0.32368,-3.23669c-0.8751,1.25871 -2.07389,1.88806 -3.59632,1.88806c-1.46249,0 -2.61932,-0.54543 -3.47045,-1.63632c-0.83914,-1.09089 -1.25871,-2.49344 -1.25871,-4.20768c0,-1.69027 0.43156,-3.03289 1.29466,-4.02787c0.8751,-1.00697 2.01394,-1.51047 3.41651,-1.51047c1.53443,0 2.78714,0.65333 3.75815,1.96zM264.74402,205.9931c0,1.11486 0.23976,1.96598 0.71927,2.55338c0.49149,0.57541 1.15681,0.86312 1.99595,0.86312c0.73125,0 1.3666,-0.28171 1.90604,-0.84513c0.53945,-0.56342 0.80917,-1.40857 0.80917,-2.53541c0,-1.11486 -0.25175,-1.99595 -0.75522,-2.64329c-0.49149,-0.64734 -1.15681,-0.971 -1.99595,-0.971c-0.81516,0 -1.46848,0.30568 -1.95999,0.91706c-0.47951,0.59939 -0.71927,1.48648 -0.71927,2.66127z" fill="#ffffff" stroke="none"/><path d="M257.23186,210.25473c-1.3546,1.07889 -2.68524,1.61835 -3.9919,1.61835c-1.23474,0 -2.18776,-0.31169 -2.85908,-0.93505c-0.65933,-0.63536 -0.98898,-1.40857 -0.98898,-2.31961c0,-0.7792 0.22177,-1.40856 0.66532,-1.88807c0.45554,-0.4795 0.94703,-0.80917 1.47449,-0.98899c0.53945,-0.1918 1.40857,-0.41357 2.60732,-0.66531c1.19878,-0.25175 2.16379,-0.47951 2.89504,-0.68331c-0.01198,-0.86311 -0.1858,-1.44452 -0.52146,-1.74421c-0.33565,-0.31169 -0.84514,-0.46752 -1.52844,-0.46752c-1.29468,0 -2.1458,0.36563 -2.55338,1.09688c-0.21578,0.40758 -0.41358,0.70126 -0.59339,0.88108c-0.16783,0.16783 -0.41958,0.25175 -0.75522,0.25175c-0.2997,0 -0.5754,-0.0959 -0.82714,-0.2877c-0.23977,-0.2038 -0.35964,-0.46153 -0.35964,-0.77322c0,-0.74324 0.4016,-1.4505 1.20477,-2.12181c0.80318,-0.67131 2.06788,-1.00697 3.79411,-1.00697c1.75021,0 3.0269,0.30569 3.83008,0.91707c0.81518,0.59939 1.19878,1.82214 1.15082,3.66825l-0.05394,2.67925c-0.02398,0.82715 0.05993,1.50446 0.25175,2.03193c0.2038,0.52746 0.3057,0.92905 0.3057,1.20476c0,0.2997 -0.13786,0.56941 -0.41358,0.80916c-0.26373,0.22776 -0.55743,0.34166 -0.8811,0.34166c-0.5874,0 -1.20476,-0.53945 -1.85211,-1.61835zM257.05205,206.11898c-0.43156,0.15584 -1.13884,0.33565 -2.12184,0.53944c-0.971,0.1918 -1.66629,0.41358 -2.08585,0.66532c-0.40758,0.25175 -0.61138,0.61738 -0.61138,1.09688c0,0.41958 0.16184,0.7852 0.4855,1.09688c0.33566,0.31169 0.79719,0.46751 1.3846,0.46751c0.63536,0 1.22274,-0.17382 1.76219,-0.52147c0.53945,-0.34764 0.86911,-0.75522 0.98898,-1.22275c0.13186,-0.4795 0.1978,-1.18677 0.1978,-2.12181z" fill="#ffffff" stroke="none"/><path d="M283.34596,206.74832h-5.61026c0.02398,1.0669 0.31169,1.87008 0.86312,2.40955c0.56342,0.53945 1.23473,0.80917 2.01394,0.80917c0.95902,0 1.8581,-0.41958 2.69724,-1.25872c0.34765,-0.34764 0.59938,-0.56342 0.75522,-0.64733c0.16784,-0.08391 0.35364,-0.12587 0.55744,-0.12587c0.26373,0 0.4855,0.08391 0.66532,0.25174c0.17981,0.15584 0.26972,0.35363 0.26972,0.59338c0,0.63536 -0.43756,1.31266 -1.31266,2.03191c-0.8751,0.70728 -2.06788,1.06092 -3.57833,1.06092c-1.91803,0 -3.37455,-0.53945 -4.36953,-1.61835c-0.983,-1.09089 -1.47448,-2.49344 -1.47448,-4.20768c0,-1.73821 0.49149,-3.1408 1.47448,-4.2077c0.99498,-1.07889 2.37358,-1.61834 4.13577,-1.61834c1.69027,0 2.99093,0.50947 3.902,1.52843c0.92306,1.01897 1.38459,2.12184 1.38459,3.30862c0,0.51547 -0.15584,0.92904 -0.46753,1.24072c-0.29969,0.2997 -0.93504,0.44954 -1.90605,0.44954zM277.7357,205.12998h5.21466c-0.03596,-0.95901 -0.2997,-1.68427 -0.79119,-2.17577c-0.49149,-0.50349 -1.09688,-0.75523 -1.81613,-0.75523c-1.51045,0 -2.37957,0.97699 -2.60733,2.93099z" fill="#ffffff" stroke="none"/><path d="M242.8703,200.47275v-1.70825c0,-0.70728 0.02997,-1.18679 0.08991,-1.43852c0.05993,-0.26373 0.21579,-0.49149 0.46753,-0.68329c0.25175,-0.2038 0.54543,-0.30569 0.8811,-0.30569c0.2997,0 0.57542,0.08991 0.82715,0.26973c0.25175,0.17981 0.41358,0.40159 0.4855,0.66532c0.08391,0.26373 0.12587,0.68331 0.12587,1.25871v1.942h0.55743c0.69529,0 1.15681,0.0899 1.38457,0.26973c0.22776,0.16783 0.34166,0.41358 0.34166,0.73725c0,0.70728 -0.5874,1.06091 -1.76219,1.06091h-0.52147v5.28659c0,0.71926 0.04794,1.21075 0.14384,1.47448c0.10789,0.25175 0.37761,0.37761 0.80917,0.37761c0.21578,0 0.44954,-0.02996 0.70129,-0.08991c0.26373,-0.05993 0.46153,-0.08991 0.59339,-0.08991c0.2877,0 0.52146,0.09591 0.70128,0.28771c0.17981,0.17981 0.26973,0.40159 0.26973,0.66532c0,0.94703 -0.98899,1.42054 -2.96696,1.42054c-0.95901,0 -1.6663,-0.17981 -2.12184,-0.53944c-0.44355,-0.35963 -0.72526,-0.79118 -0.84513,-1.29467c-0.10789,-0.51547 -0.16183,-1.18078 -0.16183,-1.99595v-5.50236h-0.37761c-0.83913,0 -1.2587,-0.34164 -1.2587,-1.02495c0,-0.69529 0.44355,-1.04294 1.33064,-1.04294z" fill="#ffffff" stroke="none"/></g></g></g></svg>