<svg version="1.1" xmlns="http://www.w3.org/2000/svg" xmlns:xlink="http://www.w3.org/1999/xlink" width="149.25711" height="13.97362" viewBox="0,0,149.25711,13.97362"><g transform="translate(-103.92469,-34.29331)"><g data-paper-data="{&quot;isPaintingLayer&quot;:true}" fill="#000000" fill-rule="nonzero" stroke="none" stroke-width="1" stroke-linecap="square" stroke-linejoin="miter" stroke-miterlimit="10" stroke-dasharray="" stroke-dashoffset="0" style="mix-blend-mode: normal"><path d="M107.4,34.45622c0.76023,0 1.44804,0.08447 2.06346,0.25341c0.61542,0.16894 1.14637,0.43441 1.59285,0.79642c0.45855,0.36201 0.80246,0.82057 1.03173,1.37564c0.24134,0.55508 0.36201,1.2067 0.36201,1.95486c0,0.77229 -0.1629,1.47821 -0.48871,2.11776c-0.31374,0.62749 -0.83866,1.11017 -1.57475,1.44805c0.25341,0.37407 0.51285,0.79039 0.77832,1.24894c0.27755,0.44648 0.54301,0.92312 0.79642,1.42994c0.26547,0.49475 0.51888,0.98949 0.76022,1.48425c0.24134,0.49475 0.44647,0.96536 0.61541,1.41184h-2.78748c-0.33787,-0.86883 -0.72402,-1.70145 -1.15843,-2.49788c-0.43442,-0.79642 -0.90503,-1.60491 -1.41184,-2.42547h-1.39374v4.92335h-2.66078v-13.1772c0.26547,-0.06034 0.54905,-0.11464 0.85072,-0.16291c0.31374,-0.04827 0.62748,-0.08447 0.94123,-0.10861c0.32581,-0.02414 0.63352,-0.04223 0.92313,-0.0543c0.28961,-0.01206 0.54302,-0.0181 0.76023,-0.0181zM109.75307,38.81845c0,-0.71196 -0.2172,-1.23083 -0.65162,-1.55664c-0.43442,-0.33787 -1.00156,-0.50682 -1.70145,-0.50682c-0.1086,0 -0.23531,0.00604 -0.38012,0.0181c-0.14481,0.01206 -0.2896,0.03016 -0.43441,0.0543v4.01832h0.59731c0.90502,0 1.55665,-0.17498 1.95486,-0.52492c0.41027,-0.36201 0.61542,-0.86279 0.61542,-1.50234zM114.92983,47.97733v-13.37631h8.10905v2.20826h-5.44827v3.00469h4.74235v2.19017h-4.74234v3.76491h5.91888v2.20827zM132.14345,47.97733l-0.63352,-3.0952h-3.56581l-0.59732,3.0952h-2.76938c0.62748,-2.64268 1.26704,-5.04402 1.91866,-7.20402c0.65162,-2.17206 1.2791,-4.22949 1.88246,-6.17229h2.89609c0.62749,1.95486 1.25497,4.03039 1.88245,6.22659c0.62749,2.1962 1.23687,4.57944 1.82816,7.14972zM129.75418,37.1894c-0.1448,0.50682 -0.27755,0.98949 -0.39821,1.44805c-0.12067,0.44648 -0.23531,0.89296 -0.34391,1.33944c-0.10861,0.43442 -0.21117,0.87486 -0.30771,1.32134c-0.08446,0.44648 -0.17496,0.90503 -0.2715,1.37564h2.62457c-0.08446,-0.47062 -0.17496,-0.92916 -0.2715,-1.37564c-0.08446,-0.44648 -0.181,-0.88692 -0.28961,-1.32134c-0.09654,-0.44648 -0.21117,-0.89296 -0.34391,-1.33944c-0.12067,-0.45855 -0.25341,-0.94123 -0.39821,-1.44805zM141.57383,48.26694c-1.88245,0 -3.32446,-0.60336 -4.32603,-1.81005c-0.9895,-1.21877 -1.48425,-2.94435 -1.48425,-5.17675c0,-1.11017 0.15084,-2.09363 0.45252,-2.95039c0.30167,-0.86883 0.72402,-1.59888 1.26703,-2.19017c0.54301,-0.60336 1.18258,-1.06189 1.91866,-1.37564c0.74816,-0.31374 1.56268,-0.47062 2.44357,-0.47062c0.47062,0 0.89296,0.04224 1.26703,0.12671c0.38614,0.0724 0.72402,0.1629 1.01363,0.2715c0.28961,0.09654 0.53096,0.20514 0.72403,0.32581c0.19307,0.1086 0.3439,0.19307 0.45251,0.25341l-0.68782,2.11776c-0.33787,-0.2172 -0.74212,-0.39822 -1.21274,-0.54302c-0.45855,-0.15687 -0.99553,-0.2353 -1.61095,-0.2353c-0.41028,0 -0.81452,0.07843 -1.21273,0.2353c-0.39821,0.1448 -0.75419,0.39822 -1.06793,0.76022c-0.30167,0.34994 -0.55508,0.82056 -0.76022,1.41185c-0.19307,0.57921 -0.28961,1.30927 -0.28961,2.19017c0,1.53251 0.26548,2.70904 0.79642,3.5296c0.53095,0.80849 1.39374,1.21274 2.58838,1.21274c0.68782,0 1.25497,-0.07844 1.70145,-0.23531c0.45855,-0.16894 0.82659,-0.33185 1.10414,-0.48871l0.66972,2.09967c-0.37408,0.22927 -0.8809,0.44648 -1.52045,0.65162c-0.63956,0.19307 -1.38168,0.2896 -2.22637,0.2896zM156.25338,34.60103v2.20826h-3.51151v11.16804h-2.69698v-11.16804h-3.5115v-2.20826zM160.07259,41.28013c0,0.65162 0.02414,1.26101 0.0724,1.82816c0.06034,0.56715 0.1629,1.06189 0.30771,1.48425c0.15687,0.41027 0.36804,0.74212 0.63352,0.99553c0.27755,0.24135 0.65162,0.36201 1.12223,0.36201c0.44648,0 0.80849,-0.12067 1.08603,-0.36201c0.27755,-0.25341 0.48872,-0.59128 0.63352,-1.01363c0.15687,-0.42235 0.25944,-0.91107 0.30771,-1.46614c0.06034,-0.56715 0.0905,-1.17654 0.0905,-1.82816c0,-0.65162 -0.03016,-1.261 -0.0905,-1.82815c-0.04826,-0.56715 -0.15084,-1.05587 -0.30771,-1.46615c-0.1448,-0.42235 -0.35598,-0.75418 -0.63352,-0.99553c-0.26548,-0.25341 -0.62748,-0.38011 -1.08603,-0.38011c-0.47062,0 -0.84469,0.1267 -1.12223,0.38011c-0.26548,0.24135 -0.47665,0.57318 -0.63352,0.99553c-0.1448,0.42235 -0.24737,0.9171 -0.30771,1.48425c-0.04826,0.55508 -0.0724,1.15843 -0.0724,1.81005zM157.37561,41.28013c0,-2.30481 0.42235,-4.04246 1.26704,-5.21296c0.85676,-1.18257 2.04537,-1.77385 3.56581,-1.77385c1.56871,0 2.76335,0.59128 3.58391,1.77385c0.82056,1.1705 1.23084,2.90815 1.23084,5.21296c0,2.30481 -0.42235,4.04849 -1.26704,5.23106c-0.83263,1.1705 -2.00916,1.75575 -3.52961,1.75575c-1.56871,0 -2.76938,-0.58525 -3.60201,-1.75575c-0.83263,-1.18257 -1.24894,-2.92625 -1.24894,-5.23106zM172.23616,34.45622c0.76022,0 1.44805,0.08447 2.06347,0.25341c0.61542,0.16894 1.14636,0.43441 1.59284,0.79642c0.45855,0.36201 0.80246,0.82057 1.03173,1.37564c0.24134,0.55508 0.36202,1.2067 0.36202,1.95486c0,0.77229 -0.16291,1.47821 -0.48872,2.11776c-0.31375,0.62749 -0.83866,1.11017 -1.57475,1.44805c0.25341,0.37407 0.51285,0.79039 0.77832,1.24894c0.27755,0.44648 0.54301,0.92312 0.79642,1.42994c0.26548,0.49475 0.51888,0.98949 0.76022,1.48425c0.24134,0.49475 0.44648,0.96536 0.61542,1.41184h-2.78749c-0.33787,-0.86883 -0.72402,-1.70145 -1.15843,-2.49788c-0.43442,-0.79642 -0.90503,-1.60491 -1.41184,-2.42547h-1.39374v4.92335h-2.66078v-13.1772c0.26548,-0.06034 0.54905,-0.11464 0.85072,-0.16291c0.31375,-0.04827 0.62749,-0.08447 0.94123,-0.10861c0.32581,-0.02414 0.63352,-0.04223 0.92313,-0.0543c0.28961,-0.01206 0.54301,-0.0181 0.76022,-0.0181zM174.58923,38.81845c0,-0.71196 -0.21721,-1.23083 -0.65162,-1.55664c-0.43442,-0.33787 -1.00156,-0.50682 -1.70145,-0.50682c-0.10861,0 -0.23531,0.00604 -0.38011,0.0181c-0.1448,0.01206 -0.28961,0.03016 -0.43442,0.0543v4.01832h0.59732c0.90502,0 1.55665,-0.17498 1.95486,-0.52492c0.41028,-0.36201 0.61542,-0.86279 0.61542,-1.50234zM196.8891,47.97733c-0.60335,-1.48425 -1.26101,-2.96245 -1.97296,-4.43463c-0.71195,-1.48425 -1.48425,-2.96849 -2.31687,-4.45274v8.88737h-2.38927v-13.37631h2.13586c0.41028,0.62749 0.81453,1.3153 1.21274,2.06346c0.39821,0.73609 0.79039,1.47218 1.17654,2.20827c0.38614,0.73609 0.73608,1.45408 1.04983,2.15396c0.32581,0.68782 0.60939,1.29118 0.85073,1.81006v-8.23575h2.38927v13.37631zM203.2967,41.28013c0,0.65162 0.02414,1.26101 0.0724,1.82816c0.06034,0.56715 0.16291,1.06189 0.30771,1.48425c0.15687,0.41027 0.36804,0.74212 0.63352,0.99553c0.27755,0.24135 0.65162,0.36201 1.12223,0.36201c0.44648,0 0.80848,-0.12067 1.08603,-0.36201c0.27755,-0.25341 0.48872,-0.59128 0.63352,-1.01363c0.15687,-0.42235 0.25945,-0.91107 0.30771,-1.46614c0.06034,-0.56715 0.0905,-1.17654 0.0905,-1.82816c0,-0.65162 -0.03016,-1.261 -0.0905,-1.82815c-0.04826,-0.56715 -0.15084,-1.05587 -0.30771,-1.46615c-0.1448,-0.42235 -0.35598,-0.75418 -0.63352,-0.99553c-0.26548,-0.25341 -0.62748,-0.38011 -1.08603,-0.38011c-0.47062,0 -0.84469,0.1267 -1.12223,0.38011c-0.26548,0.24135 -0.47665,0.57318 -0.63352,0.99553c-0.1448,0.42235 -0.24738,0.9171 -0.30771,1.48425c-0.04826,0.55508 -0.0724,1.15843 -0.0724,1.81005zM200.59971,41.28013c0,-2.30481 0.42235,-4.04246 1.26704,-5.21296c0.85676,-1.18257 2.04537,-1.77385 3.56581,-1.77385c1.56871,0 2.76335,0.59128 3.58391,1.77385c0.82056,1.1705 1.23084,2.90815 1.23084,5.21296c0,2.30481 -0.42235,4.04849 -1.26704,5.23106c-0.83263,1.1705 -2.00916,1.75575 -3.52961,1.75575c-1.56871,0 -2.76938,-0.58525 -3.60201,-1.75575c-0.83263,-1.18257 -1.24894,-2.92625 -1.24894,-5.23106zM215.46026,34.45622c0.76022,0 1.44805,0.08447 2.06347,0.25341c0.61542,0.16894 1.14636,0.43441 1.59284,0.79642c0.45855,0.36201 0.80246,0.82057 1.03173,1.37564c0.24134,0.55508 0.36201,1.2067 0.36201,1.95486c0,0.77229 -0.1629,1.47821 -0.48871,2.11776c-0.31375,0.62749 -0.83866,1.11017 -1.57475,1.44805c0.25341,0.37407 0.51285,0.79039 0.77832,1.24894c0.27755,0.44648 0.54301,0.92312 0.79642,1.42994c0.26548,0.49475 0.51888,0.98949 0.76022,1.48425c0.24134,0.49475 0.44648,0.96536 0.61542,1.41184h-2.78749c-0.33787,-0.86883 -0.72402,-1.70145 -1.15843,-2.49788c-0.43442,-0.79642 -0.90503,-1.60491 -1.41184,-2.42547h-1.39374v4.92335h-2.66078v-13.1772c0.26548,-0.06034 0.54905,-0.11464 0.85072,-0.16291c0.31375,-0.04827 0.62748,-0.08447 0.94123,-0.10861c0.32581,-0.02414 0.63352,-0.04223 0.92313,-0.0543c0.28961,-0.01206 0.54301,-0.0181 0.76022,-0.0181zM217.81333,38.81845c0,-0.71196 -0.21721,-1.23083 -0.65162,-1.55664c-0.43442,-0.33787 -1.00156,-0.50682 -1.70145,-0.50682c-0.10861,0 -0.23531,0.00604 -0.38011,0.0181c-0.1448,0.01206 -0.28961,0.03016 -0.43442,0.0543v4.01832h0.59732c0.90502,0 1.55665,-0.17498 1.95486,-0.52492c0.41028,-0.36201 0.61542,-0.86279 0.61542,-1.50234zM225.10785,34.60103c0.10861,0.30168 0.23531,0.69385 0.38011,1.17654c0.15687,0.47062 0.31977,0.98347 0.48871,1.53854c0.16894,0.54301 0.33788,1.0981 0.50682,1.66525c0.181,0.55508 0.34994,1.06793 0.50681,1.53855c0.16894,-0.53095 0.34391,-1.08 0.52491,-1.64715c0.19307,-0.56715 0.37408,-1.1162 0.54302,-1.64715c0.181,-0.53095 0.34391,-1.02569 0.48871,-1.48425c0.1448,-0.45855 0.27755,-0.83866 0.39821,-1.14034h2.19017c0.10861,1.1705 0.20515,2.31084 0.28961,3.42101c0.09654,1.11017 0.17497,2.20826 0.2353,3.29429c0.0724,1.08604 0.12671,2.1781 0.16291,3.2762c0.04826,1.0981 0.0905,2.22637 0.1267,3.38481h-2.44358l0.12671,-10.38972l-1.64715,5.66547h-1.93676l-1.59285,-5.66547l0.1086,10.38972h-2.44357c0.04826,-1.0981 0.09654,-2.23844 0.1448,-3.42101c0.04826,-1.18257 0.10257,-2.35307 0.1629,-3.5115c0.06034,-1.1705 0.12671,-2.29877 0.19911,-3.3848c0.08446,-1.0981 0.17497,-2.11776 0.27151,-3.05899zM240.20371,47.97733l-0.63352,-3.0952h-3.56581l-0.59732,3.0952h-2.76938c0.62749,-2.64268 1.26704,-5.04402 1.91866,-7.20402c0.65162,-2.17206 1.2791,-4.22949 1.88245,-6.17229h2.89608c0.62749,1.95486 1.25498,4.03039 1.88246,6.22659c0.62749,2.1962 1.23687,4.57944 1.82815,7.14972zM237.81444,37.1894c-0.1448,0.50682 -0.27754,0.98949 -0.39821,1.44805c-0.12067,0.44648 -0.2353,0.89296 -0.34391,1.33944c-0.10861,0.43442 -0.21117,0.87486 -0.30771,1.32134c-0.08446,0.44648 -0.17497,0.90503 -0.27151,1.37564h2.62458c-0.08446,-0.47062 -0.17497,-0.92916 -0.27151,-1.37564c-0.08446,-0.44648 -0.181,-0.88692 -0.28961,-1.32134c-0.09654,-0.44648 -0.21117,-0.89296 -0.34391,-1.33944c-0.12067,-0.45855 -0.25341,-0.94123 -0.39821,-1.44805zM253.1818,47.97733h-8.39866v-13.37631h2.67888v11.16804h5.71977z"/></g></g></svg>