<svg version="1.1" xmlns="http://www.w3.org/2000/svg" xmlns:xlink="http://www.w3.org/1999/xlink" width="150.62182" height="32.69247" viewBox="0,0,150.62182,32.69247"><g transform="translate(-164.68909,-163.65377)"><g data-paper-data="{&quot;isPaintingLayer&quot;:true}" fill="#ffffff" fill-rule="nonzero" stroke="none" stroke-width="1" stroke-linecap="square" stroke-linejoin="miter" stroke-miterlimit="10" stroke-dasharray="" stroke-dashoffset="0" style="mix-blend-mode: normal"><path d="M173.62604,196.34623c-1.65499,0 -3.15721,-0.42011 -4.50667,-1.26034c-1.34946,-0.84023 -2.43156,-1.96053 -3.24633,-3.36091c-0.78931,-1.40037 -1.18395,-2.96625 -1.18395,-4.69763l0.07638,-14.20745c0,-1.68045 0.38192,-3.20814 1.14576,-4.58305c0.78931,-1.37491 1.85868,-2.4825 3.20813,-3.32275c1.34946,-0.84023 2.85168,-1.26034 4.50667,-1.26034c1.68045,0 3.18267,0.40739 4.50666,1.22215c1.34946,0.81479 2.41883,1.92238 3.20813,3.32275c0.78931,1.37491 1.18395,2.91532 1.18395,4.62124v2.10056c0,0.12731 -0.05093,0.19096 -0.15277,0.19096h-5.11774c-0.12731,0 -0.19096,-0.06365 -0.19096,-0.19096v-2.10056c0,-1.01845 -0.331,-1.88414 -0.993,-2.59706c-0.63654,-0.73838 -1.45129,-1.10757 -2.44429,-1.10757c-1.09484,0 -1.93507,0.38192 -2.52068,1.14576c-0.56015,0.73838 -0.84023,1.59134 -0.84023,2.55887v14.20745c0,1.14577 0.31826,2.06237 0.9548,2.74983c0.66199,0.68746 1.46403,1.03118 2.4061,1.03118c0.993,0 1.80775,-0.38192 2.44429,-1.14576c0.66199,-0.76384 0.993,-1.64226 0.993,-2.63526v-2.10056c0,-0.10184 0.06365,-0.15276 0.19096,-0.15276h5.15593c0.10184,0 0.15277,0.05092 0.15277,0.15276v2.10056c0,1.73138 -0.40738,3.29725 -1.22215,4.69763c-0.78931,1.40037 -1.85868,2.52068 -3.20813,3.36091c-1.32399,0.84023 -2.82621,1.26034 -4.50666,1.26034zM184.21658,195.65877l5.65243,-31.31754c0.02546,-0.12731 0.10184,-0.19096 0.22915,-0.19096h6.60723c0.12731,0 0.2037,0.06366 0.22916,0.19096l5.42327,31.31754c0.05093,0.15277 0,0.22915 -0.15277,0.22915h-5.07954c-0.12731,0 -0.20369,-0.07638 -0.22915,-0.22915l-0.4965,-3.32271h-6.18712l-0.53469,3.32271c-0.02546,0.15277 -0.10184,0.22915 -0.22915,0.22915h-5.04135c-0.12731,0 -0.19096,-0.07638 -0.19096,-0.22915zM191.09116,187.44748h4.39209l-1.87142,-12.79435l-0.26735,-1.71864l-0.19096,1.71864zM205.44519,195.88793c-0.12731,0 -0.19096,-0.07638 -0.19096,-0.22915l0.07639,-31.31754c0,-0.12731 0.06365,-0.19096 0.19096,-0.19096h5.57604c0.10184,0 0.20369,0.06366 0.30554,0.19096l4.16294,5.9962l4.12474,-5.99619c0.10184,-0.12731 0.21645,-0.19096 0.34381,-0.19096h5.57604c0.12731,0 0.19096,0.06366 0.19096,0.19096l0.11458,31.31754c0,0.15277 -0.06366,0.22915 -0.19096,0.22915h-5.15593c-0.12731,0 -0.19096,-0.07638 -0.19096,-0.22915l-0.03819,-23.25898l-4.77409,6.95096l-4.77401,-6.95096l-0.0382,23.25898c0,0.15277 -0.06365,0.22915 -0.19096,0.22915h-5.11774zM229.9331,195.88793c-0.12731,0 -0.19096,-0.07638 -0.19096,-0.22915l0.0382,-31.31754c0,-0.12731 0.06365,-0.19096 0.19096,-0.19096h14.62757c0.12731,0 0.19097,0.07639 0.19097,0.22916v5.11777c0,0.10184 -0.06366,0.15277 -0.19097,0.15277h-9.35706v7.14192h9.35706c0.12731,0 0.19097,0.05092 0.19097,0.15276l0.03819,5.15593c0,0.12731 -0.06365,0.19096 -0.19096,0.19096h-9.39525v7.98215h9.39525c0.12731,0 0.19096,0.07638 0.19096,0.22915v5.19413c0,0.12731 -0.06365,0.19096 -0.19096,0.19096h-14.70396zM249.08569,195.88793c-0.12731,0 -0.19096,-0.07638 -0.19096,-0.22915l0.07639,-31.31754c0,-0.12731 0.06365,-0.19096 0.19096,-0.19096h9.2043c1.65499,0 3.16994,0.40738 4.54485,1.22215c1.37491,0.78933 2.46976,1.87145 3.28452,3.24636c0.84023,1.34946 1.26034,2.86441 1.26034,4.54486c0,1.14577 -0.17823,2.16421 -0.53469,3.05536c-0.331,0.89115 -0.72565,1.65499 -1.18395,2.29153c-0.43284,0.61107 -0.84023,1.06938 -1.22215,1.37491c1.65499,1.83322 2.48248,3.97197 2.48248,6.41627l0.03819,9.35707c0,0.15277 -0.07638,0.22915 -0.22915,0.22915h-5.15593c-0.12731,0 -0.19097,-0.05093 -0.19097,-0.15277v-9.43345c0,-1.09484 -0.39465,-2.0369 -1.18396,-2.82621c-0.76384,-0.81476 -1.70591,-1.22215 -2.82621,-1.22215h-3.01718l-0.0382,13.40543c0,0.15277 -0.06365,0.22915 -0.19096,0.22915h-5.11774zM254.43258,176.79188h3.93379c0.94207,0 1.76956,-0.34373 2.48248,-1.03118c0.73838,-0.71292 1.10757,-1.57861 1.10757,-2.59706c0,-0.96753 -0.35646,-1.79503 -1.06938,-2.48248c-0.71292,-0.71292 -1.55314,-1.06938 -2.52067,-1.06938h-3.93379zM269.3087,195.65877l5.65243,-31.31754c0.02546,-0.12731 0.10185,-0.19096 0.22915,-0.19096h6.60723c0.1273,0 0.20369,0.06366 0.22915,0.19096l5.42327,31.31754c0.05093,0.15277 0,0.22915 -0.15277,0.22915h-5.07954c-0.1273,0 -0.20369,-0.07638 -0.22915,-0.22915l-0.4965,-3.32271h-6.18712l-0.53469,3.32271c-0.02546,0.15277 -0.10184,0.22915 -0.22915,0.22915h-5.04136c-0.1273,0 -0.19096,-0.07638 -0.19096,-0.22915zM276.18327,187.44748h4.39209l-1.87142,-12.79435l-0.26734,-1.71864l-0.19096,1.71864zM306.56493,195.88793c-0.1273,0 -0.19096,-0.07638 -0.19096,-0.22915v-5.34689h-9.85356c-0.10185,0 -0.15277,-0.07638 -0.15277,-0.22915v-5.00316l9.92994,-20.73834c0.05093,-0.12731 0.14004,-0.19096 0.26735,-0.19096h5.15593c0.10185,0 0.15277,0.06366 0.15277,0.19096l0.03819,20.54738h3.16995c0.15277,0 0.22915,0.07638 0.22915,0.22915v4.96498c0,0.15277 -0.05092,0.22915 -0.15277,0.22915h-3.24633v5.34689c0,0.15277 -0.06365,0.22915 -0.19096,0.22915zM301.75272,184.88861h4.62124v-9.92994z"/></g></g></svg>