<svg version="1.1" xmlns="http://www.w3.org/2000/svg" xmlns:xlink="http://www.w3.org/1999/xlink" width="307" height="307" viewBox="0,0,307,307"><defs><linearGradient x1="193.30366" y1="201.72414" x2="192.25029" y2="246.89636" gradientUnits="userSpaceOnUse" id="color-1"><stop offset="0" stop-color="#8ec4d0"/><stop offset="1" stop-color="#406077"/></linearGradient><linearGradient x1="193.30367" y1="201.72414" x2="192.2503" y2="246.89636" gradientUnits="userSpaceOnUse" id="color-2"><stop offset="0" stop-color="#8ec4d0"/><stop offset="1" stop-color="#406077"/></linearGradient><linearGradient x1="269.24001" y1="202.58281" x2="268.06932" y2="247.75215" gradientUnits="userSpaceOnUse" id="color-3"><stop offset="0" stop-color="#8ec4d0"/><stop offset="1" stop-color="#406077"/></linearGradient></defs><g transform="translate(-86.5,-47.19448)"><g data-paper-data="{&quot;isPaintingLayer&quot;:true}" fill-rule="nonzero" stroke-linecap="butt" stroke-linejoin="miter" stroke-miterlimit="10" stroke-dasharray="" stroke-dashoffset="0" style="mix-blend-mode: normal"><path d="M89,200.69449c0,-83.39499 67.60501,-151 151,-151c83.39499,0 151,67.60501 151,151c0,83.39499 -67.60501,151 -151,151c-83.39499,0 -151,-67.60501 -151,-151z" fill="#c1ffb2" stroke="none" stroke-width="0"/><path d="M92,174.69447c0,0 12.39294,60.43765 55.98474,110.83318c42.25722,48.85264 69.10277,62.95198 69.10277,62.95198c0,0 -18.64049,-2.35942 -26.09179,-4.91461c-24.90904,-8.54177 -46.87791,-23.41437 -63.98602,-42.69722c-14.83039,-16.7156 -26.00815,-36.74528 -32.28219,-58.83796c-1.63816,-5.76842 -4.36357,-19.45418 -4.66195,-32.99194c-0.38115,-17.29247 1.93445,-34.34344 1.93445,-34.34344z" fill="#a9ef51" stroke="none" stroke-width="0"/><path d="M112.3922,119.92886c0,0 2.9874,-4.57182 4.5701,-6.79188c13.23093,-18.559 30.55615,-33.99744 50.65712,-44.99678c2.3231,-1.27121 7.07849,-3.63372 7.07849,-3.63372c0,0 1.41646,83.64612 14.97423,159.73551c11.85622,66.5399 36.29102,126.83034 33.75137,126.55303c-75.59605,-8.25439 -111.0313,-230.86617 -111.0313,-230.86617z" fill="#abee53" stroke="none" stroke-width="0"/><path d="M238.48285,50.28824c0,0 21.1116,0.63494 24.12507,1.08736c16.14936,2.42458 31.46169,7.40663 45.51148,14.52063c2.27146,1.15014 6.71357,3.61578 6.71357,3.61578c0,0 -23.12187,74.19765 -34.5305,138.53809c-8.04369,45.36344 -16.83565,141.83179 -16.83565,141.83179c0,0 -6.49388,0.9056 -9.78826,1.2014c-4.50542,0.40454 -6.06786,0.61119 -10.67857,0.61119c-3.46676,0 -6.31471,0.65324 -6.31471,0.65324c0,0 -8.80023,-107.69193 -5.65681,-186.3893c1.70155,-42.59948 7.45437,-115.6702 7.45437,-115.6702z" fill="#abee53" stroke="none" stroke-width="0"/><path d="M355.7369,104.68173c0,0 8.27066,9.75729 10.25283,12.75062c10.85586,16.39376 18.59764,35.0296 22.38197,55.06412c1.09108,5.77628 -0.3717,0.19801 -0.3717,0.19801c0,0 -22.85239,37.94419 -36.39089,64.02344c-16.5176,31.81789 -32.99932,92.0441 -34.83156,93.40104c-8.77132,6.49599 -5.27122,4.06418 -15.35463,8.55953c-1.94452,0.86689 -8.8976,2.47996 -8.8976,2.47996c0,0 -2.21784,-41.30569 21.44111,-125.21136c14.53188,-51.53681 41.77049,-111.26534 41.77049,-111.26534z" fill="#abee53" stroke="none" stroke-width="0"/><path d="M389.99999,212.69449c0,0 0.85107,-4.20631 0.55856,-0.36701c-3.96206,52.00368 -34.26586,96.64238 -77.59701,120.60173c-12.60939,6.97218 11.67262,-36.05746 37.44993,-72.31919c18.43477,-25.93276 39.58852,-47.91553 39.58852,-47.91553z" fill="#abee53" stroke="none" stroke-width="0"/><g><path d="M95.12487,238.71883c0,0 12.77187,-24.00302 16.96596,-29.63017c2.78418,-3.73551 7.80072,-2.96797 7.80072,-2.96797l-9.67154,57.2901c0,0 -4.57771,-7.22598 -6.6396,-11.38627c-0.70138,-1.41518 -2.48616,0.48363 -3.591,-1.27841c-2.60761,-4.1587 -4.86454,-12.02727 -4.86454,-12.02727z" fill="#fb7c00" stroke="none" stroke-width="0"/><path d="M119.89155,206.12068l-10.13578,57.27928c0,0 -9.87939,-4.51551 -11.67388,-11.00353c-2.49419,-4.75843 21.80967,-46.27575 21.80967,-46.27575z" fill="#b43f15" stroke="none" stroke-width="0"/><path d="M94.14068,238.02903c0,0 13.75606,-23.31323 17.95014,-28.94038c2.78418,-3.73551 7.80072,-2.96797 7.80072,-2.96797l-9.67154,57.2901c0,0 -8.31332,-4.31228 -10.37521,-8.47257c-2.35675,-4.75522 -5.70411,-16.90918 -5.70411,-16.90918z" fill="none" stroke="#390400" stroke-width="4"/><path d="M224.41068,231.73961c3.85842,29.9295 4.32549,65.06725 4.17177,86.21783c-0.77003,13.65565 -1.71951,17.81346 -17.10175,22.1034c-6.75133,1.88287 -14.12478,3.16673 -23.40402,3.99355c-13.08241,1.1657 -35.68404,-21.63371 -54.5724,-36.89454c-11.62308,-9.39086 -15.78978,-18.01527 -21.23397,-26.50968c-3.6159,-5.64178 -11.17371,-10.18696 -9.60016,-18.63085c5.41065,-29.03427 15.34722,-58.46946 31.59038,-74.89048c9.68637,-9.79244 19.26912,-13.6507 27.02102,-16.19322c46.88766,-15.37856 62.34151,54.69457 63.12912,60.80399z" fill="#b43f15" stroke="none" stroke-width="0"/><path d="M224.41068,231.73961c2.45431,19.03792 3.53644,40.18316 3.95945,58.49539c0.13989,6.05617 -15.65142,64.07382 -90.30563,15.77901c-39.76968,-26.583 -18.60606,-97.65325 -16.44892,-101.53278c3.70817,-6.66899 7.90844,-12.56399 12.64497,-17.35239c9.68637,-9.79244 19.26912,-13.6507 27.02102,-16.19322c46.88766,-15.37856 62.34151,54.69457 63.12912,60.80399z" fill="#fb7c00" stroke="none" stroke-width="0"/><path d="M181.33308,206.16904c3.47278,0.22104 18.62056,0.55783 29.99786,3.39386c2.16619,0.53997 7.10765,1.89042 8.55714,7.73618c1.73491,6.99685 4.24232,18.42264 2.93811,26.25519c-0.96158,5.77485 -8.28572,7.9333 -10.02258,7.9484c-6.79999,0.05909 -14.98971,0.06292 -22.52231,-0.11273c-8.09909,-0.18886 -12.07223,0.37545 -19.47139,-1.45432c-3.39345,-0.83919 -7.80581,-1.8697 -11.26696,-4.94634c-6.37878,-5.67015 -2.03381,-22.28758 -1.11633,-25.87348c0.18002,-0.70357 1.14299,-7.00634 5.87642,-10.29307c4.24863,-2.9501 12.00934,-2.97325 17.03003,-2.65369z" fill="#8ec4d0" stroke="#b33f18" stroke-width="6"/><path d="M184.27443,201.5697c3.47278,0.22104 18.62056,0.55783 29.99786,3.39386c2.16619,0.53997 7.10765,1.89042 8.55714,7.73618c1.73491,6.99685 4.24232,18.42264 2.93811,26.25519c-0.96158,5.77485 -8.28572,7.9333 -10.02258,7.9484c-6.79999,0.05909 -14.98971,0.06292 -22.52231,-0.11273c-8.09909,-0.18886 -12.07223,0.37545 -19.47139,-1.45432c-3.39345,-0.83919 -7.80581,-1.8697 -11.26696,-4.94634c-6.37878,-5.67015 -2.03381,-22.28758 -1.11633,-25.87348c0.18002,-0.70357 1.14299,-7.00634 5.87642,-10.29307c4.24863,-2.9501 12.00934,-2.97325 17.03003,-2.65369z" fill="#8ec4d0" stroke="#061b0f" stroke-width="6"/><path d="M224.41068,231.73961c3.85842,29.9295 4.32549,65.06725 4.17177,86.21783c-0.77003,13.65565 -1.71951,17.81346 -17.10175,22.1034c-6.13468,1.7109 -13.60849,2.90796 -21.88438,3.73268c-1.49124,0.14861 -5.98498,-2.51145 -5.98498,-2.51145c0,0 -15.63289,-8.29739 -23.41079,-13.33838c-8.0955,-5.24684 -24.24754,-17.54983 -24.24754,-17.54983c0,0 -12.07489,-15.03893 -17.54289,-22.55001c-4.81937,-6.62008 -13.56558,-20.18189 -13.56558,-20.18189c0,0 -2.13374,-4.86008 -1.89659,-6.16852c5.34747,-29.50419 14.79672,-57.66789 31.31258,-74.3646c9.68637,-9.79244 19.26912,-13.6507 27.02102,-16.19322c46.88766,-15.37856 62.34151,54.69457 63.12912,60.80399z" fill="none" stroke="#390400" stroke-width="4"/><path d="M184.27443,201.56967c3.47278,0.22104 18.62056,0.55783 29.99786,3.39386c2.16619,0.53997 7.10765,1.89042 8.55714,7.73618c1.73491,6.99685 4.24232,18.42264 2.93811,26.25519c-0.96158,5.77485 -8.28572,7.9333 -10.02258,7.9484c-6.79999,0.05909 -14.98971,0.06292 -22.52231,-0.11273c-8.09909,-0.18886 -12.07223,0.37545 -19.47139,-1.45432c-3.39345,-0.83919 -7.80581,-1.8697 -11.26696,-4.94634c-6.37878,-5.67015 -2.03381,-22.28758 -1.11633,-25.87348c0.18002,-0.70357 1.14299,-7.00634 5.87642,-10.29307c4.24863,-2.9501 12.00934,-2.97325 17.03003,-2.65369z" fill="url(#color-1)" stroke="none" stroke-width="0"/><path d="M184.44674,201.56998c3.21423,0.20571 17.23431,0.51729 27.76415,3.16287c2.00483,0.50371 6.57819,1.76356 7.91868,7.22091c1.60445,6.53194 3.92306,17.1986 2.71446,24.51133c-0.89108,5.39159 -7.67041,7.4081 -9.27799,7.42251c-6.2938,0.05645 -13.87387,0.06155 -20.8457,-0.10102c-7.49614,-0.1748 -11.17363,0.35278 -18.02164,-1.35411c-3.14068,-0.78283 -7.22439,-1.74408 -10.42731,-4.61578c-5.90287,-5.29246 -1.87824,-20.80733 -1.02837,-24.1553c0.16675,-0.65689 1.05921,-6.54134 5.4409,-9.61073c3.93291,-2.75501 11.11591,-2.77808 15.7628,-2.48068z" fill="#8ec4d0" stroke="none" stroke-width="0"/><path d="M223.98957,229.41085c-0.29696,1.78341 -1.54951,6.48516 -9.51098,8.93548c-4.66855,1.43684 -11.63634,1.77154 -22.09147,1.16299c-4.30076,-0.25033 -8.0814,0.35486 -11.35997,-0.14611c-18.72859,-2.86174 -21.81168,-10.19609 -21.35768,-12.96041c0.16271,-0.99075 3.21775,-6.43687 13.73616,-9.18308c4.51337,-1.17838 10.39139,-1.45182 18.02034,-1.33374c10.50406,0.16257 17.80162,0.52364 22.76675,2.36975c8.48163,3.15357 10.20183,8.72301 9.79685,11.15513z" fill="url(#color-2)" stroke="none" stroke-width="0"/><path d="M191.20443,340.86087c-0.66272,2.41057 -3.07328,1.74785 -3.07328,1.74785l-2.30742,-0.65813c-2.81113,-1.55343 -3.7513,0.99484 -7.23895,-0.08068c-2.35544,-0.72637 -5.95744,-3.99819 -7.55337,-5.91264c-0.5548,-0.66551 -0.58525,-1.70076 -1.21114,-2.29989c-0.48219,-0.46158 -1.28251,-0.38634 -1.88818,-0.66691c-2.64765,-1.22648 -5.59322,-2.81557 -8.10283,-4.29125c-4.84213,-2.84724 -8.50705,-7.11749 -12.91256,-10.39616c-1.77257,-1.31918 -3.98127,-1.92702 -5.89438,-3.03257c-1.9513,-4.60636 -4.81045,-6.79021 -8.85142,-9.84297c-2.36808,-1.78897 -5.7163,-2.18879 -7.50068,-4.7732c-0.64748,-0.93779 -0.54034,-2.23752 -1.06747,-3.24789c-0.38744,-0.74261 -1.20465,-1.19182 -1.62638,-1.91552c-0.82471,-1.41525 -1.20964,-3.06502 -2.08332,-4.45058c-1.39203,-2.20759 -2.45823,-2.00786 -4.15239,-3.79184c-1.45609,-1.53328 -2.74574,-3.25101 -3.77442,-5.09844c-0.88925,-1.59702 -0.81414,-3.58019 -1.49969,-5.27468c-0.55599,-1.37426 -1.77333,-2.37644 -2.63492,-3.58282c0,0 -1.45297,-2.03443 0.58146,-3.48739c2.03443,-1.45297 3.48739,0.58146 3.48739,0.58146c0.36479,0.51077 3.03425,4.21944 3.17695,4.55488c0.6468,1.52049 0.43173,3.3665 1.26637,4.79254c2.02722,3.46366 5.52105,5.21271 7.67253,8.4781c0.93275,1.41567 1.32349,3.13194 2.17909,4.59552c0.48161,0.82384 1.36724,1.3739 1.80598,2.22136c0.44551,0.86055 0.3276,1.94667 0.79211,2.79711c0.7509,1.37475 5.10599,2.65602 6.30901,3.551c3.88612,2.89107 8.24059,5.79563 9.67716,10.59453c0.39912,0.1777 4.97475,2.21428 4.98606,2.22251c4.34593,3.16545 7.87376,7.43274 12.61412,10.20453c2.4389,1.42608 5.16082,2.80692 7.70632,4.07957c1.0105,0.5052 2.22022,0.69769 3.06384,1.44911c0.805,0.71702 0.9802,1.94147 1.67148,2.76869c1.08261,1.29551 3.58465,3.79278 5.20997,4.38771c1.29293,0.47326 3.51843,-1.0265 4.35692,-0.98941c1.20731,0.0534 2.26671,0.83894 3.40007,1.25842l1.66818,0.43485c0,0 2.41057,0.66272 1.74785,3.07328z" fill="#b43f15" stroke="none" stroke-width="0.5"/><path d="M138.0645,306.01399c-17.27337,-11.54593 -23.05186,-31.48423 -23.8854,-50.66448c1.75548,1.05883 3.5343,2.08395 5.2412,3.2164c16.26052,10.78805 32.39375,21.76703 48.64289,32.57221c8.73644,5.80947 19.01026,8.88334 28.49592,13.36639c0.69967,0.33068 10.59027,4.90816 19.96259,9.55896c-12.19276,12.37942 -35.64647,19.64536 -78.45721,-8.04948z" fill="#fb7c00" stroke="none" stroke-width="0"/></g><g><path d="M253.27544,325.27231c0.25136,-17.88841 0.98454,-56.02086 8.93286,-86.39698c15.04135,-60.21908 47.32919,-56.56058 56.88798,-53.2703c15.68298,5.39831 28.56219,22.77041 33.35097,41.64534c5.9386,23.40697 4.46945,51.83961 1.6213,74.01569c-0.27283,2.1243 -4.57564,3.17998 -7.02283,5.28983c-5.80241,5.00258 -13.3739,10.99202 -19.9183,15.63501c-18.15868,12.88285 -35.22767,22.92431 -41.67391,21.71731c-8.37271,-1.56771 -17.66169,-3.65747 -24.17032,-6.03312c-9.4403,-3.44571 -8.0892,-6.80681 -8.00775,-12.60275z" fill="#053a20" stroke="none" stroke-width="0"/><path d="M253.27544,325.27231c0.25136,-17.88841 0.98454,-56.02086 8.93286,-86.39698c15.04135,-60.21908 47.32919,-56.56058 56.88798,-53.2703c15.68298,5.39831 28.56219,22.77041 33.35097,41.64534c5.74944,22.66136 4.55553,50.03331 1.88908,71.87781c-0.86186,7.06067 -13.52807,12.83059 -22.15052,19.39626c-18.51791,14.10069 -41.13032,26.46409 -48.18973,25.10729c-7.97774,-1.5333 -16.57973,-3.51804 -22.7129,-5.75665c-9.4403,-3.44571 -8.0892,-6.80681 -8.00775,-12.60275z" fill="#053a20" stroke="none" stroke-width="0"/><path d="M253.62448,309.53066c0.65415,-19.77137 2.51768,-47.47227 8.58383,-70.65531c15.04135,-60.21908 47.32919,-56.56058 56.88798,-53.2703c15.68298,5.39831 28.56219,22.77041 33.35097,41.64534c2.54614,10.0356 -3.03389,11.81667 -2.73602,22.81074c0.07971,2.942 -3.2118,29.55584 -10.45524,49.65697c-5.69317,15.79899 -15.70852,26.37886 -15.70852,26.37886c0,0 -30.71733,8.73804 -47.06971,5.32733c-18.5079,-3.86029 -22.91524,-20.02144 -22.8533,-21.89362z" fill="#177902" stroke="none" stroke-width="0"/><path d="M271.56592,222.58924c6.5618,0.27766 22.35069,1.77289 26.96515,5.53702c4.17319,3.4042 3.2918,15.40825 2.99651,20.22034c-0.15437,2.51578 -2.82721,2.4416 -6.31187,2.91507c-4.39908,0.59773 -10.19793,0.89131 -13.96253,0.80332c-4.59869,-0.10747 -12.59415,-1.40338 -16.80536,-2.1385c-1.6955,-0.29597 -2.7648,-1.01916 -2.7329,-1.87323c0.10592,-2.83555 0.42264,-9.37412 1.18233,-12.94915c0.58272,-2.74223 2.11998,-7.96869 4.51977,-10.75885c1.14051,-1.32603 2.85999,-1.81056 4.14889,-1.75602z" fill="#03391f" stroke="#033a21" stroke-width="6"/><path d="M355.39136,299.17434c0,0 -22.49345,-69.3868 -4.79093,-83.51492c9.19465,-7.33811 25.13831,20.95038 31.37063,33.03069c1.6359,3.17093 -26.57971,50.48424 -26.57971,50.48424z" fill="#03391e" stroke="none" stroke-width="0"/><path d="M253.27544,325.27231c0.25136,-17.88841 0.98454,-56.02086 8.93286,-86.39698c15.04135,-60.21908 47.32919,-56.56058 56.88798,-53.2703c15.68298,5.39831 28.56219,22.77041 33.35097,41.64534c5.35838,21.12003 5.5829,46.65674 3.39524,67.70367c-0.1117,1.07462 -0.35359,3.18756 -0.35359,3.18756c0,0 -5.87427,6.29548 -13.4828,13.0091c-6.66312,5.87942 -14.73194,11.99985 -20.34072,15.55682c-5.45197,3.45753 -13.74558,8.61777 -21.22278,11.65974c-8.14393,3.31322 -15.26371,4.36347 -15.26371,4.36347c0,0 -0.52487,1.0282 -1.45075,0.84938c-7.90193,-1.5261 -16.38041,-3.49146 -22.44497,-5.70503c-9.4403,-3.44571 -8.0892,-6.80681 -8.00775,-12.60275z" fill="none" stroke="#000000" stroke-width="4"/><path d="M350.60042,215.65942c11.60813,-9.26428 32.38462,33.23955 32.38462,33.23955c0,0 -4.70641,16.49064 -13.40946,29.75855c-4.49878,6.85845 -13.80782,18.85934 -13.80782,18.85934c0,0 -22.86986,-67.72932 -5.16734,-81.85744z" fill="#053a20" stroke="#000000" stroke-width="4"/><path d="M359.22847,289.67175c-3.29561,-6.28628 -10.16384,-21.47565 -13.57116,-35.15662c-4.34357,-17.44021 -3.63275,-32.01144 4.94312,-38.85571c9.3049,-7.42608 25.5216,21.63386 31.59059,33.45814c1.50225,2.92686 -21.74812,42.87068 -22.96255,40.5542z" fill="#177902" stroke="none" stroke-width="0"/><path d="M350.60042,215.65944c11.60813,-9.26428 32.88462,33.73955 32.88462,33.73955c0,0 -5.20641,15.99064 -13.90946,29.25855c-4.49878,6.85845 -13.80782,18.85934 -13.80782,18.85934c0,0 -22.86986,-67.72932 -5.16734,-81.85744z" fill="none" stroke="#000000" stroke-width="4"/><path d="M268.49367,204.50381c6.88956,0.32667 23.46011,2.25105 28.27489,7.39258c4.35436,4.64989 3.32714,21.17842 2.9763,27.80377c-0.18341,3.46376 -2.99008,3.38427 -6.65404,4.06537c-4.62544,0.85983 -10.71849,1.31292 -14.67174,1.22364c-4.82913,-0.10904 -13.21586,-1.82499 -17.63272,-2.80113c-1.77829,-0.39301 -2.89528,-1.37928 -2.85455,-2.55501c0.13522,-3.90344 0.52314,-12.9051 1.35129,-17.83182c0.63522,-3.77903 2.294,-10.98516 4.83811,-14.84554c1.20909,-1.83465 3.01917,-2.51603 4.37245,-2.45187z" fill="#9966ff" stroke="#000000" stroke-width="6"/><path d="M268.49367,204.50381c6.88955,0.32668 23.46012,2.25105 28.27489,7.39259c4.35436,4.64988 3.32713,21.17841 2.9763,27.80376c-0.18341,3.46376 -2.99008,3.38426 -6.65404,4.06537c-4.62544,0.85983 -10.71849,1.31292 -14.67174,1.22364c-4.82914,-0.10905 -13.21586,-1.825 -17.63272,-2.80113c-1.77829,-0.39301 -2.89528,-1.37928 -2.85454,-2.55501c0.13522,-3.90343 0.52314,-12.9051 1.35129,-17.83183c0.63522,-3.77903 2.294,-10.98516 4.83811,-14.84554c1.20909,-1.83465 3.01918,-2.51603 4.37246,-2.45186z" fill="#8ec4ce" stroke="none" stroke-width="NaN"/><path d="M299.85391,230.34912c-0.30159,1.78263 -1.56634,6.48111 -9.53416,8.91075c-2.64114,0.80537 -11.53293,1.53069 -19.76444,0.68382c-6.33024,-0.65126 -12.55854,-2.84033 -12.55854,-2.84033c0,0 0.30078,-6.34104 0.88041,-11.93405c0.48657,-4.69499 1.43698,-7.56583 1.42615,-8.21778c0.04986,0.00025 6.50701,-0.22112 7.02221,-0.21181c10.50361,0.18985 17.8002,0.56988 22.76052,2.42887c8.47341,3.17558 10.17914,8.74948 9.76784,11.18054z" fill="url(#color-3)" stroke="none" stroke-width="0"/></g><path d="M89,200.69449c0,-83.39499 67.60501,-151 151,-151c71.35052,0 131.14268,49.48724 146.92556,116.01077c2.66426,11.22965 4.07444,22.94475 4.07444,34.98923c0,83.39499 -67.60501,151 -151,151c-83.39499,0 -151,-67.60501 -151,-151z" fill="none" stroke="#417705" stroke-width="5"/></g></g></svg>