<svg version="1.1" xmlns="http://www.w3.org/2000/svg" xmlns:xlink="http://www.w3.org/1999/xlink" width="24.82813" height="33.84377" viewBox="0,0,24.82813,33.84377"><g transform="translate(-227.58593,-163.07811)"><g data-paper-data="{&quot;isPaintingLayer&quot;:true}" fill="#ffffff" fill-rule="nonzero" stroke-linecap="square" stroke-linejoin="miter" stroke-miterlimit="10" stroke-dasharray="" stroke-dashoffset="0" style="mix-blend-mode: normal"><path d="M243.80468,170.17186h-10.5c-2.14583,0 -3.21875,-0.79687 -3.21875,-2.39062c0,-0.67708 0.19792,-1.21354 0.59375,-1.60937c0.39583,-0.39583 1.27083,-0.59375 2.625,-0.59375h11.82813c2.19792,0 3.54167,0.21354 4.03125,0.64063c0.5,0.42708 0.75,1.02604 0.75,1.79688c0,0.52083 -0.13021,1 -0.39062,1.4375c-0.26042,0.42708 -1.17708,1.63542 -2.75,3.625c-1.5625,1.98958 -2.89583,4.34896 -4,7.07813c-1.10417,2.71875 -2.15104,6.55208 -3.14062,11.5c-0.33333,1.84375 -1.22396,2.76563 -2.67187,2.76563c-0.75,0 -1.38021,-0.26042 -1.89062,-0.78125c-0.5,-0.53125 -0.75,-1.32292 -0.75,-2.375c0,-2.03125 0.82292,-5.09896 2.46875,-9.20312c1.65625,-4.11458 3.99479,-8.07812 7.01563,-11.89062z" stroke="#000000" stroke-width="5"/><path d="M243.80468,170.17186h-10.5c-2.14583,0 -3.21875,-0.79687 -3.21875,-2.39062c0,-0.67708 0.19792,-1.21354 0.59375,-1.60937c0.39583,-0.39583 1.27083,-0.59375 2.625,-0.59375h11.82813c2.19792,0 3.54167,0.21354 4.03125,0.64063c0.5,0.42708 0.75,1.02604 0.75,1.79688c0,0.52083 -0.13021,1 -0.39062,1.4375c-0.26042,0.42708 -1.17708,1.63542 -2.75,3.625c-1.5625,1.98958 -2.89583,4.34896 -4,7.07813c-1.10417,2.71875 -2.15104,6.55208 -3.14062,11.5c-0.33333,1.84375 -1.22396,2.76563 -2.67187,2.76563c-0.75,0 -1.38021,-0.26042 -1.89062,-0.78125c-0.5,-0.53125 -0.75,-1.32292 -0.75,-2.375c0,-2.03125 0.82292,-5.09896 2.46875,-9.20312c1.65625,-4.11458 3.99479,-8.07812 7.01563,-11.89062z" stroke="none" stroke-width="0"/></g></g></svg>