<svg version="1.1" xmlns="http://www.w3.org/2000/svg" xmlns:xlink="http://www.w3.org/1999/xlink" width="232.10142" height="317.56136" viewBox="0,0,232.10142,317.56136"><g transform="translate(-135.60292,-4.12733)"><g data-paper-data="{&quot;isPaintingLayer&quot;:true}" fill-rule="nonzero" stroke-linecap="butt" stroke-linejoin="miter" stroke-miterlimit="10" stroke-dasharray="" stroke-dashoffset="0" style="mix-blend-mode: normal"><path d="M230.35064,171.95555c0,-3.87193 0,-11.48111 0,-13.86248c0,-1.39394 1.76312,-2.98995 3.26176,-2.98995c2.14557,0 8.2061,0 12.2316,0c2.20913,0 3.80539,1.937 3.80539,3.53357c0,2.35519 0,9.09583 0,12.91114c0,1.62411 -1.62362,2.56921 -2.98995,2.85404c-2.25908,0.47095 -8.81247,0.90337 -13.28082,0.29958c-1.78436,-0.24111 -3.02798,-1.34666 -3.02798,-2.7459z" fill="#99acad" stroke="#000000" stroke-width="2.25"/><path d="M231.16608,158.7726v-3.39767h17.39606v3.39767z" fill="#566f6e" stroke="none" stroke-width="0"/><path d="M230.35064,171.95556c0,-3.87193 0,-11.48111 0,-13.86249c0,-1.39395 1.76312,-2.98994 3.26176,-2.98994c2.14556,0 8.20609,0 12.2316,0c2.20913,0 3.80539,1.937 3.80539,3.53357c0,2.3552 0,9.09583 0,12.91114c0,1.62411 -1.21591,2.97692 -2.98995,2.85404c-1.98727,0.33505 -9.35609,0.49565 -13.28082,0.29958c-1.78436,-0.24112 -3.02798,-1.34666 -3.02798,-2.7459z" fill="none" stroke="#000000" stroke-width="2.25"/><path d="M233.6124,163.97589v-3.02878h3.26176v3.02878z" fill="#516967" stroke="none" stroke-width="0"/><path d="M238.50504,163.97588v-3.02878h3.26176v3.02878z" fill="#516967" stroke="none" stroke-width="0"/><path d="M243.26177,163.97588v-3.02878h3.26176v3.02878z" fill="#516967" stroke="none" stroke-width="0"/><path d="M233.6124,168.189v-3.02878h3.26176v3.02878z" fill="#516967" stroke="none" stroke-width="0"/><path d="M238.50504,168.18899v-3.02878h3.26176v3.02878z" fill="#516967" stroke="none" stroke-width="0"/><path d="M243.26177,168.18899v-3.02878h3.26176v3.02878z" fill="#516967" stroke="none" stroke-width="0"/><path d="M233.6124,172.13029v-3.02878h3.26176v3.02878z" fill="#516967" stroke="none" stroke-width="0"/><path d="M238.50504,172.13028v-3.02878h3.26176v3.02878z" fill="#516967" stroke="none" stroke-width="0"/><path d="M243.26177,172.13028v-3.02878h3.26176v3.02878z" fill="#516967" stroke="none" stroke-width="0"/><path d="M135.60292,321.68869v-317.56136h232.10142v317.56136z" fill="none" stroke="none" stroke-width="0"/></g></g></svg>