<svg version="1.1" xmlns="http://www.w3.org/2000/svg" xmlns:xlink="http://www.w3.org/1999/xlink" width="454" height="364" viewBox="0,0,454,364"><defs><linearGradient x1="240.82345" y1="40.19998" x2="240.82345" y2="96.62525" gradientUnits="userSpaceOnUse" id="color-1"><stop offset="0" stop-color="#000000" stop-opacity="0"/><stop offset="1" stop-color="#000000"/></linearGradient></defs><g transform="translate(-13.5,1.10001)"><g data-paper-data="{&quot;isPaintingLayer&quot;:true}" fill-rule="nonzero" stroke-miterlimit="10" stroke-dasharray="" stroke-dashoffset="0" style="mix-blend-mode: normal"><path d="M24.75,62.09998v-11.5h361.5v11.5z" fill="#000000" stroke="none" stroke-width="0" stroke-linecap="butt" stroke-linejoin="miter"/><path d="M14.5,61.89999v-63h453v63h-233.33782c-1.72905,-2.76922 -4.96077,-4.63235 -8.66218,-4.63235c-3.70141,0 -6.93313,1.86313 -8.66218,4.63235h-26.92534c-2.00032,-0.50599 -4.06402,-0.90346 -6.41248,-0.92647c-12.94891,-0.12686 -26.03269,-0.18035 -39,0c-0.95976,0.01335 -1.92461,-0.02274 -2.88659,-0.02638c-1.81289,-1.69976 -4.33038,-2.75303 -7.11341,-2.75303c-3.27164,0 -106.67631,-2.2503 -108.50073,0z" fill="#000000" stroke="none" stroke-width="0" stroke-linecap="butt" stroke-linejoin="miter"/><path d="M133.16431,29.5698c8.07945,0 99.51665,0 115.70212,0c1.5784,0 2.44116,1.74484 2.44116,4.47643c0,6.37767 0,18.13432 0,25.62121c-0.50372,0.08551 -1.0083,0.14848 -1.51426,0.17457c-0.938,0.04837 -1.86006,-0.45071 -2.78991,-0.6785c-2.60578,-0.63833 -6.9114,-1.87221 -9.82417,-2.11391c-3.22811,-0.26786 -6.46314,0.04099 -9.69456,-0.00463c-5.51257,-0.07782 -11.25941,-0.42039 -16.7656,-1.08304c-0.54464,-0.06555 -1.06133,-0.53135 -1.60676,-0.57029c-6.22709,-0.44464 -12.45626,0.66624 -18.67311,1.09411c-1.83623,0.12638 -3.50479,-0.42128 -5.35851,-0.55406c-3.34296,-0.23944 -6.73067,-0.00694 -10.08071,-0.00694c-1.56314,0.03096 -3.07604,-0.55527 -4.6529,-0.55955c-2.28609,-0.00621 -4.5864,0.56381 -6.85804,0.10096c-0.55329,-0.11274 -1.00329,-0.93795 -1.55097,-1.11911c-0.39379,-0.13025 -3.48236,-0.10096 -3.99873,-0.10096c-2.83993,0 -5.71087,0.29338 -8.54485,0.00575c-4.36819,-0.44333 -8.82929,-2.02492 -13.2161,-1.08755c-1.67104,0.35707 -3.27559,1.38185 -4.91567,2.07167c0,-7.43464 0,-16.62806 0,-21.74928c0,-2.40896 0.77657,-3.91687 1.90155,-3.91687z" data-paper-data="{&quot;index&quot;:null}" fill="#000000" stroke="#000000" stroke-width="5" stroke-linecap="butt" stroke-linejoin="miter"/><path d="M133.16431,46.65398c8.07945,0 99.51665,0 115.70212,0c1.5784,0 2.44116,0.49861 2.44116,1.2792c0,1.44546 0,9.59097 0,13.96681c-0.17332,0 -0.34662,0 -0.51994,0c-0.33095,-2.68571 -0.66234,-6.60026 -0.99432,-6.59537c-0.938,0.01382 -1.86006,-0.1288 -2.78991,-0.19389c-2.60578,-0.18241 -6.9114,-0.535 -9.82417,-0.60408c-3.22811,-0.07655 -6.46314,0.01172 -9.69456,-0.00132c-5.51257,-0.02224 -11.25941,-0.12013 -16.7656,-0.30949c-0.54464,-0.01873 -1.06133,-0.15183 -1.60676,-0.16296c-6.22709,-0.12706 -12.45626,0.19038 -18.67311,0.31265c-1.83623,0.03612 -3.50479,-0.12039 -5.35851,-0.15833c-3.34296,-0.06842 -6.73067,-0.00198 -10.08071,-0.00198c-1.56314,0.00885 -3.07604,-0.15868 -4.6529,-0.1599c-2.28609,-0.00178 -4.5864,0.16112 -6.85804,0.02886c-0.55329,-0.03222 -1.00329,-0.26803 -1.55097,-0.31981c-0.39379,-0.03722 -3.48236,-0.02885 -3.99873,-0.02885c-2.83993,0 -5.71087,0.08384 -8.54485,0.00164c-4.36819,-0.12669 -8.82929,-0.57864 -13.2161,-0.31077c-0.71523,0.04368 -4.03208,6.09818 -4.91567,6.29634c0,-4.12716 0,-11.02389 0,-11.91945c0,-0.68838 0.77657,-1.11929 1.90155,-1.11929z" data-paper-data="{&quot;index&quot;:null}" fill="#000000" stroke="#d9d9d9" stroke-width="5" stroke-linecap="butt" stroke-linejoin="miter"/><path d="M248.86642,20.63943c1.5784,0 2.44116,0.76024 2.44116,1.95042c0,2.77881 0,21.79799 0,25.06009c-0.50372,0.03726 -1.0083,-13.83202 -1.51426,-13.82065c-0.938,0.02108 -1.86006,-0.19638 -2.78991,-0.29563c-2.60578,-0.27813 -6.9114,-0.81574 -9.82417,-0.92105c-3.22811,-0.11671 -6.46314,0.01786 -9.69456,-0.00202c-5.51257,-0.03391 -11.25941,-0.18317 -16.7656,-0.47189c-0.54464,-0.02856 -1.06133,-0.23151 -1.60676,-0.24848c-6.22709,-0.19374 -12.45626,0.29029 -18.67309,0.47671c-1.83623,0.05506 -3.50479,-0.18355 -5.35851,-0.2414c-3.34296,-0.10432 -6.73067,-0.00303 -10.08071,-0.00303c-1.56314,0.01349 -3.07604,-0.24194 -4.6529,-0.2438c-2.28609,-0.00271 -4.5864,0.24566 -6.85804,0.04399c-0.55329,-0.04912 -1.00329,-0.40867 -1.55097,-0.4876c-0.39379,-0.05675 -3.48236,-0.04399 -3.99873,-0.04399c-2.83993,0 -5.71088,0.12782 -8.54485,0.0025c-4.36819,-0.19317 -8.82929,-0.88227 -13.2161,-0.47385c-1.67104,0.15558 -3.27559,14.9864 -4.91567,15.28696c0,-3.23933 0,-21.62931 0,-23.86067c0,-1.0496 0.77657,-1.70661 1.90155,-1.70661c0,0 99.51662,0.00001 115.70211,0.00001z" data-paper-data="{&quot;index&quot;:null}" fill="#000000" stroke="#d9d9d9" stroke-width="5" stroke-linecap="butt" stroke-linejoin="miter"/><path d="M230.59398,29.5698c8.07945,0 99.51665,0 115.70212,0c1.5784,0 2.44115,1.74485 2.44115,4.47643c0,6.37768 0,18.13432 0,25.6212c-0.50372,0.08551 -1.0083,0.14848 -1.51425,0.17458c-0.938,0.04837 -1.86006,-0.45071 -2.78991,-0.67849c-2.60577,-0.63833 -6.91141,-1.87221 -9.82417,-2.11391c-3.2281,-0.26785 -6.46314,0.04099 -9.69455,-0.00463c-5.51256,-0.07782 -11.25941,-0.42039 -16.76559,-1.08304c-0.54464,-0.06554 -1.06133,-0.53135 -1.60676,-0.5703c-6.22709,-0.44464 -12.45626,0.66625 -18.6731,1.09411c-1.83623,0.12638 -3.50479,-0.42128 -5.35852,-0.55405c-3.34296,-0.23944 -6.73066,-0.00695 -10.08071,-0.00695c-1.56314,0.03096 -3.07604,-0.55527 -4.6529,-0.55955c-2.28609,-0.00621 -4.5864,0.56381 -6.85804,0.10095c-0.55329,-0.11273 -1.00328,-0.93795 -1.55096,-1.11911c-0.39379,-0.13025 -3.48236,-0.10096 -3.99873,-0.10096c-2.83993,0 -5.71087,0.29339 -8.54485,0.00575c-4.36819,-0.44333 -8.82929,-2.02492 -13.21611,-1.08754c-1.67104,0.35707 -3.27559,1.38185 -4.91567,2.07167c0,-7.43464 0,-16.62806 0,-21.74928c0,-2.40895 0.77658,-3.91687 1.90155,-3.91687z" data-paper-data="{&quot;index&quot;:null}" fill="#000000" stroke="#000000" stroke-width="5" stroke-linecap="butt" stroke-linejoin="miter"/><path d="M348.73726,22.58984c0,2.77881 0,21.79799 0,25.06009c-0.50372,0.03725 -1.0083,-13.83202 -1.51425,-13.82065c-0.938,0.02107 -1.86006,-0.19637 -2.78991,-0.29563c-2.60577,-0.27812 -6.91141,-0.81575 -9.82417,-0.92105c-3.2281,-0.11671 -6.46313,0.01786 -9.69455,-0.00202c-5.51256,-0.03391 -11.25941,-0.18317 -16.76559,-0.47189c-0.54464,-0.02856 -1.06133,-0.23151 -1.60676,-0.24848c-6.22709,-0.19374 -12.45627,0.29029 -18.6731,0.47671c-1.83623,0.05506 -3.50478,-0.18356 -5.35851,-0.24141c-3.34296,-0.10432 -6.73067,-0.00303 -10.08071,-0.00303c-1.56314,0.0135 -3.07604,-0.24193 -4.65289,-0.2438c-2.28609,-0.0027 -4.5864,0.24567 -6.85804,0.04399c-0.55329,-0.04912 -1.00329,-0.40867 -1.55097,-0.48761c-0.39379,-0.05676 -3.48236,-0.04399 -3.99873,-0.04399c-2.83993,0 -5.71088,0.12783 -8.54485,0.00251c-4.36819,-0.19317 -8.82929,-0.88228 -13.21611,-0.47386c-1.67104,0.15558 -3.27559,14.9864 -4.91567,15.28696c0,-3.23934 0,-21.62931 0,-23.86067c0,-1.04961 0.77657,-1.70661 1.90155,-1.70661c0,0 99.51663,0 115.70211,0c0,0 2.44115,0.76026 2.44115,1.95044z" data-paper-data="{&quot;index&quot;:null}" fill="#000000" stroke="#d9d9d9" stroke-width="5" stroke-linecap="butt" stroke-linejoin="miter"/><path d="M347.22301,53.04901c-0.938,0.03979 -1.86006,-0.37085 -2.78991,-0.55831c-2.60577,-0.52524 -6.91141,-1.54058 -9.82417,-1.73944c-3.2281,-0.22041 -6.46313,0.03373 -9.69455,-0.00381c-5.51256,-0.06404 -11.25941,-0.34592 -16.76559,-0.89118c-0.54464,-0.05394 -1.06133,-0.43722 -1.60676,-0.46926c-6.22709,-0.36589 -12.45627,0.54822 -18.6731,0.90029c-1.83623,0.10398 -3.50478,-0.34666 -5.35851,-0.45591c-3.34296,-0.19701 -6.73067,-0.00572 -10.08071,-0.00572c-1.56314,0.0255 -3.07604,-0.45689 -4.65289,-0.46043c-2.28609,-0.0051 -4.5864,0.46396 -6.85804,0.08308c-0.55329,-0.09277 -1.00329,-0.77179 -1.55097,-0.92087c-0.39379,-0.10719 -3.48236,-0.08308 -3.99873,-0.08308c-2.83993,0 -5.71088,0.24141 -8.54485,0.00474c-4.36819,-0.36481 -8.82929,-1.66622 -13.21611,-0.8949c-0.89942,0.15814 -3.27958,-2.65466 -4.15638,4.96115c-0.69771,-0.45458 -2.95567,4.67557 -3.75929,4.40504c0,-12.34517 3,-22.78909 3,-25.55799c0,-1.98223 0.77657,-3.223 1.90155,-3.223c0,0 99.51663,0 115.70211,0c0,0 2.44115,1.43578 2.44115,3.68348c0,3.74487 0.5,15.60772 0.5,28.63041c-0.2274,-0.02432 -7.45664,-3.04027 -7.68717,-3.05025c-0.27534,-7.07261 5.94899,-4.36575 5.67292,-4.35403z" data-paper-data="{&quot;index&quot;:null}" fill="#000000" stroke="#d9d9d9" stroke-width="5" stroke-linecap="butt" stroke-linejoin="miter"/><path d="M230.59398,20.63942c8.07945,0 99.51665,0 115.70212,0c1.5784,0 2.44116,0.76024 2.44116,1.95042c0,2.77881 0,19.11616 0,22.37827c-0.50372,0.03725 -1.0083,0.30849 -1.51425,0.31987c-0.938,0.02107 -24.68758,3.83655 -27.94135,3.79341c-1.16054,-0.01539 -88.94914,-4.15045 -90.58922,-3.84989c0,-3.23934 0,-20.6541 0,-22.88546c0,-1.04961 0.77658,-1.70661 1.90155,-1.70661z" data-paper-data="{&quot;index&quot;:null}" fill="#272727" stroke="none" stroke-width="5" stroke-linecap="butt" stroke-linejoin="miter"/><path d="M346.2961,38.50018c1.5784,0 2.44116,0.6895 2.44116,1.76892c0,2.26867 0,14.50178 0,19.07951c-1.38596,-0.10489 -2.84073,0.00994 -4.23726,-0.03773c-3.92964,-0.13414 -8.83034,-0.22254 -12.60182,0.0914c-1.48429,0.12355 -2.90999,0.71373 -4.39818,0.61645h-1c0,0 -6.74605,-0.00001 -9.1565,3.92208c-0.75853,-0.36666 -1.49467,-0.78481 -2.37501,-0.8643c-7.28529,-0.6578 -14.6604,-0.64629 -21.99406,-0.92628c-6.33297,-0.24177 -12.68479,-0.26643 -19.00508,-0.63897c-1.45213,-0.08559 -2.80268,-0.59779 -4.24751,-0.73165c-3.70906,-0.34364 -7.48114,-0.05304 -11.22183,-0.05304c-7.73334,0 -15.46669,0 -23.20004,0c-0.71275,-2.48545 -3.26525,-4.498 -6.60752,-5.29444c0,-5.78013 0,-13.96554 0,-15.38415c0,-0.95194 0.77658,-1.54781 1.90155,-1.54781c8.07945,0 99.51664,0 115.70211,0z" data-paper-data="{&quot;index&quot;:null}" fill="#272727" stroke="none" stroke-width="5" stroke-linecap="butt" stroke-linejoin="miter"/><path d="M133.16431,20.63943c8.07945,0 99.51665,0 115.70212,0c1.5784,0 2.44116,0.76024 2.44116,1.95042c0,2.77881 0,19.11617 0,22.37827c-0.50372,0.03726 -1.0083,0.3085 -1.51426,0.31987c-0.938,0.02108 -24.68758,3.83656 -27.94135,3.79341c-1.16054,-0.01539 -88.94914,-4.15045 -90.58922,-3.84989c0,-1.54585 0,-6.3199 0,-11.13153c0,-5.27115 0,-10.58741 0,-11.75393c0,-1.0496 0.77657,-1.70661 1.90155,-1.70661z" data-paper-data="{&quot;index&quot;:null}" fill="#272727" stroke="none" stroke-width="5" stroke-linecap="butt" stroke-linejoin="miter"/><path d="M134.70716,38.50018c14.63483,0 180.26083,0 209.5786,0c2.85906,0 4.42183,0.74677 4.42183,1.91587c0,2.72959 0,18.77754 0,21.98185c-0.91242,0.0366 -1.8264,0.30304 -2.74287,0.31421c-1.00078,0.01219 -38.34965,-1.22663 -44.00405,-1.22663c-6.57353,0 -8.70651,-2.10111 -11.88085,0.74035c-28.08623,-0.69185 -118.26179,1.13187 -148.3901,0.55626c-1.45782,-0.20516 -2.98697,-0.31433 -4.56314,-0.31433c-1.19691,0 -2.3667,0.06296 -3.49874,0.18309c-1.36191,-0.01414 -2.17683,-0.01293 -2.36508,0.00577c0,-3.18194 0,-20.28822 0,-22.48005c0,-1.03101 1.40666,-1.67638 3.4444,-1.67638z" data-paper-data="{&quot;index&quot;:null}" fill="#272727" stroke="none" stroke-width="5" stroke-linecap="butt" stroke-linejoin="miter"/><path d="M202.18833,31.66245c0.34335,0 0.67465,0.04518 0.99391,0.13553c0.32528,0.09036 0.59635,0.24094 0.81321,0.45178c0.21686,0.2048 0.32528,0.47889 0.32528,0.82224c0,0.38552 -0.11144,0.68971 -0.33433,0.9126c-0.22287,0.22287 -0.48189,0.33432 -0.77705,0.33432c-0.13855,0 -0.34637,-0.03313 -0.62346,-0.09939c-0.27709,-0.07228 -0.54816,-0.10843 -0.81321,-0.10843c-0.38552,0 -0.68368,0.08434 -0.89453,0.253c-0.2048,0.16866 -0.34636,0.36745 -0.42468,0.59635c-0.07228,0.22287 -0.10843,0.41864 -0.10843,0.58731v11.81855c0,0.39756 -0.13252,0.73188 -0.39756,1.00295c-0.25901,0.27107 -0.59033,0.4066 -0.99391,0.4066c-0.40358,0 -0.73791,-0.13553 -1.00295,-0.4066c-0.25901,-0.27107 -0.38852,-0.60539 -0.38852,-1.00295v-11.80047c0,-1.09632 0.38552,-2.02096 1.15655,-2.77393c0.77104,-0.75297 1.9276,-1.12945 3.46967,-1.12945zM202.45036,36.63202c0.36745,0 0.67465,0.12048 0.92163,0.36142c0.24697,0.23493 0.37045,0.53912 0.37045,0.91259c0,0.36745 -0.12348,0.67165 -0.37045,0.9126c-0.24697,0.24094 -0.55418,0.36143 -0.92163,0.36143h-6.13516c-0.36745,0 -0.67465,-0.12048 -0.92163,-0.36143c-0.24697,-0.24094 -0.37046,-0.54514 -0.37046,-0.91259c0,-0.37347 0.12348,-0.67767 0.37046,-0.91259c0.24697,-0.24094 0.55418,-0.36142 0.92163,-0.36142zM208.27831,47.36629c0,0.39756 -0.13252,0.73187 -0.39757,1.00294c-0.25901,0.27107 -0.59032,0.4066 -0.99391,0.4066c-0.39757,0 -0.72887,-0.13553 -0.99392,-0.4066c-0.26504,-0.27107 -0.39756,-0.60539 -0.39756,-1.00294v-9.55061c0,-0.40358 0.13252,-0.74092 0.39756,-1.01199c0.26504,-0.27107 0.59635,-0.4066 0.99392,-0.4066c0.40358,0 0.7349,0.13553 0.99391,0.4066c0.26504,0.27107 0.39757,0.60839 0.39757,1.01199zM206.7513,34.89718c-0.52407,0 -0.89452,-0.08433 -1.11138,-0.253c-0.21686,-0.16867 -0.32528,-0.46984 -0.32528,-0.90355v-0.44275c0,-0.44575 0.11746,-0.74995 0.35239,-0.91259c0.24094,-0.16263 0.6084,-0.24396 1.10234,-0.24396c0.54213,0 0.92162,0.08735 1.13849,0.26204c0.21686,0.16866 0.32528,0.46685 0.32528,0.89452v0.44275c0,0.44576 -0.11746,0.74996 -0.35239,0.91259c-0.2289,0.16264 -0.60538,0.24396 -1.12945,0.24396zM217.55495,36.1712c1.13848,0 2.00288,0.24094 2.59321,0.72285c0.59636,0.47588 1.00596,1.11138 1.22884,1.9065c0.22287,0.78911 0.33432,1.66857 0.33432,2.63839v5.92734c0,0.39756 -0.13252,0.73187 -0.39757,1.00294c-0.25901,0.27107 -0.58731,0.4066 -0.98488,0.4066c-0.40358,0 -0.73791,-0.13554 -1.00294,-0.4066c-0.25901,-0.27107 -0.38853,-0.60539 -0.38853,-1.00294v-5.92734c0,-0.506 -0.06625,-0.9638 -0.19877,-1.3734c-0.12649,-0.40961 -0.36143,-0.7379 -0.70479,-0.98487c-0.33733,-0.24698 -0.82223,-0.37046 -1.45472,-0.37046c-0.61442,0 -1.13547,0.12349 -1.56316,0.37046c-0.42166,0.24698 -0.74394,0.57525 -0.96681,0.98487c-0.22287,0.40962 -0.33432,0.86742 -0.33432,1.3734v5.92734c0,0.39756 -0.13252,0.73187 -0.39757,1.00294c-0.25901,0.27107 -0.59033,0.4066 -0.99391,0.4066c-0.40358,0 -0.7379,-0.13554 -1.00295,-0.4066c-0.25901,-0.27107 -0.38853,-0.60539 -0.38853,-1.00294v-9.55061c0,-0.40358 0.12951,-0.74091 0.38853,-1.01198c0.26504,-0.27107 0.59936,-0.4066 1.00295,-0.4066c0.40358,0 0.7349,0.13553 0.99391,0.4066c0.26504,0.27107 0.39757,0.60839 0.39757,1.01198v0.99392l-0.35239,-0.07228c0.13855,-0.26505 0.33734,-0.54514 0.59635,-0.84031c0.26504,-0.3012 0.57526,-0.5813 0.93066,-0.84031c0.3554,-0.26505 0.75598,-0.47889 1.20173,-0.64152c0.45177,-0.16264 0.9397,-0.24396 1.46376,-0.24396zM234.73845,31.66245c0.39757,0 0.72586,0.13252 0.98488,0.39756c0.26504,0.25902 0.39757,0.59636 0.39757,1.01198v14.29429c0,0.39756 -0.13252,0.73187 -0.39757,1.00294c-0.25901,0.27107 -0.58731,0.4066 -0.98488,0.4066c-0.40358,0 -0.73791,-0.13553 -1.00294,-0.4066c-0.25901,-0.27107 -0.38853,-0.60539 -0.38853,-1.00294v-1.13849l0.51504,0.20781c0,0.20481 -0.10842,0.44877 -0.32528,0.73188c-0.21686,0.28312 -0.51202,0.56623 -0.88549,0.84935c-0.36745,0.27709 -0.80115,0.51202 -1.30112,0.70477c-0.49998,0.19276 -1.04512,0.28913 -1.63544,0.28913c-1.06018,0 -2.02397,-0.27408 -2.89138,-0.82224c-0.86139,-0.54816 -1.54207,-1.30414 -2.04204,-2.26793c-0.49998,-0.96379 -0.74995,-2.07216 -0.74995,-3.3251c0,-1.25896 0.24998,-2.37033 0.74995,-3.33413c0.49998,-0.96379 1.17462,-1.71978 2.02397,-2.26793c0.84935,-0.54816 1.78904,-0.82224 2.81911,-0.82224c0.66261,0 1.27101,0.09939 1.82519,0.29817c0.5602,0.19878 1.0421,0.45479 1.44569,0.76803c0.40961,0.30721 0.72586,0.62044 0.94874,0.9397c0.22287,0.31323 0.33433,0.57828 0.33433,0.79513l-0.83128,0.29817v-6.19841c0,-0.40358 0.12952,-0.73791 0.38853,-1.00295c0.26504,-0.27107 0.59935,-0.4066 1.00294,-0.4066zM230.06706,46.46274c0.67465,0 1.26498,-0.16867 1.77098,-0.50599c0.51201,-0.34335 0.90959,-0.80717 1.1927,-1.39148c0.28913,-0.5843 0.43371,-1.24088 0.43371,-1.96975c0,-0.7349 -0.14457,-1.39449 -0.43371,-1.97879c-0.28312,-0.59033 -0.68069,-1.05415 -1.1927,-1.39148c-0.50599,-0.34335 -1.09631,-0.51503 -1.77098,-0.51503c-0.66261,0 -1.24992,0.17167 -1.76194,0.51503c-0.50599,0.33733 -0.90355,0.80116 -1.19269,1.39148c-0.28312,0.5843 -0.42468,1.2439 -0.42468,1.97879c0,0.72888 0.14156,1.38546 0.42468,1.96975c0.28913,0.5843 0.68671,1.04812 1.19269,1.39148c0.51201,0.33733 1.09932,0.50599 1.76194,0.50599zM250.62914,36.1712c0.64454,0 1.23788,0.09939 1.78001,0.29817c0.54213,0.19878 1.00897,0.45479 1.40051,0.76803c0.39154,0.30721 0.69875,0.62044 0.92163,0.9397c0.22287,0.31323 0.33432,0.57828 0.33432,0.79513l-0.59635,0.29817v-1.68965c0,-0.40358 0.12952,-0.73791 0.38852,-1.00295c0.26504,-0.27107 0.59635,-0.4066 0.99391,-0.4066c0.40358,0 0.7349,0.13252 0.99392,0.39757c0.26503,0.25901 0.39756,0.59636 0.39756,1.01199v10.29153c0,1.34329 -0.28913,2.41852 -0.86742,3.2257c-0.57828,0.81321 -1.33727,1.40052 -2.27697,1.76195c-0.9397,0.36143 -1.94868,0.54214 -3.02692,0.54214c-0.31324,0 -0.71682,-0.03916 -1.21077,-0.11746c-0.48792,-0.07831 -0.95778,-0.17167 -1.40955,-0.2801c-0.44576,-0.1024 -0.78308,-0.2018 -1.01198,-0.29817c-0.46383,-0.19878 -0.78609,-0.44877 -0.9668,-0.74996c-0.17469,-0.3012 -0.20782,-0.62045 -0.09939,-0.95778c0.13855,-0.44575 0.36142,-0.74995 0.66863,-0.91259c0.30721,-0.16264 0.63249,-0.18372 0.97584,-0.06325c0.15059,0.04819 0.40359,0.14155 0.75899,0.28009c0.3554,0.13855 0.74394,0.26505 1.16559,0.37949c0.42768,0.11446 0.80417,0.17168 1.12945,0.17168c1.15656,0 2.01191,-0.2319 2.5661,-0.69574c0.55418,-0.4578 0.83127,-1.09632 0.83127,-1.91554v-2.01494l0.28009,0.20781c0,0.20481 -0.10541,0.44877 -0.31625,0.73188c-0.21084,0.28312 -0.49696,0.56623 -0.85838,0.84935c-0.36142,0.27709 -0.78911,0.51201 -1.28305,0.70477c-0.49394,0.19276 -1.018,0.28914 -1.57219,0.28914c-1.09631,0 -2.0842,-0.27408 -2.96367,-0.82224c-0.87344,-0.54816 -1.56617,-1.30413 -2.07819,-2.26793c-0.50599,-0.96379 -0.75899,-2.07216 -0.75899,-3.3251c0,-1.25896 0.25301,-2.37034 0.75899,-3.33413c0.51201,-0.96379 1.19872,-1.71978 2.06011,-2.26793c0.86139,-0.54816 1.82519,-0.82223 2.89139,-0.82223zM251.07188,38.71021c-0.69875,0 -1.31016,0.17167 -1.83423,0.51503c-0.52407,0.33733 -0.93368,0.80116 -1.22885,1.39148c-0.28913,0.5843 -0.4337,1.2439 -0.4337,1.97879c0,0.72888 0.14457,1.38546 0.4337,1.96975c0.29517,0.5843 0.70478,1.04812 1.22885,1.39148c0.52407,0.33733 1.13547,0.50599 1.83423,0.50599c0.70477,0 1.31919,-0.16867 1.84326,-0.50599c0.52407,-0.34335 0.93367,-0.80717 1.22884,-1.39148c0.29517,-0.5843 0.44275,-1.24088 0.44275,-1.96975c0,-0.7349 -0.14758,-1.39449 -0.44275,-1.97879c-0.29517,-0.59033 -0.70477,-1.05415 -1.22884,-1.39148c-0.52407,-0.34335 -1.13849,-0.51503 -1.84326,-0.51503zM270.15213,36.1712c0.39757,0 0.72586,0.13252 0.98487,0.39757c0.26503,0.25901 0.39757,0.59636 0.39757,1.01199v9.78554c0,0.39756 -0.13252,0.73187 -0.39757,1.00294c-0.25902,0.27107 -0.58731,0.4066 -0.98487,0.4066c-0.40359,0 -0.7379,-0.13553 -1.00295,-0.4066c-0.25902,-0.27107 -0.38853,-0.60539 -0.38853,-1.00294v-1.13849l0.51502,0.20781c0,0.20481 -0.10842,0.44877 -0.32528,0.73188c-0.21686,0.28312 -0.51201,0.56623 -0.88548,0.84935c-0.36745,0.27709 -0.80116,0.51202 -1.30113,0.70477c-0.49997,0.19276 -1.04512,0.28913 -1.63544,0.28913c-1.06018,0 -2.02396,-0.27408 -2.89138,-0.82224c-0.86139,-0.54816 -1.54207,-1.30414 -2.04204,-2.26793c-0.49997,-0.96379 -0.74996,-2.07216 -0.74996,-3.3251c0,-1.25896 0.24998,-2.37033 0.74996,-3.33413c0.49997,-0.96379 1.17462,-1.71978 2.02397,-2.26793c0.84935,-0.54816 1.78904,-0.82224 2.8191,-0.82224c0.66261,0 1.271,0.09939 1.82519,0.29817c0.56021,0.19878 1.04211,0.45479 1.44569,0.76803c0.40962,0.30721 0.72586,0.62044 0.94874,0.9397c0.22287,0.31323 0.33432,0.57828 0.33432,0.79513l-0.83127,0.29817v-1.68965c0,-0.40358 0.12952,-0.73791 0.38853,-1.00295c0.26503,-0.27107 0.59936,-0.4066 1.00295,-0.4066zM265.48074,46.46274c0.67465,0 1.26499,-0.16867 1.77099,-0.50599c0.51201,-0.34335 0.90958,-0.80717 1.19269,-1.39148c0.28913,-0.5843 0.4337,-1.24088 0.4337,-1.96975c0,-0.7349 -0.14457,-1.39449 -0.4337,-1.97879c-0.28312,-0.59033 -0.68068,-1.05415 -1.19269,-1.39148c-0.506,-0.34335 -1.09632,-0.51503 -1.77099,-0.51503c-0.66261,0 -1.24992,0.17167 -1.76194,0.51503c-0.506,0.33733 -0.90356,0.80116 -1.1927,1.39148c-0.28312,0.5843 -0.42468,1.2439 -0.42468,1.97879c0,0.72888 0.14155,1.38546 0.42468,1.96975c0.28913,0.5843 0.68671,1.04812 1.1927,1.39148c0.51201,0.33733 1.09933,0.50599 1.76194,0.50599zM281.04795,36.1712c1.23486,0 2.14444,0.29817 2.72875,0.89453c0.58429,0.59033 0.96983,1.35533 1.15656,2.29504l-0.39757,-0.20781l0.18975,-0.37046c0.18673,-0.3554 0.47285,-0.7349 0.85838,-1.13849c0.38552,-0.40961 0.84935,-0.75597 1.39148,-1.0391c0.54816,-0.28914 1.16258,-0.43372 1.84327,-0.43372c1.10836,0 1.95168,0.24094 2.52996,0.72285c0.57828,0.47588 0.97584,1.11138 1.19269,1.9065c0.21686,0.78911 0.32528,1.66857 0.32528,2.63839v5.92734c0,0.39756 -0.13252,0.73187 -0.39756,1.00294c-0.25902,0.27107 -0.59033,0.4066 -0.99392,0.4066c-0.39757,0 -0.72887,-0.13554 -0.99391,-0.4066c-0.25902,-0.27107 -0.38852,-0.60539 -0.38852,-1.00294v-5.92734c0,-0.506 -0.06326,-0.9638 -0.18975,-1.3734c-0.12048,-0.40961 -0.34335,-0.7379 -0.66863,-0.98487c-0.32529,-0.24698 -0.7891,-0.37046 -1.39148,-0.37046c-0.58429,0 -1.08427,0.12349 -1.49991,0.37046c-0.41564,0.24698 -0.72887,0.57525 -0.9397,0.98487c-0.20481,0.40962 -0.30721,0.86742 -0.30721,1.3734v5.92734c0,0.39756 -0.13252,0.73187 -0.39757,1.00294c-0.25902,0.27107 -0.59033,0.4066 -0.99391,0.4066c-0.39757,0 -0.72886,-0.13554 -0.99391,-0.4066c-0.25902,-0.27107 -0.38853,-0.60539 -0.38853,-1.00294v-5.92734c0,-0.506 -0.06326,-0.9638 -0.18975,-1.3734c-0.12048,-0.40961 -0.34335,-0.7379 -0.66863,-0.98487c-0.32529,-0.24698 -0.78911,-0.37046 -1.39148,-0.37046c-0.58429,0 -1.08426,0.12349 -1.49991,0.37046c-0.41564,0.24698 -0.72886,0.57525 -0.9397,0.98487c-0.20481,0.40962 -0.30721,0.86742 -0.30721,1.3734v5.92734c0,0.39756 -0.13252,0.73187 -0.39757,1.00294c-0.25902,0.27107 -0.59033,0.4066 -0.99391,0.4066c-0.40359,0 -0.73791,-0.13554 -1.00295,-0.4066c-0.25902,-0.27107 -0.38852,-0.60539 -0.38852,-1.00294v-9.55061c0,-0.40358 0.12952,-0.74091 0.38852,-1.01198c0.26503,-0.27107 0.59936,-0.4066 1.00295,-0.4066c0.40359,0 0.7349,0.13553 0.99391,0.4066c0.26503,0.27107 0.39757,0.60839 0.39757,1.01198v0.99392l-0.3524,-0.07228c0.13855,-0.26505 0.3313,-0.54514 0.57828,-0.84031c0.24698,-0.3012 0.54816,-0.5813 0.90355,-0.84031c0.3554,-0.26505 0.74695,-0.47889 1.17462,-0.64152c0.4337,-0.16264 0.90657,-0.24396 1.41859,-0.24396zM301.58869,49.01077c-1.31317,0 -2.45165,-0.27408 -3.41544,-0.82224c-0.96379,-0.54816 -1.70471,-1.29209 -2.22275,-2.23179c-0.51201,-0.9397 -0.76803,-2.0059 -0.76803,-3.1986c0,-1.38546 0.2801,-2.56611 0.84031,-3.54195c0.56021,-0.98187 1.2951,-1.73484 2.20469,-2.2589c0.91561,-0.52406 1.88241,-0.7861 2.90042,-0.7861c0.78308,0 1.524,0.16265 2.22275,0.48792c0.70477,0.31926 1.32522,0.76201 1.86133,1.32823c0.54213,0.5602 0.96981,1.21077 1.28305,1.95169c0.31926,0.74091 0.47888,1.52701 0.47888,2.35829c-0.01205,0.37347 -0.15963,0.67465 -0.44274,0.90355c-0.27709,0.2289 -0.59936,0.34335 -0.96681,0.34335h-8.8368l-0.69573,-2.31311h8.49344l-0.506,0.46985v-0.62346c-0.03614,-0.45177 -0.19577,-0.85236 -0.47889,-1.20173c-0.28312,-0.3554 -0.63852,-0.63851 -1.0662,-0.84935c-0.42166,-0.21084 -0.87042,-0.31625 -1.3463,-0.31625c-0.46383,0 -0.89754,0.06325 -1.30113,0.18975c-0.39757,0.12048 -0.74393,0.32829 -1.03909,0.62346c-0.29516,0.29517 -0.52707,0.68972 -0.69574,1.18366c-0.16867,0.48792 -0.253,1.11138 -0.253,1.87036c0,0.83127 0.17167,1.53604 0.51503,2.11432c0.34938,0.57828 0.79814,1.01801 1.3463,1.3192c0.54816,0.30118 1.12945,0.45178 1.74387,0.45178c0.57226,0 1.02705,-0.04518 1.36437,-0.13554c0.34335,-0.09638 0.61743,-0.20781 0.82224,-0.33432c0.21084,-0.13252 0.40058,-0.24697 0.56924,-0.34335c0.27709,-0.13855 0.53912,-0.20781 0.7861,-0.20781c0.33733,0 0.61743,0.11746 0.84031,0.35239c0.22891,0.2289 0.34335,0.49696 0.34335,0.80416c0,0.41564 -0.21685,0.79513 -0.65056,1.13849c-0.40359,0.33733 -0.9668,0.63551 -1.68965,0.89453c-0.72285,0.25301 -1.4698,0.37949 -2.24083,0.37949z" fill="#a8a8a8" stroke="#ffffff" stroke-width="0" stroke-linecap="square" stroke-linejoin="miter"/><path d="M146,41.24999c0,-5.66092 4.58908,-10.25 10.25,-10.25c5.66092,0 10.25,4.58908 10.25,10.25c0,5.66092 -4.58908,10.25 -10.25,10.25c-5.66092,0 -10.25,-4.58908 -10.25,-10.25z" fill="none" stroke="#a8a8a8" stroke-width="2" stroke-linecap="round" stroke-linejoin="round"/><path d="M166.5,41.24999h-20.5" fill="none" stroke="#a8a8a8" stroke-width="2" stroke-linecap="round" stroke-linejoin="round"/><path d="M156.25,30.99999c2.56381,2.80681 4.02082,6.44934 4.1,10.25c-0.07918,3.80066 -1.53619,7.44319 -4.1,10.25c-2.56381,-2.80681 -4.02082,-6.44934 -4.1,-10.25c0.07918,-3.80066 1.53619,-7.44319 4.1,-10.25z" fill="none" stroke="#a8a8a8" stroke-width="2" stroke-linecap="round" stroke-linejoin="round"/><path d="M13.5,362.9v-64h452v64z" fill="#000000" stroke="none" stroke-width="0" stroke-linecap="butt" stroke-linejoin="miter"/><path d="M124.49012,62.86665v-22.66667h232.66667v22.66667z" fill="url(#color-1)" stroke="none" stroke-width="0" stroke-linecap="butt" stroke-linejoin="miter"/><path d="M24.5,289.9c0,-22.24138 0,-181.48791 0,-219c0,-5.05554 3.36751,-7.9 9.5,-7.9c27.74759,0 112.10208,0 197.25,0c41.65497,0 83.49982,0 119,0c47.46542,0 83.58847,0 92.75,0c8.41215,0 11.5,3.98362 11.5,10.9c0,41.92404 0,191.60514 0,215c0,6.05485 -1.8453,10.10001 -10.5,10.10001c-68.64877,0 -379.96999,0 -411,0c-4.96203,0 -8.5,-4.04556 -8.5,-9.10001z" fill="none" stroke="#ffffff" stroke-width="3" stroke-linecap="butt" stroke-linejoin="miter"/></g></g></svg>