<svg version="1.1" xmlns="http://www.w3.org/2000/svg" xmlns:xlink="http://www.w3.org/1999/xlink" width="259.50864" height="104.96577" viewBox="0,0,259.50864,104.96577"><g transform="translate(-110.24568,-94.34949)"><g data-paper-data="{&quot;isPaintingLayer&quot;:true}" fill-rule="nonzero" stroke-linejoin="miter" stroke-miterlimit="10" stroke-dasharray="" stroke-dashoffset="0" style="mix-blend-mode: normal"><path d="M157.76526,191.29184c0,-6.09093 0,-20.31716 0,-23.11191c0,-0.91205 1.06396,-2.24516 2.60525,-2.24516c4.86981,0 31.84321,0 62.41757,0c39.3813,0 84.73687,0 96.5271,0c1.89192,0 2.91956,1.30927 2.91956,2.64136c0,3.14265 0,16.21313 0,22.3195c0,1.93416 -1.18202,3.16963 -3.34454,3.16963c-22.17519,0 -147.45029,0 -158.51969,0c-1.54129,0 -2.60525,-1.06771 -2.60525,-2.77343z" fill="#000000" stroke="#000000" stroke-width="10.5" stroke-linecap="butt"/><path d="M157.76527,191.29184c0,-6.09093 0,-20.31716 0,-23.11191c0,-0.91205 1.06396,-2.24516 2.60525,-2.24516c11.14236,0 138.0009,0 158.94466,0c1.89192,0 2.91956,1.30927 2.91956,2.64136c0,3.14265 0,16.21313 0,22.3195c0,1.93416 -1.18202,3.16963 -3.34454,3.16963c-22.17519,0 -147.45029,0 -158.51969,0c-1.54129,0 -2.60525,-1.06771 -2.60525,-2.77343z" fill="#000000" stroke="#00f000" stroke-width="5.5" stroke-linecap="butt"/><path d="M157.76527,191.29184c0,-6.09093 0,-20.31716 0,-23.11191c0,-0.91205 1.06396,-2.24516 2.60525,-2.24516c11.14236,0 138.0009,0 158.94466,0c1.89192,0 2.91956,1.30927 2.91956,2.64136c0,3.14265 0,16.21313 0,22.3195c0,1.93416 -1.18202,3.16963 -3.34454,3.16963c-22.17519,0 -147.45029,0 -158.51969,0c-1.54129,0 -2.60525,-1.06771 -2.60525,-2.77343z" fill="#000000" stroke="none" stroke-width="0" stroke-linecap="butt"/><path d="M208.43188,181.05388c0.29093,0 0.54508,0.10032 0.76245,0.30097c0.2207,0.20064 0.33106,0.45981 0.33106,0.7775c0,0.87615 -0.43975,1.7757 -1.31924,2.69867c-0.8795,0.92297 -2.12183,1.38445 -3.72698,1.38445c-1.9797,0 -3.45779,-0.61029 -4.43425,-1.83089c-0.97314,-1.22059 -1.4597,-2.71707 -1.4597,-4.48944c0,-1.91281 0.54508,-3.44942 1.63526,-4.60982c1.09017,-1.16374 2.50973,-1.7456 4.25869,-1.7456c1.50818,0 2.71708,0.41968 3.62666,1.25904c0.91293,0.83937 1.36941,1.66535 1.36941,2.47796c0,0.25749 -0.09865,0.49827 -0.29595,0.72233c-0.1973,0.2207 -0.46316,0.33107 -0.79756,0.33107c-0.29428,0 -0.52001,-0.08194 -0.67718,-0.24579c-0.15717,-0.16385 -0.37119,-0.4966 -0.64206,-0.99821c-0.26752,-0.50161 -0.63371,-0.88785 -1.09853,-1.15872c-0.46148,-0.27422 -0.96142,-0.41132 -1.49982,-0.41132c-1.03332,0 -1.85262,0.38792 -2.4579,1.16375c-0.60193,0.77248 -0.90291,1.8777 -0.90291,3.31566c0,1.43796 0.29596,2.50472 0.88786,3.20028c0.59524,0.69558 1.39616,1.04336 2.40272,1.04336c1.43127,0 2.39604,-0.69558 2.89431,-2.08672c0.1672,-0.46483 0.34277,-0.76412 0.52669,-0.89788c0.18392,-0.13376 0.38959,-0.20064 0.61698,-0.20064zM211.56906,184.32438v-5.85382c0,-1.02329 0.37621,-1.53493 1.12863,-1.53493c0.71899,0 1.08683,0.47319 1.10354,1.41957c0.47152,-0.94638 1.12528,-1.41957 1.96131,-1.41957c0.44142,0 0.89788,0.11537 1.3694,0.34611c0.47152,0.23074 0.70727,0.54676 0.70727,0.94804c0,0.27755 -0.09531,0.5083 -0.28592,0.69223c-0.19061,0.18058 -0.3946,0.27086 -0.61196,0.27086c-0.12038,0 -0.34109,-0.04849 -0.66213,-0.14547c-0.32103,-0.10032 -0.59024,-0.15048 -0.80759,-0.15048c-0.54508,0 -0.95139,0.27589 -1.21891,0.82766c-0.26752,0.55177 -0.40129,1.61687 -0.40129,3.19528v1.31924c0,0.58186 -0.02509,0.97479 -0.07525,1.17878c-0.04682,0.20064 -0.17054,0.38457 -0.37119,0.55177c-0.20064,0.16385 -0.43138,0.2458 -0.69223,0.2458c-0.25081,0 -0.47653,-0.07357 -0.67717,-0.22071c-0.20064,-0.15048 -0.3294,-0.32605 -0.38625,-0.5267c-0.05351,-0.20399 -0.08025,-0.58521 -0.08025,-1.14368zM225.45299,182.13235h-4.47941c0.02006,0.8494 0.25081,1.48979 0.69223,1.92117c0.44476,0.43139 0.97647,0.64708 1.59513,0.64708c0.7658,0 1.48477,-0.3344 2.15695,-1.00323c0.27422,-0.27755 0.47653,-0.44978 0.60695,-0.51666c0.13042,-0.06688 0.27756,-0.10032 0.44142,-0.10032c0.20399,0 0.37955,0.06353 0.52669,0.19061c0.14714,0.12708 0.22071,0.28592 0.22071,0.47654c0,0.51164 -0.35113,1.05171 -1.05339,1.62022c-0.69892,0.56515 -1.64864,0.84773 -2.84916,0.84773c-1.5249,0 -2.68196,-0.42972 -3.47117,-1.28915c-0.78921,-0.86278 -1.18381,-1.9797 -1.18381,-3.35078c0,-1.38445 0.3946,-2.50305 1.18381,-3.35579c0.78921,-0.85608 1.88606,-1.28413 3.29058,-1.28413c1.34098,0 2.37597,0.40463 3.10498,1.2139c0.73236,0.80593 1.09853,1.68207 1.09853,2.62845c0,0.418 -0.12206,0.74908 -0.36618,0.9932c-0.24077,0.24077 -0.74573,0.36116 -1.51487,0.36116zM220.97358,180.83817h4.15335c-0.02676,-0.75911 -0.23576,-1.33764 -0.62702,-1.73558c-0.39125,-0.39794 -0.87281,-0.59692 -1.44464,-0.59692c-1.21056,0 -1.90446,0.77749 -2.08169,2.3325zM235.02444,184.9263c-1.08683,0.85943 -2.15192,1.28915 -3.19528,1.28915c-0.98651,0 -1.74394,-0.25081 -2.2723,-0.75242c-0.52837,-0.50161 -0.79255,-1.11526 -0.79255,-1.84093c0,-0.61865 0.17891,-1.11859 0.53673,-1.49982c0.36116,-0.38123 0.75243,-0.64709 1.17377,-0.79757c0.4247,-0.15048 1.11525,-0.32437 2.07167,-0.52167c0.95641,-0.20064 1.72722,-0.38457 2.31243,-0.55177c-0.00669,-0.68889 -0.14379,-1.15371 -0.41131,-1.39449c-0.26752,-0.24412 -0.67383,-0.36618 -1.21892,-0.36618c-1.03667,0 -1.71385,0.28926 -2.03153,0.86779c-0.18059,0.32771 -0.34109,0.56181 -0.48154,0.70226c-0.1371,0.14045 -0.33608,0.21068 -0.59692,0.21068c-0.24077,0 -0.45982,-0.07859 -0.65712,-0.23576c-0.19395,-0.16052 -0.29093,-0.36618 -0.29093,-0.61698c0,-0.5919 0.32103,-1.15371 0.96309,-1.68542c0.64206,-0.5317 1.65031,-0.79756 3.02473,-0.79756c1.39448,0 2.41443,0.24077 3.05984,0.72232c0.6454,0.48154 0.94973,1.45468 0.91294,2.91939l-0.05016,2.14188c-0.0234,0.66213 0.04347,1.20219 0.20064,1.62022c0.16052,0.418 0.24077,0.73905 0.24077,0.96309c0,0.24077 -0.10701,0.45312 -0.32103,0.63705c-0.21068,0.18392 -0.44811,0.27589 -0.71229,0.27589c-0.46482,0 -0.95307,-0.42972 -1.46471,-1.28915zM234.87395,181.6257c-0.34109,0.13376 -0.90291,0.27923 -1.68542,0.4364c-0.78252,0.15383 -1.33763,0.33107 -1.66535,0.53171c-0.32438,0.20064 -0.48657,0.49325 -0.48657,0.87782c0,0.32771 0.12875,0.61698 0.38625,0.86779c0.26084,0.25081 0.62868,0.37621 1.10355,0.37621c0.50161,0 0.96811,-0.1371 1.3995,-0.41132c0.43138,-0.27755 0.69724,-0.60528 0.79756,-0.98316c0.10032,-0.37788 0.15048,-0.94304 0.15048,-1.69545zM239.8055,177.13628v-1.3694c0,-0.56515 0.0234,-0.94804 0.07022,-1.1487c0.04682,-0.20399 0.16888,-0.38457 0.36618,-0.54174c0.20064,-0.16052 0.43474,-0.24077 0.70226,-0.24077c0.24412,0 0.46482,0.0719 0.66213,0.2157c0.1973,0.14379 0.32605,0.31936 0.38625,0.5267c0.06353,0.20733 0.09531,0.54174 0.09531,1.00323v1.55499h0.44142c0.55845,0 0.92966,0.06856 1.11358,0.20566c0.18392,0.13376 0.27589,0.33274 0.27589,0.59693c0,0.5618 -0.46816,0.8427 -1.40451,0.8427h-0.42637v4.21355c0,0.56849 0.04013,0.95641 0.12039,1.16374c0.08026,0.20399 0.29595,0.30598 0.64708,0.30598c0.1672,0 0.35447,-0.0234 0.56181,-0.07022c0.21067,-0.04682 0.36618,-0.07023 0.4665,-0.07023c0.23075,0 0.41634,0.07525 0.55679,0.22573c0.14379,0.15048 0.2157,0.33107 0.2157,0.54174c0,0.74908 -0.78921,1.12361 -2.36761,1.12361c-0.76245,0 -1.32426,-0.14213 -1.68542,-0.42637c-0.35782,-0.28424 -0.58019,-0.63035 -0.66715,-1.03833c-0.08695,-0.40798 -0.13042,-0.93801 -0.13042,-1.59011v-4.37908h-0.30097c-0.67551,0 -1.01326,-0.27589 -1.01326,-0.82766c0,-0.54508 0.35447,-0.81763 1.06342,-0.81763zM251.86031,182.13235h-4.47941c0.02006,0.8494 0.25081,1.48979 0.69223,1.92117c0.44476,0.43139 0.97647,0.64708 1.59512,0.64708c0.7658,0 1.48477,-0.3344 2.15695,-1.00323c0.27422,-0.27755 0.47654,-0.44978 0.60695,-0.51666c0.13042,-0.06688 0.27756,-0.10032 0.44142,-0.10032c0.20399,0 0.37956,0.06353 0.5267,0.19061c0.14714,0.12708 0.2207,0.28592 0.2207,0.47654c0,0.51164 -0.35112,1.05171 -1.05338,1.62022c-0.69892,0.56515 -1.64864,0.84773 -2.84917,0.84773c-1.5249,0 -2.68195,-0.42972 -3.47116,-1.28915c-0.78921,-0.86278 -1.18381,-1.9797 -1.18381,-3.35078c0,-1.38445 0.3946,-2.50305 1.18381,-3.35579c0.78921,-0.85608 1.88606,-1.28413 3.29057,-1.28413c1.34098,0 2.37597,0.40463 3.10499,1.2139c0.73236,0.80593 1.09853,1.68207 1.09853,2.62845c0,0.418 -0.12206,0.74908 -0.36618,0.9932c-0.24077,0.24077 -0.74574,0.36116 -1.51488,0.36116zM247.38091,180.83817h4.15335c-0.02676,-0.75911 -0.23576,-1.33764 -0.62702,-1.73558c-0.39125,-0.39794 -0.87281,-0.59692 -1.44465,-0.59692c-1.21056,0 -1.90446,0.77749 -2.08169,2.3325zM269.7898,183.37134v-1.87102h-1.69544c-0.7959,0 -1.26073,-0.11537 -1.39449,-0.34611c-0.13376,-0.23408 -0.20064,-0.4364 -0.20064,-0.60695c0,-0.64206 0.41131,-0.9631 1.23397,-0.9631h2.68363c0.7357,0 1.20219,0.12541 1.3995,0.37621c0.1973,0.25081 0.29595,0.68554 0.29595,1.30419v1.78072c0,0.68554 -0.09029,1.15705 -0.27086,1.41454c-0.18059,0.25415 -0.77416,0.61029 -1.78072,1.06843c-1.00657,0.45814 -2.11847,0.68721 -3.33573,0.68721c-1.99642,0 -3.54975,-0.57686 -4.65998,-1.73057c-1.10689,-1.1537 -1.66034,-2.69032 -1.66034,-4.60982c0,-1.90279 0.55512,-3.43438 1.66536,-4.59477c1.11358,-1.1604 2.68697,-1.7406 4.72017,-1.7406c1.09017,0 2.0098,0.18058 2.75888,0.54174c0.75242,0.35782 1.30252,0.81597 1.65031,1.37442c0.34778,0.55845 0.52167,1.01493 0.52167,1.36941c0,0.29093 -0.11537,0.54676 -0.34611,0.76747c-0.23075,0.21737 -0.50829,0.32605 -0.83268,0.32605c-0.29428,0 -0.51832,-0.06688 -0.67216,-0.20064c-0.15383,-0.1371 -0.35949,-0.40297 -0.61698,-0.79757c-0.58521,-0.93635 -1.47308,-1.40451 -2.66356,-1.40451c-1.16374,0 -2.06665,0.3946 -2.70871,1.18381c-0.64206,0.78586 -0.9631,1.81083 -0.9631,3.07489c0,1.45133 0.3294,2.55822 0.98818,3.32068c0.66213,0.76246 1.5734,1.14368 2.73379,1.14368c1.03667,0 2.08672,-0.28926 3.15012,-0.86779zM280.07323,184.9263c-1.08683,0.85943 -2.15192,1.28915 -3.19528,1.28915c-0.98651,0 -1.74394,-0.25081 -2.27231,-0.75242c-0.52837,-0.50161 -0.79255,-1.11526 -0.79255,-1.84093c0,-0.61865 0.17891,-1.11859 0.53673,-1.49982c0.36115,-0.38123 0.75242,-0.64709 1.17377,-0.79757c0.4247,-0.15048 1.11525,-0.32437 2.07167,-0.52167c0.95641,-0.20064 1.72722,-0.38457 2.31243,-0.55177c-0.00669,-0.68889 -0.14379,-1.15371 -0.41131,-1.39449c-0.26752,-0.24412 -0.67383,-0.36618 -1.21892,-0.36618c-1.03667,0 -1.71385,0.28926 -2.03153,0.86779c-0.18059,0.32771 -0.3411,0.56181 -0.48155,0.70226c-0.13711,0.14045 -0.33608,0.21068 -0.59692,0.21068c-0.24077,0 -0.45982,-0.07859 -0.65712,-0.23576c-0.19395,-0.16052 -0.29093,-0.36618 -0.29093,-0.61698c0,-0.5919 0.32103,-1.15371 0.96309,-1.68542c0.64206,-0.5317 1.65031,-0.79756 3.02473,-0.79756c1.39449,0 2.41444,0.24077 3.05985,0.72232c0.6454,0.48154 0.94973,1.45468 0.91293,2.91939l-0.05016,2.14188c-0.0234,0.66213 0.04347,1.20219 0.20064,1.62022c0.16051,0.418 0.24077,0.73905 0.24077,0.96309c0,0.24077 -0.10701,0.45312 -0.32103,0.63705c-0.21067,0.18392 -0.44811,0.27589 -0.71229,0.27589c-0.46482,0 -0.95306,-0.42972 -1.46471,-1.28915zM279.92272,181.6257c-0.34109,0.13376 -0.90291,0.27923 -1.68542,0.4364c-0.78252,0.15383 -1.33764,0.33107 -1.66535,0.53171c-0.32438,0.20064 -0.48657,0.49325 -0.48657,0.87782c0,0.32771 0.12875,0.61698 0.38625,0.86779c0.26083,0.25081 0.62868,0.37621 1.10354,0.37621c0.50161,0 0.96811,-0.1371 1.3995,-0.41132c0.43139,-0.27755 0.69725,-0.60528 0.79757,-0.98316c0.10032,-0.37788 0.15048,-0.94304 0.15048,-1.69545zM297.40963,180.32153v3.93765c0,0.53839 -0.0234,0.91795 -0.07022,1.13866c-0.04347,0.2207 -0.16386,0.413 -0.36116,0.57686c-0.1973,0.16052 -0.43306,0.24077 -0.70727,0.24077c-0.26752,0 -0.49995,-0.07859 -0.69725,-0.23576c-0.1973,-0.16052 -0.32103,-0.3595 -0.37119,-0.59693c-0.05016,-0.23743 -0.07525,-0.61197 -0.07525,-1.12362v-3.33572c0,-0.97647 -0.11537,-1.58844 -0.34611,-1.8359c-0.23075,-0.24746 -0.54675,-0.37119 -0.94804,-0.37119c-0.418,0 -0.77081,0.11537 -1.0584,0.34611c-0.28759,0.23074 -0.48489,0.53338 -0.5919,0.90792c-0.10367,0.37119 -0.15551,0.95641 -0.15551,1.75565v2.53314c0,0.53839 -0.02174,0.9213 -0.06521,1.1487c-0.04013,0.22406 -0.16219,0.41467 -0.36618,0.57184c-0.20399,0.15717 -0.44142,0.23576 -0.71229,0.23576c-0.35113,0 -0.62702,-0.11873 -0.82766,-0.35615c-0.20064,-0.23743 -0.30097,-0.77081 -0.30097,-1.60015v-3.13508c0,-0.89287 -0.06688,-1.51655 -0.20064,-1.87102c-0.13376,-0.35782 -0.48322,-0.53672 -1.04837,-0.53672c-0.58521,0 -1.0467,0.18727 -1.38445,0.5618c-0.3344,0.37119 -0.50161,1.17044 -0.50161,2.39772v2.5833c0,0.52836 -0.0184,0.89956 -0.05519,1.11359c-0.03679,0.21068 -0.1555,0.40463 -0.35614,0.58186c-0.20064,0.1739 -0.43474,0.26084 -0.70226,0.26084c-0.25749,0 -0.49158,-0.07859 -0.70226,-0.23576c-0.20733,-0.15717 -0.33609,-0.34444 -0.38625,-0.56181c-0.05016,-0.2207 -0.07525,-0.60695 -0.07525,-1.15872v-5.52777c0,-0.52836 0.0234,-0.88619 0.07022,-1.07345c0.05016,-0.19061 0.1739,-0.35782 0.37119,-0.50161c0.1973,-0.14714 0.40965,-0.2207 0.63705,-0.2207c0.73236,0 1.09853,0.46483 1.09853,1.39449c0.76245,-0.92966 1.68207,-1.39449 2.75887,-1.39449c1.1537,0 1.9914,0.46483 2.51308,1.39449c0.77583,-0.92966 1.68207,-1.39449 2.71873,-1.39449c0.7959,0 1.47808,0.2207 2.04659,0.66213c0.56849,0.43807 0.85275,1.346 0.85275,2.72376zM305.99579,182.13235h-4.47941c0.02006,0.8494 0.25081,1.48979 0.69223,1.92117c0.44476,0.43139 0.97647,0.64708 1.59512,0.64708c0.7658,0 1.48477,-0.3344 2.15695,-1.00323c0.27422,-0.27755 0.47653,-0.44978 0.60695,-0.51666c0.13042,-0.06688 0.27756,-0.10032 0.44142,-0.10032c0.20399,0 0.37956,0.06353 0.5267,0.19061c0.14714,0.12708 0.2207,0.28592 0.2207,0.47654c0,0.51164 -0.35113,1.05171 -1.05339,1.62022c-0.69892,0.56515 -1.64864,0.84773 -2.84916,0.84773c-1.5249,0 -2.68196,-0.42972 -3.47117,-1.28915c-0.78921,-0.86278 -1.18381,-1.9797 -1.18381,-3.35078c0,-1.38445 0.3946,-2.50305 1.18381,-3.35579c0.78921,-0.85608 1.88606,-1.28413 3.29057,-1.28413c1.34098,0 2.37597,0.40463 3.10499,1.2139c0.73236,0.80593 1.09854,1.68207 1.09854,2.62845c0,0.418 -0.12206,0.74908 -0.36618,0.9932c-0.24077,0.24077 -0.74574,0.36116 -1.51488,0.36116zM301.51633,180.83817h4.15335c-0.02676,-0.75911 -0.23576,-1.33764 -0.62702,-1.73558c-0.39125,-0.39794 -0.87282,-0.59692 -1.44465,-0.59692c-1.21056,0 -1.90446,0.77749 -2.08169,2.3325z" fill="#00f000" stroke="none" stroke-width="1" stroke-linecap="square"/><g fill="none" stroke="#00f000" stroke-width="2.5" stroke-linecap="round"><path d="M176.12889,185.54225v-11.16629"/><path d="M170.54575,179.9591h11.16629"/></g><path d="M121.57989,105.87355l2.03142,-9.62553c0.27845,-1.26568 0.92395,-1.89853 1.9365,-1.89853c0.35439,0 0.6455,0.10758 0.87332,0.32275c0.22782,0.21517 0.34173,0.4683 0.34173,0.75941c0,0.29111 -0.07594,0.79105 -0.22782,1.49984l-2.3162,10.85957c-0.16454,0.79738 -0.31642,1.39226 -0.45565,1.78462c-0.13923,0.37971 -0.39236,0.7341 -0.75941,1.06318c-0.35439,0.32908 -0.82902,0.49362 -1.4239,0.49362c-0.50627,0 -0.87332,-0.12024 -1.10115,-0.36072c-0.22782,-0.25314 -0.53159,-0.81004 -0.91129,-1.6707l-4.17676,-9.35974l-1.86056,8.80917c-0.15188,0.70879 -0.29111,1.20873 -0.41768,1.49984c-0.11391,0.27845 -0.32275,0.53159 -0.62651,0.75941c-0.30376,0.21517 -0.6455,0.32275 -1.0252,0.32275c-0.35439,0 -0.6455,-0.10126 -0.87332,-0.30376c-0.22782,-0.20251 -0.34173,-0.45565 -0.34173,-0.75941c0,-0.31642 0.07594,-0.8227 0.22782,-1.51882l2.3162,-10.9545c0.21517,-1.01255 0.39869,-1.67703 0.55057,-1.99345c0.15188,-0.31642 0.42401,-0.6012 0.81637,-0.85434c0.40502,-0.26579 0.82902,-0.39869 1.27201,-0.39869c0.45565,0 0.7784,0.10758 0.96825,0.32275c0.20251,0.21517 0.50627,0.76574 0.91129,1.65172zM134.77769,98.83002c1.87321,0 3.22117,0.58221 4.04386,1.74664c0.83535,1.15177 1.06318,2.61997 0.68347,4.40458c-0.39236,1.79727 -1.25303,3.2718 -2.582,4.42357c-1.32897,1.15177 -2.89209,1.72766 -4.68936,1.72766c-1.94915,0 -3.32875,-0.58221 -4.13879,-1.74664c-0.81004,-1.17709 -1.0252,-2.64528 -0.6455,-4.40458c0.37971,-1.79727 1.22771,-3.2718 2.54403,-4.42357c1.32897,-1.15177 2.92373,-1.72766 4.78429,-1.72766zM132.63236,108.87323c0.92395,0 1.72133,-0.34173 2.39214,-1.0252c0.68347,-0.69612 1.1581,-1.65172 1.4239,-2.86678c0.25314,-1.22771 0.18352,-2.18331 -0.20884,-2.86678c-0.37971,-0.69612 -1.03154,-1.04419 -1.95548,-1.04419c-0.89864,0 -1.68969,0.34807 -2.37316,1.04419c-0.68347,0.69612 -1.15177,1.65172 -1.40491,2.86678c-0.26579,1.22771 -0.20251,2.18331 0.18985,2.86678c0.39236,0.68347 1.03786,1.0252 1.9365,1.0252zM155.2941,109.4238c-1.6707,1.13912 -3.19586,1.70867 -4.57545,1.70867c-1.30365,0 -2.24026,-0.32908 -2.80982,-0.98723c-0.5569,-0.67081 -0.7341,-1.48718 -0.53159,-2.4491c0.1772,-0.8227 0.5569,-1.48718 1.13912,-1.99345c0.58221,-0.50627 1.17709,-0.85434 1.78462,-1.04419c0.60753,-0.20251 1.56945,-0.43666 2.88576,-0.70246c1.32897,-0.26579 2.39847,-0.50627 3.20851,-0.72144c0.18985,-0.91129 0.13923,-1.52515 -0.15188,-1.84157c-0.29111,-0.32908 -0.79738,-0.49362 -1.51882,-0.49362c-1.36694,0 -2.34784,0.38604 -2.94272,1.1581c-0.31642,0.43033 -0.58854,0.74043 -0.81637,0.93028c-0.21517,0.1772 -0.49995,0.26579 -0.85434,0.26579c-0.31642,0 -0.58221,-0.10126 -0.79738,-0.30376c-0.21517,-0.21517 -0.28478,-0.48729 -0.20884,-0.81637c0.16454,-0.78473 0.74676,-1.53148 1.74664,-2.24026c0.99989,-0.70879 2.41113,-1.06318 4.23372,-1.06318c1.8479,0 3.12624,0.32275 3.83502,0.96825c0.72144,0.63284 0.84801,1.92384 0.37971,3.873l-0.6455,2.82881c-0.21517,0.87332 -0.27845,1.58843 -0.18985,2.14534c0.0886,0.5569 0.10126,0.9809 0.03797,1.27201c-0.06329,0.31642 -0.26579,0.6012 -0.60753,0.85434c-0.32908,0.24048 -0.66448,0.36072 -1.00622,0.36072c-0.62018,0 -1.15177,-0.56956 -1.59476,-1.70867zM156.03452,105.05719c-0.49362,0.16454 -1.27834,0.35439 -2.35417,0.56956c-1.07583,0.20251 -1.86056,0.43666 -2.35417,0.70246c-0.49362,0.26579 -0.79105,0.65183 -0.89231,1.1581c-0.10126,0.44299 -0.01265,0.82902 0.26579,1.1581c0.27845,0.32908 0.72777,0.49362 1.34795,0.49362c0.67081,0 1.32897,-0.18352 1.97447,-0.55057c0.6455,-0.36705 1.08849,-0.79738 1.32897,-1.291c0.24048,-0.50627 0.4683,-1.25303 0.68347,-2.24026zM171.4035,106.06341c0.36705,0 0.63917,0.14555 0.81637,0.43666c0.18985,0.29111 0.25314,0.58854 0.18985,0.89231c-0.1772,0.81004 -0.84801,1.63906 -2.01244,2.48707c-1.15177,0.83535 -2.55036,1.25303 -4.19574,1.25303c-1.98712,0 -3.36672,-0.56323 -4.13879,-1.68969c-0.77207,-1.12646 -0.96825,-2.58833 -0.58854,-4.3856c0.37971,-1.82259 1.22139,-3.31609 2.52504,-4.48052c1.30365,-1.16443 2.92373,-1.74664 4.86023,-1.74664c1.50617,0 2.66427,0.39869 3.4743,1.19607c0.8227,0.78473 1.15177,1.55679 0.98723,2.3162c-0.07594,0.36705 -0.27212,0.67714 -0.58854,0.93028c-0.31642,0.24048 -0.65815,0.36072 -1.0252,0.36072c-0.44299,0 -0.75308,-0.18352 -0.93028,-0.55057c-0.36705,-0.84801 -0.74043,-1.37959 -1.12013,-1.59476c-0.37971,-0.22782 -0.81637,-0.34173 -1.30998,-0.34173c-0.96192,0 -1.78462,0.37337 -2.46809,1.12013c-0.68347,0.7341 -1.14545,1.65172 -1.38592,2.75286c-0.24048,1.13912 -0.16454,2.06939 0.22782,2.79083c0.40502,0.70879 1.06318,1.06318 1.97447,1.06318c0.51893,0 1.0252,-0.12024 1.51882,-0.36072c0.49362,-0.25314 0.95559,-0.62651 1.38592,-1.12013c0.43033,-0.50627 0.75941,-0.85434 0.98723,-1.04419c0.24048,-0.18985 0.5126,-0.28478 0.81637,-0.28478zM177.2988,99.09581l0.37971,-1.8036c0.15188,-0.74676 0.28478,-1.25303 0.39869,-1.51882c0.12657,-0.27845 0.34173,-0.51893 0.6455,-0.72144c0.31642,-0.21517 0.65183,-0.32275 1.00622,-0.32275c0.31642,0 0.58854,0.09493 0.81637,0.28478c0.22782,0.18985 0.35439,0.42401 0.37971,0.70246c0.02532,0.27845 -0.02532,0.72144 -0.15188,1.32897l-0.43666,2.05041h0.58854c0.7341,0 1.19607,0.09493 1.38592,0.28478c0.20251,0.1772 0.27212,0.43666 0.20884,0.7784c-0.16454,0.74676 -0.86699,1.12013 -2.10737,1.12013h-0.55057l-1.17709,5.58167c-0.16454,0.75941 -0.22149,1.27834 -0.17087,1.55679c0.05063,0.26579 0.30376,0.39869 0.75941,0.39869c0.22782,0 0.48096,-0.03164 0.75941,-0.09493c0.29111,-0.06329 0.50627,-0.09493 0.6455,-0.09493c0.30376,0 0.52526,0.10126 0.66448,0.30376c0.15188,0.18985 0.20251,0.42401 0.15188,0.70246c-0.21517,0.99989 -1.36694,1.49984 -3.45532,1.49984c-1.01255,0 -1.715,-0.18985 -2.10737,-0.56956c-0.39236,-0.37971 -0.59487,-0.83535 -0.60753,-1.36694c0,-0.54424 0.0886,-1.2467 0.26579,-2.10737l1.23404,-5.80949h-0.39869c-0.88598,0 -1.25303,-0.36072 -1.10115,-1.08216c0.16454,-0.7341 0.71511,-1.10115 1.65172,-1.10115zM187.33597,94.48239c0.39236,0 0.69612,0.14555 0.91129,0.43666c0.22782,0.29111 0.30376,0.63284 0.22782,1.0252c-0.0886,0.40502 -0.31009,0.75308 -0.66448,1.04419c-0.34173,0.29111 -0.70879,0.43666 -1.10115,0.43666c-0.40502,0 -0.72144,-0.14555 -0.94926,-0.43666c-0.22782,-0.29111 -0.29743,-0.63917 -0.20884,-1.04419c0.07594,-0.39236 0.29111,-0.7341 0.6455,-1.0252c0.35439,-0.29111 0.7341,-0.43666 1.13912,-0.43666zM187.37394,101.2981l-1.55679,7.32831c-0.15188,0.72144 -0.29111,1.21506 -0.41768,1.48085c-0.11391,0.26579 -0.32908,0.50627 -0.6455,0.72144c-0.31642,0.20251 -0.63284,0.30376 -0.94926,0.30376c-0.32908,0 -0.61386,-0.10126 -0.85434,-0.30376c-0.22782,-0.20251 -0.34807,-0.44299 -0.36072,-0.72144c-0.01265,-0.27845 0.05696,-0.77207 0.20884,-1.48085l1.53781,-7.29034c0.15188,-0.67081 0.27845,-1.14545 0.37971,-1.4239c0.11391,-0.27845 0.32908,-0.52526 0.6455,-0.74043c0.32908,-0.22782 0.67081,-0.34173 1.0252,-0.34173c0.35439,0 0.63917,0.10126 0.85434,0.30376c0.21517,0.18985 0.32275,0.43666 0.32275,0.74043c0.01265,0.30376 -0.05063,0.7784 -0.18985,1.4239zM193.74479,107.60121l4.15777,-7.17643c0.41768,-0.72144 0.75308,-1.16443 1.00622,-1.32897c0.26579,-0.1772 0.54424,-0.26579 0.83535,-0.26579c0.40502,0 0.70879,0.13923 0.91129,0.41768c0.20251,0.27845 0.27212,0.56323 0.20884,0.85434c-0.05063,0.26579 -0.31009,0.77207 -0.7784,1.51882l-4.44255,7.19542c-0.60753,1.0252 -1.08849,1.6707 -1.44288,1.9365c-0.34173,0.25314 -0.74043,0.37971 -1.19607,0.37971c-0.58221,0 -0.97458,-0.16454 -1.17709,-0.49362c-0.18985,-0.32908 -0.36705,-0.93661 -0.53159,-1.82259l-1.38592,-7.11948c-0.13923,-0.72144 -0.1772,-1.24037 -0.11391,-1.55679c0.06329,-0.31642 0.26579,-0.61386 0.60753,-0.89231c0.34173,-0.27845 0.71511,-0.41768 1.12013,-0.41768c0.4683,0 0.76574,0.1329 0.89231,0.39869c0.12657,0.25314 0.24048,0.75308 0.34173,1.49984zM209.96563,105.72167h-5.9234c-0.21517,1.12646 -0.0886,1.97447 0.37971,2.54403c0.4683,0.56956 1.1138,0.85434 1.9365,0.85434c1.01255,0 2.05674,-0.44299 3.13257,-1.32897c0.44299,-0.36705 0.75941,-0.59487 0.94926,-0.68347c0.18985,-0.0886 0.39236,-0.1329 0.60753,-0.1329c0.27845,0 0.49362,0.0886 0.6455,0.26579c0.16454,0.16454 0.21517,0.37337 0.15188,0.62651c-0.13923,0.67081 -0.75308,1.38592 -1.84157,2.14534c-1.07583,0.74676 -2.41113,1.12013 -4.00589,1.12013c-2.02509,0 -3.44266,-0.56956 -4.2527,-1.70867c-0.79738,-1.15177 -0.99989,-2.63262 -0.60753,-4.44255c0.37971,-1.83524 1.21506,-3.31609 2.50606,-4.44255c1.291,-1.13912 2.86678,-1.70867 4.72733,-1.70867c1.78462,0 3.04397,0.53792 3.77807,1.61375c0.7341,1.07583 0.96825,2.24026 0.70246,3.49329c-0.11391,0.54424 -0.36705,0.9809 -0.75941,1.30998c-0.39236,0.31642 -1.10115,0.47463 -2.12635,0.47463zM204.42193,104.013h5.50573c0.1772,-1.01255 0.05696,-1.77828 -0.36072,-2.29722c-0.40502,-0.53159 -0.98723,-0.79738 -1.74664,-0.79738c-1.59476,0 -2.72755,1.03154 -3.39836,3.0946zM231.03906,100.89941l0.09493,-0.41768c0.11391,-0.54424 0.3354,-0.95559 0.66448,-1.23404c0.34173,-0.27845 0.72144,-0.41768 1.13912,-0.41768c0.45565,0 0.77207,0.16454 0.94926,0.49362c0.1772,0.31642 0.15188,1.00622 -0.07594,2.06939l-1.72766,8.10671c-0.51893,2.41746 -1.37327,4.03753 -2.56301,4.86023c-1.18974,0.83535 -2.74021,1.25303 -4.65139,1.25303c-1.72133,0 -2.99967,-0.32275 -3.83502,-0.96825c-0.83535,-0.63284 -1.17709,-1.30365 -1.0252,-2.01244c0.07594,-0.37971 0.26579,-0.6898 0.56956,-0.93028c0.30376,-0.22782 0.63284,-0.34173 0.98723,-0.34173c0.31642,0 0.55057,0.07594 0.70246,0.22782c0.16454,0.15188 0.41135,0.5126 0.74043,1.08216c0.32908,0.56956 1.0252,0.85434 2.08838,0.85434c0.59487,0 1.16443,-0.09493 1.70867,-0.28478c0.54424,-0.1772 0.98723,-0.49995 1.32897,-0.96825c0.34173,-0.4683 0.69612,-1.60742 1.06318,-3.41735c-1.2024,1.32897 -2.60731,1.99345 -4.21473,1.99345c-1.54414,0 -2.63895,-0.57589 -3.28445,-1.72766c-0.6455,-1.15177 -0.7784,-2.63262 -0.39869,-4.44255c0.37971,-1.78462 1.13912,-3.20218 2.27823,-4.2527c1.15177,-1.06318 2.46809,-1.59476 3.94894,-1.59476c1.62008,0 2.79083,0.6898 3.51228,2.06939zM224.29929,104.92429c-0.24048,1.17709 -0.17087,2.07572 0.20884,2.69591c0.37971,0.60753 1.01255,0.91129 1.89853,0.91129c0.77207,0 1.50617,-0.29743 2.20229,-0.89231c0.69612,-0.59487 1.17076,-1.48718 1.4239,-2.67692c0.25314,-1.17709 0.18985,-2.10737 -0.18985,-2.79083c-0.37971,-0.68347 -1.01255,-1.0252 -1.89853,-1.0252c-0.86067,0 -1.62008,0.32275 -2.27823,0.96825c-0.6455,0.63284 -1.10115,1.56945 -1.36694,2.80982zM242.19291,109.4238c-1.6707,1.13912 -3.19586,1.70867 -4.57545,1.70867c-1.30365,0 -2.24026,-0.32908 -2.80982,-0.98723c-0.5569,-0.67081 -0.7341,-1.48718 -0.53159,-2.4491c0.1772,-0.8227 0.5569,-1.48718 1.13912,-1.99345c0.58221,-0.50627 1.17709,-0.85434 1.78462,-1.04419c0.60753,-0.20251 1.56945,-0.43666 2.88576,-0.70246c1.32897,-0.26579 2.39847,-0.50627 3.20851,-0.72144c0.18985,-0.91129 0.13923,-1.52515 -0.15188,-1.84157c-0.29111,-0.32908 -0.79738,-0.49362 -1.51882,-0.49362c-1.36694,0 -2.34784,0.38604 -2.94272,1.1581c-0.31642,0.43033 -0.58854,0.74043 -0.81637,0.93028c-0.21517,0.1772 -0.49995,0.26579 -0.85434,0.26579c-0.31642,0 -0.58221,-0.10126 -0.79738,-0.30376c-0.21517,-0.21517 -0.28478,-0.48729 -0.20884,-0.81637c0.16454,-0.78473 0.74676,-1.53148 1.74664,-2.24026c0.99989,-0.70879 2.41113,-1.06318 4.23372,-1.06318c1.8479,0 3.12624,0.32275 3.83502,0.96825c0.72144,0.63284 0.84801,1.92384 0.37971,3.873l-0.6455,2.82881c-0.21517,0.87332 -0.27845,1.58843 -0.18985,2.14534c0.0886,0.5569 0.10126,0.9809 0.03797,1.27201c-0.06329,0.31642 -0.26579,0.6012 -0.60753,0.85434c-0.32908,0.24048 -0.66448,0.36072 -1.00622,0.36072c-0.62018,0 -1.15177,-0.56956 -1.59476,-1.70867zM242.93333,105.05719c-0.49362,0.16454 -1.27834,0.35439 -2.35417,0.56956c-1.07583,0.20251 -1.86056,0.43666 -2.35417,0.70246c-0.49362,0.26579 -0.79105,0.65183 -0.89231,1.1581c-0.10126,0.44299 -0.01265,0.82902 0.26579,1.1581c0.27845,0.32908 0.72777,0.49362 1.34795,0.49362c0.67081,0 1.32897,-0.18352 1.97447,-0.55057c0.6455,-0.36705 1.08849,-0.79738 1.32897,-1.291c0.24048,-0.50627 0.4683,-1.25303 0.68347,-2.24026zM266.44696,103.32953l-1.10115,5.20196c-0.15188,0.72144 -0.29111,1.22771 -0.41768,1.51882c-0.11391,0.29111 -0.32908,0.54424 -0.6455,0.75941c-0.30376,0.21517 -0.63284,0.32275 -0.98723,0.32275c-0.35439,0 -0.6455,-0.10758 -0.87332,-0.32275c-0.21517,-0.21517 -0.32275,-0.47463 -0.32275,-0.7784c0,-0.31642 0.07594,-0.81637 0.22782,-1.49984l0.93028,-4.40458c0.27845,-1.291 0.29743,-2.10103 0.05696,-2.43011c-0.22782,-0.32908 -0.60753,-0.49362 -1.13912,-0.49362c-0.5569,0 -1.05684,0.15188 -1.49984,0.45565c-0.44299,0.30376 -0.79105,0.70246 -1.04419,1.19607c-0.24048,0.49362 -0.4683,1.26568 -0.68347,2.3162l-0.72144,3.36039c-0.15188,0.72144 -0.29111,1.23404 -0.41768,1.53781c-0.11391,0.29111 -0.32908,0.54424 -0.6455,0.75941c-0.31642,0.20251 -0.65183,0.30376 -1.00622,0.30376c-0.4683,0 -0.80371,-0.15821 -1.00622,-0.47463c-0.20251,-0.31642 -0.18352,-1.0252 0.05696,-2.12635l0.87332,-4.13879c0.25314,-1.18974 0.34173,-2.01877 0.26579,-2.48707c-0.07594,-0.4683 -0.48729,-0.70246 -1.23404,-0.70246c-0.77207,0 -1.43655,0.24681 -1.99345,0.74043c-0.5569,0.49362 -1.00622,1.55046 -1.34795,3.17054l-0.72144,3.41735c-0.15188,0.70879 -0.27845,1.2024 -0.37971,1.48085c-0.10126,0.27845 -0.31009,0.53792 -0.62651,0.7784c-0.31642,0.22782 -0.65183,0.34173 -1.00622,0.34173c-0.34173,0 -0.63284,-0.10126 -0.87332,-0.30376c-0.22782,-0.21517 -0.34173,-0.4683 -0.34173,-0.75941c0,-0.29111 0.07594,-0.80371 0.22782,-1.53781l1.55679,-7.30933c0.15188,-0.70879 0.28478,-1.18342 0.39869,-1.4239c0.11391,-0.25314 0.32275,-0.47463 0.62651,-0.66448c0.30376,-0.20251 0.60753,-0.30376 0.91129,-0.30376c0.96192,0 1.30998,0.62018 1.04419,1.86056c1.27834,-1.24037 2.63262,-1.86056 4.06285,-1.86056c1.53148,0 2.50606,0.62018 2.92373,1.86056c1.291,-1.24037 2.6263,-1.86056 4.00589,-1.86056c1.05052,0 1.88587,0.29743 2.50606,0.89231c0.63284,0.58221 0.75308,1.78462 0.36072,3.6072zM277.29534,105.72167h-5.9234c-0.21517,1.12646 -0.0886,1.97447 0.37971,2.54403c0.4683,0.56956 1.1138,0.85434 1.9365,0.85434c1.01255,0 2.05674,-0.44299 3.13257,-1.32897c0.44299,-0.36705 0.75941,-0.59487 0.94926,-0.68347c0.18985,-0.0886 0.39236,-0.1329 0.60753,-0.1329c0.27845,0 0.49362,0.0886 0.6455,0.26579c0.16454,0.16454 0.21517,0.37337 0.15188,0.62651c-0.13923,0.67081 -0.75308,1.38592 -1.84157,2.14534c-1.07583,0.74676 -2.41113,1.12013 -4.00589,1.12013c-2.02509,0 -3.44266,-0.56956 -4.2527,-1.70867c-0.79738,-1.15177 -0.99989,-2.63262 -0.60753,-4.44255c0.37971,-1.83524 1.21506,-3.31609 2.50606,-4.44255c1.291,-1.13912 2.86678,-1.70867 4.72733,-1.70867c1.78462,0 3.04397,0.53792 3.77807,1.61375c0.7341,1.07583 0.96825,2.24026 0.70246,3.49329c-0.11391,0.54424 -0.36705,0.9809 -0.75941,1.30998c-0.39236,0.31642 -1.10115,0.47463 -2.12635,0.47463zM271.75164,104.013h5.50573c0.1772,-1.01255 0.05696,-1.77828 -0.36072,-2.29722c-0.40502,-0.53159 -0.98723,-0.79738 -1.74664,-0.79738c-1.59476,0 -2.72755,1.03154 -3.39836,3.0946zM285.43093,101.98157c-0.07594,0.39236 0.06329,0.70246 0.41768,0.93028c0.35439,0.21517 1.19607,0.49362 2.52504,0.83535c2.60731,0.67081 3.7401,1.80993 3.39836,3.41735c-0.26579,1.27834 -0.93661,2.25925 -2.01244,2.94272c-1.06318,0.68347 -2.42378,1.0252 -4.08183,1.0252c-1.68336,0 -2.87943,-0.34807 -3.58822,-1.04419c-0.70879,-0.69612 -0.9809,-1.43023 -0.81637,-2.20229c0.07594,-0.32908 0.25314,-0.61386 0.53159,-0.85434c0.29111,-0.24048 0.61386,-0.36072 0.96825,-0.36072c0.4683,0 0.81637,0.29743 1.04419,0.89231c0.26579,0.6455 0.61386,1.07583 1.04419,1.291c0.43033,0.20251 0.92395,0.30376 1.48085,0.30376c0.59487,0 1.10748,-0.1329 1.53781,-0.39869c0.44299,-0.26579 0.70879,-0.60753 0.79738,-1.0252c0.07594,-0.37971 -0.01899,-0.70246 -0.28478,-0.96825c-0.25314,-0.27845 -1.06318,-0.58221 -2.43011,-0.91129c-1.36694,-0.32908 -2.3162,-0.79105 -2.84779,-1.38592c-0.53159,-0.59487 -0.70879,-1.30365 -0.53159,-2.12635c0.20251,-0.92395 0.7784,-1.74031 1.72766,-2.4491c0.96192,-0.70879 2.24026,-1.06318 3.83502,-1.06318c1.4682,0 2.56934,0.30376 3.30344,0.91129c0.74676,0.59487 1.05684,1.21506 0.93028,1.86056c-0.07594,0.32908 -0.25314,0.61386 -0.53159,0.85434c-0.26579,0.22782 -0.59487,0.34173 -0.98723,0.34173c-0.58221,0 -1.03786,-0.3354 -1.36694,-1.00622c-0.31642,-0.67081 -0.94926,-1.00622 -1.89853,-1.00622c-0.50627,0 -0.97458,0.10758 -1.40491,0.32275c-0.41768,0.20251 -0.67081,0.49362 -0.75941,0.87332zM303.23166,99.09581l0.17087,-0.87332c0.32908,-1.54414 0.87332,-2.57567 1.63273,-3.0946c0.75941,-0.51893 1.73399,-0.7784 2.92373,-0.7784c1.92384,0 2.79083,0.43033 2.60098,1.291c-0.05063,0.26579 -0.18985,0.50627 -0.41768,0.72144c-0.22782,0.20251 -0.49362,0.30376 -0.79738,0.30376c-0.06329,0 -0.25314,-0.01899 -0.56956,-0.05696c-0.31642,-0.05063 -0.50627,-0.07594 -0.56956,-0.07594c-0.41768,0 -0.78473,0.11391 -1.10115,0.34173c-0.30376,0.21517 -0.54424,0.72144 -0.72144,1.51882l-0.1329,0.70246h0.75941c1.13912,0 1.63273,0.35439 1.48085,1.06318c-0.07594,0.35439 -0.24681,0.63284 -0.5126,0.83535c-0.25314,0.18985 -0.7341,0.28478 -1.44288,0.28478h-0.75941l-1.55679,7.3473c-0.12657,0.56956 -0.24048,0.99989 -0.34173,1.291c-0.10126,0.29111 -0.29111,0.56956 -0.56956,0.83535c-0.27845,0.25314 -0.65183,0.37971 -1.12013,0.37971c-0.48096,0 -0.8227,-0.15821 -1.0252,-0.47463c-0.20251,-0.31642 -0.18985,-0.99356 0.03797,-2.03142l1.55679,-7.3473h-0.83535c-0.91129,0 -1.28467,-0.37337 -1.12013,-1.12013c0.15188,-0.70879 0.72777,-1.06318 1.72766,-1.06318zM315.36062,98.83002c1.87321,0 3.22117,0.58221 4.04386,1.74664c0.83535,1.15177 1.06318,2.61997 0.68347,4.40458c-0.39236,1.79727 -1.25303,3.2718 -2.582,4.42357c-1.32897,1.15177 -2.89209,1.72766 -4.68936,1.72766c-1.94915,0 -3.32875,-0.58221 -4.13879,-1.74664c-0.81004,-1.17709 -1.0252,-2.64528 -0.6455,-4.40458c0.37971,-1.79727 1.22771,-3.2718 2.54403,-4.42357c1.32897,-1.15177 2.92373,-1.72766 4.78429,-1.72766zM313.21528,108.87323c0.92395,0 1.72133,-0.34173 2.39214,-1.0252c0.68347,-0.69612 1.1581,-1.65172 1.4239,-2.86678c0.25314,-1.22771 0.18352,-2.18331 -0.20884,-2.86678c-0.37971,-0.69612 -1.03154,-1.04419 -1.95548,-1.04419c-0.89864,0 -1.68969,0.34807 -2.37316,1.04419c-0.68347,0.69612 -1.15177,1.65172 -1.40491,2.86678c-0.26579,1.22771 -0.20251,2.18331 0.18985,2.86678c0.39236,0.68347 1.03786,1.0252 1.9365,1.0252zM322.02786,106.63296l1.12013,-5.29689c0.15188,-0.65815 0.27845,-1.13279 0.37971,-1.4239c0.11391,-0.29111 0.32275,-0.54424 0.62651,-0.75941c0.31642,-0.21517 0.65815,-0.32275 1.0252,-0.32275c0.35439,0 0.6455,0.10126 0.87332,0.30376c0.22782,0.20251 0.3354,0.4683 0.32275,0.79738c0,0.31642 -0.06961,0.80371 -0.20884,1.46187l-0.89231,4.15777c-0.29111,1.36694 -0.26579,2.24026 0.07594,2.61997c0.35439,0.37971 0.78473,0.56956 1.291,0.56956c0.58221,0 1.12646,-0.16454 1.63273,-0.49362c0.50627,-0.32908 0.88598,-0.72144 1.13912,-1.17709c0.25314,-0.4683 0.52526,-1.37959 0.81637,-2.73388l0.62651,-2.99967c0.13923,-0.6455 0.27212,-1.12013 0.39869,-1.4239c0.13923,-0.30376 0.36072,-0.5569 0.66448,-0.75941c0.31642,-0.21517 0.65815,-0.32275 1.0252,-0.32275c0.34173,0 0.62651,0.10126 0.85434,0.30376c0.22782,0.20251 0.3354,0.45565 0.32275,0.75941c0,0.29111 -0.07594,0.77207 -0.22782,1.44288l-1.57578,7.46121c-0.12657,0.60753 -0.25314,1.05052 -0.37971,1.32897c-0.11391,0.26579 -0.31009,0.49995 -0.58854,0.70246c-0.26579,0.20251 -0.57589,0.30376 -0.93028,0.30376c-0.97458,0 -1.29733,-0.70246 -0.96825,-2.10737c-1.30365,1.40491 -2.7845,2.10737 -4.44255,2.10737c-1.08849,0 -1.94915,-0.32908 -2.582,-0.98723c-0.62018,-0.65815 -0.75308,-1.82892 -0.39869,-3.51228zM347.09183,103.67126l-1.04419,4.95516c-0.13923,0.6455 -0.27212,1.1138 -0.39869,1.40491c-0.11391,0.29111 -0.32275,0.55057 -0.62651,0.7784c-0.30376,0.21517 -0.63917,0.32275 -1.00622,0.32275c-0.32908,0 -0.61386,-0.09493 -0.85434,-0.28478c-0.24048,-0.20251 -0.36072,-0.46198 -0.36072,-0.7784c0,-0.31642 0.06961,-0.79738 0.20884,-1.44288l0.93028,-4.34763c0.25314,-1.21506 0.24048,-2.03142 -0.03797,-2.4491c-0.26579,-0.41768 -0.71511,-0.62651 -1.34795,-0.62651c-0.56956,0 -1.10748,0.16454 -1.61375,0.49362c-0.50627,0.32908 -0.90496,0.74676 -1.19607,1.25303c-0.27845,0.49362 -0.54424,1.34162 -0.79738,2.54403l-0.66448,3.13257c-0.13923,0.63284 -0.26579,1.09482 -0.37971,1.38592c-0.10126,0.27845 -0.31642,0.53792 -0.6455,0.7784c-0.31642,0.22782 -0.65183,0.34173 -1.00622,0.34173c-0.32908,0 -0.61386,-0.10126 -0.85434,-0.30376c-0.22782,-0.20251 -0.34173,-0.45565 -0.34173,-0.75941c0,-0.30376 0.06961,-0.78473 0.20884,-1.44288l1.57578,-7.46121c0.15188,-0.67081 0.28478,-1.13912 0.39869,-1.40491c0.12657,-0.26579 0.3354,-0.48729 0.62651,-0.66448c0.30376,-0.1772 0.61386,-0.26579 0.93028,-0.26579c0.29111,0 0.56956,0.12024 0.83535,0.36072c0.27845,0.22782 0.32275,0.79105 0.1329,1.68969c1.291,-1.36694 2.73388,-2.05041 4.32864,-2.05041c0.60753,0 1.17709,0.12024 1.70867,0.36072c0.54424,0.22782 0.94293,0.6012 1.19607,1.12013c0.26579,0.50627 0.37971,1.03154 0.34173,1.57578c-0.02532,0.54424 -0.10758,1.13912 -0.24681,1.78462zM357.15743,109.40481l0.07594,-0.30376c-1.32897,1.35428 -2.79083,2.03142 -4.3856,2.03142c-1.54414,0 -2.65161,-0.58854 -3.32242,-1.76563c-0.65815,-1.17709 -0.78473,-2.69591 -0.37971,-4.55646c0.36705,-1.74664 1.1138,-3.17687 2.24026,-4.29067c1.13912,-1.12646 2.4934,-1.68969 4.06285,-1.68969c1.53148,0 2.72122,0.62018 3.56923,1.86056l0.83535,-3.92995c0.22782,-1.07583 0.50627,-1.74664 0.83535,-2.01244c0.32908,-0.26579 0.72777,-0.39869 1.19607,-0.39869c0.32908,0 0.60753,0.09493 0.83535,0.28478c0.24048,0.1772 0.35439,0.41768 0.34173,0.72144c0,0.30376 -0.06961,0.80371 -0.20884,1.49984l-2.54403,11.90376c-0.13923,0.67081 -0.27845,1.15177 -0.41768,1.44288c-0.12657,0.29111 -0.34807,0.51893 -0.66448,0.68347c-0.30376,0.16454 -0.61386,0.24681 -0.93028,0.24681c-0.99989,0 -1.37959,-0.57589 -1.13912,-1.72766zM352.18329,104.9053c-0.29111,1.35428 -0.22149,2.34784 0.20884,2.98069c0.44299,0.62018 1.03154,0.93028 1.76563,0.93028c0.86067,0 1.63906,-0.32275 2.33519,-0.96825c0.69612,-0.65815 1.16443,-1.56945 1.40491,-2.73388c0.26579,-1.21506 0.20251,-2.18331 -0.18985,-2.90475c-0.39236,-0.72144 -1.03786,-1.08216 -1.9365,-1.08216c-0.8227,0 -1.56945,0.3354 -2.24026,1.00622c-0.65815,0.67081 -1.10748,1.59476 -1.34795,2.77185zM369.21783,98.39336l-1.63273,5.44877c-0.24048,0.79738 -0.49362,1.3353 -0.75941,1.61375c-0.25314,0.26579 -0.53159,0.39869 -0.83535,0.39869c-0.31642,0 -0.54424,-0.13923 -0.68347,-0.41768c-0.12657,-0.27845 -0.13923,-0.81004 -0.03797,-1.59476l0.75941,-5.31588c0.06329,-0.4683 0.18352,-1.12013 0.36072,-1.95548c0.31642,-1.48085 1.03786,-2.22128 2.16432,-2.22128c0.49362,0 0.84168,0.17087 1.04419,0.5126c0.20251,0.32908 0.20884,0.95559 0.01899,1.87954c-0.16454,0.74676 -0.29743,1.29733 -0.39869,1.65172zM365.62961,107.79107c0.45565,0 0.81004,0.16454 1.06318,0.49362c0.26579,0.31642 0.35439,0.70246 0.26579,1.1581c-0.10126,0.45565 -0.35439,0.85434 -0.75941,1.19607c-0.39236,0.32908 -0.81637,0.49362 -1.27201,0.49362c-0.45565,0 -0.81637,-0.16454 -1.08216,-0.49362c-0.25314,-0.32908 -0.32908,-0.72777 -0.22782,-1.19607c0.0886,-0.45565 0.32908,-0.84168 0.72144,-1.1581c0.40502,-0.32908 0.83535,-0.49362 1.291,-0.49362z" fill="#f3f3f3" stroke="none" stroke-width="1" stroke-linecap="square"/></g></g></svg>