<svg version="1.1" xmlns="http://www.w3.org/2000/svg" xmlns:xlink="http://www.w3.org/1999/xlink" width="720" height="540" viewBox="0,0,720,540"><defs><clipPath id="clip-1"><rect x="-240" y="-180" transform="scale(0.5,0.5)" width="1440" height="1080" fill="none" fill-rule="nonzero" stroke-width="0.5" stroke-linecap="butt"/></clipPath></defs><g transform="translate(120,90)"><g clip-path="url(#clip-1)" data-paper-data="{&quot;isPaintingLayer&quot;:true}" stroke="none" stroke-linejoin="miter" stroke-miterlimit="10" stroke-dasharray="" stroke-dashoffset="0" style="mix-blend-mode: normal"><path d="M-240,-180h960v720h-960z" fill-opacity="0" fill="#000000" fill-rule="evenodd" stroke-width="1" stroke-linecap="square"/><path d="M-189.53806,-76.51968h528.3465v64.62991h-528.3465z" fill-opacity="0" fill="#000000" fill-rule="evenodd" stroke-width="1" stroke-linecap="square"/><path d="M-84.63255,-5.68504h528.3465v222.99214h-528.3465z" fill-opacity="0" fill="#000000" fill-rule="evenodd" stroke-width="1" stroke-linecap="square"/><path d="M86.7439,19.8267h-2.29426v-11.877h4.05692c0.65284,0 1.24039,0.09327 1.76267,0.27979c0.52227,0.18652 0.96527,0.44766 1.32899,0.7834c0.36372,0.33575 0.64351,0.73677 0.83936,1.20309c0.20517,0.46631 0.30776,0.98859 0.30776,1.56681c0,0.5316 -0.10259,1.02123 -0.30776,1.46888c-0.19585,0.44766 -0.47564,0.8347 -0.83936,1.16112c-0.36372,0.33575 -0.80672,0.59688 -1.32899,0.7834c-0.52227,0.18652 -1.10983,0.27979 -1.76267,0.27979h-1.76267zM88.50656,13.61541c0.32642,0 0.60621,-0.04663 0.83936,-0.13989c0.24248,-0.10259 0.44766,-0.23782 0.61553,-0.40569c0.15855,-0.16787 0.27512,-0.36372 0.34973,-0.58756c0.08393,-0.22383 0.12591,-0.45232 0.12591,-0.68548c0,-0.27979 -0.04197,-0.53626 -0.12591,-0.76941c-0.07461,-0.24248 -0.19119,-0.45699 -0.34973,-0.64351c-0.16787,-0.1772 -0.37305,-0.31709 -0.61553,-0.41968c-0.23316,-0.10259 -0.51295,-0.15388 -0.83936,-0.15388h-1.76267v3.80511zM102.33529,17.98009v1.8466h-7.86204v-11.877h2.30825v10.0304zM106.77718,14.62265v3.35746h5.70767v1.8466h-8.00193v-11.877h7.97395v1.87458h-5.6797v2.99373h4.8823v1.80463zM116.64691,17.35057l-0.69947,2.47612h-2.42016l3.88906,-11.877h2.08442l3.81911,11.877h-2.42016l-0.68548,-2.47612zM119.66862,15.39206l-1.21708,-4.3647l-1.24505,4.3647zM130.44769,16.1335c-0.07461,-0.18652 -0.19585,-0.35907 -0.36372,-0.51761c-0.18652,-0.15855 -0.42435,-0.30311 -0.71346,-0.43367c-0.27979,-0.13989 -0.62952,-0.2658 -1.0492,-0.37771c-0.66216,-0.1772 -1.24039,-0.39171 -1.73468,-0.64351c-0.49429,-0.26113 -0.89999,-0.54559 -1.21708,-0.85335c-0.31709,-0.29844 -0.55491,-0.63419 -0.71346,-1.00724c-0.15855,-0.37305 -0.23782,-0.77408 -0.23782,-1.20309c0,-0.50361 0.10259,-0.95595 0.30776,-1.35697c0.21451,-0.41036 0.50828,-0.76009 0.88133,-1.0492c0.37305,-0.28912 0.81605,-0.51295 1.32899,-0.67149c0.51295,-0.15855 1.06785,-0.23782 1.66474,-0.23782c0.62486,0 1.19376,0.09327 1.70671,0.27979c0.51295,0.1772 0.95595,0.42435 1.32899,0.74144c0.36372,0.32642 0.64817,0.71346 0.85335,1.16112c0.20517,0.44766 0.30776,0.93729 0.30776,1.46888h-2.22431c-0.00932,-0.26113 -0.06063,-0.50361 -0.15388,-0.72745c-0.08393,-0.22383 -0.20517,-0.41968 -0.36372,-0.58756c-0.16787,-0.15855 -0.37771,-0.27979 -0.62952,-0.36372c-0.24248,-0.09327 -0.5316,-0.13989 -0.86735,-0.13989c-0.29844,0 -0.56891,0.03731 -0.81139,0.11192c-0.23316,0.07461 -0.43367,0.1772 -0.60155,0.30776c-0.15855,0.13057 -0.27979,0.28912 -0.36372,0.47564c-0.08393,0.1772 -0.12591,0.37305 -0.12591,0.58756c0,0.22383 0.05596,0.42901 0.16787,0.61553c0.11192,0.1772 0.27512,0.33575 0.48963,0.47564c0.20517,0.13989 0.45699,0.27047 0.75543,0.39171c0.30776,0.12124 0.65284,0.23316 1.03521,0.33575c0.40103,0.11192 0.78807,0.25181 1.16112,0.41968c0.37305,0.15855 0.71346,0.34507 1.02123,0.55957c0.46631,0.34507 0.83936,0.75076 1.11915,1.21708c0.27979,0.46631 0.41968,0.99791 0.41968,1.59479c0,0.52227 -0.10725,0.98859 -0.32176,1.39894c-0.20517,0.40103 -0.49429,0.74144 -0.86735,1.02123c-0.37305,0.27979 -0.81605,0.49429 -1.32899,0.64351c-0.50361,0.13989 -1.05853,0.20984 -1.66474,0.20984c-0.58756,0 -1.17511,-0.0886 -1.76267,-0.2658c-0.57823,-0.1772 -1.08184,-0.43833 -1.51085,-0.7834c-0.40103,-0.33575 -0.72279,-0.73211 -0.96527,-1.1891c-0.23316,-0.45699 -0.34973,-0.99324 -0.34973,-1.60878h2.25229c0.00932,0.36372 0.06995,0.67616 0.18187,0.93729c0.11192,0.25181 0.27512,0.45699 0.48963,0.61553c0.19585,0.16787 0.43367,0.28912 0.71346,0.36372c0.28912,0.07461 0.60621,0.11192 0.95128,0.11192c0.30776,0 0.57823,-0.03264 0.81139,-0.09792c0.23316,-0.07461 0.43367,-0.1772 0.60155,-0.30776c0.15855,-0.12124 0.27979,-0.27047 0.36372,-0.44766c0.09327,-0.1772 0.13989,-0.37305 0.13989,-0.58756c0,-0.20517 -0.03731,-0.40103 -0.11192,-0.58756zM136.84806,14.62265v3.35746h5.70767v1.8466h-8.00193v-11.877h7.97395v1.87458h-5.6797v2.99373h4.8823v1.80463zM160.51858,16.1335c-0.07461,-0.18652 -0.19585,-0.35907 -0.36372,-0.51761c-0.18652,-0.15855 -0.42435,-0.30311 -0.71346,-0.43367c-0.27979,-0.13989 -0.62952,-0.2658 -1.0492,-0.37771c-0.66216,-0.1772 -1.24039,-0.39171 -1.73468,-0.64351c-0.49429,-0.26113 -0.89999,-0.54559 -1.21708,-0.85335c-0.31709,-0.29844 -0.55491,-0.63419 -0.71346,-1.00724c-0.15855,-0.37305 -0.23782,-0.77408 -0.23782,-1.20309c0,-0.50361 0.10259,-0.95595 0.30776,-1.35697c0.21451,-0.41036 0.50828,-0.76009 0.88133,-1.0492c0.37305,-0.28912 0.81605,-0.51295 1.32899,-0.67149c0.51295,-0.15855 1.06785,-0.23782 1.66474,-0.23782c0.62486,0 1.19376,0.09327 1.70671,0.27979c0.51297,0.1772 0.95596,0.42435 1.32902,0.74144c0.36372,0.32642 0.64817,0.71346 0.85335,1.16112c0.20517,0.44766 0.30776,0.93729 0.30776,1.46888h-2.22434c-0.00932,-0.26113 -0.06063,-0.50361 -0.15388,-0.72745c-0.08393,-0.22383 -0.20517,-0.41968 -0.36372,-0.58756c-0.16787,-0.15855 -0.37771,-0.27979 -0.62952,-0.36372c-0.24248,-0.09327 -0.5316,-0.13989 -0.86735,-0.13989c-0.29844,0 -0.56891,0.03731 -0.81139,0.11192c-0.23316,0.07461 -0.43367,0.1772 -0.60155,0.30776c-0.15855,0.13057 -0.27979,0.28912 -0.36372,0.47564c-0.08393,0.1772 -0.12591,0.37305 -0.12591,0.58756c0,0.22383 0.05596,0.42901 0.16787,0.61553c0.11192,0.1772 0.27512,0.33575 0.48963,0.47564c0.20517,0.13989 0.45699,0.27047 0.75543,0.39171c0.30776,0.12124 0.65284,0.23316 1.03521,0.33575c0.40103,0.11192 0.78807,0.25181 1.16112,0.41968c0.37305,0.15855 0.71346,0.34507 1.02126,0.55957c0.46631,0.34507 0.83936,0.75076 1.11915,1.21708c0.27979,0.46631 0.41968,0.99791 0.41968,1.59479c0,0.52227 -0.10725,0.98859 -0.32176,1.39894c-0.20517,0.40103 -0.49429,0.74144 -0.86735,1.02123c-0.37305,0.27979 -0.81606,0.49429 -1.32902,0.64351c-0.50361,0.13989 -1.05853,0.20984 -1.66474,0.20984c-0.58756,0 -1.17511,-0.0886 -1.76267,-0.2658c-0.57823,-0.1772 -1.08184,-0.43833 -1.51085,-0.7834c-0.40103,-0.33575 -0.72279,-0.73211 -0.96527,-1.1891c-0.23316,-0.45699 -0.34973,-0.99324 -0.34973,-1.60878h2.25229c0.00932,0.36372 0.06995,0.67616 0.18187,0.93729c0.11192,0.25181 0.27512,0.45699 0.48963,0.61553c0.19585,0.16787 0.43367,0.28912 0.71346,0.36372c0.28912,0.07461 0.60621,0.11192 0.95128,0.11192c0.30776,0 0.57823,-0.03264 0.81139,-0.09792c0.23316,-0.07461 0.43367,-0.1772 0.60155,-0.30776c0.15855,-0.12124 0.27979,-0.27047 0.36372,-0.44766c0.09327,-0.1772 0.13989,-0.37305 0.13989,-0.58756c0,-0.20517 -0.03731,-0.40103 -0.11192,-0.58756zM163.63147,7.9497h2.09841l0.7974,6.64496l0.05596,0.46165l0.06995,-0.48963l0.93729,-6.61698h1.63676l0.99324,6.65895l0.06995,0.48963l0.06995,-0.48963l0.7974,-6.65895h2.1124l-1.65075,11.877h-2.07043l-1.03521,-6.40714l-0.09792,-0.60155l-0.08393,0.60155l-0.99324,6.40714h-2.07043zM181.88085,7.9497v1.8466h-2.30825v8.18379h2.30825v1.8466h-6.85481v-1.8466h2.25229v-8.18379h-2.25229v-1.8466zM186.98023,19.8267h-2.29426v-11.877h4.05692c0.65284,0 1.24039,0.09327 1.76267,0.27979c0.52227,0.18652 0.96527,0.44766 1.32899,0.7834c0.36372,0.33575 0.64351,0.73677 0.83936,1.20309c0.20517,0.46631 0.30776,0.98859 0.30776,1.56681c0,0.5316 -0.10259,1.02123 -0.30776,1.46888c-0.19585,0.44766 -0.47564,0.8347 -0.83936,1.16112c-0.36372,0.33575 -0.80672,0.59688 -1.32899,0.7834c-0.52227,0.18652 -1.10983,0.27979 -1.76267,0.27979h-1.76267zM188.74289,13.61541c0.32642,0 0.60621,-0.04663 0.83936,-0.13989c0.24248,-0.10259 0.44766,-0.23782 0.61553,-0.40569c0.15855,-0.16787 0.27512,-0.36372 0.34973,-0.58756c0.08393,-0.22383 0.12591,-0.45232 0.12591,-0.68548c0,-0.27979 -0.04197,-0.53626 -0.12591,-0.76941c-0.07461,-0.24248 -0.19119,-0.45699 -0.34973,-0.64351c-0.16787,-0.1772 -0.37305,-0.31709 -0.61553,-0.41968c-0.23316,-0.10259 -0.51295,-0.15388 -0.83936,-0.15388h-1.76267v3.80511zM196.98988,14.62265v3.35746h5.70767v1.8466h-8.00193v-11.877h7.97395v1.87458h-5.6797v2.99373h4.8823v1.80463zM222.46501,17.72829c-0.22383,0.47564 -0.51761,0.88133 -0.88133,1.21708c-0.37305,0.33575 -0.81605,0.59688 -1.32899,0.7834c-0.50361,0.1772 -1.06785,0.2658 -1.69272,0.2658c-0.48496,0 -0.93729,-0.06063 -1.35697,-0.18187c-0.41968,-0.13057 -0.79273,-0.31709 -1.11915,-0.55957c-0.30776,-0.22383 -0.57823,-0.48963 -0.81139,-0.7974c-0.23316,-0.31709 -0.43367,-0.66683 -0.60155,-1.0492c-0.15855,-0.38237 -0.27979,-0.80206 -0.36372,-1.25904c-0.08393,-0.45699 -0.12591,-0.94195 -0.12591,-1.4549v-1.59479c0,-0.47564 0.03731,-0.92796 0.11192,-1.35697c0.07461,-0.43833 0.19119,-0.84403 0.34973,-1.21708c0.16787,-0.44766 0.39171,-0.84869 0.67149,-1.20309c0.28912,-0.3544 0.61087,-0.65284 0.96527,-0.89532c0.32642,-0.20517 0.68081,-0.36372 1.06319,-0.47564c0.38237,-0.11192 0.79273,-0.16787 1.23107,-0.16787c0.65284,0 1.23107,0.09327 1.73468,0.27979c0.51295,0.18652 0.95128,0.44766 1.315,0.7834c0.3544,0.34507 0.63419,0.76475 0.83936,1.25904c0.21451,0.49429 0.34507,1.05387 0.39171,1.67872h-2.28027c-0.01865,-0.3544 -0.06995,-0.66216 -0.15388,-0.9233c-0.08393,-0.27047 -0.20517,-0.49896 -0.36372,-0.68548c-0.16787,-0.16787 -0.37305,-0.29844 -0.61553,-0.39171c-0.24248,-0.09327 -0.5316,-0.13989 -0.86735,-0.13989c-0.1772,0 -0.34507,0.02332 -0.50361,0.06995c-0.14922,0.03731 -0.28912,0.09327 -0.41968,0.16787c-0.22383,0.13057 -0.41501,0.31709 -0.57356,0.55957c-0.14922,0.24248 -0.27047,0.52227 -0.36372,0.83936c-0.07461,0.25181 -0.13057,0.5316 -0.16787,0.83936c-0.02797,0.29844 -0.04197,0.6202 -0.04197,0.96527v1.60878c0,0.47564 0.02332,0.89999 0.06995,1.27304c0.05596,0.37305 0.13989,0.69947 0.25181,0.97926c0.07461,0.18652 0.16321,0.3544 0.2658,0.50361c0.11192,0.14922 0.23316,0.27047 0.36372,0.36372c0.14922,0.11192 0.31243,0.19585 0.48963,0.25181c0.18652,0.04663 0.39171,0.06995 0.61553,0.06995c0.29844,0 0.56891,-0.03731 0.81139,-0.11192c0.24248,-0.08393 0.44766,-0.20517 0.61553,-0.36372c0.16787,-0.16787 0.29844,-0.37771 0.39171,-0.62952c0.10259,-0.25181 0.16321,-0.55957 0.18187,-0.9233h2.29426c-0.03731,0.59688 -0.16787,1.1378 -0.39171,1.62277zM226.90688,17.35057l-0.69947,2.47612h-2.42016l3.88906,-11.877h2.08442l3.81911,11.877h-2.42016l-0.68548,-2.47612zM229.92859,15.39206l-1.21708,-4.3647l-1.24505,4.3647zM236.94452,15.39206v4.43464h-2.29426v-11.877h3.98698c0.65284,0 1.24505,0.07927 1.77665,0.23782c0.54092,0.14922 1.00257,0.37305 1.38495,0.67149c0.37305,0.30776 0.65751,0.68548 0.85335,1.13314c0.20517,0.43833 0.30776,0.95128 0.30776,1.53883c0,0.42901 -0.05129,0.81139 -0.15388,1.14713c-0.09327,0.33575 -0.23316,0.63885 -0.41968,0.90931c-0.18652,0.27047 -0.41501,0.50828 -0.68548,0.71346c-0.26113,0.19585 -0.55491,0.36839 -0.88133,0.51761l2.56006,4.89629v0.11192h-2.46213l-2.23831,-4.43464zM238.63723,13.53147c0.3544,0 0.66683,-0.05129 0.93729,-0.15388c0.27047,-0.10259 0.48963,-0.24715 0.65751,-0.43367c0.13989,-0.14922 0.24715,-0.33108 0.32176,-0.54559c0.07461,-0.21451 0.11192,-0.45232 0.11192,-0.71346c0,-0.31709 -0.04663,-0.59688 -0.13989,-0.83936c-0.09327,-0.24248 -0.23782,-0.43833 -0.43367,-0.58756c-0.16787,-0.14922 -0.37305,-0.26113 -0.61553,-0.33575c-0.24248,-0.07461 -0.52227,-0.11192 -0.83936,-0.11192h-1.69272v3.72118zM244.63192,7.9497h3.07767c0.55025,0 1.06319,0.06995 1.53883,0.20984c0.47564,0.13057 0.90931,0.31709 1.30101,0.55957c0.34507,0.20517 0.65283,0.45232 0.92328,0.74144c0.27047,0.28912 0.50361,0.60621 0.69947,0.95128c0.23316,0.41968 0.41501,0.88133 0.54559,1.38495c0.13057,0.50361 0.19585,1.03988 0.19585,1.60878v0.97926c0,0.55025 -0.06063,1.07252 -0.18187,1.56681c-0.12124,0.48496 -0.28912,0.93263 -0.50361,1.34299c-0.20517,0.36372 -0.44766,0.69947 -0.72745,1.00724c-0.27977,0.30776 -0.58753,0.56424 -0.92328,0.76941c-0.38237,0.24248 -0.80672,0.42901 -1.27304,0.55957c-0.46631,0.13057 -0.9606,0.19585 -1.48288,0.19585h-3.18958zM246.94016,17.98009h0.88133c0.27979,0 0.54092,-0.03264 0.7834,-0.09792c0.25181,-0.07461 0.47564,-0.1772 0.67149,-0.30776c0.20517,-0.14922 0.39171,-0.33108 0.55957,-0.54559c0.16787,-0.22383 0.31243,-0.48031 0.43367,-0.76941c0.09327,-0.26113 0.16321,-0.54559 0.20984,-0.85335c0.05596,-0.31709 0.08393,-0.65751 0.08393,-1.02123v-0.99324c0,-0.34507 -0.02797,-0.67149 -0.08393,-0.97926c-0.04663,-0.30776 -0.11657,-0.58756 -0.20984,-0.83936c-0.12124,-0.30776 -0.27979,-0.57823 -0.47564,-0.81139c-0.18652,-0.24248 -0.41036,-0.43833 -0.67149,-0.58756c-0.19585,-0.12124 -0.41501,-0.20984 -0.65751,-0.2658c-0.23316,-0.06528 -0.48496,-0.09792 -0.75543,-0.09792h-0.76941z" fill="#ffffff" fill-rule="nonzero" stroke-width="1" stroke-linecap="square"/><path d="M79.33629,29.87949v10.00242h-2.29426v-10.00242h-3.60927v-1.87458h9.56874v1.87458zM92.45157,36.27264c-0.09327,0.45699 -0.22849,0.88133 -0.40569,1.27304c-0.18652,0.39171 -0.41501,0.75076 -0.68548,1.07719c-0.27047,0.32642 -0.57823,0.60155 -0.9233,0.82537c-0.31709,0.18652 -0.66683,0.33108 -1.0492,0.43367c-0.37305,0.11192 -0.77875,0.16787 -1.21708,0.16787c-0.45699,0 -0.88133,-0.06063 -1.27304,-0.18187c-0.39171,-0.12124 -0.75076,-0.28912 -1.07719,-0.50361c-0.30776,-0.23316 -0.58756,-0.50828 -0.83936,-0.82537c-0.25181,-0.32642 -0.46165,-0.6948 -0.62952,-1.10516c-0.14922,-0.37305 -0.2658,-0.77875 -0.34973,-1.21708c-0.07461,-0.44766 -0.11192,-0.91397 -0.11192,-1.39894v-1.73468c0,-0.52227 0.04197,-1.01656 0.12591,-1.48288c0.09327,-0.46631 0.22849,-0.89532 0.40569,-1.28703c0.16787,-0.38237 0.36839,-0.72279 0.60155,-1.02123c0.24248,-0.30776 0.52227,-0.56891 0.83936,-0.7834c0.31709,-0.21451 0.66683,-0.37771 1.0492,-0.48963c0.38237,-0.12124 0.80206,-0.18187 1.25904,-0.18187c0.45699,0 0.88133,0.06063 1.27304,0.18187c0.40103,0.12124 0.76475,0.28912 1.09117,0.50361c0.31709,0.20517 0.59688,0.45699 0.83936,0.75543c0.24248,0.28912 0.45232,0.61087 0.62952,0.96527c0.18652,0.40103 0.33108,0.84403 0.43367,1.32899c0.10259,0.47564 0.15388,0.97926 0.15388,1.51085v1.73468c0,0.51295 -0.04663,0.99791 -0.13989,1.4549zM90.21327,32.21571c-0.02797,-0.27979 -0.07461,-0.53626 -0.13989,-0.76941c-0.08393,-0.29844 -0.19585,-0.55957 -0.33575,-0.7834c-0.13057,-0.23316 -0.28912,-0.42435 -0.47564,-0.57356c-0.13989,-0.11192 -0.30311,-0.19585 -0.48963,-0.25181c-0.1772,-0.06528 -0.37771,-0.09792 -0.60155,-0.09792c-0.21451,0 -0.41036,0.02797 -0.58756,0.08393c-0.16787,0.05596 -0.31709,0.13523 -0.44766,0.23782c-0.18652,0.14922 -0.34507,0.34041 -0.47564,0.57356c-0.13057,0.22383 -0.22849,0.48963 -0.29377,0.7974c-0.05596,0.23316 -0.09792,0.48963 -0.12591,0.76941c-0.01865,0.27979 -0.02797,0.56891 -0.02797,0.86735v1.74867c0,0.28912 0.00932,0.56891 0.02797,0.83936c0.01865,0.26113 0.05596,0.50361 0.11192,0.72745c0.06528,0.28912 0.15388,0.55491 0.2658,0.7974c0.12124,0.23316 0.26113,0.42435 0.41968,0.57356c0.13989,0.13057 0.30311,0.23316 0.48963,0.30776c0.19585,0.06528 0.41036,0.09792 0.64351,0.09792c0.23316,0 0.443,-0.03264 0.62952,-0.09792c0.19585,-0.06528 0.36372,-0.15855 0.50361,-0.27979c0.18652,-0.15855 0.34507,-0.34973 0.47564,-0.57356c0.13057,-0.23316 0.23316,-0.49896 0.30776,-0.7974c0.05596,-0.22383 0.09792,-0.47097 0.12591,-0.74144c0.03731,-0.27979 0.05596,-0.56424 0.05596,-0.85335v-1.74867c0,-0.29844 -0.01865,-0.58289 -0.05596,-0.85335zM102.47521,36.27264c-0.09327,0.45699 -0.22849,0.88133 -0.40569,1.27304c-0.18652,0.39171 -0.41501,0.75076 -0.68548,1.07719c-0.27047,0.32642 -0.57823,0.60155 -0.9233,0.82537c-0.31709,0.18652 -0.66683,0.33108 -1.0492,0.43367c-0.37305,0.11192 -0.77875,0.16787 -1.21708,0.16787c-0.45699,0 -0.88133,-0.06063 -1.27304,-0.18187c-0.39171,-0.12124 -0.75076,-0.28912 -1.07719,-0.50361c-0.30776,-0.23316 -0.58756,-0.50828 -0.83936,-0.82537c-0.25181,-0.32642 -0.46165,-0.6948 -0.62952,-1.10516c-0.14922,-0.37305 -0.2658,-0.77875 -0.34973,-1.21708c-0.07461,-0.44766 -0.11192,-0.91397 -0.11192,-1.39894v-1.73468c0,-0.52227 0.04197,-1.01656 0.12591,-1.48288c0.09327,-0.46631 0.22849,-0.89532 0.40569,-1.28703c0.16787,-0.38237 0.36839,-0.72279 0.60155,-1.02123c0.24248,-0.30776 0.52227,-0.56891 0.83936,-0.7834c0.31709,-0.21451 0.66683,-0.37771 1.0492,-0.48963c0.38237,-0.12124 0.80206,-0.18187 1.25904,-0.18187c0.45699,0 0.88133,0.06063 1.27304,0.18187c0.40103,0.12124 0.76475,0.28912 1.09117,0.50361c0.31709,0.20517 0.59688,0.45699 0.83936,0.75543c0.24248,0.28912 0.45232,0.61087 0.62952,0.96527c0.18652,0.40103 0.33108,0.84403 0.43367,1.32899c0.10259,0.47564 0.15388,0.97926 0.15388,1.51085v1.73468c0,0.51295 -0.04663,0.99791 -0.13989,1.4549zM100.23692,32.21571c-0.02797,-0.27979 -0.07461,-0.53626 -0.13989,-0.76941c-0.08393,-0.29844 -0.19585,-0.55957 -0.33575,-0.7834c-0.13057,-0.23316 -0.28912,-0.42435 -0.47564,-0.57356c-0.13989,-0.11192 -0.30311,-0.19585 -0.48963,-0.25181c-0.1772,-0.06528 -0.37771,-0.09792 -0.60155,-0.09792c-0.21451,0 -0.41036,0.02797 -0.58756,0.08393c-0.16787,0.05596 -0.31709,0.13523 -0.44766,0.23782c-0.18652,0.14922 -0.34507,0.34041 -0.47564,0.57356c-0.13057,0.22383 -0.22849,0.48963 -0.29377,0.7974c-0.05596,0.23316 -0.09792,0.48963 -0.12591,0.76941c-0.01865,0.27979 -0.02797,0.56891 -0.02797,0.86735v1.74867c0,0.28912 0.00932,0.56891 0.02797,0.83936c0.01865,0.26113 0.05596,0.50361 0.11192,0.72745c0.06528,0.28912 0.15388,0.55491 0.2658,0.7974c0.12124,0.23316 0.26113,0.42435 0.41968,0.57356c0.13989,0.13057 0.30311,0.23316 0.48963,0.30776c0.19585,0.06528 0.41036,0.09792 0.64351,0.09792c0.23316,0 0.443,-0.03264 0.62952,-0.09792c0.19585,-0.06528 0.36372,-0.15855 0.50361,-0.27979c0.18652,-0.15855 0.34507,-0.34973 0.47564,-0.57356c0.13057,-0.23316 0.23316,-0.49896 0.30776,-0.7974c0.05596,-0.22383 0.09792,-0.47097 0.12591,-0.74144c0.03731,-0.27979 0.05596,-0.56424 0.05596,-0.85335v-1.74867c0,-0.29844 -0.01865,-0.58289 -0.05596,-0.85335zM116.81481,34.95764v4.92427h-2.29426v-11.877h8.02991v1.87458h-5.73565v3.23155h5.09214v1.8466zM126.67056,37.40578l-0.69947,2.47612h-2.42016l3.88906,-11.877h2.08442l3.81911,11.877h-2.42016l-0.68548,-2.47612zM129.69227,35.44726l-1.21708,-4.3647l-1.24505,4.3647zM140.47134,36.1887c-0.07461,-0.18652 -0.19585,-0.35907 -0.36372,-0.51761c-0.18652,-0.15855 -0.42435,-0.30311 -0.71346,-0.43367c-0.27979,-0.13989 -0.62952,-0.2658 -1.0492,-0.37771c-0.66216,-0.1772 -1.24039,-0.39171 -1.73468,-0.64351c-0.49429,-0.26113 -0.89999,-0.54559 -1.21708,-0.85335c-0.31709,-0.29844 -0.55491,-0.63419 -0.71346,-1.00724c-0.15855,-0.37305 -0.23782,-0.77408 -0.23782,-1.20309c0,-0.50361 0.10259,-0.95595 0.30776,-1.35697c0.21451,-0.41036 0.50828,-0.76009 0.88133,-1.0492c0.37305,-0.28912 0.81605,-0.51295 1.32899,-0.67149c0.51295,-0.15855 1.06785,-0.23782 1.66474,-0.23782c0.62486,0 1.19376,0.09327 1.70671,0.27979c0.51295,0.1772 0.95595,0.42435 1.32899,0.74144c0.36372,0.32642 0.64817,0.71346 0.85335,1.16112c0.20517,0.44766 0.30776,0.93729 0.30776,1.46888h-2.22431c-0.00932,-0.26113 -0.06063,-0.50361 -0.15388,-0.72745c-0.08393,-0.22383 -0.20517,-0.41968 -0.36372,-0.58756c-0.16787,-0.15855 -0.37771,-0.27979 -0.62952,-0.36372c-0.24248,-0.09327 -0.5316,-0.13989 -0.86735,-0.13989c-0.29844,0 -0.56891,0.03731 -0.81139,0.11192c-0.23316,0.07461 -0.43367,0.1772 -0.60155,0.30776c-0.15855,0.13057 -0.27979,0.28912 -0.36372,0.47564c-0.08393,0.1772 -0.12591,0.37305 -0.12591,0.58756c0,0.22383 0.05596,0.42901 0.16787,0.61553c0.11192,0.1772 0.27512,0.33575 0.48963,0.47564c0.20517,0.13989 0.45699,0.27047 0.75543,0.39171c0.30776,0.12124 0.65284,0.23316 1.03521,0.33575c0.40103,0.11192 0.78807,0.25181 1.16112,0.41968c0.37305,0.15855 0.71346,0.34507 1.02123,0.55957c0.46631,0.34507 0.83936,0.75076 1.11915,1.21708c0.27979,0.46631 0.41968,0.99791 0.41968,1.59479c0,0.52227 -0.10725,0.98859 -0.32176,1.39894c-0.20517,0.40103 -0.49429,0.74144 -0.86735,1.02123c-0.37305,0.27979 -0.81605,0.49429 -1.32899,0.64351c-0.50361,0.13989 -1.05853,0.20984 -1.66474,0.20984c-0.58756,0 -1.17511,-0.0886 -1.76267,-0.2658c-0.57823,-0.1772 -1.08184,-0.43833 -1.51085,-0.7834c-0.40103,-0.33575 -0.72279,-0.73211 -0.96527,-1.1891c-0.23316,-0.45699 -0.34973,-0.99324 -0.34973,-1.60878h2.25229c0.00932,0.36372 0.06995,0.67616 0.18187,0.93729c0.11192,0.25181 0.27512,0.45699 0.48963,0.61553c0.19585,0.16787 0.43367,0.28912 0.71346,0.36372c0.28912,0.07461 0.60621,0.11192 0.95128,0.11192c0.30776,0 0.57823,-0.03264 0.81139,-0.09792c0.23316,-0.07461 0.43367,-0.1772 0.60155,-0.30776c0.15855,-0.12124 0.27979,-0.27047 0.36372,-0.44766c0.09327,-0.1772 0.13989,-0.37305 0.13989,-0.58756c0,-0.20517 -0.03731,-0.40103 -0.11192,-0.58756zM149.50171,29.87949v10.00242h-2.29426v-10.00242h-3.60927v-1.87458h9.56874v1.87458zM158.72796,41.5886c-0.30776,0.63419 -0.70413,1.17044 -1.1891,1.60878l-1.20309,-0.62952c0.20517,-0.39171 0.37771,-0.80206 0.51761,-1.23107c0.13989,-0.41968 0.20984,-0.92796 0.20984,-1.52484v-1.91655h2.14038l-0.01399,1.80463c0,0.62486 -0.15388,1.25439 -0.46165,1.88857zM179.57262,29.87949v10.00242h-2.29426v-10.00242h-3.60927v-1.87458h9.56874v1.87458zM186.82638,35.44726v4.43464h-2.29426v-11.877h3.98698c0.65284,0 1.24505,0.07927 1.77665,0.23782c0.54092,0.14922 1.00257,0.37305 1.38495,0.67149c0.37305,0.30776 0.65751,0.68548 0.85335,1.13314c0.20517,0.43833 0.30776,0.95128 0.30776,1.53883c0,0.42901 -0.05129,0.81139 -0.15388,1.14713c-0.09327,0.33575 -0.23316,0.63885 -0.41968,0.90931c-0.18652,0.27047 -0.41501,0.50828 -0.68548,0.71346c-0.26113,0.19585 -0.55491,0.36839 -0.88133,0.51761l2.56006,4.89629v0.11192h-2.46213l-2.23831,-4.43464zM188.51909,33.58668c0.3544,0 0.66683,-0.05129 0.93729,-0.15388c0.27047,-0.10259 0.48963,-0.24715 0.65751,-0.43367c0.13989,-0.14922 0.24715,-0.33108 0.32176,-0.54559c0.07461,-0.21451 0.11192,-0.45232 0.11192,-0.71346c0,-0.31709 -0.04663,-0.59688 -0.13989,-0.83936c-0.09327,-0.24248 -0.23782,-0.43833 -0.43367,-0.58756c-0.16787,-0.14922 -0.37305,-0.26113 -0.61553,-0.33575c-0.24248,-0.07461 -0.52227,-0.11192 -0.83936,-0.11192h-1.69272v3.72118zM200.94888,28.00491h2.53208l-3.73516,7.76411l-0.01399,4.11288h-2.28027l-0.01399,-4.2108l-3.67922,-7.66619h2.51809l2.33623,5.46986zM216.88327,37.40578l-0.69947,2.47612h-2.42016l3.88906,-11.877h2.08442l3.81911,11.877h-2.42016l-0.68548,-2.47612zM219.90497,35.44726l-1.21708,-4.3647l-1.24505,4.3647zM232.18092,39.04254c-0.25181,0.18652 -0.55025,0.3544 -0.89532,0.50361c-0.3544,0.14922 -0.75076,0.27047 -1.1891,0.36372c-0.42901,0.09327 -0.89532,0.13989 -1.39894,0.13989c-0.42901,0 -0.83936,-0.05129 -1.23107,-0.15388c-0.38237,-0.10259 -0.73211,-0.24715 -1.0492,-0.43367c-0.31709,-0.19585 -0.60621,-0.43367 -0.86735,-0.71346c-0.25181,-0.28912 -0.46631,-0.61553 -0.64351,-0.97926c-0.21451,-0.40103 -0.37305,-0.85335 -0.47564,-1.35697c-0.10259,-0.51295 -0.15388,-1.06319 -0.15388,-1.65075v-1.62277c0,-0.55957 0.05129,-1.08184 0.15388,-1.56681c0.10259,-0.49429 0.24715,-0.93729 0.43367,-1.32899c0.18652,-0.3544 0.39636,-0.67149 0.62952,-0.95128c0.23316,-0.28912 0.49429,-0.53626 0.7834,-0.74144c0.32642,-0.23316 0.68548,-0.41036 1.07719,-0.5316c0.39171,-0.12124 0.80672,-0.18187 1.24505,-0.18187c0.66216,0 1.24039,0.0886 1.73468,0.2658c0.50361,0.16787 0.92796,0.40569 1.27304,0.71346c0.34507,0.32642 0.61087,0.71812 0.7974,1.17511c0.19585,0.45699 0.32176,0.96993 0.37771,1.53883h-2.22431c-0.03731,-0.28912 -0.09792,-0.54559 -0.18187,-0.76941c-0.07461,-0.22383 -0.18187,-0.41036 -0.32176,-0.55957c-0.14922,-0.16787 -0.34041,-0.29377 -0.57356,-0.37771c-0.23316,-0.08393 -0.50828,-0.12591 -0.82537,-0.12591c-0.1772,0 -0.34973,0.02797 -0.51761,0.08393c-0.15855,0.04663 -0.30776,0.12591 -0.44766,0.23782c-0.18652,0.13989 -0.3544,0.32642 -0.50361,0.55957c-0.14922,0.22383 -0.27047,0.48963 -0.36372,0.7974c-0.08393,0.24248 -0.14456,0.51295 -0.18187,0.81139c-0.03731,0.28912 -0.05596,0.60155 -0.05596,0.93729v1.63676c0,0.42901 0.02797,0.82071 0.08393,1.17511c0.05596,0.3544 0.13523,0.66683 0.23782,0.93729c0.06528,0.15855 0.13989,0.30311 0.22383,0.43367c0.08393,0.13057 0.1772,0.24715 0.27979,0.34973c0.1772,0.1772 0.37771,0.31243 0.60155,0.40569c0.23316,0.08393 0.49896,0.13057 0.7974,0.13989c0.1772,0 0.34973,-0.01399 0.51761,-0.04197c0.1772,-0.02797 0.34507,-0.06528 0.50361,-0.11192c0.14922,-0.04663 0.27979,-0.10259 0.39171,-0.16787c0.12124,-0.06528 0.21451,-0.13057 0.27979,-0.19585v-2.15436h-1.95852v-1.7207h4.23879l0.01399,4.68644c-0.14922,0.1772 -0.3544,0.35907 -0.61553,0.54559zM236.93054,37.40578l-0.69947,2.47612h-2.42016l3.88906,-11.877h2.08442l3.81911,11.877h-2.42016l-0.68548,-2.47612zM239.95225,35.44726l-1.21708,-4.3647l-1.24505,4.3647zM252.04627,28.00491v1.8466h-2.30823v8.18379h2.30823v1.8466h-6.85478v-1.8466h2.25229v-8.18379h-2.25229v-1.8466zM260.25132,39.88191l-3.3015,-7.65219v7.65219h-2.30825v-11.877h2.30825l3.27352,7.62422l0.01399,-7.62422h2.29426v11.877z" fill="#ffffff" fill-rule="nonzero" stroke-width="1" stroke-linecap="square"/><path d="M79.33629,49.93467v10.00242h-2.29426v-10.00242h-3.60927v-1.87458h9.56874v1.87458zM92.45157,56.32782c-0.09327,0.45699 -0.22849,0.88133 -0.40569,1.27304c-0.18652,0.39171 -0.41501,0.75076 -0.68548,1.07719c-0.27047,0.32642 -0.57823,0.60155 -0.9233,0.82537c-0.31709,0.18652 -0.66683,0.33108 -1.0492,0.43367c-0.37305,0.11192 -0.77875,0.16787 -1.21708,0.16787c-0.45699,0 -0.88133,-0.06063 -1.27304,-0.18187c-0.39171,-0.12124 -0.75076,-0.28912 -1.07719,-0.50361c-0.30776,-0.23316 -0.58756,-0.50828 -0.83936,-0.82537c-0.25181,-0.32642 -0.46165,-0.6948 -0.62952,-1.10516c-0.14922,-0.37305 -0.2658,-0.77875 -0.34973,-1.21708c-0.07461,-0.44766 -0.11192,-0.91397 -0.11192,-1.39894v-1.73468c0,-0.52227 0.04197,-1.01656 0.12591,-1.48288c0.09327,-0.46631 0.22849,-0.89532 0.40569,-1.28703c0.16787,-0.38237 0.36839,-0.72279 0.60155,-1.02123c0.24248,-0.30776 0.52227,-0.56891 0.83936,-0.7834c0.31709,-0.21451 0.66683,-0.37771 1.0492,-0.48963c0.38237,-0.12124 0.80206,-0.18187 1.25904,-0.18187c0.45699,0 0.88133,0.06063 1.27304,0.18187c0.40103,0.12124 0.76475,0.28912 1.09117,0.50361c0.31709,0.20517 0.59688,0.45699 0.83936,0.75543c0.24248,0.28912 0.45232,0.61087 0.62952,0.96527c0.18652,0.40103 0.33108,0.84403 0.43367,1.32899c0.10259,0.47564 0.15388,0.97926 0.15388,1.51085v1.73468c0,0.51295 -0.04663,0.99791 -0.13989,1.4549zM90.21327,52.2709c-0.02797,-0.27979 -0.07461,-0.53626 -0.13989,-0.76941c-0.08393,-0.29844 -0.19585,-0.55957 -0.33575,-0.7834c-0.13057,-0.23316 -0.28912,-0.42435 -0.47564,-0.57356c-0.13989,-0.11192 -0.30311,-0.19585 -0.48963,-0.25181c-0.1772,-0.06528 -0.37771,-0.09792 -0.60155,-0.09792c-0.21451,0 -0.41036,0.02797 -0.58756,0.08393c-0.16787,0.05596 -0.31709,0.13523 -0.44766,0.23782c-0.18652,0.14922 -0.34507,0.34041 -0.47564,0.57356c-0.13057,0.22383 -0.22849,0.48963 -0.29377,0.7974c-0.05596,0.23316 -0.09792,0.48963 -0.12591,0.76941c-0.01865,0.27979 -0.02797,0.56891 -0.02797,0.86735v1.74867c0,0.28912 0.00932,0.56891 0.02797,0.83936c0.01865,0.26113 0.05596,0.50361 0.11192,0.72745c0.06528,0.28912 0.15388,0.55491 0.2658,0.7974c0.12124,0.23316 0.26113,0.42435 0.41968,0.57356c0.13989,0.13057 0.30311,0.23316 0.48963,0.30776c0.19585,0.06528 0.41036,0.09792 0.64351,0.09792c0.23316,0 0.443,-0.03264 0.62952,-0.09792c0.19585,-0.06528 0.36372,-0.15855 0.50361,-0.27979c0.18652,-0.15855 0.34507,-0.34973 0.47564,-0.57356c0.13057,-0.23316 0.23316,-0.49896 0.30776,-0.7974c0.05596,-0.22383 0.09792,-0.47097 0.12591,-0.74144c0.03731,-0.27979 0.05596,-0.56424 0.05596,-0.85335v-1.74867c0,-0.29844 -0.01865,-0.58289 -0.05596,-0.85335zM102.47521,56.32782c-0.09327,0.45699 -0.22849,0.88133 -0.40569,1.27304c-0.18652,0.39171 -0.41501,0.75076 -0.68548,1.07719c-0.27047,0.32642 -0.57823,0.60155 -0.9233,0.82537c-0.31709,0.18652 -0.66683,0.33108 -1.0492,0.43367c-0.37305,0.11192 -0.77875,0.16787 -1.21708,0.16787c-0.45699,0 -0.88133,-0.06063 -1.27304,-0.18187c-0.39171,-0.12124 -0.75076,-0.28912 -1.07719,-0.50361c-0.30776,-0.23316 -0.58756,-0.50828 -0.83936,-0.82537c-0.25181,-0.32642 -0.46165,-0.6948 -0.62952,-1.10516c-0.14922,-0.37305 -0.2658,-0.77875 -0.34973,-1.21708c-0.07461,-0.44766 -0.11192,-0.91397 -0.11192,-1.39894v-1.73468c0,-0.52227 0.04197,-1.01656 0.12591,-1.48288c0.09327,-0.46631 0.22849,-0.89532 0.40569,-1.28703c0.16787,-0.38237 0.36839,-0.72279 0.60155,-1.02123c0.24248,-0.30776 0.52227,-0.56891 0.83936,-0.7834c0.31709,-0.21451 0.66683,-0.37771 1.0492,-0.48963c0.38237,-0.12124 0.80206,-0.18187 1.25904,-0.18187c0.45699,0 0.88133,0.06063 1.27304,0.18187c0.40103,0.12124 0.76475,0.28912 1.09117,0.50361c0.31709,0.20517 0.59688,0.45699 0.83936,0.75543c0.24248,0.28912 0.45232,0.61087 0.62952,0.96527c0.18652,0.40103 0.33108,0.84403 0.43367,1.32899c0.10259,0.47564 0.15388,0.97926 0.15388,1.51085v1.73468c0,0.51295 -0.04663,0.99791 -0.13989,1.4549zM100.23692,52.2709c-0.02797,-0.27979 -0.07461,-0.53626 -0.13989,-0.76941c-0.08393,-0.29844 -0.19585,-0.55957 -0.33575,-0.7834c-0.13057,-0.23316 -0.28912,-0.42435 -0.47564,-0.57356c-0.13989,-0.11192 -0.30311,-0.19585 -0.48963,-0.25181c-0.1772,-0.06528 -0.37771,-0.09792 -0.60155,-0.09792c-0.21451,0 -0.41036,0.02797 -0.58756,0.08393c-0.16787,0.05596 -0.31709,0.13523 -0.44766,0.23782c-0.18652,0.14922 -0.34507,0.34041 -0.47564,0.57356c-0.13057,0.22383 -0.22849,0.48963 -0.29377,0.7974c-0.05596,0.23316 -0.09792,0.48963 -0.12591,0.76941c-0.01865,0.27979 -0.02797,0.56891 -0.02797,0.86735v1.74867c0,0.28912 0.00932,0.56891 0.02797,0.83936c0.01865,0.26113 0.05596,0.50361 0.11192,0.72745c0.06528,0.28912 0.15388,0.55491 0.2658,0.7974c0.12124,0.23316 0.26113,0.42435 0.41968,0.57356c0.13989,0.13057 0.30311,0.23316 0.48963,0.30776c0.19585,0.06528 0.41036,0.09792 0.64351,0.09792c0.23316,0 0.443,-0.03264 0.62952,-0.09792c0.19585,-0.06528 0.36372,-0.15855 0.50361,-0.27979c0.18652,-0.15855 0.34507,-0.34973 0.47564,-0.57356c0.13057,-0.23316 0.23316,-0.49896 0.30776,-0.7974c0.05596,-0.22383 0.09792,-0.47097 0.12591,-0.74144c0.03731,-0.27979 0.05596,-0.56424 0.05596,-0.85335v-1.74867c0,-0.29844 -0.01865,-0.58289 -0.05596,-0.85335zM120.42407,56.24389c-0.07461,-0.18652 -0.19585,-0.35907 -0.36372,-0.51761c-0.18652,-0.15855 -0.42435,-0.30311 -0.71346,-0.43367c-0.27979,-0.13989 -0.62952,-0.2658 -1.0492,-0.37771c-0.66216,-0.1772 -1.24039,-0.39171 -1.73468,-0.64351c-0.49429,-0.26113 -0.89999,-0.54559 -1.21708,-0.85335c-0.31709,-0.29844 -0.55491,-0.63419 -0.71346,-1.00724c-0.15855,-0.37305 -0.23782,-0.77408 -0.23782,-1.20309c0,-0.50361 0.10259,-0.95595 0.30776,-1.35697c0.21451,-0.41036 0.50828,-0.76009 0.88133,-1.0492c0.37305,-0.28912 0.81605,-0.51295 1.32899,-0.67149c0.51295,-0.15855 1.06785,-0.23782 1.66474,-0.23782c0.62486,0 1.19376,0.09327 1.70671,0.27979c0.51295,0.1772 0.95595,0.42435 1.32899,0.74144c0.36372,0.32642 0.64817,0.71346 0.85335,1.16112c0.20517,0.44766 0.30776,0.93729 0.30776,1.46888h-2.22431c-0.00932,-0.26113 -0.06063,-0.50361 -0.15388,-0.72745c-0.08393,-0.22383 -0.20517,-0.41968 -0.36372,-0.58756c-0.16787,-0.15855 -0.37771,-0.27979 -0.62952,-0.36372c-0.24248,-0.09327 -0.5316,-0.13989 -0.86735,-0.13989c-0.29844,0 -0.56891,0.03731 -0.81139,0.11192c-0.23316,0.07461 -0.43367,0.1772 -0.60155,0.30776c-0.15855,0.13057 -0.27979,0.28912 -0.36372,0.47564c-0.08393,0.1772 -0.12591,0.37305 -0.12591,0.58756c0,0.22383 0.05596,0.42901 0.16787,0.61553c0.11192,0.1772 0.27512,0.33575 0.48963,0.47564c0.20517,0.13989 0.45699,0.27047 0.75543,0.39171c0.30776,0.12124 0.65284,0.23316 1.03521,0.33575c0.40103,0.11192 0.78807,0.25181 1.16112,0.41968c0.37305,0.15855 0.71346,0.34507 1.02123,0.55957c0.46631,0.34507 0.83936,0.75076 1.11915,1.21708c0.27979,0.46631 0.41968,0.99791 0.41968,1.59479c0,0.52227 -0.10725,0.98859 -0.32176,1.39894c-0.20517,0.40103 -0.49429,0.74144 -0.86735,1.02123c-0.37305,0.27979 -0.81605,0.49429 -1.32899,0.64351c-0.50361,0.13989 -1.05853,0.20984 -1.66474,0.20984c-0.58756,0 -1.17511,-0.0886 -1.76267,-0.2658c-0.57823,-0.1772 -1.08184,-0.43833 -1.51085,-0.7834c-0.40103,-0.33575 -0.72279,-0.73211 -0.96527,-1.1891c-0.23316,-0.45699 -0.34973,-0.99324 -0.34973,-1.60878h2.25229c0.00932,0.36372 0.06995,0.67616 0.18187,0.93729c0.11192,0.25181 0.27512,0.45699 0.48963,0.61553c0.19585,0.16787 0.43367,0.28912 0.71346,0.36372c0.28912,0.07461 0.60621,0.11192 0.95128,0.11192c0.30776,0 0.57823,-0.03264 0.81139,-0.09792c0.23316,-0.07461 0.43367,-0.1772 0.60155,-0.30776c0.15855,-0.12124 0.27979,-0.27047 0.36372,-0.44766c0.09327,-0.1772 0.13989,-0.37305 0.13989,-0.58756c0,-0.20517 -0.03731,-0.40103 -0.11192,-0.58756zM132.40621,58.09049v1.8466h-7.86204v-11.877h2.30825v10.0304zM142.56975,56.32782c-0.09327,0.45699 -0.22849,0.88133 -0.40569,1.27304c-0.18652,0.39171 -0.41501,0.75076 -0.68548,1.07719c-0.27047,0.32642 -0.57823,0.60155 -0.9233,0.82537c-0.31709,0.18652 -0.66683,0.33108 -1.0492,0.43367c-0.37305,0.11192 -0.77875,0.16787 -1.21708,0.16787c-0.45699,0 -0.88133,-0.06063 -1.27304,-0.18187c-0.39171,-0.12124 -0.75076,-0.28912 -1.07719,-0.50361c-0.30776,-0.23316 -0.58756,-0.50828 -0.83936,-0.82537c-0.25181,-0.32642 -0.46165,-0.6948 -0.62952,-1.10516c-0.14922,-0.37305 -0.2658,-0.77875 -0.34973,-1.21708c-0.07461,-0.44766 -0.11192,-0.91397 -0.11192,-1.39894v-1.73468c0,-0.52227 0.04197,-1.01656 0.12591,-1.48288c0.09327,-0.46631 0.22849,-0.89532 0.40569,-1.28703c0.16787,-0.38237 0.36839,-0.72279 0.60155,-1.02123c0.24248,-0.30776 0.52227,-0.56891 0.83936,-0.7834c0.31709,-0.21451 0.66683,-0.37771 1.0492,-0.48963c0.38237,-0.12124 0.80206,-0.18187 1.25904,-0.18187c0.45699,0 0.88133,0.06063 1.27304,0.18187c0.40103,0.12124 0.76475,0.28912 1.09117,0.50361c0.31709,0.20517 0.59688,0.45699 0.83936,0.75543c0.24248,0.28912 0.45232,0.61087 0.62952,0.96527c0.18652,0.40103 0.33108,0.84403 0.43367,1.32899c0.10259,0.47564 0.15388,0.97926 0.15388,1.51085v1.73468c0,0.51295 -0.04663,0.99791 -0.13989,1.4549zM140.33144,52.2709c-0.02797,-0.27979 -0.07461,-0.53626 -0.13989,-0.76941c-0.08393,-0.29844 -0.19585,-0.55957 -0.33575,-0.7834c-0.13057,-0.23316 -0.28912,-0.42435 -0.47564,-0.57356c-0.13989,-0.11192 -0.30311,-0.19585 -0.48963,-0.25181c-0.1772,-0.06528 -0.37771,-0.09792 -0.60155,-0.09792c-0.21451,0 -0.41036,0.02797 -0.58756,0.08393c-0.16787,0.05596 -0.31709,0.13523 -0.44766,0.23782c-0.18652,0.14922 -0.34507,0.34041 -0.47564,0.57356c-0.13057,0.22383 -0.22849,0.48963 -0.29377,0.7974c-0.05596,0.23316 -0.09792,0.48963 -0.12591,0.76941c-0.01865,0.27979 -0.02797,0.56891 -0.02797,0.86735v1.74867c0,0.28912 0.00932,0.56891 0.02797,0.83936c0.01865,0.26113 0.05596,0.50361 0.11192,0.72745c0.06528,0.28912 0.15388,0.55491 0.2658,0.7974c0.12124,0.23316 0.26113,0.42435 0.41968,0.57356c0.13989,0.13057 0.30311,0.23316 0.48963,0.30776c0.19585,0.06528 0.41036,0.09792 0.64351,0.09792c0.23316,0 0.443,-0.03264 0.62952,-0.09792c0.19585,-0.06528 0.36372,-0.15855 0.50361,-0.27979c0.18652,-0.15855 0.34507,-0.34973 0.47564,-0.57356c0.13057,-0.23316 0.23316,-0.49896 0.30776,-0.7974c0.05596,-0.22383 0.09792,-0.47097 0.12591,-0.74144c0.03731,-0.27979 0.05596,-0.56424 0.05596,-0.85335v-1.74867c0,-0.29844 -0.01865,-0.58289 -0.05596,-0.85335zM143.58419,48.06009h2.09841l0.7974,6.64496l0.05596,0.46165l0.06995,-0.48963l0.93729,-6.61698h1.63676l0.99324,6.65895l0.06995,0.48963l0.06995,-0.48963l0.7974,-6.65895h2.1124l-1.65075,11.877h-2.07043l-1.03521,-6.40714l-0.09792,-0.60155l-0.08393,0.60155l-0.99324,6.40714h-2.07043zM158.72796,61.6438c-0.30776,0.63419 -0.70413,1.17044 -1.1891,1.60878l-1.20309,-0.62952c0.20517,-0.39171 0.37771,-0.80206 0.51761,-1.23107c0.13989,-0.41968 0.20984,-0.92796 0.20984,-1.52484v-1.91655h2.14038l-0.01399,1.80463c0,0.62486 -0.15388,1.25439 -0.46165,1.88857zM179.57262,49.93467v10.00242h-2.29426v-10.00242h-3.60927v-1.87458h9.56874v1.87458zM186.82638,55.50245v4.43464h-2.29426v-11.877h3.98698c0.65284,0 1.24505,0.07927 1.77665,0.23782c0.54092,0.14922 1.00257,0.37305 1.38495,0.67149c0.37305,0.30776 0.65751,0.68548 0.85335,1.13314c0.20517,0.43833 0.30776,0.95128 0.30776,1.53883c0,0.42901 -0.05129,0.81139 -0.15388,1.14713c-0.09327,0.33575 -0.23316,0.63885 -0.41968,0.90931c-0.18652,0.27047 -0.41501,0.50828 -0.68548,0.71346c-0.26113,0.19585 -0.55491,0.36839 -0.88133,0.51761l2.56006,4.89629v0.11192h-2.46213l-2.23831,-4.43464zM188.51909,53.64186c0.3544,0 0.66683,-0.05129 0.93729,-0.15388c0.27047,-0.10259 0.48963,-0.24715 0.65751,-0.43367c0.13989,-0.14922 0.24715,-0.33108 0.32176,-0.54559c0.07461,-0.21451 0.11192,-0.45232 0.11192,-0.71346c0,-0.31709 -0.04663,-0.59688 -0.13989,-0.83936c-0.09327,-0.24248 -0.23782,-0.43833 -0.43367,-0.58756c-0.16787,-0.14922 -0.37305,-0.26113 -0.61553,-0.33575c-0.24248,-0.07461 -0.52227,-0.11192 -0.83936,-0.11192h-1.69272v3.72118zM200.94888,48.06009h2.53208l-3.73516,7.76411l-0.01399,4.11288h-2.28027l-0.01399,-4.2108l-3.67922,-7.66619h2.51809l2.33623,5.46986zM216.88326,57.46097l-0.69947,2.47612h-2.42016l3.88906,-11.877h2.08442l3.81911,11.877h-2.42016l-0.68548,-2.47612zM219.90497,55.50245l-1.21708,-4.3647l-1.24505,4.3647zM232.18092,59.09773c-0.25181,0.18652 -0.55025,0.3544 -0.89532,0.50361c-0.3544,0.14922 -0.75076,0.27047 -1.1891,0.36372c-0.42901,0.09327 -0.89532,0.13989 -1.39894,0.13989c-0.42901,0 -0.83936,-0.05129 -1.23107,-0.15388c-0.38237,-0.10259 -0.73211,-0.24715 -1.0492,-0.43367c-0.31709,-0.19585 -0.60621,-0.43367 -0.86735,-0.71346c-0.25181,-0.28912 -0.46631,-0.61553 -0.64351,-0.97926c-0.21451,-0.40103 -0.37305,-0.85335 -0.47564,-1.35697c-0.10259,-0.51295 -0.15388,-1.06319 -0.15388,-1.65075v-1.62277c0,-0.55957 0.05129,-1.08184 0.15388,-1.56681c0.10259,-0.49429 0.24715,-0.93729 0.43367,-1.32899c0.18652,-0.3544 0.39636,-0.67149 0.62952,-0.95128c0.23316,-0.28912 0.49429,-0.53626 0.7834,-0.74144c0.32642,-0.23316 0.68548,-0.41036 1.07719,-0.5316c0.39171,-0.12124 0.80672,-0.18187 1.24505,-0.18187c0.66216,0 1.24039,0.0886 1.73468,0.2658c0.50361,0.16787 0.92796,0.40569 1.27304,0.71346c0.34507,0.32642 0.61087,0.71812 0.7974,1.17511c0.19585,0.45699 0.32176,0.96993 0.37771,1.53883h-2.22431c-0.03731,-0.28912 -0.09792,-0.54559 -0.18187,-0.76941c-0.07461,-0.22383 -0.18187,-0.41036 -0.32176,-0.55957c-0.14922,-0.16787 -0.34041,-0.29377 -0.57356,-0.37771c-0.23316,-0.08393 -0.50828,-0.12591 -0.82537,-0.12591c-0.1772,0 -0.34973,0.02797 -0.51761,0.08393c-0.15855,0.04663 -0.30776,0.12591 -0.44766,0.23782c-0.18652,0.13989 -0.3544,0.32642 -0.50361,0.55957c-0.14922,0.22383 -0.27047,0.48963 -0.36372,0.7974c-0.08393,0.24248 -0.14456,0.51295 -0.18187,0.81139c-0.03731,0.28912 -0.05596,0.60155 -0.05596,0.93729v1.63676c0,0.42901 0.02797,0.82071 0.08393,1.17511c0.05596,0.3544 0.13523,0.66683 0.23782,0.93729c0.06528,0.15855 0.13989,0.30311 0.22383,0.43367c0.08393,0.13057 0.1772,0.24715 0.27979,0.34973c0.1772,0.1772 0.37771,0.31243 0.60155,0.40569c0.23316,0.08393 0.49896,0.13057 0.7974,0.13989c0.1772,0 0.34973,-0.01399 0.51761,-0.04197c0.1772,-0.02797 0.34507,-0.06528 0.50361,-0.11192c0.14922,-0.04663 0.27979,-0.10259 0.39171,-0.16787c0.12124,-0.06528 0.21451,-0.13057 0.27979,-0.19585v-2.15436h-1.95852v-1.7207h4.23879l0.01399,4.68644c-0.14922,0.1772 -0.3544,0.35907 -0.61553,0.54559zM236.93054,57.46097l-0.69947,2.47612h-2.42016l3.88906,-11.877h2.08442l3.81911,11.877h-2.42016l-0.68548,-2.47612zM239.95225,55.50245l-1.21708,-4.3647l-1.24505,4.3647zM252.04627,48.06009v1.8466h-2.30823v8.18379h2.30823v1.8466h-6.85478v-1.8466h2.25229v-8.18379h-2.25229v-1.8466zM260.25132,59.93709l-3.3015,-7.65219v7.65219h-2.30825v-11.877h2.30825l3.27352,7.62422l0.01399,-7.62422h2.29426v11.877z" fill="#ffffff" fill-rule="nonzero" stroke-width="1" stroke-linecap="square"/><path d="M74.25814,79.9923v-11.87701h3.98698c0.65284,0 1.24039,0.06528 1.76267,0.19585c0.5316,0.13057 0.98859,0.33109 1.37096,0.60156c0.37305,0.26113 0.66216,0.59688 0.86735,1.00724c0.20517,0.41036 0.30776,0.89066 0.30776,1.44091c-0.00932,0.36372 -0.07461,0.70413 -0.19585,1.02123c-0.12124,0.31709 -0.30311,0.59688 -0.54559,0.83936c-0.13057,0.13057 -0.27979,0.25181 -0.44766,0.36372c-0.15855,0.10259 -0.34041,0.19119 -0.54559,0.2658v0.01399c0.39171,0.10259 0.69947,0.23782 0.9233,0.40569c0.23316,0.16787 0.42901,0.36372 0.58756,0.58756c0.16787,0.24248 0.28912,0.50361 0.36372,0.7834c0.08393,0.27979 0.12591,0.56891 0.12591,0.86735c0,0.56891 -0.09792,1.07252 -0.29377,1.51085c-0.19585,0.43833 -0.47564,0.80206 -0.83936,1.09117c-0.36372,0.29844 -0.80672,0.52227 -1.32899,0.67149c-0.52227,0.13989 -1.10983,0.20984 -1.76267,0.20984h-4.33671zM76.56639,78.14569h2.02847c0.29844,0 0.56424,-0.03731 0.7974,-0.11192c0.24248,-0.08393 0.443,-0.19119 0.60155,-0.32176c0.1772,-0.13989 0.30776,-0.31243 0.39171,-0.51761c0.09327,-0.21451 0.13989,-0.44766 0.13989,-0.69947c0,-0.27047 -0.03731,-0.50828 -0.11192,-0.71346c-0.06528,-0.21451 -0.16787,-0.39636 -0.30776,-0.54559c-0.14922,-0.14922 -0.34041,-0.2658 -0.57356,-0.34973c-0.23316,-0.08393 -0.51295,-0.12591 -0.83936,-0.12591h-2.12639zM78.2591,73.09553c0.3544,0 0.66216,-0.03731 0.9233,-0.11192c0.27047,-0.08393 0.48496,-0.20517 0.64351,-0.36372c0.13989,-0.12124 0.24715,-0.27047 0.32176,-0.44766c0.07461,-0.18652 0.11192,-0.39171 0.11192,-0.61553c0,-0.24248 -0.03264,-0.45232 -0.09792,-0.62952c-0.06528,-0.18652 -0.15855,-0.33575 -0.27979,-0.44766c-0.16787,-0.16787 -0.38704,-0.28912 -0.65751,-0.36372c-0.27047,-0.08393 -0.59221,-0.12591 -0.96527,-0.12591h-1.69272v3.10564zM86.57602,77.51617l-0.69947,2.47612h-2.42016l3.88906,-11.87701h2.08442l3.81911,11.87701h-2.42016l-0.68548,-2.47612zM89.59773,75.55766l-1.21708,-4.3647l-1.24505,4.3647zM94.27743,79.9923v-11.87701h3.07767c0.55025,0 1.06319,0.06995 1.53883,0.20984c0.47564,0.13057 0.90931,0.3171 1.30101,0.55959c0.34507,0.20517 0.65284,0.45232 0.9233,0.74144c0.27047,0.28912 0.50361,0.60621 0.69947,0.95128c0.23316,0.41968 0.41501,0.88133 0.54559,1.38495c0.13057,0.50361 0.19585,1.03988 0.19585,1.60878v0.97926c0,0.55025 -0.06063,1.07252 -0.18187,1.56681c-0.12124,0.48496 -0.28912,0.93263 -0.50361,1.34299c-0.20517,0.36372 -0.44766,0.69947 -0.72745,1.00724c-0.27979,0.30776 -0.58756,0.56424 -0.9233,0.76941c-0.38237,0.24248 -0.80672,0.42901 -1.27304,0.55957c-0.46631,0.13057 -0.9606,0.19585 -1.48288,0.19585zM96.58567,78.14569h0.88133c0.27979,0 0.54092,-0.03264 0.7834,-0.09792c0.25181,-0.07461 0.47564,-0.1772 0.67149,-0.30776c0.20517,-0.14922 0.39171,-0.33108 0.55957,-0.54559c0.16787,-0.22383 0.31243,-0.48031 0.43367,-0.76941c0.09327,-0.26113 0.16321,-0.54559 0.20984,-0.85335c0.05596,-0.31709 0.08393,-0.65751 0.08393,-1.02123v-0.99324c0,-0.34507 -0.02797,-0.67149 -0.08393,-0.97926c-0.04663,-0.30776 -0.11657,-0.58756 -0.20984,-0.83936c-0.12124,-0.30776 -0.27979,-0.57823 -0.47564,-0.81139c-0.18652,-0.24248 -0.41036,-0.43833 -0.67149,-0.58756c-0.19585,-0.12124 -0.41501,-0.20984 -0.65751,-0.2658c-0.23316,-0.06528 -0.48496,-0.09792 -0.75543,-0.09792h-0.76941zM118.3956,75.55766h-1.73468v4.43464h-2.29426v-11.87701h3.98698c0.65284,0 1.24505,0.07927 1.77665,0.23782c0.54092,0.14922 1.00257,0.37306 1.38495,0.67151c0.37305,0.30776 0.65751,0.68548 0.85335,1.13314c0.20517,0.43833 0.30776,0.95128 0.30776,1.53883c0,0.42901 -0.05129,0.81139 -0.15388,1.14713c-0.09327,0.33575 -0.23316,0.63885 -0.41968,0.90931c-0.18652,0.27047 -0.41501,0.50828 -0.68548,0.71346c-0.26113,0.19585 -0.55491,0.36839 -0.88133,0.51761l2.56006,4.89629v0.11192h-2.46213l-2.23831,-4.43464zM118.35364,73.69707c0.3544,0 0.66683,-0.05129 0.93729,-0.15388c0.27047,-0.10259 0.48963,-0.24715 0.65751,-0.43367c0.13989,-0.14922 0.24715,-0.33108 0.32176,-0.54559c0.07461,-0.21451 0.11192,-0.45232 0.11192,-0.71346c0,-0.31709 -0.04663,-0.59688 -0.13989,-0.83936c-0.09327,-0.24248 -0.23782,-0.43833 -0.43367,-0.58756c-0.16787,-0.14922 -0.37305,-0.26113 -0.61553,-0.33575c-0.24248,-0.07461 -0.52227,-0.11192 -0.83936,-0.11192h-1.69272v3.72118zM131.70673,74.78824h-4.8823v3.35746h5.70767v1.8466h-8.00193v-11.87701h7.97395v1.87459h-5.6797v2.99373h4.8823v1.80463zM136.6942,77.51617l-0.69947,2.47612h-2.42016l3.88906,-11.87701h2.08442l3.81911,11.87701h-2.42016l-0.68548,-2.47612zM139.71591,75.55766l-1.21708,-4.3647l-1.24505,4.3647zM144.39558,79.9923v-11.87701h3.07767c0.55025,0 1.06319,0.06995 1.53883,0.20984c0.47564,0.13057 0.90931,0.3171 1.30101,0.55959c0.34507,0.20517 0.65284,0.45232 0.9233,0.74144c0.27047,0.28912 0.50361,0.60621 0.69947,0.95128c0.23316,0.41968 0.41501,0.88133 0.54559,1.38495c0.13057,0.50361 0.19585,1.03988 0.19585,1.60878v0.97926c0,0.55025 -0.06063,1.07252 -0.18187,1.56681c-0.12124,0.48496 -0.28912,0.93263 -0.50361,1.34299c-0.20517,0.36372 -0.44766,0.69947 -0.72745,1.00724c-0.27979,0.30776 -0.58756,0.56424 -0.9233,0.76941c-0.38237,0.24248 -0.80672,0.42901 -1.27304,0.55957c-0.46631,0.13057 -0.9606,0.19585 -1.48288,0.19585zM146.70383,78.14569h0.88133c0.27979,0 0.54092,-0.03264 0.7834,-0.09792c0.25181,-0.07461 0.47564,-0.1772 0.67149,-0.30776c0.20517,-0.14922 0.39171,-0.33108 0.55957,-0.54559c0.16787,-0.22383 0.31243,-0.48031 0.43367,-0.76941c0.09327,-0.26113 0.16321,-0.54559 0.20984,-0.85335c0.05596,-0.31709 0.08393,-0.65751 0.08393,-1.02123v-0.99324c0,-0.34507 -0.02797,-0.67149 -0.08393,-0.97926c-0.04663,-0.30776 -0.11657,-0.58756 -0.20984,-0.83936c-0.12124,-0.30776 -0.27979,-0.57823 -0.47564,-0.81139c-0.18652,-0.24248 -0.41036,-0.43833 -0.67149,-0.58756c-0.19585,-0.12124 -0.41501,-0.20984 -0.65751,-0.2658c-0.23316,-0.06528 -0.48496,-0.09792 -0.75543,-0.09792h-0.76941zM158.72795,81.699c-0.30776,0.63419 -0.70413,1.17044 -1.1891,1.60878l-1.20309,-0.62952c0.20517,-0.39171 0.37771,-0.80206 0.51761,-1.23107c0.13989,-0.41968 0.20984,-0.92796 0.20984,-1.52484v-1.91655h2.14038l-0.01399,1.80463c0,0.62486 -0.15388,1.25439 -0.46165,1.88857zM179.57262,69.98988v10.00242h-2.29426v-10.00242h-3.60927v-1.87459h9.56874v1.87459zM188.56105,75.55766h-1.73468v4.43464h-2.29426v-11.87701h3.98698c0.65284,0 1.24505,0.07927 1.77665,0.23782c0.54092,0.14922 1.00257,0.37306 1.38495,0.67151c0.37305,0.30776 0.65751,0.68548 0.85335,1.13314c0.20517,0.43833 0.30776,0.95128 0.30776,1.53883c0,0.42901 -0.05129,0.81139 -0.15388,1.14713c-0.09327,0.33575 -0.23316,0.63885 -0.41968,0.90931c-0.18652,0.27047 -0.41501,0.50828 -0.68548,0.71346c-0.26113,0.19585 -0.55491,0.36839 -0.88133,0.51761l2.56006,4.89629v0.11192h-2.46213l-2.23831,-4.43464zM188.51908,73.69707c0.3544,0 0.66683,-0.05129 0.93729,-0.15388c0.27047,-0.10259 0.48963,-0.24715 0.65751,-0.43367c0.13989,-0.14922 0.24715,-0.33108 0.32176,-0.54559c0.07461,-0.21451 0.11192,-0.45232 0.11192,-0.71346c0,-0.31709 -0.04663,-0.59688 -0.13989,-0.83936c-0.09327,-0.24248 -0.23782,-0.43833 -0.43367,-0.58756c-0.16787,-0.14922 -0.37305,-0.26113 -0.61553,-0.33575c-0.24248,-0.07461 -0.52227,-0.11192 -0.83936,-0.11192h-1.69272v3.72118zM200.94888,68.11528h2.53208l-3.73516,7.76413l-0.01399,4.11288h-2.28027l-0.01399,-4.2108l-3.67922,-7.6662h2.51809l2.33623,5.46987zM216.88326,77.51617l-0.69947,2.47612h-2.42016l3.88906,-11.87701h2.08442l3.81911,11.87701h-2.42016l-0.68548,-2.47612zM219.90497,75.55766l-1.21708,-4.3647l-1.24505,4.3647zM232.18091,79.15293c-0.25181,0.18652 -0.55025,0.3544 -0.89532,0.50361c-0.3544,0.14922 -0.75076,0.27047 -1.1891,0.36372c-0.42901,0.09327 -0.89532,0.13989 -1.39894,0.13989c-0.42901,0 -0.83936,-0.05129 -1.23107,-0.15388c-0.38237,-0.10259 -0.73211,-0.24715 -1.0492,-0.43367c-0.31709,-0.19585 -0.60621,-0.43367 -0.86735,-0.71346c-0.25181,-0.28912 -0.46631,-0.61553 -0.64351,-0.97926c-0.21451,-0.40103 -0.37305,-0.85335 -0.47564,-1.35697c-0.10259,-0.51295 -0.15388,-1.06319 -0.15388,-1.65075v-1.62277c0,-0.55957 0.05129,-1.08184 0.15388,-1.56681c0.10259,-0.49429 0.24715,-0.93729 0.43367,-1.32899c0.18652,-0.3544 0.39636,-0.67149 0.62952,-0.95128c0.23316,-0.28912 0.49429,-0.53626 0.7834,-0.74145c0.32642,-0.23316 0.68548,-0.41036 1.07719,-0.5316c0.39171,-0.12124 0.80672,-0.18187 1.24505,-0.18187c0.66216,0 1.24039,0.0886 1.73468,0.2658c0.50361,0.16787 0.92796,0.4057 1.27304,0.71347c0.34507,0.32642 0.61087,0.71812 0.7974,1.17511c0.19585,0.45699 0.32176,0.96993 0.37771,1.53883h-2.22431c-0.03731,-0.28912 -0.09792,-0.54559 -0.18187,-0.76941c-0.07461,-0.22383 -0.18187,-0.41036 -0.32176,-0.55957c-0.14922,-0.16787 -0.34041,-0.29377 -0.57356,-0.37771c-0.23316,-0.08393 -0.50828,-0.12591 -0.82537,-0.12591c-0.1772,0 -0.34973,0.02797 -0.51761,0.08393c-0.15855,0.04663 -0.30776,0.12591 -0.44766,0.23782c-0.18652,0.13989 -0.3544,0.32642 -0.50361,0.55957c-0.14922,0.22383 -0.27047,0.48963 -0.36372,0.7974c-0.08393,0.24248 -0.14456,0.51295 -0.18187,0.81139c-0.03731,0.28912 -0.05596,0.60155 -0.05596,0.93729v1.63676c0,0.42901 0.02797,0.82071 0.08393,1.17511c0.05596,0.3544 0.13523,0.66683 0.23782,0.93729c0.06528,0.15855 0.13989,0.30311 0.22383,0.43367c0.08393,0.13057 0.1772,0.24715 0.27979,0.34973c0.1772,0.1772 0.37771,0.31243 0.60155,0.40569c0.23316,0.08393 0.49896,0.13057 0.7974,0.13989c0.1772,0 0.34973,-0.01399 0.51761,-0.04197c0.1772,-0.02797 0.34507,-0.06528 0.50361,-0.11192c0.14922,-0.04663 0.27979,-0.10259 0.39171,-0.16787c0.12124,-0.06528 0.21451,-0.13057 0.27979,-0.19585v-2.15436h-1.95852v-1.7207h4.23879l0.01399,4.68644c-0.14922,0.1772 -0.3544,0.35907 -0.61553,0.54559zM236.93053,77.51617l-0.69947,2.47612h-2.42016l3.88906,-11.87701h2.08442l3.81911,11.87701h-2.42016l-0.68548,-2.47612zM239.95224,75.55766l-1.21708,-4.3647l-1.24505,4.3647zM252.04627,68.11528v1.84662h-2.30823v8.18379h2.30823v1.8466h-6.85478v-1.8466h2.25229v-8.18379h-2.25229v-1.84662zM260.25132,79.9923l-3.3015,-7.65219v7.65219h-2.30825v-11.87701h2.30825l3.27352,7.62423l0.01399,-7.62423h2.29426v11.87701z" fill="#ffffff" fill-rule="nonzero" stroke-width="1" stroke-linecap="square"/><path d="M117.51064,96.43821c-0.09327,0.45699 -0.22849,0.88133 -0.40569,1.27304c-0.18652,0.39171 -0.41501,0.75076 -0.68548,1.07719c-0.27047,0.32642 -0.57823,0.60155 -0.9233,0.82537c-0.31709,0.18652 -0.66683,0.33108 -1.0492,0.43367c-0.37305,0.11192 -0.77875,0.16787 -1.21708,0.16787c-0.45699,0 -0.88133,-0.06063 -1.27304,-0.18187c-0.39171,-0.12124 -0.75076,-0.28912 -1.07719,-0.50361c-0.30776,-0.23316 -0.58756,-0.50828 -0.83936,-0.82537c-0.25181,-0.32642 -0.46165,-0.6948 -0.62952,-1.10516c-0.14922,-0.37305 -0.2658,-0.77875 -0.34973,-1.21708c-0.07461,-0.44766 -0.11192,-0.91397 -0.11192,-1.39894v-1.73468c0,-0.52227 0.04197,-1.01656 0.12591,-1.48288c0.09327,-0.46631 0.22849,-0.89532 0.40569,-1.28703c0.16787,-0.38237 0.36839,-0.72279 0.60155,-1.02123c0.24248,-0.30776 0.52227,-0.56891 0.83936,-0.7834c0.31709,-0.21451 0.66683,-0.37771 1.0492,-0.48963c0.38237,-0.12124 0.80206,-0.18187 1.25904,-0.18187c0.45699,0 0.88133,0.06063 1.27304,0.18187c0.40103,0.12124 0.76475,0.28912 1.09117,0.50361c0.31709,0.20517 0.59688,0.45699 0.83936,0.75543c0.24248,0.28912 0.45232,0.61087 0.62952,0.96527c0.18652,0.40103 0.33108,0.84403 0.43367,1.32899c0.10259,0.47564 0.15388,0.97926 0.15388,1.51085v1.73468c0,0.51295 -0.04663,0.99791 -0.13989,1.4549zM115.27234,92.38129c-0.02797,-0.27979 -0.07461,-0.53626 -0.13989,-0.76941c-0.08393,-0.29844 -0.19585,-0.55957 -0.33575,-0.7834c-0.13057,-0.23316 -0.28912,-0.42435 -0.47564,-0.57356c-0.13989,-0.11192 -0.30311,-0.19585 -0.48963,-0.25181c-0.1772,-0.06528 -0.37771,-0.09792 -0.60155,-0.09792c-0.21451,0 -0.41036,0.02797 -0.58756,0.08393c-0.16787,0.05596 -0.31709,0.13523 -0.44766,0.23782c-0.18652,0.14922 -0.34507,0.34041 -0.47564,0.57356c-0.13057,0.22383 -0.22849,0.48963 -0.29377,0.7974c-0.05596,0.23316 -0.09792,0.48963 -0.12591,0.76941c-0.01865,0.27979 -0.02797,0.56891 -0.02797,0.86735v1.74867c0,0.28912 0.00932,0.56891 0.02797,0.83936c0.01865,0.26113 0.05596,0.50361 0.11192,0.72745c0.06528,0.28912 0.15388,0.55491 0.2658,0.7974c0.12124,0.23316 0.26113,0.42435 0.41968,0.57356c0.13989,0.13057 0.30311,0.23316 0.48963,0.30776c0.19585,0.06528 0.41036,0.09792 0.64351,0.09792c0.23316,0 0.443,-0.03264 0.62952,-0.09792c0.19585,-0.06528 0.36372,-0.15855 0.50361,-0.27979c0.18652,-0.15855 0.34507,-0.34973 0.47564,-0.57356c0.13057,-0.23316 0.23316,-0.49896 0.30776,-0.7974c0.05596,-0.22383 0.09792,-0.47097 0.12591,-0.74144c0.03731,-0.27979 0.05596,-0.56424 0.05596,-0.85335v-1.74867c0,-0.29844 -0.01865,-0.58289 -0.05596,-0.85335zM121.67273,96.55013v3.49735h-2.30825v-11.877h2.30825v5.44187l1.07719,-1.4549l2.88182,-3.98698h2.81187l-4.00096,5.26002l4.14086,6.61698h-2.72793l-2.93778,-4.8823zM131.68236,97.57136l-0.69947,2.47612h-2.42016l3.88906,-11.877h2.08442l3.81911,11.877h-2.42016l-0.68548,-2.47612zM134.70407,95.61284l-1.21708,-4.3647l-1.24505,4.3647zM145.81889,88.17048h2.53208l-3.73516,7.76411l-0.01399,4.11288h-2.28027l-0.01399,-4.2108l-3.67922,-7.66619h2.51809l2.33623,5.46986zM153.71612,101.75418c-0.30776,0.63419 -0.70413,1.17044 -1.1891,1.60878l-1.20309,-0.62952c0.20517,-0.39171 0.37771,-0.80206 0.51761,-1.23107c0.13989,-0.41968 0.20984,-0.92796 0.20984,-1.52484v-1.91655h2.14038l-0.01399,1.80463c0,0.62486 -0.15388,1.25439 -0.46165,1.88857zM174.56078,90.04506v10.00242h-2.29426v-10.00242h-3.60927v-1.87458h9.56874v1.87458zM185.10204,100.04748v-5.1481h-3.37144v5.1481h-2.26628v-11.877h2.26628v4.86831h3.37144v-4.86831h2.26628v11.877zM191.82419,97.57136l-0.69947,2.47612h-2.42016l3.88906,-11.877h2.08442l3.81911,11.877h-2.42016l-0.68548,-2.47612zM194.8459,95.61284l-1.21708,-4.3647l-1.24505,4.3647zM205.12133,100.04748l-3.3015,-7.65219v7.65219h-2.30825v-11.877h2.30825l3.27352,7.62422l0.01399,-7.62422h2.29426v11.877zM211.88541,96.55013v3.49735h-2.30825v-11.877h2.30825v5.44187l1.07719,-1.4549l2.88182,-3.98698h2.81187l-4.00096,5.26002l4.14086,6.61698h-2.72793l-2.93778,-4.8823zM225.67221,96.35428c-0.07461,-0.18652 -0.19585,-0.35907 -0.36372,-0.51761c-0.18652,-0.15855 -0.42435,-0.30311 -0.71346,-0.43367c-0.27979,-0.13989 -0.62952,-0.2658 -1.0492,-0.37771c-0.66216,-0.1772 -1.24039,-0.39171 -1.73468,-0.64351c-0.49429,-0.26113 -0.89999,-0.54559 -1.21708,-0.85335c-0.31709,-0.29844 -0.55491,-0.63419 -0.71346,-1.00724c-0.15855,-0.37305 -0.23782,-0.77408 -0.23782,-1.20309c0,-0.50361 0.10259,-0.95595 0.30776,-1.35697c0.21451,-0.41036 0.50828,-0.76009 0.88133,-1.0492c0.37305,-0.28912 0.81605,-0.51295 1.32899,-0.67149c0.51295,-0.15855 1.06785,-0.23782 1.66474,-0.23782c0.62486,0 1.19376,0.09327 1.70671,0.27979c0.51295,0.1772 0.95595,0.42435 1.32899,0.74144c0.36372,0.32642 0.64817,0.71346 0.85335,1.16112c0.20517,0.44766 0.30776,0.93729 0.30776,1.46888h-2.22431c-0.00932,-0.26113 -0.06063,-0.50361 -0.15388,-0.72745c-0.08393,-0.22383 -0.20517,-0.41968 -0.36372,-0.58756c-0.16787,-0.15855 -0.37771,-0.27979 -0.62952,-0.36372c-0.24248,-0.09327 -0.5316,-0.13989 -0.86735,-0.13989c-0.29844,0 -0.56891,0.03731 -0.81139,0.11192c-0.23316,0.07461 -0.43367,0.1772 -0.60155,0.30776c-0.15855,0.13057 -0.27979,0.28912 -0.36372,0.47564c-0.08393,0.1772 -0.12591,0.37305 -0.12591,0.58756c0,0.22383 0.05596,0.42901 0.16787,0.61553c0.11192,0.1772 0.27512,0.33575 0.48963,0.47564c0.20517,0.13989 0.45699,0.27047 0.75543,0.39171c0.30776,0.12124 0.65284,0.23316 1.03521,0.33575c0.40103,0.11192 0.78807,0.25181 1.16112,0.41968c0.37305,0.15855 0.71346,0.34507 1.02123,0.55957c0.46631,0.34507 0.83936,0.75076 1.11915,1.21708c0.27979,0.46631 0.41968,0.99791 0.41968,1.59479c0,0.52227 -0.10725,0.98859 -0.32176,1.39894c-0.20517,0.40103 -0.49429,0.74144 -0.86735,1.02123c-0.37305,0.27979 -0.81605,0.49429 -1.32899,0.64351c-0.50361,0.13989 -1.05853,0.20984 -1.66474,0.20984c-0.58756,0 -1.17511,-0.0886 -1.76267,-0.2658c-0.57823,-0.1772 -1.08184,-0.43833 -1.51085,-0.7834c-0.40103,-0.33575 -0.72279,-0.73211 -0.96527,-1.1891c-0.23316,-0.45699 -0.34973,-0.99324 -0.34973,-1.60878h2.25229c0.00932,0.36372 0.06995,0.67616 0.18187,0.93729c0.11192,0.25181 0.27512,0.45699 0.48963,0.61553c0.19585,0.16787 0.43367,0.28912 0.71346,0.36372c0.28912,0.07461 0.60621,0.11192 0.95128,0.11192c0.30776,0 0.57823,-0.03264 0.81139,-0.09792c0.23316,-0.07461 0.43367,-0.1772 0.60155,-0.30776c0.15855,-0.12124 0.27979,-0.27047 0.36372,-0.44766c0.09327,-0.1772 0.13989,-0.37305 0.13989,-0.58756c0,-0.20517 -0.03731,-0.40103 -0.11192,-0.58756z" fill="#ffffff" fill-rule="nonzero" stroke-width="1" stroke-linecap="square"/><path d="M98.21201,28.4803h-2.29426v-11.877h4.05692c0.65284,0 1.24039,0.09326 1.76267,0.27979c0.52227,0.18652 0.96527,0.44766 1.32899,0.7834c0.36372,0.33575 0.64351,0.73677 0.83936,1.20309c0.20517,0.46631 0.30776,0.98859 0.30776,1.56681c0,0.5316 -0.10259,1.02123 -0.30776,1.46888c-0.19585,0.44766 -0.47564,0.8347 -0.83936,1.16112c-0.36372,0.33575 -0.80672,0.59688 -1.32899,0.7834c-0.52227,0.18652 -1.10983,0.27979 -1.76267,0.27979h-1.76267zM99.97467,22.26901c0.32642,0 0.60621,-0.04663 0.83936,-0.13989c0.24248,-0.10259 0.44766,-0.23782 0.61553,-0.40569c0.15855,-0.16787 0.27512,-0.36372 0.34973,-0.58756c0.08393,-0.22383 0.12591,-0.45232 0.12591,-0.68548c0,-0.27979 -0.04197,-0.53626 -0.12591,-0.76941c-0.07461,-0.24248 -0.19119,-0.45699 -0.34973,-0.64351c-0.16787,-0.1772 -0.37305,-0.31709 -0.61553,-0.41968c-0.23316,-0.10259 -0.51294,-0.15388 -0.83936,-0.15388h-1.76267v3.80511zM113.80341,26.63369v1.8466h-7.86204v-11.877h2.30825v10.0304zM118.24529,23.27624v3.35746h5.70767v1.8466h-8.00193v-11.877h7.97395v1.87458h-5.6797v2.99373h4.8823v1.80463zM128.11502,26.00417l-0.69947,2.47612h-2.42016l3.88906,-11.877h2.08442l3.81911,11.877h-2.42016l-0.68548,-2.47612zM131.13673,24.04565l-1.21708,-4.3647l-1.24505,4.3647zM141.91581,24.78709c-0.07461,-0.18652 -0.19585,-0.35906 -0.36372,-0.51761c-0.18652,-0.15855 -0.42435,-0.3031 -0.71346,-0.43367c-0.27979,-0.13989 -0.62952,-0.2658 -1.0492,-0.37771c-0.66216,-0.1772 -1.24039,-0.39171 -1.73468,-0.64351c-0.49429,-0.26113 -0.89999,-0.54559 -1.21708,-0.85335c-0.31709,-0.29844 -0.55491,-0.63419 -0.71346,-1.00724c-0.15855,-0.37305 -0.23782,-0.77408 -0.23782,-1.20309c0,-0.50361 0.10259,-0.95595 0.30776,-1.35697c0.21451,-0.41036 0.50828,-0.76009 0.88133,-1.0492c0.37305,-0.28912 0.81605,-0.51294 1.32899,-0.67149c0.51294,-0.15855 1.06786,-0.23782 1.66474,-0.23782c0.62485,0 1.19376,0.09326 1.70671,0.27979c0.51294,0.1772 0.95595,0.42435 1.32899,0.74144c0.36372,0.32642 0.64818,0.71346 0.85335,1.16112c0.20517,0.44766 0.30776,0.93729 0.30776,1.46888h-2.22431c-0.00932,-0.26113 -0.06063,-0.50361 -0.15388,-0.72745c-0.08393,-0.22383 -0.20517,-0.41968 -0.36372,-0.58756c-0.16787,-0.15855 -0.37771,-0.27979 -0.62952,-0.36372c-0.24248,-0.09326 -0.5316,-0.13989 -0.86735,-0.13989c-0.29844,0 -0.5689,0.0373 -0.81139,0.11192c-0.23316,0.07461 -0.43367,0.1772 -0.60155,0.30776c-0.15855,0.13057 -0.27979,0.28912 -0.36372,0.47564c-0.08393,0.1772 -0.12591,0.37305 -0.12591,0.58756c0,0.22383 0.05596,0.42901 0.16787,0.61553c0.11192,0.1772 0.27512,0.33575 0.48963,0.47564c0.20517,0.13989 0.45699,0.27047 0.75543,0.39171c0.30776,0.12124 0.65284,0.23316 1.03521,0.33575c0.40103,0.11192 0.78807,0.25181 1.16112,0.41968c0.37305,0.15855 0.71346,0.34507 1.02123,0.55957c0.46631,0.34507 0.83936,0.75076 1.11915,1.21708c0.27979,0.46631 0.41968,0.99791 0.41968,1.59479c0,0.52227 -0.10725,0.98859 -0.32176,1.39894c-0.20517,0.40103 -0.49429,0.74144 -0.86735,1.02123c-0.37305,0.27979 -0.81605,0.49429 -1.32899,0.64351c-0.50361,0.13989 -1.05853,0.20984 -1.66474,0.20984c-0.58756,0 -1.17511,-0.0886 -1.76267,-0.2658c-0.57823,-0.1772 -1.08184,-0.43834 -1.51085,-0.7834c-0.40103,-0.33575 -0.72279,-0.73211 -0.96527,-1.1891c-0.23316,-0.45699 -0.34973,-0.99324 -0.34973,-1.60878h2.25229c0.00932,0.36372 0.06995,0.67616 0.18187,0.93729c0.11192,0.25181 0.27512,0.45699 0.48963,0.61553c0.19585,0.16787 0.43367,0.28912 0.71346,0.36372c0.28912,0.07461 0.60621,0.11192 0.95128,0.11192c0.30776,0 0.57823,-0.03264 0.81139,-0.09792c0.23316,-0.07461 0.43367,-0.1772 0.60155,-0.30776c0.15855,-0.12124 0.27979,-0.27047 0.36372,-0.44766c0.09326,-0.1772 0.13989,-0.37305 0.13989,-0.58756c0,-0.20517 -0.0373,-0.40103 -0.11192,-0.58756zM148.31618,23.27624v3.35746h5.70767v1.8466h-8.00193v-11.877h7.97395v1.87458h-5.6797v2.99373h4.8823v1.80463zM171.9867,24.78709c-0.07461,-0.18652 -0.19585,-0.35906 -0.36372,-0.51761c-0.18652,-0.15855 -0.42435,-0.3031 -0.71346,-0.43367c-0.27979,-0.13989 -0.62952,-0.2658 -1.0492,-0.37771c-0.66216,-0.1772 -1.24039,-0.39171 -1.73468,-0.64351c-0.49429,-0.26113 -0.89999,-0.54559 -1.21708,-0.85335c-0.31709,-0.29844 -0.55491,-0.63419 -0.71346,-1.00724c-0.15855,-0.37305 -0.23782,-0.77408 -0.23782,-1.20309c0,-0.50361 0.10259,-0.95595 0.30776,-1.35697c0.21451,-0.41036 0.50828,-0.76009 0.88133,-1.0492c0.37305,-0.28912 0.81605,-0.51294 1.32899,-0.67149c0.51294,-0.15855 1.06786,-0.23782 1.66474,-0.23782c0.62485,0 1.19376,0.09326 1.70671,0.27979c0.51296,0.1772 0.95597,0.42435 1.32902,0.74144c0.36372,0.32642 0.64818,0.71346 0.85335,1.16112c0.20517,0.44766 0.30776,0.93729 0.30776,1.46888h-2.22434c-0.00932,-0.26113 -0.06063,-0.50361 -0.15388,-0.72745c-0.08393,-0.22383 -0.20517,-0.41968 -0.36372,-0.58756c-0.16787,-0.15855 -0.37771,-0.27979 -0.62952,-0.36372c-0.24248,-0.09326 -0.5316,-0.13989 -0.86735,-0.13989c-0.29844,0 -0.5689,0.0373 -0.81139,0.11192c-0.23316,0.07461 -0.43367,0.1772 -0.60155,0.30776c-0.15855,0.13057 -0.27979,0.28912 -0.36372,0.47564c-0.08393,0.1772 -0.12591,0.37305 -0.12591,0.58756c0,0.22383 0.05596,0.42901 0.16787,0.61553c0.11192,0.1772 0.27512,0.33575 0.48963,0.47564c0.20517,0.13989 0.45699,0.27047 0.75543,0.39171c0.30776,0.12124 0.65284,0.23316 1.03521,0.33575c0.40103,0.11192 0.78807,0.25181 1.16112,0.41968c0.37305,0.15855 0.71346,0.34507 1.02126,0.55957c0.46631,0.34507 0.83936,0.75076 1.11915,1.21708c0.27979,0.46631 0.41968,0.99791 0.41968,1.59479c0,0.52227 -0.10725,0.98859 -0.32176,1.39894c-0.20517,0.40103 -0.49429,0.74144 -0.86735,1.02123c-0.37305,0.27979 -0.81606,0.49429 -1.32902,0.64351c-0.50361,0.13989 -1.05853,0.20984 -1.66474,0.20984c-0.58756,0 -1.17511,-0.0886 -1.76267,-0.2658c-0.57823,-0.1772 -1.08184,-0.43834 -1.51085,-0.7834c-0.40103,-0.33575 -0.72279,-0.73211 -0.96527,-1.1891c-0.23316,-0.45699 -0.34973,-0.99324 -0.34973,-1.60878h2.25229c0.00932,0.36372 0.06995,0.67616 0.18187,0.93729c0.11192,0.25181 0.27512,0.45699 0.48963,0.61553c0.19585,0.16787 0.43367,0.28912 0.71346,0.36372c0.28912,0.07461 0.60621,0.11192 0.95128,0.11192c0.30776,0 0.57823,-0.03264 0.81139,-0.09792c0.23316,-0.07461 0.43367,-0.1772 0.60155,-0.30776c0.15855,-0.12124 0.27979,-0.27047 0.36372,-0.44766c0.09326,-0.1772 0.13989,-0.37305 0.13989,-0.58756c0,-0.20517 -0.0373,-0.40103 -0.11192,-0.58756zM175.09958,16.6033h2.09841l0.7974,6.64496l0.05596,0.46165l0.06995,-0.48963l0.93729,-6.61698h1.63676l0.99324,6.65895l0.06995,0.48963l0.06995,-0.48963l0.7974,-6.65895h2.1124l-1.65075,11.877h-2.07043l-1.03521,-6.40714l-0.09792,-0.60155l-0.08393,0.60155l-0.99324,6.40714h-2.07043zM193.34896,16.6033v1.8466h-2.30825v8.18379h2.30825v1.8466h-6.85481v-1.8466h2.25229v-8.18379h-2.25229v-1.8466zM198.44834,28.4803h-2.29426v-11.877h4.05692c0.65284,0 1.24039,0.09326 1.76267,0.27979c0.52227,0.18652 0.96527,0.44766 1.32899,0.7834c0.36372,0.33575 0.64351,0.73677 0.83936,1.20309c0.20517,0.46631 0.30776,0.98859 0.30776,1.56681c0,0.5316 -0.10259,1.02123 -0.30776,1.46888c-0.19585,0.44766 -0.47564,0.8347 -0.83936,1.16112c-0.36372,0.33575 -0.80672,0.59688 -1.32899,0.7834c-0.52227,0.18652 -1.10983,0.27979 -1.76267,0.27979h-1.76267zM200.21101,22.26901c0.32642,0 0.60621,-0.04663 0.83936,-0.13989c0.24248,-0.10259 0.44766,-0.23782 0.61553,-0.40569c0.15855,-0.16787 0.27512,-0.36372 0.34973,-0.58756c0.08393,-0.22383 0.12591,-0.45232 0.12591,-0.68548c0,-0.27979 -0.04197,-0.53626 -0.12591,-0.76941c-0.07461,-0.24248 -0.19119,-0.45699 -0.34973,-0.64351c-0.16787,-0.1772 -0.37305,-0.31709 -0.61553,-0.41968c-0.23316,-0.10259 -0.51294,-0.15388 -0.83936,-0.15388h-1.76267v3.80511zM208.458,23.27624v3.35746h5.70767v1.8466h-8.00193v-11.877h7.97395v1.87458h-5.6797v2.99373h4.8823v1.80463zM233.93312,26.38188c-0.22383,0.47564 -0.51761,0.88133 -0.88133,1.21708c-0.37305,0.33575 -0.81605,0.59688 -1.32899,0.7834c-0.50361,0.1772 -1.06786,0.2658 -1.69272,0.2658c-0.48496,0 -0.93729,-0.06063 -1.35697,-0.18187c-0.41968,-0.13057 -0.79273,-0.31709 -1.11915,-0.55957c-0.30776,-0.22383 -0.57823,-0.48963 -0.81139,-0.7974c-0.23316,-0.31709 -0.43367,-0.66683 -0.60155,-1.0492c-0.15855,-0.38238 -0.27979,-0.80206 -0.36372,-1.25904c-0.08393,-0.45699 -0.12591,-0.94195 -0.12591,-1.4549v-1.59479c0,-0.47564 0.0373,-0.92796 0.11192,-1.35697c0.07461,-0.43834 0.19119,-0.84403 0.34973,-1.21708c0.16787,-0.44766 0.39171,-0.84869 0.67149,-1.20309c0.28912,-0.3544 0.61087,-0.65284 0.96527,-0.89532c0.32642,-0.20517 0.68081,-0.36372 1.06319,-0.47564c0.38238,-0.11192 0.79273,-0.16787 1.23107,-0.16787c0.65284,0 1.23107,0.09326 1.73468,0.27979c0.51294,0.18652 0.95128,0.44766 1.315,0.7834c0.3544,0.34507 0.63419,0.76475 0.83936,1.25904c0.21451,0.49429 0.34507,1.05387 0.39171,1.67872h-2.28027c-0.01865,-0.3544 -0.06995,-0.66216 -0.15388,-0.9233c-0.08393,-0.27047 -0.20517,-0.49896 -0.36372,-0.68548c-0.16787,-0.16787 -0.37305,-0.29844 -0.61553,-0.39171c-0.24248,-0.09326 -0.5316,-0.13989 -0.86735,-0.13989c-0.1772,0 -0.34507,0.02332 -0.50361,0.06995c-0.14922,0.0373 -0.28912,0.09326 -0.41968,0.16787c-0.22383,0.13057 -0.41501,0.31709 -0.57356,0.55957c-0.14922,0.24248 -0.27047,0.52227 -0.36372,0.83936c-0.07461,0.25181 -0.13057,0.5316 -0.16787,0.83936c-0.02797,0.29844 -0.04197,0.6202 -0.04197,0.96527v1.60878c0,0.47564 0.02332,0.89999 0.06995,1.27304c0.05596,0.37305 0.13989,0.69947 0.25181,0.97926c0.07461,0.18652 0.16321,0.3544 0.2658,0.50361c0.11192,0.14922 0.23316,0.27047 0.36372,0.36372c0.14922,0.11192 0.31243,0.19585 0.48963,0.25181c0.18652,0.04663 0.39171,0.06995 0.61553,0.06995c0.29844,0 0.5689,-0.0373 0.81139,-0.11192c0.24248,-0.08393 0.44766,-0.20517 0.61553,-0.36372c0.16787,-0.16787 0.29844,-0.37771 0.39171,-0.62952c0.10259,-0.25181 0.16321,-0.55957 0.18187,-0.9233h2.29426c-0.0373,0.59688 -0.16787,1.1378 -0.39171,1.62277zM238.375,26.00417l-0.69947,2.47612h-2.42016l3.88906,-11.877h2.08442l3.81911,11.877h-2.42016l-0.68548,-2.47612zM241.39671,24.04565l-1.21708,-4.3647l-1.24505,4.3647zM248.41264,24.04565v4.43464h-2.29426v-11.877h3.98698c0.65284,0 1.24505,0.07927 1.77665,0.23782c0.54092,0.14922 1.00257,0.37305 1.38495,0.67149c0.37305,0.30776 0.65751,0.68548 0.85335,1.13314c0.20517,0.43834 0.30776,0.95128 0.30776,1.53883c0,0.42901 -0.05129,0.81139 -0.15388,1.14713c-0.09326,0.33575 -0.23316,0.63885 -0.41968,0.90931c-0.18652,0.27047 -0.41501,0.50828 -0.68548,0.71346c-0.26113,0.19585 -0.55491,0.36839 -0.88133,0.51761l2.56006,4.89629v0.11192h-2.46213l-2.23831,-4.43464zM250.10536,22.18506c0.3544,0 0.66683,-0.05129 0.93729,-0.15388c0.27047,-0.10259 0.48963,-0.24715 0.65751,-0.43367c0.13989,-0.14922 0.24715,-0.33108 0.32176,-0.54559c0.07461,-0.21451 0.11192,-0.45232 0.11192,-0.71346c0,-0.31709 -0.04663,-0.59688 -0.13989,-0.83936c-0.09326,-0.24248 -0.23782,-0.43834 -0.43367,-0.58756c-0.16787,-0.14922 -0.37305,-0.26113 -0.61553,-0.33575c-0.24248,-0.07461 -0.52227,-0.11192 -0.83936,-0.11192h-1.69272v3.72118zM256.10003,16.6033h3.07767c0.55025,0 1.06319,0.06995 1.53883,0.20984c0.47564,0.13057 0.90931,0.31709 1.30101,0.55957c0.34507,0.20517 0.65283,0.45232 0.92328,0.74144c0.27047,0.28912 0.50361,0.60621 0.69947,0.95128c0.23316,0.41968 0.41501,0.88133 0.54559,1.38495c0.13057,0.50361 0.19585,1.03988 0.19585,1.60878v0.97926c0,0.55025 -0.06063,1.07252 -0.18187,1.56681c-0.12124,0.48496 -0.28912,0.93263 -0.50361,1.34299c-0.20517,0.36372 -0.44766,0.69947 -0.72745,1.00724c-0.27977,0.30776 -0.58753,0.56424 -0.92328,0.76941c-0.38238,0.24248 -0.80672,0.42901 -1.27304,0.55957c-0.46631,0.13057 -0.9606,0.19585 -1.48288,0.19585h-3.18958zM258.40827,26.63369h0.88133c0.27979,0 0.54092,-0.03264 0.7834,-0.09792c0.25181,-0.07461 0.47564,-0.1772 0.67149,-0.30776c0.20517,-0.14922 0.39171,-0.33108 0.55957,-0.54559c0.16787,-0.22383 0.31243,-0.48031 0.43367,-0.76941c0.09326,-0.26113 0.16321,-0.54559 0.20984,-0.85335c0.05596,-0.31709 0.08393,-0.65751 0.08393,-1.02123v-0.99324c0,-0.34507 -0.02797,-0.67149 -0.08393,-0.97926c-0.04663,-0.30776 -0.11658,-0.58756 -0.20984,-0.83936c-0.12124,-0.30776 -0.27979,-0.57823 -0.47564,-0.81139c-0.18652,-0.24248 -0.41036,-0.43834 -0.67149,-0.58756c-0.19585,-0.12124 -0.41501,-0.20984 -0.65751,-0.2658c-0.23316,-0.06528 -0.48496,-0.09792 -0.75543,-0.09792h-0.76941z" fill="#ffffff" fill-rule="nonzero" stroke-width="1" stroke-linecap="square"/><path d="M98.21201,29.51336h-2.29426v-11.87699h4.05693c0.65284,0 1.24039,0.09326 1.76266,0.27979c0.52227,0.18653 0.96527,0.44766 1.32899,0.78341c0.36372,0.33574 0.64351,0.73677 0.83937,1.20309c0.20518,0.46631 0.30776,0.98858 0.30776,1.56681c0,0.5316 -0.10259,1.02123 -0.30776,1.46889c-0.19585,0.44766 -0.47564,0.8347 -0.83937,1.16112c-0.36372,0.33574 -0.80672,0.59688 -1.32899,0.7834c-0.52227,0.18653 -1.10982,0.27979 -1.76266,0.27979h-1.76266zM99.97467,23.30207c0.32642,0 0.60621,-0.04663 0.83936,-0.1399c0.24248,-0.10259 0.44766,-0.23782 0.61553,-0.40569c0.15855,-0.16787 0.27512,-0.36372 0.34974,-0.58755c0.08394,-0.22383 0.1259,-0.45233 0.1259,-0.68548c0,-0.27979 -0.04197,-0.53626 -0.1259,-0.76941c-0.07461,-0.24248 -0.19119,-0.45698 -0.34974,-0.64351c-0.16787,-0.1772 -0.37305,-0.31709 -0.61553,-0.41968c-0.23316,-0.10259 -0.51294,-0.15388 -0.83936,-0.15388h-1.76266v3.80511zM113.80341,27.66676v1.8466h-7.86204v-11.87699h2.30825v10.0304zM118.24529,24.30931v3.35745h5.70767v1.8466h-8.00193v-11.87699h7.97395v1.87458h-5.67969v2.99373h4.8823v1.80463zM128.11502,27.03724l-0.69947,2.47612h-2.42016l3.88905,-11.87699h2.08442l3.81911,11.87699h-2.42017l-0.68548,-2.47612zM131.13673,25.07873l-1.21708,-4.36469l-1.24506,4.36469zM141.91581,25.82016c-0.07461,-0.18653 -0.19585,-0.35906 -0.36372,-0.51761c-0.18653,-0.15855 -0.42435,-0.3031 -0.71346,-0.43367c-0.27979,-0.1399 -0.62953,-0.2658 -1.04921,-0.37771c-0.66217,-0.1772 -1.24039,-0.39171 -1.73468,-0.64351c-0.49429,-0.26113 -0.89999,-0.54559 -1.21708,-0.85335c-0.31709,-0.29844 -0.55491,-0.63419 -0.71346,-1.00724c-0.15855,-0.37305 -0.23782,-0.77408 -0.23782,-1.20309c0,-0.50362 0.10259,-0.95595 0.30776,-1.35697c0.21451,-0.41036 0.50829,-0.76009 0.88133,-1.0492c0.37305,-0.28911 0.81605,-0.51294 1.32899,-0.67149c0.51294,-0.15855 1.06786,-0.23782 1.66474,-0.23782c0.62486,0 1.19376,0.09326 1.7067,0.27979c0.51294,0.1772 0.95595,0.42435 1.32899,0.74144c0.36372,0.32642 0.64818,0.71346 0.85335,1.16112c0.20518,0.44766 0.30776,0.93729 0.30776,1.46888h-2.22431c-0.00932,-0.26113 -0.06062,-0.50361 -0.15388,-0.72745c-0.08394,-0.22383 -0.20517,-0.41968 -0.36372,-0.58756c-0.16787,-0.15855 -0.37771,-0.27979 -0.62952,-0.36372c-0.24248,-0.09326 -0.5316,-0.1399 -0.86735,-0.1399c-0.29844,0 -0.5689,0.0373 -0.81138,0.11192c-0.23316,0.07461 -0.43367,0.17719 -0.60154,0.30776c-0.15855,0.13057 -0.27979,0.28911 -0.36373,0.47564c-0.08394,0.1772 -0.1259,0.37305 -0.1259,0.58756c0,0.22383 0.05596,0.42901 0.16787,0.61553c0.11192,0.1772 0.27512,0.33574 0.48963,0.47564c0.20518,0.1399 0.45699,0.27046 0.75543,0.3917c0.30776,0.12124 0.65284,0.23315 1.03522,0.33574c0.40103,0.11192 0.78807,0.25181 1.16112,0.41968c0.37305,0.15855 0.71346,0.34507 1.02122,0.55958c0.46631,0.34507 0.83937,0.75076 1.11915,1.21708c0.27979,0.46631 0.41968,0.99791 0.41968,1.59479c0,0.52227 -0.10725,0.98858 -0.32176,1.39894c-0.20518,0.40103 -0.49429,0.74144 -0.86734,1.02123c-0.37305,0.27979 -0.81605,0.49429 -1.32899,0.64351c-0.50362,0.1399 -1.05853,0.20984 -1.66474,0.20984c-0.58756,0 -1.17511,-0.0886 -1.76266,-0.2658c-0.57823,-0.1772 -1.08185,-0.43834 -1.51085,-0.7834c-0.40103,-0.33574 -0.72279,-0.73211 -0.96527,-1.1891c-0.23316,-0.45698 -0.34973,-0.99324 -0.34973,-1.60878h2.25229c0.00932,0.36372 0.06995,0.67616 0.18187,0.93729c0.11192,0.25181 0.27512,0.45698 0.48963,0.61553c0.19585,0.16787 0.43367,0.28911 0.71346,0.36372c0.28911,0.07461 0.60621,0.11192 0.95128,0.11192c0.30776,0 0.57823,-0.03264 0.81139,-0.09792c0.23316,-0.07461 0.43367,-0.1772 0.60154,-0.30777c0.15855,-0.12124 0.27979,-0.27046 0.36372,-0.44766c0.09326,-0.1772 0.1399,-0.37305 0.1399,-0.58756c0,-0.20518 -0.0373,-0.40102 -0.11192,-0.58755zM148.31617,24.30931v3.35745h5.70767v1.8466h-8.00193v-11.87699h7.97395v1.87458h-5.67969v2.99373h4.8823v1.80463zM171.98669,25.82016c-0.07461,-0.18653 -0.19585,-0.35906 -0.36372,-0.51761c-0.18653,-0.15855 -0.42435,-0.3031 -0.71346,-0.43367c-0.27979,-0.1399 -0.62953,-0.2658 -1.04921,-0.37771c-0.66217,-0.1772 -1.24039,-0.39171 -1.73468,-0.64351c-0.49429,-0.26113 -0.89999,-0.54559 -1.21708,-0.85335c-0.31709,-0.29844 -0.55491,-0.63419 -0.71346,-1.00724c-0.15855,-0.37305 -0.23782,-0.77408 -0.23782,-1.20309c0,-0.50362 0.10259,-0.95595 0.30776,-1.35697c0.21451,-0.41036 0.50829,-0.76009 0.88133,-1.0492c0.37305,-0.28911 0.81605,-0.51294 1.32899,-0.67149c0.51294,-0.15855 1.06786,-0.23782 1.66474,-0.23782c0.62486,0 1.19376,0.09326 1.7067,0.27979c0.51296,0.1772 0.95597,0.42435 1.32902,0.74144c0.36372,0.32642 0.64818,0.71346 0.85335,1.16112c0.20518,0.44766 0.30776,0.93729 0.30776,1.46888h-2.22434c-0.00932,-0.26113 -0.06062,-0.50361 -0.15388,-0.72745c-0.08394,-0.22383 -0.20517,-0.41968 -0.36372,-0.58756c-0.16787,-0.15855 -0.37771,-0.27979 -0.62952,-0.36372c-0.24248,-0.09326 -0.5316,-0.1399 -0.86735,-0.1399c-0.29844,0 -0.5689,0.0373 -0.81138,0.11192c-0.23316,0.07461 -0.43367,0.17719 -0.60154,0.30776c-0.15855,0.13057 -0.27979,0.28911 -0.36372,0.47564c-0.08394,0.1772 -0.12591,0.37305 -0.12591,0.58756c0,0.22383 0.05596,0.42901 0.16787,0.61553c0.11192,0.1772 0.27512,0.33574 0.48963,0.47564c0.20518,0.1399 0.45699,0.27046 0.75543,0.3917c0.30776,0.12124 0.65284,0.23315 1.03522,0.33574c0.40103,0.11192 0.78807,0.25181 1.16112,0.41968c0.37305,0.15855 0.71347,0.34507 1.02125,0.55958c0.46631,0.34507 0.83937,0.75076 1.11915,1.21708c0.27979,0.46631 0.41968,0.99791 0.41968,1.59479c0,0.52227 -0.10725,0.98858 -0.32176,1.39894c-0.20518,0.40103 -0.49429,0.74144 -0.86734,1.02123c-0.37305,0.27979 -0.81606,0.49429 -1.32902,0.64351c-0.50362,0.1399 -1.05853,0.20984 -1.66474,0.20984c-0.58756,0 -1.17511,-0.0886 -1.76266,-0.2658c-0.57823,-0.1772 -1.08185,-0.43834 -1.51085,-0.7834c-0.40103,-0.33574 -0.72279,-0.73211 -0.96527,-1.1891c-0.23316,-0.45698 -0.34973,-0.99324 -0.34973,-1.60878h2.25229c0.00932,0.36372 0.06995,0.67616 0.18187,0.93729c0.11192,0.25181 0.27512,0.45698 0.48963,0.61553c0.19585,0.16787 0.43367,0.28911 0.71346,0.36372c0.28911,0.07461 0.60621,0.11192 0.95128,0.11192c0.30776,0 0.57823,-0.03264 0.81139,-0.09792c0.23316,-0.07461 0.43367,-0.1772 0.60154,-0.30777c0.15855,-0.12124 0.27979,-0.27046 0.36372,-0.44766c0.09326,-0.1772 0.1399,-0.37305 0.1399,-0.58756c0,-0.20518 -0.0373,-0.40102 -0.11192,-0.58755zM175.09958,17.63637h2.09841l0.7974,6.64496l0.05595,0.46165l0.06995,-0.48963l0.93729,-6.61698h1.63676l0.99324,6.65895l0.06995,0.48963l0.06995,-0.48963l0.7974,-6.65895h2.1124l-1.65075,11.87699h-2.07043l-1.03522,-6.40714l-0.09792,-0.60154l-0.08394,0.60154l-0.99324,6.40714h-2.07043zM193.34896,17.63637v1.8466h-2.30825v8.1838h2.30825v1.8466h-6.8548v-1.8466h2.25229v-8.1838h-2.25229v-1.8466zM198.44834,29.51336h-2.29426v-11.87699h4.05692c0.65284,0 1.24039,0.09326 1.76267,0.27979c0.52227,0.18653 0.96527,0.44766 1.32899,0.78341c0.36372,0.33574 0.64351,0.73677 0.83936,1.20309c0.20518,0.46631 0.30776,0.98858 0.30776,1.56681c0,0.5316 -0.10259,1.02123 -0.30776,1.46889c-0.19585,0.44766 -0.47564,0.8347 -0.83936,1.16112c-0.36372,0.33574 -0.80672,0.59688 -1.32899,0.7834c-0.52227,0.18653 -1.10983,0.27979 -1.76267,0.27979h-1.76266zM200.211,23.30207c0.32642,0 0.60621,-0.04663 0.83937,-0.1399c0.24248,-0.10259 0.44766,-0.23782 0.61553,-0.40569c0.15855,-0.16787 0.27512,-0.36372 0.34973,-0.58755c0.08394,-0.22383 0.12591,-0.45233 0.12591,-0.68548c0,-0.27979 -0.04197,-0.53626 -0.12591,-0.76941c-0.07461,-0.24248 -0.19118,-0.45698 -0.34973,-0.64351c-0.16787,-0.1772 -0.37305,-0.31709 -0.61553,-0.41968c-0.23316,-0.10259 -0.51295,-0.15388 -0.83937,-0.15388h-1.76266v3.80511zM208.458,24.30931v3.35745h5.70768v1.8466h-8.00193v-11.87699h7.97396v1.87458h-5.6797v2.99373h4.8823v1.80463zM233.93312,27.41495c-0.22383,0.47564 -0.51761,0.88133 -0.88133,1.21708c-0.37305,0.33574 -0.81605,0.59688 -1.32899,0.78341c-0.50362,0.1772 -1.06786,0.2658 -1.69272,0.2658c-0.48496,0 -0.93729,-0.06062 -1.35697,-0.18186c-0.41968,-0.13057 -0.79273,-0.31709 -1.11915,-0.55958c-0.30776,-0.22383 -0.57823,-0.48963 -0.81139,-0.7974c-0.23316,-0.31709 -0.43367,-0.66683 -0.60154,-1.0492c-0.15855,-0.38238 -0.27979,-0.80206 -0.36372,-1.25905c-0.08394,-0.45698 -0.12591,-0.94195 -0.12591,-1.4549v-1.59479c0,-0.47564 0.0373,-0.92796 0.11192,-1.35697c0.07461,-0.43834 0.19119,-0.84403 0.34974,-1.21708c0.16787,-0.44766 0.39171,-0.84869 0.67149,-1.20309c0.28911,-0.3544 0.61087,-0.65284 0.96527,-0.89532c0.32642,-0.20518 0.68082,-0.36372 1.06319,-0.47564c0.38238,-0.11192 0.79273,-0.16787 1.23106,-0.16787c0.65284,0 1.23107,0.09326 1.73469,0.27979c0.51294,0.18653 0.95128,0.44766 1.315,0.7834c0.3544,0.34507 0.63419,0.76475 0.83937,1.25904c0.21451,0.49429 0.34507,1.05387 0.3917,1.67873h-2.28027c-0.01865,-0.3544 -0.06995,-0.66217 -0.15388,-0.9233c-0.08394,-0.27046 -0.20518,-0.49895 -0.36373,-0.68548c-0.16787,-0.16787 -0.37305,-0.29844 -0.61553,-0.3917c-0.24248,-0.09326 -0.5316,-0.1399 -0.86735,-0.1399c-0.1772,0 -0.34506,0.02331 -0.50361,0.06995c-0.14922,0.0373 -0.28912,0.09326 -0.41969,0.16787c-0.22383,0.13057 -0.41501,0.31709 -0.57356,0.55958c-0.14922,0.24248 -0.27046,0.52227 -0.36372,0.83936c-0.07461,0.25181 -0.13057,0.5316 -0.16787,0.83936c-0.02798,0.29844 -0.04197,0.6202 -0.04197,0.96527v1.60878c0,0.47564 0.02331,0.89999 0.06995,1.27304c0.05596,0.37305 0.1399,0.69947 0.25181,0.97926c0.07461,0.18653 0.16321,0.3544 0.2658,0.50362c0.11192,0.14922 0.23315,0.27046 0.36372,0.36372c0.14922,0.11192 0.31243,0.19585 0.48963,0.25181c0.18653,0.04663 0.3917,0.06995 0.61553,0.06995c0.29844,0 0.5689,-0.0373 0.81138,-0.11192c0.24248,-0.08394 0.44766,-0.20517 0.61553,-0.36372c0.16787,-0.16787 0.29844,-0.37771 0.3917,-0.62952c0.10259,-0.25181 0.16321,-0.55958 0.18186,-0.9233h2.29426c-0.0373,0.59688 -0.16787,1.1378 -0.3917,1.62277zM238.375,27.03724l-0.69947,2.47612h-2.42017l3.88905,-11.87699h2.08442l3.81911,11.87699h-2.42016l-0.68548,-2.47612zM241.39671,25.07873l-1.21708,-4.36469l-1.24506,4.36469zM248.41264,25.07873v4.43464h-2.29426v-11.87699h3.98698c0.65284,0 1.24505,0.07927 1.77665,0.23782c0.54092,0.14922 1.00257,0.37305 1.38495,0.67149c0.37305,0.30776 0.6575,0.68548 0.85335,1.13314c0.20518,0.43834 0.30776,0.95128 0.30776,1.53883c0,0.42901 -0.05129,0.81138 -0.15388,1.14713c-0.09326,0.33574 -0.23315,0.63885 -0.41968,0.90931c-0.18653,0.27046 -0.41502,0.50828 -0.68548,0.71346c-0.26113,0.19585 -0.55491,0.36839 -0.88133,0.51761l2.56006,4.89629v0.11192h-2.46213l-2.2383,-4.43464zM250.10536,23.21814c0.3544,0 0.66683,-0.05129 0.93729,-0.15388c0.27046,-0.10259 0.48963,-0.24714 0.6575,-0.43367c0.1399,-0.14922 0.24714,-0.33108 0.32176,-0.54558c0.07461,-0.21451 0.11192,-0.45233 0.11192,-0.71346c0,-0.31709 -0.04663,-0.59688 -0.1399,-0.83937c-0.09326,-0.24248 -0.23781,-0.43833 -0.43367,-0.58755c-0.16787,-0.14922 -0.37305,-0.26114 -0.61553,-0.33575c-0.24248,-0.07461 -0.52227,-0.11191 -0.83936,-0.11191h-1.69272v3.72118zM256.10003,17.63637h3.07767c0.55025,0 1.06319,0.06995 1.53883,0.20984c0.47564,0.13057 0.90931,0.31709 1.30101,0.55958c0.34507,0.20518 0.65283,0.45233 0.92328,0.74144c0.27046,0.28911 0.50361,0.60621 0.69947,0.95128c0.23316,0.41968 0.41502,0.88133 0.54559,1.38495c0.13057,0.50362 0.19585,1.03988 0.19585,1.60878v0.97926c0,0.55025 -0.06062,1.07252 -0.18186,1.56681c-0.12124,0.48496 -0.28911,0.93262 -0.50362,1.34298c-0.20518,0.36372 -0.44766,0.69947 -0.72745,1.00724c-0.27977,0.30776 -0.58753,0.56424 -0.92328,0.76942c-0.38238,0.24248 -0.80672,0.42901 -1.27304,0.55958c-0.46631,0.13057 -0.9606,0.19585 -1.48288,0.19585h-3.18958zM258.40828,27.66676h0.88133c0.27979,0 0.54093,-0.03264 0.78341,-0.09792c0.25181,-0.07461 0.47563,-0.1772 0.67149,-0.30777c0.20518,-0.14922 0.3917,-0.33108 0.55958,-0.54558c0.16787,-0.22383 0.31243,-0.48031 0.43367,-0.76942c0.09326,-0.26113 0.16321,-0.54559 0.20984,-0.85335c0.05596,-0.31709 0.08394,-0.6575 0.08394,-1.02122v-0.99325c0,-0.34507 -0.02798,-0.67149 -0.08394,-0.97926c-0.04663,-0.30776 -0.11658,-0.58756 -0.20984,-0.83936c-0.12124,-0.30776 -0.27979,-0.57823 -0.47564,-0.81138c-0.18653,-0.24248 -0.41036,-0.43834 -0.67149,-0.58756c-0.19585,-0.12124 -0.41502,-0.20984 -0.6575,-0.2658c-0.23316,-0.06528 -0.48496,-0.09792 -0.75543,-0.09792h-0.76942z" fill="#ffffff" fill-rule="nonzero" stroke-width="1" stroke-linecap="square"/></g></g></svg>