<svg version="1.1" xmlns="http://www.w3.org/2000/svg" xmlns:xlink="http://www.w3.org/1999/xlink" width="70.33333" height="64" viewBox="0,0,70.33333,64"><g transform="translate(-186.92578,-132.90365)"><g data-paper-data="{&quot;isPaintingLayer&quot;:true}" fill-rule="nonzero" stroke-linecap="butt" stroke-linejoin="miter" stroke-miterlimit="10" stroke-dasharray="" stroke-dashoffset="0" style="mix-blend-mode: normal"><g stroke-width="2.5"><path d="M207.84118,142.62984c0,-1.2483 1.2066,-2.71429 2.42857,-2.71429c2.90629,0 15.05782,0 20.42857,0c1.57863,0 2.57143,1.20203 2.57143,2.28571c0,1.73128 0,7.76399 0,11.28571c0,1.90599 -1.36123,2.57143 -3,2.57143c-2.41845,0 -13.70385,0 -19.28571,0c-1.90283,0 -3.14285,-1.32094 -3.14285,-3.14286c0,0 -0.00001,-8.99003 -0.00001,-10.2857z" fill="#799191" stroke="#000000"/><path d="M210.30545,143.41556c0,-0.65091 0.52766,-1.17857 1.17857,-1.17857c0.65091,0 1.17857,0.52766 1.17857,1.17857c0,0.65091 -0.52766,1.17857 -1.17857,1.17857c-0.65091,0 -1.17857,-0.52766 -1.17857,-1.17857z" fill="#5b7474" stroke="none"/><path d="M210.30545,152.41556c0,-0.6509 0.52766,-1.17857 1.17857,-1.17857c0.6509,0 1.17857,0.52767 1.17857,1.17857c0,0.6509 -0.52767,1.17857 -1.17857,1.17857c-0.6509,0 -1.17857,-0.52767 -1.17857,-1.17857z" fill="#5b7474" stroke="none"/><path d="M229.62688,144.59413c-0.65091,0 -1.17857,-0.52766 -1.17857,-1.17857c0,-0.65091 0.52766,-1.17857 1.17857,-1.17857c0.65091,0 1.17857,0.52766 1.17857,1.17857c0,0.65091 -0.52766,1.17857 -1.17857,1.17857z" data-paper-data="{&quot;index&quot;:null}" fill="#5b7474" stroke="none"/><path d="M229.62689,153.59414c-0.6509,0 -1.17857,-0.52767 -1.17857,-1.17857c0,-0.6509 0.52767,-1.17857 1.17857,-1.17857c0.6509,0 1.17857,0.52767 1.17857,1.17857c0,0.6509 -0.52766,1.17857 -1.17857,1.17857z" data-paper-data="{&quot;index&quot;:null}" fill="#5b7474" stroke="none"/><path d="M218.67218,153.66386l1.76594,-4.22662l-4.20694,0.10242l5.69344,-7.25928l-1.5752,5.1243l4.47915,-0.07142z" fill="#5b7474" stroke="none"/></g><path d="M186.92578,196.90365v-64h70.33333v64z" fill="none" stroke="none" stroke-width="NaN"/></g></g></svg>