<svg version="1.1" xmlns="http://www.w3.org/2000/svg" xmlns:xlink="http://www.w3.org/1999/xlink" width="159.16627" height="206.16571" viewBox="0,0,159.16627,206.16571"><g transform="translate(-191.78319,23.6036)"><g data-paper-data="{&quot;isPaintingLayer&quot;:true}" fill-rule="nonzero" stroke-linejoin="miter" stroke-miterlimit="10" stroke-dasharray="" stroke-dashoffset="0" style="mix-blend-mode: normal"><path d="M273.38235,171.61879c-0.21799,0.1847 -0.42945,2.37833 -0.63234,2.58122c-1.07144,1.07144 -2.37323,2.76988 -3.88428,4.04442c-1.11295,0.93876 -6.39856,1.79659 -8.12959,1.81768c-11.61692,0.14154 -33.18133,-0.39787 -42.96396,-0.84605c-3.13494,-0.14362 -7.92209,-2.6639 -8.88006,-5.07257c-1.01573,-2.5539 -3.17896,-12.26216 -4.21445,-16.27743" fill="#e7afcd" stroke="#000000" stroke-width="5" stroke-linecap="butt"/><path d="M194.29981,131.4885c0,0 -1.74784,-24.44608 30.60138,-32.88015c23.31924,-6.07978 36.47849,-13.17647 56.38558,-12.51498c15.00123,0.49847 26.57535,8.07746 38.32938,11.25017c13.33202,3.59865 26.03593,2.81787 28.61979,3.0288c2.3173,0.18917 3.27121,1.91469 2.38837,3.80075c-0.46603,0.99561 -8.86045,15.41177 -13.15753,22.77839c-1.49252,2.55868 -5.04697,3.93952 -8.71562,3.72848c-8.63471,-0.4967 -23.42306,-0.34608 -25.56644,6.22858c-2.91834,8.95178 9.62155,7.70281 15.54451,7.39352c1.87224,-0.09776 3.33366,1.89539 3.4929,4.92569c0.30162,5.73986 0.45569,14.64921 -1.17895,18.1414c-1.1319,2.41815 -3.28343,3.83086 -5.29316,3.83086c-10.67052,0 -56.44865,-0.73085 -69.50904,-0.94295c-1.25032,-0.02031 -21.89048,1.189 -40.29834,-12.14145c-12.89976,-9.34165 -11.64282,-26.62712 -11.64282,-26.62712z" fill="#e7afcd" stroke="none" stroke-width="0" stroke-linecap="butt"/><path d="M194.29981,131.4885c0,0 -1.74784,-24.44608 30.60138,-32.88015c23.31924,-6.07978 36.47849,-13.17647 56.38558,-12.51498c15.00123,0.49847 26.57535,8.07746 38.32938,11.25017c13.33202,3.59865 26.03593,2.81787 28.61979,3.0288c2.3173,0.18917 1.27121,-0.58531 0.38837,1.30075c-0.46603,0.99561 -8.55588,14.42051 -17.87315,21.50687c-2.02609,1.54097 -8.96325,2.04176 -8.96325,2.04176c0,0 -10.7123,1.18312 -15.20179,-0.51556c-2.33647,-0.88405 -5.40857,-2.99921 -7.56526,-4.61024c-1.5439,-1.15328 -2.10432,-0.80744 -1.51027,1.04075c1.02879,3.20069 2.29657,8.22308 1.54563,11.77748c-1.53655,7.27291 -9.3715,9.4944 -9.3715,9.4944c0,0 23.12155,2.20281 29.04451,1.89352c1.87224,-0.09776 3.33366,1.89539 3.4929,4.92569c0.30162,5.73986 0.45569,14.64921 -1.17895,18.1414c-1.1319,2.41815 -3.28343,3.83086 -5.29316,3.83086c-10.67052,0 -56.44865,-5.73085 -69.50904,-5.94295c-1.10601,-0.01797 -13.47195,1.31748 -29.0532,-7.6011c-2.03293,-1.16363 -4.1206,-2.50183 -6.24514,-4.04035c-12.89976,-9.34165 -16.64282,-22.12712 -16.64282,-22.12712z" fill="#ffd6ec" stroke="none" stroke-width="0" stroke-linecap="butt"/><path d="M194.29981,131.4885c0,0 -1.74784,-24.44608 30.60138,-32.88015c23.31924,-6.07978 36.47849,-13.17647 56.38558,-12.51498c15.00123,0.49847 26.57535,8.07746 38.32938,11.25017c13.33202,3.59865 26.03593,2.81787 28.61979,3.0288c2.3173,0.18917 3.27121,1.91469 2.38837,3.80075c-0.46603,0.99561 -8.86045,15.41177 -13.15753,22.77839c-1.49252,2.55868 -5.04697,3.93952 -8.71562,3.72848c-8.63471,-0.4967 -23.42306,-0.34608 -25.56644,6.22858c-2.91834,8.95178 9.62155,7.70281 15.54451,7.39352c1.87224,-0.09776 3.33366,1.89539 3.4929,4.92569c0.30162,5.73986 0.45569,14.64921 -1.17895,18.1414c-1.1319,2.41815 -3.28343,3.83086 -5.29316,3.83086c-10.67052,0 -56.44865,-0.73085 -69.50904,-0.94295c-1.25032,-0.02031 -21.89048,1.189 -40.29834,-12.14145c-12.89976,-9.34165 -11.64282,-26.62712 -11.64282,-26.62712z" fill="none" stroke="#000000" stroke-width="5" stroke-linecap="butt"/><path d="M201.75,131.20001c0,-3.30569 2.50744,-19.05579 12.55581,-28.92791c11.77183,-11.56535 29.44419,-8.57209 29.44419,-8.57209c0,0 -10.64674,12.53478 -14.77528,19.14045c-3.20333,5.12532 -7.46237,15.42432 -9.30772,20.035c-0.57614,1.43951 -1.6863,2.32455 -2.85761,2.32455c-2.91762,0 -8.32958,0 -10.5594,0c-1.875,0 -4.5,-1.98657 -4.5,-4z" fill="#bbc9d3" stroke="#000000" stroke-width="4" stroke-linecap="butt"/><path d="M208.41754,125.9948c0,-1.44289 5.84447,-17.06761 11.73045,-22.12666c1.19066,-1.16978 4.22606,-1.53697 6.74982,-1.24737c1.41983,0.16293 1.88909,2.28326 1.27853,3.17548c-1.64998,2.41115 -4.12046,5.76077 -6.1157,9.25987c-2.8541,5.00529 -4.30337,10.27138 -4.76257,11.35073c-0.844,1.98384 -5.55231,1.33389 -6.91633,1.33389c-0.81841,0 -1.96419,-0.86711 -1.96419,-1.74595z" fill="#466579" stroke="none" stroke-width="0" stroke-linecap="butt"/><path d="M274.01953,45.53247c0,15.84226 -16.49623,28.68496 -36.84535,28.68496c-1.06079,0 -3.6915,-0.19853 -3.6915,-0.19853c0,0 -2.20913,9.69265 -2.84097,12.46486c-0.31631,1.38781 -1.23194,1.76325 -1.69064,0.56299c-1.08595,-2.84161 -5.48541,-14.35362 -5.48541,-14.35362c0,0 -10.58414,-3.53312 -14.36759,-6.72575c-6.0578,-5.11182 -8.76923,-12.9315 -8.76923,-20.43492c0,-15.84226 16.49622,-28.68496 36.84534,-28.68496c9.0524,0 16.92927,-0.81111 24.74587,5.27429c7.81659,6.0854 12.09948,14.61591 12.09948,23.41067z" fill="#efefef" stroke="#000000" stroke-width="3" stroke-linecap="butt"/><path d="M256.16738,44.49091c0.73262,11.34269 -10.06543,12.78245 -13.91174,12.93672c-0.82743,0.03319 -1.33474,0.60611 -1.33689,1.42059c-0.00365,1.37591 -0.00892,3.36613 -0.01091,4.11963c-0.00153,0.57802 -1.06962,1.28333 -1.9518,1.28208c-1.28519,-0.00182 -4.93655,-0.007 -7.08833,-0.01004c-0.97471,-0.00138 -1.63202,-0.69423 -1.62393,-1.26986c0.01165,-0.83092 0.0446,-3.18035 0.06476,-4.61738c0.00967,-0.69013 -0.56449,-1.1795 -1.42635,-1.24256c-1.93742,-0.14174 -5.2946,-0.55317 -6.66393,-1.73058c-3.16778,-2.72379 -4.58566,-6.89045 -4.58566,-10.88859c0,-8.44144 8.62631,-15.28457 19.26738,-15.28457c4.73373,0 8.85275,-0.43219 12.94025,2.81036c4.0875,3.24256 6.02507,7.79772 6.32713,12.47419z" fill="#dbdbdb" stroke="#000000" stroke-width="2.5" stroke-linecap="butt"/><path d="M234.01031,59.67254v3.7917" fill="none" stroke="#000000" stroke-width="2" stroke-linecap="round"/><path d="M236.97772,63.46422v-3.79168" fill="none" stroke="#000000" stroke-width="2" stroke-linecap="round"/><g fill="none" stroke="#000000" stroke-width="2" stroke-linecap="round"><path d="M230.38349,40.71408l-5.60511,5.76997"/><path d="M224.77838,40.71408l5.60511,5.76997" data-paper-data="{&quot;index&quot;:null}"/></g><g fill="none" stroke="#000000" stroke-width="2" stroke-linecap="round"><path d="M246.70425,40.71408l-5.60511,5.76997"/><path d="M246.70425,46.48405l-5.60511,-5.76997" data-paper-data="{&quot;index&quot;:null}"/></g><path d="M206.21622,75.4955v-99.0991h54.05405v99.0991z" fill="none" stroke="none" stroke-width="NaN" stroke-linecap="butt"/></g></g></svg>