<svg version="1.1" xmlns="http://www.w3.org/2000/svg" xmlns:xlink="http://www.w3.org/1999/xlink" width="720" height="540" viewBox="0,0,720,540"><defs><clipPath id="clip-1"><rect x="-240" y="-180" transform="scale(0.5,0.5)" width="1440" height="1080" fill="none" fill-rule="nonzero" stroke-width="0.5" stroke-linecap="butt"/></clipPath></defs><g transform="translate(120,90)"><g clip-path="url(#clip-1)" data-paper-data="{&quot;isPaintingLayer&quot;:true}" stroke="none" stroke-linejoin="miter" stroke-miterlimit="10" stroke-dasharray="" stroke-dashoffset="0" style="mix-blend-mode: normal"><path d="M-240,-180h960v720h-960z" fill-opacity="0" fill="#000000" fill-rule="evenodd" stroke-width="1" stroke-linecap="square"/><path d="M-212.95801,-154.73753h900.8819v694.7402h-900.8819z" fill-opacity="0" fill="#000000" fill-rule="evenodd" stroke-width="1" stroke-linecap="square"/><path d="M113.04655,200.95c0,-10.69922 0,-32.40641 0,-38.5c0,-3.11481 2.84187,-6.45 6.76662,-6.45c23.90971,0 253.92721,0 295.35827,0c4.0923,0 7.83007,3.93652 7.83007,7.45c0,5.94054 0,24.35926 0,35.5c0,4.7902 -3.39694,8.05 -7.76662,8.05c-42.90318,0 -273.97981,0 -295.73138,0c-3.20845,0 -6.45695,-2.37599 -6.45695,-6.05z" fill="#eaf1f9" fill-rule="nonzero" stroke-width="0" stroke-linecap="butt"/></g></g></svg>