<svg version="1.1" xmlns="http://www.w3.org/2000/svg" xmlns:xlink="http://www.w3.org/1999/xlink" width="49.30079" height="34.48441" viewBox="0,0,49.30079,34.48441"><g transform="translate(-215.3496,-162.75779)"><g data-paper-data="{&quot;isPaintingLayer&quot;:true}" fill="#ffffff" fill-rule="nonzero" stroke-linecap="square" stroke-linejoin="miter" stroke-miterlimit="10" stroke-dasharray="" stroke-dashoffset="0" style="mix-blend-mode: normal"><path d="M231.94334,168.94529v21.875c0,2.61458 -0.88021,3.92188 -2.64062,3.92188c-0.60417,0 -1.20312,-0.19792 -1.79687,-0.59375c-0.58333,-0.39583 -0.875,-1.42708 -0.875,-3.09375v-17.25c-3.35417,2.54167 -5.56771,3.8125 -6.64062,3.8125c-0.61458,0 -1.125,-0.20312 -1.53125,-0.60937c-0.40625,-0.41667 -0.60937,-0.94792 -0.60937,-1.59375c0,-0.46875 0.15104,-0.86979 0.45313,-1.20312c0.30208,-0.33333 0.94271,-0.72917 1.92188,-1.1875c3.26042,-1.60417 5.55208,-3.43229 6.875,-5.48437c0.54167,-0.84375 0.96354,-1.40104 1.26563,-1.67187c0.30208,-0.28125 0.71875,-0.42187 1.25,-0.42187c1.55208,0 2.32813,1.16667 2.32813,3.5zM253.10349,188.17966h-8.46875c-1.52083,0 -2.55208,-0.06771 -3.09375,-0.20312c-0.53125,-0.14583 -0.98958,-0.51042 -1.375,-1.09375c-0.38542,-0.59375 -0.57812,-1.1875 -0.57812,-1.78125c0,-0.41667 0.11979,-0.83854 0.35938,-1.26562c0.25,-0.4375 0.74479,-1.15104 1.48438,-2.14062l10.34375,-13.84375c0.76042,-0.98958 1.35938,-1.66667 1.79688,-2.03125c0.4375,-0.375 0.97396,-0.5625 1.60938,-0.5625c0.6875,0 1.27604,0.20313 1.76563,0.60938c0.5,0.40625 0.79688,0.86458 0.89063,1.375c0.10417,0.51042 0.15625,1.39583 0.15625,2.65625v13.90625h0.84375c1.625,0 2.58333,0.28125 2.875,0.84375c0.29167,0.5625 0.4375,1.01563 0.4375,1.35938c0,1.44792 -0.98958,2.17188 -2.96875,2.17188h-1.1875v2.51563c0,1.0625 -0.04167,1.82813 -0.125,2.29688c-0.08333,0.46875 -0.34896,0.88021 -0.79687,1.23438c-0.4375,0.34375 -0.94271,0.51563 -1.51562,0.51563c-0.5625,0 -1.06771,-0.16146 -1.51562,-0.48437c-0.44792,-0.32292 -0.71875,-0.72917 -0.8125,-1.21875c-0.08333,-0.48958 -0.125,-1.27083 -0.125,-2.34375zM244.71287,183.80466h8.39063v-11.39062z" stroke="#000000" stroke-width="5"/><path d="M231.94334,168.94529v21.875c0,2.61458 -0.88021,3.92188 -2.64062,3.92188c-0.60417,0 -1.20312,-0.19792 -1.79687,-0.59375c-0.58333,-0.39583 -0.875,-1.42708 -0.875,-3.09375v-17.25c-3.35417,2.54167 -5.56771,3.8125 -6.64062,3.8125c-0.61458,0 -1.125,-0.20312 -1.53125,-0.60937c-0.40625,-0.41667 -0.60937,-0.94792 -0.60937,-1.59375c0,-0.46875 0.15104,-0.86979 0.45313,-1.20312c0.30208,-0.33333 0.94271,-0.72917 1.92188,-1.1875c3.26042,-1.60417 5.55208,-3.43229 6.875,-5.48437c0.54167,-0.84375 0.96354,-1.40104 1.26563,-1.67187c0.30208,-0.28125 0.71875,-0.42187 1.25,-0.42187c1.55208,0 2.32813,1.16667 2.32813,3.5zM253.10349,188.17966h-8.46875c-1.52083,0 -2.55208,-0.06771 -3.09375,-0.20312c-0.53125,-0.14583 -0.98958,-0.51042 -1.375,-1.09375c-0.38542,-0.59375 -0.57812,-1.1875 -0.57812,-1.78125c0,-0.41667 0.11979,-0.83854 0.35938,-1.26562c0.25,-0.4375 0.74479,-1.15104 1.48438,-2.14062l10.34375,-13.84375c0.76042,-0.98958 1.35938,-1.66667 1.79688,-2.03125c0.4375,-0.375 0.97396,-0.5625 1.60938,-0.5625c0.6875,0 1.27604,0.20313 1.76563,0.60938c0.5,0.40625 0.79688,0.86458 0.89063,1.375c0.10417,0.51042 0.15625,1.39583 0.15625,2.65625v13.90625h0.84375c1.625,0 2.58333,0.28125 2.875,0.84375c0.29167,0.5625 0.4375,1.01563 0.4375,1.35938c0,1.44792 -0.98958,2.17188 -2.96875,2.17188h-1.1875v2.51563c0,1.0625 -0.04167,1.82813 -0.125,2.29688c-0.08333,0.46875 -0.34896,0.88021 -0.79687,1.23438c-0.4375,0.34375 -0.94271,0.51563 -1.51562,0.51563c-0.5625,0 -1.06771,-0.16146 -1.51562,-0.48437c-0.44792,-0.32292 -0.71875,-0.72917 -0.8125,-1.21875c-0.08333,-0.48958 -0.125,-1.27083 -0.125,-2.34375zM244.71287,183.80466h8.39063v-11.39062z" stroke="none" stroke-width="0"/></g></g></svg>