<svg version="1.1" xmlns="http://www.w3.org/2000/svg" xmlns:xlink="http://www.w3.org/1999/xlink" width="263.5" height="135" viewBox="0,0,263.5,135"><g transform="translate(-60.5,-112.5)"><g data-paper-data="{&quot;isPaintingLayer&quot;:true}" fill-rule="nonzero" stroke-linejoin="miter" stroke-miterlimit="10" stroke-dasharray="" stroke-dashoffset="0" style="mix-blend-mode: normal"><path d="M193.032,152.34467l97.66667,29.66666l-74.66666,-1z" data-paper-data="{&quot;index&quot;:null}" fill="#a8aebb" stroke="none" stroke-width="0" stroke-linecap="butt"/><path d="M193.36534,209.678v-57l23.33333,28.66667z" fill="#b7c5c5" stroke="none" stroke-width="0" stroke-linecap="butt"/><path d="M216.36535,181.01133l74.66666,-1l-97.66667,29.66667z" fill="#abbbbb" stroke="none" stroke-width="0" stroke-linecap="butt"/><path d="M284.69868,177.01133l7.33333,3.73684l-96.00001,29.26316z" fill="#7d1d10" stroke="none" stroke-width="0" stroke-linecap="butt"/><path d="M193.69867,149.34465l96.00001,29.26317l-7.33333,3.73684z" data-paper-data="{&quot;index&quot;:null}" fill="#7d1d10" stroke="none" stroke-width="0" stroke-linecap="butt"/><path d="M191.07393,208.01133c0,-9.50748 0,-37.29658 0,-56.33334c0,-1.29873 0.9788,-2.04157 2.32543,-1.64017c8.071,2.40578 85.04403,25.34967 99.3815,29.62334c1.48044,0.44128 1.38144,0.95524 -0.26949,1.44735c-14.91302,4.44522 -90.15144,26.87206 -98.71463,29.42455c-1.55951,0.46486 -2.72282,-0.3997 -2.72282,-2.52173z" fill="none" stroke="#000000" stroke-width="5.5" stroke-linecap="butt"/><path d="M191.07393,208.01133c0,-9.50748 0,-37.29658 0,-56.33334c0,-1.29873 0.9788,-2.04157 2.32543,-1.64017c8.071,2.40578 85.04403,25.34967 99.3815,29.62334c1.48044,0.44128 1.38144,0.95524 -0.2695,1.44735c-14.91302,4.44523 -90.15144,26.87206 -98.71462,29.42455c-1.55951,0.46486 -2.72282,-0.3997 -2.72282,-2.52173z" fill="none" stroke="#dfdfdf" stroke-width="3.5" stroke-linecap="butt"/><path d="M191.64425,175.57173c0,0.73416 0.3796,1.30981 1.1388,1.72696c0.76754,0.41714 2.48198,0.95525 5.14334,1.61433c5.15585,1.25142 7.73377,3.39969 7.73377,6.44481c0,2.40272 -0.87182,4.24649 -2.61546,5.53129c-1.7353,1.27645 -4.16723,1.91467 -7.29578,1.91467c-3.17026,0 -5.56047,-0.65491 -7.17063,-1.96472c-1.60182,-1.30982 -2.40272,-2.69474 -2.40272,-4.15473c0,-0.62571 0.22108,-1.15964 0.66326,-1.60182c0.45051,-0.44217 1.00114,-0.66325 1.65187,-0.66325c0.89268,0 1.67273,0.5548 2.34016,1.66439c0.75085,1.22639 1.57679,2.03982 2.47781,2.44027c0.90937,0.39212 1.87713,0.58817 2.90329,0.58817c1.14297,0 2.06902,-0.25446 2.77815,-0.76336c0.71749,-0.5089 1.07622,-1.15131 1.07622,-1.92718c0,-0.70913 -0.30451,-1.32233 -0.91353,-1.83958c-0.60068,-0.5256 -2.25255,-1.09708 -4.95562,-1.71444c-2.70306,-0.62571 -4.67613,-1.49753 -5.91921,-2.61546c-1.23473,-1.11794 -1.8521,-2.44861 -1.8521,-3.99202c0,-1.7353 0.75502,-3.27038 2.26507,-4.60522c1.51005,-1.33484 3.77511,-2.00227 6.79521,-2.00227c2.76147,0 4.96396,0.56314 6.60749,1.68942c1.64354,1.12628 2.4653,2.29427 2.4653,3.50397c0,0.63405 -0.20856,1.17216 -0.62571,1.61433c-0.41714,0.43382 -0.99696,0.65074 -1.73947,0.65074c-1.09291,0 -2.08153,-0.62988 -2.96586,-1.88964c-0.88433,-1.26811 -2.21502,-1.90216 -3.99203,-1.90216c-0.95942,0 -1.79787,0.19605 -2.51535,0.58817c-0.71748,0.38376 -1.07622,0.93857 -1.07622,1.66439zM211.41442,170.15308v-3.41637c0,-1.40993 0.05839,-2.36518 0.1752,-2.86574c0.1168,-0.5089 0.42131,-0.95942 0.91354,-1.35153c0.50057,-0.40045 1.08456,-0.60068 1.75199,-0.60068c0.60902,0 1.15964,0.17937 1.65187,0.53811c0.49223,0.35873 0.81343,0.79674 0.9636,1.31399c0.15851,0.51726 0.23777,1.35153 0.23777,2.50284v3.8794h1.10125c1.39325,0 2.3193,0.17103 2.77815,0.51309c0.45885,0.33371 0.68828,0.83011 0.68828,1.48919c0,1.40159 -1.168,2.10238 -3.50397,2.10238h-1.0637v10.51192c0,1.41828 0.10011,2.38603 0.30034,2.90329c0.20023,0.5089 0.73834,0.76337 1.61433,0.76337c0.41714,0 0.88433,-0.05839 1.40159,-0.1752c0.5256,-0.1168 0.91354,-0.1752 1.16382,-0.1752c0.57565,0 1.03868,0.18772 1.38908,0.56314c0.35873,0.37543 0.53811,0.82594 0.53811,1.35155c0,1.86879 -1.9689,2.80318 -5.9067,2.80318c-1.90216,0 -3.30375,-0.35457 -4.20477,-1.0637c-0.89268,-0.70913 -1.44747,-1.57262 -1.66438,-2.59045c-0.21692,-1.01783 -0.32537,-2.34015 -0.32537,-3.96699v-10.92488h-0.75085c-1.68524,0 -2.52787,-0.68828 -2.52787,-2.06484c0,-1.35987 0.88433,-2.03981 2.65301,-2.03981zM239.987,189.58763c-2.71141,2.1441 -5.36858,3.21615 -7.97153,3.21615c-2.46113,0 -4.35076,-0.62571 -5.66892,-1.87713c-1.31817,-1.25143 -1.97724,-2.78234 -1.97724,-4.59272c0,-1.54342 0.44634,-2.79066 1.33902,-3.74174c0.90102,-0.95108 1.87713,-1.61433 2.92832,-1.98975c1.05953,-0.37543 2.78232,-0.80925 5.16836,-1.30148c2.38603,-0.50057 4.30905,-0.95942 5.76904,-1.37656c-0.01669,-1.71862 -0.35874,-2.87826 -1.02616,-3.47894c-0.66743,-0.60902 -1.68107,-0.91353 -3.04094,-0.91353c-2.58627,0 -4.27568,0.72165 -5.06824,2.16496c-0.45051,0.8176 -0.85096,1.40159 -1.20136,1.75199c-0.34206,0.3504 -0.83845,0.5256 -1.48918,0.5256c-0.60068,0 -1.14713,-0.19605 -1.63935,-0.58816c-0.48388,-0.40045 -0.72582,-0.91353 -0.72582,-1.53924c0,-1.47667 0.80091,-2.87826 2.40272,-4.20477c1.60182,-1.3265 4.11717,-1.98975 7.54606,-1.98975c3.47894,0 6.02349,0.60068 7.63365,1.80204c1.61015,1.20136 2.36936,3.62911 2.27758,7.28326l-0.12514,5.34356c-0.05839,1.65187 0.10845,2.99923 0.50057,4.04209c0.40045,1.04286 0.60068,1.84377 0.60068,2.40274c0,0.60068 -0.26697,1.13045 -0.80091,1.58931c-0.5256,0.45885 -1.11794,0.68828 -1.77701,0.68828c-1.15965,0 -2.3777,-1.07205 -3.65414,-3.21614zM239.61158,181.35329c-0.85096,0.33371 -2.25255,0.69662 -4.20477,1.08874c-1.95221,0.38376 -3.33712,0.82594 -4.15471,1.3265c-0.80925,0.50057 -1.21387,1.23056 -1.21387,2.18999c0,0.8176 0.3212,1.53925 0.9636,2.16496c0.65074,0.62571 1.56844,0.93857 2.75312,0.93857c1.25142,0 2.41524,-0.34206 3.49146,-1.02616c1.07622,-0.69246 1.73948,-1.51004 1.98976,-2.45278c0.25028,-0.94274 0.37543,-2.35267 0.37543,-4.2298zM250.93862,188.08592v-14.60405c0,-2.55289 0.93857,-3.82934 2.8157,-3.82934c1.79371,0 2.71141,1.18051 2.75312,3.54152c1.17633,-2.361 2.80735,-3.54151 4.89305,-3.54151c1.10125,0 2.24004,0.28783 3.41638,0.86348c1.17633,0.57565 1.7645,1.36405 1.7645,2.36519c0,0.69246 -0.23777,1.26811 -0.7133,1.72696c-0.47554,0.45051 -0.98445,0.67577 -1.52673,0.67577c-0.30034,0 -0.85096,-0.12097 -1.65187,-0.36291c-0.80091,-0.25028 -1.4725,-0.37543 -2.01479,-0.37543c-1.35988,0 -2.37352,0.68828 -3.04094,2.06484c-0.66742,1.37656 -1.00114,4.03374 -1.00114,7.97154v3.29124c0,1.45165 -0.06257,2.43194 -0.18771,2.94085c-0.1168,0.50057 -0.42548,0.95942 -0.92605,1.37656c-0.50057,0.40879 -1.07622,0.6132 -1.72696,0.6132c-0.62571,0 -1.18884,-0.18354 -1.68941,-0.55062c-0.50057,-0.37543 -0.82176,-0.81342 -0.96359,-1.31399c-0.13348,-0.5089 -0.20023,-1.45999 -0.20023,-2.85325zM270.62161,170.15308v-3.41637c0,-1.40993 0.05839,-2.36518 0.1752,-2.86574c0.1168,-0.5089 0.42131,-0.95942 0.91353,-1.35153c0.50057,-0.40045 1.08456,-0.60068 1.75199,-0.60068c0.60902,0 1.15965,0.17937 1.65187,0.53811c0.49223,0.35873 0.81343,0.79674 0.9636,1.31399c0.15852,0.51726 0.23777,1.35153 0.23777,2.50284v3.8794h1.10125c1.39325,0 2.3193,0.17103 2.77815,0.51309c0.45885,0.33371 0.68828,0.83011 0.68828,1.48919c0,1.40159 -1.168,2.10238 -3.50397,2.10238h-1.0637v10.51192c0,1.41828 0.10011,2.38603 0.30034,2.90329c0.20023,0.5089 0.73834,0.76337 1.61433,0.76337c0.41714,0 0.88434,-0.05839 1.40159,-0.1752c0.5256,-0.1168 0.91354,-0.1752 1.16382,-0.1752c0.57565,0 1.03868,0.18772 1.38908,0.56314c0.35873,0.37543 0.53811,0.82594 0.53811,1.35155c0,1.86879 -1.9689,2.80318 -5.9067,2.80318c-1.90216,0 -3.30375,-0.35457 -4.20477,-1.0637c-0.89268,-0.70913 -1.44747,-1.57262 -1.66438,-2.59045c-0.21692,-1.01783 -0.32537,-2.34015 -0.32537,-3.96699v-10.92488h-0.75085c-1.68525,0 -2.52787,-0.68828 -2.52787,-2.06484c0,-1.35987 0.88433,-2.03981 2.65301,-2.03981z" fill="#ffffff" stroke="#000000" stroke-width="2.5" stroke-linecap="square"/><path d="M191.64425,175.57173c0,0.73416 0.3796,1.30982 1.13879,1.72696c0.76754,0.41715 2.48198,0.95524 5.14334,1.61433c5.15584,1.25142 7.73377,3.39968 7.73377,6.44481c0,2.40273 -0.87182,4.24649 -2.61546,5.53129c-1.7353,1.27644 -4.16723,1.91467 -7.29577,1.91467c-3.17026,0 -5.56047,-0.65491 -7.17063,-1.96472c-1.60181,-1.30982 -2.40273,-2.69474 -2.40273,-4.15473c0,-0.62571 0.22108,-1.15964 0.66326,-1.60181c0.45051,-0.44217 1.00113,-0.66325 1.65187,-0.66325c0.89269,0 1.67273,0.55479 2.34016,1.66439c0.75085,1.22639 1.57679,2.03982 2.47781,2.44027c0.90937,0.39211 1.87713,0.58818 2.90329,0.58818c1.14297,0 2.06902,-0.25446 2.77815,-0.76336c0.71749,-0.5089 1.07622,-1.15131 1.07622,-1.92719c0,-0.70913 -0.30451,-1.32233 -0.91353,-1.83958c-0.60068,-0.5256 -2.25256,-1.09707 -4.95562,-1.71444c-2.70307,-0.62571 -4.67613,-1.49753 -5.9192,-2.61546c-1.23473,-1.11794 -1.8521,-2.44861 -1.8521,-3.99203c0,-1.7353 0.75502,-3.27038 2.26507,-4.60522c1.51005,-1.33484 3.77511,-2.00227 6.79521,-2.00227c2.76146,0 4.96396,0.56314 6.60749,1.68942c1.64353,1.12627 2.4653,2.29427 2.4653,3.50397c0,0.63404 -0.20856,1.17216 -0.62571,1.61433c-0.41715,0.43382 -0.99697,0.65074 -1.73947,0.65074c-1.09291,0 -2.08152,-0.62988 -2.96586,-1.88964c-0.88433,-1.26811 -2.21501,-1.90216 -3.99203,-1.90216c-0.95942,0 -1.79787,0.19606 -2.51535,0.58817c-0.71748,0.38377 -1.07622,0.93857 -1.07622,1.66439zM211.41441,170.15308v-3.41637c0,-1.40992 0.0584,-2.36517 0.1752,-2.86574c0.1168,-0.5089 0.4213,-0.95942 0.91353,-1.35154c0.50057,-0.40045 1.08456,-0.60068 1.75199,-0.60068c0.60902,0 1.15964,0.17937 1.65187,0.53812c0.49223,0.35873 0.81343,0.79674 0.9636,1.314c0.15851,0.51726 0.23777,1.35153 0.23777,2.50284v3.8794h1.10125c1.39325,0 2.3193,0.17102 2.77815,0.51308c0.45885,0.33371 0.68829,0.83011 0.68829,1.48919c0,1.40159 -1.168,2.10238 -3.50397,2.10238h-1.0637v10.51192c0,1.41828 0.10012,2.38603 0.30034,2.90329c0.20022,0.5089 0.73834,0.76337 1.61434,0.76337c0.41715,0 0.88433,-0.0584 1.40159,-0.1752c0.5256,-0.1168 0.91353,-0.1752 1.16382,-0.1752c0.57566,0 1.03869,0.18772 1.38908,0.56314c0.35873,0.37543 0.53812,0.82594 0.53812,1.35155c0,1.86879 -1.96891,2.80318 -5.9067,2.80318c-1.90215,0 -3.30375,-0.35457 -4.20477,-1.0637c-0.89269,-0.70913 -1.44747,-1.57263 -1.66438,-2.59045c-0.21692,-1.01782 -0.32537,-2.34015 -0.32537,-3.96699v-10.92488h-0.75085c-1.68524,0 -2.52787,-0.68828 -2.52787,-2.06484c0,-1.35987 0.88434,-2.03981 2.65301,-2.03981zM239.987,189.58763c-2.71141,2.1441 -5.36858,3.21615 -7.97153,3.21615c-2.46113,0 -4.35076,-0.62571 -5.66892,-1.87713c-1.31816,-1.25143 -1.97724,-2.78234 -1.97724,-4.59272c0,-1.54342 0.44634,-2.79066 1.33902,-3.74174c0.90102,-0.95108 1.87713,-1.61433 2.92832,-1.98975c1.05953,-0.37543 2.78232,-0.80925 5.16836,-1.30148c2.38603,-0.50057 4.30906,-0.95942 5.76905,-1.37656c-0.01669,-1.71862 -0.35874,-2.87826 -1.02616,-3.47894c-0.66743,-0.60902 -1.68107,-0.91353 -3.04094,-0.91353c-2.58627,0 -4.27568,0.72165 -5.06825,2.16496c-0.45051,0.8176 -0.85097,1.40159 -1.20136,1.75198c-0.34206,0.35039 -0.83844,0.5256 -1.48918,0.5256c-0.60068,0 -1.14713,-0.19606 -1.63935,-0.58817c-0.48388,-0.40045 -0.72582,-0.91353 -0.72582,-1.53924c0,-1.47668 0.80091,-2.87826 2.40272,-4.20477c1.60181,-1.3265 4.11718,-1.98976 7.54606,-1.98976c3.47895,0 6.02349,0.60069 7.63366,1.80205c1.61015,1.20136 2.36936,3.62911 2.27758,7.28325l-0.12515,5.34356c-0.05839,1.65187 0.10846,2.99923 0.50057,4.04209c0.40045,1.04286 0.60068,1.84377 0.60068,2.40274c0,0.60068 -0.26697,1.13045 -0.80091,1.5893c-0.5256,0.45885 -1.11794,0.68829 -1.77702,0.68829c-1.15965,0 -2.37769,-1.07205 -3.65414,-3.21614zM239.61157,181.35328c-0.85097,0.33371 -2.25256,0.69663 -4.20477,1.08874c-1.95221,0.38377 -3.33712,0.82593 -4.15471,1.3265c-0.80926,0.50057 -1.21387,1.23056 -1.21387,2.18999c0,0.8176 0.3212,1.53925 0.9636,2.16496c0.65074,0.62571 1.56844,0.93857 2.75312,0.93857c1.25142,0 2.41524,-0.34206 3.49147,-1.02617c1.07622,-0.69245 1.73947,-1.51004 1.98976,-2.45278c0.25028,-0.94274 0.37543,-2.35267 0.37543,-4.22979zM250.93861,188.08591v-14.60405c0,-2.5529 0.93857,-3.82934 2.8157,-3.82934c1.7937,0 2.71141,1.1805 2.75312,3.54152c1.17633,-2.36101 2.80735,-3.54151 4.89305,-3.54151c1.10125,0 2.24004,0.28783 3.41638,0.86348c1.17633,0.57566 1.7645,1.36405 1.7645,2.36518c0,0.69245 -0.23776,1.2681 -0.7133,1.72696c-0.47554,0.45051 -0.98445,0.67577 -1.52673,0.67577c-0.30034,0 -0.85096,-0.12097 -1.65187,-0.36291c-0.80091,-0.25028 -1.4725,-0.37543 -2.01479,-0.37543c-1.35988,0 -2.37353,0.68829 -3.04095,2.06485c-0.66742,1.37656 -1.00114,4.03374 -1.00114,7.97154v3.29124c0,1.45165 -0.06257,2.43194 -0.18771,2.94085c-0.11679,0.50057 -0.42548,0.95942 -0.92605,1.37656c-0.50057,0.40879 -1.07621,0.6132 -1.72696,0.6132c-0.62571,0 -1.18884,-0.18354 -1.68941,-0.55062c-0.50057,-0.37543 -0.82176,-0.81341 -0.96359,-1.31399c-0.13348,-0.5089 -0.20023,-1.45999 -0.20023,-2.85325zM270.6216,170.15308v-3.41637c0,-1.40992 0.05839,-2.36517 0.17519,-2.86574c0.1168,-0.5089 0.42132,-0.95942 0.91354,-1.35154c0.50057,-0.40045 1.08455,-0.60068 1.75198,-0.60068c0.60902,0 1.15965,0.17937 1.65187,0.53812c0.49223,0.35873 0.81343,0.79674 0.9636,1.314c0.15852,0.51726 0.23777,1.35153 0.23777,2.50284v3.8794h1.10125c1.39325,0 2.3193,0.17102 2.77815,0.51308c0.45885,0.33371 0.68829,0.83011 0.68829,1.48919c0,1.40159 -1.168,2.10238 -3.50398,2.10238h-1.0637v10.51192c0,1.41828 0.10012,2.38603 0.30034,2.90329c0.20022,0.5089 0.73834,0.76337 1.61433,0.76337c0.41715,0 0.88434,-0.0584 1.40159,-0.1752c0.5256,-0.1168 0.91353,-0.1752 1.16382,-0.1752c0.57565,0 1.03869,0.18772 1.38908,0.56314c0.35874,0.37543 0.53812,0.82594 0.53812,1.35155c0,1.86879 -1.96891,2.80318 -5.9067,2.80318c-1.90215,0 -3.30375,-0.35457 -4.20477,-1.0637c-0.89268,-0.70913 -1.44747,-1.57263 -1.66438,-2.59045c-0.21692,-1.01782 -0.32537,-2.34015 -0.32537,-3.96699v-10.92488h-0.75085c-1.68525,0 -2.52787,-0.68828 -2.52787,-2.06484c0,-1.35987 0.88434,-2.03981 2.65301,-2.03981z" fill="#ffffff" stroke="none" stroke-width="0" stroke-linecap="square"/><path d="M240,247.5c-46.39192,0 -84,-30.22078 -84,-67.5c0,-37.27922 37.60808,-67.5 84,-67.5c46.39192,0 84,30.22078 84,67.5c0,37.27922 -37.60808,67.5 -84,67.5z" fill="none" stroke="none" stroke-width="NaN" stroke-linecap="butt"/><path d="M60.5,201.47222v0v0v0z" fill="none" stroke="none" stroke-width="0" stroke-linecap="butt"/></g></g></svg>