<svg version="1.1" xmlns="http://www.w3.org/2000/svg" xmlns:xlink="http://www.w3.org/1999/xlink" width="375.75269" height="147.31197" viewBox="0,0,375.75269,147.31197"><g transform="translate(-132.35707,-117.07188)"><g data-paper-data="{&quot;isPaintingLayer&quot;:true}" fill-rule="nonzero" stroke-linejoin="miter" stroke-miterlimit="10" stroke-dasharray="" stroke-dashoffset="0" style="mix-blend-mode: normal"><path d="M237.00054,259.2591c-0.79818,-0.76862 -1.42886,-1.68505 -1.89201,-2.7493c-0.45329,-1.06425 -0.67994,-2.22703 -0.67994,-3.48837c0,-1.26134 0.21187,-2.45369 0.63559,-3.57707c0.42373,-1.13323 1.02977,-2.1285 1.81811,-2.98581c0.79818,-0.86716 1.75897,-1.55695 2.88235,-2.06937c1.12338,-0.51242 2.37978,-0.76863 3.76922,-0.76863c2.40441,0 4.43437,0.75877 6.08987,2.27631c1.76389,1.63579 2.64585,3.82342 2.64585,6.56287c0,2.66063 -0.90659,4.87288 -2.71975,6.63678c-1.11352,1.0938 -2.43891,1.84764 -3.97616,2.26151c-0.76862,0.19709 -1.66043,0.29563 -2.67541,0.29563c-1.00512,0 -2.03981,-0.20694 -3.10406,-0.62081c-1.06425,-0.42372 -1.99547,-1.01498 -2.79365,-1.77375zM238.87776,252.84406c0,0.69965 0.11333,1.34017 0.33997,1.92156c0.2365,0.57154 0.55676,1.05932 0.96078,1.46334c0.85731,0.87702 1.97084,1.31553 3.34056,1.31553c1.28104,0 2.30587,-0.41387 3.07449,-1.24162c0.79818,-0.85731 1.19728,-2.04474 1.19728,-3.56228c0,-1.43871 -0.38432,-2.63106 -1.15294,-3.57706c-0.81789,-0.99527 -1.93141,-1.49291 -3.34056,-1.49291c-1.36972,0 -2.45862,0.50256 -3.26666,1.50769c-0.76862,0.96571 -1.15293,2.18762 -1.15293,3.66575zM254.4079,261.34326c0.11825,-0.65037 0.17737,-1.1283 0.17737,-1.43378v-15.97851h3.25188l5.73512,9.01656v-7.65668c0,-0.3449 -0.20694,-0.79818 -0.62081,-1.35987h4.90738c-0.07884,0.68979 -0.11826,1.22191 -0.11826,1.59637v15.81591h-3.35534l-5.63165,-8.63223v8.63223zM274.05304,261.34326c-1.19235,0 -2.16791,0.04927 -2.92669,0.14781v-17.78182c0.58139,0.14782 1.16771,0.22172 1.75896,0.22172c0.60111,0 1.48798,-0.01971 2.66062,-0.05912v13.48049h2.03981c0.71935,0 1.48798,-0.04434 2.30587,-0.13303c-0.06898,2.31572 -0.10347,3.50806 -0.10347,3.57704v0.67994c-1.16279,-0.08869 -2.68526,-0.13304 -4.56741,-0.13304h-1.16771zM282.03817,243.87185c1.17264,0.03941 1.84273,0.05912 2.01025,0.05912h0.88688c0.39416,0 0.91644,-0.08376 1.56681,-0.25128l-0.01478,17.66357h-4.44916zM290.09065,261.34326c0.11825,-0.65037 0.17738,-1.1283 0.17738,-1.43378v-15.97851h3.25187l5.73512,9.01656v-7.65668c0,-0.3449 -0.20693,-0.79818 -0.62081,-1.35987h4.90737c-0.07884,0.68979 -0.11825,1.22191 -0.11825,1.59637v15.81591h-3.35534l-5.63166,-8.63223v8.63223zM315.57437,257.35234c0.42372,0 0.75385,-0.05912 0.99035,-0.17737l0.65037,0.1626l-0.1626,4.0057h-10.2434v-17.54532c0.59125,0.04927 1.01497,0.07884 1.27119,0.08869l0.8721,0.01478c0.57154,0.01971 1.18742,0.02956 1.84765,0.02956c1.87229,0 3.93181,-0.04434 6.17856,-0.13304c-0.14781,1.11352 -0.22172,2.26153 -0.22172,3.44403c0,0.07883 0.02956,0.20201 0.08868,0.36953l-0.38431,0.57647c-0.62081,-0.18723 -1.30075,-0.28084 -2.03981,-0.28084h-3.35534v2.11371h2.39456c0.85731,0 1.5668,-0.07883 2.12849,-0.2365l0.07391,4.28656c-0.76862,-0.07883 -1.45842,-0.11825 -2.06938,-0.11825h-2.52759v3.39968h4.50827zM337.4695,254.32219c-0.75877,-0.07883 -1.43871,-0.11825 -2.03981,-0.11825h-3.20753v7.13932h-4.41959v-17.54532c0.59125,0.04927 1.02483,0.07884 1.30075,0.08869l0.91644,0.01478c0.62081,0.01971 1.26133,0.02956 1.92156,0.02956c2.01025,0 4.13874,-0.04434 6.38549,-0.13304c-0.13796,1.11352 -0.20693,2.26153 -0.20693,3.44403c0,0.1084 0.00985,0.22173 0.02956,0.33998l-0.20693,0.63559c-0.71935,-0.20694 -1.44363,-0.31041 -2.17284,-0.31041h-3.5475v2.35021h3.0745c0.84746,0 1.56189,-0.0739 2.14328,-0.22171l0.02956,4.28656zM342.4705,261.49107c-0.97557,-0.09854 -1.92157,-0.14781 -2.83801,-0.14781h-1.71462l5.60209,-15.69766c0.21679,-0.62081 0.32518,-0.97063 0.32518,-1.04947c0,-0.07883 0,-0.13303 0,-0.1626v-0.5469c0.88687,0.02956 1.62594,0.04434 2.21719,0.04434c0.49271,0 1.18742,-0.01478 2.08415,-0.04434l0.29563,0.60603c-0.28577,0.03941 -0.32026,0.06898 -0.10347,0.08869c0,0.09854 0.11332,0.45329 0.33997,1.06425l5.72034,15.72723c-0.65037,0 -1.09381,0 -1.33031,0c0,0 -0.21187,-0.00986 -0.6356,-0.02956c-0.19709,0 -0.37938,0 -0.5469,0h-2.27631l-1.15294,-3.54748h-4.81868zM347.15615,253.80484l-1.13815,-3.50316l-1.10859,3.50316zM355.13966,261.34326c0.11825,-0.65037 0.17737,-1.1283 0.17737,-1.43378v-15.97851h3.25187l5.73512,9.01656v-7.65668c0,-0.3449 -0.20694,-0.79818 -0.62082,-1.35987h4.90738c-0.07884,0.68979 -0.11825,1.22191 -0.11825,1.59637v15.81591h-3.35534l-5.63165,-8.63223v8.63223zM385.70239,255.00212c-0.01971,0 -0.17245,0 -0.45822,0c-0.28577,0 -0.5272,-0.00493 -0.72428,-0.01478v6.35592h-4.30134v-17.44185c1.47812,-0.18723 3.06465,-0.28084 4.75956,-0.28084c2.39456,0 4.20772,0.46807 5.43949,1.40422c1.24162,0.92629 1.86244,2.35021 1.86244,4.27177c0,1.51754 -0.56662,2.80844 -1.69984,3.87268c-0.37446,0.35475 -0.6553,0.5814 -0.84253,0.67994l2.30588,4.83346c0.45329,1.02483 0.93615,1.73433 1.44856,2.12849l-0.66516,0.65037c-0.92629,-0.14781 -2.34528,-0.14288 -4.25699,0.01479l-2.86756,-6.47417zM385.21461,247.56716c-0.40402,0 -0.6356,0.00493 -0.69472,0.01478v3.784c0.08869,0.00985 0.38431,0.01478 0.88688,0.01478c0.51241,0 0.92629,-0.03942 1.24162,-0.11825c0.31534,-0.07883 0.57646,-0.19708 0.7834,-0.35475c0.44344,-0.33504 0.66516,-0.84253 0.66516,-1.52247c0,-0.68979 -0.21186,-1.16278 -0.63559,-1.41899c-0.49271,-0.26606 -1.24162,-0.39909 -2.24675,-0.39909zM403.67312,257.35234c0.42372,0 0.75384,-0.05912 0.99034,-0.17737l0.65037,0.1626l-0.16259,4.0057h-10.2434v-17.54532c0.59125,0.04927 1.01497,0.07884 1.27119,0.08869l0.8721,0.01478c0.57154,0.01971 1.18742,0.02956 1.84765,0.02956c1.87229,0 3.9318,-0.04434 6.17856,-0.13304c-0.14781,1.11352 -0.22172,2.26153 -0.22172,3.44403c0,0.07883 0.02956,0.20201 0.08869,0.36953l-0.38431,0.57647c-0.62081,-0.18723 -1.30076,-0.28084 -2.03982,-0.28084h-3.35534v2.11371h2.39456c0.85731,0 1.56681,-0.07883 2.1285,-0.2365l0.0739,4.28656c-0.76862,-0.07883 -1.45841,-0.11825 -2.06937,-0.11825h-2.5276v3.39968h4.50828zM411.9013,261.49107c-0.75877,-0.09854 -1.68999,-0.14781 -2.79366,-0.14781h-1.50769v-17.48619c0.88687,0.04927 1.63086,0.0739 2.23197,0.0739c0.61096,0 1.15293,-0.06405 1.62593,-0.19216l3.87268,6.60722l3.73966,-6.60722c0.473,0.12811 1.06425,0.19216 1.77375,0.19216c0.7095,0 1.50769,-0.02463 2.39456,-0.0739v17.48619h-1.50769c-1.10366,0 -2.03488,0.04927 -2.79366,0.14781v-9.63735l-3.50315,6.23769l-3.53271,-5.79425zM428.57454,261.49107c-0.97557,-0.09854 -1.92157,-0.14781 -2.838,-0.14781h-1.71463l5.60209,-15.69766c0.21679,-0.62081 0.32519,-0.97063 0.32519,-1.04947c0,-0.07883 0,-0.13303 0,-0.1626v-0.5469c0.88687,0.02956 1.62594,0.04434 2.21719,0.04434c0.49271,0 1.18743,-0.01478 2.08416,-0.04434l0.29562,0.60603c-0.28577,0.03941 -0.32026,0.06898 -0.10347,0.08869c0,0.09854 0.11332,0.45329 0.33997,1.06425l5.72034,15.72723c-0.65037,0 -1.09381,0 -1.33031,0c0,0 -0.21187,-0.00986 -0.63559,-0.02956c-0.19709,0 -0.37939,0 -0.54691,0h-2.27632l-1.15293,-3.54748h-4.81869zM433.26019,253.80484l-1.13816,-3.50316l-1.10859,3.50316zM445.41199,261.46151c-0.93615,-0.07884 -1.83288,-0.11825 -2.69018,-0.11825h-1.49291v-17.47141l1.04947,0.02956c0.33504,0.01971 0.5814,0.02956 0.73906,0.02956h0.35475c0.68979,0 1.36973,-0.07883 2.03981,-0.2365v6.01596l4.21265,-5.83859c0.69964,0.03941 1.22684,0.05912 1.58159,0.05912h0.67994c0.8179,0 1.83288,-0.11825 3.04494,-0.35475l-5.38038,7.03587l4.53784,9.00176c0.17737,0.41388 0.5814,0.99034 1.21206,1.7294h-1.87722c-1.70477,0 -2.92669,0.05912 -3.66575,0.17737c-0.13796,-0.85731 -0.27591,-1.46828 -0.41388,-1.83288l-2.74931,-5.23254l-1.1825,1.56681zM464.68347,257.35234c0.42372,0 0.75384,-0.05912 0.99034,-0.17737l0.65037,0.1626l-0.1626,4.0057h-10.2434v-17.54532c0.59125,0.04927 1.01497,0.07884 1.27119,0.08869l0.8721,0.01478c0.57154,0.01971 1.18742,0.02956 1.84765,0.02956c1.87229,0 3.93181,-0.04434 6.17856,-0.13304c-0.14781,1.11352 -0.22172,2.26153 -0.22172,3.44403c0,0.07883 0.02957,0.20201 0.08869,0.36953l-0.38432,0.57647c-0.62081,-0.18723 -1.30075,-0.28084 -2.03981,-0.28084h-3.35534v2.11371h2.39456c0.85731,0 1.56681,-0.07883 2.1285,-0.2365l0.07391,4.28656c-0.76862,-0.07883 -1.45842,-0.11825 -2.06938,-0.11825h-2.52759v3.39968h4.50828z" fill="#ffcb40" stroke="#000000" stroke-width="5" stroke-linecap="square"/><path d="M468.44587,149.35488c0,0 -15.9713,-12.49168 -20.17019,10.00838c-4.45351,21.64781 24.78105,19.073 24.06541,39.5597c-0.94901,7.63465 -5.64951,18.01205 -17.44074,15.55035c-11.53255,-2.40769 -7.21682,-23.59375 -7.21682,-23.59375" fill="none" stroke="#000000" stroke-width="10" stroke-linecap="round"/><path d="M439.27347,146.2011c0,0 2.47749,68.1543 -11.82519,68.70577c-17.29295,-0.36168 -15.50751,-68.96858 -15.50751,-68.96858" fill="none" stroke="#000000" stroke-width="10" stroke-linecap="round"/><path d="M375.96988,187.38841c0,0 -4.80284,-0.03887 -6.30957,-0.05346c-1.04425,-0.01011 -1.83393,0.58378 -1.81378,1.61966c0.0964,4.95522 -0.02323,19.66824 -4.63167,24.10502c-2.14199,2.0622 -10.07508,2.12381 -12.67826,-5.80721c-4.46657,-13.60814 -2.9492,-41.03932 0.29369,-52.12689c3.92583,-13.42256 13.83857,-7.6849 13.83857,-7.6849" fill="none" stroke="#000000" stroke-width="10" stroke-linecap="round"/><path d="M375.96988,187.38842c0,0 -4.80284,-0.03887 -6.30957,-0.05346c-1.04425,-0.01011 -1.83393,0.58376 -1.81378,1.61965c0.09641,4.95522 -0.02321,19.66824 -4.63166,24.10502c-5.81723,5.60054 -12.85864,-3.08621 -13.71026,-6.09659c-0.82372,-2.91172 -3.8072,-34.28794 1.32569,-51.83752c3.92582,-13.42255 13.83857,-7.6849 13.83857,-7.6849" fill="none" stroke="#000000" stroke-width="10" stroke-linecap="round"/><path d="M339.17587,145.60094c0,0 0.99737,27.87016 0.85726,40.19944c-0.09355,8.23215 -1.05109,23.58609 -1.46106,28.93491c-0.11319,1.4768 -0.36388,-0.36556 -0.61173,-1.21483c-0.60477,-2.07233 -3.6454,-11.10169 -6.47517,-22.30773c-1.97219,-7.80996 -3.43649,-16.94751 -5.60761,-24.38724c-2.42404,-8.30639 -4.99567,-14.52893 -5.9062,-17.649c-0.32612,-1.11748 -1.30211,-3.1832 -1.31133,-1.98863c-0.05154,6.67479 -0.50931,68.32173 -0.50931,68.32173" fill="none" stroke="#000000" stroke-width="10" stroke-linecap="round"/><path d="M308.6894,178.84699c0,18.36127 -3.78893,35.87417 -7.49021,35.87417c-5.27817,0 -10.38117,-1.48122 -10.9068,-41.65609c-0.24021,-18.3597 3.52612,-27.4641 7.2274,-27.4641c7.11787,0 11.16961,14.88475 11.16961,33.24602z" fill="none" stroke="#000000" stroke-width="10" stroke-linecap="butt"/><path d="M237.97895,215.97525c0,0 9.9522,-61.41699 11.3055,-69.21837c0.26349,-1.51892 12.58071,68.50535 12.58071,68.50535" fill="none" stroke="#000000" stroke-width="10" stroke-linecap="round"/><path d="M261.84524,214.99941c0,0 11.26596,-69.76145 11.52945,-68.24253c1.3533,7.80138 9.72861,68.69274 9.72861,68.69274" data-paper-data="{&quot;index&quot;:null}" fill="none" stroke="#000000" stroke-width="10" stroke-linecap="round"/><path d="M224.13189,159.27018c0,0 4.22196,-0.13374 7.45121,8.27733c2.04199,4.89708 2.68937,18.01058 2.86155,20.05213c0.30436,3.60887 -5.94228,6.21813 -5.94228,6.21813" fill="none" stroke="#000000" stroke-width="10" stroke-linecap="round"/><path d="M196.2337,171.69696c-0.57704,-1.89178 -0.40584,-4.81895 -0.40584,-6.39135c0,-0.63267 1.1038,-5.94307 4.524,-6.86281c2.5605,-0.68855 8.62574,-0.4333 12.87398,0.75646c2.4026,0.67288 4.34844,6.37122 3.53532,10.8779c-0.63753,3.53352 -2.46236,4.59375 -4.28385,4.59375c-2.1202,0 -7.27273,0.10722 -10.81298,-0.13426c-2.27048,-0.15488 -4.98396,-1.37535 -5.43062,-2.8397z" fill="none" stroke="#000000" stroke-width="10" stroke-linecap="butt"/><path d="M187.94222,214.25656c-0.37959,-5.6952 -1.65202,-29.6093 2.28136,-47.75995c1.01526,-4.68495 3.83009,-18.38649 12.82256,-20.38236c5.43133,-1.20548 15.85842,1.08626 20.00775,12.05479c3.4118,9.0189 4.12402,21.33936 4.81345,31.98429c0.69612,10.74821 1.35221,19.79493 1.22779,23.41519c-0.03521,1.02462 -0.51532,1.5909 -1.32192,1.59792c-1.7363,0.0151 -8.85489,0.07426 -11.88713,0.09942c-0.84938,0.00705 -1.47436,-0.62368 -1.6373,-1.65031c-0.45136,-2.84384 -0.50812,-8.74165 -0.49466,-12.41688c0.00289,-0.78988 -0.3529,-1.53741 -0.76772,-2.13975c-0.57655,-0.83718 -1.69336,-1.38217 -2.78419,-1.363c-2.02949,0.03567 -5.51141,0.09724 -6.85416,0.15759c-1.29677,0.05828 -2.66984,1.99102 -2.68721,3.16897c-0.0413,2.80163 -0.20931,14.19744 -0.20931,14.19744c0,0 -9.92966,0.27045 -10.74478,0.27753c-0.92526,0.00805 -1.71027,-0.42723 -1.7645,-1.24088z" fill="none" stroke="#000000" stroke-width="10" stroke-linecap="butt"/><path d="M187.94223,214.25656c-0.37959,-5.6952 -1.65202,-29.6093 2.28136,-47.75995c1.01526,-4.68495 3.83009,-18.38649 12.82256,-20.38236c5.43133,-1.20548 15.85842,1.08626 20.00775,12.05479c3.4118,9.0189 4.12402,21.33936 4.81345,31.98429c0.69612,10.74821 1.35221,19.79493 1.22779,23.41519c-0.03521,1.02462 -0.51532,1.5909 -1.32192,1.59792c-1.7363,0.0151 -8.85489,0.07426 -11.88713,0.09942c-0.84938,0.00705 -1.47436,-0.62368 -1.6373,-1.65031c-0.45136,-2.84384 -0.50812,-8.74165 -0.49466,-12.41688c0.00289,-0.78988 -0.35291,-1.53742 -0.76773,-2.13976c-0.57655,-0.83718 -1.69336,-1.38217 -2.78419,-1.36299c-2.02949,0.03567 -5.51141,0.09724 -6.85416,0.15759c-1.29678,0.05828 -2.66984,1.99102 -2.6872,3.16897c-0.04131,2.80163 -0.20932,14.19744 -0.20932,14.19744c0,0 -9.92966,0.27045 -10.74478,0.27753c-0.92526,0.00805 -1.71027,-0.42723 -1.7645,-1.24088z" fill="none" stroke="#000000" stroke-width="10" stroke-linecap="butt"/><path d="M224.13189,159.27018c0,0 4.22196,-0.13374 7.45121,8.27733c2.04199,4.89708 2.68937,18.01058 2.86155,20.05213c0.30436,3.60887 -5.94228,6.21813 -5.94228,6.21813" fill="none" stroke="#000000" stroke-width="10" stroke-linecap="round"/><path d="M237.97895,215.97525c0,0 9.9522,-61.41699 11.3055,-69.21837c0.26349,-1.51892 12.58071,68.50535 12.58071,68.50535" fill="none" stroke="#000000" stroke-width="10" stroke-linecap="round"/><path d="M261.84524,215.26222c0,0 11.26596,-70.02427 11.52944,-68.50535c1.3533,7.80138 9.72861,68.69274 9.72861,68.69274" data-paper-data="{&quot;index&quot;:null}" fill="none" stroke="#000000" stroke-width="10" stroke-linecap="round"/><path d="M308.6894,178.84699c0,15.77214 -2.40786,30.91831 -5.76602,34.87622c-0.55127,0.64972 -2.83527,0.98148 -3.38273,0.90493c-4.64483,-0.64949 -8.77805,-5.62412 -9.24826,-41.56307c-0.24021,-18.3597 3.52611,-27.4641 7.2274,-27.4641c7.11787,0 11.16961,14.88475 11.16961,33.24602z" fill="none" stroke="#000000" stroke-width="10" stroke-linecap="butt"/><path d="M339.17588,145.60095c0,0 0.99737,27.87016 0.85726,40.19944c-0.09355,8.23215 -1.31391,23.58609 -1.72387,28.93491c-0.11319,1.4768 -0.10107,-0.36556 -0.34892,-1.21483c-0.60477,-2.07234 -3.6454,-11.1017 -6.47517,-22.30774c-1.97219,-7.80996 -3.43648,-16.94751 -5.60761,-24.38724c-2.42405,-8.30638 -6.04693,-16.36862 -6.95746,-19.48869c-0.32612,-1.11748 -0.25086,1.02183 -0.26008,2.2164c-0.05154,6.67479 -0.50931,65.9564 -0.50931,65.9564" fill="none" stroke="#000000" stroke-width="10" stroke-linecap="round"/><path d="M375.96988,187.38841c0,0 -4.80284,-0.03887 -6.30957,-0.05346c-1.04425,-0.01011 -1.83393,0.58378 -1.81378,1.61966c0.0964,4.95522 -0.02323,19.66824 -4.63167,24.10502c-2.14199,2.0622 -10.07508,2.12381 -12.67826,-5.80721c-4.46657,-13.60814 -2.9492,-41.03932 0.29369,-52.12689c3.92583,-13.42256 13.83857,-7.6849 13.83857,-7.6849" fill="none" stroke="#000000" stroke-width="10" stroke-linecap="round"/><path d="M439.27347,146.2011c0,0 2.47749,68.1543 -11.82519,68.70577c-17.29295,-0.36167 -15.50751,-68.96858 -15.50751,-68.96858" fill="none" stroke="#000000" stroke-width="10" stroke-linecap="round"/><path d="M468.44587,149.35488c0,0 -15.9713,-12.49168 -20.17019,10.00838c-4.45351,21.64781 24.78105,19.07301 24.06541,39.5597c-0.94901,7.63465 -5.64951,18.01205 -17.44074,15.55035c-11.53255,-2.4077 -7.21682,-23.59374 -7.21682,-23.59374" fill="none" stroke="#000000" stroke-width="10" stroke-linecap="round"/><path d="M468.44587,149.35488c0,0 -15.9713,-12.49168 -20.17019,10.00838c-4.45351,21.64781 24.78105,19.073 24.06541,39.5597c-0.94901,7.63465 -5.64951,18.01205 -17.44074,15.55035c-11.53255,-2.40769 -7.21682,-23.59375 -7.21682,-23.59375" fill="none" stroke="#000000" stroke-width="6" stroke-linecap="round"/><path d="M439.27347,146.2011c0,0 2.47749,68.1543 -11.82519,68.70577c-17.29295,-0.36168 -15.50751,-68.96858 -15.50751,-68.96858" fill="none" stroke="#000000" stroke-width="6" stroke-linecap="round"/><path d="M375.96988,187.38841c0,0 -4.80284,-0.03887 -6.30957,-0.05346c-1.04425,-0.01011 -1.83393,0.58378 -1.81378,1.61966c0.0964,4.95522 -0.02323,19.66824 -4.63167,24.10502c-2.14199,2.0622 -10.07508,2.12381 -12.67826,-5.80721c-4.46657,-13.60814 -2.9492,-41.03932 0.29369,-52.12689c3.92583,-13.42256 13.83857,-7.6849 13.83857,-7.6849" fill="none" stroke="#000000" stroke-width="6" stroke-linecap="round"/><path d="M375.96988,187.38842c0,0 -4.80284,-0.03887 -6.30957,-0.05346c-1.04425,-0.01011 -1.83393,0.58376 -1.81378,1.61965c0.09641,4.95522 -0.02321,19.66824 -4.63166,24.10502c-5.81723,5.60054 -12.85864,-3.08621 -13.71026,-6.09659c-0.82372,-2.91172 -3.8072,-34.28794 1.32569,-51.83752c3.92582,-13.42255 13.83857,-7.6849 13.83857,-7.6849" fill="none" stroke="#ffffff" stroke-width="4" stroke-linecap="round"/><path d="M339.17587,145.60094c0,0 0.99737,27.87016 0.85726,40.19944c-0.09355,8.23215 -1.05109,23.58609 -1.46106,28.93491c-0.11319,1.4768 -0.36388,-0.36556 -0.61173,-1.21483c-0.60477,-2.07233 -3.6454,-11.10169 -6.47517,-22.30773c-1.97219,-7.80996 -3.43649,-16.94751 -5.60761,-24.38724c-2.42404,-8.30639 -4.99567,-14.52893 -5.9062,-17.649c-0.32612,-1.11748 -1.30211,-3.1832 -1.31133,-1.98863c-0.05154,6.67479 -0.50931,68.32173 -0.50931,68.32173" fill="none" stroke="#000000" stroke-width="6" stroke-linecap="round"/><path d="M308.6894,178.84699c0,18.36127 -3.78893,35.87417 -7.49021,35.87417c-5.27817,0 -10.38117,-1.48122 -10.9068,-41.65609c-0.24021,-18.3597 3.52612,-27.4641 7.2274,-27.4641c7.11787,0 11.16961,14.88475 11.16961,33.24602z" fill="none" stroke="#000000" stroke-width="6" stroke-linecap="butt"/><path d="M237.97895,215.97525c0,0 9.9522,-61.41699 11.3055,-69.21837c0.26349,-1.51892 12.58071,68.50535 12.58071,68.50535" fill="none" stroke="#000000" stroke-width="6" stroke-linecap="round"/><path d="M261.84524,214.99941c0,0 11.26596,-69.76145 11.52945,-68.24253c1.3533,7.80138 9.72861,68.69274 9.72861,68.69274" data-paper-data="{&quot;index&quot;:null}" fill="none" stroke="#000000" stroke-width="6" stroke-linecap="round"/><path d="M224.13189,159.27018c0,0 4.22196,-0.13374 7.45121,8.27733c2.04199,4.89708 2.68937,18.01058 2.86155,20.05213c0.30436,3.60887 -5.94228,6.21813 -5.94228,6.21813" fill="none" stroke="#000000" stroke-width="6" stroke-linecap="round"/><path d="" fill="none" stroke="#000000" stroke-width="6" stroke-linecap="butt"/><path d="M187.94223,214.25656c-0.37959,-5.6952 -1.65202,-29.6093 2.28136,-47.75995c1.01526,-4.68495 3.83009,-18.38649 12.82256,-20.38236c5.43133,-1.20548 15.85842,1.08626 20.00775,12.05479c3.4118,9.0189 4.12402,21.33936 4.81345,31.98429c0.69612,10.74821 1.35221,19.79493 1.22779,23.41519c-0.03521,1.02462 -0.51532,1.5909 -1.32192,1.59792c-1.7363,0.0151 -8.85489,0.07426 -11.88713,0.09942c-0.84938,0.00705 -1.47436,-0.62368 -1.6373,-1.65031c-0.45136,-2.84384 -0.50812,-8.74165 -0.49466,-12.41688c0.00289,-0.78988 -0.35291,-1.53742 -0.76773,-2.13976c-0.57655,-0.83718 -1.69336,-1.38217 -2.78419,-1.36299c-2.02949,0.03567 -5.51141,0.09724 -6.85416,0.15759c-1.29678,0.05828 -2.66984,1.99102 -2.6872,3.16897c-0.04131,2.80163 -0.20932,14.19744 -0.20932,14.19744c0,0 -9.92966,0.27045 -10.74478,0.27753c-0.92526,0.00805 -1.71027,-0.42723 -1.7645,-1.24088z" fill="#000000" stroke="#ffffff" stroke-width="4" stroke-linecap="butt"/><path d="M195.82786,165.30561c0,-0.63267 1.1038,-5.94308 4.524,-6.86281c2.56049,-0.68855 8.62574,-0.43331 12.87398,0.75646c2.40261,0.67287 4.34844,6.37121 3.53532,10.87791c-0.63754,3.53352 -2.46236,4.59376 -4.28385,4.59376c-2.1202,0 -7.27273,0.10722 -10.81298,-0.13426c-2.27047,-0.15487 -4.98396,-1.37535 -5.43062,-2.8397c0,0 -0.40585,-4.81896 -0.40585,-6.39136z" fill="none" stroke="#ffffff" stroke-width="4" stroke-linecap="butt"/><path d="M224.13189,159.27018c0,0 4.22196,-0.13374 7.45121,8.27733c2.04199,4.89708 2.68937,18.01058 2.86155,20.05213c0.30436,3.60887 -5.94228,6.21813 -5.94228,6.21813" fill="none" stroke="#ffffff" stroke-width="4" stroke-linecap="round"/><path d="M237.97895,215.97525c0,0 9.9522,-61.41699 11.3055,-69.21837c0.26349,-1.51892 12.58071,68.50535 12.58071,68.50535" fill="none" stroke="#ffffff" stroke-width="4" stroke-linecap="round"/><path d="M261.84524,215.26222c0,0 11.26596,-70.02427 11.52944,-68.50535c1.3533,7.80138 9.72861,68.69274 9.72861,68.69274" data-paper-data="{&quot;index&quot;:null}" fill="none" stroke="#ffffff" stroke-width="4" stroke-linecap="round"/><path d="M308.6894,178.84699c0,15.77214 -2.40786,30.91831 -5.76602,34.87622c-0.55127,0.64972 -2.83527,0.98148 -3.38273,0.90493c-4.64483,-0.64949 -8.77805,-5.62412 -9.24826,-41.56307c-0.24021,-18.3597 3.52611,-27.4641 7.2274,-27.4641c7.11787,0 11.16961,14.88475 11.16961,33.24602z" fill="none" stroke="#ffffff" stroke-width="4" stroke-linecap="butt"/><path d="M339.17588,145.60095c0,0 0.99737,27.87016 0.85726,40.19944c-0.09355,8.23215 -1.31391,23.58609 -1.72387,28.93491c-0.11319,1.4768 -0.10107,-0.36556 -0.34892,-1.21483c-0.60477,-2.07234 -3.6454,-11.1017 -6.47517,-22.30774c-1.97219,-7.80996 -3.43648,-16.94751 -5.60761,-24.38724c-2.42405,-8.30638 -6.04693,-16.36862 -6.95746,-19.48869c-0.32612,-1.11748 -0.25086,1.02183 -0.26008,2.2164c-0.05154,6.67479 -0.50931,65.9564 -0.50931,65.9564" fill="none" stroke="#ffffff" stroke-width="4" stroke-linecap="round"/><path d="M375.96988,187.38841c0,0 -4.80284,-0.03887 -6.30957,-0.05346c-1.04425,-0.01011 -1.83393,0.58378 -1.81378,1.61966c0.0964,4.95522 -0.02323,19.66824 -4.63167,24.10502c-2.14199,2.0622 -10.07508,2.12381 -12.67826,-5.80721c-4.46657,-13.60814 -2.9492,-41.03932 0.29369,-52.12689c3.92583,-13.42256 13.83857,-7.6849 13.83857,-7.6849" fill="none" stroke="#ffffff" stroke-width="4" stroke-linecap="round"/><path d="M439.27347,146.2011c0,0 2.47749,68.1543 -11.82519,68.70577c-17.29295,-0.36167 -15.50751,-68.96858 -15.50751,-68.96858" fill="none" stroke="#ffffff" stroke-width="4" stroke-linecap="round"/><path d="M468.44587,149.35488c0,0 -15.9713,-12.49168 -20.17019,10.00838c-4.45351,21.64781 24.78105,19.07301 24.06541,39.5597c-0.94901,7.63465 -5.64951,18.01205 -17.44074,15.55035c-11.53255,-2.4077 -7.21682,-23.59374 -7.21682,-23.59374" fill="none" stroke="#ffffff" stroke-width="4" stroke-linecap="round"/><path d="M508.10976,180.05042c0,34.78209 -84.11511,62.97854 -187.87635,62.97854c-103.76124,0 -187.87634,-28.19645 -187.87634,-62.97854c0,-34.78209 84.1151,-62.97854 187.87634,-62.97854c103.76124,0 187.87635,28.19645 187.87635,62.97854z" fill="none" stroke="none" stroke-width="NaN" stroke-linecap="butt"/><path d="M237.00054,259.2591c-0.79819,-0.76861 -1.42886,-1.68505 -1.89201,-2.7493c-0.45329,-1.06425 -0.67994,-2.22704 -0.67994,-3.48837c0,-1.26133 0.21187,-2.45369 0.63559,-3.57706c0.42374,-1.13323 1.02977,-2.1285 1.81811,-2.98581c0.79819,-0.86716 1.75897,-1.55696 2.88234,-2.06937c1.12337,-0.51241 2.37978,-0.76862 3.76922,-0.76862c2.40441,0 4.43437,0.75877 6.08987,2.27631c1.7639,1.63579 2.64584,3.82341 2.64584,6.56287c0,2.66062 -0.90659,4.87288 -2.71975,6.63678c-1.11352,1.0938 -2.4389,1.84764 -3.97615,2.26152c-0.76862,0.19708 -1.66043,0.29563 -2.67541,0.29563c-1.00513,0 -2.03981,-0.20694 -3.10406,-0.62081c-1.06425,-0.42373 -1.99547,-1.01498 -2.79365,-1.77375zM238.87775,252.84406c0,0.69965 0.11332,1.34017 0.33997,1.92156c0.2365,0.57154 0.55676,1.05932 0.96078,1.46334c0.85731,0.87702 1.97083,1.31553 3.34056,1.31553c1.28104,0 2.30587,-0.41387 3.0745,-1.24162c0.79819,-0.85731 1.19728,-2.04474 1.19728,-3.56228c0,-1.43871 -0.38431,-2.63106 -1.15294,-3.57706c-0.8179,-0.99527 -1.93141,-1.49291 -3.34056,-1.49291c-1.36973,0 -2.45861,0.50256 -3.26665,1.50769c-0.76862,0.96571 -1.15294,2.18762 -1.15294,3.66575zM254.4079,261.34326c0.11825,-0.65037 0.17738,-1.1283 0.17738,-1.43378v-15.97851h3.25187l5.73512,9.01656v-7.65668c0,-0.3449 -0.20694,-0.79819 -0.62081,-1.35987h4.90737c-0.07884,0.68979 -0.11825,1.22191 -0.11825,1.59637v15.81591h-3.35534l-5.63165,-8.63223v8.63223zM274.05303,261.34326c-1.19235,0 -2.16791,0.04927 -2.92669,0.14781v-17.78182c0.5814,0.14781 1.16772,0.22172 1.75897,0.22172c0.6011,0 1.48798,-0.01971 2.66062,-0.05913v13.48049h2.03981c0.71935,0 1.48797,-0.04434 2.30587,-0.13303c-0.06898,2.31572 -0.10347,3.50807 -0.10347,3.57705v0.67994c-1.16279,-0.08869 -2.68526,-0.13303 -4.56741,-0.13303h-1.16772zM282.03817,243.87184c1.17265,0.03941 1.84273,0.05913 2.01025,0.05913h0.88687c0.39416,0 0.91644,-0.08376 1.56681,-0.25128l-0.01478,17.66357h-4.44915zM290.09065,261.34326c0.11825,-0.65037 0.17737,-1.1283 0.17737,-1.43378v-15.97851h3.25187l5.73512,9.01656v-7.65668c0,-0.3449 -0.20694,-0.79819 -0.62081,-1.35987h4.90737c-0.07884,0.68979 -0.11825,1.22191 -0.11825,1.59637v15.81591h-3.35534l-5.63165,-8.63223v8.63223zM315.57438,257.35233c0.42373,0 0.75385,-0.05912 0.99034,-0.17737l0.65037,0.16259l-0.16259,4.0057h-10.2434v-17.54532c0.59125,0.04927 1.01498,0.07884 1.27119,0.08869l0.87209,0.01478c0.57154,0.01971 1.18742,0.02956 1.84765,0.02956c1.87229,0 3.93181,-0.04434 6.17856,-0.13303c-0.14781,1.11352 -0.22172,2.26153 -0.22172,3.44403c0,0.07884 0.02956,0.20201 0.08869,0.36953l-0.38431,0.57647c-0.62081,-0.18723 -1.30075,-0.28084 -2.03981,-0.28084h-3.35534v2.11372h2.39456c0.85731,0 1.56681,-0.07884 2.1285,-0.2365l0.07391,4.28656c-0.76862,-0.07884 -1.45842,-0.11825 -2.06937,-0.11825h-2.52759v3.39969h4.50828zM337.46949,254.32218c-0.75877,-0.07884 -1.43871,-0.11825 -2.03981,-0.11825h-3.20753v7.13932h-4.41959v-17.54532c0.59125,0.04927 1.02484,0.07884 1.30075,0.08869l0.91644,0.01478c0.62081,0.01971 1.26133,0.02956 1.92156,0.02956c2.01025,0 4.13875,-0.04434 6.3855,-0.13303c-0.13796,1.11352 -0.20694,2.26153 -0.20694,3.44403c0,0.1084 0.00985,0.22172 0.02956,0.33997l-0.20694,0.63559c-0.71935,-0.20694 -1.44363,-0.31041 -2.17284,-0.31041h-3.5475v2.35022h3.0745c0.84746,0 1.56188,-0.0739 2.14328,-0.22172l0.02956,4.28656zM342.47049,261.49107c-0.97556,-0.09854 -1.92156,-0.14781 -2.838,-0.14781h-1.71462l5.60209,-15.69766c0.21679,-0.62081 0.32519,-0.97063 0.32519,-1.04947c0,-0.07884 0,-0.13303 0,-0.16259v-0.54691c0.88687,0.02956 1.62594,0.04434 2.21719,0.04434c0.49271,0 1.18743,-0.01478 2.08415,-0.04434l0.29562,0.60603c-0.28577,0.03941 -0.32026,0.06898 -0.10347,0.08869c0,0.09854 0.11332,0.45329 0.33997,1.06425l5.72034,15.72723c-0.65037,0 -1.09381,0 -1.33031,0c0,0 -0.21186,-0.00985 -0.63559,-0.02956c-0.19708,0 -0.37939,0 -0.54691,0h-2.27631l-1.15294,-3.54748h-4.81868zM347.15614,253.80484l-1.13815,-3.50315l-1.10859,3.50315zM355.13966,261.34326c0.11825,-0.65037 0.17737,-1.1283 0.17737,-1.43378v-15.97851h3.25187l5.73512,9.01656v-7.65668c0,-0.3449 -0.20694,-0.79819 -0.62081,-1.35987h4.90737c-0.07884,0.68979 -0.11825,1.22191 -0.11825,1.59637v15.81591h-3.35534l-5.63165,-8.63223v8.63223zM385.70238,255.00212c-0.01971,0 -0.17245,0 -0.45822,0c-0.28577,0 -0.5272,-0.00493 -0.72428,-0.01478v6.35592h-4.30134v-17.44185c1.47813,-0.18723 3.06465,-0.28084 4.75956,-0.28084c2.39456,0 4.20772,0.46807 5.4395,1.40422c1.24162,0.92629 1.86243,2.35022 1.86243,4.27178c0,1.51754 -0.56662,2.80844 -1.69984,3.87269c-0.37446,0.35475 -0.6553,0.5814 -0.84253,0.67994l2.30587,4.83346c0.45329,1.02482 0.93615,1.73432 1.44856,2.12849l-0.66516,0.65037c-0.92629,-0.14781 -2.34529,-0.14288 -4.257,0.01478l-2.86756,-6.47417zM385.2146,247.56716c-0.40402,0 -0.63559,0.00493 -0.69472,0.01478v3.784c0.08869,0.00985 0.38431,0.01478 0.88687,0.01478c0.51241,0 0.92629,-0.03941 1.24162,-0.11825c0.31533,-0.07884 0.57647,-0.19708 0.78341,-0.35475c0.44344,-0.33504 0.66515,-0.84253 0.66515,-1.52247c0,-0.68979 -0.21186,-1.16279 -0.63559,-1.419c-0.49271,-0.26606 -1.24162,-0.39909 -2.24675,-0.39909zM403.67311,257.35233c0.42373,0 0.75385,-0.05912 0.99034,-0.17737l0.65037,0.16259l-0.16259,4.0057h-10.2434v-17.54532c0.59125,0.04927 1.01498,0.07884 1.27119,0.08869l0.87209,0.01478c0.57154,0.01971 1.18743,0.02956 1.84766,0.02956c1.87229,0 3.93181,-0.04434 6.17856,-0.13303c-0.14781,1.11352 -0.22172,2.26153 -0.22172,3.44403c0,0.07884 0.02956,0.20201 0.08869,0.36953l-0.38431,0.57647c-0.62081,-0.18723 -1.30075,-0.28084 -2.03981,-0.28084h-3.35534v2.11372h2.39456c0.85731,0 1.56681,-0.07884 2.1285,-0.2365l0.07391,4.28656c-0.76862,-0.07884 -1.45842,-0.11825 -2.06937,-0.11825h-2.52759v3.39969h4.50828zM411.9013,261.49107c-0.75877,-0.09854 -1.68999,-0.14781 -2.79365,-0.14781h-1.50769v-17.48619c0.88687,0.04927 1.63087,0.07391 2.23197,0.07391c0.61096,0 1.15294,-0.06405 1.62594,-0.19215l3.87269,6.60721l3.73965,-6.60721c0.473,0.1281 1.06425,0.19215 1.77375,0.19215c0.7095,0 1.50769,-0.02463 2.39456,-0.07391v17.48619h-1.50769c-1.10367,0 -2.03488,0.04927 -2.79365,0.14781v-9.63736l-3.50315,6.23769l-3.53272,-5.79425zM428.57454,261.49107c-0.97556,-0.09854 -1.92156,-0.14781 -2.838,-0.14781h-1.71462l5.60209,-15.69766c0.21679,-0.62081 0.32519,-0.97063 0.32519,-1.04947c0,-0.07884 0,-0.13303 0,-0.16259v-0.54691c0.88687,0.02956 1.62593,0.04434 2.21718,0.04434c0.49271,0 1.18743,-0.01478 2.08416,-0.04434l0.29562,0.60603c-0.28577,0.03941 -0.32026,0.06898 -0.10347,0.08869c0,0.09854 0.11332,0.45329 0.33997,1.06425l5.72034,15.72723c-0.65037,0 -1.09381,0 -1.33031,0c0,0 -0.21187,-0.00985 -0.63559,-0.02956c-0.19708,0 -0.37938,0 -0.5469,0h-2.27631l-1.15294,-3.54748h-4.81869zM433.26019,253.80484l-1.13815,-3.50315l-1.10859,3.50315zM445.41199,261.46151c-0.93615,-0.07884 -1.83287,-0.11825 -2.69018,-0.11825h-1.49291v-17.47141l1.04947,0.02956c0.33504,0.01971 0.5814,0.02956 0.73906,0.02956h0.35475c0.68979,0 1.36973,-0.07883 2.03981,-0.2365v6.01597l4.21265,-5.83859c0.69965,0.03941 1.22685,0.05913 1.58159,0.05913h0.67994c0.8179,0 1.83287,-0.11825 3.04494,-0.35475l-5.38037,7.03587l4.53784,9.00176c0.17738,0.41387 0.5814,0.99034 1.21206,1.72941h-1.87722c-1.70477,0 -2.92669,0.05913 -3.66575,0.17738c-0.13796,-0.85731 -0.27591,-1.46827 -0.41387,-1.83287l-2.74931,-5.23255l-1.1825,1.56681zM464.68346,257.35233c0.42373,0 0.75385,-0.05912 0.99034,-0.17737l0.65037,0.16259l-0.16259,4.0057h-10.2434v-17.54532c0.59125,0.04927 1.01498,0.07884 1.27119,0.08869l0.87209,0.01478c0.57154,0.01971 1.18742,0.02956 1.84765,0.02956c1.87229,0 3.93181,-0.04434 6.17856,-0.13303c-0.14781,1.11352 -0.22172,2.26153 -0.22172,3.44403c0,0.07884 0.02956,0.20201 0.08869,0.36953l-0.38431,0.57647c-0.62081,-0.18723 -1.30075,-0.28084 -2.03981,-0.28084h-3.35534v2.11372h2.39456c0.85731,0 1.56681,-0.07884 2.1285,-0.2365l0.07391,4.28656c-0.76862,-0.07884 -1.45842,-0.11825 -2.06937,-0.11825h-2.52759v3.39969h4.50828z" fill="#ffcb40" stroke="none" stroke-width="0" stroke-linecap="square"/></g></g></svg>