<svg version="1.1" xmlns="http://www.w3.org/2000/svg" xmlns:xlink="http://www.w3.org/1999/xlink" width="215.54465" height="261.15131" viewBox="0,0,215.54465,261.15131"><g transform="translate(-127.71466,-72.30279)"><g data-paper-data="{&quot;isPaintingLayer&quot;:true}" fill="#000000" fill-rule="nonzero" stroke="#000000" stroke-width="3" stroke-linecap="butt" stroke-linejoin="miter" stroke-miterlimit="10" stroke-dasharray="" stroke-dashoffset="0" style="mix-blend-mode: normal"><path d="M231.89757,186.82177c1.55655,6.55974 5.48529,10.01828 5.63494,3.13438c0.06527,-3.00256 1.21752,-81.50615 1.21752,-81.50615c0,0 -3.98293,-35.19868 12.73754,-36.14721c7.22527,-0.54306 10.19868,3.72894 11.44805,8.85199c2.12164,8.69975 1.40101,32.94197 1.63319,55.55221c0.25874,25.19712 1.33793,48.48841 1.33793,48.48841c0,0 -0.87062,9.10382 3.16993,10.04178c4.91075,1.13996 10.89272,-49.14237 13.3408,-71.87684c0.71274,-6.61896 1.97702,-14.61219 3.7797,-18.65676c2.21306,-4.9653 5.86029,-10.43585 11.12767,-10.1689c8.90502,0.45131 11.31885,5.9868 11.75939,10.62118c0.32695,3.4395 -0.6906,12.20738 -1.59641,22.27052c-1.42316,15.81075 -4.44652,42.08412 -10.58525,72.66752c-0.43552,2.16977 0.45391,19.56945 7.63747,10.19517c1.68916,-2.20429 8.18941,-20.11793 14.51922,-37.15312c1.32065,-3.55421 10.25974,-38.20937 19.2925,-32.0294c6.81468,4.66242 2.31341,33.9419 -3.93327,50.65904c-2.76024,7.38685 -10.23476,20.35906 -12.95452,35.5436c-4.12164,23.01128 -3.8065,50.45504 -10.90255,66.11181c-21.341,47.08693 -50.34855,37.40683 -50.54746,38.22134c-0.49379,2.02203 -12.46304,-3.2571 -24.67271,-2.74922c-9.34517,0.38873 -27.03309,7.4844 -41.51813,-15.62739c-14.09178,-22.48433 -31.56812,-51.30846 -35.22303,-58.50171c-4.24344,-8.35153 -6.16305,-22.98928 -11.18425,-35.26846c-5.90912,-14.45053 -14.43467,-26.96438 -18.20118,-32.15726c-1.19615,-1.64911 -0.96075,-4.18132 1.15958,-5.71676c2.45582,-1.77838 6.47949,-3.44141 12.40846,-2.33617c24.28552,5.90867 25.62445,45.23363 40.57898,47.55885c8.02651,2.33974 11.55008,-2.57473 13.92053,-11.00184c5.74607,-20.42761 -0.45245,-50.25992 -2.5768,-68.32835c-2.5407,-21.60972 -7.05543,-46.13594 -4.81923,-56.93226c1.30158,-6.28401 11.77164,-7.78953 16.56994,-1.5238c6.8158,8.90023 9.29389,25.89203 9.29389,25.89203c0,0 12.57627,56.82142 16.14754,71.87177z"/></g></g></svg>