<svg version="1.1" xmlns="http://www.w3.org/2000/svg" xmlns:xlink="http://www.w3.org/1999/xlink" width="234.23423" height="240.24024" viewBox="0,0,234.23423,240.24024"><g transform="translate(-122.13213,115.41292)"><g data-paper-data="{&quot;isPaintingLayer&quot;:true}" fill-rule="nonzero" stroke-linecap="butt" stroke-linejoin="miter" stroke-miterlimit="10" stroke-dasharray="" stroke-dashoffset="0" style="mix-blend-mode: normal"><path d="M138.64865,118.63583v-223.27165h202.7027v223.27165z" fill="none" stroke="none" stroke-width="NaN"/><g><path d="M244.73663,28.38977c-17.14763,7.47056 -25.79521,-6.47728 -41.69381,-6.47728c-36.31272,0 -49.99456,43.97795 -30.75,-16.75c9.09295,-28.69362 30.43728,-28.75 66.75,-28.75c36.31272,0 88.48446,35.87957 66.75,35.75c-4.4792,-0.0267 -9.40149,0.50316 -14.48698,1.40456c-3.38299,0.59963 9.23939,2.89518 12.86971,20.55936c2.19356,10.67325 -1.75292,21.97305 -6.36847,22.87098c-5.48282,1.06665 -9.74043,-8.56451 -14.46064,-16.53995c-9.57827,-16.18378 -15.9373,-16.30188 -25.48747,-16.13357c-6.19178,0.10912 -8.59861,2.09508 -13.12234,4.0659z" fill="#6ba6ff" stroke="#3062b0" stroke-width="15"/><path d="M187.5309,8.56725c-6.12085,-4.37396 19.90749,-27.63529 29.47618,-27.11906c6.6151,0.35688 84.03854,17.23974 64.62407,21.60301c-11.61834,2.61115 1.77295,10.1098 -0.78336,15.43784c-1.80307,3.75809 -17.25162,-10.30068 -27.30685,-8.04902c-10.87452,2.43512 -12.60226,6.03279 -20.1053,6.98436c-6.51277,0.82597 -9.59437,-7.23735 -19.23822,-10.23121c-8.20837,-2.54823 -22.90405,4.06274 -26.66654,1.37407z" fill="#99c2ff" stroke="none" stroke-width="0"/><path d="M182.63022,-16.0264c-1.95995,-4.11348 -0.67983,-14.03673 -1.14178,-24.63667c-0.45655,-10.47612 -2.68438,-21.63644 0.29914,-24.59495c6.88868,-8.14687 45.082,16.2632 45.082,16.2632c0,0 7.10876,47.99645 -1.13156,53.33654c-5.39836,3.49838 -14.13052,-5.15776 -23.02871,-10.05919c-8.97824,-4.94552 -18.10743,-6.17089 -20.07908,-10.30893z" fill="#6cd7ff" stroke="#308daf" stroke-width="15"/><path d="M219.7016,3.83729c16.08827,-4.20854 6.55693,-51.70054 6.55693,-51.70054c0,0 57.61037,-23.98874 64.49904,-15.84187c4.60976,5.45172 2.61229,16.17056 2.14055,26.19616c-0.44432,9.44282 0.85995,18.23304 -2.14055,22.61413c-7.90386,11.54058 -58.51335,24.96213 -71.05597,19.06547z" data-paper-data="{&quot;index&quot;:null}" fill="#6cd7ff" stroke="#308daf" stroke-width="15"/><path d="M232.62978,-89.32019c4.35713,0.32686 12.91204,5.73454 24.14513,9.27787c12.05862,3.80374 26.82257,5.96698 31.22661,12.81187c-3.51058,1.1766 -60.51456,18.4198 -60.51456,18.4198c0,0 -26.6538,-17.30115 -45.31518,-18.67891c-0.86924,-1.55639 14.25059,-6.54099 27.46163,-12.15203c10.4866,-4.45391 18.96902,-9.98072 22.99639,-9.6786z" fill="#6cd7ff" stroke="#308daf" stroke-width="15"/><path d="M205.79281,48.66249c0,-5.52285 4.47716,-10 10,-10c5.52284,0 10,4.47715 10,10c0,5.52285 -4.47716,10 -10,10c-5.52284,0 -10,-4.47715 -10,-10z" fill="#3062b0" stroke="none" stroke-width="0.5"/><path d="M191.79281,76.91249c6.5,10.52691 4.84883,23.91666 -1.91666,23.91666c-6.76549,0 -13.58334,-4.38975 -17.08334,-21.91666c-1.86562,-9.34246 2.98451,-24.75 18.25,-23.25c6.73306,0.66159 -4.25526,13.14387 0.75,21.25z" fill="#6ba6ff" stroke="#3062b0" stroke-width="15"/><path d="M214.62614,-43.33751c0.18769,5.75012 -3.63303,5.02928 1.85714,4.92857c9.81298,-0.18001 -23.27959,28.864 -20.58748,17.3248c0.56959,-2.44144 0.12708,0.3969 -3.50777,0.15141c-9.89777,-0.66848 22.0107,-29.37173 22.2381,-22.40477z" fill="#d2e4ff" stroke="none" stroke-width="0"/><path d="M281.14304,-38.79418c4.88999,-4.53605 3.96983,13.25702 2.28114,17.33704c-1.81384,4.38237 -0.98897,2.88456 -6.82692,3.66388c-3.55471,0.47453 -4.38632,6.03999 -8.2651,6.90064c-3.87878,0.86065 -6.95519,-6.24129 -1.6691,-7.98726c12.62643,-4.17046 6.21364,-12.24628 14.47999,-19.9143z" data-paper-data="{&quot;index&quot;:null}" fill="#d2e4ff" stroke="none" stroke-width="0"/><path d="M228.86424,-61.26608c-7.20865,0.30606 -23.42584,-10.63528 -13.85715,-10.11905c5.26122,0.28384 15.52736,2.14704 18.84071,2.20752c8.87384,0.16196 21.60726,-3.54793 22.08786,-0.23133c0.68844,4.75088 -19.55513,7.82374 -27.07142,8.14286z" fill="#d2e4ff" stroke="none" stroke-width="0"/><path d="M258.29281,-42.00418c2.2274,8.96696 17.36608,-12.92431 22.85714,-12.90476c7.6717,0.0273 -13.10967,22.83433 -19.94894,26.63521c-11.28153,6.26962 -17.81815,25.43531 -20.47186,20.18959c-2.73643,-5.40924 0.72537,-5.47658 -2.17443,-7.68193c-5.80151,-4.41216 18.05764,-33.00318 19.7381,-26.2381z" fill="#d2e4ff" stroke="none" stroke-width="0"/></g><path d="M122.13213,124.82732v-240.24024h234.23423v240.24024z" fill="none" stroke="none" stroke-width="0"/></g></g></svg>