<svg version="1.1" xmlns="http://www.w3.org/2000/svg" xmlns:xlink="http://www.w3.org/1999/xlink" width="144.14414" height="60.93899" viewBox="0,0,144.14414,60.93899"><g transform="translate(-167.92793,-149.5305)"><g data-paper-data="{&quot;isPaintingLayer&quot;:true}" fill-rule="nonzero" stroke-linejoin="miter" stroke-miterlimit="10" stroke-dasharray="" stroke-dashoffset="0" style="mix-blend-mode: normal"><path d="M209.74962,181.2792c0.31935,0 0.59515,0.10887 0.8274,0.32661c0.23951,0.21774 0.35927,0.49717 0.35927,0.83829c0,0.95078 -0.47903,1.92698 -1.43707,2.92857c-0.95078,1.00159 -2.29713,1.50239 -4.03903,1.50239c-2.14109,0 -3.74145,-0.66047 -4.80111,-1.98141c-1.05966,-1.3282 -1.58949,-2.95397 -1.58949,-4.87732c0,-2.07577 0.59152,-3.74146 1.77456,-4.99708c1.18304,-1.26287 2.72172,-1.89431 4.61604,-1.89431c1.64029,0 2.95398,0.45725 3.94105,1.37175c0.98708,0.90724 1.48062,1.79996 1.48062,2.67817c0,0.28306 -0.10887,0.54434 -0.32661,0.78386c-0.21048,0.23951 -0.49717,0.35926 -0.86006,0.35926c-0.31935,0 -0.56612,-0.0871 -0.74031,-0.26129c-0.16693,-0.18145 -0.39556,-0.54434 -0.68587,-1.08869c-0.29031,-0.54434 -0.6895,-0.96168 -1.19755,-1.25199c-0.5008,-0.29757 -1.04151,-0.44636 -1.62215,-0.44636c-1.12498,0 -2.01407,0.42095 -2.66728,1.26288c-0.65321,0.83466 -0.97982,2.03222 -0.97982,3.59267c0,1.56045 0.31935,2.71809 0.95804,3.47292c0.64596,0.75482 1.51691,1.13223 2.61285,1.13223c1.55319,0 2.59833,-0.75482 3.13542,-2.26447c0.18145,-0.50079 0.37015,-0.82377 0.56612,-0.96893c0.20322,-0.14516 0.42822,-0.21774 0.67498,-0.21774zM219.42632,185.48153c-1.17578,0.92901 -2.32979,1.39352 -3.46202,1.39352c-1.06691,0 -1.89069,-0.27217 -2.47132,-0.81652c-0.57337,-0.54434 -0.86006,-1.20844 -0.86006,-1.9923c0,-0.67498 0.19597,-1.21933 0.58789,-1.63303c0.39192,-0.4137 0.81651,-0.70039 1.27376,-0.86006c0.45725,-0.16693 1.20482,-0.35564 2.2427,-0.56611c1.03788,-0.21774 1.87617,-0.41733 2.51486,-0.59878c-0.00726,-0.74757 -0.15604,-1.25199 -0.44636,-1.51327c-0.29032,-0.26855 -0.73305,-0.40282 -1.3282,-0.40282c-1.12498,0 -1.85802,0.31572 -2.19914,0.94716c-0.19597,0.35564 -0.37016,0.60966 -0.52257,0.76208c-0.15241,0.15241 -0.37015,0.22862 -0.65321,0.22862c-0.26129,0 -0.49716,-0.0871 -0.70764,-0.26129c-0.21048,-0.17419 -0.31572,-0.39555 -0.31572,-0.6641c0,-0.64595 0.34838,-1.25562 1.04514,-1.82899c0.69676,-0.58064 1.78907,-0.87095 3.27695,-0.87095c1.5169,0 2.62374,0.26128 3.3205,0.78385c0.70402,0.52257 1.03425,1.5786 0.9907,3.16808l-0.05444,2.32979c-0.02177,0.71854 0.05081,1.30642 0.21774,1.76368c0.17419,0.44999 0.26129,0.79474 0.26129,1.03425c0,0.26129 -0.11612,0.49354 -0.34838,0.69676c-0.225,0.19597 -0.48266,0.29395 -0.77297,0.29395c-0.5008,0 -1.03063,-0.4645 -1.58948,-1.39352zM219.26302,181.89975c-0.37016,0.1379 -0.97982,0.29394 -1.829,0.46813c-0.84918,0.16693 -1.45158,0.35927 -1.80722,0.57701c-0.34838,0.21773 -0.52257,0.53708 -0.52257,0.95804c0,0.35564 0.1379,0.67136 0.4137,0.94716c0.28306,0.26854 0.68225,0.40282 1.19756,0.40282c0.54434,0 1.04877,-0.14879 1.51327,-0.44637c0.47177,-0.30483 0.76208,-0.66046 0.87095,-1.06691c0.10887,-0.4137 0.16331,-1.027 0.16331,-1.83988zM224.5842,177.02243v-0.71853c0,-1.27014 0.26128,-2.11569 0.78385,-2.53664c0.52983,-0.42822 1.28103,-0.64232 2.25359,-0.64232c1.57497,0 2.36245,0.35201 2.36245,1.05603c0,0.21774 -0.07621,0.4137 -0.22862,0.58789c-0.14516,0.16693 -0.34112,0.25039 -0.58789,0.25039c-0.0508,0 -0.21048,-0.01814 -0.47902,-0.05443c-0.26854,-0.03629 -0.4246,-0.05444 -0.46814,-0.05444c-0.34838,0 -0.63144,0.09072 -0.84918,0.27217c-0.21048,0.18145 -0.31572,0.59878 -0.31572,1.25199v0.58789h0.62055c0.93627,0 1.4044,0.29031 1.4044,0.87095c0,0.28306 -0.09072,0.50806 -0.27217,0.67499c-0.17419,0.15968 -0.5516,0.23951 -1.13224,0.23951h-0.62055v6.02044c0,0.46451 -0.02177,0.81652 -0.06532,1.05603c-0.03629,0.23951 -0.14515,0.46451 -0.32661,0.67499c-0.18145,0.21048 -0.46088,0.31572 -0.83829,0.31572c-0.39192,0 -0.69676,-0.12702 -0.9145,-0.38104c-0.21774,-0.26129 -0.32661,-0.81652 -0.32661,-1.66569v-6.02044h-0.69676c-0.74757,0 -1.12134,-0.30483 -1.12134,-0.9145c0,-0.58064 0.4137,-0.87095 1.2411,-0.87095zM237.05632,182.44409h-4.85555c0.02177,0.92175 0.27218,1.61852 0.75119,2.09028c0.47902,0.46451 1.05603,0.69676 1.73101,0.69676c0.8274,0 1.60763,-0.3629 2.34068,-1.08869c0.29757,-0.30483 0.51531,-0.49354 0.65321,-0.56611c0.14516,-0.07258 0.30483,-0.10887 0.47903,-0.10887c0.225,0 0.41733,0.07258 0.57701,0.21774c0.15967,0.1379 0.23951,0.30846 0.23951,0.51168c0,0.55886 -0.38104,1.14675 -1.14312,1.76368c-0.76208,0.60967 -1.79271,0.9145 -3.09187,0.9145c-1.65481,0 -2.91042,-0.46814 -3.76686,-1.4044c-0.85644,-0.93627 -1.28465,-2.14472 -1.28465,-3.62533c0,-1.50239 0.42821,-2.71809 1.28465,-3.6471c0.85644,-0.92901 2.04673,-1.39352 3.57089,-1.39352c1.45158,0 2.57293,0.4391 3.36404,1.31731c0.79837,0.87821 1.19756,1.82899 1.19756,2.85236c0,0.45725 -0.13427,0.81651 -0.40281,1.0778c-0.26128,0.26129 -0.80926,0.39193 -1.64392,0.39193zM232.20078,181.03969h4.50716c-0.02903,-0.82014 -0.25766,-1.44433 -0.68587,-1.87255c-0.42096,-0.43547 -0.94353,-0.65321 -1.56771,-0.65321c-1.31368,0 -2.06488,0.84192 -2.25358,2.52576zM241.59364,177.02243v-1.48062c0,-0.61693 0.02541,-1.03426 0.07621,-1.25199c0.0508,-0.21774 0.18145,-0.4137 0.39193,-0.58789c0.21774,-0.17419 0.47177,-0.26128 0.76208,-0.26128c0.26854,0 0.50806,0.07984 0.71854,0.23951c0.21774,0.15241 0.35926,0.34113 0.42459,0.56612c0.06532,0.225 0.09798,0.58789 0.09798,1.08869v1.68747h0.4899c0.6024,0 1.0016,0.07621 1.19756,0.22862c0.20322,0.14516 0.30483,0.35926 0.30483,0.64232c0,0.60967 -0.50805,0.9145 -1.52416,0.9145h-0.46813v4.57249c0,0.61692 0.04354,1.03788 0.13064,1.26288c0.09436,0.22499 0.33023,0.33749 0.70765,0.33749c0.18145,0 0.38467,-0.0254 0.60966,-0.07621c0.225,-0.0508 0.39193,-0.07621 0.5008,-0.07621c0.25403,0 0.45725,0.08347 0.60967,0.2504c0.15241,0.15967 0.22862,0.35201 0.22862,0.577c0,0.81289 -0.85643,1.21933 -2.5693,1.21933c-0.8274,0 -1.43707,-0.15242 -1.82899,-0.45725c-0.38467,-0.31209 -0.62418,-0.6895 -0.71854,-1.13224c-0.09436,-0.44273 -0.14153,-1.01611 -0.14153,-1.72012v-4.75756h-0.32661c-0.73305,0 -1.09957,-0.29758 -1.09957,-0.89273c0,-0.59515 0.38467,-0.89272 1.15401,-0.89272zM254.66803,182.44409h-4.85555c0.02177,0.92175 0.27218,1.61852 0.75119,2.09028c0.47902,0.46451 1.05603,0.69676 1.73102,0.69676c0.8274,0 1.60762,-0.3629 2.34067,-1.08869c0.29757,-0.30483 0.51532,-0.49354 0.65321,-0.56611c0.14516,-0.07258 0.30483,-0.10887 0.47902,-0.10887c0.225,0 0.41733,0.07258 0.577,0.21774c0.15967,0.1379 0.23952,0.30846 0.23952,0.51168c0,0.55886 -0.38105,1.14675 -1.14312,1.76368c-0.76208,0.60967 -1.79271,0.9145 -3.09187,0.9145c-1.65481,0 -2.91043,-0.46814 -3.76686,-1.4044c-0.85643,-0.93627 -1.28465,-2.14472 -1.28465,-3.62533c0,-1.50239 0.42821,-2.71809 1.28465,-3.6471c0.85644,-0.92901 2.04674,-1.39352 3.5709,-1.39352c1.45158,0 2.57293,0.4391 3.36404,1.31731c0.79837,0.87821 1.19756,1.82899 1.19756,2.85236c0,0.45725 -0.13427,0.81651 -0.40282,1.0778c-0.26128,0.26129 -0.80926,0.39193 -1.64391,0.39193zM249.81247,181.03969h4.50717c-0.02903,-0.82014 -0.25766,-1.44433 -0.68588,-1.87255c-0.42096,-0.43547 -0.94353,-0.65321 -1.56771,-0.65321c-1.31369,0 -2.06488,0.84192 -2.25358,2.52576zM258.78076,184.82832v-6.35793c0,-1.11046 0.40644,-1.66569 1.21933,-1.66569c0.78385,0 1.18304,0.51531 1.19756,1.54593c0.51531,-1.03062 1.22659,-1.54593 2.13383,-1.54593c0.47902,0 0.97256,0.12702 1.48062,0.38104c0.51531,0.24677 0.77297,0.58789 0.77297,1.02337c0,0.30483 -0.10524,0.55523 -0.31572,0.75119c-0.20322,0.19597 -0.42459,0.29395 -0.6641,0.29395c-0.13064,0 -0.37016,-0.05081 -0.71854,-0.15242c-0.34838,-0.10887 -0.63869,-0.1633 -0.87095,-0.1633c-0.59515,0 -1.03788,0.3012 -1.32819,0.90361c-0.29032,0.59515 -0.43547,1.74916 -0.43547,3.46203v1.42618c0,0.63144 -0.02541,1.05966 -0.07621,1.28465c-0.0508,0.21773 -0.18508,0.41732 -0.40281,0.59877c-0.21774,0.17419 -0.46814,0.26129 -0.75119,0.26129c-0.2758,0 -0.52257,-0.07984 -0.7403,-0.23951c-0.21774,-0.15967 -0.35564,-0.34838 -0.4137,-0.56611c-0.05806,-0.22499 -0.08709,-0.6387 -0.08709,-1.24111zM268.17841,173.2338c0.32661,0 0.60603,0.12338 0.83829,0.37016c0.23951,0.23951 0.35927,0.51894 0.35927,0.83829c0,0.33387 -0.11976,0.62055 -0.35927,0.86006c-0.23226,0.23225 -0.51168,0.34838 -0.83829,0.34838c-0.32661,0 -0.60967,-0.11613 -0.84918,-0.34838c-0.23951,-0.23951 -0.35927,-0.5262 -0.35927,-0.86006c0,-0.3266 0.11976,-0.60967 0.35927,-0.84918c0.23951,-0.23951 0.52257,-0.35926 0.84918,-0.35926zM269.40862,178.82965v5.99866c0,0.58789 -0.02903,0.99071 -0.08709,1.20845c-0.05081,0.21774 -0.18871,0.4137 -0.4137,0.58789c-0.22499,0.16693 -0.46813,0.2504 -0.72942,0.2504c-0.26128,0 -0.50806,-0.08347 -0.74031,-0.2504c-0.23226,-0.16693 -0.37741,-0.36289 -0.43547,-0.58789c-0.05081,-0.225 -0.07621,-0.62781 -0.07621,-1.20845v-5.97689c0,-0.5516 0.02178,-0.9399 0.06532,-1.1649c0.04354,-0.23226 0.17419,-0.43547 0.39193,-0.60967c0.22499,-0.18145 0.48265,-0.27217 0.77297,-0.27217c0.29757,0 0.5516,0.07984 0.76208,0.23951c0.21048,0.15967 0.34475,0.3629 0.40282,0.60967c0.05806,0.24677 0.08709,0.6387 0.08709,1.17578zM278.21959,185.48153c-1.17579,0.92901 -2.3298,1.39352 -3.46204,1.39352c-1.06691,0 -1.89068,-0.27217 -2.47132,-0.81652c-0.57337,-0.54434 -0.86006,-1.20844 -0.86006,-1.9923c0,-0.67498 0.19597,-1.21933 0.58789,-1.63303c0.39192,-0.4137 0.81651,-0.70039 1.27376,-0.86006c0.45725,-0.16693 1.20481,-0.35564 2.24269,-0.56611c1.03789,-0.21774 1.87618,-0.41733 2.51488,-0.59878c-0.00726,-0.74757 -0.15605,-1.25199 -0.44636,-1.51327c-0.29032,-0.26855 -0.73305,-0.40282 -1.3282,-0.40282c-1.12498,0 -1.85803,0.31572 -2.19915,0.94716c-0.19597,0.35564 -0.37015,0.60966 -0.52257,0.76208c-0.15242,0.15241 -0.37015,0.22862 -0.65321,0.22862c-0.26128,0 -0.49717,-0.0871 -0.70765,-0.26129c-0.21048,-0.17419 -0.31572,-0.39555 -0.31572,-0.6641c0,-0.64595 0.34838,-1.25562 1.04514,-1.82899c0.69676,-0.58064 1.78908,-0.87095 3.27695,-0.87095c1.51691,0 2.62374,0.26128 3.3205,0.78385c0.70402,0.52257 1.03425,1.5786 0.99071,3.16808l-0.05443,2.32979c-0.02177,0.71854 0.0508,1.30642 0.21774,1.76368c0.17419,0.44999 0.26128,0.79474 0.26128,1.03425c0,0.26129 -0.11613,0.49354 -0.34838,0.69676c-0.22499,0.19597 -0.48266,0.29395 -0.77297,0.29395c-0.5008,0 -1.03062,-0.4645 -1.58948,-1.39352zM278.05627,181.89975c-0.37015,0.1379 -0.97982,0.29394 -1.829,0.46813c-0.84918,0.16693 -1.45158,0.35927 -1.80722,0.57701c-0.34838,0.21773 -0.52257,0.53708 -0.52257,0.95804c0,0.35564 0.1379,0.67136 0.4137,0.94716c0.28306,0.26854 0.68225,0.40282 1.19756,0.40282c0.54434,0 1.04877,-0.14879 1.51328,-0.44637c0.47177,-0.30483 0.76208,-0.66046 0.87095,-1.06691c0.10887,-0.4137 0.1633,-1.027 0.1633,-1.83988z" fill="#ffffff" stroke="#000000" stroke-width="3.5" stroke-linecap="square"/><path d="M209.74962,181.2792c0.31935,0 0.59515,0.10887 0.8274,0.32661c0.23951,0.21774 0.35927,0.49717 0.35927,0.83829c0,0.95079 -0.47902,1.92698 -1.43707,2.92857c-0.95079,1.00159 -2.29713,1.50239 -4.03903,1.50239c-2.14109,0 -3.74146,-0.66047 -4.80111,-1.98141c-1.05966,-1.3282 -1.58948,-2.95397 -1.58948,-4.87732c0,-2.07576 0.59152,-3.74146 1.77456,-4.99708c1.18304,-1.26288 2.72172,-1.89432 4.61603,-1.89432c1.64029,0 2.95397,0.45725 3.94105,1.37175c0.98708,0.90724 1.48062,1.79996 1.48062,2.67817c0,0.28306 -0.10887,0.54434 -0.32661,0.78385c-0.21048,0.23951 -0.49717,0.35927 -0.86006,0.35927c-0.31935,0 -0.56612,-0.08709 -0.74031,-0.26128c-0.16693,-0.18145 -0.39556,-0.54434 -0.68587,-1.08869c-0.29032,-0.54434 -0.6895,-0.96167 -1.19756,-1.25199c-0.5008,-0.29757 -1.04151,-0.44636 -1.62214,-0.44636c-1.12498,0 -2.01407,0.42096 -2.66728,1.26288c-0.65321,0.83466 -0.97982,2.03222 -0.97982,3.59267c0,1.56045 0.31935,2.71809 0.95804,3.47291c0.64595,0.75482 1.5169,1.13223 2.61285,1.13223c1.55319,0 2.59833,-0.75482 3.13542,-2.26447c0.18145,-0.5008 0.37015,-0.82377 0.56612,-0.96893c0.20322,-0.14516 0.42822,-0.21774 0.67499,-0.21774zM219.42632,185.48154c-1.17578,0.92901 -2.32979,1.39352 -3.46203,1.39352c-1.06691,0 -1.89069,-0.27217 -2.47132,-0.81652c-0.57338,-0.54434 -0.86006,-1.20844 -0.86006,-1.9923c0,-0.67499 0.19596,-1.21933 0.58789,-1.63303c0.39193,-0.4137 0.81652,-0.70039 1.27376,-0.86006c0.45725,-0.16693 1.20481,-0.35564 2.2427,-0.56612c1.03788,-0.21774 1.87617,-0.41733 2.51487,-0.59878c-0.00726,-0.74757 -0.15605,-1.25199 -0.44636,-1.51328c-0.29032,-0.26854 -0.73305,-0.40281 -1.3282,-0.40281c-1.12498,0 -1.85803,0.31572 -2.19915,0.94716c-0.19596,0.35564 -0.37015,0.60966 -0.52257,0.76208c-0.15242,0.15242 -0.37015,0.22862 -0.65321,0.22862c-0.26128,0 -0.49717,-0.08709 -0.70765,-0.26128c-0.21048,-0.17419 -0.31572,-0.39556 -0.31572,-0.6641c0,-0.64595 0.34838,-1.25562 1.04514,-1.82899c0.69676,-0.58063 1.78908,-0.87095 3.27695,-0.87095c1.5169,0 2.62374,0.26128 3.3205,0.78385c0.70402,0.52257 1.03425,1.5786 0.99071,3.16808l-0.05443,2.32979c-0.02177,0.71853 0.05081,1.30642 0.21774,1.76367c0.17419,0.44999 0.26128,0.79474 0.26128,1.03425c0,0.26128 -0.11613,0.49354 -0.34838,0.69676c-0.225,0.19596 -0.48265,0.29395 -0.77297,0.29395c-0.5008,0 -1.03062,-0.46451 -1.58948,-1.39352zM219.26301,181.89976c-0.37015,0.1379 -0.97982,0.29395 -1.82899,0.46814c-0.84918,0.16693 -1.45158,0.35927 -1.80722,0.577c-0.34838,0.21774 -0.52257,0.53709 -0.52257,0.95804c0,0.35564 0.1379,0.67136 0.4137,0.94716c0.28306,0.26854 0.68224,0.40281 1.19756,0.40281c0.54434,0 1.04877,-0.14879 1.51328,-0.44636c0.47176,-0.30483 0.76208,-0.66047 0.87095,-1.06691c0.10887,-0.4137 0.1633,-1.027 0.1633,-1.83988zM224.5842,177.02244v-0.71853c0,-1.27014 0.26128,-2.11568 0.78385,-2.53664c0.52983,-0.42822 1.28102,-0.64233 2.25358,-0.64233c1.57497,0 2.36245,0.35201 2.36245,1.05603c0,0.21774 -0.07621,0.4137 -0.22862,0.58789c-0.14516,0.16693 -0.34112,0.2504 -0.58789,0.2504c-0.05081,0 -0.21048,-0.01814 -0.47902,-0.05443c-0.26854,-0.03629 -0.42459,-0.05443 -0.46814,-0.05443c-0.34838,0 -0.63144,0.09072 -0.84918,0.27217c-0.21048,0.18145 -0.31572,0.59878 -0.31572,1.25199v0.58789h0.62055c0.93627,0 1.40441,0.29032 1.40441,0.87095c0,0.28306 -0.09072,0.50805 -0.27217,0.67499c-0.17419,0.15967 -0.5516,0.23951 -1.13223,0.23951h-0.62055v6.02044c0,0.46451 -0.02177,0.81652 -0.06532,1.05603c-0.03629,0.23951 -0.14516,0.46451 -0.32661,0.67499c-0.18145,0.21048 -0.46088,0.31572 -0.83829,0.31572c-0.39193,0 -0.69676,-0.12701 -0.9145,-0.38104c-0.21774,-0.26128 -0.32661,-0.81652 -0.32661,-1.66569v-6.02044h-0.69676c-0.74757,0 -1.12135,-0.30483 -1.12135,-0.9145c0,-0.58063 0.4137,-0.87095 1.2411,-0.87095zM237.05632,182.4441h-4.85554c0.02177,0.92176 0.27217,1.61852 0.75119,2.09028c0.47902,0.46451 1.05603,0.69676 1.73101,0.69676c0.8274,0 1.60763,-0.3629 2.34068,-1.08869c0.29757,-0.30483 0.51531,-0.49354 0.65321,-0.56612c0.14516,-0.07258 0.30483,-0.10887 0.47902,-0.10887c0.225,0 0.41733,0.07258 0.577,0.21774c0.15967,0.1379 0.23951,0.30846 0.23951,0.51168c0,0.55886 -0.38104,1.14675 -1.14312,1.76367c-0.76208,0.60966 -1.79271,0.9145 -3.09187,0.9145c-1.6548,0 -2.91042,-0.46814 -3.76686,-1.40441c-0.85643,-0.93627 -1.28465,-2.14471 -1.28465,-3.62533c0,-1.50239 0.42822,-2.71809 1.28465,-3.6471c0.85643,-0.92901 2.04673,-1.39352 3.57089,-1.39352c1.45158,0 2.57293,0.4391 3.36404,1.31731c0.79837,0.87821 1.19756,1.82899 1.19756,2.85236c0,0.45725 -0.13427,0.81652 -0.40281,1.0778c-0.26128,0.26128 -0.80926,0.39193 -1.64392,0.39193zM232.20078,181.03969h4.50716c-0.02903,-0.82014 -0.25766,-1.44433 -0.68587,-1.87254c-0.42096,-0.43547 -0.94353,-0.65321 -1.56771,-0.65321c-1.31368,0 -2.06488,0.84192 -2.25358,2.52575zM241.59364,177.02244v-1.48061c0,-0.61692 0.0254,-1.03425 0.07621,-1.25199c0.05081,-0.21774 0.18145,-0.4137 0.39193,-0.58789c0.21774,-0.17419 0.47176,-0.26128 0.76208,-0.26128c0.26854,0 0.50805,0.07984 0.71853,0.23951c0.21774,0.15242 0.35927,0.34112 0.42459,0.56612c0.06532,0.225 0.09798,0.58789 0.09798,1.08869v1.68747h0.48991c0.60241,0 1.00159,0.07621 1.19756,0.22862c0.20322,0.14516 0.30483,0.35927 0.30483,0.64233c0,0.60966 -0.50805,0.9145 -1.52416,0.9145h-0.46814v4.57249c0,0.61692 0.04355,1.03788 0.13064,1.26288c0.09435,0.225 0.33024,0.33749 0.70765,0.33749c0.18145,0 0.38467,-0.0254 0.60966,-0.07621c0.225,-0.05081 0.39193,-0.07621 0.5008,-0.07621c0.25403,0 0.45725,0.08347 0.60966,0.2504c0.15242,0.15967 0.22862,0.35201 0.22862,0.577c0,0.81289 -0.85643,1.21933 -2.5693,1.21933c-0.8274,0 -1.43707,-0.15242 -1.82899,-0.45725c-0.38467,-0.31209 -0.62418,-0.6895 -0.71853,-1.13223c-0.09435,-0.44273 -0.14153,-1.01611 -0.14153,-1.72013v-4.75756h-0.32661c-0.73305,0 -1.09957,-0.29757 -1.09957,-0.89272c0,-0.59515 0.38467,-0.89272 1.15401,-0.89272zM254.66803,182.4441h-4.85555c0.02177,0.92176 0.27217,1.61852 0.75119,2.09028c0.47902,0.46451 1.05603,0.69676 1.73101,0.69676c0.8274,0 1.60763,-0.3629 2.34068,-1.08869c0.29757,-0.30483 0.51531,-0.49354 0.65321,-0.56612c0.14516,-0.07258 0.30483,-0.10887 0.47902,-0.10887c0.225,0 0.41733,0.07258 0.577,0.21774c0.15967,0.1379 0.23951,0.30846 0.23951,0.51168c0,0.55886 -0.38104,1.14675 -1.14312,1.76367c-0.76208,0.60966 -1.79271,0.9145 -3.09187,0.9145c-1.6548,0 -2.91042,-0.46814 -3.76686,-1.40441c-0.85643,-0.93627 -1.28465,-2.14471 -1.28465,-3.62533c0,-1.50239 0.42822,-2.71809 1.28465,-3.6471c0.85643,-0.92901 2.04673,-1.39352 3.57089,-1.39352c1.45158,0 2.57293,0.4391 3.36404,1.31731c0.79837,0.87821 1.19756,1.82899 1.19756,2.85236c0,0.45725 -0.13427,0.81652 -0.40281,1.0778c-0.26128,0.26128 -0.80926,0.39193 -1.64392,0.39193zM249.81247,181.03969h4.50717c-0.02903,-0.82014 -0.25766,-1.44433 -0.68587,-1.87254c-0.42096,-0.43547 -0.94353,-0.65321 -1.56771,-0.65321c-1.31368,0 -2.06488,0.84192 -2.25358,2.52575zM258.78076,184.82833v-6.35793c0,-1.11046 0.40644,-1.66569 1.21933,-1.66569c0.78385,0 1.18304,0.51531 1.19756,1.54594c0.51531,-1.03062 1.22659,-1.54594 2.13383,-1.54594c0.47902,0 0.97256,0.12701 1.48061,0.38104c0.51531,0.24677 0.77297,0.58789 0.77297,1.02337c0,0.30483 -0.10524,0.55523 -0.31572,0.75119c-0.20322,0.19596 -0.42459,0.29395 -0.6641,0.29395c-0.13064,0 -0.37015,-0.05081 -0.71853,-0.15242c-0.34838,-0.10887 -0.6387,-0.1633 -0.87095,-0.1633c-0.59515,0 -1.03788,0.3012 -1.3282,0.90361c-0.29032,0.59515 -0.43547,1.74916 -0.43547,3.46203v1.42618c0,0.63144 -0.0254,1.05966 -0.07621,1.28465c-0.05081,0.21774 -0.18508,0.41733 -0.40281,0.59878c-0.21774,0.17419 -0.46814,0.26128 -0.75119,0.26128c-0.2758,0 -0.52257,-0.07984 -0.74031,-0.23951c-0.21774,-0.15967 -0.35564,-0.34838 -0.4137,-0.56612c-0.05806,-0.225 -0.08709,-0.6387 -0.08709,-1.2411zM268.17839,173.2338c0.32661,0 0.60604,0.12338 0.83829,0.37015c0.23951,0.23951 0.35927,0.51894 0.35927,0.83829c0,0.33386 -0.11976,0.62055 -0.35927,0.86006c-0.23225,0.23225 -0.51168,0.34838 -0.83829,0.34838c-0.32661,0 -0.60966,-0.11613 -0.84918,-0.34838c-0.23951,-0.23951 -0.35927,-0.5262 -0.35927,-0.86006c0,-0.32661 0.11976,-0.60966 0.35927,-0.84918c0.23951,-0.23951 0.52257,-0.35927 0.84918,-0.35927zM269.40862,178.82966v5.99867c0,0.58789 -0.02903,0.99071 -0.08709,1.20844c-0.05081,0.21774 -0.18871,0.4137 -0.4137,0.58789c-0.225,0.16693 -0.46814,0.2504 -0.72942,0.2504c-0.26128,0 -0.50805,-0.08347 -0.74031,-0.2504c-0.23225,-0.16693 -0.37741,-0.3629 -0.43547,-0.58789c-0.05081,-0.225 -0.07621,-0.62781 -0.07621,-1.20844v-5.97689c0,-0.5516 0.02177,-0.9399 0.06532,-1.1649c0.04355,-0.23225 0.17419,-0.43547 0.39193,-0.60966c0.225,-0.18145 0.48265,-0.27217 0.77297,-0.27217c0.29757,0 0.5516,0.07984 0.76208,0.23951c0.21048,0.15967 0.34475,0.3629 0.40281,0.60966c0.05806,0.24677 0.08709,0.6387 0.08709,1.17578zM278.21957,185.48154c-1.17579,0.92901 -2.3298,1.39352 -3.46203,1.39352c-1.06691,0 -1.89069,-0.27217 -2.47132,-0.81652c-0.57338,-0.54434 -0.86006,-1.20844 -0.86006,-1.9923c0,-0.67499 0.19596,-1.21933 0.58789,-1.63303c0.39193,-0.4137 0.81652,-0.70039 1.27376,-0.86006c0.45725,-0.16693 1.20481,-0.35564 2.2427,-0.56612c1.03789,-0.21774 1.87618,-0.41733 2.51487,-0.59878c-0.00726,-0.74757 -0.15605,-1.25199 -0.44636,-1.51328c-0.29032,-0.26854 -0.73305,-0.40281 -1.3282,-0.40281c-1.12498,0 -1.85803,0.31572 -2.19915,0.94716c-0.19596,0.35564 -0.37015,0.60966 -0.52257,0.76208c-0.15242,0.15242 -0.37015,0.22862 -0.65321,0.22862c-0.26128,0 -0.49717,-0.08709 -0.70765,-0.26128c-0.21048,-0.17419 -0.31572,-0.39556 -0.31572,-0.6641c0,-0.64595 0.34838,-1.25562 1.04514,-1.82899c0.69676,-0.58063 1.78908,-0.87095 3.27695,-0.87095c1.51691,0 2.62374,0.26128 3.3205,0.78385c0.70402,0.52257 1.03425,1.5786 0.99071,3.16808l-0.05443,2.32979c-0.02177,0.71853 0.05081,1.30642 0.21774,1.76367c0.17419,0.44999 0.26128,0.79474 0.26128,1.03425c0,0.26128 -0.11613,0.49354 -0.34838,0.69676c-0.225,0.19596 -0.48265,0.29395 -0.77297,0.29395c-0.5008,0 -1.03062,-0.46451 -1.58948,-1.39352zM278.05627,181.89976c-0.37015,0.1379 -0.97982,0.29395 -1.829,0.46814c-0.84918,0.16693 -1.45158,0.35927 -1.80722,0.577c-0.34838,0.21774 -0.52257,0.53709 -0.52257,0.95804c0,0.35564 0.1379,0.67136 0.4137,0.94716c0.28306,0.26854 0.68224,0.40281 1.19756,0.40281c0.54434,0 1.04877,-0.14879 1.51328,-0.44636c0.47176,-0.30483 0.76208,-0.66047 0.87095,-1.06691c0.10887,-0.4137 0.1633,-1.027 0.1633,-1.83988z" fill="#ffffff" stroke="none" stroke-width="1" stroke-linecap="square"/><path d="M167.92793,210.4695v-60.93899h144.14414v60.93899z" fill="none" stroke="none" stroke-width="none" stroke-linecap="butt"/></g></g></svg>