<svg version="1.1" xmlns="http://www.w3.org/2000/svg" xmlns:xlink="http://www.w3.org/1999/xlink" width="170.76877" height="43.57774" viewBox="0,0,170.76877,43.57774"><g transform="translate(-154.61561,-180.72465)"><g data-paper-data="{&quot;isPaintingLayer&quot;:true}" fill-rule="nonzero" stroke-linejoin="miter" stroke-miterlimit="10" stroke-dasharray="" stroke-dashoffset="0" style="mix-blend-mode: normal"><path d="M162.11562,213.98486c0,-6.18777 0,-20.64018 0,-23.47936c0,-0.92656 1.00767,-2.28085 2.46743,-2.28085c4.61218,0 30.15865,0 59.11557,0c37.29797,0 80.25415,0 91.42065,0c1.79183,0 2.76511,1.33008 2.76511,2.68336c0,3.19262 0,16.47089 0,22.67435c0,1.96491 -1.1195,3.22003 -3.16762,3.22003c-21.00208,0 -139.64992,0 -150.13372,0c-1.45976,0 -2.46743,-1.08469 -2.46743,-2.81752z" fill="#000000" stroke="#000000" stroke-width="15" stroke-linecap="butt"/><path d="M162.11562,213.98486c0,-6.18777 0,-20.64018 0,-23.47936c0,-0.92656 1.00767,-2.28085 2.46743,-2.28085c10.55291,0 130.70041,0 150.53623,0c1.79183,0 2.76511,1.33008 2.76511,2.68336c0,3.19262 0,16.47089 0,22.67435c0,1.96491 -1.1195,3.22003 -3.16762,3.22003c-21.00208,0 -139.64992,0 -150.13372,0c-1.45976,0 -2.46743,-1.08469 -2.46743,-2.81752z" fill="#000000" stroke="#00f000" stroke-width="7" stroke-linecap="butt"/><path d="M162.11562,213.98486c0,-6.18777 0,-20.64018 0,-23.47936c0,-0.92656 1.00767,-2.28085 2.46743,-2.28085c10.55291,0 130.70041,0 150.53623,0c1.79183,0 2.76511,1.33008 2.76511,2.68336c0,3.19262 0,16.47089 0,22.67435c0,1.96491 -1.1195,3.22003 -3.16762,3.22003c-21.00208,0 -139.64992,0 -150.13372,0c-1.45976,0 -2.46743,-1.08469 -2.46743,-2.81752z" fill="#000000" stroke="none" stroke-width="0" stroke-linecap="butt"/><path d="M197.84036,197.3307v3.34776h5.30998c0.44936,0 0.77141,0.01997 0.96613,0.05992c0.19472,0.03994 0.37197,0.15229 0.53175,0.33702c0.16477,0.18474 0.24715,0.40443 0.24715,0.65907c0,0.21969 -0.09486,0.45935 -0.2846,0.71898c-0.18474,0.25464 -0.67155,0.38196 -1.46043,0.38196h-5.30998v3.93193h6.00649c0.53424,0 0.89623,0.01748 1.08596,0.05243c0.18973,0.02996 0.35699,0.1398 0.50179,0.32953c0.14979,0.18474 0.22468,0.40692 0.22468,0.66656c0,0.25464 -0.07739,0.47932 -0.23217,0.67405c-0.14979,0.18973 -0.33203,0.30706 -0.54673,0.352c-0.2097,0.04494 -0.55421,0.0674 -1.03354,0.0674h-6.44087c-0.99359,0 -1.57027,-0.0724 -1.73005,-0.21719c-0.15478,-0.1448 -0.29209,-0.30457 -0.41192,-0.47932c-0.11983,-0.17475 -0.17975,-0.71648 -0.17975,-1.6252v-9.06965c0,-0.99859 0.0699,-1.57027 0.2097,-1.71507c0.1448,-0.1448 0.30457,-0.2846 0.47932,-0.41941c0.17475,-0.13481 0.71898,-0.20221 1.63269,-0.20221h6.22368c0.4943,0 0.83631,0.01997 1.02605,0.05992c0.19472,0.03495 0.36948,0.1448 0.52426,0.32953c0.15977,0.18474 0.23966,0.41192 0.23966,0.68153c0,0.25963 -0.07739,0.48681 -0.23217,0.68153c-0.15478,0.18973 -0.33203,0.30457 -0.53175,0.34451c-0.19972,0.03495 -0.54173,0.05243 -1.02605,0.05243zM211.33249,205.38179l-1.87235,2.70367c-0.33453,0.47433 -0.60165,0.76891 -0.80136,0.88375c-0.19972,0.11484 -0.41192,0.17226 -0.6366,0.17226c-0.32454,0 -0.59915,-0.09986 -0.82383,-0.29958c-0.21969,-0.19972 -0.32953,-0.4269 -0.32953,-0.68153c0,-0.28959 0.17475,-0.67904 0.52425,-1.16834l2.31422,-3.3178l-2.05209,-2.76358c-0.3545,-0.47433 -0.53175,-0.85629 -0.53175,-1.14588c0,-0.29458 0.10735,-0.53674 0.32204,-0.72647c0.2147,-0.18973 0.4968,-0.2846 0.8463,-0.2846c0.29458,0 0.53674,0.08238 0.72647,0.24715c0.18973,0.15977 0.41941,0.4269 0.68902,0.80136l1.6252,2.2618l1.64018,-2.2618c0.33453,-0.47433 0.60414,-0.76641 0.80885,-0.87626c0.20471,-0.11484 0.41941,-0.17226 0.64409,-0.17226c0.32953,0 0.60165,0.09486 0.81634,0.2846c0.21969,0.18973 0.32953,0.41192 0.32953,0.66656c0,0.30457 -0.18224,0.7065 -0.54673,1.20579l-2.05209,2.76358l2.29175,3.3178c0.37447,0.52426 0.5617,0.90622 0.5617,1.14588c0,0.28959 -0.11484,0.52925 -0.34451,0.71898c-0.22468,0.18973 -0.47433,0.2846 -0.74894,0.2846c-0.52426,0 -1.03104,-0.352 -1.52035,-1.056zM218.95482,195.06141c0.32953,0 0.61663,0.12482 0.86128,0.37447c0.24465,0.24965 0.36698,0.53924 0.36698,0.86877c0,0.34451 -0.12233,0.64159 -0.36698,0.89124c-0.24465,0.24465 -0.53175,0.36698 -0.86128,0.36698c-0.34451,0 -0.64159,-0.12233 -0.89124,-0.36698c-0.24465,-0.24965 -0.36698,-0.54673 -0.36698,-0.89124c0,-0.33453 0.12233,-0.62412 0.36698,-0.86877c0.24965,-0.24965 0.54673,-0.37447 0.89124,-0.37447zM220.22052,200.83573v6.19372c0,0.60914 -0.02996,1.02605 -0.08987,1.25073c-0.05492,0.22468 -0.19722,0.4244 -0.4269,0.59915c-0.22967,0.17475 -0.47932,0.26213 -0.74894,0.26213c-0.27461,0 -0.53175,-0.08488 -0.77141,-0.25464c-0.23467,-0.17475 -0.38196,-0.37697 -0.44187,-0.60664c-0.05492,-0.22967 -0.08238,-0.64658 -0.08238,-1.25073v-6.17126c0,-0.56919 0.02247,-0.97112 0.0674,-1.20579c0.04494,-0.23467 0.17975,-0.44187 0.40443,-0.62162c0.22967,-0.18474 0.4943,-0.27711 0.79388,-0.27711c0.30457,0 0.5667,0.08238 0.78639,0.24715c0.21969,0.16477 0.35949,0.37447 0.41941,0.62911c0.05992,0.24965 0.08987,0.65158 0.08987,1.20579zM223.28181,198.97836v-1.53532c0,-0.6341 0.02497,-1.06349 0.07489,-1.28817c0.05492,-0.22967 0.19223,-0.43189 0.41192,-0.60664c0.22468,-0.17975 0.48681,-0.26962 0.78639,-0.26962c0.27461,0 0.52176,0.08238 0.74145,0.24715c0.21969,0.15977 0.36448,0.3545 0.43438,0.58417c0.0699,0.22967 0.10485,0.60414 0.10485,1.12341v1.74503h0.4943c0.62412,0 1.03853,0.07739 1.24324,0.23217c0.2097,0.14979 0.31455,0.37197 0.31455,0.66656c0,0.62911 -0.52426,0.94366 -1.57277,0.94366h-0.47932v4.71832c0,0.6341 0.04494,1.06849 0.13481,1.30315c0.08987,0.22967 0.33203,0.34451 0.72647,0.34451c0.18474,0 0.39444,-0.02497 0.62911,-0.07489c0.23467,-0.05492 0.40942,-0.08238 0.52426,-0.08238c0.25464,0 0.46184,0.08488 0.62162,0.25464c0.15977,0.16477 0.23966,0.36698 0.23966,0.60664c0,0.83382 -0.88375,1.25073 -2.65124,1.25073c-0.85379,0 -1.4829,-0.15728 -1.88733,-0.47183c-0.40443,-0.31955 -0.65407,-0.7065 -0.74894,-1.16086c-0.09486,-0.45935 -0.1423,-1.05351 -0.1423,-1.78247v-4.90555h-0.33702c-0.75893,0 -1.13839,-0.30956 -1.13839,-0.92868c0,-0.60914 0.39694,-0.91371 1.19081,-0.91371zM242.33669,200.49122v-0.34451c0,-0.46434 0.11484,-0.81135 0.34451,-1.04103c0.22967,-0.23467 0.51927,-0.352 0.86877,-0.352c0.38446,0 0.68153,0.13481 0.89124,0.40443c0.2097,0.26962 0.31455,0.85379 0.31455,1.75252v6.86777c0,2.03212 -0.42939,3.40018 -1.28817,4.10419c-0.85878,0.704 -2.09953,1.056 -3.72223,1.056c-1.45294,0 -2.58883,-0.26962 -3.40767,-0.80885c-0.81884,-0.53424 -1.22826,-1.10094 -1.22826,-1.70009c0,-0.32454 0.10735,-0.58667 0.32204,-0.78639c0.21969,-0.19472 0.47433,-0.29209 0.76392,-0.29209c0.26962,0 0.48431,0.06241 0.64409,0.18723c0.15977,0.12982 0.42939,0.43438 0.80885,0.91371c0.37946,0.48431 1.02355,0.72647 1.93226,0.72647c0.49929,0 0.96114,-0.07989 1.38554,-0.23966c0.42939,-0.15478 0.74395,-0.43189 0.94366,-0.83132c0.20471,-0.39444 0.30207,-1.35558 0.29209,-2.88341c-0.78389,1.12341 -1.85238,1.68511 -3.20546,1.68511c-1.30315,0 -2.33419,-0.48681 -3.09312,-1.46043c-0.75893,-0.97861 -1.13839,-2.22934 -1.13839,-3.75218c0,-1.51785 0.38945,-2.72115 1.16834,-3.60989c0.78389,-0.88874 1.79995,-1.33311 3.04818,-1.33311c1.36307,0 2.48149,0.57918 3.35525,1.73754zM237.34876,203.89889c0,0.99359 0.21719,1.75252 0.65158,2.27677c0.43438,0.51927 1.02854,0.7789 1.78247,0.7789c0.65407,0 1.22077,-0.25214 1.70009,-0.75643c0.47932,-0.50928 0.71898,-1.26571 0.71898,-2.26928c0,-0.99359 -0.22218,-1.77998 -0.66656,-2.35916c-0.43938,-0.57918 -1.03603,-0.86877 -1.78996,-0.86877c-0.72397,0 -1.30565,0.27212 -1.74503,0.81634c-0.43438,0.53924 -0.65158,1.33311 -0.65158,2.38163zM253.78048,207.7035c-1.21827,0.95864 -2.41158,1.43796 -3.57993,1.43796c-1.10344,0 -1.95223,-0.2796 -2.54639,-0.83881c-0.58916,-0.5642 -0.88375,-1.25073 -0.88375,-2.05958c0,-0.69402 0.19972,-1.25323 0.59915,-1.67762c0.40443,-0.42939 0.8438,-0.72897 1.31813,-0.89873c0.47433,-0.16976 1.24574,-0.36448 2.31422,-0.58417c1.07348,-0.22468 1.93725,-0.42939 2.59133,-0.61413c-0.00499,-0.7739 -0.15728,-1.29566 -0.45685,-1.56528c-0.29958,-0.27461 -0.75643,-0.41192 -1.37056,-0.41192c-1.15836,0 -1.91728,0.32454 -2.27677,0.97362c-0.19972,0.36948 -0.37697,0.63161 -0.53175,0.78639c-0.15478,0.15478 -0.37946,0.23217 -0.67405,0.23217c-0.26962,0 -0.51427,-0.08738 -0.73396,-0.26213c-0.2147,-0.17975 -0.32204,-0.40942 -0.32204,-0.68902c0,-0.66406 0.35699,-1.29317 1.07098,-1.88733c0.71898,-0.59416 1.84988,-0.89124 3.39269,-0.89124c1.56279,0 2.70617,0.26962 3.43014,0.80885c0.72397,0.53924 1.06349,1.63019 1.01856,3.27286l-0.05992,2.3966c-0.02497,0.73895 0.05243,1.3431 0.23217,1.81243c0.17975,0.46933 0.26962,0.82882 0.26962,1.07847c0,0.26962 -0.11983,0.50678 -0.35949,0.71149c-0.23467,0.20471 -0.50179,0.30706 -0.80136,0.30706c-0.51927,0 -1.06599,-0.47932 -1.64018,-1.43796zM253.60822,204.00374c-0.37946,0.14979 -1.00857,0.31206 -1.88733,0.48681c-0.87376,0.17475 -1.49289,0.37447 -1.85737,0.59915c-0.36448,0.22468 -0.54673,0.55172 -0.54673,0.98111c0,0.36948 0.1448,0.69402 0.43438,0.97362c0.28959,0.2796 0.69901,0.41941 1.22826,0.41941c0.5642,0 1.08596,-0.15229 1.56528,-0.45685c0.48431,-0.30956 0.78139,-0.67654 0.89124,-1.10094c0.11484,-0.4244 0.17226,-1.0585 0.17226,-1.9023zM273.19484,202.54331v4.41125c0,0.60414 -0.02497,1.03104 -0.07489,1.28069c-0.04993,0.24465 -0.18723,0.45685 -0.41192,0.6366c-0.21969,0.17975 -0.48182,0.26962 -0.78639,0.26962c-0.29958,0 -0.5617,-0.08738 -0.78639,-0.26213c-0.21969,-0.17975 -0.35699,-0.40193 -0.41192,-0.66656c-0.05492,-0.26463 -0.08238,-0.68403 -0.08238,-1.25822v-3.73721c0,-1.09345 -0.12982,-1.77748 -0.38945,-2.05209c-0.25963,-0.2796 -0.61413,-0.41941 -1.06349,-0.41941c-0.46933,0 -0.86378,0.12982 -1.18332,0.38945c-0.31955,0.25963 -0.53924,0.59915 -0.65907,1.01856c-0.11983,0.41441 -0.17975,1.06849 -0.17975,1.96222v2.83848c0,0.60414 -0.02497,1.03354 -0.07489,1.28817c-0.04494,0.24965 -0.18224,0.46184 -0.41192,0.6366c-0.22468,0.17475 -0.48931,0.26213 -0.79388,0.26213c-0.39444,0 -0.704,-0.13231 -0.92868,-0.39694c-0.22468,-0.26463 -0.33702,-0.86128 -0.33702,-1.78996v-3.51252c0,-0.99859 -0.07489,-1.69759 -0.22468,-2.09703c-0.14979,-0.39943 -0.53924,-0.59915 -1.16834,-0.59915c-0.65407,0 -1.17084,0.2097 -1.5503,0.62911c-0.37946,0.41441 -0.56919,1.30815 -0.56919,2.6812v2.89839c0,0.58916 -0.01997,1.00358 -0.05992,1.24324c-0.03994,0.23467 -0.17226,0.45186 -0.39694,0.65158c-0.22468,0.19472 -0.48681,0.29209 -0.78639,0.29209c-0.2846,0 -0.54423,-0.08738 -0.7789,-0.26213c-0.23467,-0.17475 -0.38196,-0.38446 -0.44187,-0.62911c-0.05492,-0.24965 -0.08238,-0.68153 -0.08238,-1.29566v-6.19372c0,-0.58916 0.02746,-0.9886 0.08238,-1.1983c0.05492,-0.2147 0.19223,-0.40193 0.41192,-0.5617c0.21969,-0.16477 0.45935,-0.24715 0.71898,-0.24715c0.81385,0 1.22077,0.51927 1.22077,1.55779c0.85878,-1.03853 1.88982,-1.55779 3.09312,-1.55779c1.29317,0 2.23184,0.51927 2.81601,1.55779c0.86877,-1.03853 1.88233,-1.55779 3.04069,-1.55779c0.89373,0 1.65765,0.24715 2.29175,0.74145c0.6391,0.48931 0.95864,1.50537 0.95864,3.04818zM282.81122,204.57294h-5.01789c0.02497,0.94866 0.2846,1.66514 0.7789,2.14945c0.49929,0.48431 1.09345,0.72647 1.78247,0.72647c0.85878,0 1.66514,-0.37447 2.41907,-1.12341c0.30457,-0.31455 0.52925,-0.50928 0.67405,-0.58417c0.14979,-0.07489 0.31455,-0.11234 0.4943,-0.11234c0.22967,0 0.4269,0.0724 0.59166,0.21719c0.16976,0.1448 0.25464,0.32204 0.25464,0.53175c0,0.57419 -0.39444,1.17833 -1.18332,1.81243c-0.78389,0.6341 -1.84738,0.95115 -3.19048,0.95115c-1.71257,0 -3.01073,-0.48182 -3.89448,-1.44545c-0.87876,-0.96363 -1.31813,-2.21436 -1.31813,-3.75218c0,-1.54781 0.43938,-2.79853 1.31813,-3.75218c0.88375,-0.95864 2.11201,-1.43796 3.68478,-1.43796c1.50786,0 2.66872,0.45186 3.48257,1.35558c0.81884,0.90372 1.22826,1.88733 1.22826,2.95082c0,0.46434 -0.13731,0.83382 -0.41192,1.10843c-0.26962,0.26962 -0.83382,0.40443 -1.6926,0.40443zM277.79333,203.12h4.65091c-0.02996,-0.8488 -0.26463,-1.49538 -0.704,-1.93975c-0.43438,-0.44437 -0.97362,-0.66656 -1.61771,-0.66656c-1.35308,0 -2.12948,0.86877 -2.3292,2.60631z" fill="#00f000" stroke="none" stroke-width="1" stroke-linecap="square"/></g></g></svg>