<svg version="1.1" xmlns="http://www.w3.org/2000/svg" xmlns:xlink="http://www.w3.org/1999/xlink" width="128" height="112.67305" viewBox="0,0,128,112.67305"><defs><linearGradient x1="333.96971" y1="112.55519" x2="331.84856" y2="138.2367" gradientUnits="userSpaceOnUse" id="color-1"><stop offset="0" stop-color="#725137"/><stop offset="1" stop-color="#26201c"/></linearGradient><linearGradient x1="333.96971" y1="112.55519" x2="331.84856" y2="138.2367" gradientUnits="userSpaceOnUse" id="color-2"><stop offset="0" stop-color="#725137"/><stop offset="1" stop-color="#26201c"/></linearGradient><linearGradient x1="330.53704" y1="150.30661" x2="341.77113" y2="150.30661" gradientUnits="userSpaceOnUse" id="color-3"><stop offset="0" stop-color="#ff9c40"/><stop offset="1" stop-color="#ff6a00"/></linearGradient><linearGradient x1="330.53702" y1="150.30663" x2="341.77111" y2="150.30663" gradientUnits="userSpaceOnUse" id="color-4"><stop offset="0" stop-color="#ffb169"/><stop offset="1" stop-color="#ff8731"/></linearGradient></defs><g transform="translate(-273.09997,-109.9011)"><g data-paper-data="{&quot;isPaintingLayer&quot;:true}" fill-rule="nonzero" stroke-linejoin="miter" stroke-miterlimit="10" stroke-dasharray="" stroke-dashoffset="0" style="mix-blend-mode: normal"><path d="M309.63748,192.31087c4.3983,0 45.2,0 45.2,0" fill="none" stroke="#000000" stroke-width="7.5" stroke-linecap="round"/><path d="M320.60891,137.30838c0,0 0.24982,-19.22253 0.30078,-23.14306c0.01736,-1.33563 1.18382,-2.36072 2.9574,-1.85872c1.40887,0.39879 3.73579,1.54447 5.66642,2.10757c2.45815,0.71692 4.48567,0.62803 6.69618,1.239c2.34728,0.64877 4.86725,1.59984 5.9841,1.84654c2.8094,0.62053 3.10529,1.59431 2.96289,3.30519c-0.03268,0.39267 -0.09829,0.7828 -0.14051,1.1506c-0.39755,3.46348 -1.87791,16.36126 -1.87791,16.36126z" fill="url(#color-1)" stroke="#000000" stroke-width="5" stroke-linecap="butt"/><path d="M314.00097,149.95197c0,-9.64018 7.81489,-17.45507 17.45507,-17.45507c9.64018,0 17.45507,7.81489 17.45507,17.45507c0,9.64018 -7.81489,17.45507 -17.45507,17.45507c-9.64018,0 -17.45507,-7.81489 -17.45507,-17.45507z" fill="#ffffff" stroke="#000000" stroke-width="7.5" stroke-linecap="butt"/><path d="M309.57573,181.02696c0,-12.21994 9.90622,-22.12616 22.12616,-22.12616c12.21994,0 23.10558,9.48647 23.10558,21.7064c0,2.28053 0.04403,7.70826 0.04403,7.70826c0,0 -5.6983,0.42299 -7.4745,2.02591c-1.80859,1.63212 -5.7597,0.97778 -7.7851,0.7425c-2.939,-0.34143 -4.15837,-0.8384 -8.3594,-0.8384c-8.23263,0 -17.73143,1.70774 -20.78179,-1.96869c-0.59895,-0.72188 -0.93117,3.6463 -0.93117,3.6463c0,0 0.05618,-8.52532 0.05618,-10.89612z" fill="#ffffff" stroke="#000000" stroke-width="7.5" stroke-linecap="butt"/><path d="M316.30244,136.16195c5.51905,0.45582 31.41352,2.59459 31.41352,2.59459" fill="none" stroke="#000000" stroke-width="7.5" stroke-linecap="round"/><path d="M329.28156,185.7988c0,-1.16694 0.94601,-2.11295 2.11295,-2.11295c1.16694,0 2.11295,0.94601 2.11295,2.11295c0,1.16694 -0.94601,2.11295 -2.11295,2.11295c-1.16694,0 -2.11295,-0.94601 -2.11295,-2.11295z" fill="#232323" stroke="#000000" stroke-width="7.5" stroke-linecap="butt"/><path d="M329.64902,177.16326c0,-0.964 0.78148,-1.7455 1.7455,-1.7455c0.964,0 1.7455,0.78148 1.7455,1.7455c0,0.964 -0.78148,1.74548 -1.7455,1.74548c-0.964,0 -1.7455,-0.78148 -1.7455,-1.74548z" fill="#232323" stroke="#000000" stroke-width="7.5" stroke-linecap="butt"/><path d="M307.70183,164.69102l-12.7757,1.34751l2.42607,-4.86021l8.3774,-0.02891l-5.00914,-8.74892l4.83135,-0.44842l7.17884,12.22807c0,0 3.03491,3.28093 3.45966,4.66423c0.31395,1.02245 -1.14159,2.88519 -1.14159,2.88519c-0.51424,0.34762 2.45615,-1.92114 1.89607,-1.65817c-1.12777,0.52951 -4.15492,0.4607 -5.27263,1.01115c-0.07703,0.03793 -0.15308,0.07622 -0.22824,0.11484z" data-paper-data="{&quot;index&quot;:null}" fill="#000000" stroke="none" stroke-width="0" stroke-linecap="butt"/><path d="M352.38313,179.22558c-0.07516,-0.03861 -0.15121,-0.07691 -0.22824,-0.11484c-1.11771,-0.55046 -2.4021,-0.69948 -3.52987,-1.229c-0.56008,-0.26297 -1.07521,-0.60835 -1.58947,-0.95597l11.23965,-16.9455l4.83135,0.44842l-5.00914,8.74892l10.12017,2.20734l-3.2379,2.0282l-8.8545,-0.69397z" data-paper-data="{&quot;index&quot;:null}" fill="#000000" stroke="none" stroke-width="0" stroke-linecap="butt"/><path d="M314.00097,149.95197c0,-9.64018 7.81489,-17.45507 17.45507,-17.45507c9.64018,0 17.45507,7.81489 17.45507,17.45507c0,9.64018 -7.81489,17.45507 -17.45507,17.45507c-9.64018,0 -17.45507,-7.81489 -17.45507,-17.45507z" fill="#ffffff" stroke="none" stroke-width="0" stroke-linecap="butt"/><path d="M309.57573,181.02696c0,-1.67463 0.18604,-3.30582 0.53858,-4.87401c2.21999,-9.87501 11.04227,-17.25215 21.58758,-17.25215c12.21994,0 23.10558,9.48647 23.10558,21.7064c0,2.28053 0.04403,7.70826 0.04403,7.70826c0,0 -5.6983,0.42299 -7.4745,2.02591c-1.80859,1.63212 -5.7597,0.97778 -7.7851,0.7425c-2.939,-0.34143 -4.15837,-0.8384 -8.3594,-0.8384c-8.23263,0 -17.73143,1.70774 -20.78179,-1.96869c-0.59895,-0.72188 -0.93117,-1.1537 -0.93117,-1.1537c0,0 0.05618,-3.72532 0.05618,-6.09612z" fill="#ffffff" stroke="none" stroke-width="0" stroke-linecap="butt"/><path d="M314.04161,187.34982c6.76202,0 36.38952,0 36.38952,0" fill="none" stroke="#ffffff" stroke-width="7.5" stroke-linecap="round"/><path d="M320.60891,137.30838c0,0 0.24982,-19.22253 0.30078,-23.14306c0.01736,-1.33563 1.18382,-2.36072 2.9574,-1.85872c1.40887,0.39879 3.73579,1.54447 5.66642,2.10757c2.45815,0.71692 4.48567,0.62803 6.69618,1.239c2.34728,0.64877 4.86725,1.59984 5.9841,1.84654c2.8094,0.62053 3.10529,1.59431 2.96289,3.30519c-0.03268,0.39267 -0.09829,0.7828 -0.14051,1.1506c-0.39755,3.46348 -1.87791,16.36126 -1.87791,16.36126z" fill="url(#color-2)" stroke="none" stroke-width="5" stroke-linecap="butt"/><path d="M316.30244,136.16195c5.51905,0.45582 31.41352,2.59459 31.41352,2.59459" fill="none" stroke="#6a4d38" stroke-width="5" stroke-linecap="round"/><path d="M319.48736,162.63287c0,0 5.98875,-3.61238 12.21449,-3.59215c7.52814,0.02445 11.62707,3.29762 11.62707,3.29762c0,0 -5.54632,2.5625 -12.19227,2.66281c-6.28965,-0.02919 -11.64931,-2.36827 -11.64931,-2.36827z" fill="#ff4040" stroke="none" stroke-width="0" stroke-linecap="butt"/><path d="M329.28156,185.7988c0,-1.16694 0.94601,-2.11295 2.11295,-2.11295c1.16694,0 2.11295,0.94601 2.11295,2.11295c0,1.16694 -0.94601,2.11295 -2.11295,2.11295c-1.16694,0 -2.11295,-0.94601 -2.11295,-2.11295z" fill="#232323" stroke="none" stroke-width="0" stroke-linecap="butt"/><path d="M329.64902,177.16326c0,-0.964 0.78148,-1.7455 1.7455,-1.7455c0.964,0 1.7455,0.78148 1.7455,1.7455c0,0.964 -0.78148,1.74548 -1.7455,1.74548c-0.964,0 -1.7455,-0.78148 -1.7455,-1.74548z" fill="#232323" stroke="none" stroke-width="0" stroke-linecap="butt"/><path d="M330.53704,153.57472v-6.53621l11.23409,3.06384z" fill="url(#color-3)" stroke="none" stroke-width="0" stroke-linecap="butt"/><path d="M330.53702,153.57472v-3.2849l11.23409,-0.18745z" fill="url(#color-4)" stroke="none" stroke-width="0" stroke-linecap="butt"/><path d="M273.09997,222.57415v-110h128v110z" fill="none" stroke="none" stroke-width="0" stroke-linecap="butt"/><path d="M308.83748,192.31087" fill="none" stroke="#000000" stroke-width="7.5" stroke-linecap="round"/></g></g></svg>