<svg version="1.1" xmlns="http://www.w3.org/2000/svg" xmlns:xlink="http://www.w3.org/1999/xlink" width="307" height="307" viewBox="0,0,307,307"><defs><linearGradient x1="193.34132" y1="201.74677" x2="192.25769" y2="246.91828" gradientUnits="userSpaceOnUse" id="color-1"><stop offset="0" stop-color="#8ec4d0"/><stop offset="1" stop-color="#406077"/></linearGradient><linearGradient x1="193.34133" y1="201.74677" x2="192.2577" y2="246.91828" gradientUnits="userSpaceOnUse" id="color-2"><stop offset="0" stop-color="#8ec4d0"/><stop offset="1" stop-color="#406077"/></linearGradient><linearGradient x1="267.65052" y1="203.89808" x2="267.65052" y2="249.08259" gradientUnits="userSpaceOnUse" id="color-3"><stop offset="0" stop-color="#8ec4d0"/><stop offset="1" stop-color="#406077"/></linearGradient></defs><g transform="translate(-86.5,-47.19449)"><g data-paper-data="{&quot;isPaintingLayer&quot;:true}" fill-rule="nonzero" stroke-linecap="butt" stroke-linejoin="miter" stroke-miterlimit="10" stroke-dasharray="" stroke-dashoffset="0" style="mix-blend-mode: normal"><path d="M89,200.69449c0,-83.39499 67.60501,-151 151,-151c83.39499,0 151,67.60501 151,151c0,83.39499 -67.60501,151 -151,151c-83.39499,0 -151,-67.60501 -151,-151z" fill="#c1ffb2" stroke="none" stroke-width="0"/><path d="M92,174.69447c0,0 12.39294,60.43765 55.98474,110.83318c42.25722,48.85264 69.10277,62.95198 69.10277,62.95198c0,0 -18.64049,-2.35942 -26.09179,-4.91461c-24.90904,-8.54177 -46.87791,-23.41437 -63.98602,-42.69722c-14.83039,-16.7156 -26.00815,-36.74528 -32.28219,-58.83796c-1.63816,-5.76842 -4.36357,-19.45418 -4.66195,-32.99194c-0.38115,-17.29247 1.93445,-34.34344 1.93445,-34.34344z" fill="#a9ef51" stroke="none" stroke-width="0"/><path d="M112.3922,119.92886c0,0 2.9874,-4.57182 4.5701,-6.79188c13.23093,-18.559 30.55615,-33.99744 50.65712,-44.99678c2.3231,-1.27121 7.07849,-3.63372 7.07849,-3.63372c0,0 1.41646,83.64612 14.97423,159.73551c11.85622,66.5399 36.29102,126.83034 33.75137,126.55303c-75.59605,-8.25439 -111.0313,-230.86617 -111.0313,-230.86617z" fill="#abee53" stroke="none" stroke-width="0"/><path d="M238.48285,50.28824c0,0 21.1116,0.63494 24.12507,1.08736c16.14936,2.42458 31.46169,7.40663 45.51148,14.52063c2.27146,1.15014 6.71357,3.61578 6.71357,3.61578c0,0 -23.12187,74.19765 -34.5305,138.53809c-8.04369,45.36344 -16.83565,141.83179 -16.83565,141.83179c0,0 -6.49388,0.9056 -9.78826,1.2014c-4.50542,0.40454 -6.06786,0.61119 -10.67857,0.61119c-3.46676,0 -6.31471,0.65324 -6.31471,0.65324c0,0 -8.80023,-107.69193 -5.65681,-186.3893c1.70155,-42.59948 7.45437,-115.6702 7.45437,-115.6702z" fill="#abee53" stroke="none" stroke-width="0"/><path d="M355.7369,104.68173c0,0 8.27066,9.75729 10.25283,12.75062c10.85586,16.39376 18.59764,35.0296 22.38197,55.06412c1.09108,5.77628 -0.3717,0.19801 -0.3717,0.19801c0,0 -22.85239,37.94419 -36.39089,64.02344c-16.5176,31.81789 -32.99932,92.0441 -34.83156,93.40104c-8.77132,6.49599 -5.27122,4.06418 -15.35463,8.55953c-1.94452,0.86689 -8.8976,2.47996 -8.8976,2.47996c0,0 -2.21784,-41.30569 21.44111,-125.21136c14.53188,-51.53681 41.77049,-111.26534 41.77049,-111.26534z" fill="#abee53" stroke="none" stroke-width="0"/><path d="M389.99999,212.69449c0,0 0.85107,-4.20631 0.55856,-0.36701c-3.96206,52.00368 -34.26586,96.64238 -77.59701,120.60173c-12.60939,6.97218 11.67262,-36.05746 37.44993,-72.31919c18.43477,-25.93276 39.58852,-47.91553 39.58852,-47.91553z" fill="#abee53" stroke="none" stroke-width="0"/><g><path d="M95.13777,238.67567c0,0 12.78795,-23.99446 16.98581,-29.6188c2.78668,-3.73364 7.8027,-2.96275 7.8027,-2.96275l-9.70992,57.28361c0,0 -4.57287,-7.22905 -6.63197,-11.39072c-0.70043,-1.41565 -2.48648,0.48197 -3.59014,-1.28082c-2.60482,-4.16045 -4.85648,-12.03053 -4.85648,-12.03053z" fill="#fb7c00" stroke="none" stroke-width="0"/><path d="M119.92629,206.09412l-10.17416,57.27247c0,0 -9.87636,-4.52213 -11.66651,-11.01134c-2.49099,-4.7601 21.84067,-46.26113 21.84067,-46.26113z" fill="#b43f15" stroke="none" stroke-width="0"/><path d="M94.15403,237.98522c0,0 13.77167,-23.304 17.96953,-28.92835c2.78668,-3.73364 7.8027,-2.96275 7.8027,-2.96275l-9.70992,57.28361c0,0 -8.31043,-4.31784 -10.36953,-8.47952c-2.35356,-4.7568 -5.69278,-16.91301 -5.69278,-16.91301z" fill="none" stroke="#390400" stroke-width="4"/><path d="M224.42823,231.78307c3.83838,29.93209 4.2819,65.07013 4.11401,86.2206c-0.77917,13.65513 -1.73144,17.8123 -17.11655,22.09194c-6.75259,1.87835 -14.1269,3.15727 -23.40669,3.97787c-13.08319,1.15694 -35.66954,-21.65761 -54.54767,-36.9311c-11.61679,-9.39864 -15.77771,-18.02584 -21.21621,-26.52391c-3.61212,-5.6442 -11.16689,-10.19444 -9.58767,-18.63728c5.4301,-29.03065 15.38639,-58.45916 31.64055,-74.8693c9.69293,-9.78594 19.27826,-13.63778 27.03186,-16.17511c46.89795,-15.34714 62.30486,54.73632 63.08836,60.84627z" fill="#b43f15" stroke="none" stroke-width="0"/><path d="M224.42823,231.78307c2.44156,19.03956 3.50952,40.18552 3.92026,58.49803c0.13583,6.05626 -15.69435,64.06332 -90.31618,15.7185c-39.75186,-26.60963 -18.54062,-97.66568 -16.38088,-101.54378c3.71263,-6.6665 7.91685,-12.55869 12.65659,-17.34391c9.69293,-9.78594 19.27826,-13.63778 27.03186,-16.17511c46.89795,-15.34714 62.30486,54.73632 63.08836,60.84627z" fill="#fb7c00" stroke="none" stroke-width="0"/><path d="M181.36776,206.18364c3.47263,0.22337 18.62018,0.5703 29.99558,3.41396c2.16583,0.54141 7.10638,1.89519 8.55195,7.74192c1.73022,6.99801 4.22998,18.42548 2.92052,26.25715c-0.96545,5.7742 -8.29103,7.92776 -10.02791,7.94168c-6.80002,0.05454 -14.98975,0.05288 -22.52224,-0.12783c-8.09896,-0.19429 -12.07248,0.36736 -19.47041,-1.46737c-3.39289,-0.84146 -7.80455,-1.87493 -11.26364,-4.95389c-6.37498,-5.67442 -2.01888,-22.28894 -1.09899,-25.87422c0.18049,-0.70346 1.14768,-7.00557 5.88331,-10.28913c4.2506,-2.94725 12.01132,-2.9652 17.0318,-2.64227z" fill="#8ec4d0" stroke="#b33f18" stroke-width="6"/><path d="M184.3122,201.58627c3.47263,0.22337 18.62018,0.5703 29.99558,3.41396c2.16583,0.54141 7.10638,1.89519 8.55195,7.74192c1.73022,6.99801 4.22998,18.42548 2.92052,26.25715c-0.96545,5.7742 -8.29103,7.92776 -10.02791,7.94168c-6.80002,0.05454 -14.98975,0.05288 -22.52224,-0.12783c-8.09896,-0.19429 -12.07248,0.36736 -19.47041,-1.46737c-3.39289,-0.84146 -7.80455,-1.87493 -11.26364,-4.95389c-6.37498,-5.67442 -2.01888,-22.28894 -1.09899,-25.87422c0.18049,-0.70346 1.14768,-7.00557 5.88331,-10.28913c4.2506,-2.94725 12.01132,-2.9652 17.0318,-2.64227z" fill="#8ec4d0" stroke="#061b0f" stroke-width="6"/><path d="M224.42823,231.78307c3.83838,29.93209 4.2819,65.07013 4.11401,86.2206c-0.77917,13.65513 -1.73144,17.8123 -17.11655,22.09194c-6.13583,1.70679 -13.61044,2.89884 -21.88687,3.71802c-1.49134,0.14761 -5.98329,-2.51546 -5.98329,-2.51546c0,0 -15.62733,-8.30786 -23.40185,-13.35406c-8.09199,-5.25227 -24.23577,-17.56607 -24.23577,-17.56607c0,0 -12.0648,-15.04702 -17.52778,-22.56176c-4.81493,-6.62331 -13.55206,-20.19098 -13.55206,-20.19098c0,0 -2.13048,-4.86151 -1.89246,-6.16979c5.36724,-29.5006 14.83535,-57.65796 31.36239,-74.34361c9.69293,-9.78594 19.27826,-13.63778 27.03186,-16.17511c46.89795,-15.34714 62.30486,54.73632 63.08836,60.84627z" fill="none" stroke="#390400" stroke-width="4"/><path d="M184.3122,201.58624c3.47263,0.22337 18.62018,0.5703 29.99558,3.41396c2.16583,0.54141 7.10638,1.89519 8.55195,7.74192c1.73022,6.99801 4.22998,18.42548 2.92052,26.25715c-0.96545,5.7742 -8.29103,7.92776 -10.02791,7.94168c-6.80002,0.05454 -14.98975,0.05288 -22.52224,-0.12783c-8.09896,-0.19429 -12.07248,0.36736 -19.47041,-1.46737c-3.39289,-0.84146 -7.80455,-1.87493 -11.26364,-4.95389c-6.37498,-5.67442 -2.01888,-22.28894 -1.09899,-25.87422c0.18049,-0.70346 1.14768,-7.00557 5.88331,-10.28913c4.2506,-2.94725 12.01132,-2.9652 17.0318,-2.64227z" fill="url(#color-1)" stroke="none" stroke-width="0"/><path d="M184.48451,201.58668c3.21408,0.20787 17.23397,0.52884 27.76202,3.18147c2.0045,0.50506 6.57702,1.76797 7.91385,7.22621c1.60007,6.53301 3.91154,17.20123 2.69804,24.51314c-0.8947,5.391 -7.67537,7.40296 -9.28296,7.41629c-6.29384,0.05223 -13.8739,0.05225 -20.84563,-0.11499c-7.49603,-0.17983 -11.17387,0.34529 -18.02073,-1.36619c-3.14016,-0.78494 -7.22322,-1.74893 -10.42422,-4.62277c-5.89932,-5.29642 -1.86429,-20.80859 -1.01218,-24.15598c0.16718,-0.65678 1.06359,-6.54064 5.44734,-9.60708c3.93475,-2.75238 11.11776,-2.77064 15.76445,-2.47012z" fill="#8ec4d0" stroke="none" stroke-width="0"/><path d="M224.00868,229.45402c-0.29815,1.78321 -1.55385,6.48412 -9.51697,8.92911c-4.66951,1.43371 -11.63752,1.76375 -22.09224,1.14819c-4.30059,-0.25321 -8.08164,0.34944 -11.35987,-0.15372c-18.72666,-2.87429 -21.80484,-10.21069 -21.34899,-12.97471c0.16337,-0.99064 3.22207,-6.43471 13.74231,-9.17388c4.51415,-1.17535 10.39236,-1.44486 18.02123,-1.32167c10.50395,0.16961 17.80127,0.53558 22.76516,2.385c8.47951,3.15925 10.19598,8.72984 9.78937,11.16169z" fill="url(#color-2)" stroke="none" stroke-width="0"/><path d="M191.14887,340.88206c-0.66434,2.41012 -3.07445,1.74579 -3.07445,1.74579l-2.30698,-0.65967c-2.81009,-1.55531 -3.75197,0.99232 -7.23889,-0.08553c-2.35494,-0.72794 -5.95476,-4.00218 -7.54941,-5.9177c-0.55435,-0.66588 -0.58411,-1.70114 -1.2096,-2.3007c-0.48188,-0.4619 -1.28226,-0.38721 -1.88773,-0.66817c-2.64683,-1.22825 -5.59133,-2.81932 -8.09995,-4.29668c-4.84022,-2.85048 -8.50229,-7.12318 -12.90559,-10.40481c-1.77169,-1.32037 -3.97998,-1.92968 -5.89235,-3.03651c-1.94821,-4.60767 -4.8059,-6.79343 -8.84482,-9.84891c-2.36688,-1.79055 -5.71483,-2.19261 -7.49748,-4.77822c-0.64686,-0.93822 -0.53884,-2.23789 -1.06529,-3.2486c-0.38694,-0.74288 -1.20385,-1.19262 -1.62509,-1.9166c-0.82376,-1.4158 -1.20758,-3.06583 -2.08034,-4.45197c-1.39056,-2.20852 -2.45689,-2.00951 -4.14984,-3.79462c-1.45506,-1.53425 -2.74356,-3.25285 -3.771,-5.10097c-0.88818,-1.59762 -0.81174,-3.58073 -1.49616,-5.27568c-0.55507,-1.37463 -1.77174,-2.37763 -2.63252,-3.58459c0,0 -1.4516,-2.0354 0.5838,-3.487c2.0354,-1.4516 3.487,0.5838 3.487,0.5838c0.36445,0.51101 3.03142,4.22148 3.1739,4.55701c0.64578,1.52093 0.42947,3.36679 1.26316,4.7934c2.0249,3.46501 5.51756,5.21641 7.66685,8.48324c0.9318,1.4163 1.32139,3.13282 2.17601,4.59698c0.48105,0.82416 1.36632,1.37482 1.80448,2.22257c0.44494,0.86084 0.32629,1.94688 0.79023,2.79764c0.74997,1.37525 5.10421,2.65943 6.30664,3.55523c3.88418,2.89368 8.23671,5.80115 9.67006,10.60101c0.39899,0.17797 4.97327,2.21761 4.98457,2.22585c4.34381,3.16836 7.86878,7.43801 12.60728,10.21298c2.43794,1.42772 5.15893,2.81038 7.70358,4.08473c1.01016,0.50589 2.21975,0.69918 3.06287,1.45116c0.80452,0.71756 0.9789,1.94213 1.66962,2.76981c1.08175,1.29624 3.58211,3.79518 5.20703,4.3912c1.29261,0.47413 3.51911,-1.02414 4.35758,-0.98649c1.20728,0.0542 2.26614,0.84046 3.39923,1.2607l1.66789,0.43597c0,0 2.41012,0.66434 1.74579,3.07445z" fill="#b43f15" stroke="none" stroke-width="0.5"/><path d="M138.0323,305.99958c-17.26563,-11.5575 -23.03076,-31.49967 -23.85145,-50.68047c1.75478,1.06001 3.5329,2.08632 5.23905,3.21992c16.25329,10.79894 32.37916,21.78872 48.62105,32.6048c8.73255,5.81532 19.0043,8.89608 28.48696,13.38547c0.69945,0.33115 10.58698,4.91526 19.95618,9.57233c-12.20105,12.37125 -35.65963,19.62147 -78.45179,-8.10205z" fill="#fb7c00" stroke="none" stroke-width="0"/></g><g><path d="M254.87007,326.96002c-0.21219,-17.88892 -0.46723,-56.02756 6.69141,-86.59942c13.47609,-60.58857 45.84788,-57.76784 55.48871,-54.72632c15.81758,4.99017 29.14256,22.02275 34.41876,40.76727c6.54306,23.24525 5.81106,51.70641 3.53842,73.94884c-0.2177,2.13066 -4.49171,3.29746 -6.88342,5.47001c-5.67085,5.15123 -13.08462,11.33483 -19.50653,16.14582c-17.8188,13.349 -34.6219,23.82933 -41.09725,22.78975c-8.41052,-1.35026 -17.75052,-3.19865 -24.31852,-5.40487c-9.52641,-3.19997 -8.26284,-6.59494 -8.33159,-12.39105z" fill="#053a20" stroke="none" stroke-width="0"/><path d="M254.87007,326.96002c-0.21219,-17.88892 -0.46723,-56.02756 6.69141,-86.59942c13.47609,-60.58857 45.84788,-57.76784 55.48871,-54.72632c15.81758,4.99017 29.14256,22.02275 34.41876,40.76727c6.33464,22.50479 5.85031,49.89849 3.75072,71.80474c-0.67864,7.08063 -13.1911,13.17678 -21.64055,19.96365c-18.14636,14.57574 -40.43086,27.52085 -47.52305,26.34741c-8.01479,-1.32609 -16.66531,-3.0873 -22.85442,-5.16625c-9.52641,-3.19997 -8.26284,-6.59494 -8.33159,-12.39105z" fill="#053a20" stroke="none" stroke-width="0"/><path d="M254.81114,311.21461c0.14168,-19.78168 1.28688,-47.52156 6.75034,-70.85399c13.47609,-60.58857 45.84788,-57.76784 55.48871,-54.72632c15.81758,4.99017 29.14256,22.02275 34.41876,40.76727c2.8053,9.96626 -2.72671,11.89131 -2.1441,22.87397c0.15591,2.93895 -2.44496,29.62913 -9.16517,49.91118c-5.28192,15.94119 -15.0198,26.777 -15.0198,26.777c0,0 -30.48063,9.53096 -46.91588,6.54507c-18.6017,-3.37947 -23.42628,-19.42101 -23.41287,-21.29417z" fill="#177902" stroke="none" stroke-width="0"/><path d="M270.494,223.83754c6.56679,0.10756 22.38912,1.19321 27.09956,4.83652c4.25999,3.29493 3.68991,15.31779 3.51939,20.13592c-0.08914,2.51894 -2.763,2.51403 -6.23422,3.07763c-4.38212,0.7115 -10.17141,1.15523 -13.93703,1.1648c-4.59993,0.01171 -12.62628,-1.07661 -16.85512,-1.70237c-1.7026,-0.25194 -2.79028,-0.94718 -2.78052,-1.80179c0.03242,-2.83734 0.17962,-9.38192 0.84643,-12.97544c0.51148,-2.75641 1.91281,-8.02094 4.2395,-10.87234c1.10577,-1.35513 2.81212,-1.88405 4.102,-1.86292z" fill="#03391f" stroke="#033a21" stroke-width="6"/><path d="M356.27554,298.2251c0,0 -24.28364,-68.78073 -6.9531,-83.36276c9.00144,-7.57387 25.67267,20.29204 32.21589,32.20682c1.71751,3.12748 -25.26279,51.15594 -25.26279,51.15594z" fill="#03391e" stroke="none" stroke-width="0"/><path d="M254.87007,326.96002c-0.21219,-17.88892 -0.46723,-56.02756 6.69141,-86.59942c13.47609,-60.58857 45.84788,-57.76784 55.48871,-54.72632c15.81758,4.99017 29.14256,22.02275 34.41876,40.76727c5.90378,20.97411 6.78985,46.49643 5.14823,67.59298c-0.08382,1.07715 -0.27089,3.19565 -0.27089,3.19565c0,0 -5.70919,6.44556 -13.14122,13.35406c-6.50855,6.05008 -14.41609,12.37751 -19.93083,16.0786c-5.36056,3.59762 -13.51769,8.97101 -20.91356,12.20569c-8.05535,3.52311 -15.14553,4.75747 -15.14553,4.75747c0,0 -0.49805,1.04145 -1.42826,0.88668c-7.93882,-1.32086 -16.46537,-3.06589 -22.58525,-5.12159c-9.52641,-3.19997 -8.26284,-6.59494 -8.33159,-12.39105z" fill="none" stroke="#000000" stroke-width="4"/><path d="M356.60887,296.55843c0,0 -24.61698,-67.11406 -7.28644,-81.69609c11.36421,-9.56192 34.28643,34.36276 34.28643,34.36276c0,0 -5.32906,14.63362 -13.68543,28.12257c-4.31957,6.97271 -13.31456,19.21076 -13.31456,19.21076z" fill="#053a20" stroke="#000000" stroke-width="4"/><path d="M359.86516,288.62628c-3.45737,-6.19878 -10.71684,-21.20511 -14.47747,-34.7932c-4.79397,-17.32182 -4.46091,-31.90657 3.93475,-38.97074c9.10937,-7.66467 26.07354,20.96536 32.44685,32.62843c1.57758,2.88696 -20.63009,43.41976 -21.90413,41.13552z" fill="#177902" stroke="none" stroke-width="0"/><path d="M356.60887,296.55845c0,0 -24.61698,-67.11406 -7.28644,-81.69609c11.36421,-9.56192 34.28643,34.36276 34.28643,34.36276c0,0 -5.32906,14.63362 -13.68543,28.12257c-4.31957,6.97271 -13.31456,19.21076 -13.31456,19.21076z" fill="none" stroke="#000000" stroke-width="4"/><path d="M266.95421,205.83777c6.89571,0.14806 23.51056,1.64247 28.45693,6.65753c4.47337,4.53551 3.87473,21.08511 3.69567,27.71732c-0.09361,3.46735 -2.90139,3.4606 -6.54648,4.2364c-4.60161,0.97938 -10.68088,1.59018 -14.63511,1.60336c-4.83033,0.01611 -13.25871,-1.48197 -17.69937,-2.34334c-1.78788,-0.3468 -2.93004,-1.3038 -2.91979,-2.48019c0.03404,-3.90563 0.18861,-12.91432 0.88883,-17.86084c0.5371,-3.79422 2.00862,-11.04091 4.45185,-14.96591c1.16115,-1.86536 2.95297,-2.59341 4.30746,-2.56433z" fill="#9966ff" stroke="#000000" stroke-width="6"/><path d="M266.95421,205.83777c6.8957,0.14807 23.51057,1.64247 28.45693,6.65754c4.47337,4.5355 3.87472,21.0851 3.69567,27.71731c-0.09361,3.46735 -2.90139,3.46059 -6.54648,4.2364c-4.60161,0.97938 -10.68088,1.59018 -14.63511,1.60336c-4.83034,0.0161 -13.25871,-1.48198 -17.69937,-2.34334c-1.78788,-0.3468 -2.93004,-1.3038 -2.91978,-2.48019c0.03404,-3.90562 0.18861,-12.91432 0.88883,-17.86085c0.5371,-3.79422 2.00862,-11.04091 4.45185,-14.96591c1.16115,-1.86536 2.95298,-2.59341 4.30747,-2.56432z" fill="#8ec4ce" stroke="none" stroke-width="NaN"/><path d="M298.97354,230.8619c-0.2553,1.78985 -1.3979,6.51952 -9.30009,9.15478c-2.61939,0.87353 -11.4894,1.82898 -19.74009,1.19567c-6.34499,-0.48703 -12.62791,-2.514 -12.62791,-2.514c0,0 0.13639,-6.3467 0.57092,-11.95285c0.36476,-4.70602 1.24048,-7.60052 1.21276,-8.25197c0.04985,-0.00104 6.4991,-0.38964 7.01436,-0.39368c10.505,-0.08235 17.80899,0.1085 22.81581,1.83835c8.55284,2.95498 10.40241,8.48281 10.05424,10.92371z" fill="url(#color-3)" stroke="none" stroke-width="0"/></g><path d="M89,200.69449c0,-83.39499 67.60501,-151 151,-151c71.35052,0 131.14268,49.48724 146.92556,116.01077c2.66426,11.22965 4.07444,22.94475 4.07444,34.98923c0,83.39499 -67.60501,151 -151,151c-83.39499,0 -151,-67.60501 -151,-151z" fill="none" stroke="#417705" stroke-width="5"/></g></g></svg>