<svg version="1.1" xmlns="http://www.w3.org/2000/svg" xmlns:xlink="http://www.w3.org/1999/xlink" width="42.00001" height="44.75" viewBox="0,0,42.00001,44.75"><g transform="translate(-218.99999,-157.375)"><g data-paper-data="{&quot;isPaintingLayer&quot;:true}" fill-rule="nonzero" stroke-linejoin="miter" stroke-miterlimit="10" stroke-dasharray="" stroke-dashoffset="0" style="mix-blend-mode: normal"><path d="M220.75,198.625c0,-4.52692 0,-13.87508 0,-21.71429c0,-5.71431 0,-10.62682 0,-12.28571c0,-1.20083 0.92773,-2.25 2.10715,-2.25c0.29955,0 24.80203,0 33.42857,0c1.84541,0 2.96429,0.88986 2.96429,2.39286c0,7.55799 0,30.62036 0,34c0,1.1323 -0.88963,2.10714 -2.39285,2.10714c-7.38781,0 -29.59614,0 -33.85715,0c-1.40226,0 -2.25,-0.48893 -2.25,-2.25z" fill="#5b5b5b" stroke="#5b5b5b" stroke-width="2.5" stroke-linecap="butt"/><path d="M220.74999,195.375c0,-4.52692 0,-13.87508 0,-21.71429c0,-5.71431 0,-10.62682 0,-12.28571c0,-1.20083 0.92773,-2.25 2.10715,-2.25c0.29955,0 24.80203,0 33.42857,0c1.84541,0 2.96429,0.88986 2.96429,2.39286c0,7.55799 0,30.62036 0,34c0,1.1323 -0.88963,2.10714 -2.39285,2.10714c-7.38781,0 -29.59614,0 -33.85715,0c-1.40226,0 -2.25,-0.48893 -2.25,-2.25z" fill="#969696" stroke="#404040" stroke-width="3.5" stroke-linecap="butt"/><path d="M225.42856,191.08929c0,-5.74743 0,-22.10314 0,-25.28571c0,-1.04926 0.87738,-2 1.85714,-2c2.94835,0 18.03553,0 24.14286,0c1.59006,0 2.57143,1.12021 2.57143,2.42857c0,3.42127 0,18.96827 0,24.71429c0,0.77956 -0.31373,1.37872 -0.87409,1.74272c-0.4004,0.2601 -0.92672,0.40013 -1.55448,0.40013c-6.09762,0 -21.76599,0 -24.57143,0c-0.844,0 -1.57143,-0.74851 -1.57143,-2z" fill="#bdbdbd" stroke="#404040" stroke-width="0" stroke-linecap="butt"/><path d="M239.81066,169.69243c1.76271,0 3.14162,0.62548 4.1367,1.87644c1.17989,1.49263 1.76983,3.96612 1.76983,7.42048c0,3.45436 -0.59705,5.93496 -1.79115,7.4418c-0.98086,1.25096 -2.35267,1.87644 -4.11538,1.87644c-1.77694,0 -3.21269,-0.68234 -4.30729,-2.04703c-1.08038,-1.36469 -1.62056,-3.79553 -1.62056,-7.29253c0,-3.44015 0.59705,-5.91364 1.79115,-7.42048c0.98086,-1.23675 2.35976,-1.85512 4.1367,-1.85512zM239.81066,172.59238c-0.42647,0 -0.81028,0.13505 -1.15145,0.40514c-0.32696,0.27009 -0.58283,0.75342 -0.76763,1.44997c-0.22744,0.89558 -0.34117,2.40953 -0.34117,4.54184c0,2.14654 0.10661,3.61783 0.31984,4.4139c0.21323,0.79607 0.48332,1.32915 0.81028,1.59924c0.32696,0.27009 0.70367,0.40514 1.13013,0.40514c0.41225,0 0.78185,-0.13505 1.10881,-0.40514c0.34117,-0.27009 0.60415,-0.75342 0.78895,-1.44997c0.24167,-0.89558 0.36249,-2.41663 0.36249,-4.56316c0,-2.13232 -0.11372,-3.59651 -0.34117,-4.39258c-0.21323,-0.79607 -0.48332,-1.32915 -0.81028,-1.59924c-0.32696,-0.27009 -0.69656,-0.40514 -1.10881,-0.40514z" fill="#2d2d2d" stroke="none" stroke-width="1" stroke-linecap="square"/></g></g></svg>