<svg version="1.1" xmlns="http://www.w3.org/2000/svg" xmlns:xlink="http://www.w3.org/1999/xlink" width="51.5" height="51.5" viewBox="0,0,51.5,51.5"><g transform="translate(-211.75,-150.95003)"><g data-paper-data="{&quot;isPaintingLayer&quot;:true}" fill-rule="nonzero" stroke-linejoin="miter" stroke-miterlimit="10" stroke-dasharray="" stroke-dashoffset="0" style="mix-blend-mode: normal"><path d="M224.375,180.00004c0,-8.62945 6.99555,-15.625 15.625,-15.625c8.62945,0 15.625,6.99555 15.625,15.625c0,8.62945 -6.99555,15.625 -15.625,15.625c-8.62945,0 -15.625,-6.99555 -15.625,-15.625z" fill="#f07173" stroke="#000000" stroke-width="7.5" stroke-linecap="butt"/><path d="M224.375,180.00001c0,-8.62945 6.99555,-15.625 15.625,-15.625c8.62945,0 15.625,6.99555 15.625,15.625c0,8.62945 -6.99555,15.625 -15.625,15.625c-8.62945,0 -15.625,-6.99555 -15.625,-15.625z" fill="none" stroke="#e7e7e7" stroke-width="3.5" stroke-linecap="butt"/><path d="M211.75,202.45003v-51.5h51.5v51.5z" fill="none" stroke="none" stroke-width="0" stroke-linecap="butt"/><path d="M223.3125,180c0,-9.21625 7.47125,-16.6875 16.6875,-16.6875c9.21625,0 16.6875,7.47125 16.6875,16.6875c0,9.21625 -7.47125,16.6875 -16.6875,16.6875c-9.21625,0 -16.6875,-7.47125 -16.6875,-16.6875z" fill="#f07173" stroke="#cd3400" stroke-width="2" stroke-linecap="butt"/><path d="M230.45993,177.27964c0,-3.52626 2.20984,-6.38486 4.93582,-6.38486c2.72598,0 4.93581,2.8586 4.93581,6.38486c0,3.52626 -2.20984,6.38486 -4.93581,6.38486c-2.72598,0 -4.93582,-2.8586 -4.93582,-6.38486z" fill="none" stroke="#ffffff" stroke-width="2.5" stroke-linecap="butt"/><path d="M243.03767,181.94523c0,0 2.0699,-3.05292 3.98776,-1.33944c2.52329,2.25439 -1.3138,5.34027 -3.0178,6.52562c-0.44708,0.311 4.93004,0.15722 4.93004,0.15722" fill="none" stroke="#ffe0e0" stroke-width="2.5" stroke-linecap="round"/></g></g></svg>