<svg version="1.1" xmlns="http://www.w3.org/2000/svg" xmlns:xlink="http://www.w3.org/1999/xlink" width="134.65536" height="10.38059" viewBox="0,0,134.65536,10.38059"><g transform="translate(-172.67232,-174.8097)"><g data-paper-data="{&quot;isPaintingLayer&quot;:true}" fill="#12ff00" fill-rule="nonzero" stroke="none" stroke-width="1" stroke-linecap="square" stroke-linejoin="miter" stroke-miterlimit="10" stroke-dasharray="" stroke-dashoffset="0" style="mix-blend-mode: normal"><path d="M177.81628,180.43564v-4.69907c0,-0.6179 0.24715,-0.92683 0.74147,-0.92683c0.17301,0 0.32748,0.05253 0.46343,0.15756c0.13594,0.10504 0.21626,0.22863 0.24098,0.37074c0.03089,0.14211 0.04635,0.38618 0.04635,0.7322v5.3015c0,0.38927 -0.01544,0.67968 -0.04635,0.87122c-0.02471,0.18536 -0.10814,0.35837 -0.25024,0.51904c-0.14211,0.16066 -0.35838,0.24098 -0.64879,0.24098c-0.24715,0 -0.4387,-0.0587 -0.57464,-0.1761c-0.13594,-0.12357 -0.34294,-0.39544 -0.62098,-0.81562l-3.00295,-4.56931v4.30053c0,0.34602 -0.01544,0.59009 -0.04635,0.7322c-0.02471,0.13594 -0.10195,0.25951 -0.23172,0.37074c-0.12357,0.10504 -0.27804,0.15756 -0.46342,0.15756c-0.17301,0 -0.32748,-0.04944 -0.46342,-0.1483c-0.12975,-0.09886 -0.21009,-0.22244 -0.24098,-0.37074c-0.03089,-0.15447 -0.04635,-0.40163 -0.04635,-0.74147v-5.34786c0,-0.49432 0.01854,-0.81871 0.05561,-0.97318c0.04325,-0.15447 0.1483,-0.2935 0.31513,-0.41708c0.16683,-0.12975 0.35837,-0.19464 0.57464,-0.19464c0.22244,0 0.39235,0.05253 0.50975,0.15756c0.12357,0.10504 0.32749,0.37383 0.61172,0.80634zM184.67637,182.16882c-0.69822,0.55611 -1.38408,0.83415 -2.05758,0.83415c-0.63643,0 -1.12766,-0.16066 -1.47368,-0.48195c-0.33983,-0.32748 -0.50975,-0.72602 -0.50975,-1.19562c0,-0.40163 0.11431,-0.72602 0.34293,-0.97318c0.2348,-0.24715 0.48813,-0.41708 0.76001,-0.50976c0.27804,-0.09886 0.72602,-0.21317 1.3439,-0.34294c0.6179,-0.12975 1.1153,-0.24716 1.49221,-0.3522c-0.00618,-0.44488 -0.09577,-0.74455 -0.26878,-0.89902c-0.17301,-0.16066 -0.43562,-0.24097 -0.78782,-0.24097c-0.66733,0 -1.10603,0.18845 -1.31611,0.56536c-0.11122,0.21008 -0.21317,0.36147 -0.30585,0.45415c-0.0865,0.0865 -0.21626,0.12975 -0.38927,0.12975c-0.15447,0 -0.29659,-0.04943 -0.42634,-0.14829c-0.12357,-0.10504 -0.18536,-0.23789 -0.18536,-0.39854c0,-0.38309 0.207,-0.74765 0.62098,-1.09367c0.41398,-0.34602 1.06586,-0.51904 1.95562,-0.51904c0.90213,0 1.56018,0.15756 1.97417,0.47269c0.42016,0.30895 0.61789,0.9392 0.59318,1.89075l-0.02781,1.38099c-0.01236,0.42634 0.03089,0.77545 0.12975,1.04732c0.10504,0.27187 0.15756,0.47887 0.15756,0.62098c0,0.15447 -0.07106,0.2935 -0.21317,0.41707c-0.13594,0.1174 -0.28733,0.1761 -0.45415,0.1761c-0.30276,0 -0.62097,-0.27805 -0.95463,-0.83415zM184.58368,180.03709c-0.22244,0.08033 -0.587,0.17301 -1.09367,0.27804c-0.5005,0.09886 -0.85887,0.21317 -1.07513,0.34294c-0.21008,0.12975 -0.31513,0.31822 -0.31513,0.56537c0,0.21626 0.08342,0.40473 0.25025,0.56537c0.17301,0.16066 0.41089,0.24097 0.71366,0.24097c0.32748,0 0.63025,-0.08959 0.90831,-0.26878c0.27804,-0.17919 0.44797,-0.38928 0.50976,-0.63025c0.06796,-0.24715 0.10195,-0.61171 0.10195,-1.09366zM189.49379,181.27905l1.27903,-3.50345c0.12975,-0.3522 0.24715,-0.56846 0.3522,-0.64879c0.11122,-0.0865 0.23789,-0.12975 0.38001,-0.12975c0.19773,0 0.36147,0.06796 0.49123,0.2039c0.12975,0.13594 0.19464,0.27497 0.19464,0.41708c0,0.12975 -0.07415,0.37691 -0.22244,0.74147l-1.42733,3.51272c-0.19154,0.5005 -0.35837,0.81562 -0.50049,0.94537c-0.14211,0.12357 -0.3244,0.18537 -0.54684,0.18537c-0.28423,0 -0.49123,-0.08033 -0.62098,-0.24098c-0.12975,-0.16066 -0.28115,-0.45725 -0.45415,-0.88976l-1.40879,-3.47565c-0.14829,-0.3522 -0.22245,-0.60554 -0.22245,-0.76001c0,-0.15447 0.06797,-0.29968 0.20391,-0.43562c0.13594,-0.13594 0.30276,-0.2039 0.5005,-0.2039c0.22862,0 0.38618,0.06488 0.47268,0.19464c0.09268,0.12357 0.20391,0.36764 0.33366,0.73221zM193.99951,174.8746c0.19154,0 0.35528,0.07106 0.49122,0.21317c0.14211,0.14211 0.21317,0.30895 0.21317,0.50049c0,0.19773 -0.07106,0.36765 -0.21317,0.50976c-0.13594,0.14211 -0.29967,0.21317 -0.49122,0.21317c-0.19773,0 -0.36765,-0.07106 -0.50976,-0.21317c-0.14211,-0.14211 -0.21317,-0.31203 -0.21317,-0.50976c0,-0.19154 0.07106,-0.35838 0.21317,-0.50049c0.14211,-0.14211 0.31203,-0.21317 0.50976,-0.21317zM194.72244,178.20196v3.57759c0,0.3522 -0.01544,0.59317 -0.04635,0.72293c-0.03089,0.12975 -0.11431,0.24715 -0.25024,0.3522c-0.12975,0.09886 -0.27187,0.1483 -0.42634,0.1483c-0.16066,0 -0.30895,-0.04944 -0.44488,-0.1483c-0.13594,-0.09886 -0.22244,-0.21626 -0.25951,-0.3522c-0.03089,-0.13594 -0.04635,-0.37691 -0.04635,-0.72293v-3.55905c0,-0.32748 0.01236,-0.55919 0.03707,-0.69513c0.02471,-0.13594 0.10195,-0.25643 0.23171,-0.36147c0.13594,-0.11122 0.29041,-0.16683 0.46342,-0.16683c0.17301,0 0.32131,0.04943 0.44488,0.14829c0.12975,0.09268 0.21008,0.21317 0.24098,0.36147c0.03707,0.14829 0.05561,0.38 0.05561,0.69513zM200.28874,178.00731v-0.20391c0,-0.26569 0.06488,-0.46651 0.19464,-0.60244c0.13594,-0.13594 0.30586,-0.2039 0.50976,-0.2039c0.22244,0 0.39236,0.08034 0.50976,0.24098c0.12357,0.15447 0.18536,0.49122 0.18536,1.01025v3.95759c0,1.18017 -0.25023,1.97108 -0.75073,2.3727c-0.49432,0.40781 -1.20798,0.61172 -2.14099,0.61172c-0.84033,0 -1.49839,-0.15756 -1.97416,-0.47269c-0.4696,-0.30895 -0.7044,-0.63642 -0.7044,-0.98244c0,-0.18536 0.06179,-0.33675 0.18536,-0.45415c0.12357,-0.11122 0.27187,-0.16683 0.44488,-0.16683c0.15447,0 0.27804,0.03707 0.37074,0.11122c0.09268,0.07415 0.24715,0.25024 0.46343,0.5283c0.22244,0.27804 0.59317,0.41707 1.11221,0.41707c0.29041,0 0.55919,-0.04635 0.80634,-0.13903c0.24715,-0.0865 0.42944,-0.24406 0.54684,-0.47268c0.1174,-0.22862 0.17301,-0.78472 0.16683,-1.66831c-0.45106,0.64879 -1.06895,0.97318 -1.85367,0.97318c-0.75384,0 -1.3501,-0.28115 -1.78881,-0.84342c-0.43253,-0.56228 -0.64878,-1.28521 -0.64878,-2.16879c0,-0.87122 0.22245,-1.56327 0.66733,-2.07612c0.45106,-0.51904 1.03805,-0.77854 1.76099,-0.77854c0.79091,0 1.4366,0.33675 1.9371,1.01026zM197.41555,179.97221c0,0.57464 0.12358,1.01334 0.37074,1.31611c0.25334,0.29659 0.59626,0.44488 1.02879,0.44488c0.37691,0 0.7044,-0.14521 0.98245,-0.43562c0.27804,-0.29041 0.41707,-0.72602 0.41707,-1.30684c0,-0.57464 -0.12975,-1.02879 -0.38927,-1.36245c-0.25334,-0.33366 -0.59626,-0.5005 -1.02879,-0.5005c-0.42016,0 -0.75692,0.15756 -1.01025,0.47269c-0.24715,0.30895 -0.37074,0.76619 -0.37074,1.37171zM206.6144,182.16882c-0.69822,0.55611 -1.38407,0.83415 -2.05758,0.83415c-0.63643,0 -1.12765,-0.16066 -1.47367,-0.48195c-0.33983,-0.32748 -0.50976,-0.72602 -0.50976,-1.19562c0,-0.40163 0.11431,-0.72602 0.34293,-0.97318c0.2348,-0.24715 0.48813,-0.41708 0.76001,-0.50976c0.27804,-0.09886 0.72603,-0.21317 1.34391,-0.34294c0.6179,-0.12975 1.1153,-0.24716 1.4922,-0.3522c-0.00618,-0.44488 -0.09577,-0.74455 -0.26878,-0.89902c-0.17301,-0.16066 -0.43561,-0.24097 -0.78781,-0.24097c-0.66733,0 -1.10604,0.18845 -1.31612,0.56536c-0.11122,0.21008 -0.21317,0.36147 -0.30585,0.45415c-0.0865,0.0865 -0.21626,0.12975 -0.38927,0.12975c-0.15447,0 -0.29659,-0.04943 -0.42634,-0.14829c-0.12357,-0.10504 -0.18536,-0.23789 -0.18536,-0.39854c0,-0.38309 0.20699,-0.74765 0.62098,-1.09367c0.41398,-0.34602 1.06586,-0.51904 1.95563,-0.51904c0.90213,0 1.56018,0.15756 1.97416,0.47269c0.42016,0.30895 0.61789,0.9392 0.59317,1.89075l-0.0278,1.38099c-0.01236,0.42634 0.03089,0.77545 0.12975,1.04732c0.10504,0.27187 0.15756,0.47887 0.15756,0.62098c0,0.15447 -0.07106,0.2935 -0.21317,0.41707c-0.13594,0.1174 -0.28732,0.1761 -0.45415,0.1761c-0.30276,0 -0.62098,-0.27805 -0.95464,-0.83415zM206.52172,180.03709c-0.22244,0.08033 -0.587,0.17301 -1.09367,0.27804c-0.5005,0.09886 -0.85886,0.21317 -1.07512,0.34294c-0.21008,0.12975 -0.31513,0.31822 -0.31513,0.56537c0,0.21626 0.08342,0.40473 0.25024,0.56537c0.17301,0.16066 0.4109,0.24097 0.71366,0.24097c0.32748,0 0.63025,-0.08959 0.90831,-0.26878c0.27804,-0.17919 0.44796,-0.38928 0.50975,-0.63025c0.06796,-0.24715 0.10195,-0.61171 0.10195,-1.09366zM209.42986,177.12683v-0.88049c0,-0.36455 0.01544,-0.61172 0.04635,-0.74147c0.03089,-0.13594 0.11122,-0.25334 0.24097,-0.3522c0.12975,-0.10504 0.28115,-0.15756 0.45415,-0.15756c0.15447,0 0.29659,0.04635 0.42634,0.13903c0.12975,0.09268 0.21317,0.207 0.25024,0.34294c0.04325,0.13594 0.06488,0.35219 0.06488,0.64879v1.00098h0.28732c0.35837,0 0.59626,0.04635 0.71366,0.13903c0.1174,0.0865 0.1761,0.21317 0.1761,0.38c0,0.36455 -0.30276,0.54684 -0.9083,0.54684h-0.26878v2.7249c0,0.37074 0.02472,0.62407 0.07415,0.76001c0.05561,0.12975 0.19464,0.19464 0.41708,0.19464c0.11122,0 0.23171,-0.01545 0.36147,-0.04635c0.13594,-0.03089 0.23789,-0.04634 0.30585,-0.04634c0.14829,0 0.26878,0.04943 0.36146,0.14829c0.09268,0.09268 0.13903,0.20699 0.13903,0.34293c0,0.48813 -0.50976,0.7322 -1.52929,0.7322c-0.49432,0 -0.85886,-0.09268 -1.09366,-0.27804c-0.22862,-0.18536 -0.37383,-0.40781 -0.43562,-0.66733c-0.05561,-0.26569 -0.08342,-0.60863 -0.08342,-1.0288v-2.83612h-0.19464c-0.43253,0 -0.64879,-0.1761 -0.64879,-0.5283c0,-0.35837 0.22862,-0.53757 0.68586,-0.53757zM213.85719,174.8746c0.19154,0 0.35529,0.07106 0.49123,0.21317c0.14211,0.14211 0.21317,0.30895 0.21317,0.50049c0,0.19773 -0.07106,0.36765 -0.21317,0.50976c-0.13594,0.14211 -0.29968,0.21317 -0.49123,0.21317c-0.19773,0 -0.36765,-0.07106 -0.50976,-0.21317c-0.14211,-0.14211 -0.21317,-0.31203 -0.21317,-0.50976c0,-0.19154 0.07106,-0.35838 0.21317,-0.50049c0.14211,-0.14211 0.31203,-0.21317 0.50976,-0.21317zM214.58012,178.20196v3.57759c0,0.3522 -0.01544,0.59317 -0.04635,0.72293c-0.03089,0.12975 -0.11431,0.24715 -0.25024,0.3522c-0.12975,0.09886 -0.27187,0.1483 -0.42634,0.1483c-0.16066,0 -0.30895,-0.04944 -0.44488,-0.1483c-0.13594,-0.09886 -0.22245,-0.21626 -0.25952,-0.3522c-0.03089,-0.13594 -0.04635,-0.37691 -0.04635,-0.72293v-3.55905c0,-0.32748 0.01236,-0.55919 0.03707,-0.69513c0.02471,-0.13594 0.10195,-0.25643 0.23171,-0.36147c0.13594,-0.11122 0.29041,-0.16683 0.46343,-0.16683c0.17301,0 0.3213,0.04943 0.44488,0.14829c0.12975,0.09268 0.21008,0.21317 0.24098,0.36147c0.03707,0.14829 0.05561,0.38 0.05561,0.69513zM218.68201,176.99706c0.91448,0 1.63432,0.28424 2.15953,0.8527c0.52521,0.56228 0.78781,1.27903 0.78781,2.15026c0,0.87741 -0.26569,1.59725 -0.79708,2.15953c-0.53139,0.56228 -1.23578,0.84343 -2.11318,0.84343c-0.95155,0 -1.68685,-0.28423 -2.20588,-0.85269c-0.51284,-0.57464 -0.76927,-1.29139 -0.76927,-2.15026c0,-0.87741 0.26261,-1.59725 0.78781,-2.15953c0.52521,-0.56228 1.24196,-0.84343 2.15026,-0.84343zM218.68201,181.90003c0.45106,0 0.80635,-0.16683 1.06587,-0.50049c0.25951,-0.33983 0.38927,-0.80634 0.38927,-1.39952c0,-0.59935 -0.12976,-1.06586 -0.38927,-1.39952c-0.25951,-0.33983 -0.6148,-0.50976 -1.06587,-0.50976c-0.4387,0 -0.7909,0.16993 -1.05659,0.50976c-0.25951,0.33983 -0.38927,0.80634 -0.38927,1.39952c0,0.59935 0.12976,1.06586 0.38927,1.39952c0.26569,0.33366 0.61789,0.50049 1.05659,0.50049zM227.99841,179.3605v2.41905c0,0.31513 -0.01544,0.54374 -0.04635,0.68586c-0.02471,0.14211 -0.10195,0.26878 -0.23171,0.38c-0.12357,0.10504 -0.27496,0.15756 -0.45415,0.15756c-0.16066,0 -0.30895,-0.04635 -0.44488,-0.13903c-0.13594,-0.09886 -0.22245,-0.22553 -0.25952,-0.38c-0.03089,-0.15447 -0.04635,-0.38926 -0.04635,-0.7044v-2.12246c0,-0.59318 -0.08959,-0.99172 -0.26878,-1.19562c-0.17301,-0.2039 -0.414,-0.30586 -0.72294,-0.30586c-0.27804,0 -0.52521,0.08033 -0.74147,0.24097c-0.21008,0.16066 -0.35838,0.36456 -0.44488,0.61172c-0.0865,0.24097 -0.12975,0.65496 -0.12975,1.24196v1.52929c0,0.30895 -0.01236,0.53448 -0.03707,0.67659c-0.02471,0.13594 -0.10504,0.2626 -0.24097,0.38c-0.12975,0.11122 -0.28115,0.16684 -0.45415,0.16684c-0.16066,0 -0.30895,-0.04944 -0.44488,-0.1483c-0.13594,-0.09886 -0.21935,-0.22244 -0.25024,-0.37074c-0.03089,-0.14829 -0.04635,-0.38309 -0.04635,-0.7044v-3.64247c0,-0.32748 0.01544,-0.5561 0.04635,-0.68586c0.03089,-0.12975 0.10814,-0.23789 0.23171,-0.3244c0.12975,-0.0865 0.27187,-0.12975 0.42634,-0.12975c0.14211,0 0.29041,0.0587 0.44488,0.1761c0.16066,0.11122 0.24097,0.38619 0.24097,0.82489c0.48813,-0.66733 1.12147,-1.00099 1.90001,-1.00099c0.2966,0 0.58701,0.0587 0.87123,0.1761c0.29041,0.11122 0.52521,0.2935 0.7044,0.54684c0.18536,0.24715 0.29659,0.50358 0.33366,0.76927c0.04325,0.26569 0.06488,0.55611 0.06488,0.87123zM230.4562,176.99706c0.21626,0 0.40472,0.08034 0.56537,0.24098c0.16066,0.16066 0.24098,0.3491 0.24098,0.56536c0,0.22862 -0.08033,0.42325 -0.24098,0.58391c-0.16066,0.16066 -0.34911,0.24098 -0.56537,0.24098c-0.22862,0 -0.42325,-0.08034 -0.58391,-0.24098c-0.16066,-0.16066 -0.24098,-0.35529 -0.24098,-0.58391c0,-0.21626 0.08034,-0.40472 0.24098,-0.56536c0.16066,-0.16066 0.35529,-0.24098 0.58391,-0.24098zM230.4562,181.37174c0.21626,0 0.40472,0.08033 0.56537,0.24097c0.16066,0.15447 0.24098,0.34294 0.24098,0.56537c0,0.22244 -0.08033,0.41708 -0.24098,0.58391c-0.16066,0.16066 -0.34911,0.24098 -0.56537,0.24098c-0.22862,0 -0.42325,-0.08033 -0.58391,-0.24098c-0.16066,-0.16066 -0.24098,-0.35529 -0.24098,-0.58391c0,-0.22244 0.08034,-0.4109 0.24098,-0.56537c0.16066,-0.16066 0.35529,-0.24097 0.58391,-0.24097zM242.37698,179.66634c0.19154,0 0.35838,0.06488 0.50049,0.19464c0.14211,0.12975 0.21317,0.29659 0.21317,0.5005c0,0.56846 -0.28732,1.15237 -0.86196,1.75171c-0.56846,0.59318 -1.37171,0.88977 -2.40978,0.88977c-1.27285,0 -2.2275,-0.39544 -2.86393,-1.18635c-0.63025,-0.79091 -0.94537,-1.7579 -0.94537,-2.901c0,-1.23578 0.3522,-2.22749 1.0566,-2.97515c0.7044,-0.75384 1.62196,-1.13074 2.7527,-1.13074c0.97627,0 1.75789,0.27187 2.34489,0.81562c0.59317,0.53757 0.88976,1.06896 0.88976,1.59417c0,0.16683 -0.06487,0.32439 -0.19464,0.47268c-0.12358,0.14211 -0.2935,0.21317 -0.50976,0.21317c-0.19154,0 -0.33983,-0.05253 -0.44488,-0.15756c-0.09886,-0.11122 -0.2348,-0.32748 -0.40781,-0.64879c-0.17301,-0.32748 -0.4109,-0.57773 -0.71366,-0.75073c-0.29659,-0.17919 -0.62098,-0.26878 -0.97318,-0.26878c-0.66733,0 -1.19562,0.25024 -1.5849,0.75073c-0.38927,0.5005 -0.58391,1.21724 -0.58391,2.15026c0,0.92684 0.19154,1.61578 0.57464,2.06685c0.38309,0.45106 0.90213,0.6766 1.55709,0.6766c0.92065,0 1.54164,-0.45106 1.86294,-1.35318c0.11122,-0.29659 0.22553,-0.48813 0.34293,-0.57464c0.1174,-0.0865 0.25024,-0.12976 0.39854,-0.12976zM249.64189,179.27708v2.68783c0,0.69204 -0.25024,1.03806 -0.75073,1.03806c-0.22863,0 -0.40781,-0.07415 -0.53757,-0.22245c-0.12358,-0.14829 -0.18536,-0.42016 -0.18536,-0.81562v-2.35417c0,-0.55611 -0.08959,-0.93611 -0.26878,-1.14002c-0.17301,-0.21008 -0.42016,-0.31513 -0.74147,-0.31513c-0.27805,0 -0.52213,0.07724 -0.73221,0.23171c-0.20391,0.15447 -0.34911,0.34602 -0.43561,0.57464c-0.0865,0.22244 -0.12975,0.61789 -0.12975,1.18635v1.71465c0,0.45725 -0.06797,0.7631 -0.20391,0.91757c-0.12975,0.14829 -0.31203,0.22244 -0.54683,0.22244c-0.22244,0 -0.39853,-0.07415 -0.5283,-0.22244c-0.12975,-0.14829 -0.19464,-0.44797 -0.19464,-0.89903v-5.85761c0,-0.35837 0.01544,-0.60554 0.04634,-0.74147c0.03707,-0.14211 0.11431,-0.25643 0.23171,-0.34293c0.12358,-0.0865 0.26878,-0.12975 0.43562,-0.12975c0.19154,0 0.34911,0.04943 0.47269,0.14829c0.12358,0.09886 0.20082,0.22863 0.23171,0.38927c0.03707,0.16066 0.05561,0.42634 0.05561,0.79708v1.75172c0.49431,-0.59935 1.09366,-0.89903 1.79807,-0.89903c0.59317,0 1.07203,0.18536 1.4366,0.55611c0.36455,0.36455 0.54684,0.9392 0.54684,1.72392zM254.82458,182.16882c-0.69822,0.55611 -1.38408,0.83415 -2.05759,0.83415c-0.63642,0 -1.12765,-0.16066 -1.47367,-0.48195c-0.33983,-0.32748 -0.50976,-0.72602 -0.50976,-1.19562c0,-0.40163 0.11431,-0.72602 0.34294,-0.97318c0.2348,-0.24715 0.48813,-0.41708 0.76001,-0.50976c0.27805,-0.09886 0.72603,-0.21317 1.34391,-0.34294c0.61789,-0.12975 1.11529,-0.24716 1.4922,-0.3522c-0.00617,-0.44488 -0.09577,-0.74455 -0.26878,-0.89902c-0.17301,-0.16066 -0.43562,-0.24097 -0.78782,-0.24097c-0.66733,0 -1.10603,0.18845 -1.31611,0.56536c-0.11122,0.21008 -0.21318,0.36147 -0.30586,0.45415c-0.0865,0.0865 -0.21626,0.12975 -0.38927,0.12975c-0.15447,0 -0.29658,-0.04943 -0.42634,-0.14829c-0.12358,-0.10504 -0.18536,-0.23789 -0.18536,-0.39854c0,-0.38309 0.207,-0.74765 0.62098,-1.09367c0.41399,-0.34602 1.06586,-0.51904 1.95562,-0.51904c0.90213,0 1.56018,0.15756 1.97417,0.47269c0.42016,0.30895 0.61789,0.9392 0.59317,1.89075l-0.02781,1.38099c-0.01236,0.42634 0.03089,0.77545 0.12975,1.04732c0.10505,0.27187 0.15756,0.47887 0.15756,0.62098c0,0.15447 -0.07106,0.2935 -0.21317,0.41707c-0.13594,0.1174 -0.28732,0.1761 -0.45414,0.1761c-0.30277,0 -0.62098,-0.27805 -0.95464,-0.83415zM254.7319,180.03709c-0.22244,0.08033 -0.587,0.17301 -1.09366,0.27804c-0.5005,0.09886 -0.85887,0.21317 -1.07513,0.34294c-0.21008,0.12975 -0.31513,0.31822 -0.31513,0.56537c0,0.21626 0.08342,0.40473 0.25024,0.56537c0.17301,0.16066 0.41089,0.24097 0.71366,0.24097c0.32748,0 0.63025,-0.08959 0.9083,-0.26878c0.27805,-0.17919 0.44797,-0.38928 0.50976,-0.63025c0.06797,-0.24715 0.10195,-0.61171 0.10195,-1.09366zM257.66553,181.77955v-3.7815c0,-0.66733 0.24407,-1.00099 0.73221,-1.00099c0.46342,0 0.70131,0.30895 0.71366,0.92684c0.30277,-0.6179 0.72602,-0.92684 1.26977,-0.92684c0.28424,0 0.57773,0.07725 0.8805,0.23172c0.30277,0.14829 0.45415,0.3522 0.45415,0.61172c0,0.17919 -0.06179,0.32748 -0.18537,0.44488c-0.1174,0.1174 -0.24715,0.1761 -0.38927,0.1761c-0.08033,0 -0.22554,-0.0309 -0.43562,-0.09269c-0.20391,-0.06796 -0.37692,-0.10195 -0.51903,-0.10195c-0.3522,0 -0.61481,0.17919 -0.78782,0.53757c-0.17301,0.35837 -0.25951,1.04732 -0.25951,2.06685v0.8527c0,0.37691 -0.01544,0.63025 -0.04635,0.76001c-0.03089,0.12975 -0.11122,0.25024 -0.24097,0.36146c-0.12975,0.10504 -0.27805,0.15756 -0.44488,0.15756c-0.16066,0 -0.30585,-0.04635 -0.43561,-0.13903c-0.12975,-0.09886 -0.21317,-0.21317 -0.25025,-0.34293c-0.03707,-0.13594 -0.05561,-0.38309 -0.05561,-0.74147zM262.89791,177.12683v-0.88049c0,-0.36455 0.01544,-0.61172 0.04635,-0.74147c0.03089,-0.13594 0.11122,-0.25334 0.24097,-0.3522c0.12975,-0.10504 0.28115,-0.15756 0.45415,-0.15756c0.15447,0 0.29658,0.04635 0.42634,0.13903c0.12975,0.09268 0.21317,0.207 0.25025,0.34294c0.04325,0.13594 0.06487,0.35219 0.06487,0.64879v1.00098h0.28732c0.35838,0 0.59627,0.04635 0.71366,0.13903c0.1174,0.0865 0.1761,0.21317 0.1761,0.38c0,0.36455 -0.30277,0.54684 -0.90831,0.54684h-0.26878v2.7249c0,0.37074 0.02472,0.62407 0.07415,0.76001c0.05561,0.12975 0.19464,0.19464 0.41708,0.19464c0.11122,0 0.23171,-0.01545 0.36146,-0.04635c0.13594,-0.03089 0.23789,-0.04634 0.30586,-0.04634c0.1483,0 0.26879,0.04943 0.36147,0.14829c0.09268,0.09268 0.13903,0.20699 0.13903,0.34293c0,0.48813 -0.50976,0.7322 -1.52929,0.7322c-0.49431,0 -0.85886,-0.09268 -1.09366,-0.27804c-0.22863,-0.18536 -0.37383,-0.40781 -0.43561,-0.66733c-0.05561,-0.26569 -0.08342,-0.60863 -0.08342,-1.0288v-2.83612h-0.19464c-0.43253,0 -0.64879,-0.1761 -0.64879,-0.5283c0,-0.35837 0.22862,-0.53757 0.68586,-0.53757zM276.01404,179.66634c0.19154,0 0.35838,0.06488 0.5005,0.19464c0.14211,0.12975 0.21317,0.29659 0.21317,0.5005c0,0.56846 -0.28733,1.15237 -0.86196,1.75171c-0.56846,0.59318 -1.37171,0.88977 -2.40978,0.88977c-1.27285,0 -2.22749,-0.39544 -2.86393,-1.18635c-0.63025,-0.79091 -0.94537,-1.7579 -0.94537,-2.901c0,-1.23578 0.35219,-2.22749 1.0566,-2.97515c0.7044,-0.75384 1.62196,-1.13074 2.7527,-1.13074c0.97627,0 1.7579,0.27187 2.3449,0.81562c0.59317,0.53757 0.88977,1.06896 0.88977,1.59417c0,0.16683 -0.06488,0.32439 -0.19465,0.47268c-0.12358,0.14211 -0.2935,0.21317 -0.50975,0.21317c-0.19154,0 -0.33983,-0.05253 -0.44488,-0.15756c-0.09886,-0.11122 -0.2348,-0.32748 -0.40781,-0.64879c-0.17301,-0.32748 -0.4109,-0.57773 -0.71366,-0.75073c-0.29659,-0.17919 -0.62098,-0.26878 -0.97318,-0.26878c-0.66733,0 -1.19562,0.25024 -1.5849,0.75073c-0.38927,0.5005 -0.58391,1.21724 -0.58391,2.15026c0,0.92684 0.19154,1.61578 0.57463,2.06685c0.3831,0.45106 0.90213,0.6766 1.55709,0.6766c0.92066,0 1.54164,-0.45106 1.86294,-1.35318c0.11122,-0.29659 0.22553,-0.48813 0.34293,-0.57464c0.1174,-0.0865 0.25024,-0.12976 0.39854,-0.12976zM280.6282,176.99706c0.91448,0 1.63432,0.28424 2.15953,0.8527c0.52521,0.56228 0.78782,1.27903 0.78782,2.15026c0,0.87741 -0.2657,1.59725 -0.79708,2.15953c-0.53139,0.56228 -1.23578,0.84343 -2.11318,0.84343c-0.95155,0 -1.68684,-0.28423 -2.20587,-0.85269c-0.51285,-0.57464 -0.76927,-1.29139 -0.76927,-2.15026c0,-0.87741 0.26261,-1.59725 0.78782,-2.15953c0.52521,-0.56228 1.24196,-0.84343 2.15026,-0.84343zM280.6282,181.90003c0.45106,0 0.80635,-0.16683 1.06586,-0.50049c0.25952,-0.33983 0.38927,-0.80634 0.38927,-1.39952c0,-0.59935 -0.12975,-1.06586 -0.38927,-1.39952c-0.25952,-0.33983 -0.6148,-0.50976 -1.06586,-0.50976c-0.43871,0 -0.79091,0.16993 -1.0566,0.50976c-0.25952,0.33983 -0.38927,0.80634 -0.38927,1.39952c0,0.59935 0.12975,1.06586 0.38927,1.39952c0.26569,0.33366 0.61789,0.50049 1.0566,0.50049zM284.69869,180.80637v-2.58587c0,-0.3213 0.01237,-0.55302 0.03707,-0.69513c0.02472,-0.14211 0.09886,-0.2657 0.22244,-0.37074c0.12975,-0.10504 0.28424,-0.15756 0.46343,-0.15756c0.17301,0 0.32439,0.04943 0.45414,0.14829c0.13594,0.09886 0.21934,0.22863 0.25024,0.38927c0.03089,0.15447 0.04635,0.39236 0.04635,0.71366v2.02978c0,0.66733 0.10195,1.09367 0.30585,1.27904c0.21008,0.18536 0.4387,0.27804 0.68586,0.27804c0.28424,0 0.53139,-0.08033 0.74147,-0.24097c0.21626,-0.16066 0.36147,-0.3522 0.43562,-0.57464c0.08033,-0.22862 0.12049,-0.67351 0.12049,-1.33465v-1.4644c0,-0.31513 0.01544,-0.54684 0.04635,-0.69513c0.03089,-0.14829 0.11122,-0.27187 0.24097,-0.37074c0.12975,-0.10504 0.28423,-0.15756 0.46342,-0.15756c0.16683,0 0.31513,0.04944 0.44488,0.1483c0.13594,0.09886 0.21626,0.22244 0.24097,0.37074c0.03089,0.14211 0.04635,0.37692 0.04635,0.7044v3.64247c0,0.29659 -0.01544,0.51284 -0.04635,0.64879c-0.03089,0.12975 -0.10195,0.24406 -0.21317,0.34293c-0.11122,0.09886 -0.25334,0.1483 -0.42634,0.1483c-0.47577,0 -0.7044,-0.34294 -0.68586,-1.02879c-0.49431,0.68586 -1.14619,1.02879 -1.95562,1.02879c-0.53139,0 -0.98553,-0.16066 -1.36245,-0.48195c-0.37074,-0.3213 -0.55611,-0.89285 -0.55611,-1.71465zM291.41067,181.77955v-3.7815c0,-0.66733 0.24407,-1.00099 0.73221,-1.00099c0.46342,0 0.7013,0.30895 0.71366,0.92684c0.30277,-0.6179 0.72603,-0.92684 1.26977,-0.92684c0.28424,0 0.57773,0.07725 0.88049,0.23172c0.30277,0.14829 0.45415,0.3522 0.45415,0.61172c0,0.17919 -0.06179,0.32748 -0.18537,0.44488c-0.1174,0.1174 -0.24715,0.1761 -0.38927,0.1761c-0.08033,0 -0.22554,-0.0309 -0.43562,-0.09269c-0.20391,-0.06796 -0.37691,-0.10195 -0.51903,-0.10195c-0.3522,0 -0.61481,0.17919 -0.78782,0.53757c-0.17301,0.35837 -0.25952,1.04732 -0.25952,2.06685v0.8527c0,0.37691 -0.01544,0.63025 -0.04634,0.76001c-0.03089,0.12975 -0.11122,0.25024 -0.24097,0.36146c-0.12975,0.10504 -0.27805,0.15756 -0.44488,0.15756c-0.16066,0 -0.30585,-0.04635 -0.43562,-0.13903c-0.12975,-0.09886 -0.21317,-0.21317 -0.25024,-0.34293c-0.03707,-0.13594 -0.05561,-0.38309 -0.05561,-0.74147zM297.11265,178.53561c0,0.19154 0.09886,0.34293 0.29658,0.45414c0.19773,0.10504 0.63952,0.24098 1.32538,0.40781c1.34082,0.32748 2.01123,0.88359 2.01123,1.6683c0,0.62407 -0.22553,1.10293 -0.67659,1.4366c-0.45106,0.33366 -1.0813,0.5005 -1.89075,0.5005c-0.8218,0 -1.44277,-0.16993 -1.86294,-0.50976c-0.41399,-0.33983 -0.62098,-0.69822 -0.62098,-1.07513c0,-0.16066 0.05561,-0.29967 0.16683,-0.41707c0.1174,-0.1174 0.26261,-0.1761 0.43562,-0.1761c0.22863,0 0.42944,0.14521 0.60244,0.43562c0.19773,0.31513 0.41089,0.52521 0.63952,0.63025c0.2348,0.09886 0.48813,0.14829 0.76001,0.14829c0.29041,0 0.5283,-0.06488 0.71366,-0.19464c0.18536,-0.12975 0.27805,-0.29659 0.27805,-0.50049c0,-0.18536 -0.07724,-0.34294 -0.23171,-0.47269c-0.15447,-0.13594 -0.58391,-0.28423 -1.28831,-0.44488c-0.69822,-0.16066 -1.20798,-0.38619 -1.52929,-0.6766c-0.3213,-0.29041 -0.48195,-0.63642 -0.48195,-1.03805c0,-0.45106 0.19464,-0.8496 0.58391,-1.19562c0.39544,-0.34602 0.98244,-0.51904 1.76099,-0.51904c0.71675,0 1.28831,0.14829 1.71465,0.44488c0.42634,0.29041 0.63952,0.59317 0.63952,0.9083c0,0.16066 -0.05561,0.29968 -0.16683,0.41708c-0.10505,0.11122 -0.25334,0.16683 -0.44488,0.16683c-0.28424,0 -0.54065,-0.16373 -0.76927,-0.49122c-0.22863,-0.32748 -0.57464,-0.49123 -1.03806,-0.49123c-0.24716,0 -0.46342,0.05253 -0.64879,0.15756c-0.18536,0.09886 -0.27805,0.24098 -0.27805,0.42634zM306.10425,180.36149h-2.89174c0.01236,0.54993 0.16066,0.96391 0.44488,1.24196c0.29041,0.27804 0.63642,0.41708 1.03806,0.41708c0.49431,0 0.95772,-0.21625 1.39025,-0.64879c0.17919,-0.17919 0.30895,-0.29041 0.38927,-0.33366c0.0865,-0.04325 0.18228,-0.06488 0.28733,-0.06488c0.13594,0 0.25023,0.04324 0.34293,0.12975c0.09268,0.08033 0.13903,0.18228 0.13903,0.30586c0,0.32748 -0.22553,0.67659 -0.67659,1.04732c-0.45106,0.36455 -1.06586,0.54684 -1.8444,0.54684c-0.98862,0 -1.73936,-0.27805 -2.25221,-0.83415c-0.50667,-0.56228 -0.76001,-1.28521 -0.76001,-2.16879c0,-0.89594 0.25334,-1.61888 0.76001,-2.16879c0.51285,-0.55611 1.22342,-0.83416 2.13172,-0.83416c0.87122,0 1.54164,0.26261 2.01124,0.78782c0.47577,0.52521 0.71366,1.09366 0.71366,1.70538c0,0.26569 -0.08034,0.47886 -0.24098,0.63952c-0.15447,0.15447 -0.48195,0.23171 -0.98244,0.23171zM303.21253,179.52733h2.68782c-0.01854,-0.49432 -0.15447,-0.86813 -0.40781,-1.12147c-0.25334,-0.25951 -0.56537,-0.38927 -0.93611,-0.38927c-0.77854,0 -1.22652,0.50358 -1.34391,1.51074z"/></g></g></svg>