<svg version="1.1" xmlns="http://www.w3.org/2000/svg" xmlns:xlink="http://www.w3.org/1999/xlink" width="138.40044" height="32.69242" viewBox="0,0,138.40044,32.69242"><g transform="translate(-170.79978,-163.65379)"><g data-paper-data="{&quot;isPaintingLayer&quot;:true}" fill="#ffffff" fill-rule="nonzero" stroke="none" stroke-width="1" stroke-linecap="square" stroke-linejoin="miter" stroke-miterlimit="10" stroke-dasharray="" stroke-dashoffset="0" style="mix-blend-mode: normal"><path d="M179.73673,196.34621c-1.65499,0 -3.15721,-0.42011 -4.50666,-1.26034c-1.34946,-0.84022 -2.43157,-1.96053 -3.24633,-3.3609c-0.78931,-1.40037 -1.18395,-2.96625 -1.18395,-4.69763l0.07638,-14.20746c0,-1.68045 0.38193,-3.20813 1.14577,-4.58305c0.78931,-1.37492 1.85868,-2.48248 3.20813,-3.32271c1.34946,-0.84022 2.85168,-1.26034 4.50666,-1.26034c1.68045,0 3.18267,0.40738 4.50666,1.22215c1.34946,0.81476 2.41883,1.92234 3.20813,3.32271c0.78931,1.37492 1.18395,2.91532 1.18395,4.62124v2.10057c0,0.1273 -0.05092,0.19096 -0.15276,0.19096h-5.11774c-0.12731,0 -0.19096,-0.06366 -0.19096,-0.19096v-2.10057c0,-1.01845 -0.331,-1.88414 -0.993,-2.59706c-0.63654,-0.73838 -1.4513,-1.10757 -2.44429,-1.10757c-1.09484,0 -1.93507,0.38192 -2.52068,1.14576c-0.56015,0.73838 -0.84023,1.59133 -0.84023,2.55887v14.20746c0,1.14576 0.31827,2.06237 0.9548,2.74983c0.66199,0.68746 1.46403,1.03119 2.4061,1.03119c0.993,0 1.80776,-0.38192 2.44429,-1.14576c0.66199,-0.76384 0.993,-1.64226 0.993,-2.63525v-2.10057c0,-0.10185 0.06366,-0.15276 0.19096,-0.15276h5.15593c0.10184,0 0.15277,0.05092 0.15277,0.15276v2.10057c0,1.73137 -0.40739,3.29725 -1.22215,4.69763c-0.78931,1.40037 -1.85868,2.52068 -3.20813,3.3609c-1.32399,0.84023 -2.82621,1.26034 -4.50666,1.26034zM190.32728,195.65876l5.65243,-31.31751c0.02546,-0.1273 0.10184,-0.19097 0.22915,-0.19097h6.60724c0.12731,0 0.20369,0.06366 0.22915,0.19097l5.42328,31.31751c0.05093,0.15277 0,0.22915 -0.15277,0.22915h-5.07955c-0.12731,0 -0.20369,-0.07638 -0.22915,-0.22915l-0.4965,-3.32271h-6.18712l-0.53469,3.32271c-0.02546,0.15277 -0.10185,0.22915 -0.22915,0.22915h-5.04136c-0.12731,0 -0.19096,-0.07638 -0.19096,-0.22915zM197.20185,187.44746h4.39209l-1.87141,-12.79435l-0.26734,-1.71865l-0.19096,1.71865zM211.55589,195.88791c-0.12731,0 -0.19096,-0.07638 -0.19096,-0.22915l0.07638,-31.31751c0,-0.1273 0.06365,-0.19097 0.19096,-0.19097h5.57605c0.10184,0 0.20369,0.06366 0.30553,0.19097l4.16294,5.99615l4.12474,-5.99615c0.10184,-0.1273 0.21642,-0.19097 0.34373,-0.19097h5.57605c0.12731,0 0.19096,0.06366 0.19096,0.19097l0.11458,31.31751c0,0.15277 -0.06366,0.22915 -0.19096,0.22915h-5.15593c-0.12731,0 -0.19096,-0.07638 -0.19096,-0.22915l-0.03819,-23.25898l-4.77401,6.95095l-4.77401,-6.95095l-0.03819,23.25898c0,0.15277 -0.06365,0.22915 -0.19096,0.22915zM236.04388,195.88791c-0.12731,0 -0.19096,-0.07638 -0.19096,-0.22915l0.03819,-31.31751c0,-0.1273 0.06366,-0.19097 0.19096,-0.19097h14.62757c0.12731,0 0.19096,0.07639 0.19096,0.22915v5.11774c0,0.10184 -0.06365,0.15276 -0.19096,0.15276h-9.35706v7.14192h9.35706c0.12731,0 0.19096,0.05092 0.19096,0.15277l0.0382,5.15593c0,0.1273 -0.06366,0.19097 -0.19097,0.19097h-9.39525v7.98215h9.39525c0.12731,0 0.19097,0.07638 0.19097,0.22915v5.19413c0,0.1273 -0.06366,0.19096 -0.19097,0.19096zM255.19646,195.88791c-0.1273,0 -0.19096,-0.07638 -0.19096,-0.22915l0.07639,-31.31751c0,-0.1273 0.06365,-0.19097 0.19096,-0.19097h9.20429c1.65499,0 3.16994,0.40739 4.54486,1.22215c1.37491,0.78931 2.46976,1.87141 3.28452,3.24633c0.84022,1.34945 1.26034,2.86441 1.26034,4.54486c0,1.14577 -0.17823,2.16422 -0.53469,3.05537c-0.331,0.89115 -0.72565,1.65499 -1.18395,2.29153c-0.43284,0.61107 -0.84023,1.06938 -1.22215,1.37491c1.65499,1.83322 2.48248,3.97197 2.48248,6.41627l0.03819,9.35706c0,0.15277 -0.07639,0.22915 -0.22915,0.22915h-5.15593c-0.12731,0 -0.19096,-0.05093 -0.19096,-0.15277v-9.43345c0,-1.09484 -0.39465,-2.03691 -1.18396,-2.82621c-0.76384,-0.81477 -1.70592,-1.22215 -2.82621,-1.22215h-3.01718l-0.03819,13.40542c0,0.15277 -0.06365,0.22915 -0.19096,0.22915zM260.54335,176.79186h3.93379c0.94207,0 1.76957,-0.34372 2.48248,-1.03118c0.73838,-0.71292 1.10757,-1.57861 1.10757,-2.59706c0,-0.96753 -0.35645,-1.79502 -1.06937,-2.48248c-0.71292,-0.71292 -1.55315,-1.06938 -2.52068,-1.06938h-3.93379zM275.41947,195.65876l5.65243,-31.31751c0.02546,-0.1273 0.10185,-0.19097 0.22915,-0.19097h6.60723c0.1273,0 0.20369,0.06366 0.22915,0.19097l5.42328,31.31751c0.05093,0.15277 0,0.22915 -0.15277,0.22915h-5.07955c-0.1273,0 -0.20369,-0.07638 -0.22915,-0.22915l-0.4965,-3.32271h-6.18712l-0.53469,3.32271c-0.02546,0.15277 -0.10185,0.22915 -0.22915,0.22915h-5.04135c-0.1273,0 -0.19097,-0.07638 -0.19097,-0.22915zM282.29404,187.44746h4.39209l-1.87141,-12.79435l-0.26734,-1.71865l-0.19096,1.71865zM303.89152,195.88791c-0.15277,0 -0.22915,-0.07638 -0.22915,-0.22915l0.03819,-31.31751c0,-0.1273 0.06365,-0.19097 0.19096,-0.19097h5.07955c0.1273,0 0.19096,0.06366 0.19096,0.19097l0.03819,31.31751c0,0.15277 -0.05092,0.22915 -0.15277,0.22915z"/></g></g></svg>