<svg version="1.1" xmlns="http://www.w3.org/2000/svg" xmlns:xlink="http://www.w3.org/1999/xlink" width="354.75" height="91.4027" viewBox="0,0,354.75,91.4027"><g transform="translate(77.25,-123.8585)"><g data-paper-data="{&quot;isPaintingLayer&quot;:true}" fill-rule="nonzero" stroke-linejoin="miter" stroke-miterlimit="10" stroke-dasharray="" stroke-dashoffset="0" style="mix-blend-mode: normal"><text transform="translate(-77,145.44444) scale(0.5,0.5)" font-size="40" xml:space="preserve" fill="#ffffff" fill-rule="nonzero" stroke="none" stroke-width="1" stroke-linecap="butt" stroke-linejoin="miter" stroke-miterlimit="10" stroke-dasharray="" stroke-dashoffset="0" font-family="Sans Serif" font-weight="normal" text-anchor="start" style="mix-blend-mode: normal"><tspan x="0" dy="0"> </tspan></text><path d="M210.81742,204.82784c0,-12.01784 0,-46.0465 0,-50.94544c0,-1.57362 1.66178,-2.90196 3.54684,-2.90196c6.17489,0 40.11775,0 51.26788,0c2.23182,0 3.55046,1.18889 3.55046,3.2244c0,6.34387 0,40.15015 0,51.26788c0,2.22971 -2.03698,3.54683 -4.51777,3.54683c-6.71661,0 -38.19001,0 -49.65568,0c-2.61703,0 -4.19171,-1.57351 -4.19171,-4.19171z" fill="#a3b4e0" stroke="#293b6b" stroke-width="3" stroke-linecap="butt"/><path d="M244.97505,178.78986c3.13741,1.28484 4.70611,3.55573 4.70611,6.81265c0,2.39041 -0.85158,4.39237 -2.55475,6.00589c-1.67329,1.58365 -4.03381,2.37546 -7.08157,2.37546c-3.13741,0 -5.54275,-0.79182 -7.21604,-2.37546c-1.67329,-1.61352 -2.50993,-3.60055 -2.50993,-5.96107c0,-3.34656 1.5687,-5.63239 4.70611,-6.85747c-2.5398,-1.13545 -3.80971,-3.01789 -3.80971,-5.64733c0,-1.94221 0.77689,-3.61548 2.33064,-5.01985c1.55376,-1.40437 3.64537,-2.10654 6.27481,-2.10654c2.988,0 5.21408,0.71712 6.67819,2.15136c1.49401,1.43424 2.241,3.10753 2.241,5.01985c0,2.5398 -1.25496,4.40731 -3.76489,5.60251zM243.89937,173.41145c0,-1.10556 -0.35856,-2.03185 -1.07568,-2.77885c-0.71712,-0.747 -1.67329,-1.1205 -2.86849,-1.1205c-1.16532,0 -2.10654,0.37351 -2.82367,1.1205c-0.71712,0.747 -1.07568,1.67329 -1.07568,2.77885c0,1.10556 0.35856,2.00196 1.07568,2.68921c0.747,0.68725 1.68822,1.03086 2.82367,1.03086c1.16532,0 2.10654,-0.34362 2.82367,-1.03086c0.747,-0.68725 1.1205,-1.58365 1.1205,-2.68921zM244.61647,185.51288c0,-1.46412 -0.4482,-2.62944 -1.3446,-3.49597c-0.86653,-0.8964 -1.97208,-1.3446 -3.31669,-1.3446c-1.25496,0 -2.33064,0.43326 -3.22705,1.29978c-0.86653,0.83664 -1.29978,2.0169 -1.29978,3.54079c0,1.49401 0.4482,2.70415 1.3446,3.63043c0.92628,0.8964 2.00196,1.3446 3.22705,1.3446c1.28484,0 2.37546,-0.46315 3.27187,-1.38942c0.8964,-0.92628 1.3446,-2.12149 1.3446,-3.58561z" fill="#3e4f7b" stroke="none" stroke-width="1" stroke-linecap="square"/><path d="M201.19842,215.2612v-71.74627h76.30158v71.74628z" fill="none" stroke="none" stroke-width="none" stroke-linecap="butt"/></g></g></svg>