<svg version="1.1" xmlns="http://www.w3.org/2000/svg" xmlns:xlink="http://www.w3.org/1999/xlink" width="435.11054" height="372.56463" viewBox="0,0,435.11054,372.56463"><defs><linearGradient x1="241.43576" y1="283.5956" x2="241.43576" y2="323.28466" gradientUnits="userSpaceOnUse" id="color-1"><stop offset="0" stop-color="#3b3b3b"/><stop offset="1" stop-color="#3b3b3b" stop-opacity="0"/></linearGradient><linearGradient x1="241.43576" y1="283.5956" x2="241.43576" y2="323.28466" gradientUnits="userSpaceOnUse" id="color-2"><stop offset="0" stop-color="#3b3b3b" stop-opacity="0"/><stop offset="1" stop-color="#3b3b3b"/></linearGradient></defs><g transform="translate(-22.44479,19.18465)"><g data-paper-data="{&quot;isPaintingLayer&quot;:true}" fill-rule="nonzero" stroke-linecap="butt" stroke-linejoin="miter" stroke-miterlimit="10" stroke-dasharray="" stroke-dashoffset="0" style="mix-blend-mode: normal"><path d="M357.05171,303.4401c0,10.95982 -51.76303,19.84453 -115.61596,19.84453c-63.85293,0 -115.61593,-8.88471 -115.61593,-19.84453c0,-10.95982 51.763,-19.84452 115.61593,-19.84452c63.85293,0 115.61596,8.88468 115.61596,19.84452z" fill="url(#color-1)" stroke="none" stroke-width="0"/><path d="M357.05171,303.4401c0,10.95982 -51.76303,19.84453 -115.61596,19.84453c-63.85293,0 -115.61593,-8.88471 -115.61593,-19.84453c0,-10.95982 51.763,-19.84452 115.61593,-19.84452c63.85293,0 115.61596,8.88468 115.61596,19.84452z" fill="url(#color-2)" stroke="none" stroke-width="0"/><path d="M457.55514,169.78383c0.00012,0.08161 0.00019,0.16322 0.00019,0.24484c0,101.26214 -97.40281,183.35131 -217.55527,183.35131c-120.15245,0 -217.55527,-82.08918 -217.55527,-183.35131c0,-101.26214 97.40281,-183.35131 217.55527,-183.35131c110.39504,0 201.58533,69.29784 215.66817,159.09425" fill="none" stroke="none" stroke-width="0"/><path d="M457.53185,169.86346c-1.72702,101.60569 -98.45788,183.51652 -217.53178,183.51652c-120.15245,0 -217.55527,-83.40143 -217.55527,-186.28231v-0.00001c0,-102.88088 97.40281,-186.28231 217.55527,-186.28231c111.90019,0 204.06837,72.33853 216.20107,165.38057" fill="none" stroke="none" stroke-width="0"/><path d="M449.39158,197.09413c-16.80971,86.78647 -105.34358,152.98297 -212.03651,152.98297c-118.69165,0 -214.91024,-81.92268 -214.91024,-182.97943v-0.00001c0,-101.05675 96.21859,-182.97943 214.91024,-182.97943c109.52863,0 199.92012,69.76204 213.22383,159.94564" fill="none" stroke="none" stroke-width="0"/><path d="M118.46984,117.68886c0.70933,-6.94122 12.26926,-25.35609 18.05063,-26.57321c7.25182,-1.5267 29.79952,-0.94068 29.79952,-0.94068v153.04311c0,0 -32.88513,11.6291 -43.32318,-22.2238c-10.43804,-33.8529 -6.03633,-88.53515 -4.52697,-103.30543z" fill="#5d0000" stroke="none" stroke-width="0"/><path d="M163.89585,181.84971c-1.14227,-35.79543 -1.93066,-56.99374 3.37045,-92.89659c5.30111,-35.90285 22.27407,-61.21199 22.27407,-61.21199c0,0 13.67204,-12.13156 29.91344,-12.13156c12.24978,0 25.61036,-1.1304 48.62538,1.33611c21.23174,2.27539 43.89567,31.90485 43.89567,31.90485c0,0 42.14581,37.84759 35.83782,57.35257c-3.1609,9.77384 -17.4254,25.82172 -17.4254,25.82172c0,0 0.52309,32.04197 -0.70212,65.87188c-0.79525,21.95826 -2.93052,43.24706 -4.37108,61.85478c-1.25256,16.1793 0.02729,25.67742 -2.78053,30.52648c-4.23372,7.31158 -43.68018,15.25817 -52.79399,1.34141c-2.58556,-3.94814 -5.0961,-24.0185 -0.42619,-32.84088c5.05048,-9.54136 17.42523,-7.71717 17.42523,-7.71717l-47.00707,-3.62676c0,0 -4.54946,6.86262 -5.3361,17.67187c-0.86538,11.89104 1.71374,28.1145 -5.80268,34.94589c-9.94932,9.04257 -32.48839,9.09738 -45.37488,8.28084c-5.69856,-0.36108 -10.04376,-5.21007 -10.8685,-12.70171c0,0 -6.98329,-67.70907 -8.45352,-113.78174z" fill="#5d0000" stroke="none" stroke-width="0"/><path d="M191.82508,22.82407c0,0 55.70175,-8.36769 74.77423,-7.11996c18.55855,1.21411 47.35077,19.6118 47.35077,19.6118l7.84617,91.80047c0,0 10.58006,52.6233 -13.26335,78.014c-23.84342,25.3907 -63.82418,20.79147 -86.96711,13.51334c-49.32858,-15.51316 -38.35826,-111.17844 -38.35826,-129.68534c0,-18.5069 8.61756,-66.13431 8.61756,-66.13431z" fill="#aa0000" stroke="none" stroke-width="0"/><path d="M121.7462,131.51208l4.60083,-36.05976h36.80658l-0.26853,28.14756c0,0 -14.34388,-5.53276 -22.56912,-3.91615c-8.22525,1.6166 -18.56975,11.82836 -18.56975,11.82836z" fill="#aa0000" stroke="none" stroke-width="0"/><path d="M166.31998,243.21808c0,0 -32.89949,6.10189 -38.91479,-13.40706c-6.01531,-19.50894 -11.32639,-44.45139 -10.6987,-62.74837c0.50904,-14.83847 -4.48256,-71.20318 19.81398,-75.94701c5.78977,-1.17649 29.79952,-0.94068 29.79952,-0.94068" fill="none" stroke="#490000" stroke-width="16"/><path d="M163.89585,181.84971c-1.14227,-35.79543 -1.93066,-56.99374 3.37045,-92.89659c7.19162,-48.70675 18.82285,-76.89707 68.05766,-76.87025c70.56001,0.03843 78.14787,21.24 85.46765,41.17603c9.54575,25.99865 9.59567,78.76592 9.59567,78.76592c0,0 0.52309,33.80532 -0.70212,67.63523c-0.79525,21.95826 -0.2855,37.95701 -1.72605,56.56474c-1.44056,18.60772 0.17142,22.34434 -7.1889,33.1715c-7.36033,10.82716 -41.11305,12.5004 -49.26729,1.34141c-6.56148,-8.97931 -4.68113,-26.60415 -4.15157,-33.86362c0.29784,-4.0829 -1.48234,11.25192 0.19868,8.07613c4.66991,-8.82238 9.49015,-13.88889 9.49015,-13.88889l-42.5987,-0.98174c0,0 0.7406,4.2176 -0.04606,15.02684c-0.86538,11.89103 1.71374,30.75952 -5.80268,37.59092c-7.51642,6.8314 -27.19834,6.45235 -40.08483,5.63582c-12.88649,-0.81654 -17.93637,-10.66057 -19.68525,-17.99176c-3.46977,-14.54503 -3.45658,-62.41903 -4.92681,-108.4917z" fill="none" stroke="#490000" stroke-width="16"/><path d="M301.42014,54.12788c30.85086,11.80948 52.70051,32.57023 46.39253,52.07523c-3.1609,9.77384 -17.4254,25.82172 -17.4254,25.82172c0,0 -56.37343,20.42131 -84.26845,3.10422c-15.5751,-9.66895 -37.16001,-43.90095 -23.25316,-63.68791c15.04756,-21.41002 62.52136,-23.45062 78.5545,-17.31325z" fill="#960000" stroke="none" stroke-width="0"/><path d="M241.61864,74.81472c5.26464,-17.5418 22.95738,-22.42476 40.10785,-22.42476c16.97457,0 34.05911,8.31796 34.05911,8.31796c0,0 29.61547,18.50618 18.96791,42.53149c-7.61775,17.18883 -53.65374,15.9636 -70.97002,8.93661c-17.31627,-7.02698 -27.4295,-19.81951 -22.16486,-37.36131z" fill="#db0000" stroke="none" stroke-width="0"/><path d="M313.41489,64.47409c23.0736,5.53817 16.20806,29.79717 2.23502,24.48427c-16.70521,-6.35174 -30.00772,-4.7322 -32.13467,-15.49716c-2.98593,-15.11241 13.46468,-12.93186 29.89965,-8.98712z" fill="#f10000" stroke="none" stroke-width="0"/><path d="M331.26894,132.90649c-22.12975,9.27471 -66.01801,16.92653 -94.84855,-0.42248c-16.71759,-10.05995 -23.05321,-42.1376 -9.14636,-61.92456c13.90684,-19.78696 45.67822,-18.79576 75.0278,-16.43157c46.692,3.76116 60.27199,65.65855 28.96711,78.77861z" fill="none" stroke="#6c0000" stroke-width="16"/></g></g></svg>