<svg version="1.1" xmlns="http://www.w3.org/2000/svg" xmlns:xlink="http://www.w3.org/1999/xlink" width="307" height="307" viewBox="0,0,307,307"><defs><linearGradient x1="189.15333" y1="199.5232" x2="191.48523" y2="244.64748" gradientUnits="userSpaceOnUse" id="color-1"><stop offset="0" stop-color="#8ec4d0"/><stop offset="1" stop-color="#406077"/></linearGradient><linearGradient x1="189.15334" y1="199.5232" x2="191.48524" y2="244.64748" gradientUnits="userSpaceOnUse" id="color-2"><stop offset="0" stop-color="#8ec4d0"/><stop offset="1" stop-color="#406077"/></linearGradient><linearGradient x1="267.65052" y1="203.89809" x2="267.65052" y2="249.0826" gradientUnits="userSpaceOnUse" id="color-3"><stop offset="0" stop-color="#8ec4d0"/><stop offset="1" stop-color="#406077"/></linearGradient></defs><g transform="translate(-86.5,-47.19449)"><g data-paper-data="{&quot;isPaintingLayer&quot;:true}" fill-rule="nonzero" stroke-linecap="butt" stroke-linejoin="miter" stroke-miterlimit="10" stroke-dasharray="" stroke-dashoffset="0" style="mix-blend-mode: normal"><path d="M89,200.6945c0,-83.39499 67.60501,-151 151,-151c83.39499,0 151,67.60501 151,151c0,83.39499 -67.60501,151 -151,151c-83.39499,0 -151,-67.60501 -151,-151z" fill="#c1ffb2" stroke="none" stroke-width="0"/><path d="M92,174.69448c0,0 12.39294,60.43765 55.98474,110.83318c42.25722,48.85264 69.10277,62.95198 69.10277,62.95198c0,0 -18.64049,-2.35942 -26.09179,-4.91461c-24.90904,-8.54177 -46.87791,-23.41437 -63.98602,-42.69722c-14.83039,-16.7156 -26.00815,-36.74528 -32.28219,-58.83796c-1.63816,-5.76842 -4.36357,-19.45418 -4.66195,-32.99194c-0.38115,-17.29247 1.93445,-34.34344 1.93445,-34.34344z" fill="#a9ef51" stroke="none" stroke-width="0"/><path d="M112.3922,119.92887c0,0 2.9874,-4.57182 4.5701,-6.79188c13.23093,-18.559 30.55615,-33.99744 50.65712,-44.99678c2.3231,-1.27121 7.07849,-3.63372 7.07849,-3.63372c0,0 1.41646,83.64612 14.97423,159.73551c11.85622,66.5399 36.29102,126.83034 33.75137,126.55303c-75.59605,-8.25439 -111.0313,-230.86617 -111.0313,-230.86617z" fill="#abee53" stroke="none" stroke-width="0"/><path d="M238.48285,50.28825c0,0 21.1116,0.63494 24.12507,1.08736c16.14936,2.42458 31.46169,7.40663 45.51148,14.52063c2.27146,1.15014 6.71357,3.61578 6.71357,3.61578c0,0 -23.12187,74.19765 -34.5305,138.53809c-8.04369,45.36344 -16.83565,141.83179 -16.83565,141.83179c0,0 -6.49388,0.9056 -9.78826,1.2014c-4.50542,0.40454 -6.06786,0.61119 -10.67857,0.61119c-3.46676,0 -6.31471,0.65324 -6.31471,0.65324c0,0 -8.80023,-107.69193 -5.65681,-186.3893c1.70155,-42.59948 7.45437,-115.6702 7.45437,-115.6702z" fill="#abee53" stroke="none" stroke-width="0"/><path d="M355.7369,104.68174c0,0 8.27066,9.75729 10.25283,12.75062c10.85586,16.39376 18.59764,35.0296 22.38197,55.06412c1.09108,5.77628 -0.3717,0.19801 -0.3717,0.19801c0,0 -22.85239,37.94419 -36.39089,64.02344c-16.5176,31.81789 -32.99932,92.0441 -34.83156,93.40104c-8.77132,6.49599 -5.27122,4.06418 -15.35463,8.55953c-1.94452,0.86689 -8.8976,2.47996 -8.8976,2.47996c0,0 -2.21784,-41.30569 21.44111,-125.21136c14.53188,-51.53681 41.77049,-111.26534 41.77049,-111.26534z" fill="#abee53" stroke="none" stroke-width="0"/><path d="M389.99999,212.6945c0,0 0.85107,-4.20631 0.55856,-0.36701c-3.96206,52.00368 -34.26586,96.64238 -77.59701,120.60173c-12.60939,6.97218 11.67262,-36.05746 37.44993,-72.31919c18.43477,-25.93276 39.58852,-47.91553 39.58852,-47.91553z" fill="#abee53" stroke="none" stroke-width="0"/><g><path d="M94.02016,243.76526c0,0 10.93877,-24.89194 14.69974,-30.81733c2.49667,-3.93349 7.5566,-3.54373 7.5566,-3.54373l-5.35474,57.85345c0,0 -5.10591,-6.86294 -7.47352,-10.85716c-0.80537,-1.35869 -2.44297,0.66843 -3.67664,-1.00594c-2.91168,-3.95178 -5.75144,-11.62928 -5.75144,-11.62928z" fill="#fb7c00" stroke="none" stroke-width="0"/><path d="M116.2765,209.40419l-5.81849,57.87741c0,0 -10.18975,-3.76311 -12.46501,-10.09855c-2.84347,-4.55831 18.2835,-47.77886 18.2835,-47.77886z" fill="#b43f15" stroke="none" stroke-width="0"/><path d="M94.3487,240.40495c3.24574,-6.52416 11.38926,-22.75902 14.37119,-27.45703c2.49666,-3.93349 7.55659,-3.54372 7.55659,-3.54372l-5.35474,57.85344c0,0 -6.61287,-3.67771 -8.98048,-7.67193c-2.70619,-4.56541 -8.44052,-17.47629 -7.59256,-19.18076z" fill="none" stroke="#390400" stroke-width="4"/><path d="M222.42047,227.12523c6.08859,29.55658 9.18532,64.56073 10.6157,85.66344c0.25462,13.67498 -0.38088,17.8922 -15.39872,23.32186c-6.5914,2.3831 -13.84803,4.21544 -23.03931,5.73474c-12.9584,2.14198 -37.20371,-18.9011 -57.18172,-32.70481c-12.2936,-8.49421 -17.09436,-16.78242 -23.1593,-24.84535c-4.02818,-5.3552 -11.90511,-9.32172 -10.96821,-17.85973c3.2215,-29.3579 10.92618,-59.45446 25.89421,-77.04561c8.92596,-10.49023 18.19292,-15.05517 25.73269,-18.17099c45.60456,-18.84615 66.26182,49.87316 67.50466,55.90645z" fill="#b43f15" stroke="none" stroke-width="0"/><path d="M222.42047,227.12523c3.87291,18.80071 6.53526,39.80557 8.32823,58.03472c0.59296,6.02869 -10.8099,65.06587 -88.87066,22.49644c-41.64847,-23.53058 -25.86571,-95.98597 -24.0051,-100.01614c3.19841,-6.92792 6.9455,-13.12087 11.3102,-18.25048c8.92596,-10.49023 18.19292,-15.05517 25.73269,-18.17099c45.60456,-18.84615 66.26182,49.87315 67.50466,55.90645z" fill="#fb7c00" stroke="none" stroke-width="0"/><path d="M177.54917,204.85192c3.47958,-0.03961 18.61005,-0.83798 30.16777,1.13822c2.20054,0.37625 7.22925,1.35292 9.11237,7.07374c2.25393,6.84731 5.60983,18.05328 4.89575,25.9615c-0.52648,5.83064 -7.66844,8.53143 -9.3993,8.67654c-6.77648,0.56808 -14.94292,1.18511 -22.46753,1.57396c-8.0905,0.41809 -12.01023,1.27831 -19.52562,0.0077c-3.44676,-0.58274 -7.9239,-1.27999 -11.6057,-4.08883c-6.78543,-5.17661 -3.6969,-22.07274 -3.05049,-25.71726c0.12683,-0.71508 0.61517,-7.07225 5.08921,-10.70418c4.01581,-3.25994 11.753,-3.86411 16.78353,-3.92137z" fill="#8ec4d0" stroke="#b33f18" stroke-width="6"/><path d="M180.13789,200.04526c3.47959,-0.03961 18.61005,-0.83798 30.16777,1.13822c2.20054,0.37625 7.22925,1.35292 9.11237,7.07374c2.25393,6.84731 5.60983,18.05327 4.89575,25.96149c-0.52648,5.83064 -7.66844,8.53143 -9.3993,8.67654c-6.77648,0.56808 -14.94292,1.18511 -22.46753,1.57396c-8.0905,0.41809 -12.01024,1.27831 -19.52563,0.0077c-3.44676,-0.58274 -7.9239,-1.27999 -11.60569,-4.08883c-6.78543,-5.17661 -3.6969,-22.07273 -3.05049,-25.71726c0.12683,-0.71508 0.61517,-7.07225 5.08921,-10.70418c4.01581,-3.25994 11.753,-3.86411 16.78353,-3.92138z" fill="#8ec4d0" stroke="#061b0f" stroke-width="6"/><path d="M222.42047,227.12523c6.08859,29.55658 9.18532,64.56073 10.6157,85.66344c0.25462,13.67498 -0.38088,17.8922 -15.39872,23.32186c-5.98935,2.16544 -13.35256,3.91875 -21.54346,5.36082c-1.47592,0.25984 -6.15622,-2.05627 -6.15622,-2.05627c0,0 -16.21029,-7.10357 -24.3438,-11.54803c-8.46564,-4.62595 -25.49353,-15.68501 -25.49353,-15.68501c0,0 -13.16704,-14.0926 -19.1821,-21.17317c-5.30152,-6.24064 -14.03865,-19.77618 -14.03865,-19.77618c0,0 -3.49165,-5.02002 -3.35314,-6.34253c3.12331,-29.82176 10.43725,-57.61393 25.65657,-75.50041c8.92596,-10.49023 18.19292,-15.05517 25.73269,-18.17099c45.60456,-18.84615 66.26182,49.87315 67.50466,55.90645z" fill="none" stroke="#390400" stroke-width="4"/><path d="M180.13789,200.04523c3.47959,-0.03961 18.61005,-0.83798 30.16777,1.13821c2.20054,0.37625 7.22925,1.35292 9.11237,7.07374c2.25393,6.84731 5.60983,18.05327 4.89575,25.96149c-0.52648,5.83064 -7.66844,8.53143 -9.3993,8.67654c-6.77648,0.56808 -14.94292,1.18511 -22.46753,1.57396c-8.0905,0.41809 -12.01023,1.27831 -19.52562,0.0077c-3.44676,-0.58274 -7.9239,-1.27999 -11.60569,-4.08883c-6.78543,-5.17661 -3.69691,-22.07273 -3.05049,-25.71726c0.12683,-0.71508 0.61517,-7.07225 5.08922,-10.70418c4.01581,-3.25994 11.753,-3.86411 16.78353,-3.92137z" fill="url(#color-1)" stroke="none" stroke-width="0"/><path d="M180.30973,200.03264c3.22061,-0.03554 17.22467,-0.77461 27.92304,1.07512c2.03692,0.35218 6.69178,1.26606 8.43713,6.60772c2.08903,6.39347 5.19981,16.85658 4.54216,24.23928c-0.48488,5.44318 -7.09419,7.96163 -8.69618,8.09637c-6.2719,0.52755 -13.83031,1.1002 -20.79475,1.4601c-7.48819,0.38697 -11.11585,1.18842 -18.07244,-0.00093c-3.19048,-0.54547 -7.33471,-1.19825 -10.74365,-3.82207c-6.28258,-4.83562 -3.43093,-20.60828 -2.83413,-24.01049c0.1171,-0.66753 0.56645,-6.60229 4.70601,-9.99114c3.71558,-3.04176 10.87669,-3.60259 15.5328,-3.65397z" fill="#8ec4d0" stroke="none" stroke-width="0"/><path d="M221.82617,224.83454c-0.16259,1.80064 -1.05957,6.58298 -8.81524,9.62255c-4.54785,1.78238 -11.47103,2.63784 -21.94237,2.81384c-4.30743,0.0724 -8.03214,0.95897 -11.33902,0.70489c-18.89029,-1.45138 -22.51389,-8.5343 -22.26815,-11.32485c0.08807,-1.00015 2.72675,-6.65973 13.01001,-10.18581c4.41246,-1.51301 10.25351,-2.22581 17.86989,-2.67928c10.48675,-0.62438 17.79086,-0.81074 22.88028,0.65841c8.69395,2.50965 10.82633,7.93466 10.60459,10.39027z" fill="url(#color-2)" stroke="none" stroke-width="0"/><path d="M199.47799,334.42653c-0.48037,2.45342 3.73288,2.63973 3.73288,2.63973l-14.68355,4.84981c-2.91956,-1.33858 0.00039,-0.72707 -3.55799,-1.53843c-2.40321,-0.54796 -6.24008,-3.5409 -7.97488,-5.33048c-0.60307,-0.6221 0.62237,4.34785 -0.04662,3.79726c-0.5154,-0.42417 -2.97451,-4.28923 -3.59948,-4.52366c-2.73205,-1.02479 -3.12167,0.94447 -5.73473,-0.33917c-5.04173,-2.47668 -11.34943,-6.12721 -15.98806,-9.06681c-1.86637,-1.18275 -4.11438,-7.29017 -6.10491,-8.24937c-0.94609,-1.83678 -5.68232,-2.2499 -6.91198,-3.46915c-1.74767,-1.73287 -0.15206,-4.07413 -2.6516,-5.68344c-2.49538,-1.60664 -5.86414,-1.75463 -7.83702,-4.19818c-0.71589,-0.88668 -0.70637,-2.19078 -1.30767,-3.15884c-0.44196,-0.71152 -1.29051,-1.09828 -1.76524,-1.78836c-0.92836,-1.34953 -1.43573,-2.96585 -2.41071,-4.28209c-1.55342,-2.09717 -2.60166,-1.81816 -4.42465,-3.47028c-1.56681,-1.41995 -2.98145,-3.0363 -4.14557,-4.80152c-1.00633,-1.52596 -1.07992,-3.50918 -1.89043,-5.14757c-0.65733,-1.32876 -1.94629,-2.23699 -2.89579,-3.37547c0,0 -1.60122,-1.91992 0.3187,-3.52114c1.91992,-1.60122 3.52114,0.3187 3.52114,0.3187c0.40201,0.48203 3.34166,3.98041 3.50908,4.30422c0.75883,1.4678 0.68259,3.32472 1.62166,4.68427c2.28088,3.30215 5.89585,4.78468 8.28579,7.87982c1.03613,1.34186 1.55428,3.02404 2.51707,4.41945c0.54194,0.78547 1.46628,1.26767 1.96723,2.0799c0.50869,0.82477 0.47244,1.91667 0.99932,2.72994c0.85172,1.31466 5.29052,2.26625 6.55718,3.06865c4.09168,2.59198 8.65141,5.16234 10.44328,9.8402c0.4113,0.14732 5.12658,1.83558 5.13847,1.84294c4.57074,2.83116 8.4082,6.82232 13.34279,9.23139c2.53883,1.23946 5.3565,2.41262 7.99015,3.49111c1.04549,0.42813 2.26622,0.52949 3.16374,1.21564c0.85643,0.65474 1.12282,1.86262 1.8741,2.63576c1.17658,1.21081 3.85858,3.51373 5.52388,3.9853c1.32474,0.37512 3.4317,-1.28706 4.27061,-1.31286c1.20792,-0.03715 2.32316,0.66687 3.48475,1.0003l1.69606,0.30872c0,0 2.78675,-4.85296 2.30638,-2.39954z" fill="#b43f15" stroke="none" stroke-width="0.5"/><path d="M141.87803,307.65637c-18.08939,-10.22015 -25.34455,-29.66982 -27.6119,-48.73382c1.82984,0.92442 3.68041,1.81347 5.46732,2.81493c17.02264,9.54024 33.93264,19.28041 50.94521,28.8386c9.14691,5.13901 19.62204,7.435 29.41674,11.1952c0.72246,0.27736 10.92804,4.10143 20.62229,8.03741c-11.23162,13.25761 -34.07544,22.25928 -78.83968,-2.15233z" fill="#fb7c00" stroke="none" stroke-width="0"/></g><g><path d="M254.87007,326.96002c-0.21219,-17.88892 -0.46723,-56.02756 6.69141,-86.59942c13.47609,-60.58857 45.84788,-57.76784 55.48871,-54.72632c15.81758,4.99017 29.14256,22.02275 34.41876,40.76727c6.54306,23.24525 5.81106,51.70641 3.53842,73.94884c-0.2177,2.13066 -4.49171,3.29746 -6.88342,5.47001c-5.67085,5.15123 -13.08462,11.33483 -19.50653,16.14582c-17.8188,13.349 -34.6219,23.82933 -41.09725,22.78975c-8.41052,-1.35026 -17.75052,-3.19865 -24.31852,-5.40487c-9.52641,-3.19997 -8.26284,-6.59494 -8.33159,-12.39105z" fill="#053a20" stroke="none" stroke-width="0"/><path d="M254.87007,326.96002c-0.21219,-17.88892 -0.46723,-56.02756 6.69141,-86.59942c13.47609,-60.58857 45.84788,-57.76784 55.48871,-54.72632c15.81758,4.99017 29.14256,22.02275 34.41876,40.76727c6.33464,22.50479 5.85031,49.89849 3.75072,71.80474c-0.67864,7.08063 -13.1911,13.17678 -21.64055,19.96365c-18.14636,14.57574 -40.43086,27.52085 -47.52305,26.34741c-8.01479,-1.32609 -16.66531,-3.0873 -22.85442,-5.16625c-9.52641,-3.19997 -8.26284,-6.59494 -8.33159,-12.39105z" fill="#053a20" stroke="none" stroke-width="0"/><path d="M254.81114,311.21461c0.14168,-19.78168 1.28688,-47.52156 6.75034,-70.85399c13.47609,-60.58857 45.84788,-57.76784 55.48871,-54.72632c15.81758,4.99017 29.14256,22.02275 34.41876,40.76727c2.8053,9.96626 -2.72671,11.89131 -2.1441,22.87397c0.15591,2.93895 -2.44496,29.62913 -9.16517,49.91118c-5.28192,15.94119 -15.0198,26.777 -15.0198,26.777c0,0 -30.48063,9.53096 -46.91588,6.54507c-18.6017,-3.37947 -23.42628,-19.42101 -23.41287,-21.29417z" fill="#177902" stroke="none" stroke-width="0"/><path d="M270.494,223.83755c6.56679,0.10756 22.38912,1.19321 27.09956,4.83652c4.25999,3.29493 3.68991,15.31779 3.51939,20.13592c-0.08914,2.51894 -2.763,2.51403 -6.23422,3.07763c-4.38212,0.7115 -10.17141,1.15523 -13.93703,1.1648c-4.59993,0.01171 -12.62628,-1.07661 -16.85512,-1.70237c-1.7026,-0.25194 -2.79028,-0.94718 -2.78052,-1.80179c0.03242,-2.83734 0.17962,-9.38192 0.84643,-12.97544c0.51148,-2.75641 1.91281,-8.02094 4.2395,-10.87234c1.10577,-1.35513 2.81212,-1.88405 4.102,-1.86292z" fill="#03391f" stroke="#033a21" stroke-width="6"/><path d="M356.27554,298.22511c0,0 -24.28364,-68.78073 -6.9531,-83.36276c9.00144,-7.57387 25.67267,20.29204 32.21589,32.20682c1.71751,3.12748 -25.26279,51.15594 -25.26279,51.15594z" fill="#03391e" stroke="none" stroke-width="0"/><path d="M254.87007,326.96002c-0.21219,-17.88892 -0.46723,-56.02756 6.69141,-86.59942c13.47609,-60.58857 45.84788,-57.76784 55.48871,-54.72632c15.81758,4.99017 29.14256,22.02275 34.41876,40.76727c5.90378,20.97411 6.78985,46.49643 5.14823,67.59298c-0.08382,1.07715 -0.27089,3.19565 -0.27089,3.19565c0,0 -5.70919,6.44556 -13.14122,13.35406c-6.50855,6.05008 -14.41609,12.37751 -19.93083,16.0786c-5.36056,3.59762 -13.51769,8.97101 -20.91356,12.20569c-8.05535,3.52311 -15.14553,4.75747 -15.14553,4.75747c0,0 -0.49805,1.04145 -1.42826,0.88668c-7.93882,-1.32086 -16.46537,-3.06589 -22.58525,-5.12159c-9.52641,-3.19997 -8.26284,-6.59494 -8.33159,-12.39105z" fill="none" stroke="#000000" stroke-width="4"/><path d="M356.60887,296.55843c0,0 -24.61698,-67.11406 -7.28644,-81.69609c11.36421,-9.56192 34.28643,34.36276 34.28643,34.36276c0,0 -5.32906,14.63362 -13.68543,28.12257c-4.31957,6.97271 -13.31456,19.21076 -13.31456,19.21076z" fill="#053a20" stroke="#000000" stroke-width="4"/><path d="M359.86516,288.62629c-3.45737,-6.19878 -10.71684,-21.20511 -14.47747,-34.7932c-4.79397,-17.32182 -4.46091,-31.90657 3.93475,-38.97074c9.10937,-7.66467 26.07354,20.96536 32.44685,32.62843c1.57758,2.88696 -20.63009,43.41976 -21.90413,41.13552z" fill="#177902" stroke="none" stroke-width="0"/><path d="M356.60887,296.55845c0,0 -24.61698,-67.11406 -7.28644,-81.69609c11.36421,-9.56192 34.28643,34.36276 34.28643,34.36276c0,0 -5.32906,14.63362 -13.68543,28.12257c-4.31957,6.97271 -13.31456,19.21076 -13.31456,19.21076z" fill="none" stroke="#000000" stroke-width="4"/><path d="M266.95421,205.83778c6.89571,0.14806 23.51056,1.64247 28.45693,6.65753c4.47337,4.53551 3.87473,21.08511 3.69567,27.71732c-0.09361,3.46735 -2.90139,3.4606 -6.54648,4.2364c-4.60161,0.97938 -10.68088,1.59018 -14.63511,1.60336c-4.83033,0.01611 -13.25871,-1.48197 -17.69937,-2.34334c-1.78788,-0.3468 -2.93004,-1.3038 -2.91979,-2.48019c0.03404,-3.90563 0.18861,-12.91432 0.88883,-17.86084c0.5371,-3.79422 2.00862,-11.04091 4.45185,-14.96591c1.16115,-1.86536 2.95297,-2.59341 4.30746,-2.56433z" fill="#9966ff" stroke="#000000" stroke-width="6"/><path d="M266.95421,205.83778c6.8957,0.14807 23.51057,1.64247 28.45693,6.65754c4.47337,4.5355 3.87472,21.0851 3.69567,27.71731c-0.09361,3.46735 -2.90139,3.46059 -6.54648,4.2364c-4.60161,0.97938 -10.68088,1.59018 -14.63511,1.60336c-4.83034,0.0161 -13.25871,-1.48198 -17.69937,-2.34334c-1.78788,-0.3468 -2.93004,-1.3038 -2.91978,-2.48019c0.03404,-3.90562 0.18861,-12.91432 0.88883,-17.86085c0.5371,-3.79422 2.00862,-11.04091 4.45185,-14.96591c1.16115,-1.86536 2.95298,-2.59341 4.30747,-2.56432z" fill="#8ec4ce" stroke="none" stroke-width="NaN"/><path d="M298.97354,230.86191c-0.2553,1.78985 -1.3979,6.51952 -9.30009,9.15478c-2.61939,0.87353 -11.4894,1.82898 -19.74009,1.19567c-6.34499,-0.48703 -12.62791,-2.514 -12.62791,-2.514c0,0 0.13639,-6.3467 0.57092,-11.95285c0.36476,-4.70602 1.24048,-7.60052 1.21276,-8.25197c0.04985,-0.00104 6.4991,-0.38964 7.01436,-0.39368c10.505,-0.08235 17.80899,0.1085 22.81581,1.83835c8.55284,2.95498 10.40241,8.48281 10.05424,10.92371z" fill="url(#color-3)" stroke="none" stroke-width="0"/></g><path d="M89,200.6945c0,-83.39499 67.60501,-151 151,-151c71.35052,0 131.14268,49.48724 146.92556,116.01077c2.66426,11.22965 4.07444,22.94475 4.07444,34.98923c0,83.39499 -67.60501,151 -151,151c-83.39499,0 -151,-67.60501 -151,-151z" fill="none" stroke="#417705" stroke-width="5"/></g></g></svg>