<svg version="1.1" xmlns="http://www.w3.org/2000/svg" xmlns:xlink="http://www.w3.org/1999/xlink" width="459.84157" height="263.71702" viewBox="0,0,459.84157,263.71702"><g transform="translate(-10.07839,-48.1412)"><g data-paper-data="{&quot;isPaintingLayer&quot;:true}" fill-rule="nonzero" stroke-linecap="butt" stroke-linejoin="miter" stroke-miterlimit="10" stroke-dasharray="" stroke-dashoffset="0" style="mix-blend-mode: normal"><g fill="#ffffff" stroke="#ffffff" stroke-width="2"><path d="M219.56368,299.15357c-6.41416,-6.41417 -11.70466,-11.98558 -11.7983,-12.40696c-0.14045,-0.60864 -4.58823,-0.70228 -41.575,-0.70228h-41.38773v-15.45016v-15.45016h-9.36374h-9.36373v8.89555v8.89555h-19.10202h-19.14885l-7.30372,-5.47779l-7.30372,-5.5246v-23.50299l-0.04683,-23.54979h9.83193h9.83192v-13.34332v-13.34332h-6.55461h-6.55462v7.0228v7.0228h-8.42735h-8.42736v8.89555v8.89555h-5.99279h-6.03962l-9.87874,-5.94598l-9.87875,-5.99279l0.09364,-31.78988l0.09363,-31.78989l9.83192,-6.22689l9.83192,-6.22689l5.99279,-0.04681h5.94598v8.89555v8.89555h8.42736h8.42736v7.72509v7.72508h6.55462h6.55461v-12.40696v-12.40696h-9.59783h-9.59784v-22.89434v-22.84752l7.11644,-6.18007l7.16326,-6.13325h19.10203h19.05521v6.55462v6.55461h44.71184h44.71185v-12.0324v-12.07922l11.33013,-11.09602l11.37694,-11.09603h33.42854l33.38172,-0.04683l16.33972,15.96518l16.33973,15.96517v7.21008v7.21008h10.06601h10.06602v-10.5342v-10.5342h13.62423h13.62423l12.12604,11.75149l12.12604,11.75149v17.27609v17.27609h-7.25689h-7.25689v5.15005v5.15005h12.64104h12.64104v7.2569v7.25689h14.51379h14.5138v-7.25689v-7.2569h10.67466l10.62784,0.04681l9.2701,8.05282l9.22328,8.05282v10.34692v10.34692l-5.61824,4.63505c-3.13686,2.52821 -7.25689,5.94597 -9.27009,7.53781l-3.60504,2.90275l-10.62784,0.04681h-10.67466v-7.25689v-7.25689h-14.5138h-14.51379v9.12965v9.12964h-12.64104h-12.64104v13.10924v13.10923h7.25689h7.25689v17.27609v17.22928l-12.17285,12.0324l-12.17286,11.98558h-13.57742h-13.57742v-11.00239v-11.00239h-4.91597h-4.91596v3.04322v3.04322h3.2773h3.27731v15.87154v15.91835l-6.08643,5.61824l-6.13325,5.66506h-16.15245h-16.10563l-5.85234,-5.66506l-5.85234,-5.71188v-15.82471v-15.87154h14.98197h14.98199v-3.04322v-3.04322h-16.62062h-16.62064v24.81391v24.81391h-21.95797h-21.91114zM272.28153,283.23522v-24.81391h19.42976h19.42975v5.85234v5.85234h-14.98197h-14.98199v13.53059v13.53059l5.5246,5.19688l5.47779,5.19687h14.04561h14.09242l5.71188,-5.19687l5.71188,-5.19688v-13.53059v-13.53059h-3.27731h-3.2773v-5.85234v-5.85234h7.72508h7.72508v11.00239v11.00239h11.14286h11.09602l11.84513,-11.5174l11.7983,-11.51741v-14.93516v-14.93516h-7.25689h-7.25689v-15.91835v-15.91835h12.64104h12.64104v-9.12965v-9.12964h17.32291h17.32292v7.2569v7.25689h8.38054h8.33374l8.75509,-7.11644l8.70827,-7.11645v-8.24009v-8.24009l-1.96638,-1.87274c-1.12365,-1.07683 -5.10324,-4.58823 -8.89555,-7.81871l-6.83552,-5.94598h-8.24009h-8.2401v7.2569v7.2569h-17.32292h-17.32291v-7.2569v-7.2569h-12.64104h-12.64104v-7.95918v-7.95918h7.25689h7.25689v-14.84152v-14.88834l-11.70467,-11.37694l-11.70466,-11.33013l-11.09603,0.09364l-11.14285,0.14045l-0.14045,10.44056l-0.09364,10.39375h-12.87514h-12.87515v-7.58463v-7.63144l-15.91835,-15.5438l-15.87154,-15.59062h-31.41534h-31.46216l-10.90875,10.62784l-10.90875,10.67466l-0.04681,12.54741l-0.04683,12.50059h-47.52096h-47.52096v-6.55461v-6.55462h-16.71427l-16.76109,0.04681l-6.64825,5.71188l-6.69507,5.71188v20.50659v20.45976h9.59784h9.59783v15.21607v15.21607h-9.36373h-9.36374v-7.72508v-7.72508h-8.42735h-8.42736v-8.89555v-8.89555h-3.60504h-3.65186l-9.36373,5.99279l-9.36373,5.94597l-0.09364,29.49578l-0.14045,29.49577l9.41056,5.7587l9.36373,5.71188h3.74549h3.69868v-8.89555v-8.89555h8.42736h8.42736v-7.0228v-7.0228h9.36374h9.36373v16.15245v16.15245h-9.83192h-9.83193v20.97477v20.97477l6.88235,5.24369l6.83553,5.24369h16.8079h16.76109v-8.89555v-8.89555h12.17285h12.17285v15.45016v15.45016h41.43454h41.43454v1.03002c0,0.7491 3.27731,4.35414 11.33013,12.40695l11.37694,11.37694h19.5234h19.57021z"/><path d="M140.72099,250.22804v-15.21607h-18.72747h-18.72747v-8.66146v-8.66146h-7.0228h-7.0228v-16.15245v-16.15245h10.30011h10.30011v6.7887v6.78871h12.40695h12.40696v-22.84752v-22.8007l-3.88595,-3.88595l-3.83913,-3.83914h-3.41776h-3.46458l-5.10324,4.77551l-5.10324,4.77552v6.46098v6.46098h-10.30011h-10.30011v-15.21607v-15.21607h7.0228h7.0228v-10.5342v-10.5342h27.85712h27.85712v5.15005v5.15005h-6.55461h-6.55461v22.42615v22.37933l4.35413,5.71188l4.30732,5.66506h26.12483h26.07801v-5.29052v-5.29051l-9.36374,-9.03601l-9.36374,-9.03601v-13.76469v-13.7647h-7.72508h-7.72508v-5.15005v-5.15005h12.87514h12.87514v12.54741v12.50059l13.48379,13.48379l13.43696,13.43696h11.84513h11.79831v22.23888v22.23888h-10.81512h-10.81511l-8.38054,8.05282l-8.38054,8.05282v18.16565v18.16566h-21.3025h-21.3025v-5.85234v-5.85234h7.16326h7.11644l5.5246,-5.19687l5.47778,-5.19688v-11.09603v-11.09603l6.78871,-6.46098l6.78871,-6.46098v-5.10324v-5.10324h-25.75028h-25.75028v33.70945v33.70945h-7.25689h-7.25689zM152.42568,228.92554v-33.70945h28.55939h28.55939v7.39736v7.44416l-6.7887,6.64826l-6.78871,6.64826v10.90875v10.90875l-5.85234,5.71188l-5.85234,5.66506h-6.7887h-6.78871v3.04322v3.04322h18.49338h18.49338v-17.74428v-17.74428l8.80191,-8.47419l8.7551,-8.47418h10.44057h10.39375v-19.42976v-19.42976h-11.33013h-11.37694l-13.90515,-13.90515l-13.95197,-13.95197v-12.0324v-12.07922h-10.06601h-10.06601v2.34093v2.34093h7.72509h7.72508v14.18606v14.13924l9.36374,9.08283l9.36373,9.03601v7.67827v7.67827l-28.65303,-0.09364l-28.65303,-0.14045l-4.58824,-6.03962l-4.58823,-5.99279v-24.76708v-24.76709h6.55461h6.55462v-2.34093v-2.34093h-25.048h-25.048v10.5342v10.5342h-7.0228h-7.0228v12.40696v12.40696h7.49099h7.49099v-6.03962v-6.03962l5.5246,-5.19687l5.47779,-5.19687h5.38415h5.38416l4.30732,4.30732l4.35414,4.35414v25.14164v25.18845h-15.21607h-15.21607v-6.7887v-6.78871h-7.49099h-7.49099v13.34332v13.34332h7.0228h7.0228v8.66146v8.66146h18.72747h18.72748v15.21607v15.21607h4.44777h4.44777z"/><path d="M272.28153,227.05279v-14.04561h-4.68188h-4.68187v-4.68187v-4.68187h11.70467h11.70466v13.8115v13.81151h20.27249h20.22568l4.82232,-4.82233l4.77552,-4.77551v-17.69747v-17.65064h-36.75267h-36.75267v-8.89555v-8.89555h12.31332h12.26649l13.71787,-13.71787l13.67105,-13.67105v-12.54741v-12.50059h12.87515h12.87514v1.35774c0,1.12365 0.93638,2.24729 5.7587,6.7887l5.71187,5.43096h3.18367h3.13686v7.95918v7.95918h-6.78871h-6.78871v-2.10684v-2.10684h-9.59783h-9.59783v1.77911c0,1.63866 -0.56183,2.34093 -8.42736,10.62783l-8.38054,8.89555l-0.04681,6.22689v6.18006h18.0252h18.02519v-6.08643v-6.08643h19.42976h19.42976v7.72508v7.72508h-12.64104h-12.64104v24.57981v24.57981h-3.41776h-3.41775l-5.47779,5.80551c-3.37095,3.60504 -5.47779,6.18007 -5.47779,6.78871v0.98319h-34.17764h-34.17764zM337.92132,237.587c0.09364,-0.37455 2.71548,-3.41776 5.89916,-6.7887l5.80551,-6.08643h2.99639h2.9964v-24.57981v-24.57981h12.64104h12.64104v-4.91596v-4.91596h-16.62064h-16.62064v6.08642v6.08643h-20.83431h-20.83432v-8.56783v-8.52099l8.42736,-8.89555l8.38054,-8.89555l0.04683,-2.20048v-2.24729h12.40695h12.40695v2.10684v2.10684h3.97959h3.97959v-5.15005v-5.15005h-2.80911h-2.85595l-6.03962,-5.89915c-3.51139,-3.41776 -6.08642,-6.32052 -6.08642,-6.7887c0,-0.84274 -0.56183,-0.88955 -10.06602,-0.88955h-10.06601v12.0324v12.07922l-14.13925,14.13925l-14.18606,14.18606h-11.79831h-11.84512v6.08643v6.08642h36.75266h36.75267v19.99159v20.0384l-5.24369,5.24369l-5.29052,5.29051h-22.56661h-22.61342v-13.81151v-13.81151h-8.89555h-8.89555v1.87274v1.87274h4.68187h4.68188v14.04561v14.04561h31.3217c27.0612,0 31.36853,-0.09364 31.50898,-0.70228z"/></g><g fill="#ff5c5c" stroke="none" stroke-width="1"><path d="M209.07629,285.34205c0,-0.60864 -4.91596,-0.70228 -41.43453,-0.70228h-41.43454v-15.45016v-15.45016h-10.7683c-9.2701,0 -10.7683,0.09364 -10.7683,0.70228c0,0.37455 -0.32772,0.70228 -0.70227,0.70228c-0.60864,0 -0.70228,-1.59184 -0.70228,-11.47058c0,-9.87875 0.09364,-11.47058 0.70228,-11.47058c0.37455,0 0.70227,0.32772 0.70227,0.70228c0,0.60864 2.38776,0.70228 18.72747,0.70228h18.72748v15.21607v15.21607h5.85234h5.85234v-5.15005v-5.15005h8.42736c7.16325,0 8.42736,0.09364 8.42736,0.70228c0,0.37455 -0.32773,0.70228 -0.70228,0.70228c-0.56183,0 -0.70228,0.79591 -0.70228,4.44777v4.44777h19.89794c17.36973,0 19.89794,-0.09364 19.89794,-0.70228c0,-0.37455 0.32773,-0.70228 0.70228,-0.70228c0.60864,0 0.70228,1.59184 0.70228,11.70467c0,10.11284 -0.09364,11.70466 -0.70228,11.70466c-0.37455,0 -0.70228,-0.32773 -0.70228,-0.70228z"/><path d="M308.33189,269.4237c0,-0.37455 0.32773,-0.70228 0.70228,-0.70228c0.56182,0 0.70228,-0.79591 0.70228,-4.44777v-4.44777h-18.02519c-15.73107,0 -18.0252,0.09364 -18.0252,0.70228c0,0.37455 -0.32773,0.70228 -0.70228,0.70228c-0.60864,0 -0.70228,-1.59182 -0.70228,-11.47058c0,-9.87875 0.09364,-11.47058 0.70228,-11.47058c0.37455,0 0.70228,0.32773 0.70228,0.70228c0,0.60864 3.93277,0.70227 32.77308,0.70227c28.84031,0 32.77308,-0.09363 32.77308,-0.70227c0,-0.37455 0.32773,-0.70228 0.70228,-0.70228c0.60864,0 0.70228,1.59184 0.70228,11.47058c0,9.87875 -0.09364,11.47058 -0.70228,11.47058c-0.37455,0 -0.70228,-0.32773 -0.70228,-0.70228c0,-0.60864 -1.03002,-0.70228 -6.32053,-0.70228h-6.32052v4.44777c0,3.65186 0.14045,4.44777 0.70228,4.44777c0.37455,0 0.70228,0.32773 0.70228,0.70228c0,0.60864 -1.40456,0.70228 -9.83193,0.70228c-8.42736,0 -9.83193,-0.09364 -9.83193,-0.70228z"/><path d="M355.61879,226.8187c0,-0.37455 0.32773,-0.70228 0.70228,-0.70228c0.60864,0 0.70228,-3.04322 0.70228,-24.57981v-24.57981h12.64104h12.64104v-6.32053v-6.32053h-18.0252c-15.73107,0 -18.0252,0.09364 -18.0252,0.70228c0,0.37455 -0.32773,0.70228 -0.70228,0.70228c-0.60864,0 -0.70228,-1.59184 -0.70228,-11.47058c0,-9.87875 0.09364,-11.47058 0.70228,-11.47058c0.37455,0 0.70228,0.32773 0.70228,0.70228c0,0.56183 0.88956,0.70228 5.38415,0.70228h5.38415v-6.55461c0,-5.5246 -0.09364,-6.55461 -0.70228,-6.55461c-0.37455,0 -0.70228,-0.32772 -0.70228,-0.70228c0,-0.60864 1.35774,-0.70228 9.59783,-0.70228c8.2401,0 9.59783,0.09364 9.59783,0.70228c0,0.37455 -0.32773,0.70228 -0.70228,0.70228c-0.60864,0 -0.70228,1.03001 -0.70228,6.55461v6.55461h12.64104h12.64104v7.2569v7.25689h15.91835c13.85833,0 15.91835,-0.09364 15.91835,-0.70228c0,-0.37455 0.32773,-0.70228 0.70228,-0.70228c0.60864,0 0.70228,1.59182 0.70228,11.47058c0,9.87875 -0.09364,11.47058 -0.70228,11.47058c-0.37455,0 -0.70228,-0.32773 -0.70228,-0.70228c0,-0.60864 -2.06002,-0.70228 -15.91835,-0.70228h-15.91835v9.12965v9.12964h-12.64104h-12.64104v14.5138c0,12.59423 0.09364,14.5138 0.70228,14.5138c0.37455,0 0.70228,0.32773 0.70228,0.70228c0,0.60864 -1.35774,0.70228 -9.59783,0.70228c-8.2401,0 -9.59783,-0.09364 -9.59783,-0.70228z"/><path d="M72.83388,216.98678c0,-0.37455 0.32773,-0.70228 0.70228,-0.70228c0.60864,0 0.70228,-1.96638 0.70228,-14.74788v-14.74788h-7.95918c-6.74189,0 -7.95919,0.09364 -7.95919,0.70228c0,0.37455 -0.32772,0.70228 -0.70227,0.70228c-0.60864,0 -0.70228,-1.59184 -0.70228,-11.47058c0,-9.87875 0.09364,-11.47058 0.70228,-11.47058c0.37455,0 0.70227,0.32772 0.70227,0.70228c0,0.60864 1.2173,0.70228 7.95919,0.70228h7.95918v-13.81151c0,-11.98558 -0.09364,-13.81151 -0.70228,-13.81151c-0.37455,0 -0.70228,-0.32772 -0.70228,-0.70228c0,-0.60864 1.35774,-0.70228 9.59784,-0.70228c8.24009,0 9.59783,0.09364 9.59783,0.70228c0,0.37455 -0.32773,0.70228 -0.70228,0.70228c-0.60864,0 -0.70227,1.82593 -0.70227,13.81151v13.81151h8.89554c7.58463,0 8.89555,-0.09364 8.89555,-0.70228c0,-0.37455 0.32773,-0.70228 0.70228,-0.70228c0.60864,0 0.70228,1.59182 0.70228,11.47058c0,9.87875 -0.09364,11.47058 -0.70228,11.47058c-0.37455,0 -0.70228,-0.32773 -0.70228,-0.70228c0,-0.60864 -1.31093,-0.70228 -8.89555,-0.70228h-8.89554v14.74788c0,12.7815 0.09363,14.74788 0.70227,14.74788c0.37455,0 0.70228,0.32773 0.70228,0.70228c0,0.60864 -1.35774,0.70228 -9.59783,0.70228c-8.24009,0 -9.59784,-0.09364 -9.59784,-0.70228z"/><path d="M246.06305,212.3049c0,-0.37455 0.32773,-0.70228 0.70228,-0.70228c0.60864,0 0.70228,-2.62184 0.70228,-20.83431c0,-18.21247 -0.09364,-20.83431 -0.70228,-20.83431c-0.37455,0 -0.70228,-0.32772 -0.70228,-0.70228c0,-0.60864 1.40457,-0.70228 9.83193,-0.70228c8.42736,0 9.83193,0.09364 9.83193,0.70228c0,0.37455 -0.32773,0.70228 -0.70228,0.70228c-0.60864,0 -0.70228,1.12365 -0.70228,7.49099v7.49099h11.00239h11.00239v10.7683c0,9.2701 -0.09364,10.7683 -0.70228,10.7683c-0.37455,0 -0.70228,-0.32773 -0.70228,-0.70228c0,-0.60864 -1.45138,-0.70228 -10.30011,-0.70228h-10.30011v3.27731c0,2.62184 0.14045,3.27731 0.70228,3.27731c0.37455,0 0.70228,0.32772 0.70228,0.70228c0,0.60864 -1.40456,0.70228 -9.83193,0.70228c-8.42736,0 -9.83193,-0.09364 -9.83193,-0.70228z"/><path d="M156.17117,126.15852c0,-0.37455 0.32773,-0.70228 0.70228,-0.70228c0.56183,0 0.70228,-0.7491 0.70228,-3.74549v-3.7455h-26.45256c-23.22207,0 -26.45256,0.09364 -26.45256,0.70228c0,0.37455 -0.32772,0.70228 -0.70227,0.70228c-0.60864,0 -0.70228,-1.63866 -0.70228,-11.93877c0,-10.30011 0.09364,-11.93877 0.70228,-11.93877c0.37455,0 0.70227,0.32773 0.70227,0.70228c0,0.60864 5.43097,0.70228 46.11641,0.70228c40.68543,0 46.11641,-0.09364 46.11641,-0.70228c0,-0.37455 0.32773,-0.70228 0.70228,-0.70228c0.60864,0 0.70228,1.63866 0.70228,11.93877c0,10.30011 -0.09364,11.93877 -0.70228,11.93877c-0.37455,0 -0.70228,-0.32773 -0.70228,-0.70228c0,-0.60864 -1.59182,-0.70228 -11.47058,-0.70228h-11.47058v3.7455c0,2.9964 0.14045,3.74549 0.70228,3.74549c0.37455,0 0.70228,0.32773 0.70228,0.70228c0,0.60864 -1.35774,0.70228 -9.59783,0.70228c-8.24009,0 -9.59783,-0.09364 -9.59783,-0.70228z"/><path d="M314.88651,109.58471c0,-5.10324 -0.14045,-10.58102 -0.28091,-12.17285c-0.32773,-2.71548 -0.28091,-2.85594 0.70228,-2.85594c0.7491,0 0.98319,0.28091 0.98319,1.17046v1.17047h11.47058c9.87875,0 11.47058,-0.09364 11.47058,-0.70228c0,-0.37455 0.32773,-0.70228 0.70228,-0.70228c0.60864,0 0.70228,1.59185 0.70228,11.70467c0,10.11284 -0.09364,11.70467 -0.70228,11.70467c-0.37455,0 -0.70228,-0.32773 -0.70228,-0.70228c0,-0.60864 -1.59184,-0.70228 -11.47058,-0.70228c-9.87875,0 -11.47058,0.09364 -11.47058,0.70228c0,0.37455 -0.32773,0.70228 -0.70228,0.70228c-0.60864,0 -0.70228,-1.35774 -0.70228,-9.31692z"/></g><path d="M220.40641,298.07675l-11.33013,-11.33013v-29.49577v-29.5426l8.38055,-8.05282l8.38054,-8.05282h23.92435h23.92435v48.92553v48.92553h-20.97477h-20.92795z" fill="#ff2727" stroke="none" stroke-width="1"/><path d="M285.29712,303.78862l-5.5246,-5.19688v-14.93516v-14.93516h26.68665h26.68665v14.93516v14.93516l-5.71187,5.19688l-5.71188,5.19688h-15.49699h-15.45016z" fill="#ff2727" stroke="none" stroke-width="1"/><path d="M339.23224,259.77905v-22.0516l5.47779,-5.80551l5.47779,-5.80551h18.86793h18.86793v16.33973v16.33973l-11.7983,11.5174l-11.84513,11.5174h-12.50059h-12.54741z" fill="#ff2727" stroke="none" stroke-width="1"/><path d="M61.45697,266.28686l-6.88234,-5.24369v-22.37933v-22.37933h25.048h25.04799v27.62303v27.62303h-18.16565h-18.21247z" fill="#ff2727" stroke="none" stroke-width="1"/><path d="M153.83023,225.88232v-29.26168h27.15484h27.15484v6.5078v6.5078l-6.78871,6.46098l-6.7887,6.46098v11.09603v11.09603l-5.47779,5.19687l-5.5246,5.19687h-14.84152h-14.88835z" fill="#ff2727" stroke="none" stroke-width="1"/><path d="M284.92257,208.79351v-23.87753h26.45256h26.45257v19.05521v19.10202l-4.77552,4.77551l-4.82232,4.82232h-21.63024h-21.67705z" fill="#ff2727" stroke="none" stroke-width="1"/><path d="M21.70791,212.86673l-9.2701,-5.71188l0.14046,-30.90034l0.09363,-30.90034l9.36373,-5.94598l9.36373,-5.99279h5.05642h5.0096v8.89555v8.89555h8.42736h8.42736v24.81391v24.81391h-8.42735h-8.42736v8.89555v8.89555l-5.24369,-0.04681l-5.29051,-0.04681z" fill="#ff2727" stroke="none" stroke-width="1"/><path d="M108.41612,177.05043v-23.3157l5.10324,-4.77552l5.10323,-4.77551h4.86915h4.82233l3.88595,3.88595l3.83913,3.83913v24.25208v24.20526h-13.81151h-13.8115z" fill="#ff2727" stroke="none" stroke-width="1"/><path d="M430.52868,168.76352v-24.57981h9.64465h9.64465l6.83553,5.94598c3.79231,3.23049 7.77191,6.74188 8.89555,7.81872l1.96638,1.87274v9.64465v9.64465l-8.70827,7.11645l-8.7551,7.11644h-9.73829h-9.78511z" fill="#ff2727" stroke="none" stroke-width="1"/><path d="M148.82063,178.78272l-4.35414,-5.71188v-23.7839v-23.83071h22.47297h22.47297v13.76469v13.7647l9.36373,9.03601l9.36374,9.03601v6.69506v6.69507h-27.48256h-27.52939z" fill="#ff2727" stroke="none" stroke-width="1"/><path d="M307.39554,168.90399l0.04681,-7.63145l8.38054,-8.89555c7.86554,-8.28691 8.42736,-8.98918 8.42736,-10.62783v-1.77911h11.00239h11.00239v18.2593v18.25929h-19.42975h-19.42976z" fill="#ff2727" stroke="none" stroke-width="1"/><path d="M210.3404,156.45021l-13.43696,-13.43696l0.04681,-35.5822l0.04683,-35.58219l10.90875,-10.62784l10.90875,-10.67466h32.86672h32.8199l15.87154,15.5438l15.87154,15.59062l0.04681,30.43215v30.43215l-13.67106,13.67105l-13.71787,13.71787h-32.53899h-32.53899z" fill="#ff2727" stroke="none" stroke-width="1"/><path d="M55.04282,117.16934v-21.91114l6.69507,-5.71187l6.64825,-5.71188l18.16565,-0.04681h18.11883v27.62303v27.62303h-24.8139h-24.81391z" fill="#ff2727" stroke="none" stroke-width="1"/><path d="M344.94413,125.64352l-5.71187,-5.43097l0.09364,-22.0516l0.14045,-22.09842l12.54741,-0.14045l12.54741,-0.09363l11.65785,11.33012l11.70467,11.37694v16.2929v16.24609h-18.58702h-18.63384z" fill="#ff2727" stroke="none" stroke-width="1"/></g></g></svg>