<svg version="1.1" xmlns="http://www.w3.org/2000/svg" xmlns:xlink="http://www.w3.org/1999/xlink" width="706.21021" height="368" viewBox="0,0,706.21021,368"><g transform="translate(23.10509,4)"><g data-paper-data="{&quot;isPaintingLayer&quot;:true}" fill-rule="nonzero" stroke-linejoin="miter" stroke-miterlimit="10" stroke-dasharray="" stroke-dashoffset="0" style="mix-blend-mode: normal"><path d="M-22.10509,363v-366h704.21021v366z" fill="#000000" stroke="#000000" stroke-width="2" stroke-linecap="butt"/><text transform="translate(220.00337,233.78196) scale(4.28135,4.28135)" font-size="40" xml:space="preserve" fill="#1c1c1c" fill-rule="nonzero" stroke="none" stroke-width="1" stroke-linecap="butt" stroke-linejoin="miter" stroke-miterlimit="10" stroke-dasharray="" stroke-dashoffset="0" font-family="Sans Serif" font-weight="normal" text-anchor="start" style="mix-blend-mode: normal"><tspan x="0" dy="0">xD</tspan></text><path d="M160.10255,178.87515l-4.44366,-6.87931c-0.71892,-1.11556 -1.07838,-1.89026 -1.07838,-2.32409c0,-0.43383 0.16733,-0.80569 0.502,-1.11556c0.33467,-0.30988 0.73751,-0.46482 1.20853,-0.46482c0.45862,0 0.81188,0.13015 1.05979,0.39045c0.2603,0.2603 0.67554,0.84287 1.24571,1.74772l3.38388,5.50345l3.43965,-5.50345c0.59497,-0.97921 1.0226,-1.58038 1.2829,-1.80349c0.27269,-0.22311 0.61976,-0.33467 1.04119,-0.33467c0.44623,0 0.82428,0.15494 1.13416,0.46482c0.32228,0.30988 0.48341,0.67554 0.48341,1.09697c0,0.40904 -0.35326,1.15895 -1.05979,2.24972l-4.53662,6.97227v4.96426c0,0.79329 -0.03719,1.36966 -0.11156,1.72912c-0.06198,0.35946 -0.2541,0.66934 -0.57637,0.92964c-0.32228,0.2603 -0.70032,0.39045 -1.13416,0.39045c-0.42143,0 -0.79949,-0.12395 -1.13416,-0.37185c-0.32228,-0.2479 -0.5206,-0.55158 -0.59497,-0.91104c-0.07437,-0.35946 -0.11156,-0.94823 -0.11156,-1.76631zM175.96447,173.13c2.09478,0 3.74334,0.64455 4.94566,1.93364c1.20233,1.2891 1.80349,2.93765 1.80349,4.94566c0,2.00801 -0.60736,3.65657 -1.82209,4.94566c-1.21473,1.2891 -2.82609,1.93364 -4.83411,1.93364c-2.18155,0 -3.86729,-0.65075 -5.05722,-1.95224c-1.18993,-1.31388 -1.7849,-2.95624 -1.7849,-4.92707c0,-2.00801 0.60117,-3.65657 1.80349,-4.94566c1.20233,-1.2891 2.85089,-1.93364 4.94566,-1.93364zM175.96447,184.36c1.0288,0 1.84068,-0.38425 2.43565,-1.15275c0.59497,-0.7685 0.89245,-1.83448 0.89245,-3.19795c0,-1.37586 -0.29748,-2.44804 -0.89245,-3.21654c-0.59497,-0.78089 -1.40685,-1.17134 -2.43565,-1.17134c-1.00401,0 -1.80969,0.39045 -2.41705,1.17134c-0.60736,0.78089 -0.91104,1.85307 -0.91104,3.21654c0,1.36347 0.29748,2.42945 0.89245,3.19795c0.60736,0.7685 1.41925,1.15275 2.43565,1.15275zM185.28806,181.84998v-5.93108c0,-0.74371 0.02479,-1.2767 0.07437,-1.59897c0.06198,-0.32228 0.23551,-0.60117 0.5206,-0.83667c0.29748,-0.23551 0.65694,-0.35326 1.07838,-0.35326c0.39665,0 0.74371,0.11156 1.04119,0.33467c0.29748,0.22311 0.48341,0.5144 0.55778,0.87386c0.07437,0.35946 0.11156,0.91104 0.11156,1.65475v4.64818c0,1.5246 0.23551,2.50382 0.70652,2.93765c0.47102,0.42143 0.99161,0.63215 1.56179,0.63215c0.65694,0 1.22712,-0.17973 1.71053,-0.53919c0.4958,-0.37185 0.83047,-0.81188 1.00401,-1.32008c0.18593,-0.5206 0.27889,-1.5432 0.27889,-3.0678v-3.36528c0,-0.71892 0.03099,-1.24571 0.09296,-1.58038c0.07437,-0.34706 0.2603,-0.63215 0.55778,-0.85527c0.29748,-0.23551 0.65075,-0.35326 1.05979,-0.35326c0.38425,0 0.72512,0.11156 1.0226,0.33467c0.30988,0.22311 0.4958,0.502 0.55778,0.83667c0.06198,0.33467 0.09296,0.87386 0.09296,1.61757v8.34813c0,0.68173 -0.03719,1.17754 -0.11156,1.48742c-0.06198,0.30988 -0.22311,0.57637 -0.48341,0.79949c-0.2603,0.22311 -0.58877,0.33467 -0.98541,0.33467c-1.09077,0 -1.61137,-0.78089 -1.56179,-2.34268c-1.14036,1.56179 -2.63397,2.34268 -4.48085,2.34268c-1.22712,0 -2.26831,-0.36565 -3.12358,-1.09697c-0.85527,-0.73132 -1.2829,-2.0452 -1.2829,-3.94166zM212.55803,182.79821l2.00801,-7.00946c0.2603,-0.86766 0.45242,-1.43164 0.57637,-1.69194c0.12395,-0.27269 0.33467,-0.502 0.63215,-0.68793c0.30988,-0.18593 0.65075,-0.27889 1.0226,-0.27889c0.59497,0 1.0288,0.15494 1.30149,0.46482c0.28509,0.30988 0.60117,1.04119 0.94823,2.19394l2.02661,7.00946l2.19394,-7.56724c0.23551,-0.79329 0.45862,-1.33868 0.66934,-1.63616c0.22311,-0.30988 0.59497,-0.46482 1.11556,-0.46482c0.39665,0 0.74371,0.14254 1.04119,0.42763c0.29748,0.28509 0.44623,0.61356 0.44623,0.98541c0,0.29748 -0.12395,0.81808 -0.37185,1.56179l-2.77032,8.10643c-0.29748,0.86766 -0.5268,1.43784 -0.68793,1.71053c-0.14874,0.27269 -0.37185,0.502 -0.66934,0.68793c-0.29748,0.18593 -0.61976,0.27889 -0.96682,0.27889c-0.70652,0 -1.20853,-0.21072 -1.50601,-0.63215c-0.28509,-0.42143 -0.57017,-1.14036 -0.85527,-2.15676l-1.91505,-6.58182l-1.87786,6.58182c-0.23551,0.85527 -0.42763,1.43784 -0.57637,1.74772c-0.14874,0.29748 -0.38425,0.54539 -0.70652,0.74371c-0.30988,0.19832 -0.65694,0.29748 -1.04119,0.29748c-0.35946,0 -0.69413,-0.09296 -1.00401,-0.27889c-0.30988,-0.17353 -0.53919,-0.39665 -0.68793,-0.66934c-0.14874,-0.28509 -0.37185,-0.86146 -0.66934,-1.72912l-2.77032,-8.10643c-0.2603,-0.71892 -0.39045,-1.23951 -0.39045,-1.56179c0,-0.37185 0.14254,-0.70032 0.42763,-0.98541c0.29748,-0.28509 0.65694,-0.42763 1.07838,-0.42763c0.5206,0 0.88006,0.14874 1.07838,0.44623c0.21072,0.29748 0.43383,0.84907 0.66934,1.65475zM237.98786,180.82738h-6.6376c0.02479,1.26431 0.36565,2.21873 1.0226,2.86328c0.65694,0.63215 1.44403,0.94823 2.36128,0.94823c1.14036,0 2.20633,-0.4958 3.19795,-1.48742c0.40904,-0.40904 0.70652,-0.66314 0.89245,-0.7623c0.19832,-0.09916 0.42143,-0.14874 0.66934,-0.14874c0.29748,0 0.55158,0.09296 0.7623,0.27889c0.22311,0.18593 0.33467,0.42143 0.33467,0.70652c0,0.7561 -0.5206,1.55559 -1.56179,2.39846c-1.0288,0.84287 -2.43565,1.26431 -4.22055,1.26431c-2.25592,0 -3.97264,-0.63835 -5.15018,-1.91505c-1.16514,-1.2767 -1.74772,-2.93145 -1.74772,-4.96426c0,-2.05759 0.58257,-3.71854 1.74772,-4.98285c1.17754,-1.26431 2.8075,-1.89646 4.88989,-1.89646c1.98322,0 3.51402,0.60117 4.5924,1.80349c1.09077,1.18993 1.63616,2.48523 1.63616,3.88588c0,0.61976 -0.17973,1.10936 -0.53919,1.46882c-0.35946,0.35946 -1.10936,0.53919 -2.24972,0.53919zM231.35027,178.91233h6.15419c-0.03719,-1.12796 -0.34706,-1.98322 -0.92964,-2.5658c-0.58257,-0.59497 -1.29529,-0.89245 -2.13816,-0.89245c-1.79729,0 -2.82609,1.15275 -3.08639,3.45825zM243.60538,184.08111v-8.6828c0,-1.51221 0.55778,-2.26831 1.67334,-2.26831c1.06598,0 1.61137,0.70032 1.63616,2.10098c0.69413,-1.40065 1.66095,-2.10098 2.90046,-2.10098c0.65694,0 1.33248,0.17353 2.02661,0.5206c0.70652,0.33467 1.05979,0.79949 1.05979,1.39445c0,0.40904 -0.14254,0.74991 -0.42763,1.0226c-0.28509,0.27269 -0.58877,0.40904 -0.91104,0.40904c-0.17353,0 -0.502,-0.07437 -0.98541,-0.22311c-0.47102,-0.14874 -0.86766,-0.22311 -1.18993,-0.22311c-0.80569,0 -1.40685,0.40904 -1.80349,1.22712c-0.39665,0.81808 -0.59497,2.39846 -0.59497,4.74114v1.95224c0,0.86766 -0.03719,1.45023 -0.11156,1.74772c-0.07437,0.29748 -0.2603,0.57017 -0.55778,0.81808c-0.29748,0.2479 -0.63835,0.37185 -1.0226,0.37185c-0.37185,0 -0.70652,-0.11156 -1.00401,-0.33467c-0.29748,-0.22311 -0.48961,-0.48341 -0.57637,-0.78089c-0.07437,-0.29748 -0.11156,-0.86146 -0.11156,-1.69194zM263.55265,180.82738h-6.6376c0.02479,1.26431 0.36565,2.21873 1.0226,2.86328c0.65694,0.63215 1.44403,0.94823 2.36128,0.94823c1.14036,0 2.20633,-0.4958 3.19795,-1.48742c0.40904,-0.40904 0.70652,-0.66314 0.89245,-0.7623c0.19832,-0.09916 0.42143,-0.14874 0.66934,-0.14874c0.29748,0 0.55158,0.09296 0.7623,0.27889c0.22311,0.18593 0.33467,0.42143 0.33467,0.70652c0,0.7561 -0.5206,1.55559 -1.56179,2.39846c-1.0288,0.84287 -2.43565,1.26431 -4.22055,1.26431c-2.25592,0 -3.97264,-0.63835 -5.15018,-1.91505c-1.16514,-1.2767 -1.74772,-2.93145 -1.74772,-4.96426c0,-2.05759 0.58257,-3.71854 1.74772,-4.98285c1.17754,-1.26431 2.8075,-1.89646 4.88989,-1.89646c1.98322,0 3.51402,0.60117 4.5924,1.80349c1.09077,1.18993 1.63616,2.48523 1.63616,3.88588c0,0.61976 -0.17973,1.10936 -0.53919,1.46882c-0.35946,0.35946 -1.10936,0.53919 -2.24972,0.53919zM256.91504,178.91233h6.15419c-0.03719,-1.12796 -0.34706,-1.98322 -0.92964,-2.5658c-0.58257,-0.59497 -1.29529,-0.89245 -2.13816,-0.89245c-1.79729,0 -2.82609,1.15275 -3.08639,3.45825zM282.17086,180.41834l-1.85927,1.74772v1.63616c0,0.83047 -0.03099,1.42544 -0.09296,1.7849c-0.04958,0.34706 -0.22931,0.65075 -0.53919,0.91104c-0.29748,0.2603 -0.65694,0.39045 -1.07838,0.39045c-0.37185,0 -0.71272,-0.11156 -1.0226,-0.33467c-0.29748,-0.23551 -0.48341,-0.5082 -0.55778,-0.81808c-0.06198,-0.32228 -0.09296,-0.90484 -0.09296,-1.74772v-12.94053c0,-1.22712 0.14874,-2.02661 0.44623,-2.39846c0.30988,-0.37185 0.7561,-0.55778 1.33868,-0.55778c0.42143,0 0.7623,0.12395 1.0226,0.37185c0.2603,0.23551 0.42143,0.5268 0.48341,0.87386c0.06198,0.33467 0.09296,0.87386 0.09296,1.61757v7.45568l3.8301,-3.97884c0.58257,-0.60736 0.97921,-0.97302 1.18993,-1.09697c0.22311,-0.13635 0.47721,-0.20452 0.7623,-0.20452c0.43383,0 0.79329,0.14254 1.07838,0.42763c0.28509,0.27269 0.42763,0.57637 0.42763,0.91104c0,0.4958 -0.47102,1.17754 -1.41305,2.0452l-1.76631,1.65475l3.43965,5.44767c0.4958,0.79329 0.74371,1.36347 0.74371,1.71053c0,0.39665 -0.14254,0.7561 -0.42763,1.07838c-0.28509,0.32228 -0.67554,0.48341 -1.17134,0.48341c-0.40904,0 -0.74371,-0.12395 -1.00401,-0.37185c-0.2479,-0.2479 -0.53919,-0.64455 -0.87386,-1.18993zM292.34994,168.24011c0.43383,0 0.81188,0.16733 1.13416,0.502c0.32228,0.33467 0.48341,0.71892 0.48341,1.15275c0,0.45862 -0.16113,0.84907 -0.48341,1.17134c-0.32228,0.32228 -0.70032,0.48341 -1.13416,0.48341c-0.45862,0 -0.84907,-0.16113 -1.17134,-0.48341c-0.32228,-0.32228 -0.48341,-0.71272 -0.48341,-1.17134c0,-0.44623 0.16113,-0.83047 0.48341,-1.15275c0.32228,-0.33467 0.71272,-0.502 1.17134,-0.502zM294.02327,175.88172v8.19939c0,0.80569 -0.03719,1.35727 -0.11156,1.65475c-0.07437,0.29748 -0.2665,0.56398 -0.57637,0.79949c-0.29748,0.23551 -0.62595,0.35326 -0.98541,0.35326c-0.35946,0 -0.70032,-0.11156 -1.0226,-0.33467c-0.30988,-0.23551 -0.502,-0.502 -0.57637,-0.79949c-0.07437,-0.30988 -0.11156,-0.86766 -0.11156,-1.67334v-8.1622c0,-0.7561 0.02479,-1.2891 0.07437,-1.59897c0.06198,-0.30988 0.24171,-0.58257 0.53919,-0.81808c0.30988,-0.2479 0.66314,-0.37185 1.05979,-0.37185c0.40904,0 0.7561,0.11156 1.04119,0.33467c0.28509,0.21072 0.46482,0.48341 0.53919,0.81808c0.08676,0.33467 0.13015,0.86766 0.13015,1.59897zM308.20785,181.21783c0.40904,0 0.74991,0.16113 1.0226,0.48341c0.27269,0.32228 0.40904,0.65075 0.40904,0.98541c0,0.91724 -0.55158,1.84688 -1.65475,2.78891c-1.09077,0.94203 -2.5534,1.41305 -4.38788,1.41305c-2.23113,0 -3.91067,-0.63215 -5.03863,-1.89646c-1.12796,-1.26431 -1.69194,-2.90046 -1.69194,-4.90848c0,-2.0452 0.58257,-3.71234 1.74772,-5.00144c1.17754,-1.30149 2.85089,-1.95224 5.02003,-1.95224c1.68574,0 3.08019,0.44003 4.18336,1.32008c1.10317,0.88006 1.65475,1.74772 1.65475,2.60298c0,0.40904 -0.14874,0.7561 -0.44623,1.04119c-0.29748,0.27269 -0.64455,0.40904 -1.04119,0.40904c-0.4958,0 -0.88625,-0.21072 -1.17134,-0.63215c-0.61976,-0.94203 -1.17134,-1.537 -1.65475,-1.7849c-0.47102,-0.2603 -0.98541,-0.39045 -1.5432,-0.39045c-1.07838,0 -1.91505,0.41524 -2.51002,1.24571c-0.58257,0.83047 -0.87386,1.86547 -0.87386,3.10498c0,1.2767 0.30368,2.31789 0.91104,3.12358c0.61976,0.79329 1.44403,1.18993 2.47283,1.18993c0.58257,0 1.12176,-0.13635 1.61757,-0.40904c0.4958,-0.27269 0.92344,-0.68793 1.2829,-1.24571c0.35946,-0.55778 0.64455,-0.94203 0.85527,-1.15275c0.21072,-0.22311 0.48961,-0.33467 0.83667,-0.33467zM317.07909,180.41834l-1.85927,1.74772v1.63616c0,0.83047 -0.03099,1.42544 -0.09296,1.7849c-0.04958,0.34706 -0.22931,0.65075 -0.53919,0.91104c-0.29748,0.2603 -0.65694,0.39045 -1.07838,0.39045c-0.37185,0 -0.71272,-0.11156 -1.0226,-0.33467c-0.29748,-0.23551 -0.48341,-0.5082 -0.55778,-0.81808c-0.06198,-0.32228 -0.09296,-0.90484 -0.09296,-1.74772v-12.94053c0,-1.22712 0.14874,-2.02661 0.44623,-2.39846c0.30988,-0.37185 0.7561,-0.55778 1.33868,-0.55778c0.42143,0 0.7623,0.12395 1.0226,0.37185c0.2603,0.23551 0.42143,0.5268 0.48341,0.87386c0.06198,0.33467 0.09296,0.87386 0.09296,1.61757v7.45568l3.8301,-3.97884c0.58257,-0.60736 0.97921,-0.97302 1.18993,-1.09697c0.22311,-0.13635 0.47721,-0.20452 0.7623,-0.20452c0.43383,0 0.79329,0.14254 1.07838,0.42763c0.28509,0.27269 0.42763,0.57637 0.42763,0.91104c0,0.4958 -0.47102,1.17754 -1.41305,2.0452l-1.76631,1.65475l3.43965,5.44767c0.4958,0.79329 0.74371,1.36347 0.74371,1.71053c0,0.39665 -0.14254,0.7561 -0.42763,1.07838c-0.28509,0.32228 -0.67554,0.48341 -1.17134,0.48341c-0.40904,0 -0.74371,-0.12395 -1.00401,-0.37185c-0.2479,-0.2479 -0.53919,-0.64455 -0.87386,-1.18993zM334.65804,180.82738h-6.6376c0.02479,1.26431 0.36565,2.21873 1.0226,2.86328c0.65694,0.63215 1.44403,0.94823 2.36128,0.94823c1.14036,0 2.20633,-0.4958 3.19795,-1.48742c0.40904,-0.40904 0.70652,-0.66314 0.89245,-0.7623c0.19832,-0.09916 0.42143,-0.14874 0.66934,-0.14874c0.29748,0 0.55158,0.09296 0.7623,0.27889c0.22311,0.18593 0.33467,0.42143 0.33467,0.70652c0,0.7561 -0.5206,1.55559 -1.56179,2.39846c-1.0288,0.84287 -2.43565,1.26431 -4.22055,1.26431c-2.25592,0 -3.97264,-0.63835 -5.15018,-1.91505c-1.16514,-1.2767 -1.74772,-2.93145 -1.74772,-4.96426c0,-2.05759 0.58257,-3.71854 1.74772,-4.98285c1.17754,-1.26431 2.8075,-1.89646 4.88989,-1.89646c1.98322,0 3.51402,0.60117 4.5924,1.80349c1.09077,1.18993 1.63616,2.48523 1.63616,3.88588c0,0.61976 -0.17973,1.10936 -0.53919,1.46882c-0.35946,0.35946 -1.10936,0.53919 -2.24972,0.53919zM328.02044,178.91233h6.15419c-0.03719,-1.12796 -0.34706,-1.98322 -0.92964,-2.5658c-0.58257,-0.59497 -1.29529,-0.89245 -2.13816,-0.89245c-1.79729,0 -2.82609,1.15275 -3.08639,3.45825zM349.53476,184.95497v-0.33467c-1.16514,1.51221 -2.64017,2.26831 -4.42507,2.26831c-1.72292,0 -3.09878,-0.65694 -4.12758,-1.97083c-1.0164,-1.31388 -1.5246,-3.01202 -1.5246,-5.09441c0,-1.97083 0.4958,-3.576 1.48742,-4.81551c1.00401,-1.25191 2.38607,-1.87786 4.14618,-1.87786c1.71053,0 3.19175,0.68793 4.44366,2.06379v-4.38788c0,-1.21473 0.15494,-1.97083 0.46482,-2.26831c0.30988,-0.29748 0.72512,-0.44623 1.24571,-0.44623c0.35946,0 0.68793,0.10536 0.98541,0.31608c0.30988,0.21072 0.4958,0.48961 0.55778,0.83667c0.07437,0.33467 0.11156,0.89245 0.11156,1.67334v13.33098c0,0.74371 -0.03719,1.2767 -0.11156,1.59897c-0.07437,0.32228 -0.2665,0.57637 -0.57637,0.7623c-0.30988,0.18593 -0.64455,0.27889 -1.00401,0.27889c-1.11556,0 -1.67334,-0.64455 -1.67334,-1.93364zM342.87857,179.91634c0,1.5246 0.32228,2.63397 0.96682,3.3281c0.64455,0.69413 1.37586,1.04119 2.19394,1.04119c0.95443,0 1.74152,-0.35946 2.36128,-1.07838c0.63215,-0.73132 0.94823,-1.74772 0.94823,-3.04921c0,-1.36347 -0.30368,-2.44804 -0.91104,-3.25373c-0.60736,-0.81808 -1.41925,-1.22712 -2.43565,-1.22712c-0.91724,0 -1.66715,0.37805 -2.24972,1.13416c-0.58257,0.74371 -0.87386,1.7787 -0.87386,3.10498zM364.19251,173.42748v-0.98541c0,-1.73532 0.35946,-2.89426 1.07838,-3.47684c0.71892,-0.58257 1.74772,-0.87386 3.08639,-0.87386c2.15676,0 3.23513,0.48341 3.23513,1.45023c0,0.29748 -0.10536,0.56398 -0.31608,0.79949c-0.19832,0.23551 -0.46482,0.35326 -0.79949,0.35326c-0.07437,0 -0.29748,-0.02479 -0.66934,-0.07437c-0.35946,-0.04958 -0.57017,-0.07437 -0.63215,-0.07437c-0.47102,0 -0.85527,0.12395 -1.15275,0.37185c-0.29748,0.2479 -0.44623,0.81808 -0.44623,1.71053v0.79949h0.85527c1.2767,0 1.91505,0.39665 1.91505,1.18993c0,0.38425 -0.12395,0.68793 -0.37185,0.91104c-0.23551,0.22311 -0.74991,0.33467 -1.5432,0.33467h-0.85527v8.21798c0,0.63215 -0.02479,1.11556 -0.07437,1.45023c-0.04958,0.32228 -0.19832,0.63215 -0.44623,0.92964c-0.2479,0.28509 -0.63215,0.42763 -1.15275,0.42763c-0.54539,0 -0.96682,-0.17353 -1.26431,-0.5206c-0.29748,-0.35946 -0.44623,-1.12176 -0.44623,-2.2869v-8.21798h-0.92964c-1.0288,0 -1.5432,-0.41524 -1.5432,-1.24571c0,-0.79329 0.56398,-1.18993 1.69194,-1.18993zM377.71973,173.13c2.09478,0 3.74334,0.64455 4.94566,1.93364c1.20233,1.2891 1.80349,2.93765 1.80349,4.94566c0,2.00801 -0.60736,3.65657 -1.82209,4.94566c-1.21473,1.2891 -2.82609,1.93364 -4.83411,1.93364c-2.18155,0 -3.86729,-0.65075 -5.05722,-1.95224c-1.18993,-1.31388 -1.7849,-2.95624 -1.7849,-4.92707c0,-2.00801 0.60117,-3.65657 1.80349,-4.94566c1.20233,-1.2891 2.85089,-1.93364 4.94566,-1.93364zM377.71973,184.36c1.0288,0 1.84068,-0.38425 2.43565,-1.15275c0.59497,-0.7685 0.89245,-1.83448 0.89245,-3.19795c0,-1.37586 -0.29748,-2.44804 -0.89245,-3.21654c-0.59497,-0.78089 -1.40685,-1.17134 -2.43565,-1.17134c-1.00401,0 -1.80969,0.39045 -2.41705,1.17134c-0.60736,0.78089 -0.91104,1.85307 -0.91104,3.21654c0,1.36347 0.29748,2.42945 0.89245,3.19795c0.60736,0.7685 1.41925,1.15275 2.43565,1.15275zM387.11772,184.08111v-8.6828c0,-1.51221 0.55778,-2.26831 1.67334,-2.26831c1.06598,0 1.61137,0.70032 1.63616,2.10098c0.69413,-1.40065 1.66095,-2.10098 2.90046,-2.10098c0.65694,0 1.33248,0.17353 2.02661,0.5206c0.70652,0.33467 1.05979,0.79949 1.05979,1.39445c0,0.40904 -0.14254,0.74991 -0.42763,1.0226c-0.28509,0.27269 -0.58877,0.40904 -0.91104,0.40904c-0.17353,0 -0.502,-0.07437 -0.98541,-0.22311c-0.47102,-0.14874 -0.86766,-0.22311 -1.18993,-0.22311c-0.80569,0 -1.40685,0.40904 -1.80349,1.22712c-0.39665,0.81808 -0.59497,2.39846 -0.59497,4.74114v1.95224c0,0.86766 -0.03719,1.45023 -0.11156,1.74772c-0.07437,0.29748 -0.2603,0.57017 -0.55778,0.81808c-0.29748,0.2479 -0.63835,0.37185 -1.0226,0.37185c-0.37185,0 -0.70652,-0.11156 -1.00401,-0.33467c-0.29748,-0.22311 -0.48961,-0.48341 -0.57637,-0.78089c-0.07437,-0.29748 -0.11156,-0.86146 -0.11156,-1.69194zM417.76014,178.33596v6.17278c0,1.58658 -0.57017,2.37987 -1.71053,2.37987c-0.5206,0 -0.92964,-0.16733 -1.22712,-0.502c-0.28509,-0.33467 -0.42763,-0.96062 -0.42763,-1.87786v-5.39189c0,-1.2891 -0.20452,-2.16915 -0.61356,-2.64017c-0.40904,-0.47102 -0.97302,-0.70652 -1.69194,-0.70652c-0.64455,0 -1.20853,0.17973 -1.69194,0.53919c-0.47102,0.34706 -0.80569,0.78089 -1.00401,1.30149c-0.19832,0.5206 -0.29748,1.43164 -0.29748,2.73313v3.92306c0,1.05359 -0.15494,1.75392 -0.46482,2.10098c-0.29748,0.34706 -0.71272,0.5206 -1.24571,0.5206c-0.5206,0 -0.92964,-0.16733 -1.22712,-0.502c-0.29748,-0.33467 -0.44623,-1.0226 -0.44623,-2.06379v-13.44254c0,-0.81808 0.03719,-1.38206 0.11156,-1.69194c0.08676,-0.32228 0.2665,-0.58257 0.53919,-0.78089c0.28509,-0.21072 0.61976,-0.31608 1.00401,-0.31608c0.42143,0 0.77469,0.11776 1.05979,0.35326c0.28509,0.23551 0.46482,0.53919 0.53919,0.91104c0.08676,0.35946 0.13015,0.96682 0.13015,1.82209v3.99744c1.12796,-1.36347 2.50382,-2.0452 4.12758,-2.0452c1.36347,0 2.46044,0.42143 3.29091,1.26431c0.83047,0.83047 1.24571,2.14436 1.24571,3.94166zM429.66819,184.97356c-1.61137,1.2767 -3.19175,1.91505 -4.74114,1.91505c-1.46263,0 -2.58439,-0.37185 -3.36528,-1.11556c-0.78089,-0.74371 -1.17134,-1.65475 -1.17134,-2.73313c0,-0.91724 0.2665,-1.65475 0.79949,-2.21253c0.53299,-0.57017 1.10936,-0.96682 1.72912,-1.18993c0.63215,-0.22311 1.65475,-0.48341 3.0678,-0.78089c1.42544,-0.29748 2.572,-0.57017 3.43965,-0.81808c-0.01239,-1.0164 -0.21691,-1.70433 -0.61356,-2.06379c-0.39665,-0.35946 -0.99781,-0.53919 -1.80349,-0.53919c-1.537,0 -2.541,0.42763 -3.01202,1.2829c-0.27269,0.48341 -0.5144,0.83047 -0.72512,1.04119c-0.19832,0.21072 -0.48961,0.31608 -0.87386,0.31608c-0.35946,0 -0.68793,-0.11776 -0.98541,-0.35326c-0.28509,-0.23551 -0.42763,-0.53919 -0.42763,-0.91104c0,-0.88006 0.47721,-1.71053 1.43164,-2.49142c0.95443,-0.79329 2.44804,-1.18993 4.48085,-1.18993c2.06999,0 3.5822,0.35946 4.53662,1.07838c0.95443,0.70652 1.40685,2.14436 1.35727,4.31351l-0.07437,3.17936c-0.03719,0.97921 0.06198,1.7787 0.29748,2.39846c0.23551,0.61976 0.35326,1.09697 0.35326,1.43164c0,0.35946 -0.16113,0.67554 -0.48341,0.94823c-0.30988,0.27269 -0.65694,0.40904 -1.04119,0.40904c-0.69413,0 -1.41925,-0.63835 -2.17535,-1.91505zM429.44508,180.08368c-0.5082,0.19832 -1.34488,0.41524 -2.51002,0.65075c-1.15275,0.22311 -1.97083,0.48341 -2.45424,0.78089c-0.48341,0.29748 -0.72512,0.73132 -0.72512,1.30149c0,0.48341 0.19213,0.91104 0.57637,1.2829c0.38425,0.37185 0.92964,0.55778 1.63616,0.55778c0.74371,0 1.43164,-0.20452 2.06379,-0.61356c0.64455,-0.40904 1.04119,-0.89245 1.18993,-1.45023c0.14874,-0.55778 0.22311,-1.39445 0.22311,-2.51002zM446.88752,181.21783c0.40904,0 0.74991,0.16113 1.0226,0.48341c0.27269,0.32228 0.40904,0.65075 0.40904,0.98541c0,0.91724 -0.55158,1.84688 -1.65475,2.78891c-1.09077,0.94203 -2.5534,1.41305 -4.38788,1.41305c-2.23113,0 -3.91067,-0.63215 -5.03863,-1.89646c-1.12796,-1.26431 -1.69194,-2.90046 -1.69194,-4.90848c0,-2.0452 0.58257,-3.71234 1.74772,-5.00144c1.17754,-1.30149 2.85089,-1.95224 5.02003,-1.95224c1.68574,0 3.08019,0.44003 4.18336,1.32008c1.10317,0.88006 1.65475,1.74772 1.65475,2.60298c0,0.40904 -0.14874,0.7561 -0.44623,1.04119c-0.29748,0.27269 -0.64455,0.40904 -1.04119,0.40904c-0.4958,0 -0.88625,-0.21072 -1.17134,-0.63215c-0.61976,-0.94203 -1.17134,-1.537 -1.65475,-1.7849c-0.47102,-0.2603 -0.98541,-0.39045 -1.5432,-0.39045c-1.07838,0 -1.91505,0.41524 -2.51002,1.24571c-0.58257,0.83047 -0.87386,1.86547 -0.87386,3.10498c0,1.2767 0.30368,2.31789 0.91104,3.12358c0.61976,0.79329 1.44403,1.18993 2.47283,1.18993c0.58257,0 1.12176,-0.13635 1.61757,-0.40904c0.4958,-0.27269 0.92344,-0.68793 1.2829,-1.24571c0.35946,-0.55778 0.64455,-0.94203 0.85527,-1.15275c0.21072,-0.22311 0.48961,-0.33467 0.83667,-0.33467zM455.75879,180.41834l-1.85927,1.74772v1.63616c0,0.83047 -0.03099,1.42544 -0.09296,1.7849c-0.04958,0.34706 -0.22931,0.65075 -0.53919,0.91104c-0.29748,0.2603 -0.65694,0.39045 -1.07838,0.39045c-0.37185,0 -0.71272,-0.11156 -1.0226,-0.33467c-0.29748,-0.23551 -0.48341,-0.5082 -0.55778,-0.81808c-0.06198,-0.32228 -0.09296,-0.90484 -0.09296,-1.74772v-12.94053c0,-1.22712 0.14874,-2.02661 0.44623,-2.39846c0.30988,-0.37185 0.7561,-0.55778 1.33868,-0.55778c0.42143,0 0.7623,0.12395 1.0226,0.37185c0.2603,0.23551 0.42143,0.5268 0.48341,0.87386c0.06198,0.33467 0.09296,0.87386 0.09296,1.61757v7.45568l3.8301,-3.97884c0.58257,-0.60736 0.97921,-0.97302 1.18993,-1.09697c0.22311,-0.13635 0.47721,-0.20452 0.7623,-0.20452c0.43383,0 0.79329,0.14254 1.07838,0.42763c0.28509,0.27269 0.42763,0.57637 0.42763,0.91104c0,0.4958 -0.47102,1.17754 -1.41305,2.0452l-1.76631,1.65475l3.43965,5.44767c0.4958,0.79329 0.74371,1.36347 0.74371,1.71053c0,0.39665 -0.14254,0.7561 -0.42763,1.07838c-0.28509,0.32228 -0.67554,0.48341 -1.17134,0.48341c-0.40904,0 -0.74371,-0.12395 -1.00401,-0.37185c-0.2479,-0.2479 -0.53919,-0.64455 -0.87386,-1.18993zM465.93787,168.24011c0.43383,0 0.81188,0.16733 1.13416,0.502c0.32228,0.33467 0.48341,0.71892 0.48341,1.15275c0,0.45862 -0.16113,0.84907 -0.48341,1.17134c-0.32228,0.32228 -0.70032,0.48341 -1.13416,0.48341c-0.45862,0 -0.84907,-0.16113 -1.17134,-0.48341c-0.32228,-0.32228 -0.48341,-0.71272 -0.48341,-1.17134c0,-0.44623 0.16113,-0.83047 0.48341,-1.15275c0.32228,-0.33467 0.71272,-0.502 1.17134,-0.502zM467.61121,175.88172v8.19939c0,0.80569 -0.03719,1.35727 -0.11156,1.65475c-0.07437,0.29748 -0.2665,0.56398 -0.57637,0.79949c-0.29748,0.23551 -0.62595,0.35326 -0.98541,0.35326c-0.35946,0 -0.70032,-0.11156 -1.0226,-0.33467c-0.30988,-0.23551 -0.502,-0.502 -0.57637,-0.79949c-0.07437,-0.30988 -0.11156,-0.86766 -0.11156,-1.67334v-8.1622c0,-0.7561 0.02479,-1.2891 0.07437,-1.59897c0.06198,-0.30988 0.24171,-0.58257 0.53919,-0.81808c0.30988,-0.2479 0.66314,-0.37185 1.05979,-0.37185c0.40904,0 0.7561,0.11156 1.04119,0.33467c0.28509,0.21072 0.46482,0.48341 0.53919,0.81808c0.08676,0.33467 0.13015,0.86766 0.13015,1.59897zM483.0415,178.52189v5.55922c0,0.71892 -0.03099,1.24571 -0.09296,1.58038c-0.06198,0.32228 -0.24171,0.60736 -0.53919,0.85527c-0.28509,0.2479 -0.63215,0.37185 -1.04119,0.37185c-0.35946,0 -0.70032,-0.11156 -1.0226,-0.33467c-0.30988,-0.22311 -0.502,-0.5082 -0.57637,-0.85527c-0.07437,-0.34706 -0.11156,-0.88625 -0.11156,-1.61757v-4.87129c0,-1.35107 -0.20452,-2.26211 -0.61356,-2.73313c-0.39665,-0.47102 -0.95443,-0.70652 -1.67334,-0.70652c-0.64455,0 -1.20853,0.18593 -1.69194,0.55778c-0.48341,0.37185 -0.82428,0.83667 -1.0226,1.39445c-0.19832,0.55778 -0.29748,1.51221 -0.29748,2.86328v3.49543c0,0.70652 -0.03099,1.22092 -0.09296,1.5432c-0.04958,0.32228 -0.22931,0.61356 -0.53919,0.87386c-0.29748,0.2603 -0.64455,0.39045 -1.04119,0.39045c-0.37185,0 -0.71892,-0.11156 -1.04119,-0.33467c-0.30988,-0.23551 -0.502,-0.5206 -0.57637,-0.85527c-0.06198,-0.34706 -0.09296,-0.88625 -0.09296,-1.61757v-8.34813c0,-0.74371 0.03719,-1.26431 0.11156,-1.56179c0.07437,-0.29748 0.2541,-0.54539 0.53919,-0.74371c0.28509,-0.19832 0.60117,-0.29748 0.94823,-0.29748c0.33467,0 0.68173,0.13015 1.04119,0.39045c0.35946,0.2603 0.53919,0.88625 0.53919,1.87786c1.12796,-1.51221 2.58439,-2.26831 4.36929,-2.26831c0.66934,0 1.33248,0.13015 1.98942,0.39045c0.66934,0.2479 1.20853,0.66314 1.61757,1.24571c0.42143,0.57017 0.67554,1.16514 0.7623,1.7849c0.09916,0.60736 0.14874,1.26431 0.14874,1.97083zM495.71179,175.43549v-0.46482c0,-0.60736 0.14874,-1.06598 0.44623,-1.37586c0.29748,-0.30988 0.68173,-0.46482 1.15275,-0.46482c0.5082,0 0.89865,0.17973 1.17134,0.53919c0.27269,0.35946 0.40904,1.13416 0.40904,2.32409v9.07325c0,2.70214 -0.57017,4.51803 -1.71053,5.44767c-1.12796,0.92964 -2.76412,1.39445 -4.90848,1.39445c-1.92125,0 -3.42726,-0.35946 -4.51803,-1.07838c-1.07838,-0.70652 -1.61757,-1.45643 -1.61757,-2.24972c0,-0.43383 0.14254,-0.78089 0.42763,-1.04119c0.28509,-0.2603 0.61976,-0.39045 1.00401,-0.39045c0.35946,0 0.64455,0.08676 0.85527,0.2603c0.21072,0.17353 0.56398,0.57637 1.05979,1.20853c0.5082,0.63215 1.36347,0.94823 2.5658,0.94823c0.65694,0 1.2705,-0.10536 1.84068,-0.31608c0.57017,-0.19832 0.98541,-0.56398 1.24571,-1.09697c0.27269,-0.5206 0.40284,-1.7911 0.39045,-3.81151c-1.04119,1.48742 -2.45424,2.23113 -4.23914,2.23113c-1.73532,0 -3.10498,-0.64455 -4.10899,-1.93364c-1.00401,-1.30149 -1.50601,-2.95624 -1.50601,-4.96426c0,-2.00801 0.5144,-3.60079 1.5432,-4.77833c1.04119,-1.17754 2.38607,-1.76631 4.03462,-1.76631c1.80969,0 3.29711,0.7685 4.46225,2.3055zM489.09277,179.93493c0,1.31388 0.28509,2.31789 0.85527,3.01202c0.58257,0.69413 1.37586,1.04119 2.37987,1.04119c0.86766,0 1.61757,-0.33467 2.24972,-1.00401c0.63215,-0.66934 0.94823,-1.67334 0.94823,-3.01202c0,-1.31388 -0.29128,-2.35508 -0.87386,-3.12358c-0.58257,-0.7685 -1.37586,-1.15275 -2.37987,-1.15275c-0.95443,0 -1.72292,0.35946 -2.3055,1.07838c-0.58257,0.71892 -0.87386,1.77251 -0.87386,3.16076zM503.57883,183.15147c0.4958,0 0.92344,0.18593 1.2829,0.55778c0.37185,0.35946 0.55778,0.78709 0.55778,1.2829c0,0.5206 -0.18593,0.96682 -0.55778,1.33868c-0.35946,0.37185 -0.78709,0.55778 -1.2829,0.55778c-0.5206,0 -0.96682,-0.18593 -1.33868,-0.55778c-0.37185,-0.37185 -0.55778,-0.81808 -0.55778,-1.33868c0,-0.4958 0.18593,-0.92344 0.55778,-1.2829c0.37185,-0.37185 0.81808,-0.55778 1.33868,-0.55778z" fill="#c1c1c1" stroke="none" stroke-width="1" stroke-linecap="square"/><text transform="translate(20.00337,193.89999) scale(0.5,0.5)" font-size="40" xml:space="preserve" fill="#1c1c1c" fill-rule="nonzero" stroke="none" stroke-width="1" stroke-linecap="butt" stroke-linejoin="miter" stroke-miterlimit="10" stroke-dasharray="" stroke-dashoffset="0" font-family="Sans Serif" font-weight="normal" text-anchor="start" style="mix-blend-mode: normal"><tspan x="0" dy="0"> </tspan></text></g></g></svg>