<svg version="1.1" xmlns="http://www.w3.org/2000/svg" xmlns:xlink="http://www.w3.org/1999/xlink" width="139.30282" height="38.63049" viewBox="0,0,139.30282,38.63049"><g transform="translate(-170.34861,-160.68477)"><g data-paper-data="{&quot;isPaintingLayer&quot;:true}" fill-rule="nonzero" stroke-linejoin="miter" stroke-miterlimit="10" stroke-dasharray="" stroke-dashoffset="0" style="mix-blend-mode: normal"><path d="M175.59861,191.29185c0,-6.09093 0,-20.31716 0,-23.11191c0,-0.91205 0.83323,-2.24516 2.04028,-2.24516c3.81375,0 24.93773,0 48.88177,0c30.84112,0 66.36093,0 75.59434,0c1.48164,0 2.28643,1.30927 2.28643,2.64136c0,3.14265 0,16.21313 0,22.3195c0,1.93416 -0.92569,3.16963 -2.61925,3.16963c-17.3663,0 -115.47439,0 -124.14329,0c-1.20705,0 -2.04028,-1.06771 -2.04028,-2.77343z" fill="#000000" stroke="#000000" stroke-width="10.5" stroke-linecap="butt"/><path d="M175.59861,191.29185c0,-6.09093 0,-20.31716 0,-23.11191c0,-0.91205 0.83323,-2.24516 2.04028,-2.24516c8.72604,0 108.07418,0 124.4761,0c1.48164,0 2.28643,1.30927 2.28643,2.64136c0,3.14265 0,16.21313 0,22.3195c0,1.93416 -0.92569,3.16963 -2.61925,3.16963c-17.3663,0 -115.47439,0 -124.14329,0c-1.20705,0 -2.04028,-1.06771 -2.04028,-2.77343z" fill="#000000" stroke="#00f000" stroke-width="5.5" stroke-linecap="butt"/><path d="M175.59861,191.29185c0,-6.09093 0,-20.31716 0,-23.11191c0,-0.91205 0.83323,-2.24516 2.04028,-2.24516c8.72604,0 108.07418,0 124.4761,0c1.48164,0 2.28643,1.30927 2.28643,2.64136c0,3.14265 0,16.21313 0,22.3195c0,1.93416 -0.92569,3.16963 -2.61925,3.16963c-17.3663,0 -115.47439,0 -124.14329,0c-1.20705,0 -2.04028,-1.06771 -2.04028,-2.77343z" fill="#000000" stroke="none" stroke-width="0" stroke-linecap="butt"/><path d="M212.9943,181.42434c0.34969,0 0.65635,0.12105 0.91996,0.36314c0.269,0.24209 0.40349,0.55413 0.40349,0.9361c0,1.05446 -0.53261,2.13851 -1.59783,3.25214c-1.05984,1.11364 -2.55814,1.67046 -4.4949,1.67046c-2.38867,0 -4.1721,-0.73435 -5.3503,-2.20306c-1.17282,-1.47409 -1.75922,-3.28173 -1.75922,-5.42293c0,-2.30797 0.65635,-4.16134 1.96904,-5.56011c1.31269,-1.40415 3.02619,-2.10623 5.14048,-2.10623c1.82378,0 3.28442,0.50571 4.38192,1.51713c1.0975,1.01142 1.64625,2.00939 1.64625,2.99391c0,0.30665 -0.11836,0.59448 -0.35507,0.86347c-0.23672,0.269 -0.55682,0.40349 -0.96031,0.40349c-0.36045,0 -0.63483,-0.09684 -0.82312,-0.29051c-0.1883,-0.19906 -0.44653,-0.59986 -0.7747,-1.20241c-0.32279,-0.60793 -0.76394,-1.07598 -1.32345,-1.40415c-0.55413,-0.33355 -1.15937,-0.50033 -1.81571,-0.50033c-1.24275,0 -2.22996,0.46805 -2.96163,1.40415c-0.72628,0.9361 -1.08943,2.27031 -1.08943,4.00264c0,1.7377 0.35776,3.02619 1.07329,3.86545c0.71552,0.83926 1.68122,1.25889 2.89707,1.25889c1.73232,0 2.89707,-0.83926 3.49424,-2.51779c0.19906,-0.55951 0.40887,-0.91996 0.62945,-1.08136c0.22596,-0.1614 0.47612,-0.24209 0.75049,-0.24209zM221.61289,176.45331c1.70543,0 3.04771,0.52723 4.02685,1.58169c0.97914,1.04908 1.46871,2.38598 1.46871,4.01071c0,1.63549 -0.49764,2.97777 -1.49292,4.02685c-0.9899,1.04908 -2.30259,1.57362 -3.93808,1.57362c-1.77536,0 -3.14454,-0.52992 -4.10754,-1.58976c-0.963,-1.06522 -1.4445,-2.40212 -1.4445,-4.01071c0,-1.63011 0.48688,-2.9697 1.46064,-4.01878c0.97914,-1.04908 2.32142,-1.57362 4.02685,-1.57362zM221.61289,185.59644c0.83388,0 1.49292,-0.31203 1.97711,-0.9361c0.48957,-0.62945 0.73435,-1.50099 0.73435,-2.61463c0,-1.11364 -0.24479,-1.98518 -0.73435,-2.61463c-0.48419,-0.62945 -1.14323,-0.94417 -1.97711,-0.94417c-0.82312,0 -1.47947,0.31741 -1.96904,0.95224c-0.48957,0.62945 -0.73435,1.4983 -0.73435,2.60656c0,1.11902 0.24209,1.99056 0.72628,2.61463c0.48957,0.62407 1.14861,0.9361 1.97711,0.9361zM238.98925,180.85138v4.51911c0,0.58103 -0.02421,1.00604 -0.07263,1.27503c-0.04304,0.26361 -0.18561,0.49764 -0.4277,0.70208c-0.24209,0.19906 -0.52992,0.29858 -0.86347,0.29858c-0.29589,0 -0.57296,-0.08877 -0.83119,-0.2663c-0.25286,-0.17754 -0.40887,-0.40887 -0.46805,-0.69401c-0.05918,-0.28513 -0.08877,-0.72359 -0.08877,-1.31538v-3.97036c0,-1.10288 -0.16678,-1.8453 -0.50033,-2.22727c-0.32817,-0.38197 -0.78008,-0.57296 -1.35573,-0.57296c-0.52723,0 -0.9899,0.15064 -1.38801,0.45191c-0.39273,0.30127 -0.6698,0.68056 -0.83119,1.13785c-0.1614,0.45191 -0.24209,1.22931 -0.24209,2.33218v2.84865c0,0.57565 -0.02152,0.99528 -0.06456,1.25889c-0.04304,0.26361 -0.19099,0.50033 -0.44384,0.71015c-0.24747,0.20444 -0.53261,0.30665 -0.8554,0.30665c-0.30127,0 -0.58103,-0.09146 -0.83926,-0.27437c-0.25286,-0.1883 -0.40618,-0.41963 -0.45998,-0.69401c-0.0538,-0.27437 -0.0807,-0.71015 -0.0807,-1.30731v-6.7948c0,-0.60793 0.0269,-1.03294 0.0807,-1.27503c0.05918,-0.24209 0.20444,-0.44384 0.43577,-0.60524c0.23133,-0.1614 0.49226,-0.24209 0.78277,-0.24209c0.269,0 0.54875,0.10491 0.83926,0.31472c0.29589,0.20982 0.44384,0.72359 0.44384,1.54134c0.91996,-1.23738 2.10354,-1.85606 3.55073,-1.85606c0.54875,0 1.09212,0.10491 1.63011,0.31472c0.53799,0.20444 0.97645,0.54068 1.31538,1.00873c0.34431,0.46805 0.55144,0.95224 0.62138,1.45257c0.07532,0.50033 0.11298,1.04101 0.11298,1.62204zM242.17078,176.69541v-0.80698c0,-1.40953 0.29051,-2.35101 0.87154,-2.82444c0.58641,-0.47343 1.42567,-0.71015 2.51779,-0.71015c1.74846,0 2.6227,0.39273 2.6227,1.1782c0,0.24209 -0.08339,0.45729 -0.25016,0.64559c-0.16678,0.1883 -0.38735,0.28244 -0.66173,0.28244c-0.0538,0 -0.23133,-0.01883 -0.53261,-0.05649c-0.29589,-0.04304 -0.46805,-0.06456 -0.51647,-0.06456c-0.38735,0 -0.70208,0.10222 -0.94417,0.30665c-0.23672,0.19906 -0.35507,0.66173 -0.35507,1.38801v0.66173h0.69401c1.03832,0 1.55748,0.32279 1.55748,0.96838c0,0.31203 -0.09953,0.55951 -0.29858,0.74242c-0.19906,0.18292 -0.61869,0.27437 -1.25889,0.27437h-0.69401v6.68989c0,0.51647 -0.02152,0.9092 -0.06456,1.1782c-0.04304,0.26361 -0.16678,0.51378 -0.37121,0.75049c-0.19906,0.23133 -0.51109,0.347 -0.9361,0.347c-0.43577,0 -0.7747,-0.14257 -1.0168,-0.4277c-0.24209,-0.28513 -0.36314,-0.90113 -0.36314,-1.84799v-6.68989h-0.76663c-0.83926,0 -1.25889,-0.33893 -1.25889,-1.0168c0,-0.64559 0.46267,-0.96838 1.38801,-0.96838zM250.02677,172.47489c0.35507,0 0.66442,0.1345 0.92803,0.40349c0.26361,0.269 0.39542,0.58103 0.39542,0.9361c0,0.37121 -0.13181,0.69131 -0.39542,0.96031c-0.26361,0.26361 -0.57296,0.39542 -0.92803,0.39542c-0.37121,0 -0.69131,-0.13181 -0.96031,-0.39542c-0.26361,-0.269 -0.39542,-0.5891 -0.39542,-0.96031c0,-0.36045 0.13181,-0.67249 0.39542,-0.9361c0.269,-0.269 0.5891,-0.40349 0.96031,-0.40349zM251.39057,178.69673v6.67375c0,0.65635 -0.03228,1.10557 -0.09684,1.34766c-0.05918,0.24209 -0.21251,0.45729 -0.45998,0.64559c-0.24747,0.1883 -0.51647,0.28244 -0.80698,0.28244c-0.29589,0 -0.57296,-0.09146 -0.83119,-0.27437c-0.25286,-0.1883 -0.41156,-0.40618 -0.47612,-0.65366c-0.05918,-0.24747 -0.08877,-0.6967 -0.08877,-1.34766v-6.64954c0,-0.61331 0.02421,-1.04639 0.07263,-1.29924c0.04842,-0.25286 0.19368,-0.47612 0.43577,-0.6698c0.24747,-0.19906 0.53261,-0.29858 0.8554,-0.29858c0.32817,0 0.61062,0.08877 0.84733,0.2663c0.23672,0.17754 0.38735,0.40349 0.45191,0.67787c0.06456,0.269 0.09684,0.70208 0.09684,1.29924zM254.21299,185.37048v-7.0611c0,-1.23738 0.4546,-1.85606 1.3638,-1.85606c0.86616,0 1.31,0.57027 1.33152,1.7108c0.57027,-1.14054 1.35842,-1.7108 2.36446,-1.7108c0.53261,0 1.08136,0.13988 1.64625,0.41963c0.57027,0.27437 0.8554,0.65366 0.8554,1.13785c0,0.33893 -0.11567,0.61869 -0.347,0.83926c-0.22596,0.21519 -0.46805,0.32279 -0.72628,0.32279c-0.15064,0 -0.41963,-0.05918 -0.80698,-0.17754c-0.38735,-0.11836 -0.71015,-0.17754 -0.96838,-0.17754c-0.66173,0 -1.15399,0.33355 -1.47678,1.00066c-0.32279,0.66711 -0.48419,1.9529 -0.48419,3.85738v1.58976c0,0.69938 -0.02959,1.17282 -0.08877,1.42029c-0.0538,0.24209 -0.20175,0.46267 -0.44384,0.66173c-0.24209,0.19906 -0.52185,0.29858 -0.83926,0.29858c-0.30127,0 -0.57296,-0.08877 -0.81505,-0.2663c-0.24209,-0.17754 -0.39811,-0.38735 -0.46805,-0.62945c-0.06456,-0.24747 -0.09684,-0.70745 -0.09684,-1.37994zM278.8845,180.53665v4.75313c0,0.65097 -0.0269,1.11095 -0.0807,1.37994c-0.0538,0.26361 -0.20175,0.49226 -0.44384,0.68594c-0.23672,0.19368 -0.51916,0.29051 -0.84733,0.29051c-0.32279,0 -0.60524,-0.09415 -0.84733,-0.28244c-0.23672,-0.19368 -0.38466,-0.43308 -0.44384,-0.71822c-0.05918,-0.28513 -0.08877,-0.73705 -0.08877,-1.35573v-4.02685c0,-1.1782 -0.13988,-1.91524 -0.41963,-2.21113c-0.27975,-0.30127 -0.66173,-0.45191 -1.14592,-0.45191c-0.50571,0 -0.93072,0.13988 -1.27503,0.41963c-0.34431,0.27975 -0.58103,0.64559 -0.71015,1.0975c-0.12912,0.44653 -0.19368,1.1513 -0.19368,2.1143v3.05847c0,0.65097 -0.0269,1.11364 -0.0807,1.38801c-0.04842,0.269 -0.19637,0.49764 -0.44384,0.68594c-0.24209,0.1883 -0.52723,0.28244 -0.8554,0.28244c-0.42501,0 -0.75856,-0.14257 -1.00066,-0.4277c-0.24209,-0.28513 -0.36314,-0.92803 -0.36314,-1.92869v-3.78475c0,-1.07598 -0.0807,-1.82916 -0.24209,-2.25955c-0.1614,-0.43039 -0.58103,-0.64559 -1.25889,-0.64559c-0.70477,0 -1.26158,0.22596 -1.67046,0.67787c-0.40887,0.44653 -0.61331,1.40953 -0.61331,2.889v3.12303c0,0.63483 -0.02152,1.08136 -0.06456,1.33959c-0.04304,0.25286 -0.18561,0.48688 -0.4277,0.70208c-0.24209,0.20982 -0.52454,0.31472 -0.84733,0.31472c-0.30665,0 -0.58641,-0.09415 -0.83926,-0.28244c-0.25286,-0.1883 -0.41156,-0.41425 -0.47612,-0.67787c-0.05918,-0.269 -0.08877,-0.73435 -0.08877,-1.39608v-6.67375c0,-0.63483 0.02959,-1.06522 0.08877,-1.29117c0.05918,-0.23133 0.20712,-0.43308 0.44384,-0.60524c0.23672,-0.17754 0.49495,-0.2663 0.7747,-0.2663c0.87692,0 1.31538,0.55951 1.31538,1.67853c0.92534,-1.11902 2.03629,-1.67853 3.33284,-1.67853c1.39339,0 2.40481,0.55951 3.03426,1.67853c0.9361,-1.11902 2.02822,-1.67853 3.27635,-1.67853c0.963,0 1.78612,0.2663 2.46937,0.79891c0.68863,0.52723 1.03294,1.62204 1.03294,3.28442z" fill="#00f000" stroke="none" stroke-width="1" stroke-linecap="square"/></g></g></svg>