<svg version="1.1" xmlns="http://www.w3.org/2000/svg" xmlns:xlink="http://www.w3.org/1999/xlink" width="222.766" height="155.99345" viewBox="0,0,222.766,155.99345"><g transform="translate(-83.0931,-66.48647)"><g data-paper-data="{&quot;isPaintingLayer&quot;:true}" fill-rule="nonzero" stroke-linejoin="miter" stroke-miterlimit="10" stroke-dasharray="" stroke-dashoffset="0" style="mix-blend-mode: normal"><path d="M232.17697,179.88189c-2.59065,-1.93901 -7.87455,-7.11485 -9.07587,-8.39947c-0.50924,-0.54454 -2.56187,-2.50294 -3.04822,-3.02354c-2.43513,-2.60666 -5.11877,-5.12785 -5.8454,-5.92899c-0.55842,-0.6157 -0.01642,-0.87459 1.88589,-1.76136c5.98016,-2.78767 25.43767,-11.26525 28.46254,-12.60483c0.7774,-0.34428 1.92909,-0.14001 2.52571,0.43067c1.00205,0.95847 3.94133,4.01161 7.58333,7.49528c1.65738,1.58532 3.44438,3.12524 5.11909,4.67957c2.43443,2.25945 4.63157,4.40551 5.84834,5.56937c0.7271,0.69548 0.42831,1.38484 -0.44561,1.72533c-2.35366,0.917 -13.52059,5.00923 -22.26949,8.4179c-3.64721,1.42098 -6.56571,2.78963 -8.46865,3.5987c-0.32564,0.13845 -1.55913,0.33467 -2.27167,-0.19864z" data-paper-data="{&quot;index&quot;:null}" fill="#4c685a" stroke="#15221c" stroke-width="3" stroke-linecap="butt"/><path d="M232.6966,176.72622c-0.82038,-0.87448 -2.3231,-2.21605 -3.71002,-3.76457c-1.08504,-1.21148 -1.44726,-1.80924 -2.70065,-3.14952c-0.41669,-0.44558 -2.09633,-2.0481 -2.49428,-2.47409c-1.9926,-2.13297 -3.46156,-3.83248 -4.05614,-4.48804c-0.45694,-0.50381 -0.74045,-1.07915 0.81618,-1.80478c4.89342,-2.28108 20.815,-9.21807 23.29017,-10.31421c0.63613,-0.28171 1.57853,-0.11457 2.06673,0.35242c0.81995,0.78429 3.22507,3.2826 6.20524,6.1332c1.35618,1.29722 2.81846,2.55728 4.18883,3.82916c1.99203,1.84885 3.78989,3.60493 4.78555,4.55729c0.59496,0.5691 0.35047,1.13318 -0.36463,1.4118c-1.92594,0.75036 -11.06355,4.09894 -18.22256,6.88816c-3.49511,1.36173 -6.51862,2.75126 -8.00108,3.32884c-0.62239,0.24248 -1.28017,0.05205 -1.80334,-0.50563z" data-paper-data="{&quot;index&quot;:null}" fill="#4c685a" stroke="#294436" stroke-width="3.5" stroke-linecap="butt"/><path d="M233.22708,180.49144l32.7883,-12.798v32.0479c0,0 -28.43596,10.91574 -31.71775,12.17552c-0.60292,0.23145 -1.07053,-0.00954 -1.07053,-0.55859z" data-paper-data="{&quot;index&quot;:null}" fill="#39574f" stroke="#15221c" stroke-width="3" stroke-linecap="butt"/><path d="M233.07406,210.86475c0.00009,0.5359 0.2092,0.89687 -0.15499,0.53553c-1.59971,-1.58717 -13.41558,-13.14563 -17.53228,-17.17195c-0.88115,-0.86181 -1.40957,-2.07697 -1.40957,-3.2588c0,-5.92235 0,-23.98384 0,-27.12719c0,-0.91328 -0.12631,-2.43532 0.27344,-2.05435c2.03083,1.93533 18.96588,18.68714 18.96588,18.68714c0,0 -0.14298,27.03847 -0.14247,30.38962z" data-paper-data="{&quot;index&quot;:null}" fill="#26423b" stroke="#15221c" stroke-width="3" stroke-linecap="butt"/><path d="M264.02905,182.59231c0,0 -5.66921,2.32583 -6.66398,2.73394c-0.28701,0.11775 -0.56256,0.44729 -0.57591,0.82104c-0.06853,1.91877 -0.83734,8.26774 -0.87858,9.42243c-0.01346,0.37682 -0.47541,1.01296 -0.76736,1.13241c-0.83569,0.34188 -4.60204,1.73508 -6.33635,2.42739c-0.50292,0.20076 -0.80031,-0.15167 -0.9845,-0.47744c-0.57496,-1.01689 -2.6766,-6.55579 -3.6599,-8.29489c-0.19431,-0.34366 -0.59013,-0.45474 -0.8901,-0.35724c-1.02767,0.33399 -7.37781,2.77259 -7.37781,2.77259" data-paper-data="{&quot;index&quot;:null}" fill="none" stroke="#2c453e" stroke-width="3.5" stroke-linecap="round"/><path d="M235.55548,208.66821c0,-2.25573 0,-19.6095 0,-25.08872c0,-1.03996 0.57945,-1.87832 1.28098,-2.15214c2.76403,-1.07887 20.68011,-8.07192 25.77495,-10.06054c0.85555,-0.33394 1.34956,0.04539 1.34956,0.73677c0,2.64595 0,19.37521 0,24.80275c0,1.06748 -0.62982,1.93953 -1.69967,2.35022c-5.62115,2.1578 -23.38988,8.9787 -25.77838,9.89557c-0.52233,0.2005 -0.92742,-0.00827 -0.92742,-0.48393z" data-paper-data="{&quot;index&quot;:null}" fill="none" stroke="#2c453e" stroke-width="2.5" stroke-linecap="butt"/><path d="M229.46701,204.91043c-2.81129,-2.73335 -10.82434,-10.52009 -12.4702,-12.0735c-0.38139,-0.35997 -0.60594,-1.1244 -0.60594,-2.06009c0,-4.75752 0,-19.42161 0,-21.7409c0,-0.60604 0.17612,-0.93854 0.48113,-0.64583c1.48227,1.42254 9.62334,9.47804 12.56787,12.3931c0.66362,0.65698 1.06179,1.65859 1.05931,2.67197c-0.0114,4.63888 -0.0438,17.8201 -0.0505,20.54454c-0.00236,0.96191 -0.37,1.50545 -0.98168,0.91072z" data-paper-data="{&quot;index&quot;:null}" fill="none" stroke="#1c302b" stroke-width="2.5" stroke-linecap="butt"/><path d="M230.26913,189.55333c0,0 -0.91389,-1.01143 -1.56915,-1.53018c-0.40932,-0.32405 -1.33559,-0.58693 -1.59924,0.14848c-0.34811,0.97105 -0.84438,4.30354 -1.11962,6.28414c-0.12439,0.89518 -0.73271,1.04736 -1.16354,0.66722c-0.59216,-0.5225 -2.20772,-1.94797 -3.21764,-2.83908c-0.50392,-0.44463 -0.89918,-1.2615 -0.94182,-1.77336c-0.09582,-1.14981 -0.47954,-5.75456 -0.68013,-8.16154c-0.07438,-0.89248 -0.53449,-1.82225 -0.85448,-2.08659c-0.61214,-0.50569 -2.67485,-2.20967 -2.67485,-2.20967" data-paper-data="{&quot;index&quot;:null}" fill="none" stroke="#1c302b" stroke-width="3" stroke-linecap="round"/><path d="M83.0931,66.48647z" fill="none" stroke="none" stroke-width="0" stroke-linecap="butt"/><path d="M244.65577,222.47992c-33.80166,0 -61.20333,-22.30368 -61.20333,-49.81667c0,-27.51299 27.40166,-49.81667 61.20333,-49.81667c33.80166,0 61.20333,22.30368 61.20333,49.81667c0,27.51299 -27.40166,49.81667 -61.20333,49.81667z" fill="none" stroke="none" stroke-width="0" stroke-linecap="butt"/><path d="M128.37003,187.48267z" fill="none" stroke="none" stroke-width="0" stroke-linecap="butt"/></g></g></svg>