<svg version="1.1" xmlns="http://www.w3.org/2000/svg" xmlns:xlink="http://www.w3.org/1999/xlink" width="504.50451" height="422.56464" viewBox="0,0,504.50451,422.56464"><g transform="translate(112.85286,169.42046)"><g data-paper-data="{&quot;isPaintingLayer&quot;:true}" fill-rule="nonzero" stroke-linecap="butt" stroke-linejoin="miter" stroke-miterlimit="10" stroke-dasharray="" stroke-dashoffset="0" style="mix-blend-mode: normal"><path d="M-0.30624,103.08924c-6.82259,-22.12714 0.15355,-106.41699 1.86548,-123.16951c0.80452,-7.87277 13.91586,-28.759 20.47311,-30.13947c8.22505,-1.73159 33.79876,-1.06692 33.79876,-1.06692v173.58225c0,0 -44.29848,19.18978 -56.13736,-19.20634z" fill="#a6a6a6" stroke="#000000" stroke-width="16"/><path d="M56.74813,111.19014c-1.55935,-20.36811 -2.94796,-42.98203 -3.6665,-65.49884c-1.29557,-40.59935 -2.18976,-64.64258 3.82278,-105.36377c6.01254,-40.72119 25.26336,-69.42694 25.26336,-69.42694c0,0 11.50689,-16.75967 29.92797,-16.75967c13.89376,0 36.0474,1.71789 62.15115,4.51542c24.08114,2.58076 46.78668,36.18664 46.78668,36.18664c0,0 47.80199,42.92692 40.64743,65.04957c-3.58511,11.08554 -19.76397,29.28712 -19.76397,29.28712c0,0 4.63083,23.84667 3.24119,62.21672c-0.01874,0.51752 19.4671,-2.49832 33.79247,6.81361c27.56406,17.91748 26.84407,44.43186 25.98891,50.36613c-7.55718,39.06677 -39.27792,37.39534 -53.72507,32.29872c-6.82785,-2.40871 -3.58437,-8.58248 -3.58437,-8.58248c0,0 -20.8926,-26.86668 -31.86102,-36.65891c-13.45869,-12.01546 -42.95953,-30.13834 -42.95953,-30.13834c0,0 82.21047,40.72655 68.85577,88.05493c-2.60344,9.22648 -11.72473,18.70386 -22.63651,28.17931c-12.20315,10.53575 -38.78242,6.75632 -62.9299,-1.48129c-25.65988,-8.75354 -48.57381,-22.34723 -48.57381,-22.34723c0,0 -19.31993,-1.88079 -32.31646,-11.90358c-12.04885,-9.29195 -17.8189,-26.42576 -18.46056,-34.8071z" fill="#a6a6a6" stroke="#000000" stroke-width="16"/><path d="M74.98504,-59.6665c0,-20.79407 10.77407,-79.00985 10.77407,-79.00985c0,0 38.1772,-5.49067 59.8093,-4.07549c21.0492,1.37705 58.70547,17.2438 58.70547,17.2438l41.89916,116.12054c0,0 5.99996,50.6856 -21.04336,79.48386c-26.02652,27.71548 -84.6898,33.922 -106.63852,17.3269c-45.02816,-34.04514 -43.50613,-126.09913 -43.50613,-147.08975z" fill="#f0f0f0" stroke="none" stroke-width="0"/><path d="M209.06238,-99.17143c34.9912,13.39437 59.77318,36.94132 52.61863,59.06398c-3.58511,11.08554 -19.76397,29.28712 -19.76397,29.28712c0,0 -68.93902,28.16195 -100.57769,8.52082c-17.66536,-10.96657 -37.14706,-54.79267 -21.37385,-77.23514c17.06702,-24.28335 70.91203,-26.59781 89.0969,-19.63677z" fill="#4a646d" stroke="#000000" stroke-width="16"/><path d="M5.2753,-3.40191l5.21828,-41.89916h41.7462l-1.30457,31.1251c0,0 -15.2689,-0.3305 -24.59801,1.87084c-9.32912,2.20132 -21.0619,8.90322 -21.0619,8.90322z" fill="#f0f0f0" stroke="none" stroke-width="0"/><path d="M-0.30624,103.08924c-6.82259,-22.12714 0.15355,-106.41699 1.86548,-123.16951c0.80452,-7.87277 13.91586,-28.759 20.47311,-30.13947c8.22505,-1.73159 33.79876,-1.06692 33.79876,-1.06692v173.58225c0,0 -44.29848,19.18978 -56.13736,-19.20634z" fill="none" stroke="#000000" stroke-width="16"/><path d="M162.37473,-40.51259c-33.59046,-14.19804 -25.1395,-43.09628 -25.1395,-43.09628c0,0 26.03837,-27.53373 45.49052,-27.53373c19.25264,0 70.63001,27.53373 70.63001,27.53373c0,0 11.48962,22.8069 -2.4865,32.53875c-22.7729,15.85722 -68.85434,18.85906 -88.49454,10.55753z" fill="#94c9db" stroke="none" stroke-width="0"/><path d="M170.75455,-69.24346c-2.72057,-12.92273 19.27172,-16.66737 37.91234,-12.19322c26.17019,6.28142 29.49666,20.07232 25.53497,21.77018c-8.33775,3.57332 -58.26378,15.04475 -63.4473,-9.57695z" fill="#fefefe" stroke="none" stroke-width="0"/><path d="M209.06238,-99.17143c34.9912,13.39437 59.77318,36.94132 52.61863,59.06398c-3.58511,11.08554 -19.76397,29.28712 -19.76397,29.28712c0,0 -68.93902,28.16195 -100.57769,8.52082c-17.66536,-10.96657 -37.14706,-54.79267 -21.37385,-77.23514c17.06702,-24.28335 70.91203,-26.59781 89.0969,-19.63677z" fill="none" stroke="#000000" stroke-width="16"/><path d="M-112.85286,45.18621c0,-114.85201 112.93718,-207.95796 252.25225,-207.95796c139.31507,0 252.25225,93.10595 252.25225,207.95796c0,114.85201 -112.93718,207.95796 -252.25225,207.95796c-139.31507,0 -252.25225,-93.10595 -252.25225,-207.95796z" fill="none" stroke="none" stroke-width="0"/><path d="M-112.85286,41.86185c0,-116.688 112.93718,-211.28231 252.25225,-211.28231c139.31507,0 252.25226,94.59431 252.25226,211.28231c0,116.688 -112.93719,211.28232 -252.25226,211.28232c-139.31507,0 -252.25225,-94.59431 -252.25225,-211.28231z" fill="none" stroke="none" stroke-width="0"/><path d="M-112.85286,45.608c0,-114.61906 112.93718,-207.53617 252.25225,-207.53617c139.31507,0 252.25225,92.91711 252.25225,207.53618c0,114.61907 -112.93718,207.53617 -252.25225,207.53617c-139.31507,0 -252.25225,-92.91711 -252.25225,-207.53617z" fill="none" stroke="none" stroke-width="0"/><path d="M-112.85286,45.18621c0,-114.85201 112.93718,-207.95796 252.25225,-207.95796c139.31507,0 252.25225,93.10595 252.25225,207.95796c0,114.85201 -112.93718,207.95796 -252.25225,207.95796c-139.31507,0 -252.25225,-93.10595 -252.25225,-207.95796z" fill="none" stroke="none" stroke-width="0"/><path d="M-112.85286,41.86185c0,-116.688 112.93718,-211.28231 252.25225,-211.28231c139.31507,0 252.25226,94.59431 252.25226,211.28231c0,116.688 -112.93719,211.28232 -252.25226,211.28232c-139.31507,0 -252.25225,-94.59431 -252.25225,-211.28231z" fill="none" stroke="none" stroke-width="0"/><path d="M-112.85286,45.608c0,-114.61906 112.93718,-207.53617 252.25225,-207.53617c139.31507,0 252.25225,92.91711 252.25225,207.53618c0,114.61907 -112.93718,207.53617 -252.25225,207.53617c-139.31507,0 -252.25225,-92.91711 -252.25225,-207.53617z" fill="none" stroke="none" stroke-width="0"/><path d="M-112.85286,45.18621c0,-114.85201 112.93718,-207.95796 252.25225,-207.95796c139.31507,0 252.25225,93.10595 252.25225,207.95796c0,114.85201 -112.93718,207.95796 -252.25225,207.95796c-139.31507,0 -252.25225,-93.10595 -252.25225,-207.95796z" fill="none" stroke="none" stroke-width="0"/><path d="M-112.85286,41.86185c0,-116.688 112.93718,-211.28231 252.25225,-211.28231c139.31507,0 252.25226,94.59431 252.25226,211.28231c0,116.688 -112.93719,211.28232 -252.25226,211.28232c-139.31507,0 -252.25225,-94.59431 -252.25225,-211.28231z" fill="none" stroke="none" stroke-width="0"/><path d="M-112.85285,41.86186c0,-114.61906 112.93718,-207.53617 252.25225,-207.53617c139.31507,0 252.25225,92.91711 252.25225,207.53618c0,114.61907 -112.93718,207.53617 -252.25225,207.53617c-139.31507,0 -252.25225,-92.91711 -252.25225,-207.53617z" fill="none" stroke="none" stroke-width="0"/><path d="M-80.18394,237.4587v-379.87988h442.94294v379.87988z" fill="none" stroke="none" stroke-width="0"/></g></g></svg>