<svg version="1.1" viewBox="0.0 0.0 960.0 720.0" fill="none" stroke="none" stroke-linecap="square" stroke-miterlimit="10" xmlns:xlink="http://www.w3.org/1999/xlink" xmlns="http://www.w3.org/2000/svg"><clipPath id="p.0"><path d="m0 0l960.0 0l0 720.0l-960.0 0l0 -720.0z" clip-rule="nonzero"/></clipPath><g clip-path="url(#p.0)"><path fill="#000000" fill-opacity="0.0" d="m0 0l960.0 0l0 720.0l-960.0 0z" fill-rule="evenodd"/><path fill="#000000" fill-opacity="0.0" d="m125.07087 162.2546l758.86615 0l0 310.2677l-758.86615 0z" fill-rule="evenodd"/><path fill="#000000" d="m184.07086 224.9296q2.03125 0 3.578125 1.40625q1.546875 1.40625 1.546875 3.625q0 6.140625 -6.171875 12.609375q-6.171875 6.46875 -17.421875 6.46875q-13.875 0 -20.71875 -8.5625q-6.828125 -8.5625 -6.828125 -20.984375q0 -13.390625 7.640625 -21.53125q7.640625 -8.15625 19.90625 -8.15625q10.578125 0 16.96875 5.890625q6.390625 5.875 6.390625 11.578125q0 1.796875 -1.390625 3.359375q-1.390625 1.5625 -3.734375 1.5625q-2.0625 0 -3.15625 -1.15625q-1.09375 -1.15625 -3.0 -4.671875q-1.890625 -3.515625 -5.140625 -5.421875q-3.234375 -1.921875 -7.015625 -1.921875q-7.234375 0 -11.46875 5.4375q-4.234375 5.421875 -4.234375 15.5q0 10.078125 4.15625 14.96875q4.15625 4.875 11.234375 4.875q10.03125 0 13.515625 -9.765625q1.171875 -3.234375 2.453125 -4.171875q1.296875 -0.9375 2.890625 -0.9375zm33.359375 -19.265625q9.921875 0 15.609375 6.125q5.6875 6.109375 5.6875 15.5625q0 9.484375 -5.765625 15.59375q-5.765625 6.09375 -15.25 6.09375q-10.3125 0 -15.921875 -6.171875q-5.609375 -6.1875 -5.609375 -15.515625q0 -9.5 5.6875 -15.59375q5.6875 -6.09375 15.5625 -6.09375zm0 35.4375q4.84375 0 7.671875 -3.65625q2.84375 -3.65625 2.84375 -10.09375q0 -6.484375 -2.84375 -10.140625q-2.828125 -3.65625 -7.671875 -3.65625q-4.765625 0 -7.625 3.671875q-2.84375 3.671875 -2.84375 10.125q0 6.484375 2.828125 10.125q2.84375 3.625 7.640625 3.625zm67.30469 -18.40625l0 17.5q0 3.40625 -0.28125 4.953125q-0.265625 1.53125 -1.671875 2.71875q-1.40625 1.171875 -3.3125 1.171875q-1.71875 0 -3.203125 -1.03125q-1.484375 -1.046875 -1.84375 -2.703125q-0.34375 -1.671875 -0.34375 -5.109375l0 -15.34375q0 -6.40625 -1.921875 -8.625q-1.90625 -2.234375 -5.265625 -2.234375q-3.046875 0 -5.359375 1.765625q-2.296875 1.75 -3.234375 4.390625q-0.9375 2.625 -0.9375 9.03125l0 11.015625q0 3.359375 -0.265625 4.890625q-0.25 1.515625 -1.703125 2.734375q-1.4375 1.21875 -3.3125 1.21875q-1.75 0 -3.234375 -1.078125q-1.484375 -1.078125 -1.796875 -2.671875q-0.3125 -1.609375 -0.3125 -5.09375l0 -26.28125q0 -3.5625 0.328125 -4.96875q0.328125 -1.40625 1.671875 -2.34375q1.359375 -0.9375 3.03125 -0.9375q1.5625 0 3.265625 1.234375q1.703125 1.234375 1.703125 5.953125q5.34375 -7.1875 13.75 -7.1875q3.203125 0 6.328125 1.21875q3.125 1.203125 5.09375 3.921875q1.96875 2.71875 2.390625 5.625q0.4375 2.90625 0.4375 6.265625zm12.4609375 -16.09375l0 -6.40625q0 -3.9375 0.328125 -5.359375q0.34375 -1.4375 1.71875 -2.546875q1.390625 -1.109375 3.265625 -1.109375q1.71875 0 3.109375 1.015625q1.390625 1.015625 1.8125 2.46875q0.4375 1.4375 0.4375 4.671875l0 7.265625l2.0625 0q3.90625 0 5.1875 0.96875q1.296875 0.953125 1.296875 2.78125q0 3.953125 -6.5625 3.953125l-1.984375 0l0 19.6875q0 3.984375 0.5625 5.4375q0.5625 1.4375 3.03125 1.4375q1.171875 0 2.625 -0.328125q1.46875 -0.34375 2.171875 -0.34375q1.609375 0 2.59375 1.0625q1.0 1.046875 1.0 2.53125q0 5.25 -11.046875 5.25q-5.359375 0 -7.875 -2.0q-2.515625 -2.0 -3.125 -4.84375q-0.609375 -2.859375 -0.609375 -7.421875l0 -20.46875l-1.40625 0q-4.71875 0 -4.71875 -3.875q0 -3.828125 4.953125 -3.828125l1.171875 0zm26.492188 33.59375l0 -27.34375q0 -7.1875 5.265625 -7.1875q5.046875 0 5.15625 6.640625q3.328125 -6.640625 9.1875 -6.640625q3.078125 0 6.375 1.625q3.3125 1.625 3.3125 4.4375q0 1.953125 -1.328125 3.21875q-1.328125 1.265625 -2.859375 1.265625q-0.859375 0 -3.109375 -0.671875q-2.234375 -0.6875 -3.765625 -0.6875q-3.828125 0 -5.703125 3.875q-1.875 3.859375 -1.875 14.90625l0 6.171875q0 4.0625 -0.328125 5.5q-0.328125 1.421875 -1.734375 2.578125q-1.40625 1.15625 -3.25 1.15625q-1.75 0 -3.15625 -1.03125q-1.40625 -1.046875 -1.796875 -2.46875q-0.390625 -1.4375 -0.390625 -5.34375zm50.695312 -34.53125q9.921875 0 15.609375 6.125q5.6875 6.109375 5.6875 15.5625q0 9.484375 -5.765625 15.59375q-5.765625 6.09375 -15.25 6.09375q-10.3125 0 -15.921875 -6.171875q-5.609375 -6.1875 -5.609375 -15.515625q0 -9.5 5.6875 -15.59375q5.6875 -6.09375 15.5625 -6.09375zm0 35.4375q4.84375 0 7.671875 -3.65625q2.84375 -3.65625 2.84375 -10.09375q0 -6.484375 -2.84375 -10.140625q-2.828125 -3.65625 -7.671875 -3.65625q-4.765625 0 -7.625 3.671875q-2.84375 3.671875 -2.84375 10.125q0 6.484375 2.828125 10.125q2.84375 3.625 7.640625 3.625zm40.351562 -42.5l0 41.59375q0 3.875 -0.359375 5.265625q-0.34375 1.375 -1.796875 2.484375q-1.4375 1.09375 -3.109375 1.09375q-1.71875 0 -3.203125 -1.078125q-1.484375 -1.078125 -1.84375 -2.515625q-0.34375 -1.453125 -0.34375 -5.25l0 -41.59375q0 -3.953125 0.359375 -5.328125q0.375 -1.390625 1.796875 -2.421875q1.4375 -1.046875 3.109375 -1.046875q1.953125 0 3.375 1.125q1.4375 1.109375 1.71875 2.609375q0.296875 1.5 0.296875 5.0625zm19.101562 18.15625q0 2.078125 2.140625 3.25q2.15625 1.171875 9.625 3.0q14.484375 3.515625 14.484375 12.078125q0 6.75 -4.890625 10.359375q-4.875 3.59375 -13.65625 3.59375q-8.90625 0 -13.421875 -3.671875q-4.515625 -3.6875 -4.515625 -7.78125q0 -1.765625 1.25 -3.015625q1.25 -1.25 3.09375 -1.25q2.5 0 4.375 3.125q2.109375 3.4375 4.640625 4.5625q2.546875 1.109375 5.4375 1.109375q3.203125 0 5.203125 -1.421875q2.015625 -1.4375 2.015625 -3.625q0 -1.984375 -1.703125 -3.453125q-1.6875 -1.46875 -9.296875 -3.203125q-7.59375 -1.734375 -11.078125 -4.875q-3.46875 -3.15625 -3.46875 -7.484375q0 -4.890625 4.234375 -8.640625q4.25 -3.75 12.71875 -3.75q7.78125 0 12.390625 3.171875q4.609375 3.15625 4.609375 6.5625q0 1.796875 -1.171875 3.03125q-1.171875 1.21875 -3.25 1.21875q-3.078125 0 -5.5625 -3.546875q-2.484375 -3.5625 -7.484375 -3.5625q-2.6875 0 -4.703125 1.09375q-2.015625 1.09375 -2.015625 3.125z" fill-rule="nonzero"/><path fill="#000000" d="m162.00836 324.52335l0 -29.109375q0 -3.703125 0.28125 -5.40625q0.296875 -1.703125 1.796875 -2.953125q1.515625 -1.25 3.65625 -1.25q2.03125 0 3.59375 1.21875q1.5625 1.203125 1.875 2.90625q0.3125 1.703125 0.3125 5.484375l0 27.421875q0 12.546875 -5.203125 17.375q-5.1875 4.828125 -13.9375 4.828125q-9.375 0 -14.078125 -5.234375q-4.703125 -5.25 -4.703125 -13.015625q0 -2.8125 1.578125 -4.21875q1.578125 -1.40625 3.84375 -1.40625q2.5 0 3.453125 1.390625q0.96875 1.375 1.875 4.6875q0.921875 3.296875 1.546875 4.75q0.625 1.4375 2.171875 2.625q1.546875 1.1875 4.15625 1.1875q7.78125 0 7.78125 -11.28125zm42.0625 -22.859375q9.921875 0 15.609375 6.125q5.6875 6.109375 5.6875 15.5625q0 9.484375 -5.765625 15.59375q-5.765625 6.09375 -15.25 6.09375q-10.3125 0 -15.921875 -6.171875q-5.609375 -6.1875 -5.609375 -15.515625q0 -9.5 5.6875 -15.59375q5.6875 -6.09375 15.5625 -6.09375zm0 35.4375q4.84375 0 7.671875 -3.65625q2.84375 -3.65625 2.84375 -10.09375q0 -6.484375 -2.84375 -10.140625q-2.828125 -3.65625 -7.671875 -3.65625q-4.765625 0 -7.625 3.671875q-2.84375 3.671875 -2.84375 10.125q0 6.484375 2.828125 10.125q2.84375 3.625 7.640625 3.625zm39.453125 6.875l-13.046875 -33.046875q-1.203125 -3.203125 -1.203125 -4.421875q0 -1.828125 1.515625 -3.328125q1.53125 -1.515625 3.59375 -1.515625q1.796875 0 3.0625 1.125q1.28125 1.109375 2.484375 4.546875l9.03125 26.25l8.546875 -24.34375q1.6875 -4.765625 2.671875 -6.171875q1.0 -1.40625 3.421875 -1.40625q2.1875 0 3.453125 1.46875q1.28125 1.46875 1.28125 2.984375q0 1.796875 -1.296875 5.125l-13.90625 36.40625q-2.765625 7.265625 -5.734375 10.234375q-2.96875 2.96875 -10.125 2.96875q-9.296875 0 -9.296875 -4.71875q0 -1.5625 1.046875 -2.625q1.0625 -1.046875 2.828125 -1.046875q0.265625 0 1.78125 0.109375q1.53125 0.125 1.8125 0.125q2.96875 0 4.34375 -1.4375q1.390625 -1.421875 2.765625 -4.890625l0.96875 -2.390625zm39.570312 -31.21875q0 2.078125 2.140625 3.25q2.15625 1.171875 9.625 3.0q14.484375 3.515625 14.484375 12.078125q0 6.75 -4.890625 10.359375q-4.875 3.59375 -13.65625 3.59375q-8.90625 0 -13.421875 -3.671875q-4.515625 -3.6875 -4.515625 -7.78125q0 -1.765625 1.25 -3.015625q1.25 -1.25 3.09375 -1.25q2.5 0 4.375 3.125q2.109375 3.4375 4.640625 4.5625q2.546875 1.109375 5.4375 1.109375q3.203125 0 5.203125 -1.421875q2.015625 -1.4375 2.015625 -3.625q0 -1.984375 -1.703125 -3.453125q-1.6875 -1.46875 -9.296875 -3.203125q-7.59375 -1.734375 -11.078125 -4.875q-3.46875 -3.15625 -3.46875 -7.484375q0 -4.890625 4.234375 -8.640625q4.25 -3.75 12.71875 -3.75q7.78125 0 12.390625 3.171875q4.609375 3.15625 4.609375 6.5625q0 1.796875 -1.171875 3.03125q-1.171875 1.21875 -3.25 1.21875q-3.078125 0 -5.5625 -3.546875q-2.484375 -3.5625 -7.484375 -3.5625q-2.6875 0 -4.703125 1.09375q-2.015625 1.09375 -2.015625 3.125zm37.03125 -10.15625l0 -6.40625q0 -3.9375 0.328125 -5.359375q0.34375 -1.4375 1.71875 -2.546875q1.390625 -1.109375 3.265625 -1.109375q1.71875 0 3.109375 1.015625q1.390625 1.015625 1.8125 2.46875q0.4375 1.4375 0.4375 4.671875l0 7.265625l2.0625 0q3.90625 0 5.1875 0.96875q1.296875 0.953125 1.296875 2.78125q0 3.953125 -6.5625 3.953125l-1.984375 0l0 19.6875q0 3.984375 0.5625 5.4375q0.5625 1.4375 3.03125 1.4375q1.171875 0 2.625 -0.328125q1.46875 -0.34375 2.171875 -0.34375q1.609375 0 2.59375 1.0625q1.0 1.046875 1.0 2.53125q0 5.25 -11.046875 5.25q-5.359375 0 -7.875 -2.0q-2.515625 -2.0 -3.125 -4.84375q-0.609375 -2.859375 -0.609375 -7.421875l0 -20.46875l-1.40625 0q-4.71875 0 -4.71875 -3.875q0 -3.828125 4.953125 -3.828125l1.171875 0zm31.960938 -16.328125q2.0625 0 3.578125 1.5625q1.53125 1.5625 1.53125 3.640625q0 2.140625 -1.53125 3.6875q-1.515625 1.546875 -3.578125 1.546875q-2.15625 0 -3.703125 -1.546875q-1.53125 -1.546875 -1.53125 -3.6875q0 -2.109375 1.53125 -3.65625q1.546875 -1.546875 3.703125 -1.546875zm5.265625 24.109375l0 25.8125q0 3.828125 -0.359375 5.234375q-0.34375 1.40625 -1.796875 2.515625q-1.4375 1.09375 -3.109375 1.09375q-1.71875 0 -3.203125 -1.078125q-1.484375 -1.078125 -1.84375 -2.515625q-0.34375 -1.453125 -0.34375 -5.25l0 -25.734375q0 -3.5625 0.265625 -5.015625q0.28125 -1.46875 1.703125 -2.625q1.421875 -1.15625 3.296875 -1.15625q1.921875 0 3.28125 1.046875q1.375 1.03125 1.734375 2.609375q0.375 1.578125 0.375 5.0625zm44.726562 16.796875q1.953125 0 3.234375 1.53125q1.296875 1.515625 1.296875 3.109375q0 4.34375 -5.203125 8.78125q-5.1875 4.4375 -13.890625 4.4375q-10.515625 0 -15.875 -5.953125q-5.34375 -5.96875 -5.34375 -15.5q0 -9.65625 5.546875 -15.78125q5.546875 -6.140625 15.828125 -6.140625q7.96875 0 13.171875 4.171875q5.21875 4.15625 5.21875 8.21875q0 1.953125 -1.40625 3.265625q-1.40625 1.296875 -3.3125 1.296875q-2.34375 0 -3.671875 -1.984375q-2.9375 -4.453125 -5.203125 -5.640625q-2.265625 -1.203125 -4.875 -1.203125q-5.125 0 -7.90625 3.9375q-2.765625 3.921875 -2.765625 9.78125q0 6.015625 2.90625 9.8125q2.921875 3.78125 7.765625 3.78125q2.765625 0 5.109375 -1.3125q2.34375 -1.3125 4.046875 -3.9375q1.703125 -2.640625 2.6875 -3.65625q1.0 -1.015625 2.640625 -1.015625zm27.929688 -2.5l-5.859375 5.46875l0 5.1875q0 3.90625 -0.25 5.578125q-0.25 1.65625 -1.703125 2.890625q-1.4375 1.234375 -3.390625 1.234375q-1.765625 0 -3.21875 -1.078125q-1.4375 -1.078125 -1.75 -2.5625q-0.3125 -1.484375 -0.3125 -5.515625l0 -40.78125q0 -5.8125 1.421875 -7.546875q1.4375 -1.75 4.171875 -1.75q1.984375 0 3.21875 1.140625q1.234375 1.125 1.515625 2.734375q0.296875 1.59375 0.296875 5.15625l0 23.46875l12.078125 -12.5q2.765625 -2.890625 3.796875 -3.515625q1.046875 -0.625 2.375 -0.625q2.0625 0 3.390625 1.328125q1.328125 1.328125 1.328125 2.890625q0 2.390625 -4.40625 6.484375l-5.59375 5.203125l10.859375 17.1875q2.34375 3.703125 2.34375 5.390625q0 1.828125 -1.34375 3.359375q-1.34375 1.53125 -3.6875 1.53125q-1.953125 0 -3.171875 -1.15625q-1.203125 -1.15625 -2.765625 -3.734375l-9.34375 -15.46875z" fill-rule="nonzero"/><path fill="#000000" d="m164.85211 391.72647l0 39.6875q0 3.75 -0.296875 5.421875q-0.28125 1.65625 -1.84375 2.9375q-1.5625 1.265625 -3.59375 1.265625q-2.03125 0 -3.59375 -1.171875q-1.5625 -1.1875 -1.859375 -2.90625q-0.296875 -1.71875 -0.296875 -5.546875l0 -39.6875l-10.578125 0q-3.484375 0 -4.78125 -0.265625q-1.28125 -0.28125 -2.265625 -1.46875q-0.96875 -1.1875 -0.96875 -2.75q0 -1.171875 0.640625 -2.328125q0.65625 -1.15625 1.78125 -1.640625q1.140625 -0.484375 5.59375 -0.484375l32.578125 0q4.015625 0 5.125 0.3125q1.125 0.3125 2.0 1.5q0.875 1.1875 0.875 2.640625q0 1.171875 -0.671875 2.34375q-0.65625 1.171875 -1.796875 1.65625q-1.125 0.484375 -5.53125 0.484375l-10.515625 0zm38.320312 5.9375q9.921875 0 15.609375 6.125q5.6875 6.109375 5.6875 15.5625q0 9.484375 -5.765625 15.59375q-5.765625 6.09375 -15.25 6.09375q-10.3125 0 -15.921875 -6.171875q-5.609375 -6.1875 -5.609375 -15.515625q0 -9.5 5.6875 -15.59375q5.6875 -6.09375 15.5625 -6.09375zm0 35.4375q4.84375 0 7.671875 -3.65625q2.84375 -3.65625 2.84375 -10.09375q0 -6.484375 -2.84375 -10.140625q-2.828125 -3.65625 -7.671875 -3.65625q-4.765625 0 -7.625 3.671875q-2.84375 3.671875 -2.84375 10.125q0 6.484375 2.828125 10.125q2.84375 3.625 7.640625 3.625zm29.382812 -7.9375l0 -18.703125q0 -3.484375 0.265625 -5.015625q0.28125 -1.546875 1.65625 -2.65625q1.390625 -1.125 3.34375 -1.125q1.875 0 3.296875 1.0625q1.4375 1.046875 1.765625 2.765625q0.328125 1.71875 0.328125 5.203125l0 14.640625q0 7.234375 2.25 9.265625q2.25 2.03125 4.9375 2.03125q3.09375 0 5.40625 -1.734375q2.328125 -1.75 3.171875 -4.1875q0.84375 -2.4375 0.84375 -9.625l0 -10.625q0 -3.40625 0.328125 -5.015625q0.328125 -1.625 1.734375 -2.703125q1.40625 -1.078125 3.328125 -1.078125q1.828125 0 3.25 1.0625q1.4375 1.046875 1.71875 2.640625q0.296875 1.578125 0.296875 5.09375l0 26.328125q0 3.234375 -0.3125 4.6875q-0.3125 1.4375 -1.546875 2.5q-1.21875 1.0625 -3.09375 1.0625q-5.15625 0 -4.96875 -7.390625q-5.34375 7.390625 -14.09375 7.390625q-5.78125 0 -9.84375 -3.453125q-4.0625 -3.46875 -4.0625 -12.421875zm82.33594 -1.984375q1.953125 0 3.234375 1.53125q1.296875 1.515625 1.296875 3.109375q0 4.34375 -5.203125 8.78125q-5.1875 4.4375 -13.890625 4.4375q-10.515625 0 -15.875 -5.953125q-5.34375 -5.96875 -5.34375 -15.5q0 -9.65625 5.546875 -15.78125q5.546875 -6.140625 15.828125 -6.140625q7.96875 0 13.171875 4.171875q5.21875 4.15625 5.21875 8.21875q0 1.953125 -1.40625 3.265625q-1.40625 1.296875 -3.3125 1.296875q-2.34375 0 -3.671875 -1.984375q-2.9375 -4.453125 -5.203125 -5.640625q-2.265625 -1.203125 -4.875 -1.203125q-5.125 0 -7.90625 3.9375q-2.765625 3.921875 -2.765625 9.78125q0 6.015625 2.90625 9.8125q2.921875 3.78125 7.765625 3.78125q2.765625 0 5.109375 -1.3125q2.34375 -1.3125 4.046875 -3.9375q1.703125 -2.640625 2.6875 -3.65625q1.0 -1.015625 2.640625 -1.015625zm49.609375 -9.0625l0 19.453125q0 7.46875 -5.421875 7.46875q-2.46875 0 -3.84375 -1.578125q-1.359375 -1.59375 -1.359375 -5.890625l0 -17.03125q0 -6.0625 -1.9375 -8.296875q-1.921875 -2.25 -5.359375 -2.25q-3.046875 0 -5.296875 1.6875q-2.25 1.671875 -3.1875 4.140625q-0.9375 2.453125 -0.9375 8.625l0 12.34375q0 5.0 -1.421875 6.625q-1.421875 1.625 -3.96875 1.625q-2.453125 0 -3.859375 -1.578125q-1.40625 -1.59375 -1.40625 -6.515625l0 -42.34375q0 -3.875 0.359375 -5.375q0.375 -1.5 1.703125 -2.453125q1.328125 -0.96875 3.125 -0.96875q2.03125 0 3.375 1.09375q1.359375 1.09375 1.71875 2.84375q0.375 1.734375 0.375 5.75l0 12.625q5.359375 -6.453125 13.015625 -6.453125q6.4375 0 10.375 3.96875q3.953125 3.96875 3.953125 12.484375z" fill-rule="nonzero"/></g></svg>