<svg version="1.1" xmlns="http://www.w3.org/2000/svg" xmlns:xlink="http://www.w3.org/1999/xlink" width="155.29552" height="10.26458" viewBox="0,0,155.29552,10.26458"><g transform="translate(-162.35224,-174.86771)"><g data-paper-data="{&quot;isPaintingLayer&quot;:true}" fill="#12ff00" fill-rule="nonzero" stroke="none" stroke-width="1" stroke-linecap="square" stroke-linejoin="miter" stroke-miterlimit="10" stroke-dasharray="" stroke-dashoffset="0" style="mix-blend-mode: normal"><path d="M167.43751,180.43161v-4.64085c0,-0.61536 0.24216,-0.92305 0.72647,-0.92305c0.17663,0 0.33047,0.05129 0.46152,0.15384c0.13674,0.10256 0.21937,0.22506 0.24786,0.36751c0.02849,0.14245 0.04274,0.3846 0.04274,0.72647v5.23912c0,0.38745 -0.01425,0.67519 -0.04274,0.86322c-0.02849,0.18803 -0.11395,0.36182 -0.2564,0.52135c-0.13674,0.15384 -0.35041,0.23076 -0.641,0.23076c-0.23931,0 -0.42734,-0.05983 -0.56408,-0.17948c-0.13674,-0.11966 -0.34186,-0.38745 -0.61536,-0.80339l-2.97425,-4.5212v4.2648c0,0.34187 -0.01425,0.58118 -0.04274,0.71793c-0.02279,0.13105 -0.09687,0.25071 -0.22221,0.35896c-0.12535,0.10825 -0.28204,0.16239 -0.47006,0.16239c-0.17094,0 -0.32193,-0.04843 -0.45298,-0.1453c-0.12535,-0.10256 -0.20512,-0.2279 -0.23931,-0.37605c-0.02849,-0.14814 -0.04273,-0.38746 -0.04273,-0.71793v-5.29895c0,-0.48431 0.01994,-0.80339 0.05983,-0.95723c0.03988,-0.15384 0.1396,-0.29344 0.29913,-0.41878c0.16524,-0.12535 0.35896,-0.18803 0.58118,-0.18803c0.21652,0 0.3846,0.05414 0.50426,0.16239c0.11966,0.10256 0.31908,0.36465 0.59827,0.78629zM174.21931,182.14095c-0.68943,0.55268 -1.36747,0.82903 -2.03411,0.82903c-0.63245,0 -1.11962,-0.15954 -1.46149,-0.47862c-0.33617,-0.32478 -0.50426,-0.71792 -0.50426,-1.17944c0,-0.39885 0.11396,-0.71792 0.34187,-0.95723c0.23361,-0.245 0.48431,-0.41594 0.75211,-0.51281c0.27349,-0.09687 0.71507,-0.20797 1.32474,-0.33332c0.60967,-0.12535 1.10252,-0.24216 1.47857,-0.35042c-0.0057,-0.44443 -0.09401,-0.74356 -0.26494,-0.8974c-0.17094,-0.15384 -0.43018,-0.23076 -0.77775,-0.23076c-0.66094,0 -1.09398,0.18518 -1.29909,0.55553c-0.11396,0.21081 -0.21652,0.36181 -0.30769,0.45297c-0.08546,0.08546 -0.21082,0.1282 -0.37605,0.1282c-0.15384,0 -0.29344,-0.04843 -0.41879,-0.14529c-0.12535,-0.10256 -0.18803,-0.23646 -0.18803,-0.40169c0,-0.37606 0.20513,-0.73217 0.61537,-1.06834c0.41024,-0.34187 1.05409,-0.51281 1.93155,-0.51281c0.88886,0 1.5384,0.15385 1.94864,0.46153c0.41594,0.30768 0.61252,0.92873 0.58973,1.86317l-0.03419,1.36747c-0.01139,0.42733 0.03134,0.7749 0.12821,1.0427c0.10256,0.2621 0.15384,0.46437 0.15384,0.60682c0,0.15384 -0.06838,0.29058 -0.20512,0.41024c-0.13105,0.11966 -0.28203,0.17948 -0.45297,0.17948c-0.29628,0 -0.60967,-0.27635 -0.94014,-0.82903zM174.12529,180.02992c-0.21652,0.08546 -0.57548,0.17948 -1.07688,0.28204c-0.50141,0.09687 -0.85752,0.21082 -1.06834,0.34187c-0.20512,0.12535 -0.30768,0.31337 -0.30768,0.56408c0,0.20512 0.08262,0.3903 0.24785,0.55553c0.16523,0.15953 0.4017,0.23931 0.70938,0.23931c0.31907,0 0.61536,-0.08831 0.88886,-0.26494c0.27919,-0.17663 0.45012,-0.38461 0.5128,-0.62391c0.06267,-0.245 0.09401,-0.60966 0.09401,-1.09398zM178.97768,181.26919l1.27345,-3.46996c0.12535,-0.34187 0.24216,-0.55268 0.35041,-0.63246c0.10825,-0.08546 0.23076,-0.1282 0.36751,-0.1282c0.19373,0 0.35327,0.06553 0.47862,0.19658c0.13105,0.13105 0.19657,0.26779 0.19657,0.41024c0,0.13105 -0.07122,0.37606 -0.21367,0.73502l-1.41021,3.46995c-0.19373,0.49571 -0.36181,0.80624 -0.50426,0.93159c-0.13675,0.12535 -0.31622,0.18803 -0.53844,0.18803c-0.27919,0 -0.48431,-0.07692 -0.61536,-0.23076c-0.12535,-0.15953 -0.27349,-0.45582 -0.44443,-0.88885l-1.39311,-3.43577c-0.14814,-0.34757 -0.22222,-0.59542 -0.22222,-0.74357c0,-0.15384 0.06552,-0.29628 0.19657,-0.42733c0.13675,-0.13674 0.30483,-0.20513 0.50426,-0.20513c0.22222,0 0.37606,0.06268 0.46152,0.18803c0.09117,0.12535 0.20227,0.36465 0.33332,0.71792zM183.42837,174.93609c0.19373,0 0.35896,0.07122 0.49571,0.21367c0.13675,0.14245 0.20512,0.30768 0.20512,0.49571c0,0.19373 -0.06837,0.36181 -0.20512,0.50426c-0.13675,0.13674 -0.30199,0.20512 -0.49571,0.20512c-0.19373,0 -0.36181,-0.06838 -0.50426,-0.20512c-0.13675,-0.14245 -0.20512,-0.31053 -0.20512,-0.50426c0,-0.19373 0.06837,-0.35896 0.20512,-0.49571c0.14244,-0.14245 0.31053,-0.21367 0.50426,-0.21367zM184.15484,178.22656v3.52979c0,0.35327 -0.0171,0.59542 -0.05128,0.72647c-0.02849,0.12535 -0.11111,0.23931 -0.24786,0.34186c-0.13105,0.09687 -0.27349,0.1453 -0.42733,0.1453c-0.15384,0 -0.29913,-0.04843 -0.43588,-0.1453c-0.13675,-0.10256 -0.22222,-0.21936 -0.2564,-0.35041c-0.02849,-0.13105 -0.04274,-0.37036 -0.04274,-0.71793v-3.52124c0,-0.31907 0.0114,-0.54414 0.03419,-0.67519c0.02849,-0.13674 0.10826,-0.2564 0.23931,-0.35896c0.13105,-0.10825 0.28204,-0.16239 0.45297,-0.16239c0.17094,0 0.31907,0.04843 0.44442,0.1453c0.12535,0.09116 0.20513,0.21081 0.23931,0.35896c0.03418,0.14245 0.05128,0.37035 0.05128,0.68373zM189.65784,178.02999v-0.19658c0,-0.2621 0.06267,-0.45867 0.18802,-0.58972c0.13105,-0.13674 0.29628,-0.20513 0.49571,-0.20513c0.22222,0 0.39315,0.07693 0.5128,0.23077c0.11965,0.15384 0.17948,0.48716 0.17948,0.99996v3.91439c0,1.16235 -0.24501,1.94295 -0.73502,2.34179c-0.49001,0.40454 -1.19653,0.60682 -2.11957,0.60682c-0.83188,0 -1.48143,-0.15384 -1.94864,-0.46152c-0.46722,-0.30768 -0.70083,-0.63246 -0.70083,-0.97433c0,-0.18233 0.05983,-0.33048 0.17948,-0.44443c0.12535,-0.11395 0.27349,-0.17093 0.44443,-0.17093c0.15384,0 0.27349,0.03704 0.35896,0.11111c0.09117,0.07407 0.24501,0.24786 0.46152,0.52135c0.22222,0.27349 0.58973,0.41024 1.10253,0.41024c0.28489,0 0.54983,-0.04559 0.79484,-0.13675c0.24501,-0.08546 0.42449,-0.24216 0.53844,-0.47007c0.11965,-0.22221 0.17378,-0.77205 0.16239,-1.64951c-0.44443,0.64385 -1.05125,0.96578 -1.82045,0.96578c-0.74641,0 -1.33613,-0.27919 -1.76917,-0.83758c-0.43303,-0.55839 -0.64955,-1.27061 -0.64955,-2.13667c0,-0.86606 0.22222,-1.55265 0.66665,-2.05976c0.44443,-0.50711 1.02275,-0.76065 1.73498,-0.76065c0.7806,0 1.4216,0.33048 1.92301,0.99142zM186.81179,179.97864c0,0.56408 0.1225,0.99426 0.3675,1.29055c0.24501,0.29628 0.58403,0.44443 1.01706,0.44443c0.37605,0 0.69797,-0.14244 0.96577,-0.42733c0.27349,-0.29059 0.41025,-0.72362 0.41025,-1.2991c0,-0.56408 -0.12535,-1.01136 -0.37606,-1.34183c-0.2507,-0.33047 -0.58973,-0.49571 -1.01705,-0.49571c-0.41594,0 -0.74926,0.15669 -0.99997,0.47007c-0.24501,0.30768 -0.3675,0.76065 -0.3675,1.35892zM195.90654,182.14095c-0.68943,0.55268 -1.36747,0.82903 -2.03411,0.82903c-0.63245,0 -1.11962,-0.15954 -1.46149,-0.47862c-0.33617,-0.32478 -0.50426,-0.71792 -0.50426,-1.17944c0,-0.39885 0.11396,-0.71792 0.34186,-0.95723c0.23361,-0.245 0.48431,-0.41594 0.75211,-0.51281c0.27349,-0.09687 0.71507,-0.20797 1.32474,-0.33332c0.60967,-0.12535 1.10252,-0.24216 1.47857,-0.35042c-0.0057,-0.44443 -0.09401,-0.74356 -0.26494,-0.8974c-0.17094,-0.15384 -0.43018,-0.23076 -0.77775,-0.23076c-0.66094,0 -1.09398,0.18518 -1.2991,0.55553c-0.11396,0.21081 -0.21652,0.36181 -0.30768,0.45297c-0.08546,0.08546 -0.21082,0.1282 -0.37605,0.1282c-0.15384,0 -0.29344,-0.04843 -0.41878,-0.14529c-0.12535,-0.10256 -0.18803,-0.23646 -0.18803,-0.40169c0,-0.37606 0.20512,-0.73217 0.61536,-1.06834c0.41024,-0.34187 1.05409,-0.51281 1.93155,-0.51281c0.88886,0 1.5384,0.15385 1.94864,0.46153c0.41594,0.30768 0.61252,0.92873 0.58973,1.86317l-0.03419,1.36747c-0.01139,0.42733 0.03134,0.7749 0.1282,1.0427c0.10256,0.2621 0.15384,0.46437 0.15384,0.60682c0,0.15384 -0.06838,0.29058 -0.20512,0.41024c-0.13105,0.11966 -0.28204,0.17948 -0.45297,0.17948c-0.29628,0 -0.60966,-0.27635 -0.94013,-0.82903zM195.81252,180.02992c-0.21652,0.08546 -0.57547,0.17948 -1.07688,0.28204c-0.50141,0.09687 -0.85753,0.21082 -1.06834,0.34187c-0.20512,0.12535 -0.30768,0.31337 -0.30768,0.56408c0,0.20512 0.08262,0.3903 0.24785,0.55553c0.16523,0.15953 0.4017,0.23931 0.70938,0.23931c0.31907,0 0.61536,-0.08831 0.88885,-0.26494c0.27919,-0.17663 0.45013,-0.38461 0.51281,-0.62391c0.06267,-0.245 0.09401,-0.60966 0.09401,-1.09398zM198.69062,177.16677v-0.8803c0,-0.35896 0.01424,-0.60112 0.04273,-0.72647c0.03418,-0.13105 0.11396,-0.24786 0.23931,-0.35041c0.12535,-0.10256 0.27349,-0.15384 0.44442,-0.15384c0.15954,0 0.30199,0.04558 0.42733,0.13675c0.12535,0.09116 0.20797,0.20513 0.24786,0.34187c0.03988,0.13105 0.05983,0.34472 0.05983,0.641v0.99141h0.28204c0.35896,0 0.59542,0.04274 0.70937,0.12821c0.11965,0.08546 0.17948,0.21366 0.17948,0.3846c0,0.35896 -0.29914,0.53844 -0.89741,0.53844h-0.27349v2.69221c0,0.36466 0.02564,0.61251 0.07692,0.74356c0.05128,0.13105 0.18802,0.19658 0.41024,0.19658c0.10825,0 0.22791,-0.01425 0.35896,-0.04274c0.13675,-0.03419 0.23646,-0.05128 0.29913,-0.05128c0.14814,0 0.26779,0.04843 0.35896,0.14529c0.09117,0.09687 0.13675,0.21367 0.13675,0.35041c0,0.47861 -0.50426,0.71792 -1.51277,0.71792c-0.49001,0 -0.84898,-0.09117 -1.07689,-0.2735c-0.22791,-0.18233 -0.37036,-0.40169 -0.42733,-0.65809c-0.05697,-0.2621 -0.08546,-0.60396 -0.08546,-1.0256v-2.79477h-0.18803c-0.43303,0 -0.64955,-0.17663 -0.64955,-0.52989c0,-0.34757 0.22791,-0.52135 0.68374,-0.52135zM203.05905,174.93609c0.19373,0 0.35896,0.07122 0.49571,0.21367c0.13675,0.14245 0.20512,0.30768 0.20512,0.49571c0,0.19373 -0.06837,0.36181 -0.20512,0.50426c-0.13675,0.13674 -0.30199,0.20512 -0.49571,0.20512c-0.19373,0 -0.36181,-0.06838 -0.50426,-0.20512c-0.13675,-0.14245 -0.20512,-0.31053 -0.20512,-0.50426c0,-0.19373 0.06837,-0.35896 0.20512,-0.49571c0.14244,-0.14245 0.31053,-0.21367 0.50426,-0.21367zM203.78552,178.22656v3.52979c0,0.35327 -0.0171,0.59542 -0.05128,0.72647c-0.02849,0.12535 -0.11111,0.23931 -0.24786,0.34186c-0.13105,0.09687 -0.27349,0.1453 -0.42733,0.1453c-0.15384,0 -0.29913,-0.04843 -0.43588,-0.1453c-0.13675,-0.10256 -0.22222,-0.21936 -0.2564,-0.35041c-0.02849,-0.13105 -0.04274,-0.37036 -0.04274,-0.71793v-3.52124c0,-0.31907 0.0114,-0.54414 0.03419,-0.67519c0.02849,-0.13674 0.10825,-0.2564 0.23931,-0.35896c0.13105,-0.10825 0.28204,-0.16239 0.45297,-0.16239c0.17094,0 0.31908,0.04843 0.44443,0.1453c0.12535,0.09116 0.20512,0.21081 0.23931,0.35896c0.03418,0.14245 0.05128,0.37035 0.05128,0.68373zM207.83558,177.03857c0.90595,0 1.61817,0.2792 2.13667,0.83758c0.5185,0.55268 0.77775,1.26206 0.77775,2.12812c0,0.86606 -0.2621,1.57829 -0.78629,2.13667c-0.5242,0.55268 -1.21933,0.82903 -2.0854,0.82903c-0.94013,0 -1.66661,-0.28204 -2.17941,-0.84612c-0.5128,-0.56408 -0.7692,-1.27061 -0.7692,-2.11958c0,-0.86606 0.25924,-1.57544 0.77774,-2.12812c0.5185,-0.55839 1.22788,-0.83758 2.12813,-0.83758zM207.83558,181.88455c0.44443,0 0.79484,-0.16524 1.05124,-0.49571c0.2564,-0.33617 0.3846,-0.7977 0.3846,-1.38457c0,-0.59257 -0.1282,-1.05409 -0.3846,-1.38456c-0.2564,-0.33617 -0.60681,-0.50426 -1.05124,-0.50426c-0.43303,0 -0.7806,0.16808 -1.0427,0.50426c-0.2564,0.33617 -0.3846,0.79769 -0.3846,1.38456c0,0.58687 0.1282,1.04839 0.3846,1.38457c0.2564,0.33047 0.60397,0.49571 1.0427,0.49571zM217.04144,179.36327v2.39308c0,0.31338 -0.01425,0.54129 -0.04274,0.68373c-0.02279,0.13674 -0.09971,0.25926 -0.23076,0.36751c-0.12535,0.10825 -0.27349,0.16239 -0.44442,0.16239c-0.15954,0 -0.30768,-0.04843 -0.44443,-0.1453c-0.13105,-0.09687 -0.21367,-0.21936 -0.24786,-0.36751c-0.03418,-0.15384 -0.05128,-0.38745 -0.05128,-0.70083v-2.09394c0,-0.58687 -0.08831,-0.98002 -0.26494,-1.17944c-0.17094,-0.20512 -0.41024,-0.30768 -0.71792,-0.30768c-0.27349,0 -0.51566,0.07978 -0.72647,0.23931c-0.21081,0.15953 -0.35896,0.36181 -0.44442,0.60681c-0.08546,0.23931 -0.1282,0.64955 -0.1282,1.23072v1.50422c0,0.30768 -0.0114,0.53274 -0.03419,0.67519c-0.02279,0.13674 -0.09971,0.2621 -0.23076,0.37606c-0.13105,0.10825 -0.28204,0.16239 -0.45297,0.16239c-0.16523,0 -0.31623,-0.04843 -0.45298,-0.1453c-0.13105,-0.10256 -0.21081,-0.22506 -0.2393,-0.36751c-0.02849,-0.14814 -0.04274,-0.38175 -0.04274,-0.70083v-3.58961c0,-0.32478 0.01425,-0.54984 0.04274,-0.67519c0.03418,-0.13105 0.1111,-0.23931 0.23076,-0.32478c0.12535,-0.08546 0.26495,-0.1282 0.41879,-0.1282c0.14244,0 0.29059,0.05698 0.44443,0.17094c0.15384,0.10825 0.23076,0.37891 0.23076,0.81194c0.49001,-0.65525 1.11677,-0.98287 1.88027,-0.98287c0.29059,0 0.57833,0.05698 0.86322,0.17094c0.28489,0.10825 0.51565,0.28489 0.69228,0.5299c0.18233,0.245 0.29344,0.50141 0.33333,0.7692c0.03988,0.26779 0.05983,0.55268 0.05983,0.85466zM219.46977,177.03857c0.21652,0 0.4017,0.07978 0.55554,0.23931c0.15954,0.15384 0.23931,0.33902 0.23931,0.55553c0,0.22221 -0.07977,0.41309 -0.23931,0.57263c-0.15384,0.15953 -0.33902,0.23931 -0.55554,0.23931c-0.22222,0 -0.41309,-0.07977 -0.57263,-0.23931c-0.15954,-0.15953 -0.23931,-0.35041 -0.23931,-0.57263c0,-0.21652 0.07977,-0.40169 0.23931,-0.55553c0.15954,-0.15953 0.35041,-0.23931 0.57263,-0.23931zM219.46977,181.35465c0.21652,0 0.4017,0.07978 0.55554,0.23931c0.15954,0.15384 0.23931,0.34186 0.23931,0.56408c0,0.21652 -0.07977,0.4074 -0.23931,0.57263c-0.15384,0.15953 -0.33902,0.23931 -0.55554,0.23931c-0.22222,0 -0.41309,-0.07977 -0.57263,-0.23931c-0.15954,-0.15953 -0.23931,-0.35042 -0.23931,-0.57263c0,-0.22221 0.07977,-0.41024 0.23931,-0.56408c0.15954,-0.15953 0.35041,-0.23931 0.57263,-0.23931zM226.63724,176.91037c0,0.22221 0.09401,0.41594 0.28204,0.58118c0.19373,0.16524 0.68374,0.34472 1.47003,0.53845c0.792,0.18803 1.37887,0.3846 1.76062,0.58972c0.38175,0.20512 0.65525,0.47576 0.82049,0.81193c0.17094,0.33617 0.2564,0.68659 0.2564,1.05125c0,0.72932 -0.27635,1.32758 -0.82903,1.7948c-0.55268,0.46152 -1.30764,0.69228 -2.26487,0.69228c-1.04839,0 -1.83184,-0.25071 -2.35034,-0.75211c-0.5185,-0.50711 -0.77775,-1.02845 -0.77775,-1.56404c0,-0.17663 0.06552,-0.33617 0.19657,-0.47862c0.13675,-0.14245 0.31338,-0.21367 0.52989,-0.21367c0.19373,0 0.33902,0.05983 0.43588,0.17948c0.09686,0.11966 0.21081,0.33617 0.34186,0.64955c0.29628,0.67234 0.82049,1.00851 1.5726,1.00851c0.44443,0 0.82048,-0.10256 1.12816,-0.30768c0.30768,-0.20512 0.46152,-0.48431 0.46152,-0.83757c0,-0.27349 -0.10541,-0.50711 -0.31623,-0.70083c-0.21081,-0.19942 -0.69798,-0.38745 -1.46148,-0.56408c-0.75781,-0.17663 -1.29055,-0.34472 -1.59823,-0.50426c-0.30199,-0.15953 -0.56694,-0.3903 -0.79485,-0.69228c-0.22791,-0.30199 -0.34186,-0.68088 -0.34186,-1.13671c0,-0.66664 0.2621,-1.19654 0.7863,-1.58969c0.52989,-0.39885 1.24781,-0.59827 2.15376,-0.59827c0.92874,0 1.62672,0.21367 2.09394,0.641c0.47292,0.42164 0.70937,0.84612 0.70937,1.27345c0,0.17663 -0.06837,0.34472 -0.20512,0.50426c-0.13675,0.15384 -0.31054,0.23076 -0.52135,0.23076c-0.19373,0 -0.34187,-0.05413 -0.44443,-0.16239c-0.09686,-0.10825 -0.20512,-0.29059 -0.32478,-0.54699c-0.27349,-0.54129 -0.74071,-0.81193 -1.40166,-0.81193c-0.38745,0 -0.71222,0.08546 -0.97432,0.2564c-0.2621,0.16524 -0.39315,0.3846 -0.39315,0.65809zM232.7118,177.16677v-0.8803c0,-0.35896 0.01424,-0.60112 0.04273,-0.72647c0.03418,-0.13105 0.11396,-0.24786 0.23931,-0.35041c0.12535,-0.10256 0.27349,-0.15384 0.44442,-0.15384c0.15954,0 0.30199,0.04558 0.42733,0.13675c0.12535,0.09116 0.20797,0.20513 0.24785,0.34187c0.03988,0.13105 0.05983,0.34472 0.05983,0.641v0.99141h0.28204c0.35896,0 0.59542,0.04274 0.70938,0.12821c0.11965,0.08546 0.17948,0.21366 0.17948,0.3846c0,0.35896 -0.29913,0.53844 -0.8974,0.53844h-0.27349v2.69221c0,0.36466 0.02564,0.61251 0.07692,0.74356c0.05128,0.13105 0.18803,0.19658 0.41024,0.19658c0.10826,0 0.22791,-0.01425 0.35896,-0.04274c0.13674,-0.03419 0.23646,-0.05128 0.29914,-0.05128c0.14814,0 0.2678,0.04843 0.35896,0.14529c0.09116,0.09687 0.13675,0.21367 0.13675,0.35041c0,0.47861 -0.50425,0.71792 -1.51276,0.71792c-0.49001,0 -0.84898,-0.09117 -1.07689,-0.2735c-0.22791,-0.18233 -0.37036,-0.40169 -0.42733,-0.65809c-0.05697,-0.2621 -0.08546,-0.60396 -0.08546,-1.0256v-2.79477h-0.18803c-0.43303,0 -0.64955,-0.17663 -0.64955,-0.52989c0,-0.34757 0.22791,-0.52135 0.68373,-0.52135zM240.02883,182.14095c-0.68943,0.55268 -1.36747,0.82903 -2.03411,0.82903c-0.63245,0 -1.11961,-0.15954 -1.46148,-0.47862c-0.33617,-0.32478 -0.50426,-0.71792 -0.50426,-1.17944c0,-0.39885 0.11395,-0.71792 0.34186,-0.95723c0.23361,-0.245 0.48432,-0.41594 0.75211,-0.51281c0.27349,-0.09687 0.71507,-0.20797 1.32474,-0.33332c0.60967,-0.12535 1.10252,-0.24216 1.47858,-0.35042c-0.0057,-0.44443 -0.09401,-0.74356 -0.26495,-0.8974c-0.17093,-0.15384 -0.43018,-0.23076 -0.77775,-0.23076c-0.66094,0 -1.09398,0.18518 -1.2991,0.55553c-0.11396,0.21081 -0.21652,0.36181 -0.30768,0.45297c-0.08546,0.08546 -0.21082,0.1282 -0.37606,0.1282c-0.15384,0 -0.29344,-0.04843 -0.41879,-0.14529c-0.12535,-0.10256 -0.18803,-0.23646 -0.18803,-0.40169c0,-0.37606 0.20513,-0.73217 0.61537,-1.06834c0.41024,-0.34187 1.05409,-0.51281 1.93155,-0.51281c0.88886,0 1.53841,0.15385 1.94864,0.46153c0.41594,0.30768 0.61251,0.92873 0.58972,1.86317l-0.03419,1.36747c-0.01139,0.42733 0.03134,0.7749 0.1282,1.0427c0.10256,0.2621 0.15384,0.46437 0.15384,0.60682c0,0.15384 -0.06838,0.29058 -0.20512,0.41024c-0.13105,0.11966 -0.28204,0.17948 -0.45297,0.17948c-0.29629,0 -0.60967,-0.27635 -0.94014,-0.82903zM239.93482,180.02992c-0.21651,0.08546 -0.57547,0.17948 -1.07688,0.28204c-0.50141,0.09687 -0.85752,0.21082 -1.06834,0.34187c-0.20512,0.12535 -0.30768,0.31337 -0.30768,0.56408c0,0.20512 0.08262,0.3903 0.24785,0.55553c0.16523,0.15953 0.4017,0.23931 0.70938,0.23931c0.31907,0 0.61536,-0.08831 0.88885,-0.26494c0.27919,-0.17663 0.45013,-0.38461 0.51281,-0.62391c0.06268,-0.245 0.09401,-0.60966 0.09401,-1.09398zM244.02655,181.98711v0.1453c0,0.55839 -0.23931,0.83758 -0.71793,0.83758c-0.18803,0 -0.34472,-0.04843 -0.47007,-0.1453c-0.12535,-0.09687 -0.20227,-0.21366 -0.23076,-0.35041c-0.02279,-0.13674 -0.03419,-0.35327 -0.03419,-0.64955v-5.74338c0,-0.33047 0.01424,-0.56977 0.04273,-0.71792c0.03419,-0.15384 0.11681,-0.2735 0.24786,-0.35896c0.13674,-0.09116 0.28204,-0.13675 0.43588,-0.13675c0.21651,0 0.3903,0.06553 0.52135,0.19658c0.13674,0.12535 0.20512,0.45012 0.20512,0.97432v1.88882c0.54699,-0.59257 1.18799,-0.88886 1.923,-0.88886c0.7578,0 1.35037,0.27065 1.77771,0.81194c0.42733,0.53559 0.64101,1.22502 0.64101,2.06829c0,0.90025 -0.21937,1.63527 -0.6581,2.20505c-0.43873,0.56408 -1.03131,0.84612 -1.77772,0.84612c-0.76351,0 -1.3988,-0.32763 -1.90591,-0.98287zM244.10347,180.0641c0,0.56408 0.13675,1.00281 0.41024,1.31619c0.27349,0.31338 0.61536,0.47007 1.0256,0.47007c0.35326,0 0.66664,-0.15099 0.94014,-0.45298c0.27919,-0.30199 0.41878,-0.7806 0.41878,-1.43585c0,-0.56408 -0.12534,-1.00566 -0.37605,-1.32473c-0.25071,-0.32478 -0.57548,-0.48716 -0.97432,-0.48716c-0.43873,0 -0.78915,0.17378 -1.05125,0.52135c-0.2621,0.34757 -0.39315,0.81193 -0.39315,1.39311zM250.27418,174.93609c0.19373,0 0.35897,0.07122 0.49571,0.21367c0.13674,0.14245 0.20512,0.30768 0.20512,0.49571c0,0.19373 -0.06838,0.36181 -0.20512,0.50426c-0.13674,0.13674 -0.30199,0.20512 -0.49571,0.20512c-0.19373,0 -0.36181,-0.06838 -0.50426,-0.20512c-0.13674,-0.14245 -0.20512,-0.31053 -0.20512,-0.50426c0,-0.19373 0.06838,-0.35896 0.20512,-0.49571c0.14245,-0.14245 0.31053,-0.21367 0.50426,-0.21367zM251.00065,178.22656v3.52979c0,0.35327 -0.0171,0.59542 -0.05128,0.72647c-0.02849,0.12535 -0.11111,0.23931 -0.24785,0.34186c-0.13105,0.09687 -0.27349,0.1453 -0.42733,0.1453c-0.15384,0 -0.29914,-0.04843 -0.43588,-0.1453c-0.13674,-0.10256 -0.22222,-0.21936 -0.2564,-0.35041c-0.02849,-0.13105 -0.04273,-0.37036 -0.04273,-0.71793v-3.52124c0,-0.31907 0.0114,-0.54414 0.03419,-0.67519c0.02849,-0.13674 0.10826,-0.2564 0.23931,-0.35896c0.13105,-0.10825 0.28204,-0.16239 0.45298,-0.16239c0.17093,0 0.31907,0.04843 0.44442,0.1453c0.12535,0.09116 0.20512,0.21081 0.23931,0.35896c0.03419,0.14245 0.05128,0.37035 0.05128,0.68373zM253.96529,176.0728v5.68355c0,0.35327 -0.01709,0.59542 -0.05128,0.72647c-0.02849,0.12535 -0.11111,0.23931 -0.24786,0.34186c-0.13105,0.09687 -0.27349,0.1453 -0.42733,0.1453c-0.15384,0 -0.29914,-0.04843 -0.43588,-0.1453c-0.13674,-0.10256 -0.22221,-0.21936 -0.2564,-0.35041c-0.02849,-0.13105 -0.04273,-0.37036 -0.04273,-0.71793v-5.68355c0,-0.35896 0.01709,-0.60112 0.05128,-0.72647c0.03419,-0.13105 0.1168,-0.24216 0.24785,-0.33332c0.13105,-0.09687 0.27349,-0.14529 0.42733,-0.14529c0.17663,0 0.32763,0.05129 0.45298,0.15384c0.13105,0.10256 0.21081,0.22222 0.23931,0.35896c0.02849,0.13674 0.04273,0.3675 0.04273,0.69228zM256.20345,174.93609c0.19373,0 0.35896,0.07122 0.4957,0.21367c0.13674,0.14245 0.20513,0.30768 0.20513,0.49571c0,0.19373 -0.06838,0.36181 -0.20513,0.50426c-0.13674,0.13674 -0.30198,0.20512 -0.4957,0.20512c-0.19373,0 -0.36181,-0.06838 -0.50426,-0.20512c-0.13674,-0.14245 -0.20512,-0.31053 -0.20512,-0.50426c0,-0.19373 0.06838,-0.35896 0.20512,-0.49571c0.14245,-0.14245 0.31053,-0.21367 0.50426,-0.21367zM256.92992,178.22656v3.52979c0,0.35327 -0.0171,0.59542 -0.05129,0.72647c-0.02849,0.12535 -0.11111,0.23931 -0.24785,0.34186c-0.13105,0.09687 -0.27349,0.1453 -0.42733,0.1453c-0.15384,0 -0.29914,-0.04843 -0.43588,-0.1453c-0.13674,-0.10256 -0.22222,-0.21936 -0.25641,-0.35041c-0.02849,-0.13105 -0.04273,-0.37036 -0.04273,-0.71793v-3.52124c0,-0.31907 0.0114,-0.54414 0.03419,-0.67519c0.02849,-0.13674 0.10826,-0.2564 0.23931,-0.35896c0.13105,-0.10825 0.28204,-0.16239 0.45297,-0.16239c0.17093,0 0.31908,0.04843 0.44443,0.1453c0.12535,0.09116 0.20512,0.21081 0.23931,0.35896c0.03419,0.14245 0.05129,0.37035 0.05129,0.68373zM259.71507,181.71361h2.61529c0.31907,0 0.55553,0.03134 0.70937,0.09401c0.15384,0.06267 0.23076,0.21652 0.23076,0.46152c0,0.245 -0.07977,0.40169 -0.23931,0.47007c-0.15384,0.06267 -0.38745,0.09401 -0.70083,0.09401h-3.40159c-0.30199,0 -0.51565,-0.0114 -0.641,-0.03419c-0.12535,-0.02279 -0.23931,-0.09401 -0.34187,-0.21367c-0.09687,-0.12535 -0.14529,-0.26209 -0.14529,-0.41024c0,-0.17663 0.16239,-0.43873 0.48716,-0.7863c1.77771,-1.94295 2.6979,-2.9885 2.76058,-3.13664h-2.15376c-0.36466,0 -0.60682,-0.04558 -0.72647,-0.13674c-0.11965,-0.09687 -0.17948,-0.23076 -0.17948,-0.4017c0,-0.21081 0.06268,-0.35327 0.18803,-0.42733c0.12535,-0.07977 0.36465,-0.11966 0.71792,-0.11966h2.74349c0.44443,0 0.72646,0.0114 0.84612,0.03419c0.11965,0.01709 0.22791,0.08262 0.32478,0.19658c0.10256,0.11395 0.15384,0.2507 0.15384,0.41024c0,0.13105 -0.02564,0.23645 -0.07692,0.31623c-0.05128,0.07977 -0.21367,0.2735 -0.48716,0.58118zM268.05665,180.36324h-2.86315c0.0171,0.54129 0.16524,0.94868 0.44443,1.22218c0.28489,0.27349 0.62676,0.41024 1.0256,0.41024c0.48431,0 0.94298,-0.21367 1.37601,-0.641c0.17663,-0.17663 0.30483,-0.28489 0.3846,-0.32477c0.08546,-0.04559 0.17948,-0.06837 0.28204,-0.06837c0.13105,0 0.24216,0.04274 0.33333,0.1282c0.09687,0.07977 0.14529,0.17948 0.14529,0.29913c0,0.33047 -0.22506,0.67804 -0.67518,1.0427c-0.44443,0.35896 -1.05124,0.53844 -1.82045,0.53844c-0.97432,0 -1.71504,-0.27635 -2.22214,-0.82903c-0.50141,-0.55268 -0.75211,-1.2649 -0.75211,-2.13667c0,-0.88316 0.25071,-1.59823 0.75211,-2.14522c0.5071,-0.54699 1.21078,-0.82049 2.11103,-0.82049c0.85467,0 1.51561,0.25925 1.98283,0.77775c0.46722,0.5128 0.70083,1.07118 0.70083,1.67515c0,0.26779 -0.07692,0.48147 -0.23076,0.641c-0.15384,0.15384 -0.47861,0.23076 -0.97432,0.23076zM265.1935,179.53421h2.65803c-0.0171,-0.48431 -0.15099,-0.85467 -0.4017,-1.11107c-0.25071,-0.2564 -0.55839,-0.3846 -0.92305,-0.3846c-0.7749,0 -1.21933,0.49855 -1.33328,1.49567zM275.19848,176.91037c0,0.22221 0.09401,0.41594 0.28204,0.58118c0.19373,0.16524 0.68374,0.34472 1.47003,0.53845c0.79199,0.18803 1.37887,0.3846 1.76062,0.58972c0.38175,0.20512 0.65525,0.47576 0.82048,0.81193c0.17093,0.33617 0.2564,0.68659 0.2564,1.05125c0,0.72932 -0.27635,1.32758 -0.82903,1.7948c-0.55268,0.46152 -1.30764,0.69228 -2.26487,0.69228c-1.04839,0 -1.83184,-0.25071 -2.35034,-0.75211c-0.5185,-0.50711 -0.77775,-1.02845 -0.77775,-1.56404c0,-0.17663 0.06553,-0.33617 0.19657,-0.47862c0.13674,-0.14245 0.31338,-0.21367 0.5299,-0.21367c0.19373,0 0.33901,0.05983 0.43588,0.17948c0.09687,0.11966 0.21081,0.33617 0.34186,0.64955c0.29629,0.67234 0.82049,1.00851 1.5726,1.00851c0.44443,0 0.82048,-0.10256 1.12816,-0.30768c0.30768,-0.20512 0.46152,-0.48431 0.46152,-0.83757c0,-0.27349 -0.10541,-0.50711 -0.31623,-0.70083c-0.21081,-0.19942 -0.69798,-0.38745 -1.46149,-0.56408c-0.7578,-0.17663 -1.29055,-0.34472 -1.59823,-0.50426c-0.30199,-0.15953 -0.56693,-0.3903 -0.79484,-0.69228c-0.22791,-0.30199 -0.34187,-0.68088 -0.34187,-1.13671c0,-0.66664 0.26209,-1.19654 0.78629,-1.58969c0.5299,-0.39885 1.24782,-0.59827 2.15376,-0.59827c0.92874,0 1.62672,0.21367 2.09394,0.641c0.47292,0.42164 0.70937,0.84612 0.70937,1.27345c0,0.17663 -0.06838,0.34472 -0.20512,0.50426c-0.13674,0.15384 -0.31053,0.23076 -0.52134,0.23076c-0.19373,0 -0.34187,-0.05413 -0.44443,-0.16239c-0.09687,-0.10825 -0.20512,-0.29059 -0.32477,-0.54699c-0.27349,-0.54129 -0.74071,-0.81193 -1.40166,-0.81193c-0.38745,0 -0.71222,0.08546 -0.97432,0.2564c-0.2621,0.16524 -0.39315,0.3846 -0.39315,0.65809zM281.27304,177.16677v-0.8803c0,-0.35896 0.01424,-0.60112 0.04273,-0.72647c0.03419,-0.13105 0.11396,-0.24786 0.23931,-0.35041c0.12535,-0.10256 0.2735,-0.15384 0.44443,-0.15384c0.15954,0 0.30199,0.04558 0.42733,0.13675c0.12535,0.09116 0.20797,0.20513 0.24785,0.34187c0.03988,0.13105 0.05983,0.34472 0.05983,0.641v0.99141h0.28204c0.35896,0 0.59542,0.04274 0.70937,0.12821c0.11965,0.08546 0.17948,0.21366 0.17948,0.3846c0,0.35896 -0.29913,0.53844 -0.8974,0.53844h-0.27349v2.69221c0,0.36466 0.02564,0.61251 0.07692,0.74356c0.05128,0.13105 0.18802,0.19658 0.41024,0.19658c0.10826,0 0.22791,-0.01425 0.35896,-0.04274c0.13674,-0.03419 0.23646,-0.05128 0.29914,-0.05128c0.14814,0 0.2678,0.04843 0.35896,0.14529c0.09116,0.09687 0.13675,0.21367 0.13675,0.35041c0,0.47861 -0.50426,0.71792 -1.51277,0.71792c-0.49001,0 -0.84897,-0.09117 -1.07689,-0.2735c-0.22791,-0.18233 -0.37036,-0.40169 -0.42733,-0.65809c-0.05697,-0.2621 -0.08546,-0.60396 -0.08546,-1.0256v-2.79477h-0.18803c-0.43303,0 -0.64954,-0.17663 -0.64954,-0.52989c0,-0.34757 0.22791,-0.52135 0.68373,-0.52135zM288.97467,180.36324h-2.86314c0.0171,0.54129 0.16524,0.94868 0.44443,1.22218c0.28489,0.27349 0.62676,0.41024 1.0256,0.41024c0.48431,0 0.94298,-0.21367 1.37601,-0.641c0.17663,-0.17663 0.30484,-0.28489 0.38461,-0.32477c0.08546,-0.04559 0.17948,-0.06837 0.28204,-0.06837c0.13105,0 0.24215,0.04274 0.33332,0.1282c0.09687,0.07977 0.1453,0.17948 0.1453,0.29913c0,0.33047 -0.22506,0.67804 -0.67519,1.0427c-0.44443,0.35896 -1.05124,0.53844 -1.82045,0.53844c-0.97432,0 -1.71504,-0.27635 -2.22214,-0.82903c-0.50141,-0.55268 -0.75211,-1.2649 -0.75211,-2.13667c0,-0.88316 0.25071,-1.59823 0.75211,-2.14522c0.5071,-0.54699 1.21078,-0.82049 2.11103,-0.82049c0.85467,0 1.51561,0.25925 1.98283,0.77775c0.46722,0.5128 0.70083,1.07118 0.70083,1.67515c0,0.26779 -0.07692,0.48147 -0.23076,0.641c-0.15384,0.15384 -0.47861,0.23076 -0.97432,0.23076zM286.11153,179.53421h2.65802c-0.0171,-0.48431 -0.15099,-0.85467 -0.4017,-1.11107c-0.25071,-0.2564 -0.55838,-0.3846 -0.92304,-0.3846c-0.7749,0 -1.21933,0.49855 -1.33329,1.49567zM295.4755,180.36324h-2.86315c0.0171,0.54129 0.16524,0.94868 0.44443,1.22218c0.28489,0.27349 0.62676,0.41024 1.0256,0.41024c0.48431,0 0.94299,-0.21367 1.37602,-0.641c0.17663,-0.17663 0.30483,-0.28489 0.3846,-0.32477c0.08546,-0.04559 0.17948,-0.06837 0.28204,-0.06837c0.13105,0 0.24215,0.04274 0.33332,0.1282c0.09687,0.07977 0.1453,0.17948 0.1453,0.29913c0,0.33047 -0.22506,0.67804 -0.67519,1.0427c-0.44443,0.35896 -1.05124,0.53844 -1.82045,0.53844c-0.97432,0 -1.71504,-0.27635 -2.22214,-0.82903c-0.50141,-0.55268 -0.75211,-1.2649 -0.75211,-2.13667c0,-0.88316 0.2507,-1.59823 0.75211,-2.14522c0.5071,-0.54699 1.21078,-0.82049 2.11103,-0.82049c0.85467,0 1.51561,0.25925 1.98283,0.77775c0.46722,0.5128 0.70083,1.07118 0.70083,1.67515c0,0.26779 -0.07692,0.48147 -0.23076,0.641c-0.15384,0.15384 -0.47861,0.23076 -0.97432,0.23076zM292.61236,179.53421h2.65802c-0.0171,-0.48431 -0.15099,-0.85467 -0.40169,-1.11107c-0.25071,-0.2564 -0.55838,-0.3846 -0.92304,-0.3846c-0.7749,0 -1.21933,0.49855 -1.33328,1.49567zM297.89956,181.75635v-3.7349c0,-0.65525 0.23931,-0.98287 0.71792,-0.98287c0.46152,0 0.69798,0.30199 0.70937,0.90595c0.30199,-0.60397 0.72077,-0.90595 1.25636,-0.90595c0.27919,0 0.56977,0.07407 0.87176,0.22221c0.30199,0.14814 0.45298,0.35042 0.45298,0.60682c0,0.17663 -0.06268,0.32477 -0.18803,0.44443c-0.11965,0.11395 -0.24785,0.17094 -0.3846,0.17094c-0.07977,0 -0.22222,-0.03134 -0.42733,-0.09401c-0.20512,-0.06267 -0.37606,-0.09401 -0.51281,-0.09401c-0.34757,0 -0.60681,0.17663 -0.77775,0.52989c-0.17093,0.34757 -0.25641,1.0256 -0.25641,2.03412v0.84612c0,0.37036 -0.01709,0.62106 -0.05128,0.75211c-0.02849,0.13105 -0.10826,0.25071 -0.23931,0.35896c-0.12535,0.10256 -0.27065,0.15384 -0.43588,0.15384c-0.16523,0 -0.31338,-0.04843 -0.44443,-0.1453c-0.12535,-0.09687 -0.20512,-0.20797 -0.23931,-0.33332c-0.03419,-0.13105 -0.05128,-0.37605 -0.05128,-0.73501zM303.43461,174.93609c0.19373,0 0.35897,0.07122 0.49571,0.21367c0.13674,0.14245 0.20512,0.30768 0.20512,0.49571c0,0.19373 -0.06838,0.36181 -0.20512,0.50426c-0.13674,0.13674 -0.30199,0.20512 -0.49571,0.20512c-0.19373,0 -0.36181,-0.06838 -0.50426,-0.20512c-0.13674,-0.14245 -0.20512,-0.31053 -0.20512,-0.50426c0,-0.19373 0.06838,-0.35896 0.20512,-0.49571c0.14245,-0.14245 0.31053,-0.21367 0.50426,-0.21367zM304.16108,178.22656v3.52979c0,0.35327 -0.0171,0.59542 -0.05128,0.72647c-0.02849,0.12535 -0.11111,0.23931 -0.24785,0.34186c-0.13105,0.09687 -0.27349,0.1453 -0.42733,0.1453c-0.15384,0 -0.29914,-0.04843 -0.43588,-0.1453c-0.13674,-0.10256 -0.22222,-0.21936 -0.2564,-0.35041c-0.02849,-0.13105 -0.04273,-0.37036 -0.04273,-0.71793v-3.52124c0,-0.31907 0.0114,-0.54414 0.03419,-0.67519c0.02849,-0.13674 0.10826,-0.2564 0.23931,-0.35896c0.13105,-0.10825 0.28204,-0.16239 0.45298,-0.16239c0.17093,0 0.31908,0.04843 0.44443,0.1453c0.12535,0.09116 0.20512,0.21081 0.23931,0.35896c0.03419,0.14245 0.05128,0.37035 0.05128,0.68373zM310.80933,179.36327v2.39308c0,0.31338 -0.01424,0.54129 -0.04273,0.68373c-0.02279,0.13674 -0.09971,0.25926 -0.23076,0.36751c-0.12535,0.10825 -0.2735,0.16239 -0.44443,0.16239c-0.15954,0 -0.30768,-0.04843 -0.44443,-0.1453c-0.13105,-0.09687 -0.21366,-0.21936 -0.24785,-0.36751c-0.03419,-0.15384 -0.05128,-0.38745 -0.05128,-0.70083v-2.09394c0,-0.58687 -0.08832,-0.98002 -0.26495,-1.17944c-0.17093,-0.20512 -0.41024,-0.30768 -0.71792,-0.30768c-0.27349,0 -0.51566,0.07978 -0.72647,0.23931c-0.21081,0.15953 -0.35896,0.36181 -0.44443,0.60681c-0.08546,0.23931 -0.1282,0.64955 -0.1282,1.23072v1.50422c0,0.30768 -0.01139,0.53274 -0.03418,0.67519c-0.02279,0.13674 -0.09971,0.2621 -0.23076,0.37606c-0.13105,0.10825 -0.28204,0.16239 -0.45298,0.16239c-0.16523,0 -0.31623,-0.04843 -0.45298,-0.1453c-0.13105,-0.10256 -0.21082,-0.22506 -0.23931,-0.36751c-0.02849,-0.14814 -0.04273,-0.38175 -0.04273,-0.70083v-3.58961c0,-0.32478 0.01424,-0.54984 0.04273,-0.67519c0.03419,-0.13105 0.11111,-0.23931 0.23076,-0.32478c0.12535,-0.08546 0.26495,-0.1282 0.41879,-0.1282c0.14245,0 0.29059,0.05698 0.44443,0.17094c0.15384,0.10825 0.23076,0.37891 0.23076,0.81194c0.49001,-0.65525 1.11676,-0.98287 1.88027,-0.98287c0.29059,0 0.57833,0.05698 0.86322,0.17094c0.28489,0.10825 0.51566,0.28489 0.69228,0.5299c0.18233,0.245 0.29343,0.50141 0.33332,0.7692c0.03988,0.26779 0.05982,0.55268 0.05982,0.85466zM316.27174,178.02999v-0.19658c0,-0.2621 0.06268,-0.45867 0.18803,-0.58972c0.13105,-0.13674 0.29629,-0.20513 0.49571,-0.20513c0.22222,0 0.39315,0.07693 0.5128,0.23077c0.11965,0.15384 0.17948,0.48716 0.17948,0.99996v3.91439c0,1.16235 -0.245,1.94295 -0.73501,2.34179c-0.49001,0.40454 -1.19654,0.60682 -2.11958,0.60682c-0.83188,0 -1.48143,-0.15384 -1.94864,-0.46152c-0.46722,-0.30768 -0.70083,-0.63246 -0.70083,-0.97433c0,-0.18233 0.05982,-0.33048 0.17948,-0.44443c0.12535,-0.11395 0.2735,-0.17093 0.44443,-0.17093c0.15384,0 0.27349,0.03704 0.35896,0.11111c0.09116,0.07407 0.24501,0.24786 0.46152,0.52135c0.22222,0.27349 0.58972,0.41024 1.10252,0.41024c0.28489,0 0.54984,-0.04559 0.79484,-0.13675c0.245,-0.08546 0.42449,-0.24216 0.53844,-0.47007c0.11965,-0.22221 0.17378,-0.77205 0.16239,-1.64951c-0.44443,0.64385 -1.05124,0.96578 -1.82045,0.96578c-0.74641,0 -1.33613,-0.27919 -1.76916,-0.83758c-0.43303,-0.55839 -0.64955,-1.27061 -0.64955,-2.13667c0,-0.86606 0.22221,-1.55265 0.66664,-2.05976c0.44443,-0.50711 1.02275,-0.76065 1.73497,-0.76065c0.7806,0 1.4216,0.33048 1.92301,0.99142zM313.42569,179.97864c0,0.56408 0.1225,0.99426 0.3675,1.29055c0.245,0.29628 0.58403,0.44443 1.01706,0.44443c0.37606,0 0.69798,-0.14244 0.96577,-0.42733c0.27349,-0.29059 0.41024,-0.72362 0.41024,-1.2991c0,-0.56408 -0.12535,-1.01136 -0.37606,-1.34183c-0.25071,-0.33047 -0.58972,-0.49571 -1.01705,-0.49571c-0.41594,0 -0.74926,0.15669 -0.99997,0.47007c-0.245,0.30768 -0.3675,0.76065 -0.3675,1.35892z"/></g></g></svg>