<svg version="1.1" xmlns="http://www.w3.org/2000/svg" xmlns:xlink="http://www.w3.org/1999/xlink" width="52.03127" height="29.33334" viewBox="0,0,52.03127,29.33334"><g transform="translate(-221.36238,-162.9127)"><g data-paper-data="{&quot;isPaintingLayer&quot;:true}" fill-rule="nonzero" stroke-linecap="butt" stroke-linejoin="miter" stroke-miterlimit="10" stroke-dasharray="" stroke-dashoffset="0" style="mix-blend-mode: normal"><g stroke-width="2.5"><path d="M222.65884,186.9941c-0.09637,-2.6481 -0.20091,-8.11335 1.44671,-11.11582c1.49935,-2.73227 5.02143,-1.62845 5.02143,-1.62845l0.62302,14.32953c0,0 -4.74556,-0.20633 -5.97469,-0.25977c-0.54856,-0.02385 -1.07576,-0.20697 -1.11647,-1.32549z" fill="#132ed2" stroke="#25241f"/><path d="M222.65883,186.9941c-0.09637,-2.6481 -0.20092,-8.11335 1.44671,-11.11582c1.49935,-2.73227 5.02143,-1.62845 5.02143,-1.62845l0.62301,14.32954c0,0 -4.74556,-0.20633 -5.97468,-0.25977c-0.54856,-0.02385 -1.07577,-0.20697 -1.11648,-1.32549z" fill="#3f474e" stroke="none"/></g><path d="M273.39364,178.12628z" data-paper-data="{&quot;index&quot;:null}" fill="none" stroke="none" stroke-width="0"/><path d="M222.65883,186.9941c-0.04212,-1.15736 -0.0858,-2.85286 0.01592,-4.64568c0.00969,-0.17087 0.03317,-0.86782 0.03317,-0.86782c0,0 1.26682,1.92347 2.4303,0.88787c0.53455,-0.4758 1.4124,-3.75428 2.09973,-6.04411c0.3842,-1.27995 0.8302,-2.251 0.8302,-2.251l1.68184,14.50601c0,0 -4.74556,-0.20633 -5.97468,-0.25977c-0.54856,-0.02385 -1.07577,-0.20697 -1.11648,-1.32549z" fill="#1e1f26" stroke="none" stroke-width="0"/><path d="M227.15486,187.06507c0.33962,-6.22013 2.27642,-22.65237 13.26181,-22.65237c13.24263,0 13.7751,16.44487 13.50352,22.65954c-0.06327,1.44787 -1.07737,2.5439 -2.64318,2.79184c-2.44282,0.38681 -6.48866,0.88196 -11.19368,0.88196c-4.45407,0 -8.39401,-0.51521 -10.7379,-0.90511c-1.42673,-0.23733 -2.26986,-1.32376 -2.19057,-2.77585z" fill="#25241f" stroke="#25241f" stroke-width="3"/><path d="M227.15486,187.06507c0.33962,-6.22012 2.27642,-22.65237 13.26181,-22.65237c13.24263,0 13.7751,16.44487 13.50352,22.65953c-0.06327,1.44787 -1.07737,2.5439 -2.64318,2.79184c-2.44282,0.38682 -6.48866,0.88196 -11.19367,0.88196c-4.45407,0 -8.39401,-0.51521 -10.7379,-0.90511c-1.42673,-0.23733 -2.26986,-1.32377 -2.19057,-2.77586z" fill="#3f474e" stroke="none" stroke-width="0"/><path d="M227.15486,187.06507c0.09909,-1.81478 0.8902,-7.3905 0.8902,-7.3905c0,0 2.15998,6.71789 13.03727,7.0202c9.66472,0.26861 12.72264,-4.30068 12.72264,-4.30068c0,0 0.15734,3.71417 0.11522,4.67813c-0.06327,1.44787 -1.07737,2.5439 -2.64318,2.79184c-2.44282,0.38682 -6.48866,0.88196 -11.19367,0.88196c-4.45407,0 -8.39401,-0.51521 -10.7379,-0.90511c-1.42673,-0.23733 -2.26986,-1.32377 -2.19057,-2.77586z" fill="#1e1f26" stroke="none" stroke-width="0"/><g stroke="#1e1f26"><path d="M236.83848,178.07043c-0.13572,-1.59323 -0.35366,-3.16363 0.65792,-4.69893c1.21773,-1.84817 5.21981,-1.61585 6.15275,-1.63806c7,-0.16667 6.66666,2.84749 6.66666,4.29166c0,0.62025 -0.0296,1.50938 -0.06384,2.33067c-0.04702,1.12779 -0.82848,2.97114 -7.10282,2.62766c-3.95223,-0.21636 -6.17421,-0.81107 -6.31067,-2.913z" fill="#7194a8" stroke-width="0"/><path d="M236.83848,175.51214c-0.13572,-0.9507 -0.35366,-1.88778 0.65792,-2.80392c1.21773,-1.10283 5.21981,-0.9642 6.15275,-0.97745c7,-0.09945 6.66666,1.69914 6.66666,2.56089c0,0.37011 -0.0296,0.90067 -0.06384,1.39074c-0.04702,0.67297 -0.82848,1.77292 -7.10282,1.56796c-3.95223,-0.12911 -6.17421,-0.48398 -6.31067,-1.73823z" fill="#95bed4" stroke-width="0"/><path d="M236.80145,173.80661c-0.0933,-0.52236 1.21141,-1.03722 1.90684,-1.54057c0.83715,-0.60593 2.13388,-0.52977 2.77524,-0.53705c4.81224,-0.05464 4.58308,0.93357 4.58308,1.40705c0,0.20335 -0.02035,0.49486 -0.04389,0.76413c-0.03233,0.36975 -0.56955,0.97412 -4.88292,0.8615c-2.71701,-0.07093 -4.24454,-0.26592 -4.33835,-0.95505z" fill="#f4fffd" stroke-width="0"/><path d="M236.83848,178.07043c-0.13572,-1.59323 -0.35366,-3.16363 0.65792,-4.69893c1.21773,-1.84817 5.21981,-1.61585 6.15275,-1.63806c7,-0.16666 6.66666,2.84749 6.66666,4.29166c0,0.62025 -0.0296,1.50938 -0.06384,2.33067c-0.04702,1.12779 -0.82849,2.97114 -7.10282,2.62766c-3.95223,-0.21635 -6.17421,-0.81107 -6.31067,-2.913z" fill="none" stroke-width="1.5"/></g><g><path d="M236.43847,176.87043c-0.13572,-1.59323 -0.35366,-3.16363 0.65792,-4.69893c1.21773,-1.84817 5.21981,-1.61585 6.15275,-1.63806c7,-0.16667 6.66666,2.84749 6.66666,4.29166c0,0.62025 -0.0296,1.50938 -0.06384,2.33067c-0.04702,1.12779 -0.82848,2.97114 -7.10282,2.62766c-3.95223,-0.21636 -6.17421,-0.81107 -6.31067,-2.913z" fill="#7194a8" stroke="none" stroke-width="0"/><path d="M236.43847,174.31214c-0.13572,-0.9507 -0.35366,-1.88778 0.65792,-2.80392c1.21773,-1.10283 5.21981,-0.9642 6.15275,-0.97745c7,-0.09945 6.66666,1.69914 6.66666,2.56089c0,0.37011 -0.0296,0.90067 -0.06384,1.39074c-0.04702,0.67297 -0.82848,1.77292 -7.10282,1.56796c-3.95223,-0.12911 -6.17421,-0.48398 -6.31067,-1.73823z" fill="#95bed4" stroke="none" stroke-width="0"/><path d="M236.40144,172.60661c-0.0933,-0.52236 1.21141,-1.03722 1.90684,-1.54057c0.83715,-0.60593 2.13388,-0.52977 2.77524,-0.53705c4.81224,-0.05464 4.58308,0.93357 4.58308,1.40705c0,0.20335 -0.02035,0.49486 -0.04389,0.76413c-0.03233,0.36975 -0.56955,0.97412 -4.88292,0.8615c-2.71701,-0.07093 -4.24454,-0.26592 -4.33835,-0.95505z" fill="#f4fffd" stroke="none" stroke-width="0"/><path d="M236.43847,176.87043c-0.13572,-1.59323 -0.35366,-3.16363 0.65792,-4.69893c1.21773,-1.84817 5.21981,-1.61585 6.15275,-1.63806c7,-0.16666 6.66666,2.84749 6.66666,4.29166c0,0.62025 -0.0296,1.50938 -0.06384,2.33067c-0.04702,1.12779 -0.82849,2.97114 -7.10282,2.62766c-3.95223,-0.21635 -6.17421,-0.81107 -6.31067,-2.913z" fill="none" stroke="#25241f" stroke-width="1.5"/></g></g></g></svg>