<svg version="1.1" xmlns="http://www.w3.org/2000/svg" xmlns:xlink="http://www.w3.org/1999/xlink" width="108.00312" height="78.7738" viewBox="0,0,108.00312,78.7738"><g transform="translate(-186.0307,-140.61311)"><g data-paper-data="{&quot;isPaintingLayer&quot;:true}" fill-rule="nonzero" stroke-linecap="butt" stroke-linejoin="miter" stroke-miterlimit="10" stroke-dasharray="" stroke-dashoffset="0" style="mix-blend-mode: normal"><path d="M198.13483,153.89448c0,-1.45718 1.18127,-2.63846 2.63846,-2.63846c1.45718,0 2.63847,1.18127 2.63847,2.63846c0,1.45718 -1.18128,2.63847 -2.63847,2.63847c-1.45718,0 -2.63846,-1.18128 -2.63846,-2.63847z" fill="#7d8a8a" stroke="none" stroke-width="0.5"/><path d="M201.95579,203.95821c0,-1.28225 1.03946,-2.32172 2.32171,-2.32172c1.28225,0 2.32171,1.03946 2.32171,2.32172c0,1.28225 -1.03946,2.32171 -2.32171,2.32171c-1.28225,0 -2.32171,-1.03946 -2.32171,-2.32171z" fill="#7d8a8a" stroke="none" stroke-width="0.5"/><path d="M191.17311,160.467c0,0 -0.91274,-5.399 12.77158,-8.03871c7.11286,-1.37207 70.34766,-1.99531 77.01518,-0.07042c8.64724,2.49643 7.80374,8.10913 7.80374,8.10913z" fill="#4f6070" stroke="none" stroke-width="0"/><path d="M191.17311,172.90235c0,0 -0.91274,-5.399 12.77158,-8.03871c7.11286,-1.37208 70.34766,-1.99531 77.01518,-0.07042c8.64724,2.49643 7.80374,8.10913 7.80374,8.10913z" fill="#4f6070" stroke="none" stroke-width="0"/><path d="M191.17311,185.06739c0,0 -0.91274,-5.399 12.77158,-8.03871c7.11286,-1.37208 70.34766,-1.99531 77.01518,-0.07042c8.64724,2.49643 7.80374,8.10913 7.80374,8.10913z" fill="#4f6070" stroke="none" stroke-width="0"/><path d="M191.17311,196.69173c0,0 -0.91274,-5.399 12.77158,-8.03871c7.11286,-1.37208 70.34766,-1.99531 77.01518,-0.07042c8.64724,2.49643 7.80374,8.10913 7.80374,8.10913z" fill="#4f6070" stroke="none" stroke-width="0"/><path d="M284.0442,149.79209c0,-1.70718 1.38394,-3.09113 3.09113,-3.09113c1.70718,0 3.09113,1.38394 3.09113,3.09113c0,1.70718 -1.38395,3.09115 -3.09113,3.09115c-1.70718,0 -3.09113,-1.38395 -3.09113,-3.09115z" fill="#7d8a8a" stroke="none" stroke-width="0.5"/><path d="M191.17311,208.85676c0,0 -0.91274,-5.399 12.77158,-8.03871c7.11286,-1.37208 70.34766,-1.99531 77.01518,-0.07042c8.64724,2.49643 7.80374,8.10913 7.80374,8.10913z" fill="#4f6070" stroke="none" stroke-width="0"/><g fill="#000000"><path d="M206.85326,200.88874c0,-1.11798 0.90628,-2.02427 2.02425,-2.02427c1.11798,0 2.02425,0.90629 2.02425,2.02427c0,1.11798 -0.90628,2.02425 -2.02425,2.02425c-1.11798,0 -2.02425,-0.90628 -2.02425,-2.02425z" stroke="none" stroke-width="0.5"/><path d="M188.5307,197.30097c-0.14517,-12.06274 0,-26.55184 0,-33.73138c0,-17.64652 9.91174,-20.45646 24.4491,-20.45646c10.65127,0 34.54297,0 53.19941,0c14.19208,0 25.35461,4.09979 25.35461,19.80358c0,7.96759 0,23.04154 0,35.90759c0,15.76705 -10.42602,18.06262 -19.01597,18.06262c-10.89577,0 -39.23425,0 -59.99082,0c-13.63371,0 -23.76995,-0.77701 -23.99632,-19.58598z" stroke="#030303" stroke-width="5"/><path d="M197.45206,162.96955c0,0 -0.7958,-4.70729 11.13531,-7.0088c6.20157,-1.19629 61.33482,-1.73968 67.14809,-0.06141c7.53937,2.1766 6.80393,7.07019 6.80393,7.07019z" stroke="none" stroke-width="0"/><path d="M197.45206,173.81172c0,0 -0.7958,-4.70729 11.13531,-7.0088c6.20157,-1.1963 61.33482,-1.73968 67.14809,-0.06141c7.53937,2.1766 6.80393,7.07019 6.80393,7.07019z" stroke="none" stroke-width="0"/><path d="M197.45206,184.41818c0,0 -0.7958,-4.70729 11.13531,-7.0088c6.20157,-1.1963 61.33482,-1.73968 67.14809,-0.06141c7.53937,2.1766 6.80393,7.07019 6.80393,7.07019z" stroke="none" stroke-width="0"/><path d="M197.45206,194.55323c0,0 -0.7958,-4.70729 11.13531,-7.0088c6.20157,-1.1963 61.33482,-1.73968 67.14809,-0.06141c7.53937,2.1766 6.80393,7.07019 6.80393,7.07019z" stroke="none" stroke-width="0"/><path d="M197.25155,153.33404c0,-1.48845 1.20662,-2.6951 2.6951,-2.6951c1.48845,0 2.69512,1.20662 2.69512,2.6951c0,1.48845 -1.20664,2.69512 -2.69512,2.69512c-1.48845,0 -2.6951,-1.20664 -2.6951,-2.69512z" stroke="none" stroke-width="0.5"/><path d="M197.45206,205.15969c0,0 -0.7958,-4.70729 11.13531,-7.0088c6.20157,-1.1963 61.33482,-1.73968 67.14809,-0.06141c7.53937,2.1766 6.80393,7.07019 6.80393,7.07019z" stroke="none" stroke-width="0"/></g><g><path d="M206.85326,177.00278c0,-0.65578 0.90628,-1.18738 2.02426,-1.18738c1.11798,0 2.02426,0.5316 2.02426,1.18738c0,0.65578 -0.90628,1.18738 -2.02426,1.18738c-1.11798,0 -2.02426,-0.5316 -2.02426,-1.18738z" fill="#7d8a8a" stroke="none" stroke-width="0.5"/><path d="M188.53071,174.8983c-0.14517,-7.0757 0,-15.57461 0,-19.78595c0,-10.35099 9.91174,-11.99923 24.4491,-11.99923c10.65127,0 34.54297,0 53.19941,0c14.19208,0 25.3546,2.40484 25.3546,11.61626c0,4.67359 0,13.51557 0,21.06245c0,9.24855 -10.42602,10.59507 -19.01598,10.59507c-10.89578,0 -39.23424,0 -59.99081,0c-13.6337,0 -23.76995,-0.45577 -23.99632,-11.48863z" fill="#92a3a3" stroke="#030303" stroke-width="5"/><path d="M197.45206,154.76037c0,0 -0.7958,-2.76117 11.13531,-4.11118c6.20156,-0.70171 61.33482,-1.02045 67.14809,-0.03602c7.53937,1.27674 6.80394,4.14719 6.80394,4.14719z" fill="#4f6070" stroke="none" stroke-width="0"/><path d="M197.45206,161.1201c0,0 -0.7958,-2.76117 11.13531,-4.11118c6.20156,-0.70171 61.33482,-1.02045 67.14809,-0.03602c7.53937,1.27674 6.80394,4.14719 6.80394,4.14719z" fill="#4f6070" stroke="none" stroke-width="0"/><path d="M197.45206,167.34158c0,0 -0.7958,-2.76117 11.13531,-4.11118c6.20156,-0.70171 61.33482,-1.02045 67.14809,-0.03602c7.53937,1.27674 6.80394,4.14719 6.80394,4.14719z" fill="#4f6070" stroke="none" stroke-width="0"/><path d="M197.45206,173.28654c0,0 -0.7958,-2.76117 11.13531,-4.11118c6.20156,-0.70171 61.33482,-1.02045 67.14809,-0.03602c7.53937,1.27674 6.80394,4.14719 6.80394,4.14719z" fill="#4f6070" stroke="none" stroke-width="0"/><path d="M197.25155,149.10842c0,-0.87309 1.20663,-1.58087 2.69511,-1.58087c1.48845,0 2.69512,0.70778 2.69512,1.58087c0,0.87309 -1.20664,1.58089 -2.69512,1.58089c-1.48845,0 -2.69511,-0.70779 -2.69511,-1.58089z" fill="#7d8a8a" stroke="none" stroke-width="0.5"/><path d="M197.45206,179.508c0,0 -0.7958,-2.76117 11.13531,-4.11118c6.20156,-0.70171 61.33482,-1.02045 67.14809,-0.03602c7.53937,1.27674 6.80394,4.14719 6.80394,4.14719z" fill="#4f6070" stroke="none" stroke-width="0"/></g></g></g></svg>