<svg version="1.1" xmlns="http://www.w3.org/2000/svg" xmlns:xlink="http://www.w3.org/1999/xlink" width="354.75" height="91.4027" viewBox="0,0,354.75,91.4027"><g transform="translate(77.25,-123.8585)"><g data-paper-data="{&quot;isPaintingLayer&quot;:true}" fill-rule="nonzero" stroke-linejoin="miter" stroke-miterlimit="10" stroke-dasharray="" stroke-dashoffset="0" style="mix-blend-mode: normal"><text transform="translate(-77,145.44444) scale(0.5,0.5)" font-size="40" xml:space="preserve" fill="#ffffff" fill-rule="nonzero" stroke="none" stroke-width="1" stroke-linecap="butt" stroke-linejoin="miter" stroke-miterlimit="10" stroke-dasharray="" stroke-dashoffset="0" font-family="Sans Serif" font-weight="normal" text-anchor="start" style="mix-blend-mode: normal"><tspan x="0" dy="0"> </tspan></text><path d="M210.81742,204.82784c0,-12.01784 0,-46.0465 0,-50.94544c0,-1.57362 1.66178,-2.90196 3.54684,-2.90196c6.17489,0 40.11775,0 51.26788,0c2.23182,0 3.55046,1.18889 3.55046,3.2244c0,6.34387 0,40.15015 0,51.26788c0,2.22971 -2.03698,3.54683 -4.51777,3.54683c-6.71661,0 -38.19001,0 -49.65568,0c-2.61703,0 -4.19171,-1.57351 -4.19171,-4.19171z" fill="#a3b4e0" stroke="#293b6b" stroke-width="3" stroke-linecap="butt"/><path d="M235.42837,178.74504c1.61352,-1.97208 3.6603,-2.95813 6.14035,-2.95813c2.39041,0 4.34755,0.88146 5.87143,2.64439c1.55376,1.73304 2.33064,3.80971 2.33064,6.22999c0,2.62944 -0.86653,4.84057 -2.59957,6.63337c-1.73304,1.7928 -4.01886,2.68921 -6.85747,2.68921c-3.16728,0 -5.64733,-1.15038 -7.44014,-3.45115c-1.76293,-2.33064 -2.64439,-5.57264 -2.64439,-9.72596c0,-5.01985 0.95617,-8.73992 2.86849,-11.1602c1.94221,-2.42029 4.46706,-3.63043 7.5746,-3.63043c2.56969,0 4.54177,0.65736 5.91625,1.97208c1.37448,1.31473 2.06172,2.62944 2.06172,3.94417c0,0.50797 -0.19423,0.9711 -0.58266,1.38942c-0.38844,0.38844 -0.86653,0.58266 -1.43424,0.58266c-1.01592,0 -1.83762,-0.61254 -2.46511,-1.83762c-0.80676,-1.58365 -1.98703,-2.37546 -3.54079,-2.37546c-3.25692,0 -4.98998,3.01789 -5.19913,9.05366zM235.83176,184.48202c0,1.55376 0.43326,2.91331 1.29978,4.07863c0.86653,1.16532 1.97208,1.74798 3.31669,1.74798c1.31473,0 2.34559,-0.5229 3.09259,-1.5687c0.77689,-1.04581 1.16532,-2.37546 1.16532,-3.98899c0,-1.67329 -0.40338,-2.988 -1.21014,-3.94417c-0.80676,-0.98604 -1.83762,-1.47906 -3.09259,-1.47906c-1.16532,0 -2.22606,0.4482 -3.18223,1.3446c-0.92628,0.8964 -1.38942,2.16631 -1.38942,3.80971z" fill="#3e4f7b" stroke="none" stroke-width="1" stroke-linecap="square"/><path d="M201.19842,215.2612v-71.74627h76.30158v71.74628z" fill="none" stroke="none" stroke-width="none" stroke-linecap="butt"/></g></g></svg>