<svg version="1.1" xmlns="http://www.w3.org/2000/svg" xmlns:xlink="http://www.w3.org/1999/xlink" width="304.30031" height="304.30025" viewBox="0,0,304.30031,304.30025"><g transform="translate(-92.84984,-32.84987)"><g data-paper-data="{&quot;isPaintingLayer&quot;:true}" fill-rule="nonzero" stroke-linejoin="miter" stroke-miterlimit="10" stroke-dasharray="" stroke-dashoffset="0" style="mix-blend-mode: normal"><path d="M94.84985,275.23517c0,-59.99896 0,-148.11906 0,-181.81815c0,-26.16557 22.73163,-58.56714 54.69562,-58.56714c60.91162,0 155.35022,0 189.899,0c25.1397,0 55.70568,31.10369 55.70568,56.54696c0,34.37139 0,127.20919 0,187.87876c0,32.57375 -30.56593,55.87453 -55.70568,55.87453c-33.79375,0 -124.88841,0 -185.85858,0c-34.07175,0 -58.73599,-25.26921 -58.73599,-59.91496z" fill="#83a08b" stroke="#83a08b" stroke-width="4" stroke-linecap="butt"/><path d="M378.27638,267.73511c0.8859,11.33431 1.88178,10.11683 -12.60771,13.14395c-11.18115,2.33595 -20.59378,2.19743 -50.29318,5.55628c-44.49823,5.03253 -90.70899,22.81925 -120.75983,0.76351c-29.06108,-28.43848 -12.94792,-128.4909 -12.94792,-128.4909c0,0 77.32868,7.59507 141.75972,36.14038c42.84525,17.1192 53.2971,53.03252 54.84891,72.88677z" fill="#211d2b" stroke="#000000" stroke-width="15" stroke-linecap="butt"/><path d="M378.64598,272.27756l-185.65244,-6.24613c0,0 -5.76016,1.12079 -6.37788,0.66741c-29.06108,-28.43848 -4.94792,-107.9909 -4.94792,-107.9909c0,0 77.32868,7.59507 141.75972,36.14039c42.84525,17.1192 53.2971,53.03252 54.84892,72.88677c0.14163,1.81211 0.3696,4.54246 0.3696,4.54246z" fill="#3e3a4b" stroke="none" stroke-width="0" stroke-linecap="butt"/><path d="M190.51906,267.42462c0,0 46.56825,-0.67105 73.5848,-0.1005c51.08387,1.07882 110.4152,6.1005 110.4152,6.1005" fill="none" stroke="#000000" stroke-width="10" stroke-linecap="round"/><path d="M378.27638,267.73511c0.8859,11.33431 1.88178,10.11683 -12.60771,13.14395c-11.18115,2.33594 -20.59377,2.19742 -50.29318,5.55628c-44.49823,5.03253 -90.70899,22.81925 -120.75983,0.76351c-29.06108,-28.43848 -12.94792,-128.4909 -12.94792,-128.4909c0,0 77.32868,7.59507 141.75972,36.14038c42.84525,17.1192 53.2971,53.03252 54.84891,72.88677z" fill="none" stroke="#000000" stroke-width="15" stroke-linecap="butt"/><path d="M212.30586,253.40067c0,-3.17563 2.57436,-5.75 5.75,-5.75c3.17563,0 5.75,2.57437 5.75,5.75c0,3.17564 -2.57437,5.75 -5.75,5.75c-3.17564,0 -5.75,-2.57437 -5.75,-5.75z" fill="#242031" stroke="none" stroke-width="0" stroke-linecap="butt"/><path d="M249.80585,253.40067c0,-3.17563 2.57436,-5.75 5.75,-5.75c3.17563,0 5.75,2.57437 5.75,5.75c0,3.17564 -2.57436,5.75 -5.75,5.75c-3.17564,0 -5.75,-2.57437 -5.75,-5.75z" fill="#242031" stroke="none" stroke-width="0" stroke-linecap="butt"/><path d="M285.80585,254.56733c0,-3.17563 2.57436,-5.75 5.75,-5.75c3.17564,0 5.75,2.57437 5.75,5.75c0,3.17564 -2.57436,5.75 -5.75,5.75c-3.17564,0 -5.75,-2.57437 -5.75,-5.75z" fill="#242031" stroke="none" stroke-width="0" stroke-linecap="butt"/><path d="M320.80586,256.40067c0,-3.17563 2.57436,-5.75 5.75,-5.75c3.17564,0 5.75,2.57437 5.75,5.75c0,3.17564 -2.57436,5.75 -5.75,5.75c-3.17564,0 -5.75,-2.57437 -5.75,-5.75z" fill="#242031" stroke="none" stroke-width="0" stroke-linecap="butt"/><path d="M348.80586,259.40067c0,-3.17563 2.57436,-5.75 5.75,-5.75c3.17564,0 5.75,2.57437 5.75,5.75c0,3.17564 -2.57436,5.75 -5.75,5.75c-3.17564,0 -5.75,-2.57437 -5.75,-5.75z" fill="#242031" stroke="none" stroke-width="0" stroke-linecap="butt"/><path d="M212.74569,170.8436c7.41015,8.56 7.32426,20.7738 -0.19183,27.28027c-7.5161,6.50647 -19.61622,4.84177 -27.02637,-3.71824c-7.41015,-8.56 -7.32426,-20.7738 0.19183,-27.28028c7.5161,-6.50647 19.61622,-4.84176 27.02637,3.71825z" fill="#725b5a" stroke="#000000" stroke-width="12.5" stroke-linecap="butt"/><path d="M270.39797,165.19002c9.70822,5.82533 13.43183,17.458 8.3169,25.98228c-5.11492,8.52429 -17.13146,10.71224 -26.83968,4.8869c-9.70822,-5.82533 -13.43183,-17.458 -8.3169,-25.98229c5.11493,-8.52429 17.13146,-10.71223 26.83968,-4.8869z" fill="#725b5a" stroke="#000000" stroke-width="12.5" stroke-linecap="butt"/><g stroke-linecap="butt"><path d="M139.3819,153.79377c0,0 -26.65808,-35.4736 -19.95364,-54.41034c8.30468,-23.45664 45.66246,-34.05069 55.46523,-36.70221c28.38885,-7.67883 38.53257,53.70623 38.53257,53.70623l-2.54416,6.40633c0,0 -20.75073,16.22708 -31.03493,20.41422c-12.58244,5.12285 -40.46507,10.58578 -40.46507,10.58578z" fill="#1e1c2a" stroke="none" stroke-width="0"/><path d="M159.79342,141.29378c0,0 -2.38676,-8.34865 -9.33831,-23.36862c-9.76104,-20.78702 -20.28848,-32.04171 -20.28848,-32.04171c0,0 46.61656,-20.55069 54.04801,-23.20221c21.5215,-7.67883 29.21141,53.70623 29.21141,53.70623l-3.92872,2.90633z" fill="#312d3d" stroke="none" stroke-width="0"/><path d="M139.3819,153.79377c0,0 -26.65808,-35.4736 -19.95364,-54.41034c8.30468,-23.45664 45.66246,-34.05069 55.46523,-36.70221c28.38885,-7.67883 38.53258,53.70623 38.53258,53.70623l-2.54416,6.40633c0,0 -20.75073,16.22708 -31.03493,20.41422c-12.58244,5.12285 -40.46507,10.58578 -40.46507,10.58578z" fill="none" stroke="#000000" stroke-width="15"/><path d="M247.87289,119.29527c7.89881,13.85604 2.02989,16.74581 -60.53339,43.6764c-60.25613,25.93746 -82.63694,13.45852 -85.98464,-3.89978c-2.02778,-10.51432 38.68543,-3.56219 71.44585,-22.74598c35.80585,-20.96713 67.88619,-29.63623 75.07217,-17.03064z" fill="#1c1a26" stroke="none" stroke-width="0"/><path d="M247.87289,119.29527c7.89881,13.85604 2.02989,16.74581 -60.53339,43.6764c-60.25613,25.93746 -57.63694,10.95852 -60.98464,-6.39978c-2.02778,-10.51432 13.68543,-1.06219 46.44585,-20.24598c35.80585,-20.96713 67.88619,-29.63623 75.07217,-17.03064z" fill="#312d3d" stroke="none" stroke-width="0"/><path d="M247.87289,119.29527c2.9724,5.21417 4.25422,9.09974 -0.72074,14.35073c-16.02866,16.918 -20.79259,12.52934 -59.81265,29.32567c-60.25613,25.93746 -82.63694,13.45852 -85.98464,-3.89978c-2.02778,-10.51432 38.68543,-3.56219 71.44585,-22.74598c35.80585,-20.96713 67.88619,-29.63623 75.07217,-17.03064z" fill="none" stroke="#000000" stroke-width="15"/></g></g></g></svg>