<svg version="1.1" xmlns="http://www.w3.org/2000/svg" xmlns:xlink="http://www.w3.org/1999/xlink" width="354.75" height="91.4027" viewBox="0,0,354.75,91.4027"><g transform="translate(77.25,-123.8585)"><g data-paper-data="{&quot;isPaintingLayer&quot;:true}" fill-rule="nonzero" stroke-linejoin="miter" stroke-miterlimit="10" stroke-dasharray="" stroke-dashoffset="0" style="mix-blend-mode: normal"><text transform="translate(-77,145.44444) scale(0.5,0.5)" font-size="40" xml:space="preserve" fill="#ffffff" fill-rule="nonzero" stroke="none" stroke-width="1" stroke-linecap="butt" stroke-linejoin="miter" stroke-miterlimit="10" stroke-dasharray="" stroke-dashoffset="0" font-family="Sans Serif" font-weight="normal" text-anchor="start" style="mix-blend-mode: normal"><tspan x="0" dy="0"> </tspan></text><path d="M210.81742,204.82784c0,-12.01784 0,-46.0465 0,-50.94544c0,-1.57362 1.66178,-2.90196 3.54684,-2.90196c6.17489,0 40.11775,0 51.26788,0c2.23182,0 3.55046,1.18889 3.55046,3.2244c0,6.34387 0,40.15015 0,51.26788c0,2.22971 -2.03698,3.54683 -4.51777,3.54683c-6.71661,0 -38.19001,0 -49.65568,0c-2.61703,0 -4.19171,-1.57351 -4.19171,-4.19171z" fill="#a3b4e0" stroke="#293b6b" stroke-width="3" stroke-linecap="butt"/><path d="M237.15392,171.61018l-1.03086,6.00589c1.61352,-0.92628 3.24199,-1.38942 4.88539,-1.38942c2.33064,0 4.34755,0.83664 6.05071,2.50993c1.70316,1.6434 2.55475,3.74994 2.55475,6.31963c0,2.68921 -0.91135,4.98998 -2.73403,6.90229c-1.7928,1.88244 -4.15332,2.82367 -7.08157,2.82367c-3.19717,0 -5.57264,-0.83664 -7.12639,-2.50993c-1.52388,-1.67329 -2.28582,-3.12246 -2.28582,-4.34755c0,-0.4482 0.19423,-0.8964 0.58266,-1.3446c0.41833,-0.4482 0.94122,-0.6723 1.5687,-0.6723c0.86653,0 1.6434,0.61254 2.33064,1.83762c0.80676,1.40437 1.58365,2.34559 2.33064,2.82367c0.747,0.47808 1.5687,0.71712 2.46511,0.71712c1.52388,0 2.68921,-0.56772 3.49597,-1.70316c0.83664,-1.16532 1.25496,-2.56969 1.25496,-4.21309c0,-1.73304 -0.4482,-3.07764 -1.3446,-4.03381c-0.8964,-0.95617 -2.03185,-1.43424 -3.40633,-1.43424c-0.68725,0 -1.35955,0.11952 -2.0169,0.35856c-0.65736,0.20916 -1.52388,0.80676 -2.59957,1.7928c-0.47808,0.38844 -1.03086,0.58266 -1.65834,0.58266c-0.59761,0 -1.13545,-0.20916 -1.61352,-0.62748c-0.47808,-0.4482 -0.71712,-0.95617 -0.71712,-1.52388c0,-0.14941 0.05976,-0.58266 0.17928,-1.29978l1.5687,-8.9192c0.23905,-1.31473 0.62748,-2.15135 1.16532,-2.5099c0.56772,-0.35856 1.44919,-0.53784 2.64439,-0.53784h8.9192c0.86653,0 1.47906,0.04482 1.83762,0.13446c0.35856,0.08964 0.68725,0.3436 0.98604,0.76191c0.2988,0.38844 0.4482,0.82171 0.4482,1.29978c0,1.46412 -1.03086,2.19618 -3.09259,2.19618h-8.56064z" fill="#3e4f7b" stroke="none" stroke-width="1" stroke-linecap="square"/><path d="M201.19842,215.2612v-71.74627h76.30158v71.74628z" fill="none" stroke="none" stroke-width="none" stroke-linecap="butt"/></g></g></svg>