<svg version="1.1" xmlns="http://www.w3.org/2000/svg" xmlns:xlink="http://www.w3.org/1999/xlink" width="53.33334" height="52.16666" viewBox="0,0,53.33334,52.16666"><g transform="translate(-207.66669,-148.8167)"><g data-paper-data="{&quot;isPaintingLayer&quot;:true}" fill-rule="nonzero" stroke-linejoin="miter" stroke-miterlimit="10" stroke-dasharray="" stroke-dashoffset="0" style="mix-blend-mode: normal"><g stroke="#00f000" stroke-width="6" stroke-linecap="butt"><path d="M243.70208,191.57922c0,-1.53549 0,-19.01568 0,-19.01568c0,0 4.69168,-2.4693 5.54121,-2.91642c0.25371,-0.13353 0.49421,-0.07138 0.49421,0.188c0,1.70919 0,19.45815 0,19.45815c0,0 -4.83875,2.12225 -5.63168,2.47003c-0.21231,0.09312 -0.40373,0.02752 -0.40373,-0.18409z" data-paper-data="{&quot;index&quot;:null}" fill="#363344"/><path d="M231.63127,191.31725c0,-0.11872 0,-0.24818 0,-0.38257c0,-2.32225 0,-18.37113 0,-18.37113c0,0 4.97259,-2.61716 5.70793,-3.00417c0.17613,-0.0927 0.32749,0.02982 0.32749,0.30486c0,1.75495 0,19.42905 0,19.42905c0,0 -4.79307,2.10222 -5.60431,2.45802c-0.225,0.09869 -0.4311,-0.07283 -0.4311,-0.43406z" data-paper-data="{&quot;index&quot;:null}" fill="#363344"/><path d="M225.59586,170.16673c0,-0.43248 0.2655,-0.63997 0.53927,-0.49588c0.87397,0.45999 5.49614,2.8927 5.49614,2.8927c0,0 0,17.24505 0,18.92835c0,0.25911 -0.17195,0.37308 -0.39565,0.27496c-0.11953,-0.05243 -0.25384,-0.11134 -0.3846,-0.16869c-0.97447,-0.4274 -5.25515,-2.30489 -5.25515,-2.30489c0,0 -0.00001,-16.98453 -0.00001,-19.12655z" fill="#566866"/><path d="M237.66669,169.86423c0,-0.27504 0.19938,-0.37228 0.4186,-0.25691c0.80302,0.42264 5.61682,2.95622 5.61682,2.95622c0,0 0,17.17106 0,18.89925c0,0.27473 -0.21657,0.38261 -0.45044,0.28003c-0.82353,-0.3612 -5.58497,-2.44955 -5.58497,-2.44955c0,0 -0.00001,-17.6741 -0.00001,-19.42904z" fill="#566866"/></g><g stroke="#000000" stroke-width="2" stroke-linecap="butt"><path d="M243.70208,191.57922c0,-1.53549 0,-19.01568 0,-19.01568c0,0 4.69168,-2.4693 5.54121,-2.91642c0.25371,-0.13353 0.49421,-0.07138 0.49421,0.188c0,1.70919 0,19.45815 0,19.45815c0,0 -4.83875,2.12225 -5.63168,2.47003c-0.21231,0.09312 -0.40373,0.02752 -0.40373,-0.18409z" data-paper-data="{&quot;index&quot;:null}" fill="#363344"/><path d="M231.63127,191.31725c0,-0.11872 0,-0.24818 0,-0.38257c0,-2.32225 0,-18.37113 0,-18.37113c0,0 4.97259,-2.61716 5.70793,-3.00417c0.17613,-0.0927 0.32749,0.02982 0.32749,0.30486c0,1.75495 0,19.42905 0,19.42905c0,0 -4.79307,2.10222 -5.60431,2.45802c-0.225,0.09869 -0.4311,-0.07283 -0.4311,-0.43406z" data-paper-data="{&quot;index&quot;:null}" fill="#363344"/><path d="M225.59586,170.16673c0,-0.43248 0.2655,-0.63997 0.53927,-0.49588c0.87397,0.45999 5.49614,2.8927 5.49614,2.8927c0,0 0,17.24505 0,18.92835c0,0.25911 -0.17195,0.37308 -0.39565,0.27496c-0.11953,-0.05243 -0.25384,-0.11134 -0.3846,-0.16869c-0.97447,-0.4274 -5.25515,-2.30489 -5.25515,-2.30489c0,0 -0.00001,-16.98453 -0.00001,-19.12655z" fill="#566866"/><path d="M237.66669,169.86423c0,-0.27504 0.19938,-0.37228 0.4186,-0.25691c0.80302,0.42264 5.61682,2.95622 5.61682,2.95622c0,0 0,17.17106 0,18.89925c0,0.27473 -0.21657,0.38261 -0.45044,0.28003c-0.82353,-0.3612 -5.58497,-2.44955 -5.58497,-2.44955c0,0 -0.00001,-17.6741 -0.00001,-19.42904z" fill="#566866"/></g><g fill="none" stroke-width="1"><path d="M246.71329,182.18177c0.00686,-0.93756 0.01697,-2.27499 0.02358,-3.15807" stroke="none" stroke-linecap="butt"/><path d="M226.16502,184.71633c0,0 0.2216,-0.41536 0.60838,-0.98579" stroke="#afafaf" stroke-linecap="round"/><path d="M227.6598,182.56446c0.45419,-0.52959 0.99174,-1.05611 1.58385,-1.44675" stroke="#afafaf" stroke-linecap="round"/><path d="M232.11834,180.63611c0.63247,0.21581 1.15872,0.63901 1.63489,1.1488" stroke="#afafaf" stroke-linecap="round"/><path d="M236.42588,184.8923c-0.63902,-0.48746 -1.17756,-1.22632 -1.73448,-1.96067" stroke="#afafaf" stroke-linecap="round"/><path d="M240.33415,184.75026c-0.55502,0.28513 -1.14086,0.50638 -1.76295,0.64262c-0.02411,0.00528 -0.04807,0.01023 -0.0719,0.01486" stroke="#afafaf" stroke-linecap="round"/><path d="M243.37965,182.40003c-0.47623,0.4816 -0.97435,0.93994 -1.50071,1.35037" stroke="#afafaf" stroke-linecap="round"/><path d="M246.44474,178.84279c-0.47069,0.60969 -0.99424,1.25797 -1.55578,1.90629c-0.02008,0.02318 -0.0402,0.04637 -0.06035,0.06958" stroke="#afafaf" stroke-linecap="round"/><path d="M248.85453,175.43426c0,0 -0.35369,0.56491 -0.96056,1.43431" stroke="#afafaf" stroke-linecap="round"/></g><path d="M207.6667,200.98336v-52.16666h53.33334v52.16666z" fill="none" stroke="none" stroke-width="NaN" stroke-linecap="butt"/></g></g></svg>