<svg version="1.1" xmlns="http://www.w3.org/2000/svg" xmlns:xlink="http://www.w3.org/1999/xlink" width="274.25006" height="98.2271" viewBox="0,0,274.25006,98.2271"><g transform="translate(-194.42615,-248.95911)"><g data-paper-data="{&quot;isPaintingLayer&quot;:true}" fill-rule="nonzero" stroke-linejoin="miter" stroke-miterlimit="10" stroke-dasharray="" stroke-dashoffset="0" style="mix-blend-mode: normal"><path d="M254.08923,282.18064c12.18505,0 150.0863,0 174.49647,0c2.38047,0 3.68163,1.77234 3.68163,4.54696c0,8.75983 0,27.50991 0,32.01816c0,1.91094 -1.13122,3.78913 -3.21382,3.78913c-12.97854,0 -62.90537,0 -106.25582,0c-33.65587,0 -63.34785,0 -68.70847,0c-1.69664,0 -2.86783,-1.91238 -2.86783,-3.22076c0,-4.00916 0,-24.41724 0,-33.1549c0,0 1.1712,-3.97859 2.86784,-3.97859z" fill="#000000" stroke="#000000" stroke-width="15" stroke-linecap="butt"/><path d="M254.08923,282.18064c12.18505,0 150.0863,0 174.49647,0c2.38047,0 3.68163,1.77234 3.68163,4.54696c0,8.75983 0,27.50991 0,32.01816c0,1.91094 -1.13122,3.78913 -3.21382,3.78913c-23.05464,0 -162.69892,0 -174.96429,0c-1.69664,0 -2.86783,-1.91238 -2.86783,-3.22076c0,-4.00916 0,-24.41724 0,-33.1549c0,0 1.1712,-3.97859 2.86784,-3.97859z" fill="#000000" stroke="#01f101" stroke-width="7" stroke-linecap="butt"/><path d="M251.2214,286.15923c0,-2.44691 1.17119,-3.97859 2.86783,-3.97859c12.18505,0 150.0863,0 174.49647,0c2.38047,0 3.68163,1.77234 3.68163,4.54696c0,8.75983 0,27.50991 0,32.01816c0,1.91094 -1.13122,3.78913 -3.21382,3.78913c-23.05464,0 -162.69892,0 -174.96429,0c-1.69664,0 -2.86783,-1.91238 -2.86783,-3.22076c0,-4.00916 0,-24.41724 0,-33.1549z" fill="#000000" stroke="none" stroke-width="0" stroke-linecap="butt"/><path d="M304.91942,314.43877c-0.64651,0 -0.96977,-0.71181 -0.96977,-2.13545c0,-2.58605 -0.11755,-6.7198 -0.35264,-12.40127c-0.2351,-5.68799 -0.45387,-8.68546 -0.65631,-8.99239c0,-0.62692 0.24489,-1.10691 0.73467,-1.43996c0.18285,-0.11102 0.43427,-0.20571 0.75426,-0.28407c0.32652,-0.07837 0.62365,-0.11755 0.8914,-0.11755c0.13061,-0.01959 0.40815,-0.02939 0.83263,-0.02939c0.50937,0 0.87508,0.08489 1.09711,0.25469c0.22857,0.16326 0.34285,0.45713 0.34285,0.88161c0,0.24162 -0.09143,0.42448 -0.27428,0.54856c-0.17632,0.12408 -0.39835,0.18612 -0.6661,0.18612l-0.33305,-0.03918h-0.47019c-0.62039,0 -0.93058,0.12408 -0.93058,0.37223c0,1.15588 0.07837,2.67094 0.2351,4.54517c0.13061,1.56077 0.21877,3.04317 0.26448,4.44722c0.15673,-0.04571 0.4506,-0.11755 0.88161,-0.2155c0.43754,-0.10449 0.76733,-0.15673 0.98936,-0.15673c0.24816,0 0.46039,0.10775 0.63672,0.32326c0.17632,0.20897 0.26448,0.44733 0.26448,0.71508c0,0.31346 -0.14367,0.53549 -0.43101,0.6661c-0.04571,0.02612 -0.15346,0.07837 -0.32326,0.15673c-0.16326,0.07837 -0.37876,0.12734 -0.64651,0.14693c-0.20244,0.02612 -0.53876,0.05877 -1.00895,0.09796h-0.36244c0,1.33873 0.11102,3.15746 0.33305,5.45617c0.20244,2.4032 0.30366,4.21865 0.30366,5.44637l-0.03918,0.13714l-0.02939,0.05877c0.01959,0.09143 0.02939,0.23836 0.02939,0.4408c0,0.28734 -0.10122,0.5159 -0.30366,0.68569c-0.19591,0.16326 -0.46039,0.24489 -0.79345,0.24489zM318.18703,314.74244c-0.42448,0 -0.83589,-0.3004 -1.23425,-0.9012v-0.09796c-0.0653,-1.182 -0.26775,-2.49789 -0.60733,-3.94764c-0.33305,-1.44975 -0.82283,-3.1999 -1.46934,-5.25046c-0.48978,-1.53465 -0.9012,-2.91583 -1.23425,-4.14355v13.17512c0,0.35264 -0.06204,0.61386 -0.18612,0.78365c-0.12408,0.16326 -0.36244,0.24489 -0.71508,0.24489c-0.26775,0 -0.47999,-0.08163 -0.63672,-0.24489c-0.15673,-0.16979 -0.2351,-0.38856 -0.2351,-0.65631v-0.26448l0.06857,-9.82502c0.04571,-2.89951 0.06857,-6.16472 0.06857,-9.79563v-4.11416c0,-0.26775 0.05551,-0.4506 0.16653,-0.54856c0.11102,-0.10449 0.34611,-0.15673 0.70529,-0.15673c0.55508,0 1.06446,0.10775 1.52812,0.32326c0.47019,0.20897 0.87181,0.50284 1.20486,0.88161c0.69222,0.77712 1.13956,1.71423 1.342,2.81135c0.09143,0.44407 0.13714,0.95671 0.13714,1.53791c0,0.33305 -0.02939,0.70202 -0.08816,1.10691c-0.05877,0.39835 -0.09796,0.65304 -0.11755,0.76406c-0.04571,0.22203 -0.14693,0.55508 -0.30366,0.99915c-0.15673,0.44407 -0.25469,0.73467 -0.29387,0.87181l-0.40162,0.94038l-0.33305,0.86202c0.01959,0.80324 0.15673,1.81872 0.41142,3.04644c0.25469,1.22772 0.53876,2.36401 0.85222,3.40888c0.22203,0.73794 0.62365,1.96239 1.20486,3.67336l0.96977,2.94848v0.06857c0,0.37876 -0.03265,0.70202 -0.09796,0.96977c-0.0653,0.35264 -0.3004,0.52896 -0.70529,0.52896zM313.57329,298.89311c0.31346,-0.30693 0.69222,-0.7412 1.13629,-1.30282l0.49958,-2.87012c0.02612,-0.11102 0.03918,-0.26775 0.03918,-0.47019c0,-0.64651 -0.12408,-1.39425 -0.37223,-2.2432c-0.13061,-0.39835 -0.30366,-0.73467 -0.51917,-1.00895c-0.20897,-0.28081 -0.42448,-0.43427 -0.64651,-0.46039l-0.06857,3.34031c-0.0653,1.49546 -0.09796,2.65462 -0.09796,3.47745c0,0.78365 0.0098,1.29629 0.02939,1.53791zM323.56833,314.60526c-0.42448,0 -0.79018,-0.05551 -1.09711,-0.16653c-0.37876,-0.11102 -0.56815,-0.42121 -0.56815,-0.93058v-19.42473c0,-0.37876 -0.06857,-0.94691 -0.20571,-1.70444c-0.15673,-0.69222 -0.2351,-1.26037 -0.2351,-1.70444v-0.09796c0.37876,-0.62692 0.65957,-1.02854 0.84242,-1.20486c0.30693,0 0.71835,-0.04571 1.23425,-0.13714c0.47019,-0.09143 0.88161,-0.13714 1.23425,-0.13714c0.35917,0 0.70529,0.10775 1.03834,0.32326c0.33305,0.20897 0.49958,0.46039 0.49958,0.75426c0,0.6661 -0.51264,0.99915 -1.53791,0.99915h-0.47019c-0.13061,-0.01959 -0.28407,-0.02939 -0.46039,-0.02939c-0.20244,0 -0.32652,0.0098 -0.37223,0.02939c0,0.75753 0.04571,1.67179 0.13714,2.74278l0.06857,0.93058l0.05877,1.84158c0,0.42448 -0.03265,1.07099 -0.09796,1.93953l-0.06857,1.87097l0.47019,-0.09796c0.44407,-0.13714 0.81304,-0.20571 1.10691,-0.20571c0.24162,0 0.46366,0.09469 0.6661,0.28407c0.20244,0.18938 0.30366,0.40815 0.30366,0.65631c0,0.26775 -0.08489,0.50937 -0.25469,0.72488c-0.16326,0.20897 -0.36897,0.31346 -0.61712,0.31346l-0.40162,-0.03918h-0.43101c-0.33958,0 -0.57468,0.07837 -0.70529,0.2351v10.33439l1.87097,-0.09796c1.27343,0 1.91015,0.28734 1.91015,0.86202v0.13714c-0.13714,0.26775 -0.3853,0.48652 -0.74447,0.65631c-0.35264,0.16326 -0.69549,0.26775 -1.02854,0.31346l-1.10691,0.02939zM332.86253,314.60526c-0.42448,0 -0.79018,-0.05551 -1.09711,-0.16653c-0.37876,-0.11102 -0.56815,-0.42121 -0.56815,-0.93058v-19.42473c0,-0.37876 -0.06857,-0.94691 -0.20571,-1.70444c-0.15673,-0.69222 -0.2351,-1.26037 -0.2351,-1.70444v-0.09796c0.37876,-0.62692 0.65957,-1.02854 0.84242,-1.20486c0.30693,0 0.71835,-0.04571 1.23425,-0.13714c0.47019,-0.09143 0.88161,-0.13714 1.23425,-0.13714c0.35917,0 0.70529,0.10775 1.03834,0.32326c0.33305,0.20897 0.49958,0.46039 0.49958,0.75426c0,0.6661 -0.51264,0.99915 -1.53791,0.99915h-0.47019c-0.13061,-0.01959 -0.28407,-0.02939 -0.46039,-0.02939c-0.20244,0 -0.32652,0.0098 -0.37223,0.02939c0,0.75753 0.04571,1.67179 0.13714,2.74278l0.06857,0.93058l0.05877,1.84158c0,0.42448 -0.03265,1.07099 -0.09796,1.93953l-0.06857,1.87097l0.47019,-0.09796c0.44407,-0.13714 0.81304,-0.20571 1.10691,-0.20571c0.24162,0 0.46366,0.09469 0.6661,0.28407c0.20244,0.18938 0.30366,0.40815 0.30366,0.65631c0,0.26775 -0.08489,0.50937 -0.25469,0.72488c-0.16326,0.20897 -0.36897,0.31346 -0.61712,0.31346l-0.40162,-0.03918h-0.43101c-0.33958,0 -0.57468,0.07837 -0.70529,0.2351v10.33439l1.87097,-0.09796c1.27343,0 1.91015,0.28734 1.91015,0.86202v0.13714c-0.13714,0.26775 -0.3853,0.48652 -0.74447,0.65631c-0.35264,0.16326 -0.69549,0.26775 -1.02854,0.31346l-1.10691,0.02939zM341.39271,314.5759c-0.24816,0 -0.44407,-0.10449 -0.58774,-0.31346c-0.14367,-0.2155 -0.2155,-0.47999 -0.2155,-0.79345l0.06857,-5.6129c0.0653,-2.71666 0.09796,-4.82272 0.09796,-6.31818c0,-5.19168 -0.2906,-9.16871 -0.87181,-11.93108c0.33305,-0.5159 0.75753,-0.77385 1.27343,-0.77385c0.82283,0 1.57383,0.18612 2.25299,0.55835c0.67916,0.3657 1.24404,0.85875 1.69464,1.47914c0.86854,1.29302 1.30282,2.74278 1.30282,4.34926c0,1.67179 -0.35917,3.16725 -1.07752,4.4864c-0.71181,1.31261 -1.74689,2.33463 -3.10521,3.06603l0.06857,3.37949l0.06857,1.77301c0.01959,0.37876 0.02939,0.92406 0.02939,1.63587c0.0653,1.49546 0.09796,2.71012 0.09796,3.64397c0,0.42448 -0.08816,0.76079 -0.26448,1.00895c-0.17632,0.24162 -0.45387,0.36244 -0.83263,0.36244zM342.15676,301.16569c0.86854,-0.82283 1.50853,-1.68485 1.91994,-2.58605c0.41795,-0.9012 0.62692,-1.91994 0.62692,-3.05624v-0.03918c0,-0.50937 -0.05551,-1.15588 -0.16653,-1.93953c-0.07184,-0.26775 -0.19591,-0.53549 -0.37223,-0.80324c-0.17632,-0.26775 -0.27754,-0.42121 -0.30366,-0.46039c-0.15673,-0.22857 -0.56815,-0.57468 -1.23425,-1.03834l-0.87181,-0.63672c0,1.13629 0.06857,2.89624 0.20571,5.27984zM351.42288,314.78162c-0.29387,0 -0.55835,-0.10775 -0.79345,-0.32326c-0.22857,-0.20897 -0.34285,-0.46039 -0.34285,-0.75426c0,-0.19591 0.04245,-0.4408 0.12734,-0.73467c0.07184,-0.31346 0.10775,-0.54529 0.10775,-0.69549c0,-1.98525 -0.11428,-5.79901 -0.34285,-11.44129c-0.22203,-4.81292 -0.33305,-8.61362 -0.33305,-11.40211c0,-0.19591 0.07837,-0.35591 0.2351,-0.47999c0.15673,-0.12408 0.34611,-0.18612 0.56815,-0.18612c0.26775,0 0.50284,0.09469 0.70529,0.28407c0.20244,0.18938 0.30366,0.41795 0.30366,0.68569c0,1.33873 0.0653,3.34684 0.19591,6.02431c0.11102,2.95828 0.16653,4.96312 0.16653,6.01452l0.03918,0.40162v0.40162v0.2351v0.16653c0.0653,1.93953 0.09796,4.83577 0.09796,8.68872v0.87181h2.57625c0.46366,0.33305 0.69549,0.6661 0.69549,0.99915c0,0.24816 -0.08489,0.46692 -0.25469,0.65631c-0.16326,0.18938 -0.35591,0.28407 -0.57794,0.28407c-0.0653,0 -0.18938,-0.02286 -0.37223,-0.06857l-0.12734,-0.02939c-0.13714,0.01959 -0.34938,0.02939 -0.63672,0.02939h-0.56815c-0.15673,-0.01959 -0.33632,-0.02939 -0.53876,-0.02939c-0.22203,0.26775 -0.53223,0.40162 -0.93058,0.40162zM364.8649,314.40936c-0.35917,0 -0.62365,-0.0653 -0.79345,-0.19591c-0.16326,-0.13714 -0.24489,-0.36244 -0.24489,-0.6759v-4.37865c-0.29387,-0.20244 -0.84242,-0.37876 -1.64567,-0.52896c-0.79671,-0.15673 -1.55424,-0.25795 -2.27259,-0.30366c-0.24162,0.47019 -0.41795,1.03834 -0.52896,1.70444l-0.13714,0.6661c-0.01959,0.15673 -0.08489,0.50284 -0.19591,1.03834c-0.11102,0.53549 -0.2351,0.99915 -0.37223,1.39098c-0.13061,0.3853 -0.26448,0.68896 -0.40162,0.91099c-0.84895,0 -1.33873,-0.22203 -1.46934,-0.6661c0.24816,-0.35264 0.5257,-1.40077 0.83263,-3.1444l1.10691,-6.11247c0.48978,-2.89951 0.94038,-5.37453 1.3518,-7.42509c0.41142,-2.05055 0.85222,-3.76479 1.32241,-5.1427c0.5159,-1.54118 1.00568,-2.31177 1.46934,-2.31177c0.47019,0 0.8261,0.08816 1.06772,0.26448c0,0.89467 0.21224,3.04644 0.63672,6.45532c0.4506,3.34358 0.6759,5.62922 0.6759,6.85694c0,1.182 0.12081,2.87339 0.36244,5.07414c0.22203,2.25299 0.33305,4.04886 0.33305,5.3876c0,0.75753 -0.3657,1.13629 -1.09711,1.13629zM363.12128,307.21939c0.17632,0 0.39835,-0.03265 0.6661,-0.09796c-0.0653,-0.97956 -0.17632,-2.19422 -0.33305,-3.64397c-0.50937,-5.03495 -0.76406,-8.12058 -0.76406,-9.25687v-0.27428c-0.22203,0.22203 -0.52896,1.23098 -0.92079,3.02685c-0.39183,1.79587 -0.75426,3.71907 -1.08731,5.76963c-0.33305,2.05055 -0.51264,3.40888 -0.53876,4.07498c0.94038,0.26775 1.93301,0.40162 2.97787,0.40162zM372.31495,314.811c-0.22203,0 -0.41795,-0.07837 -0.58774,-0.2351c-0.16326,-0.15673 -0.24489,-0.34611 -0.24489,-0.56815l0.06857,-3.24235c0.0653,-1.44975 0.09796,-2.53054 0.09796,-3.24235c0,-0.64651 -0.10122,-1.60648 -0.30366,-2.87991c-0.22203,-1.24731 -0.33305,-2.21708 -0.33305,-2.9093c0,-0.84242 -0.12408,-1.80893 -0.37223,-2.89951c-0.24162,-1.09711 -0.55182,-2.14524 -0.93058,-3.1444c-0.35917,-0.95997 -0.66284,-1.99178 -0.91099,-3.09542c-0.24162,-1.10364 -0.36244,-2.06688 -0.36244,-2.88971c0,-0.15673 0.08816,-0.2906 0.26448,-0.40162c0.18285,-0.11102 0.3755,-0.16653 0.57794,-0.16653c0.24162,0 0.47346,0.25469 0.69549,0.76406c0.26775,0.58121 0.52243,1.39751 0.76406,2.44891c0.24816,1.04487 0.39509,1.66852 0.4408,1.87097l0.43101,2.30197l0.34285,1.46934c0.0653,-0.35264 0.12081,-0.81957 0.16653,-1.40077c0.13061,-1.84811 0.29714,-3.38602 0.49958,-4.61374c0.15673,-0.84895 0.33305,-1.49546 0.52896,-1.93953c0.22857,-0.48978 0.49631,-0.73467 0.80324,-0.73467c0.6008,0 0.9012,0.11102 0.9012,0.33305c0,1.27343 -0.26448,3.1444 -0.79345,5.6129c-0.53549,2.47503 -0.80324,4.35905 -0.80324,5.65208l-0.06857,0.53876c-0.04571,0.33305 -0.05877,0.53223 -0.03918,0.59753v0.53876c0,0.95997 0.03592,2.42932 0.10775,4.40803l0.05877,4.44722l0.06857,0.77385l0.06857,0.80324v0.83263c0,0.26775 -0.11102,0.49631 -0.33305,0.68569c-0.22203,0.18938 -0.48978,0.28407 -0.80324,0.28407z" fill="#02f202" stroke="#01f101" stroke-width="1.5" stroke-linecap="square"/><path d="M468.67621,298.07266c0,27.12466 -61.39297,49.11355 -137.12503,49.11355c-75.73207,0 -137.12503,-21.98888 -137.12503,-49.11355c0,-27.12466 61.39297,-49.11355 137.12503,-49.11355c75.73206,0 137.12503,21.98888 137.12503,49.11355z" fill="none" stroke="none" stroke-width="NaN" stroke-linecap="butt"/></g></g></svg>