<svg version="1.1" xmlns="http://www.w3.org/2000/svg" xmlns:xlink="http://www.w3.org/1999/xlink" width="174.21254" height="10.26459" viewBox="0,0,174.21254,10.26459"><g transform="translate(-152.89373,-174.8677)"><g data-paper-data="{&quot;isPaintingLayer&quot;:true}" fill="#f1ff00" fill-rule="nonzero" stroke="none" stroke-width="1" stroke-linecap="square" stroke-linejoin="miter" stroke-miterlimit="10" stroke-dasharray="" stroke-dashoffset="0" style="mix-blend-mode: normal"><path d="M154.47484,176.18391v3.49559c0,0.7806 0.15384,1.31334 0.46152,1.59823c0.30768,0.28489 0.73217,0.42734 1.27346,0.42734c0.5299,0 0.94583,-0.14245 1.24782,-0.42734c0.30199,-0.29059 0.45298,-0.81193 0.45298,-1.56404v-3.52978c0,-0.35896 0.0114,-0.60967 0.03419,-0.75211c0.02279,-0.14245 0.10256,-0.27065 0.23931,-0.3846c0.13674,-0.11966 0.30198,-0.17948 0.49571,-0.17948c0.18233,0 0.34472,0.05413 0.48716,0.16238c0.14814,0.10825 0.23646,0.23931 0.26495,0.39315c0.03419,0.14814 0.05128,0.40169 0.05128,0.76065v3.41013c0,0.88316 -0.11966,1.5498 -0.35896,1.99993c-0.23931,0.45013 -0.59542,0.79199 -1.06834,1.0256c-0.46722,0.23361 -1.04554,0.35041 -1.73497,0.35041c-1.19084,0 -2.05975,-0.25355 -2.60674,-0.76065c-0.54699,-0.5128 -0.82048,-1.38456 -0.82048,-2.61529v-3.41013c0,-0.35896 0.01425,-0.60682 0.04274,-0.74356c0.02849,-0.14245 0.11111,-0.27349 0.24786,-0.39315c0.13674,-0.11966 0.30198,-0.17948 0.49571,-0.17948c0.19373,0 0.35896,0.05413 0.49571,0.16238c0.14245,0.10825 0.22791,0.23931 0.2564,0.39315c0.02849,0.14814 0.04273,0.40169 0.04273,0.76065zM162.4019,178.0129c0.5128,-0.64955 1.14525,-0.97432 1.89736,-0.97432c0.74641,0 1.33898,0.28204 1.77772,0.84612c0.44443,0.55838 0.66664,1.28485 0.66664,2.17941c0,0.84897 -0.21652,1.54695 -0.64955,2.09394c-0.42733,0.54129 -1.02275,0.81194 -1.78625,0.81194c-0.72362,0 -1.35892,-0.30483 -1.90591,-0.91449v1.90591c0,0.5242 -0.06553,0.84897 -0.19658,0.97432c-0.13105,0.13105 -0.30768,0.19657 -0.52989,0.19657c-0.2678,0 -0.45583,-0.08832 -0.56408,-0.26495c-0.10825,-0.17663 -0.16239,-0.49285 -0.16239,-0.94868v-5.75193c0,-0.30199 0.0114,-0.52135 0.03419,-0.6581c0.02849,-0.14245 0.10541,-0.2564 0.23076,-0.34186c0.13105,-0.08546 0.28489,-0.1282 0.46152,-0.1282c0.48431,0 0.72647,0.27065 0.72647,0.81194zM165.26504,180.02992c0,-0.63815 -0.1339,-1.11107 -0.40169,-1.41875c-0.2678,-0.30768 -0.58118,-0.46152 -0.94014,-0.46152c-0.41594,0 -0.76065,0.15669 -1.03415,0.47007c-0.2678,0.31338 -0.4017,0.75211 -0.4017,1.31619c0,0.58687 0.13105,1.0541 0.39315,1.40166c0.2621,0.34187 0.61252,0.5128 1.05125,0.5128c0.39315,0 0.71222,-0.15954 0.95723,-0.47861c0.2507,-0.32477 0.37605,-0.77205 0.37605,-1.34183zM169.23925,178.0129c0.5128,-0.64955 1.14526,-0.97432 1.89737,-0.97432c0.74641,0 1.33898,0.28204 1.77771,0.84612c0.44443,0.55838 0.66665,1.28485 0.66665,2.17941c0,0.84897 -0.21652,1.54695 -0.64955,2.09394c-0.42733,0.54129 -1.02276,0.81194 -1.78626,0.81194c-0.72362,0 -1.35892,-0.30483 -1.90591,-0.91449v1.90591c0,0.5242 -0.06552,0.84897 -0.19657,0.97432c-0.13105,0.13105 -0.30768,0.19657 -0.52989,0.19657c-0.2678,0 -0.45583,-0.08832 -0.56408,-0.26495c-0.10825,-0.17663 -0.16239,-0.49285 -0.16239,-0.94868v-5.75193c0,-0.30199 0.0114,-0.52135 0.03419,-0.6581c0.02849,-0.14245 0.10541,-0.2564 0.23076,-0.34186c0.13105,-0.08546 0.28489,-0.1282 0.46152,-0.1282c0.48431,0 0.72647,0.27065 0.72647,0.81194zM172.10239,180.02992c0,-0.63815 -0.1339,-1.11107 -0.40169,-1.41875c-0.2678,-0.30768 -0.58118,-0.46152 -0.94014,-0.46152c-0.41594,0 -0.76065,0.15669 -1.03415,0.47007c-0.2678,0.31338 -0.4017,0.75211 -0.4017,1.31619c0,0.58687 0.13105,1.0541 0.39315,1.40166c0.2621,0.34187 0.61251,0.5128 1.05124,0.5128c0.39315,0 0.71222,-0.15954 0.95723,-0.47861c0.2507,-0.32477 0.37605,-0.77205 0.37605,-1.34183zM178.83719,180.36323h-2.86314c0.01709,0.54129 0.16523,0.94868 0.44442,1.22218c0.28489,0.2735 0.62676,0.41024 1.0256,0.41024c0.48431,0 0.94299,-0.21367 1.37602,-0.64101c0.17663,-0.17663 0.30483,-0.28488 0.3846,-0.32477c0.08546,-0.04559 0.17948,-0.06838 0.28204,-0.06838c0.13105,0 0.24215,0.04273 0.33332,0.1282c0.09686,0.07977 0.14529,0.17948 0.14529,0.29913c0,0.33047 -0.22507,0.67804 -0.67519,1.0427c-0.44442,0.35896 -1.05124,0.53844 -1.82044,0.53844c-0.97432,0 -1.71504,-0.27634 -2.22214,-0.82903c-0.50141,-0.55268 -0.75211,-1.26491 -0.75211,-2.13668c0,-0.88316 0.2507,-1.59823 0.75211,-2.14522c0.5071,-0.54699 1.21078,-0.82048 2.11103,-0.82048c0.85467,0 1.51561,0.25924 1.98283,0.77774c0.46722,0.5128 0.70083,1.07119 0.70083,1.67516c0,0.26779 -0.07692,0.48147 -0.23076,0.641c-0.15384,0.15384 -0.47861,0.23076 -0.97432,0.23076zM175.97405,179.53421h2.65802c-0.01709,-0.48431 -0.15099,-0.85467 -0.40169,-1.11107c-0.2507,-0.2564 -0.55839,-0.3846 -0.92305,-0.3846c-0.7749,0 -1.21932,0.49856 -1.33328,1.49567zM181.26124,181.75633v-3.7349c0,-0.65524 0.23931,-0.98287 0.71793,-0.98287c0.46152,0 0.69798,0.30198 0.70937,0.90594c0.30199,-0.60397 0.72078,-0.90594 1.25637,-0.90594c0.27919,0 0.56977,0.07407 0.87176,0.22221c0.30199,0.14814 0.45298,0.35041 0.45298,0.60681c0,0.17663 -0.06268,0.32477 -0.18803,0.44443c-0.11965,0.11395 -0.24786,0.17093 -0.3846,0.17093c-0.07977,0 -0.22222,-0.03134 -0.42733,-0.09402c-0.20512,-0.06268 -0.37605,-0.09402 -0.5128,-0.09402c-0.34757,0 -0.60681,0.17663 -0.77775,0.5299c-0.17094,0.34756 -0.2564,1.0256 -0.2564,2.03411v0.84612c0,0.37036 -0.0171,0.62106 -0.05128,0.75211c-0.02849,0.13105 -0.10825,0.25071 -0.23931,0.35896c-0.12535,0.10256 -0.27065,0.15384 -0.43588,0.15384c-0.16523,0 -0.31337,-0.04843 -0.44442,-0.14529c-0.12535,-0.09686 -0.20513,-0.20797 -0.23931,-0.33333c-0.03418,-0.13105 -0.05128,-0.37606 -0.05128,-0.73502zM191.00126,176.22664v1.91446h3.02553c0.2564,0 0.43873,0.0114 0.54698,0.03419c0.11396,0.02279 0.21652,0.08832 0.30769,0.19657c0.09117,0.10256 0.13675,0.22506 0.13675,0.36751c0,0.12535 -0.05413,0.26209 -0.16239,0.41024c-0.10256,0.14245 -0.37891,0.21367 -0.82903,0.21367h-3.02553v2.24778h3.41868c0.30768,0 0.51565,0.0114 0.62391,0.03419c0.10825,0.01709 0.20512,0.07977 0.29059,0.18802c0.08546,0.10256 0.1282,0.22791 0.1282,0.37606c0,0.14245 -0.04559,0.27065 -0.13675,0.3846c-0.08546,0.10825 -0.19088,0.17664 -0.31623,0.20513c-0.11965,0.02279 -0.31623,0.03418 -0.58972,0.03418h-3.67508c-0.56408,0 -0.89171,-0.03988 -0.98287,-0.11965c-0.08546,-0.08546 -0.16523,-0.17663 -0.2393,-0.2735c-0.06838,-0.10256 -0.10257,-0.41308 -0.10257,-0.93158v-5.1793c0,-0.56978 0.03989,-0.89455 0.11966,-0.97432c0.08546,-0.07977 0.17663,-0.15669 0.27349,-0.23076c0.10256,-0.07977 0.41309,-0.11965 0.93159,-0.11965h3.55542c0.27919,0 0.47292,0.01139 0.58118,0.03418c0.11396,0.01709 0.21367,0.07978 0.29913,0.18803c0.09117,0.10256 0.13675,0.23076 0.13675,0.3846c0,0.14814 -0.04273,0.27634 -0.1282,0.3846c-0.08546,0.10825 -0.18518,0.17379 -0.29914,0.19657c-0.11396,0.02279 -0.31053,0.03419 -0.58972,0.03419zM201.75086,179.36328v2.39307c0,0.31338 -0.01424,0.54129 -0.04273,0.68374c-0.02279,0.13675 -0.09971,0.25925 -0.23076,0.36751c-0.12535,0.10825 -0.27349,0.16239 -0.44443,0.16239c-0.15954,0 -0.30769,-0.04843 -0.44443,-0.14529c-0.13105,-0.09686 -0.21367,-0.21937 -0.24785,-0.36751c-0.03418,-0.15384 -0.05128,-0.38745 -0.05128,-0.70083v-2.09394c0,-0.58687 -0.08832,-0.98001 -0.26495,-1.17944c-0.17094,-0.20512 -0.41024,-0.30768 -0.71792,-0.30768c-0.27349,0 -0.51566,0.07977 -0.72647,0.23931c-0.21081,0.15954 -0.35896,0.36181 -0.44443,0.60681c-0.08546,0.23931 -0.1282,0.64955 -0.1282,1.23073v1.50421c0,0.30768 -0.0114,0.53275 -0.03419,0.67519c-0.02279,0.13675 -0.09971,0.2621 -0.23076,0.37605c-0.13105,0.10825 -0.28204,0.16239 -0.45298,0.16239c-0.16523,0 -0.31623,-0.04843 -0.45297,-0.14529c-0.13105,-0.10256 -0.21082,-0.22507 -0.23931,-0.36751c-0.02849,-0.14814 -0.04273,-0.38175 -0.04273,-0.70083v-3.58961c0,-0.32477 0.01424,-0.54984 0.04273,-0.67519c0.03418,-0.13105 0.11111,-0.23931 0.23077,-0.32477c0.12535,-0.08546 0.26494,-0.1282 0.41878,-0.1282c0.14244,0 0.29059,0.05698 0.44443,0.17093c0.15384,0.10825 0.23076,0.37891 0.23076,0.81194c0.49001,-0.65524 1.11677,-0.98287 1.88027,-0.98287c0.29059,0 0.57833,0.05698 0.86322,0.17093c0.28489,0.10825 0.51565,0.28489 0.69228,0.5299c0.18233,0.245 0.29344,0.50141 0.33332,0.7692c0.03988,0.26779 0.05983,0.55268 0.05983,0.85467zM207.21327,178.02999v-0.19657c0,-0.2621 0.06267,-0.45867 0.18802,-0.58972c0.13105,-0.13675 0.29628,-0.20512 0.49571,-0.20512c0.22222,0 0.39315,0.07692 0.5128,0.23076c0.11965,0.15384 0.17948,0.48716 0.17948,0.99996v3.91438c0,1.16235 -0.24501,1.94295 -0.73502,2.34179c-0.49001,0.40454 -1.19653,0.60681 -2.11958,0.60681c-0.83188,0 -1.48143,-0.15384 -1.94864,-0.46152c-0.46722,-0.30768 -0.70082,-0.63245 -0.70082,-0.97432c0,-0.18233 0.05983,-0.33047 0.17948,-0.44443c0.12535,-0.11395 0.27349,-0.17093 0.44442,-0.17093c0.15384,0 0.2735,0.03704 0.35897,0.11111c0.09117,0.07407 0.245,0.24785 0.46152,0.52135c0.22222,0.2735 0.58972,0.41024 1.10252,0.41024c0.28489,0 0.54984,-0.04558 0.79484,-0.13674c0.24501,-0.08546 0.42449,-0.24216 0.53844,-0.47007c0.11965,-0.22222 0.17378,-0.77205 0.16239,-1.64951c-0.44443,0.64385 -1.05125,0.96578 -1.82045,0.96578c-0.74641,0 -1.33613,-0.27919 -1.76917,-0.83757c-0.43303,-0.55838 -0.64955,-1.27061 -0.64955,-2.13668c0,-0.86606 0.22221,-1.55264 0.66664,-2.05975c0.44443,-0.50711 1.02275,-0.76065 1.73498,-0.76065c0.7806,0 1.4216,0.33047 1.92301,0.99142zM204.36722,179.97864c0,0.56408 0.1225,0.99426 0.36751,1.29055c0.24501,0.29629 0.58402,0.44443 1.01705,0.44443c0.37605,0 0.69798,-0.14244 0.96578,-0.42733c0.27349,-0.29059 0.41025,-0.72362 0.41025,-1.2991c0,-0.56408 -0.12535,-1.01136 -0.37606,-1.34183c-0.2507,-0.33047 -0.58973,-0.4957 -1.01706,-0.4957c-0.41594,0 -0.74926,0.15669 -0.99996,0.47007c-0.24501,0.30768 -0.36751,0.76065 -0.36751,1.35892zM210.78578,174.93609c0.19373,0 0.35896,0.07122 0.49571,0.21367c0.13675,0.14245 0.20512,0.30768 0.20512,0.4957c0,0.19372 -0.06837,0.36181 -0.20512,0.50426c-0.13675,0.13675 -0.30199,0.20512 -0.49571,0.20512c-0.19373,0 -0.36181,-0.06838 -0.50426,-0.20512c-0.13675,-0.14245 -0.20512,-0.31053 -0.20512,-0.50426c0,-0.19372 0.06837,-0.35896 0.20512,-0.4957c0.14244,-0.14245 0.31053,-0.21367 0.50426,-0.21367zM211.51225,178.22657v3.52978c0,0.35327 -0.0171,0.59542 -0.05128,0.72647c-0.02849,0.12535 -0.11111,0.23931 -0.24786,0.34187c-0.13105,0.09686 -0.27349,0.14529 -0.42733,0.14529c-0.15384,0 -0.29913,-0.04843 -0.43588,-0.14529c-0.13675,-0.10256 -0.22222,-0.21936 -0.2564,-0.35041c-0.02849,-0.13105 -0.04274,-0.37036 -0.04274,-0.71793v-3.52123c0,-0.31907 0.0114,-0.54414 0.03419,-0.67519c0.02849,-0.13675 0.10825,-0.2564 0.23931,-0.35896c0.13105,-0.10825 0.28204,-0.16238 0.45297,-0.16238c0.17094,0 0.31908,0.04843 0.44443,0.14529c0.12535,0.09116 0.20512,0.21082 0.23931,0.35897c0.03418,0.14245 0.05128,0.37036 0.05128,0.68374zM218.16052,179.36328v2.39307c0,0.31338 -0.01424,0.54129 -0.04273,0.68374c-0.02279,0.13675 -0.09971,0.25925 -0.23076,0.36751c-0.12535,0.10825 -0.27349,0.16239 -0.44443,0.16239c-0.15954,0 -0.30768,-0.04843 -0.44443,-0.14529c-0.13105,-0.09686 -0.21367,-0.21937 -0.24786,-0.36751c-0.03418,-0.15384 -0.05128,-0.38745 -0.05128,-0.70083v-2.09394c0,-0.58687 -0.08832,-0.98001 -0.26495,-1.17944c-0.17094,-0.20512 -0.41024,-0.30768 -0.71792,-0.30768c-0.27349,0 -0.51565,0.07977 -0.72647,0.23931c-0.21081,0.15954 -0.35896,0.36181 -0.44443,0.60681c-0.08546,0.23931 -0.1282,0.64955 -0.1282,1.23073v1.50421c0,0.30768 -0.0114,0.53275 -0.03419,0.67519c-0.02279,0.13675 -0.09971,0.2621 -0.23076,0.37605c-0.13105,0.10825 -0.28204,0.16239 -0.45298,0.16239c-0.16523,0 -0.31623,-0.04843 -0.45297,-0.14529c-0.13105,-0.10256 -0.21082,-0.22507 -0.23931,-0.36751c-0.02849,-0.14814 -0.04273,-0.38175 -0.04273,-0.70083v-3.58961c0,-0.32477 0.01424,-0.54984 0.04273,-0.67519c0.03418,-0.13105 0.11111,-0.23931 0.23076,-0.32477c0.12535,-0.08546 0.26495,-0.1282 0.41879,-0.1282c0.14244,0 0.29058,0.05698 0.44443,0.17093c0.15384,0.10825 0.23076,0.37891 0.23076,0.81194c0.49001,-0.65524 1.11677,-0.98287 1.88027,-0.98287c0.29059,0 0.57832,0.05698 0.86321,0.17093c0.28489,0.10825 0.51565,0.28489 0.69228,0.5299c0.18233,0.245 0.29344,0.50141 0.33332,0.7692c0.03988,0.26779 0.05983,0.55268 0.05983,0.85467zM223.69129,180.36323h-2.86314c0.01709,0.54129 0.16524,0.94868 0.44443,1.22218c0.28489,0.2735 0.62676,0.41024 1.0256,0.41024c0.48431,0 0.94299,-0.21367 1.37602,-0.64101c0.17663,-0.17663 0.30483,-0.28488 0.3846,-0.32477c0.08546,-0.04559 0.17948,-0.06838 0.28204,-0.06838c0.13105,0 0.24215,0.04273 0.33332,0.1282c0.09687,0.07977 0.1453,0.17948 0.1453,0.29913c0,0.33047 -0.22507,0.67804 -0.67519,1.0427c-0.44443,0.35896 -1.05124,0.53844 -1.82044,0.53844c-0.97432,0 -1.71504,-0.27634 -2.22214,-0.82903c-0.50141,-0.55268 -0.75211,-1.26491 -0.75211,-2.13668c0,-0.88316 0.2507,-1.59823 0.75211,-2.14522c0.5071,-0.54699 1.21079,-0.82048 2.11104,-0.82048c0.85467,0 1.51561,0.25924 1.98283,0.77774c0.46722,0.5128 0.70083,1.07119 0.70083,1.67516c0,0.26779 -0.07692,0.48147 -0.23076,0.641c-0.15384,0.15384 -0.47861,0.23076 -0.97432,0.23076zM220.82815,179.53421h2.65802c-0.01709,-0.48431 -0.15099,-0.85467 -0.4017,-1.11107c-0.2507,-0.2564 -0.55838,-0.3846 -0.92304,-0.3846c-0.7749,0 -1.21933,0.49856 -1.33328,1.49567zM227.08967,177.03857c0.21651,0 0.40169,0.07977 0.55553,0.23931c0.15954,0.15384 0.23931,0.33902 0.23931,0.55554c0,0.22222 -0.07977,0.41309 -0.23931,0.57263c-0.15384,0.15954 -0.33902,0.23931 -0.55553,0.23931c-0.22222,0 -0.41309,-0.07977 -0.57263,-0.23931c-0.15954,-0.15954 -0.23931,-0.35041 -0.23931,-0.57263c0,-0.21652 0.07977,-0.4017 0.23931,-0.55554c0.15954,-0.15954 0.35041,-0.23931 0.57263,-0.23931zM227.08967,181.35464c0.21651,0 0.40169,0.07977 0.55553,0.23931c0.15954,0.15384 0.23931,0.34186 0.23931,0.56408c0,0.21652 -0.07977,0.4074 -0.23931,0.57263c-0.15384,0.15954 -0.33902,0.23931 -0.55553,0.23931c-0.22222,0 -0.41309,-0.07977 -0.57263,-0.23931c-0.15954,-0.15954 -0.23931,-0.35041 -0.23931,-0.57263c0,-0.22222 0.07977,-0.41024 0.23931,-0.56408c0.15954,-0.15954 0.35041,-0.23931 0.57263,-0.23931zM234.44517,176.22664v1.99993h2.35889c0.27919,0 0.47006,0.01424 0.57262,0.04273c0.10826,0.02849 0.20228,0.09686 0.28205,0.20512c0.08546,0.10825 0.1282,0.22506 0.1282,0.35041c0,0.16523 -0.06268,0.31053 -0.18803,0.43588c-0.11965,0.12535 -0.3846,0.18803 -0.79484,0.18803h-2.35889v2.20504c0,0.31907 -0.01424,0.55554 -0.04273,0.70938c-0.02279,0.15384 -0.09402,0.29344 -0.21367,0.41879c-0.11396,0.12535 -0.29343,0.18802 -0.53844,0.18802c-0.23931,0 -0.41879,-0.06267 -0.53844,-0.18802c-0.11396,-0.12535 -0.18518,-0.2678 -0.21367,-0.42734c-0.02279,-0.16523 -0.03418,-0.39884 -0.03418,-0.70083v-5.32459c0,-0.56978 0.03988,-0.89455 0.11965,-0.97432c0.08546,-0.07977 0.17663,-0.15669 0.27349,-0.23076c0.10256,-0.07977 0.41309,-0.11965 0.93159,-0.11965h3.11955c0.27349,0 0.46722,0.01139 0.58118,0.03418c0.11396,0.01709 0.21367,0.07978 0.29914,0.18803c0.09116,0.10825 0.13674,0.23645 0.13674,0.3846c0,0.14814 -0.04558,0.27634 -0.13674,0.3846c-0.08546,0.10825 -0.18518,0.17379 -0.29914,0.19657c-0.11396,0.02279 -0.30768,0.03419 -0.58118,0.03419zM239.36059,180.79912v-2.56401c0,-0.31338 0.01139,-0.54129 0.03418,-0.68374c0.02849,-0.14245 0.10541,-0.26209 0.23076,-0.35896c0.12535,-0.10256 0.27919,-0.15384 0.46152,-0.15384c0.17093,0 0.31908,0.04843 0.44443,0.14529c0.13105,0.09686 0.21082,0.22507 0.23931,0.38461c0.03419,0.15384 0.05128,0.38745 0.05128,0.70083v2.00847c0,0.65524 0.10256,1.07689 0.30768,1.26491c0.20512,0.18233 0.43019,0.2735 0.67519,0.2735c0.27919,0 0.5242,-0.07692 0.73501,-0.23076c0.21651,-0.15954 0.36181,-0.35041 0.43588,-0.57263c0.07407,-0.22791 0.1111,-0.66949 0.1111,-1.32474v-1.45294c0,-0.30768 0.01424,-0.53559 0.04273,-0.68374c0.03419,-0.14814 0.11396,-0.27065 0.23931,-0.36751c0.13105,-0.09686 0.2849,-0.14529 0.46153,-0.14529c0.16523,0 0.31338,0.04843 0.44442,0.14529c0.13105,0.09686 0.20797,0.21652 0.23076,0.35897c0.02849,0.14245 0.04273,0.3732 0.04273,0.69228v3.60671c0,0.29629 -0.01424,0.50995 -0.04273,0.641c-0.02849,0.13105 -0.09971,0.24501 -0.21367,0.34187c-0.10826,0.09686 -0.24786,0.14529 -0.41879,0.14529c-0.47292,0 -0.70083,-0.33902 -0.68373,-1.01706c-0.48431,0.67804 -1.12532,1.01706 -1.92301,1.01706c-0.5299,0 -0.98001,-0.15668 -1.35037,-0.47006c-0.37036,-0.31907 -0.55553,-0.88601 -0.55553,-1.7008zM250.07921,180.36323h-2.86314c0.0171,0.54129 0.16523,0.94868 0.44442,1.22218c0.28489,0.2735 0.62676,0.41024 1.0256,0.41024c0.48431,0 0.94298,-0.21367 1.37601,-0.64101c0.17663,-0.17663 0.30483,-0.28488 0.3846,-0.32477c0.08546,-0.04559 0.17948,-0.06838 0.28205,-0.06838c0.13105,0 0.24215,0.04273 0.33332,0.1282c0.09687,0.07977 0.1453,0.17948 0.1453,0.29913c0,0.33047 -0.22506,0.67804 -0.67519,1.0427c-0.44443,0.35896 -1.05124,0.53844 -1.82045,0.53844c-0.97432,0 -1.71504,-0.27634 -2.22214,-0.82903c-0.50141,-0.55268 -0.75211,-1.26491 -0.75211,-2.13668c0,-0.88316 0.25071,-1.59823 0.75211,-2.14522c0.5071,-0.54699 1.21078,-0.82048 2.11103,-0.82048c0.85467,0 1.51561,0.25924 1.98283,0.77774c0.46722,0.5128 0.70083,1.07119 0.70083,1.67516c0,0.26779 -0.07692,0.48147 -0.23076,0.641c-0.15384,0.15384 -0.47861,0.23076 -0.97432,0.23076zM247.21607,179.53421h2.65802c-0.0171,-0.48431 -0.15099,-0.85467 -0.4017,-1.11107c-0.25071,-0.2564 -0.55838,-0.3846 -0.92304,-0.3846c-0.7749,0 -1.21932,0.49856 -1.33328,1.49567zM253.97329,176.0728v5.68355c0,0.35327 -0.01709,0.59542 -0.05128,0.72647c-0.02849,0.12535 -0.11111,0.23931 -0.24785,0.34187c-0.13105,0.09686 -0.27349,0.14529 -0.42733,0.14529c-0.15384,0 -0.29914,-0.04843 -0.43588,-0.14529c-0.13674,-0.10256 -0.22222,-0.21936 -0.2564,-0.35041c-0.02849,-0.13105 -0.04273,-0.37036 -0.04273,-0.71793v-5.68355c0,-0.35896 0.01709,-0.60111 0.05128,-0.72647c0.03419,-0.13105 0.11681,-0.24216 0.24786,-0.33333c0.13105,-0.09686 0.27349,-0.14529 0.42733,-0.14529c0.17663,0 0.32762,0.05128 0.45297,0.15384c0.13105,0.10256 0.21081,0.22222 0.23931,0.35896c0.02849,0.13675 0.04273,0.3675 0.04273,0.69228zM260.41643,176.22664v1.91446h3.02553c0.2564,0 0.43873,0.0114 0.54699,0.03419c0.11396,0.02279 0.21652,0.08832 0.30768,0.19657c0.09116,0.10256 0.13674,0.22506 0.13674,0.36751c0,0.12535 -0.05413,0.26209 -0.16239,0.41024c-0.10256,0.14245 -0.3789,0.21367 -0.82903,0.21367h-3.02553v2.24778h3.41868c0.30768,0 0.51565,0.0114 0.62391,0.03419c0.10826,0.01709 0.20513,0.07977 0.29059,0.18802c0.08546,0.10256 0.1282,0.22791 0.1282,0.37606c0,0.14245 -0.04558,0.27065 -0.13674,0.3846c-0.08546,0.10825 -0.19088,0.17664 -0.31623,0.20513c-0.11965,0.02279 -0.31623,0.03418 -0.58972,0.03418h-3.67508c-0.56408,0 -0.89171,-0.03988 -0.98287,-0.11965c-0.08546,-0.08546 -0.16523,-0.17663 -0.23931,-0.2735c-0.06838,-0.10256 -0.10256,-0.41308 -0.10256,-0.93158v-5.1793c0,-0.56978 0.03988,-0.89455 0.11965,-0.97432c0.08546,-0.07977 0.17662,-0.15669 0.27349,-0.23076c0.10256,-0.07977 0.41309,-0.11965 0.93159,-0.11965h3.55543c0.27919,0 0.47292,0.01139 0.58118,0.03418c0.11396,0.01709 0.21367,0.07978 0.29914,0.18803c0.09116,0.10256 0.13674,0.23076 0.13674,0.3846c0,0.14814 -0.04273,0.27634 -0.1282,0.3846c-0.08546,0.10825 -0.18518,0.17379 -0.29914,0.19657c-0.11396,0.02279 -0.31053,0.03419 -0.58972,0.03419zM271.16603,179.36328v2.39307c0,0.31338 -0.01424,0.54129 -0.04273,0.68374c-0.02279,0.13675 -0.09971,0.25925 -0.23076,0.36751c-0.12535,0.10825 -0.2735,0.16239 -0.44443,0.16239c-0.15954,0 -0.30768,-0.04843 -0.44442,-0.14529c-0.13105,-0.09686 -0.21367,-0.21937 -0.24785,-0.36751c-0.03419,-0.15384 -0.05128,-0.38745 -0.05128,-0.70083v-2.09394c0,-0.58687 -0.08832,-0.98001 -0.26495,-1.17944c-0.17093,-0.20512 -0.41024,-0.30768 -0.71792,-0.30768c-0.27349,0 -0.51566,0.07977 -0.72647,0.23931c-0.21081,0.15954 -0.35896,0.36181 -0.44442,0.60681c-0.08546,0.23931 -0.1282,0.64955 -0.1282,1.23073v1.50421c0,0.30768 -0.0114,0.53275 -0.03419,0.67519c-0.02279,0.13675 -0.09971,0.2621 -0.23076,0.37605c-0.13105,0.10825 -0.28204,0.16239 -0.45298,0.16239c-0.16523,0 -0.31623,-0.04843 -0.45298,-0.14529c-0.13105,-0.10256 -0.21081,-0.22507 -0.23931,-0.36751c-0.02849,-0.14814 -0.04273,-0.38175 -0.04273,-0.70083v-3.58961c0,-0.32477 0.01424,-0.54984 0.04273,-0.67519c0.03419,-0.13105 0.11111,-0.23931 0.23076,-0.32477c0.12535,-0.08546 0.26495,-0.1282 0.41879,-0.1282c0.14245,0 0.29058,0.05698 0.44442,0.17093c0.15384,0.10825 0.23076,0.37891 0.23076,0.81194c0.49001,-0.65524 1.11677,-0.98287 1.88028,-0.98287c0.29059,0 0.57833,0.05698 0.86321,0.17093c0.28489,0.10825 0.51565,0.28489 0.69228,0.5299c0.18233,0.245 0.29343,0.50141 0.33332,0.7692c0.03988,0.26779 0.05983,0.55268 0.05983,0.85467zM276.62844,178.02999v-0.19657c0,-0.2621 0.06268,-0.45867 0.18803,-0.58972c0.13105,-0.13675 0.29629,-0.20512 0.49571,-0.20512c0.22222,0 0.39315,0.07692 0.5128,0.23076c0.11965,0.15384 0.17948,0.48716 0.17948,0.99996v3.91438c0,1.16235 -0.245,1.94295 -0.73501,2.34179c-0.49001,0.40454 -1.19654,0.60681 -2.11958,0.60681c-0.83188,0 -1.48143,-0.15384 -1.94864,-0.46152c-0.46722,-0.30768 -0.70083,-0.63245 -0.70083,-0.97432c0,-0.18233 0.05983,-0.33047 0.17948,-0.44443c0.12535,-0.11395 0.27349,-0.17093 0.44442,-0.17093c0.15384,0 0.27349,0.03704 0.35896,0.11111c0.09116,0.07407 0.24501,0.24785 0.46152,0.52135c0.22222,0.2735 0.58972,0.41024 1.10252,0.41024c0.28489,0 0.54984,-0.04558 0.79485,-0.13674c0.245,-0.08546 0.42449,-0.24216 0.53844,-0.47007c0.11965,-0.22222 0.17378,-0.77205 0.16239,-1.64951c-0.44443,0.64385 -1.05125,0.96578 -1.82045,0.96578c-0.74641,0 -1.33613,-0.27919 -1.76916,-0.83757c-0.43303,-0.55838 -0.64955,-1.27061 -0.64955,-2.13668c0,-0.86606 0.22221,-1.55264 0.66664,-2.05975c0.44443,-0.50711 1.02276,-0.76065 1.73498,-0.76065c0.7806,0 1.4216,0.33047 1.923,0.99142zM273.78239,179.97864c0,0.56408 0.12251,0.99426 0.36751,1.29055c0.245,0.29629 0.58402,0.44443 1.01705,0.44443c0.37606,0 0.69798,-0.14244 0.96577,-0.42733c0.27349,-0.29059 0.41025,-0.72362 0.41025,-1.2991c0,-0.56408 -0.12535,-1.01136 -0.37605,-1.34183c-0.25071,-0.33047 -0.58973,-0.4957 -1.01706,-0.4957c-0.41594,0 -0.74925,0.15669 -0.99996,0.47007c-0.245,0.30768 -0.36751,0.76065 -0.36751,1.35892zM280.20095,174.93609c0.19373,0 0.35897,0.07122 0.49571,0.21367c0.13674,0.14245 0.20512,0.30768 0.20512,0.4957c0,0.19372 -0.06838,0.36181 -0.20512,0.50426c-0.13674,0.13675 -0.30199,0.20512 -0.49571,0.20512c-0.19373,0 -0.36181,-0.06838 -0.50426,-0.20512c-0.13674,-0.14245 -0.20512,-0.31053 -0.20512,-0.50426c0,-0.19372 0.06838,-0.35896 0.20512,-0.4957c0.14245,-0.14245 0.31053,-0.21367 0.50426,-0.21367zM280.92742,178.22657v3.52978c0,0.35327 -0.0171,0.59542 -0.05128,0.72647c-0.02849,0.12535 -0.11111,0.23931 -0.24785,0.34187c-0.13105,0.09686 -0.27349,0.14529 -0.42733,0.14529c-0.15384,0 -0.29914,-0.04843 -0.43588,-0.14529c-0.13674,-0.10256 -0.22222,-0.21936 -0.2564,-0.35041c-0.02849,-0.13105 -0.04273,-0.37036 -0.04273,-0.71793v-3.52123c0,-0.31907 0.0114,-0.54414 0.03419,-0.67519c0.02849,-0.13675 0.10826,-0.2564 0.23931,-0.35896c0.13105,-0.10825 0.28204,-0.16238 0.45298,-0.16238c0.17093,0 0.31908,0.04843 0.44443,0.14529c0.12535,0.09116 0.20512,0.21082 0.23931,0.35897c0.03419,0.14245 0.05128,0.37036 0.05128,0.68374zM287.57568,179.36328v2.39307c0,0.31338 -0.01424,0.54129 -0.04273,0.68374c-0.02279,0.13675 -0.09971,0.25925 -0.23076,0.36751c-0.12535,0.10825 -0.2735,0.16239 -0.44443,0.16239c-0.15954,0 -0.30768,-0.04843 -0.44443,-0.14529c-0.13105,-0.09686 -0.21366,-0.21937 -0.24785,-0.36751c-0.03419,-0.15384 -0.05128,-0.38745 -0.05128,-0.70083v-2.09394c0,-0.58687 -0.08832,-0.98001 -0.26495,-1.17944c-0.17093,-0.20512 -0.41024,-0.30768 -0.71792,-0.30768c-0.27349,0 -0.51566,0.07977 -0.72647,0.23931c-0.21081,0.15954 -0.35896,0.36181 -0.44443,0.60681c-0.08546,0.23931 -0.1282,0.64955 -0.1282,1.23073v1.50421c0,0.30768 -0.01139,0.53275 -0.03418,0.67519c-0.02279,0.13675 -0.09971,0.2621 -0.23076,0.37605c-0.13105,0.10825 -0.28204,0.16239 -0.45298,0.16239c-0.16523,0 -0.31623,-0.04843 -0.45298,-0.14529c-0.13105,-0.10256 -0.21082,-0.22507 -0.23931,-0.36751c-0.02849,-0.14814 -0.04273,-0.38175 -0.04273,-0.70083v-3.58961c0,-0.32477 0.01424,-0.54984 0.04273,-0.67519c0.03419,-0.13105 0.11111,-0.23931 0.23076,-0.32477c0.12535,-0.08546 0.26495,-0.1282 0.41879,-0.1282c0.14245,0 0.29059,0.05698 0.44443,0.17093c0.15384,0.10825 0.23076,0.37891 0.23076,0.81194c0.49001,-0.65524 1.11676,-0.98287 1.88027,-0.98287c0.29059,0 0.57833,0.05698 0.86322,0.17093c0.28489,0.10825 0.51565,0.28489 0.69228,0.5299c0.18233,0.245 0.29343,0.50141 0.33332,0.7692c0.03988,0.26779 0.05982,0.55268 0.05982,0.85467zM293.10646,180.36323h-2.86314c0.0171,0.54129 0.16524,0.94868 0.44443,1.22218c0.28489,0.2735 0.62676,0.41024 1.0256,0.41024c0.48431,0 0.94299,-0.21367 1.37602,-0.64101c0.17663,-0.17663 0.30483,-0.28488 0.3846,-0.32477c0.08546,-0.04559 0.17948,-0.06838 0.28204,-0.06838c0.13105,0 0.24215,0.04273 0.33332,0.1282c0.09687,0.07977 0.1453,0.17948 0.1453,0.29913c0,0.33047 -0.22507,0.67804 -0.67519,1.0427c-0.44443,0.35896 -1.05124,0.53844 -1.82044,0.53844c-0.97432,0 -1.71504,-0.27634 -2.22214,-0.82903c-0.50141,-0.55268 -0.75211,-1.26491 -0.75211,-2.13668c0,-0.88316 0.25071,-1.59823 0.75211,-2.14522c0.5071,-0.54699 1.21078,-0.82048 2.11103,-0.82048c0.85467,0 1.51561,0.25924 1.98283,0.77774c0.46722,0.5128 0.70083,1.07119 0.70083,1.67516c0,0.26779 -0.07692,0.48147 -0.23076,0.641c-0.15384,0.15384 -0.47861,0.23076 -0.97432,0.23076zM290.24332,179.53421h2.65802c-0.0171,-0.48431 -0.15099,-0.85467 -0.4017,-1.11107c-0.25071,-0.2564 -0.55838,-0.3846 -0.92304,-0.3846c-0.7749,0 -1.21933,0.49856 -1.33329,1.49567zM296.65013,178.55134c0,0.18802 0.09686,0.33617 0.29059,0.44443c0.19373,0.10825 0.63245,0.24501 1.31619,0.41024c1.32189,0.32477 1.98283,0.87462 1.98283,1.64952c0,0.62106 -0.22507,1.09682 -0.67519,1.42729c-0.44443,0.32477 -1.06549,0.48716 -1.86318,0.48716c-0.81479,0 -1.4273,-0.16809 -1.83754,-0.50426c-0.41024,-0.33617 -0.61536,-0.69228 -0.61536,-1.06833c0,-0.15954 0.05698,-0.29629 0.17094,-0.41024c0.11396,-0.11395 0.25355,-0.17094 0.41878,-0.17094c0.22791,0 0.42734,0.14245 0.59827,0.42734c0.19373,0.31338 0.40454,0.52135 0.63245,0.62391c0.23361,0.10256 0.48146,0.15384 0.74356,0.15384c0.29629,0 0.53559,-0.06552 0.71792,-0.19657c0.18233,-0.13105 0.27349,-0.29628 0.27349,-0.49571c0,-0.18233 -0.07692,-0.33902 -0.23076,-0.47007c-0.15384,-0.13105 -0.57833,-0.27634 -1.27346,-0.43588c-0.68943,-0.15954 -1.19369,-0.38175 -1.51277,-0.66664c-0.31907,-0.29059 -0.47861,-0.63245 -0.47861,-1.0256c0,-0.44443 0.19373,-0.83758 0.58118,-1.17945c0.38745,-0.34187 0.96863,-0.5128 1.74353,-0.5128c0.70652,0 1.26775,0.14529 1.6837,0.43588c0.42164,0.28489 0.63245,0.58117 0.63245,0.88885c0,0.16523 -0.05413,0.30484 -0.16239,0.41879c-0.10256,0.11395 -0.24785,0.17093 -0.43588,0.17093c-0.28489,0 -0.54129,-0.16238 -0.7692,-0.48716c-0.22222,-0.32477 -0.56123,-0.48716 -1.01705,-0.48716c-0.245,0 -0.45867,0.05128 -0.64101,0.15384c-0.18233,0.09686 -0.27349,0.23646 -0.27349,0.41879zM307.06641,185.13229c-0.2621,0 -0.46152,-0.05128 -0.59827,-0.15384c-0.13674,-0.09686 -0.37036,-0.41309 -0.70083,-0.94868c-0.33047,-0.53559 -0.60112,-1.1595 -0.81194,-1.87173c-0.21081,-0.71222 -0.31623,-1.43015 -0.31623,-2.15377c0,-0.78629 0.11965,-1.55549 0.35896,-2.3076c0.23931,-0.75781 0.5185,-1.38172 0.83758,-1.87173c0.32477,-0.49001 0.54699,-0.77205 0.66664,-0.84612c0.12535,-0.07407 0.31337,-0.11111 0.56408,-0.11111c0.15954,0 0.23931,0.04558 0.23931,0.13675c0,0.03418 -0.1168,0.29913 -0.35041,0.79484c-0.23361,0.49571 -0.44727,1.14526 -0.641,1.94865c-0.19373,0.80339 -0.29058,1.55549 -0.29058,2.25632c0,0.70652 0.09686,1.46718 0.29058,2.28197c0.19373,0.80908 0.40739,1.44724 0.641,1.91446c0.23361,0.46722 0.35041,0.73501 0.35041,0.80339c0,0.08546 -0.07977,0.1282 -0.23931,0.1282zM311.07588,174.95318c0.80909,0 1.46718,0.30768 1.97429,0.92305c0.5128,0.60967 0.7692,1.64951 0.7692,3.11954c0,1.48143 -0.27065,2.51558 -0.81194,3.10245c-0.53559,0.58117 -1.17374,0.87176 -1.91446,0.87176c-0.7692,0 -1.4216,-0.31052 -1.9572,-0.93158c-0.5299,-0.62106 -0.79484,-1.62673 -0.79484,-3.01699c0,-1.44154 0.23646,-2.47854 0.70937,-3.111c0.47292,-0.63815 1.1481,-0.95723 2.02557,-0.95723zM311.07588,181.88454c0.43873,0 0.76066,-0.21366 0.96578,-0.641c0.20512,-0.42734 0.30768,-1.21078 0.30768,-2.35034c0,-1.037 -0.10256,-1.77202 -0.30768,-2.20504c-0.19942,-0.43303 -0.52134,-0.64955 -0.96578,-0.64955c-0.42733,0 -0.74356,0.21082 -0.94868,0.63246c-0.20512,0.41594 -0.30768,1.1709 -0.30768,2.26487c0,1.11107 0.10256,1.88027 0.30768,2.30761c0.20512,0.42734 0.52135,0.641 0.94868,0.641zM314.58536,181.88454l1.50421,-6.16217c0.07407,-0.34187 0.1453,-0.56978 0.21367,-0.68374c0.07407,-0.11395 0.21081,-0.17093 0.41024,-0.17093c0.37036,0 0.55554,0.15384 0.55554,0.46152c0,0.11395 -0.03704,0.32192 -0.11111,0.62391l-1.49567,6.16217c-0.06838,0.33047 -0.14245,0.55553 -0.22222,0.67518c-0.07407,0.11966 -0.20797,0.17948 -0.40169,0.17948c-0.37036,0 -0.55554,-0.15384 -0.55554,-0.46152c0,-0.11966 0.03419,-0.32762 0.10256,-0.62391zM322.67374,182.83323h-3.70926c-0.39315,0 -0.64955,-0.08546 -0.7692,-0.2564c-0.11965,-0.17093 -0.17948,-0.32477 -0.17948,-0.46152c0,-0.2735 0.13959,-0.60112 0.41878,-0.98287c0.28489,-0.38745 0.81479,-0.90311 1.58969,-1.54696c0.7806,-0.64955 1.2877,-1.11676 1.52131,-1.40165c0.23361,-0.28489 0.35041,-0.60397 0.35041,-0.95723c0,-0.35327 -0.11965,-0.63245 -0.35896,-0.83758c-0.23931,-0.21082 -0.52989,-0.31623 -0.87176,-0.31623c-0.28489,0 -0.53844,0.07977 -0.76066,0.23931c-0.22222,0.15384 -0.3846,0.3789 -0.48716,0.67519c-0.09687,0.29629 -0.19372,0.5128 -0.29059,0.64954c-0.09687,0.13105 -0.25356,0.19658 -0.47007,0.19658c-0.18233,0 -0.33332,-0.05698 -0.45298,-0.17094c-0.11965,-0.11966 -0.17948,-0.27919 -0.17948,-0.47861c0,-0.54129 0.23076,-1.04839 0.69228,-1.52131c0.46152,-0.47292 1.11962,-0.70938 1.97429,-0.70938c0.91164,0 1.58113,0.22506 2.00847,0.67519c0.43303,0.44443 0.64955,0.96292 0.64955,1.5555c0,0.47292 -0.14245,0.92305 -0.42733,1.35038c-0.27919,0.42164 -0.72078,0.87462 -1.32474,1.35892c-0.59827,0.48431 -0.98572,0.80908 -1.16235,0.97432c-0.17093,0.16523 -0.36466,0.39884 -0.58118,0.70083h2.60674c0.40455,0 0.67803,0.05698 0.82048,0.17093c0.14245,0.11395 0.21367,0.2678 0.21367,0.46152c0,0.20512 -0.06553,0.36182 -0.19657,0.47007c-0.12535,0.10825 -0.33332,0.16238 -0.62391,0.16238zM324.68755,174.86771c0.2564,0 0.45298,0.04843 0.58972,0.14529c0.13674,0.09686 0.37036,0.41594 0.70083,0.95723c0.33047,0.54129 0.60112,1.16805 0.81194,1.88027c0.21081,0.70652 0.31623,1.42444 0.31623,2.15376c0,0.7806 -0.11966,1.5498 -0.35897,2.30761c-0.23931,0.75211 -0.52134,1.37317 -0.84612,1.86318c-0.31907,0.49001 -0.5413,0.77206 -0.66665,0.84613c-0.11965,0.07407 -0.30198,0.1111 -0.54698,0.1111c-0.15954,0 -0.23931,-0.04273 -0.23931,-0.1282c0,-0.03989 0.11396,-0.30768 0.34187,-0.80339c0.23361,-0.49571 0.44727,-1.14526 0.641,-1.94864c0.19942,-0.80339 0.29914,-1.55265 0.29914,-2.24778c0,-0.71222 -0.09971,-1.47288 -0.29914,-2.28196c-0.19373,-0.81478 -0.40739,-1.45579 -0.641,-1.92301c-0.22791,-0.46722 -0.34187,-0.73217 -0.34187,-0.79484c0,-0.09116 0.07978,-0.13675 0.23931,-0.13675z"/></g></g></svg>