<svg version="1.1" xmlns="http://www.w3.org/2000/svg" xmlns:xlink="http://www.w3.org/1999/xlink" width="235.17666" height="272.26828" viewBox="0,0,235.17666,272.26828"><g transform="translate(-103.48439,-53.27441)"><g data-paper-data="{&quot;isPaintingLayer&quot;:true}" fill-rule="nonzero" stroke-linecap="butt" stroke-linejoin="miter" stroke-miterlimit="10" stroke-dasharray="" stroke-dashoffset="0" style="mix-blend-mode: normal"><g><path d="M210.16343,216.23016c0,0 3.44758,-21.05794 3.74926,-33.08897c0.23465,-9.35805 0.04996,-26.06591 -1.35482,-36.71637c-1.17279,-8.89166 1.14825,-8.28823 3.43983,-8.47892c3.6202,-0.30124 10.21422,1.21669 12.22689,15.62864c2.50968,12.05422 0.14075,36.49 1.47645,40.73588c0.99003,3.14707 1.66742,6.32165 1.66742,6.32165z" fill="#c60000" stroke="#000000" stroke-width="7.5"/><path d="M210.16343,216.23016c0,0 3.44758,-21.05794 3.74926,-33.08897c0.23465,-9.35805 0.04996,-26.06591 -1.35482,-36.71637c-1.17279,-8.89166 1.14825,-8.28823 3.43983,-8.47892c3.6202,-0.30124 10.21422,1.21669 12.22689,15.62864c2.50968,12.05422 0.14075,36.49 1.47645,40.73588c0.99003,3.14707 1.66742,6.32165 1.66742,6.32165z" fill="#51000d" stroke="#000000" stroke-width="1.5"/><path d="M210.16343,216.23016c0,0 3.44758,-21.05794 3.74926,-33.08897c0.23465,-9.35805 0.04996,-26.06591 -1.35482,-36.71637c-1.17279,-8.89166 1.14825,-8.28823 3.43983,-8.47892c3.6202,-0.30124 10.21422,1.21669 12.22689,15.62864c2.50968,12.05422 0.14075,36.49 1.47645,40.73588c0.99003,3.14707 1.66742,6.32165 1.66742,6.32165z" fill="none" stroke="#000000" stroke-width="1.5"/><path d="M213.91269,183.14119c0.23465,-9.35805 0.04996,-26.06591 -1.35482,-36.71637c-1.17279,-8.89166 1.14825,-8.28823 3.43983,-8.47892c3.6202,-0.30124 10.21422,1.21669 12.22689,15.62864c1.74719,8.3919 1.12988,22.78468 1.04417,32.18835c-0.00412,0.45119 -0.43287,2.56048 -0.37203,4.57366c0.07746,2.56291 0.6493,5.08527 0.6493,5.08527c0,0 2.00274,2.94095 2.05182,4.04426c0.09522,2.14114 -2.4144,1.94662 -3.85013,3.6628c-0.96382,1.15208 -6.95972,5.19651 -11.29232,5.36311c-1.83686,0.07064 -3.60941,-2.06433 -4.09139,-2.38278c-1.85368,0.06393 -0.18651,-3.1339 -0.18651,-3.1339c0,0 2.27633,-8.67469 1.4236,-10.87351c-0.85732,-2.21067 0.25277,-6.6157 0.31157,-8.96062z" fill="#700012" stroke="none" stroke-width="0"/><path d="M213.91269,183.14119c0.23465,-9.35805 0.04996,-26.06591 -1.35482,-36.71637c-1.17279,-8.89166 1.14825,-8.28823 3.43983,-8.47892c3.6202,-0.30124 10.21422,1.21669 12.22689,15.62864c1.74719,8.3919 1.12988,22.78468 1.04417,32.18835c-0.0063,0.69149 0.03503,3.55807 0.00816,6.0469c-0.01299,1.20247 0.45068,2.31677 -0.05217,3.05497c-1.57229,2.30821 -3.9662,6.26408 -10.43497,6.04511c-5.21914,0.18 -3.86626,-5.39812 -5.18868,-8.80804c-0.85734,-2.21067 0.25277,-6.6157 0.31157,-8.96062z" fill="#c60000" stroke="none" stroke-width="0"/><path d="M210.16343,216.23016c0,0 3.44758,-21.05794 3.74926,-33.08897c0.23465,-9.35805 0.04996,-26.06591 -1.35482,-36.71637c-1.17279,-8.89166 1.14825,-8.28823 3.43983,-8.47892c3.6202,-0.30124 10.21422,1.21669 12.22689,15.62864c2.50968,12.05422 0.14075,36.49 1.47645,40.73588c0.99003,3.14707 1.66742,6.32165 1.66742,6.32165z" fill="none" stroke="#000000" stroke-width="1.5"/></g><path d="M244.70208,270.82351c0,0 18.61572,-48.68472 11.61313,-70.45612c-4.01021,-12.46795 6.74146,-10.61621 6.93565,-10.47701c3.8888,1.40707 3.84373,4.98272 4.40231,8.61033c0.19549,1.26953 0.4649,2.54545 1.00275,3.73698c2.71431,6.01324 5.75112,10.56365 6.09916,12.35738c0.36865,1.89999 -2.06749,7.79701 -3.19538,14.34642c-0.72707,4.22188 0.39185,8.71487 -1.19184,12.58305c-1.36723,3.33945 -5.94963,4.19281 -8.99439,9.20836c-9.06213,14.92777 -16.6714,20.09063 -16.6714,20.09063z" fill="none" stroke="#000000" stroke-width="4.5"/><path d="M244.70208,270.82351c0,0 18.61572,-48.68472 11.61313,-70.45612c-4.01021,-12.46795 6.74146,-10.61621 6.93565,-10.47701c3.8888,1.40707 3.84373,4.98272 4.40231,8.61033c0.19549,1.26953 0.4649,2.54545 1.00275,3.73698c2.71431,6.01324 5.75112,10.56365 6.09916,12.35738c0.36865,1.89999 -2.06749,7.79701 -3.19538,14.34642c-0.72707,4.22188 0.39185,8.71487 -1.19184,12.58305c-1.36723,3.33945 -5.94963,4.19281 -8.99439,9.20836c-9.06213,14.92777 -16.6714,20.09063 -16.6714,20.09063z" fill="#c60000" stroke="none" stroke-width="0"/><path d="M244.70208,270.82351c0,0 18.61572,-48.68472 11.61313,-70.45612c-0.85591,-2.66106 -0.20738,-4.57839 -0.20738,-4.57839c0,0 18.37351,17.39518 18.64728,18.80606c0.36865,1.89999 -2.06749,7.79701 -3.19539,14.34642c-0.72707,4.22188 0.39186,8.71487 -1.19184,12.58304c-1.36723,3.33945 -5.94963,4.19281 -8.99439,9.20836c-9.06213,14.92777 -16.6714,20.09062 -16.6714,20.09062z" fill="#700012" stroke="none" stroke-width="0"/><path d="M251.01559,247.79774l4.55685,-47.80172c0,0 5.34668,7.88599 12.04913,12.49218c1.6332,1.12239 4.07457,5.96944 4.62509,7.0528c1.32005,2.59768 -1.17582,1.19501 -0.76641,2.38362c2.84274,8.253 -0.28984,11.69218 -9.51345,21.6887c-7.07454,7.66737 -4.20141,12.54012 -5.40684,13.99742c-4.90294,5.92732 -5.67043,7.83709 -8.33423,8.44117c-3.90503,0.88556 2.78984,-18.25416 2.78984,-18.25416z" fill="#51000d" stroke="none" stroke-width="0"/><path d="M244.70208,270.82351c0,0 18.61572,-48.68472 11.61313,-70.45612c-4.01021,-12.46795 6.74146,-10.61621 6.93565,-10.47701c3.8888,1.40707 3.84373,4.98272 4.40231,8.61033c0.19549,1.26953 0.4649,2.54545 1.00275,3.73698c2.71431,6.01324 5.75112,10.56365 6.09916,12.35738c0.36865,1.89999 -2.06749,7.79701 -3.19538,14.34642c-0.72707,4.22188 0.39185,8.71487 -1.19184,12.58305c-1.36723,3.33945 -5.94963,4.19281 -8.99439,9.20836c-9.06213,14.92777 -16.6714,20.09063 -16.6714,20.09063z" fill="none" stroke="#000000" stroke-width="4.5"/><g><path d="M214.25598,270.1051c-1.03574,-5.45756 -6.34429,-31.72303 -8.62258,-42.97944c-0.63988,-3.16152 1.17512,-6.68545 3.32721,-8.18734c4.96529,-3.46517 25.09199,-17.51119 32.38331,-22.59966c1.6592,-1.15793 4.60875,-1.50817 6.28969,0.06473c1.65644,1.54998 5.77197,4.96399 9.47077,8.74324c2.02271,2.06672 3.96573,4.19775 5.53602,5.97071c1.03781,1.17175 2.22978,2.62891 2.75171,4.11214c0.55955,1.59013 0.40446,3.21024 0.17712,4.54074c-0.66888,3.91466 -1.81446,9.39252 -3.33804,12.12111c-1.87135,3.3514 -6.40094,7.78234 -9.53052,10.63057c-1.8731,1.7047 -3.84708,1.06949 -4.71109,-1.30441c-0.80272,-2.20549 -1.83123,-4.92966 -2.81225,-7.23267c-1.25798,-2.95323 -2.1144,-4.34359 0.00707,-4.82743c2.36615,-0.53965 5.17055,-1.34801 5.17055,-1.34801l-9.3667,-0.99479c0,0 0.99943,2.20162 2.19979,5.58087c2.06311,5.80808 4.71978,15.095 3.91584,22.66172c-0.81288,7.90039 -1.71069,11.47253 -5.48179,14.74597c-5.1898,4.50493 -9.71305,3.65367 -14.05318,4.1393c-2.04364,0.22868 -6.6016,0.00335 -9.28086,-0.29912c-3.01072,-0.3399 -3.65115,-1.53109 -4.03206,-3.53823z" fill="#ffffff" stroke="#000000" stroke-width="9.5"/><path d="M214.25598,270.1051c-1.03574,-5.45756 -6.34429,-31.72303 -8.62258,-42.97944c-0.63988,-3.16152 1.17512,-6.68545 3.32721,-8.18734c4.96529,-3.46517 25.09199,-17.51119 32.38331,-22.59966c1.6592,-1.15793 4.60875,-1.50817 6.28969,0.06473c1.65644,1.54998 5.77197,4.96399 9.47077,8.74324c2.02271,2.06672 3.96573,4.19775 5.53602,5.97071c1.03781,1.17175 2.22978,2.62891 2.75171,4.11214c0.55955,1.59013 0.40446,3.21024 0.17712,4.54074c-0.66888,3.91466 -1.81446,9.39252 -3.33804,12.12111c-1.87135,3.3514 -6.40094,7.78234 -9.53052,10.63057c-1.8731,1.7047 -3.84708,1.06949 -4.71109,-1.30441c-0.80272,-2.20549 -1.83123,-4.92966 -2.81225,-7.23267c-1.25798,-2.95323 -2.1144,-4.34359 0.00707,-4.82743c2.36615,-0.53965 5.17055,-1.34801 5.17055,-1.34801l-9.3667,-0.99479c0,0 0.99943,2.20162 2.19979,5.58087c2.06311,5.80808 4.71978,15.095 3.91584,22.66172c-0.81288,7.90039 -1.71069,11.47253 -5.48179,14.74597c-5.1898,4.50493 -9.71305,3.65367 -14.05318,4.1393c-2.04364,0.22868 -6.6016,0.00335 -9.28086,-0.29912c-3.01072,-0.3399 -3.65115,-1.53109 -4.03206,-3.53823z" fill="#51000d" stroke="none" stroke-width="0"/><path d="M212.65231,261.96905c-2.04999,-10.27322 -5.34871,-26.59142 -7.0189,-34.8434c-0.63988,-3.16152 1.17511,-6.68545 3.3272,-8.18734c4.96529,-3.46517 25.09199,-17.5112 32.38331,-22.59967c1.6592,-1.15793 4.60875,-1.50817 6.28969,0.06473c1.65644,1.54998 5.77197,4.96399 9.47077,8.74324c2.02271,2.06672 3.96573,4.19775 5.53602,5.97071c1.03781,1.17175 2.22979,2.62891 2.75172,4.11215c0.55955,1.59013 0.40446,3.21024 0.17712,4.54074c-0.66888,3.91466 -1.81447,9.39252 -3.33805,12.12111c-1.16037,2.07811 -7.67631,6.32312 -11.50957,2.59447c-0.90545,-0.88073 0.21714,-2.92997 0.39134,-4.52754c0.13111,-1.20236 -0.75803,-2.14887 -0.75803,-2.14887l-9.36669,-0.9948c0,0 0.99943,2.20163 2.19978,5.58088c2.06311,5.80808 4.71978,15.09501 3.91584,22.66171c-0.27589,2.68134 -5.36112,9.87038 -10.51653,12.00153c-5.91664,2.44582 -10.74384,2.07386 -17.5201,0.63292c-6.77627,-1.44094 -6.21258,-4.70858 -6.41492,-5.72258z" fill="#700012" stroke="none" stroke-width="0"/><path d="M209.77172,247.61615c-1.55146,-7.70231 -3.13735,-15.54499 -4.13832,-20.49049c-0.63988,-3.16152 1.17512,-6.68545 3.32721,-8.18734c4.96529,-3.46517 25.09199,-17.51119 32.38331,-22.59966c1.6592,-1.15793 4.60875,-1.50817 6.28969,0.06473c1.65644,1.54998 5.77197,4.96399 9.47077,8.74324c2.02271,2.06672 3.96573,4.19775 5.53602,5.97071c1.03781,1.17175 2.22978,2.62891 2.75171,4.11214c0.55955,1.59013 0.40446,3.21024 0.17712,4.54074c-0.33591,1.9659 -0.79203,4.32604 -1.35589,6.53423c-0.06036,0.23637 -1.20616,-3.15914 -2.03348,-5.66596c-0.47454,-1.4379 -2.26562,-3.20944 -4.28972,-4.0573c-4.70835,-1.97224 -12.67818,-5.14478 -13.60647,-4.43008c-0.82446,0.63476 11.9563,4.81496 14.93342,10.01846c2.8624,5.00297 -4.37675,9.58752 -4.37675,9.58752c0,0 -1.56967,-5.3571 -4.48542,-6.54738c-1.68971,-0.68976 -5.81386,-0.78945 -8.98345,-0.7513c-2.29982,0.02767 -3.75064,2.17847 -3.2207,4.55469c0.37014,1.65969 2.65843,14.45986 0.60191,19.852c-2.22171,5.82528 -7.50278,8.90256 -11.49852,10.64753c-7.43529,3.24706 -16.9727,-9.36574 -17.48245,-11.89648z" fill="#c60000" stroke="none" stroke-width="0"/><path d="M216.10556,228.20002c0,-1.86588 0,-4.31333 0,-5.19937c0,-0.64635 0.65451,-1.64255 1.71605,-2.05959c1.6671,-0.65492 4.33804,-1.70424 7.05434,-2.77136c3.54857,-1.39408 7.17456,-2.81857 8.74084,-3.43389c1.52863,-0.60053 7.47505,-2.7314 0.33572,0.97638c-3.76636,1.95604 -10.07135,4.67552 -12.67898,6.8175c-1.35264,1.1111 -1.51854,4.7539 -2.46632,6.46155c-0.96653,1.74144 -2.70165,0.51562 -2.70165,-0.79121z" fill="#770011" stroke="none" stroke-width="0"/></g><path d="M103.48439,189.40855c0,-75.18481 52.64609,-136.13414 117.58833,-136.13414c64.94224,0 117.58833,60.94933 117.58833,136.13414c0,75.18481 -52.64609,136.13414 -117.58833,136.13414c-64.94224,0 -117.58833,-60.94933 -117.58833,-136.13414z" fill="none" stroke="none" stroke-width="none"/><ellipse cx="577.88499" cy="240.71001" transform="scale(0.5,0.5)" rx="0" ry="0" fill="none" stroke="none" stroke-width="0"/></g></g></svg>