<svg version="1.1" xmlns="http://www.w3.org/2000/svg" xmlns:xlink="http://www.w3.org/1999/xlink" width="533.78378" height="447.61865" viewBox="0,0,533.78378,447.61865"><defs><linearGradient x1="240" y1="312.80345" x2="240" y2="360.48185" gradientUnits="userSpaceOnUse" id="color-1"><stop offset="0" stop-color="#3b3b3b"/><stop offset="1" stop-color="#3b3b3b" stop-opacity="0"/></linearGradient><linearGradient x1="240" y1="312.80345" x2="240" y2="360.48185" gradientUnits="userSpaceOnUse" id="color-2"><stop offset="0" stop-color="#3b3b3b" stop-opacity="0"/><stop offset="1" stop-color="#3b3b3b"/></linearGradient></defs><g transform="translate(41.53153,17.28232)"><g data-paper-data="{&quot;isPaintingLayer&quot;:true}" fill-rule="nonzero" stroke="none" stroke-width="0" stroke-linecap="butt" stroke-linejoin="miter" stroke-miterlimit="10" stroke-dasharray="" stroke-dashoffset="0" style="mix-blend-mode: normal"><path d="M378.88922,336.64263c0,13.16602 -62.18284,23.8392 -138.88924,23.8392c-76.70641,0 -138.8892,-10.67319 -138.8892,-23.8392c0,-13.16602 62.1828,-23.83918 138.88921,-23.83918c76.70641,0 138.88924,10.67314 138.88924,23.83918z" fill="url(#color-1)"/><path d="M378.88922,336.64263c0,13.16602 -62.18284,23.8392 -138.88924,23.8392c-76.70641,0 -138.8892,-10.67319 -138.8892,-23.8392c0,-13.16602 62.1828,-23.83918 138.88921,-23.83918c76.70641,0 138.88924,10.67314 138.88924,23.83918z" fill="url(#color-2)"/><path d="M-12.25226,197.32435c0,-114.85201 112.93718,-207.95796 252.25225,-207.95796c139.31507,0 252.25225,93.10595 252.25225,207.95796c0,114.85201 -112.93718,207.95796 -252.25225,207.95796c-139.31507,0 -252.25225,-93.10595 -252.25225,-207.95796z" fill="none"/><path d="M-12.25226,193.99999c0,-116.688 112.93718,-211.28231 252.25225,-211.28231c139.31507,0 252.25226,94.59431 252.25226,211.28231c0,116.688 -112.93719,211.28232 -252.25226,211.28232c-139.31507,0 -252.25225,-94.59431 -252.25225,-211.28231z" fill="none"/><path d="M-12.25226,197.74614c0,-114.61906 112.93718,-207.53617 252.25225,-207.53617c139.31507,0 252.25225,92.91711 252.25225,207.53618c0,114.61907 -112.93718,207.53617 -252.25225,207.53617c-139.31507,0 -252.25225,-92.91711 -252.25225,-207.53617z" fill="none"/><path d="M-41.53153,430.33633v-315.31532h530.03003v315.31532z" fill="none"/></g></g></svg>