<svg version="1.1" xmlns="http://www.w3.org/2000/svg" xmlns:xlink="http://www.w3.org/1999/xlink" width="453.44745" height="73.57358" viewBox="0,0,453.44745,73.57358"><g transform="translate(-16.2763,-139.21321)"><g data-paper-data="{&quot;isPaintingLayer&quot;:true}" fill-rule="nonzero" stroke-linecap="butt" stroke-linejoin="miter" stroke-miterlimit="10" stroke-dasharray="" stroke-dashoffset="0" style="mix-blend-mode: normal"><path d="M22.27631,212.78679v-73.57358h447.44745v73.57358z" fill="none" stroke="none" stroke-width="0"/><path d="M140.33782,186.94467c0,-9.04475 0,-30.17005 0,-34.32011c0,-1.35436 0.18104,-3.33395 3.03392,-3.33395c0.63602,0 260.20749,0 297.77829,0c3.50188,0 3.61571,1.94421 3.61571,3.9223c0,4.6667 0,24.07572 0,33.14343c0,2.87213 0.04748,4.70676 -3.95526,4.70676c-41.04559,0 -276.94963,0 -297.43874,0c-2.8529,0 -3.03392,-1.5855 -3.03392,-4.11842z" fill="#000000" stroke="#dcdcdc" stroke-width="5.5"/><path d="M39.23423,186.94467c0,-9.04475 0,-30.17005 0,-34.32011c0,-1.35436 0.18104,-3.33395 3.03392,-3.33395c0.63602,0 260.20749,0 297.77829,0c3.50188,0 3.61571,1.94421 3.61571,3.9223c0,4.6667 0,24.07572 0,33.14343c0,2.87213 0.04748,4.70676 -3.95526,4.70676c-41.04559,0 -276.94963,0 -297.43874,0c-2.8529,0 -3.03392,-1.5855 -3.03392,-4.11842z" fill="#000000" stroke="#dcdcdc" stroke-width="5.5"/><path d="M39.23423,186.94469c0,-9.04475 0,-30.17005 0,-34.32011c0,-1.35436 0.18104,-3.33395 3.03392,-3.33395c0.63602,0 260.20749,0 297.77829,0c3.50188,0 3.61571,1.9442 3.61571,3.92229c0,4.6667 0,24.07572 0,33.14343c0,2.87213 0.04748,4.70676 -3.95526,4.70676c-41.04559,0 -276.94963,0 -297.43874,0c-2.8529,0 -3.03392,-1.58551 -3.03392,-4.11843z" fill="#000000" stroke="none" stroke-width="0"/><path d="M140.33782,186.94469c0,-9.04475 0,-30.17005 0,-34.32011c0,-1.35436 0.18104,-3.33395 3.03392,-3.33395c0.63602,0 260.20749,0 297.77829,0c3.50188,0 3.61571,1.9442 3.61571,3.92229c0,4.6667 0,24.07572 0,33.14343c0,2.87213 0.04748,4.70676 -3.95526,4.70676c-41.04559,0 -276.94963,0 -297.43874,0c-2.8529,0 -3.03392,-1.58551 -3.03392,-4.11843z" fill="#000000" stroke="none" stroke-width="0"/><path d="M16.27631,212.78679v-73.57358h447.44745v73.57358z" fill="none" stroke="none" stroke-width="0"/></g></g></svg>