<svg version="1.1" xmlns="http://www.w3.org/2000/svg" xmlns:xlink="http://www.w3.org/1999/xlink" width="187.25007" height="132.96315" viewBox="0,0,187.25007,132.96315"><g transform="translate(-146.37497,-113.51843)"><g data-paper-data="{&quot;isPaintingLayer&quot;:true}" fill-rule="nonzero" stroke-linejoin="miter" stroke-miterlimit="10" stroke-dasharray="" stroke-dashoffset="0" style="mix-blend-mode: normal"><path d="M146.37839,180.36616c-0.43778,-36.71619 41.12315,-66.64448 92.82893,-66.8467c51.70579,-0.20222 93.9765,29.3982 94.41429,66.11439c0.43778,36.71619 -41.12315,66.64448 -92.82893,66.8467c-51.70579,0.20222 -93.9765,-29.3982 -94.41429,-66.11439z" fill="none" stroke="none" stroke-width="NaN" stroke-linecap="butt"/><g stroke-linecap="butt"><path d="M206.32737,150.2115l65.32231,-0.20423l-32.67878,14.33788z" fill="#b7c5c5" stroke="none" stroke-width="0"/><path d="M272.0292,149.80272l-33.27238,59.69064l1.1271,-47.80612z" data-paper-data="{&quot;index&quot;:null}" fill="#a8aebb" stroke="none" stroke-width="0"/><path d="M240.15434,161.64061l-0.17494,49.04895l-33.65205,-60.47805z" fill="#abbbbb" stroke="none" stroke-width="0"/><path d="M244.44223,205.81498l-4.22795,4.4873l-34.2491,-58.46271z" fill="#7d1d10" stroke="none" stroke-width="0"/><path d="M273.93676,149.66841l-31.28696,59.20268l-4.33693,-4.46052z" data-paper-data="{&quot;index&quot;:null}" fill="#7d1d10" stroke="none" stroke-width="0"/><path d="M208.22035,148.80758c10.89562,-0.03406 42.74207,-0.13363 64.55831,-0.20184c1.48834,-0.00465 2.34692,0.58983 1.89693,1.41282c-2.69707,4.93256 -28.4189,51.97437 -33.21002,60.73667c-0.4947,0.90476 -1.08444,0.84621 -1.66067,-0.15922c-5.20506,-9.08219 -31.46543,-54.90319 -34.45423,-60.11827c-0.54432,-0.94976 0.43783,-1.66256 2.86969,-1.67017z" fill="none" stroke="#000000" stroke-width="6.5"/><path d="M208.22035,148.80758c10.89562,-0.03406 42.74207,-0.13363 64.55831,-0.20184c1.48834,-0.00465 2.34692,0.58983 1.89693,1.41282c-2.69707,4.93256 -28.4189,51.97437 -33.21002,60.73667c-0.4947,0.90476 -1.08444,0.84621 -1.66067,-0.15923c-5.20508,-9.08219 -31.46543,-54.90319 -34.45423,-60.11826c-0.54432,-0.94976 0.43783,-1.66256 2.86969,-1.67017z" fill="none" stroke="#00f000" stroke-width="3.5"/></g><g stroke-linecap="square"><path d="M205.98996,173.69559v-9.74632c0,-1.2132 0.04479,-2.08442 0.13435,-2.61367c0.0977,-0.53739 0.38675,-0.99743 0.86715,-1.38012c0.48039,-0.39083 1.06257,-0.58624 1.74652,-0.58624c0.65139,0 1.22134,0.1832 1.70988,0.5496c0.49668,0.3664 0.80202,0.8468 0.91601,1.44119c0.12213,0.59438 0.1832,1.49818 0.1832,2.71138v7.6334c0,2.50782 0.38676,4.11592 1.16028,4.8243c0.78166,0.70024 1.64067,1.05035 2.57703,1.05035c1.07478,0 2.01522,-0.30127 2.8213,-0.9038c0.80608,-0.60253 1.35569,-1.32719 1.64881,-2.17399c0.29312,-0.8468 0.43968,-2.52004 0.43968,-5.01972v-5.53269c0,-1.18063 0.057,-2.05185 0.17099,-2.61367c0.11399,-0.56182 0.41525,-1.03 0.90379,-1.40455c0.48854,-0.37455 1.06664,-0.56182 1.73431,-0.56182c0.6351,0 1.20099,0.1832 1.69767,0.5496c0.49668,0.3664 0.79388,0.82644 0.89158,1.38012c0.10585,0.54553 0.15878,1.42897 0.15878,2.65031v13.71569c0,1.12365 -0.05699,1.93787 -0.17099,2.4427c-0.10585,0.50483 -0.37455,0.94043 -0.80609,1.30684c-0.4234,0.3664 -0.96078,0.5496 -1.61217,0.5496c-1.7913,0 -2.65032,-1.28241 -2.57703,-3.84724c-1.86459,2.56483 -4.31542,3.84724 -7.35249,3.84724c-2.01114,0 -3.72103,-0.59846 -5.12964,-1.79537c-1.40861,-1.20506 -2.11292,-3.36278 -2.11292,-6.47313zM235.53995,165.14619c0,0.71652 0.37048,1.27833 1.11142,1.68545c0.74909,0.40712 2.42233,0.9323 5.01972,1.57554c5.03194,1.22135 7.5479,3.31798 7.5479,6.28992c0,2.34498 -0.85086,4.14443 -2.5526,5.39835c-1.69359,1.24577 -4.06708,1.86865 -7.12044,1.86865c-3.09407,0 -5.42683,-0.63917 -6.99829,-1.91751c-1.56332,-1.27835 -2.34498,-2.62997 -2.34498,-4.05487c0,-0.61067 0.21577,-1.13178 0.64731,-1.56332c0.43968,-0.43154 0.97707,-0.64731 1.61217,-0.64731c0.87123,0 1.63253,0.54146 2.28392,1.62439c0.73281,1.19691 1.53889,1.99079 2.41826,2.38162c0.88751,0.38269 1.83201,0.57403 2.83351,0.57403c1.1155,0 2.01929,-0.24834 2.71138,-0.74502c0.70024,-0.49668 1.05035,-1.12363 1.05035,-1.88086c0,-0.69209 -0.2972,-1.29055 -0.89158,-1.79538c-0.58624,-0.51297 -2.19842,-1.07071 -4.83652,-1.67324c-2.6381,-0.61067 -4.56375,-1.46154 -5.77695,-2.55261c-1.20505,-1.09107 -1.80759,-2.38976 -1.80759,-3.89608c0,-1.69359 0.73687,-3.19178 2.21063,-4.49454c1.47376,-1.30276 3.68439,-1.95415 6.6319,-1.95415c2.6951,0 4.84466,0.5496 6.44869,1.64881c1.60403,1.09921 2.40605,2.23913 2.40605,3.41976c0,0.61882 -0.20356,1.14399 -0.61068,1.57553c-0.40712,0.4234 -0.973,0.6351 -1.69767,0.6351c-1.06664,0 -2.0315,-0.61474 -2.89458,-1.84423c-0.86308,-1.23763 -2.16178,-1.85644 -3.89608,-1.85644c-0.93636,0 -1.75466,0.19134 -2.4549,0.57403c-0.70024,0.37455 -1.05035,0.91601 -1.05035,1.62439zM269.43001,172.02235h-10.90659c0.04886,2.06814 0.61068,3.62739 1.68545,4.67775c1.08292,1.05035 2.37754,1.57553 3.88387,1.57553c1.86458,0 3.61518,-0.81422 5.25178,-2.44268c0.66766,-0.67581 1.16028,-1.09514 1.47782,-1.25799c0.31755,-0.16285 0.67581,-0.24426 1.07478,-0.24426c0.49668,0 0.92415,0.1547 1.28241,0.46411c0.35826,0.30941 0.5374,0.69617 0.5374,1.16028c0,1.24577 -0.85495,2.56075 -2.56483,3.94495c-1.70174,1.37605 -4.01414,2.06407 -6.93722,2.06407c-3.71289,0 -6.53012,-1.04628 -8.4517,-3.13885c-1.92158,-2.10072 -2.88237,-4.82024 -2.88237,-8.15858c0,-3.3709 0.96079,-6.0945 2.88237,-8.17079c1.92158,-2.08443 4.59225,-3.12664 8.01201,-3.12664c3.26506,0 5.7851,0.98521 7.56011,2.95565c1.78316,1.96229 2.67474,4.09558 2.67474,6.39984c0,1.01779 -0.29719,1.82387 -0.89158,2.41826c-0.58625,0.58624 -1.81573,0.87937 -3.68846,0.87937zM258.52341,168.87129h10.11272c-0.06514,-1.8483 -0.57403,-3.25691 -1.52668,-4.22584c-0.95265,-0.96893 -2.12513,-1.4534 -3.51746,-1.4534c-2.94751,0 -4.63703,1.89308 -5.06858,5.67925z" fill="#ffffff" stroke="#000000" stroke-width="4"/><path d="M205.98996,173.69559v-9.74632c0,-1.2132 0.04478,-2.08442 0.13435,-2.61367c0.09771,-0.53739 0.38676,-0.99743 0.86715,-1.38012c0.4804,-0.39083 1.06257,-0.58624 1.74652,-0.58624c0.65138,0 1.22134,0.1832 1.70988,0.5496c0.49668,0.3664 0.80201,0.8468 0.91601,1.44118c0.12213,0.59439 0.1832,1.49818 0.1832,2.71138v7.63339c0,2.50783 0.38676,4.11593 1.16028,4.82431c0.78166,0.70024 1.64067,1.05036 2.57703,1.05036c1.07478,0 2.01522,-0.30126 2.8213,-0.90379c0.80609,-0.60253 1.35569,-1.32719 1.64881,-2.17399c0.29312,-0.8468 0.43968,-2.52004 0.43968,-5.01972v-5.53268c0,-1.18063 0.05699,-2.05186 0.17099,-2.61367c0.11399,-0.56182 0.41526,-1.03 0.90379,-1.40454c0.48854,-0.37454 1.06664,-0.56182 1.73431,-0.56182c0.6351,0 1.20099,0.1832 1.69767,0.5496c0.49668,0.3664 0.79387,0.82644 0.89158,1.38012c0.10585,0.54553 0.15877,1.42897 0.15877,2.65031v13.71568c0,1.12364 -0.05699,1.93787 -0.17099,2.4427c-0.10585,0.50482 -0.37454,0.94043 -0.80609,1.30684c-0.4234,0.3664 -0.96079,0.5496 -1.61217,0.5496c-1.7913,0 -2.65031,-1.28241 -2.57703,-3.84724c-1.86458,2.56483 -4.31541,3.84724 -7.35249,3.84724c-2.01114,0 -3.72102,-0.59846 -5.12964,-1.79537c-1.40862,-1.20507 -2.11292,-3.36278 -2.11292,-6.47313zM235.53995,165.14618c0,0.71652 0.37048,1.27834 1.11142,1.68545c0.74909,0.40712 2.42233,0.93229 5.01972,1.57553c5.03193,1.22134 7.5479,3.31798 7.5479,6.28992c0,2.34498 -0.85087,4.14443 -2.55261,5.39835c-1.69359,1.24577 -4.06707,1.86865 -7.12043,1.86865c-3.09407,0 -5.42684,-0.63917 -6.9983,-1.91751c-1.56332,-1.27835 -2.34498,-2.62997 -2.34498,-4.05487c0,-0.61067 0.21577,-1.13178 0.64731,-1.56332c0.43968,-0.43154 0.97707,-0.64731 1.61217,-0.64731c0.87123,0 1.63253,0.54146 2.28391,1.62439c0.73281,1.19692 1.53889,1.99079 2.41826,2.38162c0.88751,0.38269 1.83201,0.57403 2.83352,0.57403c1.11549,0 2.01929,-0.24834 2.71138,-0.74502c0.70024,-0.49668 1.05036,-1.12364 1.05036,-1.88087c0,-0.69209 -0.29719,-1.29055 -0.89158,-1.79537c-0.58624,-0.51296 -2.19842,-1.07071 -4.83652,-1.67324c-2.6381,-0.61067 -4.56375,-1.46154 -5.77695,-2.55261c-1.20506,-1.09107 -1.80759,-2.38976 -1.80759,-3.89608c0,-1.69359 0.73688,-3.19178 2.21063,-4.49454c1.47375,-1.30276 3.68438,-1.95415 6.63189,-1.95415c2.6951,0 4.84466,0.5496 6.44869,1.64881c1.60403,1.09921 2.40605,2.23913 2.40605,3.41976c0,0.61881 -0.20356,1.14399 -0.61067,1.57553c-0.40712,0.4234 -0.973,0.6351 -1.69767,0.6351c-1.06664,0 -2.0315,-0.61474 -2.89458,-1.84423c-0.86308,-1.23763 -2.16178,-1.85644 -3.89608,-1.85644c-0.93636,0 -1.75466,0.19134 -2.4549,0.57403c-0.70024,0.37454 -1.05036,0.91601 -1.05036,1.62439zM269.43,172.02234h-10.90659c0.04885,2.06814 0.61067,3.62739 1.68545,4.67774c1.08292,1.05036 2.37755,1.57553 3.88387,1.57553c1.86458,0 3.61518,-0.81423 5.25178,-2.44269c0.66767,-0.67581 1.16028,-1.09514 1.47783,-1.25798c0.31755,-0.16285 0.67581,-0.24427 1.07478,-0.24427c0.49668,0 0.92415,0.1547 1.28241,0.46411c0.35826,0.30941 0.53739,0.69617 0.53739,1.16028c0,1.24577 -0.85494,2.56075 -2.56482,3.94495c-1.70174,1.37605 -4.01415,2.06407 -6.93723,2.06407c-3.71288,0 -6.53011,-1.04628 -8.45169,-3.13885c-1.92158,-2.10072 -2.88237,-4.82024 -2.88237,-8.15858c0,-3.37091 0.96079,-6.0945 2.88237,-8.17079c1.92158,-2.08442 4.59225,-3.12664 8.01201,-3.12664c3.26506,0 5.78509,0.98522 7.56011,2.95565c1.78316,1.96229 2.67474,4.09557 2.67474,6.39984c0,1.01779 -0.29719,1.82387 -0.89158,2.41826c-0.58624,0.58624 -1.81573,0.87937 -3.68846,0.87937zM258.52341,168.87128h10.11272c-0.06514,-1.8483 -0.57403,-3.25691 -1.52668,-4.22585c-0.95265,-0.96893 -2.12514,-1.4534 -3.51747,-1.4534c-2.94751,0 -4.63703,1.89308 -5.06857,5.67925z" fill="#00f000" stroke="#00f000" stroke-width="1"/></g><path d="" fill="#5d626d" stroke="none" stroke-width="0" stroke-linecap="butt"/><path d="" fill="none" stroke="#6a7477" stroke-width="6" stroke-linecap="round"/><path d="" fill="none" stroke="#303044" stroke-width="6" stroke-linecap="round"/><path d="" fill="none" stroke="#4a5757" stroke-width="6" stroke-linecap="round"/></g></g></svg>