<svg version="1.1" xmlns="http://www.w3.org/2000/svg" xmlns:xlink="http://www.w3.org/1999/xlink" width="133.11042" height="10.26459" viewBox="0,0,133.11042,10.26459"><g transform="translate(-173.44479,-174.86773)"><g data-paper-data="{&quot;isPaintingLayer&quot;:true}" fill="#12ff00" fill-rule="nonzero" stroke="none" stroke-width="1" stroke-linecap="square" stroke-linejoin="miter" stroke-miterlimit="10" stroke-dasharray="" stroke-dashoffset="0" style="mix-blend-mode: normal"><path d="M178.53006,180.43164v-4.64086c0,-0.61536 0.24216,-0.92305 0.72647,-0.92305c0.17663,0 0.33047,0.05128 0.46152,0.15384c0.13674,0.10256 0.21937,0.22507 0.24786,0.36751c0.02849,0.14245 0.04274,0.3846 0.04274,0.72647v5.23912c0,0.38745 -0.01425,0.67519 -0.04274,0.86322c-0.02849,0.18802 -0.11395,0.36181 -0.2564,0.52135c-0.13674,0.15384 -0.35041,0.23076 -0.641,0.23076c-0.23931,0 -0.42734,-0.05982 -0.56408,-0.17948c-0.13674,-0.11966 -0.34186,-0.38745 -0.61536,-0.80339l-2.97425,-4.5212v4.2648c0,0.34187 -0.01425,0.58117 -0.04274,0.71792c-0.02279,0.13105 -0.09687,0.25071 -0.22221,0.35897c-0.12535,0.10825 -0.28204,0.16239 -0.47006,0.16239c-0.17094,0 -0.32193,-0.04843 -0.45298,-0.1453c-0.12535,-0.10256 -0.20512,-0.22791 -0.23931,-0.37606c-0.02849,-0.14814 -0.04273,-0.38745 -0.04273,-0.71792v-5.29895c0,-0.48431 0.01994,-0.80339 0.05983,-0.95723c0.03988,-0.15384 0.1396,-0.29343 0.29913,-0.41879c0.16524,-0.12535 0.35896,-0.18803 0.58118,-0.18803c0.21652,0 0.3846,0.05414 0.50426,0.16239c0.11966,0.10256 0.31908,0.36465 0.59827,0.78629zM185.31186,182.14098c-0.68943,0.55268 -1.36747,0.82903 -2.03411,0.82903c-0.63245,0 -1.11962,-0.15954 -1.46149,-0.47862c-0.33617,-0.32477 -0.50426,-0.71792 -0.50426,-1.17944c0,-0.39884 0.11396,-0.71792 0.34187,-0.95723c0.23361,-0.245 0.48431,-0.41594 0.75211,-0.5128c0.27349,-0.09686 0.71507,-0.20797 1.32474,-0.33332c0.60967,-0.12535 1.10252,-0.24216 1.47857,-0.35041c-0.0057,-0.44443 -0.09401,-0.74356 -0.26494,-0.8974c-0.17094,-0.15384 -0.43018,-0.23077 -0.77775,-0.23077c-0.66094,0 -1.09398,0.18518 -1.29909,0.55554c-0.11396,0.21082 -0.21652,0.36181 -0.30769,0.45297c-0.08546,0.08546 -0.21082,0.1282 -0.37605,0.1282c-0.15384,0 -0.29344,-0.04843 -0.41879,-0.14529c-0.12535,-0.10256 -0.18803,-0.23646 -0.18803,-0.4017c0,-0.37606 0.20513,-0.73217 0.61537,-1.06834c0.41024,-0.34187 1.05409,-0.5128 1.93155,-0.5128c0.88886,0 1.5384,0.15384 1.94864,0.46152c0.41594,0.30768 0.61252,0.92874 0.58973,1.86318l-0.03419,1.36747c-0.01139,0.42734 0.03134,0.7749 0.12821,1.0427c0.10256,0.2621 0.15384,0.46437 0.15384,0.60682c0,0.15384 -0.06838,0.29058 -0.20512,0.41024c-0.13105,0.11966 -0.28203,0.17948 -0.45297,0.17948c-0.29628,0 -0.60967,-0.27635 -0.94014,-0.82903zM185.21784,180.02995c-0.21652,0.08546 -0.57548,0.17948 -1.07688,0.28204c-0.50141,0.09686 -0.85752,0.21081 -1.06834,0.34186c-0.20512,0.12535 -0.30768,0.31338 -0.30768,0.56409c0,0.20512 0.08262,0.3903 0.24785,0.55553c0.16523,0.15954 0.4017,0.23931 0.70938,0.23931c0.31907,0 0.61536,-0.08831 0.88886,-0.26494c0.27919,-0.17663 0.45012,-0.38461 0.5128,-0.62391c0.06267,-0.245 0.09401,-0.60967 0.09401,-1.09398zM190.07023,181.26922l1.27345,-3.46996c0.12535,-0.34187 0.24216,-0.55268 0.35041,-0.63245c0.10825,-0.08546 0.23076,-0.1282 0.36751,-0.1282c0.19373,0 0.35327,0.06552 0.47862,0.19657c0.13105,0.13105 0.19657,0.2678 0.19657,0.41024c0,0.13105 -0.07122,0.37605 -0.21367,0.73501l-1.41021,3.46996c-0.19373,0.49571 -0.36181,0.80624 -0.50426,0.93159c-0.13675,0.12535 -0.31622,0.18803 -0.53844,0.18803c-0.27919,0 -0.48431,-0.07692 -0.61536,-0.23076c-0.12535,-0.15954 -0.27349,-0.45583 -0.44443,-0.88885l-1.39311,-3.43577c-0.14814,-0.34756 -0.22222,-0.59542 -0.22222,-0.74357c0,-0.15384 0.06552,-0.29628 0.19657,-0.42733c0.13675,-0.13675 0.30483,-0.20512 0.50426,-0.20512c0.22222,0 0.37606,0.06268 0.46152,0.18803c0.09117,0.12535 0.20227,0.36465 0.33332,0.71792zM194.52092,174.93612c0.19373,0 0.35896,0.07122 0.49571,0.21367c0.13675,0.14245 0.20512,0.30768 0.20512,0.49571c0,0.19372 -0.06837,0.36181 -0.20512,0.50426c-0.13675,0.13675 -0.30199,0.20512 -0.49571,0.20512c-0.19373,0 -0.36181,-0.06838 -0.50426,-0.20512c-0.13675,-0.14245 -0.20512,-0.31053 -0.20512,-0.50426c0,-0.19372 0.06837,-0.35896 0.20512,-0.49571c0.14244,-0.14245 0.31053,-0.21367 0.50426,-0.21367zM195.24739,178.22659v3.52979c0,0.35327 -0.0171,0.59542 -0.05128,0.72647c-0.02849,0.12535 -0.11111,0.23931 -0.24786,0.34186c-0.13105,0.09686 -0.27349,0.1453 -0.42733,0.1453c-0.15384,0 -0.29913,-0.04843 -0.43588,-0.1453c-0.13675,-0.10256 -0.22222,-0.21936 -0.2564,-0.35041c-0.02849,-0.13105 -0.04274,-0.37036 -0.04274,-0.71792v-3.52123c0,-0.31907 0.0114,-0.54414 0.03419,-0.67519c0.02849,-0.13675 0.10826,-0.2564 0.23931,-0.35896c0.13105,-0.10825 0.28204,-0.16239 0.45297,-0.16239c0.17094,0 0.31907,0.04843 0.44442,0.1453c0.12535,0.09116 0.20513,0.21081 0.23931,0.35896c0.03418,0.14245 0.05128,0.37036 0.05128,0.68374zM200.75039,178.03002v-0.19657c0,-0.2621 0.06267,-0.45867 0.18802,-0.58972c0.13105,-0.13675 0.29628,-0.20512 0.49571,-0.20512c0.22222,0 0.39315,0.07692 0.5128,0.23076c0.11965,0.15384 0.17948,0.48716 0.17948,0.99996v3.91439c0,1.16235 -0.24501,1.94295 -0.73502,2.34179c-0.49001,0.40454 -1.19653,0.60681 -2.11957,0.60681c-0.83188,0 -1.48143,-0.15384 -1.94864,-0.46152c-0.46722,-0.30768 -0.70083,-0.63245 -0.70083,-0.97432c0,-0.18233 0.05983,-0.33048 0.17948,-0.44443c0.12535,-0.11395 0.27349,-0.17094 0.44443,-0.17094c0.15384,0 0.27349,0.03704 0.35896,0.11111c0.09117,0.07407 0.24501,0.24785 0.46152,0.52134c0.22222,0.2735 0.58973,0.41024 1.10253,0.41024c0.28489,0 0.54983,-0.04559 0.79484,-0.13675c0.24501,-0.08546 0.42449,-0.24215 0.53844,-0.47006c0.11965,-0.22222 0.17378,-0.77206 0.16239,-1.64952c-0.44443,0.64385 -1.05125,0.96578 -1.82045,0.96578c-0.74641,0 -1.33613,-0.2792 -1.76917,-0.83758c-0.43303,-0.55838 -0.64955,-1.2706 -0.64955,-2.13667c0,-0.86606 0.22222,-1.55265 0.66665,-2.05975c0.44443,-0.50711 1.02275,-0.76066 1.73498,-0.76066c0.7806,0 1.4216,0.33047 1.92301,0.99142zM197.90434,179.97867c0,0.56408 0.1225,0.99426 0.3675,1.29055c0.24501,0.29629 0.58403,0.44443 1.01706,0.44443c0.37605,0 0.69797,-0.14245 0.96577,-0.42734c0.27349,-0.29059 0.41025,-0.72361 0.41025,-1.29909c0,-0.56408 -0.12535,-1.01136 -0.37606,-1.34183c-0.2507,-0.33047 -0.58973,-0.49571 -1.01705,-0.49571c-0.41594,0 -0.74926,0.15669 -0.99997,0.47007c-0.24501,0.30768 -0.3675,0.76065 -0.3675,1.35892zM206.99909,182.14098c-0.68943,0.55268 -1.36747,0.82903 -2.03411,0.82903c-0.63245,0 -1.11962,-0.15954 -1.46149,-0.47862c-0.33617,-0.32477 -0.50426,-0.71792 -0.50426,-1.17944c0,-0.39884 0.11396,-0.71792 0.34186,-0.95723c0.23361,-0.245 0.48431,-0.41594 0.75211,-0.5128c0.27349,-0.09686 0.71507,-0.20797 1.32474,-0.33332c0.60967,-0.12535 1.10252,-0.24216 1.47857,-0.35041c-0.0057,-0.44443 -0.09401,-0.74356 -0.26494,-0.8974c-0.17094,-0.15384 -0.43018,-0.23077 -0.77775,-0.23077c-0.66094,0 -1.09398,0.18518 -1.2991,0.55554c-0.11396,0.21082 -0.21652,0.36181 -0.30768,0.45297c-0.08546,0.08546 -0.21082,0.1282 -0.37605,0.1282c-0.15384,0 -0.29344,-0.04843 -0.41878,-0.14529c-0.12535,-0.10256 -0.18803,-0.23646 -0.18803,-0.4017c0,-0.37606 0.20512,-0.73217 0.61536,-1.06834c0.41024,-0.34187 1.05409,-0.5128 1.93155,-0.5128c0.88886,0 1.5384,0.15384 1.94864,0.46152c0.41594,0.30768 0.61252,0.92874 0.58973,1.86318l-0.03419,1.36747c-0.01139,0.42734 0.03134,0.7749 0.1282,1.0427c0.10256,0.2621 0.15384,0.46437 0.15384,0.60682c0,0.15384 -0.06838,0.29058 -0.20512,0.41024c-0.13105,0.11966 -0.28204,0.17948 -0.45297,0.17948c-0.29628,0 -0.60966,-0.27635 -0.94013,-0.82903zM206.90507,180.02995c-0.21652,0.08546 -0.57547,0.17948 -1.07688,0.28204c-0.50141,0.09686 -0.85753,0.21081 -1.06834,0.34186c-0.20512,0.12535 -0.30768,0.31338 -0.30768,0.56409c0,0.20512 0.08262,0.3903 0.24785,0.55553c0.16523,0.15954 0.4017,0.23931 0.70938,0.23931c0.31907,0 0.61536,-0.08831 0.88885,-0.26494c0.27919,-0.17663 0.45013,-0.38461 0.51281,-0.62391c0.06267,-0.245 0.09401,-0.60967 0.09401,-1.09398zM209.78317,177.1668v-0.88031c0,-0.35896 0.01424,-0.60111 0.04273,-0.72647c0.03418,-0.13105 0.11396,-0.24786 0.23931,-0.35041c0.12535,-0.10256 0.27349,-0.15384 0.44442,-0.15384c0.15954,0 0.30199,0.04558 0.42733,0.13675c0.12535,0.09116 0.20797,0.20512 0.24786,0.34187c0.03988,0.13105 0.05983,0.34472 0.05983,0.641v0.99142h0.28204c0.35896,0 0.59542,0.04273 0.70937,0.1282c0.11965,0.08546 0.17948,0.21367 0.17948,0.3846c0,0.35896 -0.29914,0.53844 -0.89741,0.53844h-0.27349v2.69221c0,0.36466 0.02564,0.61251 0.07692,0.74356c0.05128,0.13105 0.18802,0.19657 0.41024,0.19657c0.10825,0 0.22791,-0.01425 0.35896,-0.04273c0.13675,-0.03418 0.23646,-0.05128 0.29913,-0.05128c0.14814,0 0.26779,0.04843 0.35896,0.14529c0.09117,0.09686 0.13675,0.21367 0.13675,0.35042c0,0.47861 -0.50426,0.71792 -1.51277,0.71792c-0.49001,0 -0.84898,-0.09117 -1.07689,-0.2735c-0.22791,-0.18233 -0.37036,-0.4017 -0.42733,-0.6581c-0.05697,-0.2621 -0.08546,-0.60396 -0.08546,-1.0256v-2.79477h-0.18803c-0.43303,0 -0.64955,-0.17663 -0.64955,-0.5299c0,-0.34756 0.22791,-0.52135 0.68374,-0.52135zM214.1516,174.93612c0.19373,0 0.35896,0.07122 0.49571,0.21367c0.13675,0.14245 0.20512,0.30768 0.20512,0.49571c0,0.19372 -0.06837,0.36181 -0.20512,0.50426c-0.13675,0.13675 -0.30199,0.20512 -0.49571,0.20512c-0.19373,0 -0.36181,-0.06838 -0.50426,-0.20512c-0.13675,-0.14245 -0.20512,-0.31053 -0.20512,-0.50426c0,-0.19372 0.06837,-0.35896 0.20512,-0.49571c0.14244,-0.14245 0.31053,-0.21367 0.50426,-0.21367zM214.87807,178.22659v3.52979c0,0.35327 -0.0171,0.59542 -0.05128,0.72647c-0.02849,0.12535 -0.11111,0.23931 -0.24786,0.34186c-0.13105,0.09686 -0.27349,0.1453 -0.42733,0.1453c-0.15384,0 -0.29913,-0.04843 -0.43588,-0.1453c-0.13675,-0.10256 -0.22222,-0.21936 -0.2564,-0.35041c-0.02849,-0.13105 -0.04274,-0.37036 -0.04274,-0.71792v-3.52123c0,-0.31907 0.0114,-0.54414 0.03419,-0.67519c0.02849,-0.13675 0.10825,-0.2564 0.23931,-0.35896c0.13105,-0.10825 0.28204,-0.16239 0.45297,-0.16239c0.17094,0 0.31908,0.04843 0.44443,0.1453c0.12535,0.09116 0.20512,0.21081 0.23931,0.35896c0.03418,0.14245 0.05128,0.37036 0.05128,0.68374zM218.92813,177.03859c0.90595,0 1.61817,0.27919 2.13667,0.83758c0.5185,0.55268 0.77775,1.26207 0.77775,2.12813c0,0.86606 -0.2621,1.57828 -0.78629,2.13667c-0.5242,0.55268 -1.21933,0.82903 -2.0854,0.82903c-0.94013,0 -1.66661,-0.28204 -2.17941,-0.84612c-0.5128,-0.56408 -0.7692,-1.27061 -0.7692,-2.11958c0,-0.86606 0.25924,-1.57545 0.77774,-2.12813c0.5185,-0.55838 1.22788,-0.83758 2.12813,-0.83758zM218.92813,181.88457c0.44443,0 0.79484,-0.16524 1.05124,-0.49571c0.2564,-0.33617 0.3846,-0.79769 0.3846,-1.38456c0,-0.59257 -0.1282,-1.0541 -0.3846,-1.38457c-0.2564,-0.33617 -0.60681,-0.50426 -1.05124,-0.50426c-0.43303,0 -0.7806,0.16809 -1.0427,0.50426c-0.2564,0.33617 -0.3846,0.7977 -0.3846,1.38457c0,0.58687 0.1282,1.04839 0.3846,1.38456c0.2564,0.33047 0.60397,0.49571 1.0427,0.49571zM228.13399,179.3633v2.39308c0,0.31338 -0.01425,0.54129 -0.04274,0.68374c-0.02279,0.13675 -0.09971,0.25925 -0.23076,0.36751c-0.12535,0.10825 -0.27349,0.16239 -0.44442,0.16239c-0.15954,0 -0.30768,-0.04843 -0.44443,-0.1453c-0.13105,-0.09686 -0.21367,-0.21936 -0.24786,-0.3675c-0.03418,-0.15384 -0.05128,-0.38745 -0.05128,-0.70083v-2.09394c0,-0.58687 -0.08831,-0.98002 -0.26494,-1.17945c-0.17094,-0.20512 -0.41024,-0.30768 -0.71792,-0.30768c-0.27349,0 -0.51566,0.07978 -0.72647,0.23931c-0.21081,0.15954 -0.35896,0.36181 -0.44442,0.60681c-0.08546,0.23931 -0.1282,0.64955 -0.1282,1.23072v1.50422c0,0.30768 -0.0114,0.53274 -0.03419,0.67519c-0.02279,0.13675 -0.09971,0.2621 -0.23076,0.37606c-0.13105,0.10825 -0.28204,0.16239 -0.45297,0.16239c-0.16523,0 -0.31623,-0.04843 -0.45298,-0.1453c-0.13105,-0.10256 -0.21081,-0.22506 -0.2393,-0.3675c-0.02849,-0.14814 -0.04274,-0.38175 -0.04274,-0.70083v-3.58961c0,-0.32477 0.01425,-0.54984 0.04274,-0.67519c0.03418,-0.13105 0.1111,-0.23931 0.23076,-0.32477c0.12535,-0.08546 0.26495,-0.1282 0.41879,-0.1282c0.14244,0 0.29059,0.05698 0.44443,0.17094c0.15384,0.10825 0.23076,0.37891 0.23076,0.81194c0.49001,-0.65524 1.11677,-0.98287 1.88027,-0.98287c0.29059,0 0.57833,0.05698 0.86322,0.17094c0.28489,0.10825 0.51565,0.28489 0.69228,0.52989c0.18233,0.245 0.29344,0.50141 0.33333,0.7692c0.03988,0.26779 0.05983,0.55268 0.05983,0.85467zM230.56232,177.03859c0.21652,0 0.4017,0.07978 0.55554,0.23931c0.15954,0.15384 0.23931,0.33902 0.23931,0.55553c0,0.22222 -0.07977,0.41309 -0.23931,0.57263c-0.15384,0.15954 -0.33902,0.23931 -0.55554,0.23931c-0.22222,0 -0.41309,-0.07977 -0.57263,-0.23931c-0.15954,-0.15954 -0.23931,-0.35041 -0.23931,-0.57263c0,-0.21652 0.07977,-0.40169 0.23931,-0.55553c0.15954,-0.15954 0.35041,-0.23931 0.57263,-0.23931zM230.56232,181.35467c0.21652,0 0.4017,0.07978 0.55554,0.23931c0.15954,0.15384 0.23931,0.34186 0.23931,0.56408c0,0.21652 -0.07977,0.4074 -0.23931,0.57263c-0.15384,0.15954 -0.33902,0.23931 -0.55554,0.23931c-0.22222,0 -0.41309,-0.07977 -0.57263,-0.23931c-0.15954,-0.15954 -0.23931,-0.35041 -0.23931,-0.57263c0,-0.22222 0.07977,-0.41024 0.23931,-0.56408c0.15954,-0.15954 0.35041,-0.23931 0.57263,-0.23931zM242.35355,179.67098c0.18802,0 0.35042,0.06552 0.48717,0.19657c0.14244,0.12535 0.21367,0.29059 0.21367,0.49571c0,0.55838 -0.28204,1.13386 -0.84612,1.72643c-0.56408,0.58687 -1.35892,0.88031 -2.38453,0.88031c-1.25921,0 -2.2022,-0.3903 -2.82896,-1.1709c-0.62106,-0.7806 -0.93159,-1.73783 -0.93159,-2.87169c0,-1.21933 0.34757,-2.19935 1.0427,-2.94006c0.69513,-0.74641 1.60108,-1.11962 2.71785,-1.11962c0.96863,0 1.74352,0.2678 2.3247,0.80339c0.58118,0.53559 0.87176,1.06264 0.87176,1.58114c0,0.16523 -0.06268,0.31907 -0.18803,0.46152c-0.12535,0.14245 -0.29628,0.21366 -0.5128,0.21366c-0.18802,0 -0.33332,-0.05128 -0.43588,-0.15384c-0.09686,-0.10825 -0.23076,-0.32193 -0.4017,-0.641c-0.17094,-0.31907 -0.40454,-0.56408 -0.70083,-0.73501c-0.29628,-0.17663 -0.61821,-0.26495 -0.96578,-0.26495c-0.65524,0 -1.17659,0.24786 -1.56404,0.74356c-0.38745,0.49001 -0.58118,1.19653 -0.58118,2.11958c0,0.91735 0.18803,1.59823 0.56408,2.04266c0.38175,0.44443 0.89455,0.66664 1.5384,0.66664c0.91734,0 1.53271,-0.44443 1.84609,-1.33328c0.10825,-0.29629 0.21936,-0.48717 0.33332,-0.57263c0.11965,-0.08546 0.25355,-0.1282 0.40169,-0.1282zM249.53704,179.28638v2.65802c0,0.68374 -0.24785,1.02561 -0.74356,1.02561c-0.22791,0 -0.40455,-0.07122 -0.5299,-0.21366c-0.11965,-0.14814 -0.17948,-0.41879 -0.17948,-0.81194v-2.3247c0,-0.55268 -0.08832,-0.93159 -0.26495,-1.13671c-0.17663,-0.20512 -0.42164,-0.30768 -0.73502,-0.30768c-0.27919,0 -0.52134,0.07692 -0.72646,0.23076c-0.20512,0.15384 -0.35042,0.34187 -0.43589,0.56408c-0.08546,0.22222 -0.1282,0.61536 -0.1282,1.17944v1.69225c0,0.45583 -0.06552,0.75781 -0.19657,0.90595c-0.13105,0.14814 -0.31053,0.22222 -0.53844,0.22222c-0.22791,0 -0.40739,-0.07122 -0.53844,-0.21366c-0.12535,-0.14814 -0.18803,-0.44728 -0.18803,-0.89741v-5.78611c0,-0.35327 0.0171,-0.59827 0.05129,-0.73502c0.03419,-0.13675 0.11111,-0.24786 0.23076,-0.33332c0.12535,-0.09116 0.27065,-0.13675 0.43588,-0.13675c0.18233,0 0.33332,0.05128 0.45298,0.15384c0.12535,0.09686 0.20512,0.22507 0.2393,0.38461c0.03419,0.15954 0.05128,0.42163 0.05128,0.78629v1.72643c0.49001,-0.58687 1.08258,-0.88031 1.77772,-0.88031c0.58687,0 1.05979,0.18233 1.41875,0.54699c0.36466,0.35896 0.54699,0.92589 0.54699,1.70079zM254.65758,182.14098c-0.68943,0.55268 -1.36748,0.82903 -2.03412,0.82903c-0.63245,0 -1.11961,-0.15954 -1.46148,-0.47862c-0.33617,-0.32477 -0.50426,-0.71792 -0.50426,-1.17944c0,-0.39884 0.11396,-0.71792 0.34187,-0.95723c0.23361,-0.245 0.48431,-0.41594 0.75211,-0.5128c0.27349,-0.09686 0.71507,-0.20797 1.32474,-0.33332c0.60967,-0.12535 1.10252,-0.24216 1.47858,-0.35041c-0.0057,-0.44443 -0.09401,-0.74356 -0.26495,-0.8974c-0.17093,-0.15384 -0.43018,-0.23077 -0.77775,-0.23077c-0.66094,0 -1.09398,0.18518 -1.29909,0.55554c-0.11396,0.21082 -0.21652,0.36181 -0.30768,0.45297c-0.08546,0.08546 -0.21082,0.1282 -0.37606,0.1282c-0.15384,0 -0.29344,-0.04843 -0.41879,-0.14529c-0.12535,-0.10256 -0.18802,-0.23646 -0.18802,-0.4017c0,-0.37606 0.20512,-0.73217 0.61536,-1.06834c0.41024,-0.34187 1.05409,-0.5128 1.93156,-0.5128c0.88886,0 1.53841,0.15384 1.94864,0.46152c0.41594,0.30768 0.61251,0.92874 0.58972,1.86318l-0.03418,1.36747c-0.01139,0.42734 0.03133,0.7749 0.1282,1.0427c0.10256,0.2621 0.15384,0.46437 0.15384,0.60682c0,0.15384 -0.06838,0.29058 -0.20512,0.41024c-0.13105,0.11966 -0.28204,0.17948 -0.45298,0.17948c-0.29629,0 -0.60967,-0.27635 -0.94013,-0.82903zM254.56357,180.02995c-0.21651,0.08546 -0.57548,0.17948 -1.07689,0.28204c-0.50141,0.09686 -0.85752,0.21081 -1.06833,0.34186c-0.20512,0.12535 -0.30768,0.31338 -0.30768,0.56409c0,0.20512 0.08262,0.3903 0.24786,0.55553c0.16523,0.15954 0.40169,0.23931 0.70937,0.23931c0.31907,0 0.61536,-0.08831 0.88886,-0.26494c0.27919,-0.17663 0.45012,-0.38461 0.5128,-0.62391c0.06268,-0.245 0.09401,-0.60967 0.09401,-1.09398zM257.46624,181.75638v-3.7349c0,-0.65524 0.23931,-0.98287 0.71792,-0.98287c0.46152,0 0.69798,0.30199 0.70938,0.90595c0.30199,-0.60397 0.72077,-0.90595 1.25636,-0.90595c0.27919,0 0.56978,0.07407 0.87177,0.22222c0.30199,0.14814 0.45297,0.35042 0.45297,0.60682c0,0.17663 -0.06268,0.32477 -0.18803,0.44443c-0.11965,0.11395 -0.24785,0.17093 -0.3846,0.17093c-0.07977,0 -0.22222,-0.03133 -0.42733,-0.09401c-0.20512,-0.06268 -0.37606,-0.09402 -0.5128,-0.09402c-0.34757,0 -0.60682,0.17663 -0.77775,0.5299c-0.17093,0.34756 -0.2564,1.0256 -0.2564,2.03411v0.84612c0,0.37036 -0.01709,0.62106 -0.05128,0.75211c-0.02849,0.13105 -0.10826,0.25071 -0.23931,0.35896c-0.12535,0.10256 -0.27065,0.15384 -0.43588,0.15384c-0.16523,0 -0.31338,-0.04843 -0.44443,-0.1453c-0.12535,-0.09686 -0.20512,-0.20797 -0.2393,-0.33332c-0.03419,-0.13105 -0.05128,-0.37605 -0.05128,-0.73501zM262.63912,177.1668v-0.88031c0,-0.35896 0.01424,-0.60111 0.04273,-0.72647c0.03419,-0.13105 0.11396,-0.24786 0.23931,-0.35041c0.12535,-0.10256 0.2735,-0.15384 0.44443,-0.15384c0.15954,0 0.30199,0.04558 0.42733,0.13675c0.12535,0.09116 0.20797,0.20512 0.24785,0.34187c0.03988,0.13105 0.05983,0.34472 0.05983,0.641v0.99142h0.28204c0.35896,0 0.59542,0.04273 0.70937,0.1282c0.11965,0.08546 0.17948,0.21367 0.17948,0.3846c0,0.35896 -0.29913,0.53844 -0.8974,0.53844h-0.27349v2.69221c0,0.36466 0.02564,0.61251 0.07692,0.74356c0.05128,0.13105 0.18802,0.19657 0.41024,0.19657c0.10826,0 0.22792,-0.01425 0.35897,-0.04273c0.13674,-0.03418 0.23645,-0.05128 0.29913,-0.05128c0.14814,0 0.2678,0.04843 0.35896,0.14529c0.09116,0.09686 0.13675,0.21367 0.13675,0.35042c0,0.47861 -0.50426,0.71792 -1.51277,0.71792c-0.49001,0 -0.84897,-0.09117 -1.07688,-0.2735c-0.22791,-0.18233 -0.37036,-0.4017 -0.42733,-0.6581c-0.05697,-0.2621 -0.08547,-0.60396 -0.08547,-1.0256v-2.79477h-0.18803c-0.43303,0 -0.64955,-0.17663 -0.64955,-0.5299c0,-0.34756 0.22791,-0.52135 0.68374,-0.52135zM275.60552,179.67098c0.18803,0 0.35042,0.06552 0.48716,0.19657c0.14245,0.12535 0.21367,0.29059 0.21367,0.49571c0,0.55838 -0.28205,1.13386 -0.84613,1.72643c-0.56408,0.58687 -1.35892,0.88031 -2.38452,0.88031c-1.25922,0 -2.2022,-0.3903 -2.82896,-1.1709c-0.62106,-0.7806 -0.93159,-1.73783 -0.93159,-2.87169c0,-1.21933 0.34757,-2.19935 1.0427,-2.94006c0.69513,-0.74641 1.60109,-1.11962 2.71785,-1.11962c0.96863,0 1.74353,0.2678 2.3247,0.80339c0.58118,0.53559 0.87176,1.06264 0.87176,1.58114c0,0.16523 -0.06268,0.31907 -0.18803,0.46152c-0.12535,0.14245 -0.29629,0.21366 -0.5128,0.21366c-0.18803,0 -0.33332,-0.05128 -0.43588,-0.15384c-0.09687,-0.10825 -0.23076,-0.32193 -0.40169,-0.641c-0.17093,-0.31907 -0.40454,-0.56408 -0.70083,-0.73501c-0.29629,-0.17663 -0.61821,-0.26495 -0.96578,-0.26495c-0.65525,0 -1.1766,0.24786 -1.56405,0.74356c-0.38745,0.49001 -0.58117,1.19653 -0.58117,2.11958c0,0.91735 0.18803,1.59823 0.56408,2.04266c0.38175,0.44443 0.89456,0.66664 1.53841,0.66664c0.91735,0 1.5327,-0.44443 1.84608,-1.33328c0.10826,-0.29629 0.21937,-0.48717 0.33332,-0.57263c0.11965,-0.08546 0.25355,-0.1282 0.40169,-0.1282zM280.16518,177.03859c0.90595,0 1.61818,0.27919 2.13667,0.83758c0.5185,0.55268 0.77775,1.26207 0.77775,2.12813c0,0.86606 -0.2621,1.57828 -0.7863,2.13667c-0.5242,0.55268 -1.21932,0.82903 -2.08539,0.82903c-0.94013,0 -1.66661,-0.28204 -2.17941,-0.84612c-0.5128,-0.56408 -0.7692,-1.27061 -0.7692,-2.11958c0,-0.86606 0.25925,-1.57545 0.77775,-2.12813c0.5185,-0.55838 1.22788,-0.83758 2.12813,-0.83758zM280.16518,181.88457c0.44443,0 0.79484,-0.16524 1.05124,-0.49571c0.2564,-0.33617 0.3846,-0.79769 0.3846,-1.38456c0,-0.59257 -0.1282,-1.0541 -0.3846,-1.38457c-0.2564,-0.33617 -0.60681,-0.50426 -1.05124,-0.50426c-0.43303,0 -0.7806,0.16809 -1.0427,0.50426c-0.2564,0.33617 -0.3846,0.7977 -0.3846,1.38457c0,0.58687 0.1282,1.04839 0.3846,1.38456c0.2564,0.33047 0.60397,0.49571 1.0427,0.49571zM284.18319,180.79915v-2.56401c0,-0.31338 0.0114,-0.54129 0.03419,-0.68374c0.02849,-0.14245 0.10541,-0.2621 0.23076,-0.35896c0.12535,-0.10256 0.27919,-0.15384 0.46152,-0.15384c0.17093,0 0.31908,0.04843 0.44443,0.1453c0.13105,0.09686 0.21081,0.22506 0.23931,0.3846c0.03419,0.15384 0.05128,0.38745 0.05128,0.70083v2.00847c0,0.65524 0.10257,1.07689 0.30769,1.26492c0.20512,0.18233 0.43018,0.27349 0.67518,0.27349c0.27919,0 0.5242,-0.07692 0.73502,-0.23076c0.21651,-0.15954 0.36181,-0.35041 0.43588,-0.57263c0.07407,-0.22791 0.11111,-0.6695 0.11111,-1.32474v-1.45293c0,-0.30768 0.01424,-0.5356 0.04273,-0.68374c0.03419,-0.14814 0.11396,-0.27064 0.23931,-0.3675c0.13105,-0.09686 0.28489,-0.1453 0.46152,-0.1453c0.16523,0 0.31338,0.04843 0.44443,0.1453c0.13105,0.09686 0.20797,0.21651 0.23076,0.35896c0.02849,0.14245 0.04273,0.37321 0.04273,0.69229v3.6067c0,0.29629 -0.01424,0.50995 -0.04273,0.64101c-0.02849,0.13105 -0.09971,0.245 -0.21366,0.34186c-0.10826,0.09686 -0.24786,0.1453 -0.41879,0.1453c-0.47292,0 -0.70083,-0.33902 -0.68374,-1.01706c-0.48431,0.67804 -1.12532,1.01706 -1.923,1.01706c-0.5299,0 -0.98002,-0.15669 -1.35038,-0.47007c-0.37036,-0.31907 -0.55553,-0.88601 -0.55553,-1.70079zM290.82504,181.75638v-3.7349c0,-0.65524 0.23931,-0.98287 0.71792,-0.98287c0.46152,0 0.69798,0.30199 0.70937,0.90595c0.30199,-0.60397 0.72077,-0.90595 1.25636,-0.90595c0.27919,0 0.56978,0.07407 0.87177,0.22222c0.30199,0.14814 0.45298,0.35042 0.45298,0.60682c0,0.17663 -0.06268,0.32477 -0.18803,0.44443c-0.11965,0.11395 -0.24786,0.17093 -0.3846,0.17093c-0.07977,0 -0.22222,-0.03133 -0.42733,-0.09401c-0.20512,-0.06268 -0.37606,-0.09402 -0.5128,-0.09402c-0.34757,0 -0.60682,0.17663 -0.77775,0.5299c-0.17093,0.34756 -0.2564,1.0256 -0.2564,2.03411v0.84612c0,0.37036 -0.01709,0.62106 -0.05128,0.75211c-0.02849,0.13105 -0.10826,0.25071 -0.23931,0.35896c-0.12535,0.10256 -0.27065,0.15384 -0.43589,0.15384c-0.16523,0 -0.31338,-0.04843 -0.44442,-0.1453c-0.12535,-0.09686 -0.20512,-0.20797 -0.23931,-0.33332c-0.03419,-0.13105 -0.05128,-0.37605 -0.05128,-0.73501zM296.46372,178.55137c0,0.18802 0.09686,0.33618 0.29059,0.44443c0.19373,0.10825 0.63245,0.245 1.31619,0.41024c1.32189,0.32477 1.98283,0.87461 1.98283,1.64951c0,0.62106 -0.22506,1.09683 -0.67518,1.4273c-0.44443,0.32477 -1.06549,0.48716 -1.86318,0.48716c-0.81479,0 -1.4273,-0.16809 -1.83754,-0.50426c-0.41024,-0.33617 -0.61536,-0.69228 -0.61536,-1.06834c0,-0.15954 0.05698,-0.29629 0.17093,-0.41024c0.11396,-0.11395 0.25355,-0.17093 0.41879,-0.17093c0.22791,0 0.42734,0.14245 0.59827,0.42734c0.19373,0.31338 0.40454,0.52134 0.63245,0.6239c0.23361,0.10256 0.48146,0.15384 0.74356,0.15384c0.29629,0 0.53559,-0.06552 0.71792,-0.19657c0.18233,-0.13105 0.27349,-0.29628 0.27349,-0.49571c0,-0.18233 -0.07692,-0.33902 -0.23076,-0.47007c-0.15384,-0.13105 -0.57832,-0.27634 -1.27345,-0.43588c-0.68943,-0.15954 -1.19369,-0.38175 -1.51277,-0.66664c-0.31907,-0.29059 -0.47862,-0.63245 -0.47862,-1.0256c0,-0.44443 0.19373,-0.83758 0.58118,-1.17944c0.38745,-0.34187 0.96863,-0.5128 1.74353,-0.5128c0.70652,0 1.26776,0.14529 1.6837,0.43588c0.42164,0.28489 0.63245,0.58118 0.63245,0.88886c0,0.16523 -0.05413,0.30483 -0.16239,0.41879c-0.10256,0.11395 -0.24786,0.17093 -0.43589,0.17093c-0.28489,0 -0.54129,-0.16239 -0.7692,-0.48716c-0.22222,-0.32477 -0.56123,-0.48717 -1.01705,-0.48717c-0.245,0 -0.45867,0.05129 -0.64101,0.15385c-0.18233,0.09686 -0.27349,0.23645 -0.27349,0.41878zM305.35015,180.36327h-2.86315c0.0171,0.54129 0.16524,0.94868 0.44443,1.22217c0.28489,0.2735 0.62676,0.41024 1.0256,0.41024c0.48431,0 0.94299,-0.21366 1.37602,-0.641c0.17663,-0.17663 0.30483,-0.28489 0.3846,-0.32477c0.08546,-0.04559 0.17948,-0.06837 0.28204,-0.06837c0.13105,0 0.24216,0.04274 0.33332,0.1282c0.09687,0.07977 0.14529,0.17947 0.14529,0.29913c0,0.33047 -0.22506,0.67804 -0.67519,1.0427c-0.44443,0.35896 -1.05124,0.53844 -1.82045,0.53844c-0.97432,0 -1.71504,-0.27635 -2.22214,-0.82903c-0.50141,-0.55268 -0.75211,-1.2649 -0.75211,-2.13667c0,-0.88316 0.2507,-1.59823 0.75211,-2.14522c0.5071,-0.54699 1.21078,-0.82049 2.11103,-0.82049c0.85467,0 1.51561,0.25925 1.98283,0.77775c0.46722,0.5128 0.70083,1.07118 0.70083,1.67515c0,0.26779 -0.07692,0.48147 -0.23076,0.64101c-0.15384,0.15384 -0.47861,0.23076 -0.97432,0.23076zM302.487,179.53424h2.65802c-0.0171,-0.48431 -0.15099,-0.85467 -0.40169,-1.11107c-0.25071,-0.2564 -0.55838,-0.3846 -0.92304,-0.3846c-0.7749,0 -1.21933,0.49855 -1.33328,1.49567z"/></g></g></svg>