<svg version="1.1" xmlns="http://www.w3.org/2000/svg" xmlns:xlink="http://www.w3.org/1999/xlink" width="42.00001" height="44.75" viewBox="0,0,42.00001,44.75"><g transform="translate(-218.99999,-157.375)"><g data-paper-data="{&quot;isPaintingLayer&quot;:true}" fill-rule="nonzero" stroke-linejoin="miter" stroke-miterlimit="10" stroke-dasharray="" stroke-dashoffset="0" style="mix-blend-mode: normal"><path d="M220.75,198.625c0,-4.52692 0,-13.87508 0,-21.71429c0,-5.71431 0,-10.62682 0,-12.28571c0,-1.20083 0.92773,-2.25 2.10715,-2.25c0.29955,0 24.80203,0 33.42857,0c1.84541,0 2.96429,0.88986 2.96429,2.39286c0,7.55799 0,30.62036 0,34c0,1.1323 -0.88963,2.10714 -2.39285,2.10714c-7.38781,0 -29.59614,0 -33.85715,0c-1.40226,0 -2.25,-0.48893 -2.25,-2.25z" fill="#5b5b5b" stroke="#5b5b5b" stroke-width="2.5" stroke-linecap="butt"/><path d="M220.74999,195.375c0,-4.52692 0,-13.87508 0,-21.71429c0,-5.71431 0,-10.62682 0,-12.28571c0,-1.20083 0.92773,-2.25 2.10715,-2.25c0.29955,0 24.80203,0 33.42857,0c1.84541,0 2.96429,0.88986 2.96429,2.39286c0,7.55799 0,30.62036 0,34c0,1.1323 -0.88963,2.10714 -2.39285,2.10714c-7.38781,0 -29.59614,0 -33.85715,0c-1.40226,0 -2.25,-0.48893 -2.25,-2.25z" fill="#969696" stroke="#404040" stroke-width="3.5" stroke-linecap="butt"/><path d="M225.42856,191.08929c0,-5.74743 0,-22.10314 0,-25.28571c0,-1.04926 0.87738,-2 1.85714,-2c2.94835,0 18.03553,0 24.14286,0c1.59006,0 2.57143,1.12021 2.57143,2.42857c0,3.42127 0,18.96827 0,24.71429c0,0.77956 -0.31373,1.37872 -0.87409,1.74272c-0.4004,0.2601 -0.92672,0.40013 -1.55448,0.40013c-6.09762,0 -21.76599,0 -24.57143,0c-0.844,0 -1.57143,-0.74851 -1.57143,-2z" fill="#bdbdbd" stroke="#404040" stroke-width="0" stroke-linecap="butt"/><path d="M241.43435,183.494h-5.35291c-0.96609,0 -1.61671,-0.03943 -1.95189,-0.11829c-0.33518,-0.09859 -0.63092,-0.32532 -0.88722,-0.6802c-0.23659,-0.37461 -0.35489,-0.74922 -0.35489,-1.12381c0,-0.27603 0.07887,-0.54219 0.23659,-0.7985c0.15774,-0.27603 0.47318,-0.72949 0.94637,-1.36041l6.50629,-8.72435c0.47319,-0.63092 0.84779,-1.06466 1.12381,-1.30125c0.27603,-0.23659 0.62106,-0.35489 1.03509,-0.35489c0.43375,0 0.80836,0.13801 1.12381,0.41403c0.31545,0.25631 0.50276,0.5422 0.5619,0.85765c0.05915,0.31545 0.08872,0.87736 0.08872,1.68572v8.75393h0.53233c1.02523,0 1.62657,0.17745 1.80402,0.53233c0.17745,0.35489 0.26617,0.64077 0.26617,0.85764c0,0.90693 -0.62106,1.36041 -1.86317,1.36041h-0.73935v1.597c0,0.67035 -0.02958,1.15338 -0.08872,1.44912c-0.05915,0.29574 -0.22673,0.55205 -0.50276,0.76893c-0.27603,0.21688 -0.59148,0.32531 -0.94637,0.32531c-0.35489,0 -0.6802,-0.09859 -0.97594,-0.29574c-0.27603,-0.19716 -0.44361,-0.45347 -0.50276,-0.76892c-0.03943,-0.31545 -0.05915,-0.80836 -0.05915,-1.4787zM236.14058,180.74361h5.29376v-7.1865z" fill="#2d2d2d" stroke="none" stroke-width="1" stroke-linecap="square"/></g></g></svg>