<svg version="1.1" xmlns="http://www.w3.org/2000/svg" xmlns:xlink="http://www.w3.org/1999/xlink" width="51.5" height="51.5" viewBox="0,0,51.5,51.5"><g transform="translate(-211.75,-150.95001)"><g data-paper-data="{&quot;isPaintingLayer&quot;:true}" fill-rule="nonzero" stroke-linecap="butt" stroke-linejoin="miter" stroke-miterlimit="10" stroke-dasharray="" stroke-dashoffset="0" style="mix-blend-mode: normal"><path d="M224.375,180.00003c0,-8.62945 6.99555,-15.625 15.625,-15.625c8.62945,0 15.625,6.99555 15.625,15.625c0,8.62945 -6.99555,15.625 -15.625,15.625c-8.62945,0 -15.625,-6.99555 -15.625,-15.625z" fill="#e7e7e7" stroke="#000000" stroke-width="7.5"/><path d="M224.375,180.00003c0,-8.62945 6.99555,-15.625 15.625,-15.625c8.62945,0 15.625,6.99555 15.625,15.625c0,8.62945 -6.99555,15.625 -15.625,15.625c-8.62945,0 -15.625,-6.99555 -15.625,-15.625z" fill="#f07173" stroke="#f07173" stroke-width="3.5"/><path d="M211.75,202.45001v-51.5h51.5v51.5z" fill="none" stroke="none" stroke-width="0"/><g fill="#ffffff" stroke="none" stroke-width="0"><path d="M234.46983,183.61588l6.48732,-15.95242l0.8508,11.48574z"/><path d="M245.53017,176.38412l-6.48732,15.95242l-0.8508,-11.48574z" data-paper-data="{&quot;index&quot;:null}"/></g><path d="M223.3125,180c0,-9.21625 7.47125,-16.6875 16.6875,-16.6875c9.21625,0 16.6875,7.47125 16.6875,16.6875c0,9.21625 -7.47125,16.6875 -16.6875,16.6875c-9.21625,0 -16.6875,-7.47125 -16.6875,-16.6875z" fill="none" stroke="#cd3400" stroke-width="2"/></g></g></svg>