<svg version="1.1" xmlns="http://www.w3.org/2000/svg" xmlns:xlink="http://www.w3.org/1999/xlink" width="138.68501" height="8.10231" viewBox="0,0,138.68501,8.10231"><g transform="translate(-170.65751,-175.94886)"><g data-paper-data="{&quot;isPaintingLayer&quot;:true}" fill="#12ff00" fill-rule="nonzero" stroke="none" stroke-width="1" stroke-linecap="square" stroke-linejoin="miter" stroke-miterlimit="10" stroke-dasharray="" stroke-dashoffset="0" style="mix-blend-mode: normal"><path d="M172.23009,180.56408v2.17086c0,0.30768 -0.01424,0.54414 -0.04273,0.70937c-0.02279,0.15954 -0.09401,0.30199 -0.21367,0.42733c-0.11965,0.11965 -0.30483,0.17948 -0.55553,0.17948c-0.23361,0 -0.41879,-0.07977 -0.55553,-0.23931c-0.13674,-0.15954 -0.20512,-0.5185 -0.20512,-1.07689v-5.32459c0,-0.45583 0.03133,-0.76065 0.09401,-0.91449c0.06838,-0.15954 0.18233,-0.2678 0.34187,-0.32478c0.16523,-0.05697 0.46152,-0.08546 0.88886,-0.08546h2.21359c0.60967,0 1.10252,0.06268 1.47857,0.18803c0.38175,0.11965 0.70368,0.35897 0.96578,0.71793c0.2621,0.35326 0.39315,0.77205 0.39315,1.25636c0,1.15666 -0.66379,1.86603 -1.99138,2.12813c0.5299,0.29059 1.01705,0.81194 1.46149,1.56404c0.45013,0.75211 0.67519,1.24212 0.67519,1.47003c0,0.16523 -0.07407,0.31338 -0.22222,0.44443c-0.14814,0.13105 -0.33332,0.19657 -0.55553,0.19657c-0.16523,0 -0.31907,-0.05128 -0.46152,-0.15384c-0.14245,-0.10256 -0.35611,-0.3903 -0.641,-0.86321l-0.64955,-1.05124c-0.36466,-0.60967 -0.67234,-0.99712 -0.92305,-1.16235c-0.245,-0.17093 -0.55838,-0.2564 -0.94013,-0.2564zM173.70867,177.30779h-1.47858v2.12813h1.42729c0.66664,0 1.12816,-0.09402 1.38457,-0.28204c0.2564,-0.19373 0.3846,-0.46722 0.3846,-0.82048c0,-0.2564 -0.07406,-0.47007 -0.22221,-0.641c-0.14814,-0.17093 -0.31623,-0.27635 -0.50426,-0.31623c-0.18233,-0.04558 -0.51281,-0.06837 -0.99142,-0.06837zM182.21904,181.44439h-2.86314c0.0171,0.54129 0.16523,0.94869 0.44442,1.22218c0.28489,0.27349 0.62676,0.41024 1.0256,0.41024c0.48431,0 0.94299,-0.21367 1.37602,-0.64101c0.17663,-0.17663 0.30483,-0.28489 0.3846,-0.32477c0.08546,-0.04558 0.17948,-0.06837 0.28204,-0.06837c0.13105,0 0.24215,0.04273 0.33332,0.1282c0.09687,0.07977 0.1453,0.17948 0.1453,0.29914c0,0.33047 -0.22506,0.67803 -0.67519,1.04269c-0.44443,0.35896 -1.05124,0.53844 -1.82045,0.53844c-0.97432,0 -1.71504,-0.27634 -2.22214,-0.82903c-0.50141,-0.55268 -0.75211,-1.26491 -0.75211,-2.13667c0,-0.88316 0.25071,-1.59823 0.75211,-2.14522c0.5071,-0.54699 1.21078,-0.82048 2.11103,-0.82048c0.85467,0 1.51561,0.25924 1.98283,0.77774c0.46722,0.5128 0.70083,1.07119 0.70083,1.67516c0,0.2678 -0.07692,0.48146 -0.23076,0.641c-0.15384,0.15384 -0.47861,0.23076 -0.97432,0.23076zM179.35589,180.61536h2.65802c-0.0171,-0.48431 -0.15099,-0.85467 -0.4017,-1.11107c-0.25071,-0.2564 -0.55838,-0.3846 -0.92304,-0.3846c-0.7749,0 -1.21933,0.49856 -1.33328,1.49567zM188.33527,183.22211c-0.68943,0.55268 -1.36747,0.82903 -2.03411,0.82903c-0.63245,0 -1.11961,-0.15954 -1.46148,-0.47861c-0.33617,-0.32477 -0.50426,-0.71792 -0.50426,-1.17944c0,-0.39884 0.11396,-0.71793 0.34187,-0.95723c0.23361,-0.245 0.48431,-0.41593 0.75211,-0.5128c0.27349,-0.09687 0.71507,-0.20798 1.32474,-0.33333c0.60967,-0.12535 1.10252,-0.24216 1.47858,-0.35041c-0.0057,-0.44443 -0.09401,-0.74356 -0.26495,-0.8974c-0.17093,-0.15384 -0.43018,-0.23076 -0.77775,-0.23076c-0.66094,0 -1.09398,0.18518 -1.29909,0.55554c-0.11396,0.21081 -0.21652,0.36181 -0.30768,0.45297c-0.08546,0.08546 -0.21082,0.1282 -0.37605,0.1282c-0.15384,0 -0.29344,-0.04843 -0.41879,-0.14529c-0.12535,-0.10256 -0.18802,-0.23646 -0.18802,-0.4017c0,-0.37606 0.20512,-0.73216 0.61536,-1.06833c0.41024,-0.34187 1.05409,-0.5128 1.93155,-0.5128c0.88886,0 1.53841,0.15384 1.94864,0.46152c0.41594,0.30768 0.61251,0.92874 0.58972,1.86318l-0.03419,1.36747c-0.01139,0.42733 0.03134,0.7749 0.12821,1.04269c0.10256,0.2621 0.15384,0.46437 0.15384,0.60682c0,0.15384 -0.06838,0.29058 -0.20512,0.41024c-0.13105,0.11965 -0.28204,0.17948 -0.45298,0.17948c-0.29629,0 -0.60967,-0.27634 -0.94014,-0.82903zM188.24126,181.11107c-0.21651,0.08546 -0.57548,0.17948 -1.07688,0.28204c-0.50141,0.09687 -0.85752,0.21082 -1.06834,0.34187c-0.20512,0.12535 -0.30768,0.31337 -0.30768,0.56408c0,0.20512 0.08262,0.3903 0.24785,0.55553c0.16523,0.15954 0.4017,0.23931 0.70938,0.23931c0.31907,0 0.61536,-0.08831 0.88886,-0.26494c0.27919,-0.17663 0.45012,-0.3846 0.5128,-0.62391c0.06268,-0.245 0.09401,-0.60967 0.09401,-1.09398zM195.76769,181.60678c0.17663,0 0.32192,0.07122 0.43588,0.21367c0.11965,0.13674 0.17948,0.27634 0.17948,0.41879c0,0.39884 -0.23646,0.80053 -0.70937,1.20508c-0.47292,0.40455 -1.10823,0.60682 -1.90592,0.60682c-0.95723,0 -1.68084,-0.27065 -2.17085,-0.81194c-0.48431,-0.54699 -0.72647,-1.25636 -0.72647,-2.12812c0,-0.87746 0.25355,-1.59538 0.76066,-2.15377c0.5071,-0.55838 1.22788,-0.83757 2.16232,-0.83757c0.72362,0 1.32189,0.19087 1.7948,0.57262c0.47861,0.37606 0.71792,0.74926 0.71792,1.11962c0,0.17663 -0.06553,0.32477 -0.19657,0.44443c-0.12535,0.11965 -0.27349,0.17948 -0.44442,0.17948c-0.21651,0 -0.3846,-0.09116 -0.50426,-0.27349c-0.2678,-0.40455 -0.50426,-0.66094 -0.70938,-0.7692c-0.20512,-0.10826 -0.42734,-0.16239 -0.66664,-0.16239c-0.46722,0 -0.82903,0.17948 -1.08543,0.53844c-0.25071,0.35326 -0.37606,0.7977 -0.37606,1.33329c0,0.54699 0.13105,0.99426 0.39315,1.34183c0.2678,0.34757 0.6239,0.52134 1.06833,0.52134c0.25071,0 0.48147,-0.05983 0.69228,-0.17948c0.21651,-0.11965 0.40169,-0.29913 0.55553,-0.53844c0.15384,-0.245 0.27634,-0.41309 0.36751,-0.50426c0.09116,-0.09116 0.21367,-0.13675 0.36751,-0.13675zM197.8926,178.24793v-0.88031c0,-0.35896 0.01424,-0.60112 0.04273,-0.72647c0.03419,-0.13105 0.11396,-0.24785 0.23931,-0.35041c0.12535,-0.10256 0.2735,-0.15384 0.44443,-0.15384c0.15954,0 0.30199,0.04558 0.42733,0.13674c0.12535,0.09116 0.20797,0.20513 0.24785,0.34187c0.03988,0.13105 0.05983,0.34471 0.05983,0.641v0.99142h0.28204c0.35896,0 0.59542,0.04273 0.70937,0.1282c0.11965,0.08546 0.17948,0.21367 0.17948,0.3846c0,0.35896 -0.29913,0.53844 -0.8974,0.53844h-0.27349v2.69221c0,0.36466 0.02564,0.61251 0.07692,0.74356c0.05128,0.13105 0.18802,0.19657 0.41024,0.19657c0.10826,0 0.22791,-0.01424 0.35896,-0.04273c0.13674,-0.03419 0.23646,-0.05128 0.29914,-0.05128c0.14814,0 0.2678,0.04843 0.35896,0.1453c0.09116,0.09687 0.13675,0.21367 0.13675,0.35041c0,0.47861 -0.50426,0.71792 -1.51277,0.71792c-0.49001,0 -0.84897,-0.09116 -1.07689,-0.27349c-0.22791,-0.18233 -0.37036,-0.4017 -0.42733,-0.6581c-0.05697,-0.2621 -0.08546,-0.60396 -0.08546,-1.0256v-2.79477h-0.18803c-0.43303,0 -0.64954,-0.17663 -0.64954,-0.5299c0,-0.34757 0.22791,-0.52134 0.68373,-0.52134zM204.07293,178.11973c0.90595,0 1.61817,0.27919 2.13667,0.83757c0.5185,0.55268 0.77775,1.26206 0.77775,2.12813c0,0.86606 -0.26209,1.57829 -0.78629,2.13667c-0.5242,0.55268 -1.21933,0.82903 -2.08539,0.82903c-0.94013,0 -1.66661,-0.28204 -2.17941,-0.84612c-0.5128,-0.56408 -0.7692,-1.27061 -0.7692,-2.11958c0,-0.86606 0.25925,-1.57544 0.77775,-2.12813c0.5185,-0.55838 1.22788,-0.83757 2.12813,-0.83757zM204.07293,182.9657c0.44443,0 0.79484,-0.16523 1.05124,-0.4957c0.2564,-0.33617 0.38461,-0.7977 0.38461,-1.38457c0,-0.59257 -0.12821,-1.0541 -0.38461,-1.38457c-0.2564,-0.33617 -0.60681,-0.50426 -1.05124,-0.50426c-0.43303,0 -0.7806,0.16808 -1.0427,0.50426c-0.2564,0.33617 -0.3846,0.7977 -0.3846,1.38457c0,0.58687 0.1282,1.04839 0.3846,1.38457c0.2564,0.33047 0.60397,0.4957 1.0427,0.4957zM208.12513,182.8375v-3.7349c0,-0.65525 0.23931,-0.98287 0.71792,-0.98287c0.46152,0 0.69799,0.30198 0.70938,0.90595c0.30199,-0.60396 0.72077,-0.90595 1.25636,-0.90595c0.27919,0 0.56978,0.07406 0.87176,0.22221c0.30199,0.14814 0.45298,0.35041 0.45298,0.60682c0,0.17663 -0.06268,0.32477 -0.18803,0.44443c-0.11965,0.11396 -0.24786,0.17094 -0.3846,0.17094c-0.07977,0 -0.22222,-0.03134 -0.42733,-0.09402c-0.20512,-0.06268 -0.37606,-0.09401 -0.5128,-0.09401c-0.34757,0 -0.60682,0.17663 -0.77775,0.52989c-0.17093,0.34757 -0.2564,1.02561 -0.2564,2.03412v0.84612c0,0.37036 -0.01709,0.62106 -0.05128,0.75211c-0.02849,0.13105 -0.10826,0.2507 -0.23931,0.35896c-0.12535,0.10256 -0.27065,0.15384 -0.43588,0.15384c-0.16523,0 -0.31338,-0.04842 -0.44443,-0.14529c-0.12535,-0.09687 -0.20512,-0.20798 -0.23931,-0.33333c-0.03419,-0.13105 -0.05128,-0.37606 -0.05128,-0.73502zM213.74672,178.11973c0.21651,0 0.4017,0.07977 0.55554,0.23931c0.15954,0.15384 0.23931,0.33902 0.23931,0.55553c0,0.22222 -0.07977,0.41309 -0.23931,0.57263c-0.15384,0.15954 -0.33902,0.23931 -0.55554,0.23931c-0.22222,0 -0.41309,-0.07977 -0.57262,-0.23931c-0.15954,-0.15954 -0.23931,-0.35041 -0.23931,-0.57263c0,-0.21651 0.07977,-0.40169 0.23931,-0.55553c0.15954,-0.15954 0.35041,-0.23931 0.57262,-0.23931zM213.74672,182.43581c0.21651,0 0.4017,0.07978 0.55554,0.23931c0.15954,0.15384 0.23931,0.34186 0.23931,0.56408c0,0.21651 -0.07977,0.4074 -0.23931,0.57263c-0.15384,0.15954 -0.33902,0.23931 -0.55554,0.23931c-0.22222,0 -0.41309,-0.07977 -0.57262,-0.23931c-0.15954,-0.15954 -0.23931,-0.35041 -0.23931,-0.57263c0,-0.22222 0.07977,-0.41024 0.23931,-0.56408c0.15954,-0.15954 0.35041,-0.23931 0.57262,-0.23931zM221.14494,177.26506v3.4956c0,0.7806 0.15384,1.31334 0.46152,1.59823c0.30768,0.28489 0.73217,0.42733 1.27346,0.42733c0.5299,0 0.94583,-0.14245 1.24782,-0.42733c0.30199,-0.29059 0.45297,-0.81194 0.45297,-1.56404v-3.52978c0,-0.35896 0.0114,-0.60967 0.03419,-0.75211c0.02279,-0.14245 0.10256,-0.27064 0.23931,-0.3846c0.13674,-0.11965 0.30199,-0.17948 0.49571,-0.17948c0.18233,0 0.34472,0.05413 0.48716,0.16239c0.14814,0.10826 0.23646,0.23931 0.26495,0.39315c0.03419,0.14814 0.05128,0.4017 0.05128,0.76066v3.41013c0,0.88316 -0.11965,1.5498 -0.35896,1.99993c-0.23931,0.45013 -0.59542,0.79199 -1.06834,1.0256c-0.46722,0.23361 -1.04555,0.35041 -1.73497,0.35041c-1.19084,0 -2.05976,-0.25355 -2.60675,-0.76066c-0.54699,-0.5128 -0.82048,-1.38456 -0.82048,-2.61528v-3.41013c0,-0.35896 0.01424,-0.60682 0.04273,-0.74357c0.02849,-0.14245 0.11111,-0.27349 0.24785,-0.39314c0.13674,-0.11965 0.30199,-0.17948 0.49571,-0.17948c0.19373,0 0.35897,0.05413 0.49571,0.16239c0.14245,0.10826 0.22791,0.23931 0.2564,0.39315c0.02849,0.14814 0.04273,0.4017 0.04273,0.76066zM232.90948,180.44443v2.39307c0,0.31338 -0.01425,0.54129 -0.04274,0.68373c-0.02279,0.13674 -0.09971,0.25925 -0.23076,0.36751c-0.12535,0.10826 -0.2735,0.16239 -0.44443,0.16239c-0.15954,0 -0.30769,-0.04842 -0.44443,-0.14529c-0.13106,-0.09687 -0.21367,-0.21937 -0.24785,-0.36751c-0.03419,-0.15384 -0.05128,-0.38745 -0.05128,-0.70083v-2.09394c0,-0.58687 -0.08832,-0.98002 -0.26495,-1.17944c-0.17093,-0.20512 -0.41024,-0.30768 -0.71792,-0.30768c-0.27349,0 -0.51565,0.07977 -0.72647,0.23931c-0.21081,0.15954 -0.35897,0.36181 -0.44443,0.60682c-0.08546,0.23931 -0.1282,0.64955 -0.1282,1.23072v1.50422c0,0.30768 -0.0114,0.53274 -0.03419,0.67519c-0.02279,0.13674 -0.09971,0.2621 -0.23076,0.37606c-0.13105,0.10826 -0.28204,0.16239 -0.45298,0.16239c-0.16523,0 -0.31623,-0.04842 -0.45297,-0.14529c-0.13105,-0.10256 -0.21082,-0.22507 -0.23931,-0.36751c-0.02849,-0.14814 -0.04273,-0.38175 -0.04273,-0.70083v-3.58961c0,-0.32477 0.01424,-0.54984 0.04273,-0.67519c0.03419,-0.13105 0.11111,-0.23931 0.23077,-0.32477c0.12535,-0.08546 0.26494,-0.1282 0.41878,-0.1282c0.14245,0 0.29059,0.05697 0.44443,0.17093c0.15384,0.10826 0.23076,0.37891 0.23076,0.81194c0.49001,-0.65525 1.11676,-0.98287 1.88027,-0.98287c0.29059,0 0.57833,0.05697 0.86322,0.17093c0.28489,0.10826 0.51565,0.28489 0.69228,0.5299c0.18233,0.245 0.29344,0.50141 0.33332,0.7692c0.03988,0.2678 0.05983,0.55268 0.05983,0.85467zM235.8335,177.15395v5.68355c0,0.35326 -0.0171,0.59542 -0.05128,0.72647c-0.02849,0.12535 -0.11111,0.23931 -0.24785,0.34187c-0.13105,0.09687 -0.27349,0.14529 -0.42733,0.14529c-0.15384,0 -0.29914,-0.04842 -0.43588,-0.14529c-0.13674,-0.10256 -0.22222,-0.21937 -0.2564,-0.35041c-0.02849,-0.13105 -0.04273,-0.37036 -0.04273,-0.71793v-5.68355c0,-0.35896 0.01709,-0.60112 0.05128,-0.72647c0.03419,-0.13105 0.11681,-0.24216 0.24786,-0.33333c0.13105,-0.09687 0.27349,-0.14529 0.42733,-0.14529c0.17663,0 0.32762,0.05128 0.45297,0.15384c0.13105,0.10256 0.21081,0.22222 0.23931,0.35896c0.02849,0.13674 0.04274,0.36751 0.04274,0.69228zM239.88357,178.11973c0.90595,0 1.61817,0.27919 2.13667,0.83757c0.5185,0.55268 0.77775,1.26206 0.77775,2.12813c0,0.86606 -0.26209,1.57829 -0.78629,2.13667c-0.5242,0.55268 -1.21933,0.82903 -2.0854,0.82903c-0.94013,0 -1.66661,-0.28204 -2.17941,-0.84612c-0.5128,-0.56408 -0.7692,-1.27061 -0.7692,-2.11958c0,-0.86606 0.25925,-1.57544 0.77775,-2.12813c0.5185,-0.55838 1.22788,-0.83757 2.12813,-0.83757zM239.88357,182.9657c0.44443,0 0.79484,-0.16523 1.05124,-0.4957c0.2564,-0.33617 0.3846,-0.7977 0.3846,-1.38457c0,-0.59257 -0.1282,-1.0541 -0.3846,-1.38457c-0.2564,-0.33617 -0.60681,-0.50426 -1.05124,-0.50426c-0.43303,0 -0.7806,0.16808 -1.0427,0.50426c-0.2564,0.33617 -0.3846,0.7977 -0.3846,1.38457c0,0.58687 0.1282,1.04839 0.3846,1.38457c0.2564,0.33047 0.60397,0.4957 1.0427,0.4957zM248.55954,181.60678c0.17663,0 0.32192,0.07122 0.43588,0.21367c0.11965,0.13674 0.17948,0.27634 0.17948,0.41879c0,0.39884 -0.23646,0.80053 -0.70937,1.20508c-0.47292,0.40455 -1.10822,0.60682 -1.90591,0.60682c-0.95723,0 -1.68085,-0.27065 -2.17086,-0.81194c-0.48431,-0.54699 -0.72647,-1.25636 -0.72647,-2.12812c0,-0.87746 0.25355,-1.59538 0.76065,-2.15377c0.5071,-0.55838 1.22788,-0.83757 2.16232,-0.83757c0.72362,0 1.32189,0.19087 1.7948,0.57262c0.47861,0.37606 0.71792,0.74926 0.71792,1.11962c0,0.17663 -0.06553,0.32477 -0.19658,0.44443c-0.12535,0.11965 -0.27349,0.17948 -0.44442,0.17948c-0.21651,0 -0.3846,-0.09116 -0.50426,-0.27349c-0.2678,-0.40455 -0.50426,-0.66094 -0.70937,-0.7692c-0.20512,-0.10826 -0.42734,-0.16239 -0.66664,-0.16239c-0.46722,0 -0.82903,0.17948 -1.08543,0.53844c-0.25071,0.35326 -0.37605,0.7977 -0.37605,1.33329c0,0.54699 0.13105,0.99426 0.39315,1.34183c0.2678,0.34757 0.62391,0.52134 1.06834,0.52134c0.25071,0 0.48147,-0.05983 0.69228,-0.17948c0.21651,-0.11965 0.40169,-0.29913 0.55553,-0.53844c0.15384,-0.245 0.27634,-0.41309 0.3675,-0.50426c0.09116,-0.09116 0.21367,-0.13675 0.36751,-0.13675zM252.37883,181.26491l-0.80339,0.74357v0.71792c0,0.35326 -0.0114,0.60682 -0.03419,0.76066c-0.02279,0.14814 -0.10256,0.27919 -0.23931,0.39315c-0.13105,0.11396 -0.2849,0.17093 -0.46152,0.17093c-0.15954,0 -0.30483,-0.04842 -0.43588,-0.14529c-0.13105,-0.10256 -0.21081,-0.21937 -0.23931,-0.35041c-0.02849,-0.13674 -0.04273,-0.3903 -0.04273,-0.76066v-5.57244c0,-0.5299 0.06268,-0.87462 0.18803,-1.03415c0.13105,-0.15954 0.32192,-0.23931 0.57263,-0.23931c0.18233,0 0.32762,0.05128 0.43588,0.15384c0.11396,0.10256 0.18518,0.22791 0.21367,0.37606c0.02849,0.14814 0.04273,0.38175 0.04273,0.70082v3.21356l1.64952,-1.70934c0.25071,-0.2621 0.42164,-0.42164 0.5128,-0.47861c0.09687,-0.05697 0.20797,-0.08546 0.33332,-0.08546c0.18803,0 0.34187,0.05982 0.46153,0.17948c0.11965,0.11965 0.17948,0.2507 0.17948,0.39315c0,0.21651 -0.19942,0.5128 -0.59827,0.88886l-0.7692,0.70938l1.48712,2.35034c0.21651,0.34187 0.32477,0.58687 0.32477,0.73502c0,0.17093 -0.06267,0.32762 -0.18802,0.47007c-0.12535,0.13674 -0.29344,0.20512 -0.50426,0.20512c-0.17663,0 -0.32192,-0.05128 -0.43588,-0.15384c-0.10826,-0.10826 -0.23361,-0.28204 -0.37606,-0.52134zM261.05159,177.74368v5.07674c0,0.32477 -0.0171,0.55553 -0.05129,0.69228c-0.02849,0.13674 -0.10825,0.2621 -0.23931,0.37606c-0.12535,0.10826 -0.27634,0.16239 -0.45297,0.16239c-0.17663,0 -0.33047,-0.05128 -0.46152,-0.15384c-0.13105,-0.10256 -0.21082,-0.22222 -0.23931,-0.35896c-0.02279,-0.14245 -0.03419,-0.38175 -0.03419,-0.71792v-5.68355c0,-0.34757 0.05982,-0.60967 0.17948,-0.7863c0.12535,-0.17663 0.39884,-0.26495 0.82049,-0.26495h0.47861c0.42164,0 0.68943,0.05698 0.80338,0.17094c0.11966,0.11396 0.24216,0.40454 0.36751,0.87176l1.13671,4.29044l1.12817,-4.29044c0.11966,-0.46152 0.23646,-0.74926 0.35041,-0.86321c0.11966,-0.11965 0.39315,-0.17948 0.82048,-0.17948h0.47862c0.37036,0 0.6296,0.07122 0.77775,0.21367c0.14814,0.14245 0.22221,0.42164 0.22221,0.83758v5.68355c0,0.33617 -0.01424,0.56977 -0.04273,0.70082c-0.02279,0.13105 -0.09971,0.25356 -0.23076,0.36751c-0.13105,0.10826 -0.28774,0.16239 -0.47007,0.16239c-0.15384,0 -0.29913,-0.04558 -0.43588,-0.13674c-0.13105,-0.09116 -0.21367,-0.20797 -0.24786,-0.35041c-0.03418,-0.14814 -0.05128,-0.39599 -0.05128,-0.74356v-5.07674l-1.23927,4.99126c-0.14814,0.59827 -0.29913,0.96863 -0.45297,1.11107c-0.14814,0.13674 -0.35042,0.20512 -0.60682,0.20512c-0.30199,0 -0.5242,-0.08547 -0.66664,-0.2564c-0.13675,-0.17093 -0.2735,-0.5242 -0.41024,-1.05979zM272.34389,183.22211c-0.68943,0.55268 -1.36748,0.82903 -2.03411,0.82903c-0.63245,0 -1.11962,-0.15954 -1.46148,-0.47861c-0.33617,-0.32477 -0.50426,-0.71792 -0.50426,-1.17944c0,-0.39884 0.11396,-0.71793 0.34187,-0.95723c0.23361,-0.245 0.48432,-0.41593 0.75211,-0.5128c0.2735,-0.09687 0.71507,-0.20798 1.32473,-0.33333c0.60967,-0.12535 1.10253,-0.24216 1.47858,-0.35041c-0.0057,-0.44443 -0.09402,-0.74356 -0.26495,-0.8974c-0.17093,-0.15384 -0.43019,-0.23076 -0.77775,-0.23076c-0.66095,0 -1.09397,0.18518 -1.29909,0.55554c-0.11395,0.21081 -0.21652,0.36181 -0.30768,0.45297c-0.08546,0.08546 -0.21082,0.1282 -0.37606,0.1282c-0.15384,0 -0.29344,-0.04843 -0.41879,-0.14529c-0.12535,-0.10256 -0.18802,-0.23646 -0.18802,-0.4017c0,-0.37606 0.20512,-0.73216 0.61536,-1.06833c0.41024,-0.34187 1.05409,-0.5128 1.93155,-0.5128c0.88885,0 1.53841,0.15384 1.94864,0.46152c0.41594,0.30768 0.61251,0.92874 0.58972,1.86318l-0.03418,1.36747c-0.01139,0.42733 0.03134,0.7749 0.1282,1.04269c0.10256,0.2621 0.15384,0.46437 0.15384,0.60682c0,0.15384 -0.06837,0.29058 -0.20512,0.41024c-0.13105,0.11965 -0.28204,0.17948 -0.45298,0.17948c-0.29629,0 -0.60967,-0.27634 -0.94013,-0.82903zM272.24987,181.11107c-0.21652,0.08546 -0.57548,0.17948 -1.07688,0.28204c-0.5014,0.09687 -0.85752,0.21082 -1.06834,0.34187c-0.20512,0.12535 -0.30768,0.31337 -0.30768,0.56408c0,0.20512 0.08262,0.3903 0.24786,0.55553c0.16523,0.15954 0.4017,0.23931 0.70938,0.23931c0.31907,0 0.61536,-0.08831 0.88885,-0.26494c0.27919,-0.17663 0.45013,-0.3846 0.5128,-0.62391c0.06268,-0.245 0.09401,-0.60967 0.09401,-1.09398zM280.3062,180.44443v2.39307c0,0.31338 -0.01425,0.54129 -0.04273,0.68373c-0.02279,0.13674 -0.09971,0.25925 -0.23076,0.36751c-0.12535,0.10826 -0.27349,0.16239 -0.44443,0.16239c-0.15954,0 -0.30768,-0.04842 -0.44443,-0.14529c-0.13105,-0.09687 -0.21367,-0.21937 -0.24785,-0.36751c-0.03418,-0.15384 -0.05128,-0.38745 -0.05128,-0.70083v-2.09394c0,-0.58687 -0.08832,-0.98002 -0.26495,-1.17944c-0.17093,-0.20512 -0.41024,-0.30768 -0.71792,-0.30768c-0.2735,0 -0.51565,0.07977 -0.72647,0.23931c-0.21082,0.15954 -0.35896,0.36181 -0.44443,0.60682c-0.08546,0.23931 -0.1282,0.64955 -0.1282,1.23072v1.50422c0,0.30768 -0.0114,0.53274 -0.03419,0.67519c-0.02279,0.13674 -0.09971,0.2621 -0.23076,0.37606c-0.13105,0.10826 -0.28204,0.16239 -0.45297,0.16239c-0.16523,0 -0.31623,-0.04842 -0.45298,-0.14529c-0.13105,-0.10256 -0.21082,-0.22507 -0.23931,-0.36751c-0.02849,-0.14814 -0.04273,-0.38175 -0.04273,-0.70083v-3.58961c0,-0.32477 0.01425,-0.54984 0.04273,-0.67519c0.03418,-0.13105 0.11111,-0.23931 0.23076,-0.32477c0.12535,-0.08546 0.26495,-0.1282 0.41879,-0.1282c0.14245,0 0.29058,0.05697 0.44442,0.17093c0.15384,0.10826 0.23076,0.37891 0.23076,0.81194c0.49001,-0.65525 1.11677,-0.98287 1.88027,-0.98287c0.29059,0 0.57833,0.05697 0.86322,0.17093c0.28489,0.10826 0.51565,0.28489 0.69228,0.5299c0.18233,0.245 0.29344,0.50141 0.33333,0.7692c0.03989,0.2678 0.05982,0.55268 0.05982,0.85467zM282.50379,176.01724c0.19372,0 0.35896,0.07122 0.49571,0.21367c0.13675,0.14245 0.20513,0.30768 0.20513,0.49571c0,0.19373 -0.06838,0.36181 -0.20513,0.50426c-0.13675,0.13674 -0.30198,0.20512 -0.49571,0.20512c-0.19372,0 -0.36181,-0.06838 -0.50426,-0.20512c-0.13675,-0.14245 -0.20512,-0.31053 -0.20512,-0.50426c0,-0.19373 0.06837,-0.35896 0.20512,-0.49571c0.14245,-0.14245 0.31053,-0.21367 0.50426,-0.21367zM283.23026,179.30772v3.52978c0,0.35326 -0.01709,0.59542 -0.05128,0.72647c-0.02849,0.12535 -0.11111,0.23931 -0.24786,0.34187c-0.13105,0.09687 -0.2735,0.14529 -0.42734,0.14529c-0.15384,0 -0.29913,-0.04842 -0.43588,-0.14529c-0.13675,-0.10256 -0.22222,-0.21937 -0.2564,-0.35041c-0.02849,-0.13105 -0.04273,-0.37036 -0.04273,-0.71793v-3.52124c0,-0.31907 0.01139,-0.54414 0.03418,-0.67519c0.02849,-0.13674 0.10826,-0.2564 0.23931,-0.35896c0.13105,-0.10826 0.28204,-0.16239 0.45297,-0.16239c0.17093,0 0.31908,0.04842 0.44443,0.14529c0.12535,0.09116 0.20513,0.21082 0.23931,0.35897c0.03418,0.14245 0.05128,0.37035 0.05128,0.68373zM284.95561,178.24793v-0.42733c0,-0.74641 0.15384,-1.24496 0.46152,-1.49567c0.31338,-0.25071 0.7578,-0.37606 1.33328,-0.37606c0.92305,0 1.38457,0.20797 1.38457,0.62391c0,0.13105 -0.04273,0.24785 -0.1282,0.35041c-0.08546,0.09687 -0.20227,0.1453 -0.35041,0.1453c-0.02849,0 -0.1225,-0.0114 -0.28204,-0.03419c-0.15954,-0.02279 -0.25071,-0.03419 -0.2735,-0.03419c-0.20512,0 -0.3732,0.05413 -0.50426,0.16239c-0.12535,0.10826 -0.18802,0.35326 -0.18802,0.73502v0.35041h0.37605c0.54699,0 0.82049,0.17093 0.82049,0.5128c0,0.16523 -0.05414,0.29628 -0.16239,0.39315c-0.10256,0.09687 -0.32193,0.14529 -0.6581,0.14529h-0.37605v3.53833c0,0.27349 -0.0114,0.48146 -0.03419,0.62391c-0.02279,0.14245 -0.08832,0.27634 -0.19657,0.40169c-0.10256,0.12535 -0.26779,0.18803 -0.4957,0.18803c-0.22791,0 -0.4074,-0.07692 -0.53845,-0.23076c-0.12535,-0.15384 -0.18802,-0.48146 -0.18802,-0.98287v-3.53833h-0.41024c-0.43873,0 -0.6581,-0.17948 -0.6581,-0.53844c0,-0.34187 0.24215,-0.5128 0.72646,-0.5128zM290.77912,178.11973c0.90595,0 1.61817,0.27919 2.13667,0.83757c0.5185,0.55268 0.77775,1.26206 0.77775,2.12813c0,0.86606 -0.26209,1.57829 -0.78629,2.13667c-0.5242,0.55268 -1.21933,0.82903 -2.0854,0.82903c-0.94013,0 -1.66661,-0.28204 -2.17941,-0.84612c-0.5128,-0.56408 -0.7692,-1.27061 -0.7692,-2.11958c0,-0.86606 0.25925,-1.57544 0.77775,-2.12813c0.5185,-0.55838 1.22788,-0.83757 2.12813,-0.83757zM290.77912,182.9657c0.44443,0 0.79484,-0.16523 1.05124,-0.4957c0.2564,-0.33617 0.3846,-0.7977 0.3846,-1.38457c0,-0.59257 -0.1282,-1.0541 -0.3846,-1.38457c-0.2564,-0.33617 -0.60681,-0.50426 -1.05124,-0.50426c-0.43303,0 -0.7806,0.16808 -1.0427,0.50426c-0.2564,0.33617 -0.3846,0.7977 -0.3846,1.38457c0,0.58687 0.1282,1.04839 0.3846,1.38457c0.2564,0.33047 0.60397,0.4957 1.0427,0.4957zM296.30136,177.15395v5.68355c0,0.35326 -0.0171,0.59542 -0.05128,0.72647c-0.02849,0.12535 -0.11111,0.23931 -0.24785,0.34187c-0.13105,0.09687 -0.2735,0.14529 -0.42734,0.14529c-0.15384,0 -0.29913,-0.04842 -0.43588,-0.14529c-0.13675,-0.10256 -0.22222,-0.21937 -0.2564,-0.35041c-0.02849,-0.13105 -0.04273,-0.37036 -0.04273,-0.71793v-5.68355c0,-0.35896 0.01709,-0.60112 0.05128,-0.72647c0.03418,-0.13105 0.1168,-0.24216 0.24786,-0.33333c0.13105,-0.09687 0.2735,-0.14529 0.42734,-0.14529c0.17663,0 0.32762,0.05128 0.45297,0.15384c0.13105,0.10256 0.21082,0.22222 0.23931,0.35896c0.02849,0.13674 0.04273,0.36751 0.04273,0.69228zM301.78725,183.21356v-0.1453c-0.5014,0.65525 -1.13671,0.98287 -1.90591,0.98287c-0.74071,0 -1.33328,-0.28204 -1.77772,-0.84612c-0.43873,-0.56978 -0.6581,-1.30479 -0.6581,-2.20504c0,-0.84328 0.21367,-1.53271 0.64101,-2.0683c0.43303,-0.54129 1.02846,-0.81194 1.78626,-0.81194c0.73501,0 1.37316,0.29629 1.91445,0.88886v-1.88882c0,-0.5242 0.06552,-0.84897 0.19657,-0.97432c0.13675,-0.13105 0.31622,-0.19657 0.53844,-0.19657c0.15954,0 0.30484,0.04558 0.43589,0.13674c0.13105,0.09116 0.21082,0.21081 0.23931,0.35896c0.02849,0.14245 0.04273,0.38175 0.04273,0.71793v5.74338c0,0.32477 -0.0171,0.55838 -0.05128,0.70083c-0.02849,0.13674 -0.11111,0.245 -0.24786,0.32477c-0.13105,0.07977 -0.27349,0.11965 -0.42733,0.11965c-0.48431,0 -0.72647,-0.27919 -0.72647,-0.83757zM298.92411,181.0427c0,0.65525 0.13674,1.13386 0.41024,1.43585c0.27919,0.30199 0.59542,0.45297 0.94869,0.45297c0.41024,0 0.74926,-0.15669 1.01705,-0.47007c0.2735,-0.31338 0.41024,-0.75211 0.41024,-1.31619c0,-0.58687 -0.13105,-1.05409 -0.39315,-1.40166c-0.2621,-0.34757 -0.61251,-0.52135 -1.05124,-0.52135c-0.39315,0 -0.71507,0.16239 -0.96578,0.48716c-0.2507,0.31907 -0.37606,0.76351 -0.37606,1.33329zM305.75291,179.63249c0,0.18803 0.09687,0.33617 0.29059,0.44443c0.19372,0.10826 0.63245,0.245 1.31619,0.41024c1.32189,0.32477 1.98283,0.87462 1.98283,1.64952c0,0.62106 -0.22506,1.09683 -0.67518,1.4273c-0.44443,0.32477 -1.06549,0.48716 -1.86318,0.48716c-0.81478,0 -1.4273,-0.16808 -1.83754,-0.50426c-0.41024,-0.33617 -0.61536,-0.69228 -0.61536,-1.06833c0,-0.15954 0.05698,-0.29629 0.17093,-0.41024c0.11395,-0.11396 0.25355,-0.17093 0.41879,-0.17093c0.22791,0 0.42734,0.14245 0.59827,0.42733c0.19372,0.31338 0.40454,0.52135 0.63245,0.62391c0.23361,0.10256 0.48146,0.15384 0.74356,0.15384c0.29629,0 0.5356,-0.06553 0.71792,-0.19657c0.18233,-0.13105 0.2735,-0.29629 0.2735,-0.49571c0,-0.18233 -0.07693,-0.33902 -0.23077,-0.47007c-0.15384,-0.13105 -0.57833,-0.27634 -1.27346,-0.43588c-0.68943,-0.15954 -1.19369,-0.38176 -1.51277,-0.66665c-0.31907,-0.29059 -0.47861,-0.63245 -0.47861,-1.0256c0,-0.44443 0.19373,-0.83757 0.58118,-1.17944c0.38745,-0.34187 0.96862,-0.5128 1.74352,-0.5128c0.70652,0 1.26776,0.14529 1.6837,0.43588c0.42164,0.28489 0.63246,0.58118 0.63246,0.88886c0,0.16523 -0.05414,0.30483 -0.16239,0.41879c-0.10256,0.11396 -0.24786,0.17093 -0.43588,0.17093c-0.28489,0 -0.54129,-0.16239 -0.7692,-0.48716c-0.22222,-0.32477 -0.56123,-0.48716 -1.01706,-0.48716c-0.245,0 -0.45867,0.05128 -0.641,0.15384c-0.18233,0.09687 -0.2735,0.23645 -0.2735,0.41878z"/></g></g></svg>