<svg version="1.1" xmlns="http://www.w3.org/2000/svg" xmlns:xlink="http://www.w3.org/1999/xlink" width="150.08512" height="32.73062" viewBox="0,0,150.08512,32.73062"><g transform="translate(-164.95744,-163.63469)"><g data-paper-data="{&quot;isPaintingLayer&quot;:true}" fill="#ffffff" fill-rule="nonzero" stroke="none" stroke-width="1" stroke-linecap="square" stroke-linejoin="miter" stroke-miterlimit="10" stroke-dasharray="" stroke-dashoffset="0" style="mix-blend-mode: normal"><path d="M173.89439,196.32712c-1.65499,0 -3.15721,-0.42011 -4.50666,-1.26033c-1.34946,-0.84023 -2.43156,-1.96053 -3.24633,-3.36091c-0.78931,-1.40037 -1.18395,-2.96625 -1.18395,-4.69763l0.07638,-14.20746c0,-1.68045 0.38193,-3.20813 1.14577,-4.58305c0.78931,-1.37492 1.85868,-2.48248 3.20813,-3.32271c1.34946,-0.84023 2.85168,-1.26034 4.50666,-1.26034c1.68045,0 3.18267,0.40738 4.50666,1.22215c1.34946,0.81476 2.41883,1.92233 3.20813,3.32271c0.78931,1.37492 1.18395,2.91532 1.18395,4.62124v2.10057c0,0.12731 -0.05092,0.19096 -0.15276,0.19096h-5.11774c-0.12731,0 -0.19096,-0.06365 -0.19096,-0.19096v-2.10057c0,-1.01845 -0.331,-1.88414 -0.993,-2.59706c-0.63654,-0.73838 -1.4513,-1.10757 -2.44429,-1.10757c-1.09484,0 -1.93507,0.38192 -2.52068,1.14576c-0.56015,0.73838 -0.84023,1.59134 -0.84023,2.55887v14.20746c0,1.14577 0.31826,2.06237 0.9548,2.74983c0.66199,0.68746 1.46403,1.03118 2.4061,1.03118c0.993,0 1.80776,-0.38192 2.44429,-1.14576c0.66199,-0.76384 0.993,-1.64226 0.993,-2.63525v-2.10056c0,-0.10184 0.06365,-0.15277 0.19096,-0.15277h5.15593c0.10184,0 0.15277,0.05093 0.15277,0.15277v2.10056c0,1.73138 -0.40739,3.29725 -1.22215,4.69763c-0.78931,1.40037 -1.85868,2.52068 -3.20813,3.36091c-1.32399,0.84023 -2.82621,1.26033 -4.50666,1.26033zM184.48493,195.63966l5.65243,-31.31751c0.02546,-0.12731 0.10185,-0.19096 0.22915,-0.19096h6.60723c0.12731,0 0.20369,0.06365 0.22915,0.19096l5.42328,31.31751c0.05093,0.15277 0,0.22915 -0.15277,0.22915h-5.07955c-0.12731,0 -0.20369,-0.07638 -0.22915,-0.22915l-0.4965,-3.32271h-6.18712l-0.53469,3.32271c-0.02546,0.15277 -0.10184,0.22915 -0.22915,0.22915h-5.04136c-0.12731,0 -0.19096,-0.07638 -0.19096,-0.22915zM191.35951,187.42836h4.39209l-1.87141,-12.79435l-0.26734,-1.71864l-0.19096,1.71864zM205.71354,195.86881c-0.12731,0 -0.19096,-0.07638 -0.19096,-0.22915l0.07638,-31.31751c0,-0.12731 0.06365,-0.19096 0.19096,-0.19096h5.57605c0.10184,0 0.20369,0.06365 0.30553,0.19096l4.16294,5.99615l4.12475,-5.99615c0.10184,-0.12731 0.21644,-0.19096 0.3438,-0.19096h5.57604c0.12731,0 0.19096,0.06365 0.19096,0.19096l0.11457,31.31751c0,0.15277 -0.06365,0.22915 -0.19096,0.22915h-5.15593c-0.12731,0 -0.19096,-0.07638 -0.19096,-0.22915l-0.03819,-23.25898l-4.77409,6.95096l-4.77401,-6.95096l-0.03819,23.25898c0,0.15277 -0.06365,0.22915 -0.19096,0.22915h-5.11774zM230.20146,195.86881c-0.12731,0 -0.19096,-0.07638 -0.19096,-0.22915l0.03819,-31.31751c0,-0.12731 0.06365,-0.19096 0.19096,-0.19096h14.62757c0.12731,0 0.19096,0.07638 0.19096,0.22915v5.11774c0,0.10184 -0.06365,0.15277 -0.19096,0.15277h-9.35706v7.14192h9.35706c0.12731,0 0.19096,0.05092 0.19096,0.15277l0.0382,5.15593c0,0.12731 -0.06366,0.19096 -0.19096,0.19096h-9.39525v7.98215h9.39525c0.1273,0 0.19096,0.07638 0.19096,0.22915v5.19412c0,0.12731 -0.06366,0.19096 -0.19096,0.19096zM249.35404,195.86881c-0.1273,0 -0.19096,-0.07638 -0.19096,-0.22915l0.07638,-31.31751c0,-0.12731 0.06366,-0.19096 0.19096,-0.19096h9.20429c1.65499,0 3.16994,0.40738 4.54486,1.22215c1.37491,0.78931 2.46975,1.87142 3.28452,3.24633c0.84022,1.34946 1.26034,2.86441 1.26034,4.54485c0,1.14577 -0.17823,2.16422 -0.53469,3.05537c-0.331,0.89115 -0.72565,1.65499 -1.18395,2.29153c-0.43285,0.61107 -0.84023,1.06938 -1.22215,1.37491c1.65499,1.83322 2.48249,3.97197 2.48249,6.41627l0.03819,9.35706c0,0.15277 -0.07638,0.22915 -0.22915,0.22915h-5.15593c-0.1273,0 -0.19096,-0.05092 -0.19096,-0.15277v-9.43345c0,-1.09484 -0.39465,-2.03691 -1.18396,-2.82621c-0.76384,-0.81476 -1.70592,-1.22215 -2.82621,-1.22215h-3.01717l-0.03819,13.40543c0,0.15277 -0.06365,0.22915 -0.19096,0.22915zM254.70093,176.77277h3.93378c0.94207,0 1.76956,-0.34373 2.48248,-1.03118c0.73838,-0.71292 1.10757,-1.57861 1.10757,-2.59707c0,-0.96753 -0.35645,-1.79502 -1.06938,-2.48248c-0.71292,-0.71292 -1.55314,-1.06938 -2.52068,-1.06938h-3.93378zM269.57705,195.63966l5.65243,-31.31751c0.02546,-0.12731 0.10185,-0.19096 0.22915,-0.19096h6.60723c0.1273,0 0.20369,0.06365 0.22915,0.19096l5.42328,31.31751c0.05093,0.15277 0,0.22915 -0.15277,0.22915h-5.07955c-0.1273,0 -0.20369,-0.07638 -0.22915,-0.22915l-0.4965,-3.32271h-6.18711l-0.53469,3.32271c-0.02546,0.15277 -0.10185,0.22915 -0.22915,0.22915h-5.04135c-0.1273,0 -0.19097,-0.07638 -0.19097,-0.22915zM276.45162,187.42836h4.39209l-1.87141,-12.79435l-0.26734,-1.71864l-0.19096,1.71864zM306.10561,196.36531c-1.60407,0 -3.08083,-0.42012 -4.43028,-1.26034c-1.34946,-0.84023 -2.43156,-1.9478 -3.24633,-3.32271c-0.81476,-1.40037 -1.22214,-2.94079 -1.22214,-4.62124v-2.06237c0,-0.15277 0.06366,-0.22915 0.19096,-0.22915h5.11774c0.15277,0 0.22915,0.07638 0.22915,0.22915v2.06237c0,0.993 0.31827,1.84595 0.9548,2.55887c0.63653,0.71292 1.43857,1.06938 2.4061,1.06938c1.06938,0 1.9096,-0.36919 2.52068,-1.10757c0.61108,-0.73838 0.91661,-1.57861 0.91661,-2.52068v-1.22215c0,-0.94207 -0.30553,-1.79503 -0.91661,-2.55887c-0.58561,-0.76384 -1.33672,-1.14577 -2.25333,-1.14577h-1.75684c-0.15277,0 -0.22915,-0.07638 -0.22915,-0.22915l0.03819,-5.11774c0,-0.10184 0.06366,-0.15277 0.19096,-0.15277h1.75684c0.84022,0 1.5786,-0.31826 2.21514,-0.9548c0.63653,-0.66199 0.9548,-1.50222 0.9548,-2.52068v-0.64926c0,-0.96753 -0.331,-1.79502 -0.993,-2.48248c-0.66199,-0.68746 -1.47676,-1.03119 -2.44429,-1.03119c-0.94207,0 -1.74411,0.34373 -2.4061,1.03119c-0.63653,0.68746 -0.9548,1.51495 -0.9548,2.48248v2.17695c0,0.15277 -0.06365,0.22915 -0.19096,0.22915h-5.11774c-0.1273,0 -0.19096,-0.07638 -0.19096,-0.22915v-2.4061c0,-1.68045 0.42012,-3.16995 1.26034,-4.46847c0.84022,-1.29853 1.93507,-2.32972 3.28452,-3.09356c1.34946,-0.7893 2.78802,-1.18395 4.3157,-1.18395c1.65499,0 3.15721,0.40738 4.50666,1.22215c1.34946,0.7893 2.41883,1.85868 3.20814,3.20813c0.78931,1.32399 1.18395,2.78802 1.18395,4.39209v0.76384c0,1.32399 -0.22915,2.48248 -0.68746,3.47548c-0.43285,0.96753 -1.04391,1.88414 -1.83322,2.74983c0.78931,0.91661 1.41311,1.92233 1.87141,3.01717c0.4583,1.06938 0.68746,2.17694 0.68746,3.32271v1.37492c0,1.70592 -0.40738,3.25906 -1.22214,4.65944c-0.78931,1.40037 -1.85868,2.50795 -3.20814,3.32271c-1.34945,0.81476 -2.85167,1.22215 -4.50666,1.22215z"/></g></g></svg>