<svg version="1.1" xmlns="http://www.w3.org/2000/svg" xmlns:xlink="http://www.w3.org/1999/xlink" width="706.21021" height="368" viewBox="0,0,706.21021,368"><g transform="translate(23.10511,4)"><g data-paper-data="{&quot;isPaintingLayer&quot;:true}" fill-rule="nonzero" stroke-linejoin="miter" stroke-miterlimit="10" stroke-dasharray="" stroke-dashoffset="0" style="mix-blend-mode: normal"><path d="M-22.1051,363v-366h704.21021v366z" fill="#000000" stroke="#000000" stroke-width="2" stroke-linecap="butt"/><path d="M141.9079,179.91177l-4.40026,-6.81647c-0.72028,-1.10006 -1.08042,-1.87273 -1.08042,-2.31799c0,-0.43217 0.1637,-0.79885 0.4911,-1.10006c0.3405,-0.30121 0.74647,-0.45181 1.21793,-0.45181c0.44526,0 0.79231,0.13096 1.04113,0.39288c0.26192,0.24882 0.6679,0.82505 1.21793,1.72867l3.37877,5.46103l3.39841,-5.46103c0.58932,-0.96911 1.01494,-1.56497 1.27686,-1.7876c0.26192,-0.22263 0.60241,-0.33395 1.02149,-0.33395c0.44526,0 0.82505,0.1506 1.13935,0.45181c0.3143,0.30121 0.47146,0.66135 0.47146,1.08042c0,0.40597 -0.35359,1.15245 -1.06078,2.23942l-4.49848,6.91469v4.911c0,0.78576 -0.03274,1.36199 -0.09822,1.72867c-0.06548,0.35359 -0.26192,0.66135 -0.58932,0.92327c-0.3143,0.24882 -0.68754,0.37324 -1.11971,0.37324c-0.41907,0 -0.79231,-0.12441 -1.11971,-0.37324c-0.3143,-0.24882 -0.51074,-0.55003 -0.58932,-0.90362c-0.06548,-0.35359 -0.09822,-0.93636 -0.09822,-1.74832zM157.61083,174.21501c2.08226,0 3.71927,0.6417 4.911,1.92511c1.19173,1.27031 1.7876,2.90076 1.7876,4.89136c0,1.99059 -0.60241,3.62759 -1.80725,4.911c-1.20483,1.27031 -2.80254,1.90547 -4.79314,1.90547c-2.16084,0 -3.83058,-0.64825 -5.00922,-1.94476c-1.17864,-1.2965 -1.76796,-2.92041 -1.76796,-4.87171c0,-1.99059 0.59587,-3.62105 1.7876,-4.89136c1.19173,-1.28341 2.82219,-1.92511 4.89136,-1.92511zM157.61083,185.35315c1.02149,0 1.82689,-0.37979 2.41621,-1.13935c0.58932,-0.77267 0.88398,-1.83344 0.88398,-3.18233c0,-1.36199 -0.29466,-2.42276 -0.88398,-3.18233c-0.58932,-0.77267 -1.39472,-1.159 -2.41621,-1.159c-0.99529,0 -1.79415,0.38633 -2.39657,1.159c-0.58932,0.77267 -0.88398,1.83344 -0.88398,3.18233c0,1.34889 0.29466,2.40966 0.88398,3.18233c0.58932,0.75957 1.38817,1.13935 2.39657,1.13935zM166.84596,182.85837v-5.8932c0,-0.72028 0.02619,-1.24412 0.07858,-1.57152c0.06548,-0.3274 0.24228,-0.60241 0.53039,-0.82505c0.28811,-0.23573 0.6417,-0.35359 1.06078,-0.35359c0.39288,0 0.73338,0.11131 1.02149,0.33395c0.30121,0.22263 0.48455,0.51729 0.55003,0.88398c0.07858,0.35359 0.11786,0.89053 0.11786,1.61081v4.61634c0,1.50604 0.23573,2.47514 0.70718,2.90731c0.47146,0.41907 0.98875,0.62861 1.55188,0.62861c0.6417,0 1.20483,-0.1768 1.68938,-0.53039c0.49765,-0.36669 0.8316,-0.8054 1.00184,-1.31615c0.17025,-0.52384 0.25537,-1.53878 0.25537,-3.04482v-3.33948c0,-0.70718 0.03274,-1.23102 0.09822,-1.57152c0.07858,-0.3405 0.26192,-0.62206 0.55003,-0.84469c0.30121,-0.22263 0.6548,-0.33395 1.06078,-0.33395c0.37979,0 0.72028,0.11131 1.02149,0.33395c0.30121,0.22263 0.47801,0.49765 0.53039,0.82505c0.06548,0.3274 0.09822,0.85779 0.09822,1.59116v8.28977c0,0.68099 -0.03274,1.17209 -0.09822,1.4733c-0.06548,0.30121 -0.22918,0.56313 -0.4911,0.78576c-0.24882,0.22263 -0.56968,0.33395 -0.96256,0.33395c-1.08697,0 -1.61081,-0.77921 -1.57152,-2.33764c-1.11316,1.55843 -2.58646,2.33764 -4.4199,2.33764c-1.21793,0 -2.25251,-0.36014 -3.10375,-1.08042c-0.85124,-0.73338 -1.27686,-2.03643 -1.27686,-3.90916zM193.87856,183.78163l1.98404,-6.93433c0.24882,-0.85124 0.43872,-1.40782 0.56968,-1.66974c0.13096,-0.27502 0.3405,-0.50419 0.62861,-0.68754c0.30121,-0.18335 0.63516,-0.27502 1.00184,-0.27502c0.58932,0 1.02149,0.15715 1.2965,0.47146c0.28811,0.30121 0.60241,1.02149 0.94291,2.16084l2.00369,6.93433l2.18048,-7.48436c0.23573,-0.78576 0.45836,-1.32924 0.6679,-1.63045c0.20953,-0.30121 0.57623,-0.45181 1.10006,-0.45181c0.39288,0 0.73338,0.14406 1.02149,0.43217c0.30121,0.27502 0.45181,0.59587 0.45181,0.96256c0,0.30121 -0.12441,0.8185 -0.37324,1.55188l-2.73052,8.0344c-0.30121,0.85124 -0.53039,1.41437 -0.68754,1.68938c-0.15715,0.27502 -0.37979,0.50419 -0.6679,0.68754c-0.28811,0.18335 -0.60896,0.27502 -0.96256,0.27502c-0.69409,0 -1.18519,-0.20953 -1.4733,-0.62861c-0.28811,-0.41907 -0.57623,-1.12626 -0.86434,-2.12155l-1.90547,-6.54145l-1.84654,6.54145c-0.23573,0.83814 -0.43217,1.40782 -0.58932,1.70903c-0.14406,0.30121 -0.37324,0.55003 -0.68754,0.74647c-0.30121,0.19644 -0.6417,0.29466 -1.02149,0.29466c-0.36669,0 -0.70718,-0.09167 -1.02149,-0.27502c-0.30121,-0.17025 -0.52384,-0.39288 -0.6679,-0.6679c-0.14406,-0.28811 -0.36669,-0.85779 -0.6679,-1.70903l-2.73052,-8.0344c-0.26192,-0.70718 -0.39288,-1.22448 -0.39288,-1.55188c0,-0.35359 0.14406,-0.67445 0.43217,-0.96256c0.28811,-0.28811 0.6417,-0.43217 1.06078,-0.43217c0.51074,0 0.87089,0.1506 1.08042,0.45181c0.20953,0.28811 0.42562,0.8316 0.64825,1.63045zM219.05726,181.85652h-6.58074c0.03929,1.24412 0.37979,2.18048 1.02149,2.80909c0.6548,0.62861 1.44056,0.94291 2.35728,0.94291c1.11316,0 2.16739,-0.4911 3.16268,-1.4733c0.40597,-0.40597 0.70063,-0.6548 0.88398,-0.74647c0.19644,-0.10477 0.41252,-0.15715 0.64825,-0.15715c0.30121,0 0.55658,0.09822 0.76612,0.29466c0.22263,0.18335 0.33395,0.41252 0.33395,0.68754c0,0.75957 -0.51729,1.55843 -1.55188,2.39657c-1.02149,0.82505 -2.41621,1.23757 -4.18417,1.23757c-2.23942,0 -3.94189,-0.63516 -5.10744,-1.90547c-1.15245,-1.27031 -1.72867,-2.90731 -1.72867,-4.911c0,-2.02988 0.57623,-3.67343 1.72867,-4.93064c1.16555,-1.25722 2.7829,-1.88582 4.85207,-1.88582c1.9644,0 3.48354,0.59587 4.55741,1.7876c1.07387,1.17864 1.61081,2.46205 1.61081,3.85022c0,0.61551 -0.1768,1.10661 -0.53039,1.4733c-0.35359,0.35359 -1.10006,0.53039 -2.23942,0.53039zM212.47652,179.95105h6.10928c-0.03929,-1.11316 -0.34704,-1.9644 -0.92327,-2.55372c-0.57623,-0.58932 -1.28341,-0.88398 -2.12155,-0.88398c-1.78105,0 -2.80254,1.1459 -3.06446,3.4377zM224.62878,185.05849v-8.58443c0,-1.50604 0.55003,-2.25906 1.6501,-2.25906c1.06078,0 1.60426,0.69409 1.63045,2.08226c0.69409,-1.38817 1.65665,-2.08226 2.88767,-2.08226c0.6417,0 1.3096,0.17025 2.00369,0.51074c0.69409,0.3405 1.04113,0.8054 1.04113,1.39472c0,0.40597 -0.14406,0.74647 -0.43217,1.02149c-0.27502,0.26192 -0.56968,0.39288 -0.88398,0.39288c-0.18335,0 -0.51074,-0.07203 -0.9822,-0.21608c-0.47146,-0.14406 -0.86434,-0.21608 -1.17864,-0.21608c-0.79885,0 -1.39472,0.40597 -1.7876,1.21793c-0.39288,0.79885 -0.58932,2.35728 -0.58932,4.67527v1.94476c0,0.85124 -0.03929,1.42746 -0.11786,1.72867c-0.06548,0.30121 -0.24882,0.57623 -0.55003,0.82505c-0.28811,0.23573 -0.62206,0.35359 -1.00184,0.35359c-0.37979,0 -0.72028,-0.11131 -1.02149,-0.33395c-0.28811,-0.22263 -0.47146,-0.47801 -0.55003,-0.76612c-0.07858,-0.30121 -0.11786,-0.86434 -0.11786,-1.68938zM244.38574,181.85652h-6.58074c0.03929,1.24412 0.37979,2.18048 1.02149,2.80909c0.6548,0.62861 1.44056,0.94291 2.35728,0.94291c1.11316,0 2.16739,-0.4911 3.16268,-1.4733c0.40597,-0.40597 0.70063,-0.6548 0.88398,-0.74647c0.19644,-0.10477 0.41252,-0.15715 0.64825,-0.15715c0.30121,0 0.55658,0.09822 0.76612,0.29466c0.22263,0.18335 0.33395,0.41252 0.33395,0.68754c0,0.75957 -0.51729,1.55843 -1.55188,2.39657c-1.02149,0.82505 -2.41621,1.23757 -4.18417,1.23757c-2.23942,0 -3.94189,-0.63516 -5.10744,-1.90547c-1.15245,-1.27031 -1.72867,-2.90731 -1.72867,-4.911c0,-2.02988 0.57623,-3.67343 1.72867,-4.93064c1.16555,-1.25722 2.7829,-1.88582 4.85207,-1.88582c1.9644,0 3.48354,0.59587 4.55741,1.7876c1.07387,1.17864 1.61081,2.46205 1.61081,3.85022c0,0.61551 -0.1768,1.10661 -0.53039,1.4733c-0.35359,0.35359 -1.10006,0.53039 -2.23942,0.53039zM237.805,179.95105h6.10928c-0.03929,-1.11316 -0.34704,-1.9644 -0.92327,-2.55372c-0.57623,-0.58932 -1.28341,-0.88398 -2.12155,-0.88398c-1.78105,0 -2.80254,1.1459 -3.06446,3.4377zM262.84373,181.444l-1.84654,1.70903v1.6501c0,0.81195 -0.02619,1.39472 -0.07858,1.74832c-0.05238,0.3405 -0.23573,0.6417 -0.55003,0.90362c-0.30121,0.26192 -0.6548,0.39288 -1.06078,0.39288c-0.36669,0 -0.70063,-0.11131 -1.00184,-0.33395c-0.30121,-0.23573 -0.48455,-0.50419 -0.55003,-0.8054c-0.06548,-0.3143 -0.09822,-0.89707 -0.09822,-1.74832v-12.80789c0,-1.21793 0.14406,-2.01024 0.43217,-2.37692c0.30121,-0.36669 0.73992,-0.55003 1.31615,-0.55003c0.41907,0 0.75302,0.11786 1.00184,0.35359c0.26192,0.23573 0.42562,0.52384 0.4911,0.86434c0.06548,0.3405 0.09822,0.87743 0.09822,1.61081v7.38614l3.79129,-3.9288c0.57623,-0.60241 0.96911,-0.96911 1.17864,-1.10006c0.22263,-0.13096 0.47801,-0.19644 0.76612,-0.19644c0.43217,0 0.78576,0.13751 1.06078,0.41252c0.27502,0.27502 0.41252,0.57623 0.41252,0.90362c0,0.49765 -0.45836,1.17864 -1.37508,2.04298l-1.76796,1.63045l3.41806,5.4021c0.49765,0.78576 0.74647,1.34889 0.74647,1.68938c0,0.39288 -0.14406,0.75302 -0.43217,1.08042c-0.28811,0.3143 -0.67445,0.47146 -1.159,0.47146c-0.40597,0 -0.73992,-0.11786 -1.00184,-0.35359c-0.24882,-0.24882 -0.53694,-0.64825 -0.86434,-1.19828zM272.91864,169.38258c0.44526,0 0.82505,0.1637 1.13935,0.4911c0.3143,0.3274 0.47146,0.70718 0.47146,1.13935c0,0.44526 -0.15715,0.8316 -0.47146,1.159c-0.3143,0.3143 -0.69409,0.47146 -1.13935,0.47146c-0.44526,0 -0.8316,-0.15715 -1.159,-0.47146c-0.3143,-0.3274 -0.47146,-0.71373 -0.47146,-1.159c0,-0.44526 0.15715,-0.82505 0.47146,-1.13935c0.3274,-0.3274 0.71373,-0.4911 1.159,-0.4911zM274.58838,176.94552v8.11297c0,0.81195 -0.03929,1.36853 -0.11786,1.66974c-0.06548,0.28811 -0.25537,0.55003 -0.56968,0.78576c-0.30121,0.22263 -0.62861,0.33395 -0.9822,0.33395c-0.35359,0 -0.68754,-0.11131 -1.00184,-0.33395c-0.3143,-0.23573 -0.51074,-0.50419 -0.58932,-0.8054c-0.06548,-0.30121 -0.09822,-0.85124 -0.09822,-1.6501v-8.09333c0,-0.73338 0.02619,-1.25067 0.07858,-1.55188c0.06548,-0.3143 0.24882,-0.58932 0.55003,-0.82505c0.30121,-0.24882 0.64825,-0.37324 1.04113,-0.37324c0.39288,0 0.73338,0.11131 1.02149,0.33395c0.28811,0.20953 0.47146,0.48455 0.55003,0.82505c0.07858,0.3274 0.11786,0.85124 0.11786,1.57152zM288.65103,182.22976c0.40597,0 0.73992,0.1637 1.00184,0.4911c0.27502,0.3143 0.41252,0.63516 0.41252,0.96256c0,0.91672 -0.54348,1.83999 -1.63045,2.7698c-1.08697,0.92982 -2.54717,1.39472 -4.38061,1.39472c-2.20013,0 -3.86332,-0.62206 -4.98958,-1.86618c-1.11316,-1.25722 -1.66974,-2.88767 -1.66974,-4.89136c0,-2.01678 0.58277,-3.66688 1.74832,-4.95029c1.16555,-1.28341 2.82219,-1.92511 4.96993,-1.92511c1.66319,0 3.03827,0.43872 4.12524,1.31615c1.10006,0.86434 1.6501,1.72212 1.6501,2.57336c0,0.40597 -0.1506,0.74647 -0.45181,1.02149c-0.28811,0.27502 -0.62861,0.41252 -1.02149,0.41252c-0.49765,0 -0.88398,-0.20953 -1.159,-0.62861c-0.61551,-0.92982 -1.159,-1.51914 -1.63045,-1.76796c-0.47146,-0.24882 -0.9822,-0.37324 -1.53223,-0.37324c-1.07387,0 -1.90547,0.41252 -2.49479,1.23757c-0.57623,0.81195 -0.86434,1.83344 -0.86434,3.06446c0,1.25722 0.30121,2.28525 0.90362,3.08411c0.61551,0.79885 1.43401,1.19828 2.4555,1.19828c0.57623,0 1.10661,-0.13751 1.59116,-0.41252c0.49765,-0.27502 0.92327,-0.68754 1.27686,-1.23757c0.35359,-0.56313 0.63516,-0.94946 0.84469,-1.159c0.20953,-0.20953 0.4911,-0.3143 0.84469,-0.3143zM297.42944,181.444l-1.84654,1.70903v1.6501c0,0.81195 -0.02619,1.39472 -0.07858,1.74832c-0.05238,0.3405 -0.23573,0.6417 -0.55003,0.90362c-0.30121,0.26192 -0.6548,0.39288 -1.06078,0.39288c-0.36669,0 -0.70063,-0.11131 -1.00184,-0.33395c-0.30121,-0.23573 -0.48455,-0.50419 -0.55003,-0.8054c-0.06548,-0.3143 -0.09822,-0.89707 -0.09822,-1.74832v-12.80789c0,-1.21793 0.14406,-2.01024 0.43217,-2.37692c0.30121,-0.36669 0.73992,-0.55003 1.31615,-0.55003c0.41907,0 0.75302,0.11786 1.00184,0.35359c0.26192,0.23573 0.42562,0.52384 0.4911,0.86434c0.06548,0.3405 0.09822,0.87743 0.09822,1.61081v7.38614l3.79129,-3.9288c0.57623,-0.60241 0.96911,-0.96911 1.17864,-1.10006c0.22263,-0.13096 0.47801,-0.19644 0.76612,-0.19644c0.43217,0 0.78576,0.13751 1.06078,0.41252c0.27502,0.27502 0.41252,0.57623 0.41252,0.90362c0,0.49765 -0.45836,1.17864 -1.37508,2.04298l-1.76796,1.63045l3.41806,5.4021c0.49765,0.78576 0.74647,1.34889 0.74647,1.68938c0,0.39288 -0.14406,0.75302 -0.43217,1.08042c-0.28811,0.3143 -0.67445,0.47146 -1.159,0.47146c-0.40597,0 -0.73992,-0.11786 -1.00184,-0.35359c-0.24882,-0.24882 -0.53694,-0.64825 -0.86434,-1.19828zM314.83403,181.85652h-6.58074c0.03929,1.24412 0.37979,2.18048 1.02149,2.80909c0.6548,0.62861 1.44056,0.94291 2.35728,0.94291c1.11316,0 2.16739,-0.4911 3.16268,-1.4733c0.40597,-0.40597 0.70063,-0.6548 0.88398,-0.74647c0.19644,-0.10477 0.41252,-0.15715 0.64825,-0.15715c0.30121,0 0.55658,0.09822 0.76612,0.29466c0.22263,0.18335 0.33395,0.41252 0.33395,0.68754c0,0.75957 -0.51729,1.55843 -1.55188,2.39657c-1.02149,0.82505 -2.41621,1.23757 -4.18417,1.23757c-2.23942,0 -3.94189,-0.63516 -5.10744,-1.90547c-1.15245,-1.27031 -1.72867,-2.90731 -1.72867,-4.911c0,-2.02988 0.57623,-3.67343 1.72867,-4.93064c1.16555,-1.25722 2.7829,-1.88582 4.85207,-1.88582c1.9644,0 3.48354,0.59587 4.55741,1.7876c1.07387,1.17864 1.61081,2.46205 1.61081,3.85022c0,0.61551 -0.1768,1.10661 -0.53039,1.4733c-0.35359,0.35359 -1.10006,0.53039 -2.23942,0.53039zM308.25329,179.95105h6.10928c-0.03929,-1.11316 -0.34704,-1.9644 -0.92327,-2.55372c-0.57623,-0.58932 -1.28341,-0.88398 -2.12155,-0.88398c-1.78105,0 -2.80254,1.1459 -3.06446,3.4377zM329.5793,185.92283v-0.33395c-1.15245,1.50604 -2.61265,2.25906 -4.38061,2.25906c-1.70248,0 -3.06446,-0.64825 -4.08595,-1.94476c-1.00839,-1.3096 -1.51259,-2.99898 -1.51259,-5.06815c0,-1.93821 0.4911,-3.52283 1.4733,-4.75385c0.99529,-1.24412 2.36383,-1.86618 4.1056,-1.86618c1.68938,0 3.15613,0.68099 4.40026,2.04298v-4.34132c0,-1.20483 0.1506,-1.95131 0.45181,-2.23942c0.3143,-0.30121 0.72683,-0.45181 1.23757,-0.45181c0.36669,0 0.70063,0.10477 1.00184,0.3143c0.30121,0.20953 0.48455,0.48455 0.55003,0.82505c0.06548,0.3274 0.09822,0.87743 0.09822,1.6501v13.20077c0,0.74647 -0.03929,1.28341 -0.11786,1.61081c-0.06548,0.3143 -0.25537,0.56313 -0.56968,0.74647c-0.30121,0.18335 -0.62861,0.27502 -0.9822,0.27502c-1.11316,0 -1.66974,-0.6417 -1.66974,-1.92511zM322.99856,180.93325c0,1.50604 0.3143,2.6061 0.94291,3.30019c0.6417,0.69409 1.36853,1.04113 2.18048,1.04113c0.94291,0 1.72212,-0.36014 2.33764,-1.08042c0.62861,-0.72028 0.94291,-1.72867 0.94291,-3.02518c0,-1.34889 -0.30121,-2.42276 -0.90362,-3.22162c-0.60241,-0.79885 -1.40782,-1.19828 -2.41621,-1.19828c-0.90362,0 -1.64355,0.37324 -2.21977,1.11971c-0.57623,0.73338 -0.86434,1.75487 -0.86434,3.06446zM346.64994,185.58888v0.33395c0,1.28341 -0.55003,1.92511 -1.6501,1.92511c-0.43217,0 -0.79231,-0.11131 -1.08042,-0.33395c-0.28811,-0.22263 -0.46491,-0.4911 -0.53039,-0.8054c-0.05238,-0.3143 -0.07858,-0.81195 -0.07858,-1.49294v-13.20077c0,-0.75957 0.03274,-1.3096 0.09822,-1.6501c0.07858,-0.35359 0.26847,-0.62861 0.56968,-0.82505c0.3143,-0.20953 0.64825,-0.3143 1.00184,-0.3143c0.49765,0 0.89707,0.1506 1.19828,0.45181c0.3143,0.28811 0.47146,1.03458 0.47146,2.23942v4.34132c1.25722,-1.36199 2.73052,-2.04298 4.4199,-2.04298c1.74177,0 3.10375,0.62206 4.08595,1.86618c0.9822,1.23102 1.4733,2.81564 1.4733,4.75385c0,2.06917 -0.50419,3.75855 -1.51259,5.06815c-1.00839,1.2965 -2.37037,1.94476 -4.08595,1.94476c-1.75487,0 -3.21507,-0.75302 -4.38061,-2.25906zM346.82673,181.16898c0,1.2965 0.3143,2.3049 0.94291,3.02518c0.62861,0.72028 1.41437,1.08042 2.35728,1.08042c0.81195,0 1.53223,-0.34704 2.16084,-1.04113c0.6417,-0.69409 0.96256,-1.79415 0.96256,-3.30019c0,-1.2965 -0.28811,-2.31144 -0.86434,-3.04482c-0.57623,-0.74647 -1.3227,-1.11971 -2.23942,-1.11971c-1.00839,0 -1.8138,0.39943 -2.41621,1.19828c-0.60241,0.79885 -0.90362,1.86618 -0.90362,3.20197zM362.38724,187.51399l-4.08595,-10.39168c-0.26192,-0.6679 -0.39288,-1.1328 -0.39288,-1.39472c0,-0.37979 0.15715,-0.72683 0.47146,-1.04113c0.3274,-0.3143 0.70718,-0.47146 1.13935,-0.47146c0.37979,0 0.70063,0.11786 0.96256,0.35359c0.26192,0.22263 0.52384,0.69409 0.78576,1.41437l2.82874,8.25048l2.69123,-7.64152c0.35359,-0.99529 0.63516,-1.637 0.84469,-1.92511c0.20953,-0.30121 0.56968,-0.45181 1.08042,-0.45181c0.45836,0 0.8185,0.15715 1.08042,0.47146c0.26192,0.30121 0.39288,0.60896 0.39288,0.92327c0,0.37979 -0.13096,0.91672 -0.39288,1.61081l-4.38061,11.45245c-0.57623,1.51914 -1.17864,2.58646 -1.80725,3.20197c-0.61551,0.62861 -1.67629,0.94291 -3.18233,0.94291c-1.93821,0 -2.90731,-0.49765 -2.90731,-1.49294c0,-0.3274 0.10477,-0.60241 0.3143,-0.82505c0.22263,-0.22263 0.51729,-0.33395 0.88398,-0.33395c0.06548,0 0.25537,0.01309 0.56968,0.03929c0.3274,0.02619 0.51729,0.03929 0.56968,0.03929c0.61551,0 1.06733,-0.1506 1.35544,-0.45181c0.30121,-0.28811 0.59587,-0.79885 0.88398,-1.53223zM388.03739,172.34883v12.47394c0,0.78576 -0.03274,1.35544 -0.09822,1.70903c-0.06548,0.3405 -0.26192,0.64825 -0.58932,0.92327c-0.3274,0.26192 -0.70063,0.39288 -1.11971,0.39288c-0.43217,0 -0.81195,-0.12441 -1.13935,-0.37324c-0.3274,-0.24882 -0.52384,-0.55003 -0.58932,-0.90362c-0.05238,-0.36669 -0.07858,-0.94946 -0.07858,-1.74832v-12.47394h-3.33948c-0.72028,0 -1.21793,-0.02619 -1.49294,-0.07858c-0.26192,-0.06548 -0.49765,-0.22263 -0.70718,-0.47146c-0.20953,-0.24882 -0.3143,-0.53694 -0.3143,-0.86434c0,-0.24882 0.06548,-0.4911 0.19644,-0.72683c0.14406,-0.24882 0.33395,-0.41907 0.56968,-0.51074c0.23573,-0.10477 0.8185,-0.15715 1.74832,-0.15715h10.25417c0.83814,0 1.37508,0.03274 1.61081,0.09822c0.23573,0.06548 0.44526,0.22263 0.62861,0.47146c0.18335,0.24882 0.27502,0.52384 0.27502,0.82505c0,0.24882 -0.07203,0.49765 -0.21608,0.74647c-0.13096,0.23573 -0.32085,0.40597 -0.56968,0.51074c-0.23573,0.10477 -0.81195,0.15715 -1.72867,0.15715zM397.15466,169.38258c0.44526,0 0.82505,0.1637 1.13935,0.4911c0.3143,0.3274 0.47146,0.70718 0.47146,1.13935c0,0.44526 -0.15715,0.8316 -0.47146,1.159c-0.3143,0.3143 -0.69409,0.47146 -1.13935,0.47146c-0.44526,0 -0.8316,-0.15715 -1.159,-0.47146c-0.3143,-0.3274 -0.47146,-0.71373 -0.47146,-1.159c0,-0.44526 0.15715,-0.82505 0.47146,-1.13935c0.3274,-0.3274 0.71373,-0.4911 1.159,-0.4911zM398.8244,176.94552v8.11297c0,0.81195 -0.03929,1.36853 -0.11786,1.66974c-0.06548,0.28811 -0.25537,0.55003 -0.56968,0.78576c-0.30121,0.22263 -0.62861,0.33395 -0.9822,0.33395c-0.35359,0 -0.68754,-0.11131 -1.00184,-0.33395c-0.3143,-0.23573 -0.51074,-0.50419 -0.58932,-0.8054c-0.06548,-0.30121 -0.09822,-0.85124 -0.09822,-1.6501v-8.09333c0,-0.73338 0.02619,-1.25067 0.07858,-1.55188c0.06548,-0.3143 0.24882,-0.58932 0.55003,-0.82505c0.30121,-0.24882 0.64825,-0.37324 1.04113,-0.37324c0.39288,0 0.73338,0.11131 1.02149,0.33395c0.28811,0.20953 0.47146,0.48455 0.55003,0.82505c0.07858,0.3274 0.11786,0.85124 0.11786,1.57152zM421.27504,179.18494v5.77534c0,0.79885 -0.03274,1.36199 -0.09822,1.68938c-0.06548,0.3143 -0.24228,0.59587 -0.53039,0.84469c-0.28811,0.23573 -0.63516,0.35359 -1.04113,0.35359c-0.39288,0 -0.73338,-0.11786 -1.02149,-0.35359c-0.28811,-0.23573 -0.47146,-0.52384 -0.55003,-0.86434c-0.07858,-0.35359 -0.11786,-0.91017 -0.11786,-1.66974v-4.89136c0,-1.42746 -0.17025,-2.32454 -0.51074,-2.69123c-0.3274,-0.36669 -0.78576,-0.55003 -1.37508,-0.55003c-0.61551,0 -1.13935,0.17025 -1.57152,0.51074c-0.41907,0.3405 -0.70718,0.78576 -0.86434,1.33579c-0.14406,0.55003 -0.21608,1.40782 -0.21608,2.57336v3.71272c0,0.79885 -0.03274,1.36853 -0.09822,1.70903c-0.06548,0.3274 -0.24882,0.60896 -0.55003,0.84469c-0.28811,0.22263 -0.63516,0.33395 -1.04113,0.33395c-0.51074,0 -0.91672,-0.1768 -1.21793,-0.53039c-0.28811,-0.35359 -0.43217,-1.13935 -0.43217,-2.35728v-4.5967c0,-1.3096 -0.09822,-2.22632 -0.29466,-2.75016c-0.19644,-0.52384 -0.71373,-0.78576 -1.55188,-0.78576c-0.85124,0 -1.52568,0.27502 -2.02333,0.82505c-0.49765,0.55003 -0.74647,1.72212 -0.74647,3.51628v3.79129c0,0.78576 -0.02619,1.33579 -0.07858,1.6501c-0.05238,0.30121 -0.22918,0.58277 -0.53039,0.84469c-0.28811,0.26192 -0.62861,0.39288 -1.02149,0.39288c-0.37979,0 -0.72683,-0.11131 -1.04113,-0.33395c-0.30121,-0.23573 -0.4911,-0.51729 -0.56968,-0.84469c-0.06548,-0.3274 -0.09822,-0.89707 -0.09822,-1.70903v-8.11297c0,-0.77267 0.03274,-1.2965 0.09822,-1.57152c0.07858,-0.28811 0.26192,-0.53694 0.55003,-0.74647c0.28811,-0.20953 0.60241,-0.3143 0.94291,-0.3143c1.07387,0 1.61081,0.68099 1.61081,2.04298c1.11316,-1.36199 2.46205,-2.04298 4.04666,-2.04298c1.68938,0 2.92041,0.68099 3.69307,2.04298c1.13935,-1.36199 2.46859,-2.04298 3.98773,-2.04298c1.17864,0 2.18048,0.3274 3.00553,0.9822c0.83814,0.6417 1.25722,1.97095 1.25722,3.98773zM427.98346,173.35067v11.66854c0,0.74647 -0.03929,1.27686 -0.11786,1.59116c-0.06548,0.3143 -0.24882,0.60241 -0.55003,0.86434c-0.28811,0.24882 -0.63516,0.37324 -1.04113,0.37324c-0.40597,0 -0.75957,-0.11786 -1.06078,-0.35359c-0.30121,-0.23573 -0.48455,-0.51074 -0.55003,-0.82505c-0.05238,-0.3274 -0.07858,-0.87743 -0.07858,-1.6501v-13.06326c0,-0.79885 0.13751,-1.40127 0.41252,-1.80725c0.28811,-0.40597 0.91672,-0.60896 1.88582,-0.60896h1.10006c0.96911,0 1.58461,0.13096 1.84654,0.39288c0.27502,0.26192 0.55658,0.92982 0.84469,2.00369l2.61265,9.86129l2.59301,-9.86129c0.27502,-1.06078 0.54348,-1.72212 0.8054,-1.98404c0.27502,-0.27502 0.90362,-0.41252 1.88582,-0.41252h1.10006c0.85124,0 1.44711,0.1637 1.7876,0.4911c0.3405,0.3274 0.51074,0.96911 0.51074,1.92511v13.06326c0,0.77267 -0.03274,1.3096 -0.09822,1.61081c-0.05238,0.30121 -0.22918,0.58277 -0.53039,0.84469c-0.30121,0.24882 -0.66135,0.37324 -1.08042,0.37324c-0.35359,0 -0.68754,-0.10477 -1.00184,-0.3143c-0.30121,-0.20953 -0.4911,-0.47801 -0.56968,-0.8054c-0.07858,-0.3405 -0.11786,-0.91017 -0.11786,-1.70903v-11.66854l-2.84838,11.4721c-0.3405,1.37508 -0.68754,2.22632 -1.04113,2.55372c-0.3405,0.3143 -0.8054,0.47146 -1.39472,0.47146c-0.69409,0 -1.20483,-0.19644 -1.53223,-0.58932c-0.3143,-0.39288 -0.62861,-1.20483 -0.94291,-2.43586zM456.07929,182.22976c0.40597,0 0.73992,0.1637 1.00184,0.4911c0.27502,0.3143 0.41252,0.63516 0.41252,0.96256c0,0.91672 -0.54348,1.83999 -1.63045,2.7698c-1.08697,0.92982 -2.54717,1.39472 -4.38061,1.39472c-2.20013,0 -3.86332,-0.62206 -4.98958,-1.86618c-1.11316,-1.25722 -1.66974,-2.88767 -1.66974,-4.89136c0,-2.01678 0.58277,-3.66688 1.74832,-4.95029c1.16555,-1.28341 2.82219,-1.92511 4.96993,-1.92511c1.66319,0 3.03827,0.43872 4.12524,1.31615c1.10006,0.86434 1.6501,1.72212 1.6501,2.57336c0,0.40597 -0.1506,0.74647 -0.45181,1.02149c-0.28811,0.27502 -0.62861,0.41252 -1.02149,0.41252c-0.49765,0 -0.88398,-0.20953 -1.159,-0.62861c-0.61551,-0.92982 -1.159,-1.51914 -1.63045,-1.76796c-0.47146,-0.24882 -0.9822,-0.37324 -1.53223,-0.37324c-1.07387,0 -1.90547,0.41252 -2.49479,1.23757c-0.57623,0.81195 -0.86434,1.83344 -0.86434,3.06446c0,1.25722 0.30121,2.28525 0.90362,3.08411c0.61551,0.79885 1.43401,1.19828 2.4555,1.19828c0.57623,0 1.10661,-0.13751 1.59116,-0.41252c0.49765,-0.27502 0.92327,-0.68754 1.27686,-1.23757c0.35359,-0.56313 0.63516,-0.94946 0.84469,-1.159c0.20953,-0.20953 0.4911,-0.3143 0.84469,-0.3143zM474.39977,180.26536c0.43217,0 0.8054,0.1506 1.11971,0.45181c0.3274,0.28811 0.4911,0.6679 0.4911,1.13935c0,1.28341 -0.64825,2.6061 -1.94476,3.96809c-1.2965,1.34889 -3.1234,2.02333 -5.48068,2.02333c-2.89422,0 -5.0616,-0.89707 -6.50216,-2.69123c-1.42746,-1.79415 -2.1412,-3.99428 -2.1412,-6.60038c0,-2.80254 0.79885,-5.05506 2.39657,-6.75754c1.59771,-1.71558 3.67998,-2.57336 6.24679,-2.57336c2.22632,0 4.00738,0.61551 5.34317,1.84654c1.33579,1.23102 2.00369,2.44241 2.00369,3.63414c0,0.37979 -0.14406,0.73338 -0.43217,1.06078c-0.28811,0.3274 -0.68099,0.4911 -1.17864,0.4911c-0.43217,0 -0.76612,-0.11786 -1.00184,-0.35359c-0.22263,-0.24882 -0.53039,-0.73992 -0.92327,-1.4733c-0.39288,-0.73338 -0.92982,-1.2965 -1.61081,-1.68938c-0.68099,-0.40597 -1.42092,-0.60896 -2.21977,-0.60896c-1.50604,0 -2.70432,0.56968 -3.59485,1.70903c-0.89053,1.12626 -1.33579,2.75016 -1.33579,4.87171c0,2.10846 0.43217,3.67343 1.2965,4.69492c0.87743,1.02149 2.05607,1.53223 3.53592,1.53223c2.10846,0 3.52283,-1.02149 4.2431,-3.06446c0.24882,-0.68099 0.50419,-1.11971 0.76612,-1.31615c0.27502,-0.19644 0.58277,-0.29466 0.92327,-0.29466zM484.87985,174.21501c2.08226,0 3.71927,0.6417 4.911,1.92511c1.19173,1.27031 1.7876,2.90076 1.7876,4.89136c0,1.99059 -0.60241,3.62759 -1.80725,4.911c-1.20483,1.27031 -2.80254,1.90547 -4.79314,1.90547c-2.16084,0 -3.83058,-0.64825 -5.00922,-1.94476c-1.17864,-1.2965 -1.76796,-2.92041 -1.76796,-4.87171c0,-1.99059 0.59587,-3.62105 1.7876,-4.89136c1.19173,-1.28341 2.82219,-1.92511 4.89136,-1.92511zM484.87985,185.35315c1.02149,0 1.82689,-0.37979 2.41621,-1.13935c0.58932,-0.77267 0.88398,-1.83344 0.88398,-3.18233c0,-1.36199 -0.29466,-2.42276 -0.88398,-3.18233c-0.58932,-0.77267 -1.39472,-1.159 -2.41621,-1.159c-0.99529,0 -1.79415,0.38633 -2.39657,1.159c-0.58932,0.77267 -0.88398,1.83344 -0.88398,3.18233c0,1.34889 0.29466,2.40966 0.88398,3.18233c0.58932,0.75957 1.38817,1.13935 2.39657,1.13935zM500.06712,174.21501c2.08226,0 3.71927,0.6417 4.911,1.92511c1.19173,1.27031 1.7876,2.90076 1.7876,4.89136c0,1.99059 -0.60241,3.62759 -1.80725,4.911c-1.20483,1.27031 -2.80254,1.90547 -4.79314,1.90547c-2.16084,0 -3.83058,-0.64825 -5.00922,-1.94476c-1.17864,-1.2965 -1.76796,-2.92041 -1.76796,-4.87171c0,-1.99059 0.59587,-3.62105 1.7876,-4.89136c1.19173,-1.28341 2.82219,-1.92511 4.89136,-1.92511zM500.06712,185.35315c1.02149,0 1.82689,-0.37979 2.41621,-1.13935c0.58932,-0.77267 0.88398,-1.83344 0.88398,-3.18233c0,-1.36199 -0.29466,-2.42276 -0.88398,-3.18233c-0.58932,-0.77267 -1.39472,-1.159 -2.41621,-1.159c-0.99529,0 -1.79415,0.38633 -2.39657,1.159c-0.58932,0.77267 -0.88398,1.83344 -0.88398,3.18233c0,1.34889 0.29466,2.40966 0.88398,3.18233c0.58932,0.75957 1.38817,1.13935 2.39657,1.13935zM512.75959,171.99523v13.06326c0,0.81195 -0.03929,1.36853 -0.11786,1.66974c-0.06548,0.28811 -0.25537,0.55003 -0.56968,0.78576c-0.30121,0.22263 -0.62861,0.33395 -0.9822,0.33395c-0.35359,0 -0.68754,-0.11131 -1.00184,-0.33395c-0.3143,-0.23573 -0.51074,-0.50419 -0.58932,-0.8054c-0.06548,-0.30121 -0.09822,-0.85124 -0.09822,-1.6501v-13.06326c0,-0.82505 0.03929,-1.38163 0.11786,-1.66974c0.07858,-0.30121 0.26847,-0.55658 0.56968,-0.76612c0.30121,-0.22263 0.62861,-0.33395 0.9822,-0.33395c0.40597,0 0.75302,0.11786 1.04113,0.35359c0.30121,0.23573 0.48455,0.51074 0.55003,0.82505c0.06548,0.3143 0.09822,0.84469 0.09822,1.59116z" fill="#c1c1c1" stroke="none" stroke-width="1" stroke-linecap="square"/></g></g></svg>