<svg version="1.1" xmlns="http://www.w3.org/2000/svg" xmlns:xlink="http://www.w3.org/1999/xlink" width="304.3003" height="304.30025" viewBox="0,0,304.3003,304.30025"><g transform="translate(-92.84991,-32.8499)"><g data-paper-data="{&quot;isPaintingLayer&quot;:true}" fill-rule="nonzero" stroke-linecap="butt" stroke-linejoin="miter" stroke-miterlimit="10" stroke-dasharray="" stroke-dashoffset="0" style="mix-blend-mode: normal"><path d="M94.84992,275.23519c0,-59.99896 0,-148.11906 0,-181.81815c0,-26.16557 22.73163,-58.56714 54.69562,-58.56714c60.91162,0 155.35022,0 189.899,0c25.1397,0 55.70568,31.10369 55.70568,56.54696c0,34.37139 0,127.20919 0,187.87876c0,32.57375 -30.56593,55.87453 -55.70568,55.87453c-33.79375,0 -124.88841,0 -185.85858,0c-34.07175,0 -58.73599,-25.26921 -58.73599,-59.91496z" fill="#83a08b" stroke="#83a08b" stroke-width="4"/><g stroke-width="15"><path d="M335.11587,231.21422c0,15.77632 -42.07473,28.56555 -93.97653,28.56555c-51.90184,0 -87.35264,-11.13328 -87.35264,-26.9096c0,-15.77632 54.49454,-33.53346 93.97653,-34.36147c46.45825,-2.87059 87.35264,16.9292 87.35264,32.70552z" fill="#4c4c4c" stroke="none"/><path d="M333.14425,148.41277c0.8226,3.40719 1.09287,11.40617 2.93111,18.80556c1.64499,6.62148 4.88452,12.59329 5.39546,17.11646c1.48101,13.11072 -1.76609,26.641 -4.62334,37.38951c-3.07191,11.55603 -7.6603,19.89666 -11.63455,21.04361c-2.79398,0.80633 -3.00537,-19.99859 -6.46025,-36.88188c-3.64935,-17.83348 -8.72342,-32.17774 -6.95533,-46.30758c0,0 3.56706,-29.88067 21.3469,-11.16568z" data-paper-data="{&quot;index&quot;:null}" fill="#9c915c" stroke="#000000"/><path d="M134.3083,279.35v-194.85138h234.84271v194.85138z" fill="none" stroke="none"/><path d="M196.06857,132.31161c26.18044,-8.23233 63.18719,-9.07419 86.30224,-0.57938c5.45489,2.00467 6.88215,3.89104 10.93931,6.80309c3.19645,2.29428 5.98178,5.13169 8.40825,7.35585c17.33027,15.88534 16.35611,30.9344 16.12376,40.03867c-0.21241,8.32279 -7.87911,11.86755 -15.97492,13.75702c-28.38915,6.6257 -95.63939,20.07837 -125.2055,6.76439c-19.45903,-8.76266 -14.98722,-33.46897 -8.27946,-50.10543c8.63527,-18.36072 21.03146,-21.94163 27.68636,-24.03425z" fill="#664637" stroke="none"/><path d="M187.39964,139.60559c0,0 34.51929,-14.93229 52.26302,-14.93229c18.41354,0 56.85756,20.10114 56.85756,20.10114l0.57431,10.91209c0,0 -3.03114,10.25037 -10.30309,13.34111c-5.04126,2.14265 -11.39637,-4.58202 -19.64313,-2.16341c-16.82434,4.93425 -42.71003,11.66855 -58.43258,12.16638c-14.37813,0.45525 -10.63259,-15.67701 -24.07461,-15.59774c-14.56511,0.0859 2.75852,-23.82728 2.75852,-23.82728z" fill="#9c915c" stroke="none"/><path d="M282.37081,131.73223c5.45489,2.00467 6.88215,3.89104 10.93931,6.80312c3.19645,2.29428 5.98178,5.13169 8.40825,7.35585c17.33027,15.88534 16.35611,30.93437 16.12376,40.03867c-0.21241,8.32279 -2.77383,8.464 -10.86964,10.35347c-1.95532,0.45634 -13.48504,-3.43064 -15.75376,-2.79915c-15.1171,4.2078 -12.34126,11.19366 -22.30094,12.92469c-31.53941,5.48171 -71.33344,9.46413 -92.25609,0.04241c-19.45903,-8.76266 -14.98722,-33.46897 -8.27943,-50.10543c8.63527,-18.36072 21.03142,-21.94166 27.68632,-24.03428c6.6549,-2.09262 63.18715,-9.07415 86.30221,-0.57935z" fill="none" stroke="#000000"/><path d="M134.30841,279.35v-194.85138h234.84271v194.85138z" fill="none" stroke="none"/><path d="M148.81975,236.81178c-10.37127,-2.99309 -6.25961,-62.75249 -0.2734,-87.54814c2.46398,-10.2062 18.81907,-6.48312 21.3469,13.71835c3.44194,27.50675 -15.32825,75.48781 -21.07349,73.82978z" fill="#9c915c" stroke="#000000"/><path d="M230.50417,258.93465c-7.67081,-2.21375 -14.22592,-33.7793 -11.15261,-60.98576c1.08191,-9.57777 6.76789,-18.40438 8.32657,-24.86059c2.46398,-10.2062 18.81907,-6.48312 21.3469,13.71835c3.44194,27.50675 -12.77561,73.78605 -18.52085,72.12802z" fill="#9c915c" stroke="#000000"/><path d="M134.30834,279.35v-194.85138h234.84271v194.85138z" fill="none" stroke="none"/></g></g></g></svg>