<svg version="1.1" xmlns="http://www.w3.org/2000/svg" xmlns:xlink="http://www.w3.org/1999/xlink" width="165.55475" height="8.10229" viewBox="0,0,165.55475,8.10229"><g transform="translate(-157.22262,-175.94885)"><g data-paper-data="{&quot;isPaintingLayer&quot;:true}" fill="#12ff00" fill-rule="nonzero" stroke="none" stroke-width="1" stroke-linecap="square" stroke-linejoin="miter" stroke-miterlimit="10" stroke-dasharray="" stroke-dashoffset="0" style="mix-blend-mode: normal"><path d="M158.80374,177.30779v1.91446h3.02553c0.2564,0 0.43874,0.01139 0.54699,0.03418c0.11395,0.02279 0.21652,0.08832 0.30768,0.19657c0.09116,0.10256 0.13675,0.22506 0.13675,0.3675c0,0.12535 -0.05413,0.2621 -0.16239,0.41025c-0.10256,0.14245 -0.37891,0.21366 -0.82903,0.21366h-3.02553v2.24778h3.41868c0.30768,0 0.51566,0.0114 0.62391,0.03419c0.10825,0.01709 0.20512,0.07977 0.29059,0.18803c0.08546,0.10256 0.1282,0.22791 0.1282,0.37606c0,0.14245 -0.04558,0.27065 -0.13674,0.3846c-0.08546,0.10825 -0.19088,0.17663 -0.31623,0.20512c-0.11966,0.02279 -0.31623,0.03419 -0.58972,0.03419h-3.67507c-0.56408,0 -0.89171,-0.03988 -0.98287,-0.11965c-0.08546,-0.08546 -0.16524,-0.17663 -0.23931,-0.27349c-0.06838,-0.10256 -0.10256,-0.41309 -0.10256,-0.93159v-5.17929c0,-0.56978 0.03988,-0.89456 0.11966,-0.97433c0.08546,-0.07977 0.17663,-0.15669 0.27349,-0.23076c0.10256,-0.07977 0.41309,-0.11965 0.93159,-0.11965h3.55542c0.27919,0 0.47292,0.01139 0.58117,0.03418c0.11395,0.01709 0.21367,0.07977 0.29913,0.18803c0.09116,0.10256 0.13675,0.23076 0.13675,0.3846c0,0.14814 -0.04274,0.27635 -0.12821,0.3846c-0.08546,0.10825 -0.18518,0.17379 -0.29913,0.19657c-0.11395,0.02279 -0.31053,0.03418 -0.58972,0.03418zM165.86972,177.15395v5.68355c0,0.35327 -0.0171,0.59542 -0.05128,0.72647c-0.02849,0.12535 -0.11111,0.23931 -0.24786,0.34186c-0.13105,0.09686 -0.27349,0.14529 -0.42733,0.14529c-0.15384,0 -0.29914,-0.04843 -0.43588,-0.14529c-0.13675,-0.10256 -0.22222,-0.21936 -0.2564,-0.35041c-0.02849,-0.13105 -0.04274,-0.37036 -0.04274,-0.71792v-5.68355c0,-0.35896 0.0171,-0.60112 0.05128,-0.72647c0.03418,-0.13105 0.1168,-0.24215 0.24786,-0.33332c0.13105,-0.09686 0.27349,-0.1453 0.42733,-0.1453c0.17663,0 0.32762,0.05128 0.45297,0.15384c0.13105,0.10256 0.21082,0.22222 0.23931,0.35896c0.02849,0.13675 0.04273,0.36751 0.04273,0.69228zM171.44109,181.44439h-2.86314c0.01709,0.54129 0.16524,0.94868 0.44443,1.22218c0.28489,0.2735 0.62676,0.41024 1.0256,0.41024c0.48431,0 0.94298,-0.21366 1.37601,-0.641c0.17663,-0.17663 0.30484,-0.28489 0.38461,-0.32477c0.08546,-0.04559 0.17948,-0.06838 0.28204,-0.06838c0.13105,0 0.24215,0.04273 0.33332,0.1282c0.09686,0.07977 0.1453,0.17948 0.1453,0.29914c0,0.33047 -0.22507,0.67804 -0.67519,1.0427c-0.44443,0.35896 -1.05125,0.53844 -1.82045,0.53844c-0.97432,0 -1.71504,-0.27634 -2.22214,-0.82903c-0.50141,-0.55268 -0.75211,-1.26491 -0.75211,-2.13667c0,-0.88316 0.2507,-1.59823 0.75211,-2.14522c0.5071,-0.54699 1.21078,-0.82049 2.11103,-0.82049c0.85467,0 1.51561,0.25925 1.98283,0.77775c0.46722,0.5128 0.70083,1.07118 0.70083,1.67515c0,0.26779 -0.07692,0.48147 -0.23076,0.64101c-0.15384,0.15384 -0.47862,0.23076 -0.97433,0.23076zM168.57795,180.61536h2.65802c-0.01709,-0.48431 -0.15099,-0.85467 -0.4017,-1.11107c-0.2507,-0.2564 -0.55839,-0.3846 -0.92305,-0.3846c-0.7749,0 -1.21932,0.49855 -1.33328,1.49567zM178.4889,181.60677c0.17663,0 0.32193,0.07122 0.43588,0.21367c0.11965,0.13675 0.17948,0.27634 0.17948,0.41879c0,0.39884 -0.23646,0.80054 -0.70938,1.20508c-0.47292,0.40454 -1.10822,0.60681 -1.90591,0.60681c-0.95723,0 -1.68085,-0.27064 -2.17086,-0.81193c-0.48431,-0.54699 -0.72647,-1.25637 -0.72647,-2.12813c0,-0.87746 0.25355,-1.59538 0.76065,-2.15377c0.5071,-0.55838 1.22788,-0.83758 2.16232,-0.83758c0.72362,0 1.32188,0.19088 1.7948,0.57263c0.47862,0.37606 0.71792,0.74926 0.71792,1.11962c0,0.17663 -0.06552,0.32477 -0.19657,0.44443c-0.12535,0.11966 -0.27349,0.17948 -0.44443,0.17948c-0.21652,0 -0.3846,-0.09116 -0.50426,-0.27349c-0.2678,-0.40454 -0.50426,-0.66095 -0.70937,-0.7692c-0.20512,-0.10825 -0.42733,-0.16239 -0.66664,-0.16239c-0.46722,0 -0.82903,0.17948 -1.08543,0.53844c-0.2507,0.35327 -0.37605,0.79769 -0.37605,1.33328c0,0.54699 0.13104,0.99427 0.39314,1.34183c0.2678,0.34756 0.62391,0.52135 1.06834,0.52135c0.2507,0 0.48147,-0.05982 0.69228,-0.17948c0.21652,-0.11966 0.4017,-0.29914 0.55554,-0.53844c0.15384,-0.245 0.27634,-0.41309 0.36751,-0.50425c0.09117,-0.09116 0.21366,-0.13675 0.3675,-0.13675zM180.61383,178.24792v-0.88031c0,-0.35896 0.01425,-0.60111 0.04274,-0.72646c0.03418,-0.13105 0.11395,-0.24786 0.2393,-0.35041c0.12535,-0.10256 0.2735,-0.15384 0.44443,-0.15384c0.15954,0 0.30198,0.04558 0.42733,0.13674c0.12535,0.09116 0.20797,0.20513 0.24786,0.34187c0.03988,0.13105 0.05983,0.34472 0.05983,0.641v0.99141h0.28204c0.35896,0 0.59542,0.04273 0.70937,0.1282c0.11965,0.08546 0.17947,0.21367 0.17947,0.3846c0,0.35896 -0.29913,0.53844 -0.89739,0.53844h-0.2735v2.69221c0,0.36466 0.02564,0.61252 0.07692,0.74357c0.05128,0.13105 0.18802,0.19657 0.41024,0.19657c0.10825,0 0.22791,-0.01425 0.35896,-0.04273c0.13675,-0.03418 0.23646,-0.05128 0.29913,-0.05128c0.14814,0 0.2678,0.04843 0.35896,0.14529c0.09117,0.09686 0.13675,0.21366 0.13675,0.35041c0,0.47861 -0.50426,0.71792 -1.51276,0.71792c-0.49001,0 -0.84898,-0.09116 -1.07689,-0.27349c-0.22791,-0.18233 -0.37036,-0.4017 -0.42733,-0.6581c-0.05697,-0.2621 -0.08546,-0.60396 -0.08546,-1.0256v-2.79477h-0.18803c-0.43303,0 -0.64955,-0.17663 -0.64955,-0.52989c0,-0.34756 0.22791,-0.52135 0.68373,-0.52135zM184.23869,182.8375v-3.73491c0,-0.65524 0.23931,-0.98287 0.71792,-0.98287c0.46152,0 0.69799,0.30199 0.70938,0.90595c0.30199,-0.60397 0.72077,-0.90595 1.25636,-0.90595c0.27919,0 0.56978,0.07407 0.87176,0.22222c0.30199,0.14814 0.45298,0.35041 0.45298,0.60681c0,0.17663 -0.06268,0.32477 -0.18803,0.44443c-0.11965,0.11395 -0.24785,0.17093 -0.3846,0.17093c-0.07977,0 -0.22222,-0.03133 -0.42733,-0.09401c-0.20512,-0.06268 -0.37605,-0.09402 -0.5128,-0.09402c-0.34757,0 -0.60681,0.17663 -0.77775,0.5299c-0.17094,0.34756 -0.2564,1.0256 -0.2564,2.03411v0.84612c0,0.37036 -0.01709,0.62106 -0.05128,0.75211c-0.02849,0.13105 -0.10826,0.2507 -0.23931,0.35896c-0.12535,0.10256 -0.27065,0.15384 -0.43588,0.15384c-0.16523,0 -0.31337,-0.04843 -0.44442,-0.14529c-0.12535,-0.09686 -0.20513,-0.20797 -0.23931,-0.33332c-0.03418,-0.13105 -0.05128,-0.37605 -0.05128,-0.73501zM189.77375,176.01723c0.19373,0 0.35896,0.07122 0.49571,0.21366c0.13675,0.14245 0.20512,0.30769 0.20512,0.49571c0,0.19372 -0.06838,0.36181 -0.20512,0.50426c-0.13675,0.13675 -0.30198,0.20512 -0.49571,0.20512c-0.19373,0 -0.36181,-0.06837 -0.50426,-0.20512c-0.13675,-0.14245 -0.20512,-0.31053 -0.20512,-0.50426c0,-0.19372 0.06837,-0.35897 0.20512,-0.49571c0.14244,-0.14245 0.31053,-0.21366 0.50426,-0.21366zM190.50022,179.30771v3.52979c0,0.35327 -0.0171,0.59542 -0.05128,0.72647c-0.02849,0.12535 -0.11111,0.23931 -0.24786,0.34186c-0.13105,0.09686 -0.27349,0.14529 -0.42733,0.14529c-0.15384,0 -0.29913,-0.04843 -0.43588,-0.14529c-0.13675,-0.10256 -0.22222,-0.21936 -0.25641,-0.35041c-0.02849,-0.13105 -0.04273,-0.37036 -0.04273,-0.71792v-3.52124c0,-0.31907 0.0114,-0.54413 0.03419,-0.67518c0.02849,-0.13675 0.10826,-0.2564 0.23931,-0.35896c0.13105,-0.10825 0.28203,-0.16239 0.45297,-0.16239c0.17094,0 0.31908,0.04843 0.44443,0.1453c0.12535,0.09116 0.20513,0.21081 0.23931,0.35896c0.03418,0.14245 0.05128,0.37036 0.05128,0.68374zM196.61858,181.60677c0.17663,0 0.32192,0.07122 0.43588,0.21367c0.11965,0.13675 0.17948,0.27634 0.17948,0.41879c0,0.39884 -0.23645,0.80054 -0.70937,1.20508c-0.47292,0.40454 -1.10822,0.60681 -1.90591,0.60681c-0.95723,0 -1.68085,-0.27064 -2.17086,-0.81193c-0.48431,-0.54699 -0.72647,-1.25637 -0.72647,-2.12813c0,-0.87746 0.25355,-1.59538 0.76065,-2.15377c0.5071,-0.55838 1.22788,-0.83758 2.16232,-0.83758c0.72362,0 1.32188,0.19088 1.7948,0.57263c0.47862,0.37606 0.71792,0.74926 0.71792,1.11962c0,0.17663 -0.06552,0.32477 -0.19657,0.44443c-0.12535,0.11966 -0.27349,0.17948 -0.44442,0.17948c-0.21652,0 -0.3846,-0.09116 -0.50426,-0.27349c-0.2678,-0.40454 -0.50426,-0.66095 -0.70938,-0.7692c-0.20512,-0.10825 -0.42734,-0.16239 -0.66664,-0.16239c-0.46722,0 -0.82903,0.17948 -1.08543,0.53844c-0.2507,0.35327 -0.37605,0.79769 -0.37605,1.33328c0,0.54699 0.13105,0.99427 0.39315,1.34183c0.2678,0.34756 0.62391,0.52135 1.06834,0.52135c0.2507,0 0.48147,-0.05982 0.69228,-0.17948c0.21652,-0.11966 0.40169,-0.29914 0.55553,-0.53844c0.15384,-0.245 0.27634,-0.41309 0.36751,-0.50425c0.09117,-0.09116 0.21367,-0.13675 0.36751,-0.13675zM202.18781,183.22209c-0.68943,0.55268 -1.36747,0.82903 -2.03411,0.82903c-0.63245,0 -1.11962,-0.15954 -1.46149,-0.47861c-0.33617,-0.32477 -0.50426,-0.71792 -0.50426,-1.17944c0,-0.39884 0.11396,-0.71792 0.34187,-0.95723c0.23361,-0.245 0.48431,-0.41594 0.75211,-0.5128c0.27349,-0.09686 0.71507,-0.20797 1.32474,-0.33332c0.60967,-0.12535 1.10252,-0.24216 1.47857,-0.35041c-0.0057,-0.44443 -0.09401,-0.74356 -0.26494,-0.8974c-0.17094,-0.15384 -0.43018,-0.23076 -0.77775,-0.23076c-0.66094,0 -1.09398,0.18517 -1.29909,0.55553c-0.11396,0.21082 -0.21652,0.36181 -0.30768,0.45298c-0.08546,0.08546 -0.21082,0.1282 -0.37605,0.1282c-0.15384,0 -0.29344,-0.04843 -0.41879,-0.14529c-0.12535,-0.10256 -0.18803,-0.23646 -0.18803,-0.4017c0,-0.37606 0.20512,-0.73217 0.61536,-1.06834c0.41024,-0.34187 1.05409,-0.5128 1.93155,-0.5128c0.88886,0 1.53841,0.15384 1.94865,0.46152c0.41594,0.30768 0.61251,0.92874 0.58972,1.86318l-0.03419,1.36747c-0.01139,0.42734 0.03134,0.7749 0.1282,1.0427c0.10256,0.2621 0.15384,0.46437 0.15384,0.60681c0,0.15384 -0.06837,0.29059 -0.20512,0.41024c-0.13105,0.11966 -0.28204,0.17948 -0.45297,0.17948c-0.29628,0 -0.60967,-0.27634 -0.94014,-0.82903zM202.0938,181.11106c-0.21652,0.08546 -0.57548,0.17948 -1.07688,0.28204c-0.50141,0.09686 -0.85752,0.21081 -1.06834,0.34186c-0.20512,0.12535 -0.30768,0.31338 -0.30768,0.56409c0,0.20512 0.08262,0.3903 0.24785,0.55553c0.16523,0.15954 0.4017,0.23931 0.70938,0.23931c0.31907,0 0.61536,-0.08832 0.88885,-0.26495c0.27919,-0.17663 0.45012,-0.3846 0.5128,-0.6239c0.06267,-0.245 0.09401,-0.60967 0.09401,-1.09398zM206.4665,177.15395v5.68355c0,0.35327 -0.0171,0.59542 -0.05128,0.72647c-0.02849,0.12535 -0.11111,0.23931 -0.24786,0.34186c-0.13105,0.09686 -0.27349,0.14529 -0.42733,0.14529c-0.15384,0 -0.29913,-0.04843 -0.43588,-0.14529c-0.13675,-0.10256 -0.22222,-0.21936 -0.2564,-0.35041c-0.02849,-0.13105 -0.04273,-0.37036 -0.04273,-0.71792v-5.68355c0,-0.35896 0.01709,-0.60112 0.05128,-0.72647c0.03418,-0.13105 0.1168,-0.24215 0.24786,-0.33332c0.13105,-0.09686 0.27349,-0.1453 0.42733,-0.1453c0.17663,0 0.32762,0.05128 0.45297,0.15384c0.13105,0.10256 0.21081,0.22222 0.23931,0.35896c0.02849,0.13675 0.04274,0.36751 0.04274,0.69228zM208.93543,178.11973c0.21652,0 0.40169,0.07977 0.55553,0.23931c0.15954,0.15384 0.23931,0.33902 0.23931,0.55554c0,0.22222 -0.07977,0.41309 -0.23931,0.57263c-0.15384,0.15954 -0.33902,0.23931 -0.55553,0.23931c-0.22222,0 -0.41309,-0.07977 -0.57263,-0.23931c-0.15954,-0.15954 -0.23931,-0.35041 -0.23931,-0.57263c0,-0.21652 0.07977,-0.4017 0.23931,-0.55554c0.15954,-0.15954 0.35041,-0.23931 0.57263,-0.23931zM208.93543,182.43581c0.21652,0 0.40169,0.07977 0.55553,0.23931c0.15954,0.15384 0.23931,0.34187 0.23931,0.56409c0,0.21652 -0.07977,0.40739 -0.23931,0.57262c-0.15384,0.15954 -0.33902,0.23931 -0.55553,0.23931c-0.22222,0 -0.41309,-0.07977 -0.57263,-0.23931c-0.15954,-0.15954 -0.23931,-0.35041 -0.23931,-0.57262c0,-0.22222 0.07977,-0.41025 0.23931,-0.56409c0.15954,-0.15954 0.35041,-0.23931 0.57263,-0.23931zM220.72667,180.7521c0.18802,0 0.35041,0.06552 0.48716,0.19657c0.14244,0.12535 0.21367,0.29059 0.21367,0.49571c0,0.55838 -0.28204,1.13386 -0.84613,1.72643c-0.56408,0.58687 -1.35892,0.88031 -2.38453,0.88031c-1.25921,0 -2.20219,-0.39029 -2.82895,-1.17089c-0.62106,-0.7806 -0.93159,-1.73783 -0.93159,-2.87169c0,-1.21933 0.34756,-2.19936 1.04269,-2.94007c0.69513,-0.74641 1.60108,-1.11962 2.71785,-1.11962c0.96863,0 1.74353,0.2678 2.3247,0.80339c0.58118,0.53559 0.87176,1.06264 0.87176,1.58114c0,0.16523 -0.06267,0.31907 -0.18802,0.46152c-0.12535,0.14245 -0.29629,0.21367 -0.51281,0.21367c-0.18802,0 -0.33332,-0.05128 -0.43588,-0.15384c-0.09686,-0.10825 -0.23076,-0.32193 -0.40169,-0.641c-0.17094,-0.31907 -0.40454,-0.56408 -0.70083,-0.73501c-0.29628,-0.17663 -0.61821,-0.26495 -0.96578,-0.26495c-0.65524,0 -1.1766,0.24786 -1.56405,0.74357c-0.38745,0.49001 -0.58117,1.19653 -0.58117,2.11958c0,0.91735 0.18802,1.59822 0.56408,2.04265c0.38175,0.44443 0.89455,0.66665 1.5384,0.66665c0.91735,0 1.53271,-0.44443 1.84609,-1.33328c0.10825,-0.29629 0.21936,-0.48717 0.33332,-0.57263c0.11965,-0.08546 0.25355,-0.1282 0.4017,-0.1282zM226.42304,183.22209c-0.68943,0.55268 -1.36747,0.82903 -2.03411,0.82903c-0.63245,0 -1.11962,-0.15954 -1.46149,-0.47861c-0.33617,-0.32477 -0.50426,-0.71792 -0.50426,-1.17944c0,-0.39884 0.11396,-0.71792 0.34187,-0.95723c0.23361,-0.245 0.48431,-0.41594 0.75211,-0.5128c0.27349,-0.09686 0.71507,-0.20797 1.32474,-0.33332c0.60967,-0.12535 1.10253,-0.24216 1.47858,-0.35041c-0.0057,-0.44443 -0.09401,-0.74356 -0.26495,-0.8974c-0.17094,-0.15384 -0.43018,-0.23076 -0.77775,-0.23076c-0.66094,0 -1.09398,0.18517 -1.2991,0.55553c-0.11396,0.21082 -0.21652,0.36181 -0.30768,0.45298c-0.08546,0.08546 -0.21082,0.1282 -0.37605,0.1282c-0.15384,0 -0.29344,-0.04843 -0.41878,-0.14529c-0.12535,-0.10256 -0.18803,-0.23646 -0.18803,-0.4017c0,-0.37606 0.20512,-0.73217 0.61536,-1.06834c0.41024,-0.34187 1.05409,-0.5128 1.93155,-0.5128c0.88886,0 1.5384,0.15384 1.94864,0.46152c0.41594,0.30768 0.61252,0.92874 0.58973,1.86318l-0.03419,1.36747c-0.01139,0.42734 0.03134,0.7749 0.1282,1.0427c0.10256,0.2621 0.15384,0.46437 0.15384,0.60681c0,0.15384 -0.06838,0.29059 -0.20512,0.41024c-0.13105,0.11966 -0.28204,0.17948 -0.45297,0.17948c-0.29628,0 -0.60966,-0.27634 -0.94013,-0.82903zM226.32902,181.11106c-0.21652,0.08546 -0.57547,0.17948 -1.07688,0.28204c-0.50141,0.09686 -0.85753,0.21081 -1.06834,0.34186c-0.20512,0.12535 -0.30768,0.31338 -0.30768,0.56409c0,0.20512 0.08262,0.3903 0.24786,0.55553c0.16523,0.15954 0.40169,0.23931 0.70937,0.23931c0.31907,0 0.61536,-0.08832 0.88886,-0.26495c0.27919,-0.17663 0.45013,-0.3846 0.5128,-0.6239c0.06267,-0.245 0.09401,-0.60967 0.09401,-1.09398zM230.70173,177.15395v5.68355c0,0.35327 -0.0171,0.59542 -0.05128,0.72647c-0.02849,0.12535 -0.11111,0.23931 -0.24785,0.34186c-0.13105,0.09686 -0.27349,0.14529 -0.42733,0.14529c-0.15384,0 -0.29914,-0.04843 -0.43588,-0.14529c-0.13674,-0.10256 -0.22222,-0.21936 -0.25641,-0.35041c-0.02849,-0.13105 -0.04273,-0.37036 -0.04273,-0.71792v-5.68355c0,-0.35896 0.01709,-0.60112 0.05128,-0.72647c0.03419,-0.13105 0.11681,-0.24215 0.24786,-0.33332c0.13105,-0.09686 0.27349,-0.1453 0.42733,-0.1453c0.17663,0 0.32763,0.05128 0.45298,0.15384c0.13105,0.10256 0.21082,0.22222 0.23931,0.35896c0.02849,0.13675 0.04273,0.36751 0.04273,0.69228zM232.93988,176.01723c0.19373,0 0.35897,0.07122 0.49571,0.21366c0.13674,0.14245 0.20512,0.30769 0.20512,0.49571c0,0.19372 -0.06838,0.36181 -0.20512,0.50426c-0.13674,0.13675 -0.30199,0.20512 -0.49571,0.20512c-0.19373,0 -0.36181,-0.06837 -0.50426,-0.20512c-0.13674,-0.14245 -0.20512,-0.31053 -0.20512,-0.50426c0,-0.19372 0.06838,-0.35897 0.20512,-0.49571c0.14245,-0.14245 0.31053,-0.21366 0.50426,-0.21366zM233.66635,179.30771v3.52979c0,0.35327 -0.01709,0.59542 -0.05128,0.72647c-0.02849,0.12535 -0.11111,0.23931 -0.24785,0.34186c-0.13105,0.09686 -0.27349,0.14529 -0.42733,0.14529c-0.15384,0 -0.29914,-0.04843 -0.43588,-0.14529c-0.13674,-0.10256 -0.22222,-0.21936 -0.2564,-0.35041c-0.02849,-0.13105 -0.04273,-0.37036 -0.04273,-0.71792v-3.52124c0,-0.31907 0.0114,-0.54413 0.03419,-0.67518c0.02849,-0.13675 0.10826,-0.2564 0.23931,-0.35896c0.13105,-0.10825 0.28204,-0.16239 0.45298,-0.16239c0.17093,0 0.31908,0.04843 0.44443,0.1453c0.12535,0.09116 0.20512,0.21081 0.23931,0.35896c0.03419,0.14245 0.05128,0.37036 0.05128,0.68374zM236.49424,183.06826v0.1453c0,0.55838 -0.23931,0.83757 -0.71793,0.83757c-0.18803,0 -0.34472,-0.04843 -0.47007,-0.14529c-0.12535,-0.09686 -0.20227,-0.21367 -0.23076,-0.35041c-0.02279,-0.13675 -0.03419,-0.35326 -0.03419,-0.64954v-5.74338c0,-0.33047 0.01424,-0.56977 0.04273,-0.71792c0.03419,-0.15384 0.11681,-0.2735 0.24786,-0.35896c0.13674,-0.09116 0.28204,-0.13675 0.43588,-0.13675c0.21651,0 0.3903,0.06552 0.52135,0.19657c0.13674,0.12535 0.20512,0.45012 0.20512,0.97432v1.88882c0.54699,-0.59257 1.18799,-0.88886 1.923,-0.88886c0.7578,0 1.35038,0.27065 1.77771,0.81194c0.42733,0.53559 0.641,1.22503 0.641,2.0683c0,0.90025 -0.21937,1.63527 -0.6581,2.20504c-0.43873,0.56408 -1.03131,0.84612 -1.77772,0.84612c-0.76351,0 -1.3988,-0.32763 -1.90591,-0.98287zM236.57116,181.14526c0,0.56408 0.13674,1.00281 0.41024,1.31619c0.27349,0.31338 0.61537,0.47007 1.02561,0.47007c0.35326,0 0.66664,-0.15099 0.94013,-0.45298c0.27919,-0.30199 0.41878,-0.7806 0.41878,-1.43584c0,-0.56408 -0.12534,-1.00567 -0.37605,-1.32474c-0.25071,-0.32477 -0.57548,-0.48716 -0.97432,-0.48716c-0.43873,0 -0.78915,0.17379 -1.05125,0.52135c-0.2621,0.34756 -0.39314,0.81194 -0.39314,1.39311zM241.99831,182.8375v-3.73491c0,-0.65524 0.23931,-0.98287 0.71792,-0.98287c0.46152,0 0.69798,0.30199 0.70938,0.90595c0.30199,-0.60397 0.72077,-0.90595 1.25636,-0.90595c0.27919,0 0.56977,0.07407 0.87176,0.22222c0.30199,0.14814 0.45298,0.35041 0.45298,0.60681c0,0.17663 -0.06268,0.32477 -0.18803,0.44443c-0.11965,0.11395 -0.24786,0.17093 -0.3846,0.17093c-0.07977,0 -0.22222,-0.03133 -0.42733,-0.09401c-0.20512,-0.06268 -0.37606,-0.09402 -0.5128,-0.09402c-0.34757,0 -0.60681,0.17663 -0.77775,0.5299c-0.17093,0.34756 -0.25641,1.0256 -0.25641,2.03411v0.84612c0,0.37036 -0.01709,0.62106 -0.05128,0.75211c-0.02849,0.13105 -0.10826,0.2507 -0.23931,0.35896c-0.12535,0.10256 -0.27065,0.15384 -0.43588,0.15384c-0.16523,0 -0.31338,-0.04843 -0.44443,-0.14529c-0.12535,-0.09686 -0.20512,-0.20797 -0.23931,-0.33332c-0.03419,-0.13105 -0.05128,-0.37605 -0.05128,-0.73501zM250.20956,183.22209c-0.68943,0.55268 -1.36748,0.82903 -2.03412,0.82903c-0.63245,0 -1.11962,-0.15954 -1.46149,-0.47861c-0.33617,-0.32477 -0.50426,-0.71792 -0.50426,-1.17944c0,-0.39884 0.11396,-0.71792 0.34187,-0.95723c0.23361,-0.245 0.48432,-0.41594 0.75211,-0.5128c0.27349,-0.09686 0.71507,-0.20797 1.32474,-0.33332c0.60967,-0.12535 1.10252,-0.24216 1.47858,-0.35041c-0.0057,-0.44443 -0.09402,-0.74356 -0.26495,-0.8974c-0.17093,-0.15384 -0.43018,-0.23076 -0.77775,-0.23076c-0.66094,0 -1.09398,0.18517 -1.29909,0.55553c-0.11396,0.21082 -0.21652,0.36181 -0.30768,0.45298c-0.08546,0.08546 -0.21082,0.1282 -0.37606,0.1282c-0.15384,0 -0.29344,-0.04843 -0.41879,-0.14529c-0.12535,-0.10256 -0.18802,-0.23646 -0.18802,-0.4017c0,-0.37606 0.20512,-0.73217 0.61536,-1.06834c0.41024,-0.34187 1.05409,-0.5128 1.93156,-0.5128c0.88886,0 1.53841,0.15384 1.94864,0.46152c0.41594,0.30768 0.61251,0.92874 0.58972,1.86318l-0.03419,1.36747c-0.01139,0.42734 0.03134,0.7749 0.1282,1.0427c0.10256,0.2621 0.15384,0.46437 0.15384,0.60681c0,0.15384 -0.06838,0.29059 -0.20512,0.41024c-0.13105,0.11966 -0.28204,0.17948 -0.45297,0.17948c-0.29629,0 -0.60967,-0.27634 -0.94013,-0.82903zM250.11554,181.11106c-0.21651,0.08546 -0.57548,0.17948 -1.07689,0.28204c-0.50141,0.09686 -0.85752,0.21081 -1.06833,0.34186c-0.20512,0.12535 -0.30768,0.31338 -0.30768,0.56409c0,0.20512 0.08262,0.3903 0.24785,0.55553c0.16523,0.15954 0.4017,0.23931 0.70938,0.23931c0.31907,0 0.61536,-0.08832 0.88885,-0.26495c0.27919,-0.17663 0.45013,-0.3846 0.5128,-0.6239c0.06268,-0.245 0.09401,-0.60967 0.09401,-1.09398zM252.99364,178.24792v-0.88031c0,-0.35896 0.01424,-0.60111 0.04273,-0.72646c0.03419,-0.13105 0.11396,-0.24786 0.23931,-0.35041c0.12535,-0.10256 0.2735,-0.15384 0.44443,-0.15384c0.15954,0 0.30199,0.04558 0.42733,0.13674c0.12535,0.09116 0.20797,0.20513 0.24785,0.34187c0.03988,0.13105 0.05983,0.34472 0.05983,0.641v0.99141h0.28204c0.35896,0 0.59542,0.04273 0.70937,0.1282c0.11965,0.08546 0.17948,0.21367 0.17948,0.3846c0,0.35896 -0.29913,0.53844 -0.8974,0.53844h-0.27349v2.69221c0,0.36466 0.02564,0.61252 0.07692,0.74357c0.05128,0.13105 0.18802,0.19657 0.41024,0.19657c0.10826,0 0.22791,-0.01425 0.35896,-0.04273c0.13674,-0.03418 0.23646,-0.05128 0.29914,-0.05128c0.14814,0 0.2678,0.04843 0.35896,0.14529c0.09116,0.09686 0.13675,0.21366 0.13675,0.35041c0,0.47861 -0.50426,0.71792 -1.51277,0.71792c-0.49001,0 -0.84897,-0.09116 -1.07689,-0.27349c-0.22791,-0.18233 -0.37036,-0.4017 -0.42733,-0.6581c-0.05697,-0.2621 -0.08547,-0.60396 -0.08547,-1.0256v-2.79477h-0.18803c-0.43303,0 -0.64955,-0.17663 -0.64955,-0.52989c0,-0.34756 0.22791,-0.52135 0.68373,-0.52135zM260.69528,181.44439h-2.86314c0.0171,0.54129 0.16523,0.94868 0.44442,1.22218c0.28489,0.2735 0.62676,0.41024 1.0256,0.41024c0.48431,0 0.94298,-0.21366 1.37601,-0.641c0.17663,-0.17663 0.30483,-0.28489 0.3846,-0.32477c0.08546,-0.04559 0.17948,-0.06838 0.28205,-0.06838c0.13105,0 0.24215,0.04273 0.33332,0.1282c0.09687,0.07977 0.1453,0.17948 0.1453,0.29914c0,0.33047 -0.22506,0.67804 -0.67519,1.0427c-0.44443,0.35896 -1.05124,0.53844 -1.82045,0.53844c-0.97432,0 -1.71504,-0.27634 -2.22214,-0.82903c-0.50141,-0.55268 -0.75211,-1.26491 -0.75211,-2.13667c0,-0.88316 0.25071,-1.59823 0.75211,-2.14522c0.5071,-0.54699 1.21078,-0.82049 2.11103,-0.82049c0.85467,0 1.51561,0.25925 1.98283,0.77775c0.46722,0.5128 0.70083,1.07118 0.70083,1.67515c0,0.26779 -0.07692,0.48147 -0.23076,0.64101c-0.15384,0.15384 -0.47861,0.23076 -0.97432,0.23076zM257.83214,180.61536h2.65802c-0.0171,-0.48431 -0.15099,-0.85467 -0.4017,-1.11107c-0.25071,-0.2564 -0.55838,-0.3846 -0.92304,-0.3846c-0.7749,0 -1.21932,0.49855 -1.33328,1.49567zM269.56354,183.91437h-1.75207c-0.33617,0 -0.57548,-0.0114 -0.71792,-0.03419c-0.14245,-0.02279 -0.2678,-0.08832 -0.37606,-0.19657c-0.10826,-0.10825 -0.17378,-0.22506 -0.19657,-0.35041c-0.02279,-0.13105 -0.03419,-0.3789 -0.03419,-0.74356v-5.17929c0,-0.46152 0.03419,-0.77206 0.10256,-0.93159c0.06838,-0.15954 0.18233,-0.26494 0.34187,-0.31622c0.15954,-0.05128 0.45297,-0.07692 0.88031,-0.07692h1.71789c1.31619,0 2.25348,0.36181 2.81186,1.08543c0.55838,0.71792 0.83757,1.6666 0.83757,2.84605c0,1.18514 -0.28773,2.13098 -0.86321,2.8375c-0.57548,0.70652 -1.49282,1.05979 -2.75204,1.05979zM268.06787,177.30779v5.38441h1.21363c0.40455,0 0.7635,-0.04558 1.07688,-0.13674c0.31338,-0.09686 0.59257,-0.34187 0.83758,-0.73502c0.25071,-0.39315 0.37606,-0.99997 0.37606,-1.82045c0,-0.75781 -0.11396,-1.33043 -0.34187,-1.71788c-0.22791,-0.38745 -0.48146,-0.6467 -0.76065,-0.77775c-0.27349,-0.13105 -0.72647,-0.19657 -1.35892,-0.19657zM275.20863,176.01723c0.19373,0 0.35897,0.07122 0.49571,0.21366c0.13674,0.14245 0.20512,0.30769 0.20512,0.49571c0,0.19372 -0.06838,0.36181 -0.20512,0.50426c-0.13674,0.13675 -0.30199,0.20512 -0.49571,0.20512c-0.19373,0 -0.36181,-0.06837 -0.50426,-0.20512c-0.13674,-0.14245 -0.20512,-0.31053 -0.20512,-0.50426c0,-0.19372 0.06838,-0.35897 0.20512,-0.49571c0.14245,-0.14245 0.31053,-0.21366 0.50426,-0.21366zM275.93509,179.30771v3.52979c0,0.35327 -0.0171,0.59542 -0.05128,0.72647c-0.02849,0.12535 -0.11111,0.23931 -0.24785,0.34186c-0.13105,0.09686 -0.27349,0.14529 -0.42733,0.14529c-0.15384,0 -0.29914,-0.04843 -0.43588,-0.14529c-0.13674,-0.10256 -0.22222,-0.21936 -0.2564,-0.35041c-0.02849,-0.13105 -0.04273,-0.37036 -0.04273,-0.71792v-3.52124c0,-0.31907 0.0114,-0.54413 0.03419,-0.67518c0.02849,-0.13675 0.10826,-0.2564 0.23931,-0.35896c0.13105,-0.10825 0.28204,-0.16239 0.45298,-0.16239c0.17093,0 0.31908,0.04843 0.44443,0.1453c0.12535,0.09116 0.20512,0.21081 0.2393,0.35896c0.03419,0.14245 0.05128,0.37036 0.05128,0.68374zM278.54931,179.63248c0,0.18802 0.09686,0.33618 0.29058,0.44443c0.19373,0.10825 0.63245,0.245 1.31619,0.41024c1.32189,0.32477 1.98283,0.87461 1.98283,1.64951c0,0.62106 -0.22506,1.09683 -0.67519,1.4273c-0.44443,0.32477 -1.06549,0.48716 -1.86318,0.48716c-0.81479,0 -1.4273,-0.16809 -1.83754,-0.50426c-0.41024,-0.33617 -0.61536,-0.69228 -0.61536,-1.06833c0,-0.15954 0.05698,-0.29629 0.17093,-0.41024c0.11396,-0.11395 0.25356,-0.17093 0.41879,-0.17093c0.22791,0 0.42733,0.14244 0.59826,0.42733c0.19373,0.31338 0.40455,0.52135 0.63246,0.62391c0.23361,0.10256 0.48146,0.15384 0.74356,0.15384c0.29629,0 0.53559,-0.06552 0.71792,-0.19657c0.18233,-0.13105 0.27349,-0.29629 0.27349,-0.49571c0,-0.18233 -0.07692,-0.33902 -0.23076,-0.47007c-0.15384,-0.13105 -0.57833,-0.27634 -1.27346,-0.43588c-0.68943,-0.15954 -1.19369,-0.38175 -1.51276,-0.66664c-0.31907,-0.29059 -0.47861,-0.63245 -0.47861,-1.0256c0,-0.44443 0.19373,-0.83758 0.58118,-1.17944c0.38745,-0.34187 0.96862,-0.5128 1.74352,-0.5128c0.70652,0 1.26775,0.14529 1.6837,0.43588c0.42164,0.28489 0.63246,0.58118 0.63246,0.88886c0,0.16523 -0.05413,0.30483 -0.16239,0.41879c-0.10256,0.11395 -0.24785,0.17093 -0.43588,0.17093c-0.28489,0 -0.54129,-0.16239 -0.7692,-0.48716c-0.22222,-0.32477 -0.56123,-0.48717 -1.01705,-0.48717c-0.245,0 -0.45867,0.05128 -0.641,0.15384c-0.18233,0.09686 -0.27349,0.23646 -0.27349,0.41879zM283.60682,178.24792v-0.88031c0,-0.35896 0.01424,-0.60111 0.04273,-0.72646c0.03419,-0.13105 0.11396,-0.24786 0.23931,-0.35041c0.12535,-0.10256 0.27349,-0.15384 0.44443,-0.15384c0.15954,0 0.30198,0.04558 0.42733,0.13674c0.12535,0.09116 0.20797,0.20513 0.24785,0.34187c0.03988,0.13105 0.05983,0.34472 0.05983,0.641v0.99141h0.28204c0.35896,0 0.59542,0.04273 0.70937,0.1282c0.11965,0.08546 0.17948,0.21367 0.17948,0.3846c0,0.35896 -0.29913,0.53844 -0.8974,0.53844h-0.27349v2.69221c0,0.36466 0.02564,0.61252 0.07692,0.74357c0.05128,0.13105 0.18802,0.19657 0.41024,0.19657c0.10826,0 0.22791,-0.01425 0.35896,-0.04273c0.13674,-0.03418 0.23646,-0.05128 0.29913,-0.05128c0.14814,0 0.2678,0.04843 0.35896,0.14529c0.09116,0.09686 0.13675,0.21366 0.13675,0.35041c0,0.47861 -0.50426,0.71792 -1.51277,0.71792c-0.49001,0 -0.84897,-0.09116 -1.07689,-0.27349c-0.22791,-0.18233 -0.37036,-0.4017 -0.42733,-0.6581c-0.05697,-0.2621 -0.08546,-0.60396 -0.08546,-1.0256v-2.79477h-0.18803c-0.43303,0 -0.64954,-0.17663 -0.64954,-0.52989c0,-0.34756 0.22791,-0.52135 0.68374,-0.52135zM287.23168,182.8375v-3.73491c0,-0.65524 0.23931,-0.98287 0.71792,-0.98287c0.46152,0 0.69798,0.30199 0.70937,0.90595c0.30199,-0.60397 0.72077,-0.90595 1.25636,-0.90595c0.27919,0 0.56978,0.07407 0.87176,0.22222c0.30199,0.14814 0.45297,0.35041 0.45297,0.60681c0,0.17663 -0.06267,0.32477 -0.18802,0.44443c-0.11965,0.11395 -0.24786,0.17093 -0.3846,0.17093c-0.07977,0 -0.22222,-0.03133 -0.42733,-0.09401c-0.20512,-0.06268 -0.37606,-0.09402 -0.51281,-0.09402c-0.34757,0 -0.60681,0.17663 -0.77774,0.5299c-0.17093,0.34756 -0.25641,1.0256 -0.25641,2.03411v0.84612c0,0.37036 -0.0171,0.62106 -0.05128,0.75211c-0.02849,0.13105 -0.10826,0.2507 -0.23931,0.35896c-0.12535,0.10256 -0.27065,0.15384 -0.43588,0.15384c-0.16523,0 -0.31338,-0.04843 -0.44443,-0.14529c-0.12535,-0.09686 -0.20512,-0.20797 -0.23931,-0.33332c-0.03419,-0.13105 -0.05128,-0.37605 -0.05128,-0.73501zM292.76674,176.01723c0.19373,0 0.35897,0.07122 0.49571,0.21366c0.13674,0.14245 0.20512,0.30769 0.20512,0.49571c0,0.19372 -0.06838,0.36181 -0.20512,0.50426c-0.13674,0.13675 -0.30199,0.20512 -0.49571,0.20512c-0.19373,0 -0.36181,-0.06837 -0.50426,-0.20512c-0.13674,-0.14245 -0.20512,-0.31053 -0.20512,-0.50426c0,-0.19372 0.06838,-0.35897 0.20512,-0.49571c0.14245,-0.14245 0.31053,-0.21366 0.50426,-0.21366zM293.49321,179.30771v3.52979c0,0.35327 -0.0171,0.59542 -0.05128,0.72647c-0.02849,0.12535 -0.11111,0.23931 -0.24785,0.34186c-0.13105,0.09686 -0.27349,0.14529 -0.42733,0.14529c-0.15384,0 -0.29914,-0.04843 -0.43588,-0.14529c-0.13674,-0.10256 -0.22222,-0.21936 -0.2564,-0.35041c-0.02849,-0.13105 -0.04273,-0.37036 -0.04273,-0.71792v-3.52124c0,-0.31907 0.0114,-0.54413 0.03419,-0.67518c0.02849,-0.13675 0.10826,-0.2564 0.23931,-0.35896c0.13105,-0.10825 0.28204,-0.16239 0.45298,-0.16239c0.17093,0 0.31908,0.04843 0.44443,0.1453c0.12535,0.09116 0.20512,0.21081 0.2393,0.35896c0.03419,0.14245 0.05128,0.37036 0.05128,0.68374zM296.32109,183.06826v0.1453c0,0.55838 -0.23931,0.83757 -0.71792,0.83757c-0.18803,0 -0.34472,-0.04843 -0.47007,-0.14529c-0.12535,-0.09686 -0.20227,-0.21367 -0.23076,-0.35041c-0.02279,-0.13675 -0.03419,-0.35326 -0.03419,-0.64954v-5.74338c0,-0.33047 0.01424,-0.56977 0.04273,-0.71792c0.03419,-0.15384 0.11681,-0.2735 0.24786,-0.35896c0.13674,-0.09116 0.28204,-0.13675 0.43588,-0.13675c0.21651,0 0.3903,0.06552 0.52135,0.19657c0.13674,0.12535 0.20512,0.45012 0.20512,0.97432v1.88882c0.54699,-0.59257 1.18799,-0.88886 1.92301,-0.88886c0.7578,0 1.35038,0.27065 1.77772,0.81194c0.42733,0.53559 0.641,1.22503 0.641,2.0683c0,0.90025 -0.21937,1.63527 -0.6581,2.20504c-0.43873,0.56408 -1.0313,0.84612 -1.77771,0.84612c-0.76351,0 -1.39881,-0.32763 -1.90592,-0.98287zM296.39801,181.14526c0,0.56408 0.13675,1.00281 0.41024,1.31619c0.27349,0.31338 0.61536,0.47007 1.0256,0.47007c0.35326,0 0.66664,-0.15099 0.94013,-0.45298c0.27919,-0.30199 0.41879,-0.7806 0.41879,-1.43584c0,-0.56408 -0.12535,-1.00567 -0.37605,-1.32474c-0.25071,-0.32477 -0.57548,-0.48716 -0.97433,-0.48716c-0.43873,0 -0.78914,0.17379 -1.05124,0.52135c-0.2621,0.34756 -0.39315,0.81194 -0.39315,1.39311zM301.64675,181.88026v-2.56401c0,-0.31338 0.0114,-0.54129 0.03419,-0.68373c0.02849,-0.14245 0.10541,-0.2621 0.23076,-0.35896c0.12535,-0.10256 0.27919,-0.15384 0.46152,-0.15384c0.17093,0 0.31907,0.04843 0.44442,0.1453c0.13105,0.09686 0.21082,0.22506 0.23931,0.3846c0.03419,0.15384 0.05128,0.38745 0.05128,0.70083v2.00847c0,0.65524 0.10256,1.07689 0.30768,1.26491c0.20512,0.18233 0.43018,0.2735 0.67519,0.2735c0.27919,0 0.5242,-0.07692 0.73502,-0.23076c0.21651,-0.15954 0.36181,-0.35041 0.43588,-0.57263c0.07407,-0.22791 0.11111,-0.66949 0.11111,-1.32474v-1.45294c0,-0.30768 0.01424,-0.53559 0.04273,-0.68373c0.03419,-0.14814 0.11396,-0.27064 0.23931,-0.3675c0.13105,-0.09686 0.28489,-0.1453 0.46152,-0.1453c0.16523,0 0.31338,0.04843 0.44443,0.1453c0.13105,0.09686 0.20798,0.21651 0.23076,0.35896c0.02849,0.14245 0.04273,0.3732 0.04273,0.69228v3.60671c0,0.29629 -0.01424,0.50995 -0.04273,0.64101c-0.02849,0.13105 -0.09972,0.245 -0.21367,0.34186c-0.10826,0.09686 -0.24785,0.14529 -0.41878,0.14529c-0.47292,0 -0.70084,-0.33901 -0.68374,-1.01705c-0.48431,0.67804 -1.12532,1.01705 -1.92301,1.01705c-0.5299,0 -0.98001,-0.15669 -1.35037,-0.47007c-0.37036,-0.31907 -0.55554,-0.88601 -0.55554,-1.70079zM308.53644,178.24792v-0.88031c0,-0.35896 0.01425,-0.60111 0.04274,-0.72646c0.03419,-0.13105 0.11395,-0.24786 0.2393,-0.35041c0.12535,-0.10256 0.2735,-0.15384 0.44443,-0.15384c0.15954,0 0.30199,0.04558 0.42733,0.13674c0.12535,0.09116 0.20797,0.20513 0.24785,0.34187c0.03988,0.13105 0.05983,0.34472 0.05983,0.641v0.99141h0.28204c0.35896,0 0.59542,0.04273 0.70937,0.1282c0.11965,0.08546 0.17948,0.21367 0.17948,0.3846c0,0.35896 -0.29913,0.53844 -0.8974,0.53844h-0.27349v2.69221c0,0.36466 0.02564,0.61252 0.07692,0.74357c0.05128,0.13105 0.18802,0.19657 0.41024,0.19657c0.10826,0 0.22791,-0.01425 0.35896,-0.04273c0.13674,-0.03418 0.23646,-0.05128 0.29914,-0.05128c0.14814,0 0.2678,0.04843 0.35896,0.14529c0.09116,0.09686 0.13675,0.21366 0.13675,0.35041c0,0.47861 -0.50426,0.71792 -1.51277,0.71792c-0.49001,0 -0.84897,-0.09116 -1.07689,-0.27349c-0.22791,-0.18233 -0.37036,-0.4017 -0.42733,-0.6581c-0.05697,-0.2621 -0.08546,-0.60396 -0.08546,-1.0256v-2.79477h-0.18803c-0.43303,0 -0.64954,-0.17663 -0.64954,-0.52989c0,-0.34756 0.22791,-0.52135 0.68373,-0.52135zM314.71678,178.11973c0.90595,0 1.61818,0.27919 2.13667,0.83758c0.5185,0.55268 0.77775,1.26206 0.77775,2.12813c0,0.86606 -0.26209,1.57829 -0.78629,2.13667c-0.5242,0.55268 -1.21933,0.82903 -2.0854,0.82903c-0.94013,0 -1.66661,-0.28204 -2.17941,-0.84612c-0.5128,-0.56408 -0.7692,-1.27061 -0.7692,-2.11958c0,-0.86606 0.25925,-1.57544 0.77775,-2.12813c0.5185,-0.55838 1.22788,-0.83758 2.12813,-0.83758zM314.71678,182.9657c0.44443,0 0.79484,-0.16524 1.05124,-0.49571c0.2564,-0.33617 0.3846,-0.7977 0.3846,-1.38457c0,-0.59257 -0.1282,-1.05409 -0.3846,-1.38456c-0.2564,-0.33617 -0.60681,-0.50426 -1.05124,-0.50426c-0.43303,0 -0.7806,0.16809 -1.0427,0.50426c-0.2564,0.33617 -0.3846,0.79769 -0.3846,1.38456c0,0.58687 0.1282,1.0484 0.3846,1.38457c0.2564,0.33047 0.60397,0.49571 1.0427,0.49571zM318.76897,182.8375v-3.73491c0,-0.65524 0.23931,-0.98287 0.71793,-0.98287c0.46152,0 0.69798,0.30199 0.70937,0.90595c0.30199,-0.60397 0.72077,-0.90595 1.25636,-0.90595c0.27919,0 0.56978,0.07407 0.87176,0.22222c0.30199,0.14814 0.45298,0.35041 0.45298,0.60681c0,0.17663 -0.06268,0.32477 -0.18803,0.44443c-0.11965,0.11395 -0.24786,0.17093 -0.3846,0.17093c-0.07977,0 -0.22222,-0.03133 -0.42733,-0.09401c-0.20512,-0.06268 -0.37606,-0.09402 -0.5128,-0.09402c-0.34757,0 -0.60682,0.17663 -0.77775,0.5299c-0.17093,0.34756 -0.2564,1.0256 -0.2564,2.03411v0.84612c0,0.37036 -0.0171,0.62106 -0.05128,0.75211c-0.02849,0.13105 -0.10826,0.2507 -0.23931,0.35896c-0.12535,0.10256 -0.27065,0.15384 -0.43588,0.15384c-0.16523,0 -0.31338,-0.04843 -0.44442,-0.14529c-0.12535,-0.09686 -0.20513,-0.20797 -0.23931,-0.33332c-0.03419,-0.13105 -0.05128,-0.37605 -0.05128,-0.73501z"/></g></g></svg>