<svg version="1.1" xmlns="http://www.w3.org/2000/svg" xmlns:xlink="http://www.w3.org/1999/xlink" width="48.50393" height="34.29686" viewBox="0,0,48.50393,34.29686"><g transform="translate(-215.74803,-162.85157)"><g data-paper-data="{&quot;isPaintingLayer&quot;:true}" fill="#ffffff" fill-rule="nonzero" stroke-linecap="square" stroke-linejoin="miter" stroke-miterlimit="10" stroke-dasharray="" stroke-dashoffset="0" style="mix-blend-mode: normal"><path d="M232.34177,168.85155v21.875c0,2.61458 -0.88021,3.92188 -2.64062,3.92188c-0.60417,0 -1.20312,-0.19792 -1.79687,-0.59375c-0.58333,-0.39583 -0.875,-1.42708 -0.875,-3.09375v-17.25c-3.35417,2.54167 -5.56771,3.8125 -6.64062,3.8125c-0.61458,0 -1.125,-0.20312 -1.53125,-0.60937c-0.40625,-0.41667 -0.60937,-0.94792 -0.60937,-1.59375c0,-0.46875 0.15104,-0.86979 0.45313,-1.20312c0.30208,-0.33333 0.94271,-0.72917 1.92188,-1.1875c3.26042,-1.60417 5.55208,-3.43229 6.875,-5.48437c0.54167,-0.84375 0.96354,-1.40104 1.26563,-1.67187c0.30208,-0.28125 0.71875,-0.42187 1.25,-0.42187c1.55208,0 2.32813,1.16667 2.32813,3.5zM258.7363,194.16405h-13.54687c-1.44792,0 -2.39062,-0.3125 -2.82812,-0.9375c-0.4375,-0.625 -0.65625,-1.19271 -0.65625,-1.70312c0,-0.98958 0.51563,-2.1875 1.54688,-3.59375c1.04167,-1.40625 2.97917,-3.29167 5.8125,-5.65625c2.84375,-2.375 4.69271,-4.08333 5.54688,-5.125c0.86458,-1.04167 1.29688,-2.19792 1.29688,-3.46875c0,-1.30208 -0.44271,-2.33333 -1.32812,-3.09375c-0.875,-0.77083 -1.92708,-1.15625 -3.15625,-1.15625c-1.0625,0 -2,0.28646 -2.8125,0.85938c-0.80208,0.57292 -1.39062,1.40625 -1.76562,2.5c-0.36458,1.08333 -0.72396,1.86979 -1.07812,2.35938c-0.34375,0.48958 -0.91667,0.73437 -1.71875,0.73437c-0.64583,0 -1.19271,-0.20833 -1.64062,-0.625c-0.4375,-0.42708 -0.65625,-1.00521 -0.65625,-1.73437c0,-2 0.84375,-3.85937 2.53125,-5.57812c1.69792,-1.72917 4.10417,-2.59375 7.21875,-2.59375c3.34375,0 5.79688,0.81771 7.35938,2.45313c1.57292,1.63542 2.35937,3.54167 2.35937,5.71875c0,1.72917 -0.52083,3.36979 -1.5625,4.92187c-1.03125,1.54167 -2.64583,3.19792 -4.84375,4.96875c-2.1875,1.77083 -3.59896,2.96354 -4.23437,3.57813c-0.625,0.60417 -1.34375,1.45833 -2.15625,2.5625h9.5625c1.46875,0 2.46354,0.20833 2.98437,0.625c0.52083,0.40625 0.78125,0.95833 0.78125,1.65625c0,0.77083 -0.23437,1.35417 -0.70312,1.75c-0.46875,0.38542 -1.23958,0.57813 -2.3125,0.57813z" stroke="#000000" stroke-width="5"/><path d="M232.34177,168.85155v21.875c0,2.61458 -0.88021,3.92188 -2.64062,3.92188c-0.60417,0 -1.20312,-0.19792 -1.79687,-0.59375c-0.58333,-0.39583 -0.875,-1.42708 -0.875,-3.09375v-17.25c-3.35417,2.54167 -5.56771,3.8125 -6.64062,3.8125c-0.61458,0 -1.125,-0.20312 -1.53125,-0.60937c-0.40625,-0.41667 -0.60937,-0.94792 -0.60937,-1.59375c0,-0.46875 0.15104,-0.86979 0.45313,-1.20312c0.30208,-0.33333 0.94271,-0.72917 1.92188,-1.1875c3.26042,-1.60417 5.55208,-3.43229 6.875,-5.48437c0.54167,-0.84375 0.96354,-1.40104 1.26563,-1.67187c0.30208,-0.28125 0.71875,-0.42187 1.25,-0.42187c1.55208,0 2.32813,1.16667 2.32813,3.5zM258.7363,194.16405h-13.54687c-1.44792,0 -2.39062,-0.3125 -2.82812,-0.9375c-0.4375,-0.625 -0.65625,-1.19271 -0.65625,-1.70312c0,-0.98958 0.51563,-2.1875 1.54688,-3.59375c1.04167,-1.40625 2.97917,-3.29167 5.8125,-5.65625c2.84375,-2.375 4.69271,-4.08333 5.54688,-5.125c0.86458,-1.04167 1.29688,-2.19792 1.29688,-3.46875c0,-1.30208 -0.44271,-2.33333 -1.32812,-3.09375c-0.875,-0.77083 -1.92708,-1.15625 -3.15625,-1.15625c-1.0625,0 -2,0.28646 -2.8125,0.85938c-0.80208,0.57292 -1.39062,1.40625 -1.76562,2.5c-0.36458,1.08333 -0.72396,1.86979 -1.07812,2.35938c-0.34375,0.48958 -0.91667,0.73437 -1.71875,0.73437c-0.64583,0 -1.19271,-0.20833 -1.64062,-0.625c-0.4375,-0.42708 -0.65625,-1.00521 -0.65625,-1.73437c0,-2 0.84375,-3.85937 2.53125,-5.57812c1.69792,-1.72917 4.10417,-2.59375 7.21875,-2.59375c3.34375,0 5.79688,0.81771 7.35938,2.45313c1.57292,1.63542 2.35937,3.54167 2.35937,5.71875c0,1.72917 -0.52083,3.36979 -1.5625,4.92187c-1.03125,1.54167 -2.64583,3.19792 -4.84375,4.96875c-2.1875,1.77083 -3.59896,2.96354 -4.23437,3.57813c-0.625,0.60417 -1.34375,1.45833 -2.15625,2.5625h9.5625c1.46875,0 2.46354,0.20833 2.98437,0.625c0.52083,0.40625 0.78125,0.95833 0.78125,1.65625c0,0.77083 -0.23437,1.35417 -0.70312,1.75c-0.46875,0.38542 -1.23958,0.57813 -2.3125,0.57813z" stroke="none" stroke-width="0"/></g></g></svg>