<svg version="1.1" xmlns="http://www.w3.org/2000/svg" xmlns:xlink="http://www.w3.org/1999/xlink" width="188.27345" height="15.36039" viewBox="0,0,188.27345,15.36039"><g transform="translate(-98.75814,-18.44739)"><g data-paper-data="{&quot;isPaintingLayer&quot;:true}" fill="#ffffff" fill-rule="nonzero" stroke="none" stroke-width="1" stroke-linecap="square" stroke-linejoin="miter" stroke-miterlimit="10" stroke-dasharray="" stroke-dashoffset="0" style="mix-blend-mode: normal"><path d="M98.75814,30.4923v-11.87701h3.98698c0.65284,0 1.24039,0.06528 1.76267,0.19585c0.5316,0.13057 0.98859,0.33109 1.37096,0.60156c0.37305,0.26113 0.66216,0.59688 0.86735,1.00724c0.20517,0.41036 0.30776,0.89066 0.30776,1.44091c-0.00932,0.36372 -0.07461,0.70413 -0.19585,1.02123c-0.12124,0.31709 -0.30311,0.59688 -0.54559,0.83936c-0.13057,0.13057 -0.27979,0.25181 -0.44766,0.36372c-0.15855,0.10259 -0.34041,0.19119 -0.54559,0.2658v0.01399c0.39171,0.10259 0.69947,0.23782 0.9233,0.40569c0.23316,0.16787 0.42901,0.36372 0.58756,0.58756c0.16787,0.24248 0.28912,0.50361 0.36372,0.7834c0.08393,0.27979 0.12591,0.56891 0.12591,0.86735c0,0.56891 -0.09792,1.07252 -0.29377,1.51085c-0.19585,0.43833 -0.47564,0.80206 -0.83936,1.09117c-0.36372,0.29844 -0.80672,0.52227 -1.32899,0.67149c-0.52227,0.13989 -1.10983,0.20984 -1.76267,0.20984h-4.33671zM101.06639,28.64569h2.02847c0.29844,0 0.56424,-0.03731 0.7974,-0.11192c0.24248,-0.08393 0.443,-0.19119 0.60155,-0.32176c0.1772,-0.13989 0.30776,-0.31243 0.39171,-0.51761c0.09327,-0.21451 0.13989,-0.44766 0.13989,-0.69947c0,-0.27047 -0.03731,-0.50828 -0.11192,-0.71346c-0.06528,-0.21451 -0.16787,-0.39636 -0.30776,-0.54559c-0.14922,-0.14922 -0.34041,-0.2658 -0.57356,-0.34973c-0.23316,-0.08393 -0.51295,-0.12591 -0.83936,-0.12591h-2.12639zM102.7591,23.59553c0.3544,0 0.66216,-0.03731 0.9233,-0.11192c0.27047,-0.08393 0.48496,-0.20517 0.64351,-0.36372c0.13989,-0.12124 0.24715,-0.27047 0.32176,-0.44766c0.07461,-0.18652 0.11192,-0.39171 0.11192,-0.61553c0,-0.24248 -0.03264,-0.45232 -0.09792,-0.62952c-0.06528,-0.18652 -0.15855,-0.33575 -0.27979,-0.44766c-0.16787,-0.16787 -0.38704,-0.28912 -0.65751,-0.36372c-0.27047,-0.08393 -0.59221,-0.12591 -0.96527,-0.12591h-1.69272v3.10564zM111.07602,28.01617l-0.69947,2.47612h-2.42016l3.88906,-11.87701h2.08442l3.81911,11.87701h-2.42016l-0.68548,-2.47612zM114.09773,26.05766l-1.21708,-4.3647l-1.24505,4.3647zM118.77743,30.4923v-11.87701h3.07767c0.55025,0 1.06319,0.06995 1.53883,0.20984c0.47564,0.13057 0.90931,0.3171 1.30101,0.55959c0.34507,0.20517 0.65284,0.45232 0.9233,0.74144c0.27047,0.28912 0.50361,0.60621 0.69947,0.95128c0.23316,0.41968 0.41501,0.88133 0.54559,1.38495c0.13057,0.50361 0.19585,1.03988 0.19585,1.60878v0.97926c0,0.55025 -0.06063,1.07252 -0.18187,1.56681c-0.12124,0.48496 -0.28912,0.93263 -0.50361,1.34299c-0.20517,0.36372 -0.44766,0.69947 -0.72745,1.00724c-0.27979,0.30776 -0.58756,0.56424 -0.9233,0.76941c-0.38237,0.24248 -0.80672,0.42901 -1.27304,0.55957c-0.46631,0.13057 -0.9606,0.19585 -1.48288,0.19585zM121.08567,28.64569h0.88133c0.27979,0 0.54092,-0.03264 0.7834,-0.09792c0.25181,-0.07461 0.47564,-0.1772 0.67149,-0.30776c0.20517,-0.14922 0.39171,-0.33108 0.55957,-0.54559c0.16787,-0.22383 0.31243,-0.48031 0.43367,-0.76941c0.09327,-0.26113 0.16321,-0.54559 0.20984,-0.85335c0.05596,-0.31709 0.08393,-0.65751 0.08393,-1.02123v-0.99324c0,-0.34507 -0.02797,-0.67149 -0.08393,-0.97926c-0.04663,-0.30776 -0.11657,-0.58756 -0.20984,-0.83936c-0.12124,-0.30776 -0.27979,-0.57823 -0.47564,-0.81139c-0.18652,-0.24248 -0.41036,-0.43833 -0.67149,-0.58756c-0.19585,-0.12124 -0.41501,-0.20984 -0.65751,-0.2658c-0.23316,-0.06528 -0.48496,-0.09792 -0.75543,-0.09792h-0.76941zM142.8956,26.05766h-1.73468v4.43464h-2.29426v-11.87701h3.98698c0.65284,0 1.24505,0.07927 1.77665,0.23782c0.54092,0.14922 1.00257,0.37306 1.38495,0.67151c0.37305,0.30776 0.65751,0.68548 0.85335,1.13314c0.20517,0.43833 0.30776,0.95128 0.30776,1.53883c0,0.42901 -0.05129,0.81139 -0.15388,1.14713c-0.09327,0.33575 -0.23316,0.63885 -0.41968,0.90931c-0.18652,0.27047 -0.41501,0.50828 -0.68548,0.71346c-0.26113,0.19585 -0.55491,0.36839 -0.88133,0.51761l2.56006,4.89629v0.11192h-2.46213l-2.23831,-4.43464zM142.85364,24.19707c0.3544,0 0.66683,-0.05129 0.93729,-0.15388c0.27047,-0.10259 0.48963,-0.24715 0.65751,-0.43367c0.13989,-0.14922 0.24715,-0.33108 0.32176,-0.54559c0.07461,-0.21451 0.11192,-0.45232 0.11192,-0.71346c0,-0.31709 -0.04663,-0.59688 -0.13989,-0.83936c-0.09327,-0.24248 -0.23782,-0.43833 -0.43367,-0.58756c-0.16787,-0.14922 -0.37305,-0.26113 -0.61553,-0.33575c-0.24248,-0.07461 -0.52227,-0.11192 -0.83936,-0.11192h-1.69272v3.72118zM156.20673,25.28824h-4.8823v3.35746h5.70767v1.8466h-8.00193v-11.87701h7.97395v1.87459h-5.6797v2.99373h4.8823v1.80463zM161.1942,28.01617l-0.69947,2.47612h-2.42016l3.88906,-11.87701h2.08442l3.81911,11.87701h-2.42016l-0.68548,-2.47612zM164.21591,26.05766l-1.21708,-4.3647l-1.24505,4.3647zM168.89558,30.4923v-11.87701h3.07767c0.55025,0 1.06319,0.06995 1.53883,0.20984c0.47564,0.13057 0.90931,0.3171 1.30101,0.55959c0.34507,0.20517 0.65284,0.45232 0.9233,0.74144c0.27047,0.28912 0.50361,0.60621 0.69947,0.95128c0.23316,0.41968 0.41501,0.88133 0.54559,1.38495c0.13057,0.50361 0.19585,1.03988 0.19585,1.60878v0.97926c0,0.55025 -0.06063,1.07252 -0.18187,1.56681c-0.12124,0.48496 -0.28912,0.93263 -0.50361,1.34299c-0.20517,0.36372 -0.44766,0.69947 -0.72745,1.00724c-0.27979,0.30776 -0.58756,0.56424 -0.9233,0.76941c-0.38237,0.24248 -0.80672,0.42901 -1.27304,0.55957c-0.46631,0.13057 -0.9606,0.19585 -1.48288,0.19585zM171.20383,28.64569h0.88133c0.27979,0 0.54092,-0.03264 0.7834,-0.09792c0.25181,-0.07461 0.47564,-0.1772 0.67149,-0.30776c0.20517,-0.14922 0.39171,-0.33108 0.55957,-0.54559c0.16787,-0.22383 0.31243,-0.48031 0.43367,-0.76941c0.09327,-0.26113 0.16321,-0.54559 0.20984,-0.85335c0.05596,-0.31709 0.08393,-0.65751 0.08393,-1.02123v-0.99324c0,-0.34507 -0.02797,-0.67149 -0.08393,-0.97926c-0.04663,-0.30776 -0.11657,-0.58756 -0.20984,-0.83936c-0.12124,-0.30776 -0.27979,-0.57823 -0.47564,-0.81139c-0.18652,-0.24248 -0.41036,-0.43833 -0.67149,-0.58756c-0.19585,-0.12124 -0.41501,-0.20984 -0.65751,-0.2658c-0.23316,-0.06528 -0.48496,-0.09792 -0.75543,-0.09792h-0.76941zM183.22795,32.199c-0.30776,0.63419 -0.70413,1.17044 -1.1891,1.60878l-1.20309,-0.62952c0.20517,-0.39171 0.37771,-0.80206 0.51761,-1.23107c0.13989,-0.41968 0.20984,-0.92796 0.20984,-1.52484v-1.91655h2.14038l-0.01399,1.80463c0,0.62486 -0.15388,1.25439 -0.46165,1.88857zM204.07262,20.48988v10.00242h-2.29426v-10.00242h-3.60927v-1.87459h9.56874v1.87459zM213.06105,26.05766h-1.73468v4.43464h-2.29426v-11.87701h3.98698c0.65284,0 1.24505,0.07927 1.77665,0.23782c0.54092,0.14922 1.00257,0.37306 1.38495,0.67151c0.37305,0.30776 0.65751,0.68548 0.85335,1.13314c0.20517,0.43833 0.30776,0.95128 0.30776,1.53883c0,0.42901 -0.05129,0.81139 -0.15388,1.14713c-0.09327,0.33575 -0.23316,0.63885 -0.41968,0.90931c-0.18652,0.27047 -0.41501,0.50828 -0.68548,0.71346c-0.26113,0.19585 -0.55491,0.36839 -0.88133,0.51761l2.56006,4.89629v0.11192h-2.46213l-2.23831,-4.43464zM213.01908,24.19707c0.3544,0 0.66683,-0.05129 0.93729,-0.15388c0.27047,-0.10259 0.48963,-0.24715 0.65751,-0.43367c0.13989,-0.14922 0.24715,-0.33108 0.32176,-0.54559c0.07461,-0.21451 0.11192,-0.45232 0.11192,-0.71346c0,-0.31709 -0.04663,-0.59688 -0.13989,-0.83936c-0.09327,-0.24248 -0.23782,-0.43833 -0.43367,-0.58756c-0.16787,-0.14922 -0.37305,-0.26113 -0.61553,-0.33575c-0.24248,-0.07461 -0.52227,-0.11192 -0.83936,-0.11192h-1.69272v3.72118zM225.44888,18.61528h2.53208l-3.73516,7.76413l-0.01399,4.11288h-2.28027l-0.01399,-4.2108l-3.67922,-7.6662h2.51809l2.33623,5.46987zM241.38326,28.01617l-0.69947,2.47612h-2.42016l3.88906,-11.87701h2.08442l3.81911,11.87701h-2.42016l-0.68548,-2.47612zM244.40497,26.05766l-1.21708,-4.3647l-1.24505,4.3647zM256.68091,29.65293c-0.25181,0.18652 -0.55025,0.3544 -0.89532,0.50361c-0.3544,0.14922 -0.75076,0.27047 -1.1891,0.36372c-0.42901,0.09327 -0.89532,0.13989 -1.39894,0.13989c-0.42901,0 -0.83936,-0.05129 -1.23107,-0.15388c-0.38237,-0.10259 -0.73211,-0.24715 -1.0492,-0.43367c-0.31709,-0.19585 -0.60621,-0.43367 -0.86735,-0.71346c-0.25181,-0.28912 -0.46631,-0.61553 -0.64351,-0.97926c-0.21451,-0.40103 -0.37305,-0.85335 -0.47564,-1.35697c-0.10259,-0.51295 -0.15388,-1.06319 -0.15388,-1.65075v-1.62277c0,-0.55957 0.05129,-1.08184 0.15388,-1.56681c0.10259,-0.49429 0.24715,-0.93729 0.43367,-1.32899c0.18652,-0.3544 0.39636,-0.67149 0.62952,-0.95128c0.23316,-0.28912 0.49429,-0.53626 0.7834,-0.74145c0.32642,-0.23316 0.68548,-0.41036 1.07719,-0.5316c0.39171,-0.12124 0.80672,-0.18187 1.24505,-0.18187c0.66216,0 1.24039,0.0886 1.73468,0.2658c0.50361,0.16787 0.92796,0.4057 1.27304,0.71347c0.34507,0.32642 0.61087,0.71812 0.7974,1.17511c0.19585,0.45699 0.32176,0.96993 0.37771,1.53883h-2.22431c-0.03731,-0.28912 -0.09792,-0.54559 -0.18187,-0.76941c-0.07461,-0.22383 -0.18187,-0.41036 -0.32176,-0.55957c-0.14922,-0.16787 -0.34041,-0.29377 -0.57356,-0.37771c-0.23316,-0.08393 -0.50828,-0.12591 -0.82537,-0.12591c-0.1772,0 -0.34973,0.02797 -0.51761,0.08393c-0.15855,0.04663 -0.30776,0.12591 -0.44766,0.23782c-0.18652,0.13989 -0.3544,0.32642 -0.50361,0.55957c-0.14922,0.22383 -0.27047,0.48963 -0.36372,0.7974c-0.08393,0.24248 -0.14456,0.51295 -0.18187,0.81139c-0.03731,0.28912 -0.05596,0.60155 -0.05596,0.93729v1.63676c0,0.42901 0.02797,0.82071 0.08393,1.17511c0.05596,0.3544 0.13523,0.66683 0.23782,0.93729c0.06528,0.15855 0.13989,0.30311 0.22383,0.43367c0.08393,0.13057 0.1772,0.24715 0.27979,0.34973c0.1772,0.1772 0.37771,0.31243 0.60155,0.40569c0.23316,0.08393 0.49896,0.13057 0.7974,0.13989c0.1772,0 0.34973,-0.01399 0.51761,-0.04197c0.1772,-0.02797 0.34507,-0.06528 0.50361,-0.11192c0.14922,-0.04663 0.27979,-0.10259 0.39171,-0.16787c0.12124,-0.06528 0.21451,-0.13057 0.27979,-0.19585v-2.15436h-1.95852v-1.7207h4.23879l0.01399,4.68644c-0.14922,0.1772 -0.3544,0.35907 -0.61553,0.54559zM261.43053,28.01617l-0.69947,2.47612h-2.42016l3.88906,-11.87701h2.08442l3.81911,11.87701h-2.42016l-0.68548,-2.47612zM264.45224,26.05766l-1.21708,-4.3647l-1.24505,4.3647zM276.54627,18.61528v1.84662h-2.30823v8.18379h2.30823v1.8466h-6.85478v-1.8466h2.25229v-8.18379h-2.25229v-1.84662zM284.75132,30.4923l-3.3015,-7.65219v7.65219h-2.30825v-11.87701h2.30825l3.27352,7.62423l0.01399,-7.62423h2.29426v11.87701z"/></g></g></svg>