<svg version="1.1" xmlns="http://www.w3.org/2000/svg" xmlns:xlink="http://www.w3.org/1999/xlink" width="145.64565" height="136.63664" viewBox="0,0,145.64565,136.63664"><g transform="translate(-158.24808,-100.38218)"><g data-paper-data="{&quot;isPaintingLayer&quot;:true}" fill-rule="nonzero" stroke-linecap="butt" stroke-linejoin="miter" stroke-miterlimit="10" stroke-dasharray="" stroke-dashoffset="0" style="mix-blend-mode: normal"><path d="M232.38871,198.85547c-24.00796,0 -44.47151,-5.47813 -52.32151,-13.16057c-2.21751,-2.17018 -3.42849,-4.51625 -3.42849,-6.96443c0,-11.11473 24.96013,-20.125 55.75,-20.125c14.97729,0 28.47585,-0.80884 39.91072,4.92435c10.46994,5.24939 18.58928,7.43195 18.58928,10.70065c0,11.11473 -27.71013,24.625 -58.5,24.625z" fill="#758594" stroke="#000000" stroke-width="5.5"/><path d="M287.45133,172.05194c-2.46962,7.62675 -25.99499,17.55354 -55.31263,17.55354c-30.78987,0 -50.25,-9.6325 -50.25,-17.50571c0,-7.87321 19.71013,-13.50572 50.5,-13.50572c14.97729,0 28.47585,-0.57295 39.91072,3.4882c10.46994,3.71845 13.83928,6.76449 13.83928,9.0799c0,0.37646 1.43664,0.5068 1.31263,0.88979z" fill="#acbdcb" stroke="none" stroke-width="0"/><path d="M187.94328,171.17302c0,-2.11709 1.71624,-3.83333 3.83333,-3.83333c2.11709,0 3.83333,1.71624 3.83333,3.83333c0,2.11709 -1.71624,3.83333 -3.83333,3.83333c-2.11709,0 -3.83333,-1.71624 -3.83333,-3.83333z" fill="#566b80" stroke="none" stroke-width="0.5"/><path d="M201.94328,179.83969c0,-2.11709 1.71625,-3.83334 3.83334,-3.83334c2.11709,0 3.83333,1.71625 3.83333,3.83334c0,2.11709 -1.71624,3.83334 -3.83333,3.83334c-2.11709,0 -3.83334,-1.71625 -3.83334,-3.83334z" fill="#566b80" stroke="none" stroke-width="0.5"/><path d="M221.27663,184.17303c0,-2.11709 1.71624,-3.83334 3.83333,-3.83334c2.11709,0 3.83334,1.71625 3.83334,3.83334c0,2.11709 -1.71625,3.83334 -3.83334,3.83334c-2.11709,0 -3.83333,-1.71625 -3.83333,-3.83334z" fill="#566b80" stroke="none" stroke-width="0.5"/><path d="M239.60997,184.17303c0,-2.11709 1.71624,-3.83334 3.83333,-3.83334c2.11709,0 3.83334,1.71625 3.83334,3.83334c0,2.11709 -1.71625,3.83334 -3.83334,3.83334c-2.11709,0 -3.83333,-1.71625 -3.83333,-3.83334z" fill="#566b80" stroke="none" stroke-width="0.5"/><path d="M257.60997,178.83969c0,-2.11709 1.71625,-3.83334 3.83334,-3.83334c2.11709,0 3.83333,1.71625 3.83333,3.83334c0,2.11709 -1.71625,3.83334 -3.83333,3.83334c-2.11709,0 -3.83334,-1.71625 -3.83334,-3.83334z" fill="#566b80" stroke="none" stroke-width="0.5"/><path d="M270.94327,169.17303c0,-2.11709 1.71625,-3.83334 3.83334,-3.83334c2.11709,0 3.83333,1.71625 3.83333,3.83334c0,2.11709 -1.71625,3.83334 -3.83333,3.83334c-2.11709,0 -3.83334,-1.71625 -3.83334,-3.83334z" fill="#566b80" stroke="none" stroke-width="0.5"/><path d="M232.38871,198.85547c-24.00797,0 -44.47151,-5.47814 -52.32151,-13.16057c-2.21751,-2.17018 -3.42849,-4.51625 -3.42849,-6.96443c0,-11.11473 24.96013,-20.125 55.75,-20.125c14.97729,0 28.47585,-0.80884 39.91072,4.92435c10.46994,5.24939 18.58928,7.43195 18.58928,10.70065c0,11.11473 -27.71013,24.625 -58.5,24.625z" fill="none" stroke="#000000" stroke-width="5.5"/><g><path d="M199.90772,163.17185c1.52218,-14.76756 14.92371,-26.31638 31.231,-26.31638c14.72289,0 27.07724,9.41369 30.45913,22.11077c0.17983,0.67514 0.37262,1.7181 0.51917,2.58343c0.14292,0.84393 0.23005,2.51143 -0.43047,3.9438c-1.70194,3.69077 -7.71088,10.30172 -28.92267,10.37747c-20.40282,-0.29564 -28.92352,-6.40091 -31.78485,-9.22725c-0.86814,-0.85753 -1.16658,-2.54755 -1.07131,-3.47183z" fill="#7091ae" stroke="none" stroke-width="0"/><path d="M199.90772,157.60713c1.52218,-11.64489 14.92371,-20.75166 31.231,-20.75166c14.72289,0 27.07724,7.42312 30.45913,17.43535c0.17983,0.53238 0.37262,1.3548 0.51917,2.03715c0.14292,0.66547 0.23005,1.98038 -0.43047,3.10987c-1.70194,2.91034 -7.71088,8.12337 -28.92267,8.1831c-27.90282,-0.23313 -22.92352,-16.29741 -25.78485,-18.5261c-0.86814,-0.6762 -7.16658,9.24114 -7.07131,8.5123z" fill="#ace6fb" stroke="none" stroke-width="0"/><path d="M252.26368,148.85547c0,3.86599 -2.44365,7.25 -7,7.25c-4.55635,0 -12.75,-14.38401 -12.75,-18.25c0,-3.86599 6.94365,4 11.5,4c4.55635,0 8.25,3.13401 8.25,7z" fill="#f2ffff" stroke="none" stroke-width="0"/><path d="M199.90771,163.17185c1.52218,-14.76756 14.92371,-26.31638 31.231,-26.31638c14.72289,0 27.07724,9.41369 30.45913,22.11077c0.17982,0.67514 0.37262,1.7181 0.51917,2.58343c0.14292,0.84393 0.23004,2.51143 -0.43047,3.9438c-1.70194,3.69076 -7.71088,10.30172 -28.92266,10.37747c-20.40282,-0.29564 -28.92352,-6.40092 -31.78485,-9.22726c-0.86814,-0.85753 -1.16658,-2.54755 -1.07131,-3.47183z" fill="none" stroke="#000000" stroke-width="6.5"/></g><path d="M158.24808,237.01882v-136.63664h145.64565v136.63664z" fill="none" stroke="none" stroke-width="0"/></g></g></svg>