<svg version="1.1" xmlns="http://www.w3.org/2000/svg" xmlns:xlink="http://www.w3.org/1999/xlink" width="168.46398" height="12.21276" viewBox="0,0,168.46398,12.21276"><g transform="translate(-98.09583,-18.55752)"><g data-paper-data="{&quot;isPaintingLayer&quot;:true}" fill="#ffffff" fill-rule="nonzero" stroke="none" stroke-width="1" stroke-linecap="square" stroke-linejoin="miter" stroke-miterlimit="10" stroke-dasharray="" stroke-dashoffset="0" style="mix-blend-mode: normal"><path d="M100.39009,30.6024h-2.29426v-11.87699h4.05693c0.65284,0 1.24039,0.09325 1.76266,0.27979c0.52227,0.18653 0.96527,0.44767 1.32899,0.78341c0.36373,0.33574 0.64351,0.73677 0.83937,1.20309c0.20518,0.46632 0.30777,0.98858 0.30777,1.56681c0,0.53159 -0.10259,1.02123 -0.30777,1.46889c-0.19585,0.44766 -0.47564,0.8347 -0.83937,1.16112c-0.36373,0.33574 -0.80672,0.59687 -1.32899,0.7834c-0.52227,0.18653 -1.10982,0.27979 -1.76266,0.27979h-1.76266zM102.15275,24.39111c0.32642,0 0.60621,-0.04663 0.83936,-0.13989c0.24248,-0.10259 0.44766,-0.23782 0.61553,-0.40569c0.15855,-0.16787 0.27512,-0.36372 0.34973,-0.58755c0.08393,-0.22383 0.12591,-0.45233 0.12591,-0.68548c0,-0.27979 -0.04197,-0.53626 -0.12591,-0.76942c-0.07461,-0.24248 -0.19118,-0.45698 -0.34973,-0.64351c-0.16787,-0.1772 -0.37305,-0.3171 -0.61553,-0.41969c-0.23315,-0.10259 -0.51294,-0.15388 -0.83936,-0.15388h-1.76266v3.80511zM115.98148,28.7558v1.84659h-7.86204v-11.87699h2.30825v10.0304zM120.42337,25.39835v3.35746h5.70767v1.84659h-8.00193v-11.87699h7.97395v1.87458h-5.67969v2.99373h4.8823v1.80464zM130.2931,28.12628l-0.69947,2.47612h-2.42016l3.88905,-11.87699h2.08442l3.81911,11.87699h-2.42017l-0.68547,-2.47612zM133.31481,26.16776l-1.21708,-4.36469l-1.24506,4.36469zM144.09389,26.9092c-0.07461,-0.18653 -0.19585,-0.35906 -0.36372,-0.51761c-0.18653,-0.15855 -0.42435,-0.3031 -0.71346,-0.43367c-0.27979,-0.13989 -0.62953,-0.2658 -1.04921,-0.37771c-0.66217,-0.1772 -1.24039,-0.39171 -1.73469,-0.64352c-0.49429,-0.26113 -0.89998,-0.54558 -1.21707,-0.85335c-0.31709,-0.29844 -0.55491,-0.63419 -0.71346,-1.00724c-0.15855,-0.37305 -0.23782,-0.77408 -0.23782,-1.20309c0,-0.50362 0.10258,-0.95594 0.30776,-1.35697c0.21451,-0.41035 0.50829,-0.76009 0.88134,-1.04921c0.37305,-0.28911 0.81605,-0.51294 1.32899,-0.67149c0.51295,-0.15855 1.06786,-0.23782 1.66474,-0.23782c0.62486,0 1.19376,0.09326 1.7067,0.27979c0.51295,0.1772 0.95594,0.42434 1.32899,0.74143c0.36372,0.32642 0.64817,0.71346 0.85335,1.16112c0.20518,0.44766 0.30777,0.93729 0.30777,1.46889h-2.22432c-0.00932,-0.26113 -0.06062,-0.50361 -0.15388,-0.72744c-0.08393,-0.22383 -0.20518,-0.41968 -0.36373,-0.58755c-0.16788,-0.15855 -0.37771,-0.27979 -0.62952,-0.36373c-0.24248,-0.09326 -0.5316,-0.13989 -0.86735,-0.13989c-0.29844,0 -0.56891,0.0373 -0.81139,0.11191c-0.23316,0.07461 -0.43366,0.1772 -0.60154,0.30776c-0.15855,0.13057 -0.2798,0.28911 -0.36373,0.47564c-0.08393,0.1772 -0.1259,0.37304 -0.1259,0.58755c0,0.22383 0.05596,0.42901 0.16787,0.61554c0.11192,0.1772 0.27512,0.33574 0.48963,0.47564c0.20518,0.13989 0.45699,0.27046 0.75543,0.3917c0.30776,0.12124 0.65285,0.23316 1.03522,0.33574c0.40103,0.11191 0.78806,0.25181 1.16111,0.41968c0.37305,0.15855 0.71346,0.34507 1.02122,0.55958c0.46632,0.34507 0.83937,0.75076 1.11916,1.21708c0.27979,0.46632 0.41968,0.99792 0.41968,1.5948c0,0.52228 -0.10725,0.98858 -0.32175,1.39893c-0.20518,0.40103 -0.49429,0.74144 -0.86735,1.02123c-0.37305,0.27979 -0.81605,0.49429 -1.32899,0.64351c-0.50362,0.13989 -1.05853,0.20984 -1.66474,0.20984c-0.58756,0 -1.17511,-0.0886 -1.76266,-0.2658c-0.57823,-0.1772 -1.08185,-0.43833 -1.51085,-0.7834c-0.40103,-0.33574 -0.72279,-0.73211 -0.96527,-1.1891c-0.23316,-0.45698 -0.34973,-0.99324 -0.34973,-1.60878h2.25229c0.00932,0.36372 0.06995,0.67615 0.18186,0.93728c0.11192,0.25181 0.27512,0.45698 0.48963,0.61554c0.19585,0.16787 0.43367,0.28911 0.71346,0.36372c0.28911,0.07461 0.60621,0.11191 0.95128,0.11191c0.30776,0 0.57823,-0.03264 0.81139,-0.09793c0.23316,-0.07461 0.43366,-0.1772 0.60154,-0.30777c0.15855,-0.12124 0.27979,-0.27046 0.36373,-0.44766c0.09326,-0.1772 0.13989,-0.37305 0.13989,-0.58756c0,-0.20518 -0.03731,-0.40102 -0.11192,-0.58755zM150.49425,25.39835v3.35746h5.70767v1.84659h-8.00193v-11.87699h7.97395v1.87458h-5.67969v2.99373h4.8823v1.80464zM174.16477,26.9092c-0.07461,-0.18653 -0.19585,-0.35906 -0.36372,-0.51761c-0.18653,-0.15855 -0.42435,-0.3031 -0.71346,-0.43367c-0.27979,-0.13989 -0.62953,-0.2658 -1.04921,-0.37771c-0.66217,-0.1772 -1.24039,-0.39171 -1.73469,-0.64352c-0.49429,-0.26113 -0.89998,-0.54558 -1.21707,-0.85335c-0.31709,-0.29844 -0.55491,-0.63419 -0.71346,-1.00724c-0.15855,-0.37305 -0.23782,-0.77408 -0.23782,-1.20309c0,-0.50362 0.10258,-0.95594 0.30776,-1.35697c0.21451,-0.41035 0.50829,-0.76009 0.88134,-1.04921c0.37305,-0.28911 0.81605,-0.51294 1.32899,-0.67149c0.51295,-0.15855 1.06786,-0.23782 1.66474,-0.23782c0.62486,0 1.19376,0.09326 1.7067,0.27979c0.51296,0.1772 0.95597,0.42434 1.32902,0.74143c0.36372,0.32642 0.64818,0.71346 0.85336,1.16112c0.20518,0.44766 0.30776,0.93729 0.30776,1.46889h-2.22434c-0.00932,-0.26113 -0.06062,-0.50361 -0.15388,-0.72744c-0.08393,-0.22383 -0.20518,-0.41968 -0.36373,-0.58755c-0.16788,-0.15855 -0.37771,-0.27979 -0.62952,-0.36373c-0.24248,-0.09326 -0.5316,-0.13989 -0.86735,-0.13989c-0.29844,0 -0.56891,0.0373 -0.81139,0.11191c-0.23316,0.07461 -0.43366,0.1772 -0.60154,0.30776c-0.15855,0.13057 -0.27979,0.28911 -0.36373,0.47564c-0.08393,0.1772 -0.12591,0.37304 -0.12591,0.58755c0,0.22383 0.05596,0.42901 0.16788,0.61554c0.11192,0.1772 0.27511,0.33574 0.48962,0.47564c0.20518,0.13989 0.45699,0.27046 0.75543,0.3917c0.30776,0.12124 0.65284,0.23316 1.03522,0.33574c0.40103,0.11191 0.78807,0.25181 1.16112,0.41968c0.37305,0.15855 0.71347,0.34507 1.02125,0.55958c0.46632,0.34507 0.83936,0.75076 1.11915,1.21708c0.27979,0.46632 0.41969,0.99792 0.41969,1.5948c0,0.52228 -0.10725,0.98858 -0.32176,1.39893c-0.20518,0.40103 -0.49429,0.74144 -0.86734,1.02123c-0.37305,0.27979 -0.81606,0.49429 -1.32902,0.64351c-0.50362,0.13989 -1.05853,0.20984 -1.66474,0.20984c-0.58756,0 -1.17511,-0.0886 -1.76266,-0.2658c-0.57823,-0.1772 -1.08185,-0.43833 -1.51085,-0.7834c-0.40103,-0.33574 -0.72279,-0.73211 -0.96527,-1.1891c-0.23316,-0.45698 -0.34973,-0.99324 -0.34973,-1.60878h2.25229c0.00932,0.36372 0.06995,0.67615 0.18186,0.93728c0.11192,0.25181 0.27512,0.45698 0.48963,0.61554c0.19585,0.16787 0.43367,0.28911 0.71346,0.36372c0.28911,0.07461 0.60621,0.11191 0.95128,0.11191c0.30776,0 0.57823,-0.03264 0.81139,-0.09793c0.23316,-0.07461 0.43366,-0.1772 0.60154,-0.30777c0.15855,-0.12124 0.27979,-0.27046 0.36373,-0.44766c0.09326,-0.1772 0.13989,-0.37305 0.13989,-0.58756c0,-0.20518 -0.03731,-0.40102 -0.11192,-0.58755zM177.27766,18.72541h2.09841l0.79739,6.64496l0.05596,0.46165l0.06995,-0.48963l0.93729,-6.61698h1.63676l0.99324,6.65895l0.06995,0.48963l0.06995,-0.48963l0.79739,-6.65895h2.11239l-1.65075,11.87699h-2.07043l-1.03521,-6.40714l-0.09793,-0.60155l-0.08393,0.60155l-0.99325,6.40714h-2.07044zM195.52704,18.72541v1.8466h-2.30826v8.1838h2.30826v1.84659h-6.8548v-1.84659h2.2523v-8.1838h-2.2523v-1.8466zM200.62642,30.6024h-2.29425v-11.87699h4.05692c0.65284,0 1.24039,0.09325 1.76266,0.27979c0.52228,0.18653 0.96527,0.44767 1.32899,0.78341c0.36372,0.33574 0.64351,0.73677 0.83936,1.20309c0.20518,0.46632 0.30777,0.98858 0.30777,1.56681c0,0.53159 -0.10259,1.02123 -0.30777,1.46889c-0.19585,0.44766 -0.47564,0.8347 -0.83936,1.16112c-0.36372,0.33574 -0.80672,0.59687 -1.32899,0.7834c-0.52228,0.18653 -1.10983,0.27979 -1.76266,0.27979h-1.76266zM202.38908,24.39111c0.32642,0 0.60621,-0.04663 0.83936,-0.13989c0.24248,-0.10259 0.44766,-0.23782 0.61554,-0.40569c0.15855,-0.16787 0.27512,-0.36372 0.34973,-0.58755c0.08393,-0.22383 0.12591,-0.45233 0.12591,-0.68548c0,-0.27979 -0.04198,-0.53626 -0.12591,-0.76942c-0.07461,-0.24248 -0.19118,-0.45698 -0.34973,-0.64351c-0.16788,-0.1772 -0.37306,-0.3171 -0.61554,-0.41969c-0.23316,-0.10259 -0.51294,-0.15388 -0.83936,-0.15388h-1.76266v3.80511zM210.63607,25.39835v3.35746h5.70767v1.84659h-8.00194v-11.87699h7.97395v1.87458h-5.67969v2.99373h4.8823v1.80464zM236.1112,28.50399c-0.22383,0.47564 -0.51761,0.88134 -0.88133,1.21708c-0.37305,0.33574 -0.81605,0.59688 -1.32899,0.78341c-0.50362,0.1772 -1.06786,0.2658 -1.69272,0.2658c-0.48496,0 -0.93729,-0.06062 -1.35697,-0.18186c-0.41968,-0.13057 -0.79273,-0.31709 -1.11915,-0.55957c-0.30776,-0.22383 -0.57823,-0.48964 -0.81139,-0.7974c-0.23316,-0.31709 -0.43367,-0.66682 -0.60154,-1.0492c-0.15855,-0.38237 -0.27979,-0.80206 -0.36372,-1.25905c-0.08393,-0.45698 -0.12591,-0.94195 -0.12591,-1.4549v-1.59479c0,-0.47564 0.03731,-0.92797 0.11192,-1.35697c0.07461,-0.43833 0.19118,-0.84403 0.34973,-1.21708c0.16788,-0.44766 0.39171,-0.84869 0.6715,-1.20309c0.28911,-0.3544 0.61086,-0.65284 0.96526,-0.89532c0.32642,-0.20518 0.68082,-0.36372 1.0632,-0.47564c0.38237,-0.11191 0.79273,-0.16787 1.23107,-0.16787c0.65284,0 1.23106,0.09326 1.73468,0.27979c0.51295,0.18653 0.95128,0.44766 1.31501,0.78341c0.3544,0.34507 0.63418,0.76474 0.83936,1.25904c0.21451,0.4943 0.34507,1.05387 0.3917,1.67873h-2.28027c-0.01865,-0.3544 -0.06995,-0.66217 -0.15389,-0.9233c-0.08393,-0.27046 -0.20517,-0.49895 -0.36372,-0.68548c-0.16788,-0.16787 -0.37305,-0.29844 -0.61553,-0.3917c-0.24248,-0.09326 -0.5316,-0.13989 -0.86735,-0.13989c-0.1772,0 -0.34507,0.02331 -0.50361,0.06995c-0.14922,0.0373 -0.28912,0.09326 -0.41969,0.16787c-0.22383,0.13057 -0.41502,0.3171 -0.57357,0.55958c-0.14922,0.24248 -0.27046,0.52228 -0.36372,0.83937c-0.07461,0.25181 -0.13057,0.53159 -0.16787,0.83936c-0.02798,0.29844 -0.04197,0.6202 -0.04197,0.96527v1.60878c0,0.47564 0.02331,0.89999 0.06995,1.27304c0.05596,0.37305 0.1399,0.69947 0.25181,0.97926c0.07461,0.18653 0.16321,0.3544 0.2658,0.50361c0.11192,0.14922 0.23315,0.27046 0.36372,0.36372c0.14922,0.11191 0.31243,0.19585 0.48963,0.25181c0.18653,0.04663 0.39171,0.06995 0.61553,0.06995c0.29844,0 0.56891,-0.0373 0.81139,-0.11191c0.24248,-0.08394 0.44766,-0.20517 0.61553,-0.36372c0.16788,-0.16787 0.29844,-0.37771 0.3917,-0.62952c0.10259,-0.25181 0.16321,-0.55958 0.18186,-0.9233h2.29426c-0.03731,0.59688 -0.16787,1.1378 -0.3917,1.62277zM240.55308,28.12628l-0.69947,2.47612h-2.42016l3.88905,-11.87699h2.08442l3.81911,11.87699h-2.42016l-0.68548,-2.47612zM243.57479,26.16776l-1.21708,-4.36469l-1.24506,4.36469zM250.59071,26.16776v4.43464h-2.29426v-11.87699h3.98698c0.65284,0 1.24505,0.07927 1.77665,0.23782c0.54092,0.14922 1.00258,0.37305 1.38495,0.67149c0.37305,0.30776 0.6575,0.68549 0.85336,1.13315c0.20518,0.43833 0.30777,0.95128 0.30777,1.53883c0,0.42901 -0.05129,0.81138 -0.15388,1.14712c-0.09326,0.33574 -0.23315,0.63885 -0.41968,0.90931c-0.18653,0.27046 -0.41502,0.50828 -0.68548,0.71346c-0.26113,0.19586 -0.55491,0.36838 -0.88134,0.5176l2.56006,4.89628v0.11191h-2.46213l-2.2383,-4.43463zM252.28343,24.30717c0.3544,0 0.66683,-0.05129 0.93729,-0.15388c0.27046,-0.10259 0.48962,-0.24714 0.6575,-0.43368c0.13989,-0.14922 0.24714,-0.33107 0.32175,-0.54558c0.07461,-0.21451 0.11192,-0.45233 0.11192,-0.71346c0,-0.31709 -0.04664,-0.59689 -0.13989,-0.83937c-0.09326,-0.24248 -0.23781,-0.43833 -0.43366,-0.58755c-0.16788,-0.14922 -0.37306,-0.26114 -0.61554,-0.33575c-0.24248,-0.07461 -0.52227,-0.11191 -0.83936,-0.11191h-1.69272v3.72117zM258.27811,18.72541h3.07767c0.55025,0 1.06319,0.06995 1.53883,0.20984c0.47564,0.13057 0.90931,0.3171 1.30102,0.55958c0.34507,0.20518 0.65283,0.45233 0.92327,0.74144c0.27046,0.28911 0.50361,0.60621 0.69947,0.95128c0.23316,0.41968 0.41502,0.88133 0.54559,1.38495c0.13057,0.50362 0.19585,1.03988 0.19585,1.60878v0.97926c0,0.55025 -0.06062,1.07252 -0.18186,1.56681c-0.12124,0.48496 -0.28911,0.93263 -0.50362,1.34298c-0.20518,0.36372 -0.44766,0.69947 -0.72744,1.00724c-0.27977,0.30776 -0.58753,0.56424 -0.92327,0.76941c-0.38238,0.24248 -0.80672,0.42901 -1.27303,0.55958c-0.46632,0.13057 -0.96061,0.19584 -1.48288,0.19584h-3.18957zM260.58636,28.7558h0.88133c0.27979,0 0.54093,-0.03264 0.78341,-0.09793c0.2518,-0.07461 0.47564,-0.1772 0.67149,-0.30777c0.20518,-0.14922 0.3917,-0.33107 0.55957,-0.54558c0.16787,-0.22383 0.31243,-0.48031 0.43367,-0.76942c0.09326,-0.26113 0.16321,-0.54559 0.20984,-0.85336c0.05596,-0.31709 0.08393,-0.6575 0.08393,-1.02122v-0.99325c0,-0.34507 -0.02797,-0.67149 -0.08393,-0.97926c-0.04663,-0.30776 -0.11658,-0.58756 -0.20984,-0.83936c-0.12124,-0.30776 -0.27979,-0.57823 -0.47564,-0.81139c-0.18653,-0.24248 -0.41037,-0.43834 -0.67149,-0.58756c-0.19585,-0.12124 -0.41502,-0.20983 -0.6575,-0.26579c-0.23316,-0.06528 -0.48496,-0.09793 -0.75542,-0.09793h-0.76942z"/></g></g></svg>