<svg version="1.1" xmlns="http://www.w3.org/2000/svg" xmlns:xlink="http://www.w3.org/1999/xlink" width="304.3003" height="304.30025" viewBox="0,0,304.3003,304.30025"><g transform="translate(-92.84986,-32.84988)"><g data-paper-data="{&quot;isPaintingLayer&quot;:true}" stroke-miterlimit="10" stroke-dasharray="" stroke-dashoffset="0" style="mix-blend-mode: normal"><path d="M251.19056,249.82757c-33.59046,-13.63109 -25.1395,-41.37538 -25.1395,-41.37538c0,0 26.03837,-26.43427 45.49052,-26.43427c19.25264,0 70.63001,26.43427 70.63001,26.43427c0,0 11.48962,21.89619 -2.4865,31.23943c-22.7729,15.22402 -68.85434,18.10599 -88.49454,10.13595z" fill="#94c9db" fill-rule="nonzero" stroke="none" stroke-width="0" stroke-linecap="butt" stroke-linejoin="miter"/><path d="M259.57038,220.91704c-2.72057,-12.92273 19.27172,-16.66737 37.91234,-12.19322c26.17019,6.28142 29.49666,20.07232 25.53497,21.77018c-8.33775,3.57332 -58.26378,15.04475 -63.4473,-9.57695z" fill="#fefefe" fill-rule="nonzero" stroke="none" stroke-width="0" stroke-linecap="butt" stroke-linejoin="miter"/><path d="M339.43799,193.78273c0,0 21.47336,5.60174 25.20785,23.3406c3.73449,17.73886 -11.20348,49.79327 -69.08817,60.99676c-75.31234,15.5604 -111.10125,-29.25355 -90.25032,-62.2416c20.85093,-33.29925 56.63985,-4.97932 82.78133,-6.84658c22.40697,-1.55604 24.89664,-21.16214 51.34932,-15.24919z" fill="#ffffff" fill-rule="evenodd" stroke="none" stroke-width="15" stroke-linecap="butt" stroke-linejoin="miter"/><path d="M251.91798,227.08199c0,-1.24483 1.24484,-2.17846 2.48967,-1.86725c5.91295,2.17846 22.71818,7.15779 41.39066,8.40262c16.80523,0.93363 26.76389,0 31.43201,-0.93363c1.55604,-0.31121 2.80087,1.24483 2.17845,2.80087c-2.80087,8.40261 -14.62678,31.74322 -47.30362,29.87597c-28.31993,-3.11208 -31.1208,-23.02939 -30.18717,-38.27858z" fill="#ffffff" fill-rule="evenodd" stroke="#001026" stroke-width="15" stroke-linecap="round" stroke-linejoin="round"/><path d="M297.35434,200.94052c6.53537,0 13.38194,0.62241 13.69315,2.80087c0.31121,4.35691 -4.35691,13.07073 -9.33624,13.38194c-5.60174,0.62241 -18.67248,-7.15779 -18.67248,-12.13712c-0.31121,-3.73449 8.09141,-4.0457 14.31557,-4.0457z" fill="#001026" fill-rule="evenodd" stroke="#001026" stroke-width="15" stroke-linecap="round" stroke-linejoin="round"/><g fill-rule="evenodd" stroke-width="15"><path d="M334.07689,164.52918c9.02503,14.00436 9.33624,29.87597 0.62241,35.47771c-8.71382,5.60174 -23.02939,-0.93362 -32.36563,-14.93798c-9.02503,-14.00436 -9.33624,-29.87597 -0.62242,-35.47771c8.71382,-5.91295 23.3406,0.93362 32.36563,14.93798z" fill="#ffffff" stroke="#001026" stroke-linecap="round" stroke-linejoin="round"/><path d="M332.83205,182.26805c0,3.42329 -2.48966,6.22416 -5.60174,6.22416c-3.11208,0 -5.60175,-2.80087 -5.60175,-6.22416c0,-3.42329 2.48967,-6.22416 5.60175,-6.22416c3.11208,0 5.60174,2.80087 5.60174,6.22416" fill="#001026" stroke="none" stroke-linecap="butt" stroke-linejoin="miter"/></g><g fill-rule="evenodd" stroke-width="15"><path d="M256.8973,173.24301c9.33624,13.69315 8.71382,30.49838 0.3112,36.41133c-10.26986,5.91295 -23.96301,1.55604 -33.29925,-12.13711c-9.64745,-13.69315 -10.26987,-31.43201 -0.62242,-38.27858c9.64745,-7.15778 24.27423,0.31121 33.61047,14.00436z" fill="#ffffff" stroke="#001026" stroke-linecap="round" stroke-linejoin="round"/><path d="M255.03006,191.29308c0,3.42329 -2.48967,6.22416 -5.60174,6.22416c-3.11208,0 -5.60174,-2.80087 -5.60174,-6.22416c0,-3.42329 2.48966,-6.22416 5.60174,-6.22416c3.11208,0.31121 5.60174,2.80087 5.60174,6.22416" fill="#001026" stroke="none" stroke-linecap="butt" stroke-linejoin="miter"/></g><path d="M289.35951,92.97066c1.02296,-0.68197 2.72789,-0.34099 3.06887,1.02296l8.86565,36.48554c0,0 21.82313,16.02636 28.30187,27.27891c10.91156,18.75425 11.25256,34.09864 11.25256,34.09864c0,0 24.21003,7.16071 28.30187,26.59694c4.09184,19.43623 -10.91156,56.26276 -75.01701,68.87926c-64.10544,12.6165 -115.59439,-4.77381 -139.80442,-43.64626c-24.21004,-38.87245 13.98045,-85.2466 11.93453,-82.51871l-7.16072,-61.03656c-0.34099,-1.36394 1.36395,-2.3869 2.72789,-1.70493l41.25936,26.93792c0,0 15.34438,-5.79677 31.37075,-6.47874c9.54762,-0.68197 17.73129,0 25.57398,1.36394z" fill="#ffab19" fill-rule="evenodd" stroke="#001026" stroke-width="15" stroke-linecap="butt" stroke-linejoin="miter"/><path d="M289.35951,92.97066c1.02296,-0.68198 2.72789,-0.34099 3.06887,1.02295l8.86565,36.48555c0,0 21.82312,16.02637 28.30186,27.27891c10.91157,18.75425 11.25255,34.09864 11.25255,34.09864c0,0 24.21003,7.16071 28.30186,26.59693c4.09184,19.43623 -10.91157,56.26276 -75.01701,68.87926c-64.10544,12.6165 -115.59439,-4.77381 -139.80442,-43.64626c-24.21004,-38.87245 13.98044,-85.2466 11.93452,-82.51871l-7.16072,-61.03656c-0.34099,-1.36394 1.36395,-2.38691 2.72789,-1.70493l41.25936,26.93792c0,0 15.34439,-5.79677 31.37076,-6.47874c9.54762,-0.68197 17.7313,0 25.57398,1.36394z" fill="#ffab19" fill-rule="evenodd" stroke="#001026" stroke-width="7.5" stroke-linecap="butt" stroke-linejoin="miter"/><path d="M339.43799,193.78273c0,0 21.47335,5.60174 25.20785,23.3406c3.7345,17.73886 -11.20349,49.79328 -69.08818,60.99677c-75.31234,15.5604 -111.10126,-29.25355 -90.25032,-62.2416c20.85094,-33.29926 56.63986,-4.97933 82.78133,-6.84658c22.40698,-1.55604 24.89664,-21.16214 51.34932,-15.24919z" fill="#ffffff" fill-rule="evenodd" stroke="none" stroke-width="7.5" stroke-linecap="butt" stroke-linejoin="miter"/><path d="M251.91798,227.08199c0,-1.24483 1.24483,-2.17846 2.48966,-1.86725c5.91295,2.17846 22.71818,7.15778 41.39066,8.40262c16.80523,0.93362 26.76389,0 31.43201,-0.93362c1.55604,-0.31121 2.80087,1.24483 2.17846,2.80087c-2.80087,8.40262 -14.62678,31.74322 -47.30362,29.87597c-28.31993,-3.11208 -31.1208,-23.02939 -30.18718,-38.27858z" fill="#ffffff" fill-rule="evenodd" stroke="#001026" stroke-width="7.5" stroke-linecap="round" stroke-linejoin="round"/><path d="M297.35434,200.94052c6.53537,0 13.38194,0.62242 13.69315,2.80087c0.31121,4.35691 -4.35691,13.07074 -9.33624,13.38194c-5.60174,0.62242 -18.67248,-7.15778 -18.67248,-12.13711c-0.31121,-3.7345 8.09141,-4.0457 14.31557,-4.0457z" fill="#001026" fill-rule="evenodd" stroke="#001026" stroke-width="7.5" stroke-linecap="round" stroke-linejoin="round"/><g fill-rule="evenodd" stroke-width="7.5"><path d="M334.07689,164.52918c9.02503,14.00436 9.33624,29.87597 0.62242,35.47771c-8.71382,5.60174 -23.02939,-0.93362 -32.36563,-14.93798c-9.02503,-14.00436 -9.33624,-29.87597 -0.62242,-35.47771c8.71382,-5.91295 23.3406,0.93362 32.36563,14.93798z" fill="#ffffff" stroke="#001026" stroke-linecap="round" stroke-linejoin="round"/><path d="M332.83205,182.26805c0,3.42329 -2.48966,6.22416 -5.60174,6.22416c-3.11208,0 -5.60174,-2.80087 -5.60174,-6.22416c0,-3.42329 2.48966,-6.22416 5.60174,-6.22416c3.11208,0 5.60174,2.80087 5.60174,6.22416" fill="#001026" stroke="none" stroke-linecap="butt" stroke-linejoin="miter"/></g><g fill-rule="evenodd" stroke-width="7.5"><path d="M256.8973,173.24303c9.33624,13.69315 8.71382,30.49838 0.31121,36.41134c-10.26986,5.91295 -23.96302,1.55604 -33.29926,-12.13711c-9.64745,-13.69315 -10.26986,-31.43201 -0.62242,-38.27858c9.64745,-7.15778 24.27422,0.31121 33.61046,14.00436z" fill="#ffffff" stroke="#001026" stroke-linecap="round" stroke-linejoin="round"/><path d="M255.03006,191.29308c0,3.42329 -2.48966,6.22416 -5.60174,6.22416c-3.11208,0 -5.60174,-2.80087 -5.60174,-6.22416c0,-3.42329 2.48966,-6.22416 5.60174,-6.22416c3.11208,0.31121 5.60174,2.80087 5.60174,6.22416" fill="#001026" stroke="none" stroke-linecap="butt" stroke-linejoin="miter"/></g><path d="M94.84986,275.23517c0,-59.99896 0,-148.11906 0,-181.81815c0,-26.16557 22.73163,-58.56714 54.69562,-58.56714c60.91162,0 155.35022,0 189.899,0c25.1397,0 55.70568,31.10369 55.70568,56.54696c0,34.37139 0,127.20919 0,187.87876c0,32.57375 -30.56593,55.87453 -55.70568,55.87453c-33.79375,0 -124.88841,0 -185.85858,0c-34.07175,0 -58.73599,-25.26921 -58.73599,-59.91496z" fill="#83a08b" fill-rule="nonzero" stroke="#83a08b" stroke-width="4" stroke-linecap="butt" stroke-linejoin="miter"/><g fill-rule="nonzero" stroke-linejoin="miter"><path d="M309.38238,118.16865c41.37509,10.59727 1.84696,77.87142 13.75666,78.95933c3.41732,0.31216 30.3502,5.97759 24.40848,21.98108c-8.13849,21.92028 -95.53666,15.0701 -154.14543,13.25052c-14.715,-0.45684 -17.80738,14.1311 -36.99054,11.02506c-31.05863,-5.02885 -31.25148,-26.99887 -10.0499,-49.67751c9.17719,-9.81653 28.20108,-11.13372 39.94162,-23.67036c47.90983,-51.15846 97.85514,-58.32866 123.07913,-51.86812z" fill="#375b2b" stroke="#000000" stroke-width="19" stroke-linecap="butt"/><path d="M193.40209,232.35958c0,0 -17.80738,14.1311 -36.99054,11.02506c-31.05863,-5.02885 -31.25148,-26.99887 -10.0499,-49.67751c3.17739,-3.39875 5.94254,-11.28147 12.12263,-14.90561c11.66971,-6.84337 27.81899,-8.76475 27.81899,-8.76475c0,0 -16.40655,21.47818 -13.6731,31.20787c7.21786,25.69197 20.77193,31.11494 20.77193,31.11494z" fill="#173f25" stroke="none" stroke-width="0" stroke-linecap="butt"/><path d="M149.36029,235.70587c0,0 24.27933,-11.40006 47.21025,-20.00552c8.82659,-3.31242 17.45341,-6.21078 24.41885,-7.88554c44.67839,-13.76741 94.37088,-16.11665 94.37088,-16.11665" fill="none" stroke="#c3931d" stroke-width="19" stroke-linecap="round"/><path d="M157.36029,242.70588c0,0 46.5679,-21.86539 71.62912,-27.89106c44.67838,-13.76741 104.37088,-13.11665 104.37088,-13.11665" fill="none" stroke="#000000" stroke-width="19" stroke-linecap="round"/><path d="M309.38238,118.16864c41.37509,10.59727 1.84696,77.87142 13.75666,78.95933c3.41732,0.31216 30.3502,5.97759 24.40848,21.98108c-8.13849,21.92028 -95.53666,15.0701 -154.14543,13.25052c-14.715,-0.45684 -17.80738,14.1311 -36.99054,11.02506c-31.05863,-5.02885 -31.25148,-26.99887 -10.0499,-49.67751c9.17719,-9.81653 28.20108,-11.13372 39.94162,-23.67036c47.90983,-51.15846 97.85514,-58.32866 123.07913,-51.86812z" fill="none" stroke="#000000" stroke-width="19" stroke-linecap="butt"/><path d="M322.75634,176.17006c6.77157,1.32026 18.49255,1.99643 18.32424,-9.20002c-0.09672,-6.43458 -4.0974,-7.61612 -7.41958,-7.8973c-5.64527,-0.47778 -13.61541,-0.61816 -15.91683,0.91296c-1.74705,1.1623 5.95114,-12.07187 -14.67283,-11.54321c-2.53642,0.06502 -11.46479,4.58437 -8.59758,12.24802c0.49262,1.31672 -0.8461,-2.00028 -3.52064,-3.89511c-1.08528,-0.7689 -4.0612,-1.30362 -4.62739,-1.19952c-12.13555,2.2311 -22.79246,1.52072 -22.43707,6.07044c0.28343,3.62867 6.83031,7.72978 16.07002,11.40013c9.47254,3.76284 18.67327,6.57294 21.44468,8.45707c4.08507,2.77721 10.05774,-0.96994 13.63749,-3.8294c1.83566,-1.46631 4.97283,-2.0588 7.71549,-1.52406z" fill="#c7961d" stroke="#523109" stroke-width="6.5" stroke-linecap="butt"/></g></g></g></svg>