<svg version="1.1" xmlns="http://www.w3.org/2000/svg" xmlns:xlink="http://www.w3.org/1999/xlink" width="103.70875" height="39.38621" viewBox="0,0,103.70875,39.38621"><g transform="translate(-188.14564,-160.3069)"><g data-paper-data="{&quot;isPaintingLayer&quot;:true}" fill-rule="nonzero" stroke-linejoin="miter" stroke-miterlimit="10" stroke-dasharray="" stroke-dashoffset="0" style="mix-blend-mode: normal"><path d="M188.14564,190.80001c0,-7.29179 0,-17.61708 0,-21.66667c0,-3.82737 5.65847,-8.82644 10.03899,-8.82644c8.99358,0 61.02926,0 83.0627,0c5.63146,0 10.60706,5.44539 10.60706,9.4931c0,4.02993 0,11.94766 0,19c0,5.51744 -5.64386,10.89311 -10.60706,10.89311c-21.01001,0 -72.92534,0 -84.19884,0c-3.86395,0 -8.90285,-3.36141 -8.90285,-8.89311z" fill="#5e7060" stroke="none" stroke-width="0" stroke-linecap="butt"/><path d="M216.60344,176.43264c1.22579,-1.55266 2.7376,-2.32899 4.53542,-2.32899c1.78421,0 3.20067,0.67418 4.2494,2.02255c1.06235,1.33475 1.59352,3.07128 1.59352,5.2096c0,2.02937 -0.51756,3.6978 -1.55267,5.00531c-1.02149,1.29389 -2.44476,1.94083 -4.26982,1.94083c-1.72972,0 -3.24835,-0.72866 -4.55585,-2.18599v4.55584c0,1.25303 -0.15662,2.02937 -0.46988,2.329c-0.31326,0.31326 -0.73547,0.46989 -1.26665,0.46989c-0.64013,0 -1.0896,-0.21111 -1.34837,-0.63333c-0.25877,-0.42221 -0.38817,-1.17812 -0.38817,-2.26771v-13.74926c0,-0.72186 0.02724,-1.24622 0.08172,-1.57309c0.0681,-0.3405 0.25197,-0.6129 0.55161,-0.81719c0.31326,-0.2043 0.68099,-0.30644 1.10321,-0.30644c1.15768,0 1.73653,0.64694 1.73653,1.94083zM223.44742,181.25408c0,-1.52543 -0.32006,-2.65587 -0.9602,-3.39135c-0.64013,-0.73548 -1.38923,-1.10321 -2.24728,-1.10321c-0.99425,0 -1.81825,0.37455 -2.472,1.12364c-0.64013,0.74909 -0.9602,1.79782 -0.9602,3.14619c0,1.40285 0.31326,2.51968 0.93977,3.35049c0.62651,0.81719 1.46413,1.22579 2.51287,1.22579c0.93977,0 1.70249,-0.38136 2.28814,-1.14407c0.59928,-0.77633 0.89891,-1.84549 0.89891,-3.20748zM239.54611,182.05084h-6.84398c0.04086,1.29389 0.39498,2.26771 1.06235,2.92146c0.68099,0.65375 1.49818,0.98063 2.45157,0.98063c1.15768,0 2.25409,-0.51075 3.2892,-1.53224c0.42221,-0.42221 0.72866,-0.68099 0.91934,-0.77633c0.2043,-0.10896 0.42902,-0.16344 0.67418,-0.16344c0.31326,0 0.57885,0.10215 0.79676,0.30644c0.23154,0.19068 0.34731,0.42903 0.34731,0.71505c0,0.78995 -0.53798,1.62077 -1.61396,2.49244c-1.06235,0.85805 -2.51286,1.28708 -4.35154,1.28708c-2.329,0 -4.09958,-0.66056 -5.31175,-1.98169c-1.19854,-1.32112 -1.79782,-3.02362 -1.79782,-5.10746c0,-2.11108 0.59928,-3.82037 1.79782,-5.12788c1.21217,-1.3075 2.89422,-1.96126 5.04616,-1.96126c2.04298,0 3.62289,0.6197 4.73971,1.85911c1.11683,1.22579 1.67525,2.56054 1.67525,4.00425c0,0.64013 -0.18387,1.15088 -0.55161,1.53223c-0.36774,0.36774 -1.14407,0.5516 -2.329,0.5516zM232.70213,180.06915h6.35367c-0.04086,-1.15768 -0.36093,-2.04298 -0.9602,-2.65588c-0.59928,-0.6129 -1.33475,-0.91934 -2.20642,-0.91934c-1.8523,0 -2.91465,1.19174 -3.18705,3.57522zM245.93298,174.41009v-2.10427c0,-0.85805 0.03405,-1.4369 0.10215,-1.73653c0.08172,-0.31326 0.2724,-0.59247 0.57203,-0.83763c0.29963,-0.24516 0.65376,-0.36773 1.06235,-0.36773c0.38136,0 0.72186,0.10896 1.02149,0.32688c0.29963,0.21792 0.49712,0.49032 0.59246,0.81719c0.09534,0.31326 0.14301,0.824 0.14301,1.53223v2.36986h0.67418c0.85805,0 1.42328,0.10215 1.69568,0.30645c0.28601,0.2043 0.42902,0.51074 0.42902,0.91934c0,0.85805 -0.71505,1.28708 -2.14513,1.28708h-0.65376v6.43539c0,0.87167 0.06129,1.46413 0.18387,1.77739c0.12258,0.31326 0.44946,0.46989 0.98063,0.46989c0.25877,0 0.54479,-0.03405 0.85805,-0.10215c0.32688,-0.08172 0.56522,-0.12258 0.71505,-0.12258c0.35412,0 0.64014,0.11577 0.85805,0.34731c0.21792,0.23154 0.32688,0.51074 0.32688,0.83762c0,1.14407 -1.20536,1.7161 -3.61607,1.7161c-1.17131,0 -2.02936,-0.21791 -2.57416,-0.65375c-0.54479,-0.43584 -0.8853,-0.9602 -1.02149,-1.57309c-0.13619,-0.62651 -0.2043,-1.4437 -0.2043,-2.45157v-6.68055h-0.44946c-1.03511,0 -1.55266,-0.42221 -1.55266,-1.26665c0,-0.83081 0.54479,-1.24622 1.63438,-1.24622zM257.27407,177.71972c0,0.44946 0.23154,0.80358 0.69461,1.06235c0.46308,0.25877 1.5118,0.58565 3.14619,0.98063c3.15981,0.77633 4.73971,2.09065 4.73971,3.94296c0,1.48457 -0.53798,2.62183 -1.61395,3.41178c-1.06235,0.77633 -2.54691,1.1645 -4.45369,1.1645c-1.94765,0 -3.41178,-0.40178 -4.39241,-1.20536c-0.98063,-0.80357 -1.47095,-1.65482 -1.47095,-2.55373c0,-0.38136 0.13619,-0.70823 0.40859,-0.98063c0.2724,-0.2724 0.60608,-0.40859 1.00106,-0.40859c0.54479,0 1.02149,0.3405 1.43009,1.02149c0.46308,0.74909 0.96701,1.24622 1.5118,1.49138c0.55842,0.24516 1.15089,0.36773 1.7774,0.36773c0.70823,0 1.28026,-0.15662 1.7161,-0.46989c0.43584,-0.31326 0.65376,-0.70823 0.65376,-1.18493c0,-0.43584 -0.18387,-0.81038 -0.5516,-1.12364c-0.36773,-0.31326 -1.38242,-0.66056 -3.04405,-1.04192c-1.648,-0.38136 -2.85336,-0.91253 -3.61607,-1.59352c-0.76271,-0.69461 -1.14406,-1.51181 -1.14406,-2.45158c0,-1.06235 0.46307,-2.00212 1.38922,-2.81931c0.92616,-0.81719 2.31538,-1.22579 4.16768,-1.22579c1.68886,0 3.03042,0.34731 4.02467,1.04192c1.00788,0.68099 1.5118,1.38922 1.5118,2.1247c0,0.39498 -0.12939,0.72866 -0.38816,1.00106c-0.24516,0.2724 -0.59247,0.4086 -1.04192,0.4086c-0.68099,0 -1.29388,-0.38817 -1.83868,-1.1645c-0.53118,-0.77633 -1.34156,-1.1645 -2.43115,-1.1645c-0.58565,0 -1.0964,0.12258 -1.53224,0.36774c-0.43584,0.23154 -0.65375,0.56522 -0.65375,1.00106z" fill="#ffffff" stroke="#000000" stroke-width="5" stroke-linecap="square"/><path d="M216.60344,176.43264c1.22579,-1.55267 2.73759,-2.329 4.53542,-2.329c1.78421,0 3.20067,0.67418 4.2494,2.02255c1.06235,1.33475 1.59352,3.07128 1.59352,5.2096c0,2.02936 -0.51756,3.69779 -1.55267,5.0053c-1.02149,1.29389 -2.44476,1.94083 -4.26983,1.94083c-1.72972,0 -3.24834,-0.72866 -4.55585,-2.18599v4.55585c0,1.25303 -0.15663,2.02936 -0.46989,2.329c-0.31326,0.31326 -0.73547,0.46989 -1.26665,0.46989c-0.64014,0 -1.08959,-0.21111 -1.34837,-0.63332c-0.25878,-0.42221 -0.38817,-1.17812 -0.38817,-2.26771v-13.74926c0,-0.72186 0.02724,-1.24622 0.08172,-1.57309c0.0681,-0.34049 0.25197,-0.61289 0.5516,-0.81719c0.31326,-0.2043 0.681,-0.30645 1.10321,-0.30645c1.15769,0 1.73653,0.64694 1.73653,1.94083zM223.44742,181.25408c0,-1.52542 -0.32006,-2.65587 -0.9602,-3.39135c-0.64014,-0.73547 -1.38923,-1.10321 -2.24728,-1.10321c-0.99425,0 -1.81825,0.37455 -2.47201,1.12364c-0.64014,0.74909 -0.9602,1.79782 -0.9602,3.14619c0,1.40284 0.31326,2.51968 0.93977,3.35049c0.62651,0.81719 1.46413,1.22579 2.51287,1.22579c0.93977,0 1.70249,-0.38135 2.28814,-1.14407c0.59928,-0.77633 0.89891,-1.84549 0.89891,-3.20748zM239.54611,182.05084h-6.84398c0.04086,1.29389 0.39498,2.26771 1.06235,2.92146c0.681,0.65375 1.49819,0.98063 2.45158,0.98063c1.15769,0 2.25409,-0.51075 3.2892,-1.53224c0.42221,-0.42221 0.72866,-0.681 0.91934,-0.77633c0.2043,-0.10896 0.42903,-0.16344 0.67418,-0.16344c0.31326,0 0.57885,0.10215 0.79676,0.30645c0.23154,0.19068 0.34731,0.42903 0.34731,0.71504c0,0.78995 -0.53799,1.62077 -1.61395,2.49244c-1.06235,0.85805 -2.51287,1.28708 -4.35155,1.28708c-2.329,0 -4.09958,-0.66057 -5.31175,-1.98169c-1.19855,-1.32113 -1.79782,-3.02361 -1.79782,-5.10745c0,-2.11108 0.59928,-3.82037 1.79782,-5.12788c1.21217,-1.30751 2.89422,-1.96126 5.04616,-1.96126c2.04298,0 3.62289,0.61971 4.73971,1.85911c1.11683,1.22579 1.67524,2.56054 1.67524,4.00424c0,0.64014 -0.18387,1.15088 -0.5516,1.53224c-0.36774,0.36774 -1.14407,0.5516 -2.329,0.5516zM232.70212,180.06915h6.35367c-0.04086,-1.15769 -0.36092,-2.04298 -0.9602,-2.65587c-0.59928,-0.61289 -1.33475,-0.91934 -2.20642,-0.91934c-1.8523,0 -2.91465,1.19174 -3.18705,3.57522zM245.93297,174.41009v-2.10427c0,-0.85805 0.03405,-1.4369 0.10215,-1.73653c0.08172,-0.31326 0.2724,-0.59246 0.57203,-0.83762c0.29963,-0.24516 0.65375,-0.36774 1.06235,-0.36774c0.38135,0 0.72186,0.10896 1.02149,0.32688c0.29963,0.21792 0.49713,0.49032 0.59246,0.81719c0.09534,0.31326 0.14301,0.824 0.14301,1.53224v2.36986h0.67418c0.85805,0 1.42327,0.10215 1.69567,0.30645c0.28602,0.2043 0.42903,0.51075 0.42903,0.91934c0,0.85805 -0.71504,1.28708 -2.14513,1.28708h-0.65375v6.43539c0,0.87167 0.06129,1.46413 0.18387,1.77739c0.12258,0.31326 0.44946,0.46989 0.98063,0.46989c0.25878,0 0.54479,-0.03405 0.85805,-0.10215c0.32688,-0.08172 0.56522,-0.12258 0.71504,-0.12258c0.35412,0 0.64014,0.11577 0.85805,0.34731c0.21792,0.23154 0.32688,0.51075 0.32688,0.83762c0,1.14407 -1.20536,1.7161 -3.61608,1.7161c-1.17131,0 -2.02936,-0.21792 -2.57416,-0.65375c-0.54479,-0.43584 -0.88529,-0.9602 -1.02149,-1.57309c-0.1362,-0.62651 -0.2043,-1.4437 -0.2043,-2.45158v-6.68055h-0.44946c-1.03511,0 -1.55267,-0.42221 -1.55267,-1.26665c0,-0.83081 0.54479,-1.24622 1.63438,-1.24622zM257.27407,177.71972c0,0.44946 0.23154,0.80357 0.69461,1.06235c0.46307,0.25878 1.51181,0.58565 3.14619,0.98063c3.15981,0.77633 4.73971,2.09065 4.73971,3.94295c0,1.48456 -0.53799,2.62183 -1.61395,3.41178c-1.06235,0.77633 -2.54691,1.1645 -4.4537,1.1645c-1.94764,0 -3.41178,-0.40178 -4.39241,-1.20536c-0.98063,-0.80357 -1.47095,-1.65481 -1.47095,-2.55373c0,-0.38135 0.1362,-0.70823 0.4086,-0.98063c0.2724,-0.2724 0.60608,-0.4086 1.00106,-0.4086c0.54479,0 1.02149,0.34049 1.43009,1.02149c0.46307,0.74909 0.96701,1.24622 1.51181,1.49138c0.55842,0.24516 1.15088,0.36774 1.77739,0.36774c0.70823,0 1.28027,-0.15663 1.7161,-0.46989c0.43584,-0.31326 0.65375,-0.70823 0.65375,-1.18493c0,-0.43584 -0.18387,-0.81038 -0.5516,-1.12364c-0.36774,-0.31326 -1.38241,-0.66057 -3.04404,-1.04192c-1.648,-0.38135 -2.85336,-0.91253 -3.61608,-1.59352c-0.76271,-0.69461 -1.14407,-1.51181 -1.14407,-2.45158c0,-1.06235 0.46307,-2.00212 1.38923,-2.81931c0.92615,-0.81719 2.31538,-1.22579 4.16768,-1.22579c1.68886,0 3.03042,0.34731 4.02467,1.04192c1.00787,0.681 1.51181,1.38923 1.51181,2.1247c0,0.39498 -0.12939,0.72866 -0.38817,1.00106c-0.24516,0.2724 -0.59246,0.4086 -1.04192,0.4086c-0.681,0 -1.29389,-0.38817 -1.83868,-1.1645c-0.53117,-0.77633 -1.34155,-1.1645 -2.43115,-1.1645c-0.58565,0 -1.0964,0.12258 -1.53224,0.36774c-0.43584,0.23154 -0.65375,0.56522 -0.65375,1.00106z" fill="#ffffff" stroke="none" stroke-width="1" stroke-linecap="square"/></g></g></svg>