<svg version="1.1" xmlns="http://www.w3.org/2000/svg" xmlns:xlink="http://www.w3.org/1999/xlink" width="79.18463" height="68.64947" viewBox="0,0,79.18463,68.64947"><g transform="translate(-200.34955,-145.35576)"><g data-paper-data="{&quot;isPaintingLayer&quot;:true}" fill-rule="nonzero" stroke-linejoin="miter" stroke-miterlimit="10" stroke-dasharray="" stroke-dashoffset="0" style="mix-blend-mode: normal"><path d="M206.32738,150.2115l65.32231,-0.20423l-32.67878,14.33788z" fill="#b7c5c5" stroke="none" stroke-width="0" stroke-linecap="butt"/><path d="M272.02921,149.80273l-33.27238,59.69064l1.1271,-47.80612z" data-paper-data="{&quot;index&quot;:null}" fill="#a8aebb" stroke="none" stroke-width="0" stroke-linecap="butt"/><path d="M240.15435,161.64062l-0.17494,49.04895l-33.65205,-60.47805z" fill="#abbbbb" stroke="none" stroke-width="0" stroke-linecap="butt"/><path d="M244.44224,205.81499l-4.22795,4.4873l-34.2491,-58.46271z" fill="#7d1d10" stroke="none" stroke-width="0" stroke-linecap="butt"/><path d="M273.93676,149.66842l-31.28696,59.20268l-4.33693,-4.46052z" data-paper-data="{&quot;index&quot;:null}" fill="#7d1d10" stroke="none" stroke-width="0" stroke-linecap="butt"/><path d="M208.22036,148.80758c10.89562,-0.03406 42.74207,-0.13363 64.55831,-0.20184c1.48834,-0.00465 2.34692,0.58983 1.89693,1.41282c-2.69707,4.93256 -28.4189,51.97437 -33.21002,60.73667c-0.4947,0.90476 -1.08444,0.84621 -1.66067,-0.15922c-5.20506,-9.08219 -31.46543,-54.90319 -34.45423,-60.11827c-0.54432,-0.94976 0.43783,-1.66256 2.86969,-1.67017z" fill="none" stroke="#000000" stroke-width="6.5" stroke-linecap="butt"/><path d="M208.22036,148.80758c10.89562,-0.03406 42.74207,-0.13363 64.55831,-0.20184c1.48834,-0.00465 2.34692,0.58983 1.89693,1.41282c-2.69707,4.93256 -28.4189,51.97437 -33.21002,60.73667c-0.4947,0.90476 -1.08444,0.84621 -1.66067,-0.15923c-5.20508,-9.08219 -31.46543,-54.90319 -34.45423,-60.11826c-0.54432,-0.94976 0.43783,-1.66256 2.86969,-1.67017z" fill="none" stroke="#00f000" stroke-width="3.5" stroke-linecap="butt"/><g stroke-linecap="square"><g fill="#ffffff" stroke="#000000" stroke-width="4.5"><path d="M215.44609,167.10306c0.46161,0 0.84535,0.18075 1.15123,0.54225c0.30588,0.3615 0.45882,0.73134 0.45882,1.10952c0,1.02888 -0.61732,2.07166 -1.85198,3.12835c-1.22909,1.05112 -2.8753,1.57669 -4.93862,1.57669c-2.49711,0 -4.37968,-0.70631 -5.6477,-2.11893c-1.26802,-1.41819 -1.90203,-3.25627 -1.90203,-5.51424c0,-2.29134 0.65626,-4.16278 1.96877,-5.61433c1.31808,-1.45711 3.19508,-2.18567 5.63102,-2.18567c1.89091,0 3.45369,0.49498 4.68834,1.48492c1.24021,0.98439 1.86033,1.95765 1.86033,2.91979c0,0.46161 -0.16685,0.84813 -0.50054,1.15957c-0.33369,0.31144 -0.72577,0.46717 -1.17626,0.46717c-0.55615,0 -0.99273,-0.23637 -1.30973,-0.70909c-0.69519,-1.05669 -1.31252,-1.72685 -1.85198,-2.01048c-0.5339,-0.28363 -1.1123,-0.42545 -1.73519,-0.42545c-1.21241,0 -2.14952,0.46717 -2.81134,1.4015c-0.65626,0.92877 -0.98439,2.08834 -0.98439,3.47872c0,1.42931 0.34481,2.59444 1.03444,3.4954c0.68963,0.8954 1.61005,1.3431 2.76129,1.3431c0.65626,0 1.26246,-0.15294 1.81861,-0.45882c0.55615,-0.31144 1.03444,-0.77861 1.43487,-1.4015c0.40599,-0.62845 0.72577,-1.06225 0.95936,-1.30139c0.23914,-0.24471 0.55337,-0.36706 0.94267,-0.36706zM220.26071,167.81217v-6.65712c0,-0.82866 0.03059,-1.42374 0.09176,-1.78524c0.06674,-0.36706 0.26417,-0.68128 0.5923,-0.94267c0.32813,-0.26695 0.72577,-0.40043 1.19294,-0.40043c0.44492,0 0.83422,0.12513 1.16791,0.3754c0.33925,0.25027 0.54781,0.5784 0.62567,0.98439c0.08342,0.40599 0.12513,1.02332 0.12513,1.85198v5.21391c0,1.71294 0.26417,2.81134 0.79251,3.29519c0.5339,0.47829 1.12064,0.71744 1.76021,0.71744c0.73412,0 1.37647,-0.20578 1.92706,-0.61733c0.55059,-0.41155 0.92599,-0.90652 1.1262,-1.48492c0.20021,-0.5784 0.30032,-1.72128 0.30032,-3.42867v-3.77904c0,-0.80642 0.03893,-1.4015 0.11679,-1.78524c0.07786,-0.38375 0.28364,-0.70353 0.61733,-0.95936c0.33369,-0.25583 0.72856,-0.38375 1.1846,-0.38375c0.4338,0 0.82032,0.12513 1.15957,0.3754c0.33925,0.25027 0.54225,0.56449 0.60899,0.94267c0.0723,0.37262 0.10845,0.97605 0.10845,1.81027v9.36835c0,0.76749 -0.03893,1.32364 -0.11679,1.66846c-0.0723,0.34481 -0.25583,0.64235 -0.55059,0.89262c-0.2892,0.25027 -0.65626,0.3754 -1.10118,0.3754c-1.22353,0 -1.81027,-0.87594 -1.76021,-2.62782c-1.27358,1.75188 -2.9476,2.62782 -5.02204,2.62782c-1.37369,0 -2.5416,-0.40877 -3.50374,-1.22631c-0.96214,-0.82311 -1.44321,-2.29691 -1.44321,-4.4214zM240.4445,161.97259c0,0.48941 0.25305,0.87315 0.75914,1.15123c0.51166,0.27807 1.65455,0.63679 3.42867,1.07615c3.43701,0.83422 5.15551,2.26631 5.15551,4.29626c0,1.60171 -0.58118,2.8308 -1.74353,3.68728c-1.15679,0.85091 -2.77797,1.27637 -4.86353,1.27637c-2.11337,0 -3.70674,-0.43658 -4.78011,-1.30973c-1.06781,-0.87316 -1.60171,-1.79638 -1.60171,-2.76964c0,-0.41711 0.14738,-0.77305 0.44214,-1.06781c0.30032,-0.29476 0.66738,-0.44214 1.10118,-0.44214c0.59508,0 1.11508,0.36984 1.56,1.10952c0.50053,0.81754 1.05112,1.35979 1.65177,1.62674c0.6062,0.26139 1.25133,0.39208 1.9354,0.39208c0.76193,0 1.37926,-0.16963 1.85198,-0.50888c0.47829,-0.33925 0.71743,-0.76749 0.71743,-1.28471c0,-0.47273 -0.203,-0.8815 -0.60898,-1.22631c-0.40043,-0.35038 -1.50161,-0.73133 -3.30354,-1.14289c-1.80193,-0.41711 -3.11722,-0.99829 -3.94588,-1.74353c-0.8231,-0.74524 -1.23465,-1.6323 -1.23465,-2.66118c0,-1.15679 0.50332,-2.18011 1.50995,-3.06995c1.00663,-0.88984 2.51658,-1.33476 4.52984,-1.33476c1.84085,0 3.30909,0.3754 4.40471,1.1262c1.09562,0.7508 1.64342,1.52941 1.64342,2.33583c0,0.42267 -0.13904,0.78139 -0.41711,1.07615c-0.27807,0.2892 -0.6646,0.4338 -1.15957,0.4338c-0.72856,0 -1.38759,-0.41989 -1.97711,-1.25968c-0.58952,-0.84535 -1.47658,-1.26802 -2.66118,-1.26802c-0.63957,0 -1.1985,0.13069 -1.67679,0.39209c-0.47829,0.25583 -0.71743,0.62567 -0.71743,1.10952zM253.62376,158.36039v-2.27743c0,-0.93989 0.03893,-1.57669 0.1168,-1.91038c0.07786,-0.33925 0.28086,-0.63957 0.60899,-0.90096c0.33369,-0.26695 0.72299,-0.40043 1.16791,-0.40043c0.40599,0 0.77305,0.11957 1.10118,0.35872c0.32813,0.23914 0.54225,0.53112 0.64236,0.87594c0.10567,0.34481 0.1585,0.90096 0.1585,1.66845v2.5861h0.73412c0.92877,0 1.5461,0.11401 1.85198,0.34203c0.30588,0.22246 0.45882,0.55337 0.45882,0.99273c0,0.93433 -0.77861,1.4015 -2.33583,1.4015h-0.70909v7.00749c0,0.94545 0.06674,1.59059 0.20021,1.9354c0.13348,0.33925 0.49219,0.50888 1.07615,0.50888c0.27807,0 0.58952,-0.03893 0.93433,-0.11679c0.35038,-0.07786 0.60899,-0.11679 0.77583,-0.11679c0.38375,0 0.69241,0.12513 0.92599,0.3754c0.23914,0.25027 0.35871,0.55059 0.35871,0.90097c0,1.24578 -1.31252,1.86866 -3.93754,1.86866c-1.26802,0 -2.20235,-0.23637 -2.803,-0.70909c-0.59508,-0.47273 -0.96491,-1.04834 -1.10952,-1.72685c-0.1446,-0.67851 -0.2169,-1.56 -0.2169,-2.64449v-7.28279h-0.50053c-1.12342,0 -1.68513,-0.45882 -1.68513,-1.37647c0,-0.90652 0.58952,-1.35979 1.76856,-1.35979zM269.70941,158.02669c2.35252,0 4.20171,0.72578 5.5476,2.17733c1.35145,1.44599 2.02717,3.29241 2.02717,5.53926c0,2.25241 -0.68407,4.10161 -2.0522,5.5476c-1.36257,1.44599 -3.17005,2.16899 -5.42246,2.16899c-2.44706,0 -4.33797,-0.73133 -5.67273,-2.19401c-1.3292,-1.46824 -1.9938,-3.3091 -1.9938,-5.52258c0,-2.25241 0.67294,-4.10161 2.01882,-5.5476c1.35145,-1.44599 3.20064,-2.16899 5.5476,-2.16899zM269.70941,170.63184c1.15123,0 2.06054,-0.43101 2.72792,-1.29305c0.67294,-0.86759 1.00941,-2.0661 1.00941,-3.59551c0,-1.54053 -0.33647,-2.7446 -1.00941,-3.6122c-0.66738,-0.86759 -1.57669,-1.30139 -2.72792,-1.30139c-1.12899,0 -2.03272,0.43658 -2.71123,1.30973c-0.67851,0.87315 -1.01776,2.07444 -1.01776,3.60386c0,1.53497 0.33647,2.73348 1.00941,3.59551c0.67294,0.86203 1.57946,1.29305 2.71957,1.29305z"/><path d="M230.88703,185.64245v6.54866c0,0.8954 -0.03893,1.52663 -0.11679,1.89369c-0.0723,0.36706 -0.27251,0.68685 -0.60064,0.95936c-0.32813,0.26695 -0.72021,0.40043 -1.17626,0.40043c-0.44492,0 -0.83145,-0.13069 -1.15957,-0.39208c-0.32813,-0.26695 -0.5339,-0.59786 -0.61732,-0.99273c-0.08342,-0.39487 -0.12513,-1.01776 -0.12513,-1.86867v-5.54759c0,-1.62396 -0.19187,-2.64172 -0.57562,-3.05327c-0.38375,-0.41155 -0.90931,-0.61732 -1.57669,-0.61732c-0.69519,0 -1.28192,0.19187 -1.76021,0.57562c-0.47829,0.38375 -0.80642,0.88706 -0.98439,1.50995c-0.17241,0.61732 -0.25861,1.59059 -0.25861,2.91979v4.21283c0,0.8954 -0.03615,1.5322 -0.10845,1.91038c-0.06674,0.37262 -0.26974,0.68963 -0.60899,0.95102c-0.33925,0.26139 -0.73412,0.39208 -1.1846,0.39208c-0.58396,0 -1.04278,-0.19744 -1.37647,-0.5923c-0.33369,-0.39487 -0.50053,-1.28193 -0.50053,-2.66118v-5.2139c0,-1.48492 -0.11123,-2.52214 -0.33369,-3.11166c-0.22246,-0.59508 -0.80364,-0.89262 -1.74353,-0.89262c-0.97326,0 -1.74075,0.31144 -2.30246,0.93433c-0.55615,0.61732 -0.83422,1.94653 -0.83422,3.9876v4.29626c0,0.87872 -0.03059,1.49605 -0.09176,1.85198c-0.06118,0.35038 -0.25861,0.67294 -0.5923,0.9677c-0.33369,0.2892 -0.72299,0.4338 -1.16791,0.4338c-0.42824,0 -0.81754,-0.13069 -1.16792,-0.39208c-0.34481,-0.26139 -0.55893,-0.57283 -0.64235,-0.93433c-0.08342,-0.36706 -0.12513,-1.00941 -0.12513,-1.92706v-9.19316c0,-0.87872 0.03893,-1.4738 0.11679,-1.78524c0.08342,-0.31701 0.2892,-0.59508 0.61733,-0.83423c0.32813,-0.24471 0.68128,-0.36706 1.05946,-0.36706c1.21797,0 1.82695,0.77305 1.82695,2.31915c1.26802,-1.5461 2.79744,-2.31915 4.58824,-2.31915c1.91872,0 3.31187,0.77305 4.17947,2.31915c1.29027,-1.5461 2.79743,-2.31915 4.5215,-2.31915c1.32364,0 2.45819,0.36706 3.40364,1.10118c0.94545,0.72856 1.41818,2.23851 1.41818,4.52984zM236.49056,174.53057c0.48941,0 0.91486,0.18631 1.27636,0.55893c0.3615,0.37262 0.54225,0.80364 0.54225,1.29305c0,0.51166 -0.18075,0.95102 -0.54225,1.31808c-0.3615,0.3615 -0.78695,0.54225 -1.27636,0.54225c-0.51166,0 -0.95102,-0.18075 -1.31808,-0.54225c-0.3615,-0.36706 -0.54225,-0.80642 -0.54225,-1.31808c0,-0.50053 0.18075,-0.93433 0.54225,-1.30139c0.36706,-0.36706 0.80642,-0.55059 1.31808,-0.55059zM238.36757,183.10641v9.19316c0,0.90652 -0.04171,1.52664 -0.12513,1.86033c-0.08342,0.33369 -0.29754,0.63123 -0.64235,0.89262c-0.33925,0.26139 -0.70909,0.39208 -1.10952,0.39208c-0.40599,0 -0.78695,-0.12792 -1.14289,-0.38375c-0.35038,-0.25583 -0.56727,-0.55337 -0.6507,-0.89262c-0.08342,-0.34481 -0.12513,-0.9677 -0.12513,-1.86867v-9.15979c0,-0.84535 0.03059,-1.44043 0.09176,-1.78524c0.06674,-0.35038 0.26974,-0.66182 0.60899,-0.93433c0.33925,-0.27251 0.73133,-0.40877 1.17626,-0.40877c0.45604,0 0.84535,0.12235 1.16791,0.36706c0.32257,0.24471 0.52835,0.55615 0.61733,0.93433c0.08898,0.37262 0.13348,0.97048 0.13348,1.79359zM245.62458,192.19112h6.79894c0.83422,0 1.45155,0.07786 1.85198,0.23358c0.40599,0.15572 0.60898,0.55337 0.60898,1.19295c0,0.6507 -0.20577,1.05946 -0.61732,1.22631c-0.40599,0.16684 -1.02053,0.25027 -1.84364,0.25027h-8.85947c-0.77861,0 -1.3292,-0.03059 -1.65177,-0.09176c-0.32257,-0.06118 -0.61454,-0.24749 -0.87594,-0.55893c-0.26139,-0.31701 -0.39209,-0.67016 -0.39209,-1.05946c0,-0.45604 0.41712,-1.13733 1.25134,-2.04385c4.63829,-5.06096 7.04086,-7.7861 7.20771,-8.17541h-5.62268c-0.95102,0 -1.58224,-0.12235 -1.89369,-0.36706c-0.31144,-0.24471 -0.46717,-0.58674 -0.46717,-1.02609c0,-0.54503 0.16406,-0.91765 0.49219,-1.11786c0.32813,-0.20577 0.95102,-0.30866 1.86866,-0.30866h7.14931c1.15679,0 1.88813,0.02781 2.19401,0.08342c0.30588,0.05562 0.58952,0.2308 0.85091,0.52556c0.26695,0.2892 0.40043,0.64513 0.40043,1.06781c0,0.33369 -0.06674,0.6062 -0.20021,0.81754c-0.13348,0.20577 -0.55615,0.71187 -1.26802,1.51829zM267.71619,188.654h-7.44963c0.03337,1.41262 0.41712,2.47765 1.15123,3.19509c0.73968,0.71744 1.62396,1.07615 2.65284,1.07615c1.27358,0 2.46931,-0.55615 3.58717,-1.66845c0.45604,-0.46161 0.79251,-0.74802 1.00941,-0.85925c0.2169,-0.11123 0.4616,-0.16685 0.73412,-0.16685c0.33925,0 0.63123,0.10567 0.87594,0.31701c0.24471,0.21134 0.36706,0.47551 0.36706,0.79251c0,0.85091 -0.58396,1.74909 -1.75187,2.69455c-1.16235,0.93989 -2.74182,1.40984 -4.7384,1.40984c-2.53604,0 -4.46032,-0.71465 -5.77283,-2.14396c-1.31252,-1.43487 -1.96877,-3.29241 -1.96877,-5.57262c0,-2.30246 0.65626,-4.16279 1.96877,-5.58097c1.31252,-1.42374 3.13668,-2.13561 5.47252,-2.13561c2.23016,0 3.95144,0.67294 5.16385,2.01882c1.21797,1.34032 1.82696,2.79744 1.82696,4.37134c0,0.69519 -0.203,1.24578 -0.60899,1.65177c-0.40043,0.40043 -1.24021,0.60064 -2.51936,0.60064zM260.26656,186.50171h6.90739c-0.04449,-1.26246 -0.39209,-2.2246 -1.04278,-2.88642c-0.6507,-0.66182 -1.45155,-0.99273 -2.40257,-0.99273c-2.01327,0 -3.16728,1.29305 -3.46204,3.87915z"/></g><path d="M215.4461,167.10306c0.4616,0 0.84535,0.18074 1.15123,0.54224c0.30588,0.3615 0.45882,0.73133 0.45882,1.10952c0,1.02888 -0.61732,2.07166 -1.85197,3.12835c-1.22909,1.05112 -2.8753,1.57669 -4.93862,1.57669c-2.49711,0 -4.37968,-0.70631 -5.6477,-2.11893c-1.26802,-1.41819 -1.90204,-3.25626 -1.90204,-5.51424c0,-2.29134 0.65626,-4.16278 1.96878,-5.61433c1.31808,-1.45711 3.19508,-2.18568 5.63102,-2.18568c1.89091,0 3.45369,0.49497 4.68835,1.48492c1.24021,0.98438 1.86033,1.95764 1.86033,2.91978c0,0.4616 -0.16684,0.84813 -0.50054,1.15957c-0.33369,0.31144 -0.72577,0.46717 -1.17625,0.46717c-0.55615,0 -0.99273,-0.23637 -1.30973,-0.70909c-0.69519,-1.05669 -1.31252,-1.72684 -1.85198,-2.01048c-0.5339,-0.28364 -1.11231,-0.42545 -1.73519,-0.42545c-1.21241,0 -2.14952,0.46717 -2.81134,1.4015c-0.65626,0.92877 -0.98438,2.08834 -0.98438,3.47872c0,1.42931 0.34481,2.59444 1.03444,3.4954c0.68963,0.8954 1.61006,1.3431 2.76129,1.3431c0.65626,0 1.26246,-0.15294 1.81861,-0.45882c0.55615,-0.31144 1.03444,-0.77861 1.43487,-1.4015c0.40599,-0.62845 0.72578,-1.06225 0.95935,-1.30139c0.23915,-0.24471 0.55336,-0.36706 0.94267,-0.36706zM220.26072,167.81216v-6.65712c0,-0.82866 0.03058,-1.42374 0.09176,-1.78524c0.06673,-0.36706 0.26418,-0.68128 0.59231,-0.94267c0.32813,-0.26695 0.72577,-0.40043 1.19294,-0.40043c0.44492,0 0.83422,0.12513 1.16792,0.3754c0.33925,0.25027 0.54781,0.5784 0.62568,0.98438c0.08342,0.40599 0.12513,1.02332 0.12513,1.85198v5.2139c0,1.71294 0.26417,2.81134 0.79251,3.29519c0.5339,0.47829 1.12065,0.71744 1.76021,0.71744c0.73412,0 1.37647,-0.20578 1.92706,-0.61733c0.55058,-0.41155 0.92599,-0.90652 1.1262,-1.48492c0.20021,-0.5784 0.30032,-1.72128 0.30032,-3.42867v-3.77904c0,-0.80642 0.03893,-1.4015 0.11679,-1.78524c0.07786,-0.38375 0.28364,-0.70353 0.61733,-0.95935c0.33369,-0.25583 0.72856,-0.38374 1.1846,-0.38374c0.4338,0 0.82032,0.12513 1.15957,0.3754c0.33925,0.25027 0.54225,0.56449 0.60899,0.94267c0.0723,0.37262 0.10845,0.97605 0.10845,1.81027v9.36835c0,0.76749 -0.03893,1.32364 -0.1168,1.66845c-0.0723,0.34481 -0.25583,0.64235 -0.55058,0.89262c-0.2892,0.25027 -0.65626,0.37541 -1.10118,0.37541c-1.22353,0 -1.81027,-0.87594 -1.76021,-2.62782c-1.27358,1.75187 -2.9476,2.62782 -5.02203,2.62782c-1.37369,0 -2.5416,-0.40877 -3.50374,-1.22631c-0.96214,-0.8231 -1.44321,-2.29691 -1.44321,-4.4214zM240.4445,161.97258c0,0.48941 0.25305,0.87316 0.75915,1.15123c0.51166,0.27807 1.65455,0.6368 3.42867,1.07615c3.43701,0.83422 5.15551,2.26632 5.15551,4.29626c0,1.60171 -0.58118,2.83081 -1.74353,3.68728c-1.1568,0.85091 -2.77797,1.27636 -4.86353,1.27636c-2.11337,0 -3.70674,-0.43658 -4.78012,-1.30973c-1.06781,-0.87316 -1.60171,-1.79637 -1.60171,-2.76963c0,-0.41711 0.14738,-0.77306 0.44214,-1.06781c0.30032,-0.29476 0.66738,-0.44214 1.10118,-0.44214c0.59508,0 1.11508,0.36984 1.56,1.10952c0.50053,0.81754 1.05112,1.35979 1.65176,1.62674c0.6062,0.2614 1.25133,0.39208 1.9354,0.39208c0.76193,0 1.37926,-0.16962 1.85198,-0.50887c0.47829,-0.33925 0.71744,-0.76749 0.71744,-1.28471c0,-0.47272 -0.203,-0.8815 -0.60898,-1.22632c-0.40043,-0.35038 -1.50161,-0.73133 -3.30353,-1.14288c-1.80193,-0.41711 -3.11722,-0.9983 -3.94588,-1.74353c-0.8231,-0.74524 -1.23465,-1.6323 -1.23465,-2.66118c0,-1.1568 0.50332,-2.1801 1.50995,-3.06995c1.00663,-0.88983 2.51658,-1.33476 4.52984,-1.33476c1.84085,0 3.30909,0.3754 4.40471,1.1262c1.09562,0.75081 1.64342,1.52941 1.64342,2.33583c0,0.42267 -0.13904,0.78139 -0.41711,1.07615c-0.27807,0.2892 -0.6646,0.4338 -1.15957,0.4338c-0.72856,0 -1.38759,-0.41989 -1.97711,-1.25968c-0.58952,-0.84534 -1.47658,-1.26803 -2.66118,-1.26803c-0.63957,0 -1.1985,0.13069 -1.67679,0.39209c-0.47829,0.25583 -0.71744,0.62567 -0.71744,1.10952zM253.62376,158.36038v-2.27744c0,-0.93989 0.03893,-1.57669 0.1168,-1.91037c0.07786,-0.33925 0.28085,-0.63957 0.60899,-0.90096c0.33369,-0.26695 0.72299,-0.40043 1.16791,-0.40043c0.40599,0 0.77305,0.11957 1.10118,0.35872c0.32813,0.23915 0.54225,0.53112 0.64235,0.87594c0.10567,0.34481 0.1585,0.90096 0.1585,1.66845v2.5861h0.73412c0.92877,0 1.54609,0.11401 1.85197,0.34204c0.30588,0.22246 0.45882,0.55337 0.45882,0.99273c0,0.93433 -0.77861,1.4015 -2.33583,1.4015h-0.70909v7.00749c0,0.94545 0.06674,1.59059 0.20021,1.9354c0.13347,0.33925 0.49219,0.50887 1.07615,0.50887c0.27807,0 0.58952,-0.03893 0.93433,-0.11679c0.35038,-0.07786 0.60898,-0.11679 0.77583,-0.11679c0.38375,0 0.69241,0.12514 0.92599,0.37541c0.23914,0.25027 0.35871,0.55059 0.35871,0.90097c0,1.24578 -1.31251,1.86867 -3.93754,1.86867c-1.26802,0 -2.20235,-0.23637 -2.80299,-0.70909c-0.59508,-0.47272 -0.96492,-1.04834 -1.10952,-1.72685c-0.1446,-0.67851 -0.2169,-1.56 -0.2169,-2.64449v-7.28279h-0.50053c-1.12343,0 -1.68513,-0.45882 -1.68513,-1.37647c0,-0.90652 0.58952,-1.35979 1.76856,-1.35979zM269.70941,158.02669c2.35251,0 4.20172,0.72578 5.5476,2.17733c1.35145,1.44599 2.02717,3.2924 2.02717,5.53926c0,2.25241 -0.68407,4.10161 -2.0522,5.5476c-1.36257,1.44599 -3.17006,2.16899 -5.42247,2.16899c-2.44706,0 -4.33797,-0.73133 -5.67273,-2.19401c-1.3292,-1.46824 -1.9938,-3.3091 -1.9938,-5.52258c0,-2.25241 0.67294,-4.10161 2.01883,-5.5476c1.35145,-1.44599 3.20064,-2.16899 5.5476,-2.16899zM269.70941,170.63184c1.15123,0 2.06054,-0.43102 2.72792,-1.29305c0.67294,-0.86759 1.00941,-2.0661 1.00941,-3.5955c0,-1.54054 -0.33647,-2.7446 -1.00941,-3.6122c-0.66738,-0.86759 -1.57669,-1.30139 -2.72792,-1.30139c-1.12899,0 -2.03272,0.43658 -2.71123,1.30973c-0.6785,0.87315 -1.01776,2.07444 -1.01776,3.60386c0,1.53497 0.33647,2.73348 1.00942,3.5955c0.67294,0.86203 1.57946,1.29305 2.71958,1.29305z" fill="#00f000" stroke="#00f000" stroke-width="0.5"/><path d="M230.88703,185.64245v6.54866c0,0.8954 -0.03893,1.52663 -0.1168,1.89369c-0.0723,0.36706 -0.27251,0.68685 -0.60064,0.95936c-0.32813,0.26695 -0.72021,0.40043 -1.17626,0.40043c-0.44492,0 -0.83145,-0.13069 -1.15957,-0.39208c-0.32813,-0.26695 -0.53391,-0.59786 -0.61732,-0.99273c-0.08342,-0.39487 -0.12513,-1.01776 -0.12513,-1.86867v-5.5476c0,-1.62396 -0.19187,-2.64172 -0.57561,-3.05327c-0.38375,-0.41155 -0.90931,-0.61732 -1.57669,-0.61732c-0.69519,0 -1.28192,0.19187 -1.76021,0.57561c-0.47829,0.38375 -0.80642,0.88706 -0.98438,1.50995c-0.17241,0.61732 -0.25861,1.59059 -0.25861,2.91979v4.21284c0,0.8954 -0.03615,1.5322 -0.10845,1.91037c-0.06673,0.37262 -0.26974,0.68963 -0.60899,0.95102c-0.33925,0.2614 -0.73412,0.39208 -1.1846,0.39208c-0.58395,0 -1.04278,-0.19744 -1.37647,-0.59231c-0.33369,-0.39487 -0.50054,-1.28193 -0.50054,-2.66118v-5.2139c0,-1.48493 -0.11123,-2.52214 -0.33369,-3.11166c-0.22246,-0.59508 -0.80364,-0.89262 -1.74353,-0.89262c-0.97326,0 -1.74075,0.31144 -2.30246,0.93433c-0.55615,0.61732 -0.83422,1.94653 -0.83422,3.9876v4.29626c0,0.87871 -0.03058,1.49605 -0.09176,1.85198c-0.06118,0.35038 -0.25861,0.67294 -0.59231,0.9677c-0.33369,0.2892 -0.72299,0.4338 -1.16792,0.4338c-0.42823,0 -0.81754,-0.13069 -1.16792,-0.39208c-0.34481,-0.2614 -0.55893,-0.57283 -0.64235,-0.93433c-0.08342,-0.36706 -0.12513,-1.00941 -0.12513,-1.92706v-9.19316c0,-0.87871 0.03893,-1.4738 0.11679,-1.78524c0.08342,-0.31701 0.2892,-0.59508 0.61733,-0.83422c0.32813,-0.24471 0.68128,-0.36706 1.05946,-0.36706c1.21796,0 1.82696,0.77305 1.82696,2.31915c1.26802,-1.5461 2.79744,-2.31915 4.58824,-2.31915c1.91872,0 3.31187,0.77305 4.17947,2.31915c1.29026,-1.5461 2.79743,-2.31915 4.5215,-2.31915c1.32363,0 2.45819,0.36706 3.40364,1.10118c0.94545,0.72856 1.41819,2.23851 1.41819,4.52984zM236.49056,174.53057c0.48941,0 0.91486,0.18631 1.27636,0.55893c0.3615,0.37262 0.54225,0.80364 0.54225,1.29305c0,0.51166 -0.18075,0.95101 -0.54225,1.31808c-0.3615,0.3615 -0.78695,0.54225 -1.27636,0.54225c-0.51166,0 -0.95101,-0.18075 -1.31808,-0.54225c-0.3615,-0.36706 -0.54225,-0.80642 -0.54225,-1.31808c0,-0.50053 0.18075,-0.93433 0.54225,-1.30139c0.36706,-0.36706 0.80642,-0.55058 1.31808,-0.55058zM238.36757,183.1064v9.19316c0,0.90652 -0.04171,1.52663 -0.12513,1.86033c-0.08342,0.33369 -0.29754,0.63123 -0.64235,0.89262c-0.33925,0.2614 -0.70909,0.39208 -1.10952,0.39208c-0.40599,0 -0.78695,-0.12792 -1.14289,-0.38375c-0.35038,-0.25583 -0.56728,-0.55336 -0.6507,-0.89261c-0.08342,-0.34481 -0.12513,-0.9677 -0.12513,-1.86867v-9.15979c0,-0.84534 0.03058,-1.44043 0.09176,-1.78524c0.06673,-0.35038 0.26974,-0.66182 0.60899,-0.93433c0.33925,-0.27252 0.73133,-0.40877 1.17626,-0.40877c0.45604,0 0.84534,0.12234 1.16791,0.36706c0.32257,0.24471 0.52834,0.55615 0.61733,0.93433c0.08898,0.37262 0.13347,0.97048 0.13347,1.79359zM245.62458,192.19112h6.79893c0.83422,0 1.45155,0.07786 1.85197,0.23358c0.40599,0.15572 0.60898,0.55337 0.60898,1.19295c0,0.6507 -0.20578,1.05946 -0.61732,1.22631c-0.40599,0.16684 -1.02054,0.25027 -1.84364,0.25027h-8.85947c-0.77861,0 -1.3292,-0.03058 -1.65177,-0.09176c-0.32257,-0.06118 -0.61455,-0.24749 -0.87594,-0.55893c-0.2614,-0.31701 -0.39208,-0.67016 -0.39208,-1.05946c0,-0.45604 0.41711,-1.13733 1.25133,-2.04385c4.63829,-5.06097 7.04087,-7.7861 7.20771,-8.17541h-5.62268c-0.95101,0 -1.58224,-0.12235 -1.89369,-0.36706c-0.31144,-0.24471 -0.46717,-0.58674 -0.46717,-1.02609c0,-0.54503 0.16406,-0.91765 0.49219,-1.11786c0.32813,-0.20577 0.95101,-0.30866 1.86867,-0.30866h7.14931c1.1568,0 1.88813,0.02781 2.19401,0.08342c0.30588,0.05561 0.58952,0.23081 0.85091,0.52556c0.26695,0.2892 0.40043,0.64514 0.40043,1.06781c0,0.33369 -0.06673,0.6062 -0.20021,0.81755c-0.13348,0.20577 -0.55615,0.71187 -1.26802,1.51829zM267.7162,188.654h-7.44963c0.03337,1.41262 0.41712,2.47765 1.15123,3.19509c0.73968,0.71744 1.62396,1.07615 2.65284,1.07615c1.27358,0 2.46931,-0.55615 3.58717,-1.66845c0.45605,-0.4616 0.79252,-0.74802 1.00942,-0.85925c0.2169,-0.11123 0.4616,-0.16684 0.73411,-0.16684c0.33925,0 0.63123,0.10567 0.87594,0.317c0.24471,0.21134 0.36706,0.47551 0.36706,0.79252c0,0.85091 -0.58395,1.74909 -1.75187,2.69455c-1.16235,0.93989 -2.74183,1.40984 -4.7384,1.40984c-2.53604,0 -4.46032,-0.71466 -5.77283,-2.14396c-1.31251,-1.43487 -1.96878,-3.29241 -1.96878,-5.57263c0,-2.30246 0.65626,-4.16278 1.96878,-5.58097c1.31251,-1.42374 3.13668,-2.13561 5.47252,-2.13561c2.23017,0 3.95145,0.67294 5.16386,2.01882c1.21797,1.34032 1.82696,2.79744 1.82696,4.37135c0,0.69519 -0.203,1.24578 -0.60899,1.65176c-0.40043,0.40043 -1.24021,0.60064 -2.51936,0.60064zM260.26656,186.5017h6.90739c-0.04449,-1.26246 -0.39208,-2.2246 -1.04279,-2.88642c-0.6507,-0.66182 -1.45156,-0.99273 -2.40257,-0.99273c-2.01327,0 -3.16727,1.29305 -3.46203,3.87915z" fill="#00f000" stroke="#00f000" stroke-width="0.5"/></g></g></g></svg>