<svg version="1.1" xmlns="http://www.w3.org/2000/svg" xmlns:xlink="http://www.w3.org/1999/xlink" width="80.4" height="69.2" viewBox="0,0,80.4,69.2"><g transform="translate(-195.06431,-142.74666)"><g data-paper-data="{&quot;isPaintingLayer&quot;:true}" fill-rule="nonzero" stroke-linecap="butt" stroke-linejoin="miter" stroke-miterlimit="10" stroke-dasharray="" stroke-dashoffset="0" style="mix-blend-mode: normal"><path d="" data-paper-data="{&quot;index&quot;:null}" fill="none" stroke="none" stroke-width="0"/><path d="M229.49049,172.52698c0.13786,-0.80577 1.48199,-1.77178 2.58698,-1.02283c2.3663,1.60386 6.4966,4.44917 9.09456,6.49787c2.48797,1.96196 6.50813,5.81084 9.59738,8.85188c0.05332,0.05249 1.007,1.38955 0.29534,2.09114c-0.66132,0.65196 -1.4146,0.22059 -2.03967,-0.50594c-0.80775,-0.93885 -4.86333,-5.19641 -9.26363,-8.22493c-3.6138,-2.4872 -7.3104,-4.58932 -8.93648,-5.34669c-1.53922,-0.71691 -1.47656,-1.51002 -1.33448,-2.3405z" fill="#89483e" stroke="#613d35" stroke-width="2.5"/><path d="M230.07497,185.13253c1.62608,-0.75737 5.32267,-2.85949 8.93648,-5.34669c4.40031,-3.02851 8.45588,-7.28608 9.26363,-8.22493c0.62508,-0.72654 1.37835,-1.1579 2.03967,-0.50594c0.71166,0.70159 -0.24203,2.03866 -0.29534,2.09114c-3.08925,3.04104 -7.10942,6.88992 -9.59738,8.85188c-2.59796,2.0487 -6.72826,4.89401 -9.09456,6.49787c-1.10499,0.74895 -2.44912,-0.21705 -2.58698,-1.02283c-0.14209,-0.83048 -0.20475,-1.62358 1.33447,-2.3405z" data-paper-data="{&quot;index&quot;:null}" fill="#89483e" stroke="#613d35" stroke-width="2.5"/><path d="M229.49049,172.52698c0.13786,-0.80577 1.48199,-1.77178 2.58698,-1.02283c2.3663,1.60386 6.4966,4.44917 9.09456,6.49787c2.48797,1.96196 6.50813,5.81084 9.59738,8.85188c0.05332,0.05249 1.007,1.38955 0.29534,2.09114c-0.66132,0.65196 -1.4146,0.22059 -2.03967,-0.50594c-0.80775,-0.93885 -4.86333,-5.19641 -9.26363,-8.22493c-3.6138,-2.4872 -7.3104,-4.58932 -8.93648,-5.34669c-1.53922,-0.71691 -1.47656,-1.51002 -1.33448,-2.3405z" fill="#89483e" stroke="none" stroke-width="2.5"/><path d="M230.07497,185.13253c1.62608,-0.75737 5.32267,-2.85949 8.93648,-5.34669c4.40031,-3.02851 8.45588,-7.28608 9.26363,-8.22493c0.62508,-0.72654 1.37835,-1.1579 2.03967,-0.50594c0.71166,0.70159 -0.24203,2.03866 -0.29534,2.09114c-3.08925,3.04104 -7.10942,6.88992 -9.59738,8.85188c-2.59796,2.0487 -6.72826,4.89401 -9.09456,6.49787c-1.10499,0.74895 -2.44912,-0.21705 -2.58698,-1.02283c-0.14209,-0.83048 -0.20475,-1.62358 1.33447,-2.3405z" data-paper-data="{&quot;index&quot;:null}" fill="#89483e" stroke="none" stroke-width="2.5"/><path d="M195.06431,211.94666v-69.2h80.4v69.2z" fill="none" stroke="none" stroke-width="0"/></g></g></svg>