<svg version="1.1" xmlns="http://www.w3.org/2000/svg" xmlns:xlink="http://www.w3.org/1999/xlink" width="452.3207" height="250.36126" viewBox="0,0,452.3207,250.36126"><g transform="translate(-200.99999,-1.91013)"><g data-paper-data="{&quot;isPaintingLayer&quot;:true}" fill-rule="nonzero" stroke-linejoin="miter" stroke-miterlimit="10" stroke-dasharray="" stroke-dashoffset="0" style="mix-blend-mode: normal"><path d="M208.5,240.37602c0,-5.74682 0,-43.06331 0,-51.40615c1.36311,0.31783 2.7141,27.69903 4.06726,28.06571c1.94252,0.52639 3.88951,1.02286 5.88325,1.25903c8.87999,1.05189 17.91034,-0.7229 26.75262,-1.22039c5.73666,-0.32276 11.54815,0.00645 17.29686,0.00645c1.04525,0 7.29726,0.03287 8.0944,-0.11329c1.10864,-0.20329 2.01953,-1.12931 3.13953,-1.25581c4.59836,-0.5194 9.25475,0.12026 13.88235,0.11329c3.19195,-0.0048 6.25444,-0.66266 9.4186,-0.62791c6.78129,0 13.63885,0.26089 20.4058,-0.00779c3.75241,-0.14899 7.12997,-0.76355 10.84695,-0.62173c12.5844,0.48013 25.19376,1.72672 37.7989,1.22775c1.10408,-0.0437 2.14998,-0.5664 3.25248,-0.63996c11.14586,-0.7436 22.77888,-1.128 33.93766,-1.21533c6.54118,-0.05119 13.08968,0.29538 19.62415,-0.00519c5.89614,-0.27122 14.61178,-1.65583 19.88651,-2.37214c1.88224,-0.25561 3.74872,-2.07147 5.64746,-2.0172c1.02418,0.02928 2.04555,-19.99307 3.06522,-19.89712c0,8.40148 0,42.94314 0,50.09989c0,3.06527 -1.74642,5.02326 -4.9415,5.02326c-32.76335,0 -217.85452,0 -234.20931,0c-2.27723,0 -3.8492,-1.69212 -3.8492,-4.39535z" fill="#000000" stroke="#000000" stroke-width="15" stroke-linecap="butt"/><path d="M212.3492,149.22862c16.35479,0 201.44597,0 234.20931,0c3.19507,0 4.94149,1.95799 4.94149,5.02326c0,7.15676 0,20.34958 0,28.75105c-1.01966,0.09595 -2.04104,0.16662 -3.06522,0.1959c-1.89874,0.05428 -3.76522,-0.50577 -5.64746,-0.76138c-5.27473,-0.71631 -13.99037,-2.10092 -19.88651,-2.37214c-6.53447,-0.30058 -13.08297,0.046 -19.62414,-0.0052c-11.15877,-0.08733 -22.79179,-0.47174 -33.93765,-1.21534c-1.10249,-0.07355 -2.14839,-0.59626 -3.25248,-0.63996c-12.60514,-0.49896 -25.21451,0.74763 -37.79891,1.22776c-3.71698,0.14182 -7.09454,-0.47275 -10.84695,-0.62174c-6.76696,-0.26869 -13.62451,-0.00779 -20.40581,-0.00779c-3.16417,0.03474 -6.22666,-0.6231 -9.4186,-0.6279c-4.6276,-0.00697 -9.28399,0.63269 -13.88235,0.11329c-1.12,-0.12651 -2.03089,-1.05253 -3.13953,-1.25582c-0.79713,-0.14616 -7.04915,-0.11329 -8.09439,-0.11329c-5.74871,0 -11.5602,0.32922 -17.29686,0.00645c-8.84229,-0.49749 -17.87264,-2.27228 -26.75262,-1.2204c-3.38259,0.40069 -6.63059,1.55065 -9.95052,2.32474c0,-8.34284 0,-18.65932 0,-24.40614c0,-2.70323 1.57197,-4.39535 3.8492,-4.39535z" data-paper-data="{&quot;index&quot;:null}" fill="#000000" stroke="#000000" stroke-width="15" stroke-linecap="butt"/><path d="M212.3492,149.22862c16.35479,0 201.44597,0 234.20931,0c3.19507,0 4.94149,1.95799 4.94149,5.02326c0,7.15676 0,56.14028 0,64.54175c-1.01966,0.09595 -2.04104,-35.62408 -3.06522,-35.5948c-1.89874,0.05428 -3.76522,-0.50577 -5.64746,-0.76138c-5.27473,-0.71631 -13.99037,-2.10092 -19.88651,-2.37214c-6.53447,-0.30058 -13.08297,0.046 -19.62414,-0.0052c-11.15877,-0.08733 -22.79179,-0.47174 -33.93765,-1.21534c-1.10249,-0.07355 -2.14839,-0.59626 -3.25248,-0.63996c-12.60514,-0.49896 -25.21451,0.74763 -37.79891,1.22776c-3.71698,0.14182 -7.09454,-0.47275 -10.84695,-0.62174c-6.76696,-0.26869 -13.62451,-0.00779 -20.40581,-0.00779c-3.16417,0.03474 -6.22666,-0.6231 -9.4186,-0.6279c-4.6276,-0.00697 -9.28399,0.63269 -13.88235,0.11329c-1.12,-0.12651 -2.03089,-1.05253 -3.13953,-1.25582c-0.79713,-0.14616 -7.04915,-0.11329 -8.09439,-0.11329c-5.74871,0 -11.5602,0.32922 -17.29686,0.00645c-8.84229,-0.49749 -17.87264,-2.27228 -26.75262,-1.2204c-3.38259,0.40069 -6.63059,38.59716 -9.95052,39.37125c0,-8.34284 0,-55.70584 0,-61.45266c0,-2.70323 1.57197,-4.39535 3.8492,-4.39535z" data-paper-data="{&quot;index&quot;:null}" fill="#000000" stroke="#ffffff" stroke-width="7" stroke-linecap="butt"/><path d="M212.3492,149.22862c16.35479,0 201.44597,0 234.20931,0c3.19507,0 4.94149,1.95799 4.94149,5.02326c0,7.15676 0,49.2333 0,57.63477c-1.01966,0.09595 -2.04104,0.79453 -3.06522,0.82381c-1.89874,0.05428 -49.97367,9.88098 -56.5601,9.76986c-2.34923,-0.03963 -180.05476,-10.68941 -183.37468,-9.91532c0,-8.34284 0,-53.19421 0,-58.94103c0,-2.70323 1.57197,-4.39535 3.8492,-4.39535z" data-paper-data="{&quot;index&quot;:null}" fill="#000000" stroke="none" stroke-width="0" stroke-linecap="butt"/><path d="M208.5,240.37602c0,-5.74682 0,-16.0633 0,-24.40615c3.31992,0.77409 6.56793,1.92405 9.95052,2.32474c8.87999,1.05189 17.91034,-0.7229 26.75262,-1.22039c5.73666,-0.32276 11.54815,0.00645 17.29686,0.00645c1.04525,0 7.29726,0.03287 8.0944,-0.11329c1.10864,-0.20329 2.01953,-1.12931 3.13953,-1.25581c4.59836,-0.5194 9.25475,0.12026 13.88235,0.11329c3.19195,-0.0048 6.25444,-0.66266 9.4186,-0.62791c6.78129,0 13.63885,0.26089 20.4058,-0.00779c3.75241,-0.14899 7.12997,-0.76355 10.84695,-0.62173c12.5844,0.48013 25.19376,1.72672 37.7989,1.22775c1.10408,-0.0437 2.14998,-0.5664 3.25248,-0.63996c11.14586,-0.7436 22.77888,-1.128 33.93766,-1.21533c6.54118,-0.05119 13.08968,0.29538 19.62415,-0.00519c5.89614,-0.27122 14.61178,-1.65583 19.88651,-2.37214c1.88224,-0.25561 3.74872,-0.81566 5.64746,-0.76138c1.02418,0.02928 2.04555,0.09996 3.06522,0.1959c0,8.40148 0,21.5943 0,28.75106c0,3.06527 -1.74642,5.02326 -4.9415,5.02326c-32.76335,0 -217.85452,0 -234.20931,0c-2.27723,0 -3.8492,-1.69212 -3.8492,-4.39535z" fill="#000000" stroke="#ffffff" stroke-width="7" stroke-linecap="butt"/><path d="M446.55851,115.22862c3.19507,0 4.9415,1.95799 4.9415,5.02326c0,7.15676 0,20.34958 0,28.75105c-1.01966,0.09595 -2.04104,0.16662 -3.06522,0.1959c-1.89874,0.05428 -3.76522,-0.50577 -5.64746,-0.76138c-5.27473,-0.71631 -13.99037,-2.10093 -19.88651,-2.37214c-6.53447,-0.30058 -13.08296,0.046 -19.62414,-0.0052c-11.15877,-0.08733 -22.79179,-0.47174 -33.93765,-1.21534c-1.10249,-0.07355 -2.14839,-0.59625 -3.25247,-0.63996c-12.60514,-0.49897 -25.21451,0.74763 -37.7989,1.22775c-3.71698,0.14181 -7.09454,-0.47274 -10.84695,-0.62173c-6.76696,-0.26868 -13.62451,-0.0078 -20.40581,-0.0078c-3.16417,0.03475 -6.22666,-0.6231 -9.4186,-0.62791c-4.6276,-0.00697 -9.28398,0.6327 -13.88235,0.1133c-1.12,-0.12651 -2.03089,-1.05253 -3.13953,-1.25581c-0.79713,-0.14617 -7.04915,-0.1133 -8.0944,-0.1133c-5.74871,0 -11.56021,0.32921 -17.29686,0.00645c-8.84229,-0.4975 -17.87263,-2.27228 -26.75262,-1.2204c-3.38259,0.40069 -6.63059,1.55065 -9.95051,2.32474c0,-8.34284 0,-18.65933 0,-24.40615c0,-2.70323 1.57197,-4.39535 3.8492,-4.39535c0,0 201.44593,0.00002 234.20928,0.00002z" data-paper-data="{&quot;index&quot;:null}" fill="#000000" stroke="#000000" stroke-width="15" stroke-linecap="butt"/><path d="M446.55851,115.22862c3.19507,0 4.9415,1.95799 4.9415,5.02326c0,7.15676 0,56.14028 0,64.54175c-1.01966,0.09595 -2.04104,-35.62408 -3.06522,-35.5948c-1.89874,0.05428 -3.76522,-0.50577 -5.64746,-0.76138c-5.27473,-0.71631 -13.99037,-2.10093 -19.88651,-2.37214c-6.53447,-0.30058 -13.08296,0.046 -19.62414,-0.0052c-11.15877,-0.08733 -22.79179,-0.47174 -33.93765,-1.21534c-1.10249,-0.07355 -2.14839,-0.59625 -3.25247,-0.63996c-12.60514,-0.49897 -25.21451,0.74763 -37.7989,1.22775c-3.71698,0.14181 -7.09454,-0.47274 -10.84695,-0.62173c-6.76696,-0.26868 -13.62451,-0.0078 -20.40581,-0.0078c-3.16417,0.03475 -6.22666,-0.6231 -9.4186,-0.62791c-4.6276,-0.00697 -9.28398,0.6327 -13.88235,0.1133c-1.12,-0.12651 -2.03089,-1.05253 -3.13953,-1.25581c-0.79713,-0.14617 -7.04915,-0.1133 -8.0944,-0.1133c-5.74871,0 -11.56021,0.32921 -17.29686,0.00645c-8.84229,-0.4975 -17.87263,-2.27228 -26.75262,-1.2204c-3.38259,0.40069 -6.63059,38.59716 -9.95051,39.37125c0,-8.34284 0,-55.70584 0,-61.45266c0,-2.70323 1.57197,-4.39535 3.8492,-4.39535c0,0 201.44593,0.00002 234.20928,0.00002z" data-paper-data="{&quot;index&quot;:null}" fill="#000000" stroke="#ffffff" stroke-width="7" stroke-linecap="butt"/><path d="M212.3492,115.22862c16.35479,0 201.44596,0 234.20931,0c3.19507,0 4.9415,1.95799 4.9415,5.02326c0,7.15676 0,49.2333 0,57.63478c-1.01966,0.09595 -2.04104,0.79453 -3.06522,0.82381c-1.89874,0.05428 -49.97368,9.88097 -56.5601,9.76986c-2.34923,-0.03963 -180.05476,-10.68941 -183.37468,-9.91532c0,-8.34284 0,-53.19421 0,-58.94103c0,-2.70323 1.57197,-4.39535 3.8492,-4.39535z" data-paper-data="{&quot;index&quot;:null}" fill="#000000" stroke="none" stroke-width="0" stroke-linecap="butt"/><path d="M208.5,240.37602c0,-5.74682 0,-24.854 0,-33.19685c3.31992,0.77409 18.39754,-3.59662 20.74678,-3.63625c6.58642,-0.11111 217.28927,0.92488 219.18801,0.97916c1.02418,0.02928 2.04555,-6.80702 3.06522,-6.71108c0,8.40148 0,34.78035 0,41.9371c0,3.06527 -1.74642,5.02326 -4.9415,5.02326c-32.76335,0 -217.85452,0 -234.20931,0c-2.27723,0 -3.8492,-1.69212 -3.8492,-4.39535z" fill="#000000" stroke="none" stroke-width="0" stroke-linecap="butt"/><path d="M212.3492,128.22862c16.35479,0 201.44596,0 234.20931,0c3.19507,0 4.9415,1.95799 4.9415,5.02326c0,7.15676 0,49.2333 0,57.63478c-1.01966,0.09595 -2.04104,0.79453 -3.06522,0.82381c-1.89874,0.05428 -49.97368,9.88097 -56.5601,9.76986c-2.34923,-0.03963 -180.05476,-10.68941 -183.37468,-9.91532c0,-8.34284 0,-53.19421 0,-58.94103c0,-2.70323 1.57197,-4.39535 3.8492,-4.39535z" data-paper-data="{&quot;index&quot;:null}" fill="#000000" stroke="none" stroke-width="0" stroke-linecap="butt"/><path d="M248.44286,140.23642l-2.79872,10.28065c-0.27987,1.06351 -0.57218,1.82228 -0.87693,2.2763c-0.29853,0.45401 -0.82407,0.68102 -1.57661,0.68102c-0.75877,0 -1.28119,-0.2239 -1.56729,-0.67169c-0.28609,-0.45401 -0.56907,-1.25321 -0.84895,-2.39757l-2.84537,-11.50276c-0.17414,-0.52243 -0.26121,-1.04797 -0.26121,-1.57661c0,-0.39182 0.15548,-0.74322 0.46645,-1.05419c0.31097,-0.31719 0.69035,-0.47578 1.13815,-0.47578c0.59706,0 1.00132,0.17725 1.21278,0.53176c0.21768,0.3545 0.42603,0.96711 0.62505,1.83783l2.26697,9.98212l2.50019,-9.33841c0.33585,-1.29363 0.69035,-2.1177 1.06351,-2.47221c0.37316,-0.36072 0.87382,-0.54109 1.50198,-0.54109c0.62194,0 1.11327,0.17725 1.47399,0.53176c0.36694,0.34829 0.72767,1.17546 1.08217,2.48153l2.50952,9.33841l2.25763,-9.98212c0.19902,-0.96401 0.42292,-1.59838 0.67169,-1.90313c0.255,-0.31097 0.63749,-0.46645 1.14748,-0.46645c0.46645,0 0.85206,0.15859 1.15681,0.47578c0.31097,0.31097 0.46645,0.66858 0.46645,1.07284c0,0.32963 -0.08396,0.84895 -0.25189,1.55796l-2.84537,11.50276c-0.27987,1.13815 -0.56596,1.93423 -0.85828,2.38824c-0.28609,0.45401 -0.80541,0.68102 -1.55795,0.68102c-0.53487,0 -0.99199,-0.15548 -1.37137,-0.46645c-0.37938,-0.31719 -0.74944,-1.14748 -1.11016,-2.49086zM269.33299,151.68321c-1.51753,1.19412 -3.00396,1.79118 -4.4593,1.79118c-1.37449,0 -2.43178,-0.34829 -3.17189,-1.04486c-0.73389,-0.70279 -1.10083,-1.55796 -1.10083,-2.5655c0,-0.86449 0.24877,-1.56107 0.74633,-2.08972c0.50377,-0.53487 1.05108,-0.90803 1.64192,-1.11949c0.59084,-0.21146 1.55174,-0.45401 2.88269,-0.72767c1.33717,-0.27987 2.41312,-0.53487 3.22786,-0.76498c-0.00622,-0.96401 -0.19591,-1.61393 -0.56907,-1.94978c-0.37316,-0.34207 -0.94224,-0.5131 -1.70722,-0.5131c-1.4429,0 -2.38824,0.40426 -2.83604,1.21278c-0.24877,0.46024 -0.46956,0.78675 -0.66236,0.97955c-0.1928,0.1928 -0.47267,0.2892 -0.83962,0.2892c-0.33585,0 -0.6406,-0.10884 -0.91425,-0.32652c-0.26743,-0.2239 -0.40115,-0.50999 -0.40115,-0.85828c0,-0.82718 0.44469,-1.61082 1.33406,-2.35093c0.89559,-0.74011 2.30428,-1.11016 4.22607,-1.11016c1.94667,0 3.37091,0.33585 4.27272,1.00754c0.90181,0.67169 1.32473,2.03063 1.26875,4.07681l-0.07463,2.98531c-0.0311,0.92047 0.0653,1.67302 0.2892,2.25764c0.2239,0.58462 0.33585,1.03242 0.33585,1.34339c0,0.33585 -0.14927,0.63127 -0.4478,0.88626c-0.29231,0.255 -0.62505,0.38249 -0.99821,0.38249c-0.64682,0 -1.32784,-0.59706 -2.04307,-1.79118zM269.11842,147.07464c-0.47267,0.18658 -1.25631,0.38871 -2.35093,0.60639c-1.08839,0.21768 -1.8596,0.46645 -2.31361,0.74633c-0.45401,0.27987 -0.68102,0.68724 -0.68102,1.22211c0,0.46024 0.18036,0.86449 0.54109,1.21278c0.36072,0.34829 0.87071,0.52243 1.52997,0.52243c0.70279,0 1.35272,-0.18969 1.94978,-0.56907c0.60328,-0.3856 0.97333,-0.84273 1.11016,-1.37137c0.14305,-0.52865 0.21457,-1.31851 0.21457,-2.36959zM277.08779,135.93572c0.41048,0 0.7681,0.15548 1.07284,0.46645c0.30475,0.31097 0.45712,0.67169 0.45712,1.08217c0,0.42914 -0.15238,0.79919 -0.45712,1.11016c-0.30475,0.30475 -0.66236,0.45712 -1.07284,0.45712c-0.42914,0 -0.79919,-0.15238 -1.11016,-0.45712c-0.30475,-0.31097 -0.45712,-0.68102 -0.45712,-1.11016c0,-0.4167 0.15238,-0.77742 0.45712,-1.08217c0.31097,-0.31097 0.68102,-0.46645 1.11016,-0.46645zM278.6644,143.12844v7.71515c0,0.75877 -0.03732,1.27808 -0.11195,1.55796c-0.06841,0.27987 -0.24567,0.52865 -0.53176,0.74633c-0.28609,0.21768 -0.59706,0.32652 -0.93291,0.32652c-0.34207,0 -0.66236,-0.10573 -0.9609,-0.31719c-0.29231,-0.21768 -0.47578,-0.46956 -0.55042,-0.75566c-0.06841,-0.28609 -0.10262,-0.80541 -0.10262,-1.55796v-7.68716c0,-0.70901 0.02799,-1.20967 0.08396,-1.50198c0.05597,-0.29231 0.2239,-0.55042 0.50377,-0.77431c0.28609,-0.23012 0.61572,-0.34518 0.98888,-0.34518c0.37938,0 0.7059,0.10262 0.97955,0.30786c0.27365,0.20524 0.4478,0.46645 0.52243,0.78364c0.07463,0.31097 0.11195,0.81163 0.11195,1.50198zM282.47766,140.81483v-1.91246c0,-0.78986 0.0311,-1.32473 0.09329,-1.6046c0.06841,-0.28609 0.23945,-0.53798 0.5131,-0.75566c0.27987,-0.2239 0.60639,-0.33585 0.97955,-0.33585c0.34207,0 0.64992,0.10262 0.92358,0.30786c0.27365,0.19902 0.45401,0.44158 0.54109,0.72767c0.08707,0.28609 0.13061,0.75254 0.13061,1.39936v2.17368h0.61572c0.77742,0 1.29363,0.0964 1.54863,0.2892c0.26121,0.18658 0.39182,0.46334 0.39182,0.83029c0,0.78364 -0.65304,1.17546 -1.95911,1.17546h-0.59706v5.87732c0,0.78986 0.05597,1.33095 0.16792,1.62326c0.11195,0.28609 0.41359,0.42914 0.90492,0.42914c0.23012,0 0.49133,-0.0311 0.78364,-0.09329c0.29231,-0.06841 0.50999,-0.10262 0.65304,-0.10262c0.31719,0 0.57529,0.10573 0.77431,0.31719c0.19902,0.20524 0.29853,0.45712 0.29853,0.75566c0,1.03864 -1.10083,1.55796 -3.30249,1.55796c-1.06351,0 -1.84716,-0.19591 -2.35093,-0.58773c-0.50377,-0.39804 -0.81474,-0.88004 -0.93291,-1.44601c-0.11817,-0.57218 -0.17725,-1.31229 -0.17725,-2.22032v-6.11055h-0.41981c-0.94535,0 -1.41802,-0.3856 -1.41802,-1.15681c0,-0.75877 0.49444,-1.13815 1.48332,-1.13815zM292.01432,135.93572c0.41048,0 0.7681,0.15548 1.07284,0.46645c0.30475,0.31097 0.45712,0.67169 0.45712,1.08217c0,0.42914 -0.15238,0.79919 -0.45712,1.11016c-0.30475,0.30475 -0.66236,0.45712 -1.07284,0.45712c-0.42914,0 -0.79919,-0.15238 -1.11016,-0.45712c-0.30475,-0.31097 -0.45712,-0.68102 -0.45712,-1.11016c0,-0.4167 0.15238,-0.77742 0.45712,-1.08217c0.31097,-0.31097 0.68102,-0.46645 1.11016,-0.46645zM293.59093,143.12844v7.71515c0,0.75877 -0.03732,1.27808 -0.11195,1.55796c-0.06841,0.27987 -0.24567,0.52865 -0.53176,0.74633c-0.28609,0.21768 -0.59706,0.32652 -0.93291,0.32652c-0.34207,0 -0.66236,-0.10573 -0.9609,-0.31719c-0.29231,-0.21768 -0.47578,-0.46956 -0.55042,-0.75566c-0.06841,-0.28609 -0.10262,-0.80541 -0.10262,-1.55796v-7.68716c0,-0.70901 0.02799,-1.20967 0.08396,-1.50198c0.05597,-0.29231 0.2239,-0.55042 0.50377,-0.77431c0.28609,-0.23012 0.61572,-0.34518 0.98888,-0.34518c0.37938,0 0.7059,0.10262 0.97955,0.30786c0.27365,0.20524 0.4478,0.46645 0.52243,0.78364c0.07463,0.31097 0.11195,0.81163 0.11195,1.50198zM308.10464,145.6193v5.22429c0,0.67169 -0.02799,1.16302 -0.08396,1.47399c-0.04976,0.30475 -0.21457,0.57529 -0.49444,0.81163c-0.27987,0.23012 -0.61261,0.34518 -0.99821,0.34518c-0.34207,0 -0.66236,-0.10262 -0.9609,-0.30786c-0.29231,-0.20524 -0.47267,-0.47267 -0.54109,-0.8023c-0.06841,-0.32963 -0.10262,-0.83651 -0.10262,-1.52064v-4.58991c0,-1.27497 -0.1928,-2.13325 -0.5784,-2.57483c-0.37938,-0.44158 -0.90181,-0.66236 -1.56729,-0.66236c-0.6095,0 -1.14437,0.17414 -1.6046,0.52243c-0.45401,0.34829 -0.77431,0.78675 -0.9609,1.3154c-0.18658,0.52243 -0.27987,1.42113 -0.27987,2.6961v3.29317c0,0.66548 -0.02488,1.15059 -0.07463,1.45534c-0.04976,0.30475 -0.22079,0.5784 -0.5131,0.82096c-0.28609,0.23634 -0.61572,0.3545 -0.98888,0.3545c-0.34829,0 -0.67169,-0.10573 -0.97022,-0.31719c-0.29231,-0.21768 -0.46956,-0.48511 -0.53176,-0.8023c-0.06219,-0.31719 -0.09329,-0.82096 -0.09329,-1.51131v-7.85509c0,-0.70279 0.0311,-1.19412 0.09329,-1.47399c0.06841,-0.27987 0.23634,-0.5131 0.50377,-0.69968c0.26743,-0.18658 0.56907,-0.27987 0.90492,-0.27987c0.31097,0 0.63438,0.12128 0.97022,0.36383c0.34207,0.24256 0.5131,0.83651 0.5131,1.78185c1.06351,-1.43046 2.43178,-2.14569 4.10479,-2.14569c0.63438,0 1.26254,0.12128 1.88447,0.36383c0.62194,0.23634 1.12882,0.62505 1.52064,1.16613c0.39804,0.54109 0.63749,1.10083 0.71834,1.67923c0.08707,0.5784 0.13061,1.20345 0.13061,1.87514zM320.02021,142.6993v-0.42914c0,-0.5784 0.14305,-1.01065 0.42914,-1.29674c0.28609,-0.29231 0.64682,-0.43847 1.08217,-0.43847c0.47889,0 0.84895,0.16792 1.11016,0.50377c0.26121,0.33585 0.39182,1.06351 0.39182,2.183v8.55477c0,2.53129 -0.53487,4.2354 -1.6046,5.11233c-1.06973,0.87693 -2.61525,1.3154 -4.63655,1.3154c-1.80984,0 -3.22475,-0.33585 -4.24473,-1.00754c-1.01998,-0.66548 -1.52997,-1.37137 -1.52997,-2.1177c0,-0.40426 0.13372,-0.73078 0.40115,-0.97955c0.27365,-0.24256 0.59084,-0.36383 0.95157,-0.36383c0.33585,0 0.60328,0.07774 0.8023,0.23323c0.19902,0.16171 0.53487,0.54109 1.00754,1.13815c0.47267,0.60328 1.27497,0.90492 2.4069,0.90492c0.62194,0 1.19723,-0.09951 1.72588,-0.29853c0.53487,-0.1928 0.92669,-0.53798 1.17546,-1.03553c0.255,-0.49133 0.37627,-1.68856 0.36383,-3.5917c-0.97644,1.39936 -2.30739,2.09904 -3.99285,2.09904c-1.62326,0 -2.90756,-0.60639 -3.85291,-1.81917c-0.94535,-1.219 -1.41802,-2.77696 -1.41802,-4.67387c0,-1.89069 0.48511,-3.38957 1.45534,-4.49662c0.97644,-1.10705 2.24209,-1.66058 3.79693,-1.66058c1.69789,0 3.09104,0.72145 4.17943,2.16435zM313.80704,146.94403c0,1.23766 0.27054,2.18301 0.81163,2.83604c0.54109,0.64682 1.28119,0.97022 2.22032,0.97022c0.81474,0 1.52064,-0.31408 2.1177,-0.94224c0.59706,-0.63438 0.89559,-1.57661 0.89559,-2.82671c0,-1.23766 -0.27676,-2.21721 -0.83029,-2.93866c-0.5473,-0.72145 -1.29052,-1.08217 -2.22965,-1.08217c-0.90181,0 -1.62637,0.33896 -2.17368,1.01687c-0.54109,0.67169 -0.81163,1.66058 -0.81163,2.96665zM333.79926,140.81483v-0.93291c0,-1.62948 0.33585,-2.71787 1.00754,-3.26518c0.67791,-0.5473 1.64814,-0.82096 2.91067,-0.82096c2.0213,0 3.03195,0.45401 3.03195,1.36205c0,0.27987 -0.0964,0.52865 -0.2892,0.74633c-0.1928,0.21768 -0.4478,0.32652 -0.76498,0.32652c-0.06219,0 -0.26743,-0.02177 -0.61572,-0.0653c-0.34207,-0.04976 -0.54109,-0.07463 -0.59706,-0.07463c-0.4478,0 -0.81163,0.11817 -1.0915,0.3545c-0.27365,0.23012 -0.41048,0.76498 -0.41048,1.6046v0.76498h0.8023c1.20034,0 1.80051,0.37316 1.80051,1.11949c0,0.36072 -0.11506,0.64682 -0.34518,0.85828c-0.23012,0.21146 -0.71523,0.31719 -1.45534,0.31719h-0.8023v7.73381c0,0.59706 -0.02488,1.05108 -0.07463,1.36205c-0.04976,0.30475 -0.1928,0.59395 -0.42914,0.8676c-0.23012,0.26743 -0.59084,0.40115 -1.08217,0.40115c-0.50377,0 -0.89559,-0.16481 -1.17546,-0.49444c-0.27987,-0.32963 -0.41981,-1.04175 -0.41981,-2.13636v-7.73381h-0.88626c-0.97022,0 -1.45534,-0.39182 -1.45534,-1.17546c0,-0.74633 0.53487,-1.11949 1.6046,-1.11949zM346.83664,140.53495c1.97155,0 3.52328,0.6095 4.65521,1.8285c1.13193,1.21278 1.69789,2.7583 1.69789,4.63655c0,1.8907 -0.57529,3.44243 -1.72588,4.65521c-1.14437,1.21278 -2.6619,1.81917 -4.55259,1.81917c-2.0524,0 -3.63523,-0.61261 -4.7485,-1.83783c-1.11327,-1.23144 -1.6699,-2.77696 -1.6699,-4.63655c0,-1.88447 0.56286,-3.4331 1.68856,-4.64588c1.13193,-1.21278 2.68366,-1.81917 4.65521,-1.81917zM346.83664,151.1048c0.96401,0 1.72588,-0.36072 2.28562,-1.08217c0.56596,-0.72767 0.84895,-1.73521 0.84895,-3.02262c0,-1.28741 -0.28298,-2.29495 -0.84895,-3.02262c-0.55974,-0.72767 -1.32162,-1.0915 -2.28562,-1.0915c-0.95157,0 -1.71033,0.36694 -2.2763,1.10083c-0.56596,0.72767 -0.84895,1.7321 -0.84895,3.01329c0,1.29363 0.27987,2.30117 0.83962,3.02262c0.56596,0.72145 1.32784,1.08217 2.28562,1.08217zM355.67362,150.84359v-8.16295c0,-1.43046 0.52554,-2.14569 1.57661,-2.14569c1.00132,0 1.51442,0.65925 1.5393,1.97776c0.65925,-1.31851 1.5704,-1.97776 2.73342,-1.97776c0.61572,0 1.2501,0.16171 1.90313,0.48511c0.65925,0.31719 0.98888,0.75566 0.98888,1.3154c0,0.39182 -0.13372,0.71523 -0.40115,0.97022c-0.26121,0.24877 -0.54109,0.37316 -0.83962,0.37316c-0.17414,0 -0.48511,-0.06841 -0.93291,-0.20524c-0.4478,-0.13683 -0.82096,-0.20524 -1.11949,-0.20524c-0.76498,0 -1.33406,0.3856 -1.70722,1.15681c-0.37316,0.7712 -0.55974,2.25764 -0.55974,4.4593v1.83783c0,0.80852 -0.03421,1.35583 -0.10262,1.64192c-0.06219,0.27987 -0.23323,0.53487 -0.5131,0.76498c-0.27987,0.23012 -0.60328,0.34518 -0.97022,0.34518c-0.34829,0 -0.66236,-0.10262 -0.94224,-0.30786c-0.27987,-0.20524 -0.46024,-0.4478 -0.54109,-0.72767c-0.07463,-0.28609 -0.11195,-0.81785 -0.11195,-1.59527zM384.52145,145.44205v5.80269c0,1.48643 -0.54109,2.22965 -1.62326,2.22965c-0.48511,0 -0.86449,-0.15548 -1.13815,-0.46645c-0.27365,-0.31719 -0.41048,-0.90492 -0.41048,-1.7632v-5.08435c0,-1.20034 -0.1928,-2.02441 -0.5784,-2.47221c-0.3856,-0.4478 -0.92047,-0.67169 -1.6046,-0.67169c-0.60328,0 -1.12882,0.16792 -1.57661,0.50377c-0.4478,0.32963 -0.76498,0.74011 -0.95157,1.23144c-0.18658,0.49133 -0.27987,1.34961 -0.27987,2.57483v3.68499c0,0.9951 -0.14305,1.65436 -0.42914,1.97776c-0.27987,0.32341 -0.67169,0.48511 -1.17546,0.48511c-0.49133,0 -0.87693,-0.15548 -1.15681,-0.46645c-0.27987,-0.31719 -0.41981,-0.96711 -0.41981,-1.94978v-12.6409c0,-0.76498 0.03732,-1.29674 0.11195,-1.59527c0.07463,-0.30475 0.24256,-0.55042 0.50377,-0.737c0.26743,-0.1928 0.5784,-0.2892 0.93291,-0.2892c0.40426,0 0.74011,0.10884 1.00754,0.32652c0.26743,0.21768 0.43847,0.50066 0.5131,0.84895c0.07463,0.34207 0.11195,0.91425 0.11195,1.71655v3.76895c1.06351,-1.28119 2.35715,-1.92179 3.8809,-1.92179c1.28741,0 2.32294,0.39493 3.10658,1.18479c0.78364,0.78364 1.17546,2.02441 1.17546,3.7223zM393.23714,140.53495c1.97155,0 3.52328,0.6095 4.65521,1.8285c1.13193,1.21278 1.69789,2.7583 1.69789,4.63655c0,1.8907 -0.57529,3.44243 -1.72588,4.65521c-1.14437,1.21278 -2.6619,1.81917 -4.55259,1.81917c-2.0524,0 -3.63523,-0.61261 -4.7485,-1.83783c-1.11327,-1.23144 -1.6699,-2.77696 -1.6699,-4.63655c0,-1.88447 0.56286,-3.4331 1.68856,-4.64588c1.13193,-1.21278 2.68366,-1.81917 4.65521,-1.81917zM393.23714,151.1048c0.96401,0 1.72588,-0.36072 2.28562,-1.08217c0.56596,-0.72767 0.84895,-1.73521 0.84895,-3.02262c0,-1.28741 -0.28298,-2.29495 -0.84895,-3.02262c-0.55974,-0.72767 -1.32162,-1.0915 -2.28562,-1.0915c-0.95157,0 -1.71033,0.36694 -2.2763,1.10083c-0.56596,0.72767 -0.84895,1.7321 -0.84895,3.01329c0,1.29363 0.27987,2.30117 0.83962,3.02262c0.56596,0.72145 1.32784,1.08217 2.28562,1.08217zM404.509,143.84678c0,0.41048 0.21457,0.73389 0.64371,0.97022c0.42914,0.23012 1.38381,0.52865 2.86403,0.89559c2.8858,0.69657 4.32869,1.89691 4.32869,3.60103c0,1.34339 -0.48511,2.3727 -1.45534,3.08792c-0.97022,0.71523 -2.33227,1.07284 -4.08614,1.07284c-1.77252,0 -3.10658,-0.36383 -4.00217,-1.0915c-0.89559,-0.73389 -1.34339,-1.5082 -1.34339,-2.32294c0,-0.34829 0.12439,-0.64682 0.37316,-0.89559c0.24877,-0.24877 0.55353,-0.37316 0.91425,-0.37316c0.49755,0 0.93291,0.31097 1.30607,0.93291c0.42292,0.68413 0.88626,1.13815 1.39003,1.36205c0.50377,0.21768 1.04486,0.32652 1.62326,0.32652c0.63438,0 1.15059,-0.13994 1.54863,-0.41981c0.40426,-0.28609 0.60639,-0.64682 0.60639,-1.08217c0,-0.39804 -0.17103,-0.74322 -0.5131,-1.03553c-0.33585,-0.29231 -1.25943,-0.6095 -2.77074,-0.95157c-1.51131,-0.34829 -2.61214,-0.8334 -3.30249,-1.45534c-0.69035,-0.62816 -1.03553,-1.37449 -1.03553,-2.23898c0,-0.97022 0.41981,-1.8285 1.25943,-2.57483c0.84584,-0.74633 2.11148,-1.11949 3.79693,-1.11949c1.54863,0 2.78007,0.31408 3.69431,0.94224c0.92047,0.62816 1.3807,1.28119 1.3807,1.95911c0,0.3545 -0.11817,0.65615 -0.3545,0.90492c-0.23012,0.24256 -0.55042,0.36383 -0.9609,0.36383c-0.61572,0 -1.17235,-0.35139 -1.6699,-1.05419c-0.49133,-0.70901 -1.23455,-1.06351 -2.22965,-1.06351c-0.53487,0 -1.00443,0.10884 -1.40869,0.32652c-0.39804,0.21768 -0.59706,0.52865 -0.59706,0.93291zM415.56863,140.81483v-1.91246c0,-0.78986 0.0311,-1.32473 0.09329,-1.6046c0.06841,-0.28609 0.23945,-0.53798 0.5131,-0.75566c0.27987,-0.2239 0.60639,-0.33585 0.97955,-0.33585c0.34207,0 0.64992,0.10262 0.92358,0.30786c0.27365,0.19902 0.45401,0.44158 0.54109,0.72767c0.08707,0.28609 0.13061,0.75254 0.13061,1.39936v2.17368h0.61572c0.77742,0 1.29363,0.0964 1.54863,0.2892c0.26121,0.18658 0.39182,0.46334 0.39182,0.83029c0,0.78364 -0.65304,1.17546 -1.95911,1.17546h-0.59706v5.87732c0,0.78986 0.05597,1.33095 0.16792,1.62326c0.11195,0.28609 0.41359,0.42914 0.90492,0.42914c0.23012,0 0.49133,-0.0311 0.78364,-0.09329c0.29231,-0.06841 0.50999,-0.10262 0.65304,-0.10262c0.31719,0 0.57529,0.10573 0.77431,0.31719c0.19902,0.20524 0.29853,0.45712 0.29853,0.75566c0,1.03864 -1.10083,1.55796 -3.30249,1.55796c-1.06351,0 -1.84716,-0.19591 -2.35093,-0.58773c-0.50377,-0.39804 -0.81474,-0.88004 -0.93291,-1.44601c-0.11817,-0.57218 -0.17725,-1.31229 -0.17725,-2.22032v-6.11055h-0.41981c-0.94535,0 -1.41802,-0.3856 -1.41802,-1.15681c0,-0.75877 0.49444,-1.13815 1.48332,-1.13815z" fill="#ffffff" stroke="none" stroke-width="1" stroke-linecap="square"/><text transform="translate(467.38734,23.49346) scale(0.5,0.5)" font-size="40" xml:space="preserve" fill="#ffffff" fill-rule="nonzero" stroke="none" stroke-width="1" stroke-linecap="butt" stroke-linejoin="miter" stroke-miterlimit="10" stroke-dasharray="" stroke-dashoffset="0" font-family="Sans Serif" font-weight="normal" text-anchor="start" style="mix-blend-mode: normal"><tspan x="0" dy="0">Don't forget to like!</tspan></text><text transform="translate(393.81377,95.56554) scale(0.5,0.5)" font-size="40" xml:space="preserve" fill="#ffffff" fill-rule="nonzero" stroke="none" stroke-width="1" stroke-linecap="butt" stroke-linejoin="miter" stroke-miterlimit="10" stroke-dasharray="" stroke-dashoffset="0" font-family="Sans Serif" font-weight="normal" text-anchor="start" style="mix-blend-mode: normal"><tspan x="0" dy="0"> </tspan></text></g></g></svg>