<svg version="1.1" xmlns="http://www.w3.org/2000/svg" xmlns:xlink="http://www.w3.org/1999/xlink" width="160.66066" height="108.10811" viewBox="0,0,160.66066,108.10811"><g transform="translate(-157.92418,-142.06831)"><g data-paper-data="{&quot;isPaintingLayer&quot;:true}" fill-rule="nonzero" stroke-miterlimit="10" stroke-dasharray="" stroke-dashoffset="0" style="mix-blend-mode: normal"><path d="M221.12501,179.58334c0,-8.7215 7.07017,-15.79167 15.79166,-15.79167c8.7215,0 15.79167,7.07017 15.79167,15.79167c0,8.7215 -7.07017,15.79166 -15.79167,15.79166c-8.7215,0 -15.79166,-7.07017 -15.79166,-15.79166z" fill="#000000" stroke="#ffffff" stroke-width="5" stroke-linecap="butt" stroke-linejoin="miter"/><path d="M221.12502,179.58334c0,-8.7215 7.07017,-15.79167 15.79166,-15.79167c8.7215,0 15.79167,7.07017 15.79167,15.79167c0,8.7215 -7.07017,15.79166 -15.79167,15.79166c-8.7215,0 -15.79166,-7.07017 -15.79166,-15.79166z" fill="#000000" stroke="none" stroke-width="0" stroke-linecap="butt" stroke-linejoin="miter"/><path d="M221.12502,179.58334c0,-8.7215 7.07017,-15.79167 15.79166,-15.79167c8.7215,0 15.79167,7.07017 15.79167,15.79167c0,8.7215 -7.07017,15.79166 -15.79167,15.79166c-8.7215,0 -15.79166,-7.07017 -15.79166,-15.79166z" fill="#000000" stroke="#000000" stroke-width="1" stroke-linecap="butt" stroke-linejoin="miter"/><path d="M157.92419,250.17642v-108.10811h160.66066v108.10811z" fill="none" stroke="none" stroke-width="0" stroke-linecap="butt" stroke-linejoin="miter"/><g fill="none" stroke="#ffffff" stroke-width="2" stroke-linecap="round" stroke-linejoin="round"><path d="M234.16289,179.6037c0,-1.58224 1.28266,-2.8649 2.8649,-2.8649c1.58224,0 2.8649,1.28266 2.8649,2.8649c0,1.58224 -1.28266,2.8649 -2.8649,2.8649c-1.58224,0 -2.8649,-1.28266 -2.8649,-2.8649z"/><path d="M244.09454,182.4686c-0.26008,0.5893 -0.13529,1.27757 0.31514,1.73804l0.0573,0.0573c0.35864,0.35824 0.56016,0.84436 0.56016,1.35128c0,0.50692 -0.20152,0.99304 -0.56016,1.35128c-0.35824,0.35864 -0.84436,0.56016 -1.35128,0.56016c-0.50692,0 -0.99304,-0.20152 -1.35128,-0.56016l-0.0573,-0.0573c-0.46047,-0.45042 -1.14874,-0.57522 -1.73804,-0.31514c-0.57725,0.2474 -0.95246,0.81397 -0.95497,1.442v0.16234c0,1.05483 -0.85511,1.90993 -1.90993,1.90993c-1.05483,0 -1.90993,-0.85511 -1.90993,-1.90993v-0.08595c-0.01513,-0.64683 -0.42413,-1.21867 -1.03136,-1.442c-0.5893,-0.26008 -1.27757,-0.13529 -1.73804,0.31514l-0.0573,0.0573c-0.35824,0.35864 -0.84436,0.56016 -1.35128,0.56016c-0.50692,0 -0.99304,-0.20152 -1.35128,-0.56016c-0.35864,-0.35824 -0.56016,-0.84436 -0.56016,-1.35128c0,-0.50692 0.20152,-0.99304 0.56016,-1.35128l0.0573,-0.0573c0.45042,-0.46047 0.57522,-1.14874 0.31514,-1.73804c-0.2474,-0.57725 -0.81397,-0.95246 -1.442,-0.95497h-0.16234c-1.05483,0 -1.90993,-0.85511 -1.90993,-1.90993c0,-1.05483 0.85511,-1.90993 1.90993,-1.90993h0.08595c0.64683,-0.01513 1.21867,-0.42413 1.442,-1.03136c0.26008,-0.5893 0.13529,-1.27757 -0.31514,-1.73804l-0.0573,-0.0573c-0.35864,-0.35824 -0.56016,-0.84436 -0.56016,-1.35128c0,-0.50692 0.20152,-0.99304 0.56016,-1.35128c0.35824,-0.35864 0.84436,-0.56016 1.35128,-0.56016c0.50692,0 0.99304,0.20152 1.35128,0.56016l0.0573,0.0573c0.46047,0.45042 1.14874,0.57522 1.73804,0.31514h0.0764c0.57725,-0.2474 0.95246,-0.81397 0.95497,-1.442v-0.16234c0,-1.05483 0.85511,-1.90993 1.90993,-1.90993c1.05483,0 1.90993,0.85511 1.90993,1.90993v0.08595c0.00251,0.62803 0.37772,1.1946 0.95497,1.442c0.5893,0.26008 1.27757,0.13529 1.73804,-0.31514l0.0573,-0.0573c0.35824,-0.35864 0.84436,-0.56016 1.35128,-0.56016c0.50692,0 0.99304,0.20152 1.35128,0.56016c0.35864,0.35824 0.56016,0.84436 0.56016,1.35128c0,0.50692 -0.20152,0.99304 -0.56016,1.35128l-0.0573,0.0573c-0.45042,0.46047 -0.57522,1.14874 -0.31514,1.73804v0.0764c0.2474,0.57725 0.81397,0.95246 1.442,0.95497h0.16234c1.05483,0 1.90993,0.85511 1.90993,1.90993c0,1.05483 -0.85511,1.90993 -1.90993,1.90993h-0.08595c-0.62803,0.00251 -1.1946,0.37772 -1.442,0.95497z"/></g></g></g></svg>