<svg version="1.1" xmlns="http://www.w3.org/2000/svg" xmlns:xlink="http://www.w3.org/1999/xlink" width="706.21021" height="368" viewBox="0,0,706.21021,368"><g transform="translate(23.10511,4)"><g data-paper-data="{&quot;isPaintingLayer&quot;:true}" fill-rule="nonzero" stroke-linejoin="miter" stroke-miterlimit="10" stroke-dasharray="" stroke-dashoffset="0" style="mix-blend-mode: normal"><path d="M-22.1051,363v-366h704.21021v366z" fill="#000000" stroke="#000000" stroke-width="2" stroke-linecap="butt"/><path d="M198.37988,179.16902c0.46765,0 0.87775,0.16187 1.23029,0.48564c0.35973,0.32376 0.5396,0.74105 0.5396,1.25188c0,1.41015 -0.71227,2.85987 -2.13681,4.34917c-1.41735,1.48929 -3.42106,2.23394 -6.01113,2.23394c-3.19442,0 -5.57944,-0.98207 -7.15507,-2.94621c-1.56843,-1.97133 -2.35264,-4.38873 -2.35264,-7.25219c0,-3.0865 0.87775,-5.56506 2.63324,-7.43566c1.75548,-1.8778 4.04698,-2.8167 6.87448,-2.8167c2.43899,0 4.39233,0.6763 5.86004,2.02889c1.46771,1.3526 2.20155,2.6872 2.20155,4.00382c0,0.41009 -0.15827,0.79501 -0.47484,1.15474c-0.31657,0.35974 -0.74465,0.5396 -1.28425,0.5396c-0.48204,0 -0.84896,-0.1295 -1.10079,-0.38851c-0.25181,-0.26621 -0.59715,-0.80221 -1.03603,-1.608c-0.43168,-0.81299 -1.02164,-1.43893 -1.76988,-1.87781c-0.74105,-0.44607 -1.55044,-0.6691 -2.42819,-0.6691c-1.66196,0 -2.98218,0.62593 -3.96065,1.8778c-0.97128,1.25187 -1.45692,3.03614 -1.45692,5.35282c0,2.32388 0.47844,4.04699 1.43533,5.16935c0.95688,1.12237 2.24832,1.68354 3.87431,1.68354c2.31667,0 3.87432,-1.12237 4.67292,-3.3671c0.26621,-0.74825 0.5468,-1.23029 0.84178,-1.44612c0.30218,-0.21583 0.63673,-0.32376 1.00366,-0.32376zM203.4413,184.44629v-9.44297c0,-1.65477 0.60795,-2.48215 1.82385,-2.48215c1.15834,0 1.7519,0.76263 1.78068,2.2879c0.76263,-1.52527 1.81665,-2.2879 3.16205,-2.2879c0.71227,0 1.44612,0.18706 2.20155,0.56118c0.76263,0.36693 1.14395,0.87415 1.14395,1.52167c0,0.45327 -0.15469,0.82738 -0.46405,1.12237c-0.30218,0.28778 -0.62593,0.43168 -0.97128,0.43168c-0.20145,0 -0.56119,-0.07915 -1.0792,-0.23742c-0.51801,-0.15828 -0.94969,-0.23742 -1.29503,-0.23742c-0.88494,0 -1.54326,0.44607 -1.97494,1.33821c-0.43168,0.89213 -0.64752,2.61165 -0.64752,5.15856v2.12601c0,0.93531 -0.03957,1.56843 -0.11871,1.89938c-0.07195,0.32376 -0.2698,0.61874 -0.59356,0.88494c-0.32376,0.26621 -0.69788,0.3993 -1.12237,0.3993c-0.4029,0 -0.76623,-0.11872 -1.08999,-0.35614c-0.32376,-0.23742 -0.5324,-0.51801 -0.62593,-0.84178c-0.08633,-0.33095 -0.12951,-0.9461 -0.12951,-1.84543zM225.84812,180.90653h-7.23061c0.03597,1.36698 0.4101,2.39942 1.12237,3.09729c0.71946,0.69787 1.57562,1.04682 2.56849,1.04682c1.23748,0 2.39941,-0.53959 3.4858,-1.61879c0.43887,-0.45327 0.76263,-0.73385 0.97128,-0.84178c0.21584,-0.10792 0.45327,-0.16187 0.71228,-0.16187c0.33095,0 0.61514,0.10431 0.85256,0.31296c0.24462,0.20865 0.36693,0.46405 0.36693,0.76623c0,0.82738 -0.56838,1.69794 -1.70513,2.61165c-1.12955,0.91372 -2.66202,1.37058 -4.59738,1.37058c-2.46776,0 -4.33836,-0.69429 -5.61182,-2.08285c-1.26626,-1.38856 -1.89938,-3.19082 -1.89938,-5.40678c0,-2.23034 0.63312,-4.0326 1.89938,-5.40678c1.27345,-1.38137 3.04334,-2.07205 5.30965,-2.07205c2.17279,0 3.84554,0.65112 5.01827,1.95335c1.17992,1.30223 1.76988,2.71957 1.76988,4.25203c0,0.6691 -0.19786,1.2015 -0.59356,1.59721c-0.38851,0.38851 -1.2015,0.58277 -2.43898,0.58277zM218.61749,178.81288h6.70181c-0.04317,-1.22309 -0.38131,-2.15479 -1.01444,-2.79511c-0.62593,-0.64032 -1.40295,-0.96048 -2.33106,-0.96048c-1.94974,0 -3.06852,1.25187 -3.3563,3.7556zM241.2941,185.41757c-1.75549,1.38137 -3.47501,2.07205 -5.15856,2.07205c-1.59002,0 -2.8131,-0.4029 -3.66927,-1.2087c-0.84897,-0.81299 -1.27344,-1.80226 -1.27344,-2.96779c0,-1.00005 0.28778,-1.80586 0.86335,-2.4174c0.58277,-0.61874 1.21589,-1.05041 1.89939,-1.29503c0.68349,-0.24462 1.79506,-0.52522 3.33471,-0.84178c1.54686,-0.32376 2.79153,-0.61874 3.73402,-0.88493c-0.00719,-1.11517 -0.22663,-1.86701 -0.65831,-2.25551c-0.43168,-0.39571 -1.08999,-0.59356 -1.97494,-0.59356c-1.66916,0 -2.76274,0.46765 -3.28076,1.40295c-0.28778,0.5324 -0.54319,0.91013 -0.76623,1.13316c-0.22303,0.22303 -0.5468,0.33455 -0.97128,0.33455c-0.38851,0 -0.74105,-0.12591 -1.05761,-0.37772c-0.30937,-0.25901 -0.46405,-0.58995 -0.46405,-0.99286c0,-0.95688 0.51442,-1.86342 1.54325,-2.71957c1.03603,-0.85617 2.66562,-1.28424 4.88876,-1.28424c2.25193,0 3.8995,0.38851 4.94272,1.16553c1.04323,0.77702 1.53245,2.34904 1.46771,4.71609l-0.08633,3.45343c-0.03597,1.06481 0.07554,1.93536 0.33455,2.61165c0.25901,0.6763 0.38851,1.19431 0.38851,1.55404c0,0.38851 -0.17267,0.73026 -0.51801,1.02524c-0.33815,0.29498 -0.72306,0.44247 -1.15474,0.44247c-0.74825,0 -1.53606,-0.69069 -2.36345,-2.07205zM241.0459,180.08634c-0.5468,0.21583 -1.45332,0.44967 -2.71957,0.70148c-1.25906,0.25181 -2.1512,0.53959 -2.67641,0.86335c-0.52521,0.32376 -0.78782,0.79501 -0.78782,1.41375c0,0.5324 0.20865,1.00005 0.62593,1.40295c0.41729,0.4029 1.00725,0.60435 1.76988,0.60435c0.81299,0 1.56483,-0.21944 2.25552,-0.65832c0.69787,-0.44607 1.12596,-0.97487 1.28425,-1.58642c0.16548,-0.61154 0.24822,-1.52527 0.24822,-2.74116zM249.01306,172.84493v-2.21236c0,-0.91372 0.03597,-1.53246 0.10792,-1.85622c0.07914,-0.33095 0.27699,-0.62233 0.59356,-0.87415c0.32376,-0.25901 0.70148,-0.38851 1.13316,-0.38851c0.39571,0 0.75184,0.11872 1.0684,0.35614c0.31657,0.23023 0.52521,0.51081 0.62593,0.84178c0.10073,0.33095 0.15109,0.87055 0.15109,1.61879v2.51453h0.71227c0.89933,0 1.49648,0.11152 1.79146,0.33455c0.30218,0.21583 0.45326,0.536 0.45326,0.96048c0,0.90652 -0.75544,1.35979 -2.26631,1.35979h-0.69069v6.79893c0,0.91372 0.06476,1.53966 0.19426,1.87781c0.1295,0.33095 0.47844,0.49643 1.04682,0.49643c0.26621,0 0.56837,-0.03597 0.90652,-0.10792c0.33815,-0.07915 0.58996,-0.11872 0.75544,-0.11872c0.36693,0 0.6655,0.1223 0.89574,0.36693c0.23023,0.23742 0.34534,0.52881 0.34534,0.87415c0,1.2015 -1.27345,1.80226 -3.82036,1.80226c-1.23029,0 -2.13681,-0.22663 -2.71957,-0.67989c-0.58277,-0.46046 -0.9425,-1.01804 -1.0792,-1.67276c-0.1367,-0.66191 -0.20505,-1.51807 -0.20505,-2.56849v-7.06873h-0.48564c-1.09359,0 -1.64038,-0.44607 -1.64038,-1.33821c0,-0.87775 0.57197,-1.31662 1.71593,-1.31662zM260.04514,167.20073c0.47484,0 0.88854,0.17986 1.24107,0.5396c0.35254,0.35974 0.52881,0.77703 0.52881,1.25188c0,0.49643 -0.17627,0.92451 -0.52881,1.28425c-0.35254,0.35254 -0.76624,0.52881 -1.24107,0.52881c-0.49643,0 -0.92451,-0.17627 -1.28425,-0.52881c-0.35254,-0.35974 -0.52881,-0.78782 -0.52881,-1.28425c0,-0.48204 0.17627,-0.89934 0.52881,-1.25188c0.35974,-0.35974 0.78782,-0.5396 1.28425,-0.5396zM261.86899,175.52134v8.92495c0,0.87775 -0.04317,1.4785 -0.12951,1.80226c-0.07914,0.32376 -0.28419,0.61154 -0.61514,0.86335c-0.33095,0.25181 -0.69068,0.37772 -1.07919,0.37772c-0.39571,0 -0.76624,-0.1223 -1.11158,-0.36692c-0.33815,-0.25181 -0.55039,-0.5432 -0.63673,-0.87415c-0.07914,-0.33095 -0.11871,-0.93171 -0.11871,-1.80226v-8.89258c0,-0.82019 0.03237,-1.39936 0.09713,-1.7375c0.06476,-0.33815 0.25901,-0.63673 0.58277,-0.89574c0.33095,-0.26621 0.71227,-0.3993 1.14394,-0.3993c0.43887,0 0.8166,0.11872 1.13316,0.35614c0.31656,0.23742 0.51801,0.53959 0.60434,0.90652c0.08633,0.35974 0.12951,0.9389 0.12951,1.7375zM278.65858,178.4028v6.0435c0,0.77702 -0.03238,1.3454 -0.09713,1.70513c-0.05756,0.35254 -0.24821,0.6655 -0.57197,0.93889c-0.32376,0.26621 -0.70868,0.3993 -1.15475,0.3993c-0.39571,0 -0.76623,-0.11872 -1.11157,-0.35614c-0.33815,-0.23742 -0.54679,-0.5468 -0.62593,-0.92811c-0.07915,-0.38132 -0.11872,-0.96767 -0.11872,-1.75908v-5.30964c0,-1.4749 -0.22304,-2.46777 -0.66911,-2.97859c-0.43887,-0.51081 -1.04322,-0.76623 -1.81304,-0.76623c-0.70507,0 -1.32382,0.20145 -1.85622,0.60435c-0.52521,0.4029 -0.89574,0.91012 -1.11157,1.52166c-0.21583,0.60434 -0.32376,1.64398 -0.32376,3.11888v3.80956c0,0.76983 -0.02877,1.33101 -0.08633,1.68354c-0.05756,0.35254 -0.2554,0.6691 -0.59356,0.94969c-0.33095,0.2734 -0.71227,0.4101 -1.14395,0.4101c-0.4029,0 -0.77702,-0.1223 -1.12237,-0.36692c-0.33815,-0.25181 -0.5432,-0.56119 -0.61515,-0.92811c-0.07195,-0.36693 -0.10791,-0.9497 -0.10791,-1.7483v-9.08683c0,-0.81299 0.03597,-1.38137 0.10791,-1.70513c0.07915,-0.32376 0.2734,-0.59356 0.58277,-0.80939c0.30936,-0.21583 0.65831,-0.32376 1.04682,-0.32376c0.35974,0 0.73385,0.14029 1.12237,0.42088c0.39571,0.28059 0.59356,0.96768 0.59356,2.06127c1.23029,-1.65477 2.8131,-2.48215 4.74846,-2.48215c0.73385,0 1.46051,0.14029 2.17998,0.42088c0.71946,0.2734 1.30584,0.72306 1.75909,1.34899c0.46046,0.62593 0.73744,1.27345 0.83097,1.94255c0.10073,0.6691 0.15109,1.39217 0.15109,2.16919zM292.44262,175.02491v-0.49643c0,-0.6691 0.16548,-1.16913 0.49643,-1.50009c0.33095,-0.33815 0.74825,-0.50722 1.25187,-0.50722c0.55399,0 0.98206,0.19426 1.28425,0.58277c0.30218,0.38851 0.45327,1.23029 0.45327,2.52532v9.89623c0,2.92822 -0.61874,4.89955 -1.85622,5.91399c-1.23748,1.01444 -3.02535,1.52166 -5.3636,1.52166c-2.09364,0 -3.73042,-0.38851 -4.91034,-1.16553c-1.17992,-0.76983 -1.76988,-1.58643 -1.76988,-2.44977c0,-0.46766 0.15469,-0.84536 0.46405,-1.13315c0.31656,-0.28059 0.68349,-0.42089 1.10078,-0.42089c0.38851,0 0.69787,0.08993 0.9281,0.26979c0.23023,0.18707 0.61874,0.62593 1.16553,1.31662c0.5468,0.69787 1.47491,1.04682 2.78433,1.04682c0.71946,0 1.38496,-0.11512 1.99651,-0.34534c0.61874,-0.22303 1.072,-0.62233 1.35979,-1.1979c0.29498,-0.56837 0.43529,-1.95335 0.42089,-4.15491c-1.12955,1.61879 -2.66921,2.42819 -4.61896,2.42819c-1.8778,0 -3.3635,-0.70148 -4.45708,-2.10444c-1.09358,-1.41015 -1.64038,-3.2124 -1.64038,-5.40678c0,-2.18717 0.56118,-3.92109 1.68354,-5.20173c1.12955,-1.28064 2.59366,-1.92097 4.39232,-1.92097c1.96413,0 3.57574,0.83458 4.8348,2.50374zM285.25517,179.93525c0,1.43174 0.31296,2.52532 0.93889,3.28075c0.62593,0.74825 1.4821,1.12236 2.5685,1.12236c0.9425,0 1.75908,-0.36332 2.44977,-1.08999c0.69069,-0.73385 1.03603,-1.82384 1.03603,-3.26996c0,-1.43174 -0.32016,-2.56489 -0.96048,-3.39947c-0.63313,-0.83458 -1.4929,-1.25187 -2.57928,-1.25187c-1.04323,0 -1.88141,0.39211 -2.51453,1.17632c-0.62593,0.77702 -0.93889,1.92097 -0.93889,3.43185zM320.81468,178.4028v6.0435c0,0.77702 -0.03237,1.3454 -0.09713,1.70513c-0.05756,0.35254 -0.24822,0.6655 -0.57197,0.93889c-0.32376,0.26621 -0.70868,0.3993 -1.15474,0.3993c-0.39571,0 -0.76623,-0.11872 -1.11157,-0.35614c-0.33815,-0.23742 -0.5468,-0.5468 -0.62593,-0.92811c-0.07915,-0.38132 -0.11872,-0.96767 -0.11872,-1.75908v-5.30964c0,-1.4749 -0.22303,-2.46777 -0.6691,-2.97859c-0.43887,-0.51081 -1.04322,-0.76623 -1.81304,-0.76623c-0.70507,0 -1.32381,0.20145 -1.85622,0.60435c-0.52521,0.4029 -0.89574,0.91012 -1.11158,1.52166c-0.21583,0.60434 -0.32376,1.64398 -0.32376,3.11888v3.80956c0,0.76983 -0.02878,1.33101 -0.08634,1.68354c-0.05756,0.35254 -0.2554,0.6691 -0.59356,0.94969c-0.33095,0.2734 -0.71227,0.4101 -1.14395,0.4101c-0.4029,0 -0.77702,-0.1223 -1.12237,-0.36692c-0.33815,-0.25181 -0.5432,-0.56119 -0.61515,-0.92811c-0.07195,-0.36693 -0.10791,-0.9497 -0.10791,-1.7483v-9.08683c0,-0.81299 0.03597,-1.38137 0.10791,-1.70513c0.07915,-0.32376 0.2734,-0.59356 0.58277,-0.80939c0.30936,-0.21583 0.65831,-0.32376 1.04682,-0.32376c0.35974,0 0.73385,0.14029 1.12237,0.42088c0.39571,0.28059 0.59356,0.96768 0.59356,2.06127c1.23029,-1.65477 2.8131,-2.48215 4.74846,-2.48215c0.73385,0 1.46051,0.14029 2.17998,0.42088c0.71946,0.2734 1.30583,0.72306 1.75909,1.34899c0.46046,0.62593 0.73745,1.27345 0.83098,1.94255c0.10073,0.6691 0.15108,1.39217 0.15108,2.16919zM334.79297,180.90653h-7.23061c0.03597,1.36698 0.41009,2.39942 1.12237,3.09729c0.71946,0.69787 1.57563,1.04682 2.56849,1.04682c1.23748,0 2.39942,-0.53959 3.48581,-1.61879c0.43887,-0.45327 0.76263,-0.73385 0.97128,-0.84178c0.21583,-0.10792 0.45326,-0.16187 0.71227,-0.16187c0.33095,0 0.61515,0.10431 0.85257,0.31296c0.24462,0.20865 0.36692,0.46405 0.36692,0.76623c0,0.82738 -0.56837,1.69794 -1.70513,2.61165c-1.12955,0.91372 -2.66201,1.37058 -4.59737,1.37058c-2.46776,0 -4.33837,-0.69429 -5.61183,-2.08285c-1.26626,-1.38856 -1.89939,-3.19082 -1.89939,-5.40678c0,-2.23034 0.63313,-4.0326 1.89939,-5.40678c1.27345,-1.38137 3.04333,-2.07205 5.30965,-2.07205c2.17278,0 3.84554,0.65112 5.01827,1.95335c1.17992,1.30223 1.76988,2.71957 1.76988,4.25203c0,0.6691 -0.19785,1.2015 -0.59356,1.59721c-0.38851,0.38851 -1.2015,0.58277 -2.43899,0.58277zM327.56235,178.81288h6.70181c-0.04317,-1.22309 -0.38131,-2.15479 -1.01444,-2.79511c-0.62593,-0.64032 -1.40295,-0.96048 -2.33106,-0.96048c-1.94975,0 -3.06852,1.25187 -3.3563,3.7556zM345.62,183.04334l2.19077,-7.62992c0.28059,-0.9425 0.48924,-1.55764 0.62593,-1.84543c0.1367,-0.29498 0.37053,-0.5432 0.70148,-0.74465c0.33095,-0.20144 0.69787,-0.30218 1.10078,-0.30218c0.64752,0 1.12237,0.17268 1.42454,0.51801c0.30936,0.33815 0.64751,1.12955 1.01444,2.37423l2.21236,7.62992l2.4066,-8.23426c0.25181,-0.86335 0.49283,-1.46051 0.72306,-1.79146c0.23742,-0.33095 0.63673,-0.49643 1.19791,-0.49643c0.43168,0 0.81299,0.15469 1.14395,0.46405c0.33095,0.30936 0.49643,0.6655 0.49643,1.0684c0,0.33095 -0.14029,0.90292 -0.42088,1.71593l-3.01096,8.81703c-0.32377,0.93531 -0.57197,1.55404 -0.74465,1.85622c-0.16547,0.30218 -0.41009,0.55038 -0.73385,0.74464c-0.31656,0.20144 -0.6691,0.30218 -1.05761,0.30218c-0.76263,0 -1.30583,-0.22663 -1.62959,-0.67989c-0.31656,-0.46046 -0.63313,-1.24108 -0.9497,-2.34186l-2.07205,-7.17665l-2.03968,7.17665c-0.25901,0.92811 -0.47126,1.55764 -0.63673,1.88859c-0.15827,0.32376 -0.41009,0.59356 -0.75544,0.8094c-0.33815,0.21583 -0.71946,0.32376 -1.14394,0.32376c-0.39571,0 -0.76263,-0.09713 -1.10078,-0.29138c-0.33815,-0.19426 -0.58996,-0.44247 -0.75544,-0.74465c-0.15827,-0.30936 -0.3993,-0.93171 -0.72306,-1.86701l-3.00016,-8.81703c-0.28059,-0.78422 -0.42088,-1.35619 -0.42088,-1.71593c0,-0.39571 0.15469,-0.74825 0.46405,-1.05761c0.31656,-0.31656 0.70507,-0.47484 1.16553,-0.47484c0.56837,0 0.96408,0.16548 1.18711,0.49643c0.22303,0.32376 0.46045,0.92091 0.71227,1.79146zM381.67866,175.02491v-0.49643c0,-0.6691 0.16548,-1.16913 0.49643,-1.50009c0.33095,-0.33815 0.74825,-0.50722 1.25187,-0.50722c0.55399,0 0.98206,0.19426 1.28425,0.58277c0.30218,0.38851 0.45326,1.23029 0.45326,2.52532v9.89623c0,2.92822 -0.61875,4.89955 -1.85622,5.91399c-1.23748,1.01444 -3.02535,1.52166 -5.36361,1.52166c-2.09364,0 -3.73041,-0.38851 -4.91033,-1.16553c-1.17992,-0.76983 -1.76989,-1.58643 -1.76989,-2.44977c0,-0.46766 0.15469,-0.84536 0.46405,-1.13315c0.31656,-0.28059 0.68349,-0.42089 1.10079,-0.42089c0.38851,0 0.69788,0.08993 0.92811,0.26979c0.23023,0.18707 0.61875,0.62593 1.16553,1.31662c0.5468,0.69787 1.47491,1.04682 2.78433,1.04682c0.71946,0 1.38497,-0.11512 1.99651,-0.34534c0.61875,-0.22303 1.072,-0.62233 1.35979,-1.1979c0.29498,-0.56837 0.43528,-1.95335 0.42089,-4.15491c-1.12956,1.61879 -2.66921,2.42819 -4.61896,2.42819c-1.87781,0 -3.3635,-0.70148 -4.45708,-2.10444c-1.09359,-1.41015 -1.64038,-3.2124 -1.64038,-5.40678c0,-2.18717 0.56119,-3.92109 1.68355,-5.20173c1.12956,-1.28064 2.59367,-1.92097 4.39232,-1.92097c1.96413,0 3.57574,0.83458 4.8348,2.50374zM374.49121,179.93525c0,1.43174 0.31297,2.52532 0.9389,3.28075c0.62593,0.74825 1.48209,1.12236 2.56849,1.12236c0.9425,0 1.75908,-0.36332 2.44978,-1.08999c0.69069,-0.73385 1.03603,-1.82384 1.03603,-3.26996c0,-1.43174 -0.32016,-2.56489 -0.96049,-3.39947c-0.63313,-0.83458 -1.4929,-1.25187 -2.57928,-1.25187c-1.04322,0 -1.8814,0.39211 -2.51453,1.17632c-0.62593,0.77702 -0.9389,1.92097 -0.9389,3.43185zM398.16877,185.41757c-1.75548,1.38137 -3.47501,2.07205 -5.15855,2.07205c-1.59001,0 -2.8131,-0.4029 -3.66926,-1.2087c-0.84897,-0.81299 -1.27345,-1.80226 -1.27345,-2.96779c0,-1.00005 0.28778,-1.80586 0.86335,-2.4174c0.58277,-0.61874 1.21589,-1.05041 1.89939,-1.29503c0.68349,-0.24462 1.79506,-0.52522 3.33471,-0.84178c1.54686,-0.32376 2.79153,-0.61874 3.73402,-0.88493c-0.00719,-1.11517 -0.22663,-1.86701 -0.65831,-2.25551c-0.43168,-0.39571 -1.08998,-0.59356 -1.97493,-0.59356c-1.66915,0 -2.76274,0.46765 -3.28075,1.40295c-0.28778,0.5324 -0.5432,0.91013 -0.76623,1.13316c-0.22303,0.22303 -0.54679,0.33455 -0.97128,0.33455c-0.38851,0 -0.74105,-0.12591 -1.05762,-0.37772c-0.30936,-0.25901 -0.46405,-0.58995 -0.46405,-0.99286c0,-0.95688 0.51442,-1.86342 1.54326,-2.71957c1.03603,-0.85617 2.66561,-1.28424 4.88876,-1.28424c2.25193,0 3.8995,0.38851 4.94273,1.16553c1.04322,0.77702 1.53245,2.34904 1.46771,4.71609l-0.08633,3.45343c-0.03597,1.06481 0.07555,1.93536 0.33455,2.61165c0.25901,0.6763 0.38851,1.19431 0.38851,1.55404c0,0.38851 -0.17267,0.73026 -0.51801,1.02524c-0.33815,0.29498 -0.72306,0.44247 -1.15474,0.44247c-0.74824,0 -1.53605,-0.69069 -2.36345,-2.07205zM397.92056,180.08634c-0.54679,0.21583 -1.45332,0.44967 -2.71957,0.70148c-1.25906,0.25181 -2.15119,0.53959 -2.6764,0.86335c-0.52521,0.32376 -0.78782,0.79501 -0.78782,1.41375c0,0.5324 0.20865,1.00005 0.62593,1.40295c0.41729,0.4029 1.00726,0.60435 1.76989,0.60435c0.81299,0 1.56484,-0.21944 2.25552,-0.65832c0.69788,-0.44607 1.12596,-0.97487 1.28424,-1.58642c0.16547,-0.61154 0.24821,-1.52527 0.24821,-2.74116zM426.14424,177.9819v6.35647c0,0.87055 -0.03597,1.4857 -0.10792,1.84543c-0.07195,0.35254 -0.26979,0.65832 -0.59356,0.91732c-0.31656,0.25901 -0.69429,0.38851 -1.13316,0.38851c-0.43168,0 -0.80939,-0.12591 -1.13315,-0.37772c-0.31656,-0.25901 -0.51442,-0.57916 -0.59356,-0.96048c-0.07914,-0.38132 -0.11871,-0.98567 -0.11871,-1.81305v-5.38519c0,-1.57562 -0.18706,-2.56129 -0.56118,-2.957c-0.37412,-0.4029 -0.88494,-0.60435 -1.53246,-0.60435c-0.6763,0 -1.24467,0.18707 -1.70512,0.56119c-0.46045,0.37412 -0.77702,0.86335 -0.9497,1.46771c-0.17267,0.59716 -0.25901,1.53966 -0.25901,2.8275v4.09015c0,0.87055 -0.03597,1.48929 -0.10792,1.85622c-0.06475,0.35974 -0.26261,0.6655 -0.59356,0.91732c-0.32377,0.25181 -0.70507,0.37772 -1.14394,0.37772c-0.56837,0 -1.01444,-0.19066 -1.3382,-0.57197c-0.32377,-0.38132 -0.48564,-1.24107 -0.48564,-2.57928v-5.06142c0,-1.43893 -0.10792,-2.44618 -0.32377,-3.02175c-0.21584,-0.57558 -0.77702,-0.86335 -1.68354,-0.86335c-0.9425,0 -1.68715,0.30218 -2.23394,0.90653c-0.5468,0.59716 -0.82019,1.88498 -0.82019,3.86352v4.17649c0,0.84897 -0.02877,1.44613 -0.08633,1.79146c-0.05756,0.33815 -0.24822,0.65112 -0.57197,0.9389c-0.32377,0.28059 -0.70147,0.42088 -1.13315,0.42088c-0.41009,0 -0.78422,-0.12591 -1.12237,-0.37772c-0.33815,-0.25181 -0.55039,-0.55399 -0.63673,-0.90652c-0.07914,-0.35974 -0.11872,-0.98206 -0.11872,-1.86701v-8.92495c0,-0.84897 0.03957,-1.42454 0.11872,-1.72672c0.07914,-0.30936 0.27699,-0.57917 0.59356,-0.80939c0.31656,-0.23742 0.66191,-0.35614 1.03603,-0.35614c1.17272,0 1.75909,0.74825 1.75909,2.24473c1.23747,-1.49648 2.72317,-2.24473 4.45708,-2.24473c1.86341,0 3.21601,0.74825 4.05778,2.24473c1.25187,-1.49648 2.71238,-2.24473 4.38154,-2.24473c1.28785,0 2.38862,0.35613 3.30234,1.0684c0.92091,0.70507 1.38137,2.16919 1.38137,4.39232zM440.00111,180.90653h-7.23061c0.03597,1.36698 0.41009,2.39942 1.12236,3.09729c0.71946,0.69787 1.57563,1.04682 2.5685,1.04682c1.23747,0 2.39941,-0.53959 3.4858,-1.61879c0.43887,-0.45327 0.76263,-0.73385 0.97128,-0.84178c0.21584,-0.10792 0.45327,-0.16187 0.71227,-0.16187c0.33095,0 0.61514,0.10431 0.85257,0.31296c0.24462,0.20865 0.36692,0.46405 0.36692,0.76623c0,0.82738 -0.56837,1.69794 -1.70512,2.61165c-1.12956,0.91372 -2.66202,1.37058 -4.59738,1.37058c-2.46776,0 -4.33836,-0.69429 -5.61183,-2.08285c-1.26626,-1.38856 -1.89939,-3.19082 -1.89939,-5.40678c0,-2.23034 0.63313,-4.0326 1.89939,-5.40678c1.27345,-1.38137 3.04334,-2.07205 5.30965,-2.07205c2.17279,0 3.84554,0.65112 5.01826,1.95335c1.17992,1.30223 1.76989,2.71957 1.76989,4.25203c0,0.6691 -0.19786,1.2015 -0.59356,1.59721c-0.38851,0.38851 -1.2015,0.58277 -2.43899,0.58277zM432.7705,178.81288h6.70181c-0.04317,-1.22309 -0.38132,-2.15479 -1.01445,-2.79511c-0.62593,-0.64032 -1.40295,-0.96048 -2.33106,-0.96048c-1.94974,0 -3.06851,1.25187 -3.35629,3.7556zM475.47699,183.43185c0.54679,0 1.02164,0.19785 1.42454,0.59356c0.4029,0.39571 0.60435,0.86695 0.60435,1.41375c0,0.56119 -0.20145,1.04322 -0.60435,1.44612c-0.4029,0.4029 -0.87776,0.60435 -1.42454,0.60435c-0.56837,0 -1.05401,-0.19785 -1.45692,-0.59356c-0.39571,-0.4029 -0.59356,-0.88854 -0.59356,-1.45692c0,-0.5468 0.20145,-1.01804 0.60435,-1.41375c0.41009,-0.39571 0.89213,-0.59356 1.44612,-0.59356zM466.24986,183.43185c0.54679,0 1.02164,0.19785 1.42454,0.59356c0.4029,0.39571 0.60434,0.86695 0.60434,1.41375c0,0.56119 -0.20144,1.04322 -0.60434,1.44612c-0.4029,0.4029 -0.87776,0.60435 -1.42454,0.60435c-0.56837,0 -1.05401,-0.19785 -1.45692,-0.59356c-0.39571,-0.4029 -0.59356,-0.88854 -0.59356,-1.45692c0,-0.5468 0.20144,-1.01804 0.60434,-1.41375c0.41009,-0.39571 0.89214,-0.59356 1.44612,-0.59356zM457.05511,183.43185c0.54679,0 1.01804,0.19785 1.41375,0.59356c0.4029,0.39571 0.60434,0.86695 0.60434,1.41375c0,0.56119 -0.20144,1.04322 -0.60434,1.44612c-0.39571,0.4029 -0.86696,0.60435 -1.41375,0.60435c-0.56837,0 -1.05401,-0.19785 -1.45692,-0.59356c-0.39571,-0.4029 -0.59356,-0.88854 -0.59356,-1.45692c0,-0.5468 0.20145,-1.01804 0.60435,-1.41375c0.4029,-0.39571 0.88494,-0.59356 1.44612,-0.59356z" fill="#cdcdcd" stroke="none" stroke-width="1" stroke-linecap="square"/></g></g></svg>