<svg version="1.1" xmlns="http://www.w3.org/2000/svg" xmlns:xlink="http://www.w3.org/1999/xlink" width="48.25388" height="34.29689" viewBox="0,0,48.25388,34.29689"><g transform="translate(-215.87306,-162.85156)"><g data-paper-data="{&quot;isPaintingLayer&quot;:true}" fill="#ffffff" fill-rule="nonzero" stroke-linecap="square" stroke-linejoin="miter" stroke-miterlimit="10" stroke-dasharray="" stroke-dashoffset="0" style="mix-blend-mode: normal"><path d="M232.46679,168.85154v21.87503c0,2.61458 -0.88021,3.92188 -2.64062,3.92188c-0.60417,0 -1.20312,-0.19792 -1.79687,-0.59375c-0.58333,-0.39583 -0.875,-1.42708 -0.875,-3.09375v-17.25003c-3.35417,2.54169 -5.56771,3.81253 -6.64062,3.81253c-0.61458,0 -1.125,-0.20312 -1.53125,-0.60937c-0.40625,-0.41669 -0.60937,-0.94795 -0.60937,-1.59378c0,-0.46875 0.15104,-0.86979 0.45313,-1.20312c0.30208,-0.33333 0.94271,-0.72917 1.92188,-1.1875c3.26042,-1.60417 5.55208,-3.43229 6.875,-5.48437c0.54167,-0.84375 0.96354,-1.40104 1.26563,-1.67187c0.30208,-0.28125 0.71875,-0.42187 1.25,-0.42187c1.55208,0 2.32813,1.16667 2.32813,3.5zM256.70507,178.71094c3.28125,1.35417 4.92187,3.74479 4.92187,7.17188c0,2.5 -0.88542,4.58854 -2.65625,6.26563c-1.77083,1.66667 -4.24479,2.5 -7.42187,2.5c-3.30208,0 -5.82292,-0.83333 -7.5625,-2.5c-1.72917,-1.67708 -2.59375,-3.75521 -2.59375,-6.23437c0,-3.5 1.64063,-5.90104 4.92188,-7.20312c-2.67708,-1.1875 -4.01562,-3.14584 -4.01562,-5.87503c0,-2.03125 0.8125,-3.78646 2.4375,-5.26562c1.625,-1.47917 3.81771,-2.21875 6.57813,-2.21875c3.125,0 5.45833,0.75521 7,2.26563c1.54167,1.51042 2.3125,3.26042 2.3125,5.25c0,2.6771 -1.30729,4.62503 -3.92187,5.84378zM255.58007,173.0859c0,-1.13542 -0.38021,-2.09375 -1.14062,-2.875c-0.76042,-0.78125 -1.75,-1.17187 -2.96875,-1.17187c-1.23958,0 -2.23958,0.39063 -3,1.17188c-0.75,0.77083 -1.125,1.72917 -1.125,2.875c0,1.17708 0.38542,2.125 1.15625,2.84375c0.78125,0.70835 1.77083,1.06253 2.96875,1.06253c1.19792,0 2.18229,-0.35939 2.95313,-1.07816c0.77083,-0.72917 1.15625,-1.67187 1.15625,-2.82812zM256.31444,185.75782c0,-1.53125 -0.45833,-2.76042 -1.375,-3.6875c-0.90625,-0.92708 -2.0625,-1.39062 -3.46875,-1.39062c-1.32292,0 -2.44792,0.45313 -3.375,1.35938c-0.92708,0.89583 -1.39062,2.13542 -1.39062,3.71875c0,1.5625 0.47396,2.82292 1.42188,3.78125c0.94792,0.94792 2.07292,1.42188 3.375,1.42188c1.34375,0 2.47917,-0.47917 3.40625,-1.4375c0.9375,-0.96875 1.40625,-2.22396 1.40625,-3.76562z" stroke="#000000" stroke-width="5"/><path d="M232.46679,168.85154v21.87503c0,2.61458 -0.88021,3.92188 -2.64062,3.92188c-0.60417,0 -1.20312,-0.19792 -1.79687,-0.59375c-0.58333,-0.39583 -0.875,-1.42708 -0.875,-3.09375v-17.25003c-3.35417,2.54169 -5.56771,3.81253 -6.64062,3.81253c-0.61458,0 -1.125,-0.20312 -1.53125,-0.60937c-0.40625,-0.41669 -0.60937,-0.94795 -0.60937,-1.59378c0,-0.46875 0.15104,-0.86979 0.45313,-1.20312c0.30208,-0.33333 0.94271,-0.72917 1.92188,-1.1875c3.26042,-1.60417 5.55208,-3.43229 6.875,-5.48437c0.54167,-0.84375 0.96354,-1.40104 1.26563,-1.67187c0.30208,-0.28125 0.71875,-0.42187 1.25,-0.42187c1.55208,0 2.32813,1.16667 2.32813,3.5zM256.70507,178.71094c3.28125,1.35417 4.92187,3.74479 4.92187,7.17188c0,2.5 -0.88542,4.58854 -2.65625,6.26563c-1.77083,1.66667 -4.24479,2.5 -7.42187,2.5c-3.30208,0 -5.82292,-0.83333 -7.5625,-2.5c-1.72917,-1.67708 -2.59375,-3.75521 -2.59375,-6.23437c0,-3.5 1.64063,-5.90104 4.92188,-7.20312c-2.67708,-1.1875 -4.01562,-3.14584 -4.01562,-5.87503c0,-2.03125 0.8125,-3.78646 2.4375,-5.26562c1.625,-1.47917 3.81771,-2.21875 6.57813,-2.21875c3.125,0 5.45833,0.75521 7,2.26563c1.54167,1.51042 2.3125,3.26042 2.3125,5.25c0,2.6771 -1.30729,4.62503 -3.92187,5.84378zM255.58007,173.0859c0,-1.13542 -0.38021,-2.09375 -1.14062,-2.875c-0.76042,-0.78125 -1.75,-1.17187 -2.96875,-1.17187c-1.23958,0 -2.23958,0.39063 -3,1.17188c-0.75,0.77083 -1.125,1.72917 -1.125,2.875c0,1.17708 0.38542,2.125 1.15625,2.84375c0.78125,0.70835 1.77083,1.06253 2.96875,1.06253c1.19792,0 2.18229,-0.35939 2.95313,-1.07816c0.77083,-0.72917 1.15625,-1.67187 1.15625,-2.82812zM256.31444,185.75782c0,-1.53125 -0.45833,-2.76042 -1.375,-3.6875c-0.90625,-0.92708 -2.0625,-1.39062 -3.46875,-1.39062c-1.32292,0 -2.44792,0.45313 -3.375,1.35938c-0.92708,0.89583 -1.39062,2.13542 -1.39062,3.71875c0,1.5625 0.47396,2.82292 1.42188,3.78125c0.94792,0.94792 2.07292,1.42188 3.375,1.42188c1.34375,0 2.47917,-0.47917 3.40625,-1.4375c0.9375,-0.96875 1.40625,-2.22396 1.40625,-3.76562z" stroke="none" stroke-width="0"/></g></g></svg>