<svg version="1.1" xmlns="http://www.w3.org/2000/svg" xmlns:xlink="http://www.w3.org/1999/xlink" width="255.25526" height="159.15916" viewBox="0,0,255.25526,159.15916"><defs><linearGradient x1="240.00001" y1="180" x2="240.00001" y2="180" gradientUnits="userSpaceOnUse" id="color-1"><stop offset="0" stop-color="#e7bc52"/><stop offset="1" stop-color="#efd85e"/></linearGradient><linearGradient x1="240.00001" y1="180" x2="240.00001" y2="180" gradientUnits="userSpaceOnUse" id="color-2"><stop offset="0" stop-color="#efd85e" stop-opacity="0"/><stop offset="1" stop-color="#efd85e" stop-opacity="0"/></linearGradient></defs><g transform="translate(-68.10013,128.91986)"><g data-paper-data="{&quot;isPaintingLayer&quot;:true}" fill-rule="nonzero" stroke-linejoin="miter" stroke-miterlimit="10" stroke-dasharray="" stroke-dashoffset="0" style="mix-blend-mode: normal"><path d="" fill="url(#color-1)" stroke="#000000" stroke-width="15" stroke-linecap="butt"/><path d="" fill="#e7bc52" stroke="none" stroke-width="0" stroke-linecap="butt"/><path d="" fill="url(#color-2)" stroke="#000000" stroke-width="15" stroke-linecap="butt"/><g fill="none" stroke="#392f0e" stroke-width="5" stroke-linecap="round"><path d=""/><path d=""/><path d=""/></g><path d="" fill="#beb09c" stroke="none" stroke-width="0" stroke-linecap="butt"/><path d="" fill="#8c7662" stroke="none" stroke-width="0" stroke-linecap="butt"/><path d="" fill="none" stroke="#000000" stroke-width="15" stroke-linecap="butt"/><path d="" fill="#000000" stroke="#000000" stroke-width="9" stroke-linecap="butt"/><path d="" fill="#97a6ae" stroke="#000000" stroke-width="15" stroke-linecap="butt"/><path d="" data-paper-data="{&quot;index&quot;:null}" fill="#bfcacc" stroke="none" stroke-width="0" stroke-linecap="butt"/><path d="" fill="none" stroke="#000000" stroke-width="15" stroke-linecap="butt"/><g stroke-linecap="butt"><path d="" data-paper-data="{&quot;index&quot;:null}" fill="#97a6ae" stroke="#000000" stroke-width="15"/><path d="" data-paper-data="{&quot;index&quot;:null}" fill="#bfcacc" stroke="none" stroke-width="0"/><path d="" data-paper-data="{&quot;index&quot;:null}" fill="none" stroke="#000000" stroke-width="15"/></g><path d="M179.93418,-0.25885l-0.0021,-104.10769c0,0 22.22617,-25.84646 82.41478,-7.52056c4.3863,1.33552 14.54741,6.20924 18.12695,24.42597c2.04352,10.39976 2.87164,57.20696 3.13818,77.42637c0.0758,5.75062 -15.26438,15.45903 -55.60774,15.95907c-23.90055,0.29624 -48.07007,-6.18315 -48.07007,-6.18315z" fill="#dee9f5" stroke="#000000" stroke-width="10.5" stroke-linecap="butt"/><path d="M111.18393,-0.396c3.8646,-5.08583 9.06273,-13.16909 7.19118,-17.81192c-1.29765,-3.21913 -19.28621,2.94756 -19.66245,-1.04075c-0.21226,-2.24995 20.78133,-14.78251 20.43453,-17.16592c-0.27269,-1.87405 -22.1656,1.35351 -22.27929,-8.5939c-0.04374,-3.82761 21.94536,-11.30365 21.41141,-14.64006c-0.66233,-4.13867 -19.8343,-4.47273 -19.99535,-7.54715c-0.13788,-2.63205 18.84661,-8.17465 18.67013,-9.65709c-0.23046,-1.93584 -11.66202,-6.9387 -13.89725,-7.64662c-2.79961,-0.88666 2.25571,-1.545 5.59777,-2.30969c8.44602,-1.93251 24.486,-5.52965 32.56072,-6.86285c17.53638,-2.89539 35.52876,-11.43426 35.52876,-11.43426v103.78401c0,0 -22.99596,-2.5551 -34.16031,-1.6647c-8.13263,0.64862 -21.57759,3.77117 -29.2744,5.68299c-3.56468,0.88544 -4.20376,-0.35701 -2.12545,-3.09209z" fill="#dee9f5" stroke="#000000" stroke-width="10.5" stroke-linecap="butt"/><path d="M179.93272,-0.00473c0,0 -6.2678,-0.50325 -10.48902,-6.36775c-3.02423,-4.20153 -4.03189,-12.81108 -5.39526,-18.30696c-4.26319,-17.18541 -10.48771,-69.63156 -10.48771,-69.63156c0,0 33.18774,-30.31536 51.6466,-12.74144c1.34521,1.28072 7.01352,5.95445 8.1113,23.42368c0.62672,9.97302 -1.67138,54.85954 -1.58964,74.24926c0.02325,5.51465 -4.68133,14.82469 -17.05398,15.30421c-7.32991,0.28408 -14.7423,-5.92944 -14.7423,-5.92944z" fill="#9ab1cf" stroke="none" stroke-width="10.5" stroke-linecap="butt"/><path d="M176.74409,-1.3222c0,0 -22.99596,-2.5551 -34.16031,-1.6647c-8.13263,0.64862 -21.57759,3.77117 -29.2744,5.68299c-3.56468,0.88544 -4.20376,-0.35701 -2.12545,-3.09209h-0.00001c3.8646,-5.08583 9.06273,-13.16909 7.19118,-17.81192c-1.29765,-3.21913 -19.28621,2.94756 -19.66245,-1.04075c-0.21226,-2.24995 20.78133,-14.78251 20.43453,-17.16592c-0.27269,-1.87405 -22.1656,1.35351 -22.27929,-8.5939c-0.04374,-3.82761 21.94536,-11.30365 21.41141,-14.64006c-0.66233,-4.13867 -19.8343,-4.47273 -19.99535,-7.54715c-0.13788,-2.63205 18.84661,-8.17465 18.67013,-9.65709c-0.23046,-1.93584 -11.66202,-6.9387 -13.89725,-7.64662c-2.79961,-0.88666 2.25571,-1.545 5.59777,-2.30969c8.44602,-1.93251 24.486,-5.52965 32.56072,-6.86285c17.53638,-2.89539 35.52876,-11.43426 35.52876,-11.43426" fill="none" stroke="#000000" stroke-width="12.5" stroke-linecap="butt"/><path d="M185.46364,-103.19216c0,9.27899 17.04376,14.67438 38.06831,14.67438c21.02455,0 49.55261,-4.11935 49.55261,-13.39835c0,-9.27899 -28.52806,-18.07713 -49.55261,-18.07713c-21.02455,0 -38.06831,7.52211 -38.06831,16.8011z" fill="#feffff" stroke="#9ab1cf" stroke-width="10.5" stroke-linecap="butt"/><path d="M183.62385,-2.17856c-0.74844,-7.09094 -2.33181,-23.18765 -1.42202,-41.37507c1.5915,-31.81531 -2.26975,-60.81291 -2.26975,-60.81291c0,0 22.22617,-25.84646 82.41479,-7.52056c4.3863,1.33551 14.54741,6.20924 18.12695,24.42597c2.04352,10.39977 2.87164,57.20696 3.13818,77.42637c0.0758,5.75062 -15.26438,15.45903 -55.60775,15.95907c-23.90055,0.29624 -44.19688,-6.36425 -44.38039,-8.10287z" fill="none" stroke="#000000" stroke-width="12.5" stroke-linecap="butt"/><path d="M240.32407,-101.79898c-0.03496,0.82145 -5.77112,1.24447 -12.81208,0.94486c-7.04096,-0.29962 -12.72045,-1.20842 -12.6855,-2.02986c0.03496,-0.82145 5.77112,-1.24447 12.81208,-0.94486c7.04096,0.29962 12.72045,1.20842 12.6855,2.02986z" fill="#feffff" stroke="#000000" stroke-width="10.5" stroke-linecap="butt"/><path d="M68.10013,30.2393v-159.15916h255.25526v159.15916z" fill="none" stroke="none" stroke-width="none" stroke-linecap="butt"/></g></g></svg>