<svg version="1.1" xmlns="http://www.w3.org/2000/svg" xmlns:xlink="http://www.w3.org/1999/xlink" width="52.68515" height="15.33333" viewBox="0,0,52.68515,15.33333"><g transform="translate(-172.6482,-137.26667)"><g data-paper-data="{&quot;isPaintingLayer&quot;:true}" fill-rule="nonzero" stroke-linejoin="miter" stroke-miterlimit="10" stroke-dasharray="" stroke-dashoffset="0" style="mix-blend-mode: normal"><g data-paper-data="{&quot;index&quot;:null}" fill="none" stroke-width="1.5" stroke-linecap="round"><path d="M173.43971,146.35596c0,0 0.48454,-1.40863 5.7946,-2.76765c2.17997,-0.55793 7.01717,-0.3041 7.01717,-0.3041" data-paper-data="{&quot;index&quot;:null}" stroke="#6c290d"/><path d="M173.39821,144.4084c0,0 0.66605,-0.8959 5.97611,-2.25493c2.17997,-0.55793 7.13258,-0.20906 7.13258,-0.20906" data-paper-data="{&quot;index&quot;:null}" stroke="#843310"/><path d="M174.3841,147.79873c0,0 0.48454,-1.40862 5.7946,-2.76765c2.17997,-0.55793 7.01717,-0.3041 7.01717,-0.3041" data-paper-data="{&quot;index&quot;:null}" stroke="#a03d13"/><path d="M173.65926,143.04332c0,0 0.66606,-0.8959 5.97611,-2.25493c2.17997,-0.55793 7.13257,-0.20907 7.13257,-0.20907" data-paper-data="{&quot;index&quot;:null}" stroke="#843310"/><path d="M173.67345,142.02456c0,0 0.63452,-0.9064 5.88833,-2.34053c2.15688,-0.58875 7.11157,-0.30752 7.11157,-0.30752" data-paper-data="{&quot;index&quot;:null}" stroke="#a03d13"/><path d="M186.56613,150.72693c0,0 -4.85461,-0.10153 -7.01424,-1.05687c-5.26052,-2.32707 -5.68669,-4.27735 -5.68669,-4.27735" stroke="#a03d13"/><path d="M186.43789,145.97016c0,0 -4.97415,0.01642 -7.13378,-0.93892c-5.26052,-2.32707 -5.88995,-3.60039 -5.88995,-3.60039" stroke="#a03d13"/><path d="M186.99978,144.93934c0,0 -4.85461,-0.10153 -7.01424,-1.05687c-5.26052,-2.32707 -5.68669,-4.27734 -5.68669,-4.27734" stroke="#843310"/><path d="M186.68286,147.39592c0,0 -4.97415,0.01642 -7.13378,-0.93892c-5.26052,-2.32707 -5.88994,-3.60039 -5.88994,-3.60039" stroke="#843310"/><path d="M186.52412,149.16286c0,0 -4.97341,-0.07527 -7.10863,-1.0702c-5.20104,-2.42349 -5.79845,-3.70812 -5.79845,-3.70812" stroke="#843310"/></g><path d="M185.66669,152.6v-15.33333h39.66667v15.33333z" fill="#000000" stroke="none" stroke-width="0" stroke-linecap="butt"/><path d="M185.66669,151.6v-13h39.66667v13z" fill="#a69a03" stroke="none" stroke-width="0" stroke-linecap="butt"/><path d="M185.66669,148.26666v-7h39.66667v7z" fill="#ffeb04" stroke="none" stroke-width="0" stroke-linecap="butt"/></g></g></svg>