<svg version="1.1" xmlns="http://www.w3.org/2000/svg" xmlns:xlink="http://www.w3.org/1999/xlink" width="27" height="29.16666" viewBox="0,0,27,29.16666"><g transform="translate(-350.33335,-82.36669)"><g data-paper-data="{&quot;isPaintingLayer&quot;:true}" fill-rule="nonzero" stroke-linejoin="miter" stroke-miterlimit="10" stroke-dasharray="" stroke-dashoffset="0" style="mix-blend-mode: normal"><g fill="#525152" stroke="#525152" stroke-width="4"><path d="M352.33335,98.03335c0,-6.35128 5.14873,-11.5 11.5,-11.5c6.35127,0 11.5,5.14872 11.5,11.5c0,6.35128 -5.14873,11.5 -11.5,11.5c-6.35127,0 -11.5,-5.14872 -11.5,-11.5z" stroke-linecap="butt"/><path d="M358.13578,94.27511c0,0 0.61831,-1.16983 2.21101,-2.52492c1.61523,-1.37425 3.18622,-1.45879 3.18622,-1.45879" stroke-linecap="round"/></g><g stroke-width="3"><path d="M352.00001,95.36669c0,-6.35128 5.14873,-11.5 11.5,-11.5c6.35127,0 11.5,5.14872 11.5,11.5c0,6.35128 -5.14873,11.5 -11.5,11.5c-6.35127,0 -11.5,-5.14872 -11.5,-11.5z" fill="#630000" stroke="#000000" stroke-linecap="butt"/><path d="M357.80245,91.60845c0,0 0.61831,-1.16983 2.21101,-2.52491c1.61523,-1.37425 3.18622,-1.45879 3.18622,-1.45879" fill="none" stroke="#635e5e" stroke-linecap="round"/></g></g></g></svg>