<svg version="1.1" xmlns="http://www.w3.org/2000/svg" xmlns:xlink="http://www.w3.org/1999/xlink" width="81.53562" height="68.64947" viewBox="0,0,81.53562,68.64947"><g transform="translate(-198.97185,-145.35576)"><g data-paper-data="{&quot;isPaintingLayer&quot;:true}" fill-rule="nonzero" stroke-linejoin="miter" stroke-miterlimit="10" stroke-dasharray="" stroke-dashoffset="0" style="mix-blend-mode: normal"><path d="M206.32738,150.2115l65.32231,-0.20423l-32.67878,14.33788z" fill="#b7c5c5" stroke="none" stroke-width="0" stroke-linecap="butt"/><path d="M272.02921,149.80273l-33.27238,59.69064l1.1271,-47.80612z" data-paper-data="{&quot;index&quot;:null}" fill="#a8aebb" stroke="none" stroke-width="0" stroke-linecap="butt"/><path d="M240.15435,161.64062l-0.17494,49.04895l-33.65205,-60.47805z" fill="#abbbbb" stroke="none" stroke-width="0" stroke-linecap="butt"/><path d="M244.44224,205.81499l-4.22795,4.4873l-34.2491,-58.46271z" fill="#7d1d10" stroke="none" stroke-width="0" stroke-linecap="butt"/><path d="M273.93676,149.66842l-31.28696,59.20268l-4.33693,-4.46052z" data-paper-data="{&quot;index&quot;:null}" fill="#7d1d10" stroke="none" stroke-width="0" stroke-linecap="butt"/><path d="M208.22036,148.80758c10.89562,-0.03406 42.74207,-0.13363 64.55831,-0.20184c1.48834,-0.00465 2.34692,0.58983 1.89693,1.41282c-2.69707,4.93256 -28.4189,51.97437 -33.21002,60.73667c-0.4947,0.90476 -1.08444,0.84621 -1.66067,-0.15922c-5.20506,-9.08219 -31.46543,-54.90319 -34.45423,-60.11827c-0.54432,-0.94976 0.43783,-1.66256 2.86969,-1.67017z" fill="none" stroke="#000000" stroke-width="6.5" stroke-linecap="butt"/><path d="M208.22036,148.80758c10.89562,-0.03406 42.74207,-0.13363 64.55831,-0.20184c1.48834,-0.00465 2.34692,0.58983 1.89693,1.41282c-2.69707,4.93256 -28.4189,51.97437 -33.21002,60.73667c-0.4947,0.90476 -1.08444,0.84621 -1.66067,-0.15923c-5.20508,-9.08219 -31.46543,-54.90319 -34.45423,-60.11826c-0.54432,-0.94976 0.43783,-1.66256 2.86969,-1.67017z" fill="none" stroke="#dfdfdf" stroke-width="3.5" stroke-linecap="butt"/><g fill="#ffffff" stroke-linecap="square"><path d="M210.83823,176.76676c-1.70765,1.34925 -3.38365,2.02388 -5.02805,2.02388c-1.54953,0 -2.74592,-0.39529 -3.58922,-1.18587c-0.83274,-0.79057 -1.24911,-1.75508 -1.24911,-2.89349c0,-0.98032 0.28461,-1.77089 0.85381,-2.37173c0.56922,-0.60084 1.18585,-1.0172 1.84993,-1.24911c0.66408,-0.24244 1.7498,-0.51651 3.25716,-0.8222c1.50737,-0.31623 2.72486,-0.6061 3.65246,-0.86963c-0.01053,-1.08573 -0.22664,-1.81832 -0.64828,-2.1978c-0.42164,-0.39001 -1.06465,-0.58502 -1.929,-0.58502c-1.63386,0 -2.69849,0.45853 -3.19392,1.3756c-0.28461,0.5165 -0.53759,0.88545 -0.75895,1.1068c-0.22136,0.22136 -0.53759,0.33204 -0.9487,0.33204c-0.37948,0 -0.72205,-0.12649 -1.02775,-0.37948c-0.30569,-0.25299 -0.45853,-0.57449 -0.45853,-0.96451c0,-0.93815 0.50596,-1.8236 1.5179,-2.65634c1.01195,-0.84328 2.59837,-1.26491 4.75926,-1.26491c2.20307,0 3.81057,0.37948 4.82251,1.13842c1.02247,0.75895 1.5021,2.29268 1.43885,4.60115l-0.07906,3.38365c-0.03162,1.04356 0.07378,1.89738 0.31623,2.56147c0.25299,0.65354 0.37948,1.15424 0.37948,1.50209c0,0.37948 -0.16866,0.7168 -0.50597,1.01195c-0.32676,0.28461 -0.70098,0.42691 -1.12261,0.42691c-0.72733,0 -1.49682,-0.67462 -2.30849,-2.02388zM210.60108,171.5648c-0.53759,0.20028 -1.42304,0.42691 -2.65635,0.67989c-1.2333,0.24244 -2.1082,0.52177 -2.6247,0.83801c-0.50596,0.31623 -0.75895,0.78004 -0.75895,1.39141c0,0.5165 0.20028,0.97504 0.60084,1.3756c0.41109,0.39001 0.99086,0.58502 1.73927,0.58502c0.79057,0 1.52318,-0.21609 2.1978,-0.64827c0.68516,-0.44272 1.10681,-0.95923 1.26492,-1.54954c0.15811,-0.60084 0.23718,-1.49156 0.23718,-2.67213zM227.61061,176.73515v-0.36367c-1.24384,1.61278 -2.81444,2.41917 -4.71182,2.41917c-1.83413,0 -3.29406,-0.69571 -4.37978,-2.08712c-1.07519,-1.40196 -1.61278,-3.20973 -1.61278,-5.42334c0,-2.08712 0.52706,-3.79475 1.58115,-5.12292c1.0541,-1.32817 2.51929,-1.99226 4.39559,-1.99226c1.81305,0 3.38893,0.73261 4.72763,2.19781v-4.66439c0,-1.286 0.16339,-2.08712 0.49016,-2.40334c0.32676,-0.31623 0.76422,-0.47435 1.31235,-0.47435c0.39001,0 0.74314,0.1107 1.05937,0.33205c0.32676,0.22136 0.52706,0.5165 0.60084,0.88545c0.07378,0.35839 0.11068,0.9487 0.11068,1.77089v14.16709c0,0.80113 -0.04216,1.3756 -0.12649,1.72345c-0.07378,0.33731 -0.27407,0.60084 -0.60084,0.79057c-0.32676,0.20028 -0.68517,0.30043 -1.07519,0.30043c-1.18059,0 -1.77089,-0.68516 -1.77089,-2.05551zM220.54287,171.39087c0,1.61278 0.33731,2.79335 1.01195,3.54176c0.68516,0.73787 1.45994,1.1068 2.3243,1.1068c1.02247,0 1.86576,-0.38475 2.52983,-1.15424c0.66408,-0.78004 0.99613,-1.86049 0.99613,-3.24136c0,-1.45465 -0.32677,-2.60889 -0.98031,-3.46271c-0.643,-0.86436 -1.5021,-1.29655 -2.57727,-1.29655c-0.96977,0 -1.76562,0.40056 -2.38755,1.20167c-0.61138,0.79057 -0.91708,1.89212 -0.91708,3.3046zM255.01586,175.70741c0,0.85381 -0.0369,1.45465 -0.11068,1.80252c-0.06324,0.34785 -0.25299,0.64827 -0.56922,0.90126c-0.30569,0.25299 -0.67462,0.37948 -1.1068,0.37948c-0.42164,0 -0.79057,-0.1265 -1.1068,-0.37948c-0.30569,-0.25299 -0.5007,-0.56395 -0.58503,-0.93288c-0.07378,-0.36894 -0.11068,-0.95922 -0.11068,-1.77087v-5.24942c0,-1.53899 -0.18446,-2.5035 -0.5534,-2.89349c-0.35839,-0.39001 -0.85382,-0.58502 -1.48628,-0.58502c-0.66408,0 -1.22275,0.18447 -1.67603,0.5534c-0.45327,0.35839 -0.76422,0.83273 -0.93288,1.42304c-0.15811,0.57975 -0.23718,1.49682 -0.23718,2.7512v4.0003c0,0.85381 -0.0369,1.45993 -0.11068,1.81833c-0.06324,0.34785 -0.25826,0.64828 -0.58502,0.90126c-0.31623,0.24244 -0.68517,0.36367 -1.10681,0.36367c-0.55867,0 -0.99612,-0.18447 -1.31235,-0.5534c-0.31623,-0.37948 -0.47434,-1.22275 -0.47434,-2.52985v-4.93319c0,-1.4125 -0.10542,-2.39807 -0.31623,-2.95674c-0.21082,-0.55867 -0.75895,-0.83801 -1.6444,-0.83801c-0.92761,0 -1.65494,0.29515 -2.18199,0.88545c-0.52705,0.57975 -0.79059,1.8394 -0.79059,3.77894v4.06356c0,0.83274 -0.03162,1.41777 -0.09486,1.75508c-0.0527,0.32676 -0.23718,0.63246 -0.55341,0.91707c-0.31623,0.27407 -0.68516,0.41109 -1.1068,0.41109c-0.40056,0 -0.76949,-0.12122 -1.10681,-0.36367c-0.32676,-0.25299 -0.53232,-0.5534 -0.61664,-0.90126c-0.07378,-0.34785 -0.11068,-0.95396 -0.11068,-1.81833v-8.71214c0,-0.83274 0.0369,-1.39668 0.11068,-1.69183c0.07378,-0.29515 0.26352,-0.55867 0.56922,-0.79058c0.31623,-0.2319 0.65881,-0.34785 1.02775,-0.34785c1.14897,0 1.72345,0.73261 1.72345,2.1978c1.20167,-1.46519 2.65105,-2.1978 4.34816,-2.1978c1.81305,0 3.13067,0.73261 3.95287,2.1978c1.22275,-1.46519 2.65105,-2.1978 4.28491,-2.1978c1.25438,0 2.32955,0.34785 3.22554,1.04356c0.89599,0.69571 1.34398,2.12927 1.34398,4.30072zM260.31919,158.97884c0.47434,0 0.88017,0.17919 1.21748,0.53759c0.34785,0.34785 0.52179,0.75369 0.52179,1.2175c0,0.48489 -0.17393,0.90125 -0.52179,1.24911c-0.33731,0.33731 -0.74313,0.50597 -1.21748,0.50597c-0.47434,0 -0.88545,-0.16866 -1.23331,-0.50597c-0.34785,-0.34785 -0.52179,-0.76422 -0.52179,-1.24911c0,-0.47434 0.17393,-0.88545 0.52179,-1.2333c0.34785,-0.34785 0.75895,-0.52179 1.23331,-0.52179zM262.1059,167.10594v8.71214c0,0.85381 -0.04216,1.43885 -0.12649,1.75508c-0.07379,0.31623 -0.27407,0.60083 -0.60084,0.85381c-0.32676,0.24244 -0.67989,0.36367 -1.05937,0.36367c-0.37947,0 -0.73788,-0.12122 -1.07519,-0.36367c-0.33731,-0.24244 -0.54814,-0.52705 -0.63246,-0.85381c-0.07379,-0.32676 -0.11069,-0.9118 -0.11069,-1.75508v-8.6805c0,-0.80113 0.03162,-1.36506 0.09486,-1.69183c0.06324,-0.33731 0.25298,-0.63246 0.56922,-0.88545c0.32676,-0.26352 0.70098,-0.39529 1.12262,-0.39529c0.43218,0 0.80111,0.11595 1.1068,0.34785c0.30569,0.2319 0.5007,0.52706 0.58503,0.88545c0.08433,0.35839 0.12649,0.92761 0.12649,1.70764zM278.50747,169.90458v5.91351c0,0.75895 -0.03162,1.31235 -0.09486,1.6602c-0.06324,0.34785 -0.25298,0.65355 -0.56922,0.91708c-0.31624,0.26352 -0.69044,0.39528 -1.12262,0.39528c-0.37947,0 -0.73787,-0.11595 -1.07518,-0.34785c-0.33731,-0.2319 -0.54814,-0.53233 -0.63246,-0.90126c-0.07379,-0.37948 -0.11069,-0.95396 -0.11069,-1.72345v-5.18618c0,-1.43358 -0.2161,-2.39807 -0.64828,-2.89349c-0.42164,-0.50596 -1.01194,-0.75895 -1.77089,-0.75895c-0.68516,0 -1.28601,0.20028 -1.80252,0.60084c-0.5165,0.39001 -0.88017,0.88017 -1.09099,1.47047c-0.21082,0.5903 -0.31624,1.6075 -0.31624,3.05161v3.71571c0,0.74842 -0.03162,1.29654 -0.09486,1.6444c-0.05271,0.33731 -0.24244,0.64299 -0.56922,0.91707c-0.32676,0.27407 -0.70098,0.41109 -1.12261,0.41109c-0.39001,0 -0.75369,-0.12122 -1.091,-0.36367c-0.33731,-0.24244 -0.54286,-0.54287 -0.61665,-0.90127c-0.06324,-0.35839 -0.09486,-0.92761 -0.09486,-1.70764v-8.87025c0,-0.80113 0.03689,-1.35979 0.11068,-1.67602c0.07379,-0.31623 0.26352,-0.57976 0.56922,-0.79058c0.30569,-0.21082 0.64828,-0.31623 1.02775,-0.31623c0.34785,0 0.71153,0.14229 1.091,0.42691c0.37947,0.27407 0.56922,0.93815 0.56922,1.99226c1.20167,-1.61278 2.75119,-2.41915 4.64858,-2.41915c0.71679,0 1.42304,0.13702 2.11875,0.4111c0.70624,0.27407 1.28074,0.71679 1.72345,1.32816c0.44272,0.61138 0.71152,1.24384 0.80638,1.89738c0.10542,0.65354 0.15811,1.35452 0.15811,2.10293z" stroke="#000000" stroke-width="4"/><path d="M210.83823,176.76676c-1.70764,1.34925 -3.38366,2.02388 -5.02805,2.02388c-1.54954,0 -2.74592,-0.39529 -3.58921,-1.18587c-0.83274,-0.79057 -1.24911,-1.75508 -1.24911,-2.89349c0,-0.98032 0.28461,-1.77089 0.85382,-2.37173c0.56922,-0.60084 1.18586,-1.0172 1.84993,-1.24911c0.66408,-0.24244 1.7498,-0.51651 3.25716,-0.8222c1.50737,-0.31623 2.72484,-0.60611 3.65245,-0.86964c-0.01053,-1.08573 -0.22663,-1.81832 -0.64827,-2.1978c-0.42165,-0.39001 -1.06465,-0.58502 -1.929,-0.58502c-1.63386,0 -2.69849,0.45853 -3.19392,1.3756c-0.28461,0.51651 -0.53759,0.88545 -0.75895,1.10681c-0.22136,0.22136 -0.53759,0.33204 -0.9487,0.33204c-0.37948,0 -0.72205,-0.12649 -1.02775,-0.37948c-0.30569,-0.25299 -0.45853,-0.57449 -0.45853,-0.96451c0,-0.93815 0.50597,-1.8236 1.5179,-2.65634c1.01194,-0.84329 2.59837,-1.26491 4.75926,-1.26491c2.20307,0 3.81057,0.37948 4.82251,1.13842c1.02247,0.75895 1.50209,2.29267 1.43885,4.60115l-0.07905,3.38365c-0.03162,1.04356 0.07379,1.89739 0.31623,2.56147c0.25299,0.65354 0.37948,1.15424 0.37948,1.50209c0,0.37948 -0.16866,0.7168 -0.50597,1.01194c-0.32676,0.28461 -0.70098,0.42691 -1.12261,0.42691c-0.72733,0 -1.49682,-0.67462 -2.30847,-2.02388zM210.60107,171.5648c-0.53759,0.20027 -1.42304,0.42691 -2.65634,0.67989c-1.2333,0.24244 -2.1082,0.52178 -2.6247,0.83801c-0.50597,0.31623 -0.75895,0.78004 -0.75895,1.39141c0,0.51651 0.20027,0.97504 0.60084,1.3756c0.41109,0.39001 0.99086,0.58502 1.73927,0.58502c0.79057,0 1.52318,-0.21609 2.1978,-0.64827c0.68516,-0.44272 1.10681,-0.95923 1.26492,-1.54954c0.15811,-0.60084 0.23718,-1.49156 0.23718,-2.67213zM227.61061,176.73515v-0.36367c-1.24383,1.61278 -2.81444,2.41915 -4.71182,2.41915c-1.83413,0 -3.29406,-0.69571 -4.37978,-2.08712c-1.07519,-1.40196 -1.61278,-3.20972 -1.61278,-5.42334c0,-2.08712 0.52705,-3.79475 1.58116,-5.12293c1.0541,-1.32817 2.51929,-1.99226 4.39559,-1.99226c1.81305,0 3.38893,0.73261 4.72763,2.1978v-4.66439c0,-1.286 0.16338,-2.08712 0.49016,-2.40334c0.32676,-0.31623 0.76422,-0.47434 1.31236,-0.47434c0.39001,0 0.74314,0.11068 1.05937,0.33204c0.32676,0.22136 0.52705,0.51651 0.60084,0.88545c0.07379,0.35839 0.11068,0.9487 0.11068,1.77089v14.16709c0,0.80112 -0.04216,1.3756 -0.12649,1.72345c-0.07379,0.33731 -0.27407,0.60084 -0.60084,0.79058c-0.32676,0.20027 -0.68517,0.30042 -1.07519,0.30042c-1.18059,0 -1.77089,-0.68516 -1.77089,-2.0555zM220.54287,171.39087c0,1.61278 0.33731,2.79335 1.01194,3.54177c0.68516,0.73787 1.45993,1.10681 2.3243,1.10681c1.02247,0 1.86576,-0.38476 2.52983,-1.15424c0.66408,-0.78004 0.99612,-1.86047 0.99612,-3.24135c0,-1.45466 -0.32676,-2.60891 -0.98031,-3.46271c-0.643,-0.86437 -1.5021,-1.29655 -2.57727,-1.29655c-0.96978,0 -1.76562,0.40056 -2.38755,1.20167c-0.61138,0.79057 -0.91707,1.89211 -0.91707,3.30461zM255.01586,169.50929v6.19811c0,0.85382 -0.0369,1.45466 -0.11068,1.80252c-0.06324,0.34785 -0.25299,0.64827 -0.56922,0.90125c-0.30569,0.25299 -0.67462,0.37948 -1.10681,0.37948c-0.42165,0 -0.79057,-0.1265 -1.10681,-0.37948c-0.30569,-0.25299 -0.5007,-0.56394 -0.58503,-0.93288c-0.07379,-0.36894 -0.11068,-0.95923 -0.11068,-1.77089v-5.24942c0,-1.53899 -0.18446,-2.50348 -0.55339,-2.89349c-0.35839,-0.39001 -0.85382,-0.58503 -1.48628,-0.58503c-0.66408,0 -1.22275,0.18447 -1.67603,0.5534c-0.45326,0.35839 -0.76422,0.83274 -0.93288,1.42304c-0.15811,0.57975 -0.23718,1.49682 -0.23718,2.75119v4.0003c0,0.85382 -0.0369,1.45993 -0.11068,1.81832c-0.06324,0.34785 -0.25826,0.64827 -0.58502,0.90126c-0.31623,0.24244 -0.68517,0.36367 -1.10681,0.36367c-0.55867,0 -0.99612,-0.18447 -1.31236,-0.5534c-0.31623,-0.37948 -0.47434,-1.22275 -0.47434,-2.52983v-4.93319c0,-1.4125 -0.10541,-2.39807 -0.31623,-2.95674c-0.21082,-0.55867 -0.75895,-0.83802 -1.6444,-0.83802c-0.92761,0 -1.65494,0.29515 -2.18199,0.88545c-0.52705,0.57975 -0.79057,1.83941 -0.79057,3.77895v4.06355c0,0.83274 -0.03162,1.41776 -0.09486,1.75508c-0.0527,0.32676 -0.23718,0.63247 -0.5534,0.91707c-0.31623,0.27407 -0.68516,0.41109 -1.10681,0.41109c-0.40056,0 -0.7695,-0.12122 -1.10681,-0.36367c-0.32676,-0.25299 -0.53233,-0.5534 -0.61665,-0.90126c-0.07379,-0.34785 -0.11068,-0.95396 -0.11068,-1.81832v-8.71213c0,-0.83274 0.0369,-1.39669 0.11068,-1.69183c0.07379,-0.29515 0.26352,-0.55867 0.56922,-0.79058c0.31623,-0.2319 0.65881,-0.34785 1.02775,-0.34785c1.14897,0 1.72345,0.73261 1.72345,2.1978c1.20167,-1.4652 2.65105,-2.1978 4.34817,-2.1978c1.81305,0 3.13067,0.73261 3.95287,2.1978c1.22275,-1.4652 2.65107,-2.1978 4.28492,-2.1978c1.25438,0 2.32955,0.34785 3.22554,1.04356c0.71967,0.55881 1.15032,1.59366 1.29194,3.10458c0.03469,0.37015 0.05204,0.76887 0.05204,1.19616zM260.31919,158.97884c0.47434,0 0.88018,0.17919 1.21749,0.53759c0.34785,0.34785 0.52179,0.75369 0.52179,1.2175c0,0.48489 -0.17393,0.90125 -0.52179,1.24911c-0.33731,0.33731 -0.74314,0.50597 -1.21749,0.50597c-0.47434,0 -0.88545,-0.16866 -1.2333,-0.50597c-0.34785,-0.34785 -0.52179,-0.76422 -0.52179,-1.24911c0,-0.47434 0.17393,-0.88545 0.52179,-1.2333c0.34785,-0.34785 0.75895,-0.52179 1.2333,-0.52179zM262.1059,167.10594v8.71213c0,0.85382 -0.04216,1.43885 -0.12649,1.75508c-0.07379,0.31623 -0.27407,0.60084 -0.60084,0.85382c-0.32676,0.24244 -0.67989,0.36367 -1.05937,0.36367c-0.37948,0 -0.73788,-0.12122 -1.07519,-0.36367c-0.33731,-0.24244 -0.54813,-0.52705 -0.63246,-0.85382c-0.07379,-0.32676 -0.11069,-0.91179 -0.11069,-1.75508v-8.68051c0,-0.80112 0.03162,-1.36507 0.09486,-1.69183c0.06324,-0.33731 0.25299,-0.63247 0.56922,-0.88545c0.32676,-0.26352 0.70098,-0.39529 1.12261,-0.39529c0.43218,0 0.80111,0.11594 1.10681,0.34785c0.30569,0.2319 0.5007,0.52705 0.58503,0.88545c0.08433,0.35839 0.12649,0.92761 0.12649,1.70764zM278.50746,169.90458v5.9135c0,0.75895 -0.03162,1.31236 -0.09486,1.66021c-0.06324,0.34785 -0.25299,0.65354 -0.56922,0.91707c-0.31623,0.26352 -0.69044,0.39529 -1.12261,0.39529c-0.37948,0 -0.73788,-0.11595 -1.07519,-0.34785c-0.33731,-0.2319 -0.54813,-0.53233 -0.63246,-0.90126c-0.07379,-0.37948 -0.11068,-0.95396 -0.11068,-1.72345v-5.18618c0,-1.43358 -0.21609,-2.39807 -0.64827,-2.89349c-0.42165,-0.50597 -1.01194,-0.75895 -1.77089,-0.75895c-0.68516,0 -1.28601,0.20027 -1.80252,0.60084c-0.51651,0.39001 -0.88017,0.88018 -1.091,1.47047c-0.21082,0.5903 -0.31623,1.6075 -0.31623,3.05162v3.7157c0,0.74841 -0.03162,1.29654 -0.09486,1.6444c-0.0527,0.33731 -0.24244,0.643 -0.56922,0.91707c-0.32676,0.27407 -0.70098,0.41109 -1.12261,0.41109c-0.39001,0 -0.75369,-0.12122 -1.091,-0.36367c-0.33731,-0.24244 -0.54286,-0.54287 -0.61665,-0.90126c-0.06324,-0.35839 -0.09486,-0.92761 -0.09486,-1.70764v-8.87025c0,-0.80112 0.0369,-1.35979 0.11068,-1.67603c0.07379,-0.31623 0.26352,-0.57975 0.56922,-0.79057c0.30569,-0.21082 0.64827,-0.31623 1.02775,-0.31623c0.34785,0 0.71152,0.1423 1.091,0.42691c0.37948,0.27407 0.56922,0.93815 0.56922,1.99226c1.20167,-1.61278 2.75119,-2.41915 4.64858,-2.41915c0.7168,0 1.42304,0.13703 2.11875,0.41109c0.70624,0.27407 1.28074,0.7168 1.72345,1.32817c0.44272,0.61138 0.71152,1.24383 0.80638,1.89738c0.10541,0.65354 0.15811,1.35453 0.15811,2.10293z" stroke="none" stroke-width="1"/></g></g></g></svg>