<svg version="1.1" xmlns="http://www.w3.org/2000/svg" xmlns:xlink="http://www.w3.org/1999/xlink" width="706.21021" height="368" viewBox="0,0,706.21021,368"><g transform="translate(23.10511,4)"><g data-paper-data="{&quot;isPaintingLayer&quot;:true}" fill-rule="nonzero" stroke-linejoin="miter" stroke-miterlimit="10" stroke-dasharray="" stroke-dashoffset="0" style="mix-blend-mode: normal"><path d="M-22.1051,363v-366h704.21021v366z" fill="#000000" stroke="#000000" stroke-width="2" stroke-linecap="butt"/><path d="M176.4702,172.99134v10.08041c0,0.63499 -0.02646,1.0927 -0.07937,1.37316c-0.04762,0.28045 -0.20373,0.52915 -0.46831,0.74611c-0.26458,0.21166 -0.56884,0.31749 -0.91279,0.31749c-0.34395,0 -0.64821,-0.09789 -0.91279,-0.29368c-0.26458,-0.20108 -0.42068,-0.44714 -0.4683,-0.73817c-0.04762,-0.29103 -0.07144,-0.75934 -0.07144,-1.40491v-10.08041h-2.69076c-0.58736,0 -0.99217,-0.02381 -1.21441,-0.07144c-0.21695,-0.04762 -0.40745,-0.17197 -0.57149,-0.37305c-0.16404,-0.20108 -0.24606,-0.43391 -0.24606,-0.69849c0,-0.20108 0.05291,-0.39687 0.15875,-0.58736c0.11112,-0.19579 0.26193,-0.33601 0.45243,-0.42068c0.1905,-0.08466 0.66409,-0.127 1.42078,-0.127h8.2707c0.68261,0 1.11652,0.02646 1.30172,0.07937c0.1905,0.05291 0.35983,0.18256 0.50799,0.38893c0.15346,0.20108 0.23018,0.42333 0.23018,0.66674c0,0.19579 -0.05821,0.39422 -0.17462,0.5953c-0.11112,0.19579 -0.26193,0.33601 -0.45243,0.42068c-0.1905,0.08466 -0.66145,0.127 -1.41284,0.127zM192.34487,178.67447v4.93702c0,1.26468 -0.46037,1.89702 -1.3811,1.89702c-0.41274,0 -0.73553,-0.13229 -0.96835,-0.39687c-0.23283,-0.26987 -0.34924,-0.76992 -0.34924,-1.50016v-4.32585c0,-1.02127 -0.16404,-1.7224 -0.49211,-2.10339c-0.32808,-0.38099 -0.78315,-0.57149 -1.36522,-0.57149c-0.51328,0 -0.96042,0.14287 -1.34141,0.42862c-0.38099,0.28045 -0.65086,0.6297 -0.80961,1.04773c-0.15875,0.41803 -0.23812,1.14827 -0.23812,2.1907v3.13525c0,0.84665 -0.12171,1.40755 -0.36512,1.68271c-0.23812,0.27516 -0.57149,0.41274 -1.0001,0.41274c-0.41803,0 -0.74611,-0.13229 -0.98423,-0.39687c-0.23812,-0.26987 -0.35718,-0.82284 -0.35718,-1.6589v-10.75508c0,-0.65086 0.03175,-1.10329 0.09525,-1.35728c0.0635,-0.25929 0.20637,-0.4683 0.42862,-0.62705c0.22754,-0.16404 0.49211,-0.24606 0.79373,-0.24606c0.34395,0 0.6297,0.0926 0.85723,0.27781c0.22754,0.18521 0.37305,0.42597 0.43655,0.7223c0.0635,0.29103 0.09525,0.77786 0.09525,1.46047v3.20668c0.90486,-1.09006 2.0055,-1.63509 3.30193,-1.63509c1.09535,0 1.9764,0.33601 2.64313,1.00804c0.66674,0.66674 1.0001,1.7224 1.0001,3.16699zM202.58601,180.66674h-5.31801c0.02646,1.00539 0.30162,1.76473 0.82548,2.27801c0.52915,0.51328 1.15885,0.76992 1.88908,0.76992c0.91015,0 1.76473,-0.39687 2.56376,-1.1906c0.32278,-0.33337 0.5609,-0.53974 0.71436,-0.61911c0.15875,-0.07937 0.33337,-0.11906 0.52386,-0.11906c0.24341,0 0.45243,0.07673 0.62705,0.23018c0.17991,0.15346 0.26987,0.34131 0.26987,0.56355c0,0.60853 -0.41803,1.24881 -1.2541,1.92083c-0.83077,0.67203 -1.95787,1.00804 -3.3813,1.00804c-1.815,0 -3.19081,-0.51064 -4.12741,-1.5319c-0.93131,-1.02127 -1.39697,-2.3468 -1.39697,-3.9766c0,-1.64038 0.46566,-2.96592 1.39697,-3.9766c0.93661,-1.01598 2.23833,-1.52397 3.90517,-1.52397c1.59805,0 2.82834,0.47889 3.69086,1.43666c0.86782,0.95777 1.30172,2.00021 1.30172,3.12731c0,0.49211 -0.14552,0.88369 -0.43655,1.17472c-0.28574,0.28574 -0.88369,0.42862 -1.79384,0.42862zM197.26799,179.12689h4.92908c-0.03175,-0.89956 -0.28045,-1.58482 -0.74611,-2.05577c-0.46037,-0.47095 -1.03185,-0.70642 -1.71446,-0.70642c-1.43401,0 -2.25685,0.92073 -2.46851,2.76219zM220.55017,176.34089v-0.36512c0,-0.49211 0.12171,-0.85988 0.36512,-1.10329c0.24341,-0.2487 0.55032,-0.37305 0.92073,-0.37305c0.40745,0 0.7223,0.14287 0.94454,0.42862c0.22225,0.28574 0.33337,0.90486 0.33337,1.85734v7.27853c0,2.15366 -0.45507,3.60355 -1.36522,4.34966c-0.91015,0.74611 -2.2251,1.11916 -3.94485,1.11916c-1.53984,0 -2.74367,-0.28574 -3.61149,-0.85723c-0.86782,-0.5662 -1.30172,-1.16679 -1.30172,-1.80177c0,-0.34395 0.11377,-0.62176 0.34131,-0.83342c0.23283,-0.20637 0.5027,-0.30956 0.80961,-0.30956c0.28574,0 0.51328,0.06615 0.68261,0.19843c0.16933,0.13758 0.45507,0.46037 0.85723,0.96835c0.40216,0.51328 1.08477,0.76992 2.04783,0.76992c0.52915,0 1.01862,-0.08466 1.46841,-0.25399c0.45507,-0.16404 0.78844,-0.45772 1.0001,-0.88104c0.21695,-0.41803 0.32014,-1.43666 0.30956,-3.05587c-0.83077,1.1906 -1.96317,1.7859 -3.39718,1.7859c-1.3811,0 -2.4738,-0.51593 -3.27812,-1.54778c-0.80432,-1.03714 -1.20647,-2.36268 -1.20647,-3.9766c0,-1.60863 0.41274,-2.8839 1.23822,-3.82579c0.83077,-0.9419 1.90761,-1.41284 3.23049,-1.41284c1.44459,0 2.6299,0.61382 3.55592,1.84146zM215.2639,179.95238c0,1.05302 0.23018,1.85734 0.69055,2.41295c0.46037,0.55032 1.09006,0.82548 1.88908,0.82548c0.69319,0 1.29378,-0.26722 1.80177,-0.80167c0.50799,-0.53974 0.76198,-1.34141 0.76198,-2.40501c0,-1.05302 -0.23547,-1.88644 -0.70642,-2.50026c-0.46566,-0.61382 -1.098,-0.92073 -1.89702,-0.92073c-0.76727,0 -1.38374,0.28839 -1.8494,0.86517c-0.46037,0.57149 -0.69055,1.41284 -0.69055,2.52407zM232.67841,183.98454c-1.29114,1.01598 -2.55582,1.52397 -3.79404,1.52397c-1.16943,0 -2.069,-0.29633 -2.69869,-0.88898c-0.6244,-0.59795 -0.93661,-1.32553 -0.93661,-2.18277c0,-0.73553 0.21166,-1.32818 0.63499,-1.77796c0.42862,-0.45507 0.89427,-0.77257 1.39697,-0.95248c0.5027,-0.17991 1.32024,-0.38628 2.45264,-0.61911c1.13768,-0.23812 2.05312,-0.45507 2.74632,-0.65086c-0.00529,-0.82019 -0.16668,-1.37316 -0.48418,-1.6589c-0.31749,-0.29103 -0.80167,-0.43655 -1.45253,-0.43655c-1.22764,0 -2.03196,0.34395 -2.41295,1.03185c-0.21166,0.39158 -0.39951,0.66938 -0.56355,0.83342c-0.16404,0.16404 -0.40216,0.24606 -0.71436,0.24606c-0.28574,0 -0.54503,-0.0926 -0.77786,-0.27781c-0.22754,-0.1905 -0.34131,-0.43391 -0.34131,-0.73023c0,-0.70378 0.37835,-1.37051 1.13504,-2.00021c0.76198,-0.6297 1.96052,-0.94454 3.59561,-0.94454c1.65626,0 2.86802,0.28574 3.6353,0.85723c0.76727,0.57149 1.1271,1.72769 1.07948,3.46861l-0.0635,2.53995c-0.02646,0.78315 0.05556,1.42343 0.24606,1.92083c0.1905,0.49741 0.28574,0.8784 0.28574,1.14298c0,0.28574 -0.127,0.53709 -0.38099,0.75405c-0.2487,0.21695 -0.5318,0.32543 -0.84929,0.32543c-0.55032,0 -1.12975,-0.50799 -1.73828,-1.52397zM232.49585,180.0635c-0.40216,0.15875 -1.06889,0.33072 -2.00021,0.51593c-0.92602,0.18521 -1.58218,0.39687 -1.96846,0.63499c-0.38628,0.23812 -0.57943,0.58472 -0.57943,1.03979c0,0.39158 0.15346,0.73553 0.46037,1.03185c0.30691,0.29633 0.74082,0.44449 1.30172,0.44449c0.59795,0 1.15091,-0.16139 1.6589,-0.48418c0.51328,-0.32808 0.82813,-0.71701 0.94454,-1.16679c0.12171,-0.44978 0.18256,-1.12181 0.18256,-2.01608zM253.25395,178.51572v4.67509c0,0.64028 -0.02646,1.0927 -0.07937,1.35728c-0.05291,0.25929 -0.19843,0.48418 -0.43655,0.67467c-0.23283,0.1905 -0.51064,0.28574 -0.83342,0.28574c-0.31749,0 -0.5953,-0.0926 -0.83342,-0.27781c-0.23283,-0.1905 -0.37835,-0.42597 -0.43655,-0.70642c-0.05821,-0.28045 -0.08731,-0.72494 -0.08731,-1.33347v-3.96073c0,-1.15885 -0.13758,-1.88379 -0.41274,-2.17483c-0.27516,-0.29633 -0.65086,-0.44449 -1.1271,-0.44449c-0.49741,0 -0.91544,0.13758 -1.2541,0.41274c-0.33866,0.27516 -0.57149,0.63499 -0.69849,1.07948c-0.127,0.4392 -0.1905,1.13239 -0.1905,2.07958v3.00825c0,0.64028 -0.02646,1.09535 -0.07937,1.36522c-0.04762,0.26458 -0.19314,0.48947 -0.43655,0.67467c-0.23812,0.18521 -0.51857,0.27781 -0.84136,0.27781c-0.41803,0 -0.74611,-0.14023 -0.98423,-0.42068c-0.23812,-0.28045 -0.35718,-0.91279 -0.35718,-1.89702v-3.72261c0,-1.05831 -0.07937,-1.79913 -0.23812,-2.22245c-0.15875,-0.42333 -0.57149,-0.63499 -1.23822,-0.63499c-0.69319,0 -1.24087,0.22225 -1.64303,0.66674c-0.40216,0.4392 -0.60324,1.38639 -0.60324,2.84156v3.07175c0,0.6244 -0.02117,1.0636 -0.0635,1.3176c-0.04233,0.2487 -0.18256,0.47889 -0.42068,0.69055c-0.23812,0.20637 -0.51593,0.30956 -0.83342,0.30956c-0.30162,0 -0.57678,-0.0926 -0.82548,-0.27781c-0.2487,-0.18521 -0.4048,-0.40745 -0.4683,-0.66674c-0.05821,-0.26458 -0.08731,-0.7223 -0.08731,-1.37316v-6.56417c0,-0.6244 0.0291,-1.04773 0.08731,-1.26997c0.05821,-0.22754 0.20372,-0.42597 0.43655,-0.5953c0.23283,-0.17462 0.48682,-0.26193 0.76198,-0.26193c0.86252,0 1.29378,0.55032 1.29378,1.65096c0.91015,-1.10064 2.00285,-1.65096 3.27812,-1.65096c1.37051,0 2.36532,0.55032 2.98444,1.65096c0.92073,-1.10064 1.99492,-1.65096 3.22256,-1.65096c0.94719,0 1.7568,0.26193 2.42882,0.7858c0.67732,0.51857 1.01598,1.5954 1.01598,3.23049zM263.44548,180.66674h-5.31801c0.02646,1.00539 0.30162,1.76473 0.82548,2.27801c0.52915,0.51328 1.15885,0.76992 1.88908,0.76992c0.91015,0 1.76473,-0.39687 2.56376,-1.1906c0.32278,-0.33337 0.5609,-0.53974 0.71436,-0.61911c0.15875,-0.07937 0.33337,-0.11906 0.52386,-0.11906c0.24341,0 0.45243,0.07673 0.62705,0.23018c0.17991,0.15346 0.26987,0.34131 0.26987,0.56355c0,0.60853 -0.41803,1.24881 -1.2541,1.92083c-0.83077,0.67203 -1.95787,1.00804 -3.3813,1.00804c-1.815,0 -3.19081,-0.51064 -4.12741,-1.5319c-0.93131,-1.02127 -1.39697,-2.3468 -1.39697,-3.9766c0,-1.64038 0.46566,-2.96592 1.39697,-3.9766c0.93661,-1.01598 2.23833,-1.52397 3.90517,-1.52397c1.59805,0 2.82834,0.47889 3.69086,1.43666c0.86782,0.95777 1.30172,2.00021 1.30172,3.12731c0,0.49211 -0.14552,0.88369 -0.43655,1.17472c-0.28574,0.28574 -0.88369,0.42862 -1.79384,0.42862zM258.12747,179.12689h4.92908c-0.03175,-0.89956 -0.28045,-1.58482 -0.74611,-2.05577c-0.46037,-0.47095 -1.03185,-0.70642 -1.71446,-0.70642c-1.43401,0 -2.25685,0.92073 -2.46851,2.76219zM276.7425,185.23864l-3.3178,-8.38976c-0.20637,-0.54503 -0.30956,-0.91808 -0.30956,-1.11916c0,-0.3122 0.12964,-0.5953 0.38893,-0.84929c0.25929,-0.25399 0.56355,-0.38099 0.91279,-0.38099c0.30691,0 0.5662,0.09525 0.77786,0.28574c0.21695,0.18521 0.42862,0.56884 0.63499,1.15091l2.28595,6.66736l2.17483,-6.18318c0.28574,-0.80432 0.51328,-1.32553 0.68261,-1.56365c0.16933,-0.23812 0.45772,-0.35718 0.86517,-0.35718c0.37041,0 0.66145,0.12435 0.87311,0.37305c0.21695,0.24341 0.32543,0.49476 0.32543,0.75405c0,0.30691 -0.10848,0.74082 -0.32543,1.30172l-3.53211,9.24699c-0.47095,1.23293 -0.95777,2.10075 -1.46047,2.60344c-0.5027,0.5027 -1.35728,0.75405 -2.56376,0.75405c-1.57688,0 -2.36532,-0.40216 -2.36532,-1.20647c0,-0.26458 0.08996,-0.48682 0.26987,-0.66674c0.17991,-0.17462 0.41803,-0.26193 0.71436,-0.26193c0.04762,0 0.19843,0.00794 0.45243,0.02381c0.25929,0.02117 0.41274,0.03175 0.46037,0.03175c0.5027,0 0.87046,-0.12171 1.10329,-0.36512c0.23812,-0.23812 0.47095,-0.65086 0.69849,-1.23822zM289.73988,174.49943c1.67742,0 2.99766,0.51857 3.96073,1.55572c0.96306,1.03185 1.44459,2.3468 1.44459,3.94485c0,1.60863 -0.48947,2.92887 -1.46841,3.96073c-0.97365,1.03185 -2.26479,1.54778 -3.87342,1.54778c-1.74621,0 -3.09291,-0.52122 -4.0401,-1.56365c-0.94719,-1.04773 -1.42078,-2.36268 -1.42078,-3.94485c0,-1.60334 0.47889,-2.92094 1.43666,-3.95279c0.96306,-1.03185 2.2833,-1.54778 3.96073,-1.54778zM289.73988,183.49243c0.82019,0 1.46841,-0.30691 1.94465,-0.92073c0.48153,-0.61911 0.7223,-1.47634 0.7223,-2.5717c0,-1.09535 -0.24077,-1.95258 -0.7223,-2.5717c-0.47624,-0.61911 -1.12445,-0.92867 -1.94465,-0.92867c-0.80961,0 -1.45518,0.3122 -1.93671,0.93661c-0.48153,0.61911 -0.7223,1.4737 -0.7223,2.56376c0,1.10064 0.23812,1.95787 0.71436,2.5717c0.48153,0.61382 1.12975,0.92073 1.94465,0.92073zM297.19501,181.48428v-4.75446c0,-0.58736 0.02381,-1.01069 0.07144,-1.26997c0.04762,-0.26458 0.18785,-0.48947 0.42068,-0.67467c0.23812,-0.1905 0.52122,-0.28574 0.84929,-0.28574c0.31749,0 0.5953,0.08996 0.83342,0.26987c0.24341,0.17462 0.39422,0.40745 0.45243,0.69849c0.05821,0.29103 0.08731,0.73023 0.08731,1.3176v3.72261c0,1.22235 0.18785,2.0055 0.56355,2.34945c0.38099,0.34395 0.80167,0.51593 1.26204,0.51593c0.51857,0 0.97365,-0.14552 1.36522,-0.43655c0.39687,-0.29633 0.66674,-0.65086 0.80961,-1.0636c0.14287,-0.41274 0.21431,-1.22764 0.21431,-2.4447v-2.69869c0,-0.57678 0.02646,-1.00275 0.07937,-1.27791c0.05821,-0.27516 0.20637,-0.5027 0.44449,-0.68261c0.23812,-0.17991 0.51857,-0.26987 0.84136,-0.26987c0.3122,0 0.58736,0.08996 0.82548,0.26987c0.24341,0.17462 0.38893,0.39687 0.43655,0.66674c0.05291,0.26458 0.07937,0.69584 0.07937,1.29378v6.68323c0,0.55032 -0.02646,0.94983 -0.07937,1.19854c-0.05291,0.24341 -0.18521,0.45507 -0.39687,0.63499c-0.20637,0.17462 -0.4683,0.26193 -0.7858,0.26193c-0.87311,0 -1.29114,-0.6244 -1.2541,-1.87321c-0.91015,1.24881 -2.10604,1.87321 -3.58767,1.87321c-0.97894,0 -1.81236,-0.29103 -2.50026,-0.87311c-0.6879,-0.58736 -1.03185,-1.63774 -1.03185,-3.15112zM316.03228,174.73755v-1.62715c0,-0.67203 0.02646,-1.1271 0.07937,-1.36522c0.05821,-0.24341 0.20372,-0.45772 0.43655,-0.64292c0.23812,-0.1905 0.51593,-0.28574 0.83342,-0.28574c0.29103,0 0.55297,0.08731 0.7858,0.26193c0.23283,0.16933 0.38628,0.3757 0.46037,0.61911c0.07408,0.24341 0.11112,0.64028 0.11112,1.1906v1.8494h0.52386c0.66145,0 1.10064,0.08202 1.3176,0.24606c0.22225,0.15875 0.33337,0.39422 0.33337,0.70642c0,0.66674 -0.55561,1.0001 -1.66684,1.0001h-0.50799v5.00052c0,0.67203 0.04762,1.13239 0.14287,1.3811c0.09525,0.24341 0.35189,0.36512 0.76992,0.36512c0.19579,0 0.41803,-0.02646 0.66674,-0.07937c0.2487,-0.05821 0.43391,-0.08731 0.55561,-0.08731c0.26987,0 0.48947,0.08996 0.6588,0.26987c0.16933,0.17462 0.25399,0.38893 0.25399,0.64292c0,0.88369 -0.93661,1.32553 -2.80982,1.32553c-0.90486,0 -1.57159,-0.16668 -2.00021,-0.50005c-0.42862,-0.33866 -0.69319,-0.74876 -0.79373,-1.23029c-0.10054,-0.48682 -0.15081,-1.11652 -0.15081,-1.88908v-5.19895h-0.35718c-0.80432,0 -1.20647,-0.32808 -1.20647,-0.98423c0,-0.64557 0.42068,-0.96835 1.26204,-0.96835zM322.75719,183.27018v-6.94516c0,-1.21706 0.44714,-1.82559 1.34141,-1.82559c0.85194,0 1.28849,0.5609 1.30966,1.68271c0.5609,-1.12181 1.33612,-1.68271 2.32564,-1.68271c0.52386,0 1.0636,0.13758 1.61922,0.41274c0.5609,0.26987 0.84136,0.64292 0.84136,1.11916c0,0.33337 -0.11377,0.60853 -0.34131,0.82548c-0.22225,0.21166 -0.46037,0.31749 -0.71436,0.31749c-0.14816,0 -0.41274,-0.05821 -0.79373,-0.17462c-0.38099,-0.11641 -0.69849,-0.17462 -0.95248,-0.17462c-0.65086,0 -1.13504,0.32808 -1.45253,0.98423c-0.31749,0.65615 -0.47624,1.92083 -0.47624,3.79404v1.56365c0,0.6879 -0.0291,1.15356 -0.08731,1.39697c-0.05291,0.23812 -0.19843,0.45507 -0.43655,0.65086c-0.23812,0.19579 -0.51328,0.29368 -0.82548,0.29368c-0.29633,0 -0.56355,-0.08731 -0.80167,-0.26193c-0.23812,-0.17462 -0.39158,-0.38099 -0.46037,-0.61911c-0.0635,-0.24341 -0.09525,-0.69584 -0.09525,-1.35728zM333.04595,170.58633c0.34924,0 0.65351,0.13229 0.91279,0.39687c0.25929,0.26458 0.38893,0.57149 0.38893,0.92073c0,0.36512 -0.12964,0.67996 -0.38893,0.94454c-0.25929,0.25929 -0.56355,0.38893 -0.91279,0.38893c-0.36512,0 -0.67996,-0.12964 -0.94454,-0.38893c-0.25929,-0.26458 -0.38893,-0.57943 -0.38893,-0.94454c0,-0.35453 0.12964,-0.66145 0.38893,-0.92073c0.26458,-0.26458 0.57943,-0.39687 0.94454,-0.39687zM334.38736,176.70601v6.56417c0,0.64557 -0.03175,1.08741 -0.09525,1.32553c-0.05821,0.23812 -0.20902,0.44978 -0.45243,0.63499c-0.24341,0.18521 -0.50799,0.27781 -0.79373,0.27781c-0.29103,0 -0.56355,-0.08996 -0.81755,-0.26987c-0.2487,-0.18521 -0.4048,-0.39951 -0.4683,-0.64292c-0.05821,-0.24341 -0.08731,-0.68526 -0.08731,-1.32553v-6.54036c0,-0.60324 0.02381,-1.02921 0.07144,-1.27791c0.04762,-0.2487 0.1905,-0.4683 0.42862,-0.6588c0.24341,-0.19579 0.52386,-0.29368 0.84136,-0.29368c0.32278,0 0.60059,0.08731 0.83342,0.26193c0.23283,0.17462 0.38099,0.39687 0.44449,0.66674c0.0635,0.26458 0.09525,0.69055 0.09525,1.27791zM344.74359,180.66674h-5.31801c0.02646,1.00539 0.30162,1.76473 0.82548,2.27801c0.52915,0.51328 1.15885,0.76992 1.88908,0.76992c0.91015,0 1.76473,-0.39687 2.56376,-1.1906c0.32278,-0.33337 0.5609,-0.53974 0.71436,-0.61911c0.15875,-0.07937 0.33337,-0.11906 0.52386,-0.11906c0.24341,0 0.45243,0.07673 0.62705,0.23018c0.17991,0.15346 0.26987,0.34131 0.26987,0.56355c0,0.60853 -0.41803,1.24881 -1.2541,1.92083c-0.83077,0.67203 -1.95787,1.00804 -3.3813,1.00804c-1.815,0 -3.19081,-0.51064 -4.12741,-1.5319c-0.93131,-1.02127 -1.39697,-2.3468 -1.39697,-3.9766c0,-1.64038 0.46566,-2.96592 1.39697,-3.9766c0.93661,-1.01598 2.23833,-1.52397 3.90517,-1.52397c1.59805,0 2.82834,0.47889 3.69086,1.43666c0.86782,0.95777 1.30172,2.00021 1.30172,3.12731c0,0.49211 -0.14552,0.88369 -0.43655,1.17472c-0.28574,0.28574 -0.88369,0.42862 -1.79384,0.42862zM339.42558,179.12689h4.92908c-0.03175,-0.89956 -0.28045,-1.58482 -0.74611,-2.05577c-0.46037,-0.47095 -1.03185,-0.70642 -1.71446,-0.70642c-1.43401,0 -2.25685,0.92073 -2.46851,2.76219zM356.65951,183.96073v-0.26987c-0.93131,1.21176 -2.11133,1.81765 -3.54005,1.81765c-1.38639,0 -2.48703,-0.52386 -3.30193,-1.57159c-0.8149,-1.05302 -1.22235,-2.41295 -1.22235,-4.07979c0,-1.57688 0.39687,-2.86273 1.1906,-3.85754c0.79902,-1.0001 1.90231,-1.50016 3.30987,-1.50016c1.37051,0 2.55847,0.55032 3.56386,1.65096v-3.5083c0,-0.97365 0.12171,-1.57953 0.36512,-1.81765c0.24341,-0.23812 0.57413,-0.35718 0.99217,-0.35718c0.29103,0 0.55826,0.08466 0.80167,0.25399c0.2487,0.16933 0.39951,0.38893 0.45243,0.6588c0.05821,0.26987 0.08731,0.71701 0.08731,1.34141v10.67571c0,0.60324 -0.03175,1.0345 -0.09525,1.29378c-0.0635,0.25399 -0.21695,0.45243 -0.46037,0.5953c-0.24341,0.14816 -0.51064,0.22225 -0.80167,0.22225c-0.89427,0 -1.34141,-0.51593 -1.34141,-1.54778zM351.33356,179.9365c0,1.21706 0.25399,2.10604 0.76198,2.66694c0.51328,0.55561 1.098,0.83342 1.75415,0.83342c0.76727,0 1.40226,-0.29103 1.90496,-0.87311c0.5027,-0.58207 0.75405,-1.39697 0.75405,-2.4447c0,-1.09006 -0.24606,-1.95787 -0.73817,-2.60344c-0.48682,-0.65086 -1.13239,-0.97629 -1.93671,-0.97629c-0.73553,0 -1.33612,0.30162 -1.80177,0.90486c-0.46566,0.60324 -0.69849,1.43401 -0.69849,2.49232zM368.43851,174.73755v-1.62715c0,-0.67203 0.02646,-1.1271 0.07937,-1.36522c0.05821,-0.24341 0.20372,-0.45772 0.43655,-0.64292c0.23812,-0.1905 0.51593,-0.28574 0.83342,-0.28574c0.29103,0 0.55297,0.08731 0.7858,0.26193c0.23283,0.16933 0.38628,0.3757 0.46037,0.61911c0.07408,0.24341 0.11112,0.64028 0.11112,1.1906v1.8494h0.52386c0.66145,0 1.10064,0.08202 1.3176,0.24606c0.22225,0.15875 0.33337,0.39422 0.33337,0.70642c0,0.66674 -0.55561,1.0001 -1.66684,1.0001h-0.50799v5.00052c0,0.67203 0.04762,1.13239 0.14287,1.3811c0.09525,0.24341 0.35189,0.36512 0.76992,0.36512c0.19579,0 0.41803,-0.02646 0.66674,-0.07937c0.2487,-0.05821 0.43391,-0.08731 0.55561,-0.08731c0.26987,0 0.48947,0.08996 0.6588,0.26987c0.16933,0.17462 0.25399,0.38893 0.25399,0.64292c0,0.88369 -0.93661,1.32553 -2.80982,1.32553c-0.90486,0 -1.57159,-0.16668 -2.00021,-0.50005c-0.42862,-0.33866 -0.69319,-0.74876 -0.79373,-1.23029c-0.10054,-0.48682 -0.15081,-1.11652 -0.15081,-1.88908v-5.19895h-0.35718c-0.80432,0 -1.20647,-0.32808 -1.20647,-0.98423c0,-0.64557 0.42068,-0.96835 1.26204,-0.96835zM379.91787,174.49943c1.67742,0 2.99766,0.51857 3.96073,1.55572c0.96306,1.03185 1.44459,2.3468 1.44459,3.94485c0,1.60863 -0.48947,2.92887 -1.46841,3.96073c-0.97365,1.03185 -2.26479,1.54778 -3.87342,1.54778c-1.74621,0 -3.09291,-0.52122 -4.0401,-1.56365c-0.94719,-1.04773 -1.42078,-2.36268 -1.42078,-3.94485c0,-1.60334 0.47889,-2.92094 1.43666,-3.95279c0.96306,-1.03185 2.2833,-1.54778 3.96073,-1.54778zM379.91787,183.49243c0.82019,0 1.46841,-0.30691 1.94465,-0.92073c0.48153,-0.61911 0.7223,-1.47634 0.7223,-2.5717c0,-1.09535 -0.24077,-1.95258 -0.7223,-2.5717c-0.47624,-0.61911 -1.12445,-0.92867 -1.94465,-0.92867c-0.80961,0 -1.45518,0.3122 -1.93671,0.93661c-0.48153,0.61911 -0.7223,1.4737 -0.7223,2.56376c0,1.10064 0.23812,1.95787 0.71436,2.5717c0.48153,0.61382 1.12975,0.92073 1.94465,0.92073zM394.85791,170.58633c0.34924,0 0.65351,0.13229 0.91279,0.39687c0.25929,0.26458 0.38893,0.57149 0.38893,0.92073c0,0.36512 -0.12964,0.67996 -0.38893,0.94454c-0.25929,0.25929 -0.56355,0.38893 -0.91279,0.38893c-0.36512,0 -0.67996,-0.12964 -0.94454,-0.38893c-0.25929,-0.26458 -0.38893,-0.57943 -0.38893,-0.94454c0,-0.35453 0.12964,-0.66145 0.38893,-0.92073c0.26458,-0.26458 0.57943,-0.39687 0.94454,-0.39687zM393.52444,185.22276v-8.49294c0,-0.66674 0.0291,-1.11652 0.08731,-1.34935c0.05821,-0.23283 0.20108,-0.43655 0.42862,-0.61117c0.23283,-0.17991 0.50534,-0.26987 0.81755,-0.26987c0.29103,0 0.55561,0.08202 0.79373,0.24606c0.24341,0.16404 0.39422,0.37041 0.45243,0.61911c0.0635,0.2487 0.09525,0.70378 0.09525,1.36522v8.49294c0,1.00539 -0.05291,1.77002 -0.15875,2.29389c-0.10054,0.52386 -0.37835,0.98952 -0.83342,1.39697c-0.44978,0.41274 -1.15091,0.61911 -2.10339,0.61911c-1.67213,0 -2.5082,-0.44184 -2.5082,-1.32553c0,-0.30691 0.09789,-0.5662 0.29368,-0.77786c0.1905,-0.21166 0.43391,-0.31749 0.73023,-0.31749l0.99217,0.0635c0.32808,0 0.5609,-0.12435 0.69849,-0.37305c0.14287,-0.24341 0.21431,-0.76992 0.21431,-1.57953zM403.72988,174.49943c1.67742,0 2.99766,0.51857 3.96073,1.55572c0.96306,1.03185 1.44459,2.3468 1.44459,3.94485c0,1.60863 -0.48947,2.92887 -1.46841,3.96073c-0.97365,1.03185 -2.26479,1.54778 -3.87342,1.54778c-1.74622,0 -3.09293,-0.52122 -4.04012,-1.56365c-0.94719,-1.04773 -1.42078,-2.36268 -1.42078,-3.94485c0,-1.60334 0.47889,-2.92094 1.43666,-3.95279c0.96306,-1.03185 2.28331,-1.54778 3.96074,-1.54778zM403.72988,183.49243c0.82019,0 1.46841,-0.30691 1.94465,-0.92073c0.48153,-0.61911 0.7223,-1.47634 0.7223,-2.5717c0,-1.09535 -0.24077,-1.95258 -0.7223,-2.5717c-0.47624,-0.61911 -1.12445,-0.92867 -1.94465,-0.92867c-0.80962,0 -1.45519,0.3122 -1.93672,0.93661c-0.48153,0.61911 -0.7223,1.4737 -0.7223,2.56376c0,1.10064 0.23812,1.95787 0.71436,2.5717c0.48153,0.61382 1.12975,0.92073 1.94466,0.92073zM412.63755,170.58633c0.34924,0 0.65351,0.13229 0.91279,0.39687c0.25929,0.26458 0.38893,0.57149 0.38893,0.92073c0,0.36512 -0.12964,0.67996 -0.38893,0.94454c-0.25929,0.25929 -0.56355,0.38893 -0.91279,0.38893c-0.36512,0 -0.67996,-0.12964 -0.94454,-0.38893c-0.25929,-0.26458 -0.38893,-0.57943 -0.38893,-0.94454c0,-0.35453 0.12964,-0.66145 0.38893,-0.92073c0.26458,-0.26458 0.57943,-0.39687 0.94454,-0.39687zM413.97896,176.70601v6.56417c0,0.64557 -0.03175,1.08741 -0.09525,1.32553c-0.05821,0.23812 -0.20902,0.44978 -0.45243,0.63499c-0.24341,0.18521 -0.50799,0.27781 -0.79373,0.27781c-0.29103,0 -0.56355,-0.08996 -0.81755,-0.26987c-0.2487,-0.18521 -0.4048,-0.39951 -0.4683,-0.64292c-0.05821,-0.24341 -0.08731,-0.68526 -0.08731,-1.32553v-6.54036c0,-0.60324 0.02381,-1.02921 0.07144,-1.27791c0.04762,-0.2487 0.1905,-0.4683 0.42862,-0.6588c0.24341,-0.19579 0.52386,-0.29368 0.84136,-0.29368c0.32278,0 0.60059,0.08731 0.83342,0.26193c0.23283,0.17462 0.38099,0.39687 0.44449,0.66674c0.0635,0.26458 0.09525,0.69055 0.09525,1.27791zM426.32746,178.82527v4.44491c0,0.57149 -0.02381,0.98952 -0.07144,1.2541c-0.04233,0.25929 -0.18256,0.48947 -0.42068,0.69055c-0.23812,0.19579 -0.52122,0.29368 -0.84929,0.29368c-0.29103,0 -0.56355,-0.08731 -0.81755,-0.26193c-0.2487,-0.17462 -0.40216,-0.40216 -0.46037,-0.68261c-0.05821,-0.28045 -0.08731,-0.71171 -0.08731,-1.29378v-3.90517c0,-1.08477 -0.16404,-1.815 -0.49211,-2.1907c-0.32278,-0.3757 -0.76727,-0.56355 -1.33347,-0.56355c-0.51857,0 -0.97365,0.14816 -1.36522,0.44449c-0.38628,0.29633 -0.6588,0.66938 -0.81755,1.11916c-0.15875,0.44449 -0.23812,1.20912 -0.23812,2.29389v2.80188c0,0.5662 -0.02117,0.97894 -0.0635,1.23822c-0.04233,0.25929 -0.18785,0.49211 -0.43655,0.69849c-0.24341,0.20108 -0.52386,0.30162 -0.84136,0.30162c-0.29633,0 -0.57149,-0.08996 -0.82548,-0.26987c-0.2487,-0.18521 -0.39951,-0.41274 -0.45243,-0.68261c-0.05291,-0.26987 -0.07937,-0.69849 -0.07937,-1.28585v-6.68323c0,-0.59795 0.02646,-1.01598 0.07937,-1.2541c0.05821,-0.23812 0.20108,-0.43655 0.42862,-0.5953c0.22754,-0.15875 0.48418,-0.23812 0.76992,-0.23812c0.26458,0 0.53974,0.10319 0.82548,0.30956c0.29103,0.20637 0.43655,0.71171 0.43655,1.51603c0.90486,-1.21706 2.069,-1.82559 3.49243,-1.82559c0.53974,0 1.07419,0.10319 1.60334,0.30956c0.52915,0.20108 0.96042,0.5318 1.29378,0.99217c0.33866,0.46037 0.54239,0.93661 0.61117,1.42872c0.07408,0.49211 0.11112,1.02392 0.11112,1.5954zM436.44954,170.58633c0.34924,0 0.65351,0.13229 0.91279,0.39687c0.25929,0.26458 0.38893,0.57149 0.38893,0.92073c0,0.36512 -0.12964,0.67996 -0.38893,0.94454c-0.25929,0.25929 -0.56355,0.38893 -0.91279,0.38893c-0.36512,0 -0.67996,-0.12964 -0.94454,-0.38893c-0.25929,-0.26458 -0.38893,-0.57943 -0.38893,-0.94454c0,-0.35453 0.12964,-0.66145 0.38893,-0.92073c0.26458,-0.26458 0.57943,-0.39687 0.94454,-0.39687zM437.79095,176.70601v6.56417c0,0.64557 -0.03175,1.08741 -0.09525,1.32553c-0.05821,0.23812 -0.20902,0.44978 -0.45243,0.63499c-0.24341,0.18521 -0.50799,0.27781 -0.79373,0.27781c-0.29103,0 -0.56355,-0.08996 -0.81755,-0.26987c-0.2487,-0.18521 -0.4048,-0.39951 -0.4683,-0.64292c-0.05821,-0.24341 -0.08731,-0.68526 -0.08731,-1.32553v-6.54036c0,-0.60324 0.02381,-1.02921 0.07144,-1.27791c0.04762,-0.2487 0.1905,-0.4683 0.42862,-0.6588c0.24341,-0.19579 0.52386,-0.29368 0.84136,-0.29368c0.32278,0 0.60059,0.08731 0.83342,0.26193c0.23283,0.17462 0.38099,0.39687 0.44449,0.66674c0.0635,0.26458 0.09525,0.69055 0.09525,1.27791zM442.63867,177.31718c0,0.34924 0.18256,0.6244 0.54768,0.82548c0.36512,0.19579 1.17737,0.44978 2.43676,0.76198c2.45528,0.59265 3.68292,1.61392 3.68292,3.06381c0,1.14298 -0.41274,2.01873 -1.23822,2.62726c-0.82548,0.60853 -1.98433,0.91279 -3.47655,0.91279c-1.50809,0 -2.64313,-0.30956 -3.40511,-0.92867c-0.76198,-0.6244 -1.14298,-1.2832 -1.14298,-1.9764c0,-0.29633 0.10583,-0.55032 0.31749,-0.76198c0.21166,-0.21166 0.47095,-0.31749 0.77786,-0.31749c0.42333,0 0.79373,0.26458 1.11123,0.79373c0.35983,0.58207 0.75405,0.96835 1.18266,1.15885c0.42862,0.18521 0.88898,0.27781 1.3811,0.27781c0.53974,0 0.97894,-0.11906 1.3176,-0.35718c0.34395,-0.24341 0.51593,-0.55032 0.51593,-0.92073c0,-0.33866 -0.14552,-0.63234 -0.43655,-0.88104c-0.28574,-0.2487 -1.07154,-0.51857 -2.35739,-0.80961c-1.28585,-0.29633 -2.22245,-0.70907 -2.80982,-1.23822c-0.58736,-0.53445 -0.88104,-1.16943 -0.88104,-1.90496c0,-0.82548 0.35718,-1.55572 1.07154,-2.1907c0.71965,-0.63499 1.79648,-0.95248 3.23049,-0.95248c1.3176,0 2.36532,0.26722 3.14318,0.80167c0.78315,0.53445 1.17472,1.09006 1.17472,1.66684c0,0.30162 -0.10054,0.55826 -0.30162,0.76992c-0.19579,0.20637 -0.4683,0.30956 -0.81755,0.30956c-0.52386,0 -0.99746,-0.29897 -1.42078,-0.89692c-0.41803,-0.60324 -1.05037,-0.90486 -1.89702,-0.90486c-0.45507,0 -0.85459,0.0926 -1.19854,0.27781c-0.33866,0.18521 -0.50799,0.44978 -0.50799,0.79373zM458.04106,174.73755v-0.79373c0,-1.38639 0.28574,-2.31241 0.85723,-2.77807c0.57678,-0.46566 1.40226,-0.69849 2.47645,-0.69849c1.71975,0 2.57963,0.38628 2.57963,1.15885c0,0.23812 -0.08202,0.44978 -0.24606,0.63499c-0.16404,0.18521 -0.38099,0.27781 -0.65086,0.27781c-0.05291,0 -0.22754,-0.01852 -0.52386,-0.05556c-0.29103,-0.04233 -0.46037,-0.0635 -0.50799,-0.0635c-0.38099,0 -0.69055,0.10054 -0.92867,0.30162c-0.23283,0.19579 -0.34924,0.65086 -0.34924,1.36522v0.65086h0.68261c1.02127,0 1.5319,0.31749 1.5319,0.95248c0,0.30691 -0.09789,0.55032 -0.29368,0.73023c-0.19579,0.17991 -0.60853,0.26987 -1.23822,0.26987h-0.68261v6.58005c0,0.50799 -0.02117,0.89427 -0.0635,1.15885c-0.04233,0.25929 -0.16404,0.50534 -0.36512,0.73817c-0.19579,0.22754 -0.5027,0.34131 -0.92073,0.34131c-0.42862,0 -0.76198,-0.14023 -1.0001,-0.42068c-0.23812,-0.28045 -0.35718,-0.88633 -0.35718,-1.81765v-6.58005h-0.75405c-0.82548,0 -1.23822,-0.33337 -1.23822,-1.0001c0,-0.63499 0.45507,-0.95248 1.36522,-0.95248zM464.31552,181.48428v-4.75446c0,-0.58736 0.02381,-1.01069 0.07144,-1.26997c0.04762,-0.26458 0.18785,-0.48947 0.42068,-0.67467c0.23812,-0.1905 0.52122,-0.28574 0.84929,-0.28574c0.31749,0 0.5953,0.08996 0.83342,0.26987c0.24341,0.17462 0.39422,0.40745 0.45243,0.69849c0.05821,0.29103 0.08731,0.73023 0.08731,1.3176v3.72261c0,1.22235 0.18785,2.0055 0.56355,2.34945c0.38099,0.34395 0.80167,0.51593 1.26204,0.51593c0.51857,0 0.97365,-0.14552 1.36522,-0.43655c0.39687,-0.29633 0.66674,-0.65086 0.80961,-1.0636c0.14287,-0.41274 0.21431,-1.22764 0.21431,-2.4447v-2.69869c0,-0.57678 0.02646,-1.00275 0.07937,-1.27791c0.05821,-0.27516 0.20637,-0.5027 0.44449,-0.68261c0.23812,-0.17991 0.51857,-0.26987 0.84136,-0.26987c0.3122,0 0.58736,0.08996 0.82548,0.26987c0.24341,0.17462 0.38893,0.39687 0.43655,0.66674c0.05291,0.26458 0.07937,0.69584 0.07937,1.29378v6.68323c0,0.55032 -0.02646,0.94983 -0.07937,1.19854c-0.05291,0.24341 -0.18521,0.45507 -0.39687,0.63499c-0.20637,0.17462 -0.4683,0.26193 -0.7858,0.26193c-0.87311,0 -1.29114,-0.6244 -1.2541,-1.87321c-0.91015,1.24881 -2.10604,1.87321 -3.58767,1.87321c-0.97894,0 -1.81236,-0.29103 -2.50026,-0.87311c-0.6879,-0.58736 -1.03185,-1.63774 -1.03185,-3.15112zM479.38256,172.69766v10.57252c0,0.65086 -0.03175,1.09535 -0.09525,1.33347c-0.05821,0.23283 -0.20902,0.44184 -0.45243,0.62705c-0.24341,0.18521 -0.50799,0.27781 -0.79373,0.27781c-0.29103,0 -0.56355,-0.08996 -0.81755,-0.26987c-0.2487,-0.18521 -0.4048,-0.39951 -0.4683,-0.64292c-0.05821,-0.24341 -0.08731,-0.68526 -0.08731,-1.32553v-10.57252c0,-0.66674 0.03175,-1.11652 0.09525,-1.34935c0.0635,-0.23812 0.21431,-0.44449 0.45243,-0.61911c0.24341,-0.17462 0.50799,-0.26193 0.79373,-0.26193c0.33337,0 0.61911,0.09525 0.85723,0.28574c0.24341,0.18521 0.38893,0.40745 0.43655,0.66674c0.05291,0.25399 0.07937,0.67996 0.07937,1.27791zM484.88908,172.69766v10.57252c0,0.65086 -0.03175,1.09535 -0.09525,1.33347c-0.05821,0.23283 -0.20902,0.44184 -0.45243,0.62705c-0.24341,0.18521 -0.50799,0.27781 -0.79373,0.27781c-0.29103,0 -0.56355,-0.08996 -0.81755,-0.26987c-0.2487,-0.18521 -0.4048,-0.39951 -0.4683,-0.64292c-0.05821,-0.24341 -0.08731,-0.68526 -0.08731,-1.32553v-10.57252c0,-0.66674 0.03175,-1.11652 0.09525,-1.34935c0.0635,-0.23812 0.21431,-0.44449 0.45243,-0.61911c0.24341,-0.17462 0.50799,-0.26193 0.79373,-0.26193c0.33337,0 0.61911,0.09525 0.85723,0.28574c0.24341,0.18521 0.38893,0.40745 0.43655,0.66674c0.05291,0.25399 0.07937,0.67996 0.07937,1.27791zM491.09409,174.08669l-0.42068,4.89733c-0.06879,0.71436 -0.19314,1.19325 -0.37305,1.43666c-0.17462,0.24341 -0.40216,0.36512 -0.68261,0.36512c-0.27516,0 -0.5027,-0.12435 -0.68261,-0.37305c-0.17462,-0.2487 -0.28839,-0.72494 -0.34131,-1.42872l-0.33337,-4.77827c-0.04233,-0.40745 -0.0635,-0.98952 -0.0635,-1.74621c0,-1.32818 0.50799,-1.99227 1.52397,-1.99227c0.44978,0 0.79638,0.15346 1.03979,0.46037c0.2487,0.30162 0.37305,0.86517 0.37305,1.69065c0,0.67203 -0.01323,1.1615 -0.03969,1.46841zM489.68125,182.52407c0.40216,0 0.74876,0.14552 1.03979,0.43655c0.29633,0.29103 0.44449,0.63763 0.44449,1.03979c0,0.41274 -0.14816,0.76727 -0.44449,1.0636c-0.29103,0.29633 -0.63763,0.44449 -1.03979,0.44449c-0.41803,0 -0.77521,-0.14552 -1.07154,-0.43655c-0.29103,-0.29633 -0.43655,-0.65351 -0.43655,-1.07154c0,-0.40216 0.14816,-0.74876 0.44449,-1.03979c0.29633,-0.29103 0.65086,-0.43655 1.0636,-0.43655z" fill="#cdcdcd" stroke="none" stroke-width="1" stroke-linecap="square"/></g></g></svg>