<svg version="1.1" xmlns="http://www.w3.org/2000/svg" xmlns:xlink="http://www.w3.org/1999/xlink" width="544.14561" height="243.27928" viewBox="0,0,544.14561,243.27928"><g transform="translate(31.95474,-50.63665)"><g data-paper-data="{&quot;isPaintingLayer&quot;:true}" fill-rule="nonzero" stroke-linecap="butt" stroke-linejoin="miter" stroke-miterlimit="10" stroke-dasharray="" stroke-dashoffset="0" style="mix-blend-mode: normal"><path d="M-26.70474,268.49919v-132.42472c0,0 15.34045,-4.31745 20.68107,0.17925c10.71836,9.02455 65.81893,9.43821 65.81893,9.43821c0,0 -12.49885,-14.78014 -20.20806,-22.1319c-7.65597,-7.30094 -25.88863,-21.82723 -25.88863,-21.82723c0,0 24.90753,11.35101 54.33607,13.48494c18.22214,1.32133 31.56109,-10.52026 49.65177,-9.20851c13.45869,0.97594 31.6352,22.40323 53.04491,22.55625c16.9158,0.12086 24.61867,4.58472 36.86017,5.26425c6.65312,0.36933 -10.06667,-9.22514 -19.94663,-13.13241c-9.87996,-3.90727 -17.93298,-1.75477 -29.75021,-6.52136c-11.20288,-4.51882 -19.09587,-18.65905 -19.09587,-18.65905c0,0 26.50864,10.57457 57.53691,14.13971c22.58703,2.59522 41.60793,19.01466 54.38124,20.35355c13.17232,1.38071 37.23386,-9.31465 61.81809,-8.44946c14.29634,0.50309 78.81874,10.63143 78.81874,10.63143c0,0 -27.50248,-16.24964 -38.40597,-27.83845c-8.12192,-8.63246 -15.65253,-20.06542 -15.65253,-20.06542c0,0 16.74203,15.24493 45.9979,21.45439c21.06721,4.47141 58.66991,31.38761 58.66991,31.38761c0,0 -9.37239,-19.13593 -11.15544,-31.94411c-0.88466,-6.35469 -0.42758,-14.93329 0.25761,-21.96482c0.69585,-7.14082 1.62696,-12.68606 1.62696,-12.68606c0,0 9.52702,24.93614 15.75068,35.61924c5.08977,8.73678 26.87838,28.26151 26.87838,28.26151c0,0 -7.30333,-13.84382 -10.37787,-28.15316c-3.44509,-16.03386 -6.60291,-32.65216 -4.50413,-31.03293c7.48858,5.77751 46.26549,68.31632 46.26549,68.31632l-19.40947,124.95292c0,0 -21.37131,1.9386 -29.8492,1.51392c-6.68298,-0.3348 -16.92658,-3.85729 -16.92658,-3.85729c0,0 -2.14146,3.22974 -3.434,6.88699c-1.26333,3.57457 -1.67099,7.55752 -2.29826,9.33238c-0.63095,1.78528 -1.41699,4.00936 -1.41699,4.00936c0,0 -5.72811,-1.21597 -13.85013,-10.92127c-5.19804,-6.2113 -8.31495,-16.98354 -8.31495,-16.98354c0,0 -57.19574,21.75648 -76.6994,19.79053c-12.2565,-1.23546 21.11779,-32.82289 11.20986,-32.18023c-24.39268,1.5822 -98.06367,27.87875 -129.48621,37.95278c-9.10534,2.91913 -10.03475,-0.62267 -4.7605,-3.15878c11.61129,-5.58319 30.79223,-15.16802 34.59661,-19.31392c4.06858,-4.43377 3.59093,-8.58231 3.59093,-8.58231c0,0 -38.07378,4.10646 -54.37043,7.77856c-19.99309,4.50502 -65.78155,18.74688 -65.78155,18.74688c0,0 4.06864,-7.03545 5.58263,-9.77659c1.48737,-2.69293 3.42286,-6.5281 3.42286,-6.5281l-23.90463,9.87453c0,0 14.18612,-10.59049 19.36398,-15.09039c4.19033,-3.64167 9.37221,-9.88317 9.37221,-9.88317c0,0 -95.94398,35.2333 -111.65328,40.83806c-5.43659,1.93968 -9.61684,-2.0349 -5.78569,-4.36538c5.028,-3.05852 12.5895,-7.526 20.67427,-11.83238c8.73904,-4.65493 27.33676,-10.13991 32.33077,-13.3343c10.5644,-6.75745 13.59243,-17.54914 13.59243,-17.54914c0,0 -26.00621,5.28426 -38.50428,9.19077c-13.1948,4.12431 -38.68776,14.9372 -38.68776,14.9372l4.54407,-24.41064z" fill="#cb2411" stroke="#000000" stroke-width="10.5"/><path d="M-26.70474,268.49919v-132.42472c0,0 15.34045,-4.31745 20.68107,0.17925c10.71836,9.02455 65.81893,9.43821 65.81893,9.43821c0,0 -12.49885,-14.78014 -20.20806,-22.1319c-7.65597,-7.30094 -25.88863,-21.82723 -25.88863,-21.82723c0,0 24.90753,11.35101 54.33607,13.48494c18.22214,1.32133 31.56109,-10.52026 49.65177,-9.20851c13.45869,0.97594 31.6352,22.40323 53.04491,22.55625c16.9158,0.12086 24.61867,4.58472 36.86017,5.26425c6.65312,0.36933 -10.06667,-9.22514 -19.94663,-13.13241c-9.87996,-3.90727 -17.93298,-1.75477 -29.75021,-6.52136c-11.20288,-4.51882 -19.09587,-18.65905 -19.09587,-18.65905c0,0 26.50864,10.57457 57.53691,14.13971c22.58703,2.59522 41.60793,19.01466 54.38124,20.35355c13.17232,1.38071 37.23386,-9.31465 61.81809,-8.44946c14.29634,0.50309 78.81874,10.63143 78.81874,10.63143c0,0 -27.50248,-16.24964 -38.40597,-27.83845c-8.12192,-8.63246 -15.65253,-20.06542 -15.65253,-20.06542c0,0 16.74203,15.24493 45.9979,21.45439c21.06721,4.47141 58.66991,31.38761 58.66991,31.38761c0,0 -9.37239,-19.13593 -11.15544,-31.94411c-0.88466,-6.35469 -0.42758,-14.93329 0.25761,-21.96482c0.69585,-7.14082 1.62696,-12.68606 1.62696,-12.68606c0,0 9.52702,24.93614 15.75068,35.61924c5.08977,8.73678 26.87838,28.26151 26.87838,28.26151c0,0 -7.30333,-13.84382 -10.37787,-28.15316c-3.44509,-16.03386 -6.60291,-32.65216 -4.50413,-31.03293c7.48858,5.77751 46.26549,68.31632 46.26549,68.31632l-19.40947,124.95292c0,0 -21.37131,1.9386 -29.8492,1.51392c-6.68298,-0.3348 -16.92658,-3.85729 -16.92658,-3.85729c0,0 -2.14146,3.22974 -3.434,6.88699c-1.26333,3.57457 -1.67099,7.55752 -2.29826,9.33238c-0.63095,1.78528 -1.41699,4.00936 -1.41699,4.00936c0,0 -5.72811,-1.21597 -13.85013,-10.92127c-5.19804,-6.2113 -8.31495,-16.98354 -8.31495,-16.98354c0,0 -57.19574,21.75648 -76.6994,19.79053c-12.2565,-1.23546 21.11779,-32.82289 11.20986,-32.18023c-24.39268,1.5822 -98.06367,27.87875 -129.48621,37.95278c-9.10534,2.91913 -10.03475,-0.62267 -4.7605,-3.15878c11.61129,-5.58319 30.79223,-15.16802 34.59661,-19.31392c4.06858,-4.43377 3.59093,-8.58231 3.59093,-8.58231c0,0 -38.07378,4.10646 -54.37043,7.77856c-19.99309,4.50502 -65.78155,18.74688 -65.78155,18.74688c0,0 4.06864,-7.03545 5.58263,-9.77659c1.48737,-2.69293 3.42286,-6.5281 3.42286,-6.5281l-23.90463,9.87453c0,0 14.18612,-10.59049 19.36398,-15.09039c4.19033,-3.64167 9.37221,-9.88317 9.37221,-9.88317c0,0 -95.94398,35.2333 -111.65328,40.83806c-5.43659,1.93968 -9.61684,-2.0349 -5.78569,-4.36538c5.028,-3.05852 12.5895,-7.526 20.67427,-11.83238c8.73904,-4.65493 27.33676,-10.13991 32.33077,-13.3343c10.5644,-6.75745 13.59243,-17.54914 13.59243,-17.54914c0,0 -26.00621,5.28426 -38.50428,9.19077c-13.1948,4.12431 -38.68776,14.9372 -38.68776,14.9372l4.54407,-24.41064z" fill="#cb2411" stroke="#95392c" stroke-width="4.5"/><path d="M-26.70475,268.49919v-132.42472c0,0 15.34045,-4.31745 20.68107,0.17925c10.71836,9.02455 65.81893,9.43821 65.81893,9.43821c0,0 -12.49885,-14.78014 -20.20806,-22.1319c-7.65597,-7.30094 -25.88863,-21.82723 -25.88863,-21.82723c0,0 24.90753,11.35101 54.33607,13.48494c18.22214,1.32133 31.56109,-10.52026 49.65177,-9.20851c13.45869,0.97594 31.6352,22.40323 53.04491,22.55625c16.9158,0.12086 24.61867,4.58472 36.86017,5.26425c6.65312,0.36933 -10.06667,-9.22514 -19.94663,-13.13241c-9.87996,-3.90727 -17.93298,-1.75477 -29.75021,-6.52136c-11.20288,-4.51882 -19.09587,-18.65905 -19.09587,-18.65905c0,0 26.50864,10.57457 57.53691,14.13971c22.58703,2.59522 41.60793,19.01466 54.38124,20.35355c13.17232,1.38071 37.23386,-9.31465 61.81809,-8.44946c14.29634,0.50309 78.81874,10.63143 78.81874,10.63143c0,0 -27.50248,-16.24964 -38.40597,-27.83845c-8.12192,-8.63246 -15.65253,-20.06542 -15.65253,-20.06542c0,0 16.74203,15.24493 45.9979,21.45439c21.06721,4.47141 58.66991,31.38761 58.66991,31.38761c0,0 -9.37239,-19.13593 -11.15544,-31.94411c-0.88466,-6.35469 -0.42758,-14.93329 0.25761,-21.96482c0.69585,-7.14082 1.62696,-12.68606 1.62696,-12.68606c0,0 9.52702,24.93614 15.75068,35.61924c5.08977,8.73678 26.87838,28.26151 26.87838,28.26151c0,0 -7.30333,-13.84382 -10.37787,-28.15316c-3.44509,-16.03386 -6.60291,-32.65216 -4.50413,-31.03293c7.48858,5.77751 46.26549,68.31632 46.26549,68.31632l-19.40947,124.95292c0,0 -21.37131,1.9386 -29.84921,1.51392c-6.68298,-0.3348 -16.92658,-3.85729 -16.92658,-3.85729c0,0 -2.14146,3.22974 -3.434,6.88699c-1.26333,3.57457 -1.67099,7.55752 -2.29826,9.33238c-0.63096,1.78528 -1.41699,4.00936 -1.41699,4.00936c0,0 -5.7281,-1.21597 -13.85013,-10.92127c-5.19803,-6.2113 -8.31495,-16.98354 -8.31495,-16.98354c0,0 -57.19574,21.75648 -76.6994,19.79053c-12.2565,-1.23546 21.11779,-32.82289 11.20986,-32.18023c-24.39268,1.5822 -98.06367,27.87875 -129.48621,37.95278c-9.10534,2.91913 -10.03475,-0.62267 -4.7605,-3.15878c11.61129,-5.58319 30.79223,-15.16802 34.59661,-19.31392c4.06858,-4.43377 3.59093,-8.58231 3.59093,-8.58231c0,0 -38.07378,4.10646 -54.37043,7.77856c-19.99309,4.50502 -65.78155,18.74688 -65.78155,18.74688c0,0 4.06864,-7.03545 5.58263,-9.77659c1.48737,-2.69293 3.42286,-6.5281 3.42286,-6.5281l-23.90463,9.87453c0,0 14.18612,-10.59049 19.36398,-15.09039c4.19033,-3.64167 9.37221,-9.88317 9.37221,-9.88317c0,0 -95.94398,35.2333 -111.65328,40.83806c-5.43659,1.93968 -9.61684,-2.0349 -5.78569,-4.36538c5.028,-3.05852 12.5895,-7.526 20.67427,-11.83238c8.73904,-4.6549 27.33676,-10.13991 32.33077,-13.3343c10.5644,-6.75745 13.59243,-17.54914 13.59243,-17.54914c0,0 -26.00621,5.28426 -38.50428,9.19077c-13.1948,4.12431 -38.68776,14.9372 -38.68776,14.9372l4.54407,-24.41064z" fill="#cb2411" stroke="none" stroke-width="0"/><path d="M-7.00301,236.51867l-0.40333,-62.4953c0,0 -1.86293,-6.06733 1.50403,-6.77701c7.77421,-1.6386 24.26201,-0.31814 39.50757,-1.54383c14.35276,-1.15392 27.55392,-4.89891 32.92945,-5.03922c6.77068,-0.17664 15.16608,0.62294 15.16608,0.62294c0,0 -0.82326,-3.43458 -1.77843,-5.22564c-1.04357,-1.95687 -4.24131,-6.06223 -4.24131,-6.06223c0,0 6.27875,-0.10098 9.09455,0.18919c2.38535,0.24579 8.82805,2.42083 8.82805,2.42083l-6.22257,-11.68183c0,0 53.80655,22.01781 76.35854,21.53026c1.22083,-0.02637 -8.91545,-3.02196 -17.14674,-7.428c-3.28999,-1.76105 -8.87212,-4.68504 -10.97274,-6.65695c-2.59415,-2.43519 -1.2068,-3.71242 0.45019,-3.07692c0.82778,0.31745 28.65692,15.19371 55.7635,22.14103c11.30377,2.89713 22.46764,1.69062 31.02295,1.55114c13.06507,-0.21295 20.94255,4.87614 29.83742,4.00646c1.32849,-0.1299 -6.16488,-2.99172 -16.24772,-5.50375c-6.88492,-1.71529 -15.43126,-2.81919 -21.41167,-4.54514c-2.60374,-0.75146 -4.77755,-1.68955 -6.42755,-2.52815c-2.30926,-1.17371 -5.12051,-2.04769 -3.0871,-2.24819c3.11291,-0.30695 28.78016,-1.05193 43.10977,-2.46503c14.34514,-1.41456 73.49555,9.47701 93.54084,10.45881c17.81517,0.87257 43.10948,0.70346 43.10948,0.70346c0,0 -42.35495,-9.48399 -37.53513,-11.5904c0.6174,-0.26983 4.05406,-0.5572 2.70103,-2.15603c-2.18335,-2.57995 -8.51674,-3.75388 -13.47172,-7.60027c-3.63552,-2.82211 -6.97543,-6.25947 -9.41764,-9.00627c-2.47852,-2.78763 -1.80347,-4.84553 1.01641,-4.82228c4.60881,0.03803 62.43065,33.17818 97.46675,28.89202c10.38517,-1.27049 -12.85804,-13.04312 -12.85804,-13.04312c0,0 28.54477,6.31819 41.68301,7.4255c11.57637,0.97569 33.05542,-1.12648 33.05542,-1.12648l-0.00877,67.91103c0,0 -36.36998,4.93809 -49.59457,8.14397c-19.06824,4.62251 -64.84345,18.41101 -64.84345,18.41101c0,0 8.74033,-10.36818 16.33316,-15.66552c7.59283,-5.2973 20.63112,-10.12351 20.63112,-10.12351c0,0 -29.71824,3.21958 -45.58323,5.33327c-17.32999,2.30891 -54.39038,7.98624 -54.39038,7.98624c0,0 2.46946,-4.5784 3.38084,-6.69709c0.82307,-1.91337 1.84958,-5.46208 1.84958,-5.46208c0,0 -40.76027,3.4813 -75.20017,9.19209c-33.78352,5.60198 -76.18328,12.69321 -83.86204,12.94327c-6.82569,0.22224 0.7142,-12.17661 0.7142,-12.17661l-30.89624,7.85738c0,0 3.34565,-5.26609 3.96167,-7.67685c0.54858,-2.14684 -0.44435,-6.08794 -0.44435,-6.08794c0,0 -44.09228,-0.32169 -72.15842,1.47975c-28.06613,1.80143 -64.81229,7.31176 -64.81229,7.31176z" data-paper-data="{&quot;index&quot;:null}" fill="#eec0b1" stroke="none" stroke-width="0"/></g></g></svg>