<svg version="1.1" xmlns="http://www.w3.org/2000/svg" xmlns:xlink="http://www.w3.org/1999/xlink" width="127.00172" height="10.26461" viewBox="0,0,127.00172,10.26461"><g transform="translate(-176.49914,-174.8677)"><g data-paper-data="{&quot;isPaintingLayer&quot;:true}" fill="#f1ff00" fill-rule="nonzero" stroke="none" stroke-linecap="square" stroke-linejoin="miter" stroke-miterlimit="10" stroke-dasharray="" stroke-dashoffset="0" style="mix-blend-mode: normal"><path d="M178.13156,176.91037c0,0.22222 0.09401,0.41594 0.28204,0.58118c0.19373,0.16523 0.68373,0.34472 1.47003,0.53845c0.792,0.18803 1.37887,0.3846 1.76062,0.58972c0.38175,0.20512 0.65525,0.47576 0.82048,0.81193c0.17094,0.33617 0.2564,0.68659 0.2564,1.05125c0,0.72932 -0.27635,1.32758 -0.82903,1.7948c-0.55268,0.46152 -1.30764,0.69228 -2.26487,0.69228c-1.04839,0 -1.83184,-0.2507 -2.35034,-0.75211c-0.5185,-0.5071 -0.77775,-1.02845 -0.77775,-1.56404c0,-0.17663 0.06553,-0.33616 0.19658,-0.47861c0.13674,-0.14245 0.31338,-0.21367 0.5299,-0.21367c0.19373,0 0.33901,0.05983 0.43588,0.17948c0.09687,0.11965 0.21081,0.33617 0.34186,0.64955c0.29628,0.67234 0.82048,1.00851 1.57259,1.00851c0.44443,0 0.82048,-0.10256 1.12816,-0.30768c0.30768,-0.20512 0.46153,-0.48432 0.46153,-0.83758c0,-0.27349 -0.10542,-0.5071 -0.31623,-0.70083c-0.21081,-0.19942 -0.69798,-0.38746 -1.46148,-0.56409c-0.7578,-0.17663 -1.29055,-0.34472 -1.59823,-0.50426c-0.30199,-0.15954 -0.56693,-0.39029 -0.79484,-0.69228c-0.22791,-0.30199 -0.34187,-0.68089 -0.34187,-1.13671c0,-0.66664 0.2621,-1.19654 0.7863,-1.58969c0.5299,-0.39884 1.24782,-0.59827 2.15377,-0.59827c0.92874,0 1.62672,0.21367 2.09394,0.64101c0.47292,0.42164 0.70938,0.84612 0.70938,1.27345c0,0.17663 -0.06838,0.34472 -0.20512,0.50426c-0.13674,0.15384 -0.31053,0.23076 -0.52134,0.23076c-0.19373,0 -0.34187,-0.05413 -0.44443,-0.16239c-0.09687,-0.10826 -0.20512,-0.29059 -0.32477,-0.54699c-0.27349,-0.54129 -0.74071,-0.81194 -1.40166,-0.81194c-0.38745,0 -0.71223,0.08547 -0.97433,0.2564c-0.2621,0.16523 -0.39314,0.3846 -0.39314,0.65809zM184.20612,177.16678v-0.8803c0,-0.35896 0.01425,-0.60112 0.04274,-0.72647c0.03418,-0.13105 0.11395,-0.24785 0.2393,-0.35041c0.12535,-0.10256 0.2735,-0.15384 0.44443,-0.15384c0.15954,0 0.30198,0.04558 0.42733,0.13674c0.12535,0.09116 0.20797,0.20513 0.24785,0.34187c0.03988,0.13105 0.05983,0.34472 0.05983,0.641v0.99141h0.28204c0.35896,0 0.59542,0.04274 0.70937,0.12821c0.11965,0.08546 0.17948,0.21367 0.17948,0.3846c0,0.35896 -0.29913,0.53844 -0.8974,0.53844h-0.2735v2.69221c0,0.36466 0.02564,0.61251 0.07692,0.74356c0.05128,0.13105 0.18802,0.19657 0.41024,0.19657c0.10825,0 0.22791,-0.01425 0.35896,-0.04274c0.13675,-0.03419 0.23646,-0.05128 0.29914,-0.05128c0.14814,0 0.26779,0.04843 0.35896,0.1453c0.09117,0.09687 0.13675,0.21367 0.13675,0.35041c0,0.47861 -0.50426,0.71792 -1.51277,0.71792c-0.49001,0 -0.84898,-0.09116 -1.07689,-0.27349c-0.22791,-0.18233 -0.37036,-0.40169 -0.42733,-0.6581c-0.05697,-0.2621 -0.08546,-0.60396 -0.08546,-1.0256v-2.79477h-0.18803c-0.43303,0 -0.64955,-0.17663 -0.64955,-0.52989c0,-0.34757 0.22791,-0.52135 0.68373,-0.52135zM190.38644,177.03858c0.90595,0 1.61818,0.2792 2.13668,0.83758c0.5185,0.55268 0.77775,1.26206 0.77775,2.12812c0,0.86606 -0.2621,1.57829 -0.7863,2.13667c-0.5242,0.55268 -1.21933,0.82903 -2.08539,0.82903c-0.94013,0 -1.66661,-0.28204 -2.17941,-0.84612c-0.5128,-0.56408 -0.7692,-1.27061 -0.7692,-2.11958c0,-0.86606 0.25925,-1.57544 0.77775,-2.12812c0.5185,-0.55838 1.22787,-0.83758 2.12812,-0.83758zM190.38644,181.88455c0.44443,0 0.79485,-0.16523 1.05125,-0.4957c0.2564,-0.33617 0.3846,-0.7977 0.3846,-1.38457c0,-0.59257 -0.1282,-1.05409 -0.3846,-1.38456c-0.2564,-0.33617 -0.60682,-0.50426 -1.05125,-0.50426c-0.43303,0 -0.78059,0.16808 -1.04269,0.50426c-0.2564,0.33617 -0.3846,0.79769 -0.3846,1.38456c0,0.58687 0.1282,1.04839 0.3846,1.38457c0.2564,0.33047 0.60396,0.4957 1.04269,0.4957zM194.43864,181.75635v-3.7349c0,-0.65525 0.23931,-0.98287 0.71793,-0.98287c0.46152,0 0.69798,0.30199 0.70937,0.90595c0.30199,-0.60396 0.72077,-0.90595 1.25636,-0.90595c0.27919,0 0.56978,0.07407 0.87176,0.22222c0.30199,0.14814 0.45298,0.35041 0.45298,0.60681c0,0.17663 -0.06268,0.32478 -0.18803,0.44443c-0.11965,0.11396 -0.24786,0.17093 -0.3846,0.17093c-0.07977,0 -0.22222,-0.03134 -0.42733,-0.09401c-0.20512,-0.06268 -0.37605,-0.09402 -0.5128,-0.09402c-0.34757,0 -0.60681,0.17663 -0.77775,0.5299c-0.17094,0.34757 -0.2564,1.0256 -0.2564,2.03411v0.84612c0,0.37036 -0.0171,0.62106 -0.05128,0.75211c-0.02849,0.13105 -0.10826,0.2507 -0.23931,0.35896c-0.12535,0.10256 -0.27065,0.15384 -0.43588,0.15384c-0.16523,0 -0.31337,-0.04843 -0.44442,-0.1453c-0.12535,-0.09687 -0.20513,-0.20797 -0.23931,-0.33332c-0.03418,-0.13105 -0.05128,-0.37606 -0.05128,-0.73502zM202.64988,182.14095c-0.68943,0.55268 -1.36747,0.82903 -2.03411,0.82903c-0.63245,0 -1.11961,-0.15954 -1.46148,-0.47861c-0.33617,-0.32477 -0.50426,-0.71792 -0.50426,-1.17944c0,-0.39884 0.11396,-0.71793 0.34186,-0.95723c0.23361,-0.245 0.48431,-0.41594 0.75211,-0.5128c0.27349,-0.09687 0.71507,-0.20797 1.32474,-0.33332c0.60967,-0.12535 1.10253,-0.24216 1.47858,-0.35041c-0.0057,-0.44443 -0.09401,-0.74356 -0.26494,-0.8974c-0.17094,-0.15384 -0.43018,-0.23076 -0.77775,-0.23076c-0.66094,0 -1.09398,0.18517 -1.2991,0.55553c-0.11396,0.21081 -0.21651,0.36181 -0.30768,0.45298c-0.08546,0.08546 -0.21082,0.1282 -0.37606,0.1282c-0.15384,0 -0.29344,-0.04843 -0.41878,-0.1453c-0.12535,-0.10256 -0.18803,-0.23646 -0.18803,-0.40169c0,-0.37606 0.20512,-0.73217 0.61536,-1.06834c0.41024,-0.34187 1.05409,-0.5128 1.93155,-0.5128c0.88886,0 1.5384,0.15384 1.94864,0.46152c0.41594,0.30768 0.61251,0.92873 0.58972,1.86317l-0.03418,1.36748c-0.01139,0.42733 0.03133,0.7749 0.1282,1.0427c0.10256,0.2621 0.15384,0.46437 0.15384,0.60681c0,0.15384 -0.06837,0.29059 -0.20512,0.41024c-0.13105,0.11965 -0.28204,0.17948 -0.45298,0.17948c-0.29628,0 -0.60966,-0.27634 -0.94013,-0.82903zM202.55587,180.02992c-0.21652,0.08546 -0.57547,0.17948 -1.07688,0.28204c-0.50141,0.09687 -0.85752,0.21082 -1.06834,0.34187c-0.20512,0.12535 -0.30768,0.31338 -0.30768,0.56408c0,0.20512 0.08262,0.3903 0.24786,0.55554c0.16523,0.15954 0.40169,0.23931 0.70937,0.23931c0.31907,0 0.61536,-0.08832 0.88886,-0.26495c0.27919,-0.17663 0.45013,-0.3846 0.51281,-0.62391c0.06267,-0.245 0.09401,-0.60967 0.09401,-1.09398zM209.32271,178.03v-0.19658c0,-0.2621 0.06267,-0.45867 0.18802,-0.58972c0.13105,-0.13674 0.29628,-0.20512 0.49571,-0.20512c0.22222,0 0.39315,0.07692 0.5128,0.23076c0.11965,0.15384 0.17948,0.48716 0.17948,0.99996v3.91438c0,1.16235 -0.245,1.94295 -0.73501,2.34179c-0.49001,0.40455 -1.19653,0.60682 -2.11958,0.60682c-0.83188,0 -1.48143,-0.15384 -1.94865,-0.46152c-0.46722,-0.30768 -0.70083,-0.63245 -0.70083,-0.97432c0,-0.18233 0.05983,-0.33048 0.17948,-0.44443c0.12535,-0.11396 0.2735,-0.17093 0.44443,-0.17093c0.15384,0 0.27349,0.03704 0.35896,0.11111c0.09117,0.07407 0.245,0.24786 0.46152,0.52135c0.22222,0.27349 0.58973,0.41024 1.10253,0.41024c0.28489,0 0.54984,-0.04559 0.79484,-0.13675c0.24501,-0.08546 0.42449,-0.24215 0.53844,-0.47006c0.11965,-0.22222 0.17378,-0.77205 0.16239,-1.64951c-0.44443,0.64385 -1.05125,0.96578 -1.82045,0.96578c-0.74641,0 -1.33613,-0.27919 -1.76916,-0.83757c-0.43303,-0.55838 -0.64955,-1.27061 -0.64955,-2.13668c0,-0.86606 0.22222,-1.55265 0.66665,-2.05975c0.44443,-0.5071 1.02275,-0.76065 1.73497,-0.76065c0.7806,0 1.4216,0.33048 1.92301,0.99142zM206.47666,179.97864c0,0.56408 0.1225,0.99426 0.36751,1.29055c0.24501,0.29629 0.58403,0.44442 1.01706,0.44442c0.37605,0 0.69798,-0.14244 0.96577,-0.42733c0.27349,-0.29059 0.41024,-0.72362 0.41024,-1.2991c0,-0.56408 -0.12535,-1.01136 -0.37605,-1.34183c-0.2507,-0.33047 -0.58972,-0.49571 -1.01705,-0.49571c-0.41594,0 -0.74926,0.15669 -0.99997,0.47007c-0.24501,0.30768 -0.36751,0.76065 -0.36751,1.35892zM215.95601,180.36324h-2.86314c0.01709,0.54129 0.16523,0.94868 0.44442,1.22218c0.28489,0.27349 0.62676,0.41025 1.0256,0.41025c0.48431,0 0.94298,-0.21367 1.37601,-0.64101c0.17663,-0.17663 0.30484,-0.28489 0.38461,-0.32478c0.08546,-0.04558 0.17948,-0.06837 0.28204,-0.06837c0.13105,0 0.24215,0.04273 0.33332,0.1282c0.09686,0.07977 0.1453,0.17948 0.1453,0.29914c0,0.33047 -0.22507,0.67804 -0.67519,1.0427c-0.44443,0.35896 -1.05125,0.53844 -1.82045,0.53844c-0.97432,0 -1.71504,-0.27634 -2.22214,-0.82903c-0.50141,-0.55268 -0.75211,-1.2649 -0.75211,-2.13667c0,-0.88316 0.2507,-1.59823 0.75211,-2.14522c0.5071,-0.54699 1.21078,-0.82048 2.11103,-0.82048c0.85467,0 1.51562,0.25925 1.98284,0.77775c0.46722,0.5128 0.70083,1.07119 0.70083,1.67515c0,0.2678 -0.07692,0.48147 -0.23076,0.64101c-0.15384,0.15384 -0.47861,0.23076 -0.97432,0.23076zM213.09287,179.53421h2.65802c-0.01709,-0.48431 -0.15099,-0.85467 -0.4017,-1.11107c-0.2507,-0.2564 -0.55838,-0.3846 -0.92304,-0.3846c-0.7749,0 -1.21932,0.49855 -1.33328,1.49567zM219.35439,177.03858c0.21652,0 0.4017,0.07977 0.55554,0.23931c0.15954,0.15384 0.23931,0.33902 0.23931,0.55553c0,0.22222 -0.07977,0.41309 -0.23931,0.57263c-0.15384,0.15954 -0.33902,0.23931 -0.55554,0.23931c-0.22222,0 -0.41309,-0.07977 -0.57263,-0.23931c-0.15954,-0.15954 -0.23931,-0.35041 -0.23931,-0.57263c0,-0.21651 0.07977,-0.40169 0.23931,-0.55553c0.15954,-0.15954 0.35041,-0.23931 0.57263,-0.23931zM219.35439,181.35466c0.21652,0 0.4017,0.07977 0.55554,0.23931c0.15954,0.15384 0.23931,0.34187 0.23931,0.56408c0,0.21651 -0.07977,0.40739 -0.23931,0.57263c-0.15384,0.15954 -0.33902,0.23931 -0.55554,0.23931c-0.22222,0 -0.41309,-0.07977 -0.57263,-0.23931c-0.15954,-0.15954 -0.23931,-0.35041 -0.23931,-0.57263c0,-0.22222 0.07977,-0.41024 0.23931,-0.56408c0.15954,-0.15954 0.35041,-0.23931 0.57263,-0.23931zM226.70989,176.22664v1.99992h2.35889c0.27919,0 0.47007,0.01425 0.57263,0.04274c0.10825,0.02849 0.20227,0.09686 0.28204,0.20512c0.08546,0.10826 0.1282,0.22507 0.1282,0.35041c0,0.16523 -0.06268,0.31053 -0.18803,0.43588c-0.11965,0.12535 -0.3846,0.18803 -0.79484,0.18803h-2.35889v2.20505c0,0.31907 -0.01424,0.55553 -0.04273,0.70937c-0.02279,0.15384 -0.09401,0.29344 -0.21367,0.41879c-0.11396,0.12535 -0.29344,0.18802 -0.53844,0.18802c-0.23931,0 -0.41879,-0.06267 -0.53844,-0.18802c-0.11396,-0.12535 -0.18517,-0.2678 -0.21366,-0.42733c-0.02279,-0.16523 -0.03419,-0.39884 -0.03419,-0.70083v-5.32459c0,-0.56978 0.03989,-0.89455 0.11966,-0.97432c0.08546,-0.07977 0.17663,-0.15669 0.27349,-0.23076c0.10256,-0.07977 0.41309,-0.11965 0.93159,-0.11965h3.11954c0.27349,0 0.46722,0.01139 0.58118,0.03418c0.11396,0.0171 0.21367,0.07977 0.29913,0.18803c0.09117,0.10826 0.13675,0.23646 0.13675,0.3846c0,0.14814 -0.04558,0.27634 -0.13675,0.3846c-0.08546,0.10826 -0.18518,0.17379 -0.29913,0.19657c-0.11396,0.02279 -0.30768,0.03419 -0.58118,0.03419zM232.25883,174.93609c0.19373,0 0.35896,0.07122 0.49571,0.21367c0.13675,0.14245 0.20512,0.30768 0.20512,0.4957c0,0.19373 -0.06837,0.36181 -0.20512,0.50426c-0.13675,0.13674 -0.30198,0.20512 -0.49571,0.20512c-0.19373,0 -0.36181,-0.06838 -0.50426,-0.20512c-0.13675,-0.14245 -0.20512,-0.31053 -0.20512,-0.50426c0,-0.19373 0.06838,-0.35896 0.20512,-0.4957c0.14244,-0.14245 0.31053,-0.21367 0.50426,-0.21367zM232.98529,178.22657v3.52979c0,0.35326 -0.0171,0.59542 -0.05128,0.72647c-0.02849,0.12535 -0.1111,0.2393 -0.24785,0.34186c-0.13105,0.09687 -0.27349,0.1453 -0.42733,0.1453c-0.15384,0 -0.29914,-0.04843 -0.43588,-0.1453c-0.13675,-0.10256 -0.22222,-0.21936 -0.2564,-0.35041c-0.02849,-0.13105 -0.04273,-0.37036 -0.04273,-0.71793v-3.52123c0,-0.31907 0.0114,-0.54414 0.03419,-0.67519c0.02849,-0.13674 0.10825,-0.2564 0.23931,-0.35896c0.13105,-0.10826 0.28204,-0.16239 0.45297,-0.16239c0.17094,0 0.31908,0.04843 0.44443,0.1453c0.12535,0.09116 0.20512,0.21081 0.23931,0.35896c0.03418,0.14245 0.05128,0.37035 0.05128,0.68373zM236.58239,180.81622l-1.06834,1.54695c-0.19373,0.2678 -0.34756,0.43588 -0.46152,0.50426c-0.11396,0.06838 -0.23646,0.10256 -0.36751,0.10256c-0.18233,0 -0.33902,-0.05698 -0.47007,-0.17093c-0.12535,-0.11396 -0.18803,-0.245 -0.18803,-0.39315c0,-0.16523 0.09971,-0.38745 0.29913,-0.66664l1.32474,-1.88882l-1.1709,-1.58114c-0.20512,-0.2678 -0.30768,-0.48716 -0.30768,-0.6581c0,-0.16523 0.05983,-0.30199 0.17948,-0.41024c0.12535,-0.10826 0.28774,-0.16239 0.48716,-0.16239c0.17094,0 0.31053,0.04559 0.41878,0.13675c0.10825,0.09116 0.23931,0.245 0.39315,0.46152l0.93159,1.29055l0.93158,-1.29055c0.19373,-0.27349 0.34757,-0.44158 0.46152,-0.50426c0.11396,-0.06268 0.23646,-0.09401 0.36751,-0.09401c0.18802,0 0.34471,0.05413 0.47006,0.16239c0.12535,0.10826 0.18803,0.23646 0.18803,0.3846c0,0.17093 -0.10541,0.39885 -0.31623,0.68374l-1.1709,1.58114l1.30765,1.88882c0.21652,0.29629 0.32478,0.51565 0.32478,0.6581c0,0.15954 -0.06552,0.29628 -0.19657,0.41024c-0.13105,0.10826 -0.27634,0.16239 -0.43588,0.16239c-0.29628,0 -0.58402,-0.20227 -0.86322,-0.60681zM247.82022,176.90183l-1.282,4.70923c-0.13105,0.48431 -0.26779,0.83188 -0.41024,1.0427c-0.13675,0.21081 -0.37606,0.31623 -0.71793,0.31623c-0.34757,0 -0.58687,-0.10256 -0.71792,-0.30768c-0.13105,-0.21081 -0.2621,-0.57832 -0.39315,-1.10252l-1.29909,-5.2733c-0.07977,-0.23931 -0.11966,-0.47862 -0.11966,-0.71793c0,-0.17663 0.07123,-0.33617 0.21367,-0.47861c0.14244,-0.14814 0.31623,-0.22222 0.52134,-0.22222c0.27349,0 0.45867,0.08262 0.55553,0.24785c0.09686,0.15954 0.19373,0.43873 0.29059,0.83758l1.03415,4.57248l1.14526,-4.28189c0.15384,-0.58687 0.31622,-0.96293 0.48716,-1.12817c0.17094,-0.16523 0.4017,-0.24785 0.69228,-0.24785c0.28489,0 0.50995,0.07977 0.67518,0.23931c0.16523,0.15954 0.33048,0.53844 0.49571,1.13671l1.14526,4.28189l1.03415,-4.57248c0.09116,-0.44443 0.19373,-0.73502 0.30768,-0.87176c0.11396,-0.14245 0.29059,-0.21367 0.52989,-0.21367c0.21081,0 0.38745,0.07407 0.52989,0.22222c0.14245,0.14245 0.21367,0.30483 0.21367,0.48717c0,0.14814 -0.03988,0.3846 -0.11965,0.70937l-1.30765,5.2733c-0.12535,0.5185 -0.25355,0.88316 -0.3846,1.09398c-0.13105,0.21081 -0.37035,0.31623 -0.71792,0.31623c-0.245,0 -0.45583,-0.07122 -0.63245,-0.21366c-0.17093,-0.14814 -0.33902,-0.5299 -0.50426,-1.14526zM254.43216,174.93609c0.19373,0 0.35896,0.07122 0.4957,0.21367c0.13674,0.14245 0.20512,0.30768 0.20512,0.4957c0,0.19373 -0.06838,0.36181 -0.20512,0.50426c-0.13674,0.13674 -0.30198,0.20512 -0.4957,0.20512c-0.19373,0 -0.36181,-0.06838 -0.50426,-0.20512c-0.13674,-0.14245 -0.20513,-0.31053 -0.20513,-0.50426c0,-0.19373 0.06838,-0.35896 0.20513,-0.4957c0.14245,-0.14245 0.31053,-0.21367 0.50426,-0.21367zM255.15862,178.22657v3.52979c0,0.35326 -0.01709,0.59542 -0.05128,0.72647c-0.02849,0.12535 -0.11111,0.2393 -0.24786,0.34186c-0.13105,0.09687 -0.27349,0.1453 -0.42733,0.1453c-0.15384,0 -0.29914,-0.04843 -0.43589,-0.1453c-0.13674,-0.10256 -0.22221,-0.21936 -0.2564,-0.35041c-0.02849,-0.13105 -0.04274,-0.37036 -0.04274,-0.71793v-3.52123c0,-0.31907 0.0114,-0.54414 0.03419,-0.67519c0.02849,-0.13674 0.10826,-0.2564 0.23931,-0.35896c0.13105,-0.10826 0.28204,-0.16239 0.45297,-0.16239c0.17093,0 0.31908,0.04843 0.44443,0.1453c0.12535,0.09116 0.20512,0.21081 0.23931,0.35896c0.03419,0.14245 0.05128,0.37035 0.05128,0.68373zM256.65323,181.75635v-3.7349c0,-0.65525 0.23931,-0.98287 0.71792,-0.98287c0.46152,0 0.69798,0.30199 0.70937,0.90595c0.30199,-0.60396 0.72078,-0.90595 1.25637,-0.90595c0.27919,0 0.56977,0.07407 0.87176,0.22222c0.30199,0.14814 0.45298,0.35041 0.45298,0.60681c0,0.17663 -0.06268,0.32478 -0.18803,0.44443c-0.11965,0.11396 -0.24786,0.17093 -0.3846,0.17093c-0.07977,0 -0.22222,-0.03134 -0.42733,-0.09401c-0.20512,-0.06268 -0.37606,-0.09402 -0.5128,-0.09402c-0.34757,0 -0.60681,0.17663 -0.77775,0.5299c-0.17093,0.34757 -0.25641,1.0256 -0.25641,2.03411v0.84612c0,0.37036 -0.01709,0.62106 -0.05128,0.75211c-0.02849,0.13105 -0.10826,0.2507 -0.23931,0.35896c-0.12535,0.10256 -0.27065,0.15384 -0.43588,0.15384c-0.16523,0 -0.31338,-0.04843 -0.44443,-0.1453c-0.12535,-0.09687 -0.20512,-0.20797 -0.23931,-0.33332c-0.03419,-0.13105 -0.05128,-0.37606 -0.05128,-0.73502zM262.18827,174.93609c0.19373,0 0.35896,0.07122 0.49571,0.21367c0.13674,0.14245 0.20512,0.30768 0.20512,0.4957c0,0.19373 -0.06838,0.36181 -0.20512,0.50426c-0.13674,0.13674 -0.30198,0.20512 -0.49571,0.20512c-0.19373,0 -0.36181,-0.06838 -0.50426,-0.20512c-0.13674,-0.14245 -0.20512,-0.31053 -0.20512,-0.50426c0,-0.19373 0.06838,-0.35896 0.20512,-0.4957c0.14245,-0.14245 0.31053,-0.21367 0.50426,-0.21367zM262.91475,178.22657v3.52979c0,0.35326 -0.01709,0.59542 -0.05128,0.72647c-0.02849,0.12535 -0.11111,0.2393 -0.24786,0.34186c-0.13105,0.09687 -0.27349,0.1453 -0.42733,0.1453c-0.15384,0 -0.29914,-0.04843 -0.43588,-0.1453c-0.13674,-0.10256 -0.22222,-0.21936 -0.25641,-0.35041c-0.02849,-0.13105 -0.04273,-0.37036 -0.04273,-0.71793v-3.52123c0,-0.31907 0.0114,-0.54414 0.03419,-0.67519c0.02849,-0.13674 0.10826,-0.2564 0.23931,-0.35896c0.13105,-0.10826 0.28204,-0.16239 0.45297,-0.16239c0.17093,0 0.31908,0.04843 0.44443,0.1453c0.12535,0.09116 0.20513,0.21081 0.23931,0.35896c0.03419,0.14245 0.05128,0.37035 0.05128,0.68373zM269.563,179.36327v2.39308c0,0.31338 -0.01424,0.54129 -0.04273,0.68374c-0.02279,0.13674 -0.09971,0.25925 -0.23076,0.36751c-0.12535,0.10826 -0.27349,0.16239 -0.44443,0.16239c-0.15954,0 -0.30769,-0.04843 -0.44443,-0.1453c-0.13105,-0.09687 -0.21366,-0.21936 -0.24785,-0.3675c-0.03419,-0.15384 -0.05128,-0.38745 -0.05128,-0.70083v-2.09394c0,-0.58687 -0.08832,-0.98002 -0.26495,-1.17944c-0.17093,-0.20512 -0.41024,-0.30768 -0.71792,-0.30768c-0.27349,0 -0.51565,0.07977 -0.72647,0.23931c-0.21081,0.15954 -0.35897,0.36181 -0.44443,0.60682c-0.08546,0.23931 -0.1282,0.64955 -0.1282,1.23073v1.50421c0,0.30768 -0.0114,0.53275 -0.03419,0.67519c-0.02279,0.13674 -0.09971,0.2621 -0.23076,0.37605c-0.13105,0.10826 -0.28204,0.16239 -0.45298,0.16239c-0.16523,0 -0.31623,-0.04843 -0.45297,-0.1453c-0.13105,-0.10256 -0.21082,-0.22506 -0.23931,-0.3675c-0.02849,-0.14814 -0.04273,-0.38175 -0.04273,-0.70083v-3.58961c0,-0.32477 0.01424,-0.54984 0.04273,-0.67519c0.03419,-0.13105 0.11111,-0.23931 0.23077,-0.32477c0.12535,-0.08546 0.26494,-0.1282 0.41878,-0.1282c0.14245,0 0.29059,0.05698 0.44443,0.17093c0.15384,0.10826 0.23076,0.37891 0.23076,0.81194c0.49001,-0.65525 1.11676,-0.98287 1.88027,-0.98287c0.29059,0 0.57833,0.05698 0.86321,0.17093c0.28489,0.10826 0.51566,0.28489 0.69228,0.5299c0.18233,0.245 0.29344,0.50141 0.33332,0.7692c0.03988,0.2678 0.05982,0.55268 0.05982,0.85466zM275.02541,178.03v-0.19658c0,-0.2621 0.06268,-0.45867 0.18803,-0.58972c0.13105,-0.13674 0.29629,-0.20512 0.49571,-0.20512c0.22222,0 0.39315,0.07692 0.5128,0.23076c0.11965,0.15384 0.17948,0.48716 0.17948,0.99996v3.91438c0,1.16235 -0.245,1.94295 -0.73501,2.34179c-0.49001,0.40455 -1.19654,0.60682 -2.11958,0.60682c-0.83188,0 -1.48143,-0.15384 -1.94864,-0.46152c-0.46722,-0.30768 -0.70083,-0.63245 -0.70083,-0.97432c0,-0.18233 0.05983,-0.33048 0.17948,-0.44443c0.12535,-0.11396 0.27349,-0.17093 0.44442,-0.17093c0.15384,0 0.27349,0.03704 0.35896,0.11111c0.09116,0.07407 0.24501,0.24786 0.46152,0.52135c0.22222,0.27349 0.58972,0.41024 1.10252,0.41024c0.28489,0 0.54984,-0.04559 0.79485,-0.13675c0.245,-0.08546 0.42449,-0.24215 0.53844,-0.47006c0.11965,-0.22222 0.17378,-0.77205 0.16239,-1.64951c-0.44443,0.64385 -1.05124,0.96578 -1.82045,0.96578c-0.74641,0 -1.33613,-0.27919 -1.76916,-0.83757c-0.43303,-0.55838 -0.64955,-1.27061 -0.64955,-2.13668c0,-0.86606 0.22221,-1.55265 0.66664,-2.05975c0.44443,-0.5071 1.02276,-0.76065 1.73498,-0.76065c0.7806,0 1.4216,0.33048 1.923,0.99142zM272.17936,179.97864c0,0.56408 0.12251,0.99426 0.36751,1.29055c0.245,0.29629 0.58402,0.44442 1.01705,0.44442c0.37606,0 0.69798,-0.14244 0.96577,-0.42733c0.27349,-0.29059 0.41025,-0.72362 0.41025,-1.2991c0,-0.56408 -0.12535,-1.01136 -0.37605,-1.34183c-0.25071,-0.33047 -0.58973,-0.49571 -1.01706,-0.49571c-0.41594,0 -0.74925,0.15669 -0.99996,0.47007c-0.245,0.30768 -0.36751,0.76065 -0.36751,1.35892zM283.46099,185.1323c-0.2621,0 -0.46152,-0.05128 -0.59827,-0.15384c-0.13674,-0.09687 -0.37036,-0.41309 -0.70083,-0.94868c-0.33047,-0.53559 -0.60112,-1.1595 -0.81194,-1.87172c-0.21081,-0.71222 -0.31623,-1.43015 -0.31623,-2.15377c0,-0.78629 0.11965,-1.5555 0.35896,-2.30761c0.23931,-0.7578 0.5185,-1.38171 0.83757,-1.87172c0.32477,-0.49001 0.54699,-0.77205 0.66665,-0.84612c0.12535,-0.07407 0.31337,-0.11111 0.56408,-0.11111c0.15954,0 0.23931,0.04559 0.23931,0.13675c0,0.03419 -0.1168,0.29913 -0.35041,0.79484c-0.23361,0.49571 -0.44728,1.14525 -0.641,1.94864c-0.19373,0.80339 -0.29059,1.5555 -0.29059,2.25633c0,0.70652 0.09686,1.46718 0.29059,2.28197c0.19373,0.80909 0.40739,1.44724 0.641,1.91446c0.23361,0.46722 0.35041,0.73502 0.35041,0.80339c0,0.08546 -0.07977,0.1282 -0.23931,0.1282zM288.76956,175.91042v5.98269c0,0.71792 -0.23931,1.07688 -0.71792,1.07688c-0.16523,0 -0.33048,-0.05413 -0.49571,-0.16239c-0.15954,-0.11396 -0.23931,-0.39884 -0.23931,-0.85467v-4.70923c-0.91164,0.68943 -1.51561,1.03415 -1.81189,1.03415c-0.17093,0 -0.31053,-0.05413 -0.41879,-0.16239c-0.10826,-0.11396 -0.16239,-0.25925 -0.16239,-0.43588c0,-0.13105 0.03988,-0.24216 0.11965,-0.33332c0.07977,-0.09116 0.25355,-0.19657 0.52135,-0.31623c0.89455,-0.43873 1.52132,-0.94014 1.88028,-1.50422c0.15384,-0.23361 0.27064,-0.38745 0.35041,-0.46152c0.07977,-0.07407 0.19373,-0.11111 0.34187,-0.11111c0.42164,0 0.63246,0.31908 0.63246,0.95723zM290.97995,181.88455l1.50421,-6.16216c0.07407,-0.34187 0.1453,-0.56978 0.21367,-0.68374c0.07407,-0.11396 0.21082,-0.17093 0.41024,-0.17093c0.37036,0 0.55553,0.15384 0.55553,0.46152c0,0.11396 -0.03704,0.32192 -0.11111,0.62391l-1.49567,6.16216c-0.06838,0.33047 -0.14244,0.55554 -0.22221,0.67519c-0.07407,0.11965 -0.20797,0.17948 -0.4017,0.17948c-0.37036,0 -0.55553,-0.15384 -0.55553,-0.46152c0,-0.11965 0.03419,-0.32763 0.10256,-0.62391zM298.52988,178.55134c0.83757,0.44443 1.25637,1.08543 1.25637,1.923c0,0.66094 -0.25925,1.24212 -0.77775,1.74353c-0.5128,0.50141 -1.18514,0.75211 -2.01702,0.75211c-0.83757,0 -1.48997,-0.25925 -1.95719,-0.77775c-0.46152,-0.5185 -0.69228,-0.98287 -0.69228,-1.39311c0,-0.17663 0.06268,-0.32762 0.18803,-0.45297c0.13105,-0.12535 0.29343,-0.18803 0.48716,-0.18803c0.12535,0 0.23646,0.03704 0.33332,0.11111c0.10256,0.06838 0.19942,0.23076 0.29059,0.48717c0.2621,0.7692 0.71223,1.1538 1.35038,1.1538c0.33617,0 0.64386,-0.1225 0.92305,-0.3675c0.27919,-0.25071 0.41879,-0.59258 0.41879,-1.02561c0,-0.40455 -0.11396,-0.72647 -0.34187,-0.96577c-0.22222,-0.23931 -0.5242,-0.35896 -0.90595,-0.35896l-0.68373,0.04273c-0.38745,0 -0.58118,-0.18233 -0.58118,-0.54699c0,-0.38745 0.23931,-0.58117 0.71793,-0.58117c0.59257,0 0.98287,-0.11396 1.17089,-0.34187c0.19373,-0.22791 0.29059,-0.47292 0.29059,-0.73502c0,-0.29629 -0.09686,-0.54129 -0.29059,-0.73502c-0.18803,-0.19373 -0.44158,-0.29059 -0.76065,-0.29059c-0.57548,0 -0.96578,0.28774 -1.1709,0.86322c-0.13105,0.34187 -0.33332,0.5128 -0.60682,0.5128c-0.18233,0 -0.33047,-0.05698 -0.44442,-0.17094c-0.10826,-0.11965 -0.16239,-0.26495 -0.16239,-0.43588c0,-0.41024 0.23076,-0.81479 0.69228,-1.21363c0.46152,-0.40455 1.06264,-0.60682 1.80335,-0.60682c0.72362,0 1.29909,0.18518 1.72643,0.55554c0.42733,0.37036 0.64101,0.83188 0.64101,1.38456c0,0.63815 -0.29914,1.19084 -0.89741,1.65806zM301.08213,174.86772c0.2564,0 0.45298,0.04843 0.58973,0.1453c0.13674,0.09687 0.37036,0.41594 0.70083,0.95723c0.33047,0.54129 0.60112,1.16805 0.81194,1.88028c0.21081,0.70652 0.31623,1.42444 0.31623,2.15376c0,0.7806 -0.11966,1.5498 -0.35896,2.3076c-0.23931,0.75211 -0.52135,1.37317 -0.84613,1.86318c-0.31907,0.49001 -0.54129,0.77205 -0.66664,0.84612c-0.11965,0.07407 -0.30199,0.11111 -0.54699,0.11111c-0.15954,0 -0.23931,-0.04273 -0.23931,-0.1282c0,-0.03988 0.11396,-0.30768 0.34187,-0.80339c0.23361,-0.49571 0.44728,-1.14525 0.641,-1.94864c0.19942,-0.80339 0.29913,-1.55265 0.29913,-2.24778c0,-0.71222 -0.09971,-1.47288 -0.29913,-2.28197c-0.19373,-0.81479 -0.40739,-1.45578 -0.641,-1.923c-0.22791,-0.46722 -0.34187,-0.73216 -0.34187,-0.79484c0,-0.09116 0.07977,-0.13675 0.23931,-0.13675z" stroke-width="1"/><path d="M202.59476,179.99848c0,0.48431 -0.02043,0.88492 -0.0831,1.12992c-0.06268,0.23931 -0.25097,0.48081 -0.53016,0.65744c-0.2735,0.17663 -0.61534,0.27516 -0.93441,0.27516c-0.30768,0 -0.57068,-0.09755 -0.73591,-0.25709c-0.16524,-0.16524 -0.25759,-0.37298 -0.25759,-0.5781c0,-0.2507 0.10551,-0.46521 0.31063,-0.59056c0.21082,-0.13105 0.62367,-0.27535 1.12508,-0.37222c0.50141,-0.10256 0.88893,-0.17909 1.10545,-0.26455z" data-paper-data="{&quot;noHover&quot;:false,&quot;origItem&quot;:[&quot;Path&quot;,{&quot;applyMatrix&quot;:true,&quot;segments&quot;:[[[202.55587,180.02992],[0,0],[-0.21652,0.08546]],[[201.47899,180.31196],[0.50141,-0.10256],[-0.50141,0.09687]],[[200.41065,180.65383],[0.21082,-0.13105],[-0.20512,0.12535]],[[200.10297,181.21791],[0,-0.2507],[0,0.20512]],[[200.35083,181.77345],[-0.16524,-0.16524],[0.16523,0.15954]],[[201.0602,182.01276],[-0.30768,0],[0.31907,0]],[[201.94906,181.74781],[-0.2735,0.17663],[0.27919,-0.17663]],[[202.46187,181.1239],[-0.06268,0.23931],[0.06267,-0.245]],[[202.55588,180.02992],[0,0.48431],[0,0]]],&quot;closed&quot;:true,&quot;fillColor&quot;:[0,0,0],&quot;strokeCap&quot;:&quot;square&quot;}]}" stroke-width="0.5"/></g></g></svg>