<svg version="1.1" xmlns="http://www.w3.org/2000/svg" xmlns:xlink="http://www.w3.org/1999/xlink" width="307" height="307" viewBox="0,0,307,307"><defs><linearGradient x1="189.17981" y1="199.53599" x2="191.49054" y2="244.66137" gradientUnits="userSpaceOnUse" id="color-1"><stop offset="0" stop-color="#8ec4d0"/><stop offset="1" stop-color="#406077"/></linearGradient><linearGradient x1="189.17982" y1="199.53599" x2="191.49055" y2="244.66137" gradientUnits="userSpaceOnUse" id="color-2"><stop offset="0" stop-color="#8ec4d0"/><stop offset="1" stop-color="#406077"/></linearGradient><linearGradient x1="267.65052" y1="203.89808" x2="267.65052" y2="249.08259" gradientUnits="userSpaceOnUse" id="color-3"><stop offset="0" stop-color="#8ec4d0"/><stop offset="1" stop-color="#406077"/></linearGradient></defs><g transform="translate(-86.5,-47.19448)"><g data-paper-data="{&quot;isPaintingLayer&quot;:true}" fill-rule="nonzero" stroke-linecap="butt" stroke-linejoin="miter" stroke-miterlimit="10" stroke-dasharray="" stroke-dashoffset="0" style="mix-blend-mode: normal"><path d="M89,200.69449c0,-83.39499 67.60501,-151 151,-151c83.39499,0 151,67.60501 151,151c0,83.39499 -67.60501,151 -151,151c-83.39499,0 -151,-67.60501 -151,-151z" fill="#c1ffb2" stroke="none" stroke-width="0"/><path d="M92,174.69447c0,0 12.39294,60.43765 55.98474,110.83318c42.25722,48.85264 69.10277,62.95198 69.10277,62.95198c0,0 -18.64049,-2.35942 -26.09179,-4.91461c-24.90904,-8.54177 -46.87791,-23.41437 -63.98602,-42.69722c-14.83039,-16.7156 -26.00815,-36.74528 -32.28219,-58.83796c-1.63816,-5.76842 -4.36357,-19.45418 -4.66195,-32.99194c-0.38115,-17.29247 1.93445,-34.34344 1.93445,-34.34344z" fill="#a9ef51" stroke="none" stroke-width="0"/><path d="M112.3922,119.92886c0,0 2.9874,-4.57182 4.5701,-6.79188c13.23093,-18.559 30.55615,-33.99744 50.65712,-44.99678c2.3231,-1.27121 7.07849,-3.63372 7.07849,-3.63372c0,0 1.41646,83.64612 14.97423,159.73551c11.85622,66.5399 36.29102,126.83034 33.75137,126.55303c-75.59605,-8.25439 -111.0313,-230.86617 -111.0313,-230.86617z" fill="#abee53" stroke="none" stroke-width="0"/><path d="M238.48285,50.28824c0,0 21.1116,0.63494 24.12507,1.08736c16.14936,2.42458 31.46169,7.40663 45.51148,14.52063c2.27146,1.15014 6.71357,3.61578 6.71357,3.61578c0,0 -23.12187,74.19765 -34.5305,138.53809c-8.04369,45.36344 -16.83565,141.83179 -16.83565,141.83179c0,0 -6.49388,0.9056 -9.78826,1.2014c-4.50542,0.40454 -6.06786,0.61119 -10.67857,0.61119c-3.46676,0 -6.31471,0.65324 -6.31471,0.65324c0,0 -8.80023,-107.69193 -5.65681,-186.3893c1.70155,-42.59948 7.45437,-115.6702 7.45437,-115.6702z" fill="#abee53" stroke="none" stroke-width="0"/><path d="M355.7369,104.68173c0,0 8.27066,9.75729 10.25283,12.75062c10.85586,16.39376 18.59764,35.0296 22.38197,55.06412c1.09108,5.77628 -0.3717,0.19801 -0.3717,0.19801c0,0 -22.85239,37.94419 -36.39089,64.02344c-16.5176,31.81789 -32.99932,92.0441 -34.83156,93.40104c-8.77132,6.49599 -5.27122,4.06418 -15.35463,8.55953c-1.94452,0.86689 -8.8976,2.47996 -8.8976,2.47996c0,0 -2.21784,-41.30569 21.44111,-125.21136c14.53188,-51.53681 41.77049,-111.26534 41.77049,-111.26534z" fill="#abee53" stroke="none" stroke-width="0"/><path d="M389.99999,212.69449c0,0 0.85107,-4.20631 0.55856,-0.36701c-3.96206,52.00368 -34.26586,96.64238 -77.59701,120.60173c-12.60939,6.97218 11.67262,-36.05746 37.44993,-72.31919c18.43477,-25.93276 39.58852,-47.91553 39.58852,-47.91553z" fill="#abee53" stroke="none" stroke-width="0"/><g><path d="M94.02589,243.73341c0,0 10.95045,-24.88681 14.7142,-30.81044c2.49851,-3.93232 7.55826,-3.54018 7.55826,-3.54018l-5.38188,57.85093c0,0 -5.10269,-6.86533 -7.46843,-10.86067c-0.80474,-1.35906 -2.44328,0.66728 -3.67617,-1.00767c-2.90982,-3.95314 -5.74598,-11.63197 -5.74598,-11.63197z" fill="#fb7c00" stroke="none" stroke-width="0"/><path d="M116.29835,209.38279l-5.84565,57.87467c0,0 -10.18799,-3.76789 -12.46027,-10.1044c-2.84134,-4.55965 18.30592,-47.77028 18.30592,-47.77028z" fill="#b43f15" stroke="none" stroke-width="0"/><path d="M93.9931,240.45209c0,0 10.98324,-21.60549 14.74699,-27.52912c2.49851,-3.93232 7.55826,-3.54018 7.55826,-3.54018l-5.38188,57.85093c0,0 -7.61114,-4.34841 -9.97688,-8.34375c-2.70405,-4.56668 -6.94649,-18.43788 -6.94649,-18.43788z" fill="none" stroke="#390400" stroke-width="4"/><path d="M222.434,227.15363c6.07472,29.55944 9.15503,64.56503 10.57551,85.66841c0.2482,13.67509 -0.38927,17.89202 -15.40967,23.31464c-6.59251,2.38 -13.85,4.20894 -23.04199,5.72392c-12.95941,2.13591 -37.19484,-18.91856 -57.16637,-32.73164c-12.28962,-8.49997 -17.08649,-16.79044 -23.14764,-24.85622c-4.02567,-5.35709 -11.90073,-9.3273 -10.95983,-17.86487c3.23527,-29.35638 10.95407,-59.44933 25.93035,-77.03345c8.93088,-10.48604 18.19998,-15.04663 25.74121,-18.15891c45.61339,-18.82474 66.23841,49.90424 67.47842,55.93812z" fill="#b43f15" stroke="none" stroke-width="0"/><path d="M222.434,227.15363c3.86408,18.80252 6.51658,39.80863 8.301,58.03862c0.59013,6.02897 -10.84042,65.06079 -88.88121,22.45473c-41.63742,-23.55012 -25.82067,-95.9981 -23.95818,-100.02739c3.20166,-6.92642 6.95165,-13.11761 11.31875,-18.24517c8.93088,-10.48604 18.19998,-15.04663 25.74121,-18.15891c45.61339,-18.82474 66.23841,49.90424 67.47842,55.93812z" fill="#fb7c00" stroke="none" stroke-width="0"/><path d="M177.57315,204.85927c3.4796,-0.03798 18.61044,-0.82924 30.16724,1.15237c2.20036,0.37729 7.22861,1.35631 9.10905,7.07802c2.25072,6.84836 5.60136,18.0559 4.88356,25.96379c-0.52922,5.83039 -7.67245,8.52784 -9.40337,8.67212c-6.77674,0.5649 -14.94348,1.1781 -22.46827,1.56342c-8.09069,0.4143 -12.01083,1.27268 -19.52562,-0.00146c-3.44648,-0.58436 -7.9233,-1.2837 -11.60377,-4.09427c-6.783,-5.1798 -3.68655,-22.07446 -3.03843,-25.71869c0.12717,-0.71502 0.61849,-7.07196 5.09424,-10.70179c4.01734,-3.25805 11.75481,-3.8586 16.78537,-3.9135z" fill="#8ec4d0" stroke="#b33f18" stroke-width="6"/><path d="M180.16412,200.05382c3.4796,-0.03798 18.61044,-0.82924 30.16724,1.15237c2.20036,0.37729 7.22861,1.35631 9.10905,7.07802c2.25072,6.84836 5.60136,18.0559 4.88356,25.96379c-0.52922,5.83039 -7.67245,8.52784 -9.40337,8.67212c-6.77674,0.5649 -14.94348,1.1781 -22.46827,1.56342c-8.09069,0.4143 -12.01083,1.27268 -19.52562,-0.00146c-3.44648,-0.58436 -7.9233,-1.2837 -11.60377,-4.09427c-6.783,-5.1798 -3.68655,-22.07446 -3.03843,-25.71869c0.12717,-0.71502 0.61849,-7.07196 5.09424,-10.70179c4.01734,-3.25805 11.75481,-3.8586 16.78537,-3.9135z" fill="#8ec4d0" stroke="#061b0f" stroke-width="6"/><path d="M222.434,227.15363c6.07472,29.55944 9.15503,64.56503 10.57551,85.66841c0.2482,13.67509 -0.38927,17.89202 -15.40967,23.31464c-5.99037,2.16263 -13.35439,3.91248 -21.54597,5.35071c-1.47605,0.25915 -6.15526,-2.05916 -6.15526,-2.05916c0,0 -16.20695,-7.11117 -24.33838,-11.55945c-8.46347,-4.62993 -25.48617,-15.69697 -25.48617,-15.69697c0,0 -13.16043,-14.09878 -19.17216,-21.18217c-5.2986,-6.24313 -14.363,-19.11656 -14.363,-19.11656c0,0 -3.15611,-4.68784 -3.01698,-6.0103c3.1373,-29.82029 10.46475,-58.60903 25.69245,-76.48836c8.93088,-10.48604 18.19998,-15.04663 25.74121,-18.15891c45.61339,-18.82474 66.23841,49.90424 67.47842,55.93812z" fill="none" stroke="#390400" stroke-width="4"/><path d="M180.16412,200.05379c3.4796,-0.03798 18.61044,-0.82924 30.16724,1.15237c2.20036,0.37729 7.22861,1.35631 9.10905,7.07802c2.25072,6.84836 5.60136,18.0559 4.88356,25.96379c-0.52922,5.83039 -7.67245,8.52784 -9.40337,8.67212c-6.77674,0.5649 -14.94348,1.1781 -22.46827,1.56342c-8.09069,0.4143 -12.01083,1.27268 -19.52562,-0.00146c-3.44648,-0.58436 -7.9233,-1.2837 -11.60377,-4.09427c-6.783,-5.1798 -3.68655,-22.07446 -3.03843,-25.71869c0.12717,-0.71502 0.61849,-7.07196 5.09424,-10.70179c4.01734,-3.25805 11.75481,-3.8586 16.78537,-3.9135z" fill="url(#color-1)" stroke="none" stroke-width="0"/><path d="M180.33598,200.04128c3.22062,-0.03403 17.22503,-0.76652 27.92253,1.08823c2.03675,0.35314 6.69118,1.2692 8.43403,6.61168c2.08603,6.39445 5.1919,16.85902 4.53078,24.24141c-0.48744,5.44295 -7.09792,7.9583 -8.69998,8.09229c-6.27215,0.5246 -13.83083,1.09371 -20.79543,1.45034c-7.48837,0.38346 -11.11641,1.18321 -18.07244,-0.0094c-3.19023,-0.54697 -7.33414,-1.2017 -10.74185,-3.82711c-6.28031,-4.83857 -3.42126,-20.6099 -2.82286,-24.01182c0.11741,-0.66748 0.56955,-6.60203 4.7107,-9.98894c3.71701,-3.04002 10.87838,-3.5975 15.53452,-3.64668z" fill="#8ec4d0" stroke="none" stroke-width="0"/><path d="M221.84077,224.86266c-0.16343,1.80056 -1.06266,6.58248 -8.81975,9.61841c-4.54869,1.78024 -11.47227,2.63246 -21.94369,2.80355c-4.30747,0.07038 -8.03259,0.9552 -11.33935,0.69957c-18.8896,-1.46025 -22.50989,-8.54486 -22.26284,-11.33529c0.08854,-1.00011 2.72988,-6.65845 13.01479,-10.1797c4.41318,-1.51095 10.25456,-2.221 17.87114,-2.6709c10.48704,-0.61947 17.79124,-0.80239 22.87997,0.66915c8.69277,2.51372 10.82261,7.93973 10.59972,10.39524z" fill="url(#color-2)" stroke="none" stroke-width="0"/><path d="M189.15458,340.59693c-2.91892,-1.33995 -0.66688,0.60454 -4.22488,-0.20849c-2.40295,-0.54909 -6.23842,-3.54382 -7.97238,-5.33421c-0.60278,-0.62239 -0.71018,-1.65249 -1.37892,-2.2034c-0.5152,-0.42442 9.35897,8.0435 8.73411,7.80876c-2.73157,-1.02607 -16.45388,-8.72492 -19.06633,-10.00977c-5.04056,-2.47905 -7.01307,-3.13143 -11.65032,-6.07321c-1.86581,-1.18363 -6.11362,-6.95878 -8.10369,-7.9189c-2.28865,-4.4484 -6.96903,-4.74678 -11.22595,-7.49041c-2.49463,-1.60781 -4.19664,-3.42404 -6.16839,-5.86852c-0.71547,-0.88701 -0.70534,-2.19112 -1.30618,-3.15946c-0.44163,-0.71173 -1.28999,-1.09888 -1.7644,-1.78919c-0.92773,-1.34996 -1.43434,-2.96652 -2.40871,-4.28322c-1.55244,-2.09789 -2.60082,-1.81939 -4.42302,-3.47236c-1.56614,-1.42069 -2.98003,-3.0377 -4.14332,-4.80346c-1.00562,-1.52643 -1.07828,-3.50969 -1.88801,-5.14846c-0.65671,-1.32908 -1.94524,-2.2379 -2.89421,-3.37683c0,0 -1.60032,-1.92067 0.32036,-3.52099c1.92067,-1.60032 3.52099,0.32036 3.52099,0.32036c0.40179,0.48221 3.3398,3.98197 3.50706,4.30586c0.75814,1.46815 0.68102,3.32504 1.61946,4.68503c2.27933,3.30322 5.89361,4.78745 8.2821,7.8837c1.0355,1.34234 1.55286,3.02477 2.51499,4.42064c0.54157,0.78572 1.46568,1.26835 1.96626,2.08082c0.50831,0.82501 0.47154,1.91689 0.99804,2.73041c0.85111,1.31507 5.28946,2.26873 6.55575,3.07172c4.09046,2.5939 8.64899,5.1664 10.43866,9.8451c0.41123,0.14751 5.12572,1.83798 5.13761,1.84535c4.56941,2.8333 8.40499,6.82626 13.33846,9.23765c2.53825,1.24066 5.35537,2.41514 7.98851,3.49485c1.04529,0.42862 2.26598,0.53055 3.16317,1.21712c0.85612,0.65514 1.12194,1.86315 1.87286,2.63664c1.17601,1.21136 3.85693,3.51554 5.52201,3.98788c1.32456,0.37574 3.43229,-1.28545 4.27122,-1.31085c1.20794,-0.03658 2.32285,0.66795 3.48428,1.00194l1.69591,0.30952c0,0 2.78652,1.14818 2.30501,3.60138z" fill="#b43f15" stroke="none" stroke-width="0.5"/><path d="M141.85378,307.64697c-18.08459,-10.22864 -25.33063,-29.6817 -27.58903,-48.74677c1.8294,0.92528 3.67956,1.81519 5.466,2.8175c17.01816,9.54823 33.92359,19.29633 50.93168,28.8625c9.14449,5.1433 19.61856,7.4442 29.41149,11.20901c0.72234,0.2777 10.92612,4.10655 20.61852,8.04708c-11.23783,13.25234 -34.08588,22.24328 -78.83866,-2.18932z" fill="#fb7c00" stroke="none" stroke-width="0"/></g><g><path d="M254.87007,326.96002c-0.21219,-17.88892 -0.46723,-56.02756 6.69141,-86.59942c13.47609,-60.58857 45.84788,-57.76784 55.48871,-54.72632c15.81758,4.99017 29.14256,22.02275 34.41876,40.76727c6.54306,23.24525 5.81106,51.70641 3.53842,73.94884c-0.2177,2.13066 -4.49171,3.29746 -6.88342,5.47001c-5.67085,5.15123 -13.08462,11.33483 -19.50653,16.14582c-17.8188,13.349 -34.6219,23.82933 -41.09725,22.78975c-8.41052,-1.35026 -17.75052,-3.19865 -24.31852,-5.40487c-9.52641,-3.19997 -8.26284,-6.59494 -8.33159,-12.39105z" fill="#053a20" stroke="none" stroke-width="0"/><path d="M254.87007,326.96002c-0.21219,-17.88892 -0.46723,-56.02756 6.69141,-86.59942c13.47609,-60.58857 45.84788,-57.76784 55.48871,-54.72632c15.81758,4.99017 29.14256,22.02275 34.41876,40.76727c6.33464,22.50479 5.85031,49.89849 3.75072,71.80474c-0.67864,7.08063 -13.1911,13.17678 -21.64055,19.96365c-18.14636,14.57574 -40.43086,27.52085 -47.52305,26.34741c-8.01479,-1.32609 -16.66531,-3.0873 -22.85442,-5.16625c-9.52641,-3.19997 -8.26284,-6.59494 -8.33159,-12.39105z" fill="#053a20" stroke="none" stroke-width="0"/><path d="M254.81114,311.21461c0.14168,-19.78168 1.28688,-47.52156 6.75034,-70.85399c13.47609,-60.58857 45.84788,-57.76784 55.48871,-54.72632c15.81758,4.99017 29.14256,22.02275 34.41876,40.76727c2.8053,9.96626 -2.72671,11.89131 -2.1441,22.87397c0.15591,2.93895 -2.44496,29.62913 -9.16517,49.91118c-5.28192,15.94119 -15.0198,26.777 -15.0198,26.777c0,0 -30.48063,9.53096 -46.91588,6.54507c-18.6017,-3.37947 -23.42628,-19.42101 -23.41287,-21.29417z" fill="#177902" stroke="none" stroke-width="0"/><path d="M270.494,223.83754c6.56679,0.10756 22.38912,1.19321 27.09956,4.83652c4.25999,3.29493 3.68991,15.31779 3.51939,20.13592c-0.08914,2.51894 -2.763,2.51403 -6.23422,3.07763c-4.38212,0.7115 -10.17141,1.15523 -13.93703,1.1648c-4.59993,0.01171 -12.62628,-1.07661 -16.85512,-1.70237c-1.7026,-0.25194 -2.79028,-0.94718 -2.78052,-1.80179c0.03242,-2.83734 0.17962,-9.38192 0.84643,-12.97544c0.51148,-2.75641 1.91281,-8.02094 4.2395,-10.87234c1.10577,-1.35513 2.81212,-1.88405 4.102,-1.86292z" fill="#03391f" stroke="#033a21" stroke-width="6"/><path d="M356.27554,298.2251c0,0 -24.28364,-68.78073 -6.9531,-83.36276c9.00144,-7.57387 25.67267,20.29204 32.21589,32.20682c1.71751,3.12748 -25.26279,51.15594 -25.26279,51.15594z" fill="#03391e" stroke="none" stroke-width="0"/><path d="M254.87007,326.96002c-0.21219,-17.88892 -0.46723,-56.02756 6.69141,-86.59942c13.47609,-60.58857 45.84788,-57.76784 55.48871,-54.72632c15.81758,4.99017 29.14256,22.02275 34.41876,40.76727c5.90378,20.97411 6.78985,46.49643 5.14823,67.59298c-0.08382,1.07715 -0.27089,3.19565 -0.27089,3.19565c0,0 -5.70919,6.44556 -13.14122,13.35406c-6.50855,6.05008 -14.41609,12.37751 -19.93083,16.0786c-5.36056,3.59762 -13.51769,8.97101 -20.91356,12.20569c-8.05535,3.52311 -15.14553,4.75747 -15.14553,4.75747c0,0 -0.49805,1.04145 -1.42826,0.88668c-7.93882,-1.32086 -16.46537,-3.06589 -22.58525,-5.12159c-9.52641,-3.19997 -8.26284,-6.59494 -8.33159,-12.39105z" fill="none" stroke="#000000" stroke-width="4"/><path d="M356.60887,296.55843c0,0 -24.61698,-67.11406 -7.28644,-81.69609c11.36421,-9.56192 34.28643,34.36276 34.28643,34.36276c0,0 -5.32906,14.63362 -13.68543,28.12257c-4.31957,6.97271 -13.31456,19.21076 -13.31456,19.21076z" fill="#053a20" stroke="#000000" stroke-width="4"/><path d="M359.86516,288.62628c-3.45737,-6.19878 -10.71684,-21.20511 -14.47747,-34.7932c-4.79397,-17.32182 -4.46091,-31.90657 3.93475,-38.97074c9.10937,-7.66467 26.07354,20.96536 32.44685,32.62843c1.57758,2.88696 -20.63009,43.41976 -21.90413,41.13552z" fill="#177902" stroke="none" stroke-width="0"/><path d="M356.60887,296.55845c0,0 -24.61698,-67.11406 -7.28644,-81.69609c11.36421,-9.56192 34.28643,34.36276 34.28643,34.36276c0,0 -5.32906,14.63362 -13.68543,28.12257c-4.31957,6.97271 -13.31456,19.21076 -13.31456,19.21076z" fill="none" stroke="#000000" stroke-width="4"/><path d="M266.95421,205.83777c6.89571,0.14806 23.51056,1.64247 28.45693,6.65753c4.47337,4.53551 3.87473,21.08511 3.69567,27.71732c-0.09361,3.46735 -2.90139,3.4606 -6.54648,4.2364c-4.60161,0.97938 -10.68088,1.59018 -14.63511,1.60336c-4.83033,0.01611 -13.25871,-1.48197 -17.69937,-2.34334c-1.78788,-0.3468 -2.93004,-1.3038 -2.91979,-2.48019c0.03404,-3.90563 0.18861,-12.91432 0.88883,-17.86084c0.5371,-3.79422 2.00862,-11.04091 4.45185,-14.96591c1.16115,-1.86536 2.95297,-2.59341 4.30746,-2.56433z" fill="#9966ff" stroke="#000000" stroke-width="6"/><path d="M266.95421,205.83777c6.8957,0.14807 23.51057,1.64247 28.45693,6.65754c4.47337,4.5355 3.87472,21.0851 3.69567,27.71731c-0.09361,3.46735 -2.90139,3.46059 -6.54648,4.2364c-4.60161,0.97938 -10.68088,1.59018 -14.63511,1.60336c-4.83034,0.0161 -13.25871,-1.48198 -17.69937,-2.34334c-1.78788,-0.3468 -2.93004,-1.3038 -2.91978,-2.48019c0.03404,-3.90562 0.18861,-12.91432 0.88883,-17.86085c0.5371,-3.79422 2.00862,-11.04091 4.45185,-14.96591c1.16115,-1.86536 2.95298,-2.59341 4.30747,-2.56432z" fill="#8ec4ce" stroke="none" stroke-width="NaN"/><path d="M298.97354,230.8619c-0.2553,1.78985 -1.3979,6.51952 -9.30009,9.15478c-2.61939,0.87353 -11.4894,1.82898 -19.74009,1.19567c-6.34499,-0.48703 -12.62791,-2.514 -12.62791,-2.514c0,0 0.13639,-6.3467 0.57092,-11.95285c0.36476,-4.70602 1.24048,-7.60052 1.21276,-8.25197c0.04985,-0.00104 6.4991,-0.38964 7.01436,-0.39368c10.505,-0.08235 17.80899,0.1085 22.81581,1.83835c8.55284,2.95498 10.40241,8.48281 10.05424,10.92371z" fill="url(#color-3)" stroke="none" stroke-width="0"/></g><path d="M89,200.69449c0,-83.39499 67.60501,-151 151,-151c71.35052,0 131.14268,49.48724 146.92556,116.01077c2.66426,11.22965 4.07444,22.94475 4.07444,34.98923c0,83.39499 -67.60501,151 -151,151c-83.39499,0 -151,-67.60501 -151,-151z" fill="none" stroke="#417705" stroke-width="5"/></g></g></svg>