<svg version="1.1" xmlns="http://www.w3.org/2000/svg" xmlns:xlink="http://www.w3.org/1999/xlink" width="425.5" height="310.81081" viewBox="0,0,425.5,310.81081"><defs><linearGradient x1="240" y1="53.91682" x2="240" y2="306.08324" gradientUnits="userSpaceOnUse" id="color-1"><stop offset="0" stop-color="#c7d1db"/><stop offset="1" stop-color="#8692a2"/></linearGradient><radialGradient cx="203.21706" cy="127.20723" r="1.66666" gradientUnits="userSpaceOnUse" id="color-2"><stop offset="0" stop-color="#dbdbdb"/><stop offset="1" stop-color="#dbdbdb" stop-opacity="0"/></radialGradient><radialGradient cx="306.21706" cy="102.70723" r="1.66667" gradientUnits="userSpaceOnUse" id="color-3"><stop offset="0" stop-color="#dbdbdb"/><stop offset="1" stop-color="#dbdbdb" stop-opacity="0"/></radialGradient><radialGradient cx="183.01705" cy="140.60722" r="1.66666" gradientUnits="userSpaceOnUse" id="color-4"><stop offset="0" stop-color="#dbdbdb"/><stop offset="1" stop-color="#dbdbdb" stop-opacity="0"/></radialGradient><radialGradient cx="128.71706" cy="105.20723" r="1.66666" gradientUnits="userSpaceOnUse" id="color-5"><stop offset="0" stop-color="#dbdbdb"/><stop offset="1" stop-color="#dbdbdb" stop-opacity="0"/></radialGradient><radialGradient cx="240.64649" cy="219.2943" r="1.66666" gradientUnits="userSpaceOnUse" id="color-6"><stop offset="0" stop-color="#dbdbdb"/><stop offset="1" stop-color="#dbdbdb" stop-opacity="0"/></radialGradient><radialGradient cx="137.64649" cy="194.7943" r="1.66667" gradientUnits="userSpaceOnUse" id="color-7"><stop offset="0" stop-color="#dbdbdb"/><stop offset="1" stop-color="#dbdbdb" stop-opacity="0"/></radialGradient><radialGradient cx="230.64649" cy="229.2943" r="1.66666" gradientUnits="userSpaceOnUse" id="color-8"><stop offset="0" stop-color="#dbdbdb"/><stop offset="1" stop-color="#dbdbdb" stop-opacity="0"/></radialGradient><radialGradient cx="183.01705" cy="140.60722" r="1.66666" gradientUnits="userSpaceOnUse" id="color-9"><stop offset="0" stop-color="#dbdbdb"/><stop offset="1" stop-color="#dbdbdb" stop-opacity="0"/></radialGradient><radialGradient cx="316.21706" cy="112.70723" r="1.66667" gradientUnits="userSpaceOnUse" id="color-10"><stop offset="0" stop-color="#dbdbdb"/><stop offset="1" stop-color="#dbdbdb" stop-opacity="0"/></radialGradient><radialGradient cx="173.01705" cy="150.60722" r="1.66666" gradientUnits="userSpaceOnUse" id="color-11"><stop offset="0" stop-color="#dbdbdb"/><stop offset="1" stop-color="#dbdbdb" stop-opacity="0"/></radialGradient><radialGradient cx="299.80865" cy="195.27028" r="1.66666" gradientUnits="userSpaceOnUse" id="color-12"><stop offset="0" stop-color="#dbdbdb"/><stop offset="1" stop-color="#dbdbdb" stop-opacity="0"/></radialGradient><radialGradient cx="402.80865" cy="170.77029" r="1.66667" gradientUnits="userSpaceOnUse" id="color-13"><stop offset="0" stop-color="#dbdbdb"/><stop offset="1" stop-color="#dbdbdb" stop-opacity="0"/></radialGradient><radialGradient cx="279.60865" cy="208.67028" r="1.66666" gradientUnits="userSpaceOnUse" id="color-14"><stop offset="0" stop-color="#dbdbdb"/><stop offset="1" stop-color="#dbdbdb" stop-opacity="0"/></radialGradient><radialGradient cx="225.30865" cy="173.27029" r="1.66666" gradientUnits="userSpaceOnUse" id="color-15"><stop offset="0" stop-color="#dbdbdb"/><stop offset="1" stop-color="#dbdbdb" stop-opacity="0"/></radialGradient><radialGradient cx="337.23809" cy="287.35737" r="1.66666" gradientUnits="userSpaceOnUse" id="color-16"><stop offset="0" stop-color="#dbdbdb"/><stop offset="1" stop-color="#dbdbdb" stop-opacity="0"/></radialGradient><radialGradient cx="234.23809" cy="262.85737" r="1.66667" gradientUnits="userSpaceOnUse" id="color-17"><stop offset="0" stop-color="#dbdbdb"/><stop offset="1" stop-color="#dbdbdb" stop-opacity="0"/></radialGradient><radialGradient cx="327.23809" cy="297.35737" r="1.66666" gradientUnits="userSpaceOnUse" id="color-18"><stop offset="0" stop-color="#dbdbdb"/><stop offset="1" stop-color="#dbdbdb" stop-opacity="0"/></radialGradient><radialGradient cx="279.60865" cy="208.67028" r="1.66666" gradientUnits="userSpaceOnUse" id="color-19"><stop offset="0" stop-color="#dbdbdb"/><stop offset="1" stop-color="#dbdbdb" stop-opacity="0"/></radialGradient><radialGradient cx="412.80865" cy="180.77029" r="1.66667" gradientUnits="userSpaceOnUse" id="color-20"><stop offset="0" stop-color="#dbdbdb"/><stop offset="1" stop-color="#dbdbdb" stop-opacity="0"/></radialGradient><radialGradient cx="269.60865" cy="218.67028" r="1.66666" gradientUnits="userSpaceOnUse" id="color-21"><stop offset="0" stop-color="#dbdbdb"/><stop offset="1" stop-color="#dbdbdb" stop-opacity="0"/></radialGradient><radialGradient cx="170.16902" cy="284.37388" r="1.66667" gradientUnits="userSpaceOnUse" id="color-22"><stop offset="0" stop-color="#dbdbdb"/><stop offset="1" stop-color="#dbdbdb" stop-opacity="0"/></radialGradient></defs><g transform="translate(-27.25,-28.19819)"><g data-paper-data="{&quot;isPaintingLayer&quot;:true}" fill-rule="nonzero" stroke-linecap="butt" stroke-linejoin="miter" stroke-miterlimit="10" stroke-dasharray="" stroke-dashoffset="0" style="mix-blend-mode: normal"><path d="M29.25,306.08324v-252.16642h421.5v252.16642z" fill="url(#color-1)" stroke="#000000" stroke-width="4"/><path d="M442.5,293.22518c0,-25.31045 0,-186.06249 0,-224.31973c0,-7.26417 6.66666,-13.60544 6.66666,-13.60544v250c0,0 -6.66666,-5.51902 -6.66666,-12.07483z" data-paper-data="{&quot;index&quot;:null}" fill="#68798a" stroke="none" stroke-width="0"/><path d="M53.32925,298.8667c41.91411,0 308.1195,0 371.47347,0c12.02946,0 22.53061,6.66666 22.53061,6.66666h-414c0,0 9.13949,-6.66666 19.99592,-6.66666z" data-paper-data="{&quot;index&quot;:null}" fill="#dae0ee" stroke="none" stroke-width="0"/><path d="M46.5,284.9667c0,-35.23246 0,-191.59237 0,-210.5c0,-3.67712 4.03373,-6.46667 9.49984,-6.46667c30.27419,0 298.76059,0 363.5,0c11.44487,0 14.00017,4.21159 14.00017,11.46667c0,42.09887 0,186.67499 0,205.5c0,3.97348 -3.93327,7.03333 -11.00016,7.03333c-59.05248,0 -336.91417,0 -367,0c-5.19785,0 -8.99984,-2.52503 -8.99984,-7.03333z" fill="#3699db" stroke="#2b2b33" stroke-width="4.5"/><path d="M49.503,283.33767c0,-34.68568 0,-188.61897 0,-207.23316c0,-3.62005 3.97113,-6.36631 9.3524,-6.36631c29.80436,0 294.12401,0 357.8587,0c11.26725,0 13.78289,4.14623 13.78289,11.28871c0,41.44552 0,183.77791 0,202.31077c0,3.91181 -3.87223,6.92418 -10.82944,6.92418c-58.13602,0 -331.68547,0 -361.30438,0c-5.11718,0 -8.86016,-2.48584 -8.86016,-6.92418z" fill="#3699db" stroke="#26587a" stroke-width="6.5"/><path d="M46.5,284.96667c0,-35.23246 0,-191.59237 0,-210.5c0,-3.67712 4.03373,-6.46667 9.49983,-6.46667c30.27419,0 298.76059,0 363.5,0c11.44486,0 14.00016,4.21159 14.00016,11.46667c0,42.09887 0,186.67499 0,205.5c0,3.97348 -3.93327,7.03333 -11.00016,7.03333c-59.05248,0 -336.91417,0 -367,0c-5.19785,0 -8.99983,-2.52503 -8.99983,-7.03333z" fill="none" stroke="#2b2b33" stroke-width="4.5"/><path d="M29.50001,304.30002v-250c0,0 6.66666,6.34127 6.66666,13.60544c0,38.25723 0,199.00928 0,224.31973c0,6.55582 -6.66666,12.07483 -6.66666,12.07483z" fill="#68798a" stroke="none" stroke-width="0"/><path d="M33.33334,54.46669h414c0,0 -10.50115,6.66667 -22.53061,6.66667c-63.35398,0 -329.55936,0 -371.47347,0c-10.85643,0 -19.99592,-6.66667 -19.99592,-6.66667z" fill="#dae0ee" stroke="none" stroke-width="0"/><path d="M201.55039,127.20723c0,-0.92047 0.74619,-1.66667 1.66666,-1.66667c0.92048,0 1.66666,0.7462 1.66666,1.66667c0,0.92048 -0.74619,1.66666 -1.66666,1.66666c-0.92048,0 -1.66666,-0.74619 -1.66666,-1.66666z" fill="url(#color-2)" stroke="none" stroke-width="0.5"/><path d="M304.55039,102.70723c0,-0.92047 0.74619,-1.66667 1.66666,-1.66667c0.92048,0 1.66667,0.7462 1.66667,1.66667c0,0.92047 -0.74619,1.66666 -1.66667,1.66666c-0.92048,0 -1.66666,-0.74619 -1.66666,-1.66666z" fill="url(#color-3)" stroke="none" stroke-width="0.5"/><path d="M183.01705,142.27388c-0.92047,0 -1.66666,-0.74618 -1.66666,-1.66666c0,-0.92047 0.74618,-1.66667 1.66666,-1.66667c0.92047,0 1.66666,0.74619 1.66666,1.66667c0,0.92047 -0.74618,1.66666 -1.66666,1.66666z" data-paper-data="{&quot;index&quot;:null}" fill="url(#color-4)" stroke="none" stroke-width="0.5"/><path d="M127.0504,105.20723c0,-0.92047 0.74619,-1.66667 1.66666,-1.66667c0.92048,0 1.66666,0.7462 1.66666,1.66667c0,0.92047 -0.74619,1.66666 -1.66666,1.66666c-0.92047,0 -1.66666,-0.74619 -1.66666,-1.66666z" fill="url(#color-5)" stroke="none" stroke-width="0.5"/><path d="M240.64649,220.96096c-0.92047,0 -1.66666,-0.74618 -1.66666,-1.66666c0,-0.92047 0.74618,-1.66667 1.66666,-1.66667c0.92047,0 1.66666,0.7462 1.66666,1.66667c0,0.92047 -0.74618,1.66666 -1.66666,1.66666z" data-paper-data="{&quot;index&quot;:null}" fill="url(#color-6)" stroke="none" stroke-width="0.5"/><path d="M137.64649,196.46096c-0.92048,0 -1.66667,-0.74619 -1.66667,-1.66666c0,-0.92047 0.74619,-1.66667 1.66667,-1.66667c0.92047,0 1.66666,0.7462 1.66666,1.66667c0,0.92047 -0.74618,1.66666 -1.66666,1.66666z" data-paper-data="{&quot;index&quot;:null}" fill="url(#color-7)" stroke="none" stroke-width="0.5"/><path d="M230.64649,230.96096c-0.92047,0 -1.66666,-0.74618 -1.66666,-1.66666c0,-0.92047 0.74618,-1.66667 1.66666,-1.66667c0.92047,0 1.66666,0.74619 1.66666,1.66667c0,0.92047 -0.74618,1.66666 -1.66666,1.66666z" data-paper-data="{&quot;index&quot;:null}" fill="url(#color-8)" stroke="none" stroke-width="0.5"/><path d="M183.01705,142.27388c-0.92047,0 -1.66666,-0.74618 -1.66666,-1.66666c0,-0.92047 0.74618,-1.66667 1.66666,-1.66667c0.92047,0 1.66666,0.7462 1.66666,1.66667c0,0.92047 -0.74618,1.66666 -1.66666,1.66666z" data-paper-data="{&quot;index&quot;:null}" fill="url(#color-9)" stroke="none" stroke-width="0.5"/><path d="M314.55039,112.70723c0,-0.92047 0.74619,-1.66667 1.66666,-1.66667c0.92048,0 1.66667,0.7462 1.66667,1.66667c0,0.92047 -0.74619,1.66666 -1.66667,1.66666c-0.92048,0 -1.66666,-0.74619 -1.66666,-1.66666z" fill="url(#color-10)" stroke="none" stroke-width="0.5"/><path d="M173.01705,152.27388c-0.92047,0 -1.66666,-0.74618 -1.66666,-1.66666c0,-0.92047 0.74618,-1.66667 1.66666,-1.66667c0.92047,0 1.66666,0.74619 1.66666,1.66667c0,0.92047 -0.74618,1.66666 -1.66666,1.66666z" data-paper-data="{&quot;index&quot;:null}" fill="url(#color-11)" stroke="none" stroke-width="0.5"/><path d="M298.14199,195.27028c0,-0.92047 0.74619,-1.66667 1.66666,-1.66667c0.92048,0 1.66666,0.7462 1.66666,1.66667c0,0.92048 -0.74619,1.66666 -1.66666,1.66666c-0.92048,0 -1.66666,-0.74619 -1.66666,-1.66666z" fill="url(#color-12)" stroke="none" stroke-width="0.5"/><path d="M401.14199,170.77029c0,-0.92047 0.74619,-1.66667 1.66666,-1.66667c0.92048,0 1.66667,0.7462 1.66667,1.66667c0,0.92047 -0.74619,1.66666 -1.66667,1.66666c-0.92048,0 -1.66666,-0.74619 -1.66666,-1.66666z" fill="url(#color-13)" stroke="none" stroke-width="0.5"/><path d="M279.60865,210.33695c-0.92047,0 -1.66666,-0.74618 -1.66666,-1.66666c0,-0.92047 0.74618,-1.66667 1.66666,-1.66667c0.92047,0 1.66666,0.74619 1.66666,1.66667c0,0.92047 -0.74618,1.66666 -1.66666,1.66666z" data-paper-data="{&quot;index&quot;:null}" fill="url(#color-14)" stroke="none" stroke-width="0.5"/><path d="M223.64199,173.27029c0,-0.92047 0.74619,-1.66667 1.66666,-1.66667c0.92048,0 1.66666,0.7462 1.66666,1.66667c0,0.92047 -0.74619,1.66666 -1.66666,1.66666c-0.92047,0 -1.66666,-0.74619 -1.66666,-1.66666z" fill="url(#color-15)" stroke="none" stroke-width="0.5"/><path d="M337.23809,289.02401c-0.92047,0 -1.66666,-0.74618 -1.66666,-1.66666c0,-0.92047 0.74618,-1.66667 1.66666,-1.66667c0.92047,0 1.66666,0.7462 1.66666,1.66667c0,0.92047 -0.74618,1.66666 -1.66666,1.66666z" data-paper-data="{&quot;index&quot;:null}" fill="url(#color-16)" stroke="none" stroke-width="0.5"/><path d="M234.23809,264.52401c-0.92048,0 -1.66667,-0.74619 -1.66667,-1.66666c0,-0.92047 0.74619,-1.66667 1.66667,-1.66667c0.92047,0 1.66666,0.7462 1.66666,1.66667c0,0.92047 -0.74618,1.66666 -1.66666,1.66666z" data-paper-data="{&quot;index&quot;:null}" fill="url(#color-17)" stroke="none" stroke-width="0.5"/><path d="M327.23809,299.02401c-0.92047,0 -1.66666,-0.74618 -1.66666,-1.66666c0,-0.92047 0.74618,-1.66667 1.66666,-1.66667c0.92047,0 1.66666,0.74619 1.66666,1.66667c0,0.92047 -0.74618,1.66666 -1.66666,1.66666z" data-paper-data="{&quot;index&quot;:null}" fill="url(#color-18)" stroke="none" stroke-width="0.5"/><path d="M279.60865,210.33695c-0.92047,0 -1.66666,-0.74618 -1.66666,-1.66666c0,-0.92047 0.74618,-1.66667 1.66666,-1.66667c0.92047,0 1.66666,0.7462 1.66666,1.66667c0,0.92047 -0.74618,1.66666 -1.66666,1.66666z" data-paper-data="{&quot;index&quot;:null}" fill="url(#color-19)" stroke="none" stroke-width="0.5"/><path d="M411.14199,180.77029c0,-0.92047 0.74619,-1.66667 1.66666,-1.66667c0.92048,0 1.66667,0.7462 1.66667,1.66667c0,0.92047 -0.74619,1.66666 -1.66667,1.66666c-0.92048,0 -1.66666,-0.74619 -1.66666,-1.66666z" fill="url(#color-20)" stroke="none" stroke-width="0.5"/><path d="M269.60865,220.33695c-0.92047,0 -1.66666,-0.74618 -1.66666,-1.66666c0,-0.92047 0.74618,-1.66667 1.66666,-1.66667c0.92047,0 1.66666,0.74619 1.66666,1.66667c0,0.92047 -0.74618,1.66666 -1.66666,1.66666z" data-paper-data="{&quot;index&quot;:null}" fill="url(#color-21)" stroke="none" stroke-width="0.5"/><path d="M170.16902,286.04053c-0.92048,0 -1.66667,-0.74619 -1.66667,-1.66666c0,-0.92047 0.74619,-1.66667 1.66667,-1.66667c0.92047,0 1.66666,0.7462 1.66666,1.66667c0,0.92047 -0.74618,1.66666 -1.66666,1.66666z" data-paper-data="{&quot;index&quot;:null}" fill="url(#color-22)" stroke="none" stroke-width="0.5"/><path d="M29.25,306.08324v-252.16642h421.5v252.16642z" fill="none" stroke="#000000" stroke-width="4"/><path d="M192.7027,339.009v-310.81081h28.52853v310.81081z" fill="none" stroke="none" stroke-width="NaN"/></g></g></svg>