<svg version="1.1" xmlns="http://www.w3.org/2000/svg" xmlns:xlink="http://www.w3.org/1999/xlink" width="144.14414" height="60.93899" viewBox="0,0,144.14414,60.93899"><g transform="translate(-167.92793,-149.5305)"><g data-paper-data="{&quot;isPaintingLayer&quot;:true}" fill-rule="nonzero" stroke-linejoin="miter" stroke-miterlimit="10" stroke-dasharray="" stroke-dashoffset="0" style="mix-blend-mode: normal"><path d="M207.46897,180.84917v3.67976c0,0.52257 -0.02177,0.92176 -0.06532,1.19756c-0.04354,0.2758 -0.16694,0.51894 -0.37016,0.72942c-0.20322,0.20322 -0.51894,0.30484 -0.94716,0.30484c-0.39918,0 -0.7149,-0.13427 -0.94716,-0.40282c-0.23226,-0.26855 -0.34838,-0.87821 -0.34838,-1.829v-9.0361c0,-0.76934 0.05444,-1.28828 0.16331,-1.55683c0.10887,-0.26855 0.3012,-0.44998 0.577,-0.54434c0.28306,-0.10161 0.78749,-0.15242 1.51327,-0.15242h3.76685c1.02337,0 1.85803,0.10524 2.50399,0.31572c0.64596,0.20322 1.19029,0.60966 1.63303,1.21933c0.44999,0.60967 0.67498,1.32095 0.67498,2.13383c0,1.9669 -1.1286,3.17533 -3.38582,3.62532c0.89273,0.49354 1.72013,1.37901 2.48221,2.6564c0.76208,1.27013 1.14312,2.10117 1.14312,2.49309c0,0.2758 -0.12702,0.5262 -0.38104,0.75119c-0.24677,0.21774 -0.55886,0.32661 -0.93627,0.32661c-0.28306,0 -0.54797,-0.0871 -0.79474,-0.26129c-0.23951,-0.17419 -0.60241,-0.66047 -1.08869,-1.45884l-1.08868,-1.79633c-0.62418,-1.02337 -1.14675,-1.67658 -1.56771,-1.95964c-0.4137,-0.29032 -0.94353,-0.43547 -1.58948,-0.43547h-0.94716zM209.97295,175.31864h-2.50398v3.61444h2.41689c1.12498,0 1.9052,-0.16331 2.34068,-0.48991c0.44273,-0.3266 0.6641,-0.78748 0.6641,-1.38263c0,-0.43547 -0.12702,-0.79837 -0.38104,-1.08869c-0.24677,-0.29032 -0.52982,-0.47176 -0.84918,-0.54434c-0.31209,-0.07258 -0.87458,-0.10887 -1.68746,-0.10887zM224.4255,182.32978h-4.85555c0.02178,0.92176 0.27218,1.61852 0.75119,2.09028c0.47902,0.4645 1.05603,0.69676 1.73102,0.69676c0.8274,0 1.60762,-0.36289 2.34068,-1.08868c0.29757,-0.30483 0.51532,-0.49354 0.65322,-0.56612c0.14516,-0.07258 0.30483,-0.10887 0.47902,-0.10887c0.22499,0 0.41733,0.07258 0.577,0.21774c0.15968,0.1379 0.23951,0.30847 0.23951,0.51168c0,0.55886 -0.38104,1.14675 -1.14312,1.76367c-0.76208,0.60967 -1.7927,0.9145 -3.09187,0.9145c-1.65481,0 -2.91043,-0.46814 -3.76686,-1.40441c-0.85644,-0.93627 -1.28465,-2.14471 -1.28465,-3.62532c0,-1.50239 0.42821,-2.71809 1.28465,-3.64711c0.85644,-0.92901 2.04674,-1.39352 3.5709,-1.39352c1.45158,0 2.57293,0.4391 3.36404,1.31731c0.79837,0.87821 1.19756,1.829 1.19756,2.85237c0,0.45725 -0.13427,0.81651 -0.40282,1.0778c-0.26129,0.26128 -0.80926,0.39193 -1.64392,0.39193zM219.56995,180.92538h4.50717c-0.02903,-0.82015 -0.25765,-1.44433 -0.68587,-1.87255c-0.42096,-0.43547 -0.94353,-0.65321 -1.56771,-0.65321c-1.31368,0 -2.06488,0.84192 -2.25359,2.52576zM234.80908,185.36722c-1.17578,0.92901 -2.32979,1.39352 -3.46202,1.39352c-1.06691,0 -1.89069,-0.27217 -2.47132,-0.81652c-0.57337,-0.54435 -0.86007,-1.20844 -0.86007,-1.9923c0,-0.67498 0.19597,-1.21933 0.5879,-1.63303c0.39193,-0.4137 0.81651,-0.70039 1.27376,-0.86007c0.45725,-0.16693 1.20482,-0.35564 2.2427,-0.56612c1.03788,-0.21774 1.87617,-0.41733 2.51487,-0.59878c-0.00726,-0.74757 -0.15604,-1.25199 -0.44636,-1.51328c-0.29032,-0.26855 -0.73305,-0.40281 -1.3282,-0.40281c-1.12498,0 -1.85803,0.31572 -2.19915,0.94716c-0.19597,0.35564 -0.37015,0.60967 -0.52257,0.76208c-0.15242,0.15242 -0.37015,0.22862 -0.65321,0.22862c-0.26129,0 -0.49716,-0.08709 -0.70765,-0.26128c-0.21048,-0.17419 -0.31572,-0.39556 -0.31572,-0.6641c0,-0.64596 0.34838,-1.25562 1.04514,-1.82899c0.69676,-0.58063 1.78907,-0.87095 3.27695,-0.87095c1.5169,0 2.62373,0.26129 3.3205,0.78386c0.70402,0.52257 1.03425,1.5786 0.9907,3.16808l-0.05444,2.32979c-0.02177,0.71853 0.05081,1.30642 0.21774,1.76367c0.17419,0.44999 0.26129,0.79474 0.26129,1.03425c0,0.26128 -0.11613,0.49354 -0.34838,0.69676c-0.225,0.19597 -0.48266,0.29395 -0.77297,0.29395c-0.5008,0 -1.03063,-0.46451 -1.58949,-1.39352zM234.64578,181.78544c-0.37016,0.1379 -0.97982,0.29394 -1.82899,0.46813c-0.84918,0.16693 -1.45158,0.35927 -1.80722,0.57701c-0.34838,0.21774 -0.52257,0.53708 -0.52257,0.95804c0,0.35564 0.13791,0.67136 0.41371,0.94716c0.28306,0.26855 0.68224,0.40281 1.19755,0.40281c0.54435,0 1.04877,-0.14878 1.51328,-0.44636c0.47177,-0.30483 0.76208,-0.66047 0.87095,-1.06691c0.10887,-0.4137 0.1633,-1.02699 0.1633,-1.83988zM247.41358,182.61284c0.30483,0 0.55523,0.11976 0.75119,0.35927c0.20322,0.23226 0.30483,0.47176 0.30483,0.71853c0,0.67498 -0.40281,1.35724 -1.20844,2.04674c-0.80563,0.68225 -1.8798,1.02337 -3.22251,1.02337c-1.62578,0 -2.85599,-0.46088 -3.69065,-1.38264c-0.8274,-0.92176 -1.24111,-2.11931 -1.24111,-3.59266c0,-1.49513 0.42822,-2.7181 1.28465,-3.66888c0.86369,-0.95078 2.09028,-1.42618 3.67976,-1.42618c1.23385,0 2.25358,0.32298 3.05921,0.96894c0.80563,0.64596 1.20844,1.28102 1.20844,1.9052c0,0.30483 -0.10888,0.55886 -0.32661,0.76208c-0.21773,0.20322 -0.47176,0.30483 -0.76208,0.30483c-0.36289,0 -0.64958,-0.15605 -0.86006,-0.46814c-0.44999,-0.6895 -0.8528,-1.12498 -1.20844,-1.30642c-0.34838,-0.18871 -0.72579,-0.28306 -1.13224,-0.28306c-0.79111,0 -1.40078,0.30483 -1.82899,0.91449c-0.42822,0.60967 -0.64233,1.36812 -0.64233,2.27536c0,0.92901 0.225,1.68747 0.67499,2.27536c0.44999,0.58789 1.04877,0.88183 1.79633,0.88183c0.42822,0 0.82378,-0.10161 1.18667,-0.30483c0.36289,-0.20322 0.67498,-0.50806 0.93627,-0.9145c0.26854,-0.4137 0.47902,-0.69676 0.63144,-0.84917c0.15241,-0.15967 0.35564,-0.23951 0.60966,-0.23951zM251.03641,176.90812v-1.48062c0,-0.61692 0.0254,-1.03426 0.07621,-1.25199c0.0508,-0.21774 0.18145,-0.4137 0.39193,-0.5879c0.21773,-0.17419 0.47177,-0.26128 0.76208,-0.26128c0.26855,0 0.50806,0.07984 0.71853,0.23951c0.21774,0.15242 0.35927,0.34112 0.42459,0.56612c0.06532,0.22499 0.09798,0.5879 0.09798,1.08869v1.68747h0.48991c0.6024,0 1.00159,0.07621 1.19755,0.22862c0.20322,0.14516 0.30484,0.35927 0.30484,0.64233c0,0.60967 -0.50806,0.91449 -1.52417,0.91449h-0.46813v4.57248c0,0.61692 0.04355,1.03789 0.13064,1.26288c0.09435,0.22499 0.33024,0.3375 0.70764,0.3375c0.18145,0 0.38467,-0.0254 0.60967,-0.07621c0.225,-0.05081 0.39193,-0.07621 0.50079,-0.07621c0.25403,0 0.45725,0.08347 0.60967,0.2504c0.15242,0.15967 0.22862,0.35201 0.22862,0.577c0,0.81288 -0.85643,1.21933 -2.5693,1.21933c-0.8274,0 -1.43707,-0.15242 -1.82899,-0.45725c-0.38467,-0.31209 -0.62418,-0.6895 -0.71853,-1.13223c-0.09436,-0.44274 -0.14153,-1.0161 -0.14153,-1.72012v-4.75756h-0.32661c-0.73305,0 -1.09957,-0.29757 -1.09957,-0.89272c0,-0.59515 0.38467,-0.89272 1.15401,-0.89272zM261.5306,176.69038c1.53142,0 2.73623,0.4754 3.61444,1.42618c0.88547,0.94353 1.3282,2.14835 1.3282,3.61444c0,1.4661 -0.44636,2.67091 -1.33909,3.61444c-0.89272,0.94353 -2.07213,1.4153 -3.53823,1.4153c-1.59674,0 -2.83059,-0.4754 -3.70154,-1.42618c-0.86369,-0.95805 -1.29553,-2.15923 -1.29553,-3.60355c0,-1.47336 0.4391,-2.6818 1.31731,-3.62533c0.87821,-0.94353 2.08302,-1.4153 3.61444,-1.4153zM261.5306,184.92086c0.74757,0 1.33908,-0.28306 1.77456,-0.84918c0.44273,-0.56612 0.6641,-1.34634 0.6641,-2.34067c0,-1.00885 -0.22136,-1.79634 -0.6641,-2.36246c-0.43547,-0.56612 -1.02699,-0.84918 -1.77456,-0.84918c-0.74031,0 -1.33183,0.28669 -1.77456,0.86007c-0.43547,0.56612 -0.65321,1.34997 -0.65321,2.35156c0,1.00159 0.21773,1.78545 0.65321,2.35156c0.43547,0.55886 1.027,0.83828 1.77456,0.83828zM268.4049,184.71401v-6.35793c0,-1.11046 0.40644,-1.66569 1.21933,-1.66569c0.78386,0 1.18304,0.51531 1.19756,1.54594c0.51531,-1.03062 1.22659,-1.54594 2.13383,-1.54594c0.47902,0 0.97256,0.12702 1.48062,0.38104c0.51531,0.24677 0.77297,0.58789 0.77297,1.02337c0,0.30483 -0.10524,0.55523 -0.31572,0.75119c-0.20322,0.19597 -0.42459,0.29394 -0.6641,0.29394c-0.13064,0 -0.37015,-0.0508 -0.71853,-0.15241c-0.34838,-0.10887 -0.63869,-0.1633 -0.87095,-0.1633c-0.59515,0 -1.03789,0.3012 -1.3282,0.90361c-0.29031,0.59515 -0.43547,1.74916 -0.43547,3.46203v1.42618c0,0.63144 -0.0254,1.05966 -0.07621,1.28465c-0.0508,0.21774 -0.18508,0.41733 -0.40282,0.59878c-0.21773,0.17419 -0.46813,0.26129 -0.75119,0.26129c-0.2758,0 -0.52257,-0.07984 -0.74031,-0.23951c-0.21774,-0.15967 -0.35564,-0.34838 -0.41371,-0.56612c-0.05806,-0.22499 -0.08709,-0.6387 -0.08709,-1.24111z" fill="#ffffff" stroke="#000000" stroke-width="3.5" stroke-linecap="square"/><path d="M207.46897,180.84917v3.67976c0,0.52257 -0.02177,0.92176 -0.06532,1.19756c-0.04355,0.2758 -0.16693,0.51894 -0.37015,0.72942c-0.20322,0.20322 -0.51894,0.30483 -0.94716,0.30483c-0.39919,0 -0.7149,-0.13427 -0.94716,-0.40281c-0.23225,-0.26854 -0.34838,-0.87821 -0.34838,-1.82899v-9.03611c0,-0.76934 0.05443,-1.28828 0.1633,-1.55682c0.10887,-0.26854 0.3012,-0.44999 0.577,-0.54434c0.28306,-0.10161 0.78748,-0.15242 1.51328,-0.15242h3.76686c1.02337,0 1.85803,0.10524 2.50398,0.31572c0.64595,0.20322 1.1903,0.60966 1.63303,1.21933c0.44999,0.60966 0.67499,1.32094 0.67499,2.13383c0,1.9669 -1.12861,3.17534 -3.38582,3.62533c0.89272,0.49354 1.72013,1.379 2.48221,2.6564c0.76208,1.27014 1.14312,2.10117 1.14312,2.49309c0,0.2758 -0.12701,0.5262 -0.38104,0.75119c-0.24677,0.21774 -0.55886,0.32661 -0.93627,0.32661c-0.28306,0 -0.54797,-0.08709 -0.79474,-0.26128c-0.23951,-0.17419 -0.60241,-0.66047 -1.08869,-1.45884l-1.08869,-1.79633c-0.62418,-1.02337 -1.14675,-1.67658 -1.56771,-1.95964c-0.4137,-0.29032 -0.94353,-0.43547 -1.58948,-0.43547h-0.94716zM209.97295,175.31863h-2.50398v3.61444h2.41689c1.12498,0 1.9052,-0.1633 2.34068,-0.48991c0.44273,-0.32661 0.6641,-0.78748 0.6641,-1.38263c0,-0.43547 -0.12701,-0.79837 -0.38104,-1.08869c-0.24677,-0.29032 -0.52983,-0.47176 -0.84918,-0.54434c-0.31209,-0.07258 -0.87458,-0.10887 -1.68747,-0.10887zM224.4255,182.32978h-4.85555c0.02177,0.92176 0.27217,1.61852 0.75119,2.09028c0.47902,0.46451 1.05603,0.69676 1.73101,0.69676c0.8274,0 1.60763,-0.3629 2.34068,-1.08869c0.29757,-0.30483 0.51531,-0.49354 0.65321,-0.56612c0.14516,-0.07258 0.30483,-0.10887 0.47902,-0.10887c0.225,0 0.41733,0.07258 0.577,0.21774c0.15967,0.1379 0.23951,0.30846 0.23951,0.51168c0,0.55886 -0.38104,1.14675 -1.14312,1.76367c-0.76208,0.60966 -1.79271,0.9145 -3.09187,0.9145c-1.6548,0 -2.91042,-0.46814 -3.76686,-1.40441c-0.85643,-0.93627 -1.28465,-2.14471 -1.28465,-3.62533c0,-1.50239 0.42822,-2.71809 1.28465,-3.6471c0.85643,-0.92901 2.04673,-1.39352 3.57089,-1.39352c1.45158,0 2.57293,0.4391 3.36404,1.31731c0.79837,0.87821 1.19756,1.82899 1.19756,2.85236c0,0.45725 -0.13427,0.81652 -0.40281,1.0778c-0.26128,0.26128 -0.80926,0.39193 -1.64392,0.39193zM219.56995,180.92537h4.50717c-0.02903,-0.82014 -0.25766,-1.44433 -0.68587,-1.87254c-0.42096,-0.43547 -0.94353,-0.65321 -1.56771,-0.65321c-1.31368,0 -2.06488,0.84192 -2.25358,2.52575zM234.80908,185.36722c-1.17578,0.92901 -2.32979,1.39352 -3.46203,1.39352c-1.06691,0 -1.89069,-0.27217 -2.47132,-0.81652c-0.57338,-0.54434 -0.86006,-1.20844 -0.86006,-1.9923c0,-0.67499 0.19596,-1.21933 0.58789,-1.63303c0.39193,-0.4137 0.81652,-0.70039 1.27376,-0.86006c0.45725,-0.16693 1.20481,-0.35564 2.2427,-0.56612c1.03788,-0.21774 1.87617,-0.41733 2.51487,-0.59878c-0.00726,-0.74757 -0.15605,-1.25199 -0.44636,-1.51328c-0.29032,-0.26854 -0.73305,-0.40281 -1.3282,-0.40281c-1.12498,0 -1.85803,0.31572 -2.19915,0.94716c-0.19596,0.35564 -0.37015,0.60966 -0.52257,0.76208c-0.15242,0.15242 -0.37015,0.22862 -0.65321,0.22862c-0.26128,0 -0.49717,-0.08709 -0.70765,-0.26128c-0.21048,-0.17419 -0.31572,-0.39556 -0.31572,-0.6641c0,-0.64595 0.34838,-1.25562 1.04514,-1.82899c0.69676,-0.58063 1.78908,-0.87095 3.27695,-0.87095c1.5169,0 2.62374,0.26128 3.3205,0.78385c0.70402,0.52257 1.03425,1.5786 0.99071,3.16808l-0.05443,2.32979c-0.02177,0.71853 0.05081,1.30642 0.21774,1.76367c0.17419,0.44999 0.26128,0.79474 0.26128,1.03425c0,0.26128 -0.11613,0.49354 -0.34838,0.69676c-0.225,0.19596 -0.48265,0.29395 -0.77297,0.29395c-0.5008,0 -1.03062,-0.46451 -1.58948,-1.39352zM234.64577,181.78544c-0.37015,0.1379 -0.97982,0.29395 -1.82899,0.46814c-0.84918,0.16693 -1.45158,0.35927 -1.80722,0.577c-0.34838,0.21774 -0.52257,0.53709 -0.52257,0.95804c0,0.35564 0.1379,0.67136 0.4137,0.94716c0.28306,0.26854 0.68224,0.40281 1.19756,0.40281c0.54434,0 1.04877,-0.14879 1.51328,-0.44636c0.47176,-0.30483 0.76208,-0.66047 0.87095,-1.06691c0.10887,-0.4137 0.1633,-1.027 0.1633,-1.83988zM247.41357,182.61284c0.30483,0 0.55523,0.11976 0.75119,0.35927c0.20322,0.23225 0.30483,0.47176 0.30483,0.71853c0,0.67499 -0.40281,1.35723 -1.20844,2.04673c-0.80563,0.68224 -1.8798,1.02337 -3.22251,1.02337c-1.62577,0 -2.85599,-0.46088 -3.69065,-1.38263c-0.8274,-0.92176 -1.2411,-2.11931 -1.2411,-3.59267c0,-1.49513 0.42822,-2.71809 1.28465,-3.66888c0.86369,-0.95079 2.09028,-1.42618 3.67976,-1.42618c1.23385,0 2.25358,0.32298 3.05921,0.96893c0.80563,0.64595 1.20844,1.28102 1.20844,1.9052c0,0.30483 -0.10887,0.55886 -0.32661,0.76208c-0.21774,0.20322 -0.47176,0.30483 -0.76208,0.30483c-0.3629,0 -0.64958,-0.15605 -0.86006,-0.46814c-0.44999,-0.6895 -0.85281,-1.12498 -1.20844,-1.30642c-0.34838,-0.18871 -0.72579,-0.28306 -1.13223,-0.28306c-0.79111,0 -1.40078,0.30483 -1.82899,0.9145c-0.42822,0.60966 -0.64233,1.36812 -0.64233,2.27536c0,0.92901 0.225,1.68747 0.67499,2.27536c0.44999,0.58789 1.04877,0.88184 1.79633,0.88184c0.42822,0 0.82377,-0.10161 1.18667,-0.30483c0.3629,-0.20322 0.67499,-0.50805 0.93627,-0.9145c0.26854,-0.4137 0.47902,-0.69676 0.63144,-0.84918c0.15242,-0.15967 0.35564,-0.23951 0.60966,-0.23951zM251.0364,176.90812v-1.48061c0,-0.61692 0.0254,-1.03425 0.07621,-1.25199c0.05081,-0.21774 0.18145,-0.4137 0.39193,-0.58789c0.21774,-0.17419 0.47176,-0.26128 0.76208,-0.26128c0.26854,0 0.50805,0.07984 0.71853,0.23951c0.21774,0.15242 0.35927,0.34112 0.42459,0.56612c0.06532,0.225 0.09798,0.58789 0.09798,1.08869v1.68747h0.48991c0.60241,0 1.00159,0.07621 1.19756,0.22862c0.20322,0.14516 0.30483,0.35927 0.30483,0.64233c0,0.60966 -0.50805,0.9145 -1.52416,0.9145h-0.46814v4.57249c0,0.61692 0.04355,1.03788 0.13064,1.26288c0.09435,0.225 0.33024,0.33749 0.70765,0.33749c0.18145,0 0.38467,-0.0254 0.60966,-0.07621c0.225,-0.05081 0.39193,-0.07621 0.5008,-0.07621c0.25403,0 0.45725,0.08347 0.60966,0.2504c0.15242,0.15967 0.22862,0.35201 0.22862,0.577c0,0.81289 -0.85643,1.21933 -2.5693,1.21933c-0.8274,0 -1.43707,-0.15242 -1.82899,-0.45725c-0.38467,-0.31209 -0.62418,-0.6895 -0.71853,-1.13223c-0.09435,-0.44273 -0.14153,-1.01611 -0.14153,-1.72013v-4.75756h-0.32661c-0.73305,0 -1.09957,-0.29757 -1.09957,-0.89272c0,-0.59515 0.38467,-0.89272 1.15401,-0.89272zM261.5306,176.69038c1.53142,0 2.73623,0.47539 3.61444,1.42618c0.88547,0.94353 1.3282,2.14834 1.3282,3.61444c0,1.4661 -0.44636,2.67091 -1.33909,3.61444c-0.89272,0.94353 -2.07213,1.41529 -3.53823,1.41529c-1.59674,0 -2.83059,-0.47539 -3.70154,-1.42618c-0.86369,-0.95804 -1.29554,-2.15923 -1.29554,-3.60356c0,-1.47336 0.4391,-2.6818 1.31731,-3.62533c0.87821,-0.94353 2.08302,-1.41529 3.61444,-1.41529zM261.5306,184.92086c0.74757,0 1.33909,-0.28306 1.77456,-0.84918c0.44273,-0.56612 0.6641,-1.34634 0.6641,-2.34068c0,-1.00885 -0.22137,-1.79633 -0.6641,-2.36245c-0.43547,-0.56612 -1.027,-0.84918 -1.77456,-0.84918c-0.74031,0 -1.33183,0.28669 -1.77456,0.86006c-0.43547,0.56612 -0.65321,1.34997 -0.65321,2.35156c0,1.00159 0.21774,1.78545 0.65321,2.35156c0.43547,0.55886 1.027,0.83829 1.77456,0.83829zM268.4049,184.71401v-6.35793c0,-1.11046 0.40644,-1.66569 1.21933,-1.66569c0.78385,0 1.18304,0.51531 1.19756,1.54594c0.51531,-1.03062 1.22659,-1.54594 2.13383,-1.54594c0.47902,0 0.97256,0.12701 1.48061,0.38104c0.51531,0.24677 0.77297,0.58789 0.77297,1.02337c0,0.30483 -0.10524,0.55523 -0.31572,0.75119c-0.20322,0.19596 -0.42459,0.29395 -0.6641,0.29395c-0.13064,0 -0.37015,-0.05081 -0.71853,-0.15242c-0.34838,-0.10887 -0.6387,-0.1633 -0.87095,-0.1633c-0.59515,0 -1.03788,0.3012 -1.3282,0.90361c-0.29032,0.59515 -0.43547,1.74916 -0.43547,3.46203v1.42618c0,0.63144 -0.0254,1.05966 -0.07621,1.28465c-0.05081,0.21774 -0.18508,0.41733 -0.40281,0.59878c-0.21774,0.17419 -0.46814,0.26128 -0.75119,0.26128c-0.2758,0 -0.52257,-0.07984 -0.74031,-0.23951c-0.21774,-0.15967 -0.35564,-0.34838 -0.4137,-0.56612c-0.05806,-0.225 -0.08709,-0.6387 -0.08709,-1.2411z" fill="#ffffff" stroke="none" stroke-width="1" stroke-linecap="square"/><path d="M167.92793,210.4695v-60.93899h144.14414v60.93899z" fill="none" stroke="none" stroke-width="none" stroke-linecap="butt"/></g></g></svg>