<svg version="1.1" xmlns="http://www.w3.org/2000/svg" xmlns:xlink="http://www.w3.org/1999/xlink" width="83.40444" height="61.15552" viewBox="0,0,83.40444,61.15552"><g transform="translate(-198.32233,-149.42224)"><g data-paper-data="{&quot;isPaintingLayer&quot;:true}" fill-rule="nonzero" stroke-linecap="butt" stroke-linejoin="miter" stroke-miterlimit="10" stroke-dasharray="" stroke-dashoffset="0" style="mix-blend-mode: normal"><path d="M273.072,201.88988c0,-1.24397 1.00843,-2.25241 2.2524,-2.25241c1.24397,0 2.2524,1.00844 2.2524,2.25241c0,1.24397 -1.00844,2.25241 -2.2524,2.25241c-1.24397,0 -2.2524,-1.00844 -2.2524,-2.25241z" fill="#7d8a8a" stroke="none" stroke-width="0.5"/><path d="M203.11743,203.24297c0,-1.24397 1.00843,-2.25241 2.2524,-2.25241c1.24397,0 2.2524,1.00844 2.2524,2.25241c0,1.24397 -1.00843,2.2524 -2.2524,2.2524c-1.24397,0 -2.2524,-1.00843 -2.2524,-2.2524z" fill="#7d8a8a" stroke="none" stroke-width="0.5"/><path d="M204.44108,201.02686c0,0 -0.66508,-3.93405 9.30619,-5.85751c5.18288,-0.99979 51.2598,-1.45392 56.11817,-0.05132c6.30093,1.81906 5.6863,5.90883 5.6863,5.90883z" fill="#4f6070" stroke="none" stroke-width="0"/><path d="M200.82234,193.16922c-0.11051,-9.18198 0,-20.21087 0,-25.67582c0,-13.43228 7.54468,-15.57115 18.61029,-15.57115c8.10759,0 26.2936,0 40.4946,0c10.8028,0 19.29955,3.1207 19.29955,15.0742c0,6.06481 0,17.53888 0,27.33232c0,12.00165 -7.93612,13.749 -14.47467,13.749c-8.2937,0 -29.86452,0 -45.66413,0c-10.37778,0 -18.09333,-0.59144 -18.26564,-14.90855z" fill="#92a3a3" stroke="#030303" stroke-width="5"/><path d="M207.61313,167.03667c0,0 -0.60575,-3.58311 8.47603,-5.33499c4.72054,-0.91059 46.68715,-1.32422 51.11213,-0.04674c5.73885,1.65679 5.17905,5.38173 5.17905,5.38173z" fill="#4f6070" stroke="none" stroke-width="0"/><path d="M207.61313,175.28955c0,0 -0.60575,-3.58311 8.47603,-5.33499c4.72054,-0.9106 46.68715,-1.32422 51.11213,-0.04674c5.73885,1.65679 5.17905,5.38173 5.17905,5.38173z" fill="#4f6070" stroke="none" stroke-width="0"/><path d="M207.61313,183.36303c0,0 -0.60575,-3.58311 8.47603,-5.33499c4.72054,-0.9106 46.68715,-1.32422 51.11213,-0.04674c5.73885,1.65679 5.17905,5.38173 5.17905,5.38173z" fill="#4f6070" stroke="none" stroke-width="0"/><path d="M207.61313,191.07768c0,0 -0.60575,-3.58311 8.47603,-5.33499c4.72054,-0.9106 46.68715,-1.32422 51.11213,-0.04674c5.73885,1.65679 5.17905,5.38173 5.17905,5.38173z" fill="#4f6070" stroke="none" stroke-width="0"/><path d="M269.24824,159.95214c0,-1.133 0.91847,-2.05147 2.05147,-2.05147c1.133,0 2.05147,0.91847 2.05147,2.05147c0,1.133 -0.91848,2.05148 -2.05147,2.05148c-1.133,0 -2.05147,-0.91848 -2.05147,-2.05148z" fill="#7d8a8a" stroke="none" stroke-width="0.5"/><path d="M270.1218,199.9372c0,-1.133 0.91847,-2.05148 2.05147,-2.05148c1.133,0 2.05147,0.91848 2.05147,2.05148c0,1.133 -0.91848,2.05148 -2.05147,2.05148c-1.133,0 -2.05147,-0.91848 -2.05147,-2.05148z" fill="#7d8a8a" stroke="none" stroke-width="0.5"/><path d="M206.40755,201.16958c0,-1.133 0.91847,-2.05148 2.05147,-2.05148c1.133,0 2.05147,0.91848 2.05147,2.05148c0,1.133 -0.91847,2.05147 -2.05147,2.05147c-1.133,0 -2.05147,-0.91847 -2.05147,-2.05147z" fill="#7d8a8a" stroke="none" stroke-width="0.5"/><path d="M207.46052,159.70224c0,-1.133 0.91847,-2.05147 2.05147,-2.05147c1.133,0 2.05148,0.91847 2.05148,2.05147c0,1.133 -0.91848,2.05148 -2.05148,2.05148c-1.133,0 -2.05147,-0.91848 -2.05147,-2.05148z" fill="#7d8a8a" stroke="none" stroke-width="0.5"/><path d="M207.61313,199.15116c0,0 -0.60575,-3.58311 8.47603,-5.33499c4.72054,-0.9106 46.68715,-1.32422 51.11213,-0.04674c5.73885,1.65679 5.17905,5.38173 5.17905,5.38173z" fill="#4f6070" stroke="none" stroke-width="0"/></g></g></svg>