<svg version="1.1" xmlns="http://www.w3.org/2000/svg" xmlns:xlink="http://www.w3.org/1999/xlink" width="139.30282" height="38.63049" viewBox="0,0,139.30282,38.63049"><g transform="translate(-170.34861,-160.68477)"><g data-paper-data="{&quot;isPaintingLayer&quot;:true}" fill-rule="nonzero" stroke-linejoin="miter" stroke-miterlimit="10" stroke-dasharray="" stroke-dashoffset="0" style="mix-blend-mode: normal"><path d="M175.59862,191.29185c0,-6.09093 0,-20.31716 0,-23.11191c0,-0.91205 0.83323,-2.24516 2.04028,-2.24516c3.81375,0 24.93773,0 48.88177,0c30.84112,0 66.36093,0 75.59434,0c1.48164,0 2.28643,1.30927 2.28643,2.64136c0,3.14265 0,16.21313 0,22.3195c0,1.93416 -0.92569,3.16963 -2.61925,3.16963c-17.3663,0 -115.47439,0 -124.14329,0c-1.20705,0 -2.04028,-1.06771 -2.04028,-2.77343z" fill="#000000" stroke="#000000" stroke-width="10.5" stroke-linecap="butt"/><path d="M175.59862,191.29185c0,-6.09093 0,-20.31716 0,-23.11191c0,-0.91205 0.83323,-2.24516 2.04028,-2.24516c8.72604,0 108.07418,0 124.4761,0c1.48164,0 2.28643,1.30927 2.28643,2.64136c0,3.14265 0,16.21313 0,22.3195c0,1.93416 -0.92569,3.16963 -2.61925,3.16963c-17.3663,0 -115.47439,0 -124.14329,0c-1.20705,0 -2.04028,-1.06771 -2.04028,-2.77343z" fill="#000000" stroke="#00f000" stroke-width="5.5" stroke-linecap="butt"/><path d="M175.59862,191.29185c0,-6.09093 0,-20.31716 0,-23.11191c0,-0.91205 0.83323,-2.24516 2.04028,-2.24516c8.72604,0 108.07418,0 124.4761,0c1.48164,0 2.28643,1.30927 2.28643,2.64136c0,3.14265 0,16.21313 0,22.3195c0,1.93416 -0.92569,3.16963 -2.61925,3.16963c-17.3663,0 -115.47439,0 -124.14329,0c-1.20705,0 -2.04028,-1.06771 -2.04028,-2.77343z" fill="#000000" stroke="none" stroke-width="0" stroke-linecap="butt"/><path d="M232.63435,186.86204h-3.54428c-0.82078,0 -1.37294,-0.06218 -1.65648,-0.18654c-0.28355,-0.12436 -0.46759,-0.32085 -0.55216,-0.58947c-0.08456,-0.27359 -0.12685,-0.78596 -0.12685,-1.5371v-9.03605c0,-0.81083 0.05969,-1.35305 0.17908,-1.62664c0.11938,-0.27857 0.31588,-0.46511 0.58947,-0.55962c0.27857,-0.09451 0.80088,-0.14177 1.56695,-0.14177h3.79052c1.09437,0 1.93256,0.11938 2.51457,0.35815c0.58201,0.2338 1.07696,0.62429 1.48487,1.17148c0.4079,0.54719 0.61186,1.18142 0.61186,1.90272c0,1.37791 -0.68399,2.38026 -2.05195,3.00705c1.78582,0.50739 2.67873,1.61918 2.67873,3.33536c0,0.83073 -0.23131,1.56943 -0.69393,2.21611c-0.45765,0.64667 -1.04712,1.0894 -1.76841,1.32818c-0.72129,0.23877 -1.72862,0.35815 -3.02196,0.35815zM229.50793,175.32634v3.41743h2.57426c1.09437,0 1.81567,-0.16167 2.16388,-0.48501c0.35318,-0.32831 0.52978,-0.75362 0.52978,-1.27594c0,-0.51734 -0.18654,-0.92275 -0.55962,-1.21625c-0.37308,-0.29349 -1.18142,-0.44023 -2.42504,-0.44023zM232.42542,180.88527h-2.9175v3.84275h3.01451c1.0496,0 1.77587,-0.17411 2.1788,-0.52232c0.40293,-0.34821 0.6044,-0.82576 0.6044,-1.43264c0,-0.58201 -0.20893,-1.04214 -0.62677,-1.38041c-0.41288,-0.33826 -1.16402,-0.50739 -2.25341,-0.50739zM246.79096,185.66071c-1.21376,0.95509 -2.40265,1.43264 -3.56666,1.43264c-1.09935,0 -1.945,-0.27857 -2.53696,-0.8357c-0.58698,-0.56211 -0.88047,-1.2461 -0.88047,-2.05195c0,-0.69145 0.19897,-1.24858 0.59693,-1.67141c0.40293,-0.4278 0.84067,-0.72626 1.31325,-0.8954c0.47257,-0.16913 1.24113,-0.36314 2.30564,-0.58201c1.0695,-0.22385 1.93008,-0.4278 2.58173,-0.61186c-0.00497,-0.77104 -0.1567,-1.29086 -0.45516,-1.55948c-0.29846,-0.27359 -0.75362,-0.41039 -1.36548,-0.41039c-1.15407,0 -1.91018,0.32334 -2.26834,0.97001c-0.19897,0.36811 -0.37557,0.62927 -0.52978,0.78347c-0.15421,0.15421 -0.37806,0.23131 -0.67155,0.23131c-0.26862,0 -0.51236,-0.08705 -0.73124,-0.26116c-0.2139,-0.17908 -0.32085,-0.4079 -0.32085,-0.68647c0,-0.6616 0.35567,-1.28837 1.06702,-1.88033c0.71632,-0.59196 1.84303,-0.88793 3.38012,-0.88793c1.55699,0 2.69614,0.26862 3.41743,0.80586c0.72129,0.53724 1.05956,1.62415 1.01478,3.26074l-0.05969,2.38772c-0.02487,0.73621 0.05223,1.33812 0.23131,1.80572c0.17908,0.46759 0.26862,0.82576 0.26862,1.07447c0,0.26862 -0.11938,0.50491 -0.35815,0.70886c-0.2338,0.20396 -0.49993,0.30592 -0.7984,0.30592c-0.51734,0 -1.06204,-0.47755 -1.6341,-1.43264zM246.61934,181.97467c-0.37806,0.14924 -1.00484,0.31091 -1.88033,0.48501c-0.87052,0.17411 -1.48736,0.37308 -1.85048,0.59693c-0.36314,0.22385 -0.5447,0.54967 -0.5447,0.97748c0,0.36811 0.14425,0.69145 0.43277,0.97001c0.28852,0.27857 0.69642,0.41786 1.22371,0.41786c0.56211,0 1.08193,-0.15172 1.55948,-0.45516c0.48252,-0.30842 0.7785,-0.67403 0.88793,-1.09686c0.11441,-0.42283 0.17161,-1.05458 0.17161,-1.89526zM259.7537,182.83276c0.31339,0 0.57206,0.12188 0.77601,0.36562c0.20396,0.23877 0.30592,0.48749 0.30592,0.74616c0,0.68647 -0.41288,1.38289 -1.23863,2.08926c-0.82576,0.70636 -1.93256,1.05956 -3.32043,1.05956c-1.67141,0 -2.93491,-0.47257 -3.79052,-1.41771c-0.85063,-0.95012 -1.27594,-2.18378 -1.27594,-3.70097c0,-1.5371 0.44023,-2.79315 1.32071,-3.76813c0.88545,-0.97498 2.14646,-1.46248 3.78306,-1.46248c1.26847,0 2.31809,0.3308 3.14881,0.9924c0.83073,0.6616 1.2461,1.31573 1.2461,1.96241c0,0.30842 -0.11192,0.56708 -0.33578,0.77601c-0.22385,0.20893 -0.48998,0.31339 -0.7984,0.31339c-0.37308,0 -0.66409,-0.15918 -0.87302,-0.47755c-0.46759,-0.70636 -0.88296,-1.15407 -1.2461,-1.34309c-0.35815,-0.18903 -0.74616,-0.28355 -1.16402,-0.28355c-0.81083,0 -1.43761,0.31339 -1.88033,0.94017c-0.44273,0.6218 -0.66409,1.39781 -0.66409,2.32803c0,0.96007 0.23131,1.74105 0.69393,2.34296c0.46262,0.6019 1.07945,0.90286 1.85048,0.90286c0.44273,0 0.85063,-0.10198 1.22371,-0.30592c0.37308,-0.20893 0.69393,-0.52232 0.96255,-0.94017c0.27359,-0.42283 0.48998,-0.71383 0.64916,-0.87302c0.15918,-0.16415 0.36811,-0.24623 0.62677,-0.24623zM267.15004,182.23582l-1.39533,1.30579v1.23863c0,0.6218 -0.02239,1.06453 -0.06716,1.32818c-0.0398,0.26365 -0.17411,0.49496 -0.40293,0.69393c-0.22882,0.194 -0.49993,0.29101 -0.81331,0.29101c-0.27857,0 -0.53226,-0.08456 -0.76108,-0.25369c-0.22882,-0.17411 -0.36811,-0.37806 -0.41786,-0.61186c-0.04975,-0.23877 -0.07462,-0.67652 -0.07462,-1.31325v-9.73744c0,-0.93022 0.11192,-1.53212 0.33578,-1.80572c0.22882,-0.27857 0.55962,-0.41786 0.9924,-0.41786c0.31836,0 0.57455,0.09203 0.76855,0.27608c0.19897,0.17908 0.32085,0.39547 0.36562,0.64916c0.04975,0.25369 0.07462,0.66409 0.07462,1.23117v5.6037l2.8802,-2.98466c0.44273,-0.45765 0.74616,-0.73621 0.91032,-0.8357c0.16415,-0.09949 0.3507,-0.14924 0.55962,-0.14924c0.33328,0 0.6044,0.10695 0.81331,0.32085c0.2139,0.20893 0.32085,0.43775 0.32085,0.68647c0,0.37806 -0.35318,0.89291 -1.05956,1.54456l-1.32818,1.23863l2.58919,4.10391c0.37308,0.59196 0.55962,1.02224 0.55962,1.29086c0,0.29349 -0.10695,0.56211 -0.32085,0.80586c-0.2139,0.23877 -0.50739,0.35815 -0.88047,0.35815c-0.31339,0 -0.56708,-0.09203 -0.76108,-0.27608c-0.18903,-0.18405 -0.4079,-0.48003 -0.65663,-0.88793z" fill="#00f000" stroke="none" stroke-width="1" stroke-linecap="square"/><g fill="#00f000" stroke="none" stroke-width="0" stroke-linecap="butt"><path d="M192.56947,190.33149l-9.9232,-9.4845l1.70005,-1.77868l9.9232,9.4845z"/><path d="M182.42444,180.6534l9.9232,-9.4845l1.70006,1.77869l-9.92321,9.4845z" data-paper-data="{&quot;index&quot;:null}"/></g></g></g></svg>