<svg version="1.1" xmlns="http://www.w3.org/2000/svg" xmlns:xlink="http://www.w3.org/1999/xlink" width="129.59542" height="9.78749" viewBox="0,0,129.59542,9.78749"><g transform="translate(-175.20229,-175.10626)"><g data-paper-data="{&quot;isPaintingLayer&quot;:true}" fill="#ff0000" fill-rule="nonzero" stroke="none" stroke-width="1" stroke-linecap="square" stroke-linejoin="miter" stroke-miterlimit="10" stroke-dasharray="" stroke-dashoffset="0" style="mix-blend-mode: normal"><path d="M176.70993,178.6431l2.97455,-3.09678c0.19015,-0.19559 0.33956,-0.31783 0.44822,-0.36673c0.10865,-0.0489 0.21732,-0.07334 0.32597,-0.07334c0.21732,0 0.39389,0.06791 0.52971,0.20373c0.13582,0.13039 0.20374,0.27437 0.20374,0.43193c0,0.22819 -0.11681,0.45365 -0.35042,0.6764l-1.84177,1.74398l2.12701,3.03975c0.29338,0.42921 0.44007,0.7579 0.44007,0.98608c0,0.19015 -0.06791,0.345 -0.20373,0.46452c-0.13039,0.11952 -0.30424,0.17929 -0.52156,0.17929c-0.23905,0 -0.42649,-0.05977 -0.56231,-0.17929c-0.13582,-0.12496 -0.21188,-0.20373 -0.22819,-0.23633l-0.30968,-0.48896l-1.78473,-2.75451l-1.24686,1.18982v1.54025c0,0.61936 -0.24992,0.92904 -0.74975,0.92904c-0.25535,0 -0.4455,-0.0815 -0.57046,-0.24448c-0.12496,-0.16298 -0.18744,-0.49983 -0.18744,-1.01053v-5.21564c0,-0.32598 0.01358,-0.56231 0.04075,-0.709c0.02717,-0.15212 0.10595,-0.27979 0.23633,-0.38302c0.13582,-0.10865 0.29338,-0.16298 0.47267,-0.16298c0.17929,0 0.33413,0.05162 0.46452,0.15484c0.13039,0.09779 0.21188,0.22275 0.24448,0.37488c0.0326,0.14669 0.0489,0.38846 0.0489,0.72531zM183.51878,175.17145c0.18473,0 0.34227,0.06791 0.47267,0.20374c0.13039,0.13582 0.19559,0.29338 0.19559,0.47267c0,0.18473 -0.06519,0.345 -0.19559,0.48083c-0.13039,0.13039 -0.28795,0.19559 -0.47267,0.19559c-0.18473,0 -0.345,-0.06519 -0.48082,-0.19559c-0.13039,-0.13582 -0.19559,-0.2961 -0.19559,-0.48082c0,-0.18473 0.06519,-0.34227 0.19559,-0.47267c0.13582,-0.13582 0.2961,-0.20373 0.48082,-0.20373zM184.21149,178.30898v3.36572c0,0.33685 -0.01631,0.56774 -0.0489,0.69271c-0.02717,0.11952 -0.10594,0.22818 -0.23633,0.32597c-0.12496,0.09236 -0.26078,0.13855 -0.40748,0.13855c-0.14669,0 -0.28523,-0.04618 -0.41562,-0.13854c-0.13039,-0.09779 -0.21188,-0.20916 -0.24448,-0.33412c-0.02717,-0.12496 -0.04075,-0.35313 -0.04075,-0.68456v-3.35757c0,-0.30425 0.01087,-0.51884 0.0326,-0.6438c0.02717,-0.13039 0.10323,-0.24448 0.22818,-0.34227c0.12496,-0.10323 0.26893,-0.15484 0.43192,-0.15484c0.16298,0 0.30424,0.04618 0.42377,0.13854c0.11952,0.08693 0.1956,0.20103 0.22819,0.34227c0.0326,0.13582 0.0489,0.35313 0.0489,0.65195zM187.03832,176.25531v5.41938c0,0.33685 -0.01631,0.56774 -0.0489,0.69271c-0.02717,0.11952 -0.10594,0.22818 -0.23632,0.32597c-0.12496,0.09236 -0.26078,0.13855 -0.40748,0.13855c-0.14669,0 -0.28523,-0.04618 -0.41562,-0.13854c-0.13039,-0.09779 -0.21189,-0.20916 -0.24448,-0.33412c-0.02717,-0.12496 -0.04075,-0.35313 -0.04075,-0.68456v-5.41938c0,-0.34227 0.0163,-0.57317 0.0489,-0.6927c0.0326,-0.12496 0.11138,-0.23091 0.23633,-0.31783c0.12496,-0.09236 0.26079,-0.13854 0.40748,-0.13854c0.16843,0 0.3124,0.04891 0.43192,0.14669c0.12496,0.09779 0.20103,0.21188 0.22819,0.34227c0.02717,0.13039 0.04075,0.35042 0.04075,0.66011zM189.86516,176.25531v5.41938c0,0.33685 -0.01631,0.56774 -0.0489,0.69271c-0.02717,0.11952 -0.10594,0.22818 -0.23633,0.32597c-0.12496,0.09236 -0.26078,0.13855 -0.40748,0.13855c-0.14669,0 -0.28523,-0.04618 -0.41561,-0.13854c-0.13039,-0.09779 -0.21189,-0.20916 -0.24448,-0.33412c-0.02717,-0.12496 -0.04075,-0.35313 -0.04075,-0.68456v-5.41938c0,-0.34227 0.0163,-0.57317 0.0489,-0.6927c0.0326,-0.12496 0.11138,-0.23091 0.23633,-0.31783c0.12496,-0.09236 0.26078,-0.13854 0.40748,-0.13854c0.16843,0 0.3124,0.04891 0.43192,0.14669c0.12496,0.09779 0.20103,0.21188 0.22819,0.34227c0.02717,0.13039 0.04075,0.35042 0.04075,0.66011zM198.27436,180.34634h-2.73005c0.01631,0.51613 0.15755,0.90459 0.42377,1.16537c0.27165,0.26078 0.59763,0.39117 0.97793,0.39117c0.46181,0 0.89916,-0.20373 1.31206,-0.6112c0.16843,-0.16843 0.29065,-0.27165 0.36673,-0.30968c0.08149,-0.04346 0.17114,-0.0652 0.26893,-0.0652c0.12496,0 0.23091,0.04076 0.31783,0.12225c0.09236,0.07606 0.13854,0.17114 0.13854,0.28523c0,0.31511 -0.2146,0.64652 -0.6438,0.99423c-0.42377,0.34227 -1.00238,0.51342 -1.73582,0.51342c-0.92904,0 -1.63533,-0.2635 -2.11886,-0.79049c-0.4781,-0.527 -0.71715,-1.20612 -0.71715,-2.03736c0,-0.84211 0.23905,-1.52394 0.71715,-2.04551c0.48353,-0.52156 1.1545,-0.78234 2.01292,-0.78234c0.81494,0 1.44517,0.2472 1.89067,0.7416c0.4455,0.48897 0.66825,1.02139 0.66825,1.59729c0,0.25535 -0.07334,0.45908 -0.22004,0.61121c-0.14669,0.14669 -0.45637,0.22004 -0.92904,0.22004zM195.5443,179.55584h2.53447c-0.01631,-0.46181 -0.14397,-0.81494 -0.38301,-1.05942c-0.23905,-0.24448 -0.53243,-0.36672 -0.88014,-0.36672c-0.73889,0 -1.16265,0.47538 -1.27131,1.42615zM202.44483,181.21018l1.21427,-3.30867c0.11952,-0.32598 0.2309,-0.527 0.33413,-0.60306c0.10323,-0.08149 0.22004,-0.12224 0.35043,-0.12224c0.18473,0 0.33684,0.06248 0.45636,0.18744c0.12496,0.12496 0.18744,0.25535 0.18744,0.39118c0,0.12496 -0.06791,0.35857 -0.20373,0.70084l-1.34465,3.30867c-0.18473,0.47267 -0.345,0.76876 -0.48082,0.88829c-0.13039,0.11952 -0.30153,0.17929 -0.51341,0.17929c-0.26622,0 -0.46181,-0.07334 -0.58677,-0.22004c-0.11952,-0.15212 -0.26078,-0.43464 -0.42377,-0.84754l-1.32836,-3.27607c-0.14125,-0.33141 -0.21189,-0.56775 -0.21189,-0.709c0,-0.14669 0.06248,-0.28252 0.18744,-0.40748c0.13039,-0.13039 0.29067,-0.19559 0.48083,-0.19559c0.21189,0 0.35858,0.05976 0.44007,0.17928c0.08693,0.11952 0.19287,0.34771 0.31783,0.68456zM209.72941,180.34634h-2.73005c0.01631,0.51613 0.15755,0.90459 0.42376,1.16537c0.27165,0.26078 0.59763,0.39117 0.97794,0.39117c0.46181,0 0.89916,-0.20373 1.31206,-0.6112c0.16843,-0.16843 0.29065,-0.27165 0.36673,-0.30968c0.08149,-0.04346 0.17114,-0.0652 0.26893,-0.0652c0.12496,0 0.2309,0.04076 0.31783,0.12225c0.09236,0.07606 0.13854,0.17114 0.13854,0.28523c0,0.31511 -0.2146,0.64652 -0.6438,0.99423c-0.42377,0.34227 -1.00238,0.51342 -1.73582,0.51342c-0.92904,0 -1.63532,-0.2635 -2.11886,-0.79049c-0.4781,-0.527 -0.71715,-1.20612 -0.71715,-2.03736c0,-0.84211 0.23905,-1.52394 0.71715,-2.04551c0.48353,-0.52156 1.15449,-0.78234 2.01291,-0.78234c0.81494,0 1.44517,0.2472 1.89067,0.7416c0.4455,0.48897 0.66825,1.02139 0.66825,1.59729c0,0.25535 -0.07334,0.45908 -0.22003,0.61121c-0.14669,0.14669 -0.45637,0.22004 -0.92904,0.22004zM206.99935,179.55584h2.53447c-0.01631,-0.46181 -0.14398,-0.81494 -0.38302,-1.05942c-0.23905,-0.24448 -0.53243,-0.36672 -0.88013,-0.36672c-0.73889,0 -1.16265,0.47538 -1.27131,1.42615zM212.04079,181.6747v-3.5613c0,-0.62479 0.22819,-0.93719 0.68456,-0.93719c0.44007,0 0.66553,0.28794 0.6764,0.86384c0.28794,-0.5759 0.68727,-0.86384 1.19797,-0.86384c0.26622,0 0.54329,0.07064 0.83124,0.21189c0.28794,0.14125 0.43193,0.33413 0.43193,0.57862c0,0.16843 -0.05977,0.30967 -0.17929,0.42377c-0.1141,0.10865 -0.23633,0.16298 -0.36673,0.16298c-0.07606,0 -0.21189,-0.02988 -0.40748,-0.08963c-0.19559,-0.05977 -0.35858,-0.08964 -0.48897,-0.08964c-0.33141,0 -0.57861,0.16842 -0.74159,0.50526c-0.16298,0.33141 -0.24448,0.97793 -0.24448,1.93957v0.80679c0,0.35313 -0.0163,0.59219 -0.0489,0.71715c-0.02717,0.12496 -0.10323,0.23906 -0.22819,0.34227c-0.11952,0.09779 -0.25806,0.14669 -0.41561,0.14669c-0.15756,0 -0.29881,-0.04618 -0.42377,-0.13854c-0.11952,-0.09236 -0.19559,-0.1983 -0.22818,-0.31783c-0.0326,-0.12496 -0.0489,-0.35858 -0.0489,-0.70085zM218.02758,182.69337l-1.69509,-4.31105c-0.10865,-0.27708 -0.16298,-0.46996 -0.16298,-0.57861c0,-0.15756 0.06519,-0.30153 0.19559,-0.43192c0.13582,-0.13039 0.29338,-0.19559 0.47267,-0.19559c0.15756,0 0.29065,0.0489 0.39933,0.14669c0.10865,0.09236 0.21733,0.28794 0.32598,0.58677l1.17351,3.42276l1.11648,-3.17012c0.14669,-0.4129 0.2635,-0.67912 0.35042,-0.79865c0.08693,-0.12496 0.23633,-0.18743 0.44822,-0.18743c0.19015,0 0.33955,0.06519 0.44821,0.19559c0.10865,0.12496 0.16299,0.25263 0.16299,0.38302c0,0.15756 -0.05433,0.38031 -0.16299,0.66825l-1.81732,4.75112c-0.23905,0.63022 -0.48897,1.07302 -0.74975,1.32837c-0.25535,0.26078 -0.69542,0.39117 -1.32021,0.39117c-0.80408,0 -1.20612,-0.20646 -1.20612,-0.61936c0,-0.13582 0.04346,-0.24992 0.13039,-0.34227c0.09236,-0.09236 0.2146,-0.13854 0.36673,-0.13854c0.02717,0 0.10595,0.00544 0.23633,0.01631c0.13582,0.01086 0.21459,0.0163 0.23633,0.0163c0.25535,0 0.44279,-0.06248 0.56231,-0.18744c0.12496,-0.11952 0.2472,-0.3314 0.36673,-0.63565zM224.56242,177.17621c0.86385,0 1.54296,0.26621 2.03736,0.79865c0.4944,0.527 0.7416,1.2034 0.7416,2.02921c0,0.8258 -0.24992,1.50494 -0.74975,2.03736c-0.49983,0.527 -1.16265,0.7905 -1.98846,0.7905c-0.89644,0 -1.58913,-0.26893 -2.07811,-0.80679c-0.48897,-0.53786 -0.73344,-1.21155 -0.73344,-2.02105c0,-0.8258 0.24719,-1.50221 0.7416,-2.02921c0.4944,-0.53243 1.1708,-0.79865 2.02921,-0.79865zM224.56242,181.79694c0.42377,0 0.7579,-0.15756 1.00238,-0.47267c0.24448,-0.32054 0.36673,-0.76061 0.36673,-1.32021c0,-0.56502 -0.12225,-1.00509 -0.36673,-1.32021c-0.24448,-0.32054 -0.5786,-0.48082 -1.00237,-0.48082c-0.4129,0 -0.74431,0.16027 -0.99423,0.48083c-0.24448,0.32054 -0.36673,0.76061 -0.36673,1.32021c0,0.5596 0.12225,0.99967 0.36673,1.32021c0.24448,0.31511 0.5759,0.47267 0.99423,0.47267zM233.34037,179.39285v2.28185c0,0.29881 -0.01358,0.51613 -0.04075,0.65195c-0.02173,0.13039 -0.09508,0.2472 -0.22004,0.35043c-0.11952,0.10323 -0.26078,0.15484 -0.42376,0.15484c-0.15212,0 -0.29338,-0.04618 -0.42377,-0.13854c-0.12496,-0.09236 -0.20374,-0.20917 -0.23633,-0.35042c-0.0326,-0.14669 -0.0489,-0.36944 -0.0489,-0.66825v-1.99661c0,-0.5596 -0.08421,-0.93448 -0.25263,-1.12463c-0.16298,-0.19559 -0.39118,-0.29338 -0.68456,-0.29338c-0.26078,0 -0.49169,0.07606 -0.6927,0.22819c-0.20102,0.15212 -0.34228,0.345 -0.42377,0.57862c-0.08149,0.22819 -0.12224,0.61936 -0.12224,1.17351v1.4343c0,0.29338 -0.01087,0.50799 -0.0326,0.64381c-0.02173,0.13039 -0.09507,0.24992 -0.22003,0.35857c-0.12496,0.10323 -0.26893,0.15485 -0.43192,0.15485c-0.15756,0 -0.30153,-0.04618 -0.43192,-0.13854c-0.12496,-0.09779 -0.20102,-0.2146 -0.22819,-0.35042c-0.02717,-0.14125 -0.04075,-0.364 -0.04075,-0.66825v-3.42277c0,-0.30968 0.01358,-0.52428 0.04075,-0.6438c0.0326,-0.12496 0.10595,-0.2282 0.22004,-0.30968c0.11952,-0.08149 0.25264,-0.12224 0.39933,-0.12224c0.13582,0 0.27707,0.05433 0.42376,0.16299c0.14669,0.10323 0.22004,0.36129 0.22004,0.7742c0.46723,-0.62479 1.06486,-0.93719 1.79288,-0.93719c0.27708,0 0.55144,0.05433 0.82309,0.16298c0.27165,0.10323 0.49169,0.27164 0.66012,0.50526c0.17385,0.23362 0.27981,0.4781 0.31783,0.73345c0.03803,0.25535 0.05704,0.527 0.05704,0.81494zM238.61408,180.34634h-2.73005c0.01631,0.51613 0.15756,0.90459 0.42377,1.16537c0.27165,0.26078 0.59763,0.39117 0.97794,0.39117c0.46181,0 0.89916,-0.20373 1.31206,-0.6112c0.16843,-0.16843 0.29065,-0.27165 0.36673,-0.30968c0.08149,-0.04346 0.17113,-0.0652 0.26892,-0.0652c0.12496,0 0.23091,0.04076 0.31783,0.12225c0.09236,0.07606 0.13854,0.17114 0.13854,0.28523c0,0.31511 -0.2146,0.64652 -0.6438,0.99423c-0.42377,0.34227 -1.00238,0.51342 -1.73582,0.51342c-0.92904,0 -1.63532,-0.2635 -2.11886,-0.79049c-0.4781,-0.527 -0.71715,-1.20612 -0.71715,-2.03736c0,-0.84211 0.23905,-1.52394 0.71715,-2.04551c0.48353,-0.52156 1.15449,-0.78234 2.01291,-0.78234c0.81494,0 1.44517,0.2472 1.89067,0.7416c0.4455,0.48897 0.66825,1.02139 0.66825,1.59729c0,0.25535 -0.07334,0.45908 -0.22003,0.61121c-0.14669,0.14669 -0.45637,0.22004 -0.92904,0.22004zM235.88403,179.55584h2.53448c-0.01631,-0.46181 -0.14398,-0.81494 -0.38302,-1.05942c-0.23905,-0.24448 -0.53243,-0.36672 -0.88013,-0.36672c-0.73889,0 -1.16266,0.47538 -1.27131,1.42615zM241.33498,181.29167c0.20645,0 0.38302,0.07606 0.52971,0.22819c0.15212,0.14669 0.22818,0.32598 0.22818,0.53786c0,0.20645 -0.07605,0.38845 -0.22818,0.54601c-0.14669,0.15212 -0.32327,0.22819 -0.52971,0.22819c-0.21189,0 -0.39389,-0.07606 -0.54601,-0.22819c-0.15212,-0.15212 -0.22818,-0.33412 -0.22818,-0.54601c0,-0.21189 0.07605,-0.39117 0.22818,-0.53786c0.15212,-0.15212 0.33413,-0.22819 0.54602,-0.22819zM248.34858,176.40201v1.90697h2.24925c0.26621,0 0.44822,0.01358 0.54602,0.04075c0.10323,0.02717 0.19287,0.09237 0.26893,0.1956c0.08149,0.10323 0.12225,0.21459 0.12225,0.33413c0,0.15756 -0.05977,0.2961 -0.17929,0.41562c-0.1141,0.11952 -0.36673,0.17929 -0.7579,0.17929h-2.24925v2.10255c0,0.30425 -0.01358,0.52971 -0.04075,0.67641c-0.02173,0.14669 -0.08963,0.27979 -0.20373,0.39933c-0.10865,0.11952 -0.27979,0.17929 -0.51341,0.17929c-0.22819,0 -0.39932,-0.05977 -0.51341,-0.17929c-0.10865,-0.11952 -0.17657,-0.25535 -0.20373,-0.40748c-0.02173,-0.15756 -0.0326,-0.38031 -0.0326,-0.66825v-5.0771c0,-0.5433 0.03804,-0.85298 0.1141,-0.92904c0.08149,-0.07606 0.16842,-0.1494 0.26078,-0.22003c0.09779,-0.07606 0.39389,-0.1141 0.88829,-0.1141h2.97455c0.26078,0 0.4455,0.01086 0.55416,0.0326c0.10866,0.01631 0.20374,0.07606 0.28523,0.17929c0.08692,0.10323 0.13039,0.22546 0.13039,0.36673c0,0.14125 -0.04347,0.2635 -0.13039,0.36673c-0.08149,0.10323 -0.17657,0.1657 -0.28523,0.18744c-0.10865,0.02173 -0.29338,0.0326 -0.55416,0.0326zM256.32893,182.04142c-0.65739,0.527 -1.30391,0.7905 -1.93957,0.7905c-0.60306,0 -1.06757,-0.15212 -1.39355,-0.45637c-0.32054,-0.30968 -0.48082,-0.68455 -0.48082,-1.12463c0,-0.38031 0.10865,-0.68456 0.32598,-0.91273c0.22275,-0.23362 0.4618,-0.39661 0.71715,-0.48896c0.26078,-0.09236 0.68184,-0.1983 1.26317,-0.31783c0.58132,-0.11952 1.05129,-0.2309 1.40986,-0.33413c-0.00544,-0.42377 -0.08964,-0.70899 -0.25263,-0.85569c-0.16298,-0.14669 -0.41019,-0.22004 -0.74159,-0.22004c-0.63022,0 -1.04314,0.17658 -1.23872,0.52971c-0.10866,0.20102 -0.20646,0.345 -0.29338,0.43192c-0.08149,0.08149 -0.20102,0.12225 -0.35857,0.12225c-0.14669,0 -0.27979,-0.04617 -0.39932,-0.13853c-0.11952,-0.09779 -0.17929,-0.22546 -0.17929,-0.38302c0,-0.35857 0.19559,-0.69814 0.58677,-1.01868c0.39117,-0.32598 1.00509,-0.48896 1.84177,-0.48896c0.84754,0 1.46689,0.14669 1.85807,0.44007c0.39661,0.29338 0.58404,0.88558 0.56231,1.77658l-0.03259,1.30391c-0.01086,0.40748 0.02988,0.73889 0.12225,0.99423c0.09779,0.24992 0.14669,0.44279 0.14669,0.57861c0,0.14669 -0.06519,0.27708 -0.19559,0.39117c-0.12496,0.1141 -0.26893,0.17114 -0.43192,0.17114c-0.28252,0 -0.58132,-0.2635 -0.89644,-0.79049zM256.23928,180.02851c-0.20646,0.08149 -0.54873,0.17114 -1.02683,0.26893c-0.4781,0.09236 -0.81766,0.20102 -1.01867,0.32598c-0.19559,0.11952 -0.29338,0.29882 -0.29338,0.53787c0,0.19559 0.07878,0.37216 0.23633,0.52971c0.15755,0.15212 0.38303,0.22818 0.6764,0.22818c0.30425,0 0.58677,-0.08421 0.84754,-0.25263c0.26622,-0.16843 0.42921,-0.36673 0.48896,-0.59491c0.05977,-0.23362 0.08964,-0.58132 0.08964,-1.04313zM261.25627,180.1752l-0.76605,0.70901v0.68456c0,0.33685 -0.01086,0.57861 -0.0326,0.7253c-0.02174,0.14125 -0.09779,0.26622 -0.22819,0.37488c-0.12496,0.10865 -0.27165,0.16298 -0.44008,0.16298c-0.15212,0 -0.29065,-0.04618 -0.41561,-0.13854c-0.12496,-0.09779 -0.20102,-0.20916 -0.22819,-0.33412c-0.02716,-0.13039 -0.04075,-0.37216 -0.04075,-0.7253v-5.31344c0,-0.50526 0.05977,-0.83396 0.17929,-0.98607c0.12496,-0.15212 0.30697,-0.22819 0.54602,-0.22819c0.17385,0 0.3124,0.04891 0.41562,0.14669c0.10865,0.09779 0.17657,0.21732 0.20374,0.35857c0.02717,0.14125 0.04075,0.364 0.04075,0.66825v3.06419l1.57285,-1.62988c0.23905,-0.24992 0.40204,-0.40204 0.48897,-0.45637c0.09236,-0.05433 0.1983,-0.0815 0.31783,-0.0815c0.17929,0 0.32598,0.05704 0.44007,0.17114c0.1141,0.1141 0.17114,0.23905 0.17114,0.37488c0,0.20645 -0.19015,0.48897 -0.57046,0.84754l-0.73344,0.67641l1.418,2.24109c0.20645,0.32598 0.30968,0.5596 0.30968,0.70085c0,0.16298 -0.05977,0.31241 -0.17929,0.44822c-0.11952,0.13039 -0.27979,0.19559 -0.48082,0.19559c-0.16843,0 -0.30696,-0.0489 -0.41562,-0.14669c-0.10323,-0.10323 -0.22275,-0.26893 -0.35857,-0.49712zM268.47668,180.34634h-2.73005c0.0163,0.51613 0.15755,0.90459 0.42377,1.16537c0.27165,0.26078 0.59763,0.39117 0.97794,0.39117c0.4618,0 0.89916,-0.20373 1.31206,-0.6112c0.16843,-0.16843 0.29065,-0.27165 0.36673,-0.30968c0.08149,-0.04346 0.17114,-0.0652 0.26893,-0.0652c0.12496,0 0.2309,0.04076 0.31783,0.12225c0.09236,0.07606 0.13854,0.17114 0.13854,0.28523c0,0.31511 -0.2146,0.64652 -0.64381,0.99423c-0.42377,0.34227 -1.00238,0.51342 -1.73582,0.51342c-0.92904,0 -1.63532,-0.2635 -2.11886,-0.79049c-0.4781,-0.527 -0.71715,-1.20612 -0.71715,-2.03736c0,-0.84211 0.23905,-1.52394 0.71715,-2.04551c0.48353,-0.52156 1.15449,-0.78234 2.01291,-0.78234c0.81494,0 1.44517,0.2472 1.89067,0.7416c0.4455,0.48897 0.66826,1.02139 0.66826,1.59729c0,0.25535 -0.07334,0.45908 -0.22004,0.61121c-0.14669,0.14669 -0.45637,0.22004 -0.92904,0.22004zM265.74663,179.55584h2.53447c-0.0163,-0.46181 -0.14397,-0.81494 -0.38301,-1.05942c-0.23905,-0.24448 -0.53243,-0.36672 -0.88014,-0.36672c-0.73889,0 -1.16265,0.47538 -1.2713,1.42615zM277.19352,176.40201v5.1749c0,0.32598 -0.01358,0.56231 -0.04075,0.709c-0.02716,0.14125 -0.10866,0.26893 -0.24448,0.38303c-0.13583,0.10865 -0.29065,0.16298 -0.46451,0.16298c-0.17929,0 -0.33685,-0.05162 -0.47267,-0.15484c-0.13582,-0.10323 -0.21733,-0.22819 -0.24448,-0.37488c-0.02174,-0.15212 -0.03259,-0.39388 -0.03259,-0.7253v-5.17489h-1.3854c-0.29881,0 -0.50527,-0.01086 -0.61936,-0.0326c-0.10866,-0.02717 -0.20646,-0.09236 -0.29338,-0.19559c-0.08693,-0.10323 -0.13039,-0.22275 -0.13039,-0.35858c0,-0.10323 0.02716,-0.20373 0.08149,-0.30153c0.05977,-0.10323 0.13854,-0.17385 0.23633,-0.21189c0.09779,-0.04346 0.33956,-0.06519 0.72531,-0.06519h4.25401c0.34771,0 0.57046,0.01358 0.66825,0.04075c0.09779,0.02717 0.18473,0.09236 0.26079,0.19559c0.07606,0.10323 0.11409,0.21732 0.11409,0.34227c0,0.10323 -0.02988,0.20646 -0.08964,0.30968c-0.05433,0.09779 -0.13311,0.16842 -0.23633,0.21188c-0.09779,0.04346 -0.33684,0.0652 -0.71715,0.0652zM283.40543,182.04142c-0.65738,0.527 -1.3039,0.7905 -1.93957,0.7905c-0.60305,0 -1.06757,-0.15212 -1.39355,-0.45637c-0.32054,-0.30968 -0.48082,-0.68455 -0.48082,-1.12463c0,-0.38031 0.10865,-0.68456 0.32598,-0.91273c0.22275,-0.23362 0.46181,-0.39661 0.71715,-0.48896c0.26078,-0.09236 0.68184,-0.1983 1.26317,-0.31783c0.58132,-0.11952 1.05128,-0.2309 1.40986,-0.33413c-0.00544,-0.42377 -0.08964,-0.70899 -0.25263,-0.85569c-0.16299,-0.14669 -0.41019,-0.22004 -0.7416,-0.22004c-0.63022,0 -1.04313,0.17658 -1.23872,0.52971c-0.10865,0.20102 -0.20645,0.345 -0.29338,0.43192c-0.08149,0.08149 -0.20102,0.12225 -0.35858,0.12225c-0.14669,0 -0.27979,-0.04617 -0.39933,-0.13853c-0.11952,-0.09779 -0.17928,-0.22546 -0.17928,-0.38302c0,-0.35857 0.19559,-0.69814 0.58676,-1.01868c0.39117,-0.32598 1.0051,-0.48896 1.84177,-0.48896c0.84754,0 1.4669,0.14669 1.85807,0.44007c0.39661,0.29338 0.58404,0.88558 0.56231,1.77658l-0.0326,1.30391c-0.01086,0.40748 0.02988,0.73889 0.12225,0.99423c0.09779,0.24992 0.14669,0.44279 0.14669,0.57861c0,0.14669 -0.06519,0.27708 -0.19559,0.39117c-0.12496,0.1141 -0.26893,0.17114 -0.43192,0.17114c-0.28252,0 -0.58133,-0.2635 -0.89644,-0.79049zM283.31579,180.02851c-0.20645,0.08149 -0.54873,0.17114 -1.02683,0.26893c-0.4781,0.09236 -0.81766,0.20102 -1.01867,0.32598c-0.19559,0.11952 -0.29339,0.29882 -0.29339,0.53787c0,0.19559 0.07878,0.37216 0.23634,0.52971c0.15756,0.15212 0.38303,0.22818 0.67641,0.22818c0.30424,0 0.58677,-0.08421 0.84754,-0.25263c0.26621,-0.16843 0.4292,-0.36673 0.48896,-0.59491c0.05977,-0.23362 0.08966,-0.58132 0.08966,-1.04313zM287.15113,178.61865c0,0.17929 0.09236,0.32054 0.27708,0.42377c0.18473,0.10323 0.60305,0.23362 1.25502,0.39118c1.26044,0.30968 1.89066,0.83396 1.89066,1.57284c0,0.59219 -0.21459,1.04585 -0.6438,1.36096c-0.42377,0.30968 -1.01597,0.46452 -1.77658,0.46452c-0.77691,0 -1.36095,-0.16027 -1.75213,-0.48082c-0.39117,-0.32054 -0.58677,-0.66011 -0.58677,-1.01868c0,-0.15212 0.05433,-0.28252 0.16298,-0.39117c0.10866,-0.10865 0.24177,-0.16298 0.39933,-0.16298c0.21733,0 0.40748,0.13582 0.57046,0.40748c0.18473,0.29881 0.38574,0.49712 0.60306,0.59491c0.22275,0.09779 0.45908,0.14669 0.709,0.14669c0.28252,0 0.51069,-0.06248 0.68455,-0.18744c0.17385,-0.12496 0.26078,-0.28252 0.26078,-0.47267c0,-0.17385 -0.07334,-0.32326 -0.22004,-0.44821c-0.14669,-0.12496 -0.55144,-0.2635 -1.21426,-0.41561c-0.65739,-0.15212 -1.13821,-0.36401 -1.44245,-0.63566c-0.30425,-0.27708 -0.45637,-0.60305 -0.45637,-0.97793c0,-0.42377 0.18473,-0.79865 0.55416,-1.12463c0.36944,-0.32598 0.92359,-0.48896 1.66248,-0.48896c0.67369,0 1.20883,0.13854 1.60544,0.41562c0.40203,0.27165 0.60306,0.55416 0.60306,0.84754c0,0.15756 -0.05162,0.29065 -0.15484,0.39933c-0.09779,0.10865 -0.23632,0.16298 -0.41561,0.16298c-0.27165,0 -0.51613,-0.15484 -0.73345,-0.46451c-0.21188,-0.30968 -0.53515,-0.46452 -0.96978,-0.46452c-0.23362,0 -0.43734,0.0489 -0.6112,0.14669c-0.17385,0.09236 -0.26078,0.22546 -0.26078,0.39933zM293.98646,180.1752l-0.76605,0.70901v0.68456c0,0.33685 -0.01086,0.57861 -0.03259,0.7253c-0.02173,0.14125 -0.09779,0.26622 -0.22819,0.37488c-0.12496,0.10865 -0.27165,0.16298 -0.44007,0.16298c-0.15212,0 -0.29065,-0.04618 -0.41561,-0.13854c-0.12496,-0.09779 -0.20102,-0.20916 -0.22819,-0.33412c-0.02717,-0.13039 -0.04075,-0.37216 -0.04075,-0.7253v-5.31344c0,-0.50526 0.05977,-0.83396 0.17929,-0.98607c0.12496,-0.15212 0.30696,-0.22819 0.54602,-0.22819c0.17385,0 0.3124,0.04891 0.41562,0.14669c0.10866,0.09779 0.17658,0.21732 0.20374,0.35857c0.02716,0.14125 0.04075,0.364 0.04075,0.66825v3.06419l1.57284,-1.62988c0.23905,-0.24992 0.40204,-0.40204 0.48897,-0.45637c0.09236,-0.05433 0.1983,-0.0815 0.31783,-0.0815c0.17929,0 0.32598,0.05704 0.44007,0.17114c0.11409,0.1141 0.17114,0.23905 0.17114,0.37488c0,0.20645 -0.19015,0.48897 -0.57046,0.84754l-0.73344,0.67641l1.418,2.24109c0.20646,0.32598 0.30968,0.5596 0.30968,0.70085c0,0.16298 -0.05977,0.31241 -0.17929,0.44822c-0.11952,0.13039 -0.27979,0.19559 -0.48082,0.19559c-0.16843,0 -0.30696,-0.0489 -0.41561,-0.14669c-0.10323,-0.10323 -0.22275,-0.26893 -0.35858,-0.49712zM298.52469,178.61865c0,0.17929 0.09236,0.32054 0.27708,0.42377c0.18471,0.10323 0.60305,0.23362 1.25501,0.39118c1.26044,0.30968 1.89067,0.83396 1.89067,1.57284c0,0.59219 -0.2146,1.04585 -0.64381,1.36096c-0.42377,0.30968 -1.01597,0.46452 -1.77658,0.46452c-0.77691,0 -1.36095,-0.16027 -1.75213,-0.48082c-0.39117,-0.32054 -0.58676,-0.66011 -0.58676,-1.01868c0,-0.15212 0.05433,-0.28252 0.16298,-0.39117c0.10866,-0.10865 0.24176,-0.16298 0.39933,-0.16298c0.21733,0 0.40747,0.13582 0.57046,0.40748c0.18471,0.29881 0.38574,0.49712 0.60305,0.59491c0.22275,0.09779 0.45908,0.14669 0.709,0.14669c0.28252,0 0.51069,-0.06248 0.68456,-0.18744c0.17385,-0.12496 0.26078,-0.28252 0.26078,-0.47267c0,-0.17385 -0.07335,-0.32326 -0.22004,-0.44821c-0.14669,-0.12496 -0.55145,-0.2635 -1.21427,-0.41561c-0.65738,-0.15212 -1.1382,-0.36401 -1.44245,-0.63566c-0.30424,-0.27708 -0.45636,-0.60305 -0.45636,-0.97793c0,-0.42377 0.18471,-0.79865 0.55415,-1.12463c0.36944,-0.32598 0.92359,-0.48896 1.66248,-0.48896c0.67369,0 1.20883,0.13854 1.60545,0.41562c0.40203,0.27165 0.60305,0.55416 0.60305,0.84754c0,0.15756 -0.05161,0.29065 -0.15484,0.39933c-0.09779,0.10865 -0.23633,0.16298 -0.41562,0.16298c-0.27165,0 -0.51613,-0.15484 -0.73344,-0.46451c-0.21188,-0.30968 -0.53515,-0.46452 -0.96978,-0.46452c-0.23362,0 -0.43735,0.0489 -0.6112,0.14669c-0.17385,0.09236 -0.26078,0.22546 -0.26078,0.39933zM304.03981,177.17621c0.20646,0 0.38303,0.07605 0.52971,0.22818c0.15212,0.14669 0.22819,0.32326 0.22819,0.52971c0,0.21189 -0.07606,0.39389 -0.22819,0.54602c-0.14669,0.15212 -0.32326,0.22819 -0.52971,0.22819c-0.21188,0 -0.39389,-0.07606 -0.54601,-0.22819c-0.15212,-0.15212 -0.22819,-0.33413 -0.22819,-0.54602c0,-0.20645 0.07606,-0.38302 0.22819,-0.52971c0.15212,-0.15212 0.33414,-0.22818 0.54602,-0.22818zM304.03981,181.29167c0.20646,0 0.38303,0.07606 0.52971,0.22819c0.15212,0.14669 0.22819,0.32598 0.22819,0.53786c0,0.20645 -0.07606,0.38845 -0.22819,0.54601c-0.14669,0.15212 -0.32326,0.22819 -0.52971,0.22819c-0.21188,0 -0.39389,-0.07606 -0.54601,-0.22819c-0.15212,-0.15212 -0.22819,-0.33412 -0.22819,-0.54601c0,-0.21189 0.07606,-0.39117 0.22819,-0.53786c0.15212,-0.15212 0.33414,-0.22819 0.54602,-0.22819z"/></g></g></svg>