<svg version="1.1" xmlns="http://www.w3.org/2000/svg" xmlns:xlink="http://www.w3.org/1999/xlink" width="706.21021" height="368" viewBox="0,0,706.21021,368"><g transform="translate(23.10511,4)"><g data-paper-data="{&quot;isPaintingLayer&quot;:true}" fill-rule="nonzero" stroke-linejoin="miter" stroke-miterlimit="10" stroke-dasharray="" stroke-dashoffset="0" style="mix-blend-mode: normal"><path d="M-22.1051,363v-366h704.21021v366z" fill="#000000" stroke="#000000" stroke-width="2" stroke-linecap="butt"/><path d="M216.45003,140.21912h-6.74221l-0.79053,2.0899c-0.32106,0.86019 -0.59366,1.42962 -0.81779,1.70827c-0.21807,0.27866 -0.57246,0.41798 -1.06313,0.41798c-0.45433,0 -0.839,-0.1575 -1.15399,-0.4725c-0.30894,-0.315 -0.46341,-0.65423 -0.46341,-1.01769c0,-0.38163 0.1575,-0.96318 0.4725,-1.74461l4.27976,-10.81299c0.37557,-0.97529 0.6512,-1.63255 0.82688,-1.97178c0.18173,-0.34529 0.45433,-0.63001 0.81779,-0.85414c0.36952,-0.23019 0.78145,-0.34529 1.23577,-0.34529c0.53914,0 1.01164,0.14236 1.4175,0.42706c0.40586,0.28472 0.72692,0.71784 0.96318,1.29938l4.92491,12.16688c0.32711,0.82384 0.49067,1.4175 0.49067,1.78097c0,0.38163 -0.1575,0.73601 -0.4725,1.06313c-0.315,0.32106 -0.70572,0.48159 -1.17216,0.48159c-0.50279,0 -0.86322,-0.14236 -1.0813,-0.42706c-0.21807,-0.28472 -0.50279,-0.86625 -0.85414,-1.74461zM210.57103,137.62037h4.9976l-2.53514,-6.85125zM226.21125,129.76959v12.10327c0,0.7451 -0.03635,1.25394 -0.10904,1.52654c-0.06663,0.26654 -0.23928,0.50581 -0.51793,0.71784c-0.27866,0.21203 -0.58154,0.31803 -0.90865,0.31803c-0.33317,0 -0.64515,-0.10298 -0.93591,-0.30894c-0.28472,-0.21203 -0.46341,-0.45736 -0.53611,-0.73601c-0.06663,-0.27866 -0.09995,-0.78447 -0.09995,-1.51745v-12.10327c0,-0.76327 0.03635,-1.27818 0.10904,-1.54472c0.07269,-0.2726 0.24534,-0.50885 0.51793,-0.70876c0.27866,-0.19991 0.58154,-0.29986 0.90865,-0.29986c0.38163,0 0.70876,0.10904 0.98134,0.32711c0.27866,0.21203 0.44524,0.46644 0.49975,0.76327c0.06057,0.29076 0.09087,0.77841 0.09087,1.46293zM232.51503,129.76959v12.10327c0,0.7451 -0.03635,1.25394 -0.10904,1.52654c-0.06663,0.26654 -0.23928,0.50581 -0.51793,0.71784c-0.27866,0.21203 -0.58154,0.31803 -0.90865,0.31803c-0.33317,0 -0.64515,-0.10298 -0.93591,-0.30894c-0.28472,-0.21203 -0.46341,-0.45736 -0.53611,-0.73601c-0.06663,-0.27866 -0.09995,-0.78447 -0.09995,-1.51745v-12.10327c0,-0.76327 0.03635,-1.27818 0.10904,-1.54472c0.07269,-0.2726 0.24534,-0.50885 0.51793,-0.70876c0.27866,-0.19991 0.58154,-0.29986 0.90865,-0.29986c0.38163,0 0.70876,0.10904 0.98134,0.32711c0.27866,0.21203 0.44524,0.46644 0.49975,0.76327c0.06057,0.29076 0.09087,0.77841 0.09087,1.46293zM242.59883,141.87287v-7.95072c0,-1.39327 0.51187,-2.0899 1.53562,-2.0899c0.97529,0 1.47505,0.64211 1.49928,1.92635c0.64211,-1.28424 1.52957,-1.92635 2.66236,-1.92635c0.59971,0 1.21759,0.1575 1.85366,0.4725c0.64211,0.30894 0.96318,0.73601 0.96318,1.2812c0,0.38163 -0.13024,0.69664 -0.39072,0.945c-0.25442,0.24231 -0.52702,0.36347 -0.81779,0.36347c-0.16961,0 -0.4725,-0.06663 -0.90865,-0.19991c-0.43616,-0.13326 -0.79961,-0.19991 -1.09039,-0.19991c-0.7451,0 -1.29938,0.37557 -1.66284,1.12674c-0.36347,0.75115 -0.5452,2.19895 -0.5452,4.34337v1.79005c0,0.7875 -0.03332,1.32058 -0.09995,1.59923c-0.06057,0.2726 -0.22717,0.52096 -0.49975,0.7451c-0.2726,0.22413 -0.5876,0.33621 -0.945,0.33621c-0.33923,0 -0.64515,-0.09995 -0.91775,-0.29986c-0.2726,-0.19991 -0.44827,-0.43616 -0.52702,-0.70876c-0.07269,-0.27866 -0.10904,-0.79659 -0.10904,-1.5538zM258.22995,131.83223c1.92029,0 3.43168,0.59366 4.53418,1.78097c1.1025,1.18125 1.65375,2.68658 1.65375,4.51602c0,1.84154 -0.56034,3.35293 -1.68101,4.53418c-1.11462,1.18125 -2.59269,1.77187 -4.43423,1.77187c-1.99904,0 -3.54072,-0.59668 -4.62505,-1.79005c-1.08433,-1.19943 -1.62649,-2.70476 -1.62649,-4.51602c0,-1.83548 0.54822,-3.34385 1.64467,-4.5251c1.1025,-1.18125 2.61389,-1.77187 4.53418,-1.77187zM258.22995,142.12729c0.93895,0 1.68101,-0.35135 2.2262,-1.05404c0.55125,-0.70876 0.82688,-1.6901 0.82688,-2.94404c0,-1.25394 -0.27562,-2.23529 -0.82688,-2.94404c-0.5452,-0.70876 -1.28726,-1.06313 -2.2262,-1.06313c-0.92683,0 -1.66587,0.35741 -2.21711,1.07221c-0.55125,0.70876 -0.82688,1.68706 -0.82688,2.93495c0,1.26 0.2726,2.24134 0.81779,2.94404c0.55125,0.7027 1.29332,1.05404 2.2262,1.05404zM272.28002,131.83223c1.92029,0 3.43168,0.59366 4.53418,1.78097c1.1025,1.18125 1.65375,2.68658 1.65375,4.51602c0,1.84154 -0.56034,3.35293 -1.68101,4.53418c-1.11462,1.18125 -2.59269,1.77187 -4.43423,1.77187c-1.99904,0 -3.54072,-0.59668 -4.62505,-1.79005c-1.08433,-1.19943 -1.62649,-2.70476 -1.62649,-4.51602c0,-1.83548 0.54822,-3.34385 1.64467,-4.5251c1.1025,-1.18125 2.61389,-1.77187 4.53418,-1.77187zM272.28002,142.12729c0.93895,0 1.68101,-0.35135 2.2262,-1.05404c0.55125,-0.70876 0.82688,-1.6901 0.82688,-2.94404c0,-1.25394 -0.27562,-2.23529 -0.82688,-2.94404c-0.5452,-0.70876 -1.28726,-1.06313 -2.2262,-1.06313c-0.92683,0 -1.66587,0.35741 -2.21711,1.07221c-0.55125,0.70876 -0.82688,1.68706 -0.82688,2.93495c0,1.26 0.2726,2.24134 0.81779,2.94404c0.55125,0.7027 1.29332,1.05404 2.2262,1.05404zM298.4788,136.43002v5.35198c0,0.73298 -0.03029,1.25092 -0.09087,1.5538c-0.06057,0.29682 -0.22717,0.55428 -0.49975,0.77235c-0.26654,0.21807 -0.58456,0.32711 -0.95409,0.32711c-0.36347,0 -0.68149,-0.10601 -0.95409,-0.31803c-0.26654,-0.21807 -0.43312,-0.48765 -0.49975,-0.8087c-0.06663,-0.32106 -0.09995,-0.8299 -0.09995,-1.52654v-4.53418c0,-1.32663 -0.1575,-2.15654 -0.4725,-2.48971c-0.315,-0.33923 -0.7451,-0.50885 -1.29029,-0.50885c-0.56942,0 -1.04799,0.1575 -1.43568,0.4725c-0.38769,0.315 -0.65423,0.72692 -0.79961,1.23577c-0.14538,0.50279 -0.21807,1.29634 -0.21807,2.38068v3.4438c0,0.73298 -0.03029,1.25394 -0.09087,1.56288c-0.05452,0.30288 -0.22111,0.56034 -0.49975,0.77235c-0.2726,0.21203 -0.59366,0.31803 -0.96318,0.31803c-0.47855,0 -0.85414,-0.16053 -1.12674,-0.48159c-0.2726,-0.32106 -0.4089,-1.04495 -0.4089,-2.17169v-4.26159c0,-1.21153 -0.09087,-2.05961 -0.2726,-2.54424c-0.18173,-0.48461 -0.65423,-0.72692 -1.4175,-0.72692c-0.79355,0 -1.42054,0.25442 -1.88091,0.76327c-0.46038,0.50279 -0.69058,1.58712 -0.69058,3.25298v3.51649c0,0.7148 -0.02423,1.21759 -0.07269,1.50837c-0.04846,0.28472 -0.20899,0.54822 -0.48159,0.79053c-0.2726,0.23625 -0.59062,0.35437 -0.95409,0.35437c-0.34529,0 -0.66029,-0.10601 -0.945,-0.31803c-0.28472,-0.21203 -0.46341,-0.46644 -0.53611,-0.76327c-0.06663,-0.30288 -0.09995,-0.82688 -0.09995,-1.57198v-7.51458c0,-0.7148 0.03332,-1.19943 0.09995,-1.45385c0.06663,-0.26048 0.23322,-0.48765 0.49975,-0.68149c0.26654,-0.19991 0.55731,-0.29986 0.87231,-0.29986c0.9874,0 1.48111,0.63001 1.48111,1.89c1.04193,-1.26 2.29284,-1.89 3.75275,-1.89c1.56894,0 2.70779,0.63001 3.41654,1.89c1.05404,-1.26 2.28376,-1.89 3.68914,-1.89c1.08433,0 2.01116,0.29986 2.78048,0.89957c0.77539,0.59366 1.16308,1.8264 1.16308,3.69822zM310.74563,135.05795c0,0.39981 0.20899,0.7148 0.62697,0.945c0.41798,0.22413 1.34783,0.5149 2.78957,0.87231c2.81077,0.67846 4.21616,1.8476 4.21616,3.50741c0,1.30846 -0.4725,2.31101 -1.4175,3.00765c-0.945,0.69664 -2.27164,1.04495 -3.9799,1.04495c-1.72644,0 -3.02582,-0.35437 -3.89813,-1.06313c-0.87231,-0.7148 -1.30846,-1.46899 -1.30846,-2.26254c0,-0.33923 0.12116,-0.63001 0.36347,-0.87231c0.24231,-0.24231 0.53914,-0.36347 0.89048,-0.36347c0.48461,0 0.90865,0.30288 1.27212,0.90865c0.41192,0.66635 0.86322,1.10856 1.35389,1.32663c0.49067,0.21203 1.01769,0.31803 1.58106,0.31803c0.61789,0 1.12068,-0.1363 1.50837,-0.4089c0.39375,-0.27866 0.59062,-0.63001 0.59062,-1.05404c0,-0.38769 -0.16658,-0.7239 -0.49975,-1.0086c-0.32711,-0.28472 -1.22669,-0.59366 -2.6987,-0.92683c-1.47202,-0.33923 -2.54424,-0.81173 -3.21664,-1.4175c-0.6724,-0.61183 -1.0086,-1.33875 -1.0086,-2.18077c0,-0.945 0.4089,-1.78097 1.22669,-2.50789c0.82384,-0.72692 2.05659,-1.09039 3.69822,-1.09039c1.50837,0 2.70779,0.30591 3.59827,0.91775c0.89654,0.61183 1.34481,1.24789 1.34481,1.90817c0,0.34529 -0.1151,0.63909 -0.34529,0.8814c-0.22413,0.23625 -0.53611,0.35437 -0.93591,0.35437c-0.59971,0 -1.14188,-0.34225 -1.62649,-1.02678c-0.47855,-0.69058 -1.20245,-1.03587 -2.17169,-1.03587c-0.52096,0 -0.97832,0.10601 -1.37207,0.31803c-0.38769,0.21203 -0.58154,0.5149 -0.58154,0.90865zM324.10739,129.76959v12.10327c0,0.7451 -0.03635,1.25394 -0.10904,1.52654c-0.06663,0.26654 -0.23928,0.50581 -0.51793,0.71784c-0.27866,0.21203 -0.58154,0.31803 -0.90865,0.31803c-0.33317,0 -0.64515,-0.10298 -0.93591,-0.30894c-0.28472,-0.21203 -0.46341,-0.45736 -0.53611,-0.73601c-0.06663,-0.27866 -0.09995,-0.78447 -0.09995,-1.51745v-12.10327c0,-0.76327 0.03635,-1.27818 0.10904,-1.54472c0.07269,-0.2726 0.24534,-0.50885 0.51793,-0.70876c0.27866,-0.19991 0.58154,-0.29986 0.90865,-0.29986c0.38163,0 0.70876,0.10904 0.98134,0.32711c0.27866,0.21203 0.44524,0.46644 0.49975,0.76327c0.06057,0.29076 0.09087,0.77841 0.09087,1.46293zM332.72825,131.83223c1.92029,0 3.43168,0.59366 4.53418,1.78097c1.1025,1.18125 1.65375,2.68658 1.65375,4.51602c0,1.84154 -0.56034,3.35293 -1.68101,4.53418c-1.11462,1.18125 -2.59269,1.77187 -4.43423,1.77187c-1.99904,0 -3.54072,-0.59668 -4.62505,-1.79005c-1.08433,-1.19943 -1.62649,-2.70476 -1.62649,-4.51602c0,-1.83548 0.54822,-3.34385 1.64467,-4.5251c1.1025,-1.18125 2.61389,-1.77187 4.53418,-1.77187zM332.72825,142.12729c0.93895,0 1.68101,-0.35135 2.2262,-1.05404c0.55125,-0.70876 0.82688,-1.6901 0.82688,-2.94404c0,-1.25394 -0.27562,-2.23529 -0.82688,-2.94404c-0.5452,-0.70876 -1.28726,-1.06313 -2.2262,-1.06313c-0.92683,0 -1.66587,0.35741 -2.21711,1.07221c-0.55125,0.70876 -0.82688,1.68706 -0.82688,2.93495c0,1.26 0.2726,2.24134 0.81779,2.94404c0.55125,0.7027 1.29332,1.05404 2.2262,1.05404zM341.87158,132.10483v-1.86274c0,-0.76933 0.03029,-1.29029 0.09087,-1.56288c0.06663,-0.27866 0.23322,-0.52399 0.49975,-0.73601c0.2726,-0.21807 0.59062,-0.32711 0.95409,-0.32711c0.33317,0 0.63303,0.09995 0.89957,0.29986c0.26654,0.19385 0.44221,0.4301 0.52702,0.70876c0.08481,0.27866 0.12722,0.73298 0.12722,1.36298v2.11716h0.59971c0.75721,0 1.26,0.09389 1.50837,0.28168c0.25442,0.18173 0.38163,0.4513 0.38163,0.8087c0,0.76327 -0.63605,1.1449 -1.90817,1.1449h-0.58154v5.72453c0,0.76933 0.05452,1.29634 0.16356,1.58106c0.10904,0.27866 0.40284,0.41798 0.8814,0.41798c0.22413,0 0.47855,-0.03029 0.76327,-0.09087c0.28472,-0.06663 0.49673,-0.09995 0.63605,-0.09995c0.30894,0 0.56034,0.10298 0.75419,0.30894c0.19385,0.19991 0.29076,0.44524 0.29076,0.73601c0,1.01164 -1.07221,1.51745 -3.21664,1.51745c-1.03587,0 -1.79913,-0.19082 -2.28981,-0.57246c-0.49067,-0.38769 -0.79355,-0.85716 -0.90865,-1.40842c-0.1151,-0.55731 -0.17264,-1.27818 -0.17264,-2.1626v-5.95168h-0.4089c-0.92077,0 -1.38115,-0.37557 -1.38115,-1.12674c0,-0.73904 0.48159,-1.10856 1.44476,-1.10856zM351.94177,135.05795c0,0.39981 0.20899,0.7148 0.62697,0.945c0.41798,0.22413 1.34783,0.5149 2.78957,0.87231c2.81077,0.67846 4.21616,1.8476 4.21616,3.50741c0,1.30846 -0.4725,2.31101 -1.4175,3.00765c-0.945,0.69664 -2.27164,1.04495 -3.9799,1.04495c-1.72644,0 -3.02582,-0.35437 -3.89813,-1.06313c-0.87232,-0.7148 -1.30848,-1.46899 -1.30848,-2.26254c0,-0.33923 0.12116,-0.63001 0.36347,-0.87231c0.24232,-0.24231 0.53916,-0.36347 0.8905,-0.36347c0.48461,0 0.90865,0.30288 1.27212,0.90865c0.41192,0.66635 0.86322,1.10856 1.35389,1.32663c0.49067,0.21203 1.01769,0.31803 1.58106,0.31803c0.61789,0 1.12068,-0.1363 1.50837,-0.4089c0.39375,-0.27866 0.59062,-0.63001 0.59062,-1.05404c0,-0.38769 -0.16658,-0.7239 -0.49975,-1.0086c-0.32711,-0.28472 -1.22669,-0.59366 -2.6987,-0.92683c-1.47202,-0.33923 -2.54424,-0.81173 -3.21664,-1.4175c-0.67241,-0.61183 -1.00863,-1.33875 -1.00863,-2.18077c0,-0.945 0.4089,-1.78097 1.2267,-2.50789c0.82384,-0.72692 2.05659,-1.09039 3.69822,-1.09039c1.50837,0 2.70779,0.30591 3.59827,0.91775c0.89654,0.61183 1.34481,1.24789 1.34481,1.90817c0,0.34529 -0.1151,0.63909 -0.34529,0.8814c-0.22413,0.23625 -0.53611,0.35437 -0.93591,0.35437c-0.59971,0 -1.14188,-0.34225 -1.62649,-1.02678c-0.47855,-0.69058 -1.20245,-1.03587 -2.17169,-1.03587c-0.52096,0 -0.97832,0.10601 -1.37207,0.31803c-0.38769,0.21203 -0.58154,0.5149 -0.58154,0.90865zM376.94335,142.69065c-1.47807,1.16308 -2.92587,1.74461 -4.34337,1.74461c-1.33875,0 -2.36856,-0.33923 -3.08942,-1.01769c-0.7148,-0.68452 -1.07221,-1.51745 -1.07221,-2.4988c0,-0.84202 0.24231,-1.52048 0.72692,-2.03539c0.49067,-0.52096 1.02375,-0.88442 1.59923,-1.09039c0.57548,-0.20597 1.51139,-0.44221 2.80774,-0.70876c1.3024,-0.2726 2.35039,-0.52096 3.14394,-0.7451c-0.00606,-0.93895 -0.19082,-1.57198 -0.55428,-1.89909c-0.36347,-0.33317 -0.91775,-0.49975 -1.66284,-0.49975c-1.40538,0 -2.32615,0.39375 -2.76231,1.18125c-0.24231,0.44827 -0.45736,0.7663 -0.64515,0.95409c-0.18779,0.18779 -0.46038,0.28168 -0.81779,0.28168c-0.32711,0 -0.62395,-0.10601 -0.89048,-0.31803c-0.26048,-0.21807 -0.39072,-0.49673 -0.39072,-0.83596c0,-0.80567 0.43312,-1.56894 1.29938,-2.28981c0.87231,-0.72086 2.24438,-1.0813 4.1162,-1.0813c1.89605,0 3.28327,0.32711 4.16163,0.98134c0.87836,0.65423 1.29029,1.97784 1.23577,3.97082l-0.07269,2.90769c-0.03029,0.89654 0.06361,1.62953 0.28168,2.19895c0.21807,0.56942 0.32711,1.00558 0.32711,1.30846c0,0.32711 -0.14538,0.61485 -0.43616,0.86322c-0.28472,0.24837 -0.6088,0.37255 -0.97226,0.37255c-0.63001,0 -1.29332,-0.58154 -1.98996,-1.74461zM376.73436,138.2019c-0.46038,0.18173 -1.22365,0.37861 -2.28981,0.59062c-1.06009,0.21203 -1.81125,0.45433 -2.25346,0.72692c-0.44221,0.2726 -0.66332,0.66937 -0.66332,1.19033c0,0.44827 0.17568,0.84202 0.52702,1.18125c0.35135,0.33923 0.84808,0.50885 1.49019,0.50885c0.68452,0 1.31755,-0.18476 1.89909,-0.55428c0.5876,-0.37557 0.94803,-0.82082 1.0813,-1.33573c0.13932,-0.5149 0.20899,-1.28424 0.20899,-2.30798zM382.9064,141.87287v-7.95072c0,-1.39327 0.51187,-2.0899 1.53562,-2.0899c0.97529,0 1.47505,0.64211 1.49928,1.92635c0.64211,-1.28424 1.52957,-1.92635 2.66236,-1.92635c0.59971,0 1.21759,0.1575 1.85366,0.4725c0.64211,0.30894 0.96318,0.73601 0.96318,1.2812c0,0.38163 -0.13024,0.69664 -0.39072,0.945c-0.25442,0.24231 -0.52702,0.36347 -0.81779,0.36347c-0.16961,0 -0.4725,-0.06663 -0.90865,-0.19991c-0.43616,-0.13326 -0.79961,-0.19991 -1.09039,-0.19991c-0.7451,0 -1.29938,0.37557 -1.66284,1.12674c-0.36347,0.75115 -0.5452,2.19895 -0.5452,4.34337v1.79005c0,0.7875 -0.03332,1.32058 -0.09995,1.59923c-0.06057,0.2726 -0.22717,0.52096 -0.49975,0.7451c-0.2726,0.22413 -0.5876,0.33621 -0.945,0.33621c-0.33923,0 -0.64515,-0.09995 -0.91775,-0.29986c-0.2726,-0.19991 -0.44827,-0.43616 -0.52702,-0.70876c-0.07269,-0.27866 -0.10904,-0.79659 -0.10904,-1.5538zM401.77234,138.89247h-6.08798c0.03029,1.15096 0.34529,2.02024 0.945,2.60783c0.60577,0.5876 1.32663,0.8814 2.1626,0.8814c1.04193,0 2.02024,-0.45433 2.93495,-1.36298c0.36952,-0.38163 0.64211,-0.61789 0.81779,-0.70876c0.18173,-0.09087 0.38163,-0.1363 0.59971,-0.1363c0.27866,0 0.51793,0.08783 0.71784,0.26351c0.20597,0.17568 0.30894,0.39072 0.30894,0.64515c0,0.69664 -0.47855,1.42962 -1.43568,2.19895c-0.95106,0.76933 -2.24134,1.15399 -3.87087,1.15399c-2.07779,0 -3.65279,-0.58456 -4.72501,-1.75371c-1.06615,-1.16913 -1.59923,-2.68658 -1.59923,-4.55236c0,-1.87789 0.53308,-3.39534 1.59923,-4.55236c1.07221,-1.16308 2.5624,-1.74461 4.47058,-1.74461c1.82942,0 3.23784,0.54822 4.22524,1.64467c0.99346,1.09644 1.49019,2.28981 1.49019,3.5801c0,0.56336 -0.16658,1.01164 -0.49975,1.34481c-0.32711,0.32711 -1.01164,0.49067 -2.05355,0.49067zM395.68436,137.12969h5.64274c-0.03635,-1.02981 -0.32106,-1.81428 -0.85414,-2.35341c-0.52702,-0.53914 -1.18125,-0.8087 -1.9627,-0.8087c-1.64163,0 -2.58361,1.05404 -2.82592,3.16212zM414.31404,132.10483v-0.90865c0,-1.58712 0.32711,-2.64721 0.98134,-3.18029c0.66029,-0.53308 1.60529,-0.79961 2.835,-0.79961c1.96876,0 2.95312,0.44221 2.95312,1.32663c0,0.2726 -0.09389,0.5149 -0.28168,0.72692c-0.18779,0.21203 -0.43616,0.31803 -0.7451,0.31803c-0.06057,0 -0.26048,-0.0212 -0.59971,-0.06361c-0.33317,-0.04846 -0.52702,-0.07269 -0.58154,-0.07269c-0.43616,0 -0.79053,0.1151 -1.06313,0.34529c-0.26654,0.22413 -0.39981,0.7451 -0.39981,1.56288v0.7451h0.78145c1.16913,0 1.75371,0.36347 1.75371,1.09039c0,0.35135 -0.11207,0.63001 -0.33621,0.83596c-0.22413,0.20597 -0.69664,0.30894 -1.4175,0.30894h-0.78145v7.53274c0,0.58154 -0.02423,1.02375 -0.07269,1.32663c-0.04846,0.29682 -0.18779,0.57851 -0.41798,0.84504c-0.22413,0.26048 -0.57548,0.39072 -1.05404,0.39072c-0.49067,0 -0.87231,-0.16053 -1.1449,-0.48159c-0.2726,-0.32106 -0.4089,-1.01466 -0.4089,-2.08082v-7.53274h-0.86322c-0.945,0 -1.4175,-0.38163 -1.4175,-1.1449c0,-0.72692 0.52096,-1.09039 1.56288,-1.09039zM421.49695,139.8284v-5.44284c0,-0.6724 0.02726,-1.15702 0.08177,-1.45385c0.05452,-0.30288 0.21505,-0.56034 0.48159,-0.77235c0.2726,-0.21807 0.59668,-0.32711 0.97226,-0.32711c0.36347,0 0.68149,0.10298 0.95409,0.30894c0.27866,0.19991 0.4513,0.46644 0.51793,0.79961c0.06663,0.33317 0.09995,0.83596 0.09995,1.50837v4.26159c0,1.39933 0.21505,2.29587 0.64515,2.68962c0.43616,0.39375 0.91775,0.59062 1.44476,0.59062c0.59366,0 1.11462,-0.16658 1.56288,-0.49975c0.45433,-0.33923 0.76327,-0.7451 0.92683,-1.21759c0.16356,-0.4725 0.24534,-1.40538 0.24534,-2.79866v-3.08942c0,-0.66029 0.03029,-1.14794 0.09087,-1.46293c0.06663,-0.315 0.23625,-0.57548 0.50885,-0.78145c0.2726,-0.20597 0.59366,-0.30894 0.96318,-0.30894c0.35741,0 0.6724,0.10298 0.945,0.30894c0.27866,0.19991 0.44524,0.45433 0.49975,0.76327c0.06057,0.30288 0.09087,0.79659 0.09087,1.48111v7.65086c0,0.63001 -0.03029,1.08735 -0.09087,1.37207c-0.06057,0.27866 -0.21203,0.52096 -0.45433,0.72692c-0.23625,0.19991 -0.53611,0.29986 -0.89957,0.29986c-0.99952,0 -1.47807,-0.7148 -1.43568,-2.14442c-1.04193,1.42962 -2.41096,2.14442 -4.10712,2.14442c-1.12068,0 -2.07476,-0.33317 -2.86226,-0.99952c-0.7875,-0.6724 -1.18125,-1.87486 -1.18125,-3.60735zM438.74549,129.76959v12.10327c0,0.7451 -0.03635,1.25394 -0.10904,1.52654c-0.06663,0.26654 -0.23928,0.50581 -0.51793,0.71784c-0.27866,0.21203 -0.58154,0.31803 -0.90865,0.31803c-0.33317,0 -0.64515,-0.10298 -0.93591,-0.30894c-0.28472,-0.21203 -0.46341,-0.45736 -0.53611,-0.73601c-0.06663,-0.27866 -0.09995,-0.78447 -0.09995,-1.51745v-12.10327c0,-0.76327 0.03635,-1.27818 0.10904,-1.54472c0.07269,-0.2726 0.24534,-0.50885 0.51793,-0.70876c0.27866,-0.19991 0.58154,-0.29986 0.90865,-0.29986c0.38163,0 0.70876,0.10904 0.98134,0.32711c0.27866,0.21203 0.44524,0.46644 0.49975,0.76327c0.06057,0.29076 0.09087,0.77841 0.09087,1.46293zM445.04927,129.76959v12.10327c0,0.7451 -0.03635,1.25394 -0.10904,1.52654c-0.06663,0.26654 -0.23928,0.50581 -0.51793,0.71784c-0.27866,0.21203 -0.58154,0.31803 -0.90865,0.31803c-0.33317,0 -0.64515,-0.10298 -0.93591,-0.30894c-0.28472,-0.21203 -0.46341,-0.45736 -0.53611,-0.73601c-0.06663,-0.27866 -0.09995,-0.78447 -0.09995,-1.51745v-12.10327c0,-0.76327 0.03635,-1.27818 0.10904,-1.54472c0.07269,-0.2726 0.24534,-0.50885 0.51793,-0.70876c0.27866,-0.19991 0.58154,-0.29986 0.90865,-0.29986c0.38163,0 0.70876,0.10904 0.98134,0.32711c0.27866,0.21203 0.44524,0.46644 0.49975,0.76327c0.06057,0.29076 0.09087,0.77841 0.09087,1.46293zM452.15267,131.35973l-0.48159,5.60639c-0.07875,0.81779 -0.22111,1.36601 -0.42706,1.64467c-0.19991,0.27866 -0.46038,0.41798 -0.78145,0.41798c-0.315,0 -0.57548,-0.14236 -0.78145,-0.42706c-0.19991,-0.28472 -0.33015,-0.8299 -0.39072,-1.63557l-0.38163,-5.4701c-0.04846,-0.46644 -0.07269,-1.13278 -0.07269,-1.99904c0,-1.52048 0.58154,-2.28072 1.74461,-2.28072c0.5149,0 0.91169,0.17568 1.19033,0.52702c0.28472,0.34529 0.42706,0.99044 0.42706,1.93543c0,0.76933 -0.01514,1.32967 -0.04543,1.68101zM450.53528,141.01873c0.46038,0 0.85716,0.16658 1.19033,0.49975c0.33923,0.33317 0.50885,0.72996 0.50885,1.19033c0,0.4725 -0.16961,0.87836 -0.50885,1.21759c-0.33317,0.33923 -0.72996,0.50885 -1.19033,0.50885c-0.47855,0 -0.88745,-0.16658 -1.22669,-0.49975c-0.33317,-0.33923 -0.49975,-0.74813 -0.49975,-1.22669c0,-0.46038 0.16961,-0.85716 0.50885,-1.19033c0.33923,-0.33317 0.7451,-0.49975 1.21759,-0.49975z" fill="#cdcdcd" stroke="none" stroke-width="1" stroke-linecap="square"/><path d="M173.34913,193.49353v3.9799c0,1.22971 -0.16053,2.00207 -0.48159,2.31707c-0.315,0.315 -0.72086,0.4725 -1.21759,0.4725c-0.36952,0 -0.7027,-0.10601 -0.99952,-0.31803c-0.29076,-0.21203 -0.4725,-0.4725 -0.5452,-0.78145c-0.06663,-0.30894 -0.09995,-0.87231 -0.09995,-1.6901v-11.31274c0,-0.95106 0.06361,-1.59923 0.19082,-1.94452c0.12722,-0.35135 0.35741,-0.5876 0.69058,-0.70876c0.33923,-0.12116 0.84202,-0.18173 1.50837,-0.18173h4.07077c2.42308,0 4.06471,0.46947 4.92491,1.40842c0.86019,0.93895 1.29029,2.10505 1.29029,3.49832c0,3.50741 -2.07173,5.26111 -6.2152,5.26111zM175.64803,185.93353h-2.2989v4.95216h2.2989c1.39327,0 2.34129,-0.22413 2.84408,-0.6724c0.50885,-0.44827 0.76327,-1.05404 0.76327,-1.81731c0,-0.5452 -0.14236,-1.02981 -0.42706,-1.45385c-0.27866,-0.42404 -0.65726,-0.69664 -1.13582,-0.81779c-0.47855,-0.12722 -1.16005,-0.19082 -2.04447,-0.19082zM188.38282,185.59733v12.10327c0,0.7451 -0.03635,1.25394 -0.10904,1.52654c-0.06663,0.26654 -0.23928,0.50581 -0.51793,0.71784c-0.27866,0.21203 -0.58154,0.31803 -0.90865,0.31803c-0.33317,0 -0.64515,-0.10298 -0.93591,-0.30894c-0.28472,-0.21203 -0.46341,-0.45736 -0.53611,-0.73601c-0.06663,-0.27866 -0.09995,-0.78447 -0.09995,-1.51745v-12.10327c0,-0.76327 0.03635,-1.27818 0.10904,-1.54472c0.07269,-0.2726 0.24534,-0.50885 0.51793,-0.70876c0.27866,-0.19991 0.58154,-0.29986 0.90865,-0.29986c0.38163,0 0.70876,0.10904 0.98134,0.32711c0.27866,0.21203 0.44524,0.46644 0.49975,0.76327c0.06057,0.29076 0.09087,0.77841 0.09087,1.46293zM200.23849,194.72022h-6.08798c0.03029,1.15096 0.34529,2.02024 0.945,2.60783c0.60577,0.5876 1.32663,0.8814 2.1626,0.8814c1.04193,0 2.02024,-0.45433 2.93495,-1.36298c0.36952,-0.38163 0.64211,-0.61789 0.81779,-0.70876c0.18173,-0.09087 0.38163,-0.1363 0.59971,-0.1363c0.27866,0 0.51793,0.08783 0.71784,0.26351c0.20597,0.17568 0.30894,0.39072 0.30894,0.64515c0,0.69664 -0.47855,1.42962 -1.43568,2.19895c-0.95106,0.76933 -2.24134,1.15399 -3.87087,1.15399c-2.07779,0 -3.65279,-0.58456 -4.72501,-1.75371c-1.06615,-1.16913 -1.59923,-2.68658 -1.59923,-4.55236c0,-1.87789 0.53308,-3.39534 1.59923,-4.55236c1.07221,-1.16308 2.5624,-1.74461 4.47058,-1.74461c1.82942,0 3.23784,0.54822 4.22524,1.64467c0.99346,1.09644 1.49019,2.28981 1.49019,3.5801c0,0.56336 -0.16658,1.01164 -0.49975,1.34481c-0.32711,0.32711 -1.01164,0.49067 -2.05355,0.49067zM194.1505,192.95743h5.64274c-0.03635,-1.02981 -0.32106,-1.81428 -0.85414,-2.35341c-0.52702,-0.53914 -1.18125,-0.8087 -1.9627,-0.8087c-1.64163,0 -2.58361,1.05404 -2.82592,3.16212zM213.2436,198.5184c-1.47807,1.16308 -2.92587,1.74461 -4.34337,1.74461c-1.33875,0 -2.36856,-0.33923 -3.08942,-1.01769c-0.7148,-0.68452 -1.07221,-1.51745 -1.07221,-2.4988c0,-0.84202 0.24231,-1.52048 0.72692,-2.03539c0.49067,-0.52096 1.02375,-0.88442 1.59923,-1.09039c0.57548,-0.20597 1.51139,-0.44221 2.80774,-0.70876c1.3024,-0.2726 2.35039,-0.52096 3.14394,-0.7451c-0.00606,-0.93895 -0.19082,-1.57198 -0.55428,-1.89909c-0.36347,-0.33317 -0.91775,-0.49975 -1.66284,-0.49975c-1.40538,0 -2.32615,0.39375 -2.76231,1.18125c-0.24231,0.44827 -0.45736,0.7663 -0.64515,0.95409c-0.18779,0.18779 -0.46038,0.28168 -0.81779,0.28168c-0.32711,0 -0.62395,-0.10601 -0.89048,-0.31803c-0.26048,-0.21807 -0.39072,-0.49673 -0.39072,-0.83596c0,-0.80567 0.43312,-1.56894 1.29938,-2.28981c0.87231,-0.72086 2.24438,-1.0813 4.1162,-1.0813c1.89605,0 3.28327,0.32711 4.16163,0.98134c0.87836,0.65423 1.29029,1.97784 1.23577,3.97082l-0.07269,2.90769c-0.03029,0.89654 0.06361,1.62953 0.28168,2.19895c0.21807,0.56942 0.32711,1.00558 0.32711,1.30846c0,0.32711 -0.14538,0.61485 -0.43616,0.86322c-0.28472,0.24837 -0.6088,0.37255 -0.97226,0.37255c-0.63001,0 -1.29332,-0.58154 -1.98996,-1.74461zM213.03461,194.02965c-0.46038,0.18173 -1.22365,0.37861 -2.28981,0.59062c-1.06009,0.21203 -1.81125,0.45433 -2.25346,0.72692c-0.44221,0.2726 -0.66332,0.66937 -0.66332,1.19033c0,0.44827 0.17568,0.84202 0.52702,1.18125c0.35135,0.33923 0.84808,0.50885 1.49019,0.50885c0.68452,0 1.31755,-0.18476 1.89909,-0.55428c0.5876,-0.37557 0.94803,-0.82082 1.0813,-1.33573c0.13932,-0.5149 0.20899,-1.28424 0.20899,-2.30798zM221.57824,190.8857c0,0.39981 0.20899,0.7148 0.62697,0.945c0.41798,0.22413 1.34783,0.5149 2.78957,0.87231c2.81077,0.67846 4.21616,1.8476 4.21616,3.50741c0,1.30846 -0.4725,2.31101 -1.4175,3.00765c-0.945,0.69664 -2.27164,1.04495 -3.9799,1.04495c-1.72644,0 -3.02582,-0.35437 -3.89813,-1.06313c-0.87231,-0.7148 -1.30846,-1.46899 -1.30846,-2.26254c0,-0.33923 0.12116,-0.63001 0.36347,-0.87231c0.24231,-0.24231 0.53914,-0.36347 0.89048,-0.36347c0.48461,0 0.90865,0.30288 1.27212,0.90865c0.41192,0.66635 0.86322,1.10856 1.35389,1.32663c0.49067,0.21203 1.01769,0.31803 1.58106,0.31803c0.61789,0 1.12068,-0.1363 1.50837,-0.4089c0.39375,-0.27866 0.59062,-0.63001 0.59062,-1.05404c0,-0.38769 -0.16658,-0.7239 -0.49975,-1.0086c-0.32711,-0.28472 -1.22669,-0.59366 -2.6987,-0.92683c-1.47202,-0.33923 -2.54424,-0.81173 -3.21664,-1.4175c-0.6724,-0.61183 -1.0086,-1.33875 -1.0086,-2.18077c0,-0.945 0.4089,-1.78097 1.22669,-2.50789c0.82384,-0.72692 2.05659,-1.09039 3.69822,-1.09039c1.50837,0 2.70779,0.30591 3.59827,0.91775c0.89654,0.61183 1.34481,1.24789 1.34481,1.90817c0,0.34529 -0.1151,0.63909 -0.34529,0.8814c-0.22413,0.23625 -0.53611,0.35437 -0.93591,0.35437c-0.59971,0 -1.14188,-0.34225 -1.62649,-1.02678c-0.47855,-0.69058 -1.20245,-1.03587 -2.17169,-1.03587c-0.52096,0 -0.97832,0.10601 -1.37207,0.31803c-0.38769,0.21203 -0.58154,0.5149 -0.58154,0.90865zM240.49188,194.72022h-6.08798c0.03029,1.15096 0.34529,2.02024 0.945,2.60783c0.60577,0.5876 1.32663,0.8814 2.1626,0.8814c1.04193,0 2.02024,-0.45433 2.93495,-1.36298c0.36952,-0.38163 0.64211,-0.61789 0.81779,-0.70876c0.18173,-0.09087 0.38163,-0.1363 0.59971,-0.1363c0.27866,0 0.51793,0.08783 0.71784,0.26351c0.20597,0.17568 0.30894,0.39072 0.30894,0.64515c0,0.69664 -0.47855,1.42962 -1.43568,2.19895c-0.95106,0.76933 -2.24134,1.15399 -3.87087,1.15399c-2.07779,0 -3.65279,-0.58456 -4.72501,-1.75371c-1.06615,-1.16913 -1.59923,-2.68658 -1.59923,-4.55236c0,-1.87789 0.53308,-3.39534 1.59923,-4.55236c1.07221,-1.16308 2.5624,-1.74461 4.47058,-1.74461c1.82942,0 3.23784,0.54822 4.22524,1.64467c0.99346,1.09644 1.49019,2.28981 1.49019,3.5801c0,0.56336 -0.16658,1.01164 -0.49975,1.34481c-0.32711,0.32711 -1.01164,0.49067 -2.05355,0.49067zM234.4039,192.95743h5.64274c-0.03635,-1.02981 -0.32106,-1.81428 -0.85414,-2.35341c-0.52702,-0.53914 -1.18125,-0.8087 -1.9627,-0.8087c-1.64163,0 -2.58361,1.05404 -2.82592,3.16212zM254.13305,183.18031c0.39981,0 0.74813,0.15144 1.04495,0.45433c0.29682,0.30288 0.44524,0.65423 0.44524,1.05404c0,0.41798 -0.14842,0.77841 -0.44524,1.0813c-0.29682,0.29682 -0.64515,0.44524 -1.04495,0.44524c-0.41798,0 -0.77841,-0.14842 -1.0813,-0.44524c-0.29682,-0.30288 -0.44524,-0.66332 -0.44524,-1.0813c0,-0.40586 0.14842,-0.75721 0.44524,-1.05404c0.30288,-0.30288 0.66332,-0.45433 1.0813,-0.45433zM252.60652,199.9359v-9.7226c0,-0.76327 0.03332,-1.27818 0.09995,-1.54472c0.06663,-0.26654 0.23019,-0.49975 0.49067,-0.69966c0.26654,-0.20597 0.57851,-0.30894 0.93591,-0.30894c0.33317,0 0.63605,0.09389 0.90865,0.28168c0.27866,0.18779 0.4513,0.42404 0.51793,0.70876c0.07269,0.28472 0.10904,0.80567 0.10904,1.56288v9.7226c0,1.15096 -0.06057,2.0263 -0.18173,2.62601c-0.1151,0.59971 -0.43312,1.13278 -0.95409,1.59923c-0.5149,0.4725 -1.31755,0.70876 -2.40794,0.70876c-1.91423,0 -2.87135,-0.50581 -2.87135,-1.51745c0,-0.35135 0.11207,-0.64817 0.33621,-0.89048c0.21807,-0.24231 0.49673,-0.36347 0.83596,-0.36347l1.13582,0.07269c0.37557,0 0.64211,-0.14236 0.79961,-0.42706c0.16356,-0.27866 0.24534,-0.8814 0.24534,-1.80822zM264.28954,187.65997c1.92029,0 3.43168,0.59366 4.53418,1.78097c1.1025,1.18125 1.65375,2.68658 1.65375,4.51602c0,1.84154 -0.56034,3.35293 -1.68101,4.53418c-1.11462,1.18125 -2.59269,1.77187 -4.43423,1.77187c-1.99904,0 -3.54072,-0.59668 -4.62505,-1.79005c-1.08433,-1.19943 -1.62649,-2.70476 -1.62649,-4.51602c0,-1.83548 0.54822,-3.34385 1.64467,-4.5251c1.1025,-1.18125 2.61389,-1.77187 4.53418,-1.77187zM264.28954,197.95503c0.93895,0 1.68101,-0.35135 2.2262,-1.05404c0.55125,-0.70876 0.82688,-1.6901 0.82688,-2.94404c0,-1.25394 -0.27562,-2.23529 -0.82688,-2.94404c-0.5452,-0.70876 -1.28726,-1.06313 -2.2262,-1.06313c-0.92683,0 -1.66587,0.35741 -2.21711,1.07221c-0.55125,0.70876 -0.82688,1.68706 -0.82688,2.93495c0,1.26 0.2726,2.24134 0.81779,2.94404c0.55125,0.7027 1.29332,1.05404 2.2262,1.05404zM274.48691,183.18031c0.39981,0 0.74813,0.15144 1.04495,0.45433c0.29682,0.30288 0.44524,0.65423 0.44524,1.05404c0,0.41798 -0.14842,0.77841 -0.44524,1.0813c-0.29682,0.29682 -0.64515,0.44524 -1.04495,0.44524c-0.41798,0 -0.77841,-0.14842 -1.0813,-0.44524c-0.29682,-0.30288 -0.44524,-0.66332 -0.44524,-1.0813c0,-0.40586 0.14842,-0.75721 0.44524,-1.05404c0.30288,-0.30288 0.66332,-0.45433 1.0813,-0.45433zM276.02253,190.18603v7.51458c0,0.73904 -0.03635,1.24486 -0.10904,1.51745c-0.06663,0.2726 -0.23928,0.5149 -0.51793,0.72692c-0.27866,0.21203 -0.58154,0.31803 -0.90865,0.31803c-0.33317,0 -0.64515,-0.10298 -0.93591,-0.30894c-0.28472,-0.21203 -0.46341,-0.45736 -0.53611,-0.73601c-0.06663,-0.27866 -0.09995,-0.78447 -0.09995,-1.51745v-7.48732c0,-0.69058 0.02726,-1.17822 0.08177,-1.46293c0.05452,-0.28472 0.21807,-0.53611 0.49067,-0.75419c0.27866,-0.22413 0.59971,-0.33621 0.96318,-0.33621c0.36952,0 0.68754,0.09995 0.95409,0.29986c0.26654,0.19991 0.43616,0.45433 0.50885,0.76327c0.07269,0.30288 0.10904,0.79053 0.10904,1.46293zM290.15892,192.61214v5.08846c0,0.65423 -0.02726,1.13278 -0.08177,1.43568c-0.04846,0.29682 -0.20899,0.56034 -0.48159,0.79053c-0.2726,0.22413 -0.59668,0.33621 -0.97226,0.33621c-0.33317,0 -0.64515,-0.09995 -0.93591,-0.29986c-0.28472,-0.19991 -0.46038,-0.46038 -0.52702,-0.78145c-0.06663,-0.32106 -0.09995,-0.81476 -0.09995,-1.48111v-4.47058c0,-1.24183 -0.18779,-2.07779 -0.56336,-2.50789c-0.36952,-0.4301 -0.87836,-0.64515 -1.52654,-0.64515c-0.59366,0 -1.11462,0.16961 -1.56288,0.50885c-0.44221,0.33923 -0.75419,0.7663 -0.93591,1.2812c-0.18173,0.50885 -0.2726,1.38418 -0.2726,2.62601v3.20755c0,0.64817 -0.02423,1.12068 -0.07269,1.4175c-0.04846,0.29682 -0.21505,0.56336 -0.49975,0.79961c-0.27866,0.23019 -0.59971,0.34529 -0.96318,0.34529c-0.33923,0 -0.65423,-0.10298 -0.945,-0.30894c-0.28472,-0.21203 -0.45736,-0.4725 -0.51793,-0.78145c-0.06057,-0.30894 -0.09087,-0.79961 -0.09087,-1.47202v-7.65086c0,-0.68452 0.03029,-1.16308 0.09087,-1.43568c0.06663,-0.2726 0.23019,-0.49975 0.49067,-0.68149c0.26048,-0.18173 0.55428,-0.2726 0.8814,-0.2726c0.30288,0 0.61789,0.11812 0.945,0.35437c0.33317,0.23625 0.49975,0.81476 0.49975,1.73553c1.03587,-1.39327 2.36856,-2.0899 3.99808,-2.0899c0.61789,0 1.22971,0.11812 1.83548,0.35437c0.60577,0.23019 1.09947,0.6088 1.48111,1.13582c0.38769,0.52702 0.62091,1.07221 0.69966,1.63557c0.08481,0.56336 0.12722,1.17216 0.12722,1.8264zM308.01626,198.5184c-1.47807,1.16308 -2.92587,1.74461 -4.34337,1.74461c-1.33875,0 -2.36856,-0.33923 -3.08942,-1.01769c-0.7148,-0.68452 -1.07221,-1.51745 -1.07221,-2.4988c0,-0.84202 0.24231,-1.52048 0.72692,-2.03539c0.49067,-0.52096 1.02375,-0.88442 1.59923,-1.09039c0.57548,-0.20597 1.51139,-0.44221 2.80774,-0.70876c1.3024,-0.2726 2.35039,-0.52096 3.14394,-0.7451c-0.00606,-0.93895 -0.19082,-1.57198 -0.55428,-1.89909c-0.36347,-0.33317 -0.91775,-0.49975 -1.66284,-0.49975c-1.40538,0 -2.32615,0.39375 -2.76231,1.18125c-0.24231,0.44827 -0.45736,0.7663 -0.64515,0.95409c-0.18779,0.18779 -0.46038,0.28168 -0.81779,0.28168c-0.32711,0 -0.62395,-0.10601 -0.89048,-0.31803c-0.26048,-0.21807 -0.39072,-0.49673 -0.39072,-0.83596c0,-0.80567 0.43312,-1.56894 1.29938,-2.28981c0.87231,-0.72086 2.24438,-1.0813 4.1162,-1.0813c1.89605,0 3.28327,0.32711 4.16163,0.98134c0.87836,0.65423 1.29029,1.97784 1.23577,3.97082l-0.07269,2.90769c-0.03029,0.89654 0.06361,1.62953 0.28168,2.19895c0.21807,0.56942 0.32711,1.00558 0.32711,1.30846c0,0.32711 -0.14538,0.61485 -0.43616,0.86322c-0.28472,0.24837 -0.6088,0.37255 -0.97226,0.37255c-0.63001,0 -1.29332,-0.58154 -1.98996,-1.74461zM307.80726,194.02965c-0.46038,0.18173 -1.22365,0.37861 -2.28981,0.59062c-1.06009,0.21203 -1.81125,0.45433 -2.25346,0.72692c-0.44221,0.2726 -0.66332,0.66937 -0.66332,1.19033c0,0.44827 0.17568,0.84202 0.52702,1.18125c0.35135,0.33923 0.84808,0.50885 1.49019,0.50885c0.68452,0 1.31755,-0.18476 1.89909,-0.55428c0.5876,-0.37557 0.94803,-0.82082 1.0813,-1.33573c0.13932,-0.5149 0.20899,-1.28424 0.20899,-2.30798zM324.93768,192.61214v5.08846c0,0.65423 -0.02726,1.13278 -0.08177,1.43568c-0.04846,0.29682 -0.20899,0.56034 -0.48159,0.79053c-0.2726,0.22413 -0.59668,0.33621 -0.97226,0.33621c-0.33317,0 -0.64515,-0.09995 -0.93591,-0.29986c-0.28472,-0.19991 -0.46038,-0.46038 -0.52702,-0.78145c-0.06663,-0.32106 -0.09995,-0.81476 -0.09995,-1.48111v-4.47058c0,-1.24183 -0.18779,-2.07779 -0.56336,-2.50789c-0.36952,-0.4301 -0.87836,-0.64515 -1.52654,-0.64515c-0.59366,0 -1.11462,0.16961 -1.56288,0.50885c-0.44221,0.33923 -0.75419,0.7663 -0.93591,1.2812c-0.18173,0.50885 -0.2726,1.38418 -0.2726,2.62601v3.20755c0,0.64817 -0.02423,1.12068 -0.07269,1.4175c-0.04846,0.29682 -0.21505,0.56336 -0.49975,0.79961c-0.27866,0.23019 -0.59971,0.34529 -0.96318,0.34529c-0.33923,0 -0.65423,-0.10298 -0.945,-0.30894c-0.28472,-0.21203 -0.45736,-0.4725 -0.51793,-0.78145c-0.06057,-0.30894 -0.09087,-0.79961 -0.09087,-1.47202v-7.65086c0,-0.68452 0.03029,-1.16308 0.09087,-1.43568c0.06663,-0.2726 0.23019,-0.49975 0.49067,-0.68149c0.26048,-0.18173 0.55428,-0.2726 0.8814,-0.2726c0.30288,0 0.61789,0.11812 0.945,0.35437c0.33317,0.23625 0.49975,0.81476 0.49975,1.73553c1.03587,-1.39327 2.36856,-2.0899 3.99808,-2.0899c0.61789,0 1.22971,0.11812 1.83548,0.35437c0.60577,0.23019 1.09947,0.6088 1.48111,1.13582c0.38769,0.52702 0.62091,1.07221 0.69966,1.63557c0.08481,0.56336 0.12722,1.17216 0.12722,1.8264zM343.61279,194.72022h-6.08798c0.03029,1.15096 0.34529,2.02024 0.945,2.60783c0.60577,0.5876 1.32663,0.8814 2.1626,0.8814c1.04193,0 2.02024,-0.45433 2.93495,-1.36298c0.36952,-0.38163 0.64211,-0.61789 0.81779,-0.70876c0.18173,-0.09087 0.38163,-0.1363 0.59971,-0.1363c0.27866,0 0.51793,0.08783 0.71784,0.26351c0.20597,0.17568 0.30894,0.39072 0.30894,0.64515c0,0.69664 -0.47855,1.42962 -1.43568,2.19895c-0.95106,0.76933 -2.24134,1.15399 -3.87087,1.15399c-2.07779,0 -3.65279,-0.58456 -4.72501,-1.75371c-1.06615,-1.16913 -1.59923,-2.68658 -1.59923,-4.55236c0,-1.87789 0.53308,-3.39534 1.59923,-4.55236c1.07221,-1.16308 2.5624,-1.74461 4.47058,-1.74461c1.82942,0 3.23784,0.54822 4.22524,1.64467c0.99346,1.09644 1.49019,2.28981 1.49019,3.5801c0,0.56336 -0.16658,1.01164 -0.49975,1.34481c-0.32711,0.32711 -1.01164,0.49067 -2.05355,0.49067zM337.52481,192.95743h5.64274c-0.03635,-1.02981 -0.32106,-1.81428 -0.85414,-2.35341c-0.52702,-0.53914 -1.18125,-0.8087 -1.9627,-0.8087c-1.64163,0 -2.58361,1.05404 -2.82592,3.16212zM353.21956,195.70156l-2.27164,3.28024c-0.40586,0.57548 -0.72996,0.93289 -0.97226,1.07221c-0.24232,0.13932 -0.49978,0.20899 -0.77237,0.20899c-0.39375,0 -0.72692,-0.12116 -0.99952,-0.36347c-0.26654,-0.24231 -0.39981,-0.51793 -0.39981,-0.82688c0,-0.35135 0.21203,-0.82384 0.63605,-1.4175l2.80776,-4.02534l-2.48973,-3.35293c-0.4301,-0.57548 -0.64515,-1.03889 -0.64515,-1.39024c0,-0.35741 0.13024,-0.6512 0.39072,-0.8814c0.26048,-0.23019 0.60274,-0.34529 1.02678,-0.34529c0.35742,0 0.65122,0.09995 0.88141,0.29986c0.23019,0.19385 0.50885,0.51793 0.83596,0.97226l1.97178,2.74413l1.98996,-2.74413c0.40586,-0.57548 0.73298,-0.92985 0.98134,-1.06313c0.24837,-0.13932 0.50885,-0.20899 0.78145,-0.20899c0.39981,0 0.72996,0.1151 0.99044,0.34529c0.26654,0.23019 0.39981,0.49975 0.39981,0.8087c0,0.36952 -0.22111,0.85716 -0.66332,1.46293l-2.48971,3.35293l2.78048,4.02534c0.45433,0.63605 0.68149,1.09947 0.68149,1.39024c0,0.35135 -0.13932,0.64211 -0.41798,0.87231c-0.2726,0.23019 -0.57548,0.34529 -0.90865,0.34529c-0.63605,0 -1.25092,-0.42706 -1.84456,-1.2812zM362.46739,183.18031c0.39981,0 0.74813,0.15144 1.04495,0.45433c0.29682,0.30288 0.44524,0.65423 0.44524,1.05404c0,0.41798 -0.14842,0.77841 -0.44524,1.0813c-0.29682,0.29682 -0.64515,0.44524 -1.04495,0.44524c-0.41798,0 -0.77841,-0.14842 -1.0813,-0.44524c-0.29682,-0.30288 -0.44524,-0.66332 -0.44524,-1.0813c0,-0.40586 0.14842,-0.75721 0.44524,-1.05404c0.30288,-0.30288 0.66332,-0.45433 1.0813,-0.45433zM364.00301,190.18603v7.51458c0,0.73904 -0.03635,1.24486 -0.10904,1.51745c-0.06663,0.2726 -0.23928,0.5149 -0.51793,0.72692c-0.27866,0.21203 -0.58154,0.31803 -0.90865,0.31803c-0.33317,0 -0.64515,-0.10298 -0.93591,-0.30894c-0.28472,-0.21203 -0.46341,-0.45736 -0.53611,-0.73601c-0.06663,-0.27866 -0.09995,-0.78447 -0.09995,-1.51745v-7.48732c0,-0.69058 0.02726,-1.17822 0.08177,-1.46293c0.05452,-0.28472 0.21807,-0.53611 0.49067,-0.75419c0.27866,-0.22413 0.59971,-0.33621 0.96318,-0.33621c0.36952,0 0.68754,0.09995 0.95409,0.29986c0.26654,0.19991 0.43616,0.45433 0.50885,0.76327c0.07269,0.30288 0.10904,0.79053 0.10904,1.46293zM369.55258,190.8857c0,0.39981 0.20899,0.7148 0.62697,0.945c0.41798,0.22413 1.34783,0.5149 2.78957,0.87231c2.81077,0.67846 4.21616,1.8476 4.21616,3.50741c0,1.30846 -0.4725,2.31101 -1.4175,3.00765c-0.945,0.69664 -2.27164,1.04495 -3.9799,1.04495c-1.72644,0 -3.02582,-0.35437 -3.89813,-1.06313c-0.87231,-0.7148 -1.30846,-1.46899 -1.30846,-2.26254c0,-0.33923 0.12116,-0.63001 0.36347,-0.87231c0.24231,-0.24231 0.53914,-0.36347 0.89048,-0.36347c0.48461,0 0.90865,0.30288 1.27212,0.90865c0.41192,0.66635 0.86322,1.10856 1.35389,1.32663c0.49067,0.21203 1.01769,0.31803 1.58106,0.31803c0.61789,0 1.12068,-0.1363 1.50837,-0.4089c0.39375,-0.27866 0.59062,-0.63001 0.59062,-1.05404c0,-0.38769 -0.16658,-0.7239 -0.49975,-1.0086c-0.32711,-0.28472 -1.22669,-0.59366 -2.6987,-0.92683c-1.47202,-0.33923 -2.54424,-0.81173 -3.21664,-1.4175c-0.6724,-0.61183 -1.0086,-1.33875 -1.0086,-2.18077c0,-0.945 0.4089,-1.78097 1.22669,-2.50789c0.82384,-0.72692 2.05659,-1.09039 3.69822,-1.09039c1.50837,0 2.70779,0.30591 3.59827,0.91775c0.89654,0.61183 1.34481,1.24789 1.34481,1.90817c0,0.34529 -0.1151,0.63909 -0.34529,0.8814c-0.22413,0.23625 -0.53611,0.35437 -0.93591,0.35437c-0.59971,0 -1.14188,-0.34225 -1.62649,-1.02678c-0.47855,-0.69058 -1.20245,-1.03587 -2.17169,-1.03587c-0.52096,0 -0.97832,0.10601 -1.37207,0.31803c-0.38769,0.21203 -0.58154,0.5149 -0.58154,0.90865zM380.32469,187.93257v-1.86274c0,-0.76933 0.03029,-1.29029 0.09087,-1.56288c0.06663,-0.27866 0.23322,-0.52399 0.49975,-0.73601c0.2726,-0.21807 0.59062,-0.32711 0.95409,-0.32711c0.33317,0 0.63303,0.09995 0.89957,0.29986c0.26654,0.19385 0.44221,0.4301 0.52702,0.70876c0.08481,0.27866 0.12722,0.73298 0.12722,1.36298v2.11716h0.59971c0.75721,0 1.26,0.09389 1.50837,0.28168c0.25442,0.18173 0.38163,0.4513 0.38163,0.8087c0,0.76327 -0.63605,1.1449 -1.90817,1.1449h-0.58154v5.72453c0,0.76933 0.05452,1.29634 0.16356,1.58106c0.10904,0.27866 0.40284,0.41798 0.8814,0.41798c0.22413,0 0.47855,-0.03029 0.76327,-0.09087c0.28472,-0.06663 0.49673,-0.09995 0.63605,-0.09995c0.30894,0 0.56034,0.10298 0.75419,0.30894c0.19385,0.19991 0.29076,0.44524 0.29076,0.73601c0,1.01164 -1.07221,1.51745 -3.21664,1.51745c-1.03587,0 -1.79913,-0.19082 -2.28981,-0.57246c-0.49067,-0.38769 -0.79355,-0.85716 -0.90865,-1.40842c-0.1151,-0.55731 -0.17264,-1.27818 -0.17264,-2.1626v-5.95168h-0.4089c-0.92077,0 -1.38115,-0.37557 -1.38115,-1.12674c0,-0.73904 0.48159,-1.10856 1.44476,-1.10856zM389.6134,183.18031c0.39981,0 0.74813,0.15144 1.04495,0.45433c0.29682,0.30288 0.44524,0.65423 0.44524,1.05404c0,0.41798 -0.14842,0.77841 -0.44524,1.0813c-0.29682,0.29682 -0.64515,0.44524 -1.04495,0.44524c-0.41798,0 -0.77841,-0.14842 -1.0813,-0.44524c-0.29682,-0.30288 -0.44524,-0.66332 -0.44524,-1.0813c0,-0.40586 0.14842,-0.75721 0.44524,-1.05404c0.30288,-0.30288 0.66332,-0.45433 1.0813,-0.45433zM391.14903,190.18603v7.51458c0,0.73904 -0.03635,1.24486 -0.10904,1.51745c-0.06663,0.2726 -0.23928,0.5149 -0.51793,0.72692c-0.27866,0.21203 -0.58154,0.31803 -0.90865,0.31803c-0.33317,0 -0.64515,-0.10298 -0.93591,-0.30894c-0.28472,-0.21203 -0.46341,-0.45736 -0.53611,-0.73601c-0.06663,-0.27866 -0.09995,-0.78447 -0.09995,-1.51745v-7.48732c0,-0.69058 0.02726,-1.17822 0.08177,-1.46293c0.05452,-0.28472 0.21807,-0.53611 0.49067,-0.75419c0.27866,-0.22413 0.59971,-0.33621 0.96318,-0.33621c0.36952,0 0.68754,0.09995 0.95409,0.29986c0.26654,0.19991 0.43616,0.45433 0.50885,0.76327c0.07269,0.30288 0.10904,0.79053 0.10904,1.46293zM405.28542,192.61214v5.08846c0,0.65423 -0.02726,1.13278 -0.08177,1.43568c-0.04846,0.29682 -0.20899,0.56034 -0.48159,0.79053c-0.2726,0.22413 -0.59668,0.33621 -0.97226,0.33621c-0.33317,0 -0.64515,-0.09995 -0.93591,-0.29986c-0.28472,-0.19991 -0.46038,-0.46038 -0.52702,-0.78145c-0.06663,-0.32106 -0.09995,-0.81476 -0.09995,-1.48111v-4.47058c0,-1.24183 -0.18779,-2.07779 -0.56336,-2.50789c-0.36952,-0.4301 -0.87836,-0.64515 -1.52654,-0.64515c-0.59366,0 -1.11462,0.16961 -1.56288,0.50885c-0.44221,0.33923 -0.75419,0.7663 -0.93591,1.2812c-0.18173,0.50885 -0.2726,1.38418 -0.2726,2.62601v3.20755c0,0.64817 -0.02423,1.12068 -0.07269,1.4175c-0.04846,0.29682 -0.21505,0.56336 -0.49975,0.79961c-0.27866,0.23019 -0.59971,0.34529 -0.96318,0.34529c-0.33923,0 -0.65423,-0.10298 -0.945,-0.30894c-0.28472,-0.21203 -0.45736,-0.4725 -0.51793,-0.78145c-0.06057,-0.30894 -0.09087,-0.79961 -0.09087,-1.47202v-7.65086c0,-0.68452 0.03029,-1.16308 0.09087,-1.43568c0.06663,-0.2726 0.23019,-0.49975 0.49067,-0.68149c0.26048,-0.18173 0.55428,-0.2726 0.8814,-0.2726c0.30288,0 0.61789,0.11812 0.945,0.35437c0.33317,0.23625 0.49975,0.81476 0.49975,1.73553c1.03587,-1.39327 2.36856,-2.0899 3.99808,-2.0899c0.61789,0 1.22971,0.11812 1.83548,0.35437c0.60577,0.23019 1.09947,0.6088 1.48111,1.13582c0.38769,0.52702 0.62091,1.07221 0.69966,1.63557c0.08481,0.56336 0.12722,1.17216 0.12722,1.8264zM416.8912,189.76805v-0.41798c0,-0.56336 0.13932,-0.98438 0.41798,-1.26303c0.27866,-0.28472 0.63001,-0.42706 1.05404,-0.42706c0.46644,0 0.82688,0.16356 1.0813,0.49067c0.25442,0.32711 0.38163,1.03587 0.38163,2.12626v8.33236c0,2.46549 -0.52096,4.12529 -1.56288,4.97942c-1.04193,0.85414 -2.54726,1.2812 -4.51602,1.2812c-1.76279,0 -3.14091,-0.32711 -4.13438,-0.98134c-0.99346,-0.64817 -1.49019,-1.33573 -1.49019,-2.06265c0,-0.39375 0.13024,-0.71178 0.39072,-0.95409c0.26654,-0.23625 0.57548,-0.35437 0.92683,-0.35437c0.32711,0 0.5876,0.07573 0.78145,0.22717c0.19385,0.1575 0.52096,0.52702 0.98134,1.10856c0.46038,0.5876 1.24183,0.8814 2.34433,0.8814c0.60577,0 1.16611,-0.09692 1.68101,-0.29076c0.52096,-0.18779 0.9026,-0.52399 1.1449,-1.0086c0.24837,-0.47855 0.36649,-1.64467 0.35437,-3.49832c-0.95106,1.36298 -2.2474,2.04447 -3.88905,2.04447c-1.58106,0 -2.83198,-0.59062 -3.75275,-1.77187c-0.92077,-1.18731 -1.38115,-2.70476 -1.38115,-4.55236c0,-1.84154 0.4725,-3.30145 1.4175,-4.37972c0.95106,-1.07827 2.1838,-1.61741 3.69822,-1.61741c1.65375,0 3.01068,0.7027 4.07077,2.10808zM410.83957,193.90243c0,1.20548 0.26351,2.12626 0.79053,2.76231c0.52702,0.63001 1.24789,0.945 2.1626,0.945c0.79355,0 1.48111,-0.30591 2.06265,-0.91775c0.58154,-0.61789 0.87231,-1.53562 0.87231,-2.75323c0,-1.20548 -0.26956,-2.15957 -0.8087,-2.86226c-0.53308,-0.7027 -1.25698,-1.05404 -2.17169,-1.05404c-0.87836,0 -1.58409,0.33015 -2.11716,0.99044c-0.52702,0.65423 -0.79053,1.61741 -0.79053,2.88953zM438.33545,189.76805v-0.41798c0,-0.56336 0.13932,-0.98438 0.41798,-1.26303c0.27866,-0.28472 0.63001,-0.42706 1.05404,-0.42706c0.46644,0 0.82688,0.16356 1.0813,0.49067c0.25442,0.32711 0.38163,1.03587 0.38163,2.12626v8.33236c0,2.46549 -0.52096,4.12529 -1.56288,4.97942c-1.04193,0.85414 -2.54726,1.2812 -4.51602,1.2812c-1.76279,0 -3.14091,-0.32711 -4.13438,-0.98134c-0.99346,-0.64817 -1.49019,-1.33573 -1.49019,-2.06265c0,-0.39375 0.13024,-0.71178 0.39072,-0.95409c0.26654,-0.23625 0.57548,-0.35437 0.92683,-0.35437c0.32711,0 0.5876,0.07573 0.78145,0.22717c0.19385,0.1575 0.52096,0.52702 0.98134,1.10856c0.46038,0.5876 1.24183,0.8814 2.34433,0.8814c0.60577,0 1.16611,-0.09692 1.68101,-0.29076c0.52096,-0.18779 0.9026,-0.52399 1.1449,-1.0086c0.24837,-0.47855 0.36649,-1.64467 0.35437,-3.49832c-0.95106,1.36298 -2.2474,2.04447 -3.88905,2.04447c-1.58106,0 -2.83198,-0.59062 -3.75275,-1.77187c-0.92077,-1.18731 -1.38115,-2.70476 -1.38115,-4.55236c0,-1.84154 0.4725,-3.30145 1.4175,-4.37972c0.95106,-1.07827 2.1838,-1.61741 3.69822,-1.61741c1.65375,0 3.01068,0.7027 4.07077,2.10808zM432.28381,193.90243c0,1.20548 0.26351,2.12626 0.79053,2.76231c0.52702,0.63001 1.24789,0.945 2.1626,0.945c0.79355,0 1.48111,-0.30591 2.06265,-0.91775c0.58154,-0.61789 0.87231,-1.53562 0.87231,-2.75323c0,-1.20548 -0.26956,-2.15957 -0.8087,-2.86226c-0.53308,-0.7027 -1.25698,-1.05404 -2.17169,-1.05404c-0.87836,0 -1.58409,0.33015 -2.11716,0.99044c-0.52702,0.65423 -0.79053,1.61741 -0.79053,2.88953zM452.21969,198.5184c-1.47807,1.16308 -2.92587,1.74461 -4.34337,1.74461c-1.33875,0 -2.36856,-0.33923 -3.08942,-1.01769c-0.7148,-0.68452 -1.07221,-1.51745 -1.07221,-2.4988c0,-0.84202 0.24231,-1.52048 0.72692,-2.03539c0.49067,-0.52096 1.02375,-0.88442 1.59923,-1.09039c0.57548,-0.20597 1.51139,-0.44221 2.80774,-0.70876c1.3024,-0.2726 2.35039,-0.52096 3.14394,-0.7451c-0.00606,-0.93895 -0.19082,-1.57198 -0.55428,-1.89909c-0.36347,-0.33317 -0.91775,-0.49975 -1.66284,-0.49975c-1.40538,0 -2.32615,0.39375 -2.76231,1.18125c-0.24231,0.44827 -0.45736,0.7663 -0.64515,0.95409c-0.18779,0.18779 -0.46038,0.28168 -0.81779,0.28168c-0.32711,0 -0.62395,-0.10601 -0.89048,-0.31803c-0.26048,-0.21807 -0.39072,-0.49673 -0.39072,-0.83596c0,-0.80567 0.43312,-1.56894 1.29938,-2.28981c0.87231,-0.72086 2.24438,-1.0813 4.1162,-1.0813c1.89605,0 3.28327,0.32711 4.16163,0.98134c0.87836,0.65423 1.29029,1.97784 1.23577,3.97082l-0.07269,2.90769c-0.03029,0.89654 0.06361,1.62953 0.28168,2.19895c0.21807,0.56942 0.32711,1.00558 0.32711,1.30846c0,0.32711 -0.14538,0.61485 -0.43616,0.86322c-0.28472,0.24837 -0.6088,0.37255 -0.97226,0.37255c-0.63001,0 -1.29332,-0.58154 -1.98996,-1.74461zM452.0107,194.02965c-0.46038,0.18173 -1.22365,0.37861 -2.28981,0.59062c-1.06009,0.21203 -1.81125,0.45433 -2.25346,0.72692c-0.44221,0.2726 -0.66332,0.66937 -0.66332,1.19033c0,0.44827 0.17568,0.84202 0.52702,1.18125c0.35135,0.33923 0.84808,0.50885 1.49019,0.50885c0.68452,0 1.31755,-0.18476 1.89909,-0.55428c0.5876,-0.37557 0.94803,-0.82082 1.0813,-1.33573c0.13932,-0.5149 0.20899,-1.28424 0.20899,-2.30798zM475.77428,192.25776v5.35198c0,0.73298 -0.03029,1.25092 -0.09087,1.5538c-0.06057,0.29682 -0.22717,0.55428 -0.49975,0.77235c-0.26654,0.21807 -0.58456,0.32711 -0.95409,0.32711c-0.36347,0 -0.68149,-0.10601 -0.95409,-0.31803c-0.26654,-0.21807 -0.43312,-0.48765 -0.49975,-0.8087c-0.06663,-0.32106 -0.09995,-0.8299 -0.09995,-1.52654v-4.53418c0,-1.32663 -0.1575,-2.15654 -0.4725,-2.48971c-0.315,-0.33923 -0.7451,-0.50885 -1.29029,-0.50885c-0.56942,0 -1.04799,0.1575 -1.43568,0.4725c-0.38769,0.315 -0.65423,0.72692 -0.79961,1.23577c-0.14538,0.50279 -0.21807,1.29634 -0.21807,2.38068v3.4438c0,0.73298 -0.03029,1.25394 -0.09087,1.56288c-0.05452,0.30288 -0.22111,0.56034 -0.49975,0.77235c-0.2726,0.21203 -0.59366,0.31803 -0.96318,0.31803c-0.47855,0 -0.85414,-0.16053 -1.12674,-0.48159c-0.2726,-0.32106 -0.4089,-1.04495 -0.4089,-2.17169v-4.26159c0,-1.21153 -0.09087,-2.05961 -0.2726,-2.54424c-0.18173,-0.48461 -0.65423,-0.72692 -1.4175,-0.72692c-0.79355,0 -1.42054,0.25442 -1.88091,0.76327c-0.46038,0.50279 -0.69058,1.58712 -0.69058,3.25298v3.51649c0,0.7148 -0.02423,1.21759 -0.07269,1.50837c-0.04846,0.28472 -0.20899,0.54822 -0.48159,0.79053c-0.2726,0.23625 -0.59062,0.35437 -0.95409,0.35437c-0.34529,0 -0.66029,-0.10601 -0.945,-0.31803c-0.28472,-0.21203 -0.46341,-0.46644 -0.53611,-0.76327c-0.06663,-0.30288 -0.09995,-0.82688 -0.09995,-1.57198v-7.51458c0,-0.7148 0.03332,-1.19943 0.09995,-1.45385c0.06663,-0.26048 0.23322,-0.48765 0.49975,-0.68149c0.26654,-0.19991 0.55731,-0.29986 0.87231,-0.29986c0.9874,0 1.48111,0.63001 1.48111,1.89c1.04193,-1.26 2.29284,-1.89 3.75275,-1.89c1.56894,0 2.70779,0.63001 3.41654,1.89c1.05404,-1.26 2.28376,-1.89 3.68914,-1.89c1.08433,0 2.01116,0.29986 2.78048,0.89957c0.77539,0.59366 1.16308,1.8264 1.16308,3.69822zM487.44141,194.72022h-6.08798c0.03029,1.15096 0.34529,2.02024 0.945,2.60783c0.60577,0.5876 1.32663,0.8814 2.1626,0.8814c1.04193,0 2.02024,-0.45433 2.93495,-1.36298c0.36952,-0.38163 0.64211,-0.61789 0.81779,-0.70876c0.18173,-0.09087 0.38163,-0.1363 0.59971,-0.1363c0.27866,0 0.51793,0.08783 0.71784,0.26351c0.20597,0.17568 0.30894,0.39072 0.30894,0.64515c0,0.69664 -0.47855,1.42962 -1.43568,2.19895c-0.95106,0.76933 -2.24134,1.15399 -3.87087,1.15399c-2.07779,0 -3.65279,-0.58456 -4.72501,-1.75371c-1.06615,-1.16913 -1.59923,-2.68658 -1.59923,-4.55236c0,-1.87789 0.53308,-3.39534 1.59923,-4.55236c1.07221,-1.16308 2.5624,-1.74461 4.47058,-1.74461c1.82942,0 3.23784,0.54822 4.22524,1.64467c0.99346,1.09644 1.49019,2.28981 1.49019,3.5801c0,0.56336 -0.16658,1.01164 -0.49975,1.34481c-0.32711,0.32711 -1.01164,0.49067 -2.05355,0.49067zM481.35343,192.95743h5.64274c-0.03635,-1.02981 -0.32106,-1.81428 -0.85414,-2.35341c-0.52702,-0.53914 -1.18125,-0.8087 -1.9627,-0.8087c-1.64163,0 -2.58361,1.05404 -2.82592,3.16212z" fill="#cdcdcd" stroke="none" stroke-width="1" stroke-linecap="square"/><path d="M197.7306,215.57383c1.92029,0 3.43168,0.59366 4.53418,1.78097c1.1025,1.18125 1.65375,2.68658 1.65375,4.51602c0,1.84154 -0.56034,3.35293 -1.68101,4.53418c-1.11462,1.18125 -2.59269,1.77187 -4.43423,1.77187c-1.99904,0 -3.54072,-0.59668 -4.62505,-1.79005c-1.08433,-1.19943 -1.62649,-2.70476 -1.62649,-4.51602c0,-1.83548 0.54822,-3.34385 1.64467,-4.5251c1.1025,-1.18125 2.61389,-1.77187 4.53418,-1.77187zM197.7306,225.86889c0.93895,0 1.68101,-0.35135 2.2262,-1.05404c0.55125,-0.70876 0.82688,-1.6901 0.82688,-2.94404c0,-1.25394 -0.27562,-2.23529 -0.82688,-2.94404c-0.5452,-0.70876 -1.28726,-1.06313 -2.2262,-1.06313c-0.92683,0 -1.66587,0.35741 -2.21711,1.07221c-0.55125,0.70876 -0.82688,1.68706 -0.82688,2.93495c0,1.26 0.2726,2.24134 0.81779,2.94404c0.55125,0.7027 1.29332,1.05404 2.2262,1.05404zM206.33783,225.61447v-7.95072c0,-1.39327 0.51187,-2.0899 1.53562,-2.0899c0.97529,0 1.47505,0.64211 1.49928,1.92635c0.64211,-1.28424 1.52957,-1.92635 2.66236,-1.92635c0.59971,0 1.21759,0.1575 1.85366,0.4725c0.64211,0.30894 0.96318,0.73601 0.96318,1.2812c0,0.38163 -0.13024,0.69664 -0.39072,0.945c-0.25442,0.24231 -0.52702,0.36347 -0.81779,0.36347c-0.16961,0 -0.4725,-0.06663 -0.90865,-0.19991c-0.43616,-0.13326 -0.79961,-0.19991 -1.09039,-0.19991c-0.7451,0 -1.29938,0.37557 -1.66284,1.12674c-0.36347,0.75115 -0.5452,2.19895 -0.5452,4.34337v1.79005c0,0.7875 -0.03332,1.32058 -0.09995,1.59923c-0.06057,0.2726 -0.22717,0.52096 -0.49975,0.7451c-0.2726,0.22413 -0.5876,0.33621 -0.945,0.33621c-0.33923,0 -0.64515,-0.09995 -0.91775,-0.29986c-0.2726,-0.19991 -0.44827,-0.43616 -0.52702,-0.70876c-0.07269,-0.27866 -0.10904,-0.79659 -0.10904,-1.5538zM231.94599,217.68191v-0.41798c0,-0.56336 0.13932,-0.98438 0.41798,-1.26303c0.27866,-0.28472 0.63001,-0.42706 1.05404,-0.42706c0.46644,0 0.82688,0.16356 1.0813,0.49067c0.25442,0.32711 0.38163,1.03587 0.38163,2.12626v8.33236c0,2.46549 -0.52096,4.12529 -1.56288,4.97942c-1.04193,0.85414 -2.54726,1.2812 -4.51602,1.2812c-1.76279,0 -3.14091,-0.32711 -4.13438,-0.98134c-0.99346,-0.64817 -1.49019,-1.33573 -1.49019,-2.06265c0,-0.39375 0.13024,-0.71178 0.39072,-0.95409c0.26654,-0.23625 0.57548,-0.35437 0.92683,-0.35437c0.32711,0 0.5876,0.07573 0.78145,0.22717c0.19385,0.1575 0.52096,0.52702 0.98134,1.10856c0.46038,0.5876 1.24183,0.8814 2.34433,0.8814c0.60577,0 1.16611,-0.09692 1.68101,-0.29076c0.52096,-0.18779 0.9026,-0.52399 1.1449,-1.0086c0.24837,-0.47855 0.36649,-1.64467 0.35437,-3.49832c-0.95106,1.36298 -2.2474,2.04447 -3.88905,2.04447c-1.58106,0 -2.83198,-0.59062 -3.75275,-1.77187c-0.92077,-1.18731 -1.38115,-2.70476 -1.38115,-4.55236c0,-1.84154 0.4725,-3.30145 1.4175,-4.37972c0.95106,-1.07827 2.1838,-1.61741 3.69822,-1.61741c1.65375,0 3.01068,0.7027 4.07077,2.10808zM225.89435,221.81629c0,1.20548 0.26351,2.12626 0.79053,2.76231c0.52702,0.63001 1.24789,0.945 2.1626,0.945c0.79355,0 1.48111,-0.30591 2.06265,-0.91775c0.58154,-0.61789 0.87231,-1.53562 0.87231,-2.75323c0,-1.20548 -0.26956,-2.15957 -0.8087,-2.86226c-0.53308,-0.7027 -1.25698,-1.05404 -2.17169,-1.05404c-0.87836,0 -1.58409,0.33015 -2.11716,0.99044c-0.52702,0.65423 -0.79053,1.61741 -0.79053,2.88953zM243.4132,215.57383c1.92029,0 3.43168,0.59366 4.53418,1.78097c1.1025,1.18125 1.65375,2.68658 1.65375,4.51602c0,1.84154 -0.56034,3.35293 -1.68101,4.53418c-1.11462,1.18125 -2.59269,1.77187 -4.43423,1.77187c-1.99904,0 -3.54072,-0.59668 -4.62505,-1.79005c-1.08433,-1.19943 -1.62649,-2.70476 -1.62649,-4.51602c0,-1.83548 0.54822,-3.34385 1.64467,-4.5251c1.1025,-1.18125 2.61389,-1.77187 4.53418,-1.77187zM243.4132,225.86889c0.93895,0 1.68101,-0.35135 2.2262,-1.05404c0.55125,-0.70876 0.82688,-1.6901 0.82688,-2.94404c0,-1.25394 -0.27562,-2.23529 -0.82688,-2.94404c-0.5452,-0.70876 -1.28726,-1.06313 -2.2262,-1.06313c-0.92683,0 -1.66587,0.35741 -2.21711,1.07221c-0.55125,0.70876 -0.82688,1.68706 -0.82688,2.93495c0,1.26 0.2726,2.24134 0.81779,2.94404c0.55125,0.7027 1.29332,1.05404 2.2262,1.05404zM264.36905,215.57383c1.92029,0 3.43168,0.59366 4.53418,1.78097c1.1025,1.18125 1.65375,2.68658 1.65375,4.51602c0,1.84154 -0.56034,3.35293 -1.68101,4.53418c-1.11462,1.18125 -2.59269,1.77187 -4.43423,1.77187c-1.99904,0 -3.54072,-0.59668 -4.62505,-1.79005c-1.08433,-1.19943 -1.62649,-2.70476 -1.62649,-4.51602c0,-1.83548 0.54822,-3.34385 1.64467,-4.5251c1.1025,-1.18125 2.61389,-1.77187 4.53418,-1.77187zM264.36905,225.86889c0.93895,0 1.68101,-0.35135 2.2262,-1.05404c0.55125,-0.70876 0.82688,-1.6901 0.82688,-2.94404c0,-1.25394 -0.27562,-2.23529 -0.82688,-2.94404c-0.5452,-0.70876 -1.28726,-1.06313 -2.2262,-1.06313c-0.92683,0 -1.66587,0.35741 -2.21711,1.07221c-0.55125,0.70876 -0.82688,1.68706 -0.82688,2.93495c0,1.26 0.2726,2.24134 0.81779,2.94404c0.55125,0.7027 1.29332,1.05404 2.2262,1.05404zM283.93464,220.52601v5.08846c0,0.65423 -0.02726,1.13278 -0.08177,1.43568c-0.04846,0.29682 -0.20899,0.56034 -0.48159,0.79053c-0.2726,0.22413 -0.59668,0.33621 -0.97226,0.33621c-0.33317,0 -0.64515,-0.09995 -0.93591,-0.29986c-0.28472,-0.19991 -0.46038,-0.46038 -0.52702,-0.78145c-0.06663,-0.32106 -0.09995,-0.81476 -0.09995,-1.48111v-4.47058c0,-1.24183 -0.18779,-2.07779 -0.56336,-2.50789c-0.36952,-0.4301 -0.87836,-0.64515 -1.52654,-0.64515c-0.59366,0 -1.11462,0.16961 -1.56288,0.50885c-0.44221,0.33923 -0.75419,0.7663 -0.93591,1.2812c-0.18173,0.50885 -0.2726,1.38418 -0.2726,2.62601v3.20755c0,0.64817 -0.02423,1.12068 -0.07269,1.4175c-0.04846,0.29682 -0.21505,0.56336 -0.49975,0.79961c-0.27866,0.23019 -0.59971,0.34529 -0.96318,0.34529c-0.33923,0 -0.65423,-0.10298 -0.945,-0.30894c-0.28472,-0.21203 -0.45736,-0.4725 -0.51793,-0.78145c-0.06057,-0.30894 -0.09087,-0.79961 -0.09087,-1.47202v-7.65086c0,-0.68452 0.03029,-1.16308 0.09087,-1.43568c0.06663,-0.2726 0.23019,-0.49975 0.49067,-0.68149c0.26048,-0.18173 0.55428,-0.2726 0.8814,-0.2726c0.30288,0 0.61789,0.11812 0.945,0.35437c0.33317,0.23625 0.49975,0.81476 0.49975,1.73553c1.03587,-1.39327 2.36856,-2.0899 3.99808,-2.0899c0.61789,0 1.22971,0.11812 1.83548,0.35437c0.60577,0.23019 1.09947,0.6088 1.48111,1.13582c0.38769,0.52702 0.62091,1.07221 0.69966,1.63557c0.08481,0.56336 0.12722,1.17216 0.12722,1.8264zM301.79197,226.43226c-1.47807,1.16308 -2.92587,1.74461 -4.34337,1.74461c-1.33875,0 -2.36856,-0.33923 -3.08942,-1.01769c-0.7148,-0.68452 -1.07221,-1.51745 -1.07221,-2.4988c0,-0.84202 0.24231,-1.52048 0.72692,-2.03539c0.49067,-0.52096 1.02375,-0.88442 1.59923,-1.09039c0.57548,-0.20597 1.51139,-0.44221 2.80774,-0.70876c1.3024,-0.2726 2.35039,-0.52096 3.14394,-0.7451c-0.00606,-0.93895 -0.19082,-1.57198 -0.55428,-1.89909c-0.36347,-0.33317 -0.91775,-0.49975 -1.66284,-0.49975c-1.40538,0 -2.32615,0.39375 -2.76231,1.18125c-0.24231,0.44827 -0.45736,0.7663 -0.64515,0.95409c-0.18779,0.18779 -0.46038,0.28168 -0.81779,0.28168c-0.32711,0 -0.62395,-0.10601 -0.89048,-0.31803c-0.26048,-0.21807 -0.39072,-0.49673 -0.39072,-0.83596c0,-0.80567 0.43312,-1.56894 1.29938,-2.28981c0.87231,-0.72086 2.24438,-1.0813 4.1162,-1.0813c1.89605,0 3.28327,0.32711 4.16163,0.98134c0.87836,0.65423 1.29029,1.97784 1.23577,3.97082l-0.07269,2.90769c-0.03029,0.89654 0.06361,1.62953 0.28168,2.19895c0.21807,0.56942 0.32711,1.00558 0.32711,1.30846c0,0.32711 -0.14538,0.61485 -0.43616,0.86322c-0.28472,0.24837 -0.6088,0.37255 -0.97226,0.37255c-0.63001,0 -1.29332,-0.58154 -1.98996,-1.74461zM301.58298,221.94351c-0.46038,0.18173 -1.22365,0.37861 -2.28981,0.59062c-1.06009,0.21203 -1.81125,0.45433 -2.25346,0.72692c-0.44221,0.2726 -0.66332,0.66937 -0.66332,1.19033c0,0.44827 0.17568,0.84202 0.52702,1.18125c0.35135,0.33923 0.84808,0.50885 1.49019,0.50885c0.68452,0 1.31755,-0.18476 1.89909,-0.55428c0.5876,-0.37557 0.94803,-0.82082 1.0813,-1.33573c0.13932,-0.5149 0.20899,-1.28424 0.20899,-2.30798zM318.71339,220.52601v5.08846c0,0.65423 -0.02726,1.13278 -0.08177,1.43568c-0.04846,0.29682 -0.20899,0.56034 -0.48159,0.79053c-0.2726,0.22413 -0.59668,0.33621 -0.97226,0.33621c-0.33317,0 -0.64515,-0.09995 -0.93591,-0.29986c-0.28472,-0.19991 -0.46038,-0.46038 -0.52702,-0.78145c-0.06663,-0.32106 -0.09995,-0.81476 -0.09995,-1.48111v-4.47058c0,-1.24183 -0.18779,-2.07779 -0.56336,-2.50789c-0.36952,-0.4301 -0.87836,-0.64515 -1.52654,-0.64515c-0.59366,0 -1.11462,0.16961 -1.56288,0.50885c-0.44221,0.33923 -0.75419,0.7663 -0.93591,1.2812c-0.18173,0.50885 -0.2726,1.38418 -0.2726,2.62601v3.20755c0,0.64817 -0.02423,1.12068 -0.07269,1.4175c-0.04846,0.29682 -0.21505,0.56336 -0.49975,0.79961c-0.27866,0.23019 -0.59971,0.34529 -0.96318,0.34529c-0.33923,0 -0.65423,-0.10298 -0.945,-0.30894c-0.28472,-0.21203 -0.45736,-0.4725 -0.51793,-0.78145c-0.06057,-0.30894 -0.09087,-0.79961 -0.09087,-1.47202v-7.65086c0,-0.68452 0.03029,-1.16308 0.09087,-1.43568c0.06663,-0.2726 0.23019,-0.49975 0.49067,-0.68149c0.26048,-0.18173 0.55428,-0.2726 0.8814,-0.2726c0.30288,0 0.61789,0.11812 0.945,0.35437c0.33317,0.23625 0.49975,0.81476 0.49975,1.73553c1.03587,-1.39327 2.36856,-2.0899 3.99808,-2.0899c0.61789,0 1.22971,0.11812 1.83548,0.35437c0.60577,0.23019 1.09947,0.6088 1.48111,1.13582c0.38769,0.52702 0.62091,1.07221 0.69966,1.63557c0.08481,0.56336 0.12722,1.17216 0.12722,1.8264zM327.24793,215.57383c1.92029,0 3.43168,0.59366 4.53418,1.78097c1.1025,1.18125 1.65375,2.68658 1.65375,4.51602c0,1.84154 -0.56034,3.35293 -1.68101,4.53418c-1.11462,1.18125 -2.59269,1.77187 -4.43423,1.77187c-1.99904,0 -3.54072,-0.59668 -4.62505,-1.79005c-1.08433,-1.19943 -1.62649,-2.70476 -1.62649,-4.51602c0,-1.83548 0.54822,-3.34385 1.64467,-4.5251c1.1025,-1.18125 2.61389,-1.77187 4.53418,-1.77187zM327.24793,225.86889c0.93895,0 1.68101,-0.35135 2.2262,-1.05404c0.55125,-0.70876 0.82688,-1.6901 0.82688,-2.94404c0,-1.25394 -0.27562,-2.23529 -0.82688,-2.94404c-0.5452,-0.70876 -1.28726,-1.06313 -2.2262,-1.06313c-0.92683,0 -1.66587,0.35741 -2.21711,1.07221c-0.55125,0.70876 -0.82688,1.68706 -0.82688,2.93495c0,1.26 0.2726,2.24134 0.81779,2.94404c0.55125,0.7027 1.29332,1.05404 2.2262,1.05404zM336.39125,215.84643v-1.86274c0,-0.76933 0.03029,-1.29029 0.09087,-1.56288c0.06663,-0.27866 0.23322,-0.52399 0.49975,-0.73601c0.2726,-0.21807 0.59062,-0.32711 0.95409,-0.32711c0.33317,0 0.63303,0.09995 0.89957,0.29986c0.26654,0.19385 0.44221,0.4301 0.52702,0.70876c0.08481,0.27866 0.12722,0.73298 0.12722,1.36298v2.11716h0.59971c0.75721,0 1.26,0.09389 1.50837,0.28168c0.25442,0.18173 0.38163,0.4513 0.38163,0.8087c0,0.76327 -0.63605,1.1449 -1.90817,1.1449h-0.58154v5.72453c0,0.76933 0.05452,1.29634 0.16356,1.58106c0.10904,0.27866 0.40284,0.41798 0.8814,0.41798c0.22413,0 0.47855,-0.03029 0.76327,-0.09087c0.28472,-0.06663 0.49673,-0.09995 0.63605,-0.09995c0.30894,0 0.56034,0.10298 0.75419,0.30894c0.19385,0.19991 0.29076,0.44524 0.29076,0.73601c0,1.01164 -1.07221,1.51745 -3.21664,1.51745c-1.03587,0 -1.79913,-0.19082 -2.28981,-0.57246c-0.49067,-0.38769 -0.79355,-0.85716 -0.90865,-1.40842c-0.1151,-0.55731 -0.17264,-1.27818 -0.17264,-2.1626v-5.95168h-0.4089c-0.92077,0 -1.38115,-0.37557 -1.38115,-1.12674c0,-0.73904 0.48159,-1.10856 1.44476,-1.10856zM355.09366,220.35336v5.65183c0,1.44779 -0.52702,2.17169 -1.58106,2.17169c-0.4725,0 -0.84202,-0.15144 -1.10856,-0.45433c-0.26654,-0.30894 -0.39981,-0.8814 -0.39981,-1.71736v-4.95216c0,-1.16913 -0.18779,-1.97178 -0.56336,-2.40794c-0.37557,-0.43616 -0.89654,-0.65423 -1.56288,-0.65423c-0.58761,0 -1.09949,0.16356 -1.53564,0.49067c-0.43616,0.32106 -0.7451,0.72086 -0.92683,1.19943c-0.18173,0.47855 -0.2726,1.31452 -0.2726,2.50789v3.58919c0,0.96923 -0.13932,1.61135 -0.41798,1.92635c-0.2726,0.315 -0.65423,0.4725 -1.1449,0.4725c-0.47855,0 -0.85414,-0.15144 -1.12674,-0.45433c-0.2726,-0.30894 -0.4089,-0.94197 -0.4089,-1.89909v-12.31226c0,-0.7451 0.03635,-1.26303 0.10904,-1.5538c0.07269,-0.29682 0.23625,-0.53611 0.49067,-0.71784c0.26048,-0.18779 0.56336,-0.28168 0.90865,-0.28168c0.39375,0 0.72086,0.10601 0.98134,0.31803c0.26048,0.21203 0.42706,0.48765 0.49975,0.82688c0.07269,0.33317 0.10904,0.89048 0.10904,1.67192v3.67096c1.03587,-1.24789 2.29588,-1.87183 3.78002,-1.87183c1.25394,0 2.26254,0.38467 3.02582,1.15399c0.76327,0.76327 1.1449,1.97178 1.1449,3.62553zM366.81753,222.63409h-6.08795c0.03029,1.15096 0.34529,2.02024 0.945,2.60783c0.60577,0.5876 1.32663,0.8814 2.1626,0.8814c1.0419,0 2.02021,-0.45433 2.93492,-1.36298c0.36952,-0.38163 0.64211,-0.61789 0.81779,-0.70876c0.18173,-0.09087 0.38163,-0.1363 0.59971,-0.1363c0.27866,0 0.51793,0.08783 0.71784,0.26351c0.20597,0.17568 0.30894,0.39072 0.30894,0.64515c0,0.69664 -0.47855,1.42962 -1.43568,2.19895c-0.95106,0.76933 -2.24133,1.15399 -3.87083,1.15399c-2.07779,0 -3.65279,-0.58456 -4.72501,-1.75371c-1.06615,-1.16913 -1.59923,-2.68658 -1.59923,-4.55236c0,-1.87789 0.53308,-3.39534 1.59923,-4.55236c1.07221,-1.16308 2.5624,-1.74461 4.47058,-1.74461c1.8294,0 3.2378,0.54822 4.22521,1.64467c0.99346,1.09644 1.49019,2.28981 1.49019,3.5801c0,0.56336 -0.16658,1.01164 -0.49975,1.34481c-0.32711,0.32711 -1.01164,0.49067 -2.05355,0.49067zM360.72959,220.8713h5.64271c-0.03635,-1.02981 -0.32106,-1.81428 -0.85414,-2.35341c-0.52699,-0.53914 -1.18121,-0.8087 -1.96266,-0.8087c-1.64163,0 -2.58361,1.05404 -2.82592,3.16212zM371.96279,225.61447v-7.95072c0,-1.39327 0.51187,-2.0899 1.53562,-2.0899c0.97529,0 1.47505,0.64211 1.49928,1.92635c0.64211,-1.28424 1.52957,-1.92635 2.66236,-1.92635c0.59971,0 1.21759,0.1575 1.85366,0.4725c0.64211,0.30894 0.96318,0.73601 0.96318,1.2812c0,0.38163 -0.13024,0.69664 -0.39072,0.945c-0.25442,0.24231 -0.52702,0.36347 -0.81779,0.36347c-0.16961,0 -0.4725,-0.06663 -0.90865,-0.19991c-0.43616,-0.13326 -0.79961,-0.19991 -1.09039,-0.19991c-0.7451,0 -1.29938,0.37557 -1.66284,1.12674c-0.36347,0.75115 -0.5452,2.19895 -0.5452,4.34337v1.79005c0,0.7875 -0.03332,1.32058 -0.09995,1.59923c-0.06057,0.2726 -0.22717,0.52096 -0.49975,0.7451c-0.2726,0.22413 -0.5876,0.33621 -0.945,0.33621c-0.33923,0 -0.64515,-0.09995 -0.91775,-0.29986c-0.2726,-0.19991 -0.44827,-0.43616 -0.52702,-0.70876c-0.07269,-0.27866 -0.10904,-0.79659 -0.10904,-1.5538zM391.42844,218.79956c0,0.39981 0.20899,0.7148 0.62697,0.945c0.41798,0.22413 1.34783,0.5149 2.78957,0.87231c2.81077,0.67846 4.21616,1.8476 4.21616,3.50741c0,1.30846 -0.4725,2.31101 -1.4175,3.00765c-0.945,0.69664 -2.27164,1.04495 -3.9799,1.04495c-1.72644,0 -3.02582,-0.35437 -3.89813,-1.06313c-0.87231,-0.7148 -1.30846,-1.46899 -1.30846,-2.26254c0,-0.33923 0.12116,-0.63001 0.36347,-0.87231c0.24231,-0.24231 0.53914,-0.36347 0.89048,-0.36347c0.48461,0 0.90865,0.30288 1.27212,0.90865c0.41192,0.66635 0.86322,1.10856 1.35389,1.32663c0.49067,0.21203 1.01769,0.31803 1.58106,0.31803c0.61789,0 1.12068,-0.1363 1.50837,-0.4089c0.39375,-0.27866 0.59062,-0.63001 0.59062,-1.05404c0,-0.38769 -0.16658,-0.7239 -0.49975,-1.0086c-0.32711,-0.28472 -1.22669,-0.59366 -2.6987,-0.92683c-1.47202,-0.33923 -2.54424,-0.81173 -3.21664,-1.4175c-0.6724,-0.61183 -1.0086,-1.33875 -1.0086,-2.18077c0,-0.945 0.4089,-1.78097 1.22669,-2.50789c0.82384,-0.72692 2.05659,-1.09039 3.69822,-1.09039c1.50837,0 2.70779,0.30591 3.59827,0.91775c0.89654,0.61183 1.34481,1.24789 1.34481,1.90817c0,0.34529 -0.1151,0.63909 -0.34529,0.8814c-0.22413,0.23625 -0.53611,0.35437 -0.93591,0.35437c-0.59971,0 -1.14188,-0.34225 -1.62649,-1.02678c-0.47855,-0.69058 -1.20245,-1.03587 -2.17169,-1.03587c-0.52096,0 -0.97832,0.10601 -1.37207,0.31803c-0.38769,0.21203 -0.58154,0.5149 -0.58154,0.90865zM410.34208,222.63409h-6.08798c0.03029,1.15096 0.34529,2.02024 0.945,2.60783c0.60577,0.5876 1.32663,0.8814 2.1626,0.8814c1.04193,0 2.02024,-0.45433 2.93495,-1.36298c0.36952,-0.38163 0.64211,-0.61789 0.81779,-0.70876c0.18173,-0.09087 0.38163,-0.1363 0.59971,-0.1363c0.27866,0 0.51793,0.08783 0.71784,0.26351c0.20597,0.17568 0.30894,0.39072 0.30894,0.64515c0,0.69664 -0.47855,1.42962 -1.43568,2.19895c-0.95106,0.76933 -2.24134,1.15399 -3.87087,1.15399c-2.07779,0 -3.65279,-0.58456 -4.72501,-1.75371c-1.06615,-1.16913 -1.59923,-2.68658 -1.59923,-4.55236c0,-1.87789 0.53308,-3.39534 1.59923,-4.55236c1.07221,-1.16308 2.5624,-1.74461 4.47058,-1.74461c1.82942,0 3.23784,0.54822 4.22524,1.64467c0.99346,1.09644 1.49019,2.28981 1.49019,3.5801c0,0.56336 -0.16658,1.01164 -0.49975,1.34481c-0.32711,0.32711 -1.01164,0.49067 -2.05355,0.49067zM404.2541,220.8713h5.64274c-0.03635,-1.02981 -0.32106,-1.81428 -0.85414,-2.35341c-0.52702,-0.53914 -1.18125,-0.8087 -1.9627,-0.8087c-1.64163,0 -2.58361,1.05404 -2.82592,3.16212zM415.48733,225.61447v-7.95072c0,-1.39327 0.51187,-2.0899 1.53562,-2.0899c0.97529,0 1.47505,0.64211 1.49928,1.92635c0.64211,-1.28424 1.52957,-1.92635 2.66236,-1.92635c0.59971,0 1.21759,0.1575 1.85366,0.4725c0.64211,0.30894 0.96318,0.73601 0.96318,1.2812c0,0.38163 -0.13024,0.69664 -0.39072,0.945c-0.25442,0.24231 -0.52702,0.36347 -0.81779,0.36347c-0.16961,0 -0.4725,-0.06663 -0.90865,-0.19991c-0.43616,-0.13326 -0.79961,-0.19991 -1.09039,-0.19991c-0.7451,0 -1.29938,0.37557 -1.66284,1.12674c-0.36347,0.75115 -0.5452,2.19895 -0.5452,4.34337v1.79005c0,0.7875 -0.03332,1.32058 -0.09995,1.59923c-0.06057,0.2726 -0.22717,0.52096 -0.49975,0.7451c-0.2726,0.22413 -0.5876,0.33621 -0.945,0.33621c-0.33923,0 -0.64515,-0.09995 -0.91775,-0.29986c-0.2726,-0.19991 -0.44827,-0.43616 -0.52702,-0.70876c-0.07269,-0.27866 -0.10904,-0.79659 -0.10904,-1.5538zM430.40062,224.56952l2.6987,-7.37828c0.26654,-0.73298 0.5149,-1.18428 0.7451,-1.35389c0.23019,-0.17568 0.49371,-0.26351 0.79053,-0.26351c0.41192,0 0.75419,0.13932 1.02678,0.41798c0.27866,0.27866 0.41798,0.56942 0.41798,0.87231c0,0.27866 -0.15447,0.79659 -0.46341,1.5538l-2.99856,7.38736c-0.41192,1.05404 -0.7663,1.71432 -1.06313,1.98086c-0.29076,0.26048 -0.67543,0.39072 -1.15399,0.39072c-0.59971,0 -1.03587,-0.16658 -1.30846,-0.49975c-0.26654,-0.33317 -0.58456,-0.95712 -0.95409,-1.87183l-2.95312,-7.30558c-0.30894,-0.73904 -0.46341,-1.26908 -0.46341,-1.59014c0,-0.32711 0.14236,-0.63001 0.42706,-0.90865c0.28472,-0.28472 0.63909,-0.42706 1.06313,-0.42706c0.46644,0 0.79355,0.13326 0.98134,0.39981c0.19385,0.26048 0.42706,0.76933 0.69966,1.52654zM446.96085,222.63409h-6.08798c0.03029,1.15096 0.34529,2.02024 0.945,2.60783c0.60577,0.5876 1.32663,0.8814 2.1626,0.8814c1.04193,0 2.02024,-0.45433 2.93495,-1.36298c0.36952,-0.38163 0.64211,-0.61789 0.81779,-0.70876c0.18173,-0.09087 0.38163,-0.1363 0.59971,-0.1363c0.27866,0 0.51793,0.08783 0.71784,0.26351c0.20597,0.17568 0.30894,0.39072 0.30894,0.64515c0,0.69664 -0.47855,1.42962 -1.43568,2.19895c-0.95106,0.76933 -2.24134,1.15399 -3.87087,1.15399c-2.07779,0 -3.65279,-0.58456 -4.72501,-1.75371c-1.06615,-1.16913 -1.59923,-2.68658 -1.59923,-4.55236c0,-1.87789 0.53308,-3.39534 1.59923,-4.55236c1.07221,-1.16308 2.5624,-1.74461 4.47058,-1.74461c1.82942,0 3.23784,0.54822 4.22524,1.64467c0.99346,1.09644 1.49019,2.28981 1.49019,3.5801c0,0.56336 -0.16658,1.01164 -0.49975,1.34481c-0.32711,0.32711 -1.01164,0.49067 -2.05355,0.49067zM440.87287,220.8713h5.64274c-0.03635,-1.02981 -0.32106,-1.81428 -0.85414,-2.35341c-0.52702,-0.53914 -1.18125,-0.8087 -1.9627,-0.8087c-1.64163,0 -2.58361,1.05404 -2.82592,3.16212zM452.10611,225.61447v-7.95072c0,-1.39327 0.51187,-2.0899 1.53562,-2.0899c0.97529,0 1.47505,0.64211 1.49928,1.92635c0.64211,-1.28424 1.52957,-1.92635 2.66236,-1.92635c0.59971,0 1.21759,0.1575 1.85366,0.4725c0.64211,0.30894 0.96318,0.73601 0.96318,1.2812c0,0.38163 -0.13024,0.69664 -0.39072,0.945c-0.25442,0.24231 -0.52702,0.36347 -0.81779,0.36347c-0.16961,0 -0.4725,-0.06663 -0.90865,-0.19991c-0.43616,-0.13326 -0.79961,-0.19991 -1.09039,-0.19991c-0.7451,0 -1.29938,0.37557 -1.66284,1.12674c-0.36347,0.75115 -0.5452,2.19895 -0.5452,4.34337v1.79005c0,0.7875 -0.03332,1.32058 -0.09995,1.59923c-0.06057,0.2726 -0.22717,0.52096 -0.49975,0.7451c-0.2726,0.22413 -0.5876,0.33621 -0.945,0.33621c-0.33923,0 -0.64515,-0.09995 -0.91775,-0.29986c-0.2726,-0.19991 -0.44827,-0.43616 -0.52702,-0.70876c-0.07269,-0.27866 -0.10904,-0.79659 -0.10904,-1.5538zM466.21978,215.10134l-0.48159,5.60639c-0.07875,0.81779 -0.22111,1.36601 -0.42706,1.64467c-0.19991,0.27866 -0.46038,0.41798 -0.78145,0.41798c-0.315,0 -0.57548,-0.14236 -0.78145,-0.42706c-0.19991,-0.28472 -0.33015,-0.8299 -0.39072,-1.63557l-0.38163,-5.4701c-0.04846,-0.46644 -0.07269,-1.13278 -0.07269,-1.99904c0,-1.52048 0.58154,-2.28072 1.74461,-2.28072c0.5149,0 0.91169,0.17568 1.19033,0.52702c0.28472,0.34529 0.42706,0.99044 0.42706,1.93543c0,0.76933 -0.01514,1.32967 -0.04543,1.68101zM464.60238,224.76033c0.46038,0 0.85716,0.16658 1.19033,0.49975c0.33923,0.33317 0.50885,0.72996 0.50885,1.19033c0,0.4725 -0.16961,0.87836 -0.50885,1.21759c-0.33317,0.33923 -0.72996,0.50885 -1.19033,0.50885c-0.47855,0 -0.88745,-0.16658 -1.22669,-0.49975c-0.33317,-0.33923 -0.49975,-0.74813 -0.49975,-1.22669c0,-0.46038 0.16961,-0.85716 0.50885,-1.19033c0.33923,-0.33317 0.7451,-0.49975 1.21759,-0.49975z" fill="#cdcdcd" stroke="none" stroke-width="1" stroke-linecap="square"/></g></g></svg>