<svg version="1.1" xmlns="http://www.w3.org/2000/svg" xmlns:xlink="http://www.w3.org/1999/xlink" width="372.37237" height="258.6196" viewBox="0,0,372.37237,258.6196"><defs><linearGradient x1="240" y1="180" x2="240" y2="180" gradientUnits="userSpaceOnUse" id="color-1"><stop offset="0" stop-color="#e7bc52"/><stop offset="1" stop-color="#efd85e"/></linearGradient><linearGradient x1="240" y1="180" x2="240" y2="180" gradientUnits="userSpaceOnUse" id="color-2"><stop offset="0" stop-color="#efd85e" stop-opacity="0"/><stop offset="1" stop-color="#efd85e" stop-opacity="0"/></linearGradient></defs><g transform="translate(-53.81381,103.70406)"><g data-paper-data="{&quot;isPaintingLayer&quot;:true}" fill-rule="nonzero" stroke-linejoin="miter" stroke-miterlimit="10" stroke-dasharray="" stroke-dashoffset="0" style="mix-blend-mode: normal"><path d="" fill="url(#color-1)" stroke="#000000" stroke-width="15" stroke-linecap="butt"/><path d="" fill="#e7bc52" stroke="none" stroke-width="0" stroke-linecap="butt"/><path d="" fill="url(#color-2)" stroke="#000000" stroke-width="15" stroke-linecap="butt"/><g fill="none" stroke="#392f0e" stroke-width="5" stroke-linecap="round"><path d=""/><path d=""/><path d=""/></g><g><path d="M411.91042,108.84983c0.8859,11.33431 1.88178,10.11683 -12.60771,13.14395c-11.18115,2.33595 -20.59378,2.19743 -50.29318,5.55628c-44.49823,5.03253 -90.70899,22.81925 -120.75983,0.76351c-29.06108,-28.43848 -12.94792,-128.4909 -12.94792,-128.4909c0,0 77.32868,7.59507 141.75972,36.14038c42.84525,17.1192 53.2971,53.03252 54.84891,72.88677z" fill="#211d2b" stroke="#000000" stroke-width="15" stroke-linecap="butt"/><path d="M412.28002,113.39228l-185.65244,-6.24613c0,0 -5.76016,1.12079 -6.37788,0.66741c-29.06108,-28.43848 -4.94792,-107.9909 -4.94792,-107.9909c0,0 77.32868,7.59507 141.75972,36.14039c42.84525,17.1192 53.2971,53.03252 54.84892,72.88677c0.14163,1.81211 0.3696,4.54246 0.3696,4.54246z" fill="#3e3a4b" stroke="none" stroke-width="0" stroke-linecap="butt"/><path d="M224.1531,108.53934c0,0 46.56825,-0.67105 73.5848,-0.1005c51.08387,1.07882 110.4152,6.1005 110.4152,6.1005" fill="none" stroke="#000000" stroke-width="10" stroke-linecap="round"/><path d="M411.91042,108.84983c0.8859,11.33431 1.88178,10.11683 -12.60771,13.14395c-11.18115,2.33594 -20.59377,2.19742 -50.29318,5.55628c-44.49823,5.03253 -90.70899,22.81925 -120.75983,0.76351c-29.06108,-28.43848 -12.94792,-128.4909 -12.94792,-128.4909c0,0 77.32868,7.59507 141.75972,36.14038c42.84525,17.1192 53.2971,53.03252 54.84891,72.88677z" fill="none" stroke="#000000" stroke-width="15" stroke-linecap="butt"/><path d="M245.9399,94.51539c0,-3.17563 2.57436,-5.75 5.75,-5.75c3.17563,0 5.75,2.57437 5.75,5.75c0,3.17564 -2.57437,5.75 -5.75,5.75c-3.17564,0 -5.75,-2.57437 -5.75,-5.75z" fill="#242031" stroke="none" stroke-width="0" stroke-linecap="butt"/><path d="M283.43989,94.51539c0,-3.17563 2.57436,-5.75 5.75,-5.75c3.17563,0 5.75,2.57437 5.75,5.75c0,3.17564 -2.57436,5.75 -5.75,5.75c-3.17564,0 -5.75,-2.57437 -5.75,-5.75z" fill="#242031" stroke="none" stroke-width="0" stroke-linecap="butt"/><path d="M319.43989,95.68205c0,-3.17563 2.57436,-5.75 5.75,-5.75c3.17564,0 5.75,2.57437 5.75,5.75c0,3.17564 -2.57436,5.75 -5.75,5.75c-3.17564,0 -5.75,-2.57437 -5.75,-5.75z" fill="#242031" stroke="none" stroke-width="0" stroke-linecap="butt"/><path d="M354.4399,97.51539c0,-3.17563 2.57436,-5.75 5.75,-5.75c3.17564,0 5.75,2.57437 5.75,5.75c0,3.17564 -2.57436,5.75 -5.75,5.75c-3.17564,0 -5.75,-2.57437 -5.75,-5.75z" fill="#242031" stroke="none" stroke-width="0" stroke-linecap="butt"/><path d="M382.4399,100.51539c0,-3.17563 2.57436,-5.75 5.75,-5.75c3.17564,0 5.75,2.57437 5.75,5.75c0,3.17564 -2.57436,5.75 -5.75,5.75c-3.17564,0 -5.75,-2.57437 -5.75,-5.75z" fill="#242031" stroke="none" stroke-width="0" stroke-linecap="butt"/><path d="M246.37973,11.95832c7.41015,8.56 7.32426,20.7738 -0.19183,27.28027c-7.5161,6.50647 -19.61622,4.84177 -27.02637,-3.71824c-7.41015,-8.56 -7.32426,-20.7738 0.19183,-27.28028c7.5161,-6.50647 19.61622,-4.84176 27.02637,3.71825z" fill="#725b5a" stroke="#000000" stroke-width="12.5" stroke-linecap="butt"/><path d="M304.03201,6.30474c9.70822,5.82533 13.43183,17.458 8.3169,25.98228c-5.11492,8.52429 -17.13146,10.71224 -26.83968,4.8869c-9.70822,-5.82533 -13.43183,-17.458 -8.3169,-25.98229c5.11493,-8.52429 17.13146,-10.71223 26.83968,-4.8869z" fill="#725b5a" stroke="#000000" stroke-width="12.5" stroke-linecap="butt"/><g stroke-linecap="butt"><path d="M173.01594,-5.09151c0,0 -26.65808,-35.4736 -19.95364,-54.41034c8.30468,-23.45664 45.66246,-34.05069 55.46523,-36.70221c28.38885,-7.67883 38.53257,53.70623 38.53257,53.70623l-2.54416,6.40633c0,0 -20.75073,16.22708 -31.03493,20.41422c-12.58244,5.12285 -40.46507,10.58578 -40.46507,10.58578z" fill="#1e1c2a" stroke="none" stroke-width="0"/><path d="M193.42746,-17.5915c0,0 -2.38676,-8.34865 -9.33831,-23.36862c-9.76104,-20.78702 -20.28848,-32.04171 -20.28848,-32.04171c0,0 46.61656,-20.55069 54.04801,-23.20221c21.5215,-7.67883 29.21141,53.70623 29.21141,53.70623l-3.92872,2.90633z" fill="#312d3d" stroke="none" stroke-width="0"/><path d="M173.01594,-5.09151c0,0 -26.65808,-35.4736 -19.95364,-54.41034c8.30468,-23.45664 45.66246,-34.05069 55.46523,-36.70221c28.38885,-7.67883 38.53258,53.70623 38.53258,53.70623l-2.54416,6.40633c0,0 -20.75073,16.22708 -31.03493,20.41422c-12.58244,5.12285 -40.46507,10.58578 -40.46507,10.58578z" fill="none" stroke="#000000" stroke-width="15"/><path d="M281.50693,-39.59001c7.89881,13.85604 2.02989,16.74581 -60.53339,43.6764c-60.25613,25.93746 -82.63694,13.45852 -85.98464,-3.89978c-2.02778,-10.51432 38.68543,-3.56219 71.44585,-22.74598c35.80585,-20.96713 67.88619,-29.63623 75.07217,-17.03064z" fill="#1c1a26" stroke="none" stroke-width="0"/><path d="M281.50693,-39.59001c7.89881,13.85604 2.02989,16.74581 -60.53339,43.6764c-60.25613,25.93746 -57.63694,10.95852 -60.98464,-6.39978c-2.02778,-10.51432 13.68543,-1.06219 46.44585,-20.24598c35.80585,-20.96713 67.88619,-29.63623 75.07217,-17.03064z" fill="#312d3d" stroke="none" stroke-width="0"/><path d="M281.50693,-39.59001c2.9724,5.21417 4.25422,9.09974 -0.72074,14.35073c-16.02866,16.918 -20.79259,12.52934 -59.81265,29.32567c-60.25613,25.93746 -82.63694,13.45852 -85.98464,-3.89978c-2.02778,-10.51432 38.68543,-3.56219 71.44585,-22.74598c35.80585,-20.96713 67.88619,-29.63623 75.07217,-17.03064z" fill="none" stroke="#000000" stroke-width="15"/></g></g><path d="M53.81382,154.91554v-256.13738h372.37237v256.13738z" fill="none" stroke="none" stroke-width="NaN" stroke-linecap="butt"/></g></g></svg>