<svg version="1.1" xmlns="http://www.w3.org/2000/svg" xmlns:xlink="http://www.w3.org/1999/xlink" width="133.83453" height="117" viewBox="0,0,133.83453,117"><g transform="translate(-171.87206,-129.83333)"><g data-paper-data="{&quot;isPaintingLayer&quot;:true}" fill-rule="nonzero" stroke-linejoin="miter" stroke-miterlimit="10" stroke-dasharray="" stroke-dashoffset="0" style="mix-blend-mode: normal"><path d="M256.04409,192.70965c-8.77323,-0.01841 -46.33057,-0.09722 -52.90257,-0.11101c-1.91204,-0.00401 -2.29436,-1.18175 -1.06625,-2.28283c2.72604,-2.44407 13.38615,-12.00155 16.76507,-15.03097c0.6524,-0.58492 0.51764,-1.61119 -0.08362,-2.40947c-1.97379,-2.62058 -12.89411,-17.11939 -17.54302,-23.29171c-1.28928,-1.71176 -0.3432,-2.79028 1.62291,-2.7983c6.62077,-0.02702 43.77376,-0.17867 52.65641,-0.21492c1.22094,-0.00498 2.23996,0.44946 2.81547,1.24163c3.34692,4.60694 14.92329,20.54147 17.25116,23.74571c1.02814,1.4152 1.47368,3.38379 0.50553,4.28196c-4.05046,3.75766 -14.75138,13.68502 -16.85316,15.63486c-0.70139,0.65068 -1.994,1.23752 -3.16793,1.23506z" fill="#566565" stroke="#000000" stroke-width="5" stroke-linecap="butt"/><path d="M200.21557,191.153l18.77223,-17.91895h58.38896l-21.21019,19.86931z" fill="#000000" stroke="none" stroke-width="0" stroke-linecap="butt"/><path d="M223.87997,171.01697c-2.96826,-4.12773 -12.52918,-17.42338 -14.02274,-19.50037c-0.38475,-0.53505 -0.40138,-0.97682 0.15085,-0.97682c5.76192,0 38.86854,0 42.66417,0c0.69614,0 1.60228,0.53168 2.04736,1.14905c1.57752,2.18818 10.8688,15.07607 13.55805,18.80633c0.46176,0.6405 0.24828,1.01896 -0.61164,1.03317c-6.84782,0.11319 -37.75053,0.62398 -41.56782,0.68707c-0.75944,0.01255 -1.66476,-0.42876 -2.21823,-1.19842z" fill="#94949d" stroke="none" stroke-width="NaN" stroke-linecap="butt"/><g stroke-linecap="butt"><path d="M224.7877,192.04863c0,0 -3.43225,-27.81107 15.32353,-29.36883c14.2931,-1.18712 24.64876,22.8349 24.64876,22.8349l-7.30263,6.53393z" fill="#323245" stroke="none" stroke-width="0"/><path d="M225.51941,177.46837c1.55729,-6.99277 5.42379,-14.02712 14.59184,-14.78858c8.34439,-0.69304 13.61722,4.70765 18.00054,11.4027c1.2747,1.94697 1.67685,10.39618 -5.46531,11.2577c-5.51655,0.66543 -13.11686,-0.38041 -18.87567,-2.15714c-2.80497,-0.8654 -7.02017,1.46404 -8.49779,0.36514c-1.18946,-0.8846 0.0452,-5.17641 0.24639,-6.07982z" fill="#556565" stroke="none" stroke-width="0"/><path d="M227.34344,171.92216c2.20614,-4.78633 6.07382,-8.68641 12.76778,-9.24239c8.34439,-0.69304 10.92678,4.13113 14.92575,8.71226c0.56993,0.8705 -3.95776,0.98588 -9.72823,1.86531c-0.84312,0.12849 -2.09187,-0.01837 -2.09187,-0.01837c0,0 -2.54289,3.43104 -8.71621,2.86725c-4.70594,-0.35375 -7.44844,-3.55225 -7.15724,-4.18406z" fill="#a8b9b9" stroke="none" stroke-width="0"/><path d="M229.00705,168.75013c1.90816,-3.44092 5.25344,-6.24471 11.04326,-6.6444c7.21732,-0.49823 9.45091,2.96989 12.90975,6.26329c0.58902,0.74777 -6.48911,1.86241 -13.10275,1.89802c-5.76588,0.03105 -11.17874,-0.92458 -10.85026,-1.51691z" fill="#556565" stroke="none" stroke-width="0"/><path d="M233.01901,164.83863c2.15977,-1.8988 3.43564,-1.85514 7.09224,-2.15884c3.69046,-0.30651 6.78011,0.57892 9.45773,2.2411c3.37667,2.09614 -19.80531,2.77971 -16.54998,-0.08226z" fill="#acbbbb" stroke="none" stroke-width="0"/><path d="M224.78775,192.04863c0,0 -3.43225,-27.81107 15.32352,-29.36884c14.2931,-1.18712 24.64876,22.83491 24.64876,22.83491l-7.30263,6.53393z" fill="none" stroke="#000000" stroke-width="2"/><path d="M248.39422,183.54166c-3.26036,0.00235 -23.89053,-0.09167 -23.89053,-0.09167c0,0 1.74581,-1.48155 5.40114,-1.93583c4.30018,-0.53443 9.97085,-0.46505 13.83383,0.24071c2.83066,0.51715 5.01665,1.78653 4.65557,1.78679z" fill="#8a8f9a" stroke="none" stroke-width="0"/><path d="M225.00519,179.2485c0.21294,-1.03059 0.53527,-3.13244 1.12536,-4.60577c0.41667,-1.04035 1.18477,-1.71284 1.18477,-1.71284c0,0 3.29472,0.21731 5.43266,0.21731c5.52414,0 12.80419,0 14.77681,0c0.98963,0 1.97441,0.8587 2.01341,1.61929c0.06536,1.27453 0.11109,5.03668 0.13251,7.161c0.00906,0.89877 -0.74858,1.50491 -1.60243,1.50553c-3.26036,0.00235 -23.56457,0.01699 -23.56457,0.01699c0,0 0.05794,-2.05476 0.50148,-4.2015z" fill="none" stroke="#000000" stroke-width="1.5"/><path d="M242.24851,180.28106c0,0 1.86065,-0.14452 1.65623,-5.02387c-0.05507,-1.31445 -0.26591,-4.9016 -0.3921,-7.01191c-0.05723,-0.95692 0.08474,-0.982 0.35012,-0.046c0.59256,2.09001 1.60195,5.71487 1.93516,7.30841c0.75662,3.61855 3.00424,3.5165 3.00424,3.5165c0,0 -1.6299,1.60265 -1.85141,2.59189c-0.58283,2.60289 0.78725,5.32807 0.78725,5.32807c0,0 -1.96209,-4.09914 -2.6722,-5.04997c-0.68287,-0.91436 -2.81729,-1.61313 -2.81729,-1.61313z" fill="#ff0000" stroke="none" stroke-width="0"/></g><path d="M256.04411,192.70965c-8.77323,-0.01841 -46.33057,-0.09722 -52.90257,-0.11101c-1.91204,-0.00401 -2.29436,-1.18175 -1.06625,-2.28283c2.72604,-2.44407 13.38615,-12.00155 16.76507,-15.03097c0.6524,-0.58492 0.51764,-1.61119 -0.08362,-2.40947c-1.97379,-2.62058 -12.89411,-17.11939 -17.54302,-23.29171c-1.28928,-1.71176 -0.3432,-2.79028 1.62291,-2.7983c6.62077,-0.02702 43.77376,-0.17867 52.65641,-0.21492c1.22094,-0.00498 2.23996,0.44946 2.81547,1.24163c3.34692,4.60694 14.92329,20.54147 17.25116,23.74571c1.02814,1.4152 1.47368,3.38379 0.50553,4.28196c-4.05046,3.75766 -14.75138,13.68502 -16.85316,15.63486c-0.70139,0.65068 -1.994,1.23752 -3.16793,1.23506z" fill="none" stroke="#000000" stroke-width="5" stroke-linecap="butt"/><path d="M256.52135,192.70965c-8.56957,-0.01798 -45.25504,-0.09496 -51.67446,-0.10843c-1.86766,-0.00392 -2.24111,-1.15432 -1.04151,-2.22984c2.66276,-2.38733 13.07541,-11.72295 16.37589,-14.68204c0.63726,-0.57135 0.50562,-1.57378 -0.08167,-2.35353c-1.92797,-2.55974 -12.59478,-16.72198 -17.13577,-22.75101c-1.25934,-1.67202 -0.33523,-2.7255 1.58524,-2.73334c6.46708,-0.0264 42.75758,-0.17452 51.43402,-0.20994c1.19259,-0.00485 2.18797,0.43903 2.75012,1.21281c3.26923,4.5 14.57686,20.06461 16.85068,23.19447c1.00427,1.38235 1.43947,3.30524 0.49379,4.18256c-3.95643,3.67043 -14.40893,13.36732 -16.46193,15.27191c-0.68511,0.63557 -1.9477,1.2088 -3.09439,1.20639z" fill="none" stroke="#ff0000" stroke-width="2" stroke-linecap="butt"/><path d="M256.04411,192.70965c-8.77323,-0.01841 -46.33057,-0.09722 -52.90257,-0.11101c-1.91204,-0.00401 -2.29436,-1.18175 -1.06625,-2.28283c2.72604,-2.44407 13.38615,-12.00155 16.76507,-15.03097c0.6524,-0.58492 0.51764,-1.61119 -0.08362,-2.40947c-1.97379,-2.62058 -12.89411,-17.11939 -17.54302,-23.29171c-1.28928,-1.71176 -0.3432,-2.79028 1.62291,-2.7983c6.62077,-0.02702 43.77376,-0.17867 52.65641,-0.21492c1.22094,-0.00498 2.23996,0.44946 2.81547,1.24163c3.34692,4.60694 14.92329,20.54147 17.25116,23.74571c1.02814,1.4152 1.47368,3.38379 0.50553,4.28196c-4.05046,3.75766 -14.75138,13.68502 -16.85316,15.63486c-0.70139,0.65068 -1.994,1.23752 -3.16793,1.23506z" fill="none" stroke="#ffffff" stroke-width="2" stroke-linecap="butt"/><path d="M171.87206,246.83333v-117h133.83453v117z" fill="none" stroke="none" stroke-width="NaN" stroke-linecap="butt"/><g fill="#ffffff" stroke-linecap="square"><path d="M214.57244,210.6149l3.7334,-10.17291c0.36749,-1.00225 0.70993,-1.62031 1.02731,-1.85417c0.31738,-0.25056 0.67653,-0.37584 1.07743,-0.37584c0.56795,0 1.03566,0.19209 1.40315,0.57629c0.3842,0.3842 0.5763,0.78511 0.5763,1.20271c0,0.3842 -0.20881,1.10248 -0.62641,2.15485l-4.13431,10.17291c-0.56795,1.45327 -1.06072,2.36366 -1.47833,2.73115c-0.4009,0.36749 -0.92708,0.55124 -1.57855,0.55124c-0.8185,0 -1.41987,-0.22551 -1.80407,-0.67652c-0.36749,-0.46771 -0.80181,-1.33634 -1.30293,-2.60586l-4.08419,-10.07268c-0.43432,-1.01896 -0.65147,-1.74559 -0.65147,-2.1799c0,-0.45102 0.1921,-0.86863 0.5763,-1.25283c0.40091,-0.4009 0.89368,-0.60135 1.47833,-0.60135c0.65147,0 1.10248,0.18375 1.35305,0.55124c0.26727,0.36749 0.59301,1.06907 0.9772,2.10474zM236.96974,207.95892h-8.3939c0.05012,1.58691 0.48442,2.78126 1.30293,3.58306c0.83522,0.80181 1.83748,1.20271 3.00677,1.20271c1.41986,0 2.76457,-0.62641 4.03409,-1.87923c0.51783,-0.51783 0.89367,-0.83522 1.12754,-0.95215c0.25056,-0.13363 0.52618,-0.20045 0.82686,-0.20045c0.3842,0 0.70994,0.12528 0.9772,0.37584c0.28397,0.23387 0.42596,0.52618 0.42596,0.87697c0,0.96884 -0.65982,1.98781 -1.97945,3.05688c-1.30293,1.05237 -3.08195,1.57855 -5.33702,1.57855c-2.85643,0 -5.02798,-0.81016 -6.51466,-2.43047c-1.46998,-1.62031 -2.20497,-3.70835 -2.20497,-6.26411c0,-2.58917 0.73499,-4.68555 2.20497,-6.28916c1.48668,-1.60361 3.54965,-2.40542 6.18893,-2.40542c2.50564,0 4.44333,0.76005 5.81309,2.28013c1.36975,1.50339 2.05463,3.14041 2.05463,4.91106c0,0.7851 -0.2255,1.41152 -0.67652,1.87923c-0.45102,0.45102 -1.40316,0.67652 -2.85643,0.67652zM228.57584,205.52845h7.79254c-0.05012,-1.41986 -0.44266,-2.50565 -1.17765,-3.25734c-0.73499,-0.75169 -1.63702,-1.12753 -2.70609,-1.12753c-2.27178,0 -3.57471,1.46162 -3.9088,4.38487zM259.18538,205.02732v7.01579c0,0.91873 -0.04176,1.58691 -0.12528,2.00451c-0.06681,0.4009 -0.29233,0.76005 -0.67652,1.07743c-0.36749,0.31738 -0.8018,0.47607 -1.30293,0.47607c-0.46771,0 -0.90203,-0.14199 -1.30293,-0.42596c-0.3842,-0.28397 -0.62642,-0.64311 -0.72664,-1.07743c-0.10023,-0.45102 -0.15034,-1.13589 -0.15034,-2.05462v-6.13882c0,-1.72054 -0.25892,-2.87314 -0.77675,-3.45779c-0.50113,-0.60136 -1.20271,-0.90203 -2.10474,-0.90203c-0.80181,0 -1.51174,0.23386 -2.1298,0.70158c-0.61805,0.46771 -1.05237,1.06073 -1.30293,1.77901c-0.25056,0.70158 -0.37584,1.90429 -0.37584,3.60813v4.40993c0,0.90203 -0.03341,1.56185 -0.10022,1.97946c-0.06681,0.4009 -0.29233,0.76839 -0.67652,1.10249c-0.3842,0.31738 -0.82686,0.47607 -1.32799,0.47607c-0.48442,0 -0.92709,-0.14199 -1.32799,-0.42596c-0.3842,-0.30068 -0.61805,-0.65982 -0.70158,-1.07743c-0.08353,-0.43431 -0.12528,-1.11918 -0.12528,-2.05462v-10.5237c0,-0.95215 0.04175,-1.61196 0.12528,-1.97946c0.10022,-0.3842 0.32574,-0.70158 0.67652,-0.95215c0.36749,-0.25056 0.77675,-0.37584 1.22777,-0.37584c0.41761,0 0.85192,0.16703 1.30293,0.50113c0.45102,0.31738 0.67652,1.11084 0.67652,2.38036c1.43657,-1.92099 3.27404,-2.88148 5.51241,-2.88148c0.85192,0 1.69548,0.16703 2.53069,0.50113c0.83522,0.31738 1.51174,0.83522 2.02957,1.5535c0.53454,0.71828 0.86028,1.46997 0.9772,2.25508c0.11692,0.7851 0.17539,1.62032 0.17539,2.50565zM264.17474,198.58782v-2.58081c0,-1.05237 0.04176,-1.7623 0.12529,-2.1298c0.10022,-0.3842 0.33409,-0.72664 0.70158,-1.02732c0.36749,-0.30068 0.8018,-0.45101 1.30293,-0.45101c0.46771,0 0.88533,0.13364 1.25283,0.4009c0.36749,0.26727 0.60971,0.60135 0.72663,1.00225c0.11692,0.3842 0.17539,1.01061 0.17539,1.87923v2.90654h0.82686c1.05237,0 1.74559,0.12528 2.07968,0.37584c0.35079,0.25056 0.52619,0.62641 0.52619,1.12754c0,1.05237 -0.87698,1.57855 -2.63093,1.57855h-0.8018v7.89277c0,1.06907 0.07516,1.7957 0.2255,2.1799c0.15034,0.3842 0.55124,0.5763 1.20271,0.5763c0.31738,0 0.66817,-0.04175 1.05237,-0.12528c0.4009,-0.10022 0.69322,-0.15034 0.87698,-0.15034c0.43431,0 0.7851,0.14199 1.05237,0.42596c0.26726,0.28397 0.4009,0.62641 0.4009,1.02731c0,1.40316 -1.47833,2.10474 -4.43498,2.10474c-1.43657,0 -2.48894,-0.26727 -3.15711,-0.80181c-0.66817,-0.53454 -1.08578,-1.17766 -1.25282,-1.92935c-0.16704,-0.76839 -0.25057,-1.77065 -0.25057,-3.00677v-8.19344h-0.55124c-1.26952,0 -1.90428,-0.51783 -1.90428,-1.5535c0,-1.01896 0.66817,-1.52844 2.00451,-1.52844z" stroke="#000000" stroke-width="4.5"/><path d="M214.57244,210.6149l3.73341,-10.1729c0.36749,-1.00226 0.70993,-1.62031 1.02731,-1.85417c0.31738,-0.25056 0.67652,-0.37585 1.07743,-0.37585c0.56794,0 1.03567,0.1921 1.40316,0.5763c0.3842,0.3842 0.5763,0.7851 0.5763,1.20271c0,0.3842 -0.20881,1.10248 -0.62641,2.15485l-4.13431,10.1729c-0.56794,1.45327 -1.06072,2.36366 -1.47833,2.73115c-0.4009,0.36749 -0.92709,0.55124 -1.57855,0.55124c-0.81851,0 -1.41986,-0.22551 -1.80406,-0.67652c-0.36749,-0.46772 -0.80181,-1.33634 -1.30293,-2.60587l-4.0842,-10.07268c-0.43431,-1.01896 -0.65147,-1.74559 -0.65147,-2.17991c0,-0.45102 0.1921,-0.86862 0.5763,-1.25282c0.4009,-0.4009 0.89368,-0.60135 1.47833,-0.60135c0.65147,0 1.10248,0.18375 1.35305,0.55124c0.26727,0.36749 0.593,1.06907 0.9772,2.10474zM236.96974,207.95892h-8.3939c0.05011,1.58691 0.48443,2.78126 1.30293,3.58307c0.83522,0.80181 1.83747,1.20271 3.00677,1.20271c1.41986,0 2.76456,-0.62641 4.03408,-1.87923c0.51783,-0.51783 0.89368,-0.83522 1.12754,-0.95214c0.25056,-0.13364 0.52618,-0.20045 0.82686,-0.20045c0.3842,0 0.70993,0.12528 0.9772,0.37585c0.28398,0.23386 0.42596,0.52618 0.42596,0.87697c0,0.96885 -0.65982,1.98781 -1.97946,3.05688c-1.30293,1.05237 -3.08194,1.57855 -5.33702,1.57855c-2.85643,0 -5.02798,-0.81016 -6.51467,-2.43047c-1.46997,-1.62031 -2.20496,-3.70835 -2.20496,-6.2641c0,-2.58917 0.73499,-4.68555 2.20496,-6.28916c1.48668,-1.60361 3.54966,-2.40542 6.18893,-2.40542c2.50564,0 4.44334,0.76005 5.81309,2.28013c1.36975,1.50338 2.05463,3.14041 2.05463,4.91106c0,0.7851 -0.22551,1.41151 -0.67652,1.87923c-0.45102,0.45102 -1.40316,0.67652 -2.85643,0.67652zM228.57584,205.52845h7.79255c-0.05011,-1.41986 -0.44266,-2.50564 -1.17765,-3.25733c-0.73499,-0.75169 -1.63702,-1.12754 -2.70609,-1.12754c-2.27178,0 -3.57471,1.46163 -3.9088,4.38487zM259.18539,205.02732v7.0158c0,0.91873 -0.04176,1.58691 -0.12528,2.00451c-0.06681,0.4009 -0.29232,0.76005 -0.67652,1.07743c-0.36749,0.31738 -0.80181,0.47607 -1.30293,0.47607c-0.46772,0 -0.90203,-0.14198 -1.30293,-0.42596c-0.3842,-0.28398 -0.62641,-0.64311 -0.72664,-1.07743c-0.10023,-0.45102 -0.15034,-1.13589 -0.15034,-2.05463v-6.13882c0,-1.72054 -0.25892,-2.87313 -0.77675,-3.45779c-0.50113,-0.60135 -1.20271,-0.90203 -2.10474,-0.90203c-0.80181,0 -1.51174,0.23386 -2.1298,0.70158c-0.61806,0.46772 -1.05237,1.06072 -1.30293,1.77901c-0.25056,0.70158 -0.37585,1.90429 -0.37585,3.60812v4.40993c0,0.90203 -0.03341,1.56185 -0.10023,1.97946c-0.06681,0.4009 -0.29232,0.76839 -0.67652,1.10248c-0.3842,0.31738 -0.82686,0.47607 -1.32799,0.47607c-0.48443,0 -0.92709,-0.14198 -1.32799,-0.42596c-0.3842,-0.30068 -0.61806,-0.65982 -0.70158,-1.07743c-0.08352,-0.43431 -0.12528,-1.11918 -0.12528,-2.05463v-10.52369c0,-0.95214 0.04176,-1.61197 0.12528,-1.97946c0.10023,-0.3842 0.32573,-0.70158 0.67652,-0.95214c0.36749,-0.25056 0.77675,-0.37585 1.22776,-0.37585c0.4176,0 0.85192,0.16704 1.30293,0.50113c0.45102,0.31738 0.67652,1.11084 0.67652,2.38036c1.43657,-1.92099 3.27404,-2.88149 5.51241,-2.88149c0.85192,0 1.69548,0.16704 2.5307,0.50113c0.83522,0.31738 1.51174,0.83522 2.02957,1.5535c0.53454,0.71828 0.86027,1.46997 0.9772,2.25508c0.11693,0.7851 0.17539,1.62031 0.17539,2.50564zM264.17475,198.58782v-2.58081c0,-1.05237 0.04176,-1.7623 0.12528,-2.1298c0.10023,-0.3842 0.33409,-0.72664 0.70158,-1.02731c0.36749,-0.30068 0.80181,-0.45102 1.30293,-0.45102c0.46772,0 0.88533,0.13364 1.25282,0.4009c0.36749,0.26727 0.60971,0.60135 0.72664,1.00226c0.11693,0.3842 0.17539,1.01061 0.17539,1.87923v2.90654h0.82686c1.05237,0 1.74559,0.12528 2.07968,0.37585c0.35079,0.25056 0.52618,0.62641 0.52618,1.12754c0,1.05237 -0.87697,1.57855 -2.63092,1.57855h-0.80181v7.89277c0,1.06907 0.07517,1.79571 0.22551,2.17991c0.15034,0.3842 0.55124,0.5763 1.20271,0.5763c0.31738,0 0.66817,-0.04176 1.05237,-0.12528c0.4009,-0.10023 0.69322,-0.15034 0.87697,-0.15034c0.43431,0 0.7851,0.14198 1.05237,0.42596c0.26727,0.28398 0.4009,0.62641 0.4009,1.02731c0,1.40316 -1.47833,2.10474 -4.43499,2.10474c-1.43657,0 -2.48894,-0.26727 -3.15711,-0.80181c-0.66817,-0.53454 -1.08578,-1.17765 -1.25282,-1.92934c-0.16704,-0.76839 -0.25056,-1.77065 -0.25056,-3.00677v-8.19345h-0.55124c-1.26952,0 -1.90429,-0.51783 -1.90429,-1.5535c0,-1.01896 0.66817,-1.52844 2.00451,-1.52844z" stroke="none" stroke-width="1"/></g></g></g></svg>