<svg version="1.1" xmlns="http://www.w3.org/2000/svg" xmlns:xlink="http://www.w3.org/1999/xlink" width="42.00001" height="44.75" viewBox="0,0,42.00001,44.75"><g transform="translate(-218.99999,-157.375)"><g data-paper-data="{&quot;isPaintingLayer&quot;:true}" fill-rule="nonzero" stroke-linejoin="miter" stroke-miterlimit="10" stroke-dasharray="" stroke-dashoffset="0" style="mix-blend-mode: normal"><path d="M220.75,198.625c0,-4.52692 0,-13.87508 0,-21.71429c0,-5.71431 0,-10.62682 0,-12.28571c0,-1.20083 0.92773,-2.25 2.10715,-2.25c0.29955,0 24.80203,0 33.42857,0c1.84541,0 2.96429,0.88986 2.96429,2.39286c0,7.55799 0,30.62036 0,34c0,1.1323 -0.88963,2.10714 -2.39285,2.10714c-7.38781,0 -29.59614,0 -33.85715,0c-1.40226,0 -2.25,-0.48893 -2.25,-2.25z" fill="#5b5b5b" stroke="#5b5b5b" stroke-width="2.5" stroke-linecap="butt"/><path d="M220.74999,195.375c0,-4.52692 0,-13.87508 0,-21.71429c0,-5.71431 0,-10.62682 0,-12.28571c0,-1.20083 0.92773,-2.25 2.10715,-2.25c0.29955,0 24.80203,0 33.42857,0c1.84541,0 2.96429,0.88986 2.96429,2.39286c0,7.55799 0,30.62036 0,34c0,1.1323 -0.88963,2.10714 -2.39285,2.10714c-7.38781,0 -29.59614,0 -33.85715,0c-1.40226,0 -2.25,-0.48893 -2.25,-2.25z" fill="#969696" stroke="#404040" stroke-width="3.5" stroke-linecap="butt"/><path d="M225.42856,191.08929c0,-5.74743 0,-22.10314 0,-25.28571c0,-1.04926 0.87738,-2 1.85714,-2c2.94835,0 18.03553,0 24.14286,0c1.59006,0 2.57143,1.12021 2.57143,2.42857c0,3.42127 0,18.96827 0,24.71429c0,0.77956 -0.31373,1.37872 -0.87409,1.74272c-0.4004,0.2601 -0.92672,0.40013 -1.55448,0.40013c-6.09762,0 -21.76599,0 -24.57143,0c-0.844,0 -1.57143,-0.74851 -1.57143,-2z" fill="#bdbdbd" stroke="#404040" stroke-width="0" stroke-linecap="butt"/><path d="M236.87702,177.47604c1.10223,-1.34717 2.50043,-2.02076 4.1946,-2.02076c1.63294,0 2.9699,0.60214 4.0109,1.80644c1.06141,1.18388 1.59211,2.60249 1.59211,4.25584c0,1.79623 -0.59195,3.3067 -1.77582,4.5314c-1.18388,1.2247 -2.74537,1.83706 -4.68448,1.83706c-2.16364,0 -3.85781,-0.78585 -5.08252,-2.35755c-1.20429,-1.59211 -1.80644,-3.80679 -1.80644,-6.64401c0,-3.42917 0.65318,-5.97042 1.95953,-7.62377c1.32676,-1.65335 3.05154,-2.48002 5.17437,-2.48002c1.75541,0 3.10258,0.44906 4.04152,1.34717c0.93894,0.89812 1.4084,1.79623 1.4084,2.69435c0,0.34701 -0.13268,0.66338 -0.39803,0.94914c-0.26535,0.26535 -0.59195,0.39803 -0.97976,0.39803c-0.694,0 -1.25532,-0.41844 -1.68397,-1.25532c-0.55111,-1.08182 -1.35738,-1.62273 -2.41879,-1.62273c-2.22487,0 -3.40876,2.06158 -3.55164,6.18475zM237.15258,181.39509c0,1.06141 0.29597,1.99014 0.88791,2.7862c0.59195,0.79605 1.34717,1.19408 2.2657,1.19408c0.89812,0 1.60232,-0.3572 2.11261,-1.07161c0.53071,-0.71441 0.79605,-1.62273 0.79605,-2.72496c0,-1.14306 -0.27556,-2.04117 -0.82667,-2.69435c-0.55111,-0.67358 -1.25532,-1.01038 -2.11261,-1.01038c-0.79605,0 -1.52067,0.30617 -2.17385,0.91852c-0.63276,0.61235 -0.94914,1.47985 -0.94914,2.60249z" fill="#2d2d2d" stroke="none" stroke-width="1" stroke-linecap="square"/></g></g></svg>