<svg version="1.1" xmlns="http://www.w3.org/2000/svg" xmlns:xlink="http://www.w3.org/1999/xlink" width="706.21021" height="368" viewBox="0,0,706.21021,368"><g transform="translate(23.10511,4)"><g data-paper-data="{&quot;isPaintingLayer&quot;:true}" fill-rule="nonzero" stroke-linejoin="miter" stroke-miterlimit="10" stroke-dasharray="" stroke-dashoffset="0" style="mix-blend-mode: normal"><path d="M-22.1051,363v-366h704.21021v366z" fill="#000000" stroke="#000000" stroke-width="2" stroke-linecap="butt"/><path d="M175.8885,172.70001v14.72524c0,0.92787 -0.03711,1.59593 -0.11134,2.00419c-0.07423,0.40826 -0.3062,0.77013 -0.6959,1.0856c-0.38043,0.31547 -0.82116,0.47321 -1.32221,0.47321c-0.51033,0 -0.96034,-0.14382 -1.35005,-0.43146c-0.38043,-0.28764 -0.60775,-0.64487 -0.68198,-1.07169c-0.06495,-0.42682 -0.09743,-1.11344 -0.09743,-2.05986v-14.72524h-3.93879c-0.85364,0 -1.44283,-0.03248 -1.76759,-0.09743c-0.31547,-0.07423 -0.59383,-0.25516 -0.83508,-0.5428c-0.24125,-0.29692 -0.36187,-0.64023 -0.36187,-1.02993c0,-0.28764 0.07887,-0.57528 0.23661,-0.86292c0.15774,-0.28764 0.37579,-0.49177 0.65415,-0.61239c0.28764,-0.12062 0.9789,-0.18093 2.07378,-0.18093h12.09475c0.99282,0 1.62841,0.04175 1.90677,0.12526c0.27836,0.07423 0.52424,0.2598 0.73765,0.55672c0.21341,0.28764 0.32011,0.61239 0.32011,0.97426c0,0.28764 -0.08351,0.57992 -0.25052,0.87683c-0.15774,0.28764 -0.37579,0.49177 -0.65415,0.61239c-0.27836,0.12062 -0.96498,0.18093 -2.05986,0.18093zM183.47208,185.10095v-6.94508c0,-0.85364 0.03248,-1.47067 0.09743,-1.85109c0.06495,-0.3897 0.26908,-0.7191 0.61239,-0.98818c0.34331,-0.27836 0.75621,-0.41754 1.2387,-0.41754c0.46393,0 0.87219,0.1299 1.22478,0.3897c0.35259,0.2598 0.57064,0.60311 0.65415,1.02993c0.08351,0.42682 0.12526,1.07169 0.12526,1.9346v5.42802c0,1.79078 0.27836,2.9367 0.83508,3.43775c0.55672,0.50105 1.16447,0.75157 1.82326,0.75157c0.77013,0 1.44283,-0.21341 2.01811,-0.64023c0.57528,-0.4361 0.96498,-0.9557 1.16911,-1.55882c0.20413,-0.60311 0.3062,-1.79078 0.3062,-3.56301v-3.95271c0,-0.83508 0.04175,-1.45211 0.12526,-1.85109c0.08351,-0.40826 0.29692,-0.7423 0.64023,-1.0021c0.35259,-0.26908 0.76549,-0.40362 1.2387,-0.40362c0.45465,0 0.85828,0.1299 1.21087,0.3897c0.35259,0.2598 0.566,0.5892 0.64023,0.98818c0.07423,0.3897 0.11134,1.01601 0.11134,1.87893v9.77043c0,0.80724 -0.04175,1.3918 -0.12526,1.75367c-0.07423,0.35259 -0.26444,0.65879 -0.57064,0.91859c-0.29692,0.2598 -0.67734,0.3897 -1.14128,0.3897c-1.28046,0 -1.89749,-0.91395 -1.85109,-2.74185c-1.31757,1.8279 -3.06196,2.74185 -5.23317,2.74185c-1.42891,0 -2.64442,-0.42682 -3.64652,-1.28046c-1.0021,-0.85364 -1.50314,-2.38926 -1.50314,-4.60686zM201.48672,187.71753v-10.14622c0,-1.7815 0.64951,-2.67226 1.94852,-2.67226c1.25262,0 1.89285,0.82116 1.92068,2.46349c0.81652,-1.64232 1.95316,-2.46349 3.40991,-2.46349c0.76085,0 1.54954,0.19949 2.36606,0.59847c0.81652,0.39898 1.22478,0.94642 1.22478,1.64232c0,0.48249 -0.16702,0.88148 -0.50105,1.19695c-0.32475,0.31547 -0.67734,0.47321 -1.05777,0.47321c-0.20413,0 -0.58456,-0.08351 -1.14128,-0.25052c-0.55672,-0.16702 -1.02529,-0.25052 -1.40572,-0.25052c-0.94642,0 -1.6516,0.47785 -2.11554,1.43355c-0.46393,0.9557 -0.6959,2.80216 -0.6959,5.53936v2.28255c0,1.01137 -0.04175,1.69336 -0.12526,2.04595c-0.08351,0.35259 -0.30156,0.6727 -0.65415,0.96034c-0.34331,0.27836 -0.7423,0.41754 -1.19695,0.41754c-0.42682,0 -0.81652,-0.12526 -1.16911,-0.37579c-0.34331,-0.2598 -0.566,-0.566 -0.66806,-0.91859c-0.09279,-0.35259 -0.13918,-1.01137 -0.13918,-1.97636zM228.47693,181.21782v6.49971c0,0.83508 -0.03711,1.44747 -0.11134,1.83718c-0.06495,0.38043 -0.27372,0.71446 -0.62631,1.0021c-0.34331,0.28764 -0.75157,0.43146 -1.22478,0.43146c-0.42682,0 -0.8258,-0.12526 -1.19695,-0.37579c-0.36187,-0.2598 -0.5892,-0.59383 -0.68198,-1.0021c-0.08351,-0.41754 -0.12526,-1.04849 -0.12526,-1.89285v-5.70638c0,-1.57737 -0.23661,-2.63978 -0.70982,-3.18722c-0.47321,-0.55672 -1.12272,-0.83508 -1.94852,-0.83508c-0.75157,0 -1.415,0.21805 -1.99027,0.65415c-0.566,0.4361 -0.96498,0.9789 -1.19695,1.62841c-0.23197,0.64951 -0.34795,1.76758 -0.34795,3.35423v4.09189c0,0.8258 -0.03248,1.42891 -0.09743,1.80934c-0.06495,0.37115 -0.27836,0.70982 -0.64023,1.01601c-0.35259,0.29692 -0.76085,0.44538 -1.22478,0.44538c-0.4361,0 -0.83972,-0.1299 -1.21087,-0.3897c-0.36187,-0.26908 -0.58456,-0.60311 -0.66806,-1.0021c-0.07423,-0.39898 -0.11134,-1.02529 -0.11134,-1.87893v-9.75652c0,-0.88148 0.04175,-1.49387 0.12526,-1.83718c0.08351,-0.35259 0.29228,-0.64487 0.62631,-0.87683c0.33403,-0.23197 0.70982,-0.34795 1.12736,-0.34795c0.38043,0 0.77941,0.1531 1.19695,0.45929c0.42682,0.3062 0.64023,1.04385 0.64023,2.21296c1.32685,-1.7815 3.02948,-2.67226 5.10791,-2.67226c0.78869,0 1.56809,0.1531 2.33822,0.45929c0.77941,0.29692 1.41036,0.77941 1.89285,1.44747c0.49177,0.66806 0.78869,1.36396 0.89075,2.0877c0.11134,0.71446 0.16702,1.48923 0.16702,2.3243zM248.1789,174.89905c2.44957,0 4.37489,0.75621 5.77597,2.26863c1.41036,1.51242 2.11554,3.43775 2.11554,5.77597c0,2.3475 -0.71446,4.27747 -2.14337,5.78989c-1.41964,1.50314 -3.30321,2.25472 -5.65071,2.25472c-2.55164,0 -4.52335,-0.76085 -5.91515,-2.28255c-1.38252,-1.53098 -2.07378,-3.45166 -2.07378,-5.76205c0,-2.3475 0.70054,-4.27282 2.10162,-5.77597c1.41036,-1.51242 3.34032,-2.26863 5.78989,-2.26863zM248.1789,188.05156c1.19695,0 2.14337,-0.45002 2.83927,-1.35005c0.70518,-0.90931 1.05777,-2.16193 1.05777,-3.75786c0,-1.60521 -0.35259,-2.85783 -1.05777,-3.75786c-0.6959,-0.90931 -1.64232,-1.36396 -2.83927,-1.36396c-1.17839,0 -2.12018,0.45465 -2.82535,1.36396c-0.70518,0.90931 -1.05777,2.16193 -1.05777,3.75786c0,1.60521 0.34795,2.85783 1.04385,3.75786c0.70518,0.90003 1.6516,1.35005 2.83927,1.35005zM259.79126,175.247v-1.15519c0,-2.02275 0.41754,-3.3728 1.25262,-4.05014c0.84436,-0.68662 2.04595,-1.02993 3.60476,-1.02993c2.51452,0 3.77178,0.566 3.77178,1.698c0,0.34331 -0.12062,0.65415 -0.36187,0.93251c-0.23197,0.26908 -0.5428,0.40362 -0.93251,0.40362c-0.08351,0 -0.33867,-0.02784 -0.76549,-0.08351c-0.42682,-0.06495 -0.67734,-0.09743 -0.75157,-0.09743c-0.55672,0 -1.00674,0.14846 -1.35005,0.44538c-0.34331,0.28764 -0.51497,0.95107 -0.51497,1.99027v0.94642h1.0021c1.48459,0 2.22688,0.46393 2.22688,1.3918c0,0.45465 -0.14382,0.81189 -0.43146,1.07169c-0.27836,0.2598 -0.87683,0.3897 -1.79542,0.3897h-1.0021v9.61734c0,0.7423 -0.03248,1.30365 -0.09742,1.68408c-0.06495,0.38043 -0.24125,0.7423 -0.52888,1.0856c-0.28764,0.33403 -0.73765,0.50105 -1.35005,0.50105c-0.62167,0 -1.1088,-0.20413 -1.46139,-0.61239c-0.34331,-0.40826 -0.51497,-1.29437 -0.51497,-2.65834v-9.61734h-1.11344c-1.19695,0 -1.79542,-0.48713 -1.79542,-1.46139c0,-0.92787 0.66342,-1.3918 1.99027,-1.3918h0.91859zM270.77914,175.247v-1.15519c0,-2.02275 0.41754,-3.3728 1.25262,-4.05014c0.84436,-0.68662 2.04595,-1.02993 3.60476,-1.02993c2.51452,0 3.77178,0.566 3.77178,1.698c0,0.34331 -0.12062,0.65415 -0.36187,0.93251c-0.23197,0.26908 -0.5428,0.40362 -0.93251,0.40362c-0.08351,0 -0.33867,-0.02784 -0.76549,-0.08351c-0.42682,-0.06495 -0.67734,-0.09743 -0.75157,-0.09743c-0.55672,0 -1.00674,0.14846 -1.35005,0.44538c-0.34331,0.28764 -0.51497,0.95107 -0.51497,1.99027v0.94642h1.0021c1.48459,0 2.22688,0.46393 2.22688,1.3918c0,0.45465 -0.14382,0.81189 -0.43146,1.07169c-0.27836,0.2598 -0.87683,0.3897 -1.79542,0.3897h-1.0021v9.61734c0,0.7423 -0.03248,1.30365 -0.09743,1.68408c-0.06495,0.38043 -0.24125,0.7423 -0.52888,1.0856c-0.28764,0.33403 -0.73765,0.50105 -1.35005,0.50105c-0.62167,0 -1.1088,-0.20413 -1.46139,-0.61239c-0.34331,-0.40826 -0.51497,-1.29437 -0.51497,-2.65834v-9.61734h-1.11344c-1.19695,0 -1.79542,-0.48713 -1.79542,-1.46139c0,-0.92787 0.66342,-1.3918 1.99027,-1.3918zM301.58082,172.70001v14.72524c0,0.92787 -0.03711,1.59593 -0.11134,2.00419c-0.07423,0.40826 -0.3062,0.77013 -0.6959,1.0856c-0.38043,0.31547 -0.82116,0.47321 -1.32221,0.47321c-0.51033,0 -0.96034,-0.14382 -1.35005,-0.43146c-0.38043,-0.28764 -0.60775,-0.64487 -0.68198,-1.07169c-0.06495,-0.42682 -0.09743,-1.11344 -0.09743,-2.05986v-14.72524h-3.93879c-0.85364,0 -1.44283,-0.03248 -1.76759,-0.09743c-0.31547,-0.07423 -0.59383,-0.25516 -0.83508,-0.5428c-0.24125,-0.29692 -0.36187,-0.64023 -0.36187,-1.02993c0,-0.28764 0.07887,-0.57528 0.23661,-0.86292c0.15774,-0.28764 0.37579,-0.49177 0.65415,-0.61239c0.28764,-0.12062 0.9789,-0.18093 2.07378,-0.18093h12.09475c0.99282,0 1.62841,0.04175 1.90677,0.12526c0.27836,0.07423 0.52424,0.2598 0.73765,0.55672c0.21341,0.28764 0.32011,0.61239 0.32011,0.97426c0,0.28764 -0.08351,0.57992 -0.25052,0.87683c-0.15774,0.28764 -0.37579,0.49177 -0.65415,0.61239c-0.27836,0.12062 -0.96498,0.18093 -2.05986,0.18093zM309.1644,185.10095v-6.94508c0,-0.85364 0.03248,-1.47067 0.09743,-1.85109c0.06495,-0.3897 0.26908,-0.7191 0.61239,-0.98818c0.34331,-0.27836 0.75621,-0.41754 1.2387,-0.41754c0.46393,0 0.87219,0.1299 1.22478,0.3897c0.35259,0.2598 0.57064,0.60311 0.65415,1.02993c0.08351,0.42682 0.12526,1.07169 0.12526,1.9346v5.42802c0,1.79078 0.27836,2.9367 0.83508,3.43775c0.55672,0.50105 1.16447,0.75157 1.82326,0.75157c0.77013,0 1.44283,-0.21341 2.01811,-0.64023c0.57528,-0.4361 0.96498,-0.9557 1.16911,-1.55882c0.20413,-0.60311 0.3062,-1.79078 0.3062,-3.56301v-3.95271c0,-0.83508 0.04175,-1.45211 0.12526,-1.85109c0.08351,-0.40826 0.29692,-0.7423 0.64023,-1.0021c0.35259,-0.26908 0.76549,-0.40362 1.2387,-0.40362c0.45465,0 0.85828,0.1299 1.21087,0.3897c0.35259,0.2598 0.566,0.5892 0.64023,0.98818c0.07423,0.3897 0.11134,1.01601 0.11134,1.87893v9.77043c0,0.80724 -0.04175,1.3918 -0.12526,1.75367c-0.07423,0.35259 -0.26444,0.65879 -0.57064,0.91859c-0.29692,0.2598 -0.67734,0.3897 -1.14128,0.3897c-1.28046,0 -1.89749,-0.91395 -1.85109,-2.74185c-1.31757,1.8279 -3.06196,2.74185 -5.23317,2.74185c-1.42891,0 -2.64442,-0.42682 -3.64652,-1.28046c-1.0021,-0.85364 -1.50314,-2.38926 -1.50314,-4.60686zM327.17904,187.71753v-10.14622c0,-1.7815 0.64951,-2.67226 1.94852,-2.67226c1.25262,0 1.89285,0.82116 1.92068,2.46349c0.81652,-1.64232 1.95316,-2.46349 3.40991,-2.46349c0.76085,0 1.54954,0.19949 2.36606,0.59847c0.81652,0.39898 1.22478,0.94642 1.22478,1.64232c0,0.48249 -0.16702,0.88148 -0.50105,1.19695c-0.32475,0.31547 -0.67734,0.47321 -1.05777,0.47321c-0.20413,0 -0.58456,-0.08351 -1.14128,-0.25052c-0.55672,-0.16702 -1.02529,-0.25052 -1.40572,-0.25052c-0.94642,0 -1.6516,0.47785 -2.11554,1.43355c-0.46393,0.9557 -0.6959,2.80216 -0.6959,5.53936v2.28255c0,1.01137 -0.04175,1.69336 -0.12526,2.04595c-0.08351,0.35259 -0.30156,0.6727 -0.65415,0.96034c-0.34331,0.27836 -0.7423,0.41754 -1.19695,0.41754c-0.42682,0 -0.81652,-0.12526 -1.16911,-0.37579c-0.34331,-0.2598 -0.566,-0.566 -0.66806,-0.91859c-0.09279,-0.35259 -0.13918,-1.01137 -0.13918,-1.97636zM343.80033,188.32992v0.40362c0,1.50314 -0.64951,2.25472 -1.94852,2.25472c-0.51033,0 -0.93715,-0.12526 -1.28046,-0.37579c-0.34331,-0.2598 -0.54744,-0.57528 -0.61239,-0.94642c-0.06495,-0.37115 -0.09743,-0.96034 -0.09743,-1.76759v-15.58816c0,-0.89075 0.04175,-1.5449 0.12526,-1.96244c0.09279,-0.41754 0.31547,-0.7423 0.66806,-0.97426c0.36187,-0.24125 0.74693,-0.36187 1.15519,-0.36187c0.60311,0 1.0856,0.17629 1.44747,0.52888c0.36187,0.34331 0.5428,1.22478 0.5428,2.64442v5.13574c1.47531,-1.61449 3.21042,-2.42173 5.20533,-2.42173c2.05986,0 3.66971,0.73301 4.82955,2.19904c1.16911,1.45675 1.75367,3.33104 1.75367,5.62287c0,2.44029 -0.59847,4.43057 -1.79542,5.97082c-1.18767,1.53098 -2.79752,2.29647 -4.82955,2.29647c-2.06914,0 -3.79034,-0.88611 -5.16358,-2.65834zM344.0091,183.12459c0,1.5217 0.36651,2.70937 1.09952,3.56301c0.7423,0.84436 1.6748,1.26654 2.79752,1.26654c0.9557,0 1.8047,-0.40826 2.54699,-1.22478c0.75157,-0.81652 1.12736,-2.1109 1.12736,-3.88312c0,-1.54026 -0.33867,-2.74648 -1.01601,-3.61868c-0.67734,-0.87219 -1.55418,-1.30829 -2.6305,-1.30829c-1.18767,0 -2.13873,0.47321 -2.85319,1.41964c-0.71446,0.93715 -1.07169,2.19904 -1.07169,3.78569zM365.68116,174.89905c2.44957,0 4.37489,0.75621 5.77597,2.26863c1.41036,1.51242 2.11554,3.43775 2.11554,5.77597c0,2.3475 -0.71446,4.27747 -2.14337,5.78989c-1.41964,1.50314 -3.30321,2.25472 -5.65071,2.25472c-2.55164,0 -4.52335,-0.76085 -5.91515,-2.28255c-1.38252,-1.53098 -2.07378,-3.45166 -2.07378,-5.76205c0,-2.3475 0.70054,-4.27282 2.10162,-5.77597c1.41036,-1.51242 3.34032,-2.26863 5.78989,-2.26863zM365.68116,188.05156c1.19695,0 2.14337,-0.45002 2.83927,-1.35005c0.70518,-0.90931 1.05777,-2.16193 1.05777,-3.75786c0,-1.60521 -0.35259,-2.85783 -1.05777,-3.75786c-0.6959,-0.90931 -1.64232,-1.36396 -2.83927,-1.36396c-1.17839,0 -2.12018,0.45465 -2.82535,1.36396c-0.70518,0.90931 -1.05777,2.16193 -1.05777,3.75786c0,1.60521 0.34795,2.85783 1.04385,3.75786c0.70518,0.90003 1.6516,1.35005 2.83927,1.35005zM389.5864,173.88304v13.7649c0,0.89075 -0.04175,1.5217 -0.12526,1.89285c-0.08351,0.36187 -0.30156,0.6959 -0.65415,1.0021c-0.34331,0.29692 -0.75621,0.44538 -1.2387,0.44538c-0.48249,0 -0.90003,-0.13454 -1.25262,-0.40362c-0.35259,-0.27836 -0.566,-0.60775 -0.64023,-0.98818c-0.07423,-0.3897 -0.11134,-1.03921 -0.11134,-1.94852v-15.40723c0,-0.9557 0.16702,-1.67016 0.50105,-2.14337c0.34331,-0.48249 1.08096,-0.72374 2.21296,-0.72374h1.30829c1.14128,0 1.86965,0.15774 2.18513,0.47321c0.31547,0.31547 0.64487,1.10416 0.98818,2.36606l3.07588,11.64936l3.06196,-11.64936c0.33403,-1.25262 0.65879,-2.03667 0.97426,-2.35214c0.31547,-0.32475 1.04849,-0.48713 2.19904,-0.48713h1.30829c1.01137,0 1.71656,0.19949 2.11554,0.59847c0.39898,0.3897 0.59847,1.14592 0.59847,2.26863v15.40723c0,0.90931 -0.03711,1.54954 -0.11134,1.92068c-0.06495,0.36187 -0.27372,0.69126 -0.62631,0.98818c-0.35259,0.28764 -0.77477,0.43146 -1.26654,0.43146c-0.42682,0 -0.82116,-0.12062 -1.18303,-0.36187c-0.36187,-0.25052 -0.59383,-0.57064 -0.6959,-0.96034c-0.09279,-0.3897 -0.13918,-1.06241 -0.13918,-2.01811v-13.7649l-3.34032,13.54221c-0.40826,1.62377 -0.82116,2.62586 -1.2387,3.00629c-0.40826,0.37115 -0.96034,0.55672 -1.65624,0.55672c-0.80724,0 -1.40108,-0.23197 -1.7815,-0.6959c-0.38043,-0.46393 -0.75621,-1.41964 -1.12736,-2.86711zM417.15525,174.89905c2.44957,0 4.37489,0.75621 5.77597,2.26863c1.41036,1.51242 2.11554,3.43775 2.11554,5.77597c0,2.3475 -0.71446,4.27747 -2.14337,5.78989c-1.41964,1.50314 -3.30321,2.25472 -5.65071,2.25472c-2.55164,0 -4.52335,-0.76085 -5.91515,-2.28255c-1.38252,-1.53098 -2.07378,-3.45166 -2.07378,-5.76205c0,-2.3475 0.70054,-4.27282 2.10162,-5.77597c1.41036,-1.51242 3.34032,-2.26863 5.78989,-2.26863zM417.15525,188.05156c1.19695,0 2.14337,-0.45002 2.83927,-1.35005c0.70518,-0.90931 1.05777,-2.16193 1.05777,-3.75786c0,-1.60521 -0.35259,-2.85783 -1.05777,-3.75786c-0.6959,-0.90931 -1.64232,-1.36396 -2.83927,-1.36396c-1.17839,0 -2.12018,0.45465 -2.82535,1.36396c-0.70518,0.90931 -1.05777,2.16193 -1.05777,3.75786c0,1.60521 0.34795,2.85783 1.04385,3.75786c0.70518,0.90003 1.6516,1.35005 2.83927,1.35005zM438.98341,188.73354v-0.40362c-1.36396,1.77223 -3.0898,2.65834 -5.1775,2.65834c-2.02275,0 -3.6326,-0.76549 -4.82955,-2.29647c-1.18767,-1.54026 -1.7815,-3.53053 -1.7815,-5.97082c0,-2.29183 0.57992,-4.16612 1.73975,-5.62287c1.16911,-1.46603 2.7836,-2.19904 4.84347,-2.19904c2.00419,0 3.7393,0.80724 5.20533,2.42173v-5.13574c0,-1.41964 0.17629,-2.30111 0.52888,-2.64442c0.36187,-0.35259 0.849,-0.52888 1.46139,-0.52888c0.41754,0 0.8026,0.12526 1.15519,0.37579c0.36187,0.24125 0.58456,0.56136 0.66806,0.96034c0.08351,0.39898 0.12526,1.05313 0.12526,1.96244v15.58816c0,0.88148 -0.04639,1.51242 -0.13918,1.89285c-0.09279,0.37115 -0.32011,0.66342 -0.68198,0.87683c-0.35259,0.21341 -0.7423,0.32011 -1.16911,0.32011c-1.29902,0 -1.94852,-0.75157 -1.94852,-2.25472zM431.20324,182.84623c0,1.77223 0.37115,3.0666 1.11344,3.88312c0.75157,0.81652 1.60521,1.22478 2.56091,1.22478c1.12272,0 2.05059,-0.42218 2.7836,-1.26654c0.73301,-0.85364 1.09952,-2.04131 1.09952,-3.56301c0,-1.59593 -0.35723,-2.8671 -1.07169,-3.81353c-0.71446,-0.94642 -1.66088,-1.41964 -2.83927,-1.41964c-1.07633,0 -1.95316,0.44074 -2.6305,1.32221c-0.67734,0.87219 -1.01601,2.08306 -1.01601,3.63259zM457.76053,183.91792h-7.76625c0.03711,1.46603 0.44074,2.57483 1.21087,3.3264c0.77013,0.75157 1.69336,1.12736 2.76968,1.12736c1.31757,0 2.56091,-0.57992 3.73002,-1.73975c0.47321,-0.49177 0.82116,-0.79333 1.04385,-0.90467c0.23197,-0.12062 0.49177,-0.18093 0.77941,-0.18093c0.35259,0 0.65415,0.11134 0.90467,0.33403c0.2598,0.22269 0.3897,0.50105 0.3897,0.83508c0,0.89075 -0.60775,1.8279 -1.82326,2.81144c-1.21551,0.97426 -2.86247,1.46139 -4.94089,1.46139c-2.6537,0 -4.66253,-0.74693 -6.0265,-2.2408c-1.36396,-1.49387 -2.04595,-3.42847 -2.04595,-5.80381c0,-2.39389 0.68198,-4.33314 2.04595,-5.81772c1.36396,-1.48459 3.26609,-2.22688 5.70638,-2.22688c2.32895,0 4.12437,0.70054 5.38627,2.10162c1.27118,1.40108 1.90677,2.92278 1.90677,4.5651c0,0.72374 -0.21341,1.29902 -0.64023,1.72583c-0.41754,0.41754 -1.29437,0.62631 -2.6305,0.62631zM449.99428,181.6632h7.20953c-0.04639,-1.30829 -0.40826,-2.30574 -1.0856,-2.99237c-0.67734,-0.6959 -1.51242,-1.04385 -2.50524,-1.04385c-2.09698,0 -3.30321,1.34541 -3.61868,4.03622zM472.49616,188.21858v-4.10581l10.18798,-3.99446l-10.18798,-3.93879v-4.07798l14.58607,6.29094v3.4795l-14.58607,6.34661zM493.10253,174.89905c0.59383,0 1.10416,0.21341 1.53098,0.64023c0.42682,0.42682 0.64023,0.93251 0.64023,1.51706c0,0.61239 -0.21341,1.132 -0.64023,1.55882c-0.42682,0.42682 -0.93715,0.64023 -1.53098,0.64023c-0.60311,0 -1.12272,-0.21341 -1.55882,-0.64023c-0.42682,-0.42682 -0.64023,-0.94642 -0.64023,-1.55882c0,-0.58456 0.21341,-1.09025 0.64023,-1.51706c0.4361,-0.42682 0.9557,-0.64023 1.55882,-0.64023zM493.10253,186.63193c0.59383,0 1.10416,0.21341 1.53098,0.64023c0.42682,0.41754 0.64023,0.92323 0.64023,1.51706c0,0.59383 -0.21341,1.1088 -0.64023,1.5449c-0.42682,0.4361 -0.93715,0.65415 -1.53098,0.65415c-0.60311,0 -1.12272,-0.21341 -1.55882,-0.64023c-0.42682,-0.4361 -0.64023,-0.9557 -0.64023,-1.55882c0,-0.59383 0.21341,-1.09952 0.64023,-1.51706c0.4361,-0.42682 0.9557,-0.64023 1.55882,-0.64023z" fill="#cdcdcd" stroke="none" stroke-width="1" stroke-linecap="square"/></g></g></svg>