<svg version="1.1" xmlns="http://www.w3.org/2000/svg" xmlns:xlink="http://www.w3.org/1999/xlink" width="718.6191" height="443.6925" viewBox="0,0,718.6191,443.6925"><g transform="translate(133.43419,-24.35287)"><g data-paper-data="{&quot;isPaintingLayer&quot;:true}" fill-rule="nonzero" stroke-linecap="butt" stroke-linejoin="miter" stroke-miterlimit="10" stroke-dasharray="" stroke-dashoffset="0" style="mix-blend-mode: normal"><path d="M-133.43419,293.4638v-110h15.82194c0,0 -2.95116,4.63095 -2.95116,10.73743c0,0.97924 0.0897,3.37585 0.83829,4.37022c0.54365,0.72214 2.11287,0.84309 2.11287,1.55536c0,18.48218 0,93.33699 0,93.33699z" fill="#9a0000" stroke="#9a0000" stroke-width="0"/><path d="M243.09972,148.46803c-12.94689,0 -23.4424,-8.02855 -23.4424,-17.93225c0,-9.9037 10.49552,-17.93225 23.4424,-17.93225c12.94688,0 23.4424,8.02855 23.4424,17.93225c0,9.9037 -10.49553,17.93225 -23.4424,17.93225z" fill="#9a0000" stroke="#9a0000" stroke-width="0"/><path d="M188.68125,45.60287v-21.25h111.4458v21.25z" fill="#9a0000" stroke="#9a0000" stroke-width="0"/><path d="M194.25737,219.28012h34.47817v58.89571h-33.26414c0,0 -1.80703,-23.36577 -17.27137,-27.67238c-29.34223,-8.17142 -83.44161,-0.72251 -96.2055,-7.06677c-8.09428,-4.02324 -13.34377,-26.32614 -13.34377,-26.32614l15.81963,22.07003l86.96622,-0.18266l0.2454,-13.7719l-27.79049,-28.16349l-16.8142,0.01619l-0.4911,-41.8777l-4.41584,-1.75754l-0.17808,-15.71795l34.11257,-0.00547l-0.11511,42.97434z" fill="#9a0000" stroke="#9a0000" stroke-width="0"/><path d="M263.04233,238.62816v-19.21428h37.59569l26.85408,-29.5l0.27348,36.19315l31.81622,0.20556l39.32758,12.74415l-71.41728,-0.42857z" fill="#9a0000" stroke="#9a0000" stroke-width="0"/><path d="M229.22637,277.65522v-58.33334h4.57244c0,0 0,5.67003 0,10.40017c0,10.1548 0,47.93317 0,47.93317z" fill="#9a0000" stroke="#9a0000" stroke-width="0"/><path d="M262.66911,236.98875v-0.5h0.50805v0.5z" fill="#9a0000" stroke="#9a0000" stroke-width="0"/><path d="M259.12145,252.82203v-33h49.61954v33z" fill="#9a0000" stroke="#9a0000" stroke-width="0"/><path d="M310.9686,256.82187v-19.4256h47.24608v19.4256z" fill="#9a0000" stroke="#9a0000" stroke-width="0"/><path d="M354.62614,251.73873v-25.41666h26.41859v25.41666z" fill="#9a0000" stroke="#9a0000" stroke-width="0"/><path d="M370.73852,294.32187v-59.33334h19.95914v59.33334z" fill="#9a0000" stroke="#9a0000" stroke-width="0"/><path d="M310.34659,296.01725v-18.49767h41.94767v18.49767z" fill="#9a0000" stroke="#9a0000" stroke-width="0"/><path d="M375.86852,245.03684v-19h17.07047v19z" fill="#9a0000" stroke="#9a0000" stroke-width="0"/><path d="M385.59063,239.01111v-25.14089h19.3059v25.1409z" fill="#9a0000" stroke="#9a0000" stroke-width="0"/><path d="M399.03557,242.02107v-28.15083h40.82541v28.15085z" fill="#9a0000" stroke="#9a0000" stroke-width="0"/><path d="M463.95469,280.23671v-44.56666h49.61471v44.56667z" fill="#9a0000" stroke="#9a0000" stroke-width="0"/><path d="M423.42196,294.43665v-31.8h40.44077v31.8z" fill="#9a0000" stroke="#9a0000" stroke-width="0"/><path d="M513.44837,274.83673v-17.80845l29.26367,-0.16288c0,0 10.43921,-5.33984 14.75415,-8.14327c4.60753,-2.99354 12.07088,-11.1854 12.07088,-11.1854l-8.73846,37.3z" fill="#9a0000" stroke="#9a0000" stroke-width="0"/><path d="M567.708,244.23687v-51.4h17.47691v51.4z" fill="#9a0000" stroke="#9a0000" stroke-width="0"/><path d="M564.11777,163.10344l8.73846,45.8l-26.82503,-21.4l-29.26367,-0.2v-24.2z" data-paper-data="{&quot;index&quot;:null}" fill="#9a0000" stroke="#9a0000" stroke-width="0"/><path d="M464.88611,217.03684v-50.39999h48.69198v50.4z" fill="#9a0000" stroke="#9a0000" stroke-width="0"/><path d="M505.3196,190.63685v-23.6h13.00607v23.6z" fill="#9a0000" stroke="#9a0000" stroke-width="0"/><path d="M423.42196,194.53684v-34.70001h38.20534v34.70001z" fill="#9a0000" stroke="#9a0000" stroke-width="0"/><path d="M423.45582,173.47021c0,0 -1.47886,-3.73866 -1.46047,-6.98959c0.04242,-7.50181 -0.03953,-32.01939 -0.03953,-32.01939c0,0 6.52387,-4.31613 8.21745,-6.36323c2.68908,-3.09126 1.32125,-11.44446 1.32125,-11.44446l26.71192,-0.05l-1.55933,56.86667z" fill="#9a0000" stroke="#9a0000" stroke-width="0"/><path d="M394.36151,83.3701v-18.4h24.99605l31.93187,55.05288l-36.40271,-36.25288z" fill="#9a0000" stroke="#9a0000" stroke-width="0"/><path d="M337.8308,119.17019v-36.8l53.48759,-1.36593l-0.05023,22.27949c0,0 -5.1304,3.34762 -6.69023,5.87476c-1.69712,2.74956 -2.51542,10.01167 -2.51542,10.01167z" fill="#9a0000" stroke="#9a0000" stroke-width="0"/><path d="M420.9809,118.35531c0,3.54961 -4.84185,7.97528 -10.62572,7.97528c-5.78387,0 -12.57252,-3.24593 -12.57252,-6.79554c0,-3.54961 2.12223,-9.96635 7.9061,-9.96635c2.7739,0 7.15808,-0.91896 10.24141,0.72631c3.34575,1.7853 5.05073,6.21305 5.05073,8.0603z" fill="#9a0000" stroke="#9a0000" stroke-width="0"/><path d="M383.25096,187.60766l-28.21272,-0.18103c0,0 -11.0008,-36.43348 -13.19196,-43.69035c-0.72706,-2.40796 -1.45248,-4.97711 -1.45248,-4.97711l46.59355,0.36405c0,0 2.38406,2.33132 3.96967,3.66688c1.44173,1.21437 4.19019,2.86257 4.19019,2.86257l0.19166,44.27318h-10.98901z" fill="#9a0000" stroke="#9a0000" stroke-width="0"/><path d="M323.37412,237.4258v-24.5l2.46814,-21.27615l13.94028,-14.57844l0.37332,-38.6133l19.71316,47.88456l-11.14326,12.16735l-9.59681,1.9087l-0.02669,9.041l-7.00664,7.79962h3.49016c0,0 1.52627,5.66667 5.00272,5.66667c8.51256,0 46.3765,-1.33333 46.3765,-1.33333l0.6774,15.83333z" fill="#9a0000" stroke="#9a0000" stroke-width="0"/><path d="M-45.97809,98.10288v-32.25h66.80856v32.25z" fill="#9a0000" stroke="#9a0000" stroke-width="0"/><path d="M-58.42531,149.37867v-36.82591h58.65472v36.82591z" fill="#9a0000" stroke="#9a0000" stroke-width="0"/><path d="M-67.6477,155.24877v-8.5446h26.67261l-5.58478,8.76258z" fill="#9a0000" stroke="#9a0000" stroke-width="0"/><path d="M-68.84035,132.35271v-37.75h19.81395c0,0 0,7.79126 0,12.75c0,6.94364 0,25 0,25z" fill="#9a0000" stroke="#9a0000" stroke-width="0"/><path d="M-50.29652,107.10288c0,0 0,-2.78724 0,-3.75c0,-2.50133 0,-13.5 0,-13.5h12.1932l-0.25402,7.5z" fill="#9a0000" stroke="#9a0000" stroke-width="0"/><path d="M-68.29853,170.16406v-18.14286h2.83297v18.14286z" fill="#9a0000" stroke="#9a0000" stroke-width="0"/><path d="M-68.20603,188.58656v-16.5h20.61231v16.5z" fill="#9a0000" stroke="#9a0000" stroke-width="0"/><path d="M13.22577,118.51956v-48.41667h143.065v48.41667z" fill="#9a0000" stroke="#9a0000" stroke-width="0"/><path d="M13.13981,182.0825v-44.6h62.07138v44.6z" fill="#9a0000" stroke="#9a0000" stroke-width="0"/><path d="M75.46497,155.40734v-17.925h18.89527v17.925z" fill="#9a0000" stroke="#9a0000" stroke-width="0"/><path d="M123.77397,155.68242v-17.97857h8.59259v17.97857z" fill="#9a0000" stroke="#9a0000" stroke-width="0"/><path d="M73.20037,202.98252v-44.65h20.52521v44.65z" fill="#9a0000" stroke="#9a0000" stroke-width="0"/><path d="M62.59185,271.48234v-93.4h9.18186v93.4z" fill="#9a0000" stroke="#9a0000" stroke-width="0"/><path d="M79.12294,248.48249v-10h12.39641v10z" fill="#9a0000" stroke="#9a0000" stroke-width="0"/><path d="M175.6524,279.08235v-31.8h26.41859v31.8z" fill="#9a0000" stroke="#9a0000" stroke-width="0"/><path d="M80.54548,259.36861v-13.8863h102.42285v13.8863z" fill="#9a0000" stroke="#9a0000" stroke-width="0"/><path d="M93.75477,270.97794v-19.00034h27.84113v19.00034z" fill="#9a0000" stroke="#9a0000" stroke-width="0"/><path d="M113.14116,275.00238v-22.39725h63.73057v22.39726z" fill="#9a0000" stroke="#9a0000" stroke-width="0"/><path d="M199.89042,293.3157v-19.53333h34.42467v19.53333z" fill="#9a0000" stroke="#9a0000" stroke-width="0"/><path d="M186.01664,293.08244v-17.6h17.27369v17.6z" fill="#9a0000" stroke="#9a0000" stroke-width="0"/><path d="M18.63112,311.41571v-44.6h59.54344v44.6z" fill="#9a0000" stroke="#9a0000" stroke-width="0"/><path d="M-8.06883,224.47728v-52.99476h26.203v52.99477z" fill="#9a0000" stroke="#9a0000" stroke-width="0"/><path d="M-8.16661,298.64905v-53.16667h26.15131v53.16667z" fill="#9a0000" stroke="#9a0000" stroke-width="0"/><path d="M22.50517,188.90064v-17h49.1115v17z" fill="#9a0000" stroke="#9a0000" stroke-width="0"/><path d="M23.52128,200.90064v-15.33334l17.61239,0.33334z" fill="#9a0000" stroke="#9a0000" stroke-width="0"/><path d="M51.52035,188.63353l21.11241,-0.39959v18.38043z" data-paper-data="{&quot;index&quot;:null}" fill="#9a0000" stroke="#9a0000" stroke-width="0"/><path d="M42.27695,224.23399c0,0 0.84741,-2.65116 3.6559,-2.65116c2.13969,0 7.89203,-0.27874 12.04554,-0.57161c4.59715,-0.32415 8.75129,-2.96328 8.75129,-2.96328l-2,40.35271c0,0 -5.36196,-5.28969 -20.5068,-14.09695c-4.36652,-2.53929 -1.94592,-20.06971 -1.94592,-20.06971z" fill="#9a0000" stroke="#9a0000" stroke-width="0"/><path d="M-101.34951,168.56728v-24.66667h36.43464v24.66667z" fill="#9a0000" stroke="#9a0000" stroke-width="0"/><path d="M-116.04487,298.4638l0.50805,-14l22.86224,14z" fill="#9a0000" stroke="#9a0000" stroke-width="0"/><path d="M-82.04836,162.63057l-34.29336,21l-0.76207,-21z" data-paper-data="{&quot;index&quot;:null}" fill="#9a0000" stroke="#9a0000" stroke-width="0"/><path d="M155.9661,75.18275v-35.548h34.92953z" fill="#9a0000" stroke="#9a0000" stroke-width="2"/><path d="M291.59129,43.46814h48.22448v46.75728z" fill="#9a0000" stroke="#9a0000" stroke-width="1.5"/><path d="M-119.01792,248.9471v-19.37986c0,0 13.13149,0 16.37027,0c0.60573,0 1.07637,0.18868 1.60289,0.73102c0.66153,0.68141 1.31247,1.82466 1.31247,2.7625c0,2.7303 -3.66667,10.3267 -3.66667,10.3267l1,9.51313c0,0 -3.58892,4 -6.7677,4c-1.75327,0 -4.13041,-4.79157 -6.27254,-6.92447c-1.82656,-1.8187 -3.57872,-1.02902 -3.57872,-1.02902z" fill="#9a0000" stroke="#9a0000" stroke-width="0"/><path d="M386.37593,190.12803l-16.139,-0.21014l-0.34725,-51.09884l25.86003,0.00072l5.09701,2.60537l0.23315,51.39392h-13.36722z" fill="#9a0000" stroke="#9a0000" stroke-width="0"/><path d="M348.58765,221.39831c0,0 -0.51351,-6.11843 4.95457,-5.66667c5.73728,0.474 5.10503,5.66667 5.10503,5.66667z" fill="#9a0000" stroke="none" stroke-width="0"/><path d="M539.68861,199.22747c0,-4.55632 4.95315,-13.99578 4.95315,-13.99578l17.40105,-0.83334v25.66667c0,0 -10.64445,0.24542 -14.75274,0c-8.3699,-0.5 -7.60145,-6.94242 -7.60145,-10.83756z" fill="#9a0000" stroke="none" stroke-width="0"/><path d="M543.38243,216.8941c0.45462,-3.61416 18.4462,-17.82911 18.4462,-17.82911l8.00426,2v21c0,0 -13.6846,4.64234 -21.26153,1.88513c-3.09498,-1.12625 -5.8824,-1.54311 -5.18893,-7.05602z" fill="#9a0000" stroke="none" stroke-width="0"/><path d="M559.33318,236.06504c0,0 -3.58676,-5.30718 -3.58676,-7.17089c0,-2.19345 3.58676,-5.16245 3.58676,-5.16245h10.8384v12.33334z" fill="#9a0000" stroke="none" stroke-width="0"/><path d="M540.36603,260.39815c0,0 3.92267,-2.47338 2.4246,-5.17927c-1.81846,-3.2846 -2.4246,-7.9664 -2.4246,-9.90747c0,-1.09276 0.99626,-3.2149 2.42728,-4.0174c1.35014,-0.75715 3.407,-0.68577 4.53523,-0.19056c3.3538,1.47209 11.22969,7.16913 11.22969,7.16913l-1.36384,12.12555z" fill="#9a0000" stroke="none" stroke-width="0"/><path d="M282.5417,189.46815c-12.94689,0 -23.4424,-8.02855 -23.4424,-17.93225c0,-9.9037 10.49552,-17.93225 23.4424,-17.93225c12.94689,0 23.44239,8.02855 23.44239,17.93225c0,9.9037 -10.49552,17.93225 -23.44239,17.93225z" fill="#9a0000" stroke="#9a0000" stroke-width="0"/><path d="M201.60817,189.46815c-12.94689,0 -23.4424,-8.02855 -23.4424,-17.93225c0,-9.9037 10.49552,-17.93225 23.4424,-17.93225c12.94689,0 23.44241,8.02855 23.44241,17.93225c0,9.9037 -10.49553,17.93225 -23.44241,17.93225z" fill="#9a0000" stroke="#9a0000" stroke-width="0"/><path d="M201.10817,107.46818c-12.94689,0 -23.4424,-8.46323 -23.4424,-18.90315c0,-10.43992 10.49552,-18.90315 23.4424,-18.90315c12.94688,0 23.44241,8.46323 23.44241,18.90315c0,10.43992 -10.49553,18.90315 -23.44241,18.90315z" fill="#9a0000" stroke="#9a0000" stroke-width="0"/><path d="M283.0417,106.90997c-12.94689,0 -23.44241,-8.46323 -23.44241,-18.90315c0,-10.43992 10.49552,-18.90315 23.44241,-18.90315c12.94687,0 23.44239,8.46323 23.44239,18.90315c0,10.43992 -10.49552,18.90315 -23.44239,18.90315z" fill="#9a0000" stroke="#9a0000" stroke-width="0"/><path d="M340.19736,176.79543c0,0 0,-7.72476 0,-12.7544c0,-7.28339 0,-26.7456 0,-26.7456h36.2092v39.5z" fill="#9a0000" stroke="none" stroke-width="0"/><path d="M356.08159,192.6285v-7.96875h39.11278v7.96875z" fill="#9a0000" stroke="none" stroke-width="0"/><path d="M373.49145,220.06504c0,0 -0.33918,-3.00064 1.98678,-4.64405c0.99539,-0.70329 2.47886,-1.15802 4.6859,-1.02263c7.72681,0.474 6.87533,5.66667 6.87533,5.66667z" fill="#9a0000" stroke="none" stroke-width="0"/><path d="M512.6181,190.72747v-8.33333h31.08526v8.33333z" fill="#9a0000" stroke="none" stroke-width="0"/><path d="M381.57424,397.04871v-3.91755c1.22098,0.56911 2.56237,0.88364 3.97003,0.88364c2.30453,0 4.43139,-0.843 6.14318,-2.26591h14.18893v5.29984z" fill="#9a0000" stroke="#9a0000" stroke-width="0"/><path d="M377.62149,395.58855c0,0 3.59919,-2.27777 6.00234,-1.77287v1.77287z" fill="#9a0000" stroke="#9a0000" stroke-width="0"/><path d="M377.62149,374.82181h0.5052c-0.1753,0.20373 -0.34384,0.41466 -0.5052,0.63238z" fill="#9a0000" stroke="#9a0000" stroke-width="0"/><path d="M352.6099,380.68939v-23.55185c0,0 22.15396,0 27.6974,0c2.37819,0 5.09768,0 5.09768,0v15.3717c-1.87192,0.21308 -7.35502,0.63736 -8.83449,1.65727c-2.14761,1.48051 -0.0108,3.93931 -0.7384,6.52289z" fill="#9a0000" stroke="#9a0000" stroke-width="0"/><path d="M367.51998,432.41698v-55.97284h9.44499c-1.05508,1.78542 -1.66858,3.92019 -1.66858,6.21376c0,2.81545 -0.9543,5.95947 0.57659,7.94387c1.45294,1.88338 5.33092,2.66587 7.60444,3.18186v38.63335z" fill="#9a0000" stroke="#9a0000" stroke-width="0"/><path d="M403.69718,412.88277v-21.12367h23.98006v21.12367z" fill="#9a0000" stroke="#9a0000" stroke-width="0"/><path d="M286.87122,386.67246v-29.36228h41.48628c0,0 -1.73876,8.94243 -1.99628,14.08212c-0.22967,4.58404 -3.97487,14.53017 -3.97487,14.53017z" fill="#9a0000" stroke="#9a0000" stroke-width="0"/><path d="M322.49129,374.95778v-17.59192h5.16994v17.59192z" fill="#9a0000" stroke="#9a0000" stroke-width="0"/><path d="M272.45124,451.95023v-94.64007h19.39019c0,0 -8.31628,17.70683 -9.7054,32.5599c-0.33598,3.59241 4.2054,7.01788 4.2054,9.98551c0,16.24468 5.5,52.09466 5.5,52.09466z" fill="#9a0000" stroke="#9a0000" stroke-width="0"/><path d="M287.28112,460.12716v-21.80508h82.59799v21.80508z" fill="#9a0000" stroke="#9a0000" stroke-width="0"/><path d="M287.07614,439.00347v-18.62516l17.42141,19.07944z" fill="#9a0000" stroke="#9a0000" stroke-width="0"/><path d="M350.61309,438.77638l17.42141,-19.07944v18.62516z" data-paper-data="{&quot;index&quot;:null}" fill="#9a0000" stroke="#9a0000" stroke-width="0"/><path d="M305.38572,444.45478c0,0 -9,-8.41298 -9,-10.84921c0,-1.42219 2.57415,-7.10095 5.21773,-7.59338c1.55137,-0.28898 6.03227,-0.4277 6.03227,-0.4277l16.74276,4.75v14.12031z" fill="#9a0000" stroke="#9a0000" stroke-width="0"/><path d="M357.58167,428.32806c0,0 0,-9.79669 0,-14.06036c0,-2.04885 3.05654,-9.82609 6.0836,-14.76974c0.826,-1.34897 1.3404,-5.42026 2.09076,-6.19856c1.27457,-1.32205 2.58592,1.14751 2.58592,1.14751l2.56197,10.03185v23.8493z" fill="#9a0000" stroke="#9a0000" stroke-width="0"/><path d="M282.77207,420.67028v-16.4187h16.80654v16.4187z" fill="#9a0000" stroke="#9a0000" stroke-width="0"/><path d="M207.61269,468.04537v-33.5277h84.28889v33.5277z" fill="#9a0000" stroke="#9a0000" stroke-width="0"/><path d="M44.06323,455.20005v-59.05541h129.66081l-0.10387,7.43854l42.69164,38.9887l-42.58777,12.62817z" fill="#9a0000" stroke="#9a0000" stroke-width="0"/><path d="M-47.14297,413.17985v-40.12741h66.61128v40.12741z" fill="#9a0000" stroke="#9a0000" stroke-width="0"/><path d="M-47.95878,374.5333l0.25619,8.51761h-12.29747c0,0 0,-12.49098 0,-15.33169c0,-1.09339 0,-4.2588 0,-4.2588z" data-paper-data="{&quot;index&quot;:null}" fill="#9a0000" stroke="#9a0000" stroke-width="0"/><path d="M377.19736,399.38106l-2.39118,-9.1864c1.59641,2.47872 6.4606,3.26992 9.30851,3.71045v5.47595z" fill="#9a0000" stroke="#9a0000" stroke-width="0"/><path d="M353.97878,319.22785l16.66403,-18.39803v-5.6784h19.10267v22.71362z" fill="#9a0000" stroke="#9a0000" stroke-width="0"/><path d="M276.38644,336.99084v-21.12517l85.6369,0.60897l4.40356,-5.9944l32.4232,0.04126l-0.05504,17.4341c0,0 -6.81688,1.37262 -9.66639,5.20571c-2.84951,3.83309 -3.44668,3.82953 -3.44668,3.82953z" fill="#9a0000" stroke="#9a0000" stroke-width="0"/><path d="M384.77407,317.42359v-92.59585h14.28942v92.59585z" fill="#9a0000" stroke="#9a0000" stroke-width="0"/><path d="M461.22215,325.19705v10.17521c0,0 1.97754,59.71596 -3.63923,66.23976c-7.40689,8.603 -68.68605,-6.99391 -68.68605,-6.99391l21.05168,0.3078l11.02192,-11.66036l-0.03586,-17.94064c0,0 8.62764,-6.96165 8.48869,-16.60258c-0.06945,-7.99475 -2.67026,-13.72344 -5.08573,-17.33159c-0.13955,-0.20846 -0.63294,-0.60417 -0.63294,-0.60417l0.05469,-4.09416z" fill="#9a0000" stroke="#9a0000" stroke-width="0"/><path d="M372.11003,373.44666l0.39351,-19.69903l15.01165,-0.15224c0,0 0.03556,5.6399 4.7736,10.99588c4.85077,5.48341 7.61137,4.60912 7.61137,4.60912c0,0 0.55851,2.35479 0.57515,3.19503c0.01004,0.50745 -0.48469,1.37308 -0.48469,1.37308l-11.1819,-0.12907c-1.21112,-0.76943 -2.57889,-1.20257 -4.02666,-1.20257c-1.3895,0 -2.70531,0.39899 -3.87966,1.11131z" fill="#9a0000" stroke="#9a0000" stroke-width="0"/><path d="M73.33922,340.94636v-93.12584h16.93166v93.12584z" fill="#9a0000" stroke="#9a0000" stroke-width="0"/><path d="M88.53546,316.22132v-17.38229h44.70839v17.3823z" fill="#9a0000" stroke="#9a0000" stroke-width="0"/><path d="M69.54242,372.62399v-65.29378h20.74454v65.29379z" fill="#9a0000" stroke="#9a0000" stroke-width="0"/><path d="M112.65112,373.85107v-23.6364h53.73669v23.6364z" fill="#9a0000" stroke="#9a0000" stroke-width="0"/><path d="M152.22075,373.69971v-70.35716l21.96385,-13.15326v83.51041z" fill="#9a0000" stroke="#9a0000" stroke-width="0"/><path d="M135.61809,351.16749l20.11877,-21.12366l1.0161,1.13568v19.53371z" fill="#9a0000" stroke="#9a0000" stroke-width="0"/><path d="M151.69215,302.81713l23.27409,-30.54171l40.51724,13.32532c0,0 -3.39293,10.19016 -8.42926,14.94064c-3.48386,3.28613 -8.30131,0.84037 -11.07987,3.46123c-7.43479,7.01281 -23.35385,22.02838 -23.35385,22.02838z" fill="#9a0000" stroke="#9a0000" stroke-width="0"/><path d="M13.00718,430.33656v-81.16182h32.57428v81.16182z" fill="#9a0000" stroke="#9a0000" stroke-width="0"/><path d="M13.00717,327.96083v-54.46996h65.11117v54.46998z" fill="#9a0000" stroke="#9a0000" stroke-width="0"/><path d="M-71.58699,424.53666v-146.12428h15.93469c0,0 -9.62134,6.0333 -9.62134,18.24732c0,0.71434 1.8446,7.10672 1.8446,7.92299c0,0.18923 -0.62433,1.33881 0.25733,1.89396c2.25892,1.42239 7.51942,2.87665 7.51942,3.40835c0,30.47591 0,114.65166 0,114.65166z" fill="#9a0000" stroke="#9a0000" stroke-width="0"/><path d="M-54.36092,351.10766v-38.02061h53.61924v38.02061z" fill="#9a0000" stroke="#9a0000" stroke-width="0"/><path d="M-76.3612,357.02365l-0.03877,-10.53285l39.30053,-6.66661l-12.58924,17.14752z" fill="#9a0000" stroke="#9a0000" stroke-width="0"/><path d="M-105.91864,330.92958v-35.77395h35.05544v35.77395z" fill="#9a0000" stroke="#9a0000" stroke-width="0"/><path d="M325.8743,442.51272v-14.196c0,0 7.17015,2.08208 10.3093,2.08208c1.71104,0 4.2833,-0.82254 5.9582,-1.43363c0.98987,-0.36116 1.64314,1.27664 1.62581,2.71736c-0.03109,2.58434 -0.1303,10.83018 -0.1303,10.83018z" fill="#9a0000" stroke="none" stroke-width="0"/><path d="M342.27093,440.99845v-10.97824c0,0 0.93923,0 1.59859,0c1.06984,0 4.20855,3.31402 4.20855,5.06831c0,1.89435 0,5.90994 0,5.90994z" fill="#9a0000" stroke="none" stroke-width="0"/><path d="M423.46859,312.02198v-8.51761h37.74639v8.51761z" fill="#9a0000" stroke="none" stroke-width="0"/><path d="M423.46145,307.419v-15.71026h40.47917v15.71026z" fill="#9a0000" stroke="none" stroke-width="0"/><path d="M447.97099,328.80764v-29.90626h14.17625v29.90626z" fill="#9a0000" stroke="none" stroke-width="0"/><path d="M376.15037,374.32964v-3.21776h23.98611v3.21776z" fill="#9a0000" stroke="none" stroke-width="0"/><path d="M378.71234,396.09685v-4.35344h15.20105v4.35344z" fill="#9a0000" stroke="none" stroke-width="0"/><path d="M259.12144,292.32492v-16.50608h21.84614v16.50608z" fill="#9a0000" stroke="#9a0000" stroke-width="0"/><path d="M259.10483,288.28247v-15.70687h32.04174v15.70687z" fill="#9966ff" stroke="none" stroke-width="0"/><path d="M271.38644,336.69401v-63.31831h19.73344v63.31831z" fill="#9a0000" stroke="#9a0000" stroke-width="0"/><path d="M337.68498,187.29103v-50h15.5v50z" fill="#9a0000" stroke="none" stroke-width="0"/><path d="M121.68498,204.34225v-61.89209h32.5v61.89209z" fill="#9a0000" stroke="none" stroke-width="0"/><path d="M119.37202,162.95005v-25.5h36.81295v25.5z" fill="#9a0000" stroke="none" stroke-width="0"/><path d="M138.18498,198.95015l34,6.5l11,35.5z" fill="#9a0000" stroke="none" stroke-width="0"/><path d="M-83.0405,200.40063v-43.83334c0,0 11.50539,0 16.47325,0c2.26394,0 -1.46134,11.82041 0.9411,16.70887c1.95204,3.97203 10.29838,0.84198 10.29838,3.38985c0,7.58285 0,23.73462 0,23.73462z" fill="#9a0000" stroke="#9a0000" stroke-width="0"/><path d="M-57.03782,224.53898v-52.94273h24.42402v52.94273z" fill="#9a0000" stroke="#9a0000" stroke-width="0"/><path d="M-82.67372,304.4638v-37h32.30122c0,0 -0.38882,21.76622 -2.8031,27.53083c-1.3666,3.26306 -10.42625,4.05716 -10.42625,4.05716z" fill="#9a0000" stroke="#9a0000" stroke-width="0"/><path d="M-57.26917,299.53882v-53.44273h25.32395v53.44273z" fill="#9a0000" stroke="#9a0000" stroke-width="0"/><path d="M-103.5,174.45015v-11.5h25v11.5z" fill="#9a0000" stroke="none" stroke-width="0"/><path d="M-106.83333,238.05411v-4h11.33334v4z" fill="#9a0000" stroke="none" stroke-width="0"/><path d="M-126.83333,189.73157l4,-13.33333l13.66667,-3.66667c0,0 -1.11914,13.38107 -2.57333,15.32c-1.54079,2.05439 -15.09333,1.68 -15.09333,1.68z" fill="#fff7a1" stroke="none" stroke-width="0"/><path d="M-124.53685,236.00594v-28.97133c0,0 1.80183,-3.66121 4.77209,-3.66121c1.18671,0 1.61151,-2.23974 3.83186,-1.74525c4.85792,1.08192 12.25185,5.40645 12.25185,5.40645v28.97133z" fill="#9a0000" stroke="none" stroke-width="0"/><path d="M33.20727,210.73157v-9.90232h11.66511v9.90232z" fill="#9a0000" stroke="none" stroke-width="0"/><path d="M202.72096,371.26672l-3.00719,-39.64026l21.27782,-5.00123c0,0 8.62955,-2.21833 11.47155,-0.56635c1.61318,0.9377 5.07515,-0.9583 7.71914,-0.5717c6.03602,0.88258 12.02066,3.13209 12.02066,3.13209l0.27338,57.13665c0,0 -25.32979,0 -34.99278,0c-3.58016,0 -3.3608,-6.43836 -6.2448,-10.22559c-2.62013,-3.44072 -8.51777,-4.2636 -8.51777,-4.2636z" fill="#9a0000" stroke="none" stroke-width="0"/><path d="M216.39001,384.66239l1.09352,-9.02157h17.22301l-6.28777,16.94962z" fill="#9a0000" stroke="none" stroke-width="0"/><path d="M188.50514,362.51852v-16.94963h12.30215v16.94963z" fill="#9a0000" stroke="none" stroke-width="0"/><path d="M442.73113,134.98053v-9.5h32.5v9.5z" fill="#9a0000" stroke="none" stroke-width="0"/><path d="M423.74898,328.35546v-7.25h33v7.25z" fill="#9a0000" stroke="none" stroke-width="0"/><path d="M373.10613,377.85557v-5.5h27.25v5.5z" fill="#9a0000" stroke="none" stroke-width="0"/><path d="M326.23113,441.10557v-12.75h38.5v12.75z" fill="#9a0000" stroke="none" stroke-width="0"/><path d="M353.23113,432.60557v-33h14.5v33z" fill="#9a0000" stroke="none" stroke-width="0"/><path d="M357.23113,408.60557v-34.75h13.25v34.75z" fill="#9a0000" stroke="none" stroke-width="0"/><path d="M552.94855,240.52929v-24.75h16.25v24.75z" fill="#9a0000" stroke="none" stroke-width="0"/><path d="M551.69855,223.02929v-3.75h0.75v3.75z" fill="#9a0000" stroke="none" stroke-width="0"/><path d="M553.44855,250.27929v-13.5h12.75v13.5z" fill="#9a0000" stroke="none" stroke-width="0"/><path d="M542.69855,246.27929v-5.75h5.25v5.75z" fill="#9a0000" stroke="none" stroke-width="0"/><path d="M374.44858,393.35556v-5h26.5v5z" fill="#9a0000" stroke="none" stroke-width="0"/><path d="M227.82358,336.73056v-12h24.5v12z" fill="#9a0000" stroke="none" stroke-width="0"/><path d="M216.32358,330.48046l8,-9.75l11,6.5l1.5,3.5z" fill="#9a0000" stroke="none" stroke-width="0"/><path d="M42.88867,413.33131v-19.25h130.75v19.25z" fill="#9a0000" stroke="none" stroke-width="0"/><path d="M369.75256,364.48054c0,0 0,-7.08743 0,-8.9375c0,-0.83314 1.23584,-1.8125 2.0625,-1.8125c1.24623,0 4.6875,0 4.6875,0v10.75z" fill="#9a0000" stroke="none" stroke-width="0"/><path d="M377.09584,81.9844v-18.2h21v18.2z" fill="#9a0000" stroke="none" stroke-width="0"/><path d="M31.5599,188.53v-4.8h25.2v4.8z" fill="none" stroke="#ffffff" stroke-width="5"/><path d="M313.6849,446.225v-32.25h7.5v32.25z" fill="#9a0000" stroke="none" stroke-width="0"/><path d="M325.9099,432.68l-5.8,-11c0,0 6.2731,4.79795 9.40772,3.79753c3.13204,-0.99959 9.39228,-4.99753 9.39228,-4.99753l3.8,10.8z" fill="#9a0000" stroke="none" stroke-width="0"/></g></g></svg>