<svg version="1.1" xmlns="http://www.w3.org/2000/svg" xmlns:xlink="http://www.w3.org/1999/xlink" width="149" height="103" viewBox="0,0,149,103"><defs><linearGradient x1="331.47741" y1="150.57495" x2="331.47741" y2="181.74498" gradientUnits="userSpaceOnUse" id="color-1"><stop offset="0" stop-color="#669949"/><stop offset="1" stop-color="#7bb758"/></linearGradient><linearGradient x1="325.3551" y1="173.02343" x2="325.3551" y2="193.43107" gradientUnits="userSpaceOnUse" id="color-2"><stop offset="0" stop-color="#669949"/><stop offset="1" stop-color="#7bb758"/></linearGradient><linearGradient x1="310.78097" y1="172.97535" x2="310.78097" y2="193.48109" gradientUnits="userSpaceOnUse" id="color-3"><stop offset="0" stop-color="#669949"/><stop offset="1" stop-color="#7bb758"/></linearGradient></defs><g transform="translate(-246.97745,-111.26965)"><g data-paper-data="{&quot;isPaintingLayer&quot;:true}" fill-rule="nonzero" stroke-linecap="butt" stroke-linejoin="miter" stroke-miterlimit="10" stroke-dasharray="" stroke-dashoffset="0" style="mix-blend-mode: normal"><path d="M324.70263,183.20073c11.60035,0.24328 27.61159,5.46057 27.61159,10.09587c0,4.6353 -10.41593,7.90641 -25.6654,7.90641c-15.24946,0 -27.61159,-3.75765 -27.61159,-8.39295c0,-4.6353 12.01533,-10.45275 25.6654,-9.60933z" data-paper-data="{&quot;index&quot;:null}" fill-opacity="0.67451" fill="#474747" stroke="none" stroke-width="0"/><g data-paper-data="{&quot;index&quot;:null}" stroke="#000000" stroke-width="7.5"><path d="M348.12601,160.61962c0,-4.16113 2.67748,-10.04466 7.53247,-10.04466c7.53247,0 12.55276,5.88354 12.55276,10.04466c0,4.15705 -6.44475,5.02029 -11.29769,5.02029c-1.34894,0 -5.02845,19.6281 -19.31382,15.54657c-2.89177,-0.82651 10.52628,-0.48162 10.52628,-20.56685zM302.90667,172.28466c3.38155,0 6.1223,-0.21224 6.1223,2.04077c0,2.253 0,6.1223 -4.08153,4.08153c-3.02442,-1.51221 -10.20384,2.25301 -10.20384,0c0,-2.25505 4.78152,-6.1223 8.16307,-6.1223z" fill="#77b255"/><path d="M334.09979,187.60062c0,-5.63456 -0.30407,-14.5772 2.91626,-14.5772c2.64892,0 6.86106,6.05291 8.26919,11.3385c0.30407,1.13875 0.47754,2.24076 0.47754,3.2387c0,5.63252 -2.61218,5.83047 -5.83251,5.83047c-3.22033,0 -5.83047,-0.19591 -5.83047,-5.83047zM316.60839,187.60062c0,-5.63456 0.30611,-14.5772 -2.91422,-14.5772c-2.64892,0 -6.85902,6.05291 -8.26919,11.3385c-0.30407,1.13875 -0.47754,2.24076 -0.47754,3.2387c0,5.63252 2.61014,5.83047 5.83251,5.83047c3.22033,0 5.82843,-0.19591 5.82843,-5.83047z" fill="#77b255"/><path d="M326.37549,150.57497c12.96091,0 23.46882,10.96504 23.46882,24.48921c0,8.16307 -10.50791,8.16307 -23.46882,8.16307c-12.96091,0 -23.46882,0 -23.46882,-8.16307c0,-13.52417 10.50791,-24.48921 23.46882,-24.48921z" fill="#3e721d"/><path d="M358.00738,158.73804c-1.12709,0 -2.04077,-0.91368 -2.04077,-2.04077c0,-1.12709 0.91368,-2.04077 2.04077,-2.04077c1.12709,0 2.04077,0.91368 2.04077,2.04077c0,1.12709 -0.91368,2.04077 -2.04077,2.04077z" fill="#292f33"/><path d="M326.37549,154.65648c3.57134,0 6.46311,9.20387 6.46311,16.53022c0,7.32635 -2.89381,7.95899 -6.46311,7.95899c-3.5693,0 -6.46311,-0.63059 -6.46311,-7.95899c0,-7.32636 2.89177,-16.53022 6.46311,-16.53022zM306.98819,168.94187c2.04077,-8.16307 5.47946,-11.02014 9.04672,-11.02014c3.56931,0 1.29181,5.93864 1.29181,13.26499c0,7.32636 -1.59996,5.91823 -5.16926,5.91823c-3.5693,0 -6.94677,-1.05712 -5.16926,-8.16307zM335.4222,171.18671c0,-7.32636 -3.43461,-13.26499 0.13673,-13.26499c3.56931,0 8.16307,2.85707 10.20384,11.02014c1.77751,7.10595 -1.59996,8.16307 -5.16926,8.16307c-3.5693,0 -5.1713,1.41017 -5.1713,-5.91823z" fill="#5c913b"/></g><path d="M348.12601,160.61962c0,-4.16113 2.67748,-10.04466 7.53247,-10.04466c7.53247,0 12.55276,5.88354 12.55276,10.04466c0,4.15705 -6.44475,5.02029 -11.29769,5.02029c-1.34894,0 -5.02845,19.6281 -19.31382,15.54657c-2.89177,-0.82651 10.52628,-0.48162 10.52628,-20.56685zM302.90666,172.28467c3.38155,0 6.1223,-0.21224 6.1223,2.04077c0,2.253 0,6.1223 -4.08153,4.08153c-3.02442,-1.51221 -10.20384,2.25301 -10.20384,0c0,-2.25505 4.78152,-6.1223 8.16307,-6.1223z" data-paper-data="{&quot;index&quot;:null}" fill="url(#color-1)" stroke="none" stroke-width="7.5"/><path d="M334.09979,187.60063c0,-5.63456 -0.30407,-14.5772 2.91626,-14.5772c2.64892,0 6.86106,6.05291 8.26919,11.3385c0.30407,1.13875 0.47754,2.24076 0.47754,3.2387c0,5.63252 -2.61218,5.83047 -5.83251,5.83047c-3.22033,0 -5.83047,-0.19591 -5.83047,-5.83047zM316.60838,187.60063c0,-5.63456 0.30611,-14.5772 -2.91422,-14.5772c-2.64892,0 -6.85902,6.05291 -8.26919,11.3385c-0.30407,1.13875 -0.47754,2.24076 -0.47754,3.2387c0,5.63252 2.61014,5.83047 5.83251,5.83047c3.22033,0 5.82843,-0.19591 5.82843,-5.83047z" data-paper-data="{&quot;index&quot;:null}" fill="url(#color-2)" stroke="none" stroke-width="7.5"/><path d="M316.64836,187.63064c0,5.63456 -2.6481,5.85045 -5.86843,5.85045c-3.22237,0 -5.87251,-0.21796 -5.87251,-5.85048c0,-0.99794 0.16456,-2.11958 0.46863,-3.25833c1.41017,-5.28559 5.68291,-11.39694 8.33183,-11.39694c3.22033,0 2.94049,9.02074 2.94049,14.6553z" data-paper-data="{&quot;noHover&quot;:false,&quot;origItem&quot;:[&quot;Path&quot;,{&quot;applyMatrix&quot;:true,&quot;segments&quot;:[[[344.86904,195.59761],[0,0],[0,5.63456]],[[350.69747,201.42807],[-3.22033,0],[3.22237,0]],[[356.52998,195.59761],[0,5.63252],[0,-0.99794]],[[356.05244,192.35891],[0.30407,1.13875],[-1.41017,-5.28559]],[[347.78325,181.02041],[2.64892,0],[-3.22033,0]],[[344.86903,195.59761],[0,-5.63456],[0,0]]],&quot;closed&quot;:true,&quot;fillColor&quot;:[0,0,0,1]}],&quot;index&quot;:null}" fill="url(#color-3)" stroke="none" stroke-width="7.5"/><path d="M326.37548,150.57498c12.96091,0 23.46882,10.96504 23.46882,24.48921c0,8.16307 -10.50791,8.16307 -23.46882,8.16307c-12.96091,0 -23.46882,0 -23.46882,-8.16307c0,-13.52417 10.50791,-24.48921 23.46882,-24.48921z" data-paper-data="{&quot;index&quot;:null}" fill="#89cc62" stroke="none" stroke-width="7.5"/><path d="M358.00738,163.24254c-1.12709,0 -2.04077,-0.91368 -2.04077,-2.04077c0,-1.12709 0.91368,-2.04077 2.04077,-2.04077c1.12709,0 2.04077,0.91368 2.04077,2.04077c0,1.12709 -0.91368,2.04077 -2.04077,2.04077z" data-paper-data="{&quot;index&quot;:null}" fill="#292f33" stroke="none" stroke-width="7.5"/><path d="M330.87998,154.65648c3.57134,0 6.46311,9.20387 6.46311,16.53022c0,7.32635 -2.89381,7.95899 -6.46311,7.95899c-3.5693,0 -6.46311,-0.63059 -6.46311,-7.95899c0,-7.32636 2.89177,-16.53022 6.46311,-16.53022zM311.49268,168.94188c2.04077,-8.16307 5.47946,-11.02014 9.04672,-11.02014c3.56931,0 1.29181,5.93864 1.29181,13.26499c0,7.32636 -1.59996,5.91823 -5.16926,5.91823c-3.5693,0 -6.94677,-1.05712 -5.16926,-8.16307zM339.9267,171.18671c0,-7.32636 -3.43461,-13.26499 0.13673,-13.26499c3.56931,0 8.16307,2.85707 10.20384,11.02014c1.77751,7.10595 -1.59996,8.16307 -5.16926,8.16307c-3.5693,0 -5.1713,1.41017 -5.1713,-5.91823z" data-paper-data="{&quot;index&quot;:null}" fill="#97e26c" stroke="none" stroke-width="7.5"/><path d="M246.97745,214.26965v-103h149v103z" data-paper-data="{&quot;index&quot;:null}" fill="none" stroke="none" stroke-width="7.5"/></g></g></svg>