<svg version="1.1" xmlns="http://www.w3.org/2000/svg" xmlns:xlink="http://www.w3.org/1999/xlink" width="126.6836" height="10.23887" viewBox="0,0,126.6836,10.23887"><g transform="translate(-176.6582,-174.88057)"><g data-paper-data="{&quot;isPaintingLayer&quot;:true}" fill="#12ff00" fill-rule="nonzero" stroke="none" stroke-width="1" stroke-linecap="square" stroke-linejoin="miter" stroke-miterlimit="10" stroke-dasharray="" stroke-dashoffset="0" style="mix-blend-mode: normal"><path d="M178.28653,176.91811c0,0.22166 0.09378,0.4149 0.28133,0.57972c0.19324,0.16482 0.68202,0.34385 1.46635,0.53709c0.79001,0.18756 1.37541,0.38364 1.75621,0.58824c0.3808,0.20461 0.6536,0.47457 0.81843,0.8099c0.17051,0.33533 0.25576,0.68487 0.25576,1.04861c0,0.72749 -0.27565,1.32426 -0.82695,1.79031c-0.5513,0.46037 -1.30437,0.69055 -2.2592,0.69055c-1.04577,0 -1.82725,-0.25008 -2.34445,-0.75023c-0.5172,-0.50583 -0.7758,-1.02588 -0.7758,-1.56013c0,-0.17619 0.06536,-0.33533 0.19608,-0.47742c0.1364,-0.14209 0.31259,-0.21313 0.52857,-0.21313c0.19324,0 0.33817,0.05968 0.43479,0.17903c0.09662,0.11935 0.21029,0.33533 0.34101,0.64792c0.29554,0.67065 0.81843,1.00598 1.56865,1.00598c0.44331,0 0.81843,-0.1023 1.12534,-0.30691c0.30691,-0.20461 0.46037,-0.4831 0.46037,-0.83548c0,-0.27281 -0.10515,-0.50583 -0.31544,-0.69907c-0.21029,-0.19892 -0.69623,-0.38648 -1.45782,-0.56267c-0.75591,-0.17619 -1.28732,-0.34385 -1.59423,-0.50299c-0.30123,-0.15914 -0.56551,-0.38932 -0.79285,-0.69055c-0.22734,-0.30123 -0.34101,-0.67918 -0.34101,-1.13386c0,-0.66497 0.26144,-1.19354 0.78433,-1.5857c0.52857,-0.39785 1.24469,-0.59677 2.14837,-0.59677c0.92641,0 1.62265,0.21313 2.08869,0.6394c0.47173,0.42058 0.7076,0.844 0.7076,1.27027c0,0.17619 -0.0682,0.34385 -0.20461,0.50299c-0.1364,0.15346 -0.30975,0.23018 -0.52004,0.23018c-0.19324,0 -0.34101,-0.05399 -0.44331,-0.16198c-0.09662,-0.10799 -0.20461,-0.28986 -0.32396,-0.54562c-0.27281,-0.53994 -0.73886,-0.8099 -1.39815,-0.8099c-0.38648,0 -0.71044,0.08525 -0.97188,0.25576c-0.26144,0.16482 -0.39216,0.38364 -0.39216,0.65645zM184.34588,177.17387v-0.8781c0,-0.35806 0.01421,-0.59961 0.04263,-0.72465c0.0341,-0.13072 0.11367,-0.24723 0.23871,-0.34954c0.12504,-0.1023 0.27281,-0.15346 0.44331,-0.15346c0.15914,0 0.30122,0.04547 0.42626,0.1364c0.12504,0.09094 0.20745,0.20461 0.24723,0.34101c0.03978,0.13072 0.05968,0.34385 0.05968,0.6394v0.98893h0.28133c0.35806,0 0.59393,0.04263 0.7076,0.12788c0.11935,0.08525 0.17903,0.21313 0.17903,0.38364c0,0.35806 -0.29838,0.53709 -0.89515,0.53709h-0.27281v2.68546c0,0.36374 0.02558,0.61098 0.07673,0.7417c0.05115,0.13072 0.18756,0.19608 0.40921,0.19608c0.10799,0 0.22734,-0.01421 0.35806,-0.04263c0.1364,-0.0341 0.23587,-0.05115 0.29838,-0.05115c0.14777,0 0.26713,0.04831 0.35806,0.14493c0.09094,0.09662 0.1364,0.21313 0.1364,0.34954c0,0.47742 -0.50299,0.71612 -1.50898,0.71612c-0.48878,0 -0.84685,-0.09094 -1.07419,-0.27281c-0.22734,-0.18187 -0.36943,-0.40069 -0.42626,-0.65645c-0.05683,-0.26144 -0.08525,-0.60245 -0.08525,-1.02303v-2.78777h-0.18756c-0.43195,0 -0.64792,-0.17619 -0.64792,-0.52857c0,-0.34669 0.22734,-0.52004 0.68202,-0.52004zM190.51072,177.04599c0.90368,0 1.61412,0.27849 2.13132,0.83548c0.5172,0.5513 0.7758,1.2589 0.7758,2.1228c0,0.8639 -0.26144,1.57433 -0.78433,2.13132c-0.52289,0.5513 -1.21627,0.82695 -2.08017,0.82695c-0.93778,0 -1.66243,-0.28133 -2.17395,-0.844c-0.51152,-0.56267 -0.76728,-1.26742 -0.76728,-2.11427c0,-0.8639 0.2586,-1.5715 0.7758,-2.1228c0.5172,-0.55699 1.2248,-0.83548 2.1228,-0.83548zM190.51072,181.87983c0.44331,0 0.79285,-0.16482 1.04861,-0.49447c0.25576,-0.33533 0.38364,-0.79569 0.38364,-1.3811c0,-0.59109 -0.12788,-1.05145 -0.38364,-1.3811c-0.25576,-0.33533 -0.6053,-0.50299 -1.04861,-0.50299c-0.43195,0 -0.77864,0.16766 -1.04008,0.50299c-0.25576,0.33533 -0.38364,0.79569 -0.38364,1.3811c0,0.5854 0.12788,1.04577 0.38364,1.3811c0.25576,0.32964 0.60245,0.49447 1.04008,0.49447zM194.55277,181.75195v-3.72555c0,-0.6536 0.23871,-0.98041 0.71612,-0.98041c0.46037,0 0.69623,0.30123 0.7076,0.90368c0.30123,-0.60245 0.71897,-0.90368 1.25322,-0.90368c0.27849,0 0.56835,0.07388 0.86958,0.22166c0.30123,0.14777 0.45184,0.34954 0.45184,0.6053c0,0.17619 -0.06252,0.32396 -0.18756,0.44331c-0.11935,0.11367 -0.24723,0.17051 -0.38364,0.17051c-0.07957,0 -0.22166,-0.03126 -0.42626,-0.09378c-0.20461,-0.06252 -0.37511,-0.09378 -0.51152,-0.09378c-0.34669,0 -0.6053,0.17619 -0.7758,0.52857c-0.17051,0.34669 -0.25576,1.02303 -0.25576,2.02902v0.844c0,0.36943 -0.01705,0.6195 -0.05115,0.75023c-0.02842,0.13072 -0.10799,0.25008 -0.23871,0.35806c-0.12504,0.1023 -0.26997,0.15346 -0.43479,0.15346c-0.16482,0 -0.31259,-0.04831 -0.44331,-0.14493c-0.12504,-0.09662 -0.20461,-0.20745 -0.23871,-0.33249c-0.0341,-0.13072 -0.05115,-0.37511 -0.05115,-0.73317zM202.74344,182.13558c-0.68771,0.5513 -1.36405,0.82695 -2.02902,0.82695c-0.63087,0 -1.11681,-0.15914 -1.45782,-0.47742c-0.33533,-0.32396 -0.50299,-0.71612 -0.50299,-1.17649c0,-0.39785 0.11367,-0.71612 0.34101,-0.95483c0.23303,-0.24439 0.4831,-0.4149 0.75023,-0.51152c0.27281,-0.09662 0.71328,-0.20745 1.32142,-0.33249c0.60814,-0.12504 1.09976,-0.24155 1.47487,-0.34954c-0.00568,-0.44331 -0.09378,-0.7417 -0.26428,-0.89515c-0.17051,-0.15346 -0.42911,-0.23018 -0.7758,-0.23018c-0.65929,0 -1.09124,0.18471 -1.29584,0.55414c-0.11367,0.21029 -0.21597,0.3609 -0.30691,0.45184c-0.08525,0.08525 -0.21029,0.12788 -0.37511,0.12788c-0.15346,0 -0.2927,-0.04831 -0.41774,-0.14493c-0.12504,-0.1023 -0.18756,-0.23587 -0.18756,-0.40069c0,-0.37511 0.20461,-0.73033 0.61382,-1.06566c0.40921,-0.34101 1.05145,-0.51152 1.92671,-0.51152c0.88663,0 1.53455,0.15346 1.94376,0.46037c0.4149,0.30691 0.61098,0.92641 0.58824,1.85851l-0.0341,1.36405c-0.01137,0.42626 0.03126,0.77296 0.12788,1.04008c0.1023,0.26144 0.15346,0.46321 0.15346,0.6053c0,0.15346 -0.0682,0.28986 -0.20461,0.40921c-0.13072,0.11935 -0.28133,0.17903 -0.45184,0.17903c-0.29554,0 -0.60814,-0.27565 -0.93778,-0.82695zM202.64966,180.02984c-0.21597,0.08525 -0.57404,0.17903 -1.07419,0.28133c-0.50015,0.09662 -0.85537,0.21029 -1.06566,0.34101c-0.20461,0.12504 -0.30691,0.31259 -0.30691,0.56267c0,0.20461 0.08241,0.38932 0.24723,0.55414c0.16482,0.15914 0.40069,0.23871 0.7076,0.23871c0.31828,0 0.61382,-0.0881 0.88663,-0.26428c0.27849,-0.17619 0.449,-0.38364 0.51152,-0.62235c0.06252,-0.24439 0.09378,-0.60814 0.09378,-1.09124zM209.39955,178.03492v-0.19608c0,-0.26144 0.06252,-0.45752 0.18756,-0.58824c0.13072,-0.1364 0.29554,-0.20461 0.49447,-0.20461c0.22166,0 0.39216,0.07673 0.51152,0.23018c0.11935,0.15346 0.17903,0.48594 0.17903,0.99746v3.90458c0,1.15944 -0.24439,1.93808 -0.73317,2.33593c-0.48878,0.40353 -1.19354,0.6053 -2.11427,0.6053c-0.8298,0 -1.47772,-0.15346 -1.94376,-0.46037c-0.46605,-0.30691 -0.69907,-0.63087 -0.69907,-0.97188c0,-0.18187 0.05968,-0.32964 0.17903,-0.44331c0.12504,-0.11367 0.27281,-0.17051 0.44331,-0.17051c0.15346,0 0.27281,0.03694 0.35806,0.11083c0.09094,0.07388 0.24439,0.24723 0.46037,0.52004c0.22166,0.27281 0.58824,0.40921 1.09976,0.40921c0.28418,0 0.54846,-0.04547 0.79285,-0.1364c0.24439,-0.08525 0.42342,-0.24155 0.53709,-0.46889c0.11935,-0.22166 0.17335,-0.77012 0.16198,-1.64538c-0.44331,0.64224 -1.04861,0.96336 -1.81589,0.96336c-0.74454,0 -1.33279,-0.27849 -1.76473,-0.83548c-0.43195,-0.55699 -0.64792,-1.26742 -0.64792,-2.13132c0,-0.8639 0.22166,-1.54876 0.66497,-2.05459c0.44331,-0.50583 1.02019,-0.75875 1.73063,-0.75875c0.77864,0 1.41804,0.32964 1.91819,0.98893zM206.56063,179.97869c0,0.56267 0.1222,0.99178 0.36659,1.28732c0.24439,0.29554 0.58256,0.44331 1.01451,0.44331c0.37511,0 0.69623,-0.14209 0.96336,-0.42626c0.27281,-0.28986 0.40921,-0.72181 0.40921,-1.29584c0,-0.56267 -0.12504,-1.00883 -0.37511,-1.33847c-0.25008,-0.32964 -0.58824,-0.49447 -1.01451,-0.49447c-0.4149,0 -0.74738,0.1563 -0.99746,0.46889c-0.24439,0.30691 -0.36659,0.75875 -0.36659,1.35552zM216.01624,180.36232h-2.85597c0.01705,0.53994 0.16482,0.94631 0.44331,1.21912c0.28418,0.27281 0.62519,0.40921 1.02303,0.40921c0.4831,0 0.94062,-0.21313 1.37257,-0.6394c0.17619,-0.17619 0.30407,-0.28418 0.38364,-0.32396c0.08525,-0.04547 0.17903,-0.0682 0.28133,-0.0682c0.13072,0 0.24155,0.04263 0.33249,0.12788c0.09662,0.07957 0.14493,0.17903 0.14493,0.29838c0,0.32964 -0.2245,0.67634 -0.6735,1.04008c-0.44331,0.35806 -1.04861,0.53709 -1.81589,0.53709c-0.97188,0 -1.71074,-0.27565 -2.21657,-0.82695c-0.50015,-0.5513 -0.75023,-1.26174 -0.75023,-2.13132c0,-0.88095 0.25008,-1.59423 0.75023,-2.13985c0.50583,-0.54562 1.20775,-0.81843 2.10575,-0.81843c0.85253,0 1.51182,0.2586 1.97787,0.7758c0.46605,0.51152 0.69907,1.0685 0.69907,1.67096c0,0.26713 -0.07673,0.48026 -0.23018,0.6394c-0.15346,0.15346 -0.47742,0.23018 -0.97188,0.23018zM213.16027,179.53537h2.65136c-0.01705,-0.4831 -0.15061,-0.85253 -0.40069,-1.10829c-0.25008,-0.25576 -0.55699,-0.38364 -0.92073,-0.38364c-0.77296,0 -1.21627,0.49731 -1.32994,1.49192zM219.40611,177.04599c0.21597,0 0.40069,0.07957 0.55414,0.23871c0.15914,0.15346 0.23871,0.33817 0.23871,0.55414c0,0.22166 -0.07957,0.41206 -0.23871,0.57119c-0.15346,0.15914 -0.33817,0.23871 -0.55414,0.23871c-0.22166,0 -0.41206,-0.07957 -0.57119,-0.23871c-0.15914,-0.15914 -0.23871,-0.34954 -0.23871,-0.57119c0,-0.21597 0.07957,-0.40069 0.23871,-0.55414c0.15914,-0.15914 0.34954,-0.23871 0.57119,-0.23871zM219.40611,181.35126c0.21597,0 0.40069,0.07957 0.55414,0.23871c0.15914,0.15346 0.23871,0.34101 0.23871,0.56267c0,0.21597 -0.07957,0.40637 -0.23871,0.57119c-0.15346,0.15914 -0.33817,0.23871 -0.55414,0.23871c-0.22166,0 -0.41206,-0.07957 -0.57119,-0.23871c-0.15914,-0.15914 -0.23871,-0.34954 -0.23871,-0.57119c0,-0.22166 0.07957,-0.40921 0.23871,-0.56267c0.15914,-0.15914 0.34954,-0.23871 0.57119,-0.23871zM226.74318,176.23609v1.99492h2.35298c0.27849,0 0.46889,0.01421 0.57119,0.04263c0.10799,0.02842 0.20176,0.09662 0.28133,0.20461c0.08525,0.10799 0.12788,0.2245 0.12788,0.34954c0,0.16482 -0.06252,0.30975 -0.18756,0.43479c-0.11935,0.12504 -0.38364,0.18756 -0.79285,0.18756h-2.35298v2.19952c0,0.31828 -0.01421,0.55414 -0.04263,0.7076c-0.02273,0.15346 -0.09378,0.2927 -0.21313,0.41774c-0.11367,0.12504 -0.2927,0.18756 -0.53709,0.18756c-0.23871,0 -0.41774,-0.06252 -0.53709,-0.18756c-0.11367,-0.12504 -0.18471,-0.26713 -0.21313,-0.42626c-0.02273,-0.16482 -0.0341,-0.39785 -0.0341,-0.69907v-5.31125c0,-0.56835 0.03978,-0.89231 0.11935,-0.97188c0.08525,-0.07957 0.17619,-0.1563 0.27281,-0.23018c0.1023,-0.07957 0.41206,-0.11935 0.92926,-0.11935h3.11173c0.27281,0 0.46605,0.01137 0.57972,0.0341c0.11367,0.01705 0.21313,0.07957 0.29838,0.18756c0.09094,0.10799 0.1364,0.23587 0.1364,0.38364c0,0.14777 -0.04547,0.27565 -0.1364,0.38364c-0.08525,0.10799 -0.18471,0.17335 -0.29838,0.19608c-0.11367,0.02273 -0.30691,0.0341 -0.57972,0.0341zM232.27822,174.94877c0.19324,0 0.35806,0.07104 0.49447,0.21313c0.1364,0.14209 0.20461,0.30691 0.20461,0.49447c0,0.19324 -0.0682,0.3609 -0.20461,0.50299c-0.1364,0.1364 -0.30123,0.20461 -0.49447,0.20461c-0.19324,0 -0.3609,-0.0682 -0.50299,-0.20461c-0.1364,-0.14209 -0.20461,-0.30975 -0.20461,-0.50299c0,-0.19324 0.0682,-0.35806 0.20461,-0.49447c0.14209,-0.14209 0.30975,-0.21313 0.50299,-0.21313zM233.00287,178.231v3.52094c0,0.35238 -0.01705,0.59393 -0.05115,0.72465c-0.02842,0.12504 -0.11083,0.23871 -0.24723,0.34101c-0.13072,0.09662 -0.27281,0.14493 -0.42626,0.14493c-0.15346,0 -0.29838,-0.04831 -0.43479,-0.14493c-0.1364,-0.1023 -0.22166,-0.21881 -0.25576,-0.34954c-0.02842,-0.13072 -0.04263,-0.36943 -0.04263,-0.71612v-3.51242c0,-0.31828 0.01137,-0.54278 0.0341,-0.6735c0.02842,-0.1364 0.10799,-0.25576 0.23871,-0.35806c0.13072,-0.10799 0.28133,-0.16198 0.45184,-0.16198c0.17051,0 0.31828,0.04831 0.44331,0.14493c0.12504,0.09094 0.20461,0.21029 0.23871,0.35806c0.0341,0.14209 0.05115,0.36943 0.05115,0.68202zM236.59095,180.81416l-1.06566,1.54308c-0.19324,0.26713 -0.34669,0.43479 -0.46037,0.50299c-0.11367,0.0682 -0.23587,0.1023 -0.36659,0.1023c-0.18187,0 -0.33817,-0.05683 -0.46889,-0.17051c-0.12504,-0.11367 -0.18756,-0.24439 -0.18756,-0.39216c0,-0.16482 0.09946,-0.38648 0.29838,-0.66497l1.32142,-1.88409l-1.16796,-1.57718c-0.20461,-0.26713 -0.30691,-0.48594 -0.30691,-0.65645c0,-0.16482 0.05968,-0.30123 0.17903,-0.40921c0.12504,-0.10799 0.28702,-0.16198 0.48594,-0.16198c0.17051,0 0.30975,0.04547 0.41774,0.1364c0.10799,0.09094 0.23871,0.24439 0.39216,0.46037l0.92926,1.28732l0.92926,-1.28732c0.19324,-0.27281 0.3467,-0.44047 0.46037,-0.50299c0.11367,-0.06252 0.23587,-0.09378 0.36659,-0.09378c0.18756,0 0.34385,0.05399 0.46889,0.16198c0.12504,0.10799 0.18756,0.23587 0.18756,0.38364c0,0.17051 -0.10515,0.39785 -0.31544,0.68202l-1.16797,1.57718l1.30437,1.88409c0.21597,0.29554 0.32396,0.51436 0.32396,0.65645c0,0.15914 -0.06536,0.29554 -0.19608,0.40921c-0.13072,0.10799 -0.27565,0.16198 -0.43479,0.16198c-0.29554,0 -0.58256,-0.20176 -0.86106,-0.6053zM247.80064,176.90958l-1.27879,4.69743c-0.13072,0.4831 -0.26713,0.8298 -0.40921,1.04008c-0.1364,0.21029 -0.37511,0.31544 -0.71612,0.31544c-0.34669,0 -0.5854,-0.1023 -0.71612,-0.30691c-0.13072,-0.21029 -0.26144,-0.57688 -0.39216,-1.09976l-1.29584,-5.2601c-0.07957,-0.23871 -0.11935,-0.47742 -0.11935,-0.71612c0,-0.17619 0.07104,-0.33533 0.21313,-0.47742c0.14209,-0.14777 0.31544,-0.22166 0.52004,-0.22166c0.27281,0 0.45752,0.08241 0.55414,0.24723c0.09662,0.15914 0.19324,0.43763 0.28986,0.83548l1.03156,4.56103l1.14239,-4.27117c0.15346,-0.5854 0.31544,-0.96051 0.48594,-1.12534c0.17051,-0.16482 0.40069,-0.24723 0.69055,-0.24723c0.28418,0 0.50867,0.07957 0.6735,0.23871c0.16482,0.15914 0.32964,0.53709 0.49447,1.13386l1.14239,4.27117l1.03156,-4.56103c0.09094,-0.44331 0.19324,-0.73317 0.30691,-0.86958c0.11367,-0.14209 0.28986,-0.21313 0.52857,-0.21313c0.21029,0 0.38648,0.07388 0.52857,0.22166c0.14209,0.14209 0.21313,0.30407 0.21313,0.48594c0,0.14777 -0.03978,0.38364 -0.11935,0.7076l-1.30437,5.2601c-0.12504,0.5172 -0.25292,0.88095 -0.38364,1.09124c-0.13072,0.21029 -0.36943,0.31544 -0.71612,0.31544c-0.24439,0 -0.45468,-0.07104 -0.63087,-0.21313c-0.17051,-0.14777 -0.33817,-0.52857 -0.50299,-1.14239zM254.39601,174.94877c0.19324,0 0.35806,0.07104 0.49447,0.21313c0.1364,0.14209 0.20461,0.30691 0.20461,0.49447c0,0.19324 -0.0682,0.3609 -0.20461,0.50299c-0.1364,0.1364 -0.30123,0.20461 -0.49447,0.20461c-0.19324,0 -0.3609,-0.0682 -0.50299,-0.20461c-0.1364,-0.14209 -0.20461,-0.30975 -0.20461,-0.50299c0,-0.19324 0.0682,-0.35806 0.20461,-0.49447c0.14209,-0.14209 0.30975,-0.21313 0.50299,-0.21313zM255.12066,178.231v3.52094c0,0.35238 -0.01705,0.59393 -0.05115,0.72465c-0.02842,0.12504 -0.11083,0.23871 -0.24723,0.34101c-0.13072,0.09662 -0.27281,0.14493 -0.42626,0.14493c-0.15346,0 -0.29838,-0.04831 -0.43479,-0.14493c-0.1364,-0.1023 -0.22166,-0.21881 -0.25576,-0.34954c-0.02842,-0.13072 -0.04263,-0.36943 -0.04263,-0.71612v-3.51242c0,-0.31828 0.01137,-0.54278 0.0341,-0.6735c0.02842,-0.1364 0.10799,-0.25576 0.23871,-0.35806c0.13072,-0.10799 0.28133,-0.16198 0.45184,-0.16198c0.17051,0 0.31828,0.04831 0.44331,0.14493c0.12504,0.09094 0.20461,0.21029 0.23871,0.35806c0.0341,0.14209 0.05115,0.36943 0.05115,0.68202zM256.61152,181.75195v-3.72555c0,-0.6536 0.23871,-0.98041 0.71612,-0.98041c0.46037,0 0.69623,0.30123 0.7076,0.90368c0.30123,-0.60245 0.71897,-0.90368 1.25322,-0.90368c0.27849,0 0.56835,0.07388 0.86958,0.22166c0.30123,0.14777 0.45184,0.34954 0.45184,0.6053c0,0.17619 -0.06252,0.32396 -0.18756,0.44331c-0.11935,0.11367 -0.24723,0.17051 -0.38364,0.17051c-0.07957,0 -0.22166,-0.03126 -0.42626,-0.09378c-0.20461,-0.06252 -0.37511,-0.09378 -0.51152,-0.09378c-0.34669,0 -0.6053,0.17619 -0.7758,0.52857c-0.17051,0.34669 -0.25576,1.02303 -0.25576,2.02902v0.844c0,0.36943 -0.01705,0.6195 -0.05115,0.75023c-0.02842,0.13072 -0.10799,0.25008 -0.23871,0.35806c-0.12504,0.1023 -0.26997,0.15346 -0.43479,0.15346c-0.16482,0 -0.31259,-0.04831 -0.44331,-0.14493c-0.12504,-0.09662 -0.20461,-0.20745 -0.23871,-0.33249c-0.0341,-0.13072 -0.05115,-0.37511 -0.05115,-0.73317zM262.13271,174.94877c0.19324,0 0.35806,0.07104 0.49447,0.21313c0.1364,0.14209 0.20461,0.30691 0.20461,0.49447c0,0.19324 -0.0682,0.3609 -0.20461,0.50299c-0.1364,0.1364 -0.30123,0.20461 -0.49447,0.20461c-0.19324,0 -0.3609,-0.0682 -0.50299,-0.20461c-0.1364,-0.14209 -0.20461,-0.30975 -0.20461,-0.50299c0,-0.19324 0.0682,-0.35806 0.20461,-0.49447c0.14209,-0.14209 0.30975,-0.21313 0.50299,-0.21313zM262.85735,178.231v3.52094c0,0.35238 -0.01705,0.59393 -0.05115,0.72465c-0.02842,0.12504 -0.11083,0.23871 -0.24723,0.34101c-0.13072,0.09662 -0.27281,0.14493 -0.42626,0.14493c-0.15346,0 -0.29838,-0.04831 -0.43479,-0.14493c-0.1364,-0.1023 -0.22166,-0.21881 -0.25576,-0.34954c-0.02842,-0.13072 -0.04263,-0.36943 -0.04263,-0.71612v-3.51242c0,-0.31828 0.01137,-0.54278 0.0341,-0.6735c0.02842,-0.1364 0.10799,-0.25576 0.23871,-0.35806c0.13072,-0.10799 0.28133,-0.16198 0.45184,-0.16198c0.17051,0 0.31828,0.04831 0.44331,0.14493c0.12504,0.09094 0.20461,0.21029 0.23871,0.35806c0.0341,0.14209 0.05115,0.36943 0.05115,0.68202zM269.48896,179.36487v2.38708c0,0.31259 -0.01421,0.53994 -0.04263,0.68202c-0.02273,0.1364 -0.09946,0.2586 -0.23018,0.36659c-0.12504,0.10799 -0.27281,0.16198 -0.44331,0.16198c-0.15914,0 -0.30691,-0.04831 -0.44331,-0.14493c-0.13072,-0.09662 -0.21313,-0.21881 -0.24723,-0.36659c-0.0341,-0.15346 -0.05115,-0.38648 -0.05115,-0.69907v-2.08869c0,-0.5854 -0.0881,-0.97757 -0.26428,-1.17649c-0.17051,-0.20461 -0.40921,-0.30691 -0.71612,-0.30691c-0.27281,0 -0.51436,0.07957 -0.72465,0.23871c-0.21029,0.15914 -0.35806,0.3609 -0.44331,0.6053c-0.08525,0.23871 -0.12788,0.64792 -0.12788,1.22764v1.50045c0,0.30691 -0.01137,0.53141 -0.0341,0.6735c-0.02273,0.1364 -0.09946,0.26144 -0.23018,0.37511c-0.13072,0.10799 -0.28133,0.16198 -0.45184,0.16198c-0.16482,0 -0.31544,-0.04831 -0.45184,-0.14493c-0.13072,-0.1023 -0.21029,-0.2245 -0.23871,-0.36659c-0.02842,-0.14777 -0.04263,-0.3808 -0.04263,-0.69907v-3.58062c0,-0.32396 0.01421,-0.54846 0.04263,-0.6735c0.0341,-0.13072 0.11083,-0.23871 0.23018,-0.32396c0.12504,-0.08525 0.26428,-0.12788 0.41774,-0.12788c0.14209,0 0.28986,0.05683 0.44331,0.17051c0.15346,0.10799 0.23018,0.37796 0.23018,0.8099c0.48878,-0.6536 1.11397,-0.98041 1.87556,-0.98041c0.28986,0 0.57688,0.05683 0.86105,0.17051c0.28418,0.10799 0.51436,0.28418 0.69055,0.52857c0.18187,0.24439 0.2927,0.50015 0.33249,0.76728c0.03978,0.26713 0.05968,0.5513 0.05968,0.85253zM274.93768,178.03492v-0.19608c0,-0.26144 0.06252,-0.45752 0.18756,-0.58824c0.13072,-0.1364 0.29554,-0.20461 0.49447,-0.20461c0.22166,0 0.39216,0.07673 0.51152,0.23018c0.11935,0.15346 0.17903,0.48594 0.17903,0.99746v3.90458c0,1.15944 -0.24439,1.93808 -0.73317,2.33593c-0.48878,0.40353 -1.19354,0.6053 -2.11427,0.6053c-0.8298,0 -1.47772,-0.15346 -1.94376,-0.46037c-0.46605,-0.30691 -0.69907,-0.63087 -0.69907,-0.97188c0,-0.18187 0.05968,-0.32964 0.17903,-0.44331c0.12504,-0.11367 0.27281,-0.17051 0.44331,-0.17051c0.15346,0 0.27281,0.03694 0.35806,0.11083c0.09094,0.07388 0.24439,0.24723 0.46037,0.52004c0.22166,0.27281 0.58824,0.40921 1.09976,0.40921c0.28418,0 0.54846,-0.04547 0.79285,-0.1364c0.24439,-0.08525 0.42342,-0.24155 0.53709,-0.46889c0.11935,-0.22166 0.17335,-0.77012 0.16198,-1.64538c-0.44331,0.64224 -1.04861,0.96336 -1.81589,0.96336c-0.74454,0 -1.33279,-0.27849 -1.76473,-0.83548c-0.43195,-0.55699 -0.64792,-1.26742 -0.64792,-2.13132c0,-0.8639 0.22166,-1.54876 0.66497,-2.05459c0.44331,-0.50583 1.02019,-0.75875 1.73063,-0.75875c0.77864,0 1.41804,0.32964 1.91819,0.98893zM272.09876,179.97869c0,0.56267 0.1222,0.99178 0.36659,1.28732c0.24439,0.29554 0.58256,0.44331 1.01451,0.44331c0.37511,0 0.69623,-0.14209 0.96336,-0.42626c0.27281,-0.28986 0.40921,-0.72181 0.40921,-1.29584c0,-0.56267 -0.12504,-1.00883 -0.37511,-1.33847c-0.25008,-0.32964 -0.58824,-0.49447 -1.01451,-0.49447c-0.4149,0 -0.74738,0.1563 -0.99746,0.46889c-0.24439,0.30691 -0.36659,0.75875 -0.36659,1.35552zM283.35214,185.11943c-0.26144,0 -0.46037,-0.05115 -0.59677,-0.15346c-0.1364,-0.09662 -0.36943,-0.41206 -0.69907,-0.94631c-0.32964,-0.53425 -0.59961,-1.1566 -0.8099,-1.86704c-0.21029,-0.71044 -0.31544,-1.42657 -0.31544,-2.14837c0,-0.78433 0.11935,-1.5516 0.35806,-2.30183c0.23871,-0.75591 0.5172,-1.37825 0.83548,-1.86704c0.32396,-0.48878 0.54562,-0.77012 0.66497,-0.844c0.12504,-0.07388 0.31259,-0.11083 0.56267,-0.11083c0.15914,0 0.23871,0.04547 0.23871,0.1364c0,0.0341 -0.11651,0.29838 -0.34954,0.79285c-0.23303,0.49447 -0.44616,1.14239 -0.6394,1.94376c-0.19324,0.80138 -0.28986,1.5516 -0.28986,2.25068c0,0.70476 0.09662,1.46351 0.28986,2.27625c0.19324,0.80706 0.40637,1.44362 0.6394,1.90966c0.23303,0.46605 0.34954,0.73317 0.34954,0.80138c0,0.08525 -0.07957,0.12788 -0.23871,0.12788zM288.83496,178.55496c0.83548,0.44331 1.25322,1.08271 1.25322,1.91819c0,0.65929 -0.2586,1.23901 -0.7758,1.73916c-0.51152,0.50015 -1.18217,0.75023 -2.01197,0.75023c-0.83548,0 -1.48624,-0.2586 -1.95229,-0.7758c-0.46037,-0.5172 -0.69055,-0.98041 -0.69055,-1.38962c0,-0.17619 0.06252,-0.3268 0.18756,-0.45184c0.13072,-0.12504 0.2927,-0.18756 0.48594,-0.18756c0.12504,0 0.23587,0.03694 0.33249,0.11083c0.1023,0.0682 0.19892,0.23018 0.28986,0.48594c0.26144,0.76728 0.71044,1.15091 1.34699,1.15091c0.33533,0 0.64224,-0.1222 0.92073,-0.36659c0.27849,-0.25008 0.41774,-0.59109 0.41774,-1.02303c0,-0.40353 -0.11367,-0.72465 -0.34101,-0.96336c-0.22166,-0.23871 -0.52289,-0.35806 -0.90368,-0.35806l-0.68202,0.04263c-0.38648,0 -0.57972,-0.18187 -0.57972,-0.54562c0,-0.38648 0.23871,-0.57972 0.71612,-0.57972c0.59109,0 0.98041,-0.11367 1.16796,-0.34101c0.19324,-0.22734 0.28986,-0.47173 0.28986,-0.73317c0,-0.29554 -0.09662,-0.53994 -0.28986,-0.73317c-0.18756,-0.19324 -0.44047,-0.28986 -0.75875,-0.28986c-0.57404,0 -0.96336,0.28702 -1.16796,0.86105c-0.13072,0.34101 -0.33249,0.51152 -0.6053,0.51152c-0.18187,0 -0.32964,-0.05683 -0.44331,-0.17051c-0.10799,-0.11935 -0.16198,-0.26428 -0.16198,-0.43479c0,-0.40921 0.23018,-0.81274 0.69055,-1.21059c0.46037,-0.40353 1.05998,-0.6053 1.79884,-0.6053c0.72181,0 1.29584,0.18471 1.72211,0.55414c0.42626,0.36943 0.6394,0.8298 0.6394,1.3811c0,0.63655 -0.29838,1.18786 -0.89515,1.65391zM290.85226,181.87983l1.50045,-6.14673c0.07388,-0.34101 0.14493,-0.56835 0.21313,-0.68202c0.07388,-0.11367 0.21029,-0.17051 0.40921,-0.17051c0.36943,0 0.55414,0.15346 0.55414,0.46037c0,0.11367 -0.03694,0.32112 -0.11083,0.62235l-1.49192,6.14673c-0.0682,0.32964 -0.14209,0.55414 -0.22166,0.6735c-0.07388,0.11935 -0.20745,0.17903 -0.40069,0.17903c-0.36943,0 -0.55414,-0.15346 -0.55414,-0.46037c0,-0.11935 0.0341,-0.3268 0.1023,-0.62235zM298.38328,178.55496c0.83548,0.44331 1.25322,1.08271 1.25322,1.91819c0,0.65929 -0.2586,1.23901 -0.7758,1.73916c-0.51152,0.50015 -1.18217,0.75023 -2.01197,0.75023c-0.83548,0 -1.48624,-0.2586 -1.95229,-0.7758c-0.46037,-0.5172 -0.69055,-0.98041 -0.69055,-1.38962c0,-0.17619 0.06252,-0.3268 0.18756,-0.45184c0.13072,-0.12504 0.2927,-0.18756 0.48594,-0.18756c0.12504,0 0.23587,0.03694 0.33249,0.11083c0.1023,0.0682 0.19892,0.23018 0.28986,0.48594c0.26144,0.76728 0.71044,1.15091 1.34699,1.15091c0.33533,0 0.64224,-0.1222 0.92073,-0.36659c0.27849,-0.25008 0.41774,-0.59109 0.41774,-1.02303c0,-0.40353 -0.11367,-0.72465 -0.34101,-0.96336c-0.22166,-0.23871 -0.52289,-0.35806 -0.90368,-0.35806l-0.68202,0.04263c-0.38648,0 -0.57972,-0.18187 -0.57972,-0.54562c0,-0.38648 0.23871,-0.57972 0.71612,-0.57972c0.59109,0 0.98041,-0.11367 1.16796,-0.34101c0.19324,-0.22734 0.28986,-0.47173 0.28986,-0.73317c0,-0.29554 -0.09662,-0.53994 -0.28986,-0.73317c-0.18756,-0.19324 -0.44047,-0.28986 -0.75875,-0.28986c-0.57404,0 -0.96336,0.28702 -1.16796,0.86105c-0.13072,0.34101 -0.33249,0.51152 -0.6053,0.51152c-0.18187,0 -0.32964,-0.05683 -0.44331,-0.17051c-0.10799,-0.11935 -0.16198,-0.26428 -0.16198,-0.43479c0,-0.40921 0.23018,-0.81274 0.69055,-1.21059c0.46037,-0.40353 1.05998,-0.6053 1.79884,-0.6053c0.72181,0 1.29584,0.18471 1.72211,0.55414c0.42626,0.36943 0.6394,0.8298 0.6394,1.3811c0,0.63655 -0.29838,1.18786 -0.89515,1.65391zM300.92914,174.88057c0.25576,0 0.45184,0.04831 0.58824,0.14493c0.1364,0.09662 0.36943,0.4149 0.69907,0.95483c0.32964,0.53994 0.59961,1.16512 0.8099,1.87556c0.21029,0.70476 0.31544,1.42088 0.31544,2.14837c0,0.77864 -0.11935,1.54592 -0.35806,2.30183c-0.23871,0.75023 -0.52004,1.36973 -0.844,1.85851c-0.31828,0.48878 -0.53994,0.77012 -0.66497,0.844c-0.11935,0.07388 -0.30123,0.11083 -0.54562,0.11083c-0.15914,0 -0.23871,-0.04263 -0.23871,-0.12788c0,-0.03978 0.11367,-0.30691 0.34101,-0.80138c0.23303,-0.49447 0.44616,-1.14239 0.6394,-1.94376c0.19892,-0.80138 0.29838,-1.54876 0.29838,-2.24215c0,-0.71044 -0.09946,-1.46919 -0.29838,-2.27625c-0.19324,-0.81274 -0.40637,-1.45214 -0.6394,-1.91819c-0.22734,-0.46605 -0.34101,-0.73033 -0.34101,-0.79285c0,-0.09094 0.07957,-0.1364 0.23871,-0.1364z"/></g></g></svg>