<svg version="1.1" xmlns="http://www.w3.org/2000/svg" xmlns:xlink="http://www.w3.org/1999/xlink" width="112" height="87" viewBox="0,0,112,87"><defs><linearGradient x1="240" y1="169.37503" x2="240" y2="190.62503" gradientUnits="userSpaceOnUse" id="color-1"><stop offset="0" stop-color="#add6c0"/><stop offset="1" stop-color="#b0d6be"/></linearGradient></defs><g transform="translate(-183.5,-137.17232)"><g data-paper-data="{&quot;isPaintingLayer&quot;:true}" fill-rule="nonzero" stroke-linejoin="miter" stroke-miterlimit="10" stroke-dasharray="" stroke-dashoffset="0" style="mix-blend-mode: normal"><path d="M183.5,224.17233v-87h112v87z" fill="none" stroke="none" stroke-width="NaN" stroke-linecap="butt"/><path d="M229.5,188.45001c0,-4.57601 0,-14.96929 0,-17.3c0,-0.90893 0.8813,-1.775 1.8,-1.775c2.34726,0 12.77216,0 17.2,0c1.23222,0 2,0.92159 2,1.875c0,2.38672 0,12.80631 0,17.3c0,1.27665 -1.16479,2.075 -2.3,2.075c-2.57565,0 -12.69226,0 -16.8,0c-1.05464,0 -1.9,-0.8399 -1.9,-2.175z" fill="none" stroke="#eaf1f9" stroke-width="5" stroke-linecap="butt"/><path d="M229.5,188.45c0,-4.57601 0,-14.96929 0,-17.3c0,-0.90893 0.8813,-1.775 1.8,-1.775c2.34726,0 12.77216,0 17.2,0c1.23222,0 2,0.92159 2,1.875c0,2.38672 0,12.80631 0,17.3c0,1.27665 -1.16479,2.075 -2.3,2.075c-2.57565,0 -12.69226,0 -16.8,0c-1.05464,0 -1.9,-0.8399 -1.9,-2.175z" fill="url(#color-1)" stroke="#45665a" stroke-width="1.5" stroke-linecap="butt"/><path d="M249.9,172.35003c0,0 -3.61772,2.80519 -5.97277,5.62227c-2.61231,3.12482 -3.97992,6.11231 -4.76746,7.65722c-0.23038,0.45192 -0.69836,0.32691 -1.18523,-0.2227c-0.75427,-0.85146 -1.86441,-2.07735 -2.62278,-2.79416c-1.18186,-1.1171 -3.85177,-3.36263 -3.85177,-3.36263" fill="none" stroke="#3b9454" stroke-width="2.5" stroke-linecap="round"/><path d="M229.5,188.45c0,-4.57601 0,-14.96929 0,-17.3c0,-0.90893 0.8813,-1.775 1.8,-1.775c2.34726,0 12.77216,0 17.2,0c1.23222,0 2,0.92159 2,1.875c0,2.38672 0,12.80631 0,17.3c0,1.27665 -1.16479,2.075 -2.3,2.075c-2.57565,0 -12.69226,0 -16.8,0c-1.05464,0 -1.9,-0.8399 -1.9,-2.175z" fill="none" stroke="#45665a" stroke-width="1.5" stroke-linecap="butt"/></g></g></svg>