<svg version="1.1" xmlns="http://www.w3.org/2000/svg" xmlns:xlink="http://www.w3.org/1999/xlink" width="119.51375" height="10.2646" viewBox="0,0,119.51375,10.2646"><g transform="translate(-180.24312,-174.8677)"><g data-paper-data="{&quot;isPaintingLayer&quot;:true}" fill="#f1ff00" fill-rule="nonzero" stroke="none" stroke-width="1" stroke-linecap="square" stroke-linejoin="miter" stroke-miterlimit="10" stroke-dasharray="" stroke-dashoffset="0" style="mix-blend-mode: normal"><path d="M185.43097,180.98715h-3.17937l-0.36751,0.98287c-0.15384,0.39884 -0.28204,0.66665 -0.3846,0.80339c-0.10256,0.13105 -0.27065,0.19657 -0.50426,0.19657c-0.21081,0 -0.3903,-0.07407 -0.53844,-0.22222c-0.14245,-0.14814 -0.21367,-0.30768 -0.21367,-0.47861c0,-0.18233 0.07122,-0.45867 0.21367,-0.82903l2.01702,-5.08528c0.17663,-0.45583 0.30768,-0.76351 0.39315,-0.92305c0.08546,-0.15954 0.21366,-0.29344 0.3846,-0.4017c0.17094,-0.10826 0.36466,-0.16239 0.58118,-0.16239c0.25071,0 0.47007,0.06838 0.6581,0.20512c0.19373,0.13105 0.34472,0.33332 0.45297,0.60681l2.3247,5.71774c0.14814,0.39315 0.22221,0.67519 0.22221,0.84613c0,0.17663 -0.07407,0.34187 -0.22221,0.49571c-0.14245,0.15384 -0.32477,0.23076 -0.54698,0.23076c-0.23361,0 -0.40455,-0.06553 -0.51281,-0.19657c-0.10256,-0.13674 -0.23361,-0.41309 -0.39314,-0.82903l-0.38461,-0.95723zM182.66184,179.76498h2.35034l-1.19654,-3.2221zM192.53861,182.13241v-0.14529c-0.50141,0.65525 -1.13671,0.98287 -1.90591,0.98287c-0.74071,0 -1.33328,-0.28205 -1.77771,-0.84613c-0.43873,-0.56978 -0.65809,-1.3048 -0.65809,-2.20505c0,-0.84328 0.21366,-1.53271 0.641,-2.0683c0.43304,-0.54129 1.02845,-0.81194 1.78626,-0.81194c0.73502,0 1.37317,0.29629 1.91446,0.88886v-1.88882c0,-0.5242 0.06552,-0.84897 0.19657,-0.97432c0.13675,-0.13105 0.31623,-0.19658 0.53844,-0.19658c0.15954,0 0.30483,0.04558 0.43588,0.13675c0.13105,0.09116 0.21082,0.21081 0.23931,0.35896c0.02849,0.14245 0.04273,0.38175 0.04273,0.71793v5.74337c0,0.32477 -0.01709,0.55838 -0.05128,0.70083c-0.02849,0.13674 -0.1111,0.24501 -0.24785,0.32478c-0.13105,0.07977 -0.27349,0.11965 -0.42733,0.11965c-0.48431,0 -0.72647,-0.2792 -0.72647,-0.83758zM189.67547,179.96155c0,0.65525 0.13675,1.13386 0.41024,1.43585c0.27919,0.30199 0.59542,0.45298 0.94868,0.45298c0.41024,0 0.74926,-0.15669 1.01706,-0.47007c0.27349,-0.31338 0.41024,-0.75211 0.41024,-1.31619c0,-0.58687 -0.13105,-1.05409 -0.39315,-1.40166c-0.2621,-0.34757 -0.61251,-0.52135 -1.05124,-0.52135c-0.39315,0 -0.71507,0.16239 -0.96578,0.48717c-0.2507,0.31907 -0.37605,0.7635 -0.37605,1.33328zM203.65786,179.20089v2.51273c0,0.34757 -0.01425,0.59257 -0.04274,0.73502c-0.02849,0.13674 -0.10541,0.25925 -0.23076,0.3675c-0.12535,0.10256 -0.27634,0.15385 -0.45297,0.15385c-0.17094,0 -0.31907,-0.05129 -0.44442,-0.15385c-0.12535,-0.10256 -0.20513,-0.2279 -0.23931,-0.37605c-0.03418,-0.15384 -0.05128,-0.396 -0.05128,-0.72647v-2.12812c0,-0.62106 -0.07407,-1.01137 -0.22221,-1.1709c-0.14244,-0.15954 -0.34186,-0.2393 -0.59826,-0.2393c-0.2678,0 -0.49571,0.07407 -0.68374,0.22221c-0.18233,0.14814 -0.30768,0.34187 -0.37605,0.58118c-0.06267,0.23931 -0.09401,0.61251 -0.09401,1.11962v1.61532c0,0.34757 -0.01425,0.59542 -0.04274,0.74356c-0.02849,0.14245 -0.10825,0.26495 -0.2393,0.36751c-0.12535,0.09687 -0.27635,0.1453 -0.45298,0.1453c-0.22222,0 -0.39884,-0.07692 -0.52989,-0.23076c-0.12535,-0.15384 -0.18802,-0.49571 -0.18802,-1.0256v-1.99992c0,-0.56978 -0.04274,-0.96863 -0.12821,-1.19654c-0.08546,-0.22791 -0.31052,-0.34186 -0.67518,-0.34186c-0.37036,0 -0.66379,0.11965 -0.88031,0.35896c-0.21652,0.23931 -0.32478,0.74926 -0.32478,1.52986v1.64951c0,0.34187 -0.01139,0.58118 -0.03418,0.71792c-0.02279,0.13105 -0.09971,0.25355 -0.23076,0.36751c-0.12535,0.11396 -0.27349,0.17094 -0.44443,0.17094c-0.16523,0 -0.31623,-0.04843 -0.45298,-0.1453c-0.13105,-0.10256 -0.21367,-0.22507 -0.24786,-0.36751c-0.02849,-0.14245 -0.04273,-0.3903 -0.04273,-0.74356v-3.52978c0,-0.33617 0.01424,-0.56408 0.04273,-0.68374c0.03418,-0.12535 0.11396,-0.23361 0.23931,-0.32477c0.12535,-0.09116 0.2621,-0.13675 0.41024,-0.13675c0.46722,0 0.70083,0.29629 0.70083,0.88886c0.48431,-0.59257 1.07118,-0.88886 1.76062,-0.88886c0.73502,0 1.27061,0.29629 1.60678,0.88886c0.49571,-0.59257 1.07404,-0.88886 1.73498,-0.88886c0.5128,0 0.94868,0.14245 1.30764,0.42733c0.36466,0.27919 0.54699,0.85752 0.54699,1.73498zM205.80735,174.9361c0.19373,0 0.35896,0.07122 0.49571,0.21367c0.13675,0.14245 0.20512,0.30768 0.20512,0.49571c0,0.19373 -0.06838,0.36181 -0.20512,0.50426c-0.13675,0.13674 -0.30199,0.20512 -0.49571,0.20512c-0.19373,0 -0.36181,-0.06838 -0.50425,-0.20512c-0.13675,-0.14245 -0.20512,-0.31053 -0.20512,-0.50426c0,-0.19373 0.06838,-0.35897 0.20512,-0.49571c0.14244,-0.14245 0.31053,-0.21367 0.50425,-0.21367zM206.53382,178.22657v3.52979c0,0.35326 -0.0171,0.59542 -0.05128,0.72646c-0.02849,0.12535 -0.11111,0.23931 -0.24785,0.34187c-0.13105,0.09687 -0.2735,0.1453 -0.42734,0.1453c-0.15384,0 -0.29913,-0.04843 -0.43588,-0.1453c-0.13675,-0.10256 -0.22222,-0.21937 -0.2564,-0.35041c-0.02849,-0.13105 -0.04273,-0.37035 -0.04273,-0.71792v-3.52124c0,-0.31907 0.01139,-0.54414 0.03418,-0.67519c0.02849,-0.13674 0.10826,-0.2564 0.23931,-0.35896c0.13105,-0.10826 0.28204,-0.16239 0.45297,-0.16239c0.17094,0 0.31908,0.04843 0.44443,0.1453c0.12535,0.09116 0.20512,0.21081 0.23931,0.35896c0.03418,0.14245 0.05128,0.37036 0.05128,0.68374zM213.18208,179.36328v2.39308c0,0.31338 -0.01425,0.54129 -0.04274,0.68373c-0.02279,0.13674 -0.09971,0.25925 -0.23076,0.3675c-0.12535,0.10826 -0.27349,0.16239 -0.44442,0.16239c-0.15954,0 -0.30768,-0.04843 -0.44443,-0.1453c-0.13105,-0.09687 -0.21367,-0.21937 -0.24786,-0.36751c-0.03418,-0.15384 -0.05128,-0.38744 -0.05128,-0.70082v-2.09394c0,-0.58687 -0.08831,-0.98002 -0.26494,-1.17945c-0.17094,-0.20512 -0.41024,-0.30768 -0.71792,-0.30768c-0.27349,0 -0.51565,0.07977 -0.72647,0.2393c-0.21081,0.15954 -0.35896,0.36181 -0.44443,0.60682c-0.08546,0.23931 -0.1282,0.64955 -0.1282,1.23073v1.50422c0,0.30768 -0.01139,0.53274 -0.03418,0.67518c-0.02279,0.13674 -0.09972,0.2621 -0.23077,0.37605c-0.13105,0.10826 -0.28204,0.16239 -0.45297,0.16239c-0.16523,0 -0.31623,-0.04843 -0.45297,-0.1453c-0.13105,-0.10256 -0.21082,-0.22507 -0.23931,-0.36751c-0.02849,-0.14814 -0.04274,-0.38175 -0.04274,-0.70082v-3.58962c0,-0.32477 0.01425,-0.54984 0.04274,-0.67518c0.03418,-0.13105 0.1111,-0.23931 0.23076,-0.32477c0.12535,-0.08546 0.26495,-0.1282 0.41879,-0.1282c0.14244,0 0.29059,0.05698 0.44443,0.17094c0.15384,0.10826 0.23076,0.37891 0.23076,0.81194c0.49001,-0.65525 1.11677,-0.98287 1.88027,-0.98287c0.29059,0 0.57832,0.05698 0.86321,0.17094c0.28489,0.10826 0.51565,0.28489 0.69228,0.52989c0.18233,0.245 0.29344,0.50141 0.33332,0.7692c0.03988,0.2678 0.05983,0.55268 0.05983,0.85467zM215.61041,177.03858c0.21652,0 0.4017,0.07977 0.55554,0.23931c0.15954,0.15384 0.23931,0.33902 0.23931,0.55554c0,0.22222 -0.07977,0.41309 -0.23931,0.57263c-0.15384,0.15954 -0.33902,0.23931 -0.55554,0.23931c-0.22222,0 -0.41309,-0.07977 -0.57263,-0.23931c-0.15954,-0.15954 -0.23931,-0.35041 -0.23931,-0.57263c0,-0.21651 0.07977,-0.4017 0.23931,-0.55554c0.15954,-0.15954 0.35041,-0.23931 0.57263,-0.23931zM215.61041,181.35466c0.21652,0 0.4017,0.07977 0.55554,0.23931c0.15954,0.15384 0.23931,0.34187 0.23931,0.56408c0,0.21651 -0.07977,0.40739 -0.23931,0.57263c-0.15384,0.15954 -0.33902,0.23931 -0.55554,0.23931c-0.22222,0 -0.41309,-0.07978 -0.57263,-0.23931c-0.15954,-0.15954 -0.23931,-0.35041 -0.23931,-0.57263c0,-0.22222 0.07977,-0.41024 0.23931,-0.56408c0.15954,-0.15954 0.35041,-0.23931 0.57263,-0.23931zM222.9659,176.22665v1.99993h2.35889c0.27919,0 0.47007,0.01424 0.57263,0.04273c0.10825,0.02849 0.20227,0.09687 0.28204,0.20512c0.08546,0.10826 0.1282,0.22506 0.1282,0.35041c0,0.16523 -0.06268,0.31053 -0.18803,0.43588c-0.11965,0.12535 -0.3846,0.18803 -0.79484,0.18803h-2.35889v2.20505c0,0.31907 -0.01424,0.55554 -0.04273,0.70938c-0.02279,0.15384 -0.09401,0.29344 -0.21367,0.41879c-0.11396,0.12535 -0.29344,0.18803 -0.53844,0.18803c-0.23931,0 -0.41879,-0.06268 -0.53844,-0.18803c-0.11396,-0.12535 -0.18517,-0.2678 -0.21366,-0.42733c-0.02279,-0.16523 -0.03419,-0.39884 -0.03419,-0.70083v-5.32459c0,-0.56978 0.03989,-0.89455 0.11966,-0.97432c0.08546,-0.07977 0.17663,-0.15669 0.27349,-0.23076c0.10256,-0.07977 0.41309,-0.11965 0.93159,-0.11965h3.11954c0.27349,0 0.46722,0.0114 0.58118,0.03419c0.11396,0.0171 0.21367,0.07977 0.29913,0.18803c0.09117,0.10826 0.13675,0.23645 0.13675,0.3846c0,0.14814 -0.04558,0.27634 -0.13675,0.3846c-0.08546,0.10826 -0.18518,0.17379 -0.29913,0.19657c-0.11396,0.02279 -0.30768,0.03419 -0.58118,0.03419zM228.51484,174.9361c0.19373,0 0.35896,0.07122 0.49571,0.21367c0.13675,0.14245 0.20512,0.30768 0.20512,0.49571c0,0.19373 -0.06837,0.36181 -0.20512,0.50426c-0.13675,0.13674 -0.30199,0.20512 -0.49571,0.20512c-0.19373,0 -0.36181,-0.06838 -0.50426,-0.20512c-0.13675,-0.14245 -0.20512,-0.31053 -0.20512,-0.50426c0,-0.19373 0.06837,-0.35897 0.20512,-0.49571c0.14244,-0.14245 0.31053,-0.21367 0.50426,-0.21367zM229.24131,178.22657v3.52979c0,0.35326 -0.0171,0.59542 -0.05128,0.72646c-0.02849,0.12535 -0.11111,0.23931 -0.24786,0.34187c-0.13105,0.09687 -0.27349,0.1453 -0.42733,0.1453c-0.15384,0 -0.29913,-0.04843 -0.43588,-0.1453c-0.13675,-0.10256 -0.22222,-0.21937 -0.2564,-0.35041c-0.02849,-0.13105 -0.04274,-0.37035 -0.04274,-0.71792v-3.52124c0,-0.31907 0.0114,-0.54414 0.03419,-0.67519c0.02849,-0.13674 0.10826,-0.2564 0.23931,-0.35896c0.13105,-0.10826 0.28204,-0.16239 0.45298,-0.16239c0.17094,0 0.31907,0.04843 0.44442,0.1453c0.12535,0.09116 0.20513,0.21081 0.23931,0.35896c0.03418,0.14245 0.05128,0.37036 0.05128,0.68374zM232.8384,180.81622l-1.06834,1.54695c-0.19373,0.2678 -0.34756,0.43588 -0.46152,0.50426c-0.11396,0.06838 -0.23646,0.10256 -0.36751,0.10256c-0.18233,0 -0.33902,-0.05698 -0.47007,-0.17094c-0.12535,-0.11396 -0.18803,-0.245 -0.18803,-0.39315c0,-0.16523 0.09971,-0.38745 0.29913,-0.66664l1.32474,-1.88882l-1.1709,-1.58114c-0.20512,-0.2678 -0.30768,-0.48716 -0.30768,-0.6581c0,-0.16523 0.05983,-0.30199 0.17948,-0.41024c0.12535,-0.10826 0.28773,-0.16239 0.48716,-0.16239c0.17094,0 0.31054,0.04558 0.41879,0.13675c0.10825,0.09116 0.23931,0.245 0.39315,0.46152l0.93158,1.29056l0.93159,-1.29056c0.19373,-0.27349 0.34757,-0.44158 0.46152,-0.50426c0.11396,-0.06268 0.23646,-0.09401 0.36751,-0.09401c0.18802,0 0.34472,0.05413 0.47007,0.16239c0.12535,0.10826 0.18803,0.23646 0.18803,0.3846c0,0.17093 -0.10541,0.39885 -0.31623,0.68374l-1.1709,1.58114l1.30764,1.88882c0.21652,0.29629 0.32478,0.51565 0.32478,0.6581c0,0.15954 -0.06552,0.29628 -0.19657,0.41024c-0.13105,0.10826 -0.27634,0.16239 -0.43588,0.16239c-0.29628,0 -0.58402,-0.20227 -0.86321,-0.60682zM244.07624,176.90183l-1.282,4.70923c-0.13105,0.48431 -0.2678,0.83188 -0.41024,1.0427c-0.13675,0.21081 -0.37606,0.31623 -0.71793,0.31623c-0.34757,0 -0.58687,-0.10256 -0.71792,-0.30768c-0.13105,-0.21081 -0.2621,-0.57832 -0.39315,-1.10252l-1.29909,-5.27331c-0.07977,-0.23931 -0.11966,-0.47861 -0.11966,-0.71792c0,-0.17663 0.07122,-0.33617 0.21367,-0.47862c0.14244,-0.14814 0.31623,-0.22222 0.52135,-0.22222c0.27349,0 0.45867,0.08262 0.55554,0.24786c0.09686,0.15954 0.19373,0.43873 0.29059,0.83757l1.03414,4.57248l1.14527,-4.28189c0.15384,-0.58687 0.31623,-0.96293 0.48716,-1.12816c0.17094,-0.16523 0.4017,-0.24786 0.69228,-0.24786c0.28489,0 0.50995,0.07977 0.67518,0.23931c0.16523,0.15954 0.33048,0.53844 0.49571,1.13671l1.14525,4.28189l1.03415,-4.57248c0.09117,-0.44443 0.19373,-0.73502 0.30768,-0.87176c0.11396,-0.14245 0.29059,-0.21367 0.52989,-0.21367c0.21081,0 0.38745,0.07407 0.5299,0.22222c0.14244,0.14245 0.21367,0.30483 0.21367,0.48716c0,0.14814 -0.03988,0.3846 -0.11965,0.70937l-1.30765,5.27331c-0.12535,0.5185 -0.25355,0.88316 -0.3846,1.09398c-0.13105,0.21081 -0.37036,0.31623 -0.71792,0.31623c-0.24501,0 -0.45582,-0.07122 -0.63245,-0.21367c-0.17094,-0.14814 -0.33902,-0.52989 -0.50426,-1.14525zM250.68817,174.9361c0.19373,0 0.35896,0.07122 0.49571,0.21367c0.13675,0.14245 0.20512,0.30768 0.20512,0.49571c0,0.19373 -0.06838,0.36181 -0.20512,0.50426c-0.13675,0.13674 -0.30198,0.20512 -0.49571,0.20512c-0.19373,0 -0.36181,-0.06838 -0.50426,-0.20512c-0.13675,-0.14245 -0.20512,-0.31053 -0.20512,-0.50426c0,-0.19373 0.06838,-0.35897 0.20512,-0.49571c0.14244,-0.14245 0.31053,-0.21367 0.50426,-0.21367zM251.41464,178.22657v3.52979c0,0.35326 -0.01709,0.59542 -0.05128,0.72646c-0.02849,0.12535 -0.11111,0.23931 -0.24786,0.34187c-0.13105,0.09687 -0.27349,0.1453 -0.42733,0.1453c-0.15384,0 -0.29914,-0.04843 -0.43588,-0.1453c-0.13675,-0.10256 -0.22222,-0.21937 -0.2564,-0.35041c-0.02849,-0.13105 -0.04273,-0.37035 -0.04273,-0.71792v-3.52124c0,-0.31907 0.0114,-0.54414 0.03419,-0.67519c0.02849,-0.13674 0.10825,-0.2564 0.23931,-0.35896c0.13105,-0.10826 0.28204,-0.16239 0.45297,-0.16239c0.17094,0 0.31908,0.04843 0.44443,0.1453c0.12535,0.09116 0.20512,0.21081 0.23931,0.35896c0.03418,0.14245 0.05128,0.37036 0.05128,0.68374zM252.90924,181.75636v-3.7349c0,-0.65525 0.23931,-0.98287 0.71792,-0.98287c0.46152,0 0.69798,0.30199 0.70937,0.90595c0.30199,-0.60396 0.72077,-0.90595 1.25636,-0.90595c0.27919,0 0.56977,0.07407 0.87176,0.22222c0.30199,0.14814 0.45298,0.35041 0.45298,0.60682c0,0.17663 -0.06268,0.32477 -0.18803,0.44442c-0.11965,0.11396 -0.24785,0.17093 -0.3846,0.17093c-0.07977,0 -0.22222,-0.03134 -0.42733,-0.09401c-0.20512,-0.06268 -0.37606,-0.09401 -0.51281,-0.09401c-0.34757,0 -0.60681,0.17663 -0.77775,0.52989c-0.17093,0.34757 -0.2564,1.0256 -0.2564,2.03411v0.84613c0,0.37036 -0.0171,0.62106 -0.05128,0.75211c-0.02849,0.13105 -0.10826,0.2507 -0.23931,0.35896c-0.12535,0.10256 -0.27065,0.15385 -0.43588,0.15385c-0.16523,0 -0.31338,-0.04843 -0.44443,-0.1453c-0.12535,-0.09687 -0.20512,-0.20797 -0.23931,-0.33332c-0.03419,-0.13105 -0.05128,-0.37606 -0.05128,-0.73502zM258.4443,174.9361c0.19373,0 0.35897,0.07122 0.49571,0.21367c0.13674,0.14245 0.20512,0.30768 0.20512,0.49571c0,0.19373 -0.06838,0.36181 -0.20512,0.50426c-0.13674,0.13674 -0.30199,0.20512 -0.49571,0.20512c-0.19373,0 -0.36181,-0.06838 -0.50426,-0.20512c-0.13674,-0.14245 -0.20512,-0.31053 -0.20512,-0.50426c0,-0.19373 0.06838,-0.35897 0.20512,-0.49571c0.14245,-0.14245 0.31053,-0.21367 0.50426,-0.21367zM259.17076,178.22657v3.52979c0,0.35326 -0.0171,0.59542 -0.05128,0.72646c-0.02849,0.12535 -0.11111,0.23931 -0.24785,0.34187c-0.13105,0.09687 -0.27349,0.1453 -0.42733,0.1453c-0.15384,0 -0.29914,-0.04843 -0.43588,-0.1453c-0.13674,-0.10256 -0.22222,-0.21937 -0.2564,-0.35041c-0.02849,-0.13105 -0.04273,-0.37035 -0.04273,-0.71792v-3.52124c0,-0.31907 0.0114,-0.54414 0.03419,-0.67519c0.02849,-0.13674 0.10826,-0.2564 0.23931,-0.35896c0.13105,-0.10826 0.28204,-0.16239 0.45298,-0.16239c0.17093,0 0.31907,0.04843 0.44442,0.1453c0.12535,0.09116 0.20512,0.21081 0.23931,0.35896c0.03419,0.14245 0.05128,0.37036 0.05128,0.68374zM265.81901,179.36328v2.39308c0,0.31338 -0.01424,0.54129 -0.04273,0.68373c-0.02279,0.13674 -0.09971,0.25925 -0.23076,0.3675c-0.12535,0.10826 -0.2735,0.16239 -0.44443,0.16239c-0.15954,0 -0.30768,-0.04843 -0.44443,-0.1453c-0.13105,-0.09687 -0.21366,-0.21937 -0.24785,-0.36751c-0.03419,-0.15384 -0.05128,-0.38744 -0.05128,-0.70082v-2.09394c0,-0.58687 -0.08832,-0.98002 -0.26495,-1.17945c-0.17093,-0.20512 -0.41024,-0.30768 -0.71792,-0.30768c-0.27349,0 -0.51566,0.07977 -0.72647,0.2393c-0.21081,0.15954 -0.35896,0.36181 -0.44443,0.60682c-0.08546,0.23931 -0.1282,0.64955 -0.1282,1.23073v1.50422c0,0.30768 -0.01139,0.53274 -0.03418,0.67518c-0.02279,0.13674 -0.09971,0.2621 -0.23076,0.37605c-0.13105,0.10826 -0.28204,0.16239 -0.45298,0.16239c-0.16523,0 -0.31623,-0.04843 -0.45298,-0.1453c-0.13105,-0.10256 -0.21082,-0.22507 -0.23931,-0.36751c-0.02849,-0.14814 -0.04273,-0.38175 -0.04273,-0.70082v-3.58962c0,-0.32477 0.01424,-0.54984 0.04273,-0.67518c0.03419,-0.13105 0.11111,-0.23931 0.23076,-0.32477c0.12535,-0.08546 0.26495,-0.1282 0.41879,-0.1282c0.14245,0 0.29059,0.05698 0.44443,0.17094c0.15384,0.10826 0.23076,0.37891 0.23076,0.81194c0.49001,-0.65525 1.11676,-0.98287 1.88027,-0.98287c0.29059,0 0.57833,0.05698 0.86322,0.17094c0.28489,0.10826 0.51566,0.28489 0.69228,0.52989c0.18233,0.245 0.29343,0.50141 0.33332,0.7692c0.03988,0.2678 0.05982,0.55268 0.05982,0.85467zM271.28143,178.03v-0.19657c0,-0.2621 0.06268,-0.45867 0.18803,-0.58972c0.13105,-0.13674 0.29629,-0.20512 0.49571,-0.20512c0.22222,0 0.39315,0.07692 0.5128,0.23076c0.11965,0.15384 0.17948,0.48716 0.17948,0.99996v3.91438c0,1.16235 -0.245,1.94295 -0.73501,2.3418c-0.49001,0.40455 -1.19654,0.60681 -2.11958,0.60681c-0.83188,0 -1.48143,-0.15384 -1.94864,-0.46152c-0.46722,-0.30768 -0.70083,-0.63245 -0.70083,-0.97432c0,-0.18233 0.05982,-0.33047 0.17948,-0.44442c0.12535,-0.11396 0.2735,-0.17093 0.44443,-0.17093c0.15384,0 0.27349,0.03703 0.35896,0.1111c0.09116,0.07407 0.24501,0.24786 0.46152,0.52135c0.22222,0.27349 0.58972,0.41024 1.10252,0.41024c0.28489,0 0.54984,-0.04558 0.79484,-0.13674c0.245,-0.08546 0.42449,-0.24216 0.53844,-0.47007c0.11965,-0.22222 0.17378,-0.77205 0.16239,-1.64951c-0.44443,0.64385 -1.05124,0.96578 -1.82045,0.96578c-0.74641,0 -1.33613,-0.27919 -1.76916,-0.83757c-0.43303,-0.55838 -0.64955,-1.27061 -0.64955,-2.13667c0,-0.86606 0.22221,-1.55265 0.66664,-2.05975c0.44443,-0.5071 1.02275,-0.76066 1.73497,-0.76066c0.7806,0 1.4216,0.33047 1.92301,0.99142zM268.43539,179.97864c0,0.56408 0.1225,0.99426 0.3675,1.29055c0.245,0.29629 0.58403,0.44443 1.01706,0.44443c0.37606,0 0.69798,-0.14245 0.96577,-0.42733c0.27349,-0.29059 0.41024,-0.72361 0.41024,-1.29909c0,-0.56408 -0.12535,-1.01137 -0.37606,-1.34184c-0.25071,-0.33047 -0.58972,-0.4957 -1.01705,-0.4957c-0.41594,0 -0.74926,0.15669 -0.99997,0.47007c-0.245,0.30768 -0.3675,0.76065 -0.3675,1.35892zM279.71701,185.1323c-0.2621,0 -0.46152,-0.05128 -0.59826,-0.15384c-0.13674,-0.09687 -0.37036,-0.41309 -0.70083,-0.94868c-0.33047,-0.53559 -0.60112,-1.1595 -0.81194,-1.87173c-0.21081,-0.71222 -0.31623,-1.43015 -0.31623,-2.15377c0,-0.78629 0.11966,-1.5555 0.35897,-2.3076c0.23931,-0.7578 0.5185,-1.38171 0.83757,-1.87172c0.32477,-0.49001 0.54699,-0.77205 0.66664,-0.84613c0.12535,-0.07407 0.31338,-0.11111 0.56408,-0.11111c0.15954,0 0.23931,0.04558 0.23931,0.13675c0,0.03419 -0.1168,0.29913 -0.35041,0.79484c-0.23361,0.49571 -0.44727,1.14525 -0.641,1.94864c-0.19373,0.80339 -0.29059,1.5555 -0.29059,2.25633c0,0.70652 0.09687,1.46719 0.29059,2.28197c0.19373,0.80909 0.40739,1.44724 0.641,1.91446c0.23361,0.46722 0.35041,0.73502 0.35041,0.80339c0,0.08546 -0.07977,0.1282 -0.23931,0.1282zM285.02558,175.91042v5.98269c0,0.71792 -0.23931,1.07689 -0.71793,1.07689c-0.16523,0 -0.33047,-0.05414 -0.4957,-0.16239c-0.15954,-0.11396 -0.23931,-0.39884 -0.23931,-0.85467v-4.70922c-0.91164,0.68943 -1.51561,1.03415 -1.8119,1.03415c-0.17093,0 -0.31053,-0.05413 -0.41879,-0.16239c-0.10826,-0.11396 -0.16239,-0.25925 -0.16239,-0.43588c0,-0.13105 0.03988,-0.24216 0.11965,-0.33332c0.07977,-0.09116 0.25356,-0.19657 0.52135,-0.31623c0.89455,-0.43873 1.52131,-0.94014 1.88027,-1.50422c0.15384,-0.23361 0.27065,-0.38745 0.35041,-0.46152c0.07977,-0.07407 0.19373,-0.11111 0.34187,-0.11111c0.42164,0 0.63245,0.31908 0.63245,0.95723zM287.23596,181.88456l1.50422,-6.16217c0.07407,-0.34187 0.14529,-0.56978 0.21366,-0.68373c0.07407,-0.11396 0.21082,-0.17094 0.41025,-0.17094c0.37036,0 0.55553,0.15384 0.55553,0.46152c0,0.11396 -0.03704,0.32192 -0.11111,0.62391l-1.49567,6.16217c-0.06838,0.33047 -0.14245,0.55553 -0.22222,0.67518c-0.07407,0.11965 -0.20797,0.17948 -0.40169,0.17948c-0.37036,0 -0.55554,-0.15384 -0.55554,-0.46152c0,-0.11965 0.03419,-0.32762 0.10256,-0.62391zM294.7859,178.55135c0.83757,0.44443 1.25636,1.08543 1.25636,1.92301c0,0.66094 -0.25925,1.24212 -0.77775,1.74352c-0.5128,0.50141 -1.18514,0.75211 -2.01702,0.75211c-0.83757,0 -1.48997,-0.25925 -1.95719,-0.77775c-0.46152,-0.5185 -0.69228,-0.98287 -0.69228,-1.39311c0,-0.17663 0.06268,-0.32763 0.18803,-0.45298c0.13105,-0.12535 0.29344,-0.18803 0.48716,-0.18803c0.12535,0 0.23645,0.03704 0.33332,0.11111c0.10256,0.06838 0.19943,0.23076 0.29059,0.48716c0.2621,0.7692 0.71222,1.15381 1.35037,1.15381c0.33617,0 0.64386,-0.12251 0.92305,-0.36751c0.27919,-0.25071 0.41879,-0.59258 0.41879,-1.02561c0,-0.40455 -0.11396,-0.72647 -0.34187,-0.96577c-0.22222,-0.23931 -0.5242,-0.35896 -0.90595,-0.35896l-0.68374,0.04273c-0.38745,0 -0.58118,-0.18233 -0.58118,-0.54699c0,-0.38745 0.23931,-0.58118 0.71792,-0.58118c0.59257,0 0.98287,-0.11396 1.1709,-0.34187c0.19373,-0.22791 0.29058,-0.47292 0.29058,-0.73502c0,-0.29629 -0.09686,-0.54129 -0.29058,-0.73502c-0.18803,-0.19373 -0.44158,-0.29058 -0.76065,-0.29058c-0.57548,0 -0.96578,0.28773 -1.1709,0.86321c-0.13105,0.34187 -0.33332,0.5128 -0.60681,0.5128c-0.18233,0 -0.33047,-0.05697 -0.44443,-0.17093c-0.10826,-0.11965 -0.16239,-0.26495 -0.16239,-0.43589c0,-0.41024 0.23076,-0.81479 0.69228,-1.21363c0.46152,-0.40455 1.06264,-0.60682 1.80335,-0.60682c0.72362,0 1.29909,0.18518 1.72643,0.55554c0.42733,0.37036 0.64101,0.83188 0.64101,1.38456c0,0.63815 -0.29913,1.19084 -0.8974,1.65806zM297.33816,174.86772c0.2564,0 0.45298,0.04843 0.58972,0.1453c0.13674,0.09687 0.37036,0.41594 0.70083,0.95723c0.33047,0.54129 0.60112,1.16805 0.81194,1.88027c0.21081,0.70652 0.31623,1.42444 0.31623,2.15376c0,0.7806 -0.11965,1.54981 -0.35896,2.30761c-0.23931,0.75211 -0.52135,1.37317 -0.84613,1.86318c-0.31907,0.49001 -0.54129,0.77205 -0.66664,0.84612c-0.11965,0.07407 -0.30199,0.11111 -0.54699,0.11111c-0.15954,0 -0.23931,-0.04273 -0.23931,-0.1282c0,-0.03988 0.11395,-0.30768 0.34186,-0.80339c0.23361,-0.49571 0.44728,-1.14525 0.64101,-1.94864c0.19942,-0.80339 0.29914,-1.55265 0.29914,-2.24778c0,-0.71222 -0.09971,-1.47288 -0.29914,-2.28196c-0.19373,-0.81479 -0.4074,-1.45579 -0.64101,-1.92301c-0.22791,-0.46722 -0.34186,-0.73217 -0.34186,-0.79484c0,-0.09116 0.07977,-0.13675 0.23931,-0.13675z"/></g></g></svg>