<svg version="1.1" xmlns="http://www.w3.org/2000/svg" xmlns:xlink="http://www.w3.org/1999/xlink" width="684" height="466.9421" viewBox="0,0,684,466.9421"><g transform="translate(16,73.10001)"><g data-paper-data="{&quot;isPaintingLayer&quot;:true}" fill-rule="nonzero" stroke-linecap="butt" stroke-linejoin="miter" stroke-miterlimit="10" stroke-dasharray="" stroke-dashoffset="0" style="mix-blend-mode: normal"><path d="M85.5,3.9v-76h494v76z" fill="#000000" stroke="#000000" stroke-width="2"/><path d="M90.2568,393.8421v-43.54354h484.98498v43.54354z" fill="#000000" stroke="none" stroke-width="0"/><path d="M94.71029,369.16749v-21.19912h474.19075v21.19912z" fill="#000000" stroke="none" stroke-width="0"/><path d="M558.85935,365.82026v-369.31091h18.96763v369.31091z" fill="#000000" stroke="none" stroke-width="0"/><path d="M81.32137,6.55104v-11.15743h499.85284v11.15743z" fill="#000000" stroke="none" stroke-width="0"/><path d="M83.55286,363.58878v-367.07943h27.89357v367.07943z" fill="#000000" stroke="none" stroke-width="NaN"/><path d="M566.5,358.90001h-467.8102l23.39051,-15h428.14803z" data-paper-data="{&quot;index&quot;:null}" fill="#6e7979" stroke="none" stroke-width="0"/><path d="M560.82657,350.08258h-450.7899l12.04364,-6.29108h428.14803z" data-paper-data="{&quot;index&quot;:null}" fill="#859292" stroke="none" stroke-width="0"/><path d="M566.5,358.90001h-467.8102l23.39051,-15c0,0 9.43319,0 20.68984,0c49.95426,0 407.45819,0 407.45819,0z" data-paper-data="{&quot;index&quot;:null}" fill="none" stroke="#000000" stroke-width="3"/><path d="M543.5,342.90001v-327l23,-15v358z" fill="#3f5252" stroke="none" stroke-width="0"/><path d="M543.5,342.90001v-327l5.58223,-3.64058l-0.5835,335.20491z" fill="#73797b" stroke="none" stroke-width="0"/><path d="M543.5,342.9v-327l23,-15v358z" fill="none" stroke="#000000" stroke-width="3"/><path d="M98.6898,0.9h467.8102l-23.39051,15h-428.14803z" fill="#6e7979" stroke="none" stroke-width="0"/><path d="M104.36323,9.71744h450.7899l-12.04364,6.29107h-428.14803z" fill="#859292" stroke="none" stroke-width="0"/><path d="M98.6898,0.9h467.8102l-23.39051,15c0,0 -9.43319,0 -20.68984,0c-49.95426,0 -407.45819,0 -407.45819,0z" fill="none" stroke="#000000" stroke-width="3"/><path d="M121.6898,16.9v327l-23,15v-358z" data-paper-data="{&quot;index&quot;:null}" fill="#3f5252" stroke="none" stroke-width="0"/><path d="M121.6898,16.9v327l-5.58223,3.64058l0.5835,-335.20491z" data-paper-data="{&quot;index&quot;:null}" fill="#73797b" stroke="none" stroke-width="0"/><path d="M121.6898,16.90001v327l-23,15v-358z" data-paper-data="{&quot;index&quot;:null}" fill="none" stroke="#000000" stroke-width="3"/><path d="M-16,370.44444v-390h102v390z" fill="#000000" stroke="none" stroke-width="none"/><path d="M572,376.44444v-392h96v392z" fill="#000000" stroke="none" stroke-width="0"/></g></g></svg>