<svg version="1.1" xmlns="http://www.w3.org/2000/svg" xmlns:xlink="http://www.w3.org/1999/xlink" width="706.21021" height="368" viewBox="0,0,706.21021,368"><g transform="translate(23.10511,4)"><g data-paper-data="{&quot;isPaintingLayer&quot;:true}" fill-rule="nonzero" stroke-linejoin="miter" stroke-miterlimit="10" stroke-dasharray="" stroke-dashoffset="0" style="mix-blend-mode: normal"><path d="M-22.1051,363v-366h704.21021v366z" fill="#000000" stroke="#000000" stroke-width="2" stroke-linecap="butt"/><path d="M170.49101,190.05498h-4.50059c-0.86353,0 -1.47825,-0.02927 -1.84415,-0.08782c-0.3659,-0.05854 -0.6879,-0.22686 -0.96598,-0.50494c-0.27808,-0.27808 -0.4464,-0.57813 -0.50494,-0.90012c-0.05854,-0.33663 -0.08782,-0.9733 -0.08782,-1.91001v-13.30419c0,-1.18552 0.08782,-1.98319 0.26345,-2.393c0.17563,-0.40981 0.46836,-0.68058 0.87816,-0.8123c0.40981,-0.13172 1.16357,-0.19759 2.26127,-0.19759h4.41278c3.38093,0 5.78857,0.92939 7.2229,2.78817c1.43434,1.84415 2.1515,4.28105 2.1515,7.31072c0,3.0443 -0.73912,5.47389 -2.21737,7.28877c-1.47825,1.81487 -3.83465,2.72231 -7.06922,2.72231zM166.64904,173.08445v13.83109h3.11748c1.03916,0 1.96124,-0.11709 2.76622,-0.35127c0.80498,-0.24882 1.52215,-0.87816 2.1515,-1.88805c0.64399,-1.00989 0.96598,-2.56863 0.96598,-4.67623c0,-1.9466 -0.29272,-3.41752 -0.87816,-4.41278c-0.58544,-0.99526 -1.23675,-1.66119 -1.95392,-1.99782c-0.70253,-0.33663 -1.8661,-0.50494 -3.4907,-0.50494zM189.64598,175.17009c2.32714,0 4.15665,0.71717 5.48853,2.1515c1.33188,1.4197 1.99782,3.24189 1.99782,5.46657c0,2.22469 -0.67326,4.05419 -2.01978,5.48853c-1.34652,1.4197 -3.13212,2.12955 -5.3568,2.12955c-2.41495,0 -4.28105,-0.72449 -5.5983,-2.17346c-1.31725,-1.44897 -1.97587,-3.26384 -1.97587,-5.44462c0,-2.22469 0.66594,-4.04688 1.99782,-5.46657c1.33188,-1.43434 3.15407,-2.1515 5.46657,-2.1515zM189.64598,187.61808c1.14161,0 2.04173,-0.42445 2.70036,-1.27334c0.65862,-0.86353 0.98794,-2.04905 0.98794,-3.55657c0,-1.52215 -0.32931,-2.70768 -0.98794,-3.55657c-0.65862,-0.86353 -1.55874,-1.29529 -2.70036,-1.29529c-1.11234,0 -2.00514,0.43176 -2.6784,1.29529c-0.65862,0.86353 -0.98794,2.04905 -0.98794,3.55657c0,1.50751 0.32931,2.69304 0.98794,3.55657c0.65862,0.84889 1.55142,1.27334 2.6784,1.27334zM199.96715,184.82991v-6.58623c0,-0.80498 0.02927,-1.39043 0.08782,-1.75633c0.07318,-0.3659 0.27077,-0.67326 0.59276,-0.92207c0.32199,-0.26345 0.71717,-0.39517 1.18552,-0.39517c0.43908,0 0.81962,0.1244 1.14161,0.37322c0.33663,0.24882 0.54153,0.57813 0.61472,0.98794c0.08782,0.39517 0.13172,0.99526 0.13172,1.80024v5.15922c0,1.68315 0.26345,2.76622 0.79035,3.24921c0.5269,0.46836 1.10503,0.70253 1.73438,0.70253c0.71717,0 1.34652,-0.19759 1.88805,-0.59276c0.55617,-0.40981 0.92939,-0.90012 1.11966,-1.47093c0.19027,-0.58544 0.2854,-1.71974 0.2854,-3.40289v-3.7322c0,-0.79035 0.03659,-1.37579 0.10977,-1.75633c0.08782,-0.38054 0.29272,-0.69521 0.61472,-0.94403c0.33663,-0.24882 0.73181,-0.37322 1.18552,-0.37322c0.42445,0 0.80498,0.1244 1.14161,0.37322c0.33663,0.24882 0.53422,0.55617 0.59276,0.92207c0.07318,0.3659 0.10977,0.95866 0.10977,1.77828v9.26464c0,0.76107 -0.03659,1.30993 -0.10977,1.64656c-0.07318,0.33663 -0.25613,0.62935 -0.54885,0.87816c-0.27808,0.24882 -0.63667,0.37322 -1.07575,0.37322c-1.2148,0 -1.80024,-0.87084 -1.75633,-2.61254c-1.24406,1.7417 -2.89062,2.61254 -4.93968,2.61254c-1.36116,0 -2.5174,-0.40249 -3.46875,-1.20748c-0.95135,-0.81962 -1.42702,-2.27591 -1.42702,-4.36887zM220.45309,187.88153v0.37322c0,1.43434 -0.61472,2.1515 -1.84415,2.1515c-0.48299,0 -0.88548,-0.1244 -1.20748,-0.37322c-0.32199,-0.24882 -0.51958,-0.54885 -0.59276,-0.90012c-0.05854,-0.35127 -0.08782,-0.90744 -0.08782,-1.66851v-14.75316c0,-0.84889 0.03659,-1.46361 0.10977,-1.84415c0.08782,-0.39517 0.30004,-0.70253 0.63667,-0.92207c0.35127,-0.23417 0.72449,-0.35127 1.11966,-0.35127c0.55617,0 1.00257,0.16831 1.3392,0.50494c0.35127,0.32199 0.5269,1.15625 0.5269,2.50277v4.85186c1.40506,-1.52215 3.05162,-2.28323 4.93968,-2.28323c1.9466,0 3.46875,0.69521 4.56646,2.08564c1.09771,1.37579 1.64656,3.14676 1.64656,5.3129c0,2.3125 -0.56349,4.20056 -1.69047,5.66416c-1.12698,1.44897 -2.64913,2.17346 -4.56646,2.17346c-1.96124,0 -3.59315,-0.84158 -4.89577,-2.52472zM220.65068,182.94185c0,1.44897 0.35127,2.57595 1.0538,3.38093c0.70253,0.80498 1.5807,1.20748 2.63449,1.20748c0.90744,0 1.71242,-0.38785 2.41495,-1.16357c0.71717,-0.77571 1.07575,-2.00514 1.07575,-3.68829c0,-1.44897 -0.32199,-2.58327 -0.96598,-3.40289c-0.64399,-0.83426 -1.47825,-1.25138 -2.50277,-1.25138c-1.12698,0 -2.0271,0.4464 -2.70036,1.3392c-0.67326,0.8928 -1.00989,2.08564 -1.00989,3.57852zM237.99717,172.68928v14.59949c0,0.90744 -0.04391,1.52947 -0.13172,1.8661c-0.07318,0.32199 -0.2854,0.61472 -0.63667,0.87816c-0.33663,0.24882 -0.70253,0.37322 -1.09771,0.37322c-0.39517,0 -0.76839,-0.1244 -1.11966,-0.37322c-0.35127,-0.26345 -0.57081,-0.56349 -0.65862,-0.90012c-0.07318,-0.33663 -0.10977,-0.95135 -0.10977,-1.84415v-14.59949c0,-0.92207 0.04391,-1.54411 0.13172,-1.8661c0.08782,-0.33663 0.30004,-0.62204 0.63667,-0.85621c0.33663,-0.24882 0.70253,-0.37322 1.09771,-0.37322c0.45372,0 0.84158,0.13172 1.16357,0.39517c0.33663,0.26345 0.54153,0.57081 0.61472,0.92207c0.07318,0.35127 0.10977,0.94403 0.10977,1.77828zM252.30851,183.71025h-7.35463c0.04391,1.39043 0.42445,2.43691 1.14161,3.13944c0.73181,0.70253 1.60997,1.0538 2.63449,1.0538c1.24406,0 2.42227,-0.54885 3.53461,-1.64656c0.45372,-0.45372 0.78303,-0.73181 0.98794,-0.83426c0.21954,-0.11709 0.46104,-0.17563 0.72449,-0.17563c0.33663,0 0.62204,0.10977 0.85621,0.32931c0.24882,0.20491 0.37322,0.46104 0.37322,0.76839c0,0.84889 -0.57813,1.7417 -1.73437,2.6784c-1.14161,0.92207 -2.70036,1.38311 -4.67623,1.38311c-2.50277,0 -4.40546,-0.70985 -5.70807,-2.12955c-1.28797,-1.4197 -1.93196,-3.24921 -1.93196,-5.48853c0,-2.26859 0.64399,-4.10542 1.93196,-5.51048c1.30261,-1.40506 3.11016,-2.10759 5.42267,-2.10759c2.19541,0 3.8932,0.66594 5.09335,1.99782c1.20016,1.31725 1.80024,2.75158 1.80024,4.30301c0,0.6879 -0.19759,1.23675 -0.59276,1.64656c-0.39517,0.39517 -1.22943,0.59276 -2.50277,0.59276zM244.95388,181.5807h6.82773c-0.04391,-1.24406 -0.38785,-2.19541 -1.03184,-2.85403c-0.64399,-0.65862 -1.43434,-0.98794 -2.37104,-0.98794c-1.9905,0 -3.13212,1.28066 -3.42484,3.84197zM269.75379,179.05597c0,0.48299 0.24882,0.86353 0.74644,1.14161c0.49762,0.27808 1.6246,0.62935 3.38093,1.0538c3.39557,0.83426 5.09335,2.24664 5.09335,4.23714c0,1.59533 -0.57813,2.81745 -1.73437,3.66634c-1.14161,0.83426 -2.73694,1.25138 -4.786,1.25138c-2.09296,0 -3.66634,-0.43176 -4.72013,-1.29529c-1.0538,-0.86353 -1.5807,-1.77828 -1.5807,-2.74426c0,-0.40981 0.14636,-0.76107 0.43908,-1.0538c0.29272,-0.29272 0.6513,-0.43908 1.07575,-0.43908c0.58544,0 1.09771,0.3659 1.53679,1.09771c0.49762,0.80498 1.03916,1.3392 1.6246,1.60265c0.60008,0.26345 1.23675,0.39517 1.91001,0.39517c0.76107,0 1.37579,-0.16831 1.84415,-0.50494c0.46836,-0.33663 0.70253,-0.76107 0.70253,-1.27334c0,-0.46836 -0.19759,-0.87084 -0.59276,-1.20748c-0.39517,-0.33663 -1.48556,-0.70985 -3.27116,-1.11966c-1.77096,-0.40981 -3.06626,-0.98061 -3.88588,-1.71242c-0.81962,-0.74644 -1.22943,-1.6246 -1.22943,-2.63449c0,-1.14161 0.49762,-2.1515 1.49288,-3.02967c0.99526,-0.87816 2.48814,-1.31725 4.47864,-1.31725c1.81487,0 3.25653,0.37322 4.32496,1.11966c1.08307,0.73181 1.6246,1.49288 1.6246,2.28323c0,0.42445 -0.13905,0.78303 -0.41713,1.07575c-0.26345,0.29272 -0.63667,0.43908 -1.11966,0.43908c-0.73181,0 -1.39043,-0.41713 -1.97587,-1.25138c-0.57081,-0.83426 -1.44165,-1.25138 -2.61254,-1.25138c-0.62935,0 -1.1782,0.13172 -1.64656,0.39517c-0.46836,0.24882 -0.70253,0.60739 -0.70253,1.07575zM292.58059,183.71025h-7.35463c0.04391,1.39043 0.42445,2.43691 1.14161,3.13944c0.73181,0.70253 1.60997,1.0538 2.63449,1.0538c1.24406,0 2.42227,-0.54885 3.53461,-1.64656c0.45372,-0.45372 0.78303,-0.73181 0.98794,-0.83426c0.21954,-0.11709 0.46104,-0.17563 0.72449,-0.17563c0.33663,0 0.62204,0.10977 0.85621,0.32931c0.24882,0.20491 0.37322,0.46104 0.37322,0.76839c0,0.84889 -0.57813,1.7417 -1.73438,2.6784c-1.14161,0.92207 -2.70036,1.38311 -4.67623,1.38311c-2.50277,0 -4.40546,-0.70985 -5.70807,-2.12955c-1.28797,-1.4197 -1.93196,-3.24921 -1.93196,-5.48853c0,-2.26859 0.64399,-4.10542 1.93196,-5.51048c1.30261,-1.40506 3.11016,-2.10759 5.42267,-2.10759c2.19541,0 3.8932,0.66594 5.09335,1.99782c1.20016,1.31725 1.80024,2.75158 1.80024,4.30301c0,0.6879 -0.19759,1.23675 -0.59276,1.64656c-0.39517,0.39517 -1.22943,0.59276 -2.50277,0.59276zM285.22596,181.5807h6.82773c-0.04391,-1.24406 -0.38785,-2.19541 -1.03184,-2.85403c-0.64399,-0.65862 -1.43434,-0.98794 -2.37104,-0.98794c-1.9905,0 -3.13212,1.28066 -3.42484,3.84197zM301.68331,179.05597c0,0.48299 0.24882,0.86353 0.74644,1.14161c0.49762,0.27808 1.6246,0.62935 3.38093,1.0538c3.39557,0.83426 5.09335,2.24664 5.09335,4.23714c0,1.59533 -0.57813,2.81745 -1.73438,3.66634c-1.14161,0.83426 -2.73694,1.25138 -4.786,1.25138c-2.09296,0 -3.66634,-0.43176 -4.72013,-1.29529c-1.0538,-0.86353 -1.5807,-1.77828 -1.5807,-2.74426c0,-0.40981 0.14636,-0.76107 0.43908,-1.0538c0.29272,-0.29272 0.6513,-0.43908 1.07575,-0.43908c0.58544,0 1.09771,0.3659 1.53679,1.09771c0.49762,0.80498 1.03916,1.3392 1.6246,1.60265c0.60008,0.26345 1.23675,0.39517 1.91001,0.39517c0.76107,0 1.37579,-0.16831 1.84415,-0.50494c0.46836,-0.33663 0.70253,-0.76107 0.70253,-1.27334c0,-0.46836 -0.19759,-0.87084 -0.59276,-1.20748c-0.39517,-0.33663 -1.48556,-0.70985 -3.27116,-1.11966c-1.77096,-0.40981 -3.06626,-0.98061 -3.88588,-1.71242c-0.81962,-0.74644 -1.22943,-1.6246 -1.22943,-2.63449c0,-1.14161 0.49762,-2.1515 1.49288,-3.02967c0.99526,-0.87816 2.48814,-1.31725 4.47864,-1.31725c1.81487,0 3.25653,0.37322 4.32496,1.11966c1.08307,0.73181 1.6246,1.49288 1.6246,2.28323c0,0.42445 -0.13905,0.78303 -0.41713,1.07575c-0.26345,0.29272 -0.63667,0.43908 -1.11966,0.43908c-0.73181,0 -1.39043,-0.41713 -1.97587,-1.25138c-0.57081,-0.83426 -1.44165,-1.25138 -2.61254,-1.25138c-0.62935,0 -1.1782,0.13172 -1.64656,0.39517c-0.46836,0.24882 -0.70253,0.60739 -0.70253,1.07575zM316.91398,179.05597c0,0.48299 0.24882,0.86353 0.74644,1.14161c0.49762,0.27808 1.6246,0.62935 3.38093,1.0538c3.39557,0.83426 5.09335,2.24664 5.09335,4.23714c0,1.59533 -0.57813,2.81745 -1.73437,3.66634c-1.14161,0.83426 -2.73694,1.25138 -4.786,1.25138c-2.09296,0 -3.66634,-0.43176 -4.72013,-1.29529c-1.0538,-0.86353 -1.5807,-1.77828 -1.5807,-2.74426c0,-0.40981 0.14636,-0.76107 0.43908,-1.0538c0.29272,-0.29272 0.6513,-0.43908 1.07575,-0.43908c0.58544,0 1.09771,0.3659 1.53679,1.09771c0.49762,0.80498 1.03916,1.3392 1.6246,1.60265c0.60008,0.26345 1.23675,0.39517 1.91001,0.39517c0.76107,0 1.37579,-0.16831 1.84415,-0.50494c0.46836,-0.33663 0.70253,-0.76107 0.70253,-1.27334c0,-0.46836 -0.19759,-0.87084 -0.59276,-1.20748c-0.39517,-0.33663 -1.48556,-0.70985 -3.27116,-1.11966c-1.77096,-0.40981 -3.06626,-0.98061 -3.88588,-1.71242c-0.81962,-0.74644 -1.22943,-1.6246 -1.22943,-2.63449c0,-1.14161 0.49762,-2.1515 1.49288,-3.02967c0.99526,-0.87816 2.48814,-1.31725 4.47864,-1.31725c1.81487,0 3.25653,0.37322 4.32496,1.11966c1.08307,0.73181 1.6246,1.49288 1.6246,2.28323c0,0.42445 -0.13905,0.78303 -0.41713,1.07575c-0.26345,0.29272 -0.63667,0.43908 -1.11966,0.43908c-0.73181,0 -1.39043,-0.41713 -1.97587,-1.25138c-0.57081,-0.83426 -1.44165,-1.25138 -2.61254,-1.25138c-0.62935,0 -1.1782,0.13172 -1.64656,0.39517c-0.46836,0.24882 -0.70253,0.60739 -0.70253,1.07575zM331.17866,169.76938c0.49762,0 0.92207,0.18295 1.27334,0.54885c0.35127,0.3659 0.5269,0.79035 0.5269,1.27334c0,0.49762 -0.17563,0.92939 -0.5269,1.29529c-0.35127,0.35127 -0.77571,0.5269 -1.27334,0.5269c-0.49762,0 -0.92939,-0.17563 -1.29529,-0.5269c-0.35127,-0.3659 -0.5269,-0.79767 -0.5269,-1.29529c0,-0.49762 0.17563,-0.92207 0.5269,-1.27334c0.3659,-0.3659 0.79767,-0.54885 1.29529,-0.54885zM333.04476,178.22172v9.06705c0,0.90744 -0.04391,1.52947 -0.13172,1.8661c-0.07318,0.32199 -0.2854,0.61472 -0.63667,0.87816c-0.33663,0.24882 -0.70253,0.37322 -1.09771,0.37322c-0.39517,0 -0.76839,-0.1244 -1.11966,-0.37322c-0.35127,-0.26345 -0.57081,-0.56349 -0.65862,-0.90012c-0.07318,-0.33663 -0.10977,-0.95135 -0.10977,-1.84415v-9.04509c0,-0.81962 0.02927,-1.39774 0.08782,-1.73438c0.07318,-0.35127 0.27808,-0.65862 0.61472,-0.92207c0.33663,-0.27808 0.72449,-0.41713 1.16357,-0.41713c0.43908,0 0.81962,0.1244 1.14161,0.37322c0.32199,0.23417 0.5269,0.54153 0.61472,0.92207c0.08782,0.3659 0.13172,0.95135 0.13172,1.75633zM343.44827,175.17009c2.32714,0 4.15665,0.71717 5.48853,2.1515c1.33188,1.4197 1.99782,3.24189 1.99782,5.46657c0,2.22469 -0.67326,4.05419 -2.01978,5.48853c-1.34652,1.4197 -3.13212,2.12955 -5.3568,2.12955c-2.41495,0 -4.28105,-0.72449 -5.5983,-2.17346c-1.31725,-1.44897 -1.97587,-3.26384 -1.97587,-5.44462c0,-2.22469 0.66594,-4.04688 1.99782,-5.46657c1.33188,-1.43434 3.15407,-2.1515 5.46657,-2.1515zM343.44827,187.61808c1.14161,0 2.04173,-0.42445 2.70036,-1.27334c0.65862,-0.86353 0.98794,-2.04905 0.98794,-3.55657c0,-1.52215 -0.32931,-2.70768 -0.98794,-3.55657c-0.65862,-0.86353 -1.55874,-1.29529 -2.70036,-1.29529c-1.11234,0 -2.00514,0.43176 -2.6784,1.29529c-0.65862,0.86353 -0.98794,2.04905 -0.98794,3.55657c0,1.50751 0.32931,2.69304 0.98794,3.55657c0.65862,0.84889 1.55142,1.27334 2.6784,1.27334zM367.09559,181.14161v6.14715c0,0.80498 -0.03659,1.39043 -0.10977,1.75633c-0.05854,0.35127 -0.25613,0.66594 -0.59276,0.94403c-0.32199,0.27808 -0.70253,0.41713 -1.14161,0.41713c-0.40981,0 -0.79035,-0.1244 -1.14161,-0.37322c-0.33663,-0.24882 -0.54885,-0.56349 -0.63667,-0.94403c-0.08782,-0.39517 -0.13172,-0.99526 -0.13172,-1.80024v-5.37876c0,-1.50751 -0.22686,-2.5174 -0.68058,-3.02967c-0.43908,-0.5269 -1.0538,-0.79035 -1.84415,-0.79035c-0.70253,0 -1.32457,0.20491 -1.8661,0.61472c-0.54153,0.40981 -0.92207,0.92939 -1.14161,1.55874c-0.21954,0.61472 -0.32931,1.66851 -0.32931,3.16139v3.86392c0,0.79035 -0.02927,1.36848 -0.08782,1.73438c-0.05854,0.35127 -0.25613,0.67326 -0.59276,0.96598c-0.33663,0.27808 -0.72449,0.41713 -1.16357,0.41713c-0.42445,0 -0.8123,-0.1244 -1.16357,-0.37322c-0.33663,-0.26345 -0.54153,-0.57813 -0.61472,-0.94403c-0.07318,-0.38054 -0.10977,-0.98061 -0.10977,-1.80024v-9.22073c0,-0.83426 0.03659,-1.41238 0.10977,-1.73437c0.08782,-0.33663 0.2854,-0.61472 0.59276,-0.83426c0.32199,-0.21954 0.68058,-0.32931 1.07575,-0.32931c0.3659,0 0.74644,0.14636 1.14161,0.43908c0.39517,0.27808 0.59276,0.9733 0.59276,2.08564c1.2587,-1.68315 2.86867,-2.52472 4.82991,-2.52472c0.74644,0 1.48556,0.14636 2.21737,0.43908c0.73181,0.27808 1.32457,0.73181 1.77828,1.36116c0.46836,0.62935 0.75376,1.28797 0.85621,1.97587c0.10245,0.6879 0.15368,1.4197 0.15368,2.19541zM389.42567,188.25475v-0.37322c-1.28797,1.68315 -2.9199,2.52472 -4.89577,2.52472c-1.90269,0 -3.42484,-0.72449 -4.56646,-2.17346c-1.12698,-1.46361 -1.69047,-3.35166 -1.69047,-5.66416c0,-2.16614 0.54885,-3.93711 1.64656,-5.3129c1.11234,-1.39043 2.64181,-2.08564 4.58841,-2.08564c1.88805,0 3.52729,0.76107 4.91772,2.28323v-4.85186c0,-1.34652 0.16831,-2.18078 0.50494,-2.50277c0.35127,-0.33663 0.8123,-0.50494 1.38311,-0.50494c0.40981,0 0.78303,0.11709 1.11966,0.35127c0.33663,0.23417 0.54153,0.54153 0.61472,0.92207c0.07318,0.3659 0.10977,0.98061 0.10977,1.84415v14.75316c0,0.83426 -0.04391,1.43434 -0.13172,1.80024c-0.07318,0.35127 -0.2854,0.62935 -0.63667,0.83426c-0.33663,0.20491 -0.70253,0.30736 -1.09771,0.30736c-1.24406,0 -1.8661,-0.71717 -1.8661,-2.1515zM382.07104,182.6784c0,1.68315 0.35127,2.91258 1.0538,3.68829c0.71717,0.77571 1.52947,1.16357 2.43691,1.16357c1.0538,0 1.92464,-0.40249 2.61254,-1.20748c0.70253,-0.80498 1.0538,-1.93196 1.0538,-3.38093c0,-1.50751 -0.33663,-2.70768 -1.00989,-3.60047c-0.67326,-0.8928 -1.57338,-1.3392 -2.70036,-1.3392c-1.00989,0 -1.83683,0.41713 -2.48081,1.25138c-0.64399,0.81962 -0.96598,1.96124 -0.96598,3.42484zM407.2085,183.71025h-7.35463c0.04391,1.39043 0.42445,2.43691 1.14161,3.13944c0.73181,0.70253 1.60997,1.0538 2.63449,1.0538c1.24406,0 2.42227,-0.54885 3.53461,-1.64656c0.45372,-0.45372 0.78303,-0.73181 0.98794,-0.83426c0.21954,-0.11709 0.46104,-0.17563 0.72449,-0.17563c0.33663,0 0.62204,0.10977 0.85621,0.32931c0.24882,0.20491 0.37322,0.46104 0.37322,0.76839c0,0.84889 -0.57813,1.7417 -1.73437,2.6784c-1.14161,0.92207 -2.70036,1.38311 -4.67623,1.38311c-2.50277,0 -4.40546,-0.70985 -5.70807,-2.12955c-1.28797,-1.4197 -1.93196,-3.24921 -1.93196,-5.48853c0,-2.26859 0.64399,-4.10542 1.93196,-5.51048c1.30261,-1.40506 3.11016,-2.10759 5.42267,-2.10759c2.19541,0 3.8932,0.66594 5.09335,1.99782c1.20016,1.31725 1.80024,2.75158 1.80024,4.30301c0,0.6879 -0.19759,1.23675 -0.59276,1.64656c-0.39517,0.39517 -1.22943,0.59276 -2.50277,0.59276zM399.85387,181.5807h6.82773c-0.04391,-1.24406 -0.38785,-2.19541 -1.03184,-2.85403c-0.64399,-0.65862 -1.43434,-0.98794 -2.37104,-0.98794c-1.9905,0 -3.13212,1.28066 -3.42484,3.84197zM414.07191,175.49941v-2.26127c0,-0.92207 0.03659,-1.54411 0.10977,-1.8661c0.08782,-0.33663 0.29272,-0.63667 0.61472,-0.90012c0.32199,-0.26345 0.70253,-0.39517 1.14161,-0.39517c0.40981,0 0.77571,0.11709 1.09771,0.35127c0.32199,0.23417 0.53422,0.5269 0.63667,0.87816c0.10245,0.33663 0.15368,0.88548 0.15368,1.64656v2.54668h0.72449c0.92207,0 1.52947,0.10977 1.82219,0.32931c0.30736,0.21954 0.46104,0.54885 0.46104,0.98794c0,0.92207 -0.76839,1.38311 -2.30518,1.38311h-0.70253v6.91555c0,0.93671 0.06586,1.57338 0.19759,1.91001c0.13172,0.33663 0.48299,0.50494 1.0538,0.50494c0.27808,0 0.58544,-0.03659 0.92207,-0.10977c0.35127,-0.08782 0.60739,-0.13172 0.76839,-0.13172c0.38054,0 0.6879,0.1244 0.92207,0.37322c0.23417,0.24882 0.35127,0.54885 0.35127,0.90012c0,1.22943 -1.29529,1.84415 -3.88588,1.84415c-1.2587,0 -2.18078,-0.23417 -2.76622,-0.70253c-0.58544,-0.46836 -0.95135,-1.03184 -1.09771,-1.69047c-0.14636,-0.67326 -0.21954,-1.55142 -0.21954,-2.63449v-7.179h-0.48299c-1.11234,0 -1.66851,-0.45372 -1.66851,-1.36116c0,-0.8928 0.58544,-1.3392 1.75633,-1.3392zM433.85531,183.71025h-7.35463c0.04391,1.39043 0.42445,2.43691 1.14161,3.13944c0.73181,0.70253 1.60997,1.0538 2.63449,1.0538c1.24406,0 2.42227,-0.54885 3.53461,-1.64656c0.45372,-0.45372 0.78303,-0.73181 0.98794,-0.83426c0.21954,-0.11709 0.46104,-0.17563 0.72449,-0.17563c0.33663,0 0.62204,0.10977 0.85621,0.32931c0.24882,0.20491 0.37322,0.46104 0.37322,0.76839c0,0.84889 -0.57813,1.7417 -1.73438,2.6784c-1.14161,0.92207 -2.70036,1.38311 -4.67623,1.38311c-2.50277,0 -4.40546,-0.70985 -5.70807,-2.12955c-1.28797,-1.4197 -1.93196,-3.24921 -1.93196,-5.48853c0,-2.26859 0.64399,-4.10542 1.93196,-5.51048c1.30261,-1.40506 3.11016,-2.10759 5.42267,-2.10759c2.19541,0 3.8932,0.66594 5.09335,1.99782c1.20016,1.31725 1.80024,2.75158 1.80024,4.30301c0,0.6879 -0.19759,1.23675 -0.59276,1.64656c-0.39517,0.39517 -1.22943,0.59276 -2.50277,0.59276zM426.50068,181.5807h6.82773c-0.04391,-1.24406 -0.38785,-2.19541 -1.03184,-2.85403c-0.64399,-0.65862 -1.43434,-0.98794 -2.37104,-0.98794c-1.9905,0 -3.13212,1.28066 -3.42484,3.84197zM451.95922,184.12737c0.45372,0 0.82694,0.18295 1.11966,0.54885c0.30736,0.35127 0.46104,0.70985 0.46104,1.07575c0,1.02452 -0.60739,2.05637 -1.82219,3.09553c-1.2148,1.03916 -2.84671,1.55874 -4.89577,1.55874c-2.45886,0 -4.31764,-0.69521 -5.57634,-2.08564c-1.24406,-1.40506 -1.8661,-3.22725 -1.8661,-5.46657c0,-2.25395 0.6513,-4.0981 1.95392,-5.53244c1.30261,-1.43434 3.15407,-2.1515 5.55439,-2.1515c1.85878,0 3.39557,0.49031 4.61036,1.47093c1.22943,0.96598 1.84415,1.92464 1.84415,2.87599c0,0.45372 -0.16831,0.83426 -0.50494,1.14161c-0.32199,0.30736 -0.70253,0.46104 -1.14161,0.46104c-0.55617,0 -0.98794,-0.23417 -1.29529,-0.70253c-0.6879,-1.03916 -1.29529,-1.69779 -1.82219,-1.97587c-0.5269,-0.27808 -1.09771,-0.41713 -1.71242,-0.41713c-1.20016,0 -2.12955,0.46104 -2.78817,1.38311c-0.64399,0.90744 -0.96598,2.04905 -0.96598,3.42484c0,1.40506 0.33663,2.554 1.00989,3.4468c0.6879,0.8928 1.60265,1.3392 2.74426,1.3392c0.64399,0 1.23675,-0.15368 1.77828,-0.46104c0.55617,-0.30736 1.03184,-0.76839 1.42702,-1.38311c0.39517,-0.62935 0.70985,-1.06112 0.94403,-1.29529c0.23417,-0.23417 0.54885,-0.35127 0.94403,-0.35127zM457.41756,175.49941v-2.26127c0,-0.92207 0.03659,-1.54411 0.10977,-1.8661c0.08782,-0.33663 0.29272,-0.63667 0.61472,-0.90012c0.32199,-0.26345 0.70253,-0.39517 1.14161,-0.39517c0.40981,0 0.77571,0.11709 1.09771,0.35127c0.32199,0.23417 0.53422,0.5269 0.63667,0.87816c0.10245,0.33663 0.15368,0.88548 0.15368,1.64656v2.54668h0.72449c0.92207,0 1.52947,0.10977 1.82219,0.32931c0.30736,0.21954 0.46104,0.54885 0.46104,0.98794c0,0.92207 -0.76839,1.38311 -2.30518,1.38311h-0.70253v6.91555c0,0.93671 0.06586,1.57338 0.19759,1.91001c0.13172,0.33663 0.48299,0.50494 1.0538,0.50494c0.27808,0 0.58544,-0.03659 0.92207,-0.10977c0.35127,-0.08782 0.60739,-0.13172 0.76839,-0.13172c0.38054,0 0.6879,0.1244 0.92207,0.37322c0.23417,0.24882 0.35127,0.54885 0.35127,0.90012c0,1.22943 -1.29529,1.84415 -3.88588,1.84415c-1.2587,0 -2.18078,-0.23417 -2.76622,-0.70253c-0.58544,-0.46836 -0.95135,-1.03184 -1.09771,-1.69047c-0.14636,-0.67326 -0.21954,-1.55142 -0.21954,-2.63449v-7.179h-0.48299c-1.11234,0 -1.66851,-0.45372 -1.66851,-1.36116c0,-0.8928 0.58544,-1.3392 1.75633,-1.3392zM477.20096,183.71025h-7.35463c0.04391,1.39043 0.42445,2.43691 1.14161,3.13944c0.73181,0.70253 1.60997,1.0538 2.63449,1.0538c1.24406,0 2.42227,-0.54885 3.53461,-1.64656c0.45372,-0.45372 0.78303,-0.73181 0.98794,-0.83426c0.21954,-0.11709 0.46104,-0.17563 0.72449,-0.17563c0.33663,0 0.62204,0.10977 0.85621,0.32931c0.24882,0.20491 0.37322,0.46104 0.37322,0.76839c0,0.84889 -0.57813,1.7417 -1.73437,2.6784c-1.14161,0.92207 -2.70036,1.38311 -4.67623,1.38311c-2.50277,0 -4.40546,-0.70985 -5.70807,-2.12955c-1.28797,-1.4197 -1.93196,-3.24921 -1.93196,-5.48853c0,-2.26859 0.64399,-4.10542 1.93196,-5.51048c1.30261,-1.40506 3.11016,-2.10759 5.42267,-2.10759c2.19541,0 3.8932,0.66594 5.09335,1.99782c1.20016,1.31725 1.80024,2.75158 1.80024,4.30301c0,0.6879 -0.19759,1.23675 -0.59276,1.64656c-0.39517,0.39517 -1.22943,0.59276 -2.50277,0.59276zM469.84634,181.5807h6.82773c-0.04391,-1.24406 -0.38785,-2.19541 -1.03184,-2.85403c-0.64399,-0.65862 -1.43434,-0.98794 -2.37104,-0.98794c-1.9905,0 -3.13212,1.28066 -3.42484,3.84197zM493.68027,188.25475v-0.37322c-1.28797,1.68315 -2.9199,2.52472 -4.89577,2.52472c-1.90269,0 -3.42484,-0.72449 -4.56646,-2.17346c-1.12698,-1.46361 -1.69047,-3.35166 -1.69047,-5.66416c0,-2.16614 0.54885,-3.93711 1.64656,-5.3129c1.11234,-1.39043 2.64181,-2.08564 4.58841,-2.08564c1.88805,0 3.52729,0.76107 4.91772,2.28323v-4.85186c0,-1.34652 0.16831,-2.18078 0.50494,-2.50277c0.35127,-0.33663 0.8123,-0.50494 1.38311,-0.50494c0.40981,0 0.78303,0.11709 1.11966,0.35127c0.33663,0.23417 0.54153,0.54153 0.61472,0.92207c0.07318,0.3659 0.10977,0.98061 0.10977,1.84415v14.75316c0,0.83426 -0.04391,1.43434 -0.13172,1.80024c-0.07318,0.35127 -0.2854,0.62935 -0.63667,0.83426c-0.33663,0.20491 -0.70253,0.30736 -1.09771,0.30736c-1.24406,0 -1.8661,-0.71717 -1.8661,-2.1515zM486.32564,182.6784c0,1.68315 0.35127,2.91258 1.0538,3.68829c0.71717,0.77571 1.52947,1.16357 2.43691,1.16357c1.0538,0 1.92464,-0.40249 2.61254,-1.20748c0.70253,-0.80498 1.0538,-1.93196 1.0538,-3.38093c0,-1.50751 -0.33663,-2.70768 -1.00989,-3.60047c-0.67326,-0.8928 -1.57338,-1.3392 -2.70036,-1.3392c-1.00989,0 -1.83683,0.41713 -2.48081,1.25138c-0.64399,0.81962 -0.96598,1.96124 -0.96598,3.42484z" fill="#c1c1c1" stroke="none" stroke-width="1" stroke-linecap="square"/></g></g></svg>