<svg version="1.1" xmlns="http://www.w3.org/2000/svg" xmlns:xlink="http://www.w3.org/1999/xlink" width="142.87184" height="10.26459" viewBox="0,0,142.87184,10.26459"><g transform="translate(-168.56408,-174.8677)"><g data-paper-data="{&quot;isPaintingLayer&quot;:true}" fill="#f1ff00" fill-rule="nonzero" stroke="none" stroke-width="1" stroke-linecap="square" stroke-linejoin="miter" stroke-miterlimit="10" stroke-dasharray="" stroke-dashoffset="0" style="mix-blend-mode: normal"><path d="M170.1965,176.91038c0,0.22222 0.09401,0.41594 0.28204,0.58117c0.19373,0.16523 0.68373,0.34472 1.47003,0.53844c0.792,0.18802 1.37887,0.3846 1.76062,0.58972c0.38175,0.20512 0.65525,0.47577 0.82048,0.81194c0.17094,0.33617 0.2564,0.68658 0.2564,1.05124c0,0.72932 -0.27635,1.32758 -0.82903,1.7948c-0.55268,0.46152 -1.30764,0.69228 -2.26487,0.69228c-1.04839,0 -1.83184,-0.2507 -2.35034,-0.75211c-0.5185,-0.50711 -0.77775,-1.02846 -0.77775,-1.56405c0,-0.17663 0.06553,-0.33617 0.19658,-0.47861c0.13674,-0.14245 0.31338,-0.21366 0.5299,-0.21366c0.19373,0 0.33901,0.05982 0.43588,0.17948c0.09687,0.11966 0.21081,0.33617 0.34186,0.64955c0.29628,0.67234 0.82048,1.00851 1.57259,1.00851c0.44443,0 0.82048,-0.10256 1.12816,-0.30768c0.30768,-0.20512 0.46153,-0.48431 0.46153,-0.83758c0,-0.2735 -0.10542,-0.50711 -0.31623,-0.70083c-0.21081,-0.19943 -0.69798,-0.38745 -1.46148,-0.56408c-0.7578,-0.17663 -1.29055,-0.34472 -1.59823,-0.50426c-0.30199,-0.15954 -0.56693,-0.3903 -0.79484,-0.69228c-0.22791,-0.30199 -0.34187,-0.68088 -0.34187,-1.13671c0,-0.66664 0.2621,-1.19653 0.7863,-1.58968c0.5299,-0.39884 1.24782,-0.59827 2.15377,-0.59827c0.92874,0 1.62672,0.21366 2.09394,0.641c0.47292,0.42164 0.70938,0.84612 0.70938,1.27346c0,0.17663 -0.06838,0.34472 -0.20512,0.50426c-0.13674,0.15384 -0.31053,0.23076 -0.52134,0.23076c-0.19373,0 -0.34187,-0.05414 -0.44443,-0.16239c-0.09687,-0.10825 -0.20512,-0.29058 -0.32477,-0.54698c-0.27349,-0.54129 -0.74071,-0.81194 -1.40166,-0.81194c-0.38745,0 -0.71223,0.08546 -0.97433,0.2564c-0.2621,0.16523 -0.39314,0.3846 -0.39314,0.6581zM176.27106,177.16678v-0.88031c0,-0.35896 0.01425,-0.60112 0.04274,-0.72647c0.03418,-0.13105 0.11395,-0.24785 0.2393,-0.35041c0.12535,-0.10256 0.2735,-0.15385 0.44443,-0.15385c0.15954,0 0.30198,0.04559 0.42733,0.13675c0.12535,0.09116 0.20797,0.20512 0.24785,0.34187c0.03988,0.13105 0.05983,0.34472 0.05983,0.641v0.99142h0.28204c0.35896,0 0.59542,0.04273 0.70937,0.1282c0.11965,0.08546 0.17948,0.21367 0.17948,0.3846c0,0.35896 -0.29913,0.53844 -0.8974,0.53844h-0.2735v2.69221c0,0.36466 0.02564,0.61251 0.07692,0.74356c0.05128,0.13105 0.18802,0.19657 0.41024,0.19657c0.10825,0 0.22791,-0.01424 0.35896,-0.04273c0.13675,-0.03418 0.23646,-0.05128 0.29914,-0.05128c0.14814,0 0.26779,0.04843 0.35896,0.14529c0.09117,0.09686 0.13675,0.21367 0.13675,0.35041c0,0.47861 -0.50426,0.71792 -1.51277,0.71792c-0.49001,0 -0.84898,-0.09116 -1.07689,-0.27349c-0.22791,-0.18233 -0.37036,-0.4017 -0.42733,-0.6581c-0.05697,-0.2621 -0.08546,-0.60397 -0.08546,-1.02561v-2.79476h-0.18803c-0.43303,0 -0.64955,-0.17663 -0.64955,-0.5299c0,-0.34756 0.22791,-0.52135 0.68373,-0.52135zM182.45138,177.03858c0.90595,0 1.61818,0.27919 2.13668,0.83758c0.5185,0.55268 0.77775,1.26206 0.77775,2.12812c0,0.86606 -0.2621,1.57829 -0.7863,2.13668c-0.5242,0.55268 -1.21933,0.82903 -2.08539,0.82903c-0.94013,0 -1.66661,-0.28204 -2.17941,-0.84612c-0.5128,-0.56408 -0.7692,-1.27061 -0.7692,-2.11958c0,-0.86606 0.25925,-1.57544 0.77775,-2.12812c0.5185,-0.55838 1.22787,-0.83758 2.12812,-0.83758zM182.45138,181.88456c0.44443,0 0.79485,-0.16524 1.05125,-0.49571c0.2564,-0.33617 0.3846,-0.7977 0.3846,-1.38457c0,-0.59257 -0.1282,-1.05409 -0.3846,-1.38456c-0.2564,-0.33617 -0.60682,-0.50426 -1.05125,-0.50426c-0.43303,0 -0.78059,0.16809 -1.04269,0.50426c-0.2564,0.33617 -0.3846,0.79769 -0.3846,1.38456c0,0.58687 0.1282,1.0484 0.3846,1.38457c0.2564,0.33047 0.60396,0.49571 1.04269,0.49571zM186.50358,181.75636v-3.73491c0,-0.65524 0.23931,-0.98287 0.71793,-0.98287c0.46152,0 0.69798,0.30199 0.70937,0.90595c0.30199,-0.60397 0.72077,-0.90595 1.25636,-0.90595c0.27919,0 0.56978,0.07407 0.87176,0.22222c0.30199,0.14814 0.45298,0.35041 0.45298,0.60681c0,0.17663 -0.06268,0.32477 -0.18803,0.44443c-0.11965,0.11395 -0.24786,0.17093 -0.3846,0.17093c-0.07977,0 -0.22222,-0.03134 -0.42733,-0.09402c-0.20512,-0.06268 -0.37605,-0.09401 -0.5128,-0.09401c-0.34757,0 -0.60681,0.17663 -0.77775,0.52989c-0.17094,0.34756 -0.2564,1.0256 -0.2564,2.03411v0.84613c0,0.37036 -0.0171,0.62105 -0.05128,0.7521c-0.02849,0.13105 -0.10826,0.25071 -0.23931,0.35897c-0.12535,0.10256 -0.27065,0.15384 -0.43588,0.15384c-0.16523,0 -0.31337,-0.04843 -0.44442,-0.14529c-0.12535,-0.09686 -0.20513,-0.20797 -0.23931,-0.33332c-0.03418,-0.13105 -0.05128,-0.37605 -0.05128,-0.73501zM194.71482,182.14096c-0.68943,0.55268 -1.36747,0.82903 -2.03411,0.82903c-0.63245,0 -1.11961,-0.15954 -1.46148,-0.47861c-0.33617,-0.32477 -0.50426,-0.71792 -0.50426,-1.17944c0,-0.39884 0.11396,-0.71792 0.34186,-0.95723c0.23361,-0.245 0.48431,-0.41594 0.75211,-0.5128c0.27349,-0.09686 0.71507,-0.20797 1.32474,-0.33332c0.60967,-0.12535 1.10253,-0.24216 1.47858,-0.35041c-0.0057,-0.44443 -0.09401,-0.74356 -0.26494,-0.8974c-0.17094,-0.15384 -0.43018,-0.23076 -0.77775,-0.23076c-0.66094,0 -1.09398,0.18517 -1.2991,0.55553c-0.11396,0.21082 -0.21651,0.36181 -0.30768,0.45298c-0.08546,0.08546 -0.21082,0.1282 -0.37606,0.1282c-0.15384,0 -0.29344,-0.04843 -0.41878,-0.1453c-0.12535,-0.10256 -0.18803,-0.23645 -0.18803,-0.40169c0,-0.37606 0.20512,-0.73217 0.61536,-1.06834c0.41024,-0.34187 1.05409,-0.5128 1.93155,-0.5128c0.88886,0 1.5384,0.15384 1.94864,0.46152c0.41594,0.30768 0.61251,0.92874 0.58972,1.86318l-0.03418,1.36747c-0.01139,0.42734 0.03133,0.7749 0.1282,1.0427c0.10256,0.2621 0.15384,0.46437 0.15384,0.60681c0,0.15384 -0.06837,0.29059 -0.20512,0.41024c-0.13105,0.11966 -0.28204,0.17948 -0.45298,0.17948c-0.29628,0 -0.60966,-0.27634 -0.94013,-0.82903zM194.62081,180.02992c-0.21652,0.08546 -0.57547,0.17949 -1.07688,0.28205c-0.50141,0.09686 -0.85752,0.21081 -1.06834,0.34186c-0.20512,0.12535 -0.30768,0.31338 -0.30768,0.56408c0,0.20512 0.08262,0.3903 0.24786,0.55554c0.16523,0.15954 0.40169,0.23931 0.70937,0.23931c0.31907,0 0.61536,-0.08832 0.88886,-0.26495c0.27919,-0.17663 0.45013,-0.3846 0.51281,-0.6239c0.06267,-0.245 0.09401,-0.60967 0.09401,-1.09398zM201.38765,178.03v-0.19657c0,-0.2621 0.06267,-0.45867 0.18802,-0.58972c0.13105,-0.13675 0.29628,-0.20512 0.49571,-0.20512c0.22222,0 0.39315,0.07692 0.5128,0.23076c0.11965,0.15384 0.17948,0.48717 0.17948,0.99997v3.91438c0,1.16235 -0.245,1.94295 -0.73501,2.34179c-0.49001,0.40454 -1.19653,0.60681 -2.11958,0.60681c-0.83188,0 -1.48143,-0.15384 -1.94865,-0.46152c-0.46722,-0.30768 -0.70083,-0.63246 -0.70083,-0.97433c0,-0.18233 0.05983,-0.33047 0.17948,-0.44443c0.12535,-0.11395 0.2735,-0.17093 0.44443,-0.17093c0.15384,0 0.27349,0.03704 0.35896,0.11111c0.09117,0.07407 0.245,0.24785 0.46152,0.52134c0.22222,0.2735 0.58973,0.41024 1.10253,0.41024c0.28489,0 0.54984,-0.04558 0.79484,-0.13674c0.24501,-0.08546 0.42449,-0.24216 0.53844,-0.47007c0.11965,-0.22222 0.17378,-0.77205 0.16239,-1.64951c-0.44443,0.64385 -1.05125,0.96578 -1.82045,0.96578c-0.74641,0 -1.33613,-0.27919 -1.76916,-0.83757c-0.43303,-0.55838 -0.64955,-1.27061 -0.64955,-2.13667c0,-0.86606 0.22222,-1.55265 0.66665,-2.05975c0.44443,-0.50711 1.02275,-0.76065 1.73497,-0.76065c0.7806,0 1.4216,0.33047 1.92301,0.99142zM198.5416,179.97864c0,0.56408 0.1225,0.99426 0.36751,1.29055c0.24501,0.29629 0.58403,0.44443 1.01706,0.44443c0.37605,0 0.69798,-0.14245 0.96577,-0.42734c0.27349,-0.29059 0.41024,-0.72361 0.41024,-1.2991c0,-0.56408 -0.12535,-1.01136 -0.37605,-1.34183c-0.2507,-0.33047 -0.58972,-0.49571 -1.01705,-0.49571c-0.41594,0 -0.74926,0.15669 -0.99997,0.47007c-0.24501,0.30768 -0.36751,0.76065 -0.36751,1.35892zM208.02095,180.36325h-2.86314c0.01709,0.54129 0.16523,0.94868 0.44442,1.22217c0.28489,0.2735 0.62676,0.41024 1.0256,0.41024c0.48431,0 0.94298,-0.21366 1.37601,-0.641c0.17663,-0.17663 0.30484,-0.28489 0.38461,-0.32477c0.08546,-0.04559 0.17948,-0.06838 0.28204,-0.06838c0.13105,0 0.24215,0.04273 0.33332,0.1282c0.09686,0.07977 0.1453,0.17948 0.1453,0.29913c0,0.33047 -0.22507,0.67804 -0.67519,1.0427c-0.44443,0.35896 -1.05125,0.53844 -1.82045,0.53844c-0.97432,0 -1.71504,-0.27634 -2.22214,-0.82903c-0.50141,-0.55268 -0.75211,-1.26491 -0.75211,-2.13668c0,-0.88316 0.2507,-1.59823 0.75211,-2.14522c0.5071,-0.54699 1.21078,-0.82048 2.11103,-0.82048c0.85467,0 1.51562,0.25925 1.98284,0.77775c0.46722,0.5128 0.70083,1.07119 0.70083,1.67515c0,0.26779 -0.07692,0.48147 -0.23076,0.641c-0.15384,0.15384 -0.47861,0.23076 -0.97432,0.23076zM205.15781,179.53422h2.65802c-0.01709,-0.48431 -0.15099,-0.85467 -0.4017,-1.11107c-0.2507,-0.2564 -0.55838,-0.3846 -0.92304,-0.3846c-0.7749,0 -1.21932,0.49856 -1.33328,1.49567zM211.41933,177.03858c0.21652,0 0.4017,0.07977 0.55554,0.23931c0.15954,0.15384 0.23931,0.33902 0.23931,0.55554c0,0.22222 -0.07977,0.41309 -0.23931,0.57263c-0.15384,0.15954 -0.33902,0.23931 -0.55554,0.23931c-0.22222,0 -0.41309,-0.07978 -0.57263,-0.23931c-0.15954,-0.15954 -0.23931,-0.35041 -0.23931,-0.57263c0,-0.21652 0.07977,-0.4017 0.23931,-0.55554c0.15954,-0.15954 0.35041,-0.23931 0.57263,-0.23931zM211.41933,181.35466c0.21652,0 0.4017,0.07977 0.55554,0.23931c0.15954,0.15384 0.23931,0.34187 0.23931,0.56408c0,0.21652 -0.07977,0.40739 -0.23931,0.57263c-0.15384,0.15954 -0.33902,0.23931 -0.55554,0.23931c-0.22222,0 -0.41309,-0.07977 -0.57263,-0.23931c-0.15954,-0.15954 -0.23931,-0.35041 -0.23931,-0.57263c0,-0.22222 0.07977,-0.41024 0.23931,-0.56408c0.15954,-0.15954 0.35041,-0.23931 0.57263,-0.23931zM218.77483,176.22665v1.99993h2.35889c0.27919,0 0.47007,0.01425 0.57263,0.04273c0.10825,0.02849 0.20227,0.09686 0.28204,0.20512c0.08546,0.10825 0.1282,0.22506 0.1282,0.35041c0,0.16523 -0.06268,0.31053 -0.18803,0.43588c-0.11965,0.12535 -0.3846,0.18802 -0.79484,0.18802h-2.35889v2.20505c0,0.31907 -0.01424,0.55554 -0.04273,0.70938c-0.02279,0.15384 -0.09401,0.29343 -0.21367,0.41879c-0.11396,0.12535 -0.29344,0.18803 -0.53844,0.18803c-0.23931,0 -0.41879,-0.06268 -0.53844,-0.18803c-0.11396,-0.12535 -0.18517,-0.2678 -0.21366,-0.42734c-0.02279,-0.16523 -0.03419,-0.39884 -0.03419,-0.70083v-5.32459c0,-0.56978 0.03989,-0.89455 0.11966,-0.97432c0.08546,-0.07977 0.17663,-0.15669 0.27349,-0.23076c0.10256,-0.07977 0.41309,-0.11965 0.93159,-0.11965h3.11954c0.27349,0 0.46722,0.0114 0.58118,0.03419c0.11396,0.01709 0.21367,0.07977 0.29913,0.18803c0.09117,0.10825 0.13675,0.23645 0.13675,0.3846c0,0.14814 -0.04558,0.27635 -0.13675,0.38461c-0.08546,0.10825 -0.18518,0.17378 -0.29913,0.19657c-0.11396,0.02279 -0.30768,0.03419 -0.58118,0.03419zM223.69024,180.79913v-2.56401c0,-0.31338 0.0114,-0.54129 0.03419,-0.68374c0.02849,-0.14245 0.10541,-0.26209 0.23076,-0.35896c0.12535,-0.10256 0.27919,-0.15384 0.46152,-0.15384c0.17094,0 0.31908,0.04843 0.44443,0.14529c0.13105,0.09686 0.21081,0.22507 0.23931,0.3846c0.03418,0.15384 0.05128,0.38745 0.05128,0.70083v2.00847c0,0.65524 0.10256,1.07689 0.30768,1.26491c0.20512,0.18233 0.43018,0.2735 0.67519,0.2735c0.27919,0 0.5242,-0.07692 0.73502,-0.23076c0.21652,-0.15954 0.36181,-0.35041 0.43588,-0.57263c0.07407,-0.22791 0.11111,-0.66949 0.11111,-1.32473v-1.45294c0,-0.30768 0.01425,-0.53559 0.04274,-0.68374c0.03418,-0.14814 0.11396,-0.27064 0.23931,-0.3675c0.13105,-0.09686 0.28489,-0.14529 0.46152,-0.14529c0.16523,0 0.31338,0.04843 0.44443,0.14529c0.13105,0.09686 0.20797,0.21652 0.23076,0.35896c0.02849,0.14245 0.04274,0.3732 0.04274,0.69228v3.60671c0,0.29629 -0.01425,0.50995 -0.04274,0.641c-0.02849,0.13105 -0.09971,0.24501 -0.21366,0.34187c-0.10825,0.09686 -0.24786,0.14529 -0.41879,0.14529c-0.47292,0 -0.70083,-0.33902 -0.68373,-1.01706c-0.48431,0.67804 -1.12532,1.01706 -1.92301,1.01706c-0.52989,0 -0.98002,-0.15669 -1.35038,-0.47007c-0.37036,-0.31907 -0.55554,-0.88601 -0.55554,-1.70079zM234.40887,180.36325h-2.86314c0.01709,0.54129 0.16524,0.94868 0.44443,1.22217c0.28489,0.2735 0.62676,0.41024 1.0256,0.41024c0.48431,0 0.94298,-0.21366 1.37601,-0.641c0.17663,-0.17663 0.30483,-0.28489 0.3846,-0.32477c0.08546,-0.04559 0.17948,-0.06838 0.28204,-0.06838c0.13105,0 0.24215,0.04273 0.33332,0.1282c0.09686,0.07977 0.14529,0.17948 0.14529,0.29913c0,0.33047 -0.22507,0.67804 -0.67519,1.0427c-0.44443,0.35896 -1.05124,0.53844 -1.82044,0.53844c-0.97432,0 -1.71504,-0.27634 -2.22214,-0.82903c-0.50141,-0.55268 -0.75211,-1.26491 -0.75211,-2.13668c0,-0.88316 0.2507,-1.59823 0.75211,-2.14522c0.5071,-0.54699 1.21078,-0.82048 2.11103,-0.82048c0.85467,0 1.51561,0.25925 1.98283,0.77775c0.46722,0.5128 0.70083,1.07119 0.70083,1.67515c0,0.26779 -0.07692,0.48147 -0.23076,0.641c-0.15384,0.15384 -0.47862,0.23076 -0.97433,0.23076zM231.54573,179.53422h2.65802c-0.01709,-0.48431 -0.15099,-0.85467 -0.4017,-1.11107c-0.2507,-0.2564 -0.55839,-0.3846 -0.92305,-0.3846c-0.7749,0 -1.21932,0.49856 -1.33328,1.49567zM238.30295,176.07281v5.68355c0,0.35327 -0.0171,0.59541 -0.05128,0.72646c-0.02849,0.12535 -0.11111,0.23931 -0.24786,0.34187c-0.13105,0.09686 -0.27349,0.14529 -0.42733,0.14529c-0.15384,0 -0.29913,-0.04843 -0.43588,-0.14529c-0.13675,-0.10256 -0.22222,-0.21936 -0.2564,-0.35041c-0.02849,-0.13105 -0.04273,-0.37036 -0.04273,-0.71792v-5.68355c0,-0.35896 0.01709,-0.60112 0.05128,-0.72647c0.03418,-0.13105 0.1168,-0.24216 0.24786,-0.33332c0.13105,-0.09686 0.27349,-0.14529 0.42733,-0.14529c0.17663,0 0.32762,0.05128 0.45297,0.15384c0.13105,0.10256 0.21082,0.22222 0.23931,0.35896c0.02849,0.13675 0.04273,0.36751 0.04273,0.69228zM244.74609,176.22665v1.91446h3.02553c0.2564,0 0.43873,0.01139 0.54699,0.03418c0.11396,0.02279 0.21652,0.08832 0.30768,0.19657c0.09116,0.10256 0.13674,0.22506 0.13674,0.3675c0,0.12535 -0.05413,0.26209 -0.16239,0.41024c-0.10256,0.14245 -0.3789,0.21367 -0.82903,0.21367h-3.02553v2.24778h3.41868c0.30768,0 0.51565,0.0114 0.62391,0.03419c0.10826,0.01709 0.20512,0.07977 0.29059,0.18803c0.08546,0.10256 0.1282,0.22791 0.1282,0.37606c0,0.14245 -0.04558,0.27065 -0.13674,0.3846c-0.08546,0.10825 -0.19088,0.17663 -0.31623,0.20512c-0.11965,0.02279 -0.31623,0.03418 -0.58972,0.03418h-3.67508c-0.56408,0 -0.89171,-0.03988 -0.98287,-0.11965c-0.08546,-0.08546 -0.16523,-0.17663 -0.23931,-0.2735c-0.06838,-0.10256 -0.10256,-0.41309 -0.10256,-0.93159v-5.1793c0,-0.56978 0.03988,-0.89455 0.11965,-0.97432c0.08546,-0.07977 0.17662,-0.15669 0.27349,-0.23076c0.10256,-0.07977 0.41309,-0.11965 0.93159,-0.11965h3.55543c0.27919,0 0.47292,0.0114 0.58118,0.03419c0.11396,0.01709 0.21367,0.07977 0.29914,0.18803c0.09116,0.10256 0.13674,0.23076 0.13674,0.3846c0,0.14814 -0.04273,0.27635 -0.1282,0.38461c-0.08546,0.10825 -0.18518,0.17378 -0.29914,0.19657c-0.11396,0.02279 -0.31053,0.03419 -0.58972,0.03419zM255.49569,179.36328v2.39308c0,0.31338 -0.01424,0.54129 -0.04273,0.68373c-0.02279,0.13675 -0.09971,0.25925 -0.23076,0.36751c-0.12535,0.10825 -0.27349,0.16239 -0.44442,0.16239c-0.15954,0 -0.30769,-0.04843 -0.44443,-0.14529c-0.13105,-0.09686 -0.21367,-0.21937 -0.24785,-0.36751c-0.03419,-0.15384 -0.05128,-0.38744 -0.05128,-0.70082v-2.09394c0,-0.58687 -0.08831,-0.98002 -0.26494,-1.17944c-0.17093,-0.20512 -0.41025,-0.30768 -0.71793,-0.30768c-0.27349,0 -0.51566,0.07977 -0.72647,0.23931c-0.21081,0.15954 -0.35896,0.36181 -0.44442,0.60681c-0.08546,0.23931 -0.1282,0.64955 -0.1282,1.23073v1.50422c0,0.30768 -0.0114,0.53274 -0.03419,0.67518c-0.02279,0.13675 -0.09971,0.2621 -0.23076,0.37606c-0.13105,0.10825 -0.28204,0.16239 -0.45298,0.16239c-0.16523,0 -0.31623,-0.04843 -0.45298,-0.14529c-0.13105,-0.10256 -0.21081,-0.22507 -0.23931,-0.36751c-0.02849,-0.14814 -0.04273,-0.38175 -0.04273,-0.70082v-3.58961c0,-0.32477 0.01424,-0.54984 0.04273,-0.67519c0.03419,-0.13105 0.11111,-0.23931 0.23076,-0.32477c0.12535,-0.08546 0.26495,-0.1282 0.41879,-0.1282c0.14245,0 0.29058,0.05698 0.44442,0.17093c0.15384,0.10825 0.23076,0.37891 0.23076,0.81194c0.49001,-0.65524 1.11677,-0.98287 1.88028,-0.98287c0.29059,0 0.57833,0.05698 0.86321,0.17093c0.28489,0.10825 0.51565,0.28489 0.69228,0.5299c0.18233,0.245 0.29344,0.50141 0.33333,0.7692c0.03988,0.26779 0.05982,0.55268 0.05982,0.85467zM260.9581,178.03v-0.19657c0,-0.2621 0.06268,-0.45867 0.18803,-0.58972c0.13105,-0.13675 0.29629,-0.20512 0.49571,-0.20512c0.22222,0 0.39315,0.07692 0.5128,0.23076c0.11965,0.15384 0.17948,0.48717 0.17948,0.99997v3.91438c0,1.16235 -0.245,1.94295 -0.73501,2.34179c-0.49001,0.40454 -1.19654,0.60681 -2.11958,0.60681c-0.83188,0 -1.48143,-0.15384 -1.94864,-0.46152c-0.46722,-0.30768 -0.70083,-0.63246 -0.70083,-0.97433c0,-0.18233 0.05983,-0.33047 0.17948,-0.44443c0.12535,-0.11395 0.27349,-0.17093 0.44442,-0.17093c0.15384,0 0.27349,0.03704 0.35896,0.11111c0.09116,0.07407 0.24501,0.24785 0.46152,0.52134c0.22222,0.2735 0.58972,0.41024 1.10252,0.41024c0.28489,0 0.54984,-0.04558 0.79485,-0.13674c0.245,-0.08546 0.42449,-0.24216 0.53844,-0.47007c0.11965,-0.22222 0.17378,-0.77205 0.16239,-1.64951c-0.44443,0.64385 -1.05124,0.96578 -1.82045,0.96578c-0.74641,0 -1.33613,-0.27919 -1.76916,-0.83757c-0.43303,-0.55838 -0.64955,-1.27061 -0.64955,-2.13667c0,-0.86606 0.22221,-1.55265 0.66664,-2.05975c0.44443,-0.50711 1.02276,-0.76065 1.73498,-0.76065c0.7806,0 1.4216,0.33047 1.923,0.99142zM258.11205,179.97864c0,0.56408 0.12251,0.99426 0.36751,1.29055c0.245,0.29629 0.58402,0.44443 1.01705,0.44443c0.37606,0 0.69798,-0.14245 0.96577,-0.42734c0.27349,-0.29059 0.41025,-0.72361 0.41025,-1.2991c0,-0.56408 -0.12535,-1.01136 -0.37605,-1.34183c-0.25071,-0.33047 -0.58973,-0.49571 -1.01706,-0.49571c-0.41594,0 -0.74925,0.15669 -0.99996,0.47007c-0.245,0.30768 -0.36751,0.76065 -0.36751,1.35892zM264.53061,174.9361c0.19373,0 0.35897,0.07122 0.49571,0.21366c0.13674,0.14245 0.20512,0.30769 0.20512,0.49571c0,0.19372 -0.06838,0.36181 -0.20512,0.50426c-0.13674,0.13675 -0.30199,0.20512 -0.49571,0.20512c-0.19373,0 -0.36181,-0.06837 -0.50426,-0.20512c-0.13674,-0.14245 -0.20512,-0.31053 -0.20512,-0.50426c0,-0.19372 0.06838,-0.35897 0.20512,-0.49571c0.14245,-0.14245 0.31053,-0.21366 0.50426,-0.21366zM265.25708,178.22657v3.52979c0,0.35327 -0.0171,0.59541 -0.05128,0.72646c-0.02849,0.12535 -0.11111,0.23931 -0.24785,0.34187c-0.13105,0.09686 -0.27349,0.14529 -0.42733,0.14529c-0.15384,0 -0.29914,-0.04843 -0.43588,-0.14529c-0.13674,-0.10256 -0.22222,-0.21936 -0.2564,-0.35041c-0.02849,-0.13105 -0.04273,-0.37036 -0.04273,-0.71792v-3.52124c0,-0.31907 0.0114,-0.54413 0.03419,-0.67518c0.02849,-0.13675 0.10826,-0.25641 0.23931,-0.35897c0.13105,-0.10825 0.28204,-0.16238 0.45298,-0.16238c0.17093,0 0.31908,0.04843 0.44443,0.14529c0.12535,0.09116 0.20512,0.21082 0.23931,0.35896c0.03419,0.14245 0.05128,0.37036 0.05128,0.68374zM271.90534,179.36328v2.39308c0,0.31338 -0.01424,0.54129 -0.04273,0.68373c-0.02279,0.13675 -0.09971,0.25925 -0.23076,0.36751c-0.12535,0.10825 -0.2735,0.16239 -0.44443,0.16239c-0.15954,0 -0.30768,-0.04843 -0.44442,-0.14529c-0.13105,-0.09686 -0.21367,-0.21937 -0.24785,-0.36751c-0.03419,-0.15384 -0.05128,-0.38744 -0.05128,-0.70082v-2.09394c0,-0.58687 -0.08832,-0.98002 -0.26495,-1.17944c-0.17093,-0.20512 -0.41024,-0.30768 -0.71792,-0.30768c-0.27349,0 -0.51566,0.07977 -0.72647,0.23931c-0.21081,0.15954 -0.35896,0.36181 -0.44443,0.60681c-0.08546,0.23931 -0.1282,0.64955 -0.1282,1.23073v1.50422c0,0.30768 -0.01139,0.53274 -0.03418,0.67518c-0.02279,0.13675 -0.09971,0.2621 -0.23076,0.37606c-0.13105,0.10825 -0.28204,0.16239 -0.45298,0.16239c-0.16523,0 -0.31623,-0.04843 -0.45298,-0.14529c-0.13105,-0.10256 -0.21081,-0.22507 -0.23931,-0.36751c-0.02849,-0.14814 -0.04273,-0.38175 -0.04273,-0.70082v-3.58961c0,-0.32477 0.01424,-0.54984 0.04273,-0.67519c0.03419,-0.13105 0.11111,-0.23931 0.23076,-0.32477c0.12535,-0.08546 0.26495,-0.1282 0.41879,-0.1282c0.14245,0 0.29059,0.05698 0.44443,0.17093c0.15384,0.10825 0.23076,0.37891 0.23076,0.81194c0.49001,-0.65524 1.11676,-0.98287 1.88027,-0.98287c0.29059,0 0.57833,0.05698 0.86322,0.17093c0.28489,0.10825 0.51565,0.28489 0.69228,0.5299c0.18233,0.245 0.29343,0.50141 0.33332,0.7692c0.03988,0.26779 0.05983,0.55268 0.05983,0.85467zM277.43612,180.36325h-2.86314c0.0171,0.54129 0.16524,0.94868 0.44443,1.22217c0.28489,0.2735 0.62676,0.41024 1.0256,0.41024c0.48431,0 0.94299,-0.21366 1.37602,-0.641c0.17663,-0.17663 0.30483,-0.28489 0.3846,-0.32477c0.08546,-0.04559 0.17948,-0.06838 0.28204,-0.06838c0.13105,0 0.24215,0.04273 0.33332,0.1282c0.09687,0.07977 0.1453,0.17948 0.1453,0.29913c0,0.33047 -0.22507,0.67804 -0.67519,1.0427c-0.44443,0.35896 -1.05124,0.53844 -1.82044,0.53844c-0.97432,0 -1.71504,-0.27634 -2.22214,-0.82903c-0.50141,-0.55268 -0.75211,-1.26491 -0.75211,-2.13668c0,-0.88316 0.2507,-1.59823 0.75211,-2.14522c0.5071,-0.54699 1.21079,-0.82048 2.11104,-0.82048c0.85467,0 1.51561,0.25925 1.98283,0.77775c0.46722,0.5128 0.70083,1.07119 0.70083,1.67515c0,0.26779 -0.07692,0.48147 -0.23076,0.641c-0.15384,0.15384 -0.47861,0.23076 -0.97432,0.23076zM274.57298,179.53422h2.65802c-0.0171,-0.48431 -0.15099,-0.85467 -0.4017,-1.11107c-0.25071,-0.2564 -0.55838,-0.3846 -0.92304,-0.3846c-0.7749,0 -1.21933,0.49856 -1.33329,1.49567zM280.97979,178.55135c0,0.18802 0.09686,0.33617 0.29059,0.44442c0.19373,0.10825 0.63245,0.24501 1.31619,0.41025c1.32189,0.32477 1.98284,0.87461 1.98284,1.64951c0,0.62106 -0.22507,1.09682 -0.67519,1.42729c-0.44443,0.32477 -1.06549,0.48717 -1.86318,0.48717c-0.81479,0 -1.4273,-0.16809 -1.83754,-0.50426c-0.41024,-0.33617 -0.61536,-0.69228 -0.61536,-1.06834c0,-0.15954 0.05698,-0.29629 0.17094,-0.41024c0.11396,-0.11395 0.25356,-0.17094 0.41879,-0.17094c0.22791,0 0.42733,0.14245 0.59826,0.42734c0.19373,0.31338 0.40454,0.52135 0.63245,0.62391c0.23361,0.10256 0.48146,0.15384 0.74356,0.15384c0.29629,0 0.53559,-0.06552 0.71792,-0.19657c0.18233,-0.13105 0.27349,-0.29628 0.27349,-0.4957c0,-0.18233 -0.07692,-0.33902 -0.23076,-0.47007c-0.15384,-0.13105 -0.57833,-0.27634 -1.27346,-0.43588c-0.68943,-0.15954 -1.19369,-0.38175 -1.51276,-0.66664c-0.31907,-0.29059 -0.47861,-0.63245 -0.47861,-1.0256c0,-0.44443 0.19373,-0.83758 0.58118,-1.17945c0.38745,-0.34187 0.96863,-0.5128 1.74353,-0.5128c0.70652,0 1.26775,0.14529 1.6837,0.43588c0.42164,0.28489 0.63245,0.58117 0.63245,0.88885c0,0.16523 -0.05413,0.30484 -0.16239,0.41879c-0.10256,0.11395 -0.24785,0.17094 -0.43588,0.17094c-0.28489,0 -0.54129,-0.16239 -0.7692,-0.48717c-0.22222,-0.32477 -0.56123,-0.48716 -1.01705,-0.48716c-0.245,0 -0.45867,0.05128 -0.641,0.15384c-0.18233,0.09686 -0.2735,0.23646 -0.2735,0.41879zM291.39607,185.13229c-0.2621,0 -0.46152,-0.05128 -0.59827,-0.15384c-0.13674,-0.09686 -0.37036,-0.41309 -0.70083,-0.94868c-0.33047,-0.53559 -0.60112,-1.1595 -0.81194,-1.87173c-0.21081,-0.71222 -0.31623,-1.43015 -0.31623,-2.15377c0,-0.78629 0.11965,-1.55549 0.35896,-2.3076c0.23931,-0.75781 0.5185,-1.38172 0.83758,-1.87173c0.32477,-0.49001 0.54699,-0.77205 0.66664,-0.84612c0.12535,-0.07407 0.31337,-0.11111 0.56408,-0.11111c0.15954,0 0.23931,0.04558 0.23931,0.13675c0,0.03418 -0.1168,0.29914 -0.35041,0.79485c-0.23361,0.49571 -0.44728,1.14526 -0.64101,1.94864c-0.19373,0.80339 -0.29058,1.55549 -0.29058,2.25632c0,0.70652 0.09686,1.46719 0.29058,2.28197c0.19373,0.80908 0.4074,1.44724 0.64101,1.91446c0.23361,0.46722 0.35041,0.73501 0.35041,0.80339c0,0.08546 -0.07977,0.1282 -0.23931,0.1282zM296.70463,175.91041v5.98269c0,0.71792 -0.23931,1.07689 -0.71792,1.07689c-0.16523,0 -0.33048,-0.05413 -0.49571,-0.16239c-0.15954,-0.11395 -0.23931,-0.39885 -0.23931,-0.85467v-4.70922c-0.91164,0.68943 -1.51561,1.03415 -1.8119,1.03415c-0.17093,0 -0.31053,-0.05413 -0.41879,-0.16238c-0.10826,-0.11395 -0.16239,-0.25925 -0.16239,-0.43588c0,-0.13105 0.03988,-0.24216 0.11965,-0.33332c0.07977,-0.09116 0.25355,-0.19657 0.52135,-0.31623c0.89455,-0.43873 1.52131,-0.94014 1.88027,-1.50422c0.15384,-0.23361 0.27065,-0.38745 0.35041,-0.46152c0.07977,-0.07407 0.19372,-0.11111 0.34186,-0.11111c0.42164,0 0.63245,0.31908 0.63245,0.95723zM298.91502,181.88456l1.50422,-6.16217c0.07407,-0.34187 0.14529,-0.56978 0.21366,-0.68374c0.07407,-0.11395 0.21081,-0.17093 0.41024,-0.17093c0.37036,0 0.55554,0.15384 0.55554,0.46152c0,0.11395 -0.03704,0.32192 -0.11111,0.62391l-1.49567,6.16217c-0.06838,0.33047 -0.14245,0.55553 -0.22222,0.67519c-0.07407,0.11966 -0.20797,0.17948 -0.4017,0.17948c-0.37036,0 -0.55553,-0.15384 -0.55553,-0.46152c0,-0.11966 0.03419,-0.32762 0.10256,-0.6239zM307.0034,182.83323h-3.70926c-0.39315,0 -0.64955,-0.08546 -0.7692,-0.2564c-0.11965,-0.17093 -0.17948,-0.32477 -0.17948,-0.46152c0,-0.2735 0.13959,-0.60112 0.41878,-0.98287c0.28489,-0.38745 0.81479,-0.9031 1.58969,-1.54695c0.7806,-0.64955 1.2877,-1.11677 1.52131,-1.40166c0.23361,-0.28489 0.35041,-0.60397 0.35041,-0.95723c0,-0.35327 -0.11965,-0.63245 -0.35896,-0.83757c-0.23931,-0.21082 -0.52989,-0.31623 -0.87176,-0.31623c-0.28489,0 -0.53844,0.07977 -0.76066,0.23931c-0.22222,0.15384 -0.3846,0.3789 -0.48716,0.67519c-0.09687,0.29629 -0.19372,0.51281 -0.29059,0.64955c-0.09687,0.13105 -0.25356,0.19657 -0.47007,0.19657c-0.18233,0 -0.33332,-0.05698 -0.45298,-0.17093c-0.11965,-0.11966 -0.17948,-0.27919 -0.17948,-0.47862c0,-0.54129 0.23076,-1.04839 0.69228,-1.52131c0.46152,-0.47292 1.11962,-0.70938 1.97429,-0.70938c0.91164,0 1.58113,0.22506 2.00847,0.67519c0.43303,0.44443 0.64955,0.96293 0.64955,1.5555c0,0.47292 -0.14245,0.92304 -0.42733,1.35038c-0.27919,0.42164 -0.72078,0.87462 -1.32474,1.35892c-0.59827,0.48431 -0.98572,0.80909 -1.16235,0.97432c-0.17093,0.16523 -0.36466,0.39884 -0.58118,0.70083h2.60674c0.40455,0 0.67803,0.05698 0.82048,0.17093c0.14245,0.11395 0.21367,0.2678 0.21367,0.46152c0,0.20512 -0.06553,0.36182 -0.19657,0.47007c-0.12535,0.10825 -0.33332,0.16238 -0.62391,0.16238zM309.01721,174.86772c0.2564,0 0.45298,0.04843 0.58972,0.14529c0.13674,0.09686 0.37036,0.41594 0.70083,0.95723c0.33047,0.54129 0.60112,1.16805 0.81193,1.88027c0.21081,0.70652 0.31623,1.42444 0.31623,2.15376c0,0.7806 -0.11966,1.5498 -0.35897,2.30761c-0.23931,0.75211 -0.52134,1.37317 -0.84612,1.86318c-0.31907,0.49001 -0.54129,0.77206 -0.66664,0.84613c-0.11965,0.07407 -0.30199,0.1111 -0.54699,0.1111c-0.15954,0 -0.23931,-0.04273 -0.23931,-0.1282c0,-0.03989 0.11396,-0.30768 0.34187,-0.80339c0.23361,-0.49571 0.44727,-1.14526 0.641,-1.94864c0.19942,-0.80339 0.29914,-1.55265 0.29914,-2.24778c0,-0.71222 -0.09971,-1.47288 -0.29914,-2.28196c-0.19373,-0.81478 -0.40739,-1.45578 -0.641,-1.923c-0.22791,-0.46722 -0.34187,-0.73217 -0.34187,-0.79485c0,-0.09116 0.07978,-0.13675 0.23931,-0.13675z"/></g></g></svg>