<svg version="1.1" xmlns="http://www.w3.org/2000/svg" xmlns:xlink="http://www.w3.org/1999/xlink" width="990" height="540" viewBox="0,0,990,540"><defs><clipPath id="clip-1"><rect x="-330" y="-180" transform="scale(0.5,0.5)" width="1980" height="1080" fill="none" fill-rule="nonzero" stroke="none" stroke-width="0.5" stroke-linecap="butt"/></clipPath></defs><g transform="translate(165,90)"><g clip-path="url(#clip-1)" data-paper-data="{&quot;isPaintingLayer&quot;:true}" stroke-linejoin="miter" stroke-miterlimit="10" stroke-dasharray="" stroke-dashoffset="0" style="mix-blend-mode: normal"><path d="M-150,-180h960v720h-960z" fill-opacity="0" fill="#000000" fill-rule="evenodd" stroke="none" stroke-width="1" stroke-linecap="square"/><path d="M5.36745,133.02362h948.1575v92.09448h-948.1575z" fill-opacity="0" fill="#000000" fill-rule="evenodd" stroke="none" stroke-width="1" stroke-linecap="square"/><path d="M16.87665,77.85828h528.34644v64.62991h-528.34644z" fill-opacity="0" fill="#000000" fill-rule="evenodd" stroke="none" stroke-width="1" stroke-linecap="square"/><path d="M5.36745,-173.84252h354.14172v271.49606h-354.14172z" fill-opacity="0" fill="#000000" fill-rule="evenodd" stroke="none" stroke-width="1" stroke-linecap="square"/><path d="M28.74245,37.90434v5.84375c0,0.75 -0.03125,1.29688 -0.09375,1.64063c-0.0625,0.34375 -0.25,0.64583 -0.5625,0.90625c-0.3125,0.26042 -0.68229,0.39063 -1.10937,0.39063c-0.375,0 -0.72917,-0.11458 -1.0625,-0.34375c-0.33333,-0.22917 -0.54167,-0.52604 -0.625,-0.89062c-0.07292,-0.375 -0.10937,-0.94271 -0.10937,-1.70312v-5.125c0,-1.41667 -0.21354,-2.36979 -0.64062,-2.85937c-0.41667,-0.5 -1,-0.75 -1.75,-0.75c-0.67708,0 -1.27083,0.19792 -1.78125,0.59375c-0.51042,0.38542 -0.86979,0.86979 -1.07812,1.45313c-0.20833,0.58333 -0.3125,1.58854 -0.3125,3.01563v3.67188c0,0.73958 -0.03125,1.28125 -0.09375,1.625c-0.05208,0.33333 -0.23958,0.63542 -0.5625,0.90625c-0.32292,0.27083 -0.69271,0.40625 -1.10937,0.40625c-0.38542,0 -0.74479,-0.11979 -1.07812,-0.35937c-0.33333,-0.23958 -0.53646,-0.53646 -0.60937,-0.89062c-0.0625,-0.35417 -0.09375,-0.91667 -0.09375,-1.6875v-8.76562c0,-0.79167 0.03646,-1.34375 0.10938,-1.65625c0.07292,-0.3125 0.26042,-0.57292 0.5625,-0.78125c0.30208,-0.20833 0.64063,-0.3125 1.01563,-0.3125c0.34375,0 0.70313,0.14063 1.07813,0.42188c0.375,0.27083 0.5625,0.92708 0.5625,1.96875c1.1875,-1.59375 2.71875,-2.39062 4.59375,-2.39062c0.70833,0 1.40625,0.13542 2.09375,0.40625c0.69792,0.27083 1.26563,0.70833 1.70313,1.3125c0.4375,0.60417 0.70313,1.22917 0.79688,1.875c0.10417,0.64583 0.15625,1.33854 0.15625,2.07813zM41.28043,44.68559c-1.6875,1.33333 -3.34375,2 -4.96875,2c-1.53125,0 -2.71354,-0.39062 -3.54687,-1.17187c-0.82292,-0.78125 -1.23437,-1.73437 -1.23437,-2.85937c0,-0.96875 0.28125,-1.75 0.84375,-2.34375c0.5625,-0.59375 1.17188,-1.00521 1.82813,-1.23437c0.65625,-0.23958 1.72917,-0.51042 3.21875,-0.8125c1.48958,-0.3125 2.69271,-0.59896 3.60938,-0.85937c-0.01042,-1.07292 -0.22396,-1.79687 -0.64062,-2.17187c-0.41667,-0.38542 -1.05208,-0.57812 -1.90625,-0.57812c-1.61458,0 -2.66667,0.45313 -3.15625,1.35938c-0.28125,0.51042 -0.53125,0.875 -0.75,1.09375c-0.21875,0.21875 -0.53125,0.32813 -0.9375,0.32813c-0.375,0 -0.71354,-0.125 -1.01562,-0.375c-0.30208,-0.25 -0.45312,-0.56771 -0.45312,-0.95312c0,-0.92708 0.5,-1.80208 1.5,-2.625c1,-0.83333 2.56771,-1.25 4.70313,-1.25c2.17708,0 3.76563,0.375 4.76563,1.125c1.01042,0.75 1.48438,2.26563 1.42188,4.54688l-0.07812,3.34375c-0.03125,1.03125 0.07292,1.875 0.3125,2.53125c0.25,0.64583 0.375,1.14063 0.375,1.48438c0,0.375 -0.16667,0.70833 -0.5,1c-0.32292,0.28125 -0.69271,0.42188 -1.10937,0.42188c-0.71875,0 -1.47917,-0.66667 -2.28125,-2zM41.04605,39.54496c-0.53125,0.19792 -1.40625,0.42188 -2.625,0.67188c-1.21875,0.23958 -2.08333,0.51563 -2.59375,0.82813c-0.5,0.3125 -0.75,0.77083 -0.75,1.375c0,0.51042 0.19792,0.96354 0.59375,1.35938c0.40625,0.38542 0.97917,0.57813 1.71875,0.57813c0.78125,0 1.50521,-0.21354 2.17188,-0.64062c0.67708,-0.4375 1.09375,-0.94792 1.25,-1.53125c0.15625,-0.59375 0.23438,-1.47396 0.23438,-2.64062zM68.27684,37.51371v6.125c0,0.84375 -0.03646,1.4375 -0.10937,1.78125c-0.0625,0.34375 -0.25,0.64063 -0.5625,0.89063c-0.30208,0.25 -0.66667,0.375 -1.09375,0.375c-0.41667,0 -0.78125,-0.125 -1.09375,-0.375c-0.30208,-0.25 -0.49479,-0.55729 -0.57812,-0.92187c-0.07292,-0.36458 -0.10937,-0.94792 -0.10937,-1.75v-5.1875c0,-1.52083 -0.18229,-2.47396 -0.54687,-2.85937c-0.35417,-0.38542 -0.84375,-0.57812 -1.46875,-0.57812c-0.65625,0 -1.20833,0.18229 -1.65625,0.54688c-0.44792,0.35417 -0.75521,0.82292 -0.92187,1.40625c-0.15625,0.57292 -0.23437,1.47917 -0.23437,2.71875v3.95313c0,0.84375 -0.03646,1.44271 -0.10937,1.79688c-0.0625,0.34375 -0.25521,0.64063 -0.57812,0.89063c-0.3125,0.23958 -0.67708,0.35938 -1.09375,0.35938c-0.55208,0 -0.98437,-0.18229 -1.29687,-0.54687c-0.3125,-0.375 -0.46875,-1.20833 -0.46875,-2.5v-4.875c0,-1.39583 -0.10417,-2.36979 -0.3125,-2.92187c-0.20833,-0.55208 -0.75,-0.82812 -1.625,-0.82812c-0.91667,0 -1.63542,0.29167 -2.15625,0.875c-0.52083,0.57292 -0.78125,1.81771 -0.78125,3.73438v4.01563c0,0.82292 -0.03125,1.40104 -0.09375,1.73438c-0.05208,0.32292 -0.23437,0.625 -0.54687,0.90625c-0.3125,0.27083 -0.67708,0.40625 -1.09375,0.40625c-0.39583,0 -0.76042,-0.11979 -1.09375,-0.35937c-0.32292,-0.25 -0.52604,-0.54687 -0.60937,-0.89062c-0.07292,-0.34375 -0.10937,-0.94271 -0.10937,-1.79687v-8.60937c0,-0.82292 0.03646,-1.38021 0.10938,-1.67187c0.07292,-0.29167 0.26042,-0.55208 0.5625,-0.78125c0.3125,-0.22917 0.65104,-0.34375 1.01563,-0.34375c1.13542,0 1.70313,0.72396 1.70313,2.17188c1.1875,-1.44792 2.61979,-2.17187 4.29688,-2.17187c1.79167,0 3.09375,0.72396 3.90625,2.17188c1.20833,-1.44792 2.61979,-2.17187 4.23438,-2.17187c1.23958,0 2.30208,0.34375 3.1875,1.03125c0.88542,0.6875 1.32813,2.10417 1.32813,4.25zM81.64263,40.32621h-6.96875c0.03125,1.32292 0.39063,2.32292 1.07813,3c0.6875,0.66667 1.51563,1 2.48438,1c1.1875,0 2.30729,-0.52083 3.35938,-1.5625c0.42708,-0.4375 0.73958,-0.70833 0.9375,-0.8125c0.20833,-0.10417 0.4375,-0.15625 0.6875,-0.15625c0.32292,0 0.59896,0.10417 0.82813,0.3125c0.22917,0.19792 0.34375,0.44271 0.34375,0.73438c0,0.80208 -0.54687,1.64583 -1.64062,2.53125c-1.09375,0.875 -2.57292,1.3125 -4.4375,1.3125c-2.375,0 -4.17708,-0.67187 -5.40625,-2.01562c-1.22917,-1.34375 -1.84375,-3.07812 -1.84375,-5.20312c0,-2.15625 0.61458,-3.90104 1.84375,-5.23437c1.22917,-1.33333 2.9375,-2 5.125,-2c2.08333,0 3.69271,0.63021 4.82813,1.89063c1.14583,1.26042 1.71875,2.625 1.71875,4.09375c0,0.65625 -0.19271,1.17188 -0.57812,1.54688c-0.375,0.375 -1.16146,0.5625 -2.35937,0.5625zM74.67388,38.31059h6.46875c-0.04167,-1.17708 -0.36979,-2.07292 -0.98437,-2.6875c-0.60417,-0.625 -1.35417,-0.9375 -2.25,-0.9375c-1.88542,0 -2.96354,1.20833 -3.23437,3.625zM105.39637,40.32621h-6.96875c0.03125,1.32292 0.39063,2.32292 1.07813,3c0.6875,0.66667 1.51563,1 2.48438,1c1.1875,0 2.30729,-0.52083 3.35938,-1.5625c0.42708,-0.4375 0.73958,-0.70833 0.9375,-0.8125c0.20833,-0.10417 0.4375,-0.15625 0.6875,-0.15625c0.32292,0 0.59896,0.10417 0.82813,0.3125c0.22917,0.19792 0.34375,0.44271 0.34375,0.73438c0,0.80208 -0.54687,1.64583 -1.64062,2.53125c-1.09375,0.875 -2.57292,1.3125 -4.4375,1.3125c-2.375,0 -4.17708,-0.67187 -5.40625,-2.01562c-1.22917,-1.34375 -1.84375,-3.07812 -1.84375,-5.20312c0,-2.15625 0.61458,-3.90104 1.84375,-5.23437c1.22917,-1.33333 2.9375,-2 5.125,-2c2.08333,0 3.69271,0.63021 4.82813,1.89063c1.14583,1.26042 1.71875,2.625 1.71875,4.09375c0,0.65625 -0.19271,1.17188 -0.57812,1.54688c-0.375,0.375 -1.16146,0.5625 -2.35937,0.5625zM98.42762,38.31059h6.46875c-0.04167,-1.17708 -0.36979,-2.07292 -0.98437,-2.6875c-0.60417,-0.625 -1.35417,-0.9375 -2.25,-0.9375c-1.88542,0 -2.96354,1.20833 -3.23437,3.625zM121.03342,44.65434v-0.35937c-1.22917,1.59375 -2.78125,2.39063 -4.65625,2.39063c-1.8125,0 -3.25521,-0.6875 -4.32812,-2.0625c-1.0625,-1.38542 -1.59375,-3.17187 -1.59375,-5.35937c0,-2.0625 0.52083,-3.75 1.5625,-5.0625c1.04167,-1.3125 2.48958,-1.96875 4.34375,-1.96875c1.79167,0 3.34896,0.72396 4.67188,2.17188v-4.60937c0,-1.27083 0.16146,-2.0625 0.48438,-2.375c0.32292,-0.3125 0.75521,-0.46875 1.29688,-0.46875c0.38542,0 0.73438,0.10938 1.04688,0.32813c0.32292,0.21875 0.52083,0.51042 0.59375,0.875c0.07292,0.35417 0.10938,0.9375 0.10938,1.75v14c0,0.79167 -0.04167,1.35938 -0.125,1.70313c-0.07292,0.33333 -0.27083,0.59375 -0.59375,0.78125c-0.32292,0.19792 -0.67708,0.29688 -1.0625,0.29688c-1.16667,0 -1.75,-0.67708 -1.75,-2.03125zM114.04904,39.37309c0,1.59375 0.33333,2.76042 1,3.5c0.67708,0.72917 1.44271,1.09375 2.29688,1.09375c1.01042,0 1.84375,-0.38021 2.5,-1.14062c0.65625,-0.77083 0.98438,-1.83854 0.98438,-3.20312c0,-1.4375 -0.32292,-2.57812 -0.96875,-3.42187c-0.63542,-0.85417 -1.48437,-1.28125 -2.54687,-1.28125c-0.95833,0 -1.74479,0.39583 -2.35937,1.1875c-0.60417,0.78125 -0.90625,1.86979 -0.90625,3.26563zM129.7717,27.10746c0.46875,0 0.86979,0.17708 1.20313,0.53125c0.34375,0.34375 0.51563,0.74479 0.51563,1.20313c0,0.47917 -0.17187,0.89063 -0.51562,1.23438c-0.33333,0.33333 -0.73437,0.5 -1.20312,0.5c-0.46875,0 -0.875,-0.16667 -1.21875,-0.5c-0.34375,-0.34375 -0.51562,-0.75521 -0.51562,-1.23437c0,-0.46875 0.17188,-0.875 0.51563,-1.21875c0.34375,-0.34375 0.75,-0.51562 1.21875,-0.51562zM131.53733,35.13871v8.60938c0,0.84375 -0.04167,1.42188 -0.125,1.73438c-0.07292,0.3125 -0.27083,0.59375 -0.59375,0.84375c-0.32292,0.23958 -0.67187,0.35938 -1.04687,0.35938c-0.375,0 -0.72917,-0.11979 -1.0625,-0.35937c-0.33333,-0.23958 -0.54167,-0.52083 -0.625,-0.84375c-0.07292,-0.32292 -0.10937,-0.90104 -0.10937,-1.73437v-8.57812c0,-0.79167 0.03125,-1.34896 0.09375,-1.67187c0.0625,-0.33333 0.25,-0.625 0.5625,-0.875c0.32292,-0.26042 0.69271,-0.39062 1.10938,-0.39062c0.42708,0 0.79167,0.11458 1.09375,0.34375c0.30208,0.22917 0.49479,0.52083 0.57813,0.875c0.08333,0.35417 0.125,0.91667 0.125,1.6875zM135.7923,32.54496v-2.125c0,-0.88542 0.03646,-1.48437 0.10938,-1.79687c0.07292,-0.3125 0.26042,-0.59375 0.5625,-0.84375c0.3125,-0.25 0.67708,-0.375 1.09375,-0.375c0.38542,0 0.72917,0.11458 1.03125,0.34375c0.3125,0.21875 0.51563,0.48958 0.60938,0.8125c0.09375,0.32292 0.14063,0.84375 0.14063,1.5625v2.42188h0.70313c0.86458,0 1.4375,0.10938 1.71875,0.32813c0.29167,0.20833 0.4375,0.51563 0.4375,0.92188c0,0.875 -0.72917,1.3125 -2.1875,1.3125h-0.67187v6.5625c0,0.88542 0.0625,1.48958 0.1875,1.8125c0.13542,0.32292 0.47396,0.48438 1.01563,0.48438c0.26042,0 0.55208,-0.03646 0.875,-0.10937c0.32292,-0.07292 0.5625,-0.10937 0.71875,-0.10937c0.36458,0 0.65625,0.11979 0.875,0.35938c0.21875,0.22917 0.32813,0.50521 0.32813,0.82813c0,1.16667 -1.22917,1.75 -3.6875,1.75c-1.1875,0 -2.0625,-0.21875 -2.625,-0.65625c-0.55208,-0.44792 -0.89583,-0.98958 -1.03125,-1.625c-0.13542,-0.63542 -0.20312,-1.45833 -0.20312,-2.46875v-6.82812h-0.46875c-1.05208,0 -1.57812,-0.42708 -1.57812,-1.28125c0,-0.85417 0.55208,-1.28125 1.65625,-1.28125z" fill="#000000" fill-rule="nonzero" stroke="none" stroke-width="1" stroke-linecap="square"/><path d="M1.03001,347.64352c0,-2.23136 0,-16.7205 0,-19.95984c0.67339,0.12341 1.34079,10.7549 2.00927,10.89728c0.95963,0.20439 1.92147,0.39715 2.90639,0.48885c4.38682,0.40842 8.84792,-0.28069 13.2161,-0.47385c2.83397,-0.12532 5.70492,0.0025 8.54485,0.0025c0.51637,0 3.60493,0.01276 3.99873,-0.04399c0.54768,-0.07893 0.99767,-0.43849 1.55097,-0.4876c2.27165,-0.20167 4.57196,0.04669 6.85804,0.04399c1.57686,-0.00186 3.08977,-0.2573 4.6529,-0.2438c3.35004,0 6.73774,0.1013 10.08071,-0.00302c1.85374,-0.05785 3.52228,-0.29647 5.35851,-0.2414c6.21685,0.18642 12.44601,0.67045 18.67309,0.47671c0.54543,-0.01697 1.06212,-0.21992 1.60676,-0.24848c5.50618,-0.28872 11.25303,-0.43798 16.7656,-0.47188c3.23142,-0.01988 6.46645,0.11469 9.69456,-0.00202c2.91277,-0.10531 7.21839,-0.64292 9.82417,-0.92105c0.92985,-0.09925 1.85191,-0.8043 2.78991,-0.78323c0.50596,0.01137 1.01052,-7.76285 1.51426,-7.7256c0,3.2621 0,16.67384 0,19.45265c0,1.19017 -0.86276,1.95042 -2.44116,1.95042c-16.18547,0 -107.62267,0 -115.70212,0c-1.12498,0 -1.90155,-0.65701 -1.90155,-1.70661z" fill="#000000" fill-rule="nonzero" stroke="#000000" stroke-width="5" stroke-linecap="butt"/><path d="M2.93158,281.50219c8.07945,0 99.51665,0 115.70212,0c1.5784,0 2.44116,1.74484 2.44116,4.47643c0,6.37767 0,18.13432 0,25.62121c-0.50372,0.08551 -1.0083,0.14848 -1.51426,0.17457c-0.938,0.04837 -1.86006,-0.45071 -2.78991,-0.6785c-2.60578,-0.63833 -6.9114,-1.87221 -9.82417,-2.11391c-3.22811,-0.26786 -6.46314,0.04099 -9.69456,-0.00463c-5.51257,-0.07782 -11.25941,-0.42039 -16.7656,-1.08304c-0.54464,-0.06555 -1.06133,-0.53135 -1.60676,-0.57029c-6.22709,-0.44464 -12.45626,0.66624 -18.67311,1.09411c-1.83623,0.12638 -3.50479,-0.42128 -5.35851,-0.55406c-3.34296,-0.23944 -6.73067,-0.00694 -10.08071,-0.00694c-1.56314,0.03096 -3.07604,-0.55527 -4.6529,-0.55955c-2.28609,-0.00621 -4.5864,0.56381 -6.85804,0.10096c-0.55329,-0.11274 -1.00329,-0.93795 -1.55097,-1.11911c-0.39379,-0.13025 -3.48236,-0.10096 -3.99873,-0.10096c-2.83993,0 -5.71087,0.29338 -8.54485,0.00575c-4.36819,-0.44333 -8.82929,-2.02492 -13.2161,-1.08755c-1.67104,0.35707 -3.27559,1.38185 -4.91567,2.07167c0,-7.43464 0,-16.62806 0,-21.74928c0,-2.40896 0.77657,-3.91687 1.90155,-3.91687z" data-paper-data="{&quot;index&quot;:null}" fill="#000000" fill-rule="nonzero" stroke="#000000" stroke-width="5" stroke-linecap="butt"/><path d="M1.03001,347.64352c0,-2.23136 0,-6.23701 0,-9.47635c1.64008,0.30056 3.24464,0.74706 4.91567,0.90264c4.38682,0.40842 8.84792,-0.28069 13.2161,-0.47385c2.83397,-0.12532 5.70492,0.0025 8.54485,0.0025c0.51637,0 3.60493,0.01276 3.99873,-0.04399c0.54768,-0.07893 0.99767,-0.43849 1.55097,-0.4876c2.27165,-0.20167 4.57196,0.04669 6.85804,0.04399c1.57686,-0.00186 3.08977,-0.2573 4.6529,-0.2438c3.35004,0 6.73774,0.1013 10.08071,-0.00302c1.85374,-0.05785 3.52228,-0.29647 5.35851,-0.2414c6.21685,0.18642 12.44601,0.67045 18.67309,0.47671c0.54543,-0.01697 1.06212,-0.21992 1.60676,-0.24848c5.50618,-0.28872 11.25303,-0.43798 16.7656,-0.47188c3.23142,-0.01988 6.46645,0.11469 9.69456,-0.00202c2.91277,-0.10531 7.21839,-0.64292 9.82417,-0.92105c0.92985,-0.09925 1.85191,-0.3167 2.78991,-0.29563c0.50596,0.01137 1.01052,0.03881 1.51426,0.07606c0,3.2621 0,8.38457 0,11.16338c0,1.19017 -0.86276,1.95042 -2.44116,1.95042c-16.18547,0 -107.62267,0 -115.70212,0c-1.12498,0 -1.90155,-0.65701 -1.90155,-1.70661z" fill="#000000" fill-rule="nonzero" stroke="#d9d9d9" stroke-width="5" stroke-linecap="butt"/><path d="M118.63369,272.57183c1.5784,0 2.44116,0.76024 2.44116,1.95042c0,2.77881 0,7.90128 0,11.16338c-0.50372,0.03726 -1.0083,0.06469 -1.51426,0.07606c-0.938,0.02108 -1.86006,-0.19638 -2.78991,-0.29563c-2.60578,-0.27813 -6.9114,-0.81574 -9.82417,-0.92105c-3.22811,-0.11671 -6.46314,0.01786 -9.69456,-0.00202c-5.51257,-0.03391 -11.25941,-0.18317 -16.7656,-0.47189c-0.54464,-0.02856 -1.06133,-0.23151 -1.60676,-0.24848c-6.22709,-0.19374 -12.45626,0.29029 -18.67309,0.47671c-1.83623,0.05506 -3.50479,-0.18355 -5.35851,-0.2414c-3.34296,-0.10432 -6.73067,-0.00303 -10.08071,-0.00303c-1.56314,0.01349 -3.07604,-0.24194 -4.6529,-0.2438c-2.28609,-0.00271 -4.5864,0.24566 -6.85804,0.04399c-0.55329,-0.04912 -1.00329,-0.40867 -1.55097,-0.4876c-0.39379,-0.05675 -3.48236,-0.04399 -3.99873,-0.04399c-2.83993,0 -5.71088,0.12782 -8.54485,0.0025c-4.36819,-0.19317 -8.82929,-0.88227 -13.2161,-0.47385c-1.67104,0.15558 -3.27559,0.60208 -4.91567,0.90264c0,-3.23933 0,-7.24499 0,-9.47635c0,-1.0496 0.77657,-1.70661 1.90155,-1.70661c0,0 99.51662,0.00001 115.70211,0.00001z" data-paper-data="{&quot;index&quot;:null}" fill="#000000" fill-rule="nonzero" stroke="#000000" stroke-width="5" stroke-linecap="butt"/><path d="M118.63369,272.57183c1.5784,0 2.44116,0.76024 2.44116,1.95042c0,2.77881 0,21.79799 0,25.06009c-0.50372,0.03726 -1.0083,-13.83202 -1.51426,-13.82065c-0.938,0.02108 -1.86006,-0.19638 -2.78991,-0.29563c-2.60578,-0.27813 -6.9114,-0.81574 -9.82417,-0.92105c-3.22811,-0.11671 -6.46314,0.01786 -9.69456,-0.00202c-5.51257,-0.03391 -11.25941,-0.18317 -16.7656,-0.47189c-0.54464,-0.02856 -1.06133,-0.23151 -1.60676,-0.24848c-6.22709,-0.19374 -12.45626,0.29029 -18.67309,0.47671c-1.83623,0.05506 -3.50479,-0.18355 -5.35851,-0.2414c-3.34296,-0.10432 -6.73067,-0.00303 -10.08071,-0.00303c-1.56314,0.01349 -3.07604,-0.24194 -4.6529,-0.2438c-2.28609,-0.00271 -4.5864,0.24566 -6.85804,0.04399c-0.55329,-0.04912 -1.00329,-0.40867 -1.55097,-0.4876c-0.39379,-0.05675 -3.48236,-0.04399 -3.99873,-0.04399c-2.83993,0 -5.71088,0.12782 -8.54485,0.0025c-4.36819,-0.19317 -8.82929,-0.88227 -13.2161,-0.47385c-1.67104,0.15558 -3.27559,14.9864 -4.91567,15.28696c0,-3.23933 0,-21.62931 0,-23.86067c0,-1.0496 0.77657,-1.70661 1.90155,-1.70661c0,0 99.51662,0.00001 115.70211,0.00001z" data-paper-data="{&quot;index&quot;:null}" fill="#000000" fill-rule="nonzero" stroke="#d9d9d9" stroke-width="5" stroke-linecap="butt"/><path d="M2.93158,272.57183c8.07945,0 99.51665,0 115.70212,0c1.5784,0 2.44116,0.76024 2.44116,1.95042c0,2.77881 0,19.11617 0,22.37827c-0.50372,0.03726 -1.0083,0.3085 -1.51426,0.31987c-0.938,0.02108 -24.68758,3.83656 -27.94135,3.79341c-1.16054,-0.01539 -88.94914,-4.15045 -90.58922,-3.84989c0,-3.23933 0,-20.6541 0,-22.88546c0,-1.0496 0.77657,-1.70661 1.90155,-1.70661z" data-paper-data="{&quot;index&quot;:null}" fill="#000000" fill-rule="nonzero" stroke="none" stroke-width="5" stroke-linecap="butt"/><path d="M2.93158,296.78587c8.07945,0 99.51665,0 115.70212,0c1.5784,0 2.44116,1.17366 2.44116,3.01107c0,4.28995 0,33.65192 0,38.68798c-0.50372,0.05752 -1.0083,-21.35399 -1.51426,-21.33643c-0.938,0.03254 -1.86006,-0.30317 -2.78991,-0.4564c-2.60578,-0.42938 -6.9114,-1.25935 -9.82417,-1.42192c-3.22811,-0.18018 -6.46314,0.02757 -9.69456,-0.00312c-5.51257,-0.05235 -11.25941,-0.28278 -16.7656,-0.72851c-0.54464,-0.04409 -1.06133,-0.35741 -1.60676,-0.38361c-6.22709,-0.29908 -12.45626,0.44815 -18.67311,0.73595c-1.83623,0.08502 -3.50479,-0.28338 -5.35851,-0.37269c-3.34296,-0.16107 -6.73067,-0.00466 -10.08071,-0.00466c-1.56314,0.02083 -3.07604,-0.37351 -4.6529,-0.37638c-2.28609,-0.00418 -4.5864,0.37925 -6.85804,0.06791c-0.55329,-0.07583 -1.00329,-0.63091 -1.55097,-0.75278c-0.39379,-0.08761 -3.48236,-0.06791 -3.99873,-0.06791c-2.83993,0 -5.71087,0.19735 -8.54485,0.00386c-4.36819,-0.2982 -8.82929,-1.36206 -13.2161,-0.73153c-1.67104,0.24019 -3.27559,23.13613 -4.91567,23.60014c0,-5.0009 0,-33.39151 0,-36.8363c0,-1.62038 0.77657,-2.63468 1.90155,-2.63468z" data-paper-data="{&quot;index&quot;:null}" fill="#000000" fill-rule="nonzero" stroke="#d9d9d9" stroke-width="5" stroke-linecap="butt"/><path d="M2.93158,296.78587c8.07945,0 99.51665,0 115.70212,0c1.5784,0 2.44116,1.17366 2.44116,3.01107c0,4.28995 0,29.5117 0,34.54776c-0.50372,0.05752 -1.0083,0.47626 -1.51426,0.49382c-0.938,0.03254 -24.68758,5.92291 -27.94135,5.8563c-1.16054,-0.02376 -88.94914,-6.4075 -90.58922,-5.94349c0,-5.0009 0,-31.88597 0,-35.33076c0,-1.62038 0.77657,-2.63468 1.90155,-2.63468z" data-paper-data="{&quot;index&quot;:null}" fill="#000000" fill-rule="nonzero" stroke="none" stroke-width="5" stroke-linecap="butt"/><path d="M2.93158,282.43258c8.07945,0 99.51665,0 115.70212,0c1.5784,0 2.44116,0.6569 2.44116,1.6853c0,2.40109 0,16.51772 0,19.3364c-0.50372,0.0322 -1.0083,0.26657 -1.51426,0.27639c-0.938,0.01821 -24.68758,3.31506 -27.94135,3.27777c-1.16054,-0.0133 -88.94914,-3.58628 -90.58922,-3.32658c0,-2.79901 0,-17.8466 0,-19.77465c0,-0.90693 0.77657,-1.47463 1.90155,-1.47463z" data-paper-data="{&quot;index&quot;:null}" fill="#000000" fill-rule="nonzero" stroke="none" stroke-width="5" stroke-linecap="butt"/><path d="M1.03001,347.64352c0,-2.23136 0,-9.65024 0,-12.88958c1.64008,0.30056 9.0886,-1.39649 10.24915,-1.41187c3.25377,-0.04314 107.34342,0.35911 108.28142,0.38019c0.50596,0.01137 1.01052,-2.64301 1.51426,-2.60576c0,3.2621 0,13.50442 0,16.28322c0,1.19017 -0.86276,1.95042 -2.44116,1.95042c-16.18547,0 -107.62267,0 -115.70212,0c-1.12498,0 -1.90155,-0.65701 -1.90155,-1.70661z" fill="#000000" fill-rule="nonzero" stroke="none" stroke-width="5" stroke-linecap="butt"/></g></g></svg>