<svg version="1.1" xmlns="http://www.w3.org/2000/svg" xmlns:xlink="http://www.w3.org/1999/xlink" width="37.47534" height="80" viewBox="0,0,37.47534,80"><g transform="translate(-18.69701,-141.38333)"><g data-paper-data="{&quot;isPaintingLayer&quot;:true}" fill-rule="nonzero" stroke-miterlimit="10" stroke-dasharray="" stroke-dashoffset="0" style="mix-blend-mode: normal"><path d="" fill="#000000" stroke="#000000" stroke-width="10.5" stroke-linecap="butt" stroke-linejoin="miter"/><path d="" fill="#000000" stroke="#00f000" stroke-width="5.5" stroke-linecap="butt" stroke-linejoin="miter"/><path d="" fill="#000000" stroke="none" stroke-width="0" stroke-linecap="butt" stroke-linejoin="miter"/><path d="" fill="#00f000" stroke="none" stroke-width="1" stroke-linecap="butt" stroke-linejoin="miter"/><path d="" fill="#00f000" stroke="none" stroke-width="1" stroke-linecap="butt" stroke-linejoin="miter"/><path d="" fill="#00f000" stroke="none" stroke-width="1" stroke-linecap="butt" stroke-linejoin="miter"/><path d="" fill="#00f000" stroke="none" stroke-width="1" stroke-linecap="butt" stroke-linejoin="miter"/><path d="" fill="#00f000" stroke="none" stroke-width="1" stroke-linecap="butt" stroke-linejoin="miter"/><path d="" fill="#00f000" stroke="none" stroke-width="1" stroke-linecap="butt" stroke-linejoin="miter"/><path d="" fill="#00f000" stroke="none" stroke-width="1" stroke-linecap="butt" stroke-linejoin="miter"/><path d="" fill="#00f000" stroke="none" stroke-width="1" stroke-linecap="butt" stroke-linejoin="miter"/><path d="M25.9873,165.93481c0.77701,0 2.27254,0 4.36407,0c0.05718,0.61781 0.12181,1.15164 0.17882,1.54958c1.07898,7.53089 2.23826,19.15278 7.39732,26.58091c-6.1279,0 -10.41619,0 -11.94022,0c-1.20705,0 -2.04028,-1.06771 -2.04028,-2.77343c0,-6.09093 0,-20.31715 0,-23.1119c0,0 0.83324,-2.24516 2.04029,-2.24516z" fill="#000000" stroke="#000000" stroke-width="10.5" stroke-linecap="butt" stroke-linejoin="miter"/><path d="M48.63592,165.93481c1.48164,0 2.28643,1.30927 2.28643,2.64136c0,3.14265 0,16.21313 0,22.3195c0,1.93416 -0.92569,3.16963 -2.61925,3.16963c-1.34858,0 -3.18405,0 -5.42672,0c-0.17873,-2.07359 -0.44103,-3.86024 -0.54352,-4.75494c-0.564,-4.9237 -2.30705,-9.64938 -3.09025,-14.543c-0.20537,-1.28321 0.37184,-3.23763 0.42101,-4.7089c0.04705,-1.40772 0.05836,-2.78692 0.00798,-4.12365c3.94976,0 7.03241,0 8.96432,0z" fill="#000000" stroke="#000000" stroke-width="10.5" stroke-linecap="butt" stroke-linejoin="miter"/><path d="M48.63591,165.93481c1.48164,0 2.28643,1.30927 2.28643,2.64136c0,3.14265 0,16.21313 0,22.3195c0,1.93416 -0.92569,3.16963 -2.61925,3.16963c-1.34857,0 -3.18404,0 -5.42671,0c-0.17873,-2.07359 -0.44103,-3.86024 -0.54352,-4.75494c-0.564,-4.9237 -2.30705,-9.64938 -3.09025,-14.543c-0.20537,-1.28321 0.37184,-3.23763 0.42101,-4.7089c0.04705,-1.40772 0.05836,-2.78692 0.00798,-4.12365c3.94976,0 7.0324,0 8.96431,0z" fill="#000000" stroke="#00f000" stroke-width="5.5" stroke-linecap="butt" stroke-linejoin="miter"/><path d="M48.63591,165.93481c1.48164,0 2.28643,1.30927 2.28643,2.64136c0,3.14265 0,16.21313 0,22.3195c0,1.93416 -0.92569,3.16963 -2.61925,3.16963c-1.34857,0 -3.18404,0 -5.42671,0c-0.17873,-2.07359 -0.44103,-3.86024 -0.54352,-4.75494c-0.564,-4.9237 -2.30705,-9.64938 -3.09025,-14.543c-0.20537,-1.28321 0.37184,-3.23763 0.42101,-4.7089c0.04705,-1.40772 0.05836,-2.78692 0.00798,-4.12365c3.94976,0 7.0324,0 8.96431,0z" fill="#000000" stroke="none" stroke-width="0" stroke-linecap="butt" stroke-linejoin="miter"/><path d="M23.94701,191.29188c0,-6.09093 0,-20.31716 0,-23.11191c0,-0.91205 0.83323,-2.24516 2.04028,-2.24516c0.777,0 9.23968,0 11.33121,0c0.05718,0.61781 -6.84533,1.15164 -6.78832,1.54958c1.07898,7.53089 2.23826,19.15278 7.39732,26.58091c-6.1279,0 -10.4162,0 -11.94023,0c-1.20705,0 -2.04028,-1.06771 -2.04028,-2.77343z" fill="#000000" stroke="#00f000" stroke-width="5.5" stroke-linecap="butt" stroke-linejoin="miter"/><path d="M23.94701,191.29188c0,-6.09093 0,-20.31716 0,-23.11191c0,-0.91205 0.83323,-2.24516 2.04028,-2.24516c0.777,0 2.27254,0 4.36407,0c0.05718,0.61781 0.12181,1.15164 0.17882,1.54958c1.07898,7.53089 2.23826,19.15278 7.39732,26.58091c-6.1279,0 -10.4162,0 -11.94023,0c-1.20705,0 -2.04028,-1.06771 -2.04028,-2.77343z" fill="#000000" stroke="none" stroke-width="0" stroke-linecap="butt" stroke-linejoin="miter"/><path d="M25.28686,191.29187c0,-6.09093 0,-20.31716 0,-23.11191c0,-0.91205 1.75953,-2.24516 4.30845,-2.24516c1.64079,0 6.67468,0 11.09136,0c0.12075,0.61781 1.59706,3.29538 1.71745,3.69332c2.27848,7.53089 4.45856,9.238 5.97408,24.43717c-12.94027,0 -15.56465,0 -18.78294,0c-2.54892,0 -4.30845,-1.06771 -4.30845,-2.77343z" fill="#000000" stroke="none" stroke-width="0" stroke-linecap="butt" stroke-linejoin="miter"/><path d="M34.63089,178.62561h-3.79179v-3.7918" fill="none" stroke="#00f000" stroke-width="2" stroke-linecap="round" stroke-linejoin="round"/><path d="M40.95055,181.15348h3.7918v3.7918" fill="none" stroke="#00f000" stroke-width="2" stroke-linecap="round" stroke-linejoin="round"/><path d="M43.15611,177.99365c-0.65148,-1.84104 -2.20194,-3.2191 -4.1067,-3.65007c-1.90476,-0.43097 -3.89743,0.14541 -5.27799,1.52667l-2.93232,2.75537M44.74235,181.15348l-2.93232,2.75537c-1.38056,1.38126 -3.37324,1.95764 -5.278,1.52666c-1.90476,-0.43097 -3.45522,-1.80903 -4.1067,-3.65007" fill="none" stroke="#00f000" stroke-width="2" stroke-linecap="round" stroke-linejoin="round"/><path d="M32.5,221.38333v-80h11.33333v80z" fill="none" stroke="none" stroke-width="none" stroke-linecap="butt" stroke-linejoin="miter"/></g></g></svg>