<?xml version="1.0" encoding="utf-8"?>
<!DOCTYPE svg PUBLIC "-//W3C//DTD SVG 20010904//EN" "http://www.w3.org/TR/2001/REC-SVG-20010904/DTD/svg10.dtd">
<svg version="1.0" xmlns="http://www.w3.org/2000/svg" width="980px" height="561px" viewBox="0 0 980 561" preserveAspectRatio="xMidYMid meet">
 <g fill="#ffffff">
  <path d="M446.4 535 c-13.7 -13.7 -25 -25.6 -25.2 -26.5 -0.3 -1.3 -9.8 -1.5 -88.8 -1.5 l-88.4 0 0 -33 0 -33 -20 0 -20 0 0 19 0 19 -40.8 0 -40.9 0 -15.6 -11.7 -15.6 -11.8 0 -50.2 -0.1 -50.3 21 0 21 0 0 -28.5 0 -28.5 -14 0 -14 0 0 15 0 15 -18 0 -18 0 0 19 0 19 -12.8 0 -12.9 0 -21.1 -12.7 -21.1 -12.8 0.2 -67.9 0.2 -67.9 21 -13.3 21 -13.3 12.8 -0.1 12.7 0 0 19 0 19 18 0 18 0 0 16.5 0 16.5 14 0 14 0 0 -26.5 0 -26.5 -20.5 0 -20.5 0 0 -48.9 0 -48.8 15.2 -13.2 15.3 -13.1 40.8 0 40.7 0 0 14 0 14 95.5 0 95.5 0 0 -25.7 0 -25.8 24.2 -23.7 24.3 -23.7 71.4 0 71.3 -0.1 34.9 34.1 34.9 34.1 0 15.4 0 15.4 21.5 0 21.5 0 0 -22.5 0 -22.5 29.1 0 29.1 0 25.9 25.1 25.9 25.1 0 36.9 0 36.9 -15.5 0 -15.5 0 0 11 0 11 27 0 27 0 0 15.5 0 15.5 31 0 31 0 0 -15.5 0 -15.5 22.8 0 22.7 0.1 19.8 17.2 19.7 17.2 0 22.1 0 22.1 -12 9.9 c-6.7 5.4 -15.5 12.7 -19.8 16.1 l-7.7 6.2 -22.7 0.1 -22.8 0 0 -15.5 0 -15.5 -31 0 -31 0 0 19.5 0 19.5 -27 0 -27 0 0 28 0 28 15.5 0 15.5 0 0 36.9 0 36.8 -26 25.7 -26 25.6 -29 0 -29 0 0 -23.5 0 -23.5 -10.5 0 -10.5 0 0 6.5 0 6.5 7 0 7 0 0 33.9 0 34 -13 12 -13.1 12.1 -34.5 0 -34.4 0 -12.5 -12.1 -12.5 -12.2 0 -33.8 0 -33.9 32 0 32 0 0 -6.5 0 -6.5 -35.5 0 -35.5 0 0 53 0 53 -46.9 0 -46.8 0 -24.9 -25z m112.6 -34 l0 -53 41.5 0 41.5 0 0 12.5 0 12.5 -32 0 -32 0 0 28.9 0 28.9 11.8 11.1 11.7 11.1 30 0 30.1 0 12.2 -11.1 12.2 -11.1 0 -28.9 0 -28.9 -7 0 -7 0 0 -12.5 0 -12.5 16.5 0 16.5 0 0 23.5 0 23.5 23.8 0 23.7 0 25.3 -24.6 25.2 -24.6 0 -31.9 0 -31.9 -15.5 0 -15.5 0 0 -34 0 -34 27 0 27 0 0 -19.5 0 -19.5 37 0 37 0 0 15.5 0 15.5 17.9 0 17.8 0 18.7 -15.2 18.6 -15.2 0 -17.6 0 -17.6 -4.2 -4 c-2.4 -2.3 -10.9 -9.8 -19 -16.7 l-14.6 -12.7 -17.6 0 -17.6 0 0 15.5 0 15.5 -37 0 -37 0 0 -15.5 0 -15.5 -27 0 -27 0 0 -17 0 -17 15.5 0 15.5 0 0 -31.7 0 -31.8 -25 -24.3 -25 -24.2 -23.7 0.2 -23.8 0.3 -0.3 22.3 -0.2 22.2 -27.5 0 -27.5 0 0 -16.2 0 -16.3 -34 -33.2 -33.9 -33.3 -67.1 0 -67.2 0 -23.3 22.7 -23.3 22.8 -0.1 26.8 -0.1 26.7 -101.5 0 -101.5 0 0 -14 0 -14 -35.7 0 -35.8 0.1 -14.2 12.2 -14.3 12.2 0 43.8 0 43.7 20.5 0 20.5 0 0 32.5 0 32.5 -20 0 -20 0 0 -16.5 0 -16.5 -18 0 -18 0 0 -19 0 -19 -7.7 0 -7.8 0 -20 12.8 -20 12.7 -0.2 63 -0.3 63 20.1 12.3 20 12.2 8 0 7.9 0 0 -19 0 -19 18 0 18 0 0 -15 0 -15 20 0 20 0 0 34.5 0 34.5 -21 0 -21 0 0 44.8 0 44.8 14.7 11.2 14.6 11.2 35.9 0 35.8 0 0 -19 0 -19 26 0 26 0 0 33 0 33 88.5 0 88.5 0 0 2.2 c0 1.6 7 9.3 24.2 26.5 l24.3 24.3 41.7 0 41.8 0 0 -53z"/>
  <path d="M278 430.5 l0 -32.5 -40 0 -40 0 0 -18.5 0 -18.5 -15 0 -15 0 0 -34.5 0 -34.5 22 0 22 0 0 14.5 0 14.5 26.5 0 26.5 0 0 -48.8 0 -48.7 -8.3 -8.3 -8.2 -8.2 -7.3 0 -7.4 0 -10.9 10.2 -10.9 10.2 0 13.8 0 13.8 -22 0 -22 0 0 -32.5 0 -32.5 15 0 15 0 0 -22.5 0 -22.5 59.5 0 59.5 0 0 11 0 11 -14 0 -14 0 0 47.9 0 47.8 9.3 12.2 9.2 12.1 55.8 0 55.7 0 0 -11.3 0 -11.3 -20 -19.3 -20 -19.3 0 -29.4 0 -29.4 -16.5 0 -16.5 0 0 -11 0 -11 27.5 0 27.5 0 0 26.8 0 26.7 28.8 28.8 28.7 28.7 25.3 0 25.2 0 0 47.5 0 47.5 -23.1 0 -23.1 0 -17.9 17.2 -17.9 17.2 0 38.8 0 38.8 -45.5 0 -45.5 0 0 -12.5 0 -12.5 15.3 0 15.2 0 11.8 -11.1 11.7 -11.1 0 -23.7 0 -23.7 14.5 -13.8 14.5 -13.8 0 -10.9 0 -10.9 -55 0 -55 0 0 72 0 72 -15.5 0 -15.5 0 0 -32.5z m25 -45.5 l0 -72 61 0 61 0 0 15.8 0 15.9 -14.5 14.2 -14.5 14.2 0 23.3 0 23.3 -12.5 12.2 -12.5 12.1 -14.5 0 -14.5 0 0 6.5 0 6.5 39.5 0 39.5 0 0 -37.9 0 -37.9 18.8 -18.1 18.7 -18.1 22.3 0 22.2 0 0 -41.5 0 -41.5 -24.2 0 -24.3 0 -29.7 -29.7 -29.8 -29.8 0 -25.7 0 -25.8 -21.5 0 -21.5 0 0 5 0 5 16.5 0 16.5 0 0 30.3 0 30.2 20 19.4 20 19.3 0 16.4 0 16.4 -61.2 -0.2 -61.2 -0.3 -9.8 -12.9 -9.8 -12.8 0 -52.9 0 -52.9 14 0 14 0 0 -5 0 -5 -53.5 0 -53.5 0 0 22.5 0 22.5 -15 0 -15 0 0 26.5 0 26.5 16 0 16 0 0 -12.9 0 -12.9 11.8 -11.1 11.7 -11.1 11.5 0 11.5 0 9.2 9.2 9.3 9.3 0 53.7 0 53.8 -32.5 0 -32.5 0 0 -14.5 0 -14.5 -16 0 -16 0 0 28.5 0 28.5 15 0 15 0 0 18.5 0 18.5 40 0 40 0 0 32.5 0 32.5 9.5 0 9.5 0 0 -72z"/>
  <path d="M559 381 l0 -30 -10 0 -10 0 0 -10 0 -10 25 0 25 0 0 29.5 0 29.5 43.3 0 43.2 0 10.3 -10.3 10.2 -10.2 0 -37.8 0 -37.7 -78.5 0 -78.5 0 0 -19 0 -19 26.3 0 26.2 0 29.3 -29.3 29.2 -29.2 0 -26.8 0 -26.7 27.5 0 27.5 0 0 2.9 c0 2.4 2 4.8 12.3 14.5 l12.2 11.6 6.8 0 6.7 0 0 17 0 17 -14.5 0 -14.5 0 0 -4.5 0 -4.5 -20.5 0 -20.5 0 0 3.8 c0 3.5 -1.2 5 -18 22.7 l-17.9 19 -0.1 13.3 0 13.2 38.5 0 38.5 0 0 -13 0 -13 41.5 0 41.5 0 0 16.5 0 16.5 -27 0 -27 0 0 52.5 0 52.5 -7.3 0 -7.3 0 -11.7 12.4 c-7.2 7.7 -11.7 13.2 -11.7 14.5 l0 2.1 -73 0 -73 0 0 -30z m140.2 22.5 c0.2 -0.8 5.8 -7.3 12.6 -14.5 l12.4 -13 6.4 0 6.4 0 0 -52.5 0 -52.5 27 0 27 0 0 -10.5 0 -10.5 -35.5 0 -35.5 0 0 13 0 13 -44.5 0 -44.5 0 0 -18.3 0 -18.2 18 -19 17.9 -19 0.1 -4.7 0 -4.8 26.5 0 26.5 0 0 4.5 0 4.5 8.5 0 8.5 0 0 -11 0 -11 -6 0 -6.1 0 -12.9 -12.6 c-7.5 -7.3 -13 -13.5 -13 -14.5 0 -1.8 -1.2 -1.9 -21.5 -1.9 l-21.5 0 0 25.7 0 25.8 -30.2 30.2 -30.3 30.3 -25.2 0 -25.3 0 0 13 0 13 78.5 0 78.5 0 0 42.7 0 42.8 -11.2 11.2 -11.3 11.3 -48.2 0 -48.3 0 0 -29.5 0 -29.5 -19 0 -19 0 0 4 0 4 10 0 10 0 0 30 0 30 66.9 0 c57.8 0 67 -0.2 67.3 -1.5z"/>
 </g>
 <g fill="#ffb6b6">
  <path d="M424 505.5 c0 -1.3 -10.5 -1.5 -88.5 -1.5 l-88.5 0 0 -33 0 -33 -23 0 c-19.8 0 -23 0.2 -23 1.5 0 0.8 -0.7 1.5 -1.5 1.5 -1.3 0 -1.5 -3.4 -1.5 -24.5 0 -21.1 0.2 -24.5 1.5 -24.5 0.8 0 1.5 0.7 1.5 1.5 0 1.3 5.1 1.5 40 1.5 l40 0 0 32.5 0 32.5 12.5 0 12.5 0 0 -11 0 -11 18 0 c15.3 0 18 0.2 18 1.5 0 0.8 -0.7 1.5 -1.5 1.5 -1.2 0 -1.5 1.7 -1.5 9.5 l0 9.5 42.5 0 c37.1 0 42.5 -0.2 42.5 -1.5 0 -0.8 0.7 -1.5 1.5 -1.5 1.3 0 1.5 3.4 1.5 25 0 21.6 -0.2 25 -1.5 25 -0.8 0 -1.5 -0.7 -1.5 -1.5z"/>
  <path d="M636 471.5 c0 -0.8 0.7 -1.5 1.5 -1.5 1.2 0 1.5 -1.7 1.5 -9.5 l0 -9.5 -38.5 0 c-33.6 0 -38.5 0.2 -38.5 1.5 0 0.8 -0.7 1.5 -1.5 1.5 -1.3 0 -1.5 -3.4 -1.5 -24.5 0 -21.1 0.2 -24.5 1.5 -24.5 0.8 0 1.5 0.7 1.5 1.5 0 1.3 8.4 1.5 70 1.5 61.6 0 70 -0.2 70 -1.5 0 -0.8 0.7 -1.5 1.5 -1.5 1.3 0 1.5 3.4 1.5 24.5 0 21.1 -0.2 24.5 -1.5 24.5 -0.8 0 -1.5 -0.7 -1.5 -1.5 0 -1.3 -2.2 -1.5 -13.5 -1.5 l-13.5 0 0 9.5 c0 7.8 0.3 9.5 1.5 9.5 0.8 0 1.5 0.7 1.5 1.5 0 1.3 -3 1.5 -21 1.5 -18 0 -21 -0.2 -21 -1.5z"/>
  <path d="M737 380.5 c0 -0.8 0.7 -1.5 1.5 -1.5 1.3 0 1.5 -6.5 1.5 -52.5 l0 -52.5 27 0 27 0 0 -13.5 0 -13.5 -38.5 0 c-33.6 0 -38.5 0.2 -38.5 1.5 0 0.8 -0.7 1.5 -1.5 1.5 -1.3 0 -1.5 -3.4 -1.5 -24.5 0 -21.1 0.2 -24.5 1.5 -24.5 0.8 0 1.5 0.7 1.5 1.5 0 1.2 1.9 1.5 11.5 1.5 l11.5 0 0 -14 c0 -11.8 -0.2 -14 -1.5 -14 -0.8 0 -1.5 -0.7 -1.5 -1.5 0 -1.3 2.9 -1.5 20.5 -1.5 17.6 0 20.5 0.2 20.5 1.5 0 0.8 -0.7 1.5 -1.5 1.5 -1.3 0 -1.5 2.2 -1.5 14 l0 14 27 0 27 0 0 15.5 0 15.5 34 0 c29.6 0 34 -0.2 34 -1.5 0 -0.8 0.7 -1.5 1.5 -1.5 1.3 0 1.5 3.4 1.5 24.5 0 21.1 -0.2 24.5 -1.5 24.5 -0.8 0 -1.5 -0.7 -1.5 -1.5 0 -1.3 -4.4 -1.5 -34 -1.5 l-34 0 0 19.5 0 19.5 -27 0 -27 0 0 31 c0 26.9 0.2 31 1.5 31 0.8 0 1.5 0.7 1.5 1.5 0 1.3 -2.9 1.5 -20.5 1.5 -17.6 0 -20.5 -0.2 -20.5 -1.5z"/>
  <path d="M133 359.5 c0 -0.8 0.7 -1.5 1.5 -1.5 1.3 0 1.5 -4.2 1.5 -31.5 l0 -31.5 -17 0 c-14.4 0 -17 0.2 -17 1.5 0 0.8 -0.7 1.5 -1.5 1.5 -1.3 0 -1.5 -3.4 -1.5 -24.5 0 -21.1 0.2 -24.5 1.5 -24.5 0.8 0 1.5 0.7 1.5 1.5 0 1.3 2.6 1.5 17 1.5 l17 0 0 -29.5 c0 -25.6 -0.2 -29.5 -1.5 -29.5 -0.8 0 -1.5 -0.7 -1.5 -1.5 0 -1.3 2.9 -1.5 20.5 -1.5 17.6 0 20.5 0.2 20.5 1.5 0 0.8 -0.7 1.5 -1.5 1.5 -1.3 0 -1.5 3.9 -1.5 29.5 l0 29.5 19 0 c16.2 0 19 -0.2 19 -1.5 0 -0.8 0.7 -1.5 1.5 -1.5 1.3 0 1.5 3.4 1.5 24.5 0 21.1 -0.2 24.5 -1.5 24.5 -0.8 0 -1.5 -0.7 -1.5 -1.5 0 -1.3 -2.8 -1.5 -19 -1.5 l-19 0 0 31.5 c0 27.3 0.2 31.5 1.5 31.5 0.8 0 1.5 0.7 1.5 1.5 0 1.3 -2.9 1.5 -20.5 1.5 -17.6 0 -20.5 -0.2 -20.5 -1.5z"/>
  <path d="M503 349.5 c0 -0.8 0.7 -1.5 1.5 -1.5 1.3 0 1.5 -5.6 1.5 -44.5 0 -38.9 -0.2 -44.5 -1.5 -44.5 -0.8 0 -1.5 -0.7 -1.5 -1.5 0 -1.3 3 -1.5 21 -1.5 18 0 21 0.2 21 1.5 0 0.8 -0.7 1.5 -1.5 1.5 -1.3 0 -1.5 2.4 -1.5 16 l0 16 23.5 0 23.5 0 0 23 c0 19.8 -0.2 23 -1.5 23 -0.8 0 -1.5 -0.7 -1.5 -1.5 0 -1.3 -3.1 -1.5 -22 -1.5 l-22 0 0 7 c0 5.6 0.3 7 1.5 7 0.8 0 1.5 0.7 1.5 1.5 0 1.3 -3 1.5 -21 1.5 -18 0 -21 -0.2 -21 -1.5z"/>
  <path d="M311 165.5 c0 -0.8 0.7 -1.5 1.5 -1.5 1.2 0 1.5 -1.6 1.5 -8 l0 -8 -56.5 0 c-49.6 0 -56.5 0.2 -56.5 1.5 0 0.8 -0.7 1.5 -1.5 1.5 -1.3 0 -1.5 -3.5 -1.5 -25.5 0 -22 0.2 -25.5 1.5 -25.5 0.8 0 1.5 0.7 1.5 1.5 0 1.3 11.6 1.5 98.5 1.5 86.9 0 98.5 -0.2 98.5 -1.5 0 -0.8 0.7 -1.5 1.5 -1.5 1.3 0 1.5 3.5 1.5 25.5 0 22 -0.2 25.5 -1.5 25.5 -0.8 0 -1.5 -0.7 -1.5 -1.5 0 -1.3 -3.4 -1.5 -24.5 -1.5 l-24.5 0 0 8 c0 6.4 0.3 8 1.5 8 0.8 0 1.5 0.7 1.5 1.5 0 1.3 -2.9 1.5 -20.5 1.5 -17.6 0 -20.5 -0.2 -20.5 -1.5z"/>
  <path d="M650 130.1 c0 -10.9 -0.3 -22.6 -0.6 -26 -0.7 -5.8 -0.6 -6.1 1.5 -6.1 1.6 0 2.1 0.6 2.1 2.5 l0 2.5 24.5 0 c21.1 0 24.5 -0.2 24.5 -1.5 0 -0.8 0.7 -1.5 1.5 -1.5 1.3 0 1.5 3.4 1.5 25 0 21.6 -0.2 25 -1.5 25 -0.8 0 -1.5 -0.7 -1.5 -1.5 0 -1.3 -3.4 -1.5 -24.5 -1.5 -21.1 0 -24.5 0.2 -24.5 1.5 0 0.8 -0.7 1.5 -1.5 1.5 -1.3 0 -1.5 -2.9 -1.5 -19.9z"/>
 </g>
 <g fill="#ff5c5c">
 </g>
 <g fill="#ff0000">
  <path d="M448.2 532.7 l-24.2 -24.2 0 -63 0 -63.1 17.9 -17.2 17.9 -17.2 51.1 0 51.1 0 0 104.5 0 104.5 -44.8 0 -44.7 0 -24.3 -24.3z"/>
  <path d="M586.8 544.9 l-11.8 -11.1 0 -31.9 0 -31.9 57 0 57 0 0 31.9 0 31.9 -12.2 11.1 -12.2 11.1 -33.1 0 -33 0 -11.7 -11.1z"/>
  <path d="M702 450.9 l0 -47.1 11.7 -12.4 11.7 -12.4 40.3 0 40.3 0 0 34.9 0 34.9 -25.2 24.6 -25.3 24.6 -26.7 0 -26.8 0 0 -47.1z"/>
  <path d="M108.7 464.8 l-14.7 -11.2 0 -47.8 0 -47.8 53.5 0 53.5 0 0 59 0 59 -38.8 0 -38.9 0 -14.6 -11.2z"/>
  <path d="M306 378.5 l0 -62.5 58 0 58 0 0 13.9 0 13.9 -14.5 13.8 -14.5 13.8 0 23.7 0 23.7 -11.7 11.1 -11.8 11.1 -31.7 0 -31.8 0 0 -62.5z"/>
  <path d="M586 342 l0 -51 56.5 0 56.5 0 0 40.7 0 40.8 -10.2 10.2 -10.3 10.3 -46.2 0 -46.3 0 0 -51z"/>
  <path d="M23.8 350.7 l-19.8 -12.2 0.3 -66 0.2 -66 20 -12.7 20 -12.8 10.8 0 10.7 0 0 19 0 19 18 0 18 0 0 53 0 53 -18 0 -18 0 0 19 0 19 -11.2 -0.1 -11.3 -0.1 -19.7 -12.1z"/>
  <path d="M209 274.2 l0 -49.8 10.9 -10.2 10.9 -10.2 10.4 0 10.3 0 8.3 8.3 8.2 8.2 0 51.8 0 51.7 -29.5 0 -29.5 0 0 -49.8z"/>
  <path d="M897 256.5 l0 -52.5 20.6 0 20.6 0 14.6 12.7 c8.1 6.9 16.6 14.4 19 16.7 l4.2 4 0 20.6 0 20.6 -18.6 15.2 -18.7 15.2 -20.8 0 -20.9 0 0 -52.5z"/>
  <path d="M295.3 277.9 l-9.3 -12.2 0 -50.8 0 -50.9 48 0 48 0 0 29.4 0 29.4 20 19.3 20 19.3 0 14.3 0 14.3 -58.7 0 -58.8 0 -9.2 -12.1z"/>
  <path d="M634 256.8 l0.1 -16.3 17.9 -19 c16.8 -17.7 18 -19.2 18 -22.7 l0 -3.8 23.5 0 23.5 0 0 39 0 39 -41.5 0 -41.5 0 0 -16.2z"/>
  <path d="M426.7 230.2 l-28.7 -28.7 0.1 -76 0.1 -76 23.3 -22.7 23.3 -22.8 70.2 0 70.1 0 33.9 33.2 33.9 33.3 0.1 65 0 65 -29.2 29.2 -29.3 29.3 -69.5 0 -69.5 0 -28.8 -28.8z"/>
  <path d="M95 146.3 l0 -46.8 14.3 -12.2 14.2 -12.2 38.8 -0.1 38.7 0 0 59 0 59 -53 0 -53 0 0 -46.7z"/>
  <path d="M714.2 164.4 l-12.2 -11.6 0.2 -47.1 0.3 -47.2 26.8 -0.3 26.8 -0.2 24.9 24.2 25 24.3 0 34.8 0 34.7 -39.7 0 -39.8 0 -12.3 -11.6z"/>
 </g>
</svg>