<svg version="1.1" xmlns="http://www.w3.org/2000/svg" xmlns:xlink="http://www.w3.org/1999/xlink" width="42.00001" height="44.75" viewBox="0,0,42.00001,44.75"><g transform="translate(-218.99999,-157.375)"><g data-paper-data="{&quot;isPaintingLayer&quot;:true}" fill-rule="nonzero" stroke-linejoin="miter" stroke-miterlimit="10" stroke-dasharray="" stroke-dashoffset="0" style="mix-blend-mode: normal"><path d="M220.75,198.625c0,-4.52692 0,-13.87508 0,-21.71429c0,-5.71431 0,-10.62682 0,-12.28571c0,-1.20083 0.92773,-2.25 2.10715,-2.25c0.29955,0 24.80203,0 33.42857,0c1.84541,0 2.96429,0.88986 2.96429,2.39286c0,7.55799 0,30.62036 0,34c0,1.1323 -0.88963,2.10714 -2.39285,2.10714c-7.38781,0 -29.59614,0 -33.85715,0c-1.40226,0 -2.25,-0.48893 -2.25,-2.25z" fill="#5b5b5b" stroke="#5b5b5b" stroke-width="2.5" stroke-linecap="butt"/><path d="M220.74999,195.375c0,-4.52692 0,-13.87508 0,-21.71429c0,-5.71431 0,-10.62682 0,-12.28571c0,-1.20083 0.92773,-2.25 2.10715,-2.25c0.29955,0 24.80203,0 33.42857,0c1.84541,0 2.96429,0.88986 2.96429,2.39286c0,7.55799 0,30.62036 0,34c0,1.1323 -0.88963,2.10714 -2.39285,2.10714c-7.38781,0 -29.59614,0 -33.85715,0c-1.40226,0 -2.25,-0.48893 -2.25,-2.25z" fill="#969696" stroke="#404040" stroke-width="3.5" stroke-linecap="butt"/><path d="M225.42856,191.08929c0,-5.74743 0,-22.10314 0,-25.28571c0,-1.04926 0.87738,-2 1.85714,-2c2.94835,0 18.03553,0 24.14286,0c1.59006,0 2.57143,1.12021 2.57143,2.42857c0,3.42127 0,18.96827 0,24.71429c0,0.77956 -0.31373,1.37872 -0.87409,1.74272c-0.4004,0.2601 -0.92672,0.40013 -1.55448,0.40013c-6.09762,0 -21.76599,0 -24.57143,0c-0.844,0 -1.57143,-0.74851 -1.57143,-2z" fill="#bdbdbd" stroke="#404040" stroke-width="0" stroke-linecap="butt"/><path d="M244.26575,188.0931h-8.24616c-0.87502,0 -1.44569,-0.19022 -1.71201,-0.57067c-0.26631,-0.38045 -0.39947,-0.72285 -0.39947,-1.0272c0,-0.60871 0.31387,-1.34107 0.9416,-2.19708c0.62773,-0.85601 1.80712,-1.99734 3.53815,-3.42401c1.73103,-1.44569 2.85335,-2.48241 3.36695,-3.11015c0.53262,-0.64676 0.79894,-1.36009 0.79894,-2.14001c0,-0.79894 -0.26632,-1.42668 -0.79894,-1.88321c-0.53262,-0.45653 -1.17938,-0.6848 -1.94027,-0.6848c-0.64676,0 -1.21743,0.1712 -1.71201,0.5136c-0.47556,0.3424 -0.82747,0.84649 -1.05574,1.51227c-0.22827,0.66579 -0.45654,1.15085 -0.68481,1.45521c-0.20925,0.28533 -0.55165,0.428 -1.0272,0.428c-0.39947,0 -0.73236,-0.12364 -0.99867,-0.37093c-0.26631,-0.26631 -0.39947,-0.61822 -0.39947,-1.05574c0,-1.21742 0.5136,-2.34926 1.5408,-3.39548c1.0272,-1.04622 2.49192,-1.56934 4.39415,-1.56934c2.03539,0 3.52864,0.49458 4.47976,1.48374c0.95112,0.98916 1.42667,2.14952 1.42667,3.48108c0,1.04622 -0.31387,2.04489 -0.9416,2.99601c-0.62773,0.93209 -1.60739,1.94027 -2.93895,3.02455c-1.33156,1.08427 -2.19708,1.80712 -2.59655,2.16854c-0.38045,0.36142 -0.81796,0.88454 -1.31254,1.56934h5.82083c0.89405,0 1.49325,0.12364 1.79761,0.37093c0.32338,0.24728 0.48507,0.58019 0.48507,0.99867c0,0.47555 -0.14267,0.83698 -0.428,1.08427c-0.28533,0.22827 -0.75139,0.34241 -1.39814,0.34241z" fill="#2d2d2d" stroke="none" stroke-width="1" stroke-linecap="square"/></g></g></svg>