<svg version="1.1" xmlns="http://www.w3.org/2000/svg" xmlns:xlink="http://www.w3.org/1999/xlink" width="286.78678" height="197.26709" viewBox="0,0,286.78678,197.26709"><defs><linearGradient x1="240" y1="180.00002" x2="240" y2="180.00002" gradientUnits="userSpaceOnUse" id="color-1"><stop offset="0" stop-color="#e7bc52"/><stop offset="1" stop-color="#efd85e"/></linearGradient><linearGradient x1="240" y1="180.00002" x2="240" y2="180.00002" gradientUnits="userSpaceOnUse" id="color-2"><stop offset="0" stop-color="#efd85e" stop-opacity="0"/><stop offset="1" stop-color="#efd85e" stop-opacity="0"/></linearGradient></defs><g transform="translate(-113.12313,134.09533)"><g data-paper-data="{&quot;isPaintingLayer&quot;:true}" fill-rule="nonzero" stroke-linejoin="miter" stroke-miterlimit="10" stroke-dasharray="" stroke-dashoffset="0" style="mix-blend-mode: normal"><path d="" fill="url(#color-1)" stroke="#000000" stroke-width="15" stroke-linecap="butt"/><path d="" fill="#e7bc52" stroke="none" stroke-width="0" stroke-linecap="butt"/><path d="" fill="url(#color-2)" stroke="#000000" stroke-width="15" stroke-linecap="butt"/><g fill="none" stroke="#392f0e" stroke-width="5" stroke-linecap="round"><path d=""/><path d=""/><path d=""/></g><path d="M113.12313,63.17177v-197.26709h286.78678v197.26709z" fill="none" stroke="none" stroke-width="NaN" stroke-linecap="butt"/><g><path d="M318.6038,-99.75497c41.37509,10.59727 1.84696,77.87142 13.75666,78.95933c3.41732,0.31216 30.3502,5.97759 24.40848,21.98108c-8.13849,21.92028 -95.53666,15.0701 -154.14543,13.25052c-14.715,-0.45684 -17.80738,14.1311 -36.99054,11.02506c-31.05863,-5.02885 -31.25148,-26.99887 -10.0499,-49.67751c9.17719,-9.81653 28.20108,-11.13372 39.94162,-23.67036c47.90983,-51.15846 97.85514,-58.32866 123.07913,-51.86812z" fill="#375b2b" stroke="#000000" stroke-width="19" stroke-linecap="butt"/><path d="M202.62351,14.43596c0,0 -17.80738,14.1311 -36.99054,11.02506c-31.05863,-5.02885 -31.25148,-26.99887 -10.0499,-49.67751c3.17739,-3.39876 5.94253,-11.28148 12.12263,-14.90562c11.66971,-6.84337 27.81899,-8.76474 27.81899,-8.76474c0,0 -16.40655,21.47818 -13.67311,31.20787c7.21786,25.69197 20.77193,31.11494 20.77193,31.11494z" fill="#173f25" stroke="none" stroke-width="0" stroke-linecap="butt"/><path d="M158.58171,17.78225c0,0 24.27933,-11.40006 47.21025,-20.00552c8.82659,-3.31242 17.45341,-6.21078 24.41885,-7.88554c44.67839,-13.76741 94.37088,-16.11665 94.37088,-16.11665" fill="none" stroke="#c3931d" stroke-width="19" stroke-linecap="round"/><path d="M166.58171,24.78226c0,0 46.5679,-21.86539 71.62912,-27.89106c44.67838,-13.76741 104.37088,-13.11665 104.37088,-13.11665" fill="none" stroke="#000000" stroke-width="19" stroke-linecap="round"/><path d="M318.6038,-99.75498c41.37509,10.59727 1.84696,77.87142 13.75666,78.95933c3.41732,0.31216 30.3502,5.97759 24.40848,21.98108c-8.13849,21.92028 -95.53666,15.0701 -154.14543,13.25052c-14.715,-0.45684 -17.80738,14.1311 -36.99054,11.02506c-31.05863,-5.02885 -31.25148,-26.99887 -10.0499,-49.67751c9.17719,-9.81653 28.20108,-11.13372 39.94162,-23.67036c47.90983,-51.15846 97.85514,-58.32866 123.07913,-51.86812z" fill="none" stroke="#000000" stroke-width="19" stroke-linecap="butt"/><path d="M331.97777,-41.75356c6.77157,1.32026 18.49255,1.99642 18.32424,-9.20002c-0.09672,-6.43458 -4.0974,-7.61612 -7.41958,-7.89729c-5.64527,-0.47778 -13.61541,-0.61816 -15.91683,0.91296c-1.74705,1.1623 5.95114,-12.07187 -14.67283,-11.54321c-2.53642,0.06502 -11.46479,4.58437 -8.59758,12.24802c0.49262,1.31672 -0.8461,-2.00028 -3.52063,-3.89511c-1.08529,-0.76889 -4.06121,-1.30361 -4.62738,-1.19952c-12.13555,2.23111 -22.79246,1.52072 -22.43707,6.07044c0.28344,3.62867 6.83031,7.72979 16.07002,11.40013c9.47255,3.76284 18.67328,6.57294 21.44469,8.45707c4.08507,2.77722 10.05774,-0.96994 13.63749,-3.8294c1.83566,-1.46631 4.97283,-2.0588 7.71549,-1.52406z" fill="#c7961d" stroke="#523109" stroke-width="6.5" stroke-linecap="butt"/></g></g></g></svg>