<svg version="1.1" xmlns="http://www.w3.org/2000/svg" xmlns:xlink="http://www.w3.org/1999/xlink" width="42.00001" height="44.75" viewBox="0,0,42.00001,44.75"><g transform="translate(-218.99999,-157.375)"><g data-paper-data="{&quot;isPaintingLayer&quot;:true}" fill-rule="nonzero" stroke-linejoin="miter" stroke-miterlimit="10" stroke-dasharray="" stroke-dashoffset="0" style="mix-blend-mode: normal"><path d="M220.75,198.625c0,-4.52692 0,-13.87508 0,-21.71429c0,-5.71431 0,-10.62682 0,-12.28571c0,-1.20083 0.92773,-2.25 2.10715,-2.25c0.29955,0 24.80203,0 33.42857,0c1.84541,0 2.96429,0.88986 2.96429,2.39286c0,7.55799 0,30.62036 0,34c0,1.1323 -0.88963,2.10714 -2.39285,2.10714c-7.38781,0 -29.59614,0 -33.85715,0c-1.40226,0 -2.25,-0.48893 -2.25,-2.25z" fill="#5b5b5b" stroke="#5b5b5b" stroke-width="2.5" stroke-linecap="butt"/><path d="M220.74999,195.375c0,-4.52692 0,-13.87508 0,-21.71429c0,-5.71431 0,-10.62682 0,-12.28571c0,-1.20083 0.92773,-2.25 2.10715,-2.25c0.29955,0 24.80203,0 33.42857,0c1.84541,0 2.96429,0.88986 2.96429,2.39286c0,7.55799 0,30.62036 0,34c0,1.1323 -0.88963,2.10714 -2.39285,2.10714c-7.38781,0 -29.59614,0 -33.85715,0c-1.40226,0 -2.25,-0.48893 -2.25,-2.25z" fill="#969696" stroke="#404040" stroke-width="3.5" stroke-linecap="butt"/><path d="M225.42856,191.08929c0,-5.74743 0,-22.10314 0,-25.28571c0,-1.04926 0.87738,-2 1.85714,-2c2.94835,0 18.03553,0 24.14286,0c1.59006,0 2.57143,1.12021 2.57143,2.42857c0,3.42127 0,18.96827 0,24.71429c0,0.77956 -0.31373,1.37872 -0.87409,1.74272c-0.4004,0.2601 -0.92672,0.40013 -1.55448,0.40013c-6.09762,0 -21.76599,0 -24.57143,0c-0.844,0 -1.57143,-0.74851 -1.57143,-2z" fill="#bdbdbd" stroke="#404040" stroke-width="0" stroke-linecap="butt"/><path d="M242.40611,172.81496h-6.61312c-1.35805,0 -2.03708,-0.50189 -2.03708,-1.50566c0,-0.41332 0.12794,-0.74792 0.3838,-1.00377c0.25586,-0.25586 0.80696,-0.3838 1.65328,-0.3838h7.43976c1.37773,0 2.22406,0.13777 2.53897,0.41332c0.31491,0.27555 0.47236,0.6495 0.47236,1.12187c0,0.3346 -0.08857,0.63966 -0.26571,0.91521c-0.15746,0.25586 -0.72823,1.01362 -1.71233,2.27326c-0.9841,1.25964 -1.82057,2.74563 -2.50944,4.45795c-0.68887,1.71233 -1.34821,4.12336 -1.97803,7.2331c-0.21651,1.16124 -0.77744,1.74185 -1.68281,1.74185c-0.47236,0 -0.86601,-0.15746 -1.18091,-0.47236c-0.31491,-0.3346 -0.47236,-0.83649 -0.47236,-1.50566c0,-1.27933 0.51173,-3.20815 1.53519,-5.78648c1.04315,-2.59801 2.51928,-5.09761 4.42843,-7.4988z" fill="#2d2d2d" stroke="none" stroke-width="1" stroke-linecap="square"/></g></g></svg>