<svg version="1.1" xmlns="http://www.w3.org/2000/svg" xmlns:xlink="http://www.w3.org/1999/xlink" width="49.05076" height="34.29687" viewBox="0,0,49.05076,34.29687"><g transform="translate(-215.47462,-162.85156)"><g data-paper-data="{&quot;isPaintingLayer&quot;:true}" fill="#ffffff" fill-rule="nonzero" stroke-linecap="square" stroke-linejoin="miter" stroke-miterlimit="10" stroke-dasharray="" stroke-dashoffset="0" style="mix-blend-mode: normal"><path d="M232.06835,168.85154v21.875c0,2.61458 -0.88021,3.92188 -2.64062,3.92188c-0.60417,0 -1.20312,-0.19792 -1.79687,-0.59375c-0.58333,-0.39583 -0.875,-1.42708 -0.875,-3.09375v-17.25c-3.35417,2.54167 -5.56771,3.8125 -6.64062,3.8125c-0.61458,0 -1.125,-0.20312 -1.53125,-0.60937c-0.40625,-0.41667 -0.60937,-0.94792 -0.60937,-1.59375c0,-0.46875 0.15104,-0.86979 0.45313,-1.20312c0.30208,-0.33333 0.94271,-0.72917 1.92188,-1.1875c3.26042,-1.60417 5.55208,-3.43229 6.875,-5.48437c0.54167,-0.84375 0.96354,-1.40104 1.26563,-1.67187c0.30208,-0.28125 0.71875,-0.42187 1.25,-0.42187c1.55208,0 2.32813,1.16667 2.32813,3.5zM255.916,170.3984h-10.5c-2.14583,0 -3.21875,-0.79687 -3.21875,-2.39062c0,-0.67708 0.19792,-1.21354 0.59375,-1.60937c0.39583,-0.39583 1.27083,-0.59375 2.625,-0.59375h11.82813c2.19792,0 3.54167,0.21354 4.03125,0.64063c0.5,0.42708 0.75,1.02604 0.75,1.79688c0,0.52083 -0.13021,1 -0.39062,1.4375c-0.26042,0.42708 -1.17708,1.63542 -2.75,3.625c-1.5625,1.98958 -2.89583,4.34896 -4,7.07813c-1.10417,2.71875 -2.15104,6.55208 -3.14062,11.5c-0.33333,1.84375 -1.22396,2.76563 -2.67187,2.76563c-0.75,0 -1.38021,-0.26042 -1.89062,-0.78125c-0.5,-0.53125 -0.75,-1.32292 -0.75,-2.375c0,-2.03125 0.82292,-5.09896 2.46875,-9.20312c1.65625,-4.11458 3.99479,-8.07812 7.01563,-11.89062z" stroke="#000000" stroke-width="5"/><path d="M232.06835,168.85154v21.875c0,2.61458 -0.88021,3.92188 -2.64062,3.92188c-0.60417,0 -1.20312,-0.19792 -1.79687,-0.59375c-0.58333,-0.39583 -0.875,-1.42708 -0.875,-3.09375v-17.25c-3.35417,2.54167 -5.56771,3.8125 -6.64062,3.8125c-0.61458,0 -1.125,-0.20312 -1.53125,-0.60937c-0.40625,-0.41667 -0.60937,-0.94792 -0.60937,-1.59375c0,-0.46875 0.15104,-0.86979 0.45313,-1.20312c0.30208,-0.33333 0.94271,-0.72917 1.92188,-1.1875c3.26042,-1.60417 5.55208,-3.43229 6.875,-5.48437c0.54167,-0.84375 0.96354,-1.40104 1.26563,-1.67187c0.30208,-0.28125 0.71875,-0.42187 1.25,-0.42187c1.55208,0 2.32813,1.16667 2.32813,3.5zM255.916,170.3984h-10.5c-2.14583,0 -3.21875,-0.79687 -3.21875,-2.39062c0,-0.67708 0.19792,-1.21354 0.59375,-1.60937c0.39583,-0.39583 1.27083,-0.59375 2.625,-0.59375h11.82813c2.19792,0 3.54167,0.21354 4.03125,0.64063c0.5,0.42708 0.75,1.02604 0.75,1.79688c0,0.52083 -0.13021,1 -0.39062,1.4375c-0.26042,0.42708 -1.17708,1.63542 -2.75,3.625c-1.5625,1.98958 -2.89583,4.34896 -4,7.07813c-1.10417,2.71875 -2.15104,6.55208 -3.14062,11.5c-0.33333,1.84375 -1.22396,2.76563 -2.67187,2.76563c-0.75,0 -1.38021,-0.26042 -1.89062,-0.78125c-0.5,-0.53125 -0.75,-1.32292 -0.75,-2.375c0,-2.03125 0.82292,-5.09896 2.46875,-9.20312c1.65625,-4.11458 3.99479,-8.07812 7.01563,-11.89062z" stroke="none" stroke-width="0"/></g></g></svg>