<svg version="1.1" xmlns="http://www.w3.org/2000/svg" xmlns:xlink="http://www.w3.org/1999/xlink" width="40.70794" height="60.96321" viewBox="0,0,40.70794,60.96321"><g transform="translate(-219.89603,-141.59524)"><g data-paper-data="{&quot;isPaintingLayer&quot;:true}" fill-rule="nonzero" stroke-linejoin="miter" stroke-miterlimit="10" stroke-dasharray="" stroke-dashoffset="0" style="mix-blend-mode: normal"><path d="M227.33079,198.93112c-0.05851,-1.90152 -0.26185,-8.51006 -0.26185,-8.51006h20.85323c0,0 0.93306,3.67394 1.38168,5.44036c0.42594,1.67711 4.77491,4.42123 0.9185,4.43647c-2.65957,0.01051 -7.21305,0.62913 -11.49131,0.76127c-4.65938,0.14391 -8.99222,-0.19121 -10.19668,-0.18044c-2.66458,0.02382 -1.17408,-0.98896 -1.20357,-1.94759z" fill="#53433f" stroke="#000000" stroke-width="3" stroke-linecap="butt"/><path d="M236.33908,160.95238v13.71429" fill="none" stroke="#373c38" stroke-width="6" stroke-linecap="round"/><path d="M232.05336,143.59524l0.71429,15.42857" fill="none" stroke="#000000" stroke-width="4" stroke-linecap="round"/><path d="M257.81847,151.51104c0.90701,2.66512 1.58963,9.09381 -1.27824,11.40123c-2.66969,2.14797 -17.30961,1.92905 -25.80146,1.6076c-0.48312,-0.01828 -2.18042,-0.34478 -2.68026,-0.84049c-1.56297,-1.55001 -3.02044,-5.2345 2.90381,-9.61195c6.23903,-4.61004 20.00477,-4.48281 25.16584,-3.87442c0.37742,0.04449 1.45149,0.6163 1.6903,1.31803z" fill="#bcb69e" stroke="#0c0c0a" stroke-width="4" stroke-linecap="butt"/><path d="M257.4989,150.74767c1.02038,1.88118 2.24197,9.58945 -0.95864,12.1646c-1.67476,1.34747 -8.06023,1.76349 -14.68346,1.80707c-0.62037,0.00408 -0.93965,-0.03946 -0.93965,-0.03946c0,0 -0.75286,-2.12636 -0.93269,-7.6171c-0.10545,-3.21956 0.49868,-6.43768 0.49868,-6.43768c0,0 0.87964,-0.14073 1.32222,-0.20183c5.6679,-0.78241 11.55464,-0.57253 14.46689,-0.21287c0.31818,0.0393 1.09201,0.28904 1.22666,0.53728z" fill="#508a89" stroke="none" stroke-width="0" stroke-linecap="butt"/><path d="M224.52415,190.95638c0,0 0,-7.91866 0,-11.00113c0,-2.23483 2.04781,-5.78264 6.06472,-5.78264c6.6386,0 16.77521,0 18.19417,0c1.8888,0 5.35953,1.51229 5.50056,4.9364c0.13066,3.17215 0.14104,11.84736 0.14104,11.84736z" fill="#bab89c" stroke="#000000" stroke-width="3.5" stroke-linecap="butt"/><path d="M240.60271,174.17262c0,0 7.45057,0 8.18032,0c1.88879,0 5.35953,1.51229 5.50057,4.9364c0.13066,3.17215 0.14104,11.84736 0.14104,11.84736h-13.82193c0,0 -0.73468,-4.38561 -0.56416,-9.44968c0.12554,-3.72826 0.56416,-7.33408 0.56416,-7.33408z" fill="#897d70" stroke="#000000" stroke-width="3" stroke-linecap="butt"/><path d="M221.39603,195.58525c0,-2.81122 2.27894,-5.09016 5.09016,-5.09016c2.81122,0 5.09016,2.27894 5.09016,5.09016c0,2.81122 -2.27894,5.09016 -5.09016,5.09016c-2.81122,0 -5.09016,-2.27894 -5.09016,-5.09016z" fill="#53433f" stroke="#000000" stroke-width="3" stroke-linecap="butt"/><path d="M245.77147,194.5099c0,-2.99258 2.42596,-5.41855 5.41855,-5.41855c2.99259,0 5.41856,2.42597 5.41856,5.41855c0,2.99258 -2.42597,5.41856 -5.41856,5.41856c-2.99258,0 -5.41855,-2.42598 -5.41855,-5.41856z" fill="#000000" stroke="#000000" stroke-width="3" stroke-linecap="butt"/><path d="M250.87775,195.92171c0,2.0404 -2.02164,3.69447 -4.51546,3.69447c-1.74454,0 -3.42221,0.66835 -4.17419,-0.51655c-0.32298,-0.50892 -0.34127,-2.56487 -0.34127,-3.17792c0,-0.76051 -0.70433,-2.78095 -0.22285,-3.36847c0.8103,-0.98875 3.17401,-0.326 4.73831,-0.326c2.49382,0 4.51546,1.65407 4.51546,3.69447z" fill="#000000" stroke="#000000" stroke-width="3" stroke-linecap="butt"/><path d="M247.22893,157.15221c0.09907,1.67179 -3.02062,3.03236 -5.00692,3.03236c-1.9863,0 -2.18612,-1.35764 -2.18612,-3.03236c0,-1.67472 -0.50538,-1.763 1.48092,-1.763c1.9863,0 5.57108,-0.61693 5.71212,1.763z" fill="#65bfb7" stroke="none" stroke-width="0" stroke-linecap="butt"/><path d="M257.87053,156.65165c0,1.42721 0.24097,1.35477 -1.33406,1.67739c-0.27315,0.05595 -1.9689,0.50873 -2.26246,0.50873c-1.98631,0 -3.59653,-0.51139 -3.59653,-2.18612c0,-1.67472 1.76934,-1.7777 3.73757,-2.04508c3.11463,-0.42312 3.45548,0.37035 3.45548,2.04508z" fill="#65bfb7" stroke="none" stroke-width="0" stroke-linecap="butt"/><path d="M257.4989,150.74767c1.02038,1.88118 2.24197,9.58945 -0.95865,12.1646c-1.67476,1.34747 -8.06023,1.76348 -14.68346,1.80707c-0.62038,0.00408 -0.93965,-0.03946 -0.93965,-0.03946c0,0 -0.75286,-2.12637 -0.93269,-7.6171c-0.10544,-3.21956 0.49868,-6.43767 0.49868,-6.43767c0,0 0.87964,-0.14074 1.32222,-0.20184c5.6679,-0.78241 11.55464,-0.57253 14.46689,-0.21287c0.31818,0.03929 1.09201,0.28903 1.22666,0.53727z" fill="none" stroke="#0c0c0a" stroke-width="4" stroke-linecap="butt"/></g></g></svg>