<svg version="1.1" xmlns="http://www.w3.org/2000/svg" xmlns:xlink="http://www.w3.org/1999/xlink" width="38.75" height="38.75" viewBox="0,0,38.75,38.75"><g transform="translate(-227.60174,-161.28416)"><g data-paper-data="{&quot;isPaintingLayer&quot;:true}" fill-rule="nonzero" stroke-linecap="butt" stroke-linejoin="miter" stroke-miterlimit="10" stroke-dasharray="" stroke-dashoffset="0" style="mix-blend-mode: normal"><path d="M231.35174,180.65917c0,-8.62945 6.99555,-15.625 15.625,-15.625c8.62945,0 15.625,6.99555 15.625,15.625c0,8.62945 -6.99555,15.625 -15.625,15.625c-8.62945,0 -15.625,-6.99555 -15.625,-15.625z" fill="#000000" stroke="#000000" stroke-width="7.5"/><path d="M231.35174,180.65917c0,-8.62945 6.99555,-15.625 15.625,-15.625c8.62945,0 15.625,6.99555 15.625,15.625c0,8.62945 -6.99555,15.625 -15.625,15.625c-8.62945,0 -15.625,-6.99555 -15.625,-15.625z" fill="#000000" stroke="#00f000" stroke-width="3.5"/><path d="M231.35174,180.65917c0,-8.62945 6.99555,-15.625 15.625,-15.625c8.62945,0 15.625,6.99555 15.625,15.625c0,8.62945 -6.99555,15.625 -15.625,15.625c-8.62945,0 -15.625,-6.99555 -15.625,-15.625z" fill="#000000" stroke="#00f000" stroke-width="2"/><g fill="#00f000" stroke="none" stroke-width="0"><path d="M249.80877,190.24046l-9.9232,-9.4845l1.70005,-1.77868l9.9232,9.4845z"/><path d="M239.66374,180.56237l9.9232,-9.4845l1.70006,1.77869l-9.92321,9.4845z" data-paper-data="{&quot;index&quot;:null}"/></g></g></g></svg>