<svg version="1.1" xmlns="http://www.w3.org/2000/svg" xmlns:xlink="http://www.w3.org/1999/xlink" width="78.5" height="66.73391" viewBox="0,0,78.5,66.73391"><g transform="translate(-199.875,-142.14109)"><g data-paper-data="{&quot;isPaintingLayer&quot;:true}" fill-rule="nonzero" stroke-linecap="butt" stroke-linejoin="miter" stroke-miterlimit="10" stroke-dasharray="" stroke-dashoffset="0" style="mix-blend-mode: normal"><path d="M232.7408,152.32076c2.31579,-0.61693 4.74909,-0.94576 7.2592,-0.94576c15.53302,0 28.125,12.59198 28.125,28.125c0,15.53302 -12.59198,28.125 -28.125,28.125c-15.53302,0 -28.125,-12.59198 -28.125,-28.125c0,-5.41269 1.52901,-10.46826 4.17866,-14.75834" fill="none" stroke="#246fa0" stroke-width="2.5"/><path d="M220.02679,158.75c0,-2.73677 2.2186,-4.95535 4.95536,-4.95535c2.73676,0 4.95535,2.21858 4.95535,4.95535c0,2.73677 -2.21859,4.95535 -4.95535,4.95535c-2.73676,0 -4.95536,-2.21858 -4.95536,-4.95535z" fill="#246fa0" stroke="#246fa0" stroke-width="0.5"/><path d="M199.875,208.39109v-66.25h78.5v66.25z" fill="none" stroke="none" stroke-width="NaN"/></g></g></svg>