<svg version="1.1" xmlns="http://www.w3.org/2000/svg" xmlns:xlink="http://www.w3.org/1999/xlink" width="373" height="54" viewBox="0,0,373,54"><g transform="translate(-80,-185.07169)"><g data-paper-data="{&quot;isPaintingLayer&quot;:true}" fill-rule="nonzero" stroke-linejoin="miter" stroke-miterlimit="10" stroke-dasharray="" stroke-dashoffset="0" style="mix-blend-mode: normal"><path d="M277.21131,217.86001c0.29401,0 0.5472,0.10618 0.75953,0.31853c0.21234,0.20417 0.31852,0.45327 0.31852,0.74728c0,0.29401 -0.10618,0.55128 -0.31852,0.77179c-0.21234,0.21234 -0.46553,0.31851 -0.75953,0.31851c-0.29401,0 -0.54719,-0.10617 -0.75954,-0.31851c-0.21234,-0.21234 -0.31852,-0.46961 -0.31852,-0.77179c0,-0.29401 0.10618,-0.54312 0.31852,-0.74728c0.21234,-0.21234 0.46552,-0.31853 0.75954,-0.31853z" fill="#d5d5d5" stroke="#b2b2b2" stroke-width="0" stroke-linecap="butt"/><path d="M80,239.07169v-54h373v54z" fill="none" stroke="none" stroke-width="0" stroke-linecap="butt"/><path d="M86.11061,211.31324c0,0.2863 0.12327,0.53681 0.3698,0.75153c0.25449,0.21472 0.89468,0.44535 1.92058,0.69189c1.03385,0.24653 1.79731,0.505 2.29038,0.77539c0.49307,0.27039 0.85094,0.62429 1.07361,1.06169c0.22267,0.42945 0.33401,0.88275 0.33401,1.35991c0,0.95432 -0.36185,1.73369 -1.08554,2.33809c-0.72369,0.6044 -1.70585,0.90661 -2.94648,0.90661c-1.36786,0 -2.38979,-0.32606 -3.06577,-0.97818c-0.66803,-0.66008 -1.00204,-1.34003 -1.00204,-2.03987c0,-0.23063 0.0835,-0.4374 0.25051,-0.62031c0.17496,-0.18291 0.40161,-0.27437 0.67996,-0.27437c0.25449,0 0.44535,0.07555 0.57259,0.22665c0.12724,0.1511 0.27835,0.43342 0.4533,0.84696c0.38173,0.8748 1.06169,1.3122 2.03987,1.3122c0.58055,0 1.06964,-0.13122 1.46727,-0.39366c0.40559,-0.27039 0.60838,-0.63622 0.60838,-1.09747c0,-0.35787 -0.13917,-0.66405 -0.41752,-0.91854c-0.27039,-0.25449 -0.90263,-0.49704 -1.89672,-0.72767c-0.98613,-0.23063 -1.682,-0.44933 -2.08758,-0.6561c-0.39764,-0.20677 -0.74358,-0.505 -1.03783,-0.89468c-0.29425,-0.39764 -0.44137,-0.8907 -0.44137,-1.4792c0,-0.86684 0.34196,-1.55873 1.0259,-2.07566c0.68393,-0.51693 1.61837,-0.77539 2.80333,-0.77539c1.20881,0 2.11939,0.27437 2.73175,0.8231c0.61236,0.54874 0.91854,1.10145 0.91854,1.65814c0,0.23858 -0.09145,0.46126 -0.27437,0.66803c-0.17496,0.19882 -0.39764,0.29823 -0.66803,0.29823c-0.25449,0 -0.44535,-0.07157 -0.57259,-0.21472c-0.12724,-0.14315 -0.27437,-0.38173 -0.44137,-0.71574c-0.34992,-0.69984 -0.95432,-1.04976 -1.81322,-1.04976c-0.50102,0 -0.92649,0.11134 -1.27641,0.33401c-0.34196,0.21472 -0.51295,0.50102 -0.51295,0.85889zM99.01055,215.79857h-3.72186c0.01591,0.70779 0.20677,1.24062 0.57259,1.59849c0.37378,0.35787 0.81913,0.53681 1.33605,0.53681c0.63622,0 1.23267,-0.27835 1.78936,-0.83503c0.23063,-0.23063 0.39764,-0.37378 0.50102,-0.42945c0.11134,-0.05567 0.2346,-0.0835 0.3698,-0.0835c0.17496,0 0.32208,0.05567 0.44137,0.16701c0.11929,0.10338 0.17894,0.2346 0.17894,0.39366c0,0.42149 -0.29027,0.87082 -0.87082,1.34798c-0.58055,0.46921 -1.37184,0.70381 -2.37388,0.70381c-1.27243,0 -2.23868,-0.35787 -2.89876,-1.07361c-0.65212,-0.72369 -0.97818,-1.65416 -0.97818,-2.7914c0,-1.15314 0.32606,-2.08361 0.97818,-2.7914c0.66008,-0.71574 1.57463,-1.07361 2.74368,-1.07361c1.12133,0 1.9842,0.33799 2.5886,1.01397c0.61236,0.67598 0.91854,1.40763 0.91854,2.19495c0,0.34196 -0.10338,0.61633 -0.31016,0.8231c-0.19882,0.19882 -0.62031,0.29823 -1.26448,0.29823zM95.28869,214.72495h3.45943c-0.02386,-0.63622 -0.19882,-1.11735 -0.52488,-1.44342c-0.32606,-0.33401 -0.72767,-0.50102 -1.20483,-0.50102c-1.00204,0 -1.57861,0.64815 -1.72971,1.94444zM102.16603,217.62371v-4.86705c0,-0.85889 0.31413,-1.28834 0.9424,-1.28834c0.59645,0 0.90263,0.39764 0.91854,1.19291c0.38968,-0.79527 0.93444,-1.19291 1.63428,-1.19291c0.36582,0 0.74358,0.09941 1.13326,0.29823c0.38968,0.19086 0.58452,0.4533 0.58452,0.78732c0,0.23063 -0.07953,0.42149 -0.23858,0.57259c-0.1511,0.1511 -0.31811,0.22665 -0.50102,0.22665c-0.10338,0 -0.29027,-0.03976 -0.56067,-0.11929c-0.26244,-0.08748 -0.48511,-0.13122 -0.66803,-0.13122c-0.4533,0 -0.7913,0.23063 -1.01397,0.69189c-0.22267,0.46126 -0.33401,1.34798 -0.33401,2.66018v1.09747c0,0.48511 -0.01988,0.81118 -0.05965,0.97818c-0.03976,0.16701 -0.14315,0.32208 -0.31016,0.46523c-0.16701,0.1352 -0.35787,0.20279 -0.57259,0.20279c-0.20677,0 -0.39366,-0.05965 -0.56067,-0.17894c-0.16701,-0.12724 -0.27437,-0.27437 -0.32208,-0.44137c-0.04772,-0.17496 -0.07157,-0.49307 -0.07157,-0.95432zM111.1153,216.97954l1.64621,-4.50918c0.16701,-0.4533 0.31811,-0.73165 0.4533,-0.83503c0.14315,-0.11134 0.30618,-0.16701 0.48909,-0.16701c0.25449,0 0.46523,0.08748 0.63224,0.26244c0.16701,0.17496 0.25051,0.35389 0.25051,0.53681c0,0.16701 -0.09543,0.48511 -0.2863,0.95432l-1.83707,4.52111c-0.24653,0.64417 -0.46126,1.04976 -0.64417,1.21676c-0.18291,0.15906 -0.41752,0.23858 -0.70381,0.23858c-0.36582,0 -0.63224,-0.10338 -0.79925,-0.31016c-0.16701,-0.20677 -0.36185,-0.5885 -0.58452,-1.14519l-1.81322,-4.47339c-0.19086,-0.4533 -0.2863,-0.77937 -0.2863,-0.97818c0,-0.19882 0.08748,-0.38571 0.26244,-0.56067c0.17496,-0.17496 0.38968,-0.26244 0.64417,-0.26244c0.29425,0 0.49704,0.0835 0.60838,0.25051c0.11929,0.15906 0.26244,0.47318 0.42945,0.9424zM121.05684,215.79857h-3.72186c0.01591,0.70779 0.20677,1.24062 0.57259,1.59849c0.37378,0.35787 0.81913,0.53681 1.33605,0.53681c0.63622,0 1.23267,-0.27835 1.78936,-0.83503c0.23063,-0.23063 0.39764,-0.37378 0.50102,-0.42945c0.11134,-0.05567 0.2346,-0.0835 0.3698,-0.0835c0.17496,0 0.32208,0.05567 0.44137,0.16701c0.11929,0.10338 0.17894,0.2346 0.17894,0.39366c0,0.42149 -0.29027,0.87082 -0.87082,1.34798c-0.58055,0.46921 -1.37184,0.70381 -2.37388,0.70381c-1.27243,0 -2.23868,-0.35787 -2.89876,-1.07361c-0.65212,-0.72369 -0.97818,-1.65416 -0.97818,-2.7914c0,-1.15314 0.32606,-2.08361 0.97818,-2.7914c0.66008,-0.71574 1.57463,-1.07361 2.74368,-1.07361c1.12133,0 1.9842,0.33799 2.5886,1.01397c0.61236,0.67598 0.91854,1.40763 0.91854,2.19495c0,0.34196 -0.10338,0.61633 -0.31016,0.8231c-0.19882,0.19882 -0.62031,0.29823 -1.26448,0.29823zM117.33497,214.72495h3.45943c-0.02386,-0.63622 -0.19882,-1.11735 -0.52488,-1.44342c-0.32606,-0.33401 -0.72767,-0.50102 -1.20483,-0.50102c-1.00204,0 -1.57861,0.64815 -1.72971,1.94444zM124.21233,217.62371v-4.86705c0,-0.85889 0.31413,-1.28834 0.9424,-1.28834c0.59645,0 0.90263,0.39764 0.91854,1.19291c0.38968,-0.79527 0.93444,-1.19291 1.63428,-1.19291c0.36582,0 0.74358,0.09941 1.13326,0.29823c0.38968,0.19086 0.58452,0.4533 0.58452,0.78732c0,0.23063 -0.07953,0.42149 -0.23858,0.57259c-0.1511,0.1511 -0.31811,0.22665 -0.50102,0.22665c-0.10338,0 -0.29027,-0.03976 -0.56067,-0.11929c-0.26244,-0.08748 -0.48511,-0.13122 -0.66803,-0.13122c-0.4533,0 -0.7913,0.23063 -1.01397,0.69189c-0.22267,0.46126 -0.33401,1.34798 -0.33401,2.66018v1.09747c0,0.48511 -0.01988,0.81118 -0.05965,0.97818c-0.03976,0.16701 -0.14315,0.32208 -0.31016,0.46523c-0.16701,0.1352 -0.35787,0.20279 -0.57259,0.20279c-0.20677,0 -0.39366,-0.05965 -0.56067,-0.17894c-0.16701,-0.12724 -0.27437,-0.27437 -0.32208,-0.44137c-0.04772,-0.17496 -0.07157,-0.49307 -0.07157,-0.95432zM134.97741,211.63533v-0.54874c0,-0.97023 0.20279,-1.61837 0.60838,-1.94444c0.40559,-0.32606 0.98216,-0.48909 1.72971,-0.48909c1.20881,0 1.81322,0.27039 1.81322,0.81118c0,0.16701 -0.05965,0.31811 -0.17894,0.4533c-0.11134,0.12724 -0.26244,0.19086 -0.4533,0.19086c-0.03976,0 -0.16303,-0.01193 -0.3698,-0.03579c-0.19882,-0.03181 -0.31811,-0.04772 -0.35787,-0.04772c-0.26244,0 -0.47716,0.07157 -0.64417,0.21472c-0.16701,0.1352 -0.25051,0.4533 -0.25051,0.95432v0.44137h0.47716c0.71574,0 1.07361,0.22267 1.07361,0.66803c0,0.22267 -0.0676,0.39764 -0.20279,0.52488c-0.1352,0.11929 -0.42547,0.17894 -0.87082,0.17894h-0.47716v4.61654c0,0.35787 -0.01591,0.62826 -0.04772,0.81118c-0.02386,0.18291 -0.10736,0.35787 -0.25051,0.52488c-0.1352,0.15906 -0.34992,0.23858 -0.64417,0.23858c-0.3022,0 -0.53681,-0.09941 -0.70381,-0.29823c-0.16701,-0.19882 -0.25051,-0.62429 -0.25051,-1.27641v-4.61654h-0.52488c-0.57259,0 -0.85889,-0.2346 -0.85889,-0.70381c0,-0.44535 0.31413,-0.66803 0.9424,-0.66803zM139.38652,216.37116v-3.32821c0,-0.41354 0.01591,-0.71177 0.04772,-0.89468c0.03181,-0.18291 0.12724,-0.34196 0.2863,-0.47716c0.16701,-0.1352 0.36582,-0.20279 0.59645,-0.20279c0.22267,0 0.41752,0.06362 0.58452,0.19086c0.17496,0.12724 0.28232,0.29425 0.32208,0.50102c0.03976,0.19882 0.05965,0.505 0.05965,0.91854v2.61246c0,0.85889 0.13122,1.40763 0.39366,1.64621c0.27039,0.23858 0.56464,0.35787 0.88275,0.35787c0.36582,0 0.68393,-0.10338 0.95432,-0.31016c0.27835,-0.20677 0.46523,-0.4533 0.56067,-0.7396c0.10338,-0.29425 0.15508,-0.86684 0.15508,-1.71778v-1.88479c0,-0.40559 0.01988,-0.70381 0.05965,-0.89468c0.03976,-0.19086 0.14315,-0.34992 0.31016,-0.47716c0.16701,-0.1352 0.36582,-0.20279 0.59645,-0.20279c0.21472,0 0.40559,0.06362 0.57259,0.19086c0.17496,0.12724 0.27835,0.2863 0.31016,0.47716c0.03976,0.18291 0.05965,0.48511 0.05965,0.90661v4.68812c0,0.38173 -0.01988,0.66008 -0.05965,0.83503c-0.03976,0.16701 -0.13122,0.31413 -0.27437,0.44137c-0.14315,0.12724 -0.32606,0.19086 -0.54874,0.19086c-0.61236,0 -0.90661,-0.44137 -0.88275,-1.32412c-0.63622,0.88275 -1.47522,1.32412 -2.51703,1.32412c-0.68393,0 -1.26846,-0.20677 -1.75357,-0.62031c-0.47716,-0.41354 -0.71574,-1.14917 -0.71574,-2.20687zM149.93398,210.21577v7.40794c0,0.46126 -0.01988,0.77539 -0.05965,0.9424c-0.03976,0.15906 -0.14713,0.30618 -0.32208,0.44137c-0.16701,0.12724 -0.34992,0.19086 -0.54874,0.19086c-0.20677,0 -0.39764,-0.06362 -0.57259,-0.19086c-0.17496,-0.12724 -0.2863,-0.27835 -0.33401,-0.4533c-0.03976,-0.17496 -0.05965,-0.48511 -0.05965,-0.93047v-7.40794c0,-0.46921 0.01988,-0.78334 0.05965,-0.9424c0.04772,-0.16701 0.15508,-0.31016 0.32208,-0.42945c0.17496,-0.12724 0.36185,-0.19086 0.56067,-0.19086c0.23063,0 0.42945,0.0676 0.59645,0.20279c0.17496,0.12724 0.27835,0.28232 0.31016,0.46523c0.03181,0.17496 0.04772,0.47318 0.04772,0.89468zM153.79384,210.21577v7.40794c0,0.46126 -0.01988,0.77539 -0.05965,0.9424c-0.03976,0.15906 -0.14713,0.30618 -0.32208,0.44137c-0.16701,0.12724 -0.34992,0.19086 -0.54874,0.19086c-0.20677,0 -0.39764,-0.06362 -0.57259,-0.19086c-0.17496,-0.12724 -0.2863,-0.27835 -0.33401,-0.4533c-0.03976,-0.17496 -0.05965,-0.48511 -0.05965,-0.93047v-7.40794c0,-0.46921 0.01988,-0.78334 0.05965,-0.9424c0.04772,-0.16701 0.15508,-0.31016 0.32208,-0.42945c0.17496,-0.12724 0.36185,-0.19086 0.56067,-0.19086c0.23063,0 0.42945,0.0676 0.59645,0.20279c0.17496,0.12724 0.27835,0.28232 0.31016,0.46523c0.03181,0.17496 0.04772,0.47318 0.04772,0.89468zM158.15475,211.19395l-0.29823,3.42364c-0.04772,0.50102 -0.1352,0.83901 -0.26244,1.01397c-0.12724,0.16701 -0.2863,0.25051 -0.47716,0.25051c-0.19882,0 -0.35787,-0.08748 -0.47716,-0.26244c-0.11929,-0.17496 -0.19882,-0.50897 -0.23858,-1.00204l-0.23858,-3.34013c-0.02386,-0.29425 -0.03579,-0.70381 -0.03579,-1.22869c0,-0.93047 0.35389,-1.3957 1.06169,-1.3957c0.31016,0 0.55271,0.10736 0.72767,0.32208c0.17496,0.20677 0.26244,0.60043 0.26244,1.18098c0,0.46921 -0.00795,0.81515 -0.02386,1.03783zM157.1527,217.09883c0.2863,0 0.53283,0.10338 0.7396,0.31016c0.20677,0.19882 0.31016,0.44137 0.31016,0.72767c0,0.2863 -0.10338,0.53681 -0.31016,0.75153c-0.20677,0.20677 -0.4533,0.31016 -0.7396,0.31016c-0.2863,0 -0.53283,-0.10338 -0.7396,-0.31016c-0.20677,-0.20677 -0.31016,-0.45728 -0.31016,-0.75153c0,-0.2863 0.10338,-0.52886 0.31016,-0.72767c0.20677,-0.20677 0.4533,-0.31016 0.7396,-0.31016zM169.22586,210.41856v7.062c0,0.44535 -0.01591,0.76744 -0.04772,0.96625c-0.03181,0.19882 -0.14315,0.37378 -0.33401,0.52488c-0.18291,0.1511 -0.39366,0.22665 -0.63224,0.22665c-0.24653,0 -0.46126,-0.0676 -0.64417,-0.20279c-0.18291,-0.14315 -0.29425,-0.31811 -0.33401,-0.52488c-0.03181,-0.20677 -0.04772,-0.53681 -0.04772,-0.99011v-7.062h-1.88479c-0.41354,0 -0.69586,-0.01591 -0.84696,-0.04772c-0.1511,-0.03181 -0.2863,-0.11929 -0.40559,-0.26244c-0.11929,-0.14315 -0.17894,-0.30618 -0.17894,-0.48909c0,-0.14315 0.03976,-0.28232 0.11929,-0.41752c0.07953,-0.1352 0.18689,-0.23063 0.32208,-0.2863c0.1352,-0.06362 0.46523,-0.09543 0.99011,-0.09543h5.79752c0.47716,0 0.78334,0.01988 0.91854,0.05965c0.1352,0.03976 0.25449,0.13122 0.35787,0.27437c0.10338,0.1352 0.15508,0.29027 0.15508,0.46523c0,0.1352 -0.03976,0.27437 -0.11929,0.41752c-0.07953,0.1352 -0.18689,0.2346 -0.32208,0.29823c-0.1352,0.05567 -0.46523,0.0835 -0.99011,0.0835zM180.17077,214.40287v3.45943c0,0.8907 -0.32208,1.33605 -0.96625,1.33605c-0.29425,0 -0.52488,-0.09543 -0.69189,-0.2863c-0.15906,-0.19086 -0.23858,-0.54078 -0.23858,-1.04976v-3.02998c0,-0.71574 -0.11531,-1.20483 -0.34594,-1.46727c-0.22267,-0.27039 -0.54078,-0.40559 -0.95432,-0.40559c-0.35787,0 -0.672,0.09941 -0.9424,0.29823c-0.26244,0.19882 -0.44933,0.44535 -0.56067,0.7396c-0.11134,0.2863 -0.16701,0.79527 -0.16701,1.52692v2.20687c0,0.5885 -0.08748,0.98216 -0.26244,1.18098c-0.16701,0.19086 -0.40161,0.2863 -0.70381,0.2863c-0.2863,0 -0.51295,-0.09543 -0.67996,-0.2863c-0.16701,-0.19086 -0.25051,-0.57657 -0.25051,-1.15712v-7.53916c0,-0.46126 0.01988,-0.77937 0.05965,-0.95432c0.04772,-0.18291 0.14713,-0.33004 0.29823,-0.44137c0.15906,-0.11134 0.34594,-0.16701 0.56067,-0.16701c0.24653,0 0.44933,0.06362 0.60838,0.19086c0.15906,0.12724 0.25846,0.29425 0.29823,0.50102c0.04772,0.20677 0.07157,0.54874 0.07157,1.0259v2.25459c0.63622,-0.77141 1.40763,-1.15712 2.31424,-1.15712c0.76346,0 1.37979,0.23858 1.849,0.71574c0.46921,0.46921 0.70381,1.20881 0.70381,2.2188zM187.34227,215.79857h-3.72186c0.01591,0.70779 0.20677,1.24062 0.57259,1.59849c0.37378,0.35787 0.81913,0.53681 1.33605,0.53681c0.63622,0 1.23267,-0.27835 1.78936,-0.83503c0.23063,-0.23063 0.39764,-0.37378 0.50102,-0.42945c0.11134,-0.05567 0.2346,-0.0835 0.3698,-0.0835c0.17496,0 0.32208,0.05567 0.44137,0.16701c0.11929,0.10338 0.17894,0.2346 0.17894,0.39366c0,0.42149 -0.29027,0.87082 -0.87082,1.34798c-0.58055,0.46921 -1.37184,0.70381 -2.37388,0.70381c-1.27243,0 -2.23868,-0.35787 -2.89876,-1.07361c-0.65212,-0.72369 -0.97818,-1.65416 -0.97818,-2.7914c0,-1.15314 0.32606,-2.08361 0.97818,-2.7914c0.66008,-0.71574 1.57463,-1.07361 2.74368,-1.07361c1.12133,0 1.9842,0.33799 2.5886,1.01397c0.61236,0.67598 0.91854,1.40763 0.91854,2.19495c0,0.34196 -0.10338,0.61633 -0.31016,0.8231c-0.19882,0.19882 -0.62031,0.29823 -1.26448,0.29823zM183.62041,214.72495h3.45943c-0.02386,-0.63622 -0.19882,-1.11735 -0.52488,-1.44342c-0.32606,-0.33401 -0.72767,-0.50102 -1.20483,-0.50102c-1.00204,0 -1.57861,0.64815 -1.72971,1.94444zM190.49776,217.62371v-4.86705c0,-0.85889 0.31413,-1.28834 0.9424,-1.28834c0.59645,0 0.90263,0.39764 0.91854,1.19291c0.38968,-0.79527 0.93444,-1.19291 1.63428,-1.19291c0.36582,0 0.74358,0.09941 1.13326,0.29823c0.38968,0.19086 0.58452,0.4533 0.58452,0.78732c0,0.23063 -0.07953,0.42149 -0.23858,0.57259c-0.1511,0.1511 -0.31811,0.22665 -0.50102,0.22665c-0.10338,0 -0.29027,-0.03976 -0.56067,-0.11929c-0.26244,-0.08748 -0.48511,-0.13122 -0.66803,-0.13122c-0.4533,0 -0.7913,0.23063 -1.01397,0.69189c-0.22267,0.46126 -0.33401,1.34798 -0.33401,2.66018v1.09747c0,0.48511 -0.01988,0.81118 -0.05965,0.97818c-0.03976,0.16701 -0.14315,0.32208 -0.31016,0.46523c-0.16701,0.1352 -0.35787,0.20279 -0.57259,0.20279c-0.20677,0 -0.39366,-0.05965 -0.56067,-0.17894c-0.16701,-0.12724 -0.27437,-0.27437 -0.32208,-0.44137c-0.04772,-0.17496 -0.07157,-0.49307 -0.07157,-0.95432zM201.68968,215.79857h-3.72186c0.01591,0.70779 0.20677,1.24062 0.57259,1.59849c0.37378,0.35787 0.81913,0.53681 1.33605,0.53681c0.63622,0 1.23267,-0.27835 1.78936,-0.83503c0.23063,-0.23063 0.39764,-0.37378 0.50102,-0.42945c0.11134,-0.05567 0.2346,-0.0835 0.3698,-0.0835c0.17496,0 0.32208,0.05567 0.44137,0.16701c0.11929,0.10338 0.17894,0.2346 0.17894,0.39366c0,0.42149 -0.29027,0.87082 -0.87082,1.34798c-0.58055,0.46921 -1.37184,0.70381 -2.37388,0.70381c-1.27243,0 -2.23868,-0.35787 -2.89876,-1.07361c-0.65212,-0.72369 -0.97818,-1.65416 -0.97818,-2.7914c0,-1.15314 0.32606,-2.08361 0.97818,-2.7914c0.66008,-0.71574 1.57463,-1.07361 2.74368,-1.07361c1.12133,0 1.9842,0.33799 2.5886,1.01397c0.61236,0.67598 0.91854,1.40763 0.91854,2.19495c0,0.34196 -0.10338,0.61633 -0.31016,0.8231c-0.19882,0.19882 -0.62031,0.29823 -1.26448,0.29823zM197.96782,214.72495h3.45943c-0.02386,-0.63622 -0.19882,-1.11735 -0.52488,-1.44342c-0.32606,-0.33401 -0.72767,-0.50102 -1.20483,-0.50102c-1.00204,0 -1.57861,0.64815 -1.72971,1.94444zM219.84559,214.29551v3.26856c0,0.4533 -0.01988,0.77141 -0.05965,0.95432c-0.03181,0.18291 -0.13122,0.34196 -0.29823,0.47716c-0.16701,0.1352 -0.36185,0.20279 -0.58452,0.20279c-0.22267,0 -0.41752,-0.0676 -0.58452,-0.20279c-0.16701,-0.1352 -0.27039,-0.29823 -0.31016,-0.48909c-0.03976,-0.19882 -0.05965,-0.51295 -0.05965,-0.9424v-2.76754c0,-0.81118 -0.09543,-1.32015 -0.2863,-1.52692c-0.19086,-0.20677 -0.4533,-0.31016 -0.78732,-0.31016c-0.34992,0 -0.64417,0.09543 -0.88275,0.2863c-0.23858,0.19086 -0.40161,0.44137 -0.48909,0.75153c-0.08748,0.31016 -0.13122,0.79527 -0.13122,1.45534v2.11144c0,0.4533 -0.01988,0.77539 -0.05965,0.96625c-0.03181,0.18291 -0.1352,0.34196 -0.31016,0.47716c-0.16701,0.12724 -0.36185,0.19086 -0.58452,0.19086c-0.29425,0 -0.52488,-0.09941 -0.69189,-0.29823c-0.16701,-0.19882 -0.25051,-0.64417 -0.25051,-1.33605v-2.60053c0,-0.74755 -0.05567,-1.26846 -0.16701,-1.56271c-0.11134,-0.29425 -0.40161,-0.44137 -0.87082,-0.44137c-0.48511,0 -0.87082,0.15508 -1.15712,0.46523c-0.27835,0.31016 -0.41752,0.9742 -0.41752,1.99215v2.14723c0,0.44535 -0.01591,0.75551 -0.04772,0.93047c-0.02386,0.17496 -0.11929,0.33799 -0.2863,0.48909c-0.16701,0.14315 -0.36185,0.21472 -0.58452,0.21472c-0.21472,0 -0.40957,-0.06362 -0.58452,-0.19086c-0.17496,-0.1352 -0.28232,-0.29425 -0.32208,-0.47716c-0.03976,-0.18291 -0.05965,-0.505 -0.05965,-0.96625v-4.59269c0,-0.44535 0.01988,-0.74358 0.05965,-0.89468c0.03976,-0.15906 0.13917,-0.29823 0.29823,-0.41752c0.16701,-0.12724 0.34594,-0.19086 0.53681,-0.19086c0.6044,0 0.90661,0.38968 0.90661,1.16905c0.63622,-0.77937 1.40365,-1.16905 2.30231,-1.16905c0.96228,0 1.65814,0.38968 2.08758,1.16905c0.64417,-0.77937 1.39968,-1.16905 2.26652,-1.16905c0.66008,0 1.22471,0.18689 1.69393,0.56067c0.47716,0.36582 0.71574,1.12133 0.71574,2.26652zM222.6538,208.73657c0.24653,0 0.45728,0.09145 0.63224,0.27437c0.18291,0.18291 0.27437,0.39764 0.27437,0.64417c0,0.25449 -0.09145,0.47318 -0.27437,0.6561c-0.17496,0.18291 -0.38571,0.27437 -0.63224,0.27437c-0.25449,0 -0.47318,-0.09145 -0.6561,-0.27437c-0.18291,-0.18291 -0.27437,-0.40161 -0.27437,-0.6561c0,-0.24653 0.09145,-0.46126 0.27437,-0.64417c0.18291,-0.18291 0.40161,-0.27437 0.6561,-0.27437zM223.58427,213.0191v4.60461c0,0.4533 -0.01988,0.76346 -0.05965,0.93047c-0.03976,0.16701 -0.14713,0.31811 -0.32208,0.4533c-0.16701,0.12724 -0.34992,0.19086 -0.54874,0.19086c-0.20677,0 -0.39764,-0.06362 -0.57259,-0.19086c-0.17496,-0.12724 -0.2863,-0.27835 -0.33401,-0.4533c-0.03976,-0.17496 -0.05965,-0.48511 -0.05965,-0.93047v-4.58076c0,-0.42149 0.01591,-0.71972 0.04772,-0.89468c0.03181,-0.17496 0.13122,-0.33004 0.29823,-0.46523c0.17496,-0.14315 0.37378,-0.21472 0.59645,-0.21472c0.22267,0 0.41354,0.06362 0.57259,0.19086c0.16701,0.11929 0.27039,0.27437 0.31016,0.46523c0.04772,0.19086 0.07157,0.48909 0.07157,0.89468zM230.74849,212.76859v-0.26244c0,-0.34196 0.0835,-0.60043 0.25051,-0.77539c0.17496,-0.17496 0.39366,-0.26244 0.6561,-0.26244c0.2863,0 0.505,0.10338 0.6561,0.31016c0.15906,0.19882 0.23858,0.63224 0.23858,1.30027v5.09371c0,1.51897 -0.32208,2.53691 -0.96625,3.05384c-0.63622,0.52488 -1.55475,0.78732 -2.75561,0.78732c-1.08157,0 -1.92853,-0.20279 -2.54089,-0.60838c-0.6044,-0.39764 -0.90661,-0.81913 -0.90661,-1.26448c0,-0.23858 0.07953,-0.43342 0.23858,-0.58452c0.15906,-0.14315 0.34992,-0.21472 0.57259,-0.21472c0.19882,0 0.35787,0.04772 0.47716,0.14315c0.11929,0.09543 0.31811,0.32208 0.59645,0.67996c0.2863,0.35787 0.76346,0.53681 1.43149,0.53681c0.37378,0 0.71972,-0.05965 1.03783,-0.17894c0.31811,-0.11134 0.55271,-0.31413 0.70381,-0.60838c0.1511,-0.29425 0.22267,-1.00999 0.21472,-2.14723c-0.58055,0.83503 -1.37582,1.25255 -2.38581,1.25255c-0.97023,0 -1.73766,-0.36185 -2.30231,-1.08554c-0.55669,-0.72369 -0.83503,-1.65416 -0.83503,-2.7914c0,-1.12133 0.2863,-2.01203 0.85889,-2.67211c0.58055,-0.66803 1.33605,-1.00204 2.26652,-1.00204c1.01795,0 1.849,0.43342 2.49317,1.30027zM227.05048,215.29755c0,0.7396 0.15906,1.30424 0.47716,1.69393c0.32606,0.38173 0.76744,0.57259 1.32412,0.57259c0.48511,0 0.90661,-0.18689 1.26448,-0.56067c0.35787,-0.37378 0.53681,-0.93444 0.53681,-1.682c0,-0.7396 -0.16701,-1.32412 -0.50102,-1.75357c-0.32606,-0.42945 -0.76744,-0.64417 -1.32412,-0.64417c-0.54078,0 -0.9742,0.20279 -1.30027,0.60838c-0.31811,0.39764 -0.47716,0.98613 -0.47716,1.7655zM241.17746,214.40287v3.45943c0,0.8907 -0.32208,1.33605 -0.96625,1.33605c-0.29425,0 -0.52488,-0.09543 -0.69189,-0.2863c-0.15906,-0.19086 -0.23858,-0.54078 -0.23858,-1.04976v-3.02998c0,-0.71574 -0.11531,-1.20483 -0.34594,-1.46727c-0.22267,-0.27039 -0.54078,-0.40559 -0.95432,-0.40559c-0.35787,0 -0.672,0.09941 -0.9424,0.29823c-0.26244,0.19882 -0.44933,0.44535 -0.56067,0.7396c-0.11134,0.2863 -0.16701,0.79527 -0.16701,1.52692v2.20687c0,0.5885 -0.08748,0.98216 -0.26244,1.18098c-0.16701,0.19086 -0.40161,0.2863 -0.70381,0.2863c-0.2863,0 -0.51295,-0.09543 -0.67996,-0.2863c-0.16701,-0.19086 -0.25051,-0.57657 -0.25051,-1.15712v-7.53916c0,-0.46126 0.01988,-0.77937 0.05965,-0.95432c0.04772,-0.18291 0.14713,-0.33004 0.29823,-0.44137c0.15906,-0.11134 0.34594,-0.16701 0.56067,-0.16701c0.24653,0 0.44933,0.06362 0.60838,0.19086c0.15906,0.12724 0.25846,0.29425 0.29823,0.50102c0.04772,0.20677 0.07157,0.54874 0.07157,1.0259v2.25459c0.63622,-0.77141 1.40763,-1.15712 2.31424,-1.15712c0.76346,0 1.37979,0.23858 1.849,0.71574c0.46921,0.46921 0.70381,1.20881 0.70381,2.2188zM243.36264,211.63533v-1.13326c0,-0.46921 0.01988,-0.78732 0.05965,-0.95432c0.03976,-0.17496 0.14315,-0.32606 0.31016,-0.4533c0.16701,-0.1352 0.36185,-0.20279 0.58452,-0.20279c0.19882,0 0.38173,0.05965 0.54874,0.17894c0.16701,0.11929 0.27437,0.26642 0.32208,0.44137c0.05567,0.17496 0.0835,0.4533 0.0835,0.83503v1.28834h0.3698c0.46126,0 0.76744,0.05965 0.91854,0.17894c0.1511,0.11134 0.22665,0.27437 0.22665,0.48909c0,0.46921 -0.38968,0.70381 -1.16905,0.70381h-0.34594v3.50714c0,0.47716 0.03181,0.80322 0.09543,0.97818c0.07157,0.16701 0.25051,0.25051 0.53681,0.25051c0.14315,0 0.29823,-0.01988 0.46523,-0.05965c0.17496,-0.03976 0.30618,-0.05965 0.39366,-0.05965c0.19086,0 0.34594,0.06362 0.46523,0.19086c0.11929,0.11929 0.17894,0.26642 0.17894,0.44137c0,0.62826 -0.6561,0.9424 -1.96829,0.9424c-0.63622,0 -1.10542,-0.11929 -1.40763,-0.35787c-0.29425,-0.23858 -0.48114,-0.52488 -0.56067,-0.85889c-0.07157,-0.34196 -0.10736,-0.78334 -0.10736,-1.32412v-3.65029h-0.25051c-0.55669,0 -0.83503,-0.22665 -0.83503,-0.67996c0,-0.46126 0.29425,-0.69189 0.88275,-0.69189zM254.05286,217.92194v0.19086c0,0.72369 -0.31413,1.08554 -0.9424,1.08554c-0.23858,0 -0.44137,-0.05965 -0.60838,-0.17894c-0.16701,-0.12724 -0.26642,-0.27835 -0.29823,-0.4533c-0.03181,-0.18291 -0.04772,-0.46921 -0.04772,-0.85889v-7.47952c0,-0.42945 0.01988,-0.74358 0.05965,-0.9424c0.04772,-0.19882 0.15508,-0.35389 0.32208,-0.46523c0.17496,-0.11134 0.36185,-0.16701 0.56067,-0.16701c0.2863,0 0.51693,0.0835 0.69189,0.25051c0.17496,0.16701 0.26244,0.5885 0.26244,1.26448v2.46931c0.70779,-0.77937 1.53885,-1.16905 2.49317,-1.16905c0.98613,0 1.75755,0.35389 2.31424,1.06169c0.56464,0.69984 0.84696,1.59849 0.84696,2.69597c0,1.16905 -0.2863,2.12337 -0.85889,2.86297c-0.57259,0.7396 -1.34798,1.1094 -2.32617,1.1094c-0.98613,0 -1.80924,-0.42547 -2.46931,-1.27641zM254.1483,215.41684c0,0.73165 0.17496,1.30424 0.52488,1.71778c0.35787,0.40559 0.8072,0.60838 1.34798,0.60838c0.4533,0 0.85889,-0.19484 1.21676,-0.58452c0.36582,-0.39764 0.54874,-1.02192 0.54874,-1.87286c0,-0.7396 -0.16303,-1.31617 -0.48909,-1.72971c-0.32606,-0.42149 -0.74755,-0.63224 -1.26448,-0.63224c-0.57259,0 -1.02988,0.22665 -1.37184,0.67996c-0.34196,0.44535 -0.51295,1.04976 -0.51295,1.81322zM266.52171,215.79857h-3.72186c0.01591,0.70779 0.20677,1.24062 0.57259,1.59849c0.37378,0.35787 0.81913,0.53681 1.33605,0.53681c0.63622,0 1.23267,-0.27835 1.78936,-0.83503c0.23063,-0.23063 0.39764,-0.37378 0.50102,-0.42945c0.11134,-0.05567 0.2346,-0.0835 0.3698,-0.0835c0.17496,0 0.32208,0.05567 0.44137,0.16701c0.11929,0.10338 0.17894,0.2346 0.17894,0.39366c0,0.42149 -0.29027,0.87082 -0.87082,1.34798c-0.58055,0.46921 -1.37184,0.70381 -2.37388,0.70381c-1.27243,0 -2.23868,-0.35787 -2.89876,-1.07361c-0.65212,-0.72369 -0.97818,-1.65416 -0.97818,-2.7914c0,-1.15314 0.32606,-2.08361 0.97818,-2.7914c0.66008,-0.71574 1.57463,-1.07361 2.74368,-1.07361c1.12133,0 1.9842,0.33799 2.5886,1.01397c0.61236,0.67598 0.91854,1.40763 0.91854,2.19495c0,0.34196 -0.10338,0.61633 -0.31016,0.8231c-0.19882,0.19882 -0.62031,0.29823 -1.26448,0.29823zM262.79985,214.72495h3.45943c-0.02386,-0.63622 -0.19882,-1.11735 -0.52488,-1.44342c-0.32606,-0.33401 -0.72767,-0.50102 -1.20483,-0.50102c-1.00204,0 -1.57861,0.64815 -1.72971,1.94444zM277.23386,211.46832c1.177,0 2.10349,0.36582 2.77947,1.09747c0.67598,0.72369 1.01397,1.64621 1.01397,2.76754c0,1.12928 -0.34196,2.05577 -1.0259,2.77947c-0.68393,0.72369 -1.59054,1.08554 -2.71982,1.08554c-1.22471,0 -2.17109,-0.36582 -2.83911,-1.09747c-0.66008,-0.7396 -0.99011,-1.66212 -0.99011,-2.76754c0,-1.12928 0.33799,-2.05577 1.01397,-2.77947c0.67598,-0.72369 1.59849,-1.08554 2.76754,-1.08554zM277.23386,217.77879c0.58055,0 1.03783,-0.21472 1.37184,-0.64417c0.33401,-0.4374 0.50102,-1.03783 0.50102,-1.80129c0,-0.77141 -0.16701,-1.37184 -0.50102,-1.80129c-0.33401,-0.4374 -0.7913,-0.6561 -1.37184,-0.6561c-0.56464,0 -1.01795,0.2187 -1.35991,0.6561c-0.33401,0.4374 -0.50102,1.03783 -0.50102,1.80129c0,0.77141 0.16701,1.37184 0.50102,1.80129c0.34196,0.42945 0.79527,0.64417 1.35991,0.64417zM284.2145,212.74473c0.67598,-0.85094 1.50306,-1.27641 2.48124,-1.27641c0.97023,0 1.74164,0.3698 2.31424,1.1094c0.57259,0.73165 0.85889,1.67802 0.85889,2.83911c0,1.10542 -0.28232,2.01203 -0.84696,2.71982c-0.55669,0.70779 -1.3281,1.06169 -2.31424,1.06169c-0.94637,0 -1.77743,-0.39764 -2.49317,-1.19291v2.48124c0,0.68393 -0.0835,1.1094 -0.25051,1.27641c-0.16701,0.16701 -0.39366,0.25051 -0.67996,0.25051c-0.34992,0 -0.59645,-0.11531 -0.7396,-0.34594c-0.14315,-0.23063 -0.21472,-0.64417 -0.21472,-1.24062v-7.49145c0,-0.38968 0.01591,-0.67598 0.04772,-0.85889c0.03976,-0.18291 0.14315,-0.33004 0.31016,-0.44137c0.16701,-0.11134 0.36582,-0.16701 0.59645,-0.16701c0.62031,0 0.93047,0.35787 0.93047,1.07361zM287.96022,215.38105c0,-0.83503 -0.17894,-1.45137 -0.53681,-1.849c-0.34992,-0.40559 -0.75551,-0.60838 -1.21676,-0.60838c-0.54874,0 -0.99806,0.20279 -1.34798,0.60838c-0.34992,0.40559 -0.52488,0.9742 -0.52488,1.70585c0,0.77141 0.16701,1.38377 0.50102,1.83707c0.34196,0.44535 0.80322,0.66803 1.38377,0.66803c0.50897,0 0.92649,-0.21075 1.25255,-0.63224c0.32606,-0.42149 0.48909,-0.99806 0.48909,-1.72971zM296.71913,215.79857h-3.72186c0.01591,0.70779 0.20677,1.24062 0.57259,1.59849c0.37378,0.35787 0.81913,0.53681 1.33605,0.53681c0.63622,0 1.23267,-0.27835 1.78936,-0.83503c0.23063,-0.23063 0.39764,-0.37378 0.50102,-0.42945c0.11134,-0.05567 0.2346,-0.0835 0.3698,-0.0835c0.17496,0 0.32208,0.05567 0.44137,0.16701c0.11929,0.10338 0.17894,0.2346 0.17894,0.39366c0,0.42149 -0.29027,0.87082 -0.87082,1.34798c-0.58055,0.46921 -1.37184,0.70381 -2.37388,0.70381c-1.27243,0 -2.23868,-0.35787 -2.89876,-1.07361c-0.65212,-0.72369 -0.97818,-1.65416 -0.97818,-2.7914c0,-1.15314 0.32606,-2.08361 0.97818,-2.7914c0.66008,-0.71574 1.57463,-1.07361 2.74368,-1.07361c1.12133,0 1.9842,0.33799 2.5886,1.01397c0.61236,0.67598 0.91854,1.40763 0.91854,2.19495c0,0.34196 -0.10338,0.61633 -0.31016,0.8231c-0.19882,0.19882 -0.62031,0.29823 -1.26448,0.29823zM292.99726,214.72495h3.45943c-0.02386,-0.63622 -0.19882,-1.11735 -0.52488,-1.44342c-0.32606,-0.33401 -0.72767,-0.50102 -1.20483,-0.50102c-1.00204,0 -1.57861,0.64815 -1.72971,1.94444zM306.5907,214.51023v3.11348c0,0.40559 -0.01988,0.69984 -0.05965,0.88275c-0.03181,0.18291 -0.13122,0.34594 -0.29823,0.48909c-0.15906,0.1352 -0.35389,0.20279 -0.58452,0.20279c-0.20677,0 -0.39764,-0.05965 -0.57259,-0.17894c-0.17496,-0.12724 -0.2863,-0.29027 -0.33401,-0.48909c-0.03976,-0.19882 -0.05965,-0.50102 -0.05965,-0.90661v-2.73175c0,-0.76346 -0.11531,-1.27641 -0.34594,-1.53885c-0.22267,-0.26244 -0.53283,-0.39366 -0.93047,-0.39366c-0.35787,0 -0.67598,0.10338 -0.95432,0.31016c-0.27039,0.20677 -0.46126,0.46921 -0.57259,0.78732c-0.11134,0.31016 -0.16701,0.84299 -0.16701,1.59849v1.96829c0,0.39764 -0.01591,0.68791 -0.04772,0.87082c-0.03181,0.17496 -0.1352,0.33799 -0.31016,0.48909c-0.16701,0.14315 -0.36185,0.21472 -0.58452,0.21472c-0.20677,0 -0.39764,-0.06362 -0.57259,-0.19086c-0.17496,-0.12724 -0.28232,-0.2863 -0.32208,-0.47716c-0.03976,-0.19086 -0.05965,-0.49307 -0.05965,-0.90661v-4.68812c0,-0.42149 0.01988,-0.71574 0.05965,-0.88275c0.03976,-0.16701 0.13917,-0.30618 0.29823,-0.41752c0.16701,-0.11134 0.34992,-0.16701 0.54874,-0.16701c0.18291,0 0.37378,0.07555 0.57259,0.22665c0.20677,0.14315 0.31016,0.49704 0.31016,1.06169c0.62826,-0.85889 1.44342,-1.28834 2.44546,-1.28834c0.38173,0 0.75551,0.07555 1.12133,0.22665c0.37378,0.14315 0.67598,0.37775 0.90661,0.70381c0.23858,0.31811 0.38173,0.64815 0.42945,0.99011c0.05567,0.34196 0.0835,0.71574 0.0835,1.12133zM312.70608,217.62371v-4.86705c0,-0.85889 0.31413,-1.28834 0.9424,-1.28834c0.59645,0 0.90263,0.39764 0.91854,1.19291c0.38968,-0.79527 0.93444,-1.19291 1.63428,-1.19291c0.36582,0 0.74358,0.09941 1.13326,0.29823c0.38968,0.19086 0.58452,0.4533 0.58452,0.78732c0,0.23063 -0.07953,0.42149 -0.23858,0.57259c-0.1511,0.1511 -0.31811,0.22665 -0.50102,0.22665c-0.10338,0 -0.29027,-0.03976 -0.56067,-0.11929c-0.26244,-0.08748 -0.48511,-0.13122 -0.66803,-0.13122c-0.4533,0 -0.7913,0.23063 -1.01397,0.69189c-0.22267,0.46126 -0.33401,1.34798 -0.33401,2.66018v1.09747c0,0.48511 -0.01988,0.81118 -0.05965,0.97818c-0.03976,0.16701 -0.14315,0.32208 -0.31016,0.46523c-0.16701,0.1352 -0.35787,0.20279 -0.57259,0.20279c-0.20677,0 -0.39366,-0.05965 -0.56067,-0.17894c-0.16701,-0.12724 -0.27437,-0.27437 -0.32208,-0.44137c-0.04772,-0.17496 -0.07157,-0.49307 -0.07157,-0.95432zM321.7299,211.46832c1.177,0 2.10349,0.36582 2.77947,1.09747c0.67598,0.72369 1.01397,1.64621 1.01397,2.76754c0,1.12928 -0.34196,2.05577 -1.0259,2.77947c-0.68393,0.72369 -1.59054,1.08554 -2.71982,1.08554c-1.22471,0 -2.17109,-0.36582 -2.83911,-1.09747c-0.66008,-0.7396 -0.99011,-1.66212 -0.99011,-2.76754c0,-1.12928 0.33799,-2.05577 1.01397,-2.77947c0.67598,-0.72369 1.59849,-1.08554 2.76754,-1.08554zM321.7299,217.77879c0.58055,0 1.03783,-0.21472 1.37184,-0.64417c0.33401,-0.4374 0.50102,-1.03783 0.50102,-1.80129c0,-0.77141 -0.16701,-1.37184 -0.50102,-1.80129c-0.33401,-0.4374 -0.7913,-0.6561 -1.37184,-0.6561c-0.56464,0 -1.01795,0.2187 -1.35991,0.6561c-0.33401,0.4374 -0.50102,1.03783 -0.50102,1.80129c0,0.77141 0.16701,1.37184 0.50102,1.80129c0.34196,0.42945 0.79527,0.64417 1.35991,0.64417zM330.33289,211.46832c1.177,0 2.10349,0.36582 2.77947,1.09747c0.67598,0.72369 1.01397,1.64621 1.01397,2.76754c0,1.12928 -0.34196,2.05577 -1.0259,2.77947c-0.68393,0.72369 -1.59054,1.08554 -2.71982,1.08554c-1.22471,0 -2.17109,-0.36582 -2.83911,-1.09747c-0.66008,-0.7396 -0.99011,-1.66212 -0.99011,-2.76754c0,-1.12928 0.33799,-2.05577 1.01397,-2.77947c0.67598,-0.72369 1.59849,-1.08554 2.76754,-1.08554zM330.33289,217.77879c0.58055,0 1.03783,-0.21472 1.37184,-0.64417c0.33401,-0.4374 0.50102,-1.03783 0.50102,-1.80129c0,-0.77141 -0.16701,-1.37184 -0.50102,-1.80129c-0.33401,-0.4374 -0.7913,-0.6561 -1.37184,-0.6561c-0.56464,0 -1.01795,0.2187 -1.35991,0.6561c-0.33401,0.4374 -0.50102,1.03783 -0.50102,1.80129c0,0.77141 0.16701,1.37184 0.50102,1.80129c0.34196,0.42945 0.79527,0.64417 1.35991,0.64417zM346.37961,214.29551v3.26856c0,0.4533 -0.01988,0.77141 -0.05965,0.95432c-0.03181,0.18291 -0.13122,0.34196 -0.29823,0.47716c-0.16701,0.1352 -0.36185,0.20279 -0.58452,0.20279c-0.22267,0 -0.41752,-0.0676 -0.58452,-0.20279c-0.16701,-0.1352 -0.27039,-0.29823 -0.31016,-0.48909c-0.03976,-0.19882 -0.05965,-0.51295 -0.05965,-0.9424v-2.76754c0,-0.81118 -0.09543,-1.32015 -0.2863,-1.52692c-0.19086,-0.20677 -0.4533,-0.31016 -0.78732,-0.31016c-0.34992,0 -0.64417,0.09543 -0.88275,0.2863c-0.23858,0.19086 -0.40161,0.44137 -0.48909,0.75153c-0.08748,0.31016 -0.13122,0.79527 -0.13122,1.45534v2.11144c0,0.4533 -0.01988,0.77539 -0.05965,0.96625c-0.03181,0.18291 -0.1352,0.34196 -0.31016,0.47716c-0.16701,0.12724 -0.36185,0.19086 -0.58452,0.19086c-0.29425,0 -0.52488,-0.09941 -0.69189,-0.29823c-0.16701,-0.19882 -0.25051,-0.64417 -0.25051,-1.33605v-2.60053c0,-0.74755 -0.05567,-1.26846 -0.16701,-1.56271c-0.11134,-0.29425 -0.40161,-0.44137 -0.87082,-0.44137c-0.48511,0 -0.87082,0.15508 -1.15712,0.46523c-0.27835,0.31016 -0.41752,0.9742 -0.41752,1.99215v2.14723c0,0.44535 -0.01591,0.75551 -0.04772,0.93047c-0.02386,0.17496 -0.11929,0.33799 -0.2863,0.48909c-0.16701,0.14315 -0.36185,0.21472 -0.58452,0.21472c-0.21472,0 -0.40957,-0.06362 -0.58452,-0.19086c-0.17496,-0.1352 -0.28232,-0.29425 -0.32208,-0.47716c-0.03976,-0.18291 -0.05965,-0.505 -0.05965,-0.96625v-4.59269c0,-0.44535 0.01988,-0.74358 0.05965,-0.89468c0.03976,-0.15906 0.13917,-0.29823 0.29823,-0.41752c0.16701,-0.12724 0.34594,-0.19086 0.53681,-0.19086c0.6044,0 0.90661,0.38968 0.90661,1.16905c0.63622,-0.77937 1.40365,-1.16905 2.30231,-1.16905c0.96228,0 1.65814,0.38968 2.08758,1.16905c0.64417,-0.77937 1.39968,-1.16905 2.26652,-1.16905c0.66008,0 1.22471,0.18689 1.69393,0.56067c0.47716,0.36582 0.71574,1.12133 0.71574,2.26652zM349.66499,213.44854c0,0.24653 0.12724,0.44137 0.38173,0.58452c0.25449,0.1352 0.8231,0.31016 1.70585,0.52488c1.72574,0.42149 2.5886,1.13724 2.5886,2.14723c0,0.80322 -0.29027,1.41956 -0.87082,1.849c-0.58055,0.42945 -1.39172,0.64417 -2.43353,0.64417c-1.05771,0 -1.85695,-0.2187 -2.39774,-0.6561c-0.53283,-0.4374 -0.79925,-0.89866 -0.79925,-1.38377c0,-0.20677 0.07157,-0.38571 0.21472,-0.53681c0.1511,-0.1511 0.33799,-0.22665 0.56067,-0.22665c0.29425,0 0.55271,0.18689 0.77539,0.56067c0.25449,0.40559 0.52886,0.67598 0.8231,0.81118c0.3022,0.12724 0.62826,0.19086 0.97818,0.19086c0.37378,0 0.67996,-0.0835 0.91854,-0.25051c0.23858,-0.16701 0.35787,-0.38173 0.35787,-0.64417c0,-0.23858 -0.09941,-0.44137 -0.29823,-0.60838c-0.19882,-0.17496 -0.75153,-0.36582 -1.65814,-0.57259c-0.89866,-0.20677 -1.55475,-0.49704 -1.96829,-0.87082c-0.41354,-0.37378 -0.62031,-0.81913 -0.62031,-1.33605c0,-0.58055 0.25051,-1.0935 0.75153,-1.53885c0.50897,-0.44535 1.26448,-0.66803 2.26652,-0.66803c0.92251,0 1.65814,0.19086 2.20687,0.57259c0.54874,0.37378 0.8231,0.76346 0.8231,1.16905c0,0.20677 -0.07157,0.38571 -0.21472,0.53681c-0.1352,0.14315 -0.32606,0.21472 -0.57259,0.21472c-0.36582,0 -0.69586,-0.21075 -0.99011,-0.63224c-0.29425,-0.42149 -0.7396,-0.63224 -1.33605,-0.63224c-0.31811,0 -0.59645,0.0676 -0.83503,0.20279c-0.23858,0.12724 -0.35787,0.31016 -0.35787,0.54874zM361.6132,213.44854c0,0.24653 0.12724,0.44137 0.38173,0.58452c0.25449,0.1352 0.8231,0.31016 1.70585,0.52488c1.72574,0.42149 2.5886,1.13724 2.5886,2.14723c0,0.80322 -0.29027,1.41956 -0.87082,1.849c-0.58055,0.42945 -1.39172,0.64417 -2.43353,0.64417c-1.05771,0 -1.85695,-0.2187 -2.39774,-0.6561c-0.53283,-0.4374 -0.79925,-0.89866 -0.79925,-1.38377c0,-0.20677 0.07157,-0.38571 0.21472,-0.53681c0.1511,-0.1511 0.33799,-0.22665 0.56067,-0.22665c0.29425,0 0.55271,0.18689 0.77539,0.56067c0.25449,0.40559 0.52886,0.67598 0.8231,0.81118c0.3022,0.12724 0.62826,0.19086 0.97818,0.19086c0.37378,0 0.67996,-0.0835 0.91854,-0.25051c0.23858,-0.16701 0.35787,-0.38173 0.35787,-0.64417c0,-0.23858 -0.09941,-0.44137 -0.29823,-0.60838c-0.19882,-0.17496 -0.75153,-0.36582 -1.65814,-0.57259c-0.89866,-0.20677 -1.55475,-0.49704 -1.96829,-0.87082c-0.41354,-0.37378 -0.62031,-0.81913 -0.62031,-1.33605c0,-0.58055 0.25051,-1.0935 0.75153,-1.53885c0.50897,-0.44535 1.26448,-0.66803 2.26652,-0.66803c0.92251,0 1.65814,0.19086 2.20687,0.57259c0.54874,0.37378 0.8231,0.76346 0.8231,1.16905c0,0.20677 -0.07157,0.38571 -0.21472,0.53681c-0.1352,0.14315 -0.32606,0.21472 -0.57259,0.21472c-0.36582,0 -0.69586,-0.21075 -0.99011,-0.63224c-0.29425,-0.42149 -0.7396,-0.63224 -1.33605,-0.63224c-0.31811,0 -0.59645,0.0676 -0.83503,0.20279c-0.23858,0.12724 -0.35787,0.31016 -0.35787,0.54874zM371.20583,211.46832c1.177,0 2.10349,0.36582 2.77947,1.09747c0.67598,0.72369 1.01397,1.64621 1.01397,2.76754c0,1.12928 -0.34196,2.05577 -1.0259,2.77947c-0.68393,0.72369 -1.59054,1.08554 -2.71982,1.08554c-1.22471,0 -2.17109,-0.36582 -2.83911,-1.09747c-0.66008,-0.7396 -0.99011,-1.66212 -0.99011,-2.76754c0,-1.12928 0.33799,-2.05577 1.01397,-2.77947c0.67598,-0.72369 1.59849,-1.08554 2.76754,-1.08554zM371.20583,217.77879c0.58055,0 1.03783,-0.21472 1.37184,-0.64417c0.33401,-0.4374 0.50102,-1.03783 0.50102,-1.80129c0,-0.77141 -0.16701,-1.37184 -0.50102,-1.80129c-0.33401,-0.4374 -0.7913,-0.6561 -1.37184,-0.6561c-0.56464,0 -1.01795,0.2187 -1.35991,0.6561c-0.33401,0.4374 -0.50102,1.03783 -0.50102,1.80129c0,0.77141 0.16701,1.37184 0.50102,1.80129c0.34196,0.42945 0.79527,0.64417 1.35991,0.64417zM379.80882,211.46832c1.177,0 2.10349,0.36582 2.77947,1.09747c0.67598,0.72369 1.01397,1.64621 1.01397,2.76754c0,1.12928 -0.34196,2.05577 -1.0259,2.77947c-0.68393,0.72369 -1.59054,1.08554 -2.71982,1.08554c-1.22471,0 -2.17109,-0.36582 -2.83911,-1.09747c-0.66008,-0.7396 -0.99011,-1.66212 -0.99011,-2.76754c0,-1.12928 0.33799,-2.05577 1.01397,-2.77947c0.67598,-0.72369 1.59849,-1.08554 2.76754,-1.08554zM379.80882,217.77879c0.58055,0 1.03783,-0.21472 1.37184,-0.64417c0.33401,-0.4374 0.50102,-1.03783 0.50102,-1.80129c0,-0.77141 -0.16701,-1.37184 -0.50102,-1.80129c-0.33401,-0.4374 -0.7913,-0.6561 -1.37184,-0.6561c-0.56464,0 -1.01795,0.2187 -1.35991,0.6561c-0.33401,0.4374 -0.50102,1.03783 -0.50102,1.80129c0,0.77141 0.16701,1.37184 0.50102,1.80129c0.34196,0.42945 0.79527,0.64417 1.35991,0.64417zM391.79967,214.51023v3.11348c0,0.40559 -0.01988,0.69984 -0.05965,0.88275c-0.03181,0.18291 -0.13122,0.34594 -0.29823,0.48909c-0.15906,0.1352 -0.35389,0.20279 -0.58452,0.20279c-0.20677,0 -0.39764,-0.05965 -0.57259,-0.17894c-0.17496,-0.12724 -0.2863,-0.29027 -0.33401,-0.48909c-0.03976,-0.19882 -0.05965,-0.50102 -0.05965,-0.90661v-2.73175c0,-0.76346 -0.11531,-1.27641 -0.34594,-1.53885c-0.22267,-0.26244 -0.53283,-0.39366 -0.93047,-0.39366c-0.35787,0 -0.67598,0.10338 -0.95432,0.31016c-0.27039,0.20677 -0.46126,0.46921 -0.57259,0.78732c-0.11134,0.31016 -0.16701,0.84299 -0.16701,1.59849v1.96829c0,0.39764 -0.01591,0.68791 -0.04772,0.87082c-0.03181,0.17496 -0.1352,0.33799 -0.31016,0.48909c-0.16701,0.14315 -0.36185,0.21472 -0.58452,0.21472c-0.20677,0 -0.39764,-0.06362 -0.57259,-0.19086c-0.17496,-0.12724 -0.28232,-0.2863 -0.32208,-0.47716c-0.03976,-0.19086 -0.05965,-0.49307 -0.05965,-0.90661v-4.68812c0,-0.42149 0.01988,-0.71574 0.05965,-0.88275c0.03976,-0.16701 0.13917,-0.30618 0.29823,-0.41752c0.16701,-0.11134 0.34992,-0.16701 0.54874,-0.16701c0.18291,0 0.37378,0.07555 0.57259,0.22665c0.20677,0.14315 0.31016,0.49704 0.31016,1.06169c0.62826,-0.85889 1.44342,-1.28834 2.44546,-1.28834c0.38173,0 0.75551,0.07555 1.12133,0.22665c0.37378,0.14315 0.67598,0.37775 0.90661,0.70381c0.23858,0.31811 0.38173,0.64815 0.42945,0.99011c0.05567,0.34196 0.0835,0.71574 0.0835,1.12133zM394.96301,217.09883c0.27835,0 0.5209,0.10338 0.72767,0.31016c0.20677,0.19882 0.31016,0.44137 0.31016,0.72767c0,0.2863 -0.10338,0.53681 -0.31016,0.75153c-0.20677,0.20677 -0.44933,0.31016 -0.72767,0.31016c-0.29425,0 -0.54476,-0.10338 -0.75153,-0.31016c-0.20677,-0.20677 -0.31016,-0.45728 -0.31016,-0.75153c0,-0.2863 0.10338,-0.52886 0.31016,-0.72767c0.20677,-0.20677 0.45728,-0.31016 0.75153,-0.31016z" fill="#d5d5d5" stroke="none" stroke-width="1" stroke-linecap="square"/></g></g></svg>