<svg version="1.1" xmlns="http://www.w3.org/2000/svg" xmlns:xlink="http://www.w3.org/1999/xlink" width="246.56953" height="222.27976" viewBox="0,0,246.56953,222.27976"><g transform="translate(-116.71523,-68.86012)"><g data-paper-data="{&quot;isPaintingLayer&quot;:true}" fill-rule="nonzero" stroke-linecap="butt" stroke-linejoin="miter" stroke-miterlimit="10" stroke-dasharray="" stroke-dashoffset="0" style="mix-blend-mode: normal"><path d="M202.01072,204.5288l-2.58623,-36.72446h25.34505v36.72446z" fill="#000000" stroke="#000000" stroke-width="2"/><path d="M213.85909,184.41316v-32.1911h24.60681c0,0 3.25823,1.08544 4.95487,3.01537c2.48762,2.82967 8.52831,12.32175 8.52831,12.32175z" fill="#000000" stroke="none" stroke-width="0"/><path d="M223.04157,146.8517c2.22284,-0.39068 12.6719,1.33977 14.65374,5.96479c0.35117,0.81952 -4.90961,5.1884 -9.6262,8.07077c-5.65575,3.45631 -10.97183,5.51321 -10.84343,6.67059c0.28759,2.59247 3.47508,8.8657 5.22886,11.22721c0.82621,1.11251 12.07015,-3.62198 13.57211,-4.43138c6.46326,-3.48304 9.98395,-8.21298 11.20413,-10.09529c0.33654,-0.51916 0.73964,-0.56354 1.15494,-0.10911c1.32776,1.45282 4.43147,4.91157 7.0956,8.35297c3.52002,4.54701 2.48944,9.27311 2.48944,9.27311c0,0 0.088,-4.97607 2.25292,-6.66456c2.16492,-1.68849 5.99309,-1.28567 11.89097,-4.36672c5.26072,-2.74819 10.7077,-6.42536 13.01149,-8.02652c0.72383,-0.50307 1.26041,-0.20064 1.43768,0.78689c0.66731,3.71745 2.10322,12.91839 0.63806,16.20786c-0.82576,1.85392 -6.7784,6.21909 -8.82049,8.36344c-4.88343,5.12796 -7.2858,7.89444 -7.2858,7.89444c0,0 -6.61815,-0.42153 -13.82371,-1.7783c-5.8942,-1.10985 -12.20918,-3.37229 -15.38462,-2.14116c-5.70587,2.2122 -11.01736,11.09041 -11.01736,11.09041c0,0 7.10486,-8.76543 13.48586,-9.38695c4.55331,-0.4435 10.36922,2.1771 18.51082,3.2733c6.79532,0.91494 14.35284,0.6865 18.18225,0.68098c1.34996,-0.00195 2.69549,-0.37151 2.49241,2.78081c-0.21037,3.26533 -1.24687,8.78682 -1.748,10.99688c-1.02426,4.51715 -3.71212,4.8198 -5.44753,5.01737c-4.46271,0.50807 -23.90825,2.38486 -23.90825,2.38486c0,0 -16.8702,1.38298 -23.18051,-1.76523c-15.28845,-7.62741 -22.40834,-27.77343 -24.14958,-36.66082c-3.70018,-18.88597 10.07153,-32.02138 17.9342,-33.61063z" fill="#8495c0" stroke="#000000" stroke-width="3"/><path d="M223.04157,146.8517c2.22284,-0.39068 12.6719,1.33977 14.65374,5.96479c0.35117,0.81952 -4.90961,5.1884 -9.6262,8.07077c-5.65575,3.45631 -10.97183,5.51321 -10.84343,6.67059c0.28759,2.59247 3.47508,8.8657 5.22886,11.22721c0.82621,1.11251 12.07015,-3.62198 13.57211,-4.43138c6.01641,-3.24223 9.48307,-7.56492 10.91786,-9.6654c0.53168,-0.77838 1.05628,-0.96097 1.51916,-0.45365c1.36812,1.49947 4.40438,4.89189 7.01766,8.26762c3.52002,4.54701 2.48944,9.27311 2.48944,9.27311c0,0 0.05882,-3.32582 1.26322,-5.46212c0.26881,-0.4768 0.59468,-0.89435 0.98971,-1.20244c2.16492,-1.68849 5.99309,-1.28567 11.89097,-4.36672c5.1231,-2.6763 10.42285,-6.23361 12.8243,-7.89666c0.83929,-0.58122 1.42167,-0.45709 1.56763,0.3411c0.63684,3.48253 2.20391,13.13678 0.6953,16.52379c-0.82576,1.85392 -6.7784,6.21909 -8.82049,8.36344c-4.88343,5.12796 -7.2858,7.89444 -7.2858,7.89444c0,0 -6.61815,-0.42153 -13.82371,-1.7783c-5.8942,-1.10985 -12.20918,-3.37229 -15.38462,-2.14116c-5.70587,2.2122 -11.01736,11.09041 -11.01736,11.09041c0,0 7.10486,-8.76543 13.48586,-9.38695c4.55331,-0.4435 10.36922,2.1771 18.51082,3.2733c6.79532,0.91494 14.35284,0.6865 18.18225,0.68098c1.34996,-0.00195 2.69549,-0.37151 2.49241,2.78081c-0.21037,3.26533 -1.24687,8.78682 -1.748,10.99688c-1.02426,4.51715 -3.71212,4.8198 -5.44753,5.01737c-4.46271,0.50807 -23.90825,2.38486 -23.90825,2.38486c0,0 -16.8702,1.38298 -23.18051,-1.76523c-15.28845,-7.62741 -22.40834,-27.77343 -24.14958,-36.66082c-3.70018,-18.88597 10.07153,-32.02138 17.9342,-33.61063z" fill="#7a0838" stroke="none" stroke-width="0"/><path d="M233.98742,153.49066c0.35117,0.81952 -1.20174,4.51424 -5.91833,7.39661c-5.65575,3.45631 -10.97182,5.51321 -10.84343,6.67059c0.28759,2.59247 2.87105,8.8657 4.62484,11.22721c0.47771,0.64325 1.14053,2.59605 3.59269,3.03144c1.78891,0.31762 4.62431,-0.21943 8.57003,-2.42925c6.32178,-3.40679 10.8343,-7.41479 12.59603,-9.09978c0.53621,-0.51286 1.09149,-0.52434 1.61061,0.06051c0.89769,1.01137 2.52868,2.91592 4.74466,5.77842c3.52002,4.54701 1.49919,11.7899 1.49919,11.7899c0,0 -0.34802,2.10595 -3.25991,2.17052c-3.60444,0.07993 -7.39456,-0.66963 -11.04732,1.67543c-3.65277,2.34507 -9.28659,11.37887 -9.28659,11.37887c0,0 7.10486,-8.76543 13.48586,-9.38695c4.55331,-0.4435 10.36922,2.1771 18.51082,3.2733c2.59177,0.34896 5.29443,0.5316 7.85882,0.62372c4.15913,0.1494 7.95458,0.06068 10.32343,0.05727c1.34996,-0.00195 2.69549,-0.37151 2.49241,2.78081c-0.21037,3.26533 -2.39309,9.82481 -7.19553,12.5527c-4.80244,2.72789 -20.8794,3.39448 -20.8794,3.39448c0,0 -20.04328,0.66182 -26.35359,-2.48639c-17.59615,-8.92549 -22.26411,-24.60034 -24.00534,-33.48773c-0.64781,-3.30643 -0.78591,-6.42629 -0.53074,-9.33206c1.20233,-13.69165 11.13612,-22.63048 17.62224,-23.94149c0,0 2.51241,-0.61416 4.64602,0.06194c2.98031,0.94441 5.98755,3.54453 7.14254,6.23993z" fill="#c61111" stroke="none" stroke-width="0"/><path d="M272.54733,170.59988c4.33395,-2.79469 10.77505,-6.72814 10.77505,-6.72814c0,0 1.39614,-0.73644 1.43419,2.06402c0.02821,1.00723 0.13383,2.32902 0.41613,3.87796c0.45996,2.52371 1.49066,5.16443 0.73109,6.86976c-0.82576,1.85392 -9.61589,10.05593 -9.61589,10.05593c0,0 -10.16013,8.51712 -14.30603,1.36215c-0.26233,-0.45273 -0.76314,-2.52406 -0.67183,-3.48469c0.12578,-1.32336 0.36151,-3.07927 0.54699,-4.57231c0.14036,-1.12985 1.32398,-3.49639 2.64134,-4.46507c2.3745,-1.74601 6.3019,-4.06695 8.04896,-4.97961z" fill="#c61111" stroke="none" stroke-width="0"/><path d="M197.67033,200.9525c-2.45268,-3.53026 -3.40635,-16.1714 -2.79826,-23.96915c0.51276,-6.57509 2.32073,-8.7189 3.41594,-8.99774c3.53459,-0.89989 1.82738,11.142 3.82444,18.41092c1.21715,4.43021 6.5197,13.7894 9.08484,18.17548c0.85047,1.45419 0.34171,2.3633 -1.23965,2.18048c-3.46101,-0.40013 -9.42739,-1.68356 -12.28732,-5.79998z" fill="#9966ff" stroke="#000000" stroke-width="3"/><path d="M197.67034,200.9525c-2.45268,-3.53026 -3.40635,-16.1714 -2.79826,-23.96915c0.51276,-6.57509 2.32073,-8.7189 3.41593,-8.99774c3.53459,-0.89989 1.82739,11.142 3.82446,18.41092c1.21715,4.43021 6.5197,13.78939 9.08484,18.17548c0.85047,1.45419 0.3417,2.3633 -1.23965,2.18048c-3.46101,-0.40013 -9.42739,-1.68356 -12.28731,-5.79998z" fill="#7a0838" stroke="none" stroke-width="0"/><path d="M196.96711,199.50137c0,0 -0.81514,-1.88444 -1.56711,-6.65196c-0.80766,-5.12059 -0.84284,-11.82796 -0.52794,-15.86604c0.51275,-6.57509 2.32072,-8.7189 3.41593,-8.99774c1.88317,-0.47946 -0.69903,9.28157 0.6298,17.60305c0.65654,4.11145 2.15028,8.66049 3.71659,11.09803c1.21373,1.88882 0.27276,2.63256 -0.58659,2.86959c-1.40186,0.38666 -5.08068,-0.05493 -5.08068,-0.05493z" fill="#c61111" stroke="none" stroke-width="0"/><path d="M137.1555,174.63864c0,-48.24308 43.38237,-87.35181 96.89723,-87.35181c53.51488,0 96.89723,39.10874 96.89723,87.35181c0,48.24308 -43.38237,87.35181 -96.89725,87.35181c-53.51488,0 -96.89723,-39.10872 -96.89723,-87.35181z" data-paper-data="{&quot;index&quot;:null}" fill="none" stroke="none" stroke-width="0"/><g stroke="none" stroke-width="0"><path d="M223.01651,175.2346c-0.52183,-0.92264 -2.03992,-3.60674 -2.96479,-5.24198c-0.44024,-0.77837 -0.34012,-1.54819 0.3283,-1.93158c2.20092,-1.26241 7.24756,-4.19782 10.01787,-6.13659c2.48452,-1.73876 6.76636,-5.32023 8.6816,-6.94181c0.60619,-0.51324 1.27525,-0.3427 1.71399,0.38625c0.8014,1.33149 2.06588,3.46874 2.81126,4.91292c0.18609,0.36055 0.66011,1.82001 0.41497,2.74015c-0.20263,0.76054 -0.63407,1.66122 -1.47893,2.52115c-3.46001,3.52173 -10.48874,7.85565 -13.40499,9.62623c-1.33736,0.81197 -2.69393,1.16229 -3.70783,1.31025c-0.98977,0.14444 -2.06323,-0.6293 -2.41145,-1.24498z" fill="#95cadc"/><path d="M225.52235,172.91174c-0.30947,-0.54716 -1.20974,-2.13891 -1.75822,-3.10867c-0.26108,-0.46159 -0.20171,-0.91813 0.19469,-1.14549c0.61116,-0.35055 4.96254,-0.9731 8.26066,-3.50272c3.89728,-2.98917 4.55276,-4.33001 5.57801,-5.85901c0.52674,-0.78554 1.31328,-0.63673 1.69852,-0.20181c0.32534,0.36729 1.41456,2.28637 1.91894,3.51555c0.20977,0.51122 -0.42898,1.76611 -0.92996,2.16927c-3.24572,2.612 -10.03112,7.30333 -11.3337,8.09419c-0.7931,0.48153 -1.59759,0.68927 -2.19887,0.77702c-0.58696,0.08566 -1.22357,-0.3732 -1.43007,-0.73831z" fill="#4a646d"/></g><path d="M116.71526,180c0,-61.38087 55.19647,-111.13988 123.28475,-111.13988c68.08831,0 123.28475,49.75903 123.28475,111.13988c0,61.38087 -55.19647,111.13988 -123.28478,111.13988c-68.08831,0 -123.28475,-49.759 -123.28475,-111.13988z" data-paper-data="{&quot;index&quot;:null}" fill="none" stroke="none" stroke-width="0"/></g></g></svg>