<svg version="1.1" xmlns="http://www.w3.org/2000/svg" xmlns:xlink="http://www.w3.org/1999/xlink" width="706.21021" height="368" viewBox="0,0,706.21021,368"><g transform="translate(23.10509,4)"><g data-paper-data="{&quot;isPaintingLayer&quot;:true}" fill-rule="nonzero" stroke-linejoin="miter" stroke-miterlimit="10" stroke-dasharray="" stroke-dashoffset="0" style="mix-blend-mode: normal"><path d="M-22.10509,363v-366h704.21021v366z" fill="#000000" stroke="#000000" stroke-width="2" stroke-linecap="butt"/><path d="M120.1859,178.83657l-4.60225,-7.14532c-0.75503,-1.16 -1.13254,-1.96651 -1.13254,-2.41953c0,-0.45302 0.17502,-0.8374 0.52508,-1.15314c0.35006,-0.3226 0.77219,-0.4839 1.26638,-0.4839c0.46675,0 0.83396,0.13384 1.10165,0.40154c0.26769,0.26769 0.69325,0.87172 1.27669,1.81206l3.52118,5.7245l3.57267,-5.7245c0.61776,-1.009 1.06391,-1.63017 1.33846,-1.86355c0.28142,-0.23337 0.64178,-0.35006 1.08107,-0.35006c0.45988,0 0.85455,0.16129 1.18402,0.4839c0.32946,0.31574 0.49421,0.68982 0.49421,1.12225c0,0.43242 -0.36722,1.21491 -1.10165,2.34745l-4.72579,7.24829v5.14793c0,0.83053 -0.03432,1.43455 -0.10296,1.81206c-0.06864,0.37066 -0.27113,0.68982 -0.60746,0.95752c-0.32946,0.26083 -0.72414,0.39124 -1.18402,0.39124c-0.43242,0 -0.82023,-0.12699 -1.16344,-0.38095c-0.33633,-0.26083 -0.54568,-0.57657 -0.62805,-0.94722c-0.0755,-0.37751 -0.11326,-0.9884 -0.11326,-1.83267zM138.3272,172.86498c2.17585,0 3.8884,0.67267 5.13763,2.01799c1.24923,1.33846 1.87385,3.04414 1.87385,5.11704c0,2.08663 -0.63491,3.79917 -1.90473,5.13764c-1.26296,1.33846 -2.93776,2.00769 -5.02438,2.00769c-2.26509,0 -4.01195,-0.67609 -5.24059,-2.02828c-1.22864,-1.35905 -1.84295,-3.06473 -1.84295,-5.11704c0,-2.07976 0.62118,-3.78887 1.86355,-5.12733c1.24923,-1.33846 2.96177,-2.00769 5.13763,-2.00769zM138.3272,184.53019c1.06391,0 1.90473,-0.39811 2.52249,-1.19432c0.62461,-0.80308 0.93692,-1.91503 0.93692,-3.33585c0,-1.42083 -0.31231,-2.53278 -0.93692,-3.33585c-0.61776,-0.80308 -1.45858,-1.20462 -2.52249,-1.20462c-1.05018,0 -1.88758,0.40497 -2.51219,1.21491c-0.62461,0.80308 -0.93692,1.91159 -0.93692,3.32556c0,1.42769 0.30887,2.53964 0.92663,3.33585c0.62461,0.79622 1.46545,1.19432 2.52249,1.19432zM147.99758,181.92534v-6.16722c0,-0.7619 0.03089,-1.31101 0.09266,-1.64733c0.06178,-0.34319 0.24367,-0.63491 0.54568,-0.87515c0.30887,-0.2471 0.67609,-0.37066 1.10165,-0.37066c0.41184,0 0.77219,0.11669 1.08107,0.35006c0.31574,0.22651 0.51136,0.52852 0.58686,0.90604c0.0755,0.37751 0.11326,0.94722 0.11326,1.70912v4.82876c0,1.58557 0.24367,2.60142 0.731,3.04758c0.49421,0.44615 1.03989,0.66923 1.63704,0.66923c0.67267,0 1.26296,-0.18875 1.77088,-0.56626c0.51479,-0.38439 0.86485,-0.84426 1.05018,-1.37964c0.18532,-0.53539 0.27799,-1.59242 0.27799,-3.17112v-3.50059c0,-0.74817 0.03432,-1.30071 0.10296,-1.65762c0.0755,-0.35692 0.26769,-0.65207 0.57657,-0.88545c0.30887,-0.23337 0.67267,-0.35006 1.09136,-0.35006c0.40497,0 0.7619,0.11669 1.07076,0.35006c0.31574,0.22651 0.5045,0.51479 0.56626,0.86485c0.06864,0.34319 0.10296,0.9026 0.10296,1.67822v8.66911c0,0.71385 -0.03432,1.23207 -0.10296,1.55468c-0.06864,0.31574 -0.24024,0.5903 -0.51479,0.82367c-0.26769,0.22651 -0.60746,0.33977 -1.01929,0.33977c-1.13254,0 -1.67479,-0.80994 -1.62675,-2.42982c-1.18059,1.61988 -2.73184,2.42982 -4.65373,2.42982c-1.26982,0 -2.35089,-0.37751 -3.24319,-1.13254c-0.89231,-0.7619 -1.33846,-2.12438 -1.33846,-4.08745zM181.4514,185.13764v-0.35006c-1.20805,1.57184 -2.73869,2.35775 -4.59195,2.35775c-1.79834,0 -3.22603,-0.67952 -4.28308,-2.03858c-1.05704,-1.36591 -1.58557,-3.12994 -1.58557,-5.29208c0,-2.04544 0.51479,-3.71338 1.54438,-5.00378c1.03645,-1.29728 2.46758,-1.94591 4.29337,-1.94591c1.77775,0 3.3187,0.71385 4.62283,2.14154v-4.55077c0,-1.26296 0.15787,-2.04888 0.47361,-2.35775c0.31574,-0.30887 0.74473,-0.46331 1.28699,-0.46331c0.37751,0 0.72414,0.10982 1.03989,0.32946c0.3226,0.21964 0.51823,0.5045 0.58686,0.85455c0.0755,0.35006 0.11326,0.93007 0.11326,1.74v13.84793c0,0.78249 -0.04118,1.3419 -0.12355,1.67822c-0.08237,0.32946 -0.28142,0.58686 -0.59715,0.77219c-0.31574,0.19219 -0.66237,0.28828 -1.03989,0.28828c-1.16,0 -1.74,-0.66923 -1.74,-2.00769zM174.54287,179.91763c0,1.5787 0.32946,2.73184 0.9884,3.45941c0.66579,0.7207 1.42426,1.08107 2.27538,1.08107c0.99527,0 1.81894,-0.37751 2.471,-1.13254c0.65207,-0.75503 0.9781,-1.81206 0.9781,-3.17112c0,-1.41396 -0.31917,-2.53964 -0.95752,-3.37704c-0.63148,-0.84426 -1.46887,-1.26638 -2.51219,-1.26638c-0.95408,0 -1.73314,0.39124 -2.33716,1.17373c-0.60403,0.78249 -0.90604,1.86012 -0.90604,3.2329zM190.09992,167.78912c0.45302,0 0.84769,0.1716 1.18402,0.51479c0.33633,0.34319 0.5045,0.74131 0.5045,1.19432c0,0.47361 -0.16817,0.88201 -0.5045,1.2252c-0.33633,0.33633 -0.731,0.5045 -1.18402,0.5045c-0.47361,0 -0.88201,-0.16817 -1.2252,-0.5045c-0.33633,-0.34319 -0.5045,-0.7516 -0.5045,-1.2252c0,-0.45988 0.16817,-0.85799 0.5045,-1.19432c0.34319,-0.34319 0.7516,-0.51479 1.2252,-0.51479zM191.83991,175.72722v8.51468c0,0.8374 -0.04118,1.41054 -0.12355,1.71941c-0.0755,0.30887 -0.27113,0.58343 -0.58686,0.82367c-0.31574,0.24024 -0.65894,0.36036 -1.02958,0.36036c-0.37751,0 -0.731,-0.11669 -1.06047,-0.35006c-0.3226,-0.24024 -0.52508,-0.51823 -0.60746,-0.83396c-0.0755,-0.31574 -0.11326,-0.88887 -0.11326,-1.71941v-8.4838c0,-0.78249 0.03089,-1.33503 0.09266,-1.65762c0.06178,-0.3226 0.2471,-0.60746 0.55597,-0.85455c0.31574,-0.25396 0.67952,-0.38095 1.09136,-0.38095c0.41869,0 0.77905,0.11326 1.08107,0.33977c0.30201,0.22651 0.49421,0.51479 0.57657,0.86485c0.08237,0.34319 0.12355,0.89574 0.12355,1.65762zM198.12811,176.52c0,0.45302 0.23681,0.80994 0.71041,1.07076c0.47361,0.25396 1.52722,0.58343 3.16083,0.9884c3.18485,0.76876 4.77728,2.09349 4.77728,3.97421c0,1.4826 -0.53539,2.61858 -1.60615,3.40792c-1.07076,0.78935 -2.57396,1.18402 -4.50959,1.18402c-1.95622,0 -3.42853,-0.40154 -4.41692,-1.20462c-0.9884,-0.80994 -1.4826,-1.6645 -1.4826,-2.56367c0,-0.38439 0.13728,-0.71385 0.41184,-0.9884c0.27455,-0.27455 0.61088,-0.41184 1.009,-0.41184c0.54912,0 1.02958,0.34319 1.44142,1.02958c0.46675,0.75503 0.9781,1.25609 1.53408,1.5032c0.55597,0.24024 1.15314,0.36036 1.79148,0.36036c0.70012,0 1.26982,-0.15444 1.70912,-0.46331c0.44615,-0.31574 0.66923,-0.71385 0.66923,-1.19432c0,-0.43929 -0.18875,-0.82023 -0.56626,-1.14284c-0.37066,-0.3226 -1.38994,-0.67267 -3.05787,-1.05018c-1.66793,-0.38439 -2.88284,-0.91977 -3.64473,-1.60615c-0.7619,-0.69325 -1.14284,-1.51693 -1.14284,-2.471c0,-1.07076 0.46331,-2.01799 1.38994,-2.84166c0.93349,-0.82367 2.33029,-1.2355 4.19041,-1.2355c1.70912,0 3.06817,0.34663 4.07715,1.03989c1.01586,0.69325 1.52378,1.41396 1.52378,2.16212c0,0.39124 -0.13041,0.72414 -0.39124,0.9987c-0.25396,0.26769 -0.60746,0.40154 -1.06047,0.40154c-0.67952,0 -1.29384,-0.38781 -1.84296,-1.16344c-0.54224,-0.78249 -1.36249,-1.17373 -2.46071,-1.17373c-0.5903,0 -1.10852,0.12011 -1.55468,0.36036c-0.43929,0.24024 -0.65894,0.58343 -0.65894,1.02958zM220.85621,181.2664c0.43242,0 0.78935,0.16817 1.07076,0.5045c0.28142,0.32946 0.42213,0.67267 0.42213,1.02958c0,0.94722 -0.5697,1.90817 -1.70912,2.88284c-1.13941,0.97467 -2.66662,1.46201 -4.58165,1.46201c-2.30627,0 -4.0497,-0.65207 -5.23029,-1.95622c-1.17373,-1.31101 -1.76059,-3.01326 -1.76059,-5.10675c0,-2.12094 0.60746,-3.85407 1.82237,-5.19941c1.22177,-1.34532 2.96177,-2.01799 5.22,-2.01799c1.7503,0 3.19857,0.45645 4.34484,1.36935c1.14627,0.9129 1.71941,1.8155 1.71941,2.7078c0,0.42557 -0.15444,0.78249 -0.46331,1.07076c-0.30887,0.28828 -0.67609,0.43242 -1.10165,0.43242c-0.51479,0 -0.91634,-0.21964 -1.20462,-0.65894c-0.64521,-0.97467 -1.21835,-1.59242 -1.71941,-1.85326c-0.49421,-0.26083 -1.02958,-0.39124 -1.60615,-0.39124c-1.11882,0 -1.98367,0.43242 -2.59455,1.29728c-0.61088,0.85799 -0.91634,1.92876 -0.91634,3.2123c0,1.32473 0.31917,2.40237 0.95752,3.2329c0.63834,0.83053 1.48946,1.2458 2.55337,1.2458c0.61088,0 1.17373,-0.14071 1.68852,-0.42213c0.51479,-0.28828 0.95752,-0.7207 1.32817,-1.29728c0.37751,-0.58343 0.67609,-0.98498 0.89574,-1.20462c0.21964,-0.22651 0.50794,-0.33977 0.86485,-0.33977zM231.55618,172.86498c2.17585,0 3.8884,0.67267 5.13763,2.01799c1.24923,1.33846 1.87385,3.04414 1.87385,5.11704c0,2.08663 -0.63491,3.79917 -1.90473,5.13764c-1.26296,1.33846 -2.93776,2.00769 -5.02438,2.00769c-2.26509,0 -4.01195,-0.67609 -5.24059,-2.02828c-1.22864,-1.35905 -1.84296,-3.06473 -1.84296,-5.11704c0,-2.07976 0.62118,-3.78887 1.86355,-5.12733c1.24923,-1.33846 2.96177,-2.00769 5.13763,-2.00769zM231.55618,184.53019c1.06391,0 1.90473,-0.39811 2.52249,-1.19432c0.62461,-0.80308 0.93692,-1.91503 0.93692,-3.33585c0,-1.42083 -0.31231,-2.53278 -0.93692,-3.33585c-0.61776,-0.80308 -1.45858,-1.20462 -2.52249,-1.20462c-1.05018,0 -1.88758,0.40497 -2.51219,1.21491c-0.62461,0.80308 -0.93692,1.91159 -0.93692,3.32556c0,1.42769 0.30887,2.53964 0.92663,3.33585c0.62461,0.79622 1.46545,1.19432 2.52249,1.19432zM253.72572,178.47623v5.76568c0,0.74131 -0.03089,1.28355 -0.09266,1.62675c-0.05491,0.33633 -0.23681,0.63491 -0.54568,0.89574c-0.30887,0.25396 -0.67609,0.38095 -1.10165,0.38095c-0.37751,0 -0.731,-0.11326 -1.06047,-0.33977c-0.3226,-0.22651 -0.52166,-0.52166 -0.59715,-0.88545c-0.0755,-0.36378 -0.11326,-0.92319 -0.11326,-1.67822v-5.06557c0,-1.4071 -0.21278,-2.35432 -0.63834,-2.84166c-0.41869,-0.48733 -0.99527,-0.731 -1.7297,-0.731c-0.67267,0 -1.26296,0.19219 -1.77088,0.57657c-0.50106,0.38439 -0.85455,0.86828 -1.06047,1.45172c-0.20592,0.57657 -0.30887,1.5684 -0.30887,2.9755v3.63444c0,0.73443 -0.02745,1.26982 -0.08237,1.60615c-0.05491,0.33633 -0.24367,0.63834 -0.56626,0.90604c-0.31574,0.26083 -0.67952,0.39124 -1.09136,0.39124c-0.38439,0 -0.74131,-0.11669 -1.07076,-0.35006c-0.3226,-0.24024 -0.51823,-0.53539 -0.58686,-0.88545c-0.06864,-0.35006 -0.10296,-0.90604 -0.10296,-1.66793v-8.66911c0,-0.77563 0.03432,-1.31787 0.10296,-1.62675c0.0755,-0.30887 0.26083,-0.56626 0.55597,-0.77219c0.29514,-0.20592 0.62805,-0.30887 0.9987,-0.30887c0.34319,0 0.70012,0.13384 1.07076,0.40154c0.37751,0.26769 0.56626,0.92319 0.56626,1.96651c1.17373,-1.5787 2.68378,-2.36805 4.53018,-2.36805c0.70012,0 1.39337,0.13384 2.07976,0.40154c0.68639,0.26083 1.2458,0.68982 1.67822,1.28699c0.43929,0.59715 0.70355,1.21491 0.79278,1.85326c0.09609,0.63834 0.14414,1.32817 0.14414,2.06946zM269.64569,178.47623v5.76568c0,0.74131 -0.03089,1.28355 -0.09266,1.62675c-0.05491,0.33633 -0.23681,0.63491 -0.54568,0.89574c-0.30887,0.25396 -0.67609,0.38095 -1.10165,0.38095c-0.37751,0 -0.731,-0.11326 -1.06047,-0.33977c-0.3226,-0.22651 -0.52166,-0.52166 -0.59715,-0.88545c-0.0755,-0.36378 -0.11326,-0.92319 -0.11326,-1.67822v-5.06557c0,-1.4071 -0.21278,-2.35432 -0.63834,-2.84166c-0.41869,-0.48733 -0.99527,-0.731 -1.7297,-0.731c-0.67267,0 -1.26296,0.19219 -1.77088,0.57657c-0.50106,0.38439 -0.85455,0.86828 -1.06047,1.45172c-0.20592,0.57657 -0.30887,1.5684 -0.30887,2.9755v3.63444c0,0.73443 -0.02745,1.26982 -0.08237,1.60615c-0.05491,0.33633 -0.24367,0.63834 -0.56626,0.90604c-0.31574,0.26083 -0.67952,0.39124 -1.09136,0.39124c-0.38439,0 -0.74131,-0.11669 -1.07076,-0.35006c-0.3226,-0.24024 -0.51823,-0.53539 -0.58686,-0.88545c-0.06864,-0.35006 -0.10296,-0.90604 -0.10296,-1.66793v-8.66911c0,-0.77563 0.03432,-1.31787 0.10296,-1.62675c0.0755,-0.30887 0.26083,-0.56626 0.55597,-0.77219c0.29514,-0.20592 0.62805,-0.30887 0.9987,-0.30887c0.34319,0 0.70012,0.13384 1.07076,0.40154c0.37751,0.26769 0.56626,0.92319 0.56626,1.96651c1.17373,-1.5787 2.68378,-2.36805 4.53018,-2.36805c0.70012,0 1.39337,0.13384 2.07976,0.40154c0.68639,0.26083 1.2458,0.68982 1.67822,1.28699c0.43929,0.59715 0.70355,1.21491 0.79278,1.85326c0.09609,0.63834 0.14414,1.32817 0.14414,2.06946zM282.98141,180.86486h-6.89822c0.03432,1.30414 0.39124,2.28911 1.07076,2.95491c0.68639,0.66579 1.5032,0.9987 2.45041,0.9987c1.18059,0 2.28911,-0.51479 3.32556,-1.54438c0.41869,-0.43242 0.72758,-0.70012 0.92663,-0.80308c0.20592,-0.10296 0.43242,-0.15444 0.67952,-0.15444c0.31574,0 0.58686,0.09953 0.81337,0.29858c0.23337,0.19905 0.35006,0.44272 0.35006,0.731c0,0.78935 -0.54224,1.61988 -1.62675,2.4916c-1.07763,0.87172 -2.53964,1.30758 -4.38603,1.30758c-2.35432,0 -4.13893,-0.66237 -5.35384,-1.9871c-1.20805,-1.32473 -1.81206,-3.04414 -1.81206,-5.15823c0,-2.12781 0.60403,-3.84722 1.81206,-5.15822c1.21491,-1.31787 2.90343,-1.97681 5.06557,-1.97681c2.0729,0 3.66876,0.62118 4.78758,1.86355c1.12567,1.24236 1.68852,2.59455 1.68852,4.05657c0,0.63834 -0.18875,1.14627 -0.56626,1.52378c-0.37066,0.37066 -1.14627,0.55597 -2.32686,0.55597zM276.08318,178.86747h6.39373c-0.04118,-1.16686 -0.36378,-2.05574 -0.96781,-2.66662c-0.59715,-0.61088 -1.33846,-0.91634 -2.22391,-0.91634c-1.86012,0 -2.92746,1.19432 -3.20201,3.58296zM299.94125,181.2664c0.43242,0 0.78935,0.16817 1.07076,0.5045c0.28142,0.32946 0.42213,0.67267 0.42213,1.02958c0,0.94722 -0.5697,1.90817 -1.70912,2.88284c-1.13941,0.97467 -2.66662,1.46201 -4.58165,1.46201c-2.30627,0 -4.0497,-0.65207 -5.23029,-1.95622c-1.17373,-1.31101 -1.76059,-3.01326 -1.76059,-5.10675c0,-2.12094 0.60746,-3.85407 1.82237,-5.19941c1.22177,-1.34532 2.96177,-2.01799 5.22,-2.01799c1.7503,0 3.19857,0.45645 4.34484,1.36935c1.14627,0.9129 1.71941,1.8155 1.71941,2.7078c0,0.42557 -0.15444,0.78249 -0.46331,1.07076c-0.30887,0.28828 -0.67609,0.43242 -1.10165,0.43242c-0.51479,0 -0.91634,-0.21964 -1.20462,-0.65894c-0.64521,-0.97467 -1.21835,-1.59242 -1.71941,-1.85326c-0.49421,-0.26083 -1.02958,-0.39124 -1.60615,-0.39124c-1.11882,0 -1.98367,0.43242 -2.59455,1.29728c-0.61088,0.85799 -0.91634,1.92876 -0.91634,3.2123c0,1.32473 0.31917,2.40237 0.95752,3.2329c0.63834,0.83053 1.48946,1.2458 2.55337,1.2458c0.61088,0 1.17373,-0.14071 1.68852,-0.42213c0.51479,-0.28828 0.95752,-0.7207 1.32817,-1.29728c0.37751,-0.58343 0.67609,-0.98498 0.89574,-1.20462c0.21964,-0.22651 0.50794,-0.33977 0.86485,-0.33977zM305.08146,173.17385v-2.11065c0,-0.87172 0.03432,-1.46201 0.10296,-1.77088c0.0755,-0.31574 0.26426,-0.59373 0.56626,-0.83396c0.30887,-0.2471 0.66923,-0.37066 1.08107,-0.37066c0.37751,0 0.71728,0.11326 1.01929,0.33977c0.30201,0.21964 0.50106,0.48733 0.59715,0.80308c0.09609,0.31574 0.14414,0.83053 0.14414,1.54438v2.39893h0.67952c0.85799,0 1.42769,0.10639 1.70912,0.31917c0.28828,0.20592 0.43242,0.51136 0.43242,0.91634c0,0.86485 -0.7207,1.29728 -2.16212,1.29728h-0.65894v6.48639c0,0.87172 0.06178,1.46887 0.18532,1.79148c0.12355,0.31574 0.45645,0.47361 0.9987,0.47361c0.25396,0 0.54224,-0.03432 0.86485,-0.10296c0.3226,-0.0755 0.56284,-0.11326 0.7207,-0.11326c0.35006,0 0.63491,0.11669 0.85455,0.35006c0.21964,0.22651 0.32946,0.5045 0.32946,0.83396c0,1.14627 -1.21491,1.71941 -3.64473,1.71941c-1.17373,0 -2.03858,-0.21622 -2.59455,-0.64864c-0.55597,-0.43929 -0.89917,-0.97125 -1.02958,-1.59586c-0.13041,-0.63148 -0.19562,-1.44828 -0.19562,-2.45041v-6.74379h-0.46331c-1.04331,0 -1.56497,-0.42557 -1.56497,-1.27669c0,-0.8374 0.54568,-1.25609 1.63704,-1.25609zM323.63716,180.86486h-6.89822c0.03432,1.30414 0.39124,2.28911 1.07076,2.95491c0.68639,0.66579 1.5032,0.9987 2.45041,0.9987c1.18059,0 2.28911,-0.51479 3.32556,-1.54438c0.41869,-0.43242 0.72758,-0.70012 0.92663,-0.80308c0.20592,-0.10296 0.43242,-0.15444 0.67952,-0.15444c0.31574,0 0.58686,0.09953 0.81337,0.29858c0.23337,0.19905 0.35006,0.44272 0.35006,0.731c0,0.78935 -0.54224,1.61988 -1.62675,2.4916c-1.07763,0.87172 -2.53964,1.30758 -4.38603,1.30758c-2.35432,0 -4.13893,-0.66237 -5.35384,-1.9871c-1.20805,-1.32473 -1.81206,-3.04414 -1.81206,-5.15823c0,-2.12781 0.60403,-3.84722 1.81206,-5.15822c1.21491,-1.31787 2.90343,-1.97681 5.06557,-1.97681c2.0729,0 3.66876,0.62118 4.78758,1.86355c1.12567,1.24236 1.68852,2.59455 1.68852,4.05657c0,0.63834 -0.18875,1.14627 -0.56626,1.52378c-0.37066,0.37066 -1.14627,0.55597 -2.32686,0.55597zM316.73894,178.86747h6.39373c-0.04118,-1.16686 -0.36378,-2.05574 -0.96781,-2.66662c-0.59715,-0.61088 -1.33846,-0.91634 -2.22391,-0.91634c-1.86012,0 -2.92746,1.19432 -3.20201,3.58296zM339.09381,185.13764v-0.35006c-1.20805,1.57184 -2.73869,2.35775 -4.59195,2.35775c-1.79834,0 -3.22603,-0.67952 -4.28308,-2.03858c-1.05704,-1.36591 -1.58557,-3.12994 -1.58557,-5.29208c0,-2.04544 0.51479,-3.71338 1.54438,-5.00378c1.03645,-1.29728 2.46758,-1.94591 4.29337,-1.94591c1.77775,0 3.3187,0.71385 4.62283,2.14154v-4.55077c0,-1.26296 0.15787,-2.04888 0.47361,-2.35775c0.31574,-0.30887 0.74473,-0.46331 1.28699,-0.46331c0.37751,0 0.72414,0.10982 1.03989,0.32946c0.3226,0.21964 0.51823,0.5045 0.58686,0.85455c0.0755,0.35006 0.11326,0.93007 0.11326,1.74v13.84793c0,0.78249 -0.04118,1.3419 -0.12355,1.67822c-0.08237,0.32946 -0.28142,0.58686 -0.59715,0.77219c-0.31574,0.19219 -0.66237,0.28828 -1.03989,0.28828c-1.16,0 -1.74,-0.66923 -1.74,-2.00769zM332.1853,179.91763c0,1.5787 0.32946,2.73184 0.9884,3.45941c0.66579,0.7207 1.42426,1.08107 2.27538,1.08107c0.99527,0 1.81894,-0.37751 2.471,-1.13254c0.65207,-0.75503 0.9781,-1.81206 0.9781,-3.17112c0,-1.41396 -0.31917,-2.53964 -0.95752,-3.37704c-0.63148,-0.84426 -1.46887,-1.26638 -2.51219,-1.26638c-0.95408,0 -1.73314,0.39124 -2.33716,1.17373c-0.60403,0.78249 -0.90604,1.86012 -0.90604,3.2329zM354.32139,173.17385v-1.02958c0,-1.79834 0.37066,-2.99953 1.11194,-3.60355c0.74817,-0.60403 1.81894,-0.90604 3.2123,-0.90604c2.23076,0 3.34616,0.50106 3.34616,1.5032c0,0.30887 -0.10639,0.58343 -0.31917,0.82367c-0.21278,0.24024 -0.49421,0.36036 -0.84426,0.36036c-0.06864,0 -0.29514,-0.02402 -0.67952,-0.07208c-0.37751,-0.05491 -0.59715,-0.08237 -0.65894,-0.08237c-0.49421,0 -0.89574,0.13041 -1.20462,0.39124c-0.30201,0.25396 -0.45302,0.84426 -0.45302,1.77088v0.84426h0.88545c1.32473,0 1.9871,0.41184 1.9871,1.2355c0,0.39811 -0.12699,0.71385 -0.38095,0.94722c-0.25396,0.23337 -0.78935,0.35006 -1.60615,0.35006h-0.88545v8.53527c0,0.65894 -0.02745,1.16 -0.08237,1.5032c-0.05491,0.33633 -0.21278,0.6555 -0.47361,0.95752c-0.25396,0.29514 -0.65207,0.44272 -1.19432,0.44272c-0.55597,0 -0.9884,-0.1819 -1.29728,-0.54568c-0.30887,-0.36378 -0.46331,-1.14971 -0.46331,-2.35775v-8.53527h-0.9781c-1.07076,0 -1.60615,-0.43242 -1.60615,-1.29728c0,-0.82367 0.5903,-1.2355 1.77088,-1.2355zM362.54263,184.2419v-9.00887c0,-1.5787 0.57999,-2.36805 1.74,-2.36805c1.10509,0 1.67135,0.72758 1.69882,2.18272c0.72758,-1.45515 1.73314,-2.18272 3.01668,-2.18272c0.67952,0 1.37964,0.17846 2.10036,0.53539c0.72758,0.35006 1.09136,0.83396 1.09136,1.45172c0,0.43242 -0.14757,0.78935 -0.44272,1.07076c-0.28828,0.27455 -0.59715,0.41184 -0.92663,0.41184c-0.19219,0 -0.53539,-0.0755 -1.02958,-0.22651c-0.49421,-0.151 -0.90604,-0.22651 -1.2355,-0.22651c-0.84426,0 -1.47231,0.42557 -1.88414,1.27669c-0.41184,0.85113 -0.61776,2.4916 -0.61776,4.92142v2.02828c0,0.89231 -0.03775,1.49633 -0.11326,1.81206c-0.06864,0.30887 -0.2574,0.5903 -0.56626,0.84426c-0.30887,0.25396 -0.66579,0.38095 -1.07076,0.38095c-0.38439,0 -0.731,-0.11326 -1.03989,-0.33977c-0.30887,-0.22651 -0.50794,-0.49421 -0.59715,-0.80308c-0.08237,-0.31574 -0.12355,-0.9026 -0.12355,-1.76059zM380.25408,172.86498c2.17585,0 3.8884,0.67267 5.13763,2.01799c1.24923,1.33846 1.87385,3.04414 1.87385,5.11704c0,2.08663 -0.63491,3.79917 -1.90473,5.13764c-1.26296,1.33846 -2.93776,2.00769 -5.02438,2.00769c-2.26509,0 -4.01195,-0.67609 -5.24059,-2.02828c-1.22864,-1.35905 -1.84296,-3.06473 -1.84296,-5.11704c0,-2.07976 0.62118,-3.78887 1.86355,-5.12733c1.24923,-1.33846 2.96177,-2.00769 5.13763,-2.00769zM380.25408,184.53019c1.06391,0 1.90473,-0.39811 2.52249,-1.19432c0.62461,-0.80308 0.93692,-1.91503 0.93692,-3.33585c0,-1.42083 -0.31231,-2.53278 -0.93692,-3.33585c-0.61776,-0.80308 -1.45858,-1.20462 -2.52249,-1.20462c-1.05018,0 -1.88758,0.40497 -2.51219,1.21491c-0.62461,0.80308 -0.93692,1.91159 -0.93692,3.32556c0,1.42769 0.30887,2.53964 0.92663,3.33585c0.62461,0.79622 1.46545,1.19432 2.52249,1.19432zM409.93959,178.07468v6.06425c0,0.83053 -0.03432,1.4174 -0.10296,1.76059c-0.06864,0.33633 -0.2574,0.62805 -0.56626,0.87515c-0.30201,0.2471 -0.66237,0.37066 -1.08107,0.37066c-0.41184,0 -0.77219,-0.12011 -1.08107,-0.36036c-0.30201,-0.2471 -0.49077,-0.55255 -0.56626,-0.91634c-0.0755,-0.36378 -0.11326,-0.94036 -0.11326,-1.7297v-5.13764c0,-1.5032 -0.17846,-2.44355 -0.53539,-2.82106c-0.35692,-0.38439 -0.84426,-0.57657 -1.46201,-0.57657c-0.64521,0 -1.18746,0.17846 -1.62675,0.53539c-0.43929,0.35692 -0.74131,0.82367 -0.90604,1.40023c-0.16473,0.5697 -0.2471,1.46887 -0.2471,2.69751v3.90213c0,0.83053 -0.03432,1.42083 -0.10296,1.77088c-0.06178,0.34319 -0.25054,0.63491 -0.56626,0.87515c-0.30887,0.24024 -0.67267,0.36036 -1.09136,0.36036c-0.54224,0 -0.96781,-0.1819 -1.27669,-0.54568c-0.30887,-0.36378 -0.46331,-1.18402 -0.46331,-2.46071v-4.82876c0,-1.37278 -0.10296,-2.33373 -0.30887,-2.88284c-0.20592,-0.54912 -0.74131,-0.82367 -1.60615,-0.82367c-0.89917,0 -1.60959,0.28828 -2.13125,0.86485c-0.52166,0.5697 -0.78249,1.79834 -0.78249,3.68591v3.9845c0,0.80994 -0.02745,1.37964 -0.08237,1.70912c-0.05491,0.3226 -0.23681,0.62118 -0.54568,0.89574c-0.30887,0.26769 -0.66923,0.40154 -1.08107,0.40154c-0.39124,0 -0.74817,-0.12011 -1.07076,-0.36036c-0.3226,-0.24024 -0.52508,-0.52852 -0.60746,-0.86485c-0.0755,-0.34319 -0.11326,-0.93692 -0.11326,-1.78118v-8.51468c0,-0.80994 0.03775,-1.35905 0.11326,-1.64733c0.0755,-0.29514 0.26426,-0.55255 0.56626,-0.77219c0.30201,-0.22651 0.63148,-0.33977 0.9884,-0.33977c1.11882,0 1.67822,0.71385 1.67822,2.14154c1.18059,-1.42769 2.59799,-2.14154 4.25219,-2.14154c1.77775,0 3.06817,0.71385 3.87124,2.14154c1.19432,-1.42769 2.58769,-2.14154 4.18012,-2.14154c1.22864,0 2.27882,0.33977 3.15053,1.01929c0.87858,0.67267 1.31787,2.06946 1.31787,4.19041zM421.75924,173.17385v-2.11065c0,-0.87172 0.03432,-1.46201 0.10296,-1.77088c0.0755,-0.31574 0.26426,-0.59373 0.56626,-0.83396c0.30887,-0.2471 0.66923,-0.37066 1.08107,-0.37066c0.37751,0 0.71728,0.11326 1.01929,0.33977c0.30201,0.21964 0.50106,0.48733 0.59715,0.80308c0.09609,0.31574 0.14414,0.83053 0.14414,1.54438v2.39893h0.67952c0.85799,0 1.42769,0.10639 1.70912,0.31917c0.28828,0.20592 0.43242,0.51136 0.43242,0.91634c0,0.86485 -0.7207,1.29728 -2.16212,1.29728h-0.65894v6.48639c0,0.87172 0.06178,1.46887 0.18532,1.79148c0.12355,0.31574 0.45645,0.47361 0.9987,0.47361c0.25396,0 0.54224,-0.03432 0.86485,-0.10296c0.3226,-0.0755 0.56284,-0.11326 0.7207,-0.11326c0.35006,0 0.63491,0.11669 0.85455,0.35006c0.21964,0.22651 0.32946,0.5045 0.32946,0.83396c0,1.14627 -1.21491,1.71941 -3.64473,1.71941c-1.17373,0 -2.03858,-0.21622 -2.59455,-0.64864c-0.55597,-0.43929 -0.89917,-0.97125 -1.02958,-1.59586c-0.13041,-0.63148 -0.19562,-1.44828 -0.19562,-2.45041v-6.74379h-0.46331c-1.04331,0 -1.56497,-0.42557 -1.56497,-1.27669c0,-0.8374 0.54568,-1.25609 1.63704,-1.25609zM442.95068,178.28059v6.40402c0,1.64048 -0.59715,2.46071 -1.79148,2.46071c-0.53539,0 -0.95408,-0.1716 -1.25609,-0.51479c-0.30201,-0.35006 -0.45302,-0.9987 -0.45302,-1.94591v-5.61125c0,-1.32473 -0.21278,-2.2342 -0.63834,-2.7284c-0.42557,-0.49421 -1.01586,-0.74131 -1.77088,-0.74131c-0.66579,0 -1.2458,0.18532 -1.74,0.55597c-0.49421,0.36378 -0.84426,0.81681 -1.05018,1.35905c-0.20592,0.54224 -0.30887,1.48946 -0.30887,2.84166v4.06687c0,1.09822 -0.15787,1.82579 -0.47361,2.18272c-0.30887,0.35692 -0.74131,0.53539 -1.29728,0.53539c-0.54224,0 -0.96781,-0.1716 -1.27669,-0.51479c-0.30887,-0.35006 -0.46331,-1.06734 -0.46331,-2.15183v-13.95089c0,-0.84426 0.04118,-1.43113 0.12355,-1.76059c0.08237,-0.33633 0.26769,-0.60746 0.55597,-0.81337c0.29514,-0.21278 0.63834,-0.31917 1.02958,-0.31917c0.44615,0 0.81681,0.12011 1.11194,0.36036c0.29514,0.24024 0.4839,0.55255 0.56626,0.93692c0.08237,0.37751 0.12355,1.009 0.12355,1.89444v4.15953c1.17373,-1.41396 2.60142,-2.12094 4.28308,-2.12094c1.42083,0 2.56367,0.43586 3.42853,1.30758c0.86485,0.86485 1.29728,2.2342 1.29728,4.10805zM456.23491,180.86486h-6.89822c0.03432,1.30414 0.39124,2.28911 1.07076,2.95491c0.68639,0.66579 1.5032,0.9987 2.45041,0.9987c1.18059,0 2.28911,-0.51479 3.32556,-1.54438c0.41869,-0.43242 0.72758,-0.70012 0.92663,-0.80308c0.20592,-0.10296 0.43242,-0.15444 0.67952,-0.15444c0.31574,0 0.58686,0.09953 0.81337,0.29858c0.23337,0.19905 0.35006,0.44272 0.35006,0.731c0,0.78935 -0.54224,1.61988 -1.62675,2.4916c-1.07763,0.87172 -2.53964,1.30758 -4.38603,1.30758c-2.35432,0 -4.13893,-0.66237 -5.35384,-1.9871c-1.20805,-1.32473 -1.81206,-3.04414 -1.81206,-5.15823c0,-2.12781 0.60403,-3.84722 1.81206,-5.15822c1.21491,-1.31787 2.90343,-1.97681 5.06557,-1.97681c2.0729,0 3.66876,0.62118 4.78758,1.86355c1.12567,1.24236 1.68852,2.59455 1.68852,4.05657c0,0.63834 -0.18875,1.14627 -0.56626,1.52378c-0.37066,0.37066 -1.14627,0.55597 -2.32686,0.55597zM449.3367,178.86747h6.39373c-0.04118,-1.16686 -0.36378,-2.05574 -0.96781,-2.66662c-0.59715,-0.61088 -1.33846,-0.91634 -2.22391,-0.91634c-1.86012,0 -2.92746,1.19432 -3.20201,3.58296zM479.53701,175.25362v-0.47361c0,-0.63834 0.15787,-1.11538 0.47361,-1.43113c0.31574,-0.3226 0.71385,-0.4839 1.19432,-0.4839c0.52852,0 0.93692,0.18532 1.2252,0.55597c0.28828,0.37066 0.43242,1.17373 0.43242,2.40923v9.44131c0,2.79361 -0.5903,4.67432 -1.77088,5.64213c-1.18059,0.96781 -2.88627,1.45172 -5.11704,1.45172c-1.9974,0 -3.55894,-0.37066 -4.68461,-1.11194c-1.12567,-0.73443 -1.68852,-1.51349 -1.68852,-2.33716c0,-0.44615 0.14757,-0.80651 0.44272,-1.08107c0.30201,-0.26769 0.65207,-0.40154 1.05018,-0.40154c0.37066,0 0.66579,0.0858 0.88545,0.2574c0.21964,0.17846 0.5903,0.59715 1.11194,1.25609c0.52166,0.66579 1.4071,0.9987 2.65633,0.9987c0.68639,0 1.32131,-0.10982 1.90473,-0.32946c0.5903,-0.21278 1.02272,-0.59373 1.29728,-1.14284c0.28142,-0.54224 0.41527,-1.86355 0.40154,-3.96391c-1.07763,1.54438 -2.54651,2.31656 -4.40663,2.31656c-1.79148,0 -3.20888,-0.66923 -4.25219,-2.00769c-1.04331,-1.34532 -1.56497,-3.06473 -1.56497,-5.15823c0,-2.08663 0.53539,-3.74084 1.60615,-4.9626c1.07763,-1.22177 2.47444,-1.83267 4.19041,-1.83267c1.87385,0 3.41136,0.79622 4.61254,2.38864zM472.67998,179.93823c0,1.36592 0.29858,2.40923 0.89574,3.12994c0.59715,0.71385 1.41396,1.07076 2.45041,1.07076c0.89917,0 1.67822,-0.34663 2.33716,-1.03989c0.65894,-0.70012 0.9884,-1.74 0.9884,-3.11965c0,-1.36591 -0.30544,-2.44698 -0.91634,-3.24319c-0.60403,-0.79622 -1.42426,-1.19432 -2.46071,-1.19432c-0.99527,0 -1.79491,0.37409 -2.39893,1.12225c-0.59715,0.74131 -0.89574,1.83267 -0.89574,3.27408zM495.26908,185.16853c-1.67479,1.31787 -3.31527,1.97681 -4.92142,1.97681c-1.51693,0 -2.68378,-0.38439 -3.50059,-1.15314c-0.80994,-0.77563 -1.21491,-1.71941 -1.21491,-2.83136c0,-0.95408 0.27455,-1.72285 0.82367,-2.30628c0.55597,-0.5903 1.16,-1.00213 1.81206,-1.2355c0.65207,-0.23337 1.71255,-0.50106 3.18143,-0.80308c1.47575,-0.30887 2.6632,-0.5903 3.56237,-0.84426c-0.00687,-1.06391 -0.21622,-1.78118 -0.62805,-2.15183c-0.41184,-0.37751 -1.03989,-0.56626 -1.88414,-0.56626c-1.59242,0 -2.63575,0.44615 -3.12994,1.33846c-0.27455,0.50794 -0.51823,0.86828 -0.731,1.08107c-0.21278,0.21278 -0.52166,0.31917 -0.92663,0.31917c-0.37066,0 -0.70697,-0.12011 -1.009,-0.36036c-0.29514,-0.2471 -0.44272,-0.56284 -0.44272,-0.94722c0,-0.9129 0.49077,-1.77775 1.47231,-2.59455c0.9884,-0.81681 2.54308,-1.2252 4.66403,-1.2252c2.14839,0 3.72023,0.37066 4.7155,1.11194c0.99527,0.74131 1.46201,2.24107 1.40023,4.49929l-0.08237,3.29467c-0.03432,1.01586 0.07208,1.8464 0.31917,2.4916c0.2471,0.64521 0.37066,1.13941 0.37066,1.4826c0,0.37066 -0.16473,0.69668 -0.49421,0.9781c-0.3226,0.28142 -0.68982,0.42213 -1.10165,0.42213c-0.71385,0 -1.46545,-0.65894 -2.2548,-1.97681zM495.03228,180.08238c-0.52166,0.20592 -1.38651,0.42899 -2.59455,0.66923c-1.20118,0.24024 -2.05231,0.51479 -2.55337,0.82367c-0.50106,0.30887 -0.7516,0.75846 -0.7516,1.34876c0,0.50794 0.19905,0.95408 0.59715,1.33846c0.39811,0.38439 0.96095,0.57657 1.68852,0.57657c0.77563,0 1.4929,-0.20935 2.15183,-0.62805c0.66579,-0.42557 1.0742,-0.93007 1.2252,-1.51349c0.15787,-0.58343 0.23681,-1.45515 0.23681,-2.61515zM521.95851,178.07468v6.06425c0,0.83053 -0.03432,1.4174 -0.10296,1.76059c-0.06864,0.33633 -0.2574,0.62805 -0.56626,0.87515c-0.30201,0.2471 -0.66237,0.37066 -1.08107,0.37066c-0.41184,0 -0.77219,-0.12011 -1.08107,-0.36036c-0.30201,-0.2471 -0.49077,-0.55255 -0.56626,-0.91634c-0.0755,-0.36378 -0.11326,-0.94036 -0.11326,-1.7297v-5.13764c0,-1.5032 -0.17846,-2.44355 -0.53539,-2.82106c-0.35692,-0.38439 -0.84426,-0.57657 -1.46201,-0.57657c-0.64521,0 -1.18746,0.17846 -1.62675,0.53539c-0.43929,0.35692 -0.74131,0.82367 -0.90604,1.40023c-0.16473,0.5697 -0.2471,1.46887 -0.2471,2.69751v3.90213c0,0.83053 -0.03432,1.42083 -0.10296,1.77088c-0.06178,0.34319 -0.25054,0.63491 -0.56626,0.87515c-0.30887,0.24024 -0.67267,0.36036 -1.09136,0.36036c-0.54224,0 -0.96781,-0.1819 -1.27669,-0.54568c-0.30887,-0.36378 -0.46331,-1.18402 -0.46331,-2.46071v-4.82876c0,-1.37278 -0.10296,-2.33373 -0.30887,-2.88284c-0.20592,-0.54912 -0.74131,-0.82367 -1.60615,-0.82367c-0.89917,0 -1.60959,0.28828 -2.13125,0.86485c-0.52166,0.5697 -0.78249,1.79834 -0.78249,3.68591v3.9845c0,0.80994 -0.02745,1.37964 -0.08237,1.70912c-0.05491,0.3226 -0.23681,0.62118 -0.54568,0.89574c-0.30887,0.26769 -0.66923,0.40154 -1.08107,0.40154c-0.39124,0 -0.74817,-0.12011 -1.07076,-0.36036c-0.3226,-0.24024 -0.52508,-0.52852 -0.60746,-0.86485c-0.0755,-0.34319 -0.11326,-0.93692 -0.11326,-1.78118v-8.51468c0,-0.80994 0.03775,-1.35905 0.11326,-1.64733c0.0755,-0.29514 0.26426,-0.55255 0.56626,-0.77219c0.30201,-0.22651 0.63148,-0.33977 0.9884,-0.33977c1.11882,0 1.67822,0.71385 1.67822,2.14154c1.18059,-1.42769 2.59799,-2.14154 4.25219,-2.14154c1.77775,0 3.06817,0.71385 3.87124,2.14154c1.19432,-1.42769 2.58769,-2.14154 4.18012,-2.14154c1.22864,0 2.27882,0.33977 3.15053,1.01929c0.87858,0.67267 1.31787,2.06946 1.31787,4.19041zM535.17838,180.86486h-6.89822c0.03432,1.30414 0.39124,2.28911 1.07076,2.95491c0.68639,0.66579 1.5032,0.9987 2.45041,0.9987c1.18059,0 2.28911,-0.51479 3.32556,-1.54438c0.41869,-0.43242 0.72758,-0.70012 0.92663,-0.80308c0.20592,-0.10296 0.43242,-0.15444 0.67952,-0.15444c0.31574,0 0.58686,0.09953 0.81337,0.29858c0.23337,0.19905 0.35006,0.44272 0.35006,0.731c0,0.78935 -0.54224,1.61988 -1.62675,2.4916c-1.07763,0.87172 -2.53964,1.30758 -4.38603,1.30758c-2.35432,0 -4.13893,-0.66237 -5.35384,-1.9871c-1.20805,-1.32473 -1.81206,-3.04414 -1.81206,-5.15823c0,-2.12781 0.60403,-3.84722 1.81206,-5.15822c1.21491,-1.31787 2.90343,-1.97681 5.06557,-1.97681c2.0729,0 3.66876,0.62118 4.78758,1.86355c1.12567,1.24236 1.68852,2.59455 1.68852,4.05657c0,0.63834 -0.18875,1.14627 -0.56626,1.52378c-0.37066,0.37066 -1.14627,0.55597 -2.32686,0.55597zM528.28016,178.86747h6.39373c-0.04118,-1.16686 -0.36378,-2.05574 -0.96781,-2.66662c-0.59715,-0.61088 -1.33846,-0.91634 -2.22391,-0.91634c-1.86012,0 -2.92746,1.19432 -3.20201,3.58296zM545.45622,172.32959l-0.54568,6.35254c-0.08923,0.92663 -0.25054,1.54781 -0.4839,1.86355c-0.22651,0.31574 -0.52166,0.47361 -0.88545,0.47361c-0.35692,0 -0.65207,-0.16129 -0.88545,-0.4839c-0.22651,-0.3226 -0.37409,-0.94036 -0.44272,-1.85326l-0.43242,-6.19811c-0.05491,-0.52852 -0.08237,-1.28355 -0.08237,-2.26509c0,-1.72285 0.65894,-2.58426 1.97681,-2.58426c0.58343,0 1.03301,0.19905 1.34876,0.59715c0.3226,0.39124 0.4839,1.12225 0.4839,2.19301c0,0.87172 -0.01716,1.50663 -0.05147,1.90473zM543.62356,183.2741c0.52166,0 0.97125,0.18875 1.34876,0.56626c0.38439,0.37751 0.57657,0.8271 0.57657,1.34876c0,0.53539 -0.19219,0.99527 -0.57657,1.37964c-0.37751,0.38439 -0.8271,0.57657 -1.34876,0.57657c-0.54224,0 -1.00556,-0.18875 -1.38994,-0.56626c-0.37751,-0.38439 -0.56626,-0.84769 -0.56626,-1.38994c0,-0.52166 0.19219,-0.97125 0.57657,-1.34876c0.38439,-0.37751 0.84426,-0.56626 1.37964,-0.56626z" fill="#ff7777" stroke="none" stroke-width="1" stroke-linecap="square"/></g></g></svg>