<svg version="1.1" xmlns="http://www.w3.org/2000/svg" xmlns:xlink="http://www.w3.org/1999/xlink" width="211.09256" height="184.32206" viewBox="0,0,211.09256,184.32206"><defs><linearGradient x1="240" y1="180.00001" x2="240" y2="180.00001" gradientUnits="userSpaceOnUse" id="color-1"><stop offset="0" stop-color="#e7bc52"/><stop offset="1" stop-color="#efd85e"/></linearGradient><linearGradient x1="240" y1="180.00001" x2="240" y2="180.00001" gradientUnits="userSpaceOnUse" id="color-2"><stop offset="0" stop-color="#efd85e" stop-opacity="0"/><stop offset="1" stop-color="#efd85e" stop-opacity="0"/></linearGradient></defs><g transform="translate(-139.63283,156.79598)"><g data-paper-data="{&quot;isPaintingLayer&quot;:true}" fill-rule="nonzero" stroke-linejoin="miter" stroke-miterlimit="10" stroke-dasharray="" stroke-dashoffset="0" style="mix-blend-mode: normal"><path d="" fill="url(#color-1)" stroke="#000000" stroke-width="15" stroke-linecap="butt"/><path d="" fill="#e7bc52" stroke="none" stroke-width="0" stroke-linecap="butt"/><path d="" fill="url(#color-2)" stroke="#000000" stroke-width="15" stroke-linecap="butt"/><g fill="none" stroke="#392f0e" stroke-width="5" stroke-linecap="round"><path d=""/><path d=""/><path d=""/></g><path d="M287.16904,-12.83535c0.43275,-12.39358 2.27364,-27.13374 2.13698,-44.97662c-0.28398,-37.07541 -2.272,-80.12312 -2.42707,-91.29905c-0.08097,-5.83517 13.95274,27.50146 18.18793,37.33604c7.11196,16.5148 28.40681,57.06218 35.72571,82.39182c3.28765,11.37809 -0.83089,21.96238 -0.83089,21.96238c0,0 -1.61458,3.48873 -2.82216,5.51095c-3.40357,5.69963 -18.55896,14.01605 -18.55896,14.01605c0,0 -31.41116,-23.65804 -31.41152,-24.94155z" fill="#b61400" stroke="none" stroke-width="15" stroke-linecap="butt"/><path d="M308.42428,-75.30998c-7.10161,-18.92512 -15.19117,-44.2673 -15.19117,-44.2673c0,0 13.86987,17.07564 20.30699,29.93271c7.47235,14.92476 21.88627,54.34127 21.88627,54.34127c0,0 -13.31396,-3.52906 -27.00209,-40.00667z" data-paper-data="{&quot;index&quot;:null}" fill="#dda9a2" stroke="none" stroke-width="15" stroke-linecap="butt"/><path d="M288.21227,-89.44437c0.05584,4.02397 1.77269,5.5855 6.06842,24.31703c2.64391,11.52876 7.69093,52.69844 9.9969,68.99578c2.63014,18.58842 -17.63304,-19.14202 -17.63304,-19.14202c0,0 1.48675,-80.00596 1.56772,-74.17079z" fill="#480100" stroke="none" stroke-width="15" stroke-linecap="butt"/><path d="M287.16904,-12.83535c0.43275,-12.39358 2.27364,-27.13374 2.13698,-44.97662c-0.28398,-37.07541 -2.272,-80.12312 -2.42707,-91.29905c-0.08097,-5.83517 13.95274,27.50146 18.18793,37.33604c7.11196,16.5148 28.40681,57.06218 35.72571,82.39182c1.97448,6.8334 2.26682,9.79013 2.45163,12.39333c0.12291,1.73131 -0.31697,4.18721 -1.81955,6.69784c-1.44996,2.42272 -24.17742,21.73154 -24.17742,21.73154c0,0 -30.07783,-22.99137 -30.07819,-24.27489z" fill="none" stroke="#000000" stroke-width="15" stroke-linecap="butt"/><path d="M203.32144,-12.33985c-0.00036,1.28351 -34.07819,29.60822 -34.07819,29.60822c0,0 -12.48872,-12.98309 -15.89229,-18.68272c-1.20757,-2.02222 -2.82216,-5.51094 -2.82216,-5.51094c0,0 -4.11854,-10.58429 -0.83089,-21.96238c7.31889,-25.32963 28.61375,-65.87701 35.72571,-82.39181c4.23519,-9.83459 18.26889,-43.17121 18.18792,-37.33604c-0.15508,11.17594 -2.14309,54.22364 -2.42707,91.29905c-0.13666,17.84288 1.70423,32.58304 2.13698,44.97662z" data-paper-data="{&quot;index&quot;:null}" fill="#b61400" stroke="none" stroke-width="15" stroke-linecap="butt"/><path d="M144.73078,-9.80781l42.19325,-84.27397c0,0 -21.03691,48.51426 -22.78933,62.79089c-0.77062,6.27815 -0.84056,10.55825 1.34306,16.05132c3.48075,8.75611 -3.10271,15.67771 -3.10271,15.67771z" data-paper-data="{&quot;index&quot;:null}" fill="#dda9a2" stroke="none" stroke-width="15" stroke-linecap="butt"/><path d="M198.84593,-11.44475c0,0 -11.84628,-16.60837 -15.60023,-20.69866c-1.86866,-2.03609 -2.68705,-5.87671 -1.64135,-11.03805c2.99577,-14.78652 7.27928,-46.1055 12.93878,-70.78371c4.29573,-18.73152 9.01259,-30.62639 9.06842,-34.65036c0.08097,-5.83517 -4.76561,137.17079 -4.76561,137.17079z" data-paper-data="{&quot;index&quot;:null}" fill="#480100" stroke="none" stroke-width="15" stroke-linecap="butt"/><path d="M203.32144,-12.33985c-0.00036,1.28351 -34.07819,29.60822 -34.07819,29.60822c0,0 -15.07505,-15.8943 -18.26558,-19.25822c-1.13275,-1.19431 -2.53562,-4.66199 -2.83124,-7.49403c-0.36266,-3.47438 -0.8192,-7.84812 -1.05413,-10.09873c-0.28912,-2.76982 0.15701,-8.86072 1.66478,-12.08611c7.55261,-16.15631 30.7381,-65.84426 36.66653,-79.61076c4.23519,-9.83459 18.26889,-43.17121 18.18792,-37.33604c-0.15508,11.17594 -2.14309,54.22364 -2.42707,91.29905c-0.13666,17.84288 1.70423,32.58304 2.13698,44.97662z" data-paper-data="{&quot;index&quot;:null}" fill="none" stroke="#000000" stroke-width="15" stroke-linecap="butt"/></g></g></svg>