<svg version="1.1" xmlns="http://www.w3.org/2000/svg" xmlns:xlink="http://www.w3.org/1999/xlink" width="175.96142" height="314.40421" viewBox="0,0,175.96142,314.40421"><g transform="translate(-273.41368,-12.79469)"><g data-paper-data="{&quot;isPaintingLayer&quot;:true}" fill-rule="nonzero" stroke-linejoin="miter" stroke-miterlimit="10" stroke-dasharray="" stroke-dashoffset="0" style="mix-blend-mode: normal"><path d="M398.8751,321.07025c0,-11.43484 0,-36.26805 0,-41.46844c0,-2.01671 2.22228,-3.90291 4.5,-3.90291c5.5107,0 29.40633,0 40,0c3.21428,0 4.75,2.36122 4.75,5.12257c0,6.09016 0,30.24548 0,40.49272c0,2.85847 -3.08553,4.63471 -6,4.63471c-6.09771,0 -28.95614,0 -38.75,0c-2.77408,0 -4.5,-1.03238 -4.5,-4.87865z" fill="#9c9c9c" stroke="#000000" stroke-width="2.5" stroke-linecap="butt"/><path d="M406.58376,315.53215c0.07933,-2.08857 0.675,-3.94402 1.36441,-7.79206c0.36967,-2.06339 0.92139,-12.69417 0.36237,-14.79373c-1.04764,-3.93467 -2.56907,-7.32846 -1.20748,-8.73938c2.28956,-2.37251 8.06265,0.567 14.5055,0.78273c5.48974,0.18381 11.53423,-2.56883 15.58352,-1.8987c3.68162,0.60928 4.63086,3.26948 4.57419,6.41178c-0.0674,3.73721 -1.64117,7.67787 -1.64117,12.49295c0,4.82265 1.75,10.51854 1.75,12.75c0,3.12479 -1.97651,4.97182 -4.92957,4.7089c-2.64592,-0.23558 -7.07583,-1.7089 -10.57043,-1.7089c-5.45974,0 -10.19113,2.25 -12.75,2.25c-2.83377,0 -7.13615,-1.96732 -7.04134,-4.46359z" fill="#cbcbcb" stroke="none" stroke-width="0" stroke-linecap="butt"/><g stroke-width="1.5"><path d="M293.7514,29.02973l-0.12821,-3.51454l10.51954,-7.28638l2.9529,1.55802z" fill="none" stroke="#e02503" stroke-linecap="butt"/><path d="M309.18199,70.97938l-20.69574,-30.08711l-0.24036,-2.42792l-10.09544,-5.83528l-3.33458,0.70396l-0.53019,-2.70762l5.95468,-1.53011l8.8535,3.7648l0.1329,-8.5479l15.49961,-10.63974l8.18046,4.42316l6.9695,1.32228l21.07555,30.96074l-2.16941,5.07056l-23.20142,16.0705z" fill="none" stroke="#e02503" stroke-linecap="round"/><path d="M309.18199,70.97938l-20.69574,-30.08711l-0.24036,-2.42792l-10.09544,-5.83528l-3.33458,0.70396l-0.53019,-2.70762l5.95468,-1.53011l8.8535,3.7648l0.1329,-8.5479l15.49961,-10.63974l8.18046,4.42316l6.9695,1.32228l21.07555,30.96074l-2.16941,5.07056l-23.20142,16.0705z" fill="#e02503" stroke="#ffffff" stroke-linecap="round"/><path d="M293.7514,29.02973l-0.12821,-3.51454l10.51954,-7.28638l2.9529,1.55802z" fill="#000000" stroke="#ffffff" stroke-linecap="butt"/></g></g></g></svg>