<svg version="1.1" xmlns="http://www.w3.org/2000/svg" xmlns:xlink="http://www.w3.org/1999/xlink" width="147.62266" height="147.62266" viewBox="0,0,147.62266,147.62266"><g transform="translate(-166.18867,-106.18867)"><g data-paper-data="{&quot;isPaintingLayer&quot;:true}" fill-rule="nonzero" stroke-linecap="butt" stroke-linejoin="miter" stroke-miterlimit="10" stroke-dasharray="" stroke-dashoffset="0" style="mix-blend-mode: normal"><path d="M169.93867,179.99999c0,-38.6938 31.36753,-70.06132 70.06133,-70.06132c38.6938,0 70.06133,31.36752 70.06133,70.06133c0,38.6938 -31.36753,70.06133 -70.06133,70.06133c-38.6938,0 -70.06133,-31.36753 -70.06133,-70.06133z" fill="#fff7a1" stroke="#3e382a" stroke-width="7.5"/><path d="M226.16666,197.83334v-73h26.66667v73z" fill="#e7d504" stroke="none" stroke-width="0"/><path d="M225.83333,221.66667c0,-7.82403 6.34263,-14.16667 14.16667,-14.16667c7.82403,0 14.16667,6.34263 14.16667,14.16667c0,7.82403 -6.34263,14.16667 -14.16667,14.16667c-7.82403,0 -14.16667,-6.34263 -14.16667,-14.16667z" fill="#808002" stroke="none" stroke-width="0"/><path d="M227.16666,196.83334l0.33333,-72.66667l12.33333,11.66667v51.33333l13,10.33333z" fill="#909403" stroke="none" stroke-width="0"/><path d="M226.16666,197.83334v-73h26.66667v73z" fill="none" stroke="#3e382a" stroke-width="5"/><path d="M231.16666,219c0,-6.35127 5.14872,-11.5 11.5,-11.5c6.35127,0 11.50001,5.14872 11.50001,11.5c0,6.35127 -5.14873,11.5 -11.50001,11.5c-6.35127,0 -11.5,-5.14872 -11.5,-11.5z" fill="#e7d504" stroke="none" stroke-width="0"/><path d="M225.83333,221.66668c0,-7.82404 6.34264,-14.16667 14.16667,-14.16667c7.82404,0 14.16666,6.34263 14.16666,14.16667c0,7.82404 -6.34263,14.16666 -14.16666,14.16666c-7.82404,0 -14.16667,-6.34263 -14.16667,-14.16666z" fill="none" stroke="#3e382a" stroke-width="5"/></g></g></svg>