<svg version="1.1" xmlns="http://www.w3.org/2000/svg" xmlns:xlink="http://www.w3.org/1999/xlink" width="25.45313" height="34.29689" viewBox="0,0,25.45313,34.29689"><g transform="translate(-227.27343,-162.85155)"><g data-paper-data="{&quot;isPaintingLayer&quot;:true}" fill="#ffffff" fill-rule="nonzero" stroke-linecap="square" stroke-linejoin="miter" stroke-miterlimit="10" stroke-dasharray="" stroke-dashoffset="0" style="mix-blend-mode: normal"><path d="M244.83592,181.33593c-1.71875,2.04167 -3.86979,3.0625 -6.45312,3.0625c-2.51042,0 -4.57292,-0.90625 -6.1875,-2.71875c-1.61458,-1.82292 -2.42187,-4.01042 -2.42187,-6.5625c0,-2.72917 0.91146,-5.03646 2.73438,-6.92187c1.82292,-1.89583 4.21875,-2.84375 7.1875,-2.84375c3.30208,0 5.88021,1.21354 7.73438,3.64063c1.86458,2.41667 2.79687,5.80729 2.79687,10.17188c0,5.25 -1.00521,9.14583 -3.01562,11.6875c-2,2.53125 -4.63542,3.79688 -7.90625,3.79688c-2.69792,0 -4.76562,-0.6875 -6.20312,-2.0625c-1.4375,-1.38542 -2.15625,-2.76562 -2.15625,-4.14062c0,-0.52083 0.19792,-0.99479 0.59375,-1.42187c0.40625,-0.4375 0.91146,-0.65625 1.51563,-0.65625c1.08333,0 1.95313,0.65104 2.60938,1.95313c0.82292,1.65625 2.04688,2.48438 3.67188,2.48438c3.40625,0 5.23958,-3.15625 5.5,-9.46875zM244.38279,175.32032c0,-1.61458 -0.45312,-3.03646 -1.35937,-4.26562c-0.90625,-1.23958 -2.06771,-1.85937 -3.48437,-1.85937c-1.38542,0 -2.47396,0.55729 -3.26562,1.67188c-0.78125,1.10417 -1.17187,2.49479 -1.17187,4.17188c0,1.75 0.41667,3.13542 1.25,4.15625c0.84375,1.02083 1.91667,1.53125 3.21875,1.53125c1.21875,0 2.32292,-0.46875 3.3125,-1.40625c1,-0.94792 1.5,-2.28125 1.5,-4z" stroke="#000000" stroke-width="5"/><path d="M244.83592,181.33593c-1.71875,2.04167 -3.86979,3.0625 -6.45312,3.0625c-2.51042,0 -4.57292,-0.90625 -6.1875,-2.71875c-1.61458,-1.82292 -2.42187,-4.01042 -2.42187,-6.5625c0,-2.72917 0.91146,-5.03646 2.73438,-6.92187c1.82292,-1.89583 4.21875,-2.84375 7.1875,-2.84375c3.30208,0 5.88021,1.21354 7.73438,3.64063c1.86458,2.41667 2.79687,5.80729 2.79687,10.17188c0,5.25 -1.00521,9.14583 -3.01562,11.6875c-2,2.53125 -4.63542,3.79688 -7.90625,3.79688c-2.69792,0 -4.76562,-0.6875 -6.20312,-2.0625c-1.4375,-1.38542 -2.15625,-2.76562 -2.15625,-4.14062c0,-0.52083 0.19792,-0.99479 0.59375,-1.42187c0.40625,-0.4375 0.91146,-0.65625 1.51563,-0.65625c1.08333,0 1.95313,0.65104 2.60938,1.95313c0.82292,1.65625 2.04688,2.48438 3.67188,2.48438c3.40625,0 5.23958,-3.15625 5.5,-9.46875zM244.38279,175.32032c0,-1.61458 -0.45312,-3.03646 -1.35937,-4.26562c-0.90625,-1.23958 -2.06771,-1.85937 -3.48437,-1.85937c-1.38542,0 -2.47396,0.55729 -3.26562,1.67188c-0.78125,1.10417 -1.17187,2.49479 -1.17187,4.17188c0,1.75 0.41667,3.13542 1.25,4.15625c0.84375,1.02083 1.91667,1.53125 3.21875,1.53125c1.21875,0 2.32292,-0.46875 3.3125,-1.40625c1,-0.94792 1.5,-2.28125 1.5,-4z" stroke="none" stroke-width="0"/></g></g></svg>