<svg version="1.1" xmlns="http://www.w3.org/2000/svg" xmlns:xlink="http://www.w3.org/1999/xlink" width="42.00001" height="44.75" viewBox="0,0,42.00001,44.75"><g transform="translate(-218.99999,-157.375)"><g data-paper-data="{&quot;isPaintingLayer&quot;:true}" fill-rule="nonzero" stroke-linejoin="miter" stroke-miterlimit="10" stroke-dasharray="" stroke-dashoffset="0" style="mix-blend-mode: normal"><path d="M220.75,198.625c0,-4.52692 0,-13.87508 0,-21.71429c0,-5.71431 0,-10.62682 0,-12.28571c0,-1.20083 0.92773,-2.25 2.10715,-2.25c0.29955,0 24.80203,0 33.42857,0c1.84541,0 2.96429,0.88986 2.96429,2.39286c0,7.55799 0,30.62036 0,34c0,1.1323 -0.88963,2.10714 -2.39285,2.10714c-7.38781,0 -29.59614,0 -33.85715,0c-1.40226,0 -2.25,-0.48893 -2.25,-2.25z" fill="#5b5b5b" stroke="#5b5b5b" stroke-width="2.5" stroke-linecap="butt"/><path d="M220.74999,195.375c0,-4.52692 0,-13.87508 0,-21.71429c0,-5.71431 0,-10.62682 0,-12.28571c0,-1.20083 0.92773,-2.25 2.10715,-2.25c0.29955,0 24.80203,0 33.42857,0c1.84541,0 2.96429,0.88986 2.96429,2.39286c0,7.55799 0,30.62036 0,34c0,1.1323 -0.88963,2.10714 -2.39285,2.10714c-7.38781,0 -29.59614,0 -33.85715,0c-1.40226,0 -2.25,-0.48893 -2.25,-2.25z" fill="#969696" stroke="#404040" stroke-width="3.5" stroke-linecap="butt"/><path d="M225.42856,191.08929c0,-5.74743 0,-22.10314 0,-25.28571c0,-1.04926 0.87738,-2 1.85714,-2c2.94835,0 18.03553,0 24.14286,0c1.59006,0 2.57143,1.12021 2.57143,2.42857c0,3.42127 0,18.96827 0,24.71429c0,0.77956 -0.31373,1.37872 -0.87409,1.74272c-0.4004,0.2601 -0.92672,0.40013 -1.55448,0.40013c-6.09762,0 -21.76599,0 -24.57143,0c-0.844,0 -1.57143,-0.74851 -1.57143,-2z" fill="#bdbdbd" stroke="#404040" stroke-width="0" stroke-linecap="butt"/><path d="M243.43337,177.66486c2.16519,0.88669 3.24778,2.45388 3.24778,4.70154c0,1.64967 -0.58769,3.03126 -1.76308,4.14478c-1.15477,1.09291 -2.78381,1.63935 -4.88713,1.63935c-2.16519,0 -3.82516,-0.54645 -4.97993,-1.63935c-1.15477,-1.11352 -1.73215,-2.48481 -1.73215,-4.11385c0,-2.30953 1.08259,-3.88702 3.24778,-4.73247c-1.75276,-0.7836 -2.62915,-2.0827 -2.62915,-3.89733c0,-1.34036 0.53615,-2.49511 1.60842,-3.4643c1.07228,-0.96918 2.51574,-1.45376 4.33037,-1.45376c2.06208,0 3.59834,0.4949 4.60875,1.4847c1.03105,0.9898 1.54656,2.14457 1.54656,3.4643c0,1.75276 -0.86607,3.04157 -2.59822,3.8664zM242.69102,173.95311c0,-0.76297 -0.24745,-1.40222 -0.74235,-1.91774c-0.4949,-0.51552 -1.15477,-0.77328 -1.9796,-0.77328c-0.80421,0 -1.45376,0.25777 -1.94867,0.77328c-0.4949,0.51552 -0.74235,1.15477 -0.74235,1.91774c0,0.76297 0.24745,1.38159 0.74235,1.85588c0.51552,0.47428 1.16507,0.71142 1.94867,0.71142c0.80421,0 1.45376,-0.23714 1.94867,-0.71142c0.51552,-0.47428 0.77328,-1.09291 0.77328,-1.85588zM243.1859,182.30454c0,-1.01042 -0.30931,-1.81463 -0.92793,-2.41264c-0.59801,-0.61862 -1.36097,-0.92793 -2.28891,-0.92793c-0.86607,0 -1.60842,0.299 -2.22705,0.897c-0.59801,0.57738 -0.897,1.3919 -0.897,2.44357c0,1.03105 0.30931,1.86619 0.92793,2.50543c0.63924,0.61862 1.38159,0.92793 2.22705,0.92793c0.88669,0 1.63935,-0.31963 2.25798,-0.95887c0.61862,-0.63924 0.92793,-1.46408 0.92793,-2.4745z" fill="#2d2d2d" stroke="none" stroke-width="1" stroke-linecap="square"/></g></g></svg>