<svg version="1.1" xmlns="http://www.w3.org/2000/svg" xmlns:xlink="http://www.w3.org/1999/xlink" width="27" height="29.16667" viewBox="0,0,27,29.16667"><g transform="translate(-380.33334,-81.70001)"><g data-paper-data="{&quot;isPaintingLayer&quot;:true}" fill-rule="nonzero" stroke-linejoin="miter" stroke-miterlimit="10" stroke-dasharray="" stroke-dashoffset="0" style="mix-blend-mode: normal"><g fill="#525152" stroke="#525152" stroke-width="4"><path d="M382.33334,97.36668c0,-6.35128 5.14873,-11.5 11.5,-11.5c6.35127,0 11.5,5.14872 11.5,11.5c0,6.35128 -5.14873,11.5 -11.5,11.5c-6.35127,0 -11.5,-5.14872 -11.5,-11.5z" stroke-linecap="butt"/><path d="M388.13577,93.60844c0,0 0.61831,-1.16983 2.21101,-2.52492c1.61523,-1.37425 3.18622,-1.45879 3.18622,-1.45879" stroke-linecap="round"/></g><path d="M382,94.70001c0,-6.35128 5.14873,-11.5 11.5,-11.5c6.35127,0 11.5,5.14872 11.5,11.5c0,6.35128 -5.14873,11.5 -11.5,11.5c-6.35127,0 -11.5,-5.14872 -11.5,-11.5z" fill="#006347" stroke="#000000" stroke-width="3" stroke-linecap="butt"/><path d="M387.80244,90.94177c0,0 0.61831,-1.16983 2.21101,-2.52491c1.61523,-1.37425 3.18622,-1.45879 3.18622,-1.45879" fill="none" stroke="#5e6362" stroke-width="3" stroke-linecap="round"/></g></g></svg>