<svg version="1.1" xmlns="http://www.w3.org/2000/svg" xmlns:xlink="http://www.w3.org/1999/xlink" width="304.3003" height="304.30025" viewBox="0,0,304.3003,304.30025"><g transform="translate(-87.84985,-27.84988)"><g data-paper-data="{&quot;isPaintingLayer&quot;:true}" fill-rule="nonzero" stroke-linejoin="miter" stroke-miterlimit="10" stroke-dasharray="" stroke-dashoffset="0" style="mix-blend-mode: normal"><path d="M89.84985,270.23518c0,-59.99896 0,-148.11906 0,-181.81815c0,-26.16557 22.73163,-58.56714 54.69562,-58.56714c60.91162,0 155.35022,0 189.899,0c25.1397,0 55.70568,31.10369 55.70568,56.54696c0,34.37139 0,127.20919 0,187.87876c0,32.57375 -30.56593,55.87453 -55.70568,55.87453c-33.79375,0 -124.88841,0 -185.85858,0c-34.07175,0 -58.73599,-25.26921 -58.73599,-59.91496z" fill="#83a08b" stroke="#83a08b" stroke-width="4" stroke-linecap="butt"/><path d="M192.25955,280.18183c-0.22048,-7.16536 -0.98671,-32.06783 -0.98671,-32.06783h78.57969c0,0 3.51599,13.84424 5.20648,20.50051c1.60504,6.31973 17.99294,16.66019 3.46112,16.71762c-10.02186,0.0396 -27.18041,2.3707 -43.30186,2.86863c-17.5576,0.54228 -33.88471,-0.72053 -38.42339,-0.67994c-10.04074,0.08976 -4.4242,-3.72663 -4.53532,-7.33896z" fill="#53433f" stroke="#000000" stroke-width="12.5" stroke-linecap="butt"/><path d="M226.20483,188.74789v-51.67855" fill="none" stroke="#373c38" stroke-width="12.5" stroke-linecap="round"/><path d="M210.05526,71.6637l2.69161,58.13834" fill="none" stroke="#000000" stroke-width="12.5" stroke-linecap="round"/><path d="M307.14403,101.49223c3.41782,10.04278 5.99009,34.26753 -4.8167,42.96241c-10.06,8.09403 -65.22653,7.2691 -97.22574,6.0578c-1.8205,-0.06888 -8.21631,-1.29921 -10.09982,-3.16716c-5.88962,-5.84079 -11.38171,-19.72478 10.94221,-36.22c23.51008,-17.37167 75.38251,-16.89224 94.83059,-14.59969c1.42221,0.16765 5.46954,2.32236 6.36943,4.96664z" fill="#bcb69e" stroke="#0c0c0a" stroke-width="12.5" stroke-linecap="butt"/><path d="M305.93982,98.61568c3.84503,7.08871 8.44826,36.13522 -3.61237,45.83897c-6.31088,5.07757 -30.37277,6.64523 -55.3306,6.80945c-2.33769,0.01538 -3.54082,-0.1487 -3.54082,-0.1487c0,0 -2.83695,-8.01261 -3.51459,-28.70296c-0.39736,-12.13203 1.87914,-24.25863 1.87914,-24.25863c0,0 3.31468,-0.5303 4.98243,-0.76054c21.35793,-2.9483 43.5405,-2.15742 54.51451,-0.80214c1.19898,0.14809 4.11495,1.08916 4.62234,2.02459z" fill="#508a89" stroke="none" stroke-width="12.5" stroke-linecap="butt"/><path d="M181.6835,250.1312c0,0 0,-29.83931 0,-41.45475c0,-8.42135 7.71661,-21.79029 22.85324,-21.79029c25.01575,0 63.21279,0 68.55975,0c7.11743,0 20.19592,5.69865 20.72736,18.60147c0.49235,11.95338 0.53147,44.64353 0.53147,44.64353z" fill="#bab89c" stroke="#000000" stroke-width="12.5" stroke-linecap="butt"/><path d="M242.27115,186.88619c0,0 28.07543,0 30.8253,0c7.11739,0 20.19592,5.69866 20.7274,18.60147c0.49235,11.95338 0.53147,44.64354 0.53147,44.64354h-52.08416c0,0 -2.76845,-16.52598 -2.12589,-35.60854c0.47306,-14.04893 2.12589,-27.63647 2.12589,-27.63647z" fill="#897d70" stroke="#000000" stroke-width="12.5" stroke-linecap="butt"/><path d="M169.89603,267.57383c0,-10.59332 8.58756,-19.18087 19.18088,-19.18087c10.59331,0 19.18087,8.58756 19.18087,19.18087c0,10.59332 -8.58756,19.18088 -19.18087,19.18088c-10.59331,0 -19.18088,-8.58756 -19.18088,-19.18088z" fill="#53433f" stroke="#000000" stroke-width="12.5" stroke-linecap="butt"/><path d="M261.74821,263.52167c0,-11.27672 9.14157,-20.41832 20.41833,-20.41832c11.27675,0 20.41836,9.1416 20.41836,20.41832c0,11.27672 -9.1416,20.41836 -20.41836,20.41836c-11.27672,0 -20.41833,-9.14164 -20.41833,-20.41836z" fill="#000000" stroke="#000000" stroke-width="12.5" stroke-linecap="butt"/><path d="M280.98983,268.84169c0,7.68869 -7.61799,13.9216 -17.01527,13.9216c-6.57382,0 -12.89567,2.51849 -15.7293,-1.94648c-1.21706,-1.91773 -1.28598,-9.66501 -1.28598,-11.97512c0,-2.86577 -2.65407,-10.47924 -0.83975,-12.69315c3.05339,-3.72583 11.96039,-1.22844 17.85503,-1.22844c9.39728,0 17.01527,6.23291 17.01527,13.9216z" fill="#000000" stroke="#000000" stroke-width="12.5" stroke-linecap="butt"/><path d="M267.24025,122.74944c0.37332,6.29969 -11.38238,11.42662 -18.86721,11.42662c-7.48483,0 -8.23779,-5.11589 -8.23779,-11.42662c0,-6.31073 -1.90438,-6.64339 5.58044,-6.64339c7.48483,0 20.99309,-2.32473 21.52456,6.64339z" fill="#65bfb7" stroke="none" stroke-width="12.5" stroke-linecap="butt"/><path d="M307.3402,120.86321c0,5.37805 0.90803,5.10508 -5.02704,6.32079c-1.02929,0.21083 -7.41926,1.91701 -8.52546,1.91701c-7.48487,0 -13.55254,-1.92703 -13.55254,-8.23779c0,-6.31073 6.66727,-6.69877 14.08401,-7.70632c11.73663,-1.59441 13.02103,1.39556 13.02103,7.70632z" fill="#65bfb7" stroke="none" stroke-width="12.5" stroke-linecap="butt"/><path d="M305.93982,98.61568c3.84503,7.08871 8.44825,36.13522 -3.61241,45.83897c-6.31088,5.07757 -30.37277,6.6452 -55.3306,6.80945c-2.33773,0.01538 -3.54081,-0.1487 -3.54081,-0.1487c0,0 -2.83695,-8.01264 -3.51459,-28.70296c-0.39732,-12.13203 1.87914,-24.25859 1.87914,-24.25859c0,0 3.31468,-0.53034 4.98242,-0.76058c21.35793,-2.9483 43.5405,-2.15742 54.51451,-0.80214c1.19898,0.14805 4.11494,1.08913 4.62233,2.02455z" fill="none" stroke="#0c0c0a" stroke-width="12.5" stroke-linecap="butt"/></g></g></svg>