<svg version="1.1" xmlns="http://www.w3.org/2000/svg" xmlns:xlink="http://www.w3.org/1999/xlink" width="25.43749" height="34.29687" viewBox="0,0,25.43749,34.29687"><g transform="translate(-227.28125,-162.85156)"><g data-paper-data="{&quot;isPaintingLayer&quot;:true}" fill="#ffffff" fill-rule="nonzero" stroke-linecap="square" stroke-linejoin="miter" stroke-miterlimit="10" stroke-dasharray="" stroke-dashoffset="0" style="mix-blend-mode: normal"><path d="M235.18748,178.67967c1.70833,-2.05208 3.84896,-3.07812 6.42188,-3.07812c2.51042,0 4.57292,0.91146 6.1875,2.73438c1.61458,1.8125 2.42188,3.99479 2.42188,6.54688c0,2.73958 -0.91146,5.05208 -2.73437,6.9375c-1.82292,1.88542 -4.21875,2.82813 -7.1875,2.82813c-3.30208,0 -5.88021,-1.20833 -7.73437,-3.625c-1.85417,-2.42708 -2.78125,-5.82292 -2.78125,-10.1875c0,-5.23958 1.00521,-9.13021 3.01563,-11.67187c2.01042,-2.54167 4.64063,-3.8125 7.89063,-3.8125c2.69792,0 4.76563,0.69271 6.20313,2.07813c1.4375,1.375 2.15625,2.75521 2.15625,4.14063c0,0.52083 -0.20312,0.99479 -0.60937,1.42188c-0.39583,0.42708 -0.89583,0.64063 -1.5,0.64063c-1.07292,0 -1.9375,-0.65104 -2.59375,-1.95312c-0.83333,-1.65625 -2.0625,-2.48437 -3.6875,-2.48437c-3.39583,0 -5.21875,3.16146 -5.46875,9.48438zM235.60937,184.69529c0,1.61458 0.45313,3.03646 1.35938,4.26563c0.90625,1.22917 2.06771,1.84375 3.48438,1.84375c1.38542,0 2.46875,-0.55208 3.25,-1.65625c0.79167,-1.11458 1.1875,-2.51042 1.1875,-4.1875c0,-1.73958 -0.42187,-3.11979 -1.26562,-4.14062c-0.83333,-1.03125 -1.90104,-1.54687 -3.20312,-1.54687c-1.20833,0 -2.3125,0.47396 -3.3125,1.42188c-1,0.94792 -1.5,2.28125 -1.5,4z" stroke="#000000" stroke-width="5"/><path d="M235.18748,178.67967c1.70833,-2.05208 3.84896,-3.07812 6.42188,-3.07812c2.51042,0 4.57292,0.91146 6.1875,2.73438c1.61458,1.8125 2.42188,3.99479 2.42188,6.54688c0,2.73958 -0.91146,5.05208 -2.73437,6.9375c-1.82292,1.88542 -4.21875,2.82813 -7.1875,2.82813c-3.30208,0 -5.88021,-1.20833 -7.73437,-3.625c-1.85417,-2.42708 -2.78125,-5.82292 -2.78125,-10.1875c0,-5.23958 1.00521,-9.13021 3.01563,-11.67187c2.01042,-2.54167 4.64063,-3.8125 7.89063,-3.8125c2.69792,0 4.76563,0.69271 6.20313,2.07813c1.4375,1.375 2.15625,2.75521 2.15625,4.14063c0,0.52083 -0.20312,0.99479 -0.60937,1.42188c-0.39583,0.42708 -0.89583,0.64063 -1.5,0.64063c-1.07292,0 -1.9375,-0.65104 -2.59375,-1.95312c-0.83333,-1.65625 -2.0625,-2.48437 -3.6875,-2.48437c-3.39583,0 -5.21875,3.16146 -5.46875,9.48438zM235.60937,184.69529c0,1.61458 0.45313,3.03646 1.35938,4.26563c0.90625,1.22917 2.06771,1.84375 3.48438,1.84375c1.38542,0 2.46875,-0.55208 3.25,-1.65625c0.79167,-1.11458 1.1875,-2.51042 1.1875,-4.1875c0,-1.73958 -0.42187,-3.11979 -1.26562,-4.14062c-0.83333,-1.03125 -1.90104,-1.54687 -3.20312,-1.54687c-1.20833,0 -2.3125,0.47396 -3.3125,1.42188c-1,0.94792 -1.5,2.28125 -1.5,4z" stroke="none" stroke-width="0"/></g></g></svg>