<svg version="1.1" xmlns="http://www.w3.org/2000/svg" xmlns:xlink="http://www.w3.org/1999/xlink" width="353" height="353" viewBox="0,0,353,353"><defs><linearGradient x1="240" y1="5.99999" x2="240" y2="354" gradientUnits="userSpaceOnUse" id="color-1"><stop offset="0" stop-color="#80899b"/><stop offset="1" stop-color="#c5d0db"/></linearGradient></defs><g transform="translate(-63.5,-3.5)"><g data-paper-data="{&quot;isPaintingLayer&quot;:true}" fill-rule="nonzero" stroke-linecap="butt" stroke-linejoin="miter" stroke-miterlimit="10" stroke-dasharray="" stroke-dashoffset="0" style="mix-blend-mode: normal"><path d="M66,354v-348h348v348zM218.4672,336.51351c118.89244,15.85103 154.45602,-71.98792 171.40082,-107.90082c19,-40.2687 0.05414,-115.14907 -20.71299,-138.74959c-77.69288,-88.29301 -139.24858,-63.93985 -162.68783,-63.65122c-81.20973,1 -125.40082,103.69109 -125.40082,143.40082c0,39.70973 21.2688,151.41781 137.40082,166.90082z" fill="url(#color-1)" stroke="#000000" stroke-width="5"/><path d="M81.25,180.00002c0,-87.6752 71.0748,-158.75 158.75,-158.75c87.6752,0 158.75,71.0748 158.75,158.75c0,87.6752 -71.0748,158.75 -158.75,158.75c-87.6752,0 -158.75,-71.0748 -158.75,-158.75z" fill="none" stroke="#626c80" stroke-width="7.5"/><path d="M78,180.00004c0,-89.47013 72.52987,-162 162,-162c89.47013,0 162,72.52987 162,162c0,89.47013 -72.52987,162 -162,162c-89.47013,0 -162,-72.52987 -162,-162z" fill="none" stroke="#000000" stroke-width="3.5"/><path d="M85.5,180.00003c0,-85.328 69.172,-154.5 154.5,-154.5c85.328,0 154.5,69.172 154.5,154.5c0,85.328 -69.172,154.5 -154.5,154.5c-85.328,0 -154.5,-69.172 -154.5,-154.5z" fill="none" stroke="#104263" stroke-width="3.5"/></g></g></svg>