<svg version="1.1" xmlns="http://www.w3.org/2000/svg" xmlns:xlink="http://www.w3.org/1999/xlink" width="435.47278" height="245.69122" viewBox="0,0,435.47278,245.69122"><defs><linearGradient x1="130.49692" y1="60.04376" x2="130.49692" y2="300.61653" gradientUnits="userSpaceOnUse" id="color-1"><stop offset="0" stop-color="#acacac"/><stop offset="1" stop-color="#858585"/></linearGradient><linearGradient x1="349.57858" y1="60.04376" x2="349.57858" y2="300.61653" gradientUnits="userSpaceOnUse" id="color-2"><stop offset="0" stop-color="#acacac"/><stop offset="1" stop-color="#858585"/></linearGradient></defs><g transform="translate(-22.02753,-57.54377)"><g data-paper-data="{&quot;isPaintingLayer&quot;:true}" fill-rule="nonzero" stroke-linecap="butt" stroke-linejoin="miter" stroke-miterlimit="10" stroke-dasharray="" stroke-dashoffset="0" style="mix-blend-mode: normal"><path d="M25.07516,300.61653v-240.57277h210.84347v240.57277z" fill="url(#color-1)" stroke="#000000" stroke-width="3.5"/><path d="M25.9592,294.85532v-228.24826c0,0 15.3426,15.9563 19.24331,20.01304c1.70422,1.77239 3.67318,6.94909 3.67318,10.86138c0,4.20307 -1,15.72813 -1,29.66667c0,16.14155 1.13979,35.0544 1.31485,55.65938c0.13685,16.10847 -0.25603,32.92908 -0.35842,47.34771c-0.11694,16.46616 0.04357,29.90109 0.04357,37.32624c0,4.02332 -3.04082,9.08822 -5.33377,11.19774c-4.16313,3.83008 -17.58272,16.17611 -17.58272,16.17611z" fill="#5a5a5a" stroke="none" stroke-width="0"/><path d="M211.12446,268.48148c0,-9.78346 -1.7202,-33.49717 -0.66667,-60c2,-50.3125 0.66667,-102.74503 0.66667,-112.33333c0,-3.43966 1.26222,-7.43086 2.49455,-8.71249c3.52598,-3.66702 20.42194,-21.23881 20.42194,-21.23881v228.24826c0,0 -15.12762,-13.91742 -19.06817,-17.54273c-0.99784,-0.91802 -3.84832,-5.2819 -3.84832,-8.4209z" data-paper-data="{&quot;index&quot;:null}" fill="#5a5a5a" stroke="none" stroke-width="0"/><path d="M229.21002,299.34457l-199.55686,-0.37721c0,0 15.47258,-14.25993 19.88191,-18.32369c2.19803,-2.02576 6.67808,-4.54526 13.465,-4.53171c8.5713,0.01711 19.55553,-0.73246 33.66356,-0.79675c10.60014,-0.0483 23.54439,0.58059 35.33649,0.60365c9.52125,0.01862 19.78497,0.73754 28.67548,0.80052c18.96577,0.13436 34.0495,-0.34908 38.98926,-0.33922c3.60421,0.0072 8.58324,2.03786 10.32516,3.77684c3.93303,3.9264 19.21999,19.18756 19.21999,19.18756z" fill="#cccccc" stroke="none" stroke-width="0"/><path d="M199.3305,84.90172c-10.9998,-0.02196 -35.25413,0.81279 -60.66433,0.66659c-17.55553,-0.10101 -35.66277,-1.19292 -50.33189,-1.22221c-14.46716,-0.02889 -25.86944,0.28235 -29.66921,0.27476c-2.79669,-0.00558 -7.38341,-2.5058 -9.33026,-4.51643c-3.93913,-4.0682 -17.86406,-18.44933 -17.86406,-18.44933l196.01177,0.37722c0,0 -5.71175,5.23775 -10.61165,10.32477c-3.34916,3.47706 -5.96383,6.88372 -7.51991,8.49922c-1.77943,1.84737 -6.12665,4.05318 -10.02045,4.04541z" data-paper-data="{&quot;index&quot;:null}" fill="#cccccc" stroke="none" stroke-width="0"/><path d="M244.15682,300.61653v-240.57277h210.84347v240.57277z" fill="url(#color-2)" stroke="#000000" stroke-width="3.5"/><path d="M245.04086,294.85532v-228.24826c0,0 13.59258,14.13628 17.74046,18.45008c2.24049,2.3301 5.0701,8.67202 4.96118,13.91553c-0.1412,6.79698 -0.28744,16.87823 -0.21453,27.3373c0.19156,27.47846 1.09605,61.96331 1.09605,82.00484c0,17.54334 -0.4765,42.68935 -0.52401,56.13656c-0.02488,7.04116 -2.5889,11.5713 -4.57106,13.3949c-4.05007,3.72607 -18.48808,17.00904 -18.48808,17.00904z" fill="#5a5a5a" stroke="none" stroke-width="0"/><path d="M430.20612,268.48148c0,-10.40051 -1,-76.38026 -1,-125c0,-17.53709 0.33497,-32.679 0.61717,-42.32387c0.20539,-7.01977 2.05533,-12.86701 3.57157,-14.44389c3.77134,-3.9222 19.72775,-20.51686 19.72775,-20.51686v228.24826c0,0 -15.53496,-14.29217 -19.39764,-17.84584c-1.64518,-1.51357 -3.51885,-5.32587 -3.51885,-8.11779z" data-paper-data="{&quot;index&quot;:null}" fill="#5a5a5a" stroke="none" stroke-width="0"/><path d="M448.29168,299.34457l-199.55686,-0.37721c0,0 14.68202,-13.53134 19.17866,-17.67556c2.43931,-2.24813 7.29818,-5.19822 10.25595,-5.19231c7.77894,0.01553 22.24036,0.04907 41.66782,0.08785c11.35935,0.02268 25.4911,-0.61951 37.66384,-0.59578c28.82854,0.05619 54.35066,0.77484 61.32846,0.78878c3.5627,0.00711 8.84383,2.38073 10.78641,4.32002c4.04164,4.03481 18.67573,18.64421 18.67573,18.64421z" fill="#cccccc" stroke="none" stroke-width="0"/><path d="M419.47129,85.11579c-4.68721,0.15543 -12.28596,0.3342 -21.30059,0.27279c-17.89105,-0.12187 -41.61779,-0.93107 -63.00158,-0.97376c-27.75147,-0.05541 -47.22148,0.2264 -54.66709,0.21154c-4.18011,-0.00835 -10.48605,-2.86998 -12.61691,-5.07066c-4.00977,-4.14114 -17.33274,-17.9006 -17.33274,-17.9006l196.01177,0.37722c0,0 -14.53609,15.09121 -18.32821,19.02815c-1.70651,1.77168 -5.55596,3.94891 -8.76465,4.05532z" data-paper-data="{&quot;index&quot;:null}" fill="#cccccc" stroke="none" stroke-width="0"/><path d="M246.51359,297.23496v-233.19118h204.48672v233.19121z" fill="none" stroke="#7c7c7c" stroke-width="4.5"/><path d="M243.60919,300.73496v-240.69118h211.39112v240.69121z" fill="none" stroke="#000000" stroke-width="5"/><path d="M63.88218,255.61446c0,-19.31897 0,-111.56432 0,-121.8003c0,-1.81506 1.34257,-3.15451 2.86782,-3.15451c3.58717,0 19.19204,0 38.25,0c31.26295,0 71.81804,0 83.85875,0c2.26079,0 3.51632,1.38838 3.51632,3.25952c0,11.59818 0,125.23337 0,125.23337c0,0 -114.35861,0 -125.51969,0c-1.71776,0 -2.9732,-1.26364 -2.9732,-3.53809z" fill="#000000" stroke="#c2c2c2" stroke-width="7.5"/><path d="M28.01359,296.73496v-233.19118h204.48672v233.19121z" fill="none" stroke="#7c7c7c" stroke-width="4.5"/><path d="M63.88218,256.53873c0,-17.12549 0,-112.91525 0,-122.97456c0,-1.68074 1.43904,-2.9045 3.36782,-2.9045c10.41105,0 100.50657,0 120.99258,0c2.64757,0 4.13249,1.38838 4.13249,3.25952c0,10.37511 0,102.40165 0,121.69528c0,2.27442 -1.22176,3.53809 -2.90014,3.53809c-9.98479,0 -104.55659,0 -122.61955,0c-1.91786,0 -2.9732,-0.92393 -2.9732,-2.61382z" fill="#000000" stroke="#4d4d4d" stroke-width="2.5"/><path d="M286.5,256.97222v-119.5h128.5v119.5z" fill="#5b5b5b" stroke="none" stroke-width="NaN"/><path d="M24.52753,300.73495v-240.69118h211.39112v240.6912z" fill="none" stroke="#000000" stroke-width="5"/></g></g></svg>