<svg version="1.1" xmlns="http://www.w3.org/2000/svg" xmlns:xlink="http://www.w3.org/1999/xlink" width="36.83333" height="23.75001" viewBox="0,0,36.83333,23.75001"><g transform="translate(-198.28649,-165.02905)"><g data-paper-data="{&quot;isPaintingLayer&quot;:true}" fill-rule="nonzero" stroke-linejoin="miter" stroke-miterlimit="10" stroke-dasharray="" stroke-dashoffset="0" style="mix-blend-mode: normal"><g fill="#6c6c6c" stroke="#666666"><path d="M199.0365,188.27906v-20c0,0 27.30046,0 32.33333,0c1.53303,0 3,1.36301 3,3.33334c0,4.26438 0,11.37358 0,13.66666c0,1.40837 -1.28395,3 -2.66666,3c-4.83951,0 -32.66666,0 -32.66666,0z" stroke-width="1" stroke-linecap="butt"/><path d="M199.0365,185.37809v-17.09906c0,0 27.38015,0 32.12814,0c1.44625,0 1.20519,1.1653 1.20519,2.84984c0,3.64584 0,9.72388 0,11.68435c0,1.20409 -1.21127,2.56486 -2.51572,2.56486c-4.56557,0 -30.81761,0 -30.81761,0z" stroke-width="0" stroke-linecap="butt"/><path d="M199.0365,188.27906v-20c0,0 27.30046,0 32.33333,0c1.53303,0 3,1.36301 3,3.33334c0,4.26438 0,11.37358 0,13.66666c0,1.40837 -1.28395,3 -2.66666,3c-4.83951,0 -32.66666,0 -32.66666,0z" stroke-width="1" stroke-linecap="butt"/><path d="M233.57815,173.90406c0,0 -10.98551,0 -12.75,0c-0.46224,0 -0.875,0.42421 -0.875,1c0,0.95665 0,2.33174 0,2.875c0,0.44209 -0.33627,1 -0.75,1c-1.98418,0 -17.25,0 -17.25,0" stroke-width="1" stroke-linecap="round"/><path d="M216.07815,167.52906c0,0 0,6.06312 0,7.625c0,0.69274 -0.10196,1.5 -2.5,1.5c-2.54129,0 -12.25,0 -12.25,0" stroke-width="1" stroke-linecap="round"/><path d="M213.20315,167.65406c0,0 0,3.88889 0,5c0,0.55556 -0.48129,1.25 -1.125,1.25c-1.01131,0 -2.4235,0 -3,0c-0.4927,0 -1.25,0.11512 -1.125,1.125c0.04984,0.40262 0,1.25 0,1.25" stroke-width="1" stroke-linecap="round"/><path d="M233.45315,182.02906c0,0 -17.79051,0 -20.375,0c-0.6073,0 -1.14777,-0.45537 -1.16303,-0.7606c-0.02308,-0.46158 -0.08697,-1.7394 -0.08697,-1.7394" stroke-width="1" stroke-linecap="round"/><path d="M234.07815,177.65406l-14,0.125" stroke-width="1" stroke-linecap="round"/></g><path d="M199.0365,185.77905v-20c0,0 27.30046,0 32.33333,0c1.53303,0 3,1.36301 3,3.33334c0,4.26438 0,11.37358 0,13.66666c0,1.40837 -1.28395,3 -2.66666,3c-4.83951,0 -32.66666,0 -32.66666,0z" fill="#313131" stroke="#000000" stroke-width="1.5" stroke-linecap="butt"/><path d="M199.0365,182.87809v-17.09906c0,0 27.38015,0 32.12814,0c1.44625,0 1.20519,1.1653 1.20519,2.84984c0,3.64584 0,9.72388 0,11.68435c0,1.20409 -1.21127,2.56486 -2.51572,2.56486c-4.56557,0 -30.81761,0 -30.81761,0z" fill="#666666" stroke="none" stroke-width="1.5" stroke-linecap="butt"/><path d="M199.0365,185.77905v-20c0,0 27.30046,0 32.33333,0c1.53303,0 3,1.36301 3,3.33334c0,4.26438 0,11.37358 0,13.66666c0,1.40837 -1.28395,3 -2.66666,3c-4.83951,0 -32.66666,0 -32.66666,0z" fill="none" stroke="#000000" stroke-width="1.5" stroke-linecap="butt"/><path d="M201.95314,171.40405c0,0 15.26582,0 17.25,0c0.41373,0 0.75,0.55791 0.75,1c0,0.54326 0,1.91835 0,2.875c0,0.57579 0.41276,1 0.875,1c1.76449,0 12.75,0 12.75,0" data-paper-data="{&quot;index&quot;:null}" fill="none" stroke="#000000" stroke-width="1.5" stroke-linecap="round"/><path d="M215.79245,167.45762c0,0 0,6.06312 0,7.625c0,0.69274 -0.10196,1.5 -2.5,1.5c-2.54129,0 -12.25,0 -12.25,0" fill="none" stroke="#000000" stroke-width="1.5" stroke-linecap="round"/><path d="M221.31032,178.45762c0,0 -0.06389,1.27782 -0.08697,1.7394c-0.01526,0.30523 -0.55573,0.7606 -1.16303,0.7606c-2.58449,0 -20.375,0 -20.375,0" data-paper-data="{&quot;index&quot;:null}" fill="none" stroke="#000000" stroke-width="1.5" stroke-linecap="round"/><path d="M230.06032,166.15405c0,0 0,3.88889 0,5c0,0.55556 -0.48129,1.25 -1.125,1.25c-1.01131,0 -2.4235,0 -3,0c-0.4927,0 -1.25,0.11512 -1.125,1.125c0.04984,0.40262 0,1.25 0,1.25" fill="none" stroke="#000000" stroke-width="1.5" stroke-linecap="round"/></g></g></svg>