<svg version="1.1" xmlns="http://www.w3.org/2000/svg" xmlns:xlink="http://www.w3.org/1999/xlink" width="258.00002" height="272.13737" viewBox="0,0,258.00002,272.13737"><g transform="translate(-111.00002,-43.93134)"><g data-paper-data="{&quot;isPaintingLayer&quot;:true}" fill-rule="nonzero" stroke-linejoin="miter" stroke-miterlimit="10" stroke-dasharray="" stroke-dashoffset="0" style="mix-blend-mode: normal"><path d="M356.55855,51.43136c3.19507,0 4.9415,1.95799 4.9415,5.02326c0,7.15676 0,20.34958 0,28.75105c-1.01966,0.09595 -2.04104,0.16662 -3.06522,0.1959c-1.89874,0.05428 -3.76522,-0.50577 -5.64746,-0.76138c-5.27473,-0.71631 -13.99037,-2.10093 -19.88651,-2.37214c-6.53447,-0.30058 -13.08296,0.046 -19.62414,-0.0052c-11.15877,-0.08733 -22.79179,-0.47174 -33.93765,-1.21534c-1.10249,-0.07355 -2.14839,-0.59625 -3.25247,-0.63996c-12.60514,-0.49897 -25.21451,0.74763 -37.7989,1.22775c-3.71698,0.14181 -7.09454,-0.47274 -10.84695,-0.62173c-6.76696,-0.26868 -13.62451,-0.0078 -20.40581,-0.0078c-3.16417,0.03475 -6.22666,-0.6231 -9.4186,-0.62791c-4.6276,-0.00697 -9.28398,0.6327 -13.88235,0.1133c-1.12,-0.12651 -2.03089,-1.05253 -3.13953,-1.25581c-0.79713,-0.14617 -7.04915,-0.1133 -8.0944,-0.1133c-5.74871,0 -11.56021,0.32921 -17.29686,0.00645c-8.84229,-0.4975 -17.87263,-2.27228 -26.75262,-1.2204c-3.38259,0.40069 -6.63059,1.55065 -9.95051,2.32474c0,-8.34284 0,-18.65933 0,-24.40615c0,-2.70323 1.57197,-4.39535 3.8492,-4.39535c0,0 201.44593,0.00002 234.20928,0.00002z" data-paper-data="{&quot;index&quot;:null}" fill="#000000" stroke="#000000" stroke-width="15" stroke-linecap="butt"/><path d="M122.34923,51.14508c16.35479,0 201.44597,0 234.20931,0c3.19507,0 4.94149,2.54965 4.94149,6.54117c0,9.31937 0,73.10459 0,84.0448c-1.01966,0.12494 -2.04104,-46.38886 -3.06522,-46.35074c-1.89874,0.07068 -3.76522,-0.6586 -5.64746,-0.99145c-5.27473,-0.93276 -13.99037,-2.73577 -19.88651,-3.08895c-6.53447,-0.39141 -13.08297,0.0599 -19.62414,-0.00677c-11.15877,-0.11372 -22.79179,-0.61429 -33.93765,-1.58259c-1.10249,-0.09578 -2.14839,-0.77644 -3.25248,-0.83334c-12.60514,-0.64973 -25.21451,0.97355 -37.79891,1.59876c-3.71698,0.18467 -7.09454,-0.6156 -10.84695,-0.80962c-6.76696,-0.34988 -13.62451,-0.01014 -20.40581,-0.01014c-3.16417,0.04524 -6.22666,-0.81139 -9.4186,-0.81764c-4.6276,-0.00908 -9.28399,0.82387 -13.88235,0.14752c-1.12,-0.16474 -2.03089,-1.37058 -3.13953,-1.6353c-0.79713,-0.19033 -7.04915,-0.14752 -8.09439,-0.14752c-5.74871,0 -11.5602,0.4287 -17.29686,0.0084c-8.84229,-0.64782 -17.87264,-2.95891 -26.75262,-1.58918c-3.38259,0.52177 -6.63059,50.26034 -9.95052,51.26834c0,-10.86386 0,-72.53887 0,-80.02225c0,-3.52008 1.57197,-5.72352 3.8492,-5.72352z" data-paper-data="{&quot;index&quot;:null}" fill="#000000" stroke="#ffffff" stroke-width="7" stroke-linecap="butt"/><path d="M118.50003,297.8719c0,-13.98576 0,-104.80114 0,-125.10472c1.36311,0.77349 2.7141,67.40982 4.06726,68.30219c1.94252,1.28105 3.88951,2.48929 5.88325,3.06404c8.87999,2.55993 17.91034,-1.75929 26.75262,-2.97001c5.73666,-0.78549 11.54815,0.0157 17.29686,0.0157c1.04525,0 7.29726,0.07999 8.0944,-0.27571c1.10864,-0.49474 2.01953,-2.74835 3.13953,-3.05621c4.59836,-1.26404 9.25475,0.29267 13.88235,0.27571c3.19195,-0.01168 6.25444,-1.61268 9.4186,-1.52811c6.78129,0 13.63885,0.63492 20.4058,-0.01896c3.75241,-0.36259 7.12997,-1.85822 10.84695,-1.51307c12.5844,1.16847 25.19376,4.20224 37.7989,2.98792c1.10408,-0.10635 2.14998,-1.37842 3.25248,-1.55744c11.14586,-1.80966 22.77888,-2.74516 33.93766,-2.95769c6.54118,-0.12458 13.08968,0.71885 19.62415,-0.01263c5.89614,-0.66006 14.61178,-4.02972 19.88651,-5.77296c1.88224,-0.62207 3.74872,-5.04124 5.64746,-4.90916c1.02418,0.07126 2.04555,-48.65619 3.06522,-48.42268c0,20.44628 0,104.50869 0,121.92573c0,7.4598 -1.74642,12.22487 -4.9415,12.22487c-32.76335,0 -217.85452,0 -234.20931,0c-2.27723,0 -3.8492,-4.11803 -3.8492,-10.69676z" fill="#000000" stroke="#000000" stroke-width="15" stroke-linecap="butt"/><path d="M122.34922,74.43135c16.35479,0 201.44597,0 234.20931,0c3.19507,0 4.94149,6.74372 4.94149,17.30113c0,24.64933 0,70.08806 0,99.02442c-1.01966,0.33048 -2.04104,0.57387 -3.06522,0.67472c-1.89874,0.18695 -3.76522,-1.74198 -5.64746,-2.62234c-5.27473,-2.46711 -13.99037,-7.236 -19.88651,-8.17013c-6.53447,-1.03525 -13.08297,0.15844 -19.62414,-0.0179c-11.15877,-0.30078 -22.79179,-1.62477 -33.93765,-4.18587c-1.10249,-0.25333 -2.14839,-2.05363 -3.25248,-2.20415c-12.60514,-1.71852 -25.21451,2.57498 -37.79891,4.22866c-3.71698,0.48845 -7.09454,-1.62824 -10.84695,-2.14139c-6.76696,-0.92542 -13.62451,-0.02683 -20.40581,-0.02683c-3.16417,0.11965 -6.22666,-2.14608 -9.4186,-2.16261c-4.6276,-0.02401 -9.28399,2.17911 -13.88235,0.39019c-1.12,-0.43572 -2.03089,-3.62512 -3.13953,-4.3253c-0.79713,-0.5034 -7.04915,-0.39019 -8.09439,-0.39019c-5.74871,0 -11.5602,1.1339 -17.29686,0.02221c-8.84229,-1.71346 -17.87264,-7.82619 -26.75262,-4.2033c-3.38259,1.38006 -6.63059,5.34076 -9.95052,8.00687c0,-28.73442 0,-64.26645 0,-84.05967c0,-9.31047 1.57197,-15.13847 3.8492,-15.13847z" data-paper-data="{&quot;index&quot;:null}" fill="#000000" stroke="#000000" stroke-width="15" stroke-linecap="butt"/><path d="M356.55855,51.4314c3.19507,0 4.9415,6.0251 4.9415,15.45751c0,22.02269 0,172.75417 0,198.60706c-1.01966,0.29525 -2.04104,-109.62197 -3.06522,-109.53187c-1.89874,0.16703 -3.76522,-1.55635 -5.64746,-2.34291c-5.27473,-2.20422 -13.99037,-6.46496 -19.88651,-7.29952c-6.53447,-0.92494 -13.08296,0.14155 -19.62414,-0.016c-11.15877,-0.26873 -22.79179,-1.45163 -33.93765,-3.73983c-1.10249,-0.22633 -2.14839,-1.83477 -3.25247,-1.96927c-12.60514,-1.53543 -25.21451,2.3006 -37.7989,3.77801c-3.71698,0.43637 -7.09454,-1.45471 -10.84695,-1.91318c-6.76696,-0.82678 -13.62451,-0.024 -20.40581,-0.024c-3.16417,0.10693 -6.22666,-1.91739 -9.4186,-1.93219c-4.6276,-0.02145 -9.28398,1.94693 -13.88235,0.34864c-1.12,-0.3893 -2.03089,-3.23883 -3.13953,-3.86436c-0.79713,-0.44979 -7.04915,-0.34865 -8.0944,-0.34865c-5.74871,0 -11.56021,1.01305 -17.29686,0.01985c-8.84229,-1.5309 -17.87263,-6.99223 -26.75262,-3.7554c-3.38259,1.233 -6.63059,118.77069 -9.95051,121.15271c0,-25.67248 0,-171.4173 0,-189.10134c0,-8.31835 1.57197,-13.52532 3.8492,-13.52532c0,0 201.44593,0.00006 234.20928,0.00006z" data-paper-data="{&quot;index&quot;:null}" fill="#000000" stroke="#ffffff" stroke-width="7" stroke-linecap="butt"/><path d="M122.34922,213.02595c16.35479,0 201.44597,0 234.20931,0c3.19507,0 4.94149,1.95799 4.94149,5.02326c0,7.15676 0,49.2333 0,57.63477c-1.01966,0.09595 -2.04104,0.79453 -3.06522,0.82381c-1.89874,0.05428 -49.97367,9.88098 -56.5601,9.76986c-2.34923,-0.03963 -180.05476,-10.68941 -183.37468,-9.91532c0,-8.34284 0,-53.19421 0,-58.94103c0,-2.70323 1.57197,-4.39535 3.8492,-4.39535z" data-paper-data="{&quot;index&quot;:null}" fill="#000000" stroke="none" stroke-width="0" stroke-linecap="butt"/><path d="M118.50003,304.17332c0,-5.74682 0,-43.06331 0,-51.40615c1.36311,0.31783 2.7141,27.69903 4.06726,28.06571c1.94252,0.52639 3.88951,1.02286 5.88325,1.25903c8.87999,1.05189 17.91034,-0.7229 26.75262,-1.22039c5.73666,-0.32276 11.54815,0.00645 17.29686,0.00645c1.04525,0 7.29726,0.03287 8.0944,-0.11329c1.10864,-0.20329 2.01953,-1.12931 3.13953,-1.25581c4.59836,-0.5194 9.25475,0.12026 13.88235,0.11329c3.19195,-0.0048 6.25444,-0.66266 9.4186,-0.62791c6.78129,0 13.63885,0.26089 20.4058,-0.00779c3.75241,-0.14899 7.12997,-0.76355 10.84695,-0.62173c12.5844,0.48013 25.19376,1.72672 37.7989,1.22775c1.10408,-0.0437 2.14998,-0.5664 3.25248,-0.63996c11.14586,-0.7436 22.77888,-1.128 33.93766,-1.21533c6.54118,-0.05119 13.08968,0.29538 19.62415,-0.00519c5.89614,-0.27122 14.61178,-1.65583 19.88651,-2.37214c1.88224,-0.25561 3.74872,-2.07147 5.64746,-2.0172c1.02418,0.02928 2.04555,-19.99307 3.06522,-19.89712c0,8.40148 0,42.94314 0,50.09989c0,3.06527 -1.74642,5.02326 -4.9415,5.02326c-32.76335,0 -217.85452,0 -234.20931,0c-2.27723,0 -3.8492,-1.69212 -3.8492,-4.39535z" fill="#000000" stroke="#000000" stroke-width="15" stroke-linecap="butt"/><path d="M122.34922,195.00793c16.35479,0 201.44597,0 234.20931,0c3.19507,0 4.94149,2.54965 4.94149,6.54117c0,9.31937 0,73.10459 0,84.0448c-1.01966,0.12494 -2.04104,-46.38886 -3.06522,-46.35074c-1.89874,0.07068 -3.76522,-0.6586 -5.64746,-0.99145c-5.27473,-0.93276 -13.99037,-2.73577 -19.88651,-3.08895c-6.53447,-0.39141 -13.08297,0.0599 -19.62414,-0.00677c-11.15877,-0.11372 -22.79179,-0.61429 -33.93765,-1.58259c-1.10249,-0.09578 -2.14839,-0.77644 -3.25248,-0.83334c-12.60514,-0.64973 -25.21451,0.97355 -37.79891,1.59876c-3.71698,0.18467 -7.09454,-0.6156 -10.84695,-0.80962c-6.76696,-0.34988 -13.62451,-0.01014 -20.40581,-0.01014c-3.16417,0.04524 -6.22666,-0.81139 -9.4186,-0.81764c-4.6276,-0.00908 -9.28399,0.82387 -13.88235,0.14752c-1.12,-0.16474 -2.03089,-1.37058 -3.13953,-1.6353c-0.79713,-0.19033 -7.04915,-0.14752 -8.09439,-0.14752c-5.74871,0 -11.5602,0.4287 -17.29686,0.0084c-8.84229,-0.64782 -17.87264,-2.95891 -26.75262,-1.58918c-3.38259,0.52177 -6.63059,50.26034 -9.95052,51.26834c0,-10.86386 0,-72.53887 0,-80.02225c0,-3.52008 1.57197,-5.72352 3.8492,-5.72352z" data-paper-data="{&quot;index&quot;:null}" fill="#000000" stroke="#ffffff" stroke-width="7" stroke-linecap="butt"/><path d="M118.50003,304.17332c0,-5.74682 0,-16.0633 0,-24.40615c3.31992,0.77409 6.56793,1.92405 9.95052,2.32474c8.87999,1.05189 17.91034,-0.7229 26.75262,-1.22039c5.73666,-0.32276 11.54815,0.00645 17.29686,0.00645c1.04525,0 7.29726,0.03287 8.0944,-0.11329c1.10864,-0.20329 2.01953,-1.12931 3.13953,-1.25581c4.59836,-0.5194 9.25475,0.12026 13.88235,0.11329c3.19195,-0.0048 6.25444,-0.66266 9.4186,-0.62791c6.78129,0 13.63885,0.26089 20.4058,-0.00779c3.75241,-0.14899 7.12997,-0.76355 10.84695,-0.62173c12.5844,0.48013 25.19376,1.72672 37.7989,1.22775c1.10408,-0.0437 2.14998,-0.5664 3.25248,-0.63996c11.14586,-0.7436 22.77888,-1.128 33.93766,-1.21533c6.54118,-0.05119 13.08968,0.29538 19.62415,-0.00519c5.89614,-0.27122 14.61178,-1.65583 19.88651,-2.37214c1.88224,-0.25561 3.74872,-0.81566 5.64746,-0.76138c1.02418,0.02928 2.04555,0.09996 3.06522,0.1959c0,8.40148 0,21.5943 0,28.75106c0,3.06527 -1.74642,5.02326 -4.9415,5.02326c-32.76335,0 -217.85452,0 -234.20931,0c-2.27723,0 -3.8492,-1.69212 -3.8492,-4.39535z" fill="#000000" stroke="#ffffff" stroke-width="7" stroke-linecap="butt"/><path d="M122.34922,51.43136c16.35479,0 201.44596,0 234.20931,0c3.19507,0 4.9415,1.95799 4.9415,5.02326c0,7.15676 0,49.2333 0,57.63478c-1.01966,0.09595 -2.04104,0.79453 -3.06522,0.82381c-1.89874,0.05428 -49.97368,9.88097 -56.5601,9.76986c-2.34923,-0.03963 -180.05476,-10.68941 -183.37468,-9.91532c0,-8.34284 0,-53.19421 0,-58.94103c0,-2.70323 1.57197,-4.39535 3.8492,-4.39535z" data-paper-data="{&quot;index&quot;:null}" fill="#000000" stroke="none" stroke-width="0" stroke-linecap="butt"/><path d="M118.50003,304.17332c0,-5.74682 0,-24.854 0,-33.19685c3.31992,0.77409 18.39754,-3.59662 20.74678,-3.63625c6.58642,-0.11111 217.28927,0.92488 219.18801,0.97916c1.02418,0.02928 2.04555,-6.80702 3.06522,-6.71108c0,8.40148 0,34.78035 0,41.9371c0,3.06527 -1.74642,5.02326 -4.9415,5.02326c-32.76335,0 -217.85452,0 -234.20931,0c-2.27723,0 -3.8492,-1.69212 -3.8492,-4.39535z" fill="#000000" stroke="none" stroke-width="0" stroke-linecap="butt"/><path d="M122.34921,172.65298c16.35479,0 201.44596,0 234.20931,0c3.19507,0 4.9415,3.25436 4.9415,8.34912c0,11.89519 0,81.83028 0,95.79431c-1.01966,0.15948 -2.04104,1.32058 -3.06522,1.36925c-1.89874,0.09022 -49.97368,16.42308 -56.5601,16.23841c-2.34923,-0.06587 -180.05476,-17.76678 -183.37468,-16.48018c0,-13.86657 0,-88.41368 0,-97.96542c0,-4.49302 1.57197,-7.30548 3.8492,-7.30548z" data-paper-data="{&quot;index&quot;:null}" fill="#000000" stroke="none" stroke-width="0" stroke-linecap="butt"/><path d="M195.77433,69.3034c0,0.49053 0.21342,0.92373 0.64024,1.29959c0.4332,0.36949 1.52894,0.76447 3.28722,1.18492c1.76465,0.42046 3.0738,0.86322 3.92746,1.32826c0.85366,0.45868 1.46842,1.06388 1.84428,1.81562c0.38223,0.74535 0.57335,1.52894 0.57335,2.35074c0,1.63087 -0.62113,2.9655 -1.86339,4.0039c-1.23589,1.03203 -2.92409,1.54805 -5.0646,1.54805c-2.34437,0 -4.09628,-0.56061 -5.25572,-1.68183c-1.15945,-1.12122 -1.73916,-2.28385 -1.73916,-3.48789c0,-0.40135 0.14971,-0.7581 0.44913,-1.07025c0.29942,-0.31216 0.68802,-0.46824 1.16581,-0.46824c0.43957,0 0.76447,0.1306 0.9747,0.39179c0.2166,0.26119 0.47779,0.74535 0.78358,1.4525c0.6498,1.50983 1.81562,2.26474 3.49744,2.26474c1.00655,0 1.85383,-0.22934 2.54186,-0.68802c0.68802,-0.46505 1.03203,-1.09255 1.03203,-1.8825c0,-0.61158 -0.23889,-1.13715 -0.71669,-1.57672c-0.47143,-0.43957 -1.5576,-0.85684 -3.25855,-1.25182c-1.70094,-0.39497 -2.89543,-0.77084 -3.58344,-1.12759c-0.68165,-0.35675 -1.27729,-0.87277 -1.78695,-1.54805c-0.50964,-0.68165 -0.76447,-1.52575 -0.76447,-2.5323c0,-1.49071 0.58928,-2.67882 1.76783,-3.56434c1.17855,-0.89188 2.78394,-1.33782 4.81615,-1.33782c2.07044,0 3.63122,0.4746 4.68237,1.42382c1.05114,0.94922 1.57671,1.90162 1.57671,2.8572c0,0.39497 -0.15289,0.76765 -0.45868,1.11804c-0.29942,0.35038 -0.68484,0.52557 -1.15625,0.52557c-0.42683,0 -0.75172,-0.12104 -0.9747,-0.36312c-0.22297,-0.24208 -0.4746,-0.6498 -0.75491,-1.22315c-0.60521,-1.21041 -1.64679,-1.81562 -3.12477,-1.81562c-0.86003,0 -1.58627,0.18793 -2.17874,0.5638c-0.5861,0.36949 -0.87913,0.86639 -0.87913,1.49071zM217.92958,77.00545h-6.40243c0.03185,1.21041 0.36312,2.12459 0.99381,2.74253c0.63705,0.61794 1.39516,0.92692 2.27429,0.92692c1.09574,0 2.12458,-0.47779 3.08654,-1.43337c0.3886,-0.40135 0.67528,-0.6498 0.86003,-0.74535c0.19112,-0.09556 0.40135,-0.14334 0.63068,-0.14334c0.29305,0 0.54468,0.09237 0.75491,0.27712c0.2166,0.18475 0.3249,0.4109 0.3249,0.67847c0,0.73261 -0.50327,1.50346 -1.50983,2.31252c-1.00017,0.80906 -2.35711,1.21359 -4.07079,1.21359c-2.18511,0 -3.84146,-0.61476 -4.96904,-1.84428c-1.12122,-1.22952 -1.68183,-2.82535 -1.68183,-4.78749c0,-1.97487 0.56061,-3.5707 1.68183,-4.78749c1.12759,-1.22315 2.69475,-1.83472 4.70148,-1.83472c1.92391,0 3.40507,0.57654 4.44347,1.72961c1.04477,1.15307 1.56716,2.40807 1.56716,3.76501c0,0.59247 -0.17519,1.06388 -0.52557,1.41427c-0.34401,0.34401 -1.06388,0.51601 -2.15962,0.51601zM211.52717,75.15158h5.93418c-0.03823,-1.083 -0.33764,-1.90799 -0.89825,-2.47497c-0.55424,-0.56698 -1.24226,-0.85047 -2.06407,-0.85047c-1.72642,0 -2.71705,1.10848 -2.97187,3.32543zM223.90439,69.8672v-1.95895c0,-0.80906 0.03185,-1.35693 0.09556,-1.64361c0.07008,-0.29305 0.24527,-0.55105 0.52557,-0.77402c0.28668,-0.22934 0.62113,-0.34401 1.00337,-0.34401c0.35038,0 0.66572,0.10511 0.94603,0.31535c0.28031,0.20386 0.46505,0.45231 0.55424,0.74535c0.08919,0.29305 0.13378,0.77084 0.13378,1.43337v2.22652h0.63068c0.79632,0 1.32508,0.09874 1.58627,0.29623c0.26756,0.19112 0.40135,0.4746 0.40135,0.85047c0,0.80269 -0.66891,1.20404 -2.00673,1.20404h-0.61157v6.02019c0,0.80906 0.05734,1.3633 0.17201,1.66272c0.11467,0.29305 0.42364,0.43957 0.92692,0.43957c0.23571,0 0.50327,-0.03185 0.80269,-0.09556c0.29942,-0.07008 0.52239,-0.10511 0.66891,-0.10511c0.3249,0 0.58928,0.1083 0.79313,0.3249c0.20386,0.21023 0.30579,0.46824 0.30579,0.77402c0,1.06388 -1.12759,1.59583 -3.38277,1.59583c-1.08937,0 -1.89206,-0.20068 -2.40807,-0.60202c-0.51601,-0.40772 -0.83455,-0.90143 -0.95559,-1.48116c-0.12104,-0.5861 -0.18156,-1.34419 -0.18156,-2.27429v-6.25909h-0.43001c-0.96833,0 -1.45249,-0.39497 -1.45249,-1.18492c0,-0.77721 0.50646,-1.16581 1.51938,-1.16581zM232.56439,69.8672v-1.95895c0,-0.80906 0.03185,-1.35693 0.09556,-1.64361c0.07008,-0.29305 0.24527,-0.55105 0.52557,-0.77402c0.28668,-0.22934 0.62113,-0.34401 1.00337,-0.34401c0.35038,0 0.66572,0.10511 0.94603,0.31535c0.28031,0.20386 0.46505,0.45231 0.55424,0.74535c0.08919,0.29305 0.13378,0.77084 0.13378,1.43337v2.22652h0.63068c0.79632,0 1.32508,0.09874 1.58627,0.29623c0.26756,0.19112 0.40135,0.4746 0.40135,0.85047c0,0.80269 -0.66891,1.20404 -2.00673,1.20404h-0.61157v6.02019c0,0.80906 0.05734,1.3633 0.17201,1.66272c0.11467,0.29305 0.42364,0.43957 0.92692,0.43957c0.23571,0 0.50327,-0.03185 0.80269,-0.09556c0.29942,-0.07008 0.52239,-0.10511 0.66891,-0.10511c0.3249,0 0.58928,0.1083 0.79313,0.3249c0.20386,0.21023 0.30579,0.46824 0.30579,0.77402c0,1.06388 -1.12759,1.59583 -3.38277,1.59583c-1.08937,0 -1.89206,-0.20068 -2.40807,-0.60202c-0.51601,-0.40772 -0.83455,-0.90143 -0.95559,-1.48116c-0.12104,-0.5861 -0.18156,-1.34419 -0.18156,-2.27429v-6.25909h-0.43001c-0.96833,0 -1.45249,-0.39497 -1.45249,-1.18492c0,-0.77721 0.50646,-1.16581 1.51938,-1.16581zM242.33286,64.86948c0.42046,0 0.78676,0.15927 1.09892,0.47779c0.31216,0.31853 0.46824,0.68802 0.46824,1.10848c0,0.43957 -0.15608,0.81862 -0.46824,1.13715c-0.31216,0.31216 -0.67847,0.46824 -1.09892,0.46824c-0.43957,0 -0.81862,-0.15608 -1.13715,-0.46824c-0.31216,-0.31853 -0.46824,-0.69758 -0.46824,-1.13715c0,-0.42683 0.15608,-0.79632 0.46824,-1.10848c0.31853,-0.31853 0.69758,-0.47779 1.13715,-0.47779zM243.9478,72.23705v7.9027c0,0.77721 -0.03823,1.30915 -0.11467,1.59583c-0.07008,0.28668 -0.25164,0.5415 -0.54468,0.76447c-0.29305,0.22297 -0.61157,0.33446 -0.95559,0.33446c-0.35038,0 -0.67847,-0.1083 -0.98426,-0.3249c-0.29942,-0.22297 -0.48735,-0.48098 -0.5638,-0.77402c-0.07008,-0.29305 -0.10511,-0.82499 -0.10511,-1.59583v-7.87403c0,-0.72625 0.02867,-1.23908 0.086,-1.5385c0.05734,-0.29942 0.22934,-0.5638 0.51601,-0.79313c0.29305,-0.23571 0.63068,-0.35356 1.01292,-0.35356c0.3886,0 0.72306,0.10511 1.00337,0.31535c0.28031,0.21023 0.45868,0.47779 0.53513,0.80269c0.07644,0.31853 0.11467,0.83136 0.11467,1.5385zM258.81431,74.78849v5.35128c0,0.68802 -0.02867,1.19129 -0.086,1.50983c-0.05097,0.31216 -0.21978,0.58928 -0.50646,0.83136c-0.28668,0.23571 -0.6275,0.35356 -1.02247,0.35356c-0.35038,0 -0.67847,-0.10511 -0.98426,-0.31535c-0.29942,-0.21023 -0.48416,-0.48416 -0.55424,-0.8218c-0.07008,-0.33764 -0.10511,-0.85684 -0.10511,-1.5576v-4.70149c0,-1.30596 -0.19748,-2.18511 -0.59247,-2.63741c-0.3886,-0.45231 -0.92373,-0.67847 -1.60538,-0.67847c-0.62431,0 -1.17218,0.17838 -1.64361,0.53513c-0.46505,0.35675 -0.79313,0.80588 -0.98426,1.34738c-0.19112,0.53513 -0.28668,1.45567 -0.28668,2.76165v3.37322c0,0.68165 -0.02548,1.17855 -0.07644,1.49071c-0.05097,0.31216 -0.22615,0.59247 -0.52557,0.84092c-0.29305,0.24208 -0.63068,0.36312 -1.01292,0.36312c-0.35675,0 -0.68802,-0.1083 -0.99381,-0.3249c-0.29942,-0.22297 -0.48098,-0.4969 -0.54468,-0.8218c-0.0637,-0.3249 -0.09556,-0.84092 -0.09556,-1.54805v-8.04603c0,-0.71988 0.03185,-1.22315 0.09556,-1.50983c0.07008,-0.28668 0.24208,-0.52557 0.51601,-0.71669c0.27393,-0.19112 0.58291,-0.28668 0.92692,-0.28668c0.31853,0 0.6498,0.12423 0.99381,0.37268c0.35038,0.24845 0.52557,0.85684 0.52557,1.82516c1.08937,-1.46523 2.49089,-2.19785 4.20458,-2.19785c0.6498,0 1.29323,0.12423 1.93028,0.37268c0.63705,0.24208 1.15625,0.64024 1.5576,1.19448c0.40772,0.55424 0.65298,1.12759 0.7358,1.72005c0.08919,0.59247 0.13378,1.23271 0.13378,1.92073zM271.0195,71.79749v-0.43957c0,-0.59247 0.14652,-1.03521 0.43957,-1.32826c0.29305,-0.29942 0.66254,-0.44913 1.10848,-0.44913c0.49053,0 0.86959,0.17201 1.13715,0.51601c0.26756,0.34401 0.40135,1.08937 0.40135,2.23607v8.76272c0,2.59282 -0.54787,4.33836 -1.64361,5.23661c-1.09574,0.89825 -2.67882,1.34738 -4.74926,1.34738c-1.85383,0 -3.30314,-0.34401 -4.34792,-1.03203c-1.04477,-0.68165 -1.56716,-1.40471 -1.56716,-2.16918c0,-0.41409 0.13697,-0.74855 0.4109,-1.00337c0.28031,-0.24845 0.60521,-0.37268 0.9747,-0.37268c0.34401,0 0.61794,0.07964 0.8218,0.23889c0.20386,0.16564 0.54787,0.55424 1.03203,1.16581c0.48416,0.61794 1.30596,0.92692 2.46541,0.92692c0.63705,0 1.22634,-0.10193 1.76783,-0.30579c0.54787,-0.19748 0.94922,-0.55105 1.20404,-1.0607c0.26119,-0.50327 0.38542,-1.72961 0.37268,-3.67901c-1.00017,1.43337 -2.36349,2.15007 -4.08991,2.15007c-1.66272,0 -2.97824,-0.62113 -3.94657,-1.86339c-0.96833,-1.24863 -1.45249,-2.84446 -1.45249,-4.78749c0,-1.93666 0.4969,-3.47196 1.49071,-4.60592c1.00017,-1.13396 2.29659,-1.70094 3.88923,-1.70094c1.73916,0 3.16618,0.73899 4.28102,2.21696zM264.65531,76.1454c0,1.26775 0.27712,2.23607 0.83136,2.90498c0.55424,0.66254 1.31233,0.99381 2.27429,0.99381c0.83455,0 1.5576,-0.32171 2.16918,-0.96514c0.61157,-0.6498 0.91736,-1.61494 0.91736,-2.89543c0,-1.26774 -0.28349,-2.27111 -0.85047,-3.0101c-0.56061,-0.73899 -1.32189,-1.10848 -2.28385,-1.10848c-0.92373,0 -1.66591,0.3472 -2.22652,1.04159c-0.55424,0.68802 -0.83136,1.70094 -0.83136,3.03876zM279.84914,72.97288c0,0.42046 0.21978,0.75172 0.65935,0.99381c0.43957,0.23571 1.41746,0.5415 2.93364,0.91736c2.95594,0.71351 4.43391,1.94303 4.43391,3.68856c0,1.37604 -0.4969,2.43037 -1.49071,3.16299c-0.99381,0.73261 -2.38896,1.09892 -4.18546,1.09892c-1.81562,0 -3.1821,-0.37268 -4.09946,-1.11804c-0.91736,-0.75172 -1.37604,-1.54486 -1.37604,-2.3794c0,-0.35675 0.12741,-0.66254 0.38223,-0.91736c0.25482,-0.25482 0.56698,-0.38223 0.93647,-0.38223c0.50964,0 0.95559,0.31853 1.33782,0.95559c0.4332,0.70076 0.9078,1.16581 1.42382,1.39516c0.51601,0.22297 1.07025,0.33446 1.66272,0.33446c0.6498,0 1.17855,-0.14334 1.58627,-0.43001c0.41409,-0.29305 0.62113,-0.66254 0.62113,-1.10848c0,-0.40772 -0.17519,-0.76128 -0.52557,-1.0607c-0.34401,-0.29942 -1.29004,-0.62431 -2.83809,-0.9747c-1.54805,-0.35675 -2.67564,-0.85366 -3.38277,-1.49071c-0.70714,-0.64343 -1.0607,-1.4079 -1.0607,-2.2934c0,-0.99381 0.43001,-1.87295 1.29004,-2.63741c0.86639,-0.76447 2.16281,-1.14671 3.88923,-1.14671c1.58627,0 2.84765,0.32171 3.78412,0.96514c0.94284,0.64343 1.41427,1.31233 1.41427,2.00673c0,0.36312 -0.12104,0.67209 -0.36312,0.92692c-0.23571,0.24845 -0.5638,0.37268 -0.98426,0.37268c-0.63068,0 -1.20085,-0.35993 -1.71049,-1.07981c-0.50327,-0.72625 -1.26456,-1.08937 -2.28385,-1.08937c-0.54787,0 -1.02884,0.11148 -1.44293,0.33446c-0.40772,0.22297 -0.61157,0.5415 -0.61157,0.95559z" fill="#ffffff" stroke="none" stroke-width="1" stroke-linecap="square"/><path d="M230.94471,239.12851c0,-2.23136 0,-16.7205 0,-19.95984c0.67339,0.1234 1.3408,10.7549 2.00927,10.89727c0.95963,0.20439 1.92147,0.39715 2.9064,0.48886c4.38682,0.40843 8.84791,-0.28068 13.2161,-0.47385c2.83398,-0.12532 5.70492,0.0025 8.54485,0.0025c0.51636,0 3.60493,0.01276 3.99873,-0.04399c0.54768,-0.07894 0.99767,-0.43849 1.55096,-0.4876c2.27165,-0.20167 4.57196,0.04669 6.85804,0.04399c1.57686,-0.00187 3.08977,-0.25729 4.6529,-0.2438c3.35004,0 6.73774,0.10129 10.0807,-0.00302c1.85373,-0.05785 3.52229,-0.29647 5.35852,-0.24141c6.21684,0.18642 12.44601,0.67045 18.6731,0.47671c0.54543,-0.01697 1.06211,-0.21992 1.60676,-0.24849c5.50619,-0.28872 11.25303,-0.43797 16.7656,-0.47188c3.23142,-0.01988 6.46645,0.11469 9.69456,-0.00202c2.91276,-0.10531 7.21839,-0.64292 9.82417,-0.92104c0.92985,-0.09925 1.85191,-0.8043 2.78991,-0.78323c0.50596,0.01137 1.01052,-7.76286 1.51425,-7.7256c0,3.26211 0,16.67385 0,19.45265c0,1.19018 -0.86275,1.95042 -2.44116,1.95042c-16.18547,0 -107.62267,0 -115.70212,0c-1.12498,0 -1.90155,-0.65701 -1.90155,-1.70662z" fill="#000000" stroke="#000000" stroke-width="15" stroke-linecap="butt"/><path d="M350.98955,179.67389c0,2.77881 0,7.90127 0,11.16338c-0.50372,0.03725 -1.0083,0.0647 -1.51425,0.07606c-0.938,0.02107 -1.86006,-0.19637 -2.78991,-0.29563c-2.60577,-0.27812 -6.91141,-0.81575 -9.82417,-0.92105c-3.2281,-0.11671 -6.46313,0.01786 -9.69455,-0.00202c-5.51256,-0.03391 -11.25941,-0.18317 -16.76559,-0.47189c-0.54464,-0.02856 -1.06133,-0.23151 -1.60676,-0.24848c-6.22709,-0.19374 -12.45627,0.29029 -18.6731,0.47671c-1.83623,0.05506 -3.50478,-0.18356 -5.35851,-0.24141c-3.34296,-0.10432 -6.73067,-0.00303 -10.08071,-0.00303c-1.56314,0.0135 -3.07604,-0.24193 -4.65289,-0.2438c-2.28609,-0.0027 -4.5864,0.24567 -6.85804,0.04399c-0.55329,-0.04912 -1.00329,-0.40867 -1.55097,-0.48761c-0.39379,-0.05676 -3.48236,-0.04399 -3.99873,-0.04399c-2.83993,0 -5.71088,0.12783 -8.54485,0.00251c-4.36819,-0.19317 -8.82929,-0.88228 -13.21611,-0.47386c-1.67104,0.15558 -3.27559,0.60209 -4.91567,0.90265c0,-3.23934 0,-7.245 0,-9.47636c0,-1.04961 0.77657,-1.70661 1.90155,-1.70661c0,0 99.51663,0 115.70211,0c0,0 2.44115,0.76026 2.44115,1.95044z" data-paper-data="{&quot;index&quot;:null}" fill="#000000" stroke="#000000" stroke-width="15" stroke-linecap="butt"/><path d="M133.51503,239.12851c0,-2.23136 0,-16.7205 0,-19.95984c0.67339,0.12341 1.34079,10.7549 2.00927,10.89728c0.95963,0.20439 1.92147,0.39715 2.90639,0.48885c4.38682,0.40842 8.84792,-0.28069 13.2161,-0.47385c2.83397,-0.12532 5.70492,0.0025 8.54485,0.0025c0.51637,0 3.60493,0.01276 3.99873,-0.04399c0.54768,-0.07893 0.99767,-0.43849 1.55097,-0.4876c2.27165,-0.20167 4.57196,0.04669 6.85804,0.04399c1.57686,-0.00186 3.08977,-0.2573 4.6529,-0.2438c3.35004,0 6.73774,0.1013 10.08071,-0.00302c1.85374,-0.05785 3.52228,-0.29647 5.35851,-0.2414c6.21685,0.18642 12.44601,0.67045 18.67309,0.47671c0.54543,-0.01697 1.06212,-0.21992 1.60676,-0.24848c5.50618,-0.28872 11.25303,-0.43798 16.7656,-0.47188c3.23142,-0.01988 6.46645,0.11469 9.69456,-0.00202c2.91277,-0.10531 7.21839,-0.64292 9.82417,-0.92105c0.92985,-0.09925 1.85191,-0.8043 2.78991,-0.78323c0.50596,0.01137 1.01052,-7.76285 1.51426,-7.7256c0,3.2621 0,16.67384 0,19.45265c0,1.19017 -0.86276,1.95042 -2.44116,1.95042c-16.18547,0 -107.62267,0 -115.70212,0c-1.12498,0 -1.90155,-0.65701 -1.90155,-1.70661z" fill="#000000" stroke="#000000" stroke-width="15" stroke-linecap="butt"/><path d="M135.4166,186.65385c8.07945,0 99.51665,0 115.70212,0c1.5784,0 2.44116,1.74484 2.44116,4.47643c0,6.37767 0,18.13432 0,25.62121c-0.50372,0.08551 -1.0083,0.14848 -1.51426,0.17457c-0.938,0.04837 -1.86006,-0.45071 -2.78991,-0.6785c-2.60578,-0.63833 -6.9114,-1.87221 -9.82417,-2.11391c-3.22811,-0.26786 -6.46314,0.04099 -9.69456,-0.00463c-5.51257,-0.07782 -11.25941,-0.42039 -16.7656,-1.08304c-0.54464,-0.06555 -1.06133,-0.53135 -1.60676,-0.57029c-6.22709,-0.44464 -12.45626,0.66624 -18.67311,1.09411c-1.83623,0.12638 -3.50479,-0.42128 -5.35851,-0.55406c-3.34296,-0.23944 -6.73067,-0.00694 -10.08071,-0.00694c-1.56314,0.03096 -3.07604,-0.55527 -4.6529,-0.55955c-2.28609,-0.00621 -4.5864,0.56381 -6.85804,0.10096c-0.55329,-0.11274 -1.00329,-0.93795 -1.55097,-1.11911c-0.39379,-0.13025 -3.48236,-0.10096 -3.99873,-0.10096c-2.83993,0 -5.71087,0.29338 -8.54485,0.00575c-4.36819,-0.44333 -8.82929,-2.02492 -13.2161,-1.08755c-1.67104,0.35707 -3.27559,1.38185 -4.91567,2.07167c0,-7.43464 0,-16.62806 0,-21.74928c0,-2.40896 0.77657,-3.91687 1.90155,-3.91687z" data-paper-data="{&quot;index&quot;:null}" fill="#000000" stroke="#000000" stroke-width="15" stroke-linecap="butt"/><path d="M135.4166,203.73805c8.07945,0 99.51665,0 115.70212,0c1.5784,0 2.44116,0.76024 2.44116,1.95042c0,2.77881 0,21.79799 0,25.06009c-0.50372,0.03726 -1.0083,-13.83202 -1.51426,-13.82065c-0.938,0.02108 -1.86006,-0.19638 -2.78991,-0.29563c-2.60578,-0.27813 -6.9114,-0.81574 -9.82417,-0.92105c-3.22811,-0.11671 -6.46314,0.01786 -9.69456,-0.00202c-5.51257,-0.03391 -11.25941,-0.18317 -16.7656,-0.47189c-0.54464,-0.02856 -1.06133,-0.23151 -1.60676,-0.24848c-6.22709,-0.19373 -12.45626,0.29029 -18.67311,0.47671c-1.83623,0.05507 -3.50479,-0.18356 -5.35851,-0.24141c-3.34296,-0.10433 -6.73067,-0.00302 -10.08071,-0.00302c-1.56314,0.01349 -3.07604,-0.24194 -4.6529,-0.2438c-2.28609,-0.00271 -4.5864,0.24566 -6.85804,0.04399c-0.55329,-0.04912 -1.00329,-0.40867 -1.55097,-0.48761c-0.39379,-0.05675 -3.48236,-0.04399 -3.99873,-0.04399c-2.83993,0 -5.71087,0.12783 -8.54485,0.0025c-4.36819,-0.19316 -8.82929,-0.88227 -13.2161,-0.47385c-1.67104,0.15558 -3.27559,14.9864 -4.91567,15.28696c0,-3.23933 0,-21.62931 0,-23.86067c0,-1.0496 0.77657,-1.70661 1.90155,-1.70661z" data-paper-data="{&quot;index&quot;:null}" fill="#000000" stroke="#d9d9d9" stroke-width="5" stroke-linecap="butt"/><path d="M135.4166,203.73805c8.07945,0 99.51665,0 115.70212,0c1.5784,0 2.44116,0.76024 2.44116,1.95042c0,2.77881 0,19.11617 0,22.37827c-0.50372,0.03726 -1.0083,0.3085 -1.51426,0.31987c-0.938,0.02108 -24.68758,3.83656 -27.94135,3.79341c-1.16054,-0.01539 -88.94914,-4.15045 -90.58922,-3.84989c0,-3.23933 0,-20.6541 0,-22.88546c0,-1.0496 0.77657,-1.70661 1.90155,-1.70661z" data-paper-data="{&quot;index&quot;:null}" fill="#000000" stroke="none" stroke-width="0" stroke-linecap="butt"/><path d="M133.51503,239.12851c0,-2.23136 0,-6.23701 0,-9.47635c1.64008,0.30056 3.24464,0.74706 4.91567,0.90264c4.38682,0.40842 8.84792,-0.28069 13.2161,-0.47385c2.83397,-0.12532 5.70492,0.0025 8.54485,0.0025c0.51637,0 3.60493,0.01276 3.99873,-0.04399c0.54768,-0.07893 0.99767,-0.43849 1.55097,-0.4876c2.27165,-0.20167 4.57196,0.04669 6.85804,0.04399c1.57686,-0.00186 3.08977,-0.2573 4.6529,-0.2438c3.35004,0 6.73774,0.1013 10.08071,-0.00302c1.85374,-0.05785 3.52228,-0.29647 5.35851,-0.2414c6.21685,0.18642 12.44601,0.67045 18.67309,0.47671c0.54543,-0.01697 1.06212,-0.21992 1.60676,-0.24848c5.50618,-0.28872 11.25303,-0.43798 16.7656,-0.47188c3.23142,-0.01988 6.46645,0.11469 9.69456,-0.00202c2.91277,-0.10531 7.21839,-0.64292 9.82417,-0.92105c0.92985,-0.09925 1.85191,-0.3167 2.78991,-0.29563c0.50596,0.01137 1.01052,0.03881 1.51426,0.07606c0,3.2621 0,8.38457 0,11.16338c0,1.19017 -0.86276,1.95042 -2.44116,1.95042c-16.18547,0 -107.62267,0 -115.70212,0c-1.12498,0 -1.90155,-0.65701 -1.90155,-1.70661z" fill="#000000" stroke="#d9d9d9" stroke-width="5" stroke-linecap="butt"/><path d="M251.11871,177.72348c1.5784,0 2.44116,0.76024 2.44116,1.95042c0,2.77881 0,7.90128 0,11.16338c-0.50372,0.03726 -1.0083,0.06469 -1.51426,0.07606c-0.938,0.02108 -1.86006,-0.19638 -2.78991,-0.29563c-2.60578,-0.27813 -6.9114,-0.81574 -9.82417,-0.92105c-3.22811,-0.11671 -6.46314,0.01786 -9.69456,-0.00202c-5.51257,-0.03391 -11.25941,-0.18317 -16.7656,-0.47189c-0.54464,-0.02856 -1.06133,-0.23151 -1.60676,-0.24848c-6.22709,-0.19374 -12.45626,0.29029 -18.67309,0.47671c-1.83623,0.05506 -3.50479,-0.18355 -5.35851,-0.2414c-3.34296,-0.10432 -6.73067,-0.00303 -10.08071,-0.00303c-1.56314,0.01349 -3.07604,-0.24194 -4.6529,-0.2438c-2.28609,-0.00271 -4.5864,0.24566 -6.85804,0.04399c-0.55329,-0.04912 -1.00329,-0.40867 -1.55097,-0.4876c-0.39379,-0.05675 -3.48236,-0.04399 -3.99873,-0.04399c-2.83993,0 -5.71088,0.12782 -8.54485,0.0025c-4.36819,-0.19317 -8.82929,-0.88227 -13.2161,-0.47385c-1.67104,0.15558 -3.27559,0.60208 -4.91567,0.90264c0,-3.23933 0,-7.24499 0,-9.47635c0,-1.0496 0.77657,-1.70661 1.90155,-1.70661c0,0 99.51662,0.00001 115.70211,0.00001z" data-paper-data="{&quot;index&quot;:null}" fill="#000000" stroke="#000000" stroke-width="15" stroke-linecap="butt"/><path d="M251.11871,177.72348c1.5784,0 2.44116,0.76024 2.44116,1.95042c0,2.77881 0,21.79799 0,25.06009c-0.50372,0.03726 -1.0083,-13.83202 -1.51426,-13.82065c-0.938,0.02108 -1.86006,-0.19638 -2.78991,-0.29563c-2.60578,-0.27813 -6.9114,-0.81574 -9.82417,-0.92105c-3.22811,-0.11671 -6.46314,0.01786 -9.69456,-0.00202c-5.51257,-0.03391 -11.25941,-0.18317 -16.7656,-0.47189c-0.54464,-0.02856 -1.06133,-0.23151 -1.60676,-0.24848c-6.22709,-0.19374 -12.45626,0.29029 -18.67309,0.47671c-1.83623,0.05506 -3.50479,-0.18355 -5.35851,-0.2414c-3.34296,-0.10432 -6.73067,-0.00303 -10.08071,-0.00303c-1.56314,0.01349 -3.07604,-0.24194 -4.6529,-0.2438c-2.28609,-0.00271 -4.5864,0.24566 -6.85804,0.04399c-0.55329,-0.04912 -1.00329,-0.40867 -1.55097,-0.4876c-0.39379,-0.05675 -3.48236,-0.04399 -3.99873,-0.04399c-2.83993,0 -5.71088,0.12782 -8.54485,0.0025c-4.36819,-0.19317 -8.82929,-0.88227 -13.2161,-0.47385c-1.67104,0.15558 -3.27559,14.9864 -4.91567,15.28696c0,-3.23933 0,-21.62931 0,-23.86067c0,-1.0496 0.77657,-1.70661 1.90155,-1.70661c0,0 99.51662,0.00001 115.70211,0.00001z" data-paper-data="{&quot;index&quot;:null}" fill="#000000" stroke="#d9d9d9" stroke-width="5" stroke-linecap="butt"/><path d="M232.84627,186.65385c8.07945,0 99.51665,0 115.70212,0c1.5784,0 2.44115,1.74485 2.44115,4.47643c0,6.37768 0,18.13432 0,25.6212c-0.50372,0.08551 -1.0083,0.14848 -1.51425,0.17458c-0.938,0.04837 -1.86006,-0.45071 -2.78991,-0.67849c-2.60577,-0.63833 -6.91141,-1.87221 -9.82417,-2.11391c-3.2281,-0.26785 -6.46314,0.04099 -9.69455,-0.00463c-5.51256,-0.07782 -11.25941,-0.42039 -16.76559,-1.08304c-0.54464,-0.06554 -1.06133,-0.53135 -1.60676,-0.5703c-6.22709,-0.44464 -12.45626,0.66625 -18.6731,1.09411c-1.83623,0.12638 -3.50479,-0.42128 -5.35852,-0.55405c-3.34296,-0.23944 -6.73066,-0.00695 -10.08071,-0.00695c-1.56314,0.03096 -3.07604,-0.55527 -4.6529,-0.55955c-2.28609,-0.00621 -4.5864,0.56381 -6.85804,0.10095c-0.55329,-0.11273 -1.00328,-0.93795 -1.55096,-1.11911c-0.39379,-0.13025 -3.48236,-0.10096 -3.99873,-0.10096c-2.83993,0 -5.71087,0.29339 -8.54485,0.00575c-4.36819,-0.44333 -8.82929,-2.02492 -13.21611,-1.08754c-1.67104,0.35707 -3.27559,1.38185 -4.91567,2.07167c0,-7.43464 0,-16.62806 0,-21.74928c0,-2.40895 0.77658,-3.91687 1.90155,-3.91687z" data-paper-data="{&quot;index&quot;:null}" fill="#000000" stroke="#000000" stroke-width="15" stroke-linecap="butt"/><path d="M232.84627,203.73805c8.07945,0 99.51665,0 115.70212,0c1.5784,0 2.44115,0.76024 2.44115,1.95042c0,2.7788 0,21.798 0,25.06009c-0.50372,0.03726 -1.0083,-13.83202 -1.51425,-13.82065c-0.938,0.02107 -1.86006,-0.19638 -2.78991,-0.29563c-2.60577,-0.27812 -6.91141,-0.81574 -9.82417,-0.92105c-3.2281,-0.11671 -6.46314,0.01786 -9.69455,-0.00202c-5.51256,-0.03391 -11.25941,-0.18317 -16.76559,-0.47189c-0.54464,-0.02856 -1.06133,-0.23151 -1.60676,-0.24848c-6.22709,-0.19374 -12.45626,0.29028 -18.6731,0.47671c-1.83623,0.05507 -3.50479,-0.18356 -5.35852,-0.2414c-3.34296,-0.10433 -6.73066,-0.00302 -10.08071,-0.00302c-1.56314,0.01349 -3.07604,-0.24194 -4.6529,-0.2438c-2.28609,-0.0027 -4.5864,0.24565 -6.85804,0.04399c-0.55329,-0.04912 -1.00328,-0.40867 -1.55096,-0.48761c-0.39379,-0.05675 -3.48236,-0.04399 -3.99873,-0.04399c-2.83993,0 -5.71087,0.12783 -8.54485,0.00251c-4.36819,-0.19317 -8.82929,-0.88227 -13.21611,-0.47385c-1.67104,0.15558 -3.27559,14.9864 -4.91567,15.28696c0,-3.23933 0,-21.62931 0,-23.86067c0,-1.04961 0.77658,-1.70662 1.90155,-1.70662z" data-paper-data="{&quot;index&quot;:null}" fill="#000000" stroke="#d9d9d9" stroke-width="5" stroke-linecap="butt"/><path d="M232.84627,203.73805c8.07945,0 99.51665,0 115.70212,0c1.5784,0 2.44115,0.76024 2.44115,1.95042c0,2.7788 0,19.11617 0,22.37827c-0.50372,0.03726 -1.0083,0.30849 -1.51425,0.31986c-0.938,0.02107 -24.68757,3.83656 -27.94134,3.79342c-1.16054,-0.01539 -88.94915,-4.15045 -90.58923,-3.84989c0,-3.23933 0,-20.6541 0,-22.88546c0,-1.04961 0.77658,-1.70662 1.90155,-1.70662z" data-paper-data="{&quot;index&quot;:null}" fill="#000000" stroke="none" stroke-width="0" stroke-linecap="butt"/><path d="M230.94471,239.12851c0,-2.23136 0,-6.23701 0,-9.47635c1.64008,0.30056 3.24463,0.74707 4.91567,0.90265c4.38682,0.40843 8.84792,-0.28068 13.21611,-0.47385c2.83398,-0.12532 5.70492,0.0025 8.54485,0.0025c0.51636,0 3.60494,0.01276 3.99873,-0.04399c0.54768,-0.07894 0.99767,-0.43849 1.55096,-0.4876c2.27165,-0.20167 4.57196,0.04669 6.85804,0.04399c1.57686,-0.00187 3.08977,-0.25729 4.6529,-0.2438c3.35004,0 6.73774,0.10129 10.0807,-0.00302c1.85373,-0.05785 3.52229,-0.29647 5.35852,-0.24141c6.21684,0.18642 12.44601,0.67045 18.67309,0.47671c0.54543,-0.01697 1.06212,-0.21992 1.60676,-0.24849c5.50619,-0.28872 11.25303,-0.43797 16.7656,-0.47188c3.23142,-0.01988 6.46645,0.11469 9.69456,-0.00202c2.91276,-0.10531 7.21839,-0.64292 9.82417,-0.92104c0.92985,-0.09925 1.85191,-0.3167 2.78991,-0.29563c0.50596,0.01137 1.01052,0.03881 1.51425,0.07606c0,3.26211 0,8.38458 0,11.16338c0,1.19018 -0.86275,1.95042 -2.44116,1.95042c-16.18547,0 -107.62267,0 -115.70212,0c-1.12498,0 -1.90155,-0.65701 -1.90155,-1.70661z" fill="#000000" stroke="#d9d9d9" stroke-width="5" stroke-linecap="butt"/><path d="M350.98955,179.67389c0,2.77881 0,21.79799 0,25.06009c-0.50372,0.03725 -1.0083,-13.83202 -1.51425,-13.82065c-0.938,0.02107 -1.86006,-0.19637 -2.78991,-0.29563c-2.60577,-0.27812 -6.91141,-0.81575 -9.82417,-0.92105c-3.2281,-0.11671 -6.46313,0.01786 -9.69455,-0.00202c-5.51256,-0.03391 -11.25941,-0.18317 -16.76559,-0.47189c-0.54464,-0.02856 -1.06133,-0.23151 -1.60676,-0.24848c-6.22709,-0.19374 -12.45627,0.29029 -18.6731,0.47671c-1.83623,0.05506 -3.50478,-0.18356 -5.35851,-0.24141c-3.34296,-0.10432 -6.73067,-0.00303 -10.08071,-0.00303c-1.56314,0.0135 -3.07604,-0.24193 -4.65289,-0.2438c-2.28609,-0.0027 -4.5864,0.24567 -6.85804,0.04399c-0.55329,-0.04912 -1.00329,-0.40867 -1.55097,-0.48761c-0.39379,-0.05676 -3.48236,-0.04399 -3.99873,-0.04399c-2.83993,0 -5.71088,0.12783 -8.54485,0.00251c-4.36819,-0.19317 -8.82929,-0.88228 -13.21611,-0.47386c-1.67104,0.15558 -3.27559,14.9864 -4.91567,15.28696c0,-3.23934 0,-21.62931 0,-23.86067c0,-1.04961 0.77657,-1.70661 1.90155,-1.70661c0,0 99.51663,0 115.70211,0c0,0 2.44115,0.76026 2.44115,1.95044z" data-paper-data="{&quot;index&quot;:null}" fill="#000000" stroke="#d9d9d9" stroke-width="5" stroke-linecap="butt"/><path d="M232.84627,177.72347c8.07945,0 99.51665,0 115.70212,0c1.5784,0 2.44116,0.76024 2.44116,1.95042c0,2.77881 0,19.11616 0,22.37827c-0.50372,0.03725 -1.0083,0.30849 -1.51425,0.31987c-0.938,0.02107 -24.68758,3.83655 -27.94135,3.79341c-1.16054,-0.01539 -88.94914,-4.15045 -90.58922,-3.84989c0,-3.23934 0,-20.6541 0,-22.88546c0,-1.04961 0.77658,-1.70661 1.90155,-1.70661z" data-paper-data="{&quot;index&quot;:null}" fill="#000000" stroke="none" stroke-width="0" stroke-linecap="butt"/><path d="M230.94471,239.12851c0,-2.23136 0,-9.65024 0,-12.88958c1.64008,0.30056 9.0886,-1.39649 10.24915,-1.41188c3.25377,-0.04314 107.34342,0.35911 108.28142,0.38018c0.50596,0.01137 1.01052,-2.64301 1.51425,-2.60576c0,3.26211 0,13.50441 0,16.28322c0,1.19017 -0.86275,1.95042 -2.44116,1.95042c-16.18547,0 -107.62267,0 -115.70212,0c-1.12498,0 -1.90155,-0.65701 -1.90155,-1.70662z" fill="#000000" stroke="none" stroke-width="0" stroke-linecap="butt"/><path d="M232.84627,195.58423c8.07945,0 99.51665,0 115.70212,0c1.5784,0 2.44116,0.97407 2.44116,2.499c0,3.56041 0,24.49298 0,28.67263c-0.50372,0.04774 -1.0083,0.39527 -1.51425,0.40984c-0.938,0.027 -24.68758,4.91566 -27.94135,4.86039c-1.16054,-0.01971 -88.94914,-5.31786 -90.58922,-4.93276c0,-4.15046 0,-26.4635 0,-29.32247c0,-1.34483 0.77658,-2.18663 1.90155,-2.18663z" data-paper-data="{&quot;index&quot;:null}" fill="#000000" stroke="none" stroke-width="0" stroke-linecap="butt"/><path d="M135.4166,177.72348c8.07945,0 99.51665,0 115.70212,0c1.5784,0 2.44116,0.76024 2.44116,1.95042c0,2.77881 0,19.11617 0,22.37827c-0.50372,0.03726 -1.0083,0.3085 -1.51426,0.31987c-0.938,0.02108 -24.68758,3.83656 -27.94135,3.79341c-1.16054,-0.01539 -88.94914,-4.15045 -90.58922,-3.84989c0,-3.23933 0,-20.6541 0,-22.88546c0,-1.0496 0.77657,-1.70661 1.90155,-1.70661z" data-paper-data="{&quot;index&quot;:null}" fill="#000000" stroke="none" stroke-width="0" stroke-linecap="butt"/><path d="M133.51503,239.12851c0,-2.23136 0,-9.65024 0,-12.88958c1.64008,0.30056 9.0886,-1.39649 10.24915,-1.41187c3.25377,-0.04314 107.34342,0.35911 108.28142,0.38019c0.50596,0.01137 1.01052,-2.64301 1.51426,-2.60576c0,3.2621 0,13.50442 0,16.28322c0,1.19017 -0.86276,1.95042 -2.44116,1.95042c-16.18547,0 -107.62267,0 -115.70212,0c-1.12498,0 -1.90155,-0.65701 -1.90155,-1.70661z" fill="#000000" stroke="none" stroke-width="0" stroke-linecap="butt"/><path d="M135.4166,195.58423c8.07945,0 99.51665,0 115.70212,0c1.5784,0 2.44116,0.76024 2.44116,1.95042c0,2.77881 0,19.11617 0,22.37827c-0.50372,0.03726 -1.0083,0.3085 -1.51426,0.31987c-0.938,0.02108 -24.68758,3.83656 -27.94135,3.79341c-1.16054,-0.01539 -88.94914,-4.15045 -90.58922,-3.84989c0,-3.23933 0,-20.6541 0,-22.88546c0,-1.0496 0.77657,-1.70661 1.90155,-1.70661z" data-paper-data="{&quot;index&quot;:null}" fill="#000000" stroke="none" stroke-width="0" stroke-linecap="butt"/><path d="M337.14496,225.1095v-4.5h4.45311v4.5z" fill="#000000" stroke="#000000" stroke-width="15" stroke-linecap="butt"/><path d="M213.73024,227.6095v-7h21.62938v7z" fill="#000000" stroke="#000000" stroke-width="15" stroke-linecap="butt"/><path d="M214.28131,190.28437c0,0.38294 0.1666,0.72112 0.4998,1.01454c0.33817,0.28844 1.19358,0.59678 2.56618,0.92502c1.37758,0.32824 2.39957,0.67387 3.06599,1.03692c0.66641,0.35807 1.14633,0.83053 1.43975,1.41736c0.29839,0.58187 0.44759,1.19358 0.44759,1.83513c0,1.27314 -0.48489,2.31504 -1.45467,3.12567c-0.9648,0.80566 -2.28271,1.20849 -3.95371,1.20849c-1.83014,0 -3.19778,-0.43764 -4.10291,-1.31293c-0.90512,-0.87529 -1.35769,-1.7829 -1.35769,-2.72284c0,-0.31332 0.11687,-0.59182 0.35061,-0.83551c0.23374,-0.24369 0.53711,-0.36553 0.9101,-0.36553c0.34315,0 0.59679,0.10195 0.7609,0.30585c0.16909,0.2039 0.37299,0.58187 0.6117,1.1339c0.50727,1.17865 1.41737,1.76798 2.7303,1.76798c0.78578,0 1.44721,-0.17904 1.98431,-0.53711c0.53711,-0.36305 0.80566,-0.8529 0.80566,-1.46958c0,-0.47744 -0.18649,-0.88773 -0.55949,-1.23088c-0.36802,-0.34315 -1.21595,-0.6689 -2.5438,-0.97724c-1.32785,-0.30834 -2.26033,-0.60176 -2.79744,-0.88026c-0.53214,-0.2785 -0.99714,-0.68133 -1.39499,-1.20849c-0.39786,-0.53214 -0.59678,-1.19109 -0.59678,-1.97686c0,-1.16373 0.46002,-2.09124 1.38007,-2.78252c0.92004,-0.69625 2.1733,-1.04438 3.75976,-1.04438c1.6163,0 2.83474,0.37051 3.65532,1.11151c0.82058,0.74101 1.23087,1.48451 1.23087,2.23049c0,0.30834 -0.11936,0.59927 -0.35807,0.8728c-0.23374,0.27353 -0.53462,0.41029 -0.90264,0.41029c-0.33321,0 -0.58684,-0.09449 -0.7609,-0.28347c-0.17407,-0.18898 -0.3705,-0.50727 -0.58933,-0.95486c-0.47246,-0.94492 -1.28558,-1.41736 -2.43937,-1.41736c-0.67138,0 -1.23834,0.1467 -1.70084,0.44013c-0.45754,0.28844 -0.68631,0.67636 -0.68631,1.16373zM228.92125,190.50071c1.57651,0 2.81733,0.48738 3.72246,1.46213c0.90512,0.96978 1.35769,2.20562 1.35769,3.70754c0,1.51186 -0.46002,2.75268 -1.38007,3.72246c-0.91507,0.96978 -2.12854,1.45467 -3.6404,1.45467c-1.64116,0 -2.90684,-0.48986 -3.79705,-1.46958c-0.89021,-0.9847 -1.33531,-2.22055 -1.33531,-3.70755c0,-1.50689 0.45007,-2.74522 1.35023,-3.715c0.90512,-0.96978 2.14594,-1.45467 3.72246,-1.45467zM228.92125,198.95271c0.77085,0 1.38007,-0.28844 1.82766,-0.86534c0.45256,-0.58187 0.67885,-1.38753 0.67885,-2.41699c0,-1.02946 -0.22629,-1.83512 -0.67885,-2.41699c-0.44759,-0.58187 -1.05681,-0.8728 -1.82766,-0.8728c-0.7609,0 -1.36763,0.29342 -1.8202,0.88026c-0.45256,0.58187 -0.67885,1.38504 -0.67885,2.40953c0,1.03444 0.2238,1.84009 0.67138,2.41699c0.45256,0.5769 1.06178,0.86534 1.82766,0.86534zM235.92788,197.06538v-4.46845c0,-0.55203 0.02238,-0.94989 0.06714,-1.19358c0.04476,-0.24866 0.17655,-0.46002 0.39537,-0.63409c0.2238,-0.17904 0.48986,-0.26856 0.7982,-0.26856c0.29839,0 0.55949,0.08454 0.78328,0.25364c0.22877,0.16412 0.37051,0.38294 0.42522,0.65646c0.05471,0.27353 0.08206,0.68631 0.08206,1.23833v3.49866c0,1.14882 0.17655,1.88486 0.52965,2.20812c0.35807,0.32326 0.75344,0.48489 1.18611,0.48489c0.48738,0 0.91507,-0.13676 1.28309,-0.41029c0.37299,-0.2785 0.62663,-0.61171 0.7609,-0.99962c0.13427,-0.38791 0.20141,-1.15379 0.20141,-2.29763v-2.53635c0,-0.54208 0.02487,-0.94243 0.0746,-1.20104c0.05471,-0.25861 0.19395,-0.47245 0.41775,-0.64155c0.2238,-0.16909 0.48738,-0.25364 0.79075,-0.25364c0.29342,0 0.55203,0.08454 0.77582,0.25364c0.22877,0.16412 0.36553,0.37299 0.41029,0.62662c0.04973,0.24866 0.0746,0.65398 0.0746,1.21595v6.28119c0,0.51722 -0.02487,0.8927 -0.0746,1.12644c-0.04973,0.22877 -0.17407,0.4277 -0.37299,0.59678c-0.19395,0.16412 -0.44013,0.24617 -0.73853,0.24617c-0.82058,0 -1.21346,-0.58684 -1.17865,-1.76053c-0.85539,1.17368 -1.97934,1.76053 -3.37184,1.76053c-0.92004,0 -1.70334,-0.27353 -2.34985,-0.82058c-0.64651,-0.55203 -0.96978,-1.53921 -0.96978,-2.96155zM256.51887,194.56632v4.17751c0,0.53711 -0.02238,0.92999 -0.06714,1.17865c-0.03978,0.24369 -0.17158,0.46002 -0.39537,0.649c-0.2238,0.18401 -0.48986,0.27602 -0.7982,0.27602c-0.27353,0 -0.52965,-0.08206 -0.76836,-0.24617c-0.23374,-0.16412 -0.37797,-0.37797 -0.43267,-0.64155c-0.05471,-0.26358 -0.08205,-0.6689 -0.08205,-1.21595v-3.67025c0,-1.01951 -0.15417,-1.70582 -0.46251,-2.05891c-0.30337,-0.3531 -0.72111,-0.52965 -1.25325,-0.52965c-0.48738,0 -0.91507,0.13925 -1.28309,0.41775c-0.36305,0.2785 -0.61917,0.62912 -0.76837,1.05184c-0.1492,0.41775 -0.2238,1.13638 -0.2238,2.15589v2.63333c0,0.53214 -0.0199,0.92004 -0.05968,1.16373c-0.03978,0.24369 -0.17655,0.46251 -0.41029,0.65646c-0.22877,0.18898 -0.49235,0.28347 -0.79075,0.28347c-0.2785,0 -0.53711,-0.08454 -0.77582,-0.25364c-0.23374,-0.17407 -0.37548,-0.38791 -0.42521,-0.64155c-0.04973,-0.25364 -0.0746,-0.65646 -0.0746,-1.20849v-6.28119c0,-0.56197 0.02487,-0.95486 0.0746,-1.17866c0.05471,-0.2238 0.18898,-0.41029 0.40283,-0.55949c0.21385,-0.1492 0.45504,-0.2238 0.7236,-0.2238c0.24866,0 0.50727,0.09698 0.77582,0.29093c0.27353,0.19395 0.41029,0.6689 0.41029,1.42482c0.85042,-1.14385 1.94453,-1.71577 3.28233,-1.71577c0.50727,0 1.00956,0.09698 1.50689,0.29093c0.49732,0.18898 0.90264,0.4998 1.21595,0.93248c0.31829,0.43267 0.50975,0.88026 0.57441,1.34277c0.06963,0.46251 0.10444,0.96232 0.10444,1.49943zM266.03207,199.39284v-0.25363c-0.87529,1.13887 -1.98431,1.7083 -3.32709,1.7083c-1.30299,0 -2.33741,-0.49235 -3.10329,-1.47705c-0.76587,-0.98967 -1.14882,-2.26779 -1.14882,-3.83436c0,-1.48202 0.373,-2.69052 1.11897,-3.62548c0.75095,-0.93994 1.78787,-1.40991 3.11075,-1.40991c1.28806,0 2.40455,0.51722 3.34947,1.55165v-3.29725c0,-0.91507 0.11438,-1.48451 0.34315,-1.70831c0.22877,-0.2238 0.53959,-0.33569 0.93248,-0.33569c0.27353,0 0.52468,0.07957 0.75344,0.23871c0.23374,0.15915 0.37548,0.36553 0.42521,0.61917c0.05471,0.25364 0.08206,0.67387 0.08206,1.26071v10.03348c0,0.56695 -0.02984,0.97227 -0.08951,1.21595c-0.05968,0.23871 -0.2039,0.42521 -0.43267,0.55949c-0.22877,0.13924 -0.47992,0.20888 -0.75344,0.20888c-0.84048,0 -1.26071,-0.48489 -1.26071,-1.45467zM261.02648,195.6107c0,1.14385 0.23871,1.97935 0.71614,2.50651c0.4824,0.52219 1.03195,0.78328 1.64863,0.78328c0.72112,0 1.3179,-0.27353 1.79036,-0.82058c0.47246,-0.54705 0.70868,-1.31293 0.70868,-2.29763c0,-1.02449 -0.23125,-1.84009 -0.69376,-2.44682c-0.45754,-0.61171 -1.06426,-0.91756 -1.8202,-0.91756c-0.69128,0 -1.25574,0.28347 -1.69339,0.85042c-0.43764,0.56695 -0.65646,1.34775 -0.65646,2.34239z" fill="#d9d9d9" stroke="none" stroke-width="1" stroke-linecap="square"/><path d="M118.50003,180.9793v-79h243v79h-5.25c0,0 30.88515,-18.6722 -136.5,-14c-117.03833,3.26688 -93.5,14 -93.5,14z" fill="#000000" stroke="none" stroke-width="0" stroke-linecap="butt"/><path d="M230.94471,162.1285c0,-2.23136 0,-16.7205 0,-19.95984c0.67339,0.1234 1.3408,10.7549 2.00927,10.89727c0.95963,0.20439 1.92147,0.39715 2.9064,0.48886c4.38682,0.40843 8.84791,-0.28068 13.2161,-0.47385c2.83398,-0.12532 5.70492,0.0025 8.54485,0.0025c0.51636,0 3.60493,0.01276 3.99873,-0.04399c0.54768,-0.07894 0.99767,-0.43849 1.55096,-0.4876c2.27165,-0.20167 4.57196,0.04669 6.85804,0.04399c1.57686,-0.00187 3.08977,-0.25729 4.6529,-0.2438c3.35004,0 6.73774,0.10129 10.0807,-0.00302c1.85373,-0.05785 3.52229,-0.29647 5.35852,-0.24141c6.21684,0.18642 12.44601,0.67045 18.6731,0.47671c0.54543,-0.01697 1.06211,-0.21992 1.60676,-0.24849c5.50619,-0.28872 11.25303,-0.43797 16.7656,-0.47188c3.23142,-0.01988 6.46645,0.11469 9.69456,-0.00202c2.91276,-0.10531 7.21839,-0.64292 9.82417,-0.92104c0.92985,-0.09925 1.85191,-0.8043 2.78991,-0.78323c0.50596,0.01137 1.01052,-7.76286 1.51425,-7.7256c0,3.26211 0,16.67385 0,19.45265c0,1.19018 -0.86275,1.95042 -2.44116,1.95042c-16.18547,0 -107.62267,0 -115.70212,0c-1.12498,0 -1.90155,-0.65701 -1.90155,-1.70662z" fill="#000000" stroke="#000000" stroke-width="5" stroke-linecap="butt"/><path d="M350.98955,102.67389c0,2.77881 0,7.90127 0,11.16338c-0.50372,0.03725 -1.0083,0.0647 -1.51425,0.07606c-0.938,0.02107 -1.86006,-0.19637 -2.78991,-0.29563c-2.60577,-0.27812 -6.91141,-0.81575 -9.82417,-0.92105c-3.2281,-0.11671 -6.46313,0.01786 -9.69455,-0.00202c-5.51256,-0.03391 -11.25941,-0.18317 -16.76559,-0.47189c-0.54464,-0.02856 -1.06133,-0.23151 -1.60676,-0.24848c-6.22709,-0.19374 -12.45627,0.29029 -18.6731,0.47671c-1.83623,0.05506 -3.50478,-0.18356 -5.35851,-0.24141c-3.34296,-0.10432 -6.73067,-0.00303 -10.08071,-0.00303c-1.56314,0.0135 -3.07604,-0.24193 -4.65289,-0.2438c-2.28609,-0.0027 -4.5864,0.24567 -6.85804,0.04399c-0.55329,-0.04912 -1.00329,-0.40867 -1.55097,-0.48761c-0.39379,-0.05676 -3.48236,-0.04399 -3.99873,-0.04399c-2.83993,0 -5.71088,0.12783 -8.54485,0.00251c-4.36819,-0.19317 -8.82929,-0.88228 -13.21611,-0.47386c-1.67104,0.15558 -3.27559,0.60209 -4.91567,0.90265c0,-3.23934 0,-7.245 0,-9.47636c0,-1.04961 0.77657,-1.70661 1.90155,-1.70661c0,0 99.51663,0 115.70211,0c0,0 2.44115,0.76026 2.44115,1.95044z" data-paper-data="{&quot;index&quot;:null}" fill="#000000" stroke="#000000" stroke-width="5" stroke-linecap="butt"/><path d="M133.51503,162.1285c0,-2.23136 0,-16.7205 0,-19.95984c0.67339,0.12341 1.34079,10.7549 2.00927,10.89728c0.95963,0.20439 1.92147,0.39715 2.90639,0.48885c4.38682,0.40842 8.84792,-0.28069 13.2161,-0.47385c2.83397,-0.12532 5.70492,0.0025 8.54485,0.0025c0.51637,0 3.60493,0.01276 3.99873,-0.04399c0.54768,-0.07893 0.99767,-0.43849 1.55097,-0.4876c2.27165,-0.20167 4.57196,0.04669 6.85804,0.04399c1.57686,-0.00186 3.08977,-0.2573 4.6529,-0.2438c3.35004,0 6.73774,0.1013 10.08071,-0.00302c1.85374,-0.05785 3.52228,-0.29647 5.35851,-0.2414c6.21685,0.18642 12.44601,0.67045 18.67309,0.47671c0.54543,-0.01697 1.06212,-0.21992 1.60676,-0.24848c5.50618,-0.28872 11.25303,-0.43798 16.7656,-0.47188c3.23142,-0.01988 6.46645,0.11469 9.69456,-0.00202c2.91277,-0.10531 7.21839,-0.64292 9.82417,-0.92105c0.92985,-0.09925 1.85191,-0.8043 2.78991,-0.78323c0.50596,0.01137 1.01052,-7.76285 1.51426,-7.7256c0,3.2621 0,16.67384 0,19.45265c0,1.19017 -0.86276,1.95042 -2.44116,1.95042c-16.18547,0 -107.62267,0 -115.70212,0c-1.12498,0 -1.90155,-0.65701 -1.90155,-1.70661z" fill="#000000" stroke="#000000" stroke-width="5" stroke-linecap="butt"/><path d="M135.4166,109.65385c8.07945,0 99.51665,0 115.70212,0c1.5784,0 2.44116,1.74484 2.44116,4.47643c0,6.37767 0,18.13432 0,25.62121c-0.50372,0.08551 -1.0083,0.14848 -1.51426,0.17457c-0.938,0.04837 -1.86006,-0.45071 -2.78991,-0.6785c-2.60578,-0.63833 -6.9114,-1.87221 -9.82417,-2.11391c-3.22811,-0.26786 -6.46314,0.04099 -9.69456,-0.00463c-5.51257,-0.07782 -11.25941,-0.42039 -16.7656,-1.08304c-0.54464,-0.06555 -1.06133,-0.53135 -1.60676,-0.57029c-6.22709,-0.44464 -12.45626,0.66624 -18.67311,1.09411c-1.83623,0.12638 -3.50479,-0.42128 -5.35851,-0.55406c-3.34296,-0.23944 -6.73067,-0.00694 -10.08071,-0.00694c-1.56314,0.03096 -3.07604,-0.55527 -4.6529,-0.55955c-2.28609,-0.00621 -4.5864,0.56381 -6.85804,0.10096c-0.55329,-0.11274 -1.00329,-0.93795 -1.55097,-1.11911c-0.39379,-0.13025 -3.48236,-0.10096 -3.99873,-0.10096c-2.83993,0 -5.71087,0.29338 -8.54485,0.00575c-4.36819,-0.44333 -8.82929,-2.02492 -13.2161,-1.08755c-1.67104,0.35707 -3.27559,1.38185 -4.91567,2.07167c0,-7.43464 0,-16.62806 0,-21.74928c0,-2.40896 0.77657,-3.91687 1.90155,-3.91687z" data-paper-data="{&quot;index&quot;:null}" fill="#000000" stroke="#000000" stroke-width="5" stroke-linecap="butt"/><path d="M135.4166,126.73804c8.07945,0 99.51665,0 115.70212,0c1.5784,0 2.44116,0.76024 2.44116,1.95042c0,2.77881 0,21.79799 0,25.06009c-0.50372,0.03726 -1.0083,-13.83202 -1.51426,-13.82065c-0.938,0.02108 -1.86006,-0.19638 -2.78991,-0.29563c-2.60578,-0.27813 -6.9114,-0.81574 -9.82417,-0.92105c-3.22811,-0.11671 -6.46314,0.01786 -9.69456,-0.00202c-5.51257,-0.03391 -11.25941,-0.18317 -16.7656,-0.47189c-0.54464,-0.02856 -1.06133,-0.23151 -1.60676,-0.24848c-6.22709,-0.19373 -12.45626,0.29029 -18.67311,0.47671c-1.83623,0.05507 -3.50479,-0.18356 -5.35851,-0.24141c-3.34296,-0.10433 -6.73067,-0.00302 -10.08071,-0.00302c-1.56314,0.01349 -3.07604,-0.24194 -4.6529,-0.2438c-2.28609,-0.00271 -4.5864,0.24566 -6.85804,0.04399c-0.55329,-0.04912 -1.00329,-0.40867 -1.55097,-0.48761c-0.39379,-0.05675 -3.48236,-0.04399 -3.99873,-0.04399c-2.83993,0 -5.71087,0.12783 -8.54485,0.0025c-4.36819,-0.19316 -8.82929,-0.88227 -13.2161,-0.47385c-1.67104,0.15558 -3.27559,14.9864 -4.91567,15.28696c0,-3.23933 0,-21.62931 0,-23.86067c0,-1.0496 0.77657,-1.70661 1.90155,-1.70661z" data-paper-data="{&quot;index&quot;:null}" fill="#000000" stroke="#d9d9d9" stroke-width="5" stroke-linecap="butt"/><path d="M135.4166,126.73804c8.07945,0 99.51665,0 115.70212,0c1.5784,0 2.44116,0.76024 2.44116,1.95042c0,2.77881 0,19.11617 0,22.37827c-0.50372,0.03726 -1.0083,0.3085 -1.51426,0.31987c-0.938,0.02108 -24.68758,3.83656 -27.94135,3.79341c-1.16054,-0.01539 -88.94914,-4.15045 -90.58922,-3.84989c0,-3.23933 0,-20.6541 0,-22.88546c0,-1.0496 0.77657,-1.70661 1.90155,-1.70661z" data-paper-data="{&quot;index&quot;:null}" fill="#000000" stroke="none" stroke-width="5" stroke-linecap="butt"/><path d="M133.51503,162.1285c0,-2.23136 0,-6.23701 0,-9.47635c1.64008,0.30056 3.24464,0.74706 4.91567,0.90264c4.38682,0.40842 8.84792,-0.28069 13.2161,-0.47385c2.83397,-0.12532 5.70492,0.0025 8.54485,0.0025c0.51637,0 3.60493,0.01276 3.99873,-0.04399c0.54768,-0.07893 0.99767,-0.43849 1.55097,-0.4876c2.27165,-0.20167 4.57196,0.04669 6.85804,0.04399c1.57686,-0.00186 3.08977,-0.2573 4.6529,-0.2438c3.35004,0 6.73774,0.1013 10.08071,-0.00302c1.85374,-0.05785 3.52228,-0.29647 5.35851,-0.2414c6.21685,0.18642 12.44601,0.67045 18.67309,0.47671c0.54543,-0.01697 1.06212,-0.21992 1.60676,-0.24848c5.50618,-0.28872 11.25303,-0.43798 16.7656,-0.47188c3.23142,-0.01988 6.46645,0.11469 9.69456,-0.00202c2.91277,-0.10531 7.21839,-0.64292 9.82417,-0.92105c0.92985,-0.09925 1.85191,-0.3167 2.78991,-0.29563c0.50596,0.01137 1.01052,0.03881 1.51426,0.07606c0,3.2621 0,8.38457 0,11.16338c0,1.19017 -0.86276,1.95042 -2.44116,1.95042c-16.18547,0 -107.62267,0 -115.70212,0c-1.12498,0 -1.90155,-0.65701 -1.90155,-1.70661z" fill="#000000" stroke="#d9d9d9" stroke-width="5" stroke-linecap="butt"/><path d="M251.11871,100.72348c1.5784,0 2.44116,0.76024 2.44116,1.95042c0,2.77881 0,7.90128 0,11.16338c-0.50372,0.03726 -1.0083,0.06469 -1.51426,0.07606c-0.938,0.02108 -1.86006,-0.19638 -2.78991,-0.29563c-2.60578,-0.27813 -6.9114,-0.81574 -9.82417,-0.92105c-3.22811,-0.11671 -6.46314,0.01786 -9.69456,-0.00202c-5.51257,-0.03391 -11.25941,-0.18317 -16.7656,-0.47189c-0.54464,-0.02856 -1.06133,-0.23151 -1.60676,-0.24848c-6.22709,-0.19374 -12.45626,0.29029 -18.67309,0.47671c-1.83623,0.05506 -3.50479,-0.18355 -5.35851,-0.2414c-3.34296,-0.10432 -6.73067,-0.00303 -10.08071,-0.00303c-1.56314,0.01349 -3.07604,-0.24194 -4.6529,-0.2438c-2.28609,-0.00271 -4.5864,0.24566 -6.85804,0.04399c-0.55329,-0.04912 -1.00329,-0.40867 -1.55097,-0.4876c-0.39379,-0.05675 -3.48236,-0.04399 -3.99873,-0.04399c-2.83993,0 -5.71088,0.12782 -8.54485,0.0025c-4.36819,-0.19317 -8.82929,-0.88227 -13.2161,-0.47385c-1.67104,0.15558 -3.27559,0.60208 -4.91567,0.90264c0,-3.23933 0,-7.24499 0,-9.47635c0,-1.0496 0.77657,-1.70661 1.90155,-1.70661c0,0 99.51662,0.00001 115.70211,0.00001z" data-paper-data="{&quot;index&quot;:null}" fill="#000000" stroke="#000000" stroke-width="5" stroke-linecap="butt"/><path d="M251.11871,100.72348c1.5784,0 2.44116,0.76024 2.44116,1.95042c0,2.77881 0,21.79799 0,25.06009c-0.50372,0.03726 -1.0083,-13.83202 -1.51426,-13.82065c-0.938,0.02108 -1.86006,-0.19638 -2.78991,-0.29563c-2.60578,-0.27813 -6.9114,-0.81574 -9.82417,-0.92105c-3.22811,-0.11671 -6.46314,0.01786 -9.69456,-0.00202c-5.51257,-0.03391 -11.25941,-0.18317 -16.7656,-0.47189c-0.54464,-0.02856 -1.06133,-0.23151 -1.60676,-0.24848c-6.22709,-0.19374 -12.45626,0.29029 -18.67309,0.47671c-1.83623,0.05506 -3.50479,-0.18355 -5.35851,-0.2414c-3.34296,-0.10432 -6.73067,-0.00303 -10.08071,-0.00303c-1.56314,0.01349 -3.07604,-0.24194 -4.6529,-0.2438c-2.28609,-0.00271 -4.5864,0.24566 -6.85804,0.04399c-0.55329,-0.04912 -1.00329,-0.40867 -1.55097,-0.4876c-0.39379,-0.05675 -3.48236,-0.04399 -3.99873,-0.04399c-2.83993,0 -5.71088,0.12782 -8.54485,0.0025c-4.36819,-0.19317 -8.82929,-0.88227 -13.2161,-0.47385c-1.67104,0.15558 -3.27559,14.9864 -4.91567,15.28696c0,-3.23933 0,-21.62931 0,-23.86067c0,-1.0496 0.77657,-1.70661 1.90155,-1.70661c0,0 99.51662,0.00001 115.70211,0.00001z" data-paper-data="{&quot;index&quot;:null}" fill="#000000" stroke="#d9d9d9" stroke-width="5" stroke-linecap="butt"/><path d="M232.84627,109.65385c8.07945,0 99.51665,0 115.70212,0c1.5784,0 2.44115,1.74485 2.44115,4.47643c0,6.37768 0,18.13432 0,25.6212c-0.50372,0.08551 -1.0083,0.14848 -1.51425,0.17458c-0.938,0.04837 -1.86006,-0.45071 -2.78991,-0.67849c-2.60577,-0.63833 -6.91141,-1.87221 -9.82417,-2.11391c-3.2281,-0.26785 -6.46314,0.04099 -9.69455,-0.00463c-5.51256,-0.07782 -11.25941,-0.42039 -16.76559,-1.08304c-0.54464,-0.06554 -1.06133,-0.53135 -1.60676,-0.5703c-6.22709,-0.44464 -12.45626,0.66625 -18.6731,1.09411c-1.83623,0.12638 -3.50479,-0.42128 -5.35852,-0.55405c-3.34296,-0.23944 -6.73066,-0.00695 -10.08071,-0.00695c-1.56314,0.03096 -3.07604,-0.55527 -4.6529,-0.55955c-2.28609,-0.00621 -4.5864,0.56381 -6.85804,0.10095c-0.55329,-0.11273 -1.00328,-0.93795 -1.55096,-1.11911c-0.39379,-0.13025 -3.48236,-0.10096 -3.99873,-0.10096c-2.83993,0 -5.71087,0.29339 -8.54485,0.00575c-4.36819,-0.44333 -8.82929,-2.02492 -13.21611,-1.08754c-1.67104,0.35707 -3.27559,1.38185 -4.91567,2.07167c0,-7.43464 0,-16.62806 0,-21.74928c0,-2.40895 0.77658,-3.91687 1.90155,-3.91687z" data-paper-data="{&quot;index&quot;:null}" fill="#000000" stroke="#000000" stroke-width="5" stroke-linecap="butt"/><path d="M232.84627,126.73804c8.07945,0 99.51665,0 115.70212,0c1.5784,0 2.44115,0.76024 2.44115,1.95042c0,2.7788 0,21.798 0,25.06009c-0.50372,0.03726 -1.0083,-13.83202 -1.51425,-13.82065c-0.938,0.02107 -1.86006,-0.19638 -2.78991,-0.29563c-2.60577,-0.27812 -6.91141,-0.81574 -9.82417,-0.92105c-3.2281,-0.11671 -6.46314,0.01786 -9.69455,-0.00202c-5.51256,-0.03391 -11.25941,-0.18317 -16.76559,-0.47189c-0.54464,-0.02856 -1.06133,-0.23151 -1.60676,-0.24848c-6.22709,-0.19374 -12.45626,0.29028 -18.6731,0.47671c-1.83623,0.05507 -3.50479,-0.18356 -5.35852,-0.2414c-3.34296,-0.10433 -6.73066,-0.00302 -10.08071,-0.00302c-1.56314,0.01349 -3.07604,-0.24194 -4.6529,-0.2438c-2.28609,-0.0027 -4.5864,0.24565 -6.85804,0.04399c-0.55329,-0.04912 -1.00328,-0.40867 -1.55096,-0.48761c-0.39379,-0.05675 -3.48236,-0.04399 -3.99873,-0.04399c-2.83993,0 -5.71087,0.12783 -8.54485,0.00251c-4.36819,-0.19317 -8.82929,-0.88227 -13.21611,-0.47385c-1.67104,0.15558 -3.27559,14.9864 -4.91567,15.28696c0,-3.23933 0,-21.62931 0,-23.86067c0,-1.04961 0.77658,-1.70662 1.90155,-1.70662z" data-paper-data="{&quot;index&quot;:null}" fill="#000000" stroke="#d9d9d9" stroke-width="5" stroke-linecap="butt"/><path d="M232.84627,126.73804c8.07945,0 99.51665,0 115.70212,0c1.5784,0 2.44115,0.76024 2.44115,1.95042c0,2.7788 0,19.11617 0,22.37827c-0.50372,0.03726 -1.0083,0.30849 -1.51425,0.31986c-0.938,0.02107 -24.68757,3.83656 -27.94134,3.79342c-1.16054,-0.01539 -88.94915,-4.15045 -90.58923,-3.84989c0,-3.23933 0,-20.6541 0,-22.88546c0,-1.04961 0.77658,-1.70662 1.90155,-1.70662z" data-paper-data="{&quot;index&quot;:null}" fill="#000000" stroke="none" stroke-width="5" stroke-linecap="butt"/><path d="M230.94471,162.1285c0,-2.23136 0,-6.23701 0,-9.47635c1.64008,0.30056 3.24463,0.74707 4.91567,0.90265c4.38682,0.40843 8.84792,-0.28068 13.21611,-0.47385c2.83398,-0.12532 5.70492,0.0025 8.54485,0.0025c0.51636,0 3.60494,0.01276 3.99873,-0.04399c0.54768,-0.07894 0.99767,-0.43849 1.55096,-0.4876c2.27165,-0.20167 4.57196,0.04669 6.85804,0.04399c1.57686,-0.00187 3.08977,-0.25729 4.6529,-0.2438c3.35004,0 6.73774,0.10129 10.0807,-0.00302c1.85373,-0.05785 3.52229,-0.29647 5.35852,-0.24141c6.21684,0.18642 12.44601,0.67045 18.67309,0.47671c0.54543,-0.01697 1.06212,-0.21992 1.60676,-0.24849c5.50619,-0.28872 11.25303,-0.43797 16.7656,-0.47188c3.23142,-0.01988 6.46645,0.11469 9.69456,-0.00202c2.91276,-0.10531 7.21839,-0.64292 9.82417,-0.92104c0.92985,-0.09925 1.85191,-0.3167 2.78991,-0.29563c0.50596,0.01137 1.01052,0.03881 1.51425,0.07606c0,3.26211 0,8.38458 0,11.16338c0,1.19018 -0.86275,1.95042 -2.44116,1.95042c-16.18547,0 -107.62267,0 -115.70212,0c-1.12498,0 -1.90155,-0.65701 -1.90155,-1.70661z" fill="#000000" stroke="#d9d9d9" stroke-width="5" stroke-linecap="butt"/><path d="M350.98955,102.67389c0,2.77881 0,21.79799 0,25.06009c-0.50372,0.03725 -1.0083,-13.83202 -1.51425,-13.82065c-0.938,0.02107 -1.86006,-0.19637 -2.78991,-0.29563c-2.60577,-0.27812 -6.91141,-0.81575 -9.82417,-0.92105c-3.2281,-0.11671 -6.46313,0.01786 -9.69455,-0.00202c-5.51256,-0.03391 -11.25941,-0.18317 -16.76559,-0.47189c-0.54464,-0.02856 -1.06133,-0.23151 -1.60676,-0.24848c-6.22709,-0.19374 -12.45627,0.29029 -18.6731,0.47671c-1.83623,0.05506 -3.50478,-0.18356 -5.35851,-0.24141c-3.34296,-0.10432 -6.73067,-0.00303 -10.08071,-0.00303c-1.56314,0.0135 -3.07604,-0.24193 -4.65289,-0.2438c-2.28609,-0.0027 -4.5864,0.24567 -6.85804,0.04399c-0.55329,-0.04912 -1.00329,-0.40867 -1.55097,-0.48761c-0.39379,-0.05676 -3.48236,-0.04399 -3.99873,-0.04399c-2.83993,0 -5.71088,0.12783 -8.54485,0.00251c-4.36819,-0.19317 -8.82929,-0.88228 -13.21611,-0.47386c-1.67104,0.15558 -3.27559,14.9864 -4.91567,15.28696c0,-3.23934 0,-21.62931 0,-23.86067c0,-1.04961 0.77657,-1.70661 1.90155,-1.70661c0,0 99.51663,0 115.70211,0c0,0 2.44115,0.76026 2.44115,1.95044z" data-paper-data="{&quot;index&quot;:null}" fill="#000000" stroke="#d9d9d9" stroke-width="5" stroke-linecap="butt"/><path d="M232.84627,100.72347c8.07945,0 99.51665,0 115.70212,0c1.5784,0 2.44116,0.76024 2.44116,1.95042c0,2.77881 0,19.11616 0,22.37827c-0.50372,0.03725 -1.0083,0.30849 -1.51425,0.31987c-0.938,0.02107 -24.68758,3.83655 -27.94135,3.79341c-1.16054,-0.01539 -88.94914,-4.15045 -90.58922,-3.84989c0,-3.23934 0,-20.6541 0,-22.88546c0,-1.04961 0.77658,-1.70661 1.90155,-1.70661z" data-paper-data="{&quot;index&quot;:null}" fill="#000000" stroke="none" stroke-width="5" stroke-linecap="butt"/><path d="M230.94471,162.1285c0,-2.23136 0,-9.65024 0,-12.88958c1.64008,0.30056 9.0886,-1.39649 10.24915,-1.41188c3.25377,-0.04314 107.34342,0.35911 108.28142,0.38018c0.50596,0.01137 1.01052,-2.64301 1.51425,-2.60576c0,3.26211 0,13.50441 0,16.28322c0,1.19017 -0.86275,1.95042 -2.44116,1.95042c-16.18547,0 -107.62267,0 -115.70212,0c-1.12498,0 -1.90155,-0.65701 -1.90155,-1.70662z" fill="#000000" stroke="none" stroke-width="5" stroke-linecap="butt"/><path d="M232.84627,118.58423c8.07945,0 99.51665,0 115.70212,0c1.5784,0 2.44116,0.97407 2.44116,2.499c0,3.56041 0,24.49298 0,28.67263c-0.50372,0.04774 -1.0083,0.39527 -1.51425,0.40984c-0.938,0.027 -24.68758,4.91566 -27.94135,4.86039c-1.16054,-0.01971 -88.94914,-5.31786 -90.58922,-4.93276c0,-4.15046 0,-26.4635 0,-29.32247c0,-1.34483 0.77658,-2.18663 1.90155,-2.18663z" data-paper-data="{&quot;index&quot;:null}" fill="#000000" stroke="none" stroke-width="5" stroke-linecap="butt"/><path d="M135.4166,100.72348c8.07945,0 99.51665,0 115.70212,0c1.5784,0 2.44116,0.76024 2.44116,1.95042c0,2.77881 0,19.11617 0,22.37827c-0.50372,0.03726 -1.0083,0.3085 -1.51426,0.31987c-0.938,0.02108 -24.68758,3.83656 -27.94135,3.79341c-1.16054,-0.01539 -88.94914,-4.15045 -90.58922,-3.84989c0,-3.23933 0,-20.6541 0,-22.88546c0,-1.0496 0.77657,-1.70661 1.90155,-1.70661z" data-paper-data="{&quot;index&quot;:null}" fill="#000000" stroke="none" stroke-width="5" stroke-linecap="butt"/><path d="M133.51503,162.1285c0,-2.23136 0,-9.65024 0,-12.88958c1.64008,0.30056 9.0886,-1.39649 10.24915,-1.41187c3.25377,-0.04314 107.34342,0.35911 108.28142,0.38019c0.50596,0.01137 1.01052,-2.64301 1.51426,-2.60576c0,3.2621 0,13.50442 0,16.28322c0,1.19017 -0.86276,1.95042 -2.44116,1.95042c-16.18547,0 -107.62267,0 -115.70212,0c-1.12498,0 -1.90155,-0.65701 -1.90155,-1.70661z" fill="#000000" stroke="none" stroke-width="5" stroke-linecap="butt"/><path d="M135.4166,118.58423c8.07945,0 99.51665,0 115.70212,0c1.5784,0 2.44116,0.76024 2.44116,1.95042c0,2.77881 0,19.11617 0,22.37827c-0.50372,0.03726 -1.0083,0.3085 -1.51426,0.31987c-0.938,0.02108 -24.68758,3.83656 -27.94135,3.79341c-1.16054,-0.01539 -88.94914,-4.15045 -90.58922,-3.84989c0,-3.23933 0,-20.6541 0,-22.88546c0,-1.0496 0.77657,-1.70661 1.90155,-1.70661z" data-paper-data="{&quot;index&quot;:null}" fill="#000000" stroke="none" stroke-width="5" stroke-linecap="butt"/><path d="M337.14496,148.1095v-4.5h4.45311v4.5z" fill="#000000" stroke="#000000" stroke-width="5" stroke-linecap="butt"/><path d="M213.73024,150.6095v-7h21.62938v7z" fill="#000000" stroke="#000000" stroke-width="5" stroke-linecap="butt"/><path d="M212.55062,117.81469c0.32323,0 0.60792,0.11189 0.85406,0.33566c0.24615,0.22377 0.36922,0.51219 0.36922,0.86525c0,0.97714 -0.49106,1.98039 -1.47317,3.00974c-0.98211,1.02935 -2.36826,1.54403 -4.15844,1.54403c-2.20789,0 -3.85634,-0.68126 -4.94537,-2.04379c-1.08654,-1.36253 -1.62981,-3.03212 -1.62981,-5.00877c0,-2.13081 0.60792,-3.84391 1.82375,-5.13931c1.21583,-1.29788 2.79964,-1.94682 4.75143,-1.94682c1.68327,0 3.03336,0.46868 4.05028,1.40604c1.01692,0.93487 1.52538,1.85607 1.52538,2.76359c0,0.28593 -0.11064,0.55322 -0.33193,0.80185c-0.22129,0.24864 -0.51841,0.37295 -0.89136,0.37295c-0.3282,0 -0.57932,-0.09199 -0.75337,-0.27599c-0.17404,-0.18399 -0.41274,-0.5557 -0.71607,-1.11513c-0.30085,-0.55943 -0.70986,-0.99081 -1.22702,-1.29415c-0.51468,-0.30582 -1.07286,-0.45873 -1.67456,-0.45873c-1.15118,0 -2.06368,0.43263 -2.73748,1.29788c-0.6738,0.86277 -1.01071,2.096 -1.01071,3.6997c0,1.6037 0.33069,2.79467 0.99206,3.5729c0.66137,0.77574 1.55522,1.16362 2.68154,1.16362c1.59624,0 2.67159,-0.77699 3.22605,-2.33096c0.18648,-0.51468 0.38166,-0.84661 0.58554,-0.99579c0.20637,-0.14918 0.43636,-0.22377 0.68996,-0.22377zM220.51319,113.21617c1.57884,0 2.82078,0.48733 3.72581,1.46198c0.90503,0.97217 1.35755,2.21037 1.35755,3.71462c0,1.50922 -0.45873,2.74991 -1.3762,3.72208c-0.91747,0.96968 -2.13081,1.45452 -3.64003,1.45452c-1.641,0 -2.9078,-0.49106 -3.8004,-1.47317c-0.8926,-0.9846 -1.3389,-2.21908 -1.3389,-3.70343c0,-1.51171 0.45252,-2.7524 1.35755,-3.72208c0.90503,-0.96968 2.14324,-1.45452 3.71462,-1.45452zM220.51319,121.67477c0.77077,0 1.38117,-0.2909 1.8312,-0.87271c0.45252,-0.58181 0.67878,-1.3849 0.67878,-2.40928c0,-1.03184 -0.22626,-1.83866 -0.67878,-2.42047c-0.45003,-0.58181 -1.06043,-0.87271 -1.8312,-0.87271c-0.75834,0 -1.36501,0.29215 -1.82002,0.87644c-0.45252,0.58429 -0.67878,1.38987 -0.67878,2.41674c0,1.03184 0.22502,1.83742 0.67505,2.41674c0.45252,0.57684 1.06043,0.86525 1.82375,0.86525zM236.57819,117.28137v4.17709c0,0.54203 -0.02238,0.93611 -0.06713,1.18226c-0.04227,0.24366 -0.17529,0.45998 -0.39906,0.64894c-0.22377,0.18648 -0.48733,0.27972 -0.79066,0.27972c-0.2735,0 -0.52835,-0.08205 -0.76456,-0.24615c-0.2362,-0.16659 -0.3829,-0.38166 -0.44009,-0.64521c-0.0547,-0.26604 -0.08205,-0.67256 -0.08205,-1.21956v-3.66241c0,-1.01941 -0.15291,-1.70564 -0.45873,-2.05871c-0.30334,-0.35555 -0.72229,-0.53332 -1.25686,-0.53332c-0.48484,0 -0.91125,0.14048 -1.27923,0.42144c-0.36549,0.27847 -0.62283,0.62781 -0.77201,1.048c-0.14918,0.41771 -0.22377,1.13627 -0.22377,2.15567v2.62933c0,0.53457 -0.02113,0.92368 -0.0634,1.16735c-0.03978,0.24118 -0.17529,0.45873 -0.40652,0.65267c-0.22875,0.19394 -0.4923,0.2909 -0.79066,0.2909c-0.27847,0 -0.53581,-0.08578 -0.77201,-0.25734c-0.2362,-0.17156 -0.37917,-0.38414 -0.4289,-0.63775c-0.04973,-0.25609 -0.07459,-0.66137 -0.07459,-1.21583v-6.27309c0,-0.56689 0.02611,-0.96222 0.07832,-1.18599c0.05221,-0.22377 0.18523,-0.41025 0.39906,-0.55943c0.21631,-0.14918 0.45749,-0.22377 0.72353,-0.22377c0.24864,0 0.50846,0.09821 0.77947,0.29463c0.27101,0.19642 0.40652,0.67007 0.40652,1.42095c0.85034,-1.14373 1.94433,-1.71559 3.282,-1.71559c0.5097,0 1.01319,0.09697 1.51046,0.2909c0.49727,0.19145 0.90255,0.50349 1.21583,0.93611c0.31328,0.43263 0.50349,0.88017 0.57062,1.34263c0.06962,0.46246 0.10443,0.96098 0.10443,1.49555zM239.5525,113.43994v-1.52911c0,-0.62656 0.02611,-1.05297 0.07832,-1.27923c0.0547,-0.22875 0.19145,-0.43138 0.41025,-0.60792c0.22129,-0.17653 0.48111,-0.2648 0.77947,-0.2648c0.2735,0 0.52089,0.08081 0.74218,0.24242c0.22129,0.16161 0.36549,0.35804 0.43263,0.58927c0.06962,0.22875 0.10443,0.60046 0.10443,1.11513v1.73424h0.4923c0.62159,0 1.03433,0.07708 1.23821,0.23123c0.20637,0.15167 0.30955,0.37295 0.30955,0.66386c0,0.62905 -0.52214,0.94357 -1.56641,0.94357h-0.47365v4.69922c0,0.63402 0.04475,1.06665 0.13426,1.29788c0.08951,0.22875 0.33069,0.34312 0.72353,0.34312c0.18648,0 0.39533,-0.02611 0.62656,-0.07832c0.23372,-0.0547 0.40652,-0.08205 0.51841,-0.08205c0.25609,0 0.46246,0.08454 0.6191,0.25361c0.15913,0.16659 0.23869,0.36798 0.23869,0.60419c0,0.83542 -0.87893,1.25313 -2.63679,1.25313c-0.85282,0 -1.47938,-0.15913 -1.87969,-0.47738c-0.4003,-0.31825 -0.64894,-0.70364 -0.74591,-1.15616c-0.09697,-0.455 -0.14545,-1.04551 -0.14545,-1.77153v-4.8857h-0.33566c-0.75088,0 -1.12632,-0.30831 -1.12632,-0.92493c0,-0.60916 0.39409,-0.91374 1.18226,-0.91374zM245.87593,121.45845v-6.5267c0,-1.14373 0.41895,-1.71559 1.25686,-1.71559c0.80309,0 1.21334,0.52835 1.23075,1.58505c0.52959,-1.0567 1.26058,-1.58505 2.19297,-1.58505c0.48981,0 0.99703,0.12929 1.52165,0.38787c0.52711,0.25858 0.79066,0.61164 0.79066,1.05919c0,0.3108 -0.10567,0.56689 -0.31701,0.76829c-0.21134,0.2014 -0.43884,0.30209 -0.68251,0.30209c-0.13675,0 -0.38414,-0.05346 -0.74218,-0.16037c-0.35555,-0.1094 -0.65516,-0.1641 -0.89882,-0.1641c-0.60916,0 -1.06292,0.30831 -1.36128,0.92493c-0.29836,0.61413 -0.44754,1.80012 -0.44754,3.55798v1.47317c0,0.64645 -0.02611,1.08405 -0.07832,1.3128c-0.05221,0.22626 -0.19021,0.43138 -0.41398,0.61537c-0.22377,0.18399 -0.48235,0.27599 -0.77574,0.27599c-0.27847,0 -0.52959,-0.08205 -0.75337,-0.24615c-0.22377,-0.16659 -0.36674,-0.36301 -0.4289,-0.58927c-0.06216,-0.22875 -0.09324,-0.65391 -0.09324,-1.2755zM257.97641,113.21617c1.57884,0 2.82078,0.48733 3.72581,1.46198c0.90503,0.97217 1.35755,2.21037 1.35755,3.71462c0,1.50922 -0.45873,2.74991 -1.3762,3.72208c-0.91747,0.96968 -2.13081,1.45452 -3.64003,1.45452c-1.641,0 -2.9078,-0.49106 -3.8004,-1.47317c-0.8926,-0.9846 -1.3389,-2.21908 -1.3389,-3.70343c0,-1.51171 0.45252,-2.7524 1.35755,-3.72208c0.90503,-0.96968 2.14324,-1.45452 3.71462,-1.45452zM257.97641,121.67477c0.77077,0 1.38117,-0.2909 1.8312,-0.87271c0.45252,-0.58181 0.67878,-1.3849 0.67878,-2.40928c0,-1.03184 -0.22626,-1.83866 -0.67878,-2.42047c-0.45003,-0.58181 -1.06043,-0.87271 -1.8312,-0.87271c-0.75834,0 -1.36501,0.29215 -1.82002,0.87644c-0.45252,0.58429 -0.67878,1.38987 -0.67878,2.41674c0,1.03184 0.22502,1.83742 0.67505,2.41674c0.45252,0.57684 1.06043,0.86525 1.82375,0.86525zM267.60794,111.53042v9.92804c0,0.61662 -0.02859,1.03557 -0.08578,1.25686c-0.0547,0.2188 -0.19767,0.41646 -0.4289,0.593c-0.22875,0.17404 -0.47614,0.26107 -0.74218,0.26107c-0.2735,0 -0.52835,-0.08578 -0.76456,-0.25734c-0.2362,-0.17156 -0.3829,-0.37171 -0.44009,-0.60046c-0.0547,-0.23123 -0.08205,-0.64894 -0.08205,-1.25313v-9.92804c0,-0.62905 0.02859,-1.05297 0.08578,-1.27177c0.05967,-0.22129 0.20264,-0.41398 0.4289,-0.57808c0.22875,-0.16659 0.47614,-0.24988 0.74218,-0.24988c0.3108,0 0.57932,0.08951 0.80558,0.26853c0.22875,0.17653 0.36549,0.38414 0.41025,0.62283c0.04724,0.23869 0.07086,0.64148 0.07086,1.20837zM272.16731,115.86414c0,0.33069 0.17032,0.58927 0.51095,0.77574c0.34312,0.18648 1.10892,0.42517 2.2974,0.71607c2.30486,0.55943 3.45728,1.52041 3.45728,2.88293c0,1.07411 -0.38912,1.89834 -1.16735,2.47269c-0.77574,0.57186 -1.86228,0.85779 -3.25962,0.85779c-1.41723,0 -2.48512,-0.29215 -3.20368,-0.87644c-0.71856,-0.58678 -1.07784,-1.20589 -1.07784,-1.85731c0,-0.28096 0.09945,-0.52089 0.29836,-0.7198c0.19891,-0.19891 0.44506,-0.29836 0.73845,-0.29836c0.39782,0 0.74591,0.24864 1.04427,0.74591c0.33566,0.547 0.70488,0.91001 1.10767,1.08903c0.40528,0.17653 0.8379,0.2648 1.29788,0.2648c0.5097,0 0.92368,-0.11313 1.24194,-0.33939c0.32074,-0.22875 0.48111,-0.51716 0.48111,-0.86525c0,-0.31577 -0.13551,-0.59051 -0.40652,-0.82423c-0.26853,-0.23372 -1.00822,-0.48857 -2.21908,-0.76456c-1.20837,-0.27599 -2.08979,-0.66386 -2.64424,-1.16362c-0.55197,-0.50224 -0.82796,-1.09773 -0.82796,-1.78645c0,-0.77823 0.3369,-1.46571 1.01071,-2.06244c0.67629,-0.59673 1.68824,-0.89509 3.03585,-0.89509c1.23821,0 2.22405,0.25237 2.95753,0.7571c0.73348,0.50224 1.10021,1.02438 1.10021,1.56641c0,0.28593 -0.09324,0.52711 -0.27972,0.72353c-0.18648,0.19394 -0.44506,0.2909 -0.77574,0.2909c-0.48981,0 -0.93239,-0.2822 -1.32772,-0.84661c-0.39533,-0.56689 -0.99081,-0.85034 -1.78645,-0.85034c-0.42765,0 -0.80185,0.08702 -1.12259,0.26107c-0.32074,0.17404 -0.48111,0.42268 -0.48111,0.74591z" fill="#d9d9d9" stroke="none" stroke-width="1" stroke-linecap="square"/></g></g></svg>