<svg version="1.1" xmlns="http://www.w3.org/2000/svg" xmlns:xlink="http://www.w3.org/1999/xlink" width="354.75" height="91.4027" viewBox="0,0,354.75,91.4027"><g transform="translate(77.25,-123.8585)"><g data-paper-data="{&quot;isPaintingLayer&quot;:true}" fill-rule="nonzero" stroke-linejoin="miter" stroke-miterlimit="10" stroke-dasharray="" stroke-dashoffset="0" style="mix-blend-mode: normal"><text transform="translate(-77,145.44444) scale(0.5,0.5)" font-size="40" xml:space="preserve" fill="#ffffff" fill-rule="nonzero" stroke="none" stroke-width="1" stroke-linecap="butt" stroke-linejoin="miter" stroke-miterlimit="10" stroke-dasharray="" stroke-dashoffset="0" font-family="Sans Serif" font-weight="normal" text-anchor="start" style="mix-blend-mode: normal"><tspan x="0" dy="0"> </tspan></text><path d="M210.81742,204.82784c0,-12.01784 0,-46.0465 0,-50.94544c0,-1.57362 1.66178,-2.90196 3.54684,-2.90196c6.17489,0 40.11775,0 51.26788,0c2.23182,0 3.55046,1.18889 3.55046,3.2244c0,6.34387 0,40.15015 0,51.26788c0,2.22971 -2.03698,3.54683 -4.51777,3.54683c-6.71661,0 -38.19001,0 -49.65568,0c-2.61703,0 -4.19171,-1.57351 -4.19171,-4.19171z" fill="#a3b4e0" stroke="#293b6b" stroke-width="3" stroke-linecap="butt"/><path d="M244.61646,181.25496c-1.6434,1.97208 -3.69019,2.95813 -6.14035,2.95813c-2.39041,0 -4.36249,-0.86653 -5.91625,-2.59957c-1.55376,-1.73304 -2.33064,-3.82465 -2.33064,-6.27481c0,-2.62944 0.86653,-4.84057 2.59957,-6.63337c1.76293,-1.7928 4.06368,-2.68921 6.90229,-2.68921c3.16728,0 5.63239,1.16532 7.39532,3.49597c1.76293,2.30077 2.64439,5.52782 2.64439,9.68114c0,5.01985 -0.95617,8.73992 -2.86849,11.1602c-1.91232,2.42029 -4.43719,3.63043 -7.5746,3.63043c-2.56969,0 -4.54177,-0.65736 -5.91625,-1.97208c-1.37448,-1.31473 -2.06172,-2.62944 -2.06172,-3.94417c0,-0.50797 0.19423,-0.95617 0.58266,-1.3446c0.38844,-0.41833 0.86653,-0.62748 1.43424,-0.62748c1.04581,0 1.88244,0.61254 2.50993,1.83762c0.77689,1.58365 1.94221,2.37546 3.49597,2.37546c3.25692,0 5.00491,-3.01789 5.24395,-9.05366zM244.21308,175.51798c0,-1.55376 -0.43326,-2.91331 -1.29978,-4.07863c-0.86653,-1.16532 -1.98703,-1.74798 -3.36151,-1.74798c-1.31473,0 -2.34559,0.53784 -3.09259,1.61352c-0.747,1.04581 -1.1205,2.36052 -1.1205,3.94417c0,1.67329 0.40338,3.00295 1.21014,3.98899c0.80676,0.95617 1.82268,1.43424 3.04777,1.43424c1.16532,0 2.22606,-0.4482 3.18223,-1.3446c0.95617,-0.8964 1.43424,-2.16631 1.43424,-3.80971z" fill="#3e4f7b" stroke="none" stroke-width="1" stroke-linecap="square"/><path d="M201.19842,215.2612v-71.74627h76.30158v71.74628z" fill="none" stroke="none" stroke-width="none" stroke-linecap="butt"/></g></g></svg>