<svg version="1.1" xmlns="http://www.w3.org/2000/svg" xmlns:xlink="http://www.w3.org/1999/xlink" width="120.08955" height="8.10229" viewBox="0,0,120.08955,8.10229"><g transform="translate(-179.95524,-175.94886)"><g data-paper-data="{&quot;isPaintingLayer&quot;:true}" fill="#12ff00" fill-rule="nonzero" stroke="none" stroke-width="1" stroke-linecap="square" stroke-linejoin="miter" stroke-miterlimit="10" stroke-dasharray="" stroke-dashoffset="0" style="mix-blend-mode: normal"><path d="M181.52781,180.56408v2.17086c0,0.30768 -0.01424,0.54414 -0.04273,0.70937c-0.02279,0.15954 -0.09401,0.30199 -0.21366,0.42734c-0.11965,0.11965 -0.30483,0.17948 -0.55553,0.17948c-0.23361,0 -0.41879,-0.07977 -0.55553,-0.23931c-0.13675,-0.15954 -0.20512,-0.5185 -0.20512,-1.07689v-5.32458c0,-0.45583 0.03134,-0.76066 0.09401,-0.9145c0.06838,-0.15954 0.18233,-0.2678 0.34187,-0.32477c0.16523,-0.05698 0.46152,-0.08547 0.88886,-0.08547h2.21359c0.60967,0 1.10252,0.06268 1.47858,0.18803c0.38175,0.11966 0.70368,0.35896 0.96578,0.71792c0.2621,0.35326 0.39315,0.77205 0.39315,1.25637c0,1.15666 -0.66379,1.86602 -1.99138,2.12812c0.5299,0.29059 1.01705,0.81194 1.46148,1.56405c0.45013,0.75211 0.67519,1.24212 0.67519,1.47003c0,0.16523 -0.07407,0.31338 -0.22222,0.44443c-0.14814,0.13105 -0.33332,0.19657 -0.55553,0.19657c-0.16523,0 -0.31907,-0.05128 -0.46152,-0.15384c-0.14245,-0.10256 -0.35611,-0.3903 -0.64101,-0.86321l-0.64954,-1.05124c-0.36466,-0.60967 -0.67234,-0.99712 -0.92305,-1.16235c-0.245,-0.17093 -0.55839,-0.2564 -0.94013,-0.2564zM183.00639,177.3078h-1.47858v2.12812h1.4273c0.66664,0 1.12816,-0.09401 1.38457,-0.28204c0.2564,-0.19372 0.3846,-0.46722 0.3846,-0.82048c0,-0.2564 -0.07407,-0.47007 -0.22222,-0.641c-0.14814,-0.17093 -0.31623,-0.27634 -0.50426,-0.31623c-0.18233,-0.04558 -0.5128,-0.06837 -0.99141,-0.06837zM191.51675,181.44439h-2.86314c0.01709,0.54129 0.16524,0.94869 0.44443,1.22218c0.28489,0.27349 0.62676,0.41024 1.0256,0.41024c0.48431,0 0.94299,-0.21366 1.37602,-0.641c0.17663,-0.17663 0.30483,-0.28489 0.3846,-0.32478c0.08546,-0.04558 0.17948,-0.06838 0.28204,-0.06838c0.13105,0 0.24215,0.04274 0.33332,0.1282c0.09687,0.07977 0.1453,0.17948 0.1453,0.29914c0,0.33047 -0.22507,0.67803 -0.67519,1.04269c-0.44443,0.35896 -1.05124,0.53844 -1.82044,0.53844c-0.97433,0 -1.71504,-0.27634 -2.22214,-0.82903c-0.5014,-0.55268 -0.75211,-1.26491 -0.75211,-2.13667c0,-0.88316 0.25071,-1.59823 0.75211,-2.14522c0.50711,-0.54699 1.21078,-0.82048 2.11104,-0.82048c0.85467,0 1.51561,0.25924 1.98283,0.77775c0.46722,0.5128 0.70083,1.07119 0.70083,1.67515c0,0.2678 -0.07692,0.48146 -0.23076,0.641c-0.15384,0.15384 -0.47861,0.23076 -0.97433,0.23076zM188.65361,180.61536h2.65802c-0.0171,-0.48431 -0.15099,-0.85467 -0.4017,-1.11107c-0.2507,-0.2564 -0.55838,-0.3846 -0.92304,-0.3846c-0.7749,0 -1.21933,0.49855 -1.33328,1.49567zM197.63298,183.22211c-0.68943,0.55268 -1.36748,0.82903 -2.03412,0.82903c-0.63245,0 -1.11961,-0.15954 -1.46149,-0.47861c-0.33617,-0.32477 -0.50426,-0.71793 -0.50426,-1.17944c0,-0.39885 0.11396,-0.71793 0.34187,-0.95723c0.23361,-0.245 0.48431,-0.41593 0.7521,-0.5128c0.2735,-0.09687 0.71508,-0.20798 1.32474,-0.33333c0.60967,-0.12535 1.10252,-0.24215 1.47857,-0.35041c-0.0057,-0.44443 -0.09401,-0.74356 -0.26494,-0.8974c-0.17094,-0.15384 -0.43019,-0.23076 -0.77775,-0.23076c-0.66095,0 -1.09398,0.18518 -1.2991,0.55554c-0.11395,0.21081 -0.21651,0.36181 -0.30768,0.45297c-0.08546,0.08546 -0.21082,0.1282 -0.37605,0.1282c-0.15384,0 -0.29344,-0.04843 -0.41879,-0.14529c-0.12535,-0.10256 -0.18803,-0.23646 -0.18803,-0.4017c0,-0.37606 0.20512,-0.73217 0.61536,-1.06833c0.41024,-0.34187 1.05409,-0.5128 1.93155,-0.5128c0.88885,0 1.53841,0.15384 1.94865,0.46152c0.41594,0.30768 0.61251,0.92874 0.58972,1.86318l-0.03419,1.36747c-0.01139,0.42733 0.03134,0.7749 0.1282,1.04269c0.10256,0.2621 0.15384,0.46437 0.15384,0.60682c0,0.15384 -0.06838,0.29058 -0.20512,0.41024c-0.13105,0.11965 -0.28204,0.17948 -0.45297,0.17948c-0.29629,0 -0.60967,-0.27634 -0.94013,-0.82903zM197.53897,181.11107c-0.21652,0.08546 -0.57548,0.17948 -1.07689,0.28204c-0.50141,0.09686 -0.85752,0.21082 -1.06833,0.34187c-0.20512,0.12535 -0.30768,0.31338 -0.30768,0.56408c0,0.20512 0.08262,0.3903 0.24785,0.55553c0.16523,0.15954 0.4017,0.23931 0.70938,0.23931c0.31907,0 0.61536,-0.08832 0.88886,-0.26495c0.27919,-0.17663 0.45012,-0.3846 0.5128,-0.62391c0.06268,-0.24501 0.09402,-0.60967 0.09402,-1.09398zM205.0654,181.60678c0.17663,0 0.32192,0.07122 0.43588,0.21366c0.11965,0.13675 0.17948,0.27635 0.17948,0.41879c0,0.39884 -0.23646,0.80053 -0.70938,1.20508c-0.47292,0.40455 -1.10822,0.60682 -1.90591,0.60682c-0.95723,0 -1.68085,-0.27065 -2.17086,-0.81194c-0.48431,-0.54699 -0.72647,-1.25636 -0.72647,-2.12812c0,-0.87746 0.25355,-1.59538 0.76066,-2.15377c0.5071,-0.55838 1.22787,-0.83757 2.16231,-0.83757c0.72362,0 1.32189,0.19087 1.7948,0.57262c0.47861,0.37606 0.71792,0.74926 0.71792,1.11962c0,0.17663 -0.06552,0.32477 -0.19657,0.44443c-0.12535,0.11965 -0.27349,0.17948 -0.44442,0.17948c-0.21651,0 -0.3846,-0.09116 -0.50426,-0.27349c-0.2678,-0.40454 -0.50426,-0.66095 -0.70937,-0.7692c-0.20512,-0.10825 -0.42734,-0.16238 -0.66665,-0.16238c-0.46722,0 -0.82903,0.17948 -1.08543,0.53844c-0.25071,0.35327 -0.37606,0.7977 -0.37606,1.33328c0,0.54699 0.13105,0.99427 0.39315,1.34183c0.2678,0.34757 0.62391,0.52135 1.06833,0.52135c0.25071,0 0.48147,-0.05983 0.69229,-0.17948c0.21651,-0.11965 0.40169,-0.29913 0.55553,-0.53844c0.15384,-0.245 0.27634,-0.41309 0.3675,-0.50426c0.09117,-0.09116 0.21367,-0.13675 0.36751,-0.13675zM207.19032,178.24793v-0.88031c0,-0.35896 0.01425,-0.60112 0.04274,-0.72647c0.03419,-0.13105 0.11396,-0.24785 0.23931,-0.35041c0.12535,-0.10256 0.27349,-0.15384 0.44443,-0.15384c0.15954,0 0.30199,0.04559 0.42734,0.13675c0.12535,0.09116 0.20797,0.20512 0.24785,0.34187c0.03989,0.13105 0.05983,0.34472 0.05983,0.641v0.99142h0.28204c0.35896,0 0.59542,0.04273 0.70937,0.1282c0.11966,0.08546 0.17948,0.21366 0.17948,0.3846c0,0.35896 -0.29913,0.53844 -0.8974,0.53844h-0.27349v2.69221c0,0.36466 0.02564,0.61251 0.07692,0.74356c0.05128,0.13105 0.18802,0.19657 0.41024,0.19657c0.10826,0 0.22791,-0.01424 0.35896,-0.04273c0.13675,-0.03419 0.23646,-0.05128 0.29913,-0.05128c0.14814,0 0.2678,0.04843 0.35896,0.1453c0.09116,0.09687 0.13675,0.21367 0.13675,0.35041c0,0.47861 -0.50426,0.71792 -1.51277,0.71792c-0.49001,0 -0.84898,-0.09116 -1.07689,-0.27349c-0.22791,-0.18233 -0.37036,-0.40169 -0.42734,-0.6581c-0.05697,-0.2621 -0.08546,-0.60396 -0.08546,-1.0256v-2.79477h-0.18802c-0.43303,0 -0.64955,-0.17663 -0.64955,-0.52989c0,-0.34757 0.22791,-0.52134 0.68373,-0.52134zM213.37064,178.11973c0.90595,0 1.61818,0.27919 2.13667,0.83757c0.5185,0.55268 0.77775,1.26206 0.77775,2.12813c0,0.86606 -0.2621,1.57829 -0.78629,2.13667c-0.5242,0.55268 -1.21932,0.82903 -2.08539,0.82903c-0.94013,0 -1.66661,-0.28204 -2.17941,-0.84612c-0.5128,-0.56408 -0.7692,-1.27061 -0.7692,-2.11958c0,-0.86606 0.25925,-1.57544 0.77775,-2.12813c0.5185,-0.55838 1.22787,-0.83757 2.12812,-0.83757zM213.37064,182.96571c0.44443,0 0.79485,-0.16524 1.05125,-0.49571c0.2564,-0.33617 0.3846,-0.7977 0.3846,-1.38457c0,-0.59257 -0.1282,-1.0541 -0.3846,-1.38457c-0.2564,-0.33617 -0.60682,-0.50426 -1.05125,-0.50426c-0.43303,0 -0.78059,0.16809 -1.0427,0.50426c-0.2564,0.33617 -0.3846,0.7977 -0.3846,1.38457c0,0.58687 0.1282,1.04839 0.3846,1.38457c0.2564,0.33047 0.60397,0.49571 1.0427,0.49571zM217.42284,182.8375v-3.7349c0,-0.65525 0.23931,-0.98287 0.71793,-0.98287c0.46152,0 0.69798,0.30198 0.70937,0.90595c0.30199,-0.60397 0.72077,-0.90595 1.25636,-0.90595c0.27919,0 0.56978,0.07406 0.87177,0.22221c0.30199,0.14814 0.45297,0.35041 0.45297,0.60681c0,0.17663 -0.06268,0.32478 -0.18803,0.44443c-0.11966,0.11396 -0.24786,0.17094 -0.3846,0.17094c-0.07977,0 -0.22222,-0.03134 -0.42733,-0.09401c-0.20512,-0.06268 -0.37606,-0.09402 -0.5128,-0.09402c-0.34756,0 -0.60681,0.17663 -0.77775,0.5299c-0.17094,0.34756 -0.2564,1.0256 -0.2564,2.03411v0.84612c0,0.37036 -0.0171,0.62106 -0.05128,0.75211c-0.02849,0.13105 -0.10826,0.2507 -0.23931,0.35896c-0.12535,0.10256 -0.27065,0.15384 -0.43589,0.15384c-0.16523,0 -0.31337,-0.04843 -0.44442,-0.14529c-0.12535,-0.09686 -0.20513,-0.20797 -0.23931,-0.33332c-0.03419,-0.13105 -0.05128,-0.37606 -0.05128,-0.73502zM223.04443,178.11973c0.21651,0 0.40169,0.07977 0.55553,0.2393c0.15954,0.15384 0.23931,0.33902 0.23931,0.55554c0,0.22222 -0.07977,0.41309 -0.23931,0.57263c-0.15384,0.15954 -0.33902,0.23931 -0.55553,0.23931c-0.22222,0 -0.41309,-0.07977 -0.57263,-0.23931c-0.15954,-0.15954 -0.23931,-0.35041 -0.23931,-0.57263c0,-0.21652 0.07978,-0.4017 0.23931,-0.55554c0.15954,-0.15953 0.35041,-0.2393 0.57263,-0.2393zM223.04443,182.43581c0.21651,0 0.40169,0.07977 0.55553,0.23931c0.15954,0.15384 0.23931,0.34187 0.23931,0.56408c0,0.21652 -0.07977,0.4074 -0.23931,0.57263c-0.15384,0.15954 -0.33902,0.23931 -0.55553,0.23931c-0.22222,0 -0.41309,-0.07977 -0.57263,-0.23931c-0.15954,-0.15954 -0.23931,-0.35041 -0.23931,-0.57263c0,-0.22221 0.07978,-0.41024 0.23931,-0.56408c0.15954,-0.15954 0.35041,-0.23931 0.57263,-0.23931zM230.2119,177.99153c0,0.22222 0.09402,0.41594 0.28204,0.58118c0.19373,0.16523 0.68374,0.34472 1.47003,0.53844c0.79199,0.18803 1.37887,0.3846 1.76062,0.58972c0.38175,0.20512 0.65524,0.47577 0.82048,0.81194c0.17093,0.33617 0.2564,0.68658 0.2564,1.05124c0,0.72932 -0.27634,1.32758 -0.82903,1.7948c-0.55268,0.46152 -1.30764,0.69228 -2.26487,0.69228c-1.0484,0 -1.83184,-0.2507 -2.35034,-0.75211c-0.5185,-0.5071 -0.77775,-1.02846 -0.77775,-1.56405c0,-0.17663 0.06553,-0.33617 0.19657,-0.47861c0.13674,-0.14245 0.31338,-0.21367 0.52989,-0.21367c0.19373,0 0.33902,0.05982 0.43588,0.17948c0.09687,0.11965 0.21081,0.33617 0.34187,0.64955c0.29628,0.67234 0.82048,1.00851 1.57259,1.00851c0.44443,0 0.82048,-0.10256 1.12816,-0.30768c0.30768,-0.20512 0.46152,-0.48431 0.46152,-0.83758c0,-0.27349 -0.10542,-0.5071 -0.31623,-0.70083c-0.21082,-0.19942 -0.69798,-0.38745 -1.46149,-0.56408c-0.7578,-0.17663 -1.29055,-0.34472 -1.59823,-0.50426c-0.30199,-0.15954 -0.56694,-0.3903 -0.79484,-0.69228c-0.22791,-0.30199 -0.34187,-0.68089 -0.34187,-1.13671c0,-0.66664 0.2621,-1.19654 0.78629,-1.58968c0.52989,-0.39885 1.24781,-0.59827 2.15376,-0.59827c0.92874,0 1.62672,0.21366 2.09394,0.641c0.47292,0.42164 0.70937,0.84613 0.70937,1.27346c0,0.17663 -0.06838,0.34472 -0.20512,0.50425c-0.13674,0.15384 -0.31053,0.23077 -0.52134,0.23077c-0.19373,0 -0.34187,-0.05414 -0.44443,-0.16239c-0.09687,-0.10825 -0.20512,-0.29059 -0.32478,-0.54699c-0.27349,-0.54129 -0.74071,-0.81194 -1.40166,-0.81194c-0.38745,0 -0.71222,0.08547 -0.97432,0.2564c-0.2621,0.16524 -0.39315,0.3846 -0.39315,0.6581zM236.28646,178.24793v-0.88031c0,-0.35896 0.01424,-0.60112 0.04273,-0.72647c0.03418,-0.13105 0.11395,-0.24785 0.23931,-0.35041c0.12535,-0.10256 0.27349,-0.15384 0.44443,-0.15384c0.15954,0 0.30199,0.04559 0.42733,0.13675c0.12535,0.09116 0.20797,0.20512 0.24785,0.34187c0.03988,0.13105 0.05983,0.34472 0.05983,0.641v0.99142h0.28204c0.35896,0 0.59542,0.04273 0.70938,0.1282c0.11965,0.08546 0.17948,0.21366 0.17948,0.3846c0,0.35896 -0.29913,0.53844 -0.8974,0.53844h-0.27349v2.69221c0,0.36466 0.02564,0.61251 0.07692,0.74356c0.05128,0.13105 0.18803,0.19657 0.41024,0.19657c0.10825,0 0.22791,-0.01424 0.35896,-0.04273c0.13675,-0.03419 0.23646,-0.05128 0.29914,-0.05128c0.14814,0 0.26779,0.04843 0.35896,0.1453c0.09117,0.09687 0.13675,0.21367 0.13675,0.35041c0,0.47861 -0.50426,0.71792 -1.51277,0.71792c-0.49001,0 -0.84897,-0.09116 -1.07689,-0.27349c-0.22791,-0.18233 -0.37036,-0.40169 -0.42733,-0.6581c-0.05698,-0.2621 -0.08546,-0.60396 -0.08546,-1.0256v-2.79477h-0.18803c-0.43303,0 -0.64954,-0.17663 -0.64954,-0.52989c0,-0.34757 0.22791,-0.52134 0.68374,-0.52134zM243.6035,183.22211c-0.68943,0.55268 -1.36747,0.82903 -2.03411,0.82903c-0.63246,0 -1.11962,-0.15954 -1.46149,-0.47861c-0.33617,-0.32477 -0.50426,-0.71793 -0.50426,-1.17944c0,-0.39885 0.11396,-0.71793 0.34187,-0.95723c0.23361,-0.245 0.48431,-0.41593 0.75211,-0.5128c0.27349,-0.09687 0.71507,-0.20798 1.32474,-0.33333c0.60967,-0.12535 1.10252,-0.24215 1.47858,-0.35041c-0.0057,-0.44443 -0.09402,-0.74356 -0.26495,-0.8974c-0.17093,-0.15384 -0.43018,-0.23076 -0.77774,-0.23076c-0.66095,0 -1.09398,0.18518 -1.2991,0.55554c-0.11396,0.21081 -0.21652,0.36181 -0.30768,0.45297c-0.08546,0.08546 -0.21082,0.1282 -0.37606,0.1282c-0.15384,0 -0.29344,-0.04843 -0.41879,-0.14529c-0.12535,-0.10256 -0.18803,-0.23646 -0.18803,-0.4017c0,-0.37606 0.20512,-0.73217 0.61536,-1.06833c0.41025,-0.34187 1.0541,-0.5128 1.93156,-0.5128c0.88886,0 1.5384,0.15384 1.94864,0.46152c0.41594,0.30768 0.61251,0.92874 0.58972,1.86318l-0.03419,1.36747c-0.01139,0.42733 0.03134,0.7749 0.1282,1.04269c0.10256,0.2621 0.15384,0.46437 0.15384,0.60682c0,0.15384 -0.06837,0.29058 -0.20512,0.41024c-0.13105,0.11965 -0.28204,0.17948 -0.45298,0.17948c-0.29628,0 -0.60966,-0.27634 -0.94013,-0.82903zM243.50949,181.11107c-0.21651,0.08546 -0.57548,0.17948 -1.07688,0.28204c-0.50141,0.09686 -0.85753,0.21082 -1.06834,0.34187c-0.20512,0.12535 -0.30768,0.31338 -0.30768,0.56408c0,0.20512 0.08262,0.3903 0.24785,0.55553c0.16523,0.15954 0.4017,0.23931 0.70938,0.23931c0.31907,0 0.61536,-0.08832 0.88885,-0.26495c0.27919,-0.17663 0.45013,-0.3846 0.5128,-0.62391c0.06267,-0.24501 0.09401,-0.60967 0.09401,-1.09398zM246.41216,182.8375v-3.7349c0,-0.65525 0.23931,-0.98287 0.71793,-0.98287c0.46152,0 0.69798,0.30198 0.70937,0.90595c0.30199,-0.60397 0.72077,-0.90595 1.25636,-0.90595c0.27919,0 0.56978,0.07406 0.87176,0.22221c0.30199,0.14814 0.45298,0.35041 0.45298,0.60681c0,0.17663 -0.06268,0.32478 -0.18803,0.44443c-0.11965,0.11396 -0.24785,0.17094 -0.3846,0.17094c-0.07977,0 -0.22222,-0.03134 -0.42734,-0.09401c-0.20512,-0.06268 -0.37605,-0.09402 -0.5128,-0.09402c-0.34757,0 -0.60682,0.17663 -0.77775,0.5299c-0.17093,0.34756 -0.2564,1.0256 -0.2564,2.03411v0.84612c0,0.37036 -0.0171,0.62106 -0.05128,0.75211c-0.02849,0.13105 -0.10826,0.2507 -0.23931,0.35896c-0.12535,0.10256 -0.27065,0.15384 -0.43588,0.15384c-0.16523,0 -0.31338,-0.04843 -0.44442,-0.14529c-0.12535,-0.09686 -0.20513,-0.20797 -0.23931,-0.33332c-0.03418,-0.13105 -0.05128,-0.37606 -0.05128,-0.73502zM251.58504,178.24793v-0.88031c0,-0.35896 0.01424,-0.60112 0.04273,-0.72647c0.03419,-0.13105 0.11396,-0.24785 0.23931,-0.35041c0.12535,-0.10256 0.2735,-0.15384 0.44443,-0.15384c0.15954,0 0.30199,0.04559 0.42733,0.13675c0.12535,0.09116 0.20797,0.20512 0.24785,0.34187c0.03988,0.13105 0.05982,0.34472 0.05982,0.641v0.99142h0.28204c0.35896,0 0.59542,0.04273 0.70937,0.1282c0.11965,0.08546 0.17948,0.21366 0.17948,0.3846c0,0.35896 -0.29913,0.53844 -0.8974,0.53844h-0.2735v2.69221c0,0.36466 0.02564,0.61251 0.07692,0.74356c0.05128,0.13105 0.18803,0.19657 0.41024,0.19657c0.10826,0 0.22791,-0.01424 0.35896,-0.04273c0.13674,-0.03419 0.23646,-0.05128 0.29914,-0.05128c0.14814,0 0.2678,0.04843 0.35896,0.1453c0.09116,0.09687 0.13675,0.21367 0.13675,0.35041c0,0.47861 -0.50426,0.71792 -1.51277,0.71792c-0.49001,0 -0.84897,-0.09116 -1.07689,-0.27349c-0.22791,-0.18233 -0.37036,-0.40169 -0.42733,-0.6581c-0.05697,-0.2621 -0.08546,-0.60396 -0.08546,-1.0256v-2.79477h-0.18803c-0.43303,0 -0.64955,-0.17663 -0.64955,-0.52989c0,-0.34757 0.22791,-0.52134 0.68373,-0.52134zM260.14135,180.56408v2.17086c0,0.30768 -0.01425,0.54414 -0.04273,0.70937c-0.02279,0.15954 -0.09402,0.30199 -0.21367,0.42734c-0.11966,0.11965 -0.30483,0.17948 -0.55554,0.17948c-0.23361,0 -0.41879,-0.07977 -0.55553,-0.23931c-0.13675,-0.15954 -0.20512,-0.5185 -0.20512,-1.07689v-5.32458c0,-0.45583 0.03134,-0.76066 0.09402,-0.9145c0.06838,-0.15954 0.18234,-0.2678 0.34187,-0.32477c0.16523,-0.05698 0.46152,-0.08547 0.88885,-0.08547h2.21359c0.60966,0 1.10252,0.06268 1.47858,0.18803c0.38175,0.11966 0.70368,0.35896 0.96578,0.71792c0.2621,0.35326 0.39315,0.77205 0.39315,1.25637c0,1.15666 -0.66379,1.86602 -1.99138,2.12812c0.5299,0.29059 1.01706,0.81194 1.46149,1.56405c0.45012,0.75211 0.67518,1.24212 0.67518,1.47003c0,0.16523 -0.07407,0.31338 -0.22221,0.44443c-0.14814,0.13105 -0.33332,0.19657 -0.55553,0.19657c-0.16523,0 -0.31908,-0.05128 -0.46152,-0.15384c-0.14245,-0.10256 -0.35611,-0.3903 -0.641,-0.86321l-0.64955,-1.05124c-0.36466,-0.60967 -0.67234,-0.99712 -0.92304,-1.16235c-0.245,-0.17093 -0.55838,-0.2564 -0.94013,-0.2564zM261.61993,177.3078h-1.47857v2.12812h1.42729c0.66664,0 1.12816,-0.09401 1.38457,-0.28204c0.2564,-0.19372 0.3846,-0.46722 0.3846,-0.82048c0,-0.2564 -0.07407,-0.47007 -0.22221,-0.641c-0.14814,-0.17093 -0.31623,-0.27634 -0.50426,-0.31623c-0.18233,-0.04558 -0.5128,-0.06837 -0.99141,-0.06837zM270.1303,181.44439h-2.86314c0.0171,0.54129 0.16524,0.94869 0.44443,1.22218c0.28489,0.27349 0.62676,0.41024 1.0256,0.41024c0.48431,0 0.94299,-0.21366 1.37601,-0.641c0.17663,-0.17663 0.30483,-0.28489 0.3846,-0.32478c0.08546,-0.04558 0.17948,-0.06838 0.28204,-0.06838c0.13105,0 0.24215,0.04274 0.33332,0.1282c0.09686,0.07977 0.14529,0.17948 0.14529,0.29914c0,0.33047 -0.22506,0.67803 -0.67519,1.04269c-0.44443,0.35896 -1.05124,0.53844 -1.82045,0.53844c-0.97433,0 -1.71504,-0.27634 -2.22214,-0.82903c-0.50141,-0.55268 -0.75211,-1.26491 -0.75211,-2.13667c0,-0.88316 0.2507,-1.59823 0.75211,-2.14522c0.5071,-0.54699 1.21078,-0.82048 2.11103,-0.82048c0.85467,0 1.51562,0.25924 1.98284,0.77775c0.46722,0.5128 0.70083,1.07119 0.70083,1.67515c0,0.2678 -0.07692,0.48146 -0.23076,0.641c-0.15384,0.15384 -0.47861,0.23076 -0.97433,0.23076zM267.26716,180.61536h2.65802c-0.0171,-0.48431 -0.15099,-0.85467 -0.4017,-1.11107c-0.2507,-0.2564 -0.55838,-0.3846 -0.92305,-0.3846c-0.7749,0 -1.21932,0.49855 -1.33328,1.49567zM276.24652,183.22211c-0.68943,0.55268 -1.36747,0.82903 -2.03411,0.82903c-0.63246,0 -1.11962,-0.15954 -1.46149,-0.47861c-0.33617,-0.32477 -0.50425,-0.71793 -0.50425,-1.17944c0,-0.39885 0.11395,-0.71793 0.34186,-0.95723c0.23361,-0.245 0.48431,-0.41593 0.75211,-0.5128c0.27349,-0.09687 0.71507,-0.20798 1.32474,-0.33333c0.60967,-0.12535 1.10252,-0.24215 1.47858,-0.35041c-0.0057,-0.44443 -0.09401,-0.74356 -0.26495,-0.8974c-0.17093,-0.15384 -0.43019,-0.23076 -0.77775,-0.23076c-0.66095,0 -1.09398,0.18518 -1.2991,0.55554c-0.11396,0.21081 -0.21651,0.36181 -0.30768,0.45297c-0.08546,0.08546 -0.21082,0.1282 -0.37605,0.1282c-0.15384,0 -0.29344,-0.04843 -0.41879,-0.14529c-0.12535,-0.10256 -0.18803,-0.23646 -0.18803,-0.4017c0,-0.37606 0.20513,-0.73217 0.61536,-1.06833c0.41024,-0.34187 1.05409,-0.5128 1.93155,-0.5128c0.88885,0 1.53841,0.15384 1.94864,0.46152c0.41594,0.30768 0.61251,0.92874 0.58972,1.86318l-0.03419,1.36747c-0.01139,0.42733 0.03134,0.7749 0.1282,1.04269c0.10256,0.2621 0.15384,0.46437 0.15384,0.60682c0,0.15384 -0.06838,0.29058 -0.20512,0.41024c-0.13105,0.11965 -0.28204,0.17948 -0.45297,0.17948c-0.29629,0 -0.60967,-0.27634 -0.94014,-0.82903zM276.15251,181.11107c-0.21652,0.08546 -0.57548,0.17948 -1.07688,0.28204c-0.5014,0.09686 -0.85753,0.21082 -1.06834,0.34187c-0.20512,0.12535 -0.30768,0.31338 -0.30768,0.56408c0,0.20512 0.08262,0.3903 0.24786,0.55553c0.16523,0.15954 0.4017,0.23931 0.70938,0.23931c0.31907,0 0.61536,-0.08832 0.88885,-0.26495c0.27919,-0.17663 0.45013,-0.3846 0.51281,-0.62391c0.06268,-0.24501 0.09401,-0.60967 0.09401,-1.09398zM283.67894,181.60678c0.17663,0 0.32193,0.07122 0.43588,0.21366c0.11965,0.13675 0.17948,0.27635 0.17948,0.41879c0,0.39884 -0.23645,0.80053 -0.70938,1.20508c-0.47292,0.40455 -1.10823,0.60682 -1.90591,0.60682c-0.95723,0 -1.68085,-0.27065 -2.17086,-0.81194c-0.48431,-0.54699 -0.72647,-1.25636 -0.72647,-2.12812c0,-0.87746 0.25355,-1.59538 0.76066,-2.15377c0.50711,-0.55838 1.22787,-0.83757 2.16231,-0.83757c0.72362,0 1.32189,0.19087 1.7948,0.57262c0.47861,0.37606 0.71793,0.74926 0.71793,1.11962c0,0.17663 -0.06553,0.32477 -0.19658,0.44443c-0.12535,0.11965 -0.2735,0.17948 -0.44443,0.17948c-0.21651,0 -0.3846,-0.09116 -0.50425,-0.27349c-0.2678,-0.40454 -0.50426,-0.66095 -0.70938,-0.7692c-0.20512,-0.10825 -0.42733,-0.16238 -0.66664,-0.16238c-0.46722,0 -0.82903,0.17948 -1.08543,0.53844c-0.2507,0.35327 -0.37606,0.7977 -0.37606,1.33328c0,0.54699 0.13105,0.99427 0.39315,1.34183c0.2678,0.34757 0.62391,0.52135 1.06833,0.52135c0.25071,0 0.48147,-0.05983 0.69228,-0.17948c0.21652,-0.11965 0.40169,-0.29913 0.55554,-0.53844c0.15384,-0.245 0.27634,-0.41309 0.36751,-0.50426c0.09116,-0.09116 0.21366,-0.13675 0.3675,-0.13675zM285.80386,178.24793v-0.88031c0,-0.35896 0.01424,-0.60112 0.04273,-0.72647c0.03419,-0.13105 0.11396,-0.24785 0.23931,-0.35041c0.12535,-0.10256 0.27349,-0.15384 0.44442,-0.15384c0.15954,0 0.30199,0.04559 0.42734,0.13675c0.12535,0.09116 0.20797,0.20512 0.24785,0.34187c0.03989,0.13105 0.05983,0.34472 0.05983,0.641v0.99142h0.28204c0.35896,0 0.59542,0.04273 0.70937,0.1282c0.11966,0.08546 0.17948,0.21366 0.17948,0.3846c0,0.35896 -0.29913,0.53844 -0.8974,0.53844h-0.27349v2.69221c0,0.36466 0.02564,0.61251 0.07692,0.74356c0.05128,0.13105 0.18803,0.19657 0.41024,0.19657c0.10825,0 0.22791,-0.01424 0.35896,-0.04273c0.13674,-0.03419 0.23646,-0.05128 0.29914,-0.05128c0.14814,0 0.26779,0.04843 0.35896,0.1453c0.09116,0.09687 0.13674,0.21367 0.13674,0.35041c0,0.47861 -0.50425,0.71792 -1.51276,0.71792c-0.49001,0 -0.84897,-0.09116 -1.07689,-0.27349c-0.22791,-0.18233 -0.37036,-0.40169 -0.42734,-0.6581c-0.05697,-0.2621 -0.08546,-0.60396 -0.08546,-1.0256v-2.79477h-0.18803c-0.43303,0 -0.64955,-0.17663 -0.64955,-0.52989c0,-0.34757 0.22792,-0.52134 0.68374,-0.52134zM291.98419,178.11973c0.90595,0 1.61818,0.27919 2.13668,0.83757c0.5185,0.55268 0.77774,1.26206 0.77774,2.12813c0,0.86606 -0.2621,1.57829 -0.78629,2.13667c-0.5242,0.55268 -1.21933,0.82903 -2.08539,0.82903c-0.94013,0 -1.66661,-0.28204 -2.1794,-0.84612c-0.5128,-0.56408 -0.76921,-1.27061 -0.76921,-2.11958c0,-0.86606 0.25925,-1.57544 0.77775,-2.12813c0.5185,-0.55838 1.22787,-0.83757 2.12813,-0.83757zM291.98419,182.96571c0.44443,0 0.79484,-0.16524 1.05124,-0.49571c0.2564,-0.33617 0.3846,-0.7977 0.3846,-1.38457c0,-0.59257 -0.1282,-1.0541 -0.3846,-1.38457c-0.2564,-0.33617 -0.60681,-0.50426 -1.05124,-0.50426c-0.43303,0 -0.7806,0.16809 -1.04269,0.50426c-0.2564,0.33617 -0.3846,0.7977 -0.3846,1.38457c0,0.58687 0.1282,1.04839 0.3846,1.38457c0.2564,0.33047 0.60397,0.49571 1.04269,0.49571zM296.03639,182.8375v-3.7349c0,-0.65525 0.2393,-0.98287 0.71792,-0.98287c0.46152,0 0.69798,0.30198 0.70938,0.90595c0.30199,-0.60397 0.72078,-0.90595 1.25637,-0.90595c0.27919,0 0.56978,0.07406 0.87176,0.22221c0.30199,0.14814 0.45297,0.35041 0.45297,0.60681c0,0.17663 -0.06268,0.32478 -0.18802,0.44443c-0.11966,0.11396 -0.24786,0.17094 -0.3846,0.17094c-0.07977,0 -0.22222,-0.03134 -0.42733,-0.09401c-0.20512,-0.06268 -0.37606,-0.09402 -0.5128,-0.09402c-0.34757,0 -0.60682,0.17663 -0.77775,0.5299c-0.17093,0.34756 -0.2564,1.0256 -0.2564,2.03411v0.84612c0,0.37036 -0.01709,0.62106 -0.05128,0.75211c-0.02849,0.13105 -0.10826,0.2507 -0.23931,0.35896c-0.12535,0.10256 -0.27065,0.15384 -0.43588,0.15384c-0.16523,0 -0.31338,-0.04843 -0.44443,-0.14529c-0.12535,-0.09686 -0.20512,-0.20797 -0.23931,-0.33332c-0.03419,-0.13105 -0.05128,-0.37606 -0.05128,-0.73502z"/></g></g></svg>