<svg version="1.1" xmlns="http://www.w3.org/2000/svg" xmlns:xlink="http://www.w3.org/1999/xlink" width="144.14414" height="60.93899" viewBox="0,0,144.14414,60.93899"><g transform="translate(-167.92793,-149.5305)"><g data-paper-data="{&quot;isPaintingLayer&quot;:true}" fill-rule="nonzero" stroke-linejoin="miter" stroke-miterlimit="10" stroke-dasharray="" stroke-dashoffset="0" style="mix-blend-mode: normal"><path d="M202.20573,180.74032v-7.89299c0,-1.03788 0.41371,-1.55682 1.24111,-1.55682c0.29757,0 0.55886,0.08709 0.78386,0.26128c0.225,0.17419 0.35927,0.38104 0.40282,0.62055c0.0508,0.23951 0.0762,0.65322 0.0762,1.24111v8.89458c0,0.65321 -0.0254,1.13949 -0.0762,1.45884c-0.04354,0.31935 -0.18508,0.6133 -0.42459,0.88184c-0.23226,0.26128 -0.59515,0.39192 -1.08869,0.39192c-0.40644,0 -0.72579,-0.09798 -0.95804,-0.29394c-0.225,-0.20322 -0.56975,-0.66047 -1.03425,-1.37175l-5.05151,-7.66436v7.22889c0,0.58064 -0.02177,0.98707 -0.06532,1.21933c-0.04354,0.225 -0.17419,0.42821 -0.39193,0.60967c-0.21048,0.18145 -0.47539,0.27217 -0.79474,0.27217c-0.29031,0 -0.54434,-0.08347 -0.76208,-0.2504c-0.21774,-0.16693 -0.35564,-0.37378 -0.4137,-0.62055c-0.05081,-0.25403 -0.07621,-0.6641 -0.07621,-1.23021v-8.99256c0,-0.8274 0.03266,-1.37175 0.09798,-1.63303c0.07258,-0.26128 0.24677,-0.49716 0.52257,-0.70764c0.2758,-0.21048 0.59878,-0.31572 0.96893,-0.31572c0.37741,0 0.66773,0.09072 0.87095,0.27217c0.20322,0.17419 0.54072,0.62055 1.01248,1.33909zM213.72579,183.64712c-1.17578,0.92901 -2.32979,1.39352 -3.46202,1.39352c-1.06691,0 -1.89069,-0.27217 -2.47132,-0.81651c-0.57337,-0.54434 -0.86007,-1.20845 -0.86007,-1.9923c0,-0.67498 0.19597,-1.21933 0.5879,-1.63303c0.39193,-0.4137 0.81651,-0.70039 1.27376,-0.86006c0.45725,-0.16693 1.20482,-0.35564 2.2427,-0.56612c1.03788,-0.21774 1.87617,-0.41733 2.51486,-0.59878c-0.00726,-0.74757 -0.15604,-1.25199 -0.44636,-1.51327c-0.29032,-0.26854 -0.73305,-0.40282 -1.3282,-0.40282c-1.12498,0 -1.85803,0.31572 -2.19915,0.94716c-0.19597,0.35564 -0.37016,0.60967 -0.52257,0.76208c-0.15241,0.15241 -0.37015,0.22862 -0.65321,0.22862c-0.26129,0 -0.49716,-0.08709 -0.70764,-0.26128c-0.21048,-0.17419 -0.31572,-0.39556 -0.31572,-0.6641c0,-0.64595 0.34838,-1.25562 1.04514,-1.829c0.69676,-0.58064 1.78907,-0.87095 3.27695,-0.87095c1.5169,0 2.62373,0.26128 3.32049,0.78385c0.70402,0.52257 1.03425,1.5786 0.9907,3.16808l-0.05444,2.3298c-0.02177,0.71854 0.05081,1.30642 0.21774,1.76367c0.17419,0.44999 0.26129,0.79475 0.26129,1.03426c0,0.26128 -0.11612,0.49354 -0.34838,0.69676c-0.225,0.19597 -0.48265,0.29394 -0.77297,0.29394c-0.5008,0 -1.03063,-0.46451 -1.58949,-1.39352zM213.56249,180.06534c-0.37016,0.1379 -0.97982,0.29395 -1.829,0.46814c-0.84918,0.16693 -1.45158,0.35927 -1.80722,0.577c-0.34838,0.21774 -0.52257,0.53708 -0.52257,0.95804c0,0.35564 0.1379,0.67136 0.4137,0.94716c0.28306,0.26854 0.68225,0.40282 1.19756,0.40282c0.54435,0 1.04877,-0.14879 1.51327,-0.44636c0.47177,-0.30483 0.76208,-0.66047 0.87095,-1.06691c0.10887,-0.4137 0.16331,-1.027 0.16331,-1.83988zM221.79591,182.15562l2.16649,-5.8898c0.21048,-0.58064 0.40644,-0.9399 0.58789,-1.0778c0.1887,-0.14516 0.39918,-0.21774 0.63144,-0.21774c0.32661,0 0.59878,0.1125 0.81652,0.33749c0.225,0.225 0.33749,0.45725 0.33749,0.69676c0,0.225 -0.12339,0.6387 -0.37016,1.24111l-2.39511,5.90068c-0.32661,0.84192 -0.60967,1.36812 -0.84918,1.5786c-0.23225,0.21048 -0.54072,0.31572 -0.92539,0.31572c-0.47177,0 -0.81652,-0.13064 -1.03426,-0.39192c-0.21774,-0.26854 -0.47177,-0.76934 -0.76208,-1.50239l-2.36245,-5.83536c-0.24677,-0.59515 -0.37016,-1.01974 -0.37016,-1.27376c0,-0.25403 0.1125,-0.49354 0.33749,-0.71854c0.225,-0.23226 0.50806,-0.34838 0.84918,-0.34838c0.37741,0 0.6387,0.10524 0.78386,0.31572c0.15242,0.21048 0.33749,0.62055 0.55523,1.23022zM229.35835,171.39938c0.32661,0 0.60603,0.12339 0.83829,0.37016c0.23951,0.23951 0.35927,0.51894 0.35927,0.83829c0,0.33387 -0.11976,0.62055 -0.35927,0.86006c-0.23225,0.23226 -0.51168,0.34838 -0.83829,0.34838c-0.32661,0 -0.60967,-0.11612 -0.84918,-0.34838c-0.23951,-0.23951 -0.35927,-0.5262 -0.35927,-0.86006c0,-0.32661 0.11976,-0.60967 0.35927,-0.84918c0.23951,-0.23951 0.52257,-0.35927 0.84918,-0.35927zM230.58856,176.99524v5.99867c0,0.58789 -0.02903,0.9907 -0.08709,1.20844c-0.05081,0.21774 -0.18871,0.4137 -0.4137,0.58789c-0.225,0.16693 -0.46814,0.2504 -0.72942,0.2504c-0.26128,0 -0.50805,-0.08347 -0.74031,-0.2504c-0.23225,-0.16693 -0.37741,-0.3629 -0.43547,-0.58789c-0.0508,-0.225 -0.07621,-0.6278 -0.07621,-1.20844v-5.97689c0,-0.5516 0.02178,-0.9399 0.06532,-1.1649c0.04354,-0.23226 0.17419,-0.43547 0.39193,-0.60967c0.22499,-0.18145 0.48265,-0.27218 0.77296,-0.27218c0.29757,0 0.5516,0.07984 0.76208,0.23952c0.21048,0.15967 0.34475,0.36289 0.40281,0.60966c0.05806,0.24677 0.08709,0.6387 0.08709,1.17578zM239.93298,176.65774v-0.33749c0,-0.44273 0.10888,-0.7766 0.32661,-1.0016c0.21774,-0.23226 0.49716,-0.34838 0.83828,-0.34838c0.37741,0 0.6641,0.13427 0.86007,0.40282c0.20322,0.26128 0.30483,0.8274 0.30483,1.69835v6.64099c0,1.97415 -0.41733,3.29872 -1.25199,3.97371c-0.8274,0.68224 -2.02495,1.02337 -3.59266,1.02337c-1.40804,0 -2.51124,-0.26129 -3.30961,-0.78386c-0.79112,-0.51531 -1.18667,-1.06328 -1.18667,-1.64391c0,-0.31209 0.10524,-0.56611 0.31572,-0.76208c0.21048,-0.1887 0.45724,-0.28306 0.7403,-0.28306c0.26128,0 0.46814,0.06169 0.62055,0.18508c0.15241,0.12339 0.4137,0.41733 0.78385,0.88183c0.37016,0.47177 0.99433,0.70765 1.87254,0.70765c0.47902,0 0.92539,-0.07621 1.33909,-0.22862c0.42096,-0.15241 0.72942,-0.42096 0.92539,-0.80563c0.19597,-0.38467 0.28668,-1.31731 0.27217,-2.79792c-0.75483,1.08868 -1.78907,1.63303 -3.10276,1.63303c-1.26287,0 -2.26084,-0.47176 -2.99389,-1.41529c-0.73305,-0.95078 -1.09958,-2.16286 -1.09958,-3.63622c0,-1.4661 0.37741,-2.631 1.13224,-3.49469c0.75483,-0.86369 1.73464,-1.29554 2.93945,-1.29554c1.3282,0 2.41689,0.56249 3.26606,1.68747zM235.09921,179.95647c0,0.96531 0.20685,1.70198 0.62055,2.21004c0.42096,0.5008 0.99797,0.75119 1.73102,0.75119c0.63869,0 1.18667,-0.24314 1.64391,-0.72942c0.46451,-0.49354 0.69676,-1.22659 0.69676,-2.19915c0,-0.96531 -0.21411,-1.72738 -0.64232,-2.28625c-0.42096,-0.56611 -0.99796,-0.84918 -1.73101,-0.84918c-0.70402,0 -1.26651,0.26492 -1.68747,0.79475c-0.42096,0.52257 -0.63144,1.2919 -0.63144,2.30801zM250.54496,183.64712c-1.17578,0.92901 -2.32979,1.39352 -3.46203,1.39352c-1.06691,0 -1.89068,-0.27217 -2.47132,-0.81651c-0.57337,-0.54434 -0.86006,-1.20845 -0.86006,-1.9923c0,-0.67498 0.19597,-1.21933 0.58789,-1.63303c0.39192,-0.4137 0.81652,-0.70039 1.27376,-0.86006c0.45725,-0.16693 1.20482,-0.35564 2.2427,-0.56612c1.03788,-0.21774 1.87617,-0.41733 2.51486,-0.59878c-0.00726,-0.74757 -0.15605,-1.25199 -0.44636,-1.51327c-0.29031,-0.26854 -0.73305,-0.40282 -1.3282,-0.40282c-1.12498,0 -1.85802,0.31572 -2.19914,0.94716c-0.19597,0.35564 -0.37016,0.60967 -0.52257,0.76208c-0.15241,0.15241 -0.37015,0.22862 -0.65321,0.22862c-0.26128,0 -0.49717,-0.08709 -0.70765,-0.26128c-0.21048,-0.17419 -0.31572,-0.39556 -0.31572,-0.6641c0,-0.64595 0.34838,-1.25562 1.04514,-1.829c0.69676,-0.58064 1.78907,-0.87095 3.27695,-0.87095c1.51691,0 2.62373,0.26128 3.32049,0.78385c0.70402,0.52257 1.03425,1.5786 0.9907,3.16808l-0.05443,2.3298c-0.02177,0.71854 0.05081,1.30642 0.21774,1.76367c0.17419,0.44999 0.26129,0.79475 0.26129,1.03426c0,0.26128 -0.11613,0.49354 -0.34838,0.69676c-0.225,0.19597 -0.48265,0.29394 -0.77297,0.29394c-0.5008,0 -1.03062,-0.46451 -1.58948,-1.39352zM250.38166,180.06534c-0.37016,0.1379 -0.97982,0.29395 -1.82899,0.46814c-0.84918,0.16693 -1.45158,0.35927 -1.80722,0.577c-0.34838,0.21774 -0.52257,0.53708 -0.52257,0.95804c0,0.35564 0.1379,0.67136 0.4137,0.94716c0.28306,0.26854 0.68224,0.40282 1.19755,0.40282c0.54434,0 1.04877,-0.14879 1.51328,-0.44636c0.47177,-0.30483 0.76208,-0.66047 0.87095,-1.06691c0.10887,-0.4137 0.1633,-1.027 0.1633,-1.83988zM255.27281,175.18802v-1.48062c0,-0.61693 0.02541,-1.03425 0.07621,-1.25199c0.0508,-0.21774 0.18144,-0.4137 0.39192,-0.58789c0.21774,-0.17419 0.47176,-0.26128 0.76208,-0.26128c0.26854,0 0.50805,0.07984 0.71853,0.23951c0.21773,0.15241 0.35927,0.34112 0.42459,0.56611c0.06532,0.225 0.09798,0.58789 0.09798,1.08869v1.68747h0.48991c0.6024,0 1.00159,0.07621 1.19755,0.22863c0.20322,0.14516 0.30484,0.35926 0.30484,0.64232c0,0.60967 -0.50806,0.91449 -1.52417,0.91449h-0.46813v4.57249c0,0.61693 0.04355,1.03788 0.13064,1.26288c0.09436,0.225 0.33024,0.33749 0.70765,0.33749c0.18145,0 0.38467,-0.0254 0.60966,-0.07621c0.225,-0.0508 0.39193,-0.07621 0.5008,-0.07621c0.25402,0 0.45725,0.08346 0.60966,0.25039c0.15242,0.15967 0.22862,0.35201 0.22862,0.57701c0,0.81288 -0.85643,1.21933 -2.5693,1.21933c-0.8274,0 -1.43707,-0.15242 -1.829,-0.45725c-0.38467,-0.31209 -0.62418,-0.6895 -0.71853,-1.13224c-0.09436,-0.44273 -0.14153,-1.0161 -0.14153,-1.72012v-4.75756h-0.32661c-0.73305,0 -1.09957,-0.29757 -1.09957,-0.89272c0,-0.59515 0.38467,-0.89273 1.15401,-0.89273zM262.68601,171.39938c0.3266,0 0.60604,0.12339 0.83829,0.37016c0.23951,0.23951 0.35926,0.51894 0.35926,0.83829c0,0.33387 -0.11975,0.62055 -0.35926,0.86006c-0.23226,0.23226 -0.51169,0.34838 -0.83829,0.34838c-0.3266,0 -0.60966,-0.11612 -0.84917,-0.34838c-0.23951,-0.23951 -0.35927,-0.5262 -0.35927,-0.86006c0,-0.32661 0.11976,-0.60967 0.35927,-0.84918c0.23951,-0.23951 0.52257,-0.35927 0.84917,-0.35927zM263.91623,176.99524v5.99867c0,0.58789 -0.02903,0.9907 -0.08709,1.20844c-0.05081,0.21774 -0.18871,0.4137 -0.41371,0.58789c-0.225,0.16693 -0.46813,0.2504 -0.72942,0.2504c-0.26128,0 -0.50805,-0.08347 -0.74031,-0.2504c-0.23226,-0.16693 -0.37741,-0.3629 -0.43547,-0.58789c-0.0508,-0.225 -0.07621,-0.6278 -0.07621,-1.20844v-5.97689c0,-0.5516 0.02178,-0.9399 0.06532,-1.1649c0.04354,-0.23226 0.17419,-0.43547 0.39193,-0.60967c0.22499,-0.18145 0.48265,-0.27218 0.77297,-0.27218c0.29757,0 0.5516,0.07984 0.76208,0.23952c0.21048,0.15967 0.34475,0.36289 0.40282,0.60966c0.05806,0.24677 0.08709,0.6387 0.08709,1.17578zM270.80021,174.97028c1.53143,0 2.73623,0.47539 3.61445,1.42618c0.88546,0.94353 1.3282,2.14835 1.3282,3.61445c0,1.4661 -0.44636,2.67091 -1.33908,3.61444c-0.89273,0.94353 -2.07214,1.41529 -3.53824,1.41529c-1.59674,0 -2.83059,-0.47539 -3.70154,-1.42618c-0.86369,-0.95804 -1.29554,-2.15923 -1.29554,-3.60355c0,-1.47335 0.4391,-2.6818 1.31731,-3.62533c0.87821,-0.94353 2.08302,-1.4153 3.61444,-1.4153zM270.80021,183.20076c0.74757,0 1.33909,-0.28306 1.77457,-0.84918c0.44273,-0.56611 0.6641,-1.34634 0.6641,-2.34068c0,-1.00885 -0.22136,-1.79633 -0.6641,-2.36245c-0.43547,-0.56611 -1.027,-0.84918 -1.77457,-0.84918c-0.74031,0 -1.33182,0.28669 -1.77456,0.86007c-0.43547,0.56611 -0.65322,1.34998 -0.65322,2.35156c0,1.00159 0.21774,1.78545 0.65322,2.35156c0.43547,0.55886 1.02699,0.83829 1.77456,0.83829zM286.42756,178.92221v4.0717c0,0.52257 -0.02177,0.90361 -0.06532,1.14312c-0.04354,0.23951 -0.17419,0.44999 -0.39193,0.63144c-0.21774,0.18145 -0.4754,0.27217 -0.77297,0.27217c-0.26129,0 -0.50805,-0.07984 -0.74031,-0.23951c-0.23226,-0.15967 -0.37741,-0.36653 -0.43547,-0.62055c-0.0508,-0.26128 -0.07621,-0.65684 -0.07621,-1.18667v-3.5709c0,-0.98708 -0.14878,-1.65118 -0.44636,-1.9923c-0.29032,-0.34838 -0.69676,-0.52257 -1.21933,-0.52257c-0.47177,0 -0.88547,0.1379 -1.24111,0.4137c-0.35564,0.26854 -0.60603,0.60604 -0.75119,1.01248c-0.14516,0.40644 -0.21774,1.10683 -0.21774,2.10117v2.55841c0,0.51531 -0.02178,0.89273 -0.06532,1.13224c-0.03629,0.23226 -0.16693,0.44273 -0.39193,0.63143c-0.225,0.1887 -0.48266,0.28306 -0.77297,0.28306c-0.26855,0 -0.51894,-0.08347 -0.7512,-0.2504c-0.23226,-0.16693 -0.37378,-0.37378 -0.42458,-0.62055c-0.04354,-0.24677 -0.06533,-0.6387 -0.06533,-1.17578v-6.10754c0,-0.5516 0.0254,-0.93627 0.07621,-1.154c0.0508,-0.21774 0.18145,-0.39919 0.39193,-0.54435c0.21048,-0.14516 0.44636,-0.21774 0.70764,-0.21774c0.23951,0 0.48991,0.09798 0.7512,0.29395c0.26128,0.1887 0.39192,0.64596 0.39192,1.37175c0.8274,-1.11046 1.89432,-1.66569 3.20074,-1.66569c0.49354,0 0.97983,0.09436 1.45885,0.28306c0.48628,0.1887 0.88184,0.49354 1.18667,0.9145c0.30483,0.42096 0.48991,0.85643 0.55523,1.30642c0.07258,0.44999 0.10886,0.93264 0.10886,1.44795z" fill="#ffffff" stroke="#000000" stroke-width="3.5" stroke-linecap="square"/><path d="M202.20572,180.74032v-7.89298c0,-1.03788 0.4137,-1.55682 1.2411,-1.55682c0.29757,0 0.55886,0.08709 0.78386,0.26128c0.225,0.17419 0.35927,0.38104 0.40281,0.62055c0.05081,0.23951 0.07621,0.65321 0.07621,1.2411v8.89458c0,0.65321 -0.0254,1.13949 -0.07621,1.45884c-0.04355,0.31935 -0.18508,0.61329 -0.42459,0.88184c-0.23225,0.26128 -0.59515,0.39193 -1.08869,0.39193c-0.40644,0 -0.72579,-0.09798 -0.95804,-0.29395c-0.225,-0.20322 -0.56975,-0.66047 -1.03425,-1.37175l-5.05151,-7.66436v7.22888c0,0.58063 -0.02177,0.98708 -0.06532,1.21933c-0.04355,0.225 -0.17419,0.42822 -0.39193,0.60966c-0.21048,0.18145 -0.47539,0.27217 -0.79474,0.27217c-0.29032,0 -0.54434,-0.08347 -0.76208,-0.2504c-0.21774,-0.16693 -0.35564,-0.37378 -0.4137,-0.62055c-0.05081,-0.25403 -0.07621,-0.6641 -0.07621,-1.23022v-8.99256c0,-0.8274 0.03266,-1.37175 0.09798,-1.63303c0.07258,-0.26128 0.24677,-0.49717 0.52257,-0.70765c0.2758,-0.21048 0.59878,-0.31572 0.96893,-0.31572c0.37741,0 0.66773,0.09072 0.87095,0.27217c0.20322,0.17419 0.54071,0.62055 1.01248,1.33909zM213.72578,183.64712c-1.17578,0.92901 -2.32979,1.39352 -3.46203,1.39352c-1.06691,0 -1.89069,-0.27217 -2.47132,-0.81652c-0.57338,-0.54434 -0.86006,-1.20844 -0.86006,-1.9923c0,-0.67499 0.19596,-1.21933 0.58789,-1.63303c0.39193,-0.4137 0.81652,-0.70039 1.27376,-0.86006c0.45725,-0.16693 1.20481,-0.35564 2.2427,-0.56612c1.03788,-0.21774 1.87617,-0.41733 2.51487,-0.59878c-0.00726,-0.74757 -0.15605,-1.25199 -0.44636,-1.51328c-0.29032,-0.26854 -0.73305,-0.40281 -1.3282,-0.40281c-1.12498,0 -1.85803,0.31572 -2.19915,0.94716c-0.19596,0.35564 -0.37015,0.60966 -0.52257,0.76208c-0.15242,0.15242 -0.37015,0.22862 -0.65321,0.22862c-0.26128,0 -0.49717,-0.08709 -0.70765,-0.26128c-0.21048,-0.17419 -0.31572,-0.39556 -0.31572,-0.6641c0,-0.64595 0.34838,-1.25562 1.04514,-1.82899c0.69676,-0.58063 1.78908,-0.87095 3.27695,-0.87095c1.5169,0 2.62374,0.26128 3.3205,0.78385c0.70402,0.52257 1.03425,1.5786 0.99071,3.16808l-0.05443,2.32979c-0.02177,0.71853 0.05081,1.30642 0.21774,1.76367c0.17419,0.44999 0.26128,0.79474 0.26128,1.03425c0,0.26128 -0.11613,0.49354 -0.34838,0.69676c-0.225,0.19596 -0.48265,0.29395 -0.77297,0.29395c-0.5008,0 -1.03062,-0.46451 -1.58948,-1.39352zM213.56248,180.06533c-0.37015,0.1379 -0.97982,0.29395 -1.82899,0.46814c-0.84918,0.16693 -1.45158,0.35927 -1.80722,0.577c-0.34838,0.21774 -0.52257,0.53709 -0.52257,0.95804c0,0.35564 0.1379,0.67136 0.4137,0.94716c0.28306,0.26854 0.68224,0.40281 1.19756,0.40281c0.54434,0 1.04877,-0.14879 1.51328,-0.44636c0.47176,-0.30483 0.76208,-0.66047 0.87095,-1.06691c0.10887,-0.4137 0.1633,-1.027 0.1633,-1.83988zM221.7959,182.15561l2.16649,-5.8898c0.21048,-0.58063 0.40644,-0.9399 0.58789,-1.0778c0.18871,-0.14516 0.39919,-0.21774 0.63144,-0.21774c0.32661,0 0.59878,0.1125 0.81652,0.33749c0.22499,0.225 0.33749,0.45725 0.33749,0.69676c0,0.225 -0.12338,0.6387 -0.37015,1.2411l-2.39511,5.90069c-0.32661,0.84192 -0.60966,1.36812 -0.84918,1.5786c-0.23225,0.21048 -0.54071,0.31572 -0.92538,0.31572c-0.47176,0 -0.81652,-0.13064 -1.03425,-0.39193c-0.21774,-0.26854 -0.47176,-0.76934 -0.76208,-1.50239l-2.36245,-5.83536c-0.24677,-0.59515 -0.37015,-1.01974 -0.37015,-1.27376c0,-0.25403 0.1125,-0.49354 0.33749,-0.71853c0.225,-0.23225 0.50805,-0.34838 0.84918,-0.34838c0.37741,0 0.6387,0.10524 0.78385,0.31572c0.15242,0.21048 0.33749,0.62055 0.55523,1.23022zM229.35834,171.39938c0.32661,0 0.60604,0.12338 0.83829,0.37015c0.23951,0.23951 0.35927,0.51894 0.35927,0.83829c0,0.33386 -0.11976,0.62055 -0.35927,0.86006c-0.23225,0.23225 -0.51168,0.34838 -0.83829,0.34838c-0.32661,0 -0.60966,-0.11613 -0.84918,-0.34838c-0.23951,-0.23951 -0.35927,-0.5262 -0.35927,-0.86006c0,-0.32661 0.11976,-0.60966 0.35927,-0.84918c0.23951,-0.23951 0.52257,-0.35927 0.84918,-0.35927zM230.58856,176.99524v5.99867c0,0.58789 -0.02903,0.99071 -0.08709,1.20844c-0.05081,0.21774 -0.18871,0.4137 -0.4137,0.58789c-0.225,0.16693 -0.46814,0.2504 -0.72942,0.2504c-0.26128,0 -0.50805,-0.08347 -0.74031,-0.2504c-0.23225,-0.16693 -0.37741,-0.3629 -0.43547,-0.58789c-0.05081,-0.225 -0.07621,-0.62781 -0.07621,-1.20844v-5.97689c0,-0.5516 0.02177,-0.9399 0.06532,-1.1649c0.04355,-0.23225 0.17419,-0.43547 0.39193,-0.60966c0.225,-0.18145 0.48265,-0.27217 0.77297,-0.27217c0.29757,0 0.5516,0.07984 0.76208,0.23951c0.21048,0.15967 0.34475,0.3629 0.40281,0.60966c0.05806,0.24677 0.08709,0.6387 0.08709,1.17578zM239.93297,176.65774v-0.33749c0,-0.44273 0.10887,-0.7766 0.32661,-1.00159c0.21774,-0.23225 0.49717,-0.34838 0.83829,-0.34838c0.37741,0 0.6641,0.13427 0.86006,0.40281c0.20322,0.26128 0.30483,0.8274 0.30483,1.69835v6.64099c0,1.97415 -0.41733,3.29872 -1.25199,3.97371c-0.8274,0.68224 -2.02496,1.02337 -3.59267,1.02337c-1.40804,0 -2.51124,-0.26128 -3.30961,-0.78385c-0.79111,-0.51531 -1.18667,-1.06328 -1.18667,-1.64392c0,-0.31209 0.10524,-0.56612 0.31572,-0.76208c0.21048,-0.18871 0.45725,-0.28306 0.74031,-0.28306c0.26128,0 0.46814,0.06169 0.62055,0.18508c0.15242,0.12338 0.4137,0.41733 0.78385,0.88184c0.37015,0.47176 0.99433,0.70765 1.87254,0.70765c0.47902,0 0.92538,-0.07621 1.33909,-0.22862c0.42096,-0.15242 0.72942,-0.42096 0.92538,-0.80563c0.19596,-0.38467 0.28669,-1.31731 0.27217,-2.79793c-0.75482,1.08869 -1.78908,1.63303 -3.10276,1.63303c-1.26288,0 -2.26084,-0.47176 -2.99389,-1.41529c-0.73305,-0.95079 -1.09957,-2.16286 -1.09957,-3.63622c0,-1.4661 0.37741,-2.63099 1.13223,-3.49469c0.75482,-0.86369 1.73464,-1.29554 2.93946,-1.29554c1.3282,0 2.41689,0.56249 3.26606,1.68747zM235.0992,179.95647c0,0.9653 0.20685,1.70198 0.62055,2.21004c0.42096,0.5008 0.99796,0.75119 1.73101,0.75119c0.6387,0 1.18667,-0.24314 1.64392,-0.72942c0.46451,-0.49354 0.69676,-1.22659 0.69676,-2.19915c0,-0.9653 -0.21411,-1.72738 -0.64233,-2.28624c-0.42096,-0.56612 -0.99796,-0.84918 -1.73101,-0.84918c-0.70402,0 -1.26651,0.26491 -1.68747,0.79474c-0.42096,0.52257 -0.63144,1.29191 -0.63144,2.30802zM250.54495,183.64712c-1.17578,0.92901 -2.32979,1.39352 -3.46203,1.39352c-1.06691,0 -1.89069,-0.27217 -2.47132,-0.81652c-0.57338,-0.54434 -0.86006,-1.20844 -0.86006,-1.9923c0,-0.67499 0.19596,-1.21933 0.58789,-1.63303c0.39193,-0.4137 0.81652,-0.70039 1.27376,-0.86006c0.45725,-0.16693 1.20481,-0.35564 2.2427,-0.56612c1.03788,-0.21774 1.87617,-0.41733 2.51487,-0.59878c-0.00726,-0.74757 -0.15605,-1.25199 -0.44636,-1.51328c-0.29032,-0.26854 -0.73305,-0.40281 -1.3282,-0.40281c-1.12498,0 -1.85803,0.31572 -2.19915,0.94716c-0.19596,0.35564 -0.37015,0.60966 -0.52257,0.76208c-0.15242,0.15242 -0.37015,0.22862 -0.65321,0.22862c-0.26128,0 -0.49717,-0.08709 -0.70765,-0.26128c-0.21048,-0.17419 -0.31572,-0.39556 -0.31572,-0.6641c0,-0.64595 0.34838,-1.25562 1.04514,-1.82899c0.69676,-0.58063 1.78908,-0.87095 3.27695,-0.87095c1.5169,0 2.62374,0.26128 3.3205,0.78385c0.70402,0.52257 1.03425,1.5786 0.99071,3.16808l-0.05443,2.32979c-0.02177,0.71853 0.05081,1.30642 0.21774,1.76367c0.17419,0.44999 0.26128,0.79474 0.26128,1.03425c0,0.26128 -0.11613,0.49354 -0.34838,0.69676c-0.225,0.19596 -0.48265,0.29395 -0.77297,0.29395c-0.5008,0 -1.03062,-0.46451 -1.58948,-1.39352zM250.38165,180.06533c-0.37015,0.1379 -0.97982,0.29395 -1.82899,0.46814c-0.84918,0.16693 -1.45158,0.35927 -1.80722,0.577c-0.34838,0.21774 -0.52257,0.53709 -0.52257,0.95804c0,0.35564 0.1379,0.67136 0.4137,0.94716c0.28306,0.26854 0.68224,0.40281 1.19756,0.40281c0.54434,0 1.04877,-0.14879 1.51328,-0.44636c0.47176,-0.30483 0.76208,-0.66047 0.87095,-1.06691c0.10887,-0.4137 0.1633,-1.027 0.1633,-1.83988zM255.2728,175.18801v-1.48061c0,-0.61692 0.0254,-1.03425 0.07621,-1.25199c0.05081,-0.21774 0.18145,-0.4137 0.39193,-0.58789c0.21774,-0.17419 0.47176,-0.26128 0.76208,-0.26128c0.26854,0 0.50805,0.07984 0.71853,0.23951c0.21774,0.15242 0.35927,0.34112 0.42459,0.56612c0.06532,0.225 0.09798,0.58789 0.09798,1.08869v1.68747h0.48991c0.60241,0 1.00159,0.07621 1.19756,0.22862c0.20322,0.14516 0.30483,0.35927 0.30483,0.64233c0,0.60966 -0.50805,0.9145 -1.52416,0.9145h-0.46814v4.57249c0,0.61692 0.04355,1.03788 0.13064,1.26288c0.09435,0.225 0.33024,0.33749 0.70765,0.33749c0.18145,0 0.38467,-0.0254 0.60966,-0.07621c0.225,-0.05081 0.39193,-0.07621 0.5008,-0.07621c0.25403,0 0.45725,0.08347 0.60966,0.2504c0.15242,0.15967 0.22862,0.35201 0.22862,0.577c0,0.81289 -0.85643,1.21933 -2.5693,1.21933c-0.8274,0 -1.43707,-0.15242 -1.82899,-0.45725c-0.38467,-0.31209 -0.62418,-0.6895 -0.71853,-1.13223c-0.09435,-0.44273 -0.14153,-1.01611 -0.14153,-1.72013v-4.75756h-0.32661c-0.73305,0 -1.09957,-0.29757 -1.09957,-0.89272c0,-0.59515 0.38467,-0.89272 1.15401,-0.89272zM262.68601,171.39938c0.32661,0 0.60604,0.12338 0.83829,0.37015c0.23951,0.23951 0.35927,0.51894 0.35927,0.83829c0,0.33386 -0.11976,0.62055 -0.35927,0.86006c-0.23225,0.23225 -0.51168,0.34838 -0.83829,0.34838c-0.32661,0 -0.60966,-0.11613 -0.84918,-0.34838c-0.23951,-0.23951 -0.35927,-0.5262 -0.35927,-0.86006c0,-0.32661 0.11976,-0.60966 0.35927,-0.84918c0.23951,-0.23951 0.52257,-0.35927 0.84918,-0.35927zM263.91622,176.99524v5.99867c0,0.58789 -0.02903,0.99071 -0.08709,1.20844c-0.05081,0.21774 -0.18871,0.4137 -0.4137,0.58789c-0.225,0.16693 -0.46814,0.2504 -0.72942,0.2504c-0.26128,0 -0.50805,-0.08347 -0.74031,-0.2504c-0.23225,-0.16693 -0.37741,-0.3629 -0.43547,-0.58789c-0.05081,-0.225 -0.07621,-0.62781 -0.07621,-1.20844v-5.97689c0,-0.5516 0.02177,-0.9399 0.06532,-1.1649c0.04355,-0.23225 0.17419,-0.43547 0.39193,-0.60966c0.225,-0.18145 0.48265,-0.27217 0.77297,-0.27217c0.29757,0 0.5516,0.07984 0.76208,0.23951c0.21048,0.15967 0.34475,0.3629 0.40281,0.60966c0.05806,0.24677 0.08709,0.6387 0.08709,1.17578zM270.8002,174.97028c1.53142,0 2.73624,0.47539 3.61445,1.42618c0.88547,0.94353 1.3282,2.14834 1.3282,3.61444c0,1.4661 -0.44636,2.67091 -1.33909,3.61444c-0.89272,0.94353 -2.07214,1.41529 -3.53824,1.41529c-1.59674,0 -2.83059,-0.47539 -3.70154,-1.42618c-0.86369,-0.95804 -1.29554,-2.15923 -1.29554,-3.60356c0,-1.47336 0.4391,-2.6818 1.31731,-3.62533c0.87821,-0.94353 2.08302,-1.41529 3.61444,-1.41529zM270.8002,183.20075c0.74757,0 1.33909,-0.28306 1.77457,-0.84918c0.44273,-0.56612 0.6641,-1.34634 0.6641,-2.34068c0,-1.00885 -0.22137,-1.79633 -0.6641,-2.36245c-0.43547,-0.56612 -1.027,-0.84918 -1.77457,-0.84918c-0.74031,0 -1.33183,0.28669 -1.77456,0.86006c-0.43547,0.56612 -0.65321,1.34997 -0.65321,2.35156c0,1.00159 0.21774,1.78545 0.65321,2.35156c0.43547,0.55886 1.027,0.83829 1.77456,0.83829zM286.42756,178.92221v4.07169c0,0.52257 -0.02177,0.90361 -0.06532,1.14312c-0.04355,0.23951 -0.17419,0.44999 -0.39193,0.63144c-0.21774,0.18145 -0.47539,0.27217 -0.77297,0.27217c-0.26128,0 -0.50805,-0.07984 -0.74031,-0.23951c-0.23225,-0.15967 -0.37741,-0.36652 -0.43547,-0.62055c-0.05081,-0.26128 -0.07621,-0.65684 -0.07621,-1.18667v-3.57089c0,-0.98708 -0.14879,-1.65118 -0.44636,-1.9923c-0.29032,-0.34838 -0.69676,-0.52257 -1.21933,-0.52257c-0.47176,0 -0.88547,0.1379 -1.2411,0.4137c-0.35564,0.26854 -0.60604,0.60604 -0.75119,1.01248c-0.14516,0.40644 -0.21774,1.10683 -0.21774,2.10117v2.55842c0,0.51531 -0.02177,0.89272 -0.06532,1.13223c-0.03629,0.23225 -0.16693,0.44273 -0.39193,0.63144c-0.225,0.18871 -0.48265,0.28306 -0.77297,0.28306c-0.26854,0 -0.51894,-0.08347 -0.75119,-0.2504c-0.23225,-0.16693 -0.37378,-0.37378 -0.42459,-0.62055c-0.04355,-0.24677 -0.06532,-0.6387 -0.06532,-1.17578v-6.10754c0,-0.5516 0.0254,-0.93627 0.07621,-1.15401c0.05081,-0.21774 0.18145,-0.39919 0.39193,-0.54434c0.21048,-0.14516 0.44636,-0.21774 0.70765,-0.21774c0.23951,0 0.48991,0.09798 0.75119,0.29395c0.26128,0.18871 0.39193,0.64595 0.39193,1.37175c0.8274,-1.11046 1.89432,-1.66569 3.20074,-1.66569c0.49354,0 0.97982,0.09435 1.45884,0.28306c0.48628,0.18871 0.88184,0.49354 1.18667,0.9145c0.30483,0.42096 0.48991,0.85643 0.55523,1.30642c0.07258,0.44999 0.10887,0.93264 0.10887,1.44795z" fill="#ffffff" stroke="none" stroke-width="1" stroke-linecap="square"/><path d="M167.92793,210.4695v-60.93899h144.14414v60.93899z" fill="none" stroke="none" stroke-width="none" stroke-linecap="butt"/></g></g></svg>