<svg version="1.1" xmlns="http://www.w3.org/2000/svg" xmlns:xlink="http://www.w3.org/1999/xlink" width="119.38453" height="186.63341" viewBox="0,0,119.38453,186.63341"><g transform="translate(-273.17651,-121.783)"><g data-paper-data="{&quot;isPaintingLayer&quot;:true}" fill-rule="nonzero" stroke-linejoin="miter" stroke-miterlimit="10" stroke-dasharray="" stroke-dashoffset="0" style="mix-blend-mode: normal"><path d="M375.75882,205.24677c1.34445,1.32412 1.48948,3.62596 0.43522,4.69642c-1.90563,1.9349 -11.12783,11.29874 -15.36228,15.59823c-0.80498,0.81735 -1.81698,1.07029 -2.89583,0.72772c-0.66736,-0.21191 -1.3603,-0.65167 -2.04565,-1.32665c-12.83819,-12.64399 -65.58644,-64.59432 -71.68935,-70.60492c-1.44437,-1.42252 -1.6587,-3.45415 -0.24555,-4.889c4.27566,-4.34133 13.15583,-13.3579 15.36228,-15.59823c0.97331,-0.98826 3.09676,-0.83853 4.03493,0.08545c5.74699,5.66006 60.86611,59.94539 72.40624,71.31096z" data-paper-data="{&quot;index&quot;:null}" fill="#313343" stroke="#ffffff" stroke-width="20.5" stroke-linecap="butt"/><path d="M375.35899,152.7813c-11.36557,11.54013 -65.6509,66.65925 -71.31096,72.40624c-0.92398,0.93818 -3.04491,1.12025 -4.03317,0.14694c-2.24033,-2.20645 -11.2569,-11.08662 -15.59823,-15.36228c-1.43485,-1.41315 -1.25151,-3.44781 0.17101,-4.89218c6.01059,-6.10291 57.96093,-58.85116 70.60492,-71.68935c0.67498,-0.68535 1.36113,-1.13562 2.02519,-1.35767c1.07351,-0.35897 2.08923,-0.12149 2.90658,0.6835c4.29949,4.23445 13.66334,13.45665 15.59823,15.36228c1.07046,1.05426 0.96053,3.35805 -0.36359,4.70251z" fill="#313343" stroke="#ffffff" stroke-width="20.5" stroke-linecap="butt"/><path d="M304.04803,225.18755c-0.92398,0.93818 -3.04491,1.12025 -4.03317,0.14694c-2.24033,-2.20645 -11.2569,-11.08662 -15.59823,-15.36228c-1.43485,-1.41315 -1.25151,-3.44781 0.17101,-4.89218c6.01059,-6.10291 57.96093,-58.85116 70.60492,-71.68935c0.67498,-0.68535 1.36113,-1.13562 2.02519,-1.35767c1.07351,-0.35897 2.08923,-0.12149 2.90658,0.6835c4.29949,4.23445 13.66334,13.45665 15.59823,15.36228c1.07046,1.05426 0.96053,3.35805 -0.36359,4.70251c0,0 -65.65088,66.65926 -71.31094,72.40625z" fill="#313343" stroke="#cf3305" stroke-width="18" stroke-linecap="butt"/><path d="M375.75882,205.24677c1.34445,1.32412 1.48948,3.62596 0.43522,4.69642c-1.90563,1.9349 -11.12783,11.29874 -15.36228,15.59823c-0.80498,0.81735 -1.81698,1.07029 -2.89583,0.72772c-0.66736,-0.21191 -1.3603,-0.65167 -2.04565,-1.32665c-12.83819,-12.64399 -65.58644,-64.59432 -71.68935,-70.60492c-1.44437,-1.42252 -1.6587,-3.45415 -0.24555,-4.889c4.27566,-4.34133 13.15583,-13.3579 15.36228,-15.59823c0.97331,-0.98826 3.09676,-0.83853 4.03493,0.08545c5.74699,5.66006 72.40623,71.31098 72.40623,71.31098z" data-paper-data="{&quot;index&quot;:null}" fill="#313343" stroke="#cf3305" stroke-width="18" stroke-linecap="butt"/><path d="M375.75882,205.24677c1.34445,1.32412 1.48948,3.62596 0.43522,4.69642c-1.90563,1.9349 -11.12783,11.29874 -15.36228,15.59823c-0.80498,0.81735 -1.81698,1.07029 -2.89583,0.72772c-0.66736,-0.21191 -1.3603,-0.65167 -2.04565,-1.32665c-12.83819,-12.64399 -65.58644,-64.59432 -71.68935,-70.60492c-1.44437,-1.42252 -1.6587,-3.45415 -0.24555,-4.889c4.27566,-4.34133 13.15583,-13.3579 15.36228,-15.59823c0.97331,-0.98826 3.09676,-0.83853 4.03493,0.08545c5.74699,5.66006 72.40623,71.31098 72.40623,71.31098z" data-paper-data="{&quot;index&quot;:null}" fill="#313343" stroke="#323245" stroke-width="10.5" stroke-linecap="butt"/><path d="M304.04803,225.18755c-0.92398,0.93818 -3.04491,1.12025 -4.03317,0.14694c-2.24033,-2.20645 -11.2569,-11.08662 -15.59823,-15.36228c-1.43485,-1.41315 -1.25151,-3.44781 0.17101,-4.89218c6.01059,-6.10291 57.96093,-58.85116 70.60492,-71.68935c0.67498,-0.68535 1.36113,-1.13562 2.02519,-1.35767c1.07351,-0.35897 2.08923,-0.12149 2.90658,0.6835c4.29949,4.23445 13.66334,13.45665 15.59823,15.36228c1.07046,1.05426 0.96053,3.35805 -0.36359,4.70251c0,0 -65.65088,66.65926 -71.31094,72.40625z" fill="#313343" stroke="#323245" stroke-width="10.5" stroke-linecap="butt"/><path d="M378.03522,149.22314l-77.88842,79.08472l-18.16811,-17.89329l77.88843,-79.08473z" fill="#556565" stroke="none" stroke-width="0" stroke-linecap="butt"/><path d="M368.41681,139.75022l-77.88843,79.08472l-8.5497,-8.42037l77.88843,-79.08473z" fill="#eeeeee" stroke="none" stroke-width="0" stroke-linecap="butt"/><path d="M368.46732,139.74982l-39.29505,39.8986l-8.5497,-8.42037l39.29505,-39.8986z" fill="#aabbbb" stroke="none" stroke-width="0" stroke-linecap="butt"/><path d="M304.04803,225.18755c-0.92398,0.93818 -3.04491,1.12025 -4.03317,0.14694c-2.24033,-2.20645 -11.2569,-11.08661 -15.59823,-15.36227c-1.43485,-1.41315 -1.25151,-3.44781 0.17101,-4.89218c6.01059,-6.10291 57.96093,-58.85117 70.60492,-71.68935c0.67498,-0.68535 1.36113,-1.13563 2.02519,-1.35768c1.07351,-0.35897 2.08923,-0.12148 2.90658,0.6835c4.29949,4.23445 13.66334,13.45665 15.59823,15.36228c1.07046,1.05426 0.96053,3.35805 -0.36359,4.70251c0,0 -65.65088,66.65926 -71.31094,72.40625z" fill="none" stroke="#323245" stroke-width="5" stroke-linecap="butt"/><path d="M360.59572,226.93185l-79.08472,-77.88842l17.89328,-18.16811l79.08473,77.88843z" data-paper-data="{&quot;index&quot;:null}" fill="#556565" stroke="none" stroke-width="0" stroke-linecap="butt"/><path d="M360.59573,226.93185l-79.08473,-77.88843l8.42037,-8.5497l79.08473,77.88843z" data-paper-data="{&quot;index&quot;:null}" fill="#eeeeee" stroke="none" stroke-width="0" stroke-linecap="butt"/><path d="M358.43606,229.12469l-39.8986,-39.29506l10.52546,-10.68712l39.8986,39.29506z" fill="#aabbbb" stroke="none" stroke-width="0" stroke-linecap="butt"/><path d="M375.75882,205.24674c1.34445,1.32412 1.48948,3.62597 0.43522,4.69643c-1.90563,1.9349 -11.12783,11.29874 -15.36228,15.59823c-0.80498,0.81735 -1.81698,1.07028 -2.89583,0.72772c-0.66736,-0.21191 -1.3603,-0.65167 -2.04565,-1.32665c-12.83819,-12.64399 -65.58644,-64.59432 -71.68935,-70.60491c-1.44437,-1.42252 -1.6587,-3.45415 -0.24555,-4.889c4.27566,-4.34133 13.15583,-13.3579 15.36228,-15.59823c0.97331,-0.98826 3.09676,-0.83853 4.03493,0.08545c5.74699,5.66006 72.40623,71.31097 72.40623,71.31097z" data-paper-data="{&quot;index&quot;:null}" fill="none" stroke="#323245" stroke-width="5" stroke-linecap="butt"/><path d="M316.16728,192.8015l-8.07471,-7.95257l13.2153,-13.41827l8.07471,7.95256z" fill="#eeeeee" stroke="none" stroke-width="0" stroke-linecap="butt"/><path d="M346.74807,179.17544l-34.88293,0.26584" fill="#bebfc4" stroke="#dbdfe3" stroke-width="2.5" stroke-linecap="round"/><path d="M309.54749,183.38115l-5.27231,-5.19256l3.78916,-3.84736l5.27231,5.19256z" fill="#323245" stroke="none" stroke-width="0" stroke-linecap="butt"/><path d="M347.54976,181.01767c8.86832,-9.00455 17.99432,-18.27071 22.9006,-23.25234" fill="none" stroke="#323245" stroke-width="5" stroke-linecap="butt"/><path d="M329.17369,161.86689l0.26585,34.88293" data-paper-data="{&quot;index&quot;:null}" fill="#bebfc4" stroke="#dbdfe3" stroke-width="2.5" stroke-linecap="round"/><path d="M326.16066,156.39882c7.92371,7.80385 26.69396,26.29017 33.42505,32.91945" data-paper-data="{&quot;index&quot;:null}" fill="none" stroke="#323245" stroke-width="5" stroke-linecap="butt"/><path d="M330.39458,178.40319l-0.0925,-14.40247l-0.85279,-0.8535l3.89462,-4.01551l8.13748,8.01438z" fill="#dbdfe3" stroke="none" stroke-width="0" stroke-linecap="butt"/><path d="M330.39457,178.4032l-0.06816,-16.14657l3.11773,-3.2267l8.13748,8.01439z" fill="#aabbbb" stroke="none" stroke-width="0" stroke-linecap="butt"/><path d="M341.47075,167.13561l8.13748,8.01439l-3.95569,3.95537l-0.8664,-0.83968l-14.40221,0.12702z" data-paper-data="{&quot;index&quot;:null}" fill="#dbdfe3" stroke="none" stroke-width="0" stroke-linecap="butt"/><path d="M341.57098,167.03382l8.13748,8.01439l-3.17881,3.16655l-16.14573,0.17795z" data-paper-data="{&quot;index&quot;:null}" fill="#556565" stroke="none" stroke-width="0" stroke-linecap="butt"/><path d="M328.09591,180.99165l0.09251,14.40247l0.85278,0.8535l-3.89462,4.01552l-8.13748,-8.01439z" data-paper-data="{&quot;index&quot;:null}" fill="#dbdfe3" stroke="none" stroke-width="0" stroke-linecap="butt"/><path d="M328.06401,180.81985l0.06901,16.34913l-3.15684,3.26718l-8.23956,-8.11492z" data-paper-data="{&quot;index&quot;:null}" fill="#556565" stroke="none" stroke-width="0" stroke-linecap="butt"/><path d="M350.01061,219.15173c-7.10287,-6.99541 -14.85001,-14.62537 -22.06491,-21.73113" data-paper-data="{&quot;index&quot;:null}" fill="none" stroke="#323245" stroke-width="5" stroke-linecap="butt"/><g stroke-linecap="square"><path d="M310.13464,272.96525v-0.7008c0,-2.47877 1.09663,-3.71816 3.28989,-3.71816c0.84357,0 1.55085,0.20117 2.12188,0.60348c0.57103,0.40231 0.91494,0.92791 1.03174,1.57681c0.1168,0.63591 0.1752,1.61574 0.1752,2.93948v26.22178c0,2.1673 -0.27254,3.62731 -0.81761,4.38003c-0.53209,0.76569 -1.36916,1.14854 -2.51121,1.14854c-1.01227,0 -1.81691,-0.292 -2.41388,-0.87601c-0.584,-0.584 -0.87601,-2.06997 -0.87601,-4.4579v-8.66272c-2.50473,2.75131 -5.41177,4.12696 -8.72112,4.12696c-3.45211,0 -6.158,-1.2329 -8.11765,-3.69869c-1.95965,-2.47877 -2.93949,-5.65186 -2.93949,-9.51927c0,-4.06207 0.9993,-7.37142 2.99789,-9.92806c1.99859,-2.56961 4.70447,-3.85443 8.11765,-3.85443c3.42615,0 6.31374,1.47299 8.66272,4.41896zM309.7453,281.72531c0,-2.55664 -0.61644,-4.54874 -1.84934,-5.97631c-1.2329,-1.42756 -2.79673,-2.14134 -4.6915,-2.14134c-1.62223,0 -3.0498,0.7008 -4.2827,2.10241c-1.2329,1.40161 -1.84934,3.56242 -1.84934,6.48244c0,2.5826 0.56454,4.60714 1.69361,6.07364c1.14205,1.4665 2.60206,2.19975 4.38003,2.19975c2.01157,0 3.61433,-0.78516 4.8083,-2.35548c1.19396,-1.5833 1.79095,-3.71167 1.79095,-6.38511zM322.63232,285.67708v-11.66062c0,-1.44054 0.0584,-2.47877 0.1752,-3.11468c0.1168,-0.6489 0.46071,-1.20046 1.03173,-1.65468c0.584,-0.46721 1.27831,-0.70081 2.08294,-0.70081c0.77867,0 1.46001,0.22063 2.04402,0.66188c0.59698,0.42827 0.96685,0.99929 1.1096,1.71307c0.14276,0.71378 0.21414,1.79094 0.21414,3.23149v9.12992c0,2.99789 0.46071,4.91861 1.38214,5.76218c0.93441,0.84357 1.96614,1.26534 3.09522,1.26534c1.27184,0 2.38792,-0.3569 3.34829,-1.07068c0.97334,-0.72676 1.63521,-1.59627 1.98561,-2.60855c0.3504,-1.01227 0.52561,-3.01087 0.52561,-5.99578v-6.61871c0,-1.41458 0.06489,-2.4593 0.19466,-3.13415c0.14276,-0.67485 0.50613,-1.2329 1.09014,-1.67414c0.584,-0.44125 1.27183,-0.66188 2.06348,-0.66188c0.76569,0 1.44054,0.22063 2.02455,0.66188c0.59698,0.42827 0.95387,0.97334 1.07067,1.63521c0.12977,0.64889 0.19466,1.70658 0.19466,3.17308v16.39105c0,1.3497 -0.06489,2.32952 -0.19466,2.93948c-0.12978,0.59698 -0.45423,1.1161 -0.97334,1.55734c-0.50613,0.42827 -1.14854,0.6424 -1.92721,0.6424c-2.14134,0 -3.1666,-1.53138 -3.07576,-4.59416c-2.23219,3.06278 -5.16519,4.59416 -8.79899,4.59416c-2.4009,0 -4.44492,-0.71378 -6.13204,-2.14135c-1.68712,-1.44054 -2.53067,-4.01665 -2.53067,-7.72831zM356.29527,258.94916c0.85654,0 1.60277,0.32444 2.23868,0.97334c0.63592,0.64889 0.95388,1.40161 0.95388,2.25815c0,0.89547 -0.31796,1.66765 -0.95388,2.31655c-0.63591,0.63591 -1.38214,0.95387 -2.23868,0.95387c-0.89547,0 -1.66766,-0.31796 -2.31655,-0.95387c-0.63592,-0.6489 -0.95387,-1.42107 -0.95387,-2.31655c0,-0.86951 0.31795,-1.62223 0.95387,-2.25815c0.64889,-0.6489 1.42107,-0.97334 2.31655,-0.97334zM359.58516,273.95806v16.09904c0,1.5833 -0.07787,2.66695 -0.2336,3.25095c-0.14276,0.584 -0.51263,1.10312 -1.10961,1.55734c-0.59698,0.45423 -1.24587,0.68134 -1.94668,0.68134c-0.71378,0 -1.38214,-0.22062 -2.00508,-0.66187c-0.60996,-0.45423 -0.99281,-0.97983 -1.14854,-1.57681c-0.14276,-0.59698 -0.21414,-1.68063 -0.21414,-3.25095v-16.04064c0,-1.47947 0.0584,-2.52419 0.1752,-3.13415c0.1168,-0.60996 0.46721,-1.14854 1.05121,-1.61574c0.59698,-0.48018 1.28481,-0.72028 2.06348,-0.72028c0.79165,0 1.47298,0.21413 2.04401,0.6424c0.57103,0.42827 0.9344,0.97334 1.09014,1.63521c0.15573,0.64889 0.2336,1.6936 0.2336,3.13415zM367.54221,269.13029v-3.99069c0,-1.64818 0.06489,-2.76428 0.19466,-3.34829c0.14276,-0.59698 0.49964,-1.12258 1.07067,-1.57681c0.58401,-0.4672 1.26535,-0.70081 2.04402,-0.70081c0.71378,0 1.35618,0.21413 1.92721,0.6424c0.57103,0.41529 0.94739,0.92143 1.12908,1.51841c0.18169,0.59698 0.27253,1.57032 0.27253,2.92002v4.53576h1.28481c1.62224,0 2.69939,0.20116 3.23149,0.60347c0.54507,0.38934 0.81761,0.96685 0.81761,1.73254c0,1.63521 -1.36268,2.45282 -4.08803,2.45282h-1.24588v12.26408c0,1.64819 0.1168,2.77726 0.3504,3.38722c0.2336,0.59698 0.86303,0.89548 1.88828,0.89548c0.48018,0 1.02525,-0.0649 1.63521,-0.19467c0.60996,-0.14276 1.06418,-0.21413 1.36268,-0.21413c0.66187,0 1.20045,0.22063 1.61574,0.66187c0.4153,0.42827 0.62294,0.95388 0.62294,1.57681c0,2.1673 -2.29708,3.25095 -6.89125,3.25095c-2.21921,0 -3.85443,-0.40881 -4.90563,-1.22641c-1.05121,-0.83058 -1.70011,-1.83637 -1.94668,-3.01735c-0.24658,-1.19396 -0.36987,-2.73832 -0.36987,-4.63309v-12.75075h-0.87601c-1.97263,0 -2.95895,-0.80463 -2.95895,-2.41388c0,-1.5833 1.03174,-2.37495 3.09522,-2.37495z" fill="#000000" stroke="#000000" stroke-width="6"/><path d="M310.13463,272.96525v-0.7008c0,-2.47877 1.09663,-3.71816 3.28989,-3.71816c0.84356,0 1.55085,0.20116 2.12188,0.60347c0.57103,0.40231 0.91494,0.92792 1.03174,1.57681c0.1168,0.63591 0.1752,1.61574 0.1752,2.93949v26.22178c0,2.16731 -0.27254,3.62731 -0.81761,4.38003c-0.53209,0.7657 -1.36917,1.14854 -2.51122,1.14854c-1.01227,0 -1.8169,-0.292 -2.41388,-0.87601c-0.584,-0.584 -0.87601,-2.06997 -0.87601,-4.4579v-8.66272c-2.50473,2.75131 -5.41177,4.12696 -8.72112,4.12696c-3.45211,0 -6.158,-1.2329 -8.11765,-3.69869c-1.95966,-2.47877 -2.93949,-5.65186 -2.93949,-9.51927c0,-4.06207 0.9993,-7.37142 2.99789,-9.92807c1.99859,-2.56962 4.70447,-3.85443 8.11765,-3.85443c3.42616,0 6.31373,1.47299 8.66272,4.41896zM309.74529,281.72531c0,-2.55664 -0.61645,-4.54874 -1.84935,-5.97631c-1.2329,-1.42757 -2.79673,-2.14135 -4.6915,-2.14135c-1.62224,0 -3.0498,0.7008 -4.28269,2.10241c-1.2329,1.40161 -1.84935,3.56242 -1.84935,6.48244c0,2.5826 0.56454,4.60715 1.69361,6.07365c1.14205,1.4665 2.60206,2.19975 4.38003,2.19975c2.01157,0 3.61433,-0.78516 4.8083,-2.35548c1.19397,-1.5833 1.79095,-3.71167 1.79095,-6.38512zM322.63231,285.67707v-11.66062c0,-1.44054 0.0584,-2.47877 0.1752,-3.11469c0.1168,-0.6489 0.46071,-1.20045 1.03173,-1.65468c0.584,-0.4672 1.27832,-0.7008 2.08295,-0.7008c0.77867,0 1.46001,0.22063 2.04401,0.66187c0.59698,0.42827 0.96685,0.9993 1.10961,1.71308c0.14276,0.71378 0.21413,1.79095 0.21413,3.23149v9.12993c0,2.99789 0.46071,4.91861 1.38214,5.76218c0.93441,0.84356 1.96615,1.26534 3.09522,1.26534c1.27183,0 2.38792,-0.35689 3.34829,-1.07067c0.97334,-0.72676 1.63521,-1.59628 1.98561,-2.60855c0.3504,-1.01227 0.5256,-3.01087 0.5256,-5.99578v-6.61871c0,-1.41459 0.06489,-2.45931 0.19467,-3.13415c0.14276,-0.67485 0.50614,-1.2329 1.09014,-1.67414c0.584,-0.44125 1.27183,-0.66187 2.06348,-0.66187c0.7657,0 1.44054,0.22063 2.02455,0.66187c0.59698,0.42827 0.95387,0.97334 1.07067,1.63521c0.12978,0.6489 0.19467,1.70659 0.19467,3.17309v16.39105c0,1.3497 -0.06489,2.32952 -0.19467,2.93949c-0.12978,0.59698 -0.45423,1.1161 -0.97334,1.55734c-0.50614,0.42827 -1.14854,0.6424 -1.92721,0.6424c-2.14135,0 -3.1666,-1.53139 -3.07575,-4.59416c-2.23219,3.06278 -5.16519,4.59416 -8.79899,4.59416c-2.40091,0 -4.44492,-0.71378 -6.13204,-2.14135c-1.68712,-1.44054 -2.53068,-4.01665 -2.53068,-7.72832zM356.29526,258.94916c0.85654,0 1.60277,0.32444 2.23868,0.97334c0.63591,0.6489 0.95387,1.40161 0.95387,2.25815c0,0.89547 -0.31796,1.66765 -0.95387,2.31655c-0.63591,0.63591 -1.38214,0.95387 -2.23868,0.95387c-0.89547,0 -1.66765,-0.31796 -2.31655,-0.95387c-0.63591,-0.6489 -0.95387,-1.42108 -0.95387,-2.31655c0,-0.86951 0.31796,-1.62224 0.95387,-2.25815c0.6489,-0.6489 1.42108,-0.97334 2.31655,-0.97334zM359.58515,273.95806v16.09905c0,1.5833 -0.07787,2.66695 -0.2336,3.25095c-0.14276,0.584 -0.51263,1.10312 -1.10961,1.55734c-0.59698,0.45423 -1.24587,0.68134 -1.94668,0.68134c-0.71378,0 -1.38214,-0.22063 -2.00508,-0.66187c-0.60996,-0.45423 -0.99281,-0.97983 -1.14854,-1.57681c-0.14276,-0.59698 -0.21413,-1.68064 -0.21413,-3.25095v-16.04065c0,-1.47948 0.0584,-2.52419 0.1752,-3.13415c0.1168,-0.60996 0.4672,-1.14854 1.05121,-1.61574c0.59698,-0.48018 1.28481,-0.72027 2.06348,-0.72027c0.79165,0 1.47299,0.21413 2.04401,0.6424c0.57103,0.42827 0.93441,0.97334 1.09014,1.63521c0.15573,0.6489 0.2336,1.69361 0.2336,3.13415zM367.5422,269.13029v-3.99069c0,-1.64819 0.06489,-2.76428 0.19467,-3.34829c0.14276,-0.59698 0.49965,-1.12258 1.07067,-1.57681c0.584,-0.4672 1.26534,-0.7008 2.04401,-0.7008c0.71378,0 1.35618,0.21413 1.92721,0.6424c0.57103,0.41529 0.94738,0.92143 1.12907,1.51841c0.18169,0.59698 0.27254,1.57032 0.27254,2.92002v4.53576h1.28481c1.62224,0 2.69939,0.20116 3.23149,0.60347c0.54507,0.38934 0.81761,0.96685 0.81761,1.73254c0,1.63521 -1.36268,2.45282 -4.08803,2.45282h-1.24587v12.26409c0,1.64819 0.1168,2.77726 0.3504,3.38722c0.2336,0.59698 0.86303,0.89547 1.88828,0.89547c0.48018,0 1.02525,-0.06489 1.63521,-0.19467c0.60996,-0.14276 1.06418,-0.21413 1.36268,-0.21413c0.66187,0 1.20045,0.22063 1.61574,0.66187c0.41529,0.42827 0.62294,0.95387 0.62294,1.57681c0,2.16731 -2.29708,3.25095 -6.89125,3.25095c-2.21921,0 -3.85443,-0.4088 -4.90563,-1.22641c-1.05121,-0.83058 -1.7001,-1.83637 -1.94668,-3.01735c-0.24658,-1.19397 -0.36987,-2.73833 -0.36987,-4.6331v-12.75076h-0.87601c-1.97264,0 -2.95895,-0.80463 -2.95895,-2.41388c0,-1.5833 1.03174,-2.37495 3.09522,-2.37495z" fill="#ffffff" stroke="none" stroke-width="1"/></g></g></g></svg>