<svg version="1.1" xmlns="http://www.w3.org/2000/svg" xmlns:xlink="http://www.w3.org/1999/xlink" width="215.07508" height="143.00001" viewBox="0,0,215.07508,143.00001"><g transform="translate(-146.5,-114.40001)"><g data-paper-data="{&quot;isPaintingLayer&quot;:true}" fill-rule="nonzero" stroke-linejoin="miter" stroke-miterlimit="10" stroke-dasharray="" stroke-dashoffset="0" style="mix-blend-mode: normal"><g stroke="#f3e004" stroke-width="10"><path d="M231.15468,153.16892c0,0 5.85465,-11.96815 12.14894,-12.02955c7.32598,-0.07145 11.28722,11.81255 11.28722,11.81255" fill="#5c8e97" stroke-linecap="round"/><path d="M298.64215,179.53459c0,2.83655 0.85478,12.09368 -1.3715,14.42326c-1.84719,1.9329 -6.49645,-3.06212 -9.32801,-0.83669c-11.29082,8.87385 -11.44945,12.54373 -26.60319,13.46084c-0.49079,0.02971 -10.32861,7.2872 -17.6048,8.27896c-5.31157,0.72398 -12.7475,-4.79674 -14.51808,-4.92885c-20.30486,-1.51506 -31.48012,-11.51697 -31.48012,-25.40648c0,-15.10067 19.28524,-27.34219 43.07479,-27.34219c23.78956,0 57.8309,7.25048 57.8309,22.35115z" fill="#5d8f97" stroke-linecap="butt"/><path d="M287.14106,170.96304c0,0.62436 -0.06278,1.24176 -0.18552,1.85086c-1.96237,9.73806 -19.2496,17.35378 -40.28526,17.35378c-4.81884,0 -9.99556,-0.41313 -14.96036,-1.19946c-6.79915,-1.07685 -13.20086,-2.85361 -17.74168,-5.22772c-7.52299,-3.9333 -9.72174,-9.54228 -9.72174,-14.73047c0,-10.60643 20.0724,-17.25162 42.42379,-17.25162c12.91041,0 23.54088,3.51966 30.95116,7.98702c5.4189,3.26683 9.51962,6.73758 9.51962,11.21761z" fill="#a9c6cb" stroke-linecap="butt"/><path d="M292.34909,172.15655c0,5.1534 -2.71714,9.76507 -5.53353,9.76507c-2.81639,0 -6.83555,-4.61166 -6.83555,-9.76507c0,-2.61534 1.23904,-5.63038 2.18638,-7.32459c0.91935,-1.64415 3.26209,-1.57247 4.64917,-1.57247c2.8164,0 5.53353,3.74365 5.53353,8.89706z" fill="#97b0b5" stroke-linecap="butt"/><path d="M298.39652,188.1594c0.01721,2.85783 -0.60392,5.44619 -3.89056,5.52324c-1.89412,0.04441 -6.48243,-1.16547 -6.48243,-1.16547c0,0 -0.62642,3.07406 -10.65949,9.06623c-8.06,4.81377 -19.23476,6.33663 -19.23476,6.33663c0,0 0.0017,5.95096 -15.79902,7.68335c-8.77155,0.96171 -12.96049,-5.5161 -12.96049,-5.5161c0,0 -26.86275,0.76067 -33.58634,-26.05762c-2.10214,-8.38475 1.1743,-17.10909 9.94939,-21.98329c7.65804,-5.55498 24.54436,-8.84958 39.20145,-8.72242c25.01163,0.217 36.16171,10.03997 36.16171,10.03997c0,0 14.08677,-1.4153 16.89515,19.58074c0,0 0.39322,3.19534 0.40538,5.21474z" fill="none" stroke-linecap="butt"/><path d="M281.49902,180.0771c0,0 -4.44165,4.60761 -12.09747,7.05735c-7.91545,2.53283 -14.15971,3.14172 -14.15971,3.14172" fill="none" stroke-linecap="round"/><path d="M287.79206,193.31419c0,0 -1.06797,-4.37143 -2.71757,-7.86095c-1.7061,-3.60905 -4.00413,-7.6826 -4.52773,-10.20378c-1.72161,-8.28975 2.03726,-12.31548 2.03726,-12.31548" fill="none" stroke-linecap="round"/><path d="M233.54169,189.54765c0,0 -21.43157,-1.42343 -26.8808,-10.64051c-11.65908,-19.72072 19.93676,-24.06418 19.93676,-24.06418" fill="none" stroke-linecap="round"/><path d="M202.18497,163.91049l1.78565,10.58252c0,0 -2.19645,2.17273 -4.22979,5.63556c-3.32419,5.66116 -4.42284,8.68114 -4.72779,8.82204c-1.62048,0.74874 -4.18623,1.6093 -6.90829,1.24714c-1.58605,-0.21102 -7.93465,-2.43565 -8.70942,-6.63621c-1.37374,-7.448 4.54102,-19.24715 12.5906,-23.77403c6.08521,-3.42217 10.41604,3.90598 10.41604,3.90598" fill="#61949d" stroke-linecap="round"/><path d="M202.18497,163.91049l1.13464,5.37448c0,0 -2.1432,6.73687 -9.37927,9.22844c-6.2676,2.1581 -13.37461,-4.67669 -12.18337,-7.13776c2.2999,-4.75153 5.9649,-9.19017 10.22895,-11.58816c6.08521,-3.42217 10.41604,3.90599 10.41604,3.90599" fill="#adcacf" stroke-linecap="round"/><path d="M202.18497,163.91049l1.78565,10.58252c0,0 -2.19645,2.17273 -4.22979,5.63556c-3.32418,5.66116 -4.42284,8.68114 -4.72779,8.82204c-1.62048,0.74874 -4.18623,1.6093 -6.90829,1.24714c-1.58605,-0.21102 -7.93465,-2.43565 -8.70942,-6.63621c-1.37374,-7.448 4.54102,-19.24715 12.5906,-23.77403c6.08521,-3.42217 10.41604,3.90598 10.41604,3.90598" fill="none" stroke-linecap="round"/><path d="M203.92099,163.25949c0,0 -0.8895,0.99214 -0.84068,5.31833c0.05474,4.85058 0.89031,5.91519 0.89031,5.91519c0,0 -2.19645,2.17273 -4.22979,5.63556c-3.32419,5.66116 -4.42284,8.68114 -4.72779,8.82204c-1.62048,0.74874 -4.18623,1.6093 -6.90829,1.24714c-1.58605,-0.21102 -7.93465,-2.43565 -8.70942,-6.63621c-1.37374,-7.448 4.54102,-19.24715 12.5906,-23.77403c6.08521,-3.42217 12.58606,4.774 12.58606,4.774" fill="none" stroke-linecap="round"/><g stroke-linecap="butt"><path d="M275.24541,170.64363c0,6.89118 -14.03888,12.47759 -31.35672,12.47759c-17.31784,0 -31.35672,-5.58641 -31.35672,-12.47759c0,-6.89118 14.03888,-12.47759 31.35672,-12.47759c17.31784,0 31.35672,5.58641 31.35672,12.47759z" fill="#81ca9f"/><path d="M217.30601,169.99262c0,-2.21716 4.32339,-4.01453 9.65657,-4.01453c5.33318,0 9.65657,1.79737 9.65657,4.01453c0,2.21716 -4.32339,4.01452 -9.65656,4.01452c-5.33318,0 -9.65656,-1.79736 -9.65656,-4.01452z" fill="#439a67"/><path d="M228.59009,184.85722z" fill="#439a67"/><path d="M251.80924,169.99262c0,-1.06244 0.99276,-2.0285 2.61366,-2.74657c1.76167,-0.78044 4.26534,-1.26796 7.0429,-1.26796c5.33317,0 9.65657,1.79737 9.65657,4.01453c0,2.21716 -4.32339,4.01452 -9.65656,4.01452c-5.33317,0 -9.65657,-1.79736 -9.65657,-4.01452z" fill="#439a67"/><path d="M249.42223,162.61457c0,2.21716 -3.15754,4.01452 -7.05255,4.01452c-1.93472,0 -2.81946,-0.87745 -4.09368,-1.59555c-1.29107,-0.72759 -2.95886,-1.30311 -2.95886,-2.41897c0,-2.21716 3.15753,-4.01453 7.05255,-4.01453c3.89501,0 7.05255,1.79737 7.05255,4.01453z" fill="#439a67"/><path d="M232.27911,178.45568c0,-2.09732 7.30963,-5.09954 12.04358,-5.09954c4.73395,0 8.57156,1.70021 8.57156,3.79753c0,2.09732 -3.83762,3.79753 -8.57156,3.79753c-4.73395,0 -12.04358,-0.3982 -12.04358,-2.49552z" fill="#439a67"/><path d="M275.24541,170.64363c0,6.89118 -14.03888,12.47759 -31.35672,12.47759c-17.31784,0 -31.35672,-5.58641 -31.35672,-12.47759c0,-6.89118 14.03888,-12.47759 31.35672,-12.47759c17.31784,0 31.35672,5.58641 31.35672,12.47759z" fill="none"/><path d="M260.7063,162.50607c0,0.4928 -4.66923,2.88525 -8.70432,4.9546c-2.83414,1.45345 -5.35543,2.85745 -5.72628,2.85745c-0.89885,0 -1.62751,-0.68008 -1.62751,-1.51901c0,-0.42469 4.11516,-2.46409 8.17907,-4.05141c3.9639,-1.54826 7.87904,-2.65588 7.87904,-2.24164z" fill="#cae3d6"/><path d="M227.52704,175.6845c0,-0.33035 4.15806,-1.93415 7.7514,-3.32136c2.52386,-0.97433 4.76914,-1.91553 5.0994,-1.91553c0.80045,0 1.44934,0.45591 1.44934,1.01829c0,0.28469 -3.66465,1.65182 -7.28365,2.7159c-3.52996,1.03789 -7.01648,1.78039 -7.01648,1.5027z" data-paper-data="{&quot;index&quot;:null}" fill="#cae3d6"/><path d="M254.78026,174.46278c-4.06391,-1.02047 -8.17906,-2.33159 -8.17906,-2.60461c0,-0.53933 0.72866,-0.97655 1.62751,-0.97655c0.37085,0 2.89214,0.90262 5.72628,1.83703c4.03509,1.33036 8.70432,2.86844 8.70432,3.18526c0,0.26631 -3.91514,-0.44576 -7.87905,-1.44112z" data-paper-data="{&quot;index&quot;:null}" fill="#cae3d6"/><path d="M234.95011,164.3137c4.06391,1.58732 8.17907,3.62672 8.17907,4.05141c0,0.83893 -0.72866,1.51901 -1.62751,1.51901c-0.37085,0 -2.89214,-1.40401 -5.72628,-2.85746c-4.03509,-2.06935 -10.65733,-4.0278 -10.65733,-4.52059c0,-0.41424 5.86815,0.25938 9.83206,1.80764z" data-paper-data="{&quot;index&quot;:null}" fill="#cae3d6"/></g><path d="M242.98126,200.36674c-4.12633,0.26308 -9.22256,-4.65385 -9.22256,-8.78856c0,-4.1347 3.56885,-10.74157 7.70355,-10.74157c3.40533,0 9.31765,3.14159 10.22576,6.25359c0.1945,0.66655 1.504,12.62553 -8.70675,13.27654z" fill="#a1bdc1" stroke-linecap="butt"/><path d="M229.20166,208.8298c0,0 1.67885,-27.98746 14.14007,-27.70438c13.1652,0.29907 14.07012,27.27038 14.07012,27.27038" fill="none" stroke-linecap="round"/><path d="M243.74076,150.8687c-3.83509,0 -6.94405,-2.13741 -6.94405,-4.77403c0,-2.63663 3.10896,-4.77403 6.94405,-4.77403c3.83509,0 6.94404,2.13741 6.94404,4.77403c0,2.63663 -3.10895,4.77403 -6.94404,4.77403z" fill="#a5c1c6" stroke-linecap="butt"/><path d="M231.15468,153.16892c0,0 5.85465,-11.96815 12.14894,-12.02955c7.32598,-0.07145 11.28722,11.81255 11.28722,11.81255" fill="none" stroke-linecap="round"/></g><path d="M146.5,257.40002v-143h140v143z" fill="none" stroke="none" stroke-width="0" stroke-linecap="butt"/><path d="M146.5,257.40003v-143h215.07508v143z" fill="none" stroke="none" stroke-width="0" stroke-linecap="butt"/><g><path d="M231.15468,153.16893c0,0 5.85465,-11.96815 12.14894,-12.02955c7.32598,-0.07145 11.28722,11.81255 11.28722,11.81255" fill="#5c8e97" stroke="#000000" stroke-width="3.5" stroke-linecap="round"/><path d="M298.64215,179.5346c0,2.83655 0.85478,12.09368 -1.3715,14.42326c-1.84719,1.9329 -6.49645,-3.06212 -9.32801,-0.83669c-11.29082,8.87385 -11.44945,12.54373 -26.60319,13.46084c-0.49079,0.02971 -10.32861,7.2872 -17.6048,8.27896c-5.31157,0.72398 -12.7475,-4.79674 -14.51808,-4.92885c-20.30486,-1.51506 -31.48012,-11.51697 -31.48012,-25.40648c0,-15.10067 19.28524,-27.34219 43.07479,-27.34219c23.78956,0 57.8309,7.25048 57.8309,22.35115z" fill="#5d8f97" stroke="none" stroke-width="3.5" stroke-linecap="butt"/><path d="M287.14106,170.96305c0,0.62436 -0.06278,1.24176 -0.18552,1.85086c-1.96237,9.73806 -19.2496,17.35378 -40.28526,17.35378c-4.81884,0 -9.99556,-0.41313 -14.96036,-1.19946c-6.79915,-1.07685 -13.20086,-2.85361 -17.74168,-5.22772c-7.52299,-3.9333 -9.72174,-9.54228 -9.72174,-14.73047c0,-10.60643 20.0724,-17.25162 42.42379,-17.25162c12.91041,0 23.54088,3.51966 30.95116,7.98702c5.4189,3.26683 9.51962,6.73758 9.51962,11.21761z" fill="#a9c6cb" stroke="none" stroke-width="3.5" stroke-linecap="butt"/><path d="M292.34909,172.15656c0,5.1534 -2.71714,9.76507 -5.53353,9.76507c-2.81639,0 -6.83555,-4.61166 -6.83555,-9.76507c0,-2.61534 1.23904,-5.63038 2.18638,-7.32459c0.91935,-1.64415 3.26209,-1.57247 4.64917,-1.57247c2.8164,0 5.53353,3.74365 5.53353,8.89706z" fill="#97b0b5" stroke="none" stroke-width="0" stroke-linecap="butt"/><path d="M298.39652,188.15941c0.01721,2.85783 -0.60392,5.44619 -3.89056,5.52324c-1.89412,0.04441 -6.48243,-1.16547 -6.48243,-1.16547c0,0 -0.62642,3.07406 -10.65949,9.06623c-8.06,4.81377 -19.23476,6.33663 -19.23476,6.33663c0,0 0.0017,5.95096 -15.79902,7.68335c-8.77155,0.96171 -12.96049,-5.5161 -12.96049,-5.5161c0,0 -26.86275,0.76067 -33.58634,-26.05762c-2.10214,-8.38475 1.1743,-17.10909 9.94939,-21.98329c7.65804,-5.55498 24.54436,-8.84958 39.20145,-8.72242c25.01163,0.217 36.16171,10.03997 36.16171,10.03997c0,0 14.08677,-1.4153 16.89515,19.58074c0,0 0.39322,3.19534 0.40538,5.21474z" fill="none" stroke="#000000" stroke-width="3.5" stroke-linecap="butt"/><path d="M281.49902,180.07711c0,0 -4.44165,4.60761 -12.09747,7.05735c-7.91545,2.53283 -14.15971,3.14172 -14.15971,3.14172" fill="none" stroke="#000000" stroke-width="3.5" stroke-linecap="round"/><path d="M287.79206,193.3142c0,0 -1.06797,-4.37143 -2.71757,-7.86095c-1.7061,-3.60905 -4.00413,-7.6826 -4.52773,-10.20378c-1.72161,-8.28975 2.03726,-12.31548 2.03726,-12.31548" fill="none" stroke="#000000" stroke-width="3.5" stroke-linecap="round"/><path d="M233.54169,189.54766c0,0 -21.43157,-1.42343 -26.8808,-10.64051c-11.65908,-19.72072 19.93676,-24.06418 19.93676,-24.06418" fill="none" stroke="#000000" stroke-width="3.5" stroke-linecap="round"/><path d="M202.18497,163.9105l1.78565,10.58252c0,0 -2.19645,2.17273 -4.22979,5.63556c-3.32419,5.66116 -4.42284,8.68114 -4.72779,8.82204c-1.62048,0.74874 -4.18623,1.6093 -6.90829,1.24714c-1.58605,-0.21102 -7.93465,-2.43565 -8.70942,-6.63621c-1.37374,-7.448 4.54102,-19.24715 12.5906,-23.77403c6.08521,-3.42217 10.41604,3.90598 10.41604,3.90598" fill="#61949d" stroke="none" stroke-width="3.5" stroke-linecap="round"/><path d="M202.18497,163.9105l1.13464,5.37448c0,0 -2.1432,6.73687 -9.37927,9.22844c-6.2676,2.1581 -13.37461,-4.67669 -12.18337,-7.13776c2.2999,-4.75153 5.9649,-9.19017 10.22895,-11.58816c6.08521,-3.42217 10.41604,3.90599 10.41604,3.90599" fill="#adcacf" stroke="none" stroke-width="0" stroke-linecap="round"/><path d="M202.18497,163.9105l1.78565,10.58252c0,0 -2.19645,2.17273 -4.22979,5.63556c-3.32418,5.66116 -4.42284,8.68114 -4.72779,8.82204c-1.62048,0.74874 -4.18623,1.6093 -6.90829,1.24714c-1.58605,-0.21102 -7.93465,-2.43565 -8.70942,-6.63621c-1.37374,-7.448 4.54102,-19.24715 12.5906,-23.77403c6.08521,-3.42217 10.41604,3.90598 10.41604,3.90598" fill="none" stroke="none" stroke-width="3.5" stroke-linecap="round"/><path d="M203.92099,163.25949c0,0 -0.8895,0.99214 -0.84068,5.31833c0.05474,4.85058 0.89031,5.91519 0.89031,5.91519c0,0 -2.19645,2.17273 -4.22979,5.63556c-3.32419,5.66116 -4.42284,8.68114 -4.72779,8.82204c-1.62048,0.74874 -4.18623,1.6093 -6.90829,1.24714c-1.58605,-0.21102 -7.93465,-2.43565 -8.70942,-6.63621c-1.37374,-7.448 4.54102,-19.24715 12.5906,-23.77403c6.08521,-3.42217 12.58606,4.774 12.58606,4.774" fill="none" stroke="#000000" stroke-width="3.5" stroke-linecap="round"/><g stroke-width="2" stroke-linecap="butt"><path d="M275.24541,170.64364c0,6.89118 -14.03888,12.47759 -31.35672,12.47759c-17.31784,0 -31.35672,-5.58641 -31.35672,-12.47759c0,-6.89118 14.03888,-12.47759 31.35672,-12.47759c17.31784,0 31.35672,5.58641 31.35672,12.47759z" fill="#81ca9f" stroke="#2e3938"/><path d="M217.30601,169.99263c0,-2.21716 4.32339,-4.01453 9.65657,-4.01453c5.33318,0 9.65657,1.79737 9.65657,4.01453c0,2.21716 -4.32339,4.01452 -9.65656,4.01452c-5.33318,0 -9.65656,-1.79736 -9.65656,-4.01452z" fill="#439a67" stroke="none"/><path d="M228.59009,184.85723z" fill="#439a67" stroke="none"/><path d="M251.80924,169.99263c0,-1.06244 0.99276,-2.0285 2.61366,-2.74657c1.76167,-0.78044 4.26534,-1.26796 7.0429,-1.26796c5.33317,0 9.65657,1.79737 9.65657,4.01453c0,2.21716 -4.32339,4.01452 -9.65656,4.01452c-5.33317,0 -9.65657,-1.79736 -9.65657,-4.01452z" fill="#439a67" stroke="none"/><path d="M249.42223,162.61458c0,2.21716 -3.15754,4.01452 -7.05255,4.01452c-1.93472,0 -2.81946,-0.87745 -4.09368,-1.59555c-1.29107,-0.72759 -2.95886,-1.30311 -2.95886,-2.41897c0,-2.21716 3.15753,-4.01453 7.05255,-4.01453c3.89501,0 7.05255,1.79737 7.05255,4.01453z" fill="#439a67" stroke="none"/><path d="M232.27911,178.45569c0,-2.09732 7.30963,-5.09954 12.04358,-5.09954c4.73395,0 8.57156,1.70021 8.57156,3.79753c0,2.09732 -3.83762,3.79753 -8.57156,3.79753c-4.73395,0 -12.04358,-0.3982 -12.04358,-2.49552z" fill="#439a67" stroke="none"/><path d="M275.24541,170.64364c0,6.89118 -14.03888,12.47759 -31.35672,12.47759c-17.31784,0 -31.35672,-5.58641 -31.35672,-12.47759c0,-6.89118 14.03888,-12.47759 31.35672,-12.47759c17.31784,0 31.35672,5.58641 31.35672,12.47759z" fill="none" stroke="#2e3938"/><path d="M260.7063,162.50608c0,0.4928 -4.66923,2.88525 -8.70432,4.9546c-2.83414,1.45345 -5.35543,2.85745 -5.72628,2.85745c-0.89885,0 -1.62751,-0.68008 -1.62751,-1.51901c0,-0.42469 4.11516,-2.46409 8.17907,-4.05141c3.9639,-1.54826 7.87904,-2.65588 7.87904,-2.24164z" fill="#cae3d6" stroke="none"/><path d="M227.52704,175.68451c0,-0.33035 4.15806,-1.93415 7.7514,-3.32136c2.52386,-0.97433 4.76914,-1.91553 5.0994,-1.91553c0.80045,0 1.44934,0.45591 1.44934,1.01829c0,0.28469 -3.66465,1.65182 -7.28365,2.7159c-3.52996,1.03789 -7.01648,1.78039 -7.01648,1.5027z" data-paper-data="{&quot;index&quot;:null}" fill="#cae3d6" stroke="none"/><path d="M254.78026,174.46279c-4.06391,-1.02047 -8.17906,-2.33159 -8.17906,-2.60461c0,-0.53933 0.72866,-0.97655 1.62751,-0.97655c0.37085,0 2.89214,0.90262 5.72628,1.83703c4.03509,1.33036 8.70432,2.86844 8.70432,3.18526c0,0.26631 -3.91514,-0.44576 -7.87905,-1.44112z" data-paper-data="{&quot;index&quot;:null}" fill="#cae3d6" stroke="none"/><path d="M234.95011,164.31371c4.06391,1.58732 8.17907,3.62672 8.17907,4.05141c0,0.83893 -0.72866,1.51901 -1.62751,1.51901c-0.37085,0 -2.89214,-1.40401 -5.72628,-2.85746c-4.03509,-2.06935 -10.65733,-4.0278 -10.65733,-4.52059c0,-0.41424 5.86815,0.25938 9.83206,1.80764z" data-paper-data="{&quot;index&quot;:null}" fill="#cae3d6" stroke="none"/></g><path d="M242.98126,200.36675c-4.12633,0.26308 -9.22256,-4.65385 -9.22256,-8.78856c0,-4.1347 3.56885,-10.74157 7.70355,-10.74157c3.40533,0 9.31765,3.14159 10.22576,6.25359c0.1945,0.66655 1.504,12.62553 -8.70675,13.27654z" fill="#a1bdc1" stroke="none" stroke-width="3.5" stroke-linecap="butt"/><path d="M229.20166,208.82981c0,0 1.67885,-27.98746 14.14007,-27.70438c13.1652,0.29907 14.07012,27.27038 14.07012,27.27038" fill="none" stroke="#000000" stroke-width="3.5" stroke-linecap="round"/><path d="M243.74076,150.86871c-3.83509,0 -6.94405,-2.13741 -6.94405,-4.77403c0,-2.63663 3.10896,-4.77403 6.94405,-4.77403c3.83509,0 6.94404,2.13741 6.94404,4.77403c0,2.63663 -3.10895,4.77403 -6.94404,4.77403z" fill="#a5c1c6" stroke="none" stroke-width="0" stroke-linecap="butt"/><path d="M231.15468,153.16893c0,0 5.85465,-11.96815 12.14894,-12.02955c7.32598,-0.07145 11.28722,11.81255 11.28722,11.81255" fill="none" stroke="#000000" stroke-width="3.5" stroke-linecap="round"/></g></g></g></svg>