<svg version="1.1" xmlns="http://www.w3.org/2000/svg" xmlns:xlink="http://www.w3.org/1999/xlink" width="347.76824" height="359.5" viewBox="0,0,347.76824,359.5"><defs><linearGradient x1="372.68778" y1="305.68968" x2="372.68778" y2="315.97539" gradientUnits="userSpaceOnUse" id="color-1"><stop offset="0" stop-color="#801a00"/><stop offset="1" stop-color="#701800"/></linearGradient><linearGradient x1="372.68778" y1="283.43968" x2="372.68778" y2="293.72539" gradientUnits="userSpaceOnUse" id="color-2"><stop offset="0" stop-color="#801a00"/><stop offset="1" stop-color="#701800"/></linearGradient></defs><g transform="translate(-117.75,-0.25)"><g data-paper-data="{&quot;isPaintingLayer&quot;:true}" fill-rule="nonzero" stroke-linejoin="miter" stroke-miterlimit="10" stroke-dasharray="" stroke-dashoffset="0" style="mix-blend-mode: normal"><g><path d="M358.75921,315.97539v-10.28571h27.85714v10.28571z" fill="url(#color-1)" stroke="#420806" stroke-width="3" stroke-linecap="butt"/><path d="M379.47349,307.00714l-19.42857,-0.03175" fill="none" stroke="#aa3300" stroke-width="4.5" stroke-linecap="round"/><path d="M359.31476,315.43571v-2.44444h27v2.44444z" fill="#aa3300" stroke="none" stroke-width="0" stroke-linecap="butt"/><path d="M358.75921,315.97539v-10.28571h27.85715v10.28571z" fill="none" stroke="#420806" stroke-width="3" stroke-linecap="butt"/></g><g><path d="M358.75921,293.72539v-10.28571h27.85714v10.28571z" fill="url(#color-2)" stroke="#420806" stroke-width="3" stroke-linecap="butt"/><path d="M379.47349,284.75714l-19.42857,-0.03175" fill="none" stroke="#aa3300" stroke-width="4.5" stroke-linecap="round"/><path d="M359.31476,293.18571v-2.44444h27v2.44444z" fill="#aa3300" stroke="none" stroke-width="0" stroke-linecap="butt"/><path d="M358.75921,293.72539v-10.28571h27.85715v10.28571z" fill="none" stroke="#420806" stroke-width="3" stroke-linecap="butt"/></g><path d="M164.28708,322.26975v-37h185.5v37z" fill="#3e3e3e" stroke="none" stroke-width="0" stroke-linecap="butt"/><path d="M120,357.5v-355h240v355zM145.32346,17.7491c-9.92278,1.24035 -8.68243,11.16313 -8.68243,11.16313c0.9963,7.80213 3.38411,15.36286 5.00755,23.05898c0.80503,3.81634 -0.08477,7.80035 -0.08477,11.70067c0,10.33334 0,20.66666 0,31c0,1.15895 -0.02133,8.77208 0.08477,9.29933c1.02083,5.07304 3.08121,9.90749 4,15c0.86367,4.787 -0.10937,10.77184 -0.08477,15.70067c0.01644,3.29298 0.83777,6.53763 1.03407,9.8248c0.3214,5.38216 -0.03407,10.78345 -0.03407,16.1752c0,1.44976 -0.03073,8.85589 0.12912,9.60182c0.66262,3.09207 2.59796,5.86338 3,9c1.0911,8.5126 -0.91499,17.38302 -0.11382,25.95119c0.56203,6.01071 1.49082,11.98459 2,18c0.2133,2.51996 0.16486,5.06186 0.07259,7.6077c-0.64239,-0.10432 -1.33694,-0.16071 -2.08789,-0.16071c-10,0 -10,10 -10,10c0,2.33334 0,5.66666 0,8c0,4.46957 0.57719,9.562 0.04866,14.01463c-1.02769,8.65795 -2.01346,18.39137 -0.97375,27.20721c1.10395,9.36054 2.97301,18.2352 5.26008,27.34485c1.61461,6.4312 3.54675,12.0774 7.16028,17.69614c0.4255,0.68615 0.93172,1.317 1.50539,1.87928c0.09428,9.85791 9.99932,9.85791 9.99932,9.85791c6.66805,-0.02666 12.58808,1.42178 19.17519,1.96593c12.25946,1.01272 24.73539,-0.85755 37,0c3.27668,0.22911 6.5929,0.57803 9.73237,1.5439c3.32766,1.02377 0.08475,-11.36694 3.53728,-10.91808c5.07497,0.65979 13.43597,0.07493 18.55517,0.07493c20.33333,0 40.33333,3 60.66667,3c6.79251,0 14.88079,5.74025 20.33722,0.12783c1.38463,-1.42421 9.57625,-3.53779 9.92119,-6.57266c0.23423,-2.06083 0.42338,-4.17722 0.07493,-6.22183c-0.06811,-0.39965 -1.47251,0.00264 -1.18325,-0.28142c0.52961,-0.52011 1.65723,-0.07664 2.13032,-0.64864c0.8751,-1.05808 0.84238,-2.64166 1.55944,-3.81262c0.49236,-0.80403 1.57551,-1.15816 2,-2c1.06,-2.10221 1.57625,-4.437 2.36437,-6.65549c0,-2.02759 0.7632,-3.98629 1,-6c0.53983,-4.59059 0.12913,-9.94681 0.12913,-14.60182c0,-3.57506 0.61064,-8.66364 -0.07493,-12.22183c-0.50574,-2.62487 -1.13614,-5.26297 -2.22308,-7.70515c-0.47312,-1.06304 -1.77399,-1.56898 -2.35359,-2.57792c-0.69351,-1.20724 -0.77213,-2.69104 -1.38995,-3.93872c-0.98064,-1.98041 -2.2557,-3.80089 -3.38354,-5.70133l-4.72861,-4.76395c-0.11502,-4.66511 -1.18016,-8.01973 -1.17964,-12.75776c0.00203,-18.68627 1.03114,-42.88158 0.33097,-61.55057c-0.50267,-13.40295 0.24312,-22.04727 0.66267,-35.42631c0.31644,-10.09112 -3.04587,-20.02136 -1.74818,-30.03369c1.41637,-10.92807 2.08547,-21.41833 2.08787,-32.32277c-0.04948,-7.27841 1.39227,-14.49133 2.22657,-21.72194c1.19207,-10.33129 1.7617,-20.88583 1.77343,-31.27806v-3c0,-3.47296 -1.20615,-5.73978 -2.78066,-7.21934c-1.47956,-1.57452 -3.74637,-2.78066 -7.21934,-2.78066c-14.94924,0 -29.77787,-1.5561 -44.70627,-1.99569c-0.18071,-0.00532 -21.73475,-0.00431 -24.29373,-0.00431c-15,0 -30,0 -45,0c-5,0 -10,0 -15,0c-1.46669,0 -2.95513,0.39138 -4.39818,0.12912c-5.73459,-1.04215 -11.159,-3.37307 -16.76747,-4.95944c-6.95609,-0.65138 -12.16277,-1.52051 -18.83435,-1.16968c-2.61764,0.13765 -5.37416,-0.16366 -7.82683,0.76121c-2.08927,0.78784 -3.49616,2.77848 -5.24424,4.16773l-0.01653,0.05119c-0.66781,-0.02806 -1.38424,0.00104 -2.15276,0.0971z" fill="#3e3e3e" stroke="#000000" stroke-width="4.5" stroke-linecap="butt"/><path d="M168.22707,324.67376c0.0306,-0.00342 0.06123,-0.00698 0.0919,-0.01072c12.30501,-0.12176 24.27133,-1.45464 36.69183,-1.00647c3.0165,0.10884 5.98886,0.78992 9,1c10.13779,0.70727 20.74515,0.42891 30.90947,0.00895c9.81238,-0.40542 20.13944,-1.94196 30.02217,-1.01297c12.4001,1.16563 24.57104,3.9316 37,5c3.15134,0.27089 6.5272,0.16118 9.83297,0.07889c0.01793,1.58513 0.02851,3.17025 -0.13667,4.71859c-0.00738,0.06916 -0.01889,0.13798 -0.03381,0.20649c-2.01363,-0.00554 -4.02744,0.01535 -6.04111,0.01535c-3.33333,0 -6.66667,0 -10,0c-17,0 -34,0 -51,0c-4.48471,0 -9.29216,0.38223 -13.77817,0.07493c-2.07917,-0.14243 -4.55573,-2.12097 -6.12939,-2.58475c-0.68706,-0.20249 -13.19367,-2.37811 -14.26764,-2.4561c-12.26056,-0.89035 -24.76009,1.03147 -37,0c-4.85092,-0.40879 -9.44811,-1.20037 -14.17489,-1.66644c-0.2279,-0.83741 -0.56189,-1.6311 -0.98665,-2.36575z" fill="#3e3e3e" stroke="#000000" stroke-width="4.5" stroke-linecap="butt"/><path d="M138.80469,353.58855v-55.66667h214.5v55.66667z" fill="#3e3e3e" stroke="none" stroke-width="0" stroke-linecap="butt"/><path d="M179.80469,58.40686v-49.98498h166v49.98498z" fill="#3e3e3e" stroke="none" stroke-width="0" stroke-linecap="butt"/><path d="M135.80469,335.40686v-241h38v241z" fill="#3e3e3e" stroke="none" stroke-width="0" stroke-linecap="butt"/><path d="M152.38981,8.948c2.70641,-2.31978 5.2897,0.00639 8.09481,-0.47404c2.28877,-0.392 3.5676,-0.81109 6.12063,-0.93842c2.4893,-0.12416 6.21407,-1.53466 7.45064,0.62935l0.52129,0.91225c10.39643,-1.14799 29.52438,-2.93855 29.52438,2.38183c0,2.99434 -6.2636,-1.12085 -7.34375,1.67188c-0.24103,0.62317 -1.66637,0.65891 -1.51703,1.31016c1.52145,1.31548 2.77567,2.93169 3.67027,4.75625c1.15427,1.40585 2.00345,3.10865 1.49327,5.62953c0.02028,0.31923 0.03057,0.64117 0.03057,0.96552c0,3.01125 -0.88731,5.81525 -2.41474,8.16481c1.19971,1.46359 2.40088,2.90263 3.82896,3.85718c3.56919,2.38569 5.4639,3.4553 7.11094,6.30094c4.8349,2.49009 8.1415,7.53077 8.1415,13.34374c0,8.28427 -6.71573,15 -15,15c-4.87779,0 -9.21179,-2.32826 -11.9513,-5.93408c-2.9605,-1.50675 -7.65332,-4.97003 -9.72057,-6.40967c-1.58575,-1.10431 -2.84417,-4.87704 -4.49104,-5.30792c-4.05019,-1.05967 -9.39833,-5.00401 -12.77975,-5.34833c-2.90102,-0.29541 -9.3237,-1.10248 -11.9743,-3.26989c-0.84279,0.9879 -1.81154,1.86506 -2.88142,2.60663c0.08687,0.65318 0.13172,1.31964 0.13172,1.99658c0,1.94706 -0.37097,3.80748 -1.0461,5.51443c0.46671,0.57107 0.89216,1.17719 1.2718,1.8138c1.08338,0.83679 1.87765,0.00688 2.9989,0.25605c1.49,0.33111 5.00392,2.75878 5.85515,3.48345c5.58121,4.75131 6.31545,13.0904 7.79966,20.04498c3.95538,2.59286 6.61123,7.00462 6.77883,12.04654c3.64813,2.73623 6.00842,7.09619 6.00842,12.00742l0.00001,-0.00002c0,8.28427 -6.71573,15 -15,15c-7.56557,0 -13.82296,-5.60103 -14.85173,-12.88268c-0.79264,-0.04132 -1.61942,-0.13477 -2.48161,-0.28399c-2.95048,-0.51066 -6.40569,-0.38659 -8.67187,-2.34375c-4.25368,-3.67364 -8.67598,-9.67384 -10.07786,-15.28138c-0.75742,-3.02967 -0.82533,-6.8451 -1.8629,-9.71981c-1.33313,-3.69362 3.08999,0.55035 2.29801,-3.40959l2.64796,-7.5788c0.29681,-2.01972 -5.64606,-5.77339 -5.11065,-7.30234c-2.21811,-2.61495 0.11065,-5.33339 0.11065,-9.03099c0,-4.8785 -4.33773,-11.54638 -0.73102,-14.28582c-0.81593,-1.84989 -1.26899,-3.89579 -1.26899,-6.04751c0,-4.52945 2.00759,-8.59001 5.1815,-11.34038c0.18088,-1.15453 0.49346,-2.26539 0.92188,-3.31671c-0.36091,-0.31398 -0.72505,-0.64826 -1.09296,-1.00436c-4.12438,-3.99208 8.06158,2.71798 9.23984,-1.88008c2.09207,-8.16411 7.31778,-6.31443 13.26483,-4.14922c0.41245,-0.77397 1.01356,-1.50244 1.77316,-2.15353z" fill="#3e3e3e" stroke="none" stroke-width="0.5" stroke-linecap="butt"/><path d="M174.60157,272.14063c8.28427,0 15,6.71573 15,15c0,5.6674 -3.14307,10.60071 -7.78118,13.1519c-2.74283,3.55681 -7.04658,5.8481 -11.88549,5.8481c-8.28427,0 -15,-6.71573 -15,-15c0,-5.6674 3.14306,-10.60071 7.78118,-13.1519c2.74283,-3.55681 7.04658,-5.8481 11.88549,-5.8481z" fill="#3e3e3e" stroke="none" stroke-width="0.5" stroke-linecap="butt"/><path d="M316.60157,305.47396c0,-8.28427 6.71573,-15 15,-15c8.28427,0 15,6.71573 15,15c0,8.28427 -6.71573,15 -15,15c-8.28427,0 -15,-6.71573 -15,-15z" fill="#3e3e3e" stroke="none" stroke-width="0.5" stroke-linecap="butt"/><path d="M345.89323,282.97396c6.12867,10.51006 4.17442,36.83333 -13.125,36.83333c-4.7389,0 -8.07046,-1.51334 -10.38892,-3.94311c-4.5447,-2.57739 -7.61108,-7.45904 -7.61108,-13.05689c0,-3.22324 1.01664,-6.20902 2.74676,-8.65419c0.06665,-1.27443 0.15662,-2.50922 0.25324,-3.67914c0,-2.70136 0.71408,-5.23593 1.96378,-7.42525c1.2082,-2.6053 2.99843,-4.86183 5.47108,-5.53012c2.22096,-1.2997 4.80605,-2.04463 7.56514,-2.04463c2.99972,0 5.79378,0.88053 8.13781,2.39723c1.844,0.92501 3.38748,2.35943 4.98719,5.10277z" fill="#3e3e3e" stroke="none" stroke-width="0.5" stroke-linecap="butt"/><path d="M334.26823,308.47396v-55.66667h20v55.66667z" fill="#3e3e3e" stroke="none" stroke-width="0" stroke-linecap="butt"/><path d="M357.9349,101.80729c0,8.28427 -6.71573,15 -15,15c-5.55966,0 -10.41287,-3.02469 -13.00383,-7.51829c-1.16734,-0.42213 -2.20304,-0.94681 -3.04809,-1.5705c-12.01617,-8.86848 -18.82809,-22.01938 -24.22455,-35.64957c-0.9811,-2.47803 -4.11872,-6.03617 -4.31103,-8.66435c-0.69606,-1.72954 -1.07916,-3.61868 -1.07916,-5.59729c0,-3.42917 1.1507,-6.58958 3.08704,-9.11616c3.03854,-4.20939 8.07625,-7.00052 14.00928,-6.08211c2.01655,0.31215 4.68419,1.56586 6.28894,2.62039c0.28638,0.18819 0.53955,0.4263 0.77102,0.69577c1.49125,1.15085 2.75985,2.57617 3.73011,4.2003c2.09348,0.3563 3.63656,-2.31963 5.6875,-2.87033c0.96877,-0.26012 7.41928,-0.35946 9.06416,0.33333c1.65242,0.69598 3.45177,1.05212 5.03384,1.89589c3.03168,1.61689 5.0501,6.18646 5.74437,9.1375c2.06113,8.76098 5.24634,17.10454 5.58375,26.18542c0.11406,3.06987 0.00442,6.22489 -0.44095,9.32825c1.33859,2.24467 2.10761,4.8684 2.10761,7.67175z" fill="#3e3e3e" stroke="none" stroke-width="0.5" stroke-linecap="butt"/><path d="M198.9349,67.79227c2.76142,0 5,2.23858 5,5c0,1.9628 -1.13099,3.66145 -2.77683,4.4798c0.09915,0.52668 0.19697,1.07236 0.29421,1.64086c0.58175,3.40123 1.31187,8.87934 -4.51738,8.87934c-7.38268,0 -3.19653,-4.46737 -5.34635,-7.10322c-4.16343,-5.10469 -7.38662,-9.81077 -10.48056,-15.78995c-0.93582,-1.80851 -0.78734,-6.34082 1.38675,-6.93375c1.54323,-0.42088 3.56421,-0.24581 4.90257,-0.33811c0.91693,-1.12011 2.31045,-1.83497 3.87093,-1.83497c1.09547,0 2.10866,0.3523 2.93245,0.94977c0.19444,0.11007 0.37597,0.24034 0.53967,0.39851c1.83146,1.76959 1.64257,4.47213 2.4528,6.61984c0.55186,1.46284 1.03538,2.78082 1.46727,4.03928c0.09087,-0.00492 0.18238,-0.00741 0.27448,-0.00741z" fill="#3e3e3e" stroke="none" stroke-width="0.5" stroke-linecap="butt"/><path d="M232.24408,72.80485c0.98356,-0.26511 2.24208,-0.33853 4.02415,-0.34592c7.98086,-0.03306 20.73957,-0.03115 28.72049,-0.03115c1.74999,0 3.01504,1.21746 4.64645,1.36449c4.96182,0.44716 5.98641,-0.29674 10.29973,-1c0.90697,-0.14788 3.38634,0.17801 3.83333,0.625c1.99555,1.99555 2.52921,3.56154 2.22469,4.95102c1.559,0.88052 2.60864,2.09353 2.60864,3.75732c0,6.2988 -6.86354,5.12926 -10.66369,4.62262c-13.312,-1.7748 -26.04953,1.45962 -39.30949,0.63409c-3.42574,-0.21328 -6.92249,-0.94061 -10.36015,-1.2567c-0.17013,-0.01564 -0.3538,-0.02252 -0.5425,-0.02909c-2.50625,-0.27041 -4.4575,-2.39279 -4.4575,-4.97091c0,-1.62714 0.77725,-3.07275 1.98072,-3.98581c0.15393,-0.14902 0.32556,-0.28022 0.51928,-0.38919c1.01446,-0.57065 2.02006,-0.8586 3.01937,-0.96003c1.09949,-1.73465 1.95951,-2.58221 3.45648,-2.98572z" fill="#3e3e3e" stroke="none" stroke-width="0.5" stroke-linecap="butt"/><g fill="none"><path d="M221.15235,85.67847l8,-12.5h54l6.5,12.5z" stroke="#e02503" stroke-width="7" stroke-linecap="butt"/><path d="M173.88411,268.27848l0.5,-154.1l5,-9l-21,-44.5l-13.25911,-5.57031l4.66667,-10.66667l24.33333,9l21.66667,34.33333l21,-29.33333l79.33333,0.33333l17.75,35l21,21.33333l-1.28163,158.04322l-19.70926,12.37709h-119.1z" stroke="#e02503" stroke-width="7" stroke-linecap="round"/><path d="M173.88411,268.27848l0.5,-154.1l5,-9l-21,-44.5l-13.25911,-5.57031l4.66667,-10.66667l24.33333,9l21.66667,34.33333l21,-29.33333l79.33333,0.33333l17.75,35l21,21.33333l-1.28163,158.04322l-19.70926,12.37709h-119.1z" stroke="#ffffff" stroke-width="3" stroke-linecap="round"/><path d="M221.15234,85.67847l8,-12.5h54l6.5,12.5z" stroke="#ffffff" stroke-width="3" stroke-linecap="butt"/></g><path d="M153.68981,324.63311c0,1.5 -0.34896,2.84896 -1.04687,4.04688c-0.6875,1.1875 -1.60937,2.23958 -2.76562,3.15625c0.35416,0.52083 0.71354,1.13021 1.07813,1.82813c0.36459,0.6875 0.69271,1.41667 0.98438,2.1875c0.30209,0.77083 0.54166,1.54167 0.71875,2.3125c0.1875,0.77083 0.28125,1.47917 0.28125,2.125c0,0.69792 -0.16666,1.32292 -0.5,1.875c-0.33334,0.55208 -0.90625,0.82813 -1.71875,0.82813c-0.66666,0 -1.24479,-0.32812 -1.73437,-0.98437c-0.48959,-0.64583 -0.92709,-1.41667 -1.3125,-2.3125c-0.375,-0.90625 -0.71875,-1.82292 -1.03125,-2.75c-0.3125,-0.9375 -0.60937,-1.6875 -0.89062,-2.25c-0.39584,0.125 -0.78125,0.27083 -1.15625,0.4375c-0.36459,0.16667 -0.73959,0.32292 -1.125,0.46875c-0.02084,0.47917 -0.0625,1.14063 -0.125,1.98438c-0.05209,0.83333 -0.17187,1.66146 -0.35937,2.48438c-0.17709,0.82292 -0.45312,1.53646 -0.82812,2.14063c-0.36459,0.60417 -0.86979,0.90625 -1.51562,0.90625c-0.71875,0 -1.27604,-0.29167 -1.67187,-0.875c-0.38541,-0.58333 -0.66146,-1.27604 -0.82812,-2.07812c-0.15625,-0.80208 -0.24479,-1.61979 -0.26562,-2.45312c-0.02084,-0.84375 -0.03125,-1.5 -0.03125,-1.96875c0,-1.02083 0.02084,-2.02604 0.0625,-3.01562c0.04166,-0.98958 0.0625,-1.9948 0.0625,-3.01562c0,-0.92708 -0.01562,-1.85417 -0.04687,-2.78125c-0.03125,-0.9375 -0.04687,-1.88542 -0.04687,-2.84375c0,-0.21875 0,-0.49479 0,-0.82812c0,-0.33333 0.01563,-0.67708 0.04688,-1.03125c0.03125,-0.36458 0.06771,-0.70833 0.10938,-1.03125c0.04166,-0.33333 0.11979,-0.59375 0.23438,-0.78125c0.20834,-0.45833 0.69791,-0.89062 1.46875,-1.29687c0.77084,-0.41667 1.61459,-0.78125 2.53125,-1.09375c0.92709,-0.32292 1.82813,-0.57292 2.70313,-0.75c0.88541,-0.1875 1.54688,-0.28125 1.98438,-0.28125c1.10416,0 2.07813,0.20833 2.92188,0.625c0.85416,0.40625 1.5625,0.96354 2.125,1.67188c0.5625,0.69792 0.98438,1.51042 1.26563,2.4375c0.28125,0.91667 0.42188,1.88542 0.42188,2.90625zM147.67419,325.08623c0,-0.5625 -0.13021,-0.98958 -0.39062,-1.28125c-0.26041,-0.29167 -0.6875,-0.4375 -1.28125,-0.4375c-0.42709,0 -0.86459,0.07813 -1.3125,0.23438c-0.44791,0.14583 -0.85416,0.31771 -1.21875,0.51563c0.08334,1.71875 0.11459,3.42188 0.09375,5.10938c0.45834,-0.15625 0.92709,-0.34896 1.40625,-0.57812c0.47916,-0.23958 0.91666,-0.53125 1.3125,-0.875c0.40625,-0.35417 0.73959,-0.74479 1,-1.17187c0.26041,-0.4375 0.39063,-0.94271 0.39063,-1.51562zM169.02441,336.64873c0,0.41667 -0.10937,0.81771 -0.32812,1.20313c-0.21875,0.36458 -0.72916,0.79688 -1.53125,1.29688c-0.80209,0.5 -1.69271,0.97396 -2.67187,1.42188c-0.97916,0.44792 -1.92709,0.82813 -2.84375,1.14063c-0.90625,0.3125 -1.57291,0.46875 -2,0.46875c-0.30209,0 -0.66146,-0.07292 -1.07812,-0.21875c-0.41666,-0.13542 -0.83334,-0.3125 -1.25,-0.53125c-0.40625,-0.21875 -0.77604,-0.46875 -1.10937,-0.75c-0.33334,-0.28125 -0.57812,-0.55208 -0.73437,-0.8125c-0.08334,-0.14583 -0.16666,-0.44792 -0.25,-0.90625c-0.07291,-0.45833 -0.13541,-0.98958 -0.1875,-1.59375c-0.05209,-0.61458 -0.10416,-1.26042 -0.15625,-1.9375c-0.04166,-0.6875 -0.07812,-1.33854 -0.10937,-1.95312c-0.03125,-0.61458 -0.05209,-1.16146 -0.0625,-1.64062c-0.01041,-0.47917 -0.01562,-0.82812 -0.01562,-1.04687c0,-0.80208 0.02604,-1.72396 0.07813,-2.76562c0.0625,-1.04167 0.16666,-2.08854 0.3125,-3.14062c0.15625,-1.05208 0.38021,-2.05729 0.67188,-3.01562c0.29166,-0.96875 0.6875,-1.79167 1.1875,-2.46875c0.14584,-0.19792 0.44791,-0.40104 0.90625,-0.60937c0.45834,-0.21875 0.99479,-0.42708 1.60938,-0.625c0.625,-0.19792 1.29166,-0.38021 2,-0.54687c0.71875,-0.17708 1.40625,-0.32292 2.0625,-0.4375c0.66666,-0.125 1.27084,-0.22396 1.8125,-0.29687c0.54166,-0.08333 0.95313,-0.125 1.23438,-0.125c0.33334,0 0.64584,0.07292 0.9375,0.21875c0.29166,0.13542 0.54166,0.32292 0.75,0.5625c0.20834,0.23958 0.36979,0.50521 0.48438,0.79688c0.11459,0.29167 0.17188,0.60417 0.17188,0.9375c0,0.28125 -0.03646,0.52083 -0.10937,0.71875c-0.07291,0.1875 -0.1875,0.40104 -0.34375,0.64063c-0.21875,0.28125 -0.67709,0.61979 -1.375,1.01563c-0.6875,0.38542 -1.4375,0.77083 -2.25,1.15625c-0.8125,0.375 -1.59375,0.71354 -2.34375,1.01563c-0.75,0.30208 -1.27604,0.52083 -1.57812,0.65625c-0.08334,0.5 -0.17709,1.00521 -0.28125,1.51563c-0.09375,0.51042 -0.16146,1.02604 -0.20312,1.54688c0.66666,-0.35417 1.42188,-0.68229 2.26563,-0.98437c0.85416,-0.30208 1.66146,-0.45312 2.42188,-0.45312c1.54166,0 2.3125,0.76042 2.3125,2.28125c0,0.36458 -0.07291,0.6875 -0.21875,0.96875c-0.13541,0.28125 -0.31771,0.53125 -0.54687,0.75c-0.22916,0.21875 -0.48959,0.41146 -0.78125,0.57813c-0.29166,0.15625 -0.58334,0.3125 -0.875,0.46875c-0.6875,0.36458 -1.41146,0.68229 -2.17187,0.95313c-0.76041,0.27083 -1.52084,0.53646 -2.28125,0.79688c-0.04166,0.17708 -0.08334,0.36979 -0.125,0.57813c-0.04166,0.20833 -0.0625,0.40625 -0.0625,0.59375c0,0.3125 0.02084,0.61979 0.0625,0.92188c0.04166,0.30208 0.08334,0.60417 0.125,0.90625c0.26041,-0.08333 0.67709,-0.22396 1.25,-0.42187c0.57291,-0.19792 1.17188,-0.39062 1.79688,-0.57812c0.63541,-0.19792 1.24479,-0.36458 1.82813,-0.5c0.59375,-0.14583 1.03125,-0.21875 1.3125,-0.21875c0.32291,0 0.625,0.07292 0.90625,0.21875c0.28125,0.13542 0.52084,0.31771 0.71875,0.54688c0.19791,0.21875 0.35416,0.48438 0.46875,0.79688c0.125,0.30208 0.1875,0.60417 0.1875,0.90625zM183.75762,318.25811c0,0.82292 -0.28125,1.57292 -0.84375,2.25c-0.5625,0.66667 -1.25,1.26563 -2.0625,1.79688c-0.8125,0.53125 -1.66666,0.99479 -2.5625,1.39063c-0.88541,0.38542 -1.65104,0.70833 -2.29687,0.96875c0,0.45833 -0.01562,0.92708 -0.04687,1.40625c-0.02084,0.47917 -0.05209,0.95833 -0.09375,1.4375c0.69791,-0.35417 1.47916,-0.68229 2.34375,-0.98437c0.86459,-0.30208 1.6875,-0.45312 2.46875,-0.45312c0.63541,0 1.15104,0.13021 1.54688,0.39063c0.40625,0.26042 0.60938,0.71354 0.60938,1.35938c0,0.71875 -0.25521,1.36458 -0.76562,1.9375c-0.51041,0.5625 -1.125,1.0625 -1.84375,1.5c-0.70834,0.42708 -1.45312,0.79167 -2.23437,1.09375c-0.78125,0.30208 -1.44271,0.54167 -1.98437,0.71875c0,0.71875 -0.01562,1.43229 -0.04687,2.14063c-0.02084,0.69792 -0.05209,1.39583 -0.09375,2.09375c-0.02084,0.34375 -0.05729,0.77604 -0.10937,1.29688c-0.05209,0.52083 -0.16146,1.02604 -0.32812,1.51563c-0.16666,0.48958 -0.40104,0.91146 -0.70312,1.26563c-0.30209,0.35417 -0.69271,0.53125 -1.17187,0.53125c-0.44791,0 -0.83854,-0.21875 -1.17187,-0.65625c-0.32291,-0.44792 -0.59896,-1.01562 -0.82812,-1.70312c-0.22916,-0.69792 -0.41666,-1.47396 -0.5625,-2.32812c-0.13541,-0.86458 -0.23959,-1.70833 -0.3125,-2.53125c-0.07291,-0.82292 -0.11459,-1.57812 -0.125,-2.26562c-0.01041,-0.69792 -0.01562,-1.23438 -0.01562,-1.60937c0,-0.28125 0.00521,-0.69792 0.01563,-1.25c0.01041,-0.55208 0.02084,-1.16146 0.03125,-1.82812c0.01041,-0.67708 0.03125,-1.38542 0.0625,-2.125c0.03125,-0.73958 0.06771,-1.4375 0.10938,-2.09375c0.04166,-0.66667 0.09896,-1.25521 0.17188,-1.76562c0.08334,-0.51042 0.17709,-0.88542 0.28125,-1.125c0.23959,-0.47917 0.80729,-0.94792 1.70313,-1.40625c0.90625,-0.46875 1.91146,-0.88021 3.01563,-1.23437c1.11459,-0.36458 2.19791,-0.66146 3.25,-0.89062c1.05209,-0.22917 1.85938,-0.34375 2.42188,-0.34375c0.26041,0 0.51563,0.01563 0.76563,0.04688c0.25,0.03125 0.47916,0.10417 0.6875,0.21875c0.21875,0.10417 0.39063,0.25521 0.51563,0.45313c0.13541,0.19792 0.20313,0.45833 0.20313,0.78125zM201.37139,330.33623c0,0.88542 -0.04687,1.80208 -0.14062,2.75c-0.08334,0.9375 -0.23437,1.85417 -0.45312,2.75c-0.20834,0.88542 -0.50521,1.72396 -0.89062,2.51563c-0.375,0.79167 -0.85937,1.48958 -1.45312,2.09375c-0.58334,0.59375 -1.28646,1.0625 -2.10937,1.40625c-0.82291,0.35417 -1.78646,0.53125 -2.89062,0.53125c-1.625,0 -3.04166,-0.38021 -4.25,-1.14062c-1.20834,-0.76042 -2.21354,-1.72917 -3.01562,-2.90625c-0.80209,-1.1875 -1.40104,-2.51042 -1.79687,-3.96875c-0.38541,-1.46875 -0.57812,-2.92188 -0.57812,-4.35937c0,-0.15625 0,-0.29687 0,-0.42187c0,-0.13542 0.01041,-0.25521 0.03125,-0.35937c0.02084,-0.45833 0.05729,-1.07812 0.10938,-1.85937c0.0625,-0.78125 0.15625,-1.61458 0.28125,-2.5c0.13541,-0.88542 0.30209,-1.79687 0.5,-2.73437c0.20834,-0.9375 0.47916,-1.77083 0.8125,-2.5c0.34375,-0.73958 0.75521,-1.34896 1.23438,-1.82812c0.47916,-0.47917 1.04166,-0.71875 1.6875,-0.71875c0.47916,0 0.88021,0.14063 1.20313,0.42188c0.32291,0.28125 0.58854,0.63542 0.79688,1.0625c0.20834,0.41667 0.35416,0.85938 0.4375,1.32813c0.09375,0.46875 0.14063,0.90104 0.14063,1.29688c0,0.58333 -0.0625,1.17188 -0.1875,1.76563c-0.11459,0.59375 -0.22916,1.1875 -0.34375,1.78125c-0.16666,0.92708 -0.30729,1.85938 -0.42187,2.79688c-0.10416,0.92708 -0.15625,1.88021 -0.15625,2.85938c0,0.5 0.02604,1.10938 0.07813,1.82813c0.05209,0.70833 0.1875,1.39583 0.40625,2.0625c0.21875,0.65625 0.52604,1.21875 0.92188,1.6875c0.40625,0.46875 0.95834,0.70313 1.65625,0.70313c0.66666,0 1.19791,-0.22396 1.59375,-0.67187c0.40625,-0.45833 0.70834,-1 0.90625,-1.625c0.19791,-0.63542 0.32291,-1.30208 0.375,-2c0.05209,-0.69792 0.07813,-1.29167 0.07813,-1.78125c0,-1.4375 -0.11979,-2.85417 -0.35937,-4.25c-0.23959,-1.40625 -0.55209,-2.80208 -0.9375,-4.1875c-0.11459,-0.36458 -0.20834,-0.72917 -0.28125,-1.09375c-0.07291,-0.375 -0.10937,-0.75 -0.10937,-1.125c0,-0.60417 0.17709,-1.13021 0.53125,-1.57812c0.36459,-0.45833 0.86979,-0.6875 1.51563,-0.6875c0.54166,0 1.04688,0.21354 1.51563,0.64063c0.46875,0.41667 0.88541,0.96875 1.25,1.65625c0.375,0.67708 0.69791,1.44271 0.96875,2.29688c0.27084,0.84375 0.5,1.68229 0.6875,2.51563c0.19791,0.83333 0.34375,1.63021 0.4375,2.39063c0.10416,0.76042 0.16666,1.38021 0.1875,1.85938c0.02084,0.20833 0.03125,0.41667 0.03125,0.625c0,0.20833 0,0.43229 0,0.67188zM217.71471,336.64873c0,0.41667 -0.10937,0.81771 -0.32812,1.20313c-0.21875,0.36458 -0.72916,0.79688 -1.53125,1.29688c-0.80209,0.5 -1.69271,0.97396 -2.67187,1.42188c-0.97916,0.44792 -1.92709,0.82813 -2.84375,1.14063c-0.90625,0.3125 -1.57291,0.46875 -2,0.46875c-0.30209,0 -0.66146,-0.07292 -1.07812,-0.21875c-0.41666,-0.13542 -0.83334,-0.3125 -1.25,-0.53125c-0.40625,-0.21875 -0.77604,-0.46875 -1.10937,-0.75c-0.33334,-0.28125 -0.57812,-0.55208 -0.73437,-0.8125c-0.08334,-0.14583 -0.16666,-0.44792 -0.25,-0.90625c-0.07291,-0.45833 -0.13541,-0.98958 -0.1875,-1.59375c-0.05209,-0.61458 -0.10416,-1.26042 -0.15625,-1.9375c-0.04166,-0.6875 -0.07812,-1.33854 -0.10937,-1.95312c-0.03125,-0.61458 -0.05209,-1.16146 -0.0625,-1.64062c-0.01041,-0.47917 -0.01562,-0.82812 -0.01562,-1.04687c0,-0.80208 0.02604,-1.72396 0.07813,-2.76562c0.0625,-1.04167 0.16666,-2.08854 0.3125,-3.14062c0.15625,-1.05208 0.38021,-2.05729 0.67188,-3.01562c0.29166,-0.96875 0.6875,-1.79167 1.1875,-2.46875c0.14584,-0.19792 0.44791,-0.40104 0.90625,-0.60937c0.45834,-0.21875 0.99479,-0.42708 1.60938,-0.625c0.625,-0.19792 1.29166,-0.38021 2,-0.54687c0.71875,-0.17708 1.40625,-0.32292 2.0625,-0.4375c0.66666,-0.125 1.27084,-0.22396 1.8125,-0.29687c0.54166,-0.08333 0.95313,-0.125 1.23438,-0.125c0.33334,0 0.64584,0.07292 0.9375,0.21875c0.29166,0.13542 0.54166,0.32292 0.75,0.5625c0.20834,0.23958 0.36979,0.50521 0.48438,0.79688c0.11459,0.29167 0.17188,0.60417 0.17188,0.9375c0,0.28125 -0.03646,0.52083 -0.10937,0.71875c-0.07291,0.1875 -0.1875,0.40104 -0.34375,0.64063c-0.21875,0.28125 -0.67709,0.61979 -1.375,1.01563c-0.6875,0.38542 -1.4375,0.77083 -2.25,1.15625c-0.8125,0.375 -1.59375,0.71354 -2.34375,1.01563c-0.75,0.30208 -1.27604,0.52083 -1.57812,0.65625c-0.08334,0.5 -0.17709,1.00521 -0.28125,1.51563c-0.09375,0.51042 -0.16146,1.02604 -0.20312,1.54688c0.66666,-0.35417 1.42188,-0.68229 2.26563,-0.98437c0.85416,-0.30208 1.66146,-0.45312 2.42188,-0.45312c1.54166,0 2.3125,0.76042 2.3125,2.28125c0,0.36458 -0.07291,0.6875 -0.21875,0.96875c-0.13541,0.28125 -0.31771,0.53125 -0.54687,0.75c-0.22916,0.21875 -0.48959,0.41146 -0.78125,0.57813c-0.29166,0.15625 -0.58334,0.3125 -0.875,0.46875c-0.6875,0.36458 -1.41146,0.68229 -2.17187,0.95313c-0.76041,0.27083 -1.52084,0.53646 -2.28125,0.79688c-0.04166,0.17708 -0.08334,0.36979 -0.125,0.57813c-0.04166,0.20833 -0.0625,0.40625 -0.0625,0.59375c0,0.3125 0.02084,0.61979 0.0625,0.92188c0.04166,0.30208 0.08334,0.60417 0.125,0.90625c0.26041,-0.08333 0.67709,-0.22396 1.25,-0.42187c0.57291,-0.19792 1.17188,-0.39062 1.79688,-0.57812c0.63541,-0.19792 1.24479,-0.36458 1.82813,-0.5c0.59375,-0.14583 1.03125,-0.21875 1.3125,-0.21875c0.32291,0 0.625,0.07292 0.90625,0.21875c0.28125,0.13542 0.52084,0.31771 0.71875,0.54688c0.19791,0.21875 0.35416,0.48438 0.46875,0.79688c0.125,0.30208 0.1875,0.60417 0.1875,0.90625zM234.69793,337.27373c0,0.54167 -0.22396,1.05208 -0.67187,1.53125c-0.4375,0.46875 -1.01041,0.90104 -1.71875,1.29688c-0.70834,0.38542 -1.49479,0.72917 -2.35937,1.03125c-0.86459,0.29167 -1.72396,0.53646 -2.57812,0.73438c-0.84375,0.20833 -1.64062,0.36458 -2.39062,0.46875c-0.75,0.11458 -1.33854,0.17188 -1.76562,0.17188c-0.41666,0 -0.85937,-0.04167 -1.32812,-0.125c-0.45834,-0.07292 -0.84375,-0.23958 -1.15625,-0.5c-0.16666,-0.125 -0.31771,-0.41667 -0.45312,-0.875c-0.125,-0.45833 -0.25,-1 -0.375,-1.625c-0.11459,-0.625 -0.21875,-1.30208 -0.3125,-2.03125c-0.08334,-0.72917 -0.15104,-1.4375 -0.20312,-2.125c-0.05209,-0.69792 -0.09375,-1.33854 -0.125,-1.92187c-0.03125,-0.59375 -0.04687,-1.05208 -0.04687,-1.375c0,-0.54167 0.01563,-1.19792 0.04688,-1.96875c0.03125,-0.77083 0.07813,-1.59375 0.14063,-2.46875c0.0625,-0.88542 0.14584,-1.78125 0.25,-2.6875c0.11459,-0.91667 0.23959,-1.78125 0.375,-2.59375c0.14584,-0.8125 0.32291,-1.54167 0.53125,-2.1875c0.20834,-0.65625 0.43229,-1.16667 0.67188,-1.53125c0.40625,-0.59375 0.92709,-0.89062 1.5625,-0.89062c0.42709,0 0.79166,0.15104 1.09375,0.45313c0.3125,0.29167 0.55729,0.67188 0.73438,1.14063c0.1875,0.45833 0.32813,0.97917 0.42188,1.5625c0.10416,0.57292 0.17709,1.14063 0.21875,1.70313c0.04166,0.5625 0.0625,1.08333 0.0625,1.5625c0,0.47917 0,0.85938 0,1.14063c0,1.6875 -0.03646,3.36458 -0.10937,5.03125c-0.07291,1.65625 -0.10937,3.32812 -0.10937,5.01562v1.28125c0.96875,-0.3125 2.02604,-0.60417 3.17188,-0.875c1.15625,-0.27083 2.25521,-0.40625 3.29688,-0.40625c0.375,0 0.75,0.02604 1.125,0.07813c0.375,0.04167 0.70834,0.13542 1,0.28125c0.30209,0.13542 0.54166,0.33854 0.71875,0.60938c0.1875,0.27083 0.28125,0.63542 0.28125,1.09375zM254.00536,318.91436c0,0.5 -0.16146,0.93229 -0.48437,1.29688c-0.3125,0.36458 -0.68229,0.66667 -1.10937,0.90625c-0.39583,0.23958 -0.80209,0.49479 -1.21875,0.76563c-0.40625,0.27083 -0.78646,0.57813 -1.14062,0.92188c-0.34375,0.33333 -0.625,0.70833 -0.84375,1.125c-0.20834,0.40625 -0.3125,0.86979 -0.3125,1.39063c0,0.45833 0.10416,0.875 0.3125,1.25c0.21875,0.36458 0.48438,0.72396 0.79688,1.07813c0.32291,0.35417 0.67188,0.72396 1.04688,1.10938c0.38541,0.375 0.73438,0.79688 1.04688,1.26563c0.3125,0.46875 0.57813,0.9948 0.79688,1.57813c0.21875,0.58333 0.32813,1.26563 0.32813,2.04688c0,0.54167 -0.11458,1.15625 -0.34375,1.84375c-0.22917,0.6875 -0.54167,1.38021 -0.9375,2.07813c-0.38541,0.6875 -0.84375,1.35938 -1.375,2.01563c-0.53125,0.64583 -1.09896,1.22396 -1.70312,1.73438c-0.59375,0.51042 -1.21875,0.92188 -1.875,1.23438c-0.64584,0.3125 -1.27084,0.46875 -1.875,0.46875c-0.67709,0 -1.27604,-0.1875 -1.79687,-0.5625c-0.52084,-0.36458 -0.78125,-0.91146 -0.78125,-1.64062c0,-0.5 0.11979,-0.96354 0.35938,-1.39062c0.23959,-0.42708 0.53125,-0.83333 0.875,-1.21875c0.35416,-0.39583 0.73959,-0.77604 1.15625,-1.14062c0.42709,-0.36458 0.8125,-0.72917 1.15625,-1.09375c0.35416,-0.375 0.65104,-0.76042 0.89063,-1.15625c0.23959,-0.40625 0.35938,-0.83854 0.35938,-1.29687c0,-0.625 -0.22396,-1.26562 -0.67187,-1.92187c-0.44791,-0.66667 -0.94271,-1.35417 -1.48437,-2.0625c-0.54166,-0.70833 -1.03646,-1.43229 -1.48437,-2.17187c-0.4375,-0.73958 -0.65625,-1.48437 -0.65625,-2.23437c0,-0.9375 0.24479,-1.92187 0.73438,-2.95312c0.5,-1.03125 1.14063,-1.97396 1.92188,-2.82812c0.78125,-0.85417 1.66146,-1.5625 2.64063,-2.125c0.97916,-0.57292 1.94791,-0.85937 2.90625,-0.85937c0.75,0 1.39583,0.22917 1.9375,0.6875c0.55208,0.45833 0.82813,1.07813 0.82813,1.85938zM269.22484,319.52373c0,0.54167 -0.21354,1.03646 -0.64062,1.48438c-0.41667,0.44792 -0.92187,0.83854 -1.51562,1.17188c-0.59375,0.33333 -1.20833,0.60938 -1.84375,0.82813c-0.625,0.21875 -1.14583,0.36979 -1.5625,0.45313c-0.16667,1.67708 -0.30208,3.34375 -0.40625,5c-0.09375,1.65625 -0.14062,3.32292 -0.14062,5c0,0.88542 0.02083,1.76563 0.0625,2.64063c0.04167,0.86458 0.0625,1.72917 0.0625,2.59375c0,0.39583 -0.03646,0.82813 -0.10937,1.29688c-0.07292,0.45833 -0.20312,0.89583 -0.39062,1.3125c-0.1875,0.40625 -0.44271,0.75 -0.76562,1.03125c-0.32292,0.29167 -0.72396,0.4375 -1.20312,0.4375c-0.5625,0 -1.01562,-0.16146 -1.35937,-0.48437c-0.33333,-0.3125 -0.59375,-0.69271 -0.78125,-1.14062c-0.17708,-0.45833 -0.30208,-0.94271 -0.375,-1.45312c-0.0625,-0.51042 -0.09375,-0.97396 -0.09375,-1.39062c-0.04167,-1.30208 -0.07292,-2.60937 -0.09375,-3.92187c-0.02083,-1.3125 -0.03125,-2.6302 -0.03125,-3.95312c0,-1.10417 0.00521,-2.1875 0.01563,-3.25c0.01042,-1.0625 0.01563,-2.14583 0.01563,-3.25c-0.30208,0.04167 -0.61458,0.07292 -0.9375,0.09375c-0.3125,0.02083 -0.63021,0.03125 -0.95312,0.03125c-0.26042,0 -0.60417,-0.02604 -1.03125,-0.07812c-0.41667,-0.0625 -0.81771,-0.16146 -1.20312,-0.29687c-0.39583,-0.14583 -0.73437,-0.34375 -1.01562,-0.59375c-0.28125,-0.25 -0.42187,-0.56771 -0.42187,-0.95312c0,-0.65625 0.25521,-1.22396 0.76563,-1.70312c0.51042,-0.48958 1.16146,-0.91146 1.95313,-1.26562c0.79167,-0.36458 1.66667,-0.67187 2.625,-0.92187c0.96875,-0.25 1.92188,-0.44271 2.85938,-0.57812c0.94792,-0.14583 1.81771,-0.25 2.60938,-0.3125c0.79167,-0.07292 1.40625,-0.10937 1.84375,-0.10937c0.41667,0 0.85417,0.02083 1.3125,0.0625c0.46875,0.03125 0.90625,0.125 1.3125,0.28125c0.41667,0.14583 0.76042,0.36979 1.03125,0.67188c0.27083,0.30208 0.40625,0.72396 0.40625,1.26563zM283.64351,336.9456c0,0.42708 -0.03646,0.94792 -0.10937,1.5625c-0.07292,0.60417 -0.21875,1.18229 -0.4375,1.73438c-0.21875,0.55208 -0.51562,1.02083 -0.89062,1.40625c-0.36458,0.375 -0.84896,0.5625 -1.45312,0.5625c-0.80208,0 -1.40625,-0.29167 -1.8125,-0.875c-0.39583,-0.58333 -0.68229,-1.28125 -0.85937,-2.09375c-0.16667,-0.82292 -0.27083,-1.65625 -0.3125,-2.5c-0.03125,-0.84375 -0.05729,-1.51562 -0.07812,-2.01562c-1.5625,0.26042 -3.10418,0.48958 -4.62503,0.6875c-0.04167,0.5 -0.13542,1.11979 -0.28125,1.85938c-0.13542,0.72917 -0.34896,1.4375 -0.64062,2.125c-0.29167,0.6875 -0.67187,1.28125 -1.14062,1.78125c-0.46875,0.48958 -1.03646,0.73438 -1.70312,0.73438c-0.52083,0 -0.92708,-0.1875 -1.21875,-0.5625c-0.29167,-0.375 -0.51562,-0.82292 -0.67187,-1.34375c-0.15625,-0.52083 -0.25,-1.05729 -0.28125,-1.60937c-0.03125,-0.5625 -0.04687,-1.02604 -0.04687,-1.39062c0,-1.23958 0.09896,-2.45833 0.29688,-3.65625c0.19792,-1.20833 0.42708,-2.41145 0.6875,-3.60937c0.125,-0.625 0.29688,-1.35937 0.51563,-2.20312c0.21875,-0.85417 0.48438,-1.72917 0.79688,-2.625c0.3125,-0.89583 0.67708,-1.78125 1.09375,-2.65625c0.42708,-0.88542 0.91146,-1.67187 1.45313,-2.35937c0.55208,-0.69792 1.17188,-1.26562 1.85938,-1.70312c0.69793,-0.4375 1.46878,-0.65625 2.31253,-0.65625c0.82292,0 1.53646,0.1875 2.14063,0.5625c0.61458,0.36458 1.14583,0.85417 1.59375,1.46875c0.45833,0.60417 0.83854,1.29167 1.14063,2.0625c0.3125,0.77083 0.56771,1.55208 0.76563,2.34375c0.20833,0.79167 0.38021,1.56771 0.51563,2.32813c0.14583,0.75 0.27604,1.42188 0.39063,2.01563c0.28125,1.40625 0.51563,2.83333 0.70313,4.28125c0.19792,1.4375 0.29688,2.88542 0.29688,4.34375zM277.36226,329.03936c0,-0.26042 -0.01562,-0.6875 -0.04687,-1.28125c-0.03125,-0.60417 -0.10417,-1.20312 -0.21875,-1.79687c-0.10417,-0.60417 -0.27083,-1.13542 -0.5,-1.59375c-0.21875,-0.46875 -0.52604,-0.70312 -0.92187,-0.70312c-0.21875,0 -0.42708,0.14583 -0.625,0.4375c-0.1875,0.29167 -0.35937,0.66146 -0.51562,1.10938c-0.14583,0.4375 -0.28125,0.93229 -0.40625,1.48438c-0.1146,0.54167 -0.21878,1.0625 -0.31253,1.5625c-0.08333,0.48958 -0.14583,0.9375 -0.1875,1.34375c-0.04167,0.40625 -0.07292,0.69271 -0.09375,0.85938c1.3021,-0.10417 2.57816,-0.26562 3.82816,-0.48437v-0.9375zM299.52602,319.52373c0,0.54167 -0.21354,1.03646 -0.64062,1.48438c-0.41667,0.44792 -0.92187,0.83854 -1.51562,1.17188c-0.59375,0.33333 -1.20833,0.60938 -1.84375,0.82813c-0.625,0.21875 -1.14583,0.36979 -1.5625,0.45313c-0.16667,1.67708 -0.30208,3.34375 -0.40625,5c-0.09375,1.65625 -0.14062,3.32292 -0.14062,5c0,0.88542 0.02083,1.76563 0.0625,2.64063c0.04167,0.86458 0.0625,1.72917 0.0625,2.59375c0,0.39583 -0.03646,0.82813 -0.10937,1.29688c-0.07292,0.45833 -0.20312,0.89583 -0.39062,1.3125c-0.1875,0.40625 -0.44271,0.75 -0.76562,1.03125c-0.32292,0.29167 -0.72396,0.4375 -1.20312,0.4375c-0.5625,0 -1.01562,-0.16146 -1.35937,-0.48437c-0.33333,-0.3125 -0.59375,-0.69271 -0.78125,-1.14062c-0.17708,-0.45833 -0.30208,-0.94271 -0.375,-1.45312c-0.0625,-0.51042 -0.09375,-0.97396 -0.09375,-1.39062c-0.04167,-1.30208 -0.07292,-2.60937 -0.09375,-3.92187c-0.02083,-1.3125 -0.03125,-2.6302 -0.03125,-3.95312c0,-1.10417 0.00521,-2.1875 0.01563,-3.25c0.01042,-1.0625 0.01563,-2.14583 0.01563,-3.25c-0.30208,0.04167 -0.61458,0.07292 -0.9375,0.09375c-0.3125,0.02083 -0.63021,0.03125 -0.95312,0.03125c-0.26042,0 -0.60417,-0.02604 -1.03125,-0.07812c-0.41667,-0.0625 -0.81771,-0.16146 -1.20312,-0.29687c-0.39583,-0.14583 -0.73437,-0.34375 -1.01562,-0.59375c-0.28125,-0.25 -0.42187,-0.56771 -0.42187,-0.95312c0,-0.65625 0.25521,-1.22396 0.76563,-1.70312c0.51042,-0.48958 1.16146,-0.91146 1.95313,-1.26562c0.79167,-0.36458 1.66667,-0.67187 2.625,-0.92187c0.96875,-0.25 1.92188,-0.44271 2.85938,-0.57812c0.94792,-0.14583 1.81771,-0.25 2.60938,-0.3125c0.79167,-0.07292 1.40625,-0.10937 1.84375,-0.10937c0.41667,0 0.85417,0.02083 1.3125,0.0625c0.46875,0.03125 0.90625,0.125 1.3125,0.28125c0.41667,0.14583 0.76042,0.36979 1.03125,0.67188c0.27083,0.30208 0.40625,0.72396 0.40625,1.26563zM309.09835,319.66436c0,0.40625 -0.09375,0.77604 -0.28125,1.10938c-0.17708,0.32292 -0.42187,0.59896 -0.73437,0.82813c-0.30208,0.21875 -0.63542,0.40625 -1,0.5625c-0.36458,0.15625 -0.72396,0.26563 -1.07812,0.32813c-0.04167,2.44792 -0.13542,4.8125 -0.28125,7.09375c-0.13542,2.28125 -0.35417,4.63541 -0.65625,7.0625h0.1875c0.35417,0 0.69792,0.04167 1.03125,0.125c0.33333,0.07292 0.63542,0.20313 0.90625,0.39063c0.27083,0.17708 0.48958,0.40104 0.65625,0.67188c0.16667,0.27083 0.25,0.60417 0.25,1c0,0.48958 -0.16146,0.92188 -0.48437,1.29688c-0.3125,0.36458 -0.72396,0.67708 -1.23437,0.9375c-0.51042,0.26042 -1.07812,0.47917 -1.70312,0.65625c-0.625,0.17708 -1.25521,0.3125 -1.89062,0.40625c-0.625,0.09375 -1.22396,0.16146 -1.79687,0.20313c-0.5625,0.05208 -1.01562,0.07813 -1.35937,0.07813c-0.26042,0 -0.58333,-0.01562 -0.96875,-0.04687c-0.375,-0.02083 -0.72917,-0.08333 -1.0625,-0.1875c-0.33333,-0.10417 -0.61979,-0.26562 -0.85937,-0.48437c-0.23958,-0.21875 -0.35937,-0.51042 -0.35937,-0.875c0,-0.45833 0.09375,-0.86458 0.28125,-1.21875c0.17708,-0.36458 0.41667,-0.6875 0.71875,-0.96875c0.30208,-0.28125 0.64063,-0.50521 1.01563,-0.67187c0.38542,-0.17708 0.77604,-0.3125 1.17188,-0.40625c0.14583,-1.1875 0.28125,-2.36979 0.40625,-3.54687c0.13542,-1.1875 0.22917,-2.39062 0.28125,-3.60937c0.04167,-1.23958 0.08333,-2.45833 0.125,-3.65625c0.04167,-1.20833 0.08333,-2.42187 0.125,-3.64062c-0.14583,0.03125 -0.28646,0.05208 -0.42187,0.0625c-0.125,0.01042 -0.24479,0.01563 -0.35937,0.01563c-0.30208,0 -0.63021,-0.03125 -0.98437,-0.09375c-0.34375,-0.07292 -0.66667,-0.1875 -0.96875,-0.34375c-0.30208,-0.16667 -0.55729,-0.36979 -0.76562,-0.60937c-0.19792,-0.23958 -0.29687,-0.54167 -0.29687,-0.90625c0,-0.73958 0.30729,-1.34896 0.92188,-1.82812c0.61458,-0.47917 1.34896,-0.84896 2.20313,-1.10937c0.86458,-0.26042 1.73958,-0.4375 2.625,-0.53125c0.89583,-0.10417 1.61458,-0.15625 2.15625,-0.15625c0.30208,0 0.70313,0.02604 1.20313,0.07813c0.5,0.04167 0.98958,0.14063 1.46875,0.29688c0.48958,0.14583 0.91146,0.34896 1.26563,0.60938c0.36458,0.26042 0.54688,0.61979 0.54688,1.07813zM317.00277,342.83623c-1.32292,0 -2.47396,-0.33333 -3.45312,-1c-0.96875,-0.65625 -1.77604,-1.54167 -2.42187,-2.65625c-0.63542,-1.125 -1.10937,-2.42187 -1.42187,-3.89062c-0.3125,-1.47917 -0.46875,-3.03125 -0.46875,-4.65625c0,-1.52083 0.16667,-3.0625 0.5,-4.625c0.33333,-1.5625 0.84896,-2.97396 1.54688,-4.23437c0.69792,-1.26042 1.57813,-2.29167 2.64063,-3.09375c1.0625,-0.80208 2.32813,-1.20312 3.79688,-1.20312c1.4375,0 2.63542,0.38542 3.59375,1.15625c0.96875,0.77083 1.73958,1.77083 2.3125,3c0.58333,1.21875 1,2.58854 1.25,4.10938c0.25,1.52083 0.375,3.04167 0.375,4.5625c0,1.6875 -0.17187,3.28645 -0.51562,4.79687c-0.33333,1.51042 -0.84375,2.84375 -1.53125,4c-0.67708,1.14583 -1.53125,2.05208 -2.5625,2.71875c-1.03125,0.67708 -2.24479,1.01563 -3.64062,1.01563zM317.39339,324.66436c-0.40625,0 -0.75521,0.16667 -1.04687,0.5c-0.29167,0.32292 -0.53646,0.75 -0.73437,1.28125c-0.19792,0.53125 -0.33854,1.13021 -0.42187,1.79688c-0.08333,0.65625 -0.125,1.32292 -0.125,2c0,0.76042 0.04688,1.52083 0.14063,2.28125c0.09375,0.75 0.23958,1.43229 0.4375,2.04688c0.19792,0.60417 0.44271,1.09375 0.73438,1.46875c0.29167,0.36458 0.64583,0.54688 1.0625,0.54688c0.46875,0 0.84375,-0.23958 1.125,-0.71875c0.29167,-0.47917 0.51563,-1.05208 0.67188,-1.71875c0.16667,-0.67708 0.27604,-1.36979 0.32813,-2.07812c0.05208,-0.71875 0.07813,-1.31771 0.07813,-1.79687c0,-0.59375 -0.03646,-1.21354 -0.10937,-1.85937c-0.07292,-0.65625 -0.19792,-1.26042 -0.375,-1.8125c-0.17708,-0.55208 -0.40625,-1.01042 -0.6875,-1.375c-0.28125,-0.375 -0.64062,-0.5625 -1.07812,-0.5625zM346.01302,327.78936c0,0.47917 -0.02604,1.16146 -0.07812,2.04688c-0.04167,0.875 -0.11979,1.83854 -0.23437,2.89063c-0.11458,1.05208 -0.28125,2.125 -0.5,3.21875c-0.21875,1.09375 -0.50521,2.08854 -0.85937,2.98438c-0.34375,0.88542 -0.76562,1.61979 -1.26562,2.20313c-0.5,0.57292 -1.09375,0.85938 -1.78125,0.85938c-0.65625,0 -1.25521,-0.1875 -1.79687,-0.5625c-0.54167,-0.38542 -1.03125,-0.85417 -1.46875,-1.40625c-0.42708,-0.5625 -0.80729,-1.15625 -1.14062,-1.78125c-0.32292,-0.625 -0.59375,-1.19792 -0.8125,-1.71875c-0.44792,-1.11458 -0.90104,-2.20833 -1.35937,-3.28125c-0.45833,-1.07292 -0.89062,-2.16146 -1.29687,-3.26562v0.90625c0,0.9375 -0.00521,1.86979 -0.01562,2.79688c-0.01042,0.91667 -0.08333,1.82813 -0.21875,2.73438c-0.04167,0.375 -0.08854,0.80729 -0.14062,1.29688c-0.05208,0.48958 -0.13542,0.97396 -0.25,1.45313c-0.10417,0.46875 -0.26042,0.91146 -0.46875,1.32813c-0.20833,0.40625 -0.48437,0.70833 -0.82812,0.90625c-0.19792,0.11458 -0.38021,0.18229 -0.54687,0.20313c-0.15625,0.02083 -0.33333,0.05208 -0.53125,0.09375h-0.09375c-0.5,0 -0.92708,-0.16667 -1.28125,-0.5c-0.34375,-0.34375 -0.63542,-0.78125 -0.875,-1.3125c-0.23958,-0.53125 -0.43229,-1.125 -0.57812,-1.78125c-0.13542,-0.66667 -0.23958,-1.31771 -0.3125,-1.95312c-0.07292,-0.64583 -0.11979,-1.23958 -0.14062,-1.78125c-0.02083,-0.54167 -0.03125,-0.97396 -0.03125,-1.29687c0,-0.5 0.02083,-1.22917 0.0625,-2.1875c0.04167,-0.96875 0.13021,-2.03646 0.26563,-3.20312c0.14583,-1.17708 0.33333,-2.38542 0.5625,-3.625c0.22917,-1.23958 0.52604,-2.36458 0.89063,-3.375c0.375,-1.01042 0.82292,-1.83333 1.34375,-2.46875c0.52083,-0.64583 1.125,-0.96875 1.8125,-0.96875c0.67708,0 1.28125,0.26042 1.8125,0.78125c0.53125,0.52083 1,1.14063 1.40625,1.85938c0.41667,0.71875 0.76563,1.46875 1.04688,2.25c0.28125,0.78125 0.52083,1.43229 0.71875,1.95313c0.36458,1.02083 0.71875,2.03646 1.0625,3.04688c0.35417,1.01042 0.69271,2.03646 1.01563,3.07813c0.02083,0.04167 0.0625,0.16146 0.125,0.35938c0.07292,0.1875 0.15104,0.40105 0.23438,0.64063c0.08333,0.26042 0.19271,0.55208 0.32813,0.875c0,-0.28125 -0.00521,-0.47917 -0.01562,-0.59375c-0.01042,-0.125 -0.01562,-0.23437 -0.01562,-0.32812c0,-0.09375 0,-0.21875 0,-0.375c0,-0.15625 0,-0.39583 0,-0.71875c-0.02083,-0.71875 -0.03646,-1.43229 -0.04687,-2.14062c-0.01042,-0.71875 -0.01562,-1.42708 -0.01562,-2.125c0,-0.30208 0.00521,-0.72396 0.01563,-1.26562c0.01042,-0.54167 0.04167,-1.11979 0.09375,-1.73437c0.05208,-0.625 0.13021,-1.25 0.23438,-1.875c0.11458,-0.63542 0.27604,-1.20312 0.48438,-1.70312c0.20833,-0.51042 0.46875,-0.92708 0.78125,-1.25c0.3125,-0.33333 0.69792,-0.5 1.15625,-0.5c0.54167,0 1.00521,0.20833 1.39063,0.625c0.39583,0.40625 0.72396,0.93229 0.98438,1.57813c0.26042,0.63542 0.46354,1.34896 0.60938,2.14063c0.15625,0.79167 0.27604,1.56771 0.35938,2.32813c0.09375,0.76042 0.15104,1.46875 0.17188,2.125c0.02083,0.64583 0.03125,1.15104 0.03125,1.51563z" fill="#000000" stroke="none" stroke-width="1" stroke-linecap="square"/><g stroke-linecap="butt"><path d="M384.10157,337.17396c0,-11.71315 0,-67.93786 0,-75c0,-1.42978 1.20011,-2.53334 2.73333,-2.53334c6.98845,0 58.75511,0 73.2,0c2.36828,0 3.73334,1.39598 3.73334,3.13333c0,7.63416 0,62.19284 0,74.2c0,1.49768 -1.2976,2.33333 -2.93333,2.33333c-7.36188,0 -61.18448,0 -74,0c-1.74821,0 -2.73333,-0.7613 -2.73333,-2.13333z" fill="#596064" stroke="#000000" stroke-width="3.5"/><g stroke="none" stroke-width="0"><path d="M391.92524,304.45044c0,6.88671 -0.18704,16.7579 -0.2057,22.03665c-0.00977,2.76403 -1.01628,4.54238 -1.7944,5.25824c-1.58988,1.46269 -7.25758,6.67696 -7.25758,6.67696v-41.14378c2.995,-0.31468 5.81747,-8.86561 8.93356,-9.149c0.04426,3.0303 0.32412,14.03909 0.32412,16.32092z" fill="#272727"/><path d="M382.66756,261.82345c0,0 5.33583,5.54925 6.96409,7.24265c0.87953,0.91469 1.9903,3.40424 1.94754,5.46261c-0.05543,2.66818 -0.11283,6.62563 -0.08421,10.73138c0.01555,2.23035 0.04307,4.5783 0.07693,6.9694c-2.9564,-0.08474 -5.98699,-0.13179 -8.90435,0.04499z" fill="#272727"/><path d="M455.35502,328.06914c0,-3.03161 -0.21644,-18.09273 -0.3279,-33.46102c3.14493,0.24818 6.2704,0.57445 9.32387,0.99234v42.66082c0,0 -6.09833,-5.61045 -7.61464,-7.00546c-0.64583,-0.59416 -1.38134,-2.0907 -1.38134,-3.18668z" data-paper-data="{&quot;index&quot;:null}" fill="#272727"/><path d="M455.20475,275.38644c0.08062,-2.75563 0.80682,-5.05101 1.40203,-5.67001c1.48046,-1.53967 7.74422,-8.054 7.74422,-8.054v30.73923c-3.14538,-0.26277 -6.27228,-0.47376 -9.38847,-0.6386c0.00299,-6.78328 0.13272,-12.63417 0.24222,-16.37664z" data-paper-data="{&quot;index&quot;:null}" fill="#272727"/><path d="M462.45459,340.18458l-78.33695,-0.14808c0,0 5.76349,-5.31178 7.52868,-6.93863c0.95756,-0.88251 2.86494,-2.04059 4.02602,-2.03826c3.05367,0.00609 8.73055,0.01926 16.3569,0.03449c4.45917,0.00891 10.00664,-0.24319 14.78512,-0.23387c11.31677,0.02206 21.3356,0.30417 24.07476,0.30964c1.39856,0.0028 3.4717,0.93457 4.23426,1.69584c1.58656,1.58388 7.33125,7.31887 7.33125,7.31887z" fill="#787880"/><path d="M451.14101,269.08914c-1.83999,0.06101 -4.82292,0.13118 -8.36165,0.10708c-7.02321,-0.04784 -16.33725,-0.36549 -24.73156,-0.38226c-10.89398,-0.02176 -18.53701,0.08887 -21.45981,0.08303c-1.64092,-0.00329 -4.11634,-1.12661 -4.95282,-1.9905c-1.57407,-1.62561 -6.80406,-7.02696 -6.80406,-7.02696l76.94531,0.14808c0,0 -5.70622,5.92413 -7.19483,7.46958c-0.66989,0.69548 -2.18102,1.55016 -3.44059,1.59193z" data-paper-data="{&quot;index&quot;:null}" fill="#79797f"/><path d="M382.66756,270.63061c0,0 5.33583,5.54924 6.96409,7.24265c0.87953,0.91469 1.9903,3.40424 1.94754,5.46262c-0.05543,2.66818 -0.11283,6.62563 -0.08421,10.73137c0.01555,2.23035 0.04306,4.57829 0.07692,6.96939c-2.9564,-0.08475 -5.98697,-0.1318 -8.90434,0.045z" fill="#272727"/><path d="M455.20475,284.19359c0.08062,-2.75563 0.80682,-5.05101 1.40203,-5.67001c1.48046,-1.53967 7.74422,-8.054 7.74422,-8.054v30.73923c-3.14538,-0.26277 -6.27228,-0.47376 -9.38847,-0.6386c0.00299,-6.78328 0.13272,-12.63417 0.24222,-16.37664z" data-paper-data="{&quot;index&quot;:null}" fill="#272727"/></g><path d="M384.10156,337.17396c0,-11.71315 0,-67.93786 0,-75c0,-1.42977 1.20011,-2.53333 2.73333,-2.53333c6.98846,0 58.7551,0 73.2,0c2.36828,0 3.73333,1.39598 3.73333,3.13333c0,7.63417 0,62.19285 0,74.2c0,1.49768 -1.2976,2.33333 -2.93333,2.33333c-7.36188,0 -61.18449,0 -74,0c-1.74821,0 -2.73333,-0.7613 -2.73333,-2.13333z" fill="none" stroke="#000000" stroke-width="3.5"/><path d="M398.8751,321.07025c0,-11.43484 0,-36.26805 0,-41.46844c0,-2.01671 2.22228,-3.90291 4.5,-3.90291c5.5107,0 29.40633,0 40,0c3.21428,0 4.75,2.36122 4.75,5.12257c0,6.09016 0,30.24548 0,40.49272c0,2.85847 -3.08553,4.63471 -6,4.63471c-6.09771,0 -28.95614,0 -38.75,0c-2.77408,0 -4.5,-1.03238 -4.5,-4.87865z" fill="#9c9c9c" stroke="#000000" stroke-width="2.5"/><path d="M406.58377,315.53215c0.07933,-2.08857 0.675,-3.94401 1.36441,-7.79206c0.36967,-2.0634 0.92139,-12.69417 0.36237,-14.79373c-1.04764,-3.93466 -2.56907,-7.32846 -1.20748,-8.73938c2.28956,-2.37251 8.06265,0.567 14.5055,0.78273c5.48974,0.18381 11.53423,-2.56883 15.58352,-1.8987c3.68162,0.60928 4.63087,3.26949 4.5742,6.41178c-0.06739,3.73721 -1.64118,7.67786 -1.64118,12.49295c0,4.82265 1.75,10.51853 1.75,12.75c0,3.12478 -1.9765,4.97182 -4.92956,4.7089c-2.64592,-0.23557 -7.07583,-1.7089 -10.57044,-1.7089c-5.45974,0 -10.19113,2.25 -12.75,2.25c-2.83377,0 -7.13615,-1.96733 -7.04133,-4.46359z" fill="#cbcbcb" stroke="none" stroke-width="0"/></g><path d="M224.85156,267.80729h-50.66666" fill="none" stroke="#ffffff" stroke-width="3" stroke-linecap="round"/><g fill="none" stroke="#ffffff" stroke-width="3" stroke-linecap="round"><path d="M175.1849,191.80729h50.66666"/><path d="M174.51823,231.47396h24.66667"/></g><g fill="none" stroke="#ffffff" stroke-width="3" stroke-linecap="round"><path d="M175.1849,115.80729h50.66666"/><path d="M174.51823,155.47395h24.66667"/></g></g></g></svg>