<svg version="1.1" xmlns="http://www.w3.org/2000/svg" xmlns:xlink="http://www.w3.org/1999/xlink" width="80" height="60" viewBox="0,0,80,60"><g transform="translate(-203.47332,-149.01283)"><g data-paper-data="{&quot;isPaintingLayer&quot;:true}" fill-rule="nonzero" stroke-linejoin="miter" stroke-miterlimit="10" stroke-dasharray="" stroke-dashoffset="0" style="mix-blend-mode: normal"><path d="M222.85264,176.68119c0.28106,-0.66429 1.08783,-0.83854 1.61755,-0.54333c1.34093,0.74724 7.10308,3.95821 7.10308,3.95821l-1.11829,1.90855c0,0 -6.36288,0.68337 -7.87201,0.84547c-0.60914,0.06543 -1.20692,-0.50629 -1.09249,-1.29835c0.07805,-0.54024 -0.17118,-1.47418 0.48585,-3.13709c0.40858,-1.03409 0.76401,-1.4681 0.87629,-1.73344z" data-paper-data="{&quot;index&quot;:null}" fill="#5a89ab" stroke="#ffffff" stroke-width="1" stroke-linecap="butt"/><path d="M225.47065,169.35304c0.28106,-0.66429 1.08783,-0.83854 1.61755,-0.54333c1.34093,0.74724 7.10308,3.95821 7.10308,3.95821l-1.11829,1.90855c0,0 -6.36288,0.68337 -7.87201,0.84547c-0.60914,0.06543 -1.20692,-0.50629 -1.09249,-1.29835c0.07805,-0.54024 -0.17118,-1.47418 0.48585,-3.13709c0.40858,-1.03409 0.76401,-1.4681 0.87629,-1.73344z" data-paper-data="{&quot;index&quot;:null}" fill="#5a89ab" stroke="#ffffff" stroke-width="1" stroke-linecap="butt"/><path d="M222.75889,172.72068c0.28106,-0.66429 1.08782,-0.83853 1.61755,-0.54333c1.34093,0.74724 7.10308,3.95821 7.10308,3.95821l-1.11831,1.90856c0,0 -6.36288,0.68336 -7.87201,0.84545c-0.60914,0.06543 -1.20693,-0.5063 -1.09249,-1.29835c0.07806,-0.54022 -0.17118,-1.47417 0.48586,-3.13708c0.4086,-1.03409 0.76404,-1.46811 0.8763,-1.73345z" data-paper-data="{&quot;index&quot;:null}" fill="#286ea0" stroke="#ffffff" stroke-width="1.5" stroke-linecap="butt"/><path d="M228.16524,183.77947c-0.339,-0.16168 -0.98697,-0.8413 -0.89993,-1.43911c0.38176,-2.62205 2.22546,-9.54231 2.83306,-11.78947c0.12241,-0.45274 0.6294,-0.73358 1.31498,-0.75908c1.9958,-0.07424 6.11727,-0.21382 7.82731,-0.17015c1.04376,0.02666 1.79244,-2.59936 3.02926,-3.48502c0.836,-0.59863 2.34042,0.39109 2.60839,0.50285c0.96269,0.40144 2.32599,1.11985 3.55897,2.07631c2.81669,2.18498 3.67774,6.05723 5.4693,8.16736c0.33255,0.39169 3.25398,2.56918 4.2513,4.28558c1.01419,1.7454 0.98852,5.1813 -1.63123,6.71292c-2.54116,1.48567 -7.63039,1.06064 -9.74277,3.14461c-1.61919,1.5974 -13.72938,4.26156 -12.22168,1.33611c0.93497,-1.81412 0.62777,-3.12059 0.2158,-3.93997c-0.1969,-0.39161 -0.88875,-1.23747 -1.60262,-1.71864c-1.35561,-0.9137 -3.68074,-2.29027 -5.01017,-2.92429z" data-paper-data="{&quot;index&quot;:null}" fill="#246fa1" stroke="none" stroke-width="0" stroke-linecap="butt"/><path d="M230.4537,171.31554c0,0 7.29319,2.25246 6.15343,6.9683c-1.25068,5.17479 -9.34783,2.84629 -9.34783,2.84629" data-paper-data="{&quot;index&quot;:null}" fill="none" stroke="#4482ad" stroke-width="1" stroke-linecap="round"/><path d="M242.78599,192.46626c0,0 0.5015,-2.40129 1.81374,-3.88414c0.925,-1.04525 -0.30918,-2.58573 1.02825,-3.36742c1.45809,-0.8522 2.16438,0.41663 4.03466,0.81188c1.29752,0.27419 2.68207,-0.29086 3.9366,-0.05465c1.8933,0.35648 3.42843,1.45974 3.42843,1.45974" data-paper-data="{&quot;index&quot;:null}" fill="none" stroke="#4482ad" stroke-width="1" stroke-linecap="round"/><path d="M257.79455,181.48506c0,0 -1.74795,0.28175 -3.48337,-0.21212c-1.14992,-0.32724 -2.07338,-1.38019 -3.27521,-1.6936c-1.73234,-0.45175 -2.8552,0.31565 -3.72008,-1.00866c-0.79331,-1.21472 0.88552,-1.98873 0.54809,-3.25164c-0.47869,-1.7916 0.36445,-5.76146 0.36445,-5.76146" data-paper-data="{&quot;index&quot;:null}" fill="none" stroke="#4482ad" stroke-width="1" stroke-linecap="round"/><path d="M228.16524,183.77948c-0.339,-0.16168 -0.98697,-0.8413 -0.89993,-1.43911c0.38176,-2.62205 2.22546,-9.54231 2.83306,-11.78947c0.12241,-0.45274 0.6294,-0.73358 1.31498,-0.75908c1.99579,-0.07424 6.16475,0.31108 7.87481,0.35475c1.74925,0.04467 2.12101,-3.01573 2.87438,-4.03312c0.34382,-0.46431 2.05136,0.24898 2.71579,0.52605c0.96269,0.40144 2.32599,1.11985 3.55897,2.07631c2.81669,2.18498 3.67774,6.05723 5.4693,8.16736c0.33255,0.39169 3.25398,2.56918 4.2513,4.28558c1.01419,1.7454 0.98852,5.1813 -1.63123,6.71292c-2.54116,1.48567 -7.63039,1.06064 -9.74277,3.14461c-1.61919,1.5974 -13.72938,4.26156 -12.22168,1.33611c0.93496,-1.81412 0.62777,-3.12057 0.2158,-3.93997c-0.1969,-0.39162 -0.88874,-1.23748 -1.6026,-1.71865c-1.35561,-0.9137 -3.68074,-2.29027 -5.01018,-2.92428z" data-paper-data="{&quot;index&quot;:null}" fill="none" stroke="#ffffff" stroke-width="1.5" stroke-linecap="butt"/><path d="M203.47333,209.01284v-60h80v60z" data-paper-data="{&quot;index&quot;:null}" fill="none" stroke="none" stroke-width="NaN" stroke-linecap="butt"/></g></g></svg>