<svg version="1.1" xmlns="http://www.w3.org/2000/svg" xmlns:xlink="http://www.w3.org/1999/xlink" width="367.86787" height="355.85586" viewBox="0,0,367.86787,355.85586"><g transform="translate(-56.06607,-25.94596)"><g data-paper-data="{&quot;isPaintingLayer&quot;:true}" fill-rule="nonzero" stroke-linejoin="miter" stroke-miterlimit="10" stroke-dasharray="" stroke-dashoffset="0" style="mix-blend-mode: normal"><path d="M262.82464,166.99418c-1.62258,1.73508 -8.7593,8.72586 -12.25838,11.34479c-0.9624,0.72032 -2.62843,0.4553 -3.06825,0.2683c-2.57022,-1.09278 -6.51212,-2.94135 -11.43824,-4.86061c-11.81676,-4.60394 -26.89946,-10.13115 -30.07843,-11.3697c-1.18036,-0.45988 -1.58393,-1.39096 -0.60187,-2.33032c1.64344,-1.57199 4.61103,-4.47058 7.89911,-7.52232c2.26196,-2.09938 4.6756,-4.17928 6.91414,-6.32049c4.9191,-4.70524 8.88905,-8.82897 10.24247,-10.12355c0.80583,-0.7708 2.36135,-1.04669 3.41137,-0.58169c4.08555,1.80932 30.36596,13.25961 38.44311,17.0248c2.56937,1.19773 3.30143,1.5474 2.54719,2.379c-0.98143,1.08208 -4.6061,4.48733 -7.89513,8.00803c-0.65688,0.70314 -3.4293,3.34827 -4.1171,4.08376z" data-paper-data="{&quot;index&quot;:null}" fill="#4c685a" stroke="#15221c" stroke-width="3" stroke-linecap="butt"/><path d="M249.8644,174.07679c-0.70663,0.75323 -1.59506,1.01045 -2.4357,0.68293c-2.0023,-0.78012 -6.08602,-2.65689 -10.80671,-4.49612c-9.66935,-3.76728 -22.01114,-8.29006 -24.61241,-9.30354c-0.96586,-0.3763 -1.29608,-1.13819 -0.49249,-1.90684c1.34479,-1.28632 3.77309,-3.65817 6.46364,-6.15533c1.85091,-1.71787 3.82593,-3.41979 5.65767,-5.17189c4.02518,-3.85018 7.27368,-7.22452 8.38115,-8.28384c0.65939,-0.63073 1.93224,-0.85649 2.79144,-0.47599c3.3431,1.48051 24.8477,10.85001 31.45702,13.93096c2.10245,0.98007 2.34059,2.17119 1.72341,2.85167c-0.80308,0.88544 -11.65055,11.60705 -13.11606,13.24334c-1.87324,2.09153 -3.90291,3.90351 -5.01096,5.08464z" data-paper-data="{&quot;index&quot;:null}" fill="#4c685a" stroke="#294436" stroke-width="2.5" stroke-linecap="butt"/><path d="M249.14784,220.85275c0,0.74159 -0.63158,1.06708 -1.44592,0.75448c-4.43258,-1.70154 -42.83979,-16.44495 -42.83979,-16.44495v-43.28571l44.28572,17.28571z" data-paper-data="{&quot;index&quot;:null}" fill="#39574f" stroke="#15221c" stroke-width="3" stroke-linecap="butt"/><path d="M249.56391,220.90953c-0.4919,0.48804 -0.20945,0.00048 -0.20934,-0.72334c0.00069,-4.52626 -0.19244,-41.04594 -0.19244,-41.04594c0,0 22.87343,-22.62594 25.61639,-25.23991c0.53993,-0.51455 0.36933,1.54118 0.36933,2.77471c0,4.24559 0,28.64046 0,36.63953c0,1.59626 -0.71371,3.23751 -1.90384,4.40152c-5.56025,5.43818 -21.51944,21.0497 -23.6801,23.19342z" data-paper-data="{&quot;index&quot;:null}" fill="#26423b" stroke="#15221c" stroke-width="3" stroke-linecap="butt"/><path d="M245.545,195.74985c0,0 -8.57685,-3.29372 -9.96488,-3.74483c-0.40516,-0.13168 -0.93977,0.01835 -1.20222,0.48252c-1.3281,2.34892 -4.16668,9.83008 -4.94326,11.20355c-0.24878,0.44 -0.65044,0.91601 -1.32971,0.64485c-2.34245,-0.93508 -7.42949,-2.81681 -8.55822,-3.27857c-0.39434,-0.16133 -1.01826,-1.02054 -1.03644,-1.5295c-0.0557,-1.55958 -1.0941,-10.13487 -1.18666,-12.72646c-0.01803,-0.50481 -0.39022,-0.94991 -0.77787,-1.10895c-1.3436,-0.55122 -9.00075,-3.69261 -9.00075,-3.69261" data-paper-data="{&quot;index&quot;:null}" fill="none" stroke="#2c453e" stroke-width="2.5" stroke-linecap="round"/><path d="M246.00302,217.21942c0,0.64246 -0.54715,0.92444 -1.25264,0.65363c-3.22607,-1.23839 -27.2255,-10.45108 -34.81774,-13.36552c-1.445,-0.55469 -2.29567,-1.73255 -2.29567,-3.17434c0,-7.33074 0,-29.92625 0,-33.5c0,-0.93383 0.66724,-1.44618 1.82279,-0.99514c6.88137,2.68595 31.07984,12.13115 34.8131,13.58833c0.94753,0.36985 1.73017,1.50218 1.73017,2.90681c0,7.40055 0,30.83953 0,33.88624z" data-paper-data="{&quot;index&quot;:null}" fill="none" stroke="#2c453e" stroke-width="2.5" stroke-linecap="butt"/><path d="M252.90052,210.91389c-0.00905,-3.67977 -0.05281,-21.48306 -0.06821,-27.74861c-0.00336,-1.36873 0.53445,-2.72156 1.43077,-3.60892c3.97705,-3.93725 14.97285,-14.81746 16.97489,-16.73882c0.41196,-0.39536 0.64984,0.05373 0.64984,0.87229c0,3.13258 0,22.93872 0,29.36449c0,1.2638 -0.30327,2.29627 -0.81842,2.78248c-2.22299,2.09814 -13.04588,12.61535 -16.84296,16.30716c-0.82617,0.80327 -1.32271,0.06912 -1.32591,-1.23007z" data-paper-data="{&quot;index&quot;:null}" fill="none" stroke="#1c302b" stroke-width="2.5" stroke-linecap="butt"/><path d="M271.80976,175.86848c0,0 -2.786,2.30148 -3.61281,2.9845c-0.4322,0.35703 -1.05363,1.61283 -1.15409,2.81826c-0.27092,3.251 -0.7892,9.47044 -0.91862,11.02345c-0.05761,0.69135 -0.59145,1.79465 -1.27208,2.3952c-1.36406,1.20358 -3.5461,3.12891 -4.34591,3.83463c-0.5819,0.51344 -1.40353,0.30789 -1.57155,-0.90119c-0.37174,-2.67511 -1.04203,-7.17616 -1.51221,-8.48771c-0.35609,-0.9933 -1.60718,-0.6382 -2.16003,-0.20054c-0.88502,0.70064 -2.11938,2.06673 -2.11938,2.06673" data-paper-data="{&quot;index&quot;:null}" fill="none" stroke="#1c302b" stroke-width="2" stroke-linecap="round"/><path d="M56.06608,381.80183v-355.85586h367.86787v355.85586z" fill="none" stroke="none" stroke-width="0" stroke-linecap="butt"/><path d="M244.88,261.49601c-33.80167,0 -61.20333,-33.04586 -61.20333,-73.81c0,-40.76414 27.40166,-73.81 61.20333,-73.81c33.80167,0 61.20333,33.04586 61.20333,73.81c0,40.76414 -27.40166,73.81 -61.20333,73.81z" fill="none" stroke="none" stroke-width="0" stroke-linecap="butt"/></g></g></svg>