<svg version="1.1" xmlns="http://www.w3.org/2000/svg" xmlns:xlink="http://www.w3.org/1999/xlink" width="411.41141" height="328.82883" viewBox="0,0,411.41141,328.82883"><g transform="translate(-42.5526,-16.93694)"><g data-paper-data="{&quot;isPaintingLayer&quot;:true}" fill-rule="nonzero" stroke-linecap="butt" stroke-linejoin="miter" stroke-miterlimit="10" stroke-dasharray="" stroke-dashoffset="0" style="mix-blend-mode: normal"><path d="M73.75002,293.4c0,-51.10496 0,-200.56057 0,-228c0,-8.46917 6.65974,-15.94354 14.75,-15.94354c32.16419,0 242.36414,0 302,0c9.98576,0 15.75,8.0031 15.75,16.94354c0,28.01636 0,176.15949 0,227c0,10.74486 -8.18751,17.14355 -17.75,17.14355c-34.23888,0 -237.81186,0 -298,0c-10.59765,0 -16.75,-6.39746 -16.75,-17.14355z" fill="#a3c2a7" stroke="#000000" stroke-width="10"/><path d="M73.75002,293.4c0,-51.10496 0,-200.56057 0,-228c0,-8.46917 6.65974,-15.94354 14.75,-15.94354c32.16419,0 242.36414,0 302,0c9.98576,0 15.75,8.0031 15.75,16.94354c0,28.01636 0,176.15949 0,227c0,10.74486 -8.18751,17.14355 -17.75,17.14355c-34.23888,0 -237.81186,0 -298,0c-10.59765,0 -16.75,-6.39746 -16.75,-17.14355z" fill="#a3c2a7" stroke="#ffffff" stroke-width="4"/><path d="M42.5526,345.76577v-328.82883h411.41141v328.82883z" fill="none" stroke="none" stroke-width="0"/></g></g></svg>