<svg version="1.1" xmlns="http://www.w3.org/2000/svg" xmlns:xlink="http://www.w3.org/1999/xlink" width="48.1289" height="34.29689" viewBox="0,0,48.1289,34.29689"><g transform="translate(-215.93555,-162.85156)"><g data-paper-data="{&quot;isPaintingLayer&quot;:true}" fill="#ffffff" fill-rule="nonzero" stroke-linecap="square" stroke-linejoin="miter" stroke-miterlimit="10" stroke-dasharray="" stroke-dashoffset="0" style="mix-blend-mode: normal"><path d="M232.52928,168.85156v21.875c0,2.61458 -0.88021,3.92188 -2.64062,3.92188c-0.60417,0 -1.20312,-0.19792 -1.79687,-0.59375c-0.58333,-0.39583 -0.875,-1.42708 -0.875,-3.09375v-17.25c-3.35417,2.54167 -5.56771,3.8125 -6.64062,3.8125c-0.61458,0 -1.125,-0.20312 -1.53125,-0.60937c-0.40625,-0.41667 -0.60937,-0.94792 -0.60937,-1.59375c0,-0.46875 0.15104,-0.86979 0.45313,-1.20312c0.30208,-0.33333 0.94271,-0.72917 1.92188,-1.1875c3.26042,-1.60417 5.55208,-3.43229 6.875,-5.48437c0.54167,-0.84375 0.96354,-1.40104 1.26563,-1.67187c0.30208,-0.28125 0.71875,-0.42187 1.25,-0.42187c1.55208,0 2.32813,1.16667 2.32813,3.5zM251.53319,165.35156c2.96875,0 5.38021,1.11979 7.23438,3.35938c1.86458,2.23958 2.79688,6.04167 2.79688,11.40625c0,5.41667 -0.98437,9.19271 -2.95312,11.32813c-1.95833,2.13542 -4.29167,3.20313 -7,3.20313c-2.8125,0 -5.19792,-1.13021 -7.15625,-3.39062c-1.94792,-2.27083 -2.92187,-5.94271 -2.92187,-11.01562c0,-5.29167 0.86458,-9.09375 2.59375,-11.40625c1.72917,-2.32292 4.19792,-3.48437 7.40625,-3.48437zM251.53319,190.67969c1.59375,0 2.76563,-0.77604 3.51563,-2.32812c0.75,-1.55208 1.125,-4.41146 1.125,-8.57812c0,-3.79167 -0.36979,-6.47917 -1.10937,-8.0625c-0.72917,-1.59375 -1.90625,-2.39062 -3.53125,-2.39062c-1.55208,0 -2.70833,0.77083 -3.46875,2.3125c-0.75,1.53125 -1.125,4.29688 -1.125,8.29688c0,4.0625 0.375,6.86979 1.125,8.42188c0.76042,1.55208 1.91667,2.32813 3.46875,2.32813z" stroke="#000000" stroke-width="5"/><path d="M232.52928,168.85156v21.875c0,2.61458 -0.88021,3.92188 -2.64062,3.92188c-0.60417,0 -1.20312,-0.19792 -1.79687,-0.59375c-0.58333,-0.39583 -0.875,-1.42708 -0.875,-3.09375v-17.25c-3.35417,2.54167 -5.56771,3.8125 -6.64062,3.8125c-0.61458,0 -1.125,-0.20312 -1.53125,-0.60937c-0.40625,-0.41667 -0.60937,-0.94792 -0.60937,-1.59375c0,-0.46875 0.15104,-0.86979 0.45313,-1.20312c0.30208,-0.33333 0.94271,-0.72917 1.92188,-1.1875c3.26042,-1.60417 5.55208,-3.43229 6.875,-5.48437c0.54167,-0.84375 0.96354,-1.40104 1.26563,-1.67187c0.30208,-0.28125 0.71875,-0.42187 1.25,-0.42187c1.55208,0 2.32813,1.16667 2.32813,3.5zM251.53319,165.35156c2.96875,0 5.38021,1.11979 7.23438,3.35938c1.86458,2.23958 2.79688,6.04167 2.79688,11.40625c0,5.41667 -0.98437,9.19271 -2.95312,11.32813c-1.95833,2.13542 -4.29167,3.20313 -7,3.20313c-2.8125,0 -5.19792,-1.13021 -7.15625,-3.39062c-1.94792,-2.27083 -2.92187,-5.94271 -2.92187,-11.01562c0,-5.29167 0.86458,-9.09375 2.59375,-11.40625c1.72917,-2.32292 4.19792,-3.48437 7.40625,-3.48437zM251.53319,190.67969c1.59375,0 2.76563,-0.77604 3.51563,-2.32812c0.75,-1.55208 1.125,-4.41146 1.125,-8.57812c0,-3.79167 -0.36979,-6.47917 -1.10937,-8.0625c-0.72917,-1.59375 -1.90625,-2.39062 -3.53125,-2.39062c-1.55208,0 -2.70833,0.77083 -3.46875,2.3125c-0.75,1.53125 -1.125,4.29688 -1.125,8.29688c0,4.0625 0.375,6.86979 1.125,8.42188c0.76042,1.55208 1.91667,2.32813 3.46875,2.32813z" stroke="none" stroke-width="0"/></g></g></svg>