<svg version="1.1" xmlns="http://www.w3.org/2000/svg" xmlns:xlink="http://www.w3.org/1999/xlink" width="144.14414" height="60.93899" viewBox="0,0,144.14414,60.93899"><g transform="translate(-167.92793,-149.5305)"><g data-paper-data="{&quot;isPaintingLayer&quot;:true}" fill-rule="nonzero" stroke-linejoin="miter" stroke-miterlimit="10" stroke-dasharray="" stroke-dashoffset="0" style="mix-blend-mode: normal"><path d="M205.77539,174.76343c0,0.37741 0.1633,0.70765 0.48991,0.99071c0.32661,0.2758 1.15764,0.57337 2.49309,0.89272c1.34271,0.31935 2.33705,0.65684 2.98301,1.01248c0.64595,0.34838 1.11046,0.80926 1.39352,1.38263c0.29032,0.56612 0.43547,1.15764 0.43547,1.77456c0,1.24111 -0.47177,2.25721 -1.4153,3.04833c-0.93627,0.78386 -2.21729,1.17578 -3.84306,1.17578c-1.77819,0 -3.10639,-0.42459 -3.9846,-1.27376c-0.87821,-0.85643 -1.31732,-1.74191 -1.31732,-2.6564c0,-0.30483 0.1125,-0.57337 0.33749,-0.80563c0.225,-0.23951 0.51894,-0.35927 0.88184,-0.35927c0.33387,0 0.58064,0.10162 0.74031,0.30484c0.16693,0.19597 0.36652,0.56249 0.59878,1.09957c0.49354,1.1395 1.379,1.70924 2.6564,1.70924c0.76208,0 1.4044,-0.17419 1.92698,-0.52257c0.52257,-0.34838 0.78385,-0.82378 0.78385,-1.42618c0,-0.4645 -0.18145,-0.86369 -0.54434,-1.19756c-0.35564,-0.33387 -1.17941,-0.64958 -2.47132,-0.94715c-1.29191,-0.29757 -2.19915,-0.58064 -2.72172,-0.84918c-0.51531,-0.2758 -0.96893,-0.67136 -1.36086,-1.18667c-0.38467,-0.51531 -0.577,-1.15401 -0.577,-1.91609c0,-1.13224 0.44636,-2.03584 1.33909,-2.71083c0.89998,-0.67498 2.11931,-1.01248 3.65799,-1.01248c1.57497,0 2.76164,0.35926 3.56001,1.0778c0.79837,0.71854 1.19756,1.4407 1.19756,2.16649c0,0.30483 -0.11613,0.59152 -0.34838,0.86006c-0.23225,0.26128 -0.5262,0.39193 -0.88184,0.39193c-0.32661,0 -0.57338,-0.09072 -0.74031,-0.27217c-0.16693,-0.1887 -0.35927,-0.50079 -0.577,-0.93627c-0.45725,-0.91449 -1.24837,-1.37175 -2.37334,-1.37175c-0.65321,0 -1.20481,0.14153 -1.6548,0.42459c-0.44274,0.28306 -0.6641,0.66047 -0.6641,1.13223zM222.5944,180.60968h-4.85555c0.02178,0.92176 0.27218,1.61852 0.7512,2.09028c0.47902,0.4645 1.05603,0.69676 1.73101,0.69676c0.8274,0 1.60763,-0.36289 2.34068,-1.08868c0.29757,-0.30483 0.51531,-0.49354 0.65321,-0.56612c0.14516,-0.07258 0.30483,-0.10887 0.47902,-0.10887c0.225,0 0.41733,0.07258 0.577,0.21774c0.15968,0.1379 0.23951,0.30846 0.23951,0.51168c0,0.55886 -0.38104,1.14675 -1.14312,1.76368c-0.76208,0.60967 -1.7927,0.9145 -3.09187,0.9145c-1.65481,0 -2.91042,-0.46814 -3.76686,-1.40441c-0.85643,-0.93627 -1.28465,-2.14472 -1.28465,-3.62533c0,-1.50239 0.42822,-2.71809 1.28465,-3.6471c0.85644,-0.92901 2.04674,-1.39352 3.5709,-1.39352c1.45158,0 2.57293,0.4391 3.36405,1.31731c0.79837,0.87821 1.19755,1.829 1.19755,2.85236c0,0.45725 -0.13427,0.81652 -0.40282,1.0778c-0.26129,0.26128 -0.80926,0.39193 -1.64392,0.39193zM217.73885,179.20527h4.50717c-0.02903,-0.82015 -0.25765,-1.44433 -0.68587,-1.87255c-0.42096,-0.43547 -0.94353,-0.65321 -1.56771,-0.65321c-1.31368,0 -2.06488,0.84192 -2.25359,2.52576zM234.54569,180.89274c0.30483,0 0.55523,0.11975 0.75119,0.35926c0.20322,0.23226 0.30483,0.47177 0.30483,0.71854c0,0.67498 -0.40281,1.35723 -1.20844,2.04673c-0.80563,0.68225 -1.8798,1.02337 -3.22251,1.02337c-1.62578,0 -2.85599,-0.46088 -3.69065,-1.38263c-0.8274,-0.92176 -1.24111,-2.11931 -1.24111,-3.59267c0,-1.49513 0.42821,-2.71809 1.28465,-3.66887c0.86369,-0.95078 2.09028,-1.42618 3.67977,-1.42618c1.23385,0 2.25358,0.32298 3.05921,0.96893c0.80563,0.64595 1.20845,1.28103 1.20845,1.90521c0,0.30483 -0.10887,0.55886 -0.32661,0.76208c-0.21774,0.20322 -0.47177,0.30484 -0.76208,0.30484c-0.3629,0 -0.64958,-0.15605 -0.86006,-0.46814c-0.44999,-0.6895 -0.8528,-1.12497 -1.20844,-1.30642c-0.34838,-0.1887 -0.72579,-0.28306 -1.13224,-0.28306c-0.79111,0 -1.40078,0.30483 -1.82899,0.9145c-0.42822,0.60967 -0.64233,1.36812 -0.64233,2.27536c0,0.92901 0.225,1.68746 0.67498,2.27535c0.44999,0.58789 1.04877,0.88184 1.79633,0.88184c0.42822,0 0.82378,-0.10161 1.18667,-0.30483c0.3629,-0.20322 0.67498,-0.50806 0.93627,-0.9145c0.26854,-0.4137 0.47902,-0.69676 0.63144,-0.84918c0.15241,-0.15967 0.35564,-0.23951 0.60967,-0.23951zM237.68949,181.36087v-4.34387c0,-0.54434 0.01815,-0.93264 0.05444,-1.1649c0.04354,-0.23951 0.1742,-0.44636 0.39193,-0.62055c0.21774,-0.17419 0.47539,-0.26129 0.77297,-0.26129c0.29031,0 0.54434,0.08347 0.76208,0.2504c0.225,0.15967 0.3629,0.37378 0.4137,0.64232c0.05081,0.26128 0.07621,0.6641 0.07621,1.20844v3.39671c0,1.11772 0.17419,1.83625 0.52257,2.1556c0.34838,0.31209 0.72942,0.46814 1.14313,0.46814c0.47902,0 0.89635,-0.13427 1.25199,-0.40282c0.36289,-0.26855 0.60966,-0.59152 0.74031,-0.96893c0.13064,-0.38467 0.19597,-1.13224 0.19597,-2.2427v-2.46043c0,-0.52983 0.0254,-0.91813 0.07621,-1.1649c0.0508,-0.25403 0.18507,-0.4645 0.40281,-0.63143c0.21773,-0.16693 0.47539,-0.2504 0.77297,-0.2504c0.28306,0 0.53346,0.08347 0.75119,0.2504c0.225,0.15967 0.35927,0.3629 0.40282,0.60967c0.0508,0.24677 0.0762,0.64232 0.0762,1.18666v6.10754c0,0.50079 -0.0254,0.86369 -0.0762,1.08868c-0.0508,0.22499 -0.17057,0.42096 -0.35927,0.58789c-0.1887,0.15967 -0.42821,0.23951 -0.71853,0.23951c-0.79837,0 -1.18304,-0.57338 -1.15401,-1.72013c-0.8274,1.14675 -1.91972,1.72013 -3.27695,1.72013c-0.89272,0 -1.65481,-0.26855 -2.28625,-0.80563c-0.62418,-0.53708 -0.93627,-1.49513 -0.93627,-2.87413zM248.9621,182.9939v-6.35793c0,-1.11046 0.40644,-1.66569 1.21933,-1.66569c0.78386,0 1.18304,0.51531 1.19755,1.54594c0.51531,-1.03062 1.22658,-1.54594 2.13383,-1.54594c0.47902,0 0.97256,0.12702 1.48062,0.38104c0.51531,0.24677 0.77297,0.58789 0.77297,1.02336c0,0.30483 -0.10524,0.55523 -0.31572,0.75119c-0.20322,0.19597 -0.42459,0.29395 -0.6641,0.29395c-0.13064,0 -0.37015,-0.0508 -0.71853,-0.15241c-0.34838,-0.10887 -0.63869,-0.16331 -0.87095,-0.16331c-0.59515,0 -1.03789,0.30121 -1.3282,0.90362c-0.29031,0.59515 -0.43547,1.74915 -0.43547,3.46202v1.42618c0,0.63144 -0.0254,1.05966 -0.07621,1.28465c-0.0508,0.21774 -0.18508,0.41733 -0.40281,0.59878c-0.21774,0.17419 -0.46814,0.26128 -0.7512,0.26128c-0.2758,0 -0.52257,-0.07984 -0.7403,-0.23951c-0.21774,-0.15967 -0.35563,-0.34838 -0.4137,-0.56612c-0.05806,-0.22499 -0.08709,-0.6387 -0.08709,-1.24111zM258.35973,171.39938c0.3266,0 0.60603,0.12339 0.83829,0.37016c0.23951,0.23951 0.35927,0.51894 0.35927,0.83829c0,0.33387 -0.11976,0.62055 -0.35927,0.86006c-0.23226,0.23226 -0.51168,0.34838 -0.83829,0.34838c-0.32661,0 -0.60967,-0.11612 -0.84918,-0.34838c-0.23951,-0.23951 -0.35927,-0.5262 -0.35927,-0.86006c0,-0.32661 0.11976,-0.60967 0.35927,-0.84918c0.23951,-0.23951 0.52257,-0.35927 0.84918,-0.35927zM259.58995,176.99524v5.99866c0,0.58789 -0.02903,0.99071 -0.08709,1.20845c-0.0508,0.21774 -0.18871,0.4137 -0.4137,0.58789c-0.225,0.16693 -0.46814,0.2504 -0.72942,0.2504c-0.26129,0 -0.50805,-0.08347 -0.74031,-0.2504c-0.23226,-0.16693 -0.37741,-0.36289 -0.43547,-0.58789c-0.0508,-0.22499 -0.07621,-0.62781 -0.07621,-1.20845v-5.97689c0,-0.5516 0.02178,-0.9399 0.06532,-1.1649c0.04354,-0.23226 0.17419,-0.43547 0.39193,-0.60966c0.225,-0.18145 0.48265,-0.27217 0.77296,-0.27217c0.29757,0 0.5516,0.07984 0.76208,0.23951c0.21048,0.15967 0.34474,0.3629 0.40281,0.60967c0.05806,0.24677 0.08709,0.6387 0.08709,1.17578zM262.55466,175.18801v-1.48061c0,-0.61693 0.0254,-1.03426 0.07621,-1.252c0.0508,-0.21774 0.18145,-0.4137 0.39193,-0.58789c0.21773,-0.17419 0.47177,-0.26129 0.76208,-0.26129c0.26855,0 0.50806,0.07984 0.71853,0.23951c0.21774,0.15241 0.35927,0.34112 0.42458,0.56612c0.06532,0.225 0.09799,0.58789 0.09799,1.08868v1.68747h0.48991c0.60241,0 1.00159,0.07621 1.19756,0.22862c0.20322,0.14516 0.30483,0.35926 0.30483,0.64232c0,0.60967 -0.50805,0.9145 -1.52416,0.9145h-0.46813v4.57249c0,0.61692 0.04354,1.03789 0.13064,1.26288c0.09435,0.22499 0.33024,0.33749 0.70765,0.33749c0.18145,0 0.38467,-0.0254 0.60967,-0.07621c0.22499,-0.05081 0.39193,-0.07621 0.50079,-0.07621c0.25403,0 0.45725,0.08347 0.60967,0.2504c0.15242,0.15967 0.22862,0.35201 0.22862,0.577c0,0.81288 -0.85644,1.21933 -2.5693,1.21933c-0.8274,0 -1.43707,-0.15242 -1.82899,-0.45725c-0.38467,-0.31209 -0.62418,-0.6895 -0.71854,-1.13223c-0.09435,-0.44274 -0.14153,-1.0161 -0.14153,-1.72012v-4.75757h-0.32661c-0.73305,0 -1.09957,-0.29757 -1.09957,-0.89272c0,-0.59515 0.38466,-0.89273 1.154,-0.89273zM271.23074,184.79024l-3.02655,-7.66436c-0.18871,-0.5008 -0.28306,-0.84554 -0.28306,-1.03425c0,-0.28306 0.11613,-0.54071 0.34838,-0.77297c0.23951,-0.23226 0.51894,-0.34838 0.83829,-0.34838c0.28306,0 0.52257,0.0871 0.71853,0.26129c0.19597,0.17419 0.3883,0.5262 0.577,1.05603l2.09028,6.09665l1.98141,-5.65029c0.26129,-0.74031 0.46813,-1.21934 0.62055,-1.43707c0.15967,-0.21774 0.42459,-0.32661 0.79475,-0.32661c0.34112,0 0.60966,0.11613 0.80562,0.34838c0.19597,0.225 0.29395,0.45362 0.29395,0.68587c0,0.2758 -0.09798,0.67136 -0.29395,1.18667l-3.2334,8.4591c-0.42822,1.12498 -0.87458,1.91609 -1.33909,2.37333c-0.45725,0.45725 -1.23747,0.68588 -2.34067,0.68588c-1.43706,0 -2.15561,-0.36653 -2.15561,-1.09958c0,-0.23951 0.07984,-0.44274 0.23951,-0.60967c0.16693,-0.15967 0.38467,-0.23951 0.65321,-0.23951c0.04354,0 0.18144,0.00726 0.4137,0.02177c0.23951,0.02177 0.38104,0.03266 0.42459,0.03266c0.45725,0 0.79111,-0.1125 1.00159,-0.33749c0.21773,-0.21774 0.43185,-0.59515 0.64233,-1.13223z" fill="#ffffff" stroke="#000000" stroke-width="3.5" stroke-linecap="square"/><path d="M205.77538,174.76343c0,0.37741 0.1633,0.70765 0.48991,0.99071c0.32661,0.2758 1.15764,0.57338 2.49309,0.89272c1.34271,0.31935 2.33705,0.65684 2.983,1.01248c0.64595,0.34838 1.11046,0.80926 1.39352,1.38263c0.29032,0.56612 0.43547,1.15764 0.43547,1.77456c0,1.2411 -0.47176,2.25721 -1.41529,3.04832c-0.93627,0.78385 -2.21729,1.17578 -3.84307,1.17578c-1.77819,0 -3.10639,-0.42459 -3.9846,-1.27376c-0.87821,-0.85643 -1.31731,-1.7419 -1.31731,-2.6564c0,-0.30483 0.1125,-0.57338 0.33749,-0.80563c0.225,-0.23951 0.51894,-0.35927 0.88184,-0.35927c0.33386,0 0.58063,0.10161 0.74031,0.30483c0.16693,0.19596 0.36652,0.56249 0.59878,1.09957c0.49354,1.13949 1.379,1.70924 2.6564,1.70924c0.76208,0 1.40441,-0.17419 1.92698,-0.52257c0.52257,-0.34838 0.78385,-0.82377 0.78385,-1.42618c0,-0.46451 -0.18145,-0.86369 -0.54434,-1.19756c-0.35564,-0.33386 -1.17941,-0.64958 -2.47132,-0.94716c-1.29191,-0.29757 -2.19915,-0.58063 -2.72172,-0.84918c-0.51531,-0.2758 -0.96893,-0.67136 -1.36086,-1.18667c-0.38467,-0.51531 -0.577,-1.15401 -0.577,-1.91609c0,-1.13223 0.44636,-2.03585 1.33909,-2.71083c0.89998,-0.67499 2.11931,-1.01248 3.65799,-1.01248c1.57497,0 2.76164,0.35927 3.56001,1.0778c0.79837,0.71853 1.19756,1.4407 1.19756,2.16649c0,0.30483 -0.11613,0.59152 -0.34838,0.86006c-0.23225,0.26128 -0.5262,0.39193 -0.88184,0.39193c-0.32661,0 -0.57338,-0.09072 -0.74031,-0.27217c-0.16693,-0.18871 -0.35927,-0.5008 -0.577,-0.93627c-0.45725,-0.9145 -1.24836,-1.37175 -2.37334,-1.37175c-0.65321,0 -1.20481,0.14153 -1.6548,0.42459c-0.44273,0.28306 -0.6641,0.66047 -0.6641,1.13223zM222.59439,180.60968h-4.85555c0.02177,0.92176 0.27217,1.61852 0.75119,2.09028c0.47902,0.46451 1.05603,0.69676 1.73101,0.69676c0.8274,0 1.60763,-0.3629 2.34068,-1.08869c0.29757,-0.30483 0.51531,-0.49354 0.65321,-0.56612c0.14516,-0.07258 0.30483,-0.10887 0.47902,-0.10887c0.225,0 0.41733,0.07258 0.577,0.21774c0.15967,0.1379 0.23951,0.30846 0.23951,0.51168c0,0.55886 -0.38104,1.14675 -1.14312,1.76367c-0.76208,0.60966 -1.79271,0.9145 -3.09187,0.9145c-1.6548,0 -2.91042,-0.46814 -3.76686,-1.40441c-0.85643,-0.93627 -1.28465,-2.14471 -1.28465,-3.62533c0,-1.50239 0.42822,-2.71809 1.28465,-3.6471c0.85643,-0.92901 2.04673,-1.39352 3.57089,-1.39352c1.45158,0 2.57293,0.4391 3.36404,1.31731c0.79837,0.87821 1.19756,1.82899 1.19756,2.85236c0,0.45725 -0.13427,0.81652 -0.40281,1.0778c-0.26128,0.26128 -0.80926,0.39193 -1.64392,0.39193zM217.73885,179.20527h4.50717c-0.02903,-0.82014 -0.25766,-1.44433 -0.68587,-1.87254c-0.42096,-0.43547 -0.94353,-0.65321 -1.56771,-0.65321c-1.31368,0 -2.06488,0.84192 -2.25358,2.52575zM234.54568,180.89274c0.30483,0 0.55523,0.11976 0.75119,0.35927c0.20322,0.23225 0.30483,0.47176 0.30483,0.71853c0,0.67499 -0.40281,1.35723 -1.20844,2.04673c-0.80563,0.68224 -1.8798,1.02337 -3.22251,1.02337c-1.62577,0 -2.85599,-0.46088 -3.69065,-1.38263c-0.8274,-0.92176 -1.2411,-2.11931 -1.2411,-3.59267c0,-1.49513 0.42822,-2.71809 1.28465,-3.66888c0.86369,-0.95079 2.09028,-1.42618 3.67976,-1.42618c1.23385,0 2.25358,0.32298 3.05921,0.96893c0.80563,0.64595 1.20844,1.28102 1.20844,1.9052c0,0.30483 -0.10887,0.55886 -0.32661,0.76208c-0.21774,0.20322 -0.47176,0.30483 -0.76208,0.30483c-0.3629,0 -0.64958,-0.15605 -0.86006,-0.46814c-0.44999,-0.6895 -0.85281,-1.12498 -1.20844,-1.30642c-0.34838,-0.18871 -0.72579,-0.28306 -1.13223,-0.28306c-0.79111,0 -1.40078,0.30483 -1.82899,0.9145c-0.42822,0.60966 -0.64233,1.36812 -0.64233,2.27536c0,0.92901 0.225,1.68747 0.67499,2.27536c0.44999,0.58789 1.04877,0.88184 1.79633,0.88184c0.42822,0 0.82377,-0.10161 1.18667,-0.30483c0.3629,-0.20322 0.67499,-0.50805 0.93627,-0.9145c0.26854,-0.4137 0.47902,-0.69676 0.63144,-0.84918c0.15242,-0.15967 0.35564,-0.23951 0.60966,-0.23951zM237.68949,181.36087v-4.34386c0,-0.54434 0.01814,-0.93264 0.05443,-1.1649c0.04355,-0.23951 0.17419,-0.44636 0.39193,-0.62055c0.21774,-0.17419 0.47539,-0.26128 0.77297,-0.26128c0.29032,0 0.54434,0.08347 0.76208,0.2504c0.225,0.15967 0.3629,0.37378 0.4137,0.64233c0.05081,0.26128 0.07621,0.6641 0.07621,1.20844v3.3967c0,1.11772 0.17419,1.83625 0.52257,2.1556c0.34838,0.31209 0.72942,0.46814 1.14312,0.46814c0.47902,0 0.89635,-0.13427 1.25199,-0.40281c0.3629,-0.26854 0.60966,-0.59152 0.74031,-0.96893c0.13064,-0.38467 0.19596,-1.13223 0.19596,-2.2427v-2.46043c0,-0.52983 0.0254,-0.91813 0.07621,-1.1649c0.05081,-0.25403 0.18508,-0.46451 0.40281,-0.63144c0.21774,-0.16693 0.47539,-0.2504 0.77297,-0.2504c0.28306,0 0.53346,0.08347 0.75119,0.2504c0.225,0.15967 0.35927,0.3629 0.40281,0.60966c0.05081,0.24677 0.07621,0.64233 0.07621,1.18667v6.10754c0,0.5008 -0.0254,0.86369 -0.07621,1.08869c-0.05081,0.225 -0.17056,0.42096 -0.35927,0.58789c-0.18871,0.15967 -0.42822,0.23951 -0.71853,0.23951c-0.79837,0 -1.18304,-0.57338 -1.15401,-1.72013c-0.8274,1.14675 -1.91972,1.72013 -3.27695,1.72013c-0.89272,0 -1.6548,-0.26854 -2.28624,-0.80563c-0.62418,-0.53709 -0.93627,-1.49513 -0.93627,-2.87413zM248.96209,182.99391v-6.35793c0,-1.11046 0.40644,-1.66569 1.21933,-1.66569c0.78385,0 1.18304,0.51531 1.19756,1.54594c0.51531,-1.03062 1.22659,-1.54594 2.13383,-1.54594c0.47902,0 0.97256,0.12701 1.48061,0.38104c0.51531,0.24677 0.77297,0.58789 0.77297,1.02337c0,0.30483 -0.10524,0.55523 -0.31572,0.75119c-0.20322,0.19596 -0.42459,0.29395 -0.6641,0.29395c-0.13064,0 -0.37015,-0.05081 -0.71853,-0.15242c-0.34838,-0.10887 -0.6387,-0.1633 -0.87095,-0.1633c-0.59515,0 -1.03788,0.3012 -1.3282,0.90361c-0.29032,0.59515 -0.43547,1.74916 -0.43547,3.46203v1.42618c0,0.63144 -0.0254,1.05966 -0.07621,1.28465c-0.05081,0.21774 -0.18508,0.41733 -0.40281,0.59878c-0.21774,0.17419 -0.46814,0.26128 -0.75119,0.26128c-0.2758,0 -0.52257,-0.07984 -0.74031,-0.23951c-0.21774,-0.15967 -0.35564,-0.34838 -0.4137,-0.56612c-0.05806,-0.225 -0.08709,-0.6387 -0.08709,-1.2411zM258.35973,171.39939c0.32661,0 0.60604,0.12338 0.83829,0.37015c0.23951,0.23951 0.35927,0.51894 0.35927,0.83829c0,0.33386 -0.11976,0.62055 -0.35927,0.86006c-0.23225,0.23225 -0.51168,0.34838 -0.83829,0.34838c-0.32661,0 -0.60966,-0.11613 -0.84918,-0.34838c-0.23951,-0.23951 -0.35927,-0.5262 -0.35927,-0.86006c0,-0.32661 0.11976,-0.60966 0.35927,-0.84918c0.23951,-0.23951 0.52257,-0.35927 0.84918,-0.35927zM259.58994,176.99524v5.99867c0,0.58789 -0.02903,0.99071 -0.08709,1.20844c-0.05081,0.21774 -0.18871,0.4137 -0.4137,0.58789c-0.225,0.16693 -0.46814,0.2504 -0.72942,0.2504c-0.26128,0 -0.50805,-0.08347 -0.74031,-0.2504c-0.23225,-0.16693 -0.37741,-0.3629 -0.43547,-0.58789c-0.05081,-0.225 -0.07621,-0.62781 -0.07621,-1.20844v-5.97689c0,-0.5516 0.02177,-0.9399 0.06532,-1.1649c0.04355,-0.23225 0.17419,-0.43547 0.39193,-0.60966c0.225,-0.18145 0.48265,-0.27217 0.77297,-0.27217c0.29757,0 0.5516,0.07984 0.76208,0.23951c0.21048,0.15967 0.34475,0.3629 0.40281,0.60966c0.05806,0.24677 0.08709,0.6387 0.08709,1.17578zM262.55465,175.18802v-1.48061c0,-0.61692 0.0254,-1.03425 0.07621,-1.25199c0.05081,-0.21774 0.18145,-0.4137 0.39193,-0.58789c0.21774,-0.17419 0.47176,-0.26128 0.76208,-0.26128c0.26854,0 0.50805,0.07984 0.71853,0.23951c0.21774,0.15242 0.35927,0.34112 0.42459,0.56612c0.06532,0.225 0.09798,0.58789 0.09798,1.08869v1.68747h0.48991c0.60241,0 1.00159,0.07621 1.19756,0.22862c0.20322,0.14516 0.30483,0.35927 0.30483,0.64233c0,0.60966 -0.50805,0.9145 -1.52416,0.9145h-0.46814v4.57249c0,0.61692 0.04355,1.03788 0.13064,1.26288c0.09435,0.225 0.33024,0.33749 0.70765,0.33749c0.18145,0 0.38467,-0.0254 0.60966,-0.07621c0.225,-0.05081 0.39193,-0.07621 0.5008,-0.07621c0.25403,0 0.45725,0.08347 0.60966,0.2504c0.15242,0.15967 0.22862,0.35201 0.22862,0.577c0,0.81289 -0.85643,1.21933 -2.5693,1.21933c-0.8274,0 -1.43707,-0.15242 -1.82899,-0.45725c-0.38467,-0.31209 -0.62418,-0.6895 -0.71853,-1.13223c-0.09435,-0.44273 -0.14153,-1.01611 -0.14153,-1.72013v-4.75756h-0.32661c-0.73305,0 -1.09957,-0.29757 -1.09957,-0.89272c0,-0.59515 0.38467,-0.89272 1.15401,-0.89272zM271.23073,184.79024l-3.02655,-7.66436c-0.18871,-0.5008 -0.28306,-0.84555 -0.28306,-1.03425c0,-0.28306 0.11613,-0.54071 0.34838,-0.77297c0.23951,-0.23225 0.51894,-0.34838 0.83829,-0.34838c0.28306,0 0.52257,0.08709 0.71853,0.26128c0.19596,0.17419 0.3883,0.5262 0.577,1.05603l2.09028,6.09665l1.98141,-5.65029c0.26128,-0.74031 0.46814,-1.21933 0.62055,-1.43707c0.15967,-0.21774 0.42459,-0.32661 0.79474,-0.32661c0.34112,0 0.60966,0.11613 0.80563,0.34838c0.19596,0.225 0.29395,0.45362 0.29395,0.68587c0,0.2758 -0.09798,0.67136 -0.29395,1.18667l-3.2334,8.4591c-0.42822,1.12498 -0.87458,1.91609 -1.33909,2.37334c-0.45725,0.45725 -1.23747,0.68587 -2.34068,0.68587c-1.43707,0 -2.1556,-0.36652 -2.1556,-1.09957c0,-0.23951 0.07984,-0.44273 0.23951,-0.60966c0.16693,-0.15967 0.38467,-0.23951 0.65321,-0.23951c0.04355,0 0.18145,0.00726 0.4137,0.02177c0.23951,0.02177 0.38104,0.03266 0.42459,0.03266c0.45725,0 0.79111,-0.1125 1.00159,-0.33749c0.21774,-0.21774 0.43185,-0.59515 0.64233,-1.13223z" fill="#ffffff" stroke="none" stroke-width="1" stroke-linecap="square"/><path d="M167.92793,210.4695v-60.93899h144.14414v60.93899z" fill="none" stroke="none" stroke-width="none" stroke-linecap="butt"/></g></g></svg>