<svg version="1.1" xmlns="http://www.w3.org/2000/svg" xmlns:xlink="http://www.w3.org/1999/xlink" width="149.59064" height="32.69243" viewBox="0,0,149.59064,32.69243"><g transform="translate(-165.20468,-163.65379)"><g data-paper-data="{&quot;isPaintingLayer&quot;:true}" fill="#ffffff" fill-rule="nonzero" stroke="none" stroke-width="1" stroke-linecap="square" stroke-linejoin="miter" stroke-miterlimit="10" stroke-dasharray="" stroke-dashoffset="0" style="mix-blend-mode: normal"><path d="M174.14163,196.34621c-1.65499,0 -3.15722,-0.42012 -4.50667,-1.26034c-1.34946,-0.84023 -2.43156,-1.96053 -3.24632,-3.36091c-0.78931,-1.40037 -1.18396,-2.96625 -1.18396,-4.69763l0.07639,-14.20745c0,-1.68045 0.38192,-3.20814 1.14576,-4.58305c0.78931,-1.37491 1.85868,-2.48249 3.20813,-3.32272c1.34946,-0.84022 2.85168,-1.26033 4.50667,-1.26033c1.68045,0 3.18267,0.40738 4.50666,1.22215c1.34946,0.81476 2.41883,1.92234 3.20813,3.32271c0.78931,1.37492 1.18395,2.91533 1.18395,4.62125v2.10056c0,0.12731 -0.05093,0.19096 -0.15277,0.19096h-5.11774c-0.12731,0 -0.19096,-0.06365 -0.19096,-0.19096v-2.10056c0,-1.01846 -0.331,-1.88415 -0.993,-2.59707c-0.63654,-0.73838 -1.45129,-1.10757 -2.44429,-1.10757c-1.09484,0 -1.93507,0.38192 -2.52068,1.14576c-0.56015,0.73838 -0.84023,1.59134 -0.84023,2.55887v14.20745c0,1.14576 0.31826,2.06237 0.9548,2.74983c0.66199,0.68746 1.46404,1.03119 2.40611,1.03119c0.993,0 1.80775,-0.38192 2.44429,-1.14576c0.66199,-0.76384 0.993,-1.64226 0.993,-2.63526v-2.10056c0,-0.10184 0.06365,-0.15277 0.19096,-0.15277h5.15593c0.10184,0 0.15277,0.05093 0.15277,0.15277v2.10056c0,1.73138 -0.40738,3.29725 -1.22214,4.69763c-0.78931,1.40037 -1.85868,2.52068 -3.20813,3.36091c-1.32399,0.84022 -2.82621,1.26034 -4.50666,1.26034zM184.73218,195.65875l5.65242,-31.31751c0.02546,-0.1273 0.10185,-0.19096 0.22915,-0.19096h6.60723c0.12731,0 0.20369,0.06366 0.22915,0.19096l5.42328,31.31751c0.05093,0.15277 0,0.22915 -0.15277,0.22915h-5.07954c-0.12731,0 -0.2037,-0.07639 -0.22916,-0.22915l-0.49649,-3.32271h-6.18712l-0.53469,3.32271c-0.02546,0.15277 -0.10184,0.22915 -0.22915,0.22915h-5.04136c-0.12731,0 -0.19096,-0.07639 -0.19096,-0.22915zM191.60675,187.44745h4.39209l-1.87141,-12.79435l-0.26735,-1.71864l-0.19096,1.71864zM205.96078,195.88791c-0.12731,0 -0.19096,-0.07639 -0.19096,-0.22915l0.07638,-31.31751c0,-0.1273 0.06366,-0.19096 0.19096,-0.19096h5.57604c0.10184,0 0.20369,0.06366 0.30553,0.19096l4.16294,5.99616l4.12482,-5.99616c0.10184,-0.1273 0.21642,-0.19096 0.34373,-0.19096h5.57604c0.12731,0 0.19096,0.06366 0.19096,0.19096l0.11458,31.31751c0,0.15277 -0.06365,0.22915 -0.19096,0.22915h-5.15593c-0.12731,0 -0.19096,-0.07639 -0.19096,-0.22915l-0.03819,-23.25898l-4.77408,6.95096l-4.77401,-6.95096l-0.0382,23.25898c0,0.15277 -0.06366,0.22915 -0.19096,0.22915zM230.4487,195.88791c-0.12731,0 -0.19096,-0.07639 -0.19096,-0.22915l0.0382,-31.31751c0,-0.1273 0.06366,-0.19096 0.19096,-0.19096h14.62757c0.12731,0 0.19096,0.07639 0.19096,0.22916v5.11773c0,0.10184 -0.06366,0.15277 -0.19096,0.15277h-9.35706v7.14192h9.35706c0.12731,0 0.19096,0.05093 0.19096,0.15277l0.03819,5.15593c0,0.12731 -0.06365,0.19096 -0.19096,0.19096h-9.39526v7.98215h9.39526c0.1273,0 0.19096,0.07638 0.19096,0.22915v5.19412c0,0.12731 -0.06365,0.19096 -0.19096,0.19096zM249.60128,195.88791c-0.12731,0 -0.19096,-0.07639 -0.19096,-0.22915l0.07638,-31.31751c0,-0.1273 0.06366,-0.19096 0.19096,-0.19096h9.2043c1.65499,0 3.16994,0.40738 4.54485,1.22214c1.37491,0.78931 2.46975,1.87142 3.28452,3.24633c0.84023,1.34946 1.26034,2.86441 1.26034,4.54486c0,1.14576 -0.17823,2.16422 -0.53469,3.05537c-0.331,0.89115 -0.72565,1.65499 -1.18396,2.29152c-0.43284,0.61108 -0.84022,1.06938 -1.22214,1.37492c1.65499,1.83322 2.48248,3.97198 2.48248,6.41627l0.03819,9.35706c0,0.15277 -0.07638,0.22915 -0.22915,0.22915h-5.15594c-0.1273,0 -0.19096,-0.05093 -0.19096,-0.15277v-9.43345c0,-1.09484 -0.39465,-2.03691 -1.18395,-2.82621c-0.76384,-0.81476 -1.70591,-1.22214 -2.82621,-1.22214h-3.01717l-0.0382,13.40542c0,0.15277 -0.06365,0.22915 -0.19096,0.22915zM254.94818,176.79186h3.93379c0.94207,0 1.76956,-0.34373 2.48248,-1.03118c0.73838,-0.71292 1.10757,-1.57861 1.10757,-2.59706c0,-0.96753 -0.35646,-1.79503 -1.06938,-2.48249c-0.71292,-0.71292 -1.55314,-1.06938 -2.52067,-1.06938h-3.93379zM269.82429,195.65875l5.65242,-31.31751c0.02546,-0.1273 0.10185,-0.19096 0.22915,-0.19096h6.60723c0.1273,0 0.20369,0.06366 0.22915,0.19096l5.42327,31.31751c0.05093,0.15277 0,0.22915 -0.15277,0.22915h-5.07954c-0.1273,0 -0.2037,-0.07639 -0.22916,-0.22915l-0.49649,-3.32271h-6.18712l-0.53469,3.32271c-0.02546,0.15277 -0.10185,0.22915 -0.22915,0.22915h-5.04136c-0.1273,0 -0.19096,-0.07639 -0.19096,-0.22915zM276.69887,187.44745h4.39209l-1.87142,-12.79435l-0.26734,-1.71864l-0.19096,1.71864zM297.41792,195.88791c-0.15277,0 -0.22915,-0.07639 -0.22915,-0.22915v-5.15593c0,-0.05093 0.02545,-0.11458 0.07638,-0.19096l11.26666,-15.4296c0.22915,-0.28008 0.40739,-0.63653 0.53469,-1.06938c0.1273,-0.4583 0.19096,-0.85295 0.19096,-1.18395c0,-0.89115 -0.31827,-1.70592 -0.9548,-2.4443c-0.63653,-0.73838 -1.43856,-1.10757 -2.4061,-1.10757c-0.94207,0 -1.74411,0.35646 -2.40611,1.06938c-0.63653,0.71292 -0.9548,1.61679 -0.9548,2.71164v2.25333c0,0.15277 -0.07639,0.22915 -0.22915,0.22915h-5.11773c-0.1273,0 -0.19097,-0.07638 -0.19097,-0.22915v-2.25333c0,-1.70592 0.42012,-3.25906 1.26034,-4.65944c0.84022,-1.40037 1.93507,-2.50795 3.28452,-3.32271c1.34945,-0.81476 2.80076,-1.22215 4.3539,-1.22215c1.65499,0 3.14448,0.42011 4.46847,1.26033c1.34945,0.84023 2.41883,1.9478 3.20813,3.32272c0.81477,1.34946 1.22215,2.81349 1.22215,4.39209c0,0.993 -0.17823,2.01145 -0.53469,3.05536c-0.35646,1.04392 -0.82749,1.96053 -1.4131,2.74983l-8.6696,11.87774h10.23548c0.1273,0 0.19096,0.06366 0.19096,0.19096v5.15593c0,0.15277 -0.06365,0.22915 -0.19096,0.22915z"/></g></g></svg>