<svg version="1.1" xmlns="http://www.w3.org/2000/svg" xmlns:xlink="http://www.w3.org/1999/xlink" width="85" height="81.5" viewBox="0,0,85,81.5"><g transform="translate(-200.5,-155.72222)"><g data-paper-data="{&quot;isPaintingLayer&quot;:true}" fill-rule="nonzero" stroke-linejoin="miter" stroke-miterlimit="10" stroke-dasharray="" stroke-dashoffset="0" style="mix-blend-mode: normal"><path d="M221.37562,215.31852c0,0 -0.61954,-20.65159 -0.71018,-23.67291c-0.02146,-0.71535 0.46918,-1.58431 1.21878,-2.06545c1.40159,-0.89961 3.64437,-2.58203 4.9742,-4.82964c1.10109,-1.861 2.1275,-3.75474 2.82361,-5.0729c0.55949,-1.05946 1.65793,-1.41375 2.51702,-1.03307c2.85671,1.26584 18.77263,8.31838 24.01184,10.63994c1.05109,0.46575 1.67224,1.27683 1.67199,1.88604c-0.00098,2.40869 -0.00726,17.89799 -0.00726,17.89799l-5.75,8.75c0,0 -3.38854,-0.4198 -18.0302,-0.87848c-4.1388,-0.12966 -12.7198,-1.62152 -12.7198,-1.62152z" fill="none" stroke="#f3e004" stroke-width="8" stroke-linecap="butt"/><g><path d="M252.00191,216.17052l-1,-13.33334c0,0 6.16667,-11.28905 6.16667,-10.83334c0,0.98445 0.66667,16.5 0.66667,16.5z" fill="#2f3651" stroke="none" stroke-width="0" stroke-linecap="butt"/><path d="M222.83524,191.33719l7.66666,-11.83334l27.83334,10.5l-7.16667,14.16667z" fill="#8788ae" stroke="none" stroke-width="0" stroke-linecap="butt"/><path d="M221.33524,215.50385v-23.5l29.5,11.66667l0.33333,13z" fill="#495174" stroke="none" stroke-width="0" stroke-linecap="butt"/><path d="M221.37562,215.31852c0,0 -0.61954,-20.65159 -0.71018,-23.67291c-0.02146,-0.71535 0.46918,-1.58431 1.21878,-2.06545c1.40159,-0.89961 3.64437,-2.58203 4.9742,-4.82964c1.10109,-1.861 2.1275,-3.75474 2.82361,-5.0729c0.55949,-1.05946 1.65793,-1.41375 2.51702,-1.03307c2.85671,1.26584 18.77263,8.31838 24.01184,10.63994c1.05109,0.46575 1.67224,1.27683 1.67199,1.88604c-0.00098,2.40869 -0.00726,17.89799 -0.00726,17.89799l-5.75,8.75c0,0 -3.38854,-0.4198 -18.0302,-0.87848c-4.1388,-0.12966 -12.7198,-1.62152 -12.7198,-1.62152z" fill="none" stroke="#000000" stroke-width="3.5" stroke-linecap="butt"/><path d="M221.50191,191.33719l29.66667,12.5l0.16667,14.66666" fill="none" stroke="#000000" stroke-width="2" stroke-linecap="round"/><path d="M251.33524,203.00385c0,0 5.66869,-11.44395 6.30168,-12.62878c0.11229,-0.21019 0.19832,0.46212 0.19832,0.46212" fill="none" stroke="#000000" stroke-width="2" stroke-linecap="round"/><path d="M226.33524,190.83719c0,-0.55229 0.44771,-1 1,-1c0.55229,0 1,0.44771 1,1c0,0.55229 -0.44771,1 -1,1c-0.55229,0 -1,-0.44771 -1,-1z" fill="#212134" stroke="none" stroke-width="0.5" stroke-linecap="butt"/><path d="M228.83524,188.50385c0,-0.55229 0.44771,-1 1,-1c0.55229,0 1,0.44771 1,1c0,0.55229 -0.44771,1 -1,1c-0.55229,0 -1,-0.44771 -1,-1z" fill="#212134" stroke="none" stroke-width="0.5" stroke-linecap="butt"/><path d="M231.83524,183.33719c0,-0.55229 0.44771,-1 1,-1c0.55229,0 1,0.44771 1,1c0,0.55229 -0.44771,1 -1,1c-0.55229,0 -1,-0.44771 -1,-1z" fill="#212134" stroke="none" stroke-width="0.5" stroke-linecap="butt"/><path d="M230.50191,186.17052c0,-0.55229 0.44771,-1 1,-1c0.55229,0 1,0.44771 1,1c0,0.55229 -0.44771,1 -1,1c-0.55229,0 -1,-0.44771 -1,-1z" fill="#212134" stroke="none" stroke-width="0.5" stroke-linecap="butt"/></g><path d="M201.5,228.22222v-61.5h84v61.5z" fill="none" stroke="none" stroke-width="0" stroke-linecap="butt"/><path d="M200.5,237.22222v-81.5h77v81.5z" fill="none" stroke="none" stroke-width="NaN" stroke-linecap="butt"/></g></g></svg>