<svg version="1.1" xmlns="http://www.w3.org/2000/svg" xmlns:xlink="http://www.w3.org/1999/xlink" width="241.99203" height="195.4551" viewBox="0,0,241.99203,195.4551"><defs><radialGradient cx="240.00001" cy="179.99999" r="60.52252" gradientUnits="userSpaceOnUse" id="color-1"><stop offset="0" stop-color="#8a8a8a"/><stop offset="1" stop-color="#dfdfdf"/></radialGradient><radialGradient cx="240.00001" cy="179.99999" r="39.02252" gradientUnits="userSpaceOnUse" id="color-2"><stop offset="0" stop-color="#ffffff"/><stop offset="1" stop-color="#ffffff" stop-opacity="0"/></radialGradient><linearGradient x1="238.22501" y1="183.73511" x2="298.68727" y2="183.73511" gradientUnits="userSpaceOnUse" id="color-3"><stop offset="0" stop-color="#4c4c4c"/><stop offset="1" stop-color="#4c4c4c" stop-opacity="0"/></linearGradient><linearGradient x1="238.95667" y1="175.99834" x2="192.66108" y2="214.88799" gradientUnits="userSpaceOnUse" id="color-4"><stop offset="0" stop-color="#4c4c4c"/><stop offset="1" stop-color="#4c4c4c" stop-opacity="0"/></linearGradient><linearGradient x1="243.99314" y1="178.92451" x2="204.73254" y2="132.94309" gradientUnits="userSpaceOnUse" id="color-5"><stop offset="0" stop-color="#4c4c4c"/><stop offset="1" stop-color="#4c4c4c" stop-opacity="0"/></linearGradient><linearGradient x1="237.74672" y1="176.53236" x2="206.09584" y2="228.04846" gradientUnits="userSpaceOnUse" id="color-6"><stop offset="0" stop-color="#4c4c4c"/><stop offset="1" stop-color="#4c4c4c" stop-opacity="0"/></linearGradient><linearGradient x1="244.11898" y1="179.6317" x2="213.40729" y2="127.55025" gradientUnits="userSpaceOnUse" id="color-7"><stop offset="0" stop-color="#4c4c4c"/><stop offset="1" stop-color="#4c4c4c" stop-opacity="0"/></linearGradient><linearGradient x1="237.96702" y1="183.45119" x2="296.48704" y2="198.65301" gradientUnits="userSpaceOnUse" id="color-8"><stop offset="0" stop-color="#4c4c4c"/><stop offset="1" stop-color="#4c4c4c" stop-opacity="0"/></linearGradient></defs><g transform="translate(-119.5012,-78.06896)"><g data-paper-data="{&quot;isPaintingLayer&quot;:true}" fill-rule="nonzero" stroke-linecap="butt" stroke-linejoin="miter" stroke-miterlimit="10" stroke-dasharray="" stroke-dashoffset="0" style="mix-blend-mode: normal"><path d="M239.83333,85.59652l66.92452,55.89384l9.15637,51.92839l-26.36473,45.66505l-49.54949,18.03454l-49.54949,-18.03454l-26.36473,-45.66505l9.15637,-51.92839z" fill="#2b333b" stroke="#121517" stroke-width="3"/><g><path d="M179.47748,179.99999c0,-33.42567 27.09686,-60.52252 60.52252,-60.52252c33.42567,0 60.52252,27.09686 60.52252,60.52252c0,33.42567 -27.09686,60.52252 -60.52252,60.52252c-33.42567,0 -60.52252,-27.09686 -60.52252,-60.52252z" fill="url(#color-1)" stroke="#121517" stroke-width="3"/><path d="M179.47748,179.99999c0,-33.42567 27.09686,-60.52252 60.52252,-60.52252c33.42567,0 60.52252,27.09686 60.52252,60.52252c0,33.42567 -27.09686,60.52252 -60.52252,60.52252c-33.42567,0 -60.52252,-27.09686 -60.52252,-60.52252z" fill="none" stroke="#121517" stroke-width="3"/><path d="M200.97748,179.99999c0,-21.55154 17.47098,-39.02252 39.02252,-39.02252c21.55154,0 39.02252,17.47098 39.02252,39.02252c0,21.55154 -17.47098,39.02252 -39.02252,39.02252c-21.55154,0 -39.02252,-17.47098 -39.02252,-39.02252z" fill="url(#color-2)" stroke="none" stroke-width="0"/><path d="M292.13095,152.10167c0,0 8.42682,12.12393 6.51726,33.89139c-1.59152,18.14215 -12.00469,29.37549 -12.00469,29.37549l-46.41853,-35.53754z" fill="url(#color-3)" stroke="none" stroke-width="0"/><path d="M286.34172,141.07159c21.49957,25.59383 18.18051,63.77056 -7.41331,85.27012c-25.59383,21.49957 -63.77056,18.18051 -85.27012,-7.41331c-21.49957,-25.59383 -18.18051,-63.77056 7.41331,-85.27012c25.59383,-21.49957 63.77056,-18.18051 85.27012,7.41331z" fill="none" stroke="#121517" stroke-width="3"/><path d="M218.02799,234.89247c0,0 -14.25054,-3.86304 -26.78935,-21.75849c-10.45051,-14.91501 -9.70255,-30.21411 -9.70255,-30.21411l59.31111,-2.95435z" fill="url(#color-4)" stroke="none" stroke-width="0"/><path d="M279.29972,226.02723c-25.42015,21.70464 -63.62234,18.69262 -85.32697,-6.72752c-21.70464,-25.42015 -18.69262,-63.62234 6.72752,-85.32697c25.42015,-21.70464 63.62234,-18.69262 85.32697,6.72752c21.70464,25.42015 18.69262,63.62234 -6.72752,85.32697z" fill="none" stroke="#121517" stroke-width="3"/><path d="M184.93264,158.47002c0,0 3.74835,-14.28114 21.54241,-26.96341c14.8305,-10.57009 30.13513,-9.94516 30.13513,-9.94516l4.17509,58.78948z" fill="url(#color-5)" stroke="none" stroke-width="0"/><path d="M182.57254,199.10657c-10.55227,-31.71632 6.60458,-65.98177 38.32089,-76.53404c31.71632,-10.55227 65.98177,6.60458 76.53404,38.32089c10.55227,31.71632 -6.60458,65.98178 -38.32089,76.53405c-31.71632,10.55227 -65.98177,-6.60458 -76.53404,-38.32089z" fill="none" stroke="#121517" stroke-width="3"/><path d="M271.68239,128.43256c28.47992,17.49772 37.38274,54.76993 19.88504,83.24984c-17.49772,28.47992 -54.76993,37.38274 -83.24984,19.88504c-28.47992,-17.49771 -37.38274,-54.76994 -19.88504,-83.24984c17.49772,-28.47992 54.76993,-37.38273 83.24984,-19.88503z" fill="none" stroke="#121517" stroke-width="3"/><path d="M236.48083,239.02176c0,0 -14.74133,0.83331 -32.2884,-12.18856c-14.62465,-10.85312 -18.74478,-25.60596 -18.74478,-25.60596l55.34534,-21.52741z" fill="url(#color-6)" stroke="none" stroke-width="0"/><path d="M291.82049,211.26678c-17.26817,28.61967 -54.46762,37.82187 -83.08729,20.5537c-28.61967,-17.26818 -37.82187,-54.46762 -20.5537,-83.08728c17.26817,-28.61967 54.46762,-37.82187 83.08728,-20.5537c28.61967,17.26818 37.82187,54.46763 20.5537,83.08729z" fill="none" stroke="#121517" stroke-width="3"/><path d="M249.99325,120.3082c32.96687,5.51913 55.21766,36.71819 49.69853,69.68505c-5.51913,32.96687 -36.71819,55.21766 -69.68505,49.69853c-32.96687,-5.51913 -55.21766,-36.71819 -49.69853,-69.68505c5.51913,-32.96687 36.71819,-55.21766 69.68505,-49.69853z" fill="none" stroke="#121517" stroke-width="3"/><path d="M270.74227,232.13334c-28.79246,16.9785 -65.89715,7.4014 -82.87565,-21.39105c-16.9785,-28.79246 -7.4014,-65.89715 21.39105,-82.87565c28.79246,-16.9785 65.89715,-7.40139 82.87565,21.39106c16.9785,28.79246 7.40139,65.89715 -21.39106,82.87565z" fill="none" stroke="#121517" stroke-width="3"/><path d="M189.48891,149.26591c0,0 6.16302,-13.41709 25.8832,-22.82896c16.43584,-7.84435 31.40144,-4.58053 31.40144,-4.58053l-6.87944,58.98482z" fill="url(#color-7)" stroke="none" stroke-width="0"/><path d="M188.11548,211.16044c-17.20944,-28.65503 -7.93095,-65.83552 20.72407,-83.04496c28.65503,-17.20944 65.83552,-7.93095 83.04496,20.72407c17.20944,28.65503 7.93095,65.83552 -20.72406,83.04495c-28.65503,17.20944 -65.83552,7.93096 -83.04496,-20.72406z" fill="none" stroke="#121517" stroke-width="3"/><path d="M286.36028,218.90627c-21.48735,25.60408 -59.66249,28.94135 -85.26657,7.45401c-25.60408,-21.48735 -28.94135,-59.66249 -7.45401,-85.26657c21.48735,-25.60408 59.66249,-28.94135 85.26657,-7.45401c25.60408,21.48735 28.94135,59.66249 7.45401,85.26657z" fill="none" stroke="#121517" stroke-width="3"/><path d="M179.47748,180.02887c-0.01595,-33.42567 27.06797,-60.53544 60.49362,-60.5514c33.42567,-0.01595 60.53544,27.06797 60.5514,60.49362c0.01595,33.42567 -27.06797,60.53545 -60.49363,60.5514c-33.42567,0.01595 -60.53544,-27.06797 -60.55139,-60.49363z" fill="none" stroke="#121517" stroke-width="3"/><path d="M298.09483,166.38732c0,0 5.10785,13.8532 -2.21329,34.44129c-6.10182,17.15921 -19.00483,25.41354 -19.00483,25.41354l-36.77152,-46.63037z" fill="url(#color-8)" stroke="none" stroke-width="0"/><path d="M239.48452,119.47966c33.42446,-0.28469 60.75111,26.58041 61.0358,60.00486c0.28469,33.42446 -26.58041,60.75111 -60.00486,61.0358c-33.42446,0.28469 -60.75111,-26.58041 -61.0358,-60.00485c-0.28469,-33.42446 26.58041,-60.75112 60.00485,-61.0358z" fill="none" stroke="#121517" stroke-width="4"/></g><path d="M119.5012,273.52405v-195.4551h241.99203v195.4551z" fill="none" stroke="none" stroke-width="0"/></g></g></svg>