<svg version="1.1" xmlns="http://www.w3.org/2000/svg" xmlns:xlink="http://www.w3.org/1999/xlink" width="202.7027" height="175.67568" viewBox="0,0,202.7027,175.67568"><defs><linearGradient x1="305.33116" y1="17.9602" x2="305.33116" y2="115.35936" gradientUnits="userSpaceOnUse" id="color-1"><stop offset="0" stop-color="#e7bc52"/><stop offset="1" stop-color="#efd85e"/></linearGradient><linearGradient x1="305.33116" y1="17.9602" x2="305.33116" y2="115.35936" gradientUnits="userSpaceOnUse" id="color-2"><stop offset="0" stop-color="#efd85e" stop-opacity="0"/><stop offset="1" stop-color="#efd85e" stop-opacity="0"/></linearGradient></defs><g transform="translate(-207.71772,14.5946)"><g data-paper-data="{&quot;isPaintingLayer&quot;:true}" fill-rule="nonzero" stroke-linejoin="miter" stroke-miterlimit="10" stroke-dasharray="" stroke-dashoffset="0" style="mix-blend-mode: normal"><path d="M277.88548,115.35936c0,0 -30.2554,-24.60015 -38.47848,-47.91085c-7.96653,-22.58342 -1.61192,-40.06094 0.79994,-40.54456c5.34366,-1.07149 17.77132,2.58694 32.0138,0.48141c21.02004,-3.10749 33.39021,-6.7402 39.88164,-9.12442c4.2353,-1.55557 8.82563,3.36276 9.50562,4.72628c4.38873,8.80017 12.03053,23.24876 18.07232,30.06804c10.33209,11.66168 25.01609,21.24835 32.98073,25.99495c3.47285,2.06968 3.31007,4.41764 -0.54164,6.31945c-12.6352,6.23872 -25.32043,11.33778 -59.78357,21.84895c-15.67342,4.78036 -34.45037,8.14078 -34.45037,8.14078z" fill="url(#color-1)" stroke="none" stroke-width="0" stroke-linecap="butt"/><path d="M239.17461,54.27245c-7.49035,-16.57069 -1.51558,-29.39488 0.75213,-29.74974c5.02426,-0.78621 16.70909,1.89817 30.10026,0.35324c19.76362,-2.28013 31.39439,-4.94565 37.49782,-6.69509c3.98215,-1.14141 8.2981,2.46744 8.93745,3.46793c4.12641,6.45716 11.31143,17.05887 16.9921,22.06256c9.71452,8.55681 -86.54818,27.66544 -94.27976,10.56112z" fill="#e7bc52" stroke="none" stroke-width="0" stroke-linecap="butt"/><path d="M275.37453,113.22801c-7.42612,-6.45991 -29.18698,-26.55806 -35.96753,-45.77949c-7.96653,-22.58342 -1.61192,-40.06094 0.79994,-40.54456c5.34366,-1.07149 17.77132,2.58694 32.0138,0.48141c21.02004,-3.10749 33.39021,-6.7402 39.88164,-9.12442c4.2353,-1.55557 8.82563,3.36276 9.50562,4.72628c4.38873,8.80017 12.03053,23.24876 18.07232,30.06804c10.33209,11.66168 25.01609,21.24835 32.98073,25.99495c3.47285,2.06968 3.31007,4.41764 -0.54164,6.31945c-12.6352,6.23872 -25.32043,11.33778 -59.78357,21.84895c-11.60678,3.54004 -24.91553,6.30139 -31.04036,7.496c-2.14594,0.41855 -4.34107,-0.1123 -5.92095,-1.48661z" fill="url(#color-2)" stroke="#000000" stroke-width="15" stroke-linecap="butt"/><g fill="none" stroke="#392f0e" stroke-width="5" stroke-linecap="round"><path d="M275.17818,87.55478c-2.07984,-1.7526 -7.8668,-8.43519 -9.94574,-10.73297c-2.47998,-2.74102 -6.81559,-9.11732 -9.17414,-12.66606c-0.61164,-0.92029 11.39452,-8.79228 22.54856,7.0947c10.1314,14.4304 -3.29123,16.53262 -3.29123,16.53262"/><path d="M297.11381,55.67419c0,0 9.09668,22.2218 1.8349,23.59959c-8.4909,3.62237 -16.8125,-21.16138 -16.8125,-21.16138"/><path d="M311.04646,74.48327c0,0 -2.77118,-14.54872 -3.48774,-18.31063c-0.31919,-1.67575 -0.83078,-3.19752 0.04152,-1.9716c2.68272,3.77031 10.08062,12.76467 11.62649,14.93723c0.76369,1.0733 0.13391,-0.68488 -0.1977,-2.53638c-0.51761,-2.89002 -1.01709,-10.81643 -1.85465,-15.49281c-0.33344,-1.86167 0.13863,-1.07542 1.46588,1.00054c2.4585,3.84535 11.91192,16.10395 11.91192,16.10395"/></g><path d="M207.71772,161.08107v-175.67568h202.7027v175.67568z" fill="none" stroke="none" stroke-width="none" stroke-linecap="butt"/></g></g></svg>