<svg version="1.1" xmlns="http://www.w3.org/2000/svg" xmlns:xlink="http://www.w3.org/1999/xlink" width="51.5" height="51.5" viewBox="0,0,51.5,51.5"><g transform="translate(-211.75,-150.95)"><g data-paper-data="{&quot;isPaintingLayer&quot;:true}" fill-rule="nonzero" stroke-linecap="butt" stroke-linejoin="miter" stroke-miterlimit="10" stroke-dasharray="" stroke-dashoffset="0" style="mix-blend-mode: normal"><path d="M224.375,180.00001c0,-8.62945 6.99555,-15.625 15.625,-15.625c8.62945,0 15.625,6.99555 15.625,15.625c0,8.62945 -6.99555,15.625 -15.625,15.625c-8.62945,0 -15.625,-6.99555 -15.625,-15.625z" fill="#f07173" stroke="#000000" stroke-width="7.5"/><path d="M224.375,180.00001c0,-8.62945 6.99555,-15.625 15.625,-15.625c8.62945,0 15.625,6.99555 15.625,15.625c0,8.62945 -6.99555,15.625 -15.625,15.625c-8.62945,0 -15.625,-6.99555 -15.625,-15.625z" fill="#f07173" stroke="#f07173" stroke-width="3.5"/><path d="M235.05,180.00001c0,-2.73381 2.21619,-4.95 4.95,-4.95c2.73381,0 4.95,2.21619 4.95,4.95c0,2.73381 -2.21619,4.95 -4.95,4.95c-2.73381,0 -4.95,-2.21619 -4.95,-4.95z" fill="#ffffff" stroke="none" stroke-width="0"/><path d="M232.11272,174.18038c1.89364,-2.50603 4.97071,-4.04188 8.33963,-3.8242c0.75156,0.04856 1.47749,0.1818 2.16909,0.38981" fill="none" stroke="#ffffff" stroke-width="7.5"/><path d="M240.59694,189.78372c-3.13718,0.15548 -6.28953,-1.21925 -8.28416,-3.94293c-0.44498,-0.60762 -0.80856,-1.2499 -1.09276,-1.91384" fill="none" stroke="#ffffff" stroke-width="7.5"/><path d="M248.8103,175.70397c1.34435,2.83881 1.2808,6.27729 -0.47209,9.16249c-0.39105,0.64365 -0.84527,1.22537 -1.34988,1.74205" fill="none" stroke="#ffffff" stroke-width="7.5"/><path d="M211.75,202.45v-51.5h51.5v51.5z" fill="none" stroke="none" stroke-width="0"/><path d="M223.3125,180c0,-9.21625 7.47125,-16.6875 16.6875,-16.6875c9.21625,0 16.6875,7.47125 16.6875,16.6875c0,9.21625 -7.47125,16.6875 -16.6875,16.6875c-9.21625,0 -16.6875,-7.47125 -16.6875,-16.6875z" fill="none" stroke="#cd3400" stroke-width="2"/></g></g></svg>