<svg version="1.1" xmlns="http://www.w3.org/2000/svg" xmlns:xlink="http://www.w3.org/1999/xlink" width="354.74999" height="91.40269" viewBox="0,0,354.74999,91.40269"><g transform="translate(77.24999,-123.85851)"><g data-paper-data="{&quot;isPaintingLayer&quot;:true}" fill-rule="nonzero" stroke-linecap="butt" stroke-linejoin="miter" stroke-miterlimit="10" stroke-dasharray="" stroke-dashoffset="0" style="mix-blend-mode: normal"><text transform="translate(-76.99999,145.44445) scale(0.5,0.5)" font-size="40" xml:space="preserve" fill="#ffffff" fill-rule="nonzero" stroke="none" stroke-width="1" stroke-linecap="butt" stroke-linejoin="miter" stroke-miterlimit="10" stroke-dasharray="" stroke-dashoffset="0" font-family="Sans Serif" font-weight="normal" text-anchor="start" style="mix-blend-mode: normal"><tspan x="0" dy="0"> </tspan></text><path d="M210.81742,204.82786c0,-12.01784 0,-46.0465 0,-50.94544c0,-1.57362 1.66178,-2.90196 3.54684,-2.90196c6.17489,0 40.11775,0 51.26788,0c2.23182,0 3.55046,1.18889 3.55046,3.2244c0,6.34387 0,40.15015 0,51.26788c0,2.22971 -2.03698,3.54683 -4.51777,3.54683c-6.71661,0 -38.19001,0 -49.65568,0c-2.61703,0 -4.19171,-1.57351 -4.19171,-4.19171z" fill="#ff6161" stroke="#ff6161" stroke-width="3"/><path d="M201.19842,215.2612v-71.74627h76.30158v71.74627z" fill="none" stroke="none" stroke-width="none"/></g></g></svg>