<svg version="1.1" xmlns="http://www.w3.org/2000/svg" xmlns:xlink="http://www.w3.org/1999/xlink" width="157.16429" height="51.01275" viewBox="0,0,157.16429,51.01275"><g transform="translate(-155.97899,-151.08027)"><g data-paper-data="{&quot;isPaintingLayer&quot;:true}" fill-rule="nonzero" stroke="none" stroke-linejoin="miter" stroke-miterlimit="10" stroke-dasharray="" stroke-dashoffset="0" style="mix-blend-mode: normal"><path d="M155.97899,202.09302v-51.01275h157.16429v51.01275z" fill="#000000" stroke-width="none" stroke-linecap="butt"/><path d="M213.32703,172.59424v-3.29389c0,-0.40259 0.01464,-0.69538 0.04392,-0.87837c0.0366,-0.18299 0.13542,-0.33671 0.29645,-0.46114c0.16103,-0.13176 0.35866,-0.19763 0.5929,-0.19763c0.21959,0 0.40991,0.06222 0.57094,0.18665c0.16835,0.12444 0.27083,0.28913 0.30743,0.49408c0.04392,0.19764 0.06588,0.49775 0.06588,0.90033v2.58021c0,0.84177 0.13176,1.38343 0.39527,1.62499c0.26351,0.23423 0.55264,0.35135 0.86739,0.35135c0.35867,0 0.67342,-0.09882 0.94425,-0.29645c0.27815,-0.20495 0.46481,-0.45017 0.55996,-0.73564c0.09515,-0.29279 0.14273,-0.86007 0.14273,-1.70184v-1.86654c0,-0.39527 0.0183,-0.68806 0.0549,-0.87837c0.04392,-0.19031 0.1464,-0.34769 0.30743,-0.47212c0.16835,-0.12444 0.36599,-0.18665 0.5929,-0.18665c0.21227,0 0.40259,0.06222 0.57094,0.18665c0.16835,0.12444 0.26717,0.27815 0.29645,0.46114c0.0366,0.18299 0.0549,0.47944 0.0549,0.88935v4.6334c0,0.38063 -0.01829,0.65512 -0.0549,0.82347c-0.0366,0.16835 -0.1281,0.31475 -0.27449,0.43919c-0.13907,0.12444 -0.31841,0.18665 -0.538,0.18665c-0.60754,0 -0.90033,-0.43552 -0.87837,-1.30657c-0.62218,0.87105 -1.44565,1.30657 -2.47042,1.30657c-0.68074,0 -1.25899,-0.20129 -1.73478,-0.60388c-0.47579,-0.40991 -0.71368,-1.13822 -0.71368,-2.18495zM223.55045,169.01487c0.65878,-0.83445 1.47127,-1.25168 2.43748,-1.25168c0.95889,0 1.72014,0.36232 2.28376,1.08698c0.57094,0.71734 0.85641,1.65061 0.85641,2.79981c0,1.09064 -0.27815,1.98731 -0.83445,2.69001c-0.54898,0.69538 -1.31389,1.04306 -2.29474,1.04306c-0.92961,0 -1.74576,-0.39161 -2.44846,-1.17482v2.44846c0,0.67342 -0.08418,1.09064 -0.25253,1.25168c-0.16835,0.16835 -0.39527,0.25253 -0.68074,0.25253c-0.34403,0 -0.58558,-0.11345 -0.72466,-0.34037c-0.13907,-0.22691 -0.20861,-0.63316 -0.20861,-1.21874v-7.38929c0,-0.38795 0.01464,-0.66976 0.04392,-0.84543c0.0366,-0.18299 0.13542,-0.32939 0.29645,-0.43919c0.16835,-0.1098 0.36599,-0.16469 0.5929,-0.16469c0.62218,0 0.93327,0.34769 0.93327,1.04306zM227.22863,171.60607c0,-0.81981 -0.17202,-1.42735 -0.51605,-1.82262c-0.34403,-0.39527 -0.74661,-0.5929 -1.20776,-0.5929c-0.53434,0 -0.97719,0.20129 -1.32854,0.60388c-0.34403,0.40259 -0.51605,0.96621 -0.51605,1.69087c0,0.75393 0.16835,1.35415 0.50506,1.80066c0.33671,0.43919 0.78688,0.65878 1.3505,0.65878c0.50506,0 0.91497,-0.20495 1.22972,-0.61486c0.32207,-0.41723 0.4831,-0.99183 0.4831,-1.7238zM235.77079,174.30706v-0.18666c-0.64414,0.84177 -1.46029,1.26266 -2.44846,1.26266c-0.95157,0 -1.71282,-0.36232 -2.28376,-1.08698c-0.56362,-0.73198 -0.84543,-1.67622 -0.84543,-2.83275c0,-1.08332 0.27449,-1.96902 0.82347,-2.65707c0.5563,-0.69538 1.32122,-1.04306 2.29474,-1.04306c0.94425,0 1.76406,0.38062 2.45944,1.14188v-2.4265c0,-0.67342 0.08418,-1.09065 0.25253,-1.25168c0.17568,-0.16835 0.40625,-0.25253 0.69172,-0.25253c0.20495,0 0.39161,0.05856 0.55996,0.17568c0.16835,0.11711 0.27083,0.27083 0.30743,0.46114c0.0366,0.18299 0.0549,0.49042 0.0549,0.92229v7.37832c0,0.41723 -0.02196,0.71734 -0.06588,0.90033c-0.0366,0.17568 -0.14273,0.31475 -0.31841,0.41723c-0.16835,0.10248 -0.35135,0.15371 -0.54898,0.15371c-0.62218,0 -0.93327,-0.35866 -0.93327,-1.076zM232.09261,171.51823c0,0.84177 0.17567,1.45663 0.52702,1.84458c0.35867,0.38795 0.76492,0.58192 1.21874,0.58192c0.52702,0 0.96254,-0.2013 1.30657,-0.60388c0.35135,-0.40259 0.52702,-0.9662 0.52702,-1.69086c0,-0.75393 -0.16835,-1.35416 -0.50506,-1.80066c-0.33671,-0.44651 -0.78687,-0.66976 -1.35049,-0.66976c-0.50506,0 -0.91863,0.20862 -1.2407,0.62584c-0.32207,0.40991 -0.4831,0.98085 -0.4831,1.71282zM244.17021,174.31804c-0.88569,0.71002 -1.75674,1.06502 -2.61315,1.06502c-0.81249,0 -1.43833,-0.20495 -1.87752,-0.61486c-0.43187,-0.41723 -0.6478,-0.92229 -0.6478,-1.51519c0,-0.51238 0.1464,-0.92229 0.43919,-1.22972c0.30011,-0.31475 0.62218,-0.53434 0.96621,-0.65878c0.35135,-0.12444 0.91863,-0.26717 1.70184,-0.4282c0.78322,-0.16103 1.41637,-0.31109 1.89948,-0.45017c-0.00732,-0.57094 -0.12077,-0.95523 -0.34037,-1.15286c-0.21959,-0.19764 -0.55264,-0.29645 -0.99915,-0.29645c-0.84909,0 -1.40539,0.23789 -1.6689,0.71368c-0.1464,0.27083 -0.27816,0.46481 -0.39527,0.58192c-0.1098,0.1098 -0.27083,0.16469 -0.4831,0.16469c-0.19764,0 -0.37697,-0.06222 -0.538,-0.18665c-0.16103,-0.13176 -0.24155,-0.30377 -0.24155,-0.51605c0,-0.4831 0.26351,-0.94059 0.79054,-1.37246c0.52702,-0.43919 1.35416,-0.65878 2.4814,-0.65878c1.14188,0 1.97633,0.19763 2.50336,0.5929c0.53434,0.39527 0.78687,1.19312 0.7576,2.39356l-0.04392,1.75674c-0.01464,0.54898 0.04026,0.99548 0.16469,1.33951c0.13176,0.33671 0.19764,0.59656 0.19764,0.77955c0,0.19764 -0.08784,0.37331 -0.26351,0.52702c-0.16835,0.15372 -0.36232,0.23057 -0.58192,0.23057c-0.38063,0 -0.78322,-0.35501 -1.20776,-1.06502zM244.04943,171.60607c-0.27815,0.1098 -0.7393,0.23057 -1.38343,0.36233c-0.64414,0.12444 -1.10163,0.27083 -1.37246,0.43919c-0.26351,0.16103 -0.39527,0.40258 -0.39527,0.72465c0,0.26351 0.10614,0.5014 0.31841,0.71368c0.21227,0.20495 0.51604,0.30743 0.91131,0.30743c0.40991,0 0.79054,-0.11346 1.14188,-0.34037c0.35867,-0.22691 0.57826,-0.49409 0.65878,-0.80151c0.08052,-0.31475 0.12077,-0.78322 0.12077,-1.40539zM247.74682,167.92789v-1.1309c0,-0.46114 0.0183,-0.77224 0.0549,-0.93327c0.04392,-0.16835 0.1464,-0.31841 0.30743,-0.45017c0.16103,-0.13176 0.35135,-0.19763 0.57094,-0.19763c0.20495,0 0.38795,0.05856 0.54898,0.17567c0.16103,0.11711 0.26717,0.26351 0.31841,0.43919c0.05124,0.16835 0.07686,0.44284 0.07686,0.82347v1.27364h0.36233c0.46114,0 0.76492,0.0549 0.91131,0.16469c0.15372,0.1098 0.23057,0.27449 0.23057,0.49409c0,0.46114 -0.38429,0.69172 -1.15287,0.69172h-0.35135v3.45858c0,0.46846 0.03294,0.78688 0.09882,0.95523c0.06588,0.16835 0.24155,0.25253 0.52702,0.25253c0.13907,0 0.29279,-0.0183 0.46114,-0.0549c0.17568,-0.04392 0.30377,-0.06587 0.38429,-0.06587c0.19031,0 0.34403,0.06222 0.46114,0.18665c0.11711,0.12444 0.17568,0.27449 0.17568,0.45016c0,0.61486 -0.6478,0.92229 -1.9434,0.92229c-0.6295,0 -1.09064,-0.11711 -1.38343,-0.35135c-0.29279,-0.23423 -0.47579,-0.51605 -0.54898,-0.84543c-0.0732,-0.33671 -0.1098,-0.77589 -0.1098,-1.31756v-3.59034h-0.24155c-0.5563,0 -0.83445,-0.22691 -0.83445,-0.68074c0,-0.44651 0.29279,-0.66976 0.87837,-0.66976zM257.64085,172.03428h-3.67818c0.02196,0.69538 0.21227,1.21874 0.57094,1.57009c0.36599,0.35135 0.80517,0.52702 1.31756,0.52702c0.62218,0 1.21142,-0.27449 1.76772,-0.82347c0.22691,-0.22691 0.39161,-0.36599 0.49409,-0.41723c0.1098,-0.05856 0.23057,-0.08784 0.36232,-0.08784c0.16835,0 0.31109,0.0549 0.42821,0.16469c0.12444,0.10248 0.18665,0.23057 0.18665,0.38429c0,0.42455 -0.28913,0.87105 -0.86739,1.33951c-0.57094,0.46114 -1.3505,0.69172 -2.33866,0.69172c-1.25168,0 -2.20325,-0.35501 -2.8547,-1.06502c-0.64414,-0.71002 -0.96621,-1.62498 -0.96621,-2.74491c0,-1.13456 0.32207,-2.05319 0.96621,-2.75589c0.65146,-0.7027 1.55545,-1.05405 2.71197,-1.05405c1.09796,0 1.94706,0.33305 2.54728,0.99914c0.60022,0.65878 0.90033,1.37612 0.90033,2.15201c0,0.34403 -0.09882,0.61852 -0.29645,0.82347c-0.19764,0.19764 -0.61486,0.29645 -1.25168,0.29645zM253.96268,170.96925h3.41466c-0.02196,-0.62218 -0.19397,-1.09796 -0.51604,-1.42735c-0.32207,-0.32939 -0.71734,-0.49408 -1.1858,-0.49408c-0.99548,0 -1.56643,0.64048 -1.71282,1.92143zM262.19329,169.70659c0,0.24155 0.12444,0.43187 0.37331,0.57094c0.24887,0.13907 0.81249,0.31475 1.69086,0.52702c1.69818,0.41723 2.54728,1.12358 2.54728,2.11907c0,0.79785 -0.28913,1.40905 -0.86739,1.8336c-0.57094,0.41723 -1.3688,0.62584 -2.39356,0.62584c-1.04672,0 -1.8336,-0.21593 -2.36062,-0.6478c-0.52702,-0.43187 -0.79054,-0.88935 -0.79054,-1.37246c0,-0.20495 0.0732,-0.38062 0.21959,-0.52702c0.1464,-0.1464 0.32573,-0.21959 0.538,-0.21959c0.29279,0 0.54898,0.18299 0.76858,0.54898c0.24887,0.40259 0.5197,0.66976 0.81249,0.80151c0.30011,0.13176 0.61852,0.19763 0.95523,0.19763c0.38063,0 0.68806,-0.08418 0.92229,-0.25253c0.23423,-0.16835 0.35135,-0.38062 0.35135,-0.63682c0,-0.23423 -0.09882,-0.43553 -0.29645,-0.60388c-0.19764,-0.16835 -0.74295,-0.35501 -1.63597,-0.55996c-0.88569,-0.20495 -1.53349,-0.49042 -1.9434,-0.85641c-0.40991,-0.37331 -0.61486,-0.8125 -0.61486,-1.31756c0,-0.57094 0.24887,-1.07601 0.74661,-1.51519c0.49775,-0.43919 1.24436,-0.65878 2.23985,-0.65878c0.90765,0 1.62865,0.18665 2.16299,0.55996c0.54167,0.36599 0.81249,0.74662 0.81249,1.14188c0,0.21227 -0.06954,0.39161 -0.20861,0.538c-0.13176,0.1464 -0.31841,0.21959 -0.55996,0.21959c-0.36599,0 -0.69538,-0.20861 -0.98817,-0.62584c-0.28547,-0.41723 -0.721,-0.62584 -1.30658,-0.62584c-0.31475,0 -0.58924,0.06588 -0.82347,0.19764c-0.23423,0.12444 -0.35135,0.30377 -0.35135,0.538z" fill="#717171" stroke-width="1" stroke-linecap="square"/><path d="M199.88452,191.18276c-0.88569,0.71002 -1.75674,1.06503 -2.61316,1.06503c-0.81249,0 -1.43833,-0.20495 -1.87751,-0.61486c-0.43187,-0.41723 -0.6478,-0.92229 -0.6478,-1.51519c0,-0.51238 0.1464,-0.92229 0.43919,-1.22972c0.30011,-0.31475 0.62218,-0.53434 0.96621,-0.65878c0.35135,-0.12444 0.91863,-0.26717 1.70184,-0.42821c0.78322,-0.16103 1.41637,-0.31109 1.89947,-0.45016c-0.00732,-0.57094 -0.12077,-0.95523 -0.34037,-1.15287c-0.21959,-0.19764 -0.55264,-0.29645 -0.99915,-0.29645c-0.84909,0 -1.40539,0.23789 -1.6689,0.71368c-0.1464,0.27083 -0.27816,0.46481 -0.39527,0.58192c-0.1098,0.1098 -0.27083,0.16469 -0.4831,0.16469c-0.19764,0 -0.37697,-0.06222 -0.538,-0.18665c-0.16103,-0.13176 -0.24155,-0.30377 -0.24155,-0.51604c0,-0.4831 0.26351,-0.94059 0.79054,-1.37246c0.52702,-0.43919 1.35416,-0.65878 2.4814,-0.65878c1.14188,0 1.97633,0.19764 2.50336,0.5929c0.53434,0.39527 0.78687,1.19312 0.7576,2.39356l-0.04392,1.75674c-0.01464,0.54898 0.04026,0.99548 0.16469,1.33951c0.13176,0.33671 0.19764,0.59656 0.19764,0.77955c0,0.19764 -0.08784,0.37331 -0.26351,0.52702c-0.16835,0.15372 -0.36232,0.23057 -0.58192,0.23057c-0.38063,0 -0.78322,-0.35501 -1.20776,-1.06503zM199.76374,188.47079c-0.27815,0.1098 -0.7393,0.23057 -1.38343,0.36233c-0.64414,0.12444 -1.10163,0.27083 -1.37246,0.43919c-0.26351,0.16103 -0.39527,0.40259 -0.39527,0.72466c0,0.26351 0.10614,0.5014 0.31841,0.71368c0.21227,0.20495 0.51604,0.30743 0.91131,0.30743c0.40991,0 0.79054,-0.11346 1.14188,-0.34037c0.35867,-0.22691 0.57826,-0.49408 0.65878,-0.80151c0.08052,-0.31475 0.12077,-0.78322 0.12077,-1.4054zM203.44878,189.45896v-3.29389c0,-0.40259 0.01464,-0.69538 0.04392,-0.87837c0.0366,-0.18299 0.13542,-0.33671 0.29645,-0.46114c0.16103,-0.13176 0.35866,-0.19764 0.5929,-0.19764c0.21959,0 0.40991,0.06222 0.57094,0.18665c0.16835,0.12444 0.27083,0.28913 0.30743,0.49409c0.04392,0.19764 0.06588,0.49774 0.06588,0.90033v2.58021c0,0.84177 0.13176,1.38343 0.39527,1.62499c0.26351,0.23423 0.55264,0.35135 0.86739,0.35135c0.35867,0 0.67342,-0.09882 0.94425,-0.29645c0.27815,-0.20495 0.46481,-0.45017 0.55996,-0.73564c0.09515,-0.29279 0.14273,-0.86007 0.14273,-1.70184v-1.86654c0,-0.39527 0.0183,-0.68806 0.0549,-0.87837c0.04392,-0.19031 0.1464,-0.34769 0.30743,-0.47213c0.16835,-0.12444 0.36599,-0.18665 0.5929,-0.18665c0.21227,0 0.40259,0.06222 0.57094,0.18665c0.16835,0.12444 0.26717,0.27815 0.29645,0.46114c0.0366,0.18299 0.0549,0.47944 0.0549,0.88935v4.63341c0,0.38063 -0.01829,0.65512 -0.0549,0.82347c-0.0366,0.16835 -0.1281,0.31475 -0.27449,0.43919c-0.13907,0.12444 -0.31841,0.18665 -0.538,0.18665c-0.60754,0 -0.90033,-0.43552 -0.87837,-1.30658c-0.62218,0.87105 -1.44565,1.30658 -2.47042,1.30658c-0.68074,0 -1.25899,-0.20129 -1.73478,-0.60388c-0.47579,-0.40991 -0.71368,-1.13823 -0.71368,-2.18495zM212.29975,184.79261v-1.1309c0,-0.46114 0.01829,-0.77224 0.0549,-0.93327c0.04392,-0.16835 0.1464,-0.31841 0.30743,-0.45016c0.16103,-0.13176 0.35135,-0.19764 0.57094,-0.19764c0.20495,0 0.38794,0.05856 0.54898,0.17568c0.16103,0.11711 0.26717,0.26351 0.31841,0.43919c0.05124,0.16835 0.07686,0.44285 0.07686,0.82347v1.27364h0.36232c0.46114,0 0.76492,0.0549 0.91131,0.16469c0.15372,0.1098 0.23057,0.27449 0.23057,0.49409c0,0.46114 -0.38429,0.69172 -1.15286,0.69172h-0.35135v3.45859c0,0.46846 0.03294,0.78687 0.09882,0.95523c0.06588,0.16835 0.24155,0.25253 0.52702,0.25253c0.13907,0 0.29279,-0.01829 0.46114,-0.0549c0.17568,-0.04392 0.30377,-0.06588 0.38429,-0.06588c0.19031,0 0.34403,0.06222 0.46114,0.18665c0.11711,0.12444 0.17567,0.27449 0.17567,0.45017c0,0.61486 -0.6478,0.92229 -1.94339,0.92229c-0.6295,0 -1.09064,-0.11711 -1.38343,-0.35135c-0.29279,-0.23423 -0.47579,-0.51605 -0.54898,-0.84543c-0.0732,-0.33671 -0.1098,-0.77589 -0.1098,-1.31756v-3.59034h-0.24155c-0.5563,0 -0.83445,-0.22691 -0.83445,-0.68074c0,-0.44651 0.29279,-0.66976 0.87837,-0.66976zM220.2394,184.62792c1.16384,0 2.07881,0.35867 2.74491,1.07601c0.6661,0.71002 0.99915,1.62133 0.99915,2.73393c0,1.1126 -0.33671,2.02757 -1.01013,2.74491c-0.67342,0.71002 -1.56643,1.06503 -2.67903,1.06503c-1.20776,0 -2.14103,-0.36233 -2.79981,-1.08699c-0.65878,-0.72466 -0.98817,-1.6323 -0.98817,-2.72295c0,-1.1126 0.33305,-2.02391 0.99915,-2.73393c0.6661,-0.71734 1.57741,-1.07601 2.73393,-1.07601zM220.2394,190.85337c0.57094,0 1.0211,-0.21227 1.35049,-0.63682c0.32939,-0.43187 0.49409,-1.02477 0.49409,-1.7787c0,-0.76126 -0.1647,-1.35415 -0.49409,-1.7787c-0.32939,-0.43187 -0.77955,-0.6478 -1.35049,-0.6478c-0.5563,0 -1.00281,0.21593 -1.33952,0.6478c-0.32939,0.43187 -0.49408,1.02477 -0.49408,1.7787c0,0.75393 0.16469,1.34683 0.49408,1.7787c0.32939,0.42455 0.7759,0.63682 1.33952,0.63682zM236.07341,187.40576v3.22802c0,0.44651 -0.0183,0.76126 -0.0549,0.94425c-0.0366,0.17568 -0.13542,0.33305 -0.29645,0.47212c-0.16103,0.13176 -0.35501,0.19764 -0.58192,0.19764c-0.21959,0 -0.40991,-0.06588 -0.57094,-0.19764c-0.16103,-0.13176 -0.26351,-0.29279 -0.30743,-0.4831c-0.04392,-0.19764 -0.06588,-0.50872 -0.06588,-0.93327v-2.73393c0,-0.79785 -0.09516,-1.29926 -0.28547,-1.50421c-0.18299,-0.20495 -0.43919,-0.30743 -0.76857,-0.30743c-0.34403,0 -0.63682,0.09515 -0.87837,0.28547c-0.23423,0.19031 -0.39527,0.43919 -0.4831,0.74662c-0.08052,0.30743 -0.12077,0.78687 -0.12077,1.43833v2.07515c0,0.44651 -0.0183,0.76491 -0.0549,0.95523c-0.0366,0.18299 -0.13907,0.34037 -0.30743,0.47213c-0.16103,0.12444 -0.35501,0.18665 -0.58192,0.18665c-0.28547,0 -0.51238,-0.09882 -0.68073,-0.29645c-0.16103,-0.19764 -0.24155,-0.63682 -0.24155,-1.31756v-2.56924c0,-0.73198 -0.0549,-1.24436 -0.16469,-1.53715c-0.1098,-0.29279 -0.39893,-0.43919 -0.86739,-0.43919c-0.47579,0 -0.85275,0.15372 -1.1309,0.46114c-0.27815,0.30743 -0.41723,0.96254 -0.41723,1.96535v2.11907c0,0.43919 -0.01464,0.74661 -0.04392,0.92229c-0.02928,0.16835 -0.1281,0.32573 -0.29645,0.47212c-0.16103,0.1464 -0.35135,0.21959 -0.57094,0.21959c-0.21227,0 -0.40624,-0.06222 -0.58192,-0.18665c-0.16835,-0.13176 -0.27449,-0.28913 -0.31841,-0.47213c-0.0366,-0.18299 -0.0549,-0.5014 -0.0549,-0.95523v-4.53459c0,-0.43187 0.01829,-0.72465 0.0549,-0.87837c0.04392,-0.16103 0.1464,-0.30011 0.30743,-0.41723c0.16103,-0.11711 0.33671,-0.17568 0.52702,-0.17568c0.60022,0 0.90033,0.38063 0.90033,1.14188c0.62218,-0.76126 1.37611,-1.14188 2.2618,-1.14188c0.94425,0 1.6323,0.38063 2.06417,1.14188c0.63682,-0.76126 1.37977,-1.14188 2.22887,-1.14188c0.65878,0 1.21874,0.18299 1.67988,0.54898c0.46846,0.35867 0.7027,1.10163 0.7027,2.22887zM242.62276,191.18276c-0.88569,0.71002 -1.75674,1.06503 -2.61315,1.06503c-0.81249,0 -1.43833,-0.20495 -1.87752,-0.61486c-0.43187,-0.41723 -0.6478,-0.92229 -0.6478,-1.51519c0,-0.51238 0.1464,-0.92229 0.43919,-1.22972c0.30011,-0.31475 0.62218,-0.53434 0.96621,-0.65878c0.35135,-0.12444 0.91863,-0.26717 1.70184,-0.42821c0.78322,-0.16103 1.41637,-0.31109 1.89948,-0.45016c-0.00732,-0.57094 -0.12077,-0.95523 -0.34037,-1.15287c-0.21959,-0.19764 -0.55264,-0.29645 -0.99915,-0.29645c-0.84909,0 -1.40539,0.23789 -1.6689,0.71368c-0.1464,0.27083 -0.27816,0.46481 -0.39527,0.58192c-0.1098,0.1098 -0.27083,0.16469 -0.4831,0.16469c-0.19764,0 -0.37697,-0.06222 -0.538,-0.18665c-0.16103,-0.13176 -0.24155,-0.30377 -0.24155,-0.51604c0,-0.4831 0.26351,-0.94059 0.79053,-1.37246c0.52702,-0.43919 1.35416,-0.65878 2.4814,-0.65878c1.14188,0 1.97633,0.19764 2.50336,0.5929c0.53434,0.39527 0.78687,1.19312 0.7576,2.39356l-0.04392,1.75674c-0.01464,0.54898 0.04026,0.99548 0.16469,1.33951c0.13176,0.33671 0.19764,0.59656 0.19764,0.77955c0,0.19764 -0.08784,0.37331 -0.26351,0.52702c-0.16835,0.15372 -0.36232,0.23057 -0.58192,0.23057c-0.38063,0 -0.78322,-0.35501 -1.20776,-1.06503zM242.50198,188.47079c-0.27815,0.1098 -0.7393,0.23057 -1.38343,0.36233c-0.64414,0.12444 -1.10163,0.27083 -1.37246,0.43919c-0.26351,0.16103 -0.39527,0.40259 -0.39527,0.72466c0,0.26351 0.10614,0.5014 0.31841,0.71368c0.21227,0.20495 0.51604,0.30743 0.91131,0.30743c0.40991,0 0.79054,-0.11346 1.14188,-0.34037c0.35867,-0.22691 0.57826,-0.49408 0.65878,-0.80151c0.08052,-0.31475 0.12077,-0.78322 0.12077,-1.4054zM246.19938,184.79261v-1.1309c0,-0.46114 0.0183,-0.77224 0.0549,-0.93327c0.04392,-0.16835 0.1464,-0.31841 0.30743,-0.45016c0.16103,-0.13176 0.35135,-0.19764 0.57094,-0.19764c0.20495,0 0.38795,0.05856 0.54898,0.17568c0.16103,0.11711 0.26717,0.26351 0.31841,0.43919c0.05124,0.16835 0.07686,0.44285 0.07686,0.82347v1.27364h0.36233c0.46114,0 0.76491,0.0549 0.91131,0.16469c0.15372,0.1098 0.23058,0.27449 0.23058,0.49409c0,0.46114 -0.38429,0.69172 -1.15287,0.69172h-0.35135v3.45859c0,0.46846 0.03294,0.78687 0.09882,0.95523c0.06588,0.16835 0.24155,0.25253 0.52702,0.25253c0.13907,0 0.29279,-0.01829 0.46114,-0.0549c0.17568,-0.04392 0.30377,-0.06588 0.38429,-0.06588c0.19031,0 0.34403,0.06222 0.46114,0.18665c0.11711,0.12444 0.17568,0.27449 0.17568,0.45017c0,0.61486 -0.6478,0.92229 -1.9434,0.92229c-0.6295,0 -1.09064,-0.11711 -1.38343,-0.35135c-0.29279,-0.23423 -0.47579,-0.51605 -0.54898,-0.84543c-0.0732,-0.33671 -0.1098,-0.77589 -0.1098,-1.31756v-3.59034h-0.24155c-0.5563,0 -0.83446,-0.22691 -0.83446,-0.68074c0,-0.44651 0.29279,-0.66976 0.87837,-0.66976zM251.81135,181.92692c0.24887,0 0.46114,0.0915 0.63682,0.27449c0.17568,0.18299 0.26351,0.39527 0.26351,0.63682c0,0.24887 -0.08784,0.46481 -0.26351,0.6478c-0.17568,0.17568 -0.38795,0.26351 -0.63682,0.26351c-0.24887,0 -0.46481,-0.08784 -0.6478,-0.26351c-0.17568,-0.18299 -0.26351,-0.39893 -0.26351,-0.6478c0,-0.24887 0.08783,-0.46114 0.26351,-0.63682c0.18299,-0.18299 0.39893,-0.27449 0.6478,-0.27449zM252.74462,186.15409v4.53459c0,0.45383 -0.02196,0.76492 -0.06588,0.93327c-0.0366,0.16103 -0.14273,0.30743 -0.31841,0.43919c-0.16835,0.12444 -0.35135,0.18665 -0.54898,0.18665c-0.19764,0 -0.38428,-0.06222 -0.55996,-0.18665c-0.17568,-0.13176 -0.28547,-0.28181 -0.32939,-0.45017c-0.0366,-0.16835 -0.0549,-0.47578 -0.0549,-0.92229v-4.52361c0,-0.40991 0.01464,-0.69904 0.04392,-0.86739c0.0366,-0.17568 0.13908,-0.32939 0.30743,-0.46114c0.16835,-0.13907 0.36232,-0.20861 0.58192,-0.20861c0.21959,0 0.40991,0.06222 0.57094,0.18665c0.16103,0.11711 0.26351,0.27083 0.30743,0.46114c0.04392,0.18299 0.06588,0.47579 0.06588,0.87837zM260.60466,189.10761c0.22691,0 0.41357,0.0915 0.55996,0.27449c0.15372,0.17568 0.23057,0.35501 0.23057,0.538c0,0.51238 -0.30377,1.02843 -0.91131,1.54813c-0.60754,0.51971 -1.42369,0.77955 -2.44846,0.77955c-1.22972,0 -2.15933,-0.34769 -2.78883,-1.04307c-0.62218,-0.7027 -0.93327,-1.61401 -0.93327,-2.73393c0,-1.12724 0.32573,-2.04953 0.97719,-2.76687c0.65146,-0.71734 1.57741,-1.07601 2.77785,-1.07601c0.92961,0 1.69818,0.24521 2.30572,0.73564c0.61486,0.4831 0.92229,0.96255 0.92229,1.43833c0,0.22691 -0.08418,0.41723 -0.25253,0.57094c-0.16103,0.15372 -0.35135,0.23057 -0.57094,0.23057c-0.27815,0 -0.49409,-0.11712 -0.6478,-0.35135c-0.34403,-0.51971 -0.6478,-0.84909 -0.91131,-0.98817c-0.26351,-0.13907 -0.54898,-0.20861 -0.85641,-0.20861c-0.60022,0 -1.06503,0.23057 -1.39442,0.69172c-0.32207,0.45383 -0.4831,1.02477 -0.4831,1.71283c0,0.7027 0.16835,1.2773 0.50506,1.7238c0.34403,0.44651 0.80151,0.66976 1.37246,0.66976c0.32207,0 0.61852,-0.07686 0.88935,-0.23057c0.27815,-0.15372 0.51604,-0.38429 0.71368,-0.69172c0.19764,-0.31475 0.35501,-0.53068 0.47213,-0.6478c0.11711,-0.11711 0.27449,-0.17568 0.47212,-0.17568zM267.75927,191.18276c-0.88569,0.71002 -1.75674,1.06503 -2.61315,1.06503c-0.81249,0 -1.43833,-0.20495 -1.87752,-0.61486c-0.43187,-0.41723 -0.6478,-0.92229 -0.6478,-1.51519c0,-0.51238 0.1464,-0.92229 0.43919,-1.22972c0.30011,-0.31475 0.62218,-0.53434 0.96621,-0.65878c0.35135,-0.12444 0.91863,-0.26717 1.70184,-0.42821c0.78322,-0.16103 1.41637,-0.31109 1.89948,-0.45016c-0.00732,-0.57094 -0.12077,-0.95523 -0.34037,-1.15287c-0.21959,-0.19764 -0.55264,-0.29645 -0.99915,-0.29645c-0.84909,0 -1.40539,0.23789 -1.6689,0.71368c-0.1464,0.27083 -0.27816,0.46481 -0.39527,0.58192c-0.1098,0.1098 -0.27083,0.16469 -0.4831,0.16469c-0.19764,0 -0.37697,-0.06222 -0.538,-0.18665c-0.16103,-0.13176 -0.24155,-0.30377 -0.24155,-0.51604c0,-0.4831 0.26351,-0.94059 0.79054,-1.37246c0.52702,-0.43919 1.35416,-0.65878 2.4814,-0.65878c1.14188,0 1.97633,0.19764 2.50336,0.5929c0.53434,0.39527 0.78687,1.19312 0.7576,2.39356l-0.04392,1.75674c-0.01464,0.54898 0.04026,0.99548 0.16469,1.33951c0.13176,0.33671 0.19764,0.59656 0.19764,0.77955c0,0.19764 -0.08784,0.37331 -0.26351,0.52702c-0.16835,0.15372 -0.36232,0.23057 -0.58192,0.23057c-0.38063,0 -0.78322,-0.35501 -1.20776,-1.06503zM267.63849,188.47079c-0.27815,0.1098 -0.7393,0.23057 -1.38343,0.36233c-0.64414,0.12444 -1.10163,0.27083 -1.37246,0.43919c-0.26351,0.16103 -0.39527,0.40259 -0.39527,0.72466c0,0.26351 0.10614,0.5014 0.31841,0.71368c0.21227,0.20495 0.51604,0.30743 0.91131,0.30743c0.40991,0 0.79054,-0.11346 1.14188,-0.34037c0.35867,-0.22691 0.57826,-0.49408 0.65878,-0.80151c0.08052,-0.31475 0.12077,-0.78322 0.12077,-1.4054zM273.25596,183.38722v7.30146c0,0.45383 -0.02196,0.76492 -0.06588,0.93327c-0.0366,0.16103 -0.14273,0.30743 -0.31841,0.43919c-0.16835,0.12444 -0.35135,0.18665 -0.54898,0.18665c-0.19764,0 -0.38428,-0.06222 -0.55996,-0.18665c-0.17568,-0.13176 -0.28547,-0.28181 -0.32939,-0.45017c-0.0366,-0.16835 -0.0549,-0.47578 -0.0549,-0.92229v-7.30146c0,-0.46114 0.02196,-0.77224 0.06588,-0.93327c0.04392,-0.16835 0.15006,-0.31109 0.31841,-0.4282c0.16835,-0.12444 0.35135,-0.18665 0.54898,-0.18665c0.22691,0 0.42089,0.06587 0.58192,0.19763c0.16835,0.13176 0.27083,0.28547 0.30743,0.46114c0.0366,0.17568 0.0549,0.47213 0.0549,0.88935zM277.06452,183.38722v7.30146c0,0.45383 -0.02196,0.76492 -0.06588,0.93327c-0.0366,0.16103 -0.14273,0.30743 -0.31841,0.43919c-0.16835,0.12444 -0.35135,0.18665 -0.54898,0.18665c-0.19764,0 -0.38428,-0.06222 -0.55996,-0.18665c-0.17568,-0.13176 -0.28547,-0.28181 -0.32939,-0.45017c-0.0366,-0.16835 -0.0549,-0.47578 -0.0549,-0.92229v-7.30146c0,-0.46114 0.02196,-0.77224 0.06588,-0.93327c0.04392,-0.16835 0.15006,-0.31109 0.31841,-0.4282c0.16835,-0.12444 0.35135,-0.18665 0.54898,-0.18665c0.22691,0 0.42089,0.06587 0.58192,0.19763c0.16835,0.13176 0.27083,0.28547 0.30743,0.46114c0.0366,0.17568 0.0549,0.47213 0.0549,0.88935zM280.89504,192.06113l-2.28377,-5.80823c-0.1464,-0.37331 -0.21959,-0.63316 -0.21959,-0.77955c0,-0.21227 0.08783,-0.40624 0.26351,-0.58192c0.18299,-0.17568 0.39527,-0.26351 0.63682,-0.26351c0.21227,0 0.39161,0.06588 0.538,0.19764c0.1464,0.12444 0.29279,0.38794 0.43919,0.79053l1.58107,4.61145l1.50421,-4.27108c0.19764,-0.5563 0.35501,-0.91497 0.47212,-1.07601c0.11711,-0.16835 0.31841,-0.25253 0.60388,-0.25253c0.25619,0 0.45748,0.08784 0.60388,0.26351c0.1464,0.16835 0.21959,0.34037 0.21959,0.51604c0,0.21227 -0.0732,0.51238 -0.21959,0.90033l-2.44846,6.40113c-0.32207,0.84909 -0.65878,1.44565 -1.01013,1.78968c-0.34403,0.35135 -0.93693,0.52702 -1.7787,0.52702c-1.08332,0 -1.62499,-0.27816 -1.62499,-0.83446c0,-0.18299 0.05856,-0.33671 0.17568,-0.46114c0.12444,-0.12444 0.28913,-0.18665 0.49408,-0.18665c0.0366,0 0.14273,0.00732 0.31841,0.02196c0.18299,0.01464 0.28913,0.02196 0.31841,0.02196c0.34403,0 0.59656,-0.08418 0.7576,-0.25253c0.16835,-0.16103 0.33305,-0.4465 0.49409,-0.85641z" fill="#717171" stroke-width="1" stroke-linecap="square"/></g></g></svg>