<svg version="1.1" xmlns="http://www.w3.org/2000/svg" xmlns:xlink="http://www.w3.org/1999/xlink" width="307" height="307" viewBox="0,0,307,307"><defs><linearGradient x1="193.26747" y1="201.7032" x2="192.24423" y2="246.87611" gradientUnits="userSpaceOnUse" id="color-1"><stop offset="0" stop-color="#8ec4d0"/><stop offset="1" stop-color="#406077"/></linearGradient><linearGradient x1="193.26748" y1="201.7032" x2="192.24424" y2="246.87611" gradientUnits="userSpaceOnUse" id="color-2"><stop offset="0" stop-color="#8ec4d0"/><stop offset="1" stop-color="#406077"/></linearGradient><linearGradient x1="264.45761" y1="206.76219" x2="266.89082" y2="251.88113" gradientUnits="userSpaceOnUse" id="color-3"><stop offset="0" stop-color="#8ec4d0"/><stop offset="1" stop-color="#406077"/></linearGradient></defs><g transform="translate(-86.5,-47.19449)"><g data-paper-data="{&quot;isPaintingLayer&quot;:true}" fill-rule="nonzero" stroke-linecap="butt" stroke-linejoin="miter" stroke-miterlimit="10" stroke-dasharray="" stroke-dashoffset="0" style="mix-blend-mode: normal"><path d="M89,200.69449c0,-83.39499 67.60501,-151 151,-151c83.39499,0 151,67.60501 151,151c0,83.39499 -67.60501,151 -151,151c-83.39499,0 -151,-67.60501 -151,-151z" fill="#c1ffb2" stroke="none" stroke-width="0"/><path d="M92,174.69447c0,0 12.39294,60.43765 55.98474,110.83318c42.25722,48.85264 69.10277,62.95198 69.10277,62.95198c0,0 -18.64049,-2.35942 -26.09179,-4.91461c-24.90904,-8.54177 -46.87791,-23.41437 -63.98602,-42.69722c-14.83039,-16.7156 -26.00815,-36.74528 -32.28219,-58.83796c-1.63816,-5.76842 -4.36357,-19.45418 -4.66195,-32.99194c-0.38115,-17.29247 1.93445,-34.34344 1.93445,-34.34344z" fill="#a9ef51" stroke="none" stroke-width="0"/><path d="M112.3922,119.92886c0,0 2.9874,-4.57182 4.5701,-6.79188c13.23093,-18.559 30.55615,-33.99744 50.65712,-44.99678c2.3231,-1.27121 7.07849,-3.63372 7.07849,-3.63372c0,0 1.41646,83.64612 14.97423,159.73551c11.85622,66.5399 36.29102,126.83034 33.75137,126.55303c-75.59605,-8.25439 -111.0313,-230.86617 -111.0313,-230.86617z" fill="#abee53" stroke="none" stroke-width="0"/><path d="M238.48285,50.28824c0,0 21.1116,0.63494 24.12507,1.08736c16.14936,2.42458 31.46169,7.40663 45.51148,14.52063c2.27146,1.15014 6.71357,3.61578 6.71357,3.61578c0,0 -23.12187,74.19765 -34.5305,138.53809c-8.04369,45.36344 -16.83565,141.83179 -16.83565,141.83179c0,0 -6.49388,0.9056 -9.78826,1.2014c-4.50542,0.40454 -6.06786,0.61119 -10.67857,0.61119c-3.46676,0 -6.31471,0.65324 -6.31471,0.65324c0,0 -8.80023,-107.69193 -5.65681,-186.3893c1.70155,-42.59948 7.45437,-115.6702 7.45437,-115.6702z" fill="#abee53" stroke="none" stroke-width="0"/><path d="M355.7369,104.68173c0,0 8.27066,9.75729 10.25283,12.75062c10.85586,16.39376 18.59764,35.0296 22.38197,55.06412c1.09108,5.77628 -0.3717,0.19801 -0.3717,0.19801c0,0 -22.85239,37.94419 -36.39089,64.02344c-16.5176,31.81789 -32.99932,92.0441 -34.83156,93.40104c-8.77132,6.49599 -5.27122,4.06418 -15.35463,8.55953c-1.94452,0.86689 -8.8976,2.47996 -8.8976,2.47996c0,0 -2.21784,-41.30569 21.44111,-125.21136c14.53188,-51.53681 41.77049,-111.26534 41.77049,-111.26534z" fill="#abee53" stroke="none" stroke-width="0"/><path d="M389.99999,212.69449c0,0 0.85107,-4.20631 0.55856,-0.36701c-3.96206,52.00368 -34.26586,96.64238 -77.59701,120.60173c-12.60939,6.97218 11.67262,-36.05746 37.44993,-72.31919c18.43477,-25.93276 39.58852,-47.91553 39.58852,-47.91553z" fill="#abee53" stroke="none" stroke-width="0"/><g><path d="M95.11338,238.76334c0,0 12.75586,-24.01153 16.94619,-29.64148c2.78169,-3.73736 7.79874,-2.97317 7.79874,-2.97317l-9.63333,57.29654c0,0 -4.58253,-7.22293 -6.64719,-11.38184c-0.70232,-1.41471 -2.48584,0.48529 -3.59185,-1.27602c-2.61038,-4.15696 -4.87255,-12.02403 -4.87255,-12.02403z" fill="#fb7c00" stroke="none" stroke-width="0"/><path d="M119.85831,206.14869l-10.09758,57.28602c0,0 -9.8824,-4.50892 -11.68122,-10.99574c-2.49736,-4.75676 21.7788,-46.29028 21.7788,-46.29028z" fill="#b43f15" stroke="none" stroke-width="0"/><path d="M94.12872,238.07421c0,0 13.74051,-23.32239 17.93084,-28.95234c2.78169,-3.73736 7.79874,-2.97317 7.79874,-2.97317l-9.63333,57.29654c0,0 -8.31619,-4.30673 -10.38086,-8.46565c-2.35992,-4.75365 -5.71539,-16.90538 -5.71539,-16.90538z" fill="none" stroke="#390400" stroke-width="4"/><path d="M224.39451,231.69791c3.87838,29.92692 4.36888,65.06435 4.22927,86.21503c-0.76092,13.65616 -1.70763,17.8146 -17.087,22.1148c-6.75007,1.88737 -14.12267,3.17614 -23.40135,4.00915c-13.08163,1.17443 -35.69846,-21.60991 -54.597,-36.85814c-11.62934,-9.3831 -15.80179,-18.00473 -21.25164,-26.49552c-3.61966,-5.63937 -11.1805,-10.1795 -9.61258,-18.62444c5.39129,-29.03788 15.30822,-58.47968 31.54043,-74.91153c9.67984,-9.79889 19.26001,-13.66354 27.01022,-16.21124c46.87739,-15.40982 62.37797,54.65298 63.16965,60.76188z" fill="#b43f15" stroke="none" stroke-width="0"/><path d="M224.39451,231.69791c2.46701,19.03628 3.56323,40.1808 3.99845,58.49274c0.14393,6.05607 -15.60869,64.08424 -90.29509,15.83923c-39.7874,-26.55647 -18.67117,-97.64082 -16.51662,-101.52179c3.70372,-6.67146 7.90006,-12.56926 12.63339,-17.36082c9.67984,-9.79889 19.26001,-13.66354 27.01022,-16.21124c46.87739,-15.40982 62.37797,54.65298 63.16965,60.76188z" fill="#fb7c00" stroke="none" stroke-width="0"/><path d="M181.29986,206.15607c3.47293,0.21872 18.62092,0.54541 30.00012,3.37386c2.16655,0.53852 7.10891,1.88568 8.56229,7.73047c1.73957,6.99569 4.25461,18.4198 2.95562,26.25323c-0.95773,5.77549 -8.28043,7.93883 -10.01728,7.95508c-6.79994,0.06363 -14.98967,0.07291 -22.52238,-0.09771c-8.09921,-0.18346 -12.07198,0.3835 -19.47235,-1.44134c-3.39401,-0.83693 -7.80706,-1.8645 -11.27026,-4.93882c-6.38256,-5.66589 -2.04867,-22.28622 -1.13358,-25.87273c0.17955,-0.70369 1.13831,-7.0071 5.86955,-10.29699c4.24666,-2.95293 12.00735,-2.98126 17.02826,-2.66504z" fill="#8ec4d0" stroke="#b33f18" stroke-width="6"/><path d="M184.23815,201.55477c3.47293,0.21872 18.62092,0.54541 30.00012,3.37386c2.16655,0.53852 7.10891,1.88568 8.56229,7.73047c1.73957,6.99569 4.25461,18.4198 2.95562,26.25323c-0.95773,5.77549 -8.28043,7.93883 -10.01728,7.95508c-6.79994,0.06363 -14.98967,0.07291 -22.52238,-0.09771c-8.09921,-0.18346 -12.07198,0.3835 -19.47235,-1.44134c-3.39401,-0.83693 -7.80706,-1.8645 -11.27026,-4.93882c-6.38256,-5.66589 -2.04867,-22.28622 -1.13358,-25.87273c0.17955,-0.70369 1.13831,-7.0071 5.86955,-10.29699c4.24666,-2.95293 12.00735,-2.98126 17.02826,-2.66504z" fill="#8ec4d0" stroke="#061b0f" stroke-width="6"/><path d="M224.39451,231.69791c3.87838,29.92692 4.36888,65.06435 4.22927,86.21503c-0.76092,13.65616 -1.70763,17.8146 -17.087,22.1148c-6.13354,1.71499 -13.60655,2.91704 -21.88188,3.74728c-1.49114,0.1496 -5.98665,-2.50746 -5.98665,-2.50746c0,0 -15.63842,-8.28696 -23.41968,-13.32277c-8.099,-5.24144 -24.25924,-17.53366 -24.25924,-17.53366c0,0 -12.08491,-15.03088 -17.55792,-22.53831c-4.82378,-6.61687 -13.57904,-20.17284 -13.57904,-20.17284c0,0 -2.13698,-4.85866 -1.9007,-6.16725c5.3278,-29.50774 14.75826,-57.67775 31.26298,-74.38547c9.67984,-9.79889 19.26001,-13.66354 27.01022,-16.21124c46.87739,-15.40982 62.37797,54.65298 63.16965,60.76188z" fill="none" stroke="#390400" stroke-width="4"/><path d="M184.23815,201.55474c3.47293,0.21872 18.62092,0.54541 30.00012,3.37386c2.16655,0.53852 7.10891,1.88568 8.56229,7.73047c1.73957,6.99569 4.25461,18.4198 2.95562,26.25323c-0.95773,5.77549 -8.28043,7.93883 -10.01728,7.95508c-6.79994,0.06363 -14.98967,0.07291 -22.52238,-0.09771c-8.09921,-0.18346 -12.07198,0.3835 -19.47235,-1.44134c-3.39401,-0.83693 -7.80706,-1.8645 -11.27026,-4.93882c-6.38256,-5.66589 -2.04867,-22.28622 -1.13358,-25.87273c0.17955,-0.70369 1.13831,-7.0071 5.86955,-10.29699c4.24666,-2.95293 12.00735,-2.98126 17.02826,-2.66504z" fill="url(#color-1)" stroke="none" stroke-width="0"/><path d="M184.41046,201.55494c3.21436,0.20356 17.23466,0.50579 27.76625,3.14436c2.00517,0.50238 6.57937,1.75918 7.9235,7.21563c1.60881,6.53087 3.93453,17.19598 2.73081,24.50952c-0.88749,5.39218 -7.66546,7.41321 -9.27304,7.4287c-6.29376,0.06065 -13.87382,0.0708 -20.84576,-0.08712c-7.49626,-0.1698 -11.17339,0.36023 -18.02254,-1.34209c-3.14121,-0.78074 -7.22556,-1.73927 -10.43038,-4.60883c-5.9064,-5.28852 -1.89211,-20.80607 -1.04447,-24.15461c0.16631,-0.657 1.05485,-6.54205 5.43449,-9.61436c3.93107,-2.75763 11.11405,-2.7855 15.76114,-2.49119z" fill="#8ec4d0" stroke="none" stroke-width="0"/><path d="M223.97184,229.36943c-0.29577,1.78361 -1.54518,6.48619 -9.50502,8.94182c-4.66759,1.43996 -11.63516,1.7793 -22.09069,1.17772c-4.30093,-0.24746 -8.08116,0.36025 -11.36007,-0.13853c-18.73049,-2.84925 -21.81848,-10.18154 -21.36632,-12.94616c0.16205,-0.99085 3.21346,-6.43901 13.73004,-9.19224c4.51258,-1.18139 10.39042,-1.45875 18.01945,-1.34576c10.50417,0.15557 17.80197,0.51177 22.76833,2.35456c8.48373,3.14791 10.20764,8.71621 9.80428,11.1486z" fill="url(#color-2)" stroke="none" stroke-width="0"/><path d="M191.26103,340.84129c-0.66111,2.41101 -3.07212,1.7499 -3.07212,1.7499l-2.30786,-0.65659c-2.81216,-1.55155 -3.75064,0.99734 -7.239,-0.07585c-2.35592,-0.7248 -5.96011,-3.99422 -7.55732,-5.9076c-0.55524,-0.66514 -0.58638,-1.70037 -1.21268,-2.29908c-0.4825,-0.46125 -1.28277,-0.38549 -1.88862,-0.66565c-2.64846,-1.22471 -5.5951,-2.81184 -8.10569,-4.28585c-4.84403,-2.84401 -8.5118,-7.11181 -12.91949,-10.38755c-1.77345,-1.318 -3.98255,-1.92436 -5.89641,-3.02864c-1.95438,-4.60506 -4.81498,-6.787 -8.85798,-9.83707c-2.36927,-1.78739 -5.71776,-2.18497 -7.50386,-4.76819c-0.64811,-0.93736 -0.54184,-2.23716 -1.06964,-3.24718c-0.38794,-0.74236 -1.20545,-1.19101 -1.62765,-1.91443c-0.82565,-1.4147 -1.21168,-3.06422 -2.08629,-4.44919c-1.39351,-2.20666 -2.45957,-2.00622 -4.15492,-3.78907c-1.45711,-1.53231 -2.7479,-3.24918 -3.77782,-5.09592c-0.89032,-1.59643 -0.81652,-3.57965 -1.50321,-5.27367c-0.55691,-1.37388 -1.77492,-2.37525 -2.63731,-3.58106c0,0 -1.45432,-2.03346 0.57913,-3.48778c2.03346,-1.45432 3.48778,0.57913 3.48778,0.57913c0.36513,0.51053 3.03706,4.21742 3.17998,4.55276c0.64781,1.52006 0.43397,3.36621 1.26956,4.7917c2.02953,3.46231 5.52452,5.20902 7.67818,8.47298c0.93369,1.41505 1.32557,3.13105 2.18215,4.59406c0.48215,0.82352 1.36816,1.37299 1.80746,2.22015c0.44608,0.86025 0.3289,1.94645 0.79397,2.79658c0.75181,1.37425 5.10776,2.65261 6.31138,3.5468c3.88804,2.88848 8.24445,5.79014 9.68423,10.58807c0.39923,0.17744 4.97623,2.21096 4.98754,2.21919c4.34804,3.16255 7.87872,7.42749 12.62093,10.19612c2.43985,1.42446 5.16269,2.80348 7.70904,4.07443c1.01083,0.50453 2.22068,0.69621 3.06481,1.44707c0.80548,0.71648 0.98149,1.94081 1.67332,2.76757c1.08348,1.29479 3.58718,3.79039 5.21289,4.38424c1.29324,0.4724 3.51774,-1.02884 4.35626,-0.99231c1.20735,0.05259 2.26727,0.83743 3.40091,1.25615l1.66847,0.43374c0,0 2.41101,0.66111 1.7499,3.07212z" fill="#b43f15" stroke="none" stroke-width="0.5"/><path d="M138.09787,306.02986c-17.28106,-11.5344 -23.07285,-31.46885 -23.91918,-50.64854c1.75619,1.05766 3.53569,2.08159 5.24335,3.2129c16.26771,10.7772 32.40826,21.74542 48.6646,32.53977c8.74031,5.80364 19.01618,8.87066 28.50483,13.34738c0.69989,0.33021 10.59354,4.9011 19.96896,9.54564c-12.1845,12.38755 -35.63336,19.66912 -78.46256,-7.99716z" fill="#fb7c00" stroke="none" stroke-width="0"/></g><g><path d="M258.32266,330.3338c-1.17521,-17.85154 -3.48367,-55.9211 2.01827,-86.8341c10.19381,-61.22635 42.67052,-60.15295 52.46115,-57.63501c16.06335,4.13114 30.28621,20.42145 36.56416,38.85465c7.78534,22.85917 8.58705,51.31846 7.51547,73.65099c-0.10265,2.13929 -4.30762,3.53456 -6.57887,5.83275c-5.38522,5.44913 -12.45525,12.023 -18.60876,17.17283c-17.07409,14.28918 -37.03844,23.40916 -43.56038,22.71979c-8.47103,-0.89539 -14.14701,0.01187 -20.82429,-1.83746c-9.68491,-2.68232 -8.60599,-6.14041 -8.98677,-11.92441z" fill="#053a20" stroke="none" stroke-width="0"/><path d="M258.32266,330.3338c-1.17521,-17.85154 -3.48367,-55.9211 2.01827,-86.8341c10.19381,-61.22635 42.67052,-60.15295 52.46115,-57.63501c16.06335,4.13114 30.28621,20.42145 36.56416,38.85465c7.53734,22.13101 8.52888,49.51105 7.612,71.49857c-0.29636,7.1069 -12.46238,13.86801 -20.5341,21.10004c-17.33512,15.53178 -42.39018,28.15814 -49.53527,27.36832c-8.07457,-0.89256 -13.30738,-0.68538 -19.59946,-2.42803c-9.68491,-2.68232 -8.60599,-6.14041 -8.98677,-11.92441z" fill="#053a20" stroke="none" stroke-width="0"/><path d="M257.41592,314.61441c-0.92378,-19.76061 -1.27405,-47.52191 2.92502,-71.11469c10.19381,-61.22635 42.67052,-60.15295 52.46115,-57.63501c16.06335,4.13114 30.28621,20.42145 36.56416,38.85465c3.33792,9.80073 -2.0824,12.02089 -0.90921,22.95624c0.31395,2.92629 -0.84587,29.7178 -6.46413,50.33231c-4.41581,16.20249 -13.55605,27.54697 -13.55605,27.54697c0,0 -29.92316,11.15853 -46.49535,9.06202c-18.7567,-2.37285 -24.43812,-18.13131 -24.5256,-20.00248z" fill="#177902" stroke="none" stroke-width="0"/><path d="M268.37072,226.51959c6.56305,-0.24622 22.42089,-0.01419 27.32069,3.37018c4.43124,3.06075 4.50943,15.09686 4.59861,19.91718c0.04664,2.52009 -2.62361,2.65917 -6.05944,3.40888c-4.33745,0.94645 -10.09444,1.70129 -13.85408,1.91363c-4.59262,0.2594 -12.66594,-0.39512 -16.92234,-0.79224c-1.7137,-0.15989 -2.83724,-0.79555 -2.87351,-1.64944c-0.12042,-2.83497 -0.32586,-9.37798 0.14647,-13.00219c0.3623,-2.77995 1.4781,-8.11231 3.64787,-11.08486c1.03119,-1.41271 2.70658,-2.03275 3.99573,-2.08111z" fill="#03391f" stroke="#033a21" stroke-width="6"/><path d="M358.0336,296.17983c0,0 -27.95229,-67.37324 -11.43214,-82.86737c8.58052,-8.04761 26.72816,18.88011 33.9035,30.42524c1.88343,3.03045 -22.47136,52.44213 -22.47136,52.44213z" fill="#03391e" stroke="none" stroke-width="0"/><path d="M258.32266,330.3338c-1.17521,-17.85154 -3.48367,-55.9211 2.01827,-86.8341c10.19381,-61.22635 42.67052,-60.15295 52.46115,-57.63501c16.06335,4.13114 30.28621,20.42145 36.56416,38.85465c7.02468,20.62575 9.28386,46.06333 8.78068,67.21767c-0.02569,1.0801 -0.09841,3.2056 -0.09841,3.2056c0,0 -5.35381,6.74365 -12.40303,14.04235c-6.17331,6.39179 -13.47864,11.38586 -18.78607,15.37856c-5.15905,3.88107 -11.76498,7.93593 -18.97593,11.56419c-7.85394,3.95178 -22.24728,9.50166 -24.50425,9.19164c-5.84871,-0.80338 -11.58051,-1.81775 -16.06983,-3.0611c-9.68491,-2.68232 -8.60599,-6.14041 -8.98677,-11.92441z" fill="none" stroke="#000000" stroke-width="4"/><path d="M358.2767,294.49763c0,0 -28.19539,-65.69104 -11.67525,-81.18517c10.83281,-10.16001 36.08713,32.46656 36.08713,32.46656c0,0 -4.5333,14.89936 -12.15116,28.81873c-3.93782,7.1952 -12.26073,19.89988 -12.26073,19.89988z" fill="#053a20" stroke="#000000" stroke-width="4"/><path d="M361.10111,286.40164c-3.78616,-6.0036 -11.8432,-20.59723 -16.3301,-33.9631c-5.7198,-17.03853 -6.17262,-31.62005 1.83044,-39.12608c8.68341,-8.14409 28.9147,21.03086 35.90683,32.33381c1.73076,2.79782 -20.01198,42.9677 -21.40718,40.75538z" fill="#177902" stroke="none" stroke-width="0"/><path d="M358.2767,294.49765c0,0 -28.19539,-65.69104 -11.67525,-81.18517c10.83281,-10.16001 37.58713,33.46656 37.58713,33.46656c0,0 -4.5333,13.39936 -12.15116,27.31873c-0.24679,0.45094 -2.51081,3.67352 -2.78892,4.16326c-4.15944,7.32451 -10.97181,16.23662 -10.97181,16.23662z" fill="none" stroke="#000000" stroke-width="4"/><path d="M263.86677,208.73656c6.89368,-0.22349 23.56489,0.37403 28.77415,5.11545c4.71112,4.28804 5.00455,20.84586 5.1829,27.47809c0.09324,3.46736 -2.71082,3.61182 -6.30885,4.58278c-4.54219,1.22576 -10.57975,2.16304 -14.52753,2.38914c-4.82245,0.2762 -13.31928,-0.76583 -17.79988,-1.38682c-1.80396,-0.25002 -2.996,-1.14412 -3.04911,-2.31936c-0.17633,-3.9018 -0.50711,-12.90574 -0.07428,-17.88279c0.332,-3.81764 1.41115,-11.13306 3.63947,-15.18393c1.05901,-1.92518 2.80903,-2.74867 4.16312,-2.79257z" fill="#9966ff" stroke="#000000" stroke-width="6"/><path d="M263.86677,208.73656c6.89367,-0.22348 23.5649,0.37403 28.77415,5.11546c4.71112,4.28803 5.00454,20.84585 5.1829,27.47808c0.09324,3.46736 -2.71083,3.61181 -6.30885,4.58278c-4.54219,1.22576 -10.57975,2.16304 -14.52753,2.38914c-4.82246,0.27619 -13.31928,-0.76584 -17.79988,-1.38682c-1.80396,-0.25002 -2.996,-1.14412 -3.0491,-2.31936c-0.17633,-3.90179 -0.50711,-12.90574 -0.07428,-17.8828c0.332,-3.81764 1.41115,-11.13306 3.63947,-15.18393c1.05901,-1.92518 2.80904,-2.74867 4.16313,-2.79256z" fill="#8ec4ce" stroke="none" stroke-width="NaN"/><path d="M297.1872,232.00012c-0.15855,1.801 -1.04479,6.58534 -8.79361,9.64231c-2.56855,1.01332 -11.37424,2.44504 -19.64706,2.25695c-6.36201,-0.14464 -12.74497,-1.83033 -12.74497,-1.83033c0,0 -0.20558,-6.34484 -0.07358,-11.96625c0.11081,-4.71883 0.82939,-7.65629 0.76663,-8.3053c0.04972,-0.00372 6.46869,-0.73905 6.98298,-0.77084c10.48532,-0.64793 17.78899,-0.85068 22.8817,0.60704c8.69956,2.49012 10.84412,7.91033 10.6279,10.36643z" fill="url(#color-3)" stroke="none" stroke-width="0"/></g><path d="M89,200.69449c0,-83.39499 67.60501,-151 151,-151c71.35052,0 131.14268,49.48724 146.92556,116.01077c2.66426,11.22965 4.07444,22.94475 4.07444,34.98923c0,83.39499 -67.60501,151 -151,151c-83.39499,0 -151,-67.60501 -151,-151z" fill="none" stroke="#417705" stroke-width="5"/></g></g></svg>