<svg version="1.1" xmlns="http://www.w3.org/2000/svg" xmlns:xlink="http://www.w3.org/1999/xlink" width="145.64565" height="136.63664" viewBox="0,0,145.64565,136.63664"><defs><linearGradient x1="231.43418" y1="187.8073" x2="231.43418" y2="211.8073" gradientUnits="userSpaceOnUse" id="color-1"><stop offset="0" stop-color="#3b3b3b" stop-opacity="0"/><stop offset="1" stop-color="#3b3b3b"/></linearGradient><linearGradient x1="231.43417" y1="211.80731" x2="231.43417" y2="187.80731" gradientUnits="userSpaceOnUse" id="color-2"><stop offset="0" stop-color="#3b3b3b" stop-opacity="0"/><stop offset="1" stop-color="#3b3b3b"/></linearGradient></defs><g transform="translate(-158.24808,-100.38218)"><g data-paper-data="{&quot;isPaintingLayer&quot;:true}" fill-rule="nonzero" stroke-linecap="butt" stroke-linejoin="miter" stroke-miterlimit="10" stroke-dasharray="" stroke-dashoffset="0" style="mix-blend-mode: normal"><path d="M158.24808,237.01882v-136.63664h145.64565v136.63664z" fill="none" stroke="none" stroke-width="0"/><g><path d="M269.60084,201.14063c0,6.62742 -15.06275,10.66667 -38.16666,10.66667c-23.10391,0 -41.83333,-5.37258 -41.83333,-12c0,-6.62742 18.72942,-12 41.83333,-12c23.10391,0 38.16666,6.70591 38.16666,13.33333z" fill="url(#color-1)" stroke="none" stroke-width="0"/><path d="M231.43417,211.80731c-23.10391,0 -41.83333,-5.37258 -41.83333,-12c0,-6.62742 18.72942,-12 41.83333,-12c23.10391,0 37.83333,6.37258 37.83333,13c0,6.62742 -14.72942,11 -37.83333,11z" data-paper-data="{&quot;index&quot;:null}" fill="url(#color-2)" stroke="none" stroke-width="0"/><path d="M239.19902,131.68133c7.19192,-0.00754 11.19076,5.66749 15.01234,13.9248c1.45104,3.13527 4.38074,5.3991 5.49428,9.10924c2.46241,8.20446 -6.4355,10.51963 -5.56553,19.08249c0.36185,3.56157 6.2001,6.1522 7.30157,9.91976c1.09822,3.75643 -0.49231,7.47911 1.59816,11.22897c1.50678,2.70285 7.63709,5.22416 8.05127,7.21709c1.43212,6.89088 -5.35927,5.79949 -5.35927,5.79949c0,0 -15.29537,-3.72423 -30.8141,-4.60737c-13.97703,-0.79541 -13.45746,8.62398 -22.71968,5.12842c-2.90224,-1.09531 -2.35246,-3.08423 -9.63261,-9.72771c-3.45804,-3.15563 -8.29055,-4.05388 -9.14024,-6.02636c-1.19508,-2.77432 0.70289,-5.23444 1.7934,-6.70136c5.94513,-7.99713 13.33407,-3.86066 13.90055,-14.49987c1.74654,-32.80197 16.95573,-39.83382 30.07984,-39.84758z" fill="#2f7c52" stroke="none" stroke-width="0"/><path d="M240.89014,131.68133c6.36469,-0.00687 9.90357,5.16047 13.28558,12.67906c1.28414,2.85478 3.87686,4.91609 4.86231,8.29431c2.17918,7.47047 -5.69527,9.57852 -4.92537,17.37533c0.32023,3.24295 5.15362,7.60181 6.12839,11.03232c0.9719,3.42037 -0.10235,4.81001 1.74767,8.22441c1.33347,2.46105 3.42532,6.09013 3.79186,7.90477c1.26739,6.27441 -1.4095,3.94732 -1.4095,3.94732c0,0 -13.53606,-3.39105 -27.26979,-4.19519c-12.36936,-0.72425 -13.57622,7.85246 -21.77307,4.66962c-2.56842,-0.99732 -0.41521,-2.80831 -6.85798,-8.85745c-3.06029,-2.87332 -7.33695,-3.69121 -8.08891,-5.48723c-1.05762,-2.52612 0.62204,-4.76616 1.58712,-6.10184c5.26131,-7.28169 7.13369,-5.18194 7.63501,-14.86935c1.54565,-29.86744 19.67211,-34.60355 31.28665,-34.61607z" fill="#50a35b" stroke="none" stroke-width="0"/><path d="M239.19902,131.68132c7.19191,-0.00754 11.19076,5.66749 15.01235,13.9248c1.45104,3.13528 4.38074,5.3991 5.49428,9.10924c2.46241,8.20446 -6.4355,10.51963 -5.56554,19.08249c0.36185,3.56157 6.2001,6.1522 7.30158,9.91976c1.09822,3.75643 -0.49231,7.47911 1.59815,11.22897c1.50678,2.70285 7.63709,5.22416 8.05128,7.21709c1.43212,6.89088 -5.35927,5.79949 -5.35927,5.79949c0,0 -15.29537,-3.72422 -30.81409,-4.60737c-13.97703,-0.79541 -13.45746,8.62398 -22.71968,5.12843c-2.90224,-1.0953 -2.35246,-3.08424 -9.63261,-9.72771c-3.45804,-3.15563 -8.29055,-4.05388 -9.14023,-6.02636c-1.19508,-2.77432 0.70289,-5.23445 1.7934,-6.70136c5.94513,-7.99713 13.33408,-3.86065 13.90056,-14.49987c1.74654,-32.80196 16.95572,-39.83382 30.07984,-39.84759z" fill="none" stroke="#000000" stroke-width="5"/><path d="M260.4183,157.4186c0,8.19222 -7.68578,14.83333 -17.16667,14.83333c-5.23304,0 -10.82269,-0.8522 -13.97139,-4.04279c-2.55592,-2.58992 -3.19527,-7.12007 -3.19527,-10.79054c0,-8.19222 7.68578,-14.83333 17.16667,-14.83333c9.48089,0 17.16667,6.64111 17.16667,14.83333z" fill="#ddecef" stroke="#000000" stroke-width="5.5"/><path d="M241.52247,154.4186c0,-3.4978 2.92414,-6.33333 6.53125,-6.33333c3.60711,0 6.53125,2.83553 6.53125,6.33333c0,3.4978 -2.92414,6.33333 -6.53125,6.33333c-3.60711,0 -6.53125,-2.83553 -6.53125,-6.33333z" fill="#000000" stroke="none" stroke-width="0.5"/></g></g></g></svg>