<svg version="1.1" xmlns="http://www.w3.org/2000/svg" xmlns:xlink="http://www.w3.org/1999/xlink" width="552.01316" height="34.56726" viewBox="0,0,552.01316,34.56726"><g transform="translate(31.95474,-162.32928)"><g data-paper-data="{&quot;isPaintingLayer&quot;:true}" fill-rule="nonzero" stroke-linecap="butt" stroke-linejoin="miter" stroke-miterlimit="10" stroke-dasharray="" stroke-dashoffset="0" style="mix-blend-mode: normal"><path d="M-26.70474,189.67316v-14.47432c0,0 15.34045,-0.47191 20.68107,0.01959c10.71836,0.9864 65.81893,1.03162 65.81893,1.03162c0,0 -12.49885,-1.6155 -20.20806,-2.41906c-7.65597,-0.79801 -25.88863,-2.38576 -25.88863,-2.38576c0,0 24.90753,1.24069 54.33607,1.47394c18.22214,0.14443 31.56109,-1.14989 49.65177,-1.00651c13.45869,0.10667 31.6352,2.44872 53.04491,2.46545c16.9158,0.01321 24.61867,0.50112 36.86017,0.5754c6.65312,0.04037 -10.06667,-1.00833 -19.94663,-1.4354c-9.87996,-0.42707 -17.93298,-0.1918 -29.75021,-0.7128c-11.20288,-0.49392 -19.09587,-2.03948 -19.09587,-2.03948c0,0 26.50864,1.15583 57.53691,1.5455c22.58703,0.28366 41.60793,2.07835 54.38124,2.22469c13.17232,0.15091 37.23386,-1.01811 61.81809,-0.92355c14.29634,0.05499 78.81874,1.16204 78.81874,1.16204c0,0 -27.50248,-1.77612 -38.40597,-3.0428c-8.12192,-0.94355 -15.65253,-2.19319 -15.65253,-2.19319c0,0 16.74203,1.6663 45.9979,2.34501c21.06721,0.48873 58.66991,3.43074 58.66991,3.43074c0,0 -9.37239,-2.0916 -11.15544,-3.49156c-0.88466,-0.69458 -0.42758,-1.63224 0.25761,-2.4008c0.69585,-0.78051 1.62696,-1.38662 1.62696,-1.38662c0,0 9.52702,2.72557 15.75068,3.89326c5.08977,0.95495 26.87838,3.08905 26.87838,3.08905c0,0 -7.30333,-1.51316 -10.37787,-3.0772c-3.44509,-1.75254 -6.60291,-3.56895 -4.50413,-3.39197c7.48858,0.63149 46.26549,7.46713 46.26549,7.46713l-19.40947,13.65764c0,0 -21.37131,0.2119 -29.8492,0.16547c-6.68298,-0.03659 -16.92658,-0.42161 -16.92658,-0.42161c0,0 -2.14146,0.35302 -3.434,0.75277c-1.26333,0.39071 -1.67099,0.82605 -2.29826,1.02005c-0.63095,0.19513 -1.41699,0.43823 -1.41699,0.43823c0,0 -5.72811,-0.13291 -13.85013,-1.19372c-5.19804,-0.67891 -8.31495,-1.85634 -8.31495,-1.85634c0,0 -57.19574,2.37803 -76.6994,2.16315c-12.2565,-0.13504 21.11779,-3.58762 11.20986,-3.51737c-24.39268,0.17294 -98.06367,3.04721 -129.48621,4.14832c-9.10534,0.31907 -10.03475,-0.06806 -4.7605,-0.34526c11.61129,-0.61026 30.79223,-1.6579 34.59661,-2.11105c4.06858,-0.48462 3.59093,-0.93807 3.59093,-0.93807c0,0 -38.07378,0.44885 -54.37043,0.85021c-19.99309,0.49241 -65.78155,2.04908 -65.78155,2.04908c0,0 4.06864,-0.76899 5.58263,-1.0686c1.48737,-0.29434 3.42286,-0.71353 3.42286,-0.71353l-23.90463,1.07931c0,0 14.18612,-1.15756 19.36398,-1.64942c4.19033,-0.39804 9.37221,-1.08025 9.37221,-1.08025c0,0 -95.94398,3.85108 -111.65328,4.46369c-5.43659,0.21201 -9.61684,-0.22242 -5.78569,-0.47715c5.028,-0.3343 12.5895,-0.82261 20.67427,-1.29331c8.73904,-0.5088 27.33676,-1.10832 32.33077,-1.45747c10.5644,-0.73861 13.59243,-1.91816 13.59243,-1.91816c0,0 -26.00621,0.57758 -38.50428,1.00457c-13.1948,0.4508 -38.68776,1.63267 -38.68776,1.63267l4.54407,-2.66814z" fill="#cb2411" stroke="#000000" stroke-width="10.5"/><path d="M-26.70474,189.67316v-14.47432c0,0 15.34045,-0.47191 20.68107,0.01959c10.71836,0.9864 65.81893,1.03162 65.81893,1.03162c0,0 -12.49885,-1.6155 -20.20806,-2.41906c-7.65597,-0.79801 -25.88863,-2.38576 -25.88863,-2.38576c0,0 24.90753,1.24069 54.33607,1.47394c18.22214,0.14443 31.56109,-1.14989 49.65177,-1.00651c13.45869,0.10667 31.6352,2.44872 53.04491,2.46545c16.9158,0.01321 24.61867,0.50112 36.86017,0.5754c6.65312,0.04037 -10.06667,-1.00833 -19.94663,-1.4354c-9.87996,-0.42707 -17.93298,-0.1918 -29.75021,-0.7128c-11.20288,-0.49392 -19.09587,-2.03948 -19.09587,-2.03948c0,0 26.50864,1.15583 57.53691,1.5455c22.58703,0.28366 41.60793,2.07835 54.38124,2.22469c13.17232,0.15091 37.23386,-1.01811 61.81809,-0.92355c14.29634,0.05499 78.81874,1.16204 78.81874,1.16204c0,0 -27.50248,-1.77612 -38.40597,-3.0428c-8.12192,-0.94355 -15.65253,-2.19319 -15.65253,-2.19319c0,0 16.74203,1.6663 45.9979,2.34501c21.06721,0.48873 58.66991,3.43074 58.66991,3.43074c0,0 -9.37239,-2.0916 -11.15544,-3.49156c-0.88466,-0.69458 -0.42758,-1.63224 0.25761,-2.4008c0.69585,-0.78051 1.62696,-1.38662 1.62696,-1.38662c0,0 9.52702,2.72557 15.75068,3.89326c5.08977,0.95495 26.87838,3.08905 26.87838,3.08905c0,0 -7.30333,-1.51316 -10.37787,-3.0772c-3.44509,-1.75254 -6.60291,-3.56895 -4.50413,-3.39197c7.48858,0.63149 46.26549,7.46713 46.26549,7.46713l-19.40947,13.65764c0,0 -21.37131,0.2119 -29.8492,0.16547c-6.68298,-0.03659 -16.92658,-0.42161 -16.92658,-0.42161c0,0 -2.14146,0.35302 -3.434,0.75277c-1.26333,0.39071 -1.67099,0.82605 -2.29826,1.02005c-0.63095,0.19513 -1.41699,0.43823 -1.41699,0.43823c0,0 -5.72811,-0.13291 -13.85013,-1.19372c-5.19804,-0.67891 -8.31495,-1.85634 -8.31495,-1.85634c0,0 -57.19574,2.37803 -76.6994,2.16315c-12.2565,-0.13504 21.11779,-3.58762 11.20986,-3.51737c-24.39268,0.17294 -98.06367,3.04721 -129.48621,4.14832c-9.10534,0.31907 -10.03475,-0.06806 -4.7605,-0.34526c11.61129,-0.61026 30.79223,-1.6579 34.59661,-2.11105c4.06858,-0.48462 3.59093,-0.93807 3.59093,-0.93807c0,0 -38.07378,0.44885 -54.37043,0.85021c-19.99309,0.49241 -65.78155,2.04908 -65.78155,2.04908c0,0 4.06864,-0.76899 5.58263,-1.0686c1.48737,-0.29434 3.42286,-0.71353 3.42286,-0.71353l-23.90463,1.07931c0,0 14.18612,-1.15756 19.36398,-1.64942c4.19033,-0.39804 9.37221,-1.08025 9.37221,-1.08025c0,0 -95.94398,3.85108 -111.65328,4.46369c-5.43659,0.21201 -9.61684,-0.22242 -5.78569,-0.47715c5.028,-0.3343 12.5895,-0.82261 20.67427,-1.29331c8.73904,-0.5088 27.33676,-1.10832 32.33077,-1.45747c10.5644,-0.73861 13.59243,-1.91816 13.59243,-1.91816c0,0 -26.00621,0.57758 -38.50428,1.00457c-13.1948,0.4508 -38.68776,1.63267 -38.68776,1.63267l4.54407,-2.66814z" fill="#cb2411" stroke="#95392c" stroke-width="4.5"/><path d="M-26.70475,189.67316v-14.47432c0,0 15.34045,-0.47191 20.68107,0.01959c10.71836,0.9864 65.81893,1.03162 65.81893,1.03162c0,0 -12.49885,-1.6155 -20.20806,-2.41906c-7.65597,-0.79801 -25.88863,-2.38576 -25.88863,-2.38576c0,0 24.90753,1.24069 54.33607,1.47394c18.22214,0.14443 31.56109,-1.14989 49.65177,-1.00651c13.45869,0.10667 31.6352,2.44872 53.04491,2.46545c16.9158,0.01321 24.61867,0.50112 36.86017,0.5754c6.65312,0.04037 -10.06667,-1.00833 -19.94663,-1.4354c-9.87996,-0.42707 -17.93298,-0.1918 -29.75021,-0.7128c-11.20288,-0.49392 -19.09587,-2.03948 -19.09587,-2.03948c0,0 26.50864,1.15583 57.53691,1.5455c22.58703,0.28366 41.60793,2.07835 54.38124,2.22469c13.17232,0.15091 37.23386,-1.01811 61.81809,-0.92355c14.29634,0.05499 78.81874,1.16204 78.81874,1.16204c0,0 -27.50248,-1.77612 -38.40597,-3.0428c-8.12192,-0.94355 -15.65253,-2.19319 -15.65253,-2.19319c0,0 16.74203,1.6663 45.9979,2.34501c21.06721,0.48873 58.66991,3.43074 58.66991,3.43074c0,0 -9.37239,-2.0916 -11.15544,-3.49156c-0.88466,-0.69458 -0.42758,-1.63224 0.25761,-2.4008c0.69585,-0.78051 1.62696,-1.38662 1.62696,-1.38662c0,0 9.52702,2.72557 15.75068,3.89326c5.08977,0.95495 26.87838,3.08905 26.87838,3.08905c0,0 -7.30333,-1.51316 -10.37787,-3.0772c-3.44509,-1.75254 -6.60291,-3.56895 -4.50413,-3.39197c7.48858,0.63149 46.26549,7.46713 46.26549,7.46713l-19.40947,13.65764c0,0 -21.37131,0.2119 -29.84921,0.16547c-6.68298,-0.03659 -16.92658,-0.42161 -16.92658,-0.42161c0,0 -2.14146,0.35302 -3.434,0.75277c-1.26333,0.39071 -1.67099,0.82605 -2.29826,1.02005c-0.63096,0.19513 -1.41699,0.43823 -1.41699,0.43823c0,0 -5.7281,-0.13291 -13.85013,-1.19372c-5.19803,-0.67891 -8.31495,-1.85634 -8.31495,-1.85634c0,0 -57.19574,2.37803 -76.6994,2.16315c-12.2565,-0.13504 21.11779,-3.58762 11.20986,-3.51737c-24.39268,0.17294 -98.06367,3.04721 -129.48621,4.14832c-9.10534,0.31907 -10.03475,-0.06806 -4.7605,-0.34526c11.61129,-0.61026 30.79223,-1.6579 34.59661,-2.11105c4.06858,-0.48462 3.59093,-0.93807 3.59093,-0.93807c0,0 -38.07378,0.44885 -54.37043,0.85021c-19.99309,0.49241 -65.78155,2.04908 -65.78155,2.04908c0,0 4.06864,-0.76899 5.58263,-1.0686c1.48737,-0.29434 3.42286,-0.71353 3.42286,-0.71353l-23.90463,1.07931c0,0 14.18612,-1.15756 19.36398,-1.64942c4.19033,-0.39804 9.37221,-1.08025 9.37221,-1.08025c0,0 -95.94398,3.85108 -111.65328,4.46369c-5.43659,0.21201 -9.61684,-0.22242 -5.78569,-0.47715c5.028,-0.3343 12.5895,-0.82261 20.67427,-1.29331c8.73904,-0.50879 27.33676,-1.10832 32.33077,-1.45747c10.5644,-0.73861 13.59243,-1.91816 13.59243,-1.91816c0,0 -26.00621,0.57758 -38.50428,1.00457c-13.1948,0.4508 -38.68776,1.63267 -38.68776,1.63267l4.54407,-2.66814z" fill="#cb2411" stroke="none" stroke-width="0"/><path d="M-7.00301,186.17762l-0.40333,-6.83088c0,0 -1.86293,-0.66317 1.50403,-0.74074c7.77421,-0.1791 24.26201,-0.03477 39.50757,-0.16875c14.35276,-0.12613 27.55392,-0.53546 32.92945,-0.5508c6.77068,-0.01931 15.16608,0.06809 15.16608,0.06809c0,0 -0.82326,-0.37541 -1.77843,-0.57118c-1.04357,-0.21389 -4.24131,-0.66261 -4.24131,-0.66261c0,0 6.27875,-0.01104 9.09455,0.02068c2.38535,0.02687 8.82805,0.2646 8.82805,0.2646l-6.22257,-1.27685c0,0 53.80655,2.40659 76.35854,2.35331c1.22083,-0.00288 -8.91545,-0.33031 -17.14674,-0.8119c-3.28999,-0.19249 -8.87212,-0.51208 -10.97274,-0.72762c-2.59415,-0.26617 -1.2068,-0.40577 0.45019,-0.33632c0.82778,0.0347 28.65692,1.66071 55.7635,2.42006c11.30377,0.31666 22.46764,0.18479 31.02295,0.16954c13.06507,-0.02328 20.94255,0.53297 29.83742,0.43792c1.32849,-0.0142 -6.16488,-0.327 -16.24772,-0.60157c-6.88492,-0.18749 -15.43126,-0.30814 -21.41167,-0.4968c-2.60374,-0.08213 -4.77755,-0.18467 -6.42755,-0.27633c-2.30926,-0.12829 -5.12051,-0.22382 -3.0871,-0.24573c3.11291,-0.03355 28.78016,-0.11498 43.10977,-0.26943c14.34514,-0.15462 73.49555,1.03586 93.54084,1.14317c17.81517,0.09537 43.10948,0.07689 43.10948,0.07689c0,0 -42.35495,-1.03662 -37.53513,-1.26686c0.6174,-0.02949 4.05406,-0.0609 2.70103,-0.23566c-2.18335,-0.282 -8.51674,-0.41031 -13.47172,-0.83072c-3.63552,-0.30846 -6.97543,-0.68418 -9.41764,-0.9844c-2.47852,-0.30469 -1.80347,-0.52963 1.01641,-0.52708c4.60881,0.00416 62.43065,3.62645 97.46675,3.15796c10.38517,-0.13887 -12.85804,-1.42564 -12.85804,-1.42564c0,0 28.54477,0.69059 41.68301,0.81162c11.57637,0.10664 33.05542,-0.12313 33.05542,-0.12313l-0.00877,7.42283c0,0 -36.36998,0.53974 -49.59457,0.89016c-19.06824,0.50525 -64.84345,2.01236 -64.84345,2.01236c0,0 8.74033,-1.13327 16.33316,-1.71227c7.59283,-0.57901 20.63112,-1.10652 20.63112,-1.10652c0,0 -29.71824,0.35191 -45.58323,0.58294c-17.32999,0.25237 -54.39038,0.87292 -54.39038,0.87292c0,0 2.46946,-0.50043 3.38084,-0.73201c0.82307,-0.20914 1.84958,-0.59702 1.84958,-0.59702c0,0 -40.76027,0.38051 -75.20017,1.00472c-33.78352,0.61231 -76.18328,1.3874 -83.86204,1.41473c-6.82569,0.02429 0.7142,-1.33093 0.7142,-1.33093l-30.89624,0.85883c0,0 3.34565,-0.5756 3.96167,-0.8391c0.54858,-0.23465 -0.44435,-0.66542 -0.44435,-0.66542c0,0 -44.09228,-0.03516 -72.15842,0.16174c-28.06613,0.1969 -64.81229,0.79919 -64.81229,0.79919z" data-paper-data="{&quot;index&quot;:null}" fill="#eec0b1" stroke="none" stroke-width="0"/></g></g></svg>