<svg version="1.1" xmlns="http://www.w3.org/2000/svg" xmlns:xlink="http://www.w3.org/1999/xlink" width="274.83153" height="54.46522" viewBox="0,0,274.83153,54.46522"><g transform="translate(-102.5817,-152.76739)"><g data-paper-data="{&quot;isPaintingLayer&quot;:true}" fill="#ffffff" fill-rule="nonzero" stroke="#000000" stroke-width="4" stroke-linecap="square" stroke-linejoin="miter" stroke-miterlimit="10" stroke-dasharray="" stroke-dashoffset="0" style="mix-blend-mode: normal"><path d="M126.26599,159.57242c0,0.93637 -0.30391,1.75774 -0.91173,2.46412c-0.59139,0.68995 -1.29777,1.26492 -2.11915,1.72489c-0.73924,0.44354 -1.50311,0.92815 -2.29163,1.45383c-0.77209,0.50925 -1.48669,1.08421 -2.14379,1.72489c-0.6571,0.62425 -1.191,1.33063 -1.60168,2.11915c-0.41068,0.77209 -0.61603,1.65096 -0.61603,2.63661c0,0.87066 0.20535,1.65918 0.61603,2.36556c0.41068,0.68995 0.91173,1.37169 1.50311,2.04522c0.60781,0.67353 1.26492,1.37169 1.9713,2.0945c0.72281,0.72281 1.37991,1.52776 1.9713,2.41484c0.60781,0.87066 1.11707,1.86452 1.52776,2.98159c0.41068,1.10064 0.61603,2.3902 0.61603,3.86867c0,1.03493 -0.22177,2.20129 -0.66531,3.49905c-0.42712,1.28134 -1.01029,2.57911 -1.74953,3.89331c-0.73924,1.3142 -1.6099,2.58733 -2.61197,3.81939c-1.00207,1.23206 -2.06986,2.3327 -3.20336,3.30192c-1.1335,0.96922 -2.31627,1.74953 -3.54834,2.34092c-1.23206,0.60781 -2.42306,0.91173 -3.57298,0.91173c-1.26492,0 -2.3902,-0.35319 -3.37585,-1.05957c-0.98565,-0.68995 -1.47847,-1.74131 -1.47847,-3.15408c0,-0.93637 0.22177,-1.80703 0.66531,-2.61197c0.45997,-0.80494 1.01851,-1.57704 1.6756,-2.31627c0.6571,-0.73924 1.37991,-1.45383 2.16843,-2.14379c0.80494,-0.70638 1.53597,-1.40455 2.19307,-2.0945c0.6571,-0.70638 1.20742,-1.43741 1.65096,-2.19307c0.45997,-0.75566 0.68995,-1.56882 0.68995,-2.43948c0,-1.18278 -0.4189,-2.39841 -1.2567,-3.6469c-0.8378,-1.26492 -1.77417,-2.56269 -2.8091,-3.89331c-1.01851,-1.33063 -1.95487,-2.69411 -2.8091,-4.09044c-0.8378,-1.39633 -1.2567,-2.81732 -1.2567,-4.26293c0,-1.75774 0.46818,-3.61404 1.40455,-5.56892c0.95279,-1.95487 2.16843,-3.73725 3.6469,-5.34715c1.47847,-1.62632 3.13765,-2.97337 4.97753,-4.04116c1.85631,-1.06779 3.68797,-1.60168 5.49499,-1.60168c1.44562,0 2.67768,0.43533 3.69618,1.30598c1.03493,0.85423 1.5524,2.02058 1.5524,3.49905zM157.97925,167.58082c0,3.40049 -0.08214,6.8174 -0.24641,10.25075c-0.16427,3.43335 -0.36962,6.85026 -0.61603,10.25075c-0.03286,0.62425 -0.07392,1.46205 -0.12321,2.5134c-0.03286,1.03493 -0.11499,2.16021 -0.24641,3.37585c-0.11499,1.21564 -0.27927,2.43948 -0.49282,3.67154c-0.19713,1.23206 -0.51747,2.34913 -0.96101,3.35121c-0.42712,1.00207 -0.97743,1.82345 -1.65096,2.46412c-0.67353,0.64067 -1.50311,0.96101 -2.48876,0.96101c-0.87066,0 -1.64275,-0.18891 -2.31627,-0.56675c-0.67353,-0.3614 -1.24028,-0.8378 -1.70024,-1.42919c-0.44354,-0.60781 -0.78852,-1.28956 -1.03493,-2.04522c-0.24641,-0.75566 -0.36962,-1.54418 -0.36962,-2.36556c0,-1.36348 0.04107,-2.72696 0.12321,-4.09044c0.08214,-1.37991 0.20535,-2.7516 0.36962,-4.11508l-6.11102,0.61603c-0.11499,1.06779 -0.24641,2.35734 -0.39426,3.86867c-0.14785,1.4949 -0.43533,2.93231 -0.86244,4.31221c-0.42712,1.36348 -1.076,2.54626 -1.94666,3.54834c-0.85423,0.98565 -2.04522,1.47847 -3.57298,1.47847c-0.93637,0 -1.71667,-0.22177 -2.34092,-0.66531c-0.60781,-0.42712 -1.10064,-0.97743 -1.47847,-1.65096c-0.3614,-0.68995 -0.62425,-1.44562 -0.78852,-2.26699c-0.16427,-0.82138 -0.24641,-1.60168 -0.24641,-2.34092c0,-2.46412 0.09856,-4.91182 0.29569,-7.34308c0.21355,-2.4477 0.3614,-4.9036 0.44354,-7.36773c0.08214,-2.59554 0.10678,-5.19108 0.07392,-7.78663c-0.01642,-2.61197 0.01642,-5.23216 0.09856,-7.86055c0.04928,-0.87066 0.08214,-1.88095 0.09856,-3.03087c0.01642,-1.14992 0.15606,-2.22593 0.4189,-3.228c0.27927,-1.00207 0.73102,-1.84809 1.35527,-2.53805c0.64067,-0.70638 1.60168,-1.05957 2.88302,-1.05957c1.75774,0 3.08837,0.45997 3.99188,1.37991c0.90351,0.91994 1.53597,2.06986 1.89737,3.44977c0.37783,1.37991 0.56675,2.84196 0.56675,4.38614c0,1.52776 0,2.90766 0,4.13973c0,1.64275 -0.04107,3.26086 -0.12321,4.85432c-0.08214,1.57704 -0.16427,3.16229 -0.24641,4.75576l6.60385,-0.98565c0.03286,-2.00416 0.06571,-3.99188 0.09856,-5.96318c0.04928,-1.9713 0.13963,-3.9426 0.27105,-5.91389c0.03286,-0.95279 0.06571,-1.96308 0.09856,-3.03087c0.04928,-1.06779 0.21355,-2.05344 0.49282,-2.95695c0.29569,-0.90351 0.7803,-1.65096 1.45383,-2.24235c0.68995,-0.59139 1.70846,-0.88708 3.05551,-0.88708c1.14992,0 2.08629,0.32855 2.8091,0.98565c0.72281,0.6571 1.29777,1.46205 1.72489,2.41484c0.42712,0.93637 0.72281,1.93844 0.88708,3.00623c0.16427,1.06779 0.24641,2.0288 0.24641,2.88302zM191.61452,167.58082c0,3.40049 -0.08214,6.8174 -0.24641,10.25075c-0.16427,3.43335 -0.36962,6.85026 -0.61603,10.25075c-0.03286,0.62425 -0.07392,1.46205 -0.12321,2.5134c-0.03286,1.03493 -0.11499,2.16021 -0.24641,3.37585c-0.11499,1.21564 -0.27927,2.43948 -0.49282,3.67154c-0.19713,1.23206 -0.51747,2.34913 -0.96101,3.35121c-0.42712,1.00207 -0.97743,1.82345 -1.65096,2.46412c-0.67353,0.64067 -1.50311,0.96101 -2.48876,0.96101c-0.87066,0 -1.64275,-0.18891 -2.31627,-0.56675c-0.67353,-0.3614 -1.24028,-0.8378 -1.70024,-1.42919c-0.44354,-0.60781 -0.78852,-1.28956 -1.03493,-2.04522c-0.24641,-0.75566 -0.36962,-1.54418 -0.36962,-2.36556c0,-1.36348 0.04107,-2.72696 0.12321,-4.09044c0.08214,-1.37991 0.20535,-2.7516 0.36962,-4.11508l-6.11102,0.61603c-0.11499,1.06779 -0.24641,2.35734 -0.39426,3.86867c-0.14785,1.4949 -0.43533,2.93231 -0.86244,4.31221c-0.42712,1.36348 -1.076,2.54626 -1.94666,3.54834c-0.85423,0.98565 -2.04522,1.47847 -3.57298,1.47847c-0.93637,0 -1.71667,-0.22177 -2.34092,-0.66531c-0.60781,-0.42712 -1.10064,-0.97743 -1.47847,-1.65096c-0.3614,-0.68995 -0.62425,-1.44562 -0.78852,-2.26699c-0.16427,-0.82138 -0.24641,-1.60168 -0.24641,-2.34092c0,-2.46412 0.09856,-4.91182 0.29569,-7.34308c0.21355,-2.4477 0.3614,-4.9036 0.44354,-7.36773c0.08214,-2.59554 0.10678,-5.19108 0.07392,-7.78663c-0.01642,-2.61197 0.01642,-5.23216 0.09856,-7.86055c0.04928,-0.87066 0.08214,-1.88095 0.09856,-3.03087c0.01642,-1.14992 0.15606,-2.22593 0.4189,-3.228c0.27927,-1.00207 0.73102,-1.84809 1.35527,-2.53805c0.64067,-0.70638 1.60168,-1.05957 2.88302,-1.05957c1.75774,0 3.08837,0.45997 3.99188,1.37991c0.90351,0.91994 1.53597,2.06986 1.89737,3.44977c0.37783,1.37991 0.56675,2.84196 0.56675,4.38614c0,1.52776 0,2.90766 0,4.13973c0,1.64275 -0.04107,3.26086 -0.12321,4.85432c-0.08214,1.57704 -0.16427,3.16229 -0.24641,4.75576l6.60385,-0.98565c0.03286,-2.00416 0.06571,-3.99188 0.09856,-5.96318c0.04928,-1.9713 0.13963,-3.9426 0.27105,-5.91389c0.03286,-0.95279 0.06571,-1.96308 0.09856,-3.03087c0.04928,-1.06779 0.21355,-2.05344 0.49282,-2.95695c0.29569,-0.90351 0.7803,-1.65096 1.45383,-2.24235c0.68995,-0.59139 1.70846,-0.88708 3.05551,-0.88708c1.14992,0 2.08629,0.32855 2.8091,0.98565c0.72281,0.6571 1.29777,1.46205 1.72489,2.41484c0.42712,0.93637 0.72281,1.93844 0.88708,3.00623c0.16427,1.06779 0.24641,2.0288 0.24641,2.88302zM225.24979,167.58082c0,3.40049 -0.08214,6.8174 -0.24641,10.25075c-0.16427,3.43335 -0.36962,6.85026 -0.61603,10.25075c-0.03286,0.62425 -0.07392,1.46205 -0.12321,2.5134c-0.03286,1.03493 -0.11499,2.16021 -0.24641,3.37585c-0.11499,1.21564 -0.27927,2.43948 -0.49282,3.67154c-0.19713,1.23206 -0.51747,2.34913 -0.96101,3.35121c-0.42712,1.00207 -0.97743,1.82345 -1.65096,2.46412c-0.67353,0.64067 -1.50311,0.96101 -2.48876,0.96101c-0.87066,0 -1.64275,-0.18891 -2.31627,-0.56675c-0.67353,-0.3614 -1.24028,-0.8378 -1.70024,-1.42919c-0.44354,-0.60781 -0.78852,-1.28956 -1.03493,-2.04522c-0.24641,-0.75566 -0.36962,-1.54418 -0.36962,-2.36556c0,-1.36348 0.04107,-2.72696 0.12321,-4.09044c0.08214,-1.37991 0.20535,-2.7516 0.36962,-4.11508l-6.11102,0.61603c-0.11499,1.06779 -0.24641,2.35734 -0.39426,3.86867c-0.14785,1.4949 -0.43533,2.93231 -0.86244,4.31221c-0.42712,1.36348 -1.076,2.54626 -1.94666,3.54834c-0.85423,0.98565 -2.04522,1.47847 -3.57298,1.47847c-0.93637,0 -1.71667,-0.22177 -2.34092,-0.66531c-0.60781,-0.42712 -1.10064,-0.97743 -1.47847,-1.65096c-0.3614,-0.68995 -0.62425,-1.44562 -0.78852,-2.26699c-0.16427,-0.82138 -0.24641,-1.60168 -0.24641,-2.34092c0,-2.46412 0.09856,-4.91182 0.29569,-7.34308c0.21355,-2.4477 0.3614,-4.9036 0.44354,-7.36773c0.08214,-2.59554 0.10678,-5.19108 0.07392,-7.78663c-0.01642,-2.61197 0.01642,-5.23216 0.09856,-7.86055c0.04928,-0.87066 0.08214,-1.88095 0.09856,-3.03087c0.01642,-1.14992 0.15606,-2.22593 0.4189,-3.228c0.27927,-1.00207 0.73102,-1.84809 1.35527,-2.53805c0.64067,-0.70638 1.60168,-1.05957 2.88302,-1.05957c1.75774,0 3.08837,0.45997 3.99188,1.37991c0.90351,0.91994 1.53597,2.06986 1.89737,3.44977c0.37783,1.37991 0.56675,2.84196 0.56675,4.38614c0,1.52776 0,2.90766 0,4.13973c0,1.64275 -0.04107,3.26086 -0.12321,4.85432c-0.08214,1.57704 -0.16427,3.16229 -0.24641,4.75576l6.60385,-0.98565c0.03286,-2.00416 0.06571,-3.99188 0.09856,-5.96318c0.04928,-1.9713 0.13963,-3.9426 0.27105,-5.91389c0.03286,-0.95279 0.06571,-1.96308 0.09856,-3.03087c0.04928,-1.06779 0.21355,-2.05344 0.49282,-2.95695c0.29569,-0.90351 0.7803,-1.65096 1.45383,-2.24235c0.68995,-0.59139 1.70846,-0.88708 3.05551,-0.88708c1.14992,0 2.08629,0.32855 2.8091,0.98565c0.72281,0.6571 1.29777,1.46205 1.72489,2.41484c0.42712,0.93637 0.72281,1.93844 0.88708,3.00623c0.16427,1.06779 0.24641,2.0288 0.24641,2.88302zM258.88504,167.58082c0,3.40049 -0.08214,6.8174 -0.24641,10.25075c-0.16427,3.43335 -0.36962,6.85026 -0.61603,10.25075c-0.03286,0.62425 -0.07392,1.46205 -0.12321,2.5134c-0.03286,1.03493 -0.11499,2.16021 -0.24641,3.37585c-0.11499,1.21564 -0.27927,2.43948 -0.49282,3.67154c-0.19713,1.23206 -0.51747,2.34913 -0.96101,3.35121c-0.42712,1.00207 -0.97743,1.82345 -1.65096,2.46412c-0.67353,0.64067 -1.50311,0.96101 -2.48876,0.96101c-0.87066,0 -1.64275,-0.18891 -2.31627,-0.56675c-0.67353,-0.3614 -1.24028,-0.8378 -1.70024,-1.42919c-0.44354,-0.60781 -0.78852,-1.28956 -1.03493,-2.04522c-0.24641,-0.75566 -0.36962,-1.54418 -0.36962,-2.36556c0,-1.36348 0.04107,-2.72696 0.12321,-4.09044c0.08214,-1.37991 0.20535,-2.7516 0.36962,-4.11508l-6.11102,0.61603c-0.11499,1.06779 -0.24641,2.35734 -0.39426,3.86867c-0.14785,1.4949 -0.43533,2.93231 -0.86244,4.31221c-0.42712,1.36348 -1.076,2.54626 -1.94666,3.54834c-0.85423,0.98565 -2.04522,1.47847 -3.57298,1.47847c-0.93637,0 -1.71667,-0.22177 -2.34092,-0.66531c-0.60781,-0.42712 -1.10064,-0.97743 -1.47847,-1.65096c-0.3614,-0.68995 -0.62425,-1.44562 -0.78852,-2.26699c-0.16427,-0.82138 -0.24641,-1.60168 -0.24641,-2.34092c0,-2.46412 0.09856,-4.91182 0.29569,-7.34308c0.21355,-2.4477 0.3614,-4.9036 0.44354,-7.36773c0.08214,-2.59554 0.10678,-5.19108 0.07392,-7.78663c-0.01642,-2.61197 0.01642,-5.23216 0.09856,-7.86055c0.04928,-0.87066 0.08214,-1.88095 0.09856,-3.03087c0.01642,-1.14992 0.15606,-2.22593 0.4189,-3.228c0.27927,-1.00207 0.73102,-1.84809 1.35527,-2.53805c0.64067,-0.70638 1.60168,-1.05957 2.88302,-1.05957c1.75774,0 3.08837,0.45997 3.99188,1.37991c0.90351,0.91994 1.53597,2.06986 1.89737,3.44977c0.37783,1.37991 0.56675,2.84196 0.56675,4.38614c0,1.52776 0,2.90766 0,4.13973c0,1.64275 -0.04107,3.26086 -0.12321,4.85432c-0.08214,1.57704 -0.16427,3.16229 -0.24641,4.75576l6.60385,-0.98565c0.03286,-2.00416 0.06571,-3.99188 0.09856,-5.96318c0.04928,-1.9713 0.13963,-3.9426 0.27105,-5.91389c0.03286,-0.95279 0.06571,-1.96308 0.09856,-3.03087c0.04928,-1.06779 0.21355,-2.05344 0.49282,-2.95695c0.29569,-0.90351 0.7803,-1.65096 1.45383,-2.24235c0.68995,-0.59139 1.70846,-0.88708 3.05551,-0.88708c1.14992,0 2.08629,0.32855 2.8091,0.98565c0.72281,0.6571 1.29777,1.46205 1.72489,2.41484c0.42712,0.93637 0.72281,1.93844 0.88708,3.00623c0.16427,1.06779 0.24641,2.0288 0.24641,2.88302zM292.52031,167.58082c0,3.40049 -0.08214,6.8174 -0.24641,10.25075c-0.16427,3.43335 -0.36962,6.85026 -0.61603,10.25075c-0.03286,0.62425 -0.07392,1.46205 -0.12321,2.5134c-0.03286,1.03493 -0.11499,2.16021 -0.24641,3.37585c-0.11499,1.21564 -0.27927,2.43948 -0.49282,3.67154c-0.19713,1.23206 -0.51747,2.34913 -0.96101,3.35121c-0.42712,1.00207 -0.97743,1.82345 -1.65096,2.46412c-0.67353,0.64067 -1.50311,0.96101 -2.48876,0.96101c-0.87066,0 -1.64275,-0.18891 -2.31627,-0.56675c-0.67353,-0.3614 -1.24028,-0.8378 -1.70024,-1.42919c-0.44354,-0.60781 -0.78852,-1.28956 -1.03493,-2.04522c-0.24641,-0.75566 -0.36962,-1.54418 -0.36962,-2.36556c0,-1.36348 0.04107,-2.72696 0.12321,-4.09044c0.08214,-1.37991 0.20535,-2.7516 0.36962,-4.11508l-6.11102,0.61603c-0.11499,1.06779 -0.24641,2.35734 -0.39426,3.86867c-0.14785,1.4949 -0.43533,2.93231 -0.86244,4.31221c-0.42712,1.36348 -1.076,2.54626 -1.94666,3.54834c-0.85423,0.98565 -2.04522,1.47847 -3.57298,1.47847c-0.93637,0 -1.71667,-0.22177 -2.34092,-0.66531c-0.60781,-0.42712 -1.10064,-0.97743 -1.47847,-1.65096c-0.3614,-0.68995 -0.62425,-1.44562 -0.78852,-2.26699c-0.16427,-0.82138 -0.24641,-1.60168 -0.24641,-2.34092c0,-2.46412 0.09856,-4.91182 0.29569,-7.34308c0.21355,-2.4477 0.3614,-4.9036 0.44354,-7.36773c0.08214,-2.59554 0.10678,-5.19108 0.07392,-7.78663c-0.01642,-2.61197 0.01642,-5.23216 0.09856,-7.86055c0.04928,-0.87066 0.08214,-1.88095 0.09856,-3.03087c0.01642,-1.14992 0.15606,-2.22593 0.4189,-3.228c0.27927,-1.00207 0.73102,-1.84809 1.35527,-2.53805c0.64067,-0.70638 1.60168,-1.05957 2.88302,-1.05957c1.75774,0 3.08837,0.45997 3.99188,1.37991c0.90351,0.91994 1.53597,2.06986 1.89737,3.44977c0.37783,1.37991 0.56675,2.84196 0.56675,4.38614c0,1.52776 0,2.90766 0,4.13973c0,1.64275 -0.04107,3.26086 -0.12321,4.85432c-0.08214,1.57704 -0.16427,3.16229 -0.24641,4.75576l6.60385,-0.98565c0.03286,-2.00416 0.06571,-3.99188 0.09856,-5.96318c0.04928,-1.9713 0.13963,-3.9426 0.27105,-5.91389c0.03286,-0.95279 0.06571,-1.96308 0.09856,-3.03087c0.04928,-1.06779 0.21355,-2.05344 0.49282,-2.95695c0.29569,-0.90351 0.7803,-1.65096 1.45383,-2.24235c0.68995,-0.59139 1.70846,-0.88708 3.05551,-0.88708c1.14992,0 2.08629,0.32855 2.8091,0.98565c0.72281,0.6571 1.29777,1.46205 1.72489,2.41484c0.42712,0.93637 0.72281,1.93844 0.88708,3.00623c0.16427,1.06779 0.24641,2.0288 0.24641,2.88302zM326.15558,167.58082c0,3.40049 -0.08214,6.8174 -0.24641,10.25075c-0.16427,3.43335 -0.36962,6.85026 -0.61603,10.25075c-0.03286,0.62425 -0.07392,1.46205 -0.12321,2.5134c-0.03286,1.03493 -0.11499,2.16021 -0.24641,3.37585c-0.11499,1.21564 -0.27927,2.43948 -0.49282,3.67154c-0.19713,1.23206 -0.51747,2.34913 -0.96101,3.35121c-0.42712,1.00207 -0.97743,1.82345 -1.65096,2.46412c-0.67353,0.64067 -1.50311,0.96101 -2.48876,0.96101c-0.87066,0 -1.64275,-0.18891 -2.31627,-0.56675c-0.67353,-0.3614 -1.24028,-0.8378 -1.70024,-1.42919c-0.44354,-0.60781 -0.78852,-1.28956 -1.03493,-2.04522c-0.24641,-0.75566 -0.36962,-1.54418 -0.36962,-2.36556c0,-1.36348 0.04107,-2.72696 0.12321,-4.09044c0.08214,-1.37991 0.20535,-2.7516 0.36962,-4.11508l-6.11102,0.61603c-0.11499,1.06779 -0.24641,2.35734 -0.39426,3.86867c-0.14785,1.4949 -0.43533,2.93231 -0.86244,4.31221c-0.42712,1.36348 -1.076,2.54626 -1.94666,3.54834c-0.85423,0.98565 -2.04522,1.47847 -3.57298,1.47847c-0.93637,0 -1.71667,-0.22177 -2.34092,-0.66531c-0.60781,-0.42712 -1.10064,-0.97743 -1.47847,-1.65096c-0.3614,-0.68995 -0.62425,-1.44562 -0.78852,-2.26699c-0.16427,-0.82138 -0.24641,-1.60168 -0.24641,-2.34092c0,-2.46412 0.09856,-4.91182 0.29569,-7.34308c0.21355,-2.4477 0.3614,-4.9036 0.44354,-7.36773c0.08214,-2.59554 0.10678,-5.19108 0.07392,-7.78663c-0.01642,-2.61197 0.01642,-5.23216 0.09856,-7.86055c0.04928,-0.87066 0.08214,-1.88095 0.09856,-3.03087c0.01642,-1.14992 0.15606,-2.22593 0.4189,-3.228c0.27927,-1.00207 0.73102,-1.84809 1.35527,-2.53805c0.64067,-0.70638 1.60168,-1.05957 2.88302,-1.05957c1.75774,0 3.08837,0.45997 3.99188,1.37991c0.90351,0.91994 1.53597,2.06986 1.89737,3.44977c0.37783,1.37991 0.56675,2.84196 0.56675,4.38614c0,1.52776 0,2.90766 0,4.13973c0,1.64275 -0.04107,3.26086 -0.12321,4.85432c-0.08214,1.57704 -0.16427,3.16229 -0.24641,4.75576l6.60385,-0.98565c0.03286,-2.00416 0.06571,-3.99188 0.09856,-5.96318c0.04928,-1.9713 0.13963,-3.9426 0.27105,-5.91389c0.03286,-0.95279 0.06571,-1.96308 0.09856,-3.03087c0.04928,-1.06779 0.21355,-2.05344 0.49282,-2.95695c0.29569,-0.90351 0.7803,-1.65096 1.45383,-2.24235c0.68995,-0.59139 1.70846,-0.88708 3.05551,-0.88708c1.14992,0 2.08629,0.32855 2.8091,0.98565c0.72281,0.6571 1.29777,1.46205 1.72489,2.41484c0.42712,0.93637 0.72281,1.93844 0.88708,3.00623c0.16427,1.06779 0.24641,2.0288 0.24641,2.88302zM359.79084,167.58082c0,3.40049 -0.08214,6.8174 -0.24641,10.25075c-0.16427,3.43335 -0.36962,6.85026 -0.61603,10.25075c-0.03286,0.62425 -0.07392,1.46205 -0.12321,2.5134c-0.03286,1.03493 -0.11499,2.16021 -0.24641,3.37585c-0.11499,1.21564 -0.27927,2.43948 -0.49282,3.67154c-0.19713,1.23206 -0.51747,2.34913 -0.96101,3.35121c-0.42712,1.00207 -0.97743,1.82345 -1.65096,2.46412c-0.67353,0.64067 -1.50311,0.96101 -2.48876,0.96101c-0.87066,0 -1.64275,-0.18891 -2.31627,-0.56675c-0.67353,-0.3614 -1.24028,-0.8378 -1.70024,-1.42919c-0.44354,-0.60781 -0.78852,-1.28956 -1.03493,-2.04522c-0.24641,-0.75566 -0.36962,-1.54418 -0.36962,-2.36556c0,-1.36348 0.04107,-2.72696 0.12321,-4.09044c0.08214,-1.37991 0.20535,-2.7516 0.36962,-4.11508l-6.11102,0.61603c-0.11499,1.06779 -0.24641,2.35734 -0.39426,3.86867c-0.14785,1.4949 -0.43533,2.93231 -0.86244,4.31221c-0.42712,1.36348 -1.076,2.54626 -1.94666,3.54834c-0.85423,0.98565 -2.04522,1.47847 -3.57298,1.47847c-0.93637,0 -1.71667,-0.22177 -2.34092,-0.66531c-0.60781,-0.42712 -1.10064,-0.97743 -1.47847,-1.65096c-0.3614,-0.68995 -0.62425,-1.44562 -0.78852,-2.26699c-0.16427,-0.82138 -0.24641,-1.60168 -0.24641,-2.34092c0,-2.46412 0.09856,-4.91182 0.29569,-7.34308c0.21355,-2.4477 0.3614,-4.9036 0.44354,-7.36773c0.08214,-2.59554 0.10678,-5.19108 0.07392,-7.78663c-0.01642,-2.61197 0.01642,-5.23216 0.09856,-7.86055c0.04928,-0.87066 0.08214,-1.88095 0.09856,-3.03087c0.01642,-1.14992 0.15606,-2.22593 0.4189,-3.228c0.27927,-1.00207 0.73102,-1.84809 1.35527,-2.53805c0.64067,-0.70638 1.60168,-1.05957 2.88302,-1.05957c1.75774,0 3.08837,0.45997 3.99188,1.37991c0.90351,0.91994 1.53597,2.06986 1.89737,3.44977c0.37783,1.37991 0.56675,2.84196 0.56675,4.38614c0,1.52776 0,2.90766 0,4.13973c0,1.64275 -0.04107,3.26086 -0.12321,4.85432c-0.08214,1.57704 -0.16427,3.16229 -0.24641,4.75576l6.60385,-0.98565c0.03286,-2.00416 0.06571,-3.99188 0.09856,-5.96318c0.04928,-1.9713 0.13963,-3.9426 0.27105,-5.91389c0.03286,-0.95279 0.06571,-1.96308 0.09856,-3.03087c0.04928,-1.06779 0.21355,-2.05344 0.49282,-2.95695c0.29569,-0.90351 0.7803,-1.65096 1.45383,-2.24235c0.68995,-0.59139 1.70846,-0.88708 3.05551,-0.88708c1.14992,0 2.08629,0.32855 2.8091,0.98565c0.72281,0.6571 1.29777,1.46205 1.72489,2.41484c0.42712,0.93637 0.72281,1.93844 0.88708,3.00623c0.16427,1.06779 0.24641,2.0288 0.24641,2.88302zM375.38874,176.99377c0,0.6571 -0.04107,1.5524 -0.12321,2.68589c-0.08214,1.1335 -0.20535,2.34913 -0.36962,3.6469c-0.16427,1.28134 -0.40248,2.59554 -0.7146,3.9426c-0.31212,1.33063 -0.67353,2.53805 -1.08421,3.62226c-0.41068,1.08421 -0.90351,1.9713 -1.47847,2.66125c-0.57496,0.67353 -1.23206,1.01029 -1.9713,1.01029c-0.90351,0 -1.6756,-0.44354 -2.31627,-1.33063c-0.62425,-0.88708 -1.15814,-2.01236 -1.60168,-3.37585c-0.42712,-1.37991 -0.76388,-2.90766 -1.01029,-4.58327c-0.24641,-1.69203 -0.43533,-3.35121 -0.56675,-4.97753c-0.11499,-1.62632 -0.1807,-3.12122 -0.19713,-4.4847c-0.01642,-1.37991 -0.02464,-2.43948 -0.02464,-3.17872c0,-0.73924 0,-1.6756 0,-2.8091c0,-1.1335 0.04928,-2.3327 0.14785,-3.59762c0.09856,-1.28134 0.26284,-2.54626 0.49282,-3.79475c0.22999,-1.24849 0.56675,-2.38198 1.01029,-3.40049c0.45997,-1.03493 1.05957,-1.87273 1.79881,-2.5134c0.73924,-0.64067 1.65918,-0.96101 2.75982,-0.96101c0.98565,0 1.79881,0.42712 2.43948,1.28134c0.64067,0.8378 1.14992,1.92202 1.52776,3.25264c0.39426,1.33063 0.68174,2.81732 0.86244,4.46006c0.19713,1.64275 0.32034,3.26086 0.36962,4.85432c0.06571,1.57704 0.09035,3.0473 0.07392,4.41078c-0.01642,1.34705 -0.02464,2.40662 -0.02464,3.17872zM374.20596,200.40293c0,0.70638 -0.16427,1.32241 -0.49282,1.84809c-0.32855,0.50925 -0.76388,0.93637 -1.30598,1.28134c-0.52568,0.34498 -1.10064,0.59961 -1.72489,0.76388c-0.60781,0.16427 -1.21564,0.24641 -1.82345,0.24641c-0.90351,0 -1.76595,-0.2382 -2.58733,-0.7146c-0.82138,-0.45997 -1.23206,-1.20742 -1.23206,-2.24235c0,-0.62425 0.17249,-1.191 0.51747,-1.70024c0.34498,-0.50925 0.7803,-0.94458 1.30598,-1.30598c0.54211,-0.37783 1.1335,-0.66531 1.77417,-0.86244c0.64067,-0.21355 1.24849,-0.32034 1.82345,-0.32034c0.93637,0 1.79059,0.2382 2.56269,0.7146c0.78852,0.45997 1.18278,1.22384 1.18278,2.29163z"/></g></g></svg>