<svg version="1.1" xmlns="http://www.w3.org/2000/svg" xmlns:xlink="http://www.w3.org/1999/xlink" width="206" height="118.70736" viewBox="0,0,206,118.70736"><g transform="translate(-142.25,-128.35983)"><g data-paper-data="{&quot;isPaintingLayer&quot;:true}" fill-rule="nonzero" stroke="#ffffff" stroke-width="13" stroke-linecap="butt" stroke-linejoin="miter" stroke-miterlimit="10" stroke-dasharray="" stroke-dashoffset="0" style="mix-blend-mode: normal"><path d="M202.75,215.46351c0,13.86438 -12.08831,25.10368 -27,25.10368c-14.91169,0 -27,-11.2393 -27,-25.10368c0,-13.86438 12.08831,-25.10368 27,-25.10368c14.91169,0 27,11.2393 27,25.10368z" fill="#55ff00"/><path d="M341.75,215.46351c0,13.86438 -12.08831,25.10367 -27,25.10367c-14.91169,0 -27,-11.23929 -27,-25.10367c0,-13.86438 12.08831,-25.10368 27,-25.10368c14.91169,0 27,11.2393 27,25.10368z" fill="#3c3c3c"/><path d="M271.25,159.96351c0,13.86438 -12.08831,25.10367 -27,25.10367c-14.91168,0 -27,-11.23929 -27,-25.10367c0,-13.86438 12.08832,-25.10368 27,-25.10368c14.91168,0 27,11.2393 27,25.10368z" fill="#3c3c3c"/></g></g></svg>