<svg version="1.1" xmlns="http://www.w3.org/2000/svg" xmlns:xlink="http://www.w3.org/1999/xlink" width="91.69158" height="20.16757" viewBox="0,0,91.69158,20.16757"><g transform="translate(-144.98129,-134.99909)"><g data-paper-data="{&quot;isPaintingLayer&quot;:true}" fill-rule="nonzero" stroke="none" stroke-linejoin="miter" stroke-miterlimit="10" stroke-dasharray="" stroke-dashoffset="0" style="mix-blend-mode: normal"><path d="M144.98129,150.61297c0,-3.73373 0,-9.02076 0,-11.09433c0,-1.95979 1.51797,-4.51954 5.39091,-4.51954c7.95146,0 61.3589,0 80.83924,0c4.97892,0 5.46143,2.78829 5.46143,4.86091c0,2.06351 0,6.11776 0,9.72888c0,2.82519 -0.64161,5.57778 -5.02971,5.57778c-17.33182,0 -81.60812,0 -82.27545,0c-3.41622,0 -4.38642,-1.7212 -4.38642,-4.55369z" fill="#5e7060" stroke-width="0" stroke-linecap="butt"/><path d="M168.18916,146.02976v-5.07045c0,-0.43002 0.01633,-0.74392 0.04899,-0.94169c0.03447,-0.19777 0.13881,-0.36924 0.313,-0.51439c0.176,-0.14516 0.38829,-0.21773 0.63687,-0.21773c0.23587,0 0.44454,0.07076 0.62598,0.21229c0.18144,0.13971 0.29031,0.30845 0.3266,0.50623c0.03629,0.19777 0.05443,0.51621 0.05443,0.9553v4.77651c0,1.457 -0.3021,2.46582 -0.90631,3.02649c-0.6024,0.56066 -1.41163,0.841 -2.42772,0.841c-1.08866,0 -1.90607,-0.30392 -2.45222,-0.91176c-0.54614,-0.60965 -0.81922,-1.36537 -0.81922,-2.26714c0,-0.3266 0.09163,-0.57155 0.27489,-0.73485c0.18326,-0.1633 0.40644,-0.24495 0.66953,-0.24495c0.29031,0 0.49081,0.08074 0.60149,0.24223c0.11249,0.15967 0.22136,0.43183 0.3266,0.8165c0.10705,0.38284 0.19687,0.65864 0.26945,0.82738c0.07258,0.16693 0.19868,0.31935 0.37831,0.45724c0.17963,0.13789 0.42095,0.20685 0.72396,0.20685c0.90359,0 1.35539,-0.65501 1.35539,-1.96504zM175.51588,142.04796c1.15217,0 2.05848,0.35563 2.71894,1.06689c0.66046,0.70945 0.99069,1.61304 0.99069,2.71077c0,1.10136 -0.33477,2.00677 -1.00429,2.71622c-0.66953,0.70763 -1.55497,1.06145 -2.65634,1.06145c-1.19753,0 -2.12199,-0.35835 -2.77337,-1.07506c-0.65139,-0.71852 -0.97707,-1.61939 -0.97707,-2.70261c0,-1.10318 0.33023,-2.00858 0.99068,-2.71622c0.66046,-0.70763 1.56405,-1.06145 2.71077,-1.06145zM175.51588,148.22069c0.56248,0 1.00792,-0.21229 1.33634,-0.63687c0.33023,-0.42458 0.49534,-1.01065 0.49534,-1.7582c0,-0.75299 -0.16511,-1.34178 -0.49534,-1.76636c-0.32841,-0.42458 -0.77386,-0.63687 -1.33634,-0.63687c-0.55341,0 -0.99613,0.2132 -1.32817,0.63959c-0.33023,0.42639 -0.49534,1.01427 -0.49534,1.76364c0,0.75299 0.16421,1.34087 0.49262,1.76363c0.33023,0.42095 0.77386,0.63142 1.33089,0.63142zM182.38808,149.41822l-2.27259,-5.75631c-0.13971,-0.37196 -0.20957,-0.6287 -0.20957,-0.77023c0,-0.21229 0.088,-0.40553 0.264,-0.57971c0.17782,-0.176 0.38647,-0.264 0.62598,-0.264c0.20866,0 0.38648,0.06532 0.53345,0.19596c0.14878,0.12883 0.29303,0.39283 0.43274,0.79201l1.57312,4.57239l1.48875,-4.24035c0.19596,-0.55341 0.3511,-0.91176 0.46541,-1.07506c0.11612,-0.1633 0.3148,-0.24495 0.59604,-0.24495c0.25402,0 0.45452,0.08528 0.60149,0.25584c0.14878,0.17056 0.22318,0.34383 0.22318,0.51984c0,0.20866 -0.0753,0.50622 -0.2259,0.8927l-2.42228,6.34147c-0.32115,0.84371 -0.65411,1.43794 -0.99885,1.78269c-0.34474,0.34474 -0.93263,0.51712 -1.76364,0.51712c-1.07959,0 -1.61939,-0.27398 -1.61939,-0.82194c0,-0.18144 0.06079,-0.33385 0.18235,-0.45724c0.12338,-0.12157 0.28759,-0.18235 0.49262,-0.18235c0.03084,0 0.13427,0.00635 0.31027,0.01905c0.17782,0.01452 0.28305,0.02178 0.31571,0.02178c0.34475,0 0.59695,-0.08346 0.75662,-0.25039c0.16148,-0.16511 0.32206,-0.44907 0.48173,-0.85188zM189.28067,143.98034c0,0.24132 0.12429,0.43002 0.37287,0.56611c0.25039,0.13608 0.80924,0.31027 1.67654,0.52256c1.68199,0.40825 2.52298,1.10953 2.52298,2.10385c0,0.78384 -0.28396,1.38533 -0.85188,1.80446c-0.56611,0.41732 -1.35902,0.62598 -2.37873,0.62598c-1.03423,0 -1.81353,-0.2132 -2.3379,-0.63959c-0.52437,-0.42821 -0.78656,-0.88 -0.78656,-1.35538c0,-0.20503 0.07258,-0.38012 0.21773,-0.52528c0.14516,-0.14516 0.32478,-0.21774 0.53889,-0.21774c0.29031,0 0.54433,0.18145 0.76207,0.54433c0.24495,0.39918 0.51439,0.66408 0.80833,0.79472c0.29575,0.12883 0.61147,0.19324 0.94714,0.19324c0.37196,0 0.67406,-0.08255 0.90631,-0.24767c0.23406,-0.16693 0.35109,-0.37741 0.35109,-0.63143c0,-0.23043 -0.09889,-0.43093 -0.29666,-0.60148c-0.19596,-0.17056 -0.73575,-0.35654 -1.61939,-0.55794c-0.88182,-0.2014 -1.52504,-0.48445 -1.92966,-0.84916c-0.40281,-0.36652 -0.60421,-0.80108 -0.60421,-1.30368c0,-0.56792 0.24586,-1.06961 0.73757,-1.50508c0.49353,-0.43547 1.232,-0.6532 2.21543,-0.6532c0.90359,0 1.62301,0.18417 2.15828,0.5525c0.53526,0.36652 0.80289,0.74755 0.80289,1.1431c0,0.20866 -0.06804,0.38466 -0.20412,0.528c-0.13608,0.14153 -0.32479,0.21229 -0.56611,0.21229c-0.35744,0 -0.68041,-0.20594 -0.96891,-0.61782c-0.2885,-0.41369 -0.72306,-0.62054 -1.30368,-0.62054c-0.31208,0 -0.58516,0.06351 -0.81922,0.19052c-0.23406,0.12701 -0.35109,0.30845 -0.35109,0.54433zM195.73102,142.21127v-1.11588c0,-0.45724 0.01905,-0.76842 0.05716,-0.93353c0.03992,-0.16693 0.13971,-0.31481 0.29938,-0.44363c0.16148,-0.12883 0.35109,-0.19323 0.56883,-0.19323c0.19959,0 0.38013,0.05896 0.54161,0.17691c0.16148,0.11794 0.26672,0.26128 0.31571,0.43003c0.0508,0.16693 0.0762,0.43819 0.0762,0.81378v1.26557h0.35926c0.45361,0 0.75481,0.05625 0.90359,0.16874c0.1506,0.11068 0.2259,0.27216 0.2259,0.48445c0,0.45905 -0.38104,0.68858 -1.1431,0.68858h-0.34565v3.42929c0,0.46268 0.03266,0.7784 0.09798,0.94714c0.06532,0.16693 0.24132,0.25039 0.528,0.25039c0.13608,0 0.2885,-0.01905 0.45724,-0.05715c0.17056,-0.03992 0.29666,-0.05988 0.37831,-0.05988c0.18688,0 0.33749,0.06169 0.4518,0.18507c0.11612,0.12157 0.17419,0.26854 0.17419,0.44091c0,0.60965 -0.64141,0.91447 -1.92422,0.91447c-0.62235,0 -1.07959,-0.11612 -1.37172,-0.34837c-0.29213,-0.23225 -0.47357,-0.51349 -0.54433,-0.84372c-0.07076,-0.33204 -0.10614,-0.76297 -0.10614,-1.29279v-3.56538h-0.24495c-0.54796,0 -0.82194,-0.22499 -0.82194,-0.67497c0,-0.44454 0.28759,-0.66681 0.86277,-0.66681zM201.29818,139.36713c0.23951,0 0.44726,0.09072 0.62326,0.27216c0.17782,0.18144 0.26672,0.39283 0.26672,0.63415c0,0.24858 -0.0889,0.46268 -0.26672,0.64231c-0.176,0.17963 -0.38375,0.26945 -0.62326,0.26945c-0.25039,0 -0.4654,-0.08981 -0.64504,-0.26944c-0.17782,-0.17963 -0.26672,-0.39374 -0.26672,-0.64231c0,-0.24495 0.0889,-0.45723 0.26672,-0.63687c0.17963,-0.17963 0.39464,-0.26944 0.64504,-0.26944zM202.21538,143.56665v4.49618c0,0.44454 -0.02086,0.74846 -0.0626,0.91176c-0.03992,0.1633 -0.14425,0.30936 -0.31299,0.43819c-0.16693,0.12701 -0.34746,0.19051 -0.54161,0.19051c-0.19959,0 -0.38557,-0.0626 -0.55794,-0.18779c-0.17237,-0.12519 -0.27942,-0.27126 -0.32115,-0.43818c-0.03992,-0.16874 -0.05988,-0.47357 -0.05988,-0.91448v-4.48258c0,-0.41369 0.01543,-0.70491 0.04627,-0.87365c0.03266,-0.17056 0.13155,-0.32297 0.29666,-0.45724c0.16511,-0.13427 0.35654,-0.2014 0.57427,-0.2014c0.22317,0 0.41369,0.06078 0.57155,0.18235c0.15967,0.11975 0.26037,0.27126 0.3021,0.45452c0.04355,0.18326 0.06532,0.4772 0.06532,0.88182zM210.00613,146.49244c0.22681,0 0.4146,0.0889 0.56338,0.26672c0.1506,0.176 0.2259,0.35654 0.2259,0.54161c0,0.50442 -0.3021,1.01427 -0.90631,1.52957c-0.6024,0.5153 -1.40891,0.77295 -2.41956,0.77295c-1.22112,0 -2.14286,-0.34565 -2.76521,-1.03695c-0.62054,-0.69311 -0.93081,-1.59308 -0.93081,-2.69989c0,-1.12132 0.32207,-2.03761 0.96619,-2.74887c0.64412,-0.71308 1.56314,-1.06961 2.75704,-1.06961c0.92536,0 1.69015,0.24223 2.29436,0.72668c0.60602,0.48264 0.90904,0.95984 0.90904,1.43159c0,0.22681 -0.08165,0.41641 -0.24495,0.56883c-0.1633,0.1506 -0.35563,0.2259 -0.57699,0.2259c-0.27216,0 -0.48537,-0.11522 -0.63959,-0.34565c-0.34112,-0.51712 -0.64322,-0.84462 -0.90631,-0.98252c-0.26309,-0.13971 -0.54615,-0.20956 -0.84916,-0.20956c-0.59513,0 -1.05419,0.22862 -1.37716,0.68586c-0.32115,0.45543 -0.48173,1.02334 -0.48173,1.70376c0,0.69856 0.16874,1.2683 0.50623,1.70921c0.3393,0.4391 0.79019,0.65864 1.35266,0.65864c0.32115,0 0.61782,-0.0762 0.88999,-0.22862c0.27216,-0.15241 0.50714,-0.38103 0.70491,-0.68586c0.19777,-0.30664 0.35382,-0.51893 0.46813,-0.63687c0.11612,-0.11794 0.26944,-0.17691 0.45996,-0.17691zM214.8711,146.05696l-1.02062,0.95258v0.90359c0,0.45361 -0.01451,0.77749 -0.04354,0.97163c-0.02903,0.19233 -0.12792,0.36017 -0.29666,0.50351c-0.16693,0.14334 -0.36379,0.21501 -0.5906,0.21501c-0.20503,0 -0.39192,-0.0626 -0.56066,-0.18779c-0.16693,-0.12519 -0.26854,-0.27398 -0.30483,-0.44635c-0.03629,-0.17237 -0.05443,-0.49262 -0.05443,-0.96074v-7.10354c0,-0.67497 0.08256,-1.11316 0.24767,-1.31456c0.16693,-0.20322 0.40916,-0.30483 0.72668,-0.30483c0.23043,0 0.41732,0.06623 0.56066,0.19868c0.14334,0.13064 0.23134,0.2894 0.264,0.47629c0.03447,0.18507 0.05172,0.48445 0.05172,0.89815v4.08794l2.10384,-2.17733c0.32115,-0.33567 0.54161,-0.5398 0.66136,-0.61237c0.12157,-0.07258 0.25946,-0.10887 0.41369,-0.10887c0.23951,0 0.43638,0.07712 0.5906,0.23134c0.15423,0.15423 0.23134,0.32206 0.23134,0.50351c0,0.27761 -0.25584,0.65411 -0.76751,1.12949l-0.97435,0.90631l1.89156,2.99382c0.27216,0.43002 0.40825,0.74302 0.40825,0.93898c0,0.21229 -0.07802,0.40734 -0.23406,0.58516c-0.15604,0.17782 -0.37015,0.26673 -0.64231,0.26673c-0.22681,0 -0.41097,-0.06713 -0.55249,-0.2014c-0.13971,-0.13427 -0.30029,-0.35109 -0.48173,-0.65048z" fill="#ffffff" stroke-width="1" stroke-linecap="square"/></g></g></svg>