<svg version="1.1" xmlns="http://www.w3.org/2000/svg" xmlns:xlink="http://www.w3.org/1999/xlink" width="53.5" height="56.5" viewBox="0,0,53.5,56.5"><g transform="translate(-213.61857,-203.47346)"><g data-paper-data="{&quot;isPaintingLayer&quot;:true}" fill-rule="nonzero" stroke-linejoin="miter" stroke-miterlimit="10" stroke-dasharray="" stroke-dashoffset="0" style="mix-blend-mode: normal"><path d="M228.519,227.20089c0,-6.41363 5.19928,-11.61291 11.61291,-11.61291c6.41363,0 11.61291,5.19928 11.61291,11.61291c0,6.41363 -5.19928,11.61292 -11.61291,11.61292c-6.41363,0 -11.61291,-5.19928 -11.61291,-11.61292z" fill="#1a4d1a" stroke="#000000" stroke-width="3.5" stroke-linecap="butt"/><path d="M247.69125,228.30334c0,0 -0.05019,5.14095 -6.3754,6.5251c-4.02897,0.88165 -6.64956,-2.80816 -6.64956,-2.80816" fill="none" stroke="#003c00" stroke-width="2" stroke-linecap="round"/><path d="M234.19269,223.41954c0,0 0.54558,-2.37881 3.13154,-3.29101c1.45695,-0.51392 2.63796,-0.50154 3.55343,-0.2744" data-paper-data="{&quot;index&quot;:null}" fill="none" stroke="#ffffff" stroke-width="2" stroke-linecap="round"/><path d="M213.61857,259.97346v-56.5h53.5v56.5z" fill="none" stroke="none" stroke-width="none" stroke-linecap="butt"/></g></g></svg>