<svg version="1.1" xmlns="http://www.w3.org/2000/svg" xmlns:xlink="http://www.w3.org/1999/xlink" width="176.92929" height="150.97222" viewBox="0,0,176.92929,150.97222"><g transform="translate(-60.14217,-104.4902)"><g data-paper-data="{&quot;isPaintingLayer&quot;:true}" fill="none" fill-rule="nonzero" stroke="#64d32b" stroke-width="4" stroke-linecap="round" stroke-linejoin="miter" stroke-miterlimit="10" stroke-dasharray="" stroke-dashoffset="0" style="mix-blend-mode: normal"><path d="M100.75,113.96706c0,0 0,12.35829 0,22.75c0,22.61544 0,107.75 0,107.75"/><path d="M65.71102,177.71154c-0.14965,-15.33564 -3.46101,-38.49447 -3.46101,-38.49447c0,0 28.03805,-32.81355 80.50225,-32.7267c36.44934,0.85563 65.70619,21.24437 76.26049,29.65216c2.75649,2.19588 5.5129,5.59233 7.12263,8.6595c1.93338,3.68386 4.3487,8.8815 5.61463,13.91503c4.77083,18.96972 3,19.5 3,19.5"/><path d="M234.75001,180.71706c0,0 1.77083,0.53028 -3,19.5c-1.18016,4.6925 -8.5,19 -8.5,19c0,0 -1.25341,1.76081 -4.01426,4.48556c-8.97783,8.86046 -33.89601,27.91414 -83.48965,29.7598c-44.46115,1.51452 -73.49609,-33.74536 -73.49609,-33.74536c0,0 3.31136,-23.15883 3.46101,-38.49447" data-paper-data="{&quot;index&quot;:null}"/><path d="M209.25001,129.71705l0.5,100.5"/></g></g></svg>