<svg version="1.1" xmlns="http://www.w3.org/2000/svg" xmlns:xlink="http://www.w3.org/1999/xlink" width="69" height="57.25" viewBox="0,0,69,57.25"><g transform="translate(-199.64017,-154.1)"><g data-paper-data="{&quot;isPaintingLayer&quot;:true}" fill-rule="nonzero" stroke-linecap="butt" stroke-linejoin="miter" stroke-miterlimit="10" stroke-dasharray="" stroke-dashoffset="0" style="mix-blend-mode: normal"><path d="M217.78616,168.14811c7.69217,-2.41877 18.56526,-2.66612 25.35678,-0.17023c1.60272,0.589 2.02207,1.14324 3.21412,1.99884c0.93916,0.67409 1.75753,1.50776 2.47046,2.16125c5.09187,4.66733 4.80565,9.08895 4.73738,11.76391c-0.06241,2.44535 -2.31499,3.48685 -4.69365,4.042c-8.34112,1.94672 -28.10016,5.8993 -36.78709,1.98747c-5.71733,-2.57459 -4.40345,-9.83364 -2.43262,-14.72166c2.53716,-5.39463 6.17933,-6.44675 8.13463,-7.06159z" fill="#664637" stroke="none" stroke-width="5"/><path d="M215.23911,170.29118c0,0 10.14224,-4.38731 15.35559,-4.38731c5.41015,0 16.70553,5.90599 16.70553,5.90599l0.16874,3.20612c0,0 -0.89059,3.0117 -3.02719,3.9198c-1.48119,0.62954 -3.34841,-1.34626 -5.77142,-0.63564c-4.94322,1.44975 -12.54879,3.42838 -17.16829,3.57465c-4.22449,0.13376 -3.124,-4.60612 -7.07345,-4.58283c-4.27943,0.02524 0.81049,-7.00078 0.81049,-7.00078z" fill="#9c915c" stroke="none" stroke-width="5"/><path d="M243.14294,167.97788c1.60272,0.589 2.02207,1.14324 3.21412,1.99885c0.93916,0.67409 1.75753,1.50776 2.47046,2.16125c5.09187,4.66733 4.80565,9.08894 4.73738,11.76391c-0.06241,2.44535 -0.81499,2.48684 -3.19365,3.04199c-0.5745,0.13408 -3.96209,-1.00797 -4.62867,-0.82243c-4.44161,1.23631 -3.62603,3.28885 -6.55232,3.79745c-9.26671,1.6106 -20.95874,2.78069 -27.1061,0.01246c-5.71733,-2.57459 -4.40345,-9.83364 -2.43261,-14.72166c2.53716,-5.39463 6.17932,-6.44676 8.13462,-7.0616c1.9553,-0.61484 18.56525,-2.66611 25.35677,-0.17022z" fill="none" stroke="#000000" stroke-width="5"/><path d="M199.64018,211.35v-57.25h69v57.25z" fill="none" stroke="none" stroke-width="0"/></g></g></svg>