<svg version="1.1" xmlns="http://www.w3.org/2000/svg" xmlns:xlink="http://www.w3.org/1999/xlink" width="118.2969" height="8.10228" viewBox="0,0,118.2969,8.10228"><g transform="translate(-180.85155,-175.94886)"><g data-paper-data="{&quot;isPaintingLayer&quot;:true}" fill="#12ff00" fill-rule="nonzero" stroke="none" stroke-width="1" stroke-linecap="square" stroke-linejoin="miter" stroke-miterlimit="10" stroke-dasharray="" stroke-dashoffset="0" style="mix-blend-mode: normal"><path d="M182.48397,177.99153c0,0.22222 0.09401,0.41594 0.28204,0.58117c0.19373,0.16523 0.68373,0.34472 1.47003,0.53844c0.792,0.18802 1.37887,0.3846 1.76062,0.58972c0.38175,0.20512 0.65525,0.47577 0.82048,0.81194c0.17094,0.33617 0.2564,0.68658 0.2564,1.05124c0,0.72932 -0.27635,1.32758 -0.82903,1.7948c-0.55268,0.46152 -1.30764,0.69229 -2.26487,0.69229c-1.04839,0 -1.83184,-0.25071 -2.35034,-0.75211c-0.5185,-0.50711 -0.77775,-1.02845 -0.77775,-1.56404c0,-0.17663 0.06553,-0.33617 0.19658,-0.47861c0.13674,-0.14245 0.31338,-0.21367 0.5299,-0.21367c0.19373,0 0.33901,0.05983 0.43588,0.17948c0.09687,0.11966 0.21081,0.33616 0.34186,0.64954c0.29628,0.67234 0.82048,1.00851 1.57259,1.00851c0.44443,0 0.82048,-0.10256 1.12816,-0.30768c0.30768,-0.20512 0.46153,-0.48431 0.46153,-0.83757c0,-0.2735 -0.10542,-0.50711 -0.31623,-0.70083c-0.21081,-0.19943 -0.69798,-0.38745 -1.46148,-0.56408c-0.7578,-0.17663 -1.29055,-0.34472 -1.59823,-0.50426c-0.30199,-0.15954 -0.56693,-0.3903 -0.79484,-0.69228c-0.22791,-0.30199 -0.34187,-0.68088 -0.34187,-1.13671c0,-0.66664 0.2621,-1.19653 0.7863,-1.58968c0.5299,-0.39884 1.24782,-0.59827 2.15377,-0.59827c0.92874,0 1.62672,0.21366 2.09394,0.641c0.47292,0.42164 0.70938,0.84612 0.70938,1.27346c0,0.17663 -0.06838,0.34472 -0.20512,0.50426c-0.13674,0.15384 -0.31053,0.23076 -0.52134,0.23076c-0.19373,0 -0.34187,-0.05414 -0.44443,-0.16239c-0.09687,-0.10825 -0.20512,-0.29059 -0.32477,-0.54699c-0.27349,-0.54129 -0.74071,-0.81194 -1.40166,-0.81194c-0.38745,0 -0.71223,0.08547 -0.97433,0.2564c-0.2621,0.16523 -0.39314,0.3846 -0.39314,0.6581zM193.48997,180.36751v2.65802c0,0.68374 -0.24785,1.0256 -0.74356,1.0256c-0.22791,0 -0.40455,-0.07122 -0.5299,-0.21367c-0.11965,-0.14814 -0.17948,-0.41879 -0.17948,-0.81194v-2.3247c0,-0.55268 -0.08832,-0.93159 -0.26495,-1.13671c-0.17663,-0.20512 -0.42164,-0.30768 -0.73502,-0.30768c-0.27919,0 -0.52135,0.07692 -0.72647,0.23076c-0.20512,0.15384 -0.35041,0.34186 -0.43588,0.56408c-0.08546,0.22222 -0.1282,0.61537 -0.1282,1.17945v1.69224c0,0.45583 -0.06552,0.75781 -0.19657,0.90595c-0.13105,0.14814 -0.31053,0.22222 -0.53844,0.22222c-0.22791,0 -0.40739,-0.07122 -0.53844,-0.21367c-0.12535,-0.14814 -0.18803,-0.44727 -0.18803,-0.8974v-5.78611c0,-0.35327 0.0171,-0.59828 0.05128,-0.73502c0.03418,-0.13675 0.1111,-0.24786 0.23076,-0.33332c0.12535,-0.09116 0.27065,-0.13674 0.43588,-0.13674c0.18233,0 0.33332,0.05128 0.45298,0.15384c0.12535,0.09686 0.20513,0.22506 0.23931,0.3846c0.03418,0.15954 0.05128,0.42163 0.05128,0.78629v1.72644c0.49001,-0.58687 1.08258,-0.88031 1.77771,-0.88031c0.58687,0 1.05979,0.18232 1.41875,0.54699c0.36466,0.35896 0.54699,0.92589 0.54699,1.70079zM195.6619,176.01724c0.19373,0 0.35896,0.07122 0.49571,0.21366c0.13675,0.14245 0.20512,0.30768 0.20512,0.49571c0,0.19372 -0.06837,0.36181 -0.20512,0.50426c-0.13675,0.13675 -0.30199,0.20512 -0.49571,0.20512c-0.19373,0 -0.36181,-0.06838 -0.50426,-0.20512c-0.13675,-0.14245 -0.20512,-0.31053 -0.20512,-0.50426c0,-0.19372 0.06837,-0.35896 0.20512,-0.49571c0.14244,-0.14245 0.31053,-0.21366 0.50426,-0.21366zM196.38837,179.30771v3.52979c0,0.35327 -0.0171,0.59542 -0.05128,0.72647c-0.02849,0.12535 -0.11111,0.23931 -0.24786,0.34187c-0.13105,0.09686 -0.27349,0.14529 -0.42733,0.14529c-0.15384,0 -0.29913,-0.04843 -0.43588,-0.14529c-0.13675,-0.10256 -0.22222,-0.21936 -0.2564,-0.35041c-0.02849,-0.13105 -0.04273,-0.37036 -0.04273,-0.71792v-3.52124c0,-0.31907 0.01139,-0.54414 0.03418,-0.67519c0.02849,-0.13675 0.10826,-0.2564 0.23931,-0.35896c0.13105,-0.10825 0.28204,-0.16238 0.45297,-0.16238c0.17094,0 0.31907,0.04843 0.44442,0.14529c0.12535,0.09116 0.20513,0.21082 0.23931,0.35896c0.03418,0.14245 0.05128,0.37035 0.05128,0.68373zM201.95974,181.44439h-2.86314c0.01709,0.54129 0.16524,0.94868 0.44443,1.22218c0.28489,0.2735 0.62676,0.41024 1.0256,0.41024c0.48431,0 0.94299,-0.21366 1.37602,-0.641c0.17663,-0.17663 0.30483,-0.28489 0.3846,-0.32477c0.08546,-0.04559 0.17948,-0.06838 0.28204,-0.06838c0.13105,0 0.24215,0.04273 0.33332,0.1282c0.09686,0.07977 0.1453,0.17948 0.1453,0.29913c0,0.33047 -0.22507,0.67803 -0.67519,1.04269c-0.44443,0.35896 -1.05125,0.53845 -1.82045,0.53845c-0.97432,0 -1.71504,-0.27634 -2.22214,-0.82903c-0.50141,-0.55268 -0.75211,-1.26491 -0.75211,-2.13668c0,-0.88316 0.2507,-1.59823 0.75211,-2.14522c0.5071,-0.54699 1.21079,-0.82048 2.11104,-0.82048c0.85467,0 1.51561,0.25925 1.98283,0.77775c0.46722,0.5128 0.70083,1.07119 0.70083,1.67515c0,0.26779 -0.07692,0.48146 -0.23076,0.641c-0.15384,0.15384 -0.47861,0.23076 -0.97432,0.23076zM199.0966,180.61536h2.65802c-0.01709,-0.48431 -0.15099,-0.85467 -0.40169,-1.11107c-0.2507,-0.2564 -0.55838,-0.38461 -0.92304,-0.38461c-0.7749,0 -1.21933,0.49856 -1.33329,1.49568zM205.85383,177.15395v5.68355c0,0.35327 -0.01709,0.59542 -0.05128,0.72647c-0.02849,0.12535 -0.11111,0.23931 -0.24786,0.34187c-0.13105,0.09686 -0.27349,0.14529 -0.42733,0.14529c-0.15384,0 -0.29913,-0.04843 -0.43588,-0.14529c-0.13675,-0.10256 -0.22222,-0.21936 -0.25641,-0.35041c-0.02849,-0.13105 -0.04273,-0.37036 -0.04273,-0.71792v-5.68355c0,-0.35896 0.0171,-0.60112 0.05128,-0.72647c0.03418,-0.13105 0.1168,-0.24216 0.24786,-0.33332c0.13105,-0.09686 0.27349,-0.14529 0.42733,-0.14529c0.17663,0 0.32762,0.05128 0.45297,0.15384c0.13105,0.10256 0.21082,0.22221 0.23931,0.35896c0.02849,0.13675 0.04273,0.36751 0.04273,0.69229zM211.33974,183.21355v-0.14529c-0.50141,0.65524 -1.13671,0.98287 -1.90591,0.98287c-0.74071,0 -1.33329,-0.28204 -1.77772,-0.84612c-0.43873,-0.56978 -0.65809,-1.3048 -0.65809,-2.20505c0,-0.84328 0.21367,-1.53271 0.641,-2.0683c0.43303,-0.54129 1.02845,-0.81194 1.78625,-0.81194c0.73502,0 1.37317,0.29628 1.91446,0.88885v-1.88882c0,-0.5242 0.06552,-0.84897 0.19657,-0.97432c0.13675,-0.13105 0.31623,-0.19657 0.53844,-0.19657c0.15954,0 0.30483,0.04558 0.43588,0.13674c0.13105,0.09116 0.21082,0.21082 0.23931,0.35896c0.02849,0.14245 0.04273,0.38175 0.04273,0.71792v5.74338c0,0.32477 -0.0171,0.55838 -0.05128,0.70083c-0.02849,0.13675 -0.1111,0.245 -0.24785,0.32477c-0.13105,0.07977 -0.27349,0.11966 -0.42733,0.11966c-0.48431,0 -0.72647,-0.2792 -0.72647,-0.83758zM208.4766,181.04269c0,0.65524 0.13675,1.13386 0.41024,1.43585c0.27919,0.30199 0.59542,0.45297 0.94868,0.45297c0.41024,0 0.74926,-0.15668 1.01706,-0.47006c0.27349,-0.31338 0.41024,-0.75211 0.41024,-1.31619c0,-0.58687 -0.13105,-1.0541 -0.39315,-1.40166c-0.2621,-0.34756 -0.61251,-0.52135 -1.05124,-0.52135c-0.39315,0 -0.71507,0.16239 -0.96577,0.48717c-0.2507,0.31907 -0.37606,0.7635 -0.37606,1.33328zM215.3054,179.63249c0,0.18802 0.09686,0.33617 0.29059,0.44442c0.19373,0.10825 0.63246,0.24501 1.31619,0.41025c1.32188,0.32477 1.98283,0.87461 1.98283,1.64951c0,0.62106 -0.22506,1.09683 -0.67519,1.4273c-0.44443,0.32477 -1.06549,0.48717 -1.86318,0.48717c-0.81479,0 -1.4273,-0.16809 -1.83754,-0.50426c-0.41024,-0.33617 -0.61536,-0.69228 -0.61536,-1.06834c0,-0.15954 0.05697,-0.29629 0.17093,-0.41024c0.11396,-0.11395 0.25356,-0.17093 0.41879,-0.17093c0.22791,0 0.42733,0.14245 0.59827,0.42734c0.19373,0.31338 0.40455,0.52135 0.63246,0.62391c0.23361,0.10256 0.48146,0.15384 0.74356,0.15384c0.29628,0 0.53559,-0.06552 0.71792,-0.19657c0.18233,-0.13105 0.2735,-0.29628 0.2735,-0.4957c0,-0.18233 -0.07692,-0.33902 -0.23076,-0.47007c-0.15384,-0.13105 -0.57832,-0.27634 -1.27345,-0.43588c-0.68943,-0.15954 -1.19369,-0.38175 -1.51277,-0.66664c-0.31907,-0.29059 -0.47862,-0.63245 -0.47862,-1.0256c0,-0.44443 0.19373,-0.83758 0.58118,-1.17944c0.38745,-0.34187 0.96863,-0.5128 1.74353,-0.5128c0.70652,0 1.26776,0.14529 1.6837,0.43588c0.42164,0.28489 0.63245,0.58117 0.63245,0.88885c0,0.16523 -0.05414,0.30484 -0.16239,0.41879c-0.10256,0.11395 -0.24786,0.17093 -0.43588,0.17093c-0.28489,0 -0.5413,-0.16239 -0.7692,-0.48717c-0.22222,-0.32477 -0.56123,-0.48716 -1.01705,-0.48716c-0.24501,0 -0.45867,0.05128 -0.641,0.15384c-0.18233,0.09686 -0.27349,0.23646 -0.27349,0.41879zM221.08938,178.11973c0.21652,0 0.4017,0.07977 0.55554,0.23931c0.15954,0.15384 0.23931,0.33902 0.23931,0.55553c0,0.22222 -0.07977,0.41309 -0.23931,0.57263c-0.15384,0.15954 -0.33902,0.23931 -0.55554,0.23931c-0.22222,0 -0.41309,-0.07977 -0.57263,-0.23931c-0.15954,-0.15954 -0.2393,-0.35041 -0.2393,-0.57263c0,-0.21652 0.07977,-0.40169 0.2393,-0.55553c0.15954,-0.15954 0.35041,-0.23931 0.57263,-0.23931zM221.08938,182.43581c0.21652,0 0.4017,0.07977 0.55554,0.23931c0.15954,0.15384 0.23931,0.34186 0.23931,0.56408c0,0.21652 -0.07977,0.4074 -0.23931,0.57263c-0.15384,0.15954 -0.33902,0.23931 -0.55554,0.23931c-0.22222,0 -0.41309,-0.07977 -0.57263,-0.23931c-0.15954,-0.15954 -0.2393,-0.35041 -0.2393,-0.57263c0,-0.22222 0.07977,-0.41024 0.2393,-0.56408c0.15954,-0.15954 0.35041,-0.23931 0.57263,-0.23931zM228.48761,180.86321v1.87173c0,0.58117 -0.07692,0.94583 -0.23076,1.09398c-0.14814,0.14814 -0.33902,0.22222 -0.57263,0.22222c-0.17663,0 -0.33333,-0.04843 -0.47007,-0.14529c-0.13675,-0.10256 -0.22222,-0.22791 -0.2564,-0.37606c-0.03418,-0.14814 -0.05128,-0.41309 -0.05128,-0.79485v-5.32459c0,-0.44443 0.03134,-0.74642 0.09401,-0.90595c0.06267,-0.16523 0.17094,-0.27634 0.32478,-0.33332c0.15954,-0.05698 0.39599,-0.08547 0.70937,-0.08547h1.91446c1.13956,0 1.9116,0.22222 2.31615,0.66665c0.40454,0.43873 0.60681,0.98572 0.60681,1.64096c0,1.64666 -0.97432,2.46999 -2.92296,2.46999zM229.56449,177.30779h-1.07688v2.3247h1.07688c0.65524,0 1.10253,-0.10256 1.34184,-0.30768c0.23931,-0.21082 0.35896,-0.49856 0.35896,-0.86322c0,-0.2564 -0.06837,-0.48431 -0.20512,-0.68374c-0.13105,-0.19943 -0.31054,-0.32762 -0.53845,-0.3846c-0.22222,-0.05698 -0.54129,-0.08546 -0.95723,-0.08546zM234.08355,182.8375v-3.7349c0,-0.65524 0.23931,-0.98287 0.71793,-0.98287c0.46152,0 0.69798,0.30198 0.70937,0.90595c0.30199,-0.60397 0.72077,-0.90595 1.25636,-0.90595c0.27919,0 0.56978,0.07407 0.87176,0.22222c0.30199,0.14814 0.45298,0.35041 0.45298,0.60681c0,0.17663 -0.06268,0.32477 -0.18803,0.44443c-0.11965,0.11395 -0.24785,0.17093 -0.3846,0.17093c-0.07977,0 -0.22222,-0.03134 -0.42733,-0.09402c-0.20512,-0.06268 -0.37605,-0.09401 -0.5128,-0.09401c-0.34757,0 -0.60681,0.17663 -0.77775,0.52989c-0.17094,0.34756 -0.2564,1.0256 -0.2564,2.03411v0.84613c0,0.37036 -0.0171,0.62105 -0.05128,0.7521c-0.02849,0.13105 -0.10825,0.25071 -0.23931,0.35897c-0.12535,0.10256 -0.27065,0.15384 -0.43588,0.15384c-0.16523,0 -0.31337,-0.04843 -0.44442,-0.14529c-0.12535,-0.09686 -0.20513,-0.20797 -0.23931,-0.33332c-0.03418,-0.13105 -0.05128,-0.37606 -0.05128,-0.73502zM239.6186,176.01724c0.19373,0 0.35896,0.07122 0.49571,0.21366c0.13675,0.14245 0.20512,0.30768 0.20512,0.49571c0,0.19372 -0.06838,0.36181 -0.20512,0.50426c-0.13675,0.13675 -0.30199,0.20512 -0.49571,0.20512c-0.19373,0 -0.36181,-0.06838 -0.50426,-0.20512c-0.13675,-0.14245 -0.20512,-0.31053 -0.20512,-0.50426c0,-0.19372 0.06837,-0.35896 0.20512,-0.49571c0.14244,-0.14245 0.31053,-0.21366 0.50426,-0.21366zM240.34507,179.30771v3.52979c0,0.35327 -0.0171,0.59542 -0.05128,0.72647c-0.02849,0.12535 -0.11111,0.23931 -0.24786,0.34187c-0.13105,0.09686 -0.27349,0.14529 -0.42733,0.14529c-0.15384,0 -0.29913,-0.04843 -0.43588,-0.14529c-0.13675,-0.10256 -0.22222,-0.21936 -0.2564,-0.35041c-0.02849,-0.13105 -0.04273,-0.37036 -0.04273,-0.71792v-3.52124c0,-0.31907 0.0114,-0.54414 0.03419,-0.67519c0.02849,-0.13675 0.10825,-0.2564 0.23931,-0.35896c0.13105,-0.10825 0.28204,-0.16238 0.45297,-0.16238c0.17094,0 0.31908,0.04843 0.44443,0.14529c0.12535,0.09116 0.20512,0.21082 0.23931,0.35896c0.03418,0.14245 0.05128,0.37035 0.05128,0.68373zM250.11288,180.28204v2.51273c0,0.34756 -0.01424,0.59257 -0.04273,0.73502c-0.02849,0.13675 -0.10541,0.25925 -0.23076,0.36751c-0.12535,0.10256 -0.27634,0.15384 -0.45297,0.15384c-0.17094,0 -0.31908,-0.05128 -0.44443,-0.15384c-0.12535,-0.10256 -0.20512,-0.22791 -0.23931,-0.37606c-0.03418,-0.15384 -0.05128,-0.396 -0.05128,-0.72647v-2.12812c0,-0.62106 -0.07407,-1.01137 -0.22222,-1.1709c-0.14244,-0.15954 -0.34186,-0.23931 -0.59826,-0.23931c-0.2678,0 -0.49571,0.07407 -0.68373,0.22222c-0.18233,0.14814 -0.30768,0.34187 -0.37605,0.58117c-0.06267,0.23931 -0.09401,0.61251 -0.09401,1.11962v1.61532c0,0.34756 -0.01425,0.59542 -0.04274,0.74356c-0.02849,0.14245 -0.10825,0.26495 -0.23931,0.36751c-0.12535,0.09686 -0.27634,0.14529 -0.45297,0.14529c-0.22222,0 -0.39884,-0.07693 -0.52989,-0.23077c-0.12535,-0.15384 -0.18803,-0.4957 -0.18803,-1.0256v-1.99992c0,-0.56978 -0.04273,-0.96863 -0.1282,-1.19654c-0.08546,-0.22791 -0.31053,-0.34186 -0.67519,-0.34186c-0.37036,0 -0.6638,0.11965 -0.88031,0.35896c-0.21652,0.23931 -0.32477,0.74926 -0.32477,1.52986v1.64951c0,0.34187 -0.0114,0.58117 -0.03419,0.71792c-0.02279,0.13105 -0.09971,0.25356 -0.23076,0.36751c-0.12535,0.11395 -0.27349,0.17093 -0.44443,0.17093c-0.16523,0 -0.31623,-0.04843 -0.45298,-0.14529c-0.13105,-0.10256 -0.21367,-0.22507 -0.24786,-0.36751c-0.02849,-0.14245 -0.04273,-0.39029 -0.04273,-0.74356v-3.52979c0,-0.33617 0.01424,-0.56408 0.04273,-0.68373c0.03418,-0.12535 0.11396,-0.23361 0.23931,-0.32478c0.12535,-0.09116 0.2621,-0.13674 0.41025,-0.13674c0.46722,0 0.70083,0.29628 0.70083,0.88885c0.48431,-0.59257 1.07118,-0.88885 1.76062,-0.88885c0.73502,0 1.27061,0.29628 1.60678,0.88885c0.49571,-0.59257 1.07403,-0.88885 1.73498,-0.88885c0.5128,0 0.94868,0.14244 1.30764,0.42733c0.36466,0.27919 0.54699,0.85752 0.54699,1.73498zM255.59557,181.44439h-2.86314c0.0171,0.54129 0.16524,0.94868 0.44443,1.22218c0.28489,0.2735 0.62676,0.41024 1.0256,0.41024c0.48431,0 0.94299,-0.21366 1.37602,-0.641c0.17663,-0.17663 0.30483,-0.28489 0.3846,-0.32477c0.08546,-0.04559 0.17948,-0.06838 0.28204,-0.06838c0.13105,0 0.24216,0.04273 0.33332,0.1282c0.09687,0.07977 0.14529,0.17948 0.14529,0.29913c0,0.33047 -0.22506,0.67803 -0.67519,1.04269c-0.44443,0.35896 -1.05124,0.53845 -1.82045,0.53845c-0.97432,0 -1.71504,-0.27634 -2.22214,-0.82903c-0.50141,-0.55268 -0.75211,-1.26491 -0.75211,-2.13668c0,-0.88316 0.2507,-1.59823 0.75211,-2.14522c0.5071,-0.54699 1.21079,-0.82048 2.11104,-0.82048c0.85467,0 1.51561,0.25925 1.98283,0.77775c0.46722,0.5128 0.70083,1.07119 0.70083,1.67515c0,0.26779 -0.07692,0.48146 -0.23076,0.641c-0.15384,0.15384 -0.47862,0.23076 -0.97433,0.23076zM252.73244,180.61536h2.65802c-0.0171,-0.48431 -0.15099,-0.85467 -0.40169,-1.11107c-0.25071,-0.2564 -0.55838,-0.38461 -0.92304,-0.38461c-0.7749,0 -1.21933,0.49856 -1.33328,1.49568zM262.73741,177.99153c0,0.22222 0.09401,0.41594 0.28204,0.58117c0.19373,0.16523 0.68374,0.34472 1.47003,0.53844c0.79199,0.18802 1.37887,0.3846 1.76062,0.58972c0.38175,0.20512 0.65525,0.47577 0.82048,0.81194c0.17093,0.33617 0.2564,0.68658 0.2564,1.05124c0,0.72932 -0.27634,1.32758 -0.82903,1.7948c-0.55268,0.46152 -1.30765,0.69229 -2.26488,0.69229c-1.04839,0 -1.83184,-0.25071 -2.35034,-0.75211c-0.5185,-0.50711 -0.77775,-1.02845 -0.77775,-1.56404c0,-0.17663 0.06553,-0.33617 0.19657,-0.47861c0.13674,-0.14245 0.31338,-0.21367 0.52989,-0.21367c0.19373,0 0.33902,0.05983 0.43588,0.17948c0.09687,0.11966 0.21082,0.33616 0.34187,0.64954c0.29629,0.67234 0.82048,1.00851 1.57259,1.00851c0.44443,0 0.82048,-0.10256 1.12816,-0.30768c0.30768,-0.20512 0.46152,-0.48431 0.46152,-0.83757c0,-0.2735 -0.10542,-0.50711 -0.31623,-0.70083c-0.21081,-0.19943 -0.69797,-0.38745 -1.46148,-0.56408c-0.7578,-0.17663 -1.29055,-0.34472 -1.59823,-0.50426c-0.30199,-0.15954 -0.56693,-0.3903 -0.79484,-0.69228c-0.22791,-0.30199 -0.34187,-0.68088 -0.34187,-1.13671c0,-0.66664 0.26209,-1.19653 0.78629,-1.58968c0.5299,-0.39884 1.24782,-0.59827 2.15377,-0.59827c0.92874,0 1.62672,0.21366 2.09394,0.641c0.47292,0.42164 0.70938,0.84612 0.70938,1.27346c0,0.17663 -0.06838,0.34472 -0.20513,0.50426c-0.13674,0.15384 -0.31053,0.23076 -0.52134,0.23076c-0.19373,0 -0.34187,-0.05414 -0.44443,-0.16239c-0.09687,-0.10825 -0.20512,-0.29059 -0.32477,-0.54699c-0.27349,-0.54129 -0.74071,-0.81194 -1.40166,-0.81194c-0.38745,0 -0.71222,0.08547 -0.97432,0.2564c-0.2621,0.16523 -0.39315,0.3846 -0.39315,0.6581zM273.74341,180.36751v2.65802c0,0.68374 -0.24786,1.0256 -0.74357,1.0256c-0.22791,0 -0.40454,-0.07122 -0.52989,-0.21367c-0.11965,-0.14814 -0.17948,-0.41879 -0.17948,-0.81194v-2.3247c0,-0.55268 -0.08831,-0.93159 -0.26494,-1.13671c-0.17663,-0.20512 -0.42164,-0.30768 -0.73502,-0.30768c-0.27919,0 -0.52135,0.07692 -0.72647,0.23076c-0.20512,0.15384 -0.35041,0.34186 -0.43588,0.56408c-0.08546,0.22222 -0.1282,0.61537 -0.1282,1.17945v1.69224c0,0.45583 -0.06553,0.75781 -0.19657,0.90595c-0.13105,0.14814 -0.31053,0.22222 -0.53844,0.22222c-0.22791,0 -0.4074,-0.07122 -0.53844,-0.21367c-0.12535,-0.14814 -0.18803,-0.44727 -0.18803,-0.8974v-5.78611c0,-0.35327 0.01709,-0.59828 0.05128,-0.73502c0.03419,-0.13675 0.11111,-0.24786 0.23076,-0.33332c0.12535,-0.09116 0.27065,-0.13674 0.43588,-0.13674c0.18233,0 0.33332,0.05128 0.45298,0.15384c0.12535,0.09686 0.20512,0.22506 0.23931,0.3846c0.03419,0.15954 0.05128,0.42163 0.05128,0.78629v1.72644c0.49001,-0.58687 1.08258,-0.88031 1.77771,-0.88031c0.58687,0 1.05979,0.18232 1.41875,0.54699c0.36466,0.35896 0.54699,0.92589 0.54699,1.70079zM275.91534,176.01724c0.19373,0 0.35896,0.07122 0.4957,0.21366c0.13674,0.14245 0.20512,0.30768 0.20512,0.49571c0,0.19372 -0.06838,0.36181 -0.20512,0.50426c-0.13674,0.13675 -0.30198,0.20512 -0.4957,0.20512c-0.19373,0 -0.36181,-0.06838 -0.50426,-0.20512c-0.13674,-0.14245 -0.20512,-0.31053 -0.20512,-0.50426c0,-0.19372 0.06838,-0.35896 0.20512,-0.49571c0.14245,-0.14245 0.31053,-0.21366 0.50426,-0.21366zM276.64181,179.30771v3.52979c0,0.35327 -0.01709,0.59542 -0.05128,0.72647c-0.02849,0.12535 -0.11111,0.23931 -0.24785,0.34187c-0.13105,0.09686 -0.27349,0.14529 -0.42733,0.14529c-0.15384,0 -0.29914,-0.04843 -0.43589,-0.14529c-0.13674,-0.10256 -0.22221,-0.21936 -0.2564,-0.35041c-0.02849,-0.13105 -0.04273,-0.37036 -0.04273,-0.71792v-3.52124c0,-0.31907 0.0114,-0.54414 0.03419,-0.67519c0.02849,-0.13675 0.10826,-0.2564 0.23931,-0.35896c0.13105,-0.10825 0.28204,-0.16238 0.45297,-0.16238c0.17093,0 0.31908,0.04843 0.44443,0.14529c0.12535,0.09116 0.20512,0.21082 0.23931,0.35896c0.03419,0.14245 0.05128,0.37035 0.05128,0.68373zM282.21318,181.44439h-2.86314c0.0171,0.54129 0.16523,0.94868 0.44442,1.22218c0.28489,0.2735 0.62676,0.41024 1.02561,0.41024c0.48431,0 0.94298,-0.21366 1.37601,-0.641c0.17663,-0.17663 0.30483,-0.28489 0.3846,-0.32477c0.08546,-0.04559 0.17948,-0.06838 0.28204,-0.06838c0.13105,0 0.24216,0.04273 0.33332,0.1282c0.09687,0.07977 0.1453,0.17948 0.1453,0.29913c0,0.33047 -0.22507,0.67803 -0.67519,1.04269c-0.44443,0.35896 -1.05124,0.53845 -1.82045,0.53845c-0.97432,0 -1.71504,-0.27634 -2.22214,-0.82903c-0.50141,-0.55268 -0.75211,-1.26491 -0.75211,-2.13668c0,-0.88316 0.2507,-1.59823 0.75211,-2.14522c0.5071,-0.54699 1.21079,-0.82048 2.11104,-0.82048c0.85467,0 1.51561,0.25925 1.98283,0.77775c0.46722,0.5128 0.70083,1.07119 0.70083,1.67515c0,0.26779 -0.07692,0.48146 -0.23076,0.641c-0.15384,0.15384 -0.47862,0.23076 -0.97433,0.23076zM279.35004,180.61536h2.65802c-0.0171,-0.48431 -0.15099,-0.85467 -0.40169,-1.11107c-0.25071,-0.2564 -0.55838,-0.38461 -0.92304,-0.38461c-0.7749,0 -1.21933,0.49856 -1.33328,1.49568zM286.10727,177.15395v5.68355c0,0.35327 -0.01709,0.59542 -0.05128,0.72647c-0.02849,0.12535 -0.11111,0.23931 -0.24786,0.34187c-0.13105,0.09686 -0.27349,0.14529 -0.42733,0.14529c-0.15384,0 -0.29914,-0.04843 -0.43588,-0.14529c-0.13674,-0.10256 -0.22221,-0.21936 -0.2564,-0.35041c-0.02849,-0.13105 -0.04273,-0.37036 -0.04273,-0.71792v-5.68355c0,-0.35896 0.01709,-0.60112 0.05128,-0.72647c0.03419,-0.13105 0.1168,-0.24216 0.24785,-0.33332c0.13105,-0.09686 0.27349,-0.14529 0.42733,-0.14529c0.17663,0 0.32763,0.05128 0.45298,0.15384c0.13105,0.10256 0.21081,0.22221 0.23931,0.35896c0.02849,0.13675 0.04273,0.36751 0.04273,0.69229zM291.59318,183.21355v-0.14529c-0.50141,0.65524 -1.13671,0.98287 -1.90591,0.98287c-0.74071,0 -1.33328,-0.28204 -1.77772,-0.84612c-0.43873,-0.56978 -0.6581,-1.3048 -0.6581,-2.20505c0,-0.84328 0.21367,-1.53271 0.64101,-2.0683c0.43303,-0.54129 1.02845,-0.81194 1.78626,-0.81194c0.73502,0 1.37317,0.29628 1.91446,0.88885v-1.88882c0,-0.5242 0.06553,-0.84897 0.19657,-0.97432c0.13674,-0.13105 0.31623,-0.19657 0.53844,-0.19657c0.15954,0 0.30484,0.04558 0.43589,0.13674c0.13105,0.09116 0.21081,0.21082 0.2393,0.35896c0.02849,0.14245 0.04274,0.38175 0.04274,0.71792v5.74338c0,0.32477 -0.0171,0.55838 -0.05128,0.70083c-0.02849,0.13675 -0.11111,0.245 -0.24785,0.32477c-0.13105,0.07977 -0.27349,0.11966 -0.42733,0.11966c-0.48431,0 -0.72647,-0.2792 -0.72647,-0.83758zM288.73004,181.04269c0,0.65524 0.13674,1.13386 0.41024,1.43585c0.27919,0.30199 0.59542,0.45297 0.94869,0.45297c0.41024,0 0.74926,-0.15668 1.01705,-0.47006c0.27349,-0.31338 0.41024,-0.75211 0.41024,-1.31619c0,-0.58687 -0.13105,-1.0541 -0.39315,-1.40166c-0.2621,-0.34756 -0.61252,-0.52135 -1.05124,-0.52135c-0.39315,0 -0.71507,0.16239 -0.96578,0.48717c-0.25071,0.31907 -0.37605,0.7635 -0.37605,1.33328zM295.55884,179.63249c0,0.18802 0.09687,0.33617 0.29059,0.44442c0.19373,0.10825 0.63245,0.24501 1.31619,0.41025c1.32189,0.32477 1.98283,0.87461 1.98283,1.64951c0,0.62106 -0.22506,1.09683 -0.67518,1.4273c-0.44443,0.32477 -1.06549,0.48717 -1.86318,0.48717c-0.81479,0 -1.4273,-0.16809 -1.83754,-0.50426c-0.41024,-0.33617 -0.61536,-0.69228 -0.61536,-1.06834c0,-0.15954 0.05698,-0.29629 0.17094,-0.41024c0.11396,-0.11395 0.25355,-0.17093 0.41878,-0.17093c0.22791,0 0.42734,0.14245 0.59827,0.42734c0.19373,0.31338 0.40454,0.52135 0.63245,0.62391c0.23361,0.10256 0.48146,0.15384 0.74356,0.15384c0.29629,0 0.5356,-0.06552 0.71793,-0.19657c0.18233,-0.13105 0.27349,-0.29628 0.27349,-0.4957c0,-0.18233 -0.07693,-0.33902 -0.23077,-0.47007c-0.15384,-0.13105 -0.57832,-0.27634 -1.27345,-0.43588c-0.68943,-0.15954 -1.19369,-0.38175 -1.51277,-0.66664c-0.31907,-0.29059 -0.47861,-0.63245 -0.47861,-1.0256c0,-0.44443 0.19373,-0.83758 0.58118,-1.17944c0.38745,-0.34187 0.96862,-0.5128 1.74352,-0.5128c0.70652,0 1.26776,0.14529 1.6837,0.43588c0.42164,0.28489 0.63245,0.58117 0.63245,0.88885c0,0.16523 -0.05413,0.30484 -0.16239,0.41879c-0.10256,0.11395 -0.24785,0.17093 -0.43588,0.17093c-0.28489,0 -0.54129,-0.16239 -0.7692,-0.48717c-0.22222,-0.32477 -0.56123,-0.48716 -1.01706,-0.48716c-0.245,0 -0.45867,0.05128 -0.641,0.15384c-0.18233,0.09686 -0.27349,0.23646 -0.27349,0.41879z"/></g></g></svg>