<svg version="1.1" xmlns="http://www.w3.org/2000/svg" xmlns:xlink="http://www.w3.org/1999/xlink" width="101.76136" height="83.01136" viewBox="0,0,101.76136,83.01136"><defs><radialGradient cx="240" cy="180" r="22.5" gradientUnits="userSpaceOnUse" id="color-1"><stop offset="0" stop-color="#ffffff"/><stop offset="1" stop-color="#ffffff" stop-opacity="0"/></radialGradient></defs><g transform="translate(-197.64205,-125.18182)"><g data-paper-data="{&quot;isPaintingLayer&quot;:true}" fill-rule="nonzero" stroke="none" stroke-width="0" stroke-linecap="butt" stroke-linejoin="miter" stroke-miterlimit="10" stroke-dasharray="" stroke-dashoffset="0" style="mix-blend-mode: normal"><path d="M217.5,180c0,-12.42641 10.07359,-22.5 22.5,-22.5c12.42641,0 22.5,10.07359 22.5,22.5c0,12.42641 -10.07359,22.5 -22.5,22.5c-12.42641,0 -22.5,-10.07359 -22.5,-22.5z" fill="url(#color-1)"/><path d="M299.40341,166.6875c0,-22.92296 -22.78006,-41.50568 -50.88068,-41.50568c-28.10062,0 -50.88068,18.58273 -50.88068,41.50568c0,22.92296 22.78006,41.50568 50.88068,41.50568c28.10062,0 50.88068,-18.58273 50.88068,-41.50568z" fill="none"/><ellipse cx="410.625" cy="392.52273" transform="scale(0.5,0.5)" rx="0" ry="0" fill="none"/></g></g></svg>