<svg version="1.1" xmlns="http://www.w3.org/2000/svg" xmlns:xlink="http://www.w3.org/1999/xlink" width="509.73907" height="327.59106" viewBox="0,0,509.73907,327.59106"><g transform="translate(17.62528,-5.62368)"><g data-paper-data="{&quot;isPaintingLayer&quot;:true}" fill-rule="nonzero" stroke-linecap="butt" stroke-linejoin="miter" stroke-miterlimit="10" stroke-dasharray="" stroke-dashoffset="0" style="mix-blend-mode: normal"><path d="M-6.02367,120.86766c10.71836,12.19863 65.81893,12.75773 65.81893,12.75773c0,0 -12.49885,-19.9785 -20.20806,-29.91592c-7.65597,-9.8688 -25.88863,-29.50414 -25.88863,-29.50414c0,0 24.90753,15.34332 54.33607,18.22779c18.22214,1.78606 31.56109,-14.22039 49.65177,-12.44722c13.45869,1.31916 31.6352,30.28275 53.04491,30.4895c16.9158,0.16335 24.61867,6.19724 36.86017,7.11575c6.65312,0.4992 -10.06667,-12.46972 -19.94663,-17.7512c-9.87996,-5.28149 -17.93298,-2.37193 -29.75021,-8.81502c-11.20288,-6.10813 -19.09587,-25.22164 -19.09587,-25.22164c0,0 26.50864,14.29381 57.53691,19.11278c22.58703,3.50796 41.60793,25.70235 54.38124,27.51212c13.17232,1.86631 37.23386,-12.5907 61.81809,-11.42126c14.29634,0.68006 78.81874,14.37067 78.81874,14.37067c0,0 -27.50248,-21.96478 -38.40597,-37.62953c-8.12192,-11.66854 -15.65253,-27.12267 -15.65253,-27.12267c0,0 16.74203,20.60677 45.9979,29.00012c21.06721,6.04407 58.66991,42.427 58.66991,42.427c0,0 -9.37239,-25.86626 -11.15544,-43.17922c-0.88466,-8.5897 -0.42758,-20.1855 0.25761,-29.69007c0.69585,-9.65236 1.62696,-17.14795 1.62696,-17.14795c0,0 9.52702,33.70645 15.75068,48.14693c5.08977,11.8096 26.87838,38.20143 26.87838,38.20143c0,0 -7.30333,-18.71288 -10.37787,-38.05491c-3.44509,-21.67316 -6.60291,-44.13628 -4.50413,-41.94754c3.17548,3.31159 11.97703,20.41932 21.06224,39.02738c0,9.87282 0,19.74564 0,29.61845c0,6.81342 -0.83223,13.98996 0.07492,20.74135c0.16413,1.22151 0.53516,2.40224 0.88662,3.58764c0.07166,1.49277 0.43836,2.78558 0.73007,3.6009c0.04293,1.72829 -0.36602,3.49935 -0.06098,5.20346c0.27889,1.55795 1.14325,2.96286 1.5015,4.5045c0.34994,1.50588 0.18567,3.91466 0.03093,6.01869c-0.00824,0.03902 -0.01577,0.07723 -0.02254,0.11461c-0.06841,0.37769 -0.07836,0.76078 -0.06793,1.14587c-0.04077,0.61231 -0.06958,1.16843 -0.06958,1.62953c0,0.3932 -0.00077,0.78444 -0.0023,1.17383c-0.52871,3.29704 -1.59138,6.50777 -1.95524,9.82779c-0.50203,4.58086 -0.03407,9.21652 -0.03407,13.8248c0,4.74068 -0.57211,9.52552 0.07492,14.22183c0.09316,0.67613 0.24589,1.34117 0.4272,2.00078c0.179,4.74443 0.61094,10.20021 0.95805,14.31678c-0.19617,1.33076 -0.37444,2.6259 -0.44085,3.83924c-0.19351,3.53517 -0.01288,7.08092 -0.01932,10.62138c0,6.45721 -0.82141,13.20461 0.12912,19.60182c0.14078,0.94743 0.96381,1.75156 0.95721,2.70937c-0.04416,6.40551 -1.57898,12.80123 -1.07392,19.18695c0.30635,3.87332 0.62091,7.75272 1.20876,11.59341c0.40058,2.61716 1.50316,5.10381 1.8129,7.73327c0.45709,3.8804 -0.81905,7.77509 -1.02166,11.67705c-0.06831,1.31554 -0.12528,2.6329 -0.17234,3.95177c-5.45765,0.62493 -20.98264,2.28702 -27.90688,1.81812c-6.68298,-0.45256 -16.92658,-5.21398 -16.92658,-5.21398c0,0 -2.14146,4.36568 -3.434,9.30922c-1.26333,4.83179 -1.67099,10.21561 -2.29826,12.61471c-0.63095,2.41319 -1.41699,5.41949 -1.41699,5.41949c0,0 -5.72811,-1.64364 -13.85013,-14.76238c-5.19804,-8.39589 -8.31495,-22.95687 -8.31495,-22.95687c0,0 -57.19574,29.40853 -76.6994,26.75111c-12.2565,-1.66998 21.11779,-44.36708 11.20986,-43.49839c-24.39268,2.13866 -98.06367,37.68398 -129.48621,51.30118c-9.10534,3.94587 -10.03475,-0.84169 -4.7605,-4.26975c11.61129,-7.5469 30.79223,-20.50281 34.59661,-26.10681c4.06858,-5.99318 3.59093,-11.60084 3.59093,-11.60084c0,0 -38.07378,5.55073 -54.37043,10.51437c-19.99309,6.0895 -65.78155,25.34037 -65.78155,25.34037c0,0 4.06864,-9.50992 5.58263,-13.21514c1.48737,-3.64005 3.42286,-8.82412 3.42286,-8.82412l-23.90463,13.34754c0,0 14.18612,-14.3153 19.36398,-20.39785c4.19033,-4.92248 9.37221,-13.35919 9.37221,-13.35919c0,0 -95.94398,47.62521 -111.65328,55.20128c-5.43659,2.62188 -9.61684,-2.75061 -5.78569,-5.90076c5.028,-4.13427 12.5895,-10.17296 20.67427,-15.99399c8.73904,-6.29212 27.33676,-13.70629 32.33077,-18.02417c10.5644,-9.13412 13.59243,-23.72139 13.59243,-23.72139c0,0 -26.00621,7.14277 -38.50428,12.42328c-13.1948,5.57488 -38.68776,20.19082 -38.68776,20.19082l4.54407,-32.99615l-18.32024,14.31644c-0.07062,-0.54462 -0.16849,-1.09709 -0.29782,-1.65912c-0.52059,-2.26226 -1.7572,-4.56506 -2.87814,-6.81171c0.07324,-1.27445 0.12746,-2.54986 0.1561,-3.82654c0.11836,-5.27514 -1.27119,-10.26266 -1.00392,-15.55038c0.35222,-6.9685 1.85711,-14.00583 0.87574,-20.91387c-0.14826,-1.04361 -0.83212,-1.95936 -1,-3c-0.57244,-3.54833 0.29089,-7.19171 0.12176,-10.78194c-0.48445,-10.28359 -0.99263,-17.37786 -0.99263,-27.61623c0,-4.73289 0.48585,-10.891 -0.03407,-15.82481c-0.55186,-5.2369 -1.5682,-10.42343 -1.97834,-15.67333c-0.26031,-3.33197 0.43077,-6.78869 -0.11671,-10.10369c-0.5447,-3.29815 -2.47266,-6.31141 -2.9458,-9.62001c-0.44069,-3.08169 -0.55784,-8.05448 -0.0542,-11.17634c0.16788,-1.04064 0.87495,-1.95335 1,-3c0.10576,-0.88517 0.17548,-1.6454 0.21274,-2.32134c0.51028,0.3321 0.97393,0.72523 1.37982,1.18718z" fill="#cb2411" stroke="#000000" stroke-width="10.5"/><path d="M-6.02367,120.86766c10.71836,12.19863 65.81893,12.75773 65.81893,12.75773c0,0 -12.49885,-19.9785 -20.20806,-29.91592c-7.65597,-9.8688 -25.88863,-29.50414 -25.88863,-29.50414c0,0 24.90753,15.34332 54.33607,18.22779c18.22214,1.78606 31.56109,-14.22039 49.65177,-12.44722c13.45869,1.31916 31.6352,30.28275 53.04491,30.4895c16.9158,0.16335 24.61867,6.19724 36.86017,7.11575c6.65312,0.4992 -10.06667,-12.46972 -19.94663,-17.7512c-9.87996,-5.28149 -17.93298,-2.37193 -29.75021,-8.81502c-11.20288,-6.10813 -19.09587,-25.22164 -19.09587,-25.22164c0,0 26.50864,14.29381 57.53691,19.11278c22.58703,3.50796 41.60793,25.70235 54.38124,27.51212c13.17232,1.86631 37.23386,-12.5907 61.81809,-11.42126c14.29634,0.68006 78.81874,14.37067 78.81874,14.37067c0,0 -27.50248,-21.96478 -38.40597,-37.62953c-8.12192,-11.66854 -15.65253,-27.12267 -15.65253,-27.12267c0,0 16.74203,20.60677 45.9979,29.00012c21.06721,6.04407 58.66991,42.427 58.66991,42.427c0,0 -9.37239,-25.86626 -11.15544,-43.17922c-0.88466,-8.5897 -0.42758,-20.1855 0.25761,-29.69007c0.69585,-9.65236 1.62696,-17.14795 1.62696,-17.14795c0,0 9.52702,33.70645 15.75068,48.14693c5.08977,11.8096 26.87838,38.20143 26.87838,38.20143c0,0 -7.30333,-18.71288 -10.37787,-38.05491c-3.44509,-21.67316 -6.60291,-44.13628 -4.50413,-41.94754c3.17548,3.31159 11.97703,20.41932 21.06224,39.02738c0,9.87282 0,19.74564 0,29.61845c0,6.81342 -0.83223,13.98996 0.07492,20.74135c0.16413,1.22151 0.53516,2.40224 0.88662,3.58764c0.07166,1.49277 0.43836,2.78558 0.73007,3.6009c0.04293,1.72829 -0.36602,3.49935 -0.06098,5.20346c0.27889,1.55795 1.14325,2.96286 1.5015,4.5045c0.34994,1.50588 0.18567,3.91466 0.03093,6.01869c-0.00824,0.03902 -0.01577,0.07723 -0.02254,0.11461c-0.06841,0.37769 -0.07836,0.76078 -0.06793,1.14587c-0.04077,0.61231 -0.06958,1.16843 -0.06958,1.62953c0,0.3932 -0.00077,0.78444 -0.0023,1.17383c-0.52871,3.29704 -1.59138,6.50777 -1.95524,9.82779c-0.50203,4.58086 -0.03407,9.21652 -0.03407,13.8248c0,4.74068 -0.57211,9.52552 0.07492,14.22183c0.09316,0.67613 0.24589,1.34117 0.4272,2.00078c0.179,4.74443 0.61094,10.20021 0.95805,14.31678c-0.19617,1.33076 -0.37444,2.6259 -0.44085,3.83924c-0.19351,3.53517 -0.01288,7.08092 -0.01932,10.62138c0,6.45721 -0.82141,13.20461 0.12912,19.60182c0.14078,0.94743 0.96381,1.75156 0.95721,2.70937c-0.04416,6.40551 -1.57898,12.80123 -1.07392,19.18695c0.30635,3.87332 0.62091,7.75272 1.20876,11.59341c0.40058,2.61716 1.50316,5.10381 1.8129,7.73327c0.45709,3.8804 -0.81905,7.77509 -1.02166,11.67705c-0.06831,1.31554 -0.12528,2.6329 -0.17234,3.95177c-5.45765,0.62493 -20.98264,2.28702 -27.90688,1.81812c-6.68298,-0.45256 -16.92658,-5.21398 -16.92658,-5.21398c0,0 -2.14146,4.36568 -3.434,9.30922c-1.26333,4.83179 -1.67099,10.21561 -2.29826,12.61471c-0.63095,2.41319 -1.41699,5.41949 -1.41699,5.41949c0,0 -5.72811,-1.64364 -13.85013,-14.76238c-5.19804,-8.39589 -8.31495,-22.95687 -8.31495,-22.95687c0,0 -57.19574,29.40853 -76.6994,26.75111c-12.2565,-1.66998 21.11779,-44.36708 11.20986,-43.49839c-24.39268,2.13866 -98.06367,37.68398 -129.48621,51.30118c-9.10534,3.94587 -10.03475,-0.84169 -4.7605,-4.26975c11.61129,-7.5469 30.79223,-20.50281 34.59661,-26.10681c4.06858,-5.99318 3.59093,-11.60084 3.59093,-11.60084c0,0 -38.07378,5.55073 -54.37043,10.51437c-19.99309,6.0895 -65.78155,25.34037 -65.78155,25.34037c0,0 4.06864,-9.50992 5.58263,-13.21514c1.48737,-3.64005 3.42286,-8.82412 3.42286,-8.82412l-23.90463,13.34754c0,0 14.18612,-14.3153 19.36398,-20.39785c4.19033,-4.92248 9.37221,-13.35919 9.37221,-13.35919c0,0 -95.94398,47.62521 -111.65328,55.20128c-5.43659,2.62188 -9.61684,-2.75061 -5.78569,-5.90076c5.028,-4.13427 12.5895,-10.17296 20.67427,-15.99399c8.73904,-6.29212 27.33676,-13.70629 32.33077,-18.02417c10.5644,-9.13412 13.59243,-23.72139 13.59243,-23.72139c0,0 -26.00621,7.14277 -38.50428,12.42328c-13.1948,5.57488 -38.68776,20.19082 -38.68776,20.19082l4.54407,-32.99615l-18.32024,14.31644c-0.07062,-0.54462 -0.16849,-1.09709 -0.29782,-1.65912c-0.52059,-2.26226 -1.7572,-4.56506 -2.87814,-6.81171c0.07324,-1.27445 0.12746,-2.54986 0.1561,-3.82654c0.11836,-5.27514 -1.27119,-10.26266 -1.00392,-15.55038c0.35222,-6.9685 1.85711,-14.00583 0.87574,-20.91387c-0.14826,-1.04361 -0.83212,-1.95936 -1,-3c-0.57244,-3.54833 0.29089,-7.19171 0.12176,-10.78194c-0.48445,-10.28359 -0.99263,-17.37786 -0.99263,-27.61623c0,-4.73289 0.48585,-10.891 -0.03407,-15.82481c-0.55186,-5.2369 -1.5682,-10.42343 -1.97834,-15.67333c-0.26031,-3.33197 0.43077,-6.78869 -0.11671,-10.10369c-0.5447,-3.29815 -2.47266,-6.31141 -2.9458,-9.62001c-0.44069,-3.08169 -0.55784,-8.05448 -0.0542,-11.17634c0.16788,-1.04064 0.87495,-1.95335 1,-3c0.10576,-0.88517 0.17548,-1.6454 0.21274,-2.32134c0.51028,0.3321 0.97393,0.72523 1.37982,1.18718z" fill="#cb2411" stroke="#95392c" stroke-width="4.5"/><path d="M-6.02368,120.86765c10.71836,12.19863 65.81893,12.75773 65.81893,12.75773c0,0 -12.49885,-19.9785 -20.20806,-29.91592c-7.65597,-9.8688 -25.88863,-29.50414 -25.88863,-29.50414c0,0 24.90753,15.34332 54.33607,18.22779c18.22214,1.78606 31.56109,-14.22039 49.65177,-12.44722c13.45869,1.31916 31.6352,30.28275 53.04491,30.4895c16.9158,0.16335 24.61867,6.19724 36.86017,7.11575c6.65312,0.4992 -10.06667,-12.46972 -19.94663,-17.7512c-9.87996,-5.28149 -17.93298,-2.37193 -29.75021,-8.81502c-11.20288,-6.10813 -19.09587,-25.22164 -19.09587,-25.22164c0,0 26.50864,14.29381 57.53691,19.11278c22.58703,3.50796 41.60793,25.70235 54.38124,27.51212c13.17232,1.86631 37.23386,-12.5907 61.81809,-11.42126c14.29634,0.68006 78.81874,14.37067 78.81874,14.37067c0,0 -27.50248,-21.96478 -38.40597,-37.62953c-8.12192,-11.66854 -15.65253,-27.12267 -15.65253,-27.12267c0,0 16.74203,20.60677 45.9979,29.00012c21.06721,6.04407 58.66991,42.427 58.66991,42.427c0,0 -9.37239,-25.86626 -11.15544,-43.17922c-0.88466,-8.5897 -0.42758,-20.1855 0.25761,-29.69007c0.69585,-9.65236 1.62696,-17.14795 1.62696,-17.14795c0,0 9.52702,33.70645 15.75068,48.14693c5.08977,11.8096 26.87838,38.20143 26.87838,38.20143c0,0 -7.30333,-18.71288 -10.37787,-38.05491c-3.44509,-21.67316 -6.60291,-44.13628 -4.50413,-41.94754c3.17549,3.31159 11.97704,20.41934 21.06225,39.02741c0,9.87282 0,19.74563 0,29.61844c0,6.81342 -0.83223,13.98996 0.07492,20.74135c0.16413,1.22151 0.53516,2.40224 0.88662,3.58764c0.07166,1.49277 0.43836,2.78558 0.73007,3.6009c0.04293,1.72829 -0.36602,3.49935 -0.06098,5.20346c0.27889,1.55795 1.14325,2.96286 1.5015,4.5045c0.34994,1.50588 0.18567,3.91466 0.03093,6.01869c-0.00824,0.03902 -0.01577,0.07723 -0.02254,0.11461c-0.06841,0.37769 -0.07836,0.76078 -0.06793,1.14587c-0.04077,0.61231 -0.06958,1.16843 -0.06958,1.62953c0,0.3932 -0.00077,0.78444 -0.0023,1.17383c-0.52871,3.29704 -1.59138,6.50777 -1.95524,9.82779c-0.50203,4.58086 -0.03407,9.21652 -0.03407,13.8248c0,4.74068 -0.57211,9.52552 0.07492,14.22183c0.09316,0.67613 0.24589,1.34117 0.4272,2.00078c0.179,4.74443 0.61094,10.20021 0.95805,14.31678c-0.19617,1.33076 -0.37444,2.6259 -0.44085,3.83924c-0.19351,3.53517 -0.01288,7.08092 -0.01932,10.62138c0,6.45721 -0.82141,13.20461 0.12912,19.60182c0.14078,0.94743 0.96381,1.75156 0.95721,2.70937c-0.04416,6.40551 -1.57898,12.80123 -1.07392,19.18695c0.30635,3.87332 0.62091,7.75272 1.20876,11.59341c0.40058,2.61716 1.50316,5.10381 1.8129,7.73327c0.45709,3.8804 -0.81905,7.77509 -1.02166,11.67705c-0.06831,1.31554 -0.12528,2.63288 -0.17234,3.95176c-5.45765,0.62493 -20.98266,2.28704 -27.9069,1.81813c-6.68298,-0.45257 -16.92658,-5.21398 -16.92658,-5.21398c0,0 -2.14146,4.36568 -3.434,9.30922c-1.26333,4.83179 -1.67099,10.21561 -2.29826,12.61471c-0.63096,2.41319 -1.41699,5.4195 -1.41699,5.4195c0,0 -5.7281,-1.64365 -13.85013,-14.76238c-5.19803,-8.39589 -8.31495,-22.95687 -8.31495,-22.95687c0,0 -57.19574,29.40853 -76.6994,26.75111c-12.2565,-1.66998 21.11779,-44.36708 11.20986,-43.49839c-24.39268,2.13865 -98.06367,37.68398 -129.48621,51.30118c-9.10534,3.94587 -10.03475,-0.84169 -4.7605,-4.26975c11.61129,-7.5469 30.79223,-20.50282 34.59661,-26.10681c4.06858,-5.99318 3.59093,-11.60084 3.59093,-11.60084c0,0 -38.07378,5.55073 -54.37043,10.51437c-19.99309,6.08951 -65.78155,25.34037 -65.78155,25.34037c0,0 4.06864,-9.50992 5.58263,-13.21514c1.48737,-3.64005 3.42286,-8.82412 3.42286,-8.82412l-23.90463,13.34754c0,0 14.18612,-14.3153 19.36398,-20.39785c4.19033,-4.92247 9.37221,-13.35919 9.37221,-13.35919c0,0 -95.94398,47.62521 -111.65328,55.20128c-5.43659,2.62188 -9.61684,-2.75061 -5.78569,-5.90076c5.028,-4.13427 12.5895,-10.17296 20.67427,-15.994c8.73904,-6.29211 27.33676,-13.70628 32.33077,-18.02416c10.5644,-9.13412 13.59243,-23.72139 13.59243,-23.72139c0,0 -26.00621,7.14277 -38.50428,12.42328c-13.1948,5.57488 -38.68776,20.19083 -38.68776,20.19083l4.54407,-32.99615l-18.32022,14.31642c-0.07062,-0.54461 -0.16849,-1.09708 -0.29782,-1.65911c-0.52059,-2.26226 -1.7572,-4.56506 -2.87814,-6.81171c0.07324,-1.27445 0.12746,-2.54986 0.1561,-3.82654c0.11836,-5.27514 -1.27119,-10.26266 -1.00392,-15.55038c0.35222,-6.9685 1.85711,-14.00583 0.87574,-20.91387c-0.14826,-1.04361 -0.83212,-1.95936 -1,-3c-0.57244,-3.54833 0.29089,-7.19171 0.12176,-10.78194c-0.48445,-10.28359 -0.99263,-17.37786 -0.99263,-27.61623c0,-4.73289 0.48585,-10.891 -0.03407,-15.82481c-0.55186,-5.2369 -1.5682,-10.42343 -1.97834,-15.67333c-0.26031,-3.33197 0.43077,-6.78869 -0.11671,-10.10369c-0.5447,-3.29815 -2.47266,-6.31141 -2.9458,-9.62001c-0.44069,-3.08169 -0.55784,-8.05448 -0.0542,-11.17634c0.16788,-1.04064 0.87495,-1.95335 1,-3c0.10576,-0.88517 0.17548,-1.6454 0.21274,-2.32135c0.51028,0.3321 0.97393,0.72523 1.37981,1.18717z" fill="#cb2411" stroke="none" stroke-width="0"/><path d="M33.60526,160.67395c14.35276,-1.55979 27.55392,-6.62193 32.92945,-6.81154c6.77068,-0.23881 15.16608,0.84206 15.16608,0.84206c0,0 -0.82326,-4.64257 -1.77843,-7.0636c-0.54048,-1.36994 -1.65878,-3.51887 -2.61141,-5.27243c-0.88672,-1.63225 -0.24481,-2.95205 1.51602,-2.94334c1.98817,0.00983 3.6886,-0.26571 5.94863,0.27716c2.26003,0.54287 8.82805,3.27227 8.82805,3.27227c0,0 -4.10662,-10.42103 -5.17679,-13.13671c-0.481,-1.22058 -0.13737,-2.15132 1.49284,-1.27842c10.91628,5.84515 54.1982,28.30072 73.81993,27.72734c1.22083,-0.03567 -8.91545,-4.08482 -17.14674,-10.04046c-3.28999,-2.38043 -8.87212,-6.3328 -10.97274,-8.99825c-2.59415,-3.29169 -1.2068,-5.01811 0.45019,-4.15915c0.82778,0.4291 28.65692,20.53754 55.7635,29.92824c11.30377,3.91604 22.46764,2.28523 31.02295,2.09672c13.06507,-0.28788 20.94255,6.59112 29.83742,5.4156c1.32849,-0.17557 -6.16488,-4.04393 -16.24772,-7.43945c-6.88492,-2.31858 -15.43126,-3.81075 -21.41167,-6.14376c-2.60374,-1.01574 -4.77755,-2.28375 -6.42755,-3.41735c-2.30926,-1.58653 -5.12051,-2.76787 -3.0871,-3.03891c3.11291,-0.41493 28.78016,-1.42191 43.10977,-3.33196c14.34514,-1.91212 73.49555,12.81019 93.54084,14.13728c17.81517,1.17945 43.10948,0.95088 43.10948,0.95088c0,0 -42.35495,-12.81963 -37.53513,-15.66691c0.6174,-0.36473 4.05406,-0.75319 2.70103,-2.91432c-2.18335,-3.48739 -8.51674,-5.07418 -13.47172,-10.27332c-3.63552,-3.81466 -6.97543,-8.46101 -9.41764,-12.17387c-2.47852,-3.76806 -1.80347,-6.54978 1.01641,-6.51833c4.60881,0.05141 62.43065,44.84732 97.46675,39.05366c10.38517,-1.71732 -12.85804,-17.63053 -12.85804,-17.63053c0,0 28.54477,8.54035 41.68301,10.0371c8.82643,1.00554 23.4096,-0.40744 29.83995,-1.13548c0.25372,1.51177 0.10264,3.71564 -0.04032,5.6594c-0.00824,0.03902 -0.01577,0.07723 -0.02254,0.11461c-0.06841,0.37769 -0.07836,0.76078 -0.06793,1.14587c-0.04077,0.61231 -0.06958,1.16843 -0.06958,1.62953c0,0.3932 -0.00077,0.78444 -0.0023,1.17383c-0.52871,3.29704 -1.59138,6.50777 -1.95524,9.82779c-0.50203,4.58086 -0.03407,9.21652 -0.03407,13.8248c0,4.74068 -0.57211,9.52552 0.07492,14.22183c0.09316,0.67613 0.24589,1.34117 0.4272,2.00078c0.179,4.74443 0.61094,10.20021 0.95805,14.31678c-0.19617,1.33076 -0.37444,2.6259 -0.44085,3.83924c-0.19351,3.53517 -0.01288,7.08092 -0.01932,10.62138c0,4.56999 -0.41143,9.28533 -0.31497,13.919c-10.27412,1.95849 -34.588,6.74966 -44.88092,10.12245c-19.06824,6.2483 -64.84345,24.88638 -64.84345,24.88638c0,0 8.74033,-14.01482 16.33316,-21.17526c7.59283,-7.16045 20.63112,-13.68404 20.63112,-13.68404c0,0 -29.71824,4.35194 -45.58323,7.20905c-17.32999,3.12095 -54.39038,10.79513 -54.39038,10.79513c0,0 2.46946,-6.18869 3.38084,-9.05256c0.82307,-2.58636 1.84958,-7.38314 1.84958,-7.38314c0,0 -40.76027,4.70568 -75.20017,12.42503c-33.78352,7.57223 -76.18328,17.1576 -83.86204,17.49557c-6.82569,0.30042 0.7142,-16.45926 0.7142,-16.45926c0,0 -22.92949,7.88227 -27.63861,9.50108c-1.61671,0.55576 -2.52933,-0.29166 -1.68316,-2.23072c0.91541,-2.09774 1.96878,-4.81291 2.3872,-7.02631c0.49167,-2.60084 0.21722,-5.0937 -0.07106,-6.64071c-0.18383,-0.98652 -1.48437,-1.59936 -3.46606,-1.60806c-10.50199,-0.04608 -45.45479,-0.02863 -69.06565,2.01986c-21.97176,1.90628 -49.26322,6.88508 -60.07953,8.95741c-0.19347,-1.89844 -0.32035,-3.80823 -0.22175,-5.75886c0.35222,-6.9685 1.85711,-14.00583 0.87574,-20.91387c-0.14826,-1.04361 -0.83212,-1.95936 -1,-3c-0.57244,-3.54833 0.29089,-7.19171 0.12176,-10.78194c-0.48445,-10.28359 -0.99263,-17.37786 -0.99263,-27.61623c0,-4.73289 0.48585,-10.891 -0.03407,-15.82481c-0.32073,-3.04363 -0.79836,-6.07025 -1.22269,-9.10219c8.16999,-1.76624 23.82341,-0.22047 38.34913,-1.79906z" data-paper-data="{&quot;index&quot;:null}" fill="#eec0b1" stroke="none" stroke-width="0"/><path d="M221.5,314.91952v-225.96697h60v225.96697z" fill="none" stroke="none" stroke-width="NaN"/></g></g></svg>