<svg version="1.1" xmlns="http://www.w3.org/2000/svg" xmlns:xlink="http://www.w3.org/1999/xlink" width="304.3003" height="304.30025" viewBox="0,0,304.3003,304.30025"><g transform="translate(-92.84985,-32.84988)"><g data-paper-data="{&quot;isPaintingLayer&quot;:true}" stroke-miterlimit="10" stroke-dasharray="" stroke-dashoffset="0" style="mix-blend-mode: normal"><path d="M251.19056,249.82758c-33.59046,-13.63109 -25.1395,-41.37538 -25.1395,-41.37538c0,0 26.03837,-26.43427 45.49052,-26.43427c19.25264,0 70.63001,26.43427 70.63001,26.43427c0,0 11.48962,21.89619 -2.4865,31.23943c-22.7729,15.22402 -68.85434,18.10599 -88.49454,10.13595z" fill="#94c9db" fill-rule="nonzero" stroke="none" stroke-width="0" stroke-linecap="butt" stroke-linejoin="miter"/><path d="M259.57038,220.91705c-2.72057,-12.92273 19.27172,-16.66737 37.91234,-12.19322c26.17019,6.28142 29.49666,20.07232 25.53497,21.77018c-8.33775,3.57332 -58.26378,15.04475 -63.4473,-9.57695z" fill="#fefefe" fill-rule="nonzero" stroke="none" stroke-width="0" stroke-linecap="butt" stroke-linejoin="miter"/><path d="M339.43799,193.78274c0,0 21.47336,5.60174 25.20785,23.3406c3.73449,17.73886 -11.20348,49.79327 -69.08817,60.99676c-75.31234,15.5604 -111.10125,-29.25355 -90.25032,-62.2416c20.85093,-33.29925 56.63985,-4.97932 82.78133,-6.84658c22.40697,-1.55604 24.89664,-21.16214 51.34932,-15.24919z" fill="#ffffff" fill-rule="evenodd" stroke="none" stroke-width="15" stroke-linecap="butt" stroke-linejoin="miter"/><path d="M251.91798,227.082c0,-1.24483 1.24484,-2.17846 2.48967,-1.86725c5.91295,2.17846 22.71818,7.15779 41.39066,8.40262c16.80523,0.93363 26.76389,0 31.43201,-0.93363c1.55604,-0.31121 2.80087,1.24483 2.17845,2.80087c-2.80087,8.40261 -14.62678,31.74322 -47.30362,29.87597c-28.31993,-3.11208 -31.1208,-23.02939 -30.18717,-38.27858z" fill="#ffffff" fill-rule="evenodd" stroke="#001026" stroke-width="15" stroke-linecap="round" stroke-linejoin="round"/><path d="M297.35434,200.94053c6.53537,0 13.38194,0.62241 13.69315,2.80087c0.31121,4.35691 -4.35691,13.07073 -9.33624,13.38194c-5.60174,0.62241 -18.67248,-7.15779 -18.67248,-12.13712c-0.31121,-3.73449 8.09141,-4.0457 14.31557,-4.0457z" fill="#001026" fill-rule="evenodd" stroke="#001026" stroke-width="15" stroke-linecap="round" stroke-linejoin="round"/><g fill-rule="evenodd" stroke-width="15"><path d="M334.07689,164.52919c9.02503,14.00436 9.33624,29.87597 0.62241,35.47771c-8.71382,5.60174 -23.02939,-0.93362 -32.36563,-14.93798c-9.02503,-14.00436 -9.33624,-29.87597 -0.62242,-35.47771c8.71382,-5.91295 23.3406,0.93362 32.36563,14.93798z" fill="#ffffff" stroke="#001026" stroke-linecap="round" stroke-linejoin="round"/><path d="M332.83205,182.26806c0,3.42329 -2.48966,6.22416 -5.60174,6.22416c-3.11208,0 -5.60175,-2.80087 -5.60175,-6.22416c0,-3.42329 2.48967,-6.22416 5.60175,-6.22416c3.11208,0 5.60174,2.80087 5.60174,6.22416" fill="#001026" stroke="none" stroke-linecap="butt" stroke-linejoin="miter"/></g><g fill-rule="evenodd" stroke-width="15"><path d="M256.8973,173.24302c9.33624,13.69315 8.71382,30.49838 0.3112,36.41133c-10.26986,5.91295 -23.96301,1.55604 -33.29925,-12.13711c-9.64745,-13.69315 -10.26987,-31.43201 -0.62242,-38.27858c9.64745,-7.15778 24.27423,0.31121 33.61047,14.00436z" fill="#ffffff" stroke="#001026" stroke-linecap="round" stroke-linejoin="round"/><path d="M255.03006,191.29309c0,3.42329 -2.48967,6.22416 -5.60174,6.22416c-3.11208,0 -5.60174,-2.80087 -5.60174,-6.22416c0,-3.42329 2.48966,-6.22416 5.60174,-6.22416c3.11208,0.31121 5.60174,2.80087 5.60174,6.22416" fill="#001026" stroke="none" stroke-linecap="butt" stroke-linejoin="miter"/></g><path d="M289.35951,92.97067c1.02296,-0.68197 2.72789,-0.34099 3.06887,1.02296l8.86565,36.48554c0,0 21.82313,16.02636 28.30187,27.27891c10.91156,18.75425 11.25256,34.09864 11.25256,34.09864c0,0 24.21003,7.16071 28.30187,26.59694c4.09184,19.43623 -10.91156,56.26276 -75.01701,68.87926c-64.10544,12.6165 -115.59439,-4.77381 -139.80442,-43.64626c-24.21004,-38.87245 13.98045,-85.2466 11.93453,-82.51871l-7.16072,-61.03656c-0.34099,-1.36394 1.36395,-2.3869 2.72789,-1.70493l41.25936,26.93792c0,0 15.34438,-5.79677 31.37075,-6.47874c9.54762,-0.68197 17.73129,0 25.57398,1.36394z" fill="#ffab19" fill-rule="evenodd" stroke="#001026" stroke-width="15" stroke-linecap="butt" stroke-linejoin="miter"/><path d="M339.43799,193.78274c0,0 21.47335,5.60174 25.20785,23.3406c3.7345,17.73886 -11.20349,49.79328 -69.08818,60.99677c-75.31234,15.5604 -111.10126,-29.25355 -90.25032,-62.2416c20.85094,-33.29926 56.63986,-4.97933 82.78133,-6.84658c22.40698,-1.55604 24.89664,-21.16214 51.34932,-15.24919z" fill="#ffffff" fill-rule="evenodd" stroke="none" stroke-width="7.5" stroke-linecap="butt" stroke-linejoin="miter"/><path d="M251.91798,227.082c0,-1.24483 1.24483,-2.17846 2.48966,-1.86725c5.91295,2.17846 22.71818,7.15778 41.39066,8.40262c16.80523,0.93362 26.76389,0 31.43201,-0.93362c1.55604,-0.31121 2.80087,1.24483 2.17846,2.80087c-2.80087,8.40262 -14.62678,31.74322 -47.30362,29.87597c-28.31993,-3.11208 -31.1208,-23.02939 -30.18718,-38.27858z" fill="#ffffff" fill-rule="evenodd" stroke="#001026" stroke-width="7.5" stroke-linecap="round" stroke-linejoin="round"/><path d="M297.35434,200.94053c6.53537,0 13.38194,0.62242 13.69315,2.80087c0.31121,4.35691 -4.35691,13.07074 -9.33624,13.38194c-5.60174,0.62242 -18.67248,-7.15778 -18.67248,-12.13711c-0.31121,-3.7345 8.09141,-4.0457 14.31557,-4.0457z" fill="#001026" fill-rule="evenodd" stroke="#001026" stroke-width="7.5" stroke-linecap="round" stroke-linejoin="round"/><g fill-rule="evenodd" stroke-width="7.5"><path d="M256.8973,173.24303c9.33624,13.69315 8.71382,30.49838 0.31121,36.41134c-10.26986,5.91295 -23.96302,1.55604 -33.29926,-12.13711c-9.64745,-13.69315 -10.26986,-31.43201 -0.62242,-38.27858c9.64745,-7.15778 24.27422,0.31121 33.61046,14.00436z" fill="#ffffff" stroke="#001026" stroke-linecap="round" stroke-linejoin="round"/><path d="M255.03006,191.29309c0,3.42329 -2.48966,6.22416 -5.60174,6.22416c-3.11208,0 -5.60174,-2.80087 -5.60174,-6.22416c0,-3.42329 2.48966,-6.22416 5.60174,-6.22416c3.11208,0.31121 5.60174,2.80087 5.60174,6.22416" fill="#001026" stroke="none" stroke-linecap="butt" stroke-linejoin="miter"/></g><path d="M94.84986,275.23518c0,-59.99896 0,-148.11906 0,-181.81815c0,-26.16557 22.73163,-58.56714 54.69562,-58.56714c60.91162,0 155.35022,0 189.899,0c25.1397,0 55.70568,31.10369 55.70568,56.54696c0,34.37139 0,127.20919 0,187.87876c0,32.57375 -30.56593,55.87453 -55.70568,55.87453c-33.79375,0 -124.88841,0 -185.85858,0c-34.07175,0 -58.73599,-25.26921 -58.73599,-59.91496z" fill="#83a08b" fill-rule="nonzero" stroke="#83a08b" stroke-width="4" stroke-linecap="butt" stroke-linejoin="miter"/><g fill-rule="nonzero" stroke-width="22.5" stroke-linecap="butt" stroke-linejoin="miter"><path d="M235.4453,252.70295c-22.93505,-14.45231 -94.10488,-64.38312 -70.09334,-114.02618c21.61436,-46.98669 59.1332,-23.06138 71.15349,-13.67376c2.43332,1.90038 5.3849,1.87969 8.10181,-0.01519c11.99991,-8.36925 46.50662,-27.84964 68.24254,6.67408c28.45147,63.52951 -41.81237,109.21397 -64.05062,121.74069c-4.03192,2.27117 -9.08335,1.99141 -13.35387,-0.69961z" fill="#ad5085" stroke="none"/><path d="M238.80987,209.58311c-18.35932,-10.62439 -75.33016,-47.33029 -56.10912,-83.82466c17.30211,-34.54156 47.33561,-16.95322 56.95776,-10.05207c1.94786,1.39704 4.31057,1.38183 6.48543,-0.01117c9.60583,-6.15254 37.22814,-20.47325 54.62757,4.90635c22.77516,46.70278 -33.47045,80.28703 -51.27198,89.49587c-3.22751,1.66961 -7.27114,1.46395 -10.68966,-0.51432z" fill="#e78cb9" stroke="none"/><path d="M301.31572,142.62437c-5.17369,7.76052 -16.21404,9.48751 -24.65932,3.85732c-8.44528,-5.63018 -11.09743,-16.48551 -5.92375,-24.24603c5.17369,-7.76052 16.21404,-9.48751 24.65932,-3.85732c8.44528,5.63018 11.09743,16.48551 5.92375,24.24603z" fill="#f5ddea" stroke="none"/><path d="M235.4453,252.70295c-22.93505,-14.45231 -94.10488,-64.38312 -70.09334,-114.02618c21.61436,-46.98669 59.1332,-23.06138 71.15349,-13.67376c2.43332,1.90038 5.3849,1.87969 8.10181,-0.01519c11.99991,-8.36925 46.50662,-27.84964 68.24254,6.67408c28.45147,63.52951 -41.81237,109.21397 -64.05062,121.74069c-4.03192,2.27117 -9.08335,1.99141 -13.35387,-0.69961z" fill="none" stroke="#400b2b"/></g></g></g></svg>