<svg version="1.1" xmlns="http://www.w3.org/2000/svg" xmlns:xlink="http://www.w3.org/1999/xlink" width="94.70613" height="69.25012" viewBox="0,0,94.70613,69.25012"><g transform="translate(-192.67503,-145.37494)"><g data-paper-data="{&quot;isPaintingLayer&quot;:true}" fill-rule="nonzero" stroke-linecap="butt" stroke-linejoin="miter" stroke-miterlimit="10" stroke-dasharray="" stroke-dashoffset="0" style="mix-blend-mode: normal"><path d="M195.17504,195.0675c-0.12643,-10.50553 0,-23.12419 0,-29.37689c0,-15.36849 8.63222,-17.81567 21.29289,-17.81567c9.27627,0 30.08372,0 46.33173,0c12.35998,0 22.08151,3.57053 22.08151,17.24709c0,6.93903 0,20.06704 0,31.27216c0,13.73165 -9.08008,15.73087 -16.56114,15.73087c-9.4892,0 -34.16938,0 -52.24643,0c-11.87369,0 -20.70141,-0.6767 -20.89856,-17.05756z" fill="#92a3a3" stroke="#030303" stroke-width="5"/><path d="M202.94469,165.16804c0,0 -0.69307,-4.0996 9.69781,-6.10401c5.40098,-1.04186 53.41692,-1.51511 58.47974,-0.05348c6.56609,1.89561 5.92559,6.15748 5.92559,6.15748z" fill="#4f6070" stroke="none" stroke-width="0"/><path d="M202.94469,174.61055c0,0 -0.69307,-4.0996 9.69781,-6.10401c5.40098,-1.04187 53.41692,-1.51511 58.47974,-0.05348c6.56609,1.89561 5.92559,6.15748 5.92559,6.15748z" fill="#4f6070" stroke="none" stroke-width="0"/><path d="M202.94469,183.84779c0,0 -0.69307,-4.0996 9.69781,-6.10401c5.40098,-1.04187 53.41692,-1.51511 58.47974,-0.05348c6.56609,1.89561 5.92559,6.15748 5.92559,6.15748z" fill="#4f6070" stroke="none" stroke-width="0"/><path d="M202.94469,192.67447c0,0 -0.69307,-4.0996 9.69781,-6.10401c5.40098,-1.04187 53.41692,-1.51511 58.47974,-0.05348c6.56609,1.89561 5.92559,6.15748 5.92559,6.15748z" fill="#4f6070" stroke="none" stroke-width="0"/><path d="M273.46425,157.06231c0,-1.29632 1.05087,-2.34719 2.34719,-2.34719c1.29632,0 2.34719,1.05087 2.34719,2.34719c0,1.29632 -1.05087,2.3472 -2.34719,2.3472c-1.29632,0 -2.34719,-1.05087 -2.34719,-2.3472z" fill="#7d8a8a" stroke="none" stroke-width="0.5"/><path d="M274.46375,202.81105c0,-1.29632 1.05087,-2.3472 2.34719,-2.3472c1.29632,0 2.34719,1.05087 2.34719,2.3472c0,1.29632 -1.05087,2.3472 -2.34719,2.3472c-1.29632,0 -2.34719,-1.05087 -2.34719,-2.3472z" fill="#7d8a8a" stroke="none" stroke-width="0.5"/><path d="M201.56534,204.22108c0,-1.29632 1.05087,-2.3472 2.34719,-2.3472c1.29632,0 2.34719,1.05087 2.34719,2.3472c0,1.29632 -1.05087,2.34719 -2.34719,2.34719c-1.29632,0 -2.34719,-1.05087 -2.34719,-2.34719z" fill="#7d8a8a" stroke="none" stroke-width="0.5"/><path d="M202.77009,156.77639c0,-1.29632 1.05087,-2.34719 2.34719,-2.34719c1.29632,0 2.3472,1.05087 2.3472,2.34719c0,1.29632 -1.05087,2.3472 -2.3472,2.3472c-1.29632,0 -2.34719,-1.05087 -2.34719,-2.3472z" fill="#7d8a8a" stroke="none" stroke-width="0.5"/><path d="M202.94469,201.91172c0,0 -0.69307,-4.0996 9.69781,-6.10401c5.40098,-1.04187 53.41692,-1.51511 58.47974,-0.05348c6.56609,1.89561 5.92559,6.15748 5.92559,6.15748z" fill="#4f6070" stroke="none" stroke-width="0"/></g></g></svg>