<svg version="1.1" xmlns="http://www.w3.org/2000/svg" xmlns:xlink="http://www.w3.org/1999/xlink" width="329.60677" height="105.73308" viewBox="0,0,329.60677,105.73308"><defs><linearGradient x1="130.69966" y1="263.76259" x2="130.69966" y2="351.76267" gradientUnits="userSpaceOnUse" id="color-1"><stop offset="0" stop-color="#34445f"/><stop offset="1" stop-color="#34445f"/></linearGradient></defs><g transform="translate(-79.19966,-256.26259)"><g data-paper-data="{&quot;isPaintingLayer&quot;:true}" fill-rule="nonzero" stroke-linejoin="miter" stroke-miterlimit="10" stroke-dasharray="" stroke-dashoffset="0" style="mix-blend-mode: normal"><g fill="#ffffff" stroke-linecap="square"><path d="M203.11941,298.43082c0,1.30698 -0.25513,2.43492 -0.76539,3.38383c-0.50131,0.94891 -1.17718,1.68744 -2.02761,2.2156c-0.84148,0.52817 -1.79039,0.79225 -2.84671,0.79225c-0.57292,0 -1.03395,-0.19247 -1.38307,-0.5774c-0.35808,-0.37598 -0.53711,-0.82806 -0.53711,-1.35622v-0.37598c0,-0.50131 0.16561,-0.90414 0.49683,-1.20851c0.33122,-0.29541 0.74749,-0.52369 1.2488,-0.68482c0.55502,-0.17904 0.94443,-0.43417 1.16823,-0.76539c0.23275,-0.33122 0.37598,-0.72958 0.42969,-1.19508c0.06266,-0.45655 0.094,-0.93547 0.094,-1.43678v-15.42865c0,-0.59978 0.19247,-1.10109 0.5774,-1.50392c0.39389,-0.40283 0.88624,-0.60426 1.47707,-0.60426c0.59978,0 1.09213,0.20142 1.47706,0.60426c0.39389,0.40283 0.59083,0.90414 0.59083,1.50392zM200.95752,277.45644c-0.77882,0 -1.32936,-0.12532 -1.65163,-0.37598c-0.32227,-0.25065 -0.48341,-0.69825 -0.48341,-1.34279v-0.65796c0,-0.66244 0.17457,-1.11452 0.52369,-1.35622c0.35808,-0.2417 0.90415,-0.36255 1.6382,-0.36255c0.80568,0 1.36964,0.1298 1.69191,0.38941c0.32227,0.25065 0.48341,0.69378 0.48341,1.32936v0.65796c0,0.66244 -0.17457,1.11452 -0.52369,1.35622c-0.34017,0.2417 -0.89966,0.36255 -1.67848,0.36255zM225.59768,288.89702c0,1.87991 -0.42075,3.53602 -1.26223,4.96832c-0.83253,1.43231 -1.956,2.5513 -3.3704,3.35697c-1.40545,0.80568 -2.97652,1.20851 -4.71319,1.20851c-1.74562,0 -3.32565,-0.40283 -4.74005,-1.20851c-1.40545,-0.80568 -2.52445,-1.92467 -3.35698,-3.35697c-0.83253,-1.43231 -1.2488,-3.08842 -1.2488,-4.96832c0,-1.87095 0.41627,-3.52259 1.2488,-4.9549c0.83253,-1.43231 1.95153,-2.55578 3.35698,-3.3704c1.4144,-0.81462 2.99443,-1.22194 4.74005,-1.22194c1.73667,0 3.30774,0.40731 4.71319,1.22194c1.4144,0.81462 2.53787,1.93809 3.3704,3.3704c0.84148,1.43231 1.26223,3.08394 1.26223,4.9549zM221.47532,288.89702c0,-1.16375 -0.23722,-2.17532 -0.71168,-3.03471c-0.4655,-0.85938 -1.0966,-1.53078 -1.89333,-2.01418c-0.78777,-0.48341 -1.66058,-0.7251 -2.61844,-0.7251c-0.96681,0 -1.8441,0.2417 -2.63187,0.7251c-0.78777,0.48341 -1.41888,1.1548 -1.89333,2.01418c-0.4655,0.85938 -0.69825,1.87096 -0.69825,3.03471c0,1.14585 0.23275,2.14846 0.69825,3.00785c0.47446,0.85938 1.10556,1.53078 1.89333,2.01418c0.78777,0.48341 1.66506,0.72511 2.63187,0.72511c0.95786,0 1.83067,-0.2417 2.61844,-0.72511c0.79673,-0.48341 1.42783,-1.1548 1.89333,-2.01418c0.47446,-0.85938 0.71168,-1.862 0.71168,-3.00785zM232.92716,295.98695c0,0.59083 -0.19694,1.08767 -0.59083,1.4905c-0.38493,0.40283 -0.87729,0.60426 -1.47707,0.60426c-0.59083,0 -1.08318,-0.20142 -1.47707,-0.60426c-0.39389,-0.40283 -0.59083,-0.89967 -0.59083,-1.4905v-14.19329c0,-0.59978 0.19694,-1.10109 0.59083,-1.50392c0.39389,-0.40283 0.88624,-0.60426 1.47707,-0.60426c0.59978,0 1.09214,0.20142 1.47707,0.60426c0.39389,0.40283 0.59083,0.90414 0.59083,1.50392zM230.65785,277.45644c-0.77882,0 -1.32936,-0.12532 -1.65163,-0.37598c-0.32227,-0.25065 -0.48341,-0.69825 -0.48341,-1.34279v-0.65796c0,-0.66244 0.17456,-1.11452 0.52369,-1.35622c0.35808,-0.2417 0.90415,-0.36255 1.6382,-0.36255c0.80568,0 1.36964,0.1298 1.69191,0.38941c0.32227,0.25065 0.48341,0.69378 0.48341,1.32936v0.65796c0,0.66244 -0.17457,1.11452 -0.52369,1.35622c-0.34017,0.2417 -0.89966,0.36255 -1.67848,0.36255zM246.98832,279.34979c1.69191,0 2.97652,0.35807 3.85381,1.07423c0.88624,0.7072 1.49497,1.65163 1.82619,2.83329c0.33122,1.17271 0.49684,2.47969 0.49684,3.92095v8.8087c0,0.59083 -0.19694,1.08767 -0.59083,1.4905c-0.38493,0.40283 -0.87281,0.60426 -1.46364,0.60426c-0.59978,0 -1.09661,-0.20142 -1.49049,-0.60426c-0.38493,-0.40283 -0.5774,-0.89967 -0.5774,-1.4905v-8.8087c0,-0.75196 -0.09847,-1.4323 -0.29541,-2.04104c-0.18799,-0.60874 -0.53712,-1.09661 -1.04738,-1.46364c-0.50131,-0.36703 -1.22194,-0.55054 -2.16189,-0.55054c-0.91309,0 -1.68744,0.18351 -2.32303,0.55054c-0.62663,0.36703 -1.10556,0.8549 -1.43678,1.46364c-0.33122,0.60874 -0.49683,1.28908 -0.49683,2.04104v8.8087c0,0.59083 -0.19694,1.08767 -0.59083,1.4905c-0.38493,0.40283 -0.87728,0.60426 -1.47706,0.60426c-0.59978,0 -1.09661,-0.20142 -1.4905,-0.60426c-0.38493,-0.40283 -0.5774,-0.89967 -0.5774,-1.4905v-14.19329c0,-0.59978 0.19247,-1.10109 0.5774,-1.50392c0.39389,-0.40283 0.89072,-0.60426 1.4905,-0.60426c0.59978,0 1.09213,0.20142 1.47706,0.60426c0.39389,0.40283 0.59083,0.90414 0.59083,1.50392v1.47706l-0.52369,-0.10742c0.20589,-0.39389 0.50132,-0.81015 0.88625,-1.24879c0.39389,-0.4476 0.8549,-0.86387 1.38307,-1.2488c0.52817,-0.39389 1.12347,-0.71168 1.78591,-0.95338c0.67139,-0.2417 1.3965,-0.36255 2.17532,-0.36255zM276.79233,279.34979c1.6024,0 3.03918,0.40731 4.31036,1.22194c1.27118,0.81462 2.27826,1.93362 3.02128,3.35698c0.74301,1.4144 1.11451,3.06156 1.11451,4.94146c0,1.87991 -0.3715,3.53601 -1.11451,4.96832c-0.74301,1.43231 -1.74115,2.55578 -2.99442,3.37041c-1.24431,0.81462 -2.64529,1.22194 -4.20293,1.22194c-0.92205,0 -1.78591,-0.1477 -2.59159,-0.44312c-0.79672,-0.30437 -1.49944,-0.68483 -2.10818,-1.14138c-0.60874,-0.45655 -1.07871,-0.91757 -1.40993,-1.38307c-0.33122,-0.47445 -0.49684,-0.87282 -0.49684,-1.19509l1.07424,-0.44312v2.49759c0,0.59978 -0.19695,1.10109 -0.59083,1.50393c-0.38493,0.40283 -0.87728,0.60425 -1.47706,0.60425c-0.59978,0 -1.09661,-0.19247 -1.4905,-0.5774c-0.38493,-0.39389 -0.5774,-0.90415 -0.5774,-1.53078v-21.57863c0,-0.59978 0.19247,-1.09661 0.5774,-1.4905c0.39389,-0.40283 0.89072,-0.60426 1.4905,-0.60426c0.59978,0 1.09213,0.20142 1.47706,0.60426c0.39389,0.39389 0.59083,0.89072 0.59083,1.4905v8.72814l-0.59083,-0.30884c0,-0.29541 0.16114,-0.65349 0.48341,-1.07423c0.32227,-0.42969 0.75644,-0.85491 1.3025,-1.27565c0.55502,-0.42969 1.19061,-0.77882 1.90677,-1.04738c0.7251,-0.27751 1.4905,-0.41626 2.29617,-0.41626zM276.26864,283.12303c-1.01157,0 -1.89334,0.25513 -2.6453,0.76539c-0.75196,0.50131 -1.34278,1.18166 -1.77248,2.04104c-0.42074,0.85938 -0.63112,1.83962 -0.63112,2.94071c0,1.07423 0.21037,2.05447 0.63112,2.94071c0.42969,0.87729 1.02052,1.57107 1.77248,2.08133c0.75196,0.50131 1.63373,0.75196 2.6453,0.75196c1.01157,0 1.88886,-0.25065 2.63187,-0.75196c0.74301,-0.51026 1.32488,-1.20404 1.74563,-2.08133c0.42969,-0.88624 0.64454,-1.86648 0.64454,-2.94071c0,-1.10109 -0.21484,-2.08133 -0.64454,-2.94071c-0.42074,-0.85938 -1.00261,-1.53973 -1.74563,-2.04104c-0.74301,-0.51026 -1.6203,-0.76539 -2.63187,-0.76539zM302.33056,279.68548c0.59083,0 1.07871,0.20142 1.46364,0.60426c0.39389,0.40283 0.59083,0.90414 0.59083,1.50392v14.60955c0,2.1037 -0.39388,3.77772 -1.18165,5.02203c-0.78777,1.25327 -1.84857,2.15294 -3.18241,2.699c-1.32488,0.55502 -2.81538,0.83253 -4.47149,0.83253c-0.73406,0 -1.51288,-0.05818 -2.33646,-0.17456c-0.82358,-0.11638 -1.49945,-0.28647 -2.02761,-0.51026c-0.6893,-0.29541 -1.16375,-0.66691 -1.42336,-1.11451c-0.25961,-0.4476 -0.30884,-0.92652 -0.14771,-1.43678c0.20589,-0.66244 0.53711,-1.11452 0.99366,-1.35622c0.45655,-0.2417 0.93547,-0.26856 1.43678,-0.08057c0.36703,0.11638 0.84596,0.29093 1.43679,0.52369c0.59978,0.2417 1.28908,0.36256 2.0679,0.36256c1.05633,0 1.93362,-0.14323 2.63187,-0.4297c0.69825,-0.28647 1.22642,-0.76986 1.5845,-1.45021c0.35807,-0.6714 0.53712,-1.58897 0.53712,-2.75272v-2.3096l0.71168,0.83253c-0.38493,0.75196 -0.87282,1.37413 -1.46364,1.86648c-0.58188,0.49235 -1.27565,0.86834 -2.08133,1.12794c-0.79672,0.25065 -1.70982,0.37598 -2.73929,0.37598c-1.21746,0 -2.27826,-0.28199 -3.18241,-0.84596c-0.90415,-0.56397 -1.61135,-1.34279 -2.12161,-2.33646c-0.50131,-1.00261 -0.75196,-2.14398 -0.75196,-3.42411v-10.03064c0,-0.59978 0.19247,-1.10109 0.5774,-1.50392c0.39389,-0.40283 0.89071,-0.60426 1.49049,-0.60426c0.59978,0 1.09214,0.20142 1.47707,0.60426c0.39389,0.40283 0.59082,0.90414 0.59082,1.50392v8.79527c0,1.48602 0.32675,2.53339 0.98024,3.14213c0.65349,0.60874 1.56211,0.91309 2.72586,0.91309c0.80568,0 1.48155,-0.15218 2.02762,-0.45655c0.55502,-0.31332 0.98023,-0.77434 1.27565,-1.38308c0.29541,-0.60874 0.44312,-1.34727 0.44312,-2.2156v-8.79527c0,-0.59978 0.19247,-1.10109 0.5774,-1.50392c0.39389,-0.40283 0.89072,-0.60426 1.4905,-0.60426zM326.49433,279.34979c1.30698,0 2.44387,0.13875 3.41069,0.41626c0.97576,0.26856 1.7322,0.64902 2.26932,1.14137c0.54606,0.49235 0.8191,1.08318 0.8191,1.77248c0,0.45655 -0.13876,0.88624 -0.41627,1.28908c-0.27751,0.40283 -0.68034,0.60426 -1.20851,0.60426c-0.36703,0 -0.6714,-0.04924 -0.91309,-0.14771c-0.23275,-0.10742 -0.44312,-0.2417 -0.63111,-0.40283c-0.17904,-0.16114 -0.39389,-0.30884 -0.64454,-0.44312c-0.23275,-0.14323 -0.58635,-0.25513 -1.0608,-0.3357c-0.4655,-0.08056 -0.81463,-0.12085 -1.04738,-0.12085c-1.16377,0 -2.15297,0.25513 -2.96759,0.76539c-0.81462,0.50131 -1.44126,1.18166 -1.87991,2.04104c-0.42969,0.85938 -0.64454,1.84857 -0.64454,2.96757c0,1.10109 0.22379,2.08132 0.67139,2.94071c0.4476,0.85938 1.06528,1.54421 1.85305,2.05447c0.78777,0.50131 1.6964,0.75196 2.72589,0.75196c0.57292,0 1.06529,-0.03134 1.47707,-0.094c0.42074,-0.07162 0.76539,-0.17904 1.03395,-0.32227c0.32227,-0.17904 0.60873,-0.37151 0.85939,-0.5774c0.25961,-0.20589 0.64006,-0.30884 1.14137,-0.30884c0.59083,0 1.04738,0.18799 1.36965,0.56397c0.32227,0.37598 0.4834,0.84148 0.4834,1.3965c0,0.57292 -0.32227,1.09661 -0.96681,1.57106c-0.63559,0.4655 -1.47707,0.84148 -2.52445,1.12795c-1.03843,0.28647 -2.16637,0.42969 -3.38383,0.42969c-1.80831,0 -3.37938,-0.41626 -4.71322,-1.24879c-1.32488,-0.84148 -2.34988,-1.98286 -3.07498,-3.42412c-0.71616,-1.45022 -1.07423,-3.07051 -1.07423,-4.8609c0,-1.87095 0.38046,-3.52259 1.14137,-4.9549c0.76987,-1.43231 1.83514,-2.55578 3.19584,-3.3704c1.36964,-0.81462 2.93624,-1.22194 4.69979,-1.22194zM353.85231,288.89702c0,1.87991 -0.42074,3.53602 -1.26222,4.96832c-0.83253,1.43231 -1.956,2.5513 -3.37041,3.35697c-1.40545,0.80568 -2.97652,1.20851 -4.71319,1.20851c-1.74563,0 -3.32565,-0.40283 -4.74005,-1.20851c-1.40545,-0.80568 -2.52444,-1.92467 -3.35697,-3.35697c-0.83253,-1.43231 -1.2488,-3.08842 -1.2488,-4.96832c0,-1.87095 0.41627,-3.52259 1.2488,-4.9549c0.83253,-1.43231 1.95153,-2.55578 3.35697,-3.3704c1.4144,-0.81462 2.99442,-1.22194 4.74005,-1.22194c1.73667,0 3.30774,0.40731 4.71319,1.22194c1.4144,0.81462 2.53787,1.93809 3.37041,3.3704c0.84148,1.43231 1.26222,3.08394 1.26222,4.9549zM349.72994,288.89702c0,-1.16375 -0.23723,-2.17532 -0.71168,-3.03471c-0.4655,-0.85938 -1.09661,-1.53078 -1.89333,-2.01418c-0.78777,-0.48341 -1.66058,-0.7251 -2.61844,-0.7251c-0.96681,0 -1.8441,0.2417 -2.63187,0.7251c-0.78777,0.48341 -1.41888,1.1548 -1.89333,2.01418c-0.4655,0.85938 -0.69825,1.87096 -0.69825,3.03471c0,1.14585 0.23275,2.14846 0.69825,3.00785c0.47445,0.85938 1.10556,1.53078 1.89333,2.01418c0.78777,0.48341 1.66506,0.72511 2.63187,0.72511c0.95786,0 1.83067,-0.2417 2.61844,-0.72511c0.79672,-0.48341 1.42783,-1.1548 1.89333,-2.01418c0.47445,-0.85938 0.71168,-1.862 0.71168,-3.00785zM372.17918,272.64927c0.59083,0 1.07871,0.19694 1.46364,0.59082c0.39389,0.38493 0.59083,0.88624 0.59083,1.50393v21.24293c0,0.59083 -0.19695,1.08767 -0.59083,1.4905c-0.38493,0.40283 -0.87281,0.60426 -1.46364,0.60426c-0.59978,0 -1.09661,-0.20142 -1.49049,-0.60426c-0.38493,-0.40283 -0.5774,-0.89967 -0.5774,-1.4905v-1.69191l0.76539,0.30884c0,0.30437 -0.16114,0.66692 -0.48341,1.08766c-0.32227,0.42074 -0.76091,0.84148 -1.31593,1.26223c-0.54606,0.41179 -1.19061,0.76091 -1.93362,1.04737c-0.74301,0.28647 -1.55316,0.42969 -2.43045,0.42969c-1.57554,0 -3.00785,-0.40731 -4.29693,-1.22194c-1.28013,-0.81462 -2.29169,-1.9381 -3.0347,-3.37041c-0.74301,-1.43231 -1.11452,-3.07946 -1.11452,-4.94146c0,-1.87095 0.37151,-3.52259 1.11452,-4.9549c0.74301,-1.43231 1.74562,-2.55578 3.00784,-3.3704c1.26222,-0.81462 2.65873,-1.22194 4.1895,-1.22194c0.98471,0 1.88886,0.1477 2.71244,0.44312c0.83253,0.29541 1.54868,0.67588 2.14846,1.14138c0.60874,0.45655 1.07871,0.92204 1.40993,1.3965c0.33122,0.4655 0.49683,0.85939 0.49683,1.18166l-1.23537,0.44312v-9.21154c0,-0.59978 0.19247,-1.09661 0.5774,-1.4905c0.39389,-0.40283 0.89071,-0.60426 1.49049,-0.60426zM365.23696,294.64416c1.00261,0 1.87991,-0.25065 2.63187,-0.75196c0.76092,-0.51026 1.35174,-1.19956 1.77248,-2.0679c0.42969,-0.86834 0.64454,-1.8441 0.64454,-2.92728c0,-1.09213 -0.21485,-2.07238 -0.64454,-2.94071c-0.42074,-0.87729 -1.01157,-1.56659 -1.77248,-2.0679c-0.75196,-0.51026 -1.62925,-0.76539 -2.63187,-0.76539c-0.98471,0 -1.85753,0.25513 -2.61844,0.76539c-0.75196,0.50131 -1.34279,1.19061 -1.77249,2.0679c-0.42074,0.86834 -0.63111,1.84858 -0.63111,2.94071c0,1.08318 0.21037,2.05895 0.63111,2.92728c0.42969,0.86834 1.02053,1.55764 1.77249,2.0679c0.76092,0.50131 1.63373,0.75196 2.61844,0.75196zM387.20338,298.43082c-1.95153,0 -3.64344,-0.40731 -5.07574,-1.22194c-1.43231,-0.81462 -2.53339,-1.92019 -3.30327,-3.31669c-0.76092,-1.3965 -1.14137,-2.98099 -1.14137,-4.75348c0,-2.05894 0.41626,-3.81352 1.24879,-5.26374c0.83253,-1.45916 1.92467,-2.57815 3.27641,-3.35697c1.3607,-0.77882 2.79748,-1.16823 4.31036,-1.16823c1.16375,0 2.26484,0.2417 3.30327,0.7251c1.04737,0.47445 1.96942,1.13243 2.76614,1.97391c0.80568,0.83253 1.44126,1.79933 1.90677,2.90042c0.47445,1.10109 0.71167,2.26932 0.71167,3.50468c-0.0179,0.55502 -0.23722,1.00261 -0.65796,1.34279c-0.41179,0.34017 -0.89072,0.51026 -1.43678,0.51026h-13.13248l-1.03395,-3.43754h12.62222l-0.75196,0.69825v-0.92653c-0.05371,-0.6714 -0.29094,-1.2667 -0.71168,-1.78591c-0.42074,-0.52817 -0.9489,-0.94891 -1.58449,-1.26223c-0.62664,-0.31332 -1.29356,-0.46997 -2.00076,-0.46997c-0.6893,0 -1.33384,0.09399 -1.93362,0.28198c-0.59083,0.17904 -1.10556,0.48788 -1.54421,0.92653c-0.43865,0.43865 -0.78329,1.025 -1.03395,1.75905c-0.25065,0.7251 -0.37599,1.65163 -0.37599,2.77958c0,1.23537 0.25513,2.28275 0.76539,3.14213c0.51921,0.85938 1.18614,1.51287 2.00076,1.96047c0.81462,0.4476 1.67849,0.6714 2.59159,0.6714c0.85044,0 1.5263,-0.06714 2.02761,-0.20141c0.51026,-0.14323 0.91757,-0.30885 1.22194,-0.49684c0.31332,-0.19694 0.5953,-0.36703 0.84595,-0.51026c0.41179,-0.20589 0.8012,-0.30884 1.16823,-0.30884c0.50131,0 0.91757,0.17456 1.24879,0.52369c0.34017,0.34017 0.51026,0.73854 0.51026,1.19509c0,0.61768 -0.32227,1.18165 -0.96681,1.69191c-0.59978,0.50131 -1.43678,0.94443 -2.51101,1.32936c-1.07423,0.37598 -2.18427,0.56397 -3.33012,0.56397z" stroke="#000000" stroke-width="6.5"/><path d="M203.11941,298.43084c0,1.30698 -0.25513,2.43492 -0.76539,3.38383c-0.50131,0.9489 -1.17718,1.68744 -2.02761,2.2156c-0.84148,0.52817 -1.79039,0.79225 -2.84671,0.79225c-0.57292,0 -1.03395,-0.19247 -1.38307,-0.5774c-0.35808,-0.37598 -0.53711,-0.82806 -0.53711,-1.35622v-0.37598c0,-0.50131 0.16561,-0.90414 0.49683,-1.20851c0.33122,-0.29541 0.74749,-0.52369 1.2488,-0.68482c0.55502,-0.17904 0.94443,-0.43417 1.16823,-0.76539c0.23275,-0.33122 0.37598,-0.72958 0.42969,-1.19508c0.06266,-0.45655 0.094,-0.93547 0.094,-1.43678v-15.42866c0,-0.59978 0.19247,-1.10109 0.5774,-1.50392c0.39389,-0.40284 0.88624,-0.60426 1.47707,-0.60426c0.59978,0 1.09213,0.20142 1.47706,0.60426c0.39389,0.40284 0.59083,0.90414 0.59083,1.50392zM200.95752,277.45644c-0.77882,0 -1.32936,-0.12533 -1.65163,-0.37598c-0.32227,-0.25065 -0.48341,-0.69825 -0.48341,-1.34279v-0.65796c0,-0.66244 0.17457,-1.11452 0.52369,-1.35622c0.35808,-0.2417 0.90415,-0.36255 1.6382,-0.36255c0.80568,0 1.36964,0.1298 1.69191,0.38941c0.32227,0.25065 0.48341,0.69377 0.48341,1.32936v0.65796c0,0.66244 -0.17457,1.11452 -0.52369,1.35622c-0.34017,0.2417 -0.89966,0.36255 -1.67848,0.36255zM225.59768,288.89703c0,1.87991 -0.42075,3.53601 -1.26223,4.96832c-0.83253,1.43231 -1.956,2.5513 -3.3704,3.35698c-1.40545,0.80568 -2.97652,1.20851 -4.71319,1.20851c-1.74562,0 -3.32565,-0.40283 -4.74005,-1.20851c-1.40545,-0.80568 -2.52445,-1.92467 -3.35698,-3.35698c-0.83253,-1.43231 -1.2488,-3.08842 -1.2488,-4.96832c0,-1.87096 0.41627,-3.52259 1.2488,-4.9549c0.83253,-1.43231 1.95153,-2.55577 3.35698,-3.3704c1.4144,-0.81463 2.99443,-1.22194 4.74005,-1.22194c1.73667,0 3.30774,0.40731 4.71319,1.22194c1.4144,0.81463 2.53787,1.93809 3.3704,3.3704c0.84148,1.43231 1.26223,3.08394 1.26223,4.9549zM221.47532,288.89703c0,-1.16375 -0.23722,-2.17532 -0.71168,-3.03471c-0.4655,-0.85939 -1.0966,-1.53078 -1.89333,-2.01418c-0.78777,-0.48341 -1.66058,-0.72511 -2.61844,-0.72511c-0.96681,0 -1.8441,0.2417 -2.63187,0.72511c-0.78777,0.48341 -1.41888,1.1548 -1.89333,2.01418c-0.4655,0.85939 -0.69825,1.87096 -0.69825,3.03471c0,1.14585 0.23275,2.14846 0.69825,3.00785c0.47446,0.85939 1.10556,1.53078 1.89333,2.01418c0.78777,0.48341 1.66506,0.72511 2.63187,0.72511c0.95786,0 1.83067,-0.2417 2.61844,-0.72511c0.79673,-0.48341 1.42783,-1.1548 1.89333,-2.01418c0.47446,-0.85939 0.71168,-1.862 0.71168,-3.00785zM232.92716,295.98695c0,0.59083 -0.19694,1.08766 -0.59083,1.4905c-0.38493,0.40284 -0.87729,0.60426 -1.47707,0.60426c-0.59083,0 -1.08318,-0.20142 -1.47707,-0.60426c-0.39389,-0.40284 -0.59083,-0.89967 -0.59083,-1.4905v-14.19329c0,-0.59978 0.19694,-1.10109 0.59083,-1.50392c0.39389,-0.40284 0.88624,-0.60426 1.47707,-0.60426c0.59978,0 1.09214,0.20142 1.47707,0.60426c0.39389,0.40284 0.59083,0.90414 0.59083,1.50392zM230.65785,277.45644c-0.77882,0 -1.32936,-0.12533 -1.65163,-0.37598c-0.32227,-0.25065 -0.48341,-0.69825 -0.48341,-1.34279v-0.65796c0,-0.66244 0.17456,-1.11452 0.52369,-1.35622c0.35808,-0.2417 0.90415,-0.36255 1.6382,-0.36255c0.80568,0 1.36964,0.1298 1.69191,0.38941c0.32227,0.25065 0.48341,0.69377 0.48341,1.32936v0.65796c0,0.66244 -0.17457,1.11452 -0.52369,1.35622c-0.34017,0.2417 -0.89966,0.36255 -1.67848,0.36255zM246.98832,279.34979c1.69191,0 2.97652,0.35808 3.85381,1.07423c0.88624,0.7072 1.49497,1.65163 1.82619,2.83329c0.33122,1.17271 0.49684,2.47969 0.49684,3.92095v8.8087c0,0.59083 -0.19694,1.08766 -0.59083,1.4905c-0.38493,0.40284 -0.87281,0.60426 -1.46364,0.60426c-0.59978,0 -1.09661,-0.20142 -1.49049,-0.60426c-0.38493,-0.40284 -0.5774,-0.89967 -0.5774,-1.4905v-8.8087c0,-0.75196 -0.09847,-1.43231 -0.29541,-2.04104c-0.18799,-0.60873 -0.53712,-1.09661 -1.04738,-1.46364c-0.50131,-0.36703 -1.22194,-0.55054 -2.16189,-0.55054c-0.91309,0 -1.68744,0.18351 -2.32303,0.55054c-0.62663,0.36703 -1.10556,0.85491 -1.43678,1.46364c-0.33122,0.60873 -0.49683,1.28908 -0.49683,2.04104v8.8087c0,0.59083 -0.19694,1.08766 -0.59083,1.4905c-0.38493,0.40284 -0.87728,0.60426 -1.47706,0.60426c-0.59978,0 -1.09661,-0.20142 -1.4905,-0.60426c-0.38493,-0.40284 -0.5774,-0.89967 -0.5774,-1.4905v-14.19329c0,-0.59978 0.19247,-1.10109 0.5774,-1.50392c0.39389,-0.40284 0.89072,-0.60426 1.4905,-0.60426c0.59978,0 1.09213,0.20142 1.47706,0.60426c0.39389,0.40284 0.59083,0.90414 0.59083,1.50392v1.47707l-0.52369,-0.10742c0.20589,-0.39389 0.50132,-0.81015 0.88625,-1.2488c0.39389,-0.4476 0.8549,-0.86387 1.38307,-1.2488c0.52817,-0.39389 1.12347,-0.71168 1.78591,-0.95338c0.67139,-0.2417 1.3965,-0.36255 2.17532,-0.36255zM276.79233,279.34979c1.6024,0 3.03918,0.40731 4.31036,1.22194c1.27118,0.81463 2.27826,1.93362 3.02128,3.35698c0.74301,1.4144 1.11451,3.06156 1.11451,4.94146c0,1.87991 -0.3715,3.53601 -1.11451,4.96832c-0.74301,1.43231 -1.74115,2.55578 -2.99442,3.37041c-1.24431,0.81463 -2.64529,1.22194 -4.20293,1.22194c-0.92205,0 -1.78591,-0.14771 -2.59159,-0.44312c-0.79672,-0.30436 -1.49944,-0.68483 -2.10818,-1.14138c-0.60874,-0.45655 -1.07871,-0.91757 -1.40993,-1.38307c-0.33122,-0.47446 -0.49684,-0.87282 -0.49684,-1.19509l1.07424,-0.44312v2.49759c0,0.59978 -0.19695,1.10109 -0.59083,1.50393c-0.38493,0.40284 -0.87728,0.60425 -1.47706,0.60425c-0.59978,0 -1.09661,-0.19247 -1.4905,-0.5774c-0.38493,-0.39389 -0.5774,-0.90414 -0.5774,-1.53078v-21.57863c0,-0.59978 0.19247,-1.09661 0.5774,-1.4905c0.39389,-0.40284 0.89072,-0.60425 1.4905,-0.60425c0.59978,0 1.09213,0.20142 1.47706,0.60425c0.39389,0.39389 0.59083,0.89072 0.59083,1.4905v8.72814l-0.59083,-0.30884c0,-0.29541 0.16114,-0.6535 0.48341,-1.07424c0.32227,-0.4297 0.75644,-0.85491 1.3025,-1.27565c0.55502,-0.4297 1.19061,-0.77882 1.90677,-1.04738c0.7251,-0.27751 1.4905,-0.41626 2.29617,-0.41626zM276.26864,283.12304c-1.01157,0 -1.89334,0.25513 -2.6453,0.76539c-0.75196,0.50131 -1.34278,1.18166 -1.77248,2.04104c-0.42074,0.85939 -0.63112,1.83962 -0.63112,2.94071c0,1.07423 0.21037,2.05447 0.63112,2.94071c0.42969,0.87729 1.02052,1.57107 1.77248,2.08132c0.75196,0.50131 1.63373,0.75196 2.6453,0.75196c1.01157,0 1.88886,-0.25065 2.63187,-0.75196c0.74301,-0.51026 1.32488,-1.20404 1.74563,-2.08132c0.42969,-0.88624 0.64454,-1.86648 0.64454,-2.94071c0,-1.10109 -0.21484,-2.08132 -0.64454,-2.94071c-0.42074,-0.85939 -1.00261,-1.53973 -1.74563,-2.04104c-0.74301,-0.51026 -1.6203,-0.76539 -2.63187,-0.76539zM302.33056,279.68548c0.59083,0 1.07871,0.20142 1.46364,0.60426c0.39389,0.40284 0.59083,0.90414 0.59083,1.50392v14.60955c0,2.1037 -0.39388,3.77772 -1.18165,5.02203c-0.78777,1.25327 -1.84857,2.15294 -3.18241,2.699c-1.32488,0.55502 -2.81538,0.83253 -4.47149,0.83253c-0.73406,0 -1.51288,-0.05819 -2.33646,-0.17456c-0.82358,-0.11638 -1.49945,-0.28646 -2.02761,-0.51026c-0.6893,-0.29541 -1.16375,-0.66692 -1.42336,-1.11452c-0.25961,-0.4476 -0.30884,-0.92652 -0.14771,-1.43678c0.20589,-0.66244 0.53711,-1.11452 0.99366,-1.35622c0.45655,-0.2417 0.93547,-0.26856 1.43678,-0.08057c0.36703,0.11638 0.84596,0.29093 1.43679,0.52369c0.59978,0.2417 1.28908,0.36256 2.0679,0.36256c1.05633,0 1.93362,-0.14323 2.63187,-0.4297c0.69825,-0.28646 1.22642,-0.76987 1.5845,-1.45021c0.35807,-0.67139 0.53712,-1.58897 0.53712,-2.75272v-2.3096l0.71168,0.83253c-0.38493,0.75196 -0.87282,1.37412 -1.46364,1.86648c-0.58188,0.49236 -1.27565,0.86834 -2.08133,1.12794c-0.79672,0.25065 -1.70982,0.37599 -2.73929,0.37599c-1.21746,0 -2.27826,-0.28199 -3.18241,-0.84596c-0.90415,-0.56397 -1.61135,-1.34279 -2.12161,-2.33646c-0.50131,-1.00261 -0.75196,-2.14398 -0.75196,-3.42411v-10.03064c0,-0.59978 0.19247,-1.10109 0.5774,-1.50392c0.39389,-0.40284 0.89071,-0.60426 1.49049,-0.60426c0.59978,0 1.09214,0.20142 1.47707,0.60426c0.39389,0.40284 0.59082,0.90414 0.59082,1.50392v8.79527c0,1.48602 0.32675,2.53339 0.98024,3.14213c0.65349,0.60873 1.56211,0.9131 2.72586,0.9131c0.80568,0 1.48155,-0.15218 2.02762,-0.45655c0.55502,-0.31332 0.98023,-0.77434 1.27565,-1.38308c0.29541,-0.60873 0.44312,-1.34727 0.44312,-2.2156v-8.79527c0,-0.59978 0.19247,-1.10109 0.5774,-1.50392c0.39389,-0.40284 0.89072,-0.60426 1.4905,-0.60426zM326.49433,279.34979c1.30698,0 2.44387,0.13875 3.41069,0.41626c0.97576,0.26856 1.7322,0.64901 2.26932,1.14137c0.54606,0.49236 0.8191,1.08319 0.8191,1.77249c0,0.45655 -0.13876,0.88624 -0.41627,1.28907c-0.27751,0.40284 -0.68034,0.60426 -1.20851,0.60426c-0.36703,0 -0.6714,-0.04924 -0.91309,-0.14771c-0.23275,-0.10743 -0.44312,-0.2417 -0.63111,-0.40283c-0.17904,-0.16114 -0.39389,-0.30884 -0.64454,-0.44312c-0.23275,-0.14323 -0.58635,-0.25513 -1.0608,-0.3357c-0.4655,-0.08057 -0.81463,-0.12085 -1.04738,-0.12085c-1.16377,0 -2.15297,0.25513 -2.96759,0.76539c-0.81462,0.50131 -1.44126,1.18166 -1.87991,2.04104c-0.42969,0.85939 -0.64454,1.84857 -0.64454,2.96757c0,1.10109 0.22379,2.08132 0.67139,2.94071c0.4476,0.85939 1.06528,1.54421 1.85305,2.05447c0.78777,0.50131 1.6964,0.75196 2.72589,0.75196c0.57292,0 1.06529,-0.03134 1.47707,-0.094c0.42074,-0.07162 0.76539,-0.17904 1.03395,-0.32227c0.32227,-0.17904 0.60873,-0.37151 0.85939,-0.5774c0.25961,-0.20589 0.64006,-0.30884 1.14137,-0.30884c0.59083,0 1.04738,0.18799 1.36965,0.56397c0.32227,0.37598 0.4834,0.84148 0.4834,1.3965c0,0.57292 -0.32227,1.09661 -0.96681,1.57106c-0.63559,0.4655 -1.47707,0.84148 -2.52445,1.12794c-1.03843,0.28646 -2.16637,0.4297 -3.38383,0.4297c-1.80831,0 -3.37938,-0.41627 -4.71322,-1.2488c-1.32488,-0.84148 -2.34988,-1.98286 -3.07498,-3.42412c-0.71616,-1.45021 -1.07423,-3.07051 -1.07423,-4.8609c0,-1.87096 0.38046,-3.52259 1.14137,-4.9549c0.76987,-1.43231 1.83514,-2.55577 3.19584,-3.3704c1.36964,-0.81463 2.93624,-1.22194 4.69979,-1.22194zM353.85231,288.89703c0,1.87991 -0.42074,3.53601 -1.26222,4.96832c-0.83253,1.43231 -1.956,2.5513 -3.37041,3.35698c-1.40545,0.80568 -2.97652,1.20851 -4.71319,1.20851c-1.74563,0 -3.32565,-0.40283 -4.74005,-1.20851c-1.40545,-0.80568 -2.52444,-1.92467 -3.35697,-3.35698c-0.83253,-1.43231 -1.2488,-3.08842 -1.2488,-4.96832c0,-1.87096 0.41627,-3.52259 1.2488,-4.9549c0.83253,-1.43231 1.95153,-2.55577 3.35697,-3.3704c1.4144,-0.81463 2.99442,-1.22194 4.74005,-1.22194c1.73667,0 3.30774,0.40731 4.71319,1.22194c1.4144,0.81463 2.53787,1.93809 3.37041,3.3704c0.84148,1.43231 1.26222,3.08394 1.26222,4.9549zM349.72994,288.89703c0,-1.16375 -0.23723,-2.17532 -0.71168,-3.03471c-0.4655,-0.85939 -1.09661,-1.53078 -1.89333,-2.01418c-0.78777,-0.48341 -1.66058,-0.72511 -2.61844,-0.72511c-0.96681,0 -1.8441,0.2417 -2.63187,0.72511c-0.78777,0.48341 -1.41888,1.1548 -1.89333,2.01418c-0.4655,0.85939 -0.69825,1.87096 -0.69825,3.03471c0,1.14585 0.23275,2.14846 0.69825,3.00785c0.47445,0.85939 1.10556,1.53078 1.89333,2.01418c0.78777,0.48341 1.66506,0.72511 2.63187,0.72511c0.95786,0 1.83067,-0.2417 2.61844,-0.72511c0.79672,-0.48341 1.42783,-1.1548 1.89333,-2.01418c0.47445,-0.85939 0.71168,-1.862 0.71168,-3.00785zM372.17918,272.64928c0.59083,0 1.07871,0.19694 1.46364,0.59082c0.39389,0.38493 0.59083,0.88624 0.59083,1.50393v21.24293c0,0.59083 -0.19695,1.08766 -0.59083,1.4905c-0.38493,0.40284 -0.87281,0.60426 -1.46364,0.60426c-0.59978,0 -1.09661,-0.20142 -1.49049,-0.60426c-0.38493,-0.40284 -0.5774,-0.89967 -0.5774,-1.4905v-1.69191l0.76539,0.30884c0,0.30436 -0.16114,0.66692 -0.48341,1.08766c-0.32227,0.42074 -0.76091,0.84149 -1.31593,1.26223c-0.54606,0.41179 -1.19061,0.76091 -1.93362,1.04737c-0.74301,0.28646 -1.55316,0.4297 -2.43045,0.4297c-1.57554,0 -3.00785,-0.40731 -4.29693,-1.22194c-1.28013,-0.81463 -2.29169,-1.9381 -3.0347,-3.37041c-0.74301,-1.43231 -1.11452,-3.07946 -1.11452,-4.94146c0,-1.87096 0.37151,-3.52259 1.11452,-4.9549c0.74301,-1.43231 1.74562,-2.55577 3.00784,-3.3704c1.26222,-0.81463 2.65873,-1.22194 4.1895,-1.22194c0.98471,0 1.88886,0.14771 2.71244,0.44312c0.83253,0.29541 1.54868,0.67587 2.14846,1.14137c0.60874,0.45655 1.07871,0.92204 1.40993,1.3965c0.33122,0.4655 0.49683,0.85939 0.49683,1.18166l-1.23537,0.44312v-9.21154c0,-0.59978 0.19247,-1.09661 0.5774,-1.4905c0.39389,-0.40284 0.89071,-0.60425 1.49049,-0.60425zM365.23696,294.64417c1.00261,0 1.87991,-0.25065 2.63187,-0.75196c0.76092,-0.51026 1.35174,-1.19956 1.77248,-2.06789c0.42969,-0.86834 0.64454,-1.8441 0.64454,-2.92728c0,-1.09214 -0.21485,-2.07238 -0.64454,-2.94071c-0.42074,-0.87729 -1.01157,-1.56659 -1.77248,-2.06789c-0.75196,-0.51026 -1.62925,-0.76539 -2.63187,-0.76539c-0.98471,0 -1.85753,0.25513 -2.61844,0.76539c-0.75196,0.50131 -1.34279,1.19061 -1.77249,2.06789c-0.42074,0.86834 -0.63111,1.84858 -0.63111,2.94071c0,1.08318 0.21037,2.05895 0.63111,2.92728c0.42969,0.86834 1.02053,1.55764 1.77249,2.06789c0.76092,0.50131 1.63373,0.75196 2.61844,0.75196zM387.20338,298.43084c-1.95153,0 -3.64344,-0.40731 -5.07574,-1.22194c-1.43231,-0.81463 -2.53339,-1.92019 -3.30327,-3.31669c-0.76092,-1.3965 -1.14137,-2.98099 -1.14137,-4.75347c0,-2.05894 0.41626,-3.81352 1.24879,-5.26374c0.83253,-1.45917 1.92467,-2.57815 3.27641,-3.35697c1.3607,-0.77882 2.79748,-1.16823 4.31036,-1.16823c1.16375,0 2.26484,0.2417 3.30327,0.7251c1.04737,0.47446 1.96942,1.13243 2.76614,1.97391c0.80568,0.83253 1.44126,1.79934 1.90677,2.90043c0.47445,1.10109 0.71167,2.26931 0.71167,3.50468c-0.0179,0.55502 -0.23722,1.00262 -0.65796,1.34279c-0.41179,0.34017 -0.89072,0.51026 -1.43678,0.51026h-13.13248l-1.03395,-3.43754h12.62222l-0.75196,0.69825v-0.92652c-0.05371,-0.67139 -0.29094,-1.2667 -0.71168,-1.78591c-0.42074,-0.52817 -0.9489,-0.9489 -1.58449,-1.26223c-0.62664,-0.31332 -1.29356,-0.46998 -2.00076,-0.46998c-0.6893,0 -1.33384,0.09399 -1.93362,0.28198c-0.59083,0.17904 -1.10556,0.48788 -1.54421,0.92652c-0.43865,0.43865 -0.78329,1.025 -1.03395,1.75906c-0.25065,0.72511 -0.37599,1.65163 -0.37599,2.77957c0,1.23537 0.25513,2.28275 0.76539,3.14213c0.51921,0.85939 1.18614,1.51287 2.00076,1.96047c0.81462,0.4476 1.67849,0.6714 2.59159,0.6714c0.85044,0 1.5263,-0.06714 2.02761,-0.20142c0.51026,-0.14323 0.91757,-0.30884 1.22194,-0.49683c0.31332,-0.19694 0.5953,-0.36703 0.84595,-0.51026c0.41179,-0.20589 0.8012,-0.30884 1.16823,-0.30884c0.50131,0 0.91757,0.17456 1.24879,0.52369c0.34017,0.34017 0.51026,0.73854 0.51026,1.19509c0,0.61768 -0.32227,1.18166 -0.96681,1.69191c-0.59978,0.50131 -1.43678,0.94443 -2.51101,1.32936c-1.07423,0.37598 -2.18427,0.56397 -3.33012,0.56397z" stroke="none" stroke-width="1"/></g><path d="M206.69966,353.97225c0,-6.09093 0,-20.31716 0,-23.11191c0,-0.91205 0.83323,-2.24516 2.04028,-2.24516c3.81375,0 24.93773,0 48.88177,0c30.84112,0 66.36093,0 75.59434,0c1.48164,0 2.28643,1.30927 2.28643,2.64136c0,3.14265 0,16.21313 0,22.3195c0,1.93416 -0.92569,3.16963 -2.61925,3.16963c-17.3663,0 -115.47439,0 -124.14329,0c-1.20705,0 -2.04028,-1.06771 -2.04028,-2.77343z" data-paper-data="{&quot;index&quot;:null}" fill="#000000" stroke="#000000" stroke-width="10.5" stroke-linecap="butt"/><path d="M206.69966,353.97225c0,-6.09093 0,-20.31716 0,-23.11191c0,-0.91205 0.83323,-2.24516 2.04028,-2.24516c8.72604,0 108.07418,0 124.4761,0c1.48164,0 2.28643,1.30927 2.28643,2.64136c0,3.14265 0,16.21313 0,22.3195c0,1.93416 -0.92569,3.16963 -2.61925,3.16963c-17.3663,0 -115.47439,0 -124.14329,0c-1.20705,0 -2.04028,-1.06771 -2.04028,-2.77343z" data-paper-data="{&quot;index&quot;:null}" fill="#000000" stroke="#00f000" stroke-width="5.5" stroke-linecap="butt"/><path d="M206.69966,353.97225c0,-6.09093 0,-20.31716 0,-23.11191c0,-0.91205 0.83323,-2.24516 2.04028,-2.24516c8.72604,0 108.07418,0 124.4761,0c1.48164,0 2.28643,1.30927 2.28643,2.64136c0,3.14265 0,16.21313 0,22.3195c0,1.93416 -0.92569,3.16963 -2.61925,3.16963c-17.3663,0 -115.47439,0 -124.14329,0c-1.20705,0 -2.04028,-1.06771 -2.04028,-2.77343z" data-paper-data="{&quot;index&quot;:null}" fill="#000000" stroke="none" stroke-width="0" stroke-linecap="butt"/><path d="M179.01477,308.76259c0,0 102.58715,0 143.8151,0c31.10305,0 81.85156,0 81.85156,0" data-paper-data="{&quot;index&quot;:null}" fill="none" stroke="#000000" stroke-width="8.25" stroke-linecap="round"/><path d="M86.69966,307.76259c0,-24.30053 19.69947,-44 44,-44c24.30053,0 44,19.69947 44,44c0,24.30053 -19.69947,44 -44,44c-24.30053,0 -44,-19.69947 -44,-44z" data-paper-data="{&quot;index&quot;:null}" fill="#000000" stroke="#000000" stroke-width="15" stroke-linecap="butt"/><path d="M86.69966,307.76259c0,-24.30053 19.69947,-44 44,-44c24.30053,0 44,19.69947 44,44c0,24.30053 -19.69947,44 -44,44c-24.30053,0 -44,-19.69947 -44,-44z" data-paper-data="{&quot;index&quot;:null}" fill="#000000" stroke="#ffffff" stroke-width="10" stroke-linecap="butt"/><path d="M86.69966,307.76259c0,-24.30053 19.69947,-44 44,-44c24.30053,0 44,19.69947 44,44c0,24.30053 -19.69947,44 -44,44c-24.30053,0 -44,-19.69947 -44,-44z" data-paper-data="{&quot;index&quot;:null}" fill="#000000" stroke="#000000" stroke-width="5" stroke-linecap="butt"/><path d="M86.69966,307.76259c0,-24.30053 19.69947,-44 44,-44c24.30053,0 44,19.69947 44,44c0,24.30053 -19.69947,44 -44,44c-24.30053,0 -44,-19.69947 -44,-44z" data-paper-data="{&quot;index&quot;:null}" fill="url(#color-1)" stroke="none" stroke-width="0" stroke-linecap="butt"/><path d="M88.16703,307.75739c0,-23.51995 19.06669,-42.58664 42.58664,-42.58664c23.51995,0 42.58664,19.06669 42.58664,42.58664c0,23.51995 -19.06669,42.58664 -42.58663,42.58664c-23.51995,0 -42.58663,-19.06669 -42.58663,-42.58663z" fill="#34445f" stroke="#000000" stroke-width="3" stroke-linecap="butt"/><g stroke-linecap="butt"><path d="M115.64058,336.49699l-12.09804,-9.38336l7.02897,-7.85435l11.38079,10.18483z" fill="#000000" stroke="#000000" stroke-width="2"/><path d="M112.69272,327.24647l-9.97593,-8.9276l6.82422,-7.62556c0,0 1.23998,-0.70869 2.30859,-0.69924c1.5668,0.01385 6.18364,0.77431 6.18364,0.77431z" fill="#000000" stroke="none" stroke-width="0"/><path d="M103.59913,313.98393c0.49539,-0.79719 3.9295,-3.55542 5.91241,-2.88693c0.35135,0.11846 0.24628,2.96037 -0.16854,5.22141c-0.49742,2.71123 -1.3343,4.92911 -0.94002,5.21031c0.88315,0.62985 3.71119,1.3818 4.9294,1.49324c0.57388,0.05249 2.22499,-4.74498 2.39071,-5.43491c0.71307,-2.9689 0.22368,-5.37169 -0.02125,-6.27185c-0.06756,-0.24828 0.0305,-0.3855 0.28649,-0.38817c0.81845,-0.00856 2.75106,-0.01117 4.55639,0.11764c2.38532,0.17018 3.56411,1.80025 3.56411,1.80025c0,0 -1.51767,-1.4073 -1.44052,-2.54645c0.07713,-1.13917 1.26365,-2.21379 1.9445,-4.89599c0.61572,-2.42554 0.98859,-5.17526 1.12689,-6.30543c0.04096,-0.33481 0.24535,-0.42017 0.54826,-0.23453c1.27589,0.78201 4.66118,2.95411 5.28824,4.35161c0.34552,0.77006 0.04742,3.82535 0.14561,5.05288c0.2348,2.9355 0.42588,4.44723 0.42588,4.44723c0,0 -1.96605,1.93403 -4.38483,3.79074c-1.97858,1.5188 -4.43105,2.84834 -4.93018,4.17384c-0.89686,2.38175 0.38143,6.48998 0.38143,6.48998c0,0 -0.74598,-4.63269 0.83106,-6.78252c1.12533,-1.53405 3.55038,-2.60961 6.14801,-4.82866c2.16809,-1.8521 4.19323,-4.2575 5.25354,-5.44575c0.37378,-0.41889 0.63241,-0.93836 1.55298,-0.00119c0.95357,0.97076 2.37721,2.82326 2.92312,3.59148c1.1158,1.57017 0.46415,2.48705 0.0441,3.07965c-1.0802,1.52388 -5.89144,8.07048 -5.89144,8.07048c0,0 -4.25005,5.61158 -6.97572,6.69403c-6.60367,2.62253 -14.82142,-0.75816 -18.0585,-2.68331c-6.87888,-4.09099 -7.13018,-12.00165 -5.44213,-14.87903z" fill="#8495c0" stroke="#000000" stroke-width="3"/><path d="M103.59913,313.98393c0.49539,-0.79719 3.9295,-3.55542 5.91241,-2.88693c0.35135,0.11846 0.24628,2.96037 -0.16854,5.22141c-0.49742,2.71123 -1.3343,4.92911 -0.94002,5.21031c0.88315,0.62985 3.71119,1.3818 4.9294,1.49324c0.57388,0.05249 2.22499,-4.74498 2.39071,-5.43491c0.66377,-2.76363 0.2856,-5.03676 0.03258,-6.06393c-0.09378,-0.38063 -0.00487,-0.59384 0.28072,-0.59659c0.8441,-0.00814 2.73745,-0.00822 4.50832,0.11811c2.38532,0.17018 3.56411,1.80025 3.56411,1.80025c0,0 -1.01435,-0.94058 -1.34238,-1.90629c-0.07321,-0.21554 -0.11222,-0.43232 -0.09815,-0.64019c0.07713,-1.13917 1.26365,-2.21379 1.9445,-4.89599c0.56315,-2.21851 0.92318,-4.70821 1.08634,-5.98182c0.06808,-0.53138 0.36147,-0.6997 0.77149,-0.44549c1.38942,0.86142 4.50643,2.90374 5.10555,4.23898c0.34552,0.77006 0.04742,3.82535 0.14561,5.05289c0.2348,2.9355 0.42589,4.44721 0.42589,4.44721c0,0 -1.96605,1.93403 -4.38483,3.79074c-1.97858,1.5188 -4.43105,2.84834 -4.93017,4.17384c-0.89686,2.38175 0.38144,6.48996 0.38144,6.48996c0,0 -0.74599,-4.6327 0.83105,-6.78253c1.12533,-1.53405 3.55038,-2.6096 6.14801,-4.82864c2.16809,-1.8521 4.19323,-4.2575 5.25354,-5.44576c0.37378,-0.41889 0.63242,-0.93836 1.55297,-0.00118c0.95357,0.97076 2.37721,2.82326 2.92312,3.59148c1.1158,1.57017 0.46415,2.48704 0.04409,3.07964c-1.0802,1.52388 -5.89144,8.07048 -5.89144,8.07048c0,0 -4.25005,5.61158 -6.97571,6.69402c-6.60367,2.62253 -14.82143,-0.75815 -18.05851,-2.6833c-6.87888,-4.09099 -7.13018,-12.00165 -5.44212,-14.87902z" fill="#3c3c3c" stroke="none" stroke-width="0"/><path d="M108.69216,312.43298c0.35135,0.11846 1.06566,1.62435 0.65084,3.88539c-0.49742,2.71123 -1.3343,4.92911 -0.94002,5.21031c0.88315,0.62985 3.54367,1.569 4.76188,1.68043c0.33183,0.03035 1.12082,0.36652 1.9358,-0.27265c0.59455,-0.46629 1.21446,-1.49391 1.62392,-3.32953c0.69747,-2.90391 0.70687,-5.41386 0.67328,-6.42713c-0.01023,-0.30839 0.14022,-0.48366 0.46542,-0.48233c0.56237,0.00229 1.60492,0.02504 3.10655,0.13217c2.38532,0.17018 4.06942,2.80511 4.06942,2.80511c0,0 0.55612,0.69188 -0.23143,1.61218c-0.97484,1.13918 -2.25825,2.10585 -2.54455,3.88819c-0.28629,1.78234 0.95081,6.0336 0.95081,6.0336c0,0 -0.74599,-4.6327 0.83105,-6.78253c1.12533,-1.53405 3.55039,-2.60961 6.14802,-4.82867c0.82692,-0.70639 1.63305,-1.4933 2.37278,-2.26246c1.19975,-1.24747 2.22486,-2.44827 2.88075,-3.18331c0.37378,-0.41889 0.63242,-0.93836 1.55298,-0.00119c0.95357,0.97076 2.381,3.46633 1.8945,5.71112c-0.4865,2.24479 -4.73856,7.41186 -4.73856,7.41186c0,0 -5.35352,6.39489 -8.07919,7.47733c-7.64595,2.97767 -13.79809,0.07714 -17.03517,-1.84801c-1.20431,-0.71622 -2.20945,-1.53864 -3.03917,-2.42359c-3.90955,-4.16972 -3.92472,-9.72719 -2.53219,-12.10081c0,0 0.50643,-0.94891 1.30768,-1.42261c1.1192,-0.66167 2.75897,-0.87252 3.91458,-0.48293z" fill="#666666" stroke="none" stroke-width="0"/><path d="M124.6881,305.2283c0.33588,-2.11814 0.90322,-5.20508 0.90322,-5.20508c0,0 0.15897,-0.6369 1.03738,0.12796c0.31997,0.27059 0.75887,0.60445 1.31718,0.94652c0.90964,0.55736 2.01384,0.9703 2.33168,1.67862c0.34552,0.77006 0.44951,5.76875 0.44951,5.76875c0,0 -0.1783,5.51066 -3.54538,4.81117c-0.21304,-0.04426 -0.99385,-0.46351 -1.26622,-0.75822c-0.37522,-0.40599 -0.854,-0.96599 -1.26524,-1.43754c-0.31122,-0.35684 -0.71632,-1.37995 -0.65118,-2.05685c0.11744,-1.22008 0.48737,-3.08083 0.68906,-3.87534z" fill="#666666" stroke="none" stroke-width="0"/><g><path d="M113.32858,336.8502c-1.77423,-0.21898 -5.95616,-3.42922 -8.20401,-5.78022c-1.8954,-1.98238 -2.05836,-3.13721 -1.84102,-3.55394c0.70138,-1.34493 3.95966,2.52372 6.76612,3.92074c1.71047,0.85144 6.08141,1.8038 8.15203,2.22526c0.68651,0.13974 0.82714,0.54953 0.33193,0.98888c-1.08384,0.96159 -3.13624,2.45461 -5.20505,2.19928z" fill="#9966ff" stroke="#000000" stroke-width="3"/><path d="M113.32859,336.8502c-1.77423,-0.21898 -5.95616,-3.42922 -8.20401,-5.78022c-1.8954,-1.98238 -2.05835,-3.13722 -1.84102,-3.55394c0.70138,-1.34493 3.95966,2.52372 6.76612,3.92073c1.71047,0.85144 6.08142,1.8038 8.15203,2.22526c0.68651,0.13974 0.82714,0.54953 0.33193,0.98888c-1.08384,0.96159 -3.13624,2.45461 -5.20505,2.19928z" fill="#3c3c3c" stroke="none" stroke-width="0"/><path d="M112.68385,336.66572c0,0 -0.81005,-0.27001 -2.49603,-1.35916c-1.81085,-1.1698 -3.89919,-3.01905 -5.06324,-4.23652c-1.8954,-1.98238 -2.05836,-3.13721 -1.84103,-3.55395c0.37368,-0.71656 2.68247,2.79069 5.62979,4.68669c1.4562,0.93678 3.28022,1.73546 4.46998,1.92606c0.92194,0.1477 0.89147,0.64555 0.72659,0.9776c-0.26895,0.54166 -1.42606,1.55927 -1.42606,1.55927z" fill="#666666" stroke="none" stroke-width="0"/></g><path d="M112.38796,321.86312c-0.43064,-0.09415 -1.68344,-0.36809 -2.4467,-0.53497c-0.36331,-0.07943 -0.5741,-0.32396 -0.50754,-0.63743c0.21917,-1.03217 0.70908,-3.41018 0.87655,-4.80637c0.15021,-1.25215 0.2278,-3.57235 0.25642,-4.61559c0.00906,-0.33019 0.24747,-0.49023 0.59506,-0.42404c0.63487,0.12091 1.64787,0.32178 2.30215,0.4913c0.16334,0.04232 0.74709,0.30019 0.96425,0.63133c0.17948,0.27372 0.33896,0.65719 0.37114,1.1575c0.13181,2.04894 -0.47441,5.42904 -0.73448,6.82381c-0.11927,0.63963 -0.38692,1.15718 -0.62226,1.51242c-0.22973,0.34678 -0.76722,0.46486 -1.05458,0.40203z" fill="#97c4d3" stroke="none" stroke-width="0"/><path d="M112.36307,320.44237c-0.25539,-0.05584 -0.99834,-0.21828 -1.45097,-0.31726c-0.21545,-0.0471 -0.34046,-0.19212 -0.301,-0.37801c0.06087,-0.28662 1.07471,-1.80775 1.20545,-3.53136c0.1545,-2.03675 -0.07923,-2.61173 -0.26873,-3.35349c-0.09736,-0.38108 0.16689,-0.58357 0.40851,-0.58234c0.20405,0.00103 1.10083,0.19571 1.62164,0.3803c0.2166,0.07677 0.42835,0.62274 0.41435,0.8898c-0.09069,1.73022 -0.51866,5.13405 -0.63482,5.75705c-0.07073,0.37932 -0.22946,0.68625 -0.36901,0.89691c-0.13624,0.20567 -0.45499,0.27568 -0.62541,0.23842z" fill="#45667e" stroke="none" stroke-width="0"/></g><path d="M104.42397,341.55255c0.07898,-0.77287 1.36611,-2.82326 2.00982,-2.95878c0.80745,-0.16999 3.318,-0.10474 3.318,-0.10474l1.8,7.57613c-1.62263,-0.79109 -1.69298,-2.45948 -3.94811,-1.90691c0.10277,-2.66776 -3.26768,-1.74491 -3.17972,-2.6057z" fill="#a6a6a6" stroke="#000000" stroke-width="1.5" stroke-linecap="butt"/><path d="M109.85716,337.66581c0.59024,-3.99757 2.48009,-6.81559 2.48009,-6.81559c0,0 1.12963,-1.64529 2.93801,-1.64529c1.36395,0 3.53874,0.16864 6.10133,0.44327c2.36403,0.25335 4.59302,3.55242 4.59302,3.55242c0,0 4.69269,4.21409 3.99033,6.38587c-0.35195,1.08826 -1.94022,2.8751 -1.94022,2.8751c0,0 0.4546,3.94101 0.31818,7.70777c-0.00183,0.05081 -18.89567,-3.3271 -18.89194,-5.09382c0.00467,-2.21187 0.08307,-5.18732 0.41121,-7.40974z" fill="#7b7b7b" stroke="#000000" stroke-width="1.5" stroke-linecap="butt"/><path d="M112.68981,329.90999c0,0 3.74784,-0.53901 5.87144,-0.40009c2.06638,0.13518 5.76308,1.69281 5.76308,1.69281l4.11321,11.39947c0,0 0.58901,4.97577 -2.06581,7.80288c-0.00924,0.00984 -0.01851,0.01965 -0.02783,0.02943c-3.36313,0.59348 -13.30775,-2.04964 -13.90756,-4.47408c-0.85585,-3.45939 -0.80421,-7.08251 -0.80421,-8.29407v-0.00001c0.00001,-2.04134 1.05768,-7.75633 1.05768,-7.75633z" fill="#cccccc" stroke="none" stroke-width="1.5" stroke-linecap="butt"/><path d="M124.79441,333.78819c3.43507,1.31491 5.86789,3.6265 5.16554,5.79826c-0.35195,1.08826 -1.94022,2.8751 -1.94022,2.8751c0,0 -6.7677,2.76464 -9.87364,0.83649c-1.73419,-1.07659 -3.6467,-5.37896 -2.09825,-7.58212c1.67546,-2.38388 6.96138,-2.61109 8.74658,-1.92773z" fill="#45667e" stroke="#000000" stroke-width="1.5" stroke-linecap="butt"/><path d="M104.78877,343.18983l0.51227,-4.11321h4.09819l-0.12806,3.05554c0,0 -1.49894,-0.03245 -2.41477,0.18365c-0.91584,0.2161 -2.06763,0.87402 -2.06763,0.87402z" fill="#cccccc" stroke="none" stroke-width="1.5" stroke-linecap="butt"/><path d="M104.42397,341.55255c0.07898,-0.77287 1.36611,-2.82326 2.00982,-2.95878c0.80745,-0.16999 3.318,-0.10474 3.318,-0.10474v9.77613" fill="none" stroke="#000000" stroke-width="1.5" stroke-linecap="butt"/><path d="M120.21112,339.54672c-3.29756,-1.3938 -2.46792,-4.23073 -2.46792,-4.23073c0,0 2.55616,-2.70297 4.46577,-2.70297c1.89002,0 6.29084,3.13154 6.29084,3.13154c0,0 1.77079,1.81036 0.39875,2.76574c-2.2356,1.55669 -6.75938,1.85138 -8.68744,1.03643z" fill="#97c4d3" stroke="none" stroke-width="1.5" stroke-linecap="butt"/><path d="M124.79441,333.78819c3.43507,1.31491 5.86789,3.6265 5.16554,5.79826c-0.35195,1.08826 -1.94022,2.8751 -1.94022,2.8751c0,0 -6.7677,2.76464 -9.87364,0.83649c-1.73419,-1.07659 -3.6467,-5.37896 -2.09825,-7.58212c1.67546,-2.38388 6.96138,-2.61109 8.74658,-1.92773z" fill="none" stroke="#000000" stroke-width="1.5" stroke-linecap="butt"/><path d="M94.22485,353.81233c-0.67179,-1.85398 -1.03263,-3.81857 -1.03263,-5.85264c0,-11.27494 11.08696,-20.41509 24.76343,-20.41509c13.67647,0 24.76343,9.14014 24.76343,20.41509c0,1.18867 -0.12323,2.35361 -0.35972,3.48661" fill="none" stroke="none" stroke-width="1.5" stroke-linecap="butt"/><path d="M94.30847,353.80915c-0.72543,-1.95073 -1.11626,-4.02503 -1.11626,-6.17579c0,-11.45518 11.08696,-20.74143 24.76343,-20.74143c13.67647,0 24.76343,9.28625 24.76343,20.74143c0,1.28843 -0.14025,2.54941 -0.40868,3.77283" fill="none" stroke="none" stroke-width="1.5" stroke-linecap="butt"/><path d="M94.21432,353.81283c-0.66504,-1.84168 -1.02211,-3.79239 -1.02211,-5.81171c0,-11.25207 11.08696,-20.37369 24.76343,-20.37369c13.67647,0 24.76343,9.12161 24.76343,20.37369c0,1.17601 -0.12111,2.32875 -0.35362,3.45024" fill="none" stroke="none" stroke-width="1.5" stroke-linecap="butt"/><path d="M94.22485,353.81233c-0.67179,-1.85398 -1.03263,-3.81857 -1.03263,-5.85264c0,-11.27494 11.08696,-20.41509 24.76343,-20.41509c13.67647,0 24.76343,9.14014 24.76343,20.41509c0,1.18867 -0.12323,2.35361 -0.35972,3.48661" fill="none" stroke="none" stroke-width="1.5" stroke-linecap="butt"/><path d="M94.30847,353.80915c-0.72543,-1.95073 -1.11626,-4.02503 -1.11626,-6.17579c0,-11.45518 11.08696,-20.74143 24.76343,-20.74143c13.67647,0 24.76343,9.28625 24.76343,20.74143c0,1.28843 -0.14025,2.54941 -0.40868,3.77283" fill="none" stroke="none" stroke-width="1.5" stroke-linecap="butt"/><path d="M94.21432,353.81283c-0.66504,-1.84168 -1.02211,-3.79239 -1.02211,-5.81171c0,-11.25207 11.08696,-20.37369 24.76343,-20.37369c13.67647,0 24.76343,9.12161 24.76343,20.37369c0,1.17601 -0.12111,2.32875 -0.35362,3.45024" fill="none" stroke="none" stroke-width="1.5" stroke-linecap="butt"/><path d="M94.22485,353.81233c-0.67179,-1.85398 -1.03263,-3.81857 -1.03263,-5.85264c0,-11.27494 11.08696,-20.41509 24.76343,-20.41509c13.67647,0 24.76343,9.14014 24.76343,20.41509c0,1.18867 -0.12323,2.35361 -0.35972,3.48661" fill="none" stroke="none" stroke-width="1.5" stroke-linecap="butt"/><path d="M94.30847,353.80915c-0.72543,-1.95073 -1.11626,-4.02503 -1.11626,-6.17579c0,-11.45518 11.08696,-20.74143 24.76343,-20.74143c13.67647,0 24.76343,9.28625 24.76343,20.74143c0,1.28843 -0.14025,2.54941 -0.40868,3.77283" fill="none" stroke="none" stroke-width="1.5" stroke-linecap="butt"/><path d="M94.34987,353.80791c-0.75194,-1.9476 -1.15765,-4.0221 -1.15765,-6.17456c0,-11.25207 11.08696,-20.37368 24.76343,-20.37368c13.67647,0 24.76343,9.12161 24.76343,20.37368c0,1.28544 -0.14469,2.54308 -0.42141,3.76248" fill="none" stroke="none" stroke-width="1.5" stroke-linecap="butt"/><path d="M109.48618,348.14138c-0.00146,-0.04403 -0.00288,-0.08806 -0.00429,-0.13208c-0.12718,-3.98561 -0.21497,-6.34592 0.37528,-10.34349c0.59025,-3.99757 2.48008,-6.81559 2.48008,-6.81559c0,0 1.12962,-1.64529 2.93801,-1.64529c1.36394,0 3.53875,0.16865 6.10134,0.44328c2.36403,0.25335 4.59301,3.55241 4.59301,3.55241c0,0 4.6927,4.2141 3.99034,6.38587c-0.35195,1.08826 -1.94022,2.8751 -1.94022,2.8751c0,0 0.4546,2.34101 0.31818,6.10778c-0.00184,0.05081 1.91106,-0.24527 3.31738,0.66888c0.15414,0.10019 0.29927,0.20313 0.4359,0.30827" fill="none" stroke="#000000" stroke-width="1.5" stroke-linecap="butt"/><g stroke-linecap="butt"><path d="M97.52928,297.81622l-1.07554,-15.27263h10.54027v15.27263z" fill="#000000" stroke="#000000" stroke-width="2"/><path d="M102.45666,289.45072v-13.38735h10.23324c0,0 1.355,0.4514 2.06058,1.25401c1.03453,1.17678 3.54668,5.12426 3.54668,5.12426z" fill="#000000" stroke="none" stroke-width="0"/><path d="M106.27538,273.83002c0.92441,-0.16247 5.26987,0.55717 6.09407,2.48058c0.14603,0.34082 -2.04176,2.1577 -4.00326,3.3564c-2.35206,1.43737 -4.56286,2.29278 -4.50946,2.77411c0.1196,1.07813 1.44519,3.68697 2.17453,4.66906c0.34359,0.46265 5.01962,-1.50627 5.64425,-1.84287c2.68788,-1.4485 4.15202,-3.41553 4.65946,-4.19833c0.13996,-0.21591 0.3076,-0.23435 0.48031,-0.04537c0.55218,0.60418 1.84292,2.04257 2.95085,3.47376c1.46388,1.89097 1.03529,3.85642 1.03529,3.85642c0,0 0.0366,-2.06941 0.93692,-2.77159c0.90032,-0.7022 2.49235,-0.53467 4.9451,-1.81599c2.21806,-1.1587 4.51574,-2.71454 5.45014,-3.36516c0.27681,-0.19275 0.47672,-0.09737 0.54038,0.25215c0.26811,1.47226 0.90706,5.4434 0.28384,6.84262c-0.34341,0.771 -2.81894,2.58634 -3.66818,3.47811c-2.03088,2.13256 -3.02996,3.28307 -3.02996,3.28307c0,0 -2.75229,-0.17531 -5.74887,-0.73954c-2.45123,-0.46155 -5.07744,-1.40244 -6.39802,-0.89045c-2.37291,0.91999 -4.58181,4.61219 -4.58181,4.61219c0,0 2.9547,-3.64528 5.60838,-3.90376c1.89359,-0.18444 4.31225,0.90539 7.69811,1.36127c2.82597,0.3805 5.96892,0.2855 7.56146,0.28321c0.56141,-0.00081 1.12098,-0.15451 1.03652,1.15645c-0.08748,1.35795 -0.51854,3.65418 -0.72695,4.57328c-0.42596,1.87856 -1.54376,2.00441 -2.26547,2.08658c-1.85591,0.21129 -9.94274,0.99179 -9.94274,0.99179c0,0 -7.01583,0.57515 -9.64011,-0.7341c-6.35802,-3.17201 -9.31897,-11.55016 -10.0431,-15.24617c-1.5388,-7.85412 4.18845,-13.31675 7.45831,-13.97769z" fill="#8495c0" stroke="#000000" stroke-width="3"/><path d="M106.27538,273.83002c0.92441,-0.16247 5.26987,0.55717 6.09407,2.48058c0.14603,0.34082 -2.04176,2.1577 -4.00326,3.3564c-2.35206,1.43737 -4.56286,2.29278 -4.50946,2.77411c0.1196,1.07813 1.44519,3.68697 2.17453,4.66906c0.34359,0.46265 5.01962,-1.50627 5.64425,-1.84287c2.50204,-1.34835 3.94373,-3.14603 4.54042,-4.01956c0.2211,-0.32371 0.43927,-0.39964 0.63177,-0.18866c0.56897,0.62358 1.83165,2.0344 2.91844,3.43826c1.46388,1.89097 1.03529,3.85642 1.03529,3.85642c0,0 0.02446,-1.38311 0.52533,-2.27155c0.1118,-0.19829 0.24732,-0.37192 0.4116,-0.50006c0.90032,-0.7022 2.49235,-0.53467 4.9451,-1.81599c2.02873,-1.05981 4.12408,-2.45182 5.18195,-3.17957c0.44137,-0.30363 0.76245,-0.19725 0.84645,0.27781c0.28465,1.60981 0.8414,5.29449 0.24594,6.63137c-0.34341,0.771 -2.81894,2.58634 -3.66819,3.47812c-2.03088,2.13256 -3.02994,3.28307 -3.02994,3.28307c0,0 -2.75229,-0.17531 -5.74887,-0.73954c-2.45123,-0.46155 -5.07744,-1.40244 -6.39802,-0.89044c-2.37291,0.91999 -4.58179,4.61219 -4.58179,4.61219c0,0 2.9547,-3.64529 5.60838,-3.90377c1.89359,-0.18444 4.31225,0.9054 7.6981,1.36128c2.82597,0.3805 5.96892,0.2855 7.56147,0.28321c0.56141,-0.00081 1.12098,-0.1545 1.03651,1.15645c-0.08748,1.35795 -0.51854,3.65418 -0.72695,4.57328c-0.42596,1.87856 -1.54376,2.0044 -2.26547,2.08657c-1.85591,0.21129 -9.94274,0.99179 -9.94274,0.99179c0,0 -7.01583,0.57515 -9.6401,-0.7341c-6.35802,-3.17201 -9.31898,-11.55016 -10.04311,-15.24617c-1.5388,-7.85412 4.18845,-13.31675 7.45831,-13.97768z" fill="#7b7b7b" stroke="none" stroke-width="0"/><path d="M110.82746,276.59094c0.14603,0.34082 -0.49977,1.87733 -2.46127,3.07603c-2.35206,1.43737 -4.56286,2.29278 -4.50946,2.77411c0.1196,1.07813 1.19398,3.68697 1.92333,4.66906c0.19867,0.26751 0.47432,1.07963 1.4941,1.26069c0.74395,0.13209 1.92311,-0.09125 3.56403,-1.01025c2.62904,-1.41679 4.50567,-3.08359 5.23833,-3.78433c0.22298,-0.21328 0.45392,-0.21805 0.6698,0.02517c0.37332,0.42059 1.05161,1.21265 1.97317,2.40307c1.46388,1.89097 0.62347,4.90307 0.62347,4.90307c0,0 -0.14472,0.8758 -1.35569,0.90266c-1.49898,0.03325 -3.07518,-0.27847 -4.59426,0.69677c-1.51908,0.97525 -3.86203,4.73214 -3.86203,4.73214c0,0 2.9547,-3.64529 5.60838,-3.90377c1.89359,-0.18444 4.31226,0.9054 7.69812,1.36127c1.07783,0.14513 2.2018,0.22108 3.26826,0.25938c1.72966,0.06213 3.30808,0.02524 4.29321,0.02382c0.56141,-0.00081 1.12098,-0.1545 1.03652,1.15645c-0.08748,1.35795 -0.99521,4.08585 -2.99241,5.2203c-1.9972,1.13445 -8.68313,1.41167 -8.68313,1.41167c0,0 -8.33541,0.27524 -10.95968,-1.03402c-7.31773,-3.71186 -9.25899,-10.23056 -9.98312,-13.92657c-0.26941,-1.37505 -0.32685,-2.6725 -0.22073,-3.88093c0.50002,-5.69396 4.6312,-9.41136 7.32859,-9.95657c0,0 1.04483,-0.25542 1.93214,0.02576c1.23942,0.39276 2.49005,1.47406 2.97038,2.595z" fill="#cccccc" stroke="none" stroke-width="0"/><path d="M126.86339,283.70617c1.80237,-1.16223 4.48103,-2.79804 4.48103,-2.79804c0,0 0.58061,-0.30627 0.59644,0.85836c0.01174,0.41888 0.05565,0.96858 0.17306,1.61274c0.19128,1.04953 0.61992,2.14773 0.30405,2.85693c-0.34341,0.771 -3.99897,4.18196 -3.99897,4.18196c0,0 -4.22531,3.54202 -5.94947,0.56648c-0.10909,-0.18827 -0.31737,-1.0497 -0.27939,-1.44919c0.05231,-0.55035 0.15033,-1.28057 0.22747,-1.90148c0.05837,-0.46988 0.55061,-1.45403 1.09846,-1.85689c0.98749,-0.72612 2.62077,-1.69133 3.34732,-2.07087z" fill="#cbcbcb" stroke="none" stroke-width="0"/><g><path d="M95.72423,296.32894c-1.02,-1.46814 -1.4166,-6.72522 -1.16371,-9.96807c0.21324,-2.73439 0.96512,-3.62594 1.42059,-3.74189c1.46994,-0.37424 0.75995,4.63363 1.59047,7.65656c0.50618,1.8424 2.71135,5.73462 3.77812,7.55865c0.35368,0.60476 0.1421,0.98283 -0.51553,0.9068c-1.43933,-0.1664 -3.92057,-0.70015 -5.10993,-2.41205z" fill="#9966ff" stroke="#000000" stroke-width="3"/><path d="M95.72424,296.32894c-1.02,-1.46814 -1.4166,-6.72522 -1.16371,-9.96807c0.21324,-2.73439 0.96513,-3.62594 1.42059,-3.74189c1.46994,-0.37424 0.75996,4.63363 1.59048,7.65656c0.50618,1.8424 2.71136,5.73462 3.77812,7.55865c0.35368,0.60476 0.1421,0.98283 -0.51554,0.9068c-1.43933,-0.1664 -3.92057,-0.70015 -5.10993,-2.41205z" fill="#7b7b7b" stroke="none" stroke-width="0"/><path d="M95.43179,295.72542c0,0 -0.33899,-0.78369 -0.65171,-2.76636c-0.33589,-2.1295 -0.35052,-4.91889 -0.21956,-6.59821c0.21324,-2.73439 0.96512,-3.62595 1.42059,-3.74191c0.78316,-0.19939 -0.2907,3.85993 0.26192,7.32059c0.27303,1.70983 0.89425,3.60166 1.54563,4.61535c0.50475,0.78551 0.11344,1.0948 -0.24394,1.19337c-0.58299,0.1608 -2.11292,-0.02284 -2.11292,-0.02284z" fill="#cccccc" stroke="none" stroke-width="0"/></g><path d="M106.26497,285.63363c-0.21702,-0.38369 -0.84834,-1.49993 -1.23298,-2.17998c-0.18309,-0.3237 -0.14144,-0.64384 0.13653,-0.80329c0.9153,-0.525 3.01405,-1.74575 4.16614,-2.55203c1.03324,-0.72309 2.81394,-2.21254 3.61043,-2.88691c0.25209,-0.21344 0.53034,-0.14251 0.71281,0.16064c0.33328,0.55372 0.85913,1.44254 1.16912,2.04314c0.07739,0.14994 0.27452,0.7569 0.17257,1.13955c-0.08428,0.31628 -0.26368,0.69085 -0.61504,1.04847c-1.43892,1.46459 -4.36196,3.26693 -5.57474,4.00327c-0.55617,0.33767 -1.12033,0.48336 -1.54198,0.54489c-0.41161,0.06007 -0.85804,-0.26171 -1.00285,-0.51775z" fill="#97c4d3" stroke="none" stroke-width="0"/><path d="M107.30708,284.66758c-0.1287,-0.22755 -0.5031,-0.8895 -0.73119,-1.2928c-0.10858,-0.19196 -0.08388,-0.38182 0.08096,-0.47638c0.25417,-0.14578 2.06378,-0.40468 3.43536,-1.45668c1.62077,-1.24311 1.89336,-1.80072 2.31973,-2.43659c0.21905,-0.32668 0.54616,-0.2648 0.70637,-0.08393c0.13531,0.15274 0.58827,0.95083 0.79803,1.46202c0.08724,0.2126 -0.1784,0.73448 -0.38674,0.90214c-1.3498,1.08625 -4.17165,3.03724 -4.71336,3.36614c-0.32983,0.20025 -0.66439,0.28665 -0.91444,0.32314c-0.24411,0.03563 -0.50885,-0.15521 -0.59473,-0.30704z" fill="#45667e" stroke="none" stroke-width="0"/></g><g data-paper-data="{&quot;index&quot;:null}" stroke-linecap="butt"><path d="M150.7491,324.1219c0,0 0.13703,-4.67705 0.42325,-6.21755c0.1952,-1.05068 1.12807,-2.13213 1.12807,-2.13213l8.79048,-5.23896l6.85372,11.49989z" fill="#000000" stroke="none" stroke-width="0"/><path d="M156.66721,310.5698c3.14722,-1.10627 10.86362,0.6541 13.56273,8.18868c1.27015,3.54564 -3.7841,7.05845 -7.62179,13.03827c-1.58401,2.46817 -4.70515,4.7659 -4.70515,4.7659c0,0 -4.14626,4.46964 -5.84868,5.23828c-0.66202,0.2989 -1.28666,5.76306 -2.61431,4.36742c-0.64956,-0.68282 -2.19541,-2.43462 -2.96577,-3.55633c-0.74371,-1.08289 -0.18435,-1.23734 0.29833,-1.52406c1.36918,-0.81334 4.11765,-2.34078 6.35039,-4.11441c2.67511,-2.12502 4.19483,-4.29944 5.91586,-5.11043c2.41188,-1.13653 6.81622,0.48213 6.81622,0.48213c0,0 -3.78771,-2.04078 -6.29706,-1.61624c-1.39651,0.23627 -3.17076,2.38902 -5.04011,4.04041c-2.28524,2.0188 -4.55974,3.57844 -4.55974,3.57844c0,0 -1.44723,-0.47682 -4.28356,-1.269c-1.18606,-0.33127 -4.24194,-0.62331 -4.93165,-1.1098c-1.25169,-0.88288 -2.73587,-4.62125 -3.25929,-6.0232c-0.12426,-0.33283 -0.00137,-0.51711 0.3351,-0.49325c1.13575,0.08052 3.906,0.2407 6.40455,0.10048c2.76292,-0.15503 4.04472,-1.11398 5.17761,-0.97171c1.13287,0.14226 2.22376,1.90116 2.22376,1.90116c0,0 -1.37438,-1.46893 -1.08498,-3.84273c0.21902,-1.79662 0.59139,-3.69301 0.75641,-4.4947c0.05161,-0.25076 0.20505,-0.32074 0.43582,-0.20693c0.83666,0.41265 3.1014,1.35278 6.15189,1.22098c0.70889,-0.03064 5.73365,-0.73323 5.79194,-1.30656c0.12373,-1.21702 -0.07318,-4.13668 -0.5224,-5.12404c-0.20055,-0.44081 -2.53758,-0.04379 -5.2939,-0.07436c-2.29863,-0.0255 -5.10813,-0.46616 -5.15718,-0.83369c-0.2767,-2.07418 3.08768,-4.91705 3.96493,-5.25074z" fill="#8495c0" stroke="#000000" stroke-width="3"/><path d="M156.66717,310.56978c3.14721,-1.10627 10.86362,0.6541 13.56273,8.18868c1.27015,3.54564 -1.58411,8.65845 -5.4218,14.63826c-1.584,2.46817 -10.50513,9.7659 -10.50513,9.7659c0,0 -1.14627,1.06964 -2.84869,1.83828c-0.66202,0.2989 -1.28665,2.16307 -2.61429,0.76743c-0.64956,-0.68282 -1.59542,-2.03463 -2.36578,-3.15634c-0.74371,-1.08288 -0.18435,-1.23733 0.29833,-1.52405c1.36919,-0.81335 4.11766,-2.34079 6.3504,-4.11442c2.67509,-2.12501 4.19481,-4.29944 5.91584,-5.11043c2.41188,-1.13653 6.81623,0.48215 6.81623,0.48215c0,0 -3.7877,-2.0408 -6.29705,-1.61626c-1.39651,0.23627 -3.17076,2.389 -5.04011,4.0404c-2.28524,2.0188 -4.55974,3.57844 -4.55974,3.57844c0,0 -1.44721,-0.47683 -4.28354,-1.269c-1.18607,-0.33127 -4.24195,-0.62331 -4.93166,-1.1098c-1.19593,-0.84355 -2.60406,-4.29376 -3.1837,-5.82234c-0.17105,-0.45108 0.0503,-0.70684 0.58488,-0.67199c1.2813,0.08357 3.79388,0.20659 6.07916,0.07836c2.76292,-0.15503 4.04473,-1.11398 5.17761,-0.97171c0.20672,0.02597 0.41202,0.10574 0.60958,0.21884c0.8851,0.50676 1.61419,1.68234 1.61419,1.68234c0,0 -1.37438,-1.46893 -1.08498,-3.84274c0.21485,-1.76232 0.57724,-3.62066 0.74674,-4.44761c0.05735,-0.27979 0.28363,-0.32626 0.63929,-0.16138c0.95977,0.44489 3.11853,1.25104 5.95811,1.12836c0.70889,-0.03064 5.73365,-0.73323 5.79194,-1.30656c0.12373,-1.21702 -0.07318,-4.13668 -0.5224,-5.12404c-0.20055,-0.44081 -2.53758,-0.04379 -5.2939,-0.07436c-2.29863,-0.0255 -5.10813,-0.46616 -5.15718,-0.83369c-0.2767,-2.07418 3.08768,-4.91705 3.96493,-5.25074z" fill="#7b7b7b" stroke="none" stroke-width="0"/><path d="M154.17031,315.27191c-0.16126,-1.20881 0.35947,-2.77792 1.22307,-3.74984c0.61826,-0.6958 1.64654,-1.0113 1.64654,-1.0113c2.59622,-0.9126 8.0481,0.16571 11.39267,4.80091c0.70982,0.98372 1.32471,2.12766 1.79725,3.44677c0.29862,0.83361 0.61933,1.83569 0.87824,2.97107c0.84232,3.6938 -12.20921,18.80203 -12.20921,18.80203c0,0 -4.88522,4.98476 -7.18162,5.03274c-2.2964,0.04797 -4.47272,-1.83061 -5.24308,-2.95232c-0.7437,-1.08288 -0.18434,-1.23734 0.29833,-1.52406c0.84697,-0.50313 2.22173,-1.27951 3.67573,-2.21839c0.89649,-0.57888 1.82311,-1.21954 2.67468,-1.89601c2.67511,-2.125 4.19483,-4.29945 5.91587,-5.11044c2.41188,-1.13653 6.81622,0.48215 6.81622,0.48215c0,0 -3.93598,-2.02773 -5.74017,-2.08778c-1.80418,-0.06004 -2.99858,1.01467 -4.30324,1.75352c-1.05399,0.59689 -1.62668,-0.08134 -1.62668,-0.08134c0,0 -2.26398,-2.15718 -1.97458,-4.53098c0.18219,-1.49439 0.35934,-2.52202 0.46471,-3.07444c0.06092,-0.31945 0.26175,-0.43358 0.56248,-0.36453c0.98811,0.22686 3.45349,0.6979 6.4372,0.56899c1.88005,-0.05064 3.00731,-0.46247 3.57874,-0.9568c0.78331,-0.67762 0.60433,-1.51636 0.63804,-1.84786c0.12374,-1.21702 -0.28897,-4.00808 -0.73819,-4.99544c-0.20055,-0.44081 -2.53758,-0.04379 -5.2939,-0.07436c-2.29863,-0.0255 -3.64001,-1.01476 -3.68905,-1.38229z" fill="#cccccc" stroke="none" stroke-width="0"/><path d="M147.97357,329.65889c0.67685,0.06558 1.60354,0.65898 1.89424,1.03273c0.38414,0.49388 0.84218,1.07097 1.16887,1.51694c0.23714,0.32373 0.49925,1.17033 0.50192,1.38791c0.04227,3.43872 -5.40068,2.55925 -5.40068,2.55925c0,0 -4.88643,-1.05857 -5.57614,-1.54506c-0.63441,-0.4475 -0.82844,-1.61031 -1.20144,-2.60979c-0.22893,-0.61345 -0.47263,-1.10813 -0.67699,-1.47397c-0.58264,-1.00853 0.07291,-1.04269 0.07291,-1.04269c0,0 3.13846,0.03383 5.28173,0.10946c0.81842,-0.04593 2.71558,-0.05297 3.93559,0.06522z" fill="#cbcbcb" stroke="none" stroke-width="0"/><g><path d="M172.36323,319.84074c-0.83418,-3.02193 -3.80787,-6.56027 -2.35358,-6.99133c0.45061,-0.13358 1.55293,0.24734 3.13599,2.48705c1.87743,2.65618 -0.27399,6.34607 -0.7824,4.50428z" fill="#9966ff" stroke="#000000" stroke-width="3"/><path d="M172.04343,318.81082c-1.17431,-2.71101 -3.26643,-5.59603 -2.03379,-5.9614c0.4506,-0.13358 1.55293,0.24734 3.13599,2.48705c0.2508,0.35483 -0.89103,3.96184 -1.10219,3.47435z" fill="#7b7b7b" stroke="none" stroke-width="0"/><path d="M172.73246,317.87192c-1.297,-3.25567 -3.49765,-4.7929 -2.72282,-5.02256c0.45062,-0.13357 1.55294,0.24736 3.136,2.48706c0.97224,1.37551 0.22764,4.14405 -0.41317,2.5355z" fill="#cccccc" stroke="none" stroke-width="0"/></g><path d="M162.71902,320.7039c0.00669,0.29408 -0.21206,0.79904 -0.5964,0.95817c-0.39371,0.16301 -0.95291,0.32669 -1.60354,0.32136c-1.41877,-0.01164 -4.85241,-0.0634 -6.83827,-0.58484c-0.48491,-0.12732 -0.83077,-0.35724 -1.06509,-0.58578c-0.28348,-0.2765 -0.42488,-0.89881 -0.43516,-1.06723c-0.04119,-0.67462 -0.04451,-1.70734 -0.0417,-2.35362c0.00154,-0.35382 0.20425,-0.55721 0.53007,-0.50292c1.02944,0.17152 3.32161,0.53934 4.57937,0.63151c1.40244,0.10278 3.83026,0.07695 4.88529,0.05935c0.32041,-0.00534 0.52008,0.24834 0.52853,0.62014c0.01774,0.78109 0.0469,2.06316 0.05691,2.50386z" fill="#97c4d3" stroke="none" stroke-width="0"/><path d="M161.32932,320.40756c0.00396,0.17439 -0.12575,0.47387 -0.35369,0.56823c-0.23347,0.09667 -0.56511,0.19373 -0.95095,0.19057c-0.63372,-0.0052 -4.05654,-0.23646 -5.77214,-0.47852c-0.2648,-0.03736 -0.76017,-0.34967 -0.79407,-0.57696c-0.08152,-0.54651 -0.101,-1.46396 -0.06297,-1.66445c0.04503,-0.23739 0.29433,-0.45801 0.64974,-0.28954c0.6918,0.32794 1.21142,0.66738 3.24011,0.90546c1.71678,0.2015 3.4038,-0.50255 3.69677,-0.50745c0.19001,-0.00316 0.30842,0.14728 0.31343,0.36777c0.01054,0.46321 0.02781,1.22352 0.03375,1.48487z" fill="#45667e" stroke="none" stroke-width="0"/></g><path d="M179.01477,308.76259c0,0 102.58715,0 143.8151,0c31.10305,0 81.85156,0 81.85156,0" data-paper-data="{&quot;index&quot;:null}" fill="none" stroke="#ffffff" stroke-width="3.25" stroke-linecap="round"/><g data-paper-data="{&quot;index&quot;:null}" stroke-linecap="butt"><path d="M157.13631,292.34502c0,0 2.75455,-3.78232 3.86078,-4.89197c0.75448,-0.75682 2.13511,-1.12244 2.13511,-1.12244l8.71313,2.14117l0.6612,11.86105z" fill="#000000" stroke="none" stroke-width="0"/><path d="M172.82738,306.57678c-1.8057,2.83326 -4.3049,5.55302 -7.56411,6.93126c-2.70115,1.14225 -9.66716,0.12865 -9.66716,0.12865c0,0 -8.02204,-1.28566 -9.86106,-1.61282c-0.71515,-0.12723 -1.82286,-0.32287 -2.13028,-2.22443c-0.15042,-0.93035 -0.43676,-3.24908 -0.43898,-4.60984c-0.00215,-1.31367 0.54669,-1.12522 1.10695,-1.08923c1.58927,0.10207 4.72008,0.39381 7.56434,0.19112c3.40777,-0.24284 5.88997,-1.17899 7.76828,-0.87626c2.63227,0.42424 5.35277,4.24749 5.35277,4.24749c0,0 -1.97322,-3.82334 -4.28383,-4.8902c-1.28591,-0.59373 -3.9659,0.18077 -6.44124,0.48782c-3.02605,0.37536 -5.78392,0.37788 -5.78392,0.37788c0,0 -0.92503,-1.21085 -2.8183,-3.46647c-0.7917,-0.94323 -3.14862,-2.91011 -3.44304,-3.70111c-0.53432,-1.43552 0.35218,-5.35882 0.71201,-6.81139c0.08543,-0.34485 0.29092,-0.42751 0.55512,-0.21779c0.8918,0.70789 3.08749,2.40463 5.22859,3.70003c2.36765,1.43248 3.96704,1.36504 4.8216,2.12227c0.85456,0.75721 0.76142,2.82485 0.76142,2.82485c0,0 -0.3046,-1.98844 1.27488,-3.78397c1.19543,-1.35896 2.57376,-2.71365 3.16271,-3.28204c0.18421,-0.17778 0.35037,-0.14888 0.47653,0.07538c0.45739,0.81306 1.79541,2.86796 4.38725,4.48202c0.60232,0.37507 5.14579,2.63311 5.5177,2.1929c0.78944,-0.93446 2.27589,-3.45512 2.4628,-4.52364c0.08345,-0.47704 -2.0694,-1.46929 -4.32678,-3.05121c-1.88254,-1.31925 -3.9522,-3.26963 -3.7851,-3.60063c0.52373,-1.03734 2.10796,-1.63614 3.56959,-1.92588c1.1704,-0.23201 7.6413,19.04952 5.82127,21.90526z" fill="#8495c0" stroke="#000000" stroke-width="3"/><path d="M173.40298,305.631c-1.83599,3.15886 -4.51883,6.34584 -8.13972,7.87702c-2.70114,1.14225 -9.66716,0.12865 -9.66716,0.12865c0,0 -8.02204,-1.28566 -9.86106,-1.61282c-0.71515,-0.12723 -1.82286,-0.32286 -2.13028,-2.22442c-0.15042,-0.93035 -0.43675,-3.24908 -0.43897,-4.60984c-0.00216,-1.31367 0.54667,-1.12522 1.10693,-1.08923c1.58927,0.10207 4.7201,0.39381 7.56436,0.19112c3.40776,-0.24284 5.88995,-1.179 7.76827,-0.87627c2.63227,0.42424 5.35276,4.2475 5.35276,4.2475c0,0 -1.9732,-3.82334 -4.2838,-4.8902c-1.28591,-0.59373 -3.96591,0.18075 -6.44124,0.48781c-3.02605,0.37536 -5.78391,0.37789 -5.78391,0.37789c0,0 -0.92502,-1.21085 -2.81829,-3.46647c-0.79171,-0.94324 -3.14863,-2.91012 -3.44305,-3.70112c-0.51053,-1.37156 0.276,-5.01412 0.66096,-6.60293c0.1136,-0.46886 0.44071,-0.55492 0.86219,-0.22423c1.0102,0.7926 3.01421,2.31316 4.97254,3.498c2.36765,1.43248 3.96705,1.36504 4.8216,2.12227c0.15593,0.13818 0.2803,0.31996 0.37946,0.52486c0.44422,0.91807 0.38197,2.3 0.38197,2.3c0,0 -0.3046,-1.98844 1.27489,-3.78397c1.17262,-1.33301 2.52121,-2.66195 3.12813,-3.24865c0.20534,-0.19851 0.41832,-0.10905 0.61871,0.22788c0.54078,0.9092 1.86701,2.79368 4.27965,4.29615c0.60232,0.37507 5.14579,2.63311 5.5177,2.1929c0.78944,-0.93446 2.27589,-3.45512 2.4628,-4.52364c0.08345,-0.47704 -2.0694,-1.46929 -4.32678,-3.05121c-1.88254,-1.31925 -3.9522,-3.26963 -3.7851,-3.60063c0.55283,-1.09501 2.28736,-1.70137 3.812,-1.97136c1.07628,-0.19059 7.63677,18.45459 6.15445,21.00495z" fill="#7b7b7b" stroke="none" stroke-width="0"/><path d="M164.95787,286.97382c0.54962,-1.08864 1.86554,-2.08946 3.12714,-2.40379c0.90319,-0.22503 6.83419,18.74174 5.14539,21.22803c-1.64754,2.42552 -4.10328,4.79373 -7.82463,6.39669c-2.70114,1.14226 -11.00294,0.3453 -11.00294,0.3453c0,0 -6.65543,-0.69559 -8.57762,-1.95295c-1.92219,-1.25736 -2.65722,-4.03678 -2.65945,-5.39754c-0.00215,-1.31367 0.54669,-1.12521 1.10694,-1.08923c0.9831,0.06314 2.55611,0.19886 4.28627,0.24522c1.06677,0.02859 2.19329,0.02322 3.27809,-0.05409c3.40777,-0.24283 5.88997,-1.17899 7.76829,-0.87626c2.63227,0.42424 5.35276,4.2475 5.35276,4.2475c0,0 -2.10295,-3.89631 -3.55794,-4.96482c-1.45499,-1.06851 -3.04763,-0.85616 -4.54158,-0.98326c-1.20691,-0.10268 -1.29647,-0.98582 -1.29647,-0.98582c0,0 -0.65004,-3.05884 0.92945,-4.85438c0.99434,-1.13034 1.72092,-1.87834 2.11986,-2.27472c0.23069,-0.22922 0.46088,-0.20999 0.67006,0.01684c0.68732,0.74527 2.45582,2.52638 4.99093,4.10511c1.58012,1.02001 2.74296,1.31679 3.49372,1.23158c1.02912,-0.11681 1.35512,-0.91007 1.57015,-1.1646c0.78945,-0.93446 2.02518,-3.47086 2.2121,-4.53938c0.08345,-0.47704 -2.0694,-1.4693 -4.32678,-3.05121c-1.88254,-1.31925 -2.4308,-2.8932 -2.2637,-3.2242z" fill="#cccccc" stroke="none" stroke-width="0"/><path d="M151.71866,295.34686c0.52153,0.4364 0.95114,1.44945 0.97996,1.92207c0.03808,0.62453 0.09015,1.35945 0.10788,1.912c0.01288,0.40109 -0.24897,1.24777 -0.36964,1.42883c-1.90721,2.86167 -5.90229,-0.93814 -5.90229,-0.93814c0,0 -3.43467,-3.6333 -3.72909,-4.4243c-0.27081,-0.7276 0.2258,-1.79678 0.48246,-2.83227c0.15754,-0.63554 0.2358,-1.18141 0.27376,-1.59873c0.08877,-1.16135 0.64905,-0.8193 0.64905,-0.8193c0,0 2.5709,1.80043 4.29691,3.07331c0.70134,0.42431 2.27093,1.48997 3.21099,2.27653z" fill="#cbcbcb" stroke="none" stroke-width="0"/><g fill="none" stroke="none" stroke-width="1" font-family="sans-serif" font-weight="normal" font-size="12" text-anchor="start"/><path d="M168.94485,296.28461c-0.16057,0.24647 -0.62628,0.53963 -1.03332,0.45389c-0.41697,-0.08783 -0.97089,-0.26858 -1.50481,-0.64044c-1.16426,-0.81088 -3.96864,-2.79282 -5.31296,-4.3447c-0.32826,-0.37893 -0.48384,-0.764 -0.54814,-1.08495c-0.07778,-0.38828 0.15699,-0.9817 0.24363,-1.1265c0.34701,-0.57999 0.92752,-1.43413 1.29484,-1.96588c0.20111,-0.29112 0.48325,-0.34447 0.72147,-0.11566c0.75267,0.72295 2.43654,2.32105 3.42245,3.10746c1.09931,0.87688 3.11745,2.22673 3.99806,2.80805c0.26744,0.17656 0.28894,0.49867 0.08593,0.81027c-0.42649,0.65461 -1.12651,1.72911 -1.36714,2.09845z" fill="#97c4d3" stroke="none" stroke-width="0"/><path d="M167.96533,295.25521c-0.09522,0.14615 -0.3714,0.32003 -0.6128,0.26918c-0.24727,-0.05208 -0.57576,-0.15928 -0.8924,-0.3798c-0.52004,-0.36219 -3.2141,-2.48616 -4.49319,-3.65485c-0.19743,-0.18039 -0.42985,-0.71788 -0.32945,-0.9246c0.24138,-0.49705 0.74346,-1.26519 0.88807,-1.40915c0.17123,-0.17048 0.50157,-0.21174 0.69972,0.12803c0.38569,0.66134 0.62281,1.23493 2.16251,2.57715c1.30297,1.13587 3.0928,1.50765 3.33734,1.66907c0.15859,0.1047 0.17135,0.29573 0.05096,0.48051c-0.25291,0.38822 -0.66805,1.0254 -0.81076,1.24444z" fill="#45667e" stroke="none" stroke-width="0"/></g><path d="M88.16703,307.75739c0,-23.51995 19.06669,-42.58664 42.58664,-42.58664c23.51995,0 42.58664,19.06669 42.58664,42.58664c0,23.51995 -19.06669,42.58664 -42.58663,42.58664c-23.51995,0 -42.58663,-19.06669 -42.58663,-42.58663z" fill="none" stroke="#000000" stroke-width="3" stroke-linecap="butt"/><path d="M230.53546,347.73597h5.21243c0.56064,0 0.92935,0.0202 1.10613,0.06061c0.17678,0.03535 0.35608,0.14647 0.53791,0.33335c0.18688,0.18183 0.28032,0.40406 0.28032,0.66671c0,0.26264 -0.08586,0.49498 -0.25759,0.69701c-0.17173,0.19698 -0.36366,0.31567 -0.57579,0.35608c-0.21213,0.03535 -0.57579,0.05303 -1.09097,0.05303h-5.64427c-1.01016,0 -1.591,-0.07324 -1.74253,-0.21971c-0.14647,-0.15152 -0.28537,-0.31567 -0.41669,-0.49245c-0.13132,-0.17678 -0.19698,-0.72227 -0.19698,-1.63646v-9.43995c0,-0.64145 0.02273,-1.08592 0.06819,-1.33341c0.04546,-0.24749 0.19193,-0.47477 0.43942,-0.68186c0.24749,-0.21213 0.54044,-0.3182 0.87884,-0.3182c0.35356,0 0.65408,0.10102 0.90157,0.30305c0.24749,0.20203 0.39144,0.43437 0.43184,0.69701c0.04546,0.26264 0.06819,0.70711 0.06819,1.33341zM243.85632,339.62943c1.60111,0 2.86128,0.49498 3.78053,1.48494c0.91925,0.98491 1.37887,2.24003 1.37887,3.76537c0,1.53544 -0.4672,2.79562 -1.4016,3.78053c-0.92935,0.98491 -2.16174,1.47736 -3.69719,1.47736c-1.66676,0 -2.95219,-0.4975 -3.85629,-1.49251c-0.90409,-1.00006 -1.35614,-2.25518 -1.35614,-3.76537c0,-1.53039 0.4571,-2.78804 1.37129,-3.77295c0.91925,-0.98491 2.17942,-1.47736 3.78053,-1.47736zM243.85632,348.21327c0.78288,0 1.4016,-0.29295 1.85617,-0.87884c0.45962,-0.59094 0.68943,-1.40917 0.68943,-2.45469c0,-1.04552 -0.22981,-1.86375 -0.68943,-2.45469c-0.45457,-0.59094 -1.07329,-0.88642 -1.85617,-0.88642c-0.77277,0 -1.38897,0.298 -1.84859,0.89399c-0.45962,0.59094 -0.68943,1.40665 -0.68943,2.44711c0,1.05057 0.22729,1.8688 0.68186,2.45469c0.45962,0.58589 1.07835,0.87884 1.85617,0.87884zM257.58629,348.683c-1.23239,0.96975 -2.43954,1.45463 -3.62143,1.45463c-1.11623,0 -1.97486,-0.28285 -2.57591,-0.84853c-0.59599,-0.57074 -0.89399,-1.26523 -0.89399,-2.08346c0,-0.70206 0.20203,-1.26775 0.6061,-1.69707c0.40911,-0.43437 0.85358,-0.73742 1.33341,-0.90914c0.47983,-0.17173 1.26018,-0.36871 2.34105,-0.59094c1.08592,-0.22729 1.95971,-0.43437 2.62137,-0.62125c-0.00505,-0.78288 -0.1591,-1.31068 -0.46215,-1.58343c-0.30305,-0.27779 -0.7652,-0.41669 -1.38645,-0.41669c-1.17179,0 -1.93951,0.3283 -2.30317,0.98491c-0.20203,0.37376 -0.38134,0.63893 -0.53791,0.7955c-0.15657,0.15657 -0.38386,0.23486 -0.68186,0.23486c-0.27274,0 -0.52023,-0.08839 -0.74247,-0.26517c-0.21718,-0.18183 -0.32578,-0.41416 -0.32578,-0.69701c0,-0.67176 0.36113,-1.30816 1.0834,-1.9092c0.72732,-0.60105 1.87132,-0.90157 3.43202,-0.90157c1.5809,0 2.73754,0.27274 3.4699,0.81823c0.73237,0.54549 1.07582,1.64909 1.03036,3.3108l-0.06061,2.42439c-0.02525,0.74752 0.05303,1.35867 0.23486,1.83344c0.18183,0.47477 0.27274,0.83843 0.27274,1.09097c0,0.27274 -0.12122,0.51266 -0.36366,0.71974c-0.23739,0.20708 -0.50761,0.31062 -0.81065,0.31062c-0.52528,0 -1.07835,-0.48488 -1.65919,-1.45463zM257.41204,344.94035c-0.38386,0.15152 -1.02026,0.31567 -1.9092,0.49245c-0.88389,0.17678 -1.51019,0.37881 -1.8789,0.6061c-0.36871,0.22729 -0.55306,0.55811 -0.55306,0.99248c0,0.37376 0.14647,0.70206 0.43942,0.98491c0.29295,0.28285 0.70711,0.42427 1.2425,0.42427c0.57074,0 1.09855,-0.15405 1.58343,-0.46215c0.48993,-0.31315 0.79045,-0.68438 0.90157,-1.1137c0.11617,-0.42932 0.17425,-1.07077 0.17425,-1.92436zM269.64193,348.66027v-0.25759c-0.88894,1.15663 -2.01527,1.73495 -3.37899,1.73495c-1.32331,0 -2.37388,-0.50003 -3.1517,-1.50009c-0.77782,-1.00511 -1.16674,-2.30317 -1.16674,-3.89417c0,-1.50514 0.37881,-2.73248 1.13643,-3.68203c0.76267,-0.9546 1.81576,-1.4319 3.15928,-1.4319c1.30816,0 2.44206,0.52528 3.40172,1.57585v-3.34868c0,-0.92935 0.11617,-1.50766 0.34851,-1.73495c0.23234,-0.22729 0.54801,-0.34093 0.94703,-0.34093c0.27779,0 0.53286,0.08081 0.7652,0.24244c0.23739,0.16163 0.38134,0.37123 0.43184,0.62882c0.05556,0.25759 0.08334,0.68438 0.08334,1.28038v10.18999c0,0.57579 -0.0303,0.98743 -0.09091,1.23492c-0.06061,0.24244 -0.20708,0.43184 -0.43942,0.56822c-0.23234,0.14142 -0.4874,0.21213 -0.7652,0.21213c-0.85358,0 -1.28038,-0.49245 -1.28038,-1.47736zM264.5583,344.81913c0,1.16169 0.24244,2.01022 0.72732,2.5456c0.48993,0.53033 1.04804,0.7955 1.67434,0.7955c0.73237,0 1.33846,-0.27779 1.81829,-0.83338c0.47983,-0.55559 0.71974,-1.33341 0.71974,-2.33347c0,-1.04047 -0.23486,-1.8688 -0.70459,-2.48499c-0.46467,-0.62125 -1.08087,-0.93187 -1.84859,-0.93187c-0.70206,0 -1.27533,0.2879 -1.7198,0.86369c-0.44447,0.57579 -0.66671,1.36877 -0.66671,2.37893zM276.00594,335.89437c0.33335,0 0.62377,0.12627 0.87126,0.37881c0.24749,0.25254 0.37123,0.54549 0.37123,0.87884c0,0.34851 -0.12375,0.64903 -0.37123,0.90157c-0.24749,0.24749 -0.53791,0.37123 -0.87126,0.37123c-0.34851,0 -0.64903,-0.12375 -0.90157,-0.37123c-0.24749,-0.25254 -0.37123,-0.55306 -0.37123,-0.90157c0,-0.3384 0.12375,-0.63135 0.37123,-0.87884c0.25254,-0.25254 0.55306,-0.37881 0.90157,-0.37881zM277.28632,341.73562v6.26552c0,0.6162 -0.0303,1.03794 -0.09091,1.26523c-0.05556,0.22729 -0.19951,0.42932 -0.43184,0.6061c-0.23234,0.17678 -0.48488,0.26517 -0.75762,0.26517c-0.27779,0 -0.53791,-0.08586 -0.78035,-0.25759c-0.23739,-0.17678 -0.38639,-0.38134 -0.447,-0.61367c-0.05556,-0.23234 -0.08334,-0.65408 -0.08334,-1.26523v-6.24279c0,-0.57579 0.02273,-0.98238 0.06819,-1.21977c0.04546,-0.23739 0.18183,-0.447 0.40911,-0.62882c0.23234,-0.18688 0.50003,-0.28032 0.80308,-0.28032c0.3081,0 0.57327,0.08334 0.7955,0.25001c0.22224,0.16668 0.36366,0.37881 0.42427,0.6364c0.06061,0.25254 0.09091,0.65913 0.09091,1.21977zM289.07299,343.75847v4.24267c0,0.54549 -0.02273,0.9445 -0.06819,1.19704c-0.04041,0.24749 -0.17425,0.4672 -0.40154,0.65913c-0.22729,0.18688 -0.4975,0.28032 -0.81065,0.28032c-0.27779,0 -0.53791,-0.08334 -0.78035,-0.25001c-0.23739,-0.16668 -0.38386,-0.38386 -0.43942,-0.65155c-0.05556,-0.26769 -0.08334,-0.67933 -0.08334,-1.23492v-3.72749c0,-1.03541 -0.15657,-1.73242 -0.46972,-2.09103c-0.3081,-0.35861 -0.73237,-0.53791 -1.2728,-0.53791c-0.49498,0 -0.92935,0.14142 -1.30311,0.42427c-0.36871,0.28285 -0.62882,0.63893 -0.78035,1.06824c-0.15152,0.42427 -0.22729,1.15411 -0.22729,2.18952v2.6744c0,0.54044 -0.0202,0.9344 -0.06061,1.18189c-0.04041,0.24749 -0.1793,0.46972 -0.41669,0.66671c-0.23234,0.19193 -0.50003,0.2879 -0.80308,0.2879c-0.28285,0 -0.54549,-0.08586 -0.78793,-0.25759c-0.23739,-0.17678 -0.38134,-0.39396 -0.43184,-0.65155c-0.05051,-0.25759 -0.07576,-0.66671 -0.07576,-1.22734v-6.37916c0,-0.57074 0.02525,-0.96975 0.07576,-1.19704c0.05556,-0.22729 0.19193,-0.41669 0.40911,-0.56822c0.21718,-0.15152 0.46215,-0.22729 0.73489,-0.22729c0.25254,0 0.51518,0.09849 0.78793,0.29547c0.27779,0.19698 0.41669,0.67933 0.41669,1.44705c0.86369,-1.16169 1.97486,-1.74253 3.33353,-1.74253c0.51518,0 1.02531,0.09849 1.53039,0.29547c0.50508,0.19193 0.91672,0.50761 1.23492,0.94703c0.32325,0.43942 0.51771,0.89399 0.58337,1.36372c0.07071,0.46972 0.10607,0.97733 0.10607,1.52282zM298.74972,341.38711v-0.34851c0,-0.46972 0.11617,-0.82076 0.34851,-1.05309c0.23234,-0.23739 0.52528,-0.35608 0.87884,-0.35608c0.38891,0 0.68943,0.13637 0.90157,0.40911c0.21213,0.27274 0.3182,0.86369 0.3182,1.77283v6.94738c0,2.05568 -0.43437,3.4396 -1.30311,4.15176c-0.86874,0.71216 -2.12386,1.06824 -3.76537,1.06824c-1.46978,0 -2.61884,-0.27274 -3.44719,-0.81823c-0.82833,-0.54044 -1.2425,-1.1137 -1.2425,-1.7198c0,-0.3283 0.10859,-0.59347 0.32578,-0.7955c0.22224,-0.19698 0.47983,-0.29547 0.77277,-0.29547c0.27274,0 0.48993,0.06314 0.65157,0.18941c0.16163,0.13132 0.43437,0.43942 0.81823,0.9243c0.38386,0.48993 1.03541,0.73489 1.95466,0.73489c0.50508,0 0.97228,-0.08081 1.4016,-0.24244c0.43437,-0.15657 0.75257,-0.43689 0.9546,-0.84096c0.20708,-0.39901 0.30557,-1.37129 0.29547,-2.91684c-0.79298,1.13643 -1.87385,1.70465 -3.24261,1.70465c-1.31826,0 -2.36125,-0.49245 -3.12899,-1.47736c-0.76772,-0.98996 -1.15158,-2.25518 -1.15158,-3.79568c0,-1.53544 0.39396,-2.75269 1.18189,-3.65173c0.79298,-0.89904 1.82083,-1.34856 3.08353,-1.34856c1.37887,0 2.51025,0.58589 3.39414,1.75768zM293.70396,344.83429c0,1.00511 0.21971,1.77283 0.65913,2.30317c0.43942,0.52528 1.04047,0.78793 1.80314,0.78793c0.66166,0 1.23492,-0.25506 1.7198,-0.7652c0.48488,-0.51518 0.72732,-1.28038 0.72732,-2.29559c0,-1.00511 -0.22476,-1.80061 -0.67428,-2.3865c-0.44447,-0.58589 -1.04804,-0.87884 -1.81071,-0.87884c-0.73237,0 -1.32079,0.27527 -1.76526,0.82581c-0.43942,0.54549 -0.65913,1.34856 -0.65913,2.40923zM311.26557,347.28898c0.38386,0 0.71469,0.1389 0.99248,0.41669c0.27779,0.27779 0.41669,0.60862 0.41669,0.99248c0,0.39396 -0.1389,0.73237 -0.41669,1.01521c-0.27779,0.28285 -0.60862,0.42427 -0.99248,0.42427c-0.39901,0 -0.73994,-0.1389 -1.02279,-0.41669c-0.27779,-0.28285 -0.41669,-0.62377 -0.41669,-1.02279c0,-0.38386 0.1389,-0.71469 0.41669,-0.99248c0.28285,-0.27779 0.62377,-0.41669 1.02279,-0.41669zM317.33601,347.28898c0.38386,0 0.71469,0.1389 0.99248,0.41669c0.27779,0.27779 0.41669,0.60862 0.41669,0.99248c0,0.39396 -0.1389,0.73237 -0.41669,1.01521c-0.27779,0.28285 -0.60862,0.42427 -0.99248,0.42427c-0.39901,0 -0.73994,-0.1389 -1.02279,-0.41669c-0.27779,-0.28285 -0.41669,-0.62377 -0.41669,-1.02279c0,-0.38386 0.1389,-0.71469 0.41669,-0.99248c0.28285,-0.27779 0.62377,-0.41669 1.02279,-0.41669zM323.40644,347.28898c0.38386,0 0.71469,0.1389 0.99248,0.41669c0.27779,0.27779 0.41669,0.60862 0.41669,0.99248c0,0.39396 -0.1389,0.73237 -0.41669,1.01521c-0.27779,0.28285 -0.60862,0.42427 -0.99248,0.42427c-0.39901,0 -0.73994,-0.1389 -1.02279,-0.41669c-0.27779,-0.28285 -0.41669,-0.62377 -0.41669,-1.02279c0,-0.38386 0.1389,-0.71469 0.41669,-0.99248c0.28285,-0.27779 0.62377,-0.41669 1.02279,-0.41669z" fill="#00f000" stroke="none" stroke-width="1" stroke-linecap="square"/></g></g></svg>