<svg version="1.1" xmlns="http://www.w3.org/2000/svg" xmlns:xlink="http://www.w3.org/1999/xlink" width="307" height="307" viewBox="0,0,307,307"><defs><linearGradient x1="190.18404" y1="200.03295" x2="191.68799" y2="245.19241" gradientUnits="userSpaceOnUse" id="color-1"><stop offset="0" stop-color="#8ec4d0"/><stop offset="1" stop-color="#406077"/></linearGradient><linearGradient x1="190.18405" y1="200.03295" x2="191.688" y2="245.19241" gradientUnits="userSpaceOnUse" id="color-2"><stop offset="0" stop-color="#8ec4d0"/><stop offset="1" stop-color="#406077"/></linearGradient><linearGradient x1="265.66345" y1="205.64383" x2="267.16425" y2="250.8034" gradientUnits="userSpaceOnUse" id="color-3"><stop offset="0" stop-color="#8ec4d0"/><stop offset="1" stop-color="#406077"/></linearGradient></defs><g transform="translate(-86.5,-47.19449)"><g data-paper-data="{&quot;isPaintingLayer&quot;:true}" fill-rule="nonzero" stroke-linecap="butt" stroke-linejoin="miter" stroke-miterlimit="10" stroke-dasharray="" stroke-dashoffset="0" style="mix-blend-mode: normal"><path d="M89,200.69449c0,-83.39499 67.60501,-151 151,-151c83.39499,0 151,67.60501 151,151c0,83.39499 -67.60501,151 -151,151c-83.39499,0 -151,-67.60501 -151,-151z" fill="#c1ffb2" stroke="none" stroke-width="0"/><path d="M92,174.69447c0,0 12.39294,60.43765 55.98474,110.83318c42.25722,48.85264 69.10277,62.95198 69.10277,62.95198c0,0 -18.64049,-2.35942 -26.09179,-4.91461c-24.90904,-8.54177 -46.87791,-23.41437 -63.98602,-42.69722c-14.83039,-16.7156 -26.00815,-36.74528 -32.28219,-58.83796c-1.63816,-5.76842 -4.36357,-19.45418 -4.66195,-32.99194c-0.38115,-17.29247 1.93445,-34.34344 1.93445,-34.34344z" fill="#a9ef51" stroke="none" stroke-width="0"/><path d="M112.3922,119.92886c0,0 2.9874,-4.57182 4.5701,-6.79188c13.23093,-18.559 30.55615,-33.99744 50.65712,-44.99678c2.3231,-1.27121 7.07849,-3.63372 7.07849,-3.63372c0,0 1.41646,83.64612 14.97423,159.73551c11.85622,66.5399 36.29102,126.83034 33.75137,126.55303c-75.59605,-8.25439 -111.0313,-230.86617 -111.0313,-230.86617z" fill="#abee53" stroke="none" stroke-width="0"/><path d="M238.48285,50.28824c0,0 21.1116,0.63494 24.12507,1.08736c16.14936,2.42458 31.46169,7.40663 45.51148,14.52063c2.27146,1.15014 6.71357,3.61578 6.71357,3.61578c0,0 -23.12187,74.19765 -34.5305,138.53809c-8.04369,45.36344 -16.83565,141.83179 -16.83565,141.83179c0,0 -6.49388,0.9056 -9.78826,1.2014c-4.50542,0.40454 -6.06786,0.61119 -10.67857,0.61119c-3.46676,0 -6.31471,0.65324 -6.31471,0.65324c0,0 -8.80023,-107.69193 -5.65681,-186.3893c1.70155,-42.59948 7.45437,-115.6702 7.45437,-115.6702z" fill="#abee53" stroke="none" stroke-width="0"/><path d="M355.7369,104.68173c0,0 8.27066,9.75729 10.25283,12.75062c10.85586,16.39376 18.59764,35.0296 22.38197,55.06412c1.09108,5.77628 -0.3717,0.19801 -0.3717,0.19801c0,0 -22.85239,37.94419 -36.39089,64.02344c-16.5176,31.81789 -32.99932,92.0441 -34.83156,93.40104c-8.77132,6.49599 -5.27122,4.06418 -15.35463,8.55953c-1.94452,0.86689 -8.8976,2.47996 -8.8976,2.47996c0,0 -2.21784,-41.30569 21.44111,-125.21136c14.53188,-51.53681 41.77049,-111.26534 41.77049,-111.26534z" fill="#abee53" stroke="none" stroke-width="0"/><path d="M389.99999,212.69449c0,0 0.85107,-4.20631 0.55856,-0.36701c-3.96206,52.00368 -34.26586,96.64238 -77.59701,120.60173c-12.60939,6.97218 11.67262,-36.05746 37.44993,-72.31919c18.43477,-25.93276 39.58852,-47.91553 39.58852,-47.91553z" fill="#abee53" stroke="none" stroke-width="0"/><g><path d="M94.25549,242.52288c0,0 11.39344,-24.68715 15.26245,-30.54257c2.56838,-3.88704 7.62031,-3.40455 7.62031,-3.40455l-6.41484,57.74551c0,0 -4.97919,-6.95542 -7.27315,-10.9924c-0.78032,-1.37323 -2.45482,0.62351 -3.65758,-1.0732c-2.83871,-4.00451 -5.53719,-11.7328 -5.53719,-11.7328z" fill="#fb7c00" stroke="none" stroke-width="0"/><path d="M117.13825,208.57576l-6.87896,57.76097c0,0 -10.11903,-3.94935 -12.27771,-10.32545c-2.7594,-4.6097 19.15667,-47.43552 19.15667,-47.43552z" fill="#b43f15" stroke="none" stroke-width="0"/><path d="M94.73385,240.88987c0,0 10.91507,-23.05414 14.78408,-28.90956c2.56838,-3.88704 7.62031,-3.40455 7.62031,-3.40455l-6.41484,57.74551c0,0 -7.04397,-4.33504 -9.33793,-8.37201c-2.62201,-4.61427 -6.65162,-17.05939 -6.65162,-17.05939z" fill="none" stroke="#390400" stroke-width="4"/><path d="M222.93938,228.24045c5.54552,29.66328 7.99976,64.71832 9.04289,85.84372c0.00378,13.67734 -0.70895,17.88221 -15.82385,23.03554c-6.63399,2.26181 -13.923,3.96077 -23.1406,5.31124c-12.99551,1.90398 -36.85082,-19.58022 -56.57232,-33.748c-12.13576,-8.71824 -16.78371,-17.0931 -22.69976,-25.26591c-3.92929,-5.42817 -11.73215,-9.53848 -10.63883,-18.05788c3.75936,-29.29388 12.01471,-59.24408 27.30283,-76.55777c9.11684,-10.32476 18.46596,-14.71899 26.0616,-17.69601c45.94251,-18.00661 65.33602,51.07997 66.46801,57.13505z" fill="#b43f15" stroke="none" stroke-width="0"/><path d="M222.93938,228.24045c3.52746,18.86857 5.80415,39.91873 7.2625,58.1777c0.4823,6.03855 -12.00135,64.85668 -89.26829,20.86281c-41.20992,-24.29044 -24.10102,-96.44419 -22.16682,-100.43956c3.32493,-6.86809 7.18496,-12.99129 11.643,-18.03999c9.11684,-10.32476 18.46596,-14.71899 26.0616,-17.69601c45.94251,-18.00661 65.33602,51.07997 66.46801,57.13505z" fill="#fb7c00" stroke="none" stroke-width="0"/><path d="M178.48411,205.14796c3.47972,0.02421 18.62229,-0.49653 30.14183,1.69129c2.19327,0.41655 7.20322,1.48528 8.98111,7.23967c2.12798,6.88749 5.2778,18.15312 4.4188,26.04691c-0.63332,5.82 -7.82362,8.38937 -9.55685,8.5027c-6.78575,0.44371 -14.96214,0.91087 -22.49262,1.16165c-8.0968,0.26965 -12.03166,1.05784 -19.52248,-0.35039c-3.43549,-0.64586 -7.89909,-1.42509 -11.52875,-4.30098c-6.68935,-5.30018 -3.29148,-22.13682 -2.57834,-25.76888c0.13993,-0.71263 0.74477,-7.05978 5.28467,-10.60905c4.07492,-3.18574 11.82189,-3.64792 16.85262,-3.61292z" fill="#8ec4d0" stroke="#b33f18" stroke-width="6"/><path d="M181.16054,200.38958c3.47972,0.02421 18.62229,-0.49653 30.14183,1.69129c2.19327,0.41655 7.20322,1.48528 8.98111,7.23967c2.12798,6.88749 5.2778,18.15312 4.4188,26.04691c-0.63332,5.82 -7.82362,8.38937 -9.55685,8.5027c-6.78575,0.44371 -14.96214,0.91087 -22.49262,1.16165c-8.0968,0.26965 -12.03166,1.05784 -19.52248,-0.35039c-3.43549,-0.64586 -7.89909,-1.42509 -11.52875,-4.30098c-6.68935,-5.30018 -3.29148,-22.13682 -2.57834,-25.76888c0.13993,-0.71263 0.74477,-7.05978 5.28467,-10.60905c4.07492,-3.18574 11.82189,-3.64792 16.85262,-3.61292z" fill="#8ec4d0" stroke="#061b0f" stroke-width="6"/><path d="M222.93938,228.24045c5.54552,29.66328 7.99976,64.71832 9.04289,85.84372c0.00378,13.67734 -0.70895,17.88221 -15.82385,23.03554c-6.02806,2.05523 -13.42218,3.67321 -21.63815,4.96482c-1.48044,0.23274 -6.11748,-2.16882 -6.11748,-2.16882c0,0 -16.07728,-7.39966 -24.12792,-11.99254c-8.37938,-4.78043 -25.20159,-16.14991 -25.20159,-16.14991c0,0 -12.90638,-14.33171 -18.79056,-21.5214c-5.18618,-6.33682 -14.68565,-19.38209 -14.68565,-19.38209c0,0 -2.40528,-4.73158 -2.24254,-6.05134c0.50551,-4.09943 1.09017,-8.17787 1.76321,-12.20932c4.21284,-25.23456 11.88856,-48.62838 25.29202,-63.8077c9.11684,-10.32476 18.46596,-14.71899 26.0616,-17.69601c45.94251,-18.00661 65.33602,51.07997 66.46801,57.13505z" fill="none" stroke="#390400" stroke-width="4"/><path d="M181.16054,200.38955c3.47972,0.02421 18.62229,-0.49653 30.14183,1.69129c2.19327,0.41655 7.20322,1.48528 8.98111,7.23967c2.12798,6.88749 5.2778,18.15312 4.4188,26.04691c-0.63332,5.82 -7.82362,8.38937 -9.55685,8.5027c-6.78575,0.44371 -14.96214,0.91087 -22.49262,1.16165c-8.0968,0.26965 -12.03166,1.05784 -19.52248,-0.35039c-3.43549,-0.64586 -7.89909,-1.42509 -11.52875,-4.30098c-6.68935,-5.30018 -3.29148,-22.13682 -2.57834,-25.76888c0.13993,-0.71263 0.74477,-7.05978 5.28467,-10.60905c4.07492,-3.18574 11.82189,-3.64792 16.85262,-3.61292z" fill="url(#color-1)" stroke="none" stroke-width="0"/><path d="M181.33259,200.38012c3.22072,0.02353 17.23598,-0.45858 27.89862,1.58704c2.03012,0.38948 6.66743,1.38858 8.31453,6.76134c1.97143,6.4307 4.8898,16.94911 4.09685,24.3185c-0.58463,5.43337 -7.23901,7.83019 -8.8432,7.93553c-6.28052,0.41243 -13.84816,0.84637 -20.81803,1.07849c-7.49403,0.24957 -11.13578,0.98437 -18.06938,-0.33236c-3.17994,-0.60389 -7.3115,-1.33257 -10.67175,-4.01846c-6.19284,-4.95003 -3.05241,-20.66774 -2.39331,-24.05843c0.12932,-0.66527 0.68744,-6.59079 4.88845,-9.90316c3.77074,-2.97311 10.94093,-3.40252 15.5972,-3.36849z" fill="#8ec4d0" stroke="none" stroke-width="0"/><path d="M222.38719,225.93924c-0.19558,1.79736 -1.18013,6.56244 -8.99022,9.45926c-4.57978,1.69867 -11.51748,2.42703 -21.99029,2.41096c-4.30804,-0.00661 -8.04838,0.8115 -11.35004,0.49682c-18.86049,-1.79758 -22.35359,-8.94575 -22.05672,-11.73133c0.1064,-0.99836 2.84843,-6.6086 13.19463,-9.9455c4.43947,-1.43184 10.29261,-2.0374 17.91602,-2.35111c10.49644,-0.43196 17.80273,-0.48433 22.86436,1.07791c8.64646,2.66866 10.67899,8.13187 10.41226,10.583z" fill="url(#color-2)" stroke="none" stroke-width="0"/><path d="M195.95988,339.06558c-0.52528,2.4442 -2.96947,1.91892 -2.96947,1.91892l-2.34096,-0.52653c-2.89451,-1.3919 -3.68901,1.20548 -7.23192,0.32899c-2.39276,-0.59195 -6.1741,-3.65474 -7.87579,-5.47583c-0.59156,-0.63306 -0.68053,-1.66492 -1.33932,-2.22769c-0.50753,-0.43356 -1.30232,-0.31317 -1.92288,-0.55902c-2.71279,-1.07472 -5.74356,-2.49462 -8.33263,-3.82596c-4.99546,-2.56873 -8.8961,-6.6248 -13.48004,-9.64898c-1.84436,-1.21679 -4.08391,-1.69869 -6.05651,-2.69423c-2.20879,-4.48859 -5.1869,-6.50718 -9.39411,-9.32644c-2.4655,-1.65213 -5.83097,-1.86188 -7.75871,-4.3412c-0.6995,-0.89966 -0.66607,-2.20337 -1.24951,-3.18229c-0.42884,-0.7195 -1.27015,-1.12175 -1.73214,-1.82043c-0.90346,-1.36633 -1.3811,-2.99168 -2.33178,-4.32558c-1.5147,-2.1253 -2.56789,-1.86557 -4.36026,-3.55085c-1.5405,-1.44845 -2.92527,-3.09047 -4.05682,-4.87673c-0.97818,-1.54416 -1.01538,-3.5284 -1.79571,-5.18138c-0.63285,-1.3406 -1.90494,-2.2723 -2.8334,-3.42801c0,0 -1.56574,-1.94896 0.38323,-3.5147c1.94896,-1.56574 3.5147,0.38323 3.5147,0.38323c0.3931,0.48932 3.2681,4.04102 3.42955,4.36785c0.73179,1.48146 0.62149,3.33668 1.53548,4.71322c2.21993,3.34342 5.80712,4.892 8.13989,8.03045c1.01135,1.36063 1.49856,3.05204 2.43559,4.46488c0.52744,0.79527 1.44278,1.29434 1.92876,2.11562c0.49348,0.83397 0.43721,1.92501 0.94909,2.74781c0.82747,1.33006 5.24808,2.36289 6.49981,3.18838c4.04346,2.66658 8.55528,5.32014 10.26105,10.03007c0.40853,0.15484 5.09206,1.92928 5.10382,1.93686c4.51805,2.9145 8.28166,6.97537 13.17125,9.47454c2.51567,1.28582 5.31135,2.51045 7.92478,3.63705c1.03746,0.44723 2.25613,0.57096 3.14092,1.27345c0.84428,0.67033 1.08847,1.8829 1.82544,2.66969c1.15417,1.23219 3.79349,3.5839 5.44986,4.08593c1.31763,0.39935 3.45472,-1.22391 4.29397,-1.23432c1.2084,-0.01499 2.31054,0.70936 3.46582,1.06404l1.69011,0.33977c0,0 2.4442,0.52528 1.91892,2.96947z" fill="#b43f15" stroke="none" stroke-width="0.5"/><path d="M140.93359,307.28093c-17.89892,-10.55019 -24.79617,-30.12963 -26.7135,-49.23201c1.81258,0.95782 3.64654,1.88066 5.41478,2.91473c16.84482,9.85082 33.57334,19.89948 50.40776,29.76806c9.05112,5.3059 19.48239,7.7936 29.20649,11.73281c0.71726,0.29057 10.85098,4.30115 20.47142,8.41426c-11.47286,13.0494 -34.47794,21.6306 -78.78695,-3.59784z" fill="#fb7c00" stroke="none" stroke-width="0"/></g><g><path d="M256.97754,329.06237c-0.80625,-17.872 -2.32792,-55.98113 3.81133,-86.77389c11.45621,-61.00275 43.90383,-59.2588 53.64036,-56.53917c15.9746,4.46204 29.85796,21.04263 35.75385,39.60156c7.31154,23.0151 7.52528,51.48487 5.99267,73.79051c-0.14681,2.13672 -4.37971,3.44483 -6.69794,5.69562c-5.49662,5.33674 -12.70092,11.76318 -18.95949,16.78482c-13.16562,10.56359 -32.13586,18.45984 -40.3136,21.78611c-2.60878,1.06111 -17.85099,-0.25119 -24.48864,-2.23804c-9.62744,-2.88179 -8.47733,-6.31685 -8.73856,-12.10748z" fill="#053a20" stroke="none" stroke-width="0"/><path d="M256.97754,329.06237c-0.80625,-17.872 -2.32792,-55.98113 3.81133,-86.77389c11.45621,-61.00275 43.90383,-59.2588 53.64036,-56.53917c15.9746,4.46204 29.85796,21.04263 35.75385,39.60156c7.07864,22.28197 7.50445,49.67664 6.13364,71.64054c-0.44308,7.09926 -12.74616,13.60765 -20.96552,20.67142c-9.41546,8.0917 -24.35631,16.09218 -33.28707,21.34335c-7.81275,4.59379 -10.67562,6.33865 -14.00129,5.90132c-5.56226,-0.73143 -11.1165,-1.34226 -16.08109,-2.26684c-2.22436,-0.41425 -4.33035,-0.89149 -6.26565,-1.47079c-9.62744,-2.88179 -8.47733,-6.31685 -8.73856,-12.10748z" fill="#053a20" stroke="none" stroke-width="0"/><path d="M256.39566,313.32759c-0.51544,-19.77547 -0.29225,-47.53808 4.39321,-71.03911c11.45621,-61.00275 43.90383,-59.2588 53.64036,-56.53917c15.9746,4.46204 29.85796,21.04263 35.75385,39.60156c3.13478,9.86758 -2.33024,11.97532 -1.38316,22.93256c0.25344,2.93215 -1.45948,29.69399 -7.50232,50.18806c-4.74952,16.10783 -14.12212,27.26111 -14.12212,27.26111c0,0 -30.14724,10.53811 -46.6726,8.09976c-18.70368,-2.75975 -24.05842,-18.63219 -24.10723,-20.50476z" fill="#177902" stroke="none" stroke-width="0"/><path d="M269.16765,225.47784c6.56674,-0.11061 22.4164,0.4489 27.24525,3.93374c4.36708,3.15162 4.19665,15.18678 4.18626,20.00791c-0.00542,2.52051 -2.67797,2.60442 -6.12856,3.283c-4.35607,0.85666 -10.12743,1.49243 -13.89065,1.62707c-4.597,0.16449 -12.65507,-0.65664 -16.90236,-1.14159c-1.71003,-0.19525 -2.8202,-0.85398 -2.83883,-1.70844c-0.06184,-2.83685 -0.1321,-9.38271 0.41499,-12.99639c0.41964,-2.77188 1.64534,-8.08005 3.87604,-11.00716c1.06015,-1.39111 2.74799,-1.97641 4.03786,-1.99814z" fill="#03391f" stroke="#033a21" stroke-width="6"/><path d="M357.37263,296.97513c0,0 -26.55479,-67.9362 -9.71815,-83.08582c8.74491,-7.86867 26.3325,19.42813 33.26786,31.119c1.82044,3.06871 -23.54971,51.96681 -23.54971,51.96681z" fill="#03391e" stroke="none" stroke-width="0"/><path d="M256.97754,329.06237c-0.80625,-17.872 -2.32792,-55.98113 3.81133,-86.77389c11.45621,-61.00275 43.90383,-59.2588 53.64036,-56.53917c15.9746,4.46204 29.85796,21.04263 35.75385,39.60156c6.59718,20.76644 8.33048,46.24525 7.39048,67.38469c-0.048,1.07934 -0.1646,3.20288 -0.1646,3.20288c0,0 -5.49195,6.63163 -12.69042,13.78318c-6.30401,6.26292 -13.99702,11.51618 -19.38578,15.3984c-5.23811,3.77369 -11.87893,7.74838 -19.16328,11.22693c-7.93389,3.78872 -11.64582,5.2579 -11.64582,5.2579c0,0 -8.12985,3.72409 -9.06469,3.6003c-7.97831,-1.05644 -13.55812,-2.18397 -19.7429,-4.03527c-9.62744,-2.88179 -8.47733,-6.31685 -8.73856,-12.10748z" fill="none" stroke="#000000" stroke-width="4"/><path d="M357.65042,295.29831c0,0 -26.83258,-66.25938 -9.99595,-81.40899c11.04034,-9.9341 35.40887,33.20498 35.40887,33.20498c0,0 -4.84007,14.80255 -12.74379,28.56161c-4.08559,7.11234 -12.66913,19.6424 -12.66913,19.6424z" fill="#053a20" stroke="#000000" stroke-width="4"/><path d="M360.64145,287.26238c-3.66135,-6.08052 -11.41525,-20.83745 -15.62513,-34.29313c-5.36667,-17.15303 -5.51822,-31.7408 2.63817,-39.07993c8.84976,-7.96301 26.75552,20.08776 33.5127,31.53271c0.81396,1.37864 -1.70567,12.35472 -6.71605,22.48915c-5.28546,10.69084 -13.11705,20.50148 -13.80968,19.35122z" fill="#177902" stroke="none" stroke-width="0"/><path d="M357.65042,295.29833c0,0 -26.83258,-66.25938 -9.99595,-81.40899c11.04034,-9.9341 35.40887,33.20498 35.40887,33.20498c0,0 -3.84007,15.80255 -11.74379,29.56161c-4.08559,7.11234 -13.66913,18.6424 -13.66913,18.6424z" fill="none" stroke="#000000" stroke-width="4"/><path d="M265.03195,207.60557c6.89682,-0.08106 23.55214,0.86066 28.66236,5.70866c4.62155,4.38442 4.57293,20.94478 4.61426,27.57928c0.02161,3.46855 -2.78485,3.55506 -6.40216,4.4515c-4.56654,1.13168 -10.62217,1.94407 -14.57378,2.08858c-4.82713,0.17654 -13.30062,-1.04077 -17.76744,-1.75416c-1.79841,-0.28722 -2.97173,-1.20576 -3.00056,-2.38184c-0.0957,-3.90461 -0.24044,-12.91346 0.29509,-17.88051c0.41078,-3.80997 1.64079,-11.10153 3.9523,-15.10552c1.09855,-1.9029 2.8652,-2.69006 4.21991,-2.70599z" fill="#9966ff" stroke="#000000" stroke-width="6"/><path d="M265.03195,207.60557c6.89681,-0.08105 23.55215,0.86066 28.66236,5.70867c4.62155,4.38442 4.57292,20.94477 4.61426,27.57927c0.02161,3.46855 -2.78485,3.55505 -6.40216,4.4515c-4.56654,1.13168 -10.62217,1.94407 -14.57378,2.08858c-4.82714,0.17653 -13.30062,-1.04078 -17.76744,-1.75416c-1.79841,-0.28722 -2.97173,-1.20576 -3.00055,-2.38184c-0.0957,-3.9046 -0.24044,-12.91346 0.29509,-17.88052c0.41078,-3.80997 1.64079,-11.10153 3.9523,-15.10552c1.09855,-1.9029 2.86521,-2.69006 4.21992,-2.70598z" fill="#8ec4ce" stroke="none" stroke-width="NaN"/><path d="M297.86479,231.55238c-0.19571,1.79734 -1.18058,6.56235 -8.99088,9.45863c-2.58893,0.96005 -11.42231,2.20959 -19.68948,1.85068c-6.35767,-0.27601 -12.70444,-2.09318 -12.70444,-2.09318c0,0 -0.07449,-6.34773 0.17359,-11.96522c0.20825,-4.71554 0.98735,-7.63753 0.938,-8.2877c0.04979,-0.0027 6.48257,-0.60529 6.99741,-0.62644c10.49647,-0.43123 17.80277,-0.48308 22.86428,1.07951c8.64627,2.66927 10.67843,8.13261 10.41152,10.58373z" fill="url(#color-3)" stroke="none" stroke-width="0"/></g><path d="M89,200.69449c0,-83.39499 67.60501,-151 151,-151c71.35052,0 131.14268,49.48724 146.92556,116.01077c2.66426,11.22965 4.07444,22.94475 4.07444,34.98923c0,83.39499 -67.60501,151 -151,151c-83.39499,0 -151,-67.60501 -151,-151z" fill="none" stroke="#417705" stroke-width="5"/></g></g></svg>