<svg version="1.1" xmlns="http://www.w3.org/2000/svg" xmlns:xlink="http://www.w3.org/1999/xlink" width="78.12063" height="50.28454" viewBox="0,0,78.12063,50.28454"><defs><linearGradient x1="235.9594" y1="172.27541" x2="235.9594" y2="184.12054" gradientUnits="userSpaceOnUse" id="color-1"><stop offset="0" stop-color="#79b4d4"/><stop offset="1" stop-color="#517a8f"/></linearGradient></defs><g transform="translate(-200.93968,-154.85773)"><g data-paper-data="{&quot;isPaintingLayer&quot;:true}" fill-rule="nonzero" stroke-linecap="butt" stroke-linejoin="miter" stroke-miterlimit="10" stroke-dasharray="" stroke-dashoffset="0" style="mix-blend-mode: normal"><path d="M258.29908,192.90353l-4.78295,-19.35426c0,0 4.40229,-1.31142 7.41941,2.89399c2.85978,3.9861 3.09727,11.78549 3.06997,14.90333c-0.00731,0.83522 -1.19354,1.37997 -1.93473,1.40904c-1.04398,0.04094 -3.7717,0.14791 -3.7717,0.14791z" fill="#d6e0e4" stroke="#000000" stroke-width="3.5"/><path d="M258.29908,192.90354l-4.78295,-19.35426c0,0 4.40229,-1.31142 7.41941,2.89399c2.80222,3.90586 3.08665,11.60592 3.07128,14.90267c-0.00452,0.96901 -1.10678,1.5576 -1.81464,1.5576c-1.04695,0 -3.8931,0 -3.8931,0z" fill="#d6e0e4" stroke="none" stroke-width="0"/><path d="M221.24081,186.97335c0.71914,-8.96797 3.85797,-25.00337 17.2811,-25.36152c14.31612,-0.38198 17.9845,15.57239 18.90453,24.9728c0.38234,3.90655 0.08965,6.68123 0.08965,6.68123c0,0 -5.19761,2.19198 -18.23905,2.20429c-12.47698,0.01178 -18.03866,-2.20429 -18.03866,-2.20429c0,0 -0.25963,-3.02459 0.00243,-6.29251z" fill="#afb9be" stroke="#000000" stroke-width="4"/><path d="M221.23839,193.26586c0,0 -0.25964,-3.02459 0.00242,-6.29251c0.71914,-8.96797 3.85797,-25.00337 17.2811,-25.36152c14.31612,-0.38198 17.9845,15.57239 18.90453,24.9728c0.38234,3.90655 0.08965,6.68123 0.08965,6.68123c0,0 -5.19761,2.19198 -18.23905,2.20429c-12.47698,0.01178 -18.03866,-2.20429 -18.03866,-2.20429z" fill="#afb9be" stroke="none" stroke-width="0"/><path d="M221.7338,182.6722c1.30067,-8.61781 4.983,-19.74184 15.33973,-20.95735c0.46898,-0.05504 0.95163,-0.08977 1.44838,-0.10302c10.7696,-0.28735 15.51352,8.67022 17.59468,17.12789c0.68535,2.78519 -0.39148,13.71227 -17.8415,13.72458c-15.28244,0.01178 -16.77325,-8.2552 -16.54129,-9.7921z" fill="#d6e0e4" stroke="none" stroke-width="0"/><path d="M226.38216,178.86762c0.04121,-1.23569 0.5439,-2.81104 1.54093,-4.31251c0.76622,-1.15389 2.6591,-2.28056 4.01384,-2.27971c1.5494,0.00098 5.30031,0.00334 8.11989,0.00512c1.96496,0.00124 3.71734,1.15642 4.3592,2.45863c1.06091,2.15237 0.98213,2.48071 1.09317,3.60131c0.22343,2.25494 -0.52373,3.07638 -1.00509,3.69377c-0.85201,1.09278 -2.89602,2.09556 -4.44559,2.08624c-2.80741,-0.01689 -7.02736,-0.04228 -8.56317,-0.05153c-1.11296,-0.0067 -3.00369,-0.55277 -3.62842,-1.27354c-0.39532,-0.4561 -0.81868,-0.98536 -1.14725,-1.49778c-0.26424,-0.41208 -0.39458,-0.71837 -0.33749,-2.43z" fill="url(#color-1)" stroke="#000000" stroke-width="2"/><path d="M227.92309,174.55511c0.76622,-1.15389 2.6591,-2.28056 4.01384,-2.27971c1.5494,0.00098 5.30031,0.00334 8.11989,0.00512c0.54749,0.00035 3.22779,-0.06027 1.10216,0.80849c-3.07302,5.34638 -10.74077,3.26819 -13.00723,3.67532c-2.28688,0.4108 -0.58989,-1.66523 -0.22866,-2.20922z" fill="#ffffff" stroke="none" stroke-width="0"/><path d="M226.38216,178.86762c0.04121,-1.23569 0.5439,-2.81104 1.54093,-4.31251c0.76622,-1.15389 2.6591,-2.28056 4.01384,-2.27971c1.5494,0.00098 5.30031,0.00334 8.11989,0.00512c1.96496,0.00124 3.71734,1.15642 4.3592,2.45863c1.06091,2.15237 0.98213,2.48071 1.09317,3.60131c0.22343,2.25494 -0.52373,3.07638 -1.00509,3.69377c-0.85201,1.09278 -2.89602,2.09556 -4.44559,2.08624c-2.80741,-0.01689 -7.02736,-0.04228 -8.56317,-0.05153c-1.11296,-0.0067 -3.00369,-0.55277 -3.62842,-1.27354c-0.39532,-0.4561 -0.81868,-0.98536 -1.14725,-1.49778c-0.26424,-0.41208 -0.39458,-0.71837 -0.33749,-2.43z" fill="none" stroke="#000000" stroke-width="2"/><path d="M201.45279,180c0,-13.88569 17.37304,-25.14227 38.80376,-25.14227c21.43073,0 38.80376,11.25658 38.80376,25.14227c0,13.88569 -17.37304,25.14227 -38.80376,25.14227c-21.43073,0 -38.80376,-11.25658 -38.80376,-25.14227z" fill="none" stroke="none" stroke-width="0"/><path d="M200.93968,160.24536v0v0z" fill="none" stroke="none" stroke-width="0"/></g></g></svg>