<svg version="1.1" xmlns="http://www.w3.org/2000/svg" xmlns:xlink="http://www.w3.org/1999/xlink" width="24.92187" height="34.29683" viewBox="0,0,24.92187,34.29683"><g transform="translate(-227.53906,-162.85158)"><g data-paper-data="{&quot;isPaintingLayer&quot;:true}" fill="#ffffff" fill-rule="nonzero" stroke-linecap="square" stroke-linejoin="miter" stroke-miterlimit="10" stroke-dasharray="" stroke-dashoffset="0" style="mix-blend-mode: normal"><path d="M245.36718,178.52339c3.0625,1.61458 4.59375,3.94792 4.59375,7.00002c0,2.42708 -0.94271,4.55729 -2.82812,6.39063c-1.875,1.82292 -4.34375,2.73438 -7.40625,2.73438c-3.04167,0 -5.41667,-0.94271 -7.125,-2.82812c-1.70833,-1.88542 -2.5625,-3.58333 -2.5625,-5.09375c0,-0.64583 0.23438,-1.19271 0.70313,-1.64064c0.46875,-0.45833 1.0625,-0.6875 1.78125,-0.6875c0.46875,0 0.88542,0.13021 1.25,0.39063c0.36458,0.25 0.70833,0.84376 1.03125,1.78127c0.96875,2.82292 2.60938,4.23438 4.92188,4.23438c1.23958,0 2.36979,-0.45312 3.39063,-1.35937c1.02083,-0.91667 1.53125,-2.17187 1.53125,-3.76562c0,-1.46876 -0.41667,-2.64064 -1.25,-3.51564c-0.82292,-0.88542 -1.92708,-1.32812 -3.3125,-1.32812l-2.48437,0.15625c-1.4375,0 -2.15625,-0.66146 -2.15625,-1.98437c0,-1.41667 0.88021,-2.125 2.64063,-2.125c2.17708,0 3.61458,-0.41146 4.3125,-1.23437c0.69792,-0.83333 1.04688,-1.73958 1.04688,-2.71875c0,-1.0625 -0.35417,-1.94792 -1.0625,-2.65625c-0.69792,-0.71875 -1.63542,-1.07812 -2.8125,-1.07812c-2.09375,0 -3.52083,1.05729 -4.28125,3.17188c-0.46875,1.25 -1.20312,1.875 -2.20312,1.875c-0.66667,0 -1.20312,-0.21875 -1.60937,-0.65625c-0.39583,-0.4375 -0.59375,-0.96875 -0.59375,-1.59375c0,-1.5 0.83854,-2.97917 2.51563,-4.4375c1.67708,-1.46875 3.88021,-2.20312 6.60938,-2.20312c2.63542,0 4.73438,0.67708 6.29688,2.03125c1.5625,1.35417 2.34375,3.04167 2.34375,5.0625c0,2.33333 -1.09375,4.35938 -3.28125,6.07813z" stroke="#000000" stroke-width="5"/><path d="M245.36718,178.52339c3.0625,1.61458 4.59375,3.94792 4.59375,7.00002c0,2.42708 -0.94271,4.55729 -2.82812,6.39063c-1.875,1.82292 -4.34375,2.73438 -7.40625,2.73438c-3.04167,0 -5.41667,-0.94271 -7.125,-2.82812c-1.70833,-1.88542 -2.5625,-3.58333 -2.5625,-5.09375c0,-0.64583 0.23438,-1.19271 0.70313,-1.64064c0.46875,-0.45833 1.0625,-0.6875 1.78125,-0.6875c0.46875,0 0.88542,0.13021 1.25,0.39063c0.36458,0.25 0.70833,0.84376 1.03125,1.78127c0.96875,2.82292 2.60938,4.23438 4.92188,4.23438c1.23958,0 2.36979,-0.45312 3.39063,-1.35937c1.02083,-0.91667 1.53125,-2.17187 1.53125,-3.76562c0,-1.46876 -0.41667,-2.64064 -1.25,-3.51564c-0.82292,-0.88542 -1.92708,-1.32812 -3.3125,-1.32812l-2.48437,0.15625c-1.4375,0 -2.15625,-0.66146 -2.15625,-1.98437c0,-1.41667 0.88021,-2.125 2.64063,-2.125c2.17708,0 3.61458,-0.41146 4.3125,-1.23437c0.69792,-0.83333 1.04688,-1.73958 1.04688,-2.71875c0,-1.0625 -0.35417,-1.94792 -1.0625,-2.65625c-0.69792,-0.71875 -1.63542,-1.07812 -2.8125,-1.07812c-2.09375,0 -3.52083,1.05729 -4.28125,3.17188c-0.46875,1.25 -1.20312,1.875 -2.20312,1.875c-0.66667,0 -1.20312,-0.21875 -1.60937,-0.65625c-0.39583,-0.4375 -0.59375,-0.96875 -0.59375,-1.59375c0,-1.5 0.83854,-2.97917 2.51563,-4.4375c1.67708,-1.46875 3.88021,-2.20312 6.60938,-2.20312c2.63542,0 4.73438,0.67708 6.29688,2.03125c1.5625,1.35417 2.34375,3.04167 2.34375,5.0625c0,2.33333 -1.09375,4.35938 -3.28125,6.07813z" stroke="none" stroke-width="0"/></g></g></svg>