<svg version="1.1" xmlns="http://www.w3.org/2000/svg" xmlns:xlink="http://www.w3.org/1999/xlink" width="42.00001" height="44.75" viewBox="0,0,42.00001,44.75"><g transform="translate(-218.99999,-157.375)"><g data-paper-data="{&quot;isPaintingLayer&quot;:true}" fill-rule="nonzero" stroke-linejoin="miter" stroke-miterlimit="10" stroke-dasharray="" stroke-dashoffset="0" style="mix-blend-mode: normal"><path d="M220.75,198.625c0,-4.52692 0,-13.87508 0,-21.71429c0,-5.71431 0,-10.62682 0,-12.28571c0,-1.20083 0.92773,-2.25 2.10715,-2.25c0.29955,0 24.80203,0 33.42857,0c1.84541,0 2.96429,0.88986 2.96429,2.39286c0,7.55799 0,30.62036 0,34c0,1.1323 -0.88963,2.10714 -2.39285,2.10714c-7.38781,0 -29.59614,0 -33.85715,0c-1.40226,0 -2.25,-0.48893 -2.25,-2.25z" fill="#5b5b5b" stroke="#5b5b5b" stroke-width="2.5" stroke-linecap="butt"/><path d="M220.74999,195.375c0,-4.52692 0,-13.87508 0,-21.71429c0,-5.71431 0,-10.62682 0,-12.28571c0,-1.20083 0.92773,-2.25 2.10715,-2.25c0.29955,0 24.80203,0 33.42857,0c1.84541,0 2.96429,0.88986 2.96429,2.39286c0,7.55799 0,30.62036 0,34c0,1.1323 -0.88963,2.10714 -2.39285,2.10714c-7.38781,0 -29.59614,0 -33.85715,0c-1.40226,0 -2.25,-0.48893 -2.25,-2.25z" fill="#969696" stroke="#404040" stroke-width="3.5" stroke-linecap="butt"/><path d="M225.42856,191.08929c0,-5.74743 0,-22.10314 0,-25.28571c0,-1.04926 0.87738,-2 1.85714,-2c2.94835,0 18.03553,0 24.14286,0c1.59006,0 2.57143,1.12021 2.57143,2.42857c0,3.42127 0,18.96827 0,24.71429c0,0.77956 -0.31373,1.37872 -0.87409,1.74272c-0.4004,0.2601 -0.92672,0.40013 -1.55448,0.40013c-6.09762,0 -21.76599,0 -24.57143,0c-0.844,0 -1.57143,-0.74851 -1.57143,-2z" fill="#bdbdbd" stroke="#404040" stroke-width="0" stroke-linecap="butt"/><path d="M238.01315,172.11163l-0.71964,4.19271c1.1264,-0.64664 2.26323,-0.96995 3.41049,-0.96995c1.62702,0 3.03502,0.58406 4.224,1.75218c1.18898,1.14725 1.78347,2.61783 1.78347,4.41173c0,1.87734 -0.63621,3.4835 -1.90862,4.81849c-1.25156,1.31413 -2.89943,1.9712 -4.94364,1.9712c-2.23194,0 -3.89026,-0.58406 -4.97493,-1.75218c-1.06382,-1.16812 -1.59573,-2.17979 -1.59573,-3.03502c0,-0.31289 0.1356,-0.62577 0.40676,-0.93866c0.29204,-0.31289 0.65706,-0.46933 1.0951,-0.46933c0.60493,0 1.14726,0.42761 1.62702,1.28284c0.5632,0.98039 1.10554,1.63746 1.62702,1.9712c0.52148,0.33375 1.09511,0.50062 1.72089,0.50062c1.06382,0 1.87734,-0.39633 2.44054,-1.18898c0.58406,-0.81351 0.87609,-1.7939 0.87609,-2.94116c0,-1.20983 -0.31289,-2.1485 -0.93866,-2.816c-0.62577,-0.6675 -1.41843,-1.00124 -2.37796,-1.00124c-0.47977,0 -0.9491,0.08344 -1.40799,0.25031c-0.4589,0.14602 -1.06383,0.5632 -1.81476,1.25155c-0.33375,0.27117 -0.71964,0.40676 -1.15768,0.40676c-0.41719,0 -0.79266,-0.14601 -1.1264,-0.43804c-0.33375,-0.31289 -0.50062,-0.6675 -0.50062,-1.06382c0,-0.1043 0.04172,-0.40676 0.12516,-0.90738l1.09511,-6.22649c0.16688,-0.91781 0.43804,-1.50186 0.81351,-1.75216c0.39632,-0.25031 1.01168,-0.37546 1.84605,-0.37546h6.22649c0.60493,0 1.03253,0.03129 1.28284,0.09387c0.25031,0.06258 0.47977,0.23987 0.68835,0.53189c0.20859,0.27117 0.31289,0.57364 0.31289,0.90738c0,1.0221 -0.71964,1.53315 -2.15894,1.53315h-5.97618z" fill="#2d2d2d" stroke="none" stroke-width="1" stroke-linecap="square"/></g></g></svg>