<svg version="1.1" xmlns="http://www.w3.org/2000/svg" xmlns:xlink="http://www.w3.org/1999/xlink" width="459.83281" height="231.16604" viewBox="0,0,459.83281,231.16604"><g transform="translate(-8.8434,-116.02019)"><g data-paper-data="{&quot;isPaintingLayer&quot;:true}" fill-rule="nonzero" stroke-linejoin="miter" stroke-miterlimit="10" stroke-dasharray="" stroke-dashoffset="0" style="mix-blend-mode: normal"><path d="M46.55471,253.51397c0,-15.37321 0,-51.27953 0,-58.33333c0,-2.30199 2.50351,-5.66667 6.13021,-5.66667c11.45875,0 74.92771,0 146.86979,0c92.66502,0 199.38757,0 227.13021,0c4.45172,0 6.86979,3.30453 6.86979,6.66667c0,7.9319 0,40.92113 0,56.33333c0,4.88172 -2.78134,8 -7.86979,8c-52.17866,0 -346.95349,0 -373,0c-3.6267,0 -6.13021,-2.69486 -6.13021,-7z" fill="#000000" stroke="#000000" stroke-width="15" stroke-linecap="butt"/><path d="M46.55471,253.51397c0,-15.37321 0,-51.27953 0,-58.33333c0,-2.30199 2.50351,-5.66667 6.13021,-5.66667c26.21819,0 324.71888,0 374,0c4.45172,0 6.86979,3.30453 6.86979,6.66667c0,7.9319 0,40.92113 0,56.33333c0,4.88172 -2.78134,8 -7.86979,8c-52.17866,0 -346.95349,0 -373,0c-3.6267,0 -6.13021,-2.69486 -6.13021,-7z" fill="#000000" stroke="#00f000" stroke-width="7" stroke-linecap="butt"/><path d="M46.55471,253.51397c0,-15.37321 0,-51.27953 0,-58.33333c0,-2.30199 2.50351,-5.66667 6.13021,-5.66667c26.21819,0 324.71888,0 374,0c4.45172,0 6.86979,3.30453 6.86979,6.66667c0,7.9319 0,40.92113 0,56.33333c0,4.88172 -2.78134,8 -7.86979,8c-52.17866,0 -346.95349,0 -373,0c-3.6267,0 -6.13021,-2.69486 -6.13021,-7z" fill="#000000" stroke="none" stroke-width="0" stroke-linecap="butt"/><path d="M163.31662,255.25028v-60.91416h160.18167v60.91416z" fill="#000000" stroke="#000000" stroke-width="2" stroke-linecap="butt"/><path d="M189.58843,250.72256c-1.1453,0 -2.18478,-0.38591 -3.11845,-1.15775c-0.93367,-0.75938 -1.74285,-1.79887 -2.42754,-3.11845c-1.23244,-2.29061 -2.14744,-5.43396 -2.74498,-9.43006c-0.42326,-2.76366 -0.74071,-5.95057 -0.95234,-9.56075l-0.05602,-3.37988v-3.4359c-0.04979,-1.10795 -0.07469,-2.44621 -0.07469,-4.01477c0,-2.55202 0.10581,-4.80528 0.31745,-6.75975c0.17429,-2.04162 0.59755,-4.05834 1.26979,-6.05017c0.68469,-1.74285 1.66193,-2.97529 2.93172,-3.69732c0.77183,-0.34857 1.53744,-0.52285 2.29682,-0.52285c2.25325,0 4.03967,0.89632 5.35925,2.68896c1.44407,1.99182 2.40264,4.22018 2.8757,6.68506c0.67224,2.97529 1.05193,5.81986 1.13907,8.53372c0.17429,3.02508 0.26143,5.87588 0.26143,8.55239v3.62263c0,0.72203 -0.10581,2.08519 -0.31745,4.08946c-0.17429,1.56856 -0.26143,2.90682 -0.26143,4.01477v0.24275c-0.24898,1.19509 -0.37347,2.60182 -0.37347,4.22018c0,1.18265 -0.2552,2.41509 -0.76561,3.69734c-0.51041,1.26979 -1.23244,2.35284 -2.16611,3.24916c-0.94611,1.02081 -2.0105,1.53121 -3.19314,1.53121zM189.71916,247.21198c0.84653,0 1.56856,-0.78428 2.16611,-2.35284c0.51041,-1.40674 0.87765,-3.11847 1.10173,-5.13519c0.23653,-2.01672 0.44193,-4.3011 0.61622,-6.85312c0.08714,-1.10795 0.13071,-2.53335 0.13071,-4.2762l-0.07469,-5.86343c-0.08714,-2.2906 -0.34235,-5.15384 -0.76561,-8.58974c-0.33612,-2.93794 -0.97101,-5.53354 -1.90468,-7.78679c-0.42326,-1.05815 -0.95857,-1.88601 -1.60591,-2.48356c-0.63489,-0.59755 -1.31336,-0.89632 -2.0354,-0.89632c-1.05815,0 -1.84244,0.82785 -2.35284,2.48356c-0.63489,1.74285 -1.05815,3.65998 -1.26979,5.75139c-0.26143,2.2408 -0.41081,4.38201 -0.44816,6.42363l-0.05602,2.11009c-0.04979,0.59755 -0.07469,1.40673 -0.07469,2.42754v0.24275c0,2.8508 0.29877,6.35517 0.89632,10.5131c0.68469,5.6518 1.6806,9.66657 2.98774,12.04433c0.85897,1.49387 1.75529,2.2408 2.68896,2.2408zM219.60796,249.88228c-0.84653,0 -2.58937,-4.3758 -5.22854,-13.12738c-2.97529,-10.233 -5.54598,-19.64436 -7.71209,-28.2341v20.91415c0,1.78019 0.16806,4.81772 0.50418,9.11259c0.29877,4.66835 0.44816,7.68099 0.44816,9.03792c0,0.38591 -0.23653,0.71581 -0.70959,0.98969c-0.46061,0.27387 -0.98969,0.41081 -1.58723,0.41081c-0.88387,0 -1.32581,-0.33612 -1.32581,-1.00836l0.11204,-1.84866c0.08714,-1.35694 0.13071,-2.25327 0.13071,-2.68898c0,-2.2408 -0.12449,-5.80741 -0.37347,-10.69983c-0.26143,-4.96711 -0.39214,-7.98597 -0.39214,-9.05657v-8.14158c0,-1.31958 0.06847,-3.27406 0.20541,-5.86343c0.16183,-2.25325 0.24275,-4.20773 0.24275,-5.86343v-0.39214c0,-2.12876 0.46683,-3.19314 1.4005,-3.19314c0.5602,0 1.26356,0.93989 2.11009,2.81968c1.40673,3.04998 3.19314,8.52749 5.35925,16.43255c1.23244,4.59364 2.67652,10.50065 4.33222,17.72101c-0.04979,-0.17429 0.28633,1.29469 1.00836,4.40691l0.07469,0.31745c0,-4.12058 0.04357,-7.81791 0.13071,-11.09197l0.11204,-11.09197v-18.86008c0.17429,-1.07061 0.85897,-1.60591 2.05407,-1.60591c1.1453,0 1.71795,0.82785 1.71795,2.48356v0.39214c-0.26143,0.51041 -0.39214,1.12663 -0.39214,1.84866c0,2.58937 -0.06225,6.49833 -0.18673,11.72686c-0.12449,5.26588 -0.18673,9.21841 -0.18673,11.85758v19.43897c0,0.67224 -0.18051,1.31336 -0.54153,1.92335c-0.36102,0.62245 -0.79673,0.93367 -1.30713,0.93367zM233.05566,249.63952c-0.5602,0 -1.06438,-0.20541 -1.51254,-0.61622c-0.43571,-0.39837 -0.65357,-0.87765 -0.65357,-1.43785c0,-0.37347 0.08092,-0.8403 0.24275,-1.4005c0.13694,-0.59755 0.20541,-1.03948 0.20541,-1.32581c0,-3.78448 -0.21785,-11.05464 -0.65357,-21.81049c-0.42326,-9.17484 -0.63489,-16.4201 -0.63489,-21.73578c0,-0.37347 0.14939,-0.67847 0.44816,-0.91499c0.29877,-0.23653 0.65979,-0.35479 1.08305,-0.35479c0.51041,0 0.95857,0.18051 1.34448,0.54153c0.38591,0.36102 0.57887,0.79673 0.57887,1.30713c0,2.55202 0.12449,6.38006 0.37347,11.48411c0.21163,5.63935 0.31745,9.46116 0.31745,11.46544l0.07469,0.76561v0.76561v0.44816v0.31745c0.12449,3.69732 0.18673,9.21841 0.18673,16.56326v1.66195h4.91109c0.88387,0.63489 1.32581,1.26979 1.32581,1.90468c0,0.47306 -0.16183,0.89009 -0.48551,1.25111c-0.31122,0.36102 -0.67847,0.54153 -1.10173,0.54153c-0.12449,0 -0.36102,-0.04357 -0.70959,-0.13071l-0.24275,-0.05602c-0.26143,0.03735 -0.66601,0.05602 -1.21377,0.05602h-1.08305c-0.29877,-0.03735 -0.64112,-0.05602 -1.02703,-0.05602c-0.42326,0.51041 -1.01459,0.76561 -1.77397,0.76561zM250.0717,248.87392c-3.65998,0 -5.48996,-0.64112 -5.48996,-1.92335c0,-1.02081 0.64112,-1.53121 1.92335,-1.53121h0.76561c0.16183,0.04979 0.34857,0.07469 0.5602,0.07469c0.34857,0 0.59755,-0.10581 0.74693,-0.31745c0.14939,-0.21163 0.22408,-0.59755 0.22408,-1.15777c0,-3.61018 -0.21785,-8.53995 -0.65357,-14.78929c-0.37347,-6.49833 -0.5602,-11.40319 -0.5602,-14.7146c0,-1.19509 0.01867,-2.27815 0.05602,-3.24916l0.07469,-3.24916c0,-1.40673 -0.06847,-2.57692 -0.20541,-3.51059c-0.46061,0.17429 -0.94611,0.26143 -1.45652,0.26143c-0.98346,0 -1.47519,-0.51041 -1.47519,-1.53121c0,-0.51041 0.305,-0.95857 0.91499,-1.34448c0.62245,-0.38591 1.4254,-0.65979 2.40886,-0.82163c1.78019,-0.29877 3.28651,-0.44816 4.51895,-0.44816c0.51041,0 0.94611,0.17429 1.30713,0.52285c0.36102,0.33612 0.54153,0.73449 0.54153,1.19509c0,0.47306 -0.13694,0.87765 -0.41081,1.21377c-0.27387,0.33612 -0.62245,0.50418 -1.04571,0.50418c-0.26143,0 -0.47928,-0.01867 -0.65357,-0.05602h-0.50418c-0.42326,0 -0.73449,0.09959 -0.93367,0.29877c-0.18673,0.18673 -0.2801,0.5353 -0.2801,1.04571c0,4.49405 0.2801,10.6936 0.8403,18.59866c0.51041,8.29097 0.76561,14.51542 0.76561,18.67335v2.42755c0.28633,-0.04979 0.70959,-0.07469 1.26979,-0.07469c1.78019,0 2.67029,0.74693 2.67029,2.2408v0.37347l-1.58723,1.08305c-0.04979,0 -0.18051,0.01245 -0.39214,0.03735c-0.21163,0.0249 -0.63489,0.03735 -1.26979,0.03735c-1.44407,0.08714 -2.33417,0.13071 -2.67029,0.13071zM278.17771,249.88228c-0.84653,0 -2.58937,-4.3758 -5.22854,-13.12738c-2.97529,-10.233 -5.54598,-19.64436 -7.71209,-28.2341v20.91415c0,1.78019 0.16806,4.81772 0.50418,9.11259c0.29877,4.66835 0.44816,7.68099 0.44816,9.03792c0,0.38591 -0.23653,0.71581 -0.70959,0.98969c-0.46061,0.27387 -0.98969,0.41081 -1.58723,0.41081c-0.88387,0 -1.32581,-0.33612 -1.32581,-1.00836l0.11204,-1.84866c0.08714,-1.35694 0.13071,-2.25327 0.13071,-2.68898c0,-2.2408 -0.12449,-5.80741 -0.37347,-10.69983c-0.26143,-4.96711 -0.39214,-7.98597 -0.39214,-9.05657v-8.14158c0,-1.31958 0.06847,-3.27406 0.20541,-5.86343c0.16183,-2.25325 0.24275,-4.20773 0.24275,-5.86343v-0.39214c0,-2.12876 0.46683,-3.19314 1.4005,-3.19314c0.5602,0 1.26356,0.93989 2.11009,2.81968c1.40673,3.04998 3.19314,8.52749 5.35925,16.43255c1.23244,4.59364 2.67652,10.50065 4.33222,17.72101c-0.04979,-0.17429 0.28633,1.29469 1.00836,4.40691l0.07469,0.31745c0,-4.12058 0.04357,-7.81791 0.13071,-11.09197l0.11204,-11.09197v-18.86008c0.17429,-1.07061 0.85897,-1.60591 2.05407,-1.60591c1.1453,0 1.71795,0.82785 1.71795,2.48356v0.39214c-0.26143,0.51041 -0.39214,1.12663 -0.39214,1.84866c0,2.58937 -0.06225,6.49833 -0.18673,11.72686c-0.12449,5.26588 -0.18673,9.21841 -0.18673,11.85758v19.43897c0,0.67224 -0.18051,1.31336 -0.54153,1.92335c-0.36102,0.62245 -0.79673,0.93367 -1.30713,0.93367zM292.31629,249.3034c-0.80918,0 -1.50631,-0.10581 -2.09142,-0.31745c-0.72203,-0.21163 -1.08305,-0.80295 -1.08305,-1.77397v-37.02927c0,-0.72203 -0.13071,-1.80509 -0.39214,-3.24916c-0.29877,-1.31958 -0.44816,-2.40264 -0.44816,-3.24916v-0.18673c0.72203,-1.19509 1.25734,-1.9607 1.60591,-2.29682c0.5851,0 1.36938,-0.08714 2.35284,-0.26143c0.89632,-0.17429 1.6806,-0.26143 2.35284,-0.26143c0.68469,0 1.34448,0.20541 1.97938,0.61622c0.63489,0.39837 0.95234,0.87765 0.95234,1.43785c0,1.26979 -0.97724,1.90468 -2.93172,1.90468h-0.89632c-0.24898,-0.03735 -0.54153,-0.05602 -0.87765,-0.05602c-0.38591,0 -0.62245,0.01867 -0.70959,0.05602c0,1.44407 0.08714,3.18692 0.26143,5.22854l0.13071,1.77397l0.11204,3.51059c0,0.80918 -0.06225,2.04162 -0.18673,3.69732l-0.13071,3.56661l0.89632,-0.18673c0.84653,-0.26143 1.54989,-0.39214 2.11009,-0.39214c0.46061,0 0.88387,0.18051 1.26979,0.54153c0.38591,0.36102 0.57887,0.77805 0.57887,1.25111c0,0.51041 -0.16183,0.97101 -0.48551,1.38183c-0.31122,0.39837 -0.70336,0.59755 -1.17642,0.59755l-0.76561,-0.07469h-0.82163c-0.64734,0 -1.0955,0.14939 -1.34448,0.44816v19.7004l3.56661,-0.18673c2.42754,0 3.6413,0.54775 3.6413,1.64325v0.26143c-0.26143,0.51041 -0.73449,0.92744 -1.41917,1.25111c-0.67224,0.31122 -1.32581,0.51041 -1.9607,0.59755l-2.11009,0.05602z" fill="#00f000" stroke="#03f403" stroke-width="1.5" stroke-linecap="square"/><path d="M468.67622,231.60321c0,63.83474 -102.93708,115.58302 -229.91641,115.58302c-126.97933,0 -229.9164,-51.74828 -229.9164,-115.58302c0,-63.83474 102.93708,-115.58302 229.9164,-115.58302c126.97933,0 229.91641,51.74828 229.91641,115.58302z" fill="none" stroke="none" stroke-width="NaN" stroke-linecap="butt"/></g></g></svg>