<svg version="1.1" xmlns="http://www.w3.org/2000/svg" xmlns:xlink="http://www.w3.org/1999/xlink" width="414.41441" height="429.42943" viewBox="0,0,414.41441,429.42943"><defs><linearGradient x1="306.81682" y1="170.59008" x2="306.81682" y2="205.12462" gradientUnits="userSpaceOnUse" id="color-1"><stop offset="0" stop-color="#000000" stop-opacity="0"/><stop offset="1" stop-color="#000000"/></linearGradient></defs><g transform="translate(-86.0961,44.62463)"><g data-paper-data="{&quot;isPaintingLayer&quot;:true}" fill-rule="nonzero" stroke-linejoin="miter" stroke-miterlimit="10" stroke-dasharray="" stroke-dashoffset="0" style="mix-blend-mode: normal"><path d="M170.69107,157.13424c6.33555,-16.12342 31.87818,-81.12715 35.29574,-89.82455c0.32466,-0.82622 0.71449,-1.22067 1.09704,-1.23c0.49145,-0.01201 0.97089,0.61153 1.28471,1.77164c2.11672,7.82484 15.21703,56.2526 15.21703,56.2526c0,0 -47.89421,32.31053 -52.87906,35.67343c-0.82096,0.55384 -0.92108,-0.3384 -0.01546,-2.64312z" data-paper-data="{&quot;index&quot;:null}" fill="#333344" stroke="#ffffff" stroke-width="15" stroke-linecap="butt"/><path d="M170.37578,159.3105c4.82568,-3.58756 51.19059,-38.0567 51.19059,-38.0567c0,0 41.34302,28.41867 48.02312,33.0105c0.9904,0.68078 1.41966,1.33987 1.24535,1.79953c-0.13567,0.35781 -0.63708,0.59477 -1.5242,0.62707c-9.33857,0.33993 -79.13439,2.88055 -96.44643,3.51071c-2.47463,0.09008 -3.28317,-0.30026 -2.48843,-0.8911z" fill="#333344" stroke="#ffffff" stroke-width="15" stroke-linecap="butt"/><path d="M217.91858,121.47462c1.33968,-1.13487 2.73958,-2.22147 4.19894,-3.25538c27.35056,-19.37702 65.23075,-12.91319 84.60777,14.43736c19.37702,27.35055 12.9132,65.23074 -14.43736,84.60777c-15.4682,10.95874 -34.3043,13.65227 -51.2565,8.97675" fill="none" stroke="#ffffff" stroke-width="50" stroke-linecap="butt"/><path d="M170.69107,157.13424c6.33556,-16.12341 31.87818,-81.12715 35.29574,-89.82455c0.32466,-0.82622 0.71449,-1.22067 1.09704,-1.23c0.49145,-0.01201 0.97089,0.61153 1.28471,1.77164c2.11672,7.82484 15.21703,56.2526 15.21703,56.2526c0,0 -47.89421,32.31053 -52.87906,35.67343c-0.82096,0.55384 -0.92108,-0.3384 -0.01546,-2.64312z" data-paper-data="{&quot;index&quot;:null}" fill="#333344" stroke="#be3c11" stroke-width="10" stroke-linecap="butt"/><path d="M217.91859,121.47462c1.33968,-1.13487 2.73958,-2.22146 4.19895,-3.25538c27.35056,-19.37702 65.23074,-12.9132 84.60777,14.43736c19.37702,27.35056 12.9132,65.23074 -14.43736,84.60777c-15.4682,10.95874 -34.30431,13.65227 -51.2565,8.97675" fill="none" stroke="#be3c11" stroke-width="40" stroke-linecap="butt"/><path d="M170.37578,159.3105c4.82568,-3.58756 51.19059,-38.0567 51.19059,-38.0567c0,0 41.34302,28.41867 48.02312,33.0105c0.9904,0.68078 1.41966,1.33987 1.24535,1.79953c-0.13567,0.35781 -0.63708,0.59477 -1.5242,0.62707c-9.33857,0.33993 -79.13439,2.88054 -96.44643,3.51071c-2.47463,0.09008 -3.28317,-0.30026 -2.48843,-0.8911z" fill="#333344" stroke="#be3c11" stroke-width="10" stroke-linecap="butt"/><path d="M217.91859,121.47462c1.33968,-1.13487 2.73958,-2.22146 4.19895,-3.25538c27.35056,-19.37702 65.23074,-12.9132 84.60777,14.43736c19.37702,27.35056 12.9132,65.23074 -14.43736,84.60777c-15.4682,10.95874 -34.30431,13.65227 -51.2565,8.97675" fill="none" stroke="#333344" stroke-width="30" stroke-linecap="butt"/><path d="M217.91859,121.47462c1.33968,-1.13487 2.73958,-2.22146 4.19895,-3.25538c27.35056,-19.37702 65.23074,-12.9132 84.60777,14.43736c19.37702,27.35056 12.9132,65.23074 -14.43736,84.60777c-15.4682,10.95874 -34.30431,13.65227 -51.2565,8.97675" fill="none" stroke="#a9bbbb" stroke-width="20" stroke-linecap="butt"/><path d="M170.78648,158.99089c5.81266,-4.32132 50.15661,-36.88702 50.15661,-36.88702c0,0 41.96629,27.56859 48.6464,32.16042c0.9904,0.68078 1.41966,1.33987 1.24536,1.79954c-0.13569,0.35781 -0.63708,0.59477 -1.5242,0.62706c-9.78101,0.35603 -84.98254,3.10063 -97.64058,3.5614c-1.15495,0.04204 -2.10033,-0.35682 -0.88359,-1.26138z" fill="#333344" stroke="none" stroke-width="0" stroke-linecap="butt"/><path d="M178.7356,153.44841c4.44489,-3.30447 39.21631,-28.31324 39.21631,-28.31324c0,0 31.22923,21.18751 36.33744,24.69884c0.75735,0.52059 1.0856,1.02459 0.95231,1.37608c-0.10377,0.27361 -0.48717,0.45482 -1.16554,0.47951c-7.47945,0.27225 -64.98537,2.37103 -74.66485,2.72337c-0.88319,0.03215 -1.60611,-0.27286 -0.67567,-0.96457z" fill="#a9bbbb" stroke="#333344" stroke-width="1.5" stroke-linecap="butt"/><path d="M170.25611,158.24115c5.49109,-13.97432 32.22846,-82.01856 35.7307,-90.93148c0.32465,-0.82621 0.71448,-1.22065 1.09703,-1.23c0.49145,-0.012 0.97089,0.61153 1.28472,1.77165c2.11672,7.82485 15.21703,56.2526 15.21703,56.2526c0,0 -46.44611,31.3336 -52.23602,35.23962c-1.15461,0.77892 -1.72661,0.50894 -1.09346,-1.10239z" data-paper-data="{&quot;index&quot;:null}" fill="#333344" stroke="none" stroke-width="0" stroke-linecap="butt"/><path d="M178.7356,153.44841l13.56988,-9.73503l62.93618,7.49672c0,0 -0.48717,0.45482 -1.16554,0.47951c-7.47945,0.27225 -64.98537,2.37103 -74.66485,2.72337c-0.88319,0.03215 -0.67567,-0.96457 -0.67567,-0.96457z" fill="#952712" stroke="none" stroke-width="0" stroke-linecap="butt"/><path d="M178.33004,152.87509c4.19899,-10.68604 24.6448,-62.71884 27.32294,-69.53446c0.24826,-0.6318 0.54635,-0.93342 0.8389,-0.94057c0.37581,-0.00918 0.74243,0.46763 0.98241,1.35476c1.61863,5.98359 10.48014,41.3839 10.48014,41.3839c0,0 -34.36074,25.59246 -38.78822,28.57935c-0.88292,0.59564 -1.32032,0.38917 -0.83615,-0.84299z" data-paper-data="{&quot;index&quot;:null}" fill="#eeeeee" stroke="#333344" stroke-width="1.5" stroke-linecap="butt"/><path d="M178.93123,151.44045c3.33843,-9.09238 24.16808,-60.78758 26.74772,-67.81336c0.23397,-0.63723 0.16029,0.65021 0.16029,0.65021l-12.73555,58.2254l-13.46516,9.87937c0,0 -1.01191,-0.11201 -0.7073,-0.94162z" data-paper-data="{&quot;index&quot;:null}" fill="#cc3200" stroke="none" stroke-width="0" stroke-linecap="butt"/><path d="M178.7356,153.44841c4.44489,-3.30447 39.21631,-28.31324 39.21631,-28.31324c0,0 31.22923,21.18751 36.33744,24.69884c0.75735,0.52059 1.0856,1.02459 0.95231,1.37608c-0.10377,0.27361 -0.48717,0.45482 -1.16554,0.47951c-7.47945,0.27225 -64.98537,2.37103 -74.66485,2.72337c-0.88319,0.03215 -1.60611,-0.27286 -0.67567,-0.96457z" fill="none" stroke="#333344" stroke-width="1.5" stroke-linecap="butt"/><path d="M178.7356,153.44841c4.44489,-3.30447 39.21631,-28.31324 39.21631,-28.31324c0,0 31.22923,21.18751 36.33744,24.69884c0.75735,0.52059 1.0856,1.02459 0.95231,1.37608c-0.10377,0.27361 -0.48717,0.45482 -1.16554,0.47951c-7.47945,0.27225 -64.98537,2.37103 -74.66485,2.72337c-0.88319,0.03215 -1.60611,-0.27286 -0.67567,-0.96457z" fill="none" stroke="#333344" stroke-width="1.5" stroke-linecap="butt"/><path d="M178.33004,152.87509c4.19899,-10.68604 24.6448,-62.71884 27.32294,-69.53446c0.24826,-0.6318 0.54635,-0.93342 0.8389,-0.94057c0.37581,-0.00918 0.74243,0.46763 0.98241,1.35476c1.61863,5.98359 10.48014,41.3839 10.48014,41.3839c0,0 -34.36074,25.59246 -38.78822,28.57935c-0.88292,0.59564 -1.32032,0.38917 -0.83615,-0.84299z" data-paper-data="{&quot;index&quot;:null}" fill="none" stroke="#333344" stroke-width="1.5" stroke-linecap="butt"/><path d="M220.76065,131.57847l-7.32249,-10.33565l8.70371,-6.16631l7.32249,10.33565z" fill="#a9bbbb" stroke="none" stroke-width="0" stroke-linecap="butt"/><path d="M212.21423,128.0181l-2.03573,-14.69392c0,0 20.14171,-14.14356 35.37776,-15.66743c13.69619,-1.97367 30.26847,1.94208 30.26847,1.94208c0,0 -10.27212,-1.48288 -32.64584,9.00314c-9.34873,4.38152 -30.96466,19.41613 -30.96466,19.41613z" fill="#eeeeee" stroke="none" stroke-width="0" stroke-linecap="butt"/><path d="M255.99941,151.0436c0,0 -6.19698,-3.81964 -10.58318,-6.52318c-7.20755,-4.44254 -28.57684,-17.614 -28.57684,-17.614l-9.20693,-44.13249" fill="none" stroke="#333344" stroke-width="2" stroke-linecap="round"/><path d="M228.73874,279.69969v-75.07508h136.63664v75.07508z" fill="#000000" stroke="none" stroke-width="NaN" stroke-linecap="butt"/><path d="M270.78078,205.12462v-34.53453h72.07207v34.53453z" fill="url(#color-1)" stroke="none" stroke-width="0" stroke-linecap="butt"/><path d="M239.24925,209.12912v-34.53453h31.53153v34.53453z" fill="#000000" stroke="none" stroke-width="0" stroke-linecap="butt"/><path d="M86.0961,384.8048v-429.42943h414.41441v429.42943z" fill="none" stroke="none" stroke-width="0" stroke-linecap="butt"/><g fill="#ffffff" stroke-linecap="square"><path d="M212.44634,225.70686c2.52943,-3.15486 5.62174,-4.73227 9.27693,-4.73227c3.65517,0 6.55292,1.3759 8.69321,4.12771c2.15419,2.73792 3.23129,6.28191 3.23129,10.63198c0,4.14161 -1.05625,7.53968 -3.16875,10.1942c-2.0986,2.64063 -4.99633,3.96093 -8.6932,3.96093c-3.54399,0 -6.65714,-1.47318 -9.33946,-4.41957v9.27693c0,2.55724 -0.31965,4.14856 -0.95896,4.77397c-0.62541,0.62541 -1.47319,0.93812 -2.54334,0.93812c-1.30642,0 -2.23062,-0.43083 -2.77265,-1.29252c-0.54202,-0.86169 -0.81303,-2.40435 -0.81303,-4.62804v-28.08094c0,-1.45929 0.06255,-2.52945 0.18763,-3.21044c0.13897,-0.68099 0.52118,-1.22997 1.14659,-1.64691c0.62541,-0.41694 1.3759,-0.62541 2.25148,-0.62541c2.33487,0 3.5023,1.32726 3.5023,3.98179zM226.45553,235.58834c0,-3.12705 -0.66015,-5.44107 -1.98046,-6.94205c-1.30642,-1.50099 -2.83519,-2.25148 -4.58634,-2.25148c-2.04301,0 -3.72467,0.76438 -5.04498,2.29317c-1.32031,1.52879 -1.98046,3.66212 -1.98046,6.40004c0,2.863 0.63931,5.14227 1.91793,6.83782c1.27861,1.68166 2.99502,2.5225 5.14922,2.5225c1.91793,0 3.48146,-0.78524 4.69059,-2.35571c1.22303,-1.57047 1.83454,-3.73856 1.83454,-6.50427zM246.5729,216.24231v27.76823c0,1.70946 -0.08339,2.87689 -0.25016,3.5023c-0.15287,0.61152 -0.54897,1.16048 -1.18827,1.64692c-0.63931,0.48644 -1.33421,0.72965 -2.0847,0.72965c-0.7644,0 -1.48013,-0.23626 -2.14724,-0.7088c-0.6532,-0.48643 -1.06319,-1.0493 -1.22997,-1.6886c-0.15287,-0.6393 -0.22931,-1.79979 -0.22931,-3.48145v-27.76823c0,-1.75115 0.08339,-2.93247 0.25016,-3.54399c0.16678,-0.62541 0.56286,-1.16743 1.18827,-1.62607c0.63931,-0.45863 1.33421,-0.68794 2.0847,-0.68794c0.87557,0 1.62607,0.25016 2.25148,0.75049c0.63931,0.48644 1.02151,1.07016 1.14659,1.75115c0.13898,0.6671 0.20847,1.78589 0.20847,3.35638zM271.89682,245.88678c-3.39112,2.66842 -6.71274,4.00263 -9.96487,4.00263c-3.07147,0 -5.43413,-0.77828 -7.08799,-2.33487c-1.63997,-1.57047 -2.45995,-3.48145 -2.45995,-5.73292c0,-1.93181 0.55591,-3.4884 1.66776,-4.66973c1.12574,-1.19524 2.34876,-2.02912 3.66908,-2.50164c1.32031,-0.47252 3.46756,-1.01455 6.44174,-1.62607c2.98807,-0.62541 5.39242,-1.19524 7.21307,-1.70946c-0.0139,-2.1542 -0.43778,-3.60653 -1.27166,-4.35702c-0.83388,-0.76438 -2.10554,-1.14658 -3.815,-1.14658c-3.22434,0 -5.33684,0.90338 -6.33749,2.71011c-0.55592,1.02846 -1.0493,1.7581 -1.48013,2.18894c-0.43084,0.43083 -1.05625,0.64626 -1.87623,0.64626c-0.75049,0 -1.4315,-0.24321 -2.04301,-0.72964c-0.59762,-0.50033 -0.89642,-1.13963 -0.89642,-1.91793c0,-1.84843 0.99371,-3.59958 2.98113,-5.25345c2.00131,-1.65387 5.14922,-2.48079 9.44371,-2.48079c4.35007,0 7.53272,0.75049 9.54793,2.25148c2.0152,1.50099 2.96028,4.5377 2.83519,9.11015l-0.16678,6.67105c-0.0695,2.05691 0.14594,3.73857 0.64626,5.04498c0.50033,1.30642 0.75049,2.30707 0.75049,3.00197c0,0.75049 -0.33355,1.41065 -1.00066,1.98047c-0.65322,0.56983 -1.39674,0.85473 -2.23062,0.85473c-1.4454,0 -2.96723,-1.33421 -4.56549,-4.00263zM271.41734,235.58834c-1.05625,0.41694 -2.8074,0.86862 -5.25345,1.35506c-2.43216,0.48644 -4.15551,1.04235 -5.17006,1.66776c-1.01456,0.62541 -1.52183,1.53573 -1.52183,2.73097c0,1.02846 0.40304,1.93183 1.20913,2.71011c0.80608,0.7783 1.94572,1.16743 3.41891,1.16743c1.57047,0 3.02282,-0.42389 4.35703,-1.27166c1.3481,-0.86167 2.17504,-1.88318 2.4808,-3.06451c0.31965,-1.18132 0.47949,-2.94637 0.47949,-5.29514zM292.85328,249.18061l-8.71405,-22.03531c-0.54202,-1.43149 -0.81303,-2.4113 -0.81303,-2.93942c0,-0.81999 0.3405,-1.56352 1.02151,-2.23062c0.68101,-0.6671 1.48014,-1.00066 2.39741,-1.00066c0.80609,0 1.48708,0.25016 2.04301,0.75049c0.56981,0.48644 1.12574,1.49403 1.66776,3.02282l6.00394,17.5115l5.71208,-16.23983c0.75049,-2.11251 1.34811,-3.48145 1.79284,-4.10686c0.44473,-0.62541 1.20218,-0.93811 2.27233,-0.93811c0.97287,0 1.73725,0.3266 2.29317,0.97982c0.56981,0.6393 0.85473,1.29947 0.85473,1.98047c0,0.80608 -0.28491,1.94573 -0.85472,3.41891l-9.27692,24.28678c-1.23692,3.23825 -2.51554,5.51752 -3.83585,6.83782c-1.32031,1.32032 -3.56483,1.98047 -6.73358,1.98047c-4.14161,0 -6.21241,-1.05624 -6.21241,-3.16875c0,-0.6949 0.23626,-1.27861 0.7088,-1.75115c0.47254,-0.45863 1.09795,-0.68794 1.87623,-0.68794c0.12508,0 0.52118,0.02085 1.18829,0.06255c0.68101,0.0556 1.08404,0.08339 1.20913,0.08339c1.32031,0 2.28622,-0.31965 2.89774,-0.95896c0.62541,-0.62541 1.23692,-1.70946 1.83454,-3.25213z" stroke="#000000" stroke-width="4.5"/><path d="M212.05907,305.42431c-3.39112,2.66842 -6.71274,4.00263 -9.96487,4.00263c-3.07146,0 -5.43413,-0.77828 -7.08799,-2.33487c-1.63997,-1.57047 -2.45995,-3.48145 -2.45995,-5.73292c0,-1.93183 0.55591,-3.48841 1.66776,-4.66973c1.12574,-1.19524 2.34876,-2.02912 3.66908,-2.50164c1.32031,-0.47254 3.46756,-1.01456 6.44172,-1.62607c2.98807,-0.62541 5.39243,-1.19524 7.21307,-1.70946c-0.0139,-2.1542 -0.43778,-3.60653 -1.27166,-4.35702c-0.83388,-0.7644 -2.10554,-1.14658 -3.815,-1.14658c-3.22434,0 -5.33684,0.90337 -6.33749,2.71011c-0.55592,1.02845 -1.0493,1.7581 -1.48013,2.18894c-0.43084,0.43083 -1.05625,0.64626 -1.87623,0.64626c-0.75049,0 -1.4315,-0.24321 -2.04301,-0.72964c-0.59762,-0.50033 -0.89642,-1.13964 -0.89642,-1.91793c0,-1.84844 0.99371,-3.59959 2.98113,-5.25345c2.00131,-1.65387 5.14921,-2.48079 9.44369,-2.48079c4.35008,0 7.53272,0.75049 9.54793,2.25148c2.01522,1.50099 2.96028,4.5377 2.83519,9.11015l-0.16678,6.67105c-0.06949,2.0569 0.14594,3.73856 0.64626,5.04498c0.50033,1.30642 0.75049,2.30707 0.75049,3.00197c0,0.75049 -0.33355,1.41065 -1.00066,1.98047c-0.6532,0.56981 -1.39674,0.85473 -2.23062,0.85473c-1.44539,0 -2.96723,-1.33421 -4.56549,-4.00263zM211.57959,295.12588c-1.05625,0.41694 -2.8074,0.86862 -5.25345,1.35506c-2.43216,0.48643 -4.1555,1.04235 -5.17006,1.66776c-1.01456,0.62541 -1.52183,1.53573 -1.52183,2.73097c0,1.02845 0.40304,1.93183 1.20913,2.71011c0.80609,0.77828 1.94572,1.16743 3.41891,1.16743c1.57047,0 3.02282,-0.42389 4.35703,-1.27166c1.34811,-0.86167 2.17504,-1.88318 2.4808,-3.06451c0.31965,-1.18134 0.47949,-2.94639 0.47949,-5.29514zM245.27358,285.34862v-0.95896c0,-1.29252 0.31966,-2.25843 0.95896,-2.89773c0.63931,-0.65322 1.4454,-0.9798 2.41825,-0.9798c1.07016,0 1.89709,0.37525 2.4808,1.12574c0.58372,0.75049 0.87557,2.37656 0.87557,4.8782v19.11672c0,5.65649 -1.19522,9.46455 -3.58569,11.42417c-2.39045,1.95962 -5.84412,2.93944 -10.36096,2.93944c-4.04432,0 -7.20612,-0.75049 -9.48539,-2.25148c-2.27927,-1.48708 -3.41891,-3.06451 -3.41891,-4.73227c0,-0.90337 0.29881,-1.63302 0.89643,-2.18893c0.61152,-0.54202 1.32031,-0.81303 2.1264,-0.81303c0.75049,0 1.34811,0.17373 1.79284,0.52118c0.44475,0.36134 1.19524,1.20913 2.25148,2.54334c1.05625,1.34811 2.8491,2.02217 5.37853,2.02217c1.38981,0 2.67537,-0.22237 3.85671,-0.6671c1.19524,-0.43084 2.07081,-1.20218 2.62672,-2.31401c0.56983,-1.09795 0.84083,-3.7733 0.81304,-8.0261c-2.18198,3.12705 -5.15616,4.69059 -8.92252,4.69059c-3.62738,0 -6.49732,-1.35505 -8.60981,-4.06516c-2.11249,-2.72401 -3.16875,-6.20546 -3.16875,-10.44435c0,-4.225 1.08404,-7.57443 3.25213,-10.04826c2.18199,-2.47385 5.01024,-3.71077 8.48473,-3.71077c3.79416,0 6.90732,1.61216 9.33946,4.83651zM231.38947,294.83402c0,2.7657 0.60457,4.8782 1.8137,6.33749c1.20913,1.44539 2.863,2.16809 4.96159,2.16809c1.82065,0 3.39807,-0.70185 4.73228,-2.10554c1.33421,-1.4176 2.00131,-3.52314 2.00131,-6.31664c0,-2.76571 -0.61846,-4.95464 -1.85538,-6.5668c-1.22302,-1.61218 -2.88384,-2.41825 -4.98243,-2.41825c-2.0152,0 -3.63433,0.75744 -4.85735,2.27233c-1.20913,1.50099 -1.81368,3.71077 -1.81368,6.62935zM277.12782,305.42431c-3.39111,2.66842 -6.71274,4.00263 -9.96487,4.00263c-3.07146,0 -5.43411,-0.77828 -7.08799,-2.33487c-1.63996,-1.57047 -2.45995,-3.48145 -2.45995,-5.73292c0,-1.93183 0.55592,-3.48841 1.66776,-4.66973c1.12574,-1.19524 2.34877,-2.02912 3.66908,-2.50164c1.32032,-0.47254 3.46756,-1.01456 6.44174,-1.62607c2.98808,-0.62541 5.39243,-1.19524 7.21307,-1.70946c-0.01389,-2.1542 -0.43778,-3.60653 -1.27166,-4.35702c-0.83388,-0.7644 -2.10554,-1.14658 -3.815,-1.14658c-3.22433,0 -5.33684,0.90337 -6.33749,2.71011c-0.55591,1.02845 -1.0493,1.7581 -1.48013,2.18894c-0.43083,0.43083 -1.05624,0.64626 -1.87623,0.64626c-0.75049,0 -1.43149,-0.24321 -2.04301,-0.72964c-0.59761,-0.50033 -0.89642,-1.13964 -0.89642,-1.91793c0,-1.84844 0.99371,-3.59959 2.98113,-5.25345c2.00131,-1.65387 5.14922,-2.48079 9.44371,-2.48079c4.35008,0 7.53273,0.75049 9.54793,2.25148c2.01522,1.50099 2.96028,4.5377 2.83519,9.11015l-0.16678,6.67105c-0.06949,2.0569 0.14594,3.73856 0.64626,5.04498c0.50033,1.30642 0.75049,2.30707 0.75049,3.00197c0,0.75049 -0.33355,1.41065 -1.00066,1.98047c-0.6532,0.56981 -1.39674,0.85473 -2.23062,0.85473c-1.44539,0 -2.96723,-1.33421 -4.56549,-4.00263zM276.64834,295.12588c-1.05624,0.41694 -2.80739,0.86862 -5.25345,1.35506c-2.43214,0.48643 -4.1555,1.04235 -5.17006,1.66776c-1.01455,0.62541 -1.52183,1.53573 -1.52183,2.73097c0,1.02845 0.40305,1.93183 1.20913,2.71011c0.80609,0.77828 1.94573,1.16743 3.41891,1.16743c1.57048,0 3.02282,-0.42389 4.35703,-1.27166c1.34811,-0.86167 2.17504,-1.88318 2.4808,-3.06451c0.31966,-1.18134 0.47949,-2.94639 0.47949,-5.29514zM294.45691,270.23454c0.91727,0 1.71641,0.34744 2.39741,1.04235c0.68101,0.6949 1.02151,1.50099 1.02151,2.41825c0,0.95896 -0.3405,1.78589 -1.0215,2.4808c-0.68099,0.68099 -1.48013,1.02151 -2.3974,1.02151c-0.95896,0 -1.78589,-0.3405 -2.48079,-1.0215c-0.68099,-0.69491 -1.0215,-1.52183 -1.0215,-2.48079c0,-0.93117 0.3405,-1.73726 1.02151,-2.41825c0.69491,-0.69491 1.52184,-1.04235 2.4808,-1.04235zM297.98006,286.30758v17.24049c0,1.69555 -0.08339,2.85605 -0.25016,3.48146c-0.15287,0.62541 -0.54897,1.18134 -1.18827,1.66776c-0.6393,0.48643 -1.33421,0.72965 -2.0847,0.72965c-0.76438,0 -1.48013,-0.23626 -2.14724,-0.7088c-0.6532,-0.48643 -1.06319,-1.0493 -1.22997,-1.6886c-0.15289,-0.63931 -0.22931,-1.79979 -0.22931,-3.48145v-17.17794c0,-1.58437 0.06255,-2.70316 0.18763,-3.35636c0.12508,-0.65322 0.50033,-1.22997 1.12574,-1.7303c0.63931,-0.51423 1.3759,-0.77133 2.20978,-0.77133c0.84778,0 1.57742,0.22932 2.18894,0.68796c0.61152,0.45863 1.00066,1.04235 1.16743,1.75115c0.16678,0.6949 0.25016,1.8137 0.25016,3.35638zM330.4128,291.87374v11.67433c0,1.50099 -0.06253,2.59893 -0.18762,3.29383c-0.11118,0.68101 -0.47947,1.28556 -1.10489,1.8137c-0.62541,0.51423 -1.36895,0.77135 -2.23062,0.77135c-0.76438,0 -1.48013,-0.22931 -2.14724,-0.68794c-0.6532,-0.45863 -1.05624,-1.05625 -1.20913,-1.79284c-0.15287,-0.73659 -0.22931,-1.86928 -0.22931,-3.39806v-10.25673c0,-2.8491 -0.43083,-4.76702 -1.29252,-5.75378c-0.84777,-0.98677 -2.0152,-1.48013 -3.5023,-1.48013c-1.362,0 -2.55723,0.38914 -3.58569,1.16743c-1.01455,0.77828 -1.7303,1.7581 -2.14724,2.93944c-0.41694,1.16743 -0.62541,3.1757 -0.62541,6.0248v7.359c0,1.48708 -0.05558,2.57113 -0.16678,3.25213c-0.11118,0.68101 -0.49338,1.29252 -1.14658,1.83454c-0.6393,0.52812 -1.3759,0.79219 -2.20978,0.79219c-0.77828,0 -1.50099,-0.23626 -2.16809,-0.7088c-0.6532,-0.48643 -1.0493,-1.08404 -1.18827,-1.79284c-0.13897,-0.7088 -0.20847,-1.83454 -0.20847,-3.37722v-17.55319c0,-1.57048 0.0695,-2.66842 0.20847,-3.29383c0.15289,-0.62541 0.52813,-1.14658 1.12574,-1.56352c0.59762,-0.41694 1.27167,-0.62541 2.02217,-0.62541c0.69491,0 1.4176,0.27102 2.16809,0.81304c0.7644,0.54202 1.14659,1.86928 1.14659,3.98179c2.37656,-3.19655 5.43413,-4.79481 9.17269,-4.79481c1.4176,0 2.82131,0.27102 4.2111,0.81304c1.38981,0.52812 2.5225,1.39676 3.39807,2.60588c0.88948,1.20913 1.42455,2.45995 1.60523,3.75246c0.19458,1.29252 0.29186,2.68927 0.29186,4.19026z" stroke="#000000" stroke-width="4.5"/><path d="M212.44633,225.70686c2.52943,-3.15486 5.62174,-4.73227 9.27693,-4.73227c3.65517,0 6.55292,1.3759 8.69321,4.12771c2.15419,2.73792 3.23129,6.28191 3.23129,10.63198c0,4.14161 -1.05625,7.53968 -3.16875,10.1942c-2.0986,2.64063 -4.99633,3.96093 -8.6932,3.96093c-3.54399,0 -6.65714,-1.47318 -9.33946,-4.41957v9.27693c0,2.55724 -0.31965,4.14856 -0.95896,4.77397c-0.62541,0.62541 -1.47319,0.93812 -2.54334,0.93812c-1.30642,0 -2.23062,-0.43083 -2.77265,-1.29252c-0.54202,-0.86169 -0.81303,-2.40435 -0.81303,-4.62804v-28.08094c0,-1.45929 0.06255,-2.52945 0.18763,-3.21044c0.13897,-0.68099 0.52118,-1.22997 1.14659,-1.64691c0.62541,-0.41694 1.3759,-0.62541 2.25148,-0.62541c2.33487,0 3.5023,1.32726 3.5023,3.98179zM226.45553,235.58835c0,-3.12705 -0.66015,-5.44107 -1.98046,-6.94205c-1.30642,-1.50099 -2.83519,-2.25148 -4.58634,-2.25148c-2.04301,0 -3.72467,0.76438 -5.04498,2.29317c-1.32031,1.52879 -1.98046,3.66212 -1.98046,6.40004c0,2.863 0.63931,5.14227 1.91793,6.83782c1.27861,1.68166 2.99502,2.5225 5.14922,2.5225c1.91793,0 3.48146,-0.78524 4.69059,-2.35571c1.22303,-1.57047 1.83454,-3.73856 1.83454,-6.50427zM246.5729,216.24231v27.76823c0,1.70946 -0.08339,2.87689 -0.25016,3.5023c-0.15287,0.61152 -0.54897,1.16048 -1.18827,1.64692c-0.63931,0.48644 -1.33421,0.72965 -2.0847,0.72965c-0.7644,0 -1.48013,-0.23626 -2.14724,-0.7088c-0.6532,-0.48643 -1.06319,-1.0493 -1.22997,-1.6886c-0.15287,-0.6393 -0.22931,-1.79979 -0.22931,-3.48145v-27.76823c0,-1.75115 0.08339,-2.93247 0.25016,-3.54399c0.16678,-0.62541 0.56286,-1.16743 1.18827,-1.62607c0.63931,-0.45863 1.33421,-0.68794 2.0847,-0.68794c0.87557,0 1.62607,0.25016 2.25148,0.75049c0.63931,0.48644 1.02151,1.07016 1.14659,1.75115c0.13898,0.6671 0.20847,1.78589 0.20847,3.35638zM271.89681,245.88679c-3.39112,2.66842 -6.71274,4.00263 -9.96487,4.00263c-3.07147,0 -5.43413,-0.77828 -7.08799,-2.33487c-1.63997,-1.57047 -2.45995,-3.48145 -2.45995,-5.73292c0,-1.93181 0.55591,-3.4884 1.66776,-4.66973c1.12574,-1.19524 2.34876,-2.02912 3.66908,-2.50164c1.32031,-0.47252 3.46756,-1.01455 6.44174,-1.62607c2.98807,-0.62541 5.39242,-1.19524 7.21307,-1.70946c-0.0139,-2.1542 -0.43778,-3.60653 -1.27166,-4.35702c-0.83388,-0.76438 -2.10554,-1.14658 -3.815,-1.14658c-3.22434,0 -5.33684,0.90338 -6.33749,2.71011c-0.55592,1.02846 -1.0493,1.7581 -1.48013,2.18894c-0.43084,0.43083 -1.05625,0.64626 -1.87623,0.64626c-0.75049,0 -1.4315,-0.24321 -2.04301,-0.72964c-0.59762,-0.50033 -0.89642,-1.13963 -0.89642,-1.91793c0,-1.84843 0.99371,-3.59958 2.98113,-5.25345c2.00131,-1.65387 5.14922,-2.48079 9.44371,-2.48079c4.35007,0 7.53272,0.75049 9.54793,2.25148c2.0152,1.50099 2.96028,4.5377 2.83519,9.11015l-0.16678,6.67105c-0.0695,2.05691 0.14594,3.73857 0.64626,5.04498c0.50033,1.30642 0.75049,2.30707 0.75049,3.00197c0,0.75049 -0.33355,1.41065 -1.00066,1.98047c-0.65322,0.56983 -1.39674,0.85473 -2.23062,0.85473c-1.4454,0 -2.96723,-1.33421 -4.56549,-4.00263zM271.41734,235.58835c-1.05625,0.41694 -2.8074,0.86862 -5.25345,1.35506c-2.43216,0.48644 -4.15551,1.04235 -5.17006,1.66776c-1.01456,0.62541 -1.52183,1.53573 -1.52183,2.73097c0,1.02846 0.40304,1.93183 1.20913,2.71011c0.80608,0.7783 1.94572,1.16743 3.41891,1.16743c1.57047,0 3.02282,-0.42389 4.35703,-1.27166c1.3481,-0.86167 2.17504,-1.88318 2.4808,-3.06451c0.31965,-1.18132 0.47949,-2.94637 0.47949,-5.29514zM292.85328,249.18062l-8.71405,-22.03531c-0.54202,-1.43149 -0.81303,-2.4113 -0.81303,-2.93942c0,-0.81999 0.3405,-1.56352 1.02151,-2.23062c0.68101,-0.6671 1.48014,-1.00066 2.39741,-1.00066c0.80609,0 1.48708,0.25016 2.04301,0.75049c0.56981,0.48644 1.12574,1.49403 1.66776,3.02282l6.00394,17.5115l5.71208,-16.23983c0.75049,-2.11251 1.34811,-3.48145 1.79284,-4.10686c0.44473,-0.62541 1.20218,-0.93811 2.27233,-0.93811c0.97287,0 1.73725,0.3266 2.29317,0.97982c0.56981,0.6393 0.85473,1.29947 0.85473,1.98047c0,0.80608 -0.28491,1.94573 -0.85472,3.41891l-9.27692,24.28678c-1.23692,3.23825 -2.51554,5.51752 -3.83585,6.83782c-1.32031,1.32032 -3.56483,1.98047 -6.73358,1.98047c-4.14161,0 -6.21241,-1.05624 -6.21241,-3.16875c0,-0.6949 0.23626,-1.27861 0.7088,-1.75115c0.47254,-0.45863 1.09795,-0.68794 1.87623,-0.68794c0.12508,0 0.52118,0.02085 1.18829,0.06255c0.68101,0.0556 1.08404,0.08339 1.20913,0.08339c1.32031,0 2.28622,-0.31965 2.89774,-0.95896c0.62541,-0.62541 1.23692,-1.70946 1.83454,-3.25213z" stroke="none" stroke-width="1"/><path d="M212.05907,305.42431c-3.39112,2.66842 -6.71274,4.00263 -9.96487,4.00263c-3.07146,0 -5.43413,-0.77828 -7.08799,-2.33487c-1.63997,-1.57047 -2.45995,-3.48145 -2.45995,-5.73292c0,-1.93183 0.55591,-3.48841 1.66776,-4.66973c1.12574,-1.19524 2.34876,-2.02912 3.66908,-2.50164c1.32031,-0.47254 3.46756,-1.01456 6.44172,-1.62607c2.98807,-0.62541 5.39243,-1.19524 7.21307,-1.70946c-0.0139,-2.1542 -0.43778,-3.60653 -1.27166,-4.35702c-0.83388,-0.7644 -2.10554,-1.14658 -3.815,-1.14658c-3.22434,0 -5.33684,0.90337 -6.33749,2.71011c-0.55592,1.02845 -1.0493,1.7581 -1.48013,2.18894c-0.43084,0.43083 -1.05625,0.64626 -1.87623,0.64626c-0.75049,0 -1.4315,-0.24321 -2.04301,-0.72964c-0.59762,-0.50033 -0.89642,-1.13964 -0.89642,-1.91793c0,-1.84844 0.99371,-3.59959 2.98113,-5.25345c2.00131,-1.65387 5.14921,-2.48079 9.44369,-2.48079c4.35008,0 7.53272,0.75049 9.54793,2.25148c2.01522,1.50099 2.96028,4.5377 2.83519,9.11015l-0.16678,6.67105c-0.06949,2.0569 0.14594,3.73856 0.64626,5.04498c0.50033,1.30642 0.75049,2.30707 0.75049,3.00197c0,0.75049 -0.33355,1.41065 -1.00066,1.98047c-0.6532,0.56981 -1.39674,0.85473 -2.23062,0.85473c-1.44539,0 -2.96723,-1.33421 -4.56549,-4.00263zM211.57959,295.12588c-1.05625,0.41694 -2.8074,0.86862 -5.25345,1.35506c-2.43216,0.48643 -4.1555,1.04235 -5.17006,1.66776c-1.01456,0.62541 -1.52183,1.53573 -1.52183,2.73097c0,1.02845 0.40304,1.93183 1.20913,2.71011c0.80609,0.77828 1.94572,1.16743 3.41891,1.16743c1.57047,0 3.02282,-0.42389 4.35703,-1.27166c1.34811,-0.86167 2.17504,-1.88318 2.4808,-3.06451c0.31965,-1.18134 0.47949,-2.94639 0.47949,-5.29514zM245.27358,285.34862v-0.95896c0,-1.29252 0.31966,-2.25843 0.95896,-2.89773c0.63931,-0.65322 1.4454,-0.9798 2.41825,-0.9798c1.07016,0 1.89709,0.37525 2.4808,1.12574c0.58372,0.75049 0.87557,2.37656 0.87557,4.8782v19.11672c0,5.65649 -1.19522,9.46455 -3.58569,11.42417c-2.39045,1.95962 -5.84412,2.93944 -10.36096,2.93944c-4.04432,0 -7.20612,-0.75049 -9.48539,-2.25148c-2.27927,-1.48708 -3.41891,-3.06451 -3.41891,-4.73227c0,-0.90337 0.29881,-1.63302 0.89643,-2.18893c0.61152,-0.54202 1.32031,-0.81303 2.1264,-0.81303c0.75049,0 1.34811,0.17373 1.79284,0.52118c0.44475,0.36134 1.19524,1.20913 2.25148,2.54334c1.05625,1.34811 2.8491,2.02217 5.37853,2.02217c1.38981,0 2.67537,-0.22237 3.85671,-0.6671c1.19524,-0.43084 2.07081,-1.20218 2.62672,-2.31401c0.56983,-1.09795 0.84083,-3.7733 0.81304,-8.0261c-2.18198,3.12705 -5.15616,4.69059 -8.92252,4.69059c-3.62738,0 -6.49732,-1.35505 -8.60981,-4.06516c-2.11249,-2.72401 -3.16875,-6.20546 -3.16875,-10.44435c0,-4.225 1.08404,-7.57443 3.25213,-10.04826c2.18199,-2.47385 5.01024,-3.71077 8.48473,-3.71077c3.79416,0 6.90732,1.61216 9.33946,4.83651zM231.38946,294.83402c0,2.7657 0.60457,4.8782 1.8137,6.33749c1.20913,1.44539 2.863,2.16809 4.96159,2.16809c1.82065,0 3.39807,-0.70185 4.73228,-2.10554c1.33421,-1.4176 2.00131,-3.52314 2.00131,-6.31664c0,-2.76571 -0.61846,-4.95464 -1.85538,-6.5668c-1.22302,-1.61218 -2.88384,-2.41825 -4.98243,-2.41825c-2.0152,0 -3.63433,0.75744 -4.85735,2.27233c-1.20913,1.50099 -1.81368,3.71077 -1.81368,6.62935zM277.12782,305.42431c-3.39111,2.66842 -6.71274,4.00263 -9.96487,4.00263c-3.07146,0 -5.43411,-0.77828 -7.08799,-2.33487c-1.63996,-1.57047 -2.45995,-3.48145 -2.45995,-5.73292c0,-1.93183 0.55592,-3.48841 1.66776,-4.66973c1.12574,-1.19524 2.34877,-2.02912 3.66908,-2.50164c1.32032,-0.47254 3.46756,-1.01456 6.44174,-1.62607c2.98808,-0.62541 5.39243,-1.19524 7.21307,-1.70946c-0.01389,-2.1542 -0.43778,-3.60653 -1.27166,-4.35702c-0.83388,-0.7644 -2.10554,-1.14658 -3.815,-1.14658c-3.22433,0 -5.33684,0.90337 -6.33749,2.71011c-0.55591,1.02845 -1.0493,1.7581 -1.48013,2.18894c-0.43083,0.43083 -1.05624,0.64626 -1.87623,0.64626c-0.75049,0 -1.43149,-0.24321 -2.04301,-0.72964c-0.59761,-0.50033 -0.89642,-1.13964 -0.89642,-1.91793c0,-1.84844 0.99371,-3.59959 2.98113,-5.25345c2.00131,-1.65387 5.14922,-2.48079 9.44371,-2.48079c4.35008,0 7.53273,0.75049 9.54793,2.25148c2.01522,1.50099 2.96028,4.5377 2.83519,9.11015l-0.16678,6.67105c-0.06949,2.0569 0.14594,3.73856 0.64626,5.04498c0.50033,1.30642 0.75049,2.30707 0.75049,3.00197c0,0.75049 -0.33355,1.41065 -1.00066,1.98047c-0.6532,0.56981 -1.39674,0.85473 -2.23062,0.85473c-1.44539,0 -2.96723,-1.33421 -4.56549,-4.00263zM276.64833,295.12588c-1.05624,0.41694 -2.80739,0.86862 -5.25345,1.35506c-2.43214,0.48643 -4.1555,1.04235 -5.17006,1.66776c-1.01455,0.62541 -1.52183,1.53573 -1.52183,2.73097c0,1.02845 0.40305,1.93183 1.20913,2.71011c0.80609,0.77828 1.94573,1.16743 3.41891,1.16743c1.57048,0 3.02282,-0.42389 4.35703,-1.27166c1.34811,-0.86167 2.17504,-1.88318 2.4808,-3.06451c0.31966,-1.18134 0.47949,-2.94639 0.47949,-5.29514zM294.4569,270.23454c0.91727,0 1.71641,0.34744 2.39741,1.04235c0.68101,0.6949 1.02151,1.50099 1.02151,2.41825c0,0.95896 -0.3405,1.78589 -1.0215,2.4808c-0.68099,0.68099 -1.48013,1.02151 -2.3974,1.02151c-0.95896,0 -1.78589,-0.3405 -2.48079,-1.0215c-0.68099,-0.69491 -1.0215,-1.52183 -1.0215,-2.48079c0,-0.93117 0.3405,-1.73726 1.02151,-2.41825c0.69491,-0.69491 1.52184,-1.04235 2.4808,-1.04235zM297.98006,286.30759v17.24049c0,1.69555 -0.08339,2.85605 -0.25016,3.48146c-0.15287,0.62541 -0.54897,1.18134 -1.18827,1.66776c-0.6393,0.48643 -1.33421,0.72965 -2.0847,0.72965c-0.76438,0 -1.48013,-0.23626 -2.14724,-0.7088c-0.6532,-0.48643 -1.06319,-1.0493 -1.22997,-1.6886c-0.15289,-0.63931 -0.22931,-1.79979 -0.22931,-3.48145v-17.17794c0,-1.58437 0.06255,-2.70316 0.18763,-3.35636c0.12508,-0.65322 0.50033,-1.22997 1.12574,-1.7303c0.63931,-0.51423 1.3759,-0.77133 2.20978,-0.77133c0.84778,0 1.57742,0.22932 2.18894,0.68796c0.61152,0.45863 1.00066,1.04235 1.16743,1.75115c0.16678,0.6949 0.25016,1.8137 0.25016,3.35638zM330.4128,291.87375v11.67433c0,1.50099 -0.06253,2.59893 -0.18762,3.29383c-0.11118,0.68101 -0.47947,1.28556 -1.10489,1.8137c-0.62541,0.51423 -1.36895,0.77135 -2.23062,0.77135c-0.76438,0 -1.48013,-0.22931 -2.14724,-0.68794c-0.6532,-0.45863 -1.05624,-1.05625 -1.20913,-1.79284c-0.15287,-0.73659 -0.22931,-1.86928 -0.22931,-3.39806v-10.25673c0,-2.8491 -0.43083,-4.76702 -1.29252,-5.75378c-0.84777,-0.98677 -2.0152,-1.48013 -3.5023,-1.48013c-1.362,0 -2.55723,0.38914 -3.58569,1.16743c-1.01455,0.77828 -1.7303,1.7581 -2.14724,2.93944c-0.41694,1.16743 -0.62541,3.1757 -0.62541,6.0248v7.359c0,1.48708 -0.05558,2.57113 -0.16678,3.25213c-0.11118,0.68101 -0.49338,1.29252 -1.14658,1.83454c-0.6393,0.52812 -1.3759,0.79219 -2.20978,0.79219c-0.77828,0 -1.50099,-0.23626 -2.16809,-0.7088c-0.6532,-0.48643 -1.0493,-1.08404 -1.18827,-1.79284c-0.13897,-0.7088 -0.20847,-1.83454 -0.20847,-3.37722v-17.55319c0,-1.57048 0.0695,-2.66842 0.20847,-3.29383c0.15289,-0.62541 0.52813,-1.14658 1.12574,-1.56352c0.59762,-0.41694 1.27167,-0.62541 2.02217,-0.62541c0.69491,0 1.4176,0.27102 2.16809,0.81304c0.7644,0.54202 1.14659,1.86928 1.14659,3.98179c2.37656,-3.19655 5.43413,-4.79481 9.17269,-4.79481c1.4176,0 2.82131,0.27102 4.2111,0.81304c1.38981,0.52812 2.5225,1.39676 3.39807,2.60588c0.88948,1.20913 1.42455,2.45995 1.60523,3.75246c0.19458,1.29252 0.29186,2.68927 0.29186,4.19026z" stroke="none" stroke-width="1"/></g></g></g></svg>