<svg version="1.1" xmlns="http://www.w3.org/2000/svg" xmlns:xlink="http://www.w3.org/1999/xlink" width="307" height="307" viewBox="0,0,307,307"><defs><linearGradient x1="192.03038" y1="201.00621" x2="192.03038" y2="246.19071" gradientUnits="userSpaceOnUse" id="color-1"><stop offset="0" stop-color="#8ec4d0"/><stop offset="1" stop-color="#406077"/></linearGradient><linearGradient x1="192.03039" y1="201.00621" x2="192.03039" y2="246.19071" gradientUnits="userSpaceOnUse" id="color-2"><stop offset="0" stop-color="#8ec4d0"/><stop offset="1" stop-color="#406077"/></linearGradient><linearGradient x1="265.66345" y1="205.64383" x2="267.16425" y2="250.8034" gradientUnits="userSpaceOnUse" id="color-3"><stop offset="0" stop-color="#8ec4d0"/><stop offset="1" stop-color="#406077"/></linearGradient></defs><g transform="translate(-86.5,-47.19449)"><g data-paper-data="{&quot;isPaintingLayer&quot;:true}" fill-rule="nonzero" stroke-linecap="butt" stroke-linejoin="miter" stroke-miterlimit="10" stroke-dasharray="" stroke-dashoffset="0" style="mix-blend-mode: normal"><path d="M89,200.69449c0,-83.39499 67.60501,-151 151,-151c83.39499,0 151,67.60501 151,151c0,83.39499 -67.60501,151 -151,151c-83.39499,0 -151,-67.60501 -151,-151z" fill="#c1ffb2" stroke="none" stroke-width="0"/><path d="M92,174.69447c0,0 12.39294,60.43765 55.98474,110.83318c42.25722,48.85264 69.10277,62.95198 69.10277,62.95198c0,0 -18.64049,-2.35942 -26.09179,-4.91461c-24.90904,-8.54177 -46.87791,-23.41437 -63.98602,-42.69722c-14.83039,-16.7156 -26.00815,-36.74528 -32.28219,-58.83796c-1.63816,-5.76842 -4.36357,-19.45418 -4.66195,-32.99194c-0.38115,-17.29247 1.93445,-34.34344 1.93445,-34.34344z" fill="#a9ef51" stroke="none" stroke-width="0"/><path d="M112.3922,119.92886c0,0 2.9874,-4.57182 4.5701,-6.79188c13.23093,-18.559 30.55615,-33.99744 50.65712,-44.99678c2.3231,-1.27121 7.07849,-3.63372 7.07849,-3.63372c0,0 1.41646,83.64612 14.97423,159.73551c11.85622,66.5399 36.29102,126.83034 33.75137,126.55303c-75.59605,-8.25439 -111.0313,-230.86617 -111.0313,-230.86617z" fill="#abee53" stroke="none" stroke-width="0"/><path d="M238.48285,50.28824c0,0 21.1116,0.63494 24.12507,1.08736c16.14936,2.42458 31.46169,7.40663 45.51148,14.52063c2.27146,1.15014 6.71357,3.61578 6.71357,3.61578c0,0 -23.12187,74.19765 -34.5305,138.53809c-8.04369,45.36344 -16.83565,141.83179 -16.83565,141.83179c0,0 -6.49388,0.9056 -9.78826,1.2014c-4.50542,0.40454 -6.06786,0.61119 -10.67857,0.61119c-3.46676,0 -6.31471,0.65324 -6.31471,0.65324c0,0 -8.80023,-107.69193 -5.65681,-186.3893c1.70155,-42.59948 7.45437,-115.6702 7.45437,-115.6702z" fill="#abee53" stroke="none" stroke-width="0"/><path d="M355.7369,104.68173c0,0 8.27066,9.75729 10.25283,12.75062c10.85586,16.39376 18.59764,35.0296 22.38197,55.06412c1.09108,5.77628 -0.3717,0.19801 -0.3717,0.19801c0,0 -22.85239,37.94419 -36.39089,64.02344c-16.5176,31.81789 -32.99932,92.0441 -34.83156,93.40104c-8.77132,6.49599 -5.27122,4.06418 -15.35463,8.55953c-1.94452,0.86689 -8.8976,2.47996 -8.8976,2.47996c0,0 -2.21784,-41.30569 21.44111,-125.21136c14.53188,-51.53681 41.77049,-111.26534 41.77049,-111.26534z" fill="#abee53" stroke="none" stroke-width="0"/><path d="M389.99999,212.69449c0,0 0.85107,-4.20631 0.55856,-0.36701c-3.96206,52.00368 -34.26586,96.64238 -77.59701,120.60173c-12.60939,6.97218 11.67262,-36.05746 37.44993,-72.31919c18.43477,-25.93276 39.58852,-47.91553 39.58852,-47.91553z" fill="#abee53" stroke="none" stroke-width="0"/><g><path d="M94.74072,240.27964c0,0 12.20883,-24.29424 16.27059,-30.01764c2.69634,-3.7994 7.72941,-3.14902 7.72941,-3.14902l-8.33333,57.5c0,0 -4.74492,-7.1173 -6.90324,-11.22839c-0.73418,-1.39844 -2.47421,0.54146 -3.61983,-1.19435c-2.70385,-4.09678 -5.1436,-11.9106 -5.1436,-11.9106z" fill="#fb7c00" stroke="none" stroke-width="0"/><path d="M118.74072,207.11298l-8.7977,57.5c0,0 -9.98197,-4.28397 -11.92723,-10.72839c-2.60444,-4.69899 20.72493,-46.77161 20.72493,-46.77161z" fill="#b43f15" stroke="none" stroke-width="0"/><path d="M93.74071,239.61298c0,0 13.20883,-23.62758 17.27059,-29.35098c2.69634,-3.7994 7.72941,-3.14902 7.72941,-3.14902l-8.33333,57.5c0,0 -8.41159,-4.1173 -10.56991,-8.22839c-2.46697,-4.69899 -6.09676,-16.77161 -6.09676,-16.77161z" fill="none" stroke="#390400" stroke-width="4"/><path d="M223.82869,230.28833c4.55511,29.83142 5.8412,64.94873 6.1806,86.09714c-0.45147,13.66989 -1.30376,17.8487 -16.58181,22.49608c-6.7056,2.03975 -14.04712,3.49515 -23.30456,4.53807c-13.05168,1.47037 -36.17868,-20.79594 -55.41768,-35.61229c-11.83885,-9.11734 -16.20547,-17.64227 -21.84621,-26.00746c-3.74644,-5.55595 -11.40816,-9.9237 -10.03188,-18.40198c4.73232,-29.15252 13.97997,-58.81135 29.8359,-75.60658c9.45545,-10.01559 18.94565,-14.0962 26.63617,-16.81875c46.5164,-16.46745 63.59964,53.22636 64.52946,59.31576z" fill="#b43f15" stroke="none" stroke-width="0"/><path d="M223.82869,230.28833c2.89747,18.97553 4.47225,40.0898 5.32205,58.38719c0.28104,6.05126 -14.15344,64.42128 -89.91324,17.87998c-40.37859,-25.64864 -20.87755,-97.19295 -18.81144,-101.12172c3.55169,-6.75362 7.61339,-12.74494 12.237,-17.64246c9.45545,-10.01559 18.94565,-14.0962 26.63617,-16.81875c46.5164,-16.46745 63.59964,53.22636 64.52946,59.31576z" fill="#fb7c00" stroke="none" stroke-width="0"/><path d="M180.16668,205.72896c3.47699,0.14002 18.6285,0.12358 30.06883,2.69361c2.17819,0.48932 7.14979,1.72421 8.73516,7.53459c1.89755,6.9545 4.67065,18.31873 3.54939,26.17956c-0.82669,5.7957 -8.09852,8.12431 -9.83456,8.17989c-6.79676,0.2176 -14.98417,0.41235 -22.51882,0.41235c-8.10129,0 -12.0602,0.65678 -19.5,-1c-3.41209,-0.75985 -7.84728,-1.68722 -11.37921,-4.68233c-6.50923,-5.5199 -2.55284,-22.23411 -1.7192,-25.84042c0.16357,-0.70758 0.97934,-7.03108 5.63486,-10.42727c4.1787,-3.04834 11.93676,-3.25241 16.96354,-3.04998z" fill="#8ec4d0" stroke="#b33f18" stroke-width="6"/><path d="M183.00001,201.0623c3.47699,0.14002 18.6285,0.12358 30.06883,2.69361c2.17819,0.48932 7.14979,1.72421 8.73516,7.53459c1.89755,6.9545 4.67065,18.31873 3.54939,26.17956c-0.82669,5.7957 -8.09852,8.12431 -9.83456,8.17989c-6.79676,0.2176 -14.98417,0.41235 -22.51882,0.41235c-8.10129,0 -12.0602,0.65678 -19.5,-1c-3.41209,-0.75985 -7.84728,-1.68722 -11.37921,-4.68233c-6.50923,-5.5199 -2.55284,-22.23411 -1.7192,-25.84042c0.16357,-0.70758 0.97934,-7.03108 5.63486,-10.42727c4.1787,-3.04834 11.93676,-3.25241 16.96354,-3.04998z" fill="#8ec4d0" stroke="#061b0f" stroke-width="6"/><path d="M223.82869,230.28833c4.55511,29.83142 5.8412,64.94873 6.1806,86.09714c-0.45147,13.66989 -1.30376,17.8487 -16.58181,22.49608c-6.09313,1.85345 -13.537,3.22442 -21.79141,4.24185c-1.48737,0.18333 -6.0419,-2.37124 -6.0419,-2.37124c0,0 -15.82208,-7.93069 -23.71538,-12.78899c-8.21562,-5.05669 -24.65008,-16.97979 -24.65008,-16.97979c0,0 -12.4222,-14.75335 -18.06382,-22.13491c-4.97239,-6.50593 -14.03239,-19.86016 -14.03239,-19.86016c0,0 -2.24646,-4.80902 -2.03988,-6.12263c4.6582,-29.62083 13.44831,-57.99717 29.57044,-75.07437c9.45545,-10.01559 18.94565,-14.0962 26.63617,-16.81875c46.5164,-16.46745 63.59964,53.22636 64.52946,59.31576z" fill="none" stroke="#390400" stroke-width="4"/><path d="M183.00001,201.06227c3.47699,0.14002 18.6285,0.12358 30.06883,2.69361c2.17819,0.48932 7.14979,1.72421 8.73516,7.53459c1.89755,6.9545 4.67065,18.31873 3.54939,26.17956c-0.82669,5.7957 -8.09852,8.12431 -9.83456,8.17989c-6.79676,0.2176 -14.98417,0.41235 -22.51882,0.41235c-8.10129,0 -12.0602,0.65678 -19.5,-1c-3.41209,-0.75985 -7.84728,-1.68722 -11.37921,-4.68233c-6.50923,-5.5199 -2.55284,-22.23411 -1.7192,-25.84042c0.16357,-0.70758 0.97934,-7.03108 5.63486,-10.42727c4.1787,-3.04834 11.93676,-3.25241 16.96354,-3.04998z" fill="url(#color-1)" stroke="none" stroke-width="0"/><path d="M183.17228,201.05857c3.21815,0.13072 17.24169,0.11537 27.83034,2.51476c2.01603,0.45684 6.61752,1.60973 8.08487,7.03434c1.75629,6.49276 4.32294,17.10247 3.28515,24.44139c-0.76515,5.4109 -7.49562,7.5849 -9.10243,7.63679c-6.29077,0.20316 -13.86866,0.38497 -20.84239,0.38497c-7.49818,0 -11.16237,0.61317 -18.04831,-0.93361c-3.15808,-0.7094 -7.26309,-1.57519 -10.53208,-4.37144c-6.02465,-5.15341 -2.3628,-20.75789 -1.59121,-24.12476c0.15139,-0.6606 0.90643,-6.56426 5.21537,-9.73496c3.86761,-2.84595 11.04812,-3.03647 15.70068,-2.84748z" fill="#8ec4d0" stroke="none" stroke-width="0"/><path d="M223.3534,227.97002c-0.2553,1.78985 -1.3979,6.51952 -9.30009,9.15478c-4.63378,1.54529 -11.59188,2.04233 -22.05835,1.67768c-4.30543,-0.15 -8.07093,0.54316 -11.36029,0.11876c-18.79021,-2.42435 -22.04345,-9.68483 -21.65402,-12.45898c0.13957,-0.99427 3.06682,-6.51013 13.51835,-9.50081c4.48467,-1.28328 10.35472,-1.69368 17.98435,-1.75348c10.505,-0.08235 17.80899,0.1085 22.81581,1.83835c8.55284,2.95498 10.40241,8.48281 10.05424,10.92371z" fill="url(#color-2)" stroke="none" stroke-width="0"/><path d="M193.17536,340.15406c-0.60634,2.42536 -3.0317,1.81902 -3.0317,1.81902l-2.32214,-0.60416c-2.84658,-1.48747 -3.72709,1.08202 -7.23886,0.0881c-2.37173,-0.67126 -6.04903,-3.85822 -7.68916,-5.73494c-0.57016,-0.6524 -0.62474,-1.68665 -1.26443,-2.27103c-0.49282,-0.45021 -1.29117,-0.35634 -1.90321,-0.62271c-2.67552,-1.16442 -5.65734,-2.68441 -8.20067,-4.10119c-4.90719,-2.73358 -8.67067,-6.91723 -13.15141,-10.09231c-1.80284,-1.2775 -4.02511,-1.83368 -5.96348,-2.89433c-2.05816,-4.55962 -4.96744,-6.67622 -9.07848,-9.63395c-2.40914,-1.73328 -5.76577,-2.05493 -7.60992,-4.59704c-0.66917,-0.92244 -0.59236,-2.22432 -1.1429,-3.22212c-0.40465,-0.73338 -1.23211,-1.16341 -1.67059,-1.87708c-0.85748,-1.39564 -1.28076,-3.03599 -2.18651,-4.4008c-1.44312,-2.17454 -2.50437,-1.95001 -4.23966,-3.69401c-1.49144,-1.49892 -2.82078,-3.18612 -3.89225,-5.00906c-0.92624,-1.57586 -0.89738,-3.56024 -1.62225,-5.23828c-0.58788,-1.36092 -1.82825,-2.33445 -2.71773,-3.52042c0,0 -1.5,-2 0.5,-3.5c2,-1.5 3.5,0.5 3.5,0.5c0.3766,0.50213 3.13179,4.14756 3.28227,4.47958c0.68207,1.505 0.51009,3.35552 1.37775,4.76172c2.10742,3.41546 5.64107,5.08258 7.86809,8.29693c0.9655,1.39354 1.39614,3.10023 2.28563,4.54347c0.50068,0.81239 1.3989,1.34165 1.85727,2.17865c0.46545,0.84993 0.37289,1.9385 0.8571,2.77788c0.78274,1.35687 5.16652,2.53626 6.39008,3.40296c3.95246,2.79969 8.37346,5.60195 9.92152,10.36605c0.40315,0.16835 5.02502,2.0977 5.03652,2.10567c4.41854,3.06327 8.0449,7.24716 12.84859,9.90769c2.47148,1.36884 5.22485,2.68585 7.79933,3.89881c1.022,0.48151 2.23588,0.64574 3.09679,1.37729c0.8215,0.69806 1.02519,1.91809 1.73557,2.72897c1.11252,1.26992 3.6721,3.70818 5.31084,4.26506c1.30361,0.44299 3.49354,-1.10824 4.33267,-1.09071c1.20823,0.02524 2.28565,0.78587 3.42848,1.17881l1.67786,0.39584c0,0 2.42536,0.60634 1.81902,3.0317z" fill="#b43f15" stroke="none" stroke-width="0.5"/><path d="M139.2375,306.55548c-17.53784,-11.1401 -23.77957,-30.93827 -25.06003,-50.09388c1.77969,1.01762 3.58192,2.00099 5.31476,3.09334c16.5076,10.40604 32.89239,21.00593 49.38901,31.42937c8.8695,5.60422 19.21219,8.43775 28.79978,12.69844c0.70719,0.31428 10.70181,4.65994 20.18001,9.09098c-11.90085,12.6603 -35.1788,20.47103 -78.62354,-6.21825z" fill="#fb7c00" stroke="none" stroke-width="0"/></g><g><path d="M256.97754,329.06237c-0.80625,-17.872 -2.32792,-55.98113 3.81133,-86.77389c11.45621,-61.00275 43.90383,-59.2588 53.64036,-56.53917c15.9746,4.46204 29.85796,21.04263 35.75385,39.60156c7.31154,23.0151 7.52528,51.48487 5.99267,73.79051c-0.14681,2.13672 -4.37971,3.44483 -6.69794,5.69562c-5.49662,5.33674 -12.70092,11.76318 -18.95949,16.78482c-17.36558,13.93348 -39.81131,23.96614 -46.31762,23.14222c-8.45073,-1.07016 -11.84697,-1.6073 -18.48462,-3.59415c-9.62744,-2.88179 -8.47733,-6.31685 -8.73856,-12.10748z" fill="#053a20" stroke="none" stroke-width="0"/><path d="M256.97754,329.06237c-0.80625,-17.872 -2.32792,-55.98113 3.81133,-86.77389c11.45621,-61.00275 43.90383,-59.2588 53.64036,-56.53917c15.9746,4.46204 29.85796,21.04263 35.75385,39.60156c7.07864,22.28197 7.50445,49.67664 6.13364,71.64054c-0.44308,7.09926 -12.74616,13.60765 -20.96552,20.67142c-10.57552,9.08867 -26.15495,17.14172 -35.67306,22.33724c-6.36912,3.47662 -8.09135,5.94983 -10.94864,5.5741c-8.05441,-1.05915 -16.75866,-2.53206 -23.01341,-4.40429c-9.62744,-2.88179 -8.47733,-6.31685 -8.73856,-12.10748z" fill="#053a20" stroke="none" stroke-width="0"/><path d="M256.39566,313.32759c-0.51544,-19.77547 -0.29225,-47.53808 4.39321,-71.03911c11.45621,-61.00275 43.90383,-59.2588 53.64036,-56.53917c15.9746,4.46204 29.85796,21.04263 35.75385,39.60156c3.13478,9.86758 -2.33024,11.97532 -1.38316,22.93256c0.25344,2.93215 -1.45948,29.69399 -7.50232,50.18806c-4.74952,16.10783 -14.12212,27.26111 -14.12212,27.26111c0,0 -30.14724,10.53811 -46.6726,8.09976c-18.70368,-2.75975 -24.05842,-18.63219 -24.10723,-20.50476z" fill="#177902" stroke="none" stroke-width="0"/><path d="M269.16765,225.47784c6.56674,-0.11061 22.4164,0.4489 27.24525,3.93374c4.36708,3.15162 4.19665,15.18678 4.18626,20.00791c-0.00542,2.52051 -2.67797,2.60442 -6.12856,3.283c-4.35607,0.85666 -10.12743,1.49243 -13.89065,1.62707c-4.597,0.16449 -12.65507,-0.65664 -16.90236,-1.14159c-1.71003,-0.19525 -2.8202,-0.85398 -2.83883,-1.70844c-0.06184,-2.83685 -0.1321,-9.38271 0.41499,-12.99639c0.41964,-2.77188 1.64534,-8.08005 3.87604,-11.00716c1.06015,-1.39111 2.74799,-1.97641 4.03786,-1.99814z" fill="#03391f" stroke="#033a21" stroke-width="6"/><path d="M357.37263,296.97513c0,0 -26.55479,-67.9362 -9.71815,-83.08582c8.74491,-7.86867 26.3325,19.42813 33.26786,31.119c1.82044,3.06871 -23.54971,51.96681 -23.54971,51.96681z" fill="#03391e" stroke="none" stroke-width="0"/><path d="M256.97754,329.06237c-0.80625,-17.872 -2.32792,-55.98113 3.81133,-86.77389c11.45621,-61.00275 43.90383,-59.2588 53.64036,-56.53917c15.9746,4.46204 29.85796,21.04263 35.75385,39.60156c6.59718,20.76644 8.33048,46.24525 7.39048,67.38469c-0.048,1.07934 -0.1646,3.20288 -0.1646,3.20288c0,0 -5.49195,6.63163 -12.69042,13.78318c-6.30401,6.26292 -11.99702,11.34951 -17.38578,15.23173c-5.23811,3.77369 -14.21226,7.41505 -21.49661,10.8936c-7.93389,3.78872 -19.94233,9.31532 -20.87717,9.19153c-7.97831,-1.05644 -13.05812,-2.0173 -19.2429,-3.8686c-9.62744,-2.88179 -8.47733,-6.31685 -8.73856,-12.10748z" fill="none" stroke="#000000" stroke-width="4"/><path d="M357.65042,295.29831c0,0 -26.83258,-66.25938 -9.99595,-81.40899c11.04034,-9.9341 35.40887,33.20498 35.40887,33.20498c0,0 -4.84007,14.80255 -12.74379,28.56161c-4.08559,7.11234 -12.66913,19.6424 -12.66913,19.6424z" fill="#053a20" stroke="#000000" stroke-width="4"/><path d="M360.64145,287.26238c-3.66135,-6.08052 -11.41525,-20.83745 -15.62513,-34.29313c-5.36667,-17.15303 -5.51822,-31.7408 2.63817,-39.07993c8.84976,-7.96301 26.75552,20.08776 33.5127,31.53271c0.53528,0.90664 -0.2361,8.24773 -2.93679,14.33869c-5.73815,12.94147 -16.67152,29.02526 -17.58894,27.50168z" fill="#177902" stroke="none" stroke-width="0"/><path d="M357.65042,295.29833c0,0 -26.83258,-66.25938 -9.99595,-81.40899c11.04034,-9.9341 35.40887,33.20498 35.40887,33.20498c0,0 -1.26437,5.39603 -4.40213,12.70047c-2.05922,4.79369 -4.20994,11.40933 -7.34166,16.86114c-4.08559,7.11234 -13.66913,18.6424 -13.66913,18.6424z" fill="none" stroke="#000000" stroke-width="4"/><path d="M265.03195,207.60557c6.89682,-0.08106 23.55214,0.86066 28.66236,5.70866c4.62155,4.38442 4.57293,20.94478 4.61426,27.57928c0.02161,3.46855 -2.78485,3.55506 -6.40216,4.4515c-4.56654,1.13168 -10.62217,1.94407 -14.57378,2.08858c-4.82713,0.17654 -13.30062,-1.04077 -17.76744,-1.75416c-1.79841,-0.28722 -2.97173,-1.20576 -3.00056,-2.38184c-0.0957,-3.90461 -0.24044,-12.91346 0.29509,-17.88051c0.41078,-3.80997 1.64079,-11.10153 3.9523,-15.10552c1.09855,-1.9029 2.8652,-2.69006 4.21991,-2.70599z" fill="#9966ff" stroke="#000000" stroke-width="6"/><path d="M265.03195,207.60557c6.89681,-0.08105 23.55215,0.86066 28.66236,5.70867c4.62155,4.38442 4.57292,20.94477 4.61426,27.57927c0.02161,3.46855 -2.78485,3.55505 -6.40216,4.4515c-4.56654,1.13168 -10.62217,1.94407 -14.57378,2.08858c-4.82714,0.17653 -13.30062,-1.04078 -17.76744,-1.75416c-1.79841,-0.28722 -2.97173,-1.20576 -3.00055,-2.38184c-0.0957,-3.9046 -0.24044,-12.91346 0.29509,-17.88052c0.41078,-3.80997 1.64079,-11.10153 3.9523,-15.10552c1.09855,-1.9029 2.86521,-2.69006 4.21992,-2.70598z" fill="#8ec4ce" stroke="none" stroke-width="NaN"/><path d="M297.86479,231.55238c-0.19571,1.79734 -1.18058,6.56235 -8.99088,9.45863c-2.58893,0.96005 -11.42231,2.20959 -19.68948,1.85068c-6.35767,-0.27601 -12.70444,-2.09318 -12.70444,-2.09318c0,0 -0.07449,-6.34773 0.17359,-11.96522c0.20825,-4.71554 0.98735,-7.63753 0.938,-8.2877c0.04979,-0.0027 6.48257,-0.60529 6.99741,-0.62644c10.49647,-0.43123 17.80277,-0.48308 22.86428,1.07951c8.64627,2.66927 10.67843,8.13261 10.41152,10.58373z" fill="url(#color-3)" stroke="none" stroke-width="0"/></g><path d="M89,200.69449c0,-83.39499 67.60501,-151 151,-151c71.35052,0 131.14268,49.48724 146.92556,116.01077c2.66426,11.22965 4.07444,22.94475 4.07444,34.98923c0,83.39499 -67.60501,151 -151,151c-83.39499,0 -151,-67.60501 -151,-151z" fill="none" stroke="#417705" stroke-width="5"/></g></g></svg>