<svg version="1.1" xmlns="http://www.w3.org/2000/svg" xmlns:xlink="http://www.w3.org/1999/xlink" width="122.52493" height="165.67768" viewBox="0,0,122.52493,165.67768"><defs><linearGradient x1="238.30511" y1="184.3753" x2="238.30511" y2="266.09773" gradientUnits="userSpaceOnUse" id="color-1"><stop offset="0" stop-color="#c500e4"/><stop offset="1" stop-color="#7e8fff"/></linearGradient><linearGradient x1="283.07111" y1="94.80311" x2="283.07111" y2="125.48245" gradientUnits="userSpaceOnUse" id="color-2"><stop offset="0" stop-color="#ffb773"/><stop offset="1" stop-color="#ffab94"/></linearGradient><linearGradient x1="176.68643" y1="176.44925" x2="253.27263" y2="176.44925" gradientUnits="userSpaceOnUse" id="color-3"><stop offset="0" stop-color="#6b66ff"/><stop offset="1" stop-color="#fc5eff"/></linearGradient><linearGradient x1="177.48609" y1="138.14987" x2="301.95092" y2="138.14987" gradientUnits="userSpaceOnUse" id="color-4"><stop offset="0" stop-color="#c2bfff"/><stop offset="1" stop-color="#ffbfc8"/></linearGradient><linearGradient x1="178.73752" y1="176.44916" x2="253.27267" y2="176.44916" gradientUnits="userSpaceOnUse" id="color-5"><stop offset="0" stop-color="#c7bffb"/><stop offset="1" stop-color="#d9b2cc"/></linearGradient></defs><g transform="translate(-178.73754,-97.16116)"><g data-paper-data="{&quot;isPaintingLayer&quot;:true}" fill-rule="nonzero" stroke="none" stroke-width="0" stroke-linecap="butt" stroke-linejoin="miter" stroke-miterlimit="10" stroke-dasharray="" stroke-dashoffset="0" style="mix-blend-mode: normal"><g><path d="M223.3683,184.3753l29.7342,15.2618c0,0 0.35875,25.89799 0.44709,34.99261c0.03718,3.82896 -0.54951,9.00057 -6.76661,13.49334c-1.27472,0.86811 -7.10399,5.2838 -12.66476,9.52092c-1.7222,1.31229 -3.41867,2.60742 -4.94603,3.77475c-3.50045,2.67527 -6.10071,1.4195 -6.08587,-2.49845c0.00574,-1.50837 0.0118,-3.11434 0.01767,-4.66949c0.05142,-13.58674 0.26435,-69.87543 0.26435,-69.87543z" fill="url(#color-1)"/><path d="M301.04078,119.94282c-0.93776,1.20863 -2.99623,3.6265 -5.35208,4.9176c-1.25504,0.68777 -2.87005,0.09079 -4.03258,0.26474c-6.73633,1.008 -26.77643,-0.43727 -26.77643,-0.43727c0,0 13.12545,-20.60209 16.52365,-25.56656c1.39656,-2.04029 4.90915,-2.85033 6.3769,-0.64437c4.06771,6.11332 11.90661,17.89462 13.17872,19.80642c0.34506,0.51854 0.4274,1.21412 0.08174,1.6595z" fill="url(#color-2)"/><path d="M208.81859,147.47899l36.99726,19.0538c0,0 6.97821,3.05142 7.18604,10.86481c-0.12446,5.957 0.27079,32.10107 0.27079,32.10107c0,0 -0.96109,-7.38028 -8.94885,-11.87359c-12.86127,-7.34643 -41.20435,-23.15552 -56.96025,-32.34805c-6.91632,-4.03525 -9.3947,-6.3211 -8.4237,-9.99289c0.21186,-0.80104 0.58785,-1.62557 1.11775,-2.48746c0.17717,-0.28811 0.86043,-0.29099 1.00869,-0.5318c2.56136,-4.16026 4.21143,-0.26011 4.89019,-1.37559c0.68824,-1.13114 3.69897,-1.13294 3.69897,-1.13294c0,0 -0.02723,-5.6528 2.35486,-6.06743c9.04385,-1.57432 16.80817,3.79011 16.80817,3.79011z" fill="url(#color-3)"/><path d="M184.701,145.39685c3.76561,-5.98779 7.52805,-11.60979 7.60195,-11.70702c5.85522,-9.26943 8.52998,-9.90153 15.45334,-10.13981c8.75925,0.08964 66.94786,-0.12129 85.80537,-0.10237c2.5991,-0.05425 4.02787,-0.78645 5.01782,-1.37837c0.67924,-0.40614 1.59752,-1.39228 2.25536,-2.09858c0.41939,-0.45031 0.48736,-0.34871 -0.00558,0.41879c-3.09422,4.81793 -14.55847,22.61369 -17.55662,26.48446c-2.24142,2.89378 -5.53357,7.18681 -13.55157,7.0943c-14.83251,-0.17116 -68.71295,-1.02371 -85.02072,-1.27429c-2.85878,-0.04391 -4.50481,-0.06934 -4.50481,-0.06934c0,0 1.82401,-2.96407 4.50546,-7.22786z" fill="url(#color-4)"/><path d="M178.76077,156.27993c0,0 0.05683,-0.46064 0.10675,-0.69365c0.06292,-0.29386 0.14838,-0.59077 0.25599,-0.89127c0.22027,-0.61538 0.53312,-1.24612 0.93411,-1.89825c0.17717,-0.28811 0.33924,-0.5516 0.48749,-0.79237c2.56136,-4.16026 0.99733,-1.56317 1.6761,-2.67861c0.68824,-1.13114 1.17981,-1.91472 1.17981,-1.91472c0,0 4.67211,-2.48142 7.47063,-3.41502c0.43234,-0.14423 0.81991,-0.25153 1.13868,-0.30698c3.61667,-0.62957 7.02873,-0.14946 9.82138,0.65342c-0.16726,2.14883 -13.4757,8.36327 -13.4757,8.36327c0,0 -3.89265,-0.44294 -6.64275,0.86884c-2.51269,1.35191 -2.95253,2.70538 -2.95253,2.70538z" fill="url(#color-5)"/></g></g></g></svg>