<svg version="1.1" xmlns="http://www.w3.org/2000/svg" xmlns:xlink="http://www.w3.org/1999/xlink" width="372.37237" height="304.30025" viewBox="0,0,372.37237,304.30025"><g transform="translate(-73.33333,-32.84987)"><g data-paper-data="{&quot;isPaintingLayer&quot;:true}" fill-rule="nonzero" stroke-linecap="butt" stroke-linejoin="miter" stroke-miterlimit="10" stroke-dasharray="" stroke-dashoffset="0" style="mix-blend-mode: normal"><path d="M94.84985,275.23517c0,-59.99896 0,-148.11906 0,-181.81815c0,-26.16557 22.73163,-58.56714 54.69562,-58.56714c60.91162,0 155.35022,0 189.899,0c25.1397,0 55.70568,31.10369 55.70568,56.54696c0,34.37139 0,127.20919 0,187.87876c0,32.57375 -30.56593,55.87453 -55.70568,55.87453c-33.79375,0 -124.88841,0 -185.85858,0c-34.07175,0 -58.73599,-25.26921 -58.73599,-59.91496z" fill="#83a08b" stroke="#83a08b" stroke-width="4"/><g><path d="M180.29234,230.12747c0,0 3.5274,-22.03482 -2.7034,-47.86024c-8.86327,-36.73637 -8.45839,-63.70854 0.98765,-79.74227c10.23403,-17.37125 41.79828,-15.76268 70.72825,23.37886c3.73373,5.05164 -3.60576,-3.69987 -10.29597,-14.60141c-5.43716,-8.85973 -10.44547,-19.13955 -8.7325,-24.58429c4.94272,-15.71074 44.45441,-2.15348 47.34014,1.85118c8.52781,11.83452 11.36252,43.52655 17.63773,64.51936c4.43819,14.8473 21.65549,33.45137 21.65549,33.45137z" fill="#6d4b39" stroke="none" stroke-width="15"/><path d="M187.03385,98.62161c10.23403,-17.37125 33.34101,-11.85931 62.27099,27.28221c3.73372,5.05163 -3.60576,-3.69987 -10.29597,-14.60142c-5.43716,-8.85973 -10.44547,-19.13956 -8.73251,-24.58429c4.94271,-15.71074 44.45442,-2.15349 47.34014,1.85118c8.52781,11.83452 11.36251,43.52655 17.63772,64.51935c4.43819,14.84731 21.65548,33.45138 21.65548,33.45138c0,0 -88.74653,19.54184 -90.03816,19.93772c-9.27767,2.84367 -24.70597,-12.41383 -32.71541,-32.95867c-10.9705,-28.14021 -12.58214,-65.62989 -7.12228,-74.89746z" fill="#b0957a" stroke="none" stroke-width="15"/><path d="M252.50436,142.30202c0,0 -10.33713,-7.56302 -8.07202,-8.77741c0.44693,-0.23962 3.64949,1.04739 4.83487,-0.43433c1.29139,-1.61422 0.48956,-3.08557 -0.58582,-4.39059c-0.78842,-0.95679 -2.92076,-4.13144 -3.68414,-5.47804c-2.01215,-3.54944 -5.20136,-9.23818 -6.14353,-12.83711c-3.1415,-12 -1.57245,-20.77778 -1.57245,-20.77778h21.72866v52.04472z" fill="#b0957a" stroke="none" stroke-width="15"/><path d="M263.63162,178.6717c-2.43745,-0.35588 -5.90985,-0.9148 -7.91727,-1.46986c-4.23426,-1.17079 -7.15258,-2.78587 -8.82952,-3.90931c-1.1566,-0.77484 -0.99229,-1.7533 0.09721,-2.36937c1.90049,-1.07465 4.89377,-2.6927 7.0094,-3.47991c2.63816,-0.98164 7.84113,-2.26111 10.50098,-2.89006c1.00761,-0.23826 1.80365,-1.29818 2.01664,-2.64945c0.41144,-2.61041 1.0453,-6.84888 1.22541,-9.26387c0.14745,-1.97715 0.11414,-4.96899 0.0624,-7.08148c-0.03567,-1.45628 0.64048,-2.05336 1.73187,-1.27801c2.23342,1.58667 6.01971,4.5722 8.36144,8.03723c1.97788,2.92665 2.88433,5.26608 3.29974,6.78979c0.3473,1.27391 1.15877,1.61167 2.3669,1.09937c2.41673,-1.02479 6.437,-2.63508 8.80547,-3.07267c3.44666,-0.63679 8.83061,1.77771 7.06396,4.00396c-2.70266,3.40574 -6.36784,8.0244 -7.61535,9.59644c-0.83526,1.05255 -1.42372,3.00591 -0.94052,4.15665c0.93071,2.21646 2.40588,5.77922 3.07003,7.65158c0.80866,2.27976 1.69726,6.16042 1.69726,6.16042c0,0 -10.26289,-1.96274 -12.89201,-2.46555c-1.1587,-0.22159 -3.20116,0.36618 -3.88755,1.19827c-1.05479,1.27867 -4.26235,5.16704 -7.05404,8.55126c-2.49328,3.02246 -4.66652,3.29845 -4.69691,0.50402c-0.02739,-2.51844 -0.06997,-5.40246 -0.13289,-7.2654c-0.06606,-1.95594 -0.23696,-4.83462 -0.37752,-7.03125c-0.11523,-1.80064 -1.36441,-3.28909 -2.96508,-3.52281z" fill="#ffd251" stroke="#000000" stroke-width="7.5"/><path d="M180.91337,224.31992c0.62815,-8.21629 0.9751,-24.23202 -3.32445,-42.05268c-8.86327,-36.73637 -8.45839,-63.70854 0.98765,-79.74225c10.23403,-17.37125 40.82244,-15.76266 69.75243,23.37886c6.76814,9.15711 -21.87332,-27.04144 -18.05264,-39.18572c4.94272,-15.71074 38.59938,-7.35796 47.34014,1.85117c15.68395,15.08732 11.36252,43.52655 17.63773,64.51936c3.02816,10.13026 12.00535,22.00939 17.40388,28.53498c2.51376,3.03858 1.8351,5.71334 -2.1973,7.04044c-14.33298,4.71707 -72.60594,12.82576 -95.42256,24.60879c-17.43142,9.00197 -20.54596,12.49485 -26.46934,14.31492c-5.06626,1.55672 -7.9377,0.42275 -7.65555,-3.26785z" fill="none" stroke="#000000" stroke-width="15"/><path d="M370.56234,233.02442c-16.70065,14.76381 -47.74338,29.61445 -99.06213,42.27101c-8.22198,2.02775 -16.96442,3.99918 -26.25171,5.90493c-17.07245,3.50324 -74.55161,12.00547 -107.41253,-0.22696c-25.25454,-9.40095 -33.17239,-50.92492 -14.10055,-59.80468c16.76473,-7.80559 21.01175,4.73002 67.47672,3.45862c80.48564,-6.96259 126.85465,-52.53326 163.20218,-56.38727c23.23963,-2.46417 28.98761,17.61279 29.55039,33.36643c0.3165,8.85944 1.56482,19.00652 -13.40236,31.41793z" fill="#6c4b38" stroke="#000000" stroke-width="15"/><path d="M304.16689,223.34785c11.03105,7.77962 -37.04575,37.87953 -89.40041,37.61812c-7.78881,-0.0389 -19.57567,2.62329 -27.3733,0.6089c-2.77597,-0.71712 -23.9856,-10.19041 19.96438,-24.03822c10.40287,-3.27774 15.98417,3.01719 27.39812,1.3061c17.61958,-2.6414 57.85534,-23.64466 69.4112,-15.49493z" fill="#42241b" stroke="none" stroke-width="15"/></g><path d="M73.33333,324.58521v-256.13738h372.37237v256.13738z" fill="none" stroke="none" stroke-width="NaN"/></g></g></svg>