<svg version="1.1" viewBox="0.0 0.0 960.0 720.0" fill="none" stroke="none" stroke-linecap="square" stroke-miterlimit="10" xmlns:xlink="http://www.w3.org/1999/xlink" xmlns="http://www.w3.org/2000/svg"><clipPath id="p.0"><path d="m0 0l960.0 0l0 720.0l-960.0 0l0 -720.0z" clip-rule="nonzero"/></clipPath><g clip-path="url(#p.0)"><path fill="#000000" fill-opacity="0.0" d="m0 0l960.0 0l0 720.0l-960.0 0z" fill-rule="evenodd"/><path fill="#000000" fill-opacity="0.0" d="m155.36745 313.02362l948.1575 0l0 92.09448l-948.1575 0z" fill-rule="evenodd"/><path fill="#000000" fill-opacity="0.0" d="m166.87665 257.85828l528.34644 0l0 64.62991l-528.34644 0z" fill-rule="evenodd"/><path fill="#000000" fill-opacity="0.0" d="m155.36745 181.34383l582.36224 0l0 358.74017l-582.36224 0z" fill-rule="evenodd"/><path fill="#000000" d="m350.3587 271.3701l1.671875 -7.921875q0.34375 -1.5625 1.59375 -1.5625q0.4375 0 0.71875 0.265625q0.28125 0.265625 0.28125 0.625q0 0.359375 -0.1875 1.234375l-1.90625 8.9375q-0.203125 0.984375 -0.375 1.46875q-0.171875 0.46875 -0.625 0.875q-0.4375 0.40625 -1.171875 0.40625q-0.625 0 -0.90625 -0.296875q-0.28125 -0.3125 -0.75 -1.375l-3.4375 -7.703125l-1.53125 7.25q-0.1875 0.875 -0.34375 1.234375q-0.140625 0.34375 -0.515625 0.625q-0.375 0.265625 -0.84375 0.265625q-0.4375 0 -0.71875 -0.25q-0.28125 -0.25 -0.28125 -0.625q0 -0.390625 0.1875 -1.25l1.90625 -9.015625q0.265625 -1.25 0.453125 -1.640625q0.1875 -0.390625 0.671875 -0.703125q0.5 -0.328125 1.046875 -0.328125q0.5625 0 0.796875 0.265625q0.25 0.265625 0.75 1.359375l3.515625 7.859375zm10.861877 -5.796875q2.3125 0 3.328125 1.4375q1.03125 1.421875 0.5625 3.625q-0.484375 2.21875 -2.125 3.640625q-1.640625 1.421875 -3.859375 1.421875q-2.40625 0 -3.40625 -1.4375q-1.0 -1.453125 -0.53125 -3.625q0.46875 -2.21875 2.09375 -3.640625q1.640625 -1.421875 3.9375 -1.421875zm-1.765625 8.265625q1.140625 0 1.96875 -0.84375q0.84375 -0.859375 1.171875 -2.359375q0.3125 -1.515625 -0.171875 -2.359375q-0.46875 -0.859375 -1.609375 -0.859375q-1.109375 0 -1.953125 0.859375q-0.84375 0.859375 -1.15625 2.359375q-0.328125 1.515625 0.15625 2.359375q0.484375 0.84375 1.59375 0.84375zm18.650757 0.453125q-2.0625 1.40625 -3.765625 1.40625q-1.609375 0 -2.3125 -0.8125q-0.6875 -0.828125 -0.4375 -2.015625q0.21875 -1.015625 0.9375 -1.640625q0.71875 -0.625 1.46875 -0.859375q0.75 -0.25 2.375 -0.578125q1.640625 -0.328125 2.640625 -0.59375q0.234375 -1.125 -0.125 -1.515625q-0.359375 -0.40625 -1.25 -0.40625q-1.6875 0 -2.421875 0.953125q-0.390625 0.53125 -0.671875 0.765625q-0.265625 0.21875 -0.703125 0.21875q-0.390625 0 -0.65625 -0.25q-0.265625 -0.265625 -0.171875 -0.671875q0.203125 -0.96875 1.4375 -1.84375q1.234375 -0.875 3.484375 -0.875q2.28125 0 3.15625 0.796875q0.890625 0.78125 0.3125 3.1875l-0.53125 2.328125q-0.265625 1.078125 -0.15625 1.765625q0.109375 0.6875 0.03125 1.046875q-0.078125 0.390625 -0.5 0.703125q-0.40625 0.296875 -0.828125 0.296875q-0.765625 0 -1.3125 -1.40625zm0.609375 -3.59375q-0.609375 0.203125 -1.9375 0.46875q-1.328125 0.25 -1.9375 0.578125q-0.609375 0.328125 -0.734375 0.953125q-0.125 0.546875 0.21875 0.953125q0.34375 0.40625 1.109375 0.40625q0.828125 0 1.625 -0.453125q0.796875 -0.453125 1.09375 -1.0625q0.296875 -0.625 0.5625 -1.84375zm12.648773 0.828125q0.453125 0 0.671875 0.359375q0.234375 0.359375 0.15625 0.734375q-0.21875 1.0 -1.65625 2.046875q-1.421875 1.03125 -3.453125 1.03125q-2.453125 0 -3.40625 -1.390625q-0.953125 -1.390625 -0.484375 -3.609375q0.46875 -2.25 2.078125 -3.6875q1.609375 -1.4375 4.0 -1.4375q1.859375 0 2.859375 0.984375q1.015625 0.96875 0.8125 1.90625q-0.09375 0.453125 -0.484375 0.765625q-0.390625 0.296875 -0.84375 0.296875q-0.546875 0 -0.765625 -0.453125q-0.453125 -1.046875 -0.921875 -1.3125q-0.46875 -0.28125 -1.078125 -0.28125q-1.1875 0 -2.03125 0.921875q-0.84375 0.90625 -1.140625 2.265625q-0.296875 1.40625 0.1875 2.296875q0.5 0.875 1.625 0.875q0.640625 0 1.25 -0.296875q0.609375 -0.3125 1.140625 -0.921875q0.53125 -0.625 0.8125 -0.859375q0.296875 -0.234375 0.671875 -0.234375zm4.8518677 -5.734375l0.3125 -1.484375q0.1875 -0.921875 0.328125 -1.25q0.15625 -0.34375 0.53125 -0.59375q0.390625 -0.265625 0.828125 -0.265625q0.390625 0 0.671875 0.234375q0.28125 0.234375 0.3125 0.578125q0.03125 0.34375 -0.125 1.09375l-0.359375 1.6875l0.484375 0q0.90625 0 1.140625 0.234375q0.25 0.21875 0.171875 0.640625q-0.203125 0.921875 -1.734375 0.921875l-0.453125 0l-0.96875 4.59375q-0.203125 0.9375 -0.140625 1.28125q0.0625 0.328125 0.625 0.328125q0.28125 0 0.625 -0.078125q0.359375 -0.078125 0.53125 -0.078125q0.375 0 0.546875 0.25q0.1875 0.234375 0.125 0.578125q-0.265625 1.234375 -2.84375 1.234375q-1.25 0 -1.734375 -0.46875q-0.484375 -0.46875 -0.5 -1.125q0 -0.671875 0.21875 -1.734375l1.015625 -4.78125l-0.328125 0q-1.09375 0 -0.90625 -0.890625q0.203125 -0.90625 1.359375 -0.90625l0.265625 0zm8.260651 -3.796875q0.484375 0 0.75 0.359375q0.28125 0.359375 0.1875 0.84375q-0.109375 0.5 -0.546875 0.859375q-0.421875 0.359375 -0.90625 0.359375q-0.5 0 -0.78125 -0.359375q-0.28125 -0.359375 -0.171875 -0.859375q0.09375 -0.484375 0.53125 -0.84375q0.4375 -0.359375 0.9375 -0.359375zm0.03125 5.609375l-1.28125 6.03125q-0.1875 0.890625 -0.34375 1.21875q-0.140625 0.328125 -0.53125 0.59375q-0.390625 0.25 -0.78125 0.25q-0.40625 0 -0.703125 -0.25q-0.28125 -0.25 -0.296875 -0.59375q-0.015625 -0.34375 0.171875 -1.21875l1.265625 -6.0q0.1875 -0.828125 0.3125 -1.171875q0.140625 -0.34375 0.53125 -0.609375q0.40625 -0.28125 0.84375 -0.28125q0.4375 0 0.703125 0.25q0.265625 0.234375 0.265625 0.609375q0.015625 0.375 -0.15625 1.171875zm5.2432556 5.1875l3.421875 -5.90625q0.515625 -0.890625 0.828125 -1.09375q0.328125 -0.21875 0.6875 -0.21875q0.5 0 0.75 0.34375q0.25 0.34375 0.171875 0.703125q-0.0625 0.328125 -0.640625 1.25l-3.65625 5.921875q-0.75 1.265625 -1.1875 1.59375q-0.421875 0.3125 -0.984375 0.3125q-0.71875 0 -0.96875 -0.40625q-0.234375 -0.40625 -0.4375 -1.5l-1.140625 -5.859375q-0.171875 -0.890625 -0.09375 -1.28125q0.078125 -0.390625 0.5 -0.734375q0.421875 -0.34375 0.921875 -0.34375q0.578125 0 0.734375 0.328125q0.15625 0.3125 0.28125 1.234375l0.8125 5.65625zm13.3498535 -1.546875l-4.875 0q-0.265625 1.390625 0.3125 2.09375q0.578125 0.703125 1.59375 0.703125q1.25 0 2.578125 -1.09375q0.546875 -0.453125 0.78125 -0.5625q0.234375 -0.109375 0.5 -0.109375q0.34375 0 0.53125 0.21875q0.203125 0.203125 0.125 0.515625q-0.171875 0.828125 -1.515625 1.765625q-1.328125 0.921875 -3.296875 0.921875q-2.5 0 -3.5 -1.40625q-0.984375 -1.421875 -0.5 -3.65625q0.46875 -2.265625 2.0625 -3.65625q1.59375 -1.40625 3.890625 -1.40625q2.203125 0 3.109375 1.328125q0.90625 1.328125 0.578125 2.875q-0.140625 0.671875 -0.625 1.078125q-0.484375 0.390625 -1.75 0.390625zm-4.5625 -1.40625l4.53125 0q0.21875 -1.25 -0.296875 -1.890625q-0.5 -0.65625 -1.4375 -0.65625q-1.96875 0 -2.796875 2.546875zm21.906067 -2.5625l0.078125 -0.34375q0.140625 -0.671875 0.546875 -1.015625q0.421875 -0.34375 0.9375 -0.34375q0.5625 0 0.78125 0.40625q0.21875 0.390625 -0.0625 1.703125l-1.421875 6.671875q-0.640625 2.984375 -2.109375 4.0q-1.46875 1.03125 -3.828125 1.03125q-2.125 0 -3.15625 -0.796875q-1.03125 -0.78125 -0.84375 -1.65625q0.09375 -0.46875 0.46875 -0.765625q0.375 -0.28125 0.8125 -0.28125q0.390625 0 0.578125 0.1875q0.203125 0.1875 0.609375 0.890625q0.40625 0.703125 1.71875 0.703125q0.734375 0 1.40625 -0.234375q0.671875 -0.21875 1.09375 -0.796875q0.421875 -0.578125 0.875 -2.8125q-1.484375 1.640625 -3.46875 1.640625q-1.90625 0 -2.703125 -1.421875q-0.796875 -1.421875 -0.328125 -3.65625q0.46875 -2.203125 1.875 -3.5q1.421875 -1.3125 3.25 -1.3125q2.0 0 2.890625 1.703125zm-5.546875 3.3125q-0.296875 1.453125 0.171875 2.21875q0.46875 0.75 1.5625 0.75q0.953125 0 1.8125 -0.734375q0.859375 -0.734375 1.171875 -2.203125q0.3125 -1.453125 -0.15625 -2.296875q-0.46875 -0.84375 -1.5625 -0.84375q-1.0625 0 -1.875 0.796875q-0.796875 0.78125 -1.125 2.3125zm14.7265625 3.703125q-2.0625 1.40625 -3.765625 1.40625q-1.609375 0 -2.3125 -0.8125q-0.6875 -0.828125 -0.4375 -2.015625q0.21875 -1.015625 0.9375 -1.640625q0.71875 -0.625 1.46875 -0.859375q0.75 -0.25 2.375 -0.578125q1.640625 -0.328125 2.640625 -0.59375q0.234375 -1.125 -0.125 -1.515625q-0.359375 -0.40625 -1.25 -0.40625q-1.6875 0 -2.421875 0.953125q-0.390625 0.53125 -0.671875 0.765625q-0.265625 0.21875 -0.703125 0.21875q-0.390625 0 -0.65625 -0.25q-0.265625 -0.265625 -0.171875 -0.671875q0.203125 -0.96875 1.4375 -1.84375q1.234375 -0.875 3.484375 -0.875q2.28125 0 3.15625 0.796875q0.890625 0.78125 0.3125 3.1875l-0.53125 2.328125q-0.265625 1.078125 -0.15625 1.765625q0.109375 0.6875 0.03125 1.046875q-0.078125 0.390625 -0.5 0.703125q-0.40625 0.296875 -0.828125 0.296875q-0.765625 0 -1.3125 -1.40625zm0.609375 -3.59375q-0.609375 0.203125 -1.9375 0.46875q-1.328125 0.25 -1.9375 0.578125q-0.609375 0.328125 -0.734375 0.953125q-0.125 0.546875 0.21875 0.953125q0.34375 0.40625 1.109375 0.40625q0.828125 0 1.625 -0.453125q0.796875 -0.453125 1.09375 -1.0625q0.296875 -0.625 0.5625 -1.84375zm19.351868 -1.421875l-0.90625 4.28125q-0.1875 0.890625 -0.34375 1.25q-0.140625 0.359375 -0.53125 0.625q-0.375 0.265625 -0.8125 0.265625q-0.4375 0 -0.71875 -0.265625q-0.265625 -0.265625 -0.265625 -0.640625q0 -0.390625 0.1875 -1.234375l0.765625 -3.625q0.34375 -1.59375 0.046875 -2.0q-0.28125 -0.40625 -0.9375 -0.40625q-0.6875 0 -1.234375 0.375q-0.546875 0.375 -0.859375 0.984375q-0.296875 0.609375 -0.5625 1.90625l-0.59375 2.765625q-0.1875 0.890625 -0.34375 1.265625q-0.140625 0.359375 -0.53125 0.625q-0.390625 0.25 -0.828125 0.25q-0.578125 0 -0.828125 -0.390625q-0.25 -0.390625 0.046875 -1.75l0.71875 -3.40625q0.3125 -1.46875 0.21875 -2.046875q-0.09375 -0.578125 -1.015625 -0.578125q-0.953125 0 -1.640625 0.609375q-0.6875 0.609375 -1.109375 2.609375l-0.59375 2.8125q-0.1875 0.875 -0.3125 1.21875q-0.125 0.34375 -0.515625 0.640625q-0.390625 0.28125 -0.828125 0.28125q-0.421875 0 -0.71875 -0.25q-0.28125 -0.265625 -0.28125 -0.625q0 -0.359375 0.1875 -1.265625l1.28125 -6.015625q0.1875 -0.875 0.328125 -1.171875q0.140625 -0.3125 0.515625 -0.546875q0.375 -0.25 0.75 -0.25q1.1875 0 0.859375 1.53125q1.578125 -1.53125 3.34375 -1.53125q1.890625 0 2.40625 1.53125q1.59375 -1.53125 3.296875 -1.53125q1.296875 0 2.0625 0.734375q0.78125 0.71875 0.296875 2.96875zm8.928284 1.96875l-4.875 0q-0.265625 1.390625 0.3125 2.09375q0.578125 0.703125 1.59375 0.703125q1.25 0 2.578125 -1.09375q0.546875 -0.453125 0.78125 -0.5625q0.234375 -0.109375 0.5 -0.109375q0.34375 0 0.53125 0.21875q0.203125 0.203125 0.125 0.515625q-0.171875 0.828125 -1.515625 1.765625q-1.328125 0.921875 -3.296875 0.921875q-2.5 0 -3.5 -1.40625q-0.984375 -1.421875 -0.5 -3.65625q0.46875 -2.265625 2.0625 -3.65625q1.59375 -1.40625 3.890625 -1.40625q2.203125 0 3.109375 1.328125q0.90625 1.328125 0.578125 2.875q-0.140625 0.671875 -0.625 1.078125q-0.484375 0.390625 -1.75 0.390625zm-4.5625 -1.40625l4.53125 0q0.21875 -1.25 -0.296875 -1.890625q-0.5 -0.65625 -1.4375 -0.65625q-1.96875 0 -2.796875 2.546875zm11.258148 -1.671875q-0.09375 0.484375 0.34375 0.765625q0.4375 0.265625 2.078125 0.6875q3.21875 0.828125 2.796875 2.8125q-0.328125 1.578125 -1.65625 2.421875q-1.3125 0.84375 -3.359375 0.84375q-2.078125 0 -2.953125 -0.859375q-0.875 -0.859375 -0.671875 -1.8125q0.09375 -0.40625 0.4375 -0.703125q0.359375 -0.296875 0.796875 -0.296875q0.578125 0 0.859375 0.734375q0.328125 0.796875 0.859375 1.0625q0.53125 0.25 1.21875 0.25q0.734375 0 1.265625 -0.328125q0.546875 -0.328125 0.65625 -0.84375q0.09375 -0.46875 -0.234375 -0.796875q-0.3125 -0.34375 -2.0 -0.75q-1.6875 -0.40625 -2.34375 -1.140625q-0.65625 -0.734375 -0.4375 -1.75q0.25 -1.140625 1.421875 -2.015625q1.1875 -0.875 3.15625 -0.875q1.8125 0 2.71875 0.75q0.921875 0.734375 0.765625 1.53125q-0.09375 0.40625 -0.4375 0.703125q-0.328125 0.28125 -0.8125 0.28125q-0.71875 0 -1.125 -0.828125q-0.390625 -0.828125 -1.5625 -0.828125q-0.625 0 -1.15625 0.265625q-0.515625 0.25 -0.625 0.71875zm14.650116 -2.375l0.140625 -0.71875q0.40625 -1.90625 1.34375 -2.546875q0.9375 -0.640625 2.40625 -0.640625q2.375 0 2.140625 1.0625q-0.0625 0.328125 -0.34375 0.59375q-0.28125 0.25 -0.65625 0.25q-0.078125 0 -0.46875 -0.046875q-0.390625 -0.0625 -0.46875 -0.0625q-0.515625 0 -0.90625 0.28125q-0.375 0.265625 -0.59375 1.25l-0.109375 0.578125l0.625 0q1.40625 0 1.21875 0.875q-0.09375 0.4375 -0.421875 0.6875q-0.3125 0.234375 -1.1875 0.234375l-0.625 0l-1.28125 6.046875q-0.15625 0.703125 -0.28125 1.0625q-0.125 0.359375 -0.46875 0.6875q-0.34375 0.3125 -0.921875 0.3125q-0.59375 0 -0.84375 -0.390625q-0.25 -0.390625 0.03125 -1.671875l1.28125 -6.046875l-0.6875 0q-1.125 0 -0.921875 -0.921875q0.1875 -0.875 1.421875 -0.875l0.578125 0zm9.982208 -0.21875q2.3125 0 3.328125 1.4375q1.03125 1.421875 0.5625 3.625q-0.484375 2.21875 -2.125 3.640625q-1.640625 1.421875 -3.859375 1.421875q-2.40625 0 -3.40625 -1.4375q-1.0 -1.453125 -0.53125 -3.625q0.46875 -2.21875 2.09375 -3.640625q1.640625 -1.421875 3.9375 -1.421875zm-1.765625 8.265625q1.140625 0 1.96875 -0.84375q0.84375 -0.859375 1.171875 -2.359375q0.3125 -1.515625 -0.171875 -2.359375q-0.46875 -0.859375 -1.609375 -0.859375q-1.109375 0 -1.953125 0.859375q-0.84375 0.859375 -1.15625 2.359375q-0.328125 1.515625 0.15625 2.359375q0.484375 0.84375 1.59375 0.84375zm7.2528076 -1.84375l0.921875 -4.359375q0.1875 -0.8125 0.3125 -1.171875q0.140625 -0.359375 0.515625 -0.625q0.390625 -0.265625 0.84375 -0.265625q0.4375 0 0.71875 0.25q0.28125 0.25 0.265625 0.65625q0 0.390625 -0.171875 1.203125l-0.734375 3.421875q-0.359375 1.6875 0.0625 2.15625q0.4375 0.46875 1.0625 0.46875q0.71875 0 1.34375 -0.40625q0.625 -0.40625 0.9375 -0.96875q0.3125 -0.578125 0.671875 -2.25l0.515625 -2.46875q0.171875 -0.796875 0.328125 -1.171875q0.171875 -0.375 0.546875 -0.625q0.390625 -0.265625 0.84375 -0.265625q0.421875 0 0.703125 0.25q0.28125 0.25 0.265625 0.625q0 0.359375 -0.1875 1.1875l-1.296875 6.140625q-0.15625 0.75 -0.3125 1.09375q-0.140625 0.328125 -0.484375 0.578125q-0.328125 0.25 -0.765625 0.25q-1.203125 0 -0.796875 -1.734375q-1.609375 1.734375 -3.65625 1.734375q-1.34375 0 -2.125 -0.8125q-0.765625 -0.8125 -0.328125 -2.890625zm20.627808 -2.4375l-0.859375 4.078125q-0.171875 0.796875 -0.328125 1.15625q-0.140625 0.359375 -0.515625 0.640625q-0.375 0.265625 -0.828125 0.265625q-0.40625 0 -0.703125 -0.234375q-0.296875 -0.25 -0.296875 -0.640625q0 -0.390625 0.171875 -1.1875l0.765625 -3.578125q0.3125 -1.5 -0.03125 -2.015625q-0.328125 -0.515625 -1.109375 -0.515625q-0.703125 0 -1.328125 0.40625q-0.625 0.40625 -0.984375 1.03125q-0.34375 0.609375 -0.65625 2.09375l-0.546875 2.578125q-0.171875 0.78125 -0.3125 1.140625q-0.125 0.34375 -0.53125 0.640625q-0.390625 0.28125 -0.828125 0.28125q-0.40625 0 -0.703125 -0.25q-0.28125 -0.25 -0.28125 -0.625q0 -0.375 0.171875 -1.1875l1.296875 -6.140625q0.1875 -0.828125 0.328125 -1.15625q0.15625 -0.328125 0.515625 -0.546875q0.375 -0.21875 0.765625 -0.21875q0.359375 0 0.6875 0.296875q0.34375 0.28125 0.109375 1.390625q1.59375 -1.6875 3.5625 -1.6875q0.75 0 1.40625 0.296875q0.671875 0.28125 0.984375 0.921875q0.328125 0.625 0.28125 1.296875q-0.03125 0.671875 -0.203125 1.46875zm8.284058 4.71875l0.0625 -0.25q-1.640625 1.671875 -3.609375 1.671875q-1.90625 0 -2.734375 -1.453125q-0.8125 -1.453125 -0.3125 -3.75q0.453125 -2.15625 1.84375 -3.53125q1.40625 -1.390625 3.34375 -1.390625q1.890625 0 2.9375 1.53125l0.6875 -3.234375q0.28125 -1.328125 0.6875 -1.65625q0.40625 -0.328125 0.984375 -0.328125q0.40625 0 0.6875 0.234375q0.296875 0.21875 0.28125 0.59375q0 0.375 -0.171875 1.234375l-2.09375 9.796875q-0.171875 0.828125 -0.34375 1.1875q-0.15625 0.359375 -0.546875 0.5625q-0.375 0.203125 -0.765625 0.203125q-1.234375 0 -0.9375 -1.421875zm-4.09375 -3.703125q-0.359375 1.671875 0.171875 2.453125q0.546875 0.765625 1.453125 0.765625q1.0625 0 1.921875 -0.796875q0.859375 -0.8125 1.15625 -2.25q0.328125 -1.5 -0.15625 -2.390625q-0.484375 -0.890625 -1.59375 -0.890625q-1.015625 0 -1.84375 0.828125q-0.8125 0.828125 -1.109375 2.28125zm14.019531 -5.359375l-1.34375 4.484375q-0.296875 0.984375 -0.625 1.328125q-0.3125 0.328125 -0.6875 0.328125q-0.390625 0 -0.5625 -0.34375q-0.15625 -0.34375 -0.03125 -1.3125l0.625 -4.375q0.078125 -0.578125 0.296875 -1.609375q0.390625 -1.828125 1.78125 -1.828125q0.609375 0 0.859375 0.421875q0.25 0.40625 0.015625 1.546875q-0.203125 0.921875 -0.328125 1.359375zm-2.953125 7.734375q0.5625 0 0.875 0.40625q0.328125 0.390625 0.21875 0.953125q-0.125 0.5625 -0.625 0.984375q-0.484375 0.40625 -1.046875 0.40625q-0.5625 0 -0.890625 -0.40625q-0.3125 -0.40625 -0.1875 -0.984375q0.109375 -0.5625 0.59375 -0.953125q0.5 -0.40625 1.0625 -0.40625z" fill-rule="nonzero"/><path fill="#000000" d="m319.57382 286.5982l-1.96875 9.25q-0.171875 0.875 -0.328125 1.265625q-0.140625 0.390625 -0.578125 0.6875q-0.421875 0.296875 -0.890625 0.296875q-0.484375 0 -0.796875 -0.265625q-0.296875 -0.28125 -0.28125 -0.6875q0.015625 -0.40625 0.203125 -1.296875l1.96875 -9.25l-2.46875 0q-0.8125 0 -1.09375 -0.0625q-0.28125 -0.0625 -0.453125 -0.34375q-0.171875 -0.28125 -0.109375 -0.640625q0.0625 -0.28125 0.28125 -0.546875q0.21875 -0.265625 0.5 -0.375q0.296875 -0.125 1.328125 -0.125l7.59375 0q0.9375 0 1.1875 0.078125q0.25 0.078125 0.390625 0.359375q0.140625 0.265625 0.0625 0.609375q-0.046875 0.265625 -0.265625 0.546875q-0.21875 0.265625 -0.515625 0.390625q-0.28125 0.109375 -1.3125 0.109375l-2.453125 0zm8.980469 10.09375q-2.0625 1.40625 -3.765625 1.40625q-1.609375 0 -2.3125 -0.8125q-0.6875 -0.828125 -0.4375 -2.015625q0.21875 -1.015625 0.9375 -1.640625q0.71875 -0.625 1.46875 -0.859375q0.75 -0.25 2.375 -0.578125q1.640625 -0.328125 2.640625 -0.59375q0.234375 -1.125 -0.125 -1.515625q-0.359375 -0.40625 -1.25 -0.40625q-1.6875 0 -2.421875 0.953125q-0.390625 0.53125 -0.671875 0.765625q-0.265625 0.21875 -0.703125 0.21875q-0.390625 0 -0.65625 -0.25q-0.265625 -0.265625 -0.171875 -0.671875q0.203125 -0.96875 1.4375 -1.84375q1.234375 -0.875 3.484375 -0.875q2.28125 0 3.15625 0.796875q0.890625 0.78125 0.3125 3.1875l-0.53125 2.328125q-0.265625 1.078125 -0.15625 1.765625q0.109375 0.6875 0.03125 1.046875q-0.078125 0.390625 -0.5 0.703125q-0.40625 0.296875 -0.828125 0.296875q-0.765625 0 -1.3125 -1.40625zm0.609375 -3.59375q-0.609375 0.203125 -1.9375 0.46875q-1.328125 0.25 -1.9375 0.578125q-0.609375 0.328125 -0.734375 0.953125q-0.125 0.546875 0.21875 0.953125q0.34375 0.40625 1.109375 0.40625q0.828125 0 1.625 -0.453125q0.796875 -0.453125 1.09375 -1.0625q0.296875 -0.625 0.5625 -1.84375zm7.668274 -3.453125q1.6875 -1.671875 3.609375 -1.671875q1.90625 0 2.71875 1.453125q0.8125 1.4375 0.328125 3.71875q-0.453125 2.171875 -1.859375 3.5625q-1.390625 1.390625 -3.328125 1.390625q-1.859375 0 -2.9375 -1.5625l-0.6875 3.25q-0.28125 1.34375 -0.6875 1.671875q-0.390625 0.328125 -0.953125 0.328125q-0.6875 0 -0.875 -0.453125q-0.1875 -0.453125 0.0625 -1.625l2.078125 -9.8125q0.171875 -0.765625 0.3125 -1.125q0.15625 -0.359375 0.53125 -0.578125q0.375 -0.21875 0.828125 -0.21875q1.21875 0 0.90625 1.40625l-0.046875 0.265625zm4.171875 3.453125q0.34375 -1.640625 -0.1875 -2.421875q-0.515625 -0.796875 -1.421875 -0.796875q-1.078125 0 -1.9375 0.796875q-0.859375 0.796875 -1.171875 2.234375q-0.3125 1.515625 0.15625 2.40625q0.484375 0.875 1.625 0.875q1.0 0 1.8125 -0.828125q0.8125 -0.828125 1.125 -2.265625zm19.151855 -1.28125l-0.953125 4.53125q-0.375 1.75 -1.640625 1.75q-0.578125 0 -0.828125 -0.375q-0.234375 -0.375 -0.015625 -1.375l0.84375 -3.96875q0.296875 -1.40625 -0.046875 -1.921875q-0.328125 -0.53125 -1.140625 -0.53125q-0.703125 0 -1.3125 0.390625q-0.609375 0.390625 -0.953125 0.96875q-0.328125 0.5625 -0.640625 2.0l-0.609375 2.890625q-0.25 1.15625 -0.671875 1.546875q-0.40625 0.375 -1.0 0.375q-0.5625 0 -0.8125 -0.375q-0.25 -0.375 0 -1.515625l2.09375 -9.875q0.1875 -0.90625 0.34375 -1.25q0.171875 -0.359375 0.515625 -0.578125q0.359375 -0.21875 0.78125 -0.21875q0.484375 0 0.734375 0.25q0.265625 0.25 0.265625 0.65625q0 0.40625 -0.203125 1.34375l-0.625 2.953125q1.578125 -1.515625 3.359375 -1.515625q1.5 0 2.21875 0.9375q0.71875 0.921875 0.296875 2.90625zm9.002838 1.828125l-4.875 0q-0.265625 1.390625 0.3125 2.09375q0.578125 0.703125 1.59375 0.703125q1.25 0 2.578125 -1.09375q0.546875 -0.453125 0.78125 -0.5625q0.234375 -0.109375 0.5 -0.109375q0.34375 0 0.53125 0.21875q0.203125 0.203125 0.125 0.515625q-0.171875 0.828125 -1.515625 1.765625q-1.328125 0.921875 -3.296875 0.921875q-2.5 0 -3.5 -1.40625q-0.984375 -1.421875 -0.5 -3.65625q0.46875 -2.265625 2.0625 -3.65625q1.59375 -1.40625 3.890625 -1.40625q2.203125 0 3.109375 1.328125q0.90625 1.328125 0.578125 2.875q-0.140625 0.671875 -0.625 1.078125q-0.484375 0.390625 -1.75 0.390625zm-4.5625 -1.40625l4.53125 0q0.21875 -1.25 -0.296875 -1.890625q-0.5 -0.65625 -1.4375 -0.65625q-1.96875 0 -2.796875 2.546875zm8.195618 3.796875l1.359375 -6.375q0.359375 -1.6875 1.59375 -1.6875q1.171875 0 0.859375 1.5625q1.109375 -1.5625 2.484375 -1.5625q0.71875 0 1.390625 0.390625q0.6875 0.375 0.546875 1.03125q-0.09375 0.453125 -0.46875 0.75q-0.359375 0.296875 -0.71875 0.296875q-0.203125 0 -0.703125 -0.15625q-0.484375 -0.171875 -0.84375 -0.171875q-0.890625 0 -1.515625 0.90625q-0.625 0.90625 -1.171875 3.484375l-0.3125 1.4375q-0.203125 0.953125 -0.359375 1.28125q-0.140625 0.328125 -0.53125 0.609375q-0.375 0.265625 -0.796875 0.265625q-0.40625 0 -0.6875 -0.234375q-0.28125 -0.25 -0.296875 -0.578125q-0.015625 -0.34375 0.171875 -1.25zm15.159515 -2.390625l-4.875 0q-0.265625 1.390625 0.3125 2.09375q0.578125 0.703125 1.59375 0.703125q1.25 0 2.578125 -1.09375q0.546875 -0.453125 0.78125 -0.5625q0.234375 -0.109375 0.5 -0.109375q0.34375 0 0.53125 0.21875q0.203125 0.203125 0.125 0.515625q-0.171875 0.828125 -1.515625 1.765625q-1.328125 0.921875 -3.296875 0.921875q-2.5 0 -3.5 -1.40625q-0.984375 -1.421875 -0.5 -3.65625q0.46875 -2.265625 2.0625 -3.65625q1.59375 -1.40625 3.890625 -1.40625q2.203125 0 3.109375 1.328125q0.90625 1.328125 0.578125 2.875q-0.140625 0.671875 -0.625 1.078125q-0.484375 0.390625 -1.75 0.390625zm-4.5625 -1.40625l4.53125 0q0.21875 -1.25 -0.296875 -1.890625q-0.5 -0.65625 -1.4375 -0.65625q-1.96875 0 -2.796875 2.546875zm15.827942 -4.046875l0.3125 -1.484375q0.1875 -0.921875 0.328125 -1.25q0.15625 -0.34375 0.53125 -0.59375q0.390625 -0.265625 0.828125 -0.265625q0.390625 0 0.671875 0.234375q0.28125 0.234375 0.3125 0.578125q0.03125 0.34375 -0.125 1.09375l-0.359375 1.6875l0.484375 0q0.90625 0 1.140625 0.234375q0.25 0.21875 0.171875 0.640625q-0.203125 0.921875 -1.734375 0.921875l-0.453125 0l-0.96875 4.59375q-0.203125 0.9375 -0.140625 1.28125q0.0625 0.328125 0.625 0.328125q0.28125 0 0.625 -0.078125q0.359375 -0.078125 0.53125 -0.078125q0.375 0 0.546875 0.25q0.1875 0.234375 0.125 0.578125q-0.265625 1.234375 -2.84375 1.234375q-1.25 0 -1.734375 -0.46875q-0.484375 -0.46875 -0.5 -1.125q0 -0.671875 0.21875 -1.734375l1.015625 -4.78125l-0.328125 0q-1.09375 0 -0.90625 -0.890625q0.203125 -0.90625 1.359375 -0.90625l0.265625 0zm10.588776 -0.21875q2.3125 0 3.328125 1.4375q1.03125 1.421875 0.5625 3.625q-0.484375 2.21875 -2.125 3.640625q-1.640625 1.421875 -3.859375 1.421875q-2.40625 0 -3.40625 -1.4375q-1.0 -1.453125 -0.53125 -3.625q0.46875 -2.21875 2.09375 -3.640625q1.640625 -1.421875 3.9375 -1.421875zm-1.765625 8.265625q1.140625 0 1.96875 -0.84375q0.84375 -0.859375 1.171875 -2.359375q0.3125 -1.515625 -0.171875 -2.359375q-0.46875 -0.859375 -1.609375 -0.859375q-1.109375 0 -1.953125 0.859375q-0.84375 0.859375 -1.15625 2.359375q-0.328125 1.515625 0.15625 2.359375q0.484375 0.84375 1.59375 0.84375zm16.088287 -6.59375q1.6875 -1.671875 3.609375 -1.671875q1.90625 0 2.71875 1.453125q0.8125 1.4375 0.328125 3.71875q-0.453125 2.171875 -1.859375 3.5625q-1.390625 1.390625 -3.328125 1.390625q-1.859375 0 -2.9375 -1.5625l-0.6875 3.25q-0.28125 1.34375 -0.6875 1.671875q-0.390625 0.328125 -0.953125 0.328125q-0.6875 0 -0.875 -0.453125q-0.1875 -0.453125 0.0625 -1.625l2.078125 -9.8125q0.171875 -0.765625 0.3125 -1.125q0.15625 -0.359375 0.53125 -0.578125q0.375 -0.21875 0.828125 -0.21875q1.21875 0 0.90625 1.40625l-0.046875 0.265625zm4.171875 3.453125q0.34375 -1.640625 -0.1875 -2.421875q-0.515625 -0.796875 -1.421875 -0.796875q-1.078125 0 -1.9375 0.796875q-0.859375 0.796875 -1.171875 2.234375q-0.3125 1.515625 0.15625 2.40625q0.484375 0.875 1.625 0.875q1.0 0 1.8125 -0.828125q0.8125 -0.828125 1.125 -2.265625zm9.972656 -5.125q2.3125 0 3.328125 1.4375q1.03125 1.421875 0.5625 3.625q-0.484375 2.21875 -2.125 3.640625q-1.640625 1.421875 -3.859375 1.421875q-2.40625 0 -3.40625 -1.4375q-1.0 -1.453125 -0.53125 -3.625q0.46875 -2.21875 2.09375 -3.640625q1.640625 -1.421875 3.9375 -1.421875zm-1.765625 8.265625q1.140625 0 1.96875 -0.84375q0.84375 -0.859375 1.171875 -2.359375q0.3125 -1.515625 -0.171875 -2.359375q-0.46875 -0.859375 -1.609375 -0.859375q-1.109375 0 -1.953125 0.859375q-0.84375 0.859375 -1.15625 2.359375q-0.328125 1.515625 0.15625 2.359375q0.484375 0.84375 1.59375 0.84375zm10.018433 -5.671875q-0.09375 0.484375 0.34375 0.765625q0.4375 0.265625 2.078125 0.6875q3.21875 0.828125 2.796875 2.8125q-0.328125 1.578125 -1.65625 2.421875q-1.3125 0.84375 -3.359375 0.84375q-2.078125 0 -2.953125 -0.859375q-0.875 -0.859375 -0.671875 -1.8125q0.09375 -0.40625 0.4375 -0.703125q0.359375 -0.296875 0.796875 -0.296875q0.578125 0 0.859375 0.734375q0.328125 0.796875 0.859375 1.0625q0.53125 0.25 1.21875 0.25q0.734375 0 1.265625 -0.328125q0.546875 -0.328125 0.65625 -0.84375q0.09375 -0.46875 -0.234375 -0.796875q-0.3125 -0.34375 -2.0 -0.75q-1.6875 -0.40625 -2.34375 -1.140625q-0.65625 -0.734375 -0.4375 -1.75q0.25 -1.140625 1.421875 -2.015625q1.1875 -0.875 3.15625 -0.875q1.8125 0 2.71875 0.75q0.921875 0.734375 0.765625 1.53125q-0.09375 0.40625 -0.4375 0.703125q-0.328125 0.28125 -0.8125 0.28125q-0.71875 0 -1.125 -0.828125q-0.390625 -0.828125 -1.5625 -0.828125q-0.625 0 -1.15625 0.265625q-0.515625 0.25 -0.625 0.71875zm9.142792 -2.375l0.3125 -1.484375q0.1875 -0.921875 0.328125 -1.25q0.15625 -0.34375 0.53125 -0.59375q0.390625 -0.265625 0.828125 -0.265625q0.390625 0 0.671875 0.234375q0.28125 0.234375 0.3125 0.578125q0.03125 0.34375 -0.125 1.09375l-0.359375 1.6875l0.484375 0q0.90625 0 1.140625 0.234375q0.25 0.21875 0.171875 0.640625q-0.203125 0.921875 -1.734375 0.921875l-0.453125 0l-0.96875 4.59375q-0.203125 0.9375 -0.140625 1.28125q0.0625 0.328125 0.625 0.328125q0.28125 0 0.625 -0.078125q0.359375 -0.078125 0.53125 -0.078125q0.375 0 0.546875 0.25q0.1875 0.234375 0.125 0.578125q-0.265625 1.234375 -2.84375 1.234375q-1.25 0 -1.734375 -0.46875q-0.484375 -0.46875 -0.5 -1.125q0 -0.671875 0.21875 -1.734375l1.015625 -4.78125l-0.328125 0q-1.09375 0 -0.90625 -0.890625q0.203125 -0.90625 1.359375 -0.90625l0.265625 0zm13.111725 2.375q-0.09375 0.484375 0.34375 0.765625q0.4375 0.265625 2.078125 0.6875q3.21875 0.828125 2.796875 2.8125q-0.328125 1.578125 -1.65625 2.421875q-1.3125 0.84375 -3.359375 0.84375q-2.078125 0 -2.953125 -0.859375q-0.875 -0.859375 -0.671875 -1.8125q0.09375 -0.40625 0.4375 -0.703125q0.359375 -0.296875 0.796875 -0.296875q0.578125 0 0.859375 0.734375q0.328125 0.796875 0.859375 1.0625q0.53125 0.25 1.21875 0.25q0.734375 0 1.265625 -0.328125q0.546875 -0.328125 0.65625 -0.84375q0.09375 -0.46875 -0.234375 -0.796875q-0.3125 -0.34375 -2.0 -0.75q-1.6875 -0.40625 -2.34375 -1.140625q-0.65625 -0.734375 -0.4375 -1.75q0.25 -1.140625 1.421875 -2.015625q1.1875 -0.875 3.15625 -0.875q1.8125 0 2.71875 0.75q0.921875 0.734375 0.765625 1.53125q-0.09375 0.40625 -0.4375 0.703125q-0.328125 0.28125 -0.8125 0.28125q-0.71875 0 -1.125 -0.828125q-0.390625 -0.828125 -1.5625 -0.828125q-0.625 0 -1.15625 0.265625q-0.515625 0.25 -0.625 0.71875zm13.127136 -2.59375q2.3125 0 3.328125 1.4375q1.03125 1.421875 0.5625 3.625q-0.484375 2.21875 -2.125 3.640625q-1.640625 1.421875 -3.859375 1.421875q-2.40625 0 -3.40625 -1.4375q-1.0 -1.453125 -0.53125 -3.625q0.46875 -2.21875 2.09375 -3.640625q1.640625 -1.421875 3.9375 -1.421875zm-1.765625 8.265625q1.140625 0 1.96875 -0.84375q0.84375 -0.859375 1.171875 -2.359375q0.3125 -1.515625 -0.171875 -2.359375q-0.46875 -0.859375 -1.609375 -0.859375q-1.109375 0 -1.953125 0.859375q-0.84375 0.859375 -1.15625 2.359375q-0.328125 1.515625 0.15625 2.359375q0.484375 0.84375 1.59375 0.84375zm21.987213 -4.5625l-0.90625 4.28125q-0.1875 0.890625 -0.34375 1.25q-0.140625 0.359375 -0.53125 0.625q-0.375 0.265625 -0.8125 0.265625q-0.4375 0 -0.71875 -0.265625q-0.265625 -0.265625 -0.265625 -0.640625q0 -0.390625 0.1875 -1.234375l0.765625 -3.625q0.34375 -1.59375 0.046875 -2.0q-0.28125 -0.40625 -0.9375 -0.40625q-0.6875 0 -1.234375 0.375q-0.546875 0.375 -0.859375 0.984375q-0.296875 0.609375 -0.5625 1.90625l-0.59375 2.765625q-0.1875 0.890625 -0.34375 1.265625q-0.140625 0.359375 -0.53125 0.625q-0.390625 0.25 -0.828125 0.25q-0.578125 0 -0.828125 -0.390625q-0.25 -0.390625 0.046875 -1.75l0.71875 -3.40625q0.3125 -1.46875 0.21875 -2.046875q-0.09375 -0.578125 -1.015625 -0.578125q-0.953125 0 -1.640625 0.609375q-0.6875 0.609375 -1.109375 2.609375l-0.59375 2.8125q-0.1875 0.875 -0.3125 1.21875q-0.125 0.34375 -0.515625 0.640625q-0.390625 0.28125 -0.828125 0.28125q-0.421875 0 -0.71875 -0.25q-0.28125 -0.265625 -0.28125 -0.625q0 -0.359375 0.1875 -1.265625l1.28125 -6.015625q0.1875 -0.875 0.328125 -1.171875q0.140625 -0.3125 0.515625 -0.546875q0.375 -0.25 0.75 -0.25q1.1875 0 0.859375 1.53125q1.578125 -1.53125 3.34375 -1.53125q1.890625 0 2.40625 1.53125q1.59375 -1.53125 3.296875 -1.53125q1.296875 0 2.0625 0.734375q0.78125 0.71875 0.296875 2.96875zm8.928284 1.96875l-4.875 0q-0.265625 1.390625 0.3125 2.09375q0.578125 0.703125 1.59375 0.703125q1.25 0 2.578125 -1.09375q0.546875 -0.453125 0.78125 -0.5625q0.234375 -0.109375 0.5 -0.109375q0.34375 0 0.53125 0.21875q0.203125 0.203125 0.125 0.515625q-0.171875 0.828125 -1.515625 1.765625q-1.328125 0.921875 -3.296875 0.921875q-2.5 0 -3.5 -1.40625q-0.984375 -1.421875 -0.5 -3.65625q0.46875 -2.265625 2.0625 -3.65625q1.59375 -1.40625 3.890625 -1.40625q2.203125 0 3.109375 1.328125q0.90625 1.328125 0.578125 2.875q-0.140625 0.671875 -0.625 1.078125q-0.484375 0.390625 -1.75 0.390625zm-4.5625 -1.40625l4.53125 0q0.21875 -1.25 -0.296875 -1.890625q-0.5 -0.65625 -1.4375 -0.65625q-1.96875 0 -2.796875 2.546875zm10.289368 -4.046875l0.3125 -1.484375q0.1875 -0.921875 0.328125 -1.25q0.15625 -0.34375 0.53125 -0.59375q0.390625 -0.265625 0.828125 -0.265625q0.390625 0 0.671875 0.234375q0.28125 0.234375 0.3125 0.578125q0.03125 0.34375 -0.125 1.09375l-0.359375 1.6875l0.484375 0q0.90625 0 1.140625 0.234375q0.25 0.21875 0.171875 0.640625q-0.203125 0.921875 -1.734375 0.921875l-0.453125 0l-0.96875 4.59375q-0.203125 0.9375 -0.140625 1.28125q0.0625 0.328125 0.625 0.328125q0.28125 0 0.625 -0.078125q0.359375 -0.078125 0.53125 -0.078125q0.375 0 0.546875 0.25q0.1875 0.234375 0.125 0.578125q-0.265625 1.234375 -2.84375 1.234375q-1.25 0 -1.734375 -0.46875q-0.484375 -0.46875 -0.5 -1.125q0 -0.671875 0.21875 -1.734375l1.015625 -4.78125l-0.328125 0q-1.09375 0 -0.90625 -0.890625q0.203125 -0.90625 1.359375 -0.90625l0.265625 0zm14.22937 3.625l-0.953125 4.53125q-0.375 1.75 -1.640625 1.75q-0.578125 0 -0.828125 -0.375q-0.234375 -0.375 -0.015625 -1.375l0.84375 -3.96875q0.296875 -1.40625 -0.046875 -1.921875q-0.328125 -0.53125 -1.140625 -0.53125q-0.703125 0 -1.3125 0.390625q-0.609375 0.390625 -0.953125 0.96875q-0.328125 0.5625 -0.640625 2.0l-0.609375 2.890625q-0.25 1.15625 -0.671875 1.546875q-0.40625 0.375 -1.0 0.375q-0.5625 0 -0.8125 -0.375q-0.25 -0.375 0 -1.515625l2.09375 -9.875q0.1875 -0.90625 0.34375 -1.25q0.171875 -0.359375 0.515625 -0.578125q0.359375 -0.21875 0.78125 -0.21875q0.484375 0 0.734375 0.25q0.265625 0.25 0.265625 0.65625q0 0.40625 -0.203125 1.34375l-0.625 2.953125q1.578125 -1.515625 3.359375 -1.515625q1.5 0 2.21875 0.9375q0.71875 0.921875 0.296875 2.90625zm5.2996826 -7.421875q0.484375 0 0.75 0.359375q0.28125 0.359375 0.1875 0.84375q-0.109375 0.5 -0.546875 0.859375q-0.421875 0.359375 -0.90625 0.359375q-0.5 0 -0.78125 -0.359375q-0.28125 -0.359375 -0.171875 -0.859375q0.09375 -0.484375 0.53125 -0.84375q0.4375 -0.359375 0.9375 -0.359375zm0.03125 5.609375l-1.28125 6.03125q-0.1875 0.890625 -0.34375 1.21875q-0.140625 0.328125 -0.53125 0.59375q-0.390625 0.25 -0.78125 0.25q-0.40625 0 -0.703125 -0.25q-0.28125 -0.25 -0.296875 -0.59375q-0.015625 -0.34375 0.171875 -1.21875l1.265625 -6.0q0.1875 -0.828125 0.3125 -1.171875q0.140625 -0.34375 0.53125 -0.609375q0.40625 -0.28125 0.84375 -0.28125q0.4375 0 0.703125 0.25q0.265625 0.234375 0.265625 0.609375q0.015625 0.375 -0.15625 1.171875zm10.930786 1.953125l-0.859375 4.078125q-0.171875 0.796875 -0.328125 1.15625q-0.140625 0.359375 -0.515625 0.640625q-0.375 0.265625 -0.828125 0.265625q-0.40625 0 -0.703125 -0.234375q-0.296875 -0.25 -0.296875 -0.640625q0 -0.390625 0.171875 -1.1875l0.765625 -3.578125q0.3125 -1.5 -0.03125 -2.015625q-0.328125 -0.515625 -1.109375 -0.515625q-0.703125 0 -1.328125 0.40625q-0.625 0.40625 -0.984375 1.03125q-0.34375 0.609375 -0.65625 2.09375l-0.546875 2.578125q-0.171875 0.78125 -0.3125 1.140625q-0.125 0.34375 -0.53125 0.640625q-0.390625 0.28125 -0.828125 0.28125q-0.40625 0 -0.703125 -0.25q-0.28125 -0.25 -0.28125 -0.625q0 -0.375 0.171875 -1.1875l1.296875 -6.140625q0.1875 -0.828125 0.328125 -1.15625q0.15625 -0.328125 0.515625 -0.546875q0.375 -0.21875 0.765625 -0.21875q0.359375 0 0.6875 0.296875q0.34375 0.28125 0.109375 1.390625q1.59375 -1.6875 3.5625 -1.6875q0.75 0 1.40625 0.296875q0.671875 0.28125 0.984375 0.921875q0.328125 0.625 0.28125 1.296875q-0.03125 0.671875 -0.203125 1.46875zm9.784058 -2.28125l0.078125 -0.34375q0.140625 -0.671875 0.546875 -1.015625q0.421875 -0.34375 0.9375 -0.34375q0.5625 0 0.78125 0.40625q0.21875 0.390625 -0.0625 1.703125l-1.421875 6.671875q-0.640625 2.984375 -2.109375 4.0q-1.46875 1.03125 -3.828125 1.03125q-2.125 0 -3.15625 -0.796875q-1.03125 -0.78125 -0.84375 -1.65625q0.09375 -0.46875 0.46875 -0.765625q0.375 -0.28125 0.8125 -0.28125q0.390625 0 0.578125 0.1875q0.203125 0.1875 0.609375 0.890625q0.40625 0.703125 1.71875 0.703125q0.734375 0 1.40625 -0.234375q0.671875 -0.21875 1.09375 -0.796875q0.421875 -0.578125 0.875 -2.8125q-1.484375 1.640625 -3.46875 1.640625q-1.90625 0 -2.703125 -1.421875q-0.796875 -1.421875 -0.328125 -3.65625q0.46875 -2.203125 1.875 -3.5q1.421875 -1.3125 3.25 -1.3125q2.0 0 2.890625 1.703125zm-5.546875 3.3125q-0.296875 1.453125 0.171875 2.21875q0.46875 0.75 1.5625 0.75q0.953125 0 1.8125 -0.734375q0.859375 -0.734375 1.171875 -2.203125q0.3125 -1.453125 -0.15625 -2.296875q-0.46875 -0.84375 -1.5625 -0.84375q-1.0625 0 -1.875 0.796875q-0.796875 0.78125 -1.125 2.3125zm29.01123 2.359375q0.546875 0 0.859375 0.40625q0.328125 0.390625 0.21875 0.953125q-0.125 0.5625 -0.625 0.984375q-0.484375 0.40625 -1.03125 0.40625q-0.578125 0 -0.90625 -0.40625q-0.3125 -0.40625 -0.1875 -0.984375q0.109375 -0.5625 0.609375 -0.953125q0.5 -0.40625 1.0625 -0.40625zm-6.234375 0q0.5625 0 0.875 0.40625q0.3125 0.390625 0.203125 0.953125q-0.125 0.5625 -0.609375 0.984375q-0.484375 0.40625 -1.046875 0.40625q-0.578125 0 -0.90625 -0.40625q-0.3125 -0.40625 -0.1875 -0.984375q0.109375 -0.5625 0.609375 -0.953125q0.5 -0.40625 1.0625 -0.40625zm-6.21875 0q0.5625 0 0.875 0.40625q0.328125 0.390625 0.21875 0.953125q-0.125 0.5625 -0.625 0.984375q-0.484375 0.40625 -1.046875 0.40625q-0.5625 0 -0.890625 -0.40625q-0.3125 -0.40625 -0.1875 -0.984375q0.109375 -0.5625 0.59375 -0.953125q0.5 -0.40625 1.0625 -0.40625z" fill-rule="nonzero"/><path fill="#000000" fill-opacity="0.0" d="m63.267715 80.98425l674.4567 0l0 42.015747l-674.4567 0z" fill-rule="evenodd"/></g></svg>