<svg version="1.1" xmlns="http://www.w3.org/2000/svg" xmlns:xlink="http://www.w3.org/1999/xlink" width="58.64998" height="50.81325" viewBox="0,0,58.64998,50.81325"><g transform="translate(-210.67782,-154.60579)"><g data-paper-data="{&quot;isPaintingLayer&quot;:true}" fill-rule="nonzero" stroke-linecap="butt" stroke-linejoin="miter" stroke-miterlimit="10" stroke-dasharray="" stroke-dashoffset="0" style="mix-blend-mode: normal"><path d="M233.59689,168.46286c0.92335,3.70181 -12.17051,14.71884 -15.7783,5.75058c-2.09227,-5.19629 -3.91932,-16.08983 -1.84249,-16.60764c2.07683,-0.5164 16.69885,7.15384 17.62079,10.85706z" fill="#f4900c" stroke="#000000" stroke-width="6"/><path d="M230.79878,169.23886c1.34714,2.15822 -2.56937,6.40029 -4.72619,7.74882c-2.15822,1.34853 -4.06806,-0.7746 -6.19401,-6.19401c-0.92896,-2.37011 -2.33784,-8.79847 -1.5478,-9.29242c0.78863,-0.49255 11.11947,5.57939 12.468,7.73761z" fill="#a0041e" stroke="#000000" stroke-width="6"/><path d="M264.02387,157.6058c2.07683,0.51781 0.24978,11.41135 -1.84108,16.60764c-3.60919,8.96827 -16.70166,-2.04736 -15.77971,-5.75058c0.92335,-3.70321 15.54397,-11.37346 17.62079,-10.85706z" fill="#f4900c" stroke="#000000" stroke-width="6"/><path d="M261.67061,161.50266c0.78863,0.49395 -0.62024,6.92231 -1.5492,9.29102c-2.12595,5.41941 -4.03579,7.54254 -6.19261,6.19401c-2.15682,-1.34853 -6.07333,-5.5906 -4.7262,-7.74882c1.34853,-2.15822 11.67797,-8.23015 12.46801,-7.7362z" fill="#a0041e" stroke="#000000" stroke-width="6"/><path d="M260.12982,192.4657c0.10104,0.44905 0.14314,0.95282 0.05052,1.53377c-3.80004,-1.81161 -6.95739,-2.33784 -9.00335,-0.58376c-1.70075,5.08263 -5.84459,9.00334 -11.16718,9.00334c-5.32539,0 -9.52536,-3.80284 -11.22752,-8.88688c-2.45571,-1.22786 -4.56061,-1.51973 -9.06088,0.52482c-0.07859,-0.74514 0.01684,-1.36397 0.18944,-1.88458c0.06034,-0.6048 0.27644,-1.34994 0.54166,-2.06982c-0.83634,0.03648 -2.17505,0.26101 -3.94738,1.14787c-0.03508,-0.74373 0.11366,-1.38222 0.39572,-1.9323c-0.04069,0.02105 -0.07577,0.03508 -0.11787,0.05613c1.54921,-4.64621 4.64621,-7.74182 4.64621,-7.74182h-3.097c3.2654,-6.5336 6.95598,-11.23313 11.31172,-13.40398c1.94914,-1.23207 5.17804,-1.88879 10.36311,-1.88879h0.00421c5.17103,0.00141 8.39573,0.65392 10.34627,1.87897c4.36416,2.16664 8.06036,6.87038 11.33137,13.4138h-3.09561c0,0 3.09561,3.09701 4.64341,7.74182c-0.05753,-0.02947 -0.10525,-0.04912 -0.16278,-0.07718c0.21751,0.57394 0.37186,1.2026 0.38309,1.95475c-1.75549,-0.87844 -3.06613,-1.10718 -3.88704,-1.14647c0.30732,0.83634 0.57112,1.73023 0.57112,2.36731z" fill="#f18f26" stroke="#000000" stroke-width="6"/><path d="M260.13824,192.47271l-0.00141,-0.0014v0.0014c-3.36643,-2.20874 -7.17769,-3.18541 -10.42485,-0.63428c-2.16103,10.58763 -17.07352,11.11526 -19.41136,0c-3.24575,-2.55254 -7.05982,-1.57306 -10.42485,0.63428v-0.0014l-0.00141,0.0014c0,-1.5478 1.5478,-4.6448 1.5478,-4.64621c-0.00701,0 -1.55482,0.00281 -4.64341,1.5478c1.75408,-3.98106 10.55816,-5.71409 13.93582,-4.61814c1.15489,1.13524 1.45519,6.59254 4.74585,9.29242c2.47816,2.04596 6.64866,2.00807 9.09175,0c2.94966,-2.27188 3.10402,-6.55044 4.74725,-9.29242c3.37625,-1.09314 12.18314,0.63428 13.93582,4.61814c-3.08859,-1.54359 -4.63498,-1.5478 -4.6434,-1.5478c0.0014,0 1.5492,3.09841 1.5464,4.64621z" fill="#ffd983" stroke="#000000" stroke-width="6"/><path d="M230.18556,178.56355c0,0 0.00001,-2.10489 2.1049,-2.10489c2.10489,0 2.10489,2.10489 2.10489,2.10489v2.1049c0,0 0,2.10489 -2.10489,2.10489c-2.10489,0 -2.1049,-2.10489 -2.1049,-2.10489zM245.62147,178.56355c0,0 0.00001,-2.10489 2.1049,-2.10489c2.10489,0 2.10489,2.10489 2.10489,2.10489v2.1049c0,0 0,2.10489 -2.10489,2.10489c-2.10489,0 -2.1049,-2.10489 -2.1049,-2.10489zM235.71302,193.73004c-1.43274,0.29188 2.86406,5.56815 4.2968,5.56815c1.43133,0 5.72813,-5.27627 4.2968,-5.56815c-1.43274,-0.29188 -7.16086,-0.29188 -8.59359,0z" fill="#272b2b" stroke="#000000" stroke-width="6"/><path d="M233.5969,168.46285c0.92335,3.70181 -12.17051,14.71884 -15.77831,5.75058c-2.09227,-5.19629 -3.91932,-16.08983 -1.84249,-16.60764c2.07683,-0.5164 16.69885,7.15384 17.62079,10.85706z" fill="#f4900c" stroke="none" stroke-width="1"/><path d="M230.79879,169.23886c1.34713,2.15822 -2.56938,6.40029 -4.7262,7.74883c-2.15822,1.34854 -4.06806,-0.7746 -6.19401,-6.19401c-0.92896,-2.37011 -2.33784,-8.79847 -1.5478,-9.29242c0.78863,-0.49255 11.11947,5.57938 12.46801,7.7376z" fill="#a0041e" stroke="none" stroke-width="1"/><path d="M264.02387,157.60579c2.07683,0.5178 0.24978,11.41135 -1.84108,16.60764c-3.6092,8.96826 -16.70166,-2.04736 -15.77971,-5.75058c0.92335,-3.70322 15.54396,-11.37346 17.62079,-10.85706z" fill="#f4900c" stroke="none" stroke-width="1"/><path d="M261.67062,161.50266c0.78863,0.49395 -0.62024,6.9223 -1.5492,9.29102c-2.12595,5.41941 -4.03579,7.54255 -6.19261,6.19401c-2.15682,-1.34854 -6.07333,-5.59061 -4.7262,-7.74883c1.34854,-2.15822 11.67797,-8.23015 12.46801,-7.7362z" fill="#a0041e" stroke="none" stroke-width="1"/><path d="M260.12983,192.4657c0.10104,0.44904 0.14313,0.95282 0.05052,1.53377c-3.80004,-1.81161 -6.95739,-2.33784 -9.00335,-0.58376c-1.70076,5.08262 -5.8446,9.00335 -11.16718,9.00335c-5.32539,0 -9.52536,-3.80285 -11.22752,-8.88688c-2.45571,-1.22786 -4.56061,-1.51974 -9.06088,0.52482c-0.07858,-0.74513 0.01684,-1.36397 0.18944,-1.88458c0.06034,-0.60481 0.27644,-1.34994 0.54166,-2.06982c-0.83635,0.03648 -2.17506,0.26101 -3.94738,1.14787c-0.03508,-0.74373 0.11366,-1.38222 0.39572,-1.9323c-0.04069,0.02105 -0.07578,0.03508 -0.11787,0.05613c1.5492,-4.64621 4.64621,-7.74181 4.64621,-7.74181h-3.09701c3.2654,-6.5336 6.95598,-11.23313 11.31172,-13.40398c1.94913,-1.23207 5.17805,-1.88879 10.36311,-1.88879h0.00421c5.17103,0.0014 8.39573,0.65392 10.34627,1.87897c4.36415,2.16664 8.06035,6.87038 11.33136,13.41381h-3.0956c0,0 3.0956,3.09701 4.6434,7.74181c-0.05753,-0.02947 -0.10524,-0.04911 -0.16278,-0.07718c0.21751,0.57394 0.37187,1.2026 0.38309,1.95475c-1.75548,-0.87844 -3.06613,-1.10718 -3.88704,-1.14647c0.30731,0.83635 0.57113,1.73023 0.57113,2.36731z" fill="#f18f26" stroke="none" stroke-width="1"/><path d="M260.13825,192.47271l-0.0014,-0.0014v0.0014c-3.36643,-2.20874 -7.1777,-3.18541 -10.42485,-0.63428c-2.16103,10.58763 -17.07352,11.11526 -19.41136,0c-3.24575,-2.55254 -7.05982,-1.57306 -10.42485,0.63428v-0.0014l-0.0014,0.0014c0,-1.5478 1.5478,-4.64481 1.5478,-4.64621c-0.00702,0 -1.55482,0.00281 -4.6434,1.5478c1.75408,-3.98106 10.55816,-5.71409 13.93582,-4.61814c1.15489,1.13524 1.45519,6.59254 4.74584,9.29242c2.47817,2.04596 6.64867,2.00807 9.09175,0c2.94966,-2.27189 3.10402,-6.55044 4.74724,-9.29242c3.37625,-1.09314 12.18314,0.63428 13.93582,4.61814c-3.08859,-1.54359 -4.63498,-1.5478 -4.6434,-1.5478c0.0014,0 1.5492,3.09841 1.5464,4.64621z" fill="#ffd983" stroke="none" stroke-width="1"/><path d="M230.18557,178.56355c0,0 0,-2.1049 2.1049,-2.1049c2.1049,0 2.1049,2.1049 2.1049,2.1049v2.1049c0,0 0,2.1049 -2.1049,2.1049c-2.1049,0 -2.1049,-2.1049 -2.1049,-2.1049zM245.62148,178.56355c0,0 0,-2.1049 2.1049,-2.1049c2.1049,0 2.1049,2.1049 2.1049,2.1049v2.1049c0,0 0,2.1049 -2.1049,2.1049c-2.1049,0 -2.1049,-2.1049 -2.1049,-2.1049zM235.71303,193.73004c-1.43273,0.29188 2.86406,5.56815 4.2968,5.56815c1.43133,0 5.72813,-5.27628 4.2968,-5.56815c-1.43273,-0.29188 -7.16086,-0.29188 -8.59359,0z" fill="#272b2b" stroke="none" stroke-width="1"/><path d="M228.99416,183.21211v-9.00492h22.70805v9.00492z" fill="#f18f26" stroke="none" stroke-width="0"/></g></g></svg>