<svg version="1.1" xmlns="http://www.w3.org/2000/svg" xmlns:xlink="http://www.w3.org/1999/xlink" width="237.23724" height="171.83157" viewBox="0,0,237.23724,171.83157"><g transform="translate(-132.64264,-144.65491)"><g data-paper-data="{&quot;isPaintingLayer&quot;:true}" fill-rule="nonzero" stroke-linecap="butt" stroke-linejoin="miter" stroke-miterlimit="10" stroke-dasharray="" stroke-dashoffset="0" style="mix-blend-mode: normal"><path d="M227.04548,150.84472c0,-0.89882 1.71666,-2.68981 3.44228,-2.68981c4.0637,0 20.90359,0 28.21778,0c2.10134,0 3.41645,1.79099 3.41645,2.68981c0,0.90329 -35.07651,0.90329 -35.07651,0z" fill="#818798" stroke="#f3e005" stroke-width="7"/><path d="M227.04548,153.56133c0,0 0,-1.81332 0,-2.71661c0,-0.89882 1.71666,-2.68981 3.44228,-2.68981c4.0637,0 20.90359,0 28.21778,0c2.10134,0 3.41645,1.79099 3.41645,2.68981c0,0.90329 0,2.71661 0,2.71661z" fill="#818798" stroke="#000000" stroke-width="3"/><path d="M132.64264,316.48648v-148.64865h237.23724v148.64865z" fill="none" stroke="none" stroke-width="0"/></g></g></svg>