<svg version="1.1" xmlns="http://www.w3.org/2000/svg" xmlns:xlink="http://www.w3.org/1999/xlink" width="198.34432" height="9.57834" viewBox="0,0,198.34432,9.57834"><g transform="translate(-140.82784,-175.21084)"><g data-paper-data="{&quot;isPaintingLayer&quot;:true}" fill="#f1ff00" fill-rule="nonzero" stroke="none" stroke-width="1" stroke-linecap="square" stroke-linejoin="miter" stroke-miterlimit="10" stroke-dasharray="" stroke-dashoffset="0" style="mix-blend-mode: normal"><path d="M142.30329,176.43904v3.26189c0,0.72841 0.14355,1.22553 0.43066,1.49138c0.28711,0.26585 0.68322,0.39876 1.18831,0.39876c0.49447,0 0.8826,-0.13292 1.16439,-0.39876c0.28179,-0.27116 0.42269,-0.75765 0.42269,-1.45947v-3.29379c0,-0.33496 0.01064,-0.56891 0.0319,-0.70183c0.02127,-0.13292 0.0957,-0.25254 0.22331,-0.35888c0.1276,-0.11166 0.2818,-0.16748 0.46257,-0.16748c0.17014,0 0.32167,0.05051 0.45459,0.15153c0.13824,0.10102 0.22065,0.22331 0.24723,0.36686c0.0319,0.13824 0.04785,0.37484 0.04785,0.7098v3.18214c0,0.82412 -0.11165,1.44618 -0.33496,1.86621c-0.22331,0.42003 -0.55561,0.73905 -0.99692,0.95703c-0.43598,0.21799 -0.97564,0.32699 -1.61898,0.32699c-1.11122,0 -1.92204,-0.2366 -2.43246,-0.7098c-0.51042,-0.47851 -0.76563,-1.29199 -0.76563,-2.44043v-3.18214c0,-0.33496 0.01329,-0.56625 0.03988,-0.69385c0.02659,-0.13292 0.10368,-0.2552 0.23128,-0.36686c0.1276,-0.11166 0.2818,-0.16748 0.46257,-0.16748c0.18077,0 0.33496,0.05051 0.46257,0.15153c0.13292,0.10102 0.21267,0.22331 0.23926,0.36686c0.02658,0.13824 0.03988,0.37484 0.03988,0.7098zM149.70036,178.14575c0.47851,-0.60612 1.06868,-0.90918 1.77051,-0.90918c0.69651,0 1.24946,0.26318 1.65886,0.78955c0.41472,0.52105 0.62207,1.19896 0.62207,2.0337c0,0.79221 -0.20204,1.44352 -0.60612,1.95395c-0.39876,0.5051 -0.95437,0.75765 -1.66683,0.75765c-0.67524,0 -1.26807,-0.28445 -1.77849,-0.85335v1.77849c0,0.48915 -0.06114,0.7922 -0.18343,0.90918c-0.12229,0.12229 -0.28711,0.18344 -0.49447,0.18344c-0.2499,0 -0.42535,-0.08241 -0.52637,-0.24723c-0.10102,-0.16482 -0.15153,-0.45991 -0.15153,-0.88526v-5.36737c0,-0.28179 0.01064,-0.48649 0.0319,-0.61409c0.02659,-0.13292 0.09836,-0.23925 0.21533,-0.31901c0.12229,-0.07976 0.26585,-0.11963 0.43067,-0.11963c0.45193,0 0.6779,0.25255 0.6779,0.75765zM152.37209,180.02792c0,-0.59548 -0.12494,-1.03679 -0.37484,-1.3239c-0.2499,-0.28711 -0.54232,-0.43066 -0.87728,-0.43066c-0.38813,0 -0.7098,0.14621 -0.96501,0.43864c-0.2499,0.29243 -0.37484,0.70182 -0.37484,1.22819c0,0.54764 0.12229,0.98362 0.36686,1.30794c0.24457,0.31901 0.57156,0.47852 0.98096,0.47852c0.36686,0 0.6646,-0.14888 0.89323,-0.44662c0.23394,-0.30306 0.35092,-0.72043 0.35092,-1.25212zM156.08059,178.14575c0.47851,-0.60612 1.06869,-0.90918 1.77051,-0.90918c0.69651,0 1.24945,0.26318 1.65885,0.78955c0.41472,0.52105 0.62207,1.19896 0.62207,2.0337c0,0.79221 -0.20204,1.44352 -0.60612,1.95395c-0.39876,0.5051 -0.95437,0.75765 -1.66683,0.75765c-0.67524,0 -1.26807,-0.28445 -1.77849,-0.85335v1.77849c0,0.48915 -0.06114,0.7922 -0.18343,0.90918c-0.12229,0.12229 -0.28711,0.18344 -0.49447,0.18344c-0.2499,0 -0.42534,-0.08241 -0.52636,-0.24723c-0.10102,-0.16482 -0.15153,-0.45991 -0.15153,-0.88526v-5.36737c0,-0.28179 0.01064,-0.48649 0.0319,-0.61409c0.02659,-0.13292 0.09836,-0.23925 0.21533,-0.31901c0.12229,-0.07976 0.26585,-0.11963 0.43067,-0.11963c0.45193,0 0.6779,0.25255 0.6779,0.75765zM158.75231,180.02792c0,-0.59548 -0.12494,-1.03679 -0.37484,-1.3239c-0.2499,-0.28711 -0.54232,-0.43066 -0.87728,-0.43066c-0.38813,0 -0.7098,0.14621 -0.96501,0.43864c-0.2499,0.29243 -0.37484,0.70182 -0.37484,1.22819c0,0.54764 0.12229,0.98362 0.36686,1.30794c0.24457,0.31901 0.57156,0.47852 0.98096,0.47852c0.36686,0 0.66461,-0.14888 0.89324,-0.44662c0.23394,-0.30306 0.35091,-0.72043 0.35091,-1.25212zM165.03683,180.33895h-2.67172c0.01595,0.5051 0.15419,0.88526 0.41472,1.14047c0.26585,0.25521 0.58485,0.38281 0.95703,0.38281c0.45193,0 0.87994,-0.19939 1.28402,-0.59815c0.16482,-0.16482 0.28445,-0.26584 0.35889,-0.30306c0.07976,-0.04253 0.16748,-0.0638 0.26318,-0.0638c0.12229,0 0.22597,0.03987 0.31104,0.11963c0.09038,0.07443 0.13558,0.16748 0.13558,0.27913c0,0.30838 -0.21001,0.6327 -0.63004,0.97298c-0.41471,0.33496 -0.98096,0.50244 -1.69873,0.50244c-0.90918,0 -1.60037,-0.25786 -2.07357,-0.7736c-0.46788,-0.51574 -0.70182,-1.18035 -0.70182,-1.99383c0,-0.82412 0.23394,-1.49137 0.70182,-2.00179c0.4732,-0.51042 1.12983,-0.76562 1.9699,-0.76562c0.79753,0 1.41428,0.24192 1.85026,0.72575c0.43598,0.47851 0.65398,0.99957 0.65398,1.56315c0,0.2499 -0.07178,0.44928 -0.21533,0.59814c-0.14355,0.14355 -0.44662,0.21534 -0.90918,0.21534zM162.36511,179.56535h2.48031c-0.01595,-0.45193 -0.1409,-0.79753 -0.37484,-1.03679c-0.23394,-0.23926 -0.52105,-0.35889 -0.86133,-0.35889c-0.72309,0 -1.1378,0.46523 -1.24414,1.39568zM167.29882,181.63892v-3.4852c0,-0.61144 0.22331,-0.91716 0.66993,-0.91716c0.43067,0 0.65131,0.2818 0.66195,0.84538c0.28179,-0.56358 0.67258,-0.84538 1.17237,-0.84538c0.26053,0 0.53168,0.06912 0.81348,0.20736c0.28179,0.13824 0.42269,0.32698 0.42269,0.56624c0,0.16482 -0.05848,0.30306 -0.17545,0.41472c-0.11166,0.10634 -0.23128,0.1595 -0.35889,0.1595c-0.07443,0 -0.20736,-0.02924 -0.39876,-0.08772c-0.19141,-0.05848 -0.35091,-0.08773 -0.47852,-0.08773c-0.32432,0 -0.56625,0.16483 -0.72575,0.49447c-0.1595,0.32432 -0.23926,0.95703 -0.23926,1.89811v0.78956c0,0.3456 -0.01595,0.57954 -0.04785,0.70183c-0.02659,0.12229 -0.10101,0.23394 -0.2233,0.33496c-0.11697,0.09571 -0.25255,0.14355 -0.40674,0.14355c-0.15419,0 -0.29243,-0.0452 -0.41472,-0.13558c-0.11697,-0.09038 -0.19141,-0.19406 -0.22331,-0.31104c-0.0319,-0.12229 -0.04785,-0.35091 -0.04785,-0.68587zM176.38765,176.47891v1.78646h2.82325c0.23926,0 0.4094,0.01064 0.51042,0.0319c0.10634,0.02126 0.20204,0.08241 0.28711,0.18344c0.08507,0.09571 0.1276,0.21001 0.1276,0.34293c0,0.11697 -0.05051,0.24458 -0.15153,0.38282c-0.09571,0.13292 -0.35357,0.19938 -0.7736,0.19938h-2.82325v2.0975h3.19012c0.28711,0 0.48117,0.01064 0.58219,0.0319c0.10102,0.01595 0.19141,0.07444 0.27116,0.17546c0.07976,0.09571 0.11962,0.21267 0.11962,0.35091c0,0.13292 -0.04253,0.25255 -0.1276,0.35889c-0.07976,0.10102 -0.17812,0.16482 -0.29509,0.19141c-0.11166,0.02126 -0.29508,0.0319 -0.55029,0.0319h-3.42938c-0.52637,0 -0.83208,-0.03722 -0.91715,-0.11166c-0.07976,-0.07976 -0.15419,-0.16482 -0.22331,-0.2552c-0.0638,-0.09571 -0.0957,-0.38548 -0.0957,-0.86931v-4.83302c0,-0.53169 0.03722,-0.83474 0.11165,-0.90918c0.07976,-0.07443 0.16483,-0.14621 0.25521,-0.21533c0.09571,-0.07443 0.38547,-0.11166 0.8693,-0.11166h3.31772c0.26053,0 0.4413,0.01064 0.54232,0.0319c0.10634,0.01595 0.19938,0.07443 0.27914,0.17545c0.08507,0.09571 0.1276,0.21533 0.1276,0.35889c0,0.13824 -0.03987,0.25787 -0.11962,0.35889c-0.07976,0.10102 -0.1728,0.16216 -0.27913,0.18343c-0.10634,0.02126 -0.28977,0.0319 -0.5503,0.0319zM186.41856,179.40584v2.23308c0,0.29243 -0.01329,0.5051 -0.03987,0.63802c-0.02126,0.1276 -0.09304,0.24191 -0.21533,0.34293c-0.11697,0.10102 -0.25521,0.15153 -0.41472,0.15153c-0.14887,0 -0.28711,-0.0452 -0.41472,-0.13558c-0.12229,-0.09038 -0.19939,-0.20469 -0.23129,-0.34293c-0.0319,-0.14355 -0.04785,-0.36155 -0.04785,-0.65398v-1.95395c0,-0.54764 -0.08242,-0.9145 -0.24724,-1.10059c-0.1595,-0.19141 -0.38281,-0.28711 -0.66993,-0.28711c-0.25521,0 -0.48118,0.07444 -0.6779,0.22331c-0.19672,0.14887 -0.33496,0.33762 -0.41472,0.56625c-0.07976,0.22331 -0.11962,0.60612 -0.11962,1.14844v1.40365c0,0.28711 -0.01064,0.49712 -0.0319,0.63004c-0.02126,0.1276 -0.09304,0.24457 -0.21533,0.35091c-0.12229,0.10102 -0.26318,0.15153 -0.42269,0.15153c-0.15419,0 -0.29509,-0.0452 -0.42269,-0.13558c-0.12229,-0.09571 -0.19672,-0.21001 -0.22331,-0.34293c-0.02659,-0.13824 -0.03988,-0.35623 -0.03988,-0.65398v-3.34962c0,-0.30306 0.01329,-0.51307 0.03988,-0.63004c0.0319,-0.12229 0.10368,-0.2233 0.21533,-0.30306c0.11697,-0.07976 0.24724,-0.11963 0.39079,-0.11963c0.13292,0 0.27116,0.05317 0.41472,0.1595c0.14355,0.10102 0.21533,0.35357 0.21533,0.75765c0.45725,-0.61144 1.0421,-0.91716 1.75456,-0.91716c0.27116,0 0.53966,0.05317 0.80551,0.1595c0.26585,0.10102 0.48118,0.26584 0.646,0.49446c0.17014,0.22862 0.27382,0.46788 0.31104,0.71778c0.03722,0.2499 0.05582,0.51573 0.05582,0.79753zM191.51577,178.1617v-0.18343c0,-0.24457 0.05848,-0.42801 0.17545,-0.5503c0.12229,-0.1276 0.27648,-0.19141 0.46257,-0.19141c0.20736,0 0.36686,0.07178 0.47851,0.21533c0.11166,0.14355 0.16748,0.4546 0.16748,0.93311v3.65268c0,1.08464 -0.22863,1.81305 -0.68588,2.18523c-0.45725,0.3775 -1.11654,0.56625 -1.97787,0.56625c-0.77626,0 -1.38238,-0.14355 -1.81836,-0.43067c-0.43598,-0.28711 -0.65397,-0.59017 -0.65397,-0.90918c0,-0.17014 0.05582,-0.30838 0.16748,-0.41472c0.11697,-0.10634 0.25521,-0.1595 0.41472,-0.1595c0.14355,0 0.25521,0.03456 0.33496,0.10368c0.08507,0.06912 0.22862,0.23128 0.43066,0.48649c0.20736,0.25521 0.5503,0.38281 1.02882,0.38281c0.26585,0 0.51308,-0.04253 0.7417,-0.1276c0.22862,-0.07976 0.3961,-0.22597 0.50244,-0.43864c0.11166,-0.20736 0.16217,-0.72044 0.15153,-1.53923c-0.41472,0.60081 -0.98096,0.90121 -1.69873,0.90121c-0.69651,0 -1.2468,-0.26052 -1.65088,-0.78158c-0.40408,-0.52105 -0.60612,-1.18566 -0.60612,-1.99383c0,-0.80817 0.20736,-1.44884 0.62207,-1.92204c0.41472,-0.4732 0.95437,-0.7098 1.61898,-0.7098c0.72841,0 1.32656,0.30837 1.79444,0.92513zM188.86,179.98006c0,0.52637 0.11432,0.9278 0.34294,1.20427c0.22862,0.27648 0.54497,0.41472 0.94905,0.41472c0.35091,0 0.65131,-0.13292 0.90121,-0.39876c0.25521,-0.27116 0.38281,-0.67524 0.38281,-1.21225c0,-0.52637 -0.11697,-0.94374 -0.35091,-1.25212c-0.23394,-0.30838 -0.5503,-0.46256 -0.94906,-0.46256c-0.38813,0 -0.69916,0.14621 -0.9331,0.43864c-0.22862,0.28711 -0.34294,0.7098 -0.34294,1.26807zM194.84944,175.27465c0.18077,0 0.33496,0.06646 0.46256,0.19938c0.1276,0.13292 0.19141,0.28712 0.19141,0.46257c0,0.18077 -0.0638,0.33762 -0.19141,0.47054c-0.1276,0.1276 -0.28179,0.19141 -0.46256,0.19141c-0.18077,0 -0.33763,-0.0638 -0.47055,-0.19141c-0.1276,-0.13292 -0.19141,-0.28977 -0.19141,-0.47054c0,-0.18077 0.0638,-0.33497 0.19141,-0.46257c0.13292,-0.13292 0.28978,-0.19938 0.47055,-0.19938zM195.52733,178.34513v3.29379c0,0.32964 -0.01595,0.55561 -0.04785,0.6779c-0.02659,0.11697 -0.10368,0.2233 -0.23129,0.31901c-0.12229,0.09038 -0.2552,0.13558 -0.39876,0.13558c-0.14355,0 -0.27914,-0.0452 -0.40674,-0.13558c-0.1276,-0.09571 -0.20736,-0.20469 -0.23926,-0.32698c-0.02659,-0.12229 -0.03987,-0.3456 -0.03987,-0.66993v-3.28582c0,-0.29774 0.01064,-0.50776 0.0319,-0.63005c0.02659,-0.1276 0.10102,-0.23925 0.22331,-0.33496c0.12229,-0.10102 0.26318,-0.15153 0.42269,-0.15153c0.1595,0 0.29774,0.0452 0.41471,0.13558c0.11697,0.08507 0.19141,0.19672 0.22331,0.33496c0.0319,0.13292 0.04785,0.3456 0.04785,0.63802zM201.73111,179.40584v2.23308c0,0.29243 -0.01329,0.5051 -0.03988,0.63802c-0.02126,0.1276 -0.09304,0.24191 -0.21533,0.34293c-0.11697,0.10102 -0.25521,0.15153 -0.41472,0.15153c-0.14887,0 -0.28711,-0.0452 -0.41472,-0.13558c-0.12229,-0.09038 -0.19939,-0.20469 -0.23129,-0.34293c-0.0319,-0.14355 -0.04785,-0.36155 -0.04785,-0.65398v-1.95395c0,-0.54764 -0.08242,-0.9145 -0.24724,-1.10059c-0.1595,-0.19141 -0.38281,-0.28711 -0.66992,-0.28711c-0.25521,0 -0.48118,0.07444 -0.6779,0.22331c-0.19672,0.14887 -0.33496,0.33762 -0.41472,0.56625c-0.07976,0.22331 -0.11963,0.60612 -0.11963,1.14844v1.40365c0,0.28711 -0.01064,0.49712 -0.0319,0.63004c-0.02126,0.1276 -0.09305,0.24457 -0.21534,0.35091c-0.12229,0.10102 -0.26318,0.15153 -0.42269,0.15153c-0.15419,0 -0.29509,-0.0452 -0.42269,-0.13558c-0.12229,-0.09571 -0.19672,-0.21001 -0.2233,-0.34293c-0.02659,-0.13824 -0.03988,-0.35623 -0.03988,-0.65398v-3.34962c0,-0.30306 0.01329,-0.51307 0.03988,-0.63004c0.0319,-0.12229 0.10367,-0.2233 0.21533,-0.30306c0.11697,-0.07976 0.24723,-0.11963 0.39079,-0.11963c0.13292,0 0.27116,0.05317 0.41472,0.1595c0.14355,0.10102 0.21533,0.35357 0.21533,0.75765c0.45725,-0.61144 1.04211,-0.91716 1.75457,-0.91716c0.27116,0 0.53966,0.05317 0.8055,0.1595c0.26585,0.10102 0.48118,0.26584 0.64599,0.49446c0.17014,0.22862 0.27382,0.46788 0.31104,0.71778c0.03722,0.2499 0.05583,0.51573 0.05583,0.79753zM206.89211,180.33895h-2.67172c0.01595,0.5051 0.15419,0.88526 0.41472,1.14047c0.26585,0.25521 0.58486,0.38281 0.95704,0.38281c0.45193,0 0.87994,-0.19939 1.28402,-0.59815c0.16482,-0.16482 0.28446,-0.26584 0.35889,-0.30306c0.07976,-0.04253 0.16748,-0.0638 0.26318,-0.0638c0.12229,0 0.22597,0.03987 0.31104,0.11963c0.09038,0.07443 0.13558,0.16748 0.13558,0.27913c0,0.30838 -0.21002,0.6327 -0.63005,0.97298c-0.41472,0.33496 -0.98096,0.50244 -1.69873,0.50244c-0.90918,0 -1.60037,-0.25786 -2.07357,-0.7736c-0.46788,-0.51574 -0.70182,-1.18035 -0.70182,-1.99383c0,-0.82412 0.23394,-1.49137 0.70182,-2.00179c0.4732,-0.51042 1.12983,-0.76562 1.9699,-0.76562c0.79753,0 1.41429,0.24192 1.85027,0.72575c0.43598,0.47851 0.65397,0.99957 0.65397,1.56315c0,0.2499 -0.07178,0.44928 -0.21533,0.59814c-0.14355,0.14355 -0.44662,0.21534 -0.90919,0.21534zM204.22039,179.56535h2.48032c-0.01595,-0.45193 -0.1409,-0.79753 -0.37484,-1.03679c-0.23394,-0.23926 -0.52105,-0.35889 -0.86133,-0.35889c-0.72309,0 -1.13781,0.46523 -1.24415,1.39568zM210.06328,177.23657c0.20204,0 0.37484,0.07443 0.51839,0.2233c0.14887,0.14355 0.22331,0.31636 0.22331,0.5184c0,0.20736 -0.07444,0.38547 -0.22331,0.53434c-0.14355,0.14887 -0.31635,0.22331 -0.51839,0.22331c-0.20736,0 -0.38548,-0.07444 -0.53435,-0.22331c-0.14887,-0.14887 -0.22331,-0.32699 -0.22331,-0.53434c0,-0.20204 0.07444,-0.37484 0.22331,-0.5184c0.14887,-0.14887 0.32699,-0.2233 0.53435,-0.2233zM210.06328,181.26408c0.20204,0 0.37484,0.07444 0.51839,0.22331c0.14887,0.14355 0.22331,0.31902 0.22331,0.52637c0,0.20204 -0.07444,0.38015 -0.22331,0.53434c-0.14355,0.14887 -0.31635,0.22331 -0.51839,0.22331c-0.20736,0 -0.38548,-0.07444 -0.53435,-0.22331c-0.14887,-0.14887 -0.22331,-0.32698 -0.22331,-0.53434c0,-0.20736 0.07444,-0.38282 0.22331,-0.52637c0.14887,-0.14887 0.32699,-0.22331 0.53435,-0.22331zM219.81407,180.92115h-2.96681l-0.34293,0.91716c-0.14355,0.37218 -0.26318,0.62208 -0.35889,0.74968c-0.09571,0.12229 -0.25255,0.18343 -0.47054,0.18343c-0.19672,0 -0.3642,-0.06912 -0.50244,-0.20736c-0.13292,-0.13824 -0.19938,-0.28711 -0.19938,-0.44662c0,-0.17014 0.06646,-0.428 0.19938,-0.7736l1.88216,-4.74529c0.16482,-0.42535 0.28711,-0.71246 0.36686,-0.86133c0.07976,-0.14887 0.19939,-0.27381 0.35889,-0.37483c0.1595,-0.10102 0.34027,-0.15153 0.54232,-0.15153c0.23394,0 0.43865,0.06381 0.6141,0.19141c0.18077,0.12229 0.32167,0.31104 0.42269,0.56625l2.16927,5.33546c0.13824,0.36686 0.20736,0.63004 0.20736,0.78955c0,0.16482 -0.06912,0.31901 -0.20736,0.46257c-0.13292,0.14355 -0.30306,0.21533 -0.51041,0.21533c-0.21799,0 -0.3775,-0.06114 -0.47852,-0.18343c-0.09571,-0.1276 -0.21799,-0.38548 -0.36686,-0.77361zM217.23008,179.78068h2.1932l-1.11654,-3.00668zM224.0938,176.33536v5.30356c0,0.32964 -0.01595,0.55561 -0.04785,0.6779c-0.02659,0.11697 -0.10368,0.2233 -0.23128,0.31901c-0.12229,0.09038 -0.25521,0.13558 -0.39876,0.13558c-0.14355,0 -0.27914,-0.0452 -0.40674,-0.13558c-0.1276,-0.09571 -0.20735,-0.20469 -0.23925,-0.32698c-0.02659,-0.12229 -0.03988,-0.3456 -0.03988,-0.66993v-5.30356c0,-0.33496 0.01595,-0.56092 0.04785,-0.6779c0.0319,-0.12229 0.10899,-0.22597 0.23128,-0.31104c0.12229,-0.09038 0.25521,-0.13558 0.39876,-0.13558c0.16482,0 0.30572,0.04785 0.42269,0.14356c0.12229,0.09571 0.19672,0.20736 0.22331,0.33496c0.02659,0.1276 0.03987,0.34294 0.03987,0.64599zM226.18233,175.27465c0.18077,0 0.33497,0.06646 0.46257,0.19938c0.1276,0.13292 0.19141,0.28712 0.19141,0.46257c0,0.18077 -0.0638,0.33762 -0.19141,0.47054c-0.1276,0.1276 -0.2818,0.19141 -0.46257,0.19141c-0.18077,0 -0.33762,-0.0638 -0.47054,-0.19141c-0.1276,-0.13292 -0.19141,-0.28977 -0.19141,-0.47054c0,-0.18077 0.0638,-0.33497 0.19141,-0.46257c0.13292,-0.13292 0.28977,-0.19938 0.47054,-0.19938zM226.86023,178.34513v3.29379c0,0.32964 -0.01595,0.55561 -0.04785,0.6779c-0.02659,0.11697 -0.10368,0.2233 -0.23128,0.31901c-0.12229,0.09038 -0.25521,0.13558 -0.39876,0.13558c-0.14355,0 -0.27914,-0.0452 -0.40674,-0.13558c-0.1276,-0.09571 -0.20735,-0.20469 -0.23925,-0.32698c-0.02659,-0.12229 -0.03988,-0.3456 -0.03988,-0.66993v-3.28582c0,-0.29774 0.01064,-0.50776 0.0319,-0.63005c0.02659,-0.1276 0.10102,-0.23925 0.22331,-0.33496c0.12229,-0.10102 0.26318,-0.15153 0.42269,-0.15153c0.1595,0 0.29774,0.0452 0.41472,0.13558c0.11697,0.08507 0.19141,0.19672 0.22331,0.33496c0.0319,0.13292 0.04785,0.3456 0.04785,0.63802zM231.99531,178.1617v-0.18343c0,-0.24457 0.05849,-0.42801 0.17546,-0.5503c0.12229,-0.1276 0.27648,-0.19141 0.46257,-0.19141c0.20736,0 0.36686,0.07178 0.47851,0.21533c0.11166,0.14355 0.16748,0.4546 0.16748,0.93311v3.65268c0,1.08464 -0.22862,1.81305 -0.68587,2.18523c-0.45725,0.3775 -1.11654,0.56625 -1.97787,0.56625c-0.77626,0 -1.38238,-0.14355 -1.81836,-0.43067c-0.43598,-0.28711 -0.65398,-0.59017 -0.65398,-0.90918c0,-0.17014 0.05582,-0.30838 0.16748,-0.41472c0.11697,-0.10634 0.25521,-0.1595 0.41472,-0.1595c0.14355,0 0.25521,0.03456 0.33497,0.10368c0.08507,0.06912 0.22862,0.23128 0.43067,0.48649c0.20736,0.25521 0.5503,0.38281 1.02881,0.38281c0.26585,0 0.51308,-0.04253 0.7417,-0.1276c0.22862,-0.07976 0.39611,-0.22597 0.50244,-0.43864c0.11166,-0.20736 0.16217,-0.72044 0.15153,-1.53923c-0.41472,0.60081 -0.98096,0.90121 -1.69873,0.90121c-0.69651,0 -1.24681,-0.26052 -1.65089,-0.78158c-0.40408,-0.52105 -0.60612,-1.18566 -0.60612,-1.99383c0,-0.80817 0.20736,-1.44884 0.62207,-1.92204c0.41472,-0.4732 0.95437,-0.7098 1.61899,-0.7098c0.72841,0 1.32655,0.30837 1.79443,0.92513zM229.33955,179.98006c0,0.52637 0.11431,0.9278 0.34294,1.20427c0.22862,0.27648 0.54498,0.41472 0.94906,0.41472c0.35091,0 0.65131,-0.13292 0.9012,-0.39876c0.25521,-0.27116 0.38282,-0.67524 0.38282,-1.21225c0,-0.52637 -0.11698,-0.94374 -0.35092,-1.25212c-0.23394,-0.30838 -0.55029,-0.46256 -0.94905,-0.46256c-0.38813,0 -0.69917,0.14621 -0.93311,0.43864c-0.22862,0.28711 -0.34294,0.7098 -0.34294,1.26807zM239.44423,179.40584v2.23308c0,0.29243 -0.01329,0.5051 -0.03987,0.63802c-0.02126,0.1276 -0.09305,0.24191 -0.21534,0.34293c-0.11697,0.10102 -0.25521,0.15153 -0.41472,0.15153c-0.14887,0 -0.28711,-0.0452 -0.41472,-0.13558c-0.12229,-0.09038 -0.19938,-0.20469 -0.23128,-0.34293c-0.0319,-0.14355 -0.04785,-0.36155 -0.04785,-0.65398v-1.95395c0,-0.54764 -0.08241,-0.9145 -0.24723,-1.10059c-0.1595,-0.19141 -0.38281,-0.28711 -0.66993,-0.28711c-0.25521,0 -0.48118,0.07444 -0.6779,0.22331c-0.19672,0.14887 -0.33496,0.33762 -0.41472,0.56625c-0.07976,0.22331 -0.11963,0.60612 -0.11963,1.14844v1.40365c0,0.28711 -0.01064,0.49712 -0.0319,0.63004c-0.02126,0.1276 -0.09304,0.24457 -0.21533,0.35091c-0.12229,0.10102 -0.26318,0.15153 -0.42269,0.15153c-0.15419,0 -0.29509,-0.0452 -0.42269,-0.13558c-0.12229,-0.09571 -0.19672,-0.21001 -0.22331,-0.34293c-0.02659,-0.13824 -0.03987,-0.35623 -0.03987,-0.65398v-3.34962c0,-0.30306 0.01329,-0.51307 0.03987,-0.63004c0.0319,-0.12229 0.10368,-0.2233 0.21534,-0.30306c0.11697,-0.07976 0.24723,-0.11963 0.39078,-0.11963c0.13292,0 0.27116,0.05317 0.41472,0.1595c0.14355,0.10102 0.21534,0.35357 0.21534,0.75765c0.45725,-0.61144 1.0421,-0.91716 1.75456,-0.91716c0.27116,0 0.53966,0.05317 0.80551,0.1595c0.26585,0.10102 0.48118,0.26584 0.646,0.49446c0.17014,0.22862 0.27382,0.46788 0.31104,0.71778c0.03722,0.2499 0.05582,0.51573 0.05582,0.79753zM245.41871,176.47891v1.78646h2.82325c0.23926,0 0.4094,0.01064 0.51042,0.0319c0.10634,0.02126 0.20204,0.08241 0.28711,0.18344c0.08507,0.09571 0.1276,0.21001 0.1276,0.34293c0,0.11697 -0.05051,0.24458 -0.15153,0.38282c-0.09571,0.13292 -0.35358,0.19938 -0.77361,0.19938h-2.82325v2.0975h3.19011c0.28711,0 0.48118,0.01064 0.5822,0.0319c0.10102,0.01595 0.1914,0.07444 0.27116,0.17546c0.07976,0.09571 0.11963,0.21267 0.11963,0.35091c0,0.13292 -0.04253,0.25255 -0.1276,0.35889c-0.07976,0.10102 -0.17811,0.16482 -0.29509,0.19141c-0.11166,0.02126 -0.29509,0.0319 -0.5503,0.0319h-3.42937c-0.52637,0 -0.83209,-0.03722 -0.91716,-0.11166c-0.07976,-0.07976 -0.15418,-0.16482 -0.2233,-0.2552c-0.0638,-0.09571 -0.09571,-0.38548 -0.09571,-0.86931v-4.83302c0,-0.53169 0.03722,-0.83474 0.11166,-0.90918c0.07976,-0.07443 0.16482,-0.14621 0.25521,-0.21533c0.09571,-0.07443 0.38547,-0.11166 0.8693,-0.11166h3.31772c0.26053,0 0.4413,0.01064 0.54232,0.0319c0.10634,0.01595 0.19938,0.07443 0.27913,0.17545c0.08507,0.09571 0.12761,0.21533 0.12761,0.35889c0,0.13824 -0.03987,0.25787 -0.11963,0.35889c-0.07976,0.10102 -0.1728,0.16216 -0.27913,0.18343c-0.10634,0.02126 -0.28977,0.0319 -0.5503,0.0319zM255.44962,179.40584v2.23308c0,0.29243 -0.01329,0.5051 -0.03987,0.63802c-0.02126,0.1276 -0.09305,0.24191 -0.21534,0.34293c-0.11697,0.10102 -0.25521,0.15153 -0.41472,0.15153c-0.14887,0 -0.28711,-0.0452 -0.41472,-0.13558c-0.12229,-0.09038 -0.19938,-0.20469 -0.23128,-0.34293c-0.0319,-0.14355 -0.04785,-0.36155 -0.04785,-0.65398v-1.95395c0,-0.54764 -0.08241,-0.9145 -0.24723,-1.10059c-0.1595,-0.19141 -0.38281,-0.28711 -0.66992,-0.28711c-0.25521,0 -0.48118,0.07444 -0.6779,0.22331c-0.19672,0.14887 -0.33496,0.33762 -0.41472,0.56625c-0.07976,0.22331 -0.11963,0.60612 -0.11963,1.14844v1.40365c0,0.28711 -0.01063,0.49712 -0.0319,0.63004c-0.02126,0.1276 -0.09305,0.24457 -0.21534,0.35091c-0.12229,0.10102 -0.26318,0.15153 -0.42269,0.15153c-0.15419,0 -0.29509,-0.0452 -0.42269,-0.13558c-0.12229,-0.09571 -0.19672,-0.21001 -0.2233,-0.34293c-0.02659,-0.13824 -0.03988,-0.35623 -0.03988,-0.65398v-3.34962c0,-0.30306 0.01329,-0.51307 0.03988,-0.63004c0.0319,-0.12229 0.10367,-0.2233 0.21533,-0.30306c0.11697,-0.07976 0.24724,-0.11963 0.39079,-0.11963c0.13292,0 0.27116,0.05317 0.41471,0.1595c0.14355,0.10102 0.21534,0.35357 0.21534,0.75765c0.45725,-0.61144 1.0421,-0.91716 1.75456,-0.91716c0.27116,0 0.53966,0.05317 0.80551,0.1595c0.26585,0.10102 0.48118,0.26584 0.64599,0.49446c0.17014,0.22862 0.27382,0.46788 0.31104,0.71778c0.03722,0.2499 0.05582,0.51573 0.05582,0.79753zM260.54683,178.1617v-0.18343c0,-0.24457 0.05848,-0.42801 0.17545,-0.5503c0.12229,-0.1276 0.27648,-0.19141 0.46257,-0.19141c0.20736,0 0.36686,0.07178 0.47852,0.21533c0.11165,0.14355 0.16748,0.4546 0.16748,0.93311v3.65268c0,1.08464 -0.22862,1.81305 -0.68587,2.18523c-0.45725,0.3775 -1.11654,0.56625 -1.97787,0.56625c-0.77626,0 -1.38238,-0.14355 -1.81837,-0.43067c-0.43598,-0.28711 -0.65398,-0.59017 -0.65398,-0.90918c0,-0.17014 0.05583,-0.30838 0.16748,-0.41472c0.11697,-0.10634 0.25521,-0.1595 0.41472,-0.1595c0.14355,0 0.25521,0.03456 0.33497,0.10368c0.08507,0.06912 0.22862,0.23128 0.43066,0.48649c0.20736,0.25521 0.5503,0.38281 1.02881,0.38281c0.26585,0 0.51308,-0.04253 0.7417,-0.1276c0.22862,-0.07976 0.39611,-0.22597 0.50245,-0.43864c0.11165,-0.20736 0.16217,-0.72044 0.15153,-1.53923c-0.41472,0.60081 -0.98096,0.90121 -1.69873,0.90121c-0.69651,0 -1.2468,-0.26052 -1.65089,-0.78158c-0.40408,-0.52105 -0.60612,-1.18566 -0.60612,-1.99383c0,-0.80817 0.20736,-1.44884 0.62207,-1.92204c0.41472,-0.4732 0.95437,-0.7098 1.61899,-0.7098c0.72841,0 1.32656,0.30837 1.79444,0.92513zM257.89106,179.98006c0,0.52637 0.11431,0.9278 0.34293,1.20427c0.22863,0.27648 0.54498,0.41472 0.94906,0.41472c0.35091,0 0.65131,-0.13292 0.90121,-0.39876c0.25521,-0.27116 0.38281,-0.67524 0.38281,-1.21225c0,-0.52637 -0.11697,-0.94374 -0.35091,-1.25212c-0.23394,-0.30838 -0.5503,-0.46256 -0.94906,-0.46256c-0.38813,0 -0.69917,0.14621 -0.93311,0.43864c-0.22862,0.28711 -0.34293,0.7098 -0.34293,1.26807zM263.88049,175.27465c0.18077,0 0.33496,0.06646 0.46256,0.19938c0.1276,0.13292 0.19141,0.28712 0.19141,0.46257c0,0.18077 -0.06381,0.33762 -0.19141,0.47054c-0.1276,0.1276 -0.2818,0.19141 -0.46256,0.19141c-0.18077,0 -0.33762,-0.0638 -0.47054,-0.19141c-0.12761,-0.13292 -0.19141,-0.28977 -0.19141,-0.47054c0,-0.18077 0.06381,-0.33497 0.19141,-0.46257c0.13292,-0.13292 0.28977,-0.19938 0.47054,-0.19938zM264.55839,178.34513v3.29379c0,0.32964 -0.01595,0.55561 -0.04785,0.6779c-0.02659,0.11697 -0.10368,0.2233 -0.23129,0.31901c-0.12229,0.09038 -0.25521,0.13558 -0.39876,0.13558c-0.14355,0 -0.27913,-0.0452 -0.40674,-0.13558c-0.12761,-0.09571 -0.20736,-0.20469 -0.23926,-0.32698c-0.02659,-0.12229 -0.03988,-0.3456 -0.03988,-0.66993v-3.28582c0,-0.29774 0.01064,-0.50776 0.0319,-0.63005c0.02659,-0.1276 0.10102,-0.23925 0.2233,-0.33496c0.12229,-0.10102 0.26319,-0.15153 0.42269,-0.15153c0.1595,0 0.29774,0.0452 0.41472,0.13558c0.11697,0.08507 0.19141,0.19672 0.22331,0.33496c0.0319,0.13292 0.04785,0.3456 0.04785,0.63802zM270.76216,179.40584v2.23308c0,0.29243 -0.01329,0.5051 -0.03987,0.63802c-0.02127,0.1276 -0.09305,0.24191 -0.21534,0.34293c-0.11697,0.10102 -0.2552,0.15153 -0.41471,0.15153c-0.14887,0 -0.28711,-0.0452 -0.41472,-0.13558c-0.12229,-0.09038 -0.19938,-0.20469 -0.23128,-0.34293c-0.0319,-0.14355 -0.04785,-0.36155 -0.04785,-0.65398v-1.95395c0,-0.54764 -0.08241,-0.9145 -0.24723,-1.10059c-0.15951,-0.19141 -0.38282,-0.28711 -0.66993,-0.28711c-0.25521,0 -0.48118,0.07444 -0.6779,0.22331c-0.19672,0.14887 -0.33496,0.33762 -0.41472,0.56625c-0.07975,0.22331 -0.11962,0.60612 -0.11962,1.14844v1.40365c0,0.28711 -0.01064,0.49712 -0.0319,0.63004c-0.02126,0.1276 -0.09304,0.24457 -0.21533,0.35091c-0.12229,0.10102 -0.26319,0.15153 -0.42269,0.15153c-0.15419,0 -0.29509,-0.0452 -0.42269,-0.13558c-0.12229,-0.09571 -0.19673,-0.21001 -0.22331,-0.34293c-0.02659,-0.13824 -0.03987,-0.35623 -0.03987,-0.65398v-3.34962c0,-0.30306 0.01329,-0.51307 0.03987,-0.63004c0.0319,-0.12229 0.10368,-0.2233 0.21534,-0.30306c0.11697,-0.07976 0.24723,-0.11963 0.39079,-0.11963c0.13292,0 0.27115,0.05317 0.41471,0.1595c0.14355,0.10102 0.21534,0.35357 0.21534,0.75765c0.45725,-0.61144 1.0421,-0.91716 1.75456,-0.91716c0.27116,0 0.53966,0.05317 0.8055,0.1595c0.26585,0.10102 0.48118,0.26584 0.646,0.49446c0.17014,0.22862 0.27382,0.46788 0.31103,0.71778c0.03722,0.2499 0.05583,0.51573 0.05583,0.79753zM275.92317,180.33895h-2.67172c0.01595,0.5051 0.15419,0.88526 0.41472,1.14047c0.26585,0.25521 0.58486,0.38281 0.95704,0.38281c0.45193,0 0.87994,-0.19939 1.28402,-0.59815c0.16482,-0.16482 0.28445,-0.26584 0.35889,-0.30306c0.07975,-0.04253 0.16748,-0.0638 0.26319,-0.0638c0.12229,0 0.22597,0.03987 0.31104,0.11963c0.09039,0.07443 0.13558,0.16748 0.13558,0.27913c0,0.30838 -0.21002,0.6327 -0.63005,0.97298c-0.41472,0.33496 -0.98096,0.50244 -1.69873,0.50244c-0.90918,0 -1.60037,-0.25786 -2.07357,-0.7736c-0.46788,-0.51574 -0.70182,-1.18035 -0.70182,-1.99383c0,-0.82412 0.23395,-1.49137 0.70182,-2.00179c0.4732,-0.51042 1.12983,-0.76562 1.9699,-0.76562c0.79753,0 1.41429,0.24192 1.85027,0.72575c0.43598,0.47851 0.65397,0.99957 0.65397,1.56315c0,0.2499 -0.07178,0.44928 -0.21533,0.59814c-0.14355,0.14355 -0.44662,0.21534 -0.90918,0.21534zM273.25145,179.56535h2.48032c-0.01595,-0.45193 -0.1409,-0.79753 -0.37484,-1.03679c-0.23394,-0.23926 -0.52105,-0.35889 -0.86133,-0.35889c-0.72309,0 -1.13781,0.46523 -1.24415,1.39568zM280.99246,179.02303c0,-1.16439 0.31104,-2.08952 0.93311,-2.7754c0.62207,-0.69119 1.49138,-1.03679 2.60791,-1.03679c1.18034,0 2.07623,0.34825 2.68767,1.04476c0.61143,0.69651 0.91716,1.60569 0.91716,2.72754c0,1.12186 -0.30573,2.0337 -0.91716,2.73553c-0.60612,0.70183 -1.48872,1.05273 -2.64779,1.05273c-1.15907,0 -2.04699,-0.34825 -2.66374,-1.04476c-0.61143,-0.70183 -0.91716,-1.60303 -0.91716,-2.70362zM286.63896,178.99113c0,-0.79753 -0.18343,-1.43023 -0.5503,-1.89811c-0.36154,-0.46788 -0.8693,-0.70183 -1.52328,-0.70183c-0.60612,0 -1.10325,0.21799 -1.49138,0.65397c-0.38813,0.43067 -0.5822,1.07933 -0.5822,1.94597c0,0.86133 0.19672,1.50999 0.59017,1.94597c0.39345,0.43598 0.88525,0.65398 1.47542,0.65398c0.57422,0 1.06338,-0.21533 1.46746,-0.646c0.4094,-0.43067 0.6141,-1.08198 0.6141,-1.95395zM289.26881,180.74569v-2.39258c0,-0.29243 0.01063,-0.5051 0.0319,-0.63802c0.02659,-0.13292 0.09836,-0.24457 0.21533,-0.33496c0.11697,-0.09571 0.26052,-0.14355 0.43066,-0.14355c0.15951,0 0.29775,0.0452 0.41472,0.13558c0.12229,0.09038 0.19673,0.21001 0.22331,0.35888c0.0319,0.14355 0.04785,0.36155 0.04785,0.65398v1.87419c0,0.61144 0.09571,1.00489 0.28711,1.18035c0.1914,0.17014 0.40142,0.2552 0.63005,0.2552c0.26052,0 0.48915,-0.07178 0.68588,-0.21533c0.20204,-0.14887 0.33761,-0.32699 0.40673,-0.53435c0.06912,-0.21267 0.10368,-0.62474 0.10368,-1.23617v-1.3558c0,-0.28711 0.01329,-0.49979 0.03987,-0.63802c0.0319,-0.13824 0.10634,-0.25255 0.22331,-0.34293c0.12229,-0.09038 0.26584,-0.13558 0.43066,-0.13558c0.15419,0 0.29242,0.0452 0.41472,0.13558c0.12229,0.09038 0.19407,0.20204 0.21534,0.33496c0.02659,0.13292 0.03987,0.34825 0.03987,0.646v3.36557c0,0.27648 -0.01329,0.47585 -0.03987,0.59814c-0.02659,0.12229 -0.09305,0.22862 -0.19939,0.31901c-0.10102,0.09038 -0.23129,0.13558 -0.39079,0.13558c-0.4413,0 -0.65397,-0.31636 -0.63802,-0.94906c-0.45193,0.6327 -1.05008,0.94906 -1.79444,0.94906c-0.49447,0 -0.9145,-0.14621 -1.26009,-0.43864c-0.3456,-0.29774 -0.51839,-0.82677 -0.51839,-1.58708zM295.69788,177.3562v-0.82146c0,-0.33496 0.01329,-0.56093 0.03987,-0.6779c0.0319,-0.12229 0.10634,-0.23128 0.22331,-0.32699c0.11697,-0.09571 0.2552,-0.14355 0.41471,-0.14355c0.14887,0 0.2818,0.04253 0.39877,0.1276c0.11697,0.08507 0.19407,0.19141 0.23128,0.31901c0.03722,0.12229 0.05583,0.32167 0.05583,0.59814v0.92514h0.26319c0.33496,0 0.55561,0.03987 0.66195,0.11963c0.11165,0.07976 0.16748,0.19938 0.16748,0.35888c0,0.33496 -0.27914,0.50244 -0.83741,0.50244h-0.25521v2.51221c0,0.34028 0.02393,0.57156 0.07178,0.69385c0.04785,0.12229 0.17546,0.18344 0.38281,0.18344c0.10102,0 0.21267,-0.01329 0.33496,-0.03988c0.12761,-0.0319 0.22065,-0.04785 0.27913,-0.04785c0.13824,0 0.24989,0.0452 0.33496,0.13558c0.08507,0.09038 0.1276,0.19938 0.1276,0.32698c0,0.44662 -0.47054,0.66993 -1.41162,0.66993c-0.45725,0 -0.79221,-0.08507 -1.00489,-0.25521c-0.21267,-0.17014 -0.3456,-0.37483 -0.39877,-0.61409c-0.05317,-0.24457 -0.07975,-0.56358 -0.07975,-0.95703v-2.60792h-0.17546c-0.40408,0 -0.60612,-0.16482 -0.60612,-0.49447c0,-0.32432 0.21268,-0.48649 0.63803,-0.48649zM300.30859,178.14575c0.47852,-0.60612 1.06869,-0.90918 1.77051,-0.90918c0.69651,0 1.24946,0.26318 1.65886,0.78955c0.41472,0.52105 0.62207,1.19896 0.62207,2.0337c0,0.79221 -0.20204,1.44352 -0.60613,1.95395c-0.39877,0.5051 -0.95437,0.75765 -1.66683,0.75765c-0.67524,0 -1.26806,-0.28445 -1.77848,-0.85335v1.77849c0,0.48915 -0.06114,0.7922 -0.18343,0.90918c-0.12229,0.12229 -0.28711,0.18344 -0.49447,0.18344c-0.24989,0 -0.42535,-0.08241 -0.52637,-0.24723c-0.10102,-0.16482 -0.15153,-0.45991 -0.15153,-0.88526v-5.36737c0,-0.28179 0.01063,-0.48649 0.0319,-0.61409c0.02659,-0.13292 0.09837,-0.23925 0.21533,-0.31901c0.12229,-0.07976 0.26585,-0.11963 0.43067,-0.11963c0.45193,0 0.6779,0.25255 0.6779,0.75765zM302.98031,180.02792c0,-0.59548 -0.12495,-1.03679 -0.37484,-1.3239c-0.24989,-0.28711 -0.54232,-0.43066 -0.87728,-0.43066c-0.38813,0 -0.7098,0.14621 -0.96501,0.43864c-0.24989,0.29243 -0.37484,0.70182 -0.37484,1.22819c0,0.54764 0.12229,0.98362 0.36687,1.30794c0.24457,0.31901 0.57156,0.47852 0.98096,0.47852c0.36687,0 0.6646,-0.14888 0.89323,-0.44662c0.23394,-0.30306 0.35091,-0.72043 0.35091,-1.25212zM305.42872,180.74569v-2.39258c0,-0.29243 0.01063,-0.5051 0.0319,-0.63802c0.02659,-0.13292 0.09837,-0.24457 0.21533,-0.33496c0.11697,-0.09571 0.26052,-0.14355 0.43066,-0.14355c0.15951,0 0.29775,0.0452 0.41472,0.13558c0.12229,0.09038 0.19672,0.21001 0.22331,0.35888c0.0319,0.14355 0.04785,0.36155 0.04785,0.65398v1.87419c0,0.61144 0.09571,1.00489 0.28711,1.18035c0.1914,0.17014 0.40142,0.2552 0.63004,0.2552c0.26052,0 0.48915,-0.07178 0.68587,-0.21533c0.20204,-0.14887 0.33762,-0.32699 0.40674,-0.53435c0.06912,-0.21267 0.10368,-0.62474 0.10368,-1.23617v-1.3558c0,-0.28711 0.01329,-0.49979 0.03987,-0.63802c0.0319,-0.13824 0.10634,-0.25255 0.22331,-0.34293c0.12229,-0.09038 0.26584,-0.13558 0.43066,-0.13558c0.15419,0 0.29242,0.0452 0.41472,0.13558c0.12229,0.09038 0.19406,0.20204 0.21533,0.33496c0.02659,0.13292 0.03987,0.34825 0.03987,0.646v3.36557c0,0.27648 -0.01329,0.47585 -0.03987,0.59814c-0.02659,0.12229 -0.09304,0.22862 -0.19938,0.31901c-0.10102,0.09038 -0.23129,0.13558 -0.39079,0.13558c-0.4413,0 -0.65397,-0.31636 -0.63802,-0.94906c-0.45193,0.6327 -1.05008,0.94906 -1.79444,0.94906c-0.49447,0 -0.9145,-0.14621 -1.26009,-0.43864c-0.3456,-0.29774 -0.51839,-0.82677 -0.51839,-1.58708zM311.8578,177.3562v-0.82146c0,-0.33496 0.01329,-0.56093 0.03987,-0.6779c0.0319,-0.12229 0.10634,-0.23128 0.22331,-0.32699c0.11697,-0.09571 0.2552,-0.14355 0.41471,-0.14355c0.14887,0 0.2818,0.04253 0.39877,0.1276c0.11697,0.08507 0.19407,0.19141 0.23128,0.31901c0.03722,0.12229 0.05583,0.32167 0.05583,0.59814v0.92514h0.26318c0.33496,0 0.55561,0.03987 0.66195,0.11963c0.11165,0.07976 0.16748,0.19938 0.16748,0.35888c0,0.33496 -0.27913,0.50244 -0.8374,0.50244h-0.25521v2.51221c0,0.34028 0.02393,0.57156 0.07178,0.69385c0.04785,0.12229 0.17546,0.18344 0.38281,0.18344c0.10102,0 0.21267,-0.01329 0.33496,-0.03988c0.12761,-0.0319 0.22065,-0.04785 0.27913,-0.04785c0.13824,0 0.24989,0.0452 0.33496,0.13558c0.08507,0.09038 0.12761,0.19938 0.12761,0.32698c0,0.44662 -0.47054,0.66993 -1.41163,0.66993c-0.45725,0 -0.79221,-0.08507 -1.00489,-0.25521c-0.21267,-0.17014 -0.34559,-0.37483 -0.39876,-0.61409c-0.05317,-0.24457 -0.07975,-0.56358 -0.07975,-0.95703v-2.60792h-0.17546c-0.40408,0 -0.60612,-0.16482 -0.60612,-0.49447c0,-0.32432 0.21267,-0.48649 0.63802,-0.48649zM320.47209,184.78916c-0.24457,0 -0.43066,-0.04785 -0.55827,-0.14356c-0.12761,-0.09038 -0.3456,-0.38547 -0.65397,-0.88526c-0.30838,-0.49979 -0.56093,-1.08197 -0.75765,-1.74658c-0.19673,-0.66461 -0.29508,-1.33454 -0.29508,-2.00978c0,-0.73372 0.11165,-1.4515 0.33497,-2.15332c0.22331,-0.70714 0.48383,-1.28934 0.78157,-1.74659c0.30306,-0.45725 0.51042,-0.72043 0.62207,-0.78955c0.11697,-0.06912 0.29242,-0.10368 0.52636,-0.10368c0.14887,0 0.22331,0.04253 0.22331,0.1276c0,0.0319 -0.109,0.27914 -0.32699,0.7417c-0.21799,0.46257 -0.41737,1.06869 -0.59814,1.81837c-0.18077,0.74967 -0.27116,1.45149 -0.27116,2.10547c0,0.65929 0.09039,1.3691 0.27116,2.12941c0.18077,0.755 0.38016,1.35048 0.59814,1.78646c0.21799,0.43598 0.32699,0.68588 0.32699,0.74968c0,0.07976 -0.07444,0.11963 -0.22331,0.11963zM324.2135,175.2906c0.755,0 1.36909,0.28711 1.84229,0.86133c0.47852,0.56891 0.71777,1.53923 0.71777,2.91098c0,1.38238 -0.25255,2.34739 -0.75765,2.89503c-0.49978,0.54232 -1.09528,0.81348 -1.78647,0.81348c-0.71778,0 -1.32656,-0.28977 -1.82634,-0.8693c-0.49447,-0.57953 -0.7417,-1.51796 -0.7417,-2.81527c0,-1.34517 0.22064,-2.31284 0.66195,-2.90301c0.4413,-0.59548 1.07135,-0.89323 1.89015,-0.89323zM324.2135,181.75855c0.4094,0 0.7098,-0.19938 0.90121,-0.59815c0.1914,-0.39876 0.28711,-1.12983 0.28711,-2.1932c0,-0.96767 -0.09571,-1.65354 -0.28711,-2.05762c-0.18609,-0.40408 -0.48649,-0.60612 -0.90121,-0.60612c-0.39877,0 -0.69385,0.19672 -0.88526,0.59017c-0.1914,0.38813 -0.28711,1.09261 -0.28711,2.11345c0,1.03679 0.09571,1.75456 0.28711,2.15333c0.1914,0.39876 0.48649,0.59815 0.88526,0.59815zM327.48835,181.75855l1.40365,-5.75018c0.06912,-0.31901 0.13558,-0.53168 0.19939,-0.63802c0.06912,-0.10634 0.19672,-0.15951 0.38281,-0.15951c0.3456,0 0.51839,0.14356 0.51839,0.43067c0,0.10634 -0.03456,0.3004 -0.10368,0.58219l-1.39568,5.75018c-0.0638,0.30838 -0.13292,0.51839 -0.20736,0.63005c-0.06912,0.11166 -0.19407,0.16748 -0.37484,0.16748c-0.3456,0 -0.51839,-0.14355 -0.51839,-0.43067c0,-0.11166 0.0319,-0.30572 0.0957,-0.58219zM335.03596,182.64381h-3.46127c-0.36687,0 -0.60612,-0.07976 -0.71778,-0.23926c-0.11165,-0.1595 -0.16748,-0.30306 -0.16748,-0.43067c0,-0.25521 0.13026,-0.56092 0.39079,-0.91716c0.26585,-0.36155 0.76031,-0.84272 1.48341,-1.44352c0.72841,-0.60612 1.20161,-1.0421 1.4196,-1.30795c0.21799,-0.26585 0.32699,-0.56358 0.32699,-0.89323c0,-0.32964 -0.11165,-0.59017 -0.33496,-0.78158c-0.22331,-0.19672 -0.49447,-0.29509 -0.81348,-0.29509c-0.26585,0 -0.50245,0.07444 -0.7098,0.22331c-0.20736,0.14355 -0.35888,0.35357 -0.45459,0.63004c-0.09039,0.27648 -0.18077,0.47852 -0.27116,0.60612c-0.09039,0.12229 -0.2366,0.18343 -0.43864,0.18343c-0.17014,0 -0.31104,-0.05317 -0.42269,-0.15951c-0.11165,-0.11166 -0.16748,-0.26052 -0.16748,-0.44661c0,-0.5051 0.21533,-0.9783 0.64599,-1.4196c0.43066,-0.4413 1.04476,-0.66195 1.84229,-0.66195c0.85069,0 1.47543,0.21002 1.8742,0.63005c0.40408,0.41472 0.60612,0.89855 0.60612,1.4515c0,0.4413 -0.13292,0.86133 -0.39876,1.26009c-0.26052,0.39345 -0.67259,0.81614 -1.23617,1.26807c-0.55827,0.45193 -0.91981,0.75499 -1.08463,0.90918c-0.15951,0.15419 -0.34028,0.37218 -0.54232,0.65398h2.43246c0.3775,0 0.6327,0.05317 0.76563,0.1595c0.13292,0.10634 0.19939,0.2499 0.19939,0.43067c0,0.19141 -0.06114,0.33762 -0.18343,0.43864c-0.11697,0.10102 -0.31104,0.15153 -0.5822,0.15153zM336.91514,175.21084c0.23926,0 0.42269,0.04519 0.5503,0.13558c0.12761,0.09038 0.3456,0.38814 0.65398,0.89324c0.30838,0.5051 0.56092,1.08995 0.75765,1.75456c0.19673,0.65929 0.29509,1.32921 0.29509,2.00977c0,0.72841 -0.11165,1.44619 -0.33496,2.15333c-0.22331,0.70183 -0.48649,1.28136 -0.78956,1.73861c-0.29775,0.45725 -0.5051,0.72043 -0.62207,0.78955c-0.11165,0.06912 -0.28179,0.10368 -0.51042,0.10368c-0.14887,0 -0.22331,-0.03987 -0.22331,-0.11963c0,-0.03722 0.10634,-0.28711 0.31901,-0.74968c0.21799,-0.46257 0.41737,-1.06869 0.59814,-1.81836c0.18609,-0.74967 0.27914,-1.44885 0.27914,-2.0975c0,-0.66461 -0.09305,-1.3744 -0.27914,-2.1294c-0.18077,-0.76031 -0.38016,-1.35845 -0.59814,-1.79443c-0.21267,-0.43598 -0.31901,-0.68322 -0.31901,-0.7417c0,-0.08507 0.07444,-0.1276 0.22331,-0.1276z"/></g></g></svg>