<svg version="1.1" xmlns="http://www.w3.org/2000/svg" xmlns:xlink="http://www.w3.org/1999/xlink" width="37.10774" height="44.66667" viewBox="0,0,37.10774,44.66667"><g transform="translate(-220.72559,-172.13333)"><g data-paper-data="{&quot;isPaintingLayer&quot;:true}" fill-rule="nonzero" stroke-linejoin="miter" stroke-miterlimit="10" stroke-dasharray="" stroke-dashoffset="0" style="mix-blend-mode: normal"><path d="M227.87033,206.86061c1.08033,-4.55845 4.26857,-17.92102 6.12036,-24.72596c1.32353,-4.86367 10.01591,-6.96744 12.21948,0.89394c1.73578,6.19252 4.63517,16.68425 6.11285,22.03822c0.20187,0.73142 0.37721,1.36696 0.51942,1.88255c0.25851,0.93723 0.17274,1.77749 -0.89203,2.46919c-1.85255,1.20347 -6.4605,3.32227 -12.32541,3.25892c-6.36465,-0.06875 -9.02679,-1.67978 -11.13229,-2.83882c-0.96023,-0.52859 -0.85744,-1.98621 -0.62238,-2.97804z" fill="#252525" stroke="#252525" stroke-width="2.5" stroke-linecap="butt"/><path d="M232.875,204.30246l6.1875,-23.5l5.0625,23.5z" fill="#252525" stroke="#252525" stroke-width="0" stroke-linecap="butt"/><path d="M233.37842,205.34909c0.99667,-5.4167 4.74658,-24.29662 4.74658,-24.29662" fill="#252525" stroke="#252525" stroke-width="2.5" stroke-linecap="round"/><path d="M227.87033,206.86061c1.08033,-4.55845 4.26857,-17.92102 6.12036,-24.72595c1.32352,-4.86367 10.01591,-6.96744 12.21948,0.89394c1.73578,6.19252 4.63518,16.68425 6.11286,22.03822c0.20187,0.73143 0.37721,1.36696 0.51942,1.88255c0.25851,0.93723 0.17274,1.77749 -0.89203,2.46919c-1.85255,1.20347 -6.4605,3.32227 -12.32541,3.25891c-6.36465,-0.06876 -9.02678,-1.67978 -11.13229,-2.83882c-0.96023,-0.52859 -0.85744,-1.98621 -0.62238,-2.97804z" fill="#252525" stroke="#252525" stroke-width="2.5" stroke-linecap="butt"/><path d="M245.875,205.55246l-3.8125,-25l9.0625,26.25z" fill="#252525" stroke="#252525" stroke-width="0" stroke-linecap="butt"/><path d="M249.125,208.42747c0,0.75939 -3.64137,2.125 -8.75,2.125c-5.10863,0 -9,-1.11561 -9,-1.875c0,-0.75939 3.89137,-1.375 9,-1.375c5.10863,0 8.75,0.36561 8.75,1.125z" fill="#252525" stroke="#252525" stroke-width="0" stroke-linecap="butt"/><path d="M241.87842,181.05247c0,0 3.7499,18.87992 4.74658,24.29663" data-paper-data="{&quot;index&quot;:null}" fill="#252525" stroke="#252525" stroke-width="2.5" stroke-linecap="round"/><path d="M227.93732,208.1378c1.30495,-1.6223 6.29591,-2.83534 12.56268,-2.83534c3.59648,0 6.8551,0.39952 9.22579,1.04664c0.65984,0.18011 2.00089,0.62941 2.51129,0.84461" fill="#252525" stroke="#252525" stroke-width="2.5" stroke-linecap="butt"/><path d="M220.72559,216.79999v-44.66667h37.10774v44.66667z" fill="none" stroke="none" stroke-width="none" stroke-linecap="butt"/></g></g></svg>