<svg version="1.1" viewBox="0.0 0.0 960.0 720.0" fill="none" stroke="none" stroke-linecap="square" stroke-miterlimit="10" xmlns:xlink="http://www.w3.org/1999/xlink" xmlns="http://www.w3.org/2000/svg"><clipPath id="p.0"><path d="m0 0l960.0 0l0 720.0l-960.0 0l0 -720.0z" clip-rule="nonzero"/></clipPath><g clip-path="url(#p.0)"><path fill="#000000" fill-opacity="0.0" d="m0 0l960.0 0l0 720.0l-960.0 0z" fill-rule="evenodd"/><path fill="#000000" fill-opacity="0.0" d="m27.041994 25.262466l900.8819 0l0 694.7402l-900.8819 0z" fill-rule="evenodd"/><path fill="#000000" d="m382.98685 452.19373l10.75 0q1.734375 0 2.28125 0.125q0.546875 0.109375 1.109375 0.6875q0.578125 0.5625 0.578125 1.375q0 0.8125 -0.53125 1.4375q-0.53125 0.609375 -1.1875 0.734375q-0.65625 0.109375 -2.25 0.109375l-11.640625 0q-3.125 0 -3.59375 -0.453125q-0.453125 -0.46875 -0.859375 -1.015625q-0.40625 -0.546875 -0.40625 -3.375l0 -19.46875q0 -1.984375 0.140625 -2.75q0.140625 -0.765625 0.90625 -1.40625q0.765625 -0.65625 1.8125 -0.65625q1.09375 0 1.859375 0.625q0.765625 0.625 0.890625 1.4375q0.140625 0.8125 0.140625 2.75l0 19.84375zm27.472656 -16.71875q4.953125 0 7.796875 3.0625q2.84375 3.046875 2.84375 7.765625q0 4.75 -2.890625 7.796875q-2.875 3.046875 -7.625 3.046875q-5.15625 0 -7.953125 -3.078125q-2.796875 -3.09375 -2.796875 -7.765625q0 -4.734375 2.828125 -7.78125q2.84375 -3.046875 7.796875 -3.046875zm0 17.703125q2.421875 0 3.828125 -1.8125q1.421875 -1.828125 1.421875 -5.0625q0 -3.234375 -1.421875 -5.0625q-1.40625 -1.828125 -3.828125 -1.828125q-2.390625 0 -3.8125 1.84375q-1.421875 1.828125 -1.421875 5.046875q0 3.25 1.40625 5.0625q1.421875 1.8125 3.828125 1.8125zm28.316406 0.96875q-3.8125 3.0 -7.46875 3.0q-3.453125 0 -5.3125 -1.75q-1.84375 -1.765625 -1.84375 -4.296875q0 -2.171875 1.25 -3.5q1.265625 -1.34375 2.75 -1.875q1.484375 -0.53125 4.828125 -1.21875q3.359375 -0.703125 5.40625 -1.28125q-0.015625 -2.421875 -0.953125 -3.265625q-0.9375 -0.859375 -2.859375 -0.859375q-3.625 0 -4.75 2.03125q-0.625 1.15625 -1.109375 1.640625q-0.484375 0.484375 -1.40625 0.484375q-0.84375 0 -1.53125 -0.546875q-0.671875 -0.5625 -0.671875 -1.4375q0 -2.078125 2.234375 -3.9375q2.25 -1.859375 7.078125 -1.859375q4.890625 0 7.15625 1.6875q2.265625 1.6875 2.125 6.828125l-0.125 5.0q-0.078125 2.3125 0.484375 3.78125q0.5625 1.46875 0.5625 2.25q0 0.84375 -0.75 1.484375q-0.734375 0.640625 -1.671875 0.640625q-1.625 0 -3.421875 -3.0zm-0.359375 -7.71875q-1.1875 0.46875 -3.9375 1.015625q-2.734375 0.546875 -3.875 1.25q-1.140625 0.703125 -1.140625 2.046875q0 1.15625 0.90625 2.03125q0.90625 0.875 2.5625 0.875q1.765625 0 3.265625 -0.953125q1.515625 -0.96875 1.859375 -2.296875q0.359375 -1.328125 0.359375 -3.96875zm25.222656 7.671875l0 -0.53125q-2.75 3.578125 -6.96875 3.578125q-4.09375 0 -6.5 -3.09375q-2.40625 -3.109375 -2.40625 -8.03125q0 -4.65625 2.34375 -7.59375q2.359375 -2.953125 6.515625 -2.953125q4.046875 0 7.015625 3.25l0 -6.90625q0 -2.875 0.71875 -3.578125q0.71875 -0.703125 1.953125 -0.703125q0.859375 0 1.578125 0.5q0.734375 0.5 0.890625 1.296875q0.171875 0.796875 0.171875 2.640625l0 21.015625q0 1.78125 -0.1875 2.546875q-0.1875 0.75 -0.90625 1.171875q-0.71875 0.4375 -1.578125 0.4375q-2.640625 0 -2.640625 -3.046875zm-10.484375 -7.921875q0 3.59375 1.5 5.25q1.515625 1.640625 3.453125 1.640625q2.265625 0 3.75 -1.71875q1.484375 -1.71875 1.484375 -4.8125q0 -3.21875 -1.453125 -5.125q-1.4375 -1.921875 -3.8125 -1.921875q-2.171875 0 -3.546875 1.78125q-1.375 1.78125 -1.375 4.90625zm23.609375 -18.40625q1.03125 0 1.796875 0.78125q0.765625 0.78125 0.765625 1.8125q0 1.078125 -0.765625 1.859375q-0.765625 0.765625 -1.796875 0.765625q-1.078125 0 -1.859375 -0.765625q-0.765625 -0.78125 -0.765625 -1.859375q0 -1.046875 0.765625 -1.8125q0.78125 -0.78125 1.859375 -0.78125zm2.640625 12.046875l0 12.921875q0 1.90625 -0.1875 2.609375q-0.171875 0.703125 -0.890625 1.25q-0.71875 0.546875 -1.5625 0.546875q-0.859375 0 -1.609375 -0.53125q-0.734375 -0.546875 -0.921875 -1.265625q-0.171875 -0.71875 -0.171875 -2.609375l0 -12.875q0 -1.78125 0.140625 -2.515625q0.140625 -0.734375 0.84375 -1.296875q0.71875 -0.578125 1.65625 -0.578125q0.953125 0 1.640625 0.515625q0.6875 0.515625 0.875 1.3125q0.1875 0.78125 0.1875 2.515625zm24.308594 4.171875l0 8.75q0 1.6875 -0.140625 2.46875q-0.125 0.765625 -0.828125 1.359375q-0.703125 0.578125 -1.671875 0.578125q-0.859375 0 -1.609375 -0.515625q-0.734375 -0.515625 -0.90625 -1.34375q-0.171875 -0.828125 -0.171875 -2.546875l0 -7.6875q0 -3.203125 -0.96875 -4.3125q-0.953125 -1.109375 -2.625 -1.109375q-1.53125 0 -2.6875 0.875q-1.140625 0.875 -1.609375 2.203125q-0.46875 1.3125 -0.46875 4.515625l0 5.515625q0 1.671875 -0.125 2.4375q-0.125 0.765625 -0.859375 1.375q-0.71875 0.59375 -1.65625 0.59375q-0.875 0 -1.625 -0.53125q-0.734375 -0.546875 -0.890625 -1.34375q-0.15625 -0.796875 -0.15625 -2.53125l0 -13.15625q0 -1.765625 0.15625 -2.46875q0.171875 -0.703125 0.84375 -1.171875q0.671875 -0.46875 1.515625 -0.46875q0.78125 0 1.625 0.609375q0.859375 0.609375 0.859375 2.984375q2.671875 -3.59375 6.875 -3.59375q1.59375 0 3.15625 0.609375q1.5625 0.59375 2.546875 1.953125q1.0 1.359375 1.203125 2.8125q0.21875 1.453125 0.21875 3.140625zm19.957062 -4.890625l0 -0.71875q0 -1.453125 0.71875 -2.171875q0.71875 -0.734375 1.8125 -0.734375q1.203125 0 1.859375 0.84375q0.65625 0.84375 0.65625 3.65625l0 14.328125q0 6.359375 -2.6875 8.5625q-2.6875 2.203125 -7.765625 2.203125q-4.546875 0 -7.1094055 -1.6875q-2.5625 -1.671875 -2.5625 -3.546875q0 -1.015625 0.671875 -1.640625q0.6875 -0.609375 1.59375 -0.609375q0.84375 0 1.3437805 0.390625q0.5 0.40625 1.6875 1.90625q1.1875 1.515625 4.03125 1.515625q1.5625 0 2.890625 -0.5q1.34375 -0.484375 1.96875 -1.734375q0.640625 -1.234375 0.609375 -6.015625q-2.453125 3.515625 -6.6875 3.515625q-4.078125 0 -6.4531555 -3.046875q-2.375 -3.0625 -2.375 -7.828125q0 -4.75 2.4375 -7.53125q2.4531555 -2.78125 6.3594055 -2.78125q4.265625 0 7.0 3.625zm-10.40625 7.109375q0 3.109375 1.359375 4.75q1.359375 1.625 3.71875 1.625q2.046875 0 3.546875 -1.578125q1.5 -1.59375 1.5 -4.734375q0 -3.109375 -1.390625 -4.921875q-1.375 -1.8125 -3.734375 -1.8125q-2.265625 0 -3.640625 1.703125q-1.359375 1.6875 -1.359375 4.96875zm36.21869 5.0625q1.1875 0 2.046875 0.859375q0.859375 0.859375 0.859375 2.046875q0 1.21875 -0.859375 2.09375q-0.859375 0.875 -2.046875 0.875q-1.234375 0 -2.109375 -0.859375q-0.859375 -0.875 -0.859375 -2.109375q0 -1.1875 0.859375 -2.046875q0.875 -0.859375 2.109375 -0.859375zm12.519531 0q1.1875 0 2.046875 0.859375q0.859375 0.859375 0.859375 2.046875q0 1.21875 -0.859375 2.09375q-0.859375 0.875 -2.046875 0.875q-1.234375 0 -2.109375 -0.859375q-0.859375 -0.875 -0.859375 -2.109375q0 -1.1875 0.859375 -2.046875q0.875 -0.859375 2.109375 -0.859375zm12.519531 0q1.1875 0 2.046875 0.859375q0.859375 0.859375 0.859375 2.046875q0 1.21875 -0.859375 2.09375q-0.859375 0.875 -2.046875 0.875q-1.234375 0 -2.109375 -0.859375q-0.859375 -0.875 -0.859375 -2.109375q0 -1.1875 0.859375 -2.046875q0.875 -0.859375 2.109375 -0.859375z" fill-rule="nonzero"/></g></svg>