<svg version="1.1" xmlns="http://www.w3.org/2000/svg" xmlns:xlink="http://www.w3.org/1999/xlink" width="103.70875" height="39.38621" viewBox="0,0,103.70875,39.38621"><g transform="translate(-188.14563,-160.3069)"><g data-paper-data="{&quot;isPaintingLayer&quot;:true}" fill-rule="nonzero" stroke-linejoin="miter" stroke-miterlimit="10" stroke-dasharray="" stroke-dashoffset="0" style="mix-blend-mode: normal"><path d="M188.14564,190.80001c0,-7.29179 0,-17.61708 0,-21.66667c0,-3.82737 5.65847,-8.82644 10.03899,-8.82644c8.99358,0 61.02926,0 83.0627,0c5.63146,0 10.60706,5.44539 10.60706,9.4931c0,4.02993 0,11.94766 0,19c0,5.51744 -5.64386,10.89311 -10.60706,10.89311c-21.01001,0 -72.92534,0 -84.19884,0c-3.86395,0 -8.90285,-3.36141 -8.90285,-8.89311z" fill="#5e7060" stroke="none" stroke-width="0" stroke-linecap="butt"/><path d="M227.64967,180.22234v5.90615c0,1.51293 -0.55074,2.26941 -1.6522,2.26941c-0.49376,0 -0.87991,-0.15826 -1.15844,-0.47477c-0.27853,-0.32285 -0.4178,-0.92106 -0.4178,-1.79463v-5.17501c0,-1.22174 -0.19624,-2.0605 -0.58871,-2.51628c-0.39248,-0.45578 -0.93688,-0.68367 -1.63321,-0.68367c-0.61404,0 -1.14894,0.17091 -1.60472,0.51275c-0.45578,0.3355 -0.77862,0.7533 -0.96854,1.2534c-0.18991,0.50009 -0.28486,1.37367 -0.28486,2.62073v3.75069c0,1.01284 -0.14559,1.68385 -0.43679,2.01303c-0.28486,0.32918 -0.68367,0.49376 -1.19642,0.49376c-0.50009,0 -0.89257,-0.15826 -1.17743,-0.47477c-0.28486,-0.32285 -0.42729,-0.98436 -0.42729,-1.98454v-12.86629c0,-0.77862 0.03798,-1.31986 0.11395,-1.62371c0.07596,-0.31018 0.24688,-0.56023 0.51275,-0.75013c0.27221,-0.19624 0.58871,-0.29436 0.94954,-0.29436c0.41147,0 0.7533,0.11078 1.0255,0.33234c0.27221,0.22156 0.44629,0.50959 0.52225,0.86409c0.07596,0.34817 0.11395,0.93055 0.11395,1.74716v3.83614c1.08247,-1.30404 2.39918,-1.95606 3.95009,-1.95606c1.31037,0 2.36436,0.40197 3.16197,1.20592c0.79761,0.79761 1.19642,2.06051 1.19642,3.78867zM239.04654,186.57477c-1.54459,1.21541 -3.05752,1.82312 -4.53881,1.82312c-1.39899,0 -2.47514,-0.35449 -3.22844,-1.06349c-0.74697,-0.71532 -1.12046,-1.58573 -1.12046,-2.61124c0,-0.87991 0.25321,-1.5889 0.75964,-2.12697c0.51275,-0.5444 1.06981,-0.92422 1.6712,-1.13945c0.60138,-0.21523 1.57941,-0.46211 2.93409,-0.74064c1.361,-0.28486 2.45615,-0.5444 3.28541,-0.77862c-0.00633,-0.98119 -0.1994,-1.64271 -0.57922,-1.98454c-0.37981,-0.34817 -0.95903,-0.52224 -1.73766,-0.52224c-1.46863,0 -2.43082,0.41147 -2.88661,1.2344c-0.25321,0.46844 -0.47793,0.80078 -0.67417,0.99702c-0.19624,0.19624 -0.48111,0.29436 -0.85459,0.29436c-0.34184,0 -0.65202,-0.11078 -0.93055,-0.33233c-0.27221,-0.22789 -0.4083,-0.51908 -0.4083,-0.87357c0,-0.84193 0.45261,-1.63954 1.35784,-2.39285c0.91156,-0.7533 2.34537,-1.12995 4.30142,-1.12995c1.98138,0 3.43101,0.34184 4.3489,1.0255c0.91789,0.68367 1.34835,2.06684 1.29137,4.1495l-0.07596,3.03853c-0.03165,0.93688 0.06647,1.70284 0.29436,2.29789c0.22789,0.59504 0.34184,1.05083 0.34184,1.36734c0,0.34184 -0.15193,0.64253 -0.45578,0.90207c-0.29752,0.25954 -0.63619,0.38932 -1.01601,0.38932c-0.65834,0 -1.35152,-0.60771 -2.07949,-1.82312zM238.82814,181.88402c-0.48111,0.18991 -1.27872,0.39564 -2.39285,0.6172c-1.1078,0.22156 -1.89275,0.47477 -2.35486,0.75964c-0.46211,0.28486 -0.69316,0.69949 -0.69316,1.2439c0,0.46844 0.18358,0.87991 0.55074,1.2344c0.36716,0.35449 0.88624,0.53174 1.55725,0.53174c0.71532,0 1.37684,-0.19307 1.98454,-0.57922c0.61404,-0.39248 0.99069,-0.85776 1.12995,-1.39582c0.14559,-0.53808 0.2184,-1.34202 0.2184,-2.41183zM245.83815,175.5126v-1.94656c0,-0.80394 0.03165,-1.34835 0.09495,-1.63321c0.06963,-0.29119 0.24371,-0.54757 0.52225,-0.76912c0.28486,-0.22789 0.6172,-0.34184 0.99702,-0.34184c0.34817,0 0.66151,0.10445 0.94005,0.31335c0.27853,0.20257 0.46211,0.44945 0.55074,0.74064c0.08862,0.29119 0.13294,0.76597 0.13294,1.42431v2.21244h0.6267c0.79128,0 1.3167,0.09812 1.57624,0.29436c0.26587,0.18991 0.39881,0.4716 0.39881,0.84509c0,0.79761 -0.66468,1.19642 -1.99403,1.19642h-0.60771v5.98211c0,0.80394 0.05697,1.35468 0.17091,1.6522c0.11395,0.29119 0.42096,0.43679 0.92106,0.43679c0.23422,0 0.50009,-0.03165 0.79761,-0.09495c0.29752,-0.06963 0.51908,-0.10445 0.66468,-0.10445c0.32285,0 0.58555,0.10762 0.78812,0.32285c0.20257,0.2089 0.30385,0.46528 0.30385,0.76913c0,1.05715 -1.12046,1.58574 -3.36138,1.58574c-1.08247,0 -1.88009,-0.1994 -2.39285,-0.59821c-0.51275,-0.40514 -0.82927,-0.89573 -0.94954,-1.47178c-0.12028,-0.58238 -0.18041,-1.33569 -0.18041,-2.25991v-6.2195h-0.42729c-0.9622,0 -1.4433,-0.39248 -1.4433,-1.17743c0,-0.77229 0.50326,-1.15844 1.50978,-1.15844zM256.36143,178.59862c0,0.4178 0.2184,0.74697 0.65519,0.98752c0.43679,0.23422 1.40848,0.53808 2.9151,0.91156c2.93725,0.70899 4.40587,1.93073 4.40587,3.66523c0,1.36734 -0.49376,2.415 -1.48129,3.14299c-0.98752,0.72798 -2.37386,1.09198 -4.15899,1.09198c-1.80413,0 -3.16197,-0.37032 -4.07353,-1.11096c-0.91156,-0.74697 -1.36734,-1.53509 -1.36734,-2.36435c0,-0.35449 0.1266,-0.65834 0.37981,-0.91156c0.25321,-0.25321 0.56339,-0.37981 0.93055,-0.37981c0.50642,0 0.94954,0.31651 1.32936,0.94954c0.43046,0.69633 0.90207,1.15844 1.41482,1.38633c0.51275,0.22156 1.06349,0.33234 1.6522,0.33234c0.64569,0 1.1711,-0.14243 1.57624,-0.42729c0.41147,-0.29119 0.6172,-0.65834 0.6172,-1.10147c0,-0.40514 -0.17408,-0.75646 -0.52224,-1.05399c-0.34184,-0.29752 -1.28188,-0.62037 -2.82013,-0.96854c-1.53826,-0.35449 -2.65872,-0.84825 -3.36138,-1.48129c-0.70266,-0.63935 -1.05399,-1.39899 -1.05399,-2.2789c0,-0.98752 0.42729,-1.8611 1.28188,-2.62073c0.86092,-0.75964 2.14913,-1.13945 3.86464,-1.13945c1.57624,0 2.82963,0.31968 3.76018,0.95904c0.93688,0.63935 1.40532,1.30404 1.40532,1.99403c0,0.36082 -0.12028,0.66785 -0.36082,0.92106c-0.23422,0.24688 -0.56023,0.37033 -0.97803,0.37033c-0.6267,0 -1.19325,-0.35766 -1.69968,-1.07298c-0.50009,-0.72165 -1.25656,-1.08247 -2.2694,-1.08247c-0.5444,0 -1.02234,0.11078 -1.43381,0.33234c-0.40514,0.22156 -0.60771,0.53808 -0.60771,0.94954z" fill="#ffffff" stroke="#000000" stroke-width="5" stroke-linecap="square"/><path d="M227.64967,180.22234v5.90615c0,1.51293 -0.55074,2.26941 -1.6522,2.26941c-0.49376,0 -0.87991,-0.15826 -1.15844,-0.47477c-0.27853,-0.32285 -0.4178,-0.92106 -0.4178,-1.79463v-5.17501c0,-1.22174 -0.19624,-2.0605 -0.58871,-2.51628c-0.39248,-0.45578 -0.93688,-0.68367 -1.63321,-0.68367c-0.61404,0 -1.14894,0.17091 -1.60472,0.51275c-0.45578,0.3355 -0.77862,0.7533 -0.96854,1.2534c-0.18991,0.50009 -0.28486,1.37367 -0.28486,2.62073v3.75069c0,1.01284 -0.14559,1.68385 -0.43679,2.01303c-0.28486,0.32918 -0.68367,0.49376 -1.19642,0.49376c-0.50009,0 -0.89257,-0.15826 -1.17743,-0.47477c-0.28486,-0.32285 -0.42729,-0.98436 -0.42729,-1.98454v-12.86629c0,-0.77862 0.03798,-1.31986 0.11395,-1.62371c0.07596,-0.31018 0.24688,-0.56023 0.51275,-0.75013c0.27221,-0.19624 0.58871,-0.29436 0.94954,-0.29436c0.41147,0 0.7533,0.11078 1.0255,0.33234c0.27221,0.22156 0.44629,0.50959 0.52225,0.86409c0.07596,0.34817 0.11395,0.93055 0.11395,1.74716v3.83614c1.08247,-1.30404 2.39918,-1.95606 3.95009,-1.95606c1.31037,0 2.36436,0.40197 3.16197,1.20592c0.79761,0.79761 1.19642,2.06051 1.19642,3.78867zM239.04654,186.57477c-1.54459,1.21541 -3.05752,1.82312 -4.53881,1.82312c-1.39899,0 -2.47514,-0.35449 -3.22844,-1.06349c-0.74697,-0.71532 -1.12046,-1.58573 -1.12046,-2.61124c0,-0.87991 0.25321,-1.5889 0.75964,-2.12697c0.51275,-0.5444 1.06981,-0.92422 1.6712,-1.13945c0.60138,-0.21523 1.57941,-0.46211 2.93409,-0.74064c1.361,-0.28486 2.45615,-0.5444 3.28541,-0.77862c-0.00633,-0.98119 -0.1994,-1.64271 -0.57922,-1.98454c-0.37981,-0.34817 -0.95903,-0.52224 -1.73766,-0.52224c-1.46863,0 -2.43082,0.41147 -2.88661,1.2344c-0.25321,0.46844 -0.47793,0.80078 -0.67417,0.99702c-0.19624,0.19624 -0.48111,0.29436 -0.85459,0.29436c-0.34184,0 -0.65202,-0.11078 -0.93055,-0.33233c-0.27221,-0.22789 -0.4083,-0.51908 -0.4083,-0.87357c0,-0.84193 0.45261,-1.63954 1.35784,-2.39285c0.91156,-0.7533 2.34537,-1.12995 4.30142,-1.12995c1.98138,0 3.43101,0.34184 4.3489,1.0255c0.91789,0.68367 1.34835,2.06684 1.29137,4.1495l-0.07596,3.03853c-0.03165,0.93688 0.06647,1.70284 0.29436,2.29789c0.22789,0.59504 0.34184,1.05083 0.34184,1.36734c0,0.34184 -0.15193,0.64253 -0.45578,0.90207c-0.29752,0.25954 -0.63619,0.38932 -1.01601,0.38932c-0.65834,0 -1.35152,-0.60771 -2.07949,-1.82312zM238.82814,181.88402c-0.48111,0.18991 -1.27872,0.39564 -2.39285,0.6172c-1.1078,0.22156 -1.89275,0.47477 -2.35486,0.75964c-0.46211,0.28486 -0.69316,0.69949 -0.69316,1.2439c0,0.46844 0.18358,0.87991 0.55074,1.2344c0.36716,0.35449 0.88624,0.53174 1.55725,0.53174c0.71532,0 1.37684,-0.19307 1.98454,-0.57922c0.61404,-0.39248 0.99069,-0.85776 1.12995,-1.39582c0.14559,-0.53808 0.2184,-1.34202 0.2184,-2.41183zM245.83815,175.5126v-1.94656c0,-0.80394 0.03165,-1.34835 0.09495,-1.63321c0.06963,-0.29119 0.24371,-0.54757 0.52225,-0.76912c0.28486,-0.22789 0.6172,-0.34184 0.99702,-0.34184c0.34817,0 0.66151,0.10445 0.94005,0.31335c0.27853,0.20257 0.46211,0.44945 0.55074,0.74064c0.08862,0.29119 0.13294,0.76597 0.13294,1.42431v2.21244h0.6267c0.79128,0 1.3167,0.09812 1.57624,0.29436c0.26587,0.18991 0.39881,0.4716 0.39881,0.84509c0,0.79761 -0.66468,1.19642 -1.99403,1.19642h-0.60771v5.98211c0,0.80394 0.05697,1.35468 0.17091,1.6522c0.11395,0.29119 0.42096,0.43679 0.92106,0.43679c0.23422,0 0.50009,-0.03165 0.79761,-0.09495c0.29752,-0.06963 0.51908,-0.10445 0.66468,-0.10445c0.32285,0 0.58555,0.10762 0.78812,0.32285c0.20257,0.2089 0.30385,0.46528 0.30385,0.76913c0,1.05715 -1.12046,1.58574 -3.36138,1.58574c-1.08247,0 -1.88009,-0.1994 -2.39285,-0.59821c-0.51275,-0.40514 -0.82927,-0.89573 -0.94954,-1.47178c-0.12028,-0.58238 -0.18041,-1.33569 -0.18041,-2.25991v-6.2195h-0.42729c-0.9622,0 -1.4433,-0.39248 -1.4433,-1.17743c0,-0.77229 0.50326,-1.15844 1.50978,-1.15844zM256.36143,178.59862c0,0.4178 0.2184,0.74697 0.65519,0.98752c0.43679,0.23422 1.40848,0.53808 2.9151,0.91156c2.93725,0.70899 4.40587,1.93073 4.40587,3.66523c0,1.36734 -0.49376,2.415 -1.48129,3.14299c-0.98752,0.72798 -2.37386,1.09198 -4.15899,1.09198c-1.80413,0 -3.16197,-0.37032 -4.07353,-1.11096c-0.91156,-0.74697 -1.36734,-1.53509 -1.36734,-2.36435c0,-0.35449 0.1266,-0.65834 0.37981,-0.91156c0.25321,-0.25321 0.56339,-0.37981 0.93055,-0.37981c0.50642,0 0.94954,0.31651 1.32936,0.94954c0.43046,0.69633 0.90207,1.15844 1.41482,1.38633c0.51275,0.22156 1.06349,0.33234 1.6522,0.33234c0.64569,0 1.1711,-0.14243 1.57624,-0.42729c0.41147,-0.29119 0.6172,-0.65834 0.6172,-1.10147c0,-0.40514 -0.17408,-0.75646 -0.52224,-1.05399c-0.34184,-0.29752 -1.28188,-0.62037 -2.82013,-0.96854c-1.53826,-0.35449 -2.65872,-0.84825 -3.36138,-1.48129c-0.70266,-0.63935 -1.05399,-1.39899 -1.05399,-2.2789c0,-0.98752 0.42729,-1.8611 1.28188,-2.62073c0.86092,-0.75964 2.14913,-1.13945 3.86464,-1.13945c1.57624,0 2.82963,0.31968 3.76018,0.95904c0.93688,0.63935 1.40532,1.30404 1.40532,1.99403c0,0.36082 -0.12028,0.66785 -0.36082,0.92106c-0.23422,0.24688 -0.56023,0.37033 -0.97803,0.37033c-0.6267,0 -1.19325,-0.35766 -1.69968,-1.07298c-0.50009,-0.72165 -1.25656,-1.08247 -2.2694,-1.08247c-0.5444,0 -1.02234,0.11078 -1.43381,0.33234c-0.40514,0.22156 -0.60771,0.53808 -0.60771,0.94954z" fill="#ffffff" stroke="none" stroke-width="0" stroke-linecap="square"/></g></g></svg>