<svg version="1.1" xmlns="http://www.w3.org/2000/svg" xmlns:xlink="http://www.w3.org/1999/xlink" width="69.94819" height="41.67137" viewBox="0,0,69.94819,41.67137"><g transform="translate(-200.00062,-161.23609)"><g data-paper-data="{&quot;isPaintingLayer&quot;:true}" fill-rule="nonzero" stroke="#c9c9c9" stroke-linejoin="miter" stroke-miterlimit="10" stroke-dasharray="" stroke-dashoffset="0" style="mix-blend-mode: normal"><g><path d="M249.86669,201.81668c0,0 -7.12691,-12.60753 -3.53044,-20.94532c1.70556,-3.95405 0.41956,-7.49845 8.62788,-7.70632c17.45387,-0.28248 13.62964,28.65164 13.62964,28.65164z" data-paper-data="{&quot;index&quot;:null}" fill="#000000" stroke-width="2" stroke-linecap="butt"/><path d="M249.86669,201.81668c0,0 -7.46023,-13.60753 -3.86377,-21.94532c1.70556,-3.95405 0.75288,-6.49845 8.96121,-6.70632c17.45386,-0.28248 13.62964,28.65164 13.62964,28.65164z" data-paper-data="{&quot;index&quot;:null}" fill="none" stroke-width="2" stroke-linecap="butt"/><path d="M263.19803,177.17688c0,0 -4.39022,2.52043 -2.02992,7.26218c2.00353,4.02505 6.77992,2.23782 6.77992,2.23782" fill="none" stroke-width="1.5" stroke-linecap="round"/><path d="M201.08334,201.73333c0,0 -1.7793,-32.70337 11.16666,-32.66666c6.45195,0.09367 9.99045,3.39338 11.91819,7.86252c4.06498,9.42397 -1.91819,24.80415 -1.91819,24.80415z" fill="#000000" stroke-width="2" stroke-linecap="butt"/><path d="M202.13889,183.51112c0,0 0.52237,-2.81707 0.78239,-4.21934c0.25848,-1.39398 1.77316,-4.16955 1.77316,-4.16955c0,0 12.22716,-2.14263 11.91831,3.94514c-0.40001,7.8848 -14.47386,4.44374 -14.47386,4.44374z" fill="#000000" stroke-width="1.5" stroke-linecap="butt"/><path d="M201.08334,201.73333c0,0 -1.7793,-32.70337 11.16666,-32.66666c6.45195,0.09367 9.99045,3.39338 11.91819,7.86252c4.06498,9.42397 -1.91819,24.80415 -1.91819,24.80415z" fill="none" stroke-width="2" stroke-linecap="butt"/><path d="M220.93071,201.73584c0,0 -1.19849,-39.12369 15.33334,-39.50001c18.36924,-0.41814 18.33334,39.66667 18.33334,39.66667z" fill="#000000" stroke-width="2" stroke-linecap="butt"/><path d="M228.2478,176.28334c-0.04998,-2.82647 0.62593,-9.46132 8.0801,-9.41656c7.98613,0.04796 8.96093,6.77767 9.02626,9.52177c0.01675,0.70338 -0.47541,1.1449 -0.9927,1.1449c-1.68207,0 -10.89702,0 -14.54545,0c-0.92167,0 -1.55469,-0.48582 -1.56821,-1.25011z" fill="#000000" stroke-width="1.5" stroke-linecap="butt"/></g></g></g></svg>