<svg version="1.1" xmlns="http://www.w3.org/2000/svg" xmlns:xlink="http://www.w3.org/1999/xlink" width="135.85928" height="10.26459" viewBox="0,0,135.85928,10.26459"><g transform="translate(-172.07036,-174.86771)"><g data-paper-data="{&quot;isPaintingLayer&quot;:true}" fill="#f1ff00" fill-rule="nonzero" stroke="none" stroke-width="1" stroke-linecap="square" stroke-linejoin="miter" stroke-miterlimit="10" stroke-dasharray="" stroke-dashoffset="0" style="mix-blend-mode: normal"><path d="M173.65148,176.22666v1.91446h3.02553c0.2564,0 0.43874,0.01139 0.54699,0.03418c0.11395,0.02279 0.21652,0.08832 0.30768,0.19658c0.09116,0.10256 0.13675,0.22506 0.13675,0.3675c0,0.12535 -0.05413,0.2621 -0.16239,0.41025c-0.10256,0.14244 -0.37891,0.21366 -0.82903,0.21366h-3.02553v2.24778h3.41868c0.30768,0 0.51566,0.01139 0.62391,0.03418c0.10825,0.01709 0.20512,0.07978 0.29059,0.18803c0.08546,0.10256 0.1282,0.22791 0.1282,0.37605c0,0.14244 -0.04558,0.27065 -0.13674,0.3846c-0.08546,0.10825 -0.19088,0.17663 -0.31623,0.20512c-0.11966,0.02279 -0.31623,0.03419 -0.58972,0.03419h-3.67507c-0.56408,0 -0.89171,-0.03988 -0.98287,-0.11965c-0.08546,-0.08546 -0.16524,-0.17663 -0.23931,-0.27349c-0.06838,-0.10256 -0.10256,-0.41309 -0.10256,-0.93159v-5.1793c0,-0.56978 0.03988,-0.89455 0.11966,-0.97432c0.08546,-0.07977 0.17663,-0.15669 0.27349,-0.23076c0.10256,-0.07977 0.41309,-0.11965 0.93159,-0.11965h3.55542c0.27919,0 0.47292,0.01139 0.58117,0.03418c0.11395,0.01709 0.21367,0.07977 0.29913,0.18803c0.09116,0.10256 0.13675,0.23076 0.13675,0.38461c0,0.14814 -0.04274,0.27635 -0.12821,0.3846c-0.08546,0.10825 -0.18518,0.17378 -0.29913,0.19657c-0.11395,0.02279 -0.31053,0.03418 -0.58972,0.03418zM180.71747,176.07281v5.68355c0,0.35326 -0.0171,0.59542 -0.05128,0.72647c-0.02849,0.12535 -0.11111,0.23931 -0.24786,0.34186c-0.13105,0.09686 -0.27349,0.1453 -0.42733,0.1453c-0.15384,0 -0.29914,-0.04843 -0.43588,-0.1453c-0.13675,-0.10256 -0.22222,-0.21936 -0.2564,-0.35041c-0.02849,-0.13105 -0.04274,-0.37035 -0.04274,-0.71792v-5.68355c0,-0.35896 0.0171,-0.60112 0.05128,-0.72647c0.03418,-0.13105 0.1168,-0.24216 0.24786,-0.33332c0.13105,-0.09687 0.27349,-0.1453 0.42733,-0.1453c0.17663,0 0.32762,0.05128 0.45297,0.15384c0.13105,0.10256 0.21082,0.22222 0.23931,0.35896c0.02849,0.13674 0.04273,0.36751 0.04273,0.69228zM186.28884,180.36324h-2.86314c0.01709,0.54129 0.16524,0.94868 0.44443,1.22218c0.28489,0.27349 0.62676,0.41024 1.0256,0.41024c0.48431,0 0.94298,-0.21367 1.37601,-0.641c0.17663,-0.17663 0.30484,-0.28489 0.38461,-0.32478c0.08546,-0.04559 0.17948,-0.06838 0.28204,-0.06838c0.13105,0 0.24215,0.04274 0.33332,0.1282c0.09686,0.07977 0.1453,0.17948 0.1453,0.29913c0,0.33047 -0.22507,0.67804 -0.67519,1.0427c-0.44443,0.35896 -1.05125,0.53844 -1.82045,0.53844c-0.97432,0 -1.71504,-0.27635 -2.22214,-0.82903c-0.50141,-0.55268 -0.75211,-1.2649 -0.75211,-2.13667c0,-0.88316 0.2507,-1.59823 0.75211,-2.14522c0.5071,-0.54699 1.21078,-0.82049 2.11103,-0.82049c0.85467,0 1.51561,0.25925 1.98283,0.77775c0.46722,0.5128 0.70083,1.07118 0.70083,1.67515c0,0.2678 -0.07692,0.48147 -0.23076,0.641c-0.15384,0.15384 -0.47862,0.23076 -0.97433,0.23076zM183.42571,179.53422h2.65802c-0.01709,-0.48431 -0.15099,-0.85467 -0.4017,-1.11107c-0.2507,-0.2564 -0.55839,-0.3846 -0.92305,-0.3846c-0.7749,0 -1.21932,0.49855 -1.33328,1.49567zM193.33664,180.52564c0.17663,0 0.32193,0.07123 0.43588,0.21367c0.11965,0.13675 0.17948,0.27634 0.17948,0.41878c0,0.39884 -0.23646,0.80054 -0.70938,1.20508c-0.47292,0.40454 -1.10822,0.60681 -1.90591,0.60681c-0.95723,0 -1.68085,-0.27065 -2.17086,-0.81194c-0.48431,-0.54699 -0.72647,-1.25636 -0.72647,-2.12812c0,-0.87746 0.25355,-1.59538 0.76065,-2.15377c0.5071,-0.55839 1.22788,-0.83758 2.16232,-0.83758c0.72362,0 1.32188,0.19088 1.7948,0.57263c0.47862,0.37605 0.71792,0.74925 0.71792,1.11961c0,0.17663 -0.06552,0.32478 -0.19657,0.44443c-0.12535,0.11965 -0.27349,0.17948 -0.44443,0.17948c-0.21652,0 -0.3846,-0.09117 -0.50426,-0.27349c-0.2678,-0.40454 -0.50426,-0.66094 -0.70937,-0.7692c-0.20512,-0.10825 -0.42733,-0.16239 -0.66664,-0.16239c-0.46722,0 -0.82903,0.17948 -1.08543,0.53844c-0.2507,0.35326 -0.37605,0.7977 -0.37605,1.33329c0,0.54699 0.13104,0.99426 0.39314,1.34183c0.2678,0.34757 0.62391,0.52135 1.06834,0.52135c0.2507,0 0.48147,-0.05983 0.69228,-0.17948c0.21652,-0.11965 0.4017,-0.29913 0.55554,-0.53844c0.15384,-0.24501 0.27634,-0.41309 0.36751,-0.50426c0.09117,-0.09117 0.21366,-0.13675 0.3675,-0.13675zM195.46159,177.16678v-0.88031c0,-0.35896 0.01425,-0.60111 0.04274,-0.72646c0.03418,-0.13105 0.11395,-0.24786 0.2393,-0.35042c0.12535,-0.10256 0.2735,-0.15384 0.44443,-0.15384c0.15954,0 0.30198,0.04558 0.42733,0.13674c0.12535,0.09116 0.20797,0.20513 0.24786,0.34187c0.03988,0.13105 0.05983,0.34472 0.05983,0.641v0.99141h0.28204c0.35896,0 0.59542,0.04274 0.70937,0.1282c0.11965,0.08546 0.17947,0.21367 0.17947,0.3846c0,0.35896 -0.29913,0.53844 -0.89739,0.53844h-0.2735v2.69221c0,0.36466 0.02564,0.61251 0.07692,0.74356c0.05128,0.13105 0.18802,0.19658 0.41024,0.19658c0.10825,0 0.22791,-0.01425 0.35896,-0.04274c0.13675,-0.03418 0.23646,-0.05128 0.29913,-0.05128c0.14814,0 0.2678,0.04843 0.35896,0.14529c0.09117,0.09686 0.13675,0.21367 0.13675,0.35041c0,0.47862 -0.50426,0.71792 -1.51276,0.71792c-0.49001,0 -0.84898,-0.09117 -1.07689,-0.27349c-0.22791,-0.18233 -0.37036,-0.4017 -0.42733,-0.6581c-0.05697,-0.2621 -0.08546,-0.60397 -0.08546,-1.0256v-2.79476h-0.18803c-0.43303,0 -0.64955,-0.17663 -0.64955,-0.52989c0,-0.34757 0.22791,-0.52135 0.68373,-0.52135zM199.08645,181.75637v-3.73491c0,-0.65524 0.23931,-0.98287 0.71792,-0.98287c0.46152,0 0.69799,0.30199 0.70938,0.90595c0.30199,-0.60397 0.72077,-0.90595 1.25636,-0.90595c0.27919,0 0.56978,0.07407 0.87176,0.22221c0.30199,0.14814 0.45298,0.35042 0.45298,0.60682c0,0.17663 -0.06268,0.32478 -0.18803,0.44443c-0.11965,0.11396 -0.24785,0.17093 -0.3846,0.17093c-0.07977,0 -0.22222,-0.03133 -0.42733,-0.09401c-0.20512,-0.06267 -0.37605,-0.09401 -0.5128,-0.09401c-0.34757,0 -0.60681,0.17663 -0.77775,0.52989c-0.17094,0.34757 -0.2564,1.0256 -0.2564,2.03411v0.84613c0,0.37036 -0.01709,0.62106 -0.05128,0.75211c-0.02849,0.13105 -0.10826,0.2507 -0.23931,0.35896c-0.12535,0.10256 -0.27065,0.15384 -0.43588,0.15384c-0.16523,0 -0.31337,-0.04843 -0.44442,-0.1453c-0.12535,-0.09686 -0.20513,-0.20797 -0.23931,-0.33332c-0.03418,-0.13105 -0.05128,-0.37605 -0.05128,-0.73501zM204.62151,174.93611c0.19373,0 0.35896,0.07122 0.49571,0.21366c0.13675,0.14245 0.20512,0.30768 0.20512,0.49571c0,0.19373 -0.06838,0.36181 -0.20512,0.50426c-0.13675,0.13675 -0.30198,0.20512 -0.49571,0.20512c-0.19373,0 -0.36181,-0.06838 -0.50426,-0.20512c-0.13675,-0.14244 -0.20512,-0.31053 -0.20512,-0.50426c0,-0.19373 0.06837,-0.35896 0.20512,-0.49571c0.14244,-0.14245 0.31053,-0.21366 0.50426,-0.21366zM205.34798,178.22658v3.52979c0,0.35326 -0.0171,0.59542 -0.05128,0.72647c-0.02849,0.12535 -0.11111,0.23931 -0.24786,0.34186c-0.13105,0.09686 -0.27349,0.1453 -0.42733,0.1453c-0.15384,0 -0.29913,-0.04843 -0.43588,-0.1453c-0.13675,-0.10256 -0.22222,-0.21936 -0.25641,-0.35041c-0.02849,-0.13105 -0.04273,-0.37035 -0.04273,-0.71792v-3.52124c0,-0.31907 0.0114,-0.54413 0.03419,-0.67518c0.02849,-0.13675 0.10826,-0.2564 0.23931,-0.35896c0.13105,-0.10825 0.28203,-0.16239 0.45297,-0.16239c0.17094,0 0.31908,0.04843 0.44443,0.1453c0.12535,0.09117 0.20513,0.21081 0.23931,0.35896c0.03418,0.14244 0.05128,0.37036 0.05128,0.68373zM211.46634,180.52564c0.17663,0 0.32192,0.07123 0.43588,0.21367c0.11965,0.13675 0.17948,0.27634 0.17948,0.41878c0,0.39884 -0.23645,0.80054 -0.70937,1.20508c-0.47292,0.40454 -1.10822,0.60681 -1.90591,0.60681c-0.95723,0 -1.68085,-0.27065 -2.17086,-0.81194c-0.48431,-0.54699 -0.72647,-1.25636 -0.72647,-2.12812c0,-0.87746 0.25355,-1.59538 0.76065,-2.15377c0.5071,-0.55839 1.22788,-0.83758 2.16232,-0.83758c0.72362,0 1.32188,0.19088 1.7948,0.57263c0.47862,0.37605 0.71792,0.74925 0.71792,1.11961c0,0.17663 -0.06552,0.32478 -0.19657,0.44443c-0.12535,0.11965 -0.27349,0.17948 -0.44442,0.17948c-0.21652,0 -0.3846,-0.09117 -0.50426,-0.27349c-0.2678,-0.40454 -0.50426,-0.66094 -0.70938,-0.7692c-0.20512,-0.10825 -0.42734,-0.16239 -0.66664,-0.16239c-0.46722,0 -0.82903,0.17948 -1.08543,0.53844c-0.2507,0.35326 -0.37605,0.7977 -0.37605,1.33329c0,0.54699 0.13105,0.99426 0.39315,1.34183c0.2678,0.34757 0.62391,0.52135 1.06834,0.52135c0.2507,0 0.48147,-0.05983 0.69228,-0.17948c0.21652,-0.11965 0.40169,-0.29913 0.55553,-0.53844c0.15384,-0.24501 0.27634,-0.41309 0.36751,-0.50426c0.09117,-0.09117 0.21367,-0.13675 0.36751,-0.13675zM217.03557,182.14097c-0.68943,0.55268 -1.36747,0.82903 -2.03411,0.82903c-0.63245,0 -1.11962,-0.15954 -1.46149,-0.47862c-0.33617,-0.32478 -0.50426,-0.71793 -0.50426,-1.17945c0,-0.39884 0.11396,-0.71792 0.34187,-0.95723c0.23361,-0.24501 0.48431,-0.41594 0.75211,-0.5128c0.27349,-0.09686 0.71507,-0.20797 1.32474,-0.33332c0.60967,-0.12535 1.10252,-0.24216 1.47857,-0.35041c-0.0057,-0.44443 -0.09401,-0.74357 -0.26494,-0.89741c-0.17094,-0.15384 -0.43018,-0.23076 -0.77775,-0.23076c-0.66094,0 -1.09398,0.18517 -1.29909,0.55553c-0.11396,0.21081 -0.21652,0.36181 -0.30768,0.45298c-0.08546,0.08546 -0.21082,0.1282 -0.37605,0.1282c-0.15384,0 -0.29344,-0.04843 -0.41879,-0.14529c-0.12535,-0.10256 -0.18803,-0.23646 -0.18803,-0.40169c0,-0.37605 0.20512,-0.73217 0.61536,-1.06834c0.41024,-0.34187 1.05409,-0.5128 1.93155,-0.5128c0.88886,0 1.53841,0.15384 1.94865,0.46152c0.41594,0.30768 0.61251,0.92874 0.58972,1.86318l-0.03419,1.36747c-0.01139,0.42733 0.03134,0.7749 0.1282,1.0427c0.10256,0.2621 0.15384,0.46437 0.15384,0.60681c0,0.15384 -0.06837,0.29059 -0.20512,0.41024c-0.13105,0.11965 -0.28204,0.17948 -0.45297,0.17948c-0.29628,0 -0.60967,-0.27635 -0.94014,-0.82903zM216.94156,180.02994c-0.21652,0.08546 -0.57548,0.17948 -1.07688,0.28204c-0.50141,0.09686 -0.85752,0.21081 -1.06834,0.34186c-0.20512,0.12535 -0.30768,0.31338 -0.30768,0.56408c0,0.20512 0.08262,0.3903 0.24785,0.55554c0.16523,0.15954 0.4017,0.23931 0.70938,0.23931c0.31907,0 0.61536,-0.08831 0.88885,-0.26494c0.27919,-0.17663 0.45012,-0.38461 0.5128,-0.62391c0.06267,-0.24501 0.09401,-0.60967 0.09401,-1.09398zM221.31425,176.07281v5.68355c0,0.35326 -0.0171,0.59542 -0.05128,0.72647c-0.02849,0.12535 -0.11111,0.23931 -0.24786,0.34186c-0.13105,0.09686 -0.27349,0.1453 -0.42733,0.1453c-0.15384,0 -0.29913,-0.04843 -0.43588,-0.1453c-0.13675,-0.10256 -0.22222,-0.21936 -0.2564,-0.35041c-0.02849,-0.13105 -0.04273,-0.37035 -0.04273,-0.71792v-5.68355c0,-0.35896 0.01709,-0.60112 0.05128,-0.72647c0.03418,-0.13105 0.1168,-0.24216 0.24786,-0.33332c0.13105,-0.09687 0.27349,-0.1453 0.42733,-0.1453c0.17663,0 0.32762,0.05128 0.45297,0.15384c0.13105,0.10256 0.21081,0.22222 0.23931,0.35896c0.02849,0.13674 0.04274,0.36751 0.04274,0.69228zM223.78318,177.03859c0.21652,0 0.40169,0.07977 0.55553,0.23931c0.15954,0.15384 0.23931,0.33902 0.23931,0.55553c0,0.22222 -0.07977,0.41309 -0.23931,0.57263c-0.15384,0.15954 -0.33902,0.23931 -0.55553,0.23931c-0.22222,0 -0.41309,-0.07977 -0.57263,-0.23931c-0.15954,-0.15954 -0.23931,-0.35041 -0.23931,-0.57263c0,-0.21652 0.07977,-0.40169 0.23931,-0.55553c0.15954,-0.15954 0.35041,-0.23931 0.57263,-0.23931zM223.78318,181.35467c0.21652,0 0.40169,0.07977 0.55553,0.23931c0.15954,0.15384 0.23931,0.34187 0.23931,0.56408c0,0.21652 -0.07977,0.40739 -0.23931,0.57263c-0.15384,0.15954 -0.33902,0.23931 -0.55553,0.23931c-0.22222,0 -0.41309,-0.07977 -0.57263,-0.23931c-0.15954,-0.15954 -0.23931,-0.35041 -0.23931,-0.57263c0,-0.22222 0.07977,-0.41024 0.23931,-0.56408c0.15954,-0.15954 0.35041,-0.23931 0.57263,-0.23931zM231.13867,176.22666v1.99993h2.35889c0.27919,0 0.47007,0.01424 0.57263,0.04273c0.10825,0.02849 0.20227,0.09687 0.28204,0.20512c0.08546,0.10825 0.1282,0.22507 0.1282,0.35041c0,0.16523 -0.06267,0.31053 -0.18802,0.43588c-0.11965,0.12535 -0.3846,0.18803 -0.79484,0.18803h-2.35889v2.20504c0,0.31907 -0.01424,0.55554 -0.04273,0.70938c-0.02279,0.15384 -0.09401,0.29344 -0.21367,0.41878c-0.11396,0.12535 -0.29344,0.18803 -0.53844,0.18803c-0.23931,0 -0.41878,-0.06268 -0.53844,-0.18803c-0.11396,-0.12535 -0.18518,-0.26779 -0.21367,-0.42733c-0.02279,-0.16523 -0.03418,-0.39885 -0.03418,-0.70083v-5.32459c0,-0.56978 0.03988,-0.89455 0.11965,-0.97432c0.08546,-0.07977 0.17663,-0.15669 0.27349,-0.23076c0.10256,-0.07977 0.41309,-0.11965 0.93159,-0.11965h3.11955c0.27349,0 0.46722,0.01139 0.58118,0.03418c0.11396,0.01709 0.21367,0.07977 0.29913,0.18803c0.09117,0.10825 0.13675,0.23646 0.13675,0.38461c0,0.14814 -0.04558,0.27635 -0.13675,0.3846c-0.08546,0.10825 -0.18518,0.17378 -0.29913,0.19657c-0.11396,0.02279 -0.30768,0.03418 -0.58118,0.03418zM236.68763,174.93611c0.19373,0 0.35896,0.07122 0.49571,0.21366c0.13675,0.14245 0.20512,0.30768 0.20512,0.49571c0,0.19373 -0.06838,0.36181 -0.20512,0.50426c-0.13675,0.13675 -0.30198,0.20512 -0.49571,0.20512c-0.19373,0 -0.36181,-0.06838 -0.50426,-0.20512c-0.13675,-0.14244 -0.20512,-0.31053 -0.20512,-0.50426c0,-0.19373 0.06838,-0.35896 0.20512,-0.49571c0.14244,-0.14245 0.31053,-0.21366 0.50426,-0.21366zM237.41409,178.22658v3.52979c0,0.35326 -0.0171,0.59542 -0.05128,0.72647c-0.02849,0.12535 -0.11111,0.23931 -0.24786,0.34186c-0.13105,0.09686 -0.27349,0.1453 -0.42733,0.1453c-0.15384,0 -0.29914,-0.04843 -0.43588,-0.1453c-0.13675,-0.10256 -0.22222,-0.21936 -0.2564,-0.35041c-0.02849,-0.13105 -0.04273,-0.37035 -0.04273,-0.71792v-3.52124c0,-0.31907 0.0114,-0.54413 0.03419,-0.67518c0.02849,-0.13675 0.10825,-0.2564 0.23931,-0.35896c0.13105,-0.10825 0.28204,-0.16239 0.45297,-0.16239c0.17094,0 0.31908,0.04843 0.44443,0.1453c0.12535,0.09117 0.20512,0.21081 0.23931,0.35896c0.03418,0.14244 0.05128,0.37036 0.05128,0.68373zM241.01117,180.81622l-1.06833,1.54695c-0.19373,0.2678 -0.34757,0.43588 -0.46153,0.50426c-0.11396,0.06838 -0.23645,0.10256 -0.3675,0.10256c-0.18233,0 -0.33902,-0.05698 -0.47007,-0.17094c-0.12535,-0.11396 -0.18802,-0.245 -0.18802,-0.39315c0,-0.16523 0.09971,-0.38746 0.29914,-0.66665l1.32473,-1.88882l-1.1709,-1.58114c-0.20512,-0.2678 -0.30768,-0.48716 -0.30768,-0.65809c0,-0.16523 0.05983,-0.30199 0.17948,-0.41024c0.12535,-0.10825 0.28773,-0.16239 0.48716,-0.16239c0.17094,0 0.31053,0.04558 0.41878,0.13675c0.10825,0.09117 0.23931,0.24501 0.39315,0.46152l0.93159,1.29055l0.93159,-1.29055c0.19373,-0.27349 0.34757,-0.44158 0.46152,-0.50426c0.11396,-0.06267 0.23646,-0.09401 0.36751,-0.09401c0.18802,0 0.34472,0.05414 0.47007,0.16239c0.12535,0.10825 0.18803,0.23645 0.18803,0.3846c0,0.17094 -0.10541,0.39884 -0.31623,0.68373l-1.1709,1.58114l1.30764,1.88882c0.21651,0.29628 0.32477,0.51565 0.32477,0.6581c0,0.15954 -0.06552,0.29628 -0.19657,0.41024c-0.13105,0.10825 -0.27635,0.16239 -0.43589,0.16239c-0.29628,0 -0.58402,-0.20227 -0.86321,-0.60681zM252.24902,176.90184l-1.28201,4.70923c-0.13105,0.48431 -0.26779,0.83188 -0.41024,1.04269c-0.13674,0.21081 -0.37606,0.31623 -0.71793,0.31623c-0.34757,0 -0.58687,-0.10256 -0.71792,-0.30768c-0.13105,-0.21081 -0.2621,-0.57833 -0.39315,-1.10252l-1.2991,-5.27331c-0.07977,-0.23931 -0.11966,-0.47862 -0.11966,-0.71792c0,-0.17663 0.07122,-0.33617 0.21367,-0.47861c0.14245,-0.14814 0.31623,-0.22222 0.52134,-0.22222c0.27349,0 0.45867,0.08262 0.55554,0.24786c0.09687,0.15953 0.19372,0.43873 0.29059,0.83758l1.03415,4.57248l1.14525,-4.28189c0.15384,-0.58687 0.31623,-0.96293 0.48717,-1.12816c0.17093,-0.16524 0.40169,-0.24786 0.69228,-0.24786c0.28489,0 0.50995,0.07978 0.67519,0.23931c0.16523,0.15953 0.33047,0.53844 0.49571,1.13671l1.14526,4.28189l1.03415,-4.57248c0.09116,-0.44443 0.19373,-0.73502 0.30768,-0.87176c0.11396,-0.14245 0.29059,-0.21367 0.52989,-0.21367c0.21081,0 0.38745,0.07407 0.5299,0.22222c0.14245,0.14245 0.21366,0.30483 0.21366,0.48716c0,0.14814 -0.03988,0.3846 -0.11965,0.70937l-1.30764,5.27331c-0.12535,0.5185 -0.25356,0.88316 -0.3846,1.09398c-0.13105,0.21081 -0.37036,0.31623 -0.71792,0.31623c-0.245,0 -0.45583,-0.07122 -0.63245,-0.21367c-0.17093,-0.14814 -0.33902,-0.5299 -0.50426,-1.14526zM258.86095,174.93611c0.19373,0 0.35897,0.07122 0.49571,0.21366c0.13674,0.14245 0.20512,0.30768 0.20512,0.49571c0,0.19373 -0.06838,0.36181 -0.20512,0.50426c-0.13674,0.13675 -0.30199,0.20512 -0.49571,0.20512c-0.19373,0 -0.36181,-0.06838 -0.50426,-0.20512c-0.13674,-0.14244 -0.20512,-0.31053 -0.20512,-0.50426c0,-0.19373 0.06838,-0.35896 0.20512,-0.49571c0.14245,-0.14245 0.31053,-0.21366 0.50426,-0.21366zM259.58741,178.22658v3.52979c0,0.35326 -0.0171,0.59542 -0.05128,0.72647c-0.02849,0.12535 -0.11111,0.23931 -0.24785,0.34186c-0.13105,0.09686 -0.27349,0.1453 -0.42733,0.1453c-0.15384,0 -0.29914,-0.04843 -0.43588,-0.1453c-0.13674,-0.10256 -0.22222,-0.21936 -0.2564,-0.35041c-0.02849,-0.13105 -0.04273,-0.37035 -0.04273,-0.71792v-3.52124c0,-0.31907 0.0114,-0.54413 0.03419,-0.67518c0.02849,-0.13675 0.10826,-0.2564 0.23931,-0.35896c0.13105,-0.10825 0.28204,-0.16239 0.45298,-0.16239c0.17093,0 0.31908,0.04843 0.44443,0.1453c0.12535,0.09117 0.20512,0.21081 0.2393,0.35896c0.03419,0.14244 0.05128,0.37036 0.05128,0.68373zM261.082,181.75637v-3.73491c0,-0.65524 0.23931,-0.98287 0.71793,-0.98287c0.46152,0 0.69798,0.30199 0.70937,0.90595c0.30199,-0.60397 0.72077,-0.90595 1.25636,-0.90595c0.27919,0 0.56978,0.07407 0.87176,0.22221c0.30199,0.14814 0.45297,0.35042 0.45297,0.60682c0,0.17663 -0.06267,0.32478 -0.18802,0.44443c-0.11965,0.11396 -0.24786,0.17093 -0.38461,0.17093c-0.07977,0 -0.22222,-0.03133 -0.42733,-0.09401c-0.20512,-0.06267 -0.37606,-0.09401 -0.5128,-0.09401c-0.34757,0 -0.60682,0.17663 -0.77775,0.52989c-0.17093,0.34757 -0.2564,1.0256 -0.2564,2.03411v0.84613c0,0.37036 -0.0171,0.62106 -0.05128,0.75211c-0.02849,0.13105 -0.10826,0.2507 -0.23931,0.35896c-0.12535,0.10256 -0.27065,0.15384 -0.43588,0.15384c-0.16523,0 -0.31338,-0.04843 -0.44442,-0.1453c-0.12535,-0.09686 -0.20513,-0.20797 -0.23931,-0.33332c-0.03419,-0.13105 -0.05128,-0.37605 -0.05128,-0.73501zM266.61708,174.93611c0.19373,0 0.35896,0.07122 0.49571,0.21366c0.13674,0.14245 0.20512,0.30768 0.20512,0.49571c0,0.19373 -0.06838,0.36181 -0.20512,0.50426c-0.13674,0.13675 -0.30198,0.20512 -0.49571,0.20512c-0.19373,0 -0.36181,-0.06838 -0.50426,-0.20512c-0.13674,-0.14244 -0.20513,-0.31053 -0.20513,-0.50426c0,-0.19373 0.06838,-0.35896 0.20513,-0.49571c0.14245,-0.14245 0.31053,-0.21366 0.50426,-0.21366zM267.34353,178.22658v3.52979c0,0.35326 -0.01709,0.59542 -0.05128,0.72647c-0.02849,0.12535 -0.11111,0.23931 -0.24785,0.34186c-0.13105,0.09686 -0.27349,0.1453 -0.42733,0.1453c-0.15384,0 -0.29914,-0.04843 -0.43588,-0.1453c-0.13674,-0.10256 -0.22222,-0.21936 -0.2564,-0.35041c-0.02849,-0.13105 -0.04273,-0.37035 -0.04273,-0.71792v-3.52124c0,-0.31907 0.0114,-0.54413 0.03419,-0.67518c0.02849,-0.13675 0.10826,-0.2564 0.23931,-0.35896c0.13105,-0.10825 0.28204,-0.16239 0.45298,-0.16239c0.17093,0 0.31908,0.04843 0.44443,0.1453c0.12535,0.09117 0.20512,0.21081 0.23931,0.35896c0.03419,0.14244 0.05128,0.37036 0.05128,0.68373zM273.99179,179.36329v2.39308c0,0.31338 -0.01424,0.54129 -0.04273,0.68373c-0.02279,0.13675 -0.09972,0.25925 -0.23076,0.3675c-0.12535,0.10825 -0.27349,0.16239 -0.44443,0.16239c-0.15954,0 -0.30768,-0.04843 -0.44443,-0.1453c-0.13105,-0.09686 -0.21367,-0.21936 -0.24786,-0.3675c-0.03419,-0.15384 -0.05128,-0.38745 -0.05128,-0.70083v-2.09394c0,-0.58687 -0.08832,-0.98002 -0.26495,-1.17945c-0.17093,-0.20512 -0.41024,-0.30768 -0.71792,-0.30768c-0.27349,0 -0.51565,0.07977 -0.72647,0.23931c-0.21081,0.15954 -0.35896,0.36181 -0.44443,0.60681c-0.08546,0.23931 -0.1282,0.64955 -0.1282,1.23072v1.50422c0,0.30768 -0.01139,0.53275 -0.03418,0.67519c-0.02279,0.13675 -0.09971,0.26209 -0.23076,0.37605c-0.13105,0.10825 -0.28204,0.16239 -0.45298,0.16239c-0.16523,0 -0.31623,-0.04843 -0.45297,-0.1453c-0.13105,-0.10256 -0.21082,-0.22506 -0.23931,-0.3675c-0.02849,-0.14814 -0.04273,-0.38175 -0.04273,-0.70083v-3.58961c0,-0.32478 0.01424,-0.54984 0.04273,-0.67519c0.03419,-0.13105 0.11111,-0.23931 0.23076,-0.32478c0.12535,-0.08546 0.26495,-0.1282 0.41879,-0.1282c0.14245,0 0.29059,0.05698 0.44443,0.17094c0.15384,0.10825 0.23076,0.3789 0.23076,0.81193c0.49001,-0.65524 1.11677,-0.98287 1.88027,-0.98287c0.29059,0 0.57833,0.05698 0.86321,0.17094c0.28489,0.10825 0.51566,0.28489 0.69228,0.52989c0.18233,0.24501 0.29343,0.5014 0.33332,0.7692c0.03988,0.2678 0.05983,0.55268 0.05983,0.85467zM279.45419,178.03001v-0.19657c0,-0.2621 0.06268,-0.45867 0.18803,-0.58973c0.13105,-0.13675 0.29629,-0.20512 0.49571,-0.20512c0.22222,0 0.39315,0.07692 0.5128,0.23076c0.11965,0.15384 0.17948,0.48716 0.17948,0.99996v3.91439c0,1.16235 -0.245,1.94294 -0.73502,2.34179c-0.49001,0.40454 -1.19653,0.60682 -2.11958,0.60682c-0.83188,0 -1.48143,-0.15385 -1.94864,-0.46153c-0.46722,-0.30768 -0.70083,-0.63245 -0.70083,-0.97432c0,-0.18233 0.05982,-0.33048 0.17948,-0.44443c0.12535,-0.11396 0.2735,-0.17094 0.44443,-0.17094c0.15384,0 0.27349,0.03704 0.35896,0.11111c0.09116,0.07407 0.24501,0.24785 0.46152,0.52134c0.22222,0.27349 0.58972,0.41025 1.10252,0.41025c0.28489,0 0.54984,-0.04559 0.79485,-0.13675c0.245,-0.08546 0.42449,-0.24216 0.53844,-0.47007c0.11965,-0.22222 0.17378,-0.77205 0.16239,-1.64951c-0.44443,0.64385 -1.05124,0.96578 -1.82045,0.96578c-0.74641,0 -1.33614,-0.27919 -1.76917,-0.83758c-0.43303,-0.55839 -0.64954,-1.27061 -0.64954,-2.13667c0,-0.86607 0.22221,-1.55265 0.66664,-2.05975c0.44443,-0.5071 1.02276,-0.76065 1.73498,-0.76065c0.7806,0 1.4216,0.33047 1.923,0.99142zM276.60814,179.97865c0,0.56408 0.1225,0.99427 0.36751,1.29055c0.245,0.29628 0.58402,0.44442 1.01705,0.44442c0.37606,0 0.69798,-0.14244 0.96578,-0.42733c0.27349,-0.29059 0.41024,-0.72361 0.41024,-1.29909c0,-0.56408 -0.12535,-1.01136 -0.37606,-1.34183c-0.25071,-0.33047 -0.58972,-0.49571 -1.01705,-0.49571c-0.41594,0 -0.74926,0.15669 -0.99996,0.47007c-0.245,0.30768 -0.36751,0.76065 -0.36751,1.35892zM287.88978,185.1323c-0.2621,0 -0.46153,-0.05129 -0.59827,-0.15385c-0.13674,-0.09686 -0.37036,-0.41309 -0.70083,-0.94868c-0.33047,-0.53559 -0.60112,-1.1595 -0.81194,-1.87173c-0.21081,-0.71223 -0.31622,-1.43014 -0.31622,-2.15376c0,-0.78629 0.11965,-1.5555 0.35896,-2.30761c0.23931,-0.75781 0.5185,-1.38171 0.83757,-1.87172c0.32477,-0.49001 0.54699,-0.77205 0.66664,-0.84612c0.12535,-0.07407 0.31338,-0.11111 0.56409,-0.11111c0.15954,0 0.23931,0.04559 0.23931,0.13675c0,0.03419 -0.1168,0.29913 -0.35041,0.79484c-0.23361,0.49571 -0.44728,1.14526 -0.641,1.94864c-0.19373,0.80339 -0.29059,1.5555 -0.29059,2.25633c0,0.70652 0.09686,1.46718 0.29059,2.28196c0.19373,0.80908 0.40739,1.44724 0.641,1.91446c0.23361,0.46722 0.35041,0.73501 0.35041,0.80338c0,0.08546 -0.07977,0.12821 -0.23931,0.12821zM291.89926,174.9532c0.80909,0 1.46718,0.30768 1.97428,0.92304c0.5128,0.60967 0.7692,1.64952 0.7692,3.11955c0,1.48143 -0.27064,2.51557 -0.81193,3.10245c-0.53559,0.58118 -1.17375,0.87176 -1.91446,0.87176c-0.7692,0 -1.4216,-0.31053 -1.95719,-0.93159c-0.5299,-0.62106 -0.79484,-1.62672 -0.79484,-3.01698c0,-1.44154 0.23646,-2.47854 0.70938,-3.111c0.47292,-0.63815 1.1481,-0.95723 2.02557,-0.95723zM291.89926,181.88456c0.43873,0 0.76066,-0.21366 0.96578,-0.641c0.20512,-0.42733 0.30768,-1.21078 0.30768,-2.35034c0,-1.037 -0.10256,-1.77202 -0.30768,-2.20505c-0.19942,-0.43303 -0.52135,-0.64955 -0.96578,-0.64955c-0.42733,0 -0.74356,0.21081 -0.94868,0.63245c-0.20512,0.41594 -0.30768,1.1709 -0.30768,2.26487c0,1.11107 0.10256,1.88028 0.30768,2.30761c0.20512,0.42733 0.52134,0.641 0.94868,0.641zM295.40873,181.88456l1.50422,-6.16217c0.07407,-0.34187 0.14529,-0.56978 0.21366,-0.68373c0.07407,-0.11395 0.21082,-0.17094 0.41025,-0.17094c0.37036,0 0.55554,0.15384 0.55554,0.46152c0,0.11395 -0.03704,0.32193 -0.11111,0.62391l-1.49567,6.16217c-0.06838,0.33047 -0.14245,0.55554 -0.22222,0.67519c-0.07407,0.11965 -0.20797,0.17948 -0.40169,0.17948c-0.37036,0 -0.55553,-0.15384 -0.55553,-0.46152c0,-0.11965 0.03418,-0.32763 0.10256,-0.62391zM302.95867,178.55136c0.83757,0.44443 1.25636,1.08543 1.25636,1.92301c0,0.66094 -0.25925,1.24212 -0.77775,1.74352c-0.5128,0.50141 -1.18514,0.75211 -2.01702,0.75211c-0.83757,0 -1.48997,-0.25925 -1.95719,-0.77775c-0.46152,-0.5185 -0.69228,-0.98287 -0.69228,-1.39311c0,-0.17663 0.06268,-0.32762 0.18803,-0.45297c0.13105,-0.12535 0.29344,-0.18802 0.48716,-0.18802c0.12535,0 0.23645,0.03703 0.33332,0.1111c0.10256,0.06838 0.19943,0.23076 0.29059,0.48716c0.2621,0.7692 0.71222,1.1538 1.35037,1.1538c0.33617,0 0.64386,-0.1225 0.92305,-0.36751c0.27919,-0.2507 0.41879,-0.59257 0.41879,-1.0256c0,-0.40454 -0.11396,-0.72647 -0.34187,-0.96577c-0.22222,-0.23931 -0.5242,-0.35897 -0.90595,-0.35897l-0.68374,0.04274c-0.38745,0 -0.58117,-0.18233 -0.58117,-0.54699c0,-0.38745 0.23931,-0.58117 0.71792,-0.58117c0.59257,0 0.98287,-0.11396 1.1709,-0.34187c0.19373,-0.22791 0.29058,-0.47291 0.29058,-0.73501c0,-0.29628 -0.09686,-0.54129 -0.29058,-0.73502c-0.18803,-0.19373 -0.44158,-0.29059 -0.76065,-0.29059c-0.57548,0 -0.96578,0.28773 -1.1709,0.86321c-0.13105,0.34187 -0.33332,0.51281 -0.60681,0.51281c-0.18233,0 -0.33047,-0.05698 -0.44442,-0.17094c-0.10826,-0.11965 -0.16239,-0.26494 -0.16239,-0.43588c0,-0.41024 0.23076,-0.81479 0.69228,-1.21363c0.46152,-0.40454 1.06264,-0.60682 1.80335,-0.60682c0.72362,0 1.2991,0.18518 1.72643,0.55553c0.42733,0.37036 0.641,0.83188 0.641,1.38456c0,0.63815 -0.29913,1.19084 -0.8974,1.65806zM305.51093,174.86772c0.2564,0 0.45298,0.04843 0.58972,0.1453c0.13674,0.09687 0.37036,0.41594 0.70083,0.95723c0.33047,0.54129 0.60112,1.16805 0.81194,1.88027c0.21081,0.70652 0.31623,1.42445 0.31623,2.15377c0,0.7806 -0.11965,1.5498 -0.35896,2.3076c-0.23931,0.75211 -0.52135,1.37317 -0.84613,1.86318c-0.31907,0.49001 -0.54129,0.77205 -0.66664,0.84612c-0.11965,0.07407 -0.30199,0.11111 -0.54699,0.11111c-0.15954,0 -0.23931,-0.04274 -0.23931,-0.12821c0,-0.03988 0.11396,-0.30767 0.34187,-0.80338c0.23361,-0.49571 0.44728,-1.14526 0.641,-1.94865c0.19942,-0.80339 0.29913,-1.55264 0.29913,-2.24778c0,-0.71223 -0.09971,-1.47289 -0.29913,-2.28197c-0.19373,-0.81479 -0.40739,-1.45579 -0.641,-1.92301c-0.22791,-0.46722 -0.34187,-0.73216 -0.34187,-0.79484c0,-0.09116 0.07977,-0.13675 0.23931,-0.13675z"/></g></g></svg>