<svg version="1.1" xmlns="http://www.w3.org/2000/svg" xmlns:xlink="http://www.w3.org/1999/xlink" width="74.83333" height="57.83333" viewBox="0,0,74.83333,57.83333"><g transform="translate(-212.08334,-153.23334)"><g data-paper-data="{&quot;isPaintingLayer&quot;:true}" fill-rule="nonzero" stroke-linecap="butt" stroke-linejoin="miter" stroke-miterlimit="10" stroke-dasharray="" stroke-dashoffset="0" style="mix-blend-mode: normal"><path d="M224.37502,180c0,-8.62945 6.99555,-15.625 15.625,-15.625c8.62945,0 15.625,6.99555 15.625,15.625c0,8.62945 -6.99555,15.625 -15.625,15.625c-8.62945,0 -15.625,-6.99555 -15.625,-15.625z" fill="#000000" stroke="#000000" stroke-width="7.5"/><path d="M224.37502,180c0,-8.62945 6.99555,-15.625 15.625,-15.625c8.62945,0 15.625,6.99555 15.625,15.625c0,8.62945 -6.99555,15.625 -15.625,15.625c-8.62945,0 -15.625,-6.99555 -15.625,-15.625z" fill="#000000" stroke="#ffffff" stroke-width="3.5"/><path d="M224.37502,180c0,-8.62945 6.99555,-15.625 15.625,-15.625c8.62945,0 15.625,6.99555 15.625,15.625c0,8.62945 -6.99555,15.625 -15.625,15.625c-8.62945,0 -15.625,-6.99555 -15.625,-15.625z" fill="#000000" stroke="#ffffff" stroke-width="2"/><path d="M245.29169,187.24796l-12.77134,-12.20671l2.188,-2.2892l12.77134,12.20671z" fill="#ffffff" stroke="none" stroke-width="0"/><path d="M232.52035,184.95876l12.77134,-12.20672l2.188,2.28921l-12.77134,12.20672z" data-paper-data="{&quot;index&quot;:null}" fill="#ffffff" stroke="none" stroke-width="0"/><path d="M212.08335,211.06667v-57.83333h74.83333v57.83333z" fill="none" stroke="none" stroke-width="0"/></g></g></svg>