<svg version="1.1" xmlns="http://www.w3.org/2000/svg" xmlns:xlink="http://www.w3.org/1999/xlink" width="83" height="93" viewBox="0,0,83,93"><g transform="translate(-193.02734,-99.21094)"><g data-paper-data="{&quot;isPaintingLayer&quot;:true}" fill-rule="nonzero" stroke-linecap="butt" stroke-linejoin="miter" stroke-miterlimit="10" stroke-dasharray="" stroke-dashoffset="0" style="mix-blend-mode: normal"><path d="M233.48737,139.62166c-1.62724,-2.25893 -4.03885,-6.59161 -5.70331,-11.08174c-1.35802,-3.66346 -2.16823,-7.4109 -2.0841,-9.48978c0.03443,-0.85083 0.38783,-1.48151 0.88142,-1.68397c2.09384,-0.85884 7.74147,-3.19688 9.41466,-4.10886c0.88183,-0.48065 2.06092,-0.33204 2.52337,1.19324c0.99458,3.28033 2.74806,8.88587 3.92461,11.64568c1.12727,2.64421 2.93497,6.70323 4.0675,9.2322c0.6148,1.37287 -0.00284,2.76567 -0.8842,3.1672c-0.534,0.24328 -0.32705,2.15339 -1.67648,3.72144c-0.50501,0.58683 -2.60649,0.91198 -3.2069,1.52118c-1.33183,1.35131 -2.98731,2.55389 -3.87763,2.9595c-0.45685,0.20813 -0.50757,-3.49289 -0.8829,-3.3219c-0.49987,0.22772 0.41133,-1.11254 -0.23898,-1.40092c-0.55398,-0.24566 -1.87655,-1.82504 -2.25707,-2.35328z" fill="#363d3d" stroke="#f3e005" stroke-width="6"/><path d="M239.09751,154.91164c0.20649,5.40224 -0.59172,11.77183 -15.43353,14.62234c-8.3215,1.59823 -10.48219,-10.55127 -9.75924,-19.34292c0.99211,-12.06481 4.92423,-15.43675 6.1974,-16.22196c0.25221,-0.15555 0.47885,0.05601 0.52153,0.19992c0.04758,0.16042 0.34515,0.4709 0.68532,0.42591c1.61415,-0.21346 6.51441,-0.58518 9.54199,2.18948c7.21291,6.61037 8.11858,14.77955 8.24654,18.12724z" fill="#414659" stroke="#000000" stroke-width="5"/><path d="M232.3225,166.82806c-2.15326,1.07318 -4.97287,1.99805 -8.65852,2.70591c-5.7157,1.09775 -6.30051,-3.49092 -6.30051,-3.49092c0,0 -1.47432,-1.05164 -1.71856,-3.36732c-0.059,-0.55948 0.95242,-2.1715 0.92144,-2.73089c-0.2217,-4.0024 -0.06736,-4.88202 -0.0589,-5.46529c0.01103,-0.76069 1.0673,-1.17978 1.17455,-0.68708c0.24203,1.11181 0.55268,3.24399 1.13591,4.99143c0.60713,1.81902 1.81702,3.05073 2.09732,3.0872c0.89439,0.11637 -1.64674,-8.27056 0.59787,-8.13843c0.6011,0.03539 2.90204,10.01401 8.62921,12.59946c1.29063,0.58264 3.06959,0.05263 2.18018,0.49591z" fill="#232b33" stroke="none" stroke-width="5"/><path d="M239.09751,154.91164c0.20649,5.40224 -0.59172,11.77183 -15.43353,14.62234c-8.32151,1.59823 -10.48219,-10.55127 -9.75924,-19.34292c0.99211,-12.06482 4.92423,-15.43674 6.1974,-16.22196c0.25221,-0.15555 0.47885,0.05601 0.52153,0.19992c0.04758,0.16042 0.34515,0.4709 0.68532,0.42591c1.61415,-0.21346 6.51441,-0.58518 9.54199,2.18948c7.21291,6.61037 8.11858,14.77955 8.24654,18.12724z" fill="none" stroke="#f3e005" stroke-width="6.5"/><path d="M247.52533,135.39598c-0.88815,-1.02283 -1.99036,-2.29218 -2.51718,-2.89889c-0.57834,-0.66604 -0.61686,-2.27157 -0.03218,-2.77927c0.59113,-0.51329 1.91499,-1.66283 2.9784,-2.58622c0.85629,-0.74353 2.14331,-0.51019 2.71767,0.01156c3.85525,3.50211 1.77506,6.64104 1.14197,7.19077c-0.5708,0.49563 -1.18525,1.02918 -1.70641,1.48172c-0.72171,0.62668 -1.85078,0.42277 -2.58228,-0.41967z" fill="#5b6767" stroke="#f3e005" stroke-width="6.5"/><path d="M233.82863,146.54582c2.53447,5.55302 3.59753,10.5853 1.43978,11.57012c-2.15775,0.98482 -5.96154,-2.71843 -8.49601,-8.27145c-2.53447,-5.55302 -2.83987,-10.853 -0.68213,-11.83782c2.15775,-0.98482 5.20389,2.98613 7.73837,8.53915z" fill="#242931" stroke="#000000" stroke-width="5"/><path d="M234.71221,146.50823c2.76076,5.5434 3.9074,10.57212 1.53307,11.56616c-2.37432,0.99404 -6.53713,-2.69395 -9.29789,-8.23734c-2.76076,-5.5434 -3.07402,-10.84303 -0.6997,-11.83707c2.37432,-0.99404 5.70376,2.96486 8.46451,8.50825z" fill="#242931" stroke="none" stroke-width="5"/><path d="M233.48737,139.62166c-1.62724,-2.25893 -4.03885,-6.59161 -5.70331,-11.08174c-1.35802,-3.66346 -2.16823,-7.4109 -2.0841,-9.48978c0.03443,-0.85083 0.38783,-1.48151 0.88142,-1.68397c2.09384,-0.85884 7.74147,-3.19688 9.41466,-4.10886c0.88183,-0.48065 2.06092,-0.33204 2.52337,1.19324c0.99458,3.28033 2.74806,8.88587 3.92461,11.64568c1.12727,2.64421 2.93497,6.70323 4.0675,9.2322c0.6148,1.37287 -0.00284,2.76567 -0.8842,3.1672c-1.40461,0.63991 -5.66512,2.58089 -7.98273,3.63674c-0.49987,0.22772 -1.24985,0.13095 -1.90016,-0.15743c-0.55398,-0.24566 -1.87655,-1.82504 -2.25707,-2.35328z" fill="#859595" stroke="#f3e005" stroke-width="6.5"/><path d="M234.37601,135.49242c-0.93628,-1.60369 -2.36141,-4.3231 -3.30457,-6.86744c-0.8714,-2.35073 -1.41943,-5.417 -2.31571,-5.71623c0.02209,-0.54595 0.80024,-0.9741 1.11696,-1.10401c1.34355,-0.55109 4.96745,-2.05134 6.04109,-2.63652c0.56584,-0.30841 1.32243,-0.21306 1.61917,0.76566c0.63819,2.10488 2.41092,5.3428 3.16588,7.11368c0.72333,1.69671 1.77769,4.41621 2.5044,6.03898c0.19739,0.44078 0.06109,0.94587 -0.19523,1.37281c-0.25595,0.42633 -0.63157,0.77476 -0.91413,0.90349c-0.90129,0.41061 -3.63513,1.65607 -5.12226,2.33358c-0.32075,0.14613 -1.01785,0.20368 -1.43514,0.01864c-0.35547,-0.15763 -1.0365,-2.01033 -1.16045,-2.22264z" fill="#151310" stroke="none" stroke-width="5"/><path d="M234.37601,135.49242c-0.93628,-1.60369 -2.36141,-4.3231 -3.30457,-6.86744c-0.8714,-2.35073 -1.41943,-5.417 -2.31571,-5.71623c0.00792,-0.19574 1.71298,0.0411 2.87078,1.91198c1.24555,2.01267 1.98915,5.73707 3.18698,7.54903c0.79427,1.20148 2.30042,2.12348 2.23486,2.23268c-0.21854,0.36402 -2.5484,1.10229 -2.67234,0.88998z" fill="#433d34" stroke="none" stroke-width="5"/><path d="M234.37601,135.49242c-0.93628,-1.60369 -2.36141,-4.3231 -3.30457,-6.86744c-0.8714,-2.35073 -1.41943,-5.417 -2.31571,-5.71623c0.0221,-0.54595 0.80024,-0.9741 1.11696,-1.10401c1.34355,-0.55109 4.96745,-2.05134 6.04109,-2.63652c0.56584,-0.30841 1.32243,-0.21306 1.61917,0.76566c0.63819,2.10488 2.41092,5.3428 3.16588,7.11368c0.72333,1.69671 1.77769,4.41621 2.5044,6.03898c0.19739,0.44078 0.0611,0.94586 -0.19523,1.37281c-0.25595,0.42633 -0.63157,0.77476 -0.91414,0.90349c-0.90129,0.41061 -3.63513,1.65608 -5.12226,2.33358c-0.32075,0.14613 -1.01785,0.20368 -1.43513,0.01864c-0.35547,-0.15763 -1.0365,-2.01033 -1.16045,-2.22264z" fill="none" stroke="#ab2828" stroke-width="5"/><path d="M193.02734,192.21094v-93h83v93z" fill="none" stroke="none" stroke-width="0"/><path d="M233.48736,139.62166c-1.62724,-2.25893 -4.03885,-6.59161 -5.70331,-11.08174c-1.35802,-3.66346 -2.16823,-7.4109 -2.0841,-9.48978c0.03443,-0.85083 0.38783,-1.48151 0.88142,-1.68397c2.09384,-0.85884 7.74147,-3.19688 9.41466,-4.10886c0.88183,-0.48065 2.06092,-0.33204 2.52337,1.19324c0.99458,3.28033 2.74806,8.88587 3.92461,11.64568c1.12727,2.64421 2.93497,6.70323 4.0675,9.2322c0.6148,1.37287 -0.00284,2.76567 -0.8842,3.1672c-0.534,0.24328 -0.32705,2.15339 -1.67648,3.72144c-0.50501,0.58683 -2.60649,0.91198 -3.2069,1.52118c-1.33183,1.35131 -2.98731,2.55389 -3.87763,2.9595c-0.45685,0.20813 -0.50757,-3.49289 -0.8829,-3.3219c-0.49987,0.22772 0.41133,-1.11253 -0.23898,-1.40091c-0.55398,-0.24566 -1.87655,-1.82504 -2.25707,-2.35328z" fill="#363d3d" stroke="#000000" stroke-width="2"/><path d="M239.0975,154.91164c0.20649,5.40224 -0.59172,11.77183 -15.43353,14.62234c-8.3215,1.59823 -10.48219,-10.55127 -9.75924,-19.34292c0.99211,-12.06481 4.92423,-15.43675 6.1974,-16.22196c0.25221,-0.15555 0.47885,0.05601 0.52153,0.19992c0.04758,0.16042 0.34515,0.4709 0.68532,0.42591c1.61415,-0.21346 6.51441,-0.58518 9.54199,2.18948c7.21291,6.61037 8.11858,14.77955 8.24654,18.12724z" fill="#414659" stroke="#000000" stroke-width="2"/><path d="M232.32249,166.82806c-2.15326,1.07318 -4.97287,1.99805 -8.65852,2.70591c-5.7157,1.09775 -6.30051,-3.49091 -6.30051,-3.49091c0,0 -1.47432,-1.05164 -1.71856,-3.36732c-0.059,-0.55948 0.95242,-2.1715 0.92144,-2.73089c-0.2217,-4.0024 -0.06736,-4.88202 -0.0589,-5.46529c0.01103,-0.76069 1.0673,-1.17978 1.17455,-0.68708c0.24203,1.11181 0.55268,3.24399 1.13591,4.99143c0.60713,1.81902 1.81702,3.05073 2.09732,3.0872c0.89439,0.11637 -1.64674,-8.27056 0.59787,-8.13843c0.6011,0.03539 2.90204,10.01401 8.62921,12.59946c1.29063,0.58264 3.06959,0.05263 2.18018,0.49591z" fill="#232b33" stroke="none" stroke-width="2"/><path d="M239.0975,154.91164c0.20649,5.40224 -0.59172,11.77183 -15.43353,14.62234c-8.32151,1.59823 -10.48219,-10.55127 -9.75924,-19.34292c0.99211,-12.06482 4.92423,-15.43674 6.1974,-16.22196c0.25221,-0.15555 0.47885,0.05601 0.52153,0.19992c0.04758,0.16042 0.34515,0.4709 0.68532,0.42591c1.61415,-0.21346 6.51441,-0.58518 9.54199,2.18948c7.21291,6.61037 8.11858,14.77955 8.24654,18.12724z" fill="none" stroke="#000000" stroke-width="2"/><path d="M247.52532,135.39598c-0.88815,-1.02283 -1.99036,-2.29218 -2.51718,-2.89889c-0.57834,-0.66604 -0.61686,-2.27157 -0.03218,-2.77927c0.59113,-0.51329 1.91499,-1.66283 2.9784,-2.58622c0.85629,-0.74353 2.14331,-0.51019 2.71767,0.01156c3.85525,3.50211 1.77506,6.64104 1.14197,7.19077c-0.5708,0.49563 -1.18525,1.02918 -1.70641,1.48172c-0.72171,0.62668 -1.85078,0.42277 -2.58228,-0.41967z" fill="#5b6767" stroke="#000000" stroke-width="2"/><path d="M233.82862,146.54582c2.53447,5.55302 3.59753,10.5853 1.43978,11.57012c-2.15775,0.98482 -5.96154,-2.71843 -8.49601,-8.27145c-2.53447,-5.55302 -2.83987,-10.853 -0.68213,-11.83782c2.15775,-0.98482 5.20389,2.98613 7.73837,8.53915z" fill="#242931" stroke="#000000" stroke-width="2"/><path d="M234.7122,146.50823c2.76076,5.5434 3.9074,10.57212 1.53307,11.56616c-2.37432,0.99404 -6.53713,-2.69395 -9.29789,-8.23734c-2.76076,-5.5434 -3.07402,-10.84303 -0.6997,-11.83707c2.37432,-0.99404 5.70376,2.96486 8.46451,8.50825z" fill="#242931" stroke="none" stroke-width="2"/><path d="M233.48736,139.62166c-1.62724,-2.25893 -4.03885,-6.59161 -5.70331,-11.08174c-1.35802,-3.66346 -2.16823,-7.4109 -2.0841,-9.48978c0.03443,-0.85083 0.38783,-1.48151 0.88142,-1.68397c2.09384,-0.85884 7.74147,-3.19688 9.41466,-4.10886c0.88183,-0.48065 2.06092,-0.33204 2.52337,1.19324c0.99458,3.28033 2.74806,8.88587 3.92461,11.64568c1.12727,2.64421 2.93497,6.70323 4.0675,9.2322c0.6148,1.37287 -0.00284,2.76567 -0.8842,3.1672c-1.40461,0.63991 -5.66512,2.58089 -7.98273,3.63674c-0.49987,0.22772 -1.24985,0.13095 -1.90016,-0.15743c-0.55398,-0.24566 -1.87655,-1.82504 -2.25707,-2.35328z" fill="#859595" stroke="#000000" stroke-width="2"/><path d="M234.376,135.49242c-0.93628,-1.60369 -2.36141,-4.3231 -3.30457,-6.86744c-0.8714,-2.35073 -1.41943,-5.417 -2.31571,-5.71623c0.02209,-0.54595 0.80024,-0.9741 1.11696,-1.10401c1.34355,-0.55109 4.96745,-2.05134 6.04109,-2.63652c0.56584,-0.30841 1.32243,-0.21306 1.61917,0.76566c0.63819,2.10488 2.41092,5.3428 3.16588,7.11368c0.72333,1.69671 1.77769,4.41621 2.5044,6.03898c0.19739,0.44078 0.06109,0.94587 -0.19523,1.37281c-0.25595,0.42633 -0.63157,0.77476 -0.91413,0.90349c-0.90129,0.41061 -3.63513,1.65607 -5.12226,2.33358c-0.32075,0.14613 -1.01785,0.20368 -1.43514,0.01864c-0.35547,-0.15763 -1.0365,-2.01033 -1.16045,-2.22264z" fill="#151310" stroke="none" stroke-width="2"/><path d="M234.376,135.49242c-0.93628,-1.60369 -2.36141,-4.3231 -3.30457,-6.86744c-0.8714,-2.35073 -1.41943,-5.417 -2.31571,-5.71623c0.00792,-0.19574 1.71298,0.0411 2.87078,1.91198c1.24555,2.01267 1.98915,5.73707 3.18698,7.54903c0.79427,1.20148 2.30042,2.12348 2.23486,2.23268c-0.21854,0.36402 -2.5484,1.10229 -2.67234,0.88998z" fill="#433d34" stroke="none" stroke-width="2"/><path d="M234.376,135.49242c-0.93628,-1.60369 -2.36141,-4.3231 -3.30457,-6.86744c-0.8714,-2.35073 -1.41943,-5.417 -2.31571,-5.71623c0.0221,-0.54595 0.80024,-0.9741 1.11696,-1.10401c1.34355,-0.55109 4.96745,-2.05134 6.04109,-2.63652c0.56584,-0.30841 1.32243,-0.21306 1.61917,0.76566c0.63819,2.10488 2.41092,5.3428 3.16588,7.11368c0.72333,1.69671 1.77769,4.41621 2.5044,6.03898c0.19739,0.44078 0.0611,0.94586 -0.19523,1.37281c-0.25595,0.42633 -0.63157,0.77476 -0.91414,0.90349c-0.90129,0.41061 -3.63513,1.65608 -5.12226,2.33358c-0.32075,0.14613 -1.01785,0.20368 -1.43513,0.01864c-0.35547,-0.15763 -1.0365,-2.01033 -1.16045,-2.22264z" fill="none" stroke="#ab2828" stroke-width="2"/></g></g></svg>