<svg version="1.1" xmlns="http://www.w3.org/2000/svg" xmlns:xlink="http://www.w3.org/1999/xlink" width="304.30031" height="304.30025" viewBox="0,0,304.30031,304.30025"><g transform="translate(-92.84984,-32.84987)"><g data-paper-data="{&quot;isPaintingLayer&quot;:true}" fill-rule="nonzero" stroke-linecap="butt" stroke-linejoin="miter" stroke-miterlimit="10" stroke-dasharray="" stroke-dashoffset="0" style="mix-blend-mode: normal"><path d="M94.84985,275.23517c0,-59.99896 0,-148.11906 0,-181.81815c0,-26.16557 22.73163,-58.56714 54.69562,-58.56714c60.91162,0 155.35022,0 189.899,0c25.1397,0 55.70568,31.10369 55.70568,56.54696c0,34.37139 0,127.20919 0,187.87876c0,32.57375 -30.56593,55.87453 -55.70568,55.87453c-33.79375,0 -124.88841,0 -185.85858,0c-34.07175,0 -58.73599,-25.26921 -58.73599,-59.91496z" fill="#83a08b" stroke="#83a08b" stroke-width="4"/><path d="M166.37826,102.81656c-1.47314,-4.00791 -0.35754,-11.36297 5.28604,-14.00937c7.48021,-3.50764 10.58122,-7.17998 34.56454,-11.17512c57.61305,-4.89391 61.82851,27.7576 65.18654,36.80225c2.07198,5.58072 -13.45802,4.38667 -19.38783,2.26291c-8.93422,-3.19982 -20.89625,-6.6515 -35.03367,-8.7219c-24.82481,-3.63552 -50.03075,-3.56751 -50.61562,-5.15877z" data-paper-data="{&quot;index&quot;:null}" fill="#1e1f25" stroke="#000000" stroke-width="16"/><path d="M217.61353,149.68047l-18.22622,49.0911c0,0 -30.81472,0.41468 -45.21819,-2.39683c-15.13316,-2.95395 -27.08435,-7.66748 -34.56454,-11.17512c-5.64359,-2.6464 -6.75918,-10.00147 -5.28604,-14.00938c1.21799,-3.31379 5.34797,-8.72367 6.96586,-15.07796c2.58822,-10.16531 11.30302,-12.74231 17.54746,-11.28165c6.05488,1.41631 2.58856,8.84832 30.66197,10.78286c26.93185,1.85586 48.11968,-5.933 48.11968,-5.933z" fill="#1e1f25" stroke="#000000" stroke-width="16"/><path d="M201.80672,190.71907c0,-49.74061 24.17735,-86.93974 62.99227,-86.93974c38.81492,0 74.44541,41.36393 74.44541,91.10452c0,49.74059 -15.8478,87.98094 -54.66271,87.98094c-38.81492,0 -82.77497,-25.74602 -82.77497,-92.14572z" fill="#d2cfc6" stroke="none" stroke-width="0"/><path d="M244.49569,278.52649c0,0 -25.8208,-28.84596 -31.49156,-42.83389c-7.62477,-18.8078 -7.03265,-66.14449 -7.03265,-66.14449c0,0 16.45017,58.85267 41.55387,78.51109c25.74155,20.15788 62.56559,12.07286 62.56559,12.07286l-5.20597,18.39445z" fill="#b4ac9f" stroke="none" stroke-width="0"/><path d="M240.74739,253.29487c0,0 8.08423,-6.24352 9.26599,-15.29667c1.52296,-11.66712 -1.31464,-31.05721 4.94532,-36.12666c4.67347,-5.43508 13.59432,-2.56694 20.78164,-3.09433c7.07498,-0.51914 3.4258,-4.65908 5.26501,-6.47109c1.50555,-1.48328 8.71305,-1.04672 9.23055,-0.24543c2.12416,3.28901 2.49891,11.68739 -2.23372,15.56438c-3.88053,3.17895 -19.4116,-1.39377 -24.75715,6.31964c-5.19891,8.93016 2.28282,50.59504 2.28282,50.59504z" fill="#b4ac9f" stroke="none" stroke-width="0"/><path d="M201.80672,190.71907c0,-49.74061 24.17735,-86.93974 62.99227,-86.93974c38.81492,0 74.44541,41.36393 74.44541,91.10452c0,49.74059 -15.8478,87.98094 -54.66271,87.98094c-38.81492,0 -82.77497,-25.74602 -82.77497,-92.14572z" fill="none" stroke="#000000" stroke-width="16"/><path d="M264.79164,160.32329c4.46327,0.20229 1.0772,8.87916 -2.01838,14.29941c-1.28963,2.2581 -5.65933,4.93023 -8.37466,5.333c-7.54899,1.11981 -21.01397,2.03203 -27.41263,-1.26737c-6.15688,-3.1747 -1.18882,-15.83005 1.60377,-16.71746c11.55118,-3.67071 31.69217,-1.85197 36.2019,-1.64758z" fill="#9f2800" stroke="#000000" stroke-width="8"/><path d="M297.06715,155.50089c13.73802,-2.70388 29.16271,15.4481 0.10235,21.00877c-1.41084,0.26998 -12.01195,4.28978 -13.37973,-7.64092c-1.19425,-10.41715 12.73564,-13.26123 13.27735,-13.36785z" fill="#9f2800" stroke="#000000" stroke-width="8"/><path d="M259.2084,217.50326c0,-4.02526 3.2631,-7.28837 7.28836,-7.28837c4.02526,0 7.28836,3.26311 7.28836,7.28837c0,4.02526 -3.2631,7.28836 -7.28836,7.28836c-4.02526,0 -7.28836,-3.2631 -7.28836,-7.28836z" fill="#000000" stroke="none" stroke-width="0.5"/><path d="M286.27946,216.11501c0,-4.02526 3.2631,-7.28836 7.28836,-7.28836c4.02526,0 7.28836,3.2631 7.28836,7.28836c0,4.02526 -3.2631,7.28836 -7.28836,7.28836c-4.02526,0 -7.28836,-3.2631 -7.28836,-7.28836z" fill="#000000" stroke="none" stroke-width="0.5"/><path d="M286.9736,236.59183c0,-4.02526 3.2631,-7.28836 7.28836,-7.28836c4.02526,0 7.28836,3.2631 7.28836,7.28836c0,4.02526 -3.2631,7.28836 -7.28836,7.28836c-4.02526,0 -7.28836,-3.2631 -7.28836,-7.28836z" fill="#000000" stroke="none" stroke-width="0.5"/><path d="M261.63786,240.06249c0,-4.02526 3.2631,-7.28836 7.28836,-7.28836c4.02526,0 7.28836,3.2631 7.28836,7.28836c0,4.02526 -3.2631,7.28836 -7.28836,7.28836c-4.02526,0 -7.28836,-3.2631 -7.28836,-7.28836z" fill="#000000" stroke="none" stroke-width="0.5"/></g></g></svg>