<svg version="1.1" xmlns="http://www.w3.org/2000/svg" xmlns:xlink="http://www.w3.org/1999/xlink" width="17.09092" height="17.09091" viewBox="0,0,17.09092,17.09091"><g transform="translate(-231.24326,-171.45454)"><g data-paper-data="{&quot;isPaintingLayer&quot;:true}" fill-rule="nonzero" stroke-linejoin="miter" stroke-miterlimit="10" stroke-dasharray="" stroke-dashoffset="0" style="mix-blend-mode: normal"><g><path d="M234.24326,180.00001c0,-3.06267 2.48279,-5.54546 5.54546,-5.54546c3.06267,0 5.54546,2.48279 5.54546,5.54546c0,3.06267 -2.48279,5.54545 -5.54546,5.54545c-3.06267,0 -5.54546,-2.48278 -5.54546,-5.54545z" fill="#fff0f7" stroke="#e7d3db" stroke-width="6" stroke-linecap="butt"/><path d="M234.24326,180.00001c0,-3.06267 2.48279,-5.54546 5.54546,-5.54546c3.06267,0 5.54546,2.48279 5.54546,5.54546c0,3.06267 -2.48279,5.54545 -5.54546,5.54545c-3.06267,0 -5.54546,-2.48278 -5.54546,-5.54545z" fill="#fff0f7" stroke="#853c47" stroke-width="5" stroke-linecap="butt"/><path d="M234.24326,180.00001c0,-3.06267 2.48279,-5.54546 5.54546,-5.54546c3.06267,0 5.54546,2.48279 5.54546,5.54546c0,3.06267 -2.48279,5.54545 -5.54546,5.54545c-3.06267,0 -5.54546,-2.48278 -5.54546,-5.54545z" fill="#fff0f7" stroke="#fff0f7" stroke-width="2" stroke-linecap="butt"/><path d="M234.24326,180.00001c0,-3.06267 2.48278,-5.54545 5.54545,-5.54545c3.06267,0 5.54545,2.48278 5.54545,5.54545c0,3.06267 -2.48278,5.54545 -5.54545,5.54545c-3.06267,0 -5.54545,-2.48278 -5.54545,-5.54545z" fill="#e7d3db" stroke="none" stroke-width="0.5" stroke-linecap="butt"/><g fill="#5b2838" stroke="#5b2838" stroke-width="0.3" stroke-linecap="square"><path d="M237.82629,176.1767l0.88572,1.43372c0.05858,0.09483 0.09614,0.16398 0.11266,0.20742c0.01681,0.04224 0.01628,0.08898 -0.00157,0.14025c-0.01756,0.05006 -0.05137,0.09054 -0.10139,0.12145c-0.05078,0.03137 -0.10421,0.04425 -0.16028,0.03866c-0.05579,-0.00681 -0.09941,-0.02732 -0.13086,-0.06153c-0.03117,-0.03543 -0.07513,-0.09906 -0.13187,-0.1909l-0.88572,-1.43372c-0.05858,-0.09483 -0.09582,-0.16262 -0.11171,-0.20336c-0.01513,-0.0412 -0.01387,-0.08841 0.0038,-0.14163c0.01796,-0.05443 0.05158,-0.09687 0.10087,-0.12732c0.04854,-0.02999 0.10024,-0.04232 0.1551,-0.03701c0.05487,0.00531 0.09826,0.02545 0.13018,0.06041c0.03145,0.03421 0.07648,0.09874 0.13506,0.19357z"/><path d="M236.50966,183.54717l-0.38958,-1.67523c-0.02764,-0.12323 -0.03932,-0.21146 -0.03504,-0.26465c0.00457,-0.05441 0.03933,-0.10168 0.1043,-0.14181c0.05227,-0.03229 0.10981,-0.04101 0.17263,-0.02617c0.06311,0.01363 0.10872,0.04323 0.13687,0.08877c0.02168,0.0351 0.04577,0.11668 0.07227,0.24475l0.33502,1.64702c0.03004,0.14549 0.047,0.24643 0.05089,0.30284c0.00418,0.05519 -0.00723,0.11021 -0.03422,0.16506c-0.02699,0.05485 -0.06923,0.10003 -0.12673,0.13555c-0.05824,0.03599 -0.11807,0.05437 -0.17948,0.05517c-0.06067,0.00034 -0.11558,-0.01423 -0.16474,-0.0437c-0.04962,-0.03022 -0.1323,-0.09056 -0.24803,-0.18105l-1.31042,-1.02897c-0.10583,-0.08112 -0.16981,-0.13961 -0.19196,-0.17545c-0.02999,-0.04854 -0.03742,-0.10482 -0.02229,-0.16884c0.01587,-0.06449 0.05219,-0.11426 0.10894,-0.14932c0.06721,-0.04152 0.12661,-0.05139 0.17824,-0.02963c0.05191,0.02056 0.12793,0.07263 0.22807,0.15624zM237.26375,182.27966c-0.20113,-0.32557 -0.27445,-0.6388 -0.21994,-0.9397c0.0548,-0.3021 0.23938,-0.55024 0.55375,-0.74446c0.33155,-0.20482 0.64363,-0.26247 0.93624,-0.17293c0.29261,0.08954 0.53602,0.2915 0.73023,0.60587c0.19513,0.31587 0.26772,0.62542 0.21776,0.92865c-0.04968,0.30203 -0.23692,0.55338 -0.56175,0.75405c-0.32557,0.20113 -0.63503,0.25716 -0.92839,0.16808c-0.29382,-0.08982 -0.53646,-0.28968 -0.7279,-0.59957zM238.84495,181.29199c-0.1384,-0.22402 -0.29934,-0.37014 -0.48283,-0.43837c-0.18395,-0.06897 -0.36778,-0.04672 -0.55147,0.06677c-0.17025,0.10518 -0.27229,0.2523 -0.30612,0.44137c-0.03383,0.18907 0.02468,0.4057 0.17553,0.64988c0.149,0.24119 0.31682,0.38925 0.50346,0.44419c0.18617,0.05419 0.36177,0.03031 0.5268,-0.07164c0.16204,-0.10011 0.26282,-0.24594 0.30233,-0.43749c0.03905,-0.1923 -0.01685,-0.41053 -0.1677,-0.65471zM240.06507,179.56326l0.8788,1.42252c0.05535,0.08961 0.09153,0.15651 0.10851,0.20069c0.01773,0.04373 0.01738,0.09243 -0.00105,0.14612c-0.01889,0.05293 -0.05259,0.09439 -0.10113,0.12438c-0.04854,0.02999 -0.10001,0.0427 -0.15442,0.03813c-0.05487,-0.00531 -0.09834,-0.02642 -0.13043,-0.06334c-0.03209,-0.03692 -0.07628,-0.10093 -0.13256,-0.19203l-0.8788,-1.42252l-0.37971,0.23458c-0.08289,0.05121 -0.14209,0.08313 -0.1776,0.09579c-0.03477,0.01219 -0.07249,0.01126 -0.11317,-0.00282c-0.04068,-0.01407 -0.07255,-0.03978 -0.09562,-0.07712c-0.01753,-0.02838 -0.02713,-0.06062 -0.02881,-0.09673c-0.00138,-0.03732 0.00767,-0.07025 0.02717,-0.0988c0.0195,-0.02856 0.08265,-0.07582 0.18943,-0.14178l1.16714,-0.72103c0.09633,-0.05951 0.15986,-0.0936 0.19061,-0.10228c0.0315,-0.00914 0.06669,-0.00561 0.10559,0.0106c0.03919,0.015 0.06939,0.03967 0.09061,0.07402c0.01707,0.02763 0.02615,0.06071 0.02725,0.09923c0.00138,0.03732 -0.00767,0.07025 -0.02717,0.09881c-0.0195,0.02856 -0.08228,0.07558 -0.18831,0.14109zM241.3935,178.74258l0.30931,0.50068l0.79415,-0.4906c0.06721,-0.04152 0.11721,-0.06829 0.15003,-0.08031c0.03281,-0.01201 0.0697,-0.01159 0.11067,0.00127c0.04171,0.01241 0.07433,0.03765 0.09785,0.07574c0.0203,0.03286 0.02825,0.07746 0.02387,0.13383c-0.0041,0.05515 -0.06514,0.11917 -0.18313,0.19206l-0.79415,0.4906l0.36328,0.58805l0.89832,-0.55496c0.0799,-0.04936 0.13565,-0.08019 0.16725,-0.09249c0.03115,-0.01305 0.06631,-0.01208 0.1055,0.00292c0.03947,0.01379 0.0712,0.0401 0.09519,0.07893c0.02353,0.03808 0.03271,0.07883 0.02756,0.12225c-0.00487,0.04221 -0.02128,0.07661 -0.04924,0.10316c-0.02721,0.02609 -0.07666,0.06129 -0.14835,0.10558l-0.96328,0.59509c-0.1486,0.0918 -0.24153,0.13425 -0.27881,0.12736c-0.03653,-0.00735 -0.07182,-0.01856 -0.10589,-0.03363c-0.03407,-0.01506 -0.09308,-0.09055 -0.17704,-0.22646l-0.83798,-1.35643c-0.09226,-0.14935 -0.13463,-0.24131 -0.1271,-0.27588c0.00827,-0.03503 0.01926,-0.07071 0.03294,-0.10701c0.01368,-0.03631 0.08884,-0.09667 0.22549,-0.18109l0.9308,-0.57503c0.07393,-0.04567 0.12692,-0.07429 0.15899,-0.08584c0.03235,-0.01277 0.06864,-0.01248 0.10886,0.00084c0.04096,0.01287 0.0739,0.03946 0.09881,0.07978c0.02399,0.03883 0.0334,0.07995 0.02824,0.12338c-0.00562,0.04268 -0.02151,0.07623 -0.0477,0.10066c-0.02664,0.02368 -0.07618,0.05789 -0.14861,0.10264zM244.76787,179.05052l-0.457,0.28233c-0.08886,0.05489 -0.15381,0.09089 -0.19483,0.10798c-0.04102,0.01709 -0.0845,0.02021 -0.1304,0.00937c-0.04637,-0.01159 -0.08268,-0.03197 -0.10896,-0.06114c-0.02552,-0.02963 -0.06805,-0.09261 -0.12756,-0.18893l-0.83797,-1.35643c-0.0752,-0.12171 -0.11689,-0.20841 -0.12509,-0.26009c-0.00791,-0.05289 0.00428,-0.09911 0.03659,-0.13867c0.03305,-0.04002 0.10634,-0.09509 0.21984,-0.16521l0.44915,-0.27748c0.34499,-0.21312 0.64925,-0.27006 0.91278,-0.17081c0.26428,0.09879 0.49191,0.30275 0.6829,0.6119c0.1919,0.31064 0.26926,0.60538 0.23208,0.88421c-0.03689,0.27763 -0.22073,0.51862 -0.55154,0.72298zM243.30605,177.56105l0.87188,1.41131l0.31811,-0.19652c0.10678,-0.06597 0.19386,-0.13627 0.26124,-0.21091c0.06691,-0.07539 0.1008,-0.18505 0.10164,-0.32898c0.00159,-0.14439 -0.06382,-0.32374 -0.19621,-0.53805c-0.12225,-0.19789 -0.24461,-0.32915 -0.36709,-0.3938c-0.12294,-0.06539 -0.2316,-0.09267 -0.326,-0.08181c-0.09365,0.01039 -0.22337,0.0668 -0.38914,0.16921z"/></g></g></g></g></svg>