<svg version="1.1" xmlns="http://www.w3.org/2000/svg" xmlns:xlink="http://www.w3.org/1999/xlink" width="98.74452" height="94.85963" viewBox="0,0,98.74452,94.85963"><defs><linearGradient x1="231.21152" y1="148.46632" x2="231.21152" y2="164.84826" gradientUnits="userSpaceOnUse" id="color-1"><stop offset="0" stop-color="#48995e"/><stop offset="1" stop-color="#58a36c"/></linearGradient></defs><g transform="translate(-187.525,-117.90989)"><g data-paper-data="{&quot;isPaintingLayer&quot;:true}" fill-rule="nonzero" stroke-linejoin="miter" stroke-miterlimit="10" stroke-dasharray="" stroke-dashoffset="0" style="mix-blend-mode: normal"><path d="M286.26952,165.33971c0,26.19476 -22.10472,47.42981 -49.37226,47.42981c-27.26754,0 -49.37226,-21.23505 -49.37226,-47.42981c0,-26.19476 22.10472,-47.42982 49.37226,-47.42982c27.26754,0 49.37226,21.23505 49.37226,47.42982z" fill="none" stroke="none" stroke-width="0" stroke-linecap="butt"/><path d="M237.72455,177.61803c-1.99429,-0.95054 -5.24912,-1.92331 -8.01826,-3.24317c-3.07748,-1.46683 -5.6239,-3.25914 -6.6314,-3.73934c-0.75026,-0.3576 -1.52267,-1.08314 -1.63648,-1.7301c-0.42104,-2.39368 -1.46469,-8.30576 -1.97463,-11.00426c-0.2223,-1.17638 -0.41461,-2.71598 -0.49219,-4.01316c-0.18383,-3.0734 2.03019,-4.08649 2.03019,-4.08649c0,0 3.92251,-2.29771 7.3612,-3.28218c3.23575,-0.92636 4.56439,-1.93247 7.61117,-1.77516c2.46276,0.12716 3.11197,1.33312 3.59748,2.24273c0.6799,1.27381 1.13806,3.08567 1.52798,4.44448c0.63083,2.19828 1.33576,6.8469 1.64517,9.00668c0.10133,0.70729 0.62101,1.40604 1.3602,1.81113c0.85471,0.46841 2.08166,1.13297 3.39884,1.82107c2.90502,1.51759 6.30731,3.20795 7.95861,3.99603c2.62945,1.25489 2.01928,3.26375 0.25065,4.0182c-3.88711,1.65813 -10.44291,4.45466 -12.62184,5.38414c-1.38941,0.59268 -3.93144,0.83348 -5.36669,0.14941z" fill="none" stroke="#ffffff" stroke-width="7" stroke-linecap="butt"/><path d="M238.01727,177.91075c-1.99429,-0.95054 -5.24912,-1.92331 -8.01826,-3.24317c-3.07748,-1.46683 -5.6239,-3.25914 -6.6314,-3.73934c-0.75026,-0.3576 -1.52267,-1.08314 -1.63648,-1.7301c-0.42104,-2.39368 -1.46469,-8.30576 -1.97463,-11.00426c-0.2223,-1.17638 -0.26825,-2.71598 -0.34583,-4.01316c-0.18383,-3.0734 0.60673,-3.24185 1.88383,-4.08649c1.5004,-0.99233 3.92251,-2.29771 7.3612,-3.28218c3.23575,-0.92636 4.56439,-1.93247 7.61117,-1.77516c2.46276,0.12716 3.11197,1.33312 3.59748,2.24273c0.6799,1.27381 1.13806,3.08567 1.52798,4.44448c0.63083,2.19828 1.33576,6.8469 1.64517,9.00668c0.10133,0.70729 0.62101,1.40604 1.3602,1.81113c0.85471,0.46841 2.08166,1.13297 3.39884,1.82107c2.90502,1.51759 6.30731,3.20795 7.95861,3.99603c2.62945,1.25489 2.01928,3.26375 0.25065,4.0182c-3.88711,1.65813 -10.44291,4.45466 -12.62184,5.38414c-1.38941,0.59268 -3.93144,0.83348 -5.36669,0.14941z" fill="#a2b2ba" stroke="none" stroke-width="0" stroke-linecap="butt"/><path d="M243.15108,162.24102l-20.49052,8.34257" fill="none" stroke="#303030" stroke-width="2" stroke-linecap="round"/><path d="M246.0783,163.55825l-20.19358,8.36288" fill="none" stroke="#546368" stroke-width="3" stroke-linecap="round"/><path d="M223.61641,157.72265c-0.28666,-1.04687 -0.27557,-2.08304 -0.50989,-2.94788c-0.49485,-1.4326 1.31204,-2.33457 1.31204,-2.33457c0,0 9.10403,-3.4077 10.6903,-3.89944c0.79092,-0.24518 1.76723,0.11783 2.0178,1.05176c0.66522,2.47941 1.78798,7.35617 2.17925,8.81454c0.22515,0.83919 0.0859,1.81517 -0.73785,2.09276c-1.14101,0.38452 -2.82766,0.9628 -4.38232,1.5339c-2.84086,1.04359 -5.33338,2.08166 -6.55568,2.53067c-0.96736,0.35535 -2.44857,0.74105 -3.06213,-1.30012c0,0 -0.41159,-3.56979 -0.95153,-5.54162z" fill="url(#color-1)" stroke="#2c3233" stroke-width="1.5" stroke-linecap="butt"/><path d="M223.61641,157.72265c-0.28666,-1.04687 -0.27557,-2.08304 -0.50989,-2.94788c-0.49485,-1.4326 1.31204,-2.33457 1.31204,-2.33457c0,0 9.10403,-3.4077 10.6903,-3.89944c0.79092,-0.24518 1.76723,0.11783 2.0178,1.05176c0.66522,2.47941 1.78798,7.35617 2.17925,8.81454c0.22515,0.83919 0.0859,1.81517 -0.73785,2.09276c-1.14101,0.38452 -2.82766,0.9628 -4.38232,1.5339c-2.84086,1.04359 -5.33338,2.08166 -6.55568,2.53067c-0.96736,0.35535 -2.44857,0.74105 -3.06213,-1.30012c0,0 -0.41159,-3.56979 -0.95153,-5.54162z" fill="none" stroke="#2c3233" stroke-width="1.5" stroke-linecap="butt"/><path d="M229.99902,174.66758c-3.07748,-1.46683 -5.6239,-3.25914 -6.6314,-3.73934c-0.75026,-0.3576 -1.52267,-1.08314 -1.63648,-1.7301c-0.42104,-2.39368 -1.46469,-8.30576 -1.97463,-11.00426c-0.2223,-1.17638 -0.56097,-2.71598 -0.63855,-4.01316c-0.18383,-3.0734 2.17655,-4.08649 2.17655,-4.08649c0,0 3.92251,-2.29771 7.3612,-3.28218c2.00985,-0.98873 6.34239,-1.9949 8.28929,-2.06599c0.41485,-0.01515 1.37841,0.38399 1.5772,0.54135c0.93917,0.74343 1.13666,1.60722 1.34216,1.99222c0.6799,1.27381 1.13806,3.08567 1.52798,4.44448c0.63083,2.19828 1.33576,6.8469 1.64517,9.00668c0.10133,0.70729 0.62101,1.40604 1.3602,1.81113c0.85471,0.46841 2.08166,1.13297 3.39884,1.82107c2.90502,1.51759 6.30731,3.20795 7.95861,3.99603c2.62945,1.25489 2.01928,3.26375 0.25065,4.0182c-3.88711,1.65813 -10.44291,4.45466 -12.62184,5.38414c-1.38941,0.59268 -3.93144,0.83348 -5.36669,0.14941c0,0 -5.24912,-1.9233 -8.01826,-3.24316z" fill="none" stroke="#000000" stroke-width="3" stroke-linecap="butt"/></g></g></svg>